<svg xmlns="http://www.w3.org/2000/svg" xmlns:xlink="http://www.w3.org/1999/xlink" version="1.1" class="marks" width="658" height="244" viewBox="0 0 658 244"><rect width="658" height="244" fill="white"/><g fill="none" stroke-miterlimit="10" transform="translate(104,6)"><g class="mark-group role-frame root" role="graphics-object" aria-roledescription="group mark container"><g transform="translate(0,0)"><path class="background" aria-hidden="true" d="M0,0h0v0h0Z"/><g><g class="mark-group role-row-title row-title" role="graphics-object" aria-roledescription="group mark container"><g transform="translate(-78,116)"><path class="background" aria-hidden="true" d="M0,0h0v0h0Z"/><g><g class="mark-group role-title"><g transform="translate(-21.000000000000004,0)"><path class="background" aria-hidden="true" d="M0,0h0v0h0Z" pointer-events="none"/><g><g class="mark-text role-title-text" role="graphics-symbol" aria-roledescription="title" aria-label="Title text 'group'" pointer-events="none"><text text-anchor="middle" transform="translate(0,0) rotate(-90) translate(0,9)" font-family="Liberation Mono" font-size="11px" font-weight="bold" fill="#000" opacity="1">group</text></g></g><path class="foreground" aria-hidden="true" d="" pointer-events="none" display="none"/></g></g></g><path class="foreground" aria-hidden="true" d="" display="none"/></g></g><g class="mark-group role-row-header row_header" role="graphics-object" aria-roledescription="group mark container"><g transform="translate(-47,0)"><path class="background" aria-hidden="true" d="M0,0h0v200h0Z"/><g><g class="mark-group role-title"><g transform="translate(-20.000000000000007,100)"><path class="background" aria-hidden="true" d="M0,0h0v0h0Z" pointer-events="none"/><g><g class="mark-text role-title-text" role="graphics-symbol" aria-roledescription="title" aria-label="Title text 'zalando-poncho'" pointer-events="none"><text text-anchor="middle" transform="translate(0,0) rotate(-90) translate(0,8)" font-family="Liberation Mono" font-size="10px" fill="#000" opacity="1">zalando-poncho</text></g></g><path class="foreground" aria-hidden="true" d="" pointer-events="none" display="none"/></g></g></g><path class="foreground" aria-hidden="true" d="" display="none"/></g></g><g class="mark-group role-scope cell" role="graphics-object" aria-roledescription="group mark container"><g transform="translate(0,0)"><path class="background" aria-hidden="true" d="M0.5,0.5h200v200h-200Z" stroke="#ddd"/><g><g class="mark-group role-axis" aria-hidden="true"><g transform="translate(0.5,200.5)"><path class="background" aria-hidden="true" d="M0,0h0v0h0Z" pointer-events="none"/><g><g class="mark-rule role-axis-grid" pointer-events="none"><line transform="translate(3,-200)" x2="0" y2="200" stroke="#ddd" stroke-width="1" opacity="1"/><line transform="translate(63,-200)" x2="0" y2="200" stroke="#ddd" stroke-width="1" opacity="1"/><line transform="translate(126,-200)" x2="0" y2="200" stroke="#ddd" stroke-width="1" opacity="1"/><line transform="translate(186,-200)" x2="0" y2="200" stroke="#ddd" stroke-width="1" opacity="1"/></g></g><path class="foreground" aria-hidden="true" d="" pointer-events="none" display="none"/></g></g><g class="mark-group role-axis" aria-hidden="true"><g transform="translate(0.5,0.5)"><path class="background" aria-hidden="true" d="M0,0h0v0h0Z" pointer-events="none"/><g><g class="mark-rule role-axis-grid" pointer-events="none"><line transform="translate(0,200)" x2="200" y2="0" stroke="#ddd" stroke-width="1" opacity="1"/><line transform="translate(0,144)" x2="200" y2="0" stroke="#ddd" stroke-width="1" opacity="1"/><line transform="translate(0,89)" x2="200" y2="0" stroke="#ddd" stroke-width="1" opacity="1"/><line transform="translate(0,33)" x2="200" y2="0" stroke="#ddd" stroke-width="1" opacity="1"/></g></g><path class="foreground" aria-hidden="true" d="" pointer-events="none" display="none"/></g></g><g class="mark-group role-axis" role="graphics-symbol" aria-roledescription="axis" aria-label="X-axis titled 'Time' for a time scale with values from Wednesday, 30 August 2023, 12:58:24 PM to Thursday, 07 December 2023, 4:50:07 PM"><g transform="translate(0.5,200.5)"><path class="background" aria-hidden="true" d="M0,0h0v0h0Z" pointer-events="none"/><g><g class="mark-rule role-axis-tick" pointer-events="none"><line transform="translate(3,0)" x2="0" y2="5" stroke="#888" stroke-width="1" opacity="1"/><line transform="translate(63,0)" x2="0" y2="5" stroke="#888" stroke-width="1" opacity="1"/><line transform="translate(126,0)" x2="0" y2="5" stroke="#888" stroke-width="1" opacity="1"/><line transform="translate(186,0)" x2="0" y2="5" stroke="#888" stroke-width="1" opacity="1"/></g><g class="mark-text role-axis-label" pointer-events="none"><text text-anchor="middle" transform="translate(2.9435873888947715,15)" font-family="Liberation Mono" font-size="10px" fill="#000" opacity="1">September</text><text text-anchor="middle" transform="translate(63.45129839675051,15)" font-family="Liberation Mono" font-size="10px" fill="#000" opacity="0">October</text><text text-anchor="middle" transform="translate(125.97593310486812,15)" font-family="Liberation Mono" font-size="10px" fill="#000" opacity="0">November</text><text text-anchor="middle" transform="translate(186.48364411272388,15)" font-family="Liberation Mono" font-size="10px" fill="#000" opacity="1">December</text></g><g class="mark-rule role-axis-domain" pointer-events="none"><line transform="translate(0,0)" x2="200" y2="0" stroke="#888" stroke-width="1" opacity="1"/></g><g class="mark-text role-axis-title" pointer-events="none"><text text-anchor="middle" transform="translate(100,30)" font-family="Liberation Mono" font-size="11px" font-weight="bold" fill="#000" opacity="1">Time</text></g></g><path class="foreground" aria-hidden="true" d="" pointer-events="none" display="none"/></g></g><g class="mark-group role-axis" role="graphics-symbol" aria-roledescription="axis" aria-label="Y-axis titled 'Price' for a linear scale with values from 0 to 18,000"><g transform="translate(0.5,0.5)"><path class="background" aria-hidden="true" d="M0,0h0v0h0Z" pointer-events="none"/><g><g class="mark-rule role-axis-tick" pointer-events="none"><line transform="translate(0,200)" x2="-5" y2="0" stroke="#888" stroke-width="1" opacity="1"/><line transform="translate(0,144)" x2="-5" y2="0" stroke="#888" stroke-width="1" opacity="1"/><line transform="translate(0,89)" x2="-5" y2="0" stroke="#888" stroke-width="1" opacity="1"/><line transform="translate(0,33)" x2="-5" y2="0" stroke="#888" stroke-width="1" opacity="1"/></g><g class="mark-text role-axis-label" pointer-events="none"><text text-anchor="end" transform="translate(-7,203)" font-family="Liberation Mono" font-size="10px" fill="#000" opacity="1">0</text><text text-anchor="end" transform="translate(-7,147.44444444444443)" font-family="Liberation Mono" font-size="10px" fill="#000" opacity="1">50</text><text text-anchor="end" transform="translate(-7,91.88888888888889)" font-family="Liberation Mono" font-size="10px" fill="#000" opacity="1">100</text><text text-anchor="end" transform="translate(-7,36.33333333333333)" font-family="Liberation Mono" font-size="10px" fill="#000" opacity="1">150</text></g><g class="mark-rule role-axis-domain" pointer-events="none"><line transform="translate(0,200)" x2="0" y2="-200" stroke="#888" stroke-width="1" opacity="1"/></g><g class="mark-text role-axis-title" pointer-events="none"><text text-anchor="middle" transform="translate(-35,100) rotate(-90) translate(0,-2)" font-family="Liberation Mono" font-size="11px" font-weight="bold" fill="#000" opacity="1">Price</text></g></g><path class="foreground" aria-hidden="true" d="" pointer-events="none" display="none"/></g></g><g class="mark-group role-scope child_pathgroup" role="graphics-object" aria-roledescription="group mark container"><g transform="translate(0,0)"><path class="background" aria-hidden="true" d="M0,0h200v200h-200Z"/><g><g class="mark-line role-mark child_marks" role="graphics-object" aria-roledescription="line mark container"><path aria-label="Time: Aug 30, 2023; Price: 10795; item: DESCHUTES_VALLEY™_RAIN_PONCHO_-_Parka_-_black" role="graphics-symbol" aria-roledescription="line mark" d="M0,80.056L0.327,80.056L0.662,80.056L1.334,80.056L1.67,80.056L2.018,80.056L2.343,80.056L2.678,80.056L3.352,80.056L3.687,80.056L4.034,80.056L4.359,80.056L4.695,80.056L5.368,80.056L5.704,80.056L6.047,80.056L6.376,80.056L6.712,80.056L7.385,80.056L7.962,80.056L8.064,80.056L8.393,80.056L8.729,80.056L9.402,80.056L9.739,80.056L10.086,80.056L10.41,80.056L10.746,80.056L11.42,50.056L11.757,50.056L12.102,50.056L12.428,50.056L12.763,50.056L13.435,50.056L13.771,50.056L14.12,50.056L14.444,50.056L14.78,50.056L15.453,50.056L15.789,50.056L16.136,50.056L16.461,50.056L16.797,50.056L17.681,50.056L17.805,50.056L18.152,50.056L18.477,50.056L18.814,50.056L19.485,50.056L19.822,50.056L20.165,50.056L20.494,50.056L20.831,50.056L21.503,50.056L21.839,50.056L22.182,50.056L22.511,50.056L22.847,50.056L23.519,50.056L23.856,50.056L24.205,50.056L24.528,50.056L24.864,50.056L25.537,50.056L25.873,50.056L26.22,50.056L26.545,50.056L26.882,50.056L27.554,20.056L27.89,20.056L28.238,20.056L28.416,20.056L28.562,20.056L28.898,20.056L29.571,20.056L29.907,20.056L30.255,20.056L30.579,20.056L30.915,20.056L31.587,20.056L31.923,20.056L32.271,20.056L32.596,20.056L32.932,20.056L33.604,20.056L33.941,20.056L34.282,20.056L34.613,20.056L34.949,20.056L35.621,20.056L35.957,20.056L36.3,20.056L36.63,20.056L36.966,20.056L37.638,20.056L37.974,20.056L38.323,20.056L38.647,20.056L38.983,20.056L39.655,20.056L39.991,20.056L40.34,20.056L40.663,20.056L41,20.056L41.672,20.056L42.009,20.056L42.357,20.056L42.681,20.056L43.016,20.056L43.689,20.056L44.025,20.056L44.374,20.056L44.698,20.056L45.034,20.056L45.706,20.056L46.042,20.056L46.389,20.056L46.714,20.056L47.05,20.056L47.723,20.056L48.059,20.056L48.401,20.056L48.731,20.056L49.068,20.056L49.74,20.056L50.076,20.056L50.419,20.056L50.748,20.056L51.084,20.056L51.757,20.056L52.093,20.056L52.442,20.056L52.765,20.056L53.101,20.056L53.773,20.056L54.11,20.056L54.459,20.056L54.782,20.056L55.118,20.056L55.79,40.056L56.126,40.056L56.475,40.056L56.799,40.056L57.136,40.056L57.807,40.056L58.143,40.056L58.492,40.056L58.816,40.056L59.824,40.056L60.16,40.056L60.507,40.056L60.833,40.056L61.169,40.056L61.841,40.056L62.177,40.056L62.52,40.056L62.849,40.056L63.185,40.056L63.858,40.056L64.194,40.056L64.538,40.056L64.866,40.056L65.203,40.056L65.875,100.056L66.211,100.056L66.56,100.056L66.884,100.056L67.22,100.056L67.892,90.056L68.229,90.056L68.577,90.056L68.901,90.056L69.236,90.056L69.909,90.056L70.245,90.056L70.596,90.056L70.918,90.056L71.254,90.056L71.926,90.056L72.262,90.056L72.613,90.056L72.934,90.056L73.271,90.056L73.943,90.056L74.279,90.056L74.628,90.056L74.951,90.056L75.288,90.056L75.96,90.056L76.296,90.056L76.64,90.056L76.968,90.056L77.305,90.056L77.977,90.056L78.312,90.056L78.985,90.056L79.321,90.056L79.994,90.056L80.33,90.056L80.681,90.056L81.002,90.056L81.338,90.056L82.011,100.056L82.347,100.056L82.696,100.056L83.019,100.056L83.355,100.056L84.028,100.056L84.364,100.056L84.713,100.056L85.036,100.056L85.372,100.056L86.044,100.056L86.381,100.056L86.73,100.056L87.053,100.056L87.389,100.056L88.061,100.056L88.398,100.056L88.747,100.056L89.07,100.056L89.406,100.056L90.078,100.056L90.415,100.056L90.758,100.056L91.087,100.056L91.423,100.056L92.095,100.056L92.431,100.056L92.775,100.056L93.103,100.056L93.44,100.056L94.112,90.056L94.448,90.056L94.798,90.056L95.121,90.056L95.457,90.056L96.129,90.056L96.465,90.056L96.814,90.056L97.138,90.056L97.473,90.056L98.146,90.056L98.482,90.056L98.831,90.056L99.154,90.056L99.49,90.056L100.163,90.056L100.499,90.056L100.848,90.056L101.171,90.056L101.507,90.056L102.18,90.056L102.516,90.056L102.864,90.056L103.188,90.056L103.524,90.056L104.197,90.056L104.533,90.056L104.876,90.056L105.205,90.056L105.541,90.056L106.214,90.056L106.55,90.056L106.893,90.056L107.222,90.056L107.558,90.056L108.23,90.056L108.567,90.056L108.915,90.056L109.239,90.056L109.575,90.056L110.247,50.056L110.584,50.056L110.931,50.056L111.256,50.056L111.592,50.056L112.264,50.056L112.6,50.056L112.948,50.056L113.272,50.056L113.609,50.056L114.281,50.056L114.618,50.056L114.964,50.056L115.29,50.056L115.626,50.056L116.298,50.056L116.635,50.056L116.98,50.056L117.307,50.056L117.643,50.056L118.315,50.056L118.651,50.056L118.994,50.056L119.323,50.056L119.66,50.056L120.332,50.056L120.668,50.056L121.012,50.056L121.34,50.056L121.676,50.056L122.349,50.056L122.685,50.056L123.032,50.056L123.358,50.056L123.694,50.056L124.366,50.056L124.702,50.056L125.049,50.056L125.374,50.056L125.71,50.056L126.383,50.056L126.719,50.056L127.066,50.056L127.391,50.056L127.727,50.056L128.4,40.056L128.736,40.056L129.083,40.056L129.408,40.056L131.425,40.056L131.761,40.056L132.433,40.056L133.113,40.056L133.442,40.056L141.509,40.056L141.846,40.056L142.518,40.056L142.854,40.056L143.201,40.056L143.527,40.056L143.863,40.056L144.535,70.056L144.871,70.056L145.218,70.056L145.544,70.056L145.879,70.056L146.552,70.056L146.888,70.056L147.232,70.056L147.896,70.056L148.569,70.056L148.905,70.056L149.249,70.056L149.577,70.056L149.913,70.056L150.585,40.056L150.922,40.056L151.27,40.056L151.594,40.056L152.602,40.056L152.939,40.056L153.287,40.056L153.611,40.056L153.947,40.056L154.62,40.056L154.955,40.056L155.305,40.056L155.628,40.056L155.964,40.056L156.637,50.056L156.972,50.056L157.322,50.056L157.645,50.056L157.981,50.056L158.653,50.056L158.99,50.056L159.338,50.056L159.662,50.056L159.998,50.056L160.671,40.056L161.006,40.056L161.351,40.056L161.678,40.056L162.015,40.056L162.687,40.056L163.023,40.056L163.368,40.056L163.696,40.056L164.032,40.056L164.704,40.056L165.04,40.056L165.391,40.056L165.712,40.056L166.049,40.056L166.721,40.056L167.057,40.056L167.407,60.056L167.73,60.056L168.065,60.056L168.738,60.056L169.074,60.056L169.424,60.056L169.746,60.056L170.082,60.056L170.755,60.056L171.091,60.056L171.44,80.056L171.763,80.056L172.1,80.056L172.772,80.056L173.108,80.056L173.455,80.056L173.78,80.056L174.116,80.056L174.789,70.056L175.125,70.056L175.469,70.056L175.797,70.056L176.133,70.056L176.805,70.056L177.142,70.056L177.487,70.056L177.814,70.056L178.15,70.056L178.823,40.056L179.159,40.056L179.509,40.056L179.831,40.056L180.167,40.056L180.839,40.056L181.176,40.056L181.523,40.056L181.848,40.056L182.184,40.056L182.857,40.056L183.193,40.056L183.542,40.056L183.865,40.056L184.201,40.056L184.873,40.056L185.209,40.056L185.558,40.056L185.882,40.056L186.218,40.056L186.89,40.056L187.227,40.056L187.575,40.056L187.899,40.056L188.235,40.056L188.908,40.056L189.243,40.056L189.587,40.056L189.916,40.056L190.252,40.056L190.924,40.056L191.26,40.056L191.605,40.056L191.933,40.056L192.269,40.056L192.941,40.056L193.277,40.056L193.626,40.056L193.95,40.056L194.285,40.056L194.958,50.056L195.294,50.056L195.643,50.056L195.966,50.056L196.303,50.056L196.975,50.056L197.311,50.056L197.66,50.056L197.983,50.056L198.32,50.056L198.992,50.056L199.328,50.056L199.677,50.056L200,50.056" stroke="#e45756" stroke-width="2"/></g></g><path class="foreground" aria-hidden="true" d="" display="none"/></g><g transform="translate(0,0)"><path class="background" aria-hidden="true" d="M0,0h200v200h-200Z"/><g><g class="mark-line role-mark child_marks" role="graphics-object" aria-roledescription="line mark container"><path aria-label="Time: Aug 30, 2023; Price: 8995; item: HIKING_BACKPACK_PONCHO_-_Veste_imperméable_-_blue" role="graphics-symbol" aria-roledescription="line mark" d="M0,100.056L0.327,100.056L0.662,100.056L1.334,100.056L1.67,100.056L2.018,100.056L2.343,100.056L2.678,100.056L3.352,100.056L3.687,100.056L4.034,100.056L4.359,100.056L4.695,100.056L5.368,100.056L5.704,100.056L6.047,100.056L6.376,100.056L6.712,100.056L7.385,100.056L7.962,100.056L8.064,100.056L23.856,100.056L24.205,100.056L24.528,100.056L24.864,100.056L25.537,100.056L25.873,100.056L26.22,100.056L26.545,100.056L26.882,100.056L27.554,100.056L27.89,100.056L28.238,100.056L28.416,100.056L28.562,100.056L28.898,100.056L29.571,100.056L29.907,100.056L30.255,100.056L30.579,100.056L30.915,100.056L31.587,100.056L31.923,100.056L32.271,100.056L32.596,100.056L32.932,100.056L33.604,100.056L33.941,100.056L34.283,100.056L34.613,100.056L34.949,100.056L35.621,100.056L35.957,100.056L58.816,111.167L59.824,111.167L60.16,111.167L60.507,111.167L60.833,111.167L61.169,111.167L61.841,111.167L62.177,111.167L62.52,111.167L62.849,111.167L63.185,111.167L63.858,111.167L64.194,111.167L64.539,111.167L64.866,111.167L65.203,111.167L65.875,111.167L66.211,111.167L66.56,111.167L66.884,111.167L67.22,111.167L67.892,127.833L68.229,127.833L68.577,127.833L68.901,127.833L69.236,127.833L69.909,127.833L70.245,127.833L70.596,127.833L70.918,127.833L71.254,127.833L71.926,127.833L72.262,127.833L72.613,127.833L72.934,127.833L73.271,127.833L73.943,127.833L74.279,127.833L74.628,127.833L74.951,127.833L75.288,127.833L75.96,127.833L76.296,127.833L76.64,127.833L76.968,127.833L77.305,127.833L77.977,127.833L78.312,127.833L78.985,127.833L79.321,127.833L79.994,127.833" stroke="#54a24b" stroke-width="2"/></g></g><path class="foreground" aria-hidden="true" d="" display="none"/></g><g transform="translate(0,0)"><path class="background" aria-hidden="true" d="M0,0h200v200h-200Z"/><g><g class="mark-line role-mark child_marks" role="graphics-object" aria-roledescription="line mark container"><path aria-label="Time: Aug 30, 2023; Price: 16195; item: DESCHUTES_VALLEY™_RAIN_PONCHO_-_Parka_-_vista_blue" role="graphics-symbol" aria-roledescription="line mark" d="M0,20.056L0.327,20.056L0.662,20.056L1.334,20.056L1.67,20.056L2.018,20.056L2.343,20.056L2.678,20.056L3.352,20.056L3.687,20.056L4.034,20.056L4.359,20.056L4.695,20.056L5.368,20.056L5.704,20.056L6.047,20.056L6.376,20.056L6.712,20.056L7.385,20.056L7.962,20.056L8.064,20.056L8.393,20.056L8.729,20.056L9.402,20.056L9.739,20.056L10.086,20.056L10.41,20.056L10.746,20.056L11.42,80.056L11.757,80.056L12.102,80.056L12.428,80.056L12.763,80.056L13.435,80.056L13.771,80.056L14.12,80.056L14.444,80.056L14.78,80.056L15.453,80.056L15.789,80.056L16.136,80.056L16.461,80.056L16.797,80.056L17.681,80.056L17.805,80.056L18.152,80.056L18.477,80.056L18.814,80.056L19.485,80.056L19.822,80.056L20.165,80.056L20.494,80.056L20.831,80.056L21.503,80.056L21.839,80.056L22.182,80.056L22.511,80.056L22.847,80.056L23.519,80.056L23.856,80.056L24.205,80.056L24.528,80.056L24.864,80.056L25.537,80.056L25.873,80.056L26.22,80.056L26.545,80.056L26.882,80.056L27.554,20.056L27.89,20.056L28.238,20.056L28.416,20.056L28.562,20.056L28.898,20.056L29.571,20.056L29.907,20.056L30.255,20.056L30.579,20.056L30.915,20.056L31.587,20.056L31.923,20.056L32.271,20.056L32.596,20.056L32.932,20.056L33.604,20.056L33.941,20.056L34.282,20.056L34.613,20.056L34.949,20.056L35.621,20.056L35.957,20.056L36.3,20.056L36.63,20.056L36.966,20.056L37.638,20.056L37.974,20.056L38.323,20.056L38.647,20.056L38.983,20.056L39.655,20.056L39.991,20.056L40.34,20.056L40.663,20.056L41,20.056L41.672,20.056L42.009,20.056L42.357,20.056L42.681,20.056L43.016,20.056L43.689,20.056L44.025,20.056L44.374,20.056L44.698,20.056L45.034,20.056L45.706,20.056L46.042,20.056L46.389,20.056L46.714,20.056L47.05,20.056L47.723,20.056L48.059,20.056L48.401,20.056L48.731,20.056L49.068,20.056L49.74,20.056L50.076,20.056L50.419,20.056L50.748,20.056L51.084,20.056L51.757,20.056L52.093,20.056L52.442,20.056L52.765,20.056L53.101,20.056L53.773,20.056L54.11,20.056L54.459,20.056L54.782,20.056L55.118,20.056L55.79,40.056L56.126,40.056L56.475,40.056L56.799,40.056L57.136,40.056L57.807,40.056L58.143,40.056L58.492,40.056L58.816,40.056L59.824,40.056L60.16,40.056L60.507,40.056L60.833,40.056L61.169,40.056L61.841,40.056L62.177,40.056L62.52,40.056L62.849,40.056L63.185,40.056L63.858,40.056L64.194,40.056L64.538,40.056L64.866,40.056L65.203,40.056L65.875,90.056L66.211,90.056L66.56,90.056L66.884,90.056L67.22,90.056L67.892,40.056L68.229,40.056L68.577,40.056L68.901,40.056L69.236,40.056L69.909,40.056L70.245,40.056L70.596,40.056L70.918,40.056L71.254,40.056L71.926,40.056L72.262,40.056L72.613,40.056L72.934,40.056L73.271,40.056L73.943,40.056L74.279,40.056L74.628,40.056L74.951,40.056L75.288,40.056L75.96,40.056L76.296,40.056L76.64,40.056L76.968,40.056L77.305,40.056L77.977,40.056L78.312,40.056L78.985,40.056L79.321,40.056L79.994,40.056L80.33,40.056L80.681,40.056L81.002,40.056L81.338,40.056L82.011,90.056L82.347,90.056L82.696,90.056L83.019,90.056L83.355,90.056L84.028,90.056L84.364,90.056L84.713,90.056L85.036,90.056L85.372,90.056L86.044,90.056L86.381,90.056L86.73,90.056L87.053,90.056L87.389,90.056L88.062,90.056L88.398,90.056L88.747,90.056L89.07,90.056L89.406,90.056L90.078,40.056L90.415,40.056L90.758,40.056L91.087,40.056L91.423,40.056L92.095,40.056L92.431,40.056L92.775,40.056L93.103,40.056L93.44,40.056L94.112,100.056L94.448,100.056L94.798,100.056L95.121,100.056L95.457,100.056L96.129,100.056L96.465,100.056L96.814,100.056L97.138,100.056L97.473,100.056L98.146,100.056L98.482,100.056L98.831,100.056L99.154,100.056L99.49,100.056L100.163,100.056L100.499,100.056L100.848,100.056L101.171,100.056L101.507,100.056L102.18,100.056L102.516,100.056L102.864,100.056L103.188,100.056L103.524,100.056L104.197,100.056L104.533,100.056L104.876,100.056L105.205,100.056L105.541,100.056L106.214,100.056L106.55,100.056L106.893,100.056L107.222,100.056L107.558,100.056L108.23,100.056L108.567,100.056L108.915,100.056L109.239,100.056L109.575,100.056L110.247,40.056L110.584,40.056L110.931,40.056L111.256,40.056L111.592,40.056L112.264,40.056L112.601,40.056L112.948,40.056L113.273,40.056L113.609,40.056L114.281,40.056L114.618,40.056L114.964,40.056L115.29,40.056L115.625,40.056L116.298,40.056L116.635,40.056L116.98,40.056L117.307,40.056L117.643,40.056L118.315,40.056L118.651,40.056L118.994,40.056L119.323,40.056L119.66,40.056L120.332,40.056L120.668,40.056L121.012,40.056L121.34,40.056L121.676,40.056L122.349,40.056L122.685,40.056L123.032,40.056L123.358,40.056L123.694,40.056L124.366,40.056L124.702,40.056L125.049,40.056L125.374,40.056L125.71,40.056L126.383,40.056L126.719,40.056L127.066,40.056L127.391,40.056L127.727,40.056L128.4,40.056L128.736,40.056L129.083,40.056L129.408,40.056L129.744,40.056L130.416,40.056L130.753,40.056L131.101,40.056L131.425,40.056L131.761,40.056L132.433,40.056L132.77,40.056L133.113,40.056L133.442,40.056L133.778,40.056L134.45,40.056L134.786,40.056L135.13,40.056L135.459,40.056L135.795,40.056L136.467,40.056L136.804,40.056L137.153,40.056L137.476,40.056L137.812,40.056L138.485,40.056L138.821,40.056L139.168,40.056L139.493,40.056L139.829,40.056L140.501,40.056L140.837,40.056L141.185,40.056L141.509,40.056L141.846,40.056L142.518,40.056L142.854,40.056L143.201,40.056L143.527,40.056L143.863,40.056L144.535,40.056L144.871,40.056L145.218,40.056L145.544,40.056L145.879,40.056L146.552,40.056L146.888,40.056L147.232,40.056L147.896,40.056L148.569,40.056L148.905,40.056L149.249,40.056L149.577,40.056L149.913,40.056L150.586,40.056L150.922,40.056L151.27,40.056L151.594,40.056L152.602,40.056L152.939,40.056L153.287,40.056L153.611,40.056L153.947,40.056L154.62,40.056L154.955,40.056L155.305,40.056L155.628,40.056L155.964,40.056L156.637,120.056L156.972,120.056L157.322,120.056L157.645,120.056L157.981,120.056L158.653,120.056L158.99,120.056L159.338,120.056L159.662,120.056L159.998,120.056L160.671,40.056L161.006,40.056L161.351,40.056L161.678,40.056L162.015,40.056L162.687,40.056L163.023,40.056L163.368,40.056L163.696,40.056L164.032,40.056L164.704,50.056L165.04,50.056L165.391,70.056L165.712,70.056L166.049,70.056L166.721,70.056L167.057,70.056L167.407,70.056L167.73,70.056L168.065,70.056L168.738,70.056L169.074,70.056L169.424,70.056L169.746,70.056L170.082,70.056L170.755,120.056L171.091,120.056L171.44,120.056L171.763,120.056L172.1,120.056L172.772,120.056L173.108,120.056L173.455,120.056L173.78,120.056L174.116,120.056L174.789,120.056L175.125,120.056L175.469,120.056L175.797,120.056L176.133,120.056L176.805,120.056L177.142,120.056L177.487,120.056L177.814,120.056L178.15,120.056L178.823,40.056L179.159,40.056L179.509,40.056L179.831,40.056L180.167,40.056L180.839,40.056L181.176,40.056L181.523,40.056L181.848,40.056L182.184,40.056L182.857,40.056L183.193,40.056L183.542,40.056L183.865,40.056L184.201,40.056L184.873,40.056L185.209,40.056L185.558,40.056L185.882,40.056L186.218,40.056L186.89,40.056L187.227,40.056L187.575,40.056L187.899,40.056L188.235,40.056L188.908,40.056L189.243,40.056L189.587,40.056L189.916,40.056L190.252,40.056L190.924,40.056L191.26,40.056L191.605,40.056L191.933,40.056L192.269,40.056L192.941,40.056L193.277,40.056L193.626,40.056L193.95,40.056L194.285,40.056L194.958,100.056L195.294,100.056L195.643,100.056L195.966,100.056L196.303,100.056L196.975,100.056L197.311,100.056L197.66,100.056L197.983,100.056L198.32,100.056L198.992,100.056L199.328,100.056L199.677,100.056L200,100.056" stroke="#f58518" stroke-width="2"/></g></g><path class="foreground" aria-hidden="true" d="" display="none"/></g><g transform="translate(0,0)"><path class="background" aria-hidden="true" d="M0,0h200v200h-200Z"/><g><g class="mark-line role-mark child_marks" role="graphics-object" aria-roledescription="line mark container"><path aria-label="Time: Aug 30, 2023; Price: 5495; item: COVERO_PONCHO_II_-_Cape_-_lightgrey" role="graphics-symbol" aria-roledescription="line mark" d="M0,138.944L0.327,138.944L0.662,138.944L1.334,138.944L1.67,138.944L2.018,138.944L2.343,138.944L2.678,138.944L3.352,138.944L3.687,138.944L5.704,138.944L6.047,138.944L6.376,138.944L6.712,138.944L7.385,138.944L7.962,138.944L8.064,138.944L8.393,138.944L8.729,138.944L9.402,138.944L9.739,138.944L10.086,138.944L10.41,138.944L10.746,138.944L11.42,138.944L11.757,138.944L12.102,138.944L12.428,138.944L12.763,138.944L18.477,153.944L21.839,138.944L22.182,138.944L22.511,138.944L22.847,138.944L23.519,138.944L23.856,138.944L24.205,138.944L24.528,138.944L24.864,138.944L25.537,138.944L25.873,138.944L26.22,138.944L26.545,138.944L26.882,138.944L27.554,138.944L27.89,138.944L28.238,138.944L28.416,138.944L28.562,138.944L28.898,138.944L29.571,138.944L29.907,138.944L30.255,138.944L30.579,138.944L30.915,138.944L31.587,138.944L31.924,138.944L32.271,138.944L32.596,138.944L32.932,138.944L33.604,138.944L33.941,138.944L34.283,138.944L34.613,138.944L34.949,138.944L35.621,138.944L35.957,138.944L36.3,138.944L36.63,138.944L36.966,138.944L37.638,138.944L37.974,138.944L38.323,138.944L38.647,138.944L38.983,138.944L39.655,138.944L39.991,138.944L40.34,138.944L40.663,138.944L41,138.944L41.672,151.167L42.009,151.167L42.357,151.167L42.681,151.167L43.016,151.167L43.689,151.167L44.025,151.167L44.374,151.167L44.698,151.167L45.034,151.167L45.706,151.167L46.042,151.167L46.389,151.167L48.059,151.167L48.401,151.167L48.731,151.167L49.068,151.167L49.74,151.167L50.076,151.167L50.419,151.167L50.748,151.167L51.084,151.167L51.757,151.167L52.093,151.167L52.442,151.167L52.765,151.167L53.101,151.167L53.773,151.167L54.11,151.167L54.459,151.167L54.782,151.167L55.118,151.167L55.79,151.167L56.126,151.167L56.475,151.167L56.799,151.167L57.136,151.167L57.807,151.167L58.143,151.167L58.492,151.167L58.816,151.167L59.824,151.167L60.16,151.167L60.507,151.167L60.833,151.167L61.169,151.167L61.841,151.167L62.177,151.167L62.52,151.167L62.849,151.167L63.185,151.167L63.858,151.167L64.194,151.167L64.539,151.167L64.866,151.167L65.203,151.167L65.875,151.167L66.211,151.167L66.56,151.167L66.884,151.167L67.22,151.167L67.892,151.167L68.229,151.167L68.577,151.167L68.901,151.167L69.236,151.167L69.909,151.167L70.245,151.167L70.596,151.167L70.918,151.167L71.254,151.167L71.926,151.167L72.262,151.167L72.613,151.167L72.934,151.167L73.271,151.167L73.943,151.167L74.279,151.167L74.628,151.167L74.951,151.167L75.288,151.167L76.296,151.167L76.64,151.167L77.977,151.167L78.312,151.167L78.985,151.167L79.321,151.167L81.002,151.167L81.338,151.167L82.011,151.167L82.347,151.167L82.696,151.167L83.355,151.167L84.028,138.944L84.364,138.944L84.713,138.944L85.036,138.944L85.372,138.944L89.07,138.944L91.087,153.944L95.457,153.944L96.129,153.944L97.138,153.944L98.146,153.944L99.154,153.944L99.49,153.944L100.499,153.944L103.188,153.944L103.524,153.944L104.197,153.944L106.893,153.944L107.222,153.944L107.558,153.944L108.23,153.944L109.239,153.944L109.575,153.944L110.247,153.944L110.584,153.944L110.931,153.944L111.592,153.944L112.601,153.944L112.948,153.944L113.273,153.944L114.281,153.944L114.618,153.944L115.29,153.944L117.307,153.944L117.643,153.944L118.315,153.944L118.994,153.944L119.323,153.944L119.66,153.944L120.668,153.944L121.012,153.944L121.34,153.944L122.349,153.944L122.685,153.944L123.032,153.944L123.358,153.944L123.694,153.944L124.366,153.944L124.702,153.944L125.049,153.944L125.374,153.944L125.71,153.944L126.383,153.944L128.736,153.944L129.083,153.944L129.408,153.944L129.744,153.944L130.753,153.944L131.101,153.944L131.425,153.944L131.762,153.944L132.433,145.611L132.77,145.611L139.829,145.611L140.501,145.611L140.837,145.611L141.185,145.611L141.509,145.611L141.846,145.611L142.854,145.611L143.201,145.611L143.527,145.611L143.863,145.611L144.535,145.611L145.218,145.611L145.879,145.611L146.888,145.611L147.232,145.611L147.896,145.611L148.569,145.611L148.905,145.611L149.249,145.611L149.577,145.611L149.913,145.611L150.586,138.944L151.27,138.944L152.602,138.944L152.939,138.944L153.287,138.944L153.611,138.944L153.947,138.944L154.62,138.944L154.955,138.944L155.305,138.944L155.628,138.944L155.964,138.944L156.972,153.944L157.322,153.944L157.645,153.944L157.981,153.944L158.653,153.944L159.662,153.944L159.998,153.944L160.671,153.944L161.006,153.944L161.351,153.944L161.678,160.056L165.04,138.944L165.391,138.944L165.712,138.944L166.049,138.944L166.721,138.944L167.057,138.944L167.407,138.944L167.73,138.944L168.065,138.944L168.738,138.944L169.074,138.944L169.424,138.944L169.746,138.944L170.082,138.944L171.091,163.389L187.575,138.944L188.908,138.944L189.916,138.944L191.26,138.944L193.277,138.944L193.626,138.944L193.95,138.944L194.285,138.944L194.958,138.944L197.311,138.944L198.992,138.944" stroke="#bab0ac" stroke-width="2"/></g></g><path class="foreground" aria-hidden="true" d="" display="none"/></g><g transform="translate(0,0)"><path class="background" aria-hidden="true" d="M0,0h200v200h-200Z"/><g><g class="mark-line role-mark child_marks" role="graphics-object" aria-roledescription="line mark container"><path aria-label="Time: Sep 01, 2023; Price: 12995; item: KUURA_3L_PONCHO_UNISEX_-_Veste_imperméable_-_green" role="graphics-symbol" aria-roledescription="line mark" d="M4.695,55.611L5.368,55.611L5.704,55.611L6.047,55.611L9.739,55.611L10.086,55.611L10.41,55.611L10.746,55.611L11.42,11.167L11.757,11.167L12.102,11.167L12.428,11.167L12.763,11.167L13.435,11.167L13.772,11.167L14.12,11.167L14.444,11.167L14.78,11.167L15.453,11.167L15.789,11.167L16.136,11.167L16.461,11.167L16.797,11.167L17.681,11.167L17.805,11.167L18.152,11.167L18.477,11.167L18.814,11.167L19.485,11.167L19.822,11.167L20.165,11.167L20.494,11.167L20.831,11.167L21.503,11.167L21.839,11.167L22.182,11.167L22.511,11.167L22.847,11.167L23.519,11.167L23.856,11.167L24.205,11.167L24.528,11.167L25.537,11.167L25.873,11.167L26.22,11.167L26.545,11.167L26.882,11.167L34.282,22.278L34.613,22.278L34.949,22.278L35.621,22.278L35.957,22.278L36.3,22.278L36.63,22.278L36.966,22.278L37.638,22.278L37.974,22.278L38.323,22.278L39.991,22.278L40.34,22.278L40.663,22.278L41,22.278L41.672,22.278L42.009,22.278L68.901,22.278L69.236,22.278L69.909,22.278L70.245,22.278L70.596,22.278L70.918,22.278L71.254,22.278L71.926,22.278L72.262,22.278L72.613,22.278L72.934,22.278L73.271,22.278L73.943,22.278L74.279,22.278L74.628,22.278L74.951,22.278L75.288,22.278L75.96,22.278L76.296,22.278L76.64,22.278L76.968,22.278L77.305,22.278L108.23,22.278L108.567,22.278L108.915,22.278L109.239,22.278L109.575,22.278L110.247,22.278L110.584,22.278L110.931,22.278L111.256,22.278" stroke="#4c78a8" stroke-width="2"/></g></g><path class="foreground" aria-hidden="true" d="" display="none"/></g><g transform="translate(0,0)"><path class="background" aria-hidden="true" d="M0,0h200v200h-200Z"/><g><g class="mark-line role-mark child_marks" role="graphics-object" aria-roledescription="line mark container"><path aria-label="Time: Sep 14, 2023; Price: 6495; item: PARIS_ST._GERMAIN_CITY_MADE_PONCHO_-_Veste_de_survêtement_-_aura_white" role="graphics-symbol" aria-roledescription="line mark" d="M29.571,127.833L29.907,127.833L30.255,127.833L30.579,127.833L30.915,127.833L31.587,127.833L31.924,127.833L33.604,127.833L35.957,127.833L36.3,127.833L36.63,127.833L36.966,127.833L37.638,127.833L37.974,127.833L38.323,127.833L38.647,127.833L38.983,127.833L39.655,127.833L39.991,127.833L40.34,127.833L40.663,127.833L41,127.833L41.672,127.833L42.009,127.833L42.357,127.833L42.681,127.833L43.016,127.833L43.689,127.833L44.025,127.833L44.374,127.833L44.698,127.833L45.034,127.833L45.706,127.833L46.042,127.833L46.389,127.833L46.714,127.833L47.05,127.833L47.723,127.833L48.059,127.833L48.401,127.833L48.731,127.833L49.068,127.833L49.74,127.833L50.076,127.833L50.419,127.833L50.748,127.833L51.084,127.833L51.757,127.833L52.093,127.833L52.442,127.833L52.765,127.833L53.101,127.833L53.773,127.833L54.11,127.833L54.459,127.833" stroke="#b279a2" stroke-width="2"/></g></g><path class="foreground" aria-hidden="true" d="" display="none"/></g><g transform="translate(0,0)"><path class="background" aria-hidden="true" d="M0,0h200v200h-200Z"/><g><g class="mark-line role-mark child_marks" role="graphics-object" aria-roledescription="line mark container"><path aria-label="Time: Sep 18, 2023; Price: 8995; item: HIKING_BACKPACK_PONCHO_-_Veste_imperméable_-_indian_red" role="graphics-symbol" aria-roledescription="line mark" d="M37.638,100.056L37.974,100.056L38.323,100.056L38.647,100.056L38.983,100.056L39.655,100.056L39.991,100.056L52.765,100.056L53.101,100.056L53.773,100.056L54.11,100.056L54.459,100.056L54.782,100.056L55.118,100.056L55.79,111.167L56.126,111.167L56.475,111.167L56.799,111.167L88.747,111.167L89.07,111.167L89.406,111.167L90.078,111.167L90.415,111.167L90.758,111.167L91.087,111.167L91.423,111.167L92.095,111.167" stroke="#eeca3b" stroke-width="2"/></g></g><path class="foreground" aria-hidden="true" d="" display="none"/></g><g transform="translate(0,0)"><path class="background" aria-hidden="true" d="M0,0h200v200h-200Z"/><g><g class="mark-line role-mark child_marks" role="graphics-object" aria-roledescription="line mark container"><path aria-label="Time: Sep 26, 2023; Price: 6495; item: PSG_M_NSW_CITY_MADE_PONCHO_-_Veste_de_survêtement_-_aura_white" role="graphics-symbol" aria-roledescription="line mark" d="M54.782,127.833L55.118,127.833L55.79,91.167L56.126,91.167L56.475,91.167L56.799,91.167L57.136,91.167L57.807,91.167L58.143,91.167L58.492,91.167L58.816,91.167L59.824,91.167L60.16,91.167L60.507,91.167L60.833,91.167L61.169,91.167L61.841,91.167L62.177,91.167L62.52,91.167L62.849,91.167L63.185,91.167L63.858,91.167L64.194,91.167L64.539,91.167L64.867,91.167L65.203,91.167L65.875,127.833L66.211,127.833L66.56,127.833L66.884,127.833L67.22,127.833L67.892,127.833L68.229,127.833L68.577,127.833L68.901,127.833L69.236,127.833L69.909,127.833L70.245,127.833L70.596,127.833L70.918,127.833L71.254,127.833L71.926,127.833L72.262,127.833L72.613,127.833L72.934,127.833L73.271,127.833L73.943,127.833L74.279,127.833L74.628,127.833L74.951,127.833L75.288,127.833L75.96,127.833L76.296,127.833L76.64,127.833L76.968,127.833L77.305,127.833L77.977,127.833L78.312,127.833L78.985,127.833L79.321,127.833L79.994,127.833L80.33,127.833L80.681,127.833L81.002,127.833L81.338,127.833L82.011,84.5L82.347,84.5L82.696,84.5L83.355,84.5L84.028,84.5L84.364,84.5L84.713,84.5L85.036,84.5L85.372,84.5L86.044,84.5L86.381,84.5L88.062,84.5L89.07,84.5L91.087,127.833L92.095,127.833L94.449,127.833L94.798,127.833L107.558,127.833L108.23,127.833L108.567,127.833L108.915,127.833L110.584,127.833L110.931,127.833L113.273,127.833L113.609,127.833L114.964,127.833L115.626,127.833L116.298,127.833L116.98,127.833L118.651,127.833L119.66,127.833L120.332,127.833L120.668,127.833L121.012,127.833L121.676,127.833L122.685,127.833L123.694,127.833L124.366,127.833L124.702,127.833L125.049,127.833L125.374,127.833L125.71,127.833L126.383,127.833L126.719,127.833L127.066,127.833L127.391,127.833L127.728,127.833L128.4,127.833L128.736,127.833L129.083,127.833L129.408,127.833L129.744,127.833L130.416,127.833L130.753,127.833L131.101,127.833L131.425,127.833L131.762,127.833L132.433,127.833L132.77,127.833L133.113,127.833L133.442,127.833L133.778,127.833L134.45,127.833L134.786,127.833L135.13,127.833L135.459,127.833L135.795,127.833L136.467,127.833L136.804,127.833L137.153,127.833L137.476,127.833L137.812,127.833L138.485,127.833L138.821,127.833L139.168,127.833L139.493,127.833L139.829,127.833L140.501,127.833L141.185,127.833L141.509,127.833L141.846,127.833L143.201,127.833L143.527,127.833L144.535,84.5L145.219,84.5L145.879,84.5L147.896,84.5L149.913,84.5L151.27,127.833L152.602,127.833L152.939,127.833L153.287,127.833L153.947,127.833L154.62,127.833L154.955,127.833L155.305,127.833L155.628,127.833L156.972,156.722L161.006,127.833L161.351,127.833L162.687,127.833L166.049,105.611L166.721,105.611L169.424,105.611L169.746,105.611L171.091,148.944L176.133,148.944L176.805,148.944L180.167,120.056L180.839,127.833L182.184,127.833L183.542,127.833L185.558,127.833L186.218,127.833L187.575,91.167L188.908,91.167L189.916,91.167L191.26,127.833L193.626,91.167L197.311,127.833" stroke="#ff9da6" stroke-width="2"/></g></g><path class="foreground" aria-hidden="true" d="" display="none"/></g><g transform="translate(0,0)"><path class="background" aria-hidden="true" d="M0,0h200v200h-200Z"/><g><g class="mark-line role-mark child_marks" role="graphics-object" aria-roledescription="line mark container"><path aria-label="Time: Oct 12, 2023; Price: 4995; item: SHOWERPROOF_PONCHO_UNISEX_-_Cape_-_classic_tartan" role="graphics-symbol" aria-roledescription="line mark" d="M86.044,144.5L86.381,144.5L86.73,144.5L87.053,144.5L87.389,144.5L88.062,144.5L88.398,144.5L88.747,144.5L89.07,144.5L89.406,144.5L90.078,144.5L90.415,144.5L90.758,144.5L91.087,144.5L91.423,144.5L92.095,144.5L92.431,144.5L92.775,144.5L93.103,144.5L93.44,144.5L94.112,152.611L94.448,152.611L94.798,152.611L95.121,152.611L95.457,152.611L96.129,152.611L96.465,152.611L96.814,152.611L97.138,152.611L97.473,152.611L98.146,152.611L98.482,152.611L98.831,152.611L99.154,152.611L99.49,152.611L100.163,152.611L100.499,152.611L100.848,152.611L101.171,152.611L101.507,152.611L102.18,152.611L102.516,152.611L102.864,152.611L103.188,152.611L103.524,152.611L104.197,152.611L104.533,152.611L104.876,152.611L105.205,152.611L105.541,152.611L106.214,144.5L106.55,144.5L106.893,144.5L107.222,144.5L107.558,144.5L108.23,144.5L108.567,144.5L108.915,144.5L109.239,144.5L109.575,144.5L110.247,152.611L110.584,152.611L110.931,152.611L111.256,152.611L111.592,152.611L112.264,152.611L112.601,152.611L112.948,152.611L113.273,152.611L113.609,152.611L114.281,152.611L114.618,152.611L114.964,152.611L115.29,152.611L115.626,152.611L116.298,152.611L116.635,152.611L116.98,152.611L117.307,152.611L117.643,152.611L118.315,152.611L118.651,152.611L118.994,152.611L119.323,152.611L119.66,152.611L120.332,152.611L120.668,152.611L121.012,152.611L121.34,152.611L121.676,152.611L122.349,144.5L122.685,144.5L123.032,144.5L123.358,144.5L123.694,144.5L124.366,144.5L124.702,144.5L125.049,144.5L125.374,144.5L125.71,144.5L126.383,152.611L126.719,152.611L127.066,152.611L127.391,152.611L127.727,152.611L128.4,152.611L128.736,152.611L129.083,152.611L129.408,152.611L129.744,152.611L130.416,152.611L130.753,152.611L131.101,152.611L131.425,152.611L131.761,152.611L132.433,152.611L132.77,152.611L133.113,152.611L133.442,152.611L133.778,152.611L134.45,152.611L134.786,152.611L135.13,152.611L135.459,152.611L135.795,152.611L136.467,152.611L136.804,152.611L137.153,152.611L137.476,152.611L137.812,152.611L138.485,150.056L138.821,144.5L139.168,144.5L139.493,144.5L139.829,144.5L140.501,144.5L140.837,144.5L141.185,144.5L141.509,144.5L141.846,144.5L142.518,144.5L142.854,144.5L143.201,144.5L143.527,144.5L143.863,144.5L144.535,144.5L144.871,144.5L145.218,144.5L145.544,144.5L145.879,144.5L146.552,144.5L146.888,144.5L147.232,144.5L147.896,144.5L148.569,144.5L148.905,144.5L149.249,144.5L149.577,144.5L149.913,144.5L150.586,144.5L150.922,144.5L151.27,144.5L151.594,144.5L152.602,144.5L152.939,144.5L153.287,144.5L153.611,144.5L153.947,144.5L154.62,144.5L154.955,144.5L155.305,144.5L155.628,144.5L155.964,144.5L156.637,144.5L156.972,144.5L157.322,144.5L157.645,144.5L157.981,144.5L158.653,144.5L158.99,144.5L159.338,144.5L159.662,144.5L159.998,144.5L160.671,144.5L161.006,144.5L161.351,144.5L161.678,144.5L162.015,144.5L162.687,144.5L163.023,144.5L163.368,144.5L163.696,144.5L164.032,144.5L164.704,144.5L165.04,144.5L165.391,144.5L165.712,144.5L166.049,144.5L166.721,144.5L167.057,144.5L167.407,144.5L167.73,144.5L168.065,144.5L168.738,144.5L169.074,144.5L169.424,144.5L169.746,144.5L170.082,144.5L193.95,144.5L194.285,144.5L194.958,144.5L195.294,144.5L195.643,144.5L195.966,144.5L196.303,144.5L196.975,144.5L197.311,144.5L197.66,144.5L197.983,144.5L198.32,144.5L198.992,144.5L199.328,144.5L199.677,144.5L200,144.5" stroke="#9d755d" stroke-width="2"/></g></g><path class="foreground" aria-hidden="true" d="" display="none"/></g><g transform="translate(0,0)"><path class="background" aria-hidden="true" d="M0,0h200v200h-200Z"/><g><g class="mark-line role-mark child_marks" role="graphics-object" aria-roledescription="line mark container"><path aria-label="Time: Oct 12, 2023; Price: 13995; item: PONCHO_-_Cape_-_lucid_blue" role="graphics-symbol" aria-roledescription="line mark" d="M86.044,44.5L88.398,44.5L89.07,44.5L90.078,91.167L91.087,91.167L92.431,91.167L92.775,91.167L93.103,91.167L93.44,91.167L94.112,91.167L94.449,91.167L94.798,91.167L95.121,91.167L95.457,91.167L96.129,91.167L96.465,91.167L96.814,91.167L97.138,91.167L97.473,91.167L98.146,91.167L98.482,91.167L98.831,91.167L99.154,91.167L99.49,91.167L100.163,91.167L100.499,91.167L100.848,91.167L101.507,91.167L103.188,91.167L103.524,91.167L104.197,91.167L105.205,91.167L106.214,91.167L106.55,91.167L106.893,91.167L107.222,91.167L107.558,91.167L109.239,91.167L110.247,114.5L110.584,114.5L111.592,114.5L112.601,114.5L112.948,114.5L113.273,114.5L114.281,114.5L116.298,114.5L116.635,114.5L116.98,114.5L117.307,114.5L117.643,114.5L118.315,114.5L118.651,114.5L118.994,114.5L119.323,114.5L119.66,114.5L120.332,114.5L120.668,114.5L121.012,114.5L121.34,114.5L121.676,114.5L122.349,114.5L122.685,114.5L123.032,114.5L123.358,114.5L123.694,114.5L124.366,114.5L124.702,114.5L125.049,114.5L125.374,114.5L125.71,114.5L126.383,114.5L126.719,114.5L127.066,114.5L127.391,114.5L127.728,114.5L128.4,83.389L128.736,83.389L129.744,83.389L130.416,83.389L132.433,83.389L132.77,83.389L133.442,83.389L133.778,83.389L134.45,83.389L134.786,83.389L135.13,83.389L135.459,83.389L135.795,83.389L136.467,83.389L136.804,83.389L137.812,83.389L138.485,44.5L138.821,44.5L139.168,44.5L139.493,44.5L139.829,44.5L140.501,44.5L140.837,44.5L141.185,44.5L141.509,44.5L141.846,44.5L142.518,44.5L142.854,44.5L143.201,44.5L143.527,44.5L143.863,44.5L144.535,122.278L145.219,122.278L145.879,122.278L146.888,122.278L147.232,122.278L147.896,122.278L148.569,122.278L148.905,122.278L149.249,122.278L149.577,122.278L149.913,122.278L150.586,44.5L150.922,44.5L151.27,44.5L151.594,44.5L152.602,44.5L152.939,44.5L153.287,44.5L153.611,44.5L153.947,44.5L154.62,44.5L154.955,44.5L155.305,44.5L155.628,44.5L155.964,44.5L156.972,130.056L157.322,130.056L157.645,130.056L157.981,130.056L158.653,130.056L159.998,130.056L160.671,44.5L161.006,44.5L161.351,44.5L162.687,44.5L163.023,44.5L163.368,44.5L163.696,44.5L164.032,44.5L164.704,60.056L165.04,60.056L165.391,106.722L165.712,106.722L166.049,122.278L166.721,122.278L167.057,122.278L167.407,122.278L167.73,122.278L168.065,122.278L168.738,122.278L169.074,122.278L169.424,122.278L169.746,122.278L170.082,122.278L170.755,122.278L171.091,122.278L171.44,122.278L171.763,122.278L172.1,122.278L172.772,122.278L175.125,130.056L175.469,122.278L175.797,122.278L176.133,122.278L176.805,122.278L177.142,122.278L177.487,122.278L177.814,122.278L178.15,122.278L178.823,122.278L180.167,75.611L180.839,44.5L181.176,44.5L181.523,44.5L181.848,44.5L182.184,44.5L182.857,44.5L183.193,44.5L183.542,44.5L183.865,44.5L184.201,44.5L184.873,44.5L185.209,44.5L185.558,44.5L185.882,44.5L186.218,44.5L186.89,44.5L187.227,44.5L187.575,44.5L188.235,44.5L188.908,44.5L189.243,44.5L189.587,44.5L189.916,44.5L190.252,44.5L190.924,44.5L191.26,44.5L191.605,44.5L191.933,44.5L192.269,44.5L192.941,44.5L193.626,44.5L197.311,91.167L197.66,91.167L197.983,91.167L198.32,91.167L198.992,91.167" stroke="#72b7b2" stroke-width="2"/></g></g><path class="foreground" aria-hidden="true" d="" display="none"/></g></g><g class="mark-group role-legend" role="graphics-symbol" aria-roledescription="legend" aria-label="Symbol legend titled 'item' for stroke color with 10 values: KUURA_3L_PONCHO_UNISEX_-_Veste_imperméable_-_green, DESCHUTES_VALLEY™_RAIN_PONCHO_-_Parka_-_vista_blue, DESCHUTES_VALLEY™_RAIN_PONCHO_-_Parka_-_black, PONCHO_-_Cape_-_lucid_blue, HIKING_BACKPACK_PONCHO_-_Veste_imperméable_-_blue, ending with COVERO_PONCHO_II_-_Cape_-_lightgrey"><g transform="translate(220,0)"><path class="background" aria-hidden="true" d="M0,0h328v144h-328Z" pointer-events="none"/><g><g class="mark-group role-legend-entry"><g transform="translate(0,16)"><path class="background" aria-hidden="true" d="M0,0h0v0h0Z" pointer-events="none"/><g><g class="mark-group role-scope" role="graphics-object" aria-roledescription="group mark container"><g transform="translate(0,0)"><path class="background" aria-hidden="true" d="M0,0h328v11h-328Z" pointer-events="none" opacity="1"/><g><g class="mark-symbol role-legend-symbol" pointer-events="none"><path transform="translate(6,6)" d="M-5,0L5,0" stroke="#4c78a8" stroke-width="1.5" opacity="1"/></g><g class="mark-text role-legend-label" pointer-events="none"><text text-anchor="start" transform="translate(16,9)" font-family="Liberation Mono" font-size="10px" fill="#000" opacity="1">KUURA_3L_PONCHO_UNISEX_-_Veste_impermé…</text></g></g><path class="foreground" aria-hidden="true" d="" pointer-events="none" display="none"/></g><g transform="translate(0,13)"><path class="background" aria-hidden="true" d="M0,0h328v11h-328Z" pointer-events="none" opacity="1"/><g><g class="mark-symbol role-legend-symbol" pointer-events="none"><path transform="translate(6,6)" d="M-5,0L5,0" stroke="#f58518" stroke-width="1.5" opacity="1"/></g><g class="mark-text role-legend-label" pointer-events="none"><text text-anchor="start" transform="translate(16,9)" font-family="Liberation Mono" font-size="10px" fill="#000" opacity="1">DESCHUTES_VALLEY™_RAIN_PONCHO_-_Parka_…</text></g></g><path class="foreground" aria-hidden="true" d="" pointer-events="none" display="none"/></g><g transform="translate(0,26)"><path class="background" aria-hidden="true" d="M0,0h328v11h-328Z" pointer-events="none" opacity="1"/><g><g class="mark-symbol role-legend-symbol" pointer-events="none"><path transform="translate(6,6)" d="M-5,0L5,0" stroke="#e45756" stroke-width="1.5" opacity="1"/></g><g class="mark-text role-legend-label" pointer-events="none"><text text-anchor="start" transform="translate(16,9)" font-family="Liberation Mono" font-size="10px" fill="#000" opacity="1">DESCHUTES_VALLEY™_RAIN_PONCHO_-_Parka_…</text></g></g><path class="foreground" aria-hidden="true" d="" pointer-events="none" display="none"/></g><g transform="translate(0,39)"><path class="background" aria-hidden="true" d="M0,0h328v11h-328Z" pointer-events="none" opacity="1"/><g><g class="mark-symbol role-legend-symbol" pointer-events="none"><path transform="translate(6,6)" d="M-5,0L5,0" stroke="#72b7b2" stroke-width="1.5" opacity="1"/></g><g class="mark-text role-legend-label" pointer-events="none"><text text-anchor="start" transform="translate(16,9)" font-family="Liberation Mono" font-size="10px" fill="#000" opacity="1">PONCHO_-_Cape_-_lucid_blue</text></g></g><path class="foreground" aria-hidden="true" d="" pointer-events="none" display="none"/></g><g transform="translate(0,52)"><path class="background" aria-hidden="true" d="M0,0h328v11h-328Z" pointer-events="none" opacity="1"/><g><g class="mark-symbol role-legend-symbol" pointer-events="none"><path transform="translate(6,6)" d="M-5,0L5,0" stroke="#54a24b" stroke-width="1.5" opacity="1"/></g><g class="mark-text role-legend-label" pointer-events="none"><text text-anchor="start" transform="translate(16,9)" font-family="Liberation Mono" font-size="10px" fill="#000" opacity="1">HIKING_BACKPACK_PONCHO_-_Veste_impermé…</text></g></g><path class="foreground" aria-hidden="true" d="" pointer-events="none" display="none"/></g><g transform="translate(0,65)"><path class="background" aria-hidden="true" d="M0,0h328v11h-328Z" pointer-events="none" opacity="1"/><g><g class="mark-symbol role-legend-symbol" pointer-events="none"><path transform="translate(6,6)" d="M-5,0L5,0" stroke="#eeca3b" stroke-width="1.5" opacity="1"/></g><g class="mark-text role-legend-label" pointer-events="none"><text text-anchor="start" transform="translate(16,9)" font-family="Liberation Mono" font-size="10px" fill="#000" opacity="1">HIKING_BACKPACK_PONCHO_-_Veste_impermé…</text></g></g><path class="foreground" aria-hidden="true" d="" pointer-events="none" display="none"/></g><g transform="translate(0,78)"><path class="background" aria-hidden="true" d="M0,0h328v11h-328Z" pointer-events="none" opacity="1"/><g><g class="mark-symbol role-legend-symbol" pointer-events="none"><path transform="translate(6,6)" d="M-5,0L5,0" stroke="#b279a2" stroke-width="1.5" opacity="1"/></g><g class="mark-text role-legend-label" pointer-events="none"><text text-anchor="start" transform="translate(16,9)" font-family="Liberation Mono" font-size="10px" fill="#000" opacity="1">PARIS_ST._GERMAIN_CITY_MADE_PONCHO_-_V…</text></g></g><path class="foreground" aria-hidden="true" d="" pointer-events="none" display="none"/></g><g transform="translate(0,91)"><path class="background" aria-hidden="true" d="M0,0h328v11h-328Z" pointer-events="none" opacity="1"/><g><g class="mark-symbol role-legend-symbol" pointer-events="none"><path transform="translate(6,6)" d="M-5,0L5,0" stroke="#ff9da6" stroke-width="1.5" opacity="1"/></g><g class="mark-text role-legend-label" pointer-events="none"><text text-anchor="start" transform="translate(16,9)" font-family="Liberation Mono" font-size="10px" fill="#000" opacity="1">PSG_M_NSW_CITY_MADE_PONCHO_-_Veste_de_…</text></g></g><path class="foreground" aria-hidden="true" d="" pointer-events="none" display="none"/></g><g transform="translate(0,104)"><path class="background" aria-hidden="true" d="M0,0h328v11h-328Z" pointer-events="none" opacity="1"/><g><g class="mark-symbol role-legend-symbol" pointer-events="none"><path transform="translate(6,6)" d="M-5,0L5,0" stroke="#9d755d" stroke-width="1.5" opacity="1"/></g><g class="mark-text role-legend-label" pointer-events="none"><text text-anchor="start" transform="translate(16,9)" font-family="Liberation Mono" font-size="10px" fill="#000" opacity="1">SHOWERPROOF_PONCHO_UNISEX_-_Cape_-_cla…</text></g></g><path class="foreground" aria-hidden="true" d="" pointer-events="none" display="none"/></g><g transform="translate(0,117)"><path class="background" aria-hidden="true" d="M0,0h328v11h-328Z" pointer-events="none" opacity="1"/><g><g class="mark-symbol role-legend-symbol" pointer-events="none"><path transform="translate(6,6)" d="M-5,0L5,0" stroke="#bab0ac" stroke-width="1.5" opacity="1"/></g><g class="mark-text role-legend-label" pointer-events="none"><text text-anchor="start" transform="translate(16,9)" font-family="Liberation Mono" font-size="10px" fill="#000" opacity="1">COVERO_PONCHO_II_-_Cape_-_lightgrey</text></g></g><path class="foreground" aria-hidden="true" d="" pointer-events="none" display="none"/></g></g></g><path class="foreground" aria-hidden="true" d="" pointer-events="none" display="none"/></g></g><g class="mark-text role-legend-title" pointer-events="none"><text text-anchor="start" transform="translate(0,9)" font-family="Liberation Mono" font-size="11px" font-weight="bold" fill="#000" opacity="1">item</text></g></g><path class="foreground" aria-hidden="true" d="" pointer-events="none" display="none"/></g></g></g><path class="foreground" aria-hidden="true" d="" display="none"/></g></g></g><path class="foreground" aria-hidden="true" d="" display="none"/></g></g></g></svg>