<svg xmlns="http://www.w3.org/2000/svg" xmlns:xlink="http://www.w3.org/1999/xlink" version="1.1" class="marks" width="658" height="244" viewBox="0 0 658 244"><rect width="658" height="244" fill="white"/><g fill="none" stroke-miterlimit="10" transform="translate(104,6)"><g class="mark-group role-frame root" role="graphics-object" aria-roledescription="group mark container"><g transform="translate(0,0)"><path class="background" aria-hidden="true" d="M0,0h0v0h0Z"/><g><g class="mark-group role-row-title row-title" role="graphics-object" aria-roledescription="group mark container"><g transform="translate(-78,116)"><path class="background" aria-hidden="true" d="M0,0h0v0h0Z"/><g><g class="mark-group role-title"><g transform="translate(-21.000000000000004,0)"><path class="background" aria-hidden="true" d="M0,0h0v0h0Z" pointer-events="none"/><g><g class="mark-text role-title-text" role="graphics-symbol" aria-roledescription="title" aria-label="Title text 'group'" pointer-events="none"><text text-anchor="middle" transform="translate(0,0) rotate(-90) translate(0,9)" font-family="Liberation Mono" font-size="11px" font-weight="bold" fill="#000" opacity="1">group</text></g></g><path class="foreground" aria-hidden="true" d="" pointer-events="none" display="none"/></g></g></g><path class="foreground" aria-hidden="true" d="" display="none"/></g></g><g class="mark-group role-row-header row_header" role="graphics-object" aria-roledescription="group mark container"><g transform="translate(-47,0)"><path class="background" aria-hidden="true" d="M0,0h0v200h0Z"/><g><g class="mark-group role-title"><g transform="translate(-20.000000000000007,100)"><path class="background" aria-hidden="true" d="M0,0h0v0h0Z" pointer-events="none"/><g><g class="mark-text role-title-text" role="graphics-symbol" aria-roledescription="title" aria-label="Title text 'zalando-poncho'" pointer-events="none"><text text-anchor="middle" transform="translate(0,0) rotate(-90) translate(0,8)" font-family="Liberation Mono" font-size="10px" fill="#000" opacity="1">zalando-poncho</text></g></g><path class="foreground" aria-hidden="true" d="" pointer-events="none" display="none"/></g></g></g><path class="foreground" aria-hidden="true" d="" display="none"/></g></g><g class="mark-group role-scope cell" role="graphics-object" aria-roledescription="group mark container"><g transform="translate(0,0)"><path class="background" aria-hidden="true" d="M0.5,0.5h200v200h-200Z" stroke="#ddd"/><g><g class="mark-group role-axis" aria-hidden="true"><g transform="translate(0.5,200.5)"><path class="background" aria-hidden="true" d="M0,0h0v0h0Z" pointer-events="none"/><g><g class="mark-rule role-axis-grid" pointer-events="none"><line transform="translate(2,-200)" x2="0" y2="200" stroke="#ddd" stroke-width="1" opacity="1"/><line transform="translate(37,-200)" x2="0" y2="200" stroke="#ddd" stroke-width="1" opacity="1"/><line transform="translate(74,-200)" x2="0" y2="200" stroke="#ddd" stroke-width="1" opacity="1"/><line transform="translate(109,-200)" x2="0" y2="200" stroke="#ddd" stroke-width="1" opacity="1"/><line transform="translate(145,-200)" x2="0" y2="200" stroke="#ddd" stroke-width="1" opacity="1"/><line transform="translate(182,-200)" x2="0" y2="200" stroke="#ddd" stroke-width="1" opacity="1"/></g></g><path class="foreground" aria-hidden="true" d="" pointer-events="none" display="none"/></g></g><g class="mark-group role-axis" aria-hidden="true"><g transform="translate(0.5,0.5)"><path class="background" aria-hidden="true" d="M0,0h0v0h0Z" pointer-events="none"/><g><g class="mark-rule role-axis-grid" pointer-events="none"><line transform="translate(0,200)" x2="200" y2="0" stroke="#ddd" stroke-width="1" opacity="1"/><line transform="translate(0,144)" x2="200" y2="0" stroke="#ddd" stroke-width="1" opacity="1"/><line transform="translate(0,89)" x2="200" y2="0" stroke="#ddd" stroke-width="1" opacity="1"/><line transform="translate(0,33)" x2="200" y2="0" stroke="#ddd" stroke-width="1" opacity="1"/></g></g><path class="foreground" aria-hidden="true" d="" pointer-events="none" display="none"/></g></g><g class="mark-group role-axis" role="graphics-symbol" aria-roledescription="axis" aria-label="X-axis titled 'Time' for a time scale with values from Wednesday, 30 August 2023, 12:58:24 PM to Friday, 16 February 2024, 8:50:11 AM"><g transform="translate(0.5,200.5)"><path class="background" aria-hidden="true" d="M0,0h0v0h0Z" pointer-events="none"/><g><g class="mark-rule role-axis-tick" pointer-events="none"><line transform="translate(2,0)" x2="0" y2="5" stroke="#888" stroke-width="1" opacity="1"/><line transform="translate(37,0)" x2="0" y2="5" stroke="#888" stroke-width="1" opacity="1"/><line transform="translate(74,0)" x2="0" y2="5" stroke="#888" stroke-width="1" opacity="1"/><line transform="translate(109,0)" x2="0" y2="5" stroke="#888" stroke-width="1" opacity="1"/><line transform="translate(145,0)" x2="0" y2="5" stroke="#888" stroke-width="1" opacity="1"/><line transform="translate(182,0)" x2="0" y2="5" stroke="#888" stroke-width="1" opacity="1"/></g><g class="mark-text role-axis-label" pointer-events="none"><text text-anchor="middle" transform="translate(1.7187357363418518,15)" font-family="Liberation Mono" font-size="10px" fill="#000" opacity="1">September</text><text text-anchor="middle" transform="translate(37.04867553218211,15)" font-family="Liberation Mono" font-size="10px" fill="#000" opacity="0">October</text><text text-anchor="middle" transform="translate(73.55627998788371,15)" font-family="Liberation Mono" font-size="10px" fill="#000" opacity="1">November</text><text text-anchor="middle" transform="translate(108.88621978372397,15)" font-family="Liberation Mono" font-size="10px" fill="#000" opacity="0">December</text><text text-anchor="middle" transform="translate(145.39382423942558,15)" font-family="Liberation Mono" font-size="10px" fill="#000" opacity="1">2024</text><text text-anchor="middle" transform="translate(181.90142869512718,15)" font-family="Liberation Mono" font-size="10px" fill="#000" opacity="0">February</text></g><g class="mark-rule role-axis-domain" pointer-events="none"><line transform="translate(0,0)" x2="200" y2="0" stroke="#888" stroke-width="1" opacity="1"/></g><g class="mark-text role-axis-title" pointer-events="none"><text text-anchor="middle" transform="translate(100,30)" font-family="Liberation Mono" font-size="11px" font-weight="bold" fill="#000" opacity="1">Time</text></g></g><path class="foreground" aria-hidden="true" d="" pointer-events="none" display="none"/></g></g><g class="mark-group role-axis" role="graphics-symbol" aria-roledescription="axis" aria-label="Y-axis titled 'Price' for a linear scale with values from 0 to 18,000"><g transform="translate(0.5,0.5)"><path class="background" aria-hidden="true" d="M0,0h0v0h0Z" pointer-events="none"/><g><g class="mark-rule role-axis-tick" pointer-events="none"><line transform="translate(0,200)" x2="-5" y2="0" stroke="#888" stroke-width="1" opacity="1"/><line transform="translate(0,144)" x2="-5" y2="0" stroke="#888" stroke-width="1" opacity="1"/><line transform="translate(0,89)" x2="-5" y2="0" stroke="#888" stroke-width="1" opacity="1"/><line transform="translate(0,33)" x2="-5" y2="0" stroke="#888" stroke-width="1" opacity="1"/></g><g class="mark-text role-axis-label" pointer-events="none"><text text-anchor="end" transform="translate(-7,203)" font-family="Liberation Mono" font-size="10px" fill="#000" opacity="1">0</text><text text-anchor="end" transform="translate(-7,147.44444444444443)" font-family="Liberation Mono" font-size="10px" fill="#000" opacity="1">50</text><text text-anchor="end" transform="translate(-7,91.88888888888889)" font-family="Liberation Mono" font-size="10px" fill="#000" opacity="1">100</text><text text-anchor="end" transform="translate(-7,36.33333333333333)" font-family="Liberation Mono" font-size="10px" fill="#000" opacity="1">150</text></g><g class="mark-rule role-axis-domain" pointer-events="none"><line transform="translate(0,200)" x2="0" y2="-200" stroke="#888" stroke-width="1" opacity="1"/></g><g class="mark-text role-axis-title" pointer-events="none"><text text-anchor="middle" transform="translate(-35,100) rotate(-90) translate(0,-2)" font-family="Liberation Mono" font-size="11px" font-weight="bold" fill="#000" opacity="1">Price</text></g></g><path class="foreground" aria-hidden="true" d="" pointer-events="none" display="none"/></g></g><g class="mark-group role-scope child_pathgroup" role="graphics-object" aria-roledescription="group mark container"><g transform="translate(0,0)"><path class="background" aria-hidden="true" d="M0,0h200v200h-200Z"/><g><g class="mark-line role-mark child_marks" role="graphics-object" aria-roledescription="line mark container"><path aria-label="Time: Aug 30, 2023; Price: 10795; item: DESCHUTES_VALLEY™_RAIN_PONCHO_-_Parka_-_black" role="graphics-symbol" aria-roledescription="line mark" d="M0,80.056L0.191,80.056L0.387,80.056L0.779,80.056L0.975,80.056L1.178,80.056L1.368,80.056L1.564,80.056L1.957,80.056L2.153,80.056L2.355,80.056L2.545,80.056L2.742,80.056L3.134,80.056L3.33,80.056L3.531,80.056L3.723,80.056L3.919,80.056L4.312,80.056L4.649,80.056L4.709,80.056L4.901,80.056L5.097,80.056L5.49,80.056L5.686,80.056L5.889,80.056L6.078,80.056L6.274,80.056L6.668,50.056L6.865,50.056L7.066,50.056L7.256,50.056L7.452,50.056L7.845,50.056L8.041,50.056L8.245,50.056L8.434,50.056L8.63,50.056L9.023,50.056L9.219,50.056L9.421,50.056L9.612,50.056L9.808,50.056L10.324,50.056L10.396,50.056L10.599,50.056L10.789,50.056L10.985,50.056L11.377,50.056L11.574,50.056L11.774,50.056L11.967,50.056L12.163,50.056L12.555,50.056L12.752,50.056L12.952,50.056L13.144,50.056L13.34,50.056L13.733,50.056L13.929,50.056L14.133,50.056L14.322,50.056L14.518,50.056L14.911,50.056L15.107,50.056L15.31,50.056L15.499,50.056L15.696,50.056L16.088,20.056L16.285,20.056L16.488,20.056L16.592,20.056L16.677,20.056L16.874,20.056L17.266,20.056L17.462,20.056L17.666,20.056L17.855,20.056L18.051,20.056L18.443,20.056L18.64,20.056L18.843,20.056L19.032,20.056L19.229,20.056L19.621,20.056L19.818,20.056L20.017,20.056L20.21,20.056L20.406,20.056L20.799,20.056L20.995,20.056L21.195,20.056L21.388,20.056L21.584,20.056L21.977,20.056L22.173,20.056L22.377,20.056L22.566,20.056L22.762,20.056L23.154,20.056L23.35,20.056L23.554,20.056L23.743,20.056L23.939,20.056L24.332,20.056L24.528,20.056L24.732,20.056L24.921,20.056L25.117,20.056L25.509,20.056L25.706,20.056L25.91,20.056L26.098,20.056L26.295,20.056L26.687,20.056L26.884,20.056L27.086,20.056L27.276,20.056L27.472,20.056L27.865,20.056L28.061,20.056L28.261,20.056L28.454,20.056L28.65,20.056L29.042,20.056L29.239,20.056L29.439,20.056L29.632,20.056L29.827,20.056L30.22,20.056L30.417,20.056L30.62,20.056L30.809,20.056L31.005,20.056L31.398,20.056L31.594,20.056L31.798,20.056L31.987,20.056L32.183,20.056L32.576,40.056L32.772,40.056L32.975,40.056L33.164,40.056L33.361,40.056L33.753,40.056L33.949,40.056L34.153,40.056L34.342,40.056L34.931,40.056L35.127,40.056L35.33,40.056L35.52,40.056L35.716,40.056L36.108,40.056L36.305,40.056L36.505,40.056L36.697,40.056L36.893,40.056L37.286,40.056L37.483,40.056L37.683,40.056L37.875,40.056L38.071,40.056L38.464,100.056L38.66,100.056L38.864,100.056L39.053,100.056L39.249,100.056L39.642,90.056L39.838,90.056L40.042,90.056L40.231,90.056L40.427,90.056L40.819,90.056L41.016,90.056L41.22,90.056L41.408,90.056L41.605,90.056L41.997,90.056L42.193,90.056L42.398,90.056L42.586,90.056L42.782,90.056L43.175,90.056L43.371,90.056L43.575,90.056L43.764,90.056L43.96,90.056L44.352,90.056L44.549,90.056L44.749,90.056L44.941,90.056L45.138,90.056L45.53,90.056L45.726,90.056L46.119,90.056L46.315,90.056L46.708,90.056L46.904,90.056L47.109,90.056L47.297,90.056L47.493,90.056L47.885,100.056L48.082,100.056L48.286,100.056L48.474,100.056L48.67,100.056L49.063,100.056L49.26,100.056L49.463,100.056L49.652,100.056L49.848,100.056L50.24,100.056L50.437,100.056L50.641,100.056L50.83,100.056L51.026,100.056L51.418,100.056L51.615,100.056L51.818,100.056L52.007,100.056L52.203,100.056L52.596,100.056L52.792,100.056L52.993,100.056L53.185,100.056L53.381,100.056L53.774,100.056L53.97,100.056L54.17,100.056L54.362,100.056L54.559,100.056L54.951,90.056L55.148,90.056L55.352,90.056L55.54,90.056L55.737,90.056L56.129,90.056L56.325,90.056L56.529,90.056L56.718,90.056L56.914,90.056L57.307,90.056L57.503,90.056L57.707,90.056L57.895,90.056L58.092,90.056L58.484,90.056L58.68,90.056L58.884,90.056L59.073,90.056L59.269,90.056L59.662,90.056L59.858,90.056L60.062,90.056L60.251,90.056L60.447,90.056L60.839,90.056L61.036,90.056L61.236,90.056L61.428,90.056L61.624,90.056L62.017,90.056L62.213,90.056L62.414,90.056L62.606,90.056L62.802,90.056L63.195,90.056L63.391,90.056L63.595,90.056L63.784,90.056L63.98,90.056L64.372,50.056L64.569,50.056L64.772,50.056L64.961,50.056L65.157,50.056L65.55,50.056L65.746,50.056L65.949,50.056L66.139,50.056L66.335,50.056L66.728,50.056L66.924,50.056L67.127,50.056L67.317,50.056L67.513,50.056L67.905,50.056L68.102,50.056L68.304,50.056L68.494,50.056L68.691,50.056L69.083,50.056L69.279,50.056L69.479,50.056L69.672,50.056L69.868,50.056L70.261,50.056L70.457,50.056L70.658,50.056L70.85,50.056L71.046,50.056L71.439,50.056L71.635,50.056L71.837,50.056L72.028,50.056L72.224,50.056L72.616,50.056L72.812,50.056L73.015,50.056L73.205,50.056L73.401,50.056L73.794,50.056L73.99,50.056L74.193,50.056L74.382,50.056L74.579,50.056L74.972,40.056L75.168,40.056L75.37,40.056L75.56,40.056L76.738,40.056L76.934,40.056L77.327,40.056L77.724,40.056L77.916,40.056L82.626,40.056L82.822,40.056L83.215,40.056L83.411,40.056L83.614,40.056L83.804,40.056L84,40.056L84.393,70.056L84.589,70.056L84.792,70.056L84.982,70.056L85.178,70.056L85.57,70.056L85.767,70.056L85.967,70.056L86.355,70.056L86.748,70.056L86.944,70.056L87.145,70.056L87.337,70.056L87.533,70.056L87.926,40.056L88.122,40.056L88.325,40.056L88.515,40.056L89.103,40.056L89.3,40.056L89.503,40.056L89.692,40.056L89.888,40.056L90.281,40.056L90.477,40.056L90.681,40.056L90.87,40.056L91.066,40.056L91.459,50.056L91.655,50.056L91.859,50.056L92.047,50.056L92.244,50.056L92.636,50.056L92.833,50.056L93.036,50.056L93.225,50.056L93.421,50.056L93.814,40.056L94.01,40.056L94.212,40.056L94.403,40.056L94.599,40.056L94.992,40.056L95.188,40.056L95.389,40.056L95.581,40.056L95.777,40.056L96.169,40.056L96.366,40.056L96.57,40.056L96.758,40.056L96.954,40.056L97.347,40.056L97.543,40.056L97.748,60.056L97.936,60.056L98.132,60.056L98.525,60.056L98.721,60.056L98.925,60.056L99.114,60.056L99.31,60.056L99.702,60.056L99.899,60.056L100.102,80.056L100.291,80.056L100.488,80.056L100.88,80.056L101.076,80.056L101.279,80.056L101.469,80.056L101.665,80.056L102.058,70.056L102.254,70.056L102.455,70.056L102.647,70.056L102.843,70.056L103.235,70.056L103.432,70.056L103.633,70.056L103.824,70.056L104.02,70.056L104.413,40.056L104.609,40.056L104.813,40.056L105.002,40.056L105.198,40.056L105.591,40.056L105.787,40.056L105.99,40.056L106.18,40.056L106.376,40.056L106.768,40.056L106.965,40.056L107.168,40.056L107.357,40.056L107.553,40.056L107.946,40.056L108.142,40.056L108.346,40.056L108.535,40.056L108.731,40.056L109.124,40.056L109.32,40.056L109.523,40.056L109.712,40.056L109.909,40.056L110.302,40.056L110.498,40.056L110.698,40.056L110.89,40.056L111.086,40.056L111.479,40.056L111.675,40.056L111.877,40.056L112.068,40.056L112.264,40.056L112.656,40.056L112.853,40.056L113.056,40.056L113.246,40.056L113.442,40.056L113.834,50.056L114.031,50.056L114.234,50.056L114.423,50.056L114.62,50.056L115.012,50.056L115.208,50.056L115.412,50.056L115.601,50.056L115.797,50.056L116.189,50.056L116.386,50.056L116.59,50.056L116.778,50.056L116.975,50.056L117.367,50.056L117.564,50.056L117.766,50.056L117.956,50.056L118.152,50.056L118.545,50.056L118.741,50.056L118.942,50.056L119.134,50.056L119.33,50.056L119.723,50.056L119.919,50.056L120.12,50.056L120.311,50.056L120.508,50.056L120.9,50.056L121.097,50.056L121.301,50.056L122.078,50.056L122.274,50.056L122.478,50.056L122.667,50.056L122.863,50.056L123.256,50.056L123.452,50.056L123.656,50.056L123.844,50.056L124.041,50.056L124.433,50.056L124.63,50.056L124.833,50.056L125.022,50.056L125.218,50.056L125.611,50.056L125.807,50.056L126.01,50.056L126.2,50.056L126.396,50.056L126.789,50.056L126.985,50.056L127.186,50.056L127.377,50.056L127.574,50.056L127.966,50.056L128.163,50.056L128.364,50.056L128.555,50.056L128.751,50.056L129.144,50.056L129.34,50.056L129.544,50.056L129.733,50.056L129.929,50.056L130.322,50.056L130.518,50.056L130.721,50.056L130.911,50.056L131.107,50.056L131.499,50.056L131.696,50.056L131.893,50.056L132.088,50.056L132.284,50.056L132.677,50.056L132.873,50.056L133.266,50.056L133.462,50.056L133.855,50.056L134.051,50.056L134.253,50.056L134.443,50.056L134.64,50.056L135.032,50.056L135.228,50.056L135.429,50.056L135.621,50.056L135.817,50.056L136.21,50.056L136.406,50.056L136.607,50.056L136.799,50.056L136.995,50.056L137.387,50.056L137.584,50.056L137.786,50.056L137.977,50.056L138.173,50.056L138.565,50.056L138.761,50.056L138.963,50.056L139.154,50.056L139.35,50.056L139.743,50.056L139.939,50.056L140.141,50.056L140.332,50.056L140.528,50.056L140.921,60.056L141.117,60.056L141.318,60.056L141.51,60.056L141.706,60.056L142.098,60.056L142.294,60.056L142.497,60.056L142.687,60.056L142.883,60.056L143.276,60.056L143.472,60.056L143.673,60.056L143.865,60.056L144.061,60.056L144.454,60.056L144.65,60.056L144.851,60.056L145.042,60.056L145.239,60.056L145.631,60.056L145.827,60.056L146.029,60.056L146.22,60.056L146.416,60.056L146.809,60.056L147.005,60.056L147.207,60.056L147.398,60.056L147.594,60.056L147.986,90.056L148.183,90.056L148.386,90.056L148.575,90.056L148.772,90.056L149.164,90.056L149.361,90.056L149.563,90.056L149.753,90.056L163.296,60.056L163.492,60.056L163.696,60.056L163.885,60.056L164.081,60.056L164.474,60.056L164.67,60.056L164.874,60.056L165.063,60.056L165.259,60.056L165.651,60.056L165.848,60.056L166.051,60.056L166.241,60.056L166.437,60.056L166.829,100.056L167.025,100.056L167.229,100.056L167.418,100.056L167.614,100.056L168.007,100.056L168.203,100.056L168.404,100.056" stroke="#f58518" stroke-width="2"/></g></g><path class="foreground" aria-hidden="true" d="" display="none"/></g><g transform="translate(0,0)"><path class="background" aria-hidden="true" d="M0,0h200v200h-200Z"/><g><g class="mark-line role-mark child_marks" role="graphics-object" aria-roledescription="line mark container"><path aria-label="Time: Aug 30, 2023; Price: 8995; item: HIKING_BACKPACK_PONCHO_-_Veste_imperméable_-_blue" role="graphics-symbol" aria-roledescription="line mark" d="M0,100.056L0.191,100.056L0.387,100.056L0.779,100.056L0.975,100.056L1.178,100.056L1.368,100.056L1.564,100.056L1.957,100.056L2.153,100.056L2.355,100.056L2.545,100.056L2.742,100.056L3.134,100.056L3.33,100.056L3.531,100.056L3.723,100.056L3.919,100.056L4.312,100.056L4.649,100.056L4.709,100.056L13.929,100.056L14.133,100.056L14.322,100.056L14.518,100.056L14.911,100.056L15.107,100.056L15.31,100.056L15.499,100.056L15.696,100.056L16.088,100.056L16.285,100.056L16.488,100.056L16.592,100.056L16.677,100.056L16.874,100.056L17.266,100.056L17.462,100.056L17.666,100.056L17.855,100.056L18.051,100.056L18.443,100.056L18.64,100.056L18.843,100.056L19.032,100.056L19.229,100.056L19.621,100.056L19.818,100.056L20.017,100.056L20.21,100.056L20.406,100.056L20.799,100.056L20.995,100.056L34.342,111.167L34.931,111.167L35.127,111.167L35.33,111.167L35.52,111.167L35.716,111.167L36.108,111.167L36.305,111.167L36.505,111.167L36.697,111.167L36.893,111.167L37.286,111.167L37.483,111.167L37.683,111.167L37.875,111.167L38.071,111.167L38.464,111.167L38.66,111.167L38.864,111.167L39.053,111.167L39.249,111.167L39.642,127.833L39.838,127.833L40.042,127.833L40.231,127.833L40.427,127.833L40.819,127.833L41.016,127.833L41.22,127.833L41.408,127.833L41.605,127.833L41.997,127.833L42.193,127.833L42.398,127.833L42.586,127.833L42.782,127.833L43.175,127.833L43.371,127.833L43.575,127.833L43.764,127.833L43.96,127.833L44.352,127.833L44.549,127.833L44.749,127.833L44.941,127.833L45.138,127.833L45.53,127.833L45.726,127.833L46.119,127.833L46.315,127.833L46.708,127.833" stroke="#eeca3b" stroke-width="2"/></g></g><path class="foreground" aria-hidden="true" d="" display="none"/></g><g transform="translate(0,0)"><path class="background" aria-hidden="true" d="M0,0h200v200h-200Z"/><g><g class="mark-line role-mark child_marks" role="graphics-object" aria-roledescription="line mark container"><path aria-label="Time: Aug 30, 2023; Price: 16195; item: DESCHUTES_VALLEY™_RAIN_PONCHO_-_Parka_-_vista_blue" role="graphics-symbol" aria-roledescription="line mark" d="M0,20.056L0.191,20.056L0.387,20.056L0.779,20.056L0.975,20.056L1.178,20.056L1.368,20.056L1.564,20.056L1.957,20.056L2.153,20.056L2.355,20.056L2.545,20.056L2.742,20.056L3.134,20.056L3.33,20.056L3.531,20.056L3.723,20.056L3.919,20.056L4.312,20.056L4.649,20.056L4.709,20.056L4.901,20.056L5.097,20.056L5.49,20.056L5.686,20.056L5.889,20.056L6.078,20.056L6.274,20.056L6.668,80.056L6.865,80.056L7.066,80.056L7.256,80.056L7.452,80.056L7.845,80.056L8.041,80.056L8.245,80.056L8.434,80.056L8.63,80.056L9.023,80.056L9.219,80.056L9.421,80.056L9.611,80.056L9.808,80.056L10.324,80.056L10.396,80.056L10.599,80.056L10.789,80.056L10.985,80.056L11.377,80.056L11.574,80.056L11.774,80.056L11.967,80.056L12.163,80.056L12.555,80.056L12.752,80.056L12.952,80.056L13.144,80.056L13.34,80.056L13.733,80.056L13.929,80.056L14.133,80.056L14.322,80.056L14.518,80.056L14.911,80.056L15.107,80.056L15.31,80.056L15.499,80.056L15.696,80.056L16.088,20.056L16.285,20.056L16.488,20.056L16.592,20.056L16.677,20.056L16.874,20.056L17.266,20.056L17.462,20.056L17.666,20.056L17.855,20.056L18.051,20.056L18.443,20.056L18.64,20.056L18.843,20.056L19.032,20.056L19.229,20.056L19.621,20.056L19.818,20.056L20.017,20.056L20.21,20.056L20.406,20.056L20.799,20.056L20.995,20.056L21.195,20.056L21.388,20.056L21.584,20.056L21.977,20.056L22.173,20.056L22.377,20.056L22.565,20.056L22.762,20.056L23.154,20.056L23.35,20.056L23.554,20.056L23.743,20.056L23.939,20.056L24.332,20.056L24.528,20.056L24.732,20.056L24.921,20.056L25.117,20.056L25.509,20.056L25.706,20.056L25.91,20.056L26.098,20.056L26.295,20.056L26.687,20.056L26.884,20.056L27.086,20.056L27.276,20.056L27.472,20.056L27.865,20.056L28.061,20.056L28.261,20.056L28.454,20.056L28.65,20.056L29.042,20.056L29.239,20.056L29.439,20.056L29.632,20.056L29.827,20.056L30.22,20.056L30.417,20.056L30.62,20.056L30.809,20.056L31.005,20.056L31.398,20.056L31.594,20.056L31.798,20.056L31.987,20.056L32.183,20.056L32.576,40.056L32.772,40.056L32.975,40.056L33.164,40.056L33.361,40.056L33.753,40.056L33.949,40.056L34.153,40.056L34.342,40.056L34.931,40.056L35.127,40.056L35.33,40.056L35.52,40.056L35.716,40.056L36.108,40.056L36.305,40.056L36.505,40.056L36.697,40.056L36.893,40.056L37.286,40.056L37.483,40.056L37.683,40.056L37.875,40.056L38.071,40.056L38.464,90.056L38.66,90.056L38.864,90.056L39.053,90.056L39.249,90.056L39.642,40.056L39.838,40.056L40.042,40.056L40.231,40.056L40.427,40.056L40.819,40.056L41.016,40.056L41.22,40.056L41.408,40.056L41.605,40.056L41.997,40.056L42.193,40.056L42.398,40.056L42.586,40.056L42.782,40.056L43.175,40.056L43.371,40.056L43.575,40.056L43.764,40.056L43.96,40.056L44.352,40.056L44.549,40.056L44.749,40.056L44.941,40.056L45.138,40.056L45.53,40.056L45.726,40.056L46.119,40.056L46.315,40.056L46.708,40.056L46.904,40.056L47.109,40.056L47.297,40.056L47.493,40.056L47.885,90.056L48.082,90.056L48.286,90.056L48.474,90.056L48.67,90.056L49.063,90.056L49.26,90.056L49.463,90.056L49.652,90.056L49.848,90.056L50.24,90.056L50.437,90.056L50.641,90.056L50.83,90.056L51.026,90.056L51.418,90.056L51.615,90.056L51.818,90.056L52.007,90.056L52.203,90.056L52.596,40.056L52.792,40.056L52.993,40.056L53.185,40.056L53.381,40.056L53.774,40.056L53.97,40.056L54.17,40.056L54.362,40.056L54.559,40.056L54.951,100.056L55.148,100.056L55.352,100.056L55.54,100.056L55.737,100.056L56.129,100.056L56.325,100.056L56.529,100.056L56.718,100.056L56.914,100.056L57.307,100.056L57.503,100.056L57.707,100.056L57.895,100.056L58.092,100.056L58.484,100.056L58.68,100.056L58.884,100.056L59.073,100.056L59.269,100.056L59.662,100.056L59.859,100.056L60.062,100.056L60.251,100.056L60.447,100.056L60.839,100.056L61.036,100.056L61.236,100.056L61.428,100.056L61.624,100.056L62.017,100.056L62.213,100.056L62.414,100.056L62.606,100.056L62.802,100.056L63.195,100.056L63.391,100.056L63.595,100.056L63.784,100.056L63.98,100.056L64.372,40.056L64.569,40.056L64.772,40.056L64.961,40.056L65.157,40.056L65.55,40.056L65.746,40.056L65.949,40.056L66.139,40.056L66.335,40.056L66.728,40.056L66.924,40.056L67.127,40.056L67.317,40.056L67.513,40.056L67.905,40.056L68.102,40.056L68.304,40.056L68.494,40.056L68.691,40.056L69.083,40.056L69.28,40.056L69.479,40.056L69.672,40.056L69.868,40.056L70.261,40.056L70.457,40.056L70.658,40.056L70.85,40.056L71.046,40.056L71.439,40.056L71.635,40.056L71.837,40.056L72.028,40.056L72.224,40.056L72.616,40.056L72.812,40.056L73.015,40.056L73.205,40.056L73.401,40.056L73.794,40.056L73.99,40.056L74.193,40.056L74.382,40.056L74.579,40.056L74.972,40.056L75.168,40.056L75.37,40.056L75.56,40.056L75.756,40.056L76.149,40.056L76.345,40.056L76.549,40.056L76.738,40.056L76.934,40.056L77.327,40.056L77.523,40.056L77.724,40.056L77.916,40.056L78.112,40.056L78.504,40.056L78.701,40.056L78.901,40.056L79.093,40.056L79.29,40.056L79.682,40.056L79.878,40.056L80.083,40.056L80.271,40.056L80.467,40.056L80.86,40.056L81.056,40.056L81.259,40.056L81.449,40.056L81.645,40.056L82.037,40.056L82.234,40.056L82.437,40.056L82.626,40.056L82.822,40.056L83.215,40.056L83.411,40.056L83.614,40.056L83.804,40.056L84,40.056L84.393,40.056L84.589,40.056L84.792,40.056L84.982,40.056L85.178,40.056L85.57,40.056L85.767,40.056L85.967,40.056L86.355,40.056L86.748,40.056L86.944,40.056L87.145,40.056L87.337,40.056L87.533,40.056L87.926,40.056L88.122,40.056L88.325,40.056L88.515,40.056L89.103,40.056L89.3,40.056L89.503,40.056L89.692,40.056L89.888,40.056L90.281,40.056L90.477,40.056L90.681,40.056L90.87,40.056L91.066,40.056L91.459,120.056L91.655,120.056L91.859,120.056L92.047,120.056L92.244,120.056L92.636,120.056L92.833,120.056L93.036,120.056L93.225,120.056L93.421,120.056L93.814,40.056L94.01,40.056L94.212,40.056L94.403,40.056L94.599,40.056L94.992,40.056L95.188,40.056L95.389,40.056L95.581,40.056L95.777,40.056L96.169,50.056L96.366,50.056L96.57,70.056L96.758,70.056L96.954,70.056L97.347,70.056L97.543,70.056L97.748,70.056L97.936,70.056L98.132,70.056L98.525,70.056L98.721,70.056L98.925,70.056L99.114,70.056L99.31,70.056L99.702,120.056L99.899,120.056L100.102,120.056L100.291,120.056L100.488,120.056L100.88,120.056L101.076,120.056L101.279,120.056L101.469,120.056L101.665,120.056L102.058,120.056L102.254,120.056L102.455,120.056L102.647,120.056L102.843,120.056L103.235,120.056L103.432,120.056L103.633,120.056L103.824,120.056L104.02,120.056L104.413,40.056L104.609,40.056L104.814,40.056L105.002,40.056L105.198,40.056L105.591,40.056L105.787,40.056L105.99,40.056L106.18,40.056L106.376,40.056L106.768,40.056L106.965,40.056L107.168,40.056L107.357,40.056L107.553,40.056L107.946,40.056L108.142,40.056L108.346,40.056L108.535,40.056L108.731,40.056L109.124,40.056L109.32,40.056L109.523,40.056L109.712,40.056L109.909,40.056L110.302,40.056L110.498,40.056L110.698,40.056L110.89,40.056L111.086,40.056L111.479,40.056L111.675,40.056L111.877,40.056L112.068,40.056L112.264,40.056L112.656,40.056L112.853,40.056L113.056,40.056L113.246,40.056L113.442,40.056L113.834,100.056L114.031,100.056L114.234,100.056L114.423,100.056L114.62,100.056L115.012,100.056L115.208,100.056L115.412,100.056L115.601,100.056L115.797,100.056L116.19,100.056L116.386,100.056L116.59,100.056L116.778,100.056L116.975,100.056L117.367,100.056L117.564,100.056L117.766,100.056L117.956,100.056L118.152,100.056L118.545,100.056L118.741,100.056L118.942,100.056L119.134,100.056L119.33,100.056L119.723,100.056L119.919,100.056L120.12,100.056L120.311,100.056L120.508,100.056L120.9,100.056L121.097,100.056L121.301,100.056L121.489,100.056L121.686,100.056L122.078,100.056L122.274,100.056L122.478,100.056L122.667,100.056L122.863,100.056L123.256,100.056L123.452,100.056L123.656,100.056L123.844,100.056L124.041,100.056L124.433,100.056L124.63,100.056L124.833,100.056L125.022,100.056L125.218,100.056L125.611,100.056L125.807,100.056L126.01,100.056L126.2,100.056L126.396,100.056L126.789,100.056L126.985,100.056L127.186,100.056L127.377,100.056L127.574,100.056L127.966,90.056L128.163,90.056L128.364,90.056L128.555,90.056L128.751,90.056L129.144,90.056L129.34,90.056L129.544,90.056L129.733,90.056L129.929,90.056L130.322,90.056L130.518,90.056L130.721,90.056L130.911,90.056L131.107,90.056L131.499,90.056L131.696,90.056L131.893,90.056L132.088,90.056L132.284,90.056L132.677,60.056L132.873,60.056L133.266,60.056L133.462,60.056L133.855,60.056L134.051,60.056L134.253,60.056L134.443,60.056L134.64,60.056L135.032,60.056L135.228,60.056L135.429,60.056L135.621,60.056L135.817,60.056L136.21,60.056L136.406,60.056L136.607,60.056L136.799,60.056L136.995,60.056L137.387,60.056L137.584,60.056L137.786,60.056L137.977,60.056L138.173,60.056L138.565,60.056L138.761,60.056L138.963,60.056L139.154,60.056L139.35,60.056L139.743,60.056L139.939,60.056L140.141,60.056L140.332,60.056L140.528,60.056L140.921,60.056L141.117,60.056L141.318,60.056L141.51,60.056L141.706,60.056L142.098,60.056L142.294,60.056L142.497,60.056L142.687,60.056L142.883,60.056L143.276,60.056L143.472,60.056L143.673,60.056L143.865,60.056L144.061,60.056L144.454,60.056L144.65,60.056L144.851,60.056L145.042,60.056L145.239,60.056L145.631,60.056L145.827,60.056L146.029,60.056L146.22,60.056L146.416,60.056L146.809,60.056L147.005,60.056L147.207,60.056L147.398,60.056L147.594,60.056L147.987,90.056L148.183,90.056L148.386,90.056L148.575,90.056L148.772,90.056L149.164,90.056L149.361,90.056L149.563,90.056L149.753,90.056L149.949,90.056L150.342,90.056L150.538,90.056L150.741,90.056L150.931,90.056L151.127,90.056L151.52,100.056L151.716,100.056L151.918,100.056L152.108,100.056L152.305,100.056L152.697,90.056L152.894,90.056L153.095,90.056L153.286,90.056L153.482,90.056L153.875,100.056L154.071,100.056L154.274,100.056L154.464,100.056L154.66,100.056L155.052,100.056L155.249,100.056L155.456,100.056L155.641,100.056L155.838,100.056L156.23,100.056L156.426,100.056L156.63,100.056L156.819,100.056L157.015,100.056L157.408,90.056L157.604,90.056L157.807,90.056L157.997,90.056L158.193,90.056L158.586,90.056L158.782,90.056L158.985,90.056L159.174,90.056L159.371,90.056L159.763,90.056L159.959,90.056L160.161,90.056L160.352,90.056L160.548,90.056L160.941,100.056L161.137,100.056L161.338,100.056L161.53,100.056L161.726,100.056L162.119,90.056L162.315,90.056L162.518,90.056L162.707,90.056L162.904,90.056L163.296,100.056L163.492,100.056L163.696,100.056L163.885,100.056L164.081,100.056L164.474,100.056L164.67,100.056L164.874,100.056L165.063,100.056L165.259,100.056L165.651,100.056L165.848,100.056L166.051,100.056L166.241,100.056L166.437,100.056L166.829,100.056L167.025,100.056L167.229,100.056L167.418,100.056L167.614,100.056L168.007,100.056L168.203,100.056L168.404,100.056L168.596,100.056L168.792,100.056L169.381,100.056L169.583,100.056L169.773,100.056L169.97,100.056L170.362,100.056L170.559,100.056L170.763,100.056L170.951,100.056L171.147,100.056L171.54,130.056L171.736,130.056L171.94,130.056L172.128,130.056L172.325,130.056L172.718,130.056L172.914,130.056L173.118,130.056L173.306,130.056L173.503,130.056L173.895,130.056L174.091,130.056L174.295,130.056L174.484,130.056L174.68,130.056L175.073,130.056L175.269,130.056L175.47,130.056L175.662,130.056L175.858,130.056L176.25,130.056L176.447,130.056L176.645,130.056L176.839,130.056L177.036,130.056L177.428,130.056L177.624,130.056L177.823,130.056L178.017,130.056L178.213,130.056L178.606,60.056L178.802,60.056L179.002,60.056L179.195,60.056L179.391,60.056L179.783,60.056L179.98,60.056L180.18,60.056L180.372,80.056L180.569,80.056L180.961,80.056L181.157,80.056L181.357,100.056L181.55,100.056L181.746,100.056L182.139,60.056L182.335,60.056L182.536,60.056L182.728,60.056L182.924,60.056L183.316,60.056L183.513,60.056L183.713,60.056L183.905,60.056L184.102,60.056L184.494,60.056L184.69,60.056L184.889,60.056L185.083,60.056L185.279,60.056L185.672,60.056L185.868,60.056L186.067,60.056L186.261,60.056L186.457,60.056L186.85,60.056L187.046,60.056L187.246,60.056L187.438,60.056L187.635,60.056L188.027,60.056L188.224,60.056L188.423,60.056L188.616,60.056L188.812,60.056L189.205,60.056L189.401,60.056L189.601,60.056L189.793,60.056L189.99,60.056L190.382,60.056L190.579,60.056L190.778,60.056L190.971,60.056L191.168,60.056L191.56,60.056L191.757,60.056L191.956,60.056L192.149,60.056L192.345,60.056L192.738,60.056L192.934,60.056L193.133,60.056L193.327,60.056L193.523,60.056L193.915,60.056L194.112,60.056L194.31,60.056L194.504,60.056L194.7,60.056L195.093,60.056L195.289,60.056L195.49,60.056L195.682,60.056L195.878,60.056L196.271,60.056L196.467,60.056L196.667,60.056L196.86,60.056L197.056,60.056L197.448,60.056L197.645,60.056L197.845,60.056L198.037,60.056L198.234,60.056L198.626,60.056L198.822,60.056L199.022,60.056L199.215,60.056L199.411,60.056L199.804,60.056L200,60.056" stroke="#e45756" stroke-width="2"/></g></g><path class="foreground" aria-hidden="true" d="" display="none"/></g><g transform="translate(0,0)"><path class="background" aria-hidden="true" d="M0,0h200v200h-200Z"/><g><g class="mark-line role-mark child_marks" role="graphics-object" aria-roledescription="line mark container"><path aria-label="Time: Aug 30, 2023; Price: 5495; item: COVERO_PONCHO_II_-_Cape_-_lightgrey" role="graphics-symbol" aria-roledescription="line mark" d="M0,138.944L0.191,138.944L0.387,138.944L0.779,138.944L0.975,138.944L1.178,138.944L1.368,138.944L1.564,138.944L1.957,138.944L2.153,138.944L3.33,138.944L3.531,138.944L3.723,138.944L3.919,138.944L4.312,138.944L4.649,138.944L4.709,138.944L4.901,138.944L5.097,138.944L5.49,138.944L5.686,138.944L5.889,138.944L6.078,138.944L6.274,138.944L6.668,138.944L6.865,138.944L7.066,138.944L7.256,138.944L7.452,138.944L10.789,153.944L12.752,138.944L12.952,138.944L13.144,138.944L13.34,138.944L13.733,138.944L13.929,138.944L14.133,138.944L14.322,138.944L14.518,138.944L14.911,138.944L15.107,138.944L15.31,138.944L15.499,138.944L15.696,138.944L16.088,138.944L16.285,138.944L16.488,138.944L16.592,138.944L16.677,138.944L16.874,138.944L17.266,138.944L17.462,138.944L17.666,138.944L17.855,138.944L18.051,138.944L18.443,138.944L18.64,138.944L18.843,138.944L19.032,138.944L19.229,138.944L19.621,138.944L19.818,138.944L20.017,138.944L20.21,138.944L20.406,138.944L20.799,138.944L20.995,138.944L21.195,138.944L21.388,138.944L21.584,138.944L21.977,138.944L22.173,138.944L22.377,138.944L22.566,138.944L22.762,138.944L23.154,138.944L23.35,138.944L23.554,138.944L23.743,138.944L23.939,138.944L24.332,151.167L24.528,151.167L24.732,151.167L24.921,151.167L25.117,151.167L25.509,151.167L25.706,151.167L25.91,151.167L26.098,151.167L26.295,151.167L26.687,151.167L26.884,151.167L27.086,151.167L28.061,151.167L28.261,151.167L28.454,151.167L28.65,151.167L29.042,151.167L29.239,151.167L29.439,151.167L29.632,151.167L29.827,151.167L30.22,151.167L30.417,151.167L30.62,151.167L30.809,151.167L31.005,151.167L31.398,151.167L31.594,151.167L31.798,151.167L31.987,151.167L32.183,151.167L32.576,151.167L32.772,151.167L32.975,151.167L33.164,151.167L33.361,151.167L33.753,151.167L33.949,151.167L34.153,151.167L34.342,151.167L34.931,151.167L35.127,151.167L35.33,151.167L35.52,151.167L35.716,151.167L36.108,151.167L36.305,151.167L36.505,151.167L36.697,151.167L36.893,151.167L37.286,151.167L37.483,151.167L37.683,151.167L37.875,151.167L38.071,151.167L38.464,151.167L38.66,151.167L38.864,151.167L39.053,151.167L39.249,151.167L39.642,151.167L39.838,151.167L40.042,151.167L40.231,151.167L40.427,151.167L40.819,151.167L41.016,151.167L41.22,151.167L41.408,151.167L41.605,151.167L41.997,151.167L42.193,151.167L42.398,151.167L42.586,151.167L42.782,151.167L43.175,151.167L43.371,151.167L43.575,151.167L43.764,151.167L43.96,151.167L44.549,151.167L44.749,151.167L45.53,151.167L45.726,151.167L46.119,151.167L46.315,151.167L47.297,151.167L47.493,151.167L47.885,151.167L48.082,151.167L48.286,151.167L48.67,151.167L49.063,138.944L49.26,138.944L49.463,138.944L49.652,138.944L49.848,138.944L52.007,138.944L53.185,153.944L55.737,153.944L56.129,153.944L56.718,153.944L57.307,153.944L57.895,153.944L58.092,153.944L58.68,153.944L60.251,153.944L60.447,153.944L60.839,153.944L62.414,153.944L62.606,153.944L62.802,153.944L63.195,153.944L63.784,153.944L63.98,153.944L64.372,153.944L64.569,153.944L64.772,153.944L65.157,153.944L65.746,153.944L65.949,153.944L66.139,153.944L66.728,153.944L66.924,153.944L67.317,153.944L68.494,153.944L68.691,153.944L69.083,153.944L69.479,153.944L69.672,153.944L69.868,153.944L70.457,153.944L70.658,153.944L70.85,153.944L71.439,153.944L71.635,153.944L71.837,153.944L72.028,153.944L72.224,153.944L72.616,153.944L72.812,153.944L73.015,153.944L73.205,153.944L73.401,153.944L73.794,153.944L75.168,153.944L75.37,153.944L75.56,153.944L75.756,153.944L76.345,153.944L76.549,153.944L76.738,153.944L76.934,153.944L77.327,145.611L77.523,145.611L81.645,145.611L82.037,145.611L82.234,145.611L82.437,145.611L82.626,145.611L82.822,145.611L83.411,145.611L83.614,145.611L83.804,145.611L84,145.611L84.393,145.611L84.792,145.611L85.178,145.611L85.767,145.611L85.967,145.611L86.355,145.611L86.748,145.611L86.944,145.611L87.145,145.611L87.337,145.611L87.533,145.611L87.926,138.944L88.325,138.944L89.103,138.944L89.3,138.944L89.503,138.944L89.692,138.944L89.888,138.944L90.281,138.944L90.477,138.944L90.681,138.944L90.87,138.944L91.066,138.944L91.655,153.944L91.859,153.944L92.047,153.944L92.244,153.944L92.636,153.944L93.225,153.944L93.421,153.944L93.814,153.944L94.01,153.944L94.212,153.944L94.403,160.056L96.366,138.944L96.57,138.944L96.758,138.944L96.954,138.944L97.347,138.944L97.543,138.944L97.748,138.944L97.936,138.944L98.132,138.944L98.525,138.944L98.721,138.944L98.925,138.944L99.114,138.944L99.31,138.944L99.899,163.389L109.523,138.944L110.302,138.944L110.89,138.944L111.675,138.944L112.853,138.944L113.056,138.944L113.246,138.944L113.442,138.944L113.834,138.944L115.208,138.944L116.19,138.944L117.956,138.944L118.741,138.944L118.942,138.944L119.134,138.944L119.33,138.944L119.723,138.944L120.12,138.944L121.097,138.944L121.301,138.944L121.489,138.944L121.686,138.944L122.478,138.944L123.256,138.944L124.833,138.944L125.807,138.944L126.2,138.944L126.396,138.944L126.789,138.944L127.377,138.944L127.574,138.944L127.966,138.944" stroke="#f58518" stroke-width="2"/></g></g><path class="foreground" aria-hidden="true" d="" display="none"/></g><g transform="translate(0,0)"><path class="background" aria-hidden="true" d="M0,0h200v200h-200Z"/><g><g class="mark-line role-mark child_marks" role="graphics-object" aria-roledescription="line mark container"><path aria-label="Time: Sep 01, 2023; Price: 12995; item: KUURA_3L_PONCHO_UNISEX_-_Veste_imperméable_-_green" role="graphics-symbol" aria-roledescription="line mark" d="M2.742,55.611L3.134,55.611L3.33,55.611L3.531,55.611L5.686,55.611L5.889,55.611L6.078,55.611L6.274,55.611L6.668,11.167L6.865,11.167L7.066,11.167L7.256,11.167L7.452,11.167L7.845,11.167L8.041,11.167L8.245,11.167L8.434,11.167L8.63,11.167L9.023,11.167L9.219,11.167L9.421,11.167L9.612,11.167L9.808,11.167L10.324,11.167L10.396,11.167L10.599,11.167L10.789,11.167L10.985,11.167L11.377,11.167L11.574,11.167L11.774,11.167L11.967,11.167L12.163,11.167L12.555,11.167L12.752,11.167L12.952,11.167L13.144,11.167L13.34,11.167L13.733,11.167L13.929,11.167L14.133,11.167L14.322,11.167L14.911,11.167L15.107,11.167L15.31,11.167L15.499,11.167L15.696,11.167L20.017,22.278L20.21,22.278L20.406,22.278L20.799,22.278L20.995,22.278L21.195,22.278L21.388,22.278L21.584,22.278L21.977,22.278L22.173,22.278L22.377,22.278L23.35,22.278L23.554,22.278L23.743,22.278L23.939,22.278L24.332,22.278L24.528,22.278L40.231,22.278L40.427,22.278L40.819,22.278L41.016,22.278L41.22,22.278L41.408,22.278L41.605,22.278L41.997,22.278L42.193,22.278L42.398,22.278L42.586,22.278L42.782,22.278L43.175,22.278L43.371,22.278L43.575,22.278L43.764,22.278L43.96,22.278L44.352,22.278L44.549,22.278L44.749,22.278L44.941,22.278L45.138,22.278L63.195,22.278L63.391,22.278L63.595,22.278L63.784,22.278L63.98,22.278L64.372,22.278L64.569,22.278L64.772,22.278L64.961,22.278" stroke="#4c78a8" stroke-width="2"/></g></g><path class="foreground" aria-hidden="true" d="" display="none"/></g><g transform="translate(0,0)"><path class="background" aria-hidden="true" d="M0,0h200v200h-200Z"/><g><g class="mark-line role-mark child_marks" role="graphics-object" aria-roledescription="line mark container"><path aria-label="Time: Sep 14, 2023; Price: 6495; item: PARIS_ST._GERMAIN_CITY_MADE_PONCHO_-_Veste_de_survêtement_-_aura_white" role="graphics-symbol" aria-roledescription="line mark" d="M17.266,127.833L17.462,127.833L17.666,127.833L17.855,127.833L18.051,127.833L18.443,127.833L18.64,127.833L19.621,127.833L20.995,127.833L21.195,127.833L21.388,127.833L21.584,127.833L21.977,127.833L22.173,127.833L22.377,127.833L22.566,127.833L22.762,127.833L23.154,127.833L23.35,127.833L23.554,127.833L23.743,127.833L23.939,127.833L24.332,127.833L24.528,127.833L24.732,127.833L24.921,127.833L25.117,127.833L25.509,127.833L25.706,127.833L25.91,127.833L26.098,127.833L26.295,127.833L26.687,127.833L26.884,127.833L27.086,127.833L27.276,127.833L27.472,127.833L27.865,127.833L28.061,127.833L28.261,127.833L28.454,127.833L28.65,127.833L29.042,127.833L29.239,127.833L29.439,127.833L29.632,127.833L29.827,127.833L30.22,127.833L30.417,127.833L30.62,127.833L30.809,127.833L31.005,127.833L31.398,127.833L31.594,127.833L31.798,127.833" stroke="#bab0ac" stroke-width="2"/></g></g><path class="foreground" aria-hidden="true" d="" display="none"/></g><g transform="translate(0,0)"><path class="background" aria-hidden="true" d="M0,0h200v200h-200Z"/><g><g class="mark-line role-mark child_marks" role="graphics-object" aria-roledescription="line mark container"><path aria-label="Time: Sep 18, 2023; Price: 8995; item: HIKING_BACKPACK_PONCHO_-_Veste_imperméable_-_indian_red" role="graphics-symbol" aria-roledescription="line mark" d="M21.977,100.056L22.173,100.056L22.377,100.056L22.566,100.056L22.762,100.056L23.154,100.056L23.35,100.056L30.809,100.056L31.005,100.056L31.398,100.056L31.594,100.056L31.798,100.056L31.987,100.056L32.183,100.056L32.576,111.167L32.772,111.167L32.975,111.167L33.164,111.167L51.818,111.167L52.007,111.167L52.203,111.167L52.596,111.167L52.792,111.167L52.993,111.167L53.185,111.167L53.381,111.167L53.774,111.167L131.893,122.278L132.088,122.278L132.284,122.278L132.677,111.167L132.873,111.167" stroke="#ff9da6" stroke-width="2"/></g></g><path class="foreground" aria-hidden="true" d="" display="none"/></g><g transform="translate(0,0)"><path class="background" aria-hidden="true" d="M0,0h200v200h-200Z"/><g><g class="mark-line role-mark child_marks" role="graphics-object" aria-roledescription="line mark container"><path aria-label="Time: Sep 26, 2023; Price: 6495; item: PSG_M_NSW_CITY_MADE_PONCHO_-_Veste_de_survêtement_-_aura_white" role="graphics-symbol" aria-roledescription="line mark" d="M31.987,127.833L32.183,127.833L32.576,91.167L32.772,91.167L32.975,91.167L33.164,91.167L33.361,91.167L33.753,91.167L33.949,91.167L34.153,91.167L34.342,91.167L34.931,91.167L35.127,91.167L35.33,91.167L35.52,91.167L35.716,91.167L36.108,91.167L36.305,91.167L36.505,91.167L36.697,91.167L36.893,91.167L37.286,91.167L37.483,91.167L37.683,91.167L37.875,91.167L38.071,91.167L38.464,127.833L38.66,127.833L38.864,127.833L39.053,127.833L39.249,127.833L39.642,127.833L39.838,127.833L40.042,127.833L40.231,127.833L40.427,127.833L40.819,127.833L41.016,127.833L41.22,127.833L41.408,127.833L41.605,127.833L41.997,127.833L42.193,127.833L42.398,127.833L42.586,127.833L42.782,127.833L43.175,127.833L43.371,127.833L43.575,127.833L43.764,127.833L43.96,127.833L44.352,127.833L44.549,127.833L44.749,127.833L44.941,127.833L45.138,127.833L45.53,127.833L45.726,127.833L46.119,127.833L46.315,127.833L46.708,127.833L46.904,127.833L47.109,127.833L47.297,127.833L47.493,127.833L47.885,84.5L48.082,84.5L48.286,84.5L48.67,84.5L49.063,84.5L49.26,84.5L49.463,84.5L49.652,84.5L49.848,84.5L50.24,84.5L50.437,84.5L51.418,84.5L52.007,84.5L53.185,127.833L53.774,127.833L55.148,127.833L55.352,127.833L62.802,127.833L63.195,127.833L63.391,127.833L63.595,127.833L64.569,127.833L64.772,127.833L66.139,127.833L66.335,127.833L67.127,127.833L67.513,127.833L67.905,127.833L68.304,127.833L69.28,127.833L69.868,127.833L70.261,127.833L70.457,127.833L70.658,127.833L71.046,127.833L71.635,127.833L72.224,127.833L72.616,127.833L72.812,127.833L73.015,127.833L73.205,127.833L73.401,127.833L73.794,127.833L73.99,127.833L74.193,127.833L74.382,127.833L74.579,127.833L74.972,127.833L75.168,127.833L75.37,127.833L75.56,127.833L75.756,127.833L76.149,127.833L76.345,127.833L76.549,127.833L76.738,127.833L76.934,127.833L77.327,127.833L77.523,127.833L77.724,127.833L77.916,127.833L78.112,127.833L78.504,127.833L78.701,127.833L78.901,127.833L79.093,127.833L79.29,127.833L79.682,127.833L79.878,127.833L80.083,127.833L80.271,127.833L80.467,127.833L80.86,127.833L81.056,127.833L81.259,127.833L81.449,127.833L81.645,127.833L82.037,127.833L82.437,127.833L82.626,127.833L82.822,127.833L83.614,127.833L83.804,127.833L84.393,84.5L84.792,84.5L85.178,84.5L86.355,84.5L87.533,84.5L88.325,127.833L89.103,127.833L89.3,127.833L89.503,127.833L89.888,127.833L90.281,127.833L90.477,127.833L90.681,127.833L90.87,127.833L91.655,156.722L94.01,127.833L94.212,127.833L94.992,127.833L96.954,105.611L97.347,105.611L98.925,105.611L99.114,105.611L99.899,148.944L102.843,148.944L103.235,148.944L105.198,120.056L105.591,127.833L106.376,127.833L107.168,127.833L108.346,127.833L108.731,127.833L109.523,91.167L110.302,91.167L110.89,91.167L111.675,127.833L113.056,91.167L115.208,127.833L117.956,127.833L118.942,127.833L119.33,127.833L120.12,127.833L121.097,127.833L121.301,127.833L121.489,127.833L121.686,127.833L122.078,127.833L122.274,127.833L122.478,127.833L122.667,127.833L122.863,127.833L123.256,127.833L125.807,127.833L126.2,127.833L126.396,127.833L126.789,127.833L127.377,127.833L128.163,120.056L128.364,120.056L128.555,120.056L128.751,120.056L129.144,120.056L129.544,120.056L129.929,120.056L130.322,120.056L130.518,120.056L130.721,120.056L130.911,120.056L131.107,120.056L131.499,120.056L131.696,120.056L131.893,120.056L132.088,120.056L132.284,120.056L132.677,98.944L133.266,98.944L133.855,98.944L134.051,98.944L134.253,98.944L134.443,98.944L134.64,98.944L135.032,98.944L135.228,98.944L135.429,98.944L135.621,98.944L135.817,98.944L136.21,98.944L136.406,98.944L136.607,98.944L136.799,98.944L136.995,98.944L137.387,98.944L137.584,98.944L137.786,98.944L137.977,98.944L138.173,98.944L138.565,98.944L138.761,98.944L139.154,98.944L139.35,98.944L139.743,98.944L139.939,98.944L140.141,98.944L140.528,98.944L141.117,98.944L141.318,98.944L141.51,98.944L142.098,98.944L142.687,98.944L143.276,98.944L143.472,98.944L143.673,98.944L144.061,98.944L144.454,98.944L144.851,98.944L145.042,98.944L145.239,98.944L145.631,98.944L145.827,98.944L146.029,98.944L146.22,98.944L146.416,98.944L146.809,98.944L147.398,98.944L147.987,120.056L148.183,120.056L148.575,120.056L148.772,120.056L149.164,120.056L149.563,120.056L149.753,120.056L149.949,120.056L150.538,120.056L150.741,120.056L150.931,120.056L151.127,120.056L151.52,120.056L151.716,120.056L151.918,120.056L152.108,120.056L152.305,120.056L152.697,120.056L152.894,120.056L153.095,120.056L153.286,120.056L153.482,120.056L153.875,120.056L154.274,120.056L154.66,120.056L155.052,120.056L155.838,120.056L156.426,120.056L157.604,120.056L157.807,120.056L157.997,120.056L158.193,120.056L158.586,120.056L158.782,120.056L158.985,120.056L159.174,120.056L159.371,120.056L159.763,120.056L159.96,120.056L160.161,120.056L160.352,120.056L160.548,120.056L160.941,120.056L161.726,120.056L162.518,98.944L162.904,98.944L164.081,98.944L164.874,98.944L165.848,98.944L166.051,98.944L166.241,98.944L166.437,98.944L166.829,98.944L167.025,98.944L167.229,98.944L167.418,98.944L167.614,98.944L168.007,98.944L168.203,98.944L168.404,98.944L168.596,98.944L168.792,98.944L169.381,98.944L169.583,98.944L169.773,98.944L169.97,98.944L170.362,98.944L170.559,98.944L170.763,98.944L170.951,98.944L171.147,98.944L171.54,98.944L171.736,98.944L171.94,98.944L172.128,98.944L172.325,98.944L172.718,98.944L172.914,98.944L173.118,98.944L173.306,98.944L173.503,98.944L173.895,98.944L174.091,98.944L174.295,98.944L174.484,98.944L174.68,98.944L175.073,98.944L175.269,98.944L175.47,98.944L175.662,98.944L175.858,98.944L176.25,98.944L176.447,98.944L176.645,98.944L176.839,98.944L177.036,98.944L177.428,98.944L177.624,98.944L177.823,98.944L178.017,98.944L178.213,98.944L178.606,98.944L178.802,98.944L179.002,98.944L179.195,98.944L179.391,98.944L179.783,98.944L179.98,98.944L180.18,98.944L180.372,98.944L180.569,98.944L180.961,98.944L181.157,98.944L181.357,98.944L181.55,98.944L181.746,98.944L182.139,98.944L182.335,98.944L182.536,98.944L182.728,98.944L182.924,98.944L183.316,98.944L183.513,98.944L183.713,98.944L183.906,98.944L184.102,98.944L184.494,98.944L184.69,98.944L184.889,98.944L190.778,98.944L190.971,98.944L191.168,98.944L191.56,98.944L191.757,98.944L191.956,98.944L192.149,98.944L192.345,98.944L192.738,98.944L192.934,98.944L193.133,98.944L193.327,98.944L193.523,98.944L193.915,98.944L194.112,98.944L194.31,98.944L194.504,98.944L194.7,98.944L195.093,98.944L195.289,98.944L195.49,98.944L195.682,98.944L195.878,98.944L196.271,98.944L196.467,98.944L196.667,98.944L196.86,98.944L197.056,98.944L197.448,98.944L197.645,98.944L197.845,98.944L198.037,98.944L198.234,98.944L198.626,98.944L198.822,98.944L199.022,98.944L199.215,98.944L199.411,98.944L199.804,98.944L200,98.944" stroke="#54a24b" stroke-width="2"/></g></g><path class="foreground" aria-hidden="true" d="" display="none"/></g><g transform="translate(0,0)"><path class="background" aria-hidden="true" d="M0,0h200v200h-200Z"/><g><g class="mark-line role-mark child_marks" role="graphics-object" aria-roledescription="line mark container"><path aria-label="Time: Oct 12, 2023; Price: 4995; item: SHOWERPROOF_PONCHO_UNISEX_-_Cape_-_classic_tartan" role="graphics-symbol" aria-roledescription="line mark" d="M50.24,144.5L50.437,144.5L50.641,144.5L50.83,144.5L51.026,144.5L51.418,144.5L51.615,144.5L51.818,144.5L52.007,144.5L52.203,144.5L52.596,144.5L52.792,144.5L52.993,144.5L53.185,144.5L53.381,144.5L53.774,144.5L53.97,144.5L54.17,144.5L54.362,144.5L54.559,144.5L54.951,152.611L55.148,152.611L55.352,152.611L55.54,152.611L55.737,152.611L56.129,152.611L56.325,152.611L56.529,152.611L56.718,152.611L56.914,152.611L57.307,152.611L57.503,152.611L57.707,152.611L57.895,152.611L58.092,152.611L58.484,152.611L58.68,152.611L58.884,152.611L59.073,152.611L59.269,152.611L59.662,152.611L59.859,152.611L60.062,152.611L60.251,152.611L60.447,152.611L60.839,152.611L61.036,152.611L61.236,152.611L61.428,152.611L61.624,152.611L62.017,144.5L62.213,144.5L62.414,144.5L62.606,144.5L62.802,144.5L63.195,144.5L63.391,144.5L63.595,144.5L63.784,144.5L63.98,144.5L64.372,152.611L64.569,152.611L64.772,152.611L64.961,152.611L65.157,152.611L65.55,152.611L65.746,152.611L65.949,152.611L66.139,152.611L66.335,152.611L66.728,152.611L66.924,152.611L67.127,152.611L67.317,152.611L67.513,152.611L67.905,152.611L68.102,152.611L68.304,152.611L68.494,152.611L68.691,152.611L69.083,152.611L69.28,152.611L69.479,152.611L69.672,152.611L69.868,152.611L70.261,152.611L70.457,152.611L70.658,152.611L70.85,152.611L71.046,152.611L71.439,144.5L71.635,144.5L71.837,144.5L72.028,144.5L72.224,144.5L72.616,144.5L72.812,144.5L73.015,144.5L73.205,144.5L73.401,144.5L73.794,152.611L73.99,152.611L74.193,152.611L74.382,152.611L74.579,152.611L74.972,152.611L75.168,152.611L75.37,152.611L75.56,152.611L75.756,152.611L76.149,152.611L76.345,152.611L76.549,152.611L76.738,152.611L76.934,152.611L77.327,152.611L77.523,152.611L77.724,152.611L77.916,152.611L78.112,152.611L78.504,152.611L78.701,152.611L78.901,152.611L79.093,152.611L79.29,152.611L79.682,152.611L79.878,152.611L80.083,152.611L80.271,152.611L80.467,152.611L80.86,150.056L81.056,144.5L81.259,144.5L81.449,144.5L81.645,144.5L82.037,144.5L82.234,144.5L82.437,144.5L82.626,144.5L82.822,144.5L83.215,144.5L83.411,144.5L83.614,144.5L83.804,144.5L84,144.5L84.393,144.5L84.589,144.5L84.792,144.5L84.982,144.5L85.178,144.5L85.57,144.5L85.767,144.5L85.967,144.5L86.355,144.5L86.748,144.5L86.944,144.5L87.145,144.5L87.337,144.5L87.533,144.5L87.926,144.5L88.122,144.5L88.325,144.5L88.515,144.5L89.103,144.5L89.3,144.5L89.503,144.5L89.692,144.5L89.888,144.5L90.281,144.5L90.477,144.5L90.681,144.5L90.87,144.5L91.066,144.5L91.459,144.5L91.655,144.5L91.859,144.5L92.047,144.5L92.244,144.5L92.636,144.5L92.833,144.5L93.036,144.5L93.225,144.5L93.421,144.5L93.814,144.5L94.01,144.5L94.212,144.5L94.403,144.5L94.599,144.5L94.992,144.5L95.188,144.5L95.389,144.5L95.581,144.5L95.777,144.5L96.169,144.5L96.366,144.5L96.57,144.5L96.758,144.5L96.954,144.5L97.347,144.5L97.543,144.5L97.748,144.5L97.936,144.5L98.132,144.5L98.525,144.5L98.721,144.5L98.925,144.5L99.114,144.5L99.31,144.5L113.246,144.5L113.442,144.5L113.834,144.5L114.031,144.5L114.234,144.5L114.423,144.5L114.62,144.5L115.012,144.5L115.208,144.5L115.412,144.5L115.601,144.5L115.797,144.5L116.19,144.5L116.386,144.5L116.59,144.5L116.778,144.5L116.975,144.5L117.367,144.5L117.564,144.5L117.766,144.5L117.956,144.5L118.152,144.5L118.545,144.5L118.741,144.5L118.942,144.5L119.134,144.5L119.33,144.5L119.723,144.5L119.919,144.5L120.12,144.5L120.311,144.5L120.508,144.5L120.9,144.5L121.097,144.5L121.301,144.5L121.489,144.5L121.686,144.5L122.078,144.5L122.274,144.5L122.478,144.5L122.667,144.5L122.863,144.5L123.256,144.5L123.452,144.5L123.656,144.5L123.844,144.5L124.041,144.5L124.433,144.5L124.63,144.5L124.833,144.5L125.022,144.5L125.218,144.5L125.611,144.5L125.807,144.5L126.01,144.5L126.2,144.5L126.396,144.5L126.789,144.5L126.985,144.5L127.186,144.5L127.377,144.5L127.574,144.5L127.966,144.5L128.163,144.5L128.364,144.5L128.555,144.5L128.751,144.5L129.144,144.5L129.34,144.5L129.544,144.5L129.733,144.5L129.929,144.5L130.322,158.167L130.518,158.167L130.721,158.167L130.911,158.167L131.107,158.167L131.499,158.167L131.696,158.167L131.893,158.167L132.088,158.167L132.284,158.167L132.677,144.5L132.873,144.5L133.266,144.5L133.462,144.5L133.855,144.5L134.051,144.5L134.253,144.5L134.443,144.5L134.64,144.5L135.032,144.5L135.228,144.5L135.429,144.5L135.621,144.5L135.817,144.5L136.21,144.5L136.406,144.5L136.607,144.5L136.799,144.5L136.995,144.5L137.387,144.5L137.584,144.5L137.786,144.5L137.977,144.5L138.173,144.5L138.565,144.5L138.761,144.5L138.963,144.5L139.154,144.5L139.35,144.5L139.743,144.5L139.939,144.5L140.141,144.5L140.332,144.5L140.528,144.5L140.921,144.5L141.117,144.5L141.318,144.5L141.51,144.5L141.706,144.5L142.098,144.5L142.294,144.5L142.497,144.5L142.687,144.5L142.883,144.5L143.276,144.5L143.472,144.5L143.673,144.5L143.865,144.5L144.061,144.5L144.454,144.5L144.65,144.5L144.851,144.5L145.042,144.5L145.239,144.5L145.631,144.5L145.827,144.5L146.029,144.5L146.22,144.5L146.416,144.5L146.809,144.5L147.005,144.5L147.207,144.5L147.398,144.5L147.594,144.5L147.987,144.5L148.183,144.5L148.386,144.5L148.575,144.5L148.772,144.5L149.164,144.5L149.361,144.5L149.563,144.5L149.753,144.5L149.949,144.5L150.342,144.5L150.538,144.5L150.741,144.5L150.931,144.5L151.127,144.5L151.52,144.5L151.716,144.5L151.918,144.5L152.108,144.5L152.305,144.5L152.697,144.5L152.894,144.5L153.095,144.5L153.286,144.5L153.482,144.5L153.875,144.5L154.071,144.5L154.274,144.5L154.464,144.5L154.66,144.5L155.052,152.611L155.249,152.611L155.456,152.611L155.641,152.611L155.838,152.611L156.23,152.611L156.426,152.611L156.63,152.611L156.819,152.611L157.015,152.611L157.408,158.167L157.604,158.167L157.807,158.167L157.997,158.167L158.193,158.167L158.586,158.167L158.782,158.167L158.985,158.167L159.174,158.167L159.371,158.167L159.763,158.167L159.959,158.167L160.161,158.167L160.352,158.167L160.548,158.167L160.941,144.5L161.137,144.5L161.338,144.5L161.53,144.5L161.726,144.5L162.119,158.167L162.315,158.167L162.518,158.167L162.707,158.167L162.904,158.167L163.296,150.056L163.492,150.056L163.696,150.056L163.885,150.056L164.081,150.056L164.474,144.5L164.67,144.5L164.874,144.5L165.063,144.5L165.259,144.5L165.651,150.056L165.848,150.056L166.051,150.056L166.241,150.056L166.437,150.056L166.829,161.167L167.025,161.167L167.229,161.167L167.418,161.167L167.614,161.167L168.007,161.167L168.203,161.167L168.404,161.167L168.596,161.167L168.792,161.167L169.381,144.5L169.583,144.5L169.773,144.5L169.97,144.5L170.362,161.167L170.559,161.167L170.763,161.167L170.951,161.167L171.147,161.167L171.54,150.056L171.736,150.056L171.94,150.056L172.128,150.056L172.325,150.056L172.718,144.5L172.914,144.5L173.118,144.5L173.306,144.5L173.503,144.5L173.895,150.056L174.091,150.056L174.295,150.056L174.484,150.056L174.68,150.056L175.073,150.056L175.269,150.056L175.47,150.056L175.662,150.056L175.858,150.056L176.25,144.5L176.447,144.5L176.645,144.5L176.839,144.5L177.036,144.5L177.428,144.5L177.624,144.5L177.823,144.5L178.017,144.5L178.213,144.5L178.606,144.5L178.802,144.5L179.002,144.5L179.195,144.5L179.391,144.5L179.783,144.5L179.98,144.5L180.18,144.5L180.372,144.5L180.569,144.5L180.961,144.5L181.157,144.5L181.357,144.5L181.55,144.5L181.746,144.5L182.139,152.611L182.335,152.611L182.536,152.611L182.728,152.611L182.924,152.611L183.316,152.611L183.513,152.611L183.713,152.611L183.906,152.611L184.102,152.611L184.494,152.611L184.69,152.611L184.889,152.611L185.083,152.611L185.279,152.611L185.672,133.389L185.868,133.389L186.067,133.389L186.261,133.389L186.457,133.389L186.85,133.389L187.046,133.389L187.246,133.389L187.438,133.389L187.635,133.389L188.027,133.389L188.224,133.389L188.423,133.389L188.616,133.389L188.812,133.389L189.205,150.056L189.401,150.056L189.601,150.056L189.793,150.056L189.99,150.056L190.382,133.389L190.579,133.389L190.778,133.389L190.971,133.389L191.168,133.389L191.56,133.389L191.757,133.389L191.956,133.389L192.149,133.389L192.345,133.389L192.738,133.389L192.934,133.389L193.133,133.389L193.327,133.389L193.523,133.389L193.915,133.389L194.112,133.389L194.31,133.389L194.504,133.389L194.7,133.389L195.093,133.389L195.289,133.389L195.49,133.389L195.682,133.389L195.878,133.389L196.271,133.389L196.467,133.389L196.667,133.389L196.86,133.389L197.056,133.389L197.448,146.722L197.645,146.722L197.845,146.722L198.037,146.722L198.234,146.722L198.626,133.389L198.822,133.389L199.022,133.389L199.215,133.389L199.411,133.389L199.804,133.389L200,133.389" stroke="#4c78a8" stroke-width="2"/></g></g><path class="foreground" aria-hidden="true" d="" display="none"/></g><g transform="translate(0,0)"><path class="background" aria-hidden="true" d="M0,0h200v200h-200Z"/><g><g class="mark-line role-mark child_marks" role="graphics-object" aria-roledescription="line mark container"><path aria-label="Time: Oct 12, 2023; Price: 13995; item: PONCHO_-_Cape_-_lucid_blue" role="graphics-symbol" aria-roledescription="line mark" d="M50.24,44.5L51.615,44.5L52.007,44.5L52.596,91.167L53.185,91.167L53.97,91.167L54.17,91.167L54.362,91.167L54.559,91.167L54.951,91.167L55.148,91.167L55.352,91.167L55.54,91.167L55.737,91.167L56.129,91.167L56.325,91.167L56.529,91.167L56.718,91.167L56.914,91.167L57.307,91.167L57.503,91.167L57.707,91.167L57.895,91.167L58.092,91.167L58.484,91.167L58.68,91.167L58.884,91.167L59.269,91.167L60.251,91.167L60.447,91.167L60.839,91.167L61.428,91.167L62.017,91.167L62.213,91.167L62.414,91.167L62.606,91.167L62.802,91.167L63.784,91.167L64.372,114.5L64.569,114.5L65.157,114.5L65.746,114.5L65.949,114.5L66.139,114.5L66.728,114.5L67.905,114.5L68.102,114.5L68.304,114.5L68.494,114.5L68.691,114.5L69.083,114.5L69.28,114.5L69.479,114.5L69.672,114.5L69.868,114.5L70.261,114.5L70.457,114.5L70.658,114.5L70.85,114.5L71.046,114.5L71.439,114.5L71.635,114.5L71.837,114.5L72.028,114.5L72.224,114.5L72.616,114.5L72.812,114.5L73.015,114.5L73.205,114.5L73.401,114.5L73.794,114.5L73.99,114.5L74.193,114.5L74.382,114.5L74.579,114.5L74.972,83.389L75.168,83.389L75.756,83.389L76.149,83.389L77.327,83.389L77.523,83.389L77.916,83.389L78.112,83.389L78.504,83.389L78.701,83.389L78.901,83.389L79.093,83.389L79.29,83.389L79.682,83.389L79.878,83.389L80.467,83.389L80.86,44.5L81.056,44.5L81.259,44.5L81.449,44.5L81.645,44.5L82.037,44.5L82.234,44.5L82.437,44.5L82.626,44.5L82.822,44.5L83.215,44.5L83.411,44.5L83.614,44.5L83.804,44.5L84,44.5L84.393,122.278L84.792,122.278L85.178,122.278L85.767,122.278L85.967,122.278L86.355,122.278L86.748,122.278L86.944,122.278L87.145,122.278L87.337,122.278L87.533,122.278L87.926,44.5L88.122,44.5L88.325,44.5L88.515,44.5L89.103,44.5L89.3,44.5L89.503,44.5L89.692,44.5L89.888,44.5L90.281,44.5L90.477,44.5L90.681,44.5L90.87,44.5L91.066,44.5L91.655,130.056L91.859,130.056L92.047,130.056L92.244,130.056L92.636,130.056L93.421,130.056L93.814,44.5L94.01,44.5L94.212,44.5L94.992,44.5L95.188,44.5L95.389,44.5L95.581,44.5L95.777,44.5L96.169,60.056L96.366,60.056L96.57,106.722L96.758,106.722L96.954,122.278L97.347,122.278L97.543,122.278L97.748,122.278L97.936,122.278L98.132,122.278L98.525,122.278L98.721,122.278L98.925,122.278L99.114,122.278L99.31,122.278L99.702,122.278L99.899,122.278L100.102,122.278L100.291,122.278L100.488,122.278L100.88,122.278L102.254,130.056L102.455,122.278L102.647,122.278L102.843,122.278L103.235,122.278L103.432,122.278L103.633,122.278L103.824,122.278L104.02,122.278L104.413,122.278L105.198,75.611L105.591,44.5L105.787,44.5L105.99,44.5L106.18,44.5L106.376,44.5L106.768,44.5L106.965,44.5L107.168,44.5L107.357,44.5L107.553,44.5L107.946,44.5L108.142,44.5L108.346,44.5L108.535,44.5L108.731,44.5L109.124,44.5L109.32,44.5L109.523,44.5L109.909,44.5L110.302,44.5L110.498,44.5L110.698,44.5L110.89,44.5L111.086,44.5L111.479,44.5L111.675,44.5L111.877,44.5L112.068,44.5L112.264,44.5L112.657,44.5L113.056,44.5L115.208,91.167L115.412,91.167L115.601,91.167L115.797,91.167L116.19,91.167L117.766,91.167L117.956,91.167L118.942,91.167L119.33,91.167L120.12,122.278L120.311,122.278L120.508,122.278L120.9,122.278L121.097,122.278L121.301,122.278L121.489,122.278L121.686,122.278L122.078,91.167L122.478,91.167L122.667,91.167L122.863,91.167L123.256,91.167L124.63,91.167L124.833,91.167L125.022,91.167L125.218,91.167L125.611,91.167L125.807,91.167L126.01,91.167L126.2,91.167L126.396,91.167L126.789,91.167L127.377,91.167L128.163,106.722L128.364,106.722L128.555,106.722L128.751,106.722L129.144,106.722L129.34,106.722L129.544,106.722L129.733,106.722L129.929,106.722L130.322,106.722L130.518,106.722L130.721,106.722L130.911,106.722L131.107,106.722L131.499,106.722L131.696,106.722L131.893,106.722L132.088,106.722L132.284,106.722L132.677,91.167L133.266,91.167L133.462,91.167L133.855,91.167L134.051,91.167L134.253,91.167L134.443,91.167L134.64,91.167L135.032,91.167L135.228,91.167L135.429,91.167L135.621,91.167L135.817,91.167L136.21,91.167L136.406,91.167L136.607,91.167L136.799,91.167L136.995,91.167L137.387,91.167L137.584,91.167L137.786,91.167L137.977,91.167L138.173,91.167L138.565,91.167L138.761,91.167L138.963,91.167L139.154,91.167L139.35,91.167L139.743,91.167L139.939,91.167L140.141,91.167L140.332,91.167L140.528,91.167L140.921,83.389L141.117,83.389L141.318,83.389L141.51,83.389L141.706,83.389L142.098,83.389L142.294,83.389L142.497,83.389L142.687,83.389L142.883,83.389L143.276,83.389L143.472,83.389L143.673,83.389L143.865,83.389L144.061,83.389L144.454,83.389L144.65,83.389L144.851,83.389L145.042,83.389L145.239,83.389L145.631,83.389L145.827,83.389L146.029,83.389L146.22,83.389L146.416,83.389L146.809,83.389L147.005,83.389L147.207,83.389L147.398,83.389L147.594,83.389L147.987,106.722L148.183,106.722L148.386,106.722L148.575,106.722L148.772,106.722L149.164,106.722L149.361,106.722L149.563,106.722L149.753,106.722L149.949,106.722L150.342,106.722L150.538,106.722L150.741,106.722L150.931,106.722L151.127,106.722L151.52,114.5L151.716,114.5L151.918,114.5L152.108,114.5L152.305,114.5L152.697,106.722L152.894,106.722L153.095,106.722L153.286,106.722L153.482,106.722L153.875,114.5L154.071,114.5L154.274,114.5L154.464,114.5L154.66,114.5L155.052,122.278L155.249,122.278L155.456,122.278L155.641,122.278L155.838,122.278L156.23,122.278L156.426,122.278L156.63,122.278L156.819,122.278L157.015,122.278L157.408,122.278L157.604,122.278L157.807,122.278L157.997,122.278L158.193,122.278L158.586,122.278L158.782,122.278L158.985,122.278L159.174,122.278L159.371,122.278L159.763,122.278L159.96,122.278L160.161,122.278L160.352,122.278L160.548,122.278L160.941,122.278L161.137,122.278L161.338,122.278L161.53,122.278L161.726,122.278L162.119,122.278L162.315,122.278L162.518,122.278L162.707,122.278L162.904,122.278L163.296,114.5L163.492,114.5L163.696,114.5L163.885,114.5L164.081,114.5L164.474,122.278L164.67,122.278L164.874,122.278L165.063,122.278L165.259,122.278L165.652,114.5L165.848,114.5L166.051,114.5L166.241,114.5L166.437,114.5L166.829,122.278L167.025,122.278L167.229,122.278L167.418,122.278L167.614,122.278L168.007,122.278L168.203,122.278L168.404,122.278L168.596,122.278L168.792,122.278L169.381,122.278L169.583,122.278L169.773,122.278L169.97,122.278L170.362,122.278L170.559,122.278L170.763,122.278L170.951,122.278L171.147,122.278L171.54,145.611L171.736,145.611L171.94,145.611L172.128,145.611L172.325,145.611L172.718,145.611L172.914,145.611L173.118,145.611L173.306,145.611L173.503,145.611L173.895,145.611L174.091,145.611L174.295,145.611L174.484,145.611L174.68,145.611L175.073,145.611L175.269,145.611L175.47,145.611L175.662,145.611L175.858,145.611L176.25,145.611L176.447,145.611L176.645,145.611L176.839,145.611L177.036,145.611L177.428,145.611L177.624,145.611L177.823,145.611L178.017,145.611L178.213,145.611L178.606,106.722L178.802,106.722L179.002,106.722L179.195,106.722L179.391,106.722L179.783,106.722L179.98,106.722L180.18,106.722L180.372,106.722L180.569,106.722L180.961,106.722L181.157,106.722L181.357,137.833L181.55,137.833L181.746,137.833L182.139,44.5L182.335,44.5L182.536,44.5L182.728,44.5L182.924,44.5L183.316,44.5L183.513,44.5L183.713,44.5L183.906,44.5L184.102,44.5L184.494,44.5L184.69,44.5L184.889,44.5L185.083,44.5L185.279,44.5L185.672,44.5L185.868,44.5L186.067,44.5L186.261,44.5L186.457,44.5L186.85,44.5L187.046,44.5L188.027,44.5L188.224,44.5L188.423,44.5L188.616,44.5L188.812,44.5L189.205,122.278L189.401,122.278L189.601,122.278L189.793,122.278L189.99,122.278L190.382,122.278L190.579,122.278L190.778,122.278L190.971,122.278L191.168,122.278L191.56,98.944L191.757,98.944L191.956,98.944L192.149,98.944L192.345,98.944L192.738,98.944L192.934,98.944L193.133,98.944L193.327,98.944L193.523,98.944L194.504,98.944L194.7,98.944L195.093,98.944L195.289,98.944L195.49,98.944L195.682,98.944L195.878,98.944L196.467,114.5L197.448,114.5L198.234,114.5L198.626,67.833" stroke="#b279a2" stroke-width="2"/></g></g><path class="foreground" aria-hidden="true" d="" display="none"/></g><g transform="translate(0,0)"><path class="background" aria-hidden="true" d="M0,0h200v200h-200Z"/><g><g class="mark-line role-mark child_marks" role="graphics-object" aria-roledescription="line mark container"><path aria-label="Time: Dec 18, 2023; Price: 10995; item: K_ESSENTIAL_RAIN_PONCHO_UNISEX_-_Cape_-_black" role="graphics-symbol" aria-roledescription="line mark" d="M129.544,77.833L130.322,77.833L130.518,77.833L130.911,77.833L131.107,77.833L131.499,77.833L131.893,77.833L132.088,77.833L132.284,77.833L133.266,77.833L133.855,77.833L134.051,77.833L134.253,77.833L134.64,77.833L135.032,77.833L135.228,77.833L135.817,77.833L136.21,77.833L136.406,77.833L136.607,77.833L136.799,77.833L136.995,77.833L137.584,77.833L138.173,77.833L138.565,77.833L138.761,77.833L139.35,77.833L139.939,77.833L140.141,77.833L140.528,77.833L141.117,77.833L141.318,77.833L142.098,77.833L142.687,77.833L143.276,77.833L143.472,77.833L143.673,77.833L144.061,77.833L144.851,77.833L145.042,77.833L145.631,77.833L146.029,77.833L146.22,77.833L146.416,77.833L147.398,77.833L147.987,77.833L148.183,77.833L148.575,77.833L148.772,77.833L149.164,77.833L149.563,77.833L149.753,77.833L150.741,77.833L150.931,77.833L152.108,77.833L152.305,77.833L152.697,77.833L154.66,77.833L155.052,77.833L173.895,77.833L174.091,77.833L174.295,77.833L174.484,77.833L174.68,77.833L175.073,77.833L175.269,77.833L175.47,77.833L175.662,77.833L175.858,77.833L176.25,77.833L176.447,77.833L176.645,77.833L176.839,77.833L177.036,77.833L177.428,77.833L177.624,77.833L177.823,77.833L178.017,77.833L178.213,77.833L178.606,77.833L178.802,77.833L179.002,77.833L179.195,77.833L179.391,77.833L179.783,77.833L179.98,77.833L180.18,77.833L180.372,77.833L180.569,77.833L180.961,77.833L181.157,77.833L181.357,77.833L181.55,77.833L181.746,77.833L182.139,77.833L182.335,77.833L182.536,77.833L182.728,77.833L182.924,77.833L183.316,77.833L183.513,77.833L183.713,77.833L183.906,77.833L184.102,77.833L184.494,77.833L184.69,77.833L184.889,77.833L185.083,77.833L185.279,77.833L185.672,77.833L185.868,77.833L186.067,77.833L186.261,77.833L186.457,77.833L186.85,77.833L187.046,77.833L187.246,77.833L187.438,77.833L187.635,77.833L188.027,77.833L188.224,77.833L188.423,77.833L188.616,77.833L188.812,77.833L189.205,77.833L189.401,77.833L189.601,77.833L189.793,77.833L189.99,77.833L190.382,77.833L190.579,77.833L190.778,77.833L190.971,77.833L191.168,77.833L191.56,77.833L191.757,77.833L191.956,77.833L192.149,77.833L192.345,77.833L192.738,77.833L192.934,77.833L193.133,77.833L193.327,77.833L193.523,77.833L193.915,77.833L194.112,77.833L194.31,77.833L194.504,77.833L194.7,77.833L195.093,77.833L195.289,77.833L195.49,77.833L195.682,77.833L195.878,77.833L196.271,77.833L196.467,77.833L196.667,77.833L196.86,77.833L197.056,77.833L197.448,90.056L197.645,90.056L197.845,90.056L198.037,90.056L198.234,90.056L198.626,77.833L198.822,77.833L199.022,77.833L199.215,77.833L199.411,77.833L199.804,77.833L200,77.833" stroke="#72b7b2" stroke-width="2"/></g></g><path class="foreground" aria-hidden="true" d="" display="none"/></g><g transform="translate(0,0)"><path class="background" aria-hidden="true" d="M0,0h200v200h-200Z"/><g><g class="mark-line role-mark child_marks" role="graphics-object" aria-roledescription="line mark container"><path aria-label="Time: Dec 18, 2023; Price: 5845; item: PONCHO_-_Peignoir_-_dark_blue" role="graphics-symbol" aria-roledescription="line mark" d="M129.544,135.056L131.107,135.056L134.051,125.056L135.228,125.056L135.817,125.056L136.995,125.056L150.741,130.056" stroke="#9d755d" stroke-width="2"/></g></g><path class="foreground" aria-hidden="true" d="" display="none"/></g></g><g class="mark-group role-legend" role="graphics-symbol" aria-roledescription="legend" aria-label="Symbol legend titled 'item' for stroke color with 12 values: KUURA_3L_PONCHO_UNISEX_-_Veste_imperméable_-_green, DESCHUTES_VALLEY™_RAIN_PONCHO_-_Parka_-_black, DESCHUTES_VALLEY™_RAIN_PONCHO_-_Parka_-_vista_blue, K_ESSENTIAL_RAIN_PONCHO_UNISEX_-_Cape_-_black, PSG_M_NSW_CITY_MADE_PONCHO_-_Veste_de_survêtement_-_aura_white, ending with COVERO_PONCHO_II_-_Cape_-_lightgrey"><g transform="translate(220,0)"><path class="background" aria-hidden="true" d="M0,0h328v170h-328Z" pointer-events="none"/><g><g class="mark-group role-legend-entry"><g transform="translate(0,16)"><path class="background" aria-hidden="true" d="M0,0h0v0h0Z" pointer-events="none"/><g><g class="mark-group role-scope" role="graphics-object" aria-roledescription="group mark container"><g transform="translate(0,0)"><path class="background" aria-hidden="true" d="M0,0h328v11h-328Z" pointer-events="none" opacity="1"/><g><g class="mark-symbol role-legend-symbol" pointer-events="none"><path transform="translate(6,6)" d="M-5,0L5,0" stroke="#4c78a8" stroke-width="1.5" opacity="1"/></g><g class="mark-text role-legend-label" pointer-events="none"><text text-anchor="start" transform="translate(16,9)" font-family="Liberation Mono" font-size="10px" fill="#000" opacity="1">KUURA_3L_PONCHO_UNISEX_-_Veste_impermé…</text></g></g><path class="foreground" aria-hidden="true" d="" pointer-events="none" display="none"/></g><g transform="translate(0,13)"><path class="background" aria-hidden="true" d="M0,0h328v11h-328Z" pointer-events="none" opacity="1"/><g><g class="mark-symbol role-legend-symbol" pointer-events="none"><path transform="translate(6,6)" d="M-5,0L5,0" stroke="#f58518" stroke-width="1.5" opacity="1"/></g><g class="mark-text role-legend-label" pointer-events="none"><text text-anchor="start" transform="translate(16,9)" font-family="Liberation Mono" font-size="10px" fill="#000" opacity="1">DESCHUTES_VALLEY™_RAIN_PONCHO_-_Parka_…</text></g></g><path class="foreground" aria-hidden="true" d="" pointer-events="none" display="none"/></g><g transform="translate(0,26)"><path class="background" aria-hidden="true" d="M0,0h328v11h-328Z" pointer-events="none" opacity="1"/><g><g class="mark-symbol role-legend-symbol" pointer-events="none"><path transform="translate(6,6)" d="M-5,0L5,0" stroke="#e45756" stroke-width="1.5" opacity="1"/></g><g class="mark-text role-legend-label" pointer-events="none"><text text-anchor="start" transform="translate(16,9)" font-family="Liberation Mono" font-size="10px" fill="#000" opacity="1">DESCHUTES_VALLEY™_RAIN_PONCHO_-_Parka_…</text></g></g><path class="foreground" aria-hidden="true" d="" pointer-events="none" display="none"/></g><g transform="translate(0,39)"><path class="background" aria-hidden="true" d="M0,0h328v11h-328Z" pointer-events="none" opacity="1"/><g><g class="mark-symbol role-legend-symbol" pointer-events="none"><path transform="translate(6,6)" d="M-5,0L5,0" stroke="#72b7b2" stroke-width="1.5" opacity="1"/></g><g class="mark-text role-legend-label" pointer-events="none"><text text-anchor="start" transform="translate(16,9)" font-family="Liberation Mono" font-size="10px" fill="#000" opacity="1">K_ESSENTIAL_RAIN_PONCHO_UNISEX_-_Cape_…</text></g></g><path class="foreground" aria-hidden="true" d="" pointer-events="none" display="none"/></g><g transform="translate(0,52)"><path class="background" aria-hidden="true" d="M0,0h328v11h-328Z" pointer-events="none" opacity="1"/><g><g class="mark-symbol role-legend-symbol" pointer-events="none"><path transform="translate(6,6)" d="M-5,0L5,0" stroke="#54a24b" stroke-width="1.5" opacity="1"/></g><g class="mark-text role-legend-label" pointer-events="none"><text text-anchor="start" transform="translate(16,9)" font-family="Liberation Mono" font-size="10px" fill="#000" opacity="1">PSG_M_NSW_CITY_MADE_PONCHO_-_Veste_de_…</text></g></g><path class="foreground" aria-hidden="true" d="" pointer-events="none" display="none"/></g><g transform="translate(0,65)"><path class="background" aria-hidden="true" d="M0,0h328v11h-328Z" pointer-events="none" opacity="1"/><g><g class="mark-symbol role-legend-symbol" pointer-events="none"><path transform="translate(6,6)" d="M-5,0L5,0" stroke="#eeca3b" stroke-width="1.5" opacity="1"/></g><g class="mark-text role-legend-label" pointer-events="none"><text text-anchor="start" transform="translate(16,9)" font-family="Liberation Mono" font-size="10px" fill="#000" opacity="1">HIKING_BACKPACK_PONCHO_-_Veste_impermé…</text></g></g><path class="foreground" aria-hidden="true" d="" pointer-events="none" display="none"/></g><g transform="translate(0,78)"><path class="background" aria-hidden="true" d="M0,0h328v11h-328Z" pointer-events="none" opacity="1"/><g><g class="mark-symbol role-legend-symbol" pointer-events="none"><path transform="translate(6,6)" d="M-5,0L5,0" stroke="#b279a2" stroke-width="1.5" opacity="1"/></g><g class="mark-text role-legend-label" pointer-events="none"><text text-anchor="start" transform="translate(16,9)" font-family="Liberation Mono" font-size="10px" fill="#000" opacity="1">PONCHO_-_Cape_-_lucid_blue</text></g></g><path class="foreground" aria-hidden="true" d="" pointer-events="none" display="none"/></g><g transform="translate(0,91)"><path class="background" aria-hidden="true" d="M0,0h328v11h-328Z" pointer-events="none" opacity="1"/><g><g class="mark-symbol role-legend-symbol" pointer-events="none"><path transform="translate(6,6)" d="M-5,0L5,0" stroke="#ff9da6" stroke-width="1.5" opacity="1"/></g><g class="mark-text role-legend-label" pointer-events="none"><text text-anchor="start" transform="translate(16,9)" font-family="Liberation Mono" font-size="10px" fill="#000" opacity="1">HIKING_BACKPACK_PONCHO_-_Veste_impermé…</text></g></g><path class="foreground" aria-hidden="true" d="" pointer-events="none" display="none"/></g><g transform="translate(0,104)"><path class="background" aria-hidden="true" d="M0,0h328v11h-328Z" pointer-events="none" opacity="1"/><g><g class="mark-symbol role-legend-symbol" pointer-events="none"><path transform="translate(6,6)" d="M-5,0L5,0" stroke="#9d755d" stroke-width="1.5" opacity="1"/></g><g class="mark-text role-legend-label" pointer-events="none"><text text-anchor="start" transform="translate(16,9)" font-family="Liberation Mono" font-size="10px" fill="#000" opacity="1">PONCHO_-_Peignoir_-_dark_blue</text></g></g><path class="foreground" aria-hidden="true" d="" pointer-events="none" display="none"/></g><g transform="translate(0,117)"><path class="background" aria-hidden="true" d="M0,0h328v11h-328Z" pointer-events="none" opacity="1"/><g><g class="mark-symbol role-legend-symbol" pointer-events="none"><path transform="translate(6,6)" d="M-5,0L5,0" stroke="#bab0ac" stroke-width="1.5" opacity="1"/></g><g class="mark-text role-legend-label" pointer-events="none"><text text-anchor="start" transform="translate(16,9)" font-family="Liberation Mono" font-size="10px" fill="#000" opacity="1">PARIS_ST._GERMAIN_CITY_MADE_PONCHO_-_V…</text></g></g><path class="foreground" aria-hidden="true" d="" pointer-events="none" display="none"/></g><g transform="translate(0,130)"><path class="background" aria-hidden="true" d="M0,0h328v11h-328Z" pointer-events="none" opacity="1"/><g><g class="mark-symbol role-legend-symbol" pointer-events="none"><path transform="translate(6,6)" d="M-5,0L5,0" stroke="#4c78a8" stroke-width="1.5" opacity="1"/></g><g class="mark-text role-legend-label" pointer-events="none"><text text-anchor="start" transform="translate(16,9)" font-family="Liberation Mono" font-size="10px" fill="#000" opacity="1">SHOWERPROOF_PONCHO_UNISEX_-_Cape_-_cla…</text></g></g><path class="foreground" aria-hidden="true" d="" pointer-events="none" display="none"/></g><g transform="translate(0,143)"><path class="background" aria-hidden="true" d="M0,0h328v11h-328Z" pointer-events="none" opacity="1"/><g><g class="mark-symbol role-legend-symbol" pointer-events="none"><path transform="translate(6,6)" d="M-5,0L5,0" stroke="#f58518" stroke-width="1.5" opacity="1"/></g><g class="mark-text role-legend-label" pointer-events="none"><text text-anchor="start" transform="translate(16,9)" font-family="Liberation Mono" font-size="10px" fill="#000" opacity="1">COVERO_PONCHO_II_-_Cape_-_lightgrey</text></g></g><path class="foreground" aria-hidden="true" d="" pointer-events="none" display="none"/></g></g></g><path class="foreground" aria-hidden="true" d="" pointer-events="none" display="none"/></g></g><g class="mark-text role-legend-title" pointer-events="none"><text text-anchor="start" transform="translate(0,9)" font-family="Liberation Mono" font-size="11px" font-weight="bold" fill="#000" opacity="1">item</text></g></g><path class="foreground" aria-hidden="true" d="" pointer-events="none" display="none"/></g></g></g><path class="foreground" aria-hidden="true" d="" display="none"/></g></g></g><path class="foreground" aria-hidden="true" d="" display="none"/></g></g></g></svg>