<svg xmlns="http://www.w3.org/2000/svg" xmlns:xlink="http://www.w3.org/1999/xlink" version="1.1" class="marks" width="658" height="244" viewBox="0 0 658 244"><rect width="658" height="244" fill="white"/><g fill="none" stroke-miterlimit="10" transform="translate(104,6)"><g class="mark-group role-frame root" role="graphics-object" aria-roledescription="group mark container"><g transform="translate(0,0)"><path class="background" aria-hidden="true" d="M0,0h0v0h0Z"/><g><g class="mark-group role-row-title row-title" role="graphics-object" aria-roledescription="group mark container"><g transform="translate(-78,116)"><path class="background" aria-hidden="true" d="M0,0h0v0h0Z"/><g><g class="mark-group role-title"><g transform="translate(-21.000000000000004,0)"><path class="background" aria-hidden="true" d="M0,0h0v0h0Z" pointer-events="none"/><g><g class="mark-text role-title-text" role="graphics-symbol" aria-roledescription="title" aria-label="Title text 'group'" pointer-events="none"><text text-anchor="middle" transform="translate(0,0) rotate(-90) translate(0,9)" font-family="Liberation Mono" font-size="11px" font-weight="bold" fill="#000" opacity="1">group</text></g></g><path class="foreground" aria-hidden="true" d="" pointer-events="none" display="none"/></g></g></g><path class="foreground" aria-hidden="true" d="" display="none"/></g></g><g class="mark-group role-row-header row_header" role="graphics-object" aria-roledescription="group mark container"><g transform="translate(-47,0)"><path class="background" aria-hidden="true" d="M0,0h0v200h0Z"/><g><g class="mark-group role-title"><g transform="translate(-20.000000000000007,100)"><path class="background" aria-hidden="true" d="M0,0h0v0h0Z" pointer-events="none"/><g><g class="mark-text role-title-text" role="graphics-symbol" aria-roledescription="title" aria-label="Title text 'zalando-poncho'" pointer-events="none"><text text-anchor="middle" transform="translate(0,0) rotate(-90) translate(0,8)" font-family="Liberation Mono" font-size="10px" fill="#000" opacity="1">zalando-poncho</text></g></g><path class="foreground" aria-hidden="true" d="" pointer-events="none" display="none"/></g></g></g><path class="foreground" aria-hidden="true" d="" display="none"/></g></g><g class="mark-group role-scope cell" role="graphics-object" aria-roledescription="group mark container"><g transform="translate(0,0)"><path class="background" aria-hidden="true" d="M0.5,0.5h200v200h-200Z" stroke="#ddd"/><g><g class="mark-group role-axis" aria-hidden="true"><g transform="translate(0.5,200.5)"><path class="background" aria-hidden="true" d="M0,0h0v0h0Z" pointer-events="none"/><g><g class="mark-rule role-axis-grid" pointer-events="none"><line transform="translate(2,-200)" x2="0" y2="200" stroke="#ddd" stroke-width="1" opacity="1"/><line transform="translate(35,-200)" x2="0" y2="200" stroke="#ddd" stroke-width="1" opacity="1"/><line transform="translate(69,-200)" x2="0" y2="200" stroke="#ddd" stroke-width="1" opacity="1"/><line transform="translate(102,-200)" x2="0" y2="200" stroke="#ddd" stroke-width="1" opacity="1"/><line transform="translate(137,-200)" x2="0" y2="200" stroke="#ddd" stroke-width="1" opacity="1"/><line transform="translate(171,-200)" x2="0" y2="200" stroke="#ddd" stroke-width="1" opacity="1"/></g></g><path class="foreground" aria-hidden="true" d="" pointer-events="none" display="none"/></g></g><g class="mark-group role-axis" aria-hidden="true"><g transform="translate(0.5,0.5)"><path class="background" aria-hidden="true" d="M0,0h0v0h0Z" pointer-events="none"/><g><g class="mark-rule role-axis-grid" pointer-events="none"><line transform="translate(0,200)" x2="200" y2="0" stroke="#ddd" stroke-width="1" opacity="1"/><line transform="translate(0,144)" x2="200" y2="0" stroke="#ddd" stroke-width="1" opacity="1"/><line transform="translate(0,89)" x2="200" y2="0" stroke="#ddd" stroke-width="1" opacity="1"/><line transform="translate(0,33)" x2="200" y2="0" stroke="#ddd" stroke-width="1" opacity="1"/></g></g><path class="foreground" aria-hidden="true" d="" pointer-events="none" display="none"/></g></g><g class="mark-group role-axis" role="graphics-symbol" aria-roledescription="axis" aria-label="X-axis titled 'Time' for a time scale with values from Wednesday, 30 August 2023, 12:58:24 PM to Tuesday, 27 February 2024, 8:50:03 AM"><g transform="translate(0.5,200.5)"><path class="background" aria-hidden="true" d="M0,0h0v0h0Z" pointer-events="none"/><g><g class="mark-rule role-axis-tick" pointer-events="none"><line transform="translate(2,0)" x2="0" y2="5" stroke="#888" stroke-width="1" opacity="1"/><line transform="translate(35,0)" x2="0" y2="5" stroke="#888" stroke-width="1" opacity="1"/><line transform="translate(69,0)" x2="0" y2="5" stroke="#888" stroke-width="1" opacity="1"/><line transform="translate(102,0)" x2="0" y2="5" stroke="#888" stroke-width="1" opacity="1"/><line transform="translate(137,0)" x2="0" y2="5" stroke="#888" stroke-width="1" opacity="1"/><line transform="translate(171,0)" x2="0" y2="5" stroke="#888" stroke-width="1" opacity="1"/></g><g class="mark-text role-axis-label" pointer-events="none"><text text-anchor="middle" transform="translate(1.6141833924819924,15)" font-family="Liberation Mono" font-size="10px" fill="#000" opacity="1">September</text><text text-anchor="middle" transform="translate(34.794969053699596,15)" font-family="Liberation Mono" font-size="10px" fill="#000" opacity="0">October</text><text text-anchor="middle" transform="translate(69.08178090362445,15)" font-family="Liberation Mono" font-size="10px" fill="#000" opacity="0">November</text><text text-anchor="middle" transform="translate(102.26256656484203,15)" font-family="Liberation Mono" font-size="10px" fill="#000" opacity="0">December</text><text text-anchor="middle" transform="translate(136.5493784147669,15)" font-family="Liberation Mono" font-size="10px" fill="#000" opacity="0">2024</text><text text-anchor="middle" transform="translate(170.83619026469174,15)" font-family="Liberation Mono" font-size="10px" fill="#000" opacity="1">February</text></g><g class="mark-rule role-axis-domain" pointer-events="none"><line transform="translate(0,0)" x2="200" y2="0" stroke="#888" stroke-width="1" opacity="1"/></g><g class="mark-text role-axis-title" pointer-events="none"><text text-anchor="middle" transform="translate(100,30)" font-family="Liberation Mono" font-size="11px" font-weight="bold" fill="#000" opacity="1">Time</text></g></g><path class="foreground" aria-hidden="true" d="" pointer-events="none" display="none"/></g></g><g class="mark-group role-axis" role="graphics-symbol" aria-roledescription="axis" aria-label="Y-axis titled 'Price' for a linear scale with values from 0 to 18,000"><g transform="translate(0.5,0.5)"><path class="background" aria-hidden="true" d="M0,0h0v0h0Z" pointer-events="none"/><g><g class="mark-rule role-axis-tick" pointer-events="none"><line transform="translate(0,200)" x2="-5" y2="0" stroke="#888" stroke-width="1" opacity="1"/><line transform="translate(0,144)" x2="-5" y2="0" stroke="#888" stroke-width="1" opacity="1"/><line transform="translate(0,89)" x2="-5" y2="0" stroke="#888" stroke-width="1" opacity="1"/><line transform="translate(0,33)" x2="-5" y2="0" stroke="#888" stroke-width="1" opacity="1"/></g><g class="mark-text role-axis-label" pointer-events="none"><text text-anchor="end" transform="translate(-7,203)" font-family="Liberation Mono" font-size="10px" fill="#000" opacity="1">0</text><text text-anchor="end" transform="translate(-7,147.44444444444443)" font-family="Liberation Mono" font-size="10px" fill="#000" opacity="1">50</text><text text-anchor="end" transform="translate(-7,91.88888888888889)" font-family="Liberation Mono" font-size="10px" fill="#000" opacity="1">100</text><text text-anchor="end" transform="translate(-7,36.33333333333333)" font-family="Liberation Mono" font-size="10px" fill="#000" opacity="1">150</text></g><g class="mark-rule role-axis-domain" pointer-events="none"><line transform="translate(0,200)" x2="0" y2="-200" stroke="#888" stroke-width="1" opacity="1"/></g><g class="mark-text role-axis-title" pointer-events="none"><text text-anchor="middle" transform="translate(-35,100) rotate(-90) translate(0,-2)" font-family="Liberation Mono" font-size="11px" font-weight="bold" fill="#000" opacity="1">Price</text></g></g><path class="foreground" aria-hidden="true" d="" pointer-events="none" display="none"/></g></g><g class="mark-group role-scope child_pathgroup" role="graphics-object" aria-roledescription="group mark container"><g transform="translate(0,0)"><path class="background" aria-hidden="true" d="M0,0h200v200h-200Z"/><g><g class="mark-line role-mark child_marks" role="graphics-object" aria-roledescription="line mark container"><path aria-label="Time: Aug 30, 2023; Price: 10795; item: DESCHUTES_VALLEY™_RAIN_PONCHO_-_Parka_-_black" role="graphics-symbol" aria-roledescription="line mark" d="M0,80.056L0.18,80.056L0.363,80.056L0.732,80.056L0.916,80.056L1.106,80.056L1.285,80.056L1.469,80.056L1.838,80.056L2.022,80.056L2.212,80.056L2.39,80.056L2.575,80.056L2.944,80.056L3.128,80.056L3.316,80.056L3.496,80.056L3.681,80.056L4.05,80.056L4.366,80.056L4.422,80.056L4.603,80.056L4.787,80.056L5.156,80.056L5.34,80.056L5.531,80.056L5.708,80.056L5.893,80.056L6.263,50.056L6.447,50.056L6.637,50.056L6.815,50.056L6.999,50.056L7.368,50.056L7.552,50.056L7.743,50.056L7.921,50.056L8.105,50.056L8.474,50.056L8.658,50.056L8.848,50.056L9.027,50.056L9.211,50.056L9.696,50.056L9.764,50.056L9.954,50.056L10.132,50.056L10.317,50.056L10.685,50.056L10.87,50.056L11.058,50.056L11.239,50.056L11.423,50.056L11.792,50.056L11.976,50.056L12.164,50.056L12.344,50.056L12.529,50.056L12.897,50.056L13.082,50.056L13.273,50.056L13.451,50.056L13.635,50.056L14.004,50.056L14.188,50.056L14.379,50.056L14.557,50.056L14.741,50.056L15.11,20.056L15.294,20.056L15.485,20.056L15.582,20.056L15.663,20.056L15.847,20.056L16.216,20.056L16.4,20.056L16.591,20.056L16.769,20.056L16.953,20.056L17.322,20.056L17.506,20.056L17.696,20.056L17.875,20.056L18.059,20.056L18.428,20.056L18.612,20.056L18.8,20.056L18.981,20.056L19.165,20.056L19.534,20.056L19.718,20.056L19.906,20.056L20.087,20.056L20.271,20.056L20.64,20.056L20.824,20.056L21.015,20.056L21.193,20.056L21.377,20.056L21.746,20.056L21.93,20.056L22.121,20.056L22.299,20.056L22.483,20.056L22.852,20.056L23.036,20.056L23.227,20.056L23.405,20.056L23.589,20.056L23.958,20.056L24.142,20.056L24.333,20.056L24.511,20.056L24.695,20.056L25.064,20.056L25.248,20.056L25.439,20.056L25.617,20.056L25.801,20.056L26.17,20.056L26.354,20.056L26.542,20.056L26.723,20.056L26.907,20.056L27.276,20.056L27.46,20.056L27.648,20.056L27.829,20.056L28.013,20.056L28.382,20.056L28.566,20.056L28.758,20.056L28.935,20.056L29.119,20.056L29.488,20.056L29.673,20.056L29.864,20.056L30.041,20.056L30.225,20.056L30.594,40.056L30.778,40.056L30.969,40.056L31.147,40.056L31.332,40.056L31.7,40.056L31.884,40.056L32.075,40.056L32.253,40.056L32.806,40.056L32.99,40.056L33.181,40.056L33.359,40.056L33.543,40.056L33.912,40.056L34.096,40.056L34.284,40.056L34.465,40.056L34.649,40.056L35.018,40.056L35.202,40.056L35.391,40.056L35.571,40.056L35.756,40.056L36.124,100.056L36.308,100.056L36.5,100.056L36.677,100.056L36.861,100.056L37.23,90.056L37.415,90.056L37.606,90.056L37.783,90.056L37.967,90.056L38.336,90.056L38.521,90.056L38.713,90.056L38.889,90.056L39.074,90.056L39.442,90.056L39.626,90.056L39.819,90.056L39.995,90.056L40.18,90.056L40.548,90.056L40.733,90.056L40.924,90.056L41.101,90.056L41.286,90.056L41.654,90.056L41.839,90.056L42.027,90.056L42.207,90.056L42.392,90.056L42.76,90.056L42.944,90.056L43.313,90.056L43.498,90.056L43.866,90.056L44.051,90.056L44.243,90.056L44.419,90.056L44.604,90.056L44.972,100.056L45.157,100.056L45.349,100.056L45.525,100.056L45.71,100.056L46.078,100.056L46.263,100.056L46.454,100.056L46.631,100.056L46.816,100.056L47.184,100.056L47.369,100.056L47.56,100.056L47.738,100.056L47.922,100.056L48.291,100.056L48.475,100.056L48.666,100.056L48.844,100.056L49.028,100.056L49.396,100.056L49.581,100.056L49.769,100.056L49.949,100.056L50.134,100.056L50.502,100.056L50.687,100.056L50.875,100.056L51.055,100.056L51.24,100.056L51.609,90.056L51.793,90.056L51.984,90.056L52.162,90.056L52.346,90.056L52.715,90.056L52.899,90.056L53.09,90.056L53.268,90.056L53.452,90.056L53.821,90.056L54.005,90.056L54.196,90.056L54.374,90.056L54.558,90.056L54.927,90.056L55.111,90.056L55.302,90.056L55.48,90.056L55.664,90.056L56.033,90.056L56.217,90.056L56.408,90.056L56.585,90.056L56.77,90.056L57.139,90.056L57.323,90.056L57.511,90.056L57.692,90.056L57.876,90.056L58.245,90.056L58.429,90.056L58.617,90.056L58.797,90.056L58.982,90.056L59.35,90.056L59.535,90.056L59.726,90.056L59.904,90.056L60.088,90.056L60.457,50.056L60.641,50.056L60.832,50.056L61.01,50.056L61.194,50.056L61.563,50.056L61.747,50.056L61.938,50.056L62.116,50.056L62.3,50.056L62.669,50.056L62.853,50.056L63.043,50.056L63.222,50.056L63.406,50.056L63.775,50.056L63.96,50.056L64.149,50.056L64.328,50.056L64.512,50.056L64.881,50.056L65.065,50.056L65.253,50.056L65.434,50.056L65.618,50.056L65.987,50.056L66.171,50.056L66.36,50.056L66.54,50.056L66.724,50.056L67.093,50.056L67.277,50.056L67.467,50.056L67.646,50.056L67.83,50.056L68.199,50.056L68.383,50.056L68.573,50.056L68.752,50.056L68.936,50.056L69.305,50.056L69.489,50.056L69.679,50.056L69.858,50.056L70.042,50.056L70.411,40.056L70.595,40.056L70.785,40.056L70.964,40.056L72.07,40.056L72.254,40.056L72.623,40.056L72.996,40.056L73.176,40.056L77.6,40.056L77.784,40.056L78.153,40.056L78.337,40.056L78.527,40.056L78.706,40.056L78.89,40.056L79.259,70.056L79.444,70.056L79.634,70.056L79.812,70.056L79.996,70.056L80.365,70.056L80.55,70.056L80.738,70.056L81.102,70.056L81.471,70.056L81.655,70.056L81.844,70.056L82.024,70.056L82.208,70.056L82.577,40.056L82.761,40.056L82.952,40.056L83.13,40.056L83.683,40.056L83.868,40.056L84.058,40.056L84.236,40.056L84.42,40.056L84.789,40.056L84.973,40.056L85.165,40.056L85.342,40.056L85.526,40.056L85.895,50.056L86.079,50.056L86.271,50.056L86.448,50.056L86.633,50.056L87.001,50.056L87.186,50.056L87.377,50.056L87.554,50.056L87.738,50.056L88.107,40.056L88.291,40.056L88.481,40.056L88.66,40.056L88.845,40.056L89.213,40.056L89.398,40.056L89.587,40.056L89.766,40.056L89.951,40.056L90.319,40.056L90.504,40.056L90.696,40.056L90.872,40.056L91.057,40.056L91.425,40.056L91.61,40.056L91.801,60.056L91.978,60.056L92.162,60.056L92.531,60.056L92.716,60.056L92.907,60.056L93.084,60.056L93.269,60.056L93.637,60.056L93.822,60.056L94.013,80.056L94.19,80.056L94.375,80.056L94.743,80.056L94.928,80.056L95.118,80.056L95.296,80.056L95.481,80.056L95.849,70.056L96.034,70.056L96.223,70.056L96.402,70.056L96.587,70.056L96.955,70.056L97.14,70.056L97.329,70.056L97.508,70.056L97.693,70.056L98.061,40.056L98.246,40.056L98.438,40.056L98.614,40.056L98.799,40.056L99.167,40.056L99.352,40.056L99.542,40.056L99.721,40.056L99.905,40.056L100.274,40.056L100.458,40.056L100.649,40.056L100.827,40.056L101.011,40.056L101.38,40.056L101.564,40.056L101.755,40.056L101.932,40.056L102.117,40.056L102.485,40.056L102.67,40.056L102.861,40.056L103.039,40.056L103.223,40.056L103.592,40.056L103.776,40.056L103.964,40.056L104.145,40.056L104.329,40.056L104.697,40.056L104.882,40.056L105.071,40.056L105.251,40.056L105.435,40.056L105.803,40.056L105.988,40.056L106.179,40.056L106.357,40.056L106.541,40.056L106.91,50.056L107.094,50.056L107.285,50.056L107.463,50.056L107.647,50.056L108.016,50.056L108.2,50.056L108.391,50.056L108.569,50.056L108.753,50.056L109.122,50.056L109.306,50.056L109.497,50.056L109.675,50.056L109.859,50.056L110.228,50.056L110.412,50.056L110.602,50.056L110.781,50.056L110.965,50.056L111.334,50.056L111.518,50.056L111.707,50.056L111.887,50.056L112.071,50.056L112.44,50.056L112.624,50.056L112.813,50.056L112.993,50.056L113.177,50.056L113.546,50.056L113.73,50.056L113.922,50.056L114.652,50.056L114.836,50.056L115.027,50.056L115.205,50.056L115.389,50.056L115.758,50.056L115.942,50.056L116.134,50.056L116.311,50.056L116.495,50.056L116.864,50.056L117.048,50.056L117.24,50.056L117.417,50.056L117.601,50.056L117.97,50.056L118.154,50.056L118.345,50.056L118.523,50.056L118.707,50.056L119.076,50.056L119.26,50.056L119.449,50.056L119.629,50.056L119.813,50.056L120.182,50.056L120.366,50.056L120.555,50.056L120.735,50.056L120.919,50.056L121.288,50.056L121.472,50.056L121.664,50.056L121.841,50.056L122.025,50.056L122.394,50.056L122.578,50.056L122.769,50.056L122.947,50.056L123.131,50.056L123.5,50.056L123.684,50.056L123.87,50.056L124.053,50.056L124.237,50.056L124.606,50.056L124.79,50.056L125.159,50.056L125.343,50.056L125.712,50.056L125.897,50.056L126.086,50.056L126.265,50.056L126.449,50.056L126.818,50.056L127.002,50.056L127.191,50.056L127.371,50.056L127.555,50.056L127.924,50.056L128.108,50.056L128.297,50.056L128.477,50.056L128.662,50.056L129.03,50.056L129.215,50.056L129.404,50.056L129.583,50.056L129.767,50.056L130.136,50.056L130.32,50.056L130.509,50.056L130.689,50.056L130.873,50.056L131.242,50.056L131.427,50.056L131.616,50.056L131.795,50.056L131.979,50.056L132.348,60.056L132.533,60.056L132.722,60.056L132.901,60.056L133.086,60.056L133.454,60.056L133.638,60.056L133.828,60.056L134.008,60.056L134.192,60.056L134.56,60.056L134.745,60.056L134.933,60.056L135.113,60.056L135.298,60.056L135.666,60.056L135.851,60.056L136.039,60.056L136.219,60.056L136.404,60.056L136.772,60.056L136.957,60.056L137.146,60.056L137.325,60.056L137.51,60.056L137.878,60.056L138.063,60.056L138.252,60.056L138.431,60.056L138.616,60.056L138.984,90.056L139.169,90.056L139.359,90.056L139.537,90.056L139.722,90.056L140.091,90.056L140.275,90.056L140.465,90.056L140.643,90.056L153.363,60.056L153.547,60.056L153.738,60.056L153.916,60.056L154.1,60.056L154.469,60.056L154.653,60.056L154.844,60.056L155.022,60.056L155.206,60.056L155.575,60.056L155.759,60.056L155.95,60.056L156.128,60.056L156.312,60.056L156.681,100.056L156.865,100.056L157.056,100.056L157.234,100.056L157.418,100.056L157.787,100.056L157.971,100.056L158.16,100.056L191.521,60.056" stroke="#f58518" stroke-width="2"/></g></g><path class="foreground" aria-hidden="true" d="" display="none"/></g><g transform="translate(0,0)"><path class="background" aria-hidden="true" d="M0,0h200v200h-200Z"/><g><g class="mark-line role-mark child_marks" role="graphics-object" aria-roledescription="line mark container"><path aria-label="Time: Aug 30, 2023; Price: 8995; item: HIKING_BACKPACK_PONCHO_-_Veste_imperméable_-_blue" role="graphics-symbol" aria-roledescription="line mark" d="M0,100.056L0.18,100.056L0.363,100.056L0.732,100.056L0.916,100.056L1.106,100.056L1.285,100.056L1.469,100.056L1.838,100.056L2.022,100.056L2.212,100.056L2.39,100.056L2.575,100.056L2.944,100.056L3.128,100.056L3.316,100.056L3.496,100.056L3.681,100.056L4.05,100.056L4.366,100.056L4.422,100.056L13.082,100.056L13.273,100.056L13.451,100.056L13.635,100.056L14.004,100.056L14.188,100.056L14.379,100.056L14.557,100.056L14.741,100.056L15.11,100.056L15.294,100.056L15.485,100.056L15.582,100.056L15.663,100.056L15.847,100.056L16.216,100.056L16.4,100.056L16.591,100.056L16.769,100.056L16.953,100.056L17.322,100.056L17.506,100.056L17.696,100.056L17.875,100.056L18.059,100.056L18.428,100.056L18.612,100.056L18.8,100.056L18.981,100.056L19.165,100.056L19.534,100.056L19.718,100.056L32.253,111.167L32.806,111.167L32.99,111.167L33.181,111.167L33.359,111.167L33.543,111.167L33.912,111.167L34.096,111.167L34.284,111.167L34.465,111.167L34.649,111.167L35.018,111.167L35.202,111.167L35.391,111.167L35.571,111.167L35.756,111.167L36.124,111.167L36.308,111.167L36.5,111.167L36.677,111.167L36.861,111.167L37.23,127.833L37.415,127.833L37.606,127.833L37.783,127.833L37.967,127.833L38.336,127.833L38.521,127.833L38.713,127.833L38.889,127.833L39.074,127.833L39.442,127.833L39.626,127.833L39.819,127.833L39.995,127.833L40.18,127.833L40.548,127.833L40.733,127.833L40.924,127.833L41.101,127.833L41.286,127.833L41.654,127.833L41.839,127.833L42.027,127.833L42.207,127.833L42.392,127.833L42.76,127.833L42.944,127.833L43.313,127.833L43.498,127.833L43.866,127.833" stroke="#b279a2" stroke-width="2"/></g></g><path class="foreground" aria-hidden="true" d="" display="none"/></g><g transform="translate(0,0)"><path class="background" aria-hidden="true" d="M0,0h200v200h-200Z"/><g><g class="mark-line role-mark child_marks" role="graphics-object" aria-roledescription="line mark container"><path aria-label="Time: Aug 30, 2023; Price: 16195; item: DESCHUTES_VALLEY™_RAIN_PONCHO_-_Parka_-_vista_blue" role="graphics-symbol" aria-roledescription="line mark" d="M0,20.056L0.18,20.056L0.363,20.056L0.732,20.056L0.916,20.056L1.106,20.056L1.285,20.056L1.469,20.056L1.838,20.056L2.022,20.056L2.212,20.056L2.39,20.056L2.575,20.056L2.944,20.056L3.128,20.056L3.316,20.056L3.496,20.056L3.681,20.056L4.05,20.056L4.366,20.056L4.422,20.056L4.603,20.056L4.787,20.056L5.156,20.056L5.34,20.056L5.531,20.056L5.708,20.056L5.893,20.056L6.263,80.056L6.447,80.056L6.637,80.056L6.815,80.056L6.999,80.056L7.368,80.056L7.552,80.056L7.743,80.056L7.921,80.056L8.105,80.056L8.474,80.056L8.658,80.056L8.848,80.056L9.027,80.056L9.211,80.056L9.696,80.056L9.764,80.056L9.954,80.056L10.132,80.056L10.317,80.056L10.685,80.056L10.87,80.056L11.058,80.056L11.239,80.056L11.423,80.056L11.792,80.056L11.976,80.056L12.164,80.056L12.344,80.056L12.529,80.056L12.897,80.056L13.082,80.056L13.273,80.056L13.451,80.056L13.635,80.056L14.004,80.056L14.188,80.056L14.379,80.056L14.557,80.056L14.741,80.056L15.11,20.056L15.294,20.056L15.485,20.056L15.582,20.056L15.663,20.056L15.847,20.056L16.216,20.056L16.4,20.056L16.591,20.056L16.769,20.056L16.953,20.056L17.322,20.056L17.506,20.056L17.696,20.056L17.875,20.056L18.059,20.056L18.428,20.056L18.612,20.056L18.8,20.056L18.981,20.056L19.165,20.056L19.534,20.056L19.718,20.056L19.906,20.056L20.087,20.056L20.271,20.056L20.64,20.056L20.824,20.056L21.015,20.056L21.193,20.056L21.377,20.056L21.746,20.056L21.93,20.056L22.121,20.056L22.299,20.056L22.483,20.056L22.852,20.056L23.036,20.056L23.227,20.056L23.405,20.056L23.589,20.056L23.958,20.056L24.142,20.056L24.333,20.056L24.511,20.056L24.695,20.056L25.064,20.056L25.248,20.056L25.439,20.056L25.617,20.056L25.801,20.056L26.17,20.056L26.354,20.056L26.542,20.056L26.723,20.056L26.907,20.056L27.276,20.056L27.46,20.056L27.648,20.056L27.829,20.056L28.013,20.056L28.382,20.056L28.566,20.056L28.758,20.056L28.935,20.056L29.119,20.056L29.488,20.056L29.673,20.056L29.864,20.056L30.041,20.056L30.225,20.056L30.594,40.056L30.778,40.056L30.969,40.056L31.147,40.056L31.332,40.056L31.7,40.056L31.884,40.056L32.075,40.056L32.253,40.056L32.806,40.056L32.99,40.056L33.181,40.056L33.359,40.056L33.543,40.056L33.912,40.056L34.096,40.056L34.284,40.056L34.465,40.056L34.649,40.056L35.018,40.056L35.202,40.056L35.391,40.056L35.571,40.056L35.756,40.056L36.124,90.056L36.308,90.056L36.5,90.056L36.677,90.056L36.861,90.056L37.23,40.056L37.415,40.056L37.606,40.056L37.783,40.056L37.967,40.056L38.336,40.056L38.521,40.056L38.713,40.056L38.889,40.056L39.074,40.056L39.442,40.056L39.626,40.056L39.819,40.056L39.995,40.056L40.18,40.056L40.548,40.056L40.733,40.056L40.924,40.056L41.101,40.056L41.286,40.056L41.654,40.056L41.839,40.056L42.027,40.056L42.207,40.056L42.392,40.056L42.76,40.056L42.944,40.056L43.313,40.056L43.498,40.056L43.866,40.056L44.051,40.056L44.243,40.056L44.419,40.056L44.604,40.056L44.972,90.056L45.157,90.056L45.349,90.056L45.525,90.056L45.71,90.056L46.078,90.056L46.263,90.056L46.454,90.056L46.631,90.056L46.816,90.056L47.184,90.056L47.369,90.056L47.56,90.056L47.738,90.056L47.922,90.056L48.291,90.056L48.475,90.056L48.666,90.056L48.844,90.056L49.028,90.056L49.396,40.056L49.581,40.056L49.769,40.056L49.949,40.056L50.134,40.056L50.502,40.056L50.687,40.056L50.875,40.056L51.055,40.056L51.24,40.056L51.609,100.056L51.793,100.056L51.984,100.056L52.162,100.056L52.346,100.056L52.715,100.056L52.899,100.056L53.09,100.056L53.268,100.056L53.452,100.056L53.821,100.056L54.005,100.056L54.196,100.056L54.374,100.056L54.558,100.056L54.927,100.056L55.111,100.056L55.302,100.056L55.48,100.056L55.664,100.056L56.033,100.056L56.217,100.056L56.408,100.056L56.585,100.056L56.77,100.056L57.139,100.056L57.323,100.056L57.511,100.056L57.692,100.056L57.876,100.056L58.245,100.056L58.429,100.056L58.617,100.056L58.797,100.056L58.982,100.056L59.35,100.056L59.535,100.056L59.726,100.056L59.904,100.056L60.088,100.056L60.457,40.056L60.641,40.056L60.832,40.056L61.01,40.056L61.194,40.056L61.563,40.056L61.747,40.056L61.938,40.056L62.116,40.056L62.3,40.056L62.669,40.056L62.853,40.056L63.043,40.056L63.222,40.056L63.406,40.056L63.775,40.056L63.96,40.056L64.149,40.056L64.328,40.056L64.512,40.056L64.881,40.056L65.065,40.056L65.253,40.056L65.434,40.056L65.618,40.056L65.987,40.056L66.171,40.056L66.36,40.056L66.54,40.056L66.724,40.056L67.093,40.056L67.277,40.056L67.467,40.056L67.646,40.056L67.83,40.056L68.199,40.056L68.383,40.056L68.573,40.056L68.752,40.056L68.936,40.056L69.305,40.056L69.489,40.056L69.679,40.056L69.858,40.056L70.042,40.056L70.411,40.056L70.595,40.056L70.785,40.056L70.964,40.056L71.148,40.056L71.517,40.056L71.701,40.056L71.892,40.056L72.07,40.056L72.254,40.056L72.623,40.056L72.807,40.056L72.996,40.056L73.176,40.056L73.36,40.056L73.729,40.056L73.913,40.056L74.102,40.056L74.282,40.056L74.466,40.056L74.835,40.056L75.019,40.056L75.211,40.056L75.388,40.056L75.572,40.056L75.941,40.056L76.126,40.056L76.316,40.056L76.494,40.056L76.678,40.056L77.047,40.056L77.231,40.056L77.422,40.056L77.6,40.056L77.784,40.056L78.153,40.056L78.337,40.056L78.527,40.056L78.706,40.056L78.89,40.056L79.259,40.056L79.444,40.056L79.634,40.056L79.812,40.056L79.996,40.056L80.365,40.056L80.55,40.056L80.738,40.056L81.102,40.056L81.471,40.056L81.655,40.056L81.844,40.056L82.024,40.056L82.208,40.056L82.577,40.056L82.761,40.056L82.952,40.056L83.13,40.056L83.683,40.056L83.868,40.056L84.058,40.056L84.236,40.056L84.42,40.056L84.789,40.056L84.973,40.056L85.165,40.056L85.342,40.056L85.526,40.056L85.895,120.056L86.079,120.056L86.271,120.056L86.448,120.056L86.633,120.056L87.001,120.056L87.186,120.056L87.377,120.056L87.554,120.056L87.738,120.056L88.107,40.056L88.291,40.056L88.481,40.056L88.66,40.056L88.845,40.056L89.213,40.056L89.398,40.056L89.587,40.056L89.766,40.056L89.951,40.056L90.319,50.056L90.504,50.056L90.696,70.056L90.872,70.056L91.057,70.056L91.425,70.056L91.61,70.056L91.801,70.056L91.978,70.056L92.162,70.056L92.531,70.056L92.716,70.056L92.907,70.056L93.084,70.056L93.269,70.056L93.637,120.056L93.822,120.056L94.013,120.056L94.19,120.056L94.375,120.056L94.743,120.056L94.928,120.056L95.118,120.056L95.296,120.056L95.481,120.056L95.849,120.056L96.034,120.056L96.223,120.056L96.402,120.056L96.587,120.056L96.955,120.056L97.14,120.056L97.329,120.056L97.508,120.056L97.693,120.056L98.061,40.056L98.246,40.056L98.438,40.056L98.614,40.056L98.799,40.056L99.167,40.056L99.352,40.056L99.542,40.056L99.721,40.056L99.905,40.056L100.274,40.056L100.458,40.056L100.649,40.056L100.827,40.056L101.011,40.056L101.38,40.056L101.564,40.056L101.755,40.056L101.932,40.056L102.117,40.056L102.485,40.056L102.67,40.056L102.861,40.056L103.039,40.056L103.223,40.056L103.592,40.056L103.776,40.056L103.964,40.056L104.145,40.056L104.329,40.056L104.697,40.056L104.882,40.056L105.071,40.056L105.251,40.056L105.435,40.056L105.803,40.056L105.988,40.056L106.179,40.056L106.357,40.056L106.541,40.056L106.91,100.056L107.094,100.056L107.285,100.056L107.463,100.056L107.647,100.056L108.016,100.056L108.2,100.056L108.391,100.056L108.569,100.056L108.753,100.056L109.122,100.056L109.306,100.056L109.497,100.056L109.675,100.056L109.859,100.056L110.228,100.056L110.412,100.056L110.602,100.056L110.781,100.056L110.965,100.056L111.334,100.056L111.518,100.056L111.707,100.056L111.887,100.056L112.071,100.056L112.44,100.056L112.624,100.056L112.813,100.056L112.993,100.056L113.177,100.056L113.546,100.056L113.73,100.056L113.922,100.056L114.099,100.056L114.283,100.056L114.652,100.056L114.836,100.056L115.027,100.056L115.205,100.056L115.389,100.056L115.758,100.056L115.942,100.056L116.134,100.056L116.311,100.056L116.495,100.056L116.864,100.056L117.048,100.056L117.24,100.056L117.417,100.056L117.601,100.056L117.97,100.056L118.154,100.056L118.345,100.056L118.523,100.056L118.707,100.056L119.076,100.056L119.26,100.056L119.449,100.056L119.629,100.056L119.813,100.056L120.182,90.056L120.366,90.056L120.555,90.056L120.735,90.056L120.919,90.056L121.288,90.056L121.472,90.056L121.664,90.056L121.841,90.056L122.025,90.056L122.394,90.056L122.578,90.056L122.769,90.056L122.947,90.056L123.131,90.056L123.5,90.056L123.684,90.056L123.87,90.056L124.053,90.056L124.237,90.056L124.606,60.056L124.79,60.056L125.159,60.056L125.343,60.056L125.712,60.056L125.897,60.056L126.086,60.056L126.265,60.056L126.449,60.056L126.818,60.056L127.002,60.056L127.191,60.056L127.371,60.056L127.555,60.056L127.924,60.056L128.108,60.056L128.297,60.056L128.477,60.056L128.662,60.056L129.03,60.056L129.215,60.056L129.404,60.056L129.583,60.056L129.767,60.056L130.136,60.056L130.32,60.056L130.509,60.056L130.689,60.056L130.873,60.056L131.242,60.056L131.427,60.056L131.616,60.056L131.795,60.056L131.979,60.056L132.348,60.056L132.533,60.056L132.722,60.056L132.901,60.056L133.086,60.056L133.454,60.056L133.638,60.056L133.828,60.056L134.008,60.056L134.192,60.056L134.56,60.056L134.745,60.056L134.933,60.056L135.113,60.056L135.298,60.056L135.666,60.056L135.851,60.056L136.039,60.056L136.219,60.056L136.404,60.056L136.772,60.056L136.957,60.056L137.146,60.056L137.325,60.056L137.51,60.056L137.878,60.056L138.063,60.056L138.252,60.056L138.431,60.056L138.616,60.056L138.984,90.056L139.169,90.056L139.359,90.056L139.537,90.056L139.722,90.056L140.091,90.056L140.275,90.056L140.465,90.056L140.643,90.056L140.828,90.056L141.196,90.056L141.381,90.056L141.571,90.056L141.75,90.056L141.934,90.056L142.303,100.056L142.487,100.056L142.677,100.056L142.855,100.056L143.04,100.056L143.408,90.056L143.593,90.056L143.782,90.056L143.962,90.056L144.146,90.056L144.515,100.056L144.699,100.056L144.89,100.056L145.067,100.056L145.252,100.056L145.62,100.056L145.805,100.056L145.999,100.056L146.174,100.056L146.358,100.056L146.727,100.056L146.911,100.056L147.102,100.056L147.28,100.056L147.464,100.056L147.833,90.056L148.017,90.056L148.208,90.056L148.386,90.056L148.57,90.056L148.939,90.056L149.123,90.056L149.314,90.056L149.492,90.056L149.676,90.056L150.045,90.056L150.229,90.056L150.418,90.056L150.598,90.056L150.782,90.056L151.151,100.056L151.335,100.056L151.524,100.056L151.704,100.056L151.888,100.056L152.257,90.056L152.441,90.056L152.632,90.056L152.81,90.056L152.994,90.056L153.363,100.056L153.547,100.056L153.738,100.056L153.916,100.056L154.1,100.056L154.469,100.056L154.653,100.056L154.844,100.056L155.022,100.056L155.206,100.056L155.575,100.056L155.759,100.056L155.95,100.056L156.128,100.056L156.312,100.056L156.681,100.056L156.865,100.056L157.056,100.056L157.234,100.056L157.418,100.056L157.787,100.056L157.971,100.056L158.16,100.056L158.34,100.056L158.524,100.056L159.077,100.056L159.267,100.056L159.446,100.056L159.63,100.056L159.999,100.056L160.183,100.056L160.375,100.056L160.552,100.056L160.736,100.056L161.105,130.056L161.289,130.056L161.481,130.056L161.658,130.056L161.842,130.056L162.211,130.056L162.395,130.056L162.587,130.056L162.764,130.056L162.948,130.056L163.317,130.056L163.501,130.056L163.693,130.056L163.87,130.056L164.054,130.056L164.423,130.056L164.607,130.056L164.796,130.056L164.976,130.056L165.16,130.056L165.529,130.056L165.713,130.056L165.899,130.056L166.082,130.056L166.266,130.056L166.635,130.056L166.819,130.056L167.006,130.056L167.188,130.056L167.372,130.056L167.741,60.056L167.925,60.056L168.113,60.056L168.294,60.056L168.478,60.056L168.847,60.056L169.031,60.056L169.219,60.056L169.4,80.056L169.585,80.056L169.953,80.056L170.137,80.056L170.325,100.056L170.506,100.056L170.691,100.056L171.059,60.056L171.243,60.056L171.432,60.056L171.612,60.056L171.796,60.056L172.165,60.056L172.349,60.056L172.537,60.056L172.718,60.056L172.903,60.056L173.271,60.056L173.455,60.056L173.642,60.056L173.824,60.056L174.008,60.056L174.377,60.056L174.562,60.056L174.748,60.056L174.93,60.056L175.115,60.056L175.483,60.056L175.668,60.056L175.856,60.056L176.036,60.056L176.221,60.056L176.589,60.056L176.774,60.056L176.961,60.056L177.143,60.056L177.327,60.056L177.695,60.056L177.88,60.056L178.067,60.056L178.248,60.056L178.433,60.056L178.801,60.056L178.986,60.056L179.173,60.056L179.354,60.056L179.539,60.056L179.907,60.056L180.092,60.056L180.279,60.056L180.46,60.056L180.645,60.056L181.013,60.056L181.198,60.056L181.384,60.056L181.567,60.056L181.751,60.056L182.119,60.056L182.304,60.056L182.49,60.056L182.673,60.056L182.857,60.056L183.225,60.056L183.41,60.056L183.598,60.056L183.778,60.056L183.963,60.056L184.331,60.056L184.516,60.056L184.704,60.056L184.885,60.056L185.069,60.056L185.437,60.056L185.622,60.056L185.81,60.056L185.99,60.056L186.175,60.056L186.543,60.056L186.728,60.056L186.915,60.056L187.097,60.056L187.281,60.056L187.649,60.056L187.834,60.056L188.022,60.056L188.202,60.056L188.387,60.056L188.756,60.056L188.94,60.056L189.126,60.056L189.309,60.056L189.493,60.056L189.862,60.056L190.046,60.056L190.232,60.056L190.415,60.056L190.599,60.056L190.967,60.056L191.152,60.056L191.34,60.056L191.521,60.056L191.705,60.056L192.074,60.056L192.258,60.056L192.445,60.056L192.627,60.056L192.811,60.056L193.18,90.056L193.364,90.056L193.552,90.056L193.733,90.056L193.917,90.056L194.286,90.056L194.47,90.056L194.658,90.056L194.839,90.056L195.023,90.056L195.392,90.056L195.576,90.056L195.763,90.056L195.945,90.056L196.129,90.056L196.498,90.056L196.682,90.056L196.868,90.056L197.051,90.056L197.235,90.056L197.604,100.056L197.788,100.056L197.974,100.056L198.157,100.056L198.341,100.056L198.71,100.056L198.894,100.056L199.082,100.056L199.263,100.056L199.447,100.056L199.816,70.056L200,70.056" stroke="#e45756" stroke-width="2"/></g></g><path class="foreground" aria-hidden="true" d="" display="none"/></g><g transform="translate(0,0)"><path class="background" aria-hidden="true" d="M0,0h200v200h-200Z"/><g><g class="mark-line role-mark child_marks" role="graphics-object" aria-roledescription="line mark container"><path aria-label="Time: Aug 30, 2023; Price: 5495; item: COVERO_PONCHO_II_-_Cape_-_lightgrey" role="graphics-symbol" aria-roledescription="line mark" d="M0,138.944L0.18,138.944L0.363,138.944L0.732,138.944L0.916,138.944L1.106,138.944L1.285,138.944L1.469,138.944L1.838,138.944L2.022,138.944L3.128,138.944L3.316,138.944L3.496,138.944L3.681,138.944L4.05,138.944L4.366,138.944L4.422,138.944L4.603,138.944L4.787,138.944L5.156,138.944L5.34,138.944L5.531,138.944L5.708,138.944L5.893,138.944L6.263,138.944L6.447,138.944L6.637,138.944L6.815,138.944L6.999,138.944L10.132,153.944L11.976,138.944L12.164,138.944L12.344,138.944L12.529,138.944L12.897,138.944L13.082,138.944L13.273,138.944L13.451,138.944L13.635,138.944L14.004,138.944L14.188,138.944L14.379,138.944L14.557,138.944L14.741,138.944L15.11,138.944L15.294,138.944L15.485,138.944L15.582,138.944L15.663,138.944L15.847,138.944L16.216,138.944L16.4,138.944L16.591,138.944L16.769,138.944L16.953,138.944L17.322,138.944L17.506,138.944L17.696,138.944L17.875,138.944L18.059,138.944L18.428,138.944L18.612,138.944L18.8,138.944L18.981,138.944L19.165,138.944L19.534,138.944L19.718,138.944L19.906,138.944L20.087,138.944L20.271,138.944L20.64,138.944L20.824,138.944L21.015,138.944L21.193,138.944L21.377,138.944L21.746,138.944L21.93,138.944L22.121,138.944L22.299,138.944L22.483,138.944L22.852,151.167L23.036,151.167L23.227,151.167L23.405,151.167L23.589,151.167L23.958,151.167L24.142,151.167L24.334,151.167L24.511,151.167L24.695,151.167L25.064,151.167L25.248,151.167L25.439,151.167L26.354,151.167L26.542,151.167L26.723,151.167L26.907,151.167L27.276,151.167L27.46,151.167L27.648,151.167L27.829,151.167L28.013,151.167L28.382,151.167L28.566,151.167L28.758,151.167L28.935,151.167L29.119,151.167L29.488,151.167L29.673,151.167L29.864,151.167L30.041,151.167L30.225,151.167L30.594,151.167L30.778,151.167L30.969,151.167L31.147,151.167L31.332,151.167L31.7,151.167L31.884,151.167L32.075,151.167L32.253,151.167L32.806,151.167L32.99,151.167L33.181,151.167L33.359,151.167L33.543,151.167L33.912,151.167L34.096,151.167L34.285,151.167L34.465,151.167L34.649,151.167L35.018,151.167L35.202,151.167L35.391,151.167L35.571,151.167L35.756,151.167L36.124,151.167L36.308,151.167L36.5,151.167L36.677,151.167L36.861,151.167L37.23,151.167L37.415,151.167L37.606,151.167L37.783,151.167L37.967,151.167L38.336,151.167L38.521,151.167L38.713,151.167L38.889,151.167L39.074,151.167L39.442,151.167L39.626,151.167L39.819,151.167L39.995,151.167L40.18,151.167L40.548,151.167L40.733,151.167L40.924,151.167L41.101,151.167L41.286,151.167L41.839,151.167L42.027,151.167L42.76,151.167L42.944,151.167L43.314,151.167L43.498,151.167L44.419,151.167L44.604,151.167L44.972,151.167L45.157,151.167L45.349,151.167L45.71,151.167L46.078,138.944L46.263,138.944L46.454,138.944L46.631,138.944L46.816,138.944L48.844,138.944L49.949,153.944L52.346,153.944L52.715,153.944L53.268,153.944L53.821,153.944L54.374,153.944L54.558,153.944L55.111,153.944L56.585,153.944L56.77,153.944L57.139,153.944L58.617,153.944L58.797,153.944L58.982,153.944L59.35,153.944L59.904,153.944L60.088,153.944L60.457,153.944L60.641,153.944L60.832,153.944L61.194,153.944L61.747,153.944L61.938,153.944L62.116,153.944L62.669,153.944L62.853,153.944L63.222,153.944L64.328,153.944L64.512,153.944L64.881,153.944L65.253,153.944L65.434,153.944L65.618,153.944L66.171,153.944L66.36,153.944L66.54,153.944L67.093,153.944L67.277,153.944L67.467,153.944L67.646,153.944L67.83,153.944L68.199,153.944L68.383,153.944L68.573,153.944L68.752,153.944L68.936,153.944L69.305,153.944L70.595,153.944L70.785,153.944L70.964,153.944L71.148,153.944L71.701,153.944L71.892,153.944L72.07,153.944L72.254,153.944L72.623,145.611L72.807,145.611L76.678,145.611L77.047,145.611L77.231,145.611L77.422,145.611L77.6,145.611L77.784,145.611L78.337,145.611L78.527,145.611L78.706,145.611L78.89,145.611L79.259,145.611L79.634,145.611L79.996,145.611L80.55,145.611L80.738,145.611L81.102,145.611L81.471,145.611L81.655,145.611L81.844,145.611L82.024,145.611L82.208,145.611L82.577,138.944L82.952,138.944L83.683,138.944L83.868,138.944L84.058,138.944L84.236,138.944L84.42,138.944L84.789,138.944L84.973,138.944L85.165,138.944L85.342,138.944L85.526,138.944L86.079,153.944L86.271,153.944L86.448,153.944L86.633,153.944L87.001,153.944L87.554,153.944L87.738,153.944L88.107,153.944L88.291,153.944L88.481,153.944L88.66,160.056L90.504,138.944L90.696,138.944L90.872,138.944L91.057,138.944L91.425,138.944L91.61,138.944L91.801,138.944L91.978,138.944L92.162,138.944L92.531,138.944L92.716,138.944L92.907,138.944L93.084,138.944L93.269,138.944L93.822,163.389L102.861,138.944L103.592,138.944L104.145,138.944L104.882,138.944L105.988,138.944L106.179,138.944L106.357,138.944L106.541,138.944L106.91,138.944L108.2,138.944L109.122,138.944L110.781,138.944L111.518,138.944L111.707,138.944L111.887,138.944L112.071,138.944L112.44,138.944L112.813,138.944L113.73,138.944L113.922,138.944L114.099,138.944L114.283,138.944L115.027,138.944L115.758,138.944L117.24,138.944L118.154,138.944L118.523,138.944L118.707,138.944L119.076,138.944L119.629,138.944L119.813,138.944L120.182,138.944" stroke="#f58518" stroke-width="2"/></g></g><path class="foreground" aria-hidden="true" d="" display="none"/></g><g transform="translate(0,0)"><path class="background" aria-hidden="true" d="M0,0h200v200h-200Z"/><g><g class="mark-line role-mark child_marks" role="graphics-object" aria-roledescription="line mark container"><path aria-label="Time: Sep 01, 2023; Price: 12995; item: KUURA_3L_PONCHO_UNISEX_-_Veste_imperméable_-_green" role="graphics-symbol" aria-roledescription="line mark" d="M2.575,55.611L2.944,55.611L3.128,55.611L3.316,55.611L5.34,55.611L5.531,55.611L5.708,55.611L5.893,55.611L6.263,11.167L6.447,11.167L6.637,11.167L6.815,11.167L6.999,11.167L7.368,11.167L7.552,11.167L7.743,11.167L7.921,11.167L8.105,11.167L8.474,11.167L8.658,11.167L8.848,11.167L9.027,11.167L9.211,11.167L9.696,11.167L9.764,11.167L9.954,11.167L10.132,11.167L10.317,11.167L10.685,11.167L10.87,11.167L11.058,11.167L11.239,11.167L11.423,11.167L11.792,11.167L11.976,11.167L12.164,11.167L12.344,11.167L12.529,11.167L12.897,11.167L13.082,11.167L13.273,11.167L13.451,11.167L14.004,11.167L14.188,11.167L14.379,11.167L14.557,11.167L14.741,11.167L18.8,22.278L18.981,22.278L19.165,22.278L19.534,22.278L19.718,22.278L19.906,22.278L20.087,22.278L20.271,22.278L20.64,22.278L20.824,22.278L21.015,22.278L21.93,22.278L22.121,22.278L22.299,22.278L22.483,22.278L22.852,22.278L23.036,22.278L37.783,22.278L37.967,22.278L38.336,22.278L38.521,22.278L38.713,22.278L38.889,22.278L39.074,22.278L39.442,22.278L39.626,22.278L39.819,22.278L39.995,22.278L40.18,22.278L40.548,22.278L40.733,22.278L40.924,22.278L41.101,22.278L41.286,22.278L41.654,22.278L41.839,22.278L42.027,22.278L42.207,22.278L42.392,22.278L59.35,22.278L59.535,22.278L59.726,22.278L59.904,22.278L60.088,22.278L60.457,22.278L60.641,22.278L60.832,22.278L61.01,22.278" stroke="#4c78a8" stroke-width="2"/></g></g><path class="foreground" aria-hidden="true" d="" display="none"/></g><g transform="translate(0,0)"><path class="background" aria-hidden="true" d="M0,0h200v200h-200Z"/><g><g class="mark-line role-mark child_marks" role="graphics-object" aria-roledescription="line mark container"><path aria-label="Time: Sep 14, 2023; Price: 6495; item: PARIS_ST._GERMAIN_CITY_MADE_PONCHO_-_Veste_de_survêtement_-_aura_white" role="graphics-symbol" aria-roledescription="line mark" d="M16.216,127.833L16.4,127.833L16.591,127.833L16.769,127.833L16.953,127.833L17.322,127.833L17.506,127.833L18.428,127.833L19.718,127.833L19.906,127.833L20.087,127.833L20.271,127.833L20.64,127.833L20.824,127.833L21.015,127.833L21.193,127.833L21.377,127.833L21.746,127.833L21.93,127.833L22.121,127.833L22.299,127.833L22.483,127.833L22.852,127.833L23.036,127.833L23.227,127.833L23.405,127.833L23.589,127.833L23.958,127.833L24.142,127.833L24.333,127.833L24.511,127.833L24.695,127.833L25.064,127.833L25.248,127.833L25.439,127.833L25.617,127.833L25.801,127.833L26.17,127.833L26.354,127.833L26.542,127.833L26.723,127.833L26.907,127.833L27.276,127.833L27.46,127.833L27.648,127.833L27.829,127.833L28.013,127.833L28.382,127.833L28.566,127.833L28.758,127.833L28.935,127.833L29.119,127.833L29.488,127.833L29.673,127.833L29.864,127.833" stroke="#bab0ac" stroke-width="2"/></g></g><path class="foreground" aria-hidden="true" d="" display="none"/></g><g transform="translate(0,0)"><path class="background" aria-hidden="true" d="M0,0h200v200h-200Z"/><g><g class="mark-line role-mark child_marks" role="graphics-object" aria-roledescription="line mark container"><path aria-label="Time: Sep 18, 2023; Price: 8995; item: HIKING_BACKPACK_PONCHO_-_Veste_imperméable_-_indian_red" role="graphics-symbol" aria-roledescription="line mark" d="M20.64,100.056L20.824,100.056L21.015,100.056L21.193,100.056L21.377,100.056L21.746,100.056L21.93,100.056L28.935,100.056L29.119,100.056L29.488,100.056L29.673,100.056L29.864,100.056L30.041,100.056L30.225,100.056L30.594,111.167L30.778,111.167L30.969,111.167L31.147,111.167L48.666,111.167L48.844,111.167L49.028,111.167L49.397,111.167L49.581,111.167L49.769,111.167L49.949,111.167L50.134,111.167L50.502,111.167L123.87,122.278L124.053,122.278L124.237,122.278L124.606,111.167L124.79,111.167" stroke="#ff9da6" stroke-width="2"/></g></g><path class="foreground" aria-hidden="true" d="" display="none"/></g><g transform="translate(0,0)"><path class="background" aria-hidden="true" d="M0,0h200v200h-200Z"/><g><g class="mark-line role-mark child_marks" role="graphics-object" aria-roledescription="line mark container"><path aria-label="Time: Sep 26, 2023; Price: 6495; item: PSG_M_NSW_CITY_MADE_PONCHO_-_Veste_de_survêtement_-_aura_white" role="graphics-symbol" aria-roledescription="line mark" d="M30.041,127.833L30.225,127.833L30.594,91.167L30.778,91.167L30.969,91.167L31.147,91.167L31.332,91.167L31.7,91.167L31.884,91.167L32.075,91.167L32.253,91.167L32.806,91.167L32.99,91.167L33.181,91.167L33.359,91.167L33.543,91.167L33.912,91.167L34.096,91.167L34.285,91.167L34.465,91.167L34.649,91.167L35.018,91.167L35.202,91.167L35.391,91.167L35.571,91.167L35.756,91.167L36.124,127.833L36.308,127.833L36.5,127.833L36.677,127.833L36.861,127.833L37.23,127.833L37.415,127.833L37.606,127.833L37.783,127.833L37.967,127.833L38.336,127.833L38.521,127.833L38.713,127.833L38.889,127.833L39.074,127.833L39.442,127.833L39.626,127.833L39.819,127.833L39.995,127.833L40.18,127.833L40.548,127.833L40.733,127.833L40.924,127.833L41.101,127.833L41.286,127.833L41.654,127.833L41.839,127.833L42.027,127.833L42.207,127.833L42.392,127.833L42.76,127.833L42.944,127.833L43.313,127.833L43.498,127.833L43.866,127.833L44.051,127.833L44.243,127.833L44.419,127.833L44.604,127.833L44.972,84.5L45.157,84.5L45.349,84.5L45.71,84.5L46.078,84.5L46.263,84.5L46.454,84.5L46.631,84.5L46.816,84.5L47.184,84.5L47.369,84.5L48.291,84.5L48.844,84.5L49.949,127.833L50.502,127.833L51.793,127.833L51.984,127.833L58.982,127.833L59.35,127.833L59.535,127.833L59.726,127.833L60.641,127.833L60.832,127.833L62.116,127.833L62.3,127.833L63.043,127.833L63.406,127.833L63.775,127.833L64.149,127.833L65.065,127.833L65.618,127.833L65.987,127.833L66.171,127.833L66.36,127.833L66.724,127.833L67.277,127.833L67.83,127.833L68.199,127.833L68.383,127.833L68.573,127.833L68.752,127.833L68.936,127.833L69.305,127.833L69.489,127.833L69.679,127.833L69.858,127.833L70.042,127.833L70.411,127.833L70.595,127.833L70.785,127.833L70.964,127.833L71.148,127.833L71.517,127.833L71.701,127.833L71.892,127.833L72.07,127.833L72.254,127.833L72.623,127.833L72.807,127.833L72.996,127.833L73.176,127.833L73.36,127.833L73.729,127.833L73.913,127.833L74.102,127.833L74.282,127.833L74.466,127.833L74.835,127.833L75.019,127.833L75.211,127.833L75.388,127.833L75.572,127.833L75.941,127.833L76.126,127.833L76.316,127.833L76.494,127.833L76.678,127.833L77.047,127.833L77.422,127.833L77.6,127.833L77.784,127.833L78.527,127.833L78.706,127.833L79.259,84.5L79.634,84.5L79.996,84.5L81.102,84.5L82.208,84.5L82.952,127.833L83.683,127.833L83.868,127.833L84.058,127.833L84.42,127.833L84.789,127.833L84.973,127.833L85.165,127.833L85.342,127.833L86.079,156.722L88.291,127.833L88.481,127.833L89.213,127.833L91.057,105.611L91.425,105.611L92.907,105.611L93.084,105.611L93.822,148.944L96.587,148.944L96.955,148.944L98.799,120.056L99.167,127.833L99.905,127.833L100.649,127.833L101.755,127.833L102.117,127.833L102.861,91.167L103.592,91.167L104.145,91.167L104.882,127.833L106.179,91.167L108.2,127.833L110.781,127.833L111.707,127.833L112.071,127.833L112.813,127.833L113.73,127.833L113.922,127.833L114.099,127.833L114.283,127.833L114.652,127.833L114.836,127.833L115.027,127.833L115.205,127.833L115.389,127.833L115.758,127.833L118.154,127.833L118.523,127.833L118.707,127.833L119.076,127.833L119.629,127.833L120.366,120.056L120.555,120.056L120.735,120.056L120.919,120.056L121.288,120.056L121.664,120.056L122.025,120.056L122.394,120.056L122.578,120.056L122.769,120.056L122.947,120.056L123.131,120.056L123.5,120.056L123.684,120.056L123.87,120.056L124.053,120.056L124.237,120.056L124.606,98.944L125.159,98.944L125.712,98.944L125.897,98.944L126.086,98.944L126.265,98.944L126.449,98.944L126.818,98.944L127.002,98.944L127.191,98.944L127.371,98.944L127.555,98.944L127.924,98.944L128.108,98.944L128.297,98.944L128.477,98.944L128.662,98.944L129.03,98.944L129.215,98.944L129.404,98.944L129.583,98.944L129.768,98.944L130.136,98.944L130.32,98.944L130.689,98.944L130.873,98.944L131.242,98.944L131.427,98.944L131.616,98.944L131.979,98.944L132.533,98.944L132.722,98.944L132.901,98.944L133.454,98.944L134.008,98.944L134.56,98.944L134.745,98.944L134.933,98.944L135.298,98.944L135.666,98.944L136.039,98.944L136.219,98.944L136.404,98.944L136.772,98.944L136.957,98.944L137.146,98.944L137.325,98.944L137.51,98.944L137.878,98.944L138.431,98.944L138.984,120.056L139.169,120.056L139.537,120.056L139.722,120.056L140.091,120.056L140.465,120.056L140.643,120.056L140.828,120.056L141.381,120.056L141.571,120.056L141.75,120.056L141.934,120.056L142.303,120.056L142.487,120.056L142.677,120.056L142.855,120.056L143.04,120.056L143.409,120.056L143.593,120.056L143.782,120.056L143.962,120.056L144.146,120.056L144.515,120.056L144.89,120.056L145.252,120.056L145.62,120.056L146.358,120.056L146.911,120.056L148.017,120.056L148.208,120.056L148.386,120.056L148.57,120.056L148.939,120.056L149.123,120.056L149.314,120.056L149.492,120.056L149.676,120.056L150.045,120.056L150.229,120.056L150.418,120.056L150.598,120.056L150.782,120.056L151.151,120.056L151.888,120.056L152.632,98.944L152.994,98.944L154.1,98.944L154.844,98.944L155.759,98.944L155.95,98.944L156.128,98.944L156.312,98.944L156.681,98.944L156.865,98.944L157.056,98.944L157.234,98.944L157.418,98.944L157.787,98.944L157.971,98.944L158.16,98.944L158.34,98.944L158.524,98.944L159.077,98.944L159.267,98.944L159.446,98.944L159.63,98.944L159.999,98.944L160.183,98.944L160.375,98.944L160.552,98.944L160.736,98.944L161.105,98.944L161.289,98.944L161.481,98.944L161.658,98.944L161.842,98.944L162.211,98.944L162.395,98.944L162.587,98.944L162.764,98.944L162.948,98.944L163.317,98.944L163.501,98.944L163.693,98.944L163.87,98.944L164.054,98.944L164.423,98.944L164.607,98.944L164.796,98.944L164.976,98.944L165.16,98.944L165.529,98.944L165.713,98.944L165.899,98.944L166.082,98.944L166.266,98.944L166.635,98.944L166.819,98.944L167.006,98.944L167.188,98.944L167.372,98.944L167.741,98.944L167.925,98.944L168.113,98.944L168.294,98.944L168.478,98.944L168.847,98.944L169.031,98.944L169.219,98.944L169.4,98.944L169.585,98.944L169.953,98.944L170.137,98.944L170.325,98.944L170.506,98.944L170.691,98.944L171.059,98.944L171.243,98.944L171.432,98.944L171.612,98.944L171.796,98.944L172.165,98.944L172.349,98.944L172.537,98.944L172.718,98.944L172.903,98.944L173.271,98.944L173.455,98.944L173.642,98.944L179.173,98.944L179.354,98.944L179.539,98.944L179.907,98.944L180.092,98.944L180.279,98.944L180.46,98.944L180.645,98.944L181.013,98.944L181.198,98.944L181.384,98.944L181.567,98.944L181.751,98.944L182.119,98.944L182.304,98.944L182.49,98.944L182.673,98.944L182.857,98.944L183.225,98.944L183.41,98.944L183.598,98.944L183.778,98.944L183.963,98.944L184.331,98.944L184.516,98.944L184.704,98.944L184.885,98.944L185.069,98.944L185.437,98.944L185.622,98.944L185.81,98.944L185.99,98.944L186.175,98.944L186.543,98.944L186.728,98.944L186.915,98.944L187.097,98.944L187.281,98.944L187.649,98.944L187.834,98.944L188.022,98.944L188.202,98.944L188.387,98.944L188.756,98.944L188.94,98.944L189.126,98.944L189.309,98.944L189.493,98.944L189.862,98.944L190.046,98.944L190.232,98.944L190.415,98.944L190.599,98.944L190.967,98.944L191.152,98.944L191.34,98.944" stroke="#54a24b" stroke-width="2"/></g></g><path class="foreground" aria-hidden="true" d="" display="none"/></g><g transform="translate(0,0)"><path class="background" aria-hidden="true" d="M0,0h200v200h-200Z"/><g><g class="mark-line role-mark child_marks" role="graphics-object" aria-roledescription="line mark container"><path aria-label="Time: Oct 12, 2023; Price: 4995; item: SHOWERPROOF_PONCHO_UNISEX_-_Cape_-_classic_tartan" role="graphics-symbol" aria-roledescription="line mark" d="M47.184,144.5L47.369,144.5L47.56,144.5L47.738,144.5L47.922,144.5L48.291,144.5L48.475,144.5L48.666,144.5L48.844,144.5L49.028,144.5L49.397,144.5L49.581,144.5L49.769,144.5L49.949,144.5L50.134,144.5L50.502,144.5L50.687,144.5L50.875,144.5L51.055,144.5L51.24,144.5L51.609,152.611L51.793,152.611L51.984,152.611L52.162,152.611L52.346,152.611L52.715,152.611L52.899,152.611L53.09,152.611L53.268,152.611L53.452,152.611L53.821,152.611L54.005,152.611L54.196,152.611L54.374,152.611L54.558,152.611L54.927,152.611L55.111,152.611L55.302,152.611L55.48,152.611L55.664,152.611L56.033,152.611L56.217,152.611L56.408,152.611L56.585,152.611L56.77,152.611L57.139,152.611L57.323,152.611L57.511,152.611L57.692,152.611L57.876,152.611L58.245,144.5L58.429,144.5L58.617,144.5L58.797,144.5L58.982,144.5L59.35,144.5L59.535,144.5L59.726,144.5L59.904,144.5L60.088,144.5L60.457,152.611L60.641,152.611L60.832,152.611L61.01,152.611L61.194,152.611L61.563,152.611L61.747,152.611L61.938,152.611L62.116,152.611L62.3,152.611L62.669,152.611L62.853,152.611L63.043,152.611L63.222,152.611L63.406,152.611L63.775,152.611L63.96,152.611L64.149,152.611L64.328,152.611L64.512,152.611L64.881,152.611L65.065,152.611L65.253,152.611L65.434,152.611L65.618,152.611L65.987,152.611L66.171,152.611L66.36,152.611L66.54,152.611L66.724,152.611L67.093,144.5L67.277,144.5L67.467,144.5L67.646,144.5L67.83,144.5L68.199,144.5L68.383,144.5L68.573,144.5L68.752,144.5L68.936,144.5L69.305,152.611L69.489,152.611L69.679,152.611L69.858,152.611L70.042,152.611L70.411,152.611L70.595,152.611L70.785,152.611L70.964,152.611L71.148,152.611L71.517,152.611L71.701,152.611L71.892,152.611L72.07,152.611L72.254,152.611L72.623,152.611L72.807,152.611L72.996,152.611L73.176,152.611L73.36,152.611L73.729,152.611L73.913,152.611L74.102,152.611L74.282,152.611L74.466,152.611L74.835,152.611L75.019,152.611L75.211,152.611L75.388,152.611L75.572,152.611L75.941,150.056L76.126,144.5L76.316,144.5L76.494,144.5L76.678,144.5L77.047,144.5L77.231,144.5L77.422,144.5L77.6,144.5L77.784,144.5L78.153,144.5L78.337,144.5L78.527,144.5L78.706,144.5L78.89,144.5L79.259,144.5L79.444,144.5L79.634,144.5L79.812,144.5L79.996,144.5L80.365,144.5L80.55,144.5L80.738,144.5L81.102,144.5L81.471,144.5L81.655,144.5L81.844,144.5L82.024,144.5L82.208,144.5L82.577,144.5L82.761,144.5L82.952,144.5L83.13,144.5L83.683,144.5L83.868,144.5L84.058,144.5L84.236,144.5L84.42,144.5L84.789,144.5L84.973,144.5L85.165,144.5L85.342,144.5L85.526,144.5L85.895,144.5L86.079,144.5L86.271,144.5L86.448,144.5L86.633,144.5L87.001,144.5L87.186,144.5L87.377,144.5L87.554,144.5L87.738,144.5L88.107,144.5L88.291,144.5L88.481,144.5L88.66,144.5L88.845,144.5L89.213,144.5L89.398,144.5L89.587,144.5L89.766,144.5L89.951,144.5L90.319,144.5L90.504,144.5L90.696,144.5L90.872,144.5L91.057,144.5L91.425,144.5L91.61,144.5L91.801,144.5L91.978,144.5L92.162,144.5L92.531,144.5L92.716,144.5L92.907,144.5L93.084,144.5L93.269,144.5L106.357,144.5L106.541,144.5L106.91,144.5L107.094,144.5L107.285,144.5L107.463,144.5L107.647,144.5L108.016,144.5L108.2,144.5L108.391,144.5L108.569,144.5L108.753,144.5L109.122,144.5L109.306,144.5L109.497,144.5L109.675,144.5L109.859,144.5L110.228,144.5L110.412,144.5L110.602,144.5L110.781,144.5L110.965,144.5L111.334,144.5L111.518,144.5L111.707,144.5L111.887,144.5L112.071,144.5L112.44,144.5L112.624,144.5L112.813,144.5L112.993,144.5L113.177,144.5L113.546,144.5L113.73,144.5L113.922,144.5L114.099,144.5L114.283,144.5L114.652,144.5L114.836,144.5L115.027,144.5L115.205,144.5L115.389,144.5L115.758,144.5L115.942,144.5L116.134,144.5L116.311,144.5L116.495,144.5L116.864,144.5L117.048,144.5L117.24,144.5L117.417,144.5L117.601,144.5L117.97,144.5L118.154,144.5L118.345,144.5L118.523,144.5L118.707,144.5L119.076,144.5L119.26,144.5L119.449,144.5L119.629,144.5L119.813,144.5L120.182,144.5L120.366,144.5L120.555,144.5L120.735,144.5L120.919,144.5L121.288,144.5L121.472,144.5L121.664,144.5L121.841,144.5L122.025,144.5L122.394,158.167L122.578,158.167L122.769,158.167L122.947,158.167L123.131,158.167L123.5,158.167L123.684,158.167L123.87,158.167L124.053,158.167L124.237,158.167L124.606,144.5L124.79,144.5L125.159,144.5L125.343,144.5L125.712,144.5L125.897,144.5L126.086,144.5L126.265,144.5L126.449,144.5L126.818,144.5L127.002,144.5L127.191,144.5L127.371,144.5L127.555,144.5L127.924,144.5L128.108,144.5L128.297,144.5L128.477,144.5L128.662,144.5L129.03,144.5L129.215,144.5L129.404,144.5L129.583,144.5L129.767,144.5L130.136,144.5L130.32,144.5L130.509,144.5L130.689,144.5L130.873,144.5L131.242,144.5L131.427,144.5L131.616,144.5L131.795,144.5L131.979,144.5L132.348,144.5L132.533,144.5L132.722,144.5L132.901,144.5L133.086,144.5L133.454,144.5L133.639,144.5L133.828,144.5L134.008,144.5L134.192,144.5L134.56,144.5L134.745,144.5L134.933,144.5L135.113,144.5L135.298,144.5L135.666,144.5L135.851,144.5L136.039,144.5L136.219,144.5L136.404,144.5L136.772,144.5L136.957,144.5L137.146,144.5L137.325,144.5L137.51,144.5L137.878,144.5L138.063,144.5L138.252,144.5L138.431,144.5L138.616,144.5L138.984,144.5L139.169,144.5L139.359,144.5L139.537,144.5L139.722,144.5L140.091,144.5L140.275,144.5L140.465,144.5L140.643,144.5L140.828,144.5L141.196,144.5L141.381,144.5L141.571,144.5L141.75,144.5L141.934,144.5L142.303,144.5L142.487,144.5L142.677,144.5L142.855,144.5L143.04,144.5L143.408,144.5L143.593,144.5L143.782,144.5L143.962,144.5L144.146,144.5L144.515,144.5L144.699,144.5L144.89,144.5L145.067,144.5L145.252,144.5L145.62,152.611L145.805,152.611L145.999,152.611L146.174,152.611L146.358,152.611L146.727,152.611L146.911,152.611L147.102,152.611L147.28,152.611L147.464,152.611L147.833,158.167L148.017,158.167L148.208,158.167L148.386,158.167L148.57,158.167L148.939,158.167L149.123,158.167L149.314,158.167L149.492,158.167L149.676,158.167L150.045,158.167L150.229,158.167L150.418,158.167L150.598,158.167L150.782,158.167L151.151,144.5L151.335,144.5L151.524,144.5L151.704,144.5L151.888,144.5L152.257,158.167L152.441,158.167L152.632,158.167L152.81,158.167L152.994,158.167L153.363,150.056L153.547,150.056L153.738,150.056L153.916,150.056L154.1,150.056L154.469,144.5L154.653,144.5L154.844,144.5L155.022,144.5L155.206,144.5L155.575,150.056L155.759,150.056L155.95,150.056L156.128,150.056L156.312,150.056L156.681,161.167L156.865,161.167L157.056,161.167L157.234,161.167L157.418,161.167L157.787,161.167L157.971,161.167L158.16,161.167L158.34,161.167L158.524,161.167L159.077,144.5L159.267,144.5L159.446,144.5L159.63,144.5L159.999,161.167L160.183,161.167L160.375,161.167L160.552,161.167L160.736,161.167L161.105,150.056L161.289,150.056L161.481,150.056L161.658,150.056L161.842,150.056L162.211,144.5L162.395,144.5L162.587,144.5L162.764,144.5L162.948,144.5L163.317,150.056L163.501,150.056L163.693,150.056L163.87,150.056L164.054,150.056L164.423,150.056L164.607,150.056L164.796,150.056L164.976,150.056L165.16,150.056L165.529,144.5L165.713,144.5L165.899,144.5L166.082,144.5L166.266,144.5L166.635,144.5L166.819,144.5L167.006,144.5L167.188,144.5L167.372,144.5L167.741,144.5L167.925,144.5L168.113,144.5L168.294,144.5L168.478,144.5L168.847,144.5L169.031,144.5L169.219,144.5L169.4,144.5L169.585,144.5L169.953,144.5L170.137,144.5L170.325,144.5L170.506,144.5L170.691,144.5L171.059,152.611L171.243,152.611L171.432,152.611L171.612,152.611L171.796,152.611L172.165,152.611L172.349,152.611L172.537,152.611L172.718,152.611L172.903,152.611L173.271,152.611L173.455,152.611L173.642,152.611L173.824,152.611L174.008,152.611L174.377,133.389L174.562,133.389L174.748,133.389L174.93,133.389L175.115,133.389L175.483,133.389L175.668,133.389L175.856,133.389L176.036,133.389L176.221,133.389L176.589,133.389L176.774,133.389L176.961,133.389L177.143,133.389L177.327,133.389L177.695,150.056L177.88,150.056L178.067,150.056L178.248,150.056L178.433,150.056L178.801,133.389L178.986,133.389L179.173,133.389L179.354,133.389L179.539,133.389L179.907,133.389L180.092,133.389L180.279,133.389L180.46,133.389L180.645,133.389L181.013,133.389L181.198,133.389L181.384,133.389L181.567,133.389L181.751,133.389L182.119,133.389L182.304,133.389L182.49,133.389L182.673,133.389L182.857,133.389L183.225,133.389L183.41,133.389L183.598,133.389L183.778,133.389L183.963,133.389L184.331,133.389L184.516,133.389L184.704,133.389L184.885,133.389L185.069,133.389L185.437,146.722L185.622,146.722L185.81,146.722L185.99,146.722L186.175,146.722L186.543,133.389L186.728,133.389L186.915,133.389L187.097,133.389L187.281,133.389L187.649,133.389L187.834,133.389L188.022,133.389L188.202,133.389L188.387,133.389L188.756,133.389L188.94,133.389L189.126,133.389L189.309,133.389L189.493,133.389L189.862,133.389L190.046,133.389L190.232,133.389L190.415,133.389L190.599,133.389L190.967,133.389L191.152,133.389L191.34,133.389L191.521,133.389L191.705,133.389L192.074,133.389L192.258,133.389L192.445,133.389L192.627,133.389L192.811,133.389L193.18,143.389L193.364,143.389L193.552,143.389L193.733,143.389L193.917,143.389L194.286,143.389L194.47,143.389L194.658,143.389L194.839,143.389L195.023,143.389L195.392,143.389L195.576,143.389L195.763,143.389L195.945,143.389L196.129,143.389L196.498,143.389L196.682,143.389L196.868,143.389L197.051,143.389L197.235,143.389L197.604,133.389L197.788,133.389L197.974,133.389L198.157,133.389L198.341,133.389L198.71,133.389L198.894,133.389L199.082,133.389L199.263,133.389L199.447,133.389L199.816,143.389L200,143.389" stroke="#4c78a8" stroke-width="2"/></g></g><path class="foreground" aria-hidden="true" d="" display="none"/></g><g transform="translate(0,0)"><path class="background" aria-hidden="true" d="M0,0h200v200h-200Z"/><g><g class="mark-line role-mark child_marks" role="graphics-object" aria-roledescription="line mark container"><path aria-label="Time: Oct 12, 2023; Price: 13995; item: PONCHO_-_Cape_-_lucid_blue" role="graphics-symbol" aria-roledescription="line mark" d="M47.184,44.5L48.475,44.5L48.844,44.5L49.397,91.167L49.949,91.167L50.687,91.167L50.875,91.167L51.055,91.167L51.24,91.167L51.609,91.167L51.793,91.167L51.984,91.167L52.162,91.167L52.346,91.167L52.715,91.167L52.899,91.167L53.09,91.167L53.268,91.167L53.452,91.167L53.821,91.167L54.005,91.167L54.196,91.167L54.374,91.167L54.558,91.167L54.927,91.167L55.111,91.167L55.302,91.167L55.664,91.167L56.585,91.167L56.77,91.167L57.139,91.167L57.692,91.167L58.245,91.167L58.429,91.167L58.617,91.167L58.797,91.167L58.982,91.167L59.904,91.167L60.457,114.5L60.641,114.5L61.194,114.5L61.747,114.5L61.938,114.5L62.116,114.5L62.669,114.5L63.775,114.5L63.96,114.5L64.149,114.5L64.328,114.5L64.512,114.5L64.881,114.5L65.065,114.5L65.253,114.5L65.434,114.5L65.618,114.5L65.987,114.5L66.171,114.5L66.36,114.5L66.54,114.5L66.724,114.5L67.093,114.5L67.277,114.5L67.467,114.5L67.646,114.5L67.83,114.5L68.199,114.5L68.383,114.5L68.573,114.5L68.752,114.5L68.936,114.5L69.305,114.5L69.489,114.5L69.679,114.5L69.858,114.5L70.042,114.5L70.411,83.389L70.595,83.389L71.148,83.389L71.517,83.389L72.623,83.389L72.807,83.389L73.176,83.389L73.36,83.389L73.729,83.389L73.913,83.389L74.102,83.389L74.282,83.389L74.466,83.389L74.835,83.389L75.019,83.389L75.572,83.389L75.941,44.5L76.126,44.5L76.316,44.5L76.494,44.5L76.678,44.5L77.047,44.5L77.231,44.5L77.422,44.5L77.6,44.5L77.784,44.5L78.153,44.5L78.337,44.5L78.527,44.5L78.706,44.5L78.89,44.5L79.259,122.278L79.634,122.278L79.996,122.278L80.55,122.278L80.738,122.278L81.102,122.278L81.471,122.278L81.655,122.278L81.844,122.278L82.024,122.278L82.208,122.278L82.577,44.5L82.761,44.5L82.952,44.5L83.13,44.5L83.683,44.5L83.868,44.5L84.058,44.5L84.236,44.5L84.42,44.5L84.789,44.5L84.973,44.5L85.165,44.5L85.342,44.5L85.526,44.5L86.079,130.056L86.271,130.056L86.448,130.056L86.633,130.056L87.001,130.056L87.738,130.056L88.107,44.5L88.291,44.5L88.481,44.5L89.213,44.5L89.398,44.5L89.587,44.5L89.766,44.5L89.951,44.5L90.319,60.056L90.504,60.056L90.696,106.722L90.872,106.722L91.057,122.278L91.425,122.278L91.61,122.278L91.802,122.278L91.978,122.278L92.162,122.278L92.531,122.278L92.716,122.278L92.907,122.278L93.084,122.278L93.269,122.278L93.637,122.278L93.822,122.278L94.013,122.278L94.19,122.278L94.375,122.278L94.743,122.278L96.034,130.056L96.223,122.278L96.402,122.278L96.587,122.278L96.955,122.278L97.14,122.278L97.329,122.278L97.508,122.278L97.693,122.278L98.061,122.278L98.799,75.611L99.167,44.5L99.352,44.5L99.542,44.5L99.721,44.5L99.905,44.5L100.274,44.5L100.458,44.5L100.649,44.5L100.827,44.5L101.011,44.5L101.38,44.5L101.564,44.5L101.755,44.5L101.932,44.5L102.117,44.5L102.486,44.5L102.67,44.5L102.861,44.5L103.223,44.5L103.592,44.5L103.776,44.5L103.964,44.5L104.145,44.5L104.329,44.5L104.697,44.5L104.882,44.5L105.071,44.5L105.251,44.5L105.435,44.5L105.803,44.5L106.179,44.5L108.2,91.167L108.391,91.167L108.569,91.167L108.753,91.167L109.122,91.167L110.602,91.167L110.781,91.167L111.707,91.167L112.071,91.167L112.813,122.278L112.993,122.278L113.177,122.278L113.546,122.278L113.73,122.278L113.922,122.278L114.099,122.278L114.283,122.278L114.652,91.167L115.027,91.167L115.205,91.167L115.389,91.167L115.758,91.167L117.048,91.167L117.24,91.167L117.417,91.167L117.601,91.167L117.97,91.167L118.154,91.167L118.345,91.167L118.523,91.167L118.707,91.167L119.076,91.167L119.629,91.167L120.366,106.722L120.555,106.722L120.735,106.722L120.919,106.722L121.288,106.722L121.472,106.722L121.664,106.722L121.841,106.722L122.025,106.722L122.394,106.722L122.578,106.722L122.769,106.722L122.947,106.722L123.131,106.722L123.5,106.722L123.684,106.722L123.87,106.722L124.053,106.722L124.237,106.722L124.606,91.167L125.159,91.167L125.343,91.167L125.712,91.167L125.897,91.167L126.086,91.167L126.265,91.167L126.45,91.167L126.818,91.167L127.002,91.167L127.191,91.167L127.371,91.167L127.555,91.167L127.924,91.167L128.108,91.167L128.297,91.167L128.477,91.167L128.662,91.167L129.03,91.167L129.215,91.167L129.404,91.167L129.583,91.167L129.767,91.167L130.136,91.167L130.32,91.167L130.509,91.167L130.689,91.167L130.873,91.167L131.242,91.167L131.427,91.167L131.616,91.167L131.795,91.167L131.979,91.167L132.348,83.389L132.533,83.389L132.722,83.389L132.901,83.389L133.086,83.389L133.454,83.389L133.639,83.389L133.828,83.389L134.008,83.389L134.192,83.389L134.56,83.389L134.745,83.389L134.933,83.389L135.113,83.389L135.298,83.389L135.666,83.389L135.851,83.389L136.039,83.389L136.219,83.389L136.404,83.389L136.772,83.389L136.957,83.389L137.146,83.389L137.325,83.389L137.51,83.389L137.878,83.389L138.063,83.389L138.252,83.389L138.431,83.389L138.616,83.389L138.984,106.722L139.169,106.722L139.359,106.722L139.537,106.722L139.722,106.722L140.091,106.722L140.275,106.722L140.465,106.722L140.643,106.722L140.828,106.722L141.196,106.722L141.381,106.722L141.571,106.722L141.75,106.722L141.934,106.722L142.303,114.5L142.487,114.5L142.677,114.5L142.855,114.5L143.04,114.5L143.409,106.722L143.593,106.722L143.782,106.722L143.962,106.722L144.146,106.722L144.515,114.5L144.699,114.5L144.89,114.5L145.067,114.5L145.252,114.5L145.62,122.278L145.805,122.278L145.999,122.278L146.174,122.278L146.358,122.278L146.727,122.278L146.911,122.278L147.102,122.278L147.28,122.278L147.464,122.278L147.833,122.278L148.017,122.278L148.208,122.278L148.386,122.278L148.57,122.278L148.939,122.278L149.123,122.278L149.314,122.278L149.492,122.278L149.676,122.278L150.045,122.278L150.229,122.278L150.418,122.278L150.598,122.278L150.782,122.278L151.151,122.278L151.335,122.278L151.524,122.278L151.704,122.278L151.888,122.278L152.257,122.278L152.441,122.278L152.632,122.278L152.81,122.278L152.994,122.278L153.363,114.5L153.547,114.5L153.738,114.5L153.916,114.5L154.1,114.5L154.469,122.278L154.653,122.278L154.844,122.278L155.022,122.278L155.206,122.278L155.575,114.5L155.759,114.5L155.95,114.5L156.128,114.5L156.312,114.5L156.681,122.278L156.865,122.278L157.056,122.278L157.234,122.278L157.418,122.278L157.787,122.278L157.971,122.278L158.16,122.278L158.34,122.278L158.524,122.278L159.077,122.278L159.267,122.278L159.446,122.278L159.63,122.278L159.999,122.278L160.183,122.278L160.375,122.278L160.552,122.278L160.736,122.278L161.105,145.611L161.289,145.611L161.481,145.611L161.658,145.611L161.842,145.611L162.211,145.611L162.395,145.611L162.587,145.611L162.764,145.611L162.948,145.611L163.317,145.611L163.501,145.611L163.693,145.611L163.87,145.611L164.054,145.611L164.423,145.611L164.607,145.611L164.796,145.611L164.976,145.611L165.16,145.611L165.529,145.611L165.713,145.611L165.899,145.611L166.082,145.611L166.266,145.611L166.635,145.611L166.819,145.611L167.006,145.611L167.188,145.611L167.372,145.611L167.741,106.722L167.925,106.722L168.113,106.722L168.294,106.722L168.478,106.722L168.847,106.722L169.031,106.722L169.219,106.722L169.4,106.722L169.585,106.722L169.953,106.722L170.137,106.722L170.325,137.833L170.506,137.833L170.691,137.833L171.059,44.5L171.243,44.5L171.432,44.5L171.612,44.5L171.796,44.5L172.165,44.5L172.349,44.5L172.537,44.5L172.718,44.5L172.903,44.5L173.271,44.5L173.455,44.5L173.642,44.5L173.824,44.5L174.008,44.5L174.377,44.5L174.562,44.5L174.748,44.5L174.93,44.5L175.115,44.5L175.483,44.5L175.668,44.5L176.589,44.5L176.774,44.5L176.961,44.5L177.143,44.5L177.327,44.5L177.695,122.278L177.88,122.278L178.067,122.278L178.248,122.278L178.433,122.278L178.801,122.278L178.986,122.278L179.173,122.278L179.354,122.278L179.539,122.278L179.907,98.944L180.092,98.944L180.279,98.944L180.46,98.944L180.645,98.944L181.013,98.944L181.198,98.944L181.384,98.944L181.567,98.944L181.751,98.944L182.673,98.944L182.857,98.944L183.225,98.944L183.41,98.944L183.598,98.944L183.778,98.944L183.963,98.944L184.516,114.5L185.437,114.5L186.175,114.5L186.543,67.833L188.387,67.833L188.94,67.833L190.232,67.833L190.967,67.833L191.152,67.833L191.34,67.833L191.521,67.833L191.705,67.833L193.18,91.167L193.733,91.167L193.917,91.167L194.286,91.167L194.47,91.167L194.658,91.167L194.839,91.167L195.023,91.167L195.392,91.167L195.576,91.167L195.763,91.167L195.945,91.167L196.129,91.167L196.498,91.167L196.682,91.167L196.868,91.167L197.051,91.167L197.235,91.167L197.604,114.5L197.788,114.5L197.974,114.5L198.157,114.5L198.341,114.5L198.71,114.5L198.894,114.5L199.082,114.5L199.263,114.5L199.447,114.5L200,114.5" stroke="#eeca3b" stroke-width="2"/></g></g><path class="foreground" aria-hidden="true" d="" display="none"/></g><g transform="translate(0,0)"><path class="background" aria-hidden="true" d="M0,0h200v200h-200Z"/><g><g class="mark-line role-mark child_marks" role="graphics-object" aria-roledescription="line mark container"><path aria-label="Time: Dec 18, 2023; Price: 10995; item: K_ESSENTIAL_RAIN_PONCHO_UNISEX_-_Cape_-_black" role="graphics-symbol" aria-roledescription="line mark" d="M121.664,77.833L122.394,77.833L122.578,77.833L122.947,77.833L123.131,77.833L123.5,77.833L123.87,77.833L124.053,77.833L124.237,77.833L125.159,77.833L125.712,77.833L125.897,77.833L126.086,77.833L126.45,77.833L126.818,77.833L127.002,77.833L127.555,77.833L127.924,77.833L128.108,77.833L128.297,77.833L128.477,77.833L128.662,77.833L129.215,77.833L129.767,77.833L130.136,77.833L130.32,77.833L130.873,77.833L131.427,77.833L131.616,77.833L131.979,77.833L132.533,77.833L132.722,77.833L133.454,77.833L134.008,77.833L134.56,77.833L134.745,77.833L134.933,77.833L135.298,77.833L136.039,77.833L136.219,77.833L136.772,77.833L137.146,77.833L137.325,77.833L137.51,77.833L138.431,77.833L138.984,77.833L139.169,77.833L139.537,77.833L139.722,77.833L140.091,77.833L140.465,77.833L140.643,77.833L141.571,77.833L141.75,77.833L142.855,77.833L143.04,77.833L143.409,77.833L145.252,77.833L145.62,77.833L163.317,77.833L163.501,77.833L163.693,77.833L163.87,77.833L164.054,77.833L164.423,77.833L164.607,77.833L164.796,77.833L164.976,77.833L165.16,77.833L165.529,77.833L165.713,77.833L165.899,77.833L166.082,77.833L166.266,77.833L166.635,77.833L166.819,77.833L167.006,77.833L167.188,77.833L167.372,77.833L167.741,77.833L167.925,77.833L168.113,77.833L168.294,77.833L168.478,77.833L168.847,77.833L169.031,77.833L169.219,77.833L169.4,77.833L169.585,77.833L169.953,77.833L170.137,77.833L170.325,77.833L170.506,77.833L170.691,77.833L171.059,77.833L171.243,77.833L171.432,77.833L171.612,77.833L171.796,77.833L172.165,77.833L172.349,77.833L172.537,77.833L172.718,77.833L172.903,77.833L173.271,77.833L173.455,77.833L173.642,77.833L173.824,77.833L174.009,77.833L174.377,77.833L174.562,77.833L174.748,77.833L174.93,77.833L175.115,77.833L175.483,77.833L175.668,77.833L175.856,77.833L176.036,77.833L176.221,77.833L176.589,77.833L176.774,77.833L176.961,77.833L177.143,77.833L177.327,77.833L177.695,77.833L177.88,77.833L178.067,77.833L178.248,77.833L178.433,77.833L178.801,77.833L178.986,77.833L179.173,77.833L179.354,77.833L179.539,77.833L179.907,77.833L180.092,77.833L180.279,77.833L180.46,77.833L180.645,77.833L181.013,77.833L181.198,77.833L181.384,77.833L181.567,77.833L181.751,77.833L182.119,77.833L182.304,77.833L182.49,77.833L182.673,77.833L182.857,77.833L183.225,77.833L183.41,77.833L183.598,77.833L183.778,77.833L183.963,77.833L184.331,77.833L184.516,77.833L184.704,77.833L184.885,77.833L185.069,77.833L185.437,90.056L185.622,90.056L185.81,90.056L185.99,90.056L186.175,90.056L186.543,77.833L186.728,77.833L186.915,77.833L187.097,77.833L187.281,77.833L187.649,77.833L187.834,77.833L188.022,77.833L188.202,77.833L188.387,77.833L188.756,77.833L188.94,77.833L189.126,77.833L189.309,77.833L189.493,77.833L189.862,77.833L190.046,77.833L190.232,77.833L190.415,77.833L190.599,77.833L190.967,77.833L191.152,77.833L191.34,77.833L191.521,77.833L191.705,77.833L192.074,77.833L192.258,77.833L192.445,77.833L192.627,77.833L192.811,77.833L193.18,77.833L193.364,77.833L193.552,77.833L193.733,77.833L193.917,77.833L194.286,77.833L194.47,77.833L194.658,77.833L194.839,77.833L195.023,77.833L195.392,77.833L195.576,77.833L195.763,77.833L195.945,77.833L196.129,77.833L196.498,77.833L196.682,77.833L196.868,77.833L197.051,77.833L197.235,77.833L197.604,77.833L197.788,77.833L197.974,77.833L198.157,77.833L198.341,77.833L198.71,77.833L198.894,77.833L199.082,77.833L199.263,77.833L199.447,77.833L199.816,77.833L200,77.833" stroke="#72b7b2" stroke-width="2"/></g></g><path class="foreground" aria-hidden="true" d="" display="none"/></g><g transform="translate(0,0)"><path class="background" aria-hidden="true" d="M0,0h200v200h-200Z"/><g><g class="mark-line role-mark child_marks" role="graphics-object" aria-roledescription="line mark container"><path aria-label="Time: Dec 18, 2023; Price: 5845; item: PONCHO_-_Peignoir_-_dark_blue" role="graphics-symbol" aria-roledescription="line mark" d="M121.664,135.056L123.131,135.056L125.897,125.056L127.002,125.056L127.555,125.056L128.662,125.056L141.571,130.056" stroke="#9d755d" stroke-width="2"/></g></g><path class="foreground" aria-hidden="true" d="" display="none"/></g></g><g class="mark-group role-legend" role="graphics-symbol" aria-roledescription="legend" aria-label="Symbol legend titled 'item' for stroke color with 12 values: KUURA_3L_PONCHO_UNISEX_-_Veste_imperméable_-_green, DESCHUTES_VALLEY™_RAIN_PONCHO_-_Parka_-_black, DESCHUTES_VALLEY™_RAIN_PONCHO_-_Parka_-_vista_blue, K_ESSENTIAL_RAIN_PONCHO_UNISEX_-_Cape_-_black, PSG_M_NSW_CITY_MADE_PONCHO_-_Veste_de_survêtement_-_aura_white, ending with COVERO_PONCHO_II_-_Cape_-_lightgrey"><g transform="translate(220,0)"><path class="background" aria-hidden="true" d="M0,0h328v170h-328Z" pointer-events="none"/><g><g class="mark-group role-legend-entry"><g transform="translate(0,16)"><path class="background" aria-hidden="true" d="M0,0h0v0h0Z" pointer-events="none"/><g><g class="mark-group role-scope" role="graphics-object" aria-roledescription="group mark container"><g transform="translate(0,0)"><path class="background" aria-hidden="true" d="M0,0h328v11h-328Z" pointer-events="none" opacity="1"/><g><g class="mark-symbol role-legend-symbol" pointer-events="none"><path transform="translate(6,6)" d="M-5,0L5,0" stroke="#4c78a8" stroke-width="1.5" opacity="1"/></g><g class="mark-text role-legend-label" pointer-events="none"><text text-anchor="start" transform="translate(16,9)" font-family="Liberation Mono" font-size="10px" fill="#000" opacity="1">KUURA_3L_PONCHO_UNISEX_-_Veste_impermé…</text></g></g><path class="foreground" aria-hidden="true" d="" pointer-events="none" display="none"/></g><g transform="translate(0,13)"><path class="background" aria-hidden="true" d="M0,0h328v11h-328Z" pointer-events="none" opacity="1"/><g><g class="mark-symbol role-legend-symbol" pointer-events="none"><path transform="translate(6,6)" d="M-5,0L5,0" stroke="#f58518" stroke-width="1.5" opacity="1"/></g><g class="mark-text role-legend-label" pointer-events="none"><text text-anchor="start" transform="translate(16,9)" font-family="Liberation Mono" font-size="10px" fill="#000" opacity="1">DESCHUTES_VALLEY™_RAIN_PONCHO_-_Parka_…</text></g></g><path class="foreground" aria-hidden="true" d="" pointer-events="none" display="none"/></g><g transform="translate(0,26)"><path class="background" aria-hidden="true" d="M0,0h328v11h-328Z" pointer-events="none" opacity="1"/><g><g class="mark-symbol role-legend-symbol" pointer-events="none"><path transform="translate(6,6)" d="M-5,0L5,0" stroke="#e45756" stroke-width="1.5" opacity="1"/></g><g class="mark-text role-legend-label" pointer-events="none"><text text-anchor="start" transform="translate(16,9)" font-family="Liberation Mono" font-size="10px" fill="#000" opacity="1">DESCHUTES_VALLEY™_RAIN_PONCHO_-_Parka_…</text></g></g><path class="foreground" aria-hidden="true" d="" pointer-events="none" display="none"/></g><g transform="translate(0,39)"><path class="background" aria-hidden="true" d="M0,0h328v11h-328Z" pointer-events="none" opacity="1"/><g><g class="mark-symbol role-legend-symbol" pointer-events="none"><path transform="translate(6,6)" d="M-5,0L5,0" stroke="#72b7b2" stroke-width="1.5" opacity="1"/></g><g class="mark-text role-legend-label" pointer-events="none"><text text-anchor="start" transform="translate(16,9)" font-family="Liberation Mono" font-size="10px" fill="#000" opacity="1">K_ESSENTIAL_RAIN_PONCHO_UNISEX_-_Cape_…</text></g></g><path class="foreground" aria-hidden="true" d="" pointer-events="none" display="none"/></g><g transform="translate(0,52)"><path class="background" aria-hidden="true" d="M0,0h328v11h-328Z" pointer-events="none" opacity="1"/><g><g class="mark-symbol role-legend-symbol" pointer-events="none"><path transform="translate(6,6)" d="M-5,0L5,0" stroke="#54a24b" stroke-width="1.5" opacity="1"/></g><g class="mark-text role-legend-label" pointer-events="none"><text text-anchor="start" transform="translate(16,9)" font-family="Liberation Mono" font-size="10px" fill="#000" opacity="1">PSG_M_NSW_CITY_MADE_PONCHO_-_Veste_de_…</text></g></g><path class="foreground" aria-hidden="true" d="" pointer-events="none" display="none"/></g><g transform="translate(0,65)"><path class="background" aria-hidden="true" d="M0,0h328v11h-328Z" pointer-events="none" opacity="1"/><g><g class="mark-symbol role-legend-symbol" pointer-events="none"><path transform="translate(6,6)" d="M-5,0L5,0" stroke="#eeca3b" stroke-width="1.5" opacity="1"/></g><g class="mark-text role-legend-label" pointer-events="none"><text text-anchor="start" transform="translate(16,9)" font-family="Liberation Mono" font-size="10px" fill="#000" opacity="1">PONCHO_-_Cape_-_lucid_blue</text></g></g><path class="foreground" aria-hidden="true" d="" pointer-events="none" display="none"/></g><g transform="translate(0,78)"><path class="background" aria-hidden="true" d="M0,0h328v11h-328Z" pointer-events="none" opacity="1"/><g><g class="mark-symbol role-legend-symbol" pointer-events="none"><path transform="translate(6,6)" d="M-5,0L5,0" stroke="#b279a2" stroke-width="1.5" opacity="1"/></g><g class="mark-text role-legend-label" pointer-events="none"><text text-anchor="start" transform="translate(16,9)" font-family="Liberation Mono" font-size="10px" fill="#000" opacity="1">HIKING_BACKPACK_PONCHO_-_Veste_impermé…</text></g></g><path class="foreground" aria-hidden="true" d="" pointer-events="none" display="none"/></g><g transform="translate(0,91)"><path class="background" aria-hidden="true" d="M0,0h328v11h-328Z" pointer-events="none" opacity="1"/><g><g class="mark-symbol role-legend-symbol" pointer-events="none"><path transform="translate(6,6)" d="M-5,0L5,0" stroke="#ff9da6" stroke-width="1.5" opacity="1"/></g><g class="mark-text role-legend-label" pointer-events="none"><text text-anchor="start" transform="translate(16,9)" font-family="Liberation Mono" font-size="10px" fill="#000" opacity="1">HIKING_BACKPACK_PONCHO_-_Veste_impermé…</text></g></g><path class="foreground" aria-hidden="true" d="" pointer-events="none" display="none"/></g><g transform="translate(0,104)"><path class="background" aria-hidden="true" d="M0,0h328v11h-328Z" pointer-events="none" opacity="1"/><g><g class="mark-symbol role-legend-symbol" pointer-events="none"><path transform="translate(6,6)" d="M-5,0L5,0" stroke="#9d755d" stroke-width="1.5" opacity="1"/></g><g class="mark-text role-legend-label" pointer-events="none"><text text-anchor="start" transform="translate(16,9)" font-family="Liberation Mono" font-size="10px" fill="#000" opacity="1">PONCHO_-_Peignoir_-_dark_blue</text></g></g><path class="foreground" aria-hidden="true" d="" pointer-events="none" display="none"/></g><g transform="translate(0,117)"><path class="background" aria-hidden="true" d="M0,0h328v11h-328Z" pointer-events="none" opacity="1"/><g><g class="mark-symbol role-legend-symbol" pointer-events="none"><path transform="translate(6,6)" d="M-5,0L5,0" stroke="#bab0ac" stroke-width="1.5" opacity="1"/></g><g class="mark-text role-legend-label" pointer-events="none"><text text-anchor="start" transform="translate(16,9)" font-family="Liberation Mono" font-size="10px" fill="#000" opacity="1">PARIS_ST._GERMAIN_CITY_MADE_PONCHO_-_V…</text></g></g><path class="foreground" aria-hidden="true" d="" pointer-events="none" display="none"/></g><g transform="translate(0,130)"><path class="background" aria-hidden="true" d="M0,0h328v11h-328Z" pointer-events="none" opacity="1"/><g><g class="mark-symbol role-legend-symbol" pointer-events="none"><path transform="translate(6,6)" d="M-5,0L5,0" stroke="#4c78a8" stroke-width="1.5" opacity="1"/></g><g class="mark-text role-legend-label" pointer-events="none"><text text-anchor="start" transform="translate(16,9)" font-family="Liberation Mono" font-size="10px" fill="#000" opacity="1">SHOWERPROOF_PONCHO_UNISEX_-_Cape_-_cla…</text></g></g><path class="foreground" aria-hidden="true" d="" pointer-events="none" display="none"/></g><g transform="translate(0,143)"><path class="background" aria-hidden="true" d="M0,0h328v11h-328Z" pointer-events="none" opacity="1"/><g><g class="mark-symbol role-legend-symbol" pointer-events="none"><path transform="translate(6,6)" d="M-5,0L5,0" stroke="#f58518" stroke-width="1.5" opacity="1"/></g><g class="mark-text role-legend-label" pointer-events="none"><text text-anchor="start" transform="translate(16,9)" font-family="Liberation Mono" font-size="10px" fill="#000" opacity="1">COVERO_PONCHO_II_-_Cape_-_lightgrey</text></g></g><path class="foreground" aria-hidden="true" d="" pointer-events="none" display="none"/></g></g></g><path class="foreground" aria-hidden="true" d="" pointer-events="none" display="none"/></g></g><g class="mark-text role-legend-title" pointer-events="none"><text text-anchor="start" transform="translate(0,9)" font-family="Liberation Mono" font-size="11px" font-weight="bold" fill="#000" opacity="1">item</text></g></g><path class="foreground" aria-hidden="true" d="" pointer-events="none" display="none"/></g></g></g><path class="foreground" aria-hidden="true" d="" display="none"/></g></g></g><path class="foreground" aria-hidden="true" d="" display="none"/></g></g></g></svg>