<svg xmlns="http://www.w3.org/2000/svg" xmlns:xlink="http://www.w3.org/1999/xlink" version="1.1" class="marks" width="658" height="244" viewBox="0 0 658 244"><rect width="658" height="244" fill="white"/><g fill="none" stroke-miterlimit="10" transform="translate(104,6)"><g class="mark-group role-frame root" role="graphics-object" aria-roledescription="group mark container"><g transform="translate(0,0)"><path class="background" aria-hidden="true" d="M0,0h0v0h0Z"/><g><g class="mark-group role-row-title row-title" role="graphics-object" aria-roledescription="group mark container"><g transform="translate(-78,116)"><path class="background" aria-hidden="true" d="M0,0h0v0h0Z"/><g><g class="mark-group role-title"><g transform="translate(-21.000000000000004,0)"><path class="background" aria-hidden="true" d="M0,0h0v0h0Z" pointer-events="none"/><g><g class="mark-text role-title-text" role="graphics-symbol" aria-roledescription="title" aria-label="Title text 'group'" pointer-events="none"><text text-anchor="middle" transform="translate(0,0) rotate(-90) translate(0,9)" font-family="Liberation Mono" font-size="11px" font-weight="bold" fill="#000" opacity="1">group</text></g></g><path class="foreground" aria-hidden="true" d="" pointer-events="none" display="none"/></g></g></g><path class="foreground" aria-hidden="true" d="" display="none"/></g></g><g class="mark-group role-row-header row_header" role="graphics-object" aria-roledescription="group mark container"><g transform="translate(-47,0)"><path class="background" aria-hidden="true" d="M0,0h0v200h0Z"/><g><g class="mark-group role-title"><g transform="translate(-20.000000000000007,100)"><path class="background" aria-hidden="true" d="M0,0h0v0h0Z" pointer-events="none"/><g><g class="mark-text role-title-text" role="graphics-symbol" aria-roledescription="title" aria-label="Title text 'zalando-poncho'" pointer-events="none"><text text-anchor="middle" transform="translate(0,0) rotate(-90) translate(0,8)" font-family="Liberation Mono" font-size="10px" fill="#000" opacity="1">zalando-poncho</text></g></g><path class="foreground" aria-hidden="true" d="" pointer-events="none" display="none"/></g></g></g><path class="foreground" aria-hidden="true" d="" display="none"/></g></g><g class="mark-group role-scope cell" role="graphics-object" aria-roledescription="group mark container"><g transform="translate(0,0)"><path class="background" aria-hidden="true" d="M0.5,0.5h200v200h-200Z" stroke="#ddd"/><g><g class="mark-group role-axis" aria-hidden="true"><g transform="translate(0.5,200.5)"><path class="background" aria-hidden="true" d="M0,0h0v0h0Z" pointer-events="none"/><g><g class="mark-rule role-axis-grid" pointer-events="none"><line transform="translate(3,-200)" x2="0" y2="200" stroke="#ddd" stroke-width="1" opacity="1"/><line transform="translate(60,-200)" x2="0" y2="200" stroke="#ddd" stroke-width="1" opacity="1"/><line transform="translate(119,-200)" x2="0" y2="200" stroke="#ddd" stroke-width="1" opacity="1"/><line transform="translate(176,-200)" x2="0" y2="200" stroke="#ddd" stroke-width="1" opacity="1"/></g></g><path class="foreground" aria-hidden="true" d="" pointer-events="none" display="none"/></g></g><g class="mark-group role-axis" aria-hidden="true"><g transform="translate(0.5,0.5)"><path class="background" aria-hidden="true" d="M0,0h0v0h0Z" pointer-events="none"/><g><g class="mark-rule role-axis-grid" pointer-events="none"><line transform="translate(0,200)" x2="200" y2="0" stroke="#ddd" stroke-width="1" opacity="1"/><line transform="translate(0,144)" x2="200" y2="0" stroke="#ddd" stroke-width="1" opacity="1"/><line transform="translate(0,89)" x2="200" y2="0" stroke="#ddd" stroke-width="1" opacity="1"/><line transform="translate(0,33)" x2="200" y2="0" stroke="#ddd" stroke-width="1" opacity="1"/></g></g><path class="foreground" aria-hidden="true" d="" pointer-events="none" display="none"/></g></g><g class="mark-group role-axis" role="graphics-symbol" aria-roledescription="axis" aria-label="X-axis titled 'Time' for a time scale with values from Wednesday, 30 August 2023, 12:58:24 PM to Wednesday, 13 December 2023, 8:50:34 PM"><g transform="translate(0.5,200.5)"><path class="background" aria-hidden="true" d="M0,0h0v0h0Z" pointer-events="none"/><g><g class="mark-rule role-axis-tick" pointer-events="none"><line transform="translate(3,0)" x2="0" y2="5" stroke="#888" stroke-width="1" opacity="1"/><line transform="translate(60,0)" x2="0" y2="5" stroke="#888" stroke-width="1" opacity="1"/><line transform="translate(119,0)" x2="0" y2="5" stroke="#888" stroke-width="1" opacity="1"/><line transform="translate(176,0)" x2="0" y2="5" stroke="#888" stroke-width="1" opacity="1"/></g><g class="mark-text role-axis-label" pointer-events="none"><text text-anchor="middle" transform="translate(2.771239245658854,15)" font-family="Liberation Mono" font-size="10px" fill="#000" opacity="1">September</text><text text-anchor="middle" transform="translate(59.73620112943476,15)" font-family="Liberation Mono" font-size="10px" fill="#000" opacity="0">October</text><text text-anchor="middle" transform="translate(118.59999507600321,15)" font-family="Liberation Mono" font-size="10px" fill="#000" opacity="0">November</text><text text-anchor="middle" transform="translate(175.5649569597791,15)" font-family="Liberation Mono" font-size="10px" fill="#000" opacity="1">December</text></g><g class="mark-rule role-axis-domain" pointer-events="none"><line transform="translate(0,0)" x2="200" y2="0" stroke="#888" stroke-width="1" opacity="1"/></g><g class="mark-text role-axis-title" pointer-events="none"><text text-anchor="middle" transform="translate(100,30)" font-family="Liberation Mono" font-size="11px" font-weight="bold" fill="#000" opacity="1">Time</text></g></g><path class="foreground" aria-hidden="true" d="" pointer-events="none" display="none"/></g></g><g class="mark-group role-axis" role="graphics-symbol" aria-roledescription="axis" aria-label="Y-axis titled 'Price' for a linear scale with values from 0 to 18,000"><g transform="translate(0.5,0.5)"><path class="background" aria-hidden="true" d="M0,0h0v0h0Z" pointer-events="none"/><g><g class="mark-rule role-axis-tick" pointer-events="none"><line transform="translate(0,200)" x2="-5" y2="0" stroke="#888" stroke-width="1" opacity="1"/><line transform="translate(0,144)" x2="-5" y2="0" stroke="#888" stroke-width="1" opacity="1"/><line transform="translate(0,89)" x2="-5" y2="0" stroke="#888" stroke-width="1" opacity="1"/><line transform="translate(0,33)" x2="-5" y2="0" stroke="#888" stroke-width="1" opacity="1"/></g><g class="mark-text role-axis-label" pointer-events="none"><text text-anchor="end" transform="translate(-7,203)" font-family="Liberation Mono" font-size="10px" fill="#000" opacity="1">0</text><text text-anchor="end" transform="translate(-7,147.44444444444443)" font-family="Liberation Mono" font-size="10px" fill="#000" opacity="1">50</text><text text-anchor="end" transform="translate(-7,91.88888888888889)" font-family="Liberation Mono" font-size="10px" fill="#000" opacity="1">100</text><text text-anchor="end" transform="translate(-7,36.33333333333333)" font-family="Liberation Mono" font-size="10px" fill="#000" opacity="1">150</text></g><g class="mark-rule role-axis-domain" pointer-events="none"><line transform="translate(0,200)" x2="0" y2="-200" stroke="#888" stroke-width="1" opacity="1"/></g><g class="mark-text role-axis-title" pointer-events="none"><text text-anchor="middle" transform="translate(-35,100) rotate(-90) translate(0,-2)" font-family="Liberation Mono" font-size="11px" font-weight="bold" fill="#000" opacity="1">Price</text></g></g><path class="foreground" aria-hidden="true" d="" pointer-events="none" display="none"/></g></g><g class="mark-group role-scope child_pathgroup" role="graphics-object" aria-roledescription="group mark container"><g transform="translate(0,0)"><path class="background" aria-hidden="true" d="M0,0h200v200h-200Z"/><g><g class="mark-line role-mark child_marks" role="graphics-object" aria-roledescription="line mark container"><path aria-label="Time: Aug 30, 2023; Price: 10795; item: DESCHUTES_VALLEY™_RAIN_PONCHO_-_Parka_-_black" role="graphics-symbol" aria-roledescription="line mark" d="M0,80.056L0.308,80.056L0.623,80.056L1.256,80.056L1.572,80.056L1.9,80.056L2.205,80.056L2.521,80.056L3.155,80.056L3.471,80.056L3.798,80.056L4.104,80.056L4.42,80.056L5.054,80.056L5.37,80.056L5.693,80.056L6.002,80.056L6.319,80.056L6.952,80.056L7.496,80.056L7.592,80.056L7.902,80.056L8.218,80.056L8.851,80.056L9.168,80.056L9.495,80.056L9.8,80.056L10.117,80.056L10.752,50.056L11.068,50.056L11.394,50.056L11.7,50.056L12.016,50.056L12.649,50.056L12.965,50.056L13.293,50.056L13.598,50.056L13.915,50.056L14.548,50.056L14.865,50.056L15.191,50.056L15.497,50.056L15.814,50.056L16.646,50.056L16.763,50.056L17.089,50.056L17.395,50.056L17.712,50.056L18.345,50.056L18.662,50.056L18.984,50.056L19.294,50.056L19.611,50.056L20.244,50.056L20.56,50.056L20.883,50.056L21.193,50.056L21.51,50.056L22.142,50.056L22.459,50.056L22.787,50.056L23.092,50.056L23.408,50.056L24.042,50.056L24.358,50.056L24.685,50.056L24.991,50.056L25.308,50.056L25.941,20.056L26.257,20.056L26.585,20.056L26.752,20.056L26.89,20.056L27.206,20.056L27.839,20.056L28.156,20.056L28.484,20.056L28.789,20.056L29.105,20.056L29.738,20.056L30.054,20.056L30.381,20.056L30.687,20.056L31.004,20.056L31.637,20.056L31.953,20.056L32.275,20.056L32.586,20.056L32.902,20.056L33.535,20.056L33.852,20.056L34.175,20.056L34.485,20.056L34.802,20.056L35.435,20.056L35.751,20.056L36.079,20.056L36.384,20.056L36.701,20.056L37.333,20.056L37.65,20.056L37.978,20.056L38.283,20.056L38.599,20.056L39.232,20.056L39.549,20.056L39.877,20.056L40.182,20.056L40.498,20.056L41.131,20.056L41.447,20.056L41.776,20.056L42.08,20.056L42.397,20.056L43.03,20.056L43.346,20.056L43.673,20.056L43.979,20.056L44.295,20.056L44.928,20.056L45.245,20.056L45.568,20.056L45.878,20.056L46.195,20.056L46.827,20.056L47.144,20.056L47.467,20.056L47.777,20.056L48.093,20.056L48.726,20.056L49.043,20.056L49.372,20.056L49.676,20.056L49.992,20.056L50.625,20.056L50.942,20.056L51.271,20.056L51.574,20.056L51.891,20.056L52.524,40.056L52.84,40.056L53.168,40.056L53.473,40.056L53.79,40.056L54.423,40.056L54.739,40.056L55.067,40.056L55.372,40.056L56.321,40.056L56.638,40.056L56.965,40.056L57.271,40.056L57.587,40.056L58.22,40.056L58.537,40.056L58.86,40.056L59.17,40.056L59.486,40.056L60.119,40.056L60.436,40.056L60.76,40.056L61.069,40.056L61.385,40.056L62.018,100.056L62.335,100.056L62.663,100.056L62.968,100.056L63.284,100.056L63.917,90.056L64.234,90.056L64.562,90.056L64.867,90.056L65.183,90.056L65.815,90.056L66.132,90.056L66.462,90.056L66.765,90.056L67.082,90.056L67.715,90.056L68.031,90.056L68.361,90.056L68.664,90.056L68.981,90.056L69.613,90.056L69.93,90.056L70.259,90.056L70.563,90.056L70.88,90.056L71.512,90.056L71.829,90.056L72.152,90.056L72.461,90.056L72.779,90.056L73.411,90.056L73.727,90.056L74.361,90.056L74.677,90.056L75.31,90.056L75.627,90.056L75.957,90.056L76.26,90.056L76.576,90.056L77.209,100.056L77.525,100.056L77.855,100.056L78.158,100.056L78.475,100.056L79.108,100.056L79.425,100.056L79.753,100.056L80.057,100.056L80.374,100.056L81.006,100.056L81.323,100.056L81.652,100.056L81.956,100.056L82.272,100.056L82.905,100.056L83.222,100.056L83.551,100.056L83.855,100.056L84.171,100.056L84.804,100.056L85.121,100.056L85.444,100.056L85.754,100.056L86.07,100.056L86.703,100.056L87.019,100.056L87.343,100.056L87.652,100.056L87.969,100.056L88.602,90.056L88.918,90.056L89.247,90.056L89.551,90.056L89.868,90.056L90.501,90.056L90.817,90.056L91.146,90.056L91.45,90.056L91.766,90.056L92.4,90.056L92.716,90.056L93.044,90.056L93.349,90.056L93.665,90.056L94.298,90.056L94.615,90.056L94.944,90.056L95.248,90.056L95.564,90.056L96.197,90.056L96.514,90.056L96.842,90.056L97.146,90.056L97.463,90.056L98.096,90.056L98.412,90.056L98.736,90.056L99.045,90.056L99.362,90.056L99.995,90.056L100.311,90.056L100.634,90.056L100.944,90.056L101.261,90.056L101.893,90.056L102.21,90.056L102.538,90.056L102.843,90.056L103.159,90.056L103.792,50.056L104.109,50.056L104.436,50.056L104.742,50.056L105.058,50.056L105.691,50.056L106.008,50.056L106.335,50.056L106.64,50.056L106.957,50.056L107.59,50.056L107.907,50.056L108.233,50.056L108.539,50.056L108.856,50.056L109.489,50.056L109.806,50.056L110.131,50.056L110.438,50.056L110.755,50.056L111.387,50.056L111.704,50.056L112.026,50.056L112.337,50.056L112.654,50.056L113.287,50.056L113.603,50.056L113.927,50.056L114.236,50.056L114.552,50.056L115.185,50.056L115.502,50.056L115.829,50.056L116.135,50.056L116.451,50.056L117.084,50.056L117.401,50.056L117.727,50.056L118.034,50.056L118.35,50.056L118.983,50.056L119.299,50.056L119.626,50.056L119.932,50.056L120.249,50.056L120.882,40.056L121.198,40.056L121.525,40.056L121.831,40.056L123.73,40.056L124.047,40.056L124.679,40.056L125.32,40.056L125.629,40.056L133.224,40.056L133.541,40.056L134.173,40.056L134.49,40.056L134.816,40.056L135.123,40.056L135.44,40.056L136.072,70.056L136.389,70.056L136.716,70.056L137.022,70.056L137.338,70.056L137.971,70.056L138.288,70.056L138.611,70.056L139.237,70.056L139.87,70.056L140.186,70.056L140.51,70.056L140.819,70.056L141.136,70.056L141.769,40.056L142.085,40.056L142.413,40.056L142.718,40.056L143.667,40.056L143.984,40.056L144.312,40.056L144.617,40.056L144.933,40.056L145.567,40.056L145.883,40.056L146.212,40.056L146.516,40.056L146.832,40.056L147.466,50.056L147.782,50.056L148.11,50.056L148.414,50.056L148.731,50.056L149.364,50.056L149.681,50.056L150.009,50.056L150.313,50.056L150.63,50.056L151.263,40.056L151.579,40.056L151.904,40.056L152.212,40.056L152.529,40.056L153.162,40.056L153.478,40.056L153.803,40.056L154.111,40.056L154.428,40.056L155.061,40.056L155.377,40.056L155.707,40.056L156.01,40.056L156.326,40.056L156.959,40.056L157.276,40.056L157.605,60.056L157.909,60.056L158.225,60.056L158.859,60.056L159.175,60.056L159.504,60.056L159.808,60.056L160.124,60.056L160.757,60.056L161.074,60.056L161.402,80.056L161.707,80.056L162.023,80.056L162.656,80.056L162.973,80.056L163.299,80.056L163.605,80.056L163.922,80.056L164.555,70.056L164.872,70.056L165.195,70.056L165.504,70.056L165.82,70.056L166.453,70.056L166.77,70.056L167.095,70.056L167.403,70.056L167.719,70.056L168.352,40.056L168.669,40.056L168.998,40.056L169.302,40.056L169.618,40.056L170.251,40.056L170.568,40.056L170.895,40.056L171.201,40.056L171.517,40.056L172.15,40.056L172.467,40.056L172.795,40.056L173.1,40.056L173.416,40.056L174.049,40.056L174.365,40.056L174.693,40.056L174.998,40.056L175.315,40.056L175.948,40.056L176.264,40.056L176.592,40.056L176.897,40.056L177.214,40.056L177.847,40.056L178.163,40.056L178.487,40.056L178.796,40.056L179.112,40.056L179.745,40.056L180.062,40.056L180.387,40.056L180.695,40.056L181.011,40.056L181.644,40.056L181.961,40.056L182.289,40.056L182.594,40.056L182.91,40.056L183.543,50.056L183.86,50.056L184.188,50.056L184.493,50.056L184.809,50.056L185.442,50.056L185.758,50.056L186.087,50.056L186.391,50.056L186.708,50.056L187.341,50.056L187.657,50.056L187.986,50.056L188.29,50.056L188.607,50.056L189.24,50.056L189.556,50.056L189.883,50.056L190.189,50.056L190.506,50.056L191.138,50.056L191.455,50.056L191.779,50.056L192.088,50.056L192.404,50.056L193.037,50.056L193.354,50.056L193.678,50.056L193.986,50.056L194.303,50.056L194.936,50.056L195.253,50.056L195.581,50.056L196.835,50.056L197.151,50.056L197.48,50.056L197.784,50.056L198.101,50.056L198.734,50.056L199.05,50.056L199.379,50.056L199.683,50.056L200,50.056" stroke="#e45756" stroke-width="2"/></g></g><path class="foreground" aria-hidden="true" d="" display="none"/></g><g transform="translate(0,0)"><path class="background" aria-hidden="true" d="M0,0h200v200h-200Z"/><g><g class="mark-line role-mark child_marks" role="graphics-object" aria-roledescription="line mark container"><path aria-label="Time: Aug 30, 2023; Price: 8995; item: HIKING_BACKPACK_PONCHO_-_Veste_imperméable_-_blue" role="graphics-symbol" aria-roledescription="line mark" d="M0,100.056L0.308,100.056L0.623,100.056L1.256,100.056L1.572,100.056L1.9,100.056L2.205,100.056L2.521,100.056L3.156,100.056L3.471,100.056L3.798,100.056L4.104,100.056L4.42,100.056L5.054,100.056L5.37,100.056L5.693,100.056L6.002,100.056L6.319,100.056L6.952,100.056L7.496,100.056L7.592,100.056L22.459,100.056L22.787,100.056L23.092,100.056L23.408,100.056L24.042,100.056L24.358,100.056L24.685,100.056L24.991,100.056L25.308,100.056L25.941,100.056L26.257,100.056L26.585,100.056L26.752,100.056L26.89,100.056L27.206,100.056L27.839,100.056L28.156,100.056L28.484,100.056L28.789,100.056L29.105,100.056L29.738,100.056L30.054,100.056L30.381,100.056L30.687,100.056L31.004,100.056L31.637,100.056L31.953,100.056L32.275,100.056L32.586,100.056L32.902,100.056L33.535,100.056L33.852,100.056L55.372,111.167L56.321,111.167L56.638,111.167L56.965,111.167L57.271,111.167L57.587,111.167L58.22,111.167L58.537,111.167L58.86,111.167L59.17,111.167L59.486,111.167L60.119,111.167L60.436,111.167L60.76,111.167L61.069,111.167L61.385,111.167L62.018,111.167L62.335,111.167L62.663,111.167L62.968,111.167L63.284,111.167L63.917,127.833L64.234,127.833L64.562,127.833L64.867,127.833L65.183,127.833L65.815,127.833L66.132,127.833L66.462,127.833L66.765,127.833L67.082,127.833L67.715,127.833L68.031,127.833L68.361,127.833L68.664,127.833L68.981,127.833L69.613,127.833L69.93,127.833L70.259,127.833L70.563,127.833L70.88,127.833L71.512,127.833L71.829,127.833L72.152,127.833L72.461,127.833L72.779,127.833L73.411,127.833L73.727,127.833L74.361,127.833L74.677,127.833L75.31,127.833" stroke="#54a24b" stroke-width="2"/></g></g><path class="foreground" aria-hidden="true" d="" display="none"/></g><g transform="translate(0,0)"><path class="background" aria-hidden="true" d="M0,0h200v200h-200Z"/><g><g class="mark-line role-mark child_marks" role="graphics-object" aria-roledescription="line mark container"><path aria-label="Time: Aug 30, 2023; Price: 16195; item: DESCHUTES_VALLEY™_RAIN_PONCHO_-_Parka_-_vista_blue" role="graphics-symbol" aria-roledescription="line mark" d="M0,20.056L0.308,20.056L0.623,20.056L1.256,20.056L1.572,20.056L1.9,20.056L2.205,20.056L2.521,20.056L3.156,20.056L3.471,20.056L3.798,20.056L4.104,20.056L4.42,20.056L5.054,20.056L5.37,20.056L5.693,20.056L6.002,20.056L6.319,20.056L6.952,20.056L7.496,20.056L7.592,20.056L7.902,20.056L8.218,20.056L8.851,20.056L9.168,20.056L9.495,20.056L9.8,20.056L10.117,20.056L10.752,80.056L11.068,80.056L11.394,80.056L11.7,80.056L12.016,80.056L12.649,80.056L12.965,80.056L13.293,80.056L13.598,80.056L13.915,80.056L14.548,80.056L14.865,80.056L15.191,80.056L15.497,80.056L15.814,80.056L16.646,80.056L16.763,80.056L17.089,80.056L17.395,80.056L17.712,80.056L18.345,80.056L18.662,80.056L18.984,80.056L19.294,80.056L19.611,80.056L20.244,80.056L20.56,80.056L20.883,80.056L21.193,80.056L21.51,80.056L22.142,80.056L22.459,80.056L22.787,80.056L23.092,80.056L23.408,80.056L24.042,80.056L24.358,80.056L24.685,80.056L24.991,80.056L25.308,80.056L25.941,20.056L26.257,20.056L26.585,20.056L26.752,20.056L26.89,20.056L27.206,20.056L27.839,20.056L28.156,20.056L28.484,20.056L28.789,20.056L29.105,20.056L29.738,20.056L30.054,20.056L30.381,20.056L30.687,20.056L31.004,20.056L31.637,20.056L31.953,20.056L32.275,20.056L32.586,20.056L32.902,20.056L33.535,20.056L33.852,20.056L34.175,20.056L34.485,20.056L34.802,20.056L35.435,20.056L35.751,20.056L36.079,20.056L36.384,20.056L36.701,20.056L37.333,20.056L37.65,20.056L37.978,20.056L38.283,20.056L38.599,20.056L39.232,20.056L39.549,20.056L39.877,20.056L40.182,20.056L40.498,20.056L41.131,20.056L41.447,20.056L41.776,20.056L42.08,20.056L42.397,20.056L43.03,20.056L43.346,20.056L43.673,20.056L43.979,20.056L44.295,20.056L44.928,20.056L45.245,20.056L45.568,20.056L45.878,20.056L46.195,20.056L46.827,20.056L47.144,20.056L47.467,20.056L47.777,20.056L48.093,20.056L48.726,20.056L49.043,20.056L49.372,20.056L49.676,20.056L49.992,20.056L50.625,20.056L50.942,20.056L51.271,20.056L51.574,20.056L51.891,20.056L52.524,40.056L52.84,40.056L53.168,40.056L53.473,40.056L53.79,40.056L54.423,40.056L54.739,40.056L55.067,40.056L55.372,40.056L56.321,40.056L56.638,40.056L56.965,40.056L57.271,40.056L57.587,40.056L58.22,40.056L58.537,40.056L58.86,40.056L59.17,40.056L59.486,40.056L60.119,40.056L60.436,40.056L60.76,40.056L61.069,40.056L61.385,40.056L62.018,90.056L62.335,90.056L62.663,90.056L62.968,90.056L63.284,90.056L63.917,40.056L64.234,40.056L64.562,40.056L64.867,40.056L65.183,40.056L65.815,40.056L66.132,40.056L66.462,40.056L66.765,40.056L67.082,40.056L67.715,40.056L68.031,40.056L68.361,40.056L68.664,40.056L68.981,40.056L69.613,40.056L69.93,40.056L70.259,40.056L70.563,40.056L70.88,40.056L71.512,40.056L71.829,40.056L72.152,40.056L72.461,40.056L72.779,40.056L73.411,40.056L73.727,40.056L74.361,40.056L74.677,40.056L75.31,40.056L75.627,40.056L75.957,40.056L76.26,40.056L76.576,40.056L77.209,90.056L77.525,90.056L77.855,90.056L78.158,90.056L78.475,90.056L79.108,90.056L79.425,90.056L79.753,90.056L80.057,90.056L80.374,90.056L81.006,90.056L81.323,90.056L81.652,90.056L81.956,90.056L82.272,90.056L82.905,90.056L83.222,90.056L83.551,90.056L83.855,90.056L84.171,90.056L84.804,40.056L85.121,40.056L85.444,40.056L85.754,40.056L86.07,40.056L86.703,40.056L87.019,40.056L87.343,40.056L87.652,40.056L87.969,40.056L88.602,100.056L88.918,100.056L89.247,100.056L89.551,100.056L89.868,100.056L90.501,100.056L90.817,100.056L91.146,100.056L91.45,100.056L91.766,100.056L92.4,100.056L92.716,100.056L93.044,100.056L93.349,100.056L93.665,100.056L94.298,100.056L94.615,100.056L94.943,100.056L95.248,100.056L95.564,100.056L96.197,100.056L96.514,100.056L96.842,100.056L97.146,100.056L97.463,100.056L98.096,100.056L98.412,100.056L98.736,100.056L99.045,100.056L99.362,100.056L99.995,100.056L100.311,100.056L100.634,100.056L100.944,100.056L101.261,100.056L101.893,100.056L102.21,100.056L102.538,100.056L102.843,100.056L103.159,100.056L103.792,40.056L104.109,40.056L104.436,40.056L104.742,40.056L105.058,40.056L105.691,40.056L106.008,40.056L106.335,40.056L106.64,40.056L106.957,40.056L107.59,40.056L107.907,40.056L108.233,40.056L108.539,40.056L108.856,40.056L109.489,40.056L109.806,40.056L110.131,40.056L110.438,40.056L110.755,40.056L111.387,40.056L111.704,40.056L112.026,40.056L112.337,40.056L112.654,40.056L113.287,40.056L113.603,40.056L113.927,40.056L114.236,40.056L114.552,40.056L115.186,40.056L115.502,40.056L115.829,40.056L116.135,40.056L116.451,40.056L117.084,40.056L117.401,40.056L117.727,40.056L118.034,40.056L118.35,40.056L118.983,40.056L119.299,40.056L119.626,40.056L119.932,40.056L120.249,40.056L120.882,40.056L121.198,40.056L121.525,40.056L121.831,40.056L122.147,40.056L122.78,40.056L123.097,40.056L123.425,40.056L123.73,40.056L124.047,40.056L124.679,40.056L124.996,40.056L125.32,40.056L125.629,40.056L125.946,40.056L126.578,40.056L126.894,40.056L127.218,40.056L127.528,40.056L127.844,40.056L128.477,40.056L128.794,40.056L129.123,40.056L129.427,40.056L129.743,40.056L130.376,40.056L130.693,40.056L131.02,40.056L131.325,40.056L131.642,40.056L132.275,40.056L132.591,40.056L132.918,40.056L133.224,40.056L133.541,40.056L134.173,40.056L134.49,40.056L134.816,40.056L135.123,40.056L135.44,40.056L136.072,40.056L136.389,40.056L136.716,40.056L137.022,40.056L137.338,40.056L137.971,40.056L138.288,40.056L138.611,40.056L139.237,40.056L139.87,40.056L140.186,40.056L140.51,40.056L140.819,40.056L141.136,40.056L141.769,40.056L142.085,40.056L142.413,40.056L142.718,40.056L143.667,40.056L143.984,40.056L144.312,40.056L144.617,40.056L144.933,40.056L145.567,40.056L145.883,40.056L146.212,40.056L146.516,40.056L146.832,40.056L147.466,120.056L147.782,120.056L148.11,120.056L148.414,120.056L148.731,120.056L149.364,120.056L149.681,120.056L150.009,120.056L150.313,120.056L150.63,120.056L151.263,40.056L151.579,40.056L151.904,40.056L152.212,40.056L152.529,40.056L153.162,40.056L153.478,40.056L153.803,40.056L154.111,40.056L154.428,40.056L155.061,50.056L155.377,50.056L155.707,70.056L156.01,70.056L156.326,70.056L156.959,70.056L157.276,70.056L157.605,70.056L157.909,70.056L158.225,70.056L158.859,70.056L159.175,70.056L159.504,70.056L159.808,70.056L160.124,70.056L160.757,120.056L161.074,120.056L161.402,120.056L161.707,120.056L162.023,120.056L162.656,120.056L162.973,120.056L163.299,120.056L163.605,120.056L163.922,120.056L164.555,120.056L164.872,120.056L165.195,120.056L165.504,120.056L165.82,120.056L166.453,120.056L166.77,120.056L167.095,120.056L167.403,120.056L167.719,120.056L168.352,40.056L168.669,40.056L168.998,40.056L169.302,40.056L169.618,40.056L170.251,40.056L170.568,40.056L170.895,40.056L171.201,40.056L171.517,40.056L172.15,40.056L172.467,40.056L172.795,40.056L173.1,40.056L173.416,40.056L174.049,40.056L174.365,40.056L174.693,40.056L174.998,40.056L175.315,40.056L175.948,40.056L176.264,40.056L176.592,40.056L176.897,40.056L177.214,40.056L177.847,40.056L178.163,40.056L178.487,40.056L178.796,40.056L179.112,40.056L179.745,40.056L180.062,40.056L180.387,40.056L180.695,40.056L181.011,40.056L181.644,40.056L181.961,40.056L182.289,40.056L182.594,40.056L182.91,40.056L183.543,100.056L183.86,100.056L184.188,100.056L184.493,100.056L184.809,100.056L185.442,100.056L185.758,100.056L186.087,100.056L186.391,100.056L186.708,100.056L187.341,100.056L187.657,100.056L187.986,100.056L188.29,100.056L188.607,100.056L189.24,100.056L189.556,100.056L189.883,100.056L190.189,100.056L190.506,100.056L191.138,100.056L191.455,100.056L191.779,100.056L192.088,100.056L192.404,100.056L193.037,100.056L193.354,100.056L193.678,100.056L193.986,100.056L194.303,100.056L194.936,100.056L195.253,100.056L195.581,100.056L195.885,100.056L196.202,100.056L196.835,100.056L197.151,100.056L197.48,100.056L197.784,100.056L198.101,100.056L198.734,100.056L199.05,100.056L199.379,100.056L199.683,100.056L200,100.056" stroke="#f58518" stroke-width="2"/></g></g><path class="foreground" aria-hidden="true" d="" display="none"/></g><g transform="translate(0,0)"><path class="background" aria-hidden="true" d="M0,0h200v200h-200Z"/><g><g class="mark-line role-mark child_marks" role="graphics-object" aria-roledescription="line mark container"><path aria-label="Time: Aug 30, 2023; Price: 5495; item: COVERO_PONCHO_II_-_Cape_-_lightgrey" role="graphics-symbol" aria-roledescription="line mark" d="M0,138.944L0.308,138.944L0.623,138.944L1.256,138.944L1.572,138.944L1.9,138.944L2.205,138.944L2.521,138.944L3.156,138.944L3.471,138.944L5.37,138.944L5.693,138.944L6.002,138.944L6.319,138.944L6.953,138.944L7.496,138.944L7.592,138.944L7.902,138.944L8.218,138.944L8.851,138.944L9.168,138.944L9.495,138.944L9.8,138.944L10.117,138.944L10.752,138.944L11.068,138.944L11.394,138.944L11.7,138.944L12.016,138.944L17.395,153.944L20.56,138.944L20.883,138.944L21.193,138.944L21.51,138.944L22.142,138.944L22.459,138.944L22.787,138.944L23.092,138.944L23.408,138.944L24.042,138.944L24.358,138.944L24.685,138.944L24.991,138.944L25.308,138.944L25.941,138.944L26.257,138.944L26.585,138.944L26.752,138.944L26.89,138.944L27.206,138.944L27.839,138.944L28.156,138.944L28.484,138.944L28.789,138.944L29.105,138.944L29.738,138.944L30.054,138.944L30.381,138.944L30.687,138.944L31.004,138.944L31.637,138.944L31.953,138.944L32.275,138.944L32.586,138.944L32.902,138.944L33.535,138.944L33.852,138.944L34.175,138.944L34.485,138.944L34.802,138.944L35.435,138.944L35.751,138.944L36.079,138.944L36.384,138.944L36.701,138.944L37.333,138.944L37.65,138.944L37.978,138.944L38.283,138.944L38.599,138.944L39.232,151.167L39.549,151.167L39.877,151.167L40.182,151.167L40.498,151.167L41.131,151.167L41.447,151.167L41.776,151.167L42.08,151.167L42.397,151.167L43.03,151.167L43.346,151.167L43.673,151.167L45.245,151.167L45.568,151.167L45.878,151.167L46.195,151.167L46.827,151.167L47.144,151.167L47.467,151.167L47.777,151.167L48.093,151.167L48.726,151.167L49.043,151.167L49.372,151.167L49.676,151.167L49.992,151.167L50.625,151.167L50.942,151.167L51.271,151.167L51.574,151.167L51.891,151.167L52.524,151.167L52.84,151.167L53.168,151.167L53.473,151.167L53.79,151.167L54.423,151.167L54.739,151.167L55.067,151.167L55.372,151.167L56.321,151.167L56.638,151.167L56.965,151.167L57.271,151.167L57.587,151.167L58.22,151.167L58.537,151.167L58.86,151.167L59.17,151.167L59.486,151.167L60.119,151.167L60.436,151.167L60.76,151.167L61.069,151.167L61.385,151.167L62.018,151.167L62.335,151.167L62.663,151.167L62.968,151.167L63.284,151.167L63.917,151.167L64.234,151.167L64.562,151.167L64.867,151.167L65.183,151.167L65.815,151.167L66.132,151.167L66.462,151.167L66.765,151.167L67.082,151.167L67.715,151.167L68.031,151.167L68.361,151.167L68.664,151.167L68.981,151.167L69.613,151.167L69.93,151.167L70.259,151.167L70.563,151.167L70.88,151.167L71.829,151.167L72.152,151.167L73.411,151.167L73.727,151.167L74.361,151.167L74.677,151.167L76.26,151.167L76.576,151.167L77.209,151.167L77.525,151.167L77.855,151.167L78.475,151.167L79.108,138.944L79.425,138.944L79.753,138.944L80.057,138.944L80.374,138.944L83.855,138.944L85.754,153.944L89.868,153.944L90.501,153.944L91.45,153.944L92.4,153.944L93.349,153.944L93.665,153.944L94.615,153.944L97.146,153.944L97.463,153.944L98.096,153.944L100.634,153.944L100.944,153.944L101.261,153.944L101.893,153.944L102.843,153.944L103.159,153.944L103.792,153.944L104.109,153.944L104.436,153.944L105.058,153.944L106.008,153.944L106.335,153.944L106.64,153.944L107.59,153.944L107.907,153.944L108.539,153.944L110.438,153.944L110.755,153.944L111.387,153.944L112.026,153.944L112.337,153.944L112.654,153.944L113.603,153.944L113.927,153.944L114.236,153.944L115.186,153.944L115.502,153.944L115.829,153.944L116.135,153.944L116.451,153.944L117.084,153.944L117.401,153.944L117.727,153.944L118.034,153.944L118.35,153.944L118.983,153.944L121.198,153.944L121.525,153.944L121.831,153.944L122.147,153.944L123.097,153.944L123.425,153.944L123.73,153.944L124.047,153.944L124.679,145.611L124.996,145.611L131.642,145.611L132.275,145.611L132.591,145.611L132.918,145.611L133.224,145.611L133.541,145.611L134.49,145.611L134.816,145.611L135.123,145.611L135.44,145.611L136.072,145.611L136.716,145.611L137.338,145.611L138.288,145.611L138.611,145.611L139.237,145.611L139.87,145.611L140.186,145.611L140.51,145.611L140.819,145.611L141.136,145.611L141.769,138.944L142.413,138.944L143.667,138.944L143.984,138.944L144.312,138.944L144.617,138.944L144.933,138.944L145.567,138.944L145.883,138.944L146.212,138.944L146.516,138.944L146.832,138.944L147.782,153.944L148.11,153.944L148.414,153.944L148.731,153.944L149.364,153.944L150.313,153.944L150.63,153.944L151.263,153.944L151.579,153.944L151.904,153.944L152.212,160.056L155.377,138.944L155.707,138.944L156.01,138.944L156.326,138.944L156.959,138.944L157.276,138.944L157.605,138.944L157.909,138.944L158.225,138.944L158.859,138.944L159.175,138.944L159.504,138.944L159.808,138.944L160.124,138.944L161.074,163.389L176.592,138.944L177.847,138.944L178.796,138.944L180.062,138.944L181.961,138.944L182.289,138.944L182.594,138.944L182.91,138.944L183.543,138.944L185.758,138.944L187.341,138.944L190.189,138.944L191.455,138.944L191.779,138.944L192.088,138.944L192.404,138.944L193.037,138.944L193.678,138.944L195.253,138.944L195.581,138.944L195.885,138.944L196.202,138.944L197.48,138.944L198.734,138.944" stroke="#bab0ac" stroke-width="2"/></g></g><path class="foreground" aria-hidden="true" d="" display="none"/></g><g transform="translate(0,0)"><path class="background" aria-hidden="true" d="M0,0h200v200h-200Z"/><g><g class="mark-line role-mark child_marks" role="graphics-object" aria-roledescription="line mark container"><path aria-label="Time: Sep 01, 2023; Price: 12995; item: KUURA_3L_PONCHO_UNISEX_-_Veste_imperméable_-_green" role="graphics-symbol" aria-roledescription="line mark" d="M4.42,55.611L5.054,55.611L5.37,55.611L5.693,55.611L9.168,55.611L9.495,55.611L9.8,55.611L10.117,55.611L10.752,11.167L11.068,11.167L11.394,11.167L11.7,11.167L12.016,11.167L12.649,11.167L12.965,11.167L13.293,11.167L13.598,11.167L13.915,11.167L14.548,11.167L14.865,11.167L15.191,11.167L15.497,11.167L15.814,11.167L16.646,11.167L16.763,11.167L17.089,11.167L17.395,11.167L17.712,11.167L18.345,11.167L18.662,11.167L18.984,11.167L19.294,11.167L19.611,11.167L20.244,11.167L20.56,11.167L20.883,11.167L21.193,11.167L21.51,11.167L22.142,11.167L22.459,11.167L22.787,11.167L23.092,11.167L24.042,11.167L24.358,11.167L24.685,11.167L24.991,11.167L25.308,11.167L32.275,22.278L32.586,22.278L32.902,22.278L33.535,22.278L33.852,22.278L34.175,22.278L34.485,22.278L34.802,22.278L35.435,22.278L35.751,22.278L36.079,22.278L37.65,22.278L37.978,22.278L38.283,22.278L38.599,22.278L39.232,22.278L39.549,22.278L64.867,22.278L65.183,22.278L65.815,22.278L66.132,22.278L66.462,22.278L66.765,22.278L67.082,22.278L67.715,22.278L68.031,22.278L68.361,22.278L68.664,22.278L68.981,22.278L69.613,22.278L69.93,22.278L70.259,22.278L70.563,22.278L70.88,22.278L71.512,22.278L71.829,22.278L72.152,22.278L72.461,22.278L72.779,22.278L101.893,22.278L102.21,22.278L102.538,22.278L102.843,22.278L103.159,22.278L103.792,22.278L104.109,22.278L104.436,22.278L104.742,22.278" stroke="#4c78a8" stroke-width="2"/></g></g><path class="foreground" aria-hidden="true" d="" display="none"/></g><g transform="translate(0,0)"><path class="background" aria-hidden="true" d="M0,0h200v200h-200Z"/><g><g class="mark-line role-mark child_marks" role="graphics-object" aria-roledescription="line mark container"><path aria-label="Time: Sep 14, 2023; Price: 6495; item: PARIS_ST._GERMAIN_CITY_MADE_PONCHO_-_Veste_de_survêtement_-_aura_white" role="graphics-symbol" aria-roledescription="line mark" d="M27.839,127.833L28.156,127.833L28.484,127.833L28.789,127.833L29.105,127.833L29.738,127.833L30.054,127.833L31.637,127.833L33.852,127.833L34.175,127.833L34.485,127.833L34.802,127.833L35.435,127.833L35.751,127.833L36.079,127.833L36.384,127.833L36.701,127.833L37.333,127.833L37.65,127.833L37.978,127.833L38.283,127.833L38.599,127.833L39.232,127.833L39.549,127.833L39.877,127.833L40.182,127.833L40.498,127.833L41.131,127.833L41.447,127.833L41.776,127.833L42.08,127.833L42.397,127.833L43.03,127.833L43.346,127.833L43.673,127.833L43.979,127.833L44.295,127.833L44.928,127.833L45.245,127.833L45.568,127.833L45.878,127.833L46.195,127.833L46.827,127.833L47.144,127.833L47.467,127.833L47.777,127.833L48.093,127.833L48.726,127.833L49.043,127.833L49.372,127.833L49.676,127.833L49.992,127.833L50.625,127.833L50.942,127.833L51.271,127.833" stroke="#b279a2" stroke-width="2"/></g></g><path class="foreground" aria-hidden="true" d="" display="none"/></g><g transform="translate(0,0)"><path class="background" aria-hidden="true" d="M0,0h200v200h-200Z"/><g><g class="mark-line role-mark child_marks" role="graphics-object" aria-roledescription="line mark container"><path aria-label="Time: Sep 18, 2023; Price: 8995; item: HIKING_BACKPACK_PONCHO_-_Veste_imperméable_-_indian_red" role="graphics-symbol" aria-roledescription="line mark" d="M35.435,100.056L35.751,100.056L36.079,100.056L36.384,100.056L36.701,100.056L37.333,100.056L37.65,100.056L49.676,100.056L49.992,100.056L50.625,100.056L50.942,100.056L51.271,100.056L51.574,100.056L51.891,100.056L52.524,111.167L52.84,111.167L53.168,111.167L53.473,111.167L83.551,111.167L83.855,111.167L84.171,111.167L84.804,111.167L85.121,111.167L85.444,111.167L85.754,111.167L86.07,111.167L86.703,111.167" stroke="#eeca3b" stroke-width="2"/></g></g><path class="foreground" aria-hidden="true" d="" display="none"/></g><g transform="translate(0,0)"><path class="background" aria-hidden="true" d="M0,0h200v200h-200Z"/><g><g class="mark-line role-mark child_marks" role="graphics-object" aria-roledescription="line mark container"><path aria-label="Time: Sep 26, 2023; Price: 6495; item: PSG_M_NSW_CITY_MADE_PONCHO_-_Veste_de_survêtement_-_aura_white" role="graphics-symbol" aria-roledescription="line mark" d="M51.574,127.833L51.891,127.833L52.524,91.167L52.84,91.167L53.168,91.167L53.473,91.167L53.79,91.167L54.423,91.167L54.739,91.167L55.067,91.167L55.372,91.167L56.321,91.167L56.638,91.167L56.965,91.167L57.271,91.167L57.587,91.167L58.22,91.167L58.537,91.167L58.86,91.167L59.17,91.167L59.486,91.167L60.119,91.167L60.436,91.167L60.76,91.167L61.069,91.167L61.385,91.167L62.018,127.833L62.335,127.833L62.663,127.833L62.968,127.833L63.284,127.833L63.917,127.833L64.234,127.833L64.562,127.833L64.867,127.833L65.183,127.833L65.815,127.833L66.132,127.833L66.462,127.833L66.765,127.833L67.082,127.833L67.715,127.833L68.031,127.833L68.361,127.833L68.664,127.833L68.981,127.833L69.613,127.833L69.93,127.833L70.259,127.833L70.563,127.833L70.88,127.833L71.512,127.833L71.829,127.833L72.152,127.833L72.461,127.833L72.779,127.833L73.411,127.833L73.727,127.833L74.361,127.833L74.677,127.833L75.31,127.833L75.627,127.833L75.957,127.833L76.26,127.833L76.576,127.833L77.209,84.5L77.525,84.5L77.855,84.5L78.475,84.5L79.108,84.5L79.425,84.5L79.753,84.5L80.057,84.5L80.374,84.5L81.006,84.5L81.323,84.5L82.905,84.5L83.855,84.5L85.754,127.833L86.703,127.833L88.919,127.833L89.247,127.833L101.261,127.833L101.893,127.833L102.21,127.833L102.538,127.833L104.109,127.833L104.436,127.833L106.64,127.833L106.957,127.833L108.233,127.833L108.856,127.833L109.489,127.833L110.131,127.833L111.704,127.833L112.654,127.833L113.287,127.833L113.603,127.833L113.927,127.833L114.552,127.833L115.502,127.833L116.451,127.833L117.084,127.833L117.401,127.833L117.727,127.833L118.034,127.833L118.35,127.833L118.983,127.833L119.299,127.833L119.626,127.833L119.932,127.833L120.249,127.833L120.882,127.833L121.198,127.833L121.525,127.833L121.831,127.833L122.147,127.833L122.78,127.833L123.097,127.833L123.425,127.833L123.73,127.833L124.047,127.833L124.679,127.833L124.996,127.833L125.32,127.833L125.629,127.833L125.946,127.833L126.578,127.833L126.894,127.833L127.218,127.833L127.528,127.833L127.844,127.833L128.477,127.833L128.794,127.833L129.123,127.833L129.427,127.833L129.743,127.833L130.376,127.833L130.693,127.833L131.02,127.833L131.325,127.833L131.642,127.833L132.275,127.833L132.918,127.833L133.224,127.833L133.541,127.833L134.816,127.833L135.123,127.833L136.072,84.5L136.716,84.5L137.338,84.5L139.237,84.5L141.136,84.5L142.413,127.833L143.667,127.833L143.984,127.833L144.312,127.833L144.933,127.833L145.567,127.833L145.883,127.833L146.212,127.833L146.516,127.833L147.782,156.722L151.579,127.833L151.904,127.833L153.162,127.833L156.326,105.611L156.959,105.611L159.504,105.611L159.808,105.611L161.074,148.944L165.82,148.944L166.453,148.944L169.618,120.056L170.251,127.833L171.517,127.833L172.795,127.833L174.693,127.833L175.315,127.833L176.592,91.167L177.847,91.167L178.796,91.167L180.062,127.833L182.289,91.167L185.758,127.833L190.189,127.833L191.779,127.833L192.404,127.833L193.678,127.833L195.253,127.833L195.581,127.833L195.885,127.833L196.202,127.833L196.835,127.833L197.151,127.833L197.48,127.833L197.784,127.833L198.101,127.833L198.734,127.833" stroke="#ff9da6" stroke-width="2"/></g></g><path class="foreground" aria-hidden="true" d="" display="none"/></g><g transform="translate(0,0)"><path class="background" aria-hidden="true" d="M0,0h200v200h-200Z"/><g><g class="mark-line role-mark child_marks" role="graphics-object" aria-roledescription="line mark container"><path aria-label="Time: Oct 12, 2023; Price: 4995; item: SHOWERPROOF_PONCHO_UNISEX_-_Cape_-_classic_tartan" role="graphics-symbol" aria-roledescription="line mark" d="M81.006,144.5L81.323,144.5L81.652,144.5L81.956,144.5L82.272,144.5L82.905,144.5L83.222,144.5L83.551,144.5L83.855,144.5L84.171,144.5L84.804,144.5L85.121,144.5L85.444,144.5L85.754,144.5L86.07,144.5L86.703,144.5L87.019,144.5L87.343,144.5L87.652,144.5L87.969,144.5L88.602,152.611L88.918,152.611L89.247,152.611L89.551,152.611L89.868,152.611L90.501,152.611L90.817,152.611L91.146,152.611L91.45,152.611L91.766,152.611L92.4,152.611L92.716,152.611L93.044,152.611L93.349,152.611L93.665,152.611L94.298,152.611L94.615,152.611L94.944,152.611L95.248,152.611L95.564,152.611L96.197,152.611L96.514,152.611L96.842,152.611L97.146,152.611L97.463,152.611L98.096,152.611L98.412,152.611L98.736,152.611L99.045,152.611L99.362,152.611L99.995,144.5L100.311,144.5L100.634,144.5L100.944,144.5L101.261,144.5L101.893,144.5L102.21,144.5L102.538,144.5L102.843,144.5L103.159,144.5L103.792,152.611L104.109,152.611L104.436,152.611L104.742,152.611L105.058,152.611L105.691,152.611L106.008,152.611L106.335,152.611L106.64,152.611L106.957,152.611L107.59,152.611L107.907,152.611L108.233,152.611L108.539,152.611L108.856,152.611L109.489,152.611L109.806,152.611L110.131,152.611L110.438,152.611L110.755,152.611L111.387,152.611L111.704,152.611L112.026,152.611L112.337,152.611L112.654,152.611L113.287,152.611L113.603,152.611L113.927,152.611L114.236,152.611L114.552,152.611L115.186,144.5L115.502,144.5L115.829,144.5L116.135,144.5L116.451,144.5L117.084,144.5L117.401,144.5L117.727,144.5L118.034,144.5L118.35,144.5L118.983,152.611L119.299,152.611L119.626,152.611L119.932,152.611L120.249,152.611L120.882,152.611L121.198,152.611L121.525,152.611L121.831,152.611L122.147,152.611L122.78,152.611L123.097,152.611L123.425,152.611L123.73,152.611L124.047,152.611L124.679,152.611L124.996,152.611L125.32,152.611L125.629,152.611L125.946,152.611L126.578,152.611L126.894,152.611L127.218,152.611L127.528,152.611L127.844,152.611L128.477,152.611L128.794,152.611L129.123,152.611L129.427,152.611L129.743,152.611L130.376,150.056L130.693,144.5L131.02,144.5L131.325,144.5L131.642,144.5L132.275,144.5L132.591,144.5L132.918,144.5L133.224,144.5L133.541,144.5L134.173,144.5L134.49,144.5L134.816,144.5L135.123,144.5L135.44,144.5L136.072,144.5L136.389,144.5L136.716,144.5L137.022,144.5L137.338,144.5L137.971,144.5L138.288,144.5L138.611,144.5L139.237,144.5L139.87,144.5L140.186,144.5L140.51,144.5L140.819,144.5L141.136,144.5L141.769,144.5L142.085,144.5L142.413,144.5L142.718,144.5L143.667,144.5L143.984,144.5L144.312,144.5L144.617,144.5L144.933,144.5L145.567,144.5L145.883,144.5L146.212,144.5L146.516,144.5L146.832,144.5L147.466,144.5L147.782,144.5L148.11,144.5L148.414,144.5L148.731,144.5L149.364,144.5L149.681,144.5L150.009,144.5L150.313,144.5L150.63,144.5L151.263,144.5L151.579,144.5L151.904,144.5L152.212,144.5L152.529,144.5L153.162,144.5L153.478,144.5L153.803,144.5L154.111,144.5L154.428,144.5L155.061,144.5L155.377,144.5L155.707,144.5L156.01,144.5L156.326,144.5L156.959,144.5L157.276,144.5L157.605,144.5L157.909,144.5L158.225,144.5L158.859,144.5L159.175,144.5L159.504,144.5L159.808,144.5L160.124,144.5L182.594,144.5L182.91,144.5L183.543,144.5L183.86,144.5L184.188,144.5L184.493,144.5L184.809,144.5L185.442,144.5L185.758,144.5L186.087,144.5L186.391,144.5L186.708,144.5L187.341,144.5L187.657,144.5L187.986,144.5L188.29,144.5L188.607,144.5L189.24,144.5L189.556,144.5L189.883,144.5L190.189,144.5L190.506,144.5L191.138,144.5L191.455,144.5L191.779,144.5L192.088,144.5L192.404,144.5L193.037,144.5L193.354,144.5L193.678,144.5L193.986,144.5L194.303,144.5L194.936,144.5L195.253,144.5L195.581,144.5L195.885,144.5L196.202,144.5L196.835,144.5L197.151,144.5L197.48,144.5L197.784,144.5L198.101,144.5L198.734,144.5L199.05,144.5L199.379,144.5L199.683,144.5L200,144.5" stroke="#9d755d" stroke-width="2"/></g></g><path class="foreground" aria-hidden="true" d="" display="none"/></g><g transform="translate(0,0)"><path class="background" aria-hidden="true" d="M0,0h200v200h-200Z"/><g><g class="mark-line role-mark child_marks" role="graphics-object" aria-roledescription="line mark container"><path aria-label="Time: Oct 12, 2023; Price: 13995; item: PONCHO_-_Cape_-_lucid_blue" role="graphics-symbol" aria-roledescription="line mark" d="M81.006,44.5L83.222,44.5L83.855,44.5L84.804,91.167L85.754,91.167L87.019,91.167L87.343,91.167L87.652,91.167L87.969,91.167L88.602,91.167L88.919,91.167L89.247,91.167L89.551,91.167L89.868,91.167L90.501,91.167L90.817,91.167L91.146,91.167L91.45,91.167L91.766,91.167L92.4,91.167L92.716,91.167L93.044,91.167L93.349,91.167L93.665,91.167L94.298,91.167L94.615,91.167L94.944,91.167L95.564,91.167L97.146,91.167L97.463,91.167L98.096,91.167L99.045,91.167L99.995,91.167L100.311,91.167L100.634,91.167L100.944,91.167L101.261,91.167L102.843,91.167L103.792,114.5L104.109,114.5L105.058,114.5L106.008,114.5L106.335,114.5L106.64,114.5L107.59,114.5L109.489,114.5L109.806,114.5L110.131,114.5L110.438,114.5L110.755,114.5L111.387,114.5L111.704,114.5L112.026,114.5L112.337,114.5L112.654,114.5L113.287,114.5L113.603,114.5L113.927,114.5L114.236,114.5L114.552,114.5L115.186,114.5L115.502,114.5L115.829,114.5L116.135,114.5L116.451,114.5L117.084,114.5L117.401,114.5L117.727,114.5L118.034,114.5L118.35,114.5L118.983,114.5L119.299,114.5L119.626,114.5L119.932,114.5L120.249,114.5L120.882,83.389L121.198,83.389L122.147,83.389L122.78,83.389L124.679,83.389L124.996,83.389L125.629,83.389L125.946,83.389L126.578,83.389L126.894,83.389L127.218,83.389L127.528,83.389L127.844,83.389L128.477,83.389L128.794,83.389L129.743,83.389L130.376,44.5L130.693,44.5L131.02,44.5L131.325,44.5L131.642,44.5L132.275,44.5L132.591,44.5L132.918,44.5L133.224,44.5L133.541,44.5L134.173,44.5L134.49,44.5L134.816,44.5L135.123,44.5L135.44,44.5L136.072,122.278L136.716,122.278L137.338,122.278L138.288,122.278L138.611,122.278L139.237,122.278L139.87,122.278L140.186,122.278L140.51,122.278L140.819,122.278L141.136,122.278L141.769,44.5L142.085,44.5L142.413,44.5L142.718,44.5L143.667,44.5L143.984,44.5L144.312,44.5L144.617,44.5L144.933,44.5L145.567,44.5L145.883,44.5L146.212,44.5L146.516,44.5L146.832,44.5L147.782,130.056L148.11,130.056L148.414,130.056L148.731,130.056L149.364,130.056L150.63,130.056L151.263,44.5L151.579,44.5L151.904,44.5L153.162,44.5L153.478,44.5L153.803,44.5L154.111,44.5L154.428,44.5L155.061,60.056L155.377,60.056L155.707,106.722L156.01,106.722L156.326,122.278L156.959,122.278L157.276,122.278L157.605,122.278L157.909,122.278L158.225,122.278L158.859,122.278L159.175,122.278L159.504,122.278L159.808,122.278L160.124,122.278L160.757,122.278L161.074,122.278L161.402,122.278L161.707,122.278L162.023,122.278L162.656,122.278L164.872,130.056L165.195,122.278L165.504,122.278L165.82,122.278L166.453,122.278L166.77,122.278L167.095,122.278L167.403,122.278L167.719,122.278L168.352,122.278L169.618,75.611L170.251,44.5L170.568,44.5L170.895,44.5L171.201,44.5L171.517,44.5L172.15,44.5L172.467,44.5L172.795,44.5L173.1,44.5L173.416,44.5L174.049,44.5L174.365,44.5L174.693,44.5L174.998,44.5L175.315,44.5L175.948,44.5L176.264,44.5L176.592,44.5L177.214,44.5L177.847,44.5L178.163,44.5L178.487,44.5L178.796,44.5L179.112,44.5L179.745,44.5L180.062,44.5L180.387,44.5L180.695,44.5L181.011,44.5L181.644,44.5L182.289,44.5L185.758,91.167L186.087,91.167L186.391,91.167L186.708,91.167L187.341,91.167L189.883,91.167L190.189,91.167L191.779,91.167L192.404,91.167L193.678,122.278L193.986,122.278L194.303,122.278L194.936,122.278L195.253,122.278L195.581,122.278L195.885,122.278L196.202,122.278L196.835,91.167L197.48,91.167L197.784,91.167L198.101,91.167L198.734,91.167" stroke="#72b7b2" stroke-width="2"/></g></g><path class="foreground" aria-hidden="true" d="" display="none"/></g></g><g class="mark-group role-legend" role="graphics-symbol" aria-roledescription="legend" aria-label="Symbol legend titled 'item' for stroke color with 10 values: KUURA_3L_PONCHO_UNISEX_-_Veste_imperméable_-_green, DESCHUTES_VALLEY™_RAIN_PONCHO_-_Parka_-_vista_blue, DESCHUTES_VALLEY™_RAIN_PONCHO_-_Parka_-_black, PONCHO_-_Cape_-_lucid_blue, HIKING_BACKPACK_PONCHO_-_Veste_imperméable_-_blue, ending with COVERO_PONCHO_II_-_Cape_-_lightgrey"><g transform="translate(220,0)"><path class="background" aria-hidden="true" d="M0,0h328v144h-328Z" pointer-events="none"/><g><g class="mark-group role-legend-entry"><g transform="translate(0,16)"><path class="background" aria-hidden="true" d="M0,0h0v0h0Z" pointer-events="none"/><g><g class="mark-group role-scope" role="graphics-object" aria-roledescription="group mark container"><g transform="translate(0,0)"><path class="background" aria-hidden="true" d="M0,0h328v11h-328Z" pointer-events="none" opacity="1"/><g><g class="mark-symbol role-legend-symbol" pointer-events="none"><path transform="translate(6,6)" d="M-5,0L5,0" stroke="#4c78a8" stroke-width="1.5" opacity="1"/></g><g class="mark-text role-legend-label" pointer-events="none"><text text-anchor="start" transform="translate(16,9)" font-family="Liberation Mono" font-size="10px" fill="#000" opacity="1">KUURA_3L_PONCHO_UNISEX_-_Veste_impermé…</text></g></g><path class="foreground" aria-hidden="true" d="" pointer-events="none" display="none"/></g><g transform="translate(0,13)"><path class="background" aria-hidden="true" d="M0,0h328v11h-328Z" pointer-events="none" opacity="1"/><g><g class="mark-symbol role-legend-symbol" pointer-events="none"><path transform="translate(6,6)" d="M-5,0L5,0" stroke="#f58518" stroke-width="1.5" opacity="1"/></g><g class="mark-text role-legend-label" pointer-events="none"><text text-anchor="start" transform="translate(16,9)" font-family="Liberation Mono" font-size="10px" fill="#000" opacity="1">DESCHUTES_VALLEY™_RAIN_PONCHO_-_Parka_…</text></g></g><path class="foreground" aria-hidden="true" d="" pointer-events="none" display="none"/></g><g transform="translate(0,26)"><path class="background" aria-hidden="true" d="M0,0h328v11h-328Z" pointer-events="none" opacity="1"/><g><g class="mark-symbol role-legend-symbol" pointer-events="none"><path transform="translate(6,6)" d="M-5,0L5,0" stroke="#e45756" stroke-width="1.5" opacity="1"/></g><g class="mark-text role-legend-label" pointer-events="none"><text text-anchor="start" transform="translate(16,9)" font-family="Liberation Mono" font-size="10px" fill="#000" opacity="1">DESCHUTES_VALLEY™_RAIN_PONCHO_-_Parka_…</text></g></g><path class="foreground" aria-hidden="true" d="" pointer-events="none" display="none"/></g><g transform="translate(0,39)"><path class="background" aria-hidden="true" d="M0,0h328v11h-328Z" pointer-events="none" opacity="1"/><g><g class="mark-symbol role-legend-symbol" pointer-events="none"><path transform="translate(6,6)" d="M-5,0L5,0" stroke="#72b7b2" stroke-width="1.5" opacity="1"/></g><g class="mark-text role-legend-label" pointer-events="none"><text text-anchor="start" transform="translate(16,9)" font-family="Liberation Mono" font-size="10px" fill="#000" opacity="1">PONCHO_-_Cape_-_lucid_blue</text></g></g><path class="foreground" aria-hidden="true" d="" pointer-events="none" display="none"/></g><g transform="translate(0,52)"><path class="background" aria-hidden="true" d="M0,0h328v11h-328Z" pointer-events="none" opacity="1"/><g><g class="mark-symbol role-legend-symbol" pointer-events="none"><path transform="translate(6,6)" d="M-5,0L5,0" stroke="#54a24b" stroke-width="1.5" opacity="1"/></g><g class="mark-text role-legend-label" pointer-events="none"><text text-anchor="start" transform="translate(16,9)" font-family="Liberation Mono" font-size="10px" fill="#000" opacity="1">HIKING_BACKPACK_PONCHO_-_Veste_impermé…</text></g></g><path class="foreground" aria-hidden="true" d="" pointer-events="none" display="none"/></g><g transform="translate(0,65)"><path class="background" aria-hidden="true" d="M0,0h328v11h-328Z" pointer-events="none" opacity="1"/><g><g class="mark-symbol role-legend-symbol" pointer-events="none"><path transform="translate(6,6)" d="M-5,0L5,0" stroke="#eeca3b" stroke-width="1.5" opacity="1"/></g><g class="mark-text role-legend-label" pointer-events="none"><text text-anchor="start" transform="translate(16,9)" font-family="Liberation Mono" font-size="10px" fill="#000" opacity="1">HIKING_BACKPACK_PONCHO_-_Veste_impermé…</text></g></g><path class="foreground" aria-hidden="true" d="" pointer-events="none" display="none"/></g><g transform="translate(0,78)"><path class="background" aria-hidden="true" d="M0,0h328v11h-328Z" pointer-events="none" opacity="1"/><g><g class="mark-symbol role-legend-symbol" pointer-events="none"><path transform="translate(6,6)" d="M-5,0L5,0" stroke="#b279a2" stroke-width="1.5" opacity="1"/></g><g class="mark-text role-legend-label" pointer-events="none"><text text-anchor="start" transform="translate(16,9)" font-family="Liberation Mono" font-size="10px" fill="#000" opacity="1">PARIS_ST._GERMAIN_CITY_MADE_PONCHO_-_V…</text></g></g><path class="foreground" aria-hidden="true" d="" pointer-events="none" display="none"/></g><g transform="translate(0,91)"><path class="background" aria-hidden="true" d="M0,0h328v11h-328Z" pointer-events="none" opacity="1"/><g><g class="mark-symbol role-legend-symbol" pointer-events="none"><path transform="translate(6,6)" d="M-5,0L5,0" stroke="#ff9da6" stroke-width="1.5" opacity="1"/></g><g class="mark-text role-legend-label" pointer-events="none"><text text-anchor="start" transform="translate(16,9)" font-family="Liberation Mono" font-size="10px" fill="#000" opacity="1">PSG_M_NSW_CITY_MADE_PONCHO_-_Veste_de_…</text></g></g><path class="foreground" aria-hidden="true" d="" pointer-events="none" display="none"/></g><g transform="translate(0,104)"><path class="background" aria-hidden="true" d="M0,0h328v11h-328Z" pointer-events="none" opacity="1"/><g><g class="mark-symbol role-legend-symbol" pointer-events="none"><path transform="translate(6,6)" d="M-5,0L5,0" stroke="#9d755d" stroke-width="1.5" opacity="1"/></g><g class="mark-text role-legend-label" pointer-events="none"><text text-anchor="start" transform="translate(16,9)" font-family="Liberation Mono" font-size="10px" fill="#000" opacity="1">SHOWERPROOF_PONCHO_UNISEX_-_Cape_-_cla…</text></g></g><path class="foreground" aria-hidden="true" d="" pointer-events="none" display="none"/></g><g transform="translate(0,117)"><path class="background" aria-hidden="true" d="M0,0h328v11h-328Z" pointer-events="none" opacity="1"/><g><g class="mark-symbol role-legend-symbol" pointer-events="none"><path transform="translate(6,6)" d="M-5,0L5,0" stroke="#bab0ac" stroke-width="1.5" opacity="1"/></g><g class="mark-text role-legend-label" pointer-events="none"><text text-anchor="start" transform="translate(16,9)" font-family="Liberation Mono" font-size="10px" fill="#000" opacity="1">COVERO_PONCHO_II_-_Cape_-_lightgrey</text></g></g><path class="foreground" aria-hidden="true" d="" pointer-events="none" display="none"/></g></g></g><path class="foreground" aria-hidden="true" d="" pointer-events="none" display="none"/></g></g><g class="mark-text role-legend-title" pointer-events="none"><text text-anchor="start" transform="translate(0,9)" font-family="Liberation Mono" font-size="11px" font-weight="bold" fill="#000" opacity="1">item</text></g></g><path class="foreground" aria-hidden="true" d="" pointer-events="none" display="none"/></g></g></g><path class="foreground" aria-hidden="true" d="" display="none"/></g></g></g><path class="foreground" aria-hidden="true" d="" display="none"/></g></g></g></svg>