<svg xmlns="http://www.w3.org/2000/svg" xmlns:xlink="http://www.w3.org/1999/xlink" version="1.1" class="marks" width="658" height="244" viewBox="0 0 658 244"><rect width="658" height="244" fill="white"/><g fill="none" stroke-miterlimit="10" transform="translate(104,6)"><g class="mark-group role-frame root" role="graphics-object" aria-roledescription="group mark container"><g transform="translate(0,0)"><path class="background" aria-hidden="true" d="M0,0h0v0h0Z"/><g><g class="mark-group role-row-title row-title" role="graphics-object" aria-roledescription="group mark container"><g transform="translate(-78,116)"><path class="background" aria-hidden="true" d="M0,0h0v0h0Z"/><g><g class="mark-group role-title"><g transform="translate(-21.000000000000004,0)"><path class="background" aria-hidden="true" d="M0,0h0v0h0Z" pointer-events="none"/><g><g class="mark-text role-title-text" role="graphics-symbol" aria-roledescription="title" aria-label="Title text 'group'" pointer-events="none"><text text-anchor="middle" transform="translate(0,0) rotate(-90) translate(0,9)" font-family="Liberation Mono" font-size="11px" font-weight="bold" fill="#000" opacity="1">group</text></g></g><path class="foreground" aria-hidden="true" d="" pointer-events="none" display="none"/></g></g></g><path class="foreground" aria-hidden="true" d="" display="none"/></g></g><g class="mark-group role-row-header row_header" role="graphics-object" aria-roledescription="group mark container"><g transform="translate(-47,0)"><path class="background" aria-hidden="true" d="M0,0h0v200h0Z"/><g><g class="mark-group role-title"><g transform="translate(-20.000000000000007,100)"><path class="background" aria-hidden="true" d="M0,0h0v0h0Z" pointer-events="none"/><g><g class="mark-text role-title-text" role="graphics-symbol" aria-roledescription="title" aria-label="Title text 'zalando-poncho'" pointer-events="none"><text text-anchor="middle" transform="translate(0,0) rotate(-90) translate(0,8)" font-family="Liberation Mono" font-size="10px" fill="#000" opacity="1">zalando-poncho</text></g></g><path class="foreground" aria-hidden="true" d="" pointer-events="none" display="none"/></g></g></g><path class="foreground" aria-hidden="true" d="" display="none"/></g></g><g class="mark-group role-scope cell" role="graphics-object" aria-roledescription="group mark container"><g transform="translate(0,0)"><path class="background" aria-hidden="true" d="M0.5,0.5h200v200h-200Z" stroke="#ddd"/><g><g class="mark-group role-axis" aria-hidden="true"><g transform="translate(0.5,200.5)"><path class="background" aria-hidden="true" d="M0,0h0v0h0Z" pointer-events="none"/><g><g class="mark-rule role-axis-grid" pointer-events="none"><line transform="translate(20,-200)" x2="0" y2="200" stroke="#ddd" stroke-width="1" opacity="1"/><line transform="translate(59,-200)" x2="0" y2="200" stroke="#ddd" stroke-width="1" opacity="1"/><line transform="translate(99,-200)" x2="0" y2="200" stroke="#ddd" stroke-width="1" opacity="1"/><line transform="translate(139,-200)" x2="0" y2="200" stroke="#ddd" stroke-width="1" opacity="1"/><line transform="translate(179,-200)" x2="0" y2="200" stroke="#ddd" stroke-width="1" opacity="1"/></g></g><path class="foreground" aria-hidden="true" d="" pointer-events="none" display="none"/></g></g><g class="mark-group role-axis" aria-hidden="true"><g transform="translate(0.5,0.5)"><path class="background" aria-hidden="true" d="M0,0h0v0h0Z" pointer-events="none"/><g><g class="mark-rule role-axis-grid" pointer-events="none"><line transform="translate(0,200)" x2="200" y2="0" stroke="#ddd" stroke-width="1" opacity="1"/><line transform="translate(0,144)" x2="200" y2="0" stroke="#ddd" stroke-width="1" opacity="1"/><line transform="translate(0,89)" x2="200" y2="0" stroke="#ddd" stroke-width="1" opacity="1"/><line transform="translate(0,33)" x2="200" y2="0" stroke="#ddd" stroke-width="1" opacity="1"/></g></g><path class="foreground" aria-hidden="true" d="" pointer-events="none" display="none"/></g></g><g class="mark-group role-axis" role="graphics-symbol" aria-roledescription="axis" aria-label="X-axis titled 'Time' for a time scale with values from Wednesday, 30 August 2023, 12:58:24 PM to Wednesday, 04 October 2023, 4:50:40 PM"><g transform="translate(0.5,200.5)"><path class="background" aria-hidden="true" d="M0,0h0v0h0Z" pointer-events="none"/><g><g class="mark-rule role-axis-tick" pointer-events="none"><line transform="translate(20,0)" x2="0" y2="5" stroke="#888" stroke-width="1" opacity="1"/><line transform="translate(59,0)" x2="0" y2="5" stroke="#888" stroke-width="1" opacity="1"/><line transform="translate(99,0)" x2="0" y2="5" stroke="#888" stroke-width="1" opacity="1"/><line transform="translate(139,0)" x2="0" y2="5" stroke="#888" stroke-width="1" opacity="1"/><line transform="translate(179,0)" x2="0" y2="5" stroke="#888" stroke-width="1" opacity="1"/></g><g class="mark-text role-axis-label" pointer-events="none"><text text-anchor="middle" transform="translate(19.67756686956038,15)" font-family="Liberation Mono" font-size="10px" fill="#000" opacity="1">Sep 03</text><text text-anchor="middle" transform="translate(59.494070393211494,15)" font-family="Liberation Mono" font-size="10px" fill="#000" opacity="0">Sep 10</text><text text-anchor="middle" transform="translate(99.3105739168626,15)" font-family="Liberation Mono" font-size="10px" fill="#000" opacity="1">Sep 17</text><text text-anchor="middle" transform="translate(139.12707744051372,15)" font-family="Liberation Mono" font-size="10px" fill="#000" opacity="0">Sep 24</text><text text-anchor="middle" transform="translate(178.94358096416482,15)" font-family="Liberation Mono" font-size="10px" fill="#000" opacity="1">October</text></g><g class="mark-rule role-axis-domain" pointer-events="none"><line transform="translate(0,0)" x2="200" y2="0" stroke="#888" stroke-width="1" opacity="1"/></g><g class="mark-text role-axis-title" pointer-events="none"><text text-anchor="middle" transform="translate(100,30)" font-family="Liberation Mono" font-size="11px" font-weight="bold" fill="#000" opacity="1">Time</text></g></g><path class="foreground" aria-hidden="true" d="" pointer-events="none" display="none"/></g></g><g class="mark-group role-axis" role="graphics-symbol" aria-roledescription="axis" aria-label="Y-axis titled 'Price' for a linear scale with values from 0 to 18,000"><g transform="translate(0.5,0.5)"><path class="background" aria-hidden="true" d="M0,0h0v0h0Z" pointer-events="none"/><g><g class="mark-rule role-axis-tick" pointer-events="none"><line transform="translate(0,200)" x2="-5" y2="0" stroke="#888" stroke-width="1" opacity="1"/><line transform="translate(0,144)" x2="-5" y2="0" stroke="#888" stroke-width="1" opacity="1"/><line transform="translate(0,89)" x2="-5" y2="0" stroke="#888" stroke-width="1" opacity="1"/><line transform="translate(0,33)" x2="-5" y2="0" stroke="#888" stroke-width="1" opacity="1"/></g><g class="mark-text role-axis-label" pointer-events="none"><text text-anchor="end" transform="translate(-7,203)" font-family="Liberation Mono" font-size="10px" fill="#000" opacity="1">0</text><text text-anchor="end" transform="translate(-7,147.44444444444443)" font-family="Liberation Mono" font-size="10px" fill="#000" opacity="1">50</text><text text-anchor="end" transform="translate(-7,91.88888888888889)" font-family="Liberation Mono" font-size="10px" fill="#000" opacity="1">100</text><text text-anchor="end" transform="translate(-7,36.33333333333333)" font-family="Liberation Mono" font-size="10px" fill="#000" opacity="1">150</text></g><g class="mark-rule role-axis-domain" pointer-events="none"><line transform="translate(0,200)" x2="0" y2="-200" stroke="#888" stroke-width="1" opacity="1"/></g><g class="mark-text role-axis-title" pointer-events="none"><text text-anchor="middle" transform="translate(-35,100) rotate(-90) translate(0,-2)" font-family="Liberation Mono" font-size="11px" font-weight="bold" fill="#000" opacity="1">Price</text></g></g><path class="foreground" aria-hidden="true" d="" pointer-events="none" display="none"/></g></g><g class="mark-group role-scope child_pathgroup" role="graphics-object" aria-roledescription="group mark container"><g transform="translate(0,0)"><path class="background" aria-hidden="true" d="M0,0h200v200h-200Z"/><g><g class="mark-line role-mark child_marks" role="graphics-object" aria-roledescription="line mark container"><path aria-label="Time: Aug 30, 2023; Price: 10795; item: DESCHUTES_VALLEY™_RAIN_PONCHO_-_Parka_-_black" role="graphics-symbol" aria-roledescription="line mark" d="M0,80.056L0.923,80.056L1.867,80.056L3.763,80.056L4.71,80.056L5.69,80.056L6.606,80.056L7.553,80.056L9.452,80.056L10.398,80.056L11.376,80.056L12.293,80.056L13.242,80.056L15.138,80.056L16.086,80.056L17.052,80.056L17.981,80.056L18.93,80.056L20.827,80.056L22.455,80.056L22.743,80.056L23.67,80.056L24.619,80.056L26.515,80.056L27.465,80.056L28.443,80.056L29.357,80.056L30.305,80.056L32.207,50.056L33.156,50.056L34.13,50.056L35.048,50.056L35.994,50.056L37.89,50.056L38.838,50.056L39.821,50.056L40.734,50.056L41.683,50.056L43.581,50.056L44.528,50.056L45.505,50.056L46.423,50.056L47.371,50.056L49.864,50.056L50.214,50.056L51.191,50.056L52.109,50.056L53.058,50.056L54.952,50.056L55.902,50.056L56.868,50.056L57.798,50.056L58.746,50.056L60.642,50.056L61.589,50.056L62.556,50.056L63.485,50.056L64.433,50.056L66.329,50.056L67.277,50.056L68.261,50.056L69.174,50.056L70.121,50.056L72.018,50.056L72.965,50.056L73.946,50.056L74.862,50.056L75.811,50.056L77.707,20.056L78.654,20.056L79.636,20.056L80.137,20.056L80.55,20.056L81.498,20.056L83.394,20.056L84.342,20.056L85.324,20.056L86.239,20.056L87.186,20.056L89.081,20.056L90.03,20.056L91.009,20.056L91.925,20.056L92.874,20.056L94.77,20.056L95.718,20.056L96.683,20.056L97.614,20.056L98.561,20.056L100.457,20.056L101.406,20.056L102.373,20.056L103.302,20.056L104.25,20.056L106.146,20.056L107.094,20.056L108.078,20.056L108.99,20.056L109.939,20.056L111.833,20.056L112.782,20.056L113.765,20.056L114.678,20.056L115.626,20.056L117.521,20.056L118.471,20.056L119.454,20.056L120.366,20.056L121.314,20.056L123.21,20.056L124.158,20.056L125.142,20.056L126.055,20.056L127.003,20.056L128.899,20.056L129.846,20.056L130.826,20.056L131.743,20.056L132.69,20.056L134.586,20.056L135.535,20.056L136.5,20.056L137.431,20.056L138.379,20.056L140.274,20.056L141.223,20.056L142.19,20.056L143.119,20.056L144.065,20.056L145.963,20.056L146.912,20.056L147.896,20.056L148.806,20.056L149.753,20.056L151.65,20.056L152.6,20.056L153.584,20.056L154.494,20.056L155.443,20.056L157.339,40.056L158.286,40.056L159.269,40.056L160.183,40.056L161.132,40.056L163.027,40.056L163.974,40.056L164.958,40.056L165.87,40.056L168.714,40.056L169.662,40.056L170.641,40.056L171.559,40.056L172.507,40.056L174.402,40.056L175.35,40.056L176.318,40.056L177.246,40.056L178.194,40.056L180.091,40.056L181.039,40.056L182.01,40.056L182.935,40.056L183.884,40.056L185.779,100.056L186.727,100.056L187.71,100.056L188.624,100.056L189.571,100.056L191.468,90.056L192.417,90.056L193.4,90.056L194.312,90.056L195.259,90.056L197.154,90.056L198.104,90.056L199.092,90.056L200,90.056" stroke="#e45756" stroke-width="2"/></g></g><path class="foreground" aria-hidden="true" d="" display="none"/></g><g transform="translate(0,0)"><path class="background" aria-hidden="true" d="M0,0h200v200h-200Z"/><g><g class="mark-line role-mark child_marks" role="graphics-object" aria-roledescription="line mark container"><path aria-label="Time: Aug 30, 2023; Price: 8995; item: HIKING_BACKPACK_PONCHO_-_Veste_imperméable_-_blue" role="graphics-symbol" aria-roledescription="line mark" d="M0,100.056L0.923,100.056L1.867,100.056L3.763,100.056L4.71,100.056L5.69,100.056L6.606,100.056L7.553,100.056L9.453,100.056L10.398,100.056L11.376,100.056L12.293,100.056L13.242,100.056L15.138,100.056L16.086,100.056L17.052,100.056L17.981,100.056L18.93,100.056L20.827,100.056L22.455,100.056L22.743,100.056L67.277,100.056L68.261,100.056L69.174,100.056L70.121,100.056L72.018,100.056L72.965,100.056L73.946,100.056L74.862,100.056L75.811,100.056L77.707,100.056L78.654,100.056L79.637,100.056L80.137,100.056L80.55,100.056L81.498,100.056L83.394,100.056L84.342,100.056L85.324,100.056L86.239,100.056L87.186,100.056L89.081,100.056L90.03,100.056L91.009,100.056L91.925,100.056L92.874,100.056L94.77,100.056L95.718,100.056L96.683,100.056L97.614,100.056L98.561,100.056L100.457,100.056L101.406,100.056L165.87,111.167L168.714,111.167L169.662,111.167L170.641,111.167L171.559,111.167L172.507,111.167L174.402,111.167L175.35,111.167L176.318,111.167L177.246,111.167L178.194,111.167L180.091,111.167L181.039,111.167L182.01,111.167L182.935,111.167L183.884,111.167L185.779,111.167L186.727,111.167L187.71,111.167L188.624,111.167L189.571,111.167L191.468,127.833L192.417,127.833L193.4,127.833L194.312,127.833L195.259,127.833L197.154,127.833L198.104,127.833L199.092,127.833L200,127.833" stroke="#54a24b" stroke-width="2"/></g></g><path class="foreground" aria-hidden="true" d="" display="none"/></g><g transform="translate(0,0)"><path class="background" aria-hidden="true" d="M0,0h200v200h-200Z"/><g><g class="mark-line role-mark child_marks" role="graphics-object" aria-roledescription="line mark container"><path aria-label="Time: Aug 30, 2023; Price: 16195; item: DESCHUTES_VALLEY™_RAIN_PONCHO_-_Parka_-_vista_blue" role="graphics-symbol" aria-roledescription="line mark" d="M0,20.056L0.923,20.056L1.867,20.056L3.763,20.056L4.71,20.056L5.69,20.056L6.606,20.056L7.553,20.056L9.453,20.056L10.398,20.056L11.376,20.056L12.293,20.056L13.242,20.056L15.138,20.056L16.086,20.056L17.052,20.056L17.981,20.056L18.93,20.056L20.827,20.056L22.455,20.056L22.743,20.056L23.67,20.056L24.619,20.056L26.515,20.056L27.465,20.056L28.443,20.056L29.357,20.056L30.305,20.056L32.207,80.056L33.156,80.056L34.13,80.056L35.048,80.056L35.994,80.056L37.89,80.056L38.838,80.056L39.821,80.056L40.734,80.056L41.683,80.056L43.581,80.056L44.528,80.056L45.505,80.056L46.423,80.056L47.371,80.056L49.864,80.056L50.214,80.056L51.191,80.056L52.109,80.056L53.058,80.056L54.952,80.056L55.902,80.056L56.868,80.056L57.798,80.056L58.746,80.056L60.642,80.056L61.589,80.056L62.556,80.056L63.485,80.056L64.433,80.056L66.329,80.056L67.277,80.056L68.261,80.056L69.174,80.056L70.121,80.056L72.018,80.056L72.965,80.056L73.946,80.056L74.862,80.056L75.81,80.056L77.707,20.056L78.654,20.056L79.636,20.056L80.137,20.056L80.55,20.056L81.498,20.056L83.394,20.056L84.342,20.056L85.324,20.056L86.239,20.056L87.186,20.056L89.081,20.056L90.03,20.056L91.009,20.056L91.925,20.056L92.874,20.056L94.77,20.056L95.718,20.056L96.683,20.056L97.614,20.056L98.561,20.056L100.457,20.056L101.406,20.056L102.373,20.056L103.302,20.056L104.25,20.056L106.146,20.056L107.094,20.056L108.078,20.056L108.99,20.056L109.939,20.056L111.833,20.056L112.781,20.056L113.765,20.056L114.678,20.056L115.626,20.056L117.521,20.056L118.471,20.056L119.454,20.056L120.366,20.056L121.314,20.056L123.21,20.056L124.158,20.056L125.142,20.056L126.055,20.056L127.003,20.056L128.899,20.056L129.846,20.056L130.826,20.056L131.743,20.056L132.69,20.056L134.586,20.056L135.535,20.056L136.5,20.056L137.431,20.056L138.379,20.056L140.274,20.056L141.223,20.056L142.19,20.056L143.119,20.056L144.065,20.056L145.963,20.056L146.912,20.056L147.895,20.056L148.806,20.056L149.753,20.056L151.65,20.056L152.6,20.056L153.584,20.056L154.494,20.056L155.443,20.056L157.338,40.056L158.286,40.056L159.269,40.056L160.183,40.056L161.132,40.056L163.027,40.056L163.974,40.056L164.958,40.056L165.87,40.056L168.714,40.056L169.662,40.056L170.641,40.056L171.559,40.056L172.507,40.056L174.402,40.056L175.35,40.056L176.318,40.056L177.246,40.056L178.194,40.056L180.091,40.056L181.039,40.056L182.01,40.056L182.935,40.056L183.884,40.056L185.779,90.056L186.727,90.056L187.71,90.056L188.624,90.056L189.571,90.056L191.468,40.056L192.417,40.056L193.4,40.056L194.312,40.056L195.259,40.056L197.154,40.056L198.104,40.056L199.092,40.056L200,40.056" stroke="#f58518" stroke-width="2"/></g></g><path class="foreground" aria-hidden="true" d="" display="none"/></g><g transform="translate(0,0)"><path class="background" aria-hidden="true" d="M0,0h200v200h-200Z"/><g><g class="mark-line role-mark child_marks" role="graphics-object" aria-roledescription="line mark container"><path aria-label="Time: Aug 30, 2023; Price: 5495; item: COVERO_PONCHO_II_-_Cape_-_lightgrey" role="graphics-symbol" aria-roledescription="line mark" d="M0,138.944L0.924,138.944L1.867,138.944L3.763,138.944L4.71,138.944L5.69,138.944L6.606,138.944L7.553,138.944L9.453,138.944L10.398,138.944L16.086,138.944L17.052,138.944L17.981,138.944L18.93,138.944L20.827,138.944L22.455,138.944L22.743,138.944L23.67,138.944L24.619,138.944L26.515,138.944L27.465,138.944L28.443,138.944L29.358,138.944L30.305,138.944L32.207,138.944L33.156,138.944L34.13,138.944L35.048,138.944L35.994,138.944L52.109,153.944L61.589,138.944L62.556,138.944L63.485,138.944L64.433,138.944L66.329,138.944L67.277,138.944L68.261,138.944L69.174,138.944L70.121,138.944L72.018,138.944L72.965,138.944L73.946,138.944L74.862,138.944L75.811,138.944L77.707,138.944L78.655,138.944L79.637,138.944L80.137,138.944L80.55,138.944L81.498,138.944L83.394,138.944L84.342,138.944L85.324,138.944L86.239,138.944L87.186,138.944L89.081,138.944L90.03,138.944L91.009,138.944L91.925,138.944L92.874,138.944L94.77,138.944L95.718,138.944L96.683,138.944L97.614,138.944L98.561,138.944L100.457,138.944L101.406,138.944L102.373,138.944L103.302,138.944L104.25,138.944L106.147,138.944L107.094,138.944L108.078,138.944L108.99,138.944L109.939,138.944L111.833,138.944L112.782,138.944L113.765,138.944L114.678,138.944L115.626,138.944L117.521,151.167L118.471,151.167L119.454,151.167L120.366,151.167L121.314,151.167L123.21,151.167L124.158,151.167L125.142,151.167L126.055,151.167L127.003,151.167L128.899,151.167L129.846,151.167L130.826,151.167L135.535,151.167L136.5,151.167L137.431,151.167L138.379,151.167L140.274,151.167L141.223,151.167L142.19,151.167L143.119,151.167L144.065,151.167L145.963,151.167L146.912,151.167L147.896,151.167L148.806,151.167L149.753,151.167L151.65,151.167L152.6,151.167L153.584,151.167L154.494,151.167L155.443,151.167L157.339,151.167L158.286,151.167L159.269,151.167L160.183,151.167L161.132,151.167L163.027,151.167L163.974,151.167L164.958,151.167L165.87,151.167L168.714,151.167L169.662,151.167L170.641,151.167L171.56,151.167L172.507,151.167L174.402,151.167L175.35,151.167L176.318,151.167L177.246,151.167L178.194,151.167L180.091,151.167L181.039,151.167L182.01,151.167L182.935,151.167L183.884,151.167L185.779,151.167L186.727,151.167L187.71,151.167L188.624,151.167L189.571,151.167L191.468,151.167L192.417,151.167L193.4,151.167L194.312,151.167L195.259,151.167L197.154,151.167L198.104,151.167L199.092,151.167L200,151.167" stroke="#ff9da6" stroke-width="2"/></g></g><path class="foreground" aria-hidden="true" d="" display="none"/></g><g transform="translate(0,0)"><path class="background" aria-hidden="true" d="M0,0h200v200h-200Z"/><g><g class="mark-line role-mark child_marks" role="graphics-object" aria-roledescription="line mark container"><path aria-label="Time: Sep 01, 2023; Price: 12995; item: KUURA_3L_PONCHO_UNISEX_-_Veste_imperméable_-_green" role="graphics-symbol" aria-roledescription="line mark" d="M13.242,55.611L15.138,55.611L16.086,55.611L17.052,55.611L27.465,55.611L28.443,55.611L29.358,55.611L30.305,55.611L32.207,11.167L33.156,11.167L34.13,11.167L35.048,11.167L35.994,11.167L37.89,11.167L38.838,11.167L39.821,11.167L40.734,11.167L41.683,11.167L43.581,11.167L44.528,11.167L45.505,11.167L46.423,11.167L47.371,11.167L49.864,11.167L50.214,11.167L51.191,11.167L52.109,11.167L53.058,11.167L54.952,11.167L55.902,11.167L56.868,11.167L57.798,11.167L58.746,11.167L60.642,11.167L61.589,11.167L62.556,11.167L63.485,11.167L64.433,11.167L66.329,11.167L67.277,11.167L68.261,11.167L69.174,11.167L72.018,11.167L72.965,11.167L73.946,11.167L74.862,11.167L75.811,11.167L96.683,22.278L97.614,22.278L98.561,22.278L100.457,22.278L101.406,22.278L102.373,22.278L103.302,22.278L104.25,22.278L106.146,22.278L107.094,22.278L108.078,22.278L112.782,22.278L113.765,22.278L114.678,22.278L115.626,22.278L117.521,22.278L118.471,22.278L194.312,22.278L195.259,22.278L197.154,22.278L198.104,22.278L199.092,22.278L200,22.278" stroke="#4c78a8" stroke-width="2"/></g></g><path class="foreground" aria-hidden="true" d="" display="none"/></g><g transform="translate(0,0)"><path class="background" aria-hidden="true" d="M0,0h200v200h-200Z"/><g><g class="mark-line role-mark child_marks" role="graphics-object" aria-roledescription="line mark container"><path aria-label="Time: Sep 14, 2023; Price: 6495; item: PARIS_ST._GERMAIN_CITY_MADE_PONCHO_-_Veste_de_survêtement_-_aura_white" role="graphics-symbol" aria-roledescription="line mark" d="M83.394,127.833L84.342,127.833L85.324,127.833L86.239,127.833L87.186,127.833L89.081,127.833L90.03,127.833L94.77,127.833L101.406,127.833L102.373,127.833L103.302,127.833L104.25,127.833L106.147,127.833L107.094,127.833L108.078,127.833L108.99,127.833L109.939,127.833L111.833,127.833L112.782,127.833L113.765,127.833L114.678,127.833L115.626,127.833L117.521,127.833L118.471,127.833L119.454,127.833L120.366,127.833L121.314,127.833L123.21,127.833L124.158,127.833L125.142,127.833L126.055,127.833L127.003,127.833L128.899,127.833L129.846,127.833L130.826,127.833L131.743,127.833L132.69,127.833L134.586,127.833L135.535,127.833L136.5,127.833L137.431,127.833L138.379,127.833L140.274,127.833L141.223,127.833L142.19,127.833L143.119,127.833L144.065,127.833L145.963,127.833L146.912,127.833L147.896,127.833L148.806,127.833L149.753,127.833L151.65,127.833L152.6,127.833L153.584,127.833" stroke="#b279a2" stroke-width="2"/></g></g><path class="foreground" aria-hidden="true" d="" display="none"/></g><g transform="translate(0,0)"><path class="background" aria-hidden="true" d="M0,0h200v200h-200Z"/><g><g class="mark-line role-mark child_marks" role="graphics-object" aria-roledescription="line mark container"><path aria-label="Time: Sep 18, 2023; Price: 8995; item: HIKING_BACKPACK_PONCHO_-_Veste_imperméable_-_indian_red" role="graphics-symbol" aria-roledescription="line mark" d="M106.147,100.056L107.094,100.056L108.078,100.056L108.99,100.056L109.939,100.056L111.833,100.056L112.782,100.056L148.806,100.056L149.753,100.056L151.65,100.056L152.6,100.056L153.584,100.056L154.494,100.056L155.443,100.056L157.339,111.167L158.286,111.167L159.269,111.167L160.183,111.167" stroke="#eeca3b" stroke-width="2"/></g></g><path class="foreground" aria-hidden="true" d="" display="none"/></g><g transform="translate(0,0)"><path class="background" aria-hidden="true" d="M0,0h200v200h-200Z"/><g><g class="mark-line role-mark child_marks" role="graphics-object" aria-roledescription="line mark container"><path aria-label="Time: Sep 26, 2023; Price: 6495; item: PSG_M_NSW_CITY_MADE_PONCHO_-_Veste_de_survêtement_-_aura_white" role="graphics-symbol" aria-roledescription="line mark" d="M154.494,127.833L155.443,127.833L157.339,91.167L158.286,91.167L159.269,91.167L160.183,91.167L161.132,91.167L163.027,91.167L163.974,91.167L164.958,91.167L165.87,91.167L168.714,91.167L169.662,91.167L170.641,91.167L171.56,91.167L172.507,91.167L174.402,91.167L175.35,91.167L176.318,91.167L177.246,91.167L178.194,91.167L180.091,91.167L181.039,91.167L182.01,91.167L182.935,91.167L183.884,91.167L185.779,127.833L186.727,127.833L187.71,127.833L188.624,127.833L189.571,127.833L191.468,127.833L192.417,127.833L193.4,127.833L194.312,127.833L195.259,127.833L197.154,127.833L198.104,127.833L199.092,127.833L200,127.833" stroke="#72b7b2" stroke-width="2"/></g></g><path class="foreground" aria-hidden="true" d="" display="none"/></g></g><g class="mark-group role-legend" role="graphics-symbol" aria-roledescription="legend" aria-label="Symbol legend titled 'item' for stroke color with 8 values: KUURA_3L_PONCHO_UNISEX_-_Veste_imperméable_-_green, DESCHUTES_VALLEY™_RAIN_PONCHO_-_Parka_-_vista_blue, DESCHUTES_VALLEY™_RAIN_PONCHO_-_Parka_-_black, PSG_M_NSW_CITY_MADE_PONCHO_-_Veste_de_survêtement_-_aura_white, HIKING_BACKPACK_PONCHO_-_Veste_imperméable_-_blue, ending with COVERO_PONCHO_II_-_Cape_-_lightgrey"><g transform="translate(220,0)"><path class="background" aria-hidden="true" d="M0,0h328v118h-328Z" pointer-events="none"/><g><g class="mark-group role-legend-entry"><g transform="translate(0,16)"><path class="background" aria-hidden="true" d="M0,0h0v0h0Z" pointer-events="none"/><g><g class="mark-group role-scope" role="graphics-object" aria-roledescription="group mark container"><g transform="translate(0,0)"><path class="background" aria-hidden="true" d="M0,0h328v11h-328Z" pointer-events="none" opacity="1"/><g><g class="mark-symbol role-legend-symbol" pointer-events="none"><path transform="translate(6,6)" d="M-5,0L5,0" stroke="#4c78a8" stroke-width="1.5" opacity="1"/></g><g class="mark-text role-legend-label" pointer-events="none"><text text-anchor="start" transform="translate(16,9)" font-family="Liberation Mono" font-size="10px" fill="#000" opacity="1">KUURA_3L_PONCHO_UNISEX_-_Veste_impermé…</text></g></g><path class="foreground" aria-hidden="true" d="" pointer-events="none" display="none"/></g><g transform="translate(0,13)"><path class="background" aria-hidden="true" d="M0,0h328v11h-328Z" pointer-events="none" opacity="1"/><g><g class="mark-symbol role-legend-symbol" pointer-events="none"><path transform="translate(6,6)" d="M-5,0L5,0" stroke="#f58518" stroke-width="1.5" opacity="1"/></g><g class="mark-text role-legend-label" pointer-events="none"><text text-anchor="start" transform="translate(16,9)" font-family="Liberation Mono" font-size="10px" fill="#000" opacity="1">DESCHUTES_VALLEY™_RAIN_PONCHO_-_Parka_…</text></g></g><path class="foreground" aria-hidden="true" d="" pointer-events="none" display="none"/></g><g transform="translate(0,26)"><path class="background" aria-hidden="true" d="M0,0h328v11h-328Z" pointer-events="none" opacity="1"/><g><g class="mark-symbol role-legend-symbol" pointer-events="none"><path transform="translate(6,6)" d="M-5,0L5,0" stroke="#e45756" stroke-width="1.5" opacity="1"/></g><g class="mark-text role-legend-label" pointer-events="none"><text text-anchor="start" transform="translate(16,9)" font-family="Liberation Mono" font-size="10px" fill="#000" opacity="1">DESCHUTES_VALLEY™_RAIN_PONCHO_-_Parka_…</text></g></g><path class="foreground" aria-hidden="true" d="" pointer-events="none" display="none"/></g><g transform="translate(0,39)"><path class="background" aria-hidden="true" d="M0,0h328v11h-328Z" pointer-events="none" opacity="1"/><g><g class="mark-symbol role-legend-symbol" pointer-events="none"><path transform="translate(6,6)" d="M-5,0L5,0" stroke="#72b7b2" stroke-width="1.5" opacity="1"/></g><g class="mark-text role-legend-label" pointer-events="none"><text text-anchor="start" transform="translate(16,9)" font-family="Liberation Mono" font-size="10px" fill="#000" opacity="1">PSG_M_NSW_CITY_MADE_PONCHO_-_Veste_de_…</text></g></g><path class="foreground" aria-hidden="true" d="" pointer-events="none" display="none"/></g><g transform="translate(0,52)"><path class="background" aria-hidden="true" d="M0,0h328v11h-328Z" pointer-events="none" opacity="1"/><g><g class="mark-symbol role-legend-symbol" pointer-events="none"><path transform="translate(6,6)" d="M-5,0L5,0" stroke="#54a24b" stroke-width="1.5" opacity="1"/></g><g class="mark-text role-legend-label" pointer-events="none"><text text-anchor="start" transform="translate(16,9)" font-family="Liberation Mono" font-size="10px" fill="#000" opacity="1">HIKING_BACKPACK_PONCHO_-_Veste_impermé…</text></g></g><path class="foreground" aria-hidden="true" d="" pointer-events="none" display="none"/></g><g transform="translate(0,65)"><path class="background" aria-hidden="true" d="M0,0h328v11h-328Z" pointer-events="none" opacity="1"/><g><g class="mark-symbol role-legend-symbol" pointer-events="none"><path transform="translate(6,6)" d="M-5,0L5,0" stroke="#eeca3b" stroke-width="1.5" opacity="1"/></g><g class="mark-text role-legend-label" pointer-events="none"><text text-anchor="start" transform="translate(16,9)" font-family="Liberation Mono" font-size="10px" fill="#000" opacity="1">HIKING_BACKPACK_PONCHO_-_Veste_impermé…</text></g></g><path class="foreground" aria-hidden="true" d="" pointer-events="none" display="none"/></g><g transform="translate(0,78)"><path class="background" aria-hidden="true" d="M0,0h328v11h-328Z" pointer-events="none" opacity="1"/><g><g class="mark-symbol role-legend-symbol" pointer-events="none"><path transform="translate(6,6)" d="M-5,0L5,0" stroke="#b279a2" stroke-width="1.5" opacity="1"/></g><g class="mark-text role-legend-label" pointer-events="none"><text text-anchor="start" transform="translate(16,9)" font-family="Liberation Mono" font-size="10px" fill="#000" opacity="1">PARIS_ST._GERMAIN_CITY_MADE_PONCHO_-_V…</text></g></g><path class="foreground" aria-hidden="true" d="" pointer-events="none" display="none"/></g><g transform="translate(0,91)"><path class="background" aria-hidden="true" d="M0,0h328v11h-328Z" pointer-events="none" opacity="1"/><g><g class="mark-symbol role-legend-symbol" pointer-events="none"><path transform="translate(6,6)" d="M-5,0L5,0" stroke="#ff9da6" stroke-width="1.5" opacity="1"/></g><g class="mark-text role-legend-label" pointer-events="none"><text text-anchor="start" transform="translate(16,9)" font-family="Liberation Mono" font-size="10px" fill="#000" opacity="1">COVERO_PONCHO_II_-_Cape_-_lightgrey</text></g></g><path class="foreground" aria-hidden="true" d="" pointer-events="none" display="none"/></g></g></g><path class="foreground" aria-hidden="true" d="" pointer-events="none" display="none"/></g></g><g class="mark-text role-legend-title" pointer-events="none"><text text-anchor="start" transform="translate(0,9)" font-family="Liberation Mono" font-size="11px" font-weight="bold" fill="#000" opacity="1">item</text></g></g><path class="foreground" aria-hidden="true" d="" pointer-events="none" display="none"/></g></g></g><path class="foreground" aria-hidden="true" d="" display="none"/></g></g></g><path class="foreground" aria-hidden="true" d="" display="none"/></g></g></g></svg>