<svg xmlns="http://www.w3.org/2000/svg" xmlns:xlink="http://www.w3.org/1999/xlink" version="1.1" class="marks" width="658" height="244" viewBox="0 0 658 244"><rect width="658" height="244" fill="white"/><g fill="none" stroke-miterlimit="10" transform="translate(104,6)"><g class="mark-group role-frame root" role="graphics-object" aria-roledescription="group mark container"><g transform="translate(0,0)"><path class="background" aria-hidden="true" d="M0,0h0v0h0Z"/><g><g class="mark-group role-row-title row-title" role="graphics-object" aria-roledescription="group mark container"><g transform="translate(-78,116)"><path class="background" aria-hidden="true" d="M0,0h0v0h0Z"/><g><g class="mark-group role-title"><g transform="translate(-21.000000000000004,0)"><path class="background" aria-hidden="true" d="M0,0h0v0h0Z" pointer-events="none"/><g><g class="mark-text role-title-text" role="graphics-symbol" aria-roledescription="title" aria-label="Title text 'group'" pointer-events="none"><text text-anchor="middle" transform="translate(0,0) rotate(-90) translate(0,9)" font-family="Liberation Mono" font-size="11px" font-weight="bold" fill="#000" opacity="1">group</text></g></g><path class="foreground" aria-hidden="true" d="" pointer-events="none" display="none"/></g></g></g><path class="foreground" aria-hidden="true" d="" display="none"/></g></g><g class="mark-group role-row-header row_header" role="graphics-object" aria-roledescription="group mark container"><g transform="translate(-47,0)"><path class="background" aria-hidden="true" d="M0,0h0v200h0Z"/><g><g class="mark-group role-title"><g transform="translate(-20.000000000000007,100)"><path class="background" aria-hidden="true" d="M0,0h0v0h0Z" pointer-events="none"/><g><g class="mark-text role-title-text" role="graphics-symbol" aria-roledescription="title" aria-label="Title text 'zalando-poncho'" pointer-events="none"><text text-anchor="middle" transform="translate(0,0) rotate(-90) translate(0,8)" font-family="Liberation Mono" font-size="10px" fill="#000" opacity="1">zalando-poncho</text></g></g><path class="foreground" aria-hidden="true" d="" pointer-events="none" display="none"/></g></g></g><path class="foreground" aria-hidden="true" d="" display="none"/></g></g><g class="mark-group role-scope cell" role="graphics-object" aria-roledescription="group mark container"><g transform="translate(0,0)"><path class="background" aria-hidden="true" d="M0.5,0.5h200v200h-200Z" stroke="#ddd"/><g><g class="mark-group role-axis" aria-hidden="true"><g transform="translate(0.5,200.5)"><path class="background" aria-hidden="true" d="M0,0h0v0h0Z" pointer-events="none"/><g><g class="mark-rule role-axis-grid" pointer-events="none"><line transform="translate(16,-200)" x2="0" y2="200" stroke="#ddd" stroke-width="1" opacity="1"/><line transform="translate(48,-200)" x2="0" y2="200" stroke="#ddd" stroke-width="1" opacity="1"/><line transform="translate(80,-200)" x2="0" y2="200" stroke="#ddd" stroke-width="1" opacity="1"/><line transform="translate(112,-200)" x2="0" y2="200" stroke="#ddd" stroke-width="1" opacity="1"/><line transform="translate(144,-200)" x2="0" y2="200" stroke="#ddd" stroke-width="1" opacity="1"/><line transform="translate(176,-200)" x2="0" y2="200" stroke="#ddd" stroke-width="1" opacity="1"/></g></g><path class="foreground" aria-hidden="true" d="" pointer-events="none" display="none"/></g></g><g class="mark-group role-axis" aria-hidden="true"><g transform="translate(0.5,0.5)"><path class="background" aria-hidden="true" d="M0,0h0v0h0Z" pointer-events="none"/><g><g class="mark-rule role-axis-grid" pointer-events="none"><line transform="translate(0,200)" x2="200" y2="0" stroke="#ddd" stroke-width="1" opacity="1"/><line transform="translate(0,144)" x2="200" y2="0" stroke="#ddd" stroke-width="1" opacity="1"/><line transform="translate(0,89)" x2="200" y2="0" stroke="#ddd" stroke-width="1" opacity="1"/><line transform="translate(0,33)" x2="200" y2="0" stroke="#ddd" stroke-width="1" opacity="1"/></g></g><path class="foreground" aria-hidden="true" d="" pointer-events="none" display="none"/></g></g><g class="mark-group role-axis" role="graphics-symbol" aria-roledescription="axis" aria-label="X-axis titled 'Time' for a time scale with values from Wednesday, 30 August 2023, 12:58:24 PM to Friday, 13 October 2023, 8:50:43 AM"><g transform="translate(0.5,200.5)"><path class="background" aria-hidden="true" d="M0,0h0v0h0Z" pointer-events="none"/><g><g class="mark-rule role-axis-tick" pointer-events="none"><line transform="translate(16,0)" x2="0" y2="5" stroke="#888" stroke-width="1" opacity="1"/><line transform="translate(48,0)" x2="0" y2="5" stroke="#888" stroke-width="1" opacity="1"/><line transform="translate(80,0)" x2="0" y2="5" stroke="#888" stroke-width="1" opacity="1"/><line transform="translate(112,0)" x2="0" y2="5" stroke="#888" stroke-width="1" opacity="1"/><line transform="translate(144,0)" x2="0" y2="5" stroke="#888" stroke-width="1" opacity="1"/><line transform="translate(176,0)" x2="0" y2="5" stroke="#888" stroke-width="1" opacity="1"/></g><g class="mark-text role-axis-label" pointer-events="none"><text text-anchor="middle" transform="translate(15.78645441842344,15)" font-family="Liberation Mono" font-size="10px" fill="#000" opacity="1">Sep 03</text><text text-anchor="middle" transform="translate(47.72950012848269,15)" font-family="Liberation Mono" font-size="10px" fill="#000" opacity="0">Sep 10</text><text text-anchor="middle" transform="translate(79.67254583854194,15)" font-family="Liberation Mono" font-size="10px" fill="#000" opacity="1">Sep 17</text><text text-anchor="middle" transform="translate(111.61559154860119,15)" font-family="Liberation Mono" font-size="10px" fill="#000" opacity="0">Sep 24</text><text text-anchor="middle" transform="translate(143.55863725866044,15)" font-family="Liberation Mono" font-size="10px" fill="#000" opacity="1">October</text><text text-anchor="middle" transform="translate(175.50168296871968,15)" font-family="Liberation Mono" font-size="10px" fill="#000" opacity="0">Oct 08</text></g><g class="mark-rule role-axis-domain" pointer-events="none"><line transform="translate(0,0)" x2="200" y2="0" stroke="#888" stroke-width="1" opacity="1"/></g><g class="mark-text role-axis-title" pointer-events="none"><text text-anchor="middle" transform="translate(100,30)" font-family="Liberation Mono" font-size="11px" font-weight="bold" fill="#000" opacity="1">Time</text></g></g><path class="foreground" aria-hidden="true" d="" pointer-events="none" display="none"/></g></g><g class="mark-group role-axis" role="graphics-symbol" aria-roledescription="axis" aria-label="Y-axis titled 'Price' for a linear scale with values from 0 to 18,000"><g transform="translate(0.5,0.5)"><path class="background" aria-hidden="true" d="M0,0h0v0h0Z" pointer-events="none"/><g><g class="mark-rule role-axis-tick" pointer-events="none"><line transform="translate(0,200)" x2="-5" y2="0" stroke="#888" stroke-width="1" opacity="1"/><line transform="translate(0,144)" x2="-5" y2="0" stroke="#888" stroke-width="1" opacity="1"/><line transform="translate(0,89)" x2="-5" y2="0" stroke="#888" stroke-width="1" opacity="1"/><line transform="translate(0,33)" x2="-5" y2="0" stroke="#888" stroke-width="1" opacity="1"/></g><g class="mark-text role-axis-label" pointer-events="none"><text text-anchor="end" transform="translate(-7,203)" font-family="Liberation Mono" font-size="10px" fill="#000" opacity="1">0</text><text text-anchor="end" transform="translate(-7,147.44444444444443)" font-family="Liberation Mono" font-size="10px" fill="#000" opacity="1">50</text><text text-anchor="end" transform="translate(-7,91.88888888888889)" font-family="Liberation Mono" font-size="10px" fill="#000" opacity="1">100</text><text text-anchor="end" transform="translate(-7,36.33333333333333)" font-family="Liberation Mono" font-size="10px" fill="#000" opacity="1">150</text></g><g class="mark-rule role-axis-domain" pointer-events="none"><line transform="translate(0,200)" x2="0" y2="-200" stroke="#888" stroke-width="1" opacity="1"/></g><g class="mark-text role-axis-title" pointer-events="none"><text text-anchor="middle" transform="translate(-35,100) rotate(-90) translate(0,-2)" font-family="Liberation Mono" font-size="11px" font-weight="bold" fill="#000" opacity="1">Price</text></g></g><path class="foreground" aria-hidden="true" d="" pointer-events="none" display="none"/></g></g><g class="mark-group role-scope child_pathgroup" role="graphics-object" aria-roledescription="group mark container"><g transform="translate(0,0)"><path class="background" aria-hidden="true" d="M0,0h200v200h-200Z"/><g><g class="mark-line role-mark child_marks" role="graphics-object" aria-roledescription="line mark container"><path aria-label="Time: Aug 30, 2023; Price: 10795; item: DESCHUTES_VALLEY™_RAIN_PONCHO_-_Parka_-_black" role="graphics-symbol" aria-roledescription="line mark" d="M0,80.056L0.741,80.056L1.498,80.056L3.018,80.056L3.778,80.056L4.565,80.056L5.3,80.056L6.059,80.056L7.583,80.056L8.342,80.056L9.126,80.056L9.862,80.056L10.623,80.056L12.145,80.056L12.905,80.056L13.68,80.056L14.425,80.056L15.187,80.056L16.708,80.056L18.015,80.056L18.246,80.056L18.989,80.056L19.75,80.056L21.271,80.056L22.034,80.056L22.819,80.056L23.552,80.056L24.312,80.056L25.839,50.056L26.6,50.056L27.381,50.056L28.117,50.056L28.876,50.056L30.398,50.056L31.158,50.056L31.947,50.056L32.679,50.056L33.44,50.056L34.963,50.056L35.723,50.056L36.507,50.056L37.243,50.056L38.004,50.056L40.003,50.056L40.284,50.056L41.068,50.056L41.805,50.056L42.566,50.056L44.086,50.056L44.848,50.056L45.623,50.056L46.369,50.056L47.129,50.056L48.651,50.056L49.411,50.056L50.186,50.056L50.931,50.056L51.692,50.056L53.213,50.056L53.974,50.056L54.763,50.056L55.495,50.056L56.255,50.056L57.777,50.056L58.537,50.056L59.324,50.056L60.058,50.056L60.819,50.056L62.341,20.056L63.101,20.056L63.889,20.056L64.291,20.056L64.622,20.056L65.383,20.056L66.903,20.056L67.664,20.056L68.452,20.056L69.186,20.056L69.945,20.056L71.466,20.056L72.227,20.056L73.012,20.056L73.748,20.056L74.508,20.056L76.029,20.056L76.791,20.056L77.564,20.056L78.312,20.056L79.071,20.056L80.592,20.056L81.354,20.056L82.129,20.056L82.874,20.056L83.635,20.056L85.157,20.056L85.917,20.056L86.706,20.056L87.438,20.056L88.199,20.056L89.719,20.056L90.48,20.056L91.268,20.056L92.001,20.056L92.762,20.056L94.282,20.056L95.044,20.056L95.833,20.056L96.565,20.056L97.325,20.056L98.846,20.056L99.606,20.056L100.396,20.056L101.128,20.056L101.889,20.056L103.41,20.056L104.17,20.056L104.956,20.056L105.691,20.056L106.451,20.056L107.972,20.056L108.733,20.056L109.508,20.056L110.255,20.056L111.016,20.056L112.536,20.056L113.297,20.056L114.073,20.056L114.818,20.056L115.577,20.056L117.1,20.056L117.861,20.056L118.65,20.056L119.381,20.056L120.141,20.056L121.662,20.056L122.424,20.056L123.214,20.056L123.944,20.056L124.705,20.056L126.226,40.056L126.986,40.056L127.775,40.056L128.508,40.056L129.269,40.056L130.789,40.056L131.549,40.056L132.338,40.056L133.07,40.056L135.352,40.056L136.113,40.056L136.898,40.056L137.635,40.056L138.395,40.056L139.915,40.056L140.676,40.056L141.453,40.056L142.197,40.056L142.957,40.056L144.479,40.056L145.24,40.056L146.018,40.056L146.76,40.056L147.522,40.056L149.042,100.056L149.803,100.056L150.592,100.056L151.325,100.056L152.085,100.056L153.606,90.056L154.368,90.056L155.156,90.056L155.888,90.056L156.647,90.056L158.168,90.056L158.93,90.056L159.723,90.056L160.451,90.056L161.212,90.056L162.732,90.056L163.492,90.056L164.287,90.056L165.014,90.056L165.776,90.056L167.295,90.056L168.057,90.056L168.846,90.056L169.578,90.056L170.339,90.056L171.859,90.056L172.621,90.056L173.397,90.056L174.14,90.056L174.902,90.056L176.423,90.056L177.182,90.056L178.705,90.056L179.464,90.056L180.986,90.056L181.747,90.056L182.541,90.056L183.268,90.056L184.028,90.056L185.549,100.056L186.31,100.056L187.101,100.056L187.83,100.056L188.591,100.056L190.112,100.056L190.874,100.056L191.663,100.056L192.394,100.056L193.155,100.056L194.675,100.056L195.436,100.056L196.226,100.056L196.958,100.056L197.718,100.056L199.239,100.056L200,100.056" stroke="#72b7b2" stroke-width="2"/></g></g><path class="foreground" aria-hidden="true" d="" display="none"/></g><g transform="translate(0,0)"><path class="background" aria-hidden="true" d="M0,0h200v200h-200Z"/><g><g class="mark-line role-mark child_marks" role="graphics-object" aria-roledescription="line mark container"><path aria-label="Time: Aug 30, 2023; Price: 8995; item: HIKING_BACKPACK_PONCHO_-_Veste_imperméable_-_blue" role="graphics-symbol" aria-roledescription="line mark" d="M0,100.056L0.741,100.056L1.498,100.056L3.019,100.056L3.778,100.056L4.565,100.056L5.3,100.056L6.059,100.056L7.583,100.056L8.342,100.056L9.126,100.056L9.862,100.056L10.623,100.056L12.145,100.056L12.905,100.056L13.68,100.056L14.425,100.056L15.187,100.056L16.708,100.056L18.015,100.056L18.246,100.056L53.974,100.056L54.763,100.056L55.495,100.056L56.255,100.056L57.777,100.056L58.537,100.056L59.324,100.056L60.058,100.056L60.819,100.056L62.341,100.056L63.101,100.056L63.889,100.056L64.291,100.056L64.622,100.056L65.383,100.056L66.903,100.056L67.664,100.056L68.452,100.056L69.186,100.056L69.945,100.056L71.466,100.056L72.227,100.056L73.012,100.056L73.748,100.056L74.508,100.056L76.029,100.056L76.791,100.056L77.564,100.056L78.312,100.056L79.071,100.056L80.592,100.056L81.354,100.056L133.071,111.167L135.352,111.167L136.113,111.167L136.898,111.167L137.635,111.167L138.395,111.167L139.915,111.167L140.676,111.167L141.453,111.167L142.197,111.167L142.957,111.167L144.479,111.167L145.24,111.167L146.018,111.167L146.76,111.167L147.522,111.167L149.042,111.167L149.803,111.167L150.592,111.167L151.325,111.167L152.085,111.167L153.606,127.833L154.368,127.833L155.156,127.833L155.888,127.833L156.647,127.833L158.168,127.833L158.93,127.833L159.723,127.833L160.451,127.833L161.212,127.833L162.732,127.833L163.492,127.833L164.287,127.833L165.014,127.833L165.776,127.833L167.295,127.833L168.057,127.833L168.846,127.833L169.578,127.833L170.339,127.833L171.859,127.833L172.621,127.833L173.397,127.833L174.14,127.833L174.902,127.833L176.423,127.833L177.182,127.833L178.705,127.833L179.464,127.833L180.986,127.833" stroke="#54a24b" stroke-width="2"/></g></g><path class="foreground" aria-hidden="true" d="" display="none"/></g><g transform="translate(0,0)"><path class="background" aria-hidden="true" d="M0,0h200v200h-200Z"/><g><g class="mark-line role-mark child_marks" role="graphics-object" aria-roledescription="line mark container"><path aria-label="Time: Aug 30, 2023; Price: 16195; item: DESCHUTES_VALLEY™_RAIN_PONCHO_-_Parka_-_vista_blue" role="graphics-symbol" aria-roledescription="line mark" d="M0,20.056L0.741,20.056L1.498,20.056L3.019,20.056L3.778,20.056L4.565,20.056L5.3,20.056L6.059,20.056L7.583,20.056L8.342,20.056L9.126,20.056L9.862,20.056L10.623,20.056L12.145,20.056L12.905,20.056L13.68,20.056L14.425,20.056L15.187,20.056L16.708,20.056L18.015,20.056L18.246,20.056L18.989,20.056L19.75,20.056L21.272,20.056L22.034,20.056L22.819,20.056L23.552,20.056L24.312,20.056L25.839,80.056L26.6,80.056L27.381,80.056L28.117,80.056L28.876,80.056L30.398,80.056L31.158,80.056L31.947,80.056L32.679,80.056L33.44,80.056L34.963,80.056L35.723,80.056L36.507,80.056L37.243,80.056L38.004,80.056L40.003,80.056L40.284,80.056L41.068,80.056L41.805,80.056L42.566,80.056L44.086,80.056L44.848,80.056L45.623,80.056L46.369,80.056L47.129,80.056L48.651,80.056L49.41,80.056L50.186,80.056L50.931,80.056L51.692,80.056L53.213,80.056L53.974,80.056L54.763,80.056L55.495,80.056L56.255,80.056L57.777,80.056L58.537,80.056L59.324,80.056L60.058,80.056L60.819,80.056L62.341,20.056L63.101,20.056L63.889,20.056L64.291,20.056L64.622,20.056L65.383,20.056L66.903,20.056L67.664,20.056L68.452,20.056L69.186,20.056L69.945,20.056L71.466,20.056L72.227,20.056L73.012,20.056L73.748,20.056L74.508,20.056L76.029,20.056L76.791,20.056L77.564,20.056L78.312,20.056L79.071,20.056L80.592,20.056L81.354,20.056L82.129,20.056L82.874,20.056L83.635,20.056L85.157,20.056L85.917,20.056L86.706,20.056L87.438,20.056L88.199,20.056L89.719,20.056L90.48,20.056L91.268,20.056L92.001,20.056L92.762,20.056L94.282,20.056L95.044,20.056L95.833,20.056L96.565,20.056L97.325,20.056L98.846,20.056L99.606,20.056L100.396,20.056L101.128,20.056L101.889,20.056L103.41,20.056L104.17,20.056L104.956,20.056L105.691,20.056L106.451,20.056L107.972,20.056L108.733,20.056L109.508,20.056L110.255,20.056L111.016,20.056L112.536,20.056L113.297,20.056L114.073,20.056L114.818,20.056L115.577,20.056L117.1,20.056L117.861,20.056L118.65,20.056L119.381,20.056L120.141,20.056L121.662,20.056L122.424,20.056L123.214,20.056L123.944,20.056L124.705,20.056L126.226,40.056L126.986,40.056L127.775,40.056L128.508,40.056L129.269,40.056L130.789,40.056L131.549,40.056L132.338,40.056L133.07,40.056L135.352,40.056L136.113,40.056L136.898,40.056L137.635,40.056L138.395,40.056L139.915,40.056L140.676,40.056L141.453,40.056L142.197,40.056L142.957,40.056L144.479,40.056L145.24,40.056L146.018,40.056L146.76,40.056L147.522,40.056L149.042,90.056L149.803,90.056L150.592,90.056L151.325,90.056L152.085,90.056L153.606,40.056L154.368,40.056L155.156,40.056L155.888,40.056L156.647,40.056L158.168,40.056L158.93,40.056L159.723,40.056L160.451,40.056L161.212,40.056L162.732,40.056L163.492,40.056L164.287,40.056L165.014,40.056L165.776,40.056L167.295,40.056L168.057,40.056L168.846,40.056L169.578,40.056L170.339,40.056L171.859,40.056L172.621,40.056L173.397,40.056L174.14,40.056L174.902,40.056L176.423,40.056L177.182,40.056L178.705,40.056L179.464,40.056L180.986,40.056L181.747,40.056L182.541,40.056L183.268,40.056L184.028,40.056L185.549,90.056L186.31,90.056L187.101,90.056L187.83,90.056L188.591,90.056L190.112,90.056L190.874,90.056L191.663,90.056L192.394,90.056L193.155,90.056L194.675,90.056L195.436,90.056L196.226,90.056L196.958,90.056L197.718,90.056L199.239,90.056L200,90.056" stroke="#f58518" stroke-width="2"/></g></g><path class="foreground" aria-hidden="true" d="" display="none"/></g><g transform="translate(0,0)"><path class="background" aria-hidden="true" d="M0,0h200v200h-200Z"/><g><g class="mark-line role-mark child_marks" role="graphics-object" aria-roledescription="line mark container"><path aria-label="Time: Aug 30, 2023; Price: 5495; item: COVERO_PONCHO_II_-_Cape_-_lightgrey" role="graphics-symbol" aria-roledescription="line mark" d="M0,138.944L0.741,138.944L1.498,138.944L3.019,138.944L3.778,138.944L4.565,138.944L5.3,138.944L6.059,138.944L7.583,138.944L8.342,138.944L12.905,138.944L13.68,138.944L14.425,138.944L15.187,138.944L16.708,138.944L18.015,138.944L18.246,138.944L18.989,138.944L19.75,138.944L21.272,138.944L22.034,138.944L22.819,138.944L23.552,138.944L24.312,138.944L25.839,138.944L26.6,138.944L27.381,138.944L28.117,138.944L28.876,138.944L41.805,153.944L49.411,138.944L50.186,138.944L50.931,138.944L51.692,138.944L53.213,138.944L53.974,138.944L54.763,138.944L55.495,138.944L56.255,138.944L57.777,138.944L58.537,138.944L59.324,138.944L60.058,138.944L60.82,138.944L62.341,138.944L63.101,138.944L63.889,138.944L64.291,138.944L64.622,138.944L65.383,138.944L66.903,138.944L67.664,138.944L68.452,138.944L69.186,138.944L69.945,138.944L71.466,138.944L72.227,138.944L73.012,138.944L73.748,138.944L74.509,138.944L76.029,138.944L76.791,138.944L77.564,138.944L78.312,138.944L79.071,138.944L80.592,138.944L81.354,138.944L82.129,138.944L82.874,138.944L83.635,138.944L85.157,138.944L85.917,138.944L86.706,138.944L87.438,138.944L88.199,138.944L89.719,138.944L90.48,138.944L91.268,138.944L92.001,138.944L92.762,138.944L94.282,151.167L95.045,151.167L95.833,151.167L96.565,151.167L97.325,151.167L98.846,151.167L99.606,151.167L100.396,151.167L101.128,151.167L101.889,151.167L103.41,151.167L104.17,151.167L104.956,151.167L108.734,151.167L109.508,151.167L110.255,151.167L111.016,151.167L112.536,151.167L113.297,151.167L114.073,151.167L114.818,151.167L115.577,151.167L117.1,151.167L117.861,151.167L118.65,151.167L119.381,151.167L120.141,151.167L121.662,151.167L122.424,151.167L123.214,151.167L123.944,151.167L124.705,151.167L126.226,151.167L126.986,151.167L127.775,151.167L128.508,151.167L129.269,151.167L130.789,151.167L131.549,151.167L132.338,151.167L133.071,151.167L135.352,151.167L136.113,151.167L136.898,151.167L137.635,151.167L138.395,151.167L139.915,151.167L140.676,151.167L141.453,151.167L142.197,151.167L142.957,151.167L144.479,151.167L145.24,151.167L146.018,151.167L146.761,151.167L147.522,151.167L149.042,151.167L149.803,151.167L150.592,151.167L151.325,151.167L152.085,151.167L153.606,151.167L154.368,151.167L155.156,151.167L155.888,151.167L156.648,151.167L158.168,151.167L158.93,151.167L159.723,151.167L160.451,151.167L161.212,151.167L162.732,151.167L163.492,151.167L164.287,151.167L165.014,151.167L165.776,151.167L167.295,151.167L168.057,151.167L168.846,151.167L169.578,151.167L170.339,151.167L172.621,151.167L173.397,151.167L176.423,151.167L177.182,151.167L178.705,151.167L179.464,151.167L183.268,151.167L184.028,151.167L185.549,151.167L186.31,151.167L187.101,151.167L188.591,151.167L190.112,138.944L190.874,138.944L191.663,138.944L192.394,138.944L193.155,138.944" stroke="#bab0ac" stroke-width="2"/></g></g><path class="foreground" aria-hidden="true" d="" display="none"/></g><g transform="translate(0,0)"><path class="background" aria-hidden="true" d="M0,0h200v200h-200Z"/><g><g class="mark-line role-mark child_marks" role="graphics-object" aria-roledescription="line mark container"><path aria-label="Time: Sep 01, 2023; Price: 12995; item: KUURA_3L_PONCHO_UNISEX_-_Veste_imperméable_-_green" role="graphics-symbol" aria-roledescription="line mark" d="M10.623,55.611L12.145,55.611L12.905,55.611L13.68,55.611L22.034,55.611L22.819,55.611L23.552,55.611L24.312,55.611L25.839,11.167L26.6,11.167L27.381,11.167L28.117,11.167L28.876,11.167L30.398,11.167L31.158,11.167L31.947,11.167L32.679,11.167L33.44,11.167L34.963,11.167L35.723,11.167L36.507,11.167L37.243,11.167L38.004,11.167L40.003,11.167L40.284,11.167L41.068,11.167L41.805,11.167L42.566,11.167L44.086,11.167L44.848,11.167L45.623,11.167L46.369,11.167L47.129,11.167L48.651,11.167L49.411,11.167L50.186,11.167L50.931,11.167L51.692,11.167L53.213,11.167L53.974,11.167L54.763,11.167L55.495,11.167L57.777,11.167L58.537,11.167L59.324,11.167L60.058,11.167L60.819,11.167L77.564,22.278L78.312,22.278L79.071,22.278L80.592,22.278L81.354,22.278L82.129,22.278L82.874,22.278L83.635,22.278L85.157,22.278L85.917,22.278L86.706,22.278L90.48,22.278L91.268,22.278L92.001,22.278L92.762,22.278L94.282,22.278L95.044,22.278L155.888,22.278L156.647,22.278L158.168,22.278L158.93,22.278L159.723,22.278L160.451,22.278L161.212,22.278L162.732,22.278L163.492,22.278L164.287,22.278L165.014,22.278L165.776,22.278L167.295,22.278L168.057,22.278L168.846,22.278L169.578,22.278L170.339,22.278L171.859,22.278L172.621,22.278L173.397,22.278L174.14,22.278L174.902,22.278" stroke="#4c78a8" stroke-width="2"/></g></g><path class="foreground" aria-hidden="true" d="" display="none"/></g><g transform="translate(0,0)"><path class="background" aria-hidden="true" d="M0,0h200v200h-200Z"/><g><g class="mark-line role-mark child_marks" role="graphics-object" aria-roledescription="line mark container"><path aria-label="Time: Sep 14, 2023; Price: 6495; item: PARIS_ST._GERMAIN_CITY_MADE_PONCHO_-_Veste_de_survêtement_-_aura_white" role="graphics-symbol" aria-roledescription="line mark" d="M66.903,127.833L67.664,127.833L68.452,127.833L69.186,127.833L69.946,127.833L71.466,127.833L72.227,127.833L76.029,127.833L81.354,127.833L82.129,127.833L82.874,127.833L83.635,127.833L85.157,127.833L85.917,127.833L86.706,127.833L87.438,127.833L88.199,127.833L89.719,127.833L90.48,127.833L91.268,127.833L92.001,127.833L92.762,127.833L94.282,127.833L95.044,127.833L95.833,127.833L96.565,127.833L97.325,127.833L98.846,127.833L99.606,127.833L100.396,127.833L101.128,127.833L101.889,127.833L103.41,127.833L104.17,127.833L104.956,127.833L105.691,127.833L106.451,127.833L107.972,127.833L108.734,127.833L109.508,127.833L110.255,127.833L111.016,127.833L112.536,127.833L113.297,127.833L114.073,127.833L114.818,127.833L115.577,127.833L117.1,127.833L117.861,127.833L118.65,127.833L119.381,127.833L120.141,127.833L121.662,127.833L122.424,127.833L123.214,127.833" stroke="#b279a2" stroke-width="2"/></g></g><path class="foreground" aria-hidden="true" d="" display="none"/></g><g transform="translate(0,0)"><path class="background" aria-hidden="true" d="M0,0h200v200h-200Z"/><g><g class="mark-line role-mark child_marks" role="graphics-object" aria-roledescription="line mark container"><path aria-label="Time: Sep 18, 2023; Price: 8995; item: HIKING_BACKPACK_PONCHO_-_Veste_imperméable_-_indian_red" role="graphics-symbol" aria-roledescription="line mark" d="M85.157,100.056L85.917,100.056L86.706,100.056L87.438,100.056L88.199,100.056L89.719,100.056L90.48,100.056L119.381,100.056L120.141,100.056L121.662,100.056L122.424,100.056L123.214,100.056L123.944,100.056L124.705,100.056L126.226,111.167L126.986,111.167L127.775,111.167L128.508,111.167" stroke="#eeca3b" stroke-width="2"/></g></g><path class="foreground" aria-hidden="true" d="" display="none"/></g><g transform="translate(0,0)"><path class="background" aria-hidden="true" d="M0,0h200v200h-200Z"/><g><g class="mark-line role-mark child_marks" role="graphics-object" aria-roledescription="line mark container"><path aria-label="Time: Sep 26, 2023; Price: 6495; item: PSG_M_NSW_CITY_MADE_PONCHO_-_Veste_de_survêtement_-_aura_white" role="graphics-symbol" aria-roledescription="line mark" d="M123.944,127.833L124.705,127.833L126.226,91.167L126.986,91.167L127.775,91.167L128.508,91.167L129.269,91.167L130.789,91.167L131.549,91.167L132.338,91.167L133.071,91.167L135.352,91.167L136.113,91.167L136.898,91.167L137.635,91.167L138.395,91.167L139.915,91.167L140.676,91.167L141.453,91.167L142.197,91.167L142.957,91.167L144.48,91.167L145.24,91.167L146.018,91.167L146.761,91.167L147.522,91.167L149.042,127.833L149.803,127.833L150.592,127.833L151.325,127.833L152.085,127.833L153.606,127.833L154.368,127.833L155.156,127.833L155.888,127.833L156.648,127.833L158.168,127.833L158.93,127.833L159.723,127.833L160.451,127.833L161.212,127.833L162.732,127.833L163.492,127.833L164.287,127.833L165.014,127.833L165.776,127.833L167.295,127.833L168.057,127.833L168.846,127.833L169.578,127.833L170.339,127.833L171.859,127.833L172.621,127.833L173.397,127.833L174.14,127.833L174.903,127.833L176.423,127.833L177.182,127.833L178.705,127.833L179.464,127.833L180.986,127.833L181.747,127.833L182.541,127.833L183.268,127.833L184.028,127.833L185.549,84.5L186.31,84.5L187.101,84.5L188.591,84.5L190.112,84.5L190.874,84.5L191.663,84.5L192.394,84.5L193.155,84.5L194.675,84.5L195.436,84.5L199.239,84.5" stroke="#ff9da6" stroke-width="2"/></g></g><path class="foreground" aria-hidden="true" d="" display="none"/></g><g transform="translate(0,0)"><path class="background" aria-hidden="true" d="M0,0h200v200h-200Z"/><g><g class="mark-line role-mark child_marks" role="graphics-object" aria-roledescription="line mark container"><path aria-label="Time: Oct 12, 2023; Price: 4995; item: SHOWERPROOF_PONCHO_UNISEX_-_Cape_-_classic_tartan" role="graphics-symbol" aria-roledescription="line mark" d="M194.675,144.5L195.436,144.5L196.226,144.5L196.958,144.5L197.718,144.5L199.239,144.5L200,144.5" stroke="#9d755d" stroke-width="2"/></g></g><path class="foreground" aria-hidden="true" d="" display="none"/></g><g transform="translate(0,0)"><path class="background" aria-hidden="true" d="M0,0h200v200h-200Z"/><g><g class="mark-line role-mark child_marks" role="graphics-object" aria-roledescription="line mark container"><path aria-label="Time: Oct 12, 2023; Price: 13995; item: PONCHO_-_Cape_-_lucid_blue" role="graphics-symbol" aria-roledescription="line mark" d="M194.675,44.5L200,44.5" stroke="#e45756" stroke-width="2"/></g></g><path class="foreground" aria-hidden="true" d="" display="none"/></g></g><g class="mark-group role-legend" role="graphics-symbol" aria-roledescription="legend" aria-label="Symbol legend titled 'item' for stroke color with 10 values: KUURA_3L_PONCHO_UNISEX_-_Veste_imperméable_-_green, DESCHUTES_VALLEY™_RAIN_PONCHO_-_Parka_-_vista_blue, PONCHO_-_Cape_-_lucid_blue, DESCHUTES_VALLEY™_RAIN_PONCHO_-_Parka_-_black, HIKING_BACKPACK_PONCHO_-_Veste_imperméable_-_blue, ending with COVERO_PONCHO_II_-_Cape_-_lightgrey"><g transform="translate(220,0)"><path class="background" aria-hidden="true" d="M0,0h328v144h-328Z" pointer-events="none"/><g><g class="mark-group role-legend-entry"><g transform="translate(0,16)"><path class="background" aria-hidden="true" d="M0,0h0v0h0Z" pointer-events="none"/><g><g class="mark-group role-scope" role="graphics-object" aria-roledescription="group mark container"><g transform="translate(0,0)"><path class="background" aria-hidden="true" d="M0,0h328v11h-328Z" pointer-events="none" opacity="1"/><g><g class="mark-symbol role-legend-symbol" pointer-events="none"><path transform="translate(6,6)" d="M-5,0L5,0" stroke="#4c78a8" stroke-width="1.5" opacity="1"/></g><g class="mark-text role-legend-label" pointer-events="none"><text text-anchor="start" transform="translate(16,9)" font-family="Liberation Mono" font-size="10px" fill="#000" opacity="1">KUURA_3L_PONCHO_UNISEX_-_Veste_impermé…</text></g></g><path class="foreground" aria-hidden="true" d="" pointer-events="none" display="none"/></g><g transform="translate(0,13)"><path class="background" aria-hidden="true" d="M0,0h328v11h-328Z" pointer-events="none" opacity="1"/><g><g class="mark-symbol role-legend-symbol" pointer-events="none"><path transform="translate(6,6)" d="M-5,0L5,0" stroke="#f58518" stroke-width="1.5" opacity="1"/></g><g class="mark-text role-legend-label" pointer-events="none"><text text-anchor="start" transform="translate(16,9)" font-family="Liberation Mono" font-size="10px" fill="#000" opacity="1">DESCHUTES_VALLEY™_RAIN_PONCHO_-_Parka_…</text></g></g><path class="foreground" aria-hidden="true" d="" pointer-events="none" display="none"/></g><g transform="translate(0,26)"><path class="background" aria-hidden="true" d="M0,0h328v11h-328Z" pointer-events="none" opacity="1"/><g><g class="mark-symbol role-legend-symbol" pointer-events="none"><path transform="translate(6,6)" d="M-5,0L5,0" stroke="#e45756" stroke-width="1.5" opacity="1"/></g><g class="mark-text role-legend-label" pointer-events="none"><text text-anchor="start" transform="translate(16,9)" font-family="Liberation Mono" font-size="10px" fill="#000" opacity="1">PONCHO_-_Cape_-_lucid_blue</text></g></g><path class="foreground" aria-hidden="true" d="" pointer-events="none" display="none"/></g><g transform="translate(0,39)"><path class="background" aria-hidden="true" d="M0,0h328v11h-328Z" pointer-events="none" opacity="1"/><g><g class="mark-symbol role-legend-symbol" pointer-events="none"><path transform="translate(6,6)" d="M-5,0L5,0" stroke="#72b7b2" stroke-width="1.5" opacity="1"/></g><g class="mark-text role-legend-label" pointer-events="none"><text text-anchor="start" transform="translate(16,9)" font-family="Liberation Mono" font-size="10px" fill="#000" opacity="1">DESCHUTES_VALLEY™_RAIN_PONCHO_-_Parka_…</text></g></g><path class="foreground" aria-hidden="true" d="" pointer-events="none" display="none"/></g><g transform="translate(0,52)"><path class="background" aria-hidden="true" d="M0,0h328v11h-328Z" pointer-events="none" opacity="1"/><g><g class="mark-symbol role-legend-symbol" pointer-events="none"><path transform="translate(6,6)" d="M-5,0L5,0" stroke="#54a24b" stroke-width="1.5" opacity="1"/></g><g class="mark-text role-legend-label" pointer-events="none"><text text-anchor="start" transform="translate(16,9)" font-family="Liberation Mono" font-size="10px" fill="#000" opacity="1">HIKING_BACKPACK_PONCHO_-_Veste_impermé…</text></g></g><path class="foreground" aria-hidden="true" d="" pointer-events="none" display="none"/></g><g transform="translate(0,65)"><path class="background" aria-hidden="true" d="M0,0h328v11h-328Z" pointer-events="none" opacity="1"/><g><g class="mark-symbol role-legend-symbol" pointer-events="none"><path transform="translate(6,6)" d="M-5,0L5,0" stroke="#eeca3b" stroke-width="1.5" opacity="1"/></g><g class="mark-text role-legend-label" pointer-events="none"><text text-anchor="start" transform="translate(16,9)" font-family="Liberation Mono" font-size="10px" fill="#000" opacity="1">HIKING_BACKPACK_PONCHO_-_Veste_impermé…</text></g></g><path class="foreground" aria-hidden="true" d="" pointer-events="none" display="none"/></g><g transform="translate(0,78)"><path class="background" aria-hidden="true" d="M0,0h328v11h-328Z" pointer-events="none" opacity="1"/><g><g class="mark-symbol role-legend-symbol" pointer-events="none"><path transform="translate(6,6)" d="M-5,0L5,0" stroke="#b279a2" stroke-width="1.5" opacity="1"/></g><g class="mark-text role-legend-label" pointer-events="none"><text text-anchor="start" transform="translate(16,9)" font-family="Liberation Mono" font-size="10px" fill="#000" opacity="1">PARIS_ST._GERMAIN_CITY_MADE_PONCHO_-_V…</text></g></g><path class="foreground" aria-hidden="true" d="" pointer-events="none" display="none"/></g><g transform="translate(0,91)"><path class="background" aria-hidden="true" d="M0,0h328v11h-328Z" pointer-events="none" opacity="1"/><g><g class="mark-symbol role-legend-symbol" pointer-events="none"><path transform="translate(6,6)" d="M-5,0L5,0" stroke="#ff9da6" stroke-width="1.5" opacity="1"/></g><g class="mark-text role-legend-label" pointer-events="none"><text text-anchor="start" transform="translate(16,9)" font-family="Liberation Mono" font-size="10px" fill="#000" opacity="1">PSG_M_NSW_CITY_MADE_PONCHO_-_Veste_de_…</text></g></g><path class="foreground" aria-hidden="true" d="" pointer-events="none" display="none"/></g><g transform="translate(0,104)"><path class="background" aria-hidden="true" d="M0,0h328v11h-328Z" pointer-events="none" opacity="1"/><g><g class="mark-symbol role-legend-symbol" pointer-events="none"><path transform="translate(6,6)" d="M-5,0L5,0" stroke="#9d755d" stroke-width="1.5" opacity="1"/></g><g class="mark-text role-legend-label" pointer-events="none"><text text-anchor="start" transform="translate(16,9)" font-family="Liberation Mono" font-size="10px" fill="#000" opacity="1">SHOWERPROOF_PONCHO_UNISEX_-_Cape_-_cla…</text></g></g><path class="foreground" aria-hidden="true" d="" pointer-events="none" display="none"/></g><g transform="translate(0,117)"><path class="background" aria-hidden="true" d="M0,0h328v11h-328Z" pointer-events="none" opacity="1"/><g><g class="mark-symbol role-legend-symbol" pointer-events="none"><path transform="translate(6,6)" d="M-5,0L5,0" stroke="#bab0ac" stroke-width="1.5" opacity="1"/></g><g class="mark-text role-legend-label" pointer-events="none"><text text-anchor="start" transform="translate(16,9)" font-family="Liberation Mono" font-size="10px" fill="#000" opacity="1">COVERO_PONCHO_II_-_Cape_-_lightgrey</text></g></g><path class="foreground" aria-hidden="true" d="" pointer-events="none" display="none"/></g></g></g><path class="foreground" aria-hidden="true" d="" pointer-events="none" display="none"/></g></g><g class="mark-text role-legend-title" pointer-events="none"><text text-anchor="start" transform="translate(0,9)" font-family="Liberation Mono" font-size="11px" font-weight="bold" fill="#000" opacity="1">item</text></g></g><path class="foreground" aria-hidden="true" d="" pointer-events="none" display="none"/></g></g></g><path class="foreground" aria-hidden="true" d="" display="none"/></g></g></g><path class="foreground" aria-hidden="true" d="" display="none"/></g></g></g></svg>