<svg xmlns="http://www.w3.org/2000/svg" xmlns:xlink="http://www.w3.org/1999/xlink" version="1.1" class="marks" width="658" height="244" viewBox="0 0 658 244"><rect width="658" height="244" fill="white"/><g fill="none" stroke-miterlimit="10" transform="translate(104,6)"><g class="mark-group role-frame root" role="graphics-object" aria-roledescription="group mark container"><g transform="translate(0,0)"><path class="background" aria-hidden="true" d="M0,0h0v0h0Z"/><g><g class="mark-group role-row-title row-title" role="graphics-object" aria-roledescription="group mark container"><g transform="translate(-78,116)"><path class="background" aria-hidden="true" d="M0,0h0v0h0Z"/><g><g class="mark-group role-title"><g transform="translate(-21.000000000000004,0)"><path class="background" aria-hidden="true" d="M0,0h0v0h0Z" pointer-events="none"/><g><g class="mark-text role-title-text" role="graphics-symbol" aria-roledescription="title" aria-label="Title text 'group'" pointer-events="none"><text text-anchor="middle" transform="translate(0,0) rotate(-90) translate(0,9)" font-family="Liberation Mono" font-size="11px" font-weight="bold" fill="#000" opacity="1">group</text></g></g><path class="foreground" aria-hidden="true" d="" pointer-events="none" display="none"/></g></g></g><path class="foreground" aria-hidden="true" d="" display="none"/></g></g><g class="mark-group role-row-header row_header" role="graphics-object" aria-roledescription="group mark container"><g transform="translate(-47,0)"><path class="background" aria-hidden="true" d="M0,0h0v200h0Z"/><g><g class="mark-group role-title"><g transform="translate(-20.000000000000007,100)"><path class="background" aria-hidden="true" d="M0,0h0v0h0Z" pointer-events="none"/><g><g class="mark-text role-title-text" role="graphics-symbol" aria-roledescription="title" aria-label="Title text 'zalando-poncho'" pointer-events="none"><text text-anchor="middle" transform="translate(0,0) rotate(-90) translate(0,8)" font-family="Liberation Mono" font-size="10px" fill="#000" opacity="1">zalando-poncho</text></g></g><path class="foreground" aria-hidden="true" d="" pointer-events="none" display="none"/></g></g></g><path class="foreground" aria-hidden="true" d="" display="none"/></g></g><g class="mark-group role-scope cell" role="graphics-object" aria-roledescription="group mark container"><g transform="translate(0,0)"><path class="background" aria-hidden="true" d="M0.5,0.5h200v200h-200Z" stroke="#ddd"/><g><g class="mark-group role-axis" aria-hidden="true"><g transform="translate(0.5,200.5)"><path class="background" aria-hidden="true" d="M0,0h0v0h0Z" pointer-events="none"/><g><g class="mark-rule role-axis-grid" pointer-events="none"><line transform="translate(4,-200)" x2="0" y2="200" stroke="#ddd" stroke-width="1" opacity="1"/><line transform="translate(87,-200)" x2="0" y2="200" stroke="#ddd" stroke-width="1" opacity="1"/><line transform="translate(172,-200)" x2="0" y2="200" stroke="#ddd" stroke-width="1" opacity="1"/></g></g><path class="foreground" aria-hidden="true" d="" pointer-events="none" display="none"/></g></g><g class="mark-group role-axis" aria-hidden="true"><g transform="translate(0.5,0.5)"><path class="background" aria-hidden="true" d="M0,0h0v0h0Z" pointer-events="none"/><g><g class="mark-rule role-axis-grid" pointer-events="none"><line transform="translate(0,200)" x2="200" y2="0" stroke="#ddd" stroke-width="1" opacity="1"/><line transform="translate(0,144)" x2="200" y2="0" stroke="#ddd" stroke-width="1" opacity="1"/><line transform="translate(0,89)" x2="200" y2="0" stroke="#ddd" stroke-width="1" opacity="1"/><line transform="translate(0,33)" x2="200" y2="0" stroke="#ddd" stroke-width="1" opacity="1"/></g></g><path class="foreground" aria-hidden="true" d="" pointer-events="none" display="none"/></g></g><g class="mark-group role-axis" role="graphics-symbol" aria-roledescription="axis" aria-label="X-axis titled 'Time' for a time scale with values from Wednesday, 30 August 2023, 12:58:24 PM to Saturday, 11 November 2023, 4:50:27 AM"><g transform="translate(0.5,200.5)"><path class="background" aria-hidden="true" d="M0,0h0v0h0Z" pointer-events="none"/><g><g class="mark-rule role-axis-tick" pointer-events="none"><line transform="translate(4,0)" x2="0" y2="5" stroke="#888" stroke-width="1" opacity="1"/><line transform="translate(87,0)" x2="0" y2="5" stroke="#888" stroke-width="1" opacity="1"/><line transform="translate(172,0)" x2="0" y2="5" stroke="#888" stroke-width="1" opacity="1"/></g><g class="mark-text role-axis-label" pointer-events="none"><text text-anchor="middle" transform="translate(4.017123758679242,15)" font-family="Liberation Mono" font-size="10px" fill="#000" opacity="1">September</text><text text-anchor="middle" transform="translate(86.5922035371733,15)" font-family="Liberation Mono" font-size="10px" fill="#000" opacity="1">October</text><text text-anchor="middle" transform="translate(171.9197859749505,15)" font-family="Liberation Mono" font-size="10px" fill="#000" opacity="1">November</text></g><g class="mark-rule role-axis-domain" pointer-events="none"><line transform="translate(0,0)" x2="200" y2="0" stroke="#888" stroke-width="1" opacity="1"/></g><g class="mark-text role-axis-title" pointer-events="none"><text text-anchor="middle" transform="translate(100,30)" font-family="Liberation Mono" font-size="11px" font-weight="bold" fill="#000" opacity="1">Time</text></g></g><path class="foreground" aria-hidden="true" d="" pointer-events="none" display="none"/></g></g><g class="mark-group role-axis" role="graphics-symbol" aria-roledescription="axis" aria-label="Y-axis titled 'Price' for a linear scale with values from 0 to 18,000"><g transform="translate(0.5,0.5)"><path class="background" aria-hidden="true" d="M0,0h0v0h0Z" pointer-events="none"/><g><g class="mark-rule role-axis-tick" pointer-events="none"><line transform="translate(0,200)" x2="-5" y2="0" stroke="#888" stroke-width="1" opacity="1"/><line transform="translate(0,144)" x2="-5" y2="0" stroke="#888" stroke-width="1" opacity="1"/><line transform="translate(0,89)" x2="-5" y2="0" stroke="#888" stroke-width="1" opacity="1"/><line transform="translate(0,33)" x2="-5" y2="0" stroke="#888" stroke-width="1" opacity="1"/></g><g class="mark-text role-axis-label" pointer-events="none"><text text-anchor="end" transform="translate(-7,203)" font-family="Liberation Mono" font-size="10px" fill="#000" opacity="1">0</text><text text-anchor="end" transform="translate(-7,147.44444444444443)" font-family="Liberation Mono" font-size="10px" fill="#000" opacity="1">50</text><text text-anchor="end" transform="translate(-7,91.88888888888889)" font-family="Liberation Mono" font-size="10px" fill="#000" opacity="1">100</text><text text-anchor="end" transform="translate(-7,36.33333333333333)" font-family="Liberation Mono" font-size="10px" fill="#000" opacity="1">150</text></g><g class="mark-rule role-axis-domain" pointer-events="none"><line transform="translate(0,200)" x2="0" y2="-200" stroke="#888" stroke-width="1" opacity="1"/></g><g class="mark-text role-axis-title" pointer-events="none"><text text-anchor="middle" transform="translate(-35,100) rotate(-90) translate(0,-2)" font-family="Liberation Mono" font-size="11px" font-weight="bold" fill="#000" opacity="1">Price</text></g></g><path class="foreground" aria-hidden="true" d="" pointer-events="none" display="none"/></g></g><g class="mark-group role-scope child_pathgroup" role="graphics-object" aria-roledescription="group mark container"><g transform="translate(0,0)"><path class="background" aria-hidden="true" d="M0,0h200v200h-200Z"/><g><g class="mark-line role-mark child_marks" role="graphics-object" aria-roledescription="line mark container"><path aria-label="Time: Aug 30, 2023; Price: 10795; item: DESCHUTES_VALLEY™_RAIN_PONCHO_-_Parka_-_black" role="graphics-symbol" aria-roledescription="line mark" d="M0,80.056L0.447,80.056L0.903,80.056L1.821,80.056L2.279,80.056L2.753,80.056L3.197,80.056L3.655,80.056L4.574,80.056L5.032,80.056L5.505,80.056L5.949,80.056L6.408,80.056L7.326,80.056L7.784,80.056L8.252,80.056L8.701,80.056L9.16,80.056L10.078,80.056L10.866,80.056L11.006,80.056L11.454,80.056L11.913,80.056L12.831,80.056L13.29,80.056L13.764,80.056L14.206,80.056L14.665,80.056L15.585,50.056L16.045,50.056L16.516,50.056L16.96,50.056L17.418,50.056L18.335,50.056L18.794,50.056L19.27,50.056L19.711,50.056L20.171,50.056L21.089,50.056L21.547,50.056L22.02,50.056L22.465,50.056L22.923,50.056L24.129,50.056L24.299,50.056L24.772,50.056L25.216,50.056L25.675,50.056L26.592,50.056L27.051,50.056L27.519,50.056L27.969,50.056L28.428,50.056L29.345,50.056L29.804,50.056L30.271,50.056L30.721,50.056L31.18,50.056L32.097,50.056L32.556,50.056L33.032,50.056L33.474,50.056L33.932,50.056L34.85,50.056L35.308,50.056L35.783,50.056L36.226,50.056L36.685,50.056L37.603,20.056L38.062,20.056L38.537,20.056L38.779,20.056L38.979,20.056L39.438,20.056L40.355,20.056L40.814,20.056L41.289,20.056L41.732,20.056L42.19,20.056L43.107,20.056L43.566,20.056L44.04,20.056L44.483,20.056L44.942,20.056L45.86,20.056L46.319,20.056L46.785,20.056L47.236,20.056L47.694,20.056L48.612,20.056L49.071,20.056L49.539,20.056L49.988,20.056L50.448,20.056L51.365,20.056L51.824,20.056L52.3,20.056L52.741,20.056L53.2,20.056L54.117,20.056L54.576,20.056L55.052,20.056L55.493,20.056L55.953,20.056L56.869,20.056L57.329,20.056L57.805,20.056L58.246,20.056L58.705,20.056L59.622,20.056L60.081,20.056L60.557,20.056L60.999,20.056L61.458,20.056L62.375,20.056L62.834,20.056L63.308,20.056L63.751,20.056L64.21,20.056L65.127,20.056L65.586,20.056L66.054,20.056L66.504,20.056L66.963,20.056L67.88,20.056L68.339,20.056L68.807,20.056L69.256,20.056L69.714,20.056L70.633,20.056L71.092,20.056L71.568,20.056L72.009,20.056L72.467,20.056L73.385,20.056L73.844,20.056L74.321,20.056L74.761,20.056L75.22,20.056L76.137,40.056L76.596,40.056L77.072,40.056L77.514,40.056L77.973,40.056L78.89,40.056L79.348,40.056L79.824,40.056L80.266,40.056L81.642,40.056L82.101,40.056L82.575,40.056L83.019,40.056L83.477,40.056L84.395,40.056L84.853,40.056L85.322,40.056L85.771,40.056L86.229,40.056L87.148,40.056L87.606,40.056L88.076,40.056L88.523,40.056L88.983,40.056L89.9,100.056L90.359,100.056L90.834,100.056L91.276,100.056L91.735,100.056L92.653,90.056L93.112,90.056L93.588,90.056L94.029,90.056L94.487,90.056L95.404,90.056L95.864,90.056L96.342,90.056L96.782,90.056L97.24,90.056L98.157,90.056L98.616,90.056L99.095,90.056L99.534,90.056L99.993,90.056L100.91,90.056L101.369,90.056L101.845,90.056L102.286,90.056L102.746,90.056L103.662,90.056L104.122,90.056L104.59,90.056L105.038,90.056L105.498,90.056L106.415,90.056L106.873,90.056L107.792,90.056L108.25,90.056L109.167,90.056L109.627,90.056L110.106,90.056L110.544,90.056L111.003,90.056L111.92,100.056L112.379,100.056L112.856,100.056L113.296,100.056L113.755,100.056L114.673,100.056L115.132,100.056L115.608,100.056L116.049,100.056L116.508,100.056L117.425,100.056L117.884,100.056L118.36,100.056L118.802,100.056L119.26,100.056L120.178,100.056L120.637,100.056L121.113,100.056L121.554,100.056L122.013,100.056L122.93,100.056L123.389,100.056L123.857,100.056L124.306,100.056L124.765,100.056L125.682,100.056L126.141,100.056L126.61,100.056L127.058,100.056L127.518,100.056L128.435,90.056L128.894,90.056L129.371,90.056L129.811,90.056L130.27,90.056L131.188,90.056L131.646,90.056L132.123,90.056L132.564,90.056L133.022,90.056L133.94,90.056L134.399,90.056L134.875,90.056L135.316,90.056L135.775,90.056L136.693,90.056L137.151,90.056L137.628,90.056L138.069,90.056L138.527,90.056L139.446,90.056L139.905,90.056L140.379,90.056L140.821,90.056L141.28,90.056L142.197,90.056L142.656,90.056L143.125,90.056L143.574,90.056L144.032,90.056L144.95,90.056L145.409,90.056L145.877,90.056L146.326,90.056L146.785,90.056L147.702,90.056L148.161,90.056L148.637,90.056L149.079,90.056L149.537,90.056L150.455,50.056L150.914,50.056L151.388,50.056L151.831,50.056L152.29,50.056L153.208,50.056L153.666,50.056L154.141,50.056L154.583,50.056L155.043,50.056L155.96,50.056L156.419,50.056L156.892,50.056L157.336,50.056L157.795,50.056L158.712,50.056L159.173,50.056L159.643,50.056L160.089,50.056L160.548,50.056L161.464,50.056L161.924,50.056L162.391,50.056L162.841,50.056L163.3,50.056L164.218,50.056L164.676,50.056L165.145,50.056L165.594,50.056L166.052,50.056L166.97,50.056L167.429,50.056L167.902,50.056L168.347,50.056L168.805,50.056L169.723,50.056L170.181,50.056L170.655,50.056L171.099,50.056L171.557,50.056L172.475,50.056L172.934,50.056L173.407,50.056L173.851,50.056L174.31,50.056L175.228,40.056L175.686,40.056L176.16,40.056L176.604,40.056L179.356,40.056L179.815,40.056L180.732,40.056L181.66,40.056L182.108,40.056L193.118,40.056L193.577,40.056L194.495,40.056L194.953,40.056L195.427,40.056L195.871,40.056L196.33,40.056L197.247,70.056L197.706,70.056L198.18,70.056L198.624,70.056L199.082,70.056L200,70.056" stroke="#e45756" stroke-width="2"/></g></g><path class="foreground" aria-hidden="true" d="" display="none"/></g><g transform="translate(0,0)"><path class="background" aria-hidden="true" d="M0,0h200v200h-200Z"/><g><g class="mark-line role-mark child_marks" role="graphics-object" aria-roledescription="line mark container"><path aria-label="Time: Aug 30, 2023; Price: 8995; item: HIKING_BACKPACK_PONCHO_-_Veste_imperméable_-_blue" role="graphics-symbol" aria-roledescription="line mark" d="M0,100.056L0.447,100.056L0.903,100.056L1.821,100.056L2.279,100.056L2.753,100.056L3.197,100.056L3.655,100.056L4.574,100.056L5.032,100.056L5.505,100.056L5.949,100.056L6.408,100.056L7.326,100.056L7.784,100.056L8.252,100.056L8.701,100.056L9.16,100.056L10.078,100.056L10.866,100.056L11.006,100.056L32.556,100.056L33.032,100.056L33.474,100.056L33.932,100.056L34.85,100.056L35.308,100.056L35.783,100.056L36.226,100.056L36.685,100.056L37.603,100.056L38.062,100.056L38.537,100.056L38.779,100.056L38.979,100.056L39.438,100.056L40.355,100.056L40.814,100.056L41.289,100.056L41.732,100.056L42.19,100.056L43.107,100.056L43.566,100.056L44.04,100.056L44.483,100.056L44.942,100.056L45.86,100.056L46.319,100.056L46.785,100.056L47.236,100.056L47.694,100.056L48.612,100.056L49.071,100.056L80.266,111.167L81.642,111.167L82.101,111.167L82.575,111.167L83.019,111.167L83.477,111.167L84.395,111.167L84.853,111.167L85.322,111.167L85.771,111.167L86.229,111.167L87.148,111.167L87.606,111.167L88.076,111.167L88.524,111.167L88.983,111.167L89.9,111.167L90.359,111.167L90.834,111.167L91.276,111.167L91.735,111.167L92.653,127.833L93.112,127.833L93.588,127.833L94.029,127.833L94.487,127.833L95.404,127.833L95.864,127.833L96.342,127.833L96.782,127.833L97.24,127.833L98.157,127.833L98.616,127.833L99.095,127.833L99.534,127.833L99.993,127.833L100.91,127.833L101.369,127.833L101.845,127.833L102.286,127.833L102.746,127.833L103.662,127.833L104.122,127.833L104.59,127.833L105.038,127.833L105.498,127.833L106.415,127.833L106.873,127.833L107.792,127.833L108.25,127.833L109.167,127.833" stroke="#54a24b" stroke-width="2"/></g></g><path class="foreground" aria-hidden="true" d="" display="none"/></g><g transform="translate(0,0)"><path class="background" aria-hidden="true" d="M0,0h200v200h-200Z"/><g><g class="mark-line role-mark child_marks" role="graphics-object" aria-roledescription="line mark container"><path aria-label="Time: Aug 30, 2023; Price: 16195; item: DESCHUTES_VALLEY™_RAIN_PONCHO_-_Parka_-_vista_blue" role="graphics-symbol" aria-roledescription="line mark" d="M0,20.056L0.447,20.056L0.903,20.056L1.821,20.056L2.279,20.056L2.753,20.056L3.197,20.056L3.655,20.056L4.574,20.056L5.032,20.056L5.505,20.056L5.949,20.056L6.408,20.056L7.326,20.056L7.784,20.056L8.252,20.056L8.701,20.056L9.16,20.056L10.078,20.056L10.866,20.056L11.006,20.056L11.454,20.056L11.913,20.056L12.831,20.056L13.29,20.056L13.764,20.056L14.206,20.056L14.665,20.056L15.585,80.056L16.045,80.056L16.516,80.056L16.96,80.056L17.418,80.056L18.335,80.056L18.794,80.056L19.27,80.056L19.711,80.056L20.171,80.056L21.089,80.056L21.547,80.056L22.02,80.056L22.465,80.056L22.923,80.056L24.129,80.056L24.299,80.056L24.772,80.056L25.216,80.056L25.675,80.056L26.592,80.056L27.051,80.056L27.519,80.056L27.969,80.056L28.428,80.056L29.345,80.056L29.804,80.056L30.271,80.056L30.721,80.056L31.18,80.056L32.097,80.056L32.556,80.056L33.032,80.056L33.474,80.056L33.932,80.056L34.85,80.056L35.308,80.056L35.783,80.056L36.226,80.056L36.685,80.056L37.603,20.056L38.062,20.056L38.537,20.056L38.779,20.056L38.979,20.056L39.438,20.056L40.355,20.056L40.814,20.056L41.289,20.056L41.732,20.056L42.19,20.056L43.107,20.056L43.566,20.056L44.04,20.056L44.483,20.056L44.942,20.056L45.86,20.056L46.319,20.056L46.785,20.056L47.236,20.056L47.694,20.056L48.612,20.056L49.071,20.056L49.539,20.056L49.988,20.056L50.447,20.056L51.365,20.056L51.824,20.056L52.3,20.056L52.741,20.056L53.2,20.056L54.117,20.056L54.576,20.056L55.052,20.056L55.493,20.056L55.953,20.056L56.869,20.056L57.329,20.056L57.805,20.056L58.246,20.056L58.705,20.056L59.622,20.056L60.081,20.056L60.557,20.056L60.999,20.056L61.458,20.056L62.375,20.056L62.834,20.056L63.308,20.056L63.751,20.056L64.21,20.056L65.127,20.056L65.586,20.056L66.054,20.056L66.504,20.056L66.963,20.056L67.88,20.056L68.339,20.056L68.807,20.056L69.256,20.056L69.714,20.056L70.633,20.056L71.092,20.056L71.568,20.056L72.009,20.056L72.467,20.056L73.385,20.056L73.844,20.056L74.321,20.056L74.761,20.056L75.22,20.056L76.137,40.056L76.596,40.056L77.072,40.056L77.514,40.056L77.973,40.056L78.89,40.056L79.348,40.056L79.824,40.056L80.266,40.056L81.642,40.056L82.101,40.056L82.575,40.056L83.019,40.056L83.477,40.056L84.395,40.056L84.853,40.056L85.322,40.056L85.771,40.056L86.229,40.056L87.148,40.056L87.606,40.056L88.076,40.056L88.523,40.056L88.983,40.056L89.9,90.056L90.359,90.056L90.834,90.056L91.276,90.056L91.735,90.056L92.653,40.056L93.112,40.056L93.588,40.056L94.029,40.056L94.487,40.056L95.404,40.056L95.864,40.056L96.342,40.056L96.782,40.056L97.24,40.056L98.157,40.056L98.616,40.056L99.095,40.056L99.534,40.056L99.993,40.056L100.91,40.056L101.369,40.056L101.845,40.056L102.286,40.056L102.746,40.056L103.662,40.056L104.122,40.056L104.59,40.056L105.038,40.056L105.498,40.056L106.415,40.056L106.873,40.056L107.792,40.056L108.25,40.056L109.167,40.056L109.627,40.056L110.106,40.056L110.544,40.056L111.003,40.056L111.92,90.056L112.379,90.056L112.856,90.056L113.296,90.056L113.755,90.056L114.673,90.056L115.132,90.056L115.608,90.056L116.049,90.056L116.508,90.056L117.425,90.056L117.884,90.056L118.36,90.056L118.802,90.056L119.26,90.056L120.178,90.056L120.637,90.056L121.113,90.056L121.554,90.056L122.013,90.056L122.93,40.056L123.389,40.056L123.857,40.056L124.306,40.056L124.765,40.056L125.682,40.056L126.141,40.056L126.61,40.056L127.058,40.056L127.518,40.056L128.435,100.056L128.894,100.056L129.371,100.056L129.811,100.056L130.27,100.056L131.188,100.056L131.646,100.056L132.123,100.056L132.564,100.056L133.022,100.056L133.94,100.056L134.399,100.056L134.875,100.056L135.316,100.056L135.775,100.056L136.693,100.056L137.151,100.056L137.628,100.056L138.069,100.056L138.527,100.056L139.446,100.056L139.905,100.056L140.379,100.056L140.821,100.056L141.28,100.056L142.197,100.056L142.656,100.056L143.125,100.056L143.574,100.056L144.032,100.056L144.95,100.056L145.409,100.056L145.877,100.056L146.326,100.056L146.785,100.056L147.702,100.056L148.161,100.056L148.637,100.056L149.079,100.056L149.538,100.056L150.455,40.056L150.914,40.056L151.388,40.056L151.831,40.056L152.29,40.056L153.208,40.056L153.666,40.056L154.141,40.056L154.583,40.056L155.043,40.056L155.96,40.056L156.419,40.056L156.892,40.056L157.336,40.056L157.794,40.056L158.712,40.056L159.173,40.056L159.643,40.056L160.089,40.056L160.548,40.056L161.464,40.056L161.924,40.056L162.391,40.056L162.841,40.056L163.3,40.056L164.218,40.056L164.676,40.056L165.145,40.056L165.594,40.056L166.052,40.056L166.97,40.056L167.429,40.056L167.902,40.056L168.347,40.056L168.805,40.056L169.723,40.056L170.181,40.056L170.655,40.056L171.099,40.056L171.557,40.056L172.475,40.056L172.934,40.056L173.407,40.056L173.851,40.056L174.31,40.056L175.228,40.056L175.686,40.056L176.16,40.056L176.604,40.056L177.062,40.056L177.98,40.056L178.439,40.056L178.914,40.056L179.356,40.056L179.815,40.056L180.732,40.056L181.192,40.056L181.66,40.056L182.108,40.056L182.568,40.056L183.485,40.056L183.943,40.056L184.413,40.056L184.862,40.056L185.32,40.056L186.237,40.056L186.696,40.056L187.173,40.056L187.614,40.056L188.072,40.056L188.99,40.056L189.449,40.056L189.923,40.056L190.366,40.056L190.825,40.056L191.742,40.056L192.201,40.056L192.675,40.056L193.118,40.056L193.577,40.056L194.495,40.056L194.953,40.056L195.427,40.056L195.871,40.056L196.33,40.056L197.247,40.056L197.706,40.056L198.18,40.056L198.624,40.056L199.082,40.056L200,40.056" stroke="#f58518" stroke-width="2"/></g></g><path class="foreground" aria-hidden="true" d="" display="none"/></g><g transform="translate(0,0)"><path class="background" aria-hidden="true" d="M0,0h200v200h-200Z"/><g><g class="mark-line role-mark child_marks" role="graphics-object" aria-roledescription="line mark container"><path aria-label="Time: Aug 30, 2023; Price: 5495; item: COVERO_PONCHO_II_-_Cape_-_lightgrey" role="graphics-symbol" aria-roledescription="line mark" d="M0,138.944L0.447,138.944L0.903,138.944L1.821,138.944L2.279,138.944L2.754,138.944L3.197,138.944L3.655,138.944L4.574,138.944L5.032,138.944L7.784,138.944L8.252,138.944L8.701,138.944L9.16,138.944L10.078,138.944L10.866,138.944L11.006,138.944L11.454,138.944L11.913,138.944L12.831,138.944L13.29,138.944L13.764,138.944L14.206,138.944L14.665,138.944L15.585,138.944L16.045,138.944L16.516,138.944L16.96,138.944L17.418,138.944L25.216,153.944L29.804,138.944L30.271,138.944L30.721,138.944L31.18,138.944L32.097,138.944L32.556,138.944L33.032,138.944L33.474,138.944L33.932,138.944L34.85,138.944L35.308,138.944L35.783,138.944L36.226,138.944L36.685,138.944L37.603,138.944L38.062,138.944L38.537,138.944L38.779,138.944L38.979,138.944L39.438,138.944L40.355,138.944L40.814,138.944L41.289,138.944L41.732,138.944L42.19,138.944L43.107,138.944L43.566,138.944L44.04,138.944L44.483,138.944L44.942,138.944L45.86,138.944L46.319,138.944L46.785,138.944L47.236,138.944L47.694,138.944L48.612,138.944L49.071,138.944L49.539,138.944L49.988,138.944L50.448,138.944L51.365,138.944L51.824,138.944L52.3,138.944L52.741,138.944L53.2,138.944L54.117,138.944L54.576,138.944L55.052,138.944L55.493,138.944L55.953,138.944L56.869,151.167L57.329,151.167L57.805,151.167L58.246,151.167L58.705,151.167L59.622,151.167L60.081,151.167L60.557,151.167L60.999,151.167L61.458,151.167L62.375,151.167L62.834,151.167L63.308,151.167L65.586,151.167L66.054,151.167L66.504,151.167L66.963,151.167L67.88,151.167L68.339,151.167L68.807,151.167L69.256,151.167L69.714,151.167L70.633,151.167L71.092,151.167L71.568,151.167L72.009,151.167L72.467,151.167L73.385,151.167L73.844,151.167L74.321,151.167L74.761,151.167L75.22,151.167L76.137,151.167L76.596,151.167L77.072,151.167L77.514,151.167L77.973,151.167L78.89,151.167L79.348,151.167L79.824,151.167L80.266,151.167L81.642,151.167L82.101,151.167L82.575,151.167L83.019,151.167L83.477,151.167L84.395,151.167L84.853,151.167L85.322,151.167L85.771,151.167L86.229,151.167L87.148,151.167L87.606,151.167L88.076,151.167L88.524,151.167L88.983,151.167L89.9,151.167L90.359,151.167L90.834,151.167L91.276,151.167L91.735,151.167L92.653,151.167L93.112,151.167L93.588,151.167L94.029,151.167L94.487,151.167L95.404,151.167L95.864,151.167L96.342,151.167L96.782,151.167L97.24,151.167L98.157,151.167L98.616,151.167L99.095,151.167L99.534,151.167L99.993,151.167L100.91,151.167L101.369,151.167L101.845,151.167L102.287,151.167L102.746,151.167L104.122,151.167L104.59,151.167L106.415,151.167L106.873,151.167L107.792,151.167L108.25,151.167L110.544,151.167L111.003,151.167L111.92,151.167L112.379,151.167L112.856,151.167L113.755,151.167L114.673,138.944L115.132,138.944L115.608,138.944L116.049,138.944L116.508,138.944L121.554,138.944L124.306,153.944L130.271,153.944L131.188,153.944L132.564,153.944L133.941,153.944L135.316,153.944L135.775,153.944L137.151,153.944L140.821,153.944L141.28,153.944L142.197,153.944L145.877,153.944L146.326,153.944L146.785,153.944L147.702,153.944L149.079,153.944L149.538,153.944L150.455,153.944L150.914,153.944L151.388,153.944L152.29,153.944L153.666,153.944L154.141,153.944L154.583,153.944L155.96,153.944L156.419,153.944L157.336,153.944L160.089,153.944L160.548,153.944L161.465,153.944L162.391,153.944L162.841,153.944L163.3,153.944L164.676,153.944L165.145,153.944L165.594,153.944L166.97,153.944L167.429,153.944L167.902,153.944L168.347,153.944L168.805,153.944L169.723,153.944L170.181,153.944L170.655,153.944L171.099,153.944L171.557,153.944L172.475,153.944L175.686,153.944L176.16,153.944L176.604,153.944L177.062,153.944L178.439,153.944L178.914,153.944L179.356,153.944L179.815,153.944L180.732,145.611L181.192,145.611L190.825,145.611L191.742,145.611L192.201,145.611L192.675,145.611L193.118,145.611L193.577,145.611L194.953,145.611L195.427,145.611L195.871,145.611L196.33,145.611L197.247,145.611L198.18,145.611L199.082,145.611" stroke="#9d755d" stroke-width="2"/></g></g><path class="foreground" aria-hidden="true" d="" display="none"/></g><g transform="translate(0,0)"><path class="background" aria-hidden="true" d="M0,0h200v200h-200Z"/><g><g class="mark-line role-mark child_marks" role="graphics-object" aria-roledescription="line mark container"><path aria-label="Time: Sep 01, 2023; Price: 12995; item: KUURA_3L_PONCHO_UNISEX_-_Veste_imperméable_-_green" role="graphics-symbol" aria-roledescription="line mark" d="M6.408,55.611L7.326,55.611L7.784,55.611L8.252,55.611L13.29,55.611L13.764,55.611L14.206,55.611L14.665,55.611L15.585,11.167L16.045,11.167L16.516,11.167L16.96,11.167L17.418,11.167L18.335,11.167L18.794,11.167L19.27,11.167L19.711,11.167L20.171,11.167L21.089,11.167L21.547,11.167L22.02,11.167L22.465,11.167L22.923,11.167L24.129,11.167L24.299,11.167L24.772,11.167L25.216,11.167L25.675,11.167L26.592,11.167L27.051,11.167L27.519,11.167L27.969,11.167L28.428,11.167L29.345,11.167L29.804,11.167L30.271,11.167L30.721,11.167L31.18,11.167L32.097,11.167L32.556,11.167L33.032,11.167L33.474,11.167L34.85,11.167L35.308,11.167L35.783,11.167L36.226,11.167L36.685,11.167L46.785,22.278L47.236,22.278L47.694,22.278L48.612,22.278L49.071,22.278L49.539,22.278L49.988,22.278L50.448,22.278L51.365,22.278L51.824,22.278L52.3,22.278L54.576,22.278L55.052,22.278L55.493,22.278L55.953,22.278L56.869,22.278L57.329,22.278L94.029,22.278L94.487,22.278L95.404,22.278L95.864,22.278L96.342,22.278L96.782,22.278L97.24,22.278L98.157,22.278L98.616,22.278L99.095,22.278L99.534,22.278L99.993,22.278L100.91,22.278L101.369,22.278L101.845,22.278L102.286,22.278L102.746,22.278L103.662,22.278L104.122,22.278L104.59,22.278L105.038,22.278L105.498,22.278L147.702,22.278L148.161,22.278L148.637,22.278L149.079,22.278L149.538,22.278L150.455,22.278L150.914,22.278L151.388,22.278L151.831,22.278" stroke="#4c78a8" stroke-width="2"/></g></g><path class="foreground" aria-hidden="true" d="" display="none"/></g><g transform="translate(0,0)"><path class="background" aria-hidden="true" d="M0,0h200v200h-200Z"/><g><g class="mark-line role-mark child_marks" role="graphics-object" aria-roledescription="line mark container"><path aria-label="Time: Sep 14, 2023; Price: 6495; item: PARIS_ST._GERMAIN_CITY_MADE_PONCHO_-_Veste_de_survêtement_-_aura_white" role="graphics-symbol" aria-roledescription="line mark" d="M40.355,127.833L40.814,127.833L41.289,127.833L41.732,127.833L42.19,127.833L43.107,127.833L43.566,127.833L45.86,127.833L49.071,127.833L49.539,127.833L49.988,127.833L50.448,127.833L51.365,127.833L51.824,127.833L52.3,127.833L52.741,127.833L53.2,127.833L54.117,127.833L54.576,127.833L55.052,127.833L55.493,127.833L55.953,127.833L56.869,127.833L57.329,127.833L57.805,127.833L58.246,127.833L58.705,127.833L59.622,127.833L60.081,127.833L60.557,127.833L60.999,127.833L61.458,127.833L62.375,127.833L62.834,127.833L63.308,127.833L63.751,127.833L64.21,127.833L65.127,127.833L65.586,127.833L66.054,127.833L66.504,127.833L66.963,127.833L67.88,127.833L68.339,127.833L68.807,127.833L69.256,127.833L69.714,127.833L70.633,127.833L71.092,127.833L71.568,127.833L72.009,127.833L72.467,127.833L73.385,127.833L73.844,127.833L74.321,127.833" stroke="#b279a2" stroke-width="2"/></g></g><path class="foreground" aria-hidden="true" d="" display="none"/></g><g transform="translate(0,0)"><path class="background" aria-hidden="true" d="M0,0h200v200h-200Z"/><g><g class="mark-line role-mark child_marks" role="graphics-object" aria-roledescription="line mark container"><path aria-label="Time: Sep 18, 2023; Price: 8995; item: HIKING_BACKPACK_PONCHO_-_Veste_imperméable_-_indian_red" role="graphics-symbol" aria-roledescription="line mark" d="M51.365,100.056L51.824,100.056L52.3,100.056L52.741,100.056L53.2,100.056L54.117,100.056L54.576,100.056L72.009,100.056L72.467,100.056L73.385,100.056L73.844,100.056L74.321,100.056L74.761,100.056L75.22,100.056L76.137,111.167L76.596,111.167L77.072,111.167L77.514,111.167L121.113,111.167L121.554,111.167L122.013,111.167L122.93,111.167L123.389,111.167L123.857,111.167L124.306,111.167L124.765,111.167L125.682,111.167" stroke="#eeca3b" stroke-width="2"/></g></g><path class="foreground" aria-hidden="true" d="" display="none"/></g><g transform="translate(0,0)"><path class="background" aria-hidden="true" d="M0,0h200v200h-200Z"/><g><g class="mark-line role-mark child_marks" role="graphics-object" aria-roledescription="line mark container"><path aria-label="Time: Sep 26, 2023; Price: 6495; item: PSG_M_NSW_CITY_MADE_PONCHO_-_Veste_de_survêtement_-_aura_white" role="graphics-symbol" aria-roledescription="line mark" d="M74.761,127.833L75.22,127.833L76.137,91.167L76.596,91.167L77.072,91.167L77.514,91.167L77.973,91.167L78.89,91.167L79.348,91.167L79.824,91.167L80.266,91.167L81.642,91.167L82.101,91.167L82.575,91.167L83.019,91.167L83.477,91.167L84.395,91.167L84.853,91.167L85.322,91.167L85.771,91.167L86.229,91.167L87.148,91.167L87.606,91.167L88.076,91.167L88.524,91.167L88.983,91.167L89.9,127.833L90.359,127.833L90.834,127.833L91.276,127.833L91.735,127.833L92.653,127.833L93.112,127.833L93.588,127.833L94.029,127.833L94.487,127.833L95.404,127.833L95.864,127.833L96.342,127.833L96.782,127.833L97.24,127.833L98.157,127.833L98.616,127.833L99.095,127.833L99.534,127.833L99.993,127.833L100.91,127.833L101.369,127.833L101.845,127.833L102.286,127.833L102.746,127.833L103.662,127.833L104.122,127.833L104.59,127.833L105.038,127.833L105.498,127.833L106.415,127.833L106.873,127.833L107.792,127.833L108.25,127.833L109.168,127.833L109.627,127.833L110.106,127.833L110.544,127.833L111.003,127.833L111.92,84.5L112.379,84.5L112.856,84.5L113.755,84.5L114.673,84.5L115.132,84.5L115.608,84.5L116.049,84.5L116.508,84.5L117.425,84.5L117.884,84.5L120.178,84.5L121.554,84.5L124.306,127.833L125.683,127.833L128.894,127.833L129.371,127.833L146.785,127.833L147.702,127.833L148.161,127.833L148.637,127.833L150.914,127.833L151.388,127.833L154.583,127.833L155.043,127.833L156.892,127.833L157.795,127.833L158.712,127.833L159.643,127.833L161.924,127.833L163.3,127.833L164.218,127.833L164.676,127.833L165.145,127.833L166.052,127.833L167.429,127.833L168.805,127.833L169.723,127.833L170.181,127.833L170.655,127.833L171.099,127.833L171.557,127.833L172.475,127.833L172.934,127.833L173.407,127.833L173.851,127.833L174.31,127.833L175.228,127.833L175.686,127.833L176.16,127.833L176.604,127.833L177.062,127.833L177.98,127.833L178.439,127.833L178.914,127.833L179.356,127.833L179.815,127.833L180.732,127.833L181.192,127.833L181.66,127.833L182.108,127.833L182.568,127.833L183.485,127.833L183.943,127.833L184.413,127.833L184.862,127.833L185.32,127.833L186.237,127.833L186.696,127.833L187.173,127.833L187.614,127.833L188.072,127.833L188.99,127.833L189.449,127.833L189.923,127.833L190.366,127.833L190.825,127.833L191.742,127.833L192.675,127.833L193.118,127.833L193.577,127.833L195.427,127.833L195.871,127.833L197.247,84.5L198.18,84.5L199.082,84.5" stroke="#ff9da6" stroke-width="2"/></g></g><path class="foreground" aria-hidden="true" d="" display="none"/></g><g transform="translate(0,0)"><path class="background" aria-hidden="true" d="M0,0h200v200h-200Z"/><g><g class="mark-line role-mark child_marks" role="graphics-object" aria-roledescription="line mark container"><path aria-label="Time: Oct 12, 2023; Price: 4995; item: SHOWERPROOF_PONCHO_UNISEX_-_Cape_-_classic_tartan" role="graphics-symbol" aria-roledescription="line mark" d="M117.425,144.5L117.884,144.5L118.36,144.5L118.802,144.5L119.26,144.5L120.178,144.5L120.637,144.5L121.113,144.5L121.554,144.5L122.013,144.5L122.93,144.5L123.389,144.5L123.857,144.5L124.306,144.5L124.765,144.5L125.683,144.5L126.141,144.5L126.61,144.5L127.058,144.5L127.518,144.5L128.435,152.611L128.894,152.611L129.371,152.611L129.811,152.611L130.271,152.611L131.188,152.611L131.646,152.611L132.123,152.611L132.564,152.611L133.022,152.611L133.941,152.611L134.399,152.611L134.875,152.611L135.316,152.611L135.775,152.611L136.693,152.611L137.151,152.611L137.628,152.611L138.069,152.611L138.527,152.611L139.446,152.611L139.905,152.611L140.379,152.611L140.821,152.611L141.28,152.611L142.197,152.611L142.656,152.611L143.125,152.611L143.574,152.611L144.032,152.611L144.95,144.5L145.409,144.5L145.877,144.5L146.326,144.5L146.785,144.5L147.702,144.5L148.161,144.5L148.637,144.5L149.079,144.5L149.538,144.5L150.455,152.611L150.914,152.611L151.388,152.611L151.831,152.611L152.29,152.611L153.208,152.611L153.666,152.611L154.141,152.611L154.583,152.611L155.043,152.611L155.96,152.611L156.419,152.611L156.892,152.611L157.336,152.611L157.795,152.611L158.712,152.611L159.173,152.611L159.643,152.611L160.089,152.611L160.548,152.611L161.464,152.611L161.924,152.611L162.391,152.611L162.841,152.611L163.3,152.611L164.218,152.611L164.676,152.611L165.145,152.611L165.594,152.611L166.052,152.611L166.97,144.5L167.429,144.5L167.902,144.5L168.347,144.5L168.805,144.5L169.723,144.5L170.181,144.5L170.655,144.5L171.099,144.5L171.557,144.5L172.475,152.611L172.934,152.611L173.407,152.611L173.851,152.611L174.31,152.611L175.228,152.611L175.686,152.611L176.16,152.611L176.604,152.611L177.062,152.611L177.98,152.611L178.439,152.611L178.914,152.611L179.356,152.611L179.815,152.611L180.732,152.611L181.192,152.611L181.66,152.611L182.108,152.611L182.568,152.611L183.485,152.611L183.943,152.611L184.413,152.611L184.862,152.611L185.32,152.611L186.237,152.611L186.696,152.611L187.173,152.611L187.614,152.611L188.072,152.611L188.99,150.056L189.449,144.5L189.923,144.5L190.366,144.5L190.825,144.5L191.742,144.5L192.201,144.5L192.675,144.5L193.118,144.5L193.577,144.5L194.495,144.5L194.953,144.5L195.427,144.5L195.871,144.5L196.33,144.5L197.247,144.5L197.706,144.5L198.18,144.5L198.624,144.5L199.082,144.5L200,144.5" stroke="#bab0ac" stroke-width="2"/></g></g><path class="foreground" aria-hidden="true" d="" display="none"/></g><g transform="translate(0,0)"><path class="background" aria-hidden="true" d="M0,0h200v200h-200Z"/><g><g class="mark-line role-mark child_marks" role="graphics-object" aria-roledescription="line mark container"><path aria-label="Time: Oct 12, 2023; Price: 13995; item: PONCHO_-_Cape_-_lucid_blue" role="graphics-symbol" aria-roledescription="line mark" d="M117.425,44.5L120.637,44.5L121.554,44.5L122.93,91.167L124.306,91.167L126.141,91.167L126.61,91.167L127.058,91.167L127.518,91.167L128.435,91.167L128.894,91.167L129.371,91.167L129.811,91.167L130.271,91.167L131.188,91.167L131.646,91.167L132.123,91.167L132.564,91.167L133.022,91.167L133.941,91.167L134.399,91.167L134.875,91.167L135.316,91.167L135.775,91.167L136.693,91.167L137.151,91.167L137.628,91.167L138.527,91.167L140.821,91.167L141.28,91.167L142.197,91.167L143.574,91.167L144.95,91.167L145.409,91.167L145.877,91.167L146.326,91.167L146.785,91.167L149.08,91.167L150.455,114.5L150.914,114.5L152.29,114.5L153.666,114.5L154.141,114.5L154.583,114.5L155.96,114.5L158.712,114.5L159.173,114.5L159.643,114.5L160.089,114.5L160.548,114.5L161.465,114.5L161.924,114.5L162.391,114.5L162.841,114.5L163.3,114.5L164.218,114.5L164.676,114.5L165.145,114.5L165.594,114.5L166.052,114.5L166.97,114.5L167.429,114.5L167.902,114.5L168.347,114.5L168.805,114.5L169.723,114.5L170.181,114.5L170.655,114.5L171.099,114.5L171.557,114.5L172.475,114.5L172.934,114.5L173.407,114.5L173.851,114.5L174.31,114.5L175.228,83.389L175.686,83.389L177.062,83.389L177.98,83.389L180.732,83.389L181.192,83.389L182.108,83.389L182.568,83.389L183.485,83.389L183.943,83.389L184.413,83.389L184.862,83.389L185.32,83.389L186.237,83.389L186.696,83.389L188.072,83.389L188.99,44.5L189.449,44.5L189.923,44.5L190.366,44.5L190.825,44.5L191.742,44.5L192.201,44.5L192.675,44.5L193.118,44.5L193.577,44.5L194.495,44.5L194.953,44.5L195.427,44.5L195.871,44.5L196.33,44.5L197.247,122.278L198.18,122.278L199.082,122.278" stroke="#72b7b2" stroke-width="2"/></g></g><path class="foreground" aria-hidden="true" d="" display="none"/></g></g><g class="mark-group role-legend" role="graphics-symbol" aria-roledescription="legend" aria-label="Symbol legend titled 'item' for stroke color with 10 values: KUURA_3L_PONCHO_UNISEX_-_Veste_imperméable_-_green, DESCHUTES_VALLEY™_RAIN_PONCHO_-_Parka_-_vista_blue, DESCHUTES_VALLEY™_RAIN_PONCHO_-_Parka_-_black, PONCHO_-_Cape_-_lucid_blue, HIKING_BACKPACK_PONCHO_-_Veste_imperméable_-_blue, ending with SHOWERPROOF_PONCHO_UNISEX_-_Cape_-_classic_tartan"><g transform="translate(220,0)"><path class="background" aria-hidden="true" d="M0,0h328v144h-328Z" pointer-events="none"/><g><g class="mark-group role-legend-entry"><g transform="translate(0,16)"><path class="background" aria-hidden="true" d="M0,0h0v0h0Z" pointer-events="none"/><g><g class="mark-group role-scope" role="graphics-object" aria-roledescription="group mark container"><g transform="translate(0,0)"><path class="background" aria-hidden="true" d="M0,0h328v11h-328Z" pointer-events="none" opacity="1"/><g><g class="mark-symbol role-legend-symbol" pointer-events="none"><path transform="translate(6,6)" d="M-5,0L5,0" stroke="#4c78a8" stroke-width="1.5" opacity="1"/></g><g class="mark-text role-legend-label" pointer-events="none"><text text-anchor="start" transform="translate(16,9)" font-family="Liberation Mono" font-size="10px" fill="#000" opacity="1">KUURA_3L_PONCHO_UNISEX_-_Veste_impermé…</text></g></g><path class="foreground" aria-hidden="true" d="" pointer-events="none" display="none"/></g><g transform="translate(0,13)"><path class="background" aria-hidden="true" d="M0,0h328v11h-328Z" pointer-events="none" opacity="1"/><g><g class="mark-symbol role-legend-symbol" pointer-events="none"><path transform="translate(6,6)" d="M-5,0L5,0" stroke="#f58518" stroke-width="1.5" opacity="1"/></g><g class="mark-text role-legend-label" pointer-events="none"><text text-anchor="start" transform="translate(16,9)" font-family="Liberation Mono" font-size="10px" fill="#000" opacity="1">DESCHUTES_VALLEY™_RAIN_PONCHO_-_Parka_…</text></g></g><path class="foreground" aria-hidden="true" d="" pointer-events="none" display="none"/></g><g transform="translate(0,26)"><path class="background" aria-hidden="true" d="M0,0h328v11h-328Z" pointer-events="none" opacity="1"/><g><g class="mark-symbol role-legend-symbol" pointer-events="none"><path transform="translate(6,6)" d="M-5,0L5,0" stroke="#e45756" stroke-width="1.5" opacity="1"/></g><g class="mark-text role-legend-label" pointer-events="none"><text text-anchor="start" transform="translate(16,9)" font-family="Liberation Mono" font-size="10px" fill="#000" opacity="1">DESCHUTES_VALLEY™_RAIN_PONCHO_-_Parka_…</text></g></g><path class="foreground" aria-hidden="true" d="" pointer-events="none" display="none"/></g><g transform="translate(0,39)"><path class="background" aria-hidden="true" d="M0,0h328v11h-328Z" pointer-events="none" opacity="1"/><g><g class="mark-symbol role-legend-symbol" pointer-events="none"><path transform="translate(6,6)" d="M-5,0L5,0" stroke="#72b7b2" stroke-width="1.5" opacity="1"/></g><g class="mark-text role-legend-label" pointer-events="none"><text text-anchor="start" transform="translate(16,9)" font-family="Liberation Mono" font-size="10px" fill="#000" opacity="1">PONCHO_-_Cape_-_lucid_blue</text></g></g><path class="foreground" aria-hidden="true" d="" pointer-events="none" display="none"/></g><g transform="translate(0,52)"><path class="background" aria-hidden="true" d="M0,0h328v11h-328Z" pointer-events="none" opacity="1"/><g><g class="mark-symbol role-legend-symbol" pointer-events="none"><path transform="translate(6,6)" d="M-5,0L5,0" stroke="#54a24b" stroke-width="1.5" opacity="1"/></g><g class="mark-text role-legend-label" pointer-events="none"><text text-anchor="start" transform="translate(16,9)" font-family="Liberation Mono" font-size="10px" fill="#000" opacity="1">HIKING_BACKPACK_PONCHO_-_Veste_impermé…</text></g></g><path class="foreground" aria-hidden="true" d="" pointer-events="none" display="none"/></g><g transform="translate(0,65)"><path class="background" aria-hidden="true" d="M0,0h328v11h-328Z" pointer-events="none" opacity="1"/><g><g class="mark-symbol role-legend-symbol" pointer-events="none"><path transform="translate(6,6)" d="M-5,0L5,0" stroke="#eeca3b" stroke-width="1.5" opacity="1"/></g><g class="mark-text role-legend-label" pointer-events="none"><text text-anchor="start" transform="translate(16,9)" font-family="Liberation Mono" font-size="10px" fill="#000" opacity="1">HIKING_BACKPACK_PONCHO_-_Veste_impermé…</text></g></g><path class="foreground" aria-hidden="true" d="" pointer-events="none" display="none"/></g><g transform="translate(0,78)"><path class="background" aria-hidden="true" d="M0,0h328v11h-328Z" pointer-events="none" opacity="1"/><g><g class="mark-symbol role-legend-symbol" pointer-events="none"><path transform="translate(6,6)" d="M-5,0L5,0" stroke="#b279a2" stroke-width="1.5" opacity="1"/></g><g class="mark-text role-legend-label" pointer-events="none"><text text-anchor="start" transform="translate(16,9)" font-family="Liberation Mono" font-size="10px" fill="#000" opacity="1">PARIS_ST._GERMAIN_CITY_MADE_PONCHO_-_V…</text></g></g><path class="foreground" aria-hidden="true" d="" pointer-events="none" display="none"/></g><g transform="translate(0,91)"><path class="background" aria-hidden="true" d="M0,0h328v11h-328Z" pointer-events="none" opacity="1"/><g><g class="mark-symbol role-legend-symbol" pointer-events="none"><path transform="translate(6,6)" d="M-5,0L5,0" stroke="#ff9da6" stroke-width="1.5" opacity="1"/></g><g class="mark-text role-legend-label" pointer-events="none"><text text-anchor="start" transform="translate(16,9)" font-family="Liberation Mono" font-size="10px" fill="#000" opacity="1">PSG_M_NSW_CITY_MADE_PONCHO_-_Veste_de_…</text></g></g><path class="foreground" aria-hidden="true" d="" pointer-events="none" display="none"/></g><g transform="translate(0,104)"><path class="background" aria-hidden="true" d="M0,0h328v11h-328Z" pointer-events="none" opacity="1"/><g><g class="mark-symbol role-legend-symbol" pointer-events="none"><path transform="translate(6,6)" d="M-5,0L5,0" stroke="#9d755d" stroke-width="1.5" opacity="1"/></g><g class="mark-text role-legend-label" pointer-events="none"><text text-anchor="start" transform="translate(16,9)" font-family="Liberation Mono" font-size="10px" fill="#000" opacity="1">COVERO_PONCHO_II_-_Cape_-_lightgrey</text></g></g><path class="foreground" aria-hidden="true" d="" pointer-events="none" display="none"/></g><g transform="translate(0,117)"><path class="background" aria-hidden="true" d="M0,0h328v11h-328Z" pointer-events="none" opacity="1"/><g><g class="mark-symbol role-legend-symbol" pointer-events="none"><path transform="translate(6,6)" d="M-5,0L5,0" stroke="#bab0ac" stroke-width="1.5" opacity="1"/></g><g class="mark-text role-legend-label" pointer-events="none"><text text-anchor="start" transform="translate(16,9)" font-family="Liberation Mono" font-size="10px" fill="#000" opacity="1">SHOWERPROOF_PONCHO_UNISEX_-_Cape_-_cla…</text></g></g><path class="foreground" aria-hidden="true" d="" pointer-events="none" display="none"/></g></g></g><path class="foreground" aria-hidden="true" d="" pointer-events="none" display="none"/></g></g><g class="mark-text role-legend-title" pointer-events="none"><text text-anchor="start" transform="translate(0,9)" font-family="Liberation Mono" font-size="11px" font-weight="bold" fill="#000" opacity="1">item</text></g></g><path class="foreground" aria-hidden="true" d="" pointer-events="none" display="none"/></g></g></g><path class="foreground" aria-hidden="true" d="" display="none"/></g></g></g><path class="foreground" aria-hidden="true" d="" display="none"/></g></g></g></svg>