<svg xmlns="http://www.w3.org/2000/svg" xmlns:xlink="http://www.w3.org/1999/xlink" version="1.1" class="marks" width="658" height="244" viewBox="0 0 658 244"><rect width="658" height="244" fill="white"/><g fill="none" stroke-miterlimit="10" transform="translate(104,6)"><g class="mark-group role-frame root" role="graphics-object" aria-roledescription="group mark container"><g transform="translate(0,0)"><path class="background" aria-hidden="true" d="M0,0h0v0h0Z"/><g><g class="mark-group role-row-title row-title" role="graphics-object" aria-roledescription="group mark container"><g transform="translate(-78,116)"><path class="background" aria-hidden="true" d="M0,0h0v0h0Z"/><g><g class="mark-group role-title"><g transform="translate(-21.000000000000004,0)"><path class="background" aria-hidden="true" d="M0,0h0v0h0Z" pointer-events="none"/><g><g class="mark-text role-title-text" role="graphics-symbol" aria-roledescription="title" aria-label="Title text 'group'" pointer-events="none"><text text-anchor="middle" transform="translate(0,0) rotate(-90) translate(0,9)" font-family="Liberation Mono" font-size="11px" font-weight="bold" fill="#000" opacity="1">group</text></g></g><path class="foreground" aria-hidden="true" d="" pointer-events="none" display="none"/></g></g></g><path class="foreground" aria-hidden="true" d="" display="none"/></g></g><g class="mark-group role-row-header row_header" role="graphics-object" aria-roledescription="group mark container"><g transform="translate(-47,0)"><path class="background" aria-hidden="true" d="M0,0h0v200h0Z"/><g><g class="mark-group role-title"><g transform="translate(-20.000000000000007,100)"><path class="background" aria-hidden="true" d="M0,0h0v0h0Z" pointer-events="none"/><g><g class="mark-text role-title-text" role="graphics-symbol" aria-roledescription="title" aria-label="Title text 'zalando-poncho'" pointer-events="none"><text text-anchor="middle" transform="translate(0,0) rotate(-90) translate(0,8)" font-family="Liberation Mono" font-size="10px" fill="#000" opacity="1">zalando-poncho</text></g></g><path class="foreground" aria-hidden="true" d="" pointer-events="none" display="none"/></g></g></g><path class="foreground" aria-hidden="true" d="" display="none"/></g></g><g class="mark-group role-scope cell" role="graphics-object" aria-roledescription="group mark container"><g transform="translate(0,0)"><path class="background" aria-hidden="true" d="M0.5,0.5h200v200h-200Z" stroke="#ddd"/><g><g class="mark-group role-axis" aria-hidden="true"><g transform="translate(0.5,200.5)"><path class="background" aria-hidden="true" d="M0,0h0v0h0Z" pointer-events="none"/><g><g class="mark-rule role-axis-grid" pointer-events="none"><line transform="translate(5,-200)" x2="0" y2="200" stroke="#ddd" stroke-width="1" opacity="1"/><line transform="translate(17,-200)" x2="0" y2="200" stroke="#ddd" stroke-width="1" opacity="1"/><line transform="translate(40,-200)" x2="0" y2="200" stroke="#ddd" stroke-width="1" opacity="1"/><line transform="translate(63,-200)" x2="0" y2="200" stroke="#ddd" stroke-width="1" opacity="1"/><line transform="translate(86,-200)" x2="0" y2="200" stroke="#ddd" stroke-width="1" opacity="1"/><line transform="translate(109,-200)" x2="0" y2="200" stroke="#ddd" stroke-width="1" opacity="1"/><line transform="translate(132,-200)" x2="0" y2="200" stroke="#ddd" stroke-width="1" opacity="1"/><line transform="translate(155,-200)" x2="0" y2="200" stroke="#ddd" stroke-width="1" opacity="1"/><line transform="translate(178,-200)" x2="0" y2="200" stroke="#ddd" stroke-width="1" opacity="1"/></g></g><path class="foreground" aria-hidden="true" d="" pointer-events="none" display="none"/></g></g><g class="mark-group role-axis" aria-hidden="true"><g transform="translate(0.5,0.5)"><path class="background" aria-hidden="true" d="M0,0h0v0h0Z" pointer-events="none"/><g><g class="mark-rule role-axis-grid" pointer-events="none"><line transform="translate(0,200)" x2="200" y2="0" stroke="#ddd" stroke-width="1" opacity="1"/><line transform="translate(0,144)" x2="200" y2="0" stroke="#ddd" stroke-width="1" opacity="1"/><line transform="translate(0,89)" x2="200" y2="0" stroke="#ddd" stroke-width="1" opacity="1"/><line transform="translate(0,33)" x2="200" y2="0" stroke="#ddd" stroke-width="1" opacity="1"/></g></g><path class="foreground" aria-hidden="true" d="" pointer-events="none" display="none"/></g></g><g class="mark-group role-axis" role="graphics-symbol" aria-roledescription="axis" aria-label="X-axis titled 'Time' for a time scale with values from Wednesday, 30 August 2023, 12:58:24 PM to Saturday, 16 September 2023, 8:50:11 PM"><g transform="translate(0.5,200.5)"><path class="background" aria-hidden="true" d="M0,0h0v0h0Z" pointer-events="none"/><g><g class="mark-rule role-axis-tick" pointer-events="none"><line transform="translate(5,0)" x2="0" y2="5" stroke="#888" stroke-width="1" opacity="1"/><line transform="translate(17,0)" x2="0" y2="5" stroke="#888" stroke-width="1" opacity="1"/><line transform="translate(40,0)" x2="0" y2="5" stroke="#888" stroke-width="1" opacity="1"/><line transform="translate(63,0)" x2="0" y2="5" stroke="#888" stroke-width="1" opacity="1"/><line transform="translate(86,0)" x2="0" y2="5" stroke="#888" stroke-width="1" opacity="1"/><line transform="translate(109,0)" x2="0" y2="5" stroke="#888" stroke-width="1" opacity="1"/><line transform="translate(132,0)" x2="0" y2="5" stroke="#888" stroke-width="1" opacity="1"/><line transform="translate(155,0)" x2="0" y2="5" stroke="#888" stroke-width="1" opacity="1"/><line transform="translate(178,0)" x2="0" y2="5" stroke="#888" stroke-width="1" opacity="1"/></g><g class="mark-text role-axis-label" pointer-events="none"><text text-anchor="middle" transform="translate(5.3030210908232185,15)" font-family="Liberation Mono" font-size="10px" fill="#000" opacity="1">Thu 31</text><text text-anchor="middle" transform="translate(16.845276444379916,15)" font-family="Liberation Mono" font-size="10px" fill="#000" opacity="0">September</text><text text-anchor="middle" transform="translate(39.929787151493315,15)" font-family="Liberation Mono" font-size="10px" fill="#000" opacity="0">Sep 03</text><text text-anchor="middle" transform="translate(63.01429785860672,15)" font-family="Liberation Mono" font-size="10px" fill="#000" opacity="0">Tue 05</text><text text-anchor="middle" transform="translate(86.0988085657201,15)" font-family="Liberation Mono" font-size="10px" fill="#000" opacity="1">Thu 07</text><text text-anchor="middle" transform="translate(109.18331927283351,15)" font-family="Liberation Mono" font-size="10px" fill="#000" opacity="0">Sat 09</text><text text-anchor="middle" transform="translate(132.2678299799469,15)" font-family="Liberation Mono" font-size="10px" fill="#000" opacity="0">Mon 11</text><text text-anchor="middle" transform="translate(155.3523406870603,15)" font-family="Liberation Mono" font-size="10px" fill="#000" opacity="0">Wed 13</text><text text-anchor="middle" transform="translate(178.4368513941737,15)" font-family="Liberation Mono" font-size="10px" fill="#000" opacity="1">Fri 15</text></g><g class="mark-rule role-axis-domain" pointer-events="none"><line transform="translate(0,0)" x2="200" y2="0" stroke="#888" stroke-width="1" opacity="1"/></g><g class="mark-text role-axis-title" pointer-events="none"><text text-anchor="middle" transform="translate(100,30)" font-family="Liberation Mono" font-size="11px" font-weight="bold" fill="#000" opacity="1">Time</text></g></g><path class="foreground" aria-hidden="true" d="" pointer-events="none" display="none"/></g></g><g class="mark-group role-axis" role="graphics-symbol" aria-roledescription="axis" aria-label="Y-axis titled 'Price' for a linear scale with values from 0 to 18,000"><g transform="translate(0.5,0.5)"><path class="background" aria-hidden="true" d="M0,0h0v0h0Z" pointer-events="none"/><g><g class="mark-rule role-axis-tick" pointer-events="none"><line transform="translate(0,200)" x2="-5" y2="0" stroke="#888" stroke-width="1" opacity="1"/><line transform="translate(0,144)" x2="-5" y2="0" stroke="#888" stroke-width="1" opacity="1"/><line transform="translate(0,89)" x2="-5" y2="0" stroke="#888" stroke-width="1" opacity="1"/><line transform="translate(0,33)" x2="-5" y2="0" stroke="#888" stroke-width="1" opacity="1"/></g><g class="mark-text role-axis-label" pointer-events="none"><text text-anchor="end" transform="translate(-7,203)" font-family="Liberation Mono" font-size="10px" fill="#000" opacity="1">0</text><text text-anchor="end" transform="translate(-7,147.44444444444443)" font-family="Liberation Mono" font-size="10px" fill="#000" opacity="1">50</text><text text-anchor="end" transform="translate(-7,91.88888888888889)" font-family="Liberation Mono" font-size="10px" fill="#000" opacity="1">100</text><text text-anchor="end" transform="translate(-7,36.33333333333333)" font-family="Liberation Mono" font-size="10px" fill="#000" opacity="1">150</text></g><g class="mark-rule role-axis-domain" pointer-events="none"><line transform="translate(0,200)" x2="0" y2="-200" stroke="#888" stroke-width="1" opacity="1"/></g><g class="mark-text role-axis-title" pointer-events="none"><text text-anchor="middle" transform="translate(-35,100) rotate(-90) translate(0,-2)" font-family="Liberation Mono" font-size="11px" font-weight="bold" fill="#000" opacity="1">Price</text></g></g><path class="foreground" aria-hidden="true" d="" pointer-events="none" display="none"/></g></g><g class="mark-group role-scope child_pathgroup" role="graphics-object" aria-roledescription="group mark container"><g transform="translate(0,0)"><path class="background" aria-hidden="true" d="M0,0h200v200h-200Z"/><g><g class="mark-line role-mark child_marks" role="graphics-object" aria-roledescription="line mark container"><path aria-label="Time: Aug 30, 2023; Price: 10795; item: DESCHUTES_VALLEY™_RAIN_PONCHO_-_Parka_-_black" role="graphics-symbol" aria-roledescription="line mark" d="M0,80.056L1.874,80.056L3.788,80.056L7.635,80.056L9.557,80.056L11.546,80.056L13.405,80.056L15.326,80.056L19.181,80.056L21.099,80.056L23.084,80.056L24.946,80.056L26.87,80.056L30.719,80.056L32.641,80.056L34.603,80.056L36.486,80.056L38.413,80.056L42.261,80.056L45.566,80.056L46.15,80.056L48.031,80.056L49.956,80.056L53.803,80.056L55.731,80.056L57.718,80.056L59.572,80.056L61.495,80.056L65.355,50.056L67.28,50.056L69.257,50.056L71.119,50.056L73.038,50.056L76.887,50.056L78.81,50.056L80.805,50.056L82.657,50.056L84.582,50.056L88.434,50.056L90.356,50.056L92.339,50.056L94.202,50.056L96.125,50.056L101.183,50.056L101.894,50.056L103.876,50.056L105.74,50.056L107.666,50.056L111.509,50.056L113.436,50.056L115.397,50.056L117.283,50.056L119.208,50.056L123.056,50.056L124.978,50.056L126.939,50.056L128.824,50.056L130.748,50.056L134.595,50.056L136.519,50.056L138.516,50.056L140.367,50.056L142.29,50.056L146.14,50.056L148.061,50.056L150.051,50.056L151.909,50.056L153.835,50.056L157.682,20.056L159.606,20.056L161.599,20.056L162.615,20.056L163.453,20.056L165.377,20.056L169.223,20.056L171.146,20.056L173.141,20.056L174.997,20.056L176.918,20.056L180.764,20.056L182.689,20.056L184.675,20.056L186.535,20.056L188.459,20.056L192.307,20.056L194.232,20.056L196.189,20.056L198.079,20.056L200,20.056" stroke="#e45756" stroke-width="2"/></g></g><path class="foreground" aria-hidden="true" d="" display="none"/></g><g transform="translate(0,0)"><path class="background" aria-hidden="true" d="M0,0h200v200h-200Z"/><g><g class="mark-line role-mark child_marks" role="graphics-object" aria-roledescription="line mark container"><path aria-label="Time: Aug 30, 2023; Price: 8995; item: HIKING_BACKPACK_PONCHO_-_Veste_imperméable_-_blue" role="graphics-symbol" aria-roledescription="line mark" d="M0,100.056L1.874,100.056L3.788,100.056L7.635,100.056L9.557,100.056L11.546,100.056L13.405,100.056L15.326,100.056L19.181,100.056L21.1,100.056L23.084,100.056L24.946,100.056L26.87,100.056L30.719,100.056L32.641,100.056L34.603,100.056L36.486,100.056L38.413,100.056L42.261,100.056L45.567,100.056L46.15,100.056L136.52,100.056L138.516,100.056L140.367,100.056L142.29,100.056L146.14,100.056L148.061,100.056L150.051,100.056L151.909,100.056L153.835,100.056L157.682,100.056L159.606,100.056L161.599,100.056L162.615,100.056L163.453,100.056L165.377,100.056L169.223,100.056L171.146,100.056L173.141,100.056L174.997,100.056L176.918,100.056L180.764,100.056L182.689,100.056L184.675,100.056L186.536,100.056L188.46,100.056L192.307,100.056L194.232,100.056L196.189,100.056L198.079,100.056L200,100.056" stroke="#72b7b2" stroke-width="2"/></g></g><path class="foreground" aria-hidden="true" d="" display="none"/></g><g transform="translate(0,0)"><path class="background" aria-hidden="true" d="M0,0h200v200h-200Z"/><g><g class="mark-line role-mark child_marks" role="graphics-object" aria-roledescription="line mark container"><path aria-label="Time: Aug 30, 2023; Price: 16195; item: DESCHUTES_VALLEY™_RAIN_PONCHO_-_Parka_-_vista_blue" role="graphics-symbol" aria-roledescription="line mark" d="M0,20.056L1.874,20.056L3.788,20.056L7.635,20.056L9.557,20.056L11.546,20.056L13.405,20.056L15.326,20.056L19.181,20.056L21.099,20.056L23.084,20.056L24.946,20.056L26.87,20.056L30.719,20.056L32.641,20.056L34.603,20.056L36.486,20.056L38.413,20.056L42.261,20.056L45.567,20.056L46.15,20.056L48.031,20.056L49.956,20.056L53.804,20.056L55.731,20.056L57.718,20.056L59.572,20.056L61.495,20.056L65.355,80.056L67.281,80.056L69.258,80.056L71.119,80.056L73.038,80.056L76.887,80.056L78.81,80.056L80.805,80.056L82.657,80.056L84.582,80.056L88.434,80.056L90.356,80.056L92.339,80.056L94.202,80.056L96.125,80.056L101.183,80.056L101.894,80.056L103.876,80.056L105.74,80.056L107.666,80.056L111.509,80.056L113.436,80.056L115.397,80.056L117.283,80.056L119.208,80.056L123.056,80.056L124.977,80.056L126.939,80.056L128.824,80.056L130.748,80.056L134.595,80.056L136.519,80.056L138.516,80.056L140.367,80.056L142.29,80.056L146.14,80.056L148.061,80.056L150.051,80.056L151.909,80.056L153.835,80.056L157.682,20.056L159.606,20.056L161.599,20.056L162.615,20.056L163.453,20.056L165.377,20.056L169.223,20.056L171.146,20.056L173.141,20.056L174.996,20.056L176.918,20.056L180.764,20.056L182.689,20.056L184.675,20.056L186.535,20.056L188.459,20.056L192.307,20.056L194.232,20.056L196.189,20.056L198.079,20.056L200,20.056" stroke="#f58518" stroke-width="2"/></g></g><path class="foreground" aria-hidden="true" d="" display="none"/></g><g transform="translate(0,0)"><path class="background" aria-hidden="true" d="M0,0h200v200h-200Z"/><g><g class="mark-line role-mark child_marks" role="graphics-object" aria-roledescription="line mark container"><path aria-label="Time: Aug 30, 2023; Price: 5495; item: COVERO_PONCHO_II_-_Cape_-_lightgrey" role="graphics-symbol" aria-roledescription="line mark" d="M0,138.944L1.874,138.944L3.788,138.944L7.635,138.944L9.557,138.944L11.547,138.944L13.406,138.944L15.327,138.944L19.181,138.944L21.1,138.944L32.641,138.944L34.603,138.944L36.486,138.944L38.413,138.944L42.262,138.944L45.567,138.944L46.15,138.944L48.031,138.944L49.956,138.944L53.804,138.944L55.731,138.944L57.718,138.944L59.572,138.944L61.495,138.944L65.356,138.944L67.281,138.944L69.258,138.944L71.119,138.944L73.038,138.944L105.74,153.944L124.978,138.944L126.939,138.944L128.824,138.944L130.748,138.944L134.595,138.944L136.52,138.944L138.516,138.944L140.367,138.944L142.29,138.944L146.14,138.944L148.061,138.944L150.051,138.944L151.909,138.944L153.835,138.944L157.682,138.944L159.606,138.944L161.599,138.944L162.615,138.944L163.453,138.944L165.377,138.944L169.223,138.944L171.147,138.944L173.141,138.944L174.997,138.944L176.918,138.944L180.764,138.944L182.689,138.944L184.675,138.944L186.536,138.944L188.46,138.944L192.307,138.944L194.232,138.944L196.189,138.944L198.079,138.944L200,138.944" stroke="#eeca3b" stroke-width="2"/></g></g><path class="foreground" aria-hidden="true" d="" display="none"/></g><g transform="translate(0,0)"><path class="background" aria-hidden="true" d="M0,0h200v200h-200Z"/><g><g class="mark-line role-mark child_marks" role="graphics-object" aria-roledescription="line mark container"><path aria-label="Time: Sep 01, 2023; Price: 12995; item: KUURA_3L_PONCHO_UNISEX_-_Veste_imperméable_-_green" role="graphics-symbol" aria-roledescription="line mark" d="M26.87,55.611L30.719,55.611L32.641,55.611L34.603,55.611L55.731,55.611L57.718,55.611L59.572,55.611L61.495,55.611L65.355,11.167L67.281,11.167L69.258,11.167L71.119,11.167L73.038,11.167L76.887,11.167L78.81,11.167L80.805,11.167L82.657,11.167L84.583,11.167L88.434,11.167L90.356,11.167L92.339,11.167L94.202,11.167L96.125,11.167L101.183,11.167L101.894,11.167L103.876,11.167L105.74,11.167L107.666,11.167L111.509,11.167L113.436,11.167L115.397,11.167L117.284,11.167L119.208,11.167L123.056,11.167L124.978,11.167L126.939,11.167L128.824,11.167L130.748,11.167L134.595,11.167L136.519,11.167L138.516,11.167L140.367,11.167L146.14,11.167L148.061,11.167L150.051,11.167L151.909,11.167L153.835,11.167L196.189,22.278L198.079,22.278L200,22.278" stroke="#4c78a8" stroke-width="2"/></g></g><path class="foreground" aria-hidden="true" d="" display="none"/></g><g transform="translate(0,0)"><path class="background" aria-hidden="true" d="M0,0h200v200h-200Z"/><g><g class="mark-line role-mark child_marks" role="graphics-object" aria-roledescription="line mark container"><path aria-label="Time: Sep 14, 2023; Price: 6495; item: PARIS_ST._GERMAIN_CITY_MADE_PONCHO_-_Veste_de_survêtement_-_aura_white" role="graphics-symbol" aria-roledescription="line mark" d="M169.223,127.833L171.147,127.833L173.141,127.833L174.997,127.833L176.918,127.833L180.764,127.833L182.689,127.833L192.307,127.833" stroke="#54a24b" stroke-width="2"/></g></g><path class="foreground" aria-hidden="true" d="" display="none"/></g></g><g class="mark-group role-legend" role="graphics-symbol" aria-roledescription="legend" aria-label="Symbol legend titled 'item' for stroke color with 6 values: KUURA_3L_PONCHO_UNISEX_-_Veste_imperméable_-_green, DESCHUTES_VALLEY™_RAIN_PONCHO_-_Parka_-_vista_blue, DESCHUTES_VALLEY™_RAIN_PONCHO_-_Parka_-_black, HIKING_BACKPACK_PONCHO_-_Veste_imperméable_-_blue, PARIS_ST._GERMAIN_CITY_MADE_PONCHO_-_Veste_de_survêtement_-_aura_white, COVERO_PONCHO_II_-_Cape_-_lightgrey"><g transform="translate(220,0)"><path class="background" aria-hidden="true" d="M0,0h328v92h-328Z" pointer-events="none"/><g><g class="mark-group role-legend-entry"><g transform="translate(0,16)"><path class="background" aria-hidden="true" d="M0,0h0v0h0Z" pointer-events="none"/><g><g class="mark-group role-scope" role="graphics-object" aria-roledescription="group mark container"><g transform="translate(0,0)"><path class="background" aria-hidden="true" d="M0,0h328v11h-328Z" pointer-events="none" opacity="1"/><g><g class="mark-symbol role-legend-symbol" pointer-events="none"><path transform="translate(6,6)" d="M-5,0L5,0" stroke="#4c78a8" stroke-width="1.5" opacity="1"/></g><g class="mark-text role-legend-label" pointer-events="none"><text text-anchor="start" transform="translate(16,9)" font-family="Liberation Mono" font-size="10px" fill="#000" opacity="1">KUURA_3L_PONCHO_UNISEX_-_Veste_impermé…</text></g></g><path class="foreground" aria-hidden="true" d="" pointer-events="none" display="none"/></g><g transform="translate(0,13)"><path class="background" aria-hidden="true" d="M0,0h328v11h-328Z" pointer-events="none" opacity="1"/><g><g class="mark-symbol role-legend-symbol" pointer-events="none"><path transform="translate(6,6)" d="M-5,0L5,0" stroke="#f58518" stroke-width="1.5" opacity="1"/></g><g class="mark-text role-legend-label" pointer-events="none"><text text-anchor="start" transform="translate(16,9)" font-family="Liberation Mono" font-size="10px" fill="#000" opacity="1">DESCHUTES_VALLEY™_RAIN_PONCHO_-_Parka_…</text></g></g><path class="foreground" aria-hidden="true" d="" pointer-events="none" display="none"/></g><g transform="translate(0,26)"><path class="background" aria-hidden="true" d="M0,0h328v11h-328Z" pointer-events="none" opacity="1"/><g><g class="mark-symbol role-legend-symbol" pointer-events="none"><path transform="translate(6,6)" d="M-5,0L5,0" stroke="#e45756" stroke-width="1.5" opacity="1"/></g><g class="mark-text role-legend-label" pointer-events="none"><text text-anchor="start" transform="translate(16,9)" font-family="Liberation Mono" font-size="10px" fill="#000" opacity="1">DESCHUTES_VALLEY™_RAIN_PONCHO_-_Parka_…</text></g></g><path class="foreground" aria-hidden="true" d="" pointer-events="none" display="none"/></g><g transform="translate(0,39)"><path class="background" aria-hidden="true" d="M0,0h328v11h-328Z" pointer-events="none" opacity="1"/><g><g class="mark-symbol role-legend-symbol" pointer-events="none"><path transform="translate(6,6)" d="M-5,0L5,0" stroke="#72b7b2" stroke-width="1.5" opacity="1"/></g><g class="mark-text role-legend-label" pointer-events="none"><text text-anchor="start" transform="translate(16,9)" font-family="Liberation Mono" font-size="10px" fill="#000" opacity="1">HIKING_BACKPACK_PONCHO_-_Veste_impermé…</text></g></g><path class="foreground" aria-hidden="true" d="" pointer-events="none" display="none"/></g><g transform="translate(0,52)"><path class="background" aria-hidden="true" d="M0,0h328v11h-328Z" pointer-events="none" opacity="1"/><g><g class="mark-symbol role-legend-symbol" pointer-events="none"><path transform="translate(6,6)" d="M-5,0L5,0" stroke="#54a24b" stroke-width="1.5" opacity="1"/></g><g class="mark-text role-legend-label" pointer-events="none"><text text-anchor="start" transform="translate(16,9)" font-family="Liberation Mono" font-size="10px" fill="#000" opacity="1">PARIS_ST._GERMAIN_CITY_MADE_PONCHO_-_V…</text></g></g><path class="foreground" aria-hidden="true" d="" pointer-events="none" display="none"/></g><g transform="translate(0,65)"><path class="background" aria-hidden="true" d="M0,0h328v11h-328Z" pointer-events="none" opacity="1"/><g><g class="mark-symbol role-legend-symbol" pointer-events="none"><path transform="translate(6,6)" d="M-5,0L5,0" stroke="#eeca3b" stroke-width="1.5" opacity="1"/></g><g class="mark-text role-legend-label" pointer-events="none"><text text-anchor="start" transform="translate(16,9)" font-family="Liberation Mono" font-size="10px" fill="#000" opacity="1">COVERO_PONCHO_II_-_Cape_-_lightgrey</text></g></g><path class="foreground" aria-hidden="true" d="" pointer-events="none" display="none"/></g></g></g><path class="foreground" aria-hidden="true" d="" pointer-events="none" display="none"/></g></g><g class="mark-text role-legend-title" pointer-events="none"><text text-anchor="start" transform="translate(0,9)" font-family="Liberation Mono" font-size="11px" font-weight="bold" fill="#000" opacity="1">item</text></g></g><path class="foreground" aria-hidden="true" d="" pointer-events="none" display="none"/></g></g></g><path class="foreground" aria-hidden="true" d="" display="none"/></g></g></g><path class="foreground" aria-hidden="true" d="" display="none"/></g></g></g></svg>