<svg xmlns="http://www.w3.org/2000/svg" xmlns:xlink="http://www.w3.org/1999/xlink" version="1.1" class="marks" width="658" height="244" viewBox="0 0 658 244"><rect width="658" height="244" fill="white"/><g fill="none" stroke-miterlimit="10" transform="translate(104,6)"><g class="mark-group role-frame root" role="graphics-object" aria-roledescription="group mark container"><g transform="translate(0,0)"><path class="background" aria-hidden="true" d="M0,0h0v0h0Z"/><g><g class="mark-group role-row-title row-title" role="graphics-object" aria-roledescription="group mark container"><g transform="translate(-78,116)"><path class="background" aria-hidden="true" d="M0,0h0v0h0Z"/><g><g class="mark-group role-title"><g transform="translate(-21.000000000000004,0)"><path class="background" aria-hidden="true" d="M0,0h0v0h0Z" pointer-events="none"/><g><g class="mark-text role-title-text" role="graphics-symbol" aria-roledescription="title" aria-label="Title text 'group'" pointer-events="none"><text text-anchor="middle" transform="translate(0,0) rotate(-90) translate(0,9)" font-family="Liberation Mono" font-size="11px" font-weight="bold" fill="#000" opacity="1">group</text></g></g><path class="foreground" aria-hidden="true" d="" pointer-events="none" display="none"/></g></g></g><path class="foreground" aria-hidden="true" d="" display="none"/></g></g><g class="mark-group role-row-header row_header" role="graphics-object" aria-roledescription="group mark container"><g transform="translate(-47,0)"><path class="background" aria-hidden="true" d="M0,0h0v200h0Z"/><g><g class="mark-group role-title"><g transform="translate(-20.000000000000007,100)"><path class="background" aria-hidden="true" d="M0,0h0v0h0Z" pointer-events="none"/><g><g class="mark-text role-title-text" role="graphics-symbol" aria-roledescription="title" aria-label="Title text 'zalando-poncho'" pointer-events="none"><text text-anchor="middle" transform="translate(0,0) rotate(-90) translate(0,8)" font-family="Liberation Mono" font-size="10px" fill="#000" opacity="1">zalando-poncho</text></g></g><path class="foreground" aria-hidden="true" d="" pointer-events="none" display="none"/></g></g></g><path class="foreground" aria-hidden="true" d="" display="none"/></g></g><g class="mark-group role-scope cell" role="graphics-object" aria-roledescription="group mark container"><g transform="translate(0,0)"><path class="background" aria-hidden="true" d="M0.5,0.5h200v200h-200Z" stroke="#ddd"/><g><g class="mark-group role-axis" aria-hidden="true"><g transform="translate(0.5,200.5)"><path class="background" aria-hidden="true" d="M0,0h0v0h0Z" pointer-events="none"/><g><g class="mark-rule role-axis-grid" pointer-events="none"><line transform="translate(2,-200)" x2="0" y2="200" stroke="#ddd" stroke-width="1" opacity="1"/><line transform="translate(40,-200)" x2="0" y2="200" stroke="#ddd" stroke-width="1" opacity="1"/><line transform="translate(79,-200)" x2="0" y2="200" stroke="#ddd" stroke-width="1" opacity="1"/><line transform="translate(116,-200)" x2="0" y2="200" stroke="#ddd" stroke-width="1" opacity="1"/><line transform="translate(155,-200)" x2="0" y2="200" stroke="#ddd" stroke-width="1" opacity="1"/><line transform="translate(194,-200)" x2="0" y2="200" stroke="#ddd" stroke-width="1" opacity="1"/></g></g><path class="foreground" aria-hidden="true" d="" pointer-events="none" display="none"/></g></g><g class="mark-group role-axis" aria-hidden="true"><g transform="translate(0.5,0.5)"><path class="background" aria-hidden="true" d="M0,0h0v0h0Z" pointer-events="none"/><g><g class="mark-rule role-axis-grid" pointer-events="none"><line transform="translate(0,200)" x2="200" y2="0" stroke="#ddd" stroke-width="1" opacity="1"/><line transform="translate(0,144)" x2="200" y2="0" stroke="#ddd" stroke-width="1" opacity="1"/><line transform="translate(0,89)" x2="200" y2="0" stroke="#ddd" stroke-width="1" opacity="1"/><line transform="translate(0,33)" x2="200" y2="0" stroke="#ddd" stroke-width="1" opacity="1"/></g></g><path class="foreground" aria-hidden="true" d="" pointer-events="none" display="none"/></g></g><g class="mark-group role-axis" role="graphics-symbol" aria-roledescription="axis" aria-label="X-axis titled 'Time' for a time scale with values from Wednesday, 30 August 2023, 12:58:24 PM to Monday, 05 February 2024, 12:55:09 PM"><g transform="translate(0.5,200.5)"><path class="background" aria-hidden="true" d="M0,0h0v0h0Z" pointer-events="none"/><g><g class="mark-rule role-axis-tick" pointer-events="none"><line transform="translate(2,0)" x2="0" y2="5" stroke="#888" stroke-width="1" opacity="1"/><line transform="translate(40,0)" x2="0" y2="5" stroke="#888" stroke-width="1" opacity="1"/><line transform="translate(79,0)" x2="0" y2="5" stroke="#888" stroke-width="1" opacity="1"/><line transform="translate(116,0)" x2="0" y2="5" stroke="#888" stroke-width="1" opacity="1"/><line transform="translate(155,0)" x2="0" y2="5" stroke="#888" stroke-width="1" opacity="1"/><line transform="translate(194,0)" x2="0" y2="5" stroke="#888" stroke-width="1" opacity="1"/></g><g class="mark-text role-axis-label" pointer-events="none"><text text-anchor="middle" transform="translate(1.8358047521590721,15)" font-family="Liberation Mono" font-size="10px" fill="#000" opacity="1">September</text><text text-anchor="middle" transform="translate(39.57218853663937,15)" font-family="Liberation Mono" font-size="10px" fill="#000" opacity="0">October</text><text text-anchor="middle" transform="translate(78.56645178060236,15)" font-family="Liberation Mono" font-size="10px" fill="#000" opacity="1">November</text><text text-anchor="middle" transform="translate(116.30283556508267,15)" font-family="Liberation Mono" font-size="10px" fill="#000" opacity="0">December</text><text text-anchor="middle" transform="translate(155.29709880904565,15)" font-family="Liberation Mono" font-size="10px" fill="#000" opacity="1">2024</text><text text-anchor="middle" transform="translate(194.29136205300864,15)" font-family="Liberation Mono" font-size="10px" fill="#000" opacity="0">February</text></g><g class="mark-rule role-axis-domain" pointer-events="none"><line transform="translate(0,0)" x2="200" y2="0" stroke="#888" stroke-width="1" opacity="1"/></g><g class="mark-text role-axis-title" pointer-events="none"><text text-anchor="middle" transform="translate(100,30)" font-family="Liberation Mono" font-size="11px" font-weight="bold" fill="#000" opacity="1">Time</text></g></g><path class="foreground" aria-hidden="true" d="" pointer-events="none" display="none"/></g></g><g class="mark-group role-axis" role="graphics-symbol" aria-roledescription="axis" aria-label="Y-axis titled 'Price' for a linear scale with values from 0 to 18,000"><g transform="translate(0.5,0.5)"><path class="background" aria-hidden="true" d="M0,0h0v0h0Z" pointer-events="none"/><g><g class="mark-rule role-axis-tick" pointer-events="none"><line transform="translate(0,200)" x2="-5" y2="0" stroke="#888" stroke-width="1" opacity="1"/><line transform="translate(0,144)" x2="-5" y2="0" stroke="#888" stroke-width="1" opacity="1"/><line transform="translate(0,89)" x2="-5" y2="0" stroke="#888" stroke-width="1" opacity="1"/><line transform="translate(0,33)" x2="-5" y2="0" stroke="#888" stroke-width="1" opacity="1"/></g><g class="mark-text role-axis-label" pointer-events="none"><text text-anchor="end" transform="translate(-7,203)" font-family="Liberation Mono" font-size="10px" fill="#000" opacity="1">0</text><text text-anchor="end" transform="translate(-7,147.44444444444443)" font-family="Liberation Mono" font-size="10px" fill="#000" opacity="1">50</text><text text-anchor="end" transform="translate(-7,91.88888888888889)" font-family="Liberation Mono" font-size="10px" fill="#000" opacity="1">100</text><text text-anchor="end" transform="translate(-7,36.33333333333333)" font-family="Liberation Mono" font-size="10px" fill="#000" opacity="1">150</text></g><g class="mark-rule role-axis-domain" pointer-events="none"><line transform="translate(0,200)" x2="0" y2="-200" stroke="#888" stroke-width="1" opacity="1"/></g><g class="mark-text role-axis-title" pointer-events="none"><text text-anchor="middle" transform="translate(-35,100) rotate(-90) translate(0,-2)" font-family="Liberation Mono" font-size="11px" font-weight="bold" fill="#000" opacity="1">Price</text></g></g><path class="foreground" aria-hidden="true" d="" pointer-events="none" display="none"/></g></g><g class="mark-group role-scope child_pathgroup" role="graphics-object" aria-roledescription="group mark container"><g transform="translate(0,0)"><path class="background" aria-hidden="true" d="M0,0h200v200h-200Z"/><g><g class="mark-line role-mark child_marks" role="graphics-object" aria-roledescription="line mark container"><path aria-label="Time: Aug 30, 2023; Price: 10795; item: DESCHUTES_VALLEY™_RAIN_PONCHO_-_Parka_-_black" role="graphics-symbol" aria-roledescription="line mark" d="M0,80.056L0.204,80.056L0.413,80.056L0.832,80.056L1.042,80.056L1.258,80.056L1.461,80.056L1.67,80.056L2.09,80.056L2.299,80.056L2.516,80.056L2.719,80.056L2.928,80.056L3.348,80.056L3.557,80.056L3.771,80.056L3.976,80.056L4.186,80.056L4.606,80.056L4.966,80.056L5.029,80.056L5.234,80.056L5.444,80.056L5.864,80.056L6.074,80.056L6.29,80.056L6.492,80.056L6.702,80.056L7.122,50.056L7.332,50.056L7.548,50.056L7.751,50.056L7.96,50.056L8.379,50.056L8.589,50.056L8.806,50.056L9.008,50.056L9.218,50.056L9.638,50.056L9.847,50.056L10.063,50.056L10.266,50.056L10.476,50.056L11.027,50.056L11.104,50.056L11.32,50.056L11.524,50.056L11.733,50.056L12.152,50.056L12.362,50.056L12.576,50.056L12.782,50.056L12.991,50.056L13.411,50.056L13.62,50.056L13.834,50.056L14.039,50.056L14.249,50.056L14.668,50.056L14.878,50.056L15.095,50.056L15.297,50.056L15.507,50.056L15.926,50.056L16.136,50.056L16.353,50.056L16.555,50.056L16.765,50.056L17.184,20.056L17.394,20.056L17.611,20.056L17.722,20.056L17.813,20.056L18.023,20.056L18.442,20.056L18.652,20.056L18.869,20.056L19.071,20.056L19.281,20.056L19.7,20.056L19.909,20.056L20.126,20.056L20.329,20.056L20.538,20.056L20.958,20.056L21.167,20.056L21.381,20.056L21.587,20.056L21.796,20.056L22.215,20.056L22.425,20.056L22.639,20.056L22.844,20.056L23.054,20.056L23.474,20.056L23.683,20.056L23.901,20.056L24.103,20.056L24.312,20.056L24.731,20.056L24.941,20.056L25.158,20.056L25.36,20.056L25.57,20.056L25.989,20.056L26.199,20.056L26.416,20.056L26.618,20.056L26.828,20.056L27.247,20.056L27.457,20.056L27.674,20.056L27.876,20.056L28.086,20.056L28.505,20.056L28.715,20.056L28.931,20.056L29.134,20.056L29.343,20.056L29.763,20.056L29.973,20.056L30.186,20.056L30.392,20.056L30.602,20.056L31.021,20.056L31.23,20.056L31.444,20.056L31.65,20.056L31.859,20.056L32.279,20.056L32.489,20.056L32.706,20.056L32.908,20.056L33.117,20.056L33.536,20.056L33.746,20.056L33.964,20.056L34.165,20.056L34.375,20.056L34.794,40.056L35.004,40.056L35.221,40.056L35.423,40.056L35.633,40.056L36.052,40.056L36.262,40.056L36.479,40.056L36.681,40.056L37.31,40.056L37.52,40.056L37.736,40.056L37.939,40.056L38.149,40.056L38.568,40.056L38.778,40.056L38.992,40.056L39.197,40.056L39.406,40.056L39.826,40.056L40.036,40.056L40.25,40.056L40.455,40.056L40.665,40.056L41.084,100.056L41.293,100.056L41.511,100.056L41.713,100.056L41.922,100.056L42.342,90.056L42.552,90.056L42.769,90.056L42.971,90.056L43.18,90.056L43.599,90.056L43.809,90.056L44.028,90.056L44.229,90.056L44.438,90.056L44.857,90.056L45.067,90.056L45.286,90.056L45.486,90.056L45.696,90.056L46.115,90.056L46.325,90.056L46.543,90.056L46.744,90.056L46.954,90.056L47.373,90.056L47.583,90.056L47.797,90.056L48.002,90.056L48.212,90.056L48.631,90.056L48.841,90.056L49.26,90.056L49.47,90.056L49.889,90.056L50.099,90.056L50.318,90.056L50.518,90.056L50.728,90.056L51.147,100.056L51.357,100.056L51.575,100.056L51.776,100.056L51.985,100.056L52.405,100.056L52.615,100.056L52.832,100.056L53.034,100.056L53.244,100.056L53.662,100.056L53.872,100.056L54.09,100.056L54.292,100.056L54.501,100.056L54.921,100.056L55.13,100.056L55.348,100.056L55.55,100.056L55.759,100.056L56.178,100.056L56.388,100.056L56.602,100.056L56.807,100.056L57.017,100.056L57.436,100.056L57.646,100.056L57.86,100.056L58.065,100.056L58.275,100.056L58.694,90.056L58.904,90.056L59.122,90.056L59.323,90.056L59.533,90.056L59.952,90.056L60.162,90.056L60.379,90.056L60.581,90.056L60.791,90.056L61.21,90.056L61.42,90.056L61.637,90.056L61.839,90.056L62.048,90.056L62.468,90.056L62.677,90.056L62.895,90.056L63.097,90.056L63.306,90.056L63.726,90.056L63.936,90.056L64.153,90.056L64.354,90.056L64.564,90.056L64.983,90.056L65.193,90.056L65.407,90.056L65.613,90.056L65.822,90.056L66.241,90.056L66.451,90.056L66.665,90.056L66.87,90.056L67.08,90.056L67.499,90.056L67.709,90.056L67.926,90.056L68.129,90.056L68.338,90.056L68.757,50.056L68.967,50.056L69.184,50.056L69.386,50.056L69.596,50.056L70.015,50.056L70.225,50.056L70.441,50.056L70.644,50.056L70.854,50.056L71.273,50.056L71.483,50.056L71.699,50.056L71.902,50.056L72.111,50.056L72.531,50.056L72.741,50.056L72.956,50.056L73.16,50.056L73.37,50.056L73.788,50.056L73.998,50.056L74.212,50.056L74.417,50.056L74.627,50.056L75.047,50.056L75.256,50.056L75.471,50.056L75.675,50.056L75.885,50.056L76.305,50.056L76.514,50.056L76.731,50.056L76.934,50.056L77.143,50.056L77.562,50.056L77.772,50.056L77.988,50.056L78.191,50.056L78.401,50.056L78.82,50.056L79.03,50.056L79.246,50.056L79.449,50.056L79.659,50.056L80.078,40.056L80.288,40.056L80.504,40.056L80.707,40.056L81.965,40.056L82.175,40.056L82.594,40.056L83.018,40.056L83.223,40.056L88.254,40.056L88.464,40.056L88.883,40.056L89.093,40.056L89.309,40.056L89.512,40.056L89.722,40.056L90.141,70.056L90.351,70.056L90.567,70.056L90.77,70.056L90.979,70.056L91.399,70.056L91.609,70.056L91.823,70.056L92.237,70.056L92.657,70.056L92.866,70.056L93.081,70.056L93.286,70.056L93.495,70.056L93.915,40.056L94.124,40.056L94.341,40.056L94.544,40.056L95.172,40.056L95.382,40.056L95.599,40.056L95.801,40.056L96.011,40.056L96.43,40.056L96.64,40.056L96.858,40.056L97.059,40.056L97.269,40.056L97.688,50.056L97.898,50.056L98.116,50.056L98.317,50.056L98.527,50.056L98.946,50.056L99.156,50.056L99.373,50.056L99.575,50.056L99.785,50.056L100.204,40.056L100.413,40.056L100.629,40.056L100.833,40.056L101.043,40.056L101.462,40.056L101.672,40.056L101.887,40.056L102.091,40.056L102.3,40.056L102.72,40.056L102.929,40.056L103.148,40.056L103.349,40.056L103.558,40.056L103.978,40.056L104.187,40.056L104.405,60.056L104.607,60.056L104.816,60.056L105.236,60.056L105.445,60.056L105.663,60.056L105.864,60.056L106.074,60.056L106.493,60.056L106.703,60.056L106.92,80.056L107.122,80.056L107.332,80.056L107.751,80.056L107.961,80.056L108.177,80.056L108.38,80.056L108.59,80.056L109.009,70.056L109.219,70.056L109.434,70.056L109.638,70.056L109.848,70.056L110.267,70.056L110.477,70.056L110.692,70.056L110.896,70.056L111.106,70.056L111.525,40.056L111.735,40.056L111.953,40.056L112.154,40.056L112.364,40.056L112.783,40.056L112.992,40.056L113.209,40.056L113.412,40.056L113.622,40.056L114.041,40.056L114.25,40.056L114.468,40.056L114.67,40.056L114.879,40.056L115.299,40.056L115.508,40.056L115.725,40.056L115.927,40.056L116.137,40.056L116.556,40.056L116.766,40.056L116.984,40.056L117.185,40.056L117.395,40.056L117.815,40.056L118.024,40.056L118.238,40.056L118.443,40.056L118.653,40.056L119.072,40.056L119.282,40.056L119.497,40.056L119.702,40.056L119.911,40.056L120.33,40.056L120.54,40.056L120.757,40.056L120.959,40.056L121.168,40.056L121.588,50.056L121.798,50.056L122.015,50.056L122.217,50.056L122.427,50.056L122.846,50.056L123.055,50.056L123.273,50.056L123.475,50.056L123.685,50.056L124.104,50.056L124.313,50.056L124.531,50.056L124.732,50.056L124.942,50.056L125.362,50.056L125.571,50.056L125.788,50.056L125.991,50.056L126.2,50.056L126.619,50.056L126.829,50.056L127.044,50.056L127.249,50.056L127.458,50.056L127.877,50.056L128.087,50.056L128.302,50.056L128.506,50.056L128.716,50.056L129.135,50.056L129.345,50.056L129.563,50.056L130.393,50.056L130.603,50.056L130.82,50.056L131.022,50.056L131.232,50.056L131.651,50.056L131.861,50.056L132.078,50.056L132.28,50.056L132.49,50.056L132.909,50.056L133.119,50.056L133.336,50.056L133.538,50.056L133.747,50.056L134.167,50.056L134.376,50.056L134.593,50.056L134.796,50.056L135.005,50.056L135.425,50.056L135.634,50.056L135.849,50.056L136.054,50.056L136.263,50.056L136.682,50.056L136.892,50.056L137.107,50.056L137.311,50.056L137.521,50.056L137.94,50.056L138.15,50.056L138.368,50.056L138.569,50.056L138.779,50.056L139.198,50.056L139.408,50.056L139.625,50.056L139.827,50.056L140.037,50.056L140.456,50.056L140.666,50.056L140.877,50.056L141.085,50.056L141.295,50.056L141.714,50.056L141.924,50.056L142.343,50.056L142.552,50.056L142.972,50.056L143.182,50.056L143.397,50.056L143.601,50.056L143.811,50.056L144.23,50.056L144.439,50.056L144.654,50.056L144.859,50.056L145.068,50.056L145.488,50.056L145.697,50.056L145.912,50.056L146.116,50.056L146.326,50.056L146.745,50.056L146.955,50.056L147.171,50.056L147.375,50.056L147.584,50.056L148.003,50.056L148.213,50.056L148.428,50.056L148.632,50.056L148.842,50.056L149.261,50.056L149.471,50.056L149.686,50.056L149.89,50.056L150.1,50.056L150.519,60.056L150.729,60.056L150.944,60.056L151.148,60.056L151.358,60.056L151.777,60.056L151.987,60.056L152.203,60.056L152.406,60.056L152.616,60.056L153.035,60.056L153.245,60.056L153.459,60.056L153.664,60.056L153.873,60.056L154.293,60.056L154.503,60.056L154.717,60.056L154.922,60.056L155.131,60.056L155.551,60.056L155.76,60.056L155.976,60.056L156.18,60.056L156.389,60.056L156.809,60.056L157.018,60.056L157.234,60.056L157.438,60.056L157.647,60.056L158.066,90.056L158.276,90.056L158.493,90.056L158.695,90.056L158.905,90.056L159.324,90.056L159.534,90.056L159.75,90.056L159.953,90.056L174.419,60.056L174.628,60.056L174.846,60.056L175.048,60.056L175.258,60.056L175.677,60.056L175.886,60.056L176.104,60.056L176.306,60.056L176.515,60.056L176.935,60.056L177.144,60.056L177.362,60.056L177.564,60.056L177.773,60.056L178.193,100.056L178.402,100.056L178.619,100.056L178.821,100.056L179.031,100.056L179.451,100.056L179.66,100.056L179.875,100.056" stroke="#f58518" stroke-width="2"/></g></g><path class="foreground" aria-hidden="true" d="" display="none"/></g><g transform="translate(0,0)"><path class="background" aria-hidden="true" d="M0,0h200v200h-200Z"/><g><g class="mark-line role-mark child_marks" role="graphics-object" aria-roledescription="line mark container"><path aria-label="Time: Aug 30, 2023; Price: 8995; item: HIKING_BACKPACK_PONCHO_-_Veste_imperméable_-_blue" role="graphics-symbol" aria-roledescription="line mark" d="M0,100.056L0.204,100.056L0.413,100.056L0.832,100.056L1.042,100.056L1.258,100.056L1.461,100.056L1.67,100.056L2.09,100.056L2.299,100.056L2.516,100.056L2.719,100.056L2.928,100.056L3.348,100.056L3.557,100.056L3.771,100.056L3.976,100.056L4.186,100.056L4.606,100.056L4.966,100.056L5.029,100.056L14.878,100.056L15.096,100.056L15.297,100.056L15.507,100.056L15.926,100.056L16.136,100.056L16.353,100.056L16.555,100.056L16.765,100.056L17.184,100.056L17.394,100.056L17.611,100.056L17.722,100.056L17.813,100.056L18.023,100.056L18.442,100.056L18.652,100.056L18.869,100.056L19.071,100.056L19.281,100.056L19.7,100.056L19.909,100.056L20.126,100.056L20.329,100.056L20.538,100.056L20.958,100.056L21.167,100.056L21.381,100.056L21.587,100.056L21.796,100.056L22.215,100.056L22.425,100.056L36.681,111.167L37.31,111.167L37.52,111.167L37.736,111.167L37.939,111.167L38.149,111.167L38.568,111.167L38.778,111.167L38.992,111.167L39.197,111.167L39.406,111.167L39.826,111.167L40.036,111.167L40.25,111.167L40.455,111.167L40.665,111.167L41.084,111.167L41.293,111.167L41.511,111.167L41.713,111.167L41.922,111.167L42.342,127.833L42.552,127.833L42.769,127.833L42.971,127.833L43.18,127.833L43.599,127.833L43.809,127.833L44.028,127.833L44.229,127.833L44.438,127.833L44.857,127.833L45.067,127.833L45.286,127.833L45.486,127.833L45.696,127.833L46.115,127.833L46.325,127.833L46.543,127.833L46.744,127.833L46.954,127.833L47.373,127.833L47.583,127.833L47.797,127.833L48.002,127.833L48.212,127.833L48.631,127.833L48.841,127.833L49.26,127.833L49.47,127.833L49.889,127.833" stroke="#54a24b" stroke-width="2"/></g></g><path class="foreground" aria-hidden="true" d="" display="none"/></g><g transform="translate(0,0)"><path class="background" aria-hidden="true" d="M0,0h200v200h-200Z"/><g><g class="mark-line role-mark child_marks" role="graphics-object" aria-roledescription="line mark container"><path aria-label="Time: Aug 30, 2023; Price: 16195; item: DESCHUTES_VALLEY™_RAIN_PONCHO_-_Parka_-_vista_blue" role="graphics-symbol" aria-roledescription="line mark" d="M0,20.056L0.204,20.056L0.413,20.056L0.832,20.056L1.042,20.056L1.258,20.056L1.461,20.056L1.67,20.056L2.09,20.056L2.299,20.056L2.516,20.056L2.719,20.056L2.928,20.056L3.348,20.056L3.557,20.056L3.771,20.056L3.976,20.056L4.186,20.056L4.606,20.056L4.966,20.056L5.029,20.056L5.234,20.056L5.444,20.056L5.864,20.056L6.074,20.056L6.29,20.056L6.492,20.056L6.702,20.056L7.122,80.056L7.332,80.056L7.548,80.056L7.751,80.056L7.96,80.056L8.379,80.056L8.589,80.056L8.806,80.056L9.008,80.056L9.218,80.056L9.638,80.056L9.847,80.056L10.063,80.056L10.266,80.056L10.476,80.056L11.027,80.056L11.104,80.056L11.32,80.056L11.524,80.056L11.733,80.056L12.152,80.056L12.362,80.056L12.576,80.056L12.782,80.056L12.991,80.056L13.411,80.056L13.62,80.056L13.834,80.056L14.039,80.056L14.249,80.056L14.668,80.056L14.878,80.056L15.095,80.056L15.297,80.056L15.507,80.056L15.926,80.056L16.136,80.056L16.353,80.056L16.555,80.056L16.765,80.056L17.184,20.056L17.394,20.056L17.611,20.056L17.722,20.056L17.813,20.056L18.023,20.056L18.442,20.056L18.652,20.056L18.869,20.056L19.071,20.056L19.281,20.056L19.7,20.056L19.909,20.056L20.126,20.056L20.329,20.056L20.538,20.056L20.958,20.056L21.167,20.056L21.381,20.056L21.587,20.056L21.796,20.056L22.215,20.056L22.425,20.056L22.639,20.056L22.844,20.056L23.054,20.056L23.474,20.056L23.683,20.056L23.901,20.056L24.103,20.056L24.312,20.056L24.731,20.056L24.941,20.056L25.158,20.056L25.36,20.056L25.57,20.056L25.989,20.056L26.199,20.056L26.416,20.056L26.618,20.056L26.828,20.056L27.247,20.056L27.457,20.056L27.674,20.056L27.876,20.056L28.086,20.056L28.505,20.056L28.715,20.056L28.931,20.056L29.134,20.056L29.343,20.056L29.763,20.056L29.973,20.056L30.186,20.056L30.392,20.056L30.602,20.056L31.021,20.056L31.23,20.056L31.444,20.056L31.65,20.056L31.859,20.056L32.279,20.056L32.489,20.056L32.706,20.056L32.908,20.056L33.117,20.056L33.536,20.056L33.746,20.056L33.964,20.056L34.165,20.056L34.375,20.056L34.794,40.056L35.004,40.056L35.221,40.056L35.423,40.056L35.633,40.056L36.052,40.056L36.262,40.056L36.479,40.056L36.681,40.056L37.31,40.056L37.52,40.056L37.736,40.056L37.939,40.056L38.149,40.056L38.568,40.056L38.778,40.056L38.992,40.056L39.197,40.056L39.406,40.056L39.826,40.056L40.036,40.056L40.25,40.056L40.455,40.056L40.665,40.056L41.084,90.056L41.293,90.056L41.511,90.056L41.713,90.056L41.922,90.056L42.342,40.056L42.552,40.056L42.769,40.056L42.971,40.056L43.18,40.056L43.599,40.056L43.809,40.056L44.028,40.056L44.229,40.056L44.438,40.056L44.857,40.056L45.067,40.056L45.286,40.056L45.486,40.056L45.696,40.056L46.115,40.056L46.325,40.056L46.543,40.056L46.744,40.056L46.954,40.056L47.373,40.056L47.583,40.056L47.797,40.056L48.002,40.056L48.212,40.056L48.631,40.056L48.841,40.056L49.26,40.056L49.47,40.056L49.889,40.056L50.099,40.056L50.318,40.056L50.518,40.056L50.728,40.056L51.147,90.056L51.357,90.056L51.575,90.056L51.776,90.056L51.985,90.056L52.405,90.056L52.615,90.056L52.832,90.056L53.034,90.056L53.244,90.056L53.662,90.056L53.872,90.056L54.09,90.056L54.292,90.056L54.501,90.056L54.921,90.056L55.13,90.056L55.348,90.056L55.55,90.056L55.759,90.056L56.178,40.056L56.388,40.056L56.602,40.056L56.807,40.056L57.017,40.056L57.436,40.056L57.646,40.056L57.86,40.056L58.065,40.056L58.275,40.056L58.694,100.056L58.904,100.056L59.122,100.056L59.323,100.056L59.533,100.056L59.952,100.056L60.162,100.056L60.379,100.056L60.581,100.056L60.791,100.056L61.21,100.056L61.42,100.056L61.637,100.056L61.839,100.056L62.048,100.056L62.468,100.056L62.677,100.056L62.895,100.056L63.097,100.056L63.306,100.056L63.726,100.056L63.936,100.056L64.153,100.056L64.354,100.056L64.564,100.056L64.983,100.056L65.193,100.056L65.407,100.056L65.613,100.056L65.822,100.056L66.241,100.056L66.451,100.056L66.665,100.056L66.87,100.056L67.08,100.056L67.499,100.056L67.709,100.056L67.926,100.056L68.129,100.056L68.338,100.056L68.757,40.056L68.967,40.056L69.184,40.056L69.386,40.056L69.596,40.056L70.015,40.056L70.225,40.056L70.441,40.056L70.644,40.056L70.854,40.056L71.273,40.056L71.483,40.056L71.699,40.056L71.902,40.056L72.111,40.056L72.531,40.056L72.741,40.056L72.956,40.056L73.16,40.056L73.37,40.056L73.788,40.056L73.998,40.056L74.212,40.056L74.417,40.056L74.627,40.056L75.047,40.056L75.256,40.056L75.471,40.056L75.675,40.056L75.885,40.056L76.305,40.056L76.514,40.056L76.731,40.056L76.934,40.056L77.143,40.056L77.562,40.056L77.772,40.056L77.988,40.056L78.191,40.056L78.401,40.056L78.82,40.056L79.03,40.056L79.246,40.056L79.449,40.056L79.659,40.056L80.078,40.056L80.288,40.056L80.504,40.056L80.707,40.056L80.916,40.056L81.336,40.056L81.545,40.056L81.763,40.056L81.965,40.056L82.175,40.056L82.594,40.056L82.804,40.056L83.018,40.056L83.223,40.056L83.433,40.056L83.852,40.056L84.061,40.056L84.276,40.056L84.481,40.056L84.69,40.056L85.109,40.056L85.319,40.056L85.537,40.056L85.739,40.056L85.948,40.056L86.368,40.056L86.577,40.056L86.794,40.056L86.996,40.056L87.206,40.056L87.625,40.056L87.835,40.056L88.052,40.056L88.254,40.056L88.464,40.056L88.883,40.056L89.093,40.056L89.309,40.056L89.512,40.056L89.722,40.056L90.141,40.056L90.351,40.056L90.567,40.056L90.77,40.056L90.979,40.056L91.399,40.056L91.609,40.056L91.823,40.056L92.237,40.056L92.657,40.056L92.866,40.056L93.081,40.056L93.286,40.056L93.495,40.056L93.915,40.056L94.124,40.056L94.341,40.056L94.544,40.056L95.172,40.056L95.382,40.056L95.599,40.056L95.801,40.056L96.011,40.056L96.43,40.056L96.64,40.056L96.858,40.056L97.059,40.056L97.269,40.056L97.688,120.056L97.898,120.056L98.116,120.056L98.317,120.056L98.527,120.056L98.946,120.056L99.156,120.056L99.373,120.056L99.575,120.056L99.785,120.056L100.204,40.056L100.413,40.056L100.629,40.056L100.833,40.056L101.043,40.056L101.462,40.056L101.672,40.056L101.887,40.056L102.091,40.056L102.3,40.056L102.72,50.056L102.929,50.056L103.148,70.056L103.349,70.056L103.558,70.056L103.978,70.056L104.187,70.056L104.405,70.056L104.607,70.056L104.816,70.056L105.236,70.056L105.445,70.056L105.663,70.056L105.864,70.056L106.074,70.056L106.493,120.056L106.703,120.056L106.92,120.056L107.122,120.056L107.332,120.056L107.751,120.056L107.961,120.056L108.177,120.056L108.38,120.056L108.59,120.056L109.009,120.056L109.219,120.056L109.434,120.056L109.638,120.056L109.848,120.056L110.267,120.056L110.477,120.056L110.692,120.056L110.896,120.056L111.106,120.056L111.525,40.056L111.735,40.056L111.953,40.056L112.154,40.056L112.364,40.056L112.783,40.056L112.993,40.056L113.209,40.056L113.412,40.056L113.622,40.056L114.041,40.056L114.25,40.056L114.468,40.056L114.67,40.056L114.879,40.056L115.299,40.056L115.508,40.056L115.725,40.056L115.927,40.056L116.137,40.056L116.556,40.056L116.766,40.056L116.984,40.056L117.185,40.056L117.395,40.056L117.815,40.056L118.024,40.056L118.238,40.056L118.443,40.056L118.653,40.056L119.072,40.056L119.282,40.056L119.497,40.056L119.702,40.056L119.911,40.056L120.33,40.056L120.54,40.056L120.757,40.056L120.959,40.056L121.168,40.056L121.588,100.056L121.798,100.056L122.015,100.056L122.217,100.056L122.427,100.056L122.846,100.056L123.055,100.056L123.273,100.056L123.475,100.056L123.685,100.056L124.104,100.056L124.313,100.056L124.531,100.056L124.732,100.056L124.942,100.056L125.362,100.056L125.571,100.056L125.788,100.056L125.991,100.056L126.2,100.056L126.619,100.056L126.829,100.056L127.044,100.056L127.249,100.056L127.458,100.056L127.877,100.056L128.087,100.056L128.302,100.056L128.506,100.056L128.716,100.056L129.135,100.056L129.345,100.056L129.563,100.056L129.764,100.056L129.974,100.056L130.393,100.056L130.603,100.056L130.82,100.056L131.022,100.056L131.232,100.056L131.651,100.056L131.861,100.056L132.078,100.056L132.28,100.056L132.49,100.056L132.909,100.056L133.119,100.056L133.336,100.056L133.538,100.056L133.747,100.056L134.167,100.056L134.376,100.056L134.593,100.056L134.796,100.056L135.005,100.056L135.425,100.056L135.634,100.056L135.849,100.056L136.054,100.056L136.263,100.056L136.682,90.056L136.892,90.056L137.107,90.056L137.311,90.056L137.521,90.056L137.94,90.056L138.15,90.056L138.368,90.056L138.569,90.056L138.779,90.056L139.198,90.056L139.408,90.056L139.625,90.056L139.827,90.056L140.037,90.056L140.456,90.056L140.666,90.056L140.877,90.056L141.085,90.056L141.295,90.056L141.714,60.056L141.924,60.056L142.343,60.056L142.552,60.056L142.972,60.056L143.182,60.056L143.397,60.056L143.601,60.056L143.811,60.056L144.23,60.056L144.439,60.056L144.654,60.056L144.859,60.056L145.068,60.056L145.488,60.056L145.697,60.056L145.912,60.056L146.116,60.056L146.326,60.056L146.745,60.056L146.955,60.056L147.171,60.056L147.375,60.056L147.584,60.056L148.003,60.056L148.213,60.056L148.428,60.056L148.632,60.056L148.842,60.056L149.261,60.056L149.471,60.056L149.686,60.056L149.89,60.056L150.1,60.056L150.519,60.056L150.729,60.056L150.944,60.056L151.148,60.056L151.358,60.056L151.777,60.056L151.987,60.056L152.203,60.056L152.406,60.056L152.616,60.056L153.035,60.056L153.245,60.056L153.459,60.056L153.664,60.056L153.873,60.056L154.293,60.056L154.503,60.056L154.717,60.056L154.922,60.056L155.131,60.056L155.551,60.056L155.76,60.056L155.976,60.056L156.18,60.056L156.389,60.056L156.809,60.056L157.018,60.056L157.234,60.056L157.438,60.056L157.647,60.056L158.066,90.056L158.276,90.056L158.493,90.056L158.695,90.056L158.905,90.056L159.324,90.056L159.534,90.056L159.75,90.056L159.953,90.056L160.163,90.056L160.582,90.056L160.792,90.056L161.008,90.056L161.211,90.056L161.421,90.056L161.84,100.056L162.05,100.056L162.266,100.056L162.469,100.056L162.679,100.056L163.098,90.056L163.308,90.056L163.523,90.056L163.727,90.056L163.936,90.056L164.356,100.056L164.566,100.056L164.782,100.056L164.985,100.056L165.194,100.056L165.614,100.056L165.823,100.056L166.045,100.056L166.243,100.056L166.452,100.056L166.872,100.056L167.081,100.056L167.298,100.056L167.501,100.056L167.71,100.056L168.129,90.056L168.339,90.056L168.556,90.056L168.759,90.056L168.968,90.056L169.387,90.056L169.597,90.056L169.814,90.056L170.016,90.056L170.226,90.056L170.645,90.056L170.855,90.056L171.07,90.056L171.274,90.056L171.484,90.056L171.903,100.056L172.113,100.056L172.328,100.056L172.532,100.056L172.742,100.056L173.161,90.056L173.371,90.056L173.588,90.056L173.79,90.056L174,90.056L174.419,100.056L174.629,100.056L174.846,100.056L175.048,100.056L175.258,100.056L175.677,100.056L175.886,100.056L176.104,100.056L176.306,100.056L176.515,100.056L176.935,100.056L177.144,100.056L177.362,100.056L177.564,100.056L177.773,100.056L178.193,100.056L178.402,100.056L178.619,100.056L178.821,100.056L179.031,100.056L179.451,100.056L179.66,100.056L179.875,100.056L180.079,100.056L180.289,100.056L180.918,100.056L181.133,100.056L181.337,100.056L181.547,100.056L181.966,100.056L182.176,100.056L182.394,100.056L182.595,100.056L182.805,100.056L183.224,130.056L183.434,130.056L183.651,130.056L183.853,130.056L184.063,130.056L184.482,130.056L184.692,130.056L184.909,130.056L185.111,130.056L185.321,130.056L185.74,130.056L185.949,130.056L186.167,130.056L186.369,130.056L186.579,130.056L186.998,130.056L187.207,130.056L187.421,130.056L187.626,130.056L187.836,130.056L188.255,130.056L188.465,130.056L188.677,130.056L188.884,130.056L189.094,130.056L189.513,130.056L189.723,130.056L189.935,130.056L190.143,130.056L190.352,130.056L190.771,60.056L190.981,60.056L191.194,60.056L191.4,60.056L191.61,60.056L192.029,60.056L192.239,60.056L192.452,60.056L192.658,80.056L192.868,80.056L193.287,80.056L193.497,80.056L193.71,100.056L193.916,100.056L194.126,100.056L194.545,60.056L194.755,60.056L194.969,60.056L195.174,60.056L195.383,60.056L195.803,60.056L196.012,60.056L196.226,60.056L196.432,60.056L196.642,60.056L197.061,60.056L197.27,60.056L197.482,60.056L197.69,60.056L197.899,60.056L198.319,60.056L198.528,60.056L198.74,60.056L198.947,60.056L199.157,60.056L199.577,60.056L199.786,60.056L200,60.056" stroke="#e45756" stroke-width="2"/></g></g><path class="foreground" aria-hidden="true" d="" display="none"/></g><g transform="translate(0,0)"><path class="background" aria-hidden="true" d="M0,0h200v200h-200Z"/><g><g class="mark-line role-mark child_marks" role="graphics-object" aria-roledescription="line mark container"><path aria-label="Time: Aug 30, 2023; Price: 5495; item: COVERO_PONCHO_II_-_Cape_-_lightgrey" role="graphics-symbol" aria-roledescription="line mark" d="M0,138.944L0.204,138.944L0.413,138.944L0.832,138.944L1.042,138.944L1.258,138.944L1.461,138.944L1.67,138.944L2.09,138.944L2.299,138.944L3.557,138.944L3.771,138.944L3.976,138.944L4.186,138.944L4.606,138.944L4.966,138.944L5.029,138.944L5.234,138.944L5.444,138.944L5.864,138.944L6.074,138.944L6.29,138.944L6.492,138.944L6.702,138.944L7.122,138.944L7.332,138.944L7.548,138.944L7.751,138.944L7.96,138.944L11.524,153.944L13.62,138.944L13.834,138.944L14.039,138.944L14.249,138.944L14.668,138.944L14.878,138.944L15.096,138.944L15.297,138.944L15.507,138.944L15.926,138.944L16.136,138.944L16.353,138.944L16.555,138.944L16.765,138.944L17.184,138.944L17.394,138.944L17.611,138.944L17.722,138.944L17.813,138.944L18.023,138.944L18.442,138.944L18.652,138.944L18.869,138.944L19.071,138.944L19.281,138.944L19.7,138.944L19.909,138.944L20.126,138.944L20.329,138.944L20.538,138.944L20.958,138.944L21.167,138.944L21.381,138.944L21.587,138.944L21.796,138.944L22.215,138.944L22.425,138.944L22.639,138.944L22.844,138.944L23.054,138.944L23.474,138.944L23.683,138.944L23.901,138.944L24.103,138.944L24.312,138.944L24.731,138.944L24.941,138.944L25.158,138.944L25.36,138.944L25.57,138.944L25.989,151.167L26.199,151.167L26.416,151.167L26.618,151.167L26.828,151.167L27.247,151.167L27.457,151.167L27.674,151.167L27.876,151.167L28.086,151.167L28.505,151.167L28.715,151.167L28.931,151.167L29.973,151.167L30.186,151.167L30.392,151.167L30.602,151.167L31.021,151.167L31.23,151.167L31.444,151.167L31.65,151.167L31.859,151.167L32.279,151.167L32.489,151.167L32.706,151.167L32.908,151.167L33.117,151.167L33.536,151.167L33.746,151.167L33.964,151.167L34.165,151.167L34.375,151.167L34.794,151.167L35.004,151.167L35.221,151.167L35.423,151.167L35.633,151.167L36.052,151.167L36.262,151.167L36.479,151.167L36.681,151.167L37.31,151.167L37.52,151.167L37.736,151.167L37.939,151.167L38.149,151.167L38.568,151.167L38.778,151.167L38.992,151.167L39.197,151.167L39.406,151.167L39.826,151.167L40.036,151.167L40.25,151.167L40.455,151.167L40.665,151.167L41.084,151.167L41.294,151.167L41.511,151.167L41.713,151.167L41.922,151.167L42.342,151.167L42.552,151.167L42.769,151.167L42.971,151.167L43.18,151.167L43.599,151.167L43.809,151.167L44.028,151.167L44.229,151.167L44.438,151.167L44.857,151.167L45.067,151.167L45.286,151.167L45.486,151.167L45.696,151.167L46.115,151.167L46.325,151.167L46.543,151.167L46.744,151.167L46.954,151.167L47.583,151.167L47.797,151.167L48.631,151.167L48.841,151.167L49.26,151.167L49.47,151.167L50.518,151.167L50.728,151.167L51.147,151.167L51.357,151.167L51.575,151.167L51.985,151.167L52.405,138.944L52.615,138.944L52.832,138.944L53.034,138.944L53.244,138.944L55.55,138.944L56.807,153.944L59.533,153.944L59.952,153.944L60.581,153.944L61.21,153.944L61.839,153.944L62.048,153.944L62.677,153.944L64.354,153.944L64.564,153.944L64.983,153.944L66.665,153.944L66.87,153.944L67.08,153.944L67.499,153.944L68.129,153.944L68.338,153.944L68.757,153.944L68.967,153.944L69.184,153.944L69.596,153.944L70.225,153.944L70.441,153.944L70.644,153.944L71.273,153.944L71.483,153.944L71.902,153.944L73.16,153.944L73.37,153.944L73.788,153.944L74.212,153.944L74.417,153.944L74.627,153.944L75.256,153.944L75.471,153.944L75.675,153.944L76.305,153.944L76.514,153.944L76.731,153.944L76.934,153.944L77.143,153.944L77.562,153.944L77.772,153.944L77.988,153.944L78.191,153.944L78.401,153.944L78.82,153.944L80.288,153.944L80.504,153.944L80.707,153.944L80.916,153.944L81.545,153.944L81.763,153.944L81.965,153.944L82.175,153.944L82.594,145.611L82.804,145.611L87.206,145.611L87.625,145.611L87.835,145.611L88.052,145.611L88.254,145.611L88.464,145.611L89.093,145.611L89.309,145.611L89.512,145.611L89.722,145.611L90.141,145.611L90.567,145.611L90.98,145.611L91.609,145.611L91.823,145.611L92.237,145.611L92.657,145.611L92.866,145.611L93.081,145.611L93.286,145.611L93.495,145.611L93.915,138.944L94.341,138.944L95.172,138.944L95.382,138.944L95.599,138.944L95.801,138.944L96.011,138.944L96.43,138.944L96.64,138.944L96.858,138.944L97.059,138.944L97.269,138.944L97.898,153.944L98.116,153.944L98.317,153.944L98.527,153.944L98.946,153.944L99.575,153.944L99.785,153.944L100.204,153.944L100.413,153.944L100.629,153.944L100.833,160.056L102.929,138.944L103.148,138.944L103.349,138.944L103.558,138.944L103.978,138.944L104.187,138.944L104.406,138.944L104.607,138.944L104.816,138.944L105.236,138.944L105.445,138.944L105.663,138.944L105.864,138.944L106.074,138.944L106.703,163.389L116.984,138.944L117.815,138.944L118.443,138.944L119.282,138.944L120.54,138.944L120.757,138.944L120.959,138.944L121.168,138.944L121.588,138.944L123.055,138.944L124.104,138.944L125.991,138.944L126.829,138.944L127.044,138.944L127.249,138.944L127.458,138.944L127.877,138.944L128.302,138.944L129.345,138.944L129.563,138.944L129.764,138.944L129.974,138.944L130.82,138.944L131.651,138.944L133.336,138.944L134.376,138.944L134.796,138.944L135.005,138.944L135.425,138.944L136.054,138.944L136.263,138.944L136.682,138.944" stroke="#f58518" stroke-width="2"/></g></g><path class="foreground" aria-hidden="true" d="" display="none"/></g><g transform="translate(0,0)"><path class="background" aria-hidden="true" d="M0,0h200v200h-200Z"/><g><g class="mark-line role-mark child_marks" role="graphics-object" aria-roledescription="line mark container"><path aria-label="Time: Sep 01, 2023; Price: 12995; item: KUURA_3L_PONCHO_UNISEX_-_Veste_imperméable_-_green" role="graphics-symbol" aria-roledescription="line mark" d="M2.928,55.611L3.348,55.611L3.557,55.611L3.771,55.611L6.074,55.611L6.29,55.611L6.492,55.611L6.702,55.611L7.122,11.167L7.332,11.167L7.548,11.167L7.751,11.167L7.96,11.167L8.379,11.167L8.589,11.167L8.806,11.167L9.008,11.167L9.218,11.167L9.638,11.167L9.847,11.167L10.063,11.167L10.266,11.167L10.476,11.167L11.027,11.167L11.104,11.167L11.32,11.167L11.524,11.167L11.733,11.167L12.152,11.167L12.362,11.167L12.576,11.167L12.782,11.167L12.991,11.167L13.411,11.167L13.62,11.167L13.834,11.167L14.039,11.167L14.249,11.167L14.668,11.167L14.878,11.167L15.095,11.167L15.297,11.167L15.926,11.167L16.136,11.167L16.353,11.167L16.555,11.167L16.765,11.167L21.381,22.278L21.587,22.278L21.796,22.278L22.215,22.278L22.425,22.278L22.639,22.278L22.844,22.278L23.054,22.278L23.474,22.278L23.683,22.278L23.901,22.278L24.941,22.278L25.158,22.278L25.36,22.278L25.57,22.278L25.989,22.278L26.199,22.278L42.971,22.278L43.18,22.278L43.599,22.278L43.809,22.278L44.028,22.278L44.229,22.278L44.438,22.278L44.857,22.278L45.067,22.278L45.286,22.278L45.486,22.278L45.696,22.278L46.115,22.278L46.325,22.278L46.543,22.278L46.744,22.278L46.954,22.278L47.373,22.278L47.583,22.278L47.797,22.278L48.002,22.278L48.212,22.278L67.499,22.278L67.709,22.278L67.926,22.278L68.129,22.278L68.338,22.278L68.757,22.278L68.967,22.278L69.184,22.278L69.386,22.278" stroke="#4c78a8" stroke-width="2"/></g></g><path class="foreground" aria-hidden="true" d="" display="none"/></g><g transform="translate(0,0)"><path class="background" aria-hidden="true" d="M0,0h200v200h-200Z"/><g><g class="mark-line role-mark child_marks" role="graphics-object" aria-roledescription="line mark container"><path aria-label="Time: Sep 14, 2023; Price: 6495; item: PARIS_ST._GERMAIN_CITY_MADE_PONCHO_-_Veste_de_survêtement_-_aura_white" role="graphics-symbol" aria-roledescription="line mark" d="M18.442,127.833L18.652,127.833L18.869,127.833L19.071,127.833L19.281,127.833L19.7,127.833L19.909,127.833L20.958,127.833L22.425,127.833L22.639,127.833L22.844,127.833L23.054,127.833L23.474,127.833L23.683,127.833L23.901,127.833L24.103,127.833L24.312,127.833L24.731,127.833L24.941,127.833L25.158,127.833L25.36,127.833L25.57,127.833L25.989,127.833L26.199,127.833L26.416,127.833L26.618,127.833L26.828,127.833L27.247,127.833L27.457,127.833L27.674,127.833L27.876,127.833L28.086,127.833L28.505,127.833L28.715,127.833L28.931,127.833L29.134,127.833L29.343,127.833L29.763,127.833L29.973,127.833L30.186,127.833L30.392,127.833L30.602,127.833L31.021,127.833L31.23,127.833L31.444,127.833L31.65,127.833L31.859,127.833L32.279,127.833L32.489,127.833L32.706,127.833L32.908,127.833L33.117,127.833L33.536,127.833L33.746,127.833L33.964,127.833" stroke="#bab0ac" stroke-width="2"/></g></g><path class="foreground" aria-hidden="true" d="" display="none"/></g><g transform="translate(0,0)"><path class="background" aria-hidden="true" d="M0,0h200v200h-200Z"/><g><g class="mark-line role-mark child_marks" role="graphics-object" aria-roledescription="line mark container"><path aria-label="Time: Sep 18, 2023; Price: 8995; item: HIKING_BACKPACK_PONCHO_-_Veste_imperméable_-_indian_red" role="graphics-symbol" aria-roledescription="line mark" d="M23.474,100.056L23.683,100.056L23.901,100.056L24.103,100.056L24.312,100.056L24.731,100.056L24.941,100.056L32.908,100.056L33.117,100.056L33.536,100.056L33.746,100.056L33.964,100.056L34.165,100.056L34.375,100.056L34.794,111.167L35.004,111.167L35.221,111.167L35.423,111.167L55.348,111.167L55.55,111.167L55.759,111.167L56.178,111.167L56.388,111.167L56.602,111.167L56.807,111.167L57.017,111.167L57.436,111.167L140.877,122.278L141.085,122.278L141.295,122.278L141.714,111.167L141.924,111.167" stroke="#b279a2" stroke-width="2"/></g></g><path class="foreground" aria-hidden="true" d="" display="none"/></g><g transform="translate(0,0)"><path class="background" aria-hidden="true" d="M0,0h200v200h-200Z"/><g><g class="mark-line role-mark child_marks" role="graphics-object" aria-roledescription="line mark container"><path aria-label="Time: Sep 26, 2023; Price: 6495; item: PSG_M_NSW_CITY_MADE_PONCHO_-_Veste_de_survêtement_-_aura_white" role="graphics-symbol" aria-roledescription="line mark" d="M34.165,127.833L34.375,127.833L34.794,91.167L35.004,91.167L35.221,91.167L35.423,91.167L35.633,91.167L36.052,91.167L36.262,91.167L36.479,91.167L36.681,91.167L37.31,91.167L37.52,91.167L37.736,91.167L37.939,91.167L38.149,91.167L38.568,91.167L38.778,91.167L38.992,91.167L39.197,91.167L39.406,91.167L39.826,91.167L40.036,91.167L40.25,91.167L40.455,91.167L40.665,91.167L41.084,127.833L41.294,127.833L41.511,127.833L41.713,127.833L41.922,127.833L42.342,127.833L42.552,127.833L42.769,127.833L42.971,127.833L43.18,127.833L43.599,127.833L43.809,127.833L44.028,127.833L44.229,127.833L44.438,127.833L44.857,127.833L45.067,127.833L45.286,127.833L45.486,127.833L45.696,127.833L46.115,127.833L46.325,127.833L46.543,127.833L46.744,127.833L46.954,127.833L47.373,127.833L47.583,127.833L47.797,127.833L48.002,127.833L48.212,127.833L48.631,127.833L48.841,127.833L49.26,127.833L49.47,127.833L49.889,127.833L50.099,127.833L50.318,127.833L50.518,127.833L50.728,127.833L51.147,84.5L51.357,84.5L51.575,84.5L51.985,84.5L52.405,84.5L52.615,84.5L52.832,84.5L53.034,84.5L53.244,84.5L53.662,84.5L53.872,84.5L54.921,84.5L55.55,84.5L56.807,127.833L57.436,127.833L58.904,127.833L59.122,127.833L67.08,127.833L67.499,127.833L67.709,127.833L67.926,127.833L68.967,127.833L69.184,127.833L70.644,127.833L70.854,127.833L71.699,127.833L72.111,127.833L72.531,127.833L72.956,127.833L73.998,127.833L74.627,127.833L75.047,127.833L75.256,127.833L75.471,127.833L75.885,127.833L76.514,127.833L77.143,127.833L77.562,127.833L77.772,127.833L77.988,127.833L78.191,127.833L78.401,127.833L78.82,127.833L79.03,127.833L79.246,127.833L79.449,127.833L79.659,127.833L80.078,127.833L80.288,127.833L80.504,127.833L80.707,127.833L80.916,127.833L81.336,127.833L81.545,127.833L81.763,127.833L81.965,127.833L82.175,127.833L82.594,127.833L82.804,127.833L83.018,127.833L83.223,127.833L83.433,127.833L83.852,127.833L84.061,127.833L84.276,127.833L84.481,127.833L84.69,127.833L85.109,127.833L85.319,127.833L85.537,127.833L85.739,127.833L85.948,127.833L86.368,127.833L86.577,127.833L86.794,127.833L86.996,127.833L87.206,127.833L87.625,127.833L88.052,127.833L88.254,127.833L88.464,127.833L89.309,127.833L89.512,127.833L90.141,84.5L90.567,84.5L90.98,84.5L92.237,84.5L93.495,84.5L94.341,127.833L95.172,127.833L95.382,127.833L95.599,127.833L96.011,127.833L96.43,127.833L96.64,127.833L96.858,127.833L97.059,127.833L97.898,156.722L100.413,127.833L100.629,127.833L101.462,127.833L103.558,105.611L103.978,105.611L105.663,105.611L105.864,105.611L106.703,148.944L109.848,148.944L110.267,148.944L112.364,120.056L112.783,127.833L113.622,127.833L114.468,127.833L115.725,127.833L116.137,127.833L116.984,91.167L117.815,91.167L118.443,91.167L119.282,127.833L120.757,91.167L123.055,127.833L125.991,127.833L127.044,127.833L127.458,127.833L128.302,127.833L129.345,127.833L129.563,127.833L129.764,127.833L129.974,127.833L130.393,127.833L130.603,127.833L130.82,127.833L131.022,127.833L131.232,127.833L131.651,127.833L134.376,127.833L134.796,127.833L135.005,127.833L135.425,127.833L136.054,127.833L136.892,120.056L137.107,120.056L137.311,120.056L137.521,120.056L137.94,120.056L138.368,120.056L138.779,120.056L139.198,120.056L139.408,120.056L139.625,120.056L139.827,120.056L140.037,120.056L140.456,120.056L140.666,120.056L140.877,120.056L141.085,120.056L141.295,120.056L141.714,98.944L142.343,98.944L142.972,98.944L143.182,98.944L143.397,98.944L143.601,98.944L143.811,98.944L144.23,98.944L144.439,98.944L144.654,98.944L144.859,98.944L145.068,98.944L145.488,98.944L145.697,98.944L145.912,98.944L146.116,98.944L146.326,98.944L146.745,98.944L146.955,98.944L147.171,98.944L147.375,98.944L147.584,98.944L148.003,98.944L148.213,98.944L148.632,98.944L148.842,98.944L149.261,98.944L149.471,98.944L149.686,98.944L150.1,98.944L150.729,98.944L150.944,98.944L151.148,98.944L151.777,98.944L152.406,98.944L153.035,98.944L153.245,98.944L153.459,98.944L153.873,98.944L154.293,98.944L154.717,98.944L154.922,98.944L155.131,98.944L155.551,98.944L155.76,98.944L155.976,98.944L156.18,98.944L156.389,98.944L156.809,98.944L157.438,98.944L158.066,120.056L158.276,120.056L158.695,120.056L158.905,120.056L159.324,120.056L159.75,120.056L159.953,120.056L160.163,120.056L160.792,120.056L161.008,120.056L161.211,120.056L161.421,120.056L161.84,120.056L162.05,120.056L162.266,120.056L162.469,120.056L162.679,120.056L163.098,120.056L163.308,120.056L163.523,120.056L163.727,120.056L163.936,120.056L164.356,120.056L164.782,120.056L165.194,120.056L165.614,120.056L166.452,120.056L167.081,120.056L168.339,120.056L168.556,120.056L168.759,120.056L168.968,120.056L169.387,120.056L169.597,120.056L169.814,120.056L170.016,120.056L170.226,120.056L170.645,120.056L170.855,120.056L171.07,120.056L171.274,120.056L171.484,120.056L171.903,120.056L172.742,120.056L173.588,98.944L174,98.944L175.258,98.944L176.104,98.944L177.144,98.944L177.362,98.944L177.564,98.944L177.773,98.944L178.193,98.944L178.402,98.944L178.619,98.944L178.821,98.944L179.031,98.944L179.451,98.944L179.66,98.944L179.875,98.944L180.079,98.944L180.289,98.944L180.918,98.944L181.133,98.944L181.337,98.944L181.547,98.944L181.966,98.944L182.176,98.944L182.394,98.944L182.595,98.944L182.805,98.944L183.224,98.944L183.434,98.944L183.651,98.944L183.853,98.944L184.063,98.944L184.482,98.944L184.692,98.944L184.909,98.944L185.111,98.944L185.321,98.944L185.74,98.944L185.949,98.944L186.167,98.944L186.369,98.944L186.579,98.944L186.998,98.944L187.207,98.944L187.421,98.944L187.627,98.944L187.836,98.944L188.255,98.944L188.465,98.944L188.677,98.944L188.884,98.944L189.094,98.944L189.513,98.944L189.723,98.944L189.935,98.944L190.143,98.944L190.352,98.944L190.772,98.944L190.981,98.944L191.194,98.944L191.4,98.944L191.61,98.944L192.029,98.944L192.239,98.944L192.452,98.944L192.658,98.944L192.868,98.944L193.287,98.944L193.497,98.944L193.71,98.944L193.916,98.944L194.126,98.944L194.545,98.944L194.755,98.944L194.969,98.944L195.174,98.944L195.383,98.944L195.803,98.944L196.012,98.944L196.226,98.944L196.432,98.944L196.642,98.944L197.061,98.944L197.27,98.944L197.482,98.944" stroke="#ff9da6" stroke-width="2"/></g></g><path class="foreground" aria-hidden="true" d="" display="none"/></g><g transform="translate(0,0)"><path class="background" aria-hidden="true" d="M0,0h200v200h-200Z"/><g><g class="mark-line role-mark child_marks" role="graphics-object" aria-roledescription="line mark container"><path aria-label="Time: Oct 12, 2023; Price: 4995; item: SHOWERPROOF_PONCHO_UNISEX_-_Cape_-_classic_tartan" role="graphics-symbol" aria-roledescription="line mark" d="M53.662,144.5L53.872,144.5L54.09,144.5L54.292,144.5L54.501,144.5L54.921,144.5L55.13,144.5L55.348,144.5L55.55,144.5L55.759,144.5L56.178,144.5L56.388,144.5L56.602,144.5L56.807,144.5L57.017,144.5L57.436,144.5L57.646,144.5L57.86,144.5L58.065,144.5L58.275,144.5L58.694,152.611L58.904,152.611L59.122,152.611L59.323,152.611L59.533,152.611L59.952,152.611L60.162,152.611L60.379,152.611L60.581,152.611L60.791,152.611L61.21,152.611L61.42,152.611L61.637,152.611L61.839,152.611L62.048,152.611L62.468,152.611L62.677,152.611L62.895,152.611L63.097,152.611L63.306,152.611L63.726,152.611L63.936,152.611L64.153,152.611L64.354,152.611L64.564,152.611L64.983,152.611L65.193,152.611L65.407,152.611L65.613,152.611L65.822,152.611L66.241,144.5L66.451,144.5L66.665,144.5L66.87,144.5L67.08,144.5L67.499,144.5L67.709,144.5L67.926,144.5L68.129,144.5L68.338,144.5L68.757,152.611L68.967,152.611L69.184,152.611L69.386,152.611L69.596,152.611L70.015,152.611L70.225,152.611L70.441,152.611L70.644,152.611L70.854,152.611L71.273,152.611L71.483,152.611L71.699,152.611L71.902,152.611L72.111,152.611L72.531,152.611L72.741,152.611L72.956,152.611L73.16,152.611L73.37,152.611L73.788,152.611L73.998,152.611L74.212,152.611L74.417,152.611L74.627,152.611L75.047,152.611L75.256,152.611L75.471,152.611L75.675,152.611L75.885,152.611L76.305,144.5L76.514,144.5L76.731,144.5L76.934,144.5L77.143,144.5L77.562,144.5L77.772,144.5L77.988,144.5L78.191,144.5L78.401,144.5L78.82,152.611L79.03,152.611L79.246,152.611L79.449,152.611L79.659,152.611L80.078,152.611L80.288,152.611L80.504,152.611L80.707,152.611L80.916,152.611L81.336,152.611L81.545,152.611L81.763,152.611L81.965,152.611L82.175,152.611L82.594,152.611L82.804,152.611L83.018,152.611L83.223,152.611L83.433,152.611L83.852,152.611L84.061,152.611L84.276,152.611L84.481,152.611L84.69,152.611L85.109,152.611L85.319,152.611L85.537,152.611L85.739,152.611L85.948,152.611L86.368,150.056L86.577,144.5L86.794,144.5L86.996,144.5L87.206,144.5L87.625,144.5L87.835,144.5L88.052,144.5L88.254,144.5L88.464,144.5L88.883,144.5L89.093,144.5L89.309,144.5L89.512,144.5L89.722,144.5L90.141,144.5L90.351,144.5L90.567,144.5L90.77,144.5L90.98,144.5L91.399,144.5L91.609,144.5L91.823,144.5L92.237,144.5L92.657,144.5L92.866,144.5L93.081,144.5L93.286,144.5L93.495,144.5L93.915,144.5L94.124,144.5L94.341,144.5L94.544,144.5L95.172,144.5L95.382,144.5L95.599,144.5L95.801,144.5L96.011,144.5L96.43,144.5L96.64,144.5L96.858,144.5L97.059,144.5L97.269,144.5L97.688,144.5L97.898,144.5L98.116,144.5L98.317,144.5L98.527,144.5L98.946,144.5L99.156,144.5L99.373,144.5L99.575,144.5L99.785,144.5L100.204,144.5L100.413,144.5L100.629,144.5L100.833,144.5L101.043,144.5L101.462,144.5L101.672,144.5L101.887,144.5L102.091,144.5L102.3,144.5L102.72,144.5L102.929,144.5L103.148,144.5L103.349,144.5L103.558,144.5L103.978,144.5L104.187,144.5L104.406,144.5L104.607,144.5L104.816,144.5L105.236,144.5L105.445,144.5L105.663,144.5L105.864,144.5L106.074,144.5L120.959,144.5L121.168,144.5L121.588,144.5L121.798,144.5L122.015,144.5L122.217,144.5L122.427,144.5L122.846,144.5L123.055,144.5L123.273,144.5L123.475,144.5L123.685,144.5L124.104,144.5L124.313,144.5L124.531,144.5L124.732,144.5L124.942,144.5L125.362,144.5L125.571,144.5L125.788,144.5L125.991,144.5L126.2,144.5L126.619,144.5L126.829,144.5L127.044,144.5L127.249,144.5L127.458,144.5L127.877,144.5L128.087,144.5L128.302,144.5L128.506,144.5L128.716,144.5L129.135,144.5L129.345,144.5L129.563,144.5L129.764,144.5L129.974,144.5L130.393,144.5L130.603,144.5L130.82,144.5L131.022,144.5L131.232,144.5L131.651,144.5L131.861,144.5L132.078,144.5L132.28,144.5L132.49,144.5L132.909,144.5L133.119,144.5L133.336,144.5L133.538,144.5L133.747,144.5L134.167,144.5L134.376,144.5L134.593,144.5L134.796,144.5L135.005,144.5L135.425,144.5L135.634,144.5L135.849,144.5L136.054,144.5L136.263,144.5L136.682,144.5L136.892,144.5L137.107,144.5L137.311,144.5L137.521,144.5L137.94,144.5L138.15,144.5L138.368,144.5L138.569,144.5L138.779,144.5L139.198,158.167L139.408,158.167L139.625,158.167L139.827,158.167L140.037,158.167L140.456,158.167L140.666,158.167L140.877,158.167L141.085,158.167L141.295,158.167L141.714,144.5L141.924,144.5L142.343,144.5L142.552,144.5L142.972,144.5L143.182,144.5L143.397,144.5L143.601,144.5L143.811,144.5L144.23,144.5L144.439,144.5L144.654,144.5L144.859,144.5L145.068,144.5L145.488,144.5L145.697,144.5L145.912,144.5L146.116,144.5L146.326,144.5L146.745,144.5L146.955,144.5L147.171,144.5L147.375,144.5L147.584,144.5L148.003,144.5L148.213,144.5L148.428,144.5L148.632,144.5L148.842,144.5L149.261,144.5L149.471,144.5L149.686,144.5L149.89,144.5L150.1,144.5L150.519,144.5L150.729,144.5L150.944,144.5L151.148,144.5L151.358,144.5L151.777,144.5L151.987,144.5L152.203,144.5L152.406,144.5L152.616,144.5L153.035,144.5L153.245,144.5L153.459,144.5L153.664,144.5L153.873,144.5L154.293,144.5L154.503,144.5L154.717,144.5L154.922,144.5L155.131,144.5L155.551,144.5L155.76,144.5L155.976,144.5L156.18,144.5L156.389,144.5L156.809,144.5L157.018,144.5L157.234,144.5L157.438,144.5L157.647,144.5L158.066,144.5L158.276,144.5L158.493,144.5L158.695,144.5L158.905,144.5L159.324,144.5L159.534,144.5L159.75,144.5L159.953,144.5L160.163,144.5L160.582,144.5L160.792,144.5L161.008,144.5L161.211,144.5L161.421,144.5L161.84,144.5L162.05,144.5L162.266,144.5L162.469,144.5L162.679,144.5L163.098,144.5L163.308,144.5L163.523,144.5L163.727,144.5L163.936,144.5L164.356,144.5L164.566,144.5L164.782,144.5L164.985,144.5L165.194,144.5L165.614,152.611L165.823,152.611L166.045,152.611L166.243,152.611L166.452,152.611L166.872,152.611L167.081,152.611L167.298,152.611L167.501,152.611L167.71,152.611L168.129,158.167L168.339,158.167L168.556,158.167L168.759,158.167L168.968,158.167L169.387,158.167L169.597,158.167L169.814,158.167L170.016,158.167L170.226,158.167L170.645,158.167L170.855,158.167L171.07,158.167L171.274,158.167L171.484,158.167L171.903,144.5L172.113,144.5L172.328,144.5L172.532,144.5L172.742,144.5L173.161,158.167L173.371,158.167L173.588,158.167L173.79,158.167L174,158.167L174.419,150.056L174.629,150.056L174.846,150.056L175.048,150.056L175.258,150.056L175.677,144.5L175.886,144.5L176.104,144.5L176.306,144.5L176.515,144.5L176.935,150.056L177.144,150.056L177.362,150.056L177.564,150.056L177.773,150.056L178.193,161.167L178.402,161.167L178.619,161.167L178.821,161.167L179.031,161.167L179.451,161.167L179.66,161.167L179.875,161.167L180.079,161.167L180.289,161.167L180.918,144.5L181.133,144.5L181.337,144.5L181.547,144.5L181.966,161.167L182.176,161.167L182.394,161.167L182.595,161.167L182.805,161.167L183.224,150.056L183.434,150.056L183.651,150.056L183.853,150.056L184.063,150.056L184.482,144.5L184.692,144.5L184.909,144.5L185.111,144.5L185.321,144.5L185.74,150.056L185.949,150.056L186.167,150.056L186.369,150.056L186.579,150.056L186.998,150.056L187.207,150.056L187.421,150.056L187.626,150.056L187.836,150.056L188.255,144.5L188.465,144.5L188.677,144.5L188.884,144.5L189.094,144.5L189.513,144.5L189.723,144.5L189.935,144.5L190.143,144.5L190.352,144.5L190.771,144.5L190.981,144.5L191.194,144.5L191.4,144.5L191.61,144.5L192.029,144.5L192.239,144.5L192.452,144.5L192.658,144.5L192.868,144.5L193.287,144.5L193.497,144.5L193.71,144.5L193.916,144.5L194.126,144.5L194.545,152.611L194.755,152.611L194.969,152.611L195.174,152.611L195.383,152.611L195.803,152.611L196.012,152.611L196.226,152.611L196.432,152.611L196.642,152.611L197.061,152.611L197.27,152.611L197.482,152.611L197.69,152.611L197.899,152.611L198.319,133.389L198.528,133.389L198.74,133.389L198.947,133.389L199.157,133.389L199.577,133.389L199.786,133.389L200,133.389" stroke="#4c78a8" stroke-width="2"/></g></g><path class="foreground" aria-hidden="true" d="" display="none"/></g><g transform="translate(0,0)"><path class="background" aria-hidden="true" d="M0,0h200v200h-200Z"/><g><g class="mark-line role-mark child_marks" role="graphics-object" aria-roledescription="line mark container"><path aria-label="Time: Oct 12, 2023; Price: 13995; item: PONCHO_-_Cape_-_lucid_blue" role="graphics-symbol" aria-roledescription="line mark" d="M53.662,44.5L55.13,44.5L55.55,44.5L56.178,91.167L56.807,91.167L57.646,91.167L57.86,91.167L58.065,91.167L58.275,91.167L58.694,91.167L58.904,91.167L59.122,91.167L59.323,91.167L59.533,91.167L59.952,91.167L60.162,91.167L60.379,91.167L60.581,91.167L60.791,91.167L61.21,91.167L61.42,91.167L61.637,91.167L61.839,91.167L62.048,91.167L62.468,91.167L62.677,91.167L62.895,91.167L63.306,91.167L64.354,91.167L64.564,91.167L64.983,91.167L65.613,91.167L66.241,91.167L66.451,91.167L66.665,91.167L66.87,91.167L67.08,91.167L68.129,91.167L68.757,114.5L68.967,114.5L69.596,114.5L70.225,114.5L70.441,114.5L70.644,114.5L71.273,114.5L72.531,114.5L72.741,114.5L72.956,114.5L73.16,114.5L73.37,114.5L73.788,114.5L73.998,114.5L74.212,114.5L74.417,114.5L74.627,114.5L75.047,114.5L75.256,114.5L75.471,114.5L75.675,114.5L75.885,114.5L76.305,114.5L76.514,114.5L76.731,114.5L76.934,114.5L77.143,114.5L77.562,114.5L77.772,114.5L77.988,114.5L78.191,114.5L78.401,114.5L78.82,114.5L79.03,114.5L79.246,114.5L79.449,114.5L79.659,114.5L80.078,83.389L80.288,83.389L80.916,83.389L81.336,83.389L82.594,83.389L82.804,83.389L83.223,83.389L83.433,83.389L83.852,83.389L84.061,83.389L84.276,83.389L84.481,83.389L84.69,83.389L85.109,83.389L85.319,83.389L85.948,83.389L86.368,44.5L86.577,44.5L86.794,44.5L86.996,44.5L87.206,44.5L87.625,44.5L87.835,44.5L88.052,44.5L88.254,44.5L88.464,44.5L88.883,44.5L89.093,44.5L89.309,44.5L89.512,44.5L89.722,44.5L90.141,122.278L90.567,122.278L90.98,122.278L91.609,122.278L91.823,122.278L92.237,122.278L92.657,122.278L92.866,122.278L93.081,122.278L93.286,122.278L93.495,122.278L93.915,44.5L94.124,44.5L94.341,44.5L94.544,44.5L95.172,44.5L95.382,44.5L95.599,44.5L95.801,44.5L96.011,44.5L96.43,44.5L96.64,44.5L96.858,44.5L97.059,44.5L97.269,44.5L97.898,130.056L98.116,130.056L98.317,130.056L98.527,130.056L98.946,130.056L99.785,130.056L100.204,44.5L100.413,44.5L100.629,44.5L101.462,44.5L101.672,44.5L101.887,44.5L102.091,44.5L102.3,44.5L102.72,60.056L102.929,60.056L103.148,106.722L103.349,106.722L103.558,122.278L103.978,122.278L104.187,122.278L104.406,122.278L104.607,122.278L104.816,122.278L105.236,122.278L105.445,122.278L105.663,122.278L105.864,122.278L106.074,122.278L106.493,122.278L106.703,122.278L106.92,122.278L107.122,122.278L107.332,122.278L107.751,122.278L109.219,130.056L109.434,122.278L109.638,122.278L109.848,122.278L110.267,122.278L110.477,122.278L110.692,122.278L110.896,122.278L111.106,122.278L111.525,122.278L112.364,75.611L112.783,44.5L112.993,44.5L113.209,44.5L113.412,44.5L113.622,44.5L114.041,44.5L114.25,44.5L114.468,44.5L114.67,44.5L114.879,44.5L115.299,44.5L115.508,44.5L115.725,44.5L115.927,44.5L116.137,44.5L116.556,44.5L116.766,44.5L116.984,44.5L117.395,44.5L117.815,44.5L118.024,44.5L118.238,44.5L118.443,44.5L118.653,44.5L119.072,44.5L119.282,44.5L119.497,44.5L119.702,44.5L119.911,44.5L120.33,44.5L120.757,44.5L123.055,91.167L123.273,91.167L123.475,91.167L123.685,91.167L124.104,91.167L125.788,91.167L125.991,91.167L127.044,91.167L127.458,91.167L128.302,122.278L128.506,122.278L128.716,122.278L129.135,122.278L129.345,122.278L129.563,122.278L129.764,122.278L129.974,122.278L130.393,91.167L130.82,91.167L131.022,91.167L131.232,91.167L131.651,91.167L133.119,91.167L133.336,91.167L133.538,91.167L133.747,91.167L134.167,91.167L134.376,91.167L134.593,91.167L134.796,91.167L135.005,91.167L135.425,91.167L136.054,91.167L136.892,106.722L137.107,106.722L137.311,106.722L137.521,106.722L137.94,106.722L138.15,106.722L138.368,106.722L138.569,106.722L138.779,106.722L139.198,106.722L139.408,106.722L139.625,106.722L139.827,106.722L140.037,106.722L140.456,106.722L140.666,106.722L140.877,106.722L141.085,106.722L141.295,106.722L141.714,91.167L142.343,91.167L142.552,91.167L142.972,91.167L143.182,91.167L143.397,91.167L143.601,91.167L143.811,91.167L144.23,91.167L144.439,91.167L144.654,91.167L144.859,91.167L145.068,91.167L145.488,91.167L145.697,91.167L145.912,91.167L146.116,91.167L146.326,91.167L146.745,91.167L146.955,91.167L147.171,91.167L147.375,91.167L147.584,91.167L148.003,91.167L148.213,91.167L148.428,91.167L148.632,91.167L148.842,91.167L149.261,91.167L149.471,91.167L149.686,91.167L149.89,91.167L150.1,91.167L150.519,83.389L150.729,83.389L150.944,83.389L151.148,83.389L151.358,83.389L151.777,83.389L151.987,83.389L152.203,83.389L152.406,83.389L152.616,83.389L153.035,83.389L153.245,83.389L153.459,83.389L153.664,83.389L153.873,83.389L154.293,83.389L154.503,83.389L154.717,83.389L154.922,83.389L155.131,83.389L155.551,83.389L155.76,83.389L155.976,83.389L156.18,83.389L156.389,83.389L156.809,83.389L157.018,83.389L157.234,83.389L157.438,83.389L157.647,83.389L158.066,106.722L158.276,106.722L158.493,106.722L158.695,106.722L158.905,106.722L159.324,106.722L159.534,106.722L159.75,106.722L159.953,106.722L160.163,106.722L160.582,106.722L160.792,106.722L161.008,106.722L161.211,106.722L161.421,106.722L161.84,114.5L162.05,114.5L162.266,114.5L162.469,114.5L162.679,114.5L163.098,106.722L163.308,106.722L163.523,106.722L163.727,106.722L163.936,106.722L164.356,114.5L164.566,114.5L164.782,114.5L164.985,114.5L165.194,114.5L165.614,122.278L165.823,122.278L166.045,122.278L166.243,122.278L166.452,122.278L166.872,122.278L167.081,122.278L167.298,122.278L167.501,122.278L167.71,122.278L168.129,122.278L168.339,122.278L168.556,122.278L168.759,122.278L168.968,122.278L169.387,122.278L169.597,122.278L169.814,122.278L170.016,122.278L170.226,122.278L170.645,122.278L170.855,122.278L171.07,122.278L171.274,122.278L171.484,122.278L171.903,122.278L172.113,122.278L172.328,122.278L172.532,122.278L172.742,122.278L173.161,122.278L173.371,122.278L173.588,122.278L173.79,122.278L174,122.278L174.419,114.5L174.629,114.5L174.846,114.5L175.048,114.5L175.258,114.5L175.677,122.278L175.886,122.278L176.104,122.278L176.306,122.278L176.515,122.278L176.935,114.5L177.144,114.5L177.362,114.5L177.564,114.5L177.773,114.5L178.193,122.278L178.402,122.278L178.619,122.278L178.821,122.278L179.031,122.278L179.451,122.278L179.66,122.278L179.875,122.278L180.079,122.278L180.289,122.278L180.918,122.278L181.133,122.278L181.337,122.278L181.547,122.278L181.966,122.278L182.176,122.278L182.394,122.278L182.595,122.278L182.805,122.278L183.224,145.611L183.434,145.611L183.651,145.611L183.853,145.611L184.063,145.611L184.482,145.611L184.692,145.611L184.909,145.611L185.111,145.611L185.321,145.611L185.74,145.611L185.949,145.611L186.167,145.611L186.369,145.611L186.579,145.611L186.998,145.611L187.207,145.611L187.421,145.611L187.627,145.611L187.836,145.611L188.255,145.611L188.465,145.611L188.677,145.611L188.884,145.611L189.094,145.611L189.513,145.611L189.723,145.611L189.935,145.611L190.143,145.611L190.352,145.611L190.771,106.722L190.981,106.722L191.194,106.722L191.4,106.722L191.61,106.722L192.029,106.722L192.239,106.722L192.452,106.722L192.658,106.722L192.868,106.722L193.287,106.722L193.497,106.722L193.71,137.833L193.916,137.833L194.126,137.833L194.545,44.5L194.755,44.5L194.969,44.5L195.174,44.5L195.383,44.5L195.803,44.5L196.012,44.5L196.226,44.5L196.432,44.5L196.642,44.5L197.061,44.5L197.27,44.5L197.482,44.5L197.69,44.5L197.899,44.5L198.319,44.5L198.528,44.5L198.74,44.5L198.947,44.5L199.157,44.5L199.577,44.5L199.786,44.5" stroke="#eeca3b" stroke-width="2"/></g></g><path class="foreground" aria-hidden="true" d="" display="none"/></g><g transform="translate(0,0)"><path class="background" aria-hidden="true" d="M0,0h200v200h-200Z"/><g><g class="mark-line role-mark child_marks" role="graphics-object" aria-roledescription="line mark container"><path aria-label="Time: Dec 18, 2023; Price: 10995; item: K_ESSENTIAL_RAIN_PONCHO_UNISEX_-_Cape_-_black" role="graphics-symbol" aria-roledescription="line mark" d="M138.368,77.833L139.198,77.833L139.408,77.833L139.827,77.833L140.037,77.833L140.456,77.833L140.877,77.833L141.085,77.833L141.295,77.833L142.343,77.833L142.972,77.833L143.182,77.833L143.397,77.833L143.811,77.833L144.23,77.833L144.439,77.833L145.068,77.833L145.488,77.833L145.697,77.833L145.912,77.833L146.116,77.833L146.326,77.833L146.955,77.833L147.584,77.833L148.003,77.833L148.213,77.833L148.842,77.833L149.471,77.833L149.686,77.833L150.1,77.833L150.729,77.833L150.944,77.833L151.777,77.833L152.406,77.833L153.035,77.833L153.245,77.833L153.459,77.833L153.873,77.833L154.717,77.833L154.922,77.833L155.551,77.833L155.976,77.833L156.18,77.833L156.389,77.833L157.438,77.833L158.066,77.833L158.276,77.833L158.695,77.833L158.905,77.833L159.324,77.833L159.75,77.833L159.953,77.833L161.008,77.833L161.211,77.833L162.469,77.833L162.679,77.833L163.098,77.833L165.194,77.833L165.614,77.833L185.74,77.833L185.949,77.833L186.167,77.833L186.369,77.833L186.579,77.833L186.998,77.833L187.207,77.833L187.421,77.833L187.627,77.833L187.836,77.833L188.255,77.833L188.465,77.833L188.677,77.833L188.885,77.833L189.094,77.833L189.513,77.833L189.723,77.833L189.935,77.833L190.143,77.833L190.352,77.833L190.771,77.833L190.981,77.833L191.194,77.833L191.4,77.833L191.61,77.833L192.029,77.833L192.239,77.833L192.452,77.833L192.658,77.833L192.868,77.833L193.287,77.833L193.497,77.833L193.71,77.833L193.916,77.833L194.126,77.833L194.545,77.833L194.755,77.833L194.969,77.833L195.174,77.833L195.383,77.833L195.803,77.833L196.012,77.833L196.226,77.833L196.432,77.833L196.642,77.833L197.061,77.833L197.27,77.833L197.482,77.833L197.69,77.833L197.899,77.833L198.319,77.833L198.528,77.833L198.74,77.833L198.947,77.833L199.157,77.833L199.577,77.833L199.786,77.833L200,77.833" stroke="#72b7b2" stroke-width="2"/></g></g><path class="foreground" aria-hidden="true" d="" display="none"/></g><g transform="translate(0,0)"><path class="background" aria-hidden="true" d="M0,0h200v200h-200Z"/><g><g class="mark-line role-mark child_marks" role="graphics-object" aria-roledescription="line mark container"><path aria-label="Time: Dec 18, 2023; Price: 5845; item: PONCHO_-_Peignoir_-_dark_blue" role="graphics-symbol" aria-roledescription="line mark" d="M138.368,135.056L140.037,135.056L143.182,125.056L144.439,125.056L145.068,125.056L146.326,125.056L161.008,130.056" stroke="#9d755d" stroke-width="2"/></g></g><path class="foreground" aria-hidden="true" d="" display="none"/></g></g><g class="mark-group role-legend" role="graphics-symbol" aria-roledescription="legend" aria-label="Symbol legend titled 'item' for stroke color with 12 values: KUURA_3L_PONCHO_UNISEX_-_Veste_imperméable_-_green, DESCHUTES_VALLEY™_RAIN_PONCHO_-_Parka_-_black, DESCHUTES_VALLEY™_RAIN_PONCHO_-_Parka_-_vista_blue, K_ESSENTIAL_RAIN_PONCHO_UNISEX_-_Cape_-_black, HIKING_BACKPACK_PONCHO_-_Veste_imperméable_-_blue, ending with COVERO_PONCHO_II_-_Cape_-_lightgrey"><g transform="translate(220,0)"><path class="background" aria-hidden="true" d="M0,0h328v170h-328Z" pointer-events="none"/><g><g class="mark-group role-legend-entry"><g transform="translate(0,16)"><path class="background" aria-hidden="true" d="M0,0h0v0h0Z" pointer-events="none"/><g><g class="mark-group role-scope" role="graphics-object" aria-roledescription="group mark container"><g transform="translate(0,0)"><path class="background" aria-hidden="true" d="M0,0h328v11h-328Z" pointer-events="none" opacity="1"/><g><g class="mark-symbol role-legend-symbol" pointer-events="none"><path transform="translate(6,6)" d="M-5,0L5,0" stroke="#4c78a8" stroke-width="1.5" opacity="1"/></g><g class="mark-text role-legend-label" pointer-events="none"><text text-anchor="start" transform="translate(16,9)" font-family="Liberation Mono" font-size="10px" fill="#000" opacity="1">KUURA_3L_PONCHO_UNISEX_-_Veste_impermé…</text></g></g><path class="foreground" aria-hidden="true" d="" pointer-events="none" display="none"/></g><g transform="translate(0,13)"><path class="background" aria-hidden="true" d="M0,0h328v11h-328Z" pointer-events="none" opacity="1"/><g><g class="mark-symbol role-legend-symbol" pointer-events="none"><path transform="translate(6,6)" d="M-5,0L5,0" stroke="#f58518" stroke-width="1.5" opacity="1"/></g><g class="mark-text role-legend-label" pointer-events="none"><text text-anchor="start" transform="translate(16,9)" font-family="Liberation Mono" font-size="10px" fill="#000" opacity="1">DESCHUTES_VALLEY™_RAIN_PONCHO_-_Parka_…</text></g></g><path class="foreground" aria-hidden="true" d="" pointer-events="none" display="none"/></g><g transform="translate(0,26)"><path class="background" aria-hidden="true" d="M0,0h328v11h-328Z" pointer-events="none" opacity="1"/><g><g class="mark-symbol role-legend-symbol" pointer-events="none"><path transform="translate(6,6)" d="M-5,0L5,0" stroke="#e45756" stroke-width="1.5" opacity="1"/></g><g class="mark-text role-legend-label" pointer-events="none"><text text-anchor="start" transform="translate(16,9)" font-family="Liberation Mono" font-size="10px" fill="#000" opacity="1">DESCHUTES_VALLEY™_RAIN_PONCHO_-_Parka_…</text></g></g><path class="foreground" aria-hidden="true" d="" pointer-events="none" display="none"/></g><g transform="translate(0,39)"><path class="background" aria-hidden="true" d="M0,0h328v11h-328Z" pointer-events="none" opacity="1"/><g><g class="mark-symbol role-legend-symbol" pointer-events="none"><path transform="translate(6,6)" d="M-5,0L5,0" stroke="#72b7b2" stroke-width="1.5" opacity="1"/></g><g class="mark-text role-legend-label" pointer-events="none"><text text-anchor="start" transform="translate(16,9)" font-family="Liberation Mono" font-size="10px" fill="#000" opacity="1">K_ESSENTIAL_RAIN_PONCHO_UNISEX_-_Cape_…</text></g></g><path class="foreground" aria-hidden="true" d="" pointer-events="none" display="none"/></g><g transform="translate(0,52)"><path class="background" aria-hidden="true" d="M0,0h328v11h-328Z" pointer-events="none" opacity="1"/><g><g class="mark-symbol role-legend-symbol" pointer-events="none"><path transform="translate(6,6)" d="M-5,0L5,0" stroke="#54a24b" stroke-width="1.5" opacity="1"/></g><g class="mark-text role-legend-label" pointer-events="none"><text text-anchor="start" transform="translate(16,9)" font-family="Liberation Mono" font-size="10px" fill="#000" opacity="1">HIKING_BACKPACK_PONCHO_-_Veste_impermé…</text></g></g><path class="foreground" aria-hidden="true" d="" pointer-events="none" display="none"/></g><g transform="translate(0,65)"><path class="background" aria-hidden="true" d="M0,0h328v11h-328Z" pointer-events="none" opacity="1"/><g><g class="mark-symbol role-legend-symbol" pointer-events="none"><path transform="translate(6,6)" d="M-5,0L5,0" stroke="#eeca3b" stroke-width="1.5" opacity="1"/></g><g class="mark-text role-legend-label" pointer-events="none"><text text-anchor="start" transform="translate(16,9)" font-family="Liberation Mono" font-size="10px" fill="#000" opacity="1">PONCHO_-_Cape_-_lucid_blue</text></g></g><path class="foreground" aria-hidden="true" d="" pointer-events="none" display="none"/></g><g transform="translate(0,78)"><path class="background" aria-hidden="true" d="M0,0h328v11h-328Z" pointer-events="none" opacity="1"/><g><g class="mark-symbol role-legend-symbol" pointer-events="none"><path transform="translate(6,6)" d="M-5,0L5,0" stroke="#b279a2" stroke-width="1.5" opacity="1"/></g><g class="mark-text role-legend-label" pointer-events="none"><text text-anchor="start" transform="translate(16,9)" font-family="Liberation Mono" font-size="10px" fill="#000" opacity="1">HIKING_BACKPACK_PONCHO_-_Veste_impermé…</text></g></g><path class="foreground" aria-hidden="true" d="" pointer-events="none" display="none"/></g><g transform="translate(0,91)"><path class="background" aria-hidden="true" d="M0,0h328v11h-328Z" pointer-events="none" opacity="1"/><g><g class="mark-symbol role-legend-symbol" pointer-events="none"><path transform="translate(6,6)" d="M-5,0L5,0" stroke="#ff9da6" stroke-width="1.5" opacity="1"/></g><g class="mark-text role-legend-label" pointer-events="none"><text text-anchor="start" transform="translate(16,9)" font-family="Liberation Mono" font-size="10px" fill="#000" opacity="1">PSG_M_NSW_CITY_MADE_PONCHO_-_Veste_de_…</text></g></g><path class="foreground" aria-hidden="true" d="" pointer-events="none" display="none"/></g><g transform="translate(0,104)"><path class="background" aria-hidden="true" d="M0,0h328v11h-328Z" pointer-events="none" opacity="1"/><g><g class="mark-symbol role-legend-symbol" pointer-events="none"><path transform="translate(6,6)" d="M-5,0L5,0" stroke="#9d755d" stroke-width="1.5" opacity="1"/></g><g class="mark-text role-legend-label" pointer-events="none"><text text-anchor="start" transform="translate(16,9)" font-family="Liberation Mono" font-size="10px" fill="#000" opacity="1">PONCHO_-_Peignoir_-_dark_blue</text></g></g><path class="foreground" aria-hidden="true" d="" pointer-events="none" display="none"/></g><g transform="translate(0,117)"><path class="background" aria-hidden="true" d="M0,0h328v11h-328Z" pointer-events="none" opacity="1"/><g><g class="mark-symbol role-legend-symbol" pointer-events="none"><path transform="translate(6,6)" d="M-5,0L5,0" stroke="#bab0ac" stroke-width="1.5" opacity="1"/></g><g class="mark-text role-legend-label" pointer-events="none"><text text-anchor="start" transform="translate(16,9)" font-family="Liberation Mono" font-size="10px" fill="#000" opacity="1">PARIS_ST._GERMAIN_CITY_MADE_PONCHO_-_V…</text></g></g><path class="foreground" aria-hidden="true" d="" pointer-events="none" display="none"/></g><g transform="translate(0,130)"><path class="background" aria-hidden="true" d="M0,0h328v11h-328Z" pointer-events="none" opacity="1"/><g><g class="mark-symbol role-legend-symbol" pointer-events="none"><path transform="translate(6,6)" d="M-5,0L5,0" stroke="#4c78a8" stroke-width="1.5" opacity="1"/></g><g class="mark-text role-legend-label" pointer-events="none"><text text-anchor="start" transform="translate(16,9)" font-family="Liberation Mono" font-size="10px" fill="#000" opacity="1">SHOWERPROOF_PONCHO_UNISEX_-_Cape_-_cla…</text></g></g><path class="foreground" aria-hidden="true" d="" pointer-events="none" display="none"/></g><g transform="translate(0,143)"><path class="background" aria-hidden="true" d="M0,0h328v11h-328Z" pointer-events="none" opacity="1"/><g><g class="mark-symbol role-legend-symbol" pointer-events="none"><path transform="translate(6,6)" d="M-5,0L5,0" stroke="#f58518" stroke-width="1.5" opacity="1"/></g><g class="mark-text role-legend-label" pointer-events="none"><text text-anchor="start" transform="translate(16,9)" font-family="Liberation Mono" font-size="10px" fill="#000" opacity="1">COVERO_PONCHO_II_-_Cape_-_lightgrey</text></g></g><path class="foreground" aria-hidden="true" d="" pointer-events="none" display="none"/></g></g></g><path class="foreground" aria-hidden="true" d="" pointer-events="none" display="none"/></g></g><g class="mark-text role-legend-title" pointer-events="none"><text text-anchor="start" transform="translate(0,9)" font-family="Liberation Mono" font-size="11px" font-weight="bold" fill="#000" opacity="1">item</text></g></g><path class="foreground" aria-hidden="true" d="" pointer-events="none" display="none"/></g></g></g><path class="foreground" aria-hidden="true" d="" display="none"/></g></g></g><path class="foreground" aria-hidden="true" d="" display="none"/></g></g></g></svg>