<svg xmlns="http://www.w3.org/2000/svg" xmlns:xlink="http://www.w3.org/1999/xlink" version="1.1" class="marks" width="658" height="244" viewBox="0 0 658 244"><rect width="658" height="244" fill="white"/><g fill="none" stroke-miterlimit="10" transform="translate(104,6)"><g class="mark-group role-frame root" role="graphics-object" aria-roledescription="group mark container"><g transform="translate(0,0)"><path class="background" aria-hidden="true" d="M0,0h0v0h0Z"/><g><g class="mark-group role-row-title row-title" role="graphics-object" aria-roledescription="group mark container"><g transform="translate(-78,116)"><path class="background" aria-hidden="true" d="M0,0h0v0h0Z"/><g><g class="mark-group role-title"><g transform="translate(-21.000000000000004,0)"><path class="background" aria-hidden="true" d="M0,0h0v0h0Z" pointer-events="none"/><g><g class="mark-text role-title-text" role="graphics-symbol" aria-roledescription="title" aria-label="Title text 'group'" pointer-events="none"><text text-anchor="middle" transform="translate(0,0) rotate(-90) translate(0,9)" font-family="Liberation Mono" font-size="11px" font-weight="bold" fill="#000" opacity="1">group</text></g></g><path class="foreground" aria-hidden="true" d="" pointer-events="none" display="none"/></g></g></g><path class="foreground" aria-hidden="true" d="" display="none"/></g></g><g class="mark-group role-row-header row_header" role="graphics-object" aria-roledescription="group mark container"><g transform="translate(-47,0)"><path class="background" aria-hidden="true" d="M0,0h0v200h0Z"/><g><g class="mark-group role-title"><g transform="translate(-20.000000000000007,100)"><path class="background" aria-hidden="true" d="M0,0h0v0h0Z" pointer-events="none"/><g><g class="mark-text role-title-text" role="graphics-symbol" aria-roledescription="title" aria-label="Title text 'zalando-poncho'" pointer-events="none"><text text-anchor="middle" transform="translate(0,0) rotate(-90) translate(0,8)" font-family="Liberation Mono" font-size="10px" fill="#000" opacity="1">zalando-poncho</text></g></g><path class="foreground" aria-hidden="true" d="" pointer-events="none" display="none"/></g></g></g><path class="foreground" aria-hidden="true" d="" display="none"/></g></g><g class="mark-group role-scope cell" role="graphics-object" aria-roledescription="group mark container"><g transform="translate(0,0)"><path class="background" aria-hidden="true" d="M0.5,0.5h200v200h-200Z" stroke="#ddd"/><g><g class="mark-group role-axis" aria-hidden="true"><g transform="translate(0.5,200.5)"><path class="background" aria-hidden="true" d="M0,0h0v0h0Z" pointer-events="none"/><g><g class="mark-rule role-axis-grid" pointer-events="none"><line transform="translate(28,-200)" x2="0" y2="200" stroke="#ddd" stroke-width="1" opacity="1"/><line transform="translate(84,-200)" x2="0" y2="200" stroke="#ddd" stroke-width="1" opacity="1"/><line transform="translate(140,-200)" x2="0" y2="200" stroke="#ddd" stroke-width="1" opacity="1"/><line transform="translate(196,-200)" x2="0" y2="200" stroke="#ddd" stroke-width="1" opacity="1"/></g></g><path class="foreground" aria-hidden="true" d="" pointer-events="none" display="none"/></g></g><g class="mark-group role-axis" aria-hidden="true"><g transform="translate(0.5,0.5)"><path class="background" aria-hidden="true" d="M0,0h0v0h0Z" pointer-events="none"/><g><g class="mark-rule role-axis-grid" pointer-events="none"><line transform="translate(0,200)" x2="200" y2="0" stroke="#ddd" stroke-width="1" opacity="1"/><line transform="translate(0,144)" x2="200" y2="0" stroke="#ddd" stroke-width="1" opacity="1"/><line transform="translate(0,89)" x2="200" y2="0" stroke="#ddd" stroke-width="1" opacity="1"/><line transform="translate(0,33)" x2="200" y2="0" stroke="#ddd" stroke-width="1" opacity="1"/></g></g><path class="foreground" aria-hidden="true" d="" pointer-events="none" display="none"/></g></g><g class="mark-group role-axis" role="graphics-symbol" aria-roledescription="axis" aria-label="X-axis titled 'Time' for a time scale with values from Wednesday, 30 August 2023, 12:58:24 PM to Sunday, 24 September 2023, 12:55:26 PM"><g transform="translate(0.5,200.5)"><path class="background" aria-hidden="true" d="M0,0h0v0h0Z" pointer-events="none"/><g><g class="mark-rule role-axis-tick" pointer-events="none"><line transform="translate(28,0)" x2="0" y2="5" stroke="#888" stroke-width="1" opacity="1"/><line transform="translate(84,0)" x2="0" y2="5" stroke="#888" stroke-width="1" opacity="1"/><line transform="translate(140,0)" x2="0" y2="5" stroke="#888" stroke-width="1" opacity="1"/><line transform="translate(196,0)" x2="0" y2="5" stroke="#888" stroke-width="1" opacity="1"/></g><g class="mark-text role-axis-label" pointer-events="none"><text text-anchor="middle" transform="translate(27.677828433455005,15)" font-family="Liberation Mono" font-size="10px" fill="#000" opacity="1">Sep 03</text><text text-anchor="middle" transform="translate(83.68243310093709,15)" font-family="Liberation Mono" font-size="10px" fill="#000" opacity="1">Sep 10</text><text text-anchor="middle" transform="translate(139.6870377684192,15)" font-family="Liberation Mono" font-size="10px" fill="#000" opacity="1">Sep 17</text><text text-anchor="middle" transform="translate(195.69164243590126,15)" font-family="Liberation Mono" font-size="10px" fill="#000" opacity="1">Sep 24</text></g><g class="mark-rule role-axis-domain" pointer-events="none"><line transform="translate(0,0)" x2="200" y2="0" stroke="#888" stroke-width="1" opacity="1"/></g><g class="mark-text role-axis-title" pointer-events="none"><text text-anchor="middle" transform="translate(100,30)" font-family="Liberation Mono" font-size="11px" font-weight="bold" fill="#000" opacity="1">Time</text></g></g><path class="foreground" aria-hidden="true" d="" pointer-events="none" display="none"/></g></g><g class="mark-group role-axis" role="graphics-symbol" aria-roledescription="axis" aria-label="Y-axis titled 'Price' for a linear scale with values from 0 to 18,000"><g transform="translate(0.5,0.5)"><path class="background" aria-hidden="true" d="M0,0h0v0h0Z" pointer-events="none"/><g><g class="mark-rule role-axis-tick" pointer-events="none"><line transform="translate(0,200)" x2="-5" y2="0" stroke="#888" stroke-width="1" opacity="1"/><line transform="translate(0,144)" x2="-5" y2="0" stroke="#888" stroke-width="1" opacity="1"/><line transform="translate(0,89)" x2="-5" y2="0" stroke="#888" stroke-width="1" opacity="1"/><line transform="translate(0,33)" x2="-5" y2="0" stroke="#888" stroke-width="1" opacity="1"/></g><g class="mark-text role-axis-label" pointer-events="none"><text text-anchor="end" transform="translate(-7,203)" font-family="Liberation Mono" font-size="10px" fill="#000" opacity="1">0</text><text text-anchor="end" transform="translate(-7,147.44444444444443)" font-family="Liberation Mono" font-size="10px" fill="#000" opacity="1">50</text><text text-anchor="end" transform="translate(-7,91.88888888888889)" font-family="Liberation Mono" font-size="10px" fill="#000" opacity="1">100</text><text text-anchor="end" transform="translate(-7,36.33333333333333)" font-family="Liberation Mono" font-size="10px" fill="#000" opacity="1">150</text></g><g class="mark-rule role-axis-domain" pointer-events="none"><line transform="translate(0,200)" x2="0" y2="-200" stroke="#888" stroke-width="1" opacity="1"/></g><g class="mark-text role-axis-title" pointer-events="none"><text text-anchor="middle" transform="translate(-35,100) rotate(-90) translate(0,-2)" font-family="Liberation Mono" font-size="11px" font-weight="bold" fill="#000" opacity="1">Price</text></g></g><path class="foreground" aria-hidden="true" d="" pointer-events="none" display="none"/></g></g><g class="mark-group role-scope child_pathgroup" role="graphics-object" aria-roledescription="group mark container"><g transform="translate(0,0)"><path class="background" aria-hidden="true" d="M0,0h200v200h-200Z"/><g><g class="mark-line role-mark child_marks" role="graphics-object" aria-roledescription="line mark container"><path aria-label="Time: Aug 30, 2023; Price: 10795; item: DESCHUTES_VALLEY™_RAIN_PONCHO_-_Parka_-_black" role="graphics-symbol" aria-roledescription="line mark" d="M0,80.056L1.299,80.056L2.626,80.056L5.292,80.056L6.624,80.056L8.004,80.056L9.292,80.056L10.624,80.056L13.296,80.056L14.625,80.056L16.001,80.056L17.291,80.056L18.625,80.056L21.293,80.056L22.626,80.056L23.985,80.056L25.291,80.056L26.626,80.056L29.294,80.056L31.585,80.056L31.99,80.056L33.293,80.056L34.628,80.056L37.295,80.056L38.631,80.056L40.008,80.056L41.293,80.056L42.626,80.056L45.302,50.056L46.636,50.056L48.007,50.056L49.297,50.056L50.627,50.056L53.295,50.056L54.628,50.056L56.011,50.056L57.295,50.056L58.629,50.056L61.299,50.056L62.631,50.056L64.006,50.056L65.297,50.056L66.63,50.056L70.136,50.056L70.629,50.056L72.003,50.056L73.295,50.056L74.63,50.056L77.294,50.056L78.63,50.056L79.989,50.056L81.297,50.056L82.63,50.056L85.298,50.056L86.63,50.056L87.989,50.056L89.296,50.056L90.63,50.056L93.296,50.056L94.63,50.056L96.014,50.056L97.297,50.056L98.63,50.056L101.299,50.056L102.63,50.056L104.01,50.056L105.298,50.056L106.633,50.056L109.3,20.056L110.633,20.056L112.014,20.056L112.718,20.056L113.299,20.056L114.633,20.056L117.299,20.056L118.632,20.056L120.015,20.056L121.301,20.056L122.633,20.056L125.299,20.056L126.633,20.056L128.01,20.056L129.299,20.056L130.633,20.056L133.3,20.056L134.634,20.056L135.991,20.056L137.301,20.056L138.632,20.056L141.3,20.056L142.634,20.056L143.994,20.056L145.301,20.056L146.635,20.056L149.302,20.056L150.635,20.056L152.019,20.056L153.302,20.056L154.637,20.056L157.301,20.056L158.635,20.056L160.018,20.056L161.302,20.056L162.636,20.056L165.301,20.056L166.638,20.056L168.02,20.056L169.303,20.056L170.636,20.056L173.303,20.056L174.636,20.056L176.021,20.056L177.304,20.056L178.638,20.056L181.305,20.056L182.638,20.056L184.016,20.056L185.305,20.056L186.637,20.056L189.304,20.056L190.639,20.056L191.997,20.056L193.305,20.056L194.64,20.056L197.305,20.056L198.639,20.056L200,20.056" stroke="#e45756" stroke-width="2"/></g></g><path class="foreground" aria-hidden="true" d="" display="none"/></g><g transform="translate(0,0)"><path class="background" aria-hidden="true" d="M0,0h200v200h-200Z"/><g><g class="mark-line role-mark child_marks" role="graphics-object" aria-roledescription="line mark container"><path aria-label="Time: Aug 30, 2023; Price: 8995; item: HIKING_BACKPACK_PONCHO_-_Veste_imperméable_-_blue" role="graphics-symbol" aria-roledescription="line mark" d="M0,100.056L1.299,100.056L2.626,100.056L5.292,100.056L6.625,100.056L8.004,100.056L9.292,100.056L10.624,100.056L13.296,100.056L14.625,100.056L16.001,100.056L17.291,100.056L18.625,100.056L21.293,100.056L22.626,100.056L23.985,100.056L25.291,100.056L26.626,100.056L29.294,100.056L31.585,100.056L31.99,100.056L94.63,100.056L96.014,100.056L97.297,100.056L98.63,100.056L101.299,100.056L102.63,100.056L104.01,100.056L105.298,100.056L106.633,100.056L109.3,100.056L110.633,100.056L112.014,100.056L112.718,100.056L113.299,100.056L114.633,100.056L117.299,100.056L118.632,100.056L120.015,100.056L121.301,100.056L122.633,100.056L125.299,100.056L126.633,100.056L128.01,100.056L129.299,100.056L130.633,100.056L133.3,100.056L134.634,100.056L135.991,100.056L137.301,100.056L138.632,100.056L141.3,100.056L142.634,100.056" stroke="#72b7b2" stroke-width="2"/></g></g><path class="foreground" aria-hidden="true" d="" display="none"/></g><g transform="translate(0,0)"><path class="background" aria-hidden="true" d="M0,0h200v200h-200Z"/><g><g class="mark-line role-mark child_marks" role="graphics-object" aria-roledescription="line mark container"><path aria-label="Time: Aug 30, 2023; Price: 16195; item: DESCHUTES_VALLEY™_RAIN_PONCHO_-_Parka_-_vista_blue" role="graphics-symbol" aria-roledescription="line mark" d="M0,20.056L1.299,20.056L2.626,20.056L5.292,20.056L6.625,20.056L8.004,20.056L9.292,20.056L10.624,20.056L13.296,20.056L14.625,20.056L16.001,20.056L17.291,20.056L18.625,20.056L21.293,20.056L22.626,20.056L23.985,20.056L25.291,20.056L26.626,20.056L29.294,20.056L31.585,20.056L31.99,20.056L33.293,20.056L34.628,20.056L37.295,20.056L38.631,20.056L40.008,20.056L41.293,20.056L42.626,20.056L45.302,80.056L46.636,80.056L48.007,80.056L49.297,80.056L50.627,80.056L53.295,80.056L54.628,80.056L56.011,80.056L57.295,80.056L58.629,80.056L61.299,80.056L62.631,80.056L64.006,80.056L65.297,80.056L66.63,80.056L70.136,80.056L70.629,80.056L72.003,80.056L73.295,80.056L74.63,80.056L77.294,80.056L78.63,80.056L79.989,80.056L81.297,80.056L82.63,80.056L85.298,80.056L86.63,80.056L87.989,80.056L89.296,80.056L90.63,80.056L93.296,80.056L94.63,80.056L96.014,80.056L97.297,80.056L98.63,80.056L101.299,80.056L102.63,80.056L104.01,80.056L105.298,80.056L106.633,80.056L109.299,20.056L110.633,20.056L112.014,20.056L112.718,20.056L113.299,20.056L114.633,20.056L117.299,20.056L118.632,20.056L120.015,20.056L121.301,20.056L122.633,20.056L125.299,20.056L126.633,20.056L128.01,20.056L129.299,20.056L130.633,20.056L133.3,20.056L134.634,20.056L135.991,20.056L137.301,20.056L138.632,20.056L141.3,20.056L142.634,20.056L143.994,20.056L145.301,20.056L146.635,20.056L149.302,20.056L150.635,20.056L152.019,20.056L153.302,20.056L154.637,20.056L157.301,20.056L158.635,20.056L160.018,20.056L161.302,20.056L162.636,20.056L165.301,20.056L166.638,20.056L168.02,20.056L169.303,20.056L170.636,20.056L173.303,20.056L174.636,20.056L176.021,20.056L177.304,20.056L178.638,20.056L181.305,20.056L182.638,20.056L184.016,20.056L185.305,20.056L186.637,20.056L189.304,20.056L190.639,20.056L191.997,20.056L193.305,20.056L194.64,20.056L197.305,20.056L198.639,20.056L200,20.056" stroke="#f58518" stroke-width="2"/></g></g><path class="foreground" aria-hidden="true" d="" display="none"/></g><g transform="translate(0,0)"><path class="background" aria-hidden="true" d="M0,0h200v200h-200Z"/><g><g class="mark-line role-mark child_marks" role="graphics-object" aria-roledescription="line mark container"><path aria-label="Time: Aug 30, 2023; Price: 5495; item: COVERO_PONCHO_II_-_Cape_-_lightgrey" role="graphics-symbol" aria-roledescription="line mark" d="M0,138.944L1.299,138.944L2.626,138.944L5.292,138.944L6.625,138.944L8.004,138.944L9.292,138.944L10.624,138.944L13.296,138.944L14.626,138.944L22.626,138.944L23.985,138.944L25.291,138.944L26.626,138.944L29.294,138.944L31.585,138.944L31.99,138.944L33.293,138.944L34.628,138.944L37.295,138.944L38.631,138.944L40.008,138.944L41.293,138.944L42.626,138.944L45.302,138.944L46.636,138.944L48.007,138.944L49.297,138.944L50.627,138.944L73.295,153.944L86.63,138.944L87.99,138.944L89.296,138.944L90.63,138.944L93.296,138.944L94.63,138.944L96.014,138.944L97.297,138.944L98.63,138.944L101.299,138.944L102.63,138.944L104.01,138.944L105.298,138.944L106.633,138.944L109.3,138.944L110.633,138.944L112.014,138.944L112.718,138.944L113.299,138.944L114.633,138.944L117.299,138.944L118.632,138.944L120.015,138.944L121.301,138.944L122.633,138.944L125.299,138.944L126.633,138.944L128.01,138.944L129.299,138.944L130.633,138.944L133.3,138.944L134.634,138.944L135.991,138.944L137.301,138.944L138.632,138.944L141.3,138.944L142.634,138.944L143.994,138.944L145.301,138.944L146.635,138.944L149.302,138.944L150.635,138.944L152.019,138.944L153.302,138.944L154.637,138.944L157.301,138.944L158.635,138.944L160.018,138.944L161.302,138.944L162.636,138.944L165.301,151.167L166.638,151.167L168.02,151.167L169.303,151.167L170.636,151.167L173.303,151.167L174.636,151.167L176.021,151.167L177.304,151.167L178.638,151.167L181.305,151.167L182.638,151.167L184.016,151.167L190.639,151.167L191.997,151.167L193.305,151.167L194.64,151.167L197.305,151.167L198.639,151.167L200,151.167" stroke="#b279a2" stroke-width="2"/></g></g><path class="foreground" aria-hidden="true" d="" display="none"/></g><g transform="translate(0,0)"><path class="background" aria-hidden="true" d="M0,0h200v200h-200Z"/><g><g class="mark-line role-mark child_marks" role="graphics-object" aria-roledescription="line mark container"><path aria-label="Time: Sep 01, 2023; Price: 12995; item: KUURA_3L_PONCHO_UNISEX_-_Veste_imperméable_-_green" role="graphics-symbol" aria-roledescription="line mark" d="M18.625,55.611L21.293,55.611L22.626,55.611L23.985,55.611L38.631,55.611L40.008,55.611L41.293,55.611L42.626,55.611L45.302,11.167L46.636,11.167L48.007,11.167L49.297,11.167L50.627,11.167L53.295,11.167L54.628,11.167L56.011,11.167L57.295,11.167L58.629,11.167L61.299,11.167L62.631,11.167L64.006,11.167L65.297,11.167L66.63,11.167L70.136,11.167L70.629,11.167L72.003,11.167L73.295,11.167L74.63,11.167L77.294,11.167L78.63,11.167L79.989,11.167L81.297,11.167L82.63,11.167L85.298,11.167L86.63,11.167L87.99,11.167L89.296,11.167L90.63,11.167L93.296,11.167L94.63,11.167L96.014,11.167L97.297,11.167L101.299,11.167L102.63,11.167L104.01,11.167L105.298,11.167L106.633,11.167L135.991,22.278L137.301,22.278L138.632,22.278L141.3,22.278L142.634,22.278L143.994,22.278L145.301,22.278L146.635,22.278L149.302,22.278L150.635,22.278L152.019,22.278L158.635,22.278L160.018,22.278L161.302,22.278L162.636,22.278L165.301,22.278L166.638,22.278" stroke="#4c78a8" stroke-width="2"/></g></g><path class="foreground" aria-hidden="true" d="" display="none"/></g><g transform="translate(0,0)"><path class="background" aria-hidden="true" d="M0,0h200v200h-200Z"/><g><g class="mark-line role-mark child_marks" role="graphics-object" aria-roledescription="line mark container"><path aria-label="Time: Sep 14, 2023; Price: 6495; item: PARIS_ST._GERMAIN_CITY_MADE_PONCHO_-_Veste_de_survêtement_-_aura_white" role="graphics-symbol" aria-roledescription="line mark" d="M117.299,127.833L118.632,127.833L120.015,127.833L121.301,127.833L122.633,127.833L125.299,127.833L126.633,127.833L133.3,127.833L142.634,127.833L143.994,127.833L145.301,127.833L146.635,127.833L149.302,127.833L150.635,127.833L152.019,127.833L153.302,127.833L154.637,127.833L157.301,127.833L158.635,127.833L160.018,127.833L161.302,127.833L162.636,127.833L165.301,127.833L166.638,127.833L168.02,127.833L169.303,127.833L170.636,127.833L173.303,127.833L174.636,127.833L176.021,127.833L177.304,127.833L178.638,127.833L181.305,127.833L182.638,127.833L184.016,127.833L185.305,127.833L186.637,127.833L189.304,127.833L190.639,127.833L191.997,127.833L193.305,127.833L194.64,127.833L197.305,127.833L198.639,127.833L200,127.833" stroke="#eeca3b" stroke-width="2"/></g></g><path class="foreground" aria-hidden="true" d="" display="none"/></g><g transform="translate(0,0)"><path class="background" aria-hidden="true" d="M0,0h200v200h-200Z"/><g><g class="mark-line role-mark child_marks" role="graphics-object" aria-roledescription="line mark container"><path aria-label="Time: Sep 18, 2023; Price: 8995; item: HIKING_BACKPACK_PONCHO_-_Veste_imperméable_-_indian_red" role="graphics-symbol" aria-roledescription="line mark" d="M149.302,100.056L150.635,100.056L152.019,100.056L153.302,100.056L154.637,100.056L157.301,100.056L158.635,100.056" stroke="#54a24b" stroke-width="2"/></g></g><path class="foreground" aria-hidden="true" d="" display="none"/></g></g><g class="mark-group role-legend" role="graphics-symbol" aria-roledescription="legend" aria-label="Symbol legend titled 'item' for stroke color with 7 values: KUURA_3L_PONCHO_UNISEX_-_Veste_imperméable_-_green, DESCHUTES_VALLEY™_RAIN_PONCHO_-_Parka_-_vista_blue, DESCHUTES_VALLEY™_RAIN_PONCHO_-_Parka_-_black, HIKING_BACKPACK_PONCHO_-_Veste_imperméable_-_blue, HIKING_BACKPACK_PONCHO_-_Veste_imperméable_-_indian_red, PARIS_ST._GERMAIN_CITY_MADE_PONCHO_-_Veste_de_survêtement_-_aura_white, COVERO_PONCHO_II_-_Cape_-_lightgrey"><g transform="translate(220,0)"><path class="background" aria-hidden="true" d="M0,0h328v105h-328Z" pointer-events="none"/><g><g class="mark-group role-legend-entry"><g transform="translate(0,16)"><path class="background" aria-hidden="true" d="M0,0h0v0h0Z" pointer-events="none"/><g><g class="mark-group role-scope" role="graphics-object" aria-roledescription="group mark container"><g transform="translate(0,0)"><path class="background" aria-hidden="true" d="M0,0h328v11h-328Z" pointer-events="none" opacity="1"/><g><g class="mark-symbol role-legend-symbol" pointer-events="none"><path transform="translate(6,6)" d="M-5,0L5,0" stroke="#4c78a8" stroke-width="1.5" opacity="1"/></g><g class="mark-text role-legend-label" pointer-events="none"><text text-anchor="start" transform="translate(16,9)" font-family="Liberation Mono" font-size="10px" fill="#000" opacity="1">KUURA_3L_PONCHO_UNISEX_-_Veste_impermé…</text></g></g><path class="foreground" aria-hidden="true" d="" pointer-events="none" display="none"/></g><g transform="translate(0,13)"><path class="background" aria-hidden="true" d="M0,0h328v11h-328Z" pointer-events="none" opacity="1"/><g><g class="mark-symbol role-legend-symbol" pointer-events="none"><path transform="translate(6,6)" d="M-5,0L5,0" stroke="#f58518" stroke-width="1.5" opacity="1"/></g><g class="mark-text role-legend-label" pointer-events="none"><text text-anchor="start" transform="translate(16,9)" font-family="Liberation Mono" font-size="10px" fill="#000" opacity="1">DESCHUTES_VALLEY™_RAIN_PONCHO_-_Parka_…</text></g></g><path class="foreground" aria-hidden="true" d="" pointer-events="none" display="none"/></g><g transform="translate(0,26)"><path class="background" aria-hidden="true" d="M0,0h328v11h-328Z" pointer-events="none" opacity="1"/><g><g class="mark-symbol role-legend-symbol" pointer-events="none"><path transform="translate(6,6)" d="M-5,0L5,0" stroke="#e45756" stroke-width="1.5" opacity="1"/></g><g class="mark-text role-legend-label" pointer-events="none"><text text-anchor="start" transform="translate(16,9)" font-family="Liberation Mono" font-size="10px" fill="#000" opacity="1">DESCHUTES_VALLEY™_RAIN_PONCHO_-_Parka_…</text></g></g><path class="foreground" aria-hidden="true" d="" pointer-events="none" display="none"/></g><g transform="translate(0,39)"><path class="background" aria-hidden="true" d="M0,0h328v11h-328Z" pointer-events="none" opacity="1"/><g><g class="mark-symbol role-legend-symbol" pointer-events="none"><path transform="translate(6,6)" d="M-5,0L5,0" stroke="#72b7b2" stroke-width="1.5" opacity="1"/></g><g class="mark-text role-legend-label" pointer-events="none"><text text-anchor="start" transform="translate(16,9)" font-family="Liberation Mono" font-size="10px" fill="#000" opacity="1">HIKING_BACKPACK_PONCHO_-_Veste_impermé…</text></g></g><path class="foreground" aria-hidden="true" d="" pointer-events="none" display="none"/></g><g transform="translate(0,52)"><path class="background" aria-hidden="true" d="M0,0h328v11h-328Z" pointer-events="none" opacity="1"/><g><g class="mark-symbol role-legend-symbol" pointer-events="none"><path transform="translate(6,6)" d="M-5,0L5,0" stroke="#54a24b" stroke-width="1.5" opacity="1"/></g><g class="mark-text role-legend-label" pointer-events="none"><text text-anchor="start" transform="translate(16,9)" font-family="Liberation Mono" font-size="10px" fill="#000" opacity="1">HIKING_BACKPACK_PONCHO_-_Veste_impermé…</text></g></g><path class="foreground" aria-hidden="true" d="" pointer-events="none" display="none"/></g><g transform="translate(0,65)"><path class="background" aria-hidden="true" d="M0,0h328v11h-328Z" pointer-events="none" opacity="1"/><g><g class="mark-symbol role-legend-symbol" pointer-events="none"><path transform="translate(6,6)" d="M-5,0L5,0" stroke="#eeca3b" stroke-width="1.5" opacity="1"/></g><g class="mark-text role-legend-label" pointer-events="none"><text text-anchor="start" transform="translate(16,9)" font-family="Liberation Mono" font-size="10px" fill="#000" opacity="1">PARIS_ST._GERMAIN_CITY_MADE_PONCHO_-_V…</text></g></g><path class="foreground" aria-hidden="true" d="" pointer-events="none" display="none"/></g><g transform="translate(0,78)"><path class="background" aria-hidden="true" d="M0,0h328v11h-328Z" pointer-events="none" opacity="1"/><g><g class="mark-symbol role-legend-symbol" pointer-events="none"><path transform="translate(6,6)" d="M-5,0L5,0" stroke="#b279a2" stroke-width="1.5" opacity="1"/></g><g class="mark-text role-legend-label" pointer-events="none"><text text-anchor="start" transform="translate(16,9)" font-family="Liberation Mono" font-size="10px" fill="#000" opacity="1">COVERO_PONCHO_II_-_Cape_-_lightgrey</text></g></g><path class="foreground" aria-hidden="true" d="" pointer-events="none" display="none"/></g></g></g><path class="foreground" aria-hidden="true" d="" pointer-events="none" display="none"/></g></g><g class="mark-text role-legend-title" pointer-events="none"><text text-anchor="start" transform="translate(0,9)" font-family="Liberation Mono" font-size="11px" font-weight="bold" fill="#000" opacity="1">item</text></g></g><path class="foreground" aria-hidden="true" d="" pointer-events="none" display="none"/></g></g></g><path class="foreground" aria-hidden="true" d="" display="none"/></g></g></g><path class="foreground" aria-hidden="true" d="" display="none"/></g></g></g></svg>