<svg xmlns="http://www.w3.org/2000/svg" xmlns:xlink="http://www.w3.org/1999/xlink" version="1.1" class="marks" width="658" height="244" viewBox="0 0 658 244"><rect width="658" height="244" fill="white"/><g fill="none" stroke-miterlimit="10" transform="translate(104,6)"><g class="mark-group role-frame root" role="graphics-object" aria-roledescription="group mark container"><g transform="translate(0,0)"><path class="background" aria-hidden="true" d="M0,0h0v0h0Z"/><g><g class="mark-group role-row-title row-title" role="graphics-object" aria-roledescription="group mark container"><g transform="translate(-78,116)"><path class="background" aria-hidden="true" d="M0,0h0v0h0Z"/><g><g class="mark-group role-title"><g transform="translate(-21.000000000000004,0)"><path class="background" aria-hidden="true" d="M0,0h0v0h0Z" pointer-events="none"/><g><g class="mark-text role-title-text" role="graphics-symbol" aria-roledescription="title" aria-label="Title text 'group'" pointer-events="none"><text text-anchor="middle" transform="translate(0,0) rotate(-90) translate(0,9)" font-family="Liberation Mono" font-size="11px" font-weight="bold" fill="#000" opacity="1">group</text></g></g><path class="foreground" aria-hidden="true" d="" pointer-events="none" display="none"/></g></g></g><path class="foreground" aria-hidden="true" d="" display="none"/></g></g><g class="mark-group role-row-header row_header" role="graphics-object" aria-roledescription="group mark container"><g transform="translate(-47,0)"><path class="background" aria-hidden="true" d="M0,0h0v200h0Z"/><g><g class="mark-group role-title"><g transform="translate(-20.000000000000007,100)"><path class="background" aria-hidden="true" d="M0,0h0v0h0Z" pointer-events="none"/><g><g class="mark-text role-title-text" role="graphics-symbol" aria-roledescription="title" aria-label="Title text 'zalando-poncho'" pointer-events="none"><text text-anchor="middle" transform="translate(0,0) rotate(-90) translate(0,8)" font-family="Liberation Mono" font-size="10px" fill="#000" opacity="1">zalando-poncho</text></g></g><path class="foreground" aria-hidden="true" d="" pointer-events="none" display="none"/></g></g></g><path class="foreground" aria-hidden="true" d="" display="none"/></g></g><g class="mark-group role-scope cell" role="graphics-object" aria-roledescription="group mark container"><g transform="translate(0,0)"><path class="background" aria-hidden="true" d="M0.5,0.5h200v200h-200Z" stroke="#ddd"/><g><g class="mark-group role-axis" aria-hidden="true"><g transform="translate(0.5,200.5)"><path class="background" aria-hidden="true" d="M0,0h0v0h0Z" pointer-events="none"/><g><g class="mark-rule role-axis-grid" pointer-events="none"><line transform="translate(2,-200)" x2="0" y2="200" stroke="#ddd" stroke-width="1" opacity="1"/><line transform="translate(37,-200)" x2="0" y2="200" stroke="#ddd" stroke-width="1" opacity="1"/><line transform="translate(74,-200)" x2="0" y2="200" stroke="#ddd" stroke-width="1" opacity="1"/><line transform="translate(110,-200)" x2="0" y2="200" stroke="#ddd" stroke-width="1" opacity="1"/><line transform="translate(147,-200)" x2="0" y2="200" stroke="#ddd" stroke-width="1" opacity="1"/><line transform="translate(184,-200)" x2="0" y2="200" stroke="#ddd" stroke-width="1" opacity="1"/></g></g><path class="foreground" aria-hidden="true" d="" pointer-events="none" display="none"/></g></g><g class="mark-group role-axis" aria-hidden="true"><g transform="translate(0.5,0.5)"><path class="background" aria-hidden="true" d="M0,0h0v0h0Z" pointer-events="none"/><g><g class="mark-rule role-axis-grid" pointer-events="none"><line transform="translate(0,200)" x2="200" y2="0" stroke="#ddd" stroke-width="1" opacity="1"/><line transform="translate(0,144)" x2="200" y2="0" stroke="#ddd" stroke-width="1" opacity="1"/><line transform="translate(0,89)" x2="200" y2="0" stroke="#ddd" stroke-width="1" opacity="1"/><line transform="translate(0,33)" x2="200" y2="0" stroke="#ddd" stroke-width="1" opacity="1"/></g></g><path class="foreground" aria-hidden="true" d="" pointer-events="none" display="none"/></g></g><g class="mark-group role-axis" role="graphics-symbol" aria-roledescription="axis" aria-label="X-axis titled 'Time' for a time scale with values from Wednesday, 30 August 2023, 12:58:24 PM to Wednesday, 14 February 2024, 12:54:52 PM"><g transform="translate(0.5,200.5)"><path class="background" aria-hidden="true" d="M0,0h0v0h0Z" pointer-events="none"/><g><g class="mark-rule role-axis-tick" pointer-events="none"><line transform="translate(2,0)" x2="0" y2="5" stroke="#888" stroke-width="1" opacity="1"/><line transform="translate(37,0)" x2="0" y2="5" stroke="#888" stroke-width="1" opacity="1"/><line transform="translate(74,0)" x2="0" y2="5" stroke="#888" stroke-width="1" opacity="1"/><line transform="translate(110,0)" x2="0" y2="5" stroke="#888" stroke-width="1" opacity="1"/><line transform="translate(147,0)" x2="0" y2="5" stroke="#888" stroke-width="1" opacity="1"/><line transform="translate(184,0)" x2="0" y2="5" stroke="#888" stroke-width="1" opacity="1"/></g><g class="mark-text role-axis-label" pointer-events="none"><text text-anchor="middle" transform="translate(1.7374588121519308,15)" font-family="Liberation Mono" font-size="10px" fill="#000" opacity="1">September</text><text text-anchor="middle" transform="translate(37.452265884081385,15)" font-family="Liberation Mono" font-size="10px" fill="#000" opacity="0">October</text><text text-anchor="middle" transform="translate(74.35756652507516,15)" font-family="Liberation Mono" font-size="10px" fill="#000" opacity="1">November</text><text text-anchor="middle" transform="translate(110.07237359700461,15)" font-family="Liberation Mono" font-size="10px" fill="#000" opacity="0">December</text><text text-anchor="middle" transform="translate(146.9776742379984,15)" font-family="Liberation Mono" font-size="10px" fill="#000" opacity="1">2024</text><text text-anchor="middle" transform="translate(183.88297487899217,15)" font-family="Liberation Mono" font-size="10px" fill="#000" opacity="0">February</text></g><g class="mark-rule role-axis-domain" pointer-events="none"><line transform="translate(0,0)" x2="200" y2="0" stroke="#888" stroke-width="1" opacity="1"/></g><g class="mark-text role-axis-title" pointer-events="none"><text text-anchor="middle" transform="translate(100,30)" font-family="Liberation Mono" font-size="11px" font-weight="bold" fill="#000" opacity="1">Time</text></g></g><path class="foreground" aria-hidden="true" d="" pointer-events="none" display="none"/></g></g><g class="mark-group role-axis" role="graphics-symbol" aria-roledescription="axis" aria-label="Y-axis titled 'Price' for a linear scale with values from 0 to 18,000"><g transform="translate(0.5,0.5)"><path class="background" aria-hidden="true" d="M0,0h0v0h0Z" pointer-events="none"/><g><g class="mark-rule role-axis-tick" pointer-events="none"><line transform="translate(0,200)" x2="-5" y2="0" stroke="#888" stroke-width="1" opacity="1"/><line transform="translate(0,144)" x2="-5" y2="0" stroke="#888" stroke-width="1" opacity="1"/><line transform="translate(0,89)" x2="-5" y2="0" stroke="#888" stroke-width="1" opacity="1"/><line transform="translate(0,33)" x2="-5" y2="0" stroke="#888" stroke-width="1" opacity="1"/></g><g class="mark-text role-axis-label" pointer-events="none"><text text-anchor="end" transform="translate(-7,203)" font-family="Liberation Mono" font-size="10px" fill="#000" opacity="1">0</text><text text-anchor="end" transform="translate(-7,147.44444444444443)" font-family="Liberation Mono" font-size="10px" fill="#000" opacity="1">50</text><text text-anchor="end" transform="translate(-7,91.88888888888889)" font-family="Liberation Mono" font-size="10px" fill="#000" opacity="1">100</text><text text-anchor="end" transform="translate(-7,36.33333333333333)" font-family="Liberation Mono" font-size="10px" fill="#000" opacity="1">150</text></g><g class="mark-rule role-axis-domain" pointer-events="none"><line transform="translate(0,200)" x2="0" y2="-200" stroke="#888" stroke-width="1" opacity="1"/></g><g class="mark-text role-axis-title" pointer-events="none"><text text-anchor="middle" transform="translate(-35,100) rotate(-90) translate(0,-2)" font-family="Liberation Mono" font-size="11px" font-weight="bold" fill="#000" opacity="1">Price</text></g></g><path class="foreground" aria-hidden="true" d="" pointer-events="none" display="none"/></g></g><g class="mark-group role-scope child_pathgroup" role="graphics-object" aria-roledescription="group mark container"><g transform="translate(0,0)"><path class="background" aria-hidden="true" d="M0,0h200v200h-200Z"/><g><g class="mark-line role-mark child_marks" role="graphics-object" aria-roledescription="line mark container"><path aria-label="Time: Aug 30, 2023; Price: 10795; item: DESCHUTES_VALLEY™_RAIN_PONCHO_-_Parka_-_black" role="graphics-symbol" aria-roledescription="line mark" d="M0,80.056L0.193,80.056L0.391,80.056L0.787,80.056L0.986,80.056L1.191,80.056L1.383,80.056L1.581,80.056L1.978,80.056L2.176,80.056L2.381,80.056L2.573,80.056L2.771,80.056L3.168,80.056L3.367,80.056L3.569,80.056L3.763,80.056L3.962,80.056L4.359,80.056L4.7,80.056L4.76,80.056L4.954,80.056L5.153,80.056L5.549,80.056L5.748,80.056L5.953,80.056L6.144,80.056L6.343,80.056L6.741,50.056L6.939,50.056L7.143,50.056L7.335,50.056L7.533,50.056L7.93,50.056L8.129,50.056L8.334,50.056L8.525,50.056L8.724,50.056L9.121,50.056L9.319,50.056L9.524,50.056L9.716,50.056L9.915,50.056L10.436,50.056L10.51,50.056L10.714,50.056L10.906,50.056L11.105,50.056L11.501,50.056L11.7,50.056L11.902,50.056L12.097,50.056L12.295,50.056L12.692,50.056L12.89,50.056L13.093,50.056L13.287,50.056L13.486,50.056L13.882,50.056L14.081,50.056L14.287,50.056L14.478,50.056L14.676,50.056L15.073,50.056L15.271,50.056L15.477,50.056L15.668,50.056L15.867,50.056L16.264,20.056L16.462,20.056L16.668,20.056L16.772,20.056L16.859,20.056L17.057,20.056L17.454,20.056L17.652,20.056L17.858,20.056L18.05,20.056L18.248,20.056L18.644,20.056L18.843,20.056L19.048,20.056L19.24,20.056L19.438,20.056L19.835,20.056L20.034,20.056L20.235,20.056L20.43,20.056L20.628,20.056L21.025,20.056L21.224,20.056L21.426,20.056L21.621,20.056L21.819,20.056L22.216,20.056L22.414,20.056L22.62,20.056L22.811,20.056L23.01,20.056L23.406,20.056L23.605,20.056L23.811,20.056L24.002,20.056L24.2,20.056L24.597,20.056L24.796,20.056L25.001,20.056L25.192,20.056L25.391,20.056L25.787,20.056L25.986,20.056L26.192,20.056L26.383,20.056L26.581,20.056L26.978,20.056L27.176,20.056L27.381,20.056L27.573,20.056L27.771,20.056L28.168,20.056L28.367,20.056L28.569,20.056L28.764,20.056L28.962,20.056L29.359,20.056L29.557,20.056L29.76,20.056L29.954,20.056L30.152,20.056L30.55,20.056L30.748,20.056L30.954,20.056L31.145,20.056L31.343,20.056L31.74,20.056L31.939,20.056L32.145,20.056L32.335,20.056L32.534,20.056L32.93,40.056L33.129,40.056L33.335,40.056L33.526,40.056L33.724,40.056L34.121,40.056L34.319,40.056L34.525,40.056L34.716,40.056L35.311,40.056L35.51,40.056L35.715,40.056L35.907,40.056L36.105,40.056L36.502,40.056L36.7,40.056L36.903,40.056L37.097,40.056L37.295,40.056L37.692,40.056L37.891,40.056L38.094,40.056L38.288,40.056L38.486,40.056L38.883,100.056L39.081,100.056L39.287,100.056L39.478,100.056L39.677,100.056L40.074,90.056L40.272,90.056L40.478,90.056L40.669,90.056L40.867,90.056L41.264,90.056L41.462,90.056L41.669,90.056L41.859,90.056L42.058,90.056L42.454,90.056L42.653,90.056L42.86,90.056L43.05,90.056L43.248,90.056L43.645,90.056L43.844,90.056L44.049,90.056L44.24,90.056L44.439,90.056L44.835,90.056L45.034,90.056L45.237,90.056L45.43,90.056L45.629,90.056L46.026,90.056L46.224,90.056L46.621,90.056L46.819,90.056L47.216,90.056L47.415,90.056L47.622,90.056L47.812,90.056L48.01,90.056L48.407,100.056L48.605,100.056L48.812,100.056L49.002,100.056L49.2,100.056L49.597,100.056L49.796,100.056L50.002,100.056L50.193,100.056L50.391,100.056L50.788,100.056L50.986,100.056L51.192,100.056L51.383,100.056L51.582,100.056L51.978,100.056L52.177,100.056L52.383,100.056L52.574,100.056L52.772,100.056L53.169,100.056L53.367,100.056L53.57,100.056L53.764,100.056L53.962,100.056L54.359,100.056L54.558,100.056L54.761,100.056L54.954,100.056L55.153,100.056L55.55,90.056L55.748,90.056L55.955,90.056L56.145,90.056L56.344,90.056L56.74,90.056L56.939,90.056L57.145,90.056L57.336,90.056L57.534,90.056L57.931,90.056L58.129,90.056L58.335,90.056L58.526,90.056L58.724,90.056L59.121,90.056L59.32,90.056L59.526,90.056L59.717,90.056L59.915,90.056L60.312,90.056L60.511,90.056L60.716,90.056L60.907,90.056L61.105,90.056L61.502,90.056L61.701,90.056L61.903,90.056L62.098,90.056L62.296,90.056L62.693,90.056L62.891,90.056L63.094,90.056L63.288,90.056L63.486,90.056L63.883,90.056L64.082,90.056L64.287,90.056L64.479,90.056L64.677,90.056L65.074,50.056L65.272,50.056L65.477,50.056L65.669,50.056L65.867,50.056L66.264,50.056L66.463,50.056L66.668,50.056L66.859,50.056L67.058,50.056L67.455,50.056L67.653,50.056L67.858,50.056L68.05,50.056L68.248,50.056L68.645,50.056L68.844,50.056L69.048,50.056L69.241,50.056L69.439,50.056L69.836,50.056L70.034,50.056L70.236,50.056L70.431,50.056L70.629,50.056L71.026,50.056L71.224,50.056L71.428,50.056L71.621,50.056L71.82,50.056L72.217,50.056L72.415,50.056L72.62,50.056L72.812,50.056L73.01,50.056L73.407,50.056L73.606,50.056L73.81,50.056L74.003,50.056L74.201,50.056L74.598,50.056L74.796,50.056L75.001,50.056L75.193,50.056L75.391,50.056L75.788,40.056L75.986,40.056L76.191,40.056L76.383,40.056L77.574,40.056L77.772,40.056L78.169,40.056L78.57,40.056L78.764,40.056L83.526,40.056L83.725,40.056L84.122,40.056L84.32,40.056L84.525,40.056L84.717,40.056L84.915,40.056L85.312,70.056L85.511,70.056L85.716,70.056L85.907,70.056L86.106,70.056L86.503,70.056L86.701,70.056L86.904,70.056L87.296,70.056L87.693,70.056L87.891,70.056L88.094,70.056L88.288,70.056L88.487,70.056L88.883,40.056L89.082,40.056L89.287,40.056L89.479,40.056L90.074,40.056L90.273,40.056L90.478,40.056L90.669,40.056L90.868,40.056L91.265,40.056L91.463,40.056L91.669,40.056L91.86,40.056L92.058,40.056L92.455,50.056L92.653,50.056L92.859,50.056L93.05,50.056L93.249,50.056L93.645,50.056L93.844,50.056L94.05,50.056L94.241,50.056L94.439,50.056L94.836,40.056L95.034,40.056L95.238,40.056L95.431,40.056L95.63,40.056L96.027,40.056L96.225,40.056L96.428,40.056L96.622,40.056L96.82,40.056L97.217,40.056L97.415,40.056L97.622,40.056L97.812,40.056L98.011,40.056L98.407,40.056L98.606,40.056L98.812,60.056L99.003,60.056L99.201,60.056L99.598,60.056L99.797,60.056L100.003,60.056L100.193,60.056L100.391,60.056L100.788,60.056L100.987,60.056L101.193,80.056L101.384,80.056L101.582,80.056L101.979,80.056L102.177,80.056L102.382,80.056L102.574,80.056L102.773,80.056L103.169,70.056L103.368,70.056L103.571,70.056L103.765,70.056L103.963,70.056L104.36,70.056L104.558,70.056L104.762,70.056L104.955,70.056L105.154,70.056L105.55,40.056L105.749,40.056L105.955,40.056L106.146,40.056L106.344,40.056L106.741,40.056L106.939,40.056L107.144,40.056L107.336,40.056L107.535,40.056L107.932,40.056L108.13,40.056L108.336,40.056L108.527,40.056L108.725,40.056L109.122,40.056L109.32,40.056L109.526,40.056L109.717,40.056L109.916,40.056L110.312,40.056L110.511,40.056L110.717,40.056L110.908,40.056L111.106,40.056L111.503,40.056L111.701,40.056L111.904,40.056L112.098,40.056L112.297,40.056L112.693,40.056L112.892,40.056L113.095,40.056L113.289,40.056L113.487,40.056L113.884,40.056L114.082,40.056L114.288,40.056L114.479,40.056L114.677,40.056L115.074,50.056L115.273,50.056L115.479,50.056L115.67,50.056L115.868,50.056L116.265,50.056L116.463,50.056L116.669,50.056L116.86,50.056L117.059,50.056L117.455,50.056L117.654,50.056L117.86,50.056L118.05,50.056L118.249,50.056L118.646,50.056L118.844,50.056L119.049,50.056L119.241,50.056L119.44,50.056L119.836,50.056L120.035,50.056L120.238,50.056L120.432,50.056L120.63,50.056L121.027,50.056L121.225,50.056L121.429,50.056L121.622,50.056L121.82,50.056L122.217,50.056L122.416,50.056L122.622,50.056L123.408,50.056L123.606,50.056L123.812,50.056L124.003,50.056L124.201,50.056L124.598,50.056L124.797,50.056L125.003,50.056L125.194,50.056L125.392,50.056L125.789,50.056L125.987,50.056L126.193,50.056L126.384,50.056L126.582,50.056L126.979,50.056L127.178,50.056L127.383,50.056L127.575,50.056L127.773,50.056L128.17,50.056L128.368,50.056L128.571,50.056L128.765,50.056L128.963,50.056L129.36,50.056L129.559,50.056L129.762,50.056L129.955,50.056L130.154,50.056L130.551,50.056L130.749,50.056L130.955,50.056L131.146,50.056L131.344,50.056L131.741,50.056L131.939,50.056L132.145,50.056L132.337,50.056L132.535,50.056L132.932,50.056L133.13,50.056L133.33,50.056L133.527,50.056L133.725,50.056L134.122,50.056L134.321,50.056L134.718,50.056L134.916,50.056L135.313,50.056L135.511,50.056L135.715,50.056L135.908,50.056L136.106,50.056L136.503,50.056L136.702,50.056L136.904,50.056L137.099,50.056L137.297,50.056L137.694,50.056L137.892,50.056L138.095,50.056L138.289,50.056L138.488,50.056L138.884,50.056L139.083,50.056L139.286,50.056L139.48,50.056L139.678,50.056L140.075,50.056L140.273,50.056L140.476,50.056L140.67,50.056L140.868,50.056L141.265,50.056L141.464,50.056L141.667,50.056L141.86,50.056L142.059,50.056L142.456,60.056L142.654,60.056L142.858,60.056L143.051,60.056L143.249,60.056L143.646,60.056L143.844,60.056L144.049,60.056L144.242,60.056L144.44,60.056L144.837,60.056L145.035,60.056L145.238,60.056L145.432,60.056L145.63,60.056L146.027,60.056L146.226,60.056L146.429,60.056L146.622,60.056L146.821,60.056L147.218,60.056L147.416,60.056L147.62,60.056L147.813,60.056L148.011,60.056L148.408,60.056L148.606,60.056L148.811,60.056L149.003,60.056L149.202,60.056L149.599,90.056L149.797,90.056L150.002,90.056L150.194,90.056L150.392,90.056L150.789,90.056L150.988,90.056L151.192,90.056L151.384,90.056L165.075,60.056L165.273,60.056L165.479,60.056L165.67,60.056L165.869,60.056L166.266,60.056L166.464,60.056L166.67,60.056L166.861,60.056L167.059,60.056L167.456,60.056L167.655,60.056L167.86,60.056L168.051,60.056L168.25,60.056L168.647,100.056L168.845,100.056L169.05,100.056L169.242,100.056L169.44,100.056L169.837,100.056L170.036,100.056L170.239,100.056" stroke="#f58518" stroke-width="2"/></g></g><path class="foreground" aria-hidden="true" d="" display="none"/></g><g transform="translate(0,0)"><path class="background" aria-hidden="true" d="M0,0h200v200h-200Z"/><g><g class="mark-line role-mark child_marks" role="graphics-object" aria-roledescription="line mark container"><path aria-label="Time: Aug 30, 2023; Price: 8995; item: HIKING_BACKPACK_PONCHO_-_Veste_imperméable_-_blue" role="graphics-symbol" aria-roledescription="line mark" d="M0,100.056L0.193,100.056L0.391,100.056L0.787,100.056L0.986,100.056L1.191,100.056L1.383,100.056L1.581,100.056L1.978,100.056L2.176,100.056L2.381,100.056L2.573,100.056L2.771,100.056L3.168,100.056L3.367,100.056L3.569,100.056L3.763,100.056L3.962,100.056L4.359,100.056L4.7,100.056L4.76,100.056L14.081,100.056L14.287,100.056L14.478,100.056L14.676,100.056L15.073,100.056L15.271,100.056L15.477,100.056L15.668,100.056L15.867,100.056L16.264,100.056L16.462,100.056L16.668,100.056L16.772,100.056L16.859,100.056L17.057,100.056L17.454,100.056L17.652,100.056L17.858,100.056L18.05,100.056L18.248,100.056L18.644,100.056L18.843,100.056L19.048,100.056L19.24,100.056L19.438,100.056L19.835,100.056L20.034,100.056L20.235,100.056L20.43,100.056L20.628,100.056L21.025,100.056L21.224,100.056L34.716,111.167L35.311,111.167L35.51,111.167L35.715,111.167L35.907,111.167L36.105,111.167L36.502,111.167L36.7,111.167L36.903,111.167L37.097,111.167L37.295,111.167L37.693,111.167L37.891,111.167L38.094,111.167L38.288,111.167L38.486,111.167L38.883,111.167L39.081,111.167L39.287,111.167L39.478,111.167L39.677,111.167L40.074,127.833L40.272,127.833L40.478,127.833L40.669,127.833L40.867,127.833L41.264,127.833L41.462,127.833L41.669,127.833L41.859,127.833L42.058,127.833L42.454,127.833L42.653,127.833L42.86,127.833L43.05,127.833L43.248,127.833L43.645,127.833L43.844,127.833L44.049,127.833L44.24,127.833L44.439,127.833L44.835,127.833L45.034,127.833L45.237,127.833L45.43,127.833L45.629,127.833L46.026,127.833L46.224,127.833L46.621,127.833L46.819,127.833L47.216,127.833" stroke="#54a24b" stroke-width="2"/></g></g><path class="foreground" aria-hidden="true" d="" display="none"/></g><g transform="translate(0,0)"><path class="background" aria-hidden="true" d="M0,0h200v200h-200Z"/><g><g class="mark-line role-mark child_marks" role="graphics-object" aria-roledescription="line mark container"><path aria-label="Time: Aug 30, 2023; Price: 16195; item: DESCHUTES_VALLEY™_RAIN_PONCHO_-_Parka_-_vista_blue" role="graphics-symbol" aria-roledescription="line mark" d="M0,20.056L0.193,20.056L0.391,20.056L0.787,20.056L0.986,20.056L1.191,20.056L1.383,20.056L1.581,20.056L1.978,20.056L2.176,20.056L2.381,20.056L2.573,20.056L2.771,20.056L3.168,20.056L3.367,20.056L3.569,20.056L3.763,20.056L3.962,20.056L4.359,20.056L4.7,20.056L4.76,20.056L4.954,20.056L5.153,20.056L5.549,20.056L5.748,20.056L5.953,20.056L6.144,20.056L6.343,20.056L6.741,80.056L6.939,80.056L7.143,80.056L7.335,80.056L7.533,80.056L7.93,80.056L8.129,80.056L8.334,80.056L8.525,80.056L8.724,80.056L9.121,80.056L9.319,80.056L9.524,80.056L9.716,80.056L9.915,80.056L10.436,80.056L10.51,80.056L10.714,80.056L10.906,80.056L11.105,80.056L11.501,80.056L11.7,80.056L11.902,80.056L12.097,80.056L12.295,80.056L12.692,80.056L12.89,80.056L13.093,80.056L13.287,80.056L13.486,80.056L13.882,80.056L14.081,80.056L14.287,80.056L14.478,80.056L14.676,80.056L15.073,80.056L15.271,80.056L15.477,80.056L15.668,80.056L15.867,80.056L16.264,20.056L16.462,20.056L16.668,20.056L16.772,20.056L16.859,20.056L17.057,20.056L17.454,20.056L17.652,20.056L17.858,20.056L18.05,20.056L18.248,20.056L18.644,20.056L18.843,20.056L19.048,20.056L19.24,20.056L19.438,20.056L19.835,20.056L20.034,20.056L20.235,20.056L20.43,20.056L20.628,20.056L21.025,20.056L21.224,20.056L21.426,20.056L21.621,20.056L21.819,20.056L22.216,20.056L22.414,20.056L22.62,20.056L22.811,20.056L23.01,20.056L23.406,20.056L23.605,20.056L23.811,20.056L24.002,20.056L24.2,20.056L24.597,20.056L24.796,20.056L25.001,20.056L25.192,20.056L25.391,20.056L25.787,20.056L25.986,20.056L26.192,20.056L26.383,20.056L26.581,20.056L26.978,20.056L27.176,20.056L27.381,20.056L27.573,20.056L27.771,20.056L28.168,20.056L28.367,20.056L28.569,20.056L28.764,20.056L28.962,20.056L29.359,20.056L29.557,20.056L29.76,20.056L29.954,20.056L30.152,20.056L30.55,20.056L30.748,20.056L30.954,20.056L31.145,20.056L31.343,20.056L31.74,20.056L31.939,20.056L32.145,20.056L32.335,20.056L32.534,20.056L32.93,40.056L33.129,40.056L33.335,40.056L33.526,40.056L33.724,40.056L34.121,40.056L34.319,40.056L34.525,40.056L34.716,40.056L35.311,40.056L35.51,40.056L35.715,40.056L35.907,40.056L36.105,40.056L36.502,40.056L36.7,40.056L36.903,40.056L37.097,40.056L37.295,40.056L37.692,40.056L37.891,40.056L38.094,40.056L38.288,40.056L38.486,40.056L38.883,90.056L39.081,90.056L39.287,90.056L39.478,90.056L39.677,90.056L40.074,40.056L40.272,40.056L40.478,40.056L40.669,40.056L40.867,40.056L41.264,40.056L41.462,40.056L41.669,40.056L41.859,40.056L42.058,40.056L42.454,40.056L42.653,40.056L42.86,40.056L43.05,40.056L43.248,40.056L43.645,40.056L43.844,40.056L44.049,40.056L44.24,40.056L44.439,40.056L44.835,40.056L45.034,40.056L45.237,40.056L45.43,40.056L45.629,40.056L46.026,40.056L46.224,40.056L46.621,40.056L46.819,40.056L47.216,40.056L47.415,40.056L47.622,40.056L47.812,40.056L48.01,40.056L48.407,90.056L48.605,90.056L48.812,90.056L49.002,90.056L49.2,90.056L49.597,90.056L49.796,90.056L50.002,90.056L50.193,90.056L50.391,90.056L50.788,90.056L50.986,90.056L51.192,90.056L51.383,90.056L51.582,90.056L51.978,90.056L52.177,90.056L52.383,90.056L52.574,90.056L52.772,90.056L53.169,40.056L53.367,40.056L53.57,40.056L53.764,40.056L53.962,40.056L54.359,40.056L54.558,40.056L54.761,40.056L54.954,40.056L55.153,40.056L55.55,100.056L55.748,100.056L55.955,100.056L56.145,100.056L56.344,100.056L56.74,100.056L56.939,100.056L57.145,100.056L57.336,100.056L57.534,100.056L57.931,100.056L58.129,100.056L58.335,100.056L58.526,100.056L58.724,100.056L59.121,100.056L59.32,100.056L59.526,100.056L59.717,100.056L59.915,100.056L60.312,100.056L60.511,100.056L60.716,100.056L60.907,100.056L61.105,100.056L61.502,100.056L61.701,100.056L61.903,100.056L62.098,100.056L62.296,100.056L62.693,100.056L62.891,100.056L63.094,100.056L63.288,100.056L63.486,100.056L63.883,100.056L64.082,100.056L64.287,100.056L64.479,100.056L64.677,100.056L65.074,40.056L65.272,40.056L65.477,40.056L65.669,40.056L65.867,40.056L66.264,40.056L66.463,40.056L66.668,40.056L66.859,40.056L67.058,40.056L67.455,40.056L67.653,40.056L67.858,40.056L68.05,40.056L68.248,40.056L68.645,40.056L68.844,40.056L69.048,40.056L69.241,40.056L69.439,40.056L69.836,40.056L70.034,40.056L70.236,40.056L70.431,40.056L70.629,40.056L71.026,40.056L71.224,40.056L71.428,40.056L71.621,40.056L71.82,40.056L72.217,40.056L72.415,40.056L72.62,40.056L72.812,40.056L73.01,40.056L73.407,40.056L73.606,40.056L73.81,40.056L74.003,40.056L74.201,40.056L74.598,40.056L74.796,40.056L75.001,40.056L75.193,40.056L75.391,40.056L75.788,40.056L75.986,40.056L76.191,40.056L76.383,40.056L76.582,40.056L76.979,40.056L77.177,40.056L77.383,40.056L77.574,40.056L77.772,40.056L78.169,40.056L78.368,40.056L78.57,40.056L78.764,40.056L78.963,40.056L79.36,40.056L79.558,40.056L79.761,40.056L79.955,40.056L80.153,40.056L80.55,40.056L80.749,40.056L80.955,40.056L81.145,40.056L81.344,40.056L81.741,40.056L81.939,40.056L82.144,40.056L82.336,40.056L82.534,40.056L82.931,40.056L83.13,40.056L83.335,40.056L83.526,40.056L83.725,40.056L84.122,40.056L84.32,40.056L84.525,40.056L84.717,40.056L84.915,40.056L85.312,40.056L85.511,40.056L85.716,40.056L85.907,40.056L86.106,40.056L86.503,40.056L86.701,40.056L86.904,40.056L87.296,40.056L87.693,40.056L87.891,40.056L88.094,40.056L88.288,40.056L88.487,40.056L88.883,40.056L89.082,40.056L89.287,40.056L89.479,40.056L90.074,40.056L90.273,40.056L90.478,40.056L90.669,40.056L90.868,40.056L91.265,40.056L91.463,40.056L91.669,40.056L91.86,40.056L92.058,40.056L92.455,120.056L92.653,120.056L92.859,120.056L93.05,120.056L93.249,120.056L93.645,120.056L93.844,120.056L94.05,120.056L94.241,120.056L94.439,120.056L94.836,40.056L95.034,40.056L95.238,40.056L95.431,40.056L95.63,40.056L96.027,40.056L96.225,40.056L96.428,40.056L96.622,40.056L96.82,40.056L97.217,50.056L97.415,50.056L97.622,70.056L97.812,70.056L98.011,70.056L98.407,70.056L98.606,70.056L98.812,70.056L99.003,70.056L99.201,70.056L99.598,70.056L99.797,70.056L100.003,70.056L100.193,70.056L100.391,70.056L100.788,120.056L100.987,120.056L101.193,120.056L101.384,120.056L101.582,120.056L101.979,120.056L102.177,120.056L102.382,120.056L102.574,120.056L102.773,120.056L103.169,120.056L103.368,120.056L103.571,120.056L103.765,120.056L103.963,120.056L104.36,120.056L104.558,120.056L104.762,120.056L104.955,120.056L105.154,120.056L105.55,40.056L105.749,40.056L105.955,40.056L106.146,40.056L106.344,40.056L106.741,40.056L106.939,40.056L107.144,40.056L107.336,40.056L107.535,40.056L107.932,40.056L108.13,40.056L108.336,40.056L108.527,40.056L108.725,40.056L109.122,40.056L109.32,40.056L109.526,40.056L109.717,40.056L109.916,40.056L110.312,40.056L110.511,40.056L110.717,40.056L110.908,40.056L111.106,40.056L111.503,40.056L111.701,40.056L111.904,40.056L112.098,40.056L112.297,40.056L112.693,40.056L112.892,40.056L113.095,40.056L113.289,40.056L113.487,40.056L113.884,40.056L114.082,40.056L114.288,40.056L114.479,40.056L114.677,40.056L115.074,100.056L115.273,100.056L115.479,100.056L115.67,100.056L115.868,100.056L116.265,100.056L116.463,100.056L116.669,100.056L116.86,100.056L117.059,100.056L117.455,100.056L117.654,100.056L117.86,100.056L118.05,100.056L118.249,100.056L118.646,100.056L118.844,100.056L119.049,100.056L119.241,100.056L119.44,100.056L119.836,100.056L120.035,100.056L120.238,100.056L120.432,100.056L120.63,100.056L121.027,100.056L121.225,100.056L121.429,100.056L121.622,100.056L121.82,100.056L122.217,100.056L122.416,100.056L122.622,100.056L122.812,100.056L123.011,100.056L123.408,100.056L123.606,100.056L123.812,100.056L124.003,100.056L124.201,100.056L124.598,100.056L124.797,100.056L125.003,100.056L125.194,100.056L125.392,100.056L125.789,100.056L125.987,100.056L126.193,100.056L126.384,100.056L126.582,100.056L126.979,100.056L127.178,100.056L127.383,100.056L127.575,100.056L127.773,100.056L128.17,100.056L128.368,100.056L128.571,100.056L128.765,100.056L128.963,100.056L129.36,90.056L129.559,90.056L129.762,90.056L129.955,90.056L130.154,90.056L130.551,90.056L130.749,90.056L130.955,90.056L131.146,90.056L131.344,90.056L131.741,90.056L131.939,90.056L132.145,90.056L132.337,90.056L132.535,90.056L132.932,90.056L133.13,90.056L133.33,90.056L133.527,90.056L133.725,90.056L134.122,60.056L134.321,60.056L134.718,60.056L134.916,60.056L135.313,60.056L135.511,60.056L135.715,60.056L135.908,60.056L136.106,60.056L136.503,60.056L136.702,60.056L136.904,60.056L137.099,60.056L137.297,60.056L137.694,60.056L137.892,60.056L138.095,60.056L138.289,60.056L138.488,60.056L138.884,60.056L139.083,60.056L139.286,60.056L139.48,60.056L139.678,60.056L140.075,60.056L140.273,60.056L140.476,60.056L140.67,60.056L140.868,60.056L141.265,60.056L141.464,60.056L141.667,60.056L141.86,60.056L142.059,60.056L142.456,60.056L142.654,60.056L142.858,60.056L143.051,60.056L143.249,60.056L143.646,60.056L143.844,60.056L144.049,60.056L144.242,60.056L144.44,60.056L144.837,60.056L145.035,60.056L145.238,60.056L145.432,60.056L145.63,60.056L146.027,60.056L146.226,60.056L146.429,60.056L146.622,60.056L146.821,60.056L147.218,60.056L147.416,60.056L147.62,60.056L147.813,60.056L148.011,60.056L148.408,60.056L148.606,60.056L148.811,60.056L149.003,60.056L149.202,60.056L149.599,90.056L149.797,90.056L150.002,90.056L150.194,90.056L150.392,90.056L150.789,90.056L150.988,90.056L151.192,90.056L151.384,90.056L151.583,90.056L151.979,90.056L152.178,90.056L152.383,90.056L152.575,90.056L152.773,90.056L153.17,100.056L153.369,100.056L153.573,100.056L153.765,100.056L153.964,100.056L154.361,90.056L154.559,90.056L154.763,90.056L154.956,90.056L155.154,90.056L155.551,100.056L155.75,100.056L155.955,100.056L156.146,100.056L156.345,100.056L156.741,100.056L156.94,100.056L157.149,100.056L157.337,100.056L157.535,100.056L157.932,100.056L158.131,100.056L158.336,100.056L158.527,100.056L158.726,100.056L159.123,90.056L159.321,90.056L159.527,90.056L159.718,90.056L159.916,90.056L160.313,90.056L160.511,90.056L160.717,90.056L160.908,90.056L161.107,90.056L161.504,90.056L161.702,90.056L161.905,90.056L162.099,90.056L162.297,90.056L162.694,100.056L162.892,100.056L163.096,100.056L163.289,100.056L163.488,100.056L163.885,90.056L164.083,90.056L164.289,90.056L164.48,90.056L164.678,90.056L165.075,100.056L165.273,100.056L165.479,100.056L165.67,100.056L165.869,100.056L166.266,100.056L166.464,100.056L166.67,100.056L166.861,100.056L167.059,100.056L167.456,100.056L167.655,100.056L167.86,100.056L168.051,100.056L168.25,100.056L168.647,100.056L168.845,100.056L169.05,100.056L169.242,100.056L169.44,100.056L169.837,100.056L170.036,100.056L170.239,100.056L170.432,100.056L170.631,100.056L171.226,100.056L171.43,100.056L171.623,100.056L171.821,100.056L172.218,100.056L172.417,100.056L172.623,100.056L172.814,100.056L173.012,100.056L173.409,130.056L173.607,130.056L173.813,130.056L174.004,130.056L174.202,130.056L174.599,130.056L174.798,130.056L175.003,130.056L175.194,130.056L175.393,130.056L175.79,130.056L175.988,130.056L176.194,130.056L176.385,130.056L176.583,130.056L176.98,130.056L177.179,130.056L177.381,130.056L177.575,130.056L177.774,130.056L178.17,130.056L178.369,130.056L178.569,130.056L178.766,130.056L178.964,130.056L179.361,130.056L179.559,130.056L179.76,130.056L179.957,130.056L180.154,130.056L180.552,60.056L180.75,60.056L180.952,60.056L181.147,60.056L181.345,60.056L181.742,60.056L181.94,60.056L182.142,60.056L182.337,80.056L182.536,80.056L182.933,80.056L183.131,80.056L183.333,100.056L183.528,100.056L183.726,100.056L184.123,60.056L184.321,60.056L184.524,60.056L184.718,60.056L184.917,60.056L185.313,60.056L185.512,60.056L185.714,60.056L185.909,60.056L186.107,60.056L186.504,60.056L186.702,60.056L186.903,60.056L187.099,60.056L187.298,60.056L187.695,60.056L187.893,60.056L188.094,60.056L188.29,60.056L188.488,60.056L188.885,60.056L189.083,60.056L189.286,60.056L189.48,60.056L189.679,60.056L190.076,60.056L190.274,60.056L190.476,60.056L190.671,60.056L190.869,60.056L191.266,60.056L191.464,60.056L191.666,60.056L191.861,60.056L192.06,60.056L192.456,60.056L192.655,60.056L192.857,60.056L193.052,60.056L193.25,60.056L193.647,60.056L193.846,60.056L194.047,60.056L194.242,60.056L194.441,60.056L194.837,60.056L195.036,60.056L195.237,60.056L195.433,60.056L195.631,60.056L196.028,60.056L196.226,60.056L196.427,60.056L196.623,60.056L196.821,60.056L197.218,60.056L197.417,60.056L197.62,60.056L197.814,60.056L198.012,60.056L198.409,60.056L198.607,60.056L198.809,60.056L199.005,60.056L199.202,60.056L199.599,60.056L199.798,60.056L200,60.056" stroke="#e45756" stroke-width="2"/></g></g><path class="foreground" aria-hidden="true" d="" display="none"/></g><g transform="translate(0,0)"><path class="background" aria-hidden="true" d="M0,0h200v200h-200Z"/><g><g class="mark-line role-mark child_marks" role="graphics-object" aria-roledescription="line mark container"><path aria-label="Time: Aug 30, 2023; Price: 5495; item: COVERO_PONCHO_II_-_Cape_-_lightgrey" role="graphics-symbol" aria-roledescription="line mark" d="M0,138.944L0.193,138.944L0.391,138.944L0.787,138.944L0.986,138.944L1.191,138.944L1.383,138.944L1.581,138.944L1.978,138.944L2.176,138.944L3.367,138.944L3.569,138.944L3.763,138.944L3.962,138.944L4.359,138.944L4.7,138.944L4.76,138.944L4.954,138.944L5.153,138.944L5.549,138.944L5.748,138.944L5.953,138.944L6.144,138.944L6.343,138.944L6.741,138.944L6.939,138.944L7.143,138.944L7.335,138.944L7.533,138.944L10.906,153.944L12.89,138.944L13.093,138.944L13.287,138.944L13.486,138.944L13.882,138.944L14.081,138.944L14.287,138.944L14.478,138.944L14.676,138.944L15.073,138.944L15.271,138.944L15.477,138.944L15.668,138.944L15.867,138.944L16.264,138.944L16.462,138.944L16.668,138.944L16.772,138.944L16.859,138.944L17.057,138.944L17.454,138.944L17.652,138.944L17.858,138.944L18.05,138.944L18.248,138.944L18.644,138.944L18.843,138.944L19.048,138.944L19.24,138.944L19.438,138.944L19.835,138.944L20.034,138.944L20.235,138.944L20.43,138.944L20.628,138.944L21.025,138.944L21.224,138.944L21.426,138.944L21.621,138.944L21.819,138.944L22.216,138.944L22.414,138.944L22.62,138.944L22.811,138.944L23.01,138.944L23.406,138.944L23.605,138.944L23.811,138.944L24.002,138.944L24.2,138.944L24.597,151.167L24.796,151.167L25.001,151.167L25.192,151.167L25.391,151.167L25.787,151.167L25.986,151.167L26.192,151.167L26.383,151.167L26.581,151.167L26.978,151.167L27.176,151.167L27.381,151.167L28.367,151.167L28.569,151.167L28.764,151.167L28.962,151.167L29.359,151.167L29.557,151.167L29.76,151.167L29.954,151.167L30.152,151.167L30.55,151.167L30.748,151.167L30.954,151.167L31.145,151.167L31.343,151.167L31.74,151.167L31.939,151.167L32.145,151.167L32.335,151.167L32.534,151.167L32.93,151.167L33.129,151.167L33.335,151.167L33.526,151.167L33.724,151.167L34.121,151.167L34.319,151.167L34.525,151.167L34.716,151.167L35.311,151.167L35.51,151.167L35.715,151.167L35.907,151.167L36.105,151.167L36.502,151.167L36.7,151.167L36.903,151.167L37.097,151.167L37.295,151.167L37.693,151.167L37.891,151.167L38.094,151.167L38.288,151.167L38.486,151.167L38.883,151.167L39.081,151.167L39.287,151.167L39.478,151.167L39.677,151.167L40.074,151.167L40.272,151.167L40.478,151.167L40.669,151.167L40.867,151.167L41.264,151.167L41.462,151.167L41.669,151.167L41.859,151.167L42.058,151.167L42.454,151.167L42.653,151.167L42.86,151.167L43.05,151.167L43.248,151.167L43.645,151.167L43.844,151.167L44.049,151.167L44.24,151.167L44.439,151.167L45.034,151.167L45.237,151.167L46.026,151.167L46.224,151.167L46.621,151.167L46.819,151.167L47.812,151.167L48.01,151.167L48.407,151.167L48.605,151.167L48.812,151.167L49.2,151.167L49.597,138.944L49.796,138.944L50.002,138.944L50.193,138.944L50.391,138.944L52.574,138.944L53.764,153.944L56.344,153.944L56.74,153.944L57.336,153.944L57.931,153.944L58.526,153.944L58.724,153.944L59.32,153.944L60.907,153.944L61.105,153.944L61.502,153.944L63.094,153.944L63.288,153.944L63.486,153.944L63.883,153.944L64.479,153.944L64.677,153.944L65.074,153.944L65.272,153.944L65.477,153.944L65.867,153.944L66.463,153.944L66.668,153.944L66.859,153.944L67.455,153.944L67.653,153.944L68.05,153.944L69.241,153.944L69.439,153.944L69.836,153.944L70.236,153.944L70.431,153.944L70.629,153.944L71.224,153.944L71.428,153.944L71.621,153.944L72.217,153.944L72.415,153.944L72.62,153.944L72.812,153.944L73.01,153.944L73.407,153.944L73.606,153.944L73.81,153.944L74.003,153.944L74.201,153.944L74.598,153.944L75.987,153.944L76.191,153.944L76.383,153.944L76.582,153.944L77.177,153.944L77.383,153.944L77.574,153.944L77.773,153.944L78.169,145.611L78.368,145.611L82.534,145.611L82.931,145.611L83.13,145.611L83.335,145.611L83.526,145.611L83.725,145.611L84.32,145.611L84.525,145.611L84.717,145.611L84.915,145.611L85.312,145.611L85.716,145.611L86.106,145.611L86.701,145.611L86.904,145.611L87.296,145.611L87.693,145.611L87.891,145.611L88.094,145.611L88.288,145.611L88.487,145.611L88.883,138.944L89.287,138.944L90.074,138.944L90.273,138.944L90.478,138.944L90.669,138.944L90.868,138.944L91.265,138.944L91.463,138.944L91.669,138.944L91.86,138.944L92.058,138.944L92.653,153.944L92.859,153.944L93.05,153.944L93.249,153.944L93.645,153.944L94.241,153.944L94.439,153.944L94.836,153.944L95.034,153.944L95.238,153.944L95.431,160.056L97.415,138.944L97.622,138.944L97.812,138.944L98.011,138.944L98.407,138.944L98.606,138.944L98.812,138.944L99.003,138.944L99.201,138.944L99.598,138.944L99.797,138.944L100.003,138.944L100.193,138.944L100.391,138.944L100.987,163.389L110.717,138.944L111.503,138.944L112.098,138.944L112.892,138.944L114.082,138.944L114.288,138.944L114.479,138.944L114.677,138.944L115.074,138.944L116.463,138.944L117.455,138.944L119.241,138.944L120.035,138.944L120.238,138.944L120.432,138.944L120.63,138.944L121.027,138.944L121.429,138.944L122.416,138.944L122.622,138.944L122.812,138.944L123.011,138.944L123.812,138.944L124.598,138.944L126.193,138.944L127.178,138.944L127.575,138.944L127.773,138.944L128.17,138.944L128.765,138.944L128.963,138.944L129.36,138.944" stroke="#f58518" stroke-width="2"/></g></g><path class="foreground" aria-hidden="true" d="" display="none"/></g><g transform="translate(0,0)"><path class="background" aria-hidden="true" d="M0,0h200v200h-200Z"/><g><g class="mark-line role-mark child_marks" role="graphics-object" aria-roledescription="line mark container"><path aria-label="Time: Sep 01, 2023; Price: 12995; item: KUURA_3L_PONCHO_UNISEX_-_Veste_imperméable_-_green" role="graphics-symbol" aria-roledescription="line mark" d="M2.771,55.611L3.168,55.611L3.367,55.611L3.569,55.611L5.748,55.611L5.953,55.611L6.144,55.611L6.343,55.611L6.741,11.167L6.939,11.167L7.143,11.167L7.335,11.167L7.533,11.167L7.93,11.167L8.129,11.167L8.334,11.167L8.525,11.167L8.724,11.167L9.121,11.167L9.319,11.167L9.524,11.167L9.716,11.167L9.915,11.167L10.436,11.167L10.51,11.167L10.714,11.167L10.906,11.167L11.105,11.167L11.501,11.167L11.7,11.167L11.902,11.167L12.097,11.167L12.295,11.167L12.692,11.167L12.89,11.167L13.093,11.167L13.287,11.167L13.486,11.167L13.882,11.167L14.081,11.167L14.287,11.167L14.478,11.167L15.073,11.167L15.271,11.167L15.477,11.167L15.668,11.167L15.867,11.167L20.235,22.278L20.43,22.278L20.628,22.278L21.025,22.278L21.224,22.278L21.426,22.278L21.621,22.278L21.819,22.278L22.216,22.278L22.414,22.278L22.62,22.278L23.605,22.278L23.811,22.278L24.002,22.278L24.2,22.278L24.597,22.278L24.796,22.278L40.669,22.278L40.867,22.278L41.264,22.278L41.462,22.278L41.669,22.278L41.859,22.278L42.058,22.278L42.454,22.278L42.653,22.278L42.86,22.278L43.05,22.278L43.248,22.278L43.645,22.278L43.844,22.278L44.049,22.278L44.24,22.278L44.439,22.278L44.835,22.278L45.034,22.278L45.237,22.278L45.43,22.278L45.629,22.278L63.883,22.278L64.082,22.278L64.287,22.278L64.479,22.278L64.677,22.278L65.074,22.278L65.272,22.278L65.477,22.278L65.669,22.278" stroke="#4c78a8" stroke-width="2"/></g></g><path class="foreground" aria-hidden="true" d="" display="none"/></g><g transform="translate(0,0)"><path class="background" aria-hidden="true" d="M0,0h200v200h-200Z"/><g><g class="mark-line role-mark child_marks" role="graphics-object" aria-roledescription="line mark container"><path aria-label="Time: Sep 14, 2023; Price: 6495; item: PARIS_ST._GERMAIN_CITY_MADE_PONCHO_-_Veste_de_survêtement_-_aura_white" role="graphics-symbol" aria-roledescription="line mark" d="M17.454,127.833L17.652,127.833L17.858,127.833L18.05,127.833L18.248,127.833L18.644,127.833L18.843,127.833L19.835,127.833L21.224,127.833L21.426,127.833L21.621,127.833L21.819,127.833L22.216,127.833L22.414,127.833L22.62,127.833L22.811,127.833L23.01,127.833L23.406,127.833L23.605,127.833L23.811,127.833L24.002,127.833L24.2,127.833L24.597,127.833L24.796,127.833L25.001,127.833L25.192,127.833L25.391,127.833L25.787,127.833L25.986,127.833L26.192,127.833L26.383,127.833L26.581,127.833L26.978,127.833L27.176,127.833L27.381,127.833L27.573,127.833L27.771,127.833L28.168,127.833L28.367,127.833L28.569,127.833L28.764,127.833L28.962,127.833L29.359,127.833L29.557,127.833L29.76,127.833L29.954,127.833L30.152,127.833L30.55,127.833L30.748,127.833L30.954,127.833L31.145,127.833L31.343,127.833L31.74,127.833L31.939,127.833L32.145,127.833" stroke="#bab0ac" stroke-width="2"/></g></g><path class="foreground" aria-hidden="true" d="" display="none"/></g><g transform="translate(0,0)"><path class="background" aria-hidden="true" d="M0,0h200v200h-200Z"/><g><g class="mark-line role-mark child_marks" role="graphics-object" aria-roledescription="line mark container"><path aria-label="Time: Sep 18, 2023; Price: 8995; item: HIKING_BACKPACK_PONCHO_-_Veste_imperméable_-_indian_red" role="graphics-symbol" aria-roledescription="line mark" d="M22.216,100.056L22.414,100.056L22.62,100.056L22.811,100.056L23.01,100.056L23.406,100.056L23.605,100.056L31.145,100.056L31.343,100.056L31.74,100.056L31.939,100.056L32.145,100.056L32.335,100.056L32.534,100.056L32.93,111.167L33.129,111.167L33.335,111.167L33.526,111.167L52.383,111.167L52.574,111.167L52.772,111.167L53.169,111.167L53.368,111.167L53.57,111.167L53.764,111.167L53.962,111.167L54.359,111.167L133.33,122.278L133.527,122.278L133.725,122.278L134.122,111.167L134.321,111.167" stroke="#ff9da6" stroke-width="2"/></g></g><path class="foreground" aria-hidden="true" d="" display="none"/></g><g transform="translate(0,0)"><path class="background" aria-hidden="true" d="M0,0h200v200h-200Z"/><g><g class="mark-line role-mark child_marks" role="graphics-object" aria-roledescription="line mark container"><path aria-label="Time: Sep 26, 2023; Price: 6495; item: PSG_M_NSW_CITY_MADE_PONCHO_-_Veste_de_survêtement_-_aura_white" role="graphics-symbol" aria-roledescription="line mark" d="M32.335,127.833L32.534,127.833L32.93,91.167L33.129,91.167L33.335,91.167L33.526,91.167L33.724,91.167L34.121,91.167L34.319,91.167L34.525,91.167L34.716,91.167L35.311,91.167L35.51,91.167L35.715,91.167L35.907,91.167L36.105,91.167L36.502,91.167L36.7,91.167L36.903,91.167L37.097,91.167L37.295,91.167L37.693,91.167L37.891,91.167L38.094,91.167L38.288,91.167L38.486,91.167L38.883,127.833L39.081,127.833L39.287,127.833L39.478,127.833L39.677,127.833L40.074,127.833L40.272,127.833L40.478,127.833L40.669,127.833L40.867,127.833L41.264,127.833L41.462,127.833L41.669,127.833L41.859,127.833L42.058,127.833L42.454,127.833L42.653,127.833L42.86,127.833L43.05,127.833L43.248,127.833L43.645,127.833L43.844,127.833L44.049,127.833L44.24,127.833L44.439,127.833L44.835,127.833L45.034,127.833L45.237,127.833L45.43,127.833L45.629,127.833L46.026,127.833L46.224,127.833L46.621,127.833L46.819,127.833L47.216,127.833L47.415,127.833L47.622,127.833L47.812,127.833L48.01,127.833L48.407,84.5L48.605,84.5L48.812,84.5L49.2,84.5L49.597,84.5L49.796,84.5L50.002,84.5L50.193,84.5L50.391,84.5L50.788,84.5L50.986,84.5L51.978,84.5L52.574,84.5L53.764,127.833L54.359,127.833L55.748,127.833L55.955,127.833L63.486,127.833L63.883,127.833L64.082,127.833L64.287,127.833L65.272,127.833L65.477,127.833L66.859,127.833L67.058,127.833L67.858,127.833L68.248,127.833L68.645,127.833L69.048,127.833L70.034,127.833L70.629,127.833L71.026,127.833L71.224,127.833L71.428,127.833L71.82,127.833L72.415,127.833L73.01,127.833L73.407,127.833L73.606,127.833L73.81,127.833L74.003,127.833L74.201,127.833L74.598,127.833L74.796,127.833L75.001,127.833L75.193,127.833L75.391,127.833L75.788,127.833L75.986,127.833L76.191,127.833L76.383,127.833L76.582,127.833L76.979,127.833L77.177,127.833L77.383,127.833L77.574,127.833L77.773,127.833L78.169,127.833L78.368,127.833L78.57,127.833L78.764,127.833L78.963,127.833L79.36,127.833L79.558,127.833L79.761,127.833L79.955,127.833L80.153,127.833L80.55,127.833L80.749,127.833L80.955,127.833L81.145,127.833L81.344,127.833L81.741,127.833L81.939,127.833L82.144,127.833L82.336,127.833L82.534,127.833L82.931,127.833L83.335,127.833L83.526,127.833L83.725,127.833L84.525,127.833L84.717,127.833L85.312,84.5L85.716,84.5L86.106,84.5L87.296,84.5L88.487,84.5L89.287,127.833L90.074,127.833L90.273,127.833L90.478,127.833L90.868,127.833L91.265,127.833L91.463,127.833L91.669,127.833L91.86,127.833L92.653,156.722L95.034,127.833L95.238,127.833L96.027,127.833L98.011,105.611L98.407,105.611L100.003,105.611L100.193,105.611L100.987,148.944L103.963,148.944L104.36,148.944L106.344,120.056L106.741,127.833L107.535,127.833L108.336,127.833L109.526,127.833L109.916,127.833L110.717,91.167L111.503,91.167L112.098,91.167L112.892,127.833L114.288,91.167L116.463,127.833L119.241,127.833L120.238,127.833L120.63,127.833L121.429,127.833L122.416,127.833L122.622,127.833L122.812,127.833L123.011,127.833L123.408,127.833L123.606,127.833L123.812,127.833L124.003,127.833L124.201,127.833L124.598,127.833L127.178,127.833L127.575,127.833L127.773,127.833L128.17,127.833L128.765,127.833L129.559,120.056L129.762,120.056L129.955,120.056L130.154,120.056L130.551,120.056L130.955,120.056L131.344,120.056L131.741,120.056L131.94,120.056L132.145,120.056L132.337,120.056L132.535,120.056L132.932,120.056L133.13,120.056L133.33,120.056L133.527,120.056L133.725,120.056L134.122,98.944L134.718,98.944L135.313,98.944L135.511,98.944L135.715,98.944L135.908,98.944L136.106,98.944L136.503,98.944L136.702,98.944L136.904,98.944L137.099,98.944L137.297,98.944L137.694,98.944L137.892,98.944L138.095,98.944L138.289,98.944L138.488,98.944L138.884,98.944L139.083,98.944L139.286,98.944L139.48,98.944L139.678,98.944L140.075,98.944L140.273,98.944L140.67,98.944L140.868,98.944L141.265,98.944L141.464,98.944L141.667,98.944L142.059,98.944L142.654,98.944L142.858,98.944L143.051,98.944L143.646,98.944L144.242,98.944L144.837,98.944L145.035,98.944L145.238,98.944L145.63,98.944L146.027,98.944L146.429,98.944L146.622,98.944L146.821,98.944L147.218,98.944L147.416,98.944L147.62,98.944L147.813,98.944L148.011,98.944L148.408,98.944L149.003,98.944L149.599,120.056L149.797,120.056L150.194,120.056L150.392,120.056L150.789,120.056L151.192,120.056L151.384,120.056L151.583,120.056L152.178,120.056L152.383,120.056L152.575,120.056L152.773,120.056L153.17,120.056L153.369,120.056L153.573,120.056L153.765,120.056L153.964,120.056L154.361,120.056L154.559,120.056L154.763,120.056L154.956,120.056L155.154,120.056L155.551,120.056L155.955,120.056L156.345,120.056L156.741,120.056L157.535,120.056L158.131,120.056L159.321,120.056L159.527,120.056L159.718,120.056L159.916,120.056L160.313,120.056L160.511,120.056L160.717,120.056L160.908,120.056L161.107,120.056L161.504,120.056L161.702,120.056L161.905,120.056L162.099,120.056L162.297,120.056L162.694,120.056L163.488,120.056L164.289,98.944L164.678,98.944L165.869,98.944L166.67,98.944L167.655,98.944L167.86,98.944L168.051,98.944L168.25,98.944L168.647,98.944L168.845,98.944L169.05,98.944L169.242,98.944L169.44,98.944L169.837,98.944L170.036,98.944L170.239,98.944L170.432,98.944L170.631,98.944L171.226,98.944L171.43,98.944L171.623,98.944L171.821,98.944L172.218,98.944L172.417,98.944L172.623,98.944L172.814,98.944L173.012,98.944L173.409,98.944L173.607,98.944L173.813,98.944L174.004,98.944L174.202,98.944L174.599,98.944L174.798,98.944L175.003,98.944L175.194,98.944L175.393,98.944L175.79,98.944L175.988,98.944L176.194,98.944L176.385,98.944L176.583,98.944L176.98,98.944L177.179,98.944L177.381,98.944L177.575,98.944L177.774,98.944L178.17,98.944L178.369,98.944L178.569,98.944L178.766,98.944L178.964,98.944L179.361,98.944L179.559,98.944L179.76,98.944L179.957,98.944L180.154,98.944L180.552,98.944L180.75,98.944L180.952,98.944L181.147,98.944L181.345,98.944L181.742,98.944L181.94,98.944L182.142,98.944L182.337,98.944L182.536,98.944L182.933,98.944L183.131,98.944L183.333,98.944L183.528,98.944L183.726,98.944L184.123,98.944L184.321,98.944L184.524,98.944L184.718,98.944L184.917,98.944L185.313,98.944L185.512,98.944L185.714,98.944L185.909,98.944L186.107,98.944L186.504,98.944L186.702,98.944L186.903,98.944L192.857,98.944L193.052,98.944L193.25,98.944L193.647,98.944L193.846,98.944L194.047,98.944L194.242,98.944L194.441,98.944L194.837,98.944L195.036,98.944L195.237,98.944L195.433,98.944L195.631,98.944L196.028,98.944L196.226,98.944L196.427,98.944L196.623,98.944L196.821,98.944L197.218,98.944L197.417,98.944L197.62,98.944L197.814,98.944L198.012,98.944L198.409,98.944L198.607,98.944L198.809,98.944L199.005,98.944L199.202,98.944L199.599,98.944L199.798,98.944L200,98.944" stroke="#eeca3b" stroke-width="2"/></g></g><path class="foreground" aria-hidden="true" d="" display="none"/></g><g transform="translate(0,0)"><path class="background" aria-hidden="true" d="M0,0h200v200h-200Z"/><g><g class="mark-line role-mark child_marks" role="graphics-object" aria-roledescription="line mark container"><path aria-label="Time: Oct 12, 2023; Price: 4995; item: SHOWERPROOF_PONCHO_UNISEX_-_Cape_-_classic_tartan" role="graphics-symbol" aria-roledescription="line mark" d="M50.788,144.5L50.986,144.5L51.192,144.5L51.383,144.5L51.582,144.5L51.978,144.5L52.177,144.5L52.383,144.5L52.574,144.5L52.772,144.5L53.169,144.5L53.368,144.5L53.57,144.5L53.764,144.5L53.962,144.5L54.359,144.5L54.558,144.5L54.761,144.5L54.954,144.5L55.153,144.5L55.55,152.611L55.748,152.611L55.955,152.611L56.145,152.611L56.344,152.611L56.74,152.611L56.939,152.611L57.145,152.611L57.336,152.611L57.534,152.611L57.931,152.611L58.129,152.611L58.335,152.611L58.526,152.611L58.724,152.611L59.121,152.611L59.32,152.611L59.526,152.611L59.717,152.611L59.915,152.611L60.312,152.611L60.511,152.611L60.716,152.611L60.907,152.611L61.105,152.611L61.502,152.611L61.701,152.611L61.903,152.611L62.098,152.611L62.296,152.611L62.693,144.5L62.891,144.5L63.094,144.5L63.288,144.5L63.486,144.5L63.883,144.5L64.082,144.5L64.287,144.5L64.479,144.5L64.677,144.5L65.074,152.611L65.272,152.611L65.477,152.611L65.669,152.611L65.867,152.611L66.264,152.611L66.463,152.611L66.668,152.611L66.859,152.611L67.058,152.611L67.455,152.611L67.653,152.611L67.858,152.611L68.05,152.611L68.248,152.611L68.645,152.611L68.844,152.611L69.048,152.611L69.241,152.611L69.439,152.611L69.836,152.611L70.034,152.611L70.236,152.611L70.431,152.611L70.629,152.611L71.026,152.611L71.224,152.611L71.428,152.611L71.621,152.611L71.82,152.611L72.217,144.5L72.415,144.5L72.62,144.5L72.812,144.5L73.01,144.5L73.407,144.5L73.606,144.5L73.81,144.5L74.003,144.5L74.201,144.5L74.598,152.611L74.796,152.611L75.001,152.611L75.193,152.611L75.391,152.611L75.788,152.611L75.986,152.611L76.191,152.611L76.383,152.611L76.582,152.611L76.979,152.611L77.177,152.611L77.383,152.611L77.574,152.611L77.773,152.611L78.169,152.611L78.368,152.611L78.57,152.611L78.764,152.611L78.963,152.611L79.36,152.611L79.558,152.611L79.761,152.611L79.955,152.611L80.153,152.611L80.55,152.611L80.749,152.611L80.955,152.611L81.145,152.611L81.344,152.611L81.741,150.056L81.939,144.5L82.144,144.5L82.336,144.5L82.534,144.5L82.931,144.5L83.13,144.5L83.335,144.5L83.526,144.5L83.725,144.5L84.122,144.5L84.32,144.5L84.525,144.5L84.717,144.5L84.915,144.5L85.312,144.5L85.511,144.5L85.716,144.5L85.907,144.5L86.106,144.5L86.503,144.5L86.701,144.5L86.904,144.5L87.296,144.5L87.693,144.5L87.891,144.5L88.094,144.5L88.288,144.5L88.487,144.5L88.883,144.5L89.082,144.5L89.287,144.5L89.479,144.5L90.074,144.5L90.273,144.5L90.478,144.5L90.669,144.5L90.868,144.5L91.265,144.5L91.463,144.5L91.669,144.5L91.86,144.5L92.058,144.5L92.455,144.5L92.653,144.5L92.859,144.5L93.05,144.5L93.249,144.5L93.645,144.5L93.844,144.5L94.05,144.5L94.241,144.5L94.439,144.5L94.836,144.5L95.034,144.5L95.238,144.5L95.431,144.5L95.63,144.5L96.027,144.5L96.225,144.5L96.428,144.5L96.622,144.5L96.82,144.5L97.217,144.5L97.415,144.5L97.622,144.5L97.812,144.5L98.011,144.5L98.407,144.5L98.606,144.5L98.812,144.5L99.003,144.5L99.201,144.5L99.598,144.5L99.797,144.5L100.003,144.5L100.193,144.5L100.391,144.5L114.479,144.5L114.677,144.5L115.074,144.5L115.273,144.5L115.479,144.5L115.67,144.5L115.868,144.5L116.265,144.5L116.463,144.5L116.669,144.5L116.86,144.5L117.059,144.5L117.455,144.5L117.654,144.5L117.86,144.5L118.05,144.5L118.249,144.5L118.646,144.5L118.844,144.5L119.049,144.5L119.241,144.5L119.44,144.5L119.836,144.5L120.035,144.5L120.238,144.5L120.432,144.5L120.63,144.5L121.027,144.5L121.225,144.5L121.429,144.5L121.622,144.5L121.82,144.5L122.217,144.5L122.416,144.5L122.622,144.5L122.812,144.5L123.011,144.5L123.408,144.5L123.606,144.5L123.812,144.5L124.003,144.5L124.201,144.5L124.598,144.5L124.797,144.5L125.003,144.5L125.194,144.5L125.392,144.5L125.789,144.5L125.987,144.5L126.193,144.5L126.384,144.5L126.582,144.5L126.979,144.5L127.178,144.5L127.383,144.5L127.575,144.5L127.773,144.5L128.17,144.5L128.368,144.5L128.571,144.5L128.765,144.5L128.963,144.5L129.36,144.5L129.559,144.5L129.762,144.5L129.955,144.5L130.154,144.5L130.551,144.5L130.749,144.5L130.955,144.5L131.146,144.5L131.344,144.5L131.741,158.167L131.939,158.167L132.145,158.167L132.337,158.167L132.535,158.167L132.932,158.167L133.13,158.167L133.33,158.167L133.527,158.167L133.725,158.167L134.122,144.5L134.321,144.5L134.718,144.5L134.916,144.5L135.313,144.5L135.511,144.5L135.715,144.5L135.908,144.5L136.106,144.5L136.503,144.5L136.702,144.5L136.904,144.5L137.099,144.5L137.297,144.5L137.694,144.5L137.892,144.5L138.095,144.5L138.289,144.5L138.488,144.5L138.884,144.5L139.083,144.5L139.286,144.5L139.48,144.5L139.678,144.5L140.075,144.5L140.273,144.5L140.476,144.5L140.67,144.5L140.868,144.5L141.265,144.5L141.464,144.5L141.667,144.5L141.86,144.5L142.059,144.5L142.456,144.5L142.654,144.5L142.858,144.5L143.051,144.5L143.249,144.5L143.646,144.5L143.844,144.5L144.049,144.5L144.242,144.5L144.44,144.5L144.837,144.5L145.035,144.5L145.238,144.5L145.432,144.5L145.63,144.5L146.027,144.5L146.226,144.5L146.429,144.5L146.622,144.5L146.821,144.5L147.218,144.5L147.416,144.5L147.62,144.5L147.813,144.5L148.011,144.5L148.408,144.5L148.606,144.5L148.811,144.5L149.003,144.5L149.202,144.5L149.599,144.5L149.797,144.5L150.002,144.5L150.194,144.5L150.392,144.5L150.789,144.5L150.988,144.5L151.192,144.5L151.384,144.5L151.583,144.5L151.979,144.5L152.178,144.5L152.383,144.5L152.575,144.5L152.773,144.5L153.17,144.5L153.369,144.5L153.573,144.5L153.765,144.5L153.964,144.5L154.361,144.5L154.559,144.5L154.763,144.5L154.956,144.5L155.154,144.5L155.551,144.5L155.75,144.5L155.955,144.5L156.146,144.5L156.345,144.5L156.741,152.611L156.94,152.611L157.149,152.611L157.337,152.611L157.535,152.611L157.932,152.611L158.131,152.611L158.336,152.611L158.527,152.611L158.726,152.611L159.123,158.167L159.321,158.167L159.527,158.167L159.718,158.167L159.916,158.167L160.313,158.167L160.511,158.167L160.717,158.167L160.908,158.167L161.107,158.167L161.504,158.167L161.702,158.167L161.905,158.167L162.099,158.167L162.297,158.167L162.694,144.5L162.892,144.5L163.096,144.5L163.289,144.5L163.488,144.5L163.885,158.167L164.083,158.167L164.289,158.167L164.48,158.167L164.678,158.167L165.075,150.056L165.273,150.056L165.479,150.056L165.67,150.056L165.869,150.056L166.266,144.5L166.464,144.5L166.67,144.5L166.861,144.5L167.059,144.5L167.456,150.056L167.655,150.056L167.86,150.056L168.051,150.056L168.25,150.056L168.647,161.167L168.845,161.167L169.05,161.167L169.242,161.167L169.44,161.167L169.837,161.167L170.036,161.167L170.239,161.167L170.432,161.167L170.631,161.167L171.226,144.5L171.43,144.5L171.623,144.5L171.821,144.5L172.218,161.167L172.417,161.167L172.623,161.167L172.814,161.167L173.012,161.167L173.409,150.056L173.607,150.056L173.813,150.056L174.004,150.056L174.202,150.056L174.599,144.5L174.798,144.5L175.003,144.5L175.194,144.5L175.393,144.5L175.79,150.056L175.988,150.056L176.194,150.056L176.385,150.056L176.583,150.056L176.98,150.056L177.179,150.056L177.381,150.056L177.575,150.056L177.774,150.056L178.17,144.5L178.369,144.5L178.569,144.5L178.766,144.5L178.964,144.5L179.361,144.5L179.559,144.5L179.76,144.5L179.957,144.5L180.154,144.5L180.552,144.5L180.75,144.5L180.952,144.5L181.147,144.5L181.345,144.5L181.742,144.5L181.94,144.5L182.142,144.5L182.337,144.5L182.536,144.5L182.933,144.5L183.131,144.5L183.333,144.5L183.528,144.5L183.726,144.5L184.123,152.611L184.321,152.611L184.524,152.611L184.718,152.611L184.917,152.611L185.313,152.611L185.512,152.611L185.714,152.611L185.909,152.611L186.107,152.611L186.504,152.611L186.702,152.611L186.903,152.611L187.099,152.611L187.298,152.611L187.695,133.389L187.893,133.389L188.094,133.389L188.29,133.389L188.488,133.389L188.885,133.389L189.083,133.389L189.286,133.389L189.48,133.389L189.679,133.389L190.076,133.389L190.274,133.389L190.476,133.389L190.671,133.389L190.869,133.389L191.266,150.056L191.464,150.056L191.666,150.056L191.861,150.056L192.06,150.056L192.456,133.389L192.655,133.389L192.857,133.389L193.052,133.389L193.25,133.389L193.647,133.389L193.846,133.389L194.047,133.389L194.242,133.389L194.441,133.389L194.837,133.389L195.036,133.389L195.237,133.389L195.433,133.389L195.631,133.389L196.028,133.389L196.226,133.389L196.427,133.389L196.623,133.389L196.821,133.389L197.218,133.389L197.417,133.389L197.62,133.389L197.814,133.389L198.012,133.389L198.409,133.389L198.607,133.389L198.809,133.389L199.005,133.389L199.202,133.389L199.599,146.722L199.798,146.722L200,146.722" stroke="#4c78a8" stroke-width="2"/></g></g><path class="foreground" aria-hidden="true" d="" display="none"/></g><g transform="translate(0,0)"><path class="background" aria-hidden="true" d="M0,0h200v200h-200Z"/><g><g class="mark-line role-mark child_marks" role="graphics-object" aria-roledescription="line mark container"><path aria-label="Time: Oct 12, 2023; Price: 13995; item: PONCHO_-_Cape_-_lucid_blue" role="graphics-symbol" aria-roledescription="line mark" d="M50.788,44.5L52.177,44.5L52.574,44.5L53.169,91.167L53.764,91.167L54.558,91.167L54.761,91.167L54.954,91.167L55.153,91.167L55.55,91.167L55.748,91.167L55.955,91.167L56.145,91.167L56.344,91.167L56.74,91.167L56.939,91.167L57.145,91.167L57.336,91.167L57.534,91.167L57.931,91.167L58.129,91.167L58.335,91.167L58.526,91.167L58.724,91.167L59.121,91.167L59.32,91.167L59.526,91.167L59.915,91.167L60.907,91.167L61.105,91.167L61.502,91.167L62.098,91.167L62.693,91.167L62.891,91.167L63.094,91.167L63.288,91.167L63.486,91.167L64.479,91.167L65.074,114.5L65.272,114.5L65.867,114.5L66.463,114.5L66.668,114.5L66.859,114.5L67.455,114.5L68.645,114.5L68.844,114.5L69.048,114.5L69.241,114.5L69.439,114.5L69.836,114.5L70.034,114.5L70.236,114.5L70.431,114.5L70.629,114.5L71.026,114.5L71.224,114.5L71.428,114.5L71.621,114.5L71.82,114.5L72.217,114.5L72.415,114.5L72.62,114.5L72.812,114.5L73.01,114.5L73.407,114.5L73.606,114.5L73.81,114.5L74.003,114.5L74.201,114.5L74.598,114.5L74.796,114.5L75.001,114.5L75.193,114.5L75.391,114.5L75.788,83.389L75.987,83.389L76.582,83.389L76.979,83.389L78.169,83.389L78.368,83.389L78.764,83.389L78.963,83.389L79.36,83.389L79.558,83.389L79.761,83.389L79.955,83.389L80.153,83.389L80.55,83.389L80.749,83.389L81.344,83.389L81.741,44.5L81.939,44.5L82.144,44.5L82.336,44.5L82.534,44.5L82.931,44.5L83.13,44.5L83.335,44.5L83.526,44.5L83.725,44.5L84.122,44.5L84.32,44.5L84.525,44.5L84.717,44.5L84.915,44.5L85.312,122.278L85.716,122.278L86.106,122.278L86.701,122.278L86.904,122.278L87.296,122.278L87.693,122.278L87.891,122.278L88.094,122.278L88.288,122.278L88.487,122.278L88.883,44.5L89.082,44.5L89.287,44.5L89.479,44.5L90.074,44.5L90.273,44.5L90.478,44.5L90.669,44.5L90.868,44.5L91.265,44.5L91.463,44.5L91.669,44.5L91.86,44.5L92.058,44.5L92.653,130.056L92.859,130.056L93.05,130.056L93.249,130.056L93.645,130.056L94.439,130.056L94.836,44.5L95.034,44.5L95.238,44.5L96.027,44.5L96.225,44.5L96.429,44.5L96.622,44.5L96.82,44.5L97.217,60.056L97.415,60.056L97.622,106.722L97.812,106.722L98.011,122.278L98.407,122.278L98.606,122.278L98.812,122.278L99.003,122.278L99.201,122.278L99.598,122.278L99.797,122.278L100.003,122.278L100.193,122.278L100.391,122.278L100.788,122.278L100.987,122.278L101.193,122.278L101.384,122.278L101.582,122.278L101.979,122.278L103.368,130.056L103.571,122.278L103.765,122.278L103.963,122.278L104.36,122.278L104.558,122.278L104.762,122.278L104.955,122.278L105.154,122.278L105.55,122.278L106.344,75.611L106.741,44.5L106.939,44.5L107.144,44.5L107.336,44.5L107.535,44.5L107.932,44.5L108.13,44.5L108.336,44.5L108.527,44.5L108.725,44.5L109.122,44.5L109.32,44.5L109.526,44.5L109.717,44.5L109.916,44.5L110.312,44.5L110.511,44.5L110.717,44.5L111.106,44.5L111.503,44.5L111.701,44.5L111.904,44.5L112.098,44.5L112.297,44.5L112.693,44.5L112.892,44.5L113.096,44.5L113.289,44.5L113.487,44.5L113.884,44.5L114.288,44.5L116.463,91.167L116.669,91.167L116.86,91.167L117.059,91.167L117.455,91.167L119.049,91.167L119.241,91.167L120.238,91.167L120.63,91.167L121.429,122.278L121.622,122.278L121.82,122.278L122.217,122.278L122.416,122.278L122.622,122.278L122.812,122.278L123.011,122.278L123.408,91.167L123.812,91.167L124.003,91.167L124.201,91.167L124.598,91.167L125.987,91.167L126.193,91.167L126.384,91.167L126.582,91.167L126.979,91.167L127.178,91.167L127.383,91.167L127.575,91.167L127.773,91.167L128.17,91.167L128.765,91.167L129.559,106.722L129.762,106.722L129.955,106.722L130.154,106.722L130.551,106.722L130.749,106.722L130.955,106.722L131.146,106.722L131.344,106.722L131.741,106.722L131.939,106.722L132.145,106.722L132.337,106.722L132.535,106.722L132.932,106.722L133.13,106.722L133.33,106.722L133.527,106.722L133.725,106.722L134.122,91.167L134.718,91.167L134.916,91.167L135.313,91.167L135.511,91.167L135.715,91.167L135.908,91.167L136.106,91.167L136.503,91.167L136.702,91.167L136.904,91.167L137.099,91.167L137.297,91.167L137.694,91.167L137.892,91.167L138.095,91.167L138.289,91.167L138.488,91.167L138.884,91.167L139.083,91.167L139.286,91.167L139.48,91.167L139.678,91.167L140.075,91.167L140.273,91.167L140.476,91.167L140.67,91.167L140.868,91.167L141.265,91.167L141.464,91.167L141.667,91.167L141.86,91.167L142.059,91.167L142.456,83.389L142.654,83.389L142.858,83.389L143.051,83.389L143.249,83.389L143.646,83.389L143.844,83.389L144.049,83.389L144.242,83.389L144.44,83.389L144.837,83.389L145.035,83.389L145.238,83.389L145.432,83.389L145.63,83.389L146.027,83.389L146.226,83.389L146.429,83.389L146.622,83.389L146.821,83.389L147.218,83.389L147.416,83.389L147.62,83.389L147.813,83.389L148.011,83.389L148.408,83.389L148.606,83.389L148.811,83.389L149.003,83.389L149.202,83.389L149.599,106.722L149.797,106.722L150.002,106.722L150.194,106.722L150.392,106.722L150.789,106.722L150.988,106.722L151.192,106.722L151.384,106.722L151.583,106.722L151.98,106.722L152.178,106.722L152.383,106.722L152.575,106.722L152.773,106.722L153.17,114.5L153.369,114.5L153.573,114.5L153.765,114.5L153.964,114.5L154.361,106.722L154.559,106.722L154.763,106.722L154.956,106.722L155.154,106.722L155.551,114.5L155.75,114.5L155.955,114.5L156.146,114.5L156.345,114.5L156.741,122.278L156.94,122.278L157.149,122.278L157.337,122.278L157.535,122.278L157.932,122.278L158.131,122.278L158.336,122.278L158.527,122.278L158.726,122.278L159.123,122.278L159.321,122.278L159.527,122.278L159.718,122.278L159.916,122.278L160.313,122.278L160.511,122.278L160.717,122.278L160.908,122.278L161.107,122.278L161.504,122.278L161.702,122.278L161.905,122.278L162.099,122.278L162.297,122.278L162.694,122.278L162.892,122.278L163.096,122.278L163.289,122.278L163.488,122.278L163.885,122.278L164.083,122.278L164.289,122.278L164.48,122.278L164.678,122.278L165.075,114.5L165.273,114.5L165.479,114.5L165.67,114.5L165.869,114.5L166.266,122.278L166.464,122.278L166.67,122.278L166.861,122.278L167.059,122.278L167.456,114.5L167.655,114.5L167.86,114.5L168.051,114.5L168.25,114.5L168.647,122.278L168.845,122.278L169.05,122.278L169.242,122.278L169.44,122.278L169.837,122.278L170.036,122.278L170.239,122.278L170.432,122.278L170.631,122.278L171.226,122.278L171.43,122.278L171.623,122.278L171.821,122.278L172.218,122.278L172.417,122.278L172.623,122.278L172.814,122.278L173.012,122.278L173.409,145.611L173.607,145.611L173.813,145.611L174.004,145.611L174.202,145.611L174.599,145.611L174.798,145.611L175.003,145.611L175.194,145.611L175.393,145.611L175.79,145.611L175.988,145.611L176.194,145.611L176.385,145.611L176.583,145.611L176.98,145.611L177.179,145.611L177.381,145.611L177.575,145.611L177.774,145.611L178.17,145.611L178.369,145.611L178.569,145.611L178.766,145.611L178.964,145.611L179.361,145.611L179.559,145.611L179.76,145.611L179.957,145.611L180.154,145.611L180.552,106.722L180.75,106.722L180.952,106.722L181.147,106.722L181.345,106.722L181.742,106.722L181.94,106.722L182.142,106.722L182.337,106.722L182.536,106.722L182.933,106.722L183.131,106.722L183.333,137.833L183.528,137.833L183.726,137.833L184.123,44.5L184.321,44.5L184.524,44.5L184.718,44.5L184.917,44.5L185.313,44.5L185.512,44.5L185.714,44.5L185.909,44.5L186.107,44.5L186.504,44.5L186.702,44.5L186.903,44.5L187.099,44.5L187.298,44.5L187.695,44.5L187.893,44.5L188.094,44.5L188.29,44.5L188.488,44.5L188.885,44.5L189.083,44.5L190.076,44.5L190.274,44.5L190.476,44.5L190.671,44.5L190.869,44.5L191.266,122.278L191.464,122.278L191.666,122.278L191.861,122.278L192.06,122.278L192.456,122.278L192.655,122.278L192.857,122.278L193.052,122.278L193.25,122.278L193.647,98.944L193.846,98.944L194.047,98.944L194.242,98.944L194.441,98.944L194.837,98.944L195.036,98.944L195.237,98.944L195.433,98.944L195.631,98.944L196.623,98.944L196.821,98.944L197.218,98.944L197.417,98.944L197.62,98.944L197.814,98.944L198.012,98.944L198.607,114.5L199.599,114.5" stroke="#b279a2" stroke-width="2"/></g></g><path class="foreground" aria-hidden="true" d="" display="none"/></g><g transform="translate(0,0)"><path class="background" aria-hidden="true" d="M0,0h200v200h-200Z"/><g><g class="mark-line role-mark child_marks" role="graphics-object" aria-roledescription="line mark container"><path aria-label="Time: Dec 18, 2023; Price: 10995; item: K_ESSENTIAL_RAIN_PONCHO_UNISEX_-_Cape_-_black" role="graphics-symbol" aria-roledescription="line mark" d="M130.955,77.833L131.741,77.833L131.94,77.833L132.337,77.833L132.535,77.833L132.932,77.833L133.33,77.833L133.527,77.833L133.725,77.833L134.718,77.833L135.313,77.833L135.511,77.833L135.715,77.833L136.106,77.833L136.503,77.833L136.702,77.833L137.297,77.833L137.694,77.833L137.892,77.833L138.095,77.833L138.289,77.833L138.488,77.833L139.083,77.833L139.678,77.833L140.075,77.833L140.273,77.833L140.868,77.833L141.464,77.833L141.667,77.833L142.059,77.833L142.654,77.833L142.858,77.833L143.646,77.833L144.242,77.833L144.837,77.833L145.035,77.833L145.238,77.833L145.63,77.833L146.429,77.833L146.622,77.833L147.218,77.833L147.62,77.833L147.813,77.833L148.011,77.833L149.003,77.833L149.599,77.833L149.797,77.833L150.194,77.833L150.392,77.833L150.789,77.833L151.192,77.833L151.384,77.833L152.383,77.833L152.575,77.833L153.765,77.833L153.964,77.833L154.361,77.833L156.345,77.833L156.741,77.833L175.79,77.833L175.988,77.833L176.194,77.833L176.385,77.833L176.583,77.833L176.98,77.833L177.179,77.833L177.381,77.833L177.575,77.833L177.774,77.833L178.17,77.833L178.369,77.833L178.569,77.833L178.766,77.833L178.964,77.833L179.361,77.833L179.559,77.833L179.76,77.833L179.957,77.833L180.154,77.833L180.552,77.833L180.75,77.833L180.952,77.833L181.147,77.833L181.345,77.833L181.742,77.833L181.94,77.833L182.142,77.833L182.337,77.833L182.536,77.833L182.933,77.833L183.131,77.833L183.333,77.833L183.528,77.833L183.726,77.833L184.123,77.833L184.321,77.833L184.524,77.833L184.718,77.833L184.917,77.833L185.313,77.833L185.512,77.833L185.714,77.833L185.909,77.833L186.107,77.833L186.504,77.833L186.702,77.833L186.903,77.833L187.099,77.833L187.298,77.833L187.695,77.833L187.893,77.833L188.094,77.833L188.29,77.833L188.488,77.833L188.885,77.833L189.083,77.833L189.286,77.833L189.48,77.833L189.679,77.833L190.076,77.833L190.274,77.833L190.476,77.833L190.671,77.833L190.869,77.833L191.266,77.833L191.464,77.833L191.666,77.833L191.861,77.833L192.06,77.833L192.456,77.833L192.655,77.833L192.857,77.833L193.052,77.833L193.25,77.833L193.647,77.833L193.846,77.833L194.047,77.833L194.242,77.833L194.441,77.833L194.837,77.833L195.036,77.833L195.237,77.833L195.433,77.833L195.631,77.833L196.028,77.833L196.226,77.833L196.427,77.833L196.623,77.833L196.821,77.833L197.218,77.833L197.417,77.833L197.62,77.833L197.814,77.833L198.012,77.833L198.409,77.833L198.607,77.833L198.809,77.833L199.005,77.833L199.202,77.833L199.599,90.056L199.798,90.056L200,90.056" stroke="#72b7b2" stroke-width="2"/></g></g><path class="foreground" aria-hidden="true" d="" display="none"/></g><g transform="translate(0,0)"><path class="background" aria-hidden="true" d="M0,0h200v200h-200Z"/><g><g class="mark-line role-mark child_marks" role="graphics-object" aria-roledescription="line mark container"><path aria-label="Time: Dec 18, 2023; Price: 5845; item: PONCHO_-_Peignoir_-_dark_blue" role="graphics-symbol" aria-roledescription="line mark" d="M130.955,135.056L132.535,135.056L135.511,125.056L136.702,125.056L137.297,125.056L138.488,125.056L152.383,130.056" stroke="#9d755d" stroke-width="2"/></g></g><path class="foreground" aria-hidden="true" d="" display="none"/></g></g><g class="mark-group role-legend" role="graphics-symbol" aria-roledescription="legend" aria-label="Symbol legend titled 'item' for stroke color with 12 values: KUURA_3L_PONCHO_UNISEX_-_Veste_imperméable_-_green, DESCHUTES_VALLEY™_RAIN_PONCHO_-_Parka_-_black, DESCHUTES_VALLEY™_RAIN_PONCHO_-_Parka_-_vista_blue, K_ESSENTIAL_RAIN_PONCHO_UNISEX_-_Cape_-_black, HIKING_BACKPACK_PONCHO_-_Veste_imperméable_-_blue, ending with COVERO_PONCHO_II_-_Cape_-_lightgrey"><g transform="translate(220,0)"><path class="background" aria-hidden="true" d="M0,0h328v170h-328Z" pointer-events="none"/><g><g class="mark-group role-legend-entry"><g transform="translate(0,16)"><path class="background" aria-hidden="true" d="M0,0h0v0h0Z" pointer-events="none"/><g><g class="mark-group role-scope" role="graphics-object" aria-roledescription="group mark container"><g transform="translate(0,0)"><path class="background" aria-hidden="true" d="M0,0h328v11h-328Z" pointer-events="none" opacity="1"/><g><g class="mark-symbol role-legend-symbol" pointer-events="none"><path transform="translate(6,6)" d="M-5,0L5,0" stroke="#4c78a8" stroke-width="1.5" opacity="1"/></g><g class="mark-text role-legend-label" pointer-events="none"><text text-anchor="start" transform="translate(16,9)" font-family="Liberation Mono" font-size="10px" fill="#000" opacity="1">KUURA_3L_PONCHO_UNISEX_-_Veste_impermé…</text></g></g><path class="foreground" aria-hidden="true" d="" pointer-events="none" display="none"/></g><g transform="translate(0,13)"><path class="background" aria-hidden="true" d="M0,0h328v11h-328Z" pointer-events="none" opacity="1"/><g><g class="mark-symbol role-legend-symbol" pointer-events="none"><path transform="translate(6,6)" d="M-5,0L5,0" stroke="#f58518" stroke-width="1.5" opacity="1"/></g><g class="mark-text role-legend-label" pointer-events="none"><text text-anchor="start" transform="translate(16,9)" font-family="Liberation Mono" font-size="10px" fill="#000" opacity="1">DESCHUTES_VALLEY™_RAIN_PONCHO_-_Parka_…</text></g></g><path class="foreground" aria-hidden="true" d="" pointer-events="none" display="none"/></g><g transform="translate(0,26)"><path class="background" aria-hidden="true" d="M0,0h328v11h-328Z" pointer-events="none" opacity="1"/><g><g class="mark-symbol role-legend-symbol" pointer-events="none"><path transform="translate(6,6)" d="M-5,0L5,0" stroke="#e45756" stroke-width="1.5" opacity="1"/></g><g class="mark-text role-legend-label" pointer-events="none"><text text-anchor="start" transform="translate(16,9)" font-family="Liberation Mono" font-size="10px" fill="#000" opacity="1">DESCHUTES_VALLEY™_RAIN_PONCHO_-_Parka_…</text></g></g><path class="foreground" aria-hidden="true" d="" pointer-events="none" display="none"/></g><g transform="translate(0,39)"><path class="background" aria-hidden="true" d="M0,0h328v11h-328Z" pointer-events="none" opacity="1"/><g><g class="mark-symbol role-legend-symbol" pointer-events="none"><path transform="translate(6,6)" d="M-5,0L5,0" stroke="#72b7b2" stroke-width="1.5" opacity="1"/></g><g class="mark-text role-legend-label" pointer-events="none"><text text-anchor="start" transform="translate(16,9)" font-family="Liberation Mono" font-size="10px" fill="#000" opacity="1">K_ESSENTIAL_RAIN_PONCHO_UNISEX_-_Cape_…</text></g></g><path class="foreground" aria-hidden="true" d="" pointer-events="none" display="none"/></g><g transform="translate(0,52)"><path class="background" aria-hidden="true" d="M0,0h328v11h-328Z" pointer-events="none" opacity="1"/><g><g class="mark-symbol role-legend-symbol" pointer-events="none"><path transform="translate(6,6)" d="M-5,0L5,0" stroke="#54a24b" stroke-width="1.5" opacity="1"/></g><g class="mark-text role-legend-label" pointer-events="none"><text text-anchor="start" transform="translate(16,9)" font-family="Liberation Mono" font-size="10px" fill="#000" opacity="1">HIKING_BACKPACK_PONCHO_-_Veste_impermé…</text></g></g><path class="foreground" aria-hidden="true" d="" pointer-events="none" display="none"/></g><g transform="translate(0,65)"><path class="background" aria-hidden="true" d="M0,0h328v11h-328Z" pointer-events="none" opacity="1"/><g><g class="mark-symbol role-legend-symbol" pointer-events="none"><path transform="translate(6,6)" d="M-5,0L5,0" stroke="#eeca3b" stroke-width="1.5" opacity="1"/></g><g class="mark-text role-legend-label" pointer-events="none"><text text-anchor="start" transform="translate(16,9)" font-family="Liberation Mono" font-size="10px" fill="#000" opacity="1">PSG_M_NSW_CITY_MADE_PONCHO_-_Veste_de_…</text></g></g><path class="foreground" aria-hidden="true" d="" pointer-events="none" display="none"/></g><g transform="translate(0,78)"><path class="background" aria-hidden="true" d="M0,0h328v11h-328Z" pointer-events="none" opacity="1"/><g><g class="mark-symbol role-legend-symbol" pointer-events="none"><path transform="translate(6,6)" d="M-5,0L5,0" stroke="#b279a2" stroke-width="1.5" opacity="1"/></g><g class="mark-text role-legend-label" pointer-events="none"><text text-anchor="start" transform="translate(16,9)" font-family="Liberation Mono" font-size="10px" fill="#000" opacity="1">PONCHO_-_Cape_-_lucid_blue</text></g></g><path class="foreground" aria-hidden="true" d="" pointer-events="none" display="none"/></g><g transform="translate(0,91)"><path class="background" aria-hidden="true" d="M0,0h328v11h-328Z" pointer-events="none" opacity="1"/><g><g class="mark-symbol role-legend-symbol" pointer-events="none"><path transform="translate(6,6)" d="M-5,0L5,0" stroke="#ff9da6" stroke-width="1.5" opacity="1"/></g><g class="mark-text role-legend-label" pointer-events="none"><text text-anchor="start" transform="translate(16,9)" font-family="Liberation Mono" font-size="10px" fill="#000" opacity="1">HIKING_BACKPACK_PONCHO_-_Veste_impermé…</text></g></g><path class="foreground" aria-hidden="true" d="" pointer-events="none" display="none"/></g><g transform="translate(0,104)"><path class="background" aria-hidden="true" d="M0,0h328v11h-328Z" pointer-events="none" opacity="1"/><g><g class="mark-symbol role-legend-symbol" pointer-events="none"><path transform="translate(6,6)" d="M-5,0L5,0" stroke="#9d755d" stroke-width="1.5" opacity="1"/></g><g class="mark-text role-legend-label" pointer-events="none"><text text-anchor="start" transform="translate(16,9)" font-family="Liberation Mono" font-size="10px" fill="#000" opacity="1">PONCHO_-_Peignoir_-_dark_blue</text></g></g><path class="foreground" aria-hidden="true" d="" pointer-events="none" display="none"/></g><g transform="translate(0,117)"><path class="background" aria-hidden="true" d="M0,0h328v11h-328Z" pointer-events="none" opacity="1"/><g><g class="mark-symbol role-legend-symbol" pointer-events="none"><path transform="translate(6,6)" d="M-5,0L5,0" stroke="#bab0ac" stroke-width="1.5" opacity="1"/></g><g class="mark-text role-legend-label" pointer-events="none"><text text-anchor="start" transform="translate(16,9)" font-family="Liberation Mono" font-size="10px" fill="#000" opacity="1">PARIS_ST._GERMAIN_CITY_MADE_PONCHO_-_V…</text></g></g><path class="foreground" aria-hidden="true" d="" pointer-events="none" display="none"/></g><g transform="translate(0,130)"><path class="background" aria-hidden="true" d="M0,0h328v11h-328Z" pointer-events="none" opacity="1"/><g><g class="mark-symbol role-legend-symbol" pointer-events="none"><path transform="translate(6,6)" d="M-5,0L5,0" stroke="#4c78a8" stroke-width="1.5" opacity="1"/></g><g class="mark-text role-legend-label" pointer-events="none"><text text-anchor="start" transform="translate(16,9)" font-family="Liberation Mono" font-size="10px" fill="#000" opacity="1">SHOWERPROOF_PONCHO_UNISEX_-_Cape_-_cla…</text></g></g><path class="foreground" aria-hidden="true" d="" pointer-events="none" display="none"/></g><g transform="translate(0,143)"><path class="background" aria-hidden="true" d="M0,0h328v11h-328Z" pointer-events="none" opacity="1"/><g><g class="mark-symbol role-legend-symbol" pointer-events="none"><path transform="translate(6,6)" d="M-5,0L5,0" stroke="#f58518" stroke-width="1.5" opacity="1"/></g><g class="mark-text role-legend-label" pointer-events="none"><text text-anchor="start" transform="translate(16,9)" font-family="Liberation Mono" font-size="10px" fill="#000" opacity="1">COVERO_PONCHO_II_-_Cape_-_lightgrey</text></g></g><path class="foreground" aria-hidden="true" d="" pointer-events="none" display="none"/></g></g></g><path class="foreground" aria-hidden="true" d="" pointer-events="none" display="none"/></g></g><g class="mark-text role-legend-title" pointer-events="none"><text text-anchor="start" transform="translate(0,9)" font-family="Liberation Mono" font-size="11px" font-weight="bold" fill="#000" opacity="1">item</text></g></g><path class="foreground" aria-hidden="true" d="" pointer-events="none" display="none"/></g></g></g><path class="foreground" aria-hidden="true" d="" display="none"/></g></g></g><path class="foreground" aria-hidden="true" d="" display="none"/></g></g></g></svg>