<svg xmlns="http://www.w3.org/2000/svg" xmlns:xlink="http://www.w3.org/1999/xlink" version="1.1" class="marks" width="658" height="244" viewBox="0 0 658 244"><rect width="658" height="244" fill="white"/><g fill="none" stroke-miterlimit="10" transform="translate(104,6)"><g class="mark-group role-frame root" role="graphics-object" aria-roledescription="group mark container"><g transform="translate(0,0)"><path class="background" aria-hidden="true" d="M0,0h0v0h0Z"/><g><g class="mark-group role-row-title row-title" role="graphics-object" aria-roledescription="group mark container"><g transform="translate(-78,116)"><path class="background" aria-hidden="true" d="M0,0h0v0h0Z"/><g><g class="mark-group role-title"><g transform="translate(-21.000000000000004,0)"><path class="background" aria-hidden="true" d="M0,0h0v0h0Z" pointer-events="none"/><g><g class="mark-text role-title-text" role="graphics-symbol" aria-roledescription="title" aria-label="Title text 'group'" pointer-events="none"><text text-anchor="middle" transform="translate(0,0) rotate(-90) translate(0,9)" font-family="Liberation Mono" font-size="11px" font-weight="bold" fill="#000" opacity="1">group</text></g></g><path class="foreground" aria-hidden="true" d="" pointer-events="none" display="none"/></g></g></g><path class="foreground" aria-hidden="true" d="" display="none"/></g></g><g class="mark-group role-row-header row_header" role="graphics-object" aria-roledescription="group mark container"><g transform="translate(-47,0)"><path class="background" aria-hidden="true" d="M0,0h0v200h0Z"/><g><g class="mark-group role-title"><g transform="translate(-20.000000000000007,100)"><path class="background" aria-hidden="true" d="M0,0h0v0h0Z" pointer-events="none"/><g><g class="mark-text role-title-text" role="graphics-symbol" aria-roledescription="title" aria-label="Title text 'zalando-poncho'" pointer-events="none"><text text-anchor="middle" transform="translate(0,0) rotate(-90) translate(0,8)" font-family="Liberation Mono" font-size="10px" fill="#000" opacity="1">zalando-poncho</text></g></g><path class="foreground" aria-hidden="true" d="" pointer-events="none" display="none"/></g></g></g><path class="foreground" aria-hidden="true" d="" display="none"/></g></g><g class="mark-group role-scope cell" role="graphics-object" aria-roledescription="group mark container"><g transform="translate(0,0)"><path class="background" aria-hidden="true" d="M0.5,0.5h200v200h-200Z" stroke="#ddd"/><g><g class="mark-group role-axis" aria-hidden="true"><g transform="translate(0.5,200.5)"><path class="background" aria-hidden="true" d="M0,0h0v0h0Z" pointer-events="none"/><g><g class="mark-rule role-axis-grid" pointer-events="none"><line transform="translate(10,-200)" x2="0" y2="200" stroke="#ddd" stroke-width="1" opacity="1"/><line transform="translate(31,-200)" x2="0" y2="200" stroke="#ddd" stroke-width="1" opacity="1"/><line transform="translate(52,-200)" x2="0" y2="200" stroke="#ddd" stroke-width="1" opacity="1"/><line transform="translate(73,-200)" x2="0" y2="200" stroke="#ddd" stroke-width="1" opacity="1"/><line transform="translate(94,-200)" x2="0" y2="200" stroke="#ddd" stroke-width="1" opacity="1"/><line transform="translate(115,-200)" x2="0" y2="200" stroke="#ddd" stroke-width="1" opacity="1"/><line transform="translate(136,-200)" x2="0" y2="200" stroke="#ddd" stroke-width="1" opacity="1"/><line transform="translate(157,-200)" x2="0" y2="200" stroke="#ddd" stroke-width="1" opacity="1"/><line transform="translate(178,-200)" x2="0" y2="200" stroke="#ddd" stroke-width="1" opacity="1"/><line transform="translate(199,-200)" x2="0" y2="200" stroke="#ddd" stroke-width="1" opacity="1"/></g></g><path class="foreground" aria-hidden="true" d="" pointer-events="none" display="none"/></g></g><g class="mark-group role-axis" aria-hidden="true"><g transform="translate(0.5,0.5)"><path class="background" aria-hidden="true" d="M0,0h0v0h0Z" pointer-events="none"/><g><g class="mark-rule role-axis-grid" pointer-events="none"><line transform="translate(0,200)" x2="200" y2="0" stroke="#ddd" stroke-width="1" opacity="1"/><line transform="translate(0,144)" x2="200" y2="0" stroke="#ddd" stroke-width="1" opacity="1"/><line transform="translate(0,89)" x2="200" y2="0" stroke="#ddd" stroke-width="1" opacity="1"/><line transform="translate(0,33)" x2="200" y2="0" stroke="#ddd" stroke-width="1" opacity="1"/></g></g><path class="foreground" aria-hidden="true" d="" pointer-events="none" display="none"/></g></g><g class="mark-group role-axis" role="graphics-symbol" aria-roledescription="axis" aria-label="X-axis titled 'Time' for a time scale with values from Wednesday, 30 August 2023, 12:58:24 PM to Sunday, 05 November 2023, 8:50:11 AM"><g transform="translate(0.5,200.5)"><path class="background" aria-hidden="true" d="M0,0h0v0h0Z" pointer-events="none"/><g><g class="mark-rule role-axis-tick" pointer-events="none"><line transform="translate(10,0)" x2="0" y2="5" stroke="#888" stroke-width="1" opacity="1"/><line transform="translate(31,0)" x2="0" y2="5" stroke="#888" stroke-width="1" opacity="1"/><line transform="translate(52,0)" x2="0" y2="5" stroke="#888" stroke-width="1" opacity="1"/><line transform="translate(73,0)" x2="0" y2="5" stroke="#888" stroke-width="1" opacity="1"/><line transform="translate(94,0)" x2="0" y2="5" stroke="#888" stroke-width="1" opacity="1"/><line transform="translate(115,0)" x2="0" y2="5" stroke="#888" stroke-width="1" opacity="1"/><line transform="translate(136,0)" x2="0" y2="5" stroke="#888" stroke-width="1" opacity="1"/><line transform="translate(157,0)" x2="0" y2="5" stroke="#888" stroke-width="1" opacity="1"/><line transform="translate(178,0)" x2="0" y2="5" stroke="#888" stroke-width="1" opacity="1"/><line transform="translate(199,0)" x2="0" y2="5" stroke="#888" stroke-width="1" opacity="1"/></g><g class="mark-text role-axis-label" pointer-events="none"><text text-anchor="middle" transform="translate(10.353333536935473,15)" font-family="Liberation Mono" font-size="10px" fill="#000" opacity="1">Sep 03</text><text text-anchor="middle" transform="translate(31.302749894534994,15)" font-family="Liberation Mono" font-size="10px" fill="#000" opacity="0">Sep 10</text><text text-anchor="middle" transform="translate(52.2521662521345,15)" font-family="Liberation Mono" font-size="10px" fill="#000" opacity="0">Sep 17</text><text text-anchor="middle" transform="translate(73.20158260973403,15)" font-family="Liberation Mono" font-size="10px" fill="#000" opacity="0">Sep 24</text><text text-anchor="middle" transform="translate(94.15099896733355,15)" font-family="Liberation Mono" font-size="10px" fill="#000" opacity="1">October</text><text text-anchor="middle" transform="translate(115.10041532493305,15)" font-family="Liberation Mono" font-size="10px" fill="#000" opacity="0">Oct 08</text><text text-anchor="middle" transform="translate(136.04983168253258,15)" font-family="Liberation Mono" font-size="10px" fill="#000" opacity="0">Oct 15</text><text text-anchor="middle" transform="translate(156.9992480401321,15)" font-family="Liberation Mono" font-size="10px" fill="#000" opacity="0">Oct 22</text><text text-anchor="middle" transform="translate(177.9486643977316,15)" font-family="Liberation Mono" font-size="10px" fill="#000" opacity="1">Oct 29</text><text text-anchor="middle" transform="translate(198.89808075533114,15)" font-family="Liberation Mono" font-size="10px" fill="#000" opacity="0">Nov 05</text></g><g class="mark-rule role-axis-domain" pointer-events="none"><line transform="translate(0,0)" x2="200" y2="0" stroke="#888" stroke-width="1" opacity="1"/></g><g class="mark-text role-axis-title" pointer-events="none"><text text-anchor="middle" transform="translate(100,30)" font-family="Liberation Mono" font-size="11px" font-weight="bold" fill="#000" opacity="1">Time</text></g></g><path class="foreground" aria-hidden="true" d="" pointer-events="none" display="none"/></g></g><g class="mark-group role-axis" role="graphics-symbol" aria-roledescription="axis" aria-label="Y-axis titled 'Price' for a linear scale with values from 0 to 18,000"><g transform="translate(0.5,0.5)"><path class="background" aria-hidden="true" d="M0,0h0v0h0Z" pointer-events="none"/><g><g class="mark-rule role-axis-tick" pointer-events="none"><line transform="translate(0,200)" x2="-5" y2="0" stroke="#888" stroke-width="1" opacity="1"/><line transform="translate(0,144)" x2="-5" y2="0" stroke="#888" stroke-width="1" opacity="1"/><line transform="translate(0,89)" x2="-5" y2="0" stroke="#888" stroke-width="1" opacity="1"/><line transform="translate(0,33)" x2="-5" y2="0" stroke="#888" stroke-width="1" opacity="1"/></g><g class="mark-text role-axis-label" pointer-events="none"><text text-anchor="end" transform="translate(-7,203)" font-family="Liberation Mono" font-size="10px" fill="#000" opacity="1">0</text><text text-anchor="end" transform="translate(-7,147.44444444444443)" font-family="Liberation Mono" font-size="10px" fill="#000" opacity="1">50</text><text text-anchor="end" transform="translate(-7,91.88888888888889)" font-family="Liberation Mono" font-size="10px" fill="#000" opacity="1">100</text><text text-anchor="end" transform="translate(-7,36.33333333333333)" font-family="Liberation Mono" font-size="10px" fill="#000" opacity="1">150</text></g><g class="mark-rule role-axis-domain" pointer-events="none"><line transform="translate(0,200)" x2="0" y2="-200" stroke="#888" stroke-width="1" opacity="1"/></g><g class="mark-text role-axis-title" pointer-events="none"><text text-anchor="middle" transform="translate(-35,100) rotate(-90) translate(0,-2)" font-family="Liberation Mono" font-size="11px" font-weight="bold" fill="#000" opacity="1">Price</text></g></g><path class="foreground" aria-hidden="true" d="" pointer-events="none" display="none"/></g></g><g class="mark-group role-scope child_pathgroup" role="graphics-object" aria-roledescription="group mark container"><g transform="translate(0,0)"><path class="background" aria-hidden="true" d="M0,0h200v200h-200Z"/><g><g class="mark-line role-mark child_marks" role="graphics-object" aria-roledescription="line mark container"><path aria-label="Time: Aug 30, 2023; Price: 10795; item: DESCHUTES_VALLEY™_RAIN_PONCHO_-_Parka_-_black" role="graphics-symbol" aria-roledescription="line mark" d="M0,80.056L0.486,80.056L0.982,80.056L1.98,80.056L2.478,80.056L2.994,80.056L3.476,80.056L3.974,80.056L4.973,80.056L5.471,80.056L5.985,80.056L6.468,80.056L6.967,80.056L7.965,80.056L8.463,80.056L8.972,80.056L9.46,80.056L9.96,80.056L10.958,80.056L11.815,80.056L11.966,80.056L12.454,80.056L12.953,80.056L13.951,80.056L14.45,80.056L14.965,80.056L15.446,80.056L15.945,80.056L16.946,50.056L17.445,50.056L17.958,50.056L18.44,50.056L18.938,50.056L19.936,50.056L20.435,50.056L20.952,50.056L21.432,50.056L21.931,50.056L22.93,50.056L23.428,50.056L23.942,50.056L24.426,50.056L24.924,50.056L26.236,50.056L26.42,50.056L26.934,50.056L27.417,50.056L27.917,50.056L28.913,50.056L29.413,50.056L29.921,50.056L30.41,50.056L30.909,50.056L31.907,50.056L32.405,50.056L32.914,50.056L33.403,50.056L33.901,50.056L34.899,50.056L35.398,50.056L35.916,50.056L36.396,50.056L36.894,50.056L37.892,50.056L38.391,50.056L38.907,50.056L39.388,50.056L39.888,50.056L40.885,20.056L41.384,20.056L41.901,20.056L42.164,20.056L42.381,20.056L42.88,20.056L43.878,20.056L44.376,20.056L44.893,20.056L45.375,20.056L45.873,20.056L46.87,20.056L47.369,20.056L47.884,20.056L48.366,20.056L48.865,20.056L49.863,20.056L50.362,20.056L50.869,20.056L51.36,20.056L51.858,20.056L52.855,20.056L53.355,20.056L53.863,20.056L54.352,20.056L54.851,20.056L55.849,20.056L56.347,20.056L56.865,20.056L57.345,20.056L57.844,20.056L58.841,20.056L59.34,20.056L59.857,20.056L60.338,20.056L60.837,20.056L61.834,20.056L62.334,20.056L62.851,20.056L63.331,20.056L63.829,20.056L64.827,20.056L65.326,20.056L65.844,20.056L66.324,20.056L66.822,20.056L67.82,20.056L68.319,20.056L68.834,20.056L69.316,20.056L69.815,20.056L70.812,20.056L71.311,20.056L71.82,20.056L72.309,20.056L72.808,20.056L73.805,20.056L74.304,20.056L74.813,20.056L75.302,20.056L75.8,20.056L76.798,20.056L77.297,20.056L77.815,20.056L78.294,20.056L78.793,20.056L79.791,20.056L80.29,20.056L80.808,20.056L81.287,20.056L81.786,20.056L82.784,40.056L83.282,40.056L83.799,40.056L84.28,40.056L84.78,40.056L85.776,40.056L86.275,40.056L86.792,40.056L87.272,40.056L88.769,40.056L89.268,40.056L89.783,40.056L90.266,40.056L90.764,40.056L91.762,40.056L92.26,40.056L92.77,40.056L93.258,40.056L93.757,40.056L94.755,40.056L95.254,40.056L95.764,40.056L96.251,40.056L96.75,40.056L97.747,100.056L98.246,100.056L98.764,100.056L99.244,100.056L99.743,100.056L100.741,90.056L101.24,90.056L101.757,90.056L102.237,90.056L102.735,90.056L103.732,90.056L104.232,90.056L104.752,90.056L105.23,90.056L105.729,90.056L106.726,90.056L107.224,90.056L107.745,90.056L108.222,90.056L108.722,90.056L109.718,90.056L110.218,90.056L110.736,90.056L111.215,90.056L111.714,90.056L112.711,90.056L113.211,90.056L113.72,90.056L114.207,90.056L114.707,90.056L115.705,90.056L116.202,90.056L117.201,90.056L117.699,90.056L118.697,90.056L119.196,90.056L119.717,90.056L120.194,90.056L120.692,90.056L121.69,100.056L122.189,100.056L122.708,100.056L123.186,100.056L123.685,100.056L124.683,100.056L125.182,100.056L125.7,100.056L126.179,100.056L126.678,100.056L127.675,100.056L128.174,100.056L128.692,100.056L129.172,100.056L129.671,100.056L130.668,100.056L131.167,100.056L131.685,100.056L132.165,100.056L132.663,100.056L133.661,100.056L134.16,100.056L134.669,100.056L135.157,100.056L135.656,100.056L136.654,100.056L137.152,100.056L137.662,100.056L138.149,100.056L138.649,100.056L139.647,90.056L140.146,90.056L140.664,90.056L141.143,90.056L141.642,90.056L142.639,90.056L143.138,90.056L143.656,90.056L144.136,90.056L144.634,90.056L145.632,90.056L146.131,90.056L146.648,90.056L147.128,90.056L147.627,90.056L148.625,90.056L149.123,90.056L149.642,90.056L150.121,90.056L150.62,90.056L151.618,90.056L152.117,90.056L152.633,90.056L153.113,90.056L153.612,90.056L154.61,90.056L155.109,90.056L155.618,90.056L156.107,90.056L156.605,90.056L157.603,90.056L158.102,90.056L158.611,90.056L159.099,90.056L159.598,90.056L160.595,90.056L161.094,90.056L161.612,90.056L162.093,90.056L162.591,90.056L163.588,50.056L164.087,50.056L164.603,50.056L165.084,50.056L165.583,50.056L166.581,50.056L167.08,50.056L167.596,50.056L168.077,50.056L168.577,50.056L169.574,50.056L170.073,50.056L170.587,50.056L171.07,50.056L171.569,50.056L172.567,50.056L173.067,50.056L173.579,50.056L174.063,50.056L174.562,50.056L175.559,50.056L176.058,50.056L176.566,50.056L177.055,50.056L177.555,50.056L178.553,50.056L179.051,50.056L179.561,50.056L180.049,50.056L180.547,50.056L181.545,50.056L182.044,50.056L182.559,50.056L183.042,50.056L183.54,50.056L184.538,50.056L185.037,50.056L185.551,50.056L186.035,50.056L186.533,50.056L187.531,50.056L188.029,50.056L188.544,50.056L189.027,50.056L189.526,50.056L190.524,40.056L191.022,40.056L191.537,40.056L192.02,40.056L195.013,40.056L195.512,40.056L196.509,40.056L197.518,40.056L198.005,40.056" stroke="#e45756" stroke-width="2"/></g></g><path class="foreground" aria-hidden="true" d="" display="none"/></g><g transform="translate(0,0)"><path class="background" aria-hidden="true" d="M0,0h200v200h-200Z"/><g><g class="mark-line role-mark child_marks" role="graphics-object" aria-roledescription="line mark container"><path aria-label="Time: Aug 30, 2023; Price: 8995; item: HIKING_BACKPACK_PONCHO_-_Veste_imperméable_-_blue" role="graphics-symbol" aria-roledescription="line mark" d="M0,100.056L0.486,100.056L0.982,100.056L1.98,100.056L2.478,100.056L2.994,100.056L3.476,100.056L3.974,100.056L4.973,100.056L5.471,100.056L5.985,100.056L6.468,100.056L6.967,100.056L7.965,100.056L8.463,100.056L8.972,100.056L9.46,100.056L9.96,100.056L10.958,100.056L11.815,100.056L11.966,100.056L35.398,100.056L35.916,100.056L36.396,100.056L36.894,100.056L37.892,100.056L38.391,100.056L38.907,100.056L39.388,100.056L39.888,100.056L40.885,100.056L41.384,100.056L41.901,100.056L42.164,100.056L42.381,100.056L42.88,100.056L43.878,100.056L44.376,100.056L44.893,100.056L45.375,100.056L45.873,100.056L46.87,100.056L47.369,100.056L47.884,100.056L48.367,100.056L48.865,100.056L49.863,100.056L50.362,100.056L50.869,100.056L51.36,100.056L51.858,100.056L52.855,100.056L53.355,100.056L87.272,111.167L88.769,111.167L89.268,111.167L89.783,111.167L90.266,111.167L90.764,111.167L91.762,111.167L92.26,111.167L92.77,111.167L93.258,111.167L93.757,111.167L94.755,111.167L95.254,111.167L95.764,111.167L96.251,111.167L96.75,111.167L97.747,111.167L98.246,111.167L98.764,111.167L99.244,111.167L99.743,111.167L100.741,127.833L101.24,127.833L101.757,127.833L102.237,127.833L102.735,127.833L103.733,127.833L104.232,127.833L104.752,127.833L105.23,127.833L105.729,127.833L106.726,127.833L107.224,127.833L107.745,127.833L108.222,127.833L108.722,127.833L109.718,127.833L110.218,127.833L110.736,127.833L111.215,127.833L111.714,127.833L112.711,127.833L113.211,127.833L113.72,127.833L114.207,127.833L114.707,127.833L115.705,127.833L116.202,127.833L117.201,127.833L117.699,127.833L118.697,127.833" stroke="#54a24b" stroke-width="2"/></g></g><path class="foreground" aria-hidden="true" d="" display="none"/></g><g transform="translate(0,0)"><path class="background" aria-hidden="true" d="M0,0h200v200h-200Z"/><g><g class="mark-line role-mark child_marks" role="graphics-object" aria-roledescription="line mark container"><path aria-label="Time: Aug 30, 2023; Price: 16195; item: DESCHUTES_VALLEY™_RAIN_PONCHO_-_Parka_-_vista_blue" role="graphics-symbol" aria-roledescription="line mark" d="M0,20.056L0.486,20.056L0.982,20.056L1.98,20.056L2.478,20.056L2.994,20.056L3.476,20.056L3.974,20.056L4.973,20.056L5.471,20.056L5.985,20.056L6.468,20.056L6.967,20.056L7.965,20.056L8.463,20.056L8.972,20.056L9.46,20.056L9.96,20.056L10.958,20.056L11.815,20.056L11.966,20.056L12.454,20.056L12.953,20.056L13.951,20.056L14.45,20.056L14.965,20.056L15.446,20.056L15.945,20.056L16.946,80.056L17.445,80.056L17.958,80.056L18.44,80.056L18.938,80.056L19.936,80.056L20.435,80.056L20.952,80.056L21.432,80.056L21.931,80.056L22.93,80.056L23.428,80.056L23.942,80.056L24.425,80.056L24.924,80.056L26.236,80.056L26.42,80.056L26.934,80.056L27.417,80.056L27.917,80.056L28.913,80.056L29.413,80.056L29.921,80.056L30.41,80.056L30.909,80.056L31.907,80.056L32.405,80.056L32.914,80.056L33.403,80.056L33.901,80.056L34.899,80.056L35.398,80.056L35.916,80.056L36.396,80.056L36.894,80.056L37.892,80.056L38.391,80.056L38.907,80.056L39.388,80.056L39.888,80.056L40.885,20.056L41.384,20.056L41.901,20.056L42.164,20.056L42.381,20.056L42.88,20.056L43.878,20.056L44.376,20.056L44.893,20.056L45.375,20.056L45.873,20.056L46.87,20.056L47.369,20.056L47.884,20.056L48.366,20.056L48.865,20.056L49.863,20.056L50.362,20.056L50.869,20.056L51.36,20.056L51.858,20.056L52.855,20.056L53.355,20.056L53.863,20.056L54.352,20.056L54.851,20.056L55.849,20.056L56.347,20.056L56.865,20.056L57.345,20.056L57.844,20.056L58.841,20.056L59.34,20.056L59.857,20.056L60.338,20.056L60.837,20.056L61.834,20.056L62.334,20.056L62.851,20.056L63.331,20.056L63.829,20.056L64.827,20.056L65.326,20.056L65.843,20.056L66.324,20.056L66.822,20.056L67.82,20.056L68.319,20.056L68.834,20.056L69.316,20.056L69.815,20.056L70.812,20.056L71.311,20.056L71.82,20.056L72.309,20.056L72.808,20.056L73.805,20.056L74.304,20.056L74.813,20.056L75.302,20.056L75.8,20.056L76.798,20.056L77.297,20.056L77.815,20.056L78.294,20.056L78.793,20.056L79.791,20.056L80.29,20.056L80.808,20.056L81.287,20.056L81.786,20.056L82.784,40.056L83.282,40.056L83.799,40.056L84.28,40.056L84.78,40.056L85.776,40.056L86.275,40.056L86.792,40.056L87.272,40.056L88.769,40.056L89.268,40.056L89.783,40.056L90.266,40.056L90.764,40.056L91.762,40.056L92.26,40.056L92.77,40.056L93.258,40.056L93.757,40.056L94.755,40.056L95.254,40.056L95.764,40.056L96.251,40.056L96.75,40.056L97.747,90.056L98.246,90.056L98.764,90.056L99.244,90.056L99.743,90.056L100.741,40.056L101.24,40.056L101.757,40.056L102.237,40.056L102.735,40.056L103.732,40.056L104.232,40.056L104.752,40.056L105.23,40.056L105.729,40.056L106.726,40.056L107.224,40.056L107.745,40.056L108.222,40.056L108.722,40.056L109.718,40.056L110.218,40.056L110.736,40.056L111.215,40.056L111.714,40.056L112.711,40.056L113.211,40.056L113.72,40.056L114.207,40.056L114.707,40.056L115.705,40.056L116.202,40.056L117.201,40.056L117.699,40.056L118.697,40.056L119.196,40.056L119.717,40.056L120.194,40.056L120.692,40.056L121.69,90.056L122.189,90.056L122.708,90.056L123.186,90.056L123.685,90.056L124.683,90.056L125.182,90.056L125.7,90.056L126.179,90.056L126.678,90.056L127.675,90.056L128.174,90.056L128.692,90.056L129.172,90.056L129.671,90.056L130.668,90.056L131.167,90.056L131.685,90.056L132.165,90.056L132.663,90.056L133.661,40.056L134.16,40.056L134.669,40.056L135.157,40.056L135.656,40.056L136.654,40.056L137.152,40.056L137.662,40.056L138.149,40.056L138.649,40.056L139.647,100.056L140.146,100.056L140.664,100.056L141.143,100.056L141.642,100.056L142.639,100.056L143.138,100.056L143.656,100.056L144.136,100.056L144.634,100.056L145.632,100.056L146.131,100.056L146.648,100.056L147.128,100.056L147.627,100.056L148.625,100.056L149.123,100.056L149.642,100.056L150.121,100.056L150.619,100.056L151.618,100.056L152.117,100.056L152.633,100.056L153.113,100.056L153.612,100.056L154.61,100.056L155.109,100.056L155.618,100.056L156.107,100.056L156.605,100.056L157.603,100.056L158.102,100.056L158.611,100.056L159.099,100.056L159.598,100.056L160.595,100.056L161.094,100.056L161.612,100.056L162.093,100.056L162.591,100.056L163.588,40.056L164.087,40.056L164.603,40.056L165.084,40.056L165.583,40.056L166.581,40.056L167.08,40.056L167.596,40.056L168.077,40.056L168.577,40.056L169.574,40.056L170.073,40.056L170.587,40.056L171.07,40.056L171.569,40.056L172.567,40.056L173.067,40.056L173.579,40.056L174.063,40.056L174.562,40.056L175.559,40.056L176.059,40.056L176.566,40.056L177.055,40.056L177.555,40.056L178.553,40.056L179.051,40.056L179.561,40.056L180.049,40.056L180.547,40.056L181.545,40.056L182.044,40.056L182.559,40.056L183.042,40.056L183.54,40.056L184.538,40.056L185.037,40.056L185.551,40.056L186.035,40.056L186.533,40.056L187.531,40.056L188.029,40.056L188.544,40.056L189.027,40.056L189.526,40.056L190.524,40.056L191.022,40.056L191.537,40.056L192.02,40.056L192.518,40.056L193.516,40.056L194.015,40.056L194.532,40.056L195.013,40.056L195.512,40.056L196.509,40.056L197.008,40.056L197.518,40.056L198.005,40.056L198.505,40.056L199.502,40.056L200,40.056" stroke="#f58518" stroke-width="2"/></g></g><path class="foreground" aria-hidden="true" d="" display="none"/></g><g transform="translate(0,0)"><path class="background" aria-hidden="true" d="M0,0h200v200h-200Z"/><g><g class="mark-line role-mark child_marks" role="graphics-object" aria-roledescription="line mark container"><path aria-label="Time: Aug 30, 2023; Price: 5495; item: COVERO_PONCHO_II_-_Cape_-_lightgrey" role="graphics-symbol" aria-roledescription="line mark" d="M0,138.944L0.486,138.944L0.982,138.944L1.98,138.944L2.478,138.944L2.994,138.944L3.476,138.944L3.974,138.944L4.973,138.944L5.471,138.944L8.463,138.944L8.972,138.944L9.46,138.944L9.96,138.944L10.958,138.944L11.815,138.944L11.966,138.944L12.454,138.944L12.953,138.944L13.951,138.944L14.45,138.944L14.966,138.944L15.446,138.944L15.945,138.944L16.946,138.944L17.445,138.944L17.958,138.944L18.44,138.944L18.938,138.944L27.417,153.944L32.405,138.944L32.914,138.944L33.403,138.944L33.901,138.944L34.899,138.944L35.398,138.944L35.916,138.944L36.396,138.944L36.894,138.944L37.892,138.944L38.391,138.944L38.907,138.944L39.388,138.944L39.888,138.944L40.885,138.944L41.384,138.944L41.901,138.944L42.164,138.944L42.381,138.944L42.88,138.944L43.878,138.944L44.376,138.944L44.893,138.944L45.375,138.944L45.873,138.944L46.87,138.944L47.369,138.944L47.884,138.944L48.367,138.944L48.865,138.944L49.863,138.944L50.362,138.944L50.869,138.944L51.36,138.944L51.858,138.944L52.855,138.944L53.355,138.944L53.863,138.944L54.352,138.944L54.851,138.944L55.849,138.944L56.347,138.944L56.865,138.944L57.345,138.944L57.844,138.944L58.841,138.944L59.34,138.944L59.857,138.944L60.338,138.944L60.837,138.944L61.834,151.167L62.334,151.167L62.851,151.167L63.331,151.167L63.829,151.167L64.827,151.167L65.326,151.167L65.844,151.167L66.324,151.167L66.822,151.167L67.82,151.167L68.319,151.167L68.834,151.167L71.311,151.167L71.82,151.167L72.309,151.167L72.808,151.167L73.805,151.167L74.304,151.167L74.813,151.167L75.302,151.167L75.8,151.167L76.798,151.167L77.297,151.167L77.815,151.167L78.294,151.167L78.793,151.167L79.791,151.167L80.29,151.167L80.808,151.167L81.287,151.167L81.786,151.167L82.784,151.167L83.282,151.167L83.799,151.167L84.28,151.167L84.78,151.167L85.776,151.167L86.275,151.167L86.792,151.167L87.273,151.167L88.769,151.167L89.268,151.167L89.783,151.167L90.266,151.167L90.764,151.167L91.762,151.167L92.26,151.167L92.77,151.167L93.258,151.167L93.757,151.167L94.755,151.167L95.254,151.167L95.764,151.167L96.251,151.167L96.75,151.167L97.747,151.167L98.246,151.167L98.764,151.167L99.244,151.167L99.743,151.167L100.741,151.167L101.24,151.167L101.757,151.167L102.237,151.167L102.735,151.167L103.733,151.167L104.232,151.167L104.752,151.167L105.23,151.167L105.729,151.167L106.726,151.167L107.224,151.167L107.745,151.167L108.222,151.167L108.722,151.167L109.718,151.167L110.218,151.167L110.736,151.167L111.215,151.167L111.715,151.167L113.211,151.167L113.72,151.167L115.705,151.167L116.202,151.167L117.201,151.167L117.699,151.167L120.194,151.167L120.692,151.167L121.69,151.167L122.189,151.167L122.708,151.167L123.685,151.167L124.683,138.944L125.182,138.944L125.7,138.944L126.179,138.944L126.678,138.944L132.165,138.944L135.157,153.944L141.642,153.944L142.639,153.944L144.136,153.944L145.632,153.944L147.128,153.944L147.627,153.944L149.123,153.944L153.113,153.944L153.612,153.944L154.61,153.944L158.611,153.944L159.099,153.944L159.598,153.944L160.595,153.944L162.093,153.944L162.591,153.944L163.588,153.944L164.088,153.944L164.603,153.944L165.583,153.944L167.08,153.944L167.596,153.944L168.077,153.944L169.574,153.944L170.073,153.944L171.07,153.944L174.063,153.944L174.562,153.944L175.559,153.944L176.566,153.944L177.055,153.944L177.555,153.944L179.051,153.944L179.561,153.944L180.049,153.944L181.545,153.944L182.044,153.944L182.559,153.944L183.042,153.944L183.54,153.944L184.538,153.944L185.037,153.944L185.552,153.944L186.035,153.944L186.533,153.944L187.531,153.944L191.022,153.944L191.537,153.944L192.02,153.944L192.518,153.944L194.015,153.944L194.532,153.944L195.013,153.944L195.512,153.944L196.509,145.611L197.008,145.611" stroke="#9d755d" stroke-width="2"/></g></g><path class="foreground" aria-hidden="true" d="" display="none"/></g><g transform="translate(0,0)"><path class="background" aria-hidden="true" d="M0,0h200v200h-200Z"/><g><g class="mark-line role-mark child_marks" role="graphics-object" aria-roledescription="line mark container"><path aria-label="Time: Sep 01, 2023; Price: 12995; item: KUURA_3L_PONCHO_UNISEX_-_Veste_imperméable_-_green" role="graphics-symbol" aria-roledescription="line mark" d="M6.967,55.611L7.965,55.611L8.463,55.611L8.972,55.611L14.45,55.611L14.966,55.611L15.446,55.611L15.945,55.611L16.946,11.167L17.445,11.167L17.958,11.167L18.44,11.167L18.938,11.167L19.936,11.167L20.435,11.167L20.952,11.167L21.432,11.167L21.931,11.167L22.93,11.167L23.428,11.167L23.942,11.167L24.426,11.167L24.924,11.167L26.236,11.167L26.42,11.167L26.934,11.167L27.417,11.167L27.917,11.167L28.913,11.167L29.413,11.167L29.921,11.167L30.41,11.167L30.909,11.167L31.907,11.167L32.405,11.167L32.914,11.167L33.403,11.167L33.901,11.167L34.899,11.167L35.398,11.167L35.916,11.167L36.396,11.167L37.892,11.167L38.391,11.167L38.907,11.167L39.388,11.167L39.888,11.167L50.869,22.278L51.36,22.278L51.858,22.278L52.855,22.278L53.355,22.278L53.863,22.278L54.352,22.278L54.851,22.278L55.849,22.278L56.347,22.278L56.865,22.278L59.34,22.278L59.857,22.278L60.338,22.278L60.837,22.278L61.834,22.278L62.334,22.278L102.237,22.278L102.735,22.278L103.733,22.278L104.232,22.278L104.752,22.278L105.23,22.278L105.729,22.278L106.726,22.278L107.224,22.278L107.745,22.278L108.222,22.278L108.722,22.278L109.718,22.278L110.218,22.278L110.736,22.278L111.215,22.278L111.714,22.278L112.711,22.278L113.211,22.278L113.72,22.278L114.207,22.278L114.707,22.278L160.595,22.278L161.094,22.278L161.612,22.278L162.093,22.278L162.591,22.278L163.588,22.278L164.087,22.278L164.603,22.278L165.084,22.278" stroke="#4c78a8" stroke-width="2"/></g></g><path class="foreground" aria-hidden="true" d="" display="none"/></g><g transform="translate(0,0)"><path class="background" aria-hidden="true" d="M0,0h200v200h-200Z"/><g><g class="mark-line role-mark child_marks" role="graphics-object" aria-roledescription="line mark container"><path aria-label="Time: Sep 14, 2023; Price: 6495; item: PARIS_ST._GERMAIN_CITY_MADE_PONCHO_-_Veste_de_survêtement_-_aura_white" role="graphics-symbol" aria-roledescription="line mark" d="M43.878,127.833L44.376,127.833L44.893,127.833L45.375,127.833L45.873,127.833L46.87,127.833L47.369,127.833L49.863,127.833L53.355,127.833L53.863,127.833L54.352,127.833L54.851,127.833L55.849,127.833L56.347,127.833L56.865,127.833L57.345,127.833L57.844,127.833L58.841,127.833L59.34,127.833L59.857,127.833L60.338,127.833L60.837,127.833L61.834,127.833L62.334,127.833L62.851,127.833L63.331,127.833L63.829,127.833L64.827,127.833L65.326,127.833L65.844,127.833L66.324,127.833L66.822,127.833L67.82,127.833L68.319,127.833L68.834,127.833L69.316,127.833L69.815,127.833L70.812,127.833L71.311,127.833L71.82,127.833L72.309,127.833L72.808,127.833L73.805,127.833L74.304,127.833L74.813,127.833L75.302,127.833L75.8,127.833L76.798,127.833L77.297,127.833L77.815,127.833L78.294,127.833L78.793,127.833L79.791,127.833L80.29,127.833L80.808,127.833" stroke="#b279a2" stroke-width="2"/></g></g><path class="foreground" aria-hidden="true" d="" display="none"/></g><g transform="translate(0,0)"><path class="background" aria-hidden="true" d="M0,0h200v200h-200Z"/><g><g class="mark-line role-mark child_marks" role="graphics-object" aria-roledescription="line mark container"><path aria-label="Time: Sep 18, 2023; Price: 8995; item: HIKING_BACKPACK_PONCHO_-_Veste_imperméable_-_indian_red" role="graphics-symbol" aria-roledescription="line mark" d="M55.849,100.056L56.347,100.056L56.865,100.056L57.345,100.056L57.844,100.056L58.841,100.056L59.34,100.056L78.294,100.056L78.793,100.056L79.791,100.056L80.29,100.056L80.808,100.056L81.287,100.056L81.786,100.056L82.784,111.167L83.282,111.167L83.799,111.167L84.28,111.167L131.685,111.167L132.165,111.167L132.663,111.167L133.661,111.167L134.16,111.167L134.669,111.167L135.157,111.167L135.656,111.167L136.654,111.167" stroke="#eeca3b" stroke-width="2"/></g></g><path class="foreground" aria-hidden="true" d="" display="none"/></g><g transform="translate(0,0)"><path class="background" aria-hidden="true" d="M0,0h200v200h-200Z"/><g><g class="mark-line role-mark child_marks" role="graphics-object" aria-roledescription="line mark container"><path aria-label="Time: Sep 26, 2023; Price: 6495; item: PSG_M_NSW_CITY_MADE_PONCHO_-_Veste_de_survêtement_-_aura_white" role="graphics-symbol" aria-roledescription="line mark" d="M81.287,127.833L81.786,127.833L82.784,91.167L83.282,91.167L83.799,91.167L84.28,91.167L84.78,91.167L85.776,91.167L86.275,91.167L86.792,91.167L87.273,91.167L88.769,91.167L89.268,91.167L89.783,91.167L90.266,91.167L90.764,91.167L91.762,91.167L92.26,91.167L92.77,91.167L93.258,91.167L93.757,91.167L94.755,91.167L95.254,91.167L95.764,91.167L96.251,91.167L96.75,91.167L97.747,127.833L98.246,127.833L98.764,127.833L99.244,127.833L99.743,127.833L100.741,127.833L101.24,127.833L101.757,127.833L102.237,127.833L102.735,127.833L103.733,127.833L104.232,127.833L104.752,127.833L105.23,127.833L105.729,127.833L106.726,127.833L107.224,127.833L107.745,127.833L108.222,127.833L108.722,127.833L109.718,127.833L110.218,127.833L110.736,127.833L111.215,127.833L111.714,127.833L112.711,127.833L113.211,127.833L113.72,127.833L114.207,127.833L114.707,127.833L115.705,127.833L116.202,127.833L117.201,127.833L117.699,127.833L118.697,127.833L119.196,127.833L119.717,127.833L120.194,127.833L120.692,127.833L121.69,84.5L122.189,84.5L122.708,84.5L123.685,84.5L124.683,84.5L125.182,84.5L125.7,84.5L126.179,84.5L126.678,84.5L127.675,84.5L128.174,84.5L130.668,84.5L132.165,84.5L135.157,127.833L136.654,127.833L140.146,127.833L140.664,127.833L159.598,127.833L160.595,127.833L161.094,127.833L161.612,127.833L164.088,127.833L164.603,127.833L168.077,127.833L168.577,127.833L170.587,127.833L171.569,127.833L172.567,127.833L173.579,127.833L176.059,127.833L177.555,127.833L178.553,127.833L179.051,127.833L179.561,127.833L180.547,127.833L182.044,127.833L183.54,127.833L184.538,127.833L185.037,127.833L185.551,127.833L186.035,127.833L186.533,127.833L187.531,127.833L188.029,127.833L188.544,127.833L189.027,127.833L189.526,127.833L190.524,127.833L191.022,127.833L191.537,127.833L192.02,127.833L192.518,127.833L193.516,127.833L194.015,127.833L194.532,127.833L195.013,127.833L195.512,127.833L196.509,127.833L197.008,127.833L197.518,127.833L198.005,127.833L198.505,127.833L199.502,127.833L200,127.833" stroke="#ff9da6" stroke-width="2"/></g></g><path class="foreground" aria-hidden="true" d="" display="none"/></g><g transform="translate(0,0)"><path class="background" aria-hidden="true" d="M0,0h200v200h-200Z"/><g><g class="mark-line role-mark child_marks" role="graphics-object" aria-roledescription="line mark container"><path aria-label="Time: Oct 12, 2023; Price: 4995; item: SHOWERPROOF_PONCHO_UNISEX_-_Cape_-_classic_tartan" role="graphics-symbol" aria-roledescription="line mark" d="M127.675,144.5L128.174,144.5L128.692,144.5L129.172,144.5L129.671,144.5L130.668,144.5L131.167,144.5L131.685,144.5L132.165,144.5L132.663,144.5L133.661,144.5L134.16,144.5L134.669,144.5L135.157,144.5L135.656,144.5L136.654,144.5L137.152,144.5L137.662,144.5L138.149,144.5L138.649,144.5L139.647,152.611L140.146,152.611L140.664,152.611L141.143,152.611L141.642,152.611L142.639,152.611L143.138,152.611L143.656,152.611L144.136,152.611L144.634,152.611L145.632,152.611L146.131,152.611L146.648,152.611L147.128,152.611L147.627,152.611L148.625,152.611L149.123,152.611L149.642,152.611L150.121,152.611L150.62,152.611L151.618,152.611L152.117,152.611L152.633,152.611L153.113,152.611L153.612,152.611L154.61,152.611L155.109,152.611L155.618,152.611L156.107,152.611L156.605,152.611L157.603,144.5L158.102,144.5L158.611,144.5L159.099,144.5L159.598,144.5L160.595,144.5L161.094,144.5L161.612,144.5L162.093,144.5L162.591,144.5L163.588,152.611L164.088,152.611L164.603,152.611L165.084,152.611L165.583,152.611L166.581,152.611L167.08,152.611L167.596,152.611L168.077,152.611L168.577,152.611L169.574,152.611L170.073,152.611L170.587,152.611L171.07,152.611L171.569,152.611L172.567,152.611L173.067,152.611L173.579,152.611L174.063,152.611L174.562,152.611L175.559,152.611L176.059,152.611L176.566,152.611L177.055,152.611L177.555,152.611L178.553,152.611L179.051,152.611L179.561,152.611L180.049,152.611L180.547,152.611L181.545,144.5L182.044,144.5L182.559,144.5L183.042,144.5L183.54,144.5L184.538,144.5L185.037,144.5L185.551,144.5L186.035,144.5L186.533,144.5L187.531,152.611L188.029,152.611L188.544,152.611L189.027,152.611L189.526,152.611L190.524,152.611L191.022,152.611L191.537,152.611L192.02,152.611L192.518,152.611L193.516,152.611L194.015,152.611L194.532,152.611L195.013,152.611L195.512,152.611L196.509,152.611L197.008,152.611L197.518,152.611L198.005,152.611L198.505,152.611L199.502,152.611L200,152.611" stroke="#bab0ac" stroke-width="2"/></g></g><path class="foreground" aria-hidden="true" d="" display="none"/></g><g transform="translate(0,0)"><path class="background" aria-hidden="true" d="M0,0h200v200h-200Z"/><g><g class="mark-line role-mark child_marks" role="graphics-object" aria-roledescription="line mark container"><path aria-label="Time: Oct 12, 2023; Price: 13995; item: PONCHO_-_Cape_-_lucid_blue" role="graphics-symbol" aria-roledescription="line mark" d="M127.675,44.5L131.167,44.5L132.165,44.5L133.661,91.167L135.157,91.167L137.152,91.167L137.662,91.167L138.149,91.167L138.649,91.167L139.647,91.167L140.146,91.167L140.664,91.167L141.143,91.167L141.642,91.167L142.639,91.167L143.138,91.167L143.656,91.167L144.136,91.167L144.634,91.167L145.632,91.167L146.131,91.167L146.648,91.167L147.128,91.167L147.627,91.167L148.625,91.167L149.123,91.167L149.642,91.167L150.62,91.167L153.113,91.167L153.612,91.167L154.61,91.167L156.107,91.167L157.603,91.167L158.102,91.167L158.611,91.167L159.099,91.167L159.598,91.167L162.093,91.167L163.588,114.5L164.088,114.5L165.583,114.5L167.08,114.5L167.596,114.5L168.077,114.5L169.574,114.5L172.567,114.5L173.067,114.5L173.579,114.5L174.063,114.5L174.562,114.5L175.559,114.5L176.059,114.5L176.566,114.5L177.055,114.5L177.555,114.5L178.553,114.5L179.051,114.5L179.561,114.5L180.049,114.5L180.547,114.5L181.545,114.5L182.044,114.5L182.559,114.5L183.042,114.5L183.54,114.5L184.538,114.5L185.037,114.5L185.552,114.5L186.035,114.5L186.533,114.5L187.531,114.5L188.029,114.5L188.544,114.5L189.027,114.5L189.526,114.5L190.524,83.389L191.022,83.389L192.518,83.389L193.516,83.389L196.509,83.389L197.008,83.389L198.005,83.389L198.505,83.389L199.502,83.389L200,83.389" stroke="#72b7b2" stroke-width="2"/></g></g><path class="foreground" aria-hidden="true" d="" display="none"/></g></g><g class="mark-group role-legend" role="graphics-symbol" aria-roledescription="legend" aria-label="Symbol legend titled 'item' for stroke color with 10 values: KUURA_3L_PONCHO_UNISEX_-_Veste_imperméable_-_green, DESCHUTES_VALLEY™_RAIN_PONCHO_-_Parka_-_vista_blue, DESCHUTES_VALLEY™_RAIN_PONCHO_-_Parka_-_black, PONCHO_-_Cape_-_lucid_blue, HIKING_BACKPACK_PONCHO_-_Veste_imperméable_-_blue, ending with SHOWERPROOF_PONCHO_UNISEX_-_Cape_-_classic_tartan"><g transform="translate(220,0)"><path class="background" aria-hidden="true" d="M0,0h328v144h-328Z" pointer-events="none"/><g><g class="mark-group role-legend-entry"><g transform="translate(0,16)"><path class="background" aria-hidden="true" d="M0,0h0v0h0Z" pointer-events="none"/><g><g class="mark-group role-scope" role="graphics-object" aria-roledescription="group mark container"><g transform="translate(0,0)"><path class="background" aria-hidden="true" d="M0,0h328v11h-328Z" pointer-events="none" opacity="1"/><g><g class="mark-symbol role-legend-symbol" pointer-events="none"><path transform="translate(6,6)" d="M-5,0L5,0" stroke="#4c78a8" stroke-width="1.5" opacity="1"/></g><g class="mark-text role-legend-label" pointer-events="none"><text text-anchor="start" transform="translate(16,9)" font-family="Liberation Mono" font-size="10px" fill="#000" opacity="1">KUURA_3L_PONCHO_UNISEX_-_Veste_impermé…</text></g></g><path class="foreground" aria-hidden="true" d="" pointer-events="none" display="none"/></g><g transform="translate(0,13)"><path class="background" aria-hidden="true" d="M0,0h328v11h-328Z" pointer-events="none" opacity="1"/><g><g class="mark-symbol role-legend-symbol" pointer-events="none"><path transform="translate(6,6)" d="M-5,0L5,0" stroke="#f58518" stroke-width="1.5" opacity="1"/></g><g class="mark-text role-legend-label" pointer-events="none"><text text-anchor="start" transform="translate(16,9)" font-family="Liberation Mono" font-size="10px" fill="#000" opacity="1">DESCHUTES_VALLEY™_RAIN_PONCHO_-_Parka_…</text></g></g><path class="foreground" aria-hidden="true" d="" pointer-events="none" display="none"/></g><g transform="translate(0,26)"><path class="background" aria-hidden="true" d="M0,0h328v11h-328Z" pointer-events="none" opacity="1"/><g><g class="mark-symbol role-legend-symbol" pointer-events="none"><path transform="translate(6,6)" d="M-5,0L5,0" stroke="#e45756" stroke-width="1.5" opacity="1"/></g><g class="mark-text role-legend-label" pointer-events="none"><text text-anchor="start" transform="translate(16,9)" font-family="Liberation Mono" font-size="10px" fill="#000" opacity="1">DESCHUTES_VALLEY™_RAIN_PONCHO_-_Parka_…</text></g></g><path class="foreground" aria-hidden="true" d="" pointer-events="none" display="none"/></g><g transform="translate(0,39)"><path class="background" aria-hidden="true" d="M0,0h328v11h-328Z" pointer-events="none" opacity="1"/><g><g class="mark-symbol role-legend-symbol" pointer-events="none"><path transform="translate(6,6)" d="M-5,0L5,0" stroke="#72b7b2" stroke-width="1.5" opacity="1"/></g><g class="mark-text role-legend-label" pointer-events="none"><text text-anchor="start" transform="translate(16,9)" font-family="Liberation Mono" font-size="10px" fill="#000" opacity="1">PONCHO_-_Cape_-_lucid_blue</text></g></g><path class="foreground" aria-hidden="true" d="" pointer-events="none" display="none"/></g><g transform="translate(0,52)"><path class="background" aria-hidden="true" d="M0,0h328v11h-328Z" pointer-events="none" opacity="1"/><g><g class="mark-symbol role-legend-symbol" pointer-events="none"><path transform="translate(6,6)" d="M-5,0L5,0" stroke="#54a24b" stroke-width="1.5" opacity="1"/></g><g class="mark-text role-legend-label" pointer-events="none"><text text-anchor="start" transform="translate(16,9)" font-family="Liberation Mono" font-size="10px" fill="#000" opacity="1">HIKING_BACKPACK_PONCHO_-_Veste_impermé…</text></g></g><path class="foreground" aria-hidden="true" d="" pointer-events="none" display="none"/></g><g transform="translate(0,65)"><path class="background" aria-hidden="true" d="M0,0h328v11h-328Z" pointer-events="none" opacity="1"/><g><g class="mark-symbol role-legend-symbol" pointer-events="none"><path transform="translate(6,6)" d="M-5,0L5,0" stroke="#eeca3b" stroke-width="1.5" opacity="1"/></g><g class="mark-text role-legend-label" pointer-events="none"><text text-anchor="start" transform="translate(16,9)" font-family="Liberation Mono" font-size="10px" fill="#000" opacity="1">HIKING_BACKPACK_PONCHO_-_Veste_impermé…</text></g></g><path class="foreground" aria-hidden="true" d="" pointer-events="none" display="none"/></g><g transform="translate(0,78)"><path class="background" aria-hidden="true" d="M0,0h328v11h-328Z" pointer-events="none" opacity="1"/><g><g class="mark-symbol role-legend-symbol" pointer-events="none"><path transform="translate(6,6)" d="M-5,0L5,0" stroke="#b279a2" stroke-width="1.5" opacity="1"/></g><g class="mark-text role-legend-label" pointer-events="none"><text text-anchor="start" transform="translate(16,9)" font-family="Liberation Mono" font-size="10px" fill="#000" opacity="1">PARIS_ST._GERMAIN_CITY_MADE_PONCHO_-_V…</text></g></g><path class="foreground" aria-hidden="true" d="" pointer-events="none" display="none"/></g><g transform="translate(0,91)"><path class="background" aria-hidden="true" d="M0,0h328v11h-328Z" pointer-events="none" opacity="1"/><g><g class="mark-symbol role-legend-symbol" pointer-events="none"><path transform="translate(6,6)" d="M-5,0L5,0" stroke="#ff9da6" stroke-width="1.5" opacity="1"/></g><g class="mark-text role-legend-label" pointer-events="none"><text text-anchor="start" transform="translate(16,9)" font-family="Liberation Mono" font-size="10px" fill="#000" opacity="1">PSG_M_NSW_CITY_MADE_PONCHO_-_Veste_de_…</text></g></g><path class="foreground" aria-hidden="true" d="" pointer-events="none" display="none"/></g><g transform="translate(0,104)"><path class="background" aria-hidden="true" d="M0,0h328v11h-328Z" pointer-events="none" opacity="1"/><g><g class="mark-symbol role-legend-symbol" pointer-events="none"><path transform="translate(6,6)" d="M-5,0L5,0" stroke="#9d755d" stroke-width="1.5" opacity="1"/></g><g class="mark-text role-legend-label" pointer-events="none"><text text-anchor="start" transform="translate(16,9)" font-family="Liberation Mono" font-size="10px" fill="#000" opacity="1">COVERO_PONCHO_II_-_Cape_-_lightgrey</text></g></g><path class="foreground" aria-hidden="true" d="" pointer-events="none" display="none"/></g><g transform="translate(0,117)"><path class="background" aria-hidden="true" d="M0,0h328v11h-328Z" pointer-events="none" opacity="1"/><g><g class="mark-symbol role-legend-symbol" pointer-events="none"><path transform="translate(6,6)" d="M-5,0L5,0" stroke="#bab0ac" stroke-width="1.5" opacity="1"/></g><g class="mark-text role-legend-label" pointer-events="none"><text text-anchor="start" transform="translate(16,9)" font-family="Liberation Mono" font-size="10px" fill="#000" opacity="1">SHOWERPROOF_PONCHO_UNISEX_-_Cape_-_cla…</text></g></g><path class="foreground" aria-hidden="true" d="" pointer-events="none" display="none"/></g></g></g><path class="foreground" aria-hidden="true" d="" pointer-events="none" display="none"/></g></g><g class="mark-text role-legend-title" pointer-events="none"><text text-anchor="start" transform="translate(0,9)" font-family="Liberation Mono" font-size="11px" font-weight="bold" fill="#000" opacity="1">item</text></g></g><path class="foreground" aria-hidden="true" d="" pointer-events="none" display="none"/></g></g></g><path class="foreground" aria-hidden="true" d="" display="none"/></g></g></g><path class="foreground" aria-hidden="true" d="" display="none"/></g></g></g></svg>