<svg xmlns="http://www.w3.org/2000/svg" xmlns:xlink="http://www.w3.org/1999/xlink" version="1.1" class="marks" width="658" height="244" viewBox="0 0 658 244"><rect width="658" height="244" fill="white"/><g fill="none" stroke-miterlimit="10" transform="translate(104,6)"><g class="mark-group role-frame root" role="graphics-object" aria-roledescription="group mark container"><g transform="translate(0,0)"><path class="background" aria-hidden="true" d="M0,0h0v0h0Z"/><g><g class="mark-group role-row-title row-title" role="graphics-object" aria-roledescription="group mark container"><g transform="translate(-78,116)"><path class="background" aria-hidden="true" d="M0,0h0v0h0Z"/><g><g class="mark-group role-title"><g transform="translate(-21.000000000000004,0)"><path class="background" aria-hidden="true" d="M0,0h0v0h0Z" pointer-events="none"/><g><g class="mark-text role-title-text" role="graphics-symbol" aria-roledescription="title" aria-label="Title text 'group'" pointer-events="none"><text text-anchor="middle" transform="translate(0,0) rotate(-90) translate(0,9)" font-family="Liberation Mono" font-size="11px" font-weight="bold" fill="#000" opacity="1">group</text></g></g><path class="foreground" aria-hidden="true" d="" pointer-events="none" display="none"/></g></g></g><path class="foreground" aria-hidden="true" d="" display="none"/></g></g><g class="mark-group role-row-header row_header" role="graphics-object" aria-roledescription="group mark container"><g transform="translate(-47,0)"><path class="background" aria-hidden="true" d="M0,0h0v200h0Z"/><g><g class="mark-group role-title"><g transform="translate(-20.000000000000007,100)"><path class="background" aria-hidden="true" d="M0,0h0v0h0Z" pointer-events="none"/><g><g class="mark-text role-title-text" role="graphics-symbol" aria-roledescription="title" aria-label="Title text 'zalando-poncho'" pointer-events="none"><text text-anchor="middle" transform="translate(0,0) rotate(-90) translate(0,8)" font-family="Liberation Mono" font-size="10px" fill="#000" opacity="1">zalando-poncho</text></g></g><path class="foreground" aria-hidden="true" d="" pointer-events="none" display="none"/></g></g></g><path class="foreground" aria-hidden="true" d="" display="none"/></g></g><g class="mark-group role-scope cell" role="graphics-object" aria-roledescription="group mark container"><g transform="translate(0,0)"><path class="background" aria-hidden="true" d="M0.5,0.5h200v200h-200Z" stroke="#ddd"/><g><g class="mark-group role-axis" aria-hidden="true"><g transform="translate(0.5,200.5)"><path class="background" aria-hidden="true" d="M0,0h0v0h0Z" pointer-events="none"/><g><g class="mark-rule role-axis-grid" pointer-events="none"><line transform="translate(25,-200)" x2="0" y2="200" stroke="#ddd" stroke-width="1" opacity="1"/><line transform="translate(75,-200)" x2="0" y2="200" stroke="#ddd" stroke-width="1" opacity="1"/><line transform="translate(125,-200)" x2="0" y2="200" stroke="#ddd" stroke-width="1" opacity="1"/><line transform="translate(176,-200)" x2="0" y2="200" stroke="#ddd" stroke-width="1" opacity="1"/></g></g><path class="foreground" aria-hidden="true" d="" pointer-events="none" display="none"/></g></g><g class="mark-group role-axis" aria-hidden="true"><g transform="translate(0.5,0.5)"><path class="background" aria-hidden="true" d="M0,0h0v0h0Z" pointer-events="none"/><g><g class="mark-rule role-axis-grid" pointer-events="none"><line transform="translate(0,200)" x2="200" y2="0" stroke="#ddd" stroke-width="1" opacity="1"/><line transform="translate(0,144)" x2="200" y2="0" stroke="#ddd" stroke-width="1" opacity="1"/><line transform="translate(0,89)" x2="200" y2="0" stroke="#ddd" stroke-width="1" opacity="1"/><line transform="translate(0,33)" x2="200" y2="0" stroke="#ddd" stroke-width="1" opacity="1"/></g></g><path class="foreground" aria-hidden="true" d="" pointer-events="none" display="none"/></g></g><g class="mark-group role-axis" role="graphics-symbol" aria-roledescription="axis" aria-label="X-axis titled 'Time' for a time scale with values from Wednesday, 30 August 2023, 12:58:24 PM to Wednesday, 27 September 2023, 8:50:15 AM"><g transform="translate(0.5,200.5)"><path class="background" aria-hidden="true" d="M0,0h0v0h0Z" pointer-events="none"/><g><g class="mark-rule role-axis-tick" pointer-events="none"><line transform="translate(25,0)" x2="0" y2="5" stroke="#888" stroke-width="1" opacity="1"/><line transform="translate(75,0)" x2="0" y2="5" stroke="#888" stroke-width="1" opacity="1"/><line transform="translate(125,0)" x2="0" y2="5" stroke="#888" stroke-width="1" opacity="1"/><line transform="translate(176,0)" x2="0" y2="5" stroke="#888" stroke-width="1" opacity="1"/></g><g class="mark-text role-axis-label" pointer-events="none"><text text-anchor="middle" transform="translate(24.863329027243093,15)" font-family="Liberation Mono" font-size="10px" fill="#000" opacity="1">Sep 03</text><text text-anchor="middle" transform="translate(75.17294476303447,15)" font-family="Liberation Mono" font-size="10px" fill="#000" opacity="1">Sep 10</text><text text-anchor="middle" transform="translate(125.48256049882582,15)" font-family="Liberation Mono" font-size="10px" fill="#000" opacity="1">Sep 17</text><text text-anchor="middle" transform="translate(175.79217623461722,15)" font-family="Liberation Mono" font-size="10px" fill="#000" opacity="1">Sep 24</text></g><g class="mark-rule role-axis-domain" pointer-events="none"><line transform="translate(0,0)" x2="200" y2="0" stroke="#888" stroke-width="1" opacity="1"/></g><g class="mark-text role-axis-title" pointer-events="none"><text text-anchor="middle" transform="translate(100,30)" font-family="Liberation Mono" font-size="11px" font-weight="bold" fill="#000" opacity="1">Time</text></g></g><path class="foreground" aria-hidden="true" d="" pointer-events="none" display="none"/></g></g><g class="mark-group role-axis" role="graphics-symbol" aria-roledescription="axis" aria-label="Y-axis titled 'Price' for a linear scale with values from 0 to 18,000"><g transform="translate(0.5,0.5)"><path class="background" aria-hidden="true" d="M0,0h0v0h0Z" pointer-events="none"/><g><g class="mark-rule role-axis-tick" pointer-events="none"><line transform="translate(0,200)" x2="-5" y2="0" stroke="#888" stroke-width="1" opacity="1"/><line transform="translate(0,144)" x2="-5" y2="0" stroke="#888" stroke-width="1" opacity="1"/><line transform="translate(0,89)" x2="-5" y2="0" stroke="#888" stroke-width="1" opacity="1"/><line transform="translate(0,33)" x2="-5" y2="0" stroke="#888" stroke-width="1" opacity="1"/></g><g class="mark-text role-axis-label" pointer-events="none"><text text-anchor="end" transform="translate(-7,203)" font-family="Liberation Mono" font-size="10px" fill="#000" opacity="1">0</text><text text-anchor="end" transform="translate(-7,147.44444444444443)" font-family="Liberation Mono" font-size="10px" fill="#000" opacity="1">50</text><text text-anchor="end" transform="translate(-7,91.88888888888889)" font-family="Liberation Mono" font-size="10px" fill="#000" opacity="1">100</text><text text-anchor="end" transform="translate(-7,36.33333333333333)" font-family="Liberation Mono" font-size="10px" fill="#000" opacity="1">150</text></g><g class="mark-rule role-axis-domain" pointer-events="none"><line transform="translate(0,200)" x2="0" y2="-200" stroke="#888" stroke-width="1" opacity="1"/></g><g class="mark-text role-axis-title" pointer-events="none"><text text-anchor="middle" transform="translate(-35,100) rotate(-90) translate(0,-2)" font-family="Liberation Mono" font-size="11px" font-weight="bold" fill="#000" opacity="1">Price</text></g></g><path class="foreground" aria-hidden="true" d="" pointer-events="none" display="none"/></g></g><g class="mark-group role-scope child_pathgroup" role="graphics-object" aria-roledescription="group mark container"><g transform="translate(0,0)"><path class="background" aria-hidden="true" d="M0,0h200v200h-200Z"/><g><g class="mark-line role-mark child_marks" role="graphics-object" aria-roledescription="line mark container"><path aria-label="Time: Aug 30, 2023; Price: 10795; item: DESCHUTES_VALLEY™_RAIN_PONCHO_-_Parka_-_black" role="graphics-symbol" aria-roledescription="line mark" d="M0,80.056L1.167,80.056L2.359,80.056L4.754,80.056L5.951,80.056L7.19,80.056L8.347,80.056L9.543,80.056L11.944,80.056L13.138,80.056L14.374,80.056L15.533,80.056L16.731,80.056L19.128,80.056L20.325,80.056L21.546,80.056L22.719,80.056L23.919,80.056L26.315,80.056L28.373,80.056L28.737,80.056L29.908,80.056L31.106,80.056L33.502,80.056L34.702,80.056L35.939,80.056L37.094,80.056L38.291,80.056L40.695,50.056L41.894,50.056L43.125,50.056L44.284,50.056L45.479,50.056L47.876,50.056L49.073,50.056L50.316,50.056L51.469,50.056L52.667,50.056L55.066,50.056L56.262,50.056L57.497,50.056L58.657,50.056L59.855,50.056L63.004,50.056L63.447,50.056L64.681,50.056L65.842,50.056L67.041,50.056L69.434,50.056L70.634,50.056L71.855,50.056L73.03,50.056L74.228,50.056L76.624,50.056L77.821,50.056L79.042,50.056L80.216,50.056L81.414,50.056L83.809,50.056L85.007,50.056L86.25,50.056L87.403,50.056L88.6,50.056L90.998,50.056L92.194,50.056L93.433,50.056L94.59,50.056L95.789,50.056L98.185,20.056L99.383,20.056L100.624,20.056L101.256,20.056L101.778,20.056L102.976,20.056L105.371,20.056L106.569,20.056L107.811,20.056L108.966,20.056L110.163,20.056L112.557,20.056L113.756,20.056L114.993,20.056L116.151,20.056L117.349,20.056L119.745,20.056L120.944,20.056L122.162,20.056L123.339,20.056L124.535,20.056L126.931,20.056L128.13,20.056L129.352,20.056L130.525,20.056L131.724,20.056L134.12,20.056L135.317,20.056L136.56,20.056L137.713,20.056L138.912,20.056L141.305,20.056L142.504,20.056L143.746,20.056L144.899,20.056L146.098,20.056L148.492,20.056L149.693,20.056L150.934,20.056L152.087,20.056L153.284,20.056L155.68,20.056L156.878,20.056L158.122,20.056L159.275,20.056L160.473,20.056L162.868,20.056L164.066,20.056L165.304,20.056L166.462,20.056L167.658,20.056L170.054,20.056L171.253,20.056L172.473,20.056L173.649,20.056L174.847,20.056L177.241,20.056L178.44,20.056L179.662,20.056L180.836,20.056L182.032,20.056L184.429,20.056L185.628,20.056L186.871,20.056L188.022,20.056L189.219,20.056L191.615,20.056L192.815,20.056L194.06,20.056L195.209,20.056L196.408,20.056L198.803,40.056L200,40.056" stroke="#f58518" stroke-width="2"/></g></g><path class="foreground" aria-hidden="true" d="" display="none"/></g><g transform="translate(0,0)"><path class="background" aria-hidden="true" d="M0,0h200v200h-200Z"/><g><g class="mark-line role-mark child_marks" role="graphics-object" aria-roledescription="line mark container"><path aria-label="Time: Aug 30, 2023; Price: 8995; item: HIKING_BACKPACK_PONCHO_-_Veste_imperméable_-_blue" role="graphics-symbol" aria-roledescription="line mark" d="M0,100.056L1.167,100.056L2.359,100.056L4.754,100.056L5.951,100.056L7.19,100.056L8.347,100.056L9.543,100.056L11.944,100.056L13.138,100.056L14.374,100.056L15.533,100.056L16.731,100.056L19.128,100.056L20.325,100.056L21.546,100.056L22.719,100.056L23.919,100.056L26.315,100.056L28.373,100.056L28.737,100.056L85.007,100.056L86.251,100.056L87.403,100.056L88.6,100.056L90.998,100.056L92.194,100.056L93.433,100.056L94.59,100.056L95.789,100.056L98.185,100.056L99.383,100.056L100.624,100.056L101.256,100.056L101.778,100.056L102.976,100.056L105.371,100.056L106.569,100.056L107.811,100.056L108.966,100.056L110.163,100.056L112.557,100.056L113.756,100.056L114.993,100.056L116.151,100.056L117.349,100.056L119.745,100.056L120.944,100.056L122.162,100.056L123.339,100.056L124.535,100.056L126.931,100.056L128.13,100.056" stroke="#72b7b2" stroke-width="2"/></g></g><path class="foreground" aria-hidden="true" d="" display="none"/></g><g transform="translate(0,0)"><path class="background" aria-hidden="true" d="M0,0h200v200h-200Z"/><g><g class="mark-line role-mark child_marks" role="graphics-object" aria-roledescription="line mark container"><path aria-label="Time: Aug 30, 2023; Price: 16195; item: DESCHUTES_VALLEY™_RAIN_PONCHO_-_Parka_-_vista_blue" role="graphics-symbol" aria-roledescription="line mark" d="M0,20.056L1.167,20.056L2.359,20.056L4.754,20.056L5.951,20.056L7.19,20.056L8.347,20.056L9.543,20.056L11.944,20.056L13.138,20.056L14.374,20.056L15.533,20.056L16.731,20.056L19.128,20.056L20.325,20.056L21.546,20.056L22.719,20.056L23.919,20.056L26.315,20.056L28.373,20.056L28.737,20.056L29.908,20.056L31.106,20.056L33.502,20.056L34.702,20.056L35.939,20.056L37.094,20.056L38.291,20.056L40.695,80.056L41.894,80.056L43.125,80.056L44.284,80.056L45.479,80.056L47.876,80.056L49.073,80.056L50.316,80.056L51.469,80.056L52.667,80.056L55.066,80.056L56.262,80.056L57.497,80.056L58.657,80.056L59.855,80.056L63.004,80.056L63.447,80.056L64.681,80.056L65.842,80.056L67.041,80.056L69.434,80.056L70.634,80.056L71.855,80.056L73.03,80.056L74.228,80.056L76.624,80.056L77.82,80.056L79.042,80.056L80.216,80.056L81.414,80.056L83.809,80.056L85.007,80.056L86.25,80.056L87.403,80.056L88.6,80.056L90.998,80.056L92.194,80.056L93.433,80.056L94.59,80.056L95.789,80.056L98.185,20.056L99.383,20.056L100.624,20.056L101.256,20.056L101.778,20.056L102.976,20.056L105.371,20.056L106.569,20.056L107.811,20.056L108.966,20.056L110.163,20.056L112.557,20.056L113.756,20.056L114.993,20.056L116.151,20.056L117.349,20.056L119.745,20.056L120.944,20.056L122.162,20.056L123.339,20.056L124.535,20.056L126.931,20.056L128.13,20.056L129.352,20.056L130.525,20.056L131.724,20.056L134.12,20.056L135.317,20.056L136.56,20.056L137.713,20.056L138.912,20.056L141.305,20.056L142.504,20.056L143.746,20.056L144.899,20.056L146.098,20.056L148.492,20.056L149.693,20.056L150.934,20.056L152.087,20.056L153.284,20.056L155.68,20.056L156.878,20.056L158.122,20.056L159.275,20.056L160.473,20.056L162.868,20.056L164.066,20.056L165.304,20.056L166.462,20.056L167.658,20.056L170.054,20.056L171.253,20.056L172.473,20.056L173.649,20.056L174.847,20.056L177.241,20.056L178.44,20.056L179.662,20.056L180.836,20.056L182.032,20.056L184.429,20.056L185.628,20.056L186.871,20.056L188.022,20.056L189.219,20.056L191.615,20.056L192.815,20.056L194.059,20.056L195.209,20.056L196.408,20.056L198.803,40.056L200,40.056" stroke="#e45756" stroke-width="2"/></g></g><path class="foreground" aria-hidden="true" d="" display="none"/></g><g transform="translate(0,0)"><path class="background" aria-hidden="true" d="M0,0h200v200h-200Z"/><g><g class="mark-line role-mark child_marks" role="graphics-object" aria-roledescription="line mark container"><path aria-label="Time: Aug 30, 2023; Price: 5495; item: COVERO_PONCHO_II_-_Cape_-_lightgrey" role="graphics-symbol" aria-roledescription="line mark" d="M0,138.944L1.167,138.944L2.359,138.944L4.754,138.944L5.951,138.944L7.19,138.944L8.347,138.944L9.543,138.944L11.944,138.944L13.138,138.944L20.325,138.944L21.546,138.944L22.719,138.944L23.919,138.944L26.315,138.944L28.373,138.944L28.737,138.944L29.908,138.944L31.106,138.944L33.502,138.944L34.703,138.944L35.939,138.944L37.094,138.944L38.291,138.944L40.695,138.944L41.894,138.944L43.125,138.944L44.284,138.944L45.479,138.944L65.842,153.944L77.821,138.944L79.042,138.944L80.216,138.944L81.414,138.944L83.809,138.944L85.007,138.944L86.251,138.944L87.403,138.944L88.6,138.944L90.998,138.944L92.194,138.944L93.433,138.944L94.59,138.944L95.789,138.944L98.185,138.944L99.383,138.944L100.624,138.944L101.256,138.944L101.778,138.944L102.976,138.944L105.371,138.944L106.569,138.944L107.811,138.944L108.966,138.944L110.163,138.944L112.557,138.944L113.756,138.944L114.993,138.944L116.151,138.944L117.349,138.944L119.745,138.944L120.944,138.944L122.162,138.944L123.339,138.944L124.535,138.944L126.931,138.944L128.13,138.944L129.352,138.944L130.525,138.944L131.724,138.944L134.12,138.944L135.317,138.944L136.56,138.944L137.713,138.944L138.912,138.944L141.305,138.944L142.504,138.944L143.746,138.944L144.9,138.944L146.098,138.944L148.492,151.167L149.693,151.167L150.934,151.167L152.087,151.167L153.284,151.167L155.68,151.167L156.878,151.167L158.122,151.167L159.275,151.167L160.473,151.167L162.868,151.167L164.066,151.167L165.304,151.167L171.253,151.167L172.473,151.167L173.649,151.167L174.847,151.167L177.241,151.167L178.44,151.167L179.662,151.167L180.836,151.167L182.032,151.167L184.43,151.167L185.628,151.167L186.871,151.167L188.022,151.167L189.219,151.167L191.615,151.167L192.816,151.167L194.06,151.167L195.209,151.167L196.408,151.167L198.803,151.167L200,151.167" stroke="#ff9da6" stroke-width="2"/></g></g><path class="foreground" aria-hidden="true" d="" display="none"/></g><g transform="translate(0,0)"><path class="background" aria-hidden="true" d="M0,0h200v200h-200Z"/><g><g class="mark-line role-mark child_marks" role="graphics-object" aria-roledescription="line mark container"><path aria-label="Time: Sep 01, 2023; Price: 12995; item: KUURA_3L_PONCHO_UNISEX_-_Veste_imperméable_-_green" role="graphics-symbol" aria-roledescription="line mark" d="M16.731,55.611L19.128,55.611L20.325,55.611L21.546,55.611L34.703,55.611L35.939,55.611L37.094,55.611L38.291,55.611L40.695,11.167L41.894,11.167L43.125,11.167L44.284,11.167L45.479,11.167L47.876,11.167L49.073,11.167L50.316,11.167L51.469,11.167L52.668,11.167L55.066,11.167L56.262,11.167L57.497,11.167L58.657,11.167L59.855,11.167L63.004,11.167L63.447,11.167L64.681,11.167L65.842,11.167L67.041,11.167L69.434,11.167L70.634,11.167L71.855,11.167L73.03,11.167L74.228,11.167L76.624,11.167L77.821,11.167L79.042,11.167L80.216,11.167L81.414,11.167L83.809,11.167L85.007,11.167L86.25,11.167L87.403,11.167L90.998,11.167L92.194,11.167L93.433,11.167L94.59,11.167L95.789,11.167L122.162,22.278L123.339,22.278L124.535,22.278L126.931,22.278L128.13,22.278L129.352,22.278L130.525,22.278L131.724,22.278L134.12,22.278L135.317,22.278L136.56,22.278L142.504,22.278L143.746,22.278L144.9,22.278L146.098,22.278L148.492,22.278L149.693,22.278" stroke="#4c78a8" stroke-width="2"/></g></g><path class="foreground" aria-hidden="true" d="" display="none"/></g><g transform="translate(0,0)"><path class="background" aria-hidden="true" d="M0,0h200v200h-200Z"/><g><g class="mark-line role-mark child_marks" role="graphics-object" aria-roledescription="line mark container"><path aria-label="Time: Sep 14, 2023; Price: 6495; item: PARIS_ST._GERMAIN_CITY_MADE_PONCHO_-_Veste_de_survêtement_-_aura_white" role="graphics-symbol" aria-roledescription="line mark" d="M105.371,127.833L106.569,127.833L107.811,127.833L108.966,127.833L110.163,127.833L112.557,127.833L113.756,127.833L119.745,127.833L128.13,127.833L129.352,127.833L130.525,127.833L131.724,127.833L134.12,127.833L135.317,127.833L136.56,127.833L137.713,127.833L138.912,127.833L141.305,127.833L142.504,127.833L143.746,127.833L144.9,127.833L146.098,127.833L148.492,127.833L149.693,127.833L150.934,127.833L152.087,127.833L153.284,127.833L155.68,127.833L156.878,127.833L158.122,127.833L159.275,127.833L160.473,127.833L162.868,127.833L164.066,127.833L165.304,127.833L166.462,127.833L167.658,127.833L170.054,127.833L171.253,127.833L172.473,127.833L173.649,127.833L174.847,127.833L177.241,127.833L178.44,127.833L179.662,127.833L180.836,127.833L182.032,127.833L184.43,127.833L185.628,127.833L186.871,127.833L188.022,127.833L189.219,127.833L191.615,127.833L192.816,127.833L194.06,127.833" stroke="#b279a2" stroke-width="2"/></g></g><path class="foreground" aria-hidden="true" d="" display="none"/></g><g transform="translate(0,0)"><path class="background" aria-hidden="true" d="M0,0h200v200h-200Z"/><g><g class="mark-line role-mark child_marks" role="graphics-object" aria-roledescription="line mark container"><path aria-label="Time: Sep 18, 2023; Price: 8995; item: HIKING_BACKPACK_PONCHO_-_Veste_imperméable_-_indian_red" role="graphics-symbol" aria-roledescription="line mark" d="M134.12,100.056L135.317,100.056L136.56,100.056L137.713,100.056L138.912,100.056L141.305,100.056L142.504,100.056L188.022,100.056L189.219,100.056L191.615,100.056L192.815,100.056L194.06,100.056L195.209,100.056L196.408,100.056L198.803,111.167L200,111.167" stroke="#54a24b" stroke-width="2"/></g></g><path class="foreground" aria-hidden="true" d="" display="none"/></g><g transform="translate(0,0)"><path class="background" aria-hidden="true" d="M0,0h200v200h-200Z"/><g><g class="mark-line role-mark child_marks" role="graphics-object" aria-roledescription="line mark container"><path aria-label="Time: Sep 26, 2023; Price: 6495; item: PSG_M_NSW_CITY_MADE_PONCHO_-_Veste_de_survêtement_-_aura_white" role="graphics-symbol" aria-roledescription="line mark" d="M195.209,127.833L196.408,127.833L198.803,91.167L200,91.167" stroke="#eeca3b" stroke-width="2"/></g></g><path class="foreground" aria-hidden="true" d="" display="none"/></g></g><g class="mark-group role-legend" role="graphics-symbol" aria-roledescription="legend" aria-label="Symbol legend titled 'item' for stroke color with 8 values: KUURA_3L_PONCHO_UNISEX_-_Veste_imperméable_-_green, DESCHUTES_VALLEY™_RAIN_PONCHO_-_Parka_-_black, DESCHUTES_VALLEY™_RAIN_PONCHO_-_Parka_-_vista_blue, HIKING_BACKPACK_PONCHO_-_Veste_imperméable_-_blue, HIKING_BACKPACK_PONCHO_-_Veste_imperméable_-_indian_red, ending with COVERO_PONCHO_II_-_Cape_-_lightgrey"><g transform="translate(220,0)"><path class="background" aria-hidden="true" d="M0,0h328v118h-328Z" pointer-events="none"/><g><g class="mark-group role-legend-entry"><g transform="translate(0,16)"><path class="background" aria-hidden="true" d="M0,0h0v0h0Z" pointer-events="none"/><g><g class="mark-group role-scope" role="graphics-object" aria-roledescription="group mark container"><g transform="translate(0,0)"><path class="background" aria-hidden="true" d="M0,0h328v11h-328Z" pointer-events="none" opacity="1"/><g><g class="mark-symbol role-legend-symbol" pointer-events="none"><path transform="translate(6,6)" d="M-5,0L5,0" stroke="#4c78a8" stroke-width="1.5" opacity="1"/></g><g class="mark-text role-legend-label" pointer-events="none"><text text-anchor="start" transform="translate(16,9)" font-family="Liberation Mono" font-size="10px" fill="#000" opacity="1">KUURA_3L_PONCHO_UNISEX_-_Veste_impermé…</text></g></g><path class="foreground" aria-hidden="true" d="" pointer-events="none" display="none"/></g><g transform="translate(0,13)"><path class="background" aria-hidden="true" d="M0,0h328v11h-328Z" pointer-events="none" opacity="1"/><g><g class="mark-symbol role-legend-symbol" pointer-events="none"><path transform="translate(6,6)" d="M-5,0L5,0" stroke="#f58518" stroke-width="1.5" opacity="1"/></g><g class="mark-text role-legend-label" pointer-events="none"><text text-anchor="start" transform="translate(16,9)" font-family="Liberation Mono" font-size="10px" fill="#000" opacity="1">DESCHUTES_VALLEY™_RAIN_PONCHO_-_Parka_…</text></g></g><path class="foreground" aria-hidden="true" d="" pointer-events="none" display="none"/></g><g transform="translate(0,26)"><path class="background" aria-hidden="true" d="M0,0h328v11h-328Z" pointer-events="none" opacity="1"/><g><g class="mark-symbol role-legend-symbol" pointer-events="none"><path transform="translate(6,6)" d="M-5,0L5,0" stroke="#e45756" stroke-width="1.5" opacity="1"/></g><g class="mark-text role-legend-label" pointer-events="none"><text text-anchor="start" transform="translate(16,9)" font-family="Liberation Mono" font-size="10px" fill="#000" opacity="1">DESCHUTES_VALLEY™_RAIN_PONCHO_-_Parka_…</text></g></g><path class="foreground" aria-hidden="true" d="" pointer-events="none" display="none"/></g><g transform="translate(0,39)"><path class="background" aria-hidden="true" d="M0,0h328v11h-328Z" pointer-events="none" opacity="1"/><g><g class="mark-symbol role-legend-symbol" pointer-events="none"><path transform="translate(6,6)" d="M-5,0L5,0" stroke="#72b7b2" stroke-width="1.5" opacity="1"/></g><g class="mark-text role-legend-label" pointer-events="none"><text text-anchor="start" transform="translate(16,9)" font-family="Liberation Mono" font-size="10px" fill="#000" opacity="1">HIKING_BACKPACK_PONCHO_-_Veste_impermé…</text></g></g><path class="foreground" aria-hidden="true" d="" pointer-events="none" display="none"/></g><g transform="translate(0,52)"><path class="background" aria-hidden="true" d="M0,0h328v11h-328Z" pointer-events="none" opacity="1"/><g><g class="mark-symbol role-legend-symbol" pointer-events="none"><path transform="translate(6,6)" d="M-5,0L5,0" stroke="#54a24b" stroke-width="1.5" opacity="1"/></g><g class="mark-text role-legend-label" pointer-events="none"><text text-anchor="start" transform="translate(16,9)" font-family="Liberation Mono" font-size="10px" fill="#000" opacity="1">HIKING_BACKPACK_PONCHO_-_Veste_impermé…</text></g></g><path class="foreground" aria-hidden="true" d="" pointer-events="none" display="none"/></g><g transform="translate(0,65)"><path class="background" aria-hidden="true" d="M0,0h328v11h-328Z" pointer-events="none" opacity="1"/><g><g class="mark-symbol role-legend-symbol" pointer-events="none"><path transform="translate(6,6)" d="M-5,0L5,0" stroke="#eeca3b" stroke-width="1.5" opacity="1"/></g><g class="mark-text role-legend-label" pointer-events="none"><text text-anchor="start" transform="translate(16,9)" font-family="Liberation Mono" font-size="10px" fill="#000" opacity="1">PSG_M_NSW_CITY_MADE_PONCHO_-_Veste_de_…</text></g></g><path class="foreground" aria-hidden="true" d="" pointer-events="none" display="none"/></g><g transform="translate(0,78)"><path class="background" aria-hidden="true" d="M0,0h328v11h-328Z" pointer-events="none" opacity="1"/><g><g class="mark-symbol role-legend-symbol" pointer-events="none"><path transform="translate(6,6)" d="M-5,0L5,0" stroke="#b279a2" stroke-width="1.5" opacity="1"/></g><g class="mark-text role-legend-label" pointer-events="none"><text text-anchor="start" transform="translate(16,9)" font-family="Liberation Mono" font-size="10px" fill="#000" opacity="1">PARIS_ST._GERMAIN_CITY_MADE_PONCHO_-_V…</text></g></g><path class="foreground" aria-hidden="true" d="" pointer-events="none" display="none"/></g><g transform="translate(0,91)"><path class="background" aria-hidden="true" d="M0,0h328v11h-328Z" pointer-events="none" opacity="1"/><g><g class="mark-symbol role-legend-symbol" pointer-events="none"><path transform="translate(6,6)" d="M-5,0L5,0" stroke="#ff9da6" stroke-width="1.5" opacity="1"/></g><g class="mark-text role-legend-label" pointer-events="none"><text text-anchor="start" transform="translate(16,9)" font-family="Liberation Mono" font-size="10px" fill="#000" opacity="1">COVERO_PONCHO_II_-_Cape_-_lightgrey</text></g></g><path class="foreground" aria-hidden="true" d="" pointer-events="none" display="none"/></g></g></g><path class="foreground" aria-hidden="true" d="" pointer-events="none" display="none"/></g></g><g class="mark-text role-legend-title" pointer-events="none"><text text-anchor="start" transform="translate(0,9)" font-family="Liberation Mono" font-size="11px" font-weight="bold" fill="#000" opacity="1">item</text></g></g><path class="foreground" aria-hidden="true" d="" pointer-events="none" display="none"/></g></g></g><path class="foreground" aria-hidden="true" d="" display="none"/></g></g></g><path class="foreground" aria-hidden="true" d="" display="none"/></g></g></g></svg>