<svg xmlns="http://www.w3.org/2000/svg" xmlns:xlink="http://www.w3.org/1999/xlink" version="1.1" class="marks" width="658" height="244" viewBox="0 0 658 244"><rect width="658" height="244" fill="white"/><g fill="none" stroke-miterlimit="10" transform="translate(104,6)"><g class="mark-group role-frame root" role="graphics-object" aria-roledescription="group mark container"><g transform="translate(0,0)"><path class="background" aria-hidden="true" d="M0,0h0v0h0Z"/><g><g class="mark-group role-row-title row-title" role="graphics-object" aria-roledescription="group mark container"><g transform="translate(-78,116)"><path class="background" aria-hidden="true" d="M0,0h0v0h0Z"/><g><g class="mark-group role-title"><g transform="translate(-21.000000000000004,0)"><path class="background" aria-hidden="true" d="M0,0h0v0h0Z" pointer-events="none"/><g><g class="mark-text role-title-text" role="graphics-symbol" aria-roledescription="title" aria-label="Title text 'group'" pointer-events="none"><text text-anchor="middle" transform="translate(0,0) rotate(-90) translate(0,9)" font-family="Liberation Mono" font-size="11px" font-weight="bold" fill="#000" opacity="1">group</text></g></g><path class="foreground" aria-hidden="true" d="" pointer-events="none" display="none"/></g></g></g><path class="foreground" aria-hidden="true" d="" display="none"/></g></g><g class="mark-group role-row-header row_header" role="graphics-object" aria-roledescription="group mark container"><g transform="translate(-47,0)"><path class="background" aria-hidden="true" d="M0,0h0v200h0Z"/><g><g class="mark-group role-title"><g transform="translate(-20.000000000000007,100)"><path class="background" aria-hidden="true" d="M0,0h0v0h0Z" pointer-events="none"/><g><g class="mark-text role-title-text" role="graphics-symbol" aria-roledescription="title" aria-label="Title text 'zalando-poncho'" pointer-events="none"><text text-anchor="middle" transform="translate(0,0) rotate(-90) translate(0,8)" font-family="Liberation Mono" font-size="10px" fill="#000" opacity="1">zalando-poncho</text></g></g><path class="foreground" aria-hidden="true" d="" pointer-events="none" display="none"/></g></g></g><path class="foreground" aria-hidden="true" d="" display="none"/></g></g><g class="mark-group role-scope cell" role="graphics-object" aria-roledescription="group mark container"><g transform="translate(0,0)"><path class="background" aria-hidden="true" d="M0.5,0.5h200v200h-200Z" stroke="#ddd"/><g><g class="mark-group role-axis" aria-hidden="true"><g transform="translate(0.5,200.5)"><path class="background" aria-hidden="true" d="M0,0h0v0h0Z" pointer-events="none"/><g><g class="mark-rule role-axis-grid" pointer-events="none"><line transform="translate(2,-200)" x2="0" y2="200" stroke="#ddd" stroke-width="1" opacity="1"/><line transform="translate(49,-200)" x2="0" y2="200" stroke="#ddd" stroke-width="1" opacity="1"/><line transform="translate(97,-200)" x2="0" y2="200" stroke="#ddd" stroke-width="1" opacity="1"/><line transform="translate(143,-200)" x2="0" y2="200" stroke="#ddd" stroke-width="1" opacity="1"/><line transform="translate(191,-200)" x2="0" y2="200" stroke="#ddd" stroke-width="1" opacity="1"/></g></g><path class="foreground" aria-hidden="true" d="" pointer-events="none" display="none"/></g></g><g class="mark-group role-axis" aria-hidden="true"><g transform="translate(0.5,0.5)"><path class="background" aria-hidden="true" d="M0,0h0v0h0Z" pointer-events="none"/><g><g class="mark-rule role-axis-grid" pointer-events="none"><line transform="translate(0,200)" x2="200" y2="0" stroke="#ddd" stroke-width="1" opacity="1"/><line transform="translate(0,144)" x2="200" y2="0" stroke="#ddd" stroke-width="1" opacity="1"/><line transform="translate(0,89)" x2="200" y2="0" stroke="#ddd" stroke-width="1" opacity="1"/><line transform="translate(0,33)" x2="200" y2="0" stroke="#ddd" stroke-width="1" opacity="1"/></g></g><path class="foreground" aria-hidden="true" d="" pointer-events="none" display="none"/></g></g><g class="mark-group role-axis" role="graphics-symbol" aria-roledescription="axis" aria-label="X-axis titled 'Time' for a time scale with values from Wednesday, 30 August 2023, 12:58:24 PM to Saturday, 06 January 2024, 12:57:34 PM"><g transform="translate(0.5,200.5)"><path class="background" aria-hidden="true" d="M0,0h0v0h0Z" pointer-events="none"/><g><g class="mark-rule role-axis-tick" pointer-events="none"><line transform="translate(2,0)" x2="0" y2="5" stroke="#888" stroke-width="1" opacity="1"/><line transform="translate(49,0)" x2="0" y2="5" stroke="#888" stroke-width="1" opacity="1"/><line transform="translate(97,0)" x2="0" y2="5" stroke="#888" stroke-width="1" opacity="1"/><line transform="translate(143,0)" x2="0" y2="5" stroke="#888" stroke-width="1" opacity="1"/><line transform="translate(191,0)" x2="0" y2="5" stroke="#888" stroke-width="1" opacity="1"/></g><g class="mark-text role-axis-label" pointer-events="none"><text text-anchor="middle" transform="translate(2.262714162384014,15)" font-family="Liberation Mono" font-size="10px" fill="#000" opacity="1">September</text><text text-anchor="middle" transform="translate(48.77455041614665,15)" font-family="Liberation Mono" font-size="10px" fill="#000" opacity="0">October</text><text text-anchor="middle" transform="translate(96.83678121170138,15)" font-family="Liberation Mono" font-size="10px" fill="#000" opacity="1">November</text><text text-anchor="middle" transform="translate(143.348617465464,15)" font-family="Liberation Mono" font-size="10px" fill="#000" opacity="0">December</text><text text-anchor="middle" transform="translate(191.41084826101874,15)" font-family="Liberation Mono" font-size="10px" fill="#000" opacity="1">2024</text></g><g class="mark-rule role-axis-domain" pointer-events="none"><line transform="translate(0,0)" x2="200" y2="0" stroke="#888" stroke-width="1" opacity="1"/></g><g class="mark-text role-axis-title" pointer-events="none"><text text-anchor="middle" transform="translate(100,30)" font-family="Liberation Mono" font-size="11px" font-weight="bold" fill="#000" opacity="1">Time</text></g></g><path class="foreground" aria-hidden="true" d="" pointer-events="none" display="none"/></g></g><g class="mark-group role-axis" role="graphics-symbol" aria-roledescription="axis" aria-label="Y-axis titled 'Price' for a linear scale with values from 0 to 18,000"><g transform="translate(0.5,0.5)"><path class="background" aria-hidden="true" d="M0,0h0v0h0Z" pointer-events="none"/><g><g class="mark-rule role-axis-tick" pointer-events="none"><line transform="translate(0,200)" x2="-5" y2="0" stroke="#888" stroke-width="1" opacity="1"/><line transform="translate(0,144)" x2="-5" y2="0" stroke="#888" stroke-width="1" opacity="1"/><line transform="translate(0,89)" x2="-5" y2="0" stroke="#888" stroke-width="1" opacity="1"/><line transform="translate(0,33)" x2="-5" y2="0" stroke="#888" stroke-width="1" opacity="1"/></g><g class="mark-text role-axis-label" pointer-events="none"><text text-anchor="end" transform="translate(-7,203)" font-family="Liberation Mono" font-size="10px" fill="#000" opacity="1">0</text><text text-anchor="end" transform="translate(-7,147.44444444444443)" font-family="Liberation Mono" font-size="10px" fill="#000" opacity="1">50</text><text text-anchor="end" transform="translate(-7,91.88888888888889)" font-family="Liberation Mono" font-size="10px" fill="#000" opacity="1">100</text><text text-anchor="end" transform="translate(-7,36.33333333333333)" font-family="Liberation Mono" font-size="10px" fill="#000" opacity="1">150</text></g><g class="mark-rule role-axis-domain" pointer-events="none"><line transform="translate(0,200)" x2="0" y2="-200" stroke="#888" stroke-width="1" opacity="1"/></g><g class="mark-text role-axis-title" pointer-events="none"><text text-anchor="middle" transform="translate(-35,100) rotate(-90) translate(0,-2)" font-family="Liberation Mono" font-size="11px" font-weight="bold" fill="#000" opacity="1">Price</text></g></g><path class="foreground" aria-hidden="true" d="" pointer-events="none" display="none"/></g></g><g class="mark-group role-scope child_pathgroup" role="graphics-object" aria-roledescription="group mark container"><g transform="translate(0,0)"><path class="background" aria-hidden="true" d="M0,0h200v200h-200Z"/><g><g class="mark-line role-mark child_marks" role="graphics-object" aria-roledescription="line mark container"><path aria-label="Time: Aug 30, 2023; Price: 10795; item: DESCHUTES_VALLEY™_RAIN_PONCHO_-_Parka_-_black" role="graphics-symbol" aria-roledescription="line mark" d="M0,80.056L0.252,80.056L0.509,80.056L1.026,80.056L1.284,80.056L1.551,80.056L1.801,80.056L2.059,80.056L2.576,80.056L2.834,80.056L3.101,80.056L3.351,80.056L3.609,80.056L4.126,80.056L4.384,80.056L4.648,80.056L4.901,80.056L5.16,80.056L5.677,80.056L6.121,80.056L6.199,80.056L6.452,80.056L6.71,80.056L7.227,80.056L7.486,80.056L7.753,80.056L8.002,80.056L8.26,80.056L8.779,50.056L9.037,50.056L9.303,50.056L9.553,50.056L9.811,50.056L10.328,50.056L10.586,50.056L10.854,50.056L11.103,50.056L11.361,50.056L11.879,50.056L12.137,50.056L12.403,50.056L12.654,50.056L12.912,50.056L13.591,50.056L13.687,50.056L13.953,50.056L14.203,50.056L14.462,50.056L14.978,50.056L15.237,50.056L15.501,50.056L15.754,50.056L16.012,50.056L16.529,50.056L16.787,50.056L17.051,50.056L17.304,50.056L17.563,50.056L18.079,50.056L18.338,50.056L18.606,50.056L18.855,50.056L19.113,50.056L19.63,50.056L19.888,50.056L20.155,50.056L20.405,50.056L20.664,50.056L21.18,20.056L21.439,20.056L21.706,20.056L21.843,20.056L21.956,20.056L22.214,20.056L22.731,20.056L22.989,20.056L23.257,20.056L23.506,20.056L23.764,20.056L24.281,20.056L24.539,20.056L24.806,20.056L25.056,20.056L25.315,20.056L25.831,20.056L26.09,20.056L26.353,20.056L26.607,20.056L26.865,20.056L27.382,20.056L27.64,20.056L27.904,20.056L28.157,20.056L28.415,20.056L28.932,20.056L29.191,20.056L29.459,20.056L29.707,20.056L29.966,20.056L30.482,20.056L30.741,20.056L31.009,20.056L31.258,20.056L31.516,20.056L32.033,20.056L32.292,20.056L32.559,20.056L32.808,20.056L33.066,20.056L33.583,20.056L33.842,20.056L34.11,20.056L34.359,20.056L34.617,20.056L35.134,20.056L35.392,20.056L35.659,20.056L35.909,20.056L36.167,20.056L36.684,20.056L36.943,20.056L37.206,20.056L37.459,20.056L37.718,20.056L38.234,20.056L38.493,20.056L38.757,20.056L39.01,20.056L39.268,20.056L39.785,20.056L40.044,20.056L40.312,20.056L40.56,20.056L40.818,20.056L41.335,20.056L41.594,20.056L41.862,20.056L42.11,20.056L42.369,20.056L42.886,40.056L43.144,40.056L43.412,40.056L43.661,40.056L43.92,40.056L44.436,40.056L44.694,40.056L44.962,40.056L45.211,40.056L45.986,40.056L46.245,40.056L46.512,40.056L46.762,40.056L47.02,40.056L47.537,40.056L47.795,40.056L48.059,40.056L48.312,40.056L48.57,40.056L49.087,40.056L49.346,40.056L49.61,40.056L49.862,40.056L50.121,40.056L50.638,100.056L50.896,100.056L51.164,100.056L51.413,100.056L51.671,100.056L52.188,90.056L52.447,90.056L52.715,90.056L52.964,90.056L53.222,90.056L53.738,90.056L53.997,90.056L54.266,90.056L54.514,90.056L54.772,90.056L55.289,90.056L55.547,90.056L55.817,90.056L56.064,90.056L56.323,90.056L56.839,90.056L57.098,90.056L57.366,90.056L57.615,90.056L57.873,90.056L58.39,90.056L58.649,90.056L58.912,90.056L59.165,90.056L59.424,90.056L59.94,90.056L60.198,90.056L60.716,90.056L60.974,90.056L61.49,90.056L61.749,90.056L62.019,90.056L62.266,90.056L62.524,90.056L63.041,100.056L63.299,100.056L63.568,100.056L63.816,100.056L64.074,100.056L64.591,100.056L64.85,100.056L65.118,100.056L65.366,100.056L65.625,100.056L66.141,100.056L66.4,100.056L66.669,100.056L66.917,100.056L67.175,100.056L67.692,100.056L67.951,100.056L68.219,100.056L68.467,100.056L68.726,100.056L69.243,100.056L69.501,100.056L69.765,100.056L70.018,100.056L70.276,100.056L70.793,100.056L71.051,100.056L71.315,100.056L71.568,100.056L71.827,100.056L72.343,90.056L72.602,90.056L72.87,90.056L73.118,90.056L73.377,90.056L73.894,90.056L74.152,90.056L74.42,90.056L74.669,90.056L74.927,90.056L75.444,90.056L75.703,90.056L75.971,90.056L76.219,90.056L76.478,90.056L76.995,90.056L77.253,90.056L77.521,90.056L77.77,90.056L78.028,90.056L78.545,90.056L78.804,90.056L79.071,90.056L79.32,90.056L79.578,90.056L80.095,90.056L80.353,90.056L80.617,90.056L80.87,90.056L81.129,90.056L81.646,90.056L81.904,90.056L82.168,90.056L82.421,90.056L82.679,90.056L83.196,90.056L83.454,90.056L83.722,90.056L83.972,90.056L84.23,90.056L84.746,50.056L85.005,50.056L85.272,50.056L85.521,50.056L85.78,50.056L86.297,50.056L86.555,50.056L86.822,50.056L87.072,50.056L87.331,50.056L87.847,50.056L88.106,50.056L88.372,50.056L88.622,50.056L88.88,50.056L89.397,50.056L89.657,50.056L89.922,50.056L90.173,50.056L90.431,50.056L90.948,50.056L91.206,50.056L91.469,50.056L91.723,50.056L91.982,50.056L92.498,50.056L92.757,50.056L93.021,50.056L93.273,50.056L93.532,50.056L94.049,50.056L94.307,50.056L94.574,50.056L94.824,50.056L95.082,50.056L95.599,50.056L95.858,50.056L96.124,50.056L96.374,50.056L96.633,50.056L97.149,50.056L97.408,50.056L97.674,50.056L97.924,50.056L98.183,50.056L98.7,40.056L98.958,40.056L99.225,40.056L99.475,40.056L101.026,40.056L101.284,40.056L101.8,40.056L102.323,40.056L102.576,40.056L108.777,40.056L109.036,40.056L109.553,40.056L109.811,40.056L110.077,40.056L110.328,40.056L110.586,40.056L111.103,70.056L111.362,70.056L111.628,70.056L111.878,70.056L112.136,70.056L112.653,70.056L112.912,70.056L113.176,70.056L113.687,70.056L114.204,70.056L114.462,70.056L114.726,70.056L114.979,70.056L115.237,70.056L115.754,40.056L116.013,40.056L116.28,40.056L116.529,40.056L117.304,40.056L117.563,40.056L117.83,40.056L118.08,40.056L118.338,40.056L118.855,40.056L119.113,40.056L119.382,40.056L119.63,40.056L119.888,40.056L120.405,50.056L120.664,50.056L120.932,50.056L121.18,50.056L121.439,50.056L121.956,50.056L122.214,50.056L122.482,50.056L122.731,50.056L122.989,50.056L123.506,40.056L123.764,40.056L124.03,40.056L124.281,40.056L124.54,40.056L125.057,40.056L125.315,40.056L125.58,40.056L125.832,40.056L126.09,40.056L126.607,40.056L126.865,40.056L127.135,40.056L127.382,40.056L127.64,40.056L128.157,40.056L128.416,40.056L128.685,60.056L128.932,60.056L129.191,60.056L129.708,60.056L129.966,60.056L130.235,60.056L130.483,60.056L130.741,60.056L131.258,60.056L131.517,60.056L131.784,80.056L132.033,80.056L132.292,80.056L132.809,80.056L133.067,80.056L133.333,80.056L133.584,80.056L133.842,80.056L134.359,70.056L134.617,70.056L134.882,70.056L135.134,70.056L135.392,70.056L135.909,70.056L136.168,70.056L136.433,70.056L136.684,70.056L136.943,70.056L137.46,40.056L137.718,40.056L137.987,40.056L138.235,40.056L138.493,40.056L139.01,40.056L139.268,40.056L139.535,40.056L139.785,40.056L140.044,40.056L140.561,40.056L140.819,40.056L141.087,40.056L141.336,40.056L141.594,40.056L142.111,40.056L142.369,40.056L142.637,40.056L142.886,40.056L143.144,40.056L143.661,40.056L143.92,40.056L144.188,40.056L144.436,40.056L144.695,40.056L145.212,40.056L145.47,40.056L145.734,40.056L145.987,40.056L146.245,40.056L146.762,40.056L147.02,40.056L147.286,40.056L147.538,40.056L147.796,40.056L148.312,40.056L148.571,40.056L148.839,40.056L149.088,40.056L149.346,40.056L149.863,50.056L150.121,50.056L150.389,50.056L150.638,50.056L150.897,50.056L151.413,50.056L151.672,50.056L151.94,50.056L152.188,50.056L152.447,50.056L152.963,50.056L153.222,50.056L153.49,50.056L153.739,50.056L153.997,50.056L154.514,50.056L154.773,50.056L155.039,50.056L155.29,50.056L155.548,50.056L156.064,50.056L156.323,50.056L156.587,50.056L156.84,50.056L157.098,50.056L157.615,50.056L157.873,50.056L158.138,50.056L158.39,50.056L158.648,50.056L159.165,50.056L159.424,50.056L159.692,50.056L160.715,50.056L160.974,50.056L161.242,50.056L161.491,50.056L161.749,50.056L162.266,50.056L162.524,50.056L162.793,50.056L163.041,50.056L163.3,50.056L163.816,50.056L164.075,50.056L164.343,50.056L164.592,50.056L164.85,50.056L165.367,50.056L165.625,50.056L165.892,50.056L166.142,50.056L166.4,50.056L166.917,50.056L167.175,50.056L167.44,50.056L167.692,50.056L167.951,50.056L168.467,50.056L168.726,50.056L168.991,50.056L169.242,50.056L169.501,50.056L170.018,50.056L170.276,50.056L170.544,50.056L170.793,50.056L171.051,50.056L171.568,50.056L171.826,50.056L172.094,50.056L172.344,50.056L172.602,50.056L173.119,50.056L173.377,50.056L173.637,50.056L173.894,50.056L174.152,50.056L174.669,50.056L174.928,50.056L175.444,50.056L175.703,50.056L176.219,50.056L176.478,50.056L176.744,50.056L176.995,50.056L177.253,50.056L177.77,50.056L178.028,50.056L178.292,50.056L178.545,50.056L178.803,50.056L179.32,50.056L179.579,50.056L179.843,50.056L180.095,50.056L180.354,50.056L180.87,50.056L181.129,50.056L181.395,50.056L181.646,50.056L181.904,50.056L182.421,50.056L182.679,50.056L182.944,50.056L183.196,50.056L183.454,50.056L183.971,50.056L184.23,50.056L184.495,50.056L184.746,50.056L185.005,50.056L185.522,60.056L185.78,60.056L186.045,60.056L186.297,60.056L186.555,60.056L187.072,60.056L187.33,60.056L187.597,60.056L187.848,60.056L188.106,60.056L188.623,60.056L188.881,60.056L189.145,60.056L189.398,60.056L189.656,60.056L190.173,60.056L190.432,60.056L190.696,60.056L190.948,60.056L191.206,60.056L191.723,60.056L191.982,60.056L192.248,60.056L192.498,60.056L192.757,60.056L193.274,60.056L193.532,60.056L193.798,60.056L194.049,60.056L194.307,60.056L194.824,90.056L195.082,90.056L195.349,90.056L195.599,90.056L195.858,90.056L196.375,90.056L196.633,90.056L196.899,90.056L197.15,90.056" stroke="#e45756" stroke-width="2"/></g></g><path class="foreground" aria-hidden="true" d="" display="none"/></g><g transform="translate(0,0)"><path class="background" aria-hidden="true" d="M0,0h200v200h-200Z"/><g><g class="mark-line role-mark child_marks" role="graphics-object" aria-roledescription="line mark container"><path aria-label="Time: Aug 30, 2023; Price: 8995; item: HIKING_BACKPACK_PONCHO_-_Veste_imperméable_-_blue" role="graphics-symbol" aria-roledescription="line mark" d="M0,100.056L0.252,100.056L0.509,100.056L1.026,100.056L1.284,100.056L1.551,100.056L1.801,100.056L2.059,100.056L2.576,100.056L2.834,100.056L3.101,100.056L3.351,100.056L3.609,100.056L4.126,100.056L4.384,100.056L4.648,100.056L4.901,100.056L5.16,100.056L5.677,100.056L6.121,100.056L6.199,100.056L18.338,100.056L18.606,100.056L18.855,100.056L19.113,100.056L19.63,100.056L19.888,100.056L20.155,100.056L20.405,100.056L20.664,100.056L21.18,100.056L21.439,100.056L21.706,100.056L21.843,100.056L21.956,100.056L22.214,100.056L22.731,100.056L22.989,100.056L23.257,100.056L23.506,100.056L23.764,100.056L24.281,100.056L24.539,100.056L24.806,100.056L25.056,100.056L25.315,100.056L25.831,100.056L26.09,100.056L26.353,100.056L26.607,100.056L26.865,100.056L27.382,100.056L27.64,100.056L45.211,111.167L45.986,111.167L46.245,111.167L46.512,111.167L46.762,111.167L47.02,111.167L47.537,111.167L47.795,111.167L48.059,111.167L48.312,111.167L48.57,111.167L49.087,111.167L49.346,111.167L49.61,111.167L49.862,111.167L50.121,111.167L50.638,111.167L50.896,111.167L51.164,111.167L51.413,111.167L51.671,111.167L52.188,127.833L52.447,127.833L52.715,127.833L52.964,127.833L53.222,127.833L53.738,127.833L53.997,127.833L54.266,127.833L54.514,127.833L54.772,127.833L55.289,127.833L55.547,127.833L55.817,127.833L56.064,127.833L56.323,127.833L56.839,127.833L57.098,127.833L57.366,127.833L57.615,127.833L57.873,127.833L58.39,127.833L58.649,127.833L58.912,127.833L59.165,127.833L59.424,127.833L59.94,127.833L60.198,127.833L60.716,127.833L60.974,127.833L61.49,127.833" stroke="#eeca3b" stroke-width="2"/></g></g><path class="foreground" aria-hidden="true" d="" display="none"/></g><g transform="translate(0,0)"><path class="background" aria-hidden="true" d="M0,0h200v200h-200Z"/><g><g class="mark-line role-mark child_marks" role="graphics-object" aria-roledescription="line mark container"><path aria-label="Time: Aug 30, 2023; Price: 16195; item: DESCHUTES_VALLEY™_RAIN_PONCHO_-_Parka_-_vista_blue" role="graphics-symbol" aria-roledescription="line mark" d="M0,20.056L0.252,20.056L0.509,20.056L1.026,20.056L1.284,20.056L1.551,20.056L1.801,20.056L2.059,20.056L2.576,20.056L2.834,20.056L3.101,20.056L3.351,20.056L3.609,20.056L4.126,20.056L4.384,20.056L4.648,20.056L4.901,20.056L5.16,20.056L5.677,20.056L6.121,20.056L6.199,20.056L6.452,20.056L6.71,20.056L7.227,20.056L7.486,20.056L7.753,20.056L8.002,20.056L8.26,20.056L8.779,80.056L9.037,80.056L9.303,80.056L9.553,80.056L9.811,80.056L10.328,80.056L10.586,80.056L10.854,80.056L11.103,80.056L11.361,80.056L11.879,80.056L12.137,80.056L12.403,80.056L12.654,80.056L12.912,80.056L13.591,80.056L13.687,80.056L13.953,80.056L14.203,80.056L14.462,80.056L14.978,80.056L15.237,80.056L15.501,80.056L15.754,80.056L16.012,80.056L16.529,80.056L16.787,80.056L17.051,80.056L17.304,80.056L17.563,80.056L18.079,80.056L18.338,80.056L18.606,80.056L18.855,80.056L19.113,80.056L19.63,80.056L19.888,80.056L20.155,80.056L20.405,80.056L20.664,80.056L21.18,20.056L21.439,20.056L21.706,20.056L21.843,20.056L21.956,20.056L22.214,20.056L22.731,20.056L22.989,20.056L23.257,20.056L23.506,20.056L23.764,20.056L24.281,20.056L24.539,20.056L24.806,20.056L25.056,20.056L25.315,20.056L25.831,20.056L26.09,20.056L26.353,20.056L26.607,20.056L26.865,20.056L27.382,20.056L27.64,20.056L27.904,20.056L28.157,20.056L28.415,20.056L28.932,20.056L29.191,20.056L29.459,20.056L29.707,20.056L29.966,20.056L30.482,20.056L30.741,20.056L31.009,20.056L31.258,20.056L31.516,20.056L32.033,20.056L32.292,20.056L32.559,20.056L32.808,20.056L33.066,20.056L33.583,20.056L33.842,20.056L34.11,20.056L34.359,20.056L34.617,20.056L35.134,20.056L35.392,20.056L35.659,20.056L35.909,20.056L36.167,20.056L36.684,20.056L36.943,20.056L37.206,20.056L37.459,20.056L37.718,20.056L38.234,20.056L38.493,20.056L38.757,20.056L39.01,20.056L39.268,20.056L39.785,20.056L40.044,20.056L40.312,20.056L40.56,20.056L40.818,20.056L41.335,20.056L41.594,20.056L41.862,20.056L42.11,20.056L42.369,20.056L42.886,40.056L43.144,40.056L43.412,40.056L43.661,40.056L43.92,40.056L44.436,40.056L44.694,40.056L44.962,40.056L45.211,40.056L45.986,40.056L46.245,40.056L46.512,40.056L46.762,40.056L47.02,40.056L47.537,40.056L47.795,40.056L48.059,40.056L48.312,40.056L48.57,40.056L49.087,40.056L49.346,40.056L49.61,40.056L49.862,40.056L50.121,40.056L50.638,90.056L50.896,90.056L51.164,90.056L51.413,90.056L51.671,90.056L52.188,40.056L52.447,40.056L52.715,40.056L52.964,40.056L53.222,40.056L53.738,40.056L53.997,40.056L54.266,40.056L54.514,40.056L54.772,40.056L55.289,40.056L55.547,40.056L55.817,40.056L56.064,40.056L56.323,40.056L56.839,40.056L57.098,40.056L57.366,40.056L57.615,40.056L57.873,40.056L58.39,40.056L58.648,40.056L58.912,40.056L59.165,40.056L59.424,40.056L59.94,40.056L60.198,40.056L60.716,40.056L60.974,40.056L61.49,40.056L61.749,40.056L62.019,40.056L62.266,40.056L62.524,40.056L63.041,90.056L63.299,90.056L63.568,90.056L63.816,90.056L64.074,90.056L64.591,90.056L64.85,90.056L65.118,90.056L65.366,90.056L65.625,90.056L66.141,90.056L66.4,90.056L66.669,90.056L66.917,90.056L67.175,90.056L67.692,90.056L67.951,90.056L68.219,90.056L68.467,90.056L68.726,90.056L69.243,40.056L69.501,40.056L69.765,40.056L70.018,40.056L70.276,40.056L70.793,40.056L71.051,40.056L71.315,40.056L71.568,40.056L71.827,40.056L72.343,100.056L72.602,100.056L72.87,100.056L73.118,100.056L73.377,100.056L73.894,100.056L74.152,100.056L74.42,100.056L74.669,100.056L74.927,100.056L75.444,100.056L75.703,100.056L75.971,100.056L76.219,100.056L76.478,100.056L76.995,100.056L77.253,100.056L77.521,100.056L77.77,100.056L78.028,100.056L78.545,100.056L78.804,100.056L79.071,100.056L79.32,100.056L79.578,100.056L80.095,100.056L80.353,100.056L80.617,100.056L80.87,100.056L81.129,100.056L81.646,100.056L81.904,100.056L82.168,100.056L82.421,100.056L82.679,100.056L83.196,100.056L83.454,100.056L83.722,100.056L83.972,100.056L84.23,100.056L84.746,40.056L85.005,40.056L85.272,40.056L85.521,40.056L85.78,40.056L86.297,40.056L86.555,40.056L86.822,40.056L87.072,40.056L87.331,40.056L87.847,40.056L88.106,40.056L88.372,40.056L88.622,40.056L88.88,40.056L89.397,40.056L89.657,40.056L89.922,40.056L90.173,40.056L90.431,40.056L90.948,40.056L91.206,40.056L91.469,40.056L91.723,40.056L91.982,40.056L92.498,40.056L92.757,40.056L93.021,40.056L93.273,40.056L93.532,40.056L94.049,40.056L94.307,40.056L94.574,40.056L94.824,40.056L95.082,40.056L95.599,40.056L95.858,40.056L96.124,40.056L96.374,40.056L96.633,40.056L97.149,40.056L97.408,40.056L97.674,40.056L97.924,40.056L98.183,40.056L98.7,40.056L98.958,40.056L99.225,40.056L99.475,40.056L99.733,40.056L100.25,40.056L100.509,40.056L100.777,40.056L101.026,40.056L101.284,40.056L101.8,40.056L102.059,40.056L102.323,40.056L102.576,40.056L102.834,40.056L103.351,40.056L103.609,40.056L103.874,40.056L104.126,40.056L104.385,40.056L104.901,40.056L105.16,40.056L105.429,40.056L105.677,40.056L105.935,40.056L106.452,40.056L106.711,40.056L106.977,40.056L107.227,40.056L107.485,40.056L108.002,40.056L108.261,40.056L108.528,40.056L108.777,40.056L109.036,40.056L109.553,40.056L109.811,40.056L110.077,40.056L110.328,40.056L110.586,40.056L111.103,40.056L111.362,40.056L111.628,40.056L111.878,40.056L112.136,40.056L112.653,40.056L112.912,40.056L113.176,40.056L113.687,40.056L114.204,40.056L114.462,40.056L114.726,40.056L114.979,40.056L115.237,40.056L115.754,40.056L116.013,40.056L116.28,40.056L116.529,40.056L117.304,40.056L117.563,40.056L117.83,40.056L118.08,40.056L118.338,40.056L118.855,40.056L119.113,40.056L119.382,40.056L119.63,40.056L119.888,40.056L120.405,120.056L120.664,120.056L120.932,120.056L121.18,120.056L121.439,120.056L121.956,120.056L122.214,120.056L122.482,120.056L122.731,120.056L122.989,120.056L123.506,40.056L123.764,40.056L124.03,40.056L124.281,40.056L124.54,40.056L125.057,40.056L125.315,40.056L125.58,40.056L125.832,40.056L126.09,40.056L126.607,50.056L126.865,50.056L127.135,70.056L127.382,70.056L127.64,70.056L128.157,70.056L128.416,70.056L128.685,70.056L128.932,70.056L129.191,70.056L129.708,70.056L129.966,70.056L130.235,70.056L130.483,70.056L130.741,70.056L131.258,120.056L131.517,120.056L131.784,120.056L132.033,120.056L132.292,120.056L132.809,120.056L133.067,120.056L133.333,120.056L133.584,120.056L133.842,120.056L134.359,120.056L134.617,120.056L134.882,120.056L135.134,120.056L135.392,120.056L135.909,120.056L136.168,120.056L136.433,120.056L136.684,120.056L136.943,120.056L137.46,40.056L137.718,40.056L137.987,40.056L138.235,40.056L138.493,40.056L139.01,40.056L139.268,40.056L139.535,40.056L139.785,40.056L140.044,40.056L140.561,40.056L140.819,40.056L141.087,40.056L141.336,40.056L141.594,40.056L142.111,40.056L142.369,40.056L142.637,40.056L142.886,40.056L143.144,40.056L143.661,40.056L143.92,40.056L144.188,40.056L144.436,40.056L144.695,40.056L145.212,40.056L145.47,40.056L145.734,40.056L145.987,40.056L146.245,40.056L146.762,40.056L147.02,40.056L147.286,40.056L147.538,40.056L147.796,40.056L148.312,40.056L148.571,40.056L148.839,40.056L149.088,40.056L149.346,40.056L149.863,100.056L150.121,100.056L150.389,100.056L150.638,100.056L150.897,100.056L151.413,100.056L151.672,100.056L151.94,100.056L152.188,100.056L152.447,100.056L152.963,100.056L153.222,100.056L153.49,100.056L153.739,100.056L153.997,100.056L154.514,100.056L154.773,100.056L155.039,100.056L155.29,100.056L155.548,100.056L156.064,100.056L156.323,100.056L156.587,100.056L156.84,100.056L157.098,100.056L157.615,100.056L157.873,100.056L158.138,100.056L158.39,100.056L158.648,100.056L159.165,100.056L159.424,100.056L159.692,100.056L159.94,100.056L160.199,100.056L160.715,100.056L160.974,100.056L161.242,100.056L161.491,100.056L161.749,100.056L162.266,100.056L162.524,100.056L162.793,100.056L163.041,100.056L163.3,100.056L163.816,100.056L164.075,100.056L164.343,100.056L164.592,100.056L164.85,100.056L165.367,100.056L165.625,100.056L165.892,100.056L166.142,100.056L166.4,100.056L166.917,100.056L167.175,100.056L167.44,100.056L167.692,100.056L167.951,100.056L168.467,90.056L168.726,90.056L168.991,90.056L169.242,90.056L169.501,90.056L170.018,90.056L170.276,90.056L170.544,90.056L170.793,90.056L171.051,90.056L171.568,90.056L171.826,90.056L172.094,90.056L172.344,90.056L172.602,90.056L173.119,90.056L173.377,90.056L173.637,90.056L173.894,90.056L174.152,90.056L174.669,60.056L174.928,60.056L175.444,60.056L175.703,60.056L176.219,60.056L176.478,60.056L176.744,60.056L176.995,60.056L177.253,60.056L177.77,60.056L178.028,60.056L178.292,60.056L178.545,60.056L178.803,60.056L179.32,60.056L179.579,60.056L179.843,60.056L180.095,60.056L180.354,60.056L180.87,60.056L181.129,60.056L181.395,60.056L181.646,60.056L181.904,60.056L182.421,60.056L182.679,60.056L182.944,60.056L183.196,60.056L183.454,60.056L183.971,60.056L184.23,60.056L184.495,60.056L184.746,60.056L185.005,60.056L185.522,60.056L185.78,60.056L186.045,60.056L186.297,60.056L186.555,60.056L187.072,60.056L187.33,60.056L187.597,60.056L187.848,60.056L188.106,60.056L188.623,60.056L188.881,60.056L189.145,60.056L189.398,60.056L189.656,60.056L190.173,60.056L190.432,60.056L190.696,60.056L190.948,60.056L191.206,60.056L191.723,60.056L191.982,60.056L192.248,60.056L192.498,60.056L192.757,60.056L193.274,60.056L193.532,60.056L193.798,60.056L194.049,60.056L194.307,60.056L194.824,90.056L195.082,90.056L195.349,90.056L195.599,90.056L195.858,90.056L196.375,90.056L196.633,90.056L196.899,90.056L197.15,90.056L197.408,90.056L197.925,90.056L198.183,90.056L198.45,90.056L198.7,90.056L198.958,90.056L199.475,100.056L199.734,100.056L200,100.056" stroke="#f58518" stroke-width="2"/></g></g><path class="foreground" aria-hidden="true" d="" display="none"/></g><g transform="translate(0,0)"><path class="background" aria-hidden="true" d="M0,0h200v200h-200Z"/><g><g class="mark-line role-mark child_marks" role="graphics-object" aria-roledescription="line mark container"><path aria-label="Time: Aug 30, 2023; Price: 5495; item: COVERO_PONCHO_II_-_Cape_-_lightgrey" role="graphics-symbol" aria-roledescription="line mark" d="M0,138.944L0.252,138.944L0.509,138.944L1.026,138.944L1.284,138.944L1.551,138.944L1.801,138.944L2.059,138.944L2.576,138.944L2.834,138.944L4.384,138.944L4.648,138.944L4.901,138.944L5.16,138.944L5.677,138.944L6.121,138.944L6.199,138.944L6.452,138.944L6.71,138.944L7.227,138.944L7.486,138.944L7.753,138.944L8.002,138.944L8.26,138.944L8.779,138.944L9.037,138.944L9.303,138.944L9.553,138.944L9.811,138.944L14.203,153.944L16.787,138.944L17.051,138.944L17.304,138.944L17.563,138.944L18.079,138.944L18.338,138.944L18.606,138.944L18.855,138.944L19.113,138.944L19.63,138.944L19.888,138.944L20.155,138.944L20.405,138.944L20.664,138.944L21.18,138.944L21.439,138.944L21.706,138.944L21.843,138.944L21.956,138.944L22.214,138.944L22.731,138.944L22.989,138.944L23.257,138.944L23.506,138.944L23.764,138.944L24.281,138.944L24.539,138.944L24.806,138.944L25.056,138.944L25.315,138.944L25.831,138.944L26.09,138.944L26.353,138.944L26.607,138.944L26.865,138.944L27.382,138.944L27.64,138.944L27.904,138.944L28.157,138.944L28.415,138.944L28.932,138.944L29.191,138.944L29.459,138.944L29.707,138.944L29.966,138.944L30.482,138.944L30.741,138.944L31.009,138.944L31.258,138.944L31.516,138.944L32.033,151.167L32.292,151.167L32.559,151.167L32.808,151.167L33.066,151.167L33.583,151.167L33.842,151.167L34.11,151.167L34.359,151.167L34.617,151.167L35.134,151.167L35.392,151.167L35.659,151.167L36.943,151.167L37.206,151.167L37.459,151.167L37.718,151.167L38.234,151.167L38.493,151.167L38.757,151.167L39.01,151.167L39.268,151.167L39.785,151.167L40.044,151.167L40.312,151.167L40.56,151.167L40.818,151.167L41.335,151.167L41.594,151.167L41.862,151.167L42.11,151.167L42.369,151.167L42.886,151.167L43.144,151.167L43.412,151.167L43.661,151.167L43.92,151.167L44.436,151.167L44.694,151.167L44.962,151.167L45.211,151.167L45.986,151.167L46.245,151.167L46.512,151.167L46.762,151.167L47.02,151.167L47.537,151.167L47.795,151.167L48.059,151.167L48.312,151.167L48.57,151.167L49.087,151.167L49.346,151.167L49.61,151.167L49.862,151.167L50.121,151.167L50.638,151.167L50.896,151.167L51.164,151.167L51.413,151.167L51.671,151.167L52.188,151.167L52.447,151.167L52.715,151.167L52.964,151.167L53.222,151.167L53.738,151.167L53.997,151.167L54.266,151.167L54.514,151.167L54.772,151.167L55.289,151.167L55.547,151.167L55.817,151.167L56.064,151.167L56.323,151.167L56.839,151.167L57.098,151.167L57.366,151.167L57.615,151.167L57.873,151.167L58.649,151.167L58.912,151.167L59.94,151.167L60.198,151.167L60.716,151.167L60.974,151.167L62.266,151.167L62.524,151.167L63.041,151.167L63.299,151.167L63.568,151.167L64.074,151.167L64.591,138.944L64.85,138.944L65.118,138.944L65.366,138.944L65.625,138.944L68.467,138.944L70.018,153.944L73.377,153.944L73.894,153.944L74.669,153.944L75.444,153.944L76.219,153.944L76.478,153.944L77.253,153.944L79.32,153.944L79.578,153.944L80.095,153.944L82.168,153.944L82.421,153.944L82.679,153.944L83.196,153.944L83.972,153.944L84.23,153.944L84.746,153.944L85.005,153.944L85.272,153.944L85.78,153.944L86.555,153.944L86.822,153.944L87.072,153.944L87.847,153.944L88.106,153.944L88.622,153.944L90.173,153.944L90.431,153.944L90.948,153.944L91.469,153.944L91.723,153.944L91.982,153.944L92.757,153.944L93.021,153.944L93.273,153.944L94.049,153.944L94.307,153.944L94.574,153.944L94.824,153.944L95.082,153.944L95.599,153.944L95.858,153.944L96.124,153.944L96.374,153.944L96.633,153.944L97.149,153.944L98.958,153.944L99.225,153.944L99.475,153.944L99.733,153.944L100.509,153.944L100.777,153.944L101.026,153.944L101.284,153.944L101.8,145.611L102.059,145.611L107.485,145.611L108.002,145.611L108.261,145.611L108.528,145.611L108.777,145.611L109.036,145.611L109.811,145.611L110.077,145.611L110.328,145.611L110.586,145.611L111.103,145.611L111.628,145.611L112.136,145.611L112.912,145.611L113.176,145.611L113.687,145.611L114.204,145.611L114.462,145.611L114.726,145.611L114.979,145.611L115.237,145.611L115.754,138.944L116.28,138.944L117.304,138.944L117.563,138.944L117.83,138.944L118.08,138.944L118.338,138.944L118.855,138.944L119.113,138.944L119.382,138.944L119.63,138.944L119.888,138.944L120.664,153.944L120.932,153.944L121.18,153.944L121.439,153.944L121.956,153.944L122.731,153.944L122.989,153.944L123.506,153.944L123.764,153.944L124.03,153.944L124.281,160.056L126.865,138.944L127.135,138.944L127.382,138.944L127.64,138.944L128.157,138.944L128.416,138.944L128.685,138.944L128.932,138.944L129.191,138.944L129.708,138.944L129.966,138.944L130.235,138.944L130.483,138.944L130.741,138.944L131.517,163.389L144.188,138.944L145.212,138.944L145.987,138.944L147.02,138.944L148.571,138.944L148.839,138.944L149.088,138.944L149.346,138.944L149.863,138.944L151.672,138.944L152.963,138.944L155.29,138.944L156.323,138.944L156.587,138.944L156.84,138.944L157.098,138.944L157.615,138.944L158.138,138.944L159.424,138.944L159.692,138.944L159.94,138.944L160.199,138.944L161.242,138.944L162.266,138.944L164.343,138.944L165.625,138.944L166.142,138.944L166.4,138.944L166.917,138.944L167.692,138.944L167.951,138.944L168.467,138.944" stroke="#f58518" stroke-width="2"/></g></g><path class="foreground" aria-hidden="true" d="" display="none"/></g><g transform="translate(0,0)"><path class="background" aria-hidden="true" d="M0,0h200v200h-200Z"/><g><g class="mark-line role-mark child_marks" role="graphics-object" aria-roledescription="line mark container"><path aria-label="Time: Sep 01, 2023; Price: 12995; item: KUURA_3L_PONCHO_UNISEX_-_Veste_imperméable_-_green" role="graphics-symbol" aria-roledescription="line mark" d="M3.609,55.611L4.126,55.611L4.384,55.611L4.648,55.611L7.486,55.611L7.753,55.611L8.002,55.611L8.26,55.611L8.779,11.167L9.037,11.167L9.303,11.167L9.553,11.167L9.811,11.167L10.328,11.167L10.586,11.167L10.854,11.167L11.103,11.167L11.361,11.167L11.879,11.167L12.137,11.167L12.403,11.167L12.654,11.167L12.912,11.167L13.591,11.167L13.687,11.167L13.953,11.167L14.203,11.167L14.462,11.167L14.978,11.167L15.237,11.167L15.501,11.167L15.754,11.167L16.012,11.167L16.529,11.167L16.787,11.167L17.051,11.167L17.304,11.167L17.563,11.167L18.079,11.167L18.338,11.167L18.606,11.167L18.855,11.167L19.63,11.167L19.888,11.167L20.155,11.167L20.405,11.167L20.664,11.167L26.353,22.278L26.607,22.278L26.865,22.278L27.382,22.278L27.64,22.278L27.904,22.278L28.157,22.278L28.415,22.278L28.932,22.278L29.191,22.278L29.459,22.278L30.741,22.278L31.009,22.278L31.258,22.278L31.516,22.278L32.033,22.278L32.292,22.278L52.964,22.278L53.222,22.278L53.738,22.278L53.997,22.278L54.266,22.278L54.514,22.278L54.772,22.278L55.289,22.278L55.547,22.278L55.817,22.278L56.064,22.278L56.323,22.278L56.839,22.278L57.098,22.278L57.366,22.278L57.615,22.278L57.873,22.278L58.39,22.278L58.648,22.278L58.912,22.278L59.165,22.278L59.424,22.278L83.196,22.278L83.454,22.278L83.722,22.278L83.972,22.278L84.23,22.278L84.746,22.278L85.005,22.278L85.272,22.278L85.521,22.278" stroke="#4c78a8" stroke-width="2"/></g></g><path class="foreground" aria-hidden="true" d="" display="none"/></g><g transform="translate(0,0)"><path class="background" aria-hidden="true" d="M0,0h200v200h-200Z"/><g><g class="mark-line role-mark child_marks" role="graphics-object" aria-roledescription="line mark container"><path aria-label="Time: Sep 14, 2023; Price: 6495; item: PARIS_ST._GERMAIN_CITY_MADE_PONCHO_-_Veste_de_survêtement_-_aura_white" role="graphics-symbol" aria-roledescription="line mark" d="M22.731,127.833L22.989,127.833L23.257,127.833L23.506,127.833L23.764,127.833L24.281,127.833L24.539,127.833L25.831,127.833L27.64,127.833L27.904,127.833L28.157,127.833L28.415,127.833L28.932,127.833L29.191,127.833L29.459,127.833L29.707,127.833L29.966,127.833L30.482,127.833L30.741,127.833L31.009,127.833L31.258,127.833L31.516,127.833L32.033,127.833L32.292,127.833L32.559,127.833L32.808,127.833L33.066,127.833L33.583,127.833L33.842,127.833L34.11,127.833L34.359,127.833L34.617,127.833L35.134,127.833L35.392,127.833L35.659,127.833L35.909,127.833L36.167,127.833L36.684,127.833L36.943,127.833L37.206,127.833L37.459,127.833L37.718,127.833L38.234,127.833L38.493,127.833L38.757,127.833L39.01,127.833L39.268,127.833L39.785,127.833L40.044,127.833L40.312,127.833L40.56,127.833L40.818,127.833L41.335,127.833L41.594,127.833L41.862,127.833" stroke="#9d755d" stroke-width="2"/></g></g><path class="foreground" aria-hidden="true" d="" display="none"/></g><g transform="translate(0,0)"><path class="background" aria-hidden="true" d="M0,0h200v200h-200Z"/><g><g class="mark-line role-mark child_marks" role="graphics-object" aria-roledescription="line mark container"><path aria-label="Time: Sep 18, 2023; Price: 8995; item: HIKING_BACKPACK_PONCHO_-_Veste_imperméable_-_indian_red" role="graphics-symbol" aria-roledescription="line mark" d="M28.932,100.056L29.191,100.056L29.459,100.056L29.707,100.056L29.966,100.056L30.482,100.056L30.741,100.056L40.56,100.056L40.818,100.056L41.335,100.056L41.594,100.056L41.862,100.056L42.11,100.056L42.369,100.056L42.886,111.167L43.144,111.167L43.412,111.167L43.661,111.167L68.219,111.167L68.467,111.167L68.726,111.167L69.243,111.167L69.501,111.167L69.765,111.167L70.018,111.167L70.276,111.167L70.793,111.167L173.637,122.278L173.894,122.278L174.152,122.278L174.669,111.167L174.928,111.167" stroke="#b279a2" stroke-width="2"/></g></g><path class="foreground" aria-hidden="true" d="" display="none"/></g><g transform="translate(0,0)"><path class="background" aria-hidden="true" d="M0,0h200v200h-200Z"/><g><g class="mark-line role-mark child_marks" role="graphics-object" aria-roledescription="line mark container"><path aria-label="Time: Sep 26, 2023; Price: 6495; item: PSG_M_NSW_CITY_MADE_PONCHO_-_Veste_de_survêtement_-_aura_white" role="graphics-symbol" aria-roledescription="line mark" d="M42.11,127.833L42.369,127.833L42.886,91.167L43.144,91.167L43.412,91.167L43.661,91.167L43.92,91.167L44.436,91.167L44.694,91.167L44.962,91.167L45.211,91.167L45.986,91.167L46.245,91.167L46.512,91.167L46.762,91.167L47.02,91.167L47.537,91.167L47.795,91.167L48.059,91.167L48.312,91.167L48.57,91.167L49.087,91.167L49.346,91.167L49.61,91.167L49.862,91.167L50.121,91.167L50.638,127.833L50.896,127.833L51.164,127.833L51.413,127.833L51.671,127.833L52.188,127.833L52.447,127.833L52.715,127.833L52.964,127.833L53.222,127.833L53.738,127.833L53.997,127.833L54.266,127.833L54.514,127.833L54.772,127.833L55.289,127.833L55.547,127.833L55.817,127.833L56.064,127.833L56.323,127.833L56.839,127.833L57.098,127.833L57.366,127.833L57.615,127.833L57.873,127.833L58.39,127.833L58.649,127.833L58.912,127.833L59.165,127.833L59.424,127.833L59.94,127.833L60.198,127.833L60.716,127.833L60.974,127.833L61.49,127.833L61.749,127.833L62.019,127.833L62.266,127.833L62.524,127.833L63.041,84.5L63.299,84.5L63.568,84.5L64.074,84.5L64.591,84.5L64.85,84.5L65.118,84.5L65.366,84.5L65.625,84.5L66.141,84.5L66.4,84.5L67.692,84.5L68.467,84.5L70.018,127.833L70.793,127.833L72.602,127.833L72.87,127.833L82.679,127.833L83.196,127.833L83.454,127.833L83.722,127.833L85.005,127.833L85.272,127.833L87.072,127.833L87.331,127.833L88.372,127.833L88.88,127.833L89.397,127.833L89.922,127.833L91.206,127.833L91.982,127.833L92.499,127.833L92.757,127.833L93.021,127.833L93.532,127.833L94.307,127.833L95.082,127.833L95.599,127.833L95.858,127.833L96.124,127.833L96.374,127.833L96.633,127.833L97.149,127.833L97.408,127.833L97.674,127.833L97.924,127.833L98.183,127.833L98.7,127.833L98.958,127.833L99.225,127.833L99.475,127.833L99.733,127.833L100.25,127.833L100.509,127.833L100.777,127.833L101.026,127.833L101.284,127.833L101.8,127.833L102.059,127.833L102.323,127.833L102.576,127.833L102.834,127.833L103.351,127.833L103.609,127.833L103.874,127.833L104.126,127.833L104.385,127.833L104.901,127.833L105.16,127.833L105.429,127.833L105.677,127.833L105.935,127.833L106.452,127.833L106.711,127.833L106.977,127.833L107.227,127.833L107.485,127.833L108.002,127.833L108.528,127.833L108.777,127.833L109.036,127.833L110.077,127.833L110.328,127.833L111.103,84.5L111.628,84.5L112.136,84.5L113.687,84.5L115.237,84.5L116.28,127.833L117.304,127.833L117.563,127.833L117.83,127.833L118.338,127.833L118.855,127.833L119.113,127.833L119.382,127.833L119.63,127.833L120.664,156.722L123.764,127.833L124.03,127.833L125.057,127.833L127.64,105.611L128.157,105.611L130.235,105.611L130.483,105.611L131.517,148.944L135.392,148.944L135.909,148.944L138.493,120.056L139.01,127.833L140.044,127.833L141.087,127.833L142.637,127.833L143.144,127.833L144.188,91.167L145.212,91.167L145.987,91.167L147.02,127.833L148.839,91.167L151.672,127.833L155.29,127.833L156.587,127.833L157.098,127.833L158.138,127.833L159.424,127.833L159.692,127.833L159.94,127.833L160.199,127.833L160.715,127.833L160.974,127.833L161.242,127.833L161.491,127.833L161.749,127.833L162.266,127.833L165.625,127.833L166.142,127.833L166.4,127.833L166.917,127.833L167.692,127.833L168.726,120.056L168.991,120.056L169.242,120.056L169.501,120.056L170.018,120.056L170.544,120.056L171.051,120.056L171.568,120.056L171.826,120.056L172.094,120.056L172.344,120.056L172.602,120.056L173.119,120.056L173.377,120.056L173.637,120.056L173.894,120.056L174.152,120.056L174.669,98.944L175.444,98.944L176.219,98.944L176.478,98.944L176.744,98.944L176.995,98.944L177.253,98.944L177.77,98.944L178.028,98.944L178.292,98.944L178.545,98.944L178.803,98.944L179.32,98.944L179.579,98.944L179.843,98.944L180.095,98.944L180.354,98.944L180.87,98.944L181.129,98.944L181.395,98.944L181.646,98.944L181.904,98.944L182.421,98.944L182.679,98.944L183.196,98.944L183.454,98.944L183.971,98.944L184.23,98.944L184.495,98.944L185.005,98.944L185.78,98.944L186.045,98.944L186.297,98.944L187.072,98.944L187.848,98.944L188.623,98.944L188.881,98.944L189.145,98.944L189.656,98.944L190.173,98.944L190.696,98.944L190.948,98.944L191.206,98.944L191.723,98.944L191.982,98.944L192.248,98.944L192.498,98.944L192.757,98.944L193.274,98.944L194.049,98.944L194.824,120.056L195.082,120.056L195.599,120.056L195.858,120.056L196.375,120.056L196.899,120.056L197.15,120.056L197.408,120.056L198.183,120.056L198.45,120.056L198.7,120.056L198.958,120.056L199.475,120.056L199.734,120.056L200,120.056" stroke="#bab0ac" stroke-width="2"/></g></g><path class="foreground" aria-hidden="true" d="" display="none"/></g><g transform="translate(0,0)"><path class="background" aria-hidden="true" d="M0,0h200v200h-200Z"/><g><g class="mark-line role-mark child_marks" role="graphics-object" aria-roledescription="line mark container"><path aria-label="Time: Oct 12, 2023; Price: 4995; item: SHOWERPROOF_PONCHO_UNISEX_-_Cape_-_classic_tartan" role="graphics-symbol" aria-roledescription="line mark" d="M66.141,144.5L66.4,144.5L66.669,144.5L66.917,144.5L67.175,144.5L67.692,144.5L67.951,144.5L68.219,144.5L68.467,144.5L68.726,144.5L69.243,144.5L69.501,144.5L69.765,144.5L70.018,144.5L70.276,144.5L70.793,144.5L71.051,144.5L71.315,144.5L71.568,144.5L71.827,144.5L72.343,152.611L72.602,152.611L72.87,152.611L73.118,152.611L73.377,152.611L73.894,152.611L74.152,152.611L74.42,152.611L74.669,152.611L74.927,152.611L75.444,152.611L75.703,152.611L75.971,152.611L76.219,152.611L76.478,152.611L76.995,152.611L77.253,152.611L77.521,152.611L77.77,152.611L78.028,152.611L78.545,152.611L78.804,152.611L79.071,152.611L79.32,152.611L79.578,152.611L80.095,152.611L80.353,152.611L80.617,152.611L80.87,152.611L81.129,152.611L81.646,144.5L81.904,144.5L82.168,144.5L82.421,144.5L82.679,144.5L83.196,144.5L83.454,144.5L83.722,144.5L83.972,144.5L84.23,144.5L84.746,152.611L85.005,152.611L85.272,152.611L85.521,152.611L85.78,152.611L86.297,152.611L86.555,152.611L86.822,152.611L87.072,152.611L87.331,152.611L87.847,152.611L88.106,152.611L88.372,152.611L88.622,152.611L88.88,152.611L89.397,152.611L89.657,152.611L89.922,152.611L90.173,152.611L90.431,152.611L90.948,152.611L91.206,152.611L91.469,152.611L91.723,152.611L91.982,152.611L92.498,152.611L92.757,152.611L93.021,152.611L93.273,152.611L93.532,152.611L94.049,144.5L94.307,144.5L94.574,144.5L94.824,144.5L95.082,144.5L95.599,144.5L95.858,144.5L96.124,144.5L96.374,144.5L96.633,144.5L97.149,152.611L97.408,152.611L97.674,152.611L97.924,152.611L98.183,152.611L98.7,152.611L98.958,152.611L99.225,152.611L99.475,152.611L99.733,152.611L100.25,152.611L100.509,152.611L100.777,152.611L101.026,152.611L101.284,152.611L101.8,152.611L102.059,152.611L102.323,152.611L102.576,152.611L102.834,152.611L103.351,152.611L103.609,152.611L103.874,152.611L104.126,152.611L104.385,152.611L104.901,152.611L105.16,152.611L105.429,152.611L105.677,152.611L105.935,152.611L106.452,150.056L106.711,144.5L106.977,144.5L107.227,144.5L107.485,144.5L108.002,144.5L108.261,144.5L108.528,144.5L108.777,144.5L109.036,144.5L109.553,144.5L109.811,144.5L110.077,144.5L110.328,144.5L110.586,144.5L111.103,144.5L111.362,144.5L111.628,144.5L111.878,144.5L112.136,144.5L112.653,144.5L112.912,144.5L113.176,144.5L113.687,144.5L114.204,144.5L114.462,144.5L114.726,144.5L114.979,144.5L115.237,144.5L115.754,144.5L116.013,144.5L116.28,144.5L116.529,144.5L117.304,144.5L117.563,144.5L117.83,144.5L118.08,144.5L118.338,144.5L118.855,144.5L119.113,144.5L119.382,144.5L119.63,144.5L119.888,144.5L120.405,144.5L120.664,144.5L120.932,144.5L121.18,144.5L121.439,144.5L121.956,144.5L122.214,144.5L122.482,144.5L122.731,144.5L122.989,144.5L123.506,144.5L123.764,144.5L124.03,144.5L124.281,144.5L124.54,144.5L125.057,144.5L125.315,144.5L125.58,144.5L125.832,144.5L126.09,144.5L126.607,144.5L126.865,144.5L127.135,144.5L127.382,144.5L127.64,144.5L128.157,144.5L128.416,144.5L128.685,144.5L128.932,144.5L129.191,144.5L129.708,144.5L129.966,144.5L130.235,144.5L130.483,144.5L130.741,144.5L149.088,144.5L149.346,144.5L149.863,144.5L150.121,144.5L150.389,144.5L150.638,144.5L150.897,144.5L151.413,144.5L151.672,144.5L151.94,144.5L152.188,144.5L152.447,144.5L152.963,144.5L153.222,144.5L153.49,144.5L153.739,144.5L153.997,144.5L154.514,144.5L154.773,144.5L155.039,144.5L155.29,144.5L155.548,144.5L156.064,144.5L156.323,144.5L156.587,144.5L156.84,144.5L157.098,144.5L157.615,144.5L157.873,144.5L158.138,144.5L158.39,144.5L158.648,144.5L159.165,144.5L159.424,144.5L159.692,144.5L159.94,144.5L160.199,144.5L160.715,144.5L160.974,144.5L161.242,144.5L161.491,144.5L161.749,144.5L162.266,144.5L162.524,144.5L162.793,144.5L163.041,144.5L163.3,144.5L163.816,144.5L164.075,144.5L164.343,144.5L164.592,144.5L164.85,144.5L165.367,144.5L165.625,144.5L165.892,144.5L166.142,144.5L166.4,144.5L166.917,144.5L167.175,144.5L167.44,144.5L167.692,144.5L167.951,144.5L168.467,144.5L168.726,144.5L168.991,144.5L169.242,144.5L169.501,144.5L170.018,144.5L170.276,144.5L170.544,144.5L170.793,144.5L171.051,144.5L171.568,158.167L171.826,158.167L172.094,158.167L172.344,158.167L172.602,158.167L173.119,158.167L173.377,158.167L173.637,158.167L173.894,158.167L174.152,158.167L174.669,144.5L174.928,144.5L175.444,144.5L175.703,144.5L176.219,144.5L176.478,144.5L176.744,144.5L176.995,144.5L177.253,144.5L177.77,144.5L178.028,144.5L178.292,144.5L178.545,144.5L178.803,144.5L179.32,144.5L179.579,144.5L179.843,144.5L180.095,144.5L180.354,144.5L180.87,144.5L181.129,144.5L181.395,144.5L181.646,144.5L181.904,144.5L182.421,144.5L182.679,144.5L182.944,144.5L183.196,144.5L183.454,144.5L183.971,144.5L184.23,144.5L184.495,144.5L184.746,144.5L185.005,144.5L185.522,144.5L185.78,144.5L186.045,144.5L186.297,144.5L186.555,144.5L187.072,144.5L187.33,144.5L187.597,144.5L187.848,144.5L188.106,144.5L188.623,144.5L188.881,144.5L189.145,144.5L189.398,144.5L189.656,144.5L190.173,144.5L190.432,144.5L190.696,144.5L190.948,144.5L191.206,144.5L191.723,144.5L191.982,144.5L192.248,144.5L192.498,144.5L192.757,144.5L193.274,144.5L193.532,144.5L193.798,144.5L194.049,144.5L194.307,144.5L194.824,144.5L195.082,144.5L195.349,144.5L195.599,144.5L195.858,144.5L196.375,144.5L196.633,144.5L196.899,144.5L197.15,144.5L197.408,144.5L197.925,144.5L198.183,144.5L198.45,144.5L198.7,144.5L198.958,144.5L199.475,144.5L199.734,144.5L200,144.5" stroke="#4c78a8" stroke-width="2"/></g></g><path class="foreground" aria-hidden="true" d="" display="none"/></g><g transform="translate(0,0)"><path class="background" aria-hidden="true" d="M0,0h200v200h-200Z"/><g><g class="mark-line role-mark child_marks" role="graphics-object" aria-roledescription="line mark container"><path aria-label="Time: Oct 12, 2023; Price: 13995; item: PONCHO_-_Cape_-_lucid_blue" role="graphics-symbol" aria-roledescription="line mark" d="M66.141,44.5L67.951,44.5L68.467,44.5L69.243,91.167L70.018,91.167L71.051,91.167L71.315,91.167L71.568,91.167L71.827,91.167L72.343,91.167L72.602,91.167L72.87,91.167L73.118,91.167L73.377,91.167L73.894,91.167L74.152,91.167L74.42,91.167L74.669,91.167L74.927,91.167L75.444,91.167L75.703,91.167L75.971,91.167L76.219,91.167L76.478,91.167L76.995,91.167L77.253,91.167L77.521,91.167L78.028,91.167L79.32,91.167L79.578,91.167L80.095,91.167L80.87,91.167L81.646,91.167L81.904,91.167L82.168,91.167L82.421,91.167L82.679,91.167L83.972,91.167L84.746,114.5L85.005,114.5L85.78,114.5L86.555,114.5L86.822,114.5L87.072,114.5L87.847,114.5L89.397,114.5L89.657,114.5L89.922,114.5L90.173,114.5L90.431,114.5L90.948,114.5L91.206,114.5L91.469,114.5L91.723,114.5L91.982,114.5L92.499,114.5L92.757,114.5L93.021,114.5L93.273,114.5L93.532,114.5L94.049,114.5L94.307,114.5L94.574,114.5L94.824,114.5L95.082,114.5L95.599,114.5L95.858,114.5L96.124,114.5L96.374,114.5L96.633,114.5L97.149,114.5L97.408,114.5L97.674,114.5L97.924,114.5L98.183,114.5L98.7,83.389L98.958,83.389L99.733,83.389L100.25,83.389L101.8,83.389L102.059,83.389L102.576,83.389L102.834,83.389L103.351,83.389L103.609,83.389L103.874,83.389L104.127,83.389L104.385,83.389L104.901,83.389L105.16,83.389L105.935,83.389L106.452,44.5L106.711,44.5L106.977,44.5L107.227,44.5L107.485,44.5L108.002,44.5L108.261,44.5L108.528,44.5L108.777,44.5L109.036,44.5L109.553,44.5L109.811,44.5L110.077,44.5L110.328,44.5L110.586,44.5L111.103,122.278L111.628,122.278L112.136,122.278L112.912,122.278L113.176,122.278L113.687,122.278L114.204,122.278L114.462,122.278L114.726,122.278L114.979,122.278L115.237,122.278L115.754,44.5L116.013,44.5L116.28,44.5L116.529,44.5L117.304,44.5L117.563,44.5L117.83,44.5L118.08,44.5L118.338,44.5L118.855,44.5L119.113,44.5L119.382,44.5L119.63,44.5L119.888,44.5L120.664,130.056L120.932,130.056L121.18,130.056L121.439,130.056L121.956,130.056L122.989,130.056L123.506,44.5L123.764,44.5L124.03,44.5L125.057,44.5L125.315,44.5L125.58,44.5L125.832,44.5L126.09,44.5L126.607,60.056L126.865,60.056L127.135,106.722L127.382,106.722L127.64,122.278L128.157,122.278L128.416,122.278L128.685,122.278L128.932,122.278L129.191,122.278L129.708,122.278L129.966,122.278L130.235,122.278L130.483,122.278L130.741,122.278L131.258,122.278L131.517,122.278L131.784,122.278L132.033,122.278L132.292,122.278L132.809,122.278L134.617,130.056L134.882,122.278L135.134,122.278L135.392,122.278L135.909,122.278L136.168,122.278L136.433,122.278L136.684,122.278L136.943,122.278L137.46,122.278L138.493,75.611L139.01,44.5L139.268,44.5L139.535,44.5L139.785,44.5L140.044,44.5L140.561,44.5L140.819,44.5L141.087,44.5L141.336,44.5L141.594,44.5L142.111,44.5L142.369,44.5L142.637,44.5L142.886,44.5L143.144,44.5L143.661,44.5L143.92,44.5L144.188,44.5L144.695,44.5L145.212,44.5L145.47,44.5L145.734,44.5L145.987,44.5L146.245,44.5L146.762,44.5L147.02,44.5L147.286,44.5L147.538,44.5L147.796,44.5L148.312,44.5L148.839,44.5L151.672,91.167L151.94,91.167L152.188,91.167L152.447,91.167L152.963,91.167L155.039,91.167L155.29,91.167L156.587,91.167L157.098,91.167L158.138,122.278L158.39,122.278L158.648,122.278L159.165,122.278L159.424,122.278L159.692,122.278L159.94,122.278L160.199,122.278L160.715,91.167L161.242,91.167L161.491,91.167L161.749,91.167L162.266,91.167L164.075,91.167L164.343,91.167L164.592,91.167L164.85,91.167L165.367,91.167L165.625,91.167L165.892,91.167L166.142,91.167L166.4,91.167L166.917,91.167L167.692,91.167L168.726,106.722L168.991,106.722L169.242,106.722L169.501,106.722L170.018,106.722L170.276,106.722L170.544,106.722L170.793,106.722L171.051,106.722L171.568,106.722L171.826,106.722L172.094,106.722L172.344,106.722L172.602,106.722L173.119,106.722L173.377,106.722L173.637,106.722L173.894,106.722L174.152,106.722L174.669,91.167L175.444,91.167L175.703,91.167L176.219,91.167L176.478,91.167L176.744,91.167L176.995,91.167L177.253,91.167L177.77,91.167L178.028,91.167L178.292,91.167L178.545,91.167L178.803,91.167L179.32,91.167L179.579,91.167L179.843,91.167L180.095,91.167L180.354,91.167L180.87,91.167L181.129,91.167L181.395,91.167L181.646,91.167L181.904,91.167L182.421,91.167L182.679,91.167L182.944,91.167L183.196,91.167L183.454,91.167L183.971,91.167L184.23,91.167L184.495,91.167L184.746,91.167L185.005,91.167L185.522,83.389L185.78,83.389L186.045,83.389L186.297,83.389L186.555,83.389L187.072,83.389L187.33,83.389L187.597,83.389L187.848,83.389L188.106,83.389L188.623,83.389L188.881,83.389L189.145,83.389L189.398,83.389L189.656,83.389L190.173,83.389L190.432,83.389L190.696,83.389L190.948,83.389L191.206,83.389L191.723,83.389L191.982,83.389L192.248,83.389L192.498,83.389L192.757,83.389L193.274,83.389L193.532,83.389L193.798,83.389L194.049,83.389L194.307,83.389L194.824,106.722L195.082,106.722L195.349,106.722L195.599,106.722L195.858,106.722L196.375,106.722L196.633,106.722L196.899,106.722L197.15,106.722L197.408,106.722L197.925,106.722L198.183,106.722L198.45,106.722L198.7,106.722L198.958,106.722L199.475,114.5L199.734,114.5L200,114.5" stroke="#54a24b" stroke-width="2"/></g></g><path class="foreground" aria-hidden="true" d="" display="none"/></g><g transform="translate(0,0)"><path class="background" aria-hidden="true" d="M0,0h200v200h-200Z"/><g><g class="mark-line role-mark child_marks" role="graphics-object" aria-roledescription="line mark container"><path aria-label="Time: Dec 18, 2023; Price: 10995; item: K_ESSENTIAL_RAIN_PONCHO_UNISEX_-_Cape_-_black" role="graphics-symbol" aria-roledescription="line mark" d="M170.544,77.833L171.568,77.833L171.826,77.833L172.344,77.833L172.602,77.833L173.119,77.833L173.637,77.833L173.894,77.833L174.152,77.833L175.444,77.833L176.219,77.833L176.478,77.833L176.744,77.833L177.253,77.833L177.77,77.833L178.028,77.833L178.803,77.833L179.32,77.833L179.579,77.833L179.843,77.833L180.095,77.833L180.354,77.833L181.129,77.833L181.904,77.833L182.421,77.833L182.679,77.833L183.454,77.833L184.23,77.833L184.495,77.833L185.005,77.833L185.78,77.833L186.045,77.833L187.072,77.833L187.848,77.833L188.623,77.833L188.881,77.833L189.145,77.833L189.656,77.833L190.696,77.833L190.948,77.833L191.723,77.833L192.248,77.833L192.498,77.833L192.757,77.833L194.049,77.833L194.824,77.833L195.082,77.833L195.599,77.833L195.858,77.833L196.375,77.833L196.899,77.833L197.15,77.833L198.45,77.833L198.7,77.833" stroke="#72b7b2" stroke-width="2"/></g></g><path class="foreground" aria-hidden="true" d="" display="none"/></g><g transform="translate(0,0)"><path class="background" aria-hidden="true" d="M0,0h200v200h-200Z"/><g><g class="mark-line role-mark child_marks" role="graphics-object" aria-roledescription="line mark container"><path aria-label="Time: Dec 18, 2023; Price: 5845; item: PONCHO_-_Peignoir_-_dark_blue" role="graphics-symbol" aria-roledescription="line mark" d="M170.544,135.056L172.602,135.056L176.478,125.056L178.028,125.056L178.803,125.056L180.354,125.056L198.45,130.056" stroke="#ff9da6" stroke-width="2"/></g></g><path class="foreground" aria-hidden="true" d="" display="none"/></g></g><g class="mark-group role-legend" role="graphics-symbol" aria-roledescription="legend" aria-label="Symbol legend titled 'item' for stroke color with 12 values: KUURA_3L_PONCHO_UNISEX_-_Veste_imperméable_-_green, DESCHUTES_VALLEY™_RAIN_PONCHO_-_Parka_-_vista_blue, DESCHUTES_VALLEY™_RAIN_PONCHO_-_Parka_-_black, K_ESSENTIAL_RAIN_PONCHO_UNISEX_-_Cape_-_black, PONCHO_-_Cape_-_lucid_blue, ending with COVERO_PONCHO_II_-_Cape_-_lightgrey"><g transform="translate(220,0)"><path class="background" aria-hidden="true" d="M0,0h328v170h-328Z" pointer-events="none"/><g><g class="mark-group role-legend-entry"><g transform="translate(0,16)"><path class="background" aria-hidden="true" d="M0,0h0v0h0Z" pointer-events="none"/><g><g class="mark-group role-scope" role="graphics-object" aria-roledescription="group mark container"><g transform="translate(0,0)"><path class="background" aria-hidden="true" d="M0,0h328v11h-328Z" pointer-events="none" opacity="1"/><g><g class="mark-symbol role-legend-symbol" pointer-events="none"><path transform="translate(6,6)" d="M-5,0L5,0" stroke="#4c78a8" stroke-width="1.5" opacity="1"/></g><g class="mark-text role-legend-label" pointer-events="none"><text text-anchor="start" transform="translate(16,9)" font-family="Liberation Mono" font-size="10px" fill="#000" opacity="1">KUURA_3L_PONCHO_UNISEX_-_Veste_impermé…</text></g></g><path class="foreground" aria-hidden="true" d="" pointer-events="none" display="none"/></g><g transform="translate(0,13)"><path class="background" aria-hidden="true" d="M0,0h328v11h-328Z" pointer-events="none" opacity="1"/><g><g class="mark-symbol role-legend-symbol" pointer-events="none"><path transform="translate(6,6)" d="M-5,0L5,0" stroke="#f58518" stroke-width="1.5" opacity="1"/></g><g class="mark-text role-legend-label" pointer-events="none"><text text-anchor="start" transform="translate(16,9)" font-family="Liberation Mono" font-size="10px" fill="#000" opacity="1">DESCHUTES_VALLEY™_RAIN_PONCHO_-_Parka_…</text></g></g><path class="foreground" aria-hidden="true" d="" pointer-events="none" display="none"/></g><g transform="translate(0,26)"><path class="background" aria-hidden="true" d="M0,0h328v11h-328Z" pointer-events="none" opacity="1"/><g><g class="mark-symbol role-legend-symbol" pointer-events="none"><path transform="translate(6,6)" d="M-5,0L5,0" stroke="#e45756" stroke-width="1.5" opacity="1"/></g><g class="mark-text role-legend-label" pointer-events="none"><text text-anchor="start" transform="translate(16,9)" font-family="Liberation Mono" font-size="10px" fill="#000" opacity="1">DESCHUTES_VALLEY™_RAIN_PONCHO_-_Parka_…</text></g></g><path class="foreground" aria-hidden="true" d="" pointer-events="none" display="none"/></g><g transform="translate(0,39)"><path class="background" aria-hidden="true" d="M0,0h328v11h-328Z" pointer-events="none" opacity="1"/><g><g class="mark-symbol role-legend-symbol" pointer-events="none"><path transform="translate(6,6)" d="M-5,0L5,0" stroke="#72b7b2" stroke-width="1.5" opacity="1"/></g><g class="mark-text role-legend-label" pointer-events="none"><text text-anchor="start" transform="translate(16,9)" font-family="Liberation Mono" font-size="10px" fill="#000" opacity="1">K_ESSENTIAL_RAIN_PONCHO_UNISEX_-_Cape_…</text></g></g><path class="foreground" aria-hidden="true" d="" pointer-events="none" display="none"/></g><g transform="translate(0,52)"><path class="background" aria-hidden="true" d="M0,0h328v11h-328Z" pointer-events="none" opacity="1"/><g><g class="mark-symbol role-legend-symbol" pointer-events="none"><path transform="translate(6,6)" d="M-5,0L5,0" stroke="#54a24b" stroke-width="1.5" opacity="1"/></g><g class="mark-text role-legend-label" pointer-events="none"><text text-anchor="start" transform="translate(16,9)" font-family="Liberation Mono" font-size="10px" fill="#000" opacity="1">PONCHO_-_Cape_-_lucid_blue</text></g></g><path class="foreground" aria-hidden="true" d="" pointer-events="none" display="none"/></g><g transform="translate(0,65)"><path class="background" aria-hidden="true" d="M0,0h328v11h-328Z" pointer-events="none" opacity="1"/><g><g class="mark-symbol role-legend-symbol" pointer-events="none"><path transform="translate(6,6)" d="M-5,0L5,0" stroke="#eeca3b" stroke-width="1.5" opacity="1"/></g><g class="mark-text role-legend-label" pointer-events="none"><text text-anchor="start" transform="translate(16,9)" font-family="Liberation Mono" font-size="10px" fill="#000" opacity="1">HIKING_BACKPACK_PONCHO_-_Veste_impermé…</text></g></g><path class="foreground" aria-hidden="true" d="" pointer-events="none" display="none"/></g><g transform="translate(0,78)"><path class="background" aria-hidden="true" d="M0,0h328v11h-328Z" pointer-events="none" opacity="1"/><g><g class="mark-symbol role-legend-symbol" pointer-events="none"><path transform="translate(6,6)" d="M-5,0L5,0" stroke="#b279a2" stroke-width="1.5" opacity="1"/></g><g class="mark-text role-legend-label" pointer-events="none"><text text-anchor="start" transform="translate(16,9)" font-family="Liberation Mono" font-size="10px" fill="#000" opacity="1">HIKING_BACKPACK_PONCHO_-_Veste_impermé…</text></g></g><path class="foreground" aria-hidden="true" d="" pointer-events="none" display="none"/></g><g transform="translate(0,91)"><path class="background" aria-hidden="true" d="M0,0h328v11h-328Z" pointer-events="none" opacity="1"/><g><g class="mark-symbol role-legend-symbol" pointer-events="none"><path transform="translate(6,6)" d="M-5,0L5,0" stroke="#ff9da6" stroke-width="1.5" opacity="1"/></g><g class="mark-text role-legend-label" pointer-events="none"><text text-anchor="start" transform="translate(16,9)" font-family="Liberation Mono" font-size="10px" fill="#000" opacity="1">PONCHO_-_Peignoir_-_dark_blue</text></g></g><path class="foreground" aria-hidden="true" d="" pointer-events="none" display="none"/></g><g transform="translate(0,104)"><path class="background" aria-hidden="true" d="M0,0h328v11h-328Z" pointer-events="none" opacity="1"/><g><g class="mark-symbol role-legend-symbol" pointer-events="none"><path transform="translate(6,6)" d="M-5,0L5,0" stroke="#9d755d" stroke-width="1.5" opacity="1"/></g><g class="mark-text role-legend-label" pointer-events="none"><text text-anchor="start" transform="translate(16,9)" font-family="Liberation Mono" font-size="10px" fill="#000" opacity="1">PARIS_ST._GERMAIN_CITY_MADE_PONCHO_-_V…</text></g></g><path class="foreground" aria-hidden="true" d="" pointer-events="none" display="none"/></g><g transform="translate(0,117)"><path class="background" aria-hidden="true" d="M0,0h328v11h-328Z" pointer-events="none" opacity="1"/><g><g class="mark-symbol role-legend-symbol" pointer-events="none"><path transform="translate(6,6)" d="M-5,0L5,0" stroke="#bab0ac" stroke-width="1.5" opacity="1"/></g><g class="mark-text role-legend-label" pointer-events="none"><text text-anchor="start" transform="translate(16,9)" font-family="Liberation Mono" font-size="10px" fill="#000" opacity="1">PSG_M_NSW_CITY_MADE_PONCHO_-_Veste_de_…</text></g></g><path class="foreground" aria-hidden="true" d="" pointer-events="none" display="none"/></g><g transform="translate(0,130)"><path class="background" aria-hidden="true" d="M0,0h328v11h-328Z" pointer-events="none" opacity="1"/><g><g class="mark-symbol role-legend-symbol" pointer-events="none"><path transform="translate(6,6)" d="M-5,0L5,0" stroke="#4c78a8" stroke-width="1.5" opacity="1"/></g><g class="mark-text role-legend-label" pointer-events="none"><text text-anchor="start" transform="translate(16,9)" font-family="Liberation Mono" font-size="10px" fill="#000" opacity="1">SHOWERPROOF_PONCHO_UNISEX_-_Cape_-_cla…</text></g></g><path class="foreground" aria-hidden="true" d="" pointer-events="none" display="none"/></g><g transform="translate(0,143)"><path class="background" aria-hidden="true" d="M0,0h328v11h-328Z" pointer-events="none" opacity="1"/><g><g class="mark-symbol role-legend-symbol" pointer-events="none"><path transform="translate(6,6)" d="M-5,0L5,0" stroke="#f58518" stroke-width="1.5" opacity="1"/></g><g class="mark-text role-legend-label" pointer-events="none"><text text-anchor="start" transform="translate(16,9)" font-family="Liberation Mono" font-size="10px" fill="#000" opacity="1">COVERO_PONCHO_II_-_Cape_-_lightgrey</text></g></g><path class="foreground" aria-hidden="true" d="" pointer-events="none" display="none"/></g></g></g><path class="foreground" aria-hidden="true" d="" pointer-events="none" display="none"/></g></g><g class="mark-text role-legend-title" pointer-events="none"><text text-anchor="start" transform="translate(0,9)" font-family="Liberation Mono" font-size="11px" font-weight="bold" fill="#000" opacity="1">item</text></g></g><path class="foreground" aria-hidden="true" d="" pointer-events="none" display="none"/></g></g></g><path class="foreground" aria-hidden="true" d="" display="none"/></g></g></g><path class="foreground" aria-hidden="true" d="" display="none"/></g></g></g></svg>