<svg xmlns="http://www.w3.org/2000/svg" xmlns:xlink="http://www.w3.org/1999/xlink" version="1.1" class="marks" width="658" height="244" viewBox="0 0 658 244"><rect width="658" height="244" fill="white"/><g fill="none" stroke-miterlimit="10" transform="translate(104,6)"><g class="mark-group role-frame root" role="graphics-object" aria-roledescription="group mark container"><g transform="translate(0,0)"><path class="background" aria-hidden="true" d="M0,0h0v0h0Z"/><g><g class="mark-group role-row-title row-title" role="graphics-object" aria-roledescription="group mark container"><g transform="translate(-78,116)"><path class="background" aria-hidden="true" d="M0,0h0v0h0Z"/><g><g class="mark-group role-title"><g transform="translate(-21.000000000000004,0)"><path class="background" aria-hidden="true" d="M0,0h0v0h0Z" pointer-events="none"/><g><g class="mark-text role-title-text" role="graphics-symbol" aria-roledescription="title" aria-label="Title text 'group'" pointer-events="none"><text text-anchor="middle" transform="translate(0,0) rotate(-90) translate(0,9)" font-family="Liberation Mono" font-size="11px" font-weight="bold" fill="#000" opacity="1">group</text></g></g><path class="foreground" aria-hidden="true" d="" pointer-events="none" display="none"/></g></g></g><path class="foreground" aria-hidden="true" d="" display="none"/></g></g><g class="mark-group role-row-header row_header" role="graphics-object" aria-roledescription="group mark container"><g transform="translate(-47,0)"><path class="background" aria-hidden="true" d="M0,0h0v200h0Z"/><g><g class="mark-group role-title"><g transform="translate(-20.000000000000007,100)"><path class="background" aria-hidden="true" d="M0,0h0v0h0Z" pointer-events="none"/><g><g class="mark-text role-title-text" role="graphics-symbol" aria-roledescription="title" aria-label="Title text 'zalando-poncho'" pointer-events="none"><text text-anchor="middle" transform="translate(0,0) rotate(-90) translate(0,8)" font-family="Liberation Mono" font-size="10px" fill="#000" opacity="1">zalando-poncho</text></g></g><path class="foreground" aria-hidden="true" d="" pointer-events="none" display="none"/></g></g></g><path class="foreground" aria-hidden="true" d="" display="none"/></g></g><g class="mark-group role-scope cell" role="graphics-object" aria-roledescription="group mark container"><g transform="translate(0,0)"><path class="background" aria-hidden="true" d="M0.5,0.5h200v200h-200Z" stroke="#ddd"/><g><g class="mark-group role-axis" aria-hidden="true"><g transform="translate(0.5,200.5)"><path class="background" aria-hidden="true" d="M0,0h0v0h0Z" pointer-events="none"/><g><g class="mark-rule role-axis-grid" pointer-events="none"><line transform="translate(15,-200)" x2="0" y2="200" stroke="#ddd" stroke-width="1" opacity="1"/><line transform="translate(46,-200)" x2="0" y2="200" stroke="#ddd" stroke-width="1" opacity="1"/><line transform="translate(78,-200)" x2="0" y2="200" stroke="#ddd" stroke-width="1" opacity="1"/><line transform="translate(109,-200)" x2="0" y2="200" stroke="#ddd" stroke-width="1" opacity="1"/><line transform="translate(140,-200)" x2="0" y2="200" stroke="#ddd" stroke-width="1" opacity="1"/><line transform="translate(171,-200)" x2="0" y2="200" stroke="#ddd" stroke-width="1" opacity="1"/></g></g><path class="foreground" aria-hidden="true" d="" pointer-events="none" display="none"/></g></g><g class="mark-group role-axis" aria-hidden="true"><g transform="translate(0.5,0.5)"><path class="background" aria-hidden="true" d="M0,0h0v0h0Z" pointer-events="none"/><g><g class="mark-rule role-axis-grid" pointer-events="none"><line transform="translate(0,200)" x2="200" y2="0" stroke="#ddd" stroke-width="1" opacity="1"/><line transform="translate(0,144)" x2="200" y2="0" stroke="#ddd" stroke-width="1" opacity="1"/><line transform="translate(0,89)" x2="200" y2="0" stroke="#ddd" stroke-width="1" opacity="1"/><line transform="translate(0,33)" x2="200" y2="0" stroke="#ddd" stroke-width="1" opacity="1"/></g></g><path class="foreground" aria-hidden="true" d="" pointer-events="none" display="none"/></g></g><g class="mark-group role-axis" role="graphics-symbol" aria-roledescription="axis" aria-label="X-axis titled 'Time' for a time scale with values from Wednesday, 30 August 2023, 12:58:24 PM to Saturday, 14 October 2023, 12:55:40 PM"><g transform="translate(0.5,200.5)"><path class="background" aria-hidden="true" d="M0,0h0v0h0Z" pointer-events="none"/><g><g class="mark-rule role-axis-tick" pointer-events="none"><line transform="translate(15,0)" x2="0" y2="5" stroke="#888" stroke-width="1" opacity="1"/><line transform="translate(46,0)" x2="0" y2="5" stroke="#888" stroke-width="1" opacity="1"/><line transform="translate(78,0)" x2="0" y2="5" stroke="#888" stroke-width="1" opacity="1"/><line transform="translate(109,0)" x2="0" y2="5" stroke="#888" stroke-width="1" opacity="1"/><line transform="translate(140,0)" x2="0" y2="5" stroke="#888" stroke-width="1" opacity="1"/><line transform="translate(171,0)" x2="0" y2="5" stroke="#888" stroke-width="1" opacity="1"/></g><g class="mark-text role-axis-label" pointer-events="none"><text text-anchor="middle" transform="translate(15.375952256004947,15)" font-family="Liberation Mono" font-size="10px" fill="#000" opacity="1">Sep 03</text><text text-anchor="middle" transform="translate(46.488368808264894,15)" font-family="Liberation Mono" font-size="10px" fill="#000" opacity="0">Sep 10</text><text text-anchor="middle" transform="translate(77.60078536052484,15)" font-family="Liberation Mono" font-size="10px" fill="#000" opacity="1">Sep 17</text><text text-anchor="middle" transform="translate(108.7132019127848,15)" font-family="Liberation Mono" font-size="10px" fill="#000" opacity="0">Sep 24</text><text text-anchor="middle" transform="translate(139.82561846504473,15)" font-family="Liberation Mono" font-size="10px" fill="#000" opacity="1">October</text><text text-anchor="middle" transform="translate(170.93803501730466,15)" font-family="Liberation Mono" font-size="10px" fill="#000" opacity="0">Oct 08</text></g><g class="mark-rule role-axis-domain" pointer-events="none"><line transform="translate(0,0)" x2="200" y2="0" stroke="#888" stroke-width="1" opacity="1"/></g><g class="mark-text role-axis-title" pointer-events="none"><text text-anchor="middle" transform="translate(100,30)" font-family="Liberation Mono" font-size="11px" font-weight="bold" fill="#000" opacity="1">Time</text></g></g><path class="foreground" aria-hidden="true" d="" pointer-events="none" display="none"/></g></g><g class="mark-group role-axis" role="graphics-symbol" aria-roledescription="axis" aria-label="Y-axis titled 'Price' for a linear scale with values from 0 to 18,000"><g transform="translate(0.5,0.5)"><path class="background" aria-hidden="true" d="M0,0h0v0h0Z" pointer-events="none"/><g><g class="mark-rule role-axis-tick" pointer-events="none"><line transform="translate(0,200)" x2="-5" y2="0" stroke="#888" stroke-width="1" opacity="1"/><line transform="translate(0,144)" x2="-5" y2="0" stroke="#888" stroke-width="1" opacity="1"/><line transform="translate(0,89)" x2="-5" y2="0" stroke="#888" stroke-width="1" opacity="1"/><line transform="translate(0,33)" x2="-5" y2="0" stroke="#888" stroke-width="1" opacity="1"/></g><g class="mark-text role-axis-label" pointer-events="none"><text text-anchor="end" transform="translate(-7,203)" font-family="Liberation Mono" font-size="10px" fill="#000" opacity="1">0</text><text text-anchor="end" transform="translate(-7,147.44444444444443)" font-family="Liberation Mono" font-size="10px" fill="#000" opacity="1">50</text><text text-anchor="end" transform="translate(-7,91.88888888888889)" font-family="Liberation Mono" font-size="10px" fill="#000" opacity="1">100</text><text text-anchor="end" transform="translate(-7,36.33333333333333)" font-family="Liberation Mono" font-size="10px" fill="#000" opacity="1">150</text></g><g class="mark-rule role-axis-domain" pointer-events="none"><line transform="translate(0,200)" x2="0" y2="-200" stroke="#888" stroke-width="1" opacity="1"/></g><g class="mark-text role-axis-title" pointer-events="none"><text text-anchor="middle" transform="translate(-35,100) rotate(-90) translate(0,-2)" font-family="Liberation Mono" font-size="11px" font-weight="bold" fill="#000" opacity="1">Price</text></g></g><path class="foreground" aria-hidden="true" d="" pointer-events="none" display="none"/></g></g><g class="mark-group role-scope child_pathgroup" role="graphics-object" aria-roledescription="group mark container"><g transform="translate(0,0)"><path class="background" aria-hidden="true" d="M0,0h200v200h-200Z"/><g><g class="mark-line role-mark child_marks" role="graphics-object" aria-roledescription="line mark container"><path aria-label="Time: Aug 30, 2023; Price: 10795; item: DESCHUTES_VALLEY™_RAIN_PONCHO_-_Parka_-_black" role="graphics-symbol" aria-roledescription="line mark" d="M0,80.056L0.722,80.056L1.459,80.056L2.94,80.056L3.68,80.056L4.446,80.056L5.162,80.056L5.902,80.056L7.386,80.056L8.125,80.056L8.889,80.056L9.606,80.056L10.347,80.056L11.829,80.056L12.569,80.056L13.325,80.056L14.05,80.056L14.792,80.056L16.274,80.056L17.546,80.056L17.771,80.056L18.495,80.056L19.237,80.056L20.718,80.056L21.461,80.056L22.226,80.056L22.94,80.056L23.68,80.056L25.167,50.056L25.908,50.056L26.669,50.056L27.386,50.056L28.125,50.056L29.607,50.056L30.348,50.056L31.116,50.056L31.829,50.056L32.571,50.056L34.054,50.056L34.794,50.056L35.557,50.056L36.275,50.056L37.015,50.056L38.963,50.056L39.237,50.056L40,50.056L40.718,50.056L41.459,50.056L42.939,50.056L43.681,50.056L44.437,50.056L45.163,50.056L45.904,50.056L47.386,50.056L48.126,50.056L48.881,50.056L49.607,50.056L50.348,50.056L51.829,50.056L52.57,50.056L53.339,50.056L54.052,50.056L54.792,50.056L56.275,50.056L57.015,50.056L57.781,50.056L58.496,50.056L59.238,50.056L60.72,20.056L61.46,20.056L62.228,20.056L62.619,20.056L62.942,20.056L63.682,20.056L65.164,20.056L65.904,20.056L66.672,20.056L67.387,20.056L68.127,20.056L69.608,20.056L70.349,20.056L71.114,20.056L71.83,20.056L72.571,20.056L74.052,20.056L74.794,20.056L75.547,20.056L76.275,20.056L77.015,20.056L78.497,20.056L79.238,20.056L79.993,20.056L80.719,20.056L81.461,20.056L82.942,20.056L83.683,20.056L84.452,20.056L85.165,20.056L85.906,20.056L87.386,20.056L88.127,20.056L88.895,20.056L89.609,20.056L90.35,20.056L91.83,20.056L92.573,20.056L93.341,20.056L94.054,20.056L94.794,20.056L96.275,20.056L97.016,20.056L97.786,20.056L98.498,20.056L99.239,20.056L100.721,20.056L101.461,20.056L102.227,20.056L102.943,20.056L103.683,20.056L105.165,20.056L105.906,20.056L106.661,20.056L107.388,20.056L108.129,20.056L109.609,20.056L110.351,20.056L111.107,20.056L111.832,20.056L112.572,20.056L114.055,20.056L114.796,20.056L115.565,20.056L116.277,20.056L117.017,20.056L118.499,20.056L119.241,20.056L120.01,20.056L120.721,20.056L121.462,20.056L122.944,40.056L123.684,40.056L124.452,40.056L125.166,40.056L125.908,40.056L127.388,40.056L128.128,40.056L128.897,40.056L129.61,40.056L131.832,40.056L132.573,40.056L133.338,40.056L134.056,40.056L134.796,40.056L136.277,40.056L137.018,40.056L137.774,40.056L138.499,40.056L139.24,40.056L140.722,40.056L141.463,40.056L142.221,40.056L142.944,40.056L143.686,40.056L145.167,100.056L145.908,100.056L146.676,100.056L147.39,100.056L148.13,100.056L149.612,90.056L150.354,90.056L151.122,90.056L151.835,90.056L152.574,90.056L154.055,90.056L154.797,90.056L155.569,90.056L156.279,90.056L157.02,90.056L158.501,90.056L159.241,90.056L160.015,90.056L160.723,90.056L161.465,90.056L162.945,90.056L163.687,90.056L164.456,90.056L165.168,90.056L165.909,90.056L167.39,90.056L168.132,90.056L168.888,90.056L169.612,90.056L170.354,90.056L171.835,90.056L172.575,90.056L174.058,90.056L174.797,90.056L176.279,90.056L177.021,90.056L177.794,90.056L178.502,90.056L179.242,90.056L180.724,100.056L181.465,100.056L182.236,100.056L182.946,100.056L183.687,100.056L185.169,100.056L185.911,100.056L186.679,100.056L187.391,100.056L188.132,100.056L189.613,100.056L190.354,100.056L191.124,100.056L191.836,100.056L192.577,100.056L194.058,100.056L194.799,100.056L195.568,100.056L196.281,100.056L197.021,100.056L198.503,100.056L199.244,100.056L200,100.056" stroke="#72b7b2" stroke-width="2"/></g></g><path class="foreground" aria-hidden="true" d="" display="none"/></g><g transform="translate(0,0)"><path class="background" aria-hidden="true" d="M0,0h200v200h-200Z"/><g><g class="mark-line role-mark child_marks" role="graphics-object" aria-roledescription="line mark container"><path aria-label="Time: Aug 30, 2023; Price: 8995; item: HIKING_BACKPACK_PONCHO_-_Veste_imperméable_-_blue" role="graphics-symbol" aria-roledescription="line mark" d="M0,100.056L0.722,100.056L1.459,100.056L2.94,100.056L3.68,100.056L4.446,100.056L5.162,100.056L5.902,100.056L7.386,100.056L8.125,100.056L8.889,100.056L9.606,100.056L10.347,100.056L11.829,100.056L12.569,100.056L13.325,100.056L14.05,100.056L14.792,100.056L16.274,100.056L17.547,100.056L17.771,100.056L52.57,100.056L53.339,100.056L54.052,100.056L54.792,100.056L56.275,100.056L57.015,100.056L57.781,100.056L58.497,100.056L59.238,100.056L60.72,100.056L61.46,100.056L62.228,100.056L62.619,100.056L62.942,100.056L63.682,100.056L65.164,100.056L65.904,100.056L66.672,100.056L67.387,100.056L68.127,100.056L69.608,100.056L70.349,100.056L71.114,100.056L71.83,100.056L72.571,100.056L74.052,100.056L74.794,100.056L75.547,100.056L76.275,100.056L77.015,100.056L78.497,100.056L79.238,100.056L129.61,111.167L131.833,111.167L132.573,111.167L133.338,111.167L134.056,111.167L134.796,111.167L136.277,111.167L137.018,111.167L137.774,111.167L138.499,111.167L139.24,111.167L140.723,111.167L141.463,111.167L142.221,111.167L142.944,111.167L143.686,111.167L145.167,111.167L145.908,111.167L146.676,111.167L147.39,111.167L148.13,111.167L149.612,127.833L150.354,127.833L151.122,127.833L151.835,127.833L152.574,127.833L154.055,127.833L154.797,127.833L155.569,127.833L156.279,127.833L157.02,127.833L158.501,127.833L159.241,127.833L160.015,127.833L160.723,127.833L161.465,127.833L162.945,127.833L163.687,127.833L164.456,127.833L165.168,127.833L165.91,127.833L167.39,127.833L168.132,127.833L168.888,127.833L169.612,127.833L170.354,127.833L171.835,127.833L172.575,127.833L174.058,127.833L174.797,127.833L176.279,127.833" stroke="#54a24b" stroke-width="2"/></g></g><path class="foreground" aria-hidden="true" d="" display="none"/></g><g transform="translate(0,0)"><path class="background" aria-hidden="true" d="M0,0h200v200h-200Z"/><g><g class="mark-line role-mark child_marks" role="graphics-object" aria-roledescription="line mark container"><path aria-label="Time: Aug 30, 2023; Price: 16195; item: DESCHUTES_VALLEY™_RAIN_PONCHO_-_Parka_-_vista_blue" role="graphics-symbol" aria-roledescription="line mark" d="M0,20.056L0.722,20.056L1.459,20.056L2.94,20.056L3.68,20.056L4.446,20.056L5.162,20.056L5.902,20.056L7.386,20.056L8.125,20.056L8.889,20.056L9.606,20.056L10.347,20.056L11.829,20.056L12.569,20.056L13.325,20.056L14.05,20.056L14.792,20.056L16.274,20.056L17.547,20.056L17.771,20.056L18.495,20.056L19.237,20.056L20.718,20.056L21.461,20.056L22.226,20.056L22.94,20.056L23.68,20.056L25.167,80.056L25.908,80.056L26.669,80.056L27.386,80.056L28.125,80.056L29.607,80.056L30.348,80.056L31.116,80.056L31.829,80.056L32.571,80.056L34.054,80.056L34.794,80.056L35.557,80.056L36.275,80.056L37.015,80.056L38.963,80.056L39.237,80.056L40,80.056L40.718,80.056L41.459,80.056L42.939,80.056L43.681,80.056L44.437,80.056L45.163,80.056L45.904,80.056L47.386,80.056L48.126,80.056L48.881,80.056L49.607,80.056L50.348,80.056L51.829,80.056L52.57,80.056L53.339,80.056L54.052,80.056L54.792,80.056L56.275,80.056L57.015,80.056L57.781,80.056L58.496,80.056L59.238,80.056L60.719,20.056L61.46,20.056L62.228,20.056L62.619,20.056L62.942,20.056L63.682,20.056L65.164,20.056L65.904,20.056L66.672,20.056L67.387,20.056L68.127,20.056L69.608,20.056L70.349,20.056L71.114,20.056L71.83,20.056L72.571,20.056L74.052,20.056L74.794,20.056L75.547,20.056L76.275,20.056L77.015,20.056L78.497,20.056L79.238,20.056L79.993,20.056L80.719,20.056L81.461,20.056L82.942,20.056L83.683,20.056L84.451,20.056L85.165,20.056L85.906,20.056L87.386,20.056L88.127,20.056L88.895,20.056L89.609,20.056L90.35,20.056L91.83,20.056L92.573,20.056L93.341,20.056L94.054,20.056L94.794,20.056L96.275,20.056L97.016,20.056L97.786,20.056L98.498,20.056L99.239,20.056L100.721,20.056L101.461,20.056L102.227,20.056L102.943,20.056L103.683,20.056L105.165,20.056L105.906,20.056L106.661,20.056L107.388,20.056L108.129,20.056L109.609,20.056L110.351,20.056L111.107,20.056L111.832,20.056L112.572,20.056L114.055,20.056L114.796,20.056L115.565,20.056L116.277,20.056L117.017,20.056L118.499,20.056L119.241,20.056L120.01,20.056L120.721,20.056L121.462,20.056L122.944,40.056L123.684,40.056L124.452,40.056L125.166,40.056L125.908,40.056L127.388,40.056L128.128,40.056L128.897,40.056L129.61,40.056L131.832,40.056L132.573,40.056L133.338,40.056L134.056,40.056L134.796,40.056L136.277,40.056L137.018,40.056L137.774,40.056L138.499,40.056L139.24,40.056L140.722,40.056L141.463,40.056L142.221,40.056L142.944,40.056L143.686,40.056L145.167,90.056L145.908,90.056L146.676,90.056L147.39,90.056L148.13,90.056L149.612,40.056L150.354,40.056L151.122,40.056L151.834,40.056L152.574,40.056L154.055,40.056L154.797,40.056L155.569,40.056L156.279,40.056L157.02,40.056L158.501,40.056L159.241,40.056L160.015,40.056L160.723,40.056L161.465,40.056L162.945,40.056L163.687,40.056L164.456,40.056L165.168,40.056L165.909,40.056L167.39,40.056L168.132,40.056L168.888,40.056L169.612,40.056L170.354,40.056L171.835,40.056L172.575,40.056L174.058,40.056L174.797,40.056L176.279,40.056L177.021,40.056L177.794,40.056L178.502,40.056L179.242,40.056L180.724,90.056L181.465,90.056L182.236,90.056L182.946,90.056L183.687,90.056L185.169,90.056L185.911,90.056L186.679,90.056L187.391,90.056L188.132,90.056L189.613,90.056L190.354,90.056L191.124,90.056L191.836,90.056L192.577,90.056L194.058,90.056L194.799,90.056L195.568,90.056L196.281,90.056L197.021,90.056L198.503,40.056L199.244,40.056L200,40.056" stroke="#f58518" stroke-width="2"/></g></g><path class="foreground" aria-hidden="true" d="" display="none"/></g><g transform="translate(0,0)"><path class="background" aria-hidden="true" d="M0,0h200v200h-200Z"/><g><g class="mark-line role-mark child_marks" role="graphics-object" aria-roledescription="line mark container"><path aria-label="Time: Aug 30, 2023; Price: 5495; item: COVERO_PONCHO_II_-_Cape_-_lightgrey" role="graphics-symbol" aria-roledescription="line mark" d="M0,138.944L0.722,138.944L1.459,138.944L2.94,138.944L3.68,138.944L4.446,138.944L5.162,138.944L5.902,138.944L7.386,138.944L8.125,138.944L12.569,138.944L13.325,138.944L14.05,138.944L14.792,138.944L16.274,138.944L17.547,138.944L17.771,138.944L18.495,138.944L19.237,138.944L20.718,138.944L21.461,138.944L22.226,138.944L22.94,138.944L23.68,138.944L25.167,138.944L25.908,138.944L26.669,138.944L27.386,138.944L28.125,138.944L40.718,153.944L48.126,138.944L48.881,138.944L49.607,138.944L50.348,138.944L51.829,138.944L52.57,138.944L53.339,138.944L54.052,138.944L54.792,138.944L56.275,138.944L57.015,138.944L57.781,138.944L58.497,138.944L59.238,138.944L60.72,138.944L61.46,138.944L62.228,138.944L62.619,138.944L62.942,138.944L63.683,138.944L65.164,138.944L65.904,138.944L66.672,138.944L67.387,138.944L68.127,138.944L69.608,138.944L70.349,138.944L71.114,138.944L71.83,138.944L72.571,138.944L74.052,138.944L74.794,138.944L75.547,138.944L76.275,138.944L77.015,138.944L78.497,138.944L79.238,138.944L79.993,138.944L80.719,138.944L81.461,138.944L82.942,138.944L83.683,138.944L84.452,138.944L85.165,138.944L85.906,138.944L87.386,138.944L88.127,138.944L88.895,138.944L89.609,138.944L90.35,138.944L91.83,151.167L92.573,151.167L93.341,151.167L94.054,151.167L94.794,151.167L96.275,151.167L97.016,151.167L97.786,151.167L98.498,151.167L99.239,151.167L100.721,151.167L101.461,151.167L102.227,151.167L105.906,151.167L106.661,151.167L107.388,151.167L108.129,151.167L109.609,151.167L110.351,151.167L111.107,151.167L111.832,151.167L112.572,151.167L114.055,151.167L114.796,151.167L115.565,151.167L116.277,151.167L117.017,151.167L118.499,151.167L119.241,151.167L120.01,151.167L120.721,151.167L121.462,151.167L122.944,151.167L123.684,151.167L124.452,151.167L125.166,151.167L125.908,151.167L127.388,151.167L128.129,151.167L128.897,151.167L129.61,151.167L131.833,151.167L132.573,151.167L133.338,151.167L134.056,151.167L134.796,151.167L136.277,151.167L137.018,151.167L137.774,151.167L138.499,151.167L139.24,151.167L140.723,151.167L141.463,151.167L142.221,151.167L142.944,151.167L143.686,151.167L145.167,151.167L145.908,151.167L146.676,151.167L147.39,151.167L148.13,151.167L149.612,151.167L150.354,151.167L151.122,151.167L151.835,151.167L152.574,151.167L154.055,151.167L154.797,151.167L155.569,151.167L156.279,151.167L157.02,151.167L158.501,151.167L159.241,151.167L160.015,151.167L160.723,151.167L161.465,151.167L162.945,151.167L163.687,151.167L164.456,151.167L165.168,151.167L165.91,151.167L168.132,151.167L168.888,151.167L171.835,151.167L172.575,151.167L174.058,151.167L174.797,151.167L178.502,151.167L179.242,151.167L180.725,151.167L181.465,151.167L182.236,151.167L183.687,151.167L185.169,138.944L185.911,138.944L186.679,138.944L187.391,138.944L188.132,138.944L196.281,138.944" stroke="#bab0ac" stroke-width="2"/></g></g><path class="foreground" aria-hidden="true" d="" display="none"/></g><g transform="translate(0,0)"><path class="background" aria-hidden="true" d="M0,0h200v200h-200Z"/><g><g class="mark-line role-mark child_marks" role="graphics-object" aria-roledescription="line mark container"><path aria-label="Time: Sep 01, 2023; Price: 12995; item: KUURA_3L_PONCHO_UNISEX_-_Veste_imperméable_-_green" role="graphics-symbol" aria-roledescription="line mark" d="M10.347,55.611L11.829,55.611L12.569,55.611L13.325,55.611L21.461,55.611L22.226,55.611L22.94,55.611L23.68,55.611L25.167,11.167L25.908,11.167L26.669,11.167L27.386,11.167L28.125,11.167L29.607,11.167L30.348,11.167L31.116,11.167L31.829,11.167L32.571,11.167L34.054,11.167L34.794,11.167L35.557,11.167L36.275,11.167L37.015,11.167L38.963,11.167L39.237,11.167L40,11.167L40.718,11.167L41.459,11.167L42.939,11.167L43.681,11.167L44.437,11.167L45.163,11.167L45.904,11.167L47.386,11.167L48.126,11.167L48.881,11.167L49.607,11.167L50.348,11.167L51.829,11.167L52.57,11.167L53.339,11.167L54.052,11.167L56.275,11.167L57.015,11.167L57.781,11.167L58.496,11.167L59.238,11.167L75.547,22.278L76.275,22.278L77.015,22.278L78.497,22.278L79.238,22.278L79.993,22.278L80.719,22.278L81.461,22.278L82.942,22.278L83.683,22.278L84.452,22.278L88.127,22.278L88.895,22.278L89.609,22.278L90.35,22.278L91.83,22.278L92.573,22.278L151.835,22.278L152.574,22.278L154.055,22.278L154.797,22.278L155.569,22.278L156.279,22.278L157.02,22.278L158.501,22.278L159.241,22.278L160.015,22.278L160.723,22.278L161.465,22.278L162.945,22.278L163.687,22.278L164.456,22.278L165.168,22.278L165.909,22.278L167.39,22.278L168.132,22.278L168.888,22.278L169.612,22.278L170.354,22.278" stroke="#4c78a8" stroke-width="2"/></g></g><path class="foreground" aria-hidden="true" d="" display="none"/></g><g transform="translate(0,0)"><path class="background" aria-hidden="true" d="M0,0h200v200h-200Z"/><g><g class="mark-line role-mark child_marks" role="graphics-object" aria-roledescription="line mark container"><path aria-label="Time: Sep 14, 2023; Price: 6495; item: PARIS_ST._GERMAIN_CITY_MADE_PONCHO_-_Veste_de_survêtement_-_aura_white" role="graphics-symbol" aria-roledescription="line mark" d="M65.164,127.833L65.904,127.833L66.672,127.833L67.387,127.833L68.127,127.833L69.608,127.833L70.349,127.833L74.052,127.833L79.238,127.833L79.994,127.833L80.719,127.833L81.461,127.833L82.942,127.833L83.683,127.833L84.452,127.833L85.165,127.833L85.906,127.833L87.386,127.833L88.127,127.833L88.895,127.833L89.609,127.833L90.35,127.833L91.83,127.833L92.573,127.833L93.341,127.833L94.054,127.833L94.794,127.833L96.275,127.833L97.016,127.833L97.786,127.833L98.498,127.833L99.239,127.833L100.721,127.833L101.461,127.833L102.227,127.833L102.943,127.833L103.683,127.833L105.165,127.833L105.906,127.833L106.661,127.833L107.388,127.833L108.129,127.833L109.609,127.833L110.351,127.833L111.107,127.833L111.832,127.833L112.572,127.833L114.055,127.833L114.796,127.833L115.565,127.833L116.277,127.833L117.017,127.833L118.499,127.833L119.241,127.833L120.01,127.833" stroke="#b279a2" stroke-width="2"/></g></g><path class="foreground" aria-hidden="true" d="" display="none"/></g><g transform="translate(0,0)"><path class="background" aria-hidden="true" d="M0,0h200v200h-200Z"/><g><g class="mark-line role-mark child_marks" role="graphics-object" aria-roledescription="line mark container"><path aria-label="Time: Sep 18, 2023; Price: 8995; item: HIKING_BACKPACK_PONCHO_-_Veste_imperméable_-_indian_red" role="graphics-symbol" aria-roledescription="line mark" d="M82.942,100.056L83.683,100.056L84.452,100.056L85.165,100.056L85.906,100.056L87.386,100.056L88.127,100.056L116.277,100.056L117.017,100.056L118.499,100.056L119.241,100.056L120.01,100.056L120.721,100.056L121.462,100.056L122.944,111.167L123.684,111.167L124.452,111.167L125.166,111.167L195.568,111.167L196.281,111.167L197.021,111.167L198.503,111.167L199.244,111.167L200,111.167" stroke="#eeca3b" stroke-width="2"/></g></g><path class="foreground" aria-hidden="true" d="" display="none"/></g><g transform="translate(0,0)"><path class="background" aria-hidden="true" d="M0,0h200v200h-200Z"/><g><g class="mark-line role-mark child_marks" role="graphics-object" aria-roledescription="line mark container"><path aria-label="Time: Sep 26, 2023; Price: 6495; item: PSG_M_NSW_CITY_MADE_PONCHO_-_Veste_de_survêtement_-_aura_white" role="graphics-symbol" aria-roledescription="line mark" d="M120.721,127.833L121.462,127.833L122.944,91.167L123.684,91.167L124.452,91.167L125.166,91.167L125.908,91.167L127.388,91.167L128.129,91.167L128.897,91.167L129.61,91.167L131.833,91.167L132.573,91.167L133.338,91.167L134.056,91.167L134.796,91.167L136.277,91.167L137.018,91.167L137.774,91.167L138.499,91.167L139.24,91.167L140.723,91.167L141.463,91.167L142.221,91.167L142.944,91.167L143.686,91.167L145.167,127.833L145.908,127.833L146.676,127.833L147.39,127.833L148.13,127.833L149.612,127.833L150.354,127.833L151.122,127.833L151.835,127.833L152.574,127.833L154.055,127.833L154.797,127.833L155.569,127.833L156.279,127.833L157.02,127.833L158.501,127.833L159.241,127.833L160.015,127.833L160.723,127.833L161.465,127.833L162.945,127.833L163.687,127.833L164.456,127.833L165.168,127.833L165.91,127.833L167.39,127.833L168.132,127.833L168.888,127.833L169.612,127.833L170.354,127.833L171.835,127.833L172.575,127.833L174.058,127.833L174.797,127.833L176.279,127.833L177.021,127.833L177.794,127.833L178.502,127.833L179.242,127.833L180.725,84.5L181.465,84.5L182.236,84.5L183.687,84.5L185.169,84.5L185.911,84.5L186.679,84.5L187.391,84.5L188.132,84.5L189.613,84.5L190.354,84.5L194.058,84.5L196.281,84.5" stroke="#ff9da6" stroke-width="2"/></g></g><path class="foreground" aria-hidden="true" d="" display="none"/></g><g transform="translate(0,0)"><path class="background" aria-hidden="true" d="M0,0h200v200h-200Z"/><g><g class="mark-line role-mark child_marks" role="graphics-object" aria-roledescription="line mark container"><path aria-label="Time: Oct 12, 2023; Price: 4995; item: SHOWERPROOF_PONCHO_UNISEX_-_Cape_-_classic_tartan" role="graphics-symbol" aria-roledescription="line mark" d="M189.613,144.5L190.354,144.5L191.124,144.5L191.836,144.5L192.577,144.5L194.058,144.5L194.799,144.5L195.568,144.5L196.281,144.5L197.021,144.5L198.503,144.5L199.244,144.5L200,144.5" stroke="#9d755d" stroke-width="2"/></g></g><path class="foreground" aria-hidden="true" d="" display="none"/></g><g transform="translate(0,0)"><path class="background" aria-hidden="true" d="M0,0h200v200h-200Z"/><g><g class="mark-line role-mark child_marks" role="graphics-object" aria-roledescription="line mark container"><path aria-label="Time: Oct 12, 2023; Price: 13995; item: PONCHO_-_Cape_-_lucid_blue" role="graphics-symbol" aria-roledescription="line mark" d="M189.613,44.5L194.799,44.5L196.281,44.5L198.503,91.167" stroke="#e45756" stroke-width="2"/></g></g><path class="foreground" aria-hidden="true" d="" display="none"/></g></g><g class="mark-group role-legend" role="graphics-symbol" aria-roledescription="legend" aria-label="Symbol legend titled 'item' for stroke color with 10 values: KUURA_3L_PONCHO_UNISEX_-_Veste_imperméable_-_green, DESCHUTES_VALLEY™_RAIN_PONCHO_-_Parka_-_vista_blue, PONCHO_-_Cape_-_lucid_blue, DESCHUTES_VALLEY™_RAIN_PONCHO_-_Parka_-_black, HIKING_BACKPACK_PONCHO_-_Veste_imperméable_-_blue, ending with COVERO_PONCHO_II_-_Cape_-_lightgrey"><g transform="translate(220,0)"><path class="background" aria-hidden="true" d="M0,0h328v144h-328Z" pointer-events="none"/><g><g class="mark-group role-legend-entry"><g transform="translate(0,16)"><path class="background" aria-hidden="true" d="M0,0h0v0h0Z" pointer-events="none"/><g><g class="mark-group role-scope" role="graphics-object" aria-roledescription="group mark container"><g transform="translate(0,0)"><path class="background" aria-hidden="true" d="M0,0h328v11h-328Z" pointer-events="none" opacity="1"/><g><g class="mark-symbol role-legend-symbol" pointer-events="none"><path transform="translate(6,6)" d="M-5,0L5,0" stroke="#4c78a8" stroke-width="1.5" opacity="1"/></g><g class="mark-text role-legend-label" pointer-events="none"><text text-anchor="start" transform="translate(16,9)" font-family="Liberation Mono" font-size="10px" fill="#000" opacity="1">KUURA_3L_PONCHO_UNISEX_-_Veste_impermé…</text></g></g><path class="foreground" aria-hidden="true" d="" pointer-events="none" display="none"/></g><g transform="translate(0,13)"><path class="background" aria-hidden="true" d="M0,0h328v11h-328Z" pointer-events="none" opacity="1"/><g><g class="mark-symbol role-legend-symbol" pointer-events="none"><path transform="translate(6,6)" d="M-5,0L5,0" stroke="#f58518" stroke-width="1.5" opacity="1"/></g><g class="mark-text role-legend-label" pointer-events="none"><text text-anchor="start" transform="translate(16,9)" font-family="Liberation Mono" font-size="10px" fill="#000" opacity="1">DESCHUTES_VALLEY™_RAIN_PONCHO_-_Parka_…</text></g></g><path class="foreground" aria-hidden="true" d="" pointer-events="none" display="none"/></g><g transform="translate(0,26)"><path class="background" aria-hidden="true" d="M0,0h328v11h-328Z" pointer-events="none" opacity="1"/><g><g class="mark-symbol role-legend-symbol" pointer-events="none"><path transform="translate(6,6)" d="M-5,0L5,0" stroke="#e45756" stroke-width="1.5" opacity="1"/></g><g class="mark-text role-legend-label" pointer-events="none"><text text-anchor="start" transform="translate(16,9)" font-family="Liberation Mono" font-size="10px" fill="#000" opacity="1">PONCHO_-_Cape_-_lucid_blue</text></g></g><path class="foreground" aria-hidden="true" d="" pointer-events="none" display="none"/></g><g transform="translate(0,39)"><path class="background" aria-hidden="true" d="M0,0h328v11h-328Z" pointer-events="none" opacity="1"/><g><g class="mark-symbol role-legend-symbol" pointer-events="none"><path transform="translate(6,6)" d="M-5,0L5,0" stroke="#72b7b2" stroke-width="1.5" opacity="1"/></g><g class="mark-text role-legend-label" pointer-events="none"><text text-anchor="start" transform="translate(16,9)" font-family="Liberation Mono" font-size="10px" fill="#000" opacity="1">DESCHUTES_VALLEY™_RAIN_PONCHO_-_Parka_…</text></g></g><path class="foreground" aria-hidden="true" d="" pointer-events="none" display="none"/></g><g transform="translate(0,52)"><path class="background" aria-hidden="true" d="M0,0h328v11h-328Z" pointer-events="none" opacity="1"/><g><g class="mark-symbol role-legend-symbol" pointer-events="none"><path transform="translate(6,6)" d="M-5,0L5,0" stroke="#54a24b" stroke-width="1.5" opacity="1"/></g><g class="mark-text role-legend-label" pointer-events="none"><text text-anchor="start" transform="translate(16,9)" font-family="Liberation Mono" font-size="10px" fill="#000" opacity="1">HIKING_BACKPACK_PONCHO_-_Veste_impermé…</text></g></g><path class="foreground" aria-hidden="true" d="" pointer-events="none" display="none"/></g><g transform="translate(0,65)"><path class="background" aria-hidden="true" d="M0,0h328v11h-328Z" pointer-events="none" opacity="1"/><g><g class="mark-symbol role-legend-symbol" pointer-events="none"><path transform="translate(6,6)" d="M-5,0L5,0" stroke="#eeca3b" stroke-width="1.5" opacity="1"/></g><g class="mark-text role-legend-label" pointer-events="none"><text text-anchor="start" transform="translate(16,9)" font-family="Liberation Mono" font-size="10px" fill="#000" opacity="1">HIKING_BACKPACK_PONCHO_-_Veste_impermé…</text></g></g><path class="foreground" aria-hidden="true" d="" pointer-events="none" display="none"/></g><g transform="translate(0,78)"><path class="background" aria-hidden="true" d="M0,0h328v11h-328Z" pointer-events="none" opacity="1"/><g><g class="mark-symbol role-legend-symbol" pointer-events="none"><path transform="translate(6,6)" d="M-5,0L5,0" stroke="#b279a2" stroke-width="1.5" opacity="1"/></g><g class="mark-text role-legend-label" pointer-events="none"><text text-anchor="start" transform="translate(16,9)" font-family="Liberation Mono" font-size="10px" fill="#000" opacity="1">PARIS_ST._GERMAIN_CITY_MADE_PONCHO_-_V…</text></g></g><path class="foreground" aria-hidden="true" d="" pointer-events="none" display="none"/></g><g transform="translate(0,91)"><path class="background" aria-hidden="true" d="M0,0h328v11h-328Z" pointer-events="none" opacity="1"/><g><g class="mark-symbol role-legend-symbol" pointer-events="none"><path transform="translate(6,6)" d="M-5,0L5,0" stroke="#ff9da6" stroke-width="1.5" opacity="1"/></g><g class="mark-text role-legend-label" pointer-events="none"><text text-anchor="start" transform="translate(16,9)" font-family="Liberation Mono" font-size="10px" fill="#000" opacity="1">PSG_M_NSW_CITY_MADE_PONCHO_-_Veste_de_…</text></g></g><path class="foreground" aria-hidden="true" d="" pointer-events="none" display="none"/></g><g transform="translate(0,104)"><path class="background" aria-hidden="true" d="M0,0h328v11h-328Z" pointer-events="none" opacity="1"/><g><g class="mark-symbol role-legend-symbol" pointer-events="none"><path transform="translate(6,6)" d="M-5,0L5,0" stroke="#9d755d" stroke-width="1.5" opacity="1"/></g><g class="mark-text role-legend-label" pointer-events="none"><text text-anchor="start" transform="translate(16,9)" font-family="Liberation Mono" font-size="10px" fill="#000" opacity="1">SHOWERPROOF_PONCHO_UNISEX_-_Cape_-_cla…</text></g></g><path class="foreground" aria-hidden="true" d="" pointer-events="none" display="none"/></g><g transform="translate(0,117)"><path class="background" aria-hidden="true" d="M0,0h328v11h-328Z" pointer-events="none" opacity="1"/><g><g class="mark-symbol role-legend-symbol" pointer-events="none"><path transform="translate(6,6)" d="M-5,0L5,0" stroke="#bab0ac" stroke-width="1.5" opacity="1"/></g><g class="mark-text role-legend-label" pointer-events="none"><text text-anchor="start" transform="translate(16,9)" font-family="Liberation Mono" font-size="10px" fill="#000" opacity="1">COVERO_PONCHO_II_-_Cape_-_lightgrey</text></g></g><path class="foreground" aria-hidden="true" d="" pointer-events="none" display="none"/></g></g></g><path class="foreground" aria-hidden="true" d="" pointer-events="none" display="none"/></g></g><g class="mark-text role-legend-title" pointer-events="none"><text text-anchor="start" transform="translate(0,9)" font-family="Liberation Mono" font-size="11px" font-weight="bold" fill="#000" opacity="1">item</text></g></g><path class="foreground" aria-hidden="true" d="" pointer-events="none" display="none"/></g></g></g><path class="foreground" aria-hidden="true" d="" display="none"/></g></g></g><path class="foreground" aria-hidden="true" d="" display="none"/></g></g></g></svg>