<svg xmlns="http://www.w3.org/2000/svg" xmlns:xlink="http://www.w3.org/1999/xlink" version="1.1" class="marks" width="658" height="244" viewBox="0 0 658 244"><rect width="658" height="244" fill="white"/><g fill="none" stroke-miterlimit="10" transform="translate(104,6)"><g class="mark-group role-frame root" role="graphics-object" aria-roledescription="group mark container"><g transform="translate(0,0)"><path class="background" aria-hidden="true" d="M0,0h0v0h0Z"/><g><g class="mark-group role-row-title row-title" role="graphics-object" aria-roledescription="group mark container"><g transform="translate(-78,116)"><path class="background" aria-hidden="true" d="M0,0h0v0h0Z"/><g><g class="mark-group role-title"><g transform="translate(-21.000000000000004,0)"><path class="background" aria-hidden="true" d="M0,0h0v0h0Z" pointer-events="none"/><g><g class="mark-text role-title-text" role="graphics-symbol" aria-roledescription="title" aria-label="Title text 'group'" pointer-events="none"><text text-anchor="middle" transform="translate(0,0) rotate(-90) translate(0,9)" font-family="Liberation Mono" font-size="11px" font-weight="bold" fill="#000" opacity="1">group</text></g></g><path class="foreground" aria-hidden="true" d="" pointer-events="none" display="none"/></g></g></g><path class="foreground" aria-hidden="true" d="" display="none"/></g></g><g class="mark-group role-row-header row_header" role="graphics-object" aria-roledescription="group mark container"><g transform="translate(-47,0)"><path class="background" aria-hidden="true" d="M0,0h0v200h0Z"/><g><g class="mark-group role-title"><g transform="translate(-20.000000000000007,100)"><path class="background" aria-hidden="true" d="M0,0h0v0h0Z" pointer-events="none"/><g><g class="mark-text role-title-text" role="graphics-symbol" aria-roledescription="title" aria-label="Title text 'zalando-poncho'" pointer-events="none"><text text-anchor="middle" transform="translate(0,0) rotate(-90) translate(0,8)" font-family="Liberation Mono" font-size="10px" fill="#000" opacity="1">zalando-poncho</text></g></g><path class="foreground" aria-hidden="true" d="" pointer-events="none" display="none"/></g></g></g><path class="foreground" aria-hidden="true" d="" display="none"/></g></g><g class="mark-group role-scope cell" role="graphics-object" aria-roledescription="group mark container"><g transform="translate(0,0)"><path class="background" aria-hidden="true" d="M0.5,0.5h200v200h-200Z" stroke="#ddd"/><g><g class="mark-group role-axis" aria-hidden="true"><g transform="translate(0.5,200.5)"><path class="background" aria-hidden="true" d="M0,0h0v0h0Z" pointer-events="none"/><g><g class="mark-rule role-axis-grid" pointer-events="none"><line transform="translate(3,-200)" x2="0" y2="200" stroke="#ddd" stroke-width="1" opacity="1"/><line transform="translate(66,-200)" x2="0" y2="200" stroke="#ddd" stroke-width="1" opacity="1"/><line transform="translate(131,-200)" x2="0" y2="200" stroke="#ddd" stroke-width="1" opacity="1"/><line transform="translate(194,-200)" x2="0" y2="200" stroke="#ddd" stroke-width="1" opacity="1"/></g></g><path class="foreground" aria-hidden="true" d="" pointer-events="none" display="none"/></g></g><g class="mark-group role-axis" aria-hidden="true"><g transform="translate(0.5,0.5)"><path class="background" aria-hidden="true" d="M0,0h0v0h0Z" pointer-events="none"/><g><g class="mark-rule role-axis-grid" pointer-events="none"><line transform="translate(0,200)" x2="200" y2="0" stroke="#ddd" stroke-width="1" opacity="1"/><line transform="translate(0,144)" x2="200" y2="0" stroke="#ddd" stroke-width="1" opacity="1"/><line transform="translate(0,89)" x2="200" y2="0" stroke="#ddd" stroke-width="1" opacity="1"/><line transform="translate(0,33)" x2="200" y2="0" stroke="#ddd" stroke-width="1" opacity="1"/></g></g><path class="foreground" aria-hidden="true" d="" pointer-events="none" display="none"/></g></g><g class="mark-group role-axis" role="graphics-symbol" aria-roledescription="axis" aria-label="X-axis titled 'Time' for a time scale with values from Wednesday, 30 August 2023, 12:58:24 PM to Sunday, 03 December 2023, 8:50:19 PM"><g transform="translate(0.5,200.5)"><path class="background" aria-hidden="true" d="M0,0h0v0h0Z" pointer-events="none"/><g><g class="mark-rule role-axis-tick" pointer-events="none"><line transform="translate(3,0)" x2="0" y2="5" stroke="#888" stroke-width="1" opacity="1"/><line transform="translate(66,0)" x2="0" y2="5" stroke="#888" stroke-width="1" opacity="1"/><line transform="translate(131,0)" x2="0" y2="5" stroke="#888" stroke-width="1" opacity="1"/><line transform="translate(194,0)" x2="0" y2="5" stroke="#888" stroke-width="1" opacity="1"/></g><g class="mark-text role-axis-label" pointer-events="none"><text text-anchor="middle" transform="translate(3.0619511173780167,15)" font-family="Liberation Mono" font-size="10px" fill="#000" opacity="1">September</text><text text-anchor="middle" transform="translate(66.0027199321452,15)" font-family="Liberation Mono" font-size="10px" fill="#000" opacity="0">October</text><text text-anchor="middle" transform="translate(131.0415143740713,15)" font-family="Liberation Mono" font-size="10px" fill="#000" opacity="0">November</text><text text-anchor="middle" transform="translate(193.9822831888385,15)" font-family="Liberation Mono" font-size="10px" fill="#000" opacity="1">December</text></g><g class="mark-rule role-axis-domain" pointer-events="none"><line transform="translate(0,0)" x2="200" y2="0" stroke="#888" stroke-width="1" opacity="1"/></g><g class="mark-text role-axis-title" pointer-events="none"><text text-anchor="middle" transform="translate(100,30)" font-family="Liberation Mono" font-size="11px" font-weight="bold" fill="#000" opacity="1">Time</text></g></g><path class="foreground" aria-hidden="true" d="" pointer-events="none" display="none"/></g></g><g class="mark-group role-axis" role="graphics-symbol" aria-roledescription="axis" aria-label="Y-axis titled 'Price' for a linear scale with values from 0 to 18,000"><g transform="translate(0.5,0.5)"><path class="background" aria-hidden="true" d="M0,0h0v0h0Z" pointer-events="none"/><g><g class="mark-rule role-axis-tick" pointer-events="none"><line transform="translate(0,200)" x2="-5" y2="0" stroke="#888" stroke-width="1" opacity="1"/><line transform="translate(0,144)" x2="-5" y2="0" stroke="#888" stroke-width="1" opacity="1"/><line transform="translate(0,89)" x2="-5" y2="0" stroke="#888" stroke-width="1" opacity="1"/><line transform="translate(0,33)" x2="-5" y2="0" stroke="#888" stroke-width="1" opacity="1"/></g><g class="mark-text role-axis-label" pointer-events="none"><text text-anchor="end" transform="translate(-7,203)" font-family="Liberation Mono" font-size="10px" fill="#000" opacity="1">0</text><text text-anchor="end" transform="translate(-7,147.44444444444443)" font-family="Liberation Mono" font-size="10px" fill="#000" opacity="1">50</text><text text-anchor="end" transform="translate(-7,91.88888888888889)" font-family="Liberation Mono" font-size="10px" fill="#000" opacity="1">100</text><text text-anchor="end" transform="translate(-7,36.33333333333333)" font-family="Liberation Mono" font-size="10px" fill="#000" opacity="1">150</text></g><g class="mark-rule role-axis-domain" pointer-events="none"><line transform="translate(0,200)" x2="0" y2="-200" stroke="#888" stroke-width="1" opacity="1"/></g><g class="mark-text role-axis-title" pointer-events="none"><text text-anchor="middle" transform="translate(-35,100) rotate(-90) translate(0,-2)" font-family="Liberation Mono" font-size="11px" font-weight="bold" fill="#000" opacity="1">Price</text></g></g><path class="foreground" aria-hidden="true" d="" pointer-events="none" display="none"/></g></g><g class="mark-group role-scope child_pathgroup" role="graphics-object" aria-roledescription="group mark container"><g transform="translate(0,0)"><path class="background" aria-hidden="true" d="M0,0h200v200h-200Z"/><g><g class="mark-line role-mark child_marks" role="graphics-object" aria-roledescription="line mark container"><path aria-label="Time: Aug 30, 2023; Price: 10795; item: DESCHUTES_VALLEY™_RAIN_PONCHO_-_Parka_-_black" role="graphics-symbol" aria-roledescription="line mark" d="M0,80.056L0.341,80.056L0.689,80.056L1.388,80.056L1.737,80.056L2.099,80.056L2.437,80.056L2.786,80.056L3.487,80.056L3.835,80.056L4.196,80.056L4.534,80.056L4.884,80.056L5.584,80.056L5.933,80.056L6.29,80.056L6.632,80.056L6.982,80.056L7.682,80.056L8.283,80.056L8.389,80.056L8.731,80.056L9.08,80.056L9.78,80.056L10.13,80.056L10.491,80.056L10.828,80.056L11.178,80.056L11.88,50.056L12.23,50.056L12.589,50.056L12.927,50.056L13.276,50.056L13.976,50.056L14.325,50.056L14.688,50.056L15.025,50.056L15.374,50.056L16.075,50.056L16.424,50.056L16.784,50.056L17.123,50.056L17.473,50.056L18.392,50.056L18.521,50.056L18.882,50.056L19.22,50.056L19.57,50.056L20.269,50.056L20.619,50.056L20.976,50.056L21.319,50.056L21.668,50.056L22.368,50.056L22.717,50.056L23.074,50.056L23.416,50.056L23.766,50.056L24.465,50.056L24.815,50.056L25.178,50.056L25.514,50.056L25.864,50.056L26.564,50.056L26.913,50.056L27.275,50.056L27.612,50.056L27.962,50.056L28.662,20.056L29.011,20.056L29.374,20.056L29.558,20.056L29.711,20.056L30.06,20.056L30.76,20.056L31.109,20.056L31.472,20.056L31.809,20.056L32.158,20.056L32.857,20.056L33.207,20.056L33.568,20.056L33.906,20.056L34.256,20.056L34.955,20.056L35.305,20.056L35.661,20.056L36.005,20.056L36.354,20.056L37.053,20.056L37.403,20.056L37.76,20.056L38.102,20.056L38.452,20.056L39.152,20.056L39.501,20.056L39.864,20.056L40.201,20.056L40.551,20.056L41.249,20.056L41.599,20.056L41.962,20.056L42.298,20.056L42.648,20.056L43.347,20.056L43.698,20.056L44.06,20.056L44.397,20.056L44.746,20.056L45.445,20.056L45.795,20.056L46.158,20.056L46.495,20.056L46.845,20.056L47.544,20.056L47.893,20.056L48.255,20.056L48.593,20.056L48.942,20.056L49.642,20.056L49.991,20.056L50.348,20.056L50.691,20.056L51.041,20.056L51.74,20.056L52.09,20.056L52.446,20.056L52.789,20.056L53.138,20.056L53.838,20.056L54.188,20.056L54.551,20.056L54.887,20.056L55.236,20.056L55.936,20.056L56.286,20.056L56.649,20.056L56.985,20.056L57.335,20.056L58.034,40.056L58.383,40.056L58.746,40.056L59.083,40.056L59.433,40.056L60.132,40.056L60.481,40.056L60.844,40.056L61.181,40.056L62.23,40.056L62.579,40.056L62.94,40.056L63.279,40.056L63.629,40.056L64.328,40.056L64.677,40.056L65.034,40.056L65.377,40.056L65.726,40.056L66.426,40.056L66.776,40.056L67.134,40.056L67.475,40.056L67.825,40.056L68.524,100.056L68.874,100.056L69.236,100.056L69.573,100.056L69.923,100.056L70.622,90.056L70.972,90.056L71.335,90.056L71.671,90.056L72.02,90.056L72.72,90.056L73.07,90.056L73.434,90.056L73.769,90.056L74.119,90.056L74.818,90.056L75.167,90.056L75.533,90.056L75.867,90.056L76.217,90.056L76.916,90.056L77.266,90.056L77.629,90.056L77.965,90.056L78.315,90.056L79.014,90.056L79.364,90.056L79.721,90.056L80.063,90.056L80.413,90.056L81.112,90.056L81.461,90.056L82.162,90.056L82.511,90.056L83.21,90.056L83.56,90.056L83.925,90.056L84.259,90.056L84.609,90.056L85.308,100.056L85.658,100.056L86.022,100.056L86.357,100.056L86.707,100.056L87.406,100.056L87.757,100.056L88.119,100.056L88.455,100.056L88.805,100.056L89.504,100.056L89.854,100.056L90.217,100.056L90.554,100.056L90.903,100.056L91.603,100.056L91.952,100.056L92.315,100.056L92.651,100.056L93.001,100.056L93.7,100.056L94.05,100.056L94.407,100.056L94.749,100.056L95.099,100.056L95.798,100.056L96.148,100.056L96.505,100.056L96.847,100.056L97.197,100.056L97.897,90.056L98.246,90.056L98.61,90.056L98.945,90.056L99.295,90.056L99.994,90.056L100.344,90.056L100.707,90.056L101.044,90.056L101.393,90.056L102.093,90.056L102.442,90.056L102.805,90.056L103.141,90.056L103.491,90.056L104.191,90.056L104.54,90.056L104.903,90.056L105.24,90.056L105.589,90.056L106.289,90.056L106.639,90.056L107.001,90.056L107.337,90.056L107.687,90.056L108.386,90.056L108.736,90.056L109.093,90.056L109.436,90.056L109.785,90.056L110.485,90.056L110.834,90.056L111.191,90.056L111.533,90.056L111.883,90.056L112.582,90.056L112.932,90.056L113.295,90.056L113.632,90.056L113.981,90.056L114.68,50.056L115.03,50.056L115.392,50.056L115.729,50.056L116.079,50.056L116.779,50.056L117.128,50.056L117.49,50.056L117.827,50.056L118.177,50.056L118.876,50.056L119.226,50.056L119.587,50.056L119.925,50.056L120.275,50.056L120.974,50.056L121.325,50.056L121.684,50.056L122.024,50.056L122.374,50.056L123.072,50.056L123.422,50.056L123.778,50.056L124.121,50.056L124.471,50.056L125.171,50.056L125.52,50.056L125.878,50.056L126.219,50.056L126.569,50.056L127.269,50.056L127.619,50.056L127.979,50.056L128.318,50.056L128.667,50.056L129.367,50.056L129.716,50.056L130.077,50.056L130.416,50.056L130.765,50.056L131.465,50.056L131.814,50.056L132.175,50.056L132.513,50.056L132.863,50.056L133.563,40.056L133.912,40.056L134.273,40.056L134.612,40.056L136.71,40.056L137.06,40.056L137.758,40.056L138.466,40.056L138.808,40.056L147.199,40.056L147.549,40.056L148.249,40.056L148.598,40.056L148.959,40.056L149.298,40.056L149.648,40.056L150.347,70.056L150.697,70.056L151.058,70.056L151.396,70.056L151.745,70.056L152.445,70.056L152.795,70.056L153.152,70.056L153.843,70.056L154.543,70.056L154.892,70.056L155.25,70.056L155.592,70.056L155.941,70.056L156.641,40.056L156.99,40.056L157.353,40.056L157.69,40.056L158.738,40.056L159.089,40.056L159.45,40.056L159.788,40.056L160.137,40.056L160.837,40.056L161.186,40.056L161.55,40.056L161.886,40.056L162.235,40.056L162.935,50.056L163.284,50.056L163.648,50.056L163.984,50.056L164.334,50.056L165.033,50.056L165.383,50.056L165.745,50.056L166.082,50.056L166.431,50.056L167.131,40.056L167.48,40.056L167.839,40.056L168.18,40.056L168.53,40.056L169.229,40.056L169.579,40.056L169.937,40.056L170.278,40.056L170.628,40.056L171.327,40.056L171.677,40.056L172.041,40.056L172.376,40.056L172.726,40.056L173.425,40.056L173.775,40.056L174.139,60.056L174.474,60.056L174.823,60.056L175.523,60.056L175.873,60.056L176.236,60.056L176.572,60.056L176.921,60.056L177.621,60.056L177.971,60.056L178.333,80.056L178.67,80.056L179.02,80.056L179.719,80.056L180.069,80.056L180.43,80.056L180.768,80.056L181.118,80.056L181.817,70.056L182.167,70.056L182.525,70.056L182.866,70.056L183.216,70.056L183.915,70.056L184.265,70.056L184.624,70.056L184.964,70.056L185.314,70.056L186.013,40.056L186.363,40.056L186.727,40.056L187.062,40.056L187.412,40.056L188.111,40.056L188.461,40.056L188.822,40.056L189.16,40.056L189.51,40.056L190.209,40.056L190.559,40.056L190.922,40.056L191.259,40.056L191.608,40.056L192.307,40.056L192.657,40.056L193.019,40.056L193.356,40.056L193.706,40.056L194.405,40.056L194.755,40.056L195.118,40.056L195.454,40.056L195.804,40.056L196.504,40.056L196.853,40.056L197.21,40.056L197.552,40.056L197.902,40.056L198.601,40.056L198.951,40.056L199.31,40.056L199.651,40.056L200,40.056" stroke="#e45756" stroke-width="2"/></g></g><path class="foreground" aria-hidden="true" d="" display="none"/></g><g transform="translate(0,0)"><path class="background" aria-hidden="true" d="M0,0h200v200h-200Z"/><g><g class="mark-line role-mark child_marks" role="graphics-object" aria-roledescription="line mark container"><path aria-label="Time: Aug 30, 2023; Price: 8995; item: HIKING_BACKPACK_PONCHO_-_Veste_imperméable_-_blue" role="graphics-symbol" aria-roledescription="line mark" d="M0,100.056L0.341,100.056L0.689,100.056L1.388,100.056L1.737,100.056L2.099,100.056L2.437,100.056L2.786,100.056L3.487,100.056L3.835,100.056L4.196,100.056L4.534,100.056L4.884,100.056L5.584,100.056L5.933,100.056L6.29,100.056L6.632,100.056L6.982,100.056L7.682,100.056L8.283,100.056L8.389,100.056L24.815,100.056L25.178,100.056L25.514,100.056L25.864,100.056L26.564,100.056L26.913,100.056L27.275,100.056L27.612,100.056L27.962,100.056L28.662,100.056L29.011,100.056L29.374,100.056L29.558,100.056L29.711,100.056L30.06,100.056L30.76,100.056L31.109,100.056L31.472,100.056L31.809,100.056L32.158,100.056L32.857,100.056L33.207,100.056L33.568,100.056L33.906,100.056L34.256,100.056L34.955,100.056L35.305,100.056L35.661,100.056L36.005,100.056L36.354,100.056L37.053,100.056L37.403,100.056L61.181,111.167L62.23,111.167L62.579,111.167L62.94,111.167L63.279,111.167L63.629,111.167L64.328,111.167L64.677,111.167L65.034,111.167L65.377,111.167L65.726,111.167L66.426,111.167L66.776,111.167L67.134,111.167L67.475,111.167L67.825,111.167L68.524,111.167L68.874,111.167L69.236,111.167L69.573,111.167L69.923,111.167L70.622,127.833L70.972,127.833L71.335,127.833L71.671,127.833L72.02,127.833L72.72,127.833L73.07,127.833L73.434,127.833L73.769,127.833L74.119,127.833L74.818,127.833L75.167,127.833L75.533,127.833L75.867,127.833L76.217,127.833L76.916,127.833L77.266,127.833L77.629,127.833L77.965,127.833L78.315,127.833L79.014,127.833L79.364,127.833L79.721,127.833L80.063,127.833L80.413,127.833L81.112,127.833L81.461,127.833L82.162,127.833L82.511,127.833L83.21,127.833" stroke="#54a24b" stroke-width="2"/></g></g><path class="foreground" aria-hidden="true" d="" display="none"/></g><g transform="translate(0,0)"><path class="background" aria-hidden="true" d="M0,0h200v200h-200Z"/><g><g class="mark-line role-mark child_marks" role="graphics-object" aria-roledescription="line mark container"><path aria-label="Time: Aug 30, 2023; Price: 16195; item: DESCHUTES_VALLEY™_RAIN_PONCHO_-_Parka_-_vista_blue" role="graphics-symbol" aria-roledescription="line mark" d="M0,20.056L0.341,20.056L0.689,20.056L1.388,20.056L1.737,20.056L2.099,20.056L2.437,20.056L2.786,20.056L3.487,20.056L3.835,20.056L4.196,20.056L4.534,20.056L4.884,20.056L5.584,20.056L5.933,20.056L6.29,20.056L6.632,20.056L6.982,20.056L7.682,20.056L8.283,20.056L8.389,20.056L8.731,20.056L9.08,20.056L9.78,20.056L10.13,20.056L10.491,20.056L10.828,20.056L11.178,20.056L11.88,80.056L12.23,80.056L12.589,80.056L12.927,80.056L13.276,80.056L13.976,80.056L14.325,80.056L14.688,80.056L15.025,80.056L15.374,80.056L16.075,80.056L16.424,80.056L16.784,80.056L17.123,80.056L17.473,80.056L18.392,80.056L18.521,80.056L18.882,80.056L19.22,80.056L19.57,80.056L20.269,80.056L20.619,80.056L20.976,80.056L21.319,80.056L21.668,80.056L22.368,80.056L22.717,80.056L23.074,80.056L23.416,80.056L23.766,80.056L24.465,80.056L24.815,80.056L25.178,80.056L25.514,80.056L25.864,80.056L26.564,80.056L26.913,80.056L27.275,80.056L27.612,80.056L27.962,80.056L28.662,20.056L29.011,20.056L29.374,20.056L29.558,20.056L29.711,20.056L30.06,20.056L30.76,20.056L31.109,20.056L31.472,20.056L31.809,20.056L32.158,20.056L32.857,20.056L33.207,20.056L33.568,20.056L33.906,20.056L34.256,20.056L34.955,20.056L35.305,20.056L35.661,20.056L36.005,20.056L36.354,20.056L37.053,20.056L37.403,20.056L37.76,20.056L38.102,20.056L38.452,20.056L39.152,20.056L39.501,20.056L39.864,20.056L40.201,20.056L40.551,20.056L41.249,20.056L41.599,20.056L41.962,20.056L42.298,20.056L42.648,20.056L43.347,20.056L43.698,20.056L44.06,20.056L44.397,20.056L44.746,20.056L45.445,20.056L45.795,20.056L46.158,20.056L46.495,20.056L46.845,20.056L47.544,20.056L47.893,20.056L48.255,20.056L48.593,20.056L48.942,20.056L49.641,20.056L49.991,20.056L50.348,20.056L50.691,20.056L51.041,20.056L51.74,20.056L52.09,20.056L52.446,20.056L52.789,20.056L53.138,20.056L53.838,20.056L54.188,20.056L54.551,20.056L54.887,20.056L55.236,20.056L55.936,20.056L56.286,20.056L56.649,20.056L56.985,20.056L57.335,20.056L58.034,40.056L58.383,40.056L58.746,40.056L59.083,40.056L59.433,40.056L60.132,40.056L60.481,40.056L60.844,40.056L61.181,40.056L62.23,40.056L62.579,40.056L62.94,40.056L63.279,40.056L63.629,40.056L64.328,40.056L64.677,40.056L65.034,40.056L65.377,40.056L65.726,40.056L66.426,40.056L66.776,40.056L67.134,40.056L67.475,40.056L67.825,40.056L68.524,90.056L68.874,90.056L69.236,90.056L69.573,90.056L69.923,90.056L70.622,40.056L70.972,40.056L71.335,40.056L71.671,40.056L72.02,40.056L72.72,40.056L73.07,40.056L73.434,40.056L73.769,40.056L74.119,40.056L74.818,40.056L75.167,40.056L75.533,40.056L75.867,40.056L76.217,40.056L76.916,40.056L77.266,40.056L77.629,40.056L77.965,40.056L78.315,40.056L79.014,40.056L79.364,40.056L79.721,40.056L80.063,40.056L80.413,40.056L81.112,40.056L81.461,40.056L82.162,40.056L82.511,40.056L83.21,40.056L83.56,40.056L83.925,40.056L84.259,40.056L84.609,40.056L85.308,90.056L85.658,90.056L86.022,90.056L86.357,90.056L86.707,90.056L87.406,90.056L87.757,90.056L88.119,90.056L88.455,90.056L88.805,90.056L89.504,90.056L89.854,90.056L90.217,90.056L90.554,90.056L90.903,90.056L91.603,90.056L91.952,90.056L92.315,90.056L92.651,90.056L93.001,90.056L93.7,40.056L94.05,40.056L94.407,40.056L94.749,40.056L95.099,40.056L95.798,40.056L96.148,40.056L96.505,40.056L96.847,40.056L97.197,40.056L97.897,100.056L98.246,100.056L98.61,100.056L98.945,100.056L99.295,100.056L99.994,100.056L100.344,100.056L100.707,100.056L101.044,100.056L101.393,100.056L102.093,100.056L102.442,100.056L102.805,100.056L103.141,100.056L103.491,100.056L104.191,100.056L104.54,100.056L104.903,100.056L105.24,100.056L105.589,100.056L106.289,100.056L106.639,100.056L107.001,100.056L107.337,100.056L107.687,100.056L108.386,100.056L108.736,100.056L109.093,100.056L109.436,100.056L109.785,100.056L110.485,100.056L110.834,100.056L111.191,100.056L111.533,100.056L111.883,100.056L112.582,100.056L112.932,100.056L113.295,100.056L113.632,100.056L113.981,100.056L114.68,40.056L115.03,40.056L115.392,40.056L115.729,40.056L116.079,40.056L116.779,40.056L117.128,40.056L117.49,40.056L117.827,40.056L118.177,40.056L118.876,40.056L119.226,40.056L119.587,40.056L119.925,40.056L120.275,40.056L120.974,40.056L121.325,40.056L121.684,40.056L122.024,40.056L122.374,40.056L123.072,40.056L123.422,40.056L123.778,40.056L124.121,40.056L124.471,40.056L125.171,40.056L125.52,40.056L125.878,40.056L126.22,40.056L126.569,40.056L127.269,40.056L127.619,40.056L127.979,40.056L128.318,40.056L128.667,40.056L129.367,40.056L129.716,40.056L130.077,40.056L130.416,40.056L130.765,40.056L131.465,40.056L131.814,40.056L132.175,40.056L132.513,40.056L132.863,40.056L133.563,40.056L133.912,40.056L134.273,40.056L134.612,40.056L134.961,40.056L135.66,40.056L136.01,40.056L136.373,40.056L136.71,40.056L137.06,40.056L137.758,40.056L138.109,40.056L138.466,40.056L138.808,40.056L139.158,40.056L139.857,40.056L140.206,40.056L140.564,40.056L140.906,40.056L141.255,40.056L141.954,40.056L142.305,40.056L142.668,40.056L143.004,40.056L143.353,40.056L144.053,40.056L144.403,40.056L144.764,40.056L145.102,40.056L145.451,40.056L146.151,40.056L146.501,40.056L146.862,40.056L147.199,40.056L147.549,40.056L148.249,40.056L148.598,40.056L148.959,40.056L149.298,40.056L149.648,40.056L150.347,40.056L150.697,40.056L151.058,40.056L151.396,40.056L151.745,40.056L152.445,40.056L152.795,40.056L153.152,40.056L153.843,40.056L154.543,40.056L154.892,40.056L155.25,40.056L155.592,40.056L155.941,40.056L156.641,40.056L156.99,40.056L157.353,40.056L157.69,40.056L158.738,40.056L159.089,40.056L159.45,40.056L159.788,40.056L160.137,40.056L160.837,40.056L161.186,40.056L161.55,40.056L161.886,40.056L162.235,40.056L162.935,120.056L163.284,120.056L163.648,120.056L163.984,120.056L164.334,120.056L165.033,120.056L165.383,120.056L165.745,120.056L166.082,120.056L166.431,120.056L167.131,40.056L167.48,40.056L167.839,40.056L168.18,40.056L168.53,40.056L169.229,40.056L169.579,40.056L169.937,40.056L170.278,40.056L170.628,40.056L171.327,50.056L171.677,50.056L172.041,70.056L172.376,70.056L172.726,70.056L173.425,70.056L173.775,70.056L174.139,70.056L174.474,70.056L174.823,70.056L175.523,70.056L175.873,70.056L176.236,70.056L176.572,70.056L176.921,70.056L177.621,120.056L177.971,120.056L178.333,120.056L178.67,120.056L179.02,120.056L179.719,120.056L180.069,120.056L180.43,120.056L180.768,120.056L181.118,120.056L181.817,120.056L182.167,120.056L182.525,120.056L182.866,120.056L183.216,120.056L183.915,120.056L184.265,120.056L184.624,120.056L184.964,120.056L185.314,120.056L186.013,40.056L186.363,40.056L186.727,40.056L187.062,40.056L187.412,40.056L188.111,40.056L188.461,40.056L188.822,40.056L189.16,40.056L189.51,40.056L190.209,40.056L190.559,40.056L190.922,40.056L191.259,40.056L191.608,40.056L192.307,40.056L192.657,40.056L193.019,40.056L193.356,40.056L193.706,40.056L194.405,40.056L194.755,40.056L195.118,40.056L195.454,40.056L195.804,40.056L196.504,40.056L196.853,40.056L197.21,40.056L197.552,40.056L197.902,40.056L198.601,40.056L198.951,40.056L199.31,40.056L199.651,40.056L200,40.056" stroke="#f58518" stroke-width="2"/></g></g><path class="foreground" aria-hidden="true" d="" display="none"/></g><g transform="translate(0,0)"><path class="background" aria-hidden="true" d="M0,0h200v200h-200Z"/><g><g class="mark-line role-mark child_marks" role="graphics-object" aria-roledescription="line mark container"><path aria-label="Time: Aug 30, 2023; Price: 5495; item: COVERO_PONCHO_II_-_Cape_-_lightgrey" role="graphics-symbol" aria-roledescription="line mark" d="M0,138.944L0.341,138.944L0.689,138.944L1.388,138.944L1.737,138.944L2.099,138.944L2.437,138.944L2.786,138.944L3.487,138.944L3.835,138.944L5.933,138.944L6.29,138.944L6.632,138.944L6.982,138.944L7.682,138.944L8.283,138.944L8.389,138.944L8.731,138.944L9.08,138.944L9.78,138.944L10.13,138.944L10.491,138.944L10.828,138.944L11.178,138.944L11.88,138.944L12.23,138.944L12.589,138.944L12.927,138.944L13.276,138.944L19.22,153.944L22.717,138.944L23.074,138.944L23.416,138.944L23.766,138.944L24.465,138.944L24.815,138.944L25.178,138.944L25.514,138.944L25.864,138.944L26.564,138.944L26.913,138.944L27.275,138.944L27.612,138.944L27.962,138.944L28.662,138.944L29.011,138.944L29.374,138.944L29.558,138.944L29.711,138.944L30.06,138.944L30.76,138.944L31.109,138.944L31.472,138.944L31.809,138.944L32.158,138.944L32.857,138.944L33.207,138.944L33.568,138.944L33.906,138.944L34.256,138.944L34.955,138.944L35.305,138.944L35.661,138.944L36.005,138.944L36.354,138.944L37.053,138.944L37.403,138.944L37.76,138.944L38.102,138.944L38.452,138.944L39.152,138.944L39.501,138.944L39.864,138.944L40.201,138.944L40.551,138.944L41.249,138.944L41.599,138.944L41.962,138.944L42.298,138.944L42.648,138.944L43.347,151.167L43.698,151.167L44.06,151.167L44.397,151.167L44.746,151.167L45.445,151.167L45.795,151.167L46.158,151.167L46.495,151.167L46.845,151.167L47.544,151.167L47.893,151.167L48.255,151.167L49.991,151.167L50.348,151.167L50.691,151.167L51.041,151.167L51.74,151.167L52.09,151.167L52.446,151.167L52.789,151.167L53.138,151.167L53.838,151.167L54.188,151.167L54.551,151.167L54.887,151.167L55.236,151.167L55.936,151.167L56.286,151.167L56.649,151.167L56.985,151.167L57.335,151.167L58.034,151.167L58.383,151.167L58.746,151.167L59.083,151.167L59.433,151.167L60.132,151.167L60.481,151.167L60.844,151.167L61.181,151.167L62.23,151.167L62.579,151.167L62.94,151.167L63.279,151.167L63.629,151.167L64.328,151.167L64.677,151.167L65.034,151.167L65.377,151.167L65.726,151.167L66.426,151.167L66.776,151.167L67.134,151.167L67.475,151.167L67.825,151.167L68.524,151.167L68.874,151.167L69.236,151.167L69.573,151.167L69.923,151.167L70.622,151.167L70.972,151.167L71.335,151.167L71.671,151.167L72.02,151.167L72.72,151.167L73.07,151.167L73.434,151.167L73.769,151.167L74.119,151.167L74.818,151.167L75.167,151.167L75.533,151.167L75.867,151.167L76.217,151.167L76.916,151.167L77.266,151.167L77.629,151.167L77.965,151.167L78.315,151.167L79.364,151.167L79.721,151.167L81.112,151.167L81.461,151.167L82.162,151.167L82.511,151.167L84.259,151.167L84.609,151.167L85.308,151.167L85.658,151.167L86.022,151.167L86.707,151.167L87.406,138.944L87.757,138.944L88.119,138.944L88.455,138.944L88.805,138.944L92.651,138.944L94.749,153.944L99.295,153.944L99.994,153.944L101.044,153.944L102.093,153.944L103.141,153.944L103.491,153.944L104.54,153.944L107.337,153.944L107.687,153.944L108.386,153.944L111.191,153.944L111.533,153.944L111.883,153.944L112.582,153.944L113.632,153.944L113.981,153.944L114.68,153.944L115.03,153.944L115.392,153.944L116.079,153.944L117.128,153.944L117.49,153.944L117.827,153.944L118.876,153.944L119.226,153.944L119.925,153.944L122.024,153.944L122.374,153.944L123.072,153.944L123.778,153.944L124.121,153.944L124.471,153.944L125.52,153.944L125.878,153.944L126.22,153.944L127.269,153.944L127.619,153.944L127.979,153.944L128.318,153.944L128.667,153.944L129.367,153.944L129.716,153.944L130.077,153.944L130.416,153.944L130.765,153.944L131.465,153.944L133.912,153.944L134.273,153.944L134.612,153.944L134.961,153.944L136.01,153.944L136.373,153.944L136.71,153.944L137.06,153.944L137.758,145.611L138.109,145.611L145.451,145.611L146.151,145.611L146.501,145.611L146.862,145.611L147.199,145.611L147.549,145.611L148.598,145.611L148.959,145.611L149.298,145.611L149.648,145.611L150.347,145.611L151.058,145.611L151.745,145.611L152.795,145.611L153.152,145.611L153.843,145.611L154.543,145.611L154.892,145.611L155.25,145.611L155.592,145.611L155.941,145.611L156.641,138.944L157.353,138.944L158.738,138.944L159.089,138.944L159.45,138.944L159.788,138.944L160.137,138.944L160.837,138.944L161.186,138.944L161.55,138.944L161.886,138.944L162.235,138.944L163.284,153.944L163.648,153.944L163.984,153.944L164.334,153.944L165.033,153.944L166.082,153.944L166.431,153.944L167.131,153.944L167.48,153.944L167.839,153.944L168.18,160.056L171.677,138.944L172.041,138.944L172.376,138.944L172.726,138.944L173.425,138.944L173.775,138.944L174.139,138.944L174.474,138.944L174.823,138.944L175.523,138.944L175.873,138.944L176.236,138.944L176.572,138.944L176.922,138.944L177.971,163.389L195.118,138.944L196.504,138.944L197.552,138.944L198.951,138.944" stroke="#bab0ac" stroke-width="2"/></g></g><path class="foreground" aria-hidden="true" d="" display="none"/></g><g transform="translate(0,0)"><path class="background" aria-hidden="true" d="M0,0h200v200h-200Z"/><g><g class="mark-line role-mark child_marks" role="graphics-object" aria-roledescription="line mark container"><path aria-label="Time: Sep 01, 2023; Price: 12995; item: KUURA_3L_PONCHO_UNISEX_-_Veste_imperméable_-_green" role="graphics-symbol" aria-roledescription="line mark" d="M4.884,55.611L5.584,55.611L5.933,55.611L6.29,55.611L10.13,55.611L10.491,55.611L10.828,55.611L11.178,55.611L11.88,11.167L12.23,11.167L12.589,11.167L12.927,11.167L13.276,11.167L13.976,11.167L14.325,11.167L14.688,11.167L15.025,11.167L15.374,11.167L16.075,11.167L16.424,11.167L16.784,11.167L17.123,11.167L17.473,11.167L18.392,11.167L18.521,11.167L18.882,11.167L19.22,11.167L19.57,11.167L20.269,11.167L20.619,11.167L20.976,11.167L21.319,11.167L21.668,11.167L22.368,11.167L22.717,11.167L23.074,11.167L23.416,11.167L23.766,11.167L24.465,11.167L24.815,11.167L25.178,11.167L25.514,11.167L26.564,11.167L26.913,11.167L27.275,11.167L27.612,11.167L27.962,11.167L35.661,22.278L36.005,22.278L36.354,22.278L37.053,22.278L37.403,22.278L37.76,22.278L38.102,22.278L38.452,22.278L39.152,22.278L39.501,22.278L39.864,22.278L41.599,22.278L41.962,22.278L42.298,22.278L42.648,22.278L43.347,22.278L43.698,22.278L71.671,22.278L72.02,22.278L72.72,22.278L73.07,22.278L73.434,22.278L73.769,22.278L74.119,22.278L74.818,22.278L75.167,22.278L75.533,22.278L75.867,22.278L76.217,22.278L76.916,22.278L77.266,22.278L77.629,22.278L77.965,22.278L78.315,22.278L79.014,22.278L79.364,22.278L79.721,22.278L80.063,22.278L80.413,22.278L112.582,22.278L112.932,22.278L113.295,22.278L113.632,22.278L113.981,22.278L114.68,22.278L115.03,22.278L115.392,22.278L115.729,22.278" stroke="#4c78a8" stroke-width="2"/></g></g><path class="foreground" aria-hidden="true" d="" display="none"/></g><g transform="translate(0,0)"><path class="background" aria-hidden="true" d="M0,0h200v200h-200Z"/><g><g class="mark-line role-mark child_marks" role="graphics-object" aria-roledescription="line mark container"><path aria-label="Time: Sep 14, 2023; Price: 6495; item: PARIS_ST._GERMAIN_CITY_MADE_PONCHO_-_Veste_de_survêtement_-_aura_white" role="graphics-symbol" aria-roledescription="line mark" d="M30.76,127.833L31.109,127.833L31.472,127.833L31.809,127.833L32.158,127.833L32.857,127.833L33.207,127.833L34.955,127.833L37.403,127.833L37.76,127.833L38.102,127.833L38.452,127.833L39.152,127.833L39.501,127.833L39.864,127.833L40.201,127.833L40.551,127.833L41.249,127.833L41.599,127.833L41.962,127.833L42.298,127.833L42.648,127.833L43.347,127.833L43.698,127.833L44.06,127.833L44.397,127.833L44.746,127.833L45.445,127.833L45.795,127.833L46.158,127.833L46.495,127.833L46.845,127.833L47.544,127.833L47.893,127.833L48.255,127.833L48.593,127.833L48.942,127.833L49.642,127.833L49.991,127.833L50.348,127.833L50.691,127.833L51.041,127.833L51.74,127.833L52.09,127.833L52.446,127.833L52.789,127.833L53.138,127.833L53.838,127.833L54.188,127.833L54.551,127.833L54.887,127.833L55.236,127.833L55.936,127.833L56.286,127.833L56.649,127.833" stroke="#b279a2" stroke-width="2"/></g></g><path class="foreground" aria-hidden="true" d="" display="none"/></g><g transform="translate(0,0)"><path class="background" aria-hidden="true" d="M0,0h200v200h-200Z"/><g><g class="mark-line role-mark child_marks" role="graphics-object" aria-roledescription="line mark container"><path aria-label="Time: Sep 18, 2023; Price: 8995; item: HIKING_BACKPACK_PONCHO_-_Veste_imperméable_-_indian_red" role="graphics-symbol" aria-roledescription="line mark" d="M39.152,100.056L39.501,100.056L39.864,100.056L40.201,100.056L40.551,100.056L41.249,100.056L41.599,100.056L54.887,100.056L55.236,100.056L55.936,100.056L56.286,100.056L56.649,100.056L56.985,100.056L57.335,100.056L58.034,111.167L58.383,111.167L58.746,111.167L59.083,111.167L92.315,111.167L92.651,111.167L93.001,111.167L93.7,111.167L94.05,111.167L94.407,111.167L94.749,111.167L95.099,111.167L95.798,111.167" stroke="#eeca3b" stroke-width="2"/></g></g><path class="foreground" aria-hidden="true" d="" display="none"/></g><g transform="translate(0,0)"><path class="background" aria-hidden="true" d="M0,0h200v200h-200Z"/><g><g class="mark-line role-mark child_marks" role="graphics-object" aria-roledescription="line mark container"><path aria-label="Time: Sep 26, 2023; Price: 6495; item: PSG_M_NSW_CITY_MADE_PONCHO_-_Veste_de_survêtement_-_aura_white" role="graphics-symbol" aria-roledescription="line mark" d="M56.985,127.833L57.335,127.833L58.034,91.167L58.383,91.167L58.746,91.167L59.083,91.167L59.433,91.167L60.132,91.167L60.481,91.167L60.844,91.167L61.181,91.167L62.23,91.167L62.579,91.167L62.94,91.167L63.279,91.167L63.629,91.167L64.328,91.167L64.677,91.167L65.034,91.167L65.377,91.167L65.726,91.167L66.426,91.167L66.776,91.167L67.134,91.167L67.475,91.167L67.825,91.167L68.524,127.833L68.874,127.833L69.236,127.833L69.573,127.833L69.923,127.833L70.622,127.833L70.972,127.833L71.335,127.833L71.671,127.833L72.02,127.833L72.72,127.833L73.07,127.833L73.434,127.833L73.769,127.833L74.119,127.833L74.818,127.833L75.167,127.833L75.533,127.833L75.867,127.833L76.217,127.833L76.916,127.833L77.266,127.833L77.629,127.833L77.965,127.833L78.315,127.833L79.014,127.833L79.364,127.833L79.721,127.833L80.063,127.833L80.413,127.833L81.112,127.833L81.461,127.833L82.162,127.833L82.511,127.833L83.21,127.833L83.56,127.833L83.925,127.833L84.259,127.833L84.609,127.833L85.308,84.5L85.658,84.5L86.022,84.5L86.707,84.5L87.406,84.5L87.757,84.5L88.119,84.5L88.455,84.5L88.805,84.5L89.504,84.5L89.854,84.5L91.603,84.5L92.651,84.5L94.749,127.833L95.798,127.833L98.246,127.833L98.61,127.833L111.883,127.833L112.582,127.833L112.932,127.833L113.295,127.833L115.03,127.833L115.392,127.833L117.827,127.833L118.177,127.833L119.587,127.833L120.275,127.833L120.975,127.833L121.684,127.833L123.422,127.833L124.471,127.833L125.171,127.833L125.52,127.833L125.878,127.833L126.569,127.833L127.619,127.833L128.667,127.833L129.367,127.833L129.716,127.833L130.077,127.833L130.416,127.833L130.765,127.833L131.465,127.833L131.814,127.833L132.175,127.833L132.513,127.833L132.864,127.833L133.563,127.833L133.912,127.833L134.273,127.833L134.612,127.833L134.961,127.833L135.66,127.833L136.01,127.833L136.373,127.833L136.71,127.833L137.06,127.833L137.758,127.833L138.109,127.833L138.466,127.833L138.808,127.833L139.158,127.833L139.857,127.833L140.206,127.833L140.564,127.833L140.906,127.833L141.256,127.833L141.954,127.833L142.305,127.833L142.668,127.833L143.004,127.833L143.353,127.833L144.053,127.833L144.403,127.833L144.764,127.833L145.102,127.833L145.451,127.833L146.151,127.833L146.862,127.833L147.199,127.833L147.549,127.833L148.959,127.833L149.298,127.833L150.347,84.5L151.058,84.5L151.745,84.5L153.843,84.5L155.941,84.5L157.353,127.833L158.738,127.833L159.089,127.833L159.45,127.833L160.137,127.833L160.837,127.833L161.186,127.833L161.55,127.833L161.886,127.833L163.284,156.722L167.48,127.833L167.839,127.833L169.229,127.833L172.726,105.611L173.425,105.611L176.236,105.611L176.572,105.611L177.971,148.944L183.216,148.944L183.915,148.944L187.412,120.056L188.111,127.833L189.51,127.833L190.922,127.833L193.019,127.833L193.706,127.833L195.118,91.167L196.504,91.167L197.552,91.167L198.951,127.833" stroke="#ff9da6" stroke-width="2"/></g></g><path class="foreground" aria-hidden="true" d="" display="none"/></g><g transform="translate(0,0)"><path class="background" aria-hidden="true" d="M0,0h200v200h-200Z"/><g><g class="mark-line role-mark child_marks" role="graphics-object" aria-roledescription="line mark container"><path aria-label="Time: Oct 12, 2023; Price: 4995; item: SHOWERPROOF_PONCHO_UNISEX_-_Cape_-_classic_tartan" role="graphics-symbol" aria-roledescription="line mark" d="M89.504,144.5L89.854,144.5L90.217,144.5L90.554,144.5L90.903,144.5L91.603,144.5L91.952,144.5L92.315,144.5L92.651,144.5L93.001,144.5L93.7,144.5L94.05,144.5L94.407,144.5L94.749,144.5L95.099,144.5L95.798,144.5L96.148,144.5L96.505,144.5L96.847,144.5L97.197,144.5L97.897,152.611L98.246,152.611L98.61,152.611L98.945,152.611L99.295,152.611L99.994,152.611L100.344,152.611L100.707,152.611L101.044,152.611L101.393,152.611L102.093,152.611L102.442,152.611L102.805,152.611L103.141,152.611L103.491,152.611L104.191,152.611L104.54,152.611L104.903,152.611L105.24,152.611L105.589,152.611L106.289,152.611L106.639,152.611L107.001,152.611L107.337,152.611L107.687,152.611L108.386,152.611L108.736,152.611L109.093,152.611L109.436,152.611L109.785,152.611L110.485,144.5L110.834,144.5L111.191,144.5L111.533,144.5L111.883,144.5L112.582,144.5L112.932,144.5L113.295,144.5L113.632,144.5L113.981,144.5L114.68,152.611L115.03,152.611L115.392,152.611L115.729,152.611L116.079,152.611L116.779,152.611L117.128,152.611L117.49,152.611L117.827,152.611L118.177,152.611L118.876,152.611L119.226,152.611L119.587,152.611L119.925,152.611L120.275,152.611L120.975,152.611L121.325,152.611L121.684,152.611L122.024,152.611L122.374,152.611L123.072,152.611L123.422,152.611L123.778,152.611L124.121,152.611L124.471,152.611L125.171,152.611L125.52,152.611L125.878,152.611L126.22,152.611L126.569,152.611L127.269,144.5L127.619,144.5L127.979,144.5L128.318,144.5L128.667,144.5L129.367,144.5L129.716,144.5L130.077,144.5L130.416,144.5L130.765,144.5L131.465,152.611L131.814,152.611L132.175,152.611L132.513,152.611L132.864,152.611L133.563,152.611L133.912,152.611L134.273,152.611L134.612,152.611L134.961,152.611L135.66,152.611L136.01,152.611L136.373,152.611L136.71,152.611L137.06,152.611L137.758,152.611L138.109,152.611L138.466,152.611L138.808,152.611L139.158,152.611L139.857,152.611L140.206,152.611L140.564,152.611L140.906,152.611L141.256,152.611L141.954,152.611L142.305,152.611L142.668,152.611L143.004,152.611L143.353,152.611L144.053,150.056L144.403,144.5L144.764,144.5L145.102,144.5L145.451,144.5L146.151,144.5L146.501,144.5L146.862,144.5L147.199,144.5L147.549,144.5L148.249,144.5L148.598,144.5L148.959,144.5L149.298,144.5L149.648,144.5L150.347,144.5L150.697,144.5L151.058,144.5L151.396,144.5L151.745,144.5L152.445,144.5L152.795,144.5L153.152,144.5L153.843,144.5L154.543,144.5L154.892,144.5L155.25,144.5L155.592,144.5L155.941,144.5L156.641,144.5L156.991,144.5L157.353,144.5L157.69,144.5L158.738,144.5L159.089,144.5L159.45,144.5L159.788,144.5L160.137,144.5L160.837,144.5L161.186,144.5L161.55,144.5L161.886,144.5L162.235,144.5L162.935,144.5L163.284,144.5L163.648,144.5L163.984,144.5L164.334,144.5L165.033,144.5L165.383,144.5L165.745,144.5L166.082,144.5L166.431,144.5L167.131,144.5L167.48,144.5L167.839,144.5L168.18,144.5L168.53,144.5L169.229,144.5L169.579,144.5L169.937,144.5L170.278,144.5L170.628,144.5L171.327,144.5L171.677,144.5L172.041,144.5L172.376,144.5L172.726,144.5L173.425,144.5L173.775,144.5L174.139,144.5L174.474,144.5L174.823,144.5L175.523,144.5L175.873,144.5L176.236,144.5L176.572,144.5L176.921,144.5" stroke="#9d755d" stroke-width="2"/></g></g><path class="foreground" aria-hidden="true" d="" display="none"/></g><g transform="translate(0,0)"><path class="background" aria-hidden="true" d="M0,0h200v200h-200Z"/><g><g class="mark-line role-mark child_marks" role="graphics-object" aria-roledescription="line mark container"><path aria-label="Time: Oct 12, 2023; Price: 13995; item: PONCHO_-_Cape_-_lucid_blue" role="graphics-symbol" aria-roledescription="line mark" d="M89.504,44.5L91.952,44.5L92.651,44.5L93.7,91.167L94.749,91.167L96.148,91.167L96.505,91.167L96.847,91.167L97.197,91.167L97.897,91.167L98.246,91.167L98.61,91.167L98.945,91.167L99.295,91.167L99.994,91.167L100.344,91.167L100.707,91.167L101.044,91.167L101.393,91.167L102.093,91.167L102.442,91.167L102.805,91.167L103.141,91.167L103.491,91.167L104.191,91.167L104.54,91.167L104.903,91.167L105.589,91.167L107.337,91.167L107.687,91.167L108.386,91.167L109.436,91.167L110.485,91.167L110.834,91.167L111.191,91.167L111.533,91.167L111.883,91.167L113.632,91.167L114.68,114.5L115.03,114.5L116.079,114.5L117.128,114.5L117.49,114.5L117.827,114.5L118.876,114.5L120.975,114.5L121.325,114.5L121.684,114.5L122.024,114.5L122.374,114.5L123.072,114.5L123.422,114.5L123.778,114.5L124.121,114.5L124.471,114.5L125.171,114.5L125.52,114.5L125.878,114.5L126.22,114.5L126.569,114.5L127.269,114.5L127.619,114.5L127.979,114.5L128.318,114.5L128.667,114.5L129.367,114.5L129.716,114.5L130.077,114.5L130.416,114.5L130.765,114.5L131.465,114.5L131.814,114.5L132.175,114.5L132.513,114.5L132.864,114.5L133.563,83.389L133.912,83.389L134.961,83.389L135.66,83.389L137.758,83.389L138.109,83.389L138.808,83.389L139.158,83.389L139.857,83.389L140.206,83.389L140.564,83.389L140.906,83.389L141.256,83.389L141.954,83.389L142.305,83.389L143.353,83.389L144.053,44.5L144.403,44.5L144.764,44.5L145.102,44.5L145.451,44.5L146.151,44.5L146.501,44.5L146.862,44.5L147.199,44.5L147.549,44.5L148.249,44.5L148.598,44.5L148.959,44.5L149.298,44.5L149.648,44.5L150.347,122.278L151.058,122.278L151.745,122.278L152.795,122.278L153.152,122.278L153.843,122.278L154.543,122.278L154.892,122.278L155.25,122.278L155.592,122.278L155.941,122.278L156.641,44.5L156.991,44.5L157.353,44.5L157.69,44.5L158.738,44.5L159.089,44.5L159.45,44.5L159.788,44.5L160.137,44.5L160.837,44.5L161.186,44.5L161.55,44.5L161.886,44.5L162.235,44.5L163.284,130.056L163.648,130.056L163.984,130.056L164.334,130.056L165.033,130.056L166.431,130.056L167.131,44.5L167.48,44.5L167.839,44.5L169.229,44.5L169.579,44.5L169.937,44.5L170.278,44.5L170.628,44.5L171.327,60.056L171.677,60.056L172.041,106.722L172.376,106.722L172.726,122.278L173.425,122.278L173.775,122.278L174.139,122.278L174.474,122.278L174.823,122.278L175.523,122.278L175.873,122.278L176.236,122.278L176.572,122.278L176.922,122.278L177.621,122.278L177.971,122.278L178.333,122.278L178.67,122.278L179.02,122.278L179.719,122.278L182.167,130.056L182.525,122.278L182.866,122.278L183.216,122.278L183.915,122.278L184.265,122.278L184.624,122.278L184.964,122.278L185.314,122.278L186.013,122.278L187.412,75.611L188.111,44.5L188.461,44.5L188.822,44.5L189.16,44.5L189.51,44.5L190.209,44.5L190.559,44.5L190.922,44.5L191.259,44.5L191.608,44.5L192.307,44.5L192.657,44.5L193.019,44.5L193.356,44.5L193.706,44.5L194.405,44.5L194.755,44.5L195.118,44.5L195.804,44.5L196.504,44.5L196.853,44.5L197.21,44.5L197.552,44.5L197.902,44.5L198.601,44.5L198.951,44.5L199.31,44.5L199.651,44.5L200,44.5" stroke="#72b7b2" stroke-width="2"/></g></g><path class="foreground" aria-hidden="true" d="" display="none"/></g></g><g class="mark-group role-legend" role="graphics-symbol" aria-roledescription="legend" aria-label="Symbol legend titled 'item' for stroke color with 10 values: KUURA_3L_PONCHO_UNISEX_-_Veste_imperméable_-_green, DESCHUTES_VALLEY™_RAIN_PONCHO_-_Parka_-_vista_blue, DESCHUTES_VALLEY™_RAIN_PONCHO_-_Parka_-_black, PONCHO_-_Cape_-_lucid_blue, HIKING_BACKPACK_PONCHO_-_Veste_imperméable_-_blue, ending with COVERO_PONCHO_II_-_Cape_-_lightgrey"><g transform="translate(220,0)"><path class="background" aria-hidden="true" d="M0,0h328v144h-328Z" pointer-events="none"/><g><g class="mark-group role-legend-entry"><g transform="translate(0,16)"><path class="background" aria-hidden="true" d="M0,0h0v0h0Z" pointer-events="none"/><g><g class="mark-group role-scope" role="graphics-object" aria-roledescription="group mark container"><g transform="translate(0,0)"><path class="background" aria-hidden="true" d="M0,0h328v11h-328Z" pointer-events="none" opacity="1"/><g><g class="mark-symbol role-legend-symbol" pointer-events="none"><path transform="translate(6,6)" d="M-5,0L5,0" stroke="#4c78a8" stroke-width="1.5" opacity="1"/></g><g class="mark-text role-legend-label" pointer-events="none"><text text-anchor="start" transform="translate(16,9)" font-family="Liberation Mono" font-size="10px" fill="#000" opacity="1">KUURA_3L_PONCHO_UNISEX_-_Veste_impermé…</text></g></g><path class="foreground" aria-hidden="true" d="" pointer-events="none" display="none"/></g><g transform="translate(0,13)"><path class="background" aria-hidden="true" d="M0,0h328v11h-328Z" pointer-events="none" opacity="1"/><g><g class="mark-symbol role-legend-symbol" pointer-events="none"><path transform="translate(6,6)" d="M-5,0L5,0" stroke="#f58518" stroke-width="1.5" opacity="1"/></g><g class="mark-text role-legend-label" pointer-events="none"><text text-anchor="start" transform="translate(16,9)" font-family="Liberation Mono" font-size="10px" fill="#000" opacity="1">DESCHUTES_VALLEY™_RAIN_PONCHO_-_Parka_…</text></g></g><path class="foreground" aria-hidden="true" d="" pointer-events="none" display="none"/></g><g transform="translate(0,26)"><path class="background" aria-hidden="true" d="M0,0h328v11h-328Z" pointer-events="none" opacity="1"/><g><g class="mark-symbol role-legend-symbol" pointer-events="none"><path transform="translate(6,6)" d="M-5,0L5,0" stroke="#e45756" stroke-width="1.5" opacity="1"/></g><g class="mark-text role-legend-label" pointer-events="none"><text text-anchor="start" transform="translate(16,9)" font-family="Liberation Mono" font-size="10px" fill="#000" opacity="1">DESCHUTES_VALLEY™_RAIN_PONCHO_-_Parka_…</text></g></g><path class="foreground" aria-hidden="true" d="" pointer-events="none" display="none"/></g><g transform="translate(0,39)"><path class="background" aria-hidden="true" d="M0,0h328v11h-328Z" pointer-events="none" opacity="1"/><g><g class="mark-symbol role-legend-symbol" pointer-events="none"><path transform="translate(6,6)" d="M-5,0L5,0" stroke="#72b7b2" stroke-width="1.5" opacity="1"/></g><g class="mark-text role-legend-label" pointer-events="none"><text text-anchor="start" transform="translate(16,9)" font-family="Liberation Mono" font-size="10px" fill="#000" opacity="1">PONCHO_-_Cape_-_lucid_blue</text></g></g><path class="foreground" aria-hidden="true" d="" pointer-events="none" display="none"/></g><g transform="translate(0,52)"><path class="background" aria-hidden="true" d="M0,0h328v11h-328Z" pointer-events="none" opacity="1"/><g><g class="mark-symbol role-legend-symbol" pointer-events="none"><path transform="translate(6,6)" d="M-5,0L5,0" stroke="#54a24b" stroke-width="1.5" opacity="1"/></g><g class="mark-text role-legend-label" pointer-events="none"><text text-anchor="start" transform="translate(16,9)" font-family="Liberation Mono" font-size="10px" fill="#000" opacity="1">HIKING_BACKPACK_PONCHO_-_Veste_impermé…</text></g></g><path class="foreground" aria-hidden="true" d="" pointer-events="none" display="none"/></g><g transform="translate(0,65)"><path class="background" aria-hidden="true" d="M0,0h328v11h-328Z" pointer-events="none" opacity="1"/><g><g class="mark-symbol role-legend-symbol" pointer-events="none"><path transform="translate(6,6)" d="M-5,0L5,0" stroke="#eeca3b" stroke-width="1.5" opacity="1"/></g><g class="mark-text role-legend-label" pointer-events="none"><text text-anchor="start" transform="translate(16,9)" font-family="Liberation Mono" font-size="10px" fill="#000" opacity="1">HIKING_BACKPACK_PONCHO_-_Veste_impermé…</text></g></g><path class="foreground" aria-hidden="true" d="" pointer-events="none" display="none"/></g><g transform="translate(0,78)"><path class="background" aria-hidden="true" d="M0,0h328v11h-328Z" pointer-events="none" opacity="1"/><g><g class="mark-symbol role-legend-symbol" pointer-events="none"><path transform="translate(6,6)" d="M-5,0L5,0" stroke="#b279a2" stroke-width="1.5" opacity="1"/></g><g class="mark-text role-legend-label" pointer-events="none"><text text-anchor="start" transform="translate(16,9)" font-family="Liberation Mono" font-size="10px" fill="#000" opacity="1">PARIS_ST._GERMAIN_CITY_MADE_PONCHO_-_V…</text></g></g><path class="foreground" aria-hidden="true" d="" pointer-events="none" display="none"/></g><g transform="translate(0,91)"><path class="background" aria-hidden="true" d="M0,0h328v11h-328Z" pointer-events="none" opacity="1"/><g><g class="mark-symbol role-legend-symbol" pointer-events="none"><path transform="translate(6,6)" d="M-5,0L5,0" stroke="#ff9da6" stroke-width="1.5" opacity="1"/></g><g class="mark-text role-legend-label" pointer-events="none"><text text-anchor="start" transform="translate(16,9)" font-family="Liberation Mono" font-size="10px" fill="#000" opacity="1">PSG_M_NSW_CITY_MADE_PONCHO_-_Veste_de_…</text></g></g><path class="foreground" aria-hidden="true" d="" pointer-events="none" display="none"/></g><g transform="translate(0,104)"><path class="background" aria-hidden="true" d="M0,0h328v11h-328Z" pointer-events="none" opacity="1"/><g><g class="mark-symbol role-legend-symbol" pointer-events="none"><path transform="translate(6,6)" d="M-5,0L5,0" stroke="#9d755d" stroke-width="1.5" opacity="1"/></g><g class="mark-text role-legend-label" pointer-events="none"><text text-anchor="start" transform="translate(16,9)" font-family="Liberation Mono" font-size="10px" fill="#000" opacity="1">SHOWERPROOF_PONCHO_UNISEX_-_Cape_-_cla…</text></g></g><path class="foreground" aria-hidden="true" d="" pointer-events="none" display="none"/></g><g transform="translate(0,117)"><path class="background" aria-hidden="true" d="M0,0h328v11h-328Z" pointer-events="none" opacity="1"/><g><g class="mark-symbol role-legend-symbol" pointer-events="none"><path transform="translate(6,6)" d="M-5,0L5,0" stroke="#bab0ac" stroke-width="1.5" opacity="1"/></g><g class="mark-text role-legend-label" pointer-events="none"><text text-anchor="start" transform="translate(16,9)" font-family="Liberation Mono" font-size="10px" fill="#000" opacity="1">COVERO_PONCHO_II_-_Cape_-_lightgrey</text></g></g><path class="foreground" aria-hidden="true" d="" pointer-events="none" display="none"/></g></g></g><path class="foreground" aria-hidden="true" d="" pointer-events="none" display="none"/></g></g><g class="mark-text role-legend-title" pointer-events="none"><text text-anchor="start" transform="translate(0,9)" font-family="Liberation Mono" font-size="11px" font-weight="bold" fill="#000" opacity="1">item</text></g></g><path class="foreground" aria-hidden="true" d="" pointer-events="none" display="none"/></g></g></g><path class="foreground" aria-hidden="true" d="" display="none"/></g></g></g><path class="foreground" aria-hidden="true" d="" display="none"/></g></g></g></svg>