<svg xmlns="http://www.w3.org/2000/svg" xmlns:xlink="http://www.w3.org/1999/xlink" version="1.1" class="marks" width="658" height="244" viewBox="0 0 658 244"><rect width="658" height="244" fill="white"/><g fill="none" stroke-miterlimit="10" transform="translate(104,6)"><g class="mark-group role-frame root" role="graphics-object" aria-roledescription="group mark container"><g transform="translate(0,0)"><path class="background" aria-hidden="true" d="M0,0h0v0h0Z"/><g><g class="mark-group role-row-title row-title" role="graphics-object" aria-roledescription="group mark container"><g transform="translate(-78,116)"><path class="background" aria-hidden="true" d="M0,0h0v0h0Z"/><g><g class="mark-group role-title"><g transform="translate(-21.000000000000004,0)"><path class="background" aria-hidden="true" d="M0,0h0v0h0Z" pointer-events="none"/><g><g class="mark-text role-title-text" role="graphics-symbol" aria-roledescription="title" aria-label="Title text 'group'" pointer-events="none"><text text-anchor="middle" transform="translate(0,0) rotate(-90) translate(0,9)" font-family="Liberation Mono" font-size="11px" font-weight="bold" fill="#000" opacity="1">group</text></g></g><path class="foreground" aria-hidden="true" d="" pointer-events="none" display="none"/></g></g></g><path class="foreground" aria-hidden="true" d="" display="none"/></g></g><g class="mark-group role-row-header row_header" role="graphics-object" aria-roledescription="group mark container"><g transform="translate(-47,0)"><path class="background" aria-hidden="true" d="M0,0h0v200h0Z"/><g><g class="mark-group role-title"><g transform="translate(-20.000000000000007,100)"><path class="background" aria-hidden="true" d="M0,0h0v0h0Z" pointer-events="none"/><g><g class="mark-text role-title-text" role="graphics-symbol" aria-roledescription="title" aria-label="Title text 'zalando-poncho'" pointer-events="none"><text text-anchor="middle" transform="translate(0,0) rotate(-90) translate(0,8)" font-family="Liberation Mono" font-size="10px" fill="#000" opacity="1">zalando-poncho</text></g></g><path class="foreground" aria-hidden="true" d="" pointer-events="none" display="none"/></g></g></g><path class="foreground" aria-hidden="true" d="" display="none"/></g></g><g class="mark-group role-scope cell" role="graphics-object" aria-roledescription="group mark container"><g transform="translate(0,0)"><path class="background" aria-hidden="true" d="M0.5,0.5h200v200h-200Z" stroke="#ddd"/><g><g class="mark-group role-axis" aria-hidden="true"><g transform="translate(0.5,200.5)"><path class="background" aria-hidden="true" d="M0,0h0v0h0Z" pointer-events="none"/><g><g class="mark-rule role-axis-grid" pointer-events="none"><line transform="translate(4,-200)" x2="0" y2="200" stroke="#ddd" stroke-width="1" opacity="1"/><line transform="translate(82,-200)" x2="0" y2="200" stroke="#ddd" stroke-width="1" opacity="1"/><line transform="translate(162,-200)" x2="0" y2="200" stroke="#ddd" stroke-width="1" opacity="1"/></g></g><path class="foreground" aria-hidden="true" d="" pointer-events="none" display="none"/></g></g><g class="mark-group role-axis" aria-hidden="true"><g transform="translate(0.5,0.5)"><path class="background" aria-hidden="true" d="M0,0h0v0h0Z" pointer-events="none"/><g><g class="mark-rule role-axis-grid" pointer-events="none"><line transform="translate(0,200)" x2="200" y2="0" stroke="#ddd" stroke-width="1" opacity="1"/><line transform="translate(0,144)" x2="200" y2="0" stroke="#ddd" stroke-width="1" opacity="1"/><line transform="translate(0,89)" x2="200" y2="0" stroke="#ddd" stroke-width="1" opacity="1"/><line transform="translate(0,33)" x2="200" y2="0" stroke="#ddd" stroke-width="1" opacity="1"/></g></g><path class="foreground" aria-hidden="true" d="" pointer-events="none" display="none"/></g></g><g class="mark-group role-axis" role="graphics-symbol" aria-roledescription="axis" aria-label="X-axis titled 'Time' for a time scale with values from Wednesday, 30 August 2023, 12:58:24 PM to Wednesday, 15 November 2023, 12:59:44 PM"><g transform="translate(0.5,200.5)"><path class="background" aria-hidden="true" d="M0,0h0v0h0Z" pointer-events="none"/><g><g class="mark-rule role-axis-tick" pointer-events="none"><line transform="translate(4,0)" x2="0" y2="5" stroke="#888" stroke-width="1" opacity="1"/><line transform="translate(82,0)" x2="0" y2="5" stroke="#888" stroke-width="1" opacity="1"/><line transform="translate(162,0)" x2="0" y2="5" stroke="#888" stroke-width="1" opacity="1"/></g><g class="mark-text role-axis-label" pointer-events="none"><text text-anchor="middle" transform="translate(3.790717999480591,15)" font-family="Liberation Mono" font-size="10px" fill="#000" opacity="1">September</text><text text-anchor="middle" transform="translate(81.71185262934776,15)" font-family="Liberation Mono" font-size="10px" fill="#000" opacity="1">October</text><text text-anchor="middle" transform="translate(162.23035841354383,15)" font-family="Liberation Mono" font-size="10px" fill="#000" opacity="1">November</text></g><g class="mark-rule role-axis-domain" pointer-events="none"><line transform="translate(0,0)" x2="200" y2="0" stroke="#888" stroke-width="1" opacity="1"/></g><g class="mark-text role-axis-title" pointer-events="none"><text text-anchor="middle" transform="translate(100,30)" font-family="Liberation Mono" font-size="11px" font-weight="bold" fill="#000" opacity="1">Time</text></g></g><path class="foreground" aria-hidden="true" d="" pointer-events="none" display="none"/></g></g><g class="mark-group role-axis" role="graphics-symbol" aria-roledescription="axis" aria-label="Y-axis titled 'Price' for a linear scale with values from 0 to 18,000"><g transform="translate(0.5,0.5)"><path class="background" aria-hidden="true" d="M0,0h0v0h0Z" pointer-events="none"/><g><g class="mark-rule role-axis-tick" pointer-events="none"><line transform="translate(0,200)" x2="-5" y2="0" stroke="#888" stroke-width="1" opacity="1"/><line transform="translate(0,144)" x2="-5" y2="0" stroke="#888" stroke-width="1" opacity="1"/><line transform="translate(0,89)" x2="-5" y2="0" stroke="#888" stroke-width="1" opacity="1"/><line transform="translate(0,33)" x2="-5" y2="0" stroke="#888" stroke-width="1" opacity="1"/></g><g class="mark-text role-axis-label" pointer-events="none"><text text-anchor="end" transform="translate(-7,203)" font-family="Liberation Mono" font-size="10px" fill="#000" opacity="1">0</text><text text-anchor="end" transform="translate(-7,147.44444444444443)" font-family="Liberation Mono" font-size="10px" fill="#000" opacity="1">50</text><text text-anchor="end" transform="translate(-7,91.88888888888889)" font-family="Liberation Mono" font-size="10px" fill="#000" opacity="1">100</text><text text-anchor="end" transform="translate(-7,36.33333333333333)" font-family="Liberation Mono" font-size="10px" fill="#000" opacity="1">150</text></g><g class="mark-rule role-axis-domain" pointer-events="none"><line transform="translate(0,200)" x2="0" y2="-200" stroke="#888" stroke-width="1" opacity="1"/></g><g class="mark-text role-axis-title" pointer-events="none"><text text-anchor="middle" transform="translate(-35,100) rotate(-90) translate(0,-2)" font-family="Liberation Mono" font-size="11px" font-weight="bold" fill="#000" opacity="1">Price</text></g></g><path class="foreground" aria-hidden="true" d="" pointer-events="none" display="none"/></g></g><g class="mark-group role-scope child_pathgroup" role="graphics-object" aria-roledescription="group mark container"><g transform="translate(0,0)"><path class="background" aria-hidden="true" d="M0,0h200v200h-200Z"/><g><g class="mark-line role-mark child_marks" role="graphics-object" aria-roledescription="line mark container"><path aria-label="Time: Aug 30, 2023; Price: 10795; item: DESCHUTES_VALLEY™_RAIN_PONCHO_-_Parka_-_black" role="graphics-symbol" aria-roledescription="line mark" d="M0,80.056L0.422,80.056L0.852,80.056L1.718,80.056L2.151,80.056L2.598,80.056L3.017,80.056L3.449,80.056L4.316,80.056L4.748,80.056L5.195,80.056L5.614,80.056L6.047,80.056L6.913,80.056L7.345,80.056L7.787,80.056L8.211,80.056L8.644,80.056L9.51,80.056L10.254,80.056L10.385,80.056L10.808,80.056L11.242,80.056L12.107,80.056L12.541,80.056L12.988,80.056L13.406,80.056L13.838,80.056L14.707,50.056L15.14,50.056L15.585,50.056L16.004,50.056L16.436,50.056L17.302,50.056L17.735,50.056L18.184,50.056L18.601,50.056L19.034,50.056L19.901,50.056L20.333,50.056L20.779,50.056L21.198,50.056L21.631,50.056L22.769,50.056L22.929,50.056L23.375,50.056L23.795,50.056L24.228,50.056L25.093,50.056L25.527,50.056L25.968,50.056L26.392,50.056L26.825,50.056L27.691,50.056L28.124,50.056L28.565,50.056L28.989,50.056L29.422,50.056L30.288,50.056L30.721,50.056L31.17,50.056L31.587,50.056L32.02,50.056L32.886,50.056L33.318,50.056L33.766,50.056L34.184,50.056L34.618,50.056L35.484,20.056L35.916,20.056L36.365,20.056L36.593,20.056L36.782,20.056L37.215,20.056L38.081,20.056L38.513,20.056L38.962,20.056L39.38,20.056L39.812,20.056L40.678,20.056L41.111,20.056L41.558,20.056L41.976,20.056L42.409,20.056L43.275,20.056L43.708,20.056L44.149,20.056L44.574,20.056L45.006,20.056L45.872,20.056L46.305,20.056L46.747,20.056L47.171,20.056L47.604,20.056L48.47,20.056L48.903,20.056L49.352,20.056L49.769,20.056L50.202,20.056L51.067,20.056L51.5,20.056L51.949,20.056L52.366,20.056L52.799,20.056L53.664,20.056L54.098,20.056L54.547,20.056L54.963,20.056L55.396,20.056L56.262,20.056L56.695,20.056L57.144,20.056L57.561,20.056L57.994,20.056L58.86,20.056L59.292,20.056L59.74,20.056L60.158,20.056L60.591,20.056L61.457,20.056L61.89,20.056L62.331,20.056L62.756,20.056L63.189,20.056L64.054,20.056L64.487,20.056L64.929,20.056L65.353,20.056L65.785,20.056L66.652,20.056L67.085,20.056L67.534,20.056L67.95,20.056L68.383,20.056L69.249,20.056L69.682,20.056L70.132,20.056L70.547,20.056L70.981,20.056L71.846,40.056L72.279,40.056L72.728,40.056L73.145,40.056L73.579,40.056L74.444,40.056L74.876,40.056L75.325,40.056L75.742,40.056L77.041,40.056L77.474,40.056L77.921,40.056L78.34,40.056L78.773,40.056L79.638,40.056L80.071,40.056L80.513,40.056L80.937,40.056L81.37,40.056L82.236,40.056L82.669,40.056L83.112,40.056L83.534,40.056L83.968,40.056L84.833,100.056L85.266,100.056L85.715,100.056L86.132,100.056L86.565,100.056L87.431,90.056L87.864,90.056L88.313,90.056L88.73,90.056L89.162,90.056L90.027,90.056L90.461,90.056L90.912,90.056L91.327,90.056L91.76,90.056L92.625,90.056L93.058,90.056L93.51,90.056L93.924,90.056L94.358,90.056L95.223,90.056L95.656,90.056L96.105,90.056L96.522,90.056L96.955,90.056L97.82,90.056L98.254,90.056L98.696,90.056L99.118,90.056L99.552,90.056L100.418,90.056L100.85,90.056L101.717,90.056L102.149,90.056L103.015,90.056L103.448,90.056L103.9,90.056L104.314,90.056L104.746,90.056L105.612,100.056L106.045,100.056L106.496,100.056L106.911,100.056L107.344,100.056L108.21,100.056L108.643,100.056L109.092,100.056L109.508,100.056L109.942,100.056L110.807,100.056L111.24,100.056L111.69,100.056L112.106,100.056L112.539,100.056L113.405,100.056L113.838,100.056L114.287,100.056L114.703,100.056L115.136,100.056L116.002,100.056L116.435,100.056L116.877,100.056L117.3,100.056L117.733,100.056L118.599,100.056L119.032,100.056L119.474,100.056L119.897,100.056L120.331,100.056L121.197,90.056L121.63,90.056L122.079,90.056L122.495,90.056L122.928,90.056L123.794,90.056L124.226,90.056L124.676,90.056L125.093,90.056L125.525,90.056L126.392,90.056L126.824,90.056L127.273,90.056L127.69,90.056L128.123,90.056L128.989,90.056L129.421,90.056L129.871,90.056L130.287,90.056L130.72,90.056L131.586,90.056L132.02,90.056L132.468,90.056L132.884,90.056L133.317,90.056L134.183,90.056L134.616,90.056L135.058,90.056L135.482,90.056L135.914,90.056L136.781,90.056L137.213,90.056L137.656,90.056L138.079,90.056L138.512,90.056L139.378,90.056L139.811,90.056L140.26,90.056L140.677,90.056L141.11,90.056L141.975,50.056L142.408,50.056L142.856,50.056L143.274,50.056L143.707,50.056L144.573,50.056L145.006,50.056L145.453,50.056L145.871,50.056L146.305,50.056L147.17,50.056L147.603,50.056L148.05,50.056L148.469,50.056L148.901,50.056L149.767,50.056L150.202,50.056L150.646,50.056L151.066,50.056L151.499,50.056L152.364,50.056L152.798,50.056L153.239,50.056L153.663,50.056L154.097,50.056L154.962,50.056L155.395,50.056L155.838,50.056L156.261,50.056L156.693,50.056L157.56,50.056L157.993,50.056L158.439,50.056L158.859,50.056L159.291,50.056L160.157,50.056L160.59,50.056L161.037,50.056L161.456,50.056L161.888,50.056L162.754,50.056L163.187,50.056L163.634,50.056L164.053,50.056L164.486,50.056L165.352,40.056L165.784,40.056L166.231,40.056L166.65,40.056L169.248,40.056L169.681,40.056L170.546,40.056L171.422,40.056L171.845,40.056L182.234,40.056L182.667,40.056L183.533,40.056L183.966,40.056L184.412,40.056L184.832,40.056L185.265,40.056L186.131,70.056L186.564,70.056L187.011,70.056L187.429,70.056L187.862,70.056L188.728,70.056L189.161,70.056L189.603,70.056L190.459,70.056L191.325,70.056L191.758,70.056L192.201,70.056L192.624,70.056L193.056,70.056L193.922,40.056L194.355,40.056L194.804,40.056L195.221,40.056L196.519,40.056L196.953,40.056L197.401,40.056L197.819,40.056L198.251,40.056L199.117,40.056L199.55,40.056L200,40.056" stroke="#e45756" stroke-width="2"/></g></g><path class="foreground" aria-hidden="true" d="" display="none"/></g><g transform="translate(0,0)"><path class="background" aria-hidden="true" d="M0,0h200v200h-200Z"/><g><g class="mark-line role-mark child_marks" role="graphics-object" aria-roledescription="line mark container"><path aria-label="Time: Aug 30, 2023; Price: 8995; item: HIKING_BACKPACK_PONCHO_-_Veste_imperméable_-_blue" role="graphics-symbol" aria-roledescription="line mark" d="M0,100.056L0.422,100.056L0.852,100.056L1.718,100.056L2.151,100.056L2.598,100.056L3.017,100.056L3.449,100.056L4.316,100.056L4.748,100.056L5.195,100.056L5.614,100.056L6.047,100.056L6.913,100.056L7.345,100.056L7.787,100.056L8.211,100.056L8.644,100.056L9.51,100.056L10.254,100.056L10.385,100.056L30.721,100.056L31.17,100.056L31.587,100.056L32.02,100.056L32.886,100.056L33.318,100.056L33.766,100.056L34.184,100.056L34.618,100.056L35.484,100.056L35.916,100.056L36.365,100.056L36.593,100.056L36.782,100.056L37.215,100.056L38.081,100.056L38.513,100.056L38.962,100.056L39.38,100.056L39.812,100.056L40.678,100.056L41.111,100.056L41.558,100.056L41.976,100.056L42.409,100.056L43.275,100.056L43.708,100.056L44.149,100.056L44.574,100.056L45.006,100.056L45.872,100.056L46.305,100.056L75.742,111.167L77.041,111.167L77.474,111.167L77.921,111.167L78.34,111.167L78.773,111.167L79.638,111.167L80.071,111.167L80.513,111.167L80.937,111.167L81.37,111.167L82.236,111.167L82.669,111.167L83.112,111.167L83.534,111.167L83.968,111.167L84.833,111.167L85.266,111.167L85.715,111.167L86.132,111.167L86.565,111.167L87.431,127.833L87.864,127.833L88.313,127.833L88.73,127.833L89.162,127.833L90.027,127.833L90.461,127.833L90.912,127.833L91.327,127.833L91.76,127.833L92.625,127.833L93.058,127.833L93.51,127.833L93.924,127.833L94.358,127.833L95.223,127.833L95.656,127.833L96.105,127.833L96.522,127.833L96.955,127.833L97.82,127.833L98.254,127.833L98.696,127.833L99.118,127.833L99.552,127.833L100.418,127.833L100.85,127.833L101.717,127.833L102.149,127.833L103.015,127.833" stroke="#54a24b" stroke-width="2"/></g></g><path class="foreground" aria-hidden="true" d="" display="none"/></g><g transform="translate(0,0)"><path class="background" aria-hidden="true" d="M0,0h200v200h-200Z"/><g><g class="mark-line role-mark child_marks" role="graphics-object" aria-roledescription="line mark container"><path aria-label="Time: Aug 30, 2023; Price: 16195; item: DESCHUTES_VALLEY™_RAIN_PONCHO_-_Parka_-_vista_blue" role="graphics-symbol" aria-roledescription="line mark" d="M0,20.056L0.422,20.056L0.852,20.056L1.718,20.056L2.151,20.056L2.598,20.056L3.017,20.056L3.449,20.056L4.316,20.056L4.748,20.056L5.195,20.056L5.614,20.056L6.047,20.056L6.913,20.056L7.345,20.056L7.787,20.056L8.211,20.056L8.644,20.056L9.51,20.056L10.254,20.056L10.385,20.056L10.808,20.056L11.242,20.056L12.107,20.056L12.541,20.056L12.988,20.056L13.406,20.056L13.838,20.056L14.707,80.056L15.14,80.056L15.585,80.056L16.004,80.056L16.436,80.056L17.302,80.056L17.735,80.056L18.184,80.056L18.601,80.056L19.034,80.056L19.901,80.056L20.333,80.056L20.779,80.056L21.198,80.056L21.631,80.056L22.769,80.056L22.929,80.056L23.375,80.056L23.795,80.056L24.228,80.056L25.093,80.056L25.527,80.056L25.968,80.056L26.392,80.056L26.825,80.056L27.691,80.056L28.124,80.056L28.565,80.056L28.989,80.056L29.422,80.056L30.288,80.056L30.721,80.056L31.17,80.056L31.587,80.056L32.02,80.056L32.886,80.056L33.318,80.056L33.766,80.056L34.184,80.056L34.618,80.056L35.483,20.056L35.916,20.056L36.365,20.056L36.593,20.056L36.782,20.056L37.215,20.056L38.081,20.056L38.513,20.056L38.962,20.056L39.38,20.056L39.812,20.056L40.678,20.056L41.111,20.056L41.558,20.056L41.976,20.056L42.409,20.056L43.275,20.056L43.708,20.056L44.149,20.056L44.574,20.056L45.006,20.056L45.872,20.056L46.305,20.056L46.747,20.056L47.171,20.056L47.604,20.056L48.47,20.056L48.903,20.056L49.352,20.056L49.769,20.056L50.202,20.056L51.067,20.056L51.5,20.056L51.949,20.056L52.366,20.056L52.799,20.056L53.664,20.056L54.098,20.056L54.547,20.056L54.963,20.056L55.396,20.056L56.262,20.056L56.695,20.056L57.144,20.056L57.561,20.056L57.994,20.056L58.86,20.056L59.292,20.056L59.74,20.056L60.158,20.056L60.591,20.056L61.457,20.056L61.89,20.056L62.331,20.056L62.756,20.056L63.189,20.056L64.054,20.056L64.487,20.056L64.929,20.056L65.353,20.056L65.785,20.056L66.652,20.056L67.085,20.056L67.534,20.056L67.95,20.056L68.383,20.056L69.249,20.056L69.682,20.056L70.132,20.056L70.547,20.056L70.981,20.056L71.846,40.056L72.279,40.056L72.728,40.056L73.145,40.056L73.579,40.056L74.444,40.056L74.876,40.056L75.325,40.056L75.742,40.056L77.041,40.056L77.474,40.056L77.921,40.056L78.34,40.056L78.773,40.056L79.638,40.056L80.071,40.056L80.513,40.056L80.937,40.056L81.37,40.056L82.236,40.056L82.669,40.056L83.112,40.056L83.534,40.056L83.968,40.056L84.833,90.056L85.266,90.056L85.715,90.056L86.132,90.056L86.565,90.056L87.431,40.056L87.864,40.056L88.313,40.056L88.73,40.056L89.162,40.056L90.027,40.056L90.461,40.056L90.912,40.056L91.327,40.056L91.76,40.056L92.625,40.056L93.058,40.056L93.51,40.056L93.924,40.056L94.358,40.056L95.223,40.056L95.656,40.056L96.105,40.056L96.522,40.056L96.955,40.056L97.82,40.056L98.254,40.056L98.696,40.056L99.118,40.056L99.552,40.056L100.418,40.056L100.85,40.056L101.717,40.056L102.149,40.056L103.015,40.056L103.448,40.056L103.9,40.056L104.314,40.056L104.746,40.056L105.613,90.056L106.045,90.056L106.496,90.056L106.911,90.056L107.344,90.056L108.21,90.056L108.643,90.056L109.092,90.056L109.508,90.056L109.942,90.056L110.807,90.056L111.24,90.056L111.69,90.056L112.106,90.056L112.539,90.056L113.405,90.056L113.838,90.056L114.287,90.056L114.703,90.056L115.136,90.056L116.002,40.056L116.435,40.056L116.877,40.056L117.3,40.056L117.733,40.056L118.599,40.056L119.032,40.056L119.474,40.056L119.897,40.056L120.331,40.056L121.197,100.056L121.63,100.056L122.079,100.056L122.495,100.056L122.928,100.056L123.794,100.056L124.226,100.056L124.676,100.056L125.093,100.056L125.525,100.056L126.392,100.056L126.824,100.056L127.273,100.056L127.69,100.056L128.123,100.056L128.989,100.056L129.421,100.056L129.871,100.056L130.287,100.056L130.72,100.056L131.586,100.056L132.02,100.056L132.468,100.056L132.884,100.056L133.317,100.056L134.183,100.056L134.616,100.056L135.058,100.056L135.482,100.056L135.914,100.056L136.781,100.056L137.213,100.056L137.656,100.056L138.079,100.056L138.512,100.056L139.378,100.056L139.811,100.056L140.26,100.056L140.677,100.056L141.11,100.056L141.975,40.056L142.408,40.056L142.856,40.056L143.274,40.056L143.707,40.056L144.573,40.056L145.006,40.056L145.453,40.056L145.871,40.056L146.305,40.056L147.17,40.056L147.603,40.056L148.05,40.056L148.469,40.056L148.901,40.056L149.767,40.056L150.202,40.056L150.646,40.056L151.066,40.056L151.499,40.056L152.364,40.056L152.798,40.056L153.239,40.056L153.663,40.056L154.097,40.056L154.962,40.056L155.395,40.056L155.838,40.056L156.261,40.056L156.693,40.056L157.56,40.056L157.993,40.056L158.439,40.056L158.859,40.056L159.291,40.056L160.157,40.056L160.59,40.056L161.037,40.056L161.456,40.056L161.888,40.056L162.754,40.056L163.187,40.056L163.634,40.056L164.053,40.056L164.486,40.056L165.352,40.056L165.784,40.056L166.231,40.056L166.65,40.056L167.083,40.056L167.949,40.056L168.382,40.056L168.831,40.056L169.248,40.056L169.681,40.056L170.546,40.056L170.98,40.056L171.422,40.056L171.845,40.056L172.278,40.056L173.144,40.056L173.576,40.056L174.019,40.056L174.443,40.056L174.875,40.056L175.74,40.056L176.174,40.056L176.624,40.056L177.04,40.056L177.473,40.056L178.339,40.056L178.772,40.056L179.219,40.056L179.637,40.056L180.07,40.056L180.936,40.056L181.369,40.056L181.816,40.056L182.234,40.056L182.667,40.056L183.533,40.056L183.966,40.056L184.412,40.056L184.832,40.056L185.265,40.056L186.131,40.056L186.564,40.056L187.011,40.056L187.429,40.056L187.862,40.056L188.728,40.056L189.161,40.056L189.603,40.056L190.459,40.056L191.325,40.056L191.758,40.056L192.201,40.056L192.624,40.056L193.056,40.056L193.922,40.056L194.355,40.056L194.804,40.056L195.221,40.056L196.519,40.056L196.953,40.056L197.401,40.056L197.819,40.056L198.251,40.056L199.117,40.056L199.55,40.056L200,40.056" stroke="#f58518" stroke-width="2"/></g></g><path class="foreground" aria-hidden="true" d="" display="none"/></g><g transform="translate(0,0)"><path class="background" aria-hidden="true" d="M0,0h200v200h-200Z"/><g><g class="mark-line role-mark child_marks" role="graphics-object" aria-roledescription="line mark container"><path aria-label="Time: Aug 30, 2023; Price: 5495; item: COVERO_PONCHO_II_-_Cape_-_lightgrey" role="graphics-symbol" aria-roledescription="line mark" d="M0,138.944L0.422,138.944L0.852,138.944L1.718,138.944L2.151,138.944L2.598,138.944L3.017,138.944L3.449,138.944L4.316,138.944L4.748,138.944L7.345,138.944L7.787,138.944L8.211,138.944L8.644,138.944L9.51,138.944L10.254,138.944L10.385,138.944L10.808,138.944L11.242,138.944L12.108,138.944L12.541,138.944L12.988,138.944L13.406,138.944L13.838,138.944L14.707,138.944L15.14,138.944L15.585,138.944L16.004,138.944L16.436,138.944L23.795,153.944L28.124,138.944L28.565,138.944L28.989,138.944L29.422,138.944L30.288,138.944L30.721,138.944L31.17,138.944L31.587,138.944L32.02,138.944L32.886,138.944L33.318,138.944L33.766,138.944L34.184,138.944L34.618,138.944L35.484,138.944L35.916,138.944L36.365,138.944L36.593,138.944L36.782,138.944L37.215,138.944L38.081,138.944L38.513,138.944L38.962,138.944L39.38,138.944L39.812,138.944L40.678,138.944L41.111,138.944L41.558,138.944L41.976,138.944L42.409,138.944L43.275,138.944L43.708,138.944L44.149,138.944L44.574,138.944L45.006,138.944L45.872,138.944L46.305,138.944L46.747,138.944L47.171,138.944L47.604,138.944L48.47,138.944L48.903,138.944L49.352,138.944L49.769,138.944L50.202,138.944L51.067,138.944L51.5,138.944L51.949,138.944L52.366,138.944L52.799,138.944L53.664,151.167L54.098,151.167L54.547,151.167L54.963,151.167L55.396,151.167L56.262,151.167L56.695,151.167L57.144,151.167L57.561,151.167L57.994,151.167L58.86,151.167L59.292,151.167L59.74,151.167L61.89,151.167L62.331,151.167L62.756,151.167L63.189,151.167L64.054,151.167L64.487,151.167L64.929,151.167L65.353,151.167L65.785,151.167L66.652,151.167L67.085,151.167L67.534,151.167L67.95,151.167L68.383,151.167L69.249,151.167L69.682,151.167L70.132,151.167L70.547,151.167L70.981,151.167L71.846,151.167L72.279,151.167L72.728,151.167L73.145,151.167L73.579,151.167L74.444,151.167L74.876,151.167L75.325,151.167L75.742,151.167L77.041,151.167L77.474,151.167L77.921,151.167L78.34,151.167L78.773,151.167L79.638,151.167L80.071,151.167L80.513,151.167L80.937,151.167L81.37,151.167L82.236,151.167L82.669,151.167L83.112,151.167L83.534,151.167L83.968,151.167L84.833,151.167L85.266,151.167L85.715,151.167L86.132,151.167L86.565,151.167L87.431,151.167L87.864,151.167L88.313,151.167L88.73,151.167L89.162,151.167L90.027,151.167L90.461,151.167L90.912,151.167L91.327,151.167L91.76,151.167L92.625,151.167L93.058,151.167L93.51,151.167L93.924,151.167L94.358,151.167L95.223,151.167L95.656,151.167L96.105,151.167L96.522,151.167L96.955,151.167L98.254,151.167L98.696,151.167L100.418,151.167L100.85,151.167L101.717,151.167L102.149,151.167L104.314,151.167L104.746,151.167L105.613,151.167L106.045,151.167L106.496,151.167L107.344,151.167L108.21,138.944L108.643,138.944L109.092,138.944L109.508,138.944L109.942,138.944L114.703,138.944L117.3,153.944L122.928,153.944L123.794,153.944L125.093,153.944L126.392,153.944L127.69,153.944L128.123,153.944L129.421,153.944L132.884,153.944L133.317,153.944L134.183,153.944L137.656,153.944L138.079,153.944L138.512,153.944L139.378,153.944L140.677,153.944L141.11,153.944L141.975,153.944L142.408,153.944L142.856,153.944L143.707,153.944L145.006,153.944L145.453,153.944L145.871,153.944L147.17,153.944L147.603,153.944L148.469,153.944L151.066,153.944L151.499,153.944L152.364,153.944L153.239,153.944L153.663,153.944L154.097,153.944L155.395,153.944L155.838,153.944L156.261,153.944L157.56,153.944L157.993,153.944L158.439,153.944L158.859,153.944L159.291,153.944L160.157,153.944L160.59,153.944L161.037,153.944L161.456,153.944L161.888,153.944L162.754,153.944L165.784,153.944L166.231,153.944L166.65,153.944L167.083,153.944L168.382,153.944L168.831,153.944L169.248,153.944L169.681,153.944L170.546,145.611L170.98,145.611L180.07,145.611L180.936,145.611L181.369,145.611L181.816,145.611L182.234,145.611L182.667,145.611L183.966,145.611L184.412,145.611L184.832,145.611L185.265,145.611L186.131,145.611L187.011,145.611L187.862,145.611L189.161,145.611L189.603,145.611L190.459,145.611L191.325,145.611L191.758,145.611L192.201,145.611L192.624,145.611L193.056,145.611L193.922,138.944L194.804,138.944L196.519,138.944L196.953,138.944L197.401,138.944L197.819,138.944L198.251,138.944L199.117,138.944L199.55,138.944L200,138.944" stroke="#9d755d" stroke-width="2"/></g></g><path class="foreground" aria-hidden="true" d="" display="none"/></g><g transform="translate(0,0)"><path class="background" aria-hidden="true" d="M0,0h200v200h-200Z"/><g><g class="mark-line role-mark child_marks" role="graphics-object" aria-roledescription="line mark container"><path aria-label="Time: Sep 01, 2023; Price: 12995; item: KUURA_3L_PONCHO_UNISEX_-_Veste_imperméable_-_green" role="graphics-symbol" aria-roledescription="line mark" d="M6.047,55.611L6.913,55.611L7.345,55.611L7.787,55.611L12.541,55.611L12.988,55.611L13.406,55.611L13.838,55.611L14.707,11.167L15.14,11.167L15.585,11.167L16.004,11.167L16.436,11.167L17.302,11.167L17.735,11.167L18.184,11.167L18.601,11.167L19.034,11.167L19.901,11.167L20.333,11.167L20.779,11.167L21.198,11.167L21.631,11.167L22.769,11.167L22.929,11.167L23.375,11.167L23.795,11.167L24.228,11.167L25.093,11.167L25.527,11.167L25.968,11.167L26.392,11.167L26.825,11.167L27.691,11.167L28.124,11.167L28.565,11.167L28.989,11.167L29.422,11.167L30.288,11.167L30.721,11.167L31.17,11.167L31.587,11.167L32.886,11.167L33.318,11.167L33.766,11.167L34.184,11.167L34.618,11.167L44.149,22.278L44.574,22.278L45.006,22.278L45.872,22.278L46.305,22.278L46.747,22.278L47.171,22.278L47.604,22.278L48.47,22.278L48.903,22.278L49.352,22.278L51.5,22.278L51.949,22.278L52.366,22.278L52.799,22.278L53.664,22.278L54.098,22.278L88.73,22.278L89.162,22.278L90.027,22.278L90.461,22.278L90.912,22.278L91.327,22.278L91.76,22.278L92.625,22.278L93.058,22.278L93.51,22.278L93.924,22.278L94.358,22.278L95.223,22.278L95.656,22.278L96.105,22.278L96.522,22.278L96.955,22.278L97.82,22.278L98.254,22.278L98.696,22.278L99.118,22.278L99.552,22.278L139.378,22.278L139.811,22.278L140.26,22.278L140.677,22.278L141.11,22.278L141.975,22.278L142.408,22.278L142.856,22.278L143.274,22.278" stroke="#4c78a8" stroke-width="2"/></g></g><path class="foreground" aria-hidden="true" d="" display="none"/></g><g transform="translate(0,0)"><path class="background" aria-hidden="true" d="M0,0h200v200h-200Z"/><g><g class="mark-line role-mark child_marks" role="graphics-object" aria-roledescription="line mark container"><path aria-label="Time: Sep 14, 2023; Price: 6495; item: PARIS_ST._GERMAIN_CITY_MADE_PONCHO_-_Veste_de_survêtement_-_aura_white" role="graphics-symbol" aria-roledescription="line mark" d="M38.081,127.833L38.513,127.833L38.962,127.833L39.38,127.833L39.812,127.833L40.678,127.833L41.111,127.833L43.275,127.833L46.305,127.833L46.747,127.833L47.171,127.833L47.604,127.833L48.47,127.833L48.903,127.833L49.352,127.833L49.769,127.833L50.202,127.833L51.067,127.833L51.5,127.833L51.949,127.833L52.366,127.833L52.799,127.833L53.664,127.833L54.098,127.833L54.547,127.833L54.963,127.833L55.396,127.833L56.262,127.833L56.695,127.833L57.144,127.833L57.561,127.833L57.994,127.833L58.86,127.833L59.292,127.833L59.74,127.833L60.158,127.833L60.591,127.833L61.457,127.833L61.89,127.833L62.331,127.833L62.756,127.833L63.189,127.833L64.054,127.833L64.487,127.833L64.929,127.833L65.353,127.833L65.785,127.833L66.652,127.833L67.085,127.833L67.534,127.833L67.95,127.833L68.383,127.833L69.249,127.833L69.682,127.833L70.132,127.833" stroke="#b279a2" stroke-width="2"/></g></g><path class="foreground" aria-hidden="true" d="" display="none"/></g><g transform="translate(0,0)"><path class="background" aria-hidden="true" d="M0,0h200v200h-200Z"/><g><g class="mark-line role-mark child_marks" role="graphics-object" aria-roledescription="line mark container"><path aria-label="Time: Sep 18, 2023; Price: 8995; item: HIKING_BACKPACK_PONCHO_-_Veste_imperméable_-_indian_red" role="graphics-symbol" aria-roledescription="line mark" d="M48.47,100.056L48.903,100.056L49.352,100.056L49.769,100.056L50.202,100.056L51.067,100.056L51.5,100.056L67.95,100.056L68.383,100.056L69.249,100.056L69.682,100.056L70.132,100.056L70.547,100.056L70.981,100.056L71.846,111.167L72.279,111.167L72.728,111.167L73.145,111.167L114.287,111.167L114.703,111.167L115.136,111.167L116.002,111.167L116.435,111.167L116.877,111.167L117.3,111.167L117.733,111.167L118.599,111.167" stroke="#eeca3b" stroke-width="2"/></g></g><path class="foreground" aria-hidden="true" d="" display="none"/></g><g transform="translate(0,0)"><path class="background" aria-hidden="true" d="M0,0h200v200h-200Z"/><g><g class="mark-line role-mark child_marks" role="graphics-object" aria-roledescription="line mark container"><path aria-label="Time: Sep 26, 2023; Price: 6495; item: PSG_M_NSW_CITY_MADE_PONCHO_-_Veste_de_survêtement_-_aura_white" role="graphics-symbol" aria-roledescription="line mark" d="M70.547,127.833L70.981,127.833L71.846,91.167L72.279,91.167L72.728,91.167L73.145,91.167L73.579,91.167L74.444,91.167L74.876,91.167L75.325,91.167L75.742,91.167L77.041,91.167L77.474,91.167L77.921,91.167L78.34,91.167L78.773,91.167L79.638,91.167L80.071,91.167L80.513,91.167L80.937,91.167L81.37,91.167L82.236,91.167L82.669,91.167L83.112,91.167L83.534,91.167L83.968,91.167L84.833,127.833L85.266,127.833L85.715,127.833L86.132,127.833L86.565,127.833L87.431,127.833L87.864,127.833L88.313,127.833L88.73,127.833L89.162,127.833L90.027,127.833L90.461,127.833L90.912,127.833L91.327,127.833L91.76,127.833L92.625,127.833L93.058,127.833L93.51,127.833L93.924,127.833L94.358,127.833L95.223,127.833L95.656,127.833L96.105,127.833L96.522,127.833L96.955,127.833L97.82,127.833L98.254,127.833L98.696,127.833L99.118,127.833L99.552,127.833L100.418,127.833L100.85,127.833L101.717,127.833L102.149,127.833L103.015,127.833L103.448,127.833L103.9,127.833L104.314,127.833L104.746,127.833L105.613,84.5L106.045,84.5L106.496,84.5L107.344,84.5L108.21,84.5L108.643,84.5L109.092,84.5L109.508,84.5L109.942,84.5L110.807,84.5L111.24,84.5L113.405,84.5L114.703,84.5L117.3,127.833L118.599,127.833L121.63,127.833L122.079,127.833L138.512,127.833L139.378,127.833L139.811,127.833L140.26,127.833L142.408,127.833L142.856,127.833L145.871,127.833L146.305,127.833L148.05,127.833L148.901,127.833L149.767,127.833L150.646,127.833L152.798,127.833L154.097,127.833L154.962,127.833L155.395,127.833L155.838,127.833L156.693,127.833L157.993,127.833L159.291,127.833L160.157,127.833L160.59,127.833L161.037,127.833L161.456,127.833L161.888,127.833L162.754,127.833L163.187,127.833L163.634,127.833L164.053,127.833L164.486,127.833L165.352,127.833L165.784,127.833L166.231,127.833L166.65,127.833L167.083,127.833L167.949,127.833L168.382,127.833L168.831,127.833L169.248,127.833L169.681,127.833L170.546,127.833L170.98,127.833L171.422,127.833L171.845,127.833L172.278,127.833L173.144,127.833L173.576,127.833L174.019,127.833L174.443,127.833L174.875,127.833L175.74,127.833L176.174,127.833L176.624,127.833L177.04,127.833L177.473,127.833L178.339,127.833L178.772,127.833L179.219,127.833L179.637,127.833L180.07,127.833L180.936,127.833L181.816,127.833L182.234,127.833L182.667,127.833L184.412,127.833L184.832,127.833L186.131,84.5L187.011,84.5L187.862,84.5L190.459,84.5L193.056,84.5L194.804,127.833L196.519,127.833L196.953,127.833L197.401,127.833L198.251,127.833L199.117,127.833L199.55,127.833L200,127.833" stroke="#ff9da6" stroke-width="2"/></g></g><path class="foreground" aria-hidden="true" d="" display="none"/></g><g transform="translate(0,0)"><path class="background" aria-hidden="true" d="M0,0h200v200h-200Z"/><g><g class="mark-line role-mark child_marks" role="graphics-object" aria-roledescription="line mark container"><path aria-label="Time: Oct 12, 2023; Price: 4995; item: SHOWERPROOF_PONCHO_UNISEX_-_Cape_-_classic_tartan" role="graphics-symbol" aria-roledescription="line mark" d="M110.807,144.5L111.24,144.5L111.69,144.5L112.106,144.5L112.539,144.5L113.405,144.5L113.838,144.5L114.287,144.5L114.703,144.5L115.136,144.5L116.002,144.5L116.435,144.5L116.877,144.5L117.3,144.5L117.733,144.5L118.599,144.5L119.032,144.5L119.474,144.5L119.897,144.5L120.331,144.5L121.197,152.611L121.63,152.611L122.079,152.611L122.495,152.611L122.928,152.611L123.794,152.611L124.226,152.611L124.676,152.611L125.093,152.611L125.525,152.611L126.392,152.611L126.824,152.611L127.273,152.611L127.69,152.611L128.123,152.611L128.989,152.611L129.421,152.611L129.871,152.611L130.287,152.611L130.72,152.611L131.586,152.611L132.02,152.611L132.468,152.611L132.884,152.611L133.317,152.611L134.183,152.611L134.616,152.611L135.058,152.611L135.482,152.611L135.914,152.611L136.781,144.5L137.213,144.5L137.656,144.5L138.079,144.5L138.512,144.5L139.378,144.5L139.811,144.5L140.26,144.5L140.677,144.5L141.11,144.5L141.975,152.611L142.408,152.611L142.856,152.611L143.274,152.611L143.707,152.611L144.573,152.611L145.006,152.611L145.453,152.611L145.871,152.611L146.305,152.611L147.17,152.611L147.603,152.611L148.05,152.611L148.469,152.611L148.901,152.611L149.767,152.611L150.202,152.611L150.646,152.611L151.066,152.611L151.499,152.611L152.364,152.611L152.798,152.611L153.239,152.611L153.663,152.611L154.097,152.611L154.962,152.611L155.395,152.611L155.838,152.611L156.261,152.611L156.693,152.611L157.56,144.5L157.993,144.5L158.439,144.5L158.859,144.5L159.291,144.5L160.157,144.5L160.59,144.5L161.037,144.5L161.456,144.5L161.888,144.5L162.754,152.611L163.187,152.611L163.634,152.611L164.053,152.611L164.486,152.611L165.352,152.611L165.784,152.611L166.231,152.611L166.65,152.611L167.083,152.611L167.949,152.611L168.382,152.611L168.831,152.611L169.248,152.611L169.681,152.611L170.546,152.611L170.98,152.611L171.422,152.611L171.845,152.611L172.278,152.611L173.144,152.611L173.576,152.611L174.019,152.611L174.443,152.611L174.875,152.611L175.74,152.611L176.174,152.611L176.624,152.611L177.04,152.611L177.473,152.611L178.339,150.056L178.772,144.5L179.219,144.5L179.637,144.5L180.07,144.5L180.936,144.5L181.369,144.5L181.816,144.5L182.234,144.5L182.667,144.5L183.533,144.5L183.966,144.5L184.412,144.5L184.832,144.5L185.265,144.5L186.131,144.5L186.564,144.5L187.011,144.5L187.429,144.5L187.862,144.5L188.728,144.5L189.161,144.5L189.603,144.5L190.459,144.5L191.325,144.5L191.758,144.5L192.201,144.5L192.624,144.5L193.056,144.5L193.922,144.5L194.355,144.5L194.804,144.5L195.221,144.5L196.519,144.5L196.953,144.5L197.401,144.5L197.819,144.5L198.251,144.5L199.117,144.5L199.55,144.5L200,144.5" stroke="#bab0ac" stroke-width="2"/></g></g><path class="foreground" aria-hidden="true" d="" display="none"/></g><g transform="translate(0,0)"><path class="background" aria-hidden="true" d="M0,0h200v200h-200Z"/><g><g class="mark-line role-mark child_marks" role="graphics-object" aria-roledescription="line mark container"><path aria-label="Time: Oct 12, 2023; Price: 13995; item: PONCHO_-_Cape_-_lucid_blue" role="graphics-symbol" aria-roledescription="line mark" d="M110.807,44.5L113.838,44.5L114.703,44.5L116.002,91.167L117.3,91.167L119.032,91.167L119.474,91.167L119.897,91.167L120.331,91.167L121.197,91.167L121.63,91.167L122.079,91.167L122.495,91.167L122.928,91.167L123.794,91.167L124.226,91.167L124.676,91.167L125.093,91.167L125.525,91.167L126.392,91.167L126.824,91.167L127.273,91.167L127.69,91.167L128.123,91.167L128.989,91.167L129.421,91.167L129.871,91.167L130.72,91.167L132.884,91.167L133.317,91.167L134.183,91.167L135.482,91.167L136.781,91.167L137.213,91.167L137.656,91.167L138.079,91.167L138.512,91.167L140.677,91.167L141.975,114.5L142.408,114.5L143.707,114.5L145.006,114.5L145.453,114.5L145.871,114.5L147.17,114.5L149.767,114.5L150.202,114.5L150.646,114.5L151.066,114.5L151.499,114.5L152.364,114.5L152.798,114.5L153.239,114.5L153.663,114.5L154.097,114.5L154.962,114.5L155.395,114.5L155.838,114.5L156.261,114.5L156.693,114.5L157.56,114.5L157.993,114.5L158.439,114.5L158.859,114.5L159.291,114.5L160.157,114.5L160.59,114.5L161.037,114.5L161.456,114.5L161.888,114.5L162.754,114.5L163.187,114.5L163.634,114.5L164.053,114.5L164.486,114.5L165.352,83.389L165.784,83.389L167.083,83.389L167.949,83.389L170.546,83.389L170.98,83.389L171.845,83.389L172.278,83.389L173.144,83.389L173.576,83.389L174.019,83.389L174.443,83.389L174.875,83.389L175.74,83.389L176.174,83.389L177.473,83.389L178.339,44.5L178.772,44.5L179.219,44.5L179.637,44.5L180.07,44.5L180.936,44.5L181.369,44.5L181.816,44.5L182.234,44.5L182.667,44.5L183.533,44.5L183.966,44.5L184.412,44.5L184.832,44.5L185.265,44.5L186.131,122.278L187.011,122.278L187.862,122.278L189.161,122.278L189.603,122.278L190.459,122.278L191.325,122.278L191.758,122.278L192.201,122.278L192.624,122.278L193.056,122.278L193.922,44.5L194.355,44.5L194.804,44.5L195.221,44.5L196.519,44.5L196.953,44.5L197.401,44.5L197.819,44.5L198.251,44.5L199.117,44.5L199.55,44.5L200,44.5" stroke="#72b7b2" stroke-width="2"/></g></g><path class="foreground" aria-hidden="true" d="" display="none"/></g></g><g class="mark-group role-legend" role="graphics-symbol" aria-roledescription="legend" aria-label="Symbol legend titled 'item' for stroke color with 10 values: KUURA_3L_PONCHO_UNISEX_-_Veste_imperméable_-_green, DESCHUTES_VALLEY™_RAIN_PONCHO_-_Parka_-_vista_blue, DESCHUTES_VALLEY™_RAIN_PONCHO_-_Parka_-_black, PONCHO_-_Cape_-_lucid_blue, HIKING_BACKPACK_PONCHO_-_Veste_imperméable_-_blue, ending with SHOWERPROOF_PONCHO_UNISEX_-_Cape_-_classic_tartan"><g transform="translate(220,0)"><path class="background" aria-hidden="true" d="M0,0h328v144h-328Z" pointer-events="none"/><g><g class="mark-group role-legend-entry"><g transform="translate(0,16)"><path class="background" aria-hidden="true" d="M0,0h0v0h0Z" pointer-events="none"/><g><g class="mark-group role-scope" role="graphics-object" aria-roledescription="group mark container"><g transform="translate(0,0)"><path class="background" aria-hidden="true" d="M0,0h328v11h-328Z" pointer-events="none" opacity="1"/><g><g class="mark-symbol role-legend-symbol" pointer-events="none"><path transform="translate(6,6)" d="M-5,0L5,0" stroke="#4c78a8" stroke-width="1.5" opacity="1"/></g><g class="mark-text role-legend-label" pointer-events="none"><text text-anchor="start" transform="translate(16,9)" font-family="Liberation Mono" font-size="10px" fill="#000" opacity="1">KUURA_3L_PONCHO_UNISEX_-_Veste_impermé…</text></g></g><path class="foreground" aria-hidden="true" d="" pointer-events="none" display="none"/></g><g transform="translate(0,13)"><path class="background" aria-hidden="true" d="M0,0h328v11h-328Z" pointer-events="none" opacity="1"/><g><g class="mark-symbol role-legend-symbol" pointer-events="none"><path transform="translate(6,6)" d="M-5,0L5,0" stroke="#f58518" stroke-width="1.5" opacity="1"/></g><g class="mark-text role-legend-label" pointer-events="none"><text text-anchor="start" transform="translate(16,9)" font-family="Liberation Mono" font-size="10px" fill="#000" opacity="1">DESCHUTES_VALLEY™_RAIN_PONCHO_-_Parka_…</text></g></g><path class="foreground" aria-hidden="true" d="" pointer-events="none" display="none"/></g><g transform="translate(0,26)"><path class="background" aria-hidden="true" d="M0,0h328v11h-328Z" pointer-events="none" opacity="1"/><g><g class="mark-symbol role-legend-symbol" pointer-events="none"><path transform="translate(6,6)" d="M-5,0L5,0" stroke="#e45756" stroke-width="1.5" opacity="1"/></g><g class="mark-text role-legend-label" pointer-events="none"><text text-anchor="start" transform="translate(16,9)" font-family="Liberation Mono" font-size="10px" fill="#000" opacity="1">DESCHUTES_VALLEY™_RAIN_PONCHO_-_Parka_…</text></g></g><path class="foreground" aria-hidden="true" d="" pointer-events="none" display="none"/></g><g transform="translate(0,39)"><path class="background" aria-hidden="true" d="M0,0h328v11h-328Z" pointer-events="none" opacity="1"/><g><g class="mark-symbol role-legend-symbol" pointer-events="none"><path transform="translate(6,6)" d="M-5,0L5,0" stroke="#72b7b2" stroke-width="1.5" opacity="1"/></g><g class="mark-text role-legend-label" pointer-events="none"><text text-anchor="start" transform="translate(16,9)" font-family="Liberation Mono" font-size="10px" fill="#000" opacity="1">PONCHO_-_Cape_-_lucid_blue</text></g></g><path class="foreground" aria-hidden="true" d="" pointer-events="none" display="none"/></g><g transform="translate(0,52)"><path class="background" aria-hidden="true" d="M0,0h328v11h-328Z" pointer-events="none" opacity="1"/><g><g class="mark-symbol role-legend-symbol" pointer-events="none"><path transform="translate(6,6)" d="M-5,0L5,0" stroke="#54a24b" stroke-width="1.5" opacity="1"/></g><g class="mark-text role-legend-label" pointer-events="none"><text text-anchor="start" transform="translate(16,9)" font-family="Liberation Mono" font-size="10px" fill="#000" opacity="1">HIKING_BACKPACK_PONCHO_-_Veste_impermé…</text></g></g><path class="foreground" aria-hidden="true" d="" pointer-events="none" display="none"/></g><g transform="translate(0,65)"><path class="background" aria-hidden="true" d="M0,0h328v11h-328Z" pointer-events="none" opacity="1"/><g><g class="mark-symbol role-legend-symbol" pointer-events="none"><path transform="translate(6,6)" d="M-5,0L5,0" stroke="#eeca3b" stroke-width="1.5" opacity="1"/></g><g class="mark-text role-legend-label" pointer-events="none"><text text-anchor="start" transform="translate(16,9)" font-family="Liberation Mono" font-size="10px" fill="#000" opacity="1">HIKING_BACKPACK_PONCHO_-_Veste_impermé…</text></g></g><path class="foreground" aria-hidden="true" d="" pointer-events="none" display="none"/></g><g transform="translate(0,78)"><path class="background" aria-hidden="true" d="M0,0h328v11h-328Z" pointer-events="none" opacity="1"/><g><g class="mark-symbol role-legend-symbol" pointer-events="none"><path transform="translate(6,6)" d="M-5,0L5,0" stroke="#b279a2" stroke-width="1.5" opacity="1"/></g><g class="mark-text role-legend-label" pointer-events="none"><text text-anchor="start" transform="translate(16,9)" font-family="Liberation Mono" font-size="10px" fill="#000" opacity="1">PARIS_ST._GERMAIN_CITY_MADE_PONCHO_-_V…</text></g></g><path class="foreground" aria-hidden="true" d="" pointer-events="none" display="none"/></g><g transform="translate(0,91)"><path class="background" aria-hidden="true" d="M0,0h328v11h-328Z" pointer-events="none" opacity="1"/><g><g class="mark-symbol role-legend-symbol" pointer-events="none"><path transform="translate(6,6)" d="M-5,0L5,0" stroke="#ff9da6" stroke-width="1.5" opacity="1"/></g><g class="mark-text role-legend-label" pointer-events="none"><text text-anchor="start" transform="translate(16,9)" font-family="Liberation Mono" font-size="10px" fill="#000" opacity="1">PSG_M_NSW_CITY_MADE_PONCHO_-_Veste_de_…</text></g></g><path class="foreground" aria-hidden="true" d="" pointer-events="none" display="none"/></g><g transform="translate(0,104)"><path class="background" aria-hidden="true" d="M0,0h328v11h-328Z" pointer-events="none" opacity="1"/><g><g class="mark-symbol role-legend-symbol" pointer-events="none"><path transform="translate(6,6)" d="M-5,0L5,0" stroke="#9d755d" stroke-width="1.5" opacity="1"/></g><g class="mark-text role-legend-label" pointer-events="none"><text text-anchor="start" transform="translate(16,9)" font-family="Liberation Mono" font-size="10px" fill="#000" opacity="1">COVERO_PONCHO_II_-_Cape_-_lightgrey</text></g></g><path class="foreground" aria-hidden="true" d="" pointer-events="none" display="none"/></g><g transform="translate(0,117)"><path class="background" aria-hidden="true" d="M0,0h328v11h-328Z" pointer-events="none" opacity="1"/><g><g class="mark-symbol role-legend-symbol" pointer-events="none"><path transform="translate(6,6)" d="M-5,0L5,0" stroke="#bab0ac" stroke-width="1.5" opacity="1"/></g><g class="mark-text role-legend-label" pointer-events="none"><text text-anchor="start" transform="translate(16,9)" font-family="Liberation Mono" font-size="10px" fill="#000" opacity="1">SHOWERPROOF_PONCHO_UNISEX_-_Cape_-_cla…</text></g></g><path class="foreground" aria-hidden="true" d="" pointer-events="none" display="none"/></g></g></g><path class="foreground" aria-hidden="true" d="" pointer-events="none" display="none"/></g></g><g class="mark-text role-legend-title" pointer-events="none"><text text-anchor="start" transform="translate(0,9)" font-family="Liberation Mono" font-size="11px" font-weight="bold" fill="#000" opacity="1">item</text></g></g><path class="foreground" aria-hidden="true" d="" pointer-events="none" display="none"/></g></g></g><path class="foreground" aria-hidden="true" d="" display="none"/></g></g></g><path class="foreground" aria-hidden="true" d="" display="none"/></g></g></g></svg>