<svg xmlns="http://www.w3.org/2000/svg" xmlns:xlink="http://www.w3.org/1999/xlink" version="1.1" class="marks" width="658" height="244" viewBox="0 0 658 244"><rect width="658" height="244" fill="white"/><g fill="none" stroke-miterlimit="10" transform="translate(104,6)"><g class="mark-group role-frame root" role="graphics-object" aria-roledescription="group mark container"><g transform="translate(0,0)"><path class="background" aria-hidden="true" d="M0,0h0v0h0Z"/><g><g class="mark-group role-row-title row-title" role="graphics-object" aria-roledescription="group mark container"><g transform="translate(-78,116)"><path class="background" aria-hidden="true" d="M0,0h0v0h0Z"/><g><g class="mark-group role-title"><g transform="translate(-21.000000000000004,0)"><path class="background" aria-hidden="true" d="M0,0h0v0h0Z" pointer-events="none"/><g><g class="mark-text role-title-text" role="graphics-symbol" aria-roledescription="title" aria-label="Title text 'group'" pointer-events="none"><text text-anchor="middle" transform="translate(0,0) rotate(-90) translate(0,9)" font-family="Liberation Mono" font-size="11px" font-weight="bold" fill="#000" opacity="1">group</text></g></g><path class="foreground" aria-hidden="true" d="" pointer-events="none" display="none"/></g></g></g><path class="foreground" aria-hidden="true" d="" display="none"/></g></g><g class="mark-group role-row-header row_header" role="graphics-object" aria-roledescription="group mark container"><g transform="translate(-47,0)"><path class="background" aria-hidden="true" d="M0,0h0v200h0Z"/><g><g class="mark-group role-title"><g transform="translate(-20.000000000000007,100)"><path class="background" aria-hidden="true" d="M0,0h0v0h0Z" pointer-events="none"/><g><g class="mark-text role-title-text" role="graphics-symbol" aria-roledescription="title" aria-label="Title text 'zalando-poncho'" pointer-events="none"><text text-anchor="middle" transform="translate(0,0) rotate(-90) translate(0,8)" font-family="Liberation Mono" font-size="10px" fill="#000" opacity="1">zalando-poncho</text></g></g><path class="foreground" aria-hidden="true" d="" pointer-events="none" display="none"/></g></g></g><path class="foreground" aria-hidden="true" d="" display="none"/></g></g><g class="mark-group role-scope cell" role="graphics-object" aria-roledescription="group mark container"><g transform="translate(0,0)"><path class="background" aria-hidden="true" d="M0.5,0.5h200v200h-200Z" stroke="#ddd"/><g><g class="mark-group role-axis" aria-hidden="true"><g transform="translate(0.5,200.5)"><path class="background" aria-hidden="true" d="M0,0h0v0h0Z" pointer-events="none"/><g><g class="mark-rule role-axis-grid" pointer-events="none"><line transform="translate(2,-200)" x2="0" y2="200" stroke="#ddd" stroke-width="1" opacity="1"/><line transform="translate(43,-200)" x2="0" y2="200" stroke="#ddd" stroke-width="1" opacity="1"/><line transform="translate(86,-200)" x2="0" y2="200" stroke="#ddd" stroke-width="1" opacity="1"/><line transform="translate(128,-200)" x2="0" y2="200" stroke="#ddd" stroke-width="1" opacity="1"/><line transform="translate(171,-200)" x2="0" y2="200" stroke="#ddd" stroke-width="1" opacity="1"/></g></g><path class="foreground" aria-hidden="true" d="" pointer-events="none" display="none"/></g></g><g class="mark-group role-axis" aria-hidden="true"><g transform="translate(0.5,0.5)"><path class="background" aria-hidden="true" d="M0,0h0v0h0Z" pointer-events="none"/><g><g class="mark-rule role-axis-grid" pointer-events="none"><line transform="translate(0,200)" x2="200" y2="0" stroke="#ddd" stroke-width="1" opacity="1"/><line transform="translate(0,144)" x2="200" y2="0" stroke="#ddd" stroke-width="1" opacity="1"/><line transform="translate(0,89)" x2="200" y2="0" stroke="#ddd" stroke-width="1" opacity="1"/><line transform="translate(0,33)" x2="200" y2="0" stroke="#ddd" stroke-width="1" opacity="1"/></g></g><path class="foreground" aria-hidden="true" d="" pointer-events="none" display="none"/></g></g><g class="mark-group role-axis" role="graphics-symbol" aria-roledescription="axis" aria-label="X-axis titled 'Time' for a time scale with values from Wednesday, 30 August 2023, 12:58:24 PM to Monday, 22 January 2024, 4:50:13 AM"><g transform="translate(0.5,200.5)"><path class="background" aria-hidden="true" d="M0,0h0v0h0Z" pointer-events="none"/><g><g class="mark-rule role-axis-tick" pointer-events="none"><line transform="translate(2,0)" x2="0" y2="5" stroke="#888" stroke-width="1" opacity="1"/><line transform="translate(43,0)" x2="0" y2="5" stroke="#888" stroke-width="1" opacity="1"/><line transform="translate(86,0)" x2="0" y2="5" stroke="#888" stroke-width="1" opacity="1"/><line transform="translate(128,0)" x2="0" y2="5" stroke="#888" stroke-width="1" opacity="1"/><line transform="translate(171,0)" x2="0" y2="5" stroke="#888" stroke-width="1" opacity="1"/></g><g class="mark-text role-axis-label" pointer-events="none"><text text-anchor="middle" transform="translate(2.017743771011767,15)" font-family="Liberation Mono" font-size="10px" fill="#000" opacity="1">September</text><text text-anchor="middle" transform="translate(43.49402453131283,15)" font-family="Liberation Mono" font-size="10px" fill="#000" opacity="0">October</text><text text-anchor="middle" transform="translate(86.35284798362393,15)" font-family="Liberation Mono" font-size="10px" fill="#000" opacity="1">November</text><text text-anchor="middle" transform="translate(127.829128743925,15)" font-family="Liberation Mono" font-size="10px" fill="#000" opacity="0">December</text><text text-anchor="middle" transform="translate(170.6879521962361,15)" font-family="Liberation Mono" font-size="10px" fill="#000" opacity="1">2024</text></g><g class="mark-rule role-axis-domain" pointer-events="none"><line transform="translate(0,0)" x2="200" y2="0" stroke="#888" stroke-width="1" opacity="1"/></g><g class="mark-text role-axis-title" pointer-events="none"><text text-anchor="middle" transform="translate(100,30)" font-family="Liberation Mono" font-size="11px" font-weight="bold" fill="#000" opacity="1">Time</text></g></g><path class="foreground" aria-hidden="true" d="" pointer-events="none" display="none"/></g></g><g class="mark-group role-axis" role="graphics-symbol" aria-roledescription="axis" aria-label="Y-axis titled 'Price' for a linear scale with values from 0 to 18,000"><g transform="translate(0.5,0.5)"><path class="background" aria-hidden="true" d="M0,0h0v0h0Z" pointer-events="none"/><g><g class="mark-rule role-axis-tick" pointer-events="none"><line transform="translate(0,200)" x2="-5" y2="0" stroke="#888" stroke-width="1" opacity="1"/><line transform="translate(0,144)" x2="-5" y2="0" stroke="#888" stroke-width="1" opacity="1"/><line transform="translate(0,89)" x2="-5" y2="0" stroke="#888" stroke-width="1" opacity="1"/><line transform="translate(0,33)" x2="-5" y2="0" stroke="#888" stroke-width="1" opacity="1"/></g><g class="mark-text role-axis-label" pointer-events="none"><text text-anchor="end" transform="translate(-7,203)" font-family="Liberation Mono" font-size="10px" fill="#000" opacity="1">0</text><text text-anchor="end" transform="translate(-7,147.44444444444443)" font-family="Liberation Mono" font-size="10px" fill="#000" opacity="1">50</text><text text-anchor="end" transform="translate(-7,91.88888888888889)" font-family="Liberation Mono" font-size="10px" fill="#000" opacity="1">100</text><text text-anchor="end" transform="translate(-7,36.33333333333333)" font-family="Liberation Mono" font-size="10px" fill="#000" opacity="1">150</text></g><g class="mark-rule role-axis-domain" pointer-events="none"><line transform="translate(0,200)" x2="0" y2="-200" stroke="#888" stroke-width="1" opacity="1"/></g><g class="mark-text role-axis-title" pointer-events="none"><text text-anchor="middle" transform="translate(-35,100) rotate(-90) translate(0,-2)" font-family="Liberation Mono" font-size="11px" font-weight="bold" fill="#000" opacity="1">Price</text></g></g><path class="foreground" aria-hidden="true" d="" pointer-events="none" display="none"/></g></g><g class="mark-group role-scope child_pathgroup" role="graphics-object" aria-roledescription="group mark container"><g transform="translate(0,0)"><path class="background" aria-hidden="true" d="M0,0h200v200h-200Z"/><g><g class="mark-line role-mark child_marks" role="graphics-object" aria-roledescription="line mark container"><path aria-label="Time: Aug 30, 2023; Price: 10795; item: DESCHUTES_VALLEY™_RAIN_PONCHO_-_Parka_-_black" role="graphics-symbol" aria-roledescription="line mark" d="M0,80.056L0.224,80.056L0.454,80.056L0.915,80.056L1.145,80.056L1.383,80.056L1.606,80.056L1.836,80.056L2.298,80.056L2.527,80.056L2.765,80.056L2.988,80.056L3.219,80.056L3.68,80.056L3.91,80.056L4.145,80.056L4.37,80.056L4.601,80.056L5.062,80.056L5.458,80.056L5.528,80.056L5.753,80.056L5.984,80.056L6.445,80.056L6.676,80.056L6.913,80.056L7.136,80.056L7.366,80.056L7.828,50.056L8.059,50.056L8.296,50.056L8.519,50.056L8.749,50.056L9.21,50.056L9.44,50.056L9.679,50.056L9.901,50.056L10.131,50.056L10.593,50.056L10.823,50.056L11.06,50.056L11.284,50.056L11.514,50.056L12.12,50.056L12.205,50.056L12.442,50.056L12.666,50.056L12.896,50.056L13.357,50.056L13.588,50.056L13.822,50.056L14.048,50.056L14.279,50.056L14.74,50.056L14.97,50.056L15.205,50.056L15.431,50.056L15.661,50.056L16.122,50.056L16.352,50.056L16.592,50.056L16.813,50.056L17.044,50.056L17.505,50.056L17.735,50.056L17.973,50.056L18.196,50.056L18.427,50.056L18.887,20.056L19.118,20.056L19.356,20.056L19.478,20.056L19.579,20.056L19.809,20.056L20.27,20.056L20.5,20.056L20.739,20.056L20.961,20.056L21.191,20.056L21.652,20.056L21.883,20.056L22.121,20.056L22.343,20.056L22.574,20.056L23.035,20.056L23.265,20.056L23.5,20.056L23.726,20.056L23.956,20.056L24.417,20.056L24.648,20.056L24.883,20.056L25.108,20.056L25.339,20.056L25.8,20.056L26.03,20.056L26.269,20.056L26.491,20.056L26.722,20.056L27.182,20.056L27.413,20.056L27.652,20.056L27.874,20.056L28.104,20.056L28.565,20.056L28.796,20.056L29.034,20.056L29.256,20.056L29.487,20.056L29.947,20.056L30.178,20.056L30.417,20.056L30.639,20.056L30.869,20.056L31.33,20.056L31.56,20.056L31.799,20.056L32.021,20.056L32.252,20.056L32.712,20.056L32.943,20.056L33.178,20.056L33.404,20.056L33.634,20.056L34.095,20.056L34.326,20.056L34.561,20.056L34.786,20.056L35.017,20.056L35.478,20.056L35.708,20.056L35.947,20.056L36.169,20.056L36.399,20.056L36.86,20.056L37.091,20.056L37.33,20.056L37.551,20.056L37.782,20.056L38.243,40.056L38.473,40.056L38.712,40.056L38.934,40.056L39.165,40.056L39.625,40.056L39.856,40.056L40.095,40.056L40.316,40.056L41.008,40.056L41.238,40.056L41.476,40.056L41.699,40.056L41.93,40.056L42.39,40.056L42.621,40.056L42.856,40.056L43.081,40.056L43.312,40.056L43.773,40.056L44.003,40.056L44.239,40.056L44.464,40.056L44.695,40.056L45.155,100.056L45.386,100.056L45.625,100.056L45.847,100.056L46.077,100.056L46.538,90.056L46.769,90.056L47.008,90.056L47.23,90.056L47.46,90.056L47.92,90.056L48.151,90.056L48.391,90.056L48.612,90.056L48.842,90.056L49.303,90.056L49.533,90.056L49.774,90.056L49.994,90.056L50.225,90.056L50.686,90.056L50.916,90.056L51.155,90.056L51.377,90.056L51.608,90.056L52.068,90.056L52.299,90.056L52.534,90.056L52.759,90.056L52.99,90.056L53.451,90.056L53.681,90.056L54.142,90.056L54.372,90.056L54.833,90.056L55.064,90.056L55.305,90.056L55.525,90.056L55.755,90.056L56.216,100.056L56.446,100.056L56.686,100.056L56.907,100.056L57.137,100.056L57.598,100.056L57.829,100.056L58.068,100.056L58.29,100.056L58.52,100.056L58.981,100.056L59.211,100.056L59.451,100.056L59.672,100.056L59.903,100.056L60.364,100.056L60.594,100.056L60.833,100.056L61.055,100.056L61.285,100.056L61.746,100.056L61.977,100.056L62.212,100.056L62.437,100.056L62.668,100.056L63.129,100.056L63.359,100.056L63.594,100.056L63.82,100.056L64.05,100.056L64.511,90.056L64.742,90.056L64.981,90.056L65.202,90.056L65.433,90.056L65.894,90.056L66.124,90.056L66.363,90.056L66.585,90.056L66.815,90.056L67.276,90.056L67.507,90.056L67.746,90.056L67.967,90.056L68.198,90.056L68.659,90.056L68.889,90.056L69.129,90.056L69.35,90.056L69.58,90.056L70.042,90.056L70.272,90.056L70.511,90.056L70.732,90.056L70.963,90.056L71.424,90.056L71.654,90.056L71.89,90.056L72.115,90.056L72.345,90.056L72.806,90.056L73.037,90.056L73.272,90.056L73.497,90.056L73.728,90.056L74.189,90.056L74.419,90.056L74.658,90.056L74.88,90.056L75.111,90.056L75.571,50.056L75.802,50.056L76.04,50.056L76.262,50.056L76.493,50.056L76.954,50.056L77.184,50.056L77.423,50.056L77.645,50.056L77.876,50.056L78.336,50.056L78.567,50.056L78.805,50.056L79.028,50.056L79.258,50.056L79.719,50.056L79.95,50.056L80.187,50.056L80.41,50.056L80.641,50.056L81.101,50.056L81.332,50.056L81.567,50.056L81.793,50.056L82.023,50.056L82.484,50.056L82.714,50.056L82.95,50.056L83.175,50.056L83.406,50.056L83.867,50.056L84.097,50.056L84.335,50.056L84.558,50.056L84.788,50.056L85.249,50.056L85.48,50.056L85.717,50.056L85.941,50.056L86.171,50.056L86.632,50.056L86.862,50.056L87.1,50.056L87.323,50.056L87.553,50.056L88.014,40.056L88.245,40.056L88.482,40.056L88.706,40.056L90.088,40.056L90.319,40.056L90.779,40.056L91.245,40.056L91.47,40.056L97.001,40.056L97.231,40.056L97.692,40.056L97.922,40.056L98.16,40.056L98.383,40.056L98.614,40.056L99.075,70.056L99.305,70.056L99.543,70.056L99.766,70.056L99.996,70.056L100.457,70.056L100.688,70.056L100.923,70.056L101.379,70.056L101.839,70.056L102.07,70.056L102.306,70.056L102.531,70.056L102.761,70.056L103.222,40.056L103.453,40.056L103.691,40.056L103.913,40.056L104.604,40.056L104.835,40.056L105.073,40.056L105.296,40.056L105.526,40.056L105.987,40.056L106.217,40.056L106.457,40.056L106.679,40.056L106.909,40.056L107.37,50.056L107.6,50.056L107.839,50.056L108.061,50.056L108.291,50.056L108.752,50.056L108.983,50.056L109.222,50.056L109.443,50.056L109.674,50.056L110.135,40.056L110.365,40.056L110.602,40.056L110.826,40.056L111.057,40.056L111.518,40.056L111.748,40.056L111.984,40.056L112.209,40.056L112.439,40.056L112.9,40.056L113.13,40.056L113.371,40.056L113.591,40.056L113.821,40.056L114.282,40.056L114.513,40.056L114.753,60.056L114.974,60.056L115.204,60.056L115.665,60.056L115.896,60.056L116.135,60.056L116.356,60.056L116.587,60.056L117.047,60.056L117.278,60.056L117.517,80.056L117.739,80.056L117.969,80.056L118.43,80.056L118.661,80.056L118.898,80.056L119.121,80.056L119.352,80.056L119.813,70.056L120.043,70.056L120.279,70.056L120.504,70.056L120.734,70.056L121.195,70.056L121.426,70.056L121.662,70.056L121.886,70.056L122.117,70.056L122.578,40.056L122.808,40.056L123.048,40.056L123.269,40.056L123.499,40.056L123.96,40.056L124.191,40.056L124.429,40.056L124.652,40.056L124.882,40.056L125.343,40.056L125.573,40.056L125.812,40.056L126.034,40.056L126.265,40.056L126.725,40.056L126.956,40.056L127.195,40.056L127.417,40.056L127.647,40.056L128.108,40.056L128.338,40.056L128.577,40.056L128.799,40.056L129.03,40.056L129.491,40.056L129.721,40.056L129.956,40.056L130.182,40.056L130.412,40.056L130.873,40.056L131.103,40.056L131.34,40.056L131.565,40.056L131.795,40.056L132.255,40.056L132.486,40.056L132.725,40.056L132.947,40.056L133.177,40.056L133.638,50.056L133.868,50.056L134.108,50.056L134.329,50.056L134.56,50.056L135.02,50.056L135.251,50.056L135.49,50.056L135.712,50.056L135.942,50.056L136.403,50.056L136.633,50.056L136.873,50.056L137.094,50.056L137.325,50.056L137.786,50.056L138.016,50.056L138.254,50.056L138.477,50.056L138.707,50.056L139.168,50.056L139.399,50.056L139.635,50.056L139.86,50.056L140.09,50.056L140.551,50.056L140.781,50.056L141.017,50.056L141.242,50.056L141.472,50.056L141.933,50.056L142.164,50.056L142.403,50.056L143.316,50.056L143.546,50.056L143.785,50.056L144.007,50.056L144.237,50.056L144.698,50.056L144.929,50.056L145.168,50.056L145.39,50.056L145.62,50.056L146.081,50.056L146.311,50.056L146.55,50.056L146.772,50.056L147.003,50.056L147.463,50.056L147.694,50.056L147.932,50.056L148.155,50.056L148.385,50.056L148.846,50.056L149.076,50.056L149.312,50.056L149.537,50.056L149.768,50.056L150.228,50.056L150.459,50.056L150.695,50.056L150.92,50.056L151.15,50.056L151.611,50.056L151.842,50.056L152.081,50.056L152.302,50.056L152.533,50.056L152.994,50.056L153.224,50.056L153.462,50.056L153.685,50.056L153.915,50.056L154.376,50.056L154.607,50.056L154.839,50.056L155.067,50.056L155.298,50.056L155.759,50.056L155.989,50.056L156.45,50.056L156.68,50.056L157.141,50.056L157.372,50.056L157.609,50.056L157.832,50.056L158.063,50.056L158.524,50.056L158.754,50.056L158.99,50.056L159.215,50.056L159.445,50.056L159.906,50.056L160.137,50.056L160.372,50.056L160.597,50.056L160.828,50.056L161.289,50.056L161.52,50.056L161.756,50.056L161.98,50.056L162.211,50.056L162.671,50.056L162.902,50.056L163.138,50.056L163.363,50.056L163.593,50.056L164.054,50.056L164.284,50.056L164.521,50.056L164.745,50.056L164.976,50.056L165.436,60.056L165.667,60.056L165.903,60.056L166.128,60.056L166.358,60.056L166.819,60.056L167.049,60.056L167.287,60.056L167.511,60.056L167.741,60.056L168.202,60.056L168.432,60.056L168.668,60.056L168.893,60.056L169.123,60.056L169.584,60.056L169.815,60.056L170.05,60.056L170.275,60.056L170.506,60.056L170.967,60.056L171.197,60.056L171.434,60.056L171.658,60.056L171.888,60.056L172.349,60.056L172.579,60.056L172.817,60.056L173.04,60.056L173.271,60.056L173.732,90.056L173.962,90.056L174.2,90.056L174.423,90.056L174.653,90.056L175.114,90.056L175.345,90.056L175.582,90.056L175.806,90.056L191.705,60.056L191.935,60.056L192.174,60.056L192.396,60.056L192.627,60.056L193.087,60.056L193.318,60.056L193.557,60.056L193.778,60.056L194.009,60.056L194.47,60.056L194.7,60.056L194.939,60.056L195.161,60.056L195.392,60.056L195.853,100.056L196.083,100.056L196.321,100.056L196.544,100.056L196.774,100.056L197.235,100.056L197.465,100.056L197.702,100.056" stroke="#f58518" stroke-width="2"/></g></g><path class="foreground" aria-hidden="true" d="" display="none"/></g><g transform="translate(0,0)"><path class="background" aria-hidden="true" d="M0,0h200v200h-200Z"/><g><g class="mark-line role-mark child_marks" role="graphics-object" aria-roledescription="line mark container"><path aria-label="Time: Aug 30, 2023; Price: 8995; item: HIKING_BACKPACK_PONCHO_-_Veste_imperméable_-_blue" role="graphics-symbol" aria-roledescription="line mark" d="M0,100.056L0.224,100.056L0.454,100.056L0.915,100.056L1.145,100.056L1.383,100.056L1.606,100.056L1.836,100.056L2.298,100.056L2.527,100.056L2.765,100.056L2.988,100.056L3.219,100.056L3.68,100.056L3.91,100.056L4.145,100.056L4.37,100.056L4.601,100.056L5.062,100.056L5.458,100.056L5.528,100.056L16.352,100.056L16.592,100.056L16.813,100.056L17.044,100.056L17.505,100.056L17.735,100.056L17.973,100.056L18.196,100.056L18.427,100.056L18.887,100.056L19.118,100.056L19.356,100.056L19.478,100.056L19.579,100.056L19.809,100.056L20.27,100.056L20.5,100.056L20.739,100.056L20.961,100.056L21.191,100.056L21.652,100.056L21.883,100.056L22.121,100.056L22.343,100.056L22.574,100.056L23.035,100.056L23.265,100.056L23.5,100.056L23.726,100.056L23.956,100.056L24.417,100.056L24.648,100.056L40.316,111.167L41.008,111.167L41.238,111.167L41.476,111.167L41.699,111.167L41.93,111.167L42.39,111.167L42.621,111.167L42.856,111.167L43.081,111.167L43.312,111.167L43.773,111.167L44.003,111.167L44.239,111.167L44.464,111.167L44.695,111.167L45.155,111.167L45.386,111.167L45.625,111.167L45.847,111.167L46.077,111.167L46.538,127.833L46.769,127.833L47.008,127.833L47.23,127.833L47.46,127.833L47.92,127.833L48.151,127.833L48.391,127.833L48.612,127.833L48.842,127.833L49.303,127.833L49.533,127.833L49.774,127.833L49.994,127.833L50.225,127.833L50.686,127.833L50.916,127.833L51.155,127.833L51.377,127.833L51.608,127.833L52.068,127.833L52.299,127.833L52.534,127.833L52.759,127.833L52.99,127.833L53.451,127.833L53.681,127.833L54.142,127.833L54.372,127.833L54.833,127.833" stroke="#eeca3b" stroke-width="2"/></g></g><path class="foreground" aria-hidden="true" d="" display="none"/></g><g transform="translate(0,0)"><path class="background" aria-hidden="true" d="M0,0h200v200h-200Z"/><g><g class="mark-line role-mark child_marks" role="graphics-object" aria-roledescription="line mark container"><path aria-label="Time: Aug 30, 2023; Price: 16195; item: DESCHUTES_VALLEY™_RAIN_PONCHO_-_Parka_-_vista_blue" role="graphics-symbol" aria-roledescription="line mark" d="M0,20.056L0.224,20.056L0.454,20.056L0.915,20.056L1.145,20.056L1.383,20.056L1.606,20.056L1.836,20.056L2.298,20.056L2.527,20.056L2.765,20.056L2.988,20.056L3.219,20.056L3.68,20.056L3.91,20.056L4.145,20.056L4.37,20.056L4.601,20.056L5.062,20.056L5.458,20.056L5.528,20.056L5.753,20.056L5.984,20.056L6.445,20.056L6.676,20.056L6.913,20.056L7.136,20.056L7.366,20.056L7.828,80.056L8.059,80.056L8.296,80.056L8.519,80.056L8.749,80.056L9.21,80.056L9.44,80.056L9.679,80.056L9.901,80.056L10.131,80.056L10.593,80.056L10.823,80.056L11.06,80.056L11.284,80.056L11.514,80.056L12.12,80.056L12.205,80.056L12.442,80.056L12.666,80.056L12.896,80.056L13.357,80.056L13.588,80.056L13.822,80.056L14.048,80.056L14.279,80.056L14.74,80.056L14.97,80.056L15.205,80.056L15.431,80.056L15.661,80.056L16.122,80.056L16.352,80.056L16.592,80.056L16.813,80.056L17.044,80.056L17.505,80.056L17.735,80.056L17.973,80.056L18.196,80.056L18.426,80.056L18.887,20.056L19.118,20.056L19.356,20.056L19.478,20.056L19.579,20.056L19.809,20.056L20.27,20.056L20.5,20.056L20.739,20.056L20.961,20.056L21.191,20.056L21.652,20.056L21.883,20.056L22.121,20.056L22.343,20.056L22.574,20.056L23.035,20.056L23.265,20.056L23.5,20.056L23.726,20.056L23.956,20.056L24.417,20.056L24.648,20.056L24.883,20.056L25.108,20.056L25.339,20.056L25.8,20.056L26.03,20.056L26.269,20.056L26.491,20.056L26.722,20.056L27.182,20.056L27.413,20.056L27.652,20.056L27.874,20.056L28.104,20.056L28.565,20.056L28.796,20.056L29.034,20.056L29.256,20.056L29.487,20.056L29.947,20.056L30.178,20.056L30.417,20.056L30.639,20.056L30.869,20.056L31.33,20.056L31.56,20.056L31.799,20.056L32.021,20.056L32.252,20.056L32.712,20.056L32.943,20.056L33.178,20.056L33.404,20.056L33.634,20.056L34.095,20.056L34.326,20.056L34.561,20.056L34.786,20.056L35.017,20.056L35.478,20.056L35.708,20.056L35.947,20.056L36.169,20.056L36.399,20.056L36.86,20.056L37.091,20.056L37.33,20.056L37.551,20.056L37.782,20.056L38.243,40.056L38.473,40.056L38.712,40.056L38.934,40.056L39.165,40.056L39.625,40.056L39.856,40.056L40.095,40.056L40.316,40.056L41.008,40.056L41.238,40.056L41.476,40.056L41.699,40.056L41.93,40.056L42.39,40.056L42.621,40.056L42.856,40.056L43.081,40.056L43.312,40.056L43.773,40.056L44.003,40.056L44.239,40.056L44.464,40.056L44.695,40.056L45.155,90.056L45.386,90.056L45.625,90.056L45.847,90.056L46.077,90.056L46.538,40.056L46.769,40.056L47.008,40.056L47.229,40.056L47.46,40.056L47.92,40.056L48.151,40.056L48.391,40.056L48.612,40.056L48.842,40.056L49.303,40.056L49.533,40.056L49.774,40.056L49.994,40.056L50.225,40.056L50.686,40.056L50.916,40.056L51.155,40.056L51.377,40.056L51.608,40.056L52.068,40.056L52.299,40.056L52.534,40.056L52.759,40.056L52.99,40.056L53.451,40.056L53.681,40.056L54.142,40.056L54.372,40.056L54.833,40.056L55.064,40.056L55.305,40.056L55.525,40.056L55.755,40.056L56.216,90.056L56.446,90.056L56.686,90.056L56.907,90.056L57.137,90.056L57.598,90.056L57.829,90.056L58.068,90.056L58.29,90.056L58.52,90.056L58.981,90.056L59.211,90.056L59.451,90.056L59.672,90.056L59.903,90.056L60.364,90.056L60.594,90.056L60.833,90.056L61.055,90.056L61.285,90.056L61.746,40.056L61.977,40.056L62.212,40.056L62.437,40.056L62.668,40.056L63.129,40.056L63.359,40.056L63.594,40.056L63.82,40.056L64.05,40.056L64.511,100.056L64.742,100.056L64.981,100.056L65.202,100.056L65.433,100.056L65.894,100.056L66.124,100.056L66.363,100.056L66.585,100.056L66.815,100.056L67.276,100.056L67.507,100.056L67.746,100.056L67.967,100.056L68.198,100.056L68.659,100.056L68.889,100.056L69.129,100.056L69.35,100.056L69.58,100.056L70.042,100.056L70.272,100.056L70.511,100.056L70.732,100.056L70.963,100.056L71.424,100.056L71.654,100.056L71.89,100.056L72.115,100.056L72.345,100.056L72.806,100.056L73.037,100.056L73.272,100.056L73.497,100.056L73.728,100.056L74.189,100.056L74.419,100.056L74.658,100.056L74.88,100.056L75.111,100.056L75.571,40.056L75.802,40.056L76.04,40.056L76.262,40.056L76.493,40.056L76.954,40.056L77.184,40.056L77.423,40.056L77.645,40.056L77.876,40.056L78.336,40.056L78.567,40.056L78.805,40.056L79.028,40.056L79.258,40.056L79.719,40.056L79.95,40.056L80.187,40.056L80.41,40.056L80.641,40.056L81.101,40.056L81.332,40.056L81.567,40.056L81.793,40.056L82.023,40.056L82.484,40.056L82.714,40.056L82.95,40.056L83.175,40.056L83.406,40.056L83.867,40.056L84.097,40.056L84.335,40.056L84.558,40.056L84.788,40.056L85.249,40.056L85.48,40.056L85.717,40.056L85.941,40.056L86.171,40.056L86.632,40.056L86.862,40.056L87.1,40.056L87.323,40.056L87.553,40.056L88.014,40.056L88.245,40.056L88.482,40.056L88.706,40.056L88.936,40.056L89.397,40.056L89.627,40.056L89.866,40.056L90.088,40.056L90.319,40.056L90.779,40.056L91.01,40.056L91.245,40.056L91.47,40.056L91.701,40.056L92.162,40.056L92.392,40.056L92.628,40.056L92.853,40.056L93.084,40.056L93.544,40.056L93.775,40.056L94.015,40.056L94.236,40.056L94.466,40.056L94.927,40.056L95.158,40.056L95.396,40.056L95.618,40.056L95.849,40.056L96.309,40.056L96.54,40.056L96.778,40.056L97.001,40.056L97.231,40.056L97.692,40.056L97.922,40.056L98.16,40.056L98.383,40.056L98.614,40.056L99.075,40.056L99.305,40.056L99.543,40.056L99.766,40.056L99.996,40.056L100.457,40.056L100.688,40.056L100.923,40.056L101.379,40.056L101.839,40.056L102.07,40.056L102.306,40.056L102.531,40.056L102.761,40.056L103.222,40.056L103.453,40.056L103.691,40.056L103.913,40.056L104.604,40.056L104.835,40.056L105.073,40.056L105.296,40.056L105.526,40.056L105.987,40.056L106.217,40.056L106.457,40.056L106.679,40.056L106.909,40.056L107.37,120.056L107.6,120.056L107.839,120.056L108.061,120.056L108.291,120.056L108.752,120.056L108.983,120.056L109.222,120.056L109.443,120.056L109.674,120.056L110.135,40.056L110.365,40.056L110.602,40.056L110.826,40.056L111.057,40.056L111.518,40.056L111.748,40.056L111.984,40.056L112.209,40.056L112.439,40.056L112.9,50.056L113.13,50.056L113.371,70.056L113.591,70.056L113.821,70.056L114.282,70.056L114.513,70.056L114.753,70.056L114.974,70.056L115.204,70.056L115.665,70.056L115.896,70.056L116.135,70.056L116.356,70.056L116.587,70.056L117.047,120.056L117.278,120.056L117.517,120.056L117.739,120.056L117.969,120.056L118.43,120.056L118.661,120.056L118.898,120.056L119.121,120.056L119.352,120.056L119.813,120.056L120.043,120.056L120.279,120.056L120.504,120.056L120.734,120.056L121.195,120.056L121.426,120.056L121.662,120.056L121.886,120.056L122.117,120.056L122.578,40.056L122.808,40.056L123.048,40.056L123.269,40.056L123.499,40.056L123.96,40.056L124.191,40.056L124.429,40.056L124.652,40.056L124.882,40.056L125.343,40.056L125.573,40.056L125.812,40.056L126.034,40.056L126.265,40.056L126.725,40.056L126.956,40.056L127.195,40.056L127.417,40.056L127.647,40.056L128.108,40.056L128.338,40.056L128.577,40.056L128.799,40.056L129.03,40.056L129.491,40.056L129.721,40.056L129.956,40.056L130.182,40.056L130.412,40.056L130.873,40.056L131.103,40.056L131.34,40.056L131.565,40.056L131.795,40.056L132.255,40.056L132.486,40.056L132.725,40.056L132.947,40.056L133.177,40.056L133.638,100.056L133.868,100.056L134.108,100.056L134.329,100.056L134.56,100.056L135.02,100.056L135.251,100.056L135.49,100.056L135.712,100.056L135.942,100.056L136.403,100.056L136.633,100.056L136.873,100.056L137.094,100.056L137.325,100.056L137.786,100.056L138.016,100.056L138.254,100.056L138.477,100.056L138.707,100.056L139.168,100.056L139.399,100.056L139.635,100.056L139.86,100.056L140.09,100.056L140.551,100.056L140.781,100.056L141.017,100.056L141.242,100.056L141.472,100.056L141.933,100.056L142.164,100.056L142.403,100.056L142.624,100.056L142.855,100.056L143.316,100.056L143.546,100.056L143.785,100.056L144.007,100.056L144.237,100.056L144.698,100.056L144.929,100.056L145.168,100.056L145.39,100.056L145.62,100.056L146.081,100.056L146.311,100.056L146.55,100.056L146.772,100.056L147.003,100.056L147.463,100.056L147.694,100.056L147.932,100.056L148.155,100.056L148.385,100.056L148.846,100.056L149.076,100.056L149.312,100.056L149.537,100.056L149.768,100.056L150.228,90.056L150.459,90.056L150.695,90.056L150.92,90.056L151.15,90.056L151.611,90.056L151.842,90.056L152.081,90.056L152.302,90.056L152.533,90.056L152.994,90.056L153.224,90.056L153.462,90.056L153.685,90.056L153.915,90.056L154.376,90.056L154.607,90.056L154.839,90.056L155.067,90.056L155.298,90.056L155.759,60.056L155.989,60.056L156.45,60.056L156.68,60.056L157.141,60.056L157.372,60.056L157.609,60.056L157.832,60.056L158.063,60.056L158.524,60.056L158.754,60.056L158.99,60.056L159.215,60.056L159.445,60.056L159.906,60.056L160.137,60.056L160.372,60.056L160.597,60.056L160.828,60.056L161.289,60.056L161.52,60.056L161.756,60.056L161.98,60.056L162.211,60.056L162.671,60.056L162.902,60.056L163.138,60.056L163.363,60.056L163.593,60.056L164.054,60.056L164.284,60.056L164.521,60.056L164.745,60.056L164.976,60.056L165.436,60.056L165.667,60.056L165.903,60.056L166.128,60.056L166.358,60.056L166.819,60.056L167.049,60.056L167.287,60.056L167.511,60.056L167.741,60.056L168.202,60.056L168.432,60.056L168.668,60.056L168.893,60.056L169.123,60.056L169.584,60.056L169.815,60.056L170.05,60.056L170.275,60.056L170.506,60.056L170.967,60.056L171.197,60.056L171.434,60.056L171.658,60.056L171.888,60.056L172.349,60.056L172.579,60.056L172.817,60.056L173.04,60.056L173.271,60.056L173.732,90.056L173.962,90.056L174.2,90.056L174.423,90.056L174.653,90.056L175.114,90.056L175.345,90.056L175.582,90.056L175.806,90.056L176.036,90.056L176.497,90.056L176.727,90.056L176.965,90.056L177.188,90.056L177.418,90.056L177.879,100.056L178.11,100.056L178.347,100.056L178.57,100.056L178.801,100.056L179.262,90.056L179.492,90.056L179.729,90.056L179.953,90.056L180.184,90.056L180.645,100.056L180.875,100.056L181.113,100.056L181.336,100.056L181.566,100.056L182.027,100.056L182.257,100.056L182.501,100.056L182.718,100.056L182.949,100.056L183.41,100.056L183.64,100.056L183.878,100.056L184.101,100.056L184.331,100.056L184.792,90.056L185.022,90.056L185.261,90.056L185.484,90.056L185.714,90.056L186.175,90.056L186.405,90.056L186.643,90.056L186.866,90.056L187.096,90.056L187.557,90.056L187.788,90.056L188.024,90.056L188.248,90.056L188.479,90.056L188.94,100.056L189.17,100.056L189.406,100.056L189.631,100.056L189.862,100.056L190.322,90.056L190.553,90.056L190.792,90.056L191.014,90.056L191.244,90.056L191.705,100.056L191.935,100.056L192.174,100.056L192.396,100.056L192.627,100.056L193.087,100.056L193.318,100.056L193.557,100.056L193.778,100.056L194.009,100.056L194.47,100.056L194.7,100.056L194.939,100.056L195.161,100.056L195.392,100.056L195.853,100.056L196.083,100.056L196.321,100.056L196.544,100.056L196.774,100.056L197.235,100.056L197.465,100.056L197.702,100.056L197.926,100.056L198.157,100.056L198.848,100.056L199.085,100.056L199.309,100.056L199.539,100.056L200,100.056" stroke="#e45756" stroke-width="2"/></g></g><path class="foreground" aria-hidden="true" d="" display="none"/></g><g transform="translate(0,0)"><path class="background" aria-hidden="true" d="M0,0h200v200h-200Z"/><g><g class="mark-line role-mark child_marks" role="graphics-object" aria-roledescription="line mark container"><path aria-label="Time: Aug 30, 2023; Price: 5495; item: COVERO_PONCHO_II_-_Cape_-_lightgrey" role="graphics-symbol" aria-roledescription="line mark" d="M0,138.944L0.224,138.944L0.454,138.944L0.915,138.944L1.145,138.944L1.383,138.944L1.606,138.944L1.836,138.944L2.298,138.944L2.527,138.944L3.91,138.944L4.145,138.944L4.37,138.944L4.601,138.944L5.062,138.944L5.458,138.944L5.528,138.944L5.753,138.944L5.984,138.944L6.445,138.944L6.676,138.944L6.913,138.944L7.136,138.944L7.366,138.944L7.828,138.944L8.059,138.944L8.296,138.944L8.519,138.944L8.749,138.944L12.666,153.944L14.97,138.944L15.205,138.944L15.431,138.944L15.661,138.944L16.122,138.944L16.352,138.944L16.592,138.944L16.813,138.944L17.044,138.944L17.505,138.944L17.735,138.944L17.973,138.944L18.196,138.944L18.427,138.944L18.887,138.944L19.118,138.944L19.356,138.944L19.478,138.944L19.579,138.944L19.809,138.944L20.27,138.944L20.5,138.944L20.739,138.944L20.961,138.944L21.191,138.944L21.652,138.944L21.883,138.944L22.121,138.944L22.343,138.944L22.574,138.944L23.035,138.944L23.265,138.944L23.5,138.944L23.726,138.944L23.956,138.944L24.417,138.944L24.648,138.944L24.883,138.944L25.108,138.944L25.339,138.944L25.8,138.944L26.03,138.944L26.269,138.944L26.491,138.944L26.722,138.944L27.182,138.944L27.413,138.944L27.652,138.944L27.874,138.944L28.104,138.944L28.565,151.167L28.796,151.167L29.034,151.167L29.256,151.167L29.487,151.167L29.947,151.167L30.178,151.167L30.417,151.167L30.639,151.167L30.869,151.167L31.33,151.167L31.56,151.167L31.799,151.167L32.943,151.167L33.178,151.167L33.404,151.167L33.634,151.167L34.095,151.167L34.326,151.167L34.561,151.167L34.787,151.167L35.017,151.167L35.478,151.167L35.708,151.167L35.947,151.167L36.169,151.167L36.399,151.167L36.86,151.167L37.091,151.167L37.33,151.167L37.551,151.167L37.782,151.167L38.243,151.167L38.473,151.167L38.712,151.167L38.934,151.167L39.165,151.167L39.625,151.167L39.856,151.167L40.095,151.167L40.316,151.167L41.008,151.167L41.238,151.167L41.476,151.167L41.699,151.167L41.93,151.167L42.39,151.167L42.621,151.167L42.856,151.167L43.081,151.167L43.312,151.167L43.773,151.167L44.003,151.167L44.239,151.167L44.464,151.167L44.695,151.167L45.155,151.167L45.386,151.167L45.625,151.167L45.847,151.167L46.077,151.167L46.538,151.167L46.769,151.167L47.008,151.167L47.23,151.167L47.46,151.167L47.92,151.167L48.151,151.167L48.391,151.167L48.612,151.167L48.842,151.167L49.303,151.167L49.533,151.167L49.774,151.167L49.994,151.167L50.225,151.167L50.686,151.167L50.916,151.167L51.155,151.167L51.377,151.167L51.608,151.167L52.299,151.167L52.534,151.167L53.451,151.167L53.681,151.167L54.142,151.167L54.372,151.167L55.525,151.167L55.755,151.167L56.216,151.167L56.446,151.167L56.686,151.167L57.137,151.167L57.598,138.944L57.829,138.944L58.068,138.944L58.29,138.944L58.52,138.944L61.055,138.944L62.437,153.944L65.433,153.944L65.894,153.944L66.585,153.944L67.276,153.944L67.967,153.944L68.198,153.944L68.889,153.944L70.732,153.944L70.963,153.944L71.424,153.944L73.272,153.944L73.497,153.944L73.728,153.944L74.189,153.944L74.88,153.944L75.111,153.944L75.571,153.944L75.802,153.944L76.04,153.944L76.493,153.944L77.184,153.944L77.423,153.944L77.645,153.944L78.336,153.944L78.567,153.944L79.028,153.944L80.41,153.944L80.641,153.944L81.101,153.944L81.567,153.944L81.793,153.944L82.023,153.944L82.714,153.944L82.95,153.944L83.175,153.944L83.867,153.944L84.097,153.944L84.335,153.944L84.558,153.944L84.788,153.944L85.249,153.944L85.48,153.944L85.717,153.944L85.941,153.944L86.171,153.944L86.632,153.944L88.245,153.944L88.482,153.944L88.706,153.944L88.936,153.944L89.627,153.944L89.866,153.944L90.088,153.944L90.319,153.944L90.779,145.611L91.01,145.611L95.849,145.611L96.309,145.611L96.54,145.611L96.778,145.611L97.001,145.611L97.231,145.611L97.922,145.611L98.16,145.611L98.383,145.611L98.614,145.611L99.075,145.611L99.543,145.611L99.996,145.611L100.688,145.611L100.923,145.611L101.379,145.611L101.839,145.611L102.07,145.611L102.306,145.611L102.531,145.611L102.761,145.611L103.222,138.944L103.691,138.944L104.604,138.944L104.835,138.944L105.073,138.944L105.296,138.944L105.526,138.944L105.987,138.944L106.217,138.944L106.457,138.944L106.679,138.944L106.909,138.944L107.6,153.944L107.839,153.944L108.061,153.944L108.291,153.944L108.752,153.944L109.443,153.944L109.674,153.944L110.135,153.944L110.365,153.944L110.602,153.944L110.826,160.056L113.13,138.944L113.371,138.944L113.591,138.944L113.821,138.944L114.282,138.944L114.513,138.944L114.753,138.944L114.974,138.944L115.204,138.944L115.665,138.944L115.896,138.944L116.135,138.944L116.356,138.944L116.587,138.944L117.278,163.389L128.577,138.944L129.491,138.944L130.182,138.944L131.103,138.944L132.486,138.944L132.725,138.944L132.947,138.944L133.177,138.944L133.638,138.944L135.251,138.944L136.403,138.944L138.477,138.944L139.399,138.944L139.635,138.944L139.86,138.944L140.09,138.944L140.551,138.944L141.017,138.944L142.164,138.944L142.403,138.944L142.624,138.944L142.855,138.944L143.785,138.944L144.698,138.944L146.55,138.944L147.694,138.944L148.155,138.944L148.385,138.944L148.846,138.944L149.537,138.944L149.768,138.944L150.228,138.944" stroke="#f58518" stroke-width="2"/></g></g><path class="foreground" aria-hidden="true" d="" display="none"/></g><g transform="translate(0,0)"><path class="background" aria-hidden="true" d="M0,0h200v200h-200Z"/><g><g class="mark-line role-mark child_marks" role="graphics-object" aria-roledescription="line mark container"><path aria-label="Time: Sep 01, 2023; Price: 12995; item: KUURA_3L_PONCHO_UNISEX_-_Veste_imperméable_-_green" role="graphics-symbol" aria-roledescription="line mark" d="M3.219,55.611L3.68,55.611L3.91,55.611L4.145,55.611L6.676,55.611L6.913,55.611L7.136,55.611L7.366,55.611L7.828,11.167L8.059,11.167L8.296,11.167L8.519,11.167L8.749,11.167L9.21,11.167L9.44,11.167L9.679,11.167L9.901,11.167L10.131,11.167L10.593,11.167L10.823,11.167L11.06,11.167L11.284,11.167L11.514,11.167L12.12,11.167L12.205,11.167L12.442,11.167L12.666,11.167L12.896,11.167L13.357,11.167L13.588,11.167L13.822,11.167L14.048,11.167L14.279,11.167L14.74,11.167L14.97,11.167L15.205,11.167L15.431,11.167L15.661,11.167L16.122,11.167L16.352,11.167L16.592,11.167L16.813,11.167L17.505,11.167L17.735,11.167L17.973,11.167L18.196,11.167L18.427,11.167L23.5,22.278L23.726,22.278L23.956,22.278L24.417,22.278L24.648,22.278L24.883,22.278L25.108,22.278L25.339,22.278L25.8,22.278L26.03,22.278L26.269,22.278L27.413,22.278L27.652,22.278L27.874,22.278L28.104,22.278L28.565,22.278L28.796,22.278L47.23,22.278L47.46,22.278L47.92,22.278L48.151,22.278L48.391,22.278L48.612,22.278L48.842,22.278L49.303,22.278L49.533,22.278L49.774,22.278L49.994,22.278L50.225,22.278L50.686,22.278L50.916,22.278L51.155,22.278L51.377,22.278L51.608,22.278L52.068,22.278L52.299,22.278L52.534,22.278L52.759,22.278L52.99,22.278L74.189,22.278L74.419,22.278L74.658,22.278L74.88,22.278L75.111,22.278L75.571,22.278L75.802,22.278L76.04,22.278L76.262,22.278" stroke="#4c78a8" stroke-width="2"/></g></g><path class="foreground" aria-hidden="true" d="" display="none"/></g><g transform="translate(0,0)"><path class="background" aria-hidden="true" d="M0,0h200v200h-200Z"/><g><g class="mark-line role-mark child_marks" role="graphics-object" aria-roledescription="line mark container"><path aria-label="Time: Sep 14, 2023; Price: 6495; item: PARIS_ST._GERMAIN_CITY_MADE_PONCHO_-_Veste_de_survêtement_-_aura_white" role="graphics-symbol" aria-roledescription="line mark" d="M20.27,127.833L20.5,127.833L20.739,127.833L20.961,127.833L21.191,127.833L21.652,127.833L21.883,127.833L23.035,127.833L24.648,127.833L24.883,127.833L25.108,127.833L25.339,127.833L25.8,127.833L26.03,127.833L26.269,127.833L26.491,127.833L26.722,127.833L27.182,127.833L27.413,127.833L27.652,127.833L27.874,127.833L28.104,127.833L28.565,127.833L28.796,127.833L29.034,127.833L29.256,127.833L29.487,127.833L29.947,127.833L30.178,127.833L30.417,127.833L30.639,127.833L30.869,127.833L31.33,127.833L31.56,127.833L31.799,127.833L32.021,127.833L32.252,127.833L32.712,127.833L32.943,127.833L33.178,127.833L33.404,127.833L33.634,127.833L34.095,127.833L34.326,127.833L34.561,127.833L34.786,127.833L35.017,127.833L35.478,127.833L35.708,127.833L35.947,127.833L36.169,127.833L36.399,127.833L36.86,127.833L37.091,127.833L37.33,127.833" stroke="#bab0ac" stroke-width="2"/></g></g><path class="foreground" aria-hidden="true" d="" display="none"/></g><g transform="translate(0,0)"><path class="background" aria-hidden="true" d="M0,0h200v200h-200Z"/><g><g class="mark-line role-mark child_marks" role="graphics-object" aria-roledescription="line mark container"><path aria-label="Time: Sep 18, 2023; Price: 8995; item: HIKING_BACKPACK_PONCHO_-_Veste_imperméable_-_indian_red" role="graphics-symbol" aria-roledescription="line mark" d="M25.8,100.056L26.03,100.056L26.269,100.056L26.491,100.056L26.722,100.056L27.182,100.056L27.413,100.056L36.169,100.056L36.399,100.056L36.86,100.056L37.091,100.056L37.33,100.056L37.551,100.056L37.782,100.056L38.243,111.167L38.473,111.167L38.712,111.167L38.934,111.167L60.833,111.167L61.055,111.167L61.285,111.167L61.746,111.167L61.977,111.167L62.212,111.167L62.437,111.167L62.668,111.167L63.129,111.167L154.839,122.278L155.067,122.278L155.298,122.278L155.759,111.167L155.989,111.167" stroke="#b279a2" stroke-width="2"/></g></g><path class="foreground" aria-hidden="true" d="" display="none"/></g><g transform="translate(0,0)"><path class="background" aria-hidden="true" d="M0,0h200v200h-200Z"/><g><g class="mark-line role-mark child_marks" role="graphics-object" aria-roledescription="line mark container"><path aria-label="Time: Sep 26, 2023; Price: 6495; item: PSG_M_NSW_CITY_MADE_PONCHO_-_Veste_de_survêtement_-_aura_white" role="graphics-symbol" aria-roledescription="line mark" d="M37.551,127.833L37.782,127.833L38.243,91.167L38.473,91.167L38.712,91.167L38.934,91.167L39.165,91.167L39.625,91.167L39.856,91.167L40.095,91.167L40.316,91.167L41.008,91.167L41.238,91.167L41.476,91.167L41.699,91.167L41.93,91.167L42.39,91.167L42.621,91.167L42.856,91.167L43.081,91.167L43.312,91.167L43.773,91.167L44.003,91.167L44.239,91.167L44.464,91.167L44.695,91.167L45.155,127.833L45.386,127.833L45.625,127.833L45.847,127.833L46.077,127.833L46.538,127.833L46.769,127.833L47.008,127.833L47.23,127.833L47.46,127.833L47.92,127.833L48.151,127.833L48.391,127.833L48.612,127.833L48.842,127.833L49.303,127.833L49.533,127.833L49.774,127.833L49.994,127.833L50.225,127.833L50.686,127.833L50.916,127.833L51.155,127.833L51.377,127.833L51.608,127.833L52.068,127.833L52.299,127.833L52.534,127.833L52.759,127.833L52.99,127.833L53.451,127.833L53.681,127.833L54.142,127.833L54.372,127.833L54.833,127.833L55.064,127.833L55.305,127.833L55.525,127.833L55.755,127.833L56.216,84.5L56.446,84.5L56.686,84.5L57.137,84.5L57.598,84.5L57.829,84.5L58.068,84.5L58.29,84.5L58.52,84.5L58.981,84.5L59.211,84.5L60.364,84.5L61.055,84.5L62.437,127.833L63.129,127.833L64.742,127.833L64.981,127.833L73.728,127.833L74.189,127.833L74.419,127.833L74.658,127.833L75.802,127.833L76.04,127.833L77.645,127.833L77.876,127.833L78.805,127.833L79.258,127.833L79.719,127.833L80.187,127.833L81.332,127.833L82.023,127.833L82.484,127.833L82.714,127.833L82.95,127.833L83.406,127.833L84.097,127.833L84.788,127.833L85.249,127.833L85.48,127.833L85.717,127.833L85.941,127.833L86.171,127.833L86.632,127.833L86.862,127.833L87.1,127.833L87.323,127.833L87.553,127.833L88.014,127.833L88.245,127.833L88.482,127.833L88.706,127.833L88.936,127.833L89.397,127.833L89.627,127.833L89.866,127.833L90.088,127.833L90.319,127.833L90.779,127.833L91.01,127.833L91.245,127.833L91.47,127.833L91.701,127.833L92.162,127.833L92.392,127.833L92.628,127.833L92.853,127.833L93.084,127.833L93.544,127.833L93.775,127.833L94.015,127.833L94.236,127.833L94.466,127.833L94.927,127.833L95.158,127.833L95.396,127.833L95.618,127.833L95.849,127.833L96.309,127.833L96.778,127.833L97.001,127.833L97.231,127.833L98.16,127.833L98.383,127.833L99.075,84.5L99.543,84.5L99.996,84.5L101.379,84.5L102.761,84.5L103.691,127.833L104.604,127.833L104.835,127.833L105.073,127.833L105.526,127.833L105.987,127.833L106.217,127.833L106.457,127.833L106.679,127.833L107.6,156.722L110.365,127.833L110.602,127.833L111.518,127.833L113.821,105.611L114.282,105.611L116.135,105.611L116.356,105.611L117.278,148.944L120.734,148.944L121.195,148.944L123.5,120.056L123.96,127.833L124.882,127.833L125.812,127.833L127.195,127.833L127.647,127.833L128.577,91.167L129.491,91.167L130.182,91.167L131.103,127.833L132.725,91.167L135.251,127.833L138.477,127.833L139.635,127.833L140.09,127.833L141.017,127.833L142.164,127.833L142.403,127.833L142.624,127.833L142.855,127.833L143.316,127.833L143.546,127.833L143.785,127.833L144.007,127.833L144.237,127.833L144.698,127.833L147.694,127.833L148.155,127.833L148.385,127.833L148.846,127.833L149.537,127.833L150.459,120.056L150.695,120.056L150.92,120.056L151.15,120.056L151.611,120.056L152.081,120.056L152.533,120.056L152.994,120.056L153.224,120.056L153.462,120.056L153.685,120.056L153.915,120.056L154.376,120.056L154.607,120.056L154.839,120.056L155.067,120.056L155.298,120.056L155.759,98.944L156.45,98.944L157.141,98.944L157.372,98.944L157.609,98.944L157.832,98.944L158.063,98.944L158.524,98.944L158.754,98.944L158.99,98.944L159.215,98.944L159.445,98.944L159.906,98.944L160.137,98.944L160.372,98.944L160.597,98.944L160.828,98.944L161.289,98.944L161.52,98.944L161.756,98.944L161.98,98.944L162.211,98.944L162.671,98.944L162.902,98.944L163.363,98.944L163.593,98.944L164.054,98.944L164.284,98.944L164.521,98.944L164.976,98.944L165.667,98.944L165.903,98.944L166.128,98.944L166.819,98.944L167.511,98.944L168.202,98.944L168.432,98.944L168.668,98.944L169.123,98.944L169.584,98.944L170.05,98.944L170.275,98.944L170.506,98.944L170.967,98.944L171.197,98.944L171.434,98.944L171.658,98.944L171.889,98.944L172.349,98.944L173.041,98.944L173.732,120.056L173.962,120.056L174.423,120.056L174.653,120.056L175.114,120.056L175.582,120.056L175.806,120.056L176.036,120.056L176.727,120.056L176.965,120.056L177.188,120.056L177.418,120.056L177.879,120.056L178.11,120.056L178.347,120.056L178.571,120.056L178.801,120.056L179.262,120.056L179.492,120.056L179.729,120.056L179.953,120.056L180.184,120.056L180.645,120.056L181.113,120.056L181.566,120.056L182.027,120.056L182.949,120.056L183.64,120.056L185.022,120.056L185.261,120.056L185.484,120.056L185.714,120.056L186.175,120.056L186.405,120.056L186.643,120.056L186.866,120.056L187.096,120.056L187.557,120.056L187.788,120.056L188.024,120.056L188.248,120.056L188.479,120.056L188.94,120.056L189.862,120.056L190.792,98.944L191.244,98.944L192.627,98.944L193.557,98.944L194.7,98.944L194.939,98.944L195.161,98.944L195.392,98.944L195.853,98.944L196.083,98.944L196.321,98.944L196.544,98.944L196.774,98.944L197.235,98.944L197.465,98.944L197.702,98.944L197.926,98.944L198.157,98.944L198.848,98.944L199.085,98.944L199.309,98.944L199.539,98.944L200,98.944" stroke="#ff9da6" stroke-width="2"/></g></g><path class="foreground" aria-hidden="true" d="" display="none"/></g><g transform="translate(0,0)"><path class="background" aria-hidden="true" d="M0,0h200v200h-200Z"/><g><g class="mark-line role-mark child_marks" role="graphics-object" aria-roledescription="line mark container"><path aria-label="Time: Oct 12, 2023; Price: 4995; item: SHOWERPROOF_PONCHO_UNISEX_-_Cape_-_classic_tartan" role="graphics-symbol" aria-roledescription="line mark" d="M58.981,144.5L59.211,144.5L59.451,144.5L59.672,144.5L59.903,144.5L60.364,144.5L60.594,144.5L60.833,144.5L61.055,144.5L61.285,144.5L61.746,144.5L61.977,144.5L62.212,144.5L62.437,144.5L62.668,144.5L63.129,144.5L63.359,144.5L63.594,144.5L63.82,144.5L64.05,144.5L64.511,152.611L64.742,152.611L64.981,152.611L65.202,152.611L65.433,152.611L65.894,152.611L66.124,152.611L66.363,152.611L66.585,152.611L66.815,152.611L67.276,152.611L67.507,152.611L67.746,152.611L67.967,152.611L68.198,152.611L68.659,152.611L68.889,152.611L69.129,152.611L69.35,152.611L69.58,152.611L70.042,152.611L70.272,152.611L70.511,152.611L70.732,152.611L70.963,152.611L71.424,152.611L71.654,152.611L71.89,152.611L72.115,152.611L72.345,152.611L72.806,144.5L73.037,144.5L73.272,144.5L73.497,144.5L73.728,144.5L74.189,144.5L74.419,144.5L74.658,144.5L74.88,144.5L75.111,144.5L75.571,152.611L75.802,152.611L76.04,152.611L76.262,152.611L76.493,152.611L76.954,152.611L77.184,152.611L77.423,152.611L77.645,152.611L77.876,152.611L78.336,152.611L78.567,152.611L78.805,152.611L79.028,152.611L79.258,152.611L79.719,152.611L79.95,152.611L80.187,152.611L80.41,152.611L80.641,152.611L81.101,152.611L81.332,152.611L81.567,152.611L81.793,152.611L82.023,152.611L82.484,152.611L82.714,152.611L82.95,152.611L83.175,152.611L83.406,152.611L83.867,144.5L84.097,144.5L84.335,144.5L84.558,144.5L84.788,144.5L85.249,144.5L85.48,144.5L85.717,144.5L85.941,144.5L86.171,144.5L86.632,152.611L86.862,152.611L87.1,152.611L87.323,152.611L87.553,152.611L88.014,152.611L88.245,152.611L88.482,152.611L88.706,152.611L88.936,152.611L89.397,152.611L89.627,152.611L89.866,152.611L90.088,152.611L90.319,152.611L90.779,152.611L91.01,152.611L91.245,152.611L91.47,152.611L91.701,152.611L92.162,152.611L92.392,152.611L92.628,152.611L92.853,152.611L93.084,152.611L93.544,152.611L93.775,152.611L94.015,152.611L94.236,152.611L94.466,152.611L94.927,150.056L95.158,144.5L95.396,144.5L95.618,144.5L95.849,144.5L96.309,144.5L96.54,144.5L96.778,144.5L97.001,144.5L97.231,144.5L97.692,144.5L97.922,144.5L98.16,144.5L98.383,144.5L98.614,144.5L99.075,144.5L99.305,144.5L99.543,144.5L99.766,144.5L99.996,144.5L100.457,144.5L100.688,144.5L100.923,144.5L101.379,144.5L101.839,144.5L102.07,144.5L102.306,144.5L102.531,144.5L102.761,144.5L103.222,144.5L103.453,144.5L103.691,144.5L103.913,144.5L104.604,144.5L104.835,144.5L105.073,144.5L105.296,144.5L105.526,144.5L105.987,144.5L106.217,144.5L106.457,144.5L106.679,144.5L106.909,144.5L107.37,144.5L107.6,144.5L107.839,144.5L108.061,144.5L108.291,144.5L108.752,144.5L108.983,144.5L109.222,144.5L109.443,144.5L109.674,144.5L110.135,144.5L110.365,144.5L110.602,144.5L110.826,144.5L111.057,144.5L111.518,144.5L111.748,144.5L111.984,144.5L112.209,144.5L112.439,144.5L112.9,144.5L113.13,144.5L113.371,144.5L113.591,144.5L113.821,144.5L114.282,144.5L114.513,144.5L114.753,144.5L114.974,144.5L115.204,144.5L115.665,144.5L115.896,144.5L116.135,144.5L116.356,144.5L116.587,144.5L132.947,144.5L133.177,144.5L133.638,144.5L133.868,144.5L134.108,144.5L134.329,144.5L134.56,144.5L135.02,144.5L135.251,144.5L135.49,144.5L135.712,144.5L135.942,144.5L136.403,144.5L136.633,144.5L136.873,144.5L137.094,144.5L137.325,144.5L137.786,144.5L138.016,144.5L138.254,144.5L138.477,144.5L138.707,144.5L139.168,144.5L139.399,144.5L139.635,144.5L139.86,144.5L140.09,144.5L140.551,144.5L140.781,144.5L141.017,144.5L141.242,144.5L141.472,144.5L141.933,144.5L142.164,144.5L142.403,144.5L142.624,144.5L142.855,144.5L143.316,144.5L143.546,144.5L143.785,144.5L144.007,144.5L144.237,144.5L144.698,144.5L144.929,144.5L145.168,144.5L145.39,144.5L145.62,144.5L146.081,144.5L146.311,144.5L146.55,144.5L146.772,144.5L147.003,144.5L147.463,144.5L147.694,144.5L147.932,144.5L148.155,144.5L148.385,144.5L148.846,144.5L149.076,144.5L149.312,144.5L149.537,144.5L149.768,144.5L150.228,144.5L150.459,144.5L150.695,144.5L150.92,144.5L151.15,144.5L151.611,144.5L151.842,144.5L152.081,144.5L152.302,144.5L152.533,144.5L152.994,158.167L153.224,158.167L153.462,158.167L153.685,158.167L153.915,158.167L154.376,158.167L154.607,158.167L154.839,158.167L155.067,158.167L155.298,158.167L155.759,144.5L155.989,144.5L156.45,144.5L156.68,144.5L157.141,144.5L157.372,144.5L157.609,144.5L157.832,144.5L158.063,144.5L158.524,144.5L158.754,144.5L158.99,144.5L159.215,144.5L159.445,144.5L159.906,144.5L160.137,144.5L160.372,144.5L160.597,144.5L160.828,144.5L161.289,144.5L161.52,144.5L161.756,144.5L161.98,144.5L162.211,144.5L162.671,144.5L162.902,144.5L163.138,144.5L163.363,144.5L163.593,144.5L164.054,144.5L164.284,144.5L164.521,144.5L164.745,144.5L164.976,144.5L165.436,144.5L165.667,144.5L165.903,144.5L166.128,144.5L166.358,144.5L166.819,144.5L167.049,144.5L167.287,144.5L167.511,144.5L167.741,144.5L168.202,144.5L168.432,144.5L168.668,144.5L168.893,144.5L169.123,144.5L169.584,144.5L169.815,144.5L170.05,144.5L170.275,144.5L170.506,144.5L170.967,144.5L171.197,144.5L171.434,144.5L171.658,144.5L171.889,144.5L172.349,144.5L172.579,144.5L172.817,144.5L173.041,144.5L173.271,144.5L173.732,144.5L173.962,144.5L174.2,144.5L174.423,144.5L174.653,144.5L175.114,144.5L175.345,144.5L175.582,144.5L175.806,144.5L176.036,144.5L176.497,144.5L176.727,144.5L176.965,144.5L177.188,144.5L177.418,144.5L177.879,144.5L178.11,144.5L178.347,144.5L178.571,144.5L178.801,144.5L179.262,144.5L179.492,144.5L179.729,144.5L179.953,144.5L180.184,144.5L180.645,144.5L180.875,144.5L181.113,144.5L181.336,144.5L181.566,144.5L182.027,152.611L182.257,152.611L182.501,152.611L182.718,152.611L182.949,152.611L183.41,152.611L183.64,152.611L183.878,152.611L184.101,152.611L184.331,152.611L184.792,158.167L185.022,158.167L185.261,158.167L185.484,158.167L185.714,158.167L186.175,158.167L186.405,158.167L186.643,158.167L186.866,158.167L187.096,158.167L187.557,158.167L187.788,158.167L188.024,158.167L188.248,158.167L188.479,158.167L188.94,144.5L189.17,144.5L189.406,144.5L189.631,144.5L189.862,144.5L190.322,158.167L190.553,158.167L190.792,158.167L191.014,158.167L191.244,158.167L191.705,150.056L191.935,150.056L192.174,150.056L192.396,150.056L192.627,150.056L193.087,144.5L193.318,144.5L193.557,144.5L193.778,144.5L194.009,144.5L194.47,150.056L194.7,150.056L194.939,150.056L195.161,150.056L195.392,150.056L195.853,161.167L196.083,161.167L196.321,161.167L196.544,161.167L196.774,161.167L197.235,161.167L197.465,161.167L197.702,161.167L197.926,161.167L198.157,161.167L198.848,144.5L199.085,144.5L199.309,144.5L199.539,144.5L200,161.167" stroke="#4c78a8" stroke-width="2"/></g></g><path class="foreground" aria-hidden="true" d="" display="none"/></g><g transform="translate(0,0)"><path class="background" aria-hidden="true" d="M0,0h200v200h-200Z"/><g><g class="mark-line role-mark child_marks" role="graphics-object" aria-roledescription="line mark container"><path aria-label="Time: Oct 12, 2023; Price: 13995; item: PONCHO_-_Cape_-_lucid_blue" role="graphics-symbol" aria-roledescription="line mark" d="M58.981,44.5L60.594,44.5L61.055,44.5L61.746,91.167L62.437,91.167L63.359,91.167L63.594,91.167L63.82,91.167L64.05,91.167L64.511,91.167L64.742,91.167L64.981,91.167L65.202,91.167L65.433,91.167L65.894,91.167L66.124,91.167L66.363,91.167L66.585,91.167L66.815,91.167L67.276,91.167L67.507,91.167L67.746,91.167L67.967,91.167L68.198,91.167L68.659,91.167L68.889,91.167L69.129,91.167L69.58,91.167L70.732,91.167L70.963,91.167L71.424,91.167L72.115,91.167L72.806,91.167L73.037,91.167L73.272,91.167L73.497,91.167L73.728,91.167L74.881,91.167L75.571,114.5L75.802,114.5L76.493,114.5L77.184,114.5L77.423,114.5L77.645,114.5L78.336,114.5L79.719,114.5L79.95,114.5L80.187,114.5L80.41,114.5L80.641,114.5L81.101,114.5L81.332,114.5L81.567,114.5L81.793,114.5L82.023,114.5L82.484,114.5L82.714,114.5L82.95,114.5L83.175,114.5L83.406,114.5L83.867,114.5L84.097,114.5L84.335,114.5L84.558,114.5L84.788,114.5L85.249,114.5L85.48,114.5L85.717,114.5L85.941,114.5L86.171,114.5L86.632,114.5L86.862,114.5L87.1,114.5L87.323,114.5L87.554,114.5L88.014,83.389L88.245,83.389L88.936,83.389L89.397,83.389L90.779,83.389L91.01,83.389L91.47,83.389L91.701,83.389L92.162,83.389L92.392,83.389L92.628,83.389L92.853,83.389L93.084,83.389L93.544,83.389L93.775,83.389L94.466,83.389L94.927,44.5L95.158,44.5L95.396,44.5L95.618,44.5L95.849,44.5L96.309,44.5L96.54,44.5L96.778,44.5L97.001,44.5L97.231,44.5L97.692,44.5L97.922,44.5L98.16,44.5L98.383,44.5L98.614,44.5L99.075,122.278L99.543,122.278L99.996,122.278L100.688,122.278L100.923,122.278L101.379,122.278L101.839,122.278L102.07,122.278L102.306,122.278L102.531,122.278L102.761,122.278L103.222,44.5L103.453,44.5L103.691,44.5L103.913,44.5L104.604,44.5L104.835,44.5L105.073,44.5L105.296,44.5L105.526,44.5L105.987,44.5L106.217,44.5L106.457,44.5L106.679,44.5L106.909,44.5L107.6,130.056L107.839,130.056L108.061,130.056L108.291,130.056L108.752,130.056L109.674,130.056L110.135,44.5L110.365,44.5L110.602,44.5L111.518,44.5L111.748,44.5L111.984,44.5L112.209,44.5L112.439,44.5L112.9,60.056L113.13,60.056L113.371,106.722L113.591,106.722L113.821,122.278L114.282,122.278L114.513,122.278L114.753,122.278L114.974,122.278L115.204,122.278L115.665,122.278L115.896,122.278L116.135,122.278L116.356,122.278L116.587,122.278L117.047,122.278L117.278,122.278L117.517,122.278L117.739,122.278L117.969,122.278L118.43,122.278L120.043,130.056L120.279,122.278L120.504,122.278L120.734,122.278L121.195,122.278L121.426,122.278L121.662,122.278L121.886,122.278L122.117,122.278L122.578,122.278L123.499,75.611L123.96,44.5L124.191,44.5L124.429,44.5L124.652,44.5L124.882,44.5L125.343,44.5L125.573,44.5L125.812,44.5L126.034,44.5L126.265,44.5L126.725,44.5L126.956,44.5L127.195,44.5L127.417,44.5L127.647,44.5L128.108,44.5L128.338,44.5L128.577,44.5L129.03,44.5L129.491,44.5L129.721,44.5L129.956,44.5L130.182,44.5L130.412,44.5L130.873,44.5L131.103,44.5L131.34,44.5L131.565,44.5L131.795,44.5L132.255,44.5L132.725,44.5L135.251,91.167L135.49,91.167L135.712,91.167L135.942,91.167L136.403,91.167L138.254,91.167L138.477,91.167L139.635,91.167L140.09,91.167L141.017,122.278L141.242,122.278L141.472,122.278L141.933,122.278L142.164,122.278L142.403,122.278L142.624,122.278L142.855,122.278L143.316,91.167L143.785,91.167L144.007,91.167L144.237,91.167L144.698,91.167L146.311,91.167L146.55,91.167L146.772,91.167L147.003,91.167L147.463,91.167L147.694,91.167L147.932,91.167L148.155,91.167L148.385,91.167L148.846,91.167L149.537,91.167L150.459,106.722L150.695,106.722L150.92,106.722L151.15,106.722L151.611,106.722L151.842,106.722L152.081,106.722L152.302,106.722L152.533,106.722L152.994,106.722L153.224,106.722L153.462,106.722L153.685,106.722L153.915,106.722L154.376,106.722L154.607,106.722L154.839,106.722L155.067,106.722L155.298,106.722L155.759,91.167L156.45,91.167L156.68,91.167L157.141,91.167L157.372,91.167L157.609,91.167L157.832,91.167L158.063,91.167L158.524,91.167L158.754,91.167L158.99,91.167L159.215,91.167L159.445,91.167L159.906,91.167L160.137,91.167L160.372,91.167L160.597,91.167L160.828,91.167L161.289,91.167L161.52,91.167L161.756,91.167L161.98,91.167L162.211,91.167L162.671,91.167L162.902,91.167L163.138,91.167L163.363,91.167L163.593,91.167L164.054,91.167L164.284,91.167L164.521,91.167L164.745,91.167L164.976,91.167L165.436,83.389L165.667,83.389L165.903,83.389L166.128,83.389L166.358,83.389L166.819,83.389L167.049,83.389L167.287,83.389L167.511,83.389L167.741,83.389L168.202,83.389L168.432,83.389L168.668,83.389L168.893,83.389L169.123,83.389L169.584,83.389L169.815,83.389L170.05,83.389L170.275,83.389L170.506,83.389L170.967,83.389L171.197,83.389L171.434,83.389L171.658,83.389L171.889,83.389L172.349,83.389L172.579,83.389L172.817,83.389L173.041,83.389L173.271,83.389L173.732,106.722L173.962,106.722L174.2,106.722L174.423,106.722L174.653,106.722L175.114,106.722L175.345,106.722L175.582,106.722L175.806,106.722L176.036,106.722L176.497,106.722L176.727,106.722L176.965,106.722L177.188,106.722L177.418,106.722L177.879,114.5L178.11,114.5L178.347,114.5L178.571,114.5L178.801,114.5L179.262,106.722L179.492,106.722L179.729,106.722L179.953,106.722L180.184,106.722L180.645,114.5L180.875,114.5L181.113,114.5L181.336,114.5L181.566,114.5L182.027,122.278L182.257,122.278L182.501,122.278L182.718,122.278L182.949,122.278L183.41,122.278L183.64,122.278L183.878,122.278L184.101,122.278L184.331,122.278L184.792,122.278L185.022,122.278L185.261,122.278L185.484,122.278L185.714,122.278L186.175,122.278L186.405,122.278L186.643,122.278L186.866,122.278L187.096,122.278L187.557,122.278L187.788,122.278L188.024,122.278L188.248,122.278L188.479,122.278L188.94,122.278L189.17,122.278L189.406,122.278L189.631,122.278L189.862,122.278L190.322,122.278L190.553,122.278L190.792,122.278L191.014,122.278L191.244,122.278L191.705,114.5L191.935,114.5L192.174,114.5L192.396,114.5L192.627,114.5L193.087,122.278L193.318,122.278L193.557,122.278L193.778,122.278L194.009,122.278L194.47,114.5L194.7,114.5L194.939,114.5L195.161,114.5L195.392,114.5L195.853,122.278L196.083,122.278L196.321,122.278L196.544,122.278L196.774,122.278L197.235,122.278L197.465,122.278L197.702,122.278L197.926,122.278L198.157,122.278L198.848,122.278L199.085,122.278L199.309,122.278L199.539,122.278L200,122.278" stroke="#54a24b" stroke-width="2"/></g></g><path class="foreground" aria-hidden="true" d="" display="none"/></g><g transform="translate(0,0)"><path class="background" aria-hidden="true" d="M0,0h200v200h-200Z"/><g><g class="mark-line role-mark child_marks" role="graphics-object" aria-roledescription="line mark container"><path aria-label="Time: Dec 18, 2023; Price: 10995; item: K_ESSENTIAL_RAIN_PONCHO_UNISEX_-_Cape_-_black" role="graphics-symbol" aria-roledescription="line mark" d="M152.081,77.833L152.994,77.833L153.224,77.833L153.685,77.833L153.915,77.833L154.376,77.833L154.839,77.833L155.067,77.833L155.298,77.833L156.45,77.833L157.141,77.833L157.372,77.833L157.609,77.833L158.063,77.833L158.524,77.833L158.754,77.833L159.445,77.833L159.906,77.833L160.137,77.833L160.372,77.833L160.597,77.833L160.828,77.833L161.52,77.833L162.211,77.833L162.671,77.833L162.902,77.833L163.593,77.833L164.284,77.833L164.521,77.833L164.976,77.833L165.667,77.833L165.903,77.833L166.819,77.833L167.511,77.833L168.202,77.833L168.432,77.833L168.668,77.833L169.123,77.833L170.05,77.833L170.275,77.833L170.967,77.833L171.434,77.833L171.658,77.833L171.889,77.833L173.041,77.833L173.732,77.833L173.962,77.833L174.423,77.833L174.653,77.833L175.114,77.833L175.582,77.833L175.806,77.833L176.965,77.833L177.188,77.833L178.571,77.833L178.801,77.833L179.262,77.833L181.566,77.833L182.027,77.833" stroke="#72b7b2" stroke-width="2"/></g></g><path class="foreground" aria-hidden="true" d="" display="none"/></g><g transform="translate(0,0)"><path class="background" aria-hidden="true" d="M0,0h200v200h-200Z"/><g><g class="mark-line role-mark child_marks" role="graphics-object" aria-roledescription="line mark container"><path aria-label="Time: Dec 18, 2023; Price: 5845; item: PONCHO_-_Peignoir_-_dark_blue" role="graphics-symbol" aria-roledescription="line mark" d="M152.081,135.056L153.915,135.056L157.372,125.056L158.754,125.056L159.445,125.056L160.828,125.056L176.965,130.056" stroke="#9d755d" stroke-width="2"/></g></g><path class="foreground" aria-hidden="true" d="" display="none"/></g></g><g class="mark-group role-legend" role="graphics-symbol" aria-roledescription="legend" aria-label="Symbol legend titled 'item' for stroke color with 12 values: KUURA_3L_PONCHO_UNISEX_-_Veste_imperméable_-_green, DESCHUTES_VALLEY™_RAIN_PONCHO_-_Parka_-_black, DESCHUTES_VALLEY™_RAIN_PONCHO_-_Parka_-_vista_blue, K_ESSENTIAL_RAIN_PONCHO_UNISEX_-_Cape_-_black, PONCHO_-_Cape_-_lucid_blue, ending with COVERO_PONCHO_II_-_Cape_-_lightgrey"><g transform="translate(220,0)"><path class="background" aria-hidden="true" d="M0,0h328v170h-328Z" pointer-events="none"/><g><g class="mark-group role-legend-entry"><g transform="translate(0,16)"><path class="background" aria-hidden="true" d="M0,0h0v0h0Z" pointer-events="none"/><g><g class="mark-group role-scope" role="graphics-object" aria-roledescription="group mark container"><g transform="translate(0,0)"><path class="background" aria-hidden="true" d="M0,0h328v11h-328Z" pointer-events="none" opacity="1"/><g><g class="mark-symbol role-legend-symbol" pointer-events="none"><path transform="translate(6,6)" d="M-5,0L5,0" stroke="#4c78a8" stroke-width="1.5" opacity="1"/></g><g class="mark-text role-legend-label" pointer-events="none"><text text-anchor="start" transform="translate(16,9)" font-family="Liberation Mono" font-size="10px" fill="#000" opacity="1">KUURA_3L_PONCHO_UNISEX_-_Veste_impermé…</text></g></g><path class="foreground" aria-hidden="true" d="" pointer-events="none" display="none"/></g><g transform="translate(0,13)"><path class="background" aria-hidden="true" d="M0,0h328v11h-328Z" pointer-events="none" opacity="1"/><g><g class="mark-symbol role-legend-symbol" pointer-events="none"><path transform="translate(6,6)" d="M-5,0L5,0" stroke="#f58518" stroke-width="1.5" opacity="1"/></g><g class="mark-text role-legend-label" pointer-events="none"><text text-anchor="start" transform="translate(16,9)" font-family="Liberation Mono" font-size="10px" fill="#000" opacity="1">DESCHUTES_VALLEY™_RAIN_PONCHO_-_Parka_…</text></g></g><path class="foreground" aria-hidden="true" d="" pointer-events="none" display="none"/></g><g transform="translate(0,26)"><path class="background" aria-hidden="true" d="M0,0h328v11h-328Z" pointer-events="none" opacity="1"/><g><g class="mark-symbol role-legend-symbol" pointer-events="none"><path transform="translate(6,6)" d="M-5,0L5,0" stroke="#e45756" stroke-width="1.5" opacity="1"/></g><g class="mark-text role-legend-label" pointer-events="none"><text text-anchor="start" transform="translate(16,9)" font-family="Liberation Mono" font-size="10px" fill="#000" opacity="1">DESCHUTES_VALLEY™_RAIN_PONCHO_-_Parka_…</text></g></g><path class="foreground" aria-hidden="true" d="" pointer-events="none" display="none"/></g><g transform="translate(0,39)"><path class="background" aria-hidden="true" d="M0,0h328v11h-328Z" pointer-events="none" opacity="1"/><g><g class="mark-symbol role-legend-symbol" pointer-events="none"><path transform="translate(6,6)" d="M-5,0L5,0" stroke="#72b7b2" stroke-width="1.5" opacity="1"/></g><g class="mark-text role-legend-label" pointer-events="none"><text text-anchor="start" transform="translate(16,9)" font-family="Liberation Mono" font-size="10px" fill="#000" opacity="1">K_ESSENTIAL_RAIN_PONCHO_UNISEX_-_Cape_…</text></g></g><path class="foreground" aria-hidden="true" d="" pointer-events="none" display="none"/></g><g transform="translate(0,52)"><path class="background" aria-hidden="true" d="M0,0h328v11h-328Z" pointer-events="none" opacity="1"/><g><g class="mark-symbol role-legend-symbol" pointer-events="none"><path transform="translate(6,6)" d="M-5,0L5,0" stroke="#54a24b" stroke-width="1.5" opacity="1"/></g><g class="mark-text role-legend-label" pointer-events="none"><text text-anchor="start" transform="translate(16,9)" font-family="Liberation Mono" font-size="10px" fill="#000" opacity="1">PONCHO_-_Cape_-_lucid_blue</text></g></g><path class="foreground" aria-hidden="true" d="" pointer-events="none" display="none"/></g><g transform="translate(0,65)"><path class="background" aria-hidden="true" d="M0,0h328v11h-328Z" pointer-events="none" opacity="1"/><g><g class="mark-symbol role-legend-symbol" pointer-events="none"><path transform="translate(6,6)" d="M-5,0L5,0" stroke="#eeca3b" stroke-width="1.5" opacity="1"/></g><g class="mark-text role-legend-label" pointer-events="none"><text text-anchor="start" transform="translate(16,9)" font-family="Liberation Mono" font-size="10px" fill="#000" opacity="1">HIKING_BACKPACK_PONCHO_-_Veste_impermé…</text></g></g><path class="foreground" aria-hidden="true" d="" pointer-events="none" display="none"/></g><g transform="translate(0,78)"><path class="background" aria-hidden="true" d="M0,0h328v11h-328Z" pointer-events="none" opacity="1"/><g><g class="mark-symbol role-legend-symbol" pointer-events="none"><path transform="translate(6,6)" d="M-5,0L5,0" stroke="#b279a2" stroke-width="1.5" opacity="1"/></g><g class="mark-text role-legend-label" pointer-events="none"><text text-anchor="start" transform="translate(16,9)" font-family="Liberation Mono" font-size="10px" fill="#000" opacity="1">HIKING_BACKPACK_PONCHO_-_Veste_impermé…</text></g></g><path class="foreground" aria-hidden="true" d="" pointer-events="none" display="none"/></g><g transform="translate(0,91)"><path class="background" aria-hidden="true" d="M0,0h328v11h-328Z" pointer-events="none" opacity="1"/><g><g class="mark-symbol role-legend-symbol" pointer-events="none"><path transform="translate(6,6)" d="M-5,0L5,0" stroke="#ff9da6" stroke-width="1.5" opacity="1"/></g><g class="mark-text role-legend-label" pointer-events="none"><text text-anchor="start" transform="translate(16,9)" font-family="Liberation Mono" font-size="10px" fill="#000" opacity="1">PSG_M_NSW_CITY_MADE_PONCHO_-_Veste_de_…</text></g></g><path class="foreground" aria-hidden="true" d="" pointer-events="none" display="none"/></g><g transform="translate(0,104)"><path class="background" aria-hidden="true" d="M0,0h328v11h-328Z" pointer-events="none" opacity="1"/><g><g class="mark-symbol role-legend-symbol" pointer-events="none"><path transform="translate(6,6)" d="M-5,0L5,0" stroke="#9d755d" stroke-width="1.5" opacity="1"/></g><g class="mark-text role-legend-label" pointer-events="none"><text text-anchor="start" transform="translate(16,9)" font-family="Liberation Mono" font-size="10px" fill="#000" opacity="1">PONCHO_-_Peignoir_-_dark_blue</text></g></g><path class="foreground" aria-hidden="true" d="" pointer-events="none" display="none"/></g><g transform="translate(0,117)"><path class="background" aria-hidden="true" d="M0,0h328v11h-328Z" pointer-events="none" opacity="1"/><g><g class="mark-symbol role-legend-symbol" pointer-events="none"><path transform="translate(6,6)" d="M-5,0L5,0" stroke="#bab0ac" stroke-width="1.5" opacity="1"/></g><g class="mark-text role-legend-label" pointer-events="none"><text text-anchor="start" transform="translate(16,9)" font-family="Liberation Mono" font-size="10px" fill="#000" opacity="1">PARIS_ST._GERMAIN_CITY_MADE_PONCHO_-_V…</text></g></g><path class="foreground" aria-hidden="true" d="" pointer-events="none" display="none"/></g><g transform="translate(0,130)"><path class="background" aria-hidden="true" d="M0,0h328v11h-328Z" pointer-events="none" opacity="1"/><g><g class="mark-symbol role-legend-symbol" pointer-events="none"><path transform="translate(6,6)" d="M-5,0L5,0" stroke="#4c78a8" stroke-width="1.5" opacity="1"/></g><g class="mark-text role-legend-label" pointer-events="none"><text text-anchor="start" transform="translate(16,9)" font-family="Liberation Mono" font-size="10px" fill="#000" opacity="1">SHOWERPROOF_PONCHO_UNISEX_-_Cape_-_cla…</text></g></g><path class="foreground" aria-hidden="true" d="" pointer-events="none" display="none"/></g><g transform="translate(0,143)"><path class="background" aria-hidden="true" d="M0,0h328v11h-328Z" pointer-events="none" opacity="1"/><g><g class="mark-symbol role-legend-symbol" pointer-events="none"><path transform="translate(6,6)" d="M-5,0L5,0" stroke="#f58518" stroke-width="1.5" opacity="1"/></g><g class="mark-text role-legend-label" pointer-events="none"><text text-anchor="start" transform="translate(16,9)" font-family="Liberation Mono" font-size="10px" fill="#000" opacity="1">COVERO_PONCHO_II_-_Cape_-_lightgrey</text></g></g><path class="foreground" aria-hidden="true" d="" pointer-events="none" display="none"/></g></g></g><path class="foreground" aria-hidden="true" d="" pointer-events="none" display="none"/></g></g><g class="mark-text role-legend-title" pointer-events="none"><text text-anchor="start" transform="translate(0,9)" font-family="Liberation Mono" font-size="11px" font-weight="bold" fill="#000" opacity="1">item</text></g></g><path class="foreground" aria-hidden="true" d="" pointer-events="none" display="none"/></g></g></g><path class="foreground" aria-hidden="true" d="" display="none"/></g></g></g><path class="foreground" aria-hidden="true" d="" display="none"/></g></g></g></svg>