<svg xmlns="http://www.w3.org/2000/svg" xmlns:xlink="http://www.w3.org/1999/xlink" version="1.1" class="marks" width="658" height="244" viewBox="0 0 658 244"><rect width="658" height="244" fill="white"/><g fill="none" stroke-miterlimit="10" transform="translate(104,6)"><g class="mark-group role-frame root" role="graphics-object" aria-roledescription="group mark container"><g transform="translate(0,0)"><path class="background" aria-hidden="true" d="M0,0h0v0h0Z"/><g><g class="mark-group role-row-title row-title" role="graphics-object" aria-roledescription="group mark container"><g transform="translate(-78,116)"><path class="background" aria-hidden="true" d="M0,0h0v0h0Z"/><g><g class="mark-group role-title"><g transform="translate(-21.000000000000004,0)"><path class="background" aria-hidden="true" d="M0,0h0v0h0Z" pointer-events="none"/><g><g class="mark-text role-title-text" role="graphics-symbol" aria-roledescription="title" aria-label="Title text 'group'" pointer-events="none"><text text-anchor="middle" transform="translate(0,0) rotate(-90) translate(0,9)" font-family="Liberation Mono" font-size="11px" font-weight="bold" fill="#000" opacity="1">group</text></g></g><path class="foreground" aria-hidden="true" d="" pointer-events="none" display="none"/></g></g></g><path class="foreground" aria-hidden="true" d="" display="none"/></g></g><g class="mark-group role-row-header row_header" role="graphics-object" aria-roledescription="group mark container"><g transform="translate(-47,0)"><path class="background" aria-hidden="true" d="M0,0h0v200h0Z"/><g><g class="mark-group role-title"><g transform="translate(-20.000000000000007,100)"><path class="background" aria-hidden="true" d="M0,0h0v0h0Z" pointer-events="none"/><g><g class="mark-text role-title-text" role="graphics-symbol" aria-roledescription="title" aria-label="Title text 'zalando-poncho'" pointer-events="none"><text text-anchor="middle" transform="translate(0,0) rotate(-90) translate(0,8)" font-family="Liberation Mono" font-size="10px" fill="#000" opacity="1">zalando-poncho</text></g></g><path class="foreground" aria-hidden="true" d="" pointer-events="none" display="none"/></g></g></g><path class="foreground" aria-hidden="true" d="" display="none"/></g></g><g class="mark-group role-scope cell" role="graphics-object" aria-roledescription="group mark container"><g transform="translate(0,0)"><path class="background" aria-hidden="true" d="M0.5,0.5h200v200h-200Z" stroke="#ddd"/><g><g class="mark-group role-axis" aria-hidden="true"><g transform="translate(0.5,200.5)"><path class="background" aria-hidden="true" d="M0,0h0v0h0Z" pointer-events="none"/><g><g class="mark-rule role-axis-grid" pointer-events="none"><line transform="translate(3,-200)" x2="0" y2="200" stroke="#ddd" stroke-width="1" opacity="1"/><line transform="translate(61,-200)" x2="0" y2="200" stroke="#ddd" stroke-width="1" opacity="1"/><line transform="translate(122,-200)" x2="0" y2="200" stroke="#ddd" stroke-width="1" opacity="1"/><line transform="translate(181,-200)" x2="0" y2="200" stroke="#ddd" stroke-width="1" opacity="1"/></g></g><path class="foreground" aria-hidden="true" d="" pointer-events="none" display="none"/></g></g><g class="mark-group role-axis" aria-hidden="true"><g transform="translate(0.5,0.5)"><path class="background" aria-hidden="true" d="M0,0h0v0h0Z" pointer-events="none"/><g><g class="mark-rule role-axis-grid" pointer-events="none"><line transform="translate(0,200)" x2="200" y2="0" stroke="#ddd" stroke-width="1" opacity="1"/><line transform="translate(0,144)" x2="200" y2="0" stroke="#ddd" stroke-width="1" opacity="1"/><line transform="translate(0,89)" x2="200" y2="0" stroke="#ddd" stroke-width="1" opacity="1"/><line transform="translate(0,33)" x2="200" y2="0" stroke="#ddd" stroke-width="1" opacity="1"/></g></g><path class="foreground" aria-hidden="true" d="" pointer-events="none" display="none"/></g></g><g class="mark-group role-axis" role="graphics-symbol" aria-roledescription="axis" aria-label="X-axis titled 'Time' for a time scale with values from Wednesday, 30 August 2023, 12:58:24 PM to Sunday, 10 December 2023, 8:50:12 PM"><g transform="translate(0.5,200.5)"><path class="background" aria-hidden="true" d="M0,0h0v0h0Z" pointer-events="none"/><g><g class="mark-rule role-axis-tick" pointer-events="none"><line transform="translate(3,0)" x2="0" y2="5" stroke="#888" stroke-width="1" opacity="1"/><line transform="translate(61,0)" x2="0" y2="5" stroke="#888" stroke-width="1" opacity="1"/><line transform="translate(122,0)" x2="0" y2="5" stroke="#888" stroke-width="1" opacity="1"/><line transform="translate(181,0)" x2="0" y2="5" stroke="#888" stroke-width="1" opacity="1"/></g><g class="mark-text role-axis-label" pointer-events="none"><text text-anchor="middle" transform="translate(2.852492160021407,15)" font-family="Liberation Mono" font-size="10px" fill="#000" opacity="1">September</text><text text-anchor="middle" transform="translate(61.48767041968733,15)" font-family="Liberation Mono" font-size="10px" fill="#000" opacity="0">October</text><text text-anchor="middle" transform="translate(122.07735462134212,15)" font-family="Liberation Mono" font-size="10px" fill="#000" opacity="0">November</text><text text-anchor="middle" transform="translate(180.71253288100806,15)" font-family="Liberation Mono" font-size="10px" fill="#000" opacity="1">December</text></g><g class="mark-rule role-axis-domain" pointer-events="none"><line transform="translate(0,0)" x2="200" y2="0" stroke="#888" stroke-width="1" opacity="1"/></g><g class="mark-text role-axis-title" pointer-events="none"><text text-anchor="middle" transform="translate(100,30)" font-family="Liberation Mono" font-size="11px" font-weight="bold" fill="#000" opacity="1">Time</text></g></g><path class="foreground" aria-hidden="true" d="" pointer-events="none" display="none"/></g></g><g class="mark-group role-axis" role="graphics-symbol" aria-roledescription="axis" aria-label="Y-axis titled 'Price' for a linear scale with values from 0 to 18,000"><g transform="translate(0.5,0.5)"><path class="background" aria-hidden="true" d="M0,0h0v0h0Z" pointer-events="none"/><g><g class="mark-rule role-axis-tick" pointer-events="none"><line transform="translate(0,200)" x2="-5" y2="0" stroke="#888" stroke-width="1" opacity="1"/><line transform="translate(0,144)" x2="-5" y2="0" stroke="#888" stroke-width="1" opacity="1"/><line transform="translate(0,89)" x2="-5" y2="0" stroke="#888" stroke-width="1" opacity="1"/><line transform="translate(0,33)" x2="-5" y2="0" stroke="#888" stroke-width="1" opacity="1"/></g><g class="mark-text role-axis-label" pointer-events="none"><text text-anchor="end" transform="translate(-7,203)" font-family="Liberation Mono" font-size="10px" fill="#000" opacity="1">0</text><text text-anchor="end" transform="translate(-7,147.44444444444443)" font-family="Liberation Mono" font-size="10px" fill="#000" opacity="1">50</text><text text-anchor="end" transform="translate(-7,91.88888888888889)" font-family="Liberation Mono" font-size="10px" fill="#000" opacity="1">100</text><text text-anchor="end" transform="translate(-7,36.33333333333333)" font-family="Liberation Mono" font-size="10px" fill="#000" opacity="1">150</text></g><g class="mark-rule role-axis-domain" pointer-events="none"><line transform="translate(0,200)" x2="0" y2="-200" stroke="#888" stroke-width="1" opacity="1"/></g><g class="mark-text role-axis-title" pointer-events="none"><text text-anchor="middle" transform="translate(-35,100) rotate(-90) translate(0,-2)" font-family="Liberation Mono" font-size="11px" font-weight="bold" fill="#000" opacity="1">Price</text></g></g><path class="foreground" aria-hidden="true" d="" pointer-events="none" display="none"/></g></g><g class="mark-group role-scope child_pathgroup" role="graphics-object" aria-roledescription="group mark container"><g transform="translate(0,0)"><path class="background" aria-hidden="true" d="M0,0h200v200h-200Z"/><g><g class="mark-line role-mark child_marks" role="graphics-object" aria-roledescription="line mark container"><path aria-label="Time: Aug 30, 2023; Price: 10795; item: DESCHUTES_VALLEY™_RAIN_PONCHO_-_Parka_-_black" role="graphics-symbol" aria-roledescription="line mark" d="M0,80.056L0.317,80.056L0.641,80.056L1.293,80.056L1.618,80.056L1.955,80.056L2.27,80.056L2.595,80.056L3.248,80.056L3.573,80.056L3.909,80.056L4.224,80.056L4.55,80.056L5.202,80.056L5.527,80.056L5.859,80.056L6.178,80.056L6.505,80.056L7.156,80.056L7.716,80.056L7.815,80.056L8.133,80.056L8.459,80.056L9.111,80.056L9.437,80.056L9.774,80.056L10.088,80.056L10.413,80.056L11.067,50.056L11.393,50.056L11.728,50.056L12.043,50.056L12.368,50.056L13.02,50.056L13.345,50.056L13.683,50.056L13.997,50.056L14.323,50.056L14.975,50.056L15.3,50.056L15.636,50.056L15.952,50.056L16.277,50.056L17.134,50.056L17.254,50.056L17.59,50.056L17.905,50.056L18.232,50.056L18.882,50.056L19.209,50.056L19.541,50.056L19.86,50.056L20.186,50.056L20.838,50.056L21.163,50.056L21.495,50.056L21.814,50.056L22.14,50.056L22.792,50.056L23.117,50.056L23.456,50.056L23.769,50.056L24.095,50.056L24.747,50.056L25.072,50.056L25.409,50.056L25.724,50.056L26.05,50.056L26.701,20.056L27.027,20.056L27.364,20.056L27.536,20.056L27.678,20.056L28.004,20.056L28.655,20.056L28.981,20.056L29.319,20.056L29.633,20.056L29.958,20.056L30.61,20.056L30.936,20.056L31.272,20.056L31.587,20.056L31.913,20.056L32.564,20.056L32.89,20.056L33.222,20.056L33.542,20.056L33.867,20.056L34.519,20.056L34.845,20.056L35.177,20.056L35.496,20.056L35.822,20.056L36.474,20.056L36.799,20.056L37.137,20.056L37.451,20.056L37.777,20.056L38.427,20.056L38.753,20.056L39.091,20.056L39.405,20.056L39.731,20.056L40.382,20.056L40.709,20.056L41.046,20.056L41.36,20.056L41.685,20.056L42.337,20.056L42.662,20.056L43.001,20.056L43.314,20.056L43.64,20.056L44.291,20.056L44.617,20.056L44.954,20.056L45.269,20.056L45.594,20.056L46.246,20.056L46.572,20.056L46.904,20.056L47.223,20.056L47.549,20.056L48.2,20.056L48.526,20.056L48.859,20.056L49.178,20.056L49.503,20.056L50.155,20.056L50.481,20.056L50.819,20.056L51.132,20.056L51.457,20.056L52.109,20.056L52.436,20.056L52.774,20.056L53.086,20.056L53.412,20.056L54.064,40.056L54.389,40.056L54.727,40.056L55.041,40.056L55.367,40.056L56.018,40.056L56.344,40.056L56.682,40.056L56.995,40.056L57.973,40.056L58.299,40.056L58.635,40.056L58.95,40.056L59.276,40.056L59.927,40.056L60.253,40.056L60.586,40.056L60.904,40.056L61.23,40.056L61.882,40.056L62.208,40.056L62.541,40.056L62.859,40.056L63.185,40.056L63.836,100.056L64.162,100.056L64.5,100.056L64.814,100.056L65.139,100.056L65.791,90.056L66.117,90.056L66.455,90.056L66.769,90.056L67.094,90.056L67.745,90.056L68.071,90.056L68.411,90.056L68.723,90.056L69.049,90.056L69.7,90.056L70.025,90.056L70.366,90.056L70.677,90.056L71.004,90.056L71.654,90.056L71.981,90.056L72.319,90.056L72.632,90.056L72.958,90.056L73.609,90.056L73.935,90.056L74.268,90.056L74.586,90.056L74.913,90.056L75.564,90.056L75.889,90.056L76.541,90.056L76.866,90.056L77.518,90.056L77.844,90.056L78.184,90.056L78.495,90.056L78.821,90.056L79.473,100.056L79.798,100.056L80.137,100.056L80.45,100.056L80.775,100.056L81.427,100.056L81.753,100.056L82.091,100.056L82.404,100.056L82.73,100.056L83.381,100.056L83.707,100.056L84.046,100.056L84.359,100.056L84.685,100.056L85.336,100.056L85.662,100.056L86,100.056L86.313,100.056L86.639,100.056L87.291,100.056L87.617,100.056L87.949,100.056L88.268,100.056L88.593,100.056L89.245,100.056L89.571,100.056L89.904,100.056L90.222,100.056L90.548,100.056L91.2,90.056L91.526,90.056L91.864,90.056L92.177,90.056L92.503,90.056L93.154,90.056L93.48,90.056L93.818,90.056L94.132,90.056L94.457,90.056L95.109,90.056L95.434,90.056L95.772,90.056L96.086,90.056L96.411,90.056L97.063,90.056L97.389,90.056L97.727,90.056L98.04,90.056L98.366,90.056L99.018,90.056L99.344,90.056L99.681,90.056L99.995,90.056L100.32,90.056L100.972,90.056L101.298,90.056L101.63,90.056L101.949,90.056L102.275,90.056L102.927,90.056L103.252,90.056L103.585,90.056L103.904,90.056L104.23,90.056L104.881,90.056L105.207,90.056L105.544,90.056L105.859,90.056L106.184,90.056L106.835,50.056L107.161,50.056L107.498,50.056L107.813,50.056L108.138,50.056L108.79,50.056L109.116,50.056L109.453,50.056L109.767,50.056L110.093,50.056L110.744,50.056L111.071,50.056L111.406,50.056L111.722,50.056L112.047,50.056L112.699,50.056L113.026,50.056L113.36,50.056L113.676,50.056L114.002,50.056L114.653,50.056L114.979,50.056L115.311,50.056L115.631,50.056L115.957,50.056L116.608,50.056L116.934,50.056L117.267,50.056L117.585,50.056L117.911,50.056L118.563,50.056L118.889,50.056L119.225,50.056L119.54,50.056L119.866,50.056L120.517,50.056L120.843,50.056L121.179,50.056L121.495,50.056L121.82,50.056L122.472,50.056L122.797,50.056L123.133,50.056L123.449,50.056L123.775,50.056L124.426,40.056L124.752,40.056L125.088,40.056L125.403,40.056L127.358,40.056L127.684,40.056L128.335,40.056L128.994,40.056L129.312,40.056L137.13,40.056L137.456,40.056L138.107,40.056L138.433,40.056L138.769,40.056L139.085,40.056L139.411,40.056L140.062,70.056L140.388,70.056L140.724,70.056L141.04,70.056L141.365,70.056L142.017,70.056L142.343,70.056L142.675,70.056L143.319,70.056L143.971,70.056L144.297,70.056L144.63,70.056L144.948,70.056L145.274,70.056L145.925,40.056L146.251,40.056L146.589,40.056L146.903,40.056L147.88,40.056L148.206,40.056L148.543,40.056L148.857,40.056L149.183,40.056L149.835,40.056L150.16,40.056L150.499,40.056L150.812,40.056L151.137,40.056L151.789,50.056L152.115,50.056L152.453,50.056L152.766,50.056L153.092,50.056L153.743,50.056L154.069,50.056L154.407,50.056L154.721,50.056L155.046,50.056L155.698,40.056L156.023,40.056L156.358,40.056L156.675,40.056L157.001,40.056L157.653,40.056L157.978,40.056L158.313,40.056L158.63,40.056L158.956,40.056L159.607,40.056L159.933,40.056L160.272,40.056L160.584,40.056L160.91,40.056L161.562,40.056L161.887,40.056L162.226,60.056L162.539,60.056L162.864,60.056L163.516,60.056L163.842,60.056L164.18,60.056L164.493,60.056L164.819,60.056L165.47,60.056L165.796,60.056L166.134,80.056L166.448,80.056L166.774,80.056L167.425,80.056L167.751,80.056L168.087,80.056L168.402,80.056L168.728,80.056L169.38,70.056L169.706,70.056L170.039,70.056L170.357,70.056L170.682,70.056L171.334,70.056L171.66,70.056L171.994,70.056L172.311,70.056L172.637,70.056L173.289,40.056L173.614,40.056L173.953,40.056L174.266,40.056L174.592,40.056L175.243,40.056L175.569,40.056L175.905,40.056L176.22,40.056L176.546,40.056L177.198,40.056L177.523,40.056L177.861,40.056L178.175,40.056L178.501,40.056L179.152,40.056L179.478,40.056L179.815,40.056L180.129,40.056L180.455,40.056L181.106,40.056L181.433,40.056L181.77,40.056L182.084,40.056L182.41,40.056L183.061,40.056L183.387,40.056L183.72,40.056L184.038,40.056L184.364,40.056L185.015,40.056L185.341,40.056L185.676,40.056L185.993,40.056L186.319,40.056L186.97,40.056L187.296,40.056L187.634,40.056L187.948,40.056L188.273,40.056L188.925,50.056L189.25,50.056L189.588,50.056L189.902,50.056L190.228,50.056L190.879,50.056L191.205,50.056L191.543,50.056L191.856,50.056L192.182,50.056L192.833,50.056L193.159,50.056L193.498,50.056L193.811,50.056L194.137,50.056L194.788,50.056L195.114,50.056L195.45,50.056L195.766,50.056L196.091,50.056L196.743,50.056L197.068,50.056L197.402,50.056L197.72,50.056L198.046,50.056L198.697,50.056L199.023,50.056L199.357,50.056L199.674,50.056L200,50.056" stroke="#e45756" stroke-width="2"/></g></g><path class="foreground" aria-hidden="true" d="" display="none"/></g><g transform="translate(0,0)"><path class="background" aria-hidden="true" d="M0,0h200v200h-200Z"/><g><g class="mark-line role-mark child_marks" role="graphics-object" aria-roledescription="line mark container"><path aria-label="Time: Aug 30, 2023; Price: 8995; item: HIKING_BACKPACK_PONCHO_-_Veste_imperméable_-_blue" role="graphics-symbol" aria-roledescription="line mark" d="M0,100.056L0.317,100.056L0.641,100.056L1.293,100.056L1.618,100.056L1.955,100.056L2.27,100.056L2.595,100.056L3.248,100.056L3.573,100.056L3.909,100.056L4.224,100.056L4.55,100.056L5.202,100.056L5.527,100.056L5.859,100.056L6.178,100.056L6.505,100.056L7.156,100.056L7.716,100.056L7.815,100.056L23.118,100.056L23.456,100.056L23.769,100.056L24.095,100.056L24.747,100.056L25.072,100.056L25.409,100.056L25.724,100.056L26.05,100.056L26.701,100.056L27.027,100.056L27.364,100.056L27.536,100.056L27.678,100.056L28.004,100.056L28.655,100.056L28.981,100.056L29.319,100.056L29.633,100.056L29.958,100.056L30.61,100.056L30.936,100.056L31.272,100.056L31.587,100.056L31.913,100.056L32.564,100.056L32.89,100.056L33.222,100.056L33.542,100.056L33.867,100.056L34.519,100.056L34.845,100.056L56.995,111.167L57.973,111.167L58.299,111.167L58.635,111.167L58.95,111.167L59.276,111.167L59.927,111.167L60.253,111.167L60.586,111.167L60.904,111.167L61.23,111.167L61.882,111.167L62.208,111.167L62.541,111.167L62.859,111.167L63.185,111.167L63.836,111.167L64.162,111.167L64.5,111.167L64.814,111.167L65.14,111.167L65.791,127.833L66.117,127.833L66.455,127.833L66.769,127.833L67.094,127.833L67.745,127.833L68.071,127.833L68.411,127.833L68.723,127.833L69.049,127.833L69.7,127.833L70.025,127.833L70.366,127.833L70.677,127.833L71.004,127.833L71.654,127.833L71.981,127.833L72.319,127.833L72.632,127.833L72.958,127.833L73.609,127.833L73.935,127.833L74.268,127.833L74.586,127.833L74.913,127.833L75.564,127.833L75.889,127.833L76.541,127.833L76.866,127.833L77.518,127.833" stroke="#54a24b" stroke-width="2"/></g></g><path class="foreground" aria-hidden="true" d="" display="none"/></g><g transform="translate(0,0)"><path class="background" aria-hidden="true" d="M0,0h200v200h-200Z"/><g><g class="mark-line role-mark child_marks" role="graphics-object" aria-roledescription="line mark container"><path aria-label="Time: Aug 30, 2023; Price: 16195; item: DESCHUTES_VALLEY™_RAIN_PONCHO_-_Parka_-_vista_blue" role="graphics-symbol" aria-roledescription="line mark" d="M0,20.056L0.317,20.056L0.641,20.056L1.293,20.056L1.618,20.056L1.955,20.056L2.27,20.056L2.595,20.056L3.248,20.056L3.573,20.056L3.909,20.056L4.224,20.056L4.55,20.056L5.202,20.056L5.527,20.056L5.859,20.056L6.178,20.056L6.505,20.056L7.156,20.056L7.716,20.056L7.815,20.056L8.133,20.056L8.459,20.056L9.111,20.056L9.437,20.056L9.774,20.056L10.088,20.056L10.413,20.056L11.067,80.056L11.393,80.056L11.728,80.056L12.043,80.056L12.368,80.056L13.02,80.056L13.345,80.056L13.683,80.056L13.997,80.056L14.323,80.056L14.975,80.056L15.3,80.056L15.636,80.056L15.952,80.056L16.277,80.056L17.134,80.056L17.254,80.056L17.59,80.056L17.905,80.056L18.232,80.056L18.882,80.056L19.209,80.056L19.541,80.056L19.86,80.056L20.186,80.056L20.838,80.056L21.163,80.056L21.495,80.056L21.814,80.056L22.14,80.056L22.792,80.056L23.117,80.056L23.456,80.056L23.769,80.056L24.095,80.056L24.747,80.056L25.072,80.056L25.409,80.056L25.724,80.056L26.05,80.056L26.701,20.056L27.027,20.056L27.364,20.056L27.536,20.056L27.678,20.056L28.004,20.056L28.655,20.056L28.981,20.056L29.319,20.056L29.633,20.056L29.958,20.056L30.61,20.056L30.936,20.056L31.272,20.056L31.587,20.056L31.913,20.056L32.564,20.056L32.89,20.056L33.222,20.056L33.542,20.056L33.867,20.056L34.519,20.056L34.845,20.056L35.177,20.056L35.496,20.056L35.822,20.056L36.474,20.056L36.799,20.056L37.137,20.056L37.451,20.056L37.777,20.056L38.427,20.056L38.753,20.056L39.091,20.056L39.405,20.056L39.731,20.056L40.382,20.056L40.709,20.056L41.046,20.056L41.36,20.056L41.685,20.056L42.337,20.056L42.662,20.056L43.001,20.056L43.314,20.056L43.64,20.056L44.291,20.056L44.617,20.056L44.954,20.056L45.269,20.056L45.594,20.056L46.246,20.056L46.572,20.056L46.904,20.056L47.223,20.056L47.549,20.056L48.2,20.056L48.526,20.056L48.859,20.056L49.178,20.056L49.503,20.056L50.155,20.056L50.481,20.056L50.819,20.056L51.132,20.056L51.457,20.056L52.109,20.056L52.436,20.056L52.774,20.056L53.086,20.056L53.412,20.056L54.064,40.056L54.389,40.056L54.727,40.056L55.041,40.056L55.367,40.056L56.018,40.056L56.344,40.056L56.682,40.056L56.995,40.056L57.973,40.056L58.299,40.056L58.635,40.056L58.95,40.056L59.276,40.056L59.927,40.056L60.253,40.056L60.586,40.056L60.904,40.056L61.23,40.056L61.882,40.056L62.208,40.056L62.541,40.056L62.859,40.056L63.185,40.056L63.836,90.056L64.162,90.056L64.5,90.056L64.814,90.056L65.14,90.056L65.791,40.056L66.117,40.056L66.455,40.056L66.769,40.056L67.094,40.056L67.745,40.056L68.071,40.056L68.411,40.056L68.723,40.056L69.049,40.056L69.7,40.056L70.025,40.056L70.366,40.056L70.677,40.056L71.004,40.056L71.654,40.056L71.981,40.056L72.319,40.056L72.632,40.056L72.958,40.056L73.609,40.056L73.935,40.056L74.268,40.056L74.586,40.056L74.913,40.056L75.564,40.056L75.889,40.056L76.541,40.056L76.866,40.056L77.518,40.056L77.844,40.056L78.184,40.056L78.495,40.056L78.821,40.056L79.473,90.056L79.798,90.056L80.137,90.056L80.45,90.056L80.775,90.056L81.427,90.056L81.753,90.056L82.091,90.056L82.404,90.056L82.73,90.056L83.381,90.056L83.707,90.056L84.046,90.056L84.359,90.056L84.685,90.056L85.336,90.056L85.662,90.056L86,90.056L86.313,90.056L86.639,90.056L87.291,40.056L87.617,40.056L87.949,40.056L88.268,40.056L88.593,40.056L89.245,40.056L89.571,40.056L89.904,40.056L90.222,40.056L90.548,40.056L91.2,100.056L91.526,100.056L91.864,100.056L92.177,100.056L92.503,100.056L93.154,100.056L93.48,100.056L93.818,100.056L94.132,100.056L94.457,100.056L95.109,100.056L95.434,100.056L95.772,100.056L96.086,100.056L96.411,100.056L97.063,100.056L97.389,100.056L97.727,100.056L98.04,100.056L98.366,100.056L99.018,100.056L99.344,100.056L99.681,100.056L99.995,100.056L100.32,100.056L100.972,100.056L101.298,100.056L101.63,100.056L101.949,100.056L102.275,100.056L102.927,100.056L103.252,100.056L103.585,100.056L103.904,100.056L104.23,100.056L104.881,100.056L105.207,100.056L105.544,100.056L105.859,100.056L106.184,100.056L106.835,40.056L107.161,40.056L107.498,40.056L107.813,40.056L108.138,40.056L108.79,40.056L109.116,40.056L109.453,40.056L109.767,40.056L110.093,40.056L110.744,40.056L111.071,40.056L111.406,40.056L111.722,40.056L112.047,40.056L112.699,40.056L113.026,40.056L113.36,40.056L113.677,40.056L114.002,40.056L114.653,40.056L114.979,40.056L115.311,40.056L115.631,40.056L115.957,40.056L116.608,40.056L116.934,40.056L117.267,40.056L117.585,40.056L117.911,40.056L118.563,40.056L118.889,40.056L119.225,40.056L119.54,40.056L119.866,40.056L120.517,40.056L120.843,40.056L121.179,40.056L121.495,40.056L121.82,40.056L122.472,40.056L122.797,40.056L123.133,40.056L123.449,40.056L123.775,40.056L124.426,40.056L124.752,40.056L125.088,40.056L125.403,40.056L125.729,40.056L126.38,40.056L126.706,40.056L127.044,40.056L127.358,40.056L127.684,40.056L128.335,40.056L128.661,40.056L128.994,40.056L129.312,40.056L129.638,40.056L130.29,40.056L130.615,40.056L130.948,40.056L131.267,40.056L131.593,40.056L132.244,40.056L132.57,40.056L132.909,40.056L133.221,40.056L133.547,40.056L134.199,40.056L134.525,40.056L134.861,40.056L135.176,40.056L135.501,40.056L136.153,40.056L136.479,40.056L136.815,40.056L137.13,40.056L137.456,40.056L138.107,40.056L138.433,40.056L138.769,40.056L139.085,40.056L139.411,40.056L140.062,40.056L140.388,40.056L140.724,40.056L141.04,40.056L141.365,40.056L142.017,40.056L142.343,40.056L142.675,40.056L143.319,40.056L143.971,40.056L144.297,40.056L144.63,40.056L144.948,40.056L145.274,40.056L145.925,40.056L146.251,40.056L146.589,40.056L146.903,40.056L147.88,40.056L148.206,40.056L148.543,40.056L148.857,40.056L149.183,40.056L149.835,40.056L150.16,40.056L150.499,40.056L150.812,40.056L151.137,40.056L151.789,120.056L152.115,120.056L152.453,120.056L152.766,120.056L153.092,120.056L153.743,120.056L154.069,120.056L154.407,120.056L154.721,120.056L155.046,120.056L155.698,40.056L156.023,40.056L156.358,40.056L156.675,40.056L157.001,40.056L157.653,40.056L157.978,40.056L158.313,40.056L158.63,40.056L158.956,40.056L159.607,50.056L159.933,50.056L160.272,70.056L160.584,70.056L160.91,70.056L161.562,70.056L161.887,70.056L162.226,70.056L162.539,70.056L162.864,70.056L163.516,70.056L163.842,70.056L164.18,70.056L164.493,70.056L164.819,70.056L165.47,120.056L165.796,120.056L166.134,120.056L166.448,120.056L166.774,120.056L167.425,120.056L167.751,120.056L168.087,120.056L168.402,120.056L168.728,120.056L169.38,120.056L169.706,120.056L170.039,120.056L170.357,120.056L170.682,120.056L171.334,120.056L171.66,120.056L171.994,120.056L172.311,120.056L172.637,120.056L173.289,40.056L173.614,40.056L173.953,40.056L174.266,40.056L174.592,40.056L175.243,40.056L175.569,40.056L175.905,40.056L176.22,40.056L176.546,40.056L177.198,40.056L177.523,40.056L177.861,40.056L178.175,40.056L178.501,40.056L179.152,40.056L179.478,40.056L179.815,40.056L180.129,40.056L180.455,40.056L181.106,40.056L181.433,40.056L181.77,40.056L182.084,40.056L182.41,40.056L183.061,40.056L183.387,40.056L183.72,40.056L184.038,40.056L184.364,40.056L185.015,40.056L185.341,40.056L185.676,40.056L185.993,40.056L186.319,40.056L186.97,40.056L187.296,40.056L187.634,40.056L187.948,40.056L188.273,40.056L188.925,100.056L189.25,100.056L189.589,100.056L189.902,100.056L190.228,100.056L190.879,100.056L191.205,100.056L191.543,100.056L191.856,100.056L192.182,100.056L192.833,100.056L193.159,100.056L193.498,100.056L193.811,100.056L194.137,100.056L194.788,100.056L195.114,100.056L195.45,100.056L195.766,100.056L196.091,100.056L196.743,100.056L197.068,100.056L197.402,100.056L197.72,100.056L198.046,100.056L198.697,100.056L199.023,100.056L199.357,100.056L199.674,100.056L200,100.056" stroke="#f58518" stroke-width="2"/></g></g><path class="foreground" aria-hidden="true" d="" display="none"/></g><g transform="translate(0,0)"><path class="background" aria-hidden="true" d="M0,0h200v200h-200Z"/><g><g class="mark-line role-mark child_marks" role="graphics-object" aria-roledescription="line mark container"><path aria-label="Time: Aug 30, 2023; Price: 5495; item: COVERO_PONCHO_II_-_Cape_-_lightgrey" role="graphics-symbol" aria-roledescription="line mark" d="M0,138.944L0.317,138.944L0.641,138.944L1.293,138.944L1.618,138.944L1.955,138.944L2.27,138.944L2.595,138.944L3.248,138.944L3.573,138.944L5.527,138.944L5.859,138.944L6.178,138.944L6.505,138.944L7.156,138.944L7.716,138.944L7.815,138.944L8.133,138.944L8.459,138.944L9.111,138.944L9.437,138.944L9.774,138.944L10.088,138.944L10.413,138.944L11.067,138.944L11.393,138.944L11.728,138.944L12.043,138.944L12.368,138.944L17.905,153.944L21.163,138.944L21.495,138.944L21.814,138.944L22.14,138.944L22.792,138.944L23.118,138.944L23.456,138.944L23.769,138.944L24.095,138.944L24.747,138.944L25.072,138.944L25.409,138.944L25.724,138.944L26.05,138.944L26.701,138.944L27.027,138.944L27.364,138.944L27.536,138.944L27.678,138.944L28.004,138.944L28.655,138.944L28.981,138.944L29.319,138.944L29.633,138.944L29.958,138.944L30.61,138.944L30.936,138.944L31.272,138.944L31.587,138.944L31.913,138.944L32.564,138.944L32.89,138.944L33.222,138.944L33.542,138.944L33.867,138.944L34.519,138.944L34.845,138.944L35.177,138.944L35.496,138.944L35.822,138.944L36.474,138.944L36.799,138.944L37.137,138.944L37.451,138.944L37.777,138.944L38.427,138.944L38.753,138.944L39.091,138.944L39.405,138.944L39.731,138.944L40.382,151.167L40.709,151.167L41.046,151.167L41.36,151.167L41.685,151.167L42.337,151.167L42.662,151.167L43.001,151.167L43.314,151.167L43.64,151.167L44.291,151.167L44.617,151.167L44.954,151.167L46.572,151.167L46.904,151.167L47.223,151.167L47.549,151.167L48.2,151.167L48.526,151.167L48.859,151.167L49.178,151.167L49.503,151.167L50.155,151.167L50.481,151.167L50.819,151.167L51.132,151.167L51.458,151.167L52.109,151.167L52.436,151.167L52.774,151.167L53.086,151.167L53.412,151.167L54.064,151.167L54.389,151.167L54.727,151.167L55.041,151.167L55.367,151.167L56.018,151.167L56.344,151.167L56.682,151.167L56.995,151.167L57.973,151.167L58.299,151.167L58.635,151.167L58.95,151.167L59.276,151.167L59.927,151.167L60.253,151.167L60.586,151.167L60.904,151.167L61.23,151.167L61.882,151.167L62.208,151.167L62.541,151.167L62.859,151.167L63.185,151.167L63.836,151.167L64.162,151.167L64.5,151.167L64.814,151.167L65.14,151.167L65.791,151.167L66.117,151.167L66.455,151.167L66.769,151.167L67.094,151.167L67.745,151.167L68.071,151.167L68.411,151.167L68.723,151.167L69.049,151.167L69.7,151.167L70.025,151.167L70.366,151.167L70.677,151.167L71.004,151.167L71.654,151.167L71.981,151.167L72.319,151.167L72.632,151.167L72.958,151.167L73.935,151.167L74.268,151.167L75.564,151.167L75.889,151.167L76.541,151.167L76.866,151.167L78.495,151.167L78.821,151.167L79.473,151.167L79.798,151.167L80.137,151.167L80.775,151.167L81.427,138.944L81.753,138.944L82.091,138.944L82.404,138.944L82.73,138.944L86.313,138.944L88.268,153.944L92.503,153.944L93.154,153.944L94.132,153.944L95.109,153.944L96.086,153.944L96.412,153.944L97.389,153.944L99.995,153.944L100.32,153.944L100.972,153.944L103.585,153.944L103.904,153.944L104.23,153.944L104.881,153.944L105.859,153.944L106.184,153.944L106.835,153.944L107.161,153.944L107.498,153.944L108.138,153.944L109.116,153.944L109.453,153.944L109.767,153.944L110.744,153.944L111.071,153.944L111.722,153.944L113.677,153.944L114.002,153.944L114.653,153.944L115.311,153.944L115.631,153.944L115.957,153.944L116.934,153.944L117.267,153.944L117.585,153.944L118.563,153.944L118.889,153.944L119.225,153.944L119.54,153.944L119.866,153.944L120.517,153.944L120.843,153.944L121.179,153.944L121.495,153.944L121.82,153.944L122.472,153.944L124.752,153.944L125.088,153.944L125.403,153.944L125.729,153.944L126.706,153.944L127.044,153.944L127.358,153.944L127.684,153.944L128.335,145.611L128.661,145.611L135.501,145.611L136.153,145.611L136.479,145.611L136.815,145.611L137.13,145.611L137.456,145.611L138.433,145.611L138.769,145.611L139.085,145.611L139.411,145.611L140.062,145.611L140.724,145.611L141.365,145.611L142.343,145.611L142.675,145.611L143.32,145.611L143.971,145.611L144.297,145.611L144.63,145.611L144.948,145.611L145.274,145.611L145.925,138.944L146.589,138.944L147.88,138.944L148.206,138.944L148.543,138.944L148.857,138.944L149.183,138.944L149.835,138.944L150.16,138.944L150.499,138.944L150.812,138.944L151.137,138.944L152.115,153.944L152.453,153.944L152.766,153.944L153.092,153.944L153.743,153.944L154.721,153.944L155.046,153.944L155.698,153.944L156.023,153.944L156.358,153.944L156.675,160.056L159.933,138.944L160.272,138.944L160.584,138.944L160.91,138.944L161.562,138.944L161.887,138.944L162.226,138.944L162.539,138.944L162.864,138.944L163.516,138.944L163.842,138.944L164.18,138.944L164.493,138.944L164.819,138.944L165.796,163.389L181.77,138.944L183.061,138.944L184.038,138.944L185.341,138.944L187.296,138.944L187.634,138.944L187.948,138.944L188.273,138.944L188.925,138.944L191.205,138.944L192.833,138.944L195.766,138.944L197.068,138.944L197.402,138.944L197.72,138.944L198.046,138.944L198.697,138.944L199.357,138.944" stroke="#bab0ac" stroke-width="2"/></g></g><path class="foreground" aria-hidden="true" d="" display="none"/></g><g transform="translate(0,0)"><path class="background" aria-hidden="true" d="M0,0h200v200h-200Z"/><g><g class="mark-line role-mark child_marks" role="graphics-object" aria-roledescription="line mark container"><path aria-label="Time: Sep 01, 2023; Price: 12995; item: KUURA_3L_PONCHO_UNISEX_-_Veste_imperméable_-_green" role="graphics-symbol" aria-roledescription="line mark" d="M4.55,55.611L5.202,55.611L5.527,55.611L5.859,55.611L9.437,55.611L9.774,55.611L10.088,55.611L10.413,55.611L11.067,11.167L11.393,11.167L11.728,11.167L12.043,11.167L12.368,11.167L13.02,11.167L13.345,11.167L13.683,11.167L13.997,11.167L14.323,11.167L14.975,11.167L15.3,11.167L15.636,11.167L15.952,11.167L16.277,11.167L17.134,11.167L17.254,11.167L17.59,11.167L17.905,11.167L18.232,11.167L18.882,11.167L19.209,11.167L19.541,11.167L19.86,11.167L20.186,11.167L20.838,11.167L21.163,11.167L21.495,11.167L21.814,11.167L22.14,11.167L22.792,11.167L23.118,11.167L23.456,11.167L23.769,11.167L24.747,11.167L25.072,11.167L25.409,11.167L25.724,11.167L26.05,11.167L33.222,22.278L33.542,22.278L33.867,22.278L34.519,22.278L34.845,22.278L35.177,22.278L35.496,22.278L35.822,22.278L36.474,22.278L36.799,22.278L37.137,22.278L38.753,22.278L39.091,22.278L39.405,22.278L39.731,22.278L40.382,22.278L40.709,22.278L66.769,22.278L67.094,22.278L67.745,22.278L68.071,22.278L68.411,22.278L68.723,22.278L69.049,22.278L69.7,22.278L70.025,22.278L70.366,22.278L70.677,22.278L71.004,22.278L71.654,22.278L71.981,22.278L72.319,22.278L72.632,22.278L72.958,22.278L73.609,22.278L73.935,22.278L74.268,22.278L74.586,22.278L74.913,22.278L104.881,22.278L105.207,22.278L105.544,22.278L105.859,22.278L106.184,22.278L106.835,22.278L107.161,22.278L107.498,22.278L107.813,22.278" stroke="#4c78a8" stroke-width="2"/></g></g><path class="foreground" aria-hidden="true" d="" display="none"/></g><g transform="translate(0,0)"><path class="background" aria-hidden="true" d="M0,0h200v200h-200Z"/><g><g class="mark-line role-mark child_marks" role="graphics-object" aria-roledescription="line mark container"><path aria-label="Time: Sep 14, 2023; Price: 6495; item: PARIS_ST._GERMAIN_CITY_MADE_PONCHO_-_Veste_de_survêtement_-_aura_white" role="graphics-symbol" aria-roledescription="line mark" d="M28.655,127.833L28.981,127.833L29.319,127.833L29.633,127.833L29.958,127.833L30.61,127.833L30.936,127.833L32.564,127.833L34.845,127.833L35.177,127.833L35.496,127.833L35.822,127.833L36.474,127.833L36.799,127.833L37.137,127.833L37.451,127.833L37.777,127.833L38.427,127.833L38.753,127.833L39.091,127.833L39.405,127.833L39.731,127.833L40.382,127.833L40.709,127.833L41.046,127.833L41.36,127.833L41.685,127.833L42.337,127.833L42.662,127.833L43.001,127.833L43.314,127.833L43.64,127.833L44.291,127.833L44.617,127.833L44.954,127.833L45.269,127.833L45.594,127.833L46.246,127.833L46.572,127.833L46.904,127.833L47.223,127.833L47.549,127.833L48.2,127.833L48.526,127.833L48.859,127.833L49.178,127.833L49.503,127.833L50.155,127.833L50.481,127.833L50.819,127.833L51.132,127.833L51.458,127.833L52.109,127.833L52.436,127.833L52.774,127.833" stroke="#b279a2" stroke-width="2"/></g></g><path class="foreground" aria-hidden="true" d="" display="none"/></g><g transform="translate(0,0)"><path class="background" aria-hidden="true" d="M0,0h200v200h-200Z"/><g><g class="mark-line role-mark child_marks" role="graphics-object" aria-roledescription="line mark container"><path aria-label="Time: Sep 18, 2023; Price: 8995; item: HIKING_BACKPACK_PONCHO_-_Veste_imperméable_-_indian_red" role="graphics-symbol" aria-roledescription="line mark" d="M36.474,100.056L36.799,100.056L37.137,100.056L37.451,100.056L37.777,100.056L38.427,100.056L38.753,100.056L51.132,100.056L51.458,100.056L52.109,100.056L52.436,100.056L52.774,100.056L53.086,100.056L53.412,100.056L54.064,111.167L54.389,111.167L54.727,111.167L55.041,111.167L86,111.167L86.313,111.167L86.639,111.167L87.291,111.167L87.617,111.167L87.949,111.167L88.268,111.167L88.593,111.167L89.245,111.167" stroke="#eeca3b" stroke-width="2"/></g></g><path class="foreground" aria-hidden="true" d="" display="none"/></g><g transform="translate(0,0)"><path class="background" aria-hidden="true" d="M0,0h200v200h-200Z"/><g><g class="mark-line role-mark child_marks" role="graphics-object" aria-roledescription="line mark container"><path aria-label="Time: Sep 26, 2023; Price: 6495; item: PSG_M_NSW_CITY_MADE_PONCHO_-_Veste_de_survêtement_-_aura_white" role="graphics-symbol" aria-roledescription="line mark" d="M53.086,127.833L53.412,127.833L54.064,91.167L54.389,91.167L54.727,91.167L55.041,91.167L55.367,91.167L56.018,91.167L56.344,91.167L56.682,91.167L56.995,91.167L57.973,91.167L58.299,91.167L58.635,91.167L58.95,91.167L59.276,91.167L59.927,91.167L60.253,91.167L60.586,91.167L60.904,91.167L61.23,91.167L61.882,91.167L62.208,91.167L62.541,91.167L62.859,91.167L63.185,91.167L63.836,127.833L64.162,127.833L64.5,127.833L64.814,127.833L65.14,127.833L65.791,127.833L66.117,127.833L66.455,127.833L66.769,127.833L67.094,127.833L67.745,127.833L68.071,127.833L68.411,127.833L68.723,127.833L69.049,127.833L69.7,127.833L70.025,127.833L70.366,127.833L70.677,127.833L71.004,127.833L71.654,127.833L71.981,127.833L72.319,127.833L72.632,127.833L72.958,127.833L73.609,127.833L73.935,127.833L74.268,127.833L74.586,127.833L74.913,127.833L75.564,127.833L75.889,127.833L76.541,127.833L76.866,127.833L77.518,127.833L77.844,127.833L78.184,127.833L78.495,127.833L78.821,127.833L79.473,84.5L79.798,84.5L80.137,84.5L80.775,84.5L81.427,84.5L81.753,84.5L82.091,84.5L82.404,84.5L82.73,84.5L83.381,84.5L83.707,84.5L85.336,84.5L86.313,84.5L88.268,127.833L89.245,127.833L91.526,127.833L91.864,127.833L104.23,127.833L104.881,127.833L105.207,127.833L105.544,127.833L107.161,127.833L107.498,127.833L109.767,127.833L110.093,127.833L111.406,127.833L112.047,127.833L112.699,127.833L113.36,127.833L114.979,127.833L115.957,127.833L116.608,127.833L116.934,127.833L117.267,127.833L117.911,127.833L118.889,127.833L119.866,127.833L120.517,127.833L120.843,127.833L121.179,127.833L121.495,127.833L121.82,127.833L122.472,127.833L122.797,127.833L123.133,127.833L123.449,127.833L123.775,127.833L124.426,127.833L124.752,127.833L125.088,127.833L125.403,127.833L125.729,127.833L126.38,127.833L126.706,127.833L127.044,127.833L127.358,127.833L127.684,127.833L128.335,127.833L128.661,127.833L128.994,127.833L129.312,127.833L129.638,127.833L130.29,127.833L130.615,127.833L130.948,127.833L131.267,127.833L131.593,127.833L132.244,127.833L132.57,127.833L132.909,127.833L133.222,127.833L133.547,127.833L134.199,127.833L134.525,127.833L134.861,127.833L135.176,127.833L135.502,127.833L136.153,127.833L136.815,127.833L137.13,127.833L137.456,127.833L138.769,127.833L139.085,127.833L140.062,84.5L140.724,84.5L141.365,84.5L143.32,84.5L145.274,84.5L146.589,127.833L147.88,127.833L148.206,127.833L148.543,127.833L149.183,127.833L149.835,127.833L150.16,127.833L150.499,127.833L150.812,127.833L152.115,156.722L156.023,127.833L156.358,127.833L157.653,127.833L160.91,105.611L161.562,105.611L164.18,105.611L164.493,105.611L165.796,148.944L170.682,148.944L171.334,148.944L174.592,120.056L175.243,127.833L176.546,127.833L177.861,127.833L179.815,127.833L180.455,127.833L181.77,91.167L183.061,91.167L184.038,91.167L185.341,127.833L187.634,91.167L191.205,127.833L195.766,127.833L197.402,127.833L198.046,127.833L199.357,127.833" stroke="#ff9da6" stroke-width="2"/></g></g><path class="foreground" aria-hidden="true" d="" display="none"/></g><g transform="translate(0,0)"><path class="background" aria-hidden="true" d="M0,0h200v200h-200Z"/><g><g class="mark-line role-mark child_marks" role="graphics-object" aria-roledescription="line mark container"><path aria-label="Time: Oct 12, 2023; Price: 4995; item: SHOWERPROOF_PONCHO_UNISEX_-_Cape_-_classic_tartan" role="graphics-symbol" aria-roledescription="line mark" d="M83.381,144.5L83.707,144.5L84.046,144.5L84.359,144.5L84.685,144.5L85.336,144.5L85.662,144.5L86,144.5L86.313,144.5L86.639,144.5L87.291,144.5L87.617,144.5L87.949,144.5L88.268,144.5L88.593,144.5L89.245,144.5L89.571,144.5L89.904,144.5L90.222,144.5L90.548,144.5L91.2,152.611L91.526,152.611L91.864,152.611L92.177,152.611L92.503,152.611L93.154,152.611L93.48,152.611L93.818,152.611L94.132,152.611L94.457,152.611L95.109,152.611L95.434,152.611L95.772,152.611L96.086,152.611L96.411,152.611L97.063,152.611L97.389,152.611L97.727,152.611L98.04,152.611L98.366,152.611L99.018,152.611L99.344,152.611L99.681,152.611L99.995,152.611L100.32,152.611L100.972,152.611L101.298,152.611L101.631,152.611L101.949,152.611L102.275,152.611L102.927,144.5L103.252,144.5L103.585,144.5L103.904,144.5L104.23,144.5L104.881,144.5L105.207,144.5L105.544,144.5L105.859,144.5L106.184,144.5L106.835,152.611L107.161,152.611L107.498,152.611L107.813,152.611L108.138,152.611L108.79,152.611L109.116,152.611L109.453,152.611L109.767,152.611L110.093,152.611L110.744,152.611L111.071,152.611L111.406,152.611L111.722,152.611L112.047,152.611L112.699,152.611L113.026,152.611L113.36,152.611L113.677,152.611L114.002,152.611L114.653,152.611L114.979,152.611L115.311,152.611L115.631,152.611L115.957,152.611L116.608,152.611L116.934,152.611L117.267,152.611L117.585,152.611L117.911,152.611L118.563,144.5L118.889,144.5L119.225,144.5L119.54,144.5L119.866,144.5L120.517,144.5L120.843,144.5L121.179,144.5L121.495,144.5L121.82,144.5L122.472,152.611L122.797,152.611L123.133,152.611L123.449,152.611L123.775,152.611L124.426,152.611L124.752,152.611L125.088,152.611L125.403,152.611L125.729,152.611L126.38,152.611L126.706,152.611L127.044,152.611L127.358,152.611L127.684,152.611L128.335,152.611L128.661,152.611L128.994,152.611L129.312,152.611L129.638,152.611L130.29,152.611L130.615,152.611L130.948,152.611L131.267,152.611L131.593,152.611L132.244,152.611L132.57,152.611L132.909,152.611L133.222,152.611L133.547,152.611L134.199,150.056L134.525,144.5L134.861,144.5L135.176,144.5L135.501,144.5L136.153,144.5L136.479,144.5L136.815,144.5L137.13,144.5L137.456,144.5L138.107,144.5L138.433,144.5L138.769,144.5L139.085,144.5L139.411,144.5L140.062,144.5L140.388,144.5L140.724,144.5L141.04,144.5L141.365,144.5L142.017,144.5L142.343,144.5L142.675,144.5L143.32,144.5L143.971,144.5L144.297,144.5L144.63,144.5L144.948,144.5L145.274,144.5L145.925,144.5L146.251,144.5L146.589,144.5L146.903,144.5L147.88,144.5L148.206,144.5L148.543,144.5L148.857,144.5L149.183,144.5L149.835,144.5L150.16,144.5L150.499,144.5L150.812,144.5L151.137,144.5L151.789,144.5L152.115,144.5L152.453,144.5L152.766,144.5L153.092,144.5L153.743,144.5L154.069,144.5L154.407,144.5L154.721,144.5L155.046,144.5L155.698,144.5L156.023,144.5L156.358,144.5L156.675,144.5L157.001,144.5L157.653,144.5L157.978,144.5L158.313,144.5L158.63,144.5L158.956,144.5L159.607,144.5L159.933,144.5L160.272,144.5L160.584,144.5L160.91,144.5L161.562,144.5L161.887,144.5L162.226,144.5L162.539,144.5L162.864,144.5L163.516,144.5L163.842,144.5L164.18,144.5L164.493,144.5L164.819,144.5L187.948,144.5L188.273,144.5L188.925,144.5L189.25,144.5L189.589,144.5L189.902,144.5L190.228,144.5L190.879,144.5L191.205,144.5L191.543,144.5L191.856,144.5L192.182,144.5L192.833,144.5L193.159,144.5L193.498,144.5L193.811,144.5L194.137,144.5L194.788,144.5L195.114,144.5L195.45,144.5L195.766,144.5L196.091,144.5L196.743,144.5L197.068,144.5L197.402,144.5L197.72,144.5L198.046,144.5L198.697,144.5L199.023,144.5L199.357,144.5L199.674,144.5L200,144.5" stroke="#9d755d" stroke-width="2"/></g></g><path class="foreground" aria-hidden="true" d="" display="none"/></g><g transform="translate(0,0)"><path class="background" aria-hidden="true" d="M0,0h200v200h-200Z"/><g><g class="mark-line role-mark child_marks" role="graphics-object" aria-roledescription="line mark container"><path aria-label="Time: Oct 12, 2023; Price: 13995; item: PONCHO_-_Cape_-_lucid_blue" role="graphics-symbol" aria-roledescription="line mark" d="M83.381,44.5L85.662,44.5L86.313,44.5L87.291,91.167L88.268,91.167L89.571,91.167L89.904,91.167L90.222,91.167L90.548,91.167L91.2,91.167L91.526,91.167L91.864,91.167L92.177,91.167L92.503,91.167L93.154,91.167L93.48,91.167L93.818,91.167L94.132,91.167L94.457,91.167L95.109,91.167L95.434,91.167L95.772,91.167L96.086,91.167L96.412,91.167L97.063,91.167L97.389,91.167L97.727,91.167L98.366,91.167L99.995,91.167L100.32,91.167L100.972,91.167L101.949,91.167L102.927,91.167L103.252,91.167L103.585,91.167L103.904,91.167L104.23,91.167L105.859,91.167L106.835,114.5L107.161,114.5L108.138,114.5L109.116,114.5L109.453,114.5L109.767,114.5L110.744,114.5L112.699,114.5L113.026,114.5L113.36,114.5L113.677,114.5L114.002,114.5L114.653,114.5L114.979,114.5L115.311,114.5L115.631,114.5L115.957,114.5L116.608,114.5L116.934,114.5L117.267,114.5L117.585,114.5L117.911,114.5L118.563,114.5L118.889,114.5L119.225,114.5L119.54,114.5L119.866,114.5L120.517,114.5L120.843,114.5L121.179,114.5L121.495,114.5L121.82,114.5L122.472,114.5L122.797,114.5L123.133,114.5L123.449,114.5L123.775,114.5L124.426,83.389L124.752,83.389L125.729,83.389L126.38,83.389L128.335,83.389L128.661,83.389L129.312,83.389L129.638,83.389L130.29,83.389L130.615,83.389L130.948,83.389L131.267,83.389L131.593,83.389L132.244,83.389L132.57,83.389L133.547,83.389L134.199,44.5L134.525,44.5L134.861,44.5L135.176,44.5L135.501,44.5L136.153,44.5L136.479,44.5L136.815,44.5L137.13,44.5L137.456,44.5L138.107,44.5L138.433,44.5L138.769,44.5L139.085,44.5L139.411,44.5L140.062,122.278L140.724,122.278L141.365,122.278L142.343,122.278L142.675,122.278L143.32,122.278L143.971,122.278L144.297,122.278L144.63,122.278L144.948,122.278L145.274,122.278L145.925,44.5L146.251,44.5L146.589,44.5L146.903,44.5L147.88,44.5L148.206,44.5L148.543,44.5L148.857,44.5L149.183,44.5L149.835,44.5L150.16,44.5L150.499,44.5L150.812,44.5L151.137,44.5L152.115,130.056L152.453,130.056L152.766,130.056L153.092,130.056L153.743,130.056L155.046,130.056L155.698,44.5L156.023,44.5L156.358,44.5L157.653,44.5L157.978,44.5L158.313,44.5L158.63,44.5L158.956,44.5L159.607,60.056L159.933,60.056L160.272,106.722L160.584,106.722L160.91,122.278L161.562,122.278L161.887,122.278L162.226,122.278L162.539,122.278L162.864,122.278L163.516,122.278L163.842,122.278L164.18,122.278L164.493,122.278L164.819,122.278L165.47,122.278L165.796,122.278L166.134,122.278L166.448,122.278L166.774,122.278L167.425,122.278L169.706,130.056L170.039,122.278L170.357,122.278L170.682,122.278L171.334,122.278L171.66,122.278L171.994,122.278L172.311,122.278L172.637,122.278L173.289,122.278L174.592,75.611L175.243,44.5L175.569,44.5L175.905,44.5L176.22,44.5L176.546,44.5L177.198,44.5L177.523,44.5L177.861,44.5L178.175,44.5L178.501,44.5L179.152,44.5L179.478,44.5L179.815,44.5L180.129,44.5L180.455,44.5L181.106,44.5L181.433,44.5L181.77,44.5L182.41,44.5L183.061,44.5L183.387,44.5L183.72,44.5L184.038,44.5L184.364,44.5L185.015,44.5L185.341,44.5L185.676,44.5L185.993,44.5L186.319,44.5L186.97,44.5L187.634,44.5L191.205,91.167L191.543,91.167L191.856,91.167L192.182,91.167L192.833,91.167L195.45,91.167L195.766,91.167L197.402,91.167L198.046,91.167L199.357,122.278L199.674,122.278L200,122.278" stroke="#72b7b2" stroke-width="2"/></g></g><path class="foreground" aria-hidden="true" d="" display="none"/></g></g><g class="mark-group role-legend" role="graphics-symbol" aria-roledescription="legend" aria-label="Symbol legend titled 'item' for stroke color with 10 values: KUURA_3L_PONCHO_UNISEX_-_Veste_imperméable_-_green, DESCHUTES_VALLEY™_RAIN_PONCHO_-_Parka_-_vista_blue, DESCHUTES_VALLEY™_RAIN_PONCHO_-_Parka_-_black, PONCHO_-_Cape_-_lucid_blue, HIKING_BACKPACK_PONCHO_-_Veste_imperméable_-_blue, ending with COVERO_PONCHO_II_-_Cape_-_lightgrey"><g transform="translate(220,0)"><path class="background" aria-hidden="true" d="M0,0h328v144h-328Z" pointer-events="none"/><g><g class="mark-group role-legend-entry"><g transform="translate(0,16)"><path class="background" aria-hidden="true" d="M0,0h0v0h0Z" pointer-events="none"/><g><g class="mark-group role-scope" role="graphics-object" aria-roledescription="group mark container"><g transform="translate(0,0)"><path class="background" aria-hidden="true" d="M0,0h328v11h-328Z" pointer-events="none" opacity="1"/><g><g class="mark-symbol role-legend-symbol" pointer-events="none"><path transform="translate(6,6)" d="M-5,0L5,0" stroke="#4c78a8" stroke-width="1.5" opacity="1"/></g><g class="mark-text role-legend-label" pointer-events="none"><text text-anchor="start" transform="translate(16,9)" font-family="Liberation Mono" font-size="10px" fill="#000" opacity="1">KUURA_3L_PONCHO_UNISEX_-_Veste_impermé…</text></g></g><path class="foreground" aria-hidden="true" d="" pointer-events="none" display="none"/></g><g transform="translate(0,13)"><path class="background" aria-hidden="true" d="M0,0h328v11h-328Z" pointer-events="none" opacity="1"/><g><g class="mark-symbol role-legend-symbol" pointer-events="none"><path transform="translate(6,6)" d="M-5,0L5,0" stroke="#f58518" stroke-width="1.5" opacity="1"/></g><g class="mark-text role-legend-label" pointer-events="none"><text text-anchor="start" transform="translate(16,9)" font-family="Liberation Mono" font-size="10px" fill="#000" opacity="1">DESCHUTES_VALLEY™_RAIN_PONCHO_-_Parka_…</text></g></g><path class="foreground" aria-hidden="true" d="" pointer-events="none" display="none"/></g><g transform="translate(0,26)"><path class="background" aria-hidden="true" d="M0,0h328v11h-328Z" pointer-events="none" opacity="1"/><g><g class="mark-symbol role-legend-symbol" pointer-events="none"><path transform="translate(6,6)" d="M-5,0L5,0" stroke="#e45756" stroke-width="1.5" opacity="1"/></g><g class="mark-text role-legend-label" pointer-events="none"><text text-anchor="start" transform="translate(16,9)" font-family="Liberation Mono" font-size="10px" fill="#000" opacity="1">DESCHUTES_VALLEY™_RAIN_PONCHO_-_Parka_…</text></g></g><path class="foreground" aria-hidden="true" d="" pointer-events="none" display="none"/></g><g transform="translate(0,39)"><path class="background" aria-hidden="true" d="M0,0h328v11h-328Z" pointer-events="none" opacity="1"/><g><g class="mark-symbol role-legend-symbol" pointer-events="none"><path transform="translate(6,6)" d="M-5,0L5,0" stroke="#72b7b2" stroke-width="1.5" opacity="1"/></g><g class="mark-text role-legend-label" pointer-events="none"><text text-anchor="start" transform="translate(16,9)" font-family="Liberation Mono" font-size="10px" fill="#000" opacity="1">PONCHO_-_Cape_-_lucid_blue</text></g></g><path class="foreground" aria-hidden="true" d="" pointer-events="none" display="none"/></g><g transform="translate(0,52)"><path class="background" aria-hidden="true" d="M0,0h328v11h-328Z" pointer-events="none" opacity="1"/><g><g class="mark-symbol role-legend-symbol" pointer-events="none"><path transform="translate(6,6)" d="M-5,0L5,0" stroke="#54a24b" stroke-width="1.5" opacity="1"/></g><g class="mark-text role-legend-label" pointer-events="none"><text text-anchor="start" transform="translate(16,9)" font-family="Liberation Mono" font-size="10px" fill="#000" opacity="1">HIKING_BACKPACK_PONCHO_-_Veste_impermé…</text></g></g><path class="foreground" aria-hidden="true" d="" pointer-events="none" display="none"/></g><g transform="translate(0,65)"><path class="background" aria-hidden="true" d="M0,0h328v11h-328Z" pointer-events="none" opacity="1"/><g><g class="mark-symbol role-legend-symbol" pointer-events="none"><path transform="translate(6,6)" d="M-5,0L5,0" stroke="#eeca3b" stroke-width="1.5" opacity="1"/></g><g class="mark-text role-legend-label" pointer-events="none"><text text-anchor="start" transform="translate(16,9)" font-family="Liberation Mono" font-size="10px" fill="#000" opacity="1">HIKING_BACKPACK_PONCHO_-_Veste_impermé…</text></g></g><path class="foreground" aria-hidden="true" d="" pointer-events="none" display="none"/></g><g transform="translate(0,78)"><path class="background" aria-hidden="true" d="M0,0h328v11h-328Z" pointer-events="none" opacity="1"/><g><g class="mark-symbol role-legend-symbol" pointer-events="none"><path transform="translate(6,6)" d="M-5,0L5,0" stroke="#b279a2" stroke-width="1.5" opacity="1"/></g><g class="mark-text role-legend-label" pointer-events="none"><text text-anchor="start" transform="translate(16,9)" font-family="Liberation Mono" font-size="10px" fill="#000" opacity="1">PARIS_ST._GERMAIN_CITY_MADE_PONCHO_-_V…</text></g></g><path class="foreground" aria-hidden="true" d="" pointer-events="none" display="none"/></g><g transform="translate(0,91)"><path class="background" aria-hidden="true" d="M0,0h328v11h-328Z" pointer-events="none" opacity="1"/><g><g class="mark-symbol role-legend-symbol" pointer-events="none"><path transform="translate(6,6)" d="M-5,0L5,0" stroke="#ff9da6" stroke-width="1.5" opacity="1"/></g><g class="mark-text role-legend-label" pointer-events="none"><text text-anchor="start" transform="translate(16,9)" font-family="Liberation Mono" font-size="10px" fill="#000" opacity="1">PSG_M_NSW_CITY_MADE_PONCHO_-_Veste_de_…</text></g></g><path class="foreground" aria-hidden="true" d="" pointer-events="none" display="none"/></g><g transform="translate(0,104)"><path class="background" aria-hidden="true" d="M0,0h328v11h-328Z" pointer-events="none" opacity="1"/><g><g class="mark-symbol role-legend-symbol" pointer-events="none"><path transform="translate(6,6)" d="M-5,0L5,0" stroke="#9d755d" stroke-width="1.5" opacity="1"/></g><g class="mark-text role-legend-label" pointer-events="none"><text text-anchor="start" transform="translate(16,9)" font-family="Liberation Mono" font-size="10px" fill="#000" opacity="1">SHOWERPROOF_PONCHO_UNISEX_-_Cape_-_cla…</text></g></g><path class="foreground" aria-hidden="true" d="" pointer-events="none" display="none"/></g><g transform="translate(0,117)"><path class="background" aria-hidden="true" d="M0,0h328v11h-328Z" pointer-events="none" opacity="1"/><g><g class="mark-symbol role-legend-symbol" pointer-events="none"><path transform="translate(6,6)" d="M-5,0L5,0" stroke="#bab0ac" stroke-width="1.5" opacity="1"/></g><g class="mark-text role-legend-label" pointer-events="none"><text text-anchor="start" transform="translate(16,9)" font-family="Liberation Mono" font-size="10px" fill="#000" opacity="1">COVERO_PONCHO_II_-_Cape_-_lightgrey</text></g></g><path class="foreground" aria-hidden="true" d="" pointer-events="none" display="none"/></g></g></g><path class="foreground" aria-hidden="true" d="" pointer-events="none" display="none"/></g></g><g class="mark-text role-legend-title" pointer-events="none"><text text-anchor="start" transform="translate(0,9)" font-family="Liberation Mono" font-size="11px" font-weight="bold" fill="#000" opacity="1">item</text></g></g><path class="foreground" aria-hidden="true" d="" pointer-events="none" display="none"/></g></g></g><path class="foreground" aria-hidden="true" d="" display="none"/></g></g></g><path class="foreground" aria-hidden="true" d="" display="none"/></g></g></g></svg>