<svg xmlns="http://www.w3.org/2000/svg" xmlns:xlink="http://www.w3.org/1999/xlink" version="1.1" class="marks" width="658" height="244" viewBox="0 0 658 244"><rect width="658" height="244" fill="white"/><g fill="none" stroke-miterlimit="10" transform="translate(104,6)"><g class="mark-group role-frame root" role="graphics-object" aria-roledescription="group mark container"><g transform="translate(0,0)"><path class="background" aria-hidden="true" d="M0,0h0v0h0Z"/><g><g class="mark-group role-row-title row-title" role="graphics-object" aria-roledescription="group mark container"><g transform="translate(-78,116)"><path class="background" aria-hidden="true" d="M0,0h0v0h0Z"/><g><g class="mark-group role-title"><g transform="translate(-21.000000000000004,0)"><path class="background" aria-hidden="true" d="M0,0h0v0h0Z" pointer-events="none"/><g><g class="mark-text role-title-text" role="graphics-symbol" aria-roledescription="title" aria-label="Title text 'group'" pointer-events="none"><text text-anchor="middle" transform="translate(0,0) rotate(-90) translate(0,9)" font-family="Liberation Mono" font-size="11px" font-weight="bold" fill="#000" opacity="1">group</text></g></g><path class="foreground" aria-hidden="true" d="" pointer-events="none" display="none"/></g></g></g><path class="foreground" aria-hidden="true" d="" display="none"/></g></g><g class="mark-group role-row-header row_header" role="graphics-object" aria-roledescription="group mark container"><g transform="translate(-47,0)"><path class="background" aria-hidden="true" d="M0,0h0v200h0Z"/><g><g class="mark-group role-title"><g transform="translate(-20.000000000000007,100)"><path class="background" aria-hidden="true" d="M0,0h0v0h0Z" pointer-events="none"/><g><g class="mark-text role-title-text" role="graphics-symbol" aria-roledescription="title" aria-label="Title text 'zalando-poncho'" pointer-events="none"><text text-anchor="middle" transform="translate(0,0) rotate(-90) translate(0,8)" font-family="Liberation Mono" font-size="10px" fill="#000" opacity="1">zalando-poncho</text></g></g><path class="foreground" aria-hidden="true" d="" pointer-events="none" display="none"/></g></g></g><path class="foreground" aria-hidden="true" d="" display="none"/></g></g><g class="mark-group role-scope cell" role="graphics-object" aria-roledescription="group mark container"><g transform="translate(0,0)"><path class="background" aria-hidden="true" d="M0.5,0.5h200v200h-200Z" stroke="#ddd"/><g><g class="mark-group role-axis" aria-hidden="true"><g transform="translate(0.5,200.5)"><path class="background" aria-hidden="true" d="M0,0h0v0h0Z" pointer-events="none"/><g><g class="mark-rule role-axis-grid" pointer-events="none"><line transform="translate(2,-200)" x2="0" y2="200" stroke="#ddd" stroke-width="1" opacity="1"/><line transform="translate(38,-200)" x2="0" y2="200" stroke="#ddd" stroke-width="1" opacity="1"/><line transform="translate(75,-200)" x2="0" y2="200" stroke="#ddd" stroke-width="1" opacity="1"/><line transform="translate(111,-200)" x2="0" y2="200" stroke="#ddd" stroke-width="1" opacity="1"/><line transform="translate(148,-200)" x2="0" y2="200" stroke="#ddd" stroke-width="1" opacity="1"/><line transform="translate(185,-200)" x2="0" y2="200" stroke="#ddd" stroke-width="1" opacity="1"/></g></g><path class="foreground" aria-hidden="true" d="" pointer-events="none" display="none"/></g></g><g class="mark-group role-axis" aria-hidden="true"><g transform="translate(0.5,0.5)"><path class="background" aria-hidden="true" d="M0,0h0v0h0Z" pointer-events="none"/><g><g class="mark-rule role-axis-grid" pointer-events="none"><line transform="translate(0,200)" x2="200" y2="0" stroke="#ddd" stroke-width="1" opacity="1"/><line transform="translate(0,144)" x2="200" y2="0" stroke="#ddd" stroke-width="1" opacity="1"/><line transform="translate(0,89)" x2="200" y2="0" stroke="#ddd" stroke-width="1" opacity="1"/><line transform="translate(0,33)" x2="200" y2="0" stroke="#ddd" stroke-width="1" opacity="1"/></g></g><path class="foreground" aria-hidden="true" d="" pointer-events="none" display="none"/></g></g><g class="mark-group role-axis" role="graphics-symbol" aria-roledescription="axis" aria-label="X-axis titled 'Time' for a time scale with values from Wednesday, 30 August 2023, 12:58:24 PM to Tuesday, 13 February 2024, 8:50:09 PM"><g transform="translate(0.5,200.5)"><path class="background" aria-hidden="true" d="M0,0h0v0h0Z" pointer-events="none"/><g><g class="mark-rule role-axis-tick" pointer-events="none"><line transform="translate(2,0)" x2="0" y2="5" stroke="#888" stroke-width="1" opacity="1"/><line transform="translate(38,0)" x2="0" y2="5" stroke="#888" stroke-width="1" opacity="1"/><line transform="translate(75,0)" x2="0" y2="5" stroke="#888" stroke-width="1" opacity="1"/><line transform="translate(111,0)" x2="0" y2="5" stroke="#888" stroke-width="1" opacity="1"/><line transform="translate(148,0)" x2="0" y2="5" stroke="#888" stroke-width="1" opacity="1"/><line transform="translate(185,0)" x2="0" y2="5" stroke="#888" stroke-width="1" opacity="1"/></g><g class="mark-text role-axis-label" pointer-events="none"><text text-anchor="middle" transform="translate(1.7444151474214291,15)" font-family="Liberation Mono" font-size="10px" fill="#000" opacity="1">September</text><text text-anchor="middle" transform="translate(37.60221506058554,15)" font-family="Liberation Mono" font-size="10px" fill="#000" opacity="0">October</text><text text-anchor="middle" transform="translate(74.65527497085512,15)" font-family="Liberation Mono" font-size="10px" fill="#000" opacity="1">November</text><text text-anchor="middle" transform="translate(110.51307488401925,15)" font-family="Liberation Mono" font-size="10px" fill="#000" opacity="0">December</text><text text-anchor="middle" transform="translate(147.5661347942888,15)" font-family="Liberation Mono" font-size="10px" fill="#000" opacity="1">2024</text><text text-anchor="middle" transform="translate(184.6191947045584,15)" font-family="Liberation Mono" font-size="10px" fill="#000" opacity="0">February</text></g><g class="mark-rule role-axis-domain" pointer-events="none"><line transform="translate(0,0)" x2="200" y2="0" stroke="#888" stroke-width="1" opacity="1"/></g><g class="mark-text role-axis-title" pointer-events="none"><text text-anchor="middle" transform="translate(100,30)" font-family="Liberation Mono" font-size="11px" font-weight="bold" fill="#000" opacity="1">Time</text></g></g><path class="foreground" aria-hidden="true" d="" pointer-events="none" display="none"/></g></g><g class="mark-group role-axis" role="graphics-symbol" aria-roledescription="axis" aria-label="Y-axis titled 'Price' for a linear scale with values from 0 to 18,000"><g transform="translate(0.5,0.5)"><path class="background" aria-hidden="true" d="M0,0h0v0h0Z" pointer-events="none"/><g><g class="mark-rule role-axis-tick" pointer-events="none"><line transform="translate(0,200)" x2="-5" y2="0" stroke="#888" stroke-width="1" opacity="1"/><line transform="translate(0,144)" x2="-5" y2="0" stroke="#888" stroke-width="1" opacity="1"/><line transform="translate(0,89)" x2="-5" y2="0" stroke="#888" stroke-width="1" opacity="1"/><line transform="translate(0,33)" x2="-5" y2="0" stroke="#888" stroke-width="1" opacity="1"/></g><g class="mark-text role-axis-label" pointer-events="none"><text text-anchor="end" transform="translate(-7,203)" font-family="Liberation Mono" font-size="10px" fill="#000" opacity="1">0</text><text text-anchor="end" transform="translate(-7,147.44444444444443)" font-family="Liberation Mono" font-size="10px" fill="#000" opacity="1">50</text><text text-anchor="end" transform="translate(-7,91.88888888888889)" font-family="Liberation Mono" font-size="10px" fill="#000" opacity="1">100</text><text text-anchor="end" transform="translate(-7,36.33333333333333)" font-family="Liberation Mono" font-size="10px" fill="#000" opacity="1">150</text></g><g class="mark-rule role-axis-domain" pointer-events="none"><line transform="translate(0,200)" x2="0" y2="-200" stroke="#888" stroke-width="1" opacity="1"/></g><g class="mark-text role-axis-title" pointer-events="none"><text text-anchor="middle" transform="translate(-35,100) rotate(-90) translate(0,-2)" font-family="Liberation Mono" font-size="11px" font-weight="bold" fill="#000" opacity="1">Price</text></g></g><path class="foreground" aria-hidden="true" d="" pointer-events="none" display="none"/></g></g><g class="mark-group role-scope child_pathgroup" role="graphics-object" aria-roledescription="group mark container"><g transform="translate(0,0)"><path class="background" aria-hidden="true" d="M0,0h200v200h-200Z"/><g><g class="mark-line role-mark child_marks" role="graphics-object" aria-roledescription="line mark container"><path aria-label="Time: Aug 30, 2023; Price: 10795; item: DESCHUTES_VALLEY™_RAIN_PONCHO_-_Parka_-_black" role="graphics-symbol" aria-roledescription="line mark" d="M0,80.056L0.194,80.056L0.392,80.056L0.791,80.056L0.99,80.056L1.196,80.056L1.388,80.056L1.587,80.056L1.986,80.056L2.185,80.056L2.39,80.056L2.583,80.056L2.783,80.056L3.181,80.056L3.38,80.056L3.583,80.056L3.778,80.056L3.978,80.056L4.376,80.056L4.719,80.056L4.779,80.056L4.974,80.056L5.173,80.056L5.572,80.056L5.771,80.056L5.977,80.056L6.169,80.056L6.368,80.056L6.768,50.056L6.967,50.056L7.172,50.056L7.365,50.056L7.563,50.056L7.962,50.056L8.161,50.056L8.368,50.056L8.56,50.056L8.759,50.056L9.158,50.056L9.357,50.056L9.562,50.056L9.755,50.056L9.954,50.056L10.478,50.056L10.552,50.056L10.757,50.056L10.95,50.056L11.149,50.056L11.547,50.056L11.747,50.056L11.95,50.056L12.145,50.056L12.345,50.056L12.743,50.056L12.942,50.056L13.145,50.056L13.34,50.056L13.54,50.056L13.938,50.056L14.137,50.056L14.344,50.056L14.536,50.056L14.735,50.056L15.134,50.056L15.332,50.056L15.539,50.056L15.731,50.056L15.93,50.056L16.329,20.056L16.528,20.056L16.734,20.056L16.84,20.056L16.926,20.056L17.126,20.056L17.524,20.056L17.723,20.056L17.93,20.056L18.122,20.056L18.321,20.056L18.719,20.056L18.918,20.056L19.124,20.056L19.317,20.056L19.516,20.056L19.914,20.056L20.114,20.056L20.316,20.056L20.512,20.056L20.711,20.056L21.11,20.056L21.309,20.056L21.512,20.056L21.707,20.056L21.907,20.056L22.305,20.056L22.504,20.056L22.711,20.056L22.903,20.056L23.102,20.056L23.5,20.056L23.699,20.056L23.906,20.056L24.098,20.056L24.297,20.056L24.695,20.056L24.895,20.056L25.101,20.056L25.293,20.056L25.492,20.056L25.891,20.056L26.09,20.056L26.297,20.056L26.488,20.056L26.688,20.056L27.086,20.056L27.285,20.056L27.491,20.056L27.684,20.056L27.883,20.056L28.281,20.056L28.48,20.056L28.683,20.056L28.879,20.056L29.078,20.056L29.476,20.056L29.676,20.056L29.879,20.056L30.074,20.056L30.273,20.056L30.672,20.056L30.871,20.056L31.078,20.056L31.269,20.056L31.468,20.056L31.867,20.056L32.066,20.056L32.273,20.056L32.464,20.056L32.664,20.056L33.062,40.056L33.261,40.056L33.468,40.056L33.66,40.056L33.859,40.056L34.258,40.056L34.457,40.056L34.663,40.056L34.855,40.056L35.453,40.056L35.652,40.056L35.858,40.056L36.051,40.056L36.25,40.056L36.648,40.056L36.847,40.056L37.051,40.056L37.246,40.056L37.445,40.056L37.843,40.056L38.043,40.056L38.246,40.056L38.441,40.056L38.64,40.056L39.039,100.056L39.238,100.056L39.444,100.056L39.636,100.056L39.835,100.056L40.234,90.056L40.433,90.056L40.64,90.056L40.832,90.056L41.031,90.056L41.429,90.056L41.628,90.056L41.836,90.056L42.027,90.056L42.226,90.056L42.624,90.056L42.823,90.056L43.032,90.056L43.222,90.056L43.422,90.056L43.82,90.056L44.019,90.056L44.226,90.056L44.417,90.056L44.617,90.056L45.015,90.056L45.214,90.056L45.418,90.056L45.612,90.056L45.812,90.056L46.21,90.056L46.409,90.056L46.808,90.056L47.007,90.056L47.405,90.056L47.605,90.056L47.813,90.056L48.003,90.056L48.202,90.056L48.601,100.056L48.8,100.056L49.007,100.056L49.198,100.056L49.397,100.056L49.796,100.056L49.996,100.056L50.202,100.056L50.394,100.056L50.593,100.056L50.991,100.056L51.19,100.056L51.397,100.056L51.589,100.056L51.788,100.056L52.187,100.056L52.386,100.056L52.593,100.056L52.784,100.056L52.983,100.056L53.382,100.056L53.581,100.056L53.784,100.056L53.979,100.056L54.178,100.056L54.577,100.056L54.776,100.056L54.98,100.056L55.174,100.056L55.374,100.056L55.772,90.056L55.972,90.056L56.179,90.056L56.37,90.056L56.569,90.056L56.968,90.056L57.167,90.056L57.374,90.056L57.565,90.056L57.764,90.056L58.163,90.056L58.362,90.056L58.569,90.056L58.76,90.056L58.96,90.056L59.358,90.056L59.557,90.056L59.764,90.056L59.956,90.056L60.155,90.056L60.554,90.056L60.753,90.056L60.959,90.056L61.151,90.056L61.35,90.056L61.748,90.056L61.948,90.056L62.151,90.056L62.346,90.056L62.545,90.056L62.944,90.056L63.143,90.056L63.346,90.056L63.541,90.056L63.741,90.056L64.139,90.056L64.338,90.056L64.545,90.056L64.737,90.056L64.936,90.056L65.334,50.056L65.534,50.056L65.739,50.056L65.932,50.056L66.131,50.056L66.53,50.056L66.729,50.056L66.935,50.056L67.127,50.056L67.327,50.056L67.725,50.056L67.924,50.056L68.13,50.056L68.322,50.056L68.521,50.056L68.92,50.056L69.12,50.056L69.324,50.056L69.518,50.056L69.717,50.056L70.115,50.056L70.315,50.056L70.517,50.056L70.713,50.056L70.912,50.056L71.311,50.056L71.51,50.056L71.714,50.056L71.908,50.056L72.107,50.056L72.506,50.056L72.705,50.056L72.911,50.056L73.104,50.056L73.303,50.056L73.701,50.056L73.9,50.056L74.106,50.056L74.299,50.056L74.498,50.056L74.896,50.056L75.096,50.056L75.301,50.056L75.494,50.056L75.693,50.056L76.092,40.056L76.291,40.056L76.496,40.056L76.689,40.056L77.885,40.056L78.084,40.056L78.482,40.056L78.885,40.056L79.08,40.056L83.861,40.056L84.06,40.056L84.458,40.056L84.657,40.056L84.863,40.056L85.056,40.056L85.255,40.056L85.654,70.056L85.853,70.056L86.059,70.056L86.251,70.056L86.45,70.056L86.849,70.056L87.048,70.056L87.252,70.056L87.646,70.056L88.044,70.056L88.243,70.056L88.447,70.056L88.642,70.056L88.841,70.056L89.239,40.056L89.439,40.056L89.645,40.056L89.837,40.056L90.434,40.056L90.634,40.056L90.84,40.056L91.032,40.056L91.231,40.056L91.63,40.056L91.829,40.056L92.036,40.056L92.228,40.056L92.427,40.056L92.825,50.056L93.024,50.056L93.231,50.056L93.423,50.056L93.622,50.056L94.02,50.056L94.22,50.056L94.426,50.056L94.618,50.056L94.817,50.056L95.216,40.056L95.415,40.056L95.619,40.056L95.813,40.056L96.013,40.056L96.411,40.056L96.61,40.056L96.815,40.056L97.009,40.056L97.208,40.056L97.606,40.056L97.805,40.056L98.013,40.056L98.204,40.056L98.403,40.056L98.801,40.056L99.001,40.056L99.208,60.056L99.399,60.056L99.598,60.056L99.997,60.056L100.196,60.056L100.403,60.056L100.594,60.056L100.793,60.056L101.192,60.056L101.391,60.056L101.598,80.056L101.79,80.056L101.989,80.056L102.387,80.056L102.586,80.056L102.792,80.056L102.985,80.056L103.184,80.056L103.582,70.056L103.782,70.056L103.986,70.056L104.18,70.056L104.379,70.056L104.778,70.056L104.977,70.056L105.181,70.056L105.375,70.056L105.575,70.056L105.973,40.056L106.172,40.056L106.38,40.056L106.571,40.056L106.77,40.056L107.168,40.056L107.368,40.056L107.573,40.056L107.766,40.056L107.965,40.056L108.364,40.056L108.563,40.056L108.77,40.056L108.961,40.056L109.16,40.056L109.559,40.056L109.758,40.056L109.964,40.056L110.156,40.056L110.356,40.056L110.754,40.056L110.953,40.056L111.16,40.056L111.352,40.056L111.551,40.056L111.95,40.056L112.149,40.056L112.352,40.056L112.547,40.056L112.746,40.056L113.144,40.056L113.344,40.056L113.548,40.056L113.743,40.056L113.941,40.056L114.34,40.056L114.539,40.056L114.746,40.056L114.938,40.056L115.136,40.056L115.535,50.056L115.734,50.056L115.941,50.056L116.133,50.056L116.332,50.056L116.73,50.056L116.93,50.056L117.136,50.056L117.328,50.056L117.527,50.056L117.925,50.056L118.125,50.056L118.332,50.056L118.523,50.056L118.723,50.056L119.121,50.056L119.32,50.056L119.526,50.056L119.719,50.056L119.918,50.056L120.316,50.056L120.515,50.056L120.719,50.056L120.914,50.056L121.113,50.056L121.511,50.056L121.71,50.056L121.915,50.056L122.109,50.056L122.308,50.056L122.707,50.056L122.906,50.056L123.113,50.056L123.902,50.056L124.101,50.056L124.308,50.056L124.5,50.056L124.699,50.056L125.097,50.056L125.296,50.056L125.503,50.056L125.695,50.056L125.894,50.056L126.292,50.056L126.492,50.056L126.698,50.056L126.89,50.056L127.089,50.056L127.488,50.056L127.687,50.056L127.893,50.056L128.085,50.056L128.284,50.056L128.683,50.056L128.882,50.056L129.086,50.056L129.281,50.056L129.48,50.056L129.878,50.056L130.077,50.056L130.281,50.056L130.476,50.056L130.675,50.056L131.073,50.056L131.273,50.056L131.479,50.056L131.671,50.056L131.87,50.056L132.269,50.056L132.468,50.056L132.674,50.056L132.866,50.056L133.066,50.056L133.464,50.056L133.663,50.056L133.864,50.056L134.062,50.056L134.261,50.056L134.659,50.056L134.858,50.056L135.257,50.056L135.456,50.056L135.855,50.056L136.054,50.056L136.259,50.056L136.452,50.056L136.651,50.056L137.05,50.056L137.249,50.056L137.452,50.056L137.647,50.056L137.847,50.056L138.245,50.056L138.444,50.056L138.648,50.056L138.842,50.056L139.042,50.056L139.44,50.056L139.64,50.056L139.844,50.056L140.038,50.056L140.237,50.056L140.635,50.056L140.835,50.056L141.039,50.056L141.233,50.056L141.432,50.056L141.831,50.056L142.03,50.056L142.234,50.056L142.428,50.056L142.628,50.056L143.026,60.056L143.225,60.056L143.43,60.056L143.624,60.056L143.823,60.056L144.221,60.056L144.42,60.056L144.626,60.056L144.819,60.056L145.018,60.056L145.417,60.056L145.616,60.056L145.819,60.056L146.014,60.056L146.213,60.056L146.612,60.056L146.811,60.056L147.015,60.056L147.209,60.056L147.409,60.056L147.807,60.056L148.006,60.056L148.211,60.056L148.405,60.056L148.604,60.056L149.002,60.056L149.201,60.056L149.407,60.056L149.6,60.056L149.799,60.056L150.198,90.056L150.397,90.056L150.603,90.056L150.795,90.056L150.994,90.056L151.393,90.056L151.592,90.056L151.797,90.056L151.99,90.056L165.736,60.056L165.935,60.056L166.142,60.056L166.334,60.056L166.533,60.056L166.931,60.056L167.13,60.056L167.337,60.056L167.529,60.056L167.728,60.056L168.126,60.056L168.326,60.056L168.532,60.056L168.724,60.056L168.924,60.056L169.322,100.056L169.521,100.056L169.727,100.056L169.919,100.056L170.119,100.056L170.517,100.056L170.716,100.056L170.921,100.056" stroke="#f58518" stroke-width="2"/></g></g><path class="foreground" aria-hidden="true" d="" display="none"/></g><g transform="translate(0,0)"><path class="background" aria-hidden="true" d="M0,0h200v200h-200Z"/><g><g class="mark-line role-mark child_marks" role="graphics-object" aria-roledescription="line mark container"><path aria-label="Time: Aug 30, 2023; Price: 8995; item: HIKING_BACKPACK_PONCHO_-_Veste_imperméable_-_blue" role="graphics-symbol" aria-roledescription="line mark" d="M0,100.056L0.194,100.056L0.392,100.056L0.791,100.056L0.99,100.056L1.196,100.056L1.388,100.056L1.587,100.056L1.986,100.056L2.185,100.056L2.39,100.056L2.583,100.056L2.783,100.056L3.181,100.056L3.38,100.056L3.583,100.056L3.778,100.056L3.978,100.056L4.376,100.056L4.719,100.056L4.779,100.056L14.137,100.056L14.344,100.056L14.536,100.056L14.735,100.056L15.134,100.056L15.333,100.056L15.539,100.056L15.731,100.056L15.93,100.056L16.329,100.056L16.528,100.056L16.734,100.056L16.84,100.056L16.926,100.056L17.126,100.056L17.524,100.056L17.723,100.056L17.93,100.056L18.122,100.056L18.321,100.056L18.719,100.056L18.918,100.056L19.124,100.056L19.317,100.056L19.516,100.056L19.914,100.056L20.114,100.056L20.316,100.056L20.512,100.056L20.711,100.056L21.11,100.056L21.309,100.056L34.855,111.167L35.453,111.167L35.652,111.167L35.858,111.167L36.051,111.167L36.25,111.167L36.648,111.167L36.847,111.167L37.051,111.167L37.246,111.167L37.445,111.167L37.843,111.167L38.043,111.167L38.247,111.167L38.441,111.167L38.64,111.167L39.039,111.167L39.238,111.167L39.444,111.167L39.636,111.167L39.835,111.167L40.234,127.833L40.433,127.833L40.64,127.833L40.832,127.833L41.031,127.833L41.429,127.833L41.628,127.833L41.836,127.833L42.027,127.833L42.226,127.833L42.624,127.833L42.823,127.833L43.032,127.833L43.222,127.833L43.422,127.833L43.82,127.833L44.019,127.833L44.226,127.833L44.417,127.833L44.617,127.833L45.015,127.833L45.214,127.833L45.418,127.833L45.612,127.833L45.812,127.833L46.21,127.833L46.409,127.833L46.808,127.833L47.007,127.833L47.405,127.833" stroke="#54a24b" stroke-width="2"/></g></g><path class="foreground" aria-hidden="true" d="" display="none"/></g><g transform="translate(0,0)"><path class="background" aria-hidden="true" d="M0,0h200v200h-200Z"/><g><g class="mark-line role-mark child_marks" role="graphics-object" aria-roledescription="line mark container"><path aria-label="Time: Aug 30, 2023; Price: 16195; item: DESCHUTES_VALLEY™_RAIN_PONCHO_-_Parka_-_vista_blue" role="graphics-symbol" aria-roledescription="line mark" d="M0,20.056L0.194,20.056L0.392,20.056L0.791,20.056L0.99,20.056L1.196,20.056L1.388,20.056L1.587,20.056L1.986,20.056L2.185,20.056L2.39,20.056L2.583,20.056L2.783,20.056L3.181,20.056L3.38,20.056L3.583,20.056L3.778,20.056L3.978,20.056L4.376,20.056L4.719,20.056L4.779,20.056L4.974,20.056L5.173,20.056L5.572,20.056L5.771,20.056L5.977,20.056L6.169,20.056L6.368,20.056L6.768,80.056L6.967,80.056L7.172,80.056L7.365,80.056L7.563,80.056L7.962,80.056L8.161,80.056L8.368,80.056L8.56,80.056L8.759,80.056L9.158,80.056L9.357,80.056L9.562,80.056L9.755,80.056L9.954,80.056L10.478,80.056L10.552,80.056L10.757,80.056L10.95,80.056L11.149,80.056L11.547,80.056L11.747,80.056L11.95,80.056L12.145,80.056L12.345,80.056L12.743,80.056L12.942,80.056L13.145,80.056L13.34,80.056L13.54,80.056L13.938,80.056L14.137,80.056L14.344,80.056L14.536,80.056L14.735,80.056L15.134,80.056L15.332,80.056L15.539,80.056L15.731,80.056L15.93,80.056L16.329,20.056L16.528,20.056L16.734,20.056L16.84,20.056L16.926,20.056L17.126,20.056L17.524,20.056L17.723,20.056L17.93,20.056L18.122,20.056L18.321,20.056L18.719,20.056L18.918,20.056L19.124,20.056L19.317,20.056L19.516,20.056L19.914,20.056L20.114,20.056L20.316,20.056L20.512,20.056L20.711,20.056L21.11,20.056L21.309,20.056L21.512,20.056L21.707,20.056L21.907,20.056L22.305,20.056L22.504,20.056L22.711,20.056L22.903,20.056L23.102,20.056L23.5,20.056L23.699,20.056L23.906,20.056L24.098,20.056L24.297,20.056L24.695,20.056L24.895,20.056L25.101,20.056L25.293,20.056L25.492,20.056L25.891,20.056L26.09,20.056L26.297,20.056L26.488,20.056L26.688,20.056L27.086,20.056L27.285,20.056L27.491,20.056L27.684,20.056L27.883,20.056L28.281,20.056L28.48,20.056L28.683,20.056L28.879,20.056L29.078,20.056L29.476,20.056L29.676,20.056L29.879,20.056L30.074,20.056L30.273,20.056L30.672,20.056L30.871,20.056L31.078,20.056L31.269,20.056L31.468,20.056L31.867,20.056L32.066,20.056L32.273,20.056L32.464,20.056L32.664,20.056L33.062,40.056L33.261,40.056L33.468,40.056L33.66,40.056L33.859,40.056L34.258,40.056L34.457,40.056L34.663,40.056L34.855,40.056L35.453,40.056L35.652,40.056L35.858,40.056L36.051,40.056L36.25,40.056L36.648,40.056L36.847,40.056L37.051,40.056L37.246,40.056L37.445,40.056L37.843,40.056L38.043,40.056L38.247,40.056L38.441,40.056L38.64,40.056L39.039,90.056L39.238,90.056L39.444,90.056L39.636,90.056L39.835,90.056L40.234,40.056L40.433,40.056L40.64,40.056L40.832,40.056L41.031,40.056L41.429,40.056L41.628,40.056L41.836,40.056L42.027,40.056L42.226,40.056L42.624,40.056L42.823,40.056L43.032,40.056L43.222,40.056L43.422,40.056L43.82,40.056L44.019,40.056L44.226,40.056L44.417,40.056L44.617,40.056L45.015,40.056L45.214,40.056L45.418,40.056L45.612,40.056L45.812,40.056L46.21,40.056L46.409,40.056L46.808,40.056L47.007,40.056L47.405,40.056L47.605,40.056L47.813,40.056L48.003,40.056L48.202,40.056L48.601,90.056L48.8,90.056L49.007,90.056L49.198,90.056L49.397,90.056L49.796,90.056L49.996,90.056L50.202,90.056L50.394,90.056L50.593,90.056L50.991,90.056L51.19,90.056L51.397,90.056L51.589,90.056L51.788,90.056L52.187,90.056L52.386,90.056L52.593,90.056L52.784,90.056L52.983,90.056L53.382,40.056L53.581,40.056L53.784,40.056L53.979,40.056L54.178,40.056L54.577,40.056L54.776,40.056L54.98,40.056L55.174,40.056L55.374,40.056L55.772,100.056L55.972,100.056L56.179,100.056L56.37,100.056L56.569,100.056L56.968,100.056L57.167,100.056L57.374,100.056L57.565,100.056L57.764,100.056L58.163,100.056L58.362,100.056L58.569,100.056L58.76,100.056L58.96,100.056L59.358,100.056L59.557,100.056L59.764,100.056L59.956,100.056L60.155,100.056L60.554,100.056L60.753,100.056L60.959,100.056L61.151,100.056L61.35,100.056L61.748,100.056L61.948,100.056L62.151,100.056L62.346,100.056L62.545,100.056L62.944,100.056L63.143,100.056L63.346,100.056L63.541,100.056L63.741,100.056L64.139,100.056L64.338,100.056L64.545,100.056L64.737,100.056L64.936,100.056L65.334,40.056L65.534,40.056L65.739,40.056L65.932,40.056L66.131,40.056L66.53,40.056L66.729,40.056L66.935,40.056L67.127,40.056L67.327,40.056L67.725,40.056L67.924,40.056L68.13,40.056L68.322,40.056L68.521,40.056L68.92,40.056L69.12,40.056L69.324,40.056L69.518,40.056L69.717,40.056L70.115,40.056L70.315,40.056L70.517,40.056L70.713,40.056L70.912,40.056L71.311,40.056L71.51,40.056L71.714,40.056L71.908,40.056L72.107,40.056L72.506,40.056L72.705,40.056L72.911,40.056L73.104,40.056L73.303,40.056L73.701,40.056L73.9,40.056L74.106,40.056L74.299,40.056L74.498,40.056L74.896,40.056L75.096,40.056L75.301,40.056L75.494,40.056L75.693,40.056L76.092,40.056L76.291,40.056L76.496,40.056L76.689,40.056L76.888,40.056L77.287,40.056L77.486,40.056L77.693,40.056L77.885,40.056L78.084,40.056L78.482,40.056L78.682,40.056L78.885,40.056L79.08,40.056L79.279,40.056L79.677,40.056L79.876,40.056L80.08,40.056L80.275,40.056L80.474,40.056L80.872,40.056L81.072,40.056L81.279,40.056L81.47,40.056L81.669,40.056L82.068,40.056L82.267,40.056L82.473,40.056L82.665,40.056L82.865,40.056L83.263,40.056L83.462,40.056L83.668,40.056L83.861,40.056L84.06,40.056L84.458,40.056L84.657,40.056L84.863,40.056L85.056,40.056L85.255,40.056L85.654,40.056L85.853,40.056L86.059,40.056L86.251,40.056L86.45,40.056L86.849,40.056L87.048,40.056L87.252,40.056L87.646,40.056L88.044,40.056L88.243,40.056L88.447,40.056L88.642,40.056L88.841,40.056L89.239,40.056L89.439,40.056L89.645,40.056L89.837,40.056L90.434,40.056L90.634,40.056L90.84,40.056L91.032,40.056L91.231,40.056L91.63,40.056L91.829,40.056L92.036,40.056L92.228,40.056L92.427,40.056L92.825,120.056L93.024,120.056L93.231,120.056L93.423,120.056L93.622,120.056L94.02,120.056L94.22,120.056L94.426,120.056L94.618,120.056L94.817,120.056L95.216,40.056L95.415,40.056L95.619,40.056L95.813,40.056L96.013,40.056L96.411,40.056L96.61,40.056L96.815,40.056L97.009,40.056L97.208,40.056L97.606,50.056L97.805,50.056L98.013,70.056L98.204,70.056L98.403,70.056L98.801,70.056L99.001,70.056L99.208,70.056L99.399,70.056L99.598,70.056L99.997,70.056L100.196,70.056L100.403,70.056L100.594,70.056L100.793,70.056L101.192,120.056L101.391,120.056L101.598,120.056L101.79,120.056L101.989,120.056L102.387,120.056L102.586,120.056L102.792,120.056L102.985,120.056L103.184,120.056L103.582,120.056L103.782,120.056L103.986,120.056L104.18,120.056L104.379,120.056L104.778,120.056L104.977,120.056L105.181,120.056L105.375,120.056L105.575,120.056L105.973,40.056L106.172,40.056L106.38,40.056L106.571,40.056L106.77,40.056L107.168,40.056L107.368,40.056L107.573,40.056L107.766,40.056L107.965,40.056L108.364,40.056L108.563,40.056L108.77,40.056L108.961,40.056L109.16,40.056L109.559,40.056L109.758,40.056L109.964,40.056L110.156,40.056L110.356,40.056L110.754,40.056L110.953,40.056L111.16,40.056L111.352,40.056L111.551,40.056L111.95,40.056L112.149,40.056L112.352,40.056L112.547,40.056L112.746,40.056L113.144,40.056L113.344,40.056L113.548,40.056L113.743,40.056L113.941,40.056L114.34,40.056L114.539,40.056L114.746,40.056L114.938,40.056L115.136,40.056L115.535,100.056L115.734,100.056L115.941,100.056L116.133,100.056L116.332,100.056L116.73,100.056L116.93,100.056L117.136,100.056L117.328,100.056L117.527,100.056L117.925,100.056L118.125,100.056L118.332,100.056L118.523,100.056L118.723,100.056L119.121,100.056L119.32,100.056L119.526,100.056L119.719,100.056L119.918,100.056L120.316,100.056L120.515,100.056L120.719,100.056L120.914,100.056L121.113,100.056L121.511,100.056L121.71,100.056L121.915,100.056L122.109,100.056L122.308,100.056L122.707,100.056L122.906,100.056L123.113,100.056L123.304,100.056L123.504,100.056L123.902,100.056L124.101,100.056L124.308,100.056L124.5,100.056L124.699,100.056L125.097,100.056L125.296,100.056L125.503,100.056L125.695,100.056L125.894,100.056L126.292,100.056L126.492,100.056L126.698,100.056L126.89,100.056L127.089,100.056L127.488,100.056L127.687,100.056L127.893,100.056L128.085,100.056L128.284,100.056L128.683,100.056L128.882,100.056L129.086,100.056L129.281,100.056L129.48,100.056L129.878,90.056L130.077,90.056L130.281,90.056L130.476,90.056L130.675,90.056L131.073,90.056L131.273,90.056L131.479,90.056L131.671,90.056L131.87,90.056L132.269,90.056L132.468,90.056L132.674,90.056L132.866,90.056L133.066,90.056L133.464,90.056L133.663,90.056L133.864,90.056L134.062,90.056L134.261,90.056L134.659,60.056L134.858,60.056L135.257,60.056L135.456,60.056L135.855,60.056L136.054,60.056L136.259,60.056L136.452,60.056L136.651,60.056L137.05,60.056L137.249,60.056L137.452,60.056L137.647,60.056L137.847,60.056L138.245,60.056L138.444,60.056L138.648,60.056L138.842,60.056L139.042,60.056L139.44,60.056L139.64,60.056L139.844,60.056L140.038,60.056L140.237,60.056L140.635,60.056L140.835,60.056L141.039,60.056L141.233,60.056L141.432,60.056L141.831,60.056L142.03,60.056L142.234,60.056L142.428,60.056L142.628,60.056L143.026,60.056L143.225,60.056L143.43,60.056L143.624,60.056L143.823,60.056L144.221,60.056L144.42,60.056L144.626,60.056L144.819,60.056L145.018,60.056L145.417,60.056L145.616,60.056L145.819,60.056L146.014,60.056L146.213,60.056L146.612,60.056L146.811,60.056L147.015,60.056L147.209,60.056L147.409,60.056L147.807,60.056L148.006,60.056L148.211,60.056L148.405,60.056L148.604,60.056L149.002,60.056L149.201,60.056L149.407,60.056L149.6,60.056L149.799,60.056L150.198,90.056L150.397,90.056L150.603,90.056L150.795,90.056L150.994,90.056L151.393,90.056L151.592,90.056L151.797,90.056L151.99,90.056L152.19,90.056L152.588,90.056L152.787,90.056L152.993,90.056L153.186,90.056L153.385,90.056L153.783,100.056L153.983,100.056L154.188,100.056L154.381,100.056L154.58,100.056L154.979,90.056L155.178,90.056L155.383,90.056L155.576,90.056L155.775,90.056L156.174,100.056L156.373,100.056L156.579,100.056L156.771,100.056L156.971,100.056L157.369,100.056L157.568,100.056L157.779,100.056L157.967,100.056L158.166,100.056L158.565,100.056L158.764,100.056L158.97,100.056L159.162,100.056L159.361,100.056L159.76,90.056L159.959,90.056L160.165,90.056L160.358,90.056L160.557,90.056L160.955,90.056L161.154,90.056L161.36,90.056L161.553,90.056L161.752,90.056L162.15,90.056L162.349,90.056L162.554,90.056L162.748,90.056L162.947,90.056L163.346,100.056L163.545,100.056L163.749,100.056L163.943,100.056L164.142,100.056L164.541,90.056L164.74,90.056L164.947,90.056L165.138,90.056L165.338,90.056L165.736,100.056L165.935,100.056L166.142,100.056L166.334,100.056L166.533,100.056L166.931,100.056L167.13,100.056L167.337,100.056L167.529,100.056L167.728,100.056L168.126,100.056L168.326,100.056L168.532,100.056L168.724,100.056L168.924,100.056L169.322,100.056L169.521,100.056L169.727,100.056L169.919,100.056L170.119,100.056L170.517,100.056L170.716,100.056L170.921,100.056L171.115,100.056L171.314,100.056L171.911,100.056L172.116,100.056L172.31,100.056L172.509,100.056L172.907,100.056L173.107,100.056L173.314,100.056L173.505,100.056L173.705,100.056L174.103,130.056L174.302,130.056L174.509,130.056L174.7,130.056L174.9,130.056L175.298,130.056L175.497,130.056L175.704,130.056L175.896,130.056L176.095,130.056L176.493,130.056L176.692,130.056L176.899,130.056L177.091,130.056L177.29,130.056L177.689,130.056L177.888,130.056L178.091,130.056L178.286,130.056L178.485,130.056L178.884,130.056L179.083,130.056L179.284,130.056L179.481,130.056L179.681,130.056L180.079,130.056L180.278,130.056L180.48,130.056L180.677,130.056L180.876,130.056L181.275,60.056L181.474,60.056L181.676,60.056L181.872,60.056L182.071,60.056L182.47,60.056L182.669,60.056L182.872,60.056L183.067,80.056L183.267,80.056L183.665,80.056L183.864,80.056L184.067,100.056L184.262,100.056L184.462,100.056L184.86,60.056L185.059,60.056L185.263,60.056L185.458,60.056L185.657,60.056L186.055,60.056L186.254,60.056L186.458,60.056L186.653,60.056L186.852,60.056L187.251,60.056L187.45,60.056L187.651,60.056L187.848,60.056L188.047,60.056L188.446,60.056L188.645,60.056L188.847,60.056L189.043,60.056L189.243,60.056L189.641,60.056L189.84,60.056L190.044,60.056L190.239,60.056L190.438,60.056L190.837,60.056L191.036,60.056L191.238,60.056L191.435,60.056L191.633,60.056L192.032,60.056L192.231,60.056L192.434,60.056L192.629,60.056L192.829,60.056L193.227,60.056L193.426,60.056L193.629,60.056L193.825,60.056L194.024,60.056L194.422,60.056L194.622,60.056L194.824,60.056L195.02,60.056L195.219,60.056L195.618,60.056L195.817,60.056L196.018,60.056L196.215,60.056L196.414,60.056L196.813,60.056L197.012,60.056L197.213,60.056L197.41,60.056L197.609,60.056L198.008,60.056L198.207,60.056L198.411,60.056L198.606,60.056L198.805,60.056L199.203,60.056L199.403,60.056L199.605,60.056L199.801,60.056L200,60.056" stroke="#e45756" stroke-width="2"/></g></g><path class="foreground" aria-hidden="true" d="" display="none"/></g><g transform="translate(0,0)"><path class="background" aria-hidden="true" d="M0,0h200v200h-200Z"/><g><g class="mark-line role-mark child_marks" role="graphics-object" aria-roledescription="line mark container"><path aria-label="Time: Aug 30, 2023; Price: 5495; item: COVERO_PONCHO_II_-_Cape_-_lightgrey" role="graphics-symbol" aria-roledescription="line mark" d="M0,138.944L0.194,138.944L0.392,138.944L0.791,138.944L0.99,138.944L1.196,138.944L1.388,138.944L1.587,138.944L1.986,138.944L2.185,138.944L3.38,138.944L3.583,138.944L3.778,138.944L3.978,138.944L4.376,138.944L4.719,138.944L4.779,138.944L4.974,138.944L5.173,138.944L5.572,138.944L5.771,138.944L5.977,138.944L6.169,138.944L6.368,138.944L6.768,138.944L6.967,138.944L7.172,138.944L7.365,138.944L7.564,138.944L10.95,153.944L12.942,138.944L13.145,138.944L13.34,138.944L13.54,138.944L13.938,138.944L14.137,138.944L14.344,138.944L14.536,138.944L14.735,138.944L15.134,138.944L15.333,138.944L15.539,138.944L15.731,138.944L15.93,138.944L16.329,138.944L16.528,138.944L16.734,138.944L16.84,138.944L16.926,138.944L17.126,138.944L17.524,138.944L17.723,138.944L17.93,138.944L18.122,138.944L18.321,138.944L18.719,138.944L18.918,138.944L19.124,138.944L19.317,138.944L19.516,138.944L19.914,138.944L20.114,138.944L20.316,138.944L20.512,138.944L20.711,138.944L21.11,138.944L21.309,138.944L21.512,138.944L21.707,138.944L21.907,138.944L22.305,138.944L22.504,138.944L22.711,138.944L22.903,138.944L23.102,138.944L23.5,138.944L23.699,138.944L23.906,138.944L24.098,138.944L24.297,138.944L24.695,151.167L24.895,151.167L25.101,151.167L25.293,151.167L25.492,151.167L25.891,151.167L26.09,151.167L26.297,151.167L26.488,151.167L26.688,151.167L27.086,151.167L27.285,151.167L27.491,151.167L28.481,151.167L28.683,151.167L28.879,151.167L29.078,151.167L29.476,151.167L29.676,151.167L29.879,151.167L30.074,151.167L30.273,151.167L30.672,151.167L30.871,151.167L31.078,151.167L31.269,151.167L31.468,151.167L31.867,151.167L32.066,151.167L32.273,151.167L32.465,151.167L32.664,151.167L33.062,151.167L33.261,151.167L33.468,151.167L33.66,151.167L33.859,151.167L34.258,151.167L34.457,151.167L34.663,151.167L34.855,151.167L35.453,151.167L35.652,151.167L35.858,151.167L36.051,151.167L36.25,151.167L36.648,151.167L36.847,151.167L37.051,151.167L37.246,151.167L37.445,151.167L37.843,151.167L38.043,151.167L38.247,151.167L38.441,151.167L38.64,151.167L39.039,151.167L39.238,151.167L39.444,151.167L39.636,151.167L39.835,151.167L40.234,151.167L40.433,151.167L40.64,151.167L40.832,151.167L41.031,151.167L41.429,151.167L41.628,151.167L41.836,151.167L42.027,151.167L42.226,151.167L42.624,151.167L42.823,151.167L43.032,151.167L43.222,151.167L43.422,151.167L43.82,151.167L44.019,151.167L44.226,151.167L44.417,151.167L44.617,151.167L45.214,151.167L45.418,151.167L46.21,151.167L46.409,151.167L46.808,151.167L47.007,151.167L48.003,151.167L48.202,151.167L48.601,151.167L48.8,151.167L49.007,151.167L49.397,151.167L49.796,138.944L49.996,138.944L50.202,138.944L50.394,138.944L50.593,138.944L52.784,138.944L53.979,153.944L56.569,153.944L56.968,153.944L57.565,153.944L58.163,153.944L58.76,153.944L58.96,153.944L59.557,153.944L61.151,153.944L61.35,153.944L61.748,153.944L63.346,153.944L63.541,153.944L63.741,153.944L64.139,153.944L64.737,153.944L64.936,153.944L65.334,153.944L65.534,153.944L65.739,153.944L66.131,153.944L66.729,153.944L66.935,153.944L67.127,153.944L67.725,153.944L67.924,153.944L68.322,153.944L69.518,153.944L69.717,153.944L70.115,153.944L70.517,153.944L70.713,153.944L70.912,153.944L71.51,153.944L71.714,153.944L71.908,153.944L72.506,153.944L72.705,153.944L72.911,153.944L73.104,153.944L73.303,153.944L73.701,153.944L73.9,153.944L74.106,153.944L74.299,153.944L74.498,153.944L74.896,153.944L76.291,153.944L76.496,153.944L76.689,153.944L76.888,153.944L77.486,153.944L77.693,153.944L77.885,153.944L78.084,153.944L78.482,145.611L78.682,145.611L82.865,145.611L83.263,145.611L83.462,145.611L83.668,145.611L83.861,145.611L84.06,145.611L84.657,145.611L84.863,145.611L85.056,145.611L85.255,145.611L85.654,145.611L86.059,145.611L86.45,145.611L87.048,145.611L87.252,145.611L87.646,145.611L88.044,145.611L88.243,145.611L88.447,145.611L88.642,145.611L88.841,145.611L89.239,138.944L89.645,138.944L90.434,138.944L90.634,138.944L90.84,138.944L91.032,138.944L91.231,138.944L91.63,138.944L91.829,138.944L92.036,138.944L92.228,138.944L92.427,138.944L93.024,153.944L93.231,153.944L93.423,153.944L93.622,153.944L94.02,153.944L94.618,153.944L94.817,153.944L95.216,153.944L95.415,153.944L95.619,153.944L95.813,160.056L97.805,138.944L98.013,138.944L98.204,138.944L98.403,138.944L98.801,138.944L99.001,138.944L99.208,138.944L99.399,138.944L99.598,138.944L99.997,138.944L100.196,138.944L100.403,138.944L100.594,138.944L100.793,138.944L101.391,163.389L111.16,138.944L111.95,138.944L112.547,138.944L113.344,138.944L114.539,138.944L114.746,138.944L114.938,138.944L115.136,138.944L115.535,138.944L116.93,138.944L117.925,138.944L119.719,138.944L120.515,138.944L120.719,138.944L120.914,138.944L121.113,138.944L121.511,138.944L121.915,138.944L122.906,138.944L123.113,138.944L123.304,138.944L123.504,138.944L124.308,138.944L125.097,138.944L126.698,138.944L127.687,138.944L128.085,138.944L128.284,138.944L128.683,138.944L129.281,138.944L129.48,138.944L129.878,138.944" stroke="#f58518" stroke-width="2"/></g></g><path class="foreground" aria-hidden="true" d="" display="none"/></g><g transform="translate(0,0)"><path class="background" aria-hidden="true" d="M0,0h200v200h-200Z"/><g><g class="mark-line role-mark child_marks" role="graphics-object" aria-roledescription="line mark container"><path aria-label="Time: Sep 01, 2023; Price: 12995; item: KUURA_3L_PONCHO_UNISEX_-_Veste_imperméable_-_green" role="graphics-symbol" aria-roledescription="line mark" d="M2.783,55.611L3.181,55.611L3.38,55.611L3.583,55.611L5.771,55.611L5.977,55.611L6.169,55.611L6.368,55.611L6.768,11.167L6.967,11.167L7.172,11.167L7.365,11.167L7.564,11.167L7.962,11.167L8.161,11.167L8.368,11.167L8.56,11.167L8.759,11.167L9.158,11.167L9.357,11.167L9.562,11.167L9.755,11.167L9.954,11.167L10.478,11.167L10.552,11.167L10.757,11.167L10.95,11.167L11.149,11.167L11.547,11.167L11.747,11.167L11.95,11.167L12.145,11.167L12.345,11.167L12.743,11.167L12.942,11.167L13.145,11.167L13.34,11.167L13.54,11.167L13.938,11.167L14.137,11.167L14.344,11.167L14.536,11.167L15.134,11.167L15.332,11.167L15.539,11.167L15.731,11.167L15.93,11.167L20.316,22.278L20.512,22.278L20.711,22.278L21.11,22.278L21.309,22.278L21.512,22.278L21.707,22.278L21.907,22.278L22.305,22.278L22.504,22.278L22.711,22.278L23.699,22.278L23.906,22.278L24.098,22.278L24.297,22.278L24.695,22.278L24.895,22.278L40.832,22.278L41.031,22.278L41.429,22.278L41.628,22.278L41.836,22.278L42.027,22.278L42.226,22.278L42.624,22.278L42.823,22.278L43.032,22.278L43.222,22.278L43.422,22.278L43.82,22.278L44.019,22.278L44.226,22.278L44.417,22.278L44.617,22.278L45.015,22.278L45.214,22.278L45.418,22.278L45.612,22.278L45.812,22.278L64.139,22.278L64.338,22.278L64.545,22.278L64.737,22.278L64.936,22.278L65.334,22.278L65.534,22.278L65.739,22.278L65.932,22.278" stroke="#4c78a8" stroke-width="2"/></g></g><path class="foreground" aria-hidden="true" d="" display="none"/></g><g transform="translate(0,0)"><path class="background" aria-hidden="true" d="M0,0h200v200h-200Z"/><g><g class="mark-line role-mark child_marks" role="graphics-object" aria-roledescription="line mark container"><path aria-label="Time: Sep 14, 2023; Price: 6495; item: PARIS_ST._GERMAIN_CITY_MADE_PONCHO_-_Veste_de_survêtement_-_aura_white" role="graphics-symbol" aria-roledescription="line mark" d="M17.524,127.833L17.723,127.833L17.93,127.833L18.122,127.833L18.321,127.833L18.719,127.833L18.918,127.833L19.914,127.833L21.309,127.833L21.512,127.833L21.707,127.833L21.907,127.833L22.305,127.833L22.504,127.833L22.711,127.833L22.903,127.833L23.102,127.833L23.5,127.833L23.699,127.833L23.906,127.833L24.098,127.833L24.297,127.833L24.695,127.833L24.895,127.833L25.101,127.833L25.293,127.833L25.492,127.833L25.891,127.833L26.09,127.833L26.297,127.833L26.488,127.833L26.688,127.833L27.086,127.833L27.285,127.833L27.491,127.833L27.684,127.833L27.883,127.833L28.281,127.833L28.48,127.833L28.683,127.833L28.879,127.833L29.078,127.833L29.476,127.833L29.676,127.833L29.879,127.833L30.074,127.833L30.273,127.833L30.672,127.833L30.871,127.833L31.078,127.833L31.269,127.833L31.468,127.833L31.867,127.833L32.066,127.833L32.273,127.833" stroke="#bab0ac" stroke-width="2"/></g></g><path class="foreground" aria-hidden="true" d="" display="none"/></g><g transform="translate(0,0)"><path class="background" aria-hidden="true" d="M0,0h200v200h-200Z"/><g><g class="mark-line role-mark child_marks" role="graphics-object" aria-roledescription="line mark container"><path aria-label="Time: Sep 18, 2023; Price: 8995; item: HIKING_BACKPACK_PONCHO_-_Veste_imperméable_-_indian_red" role="graphics-symbol" aria-roledescription="line mark" d="M22.305,100.056L22.504,100.056L22.711,100.056L22.903,100.056L23.102,100.056L23.5,100.056L23.699,100.056L31.269,100.056L31.468,100.056L31.867,100.056L32.066,100.056L32.273,100.056L32.464,100.056L32.664,100.056L33.062,111.167L33.261,111.167L33.468,111.167L33.66,111.167L52.593,111.167L52.784,111.167L52.983,111.167L53.382,111.167L53.581,111.167L53.784,111.167L53.979,111.167L54.178,111.167L54.577,111.167L133.864,122.278L134.062,122.278L134.261,122.278L134.659,111.167L134.859,111.167" stroke="#b279a2" stroke-width="2"/></g></g><path class="foreground" aria-hidden="true" d="" display="none"/></g><g transform="translate(0,0)"><path class="background" aria-hidden="true" d="M0,0h200v200h-200Z"/><g><g class="mark-line role-mark child_marks" role="graphics-object" aria-roledescription="line mark container"><path aria-label="Time: Sep 26, 2023; Price: 6495; item: PSG_M_NSW_CITY_MADE_PONCHO_-_Veste_de_survêtement_-_aura_white" role="graphics-symbol" aria-roledescription="line mark" d="M32.465,127.833L32.664,127.833L33.062,91.167L33.261,91.167L33.468,91.167L33.66,91.167L33.859,91.167L34.258,91.167L34.457,91.167L34.663,91.167L34.855,91.167L35.453,91.167L35.652,91.167L35.858,91.167L36.051,91.167L36.25,91.167L36.648,91.167L36.847,91.167L37.051,91.167L37.246,91.167L37.445,91.167L37.843,91.167L38.043,91.167L38.247,91.167L38.441,91.167L38.64,91.167L39.039,127.833L39.238,127.833L39.444,127.833L39.636,127.833L39.835,127.833L40.234,127.833L40.433,127.833L40.64,127.833L40.832,127.833L41.031,127.833L41.429,127.833L41.628,127.833L41.836,127.833L42.027,127.833L42.226,127.833L42.624,127.833L42.823,127.833L43.032,127.833L43.222,127.833L43.422,127.833L43.82,127.833L44.019,127.833L44.226,127.833L44.417,127.833L44.617,127.833L45.015,127.833L45.214,127.833L45.418,127.833L45.612,127.833L45.812,127.833L46.21,127.833L46.409,127.833L46.808,127.833L47.007,127.833L47.405,127.833L47.605,127.833L47.813,127.833L48.003,127.833L48.202,127.833L48.601,84.5L48.8,84.5L49.007,84.5L49.397,84.5L49.796,84.5L49.996,84.5L50.202,84.5L50.394,84.5L50.593,84.5L50.991,84.5L51.19,84.5L52.187,84.5L52.784,84.5L53.979,127.833L54.577,127.833L55.972,127.833L56.179,127.833L63.741,127.833L64.139,127.833L64.338,127.833L64.545,127.833L65.534,127.833L65.739,127.833L67.127,127.833L67.327,127.833L68.13,127.833L68.521,127.833L68.92,127.833L69.324,127.833L70.315,127.833L70.912,127.833L71.311,127.833L71.51,127.833L71.714,127.833L72.107,127.833L72.705,127.833L73.303,127.833L73.701,127.833L73.9,127.833L74.106,127.833L74.299,127.833L74.498,127.833L74.896,127.833L75.096,127.833L75.301,127.833L75.494,127.833L75.693,127.833L76.092,127.833L76.291,127.833L76.496,127.833L76.689,127.833L76.888,127.833L77.287,127.833L77.486,127.833L77.693,127.833L77.885,127.833L78.084,127.833L78.482,127.833L78.682,127.833L78.885,127.833L79.08,127.833L79.279,127.833L79.677,127.833L79.876,127.833L80.08,127.833L80.275,127.833L80.474,127.833L80.872,127.833L81.072,127.833L81.279,127.833L81.47,127.833L81.669,127.833L82.068,127.833L82.267,127.833L82.473,127.833L82.665,127.833L82.865,127.833L83.263,127.833L83.668,127.833L83.861,127.833L84.06,127.833L84.863,127.833L85.056,127.833L85.654,84.5L86.059,84.5L86.45,84.5L87.646,84.5L88.841,84.5L89.645,127.833L90.434,127.833L90.634,127.833L90.84,127.833L91.231,127.833L91.63,127.833L91.829,127.833L92.036,127.833L92.228,127.833L93.024,156.722L95.415,127.833L95.619,127.833L96.411,127.833L98.403,105.611L98.801,105.611L100.403,105.611L100.594,105.611L101.391,148.944L104.379,148.944L104.778,148.944L106.77,120.056L107.168,127.833L107.965,127.833L108.77,127.833L109.964,127.833L110.356,127.833L111.16,91.167L111.95,91.167L112.547,91.167L113.344,127.833L114.746,91.167L116.93,127.833L119.719,127.833L120.719,127.833L121.113,127.833L121.915,127.833L122.906,127.833L123.113,127.833L123.304,127.833L123.504,127.833L123.902,127.833L124.101,127.833L124.308,127.833L124.5,127.833L124.699,127.833L125.097,127.833L127.687,127.833L128.085,127.833L128.284,127.833L128.683,127.833L129.281,127.833L130.077,120.056L130.281,120.056L130.476,120.056L130.675,120.056L131.073,120.056L131.479,120.056L131.87,120.056L132.269,120.056L132.468,120.056L132.674,120.056L132.866,120.056L133.066,120.056L133.464,120.056L133.663,120.056L133.864,120.056L134.062,120.056L134.261,120.056L134.659,98.944L135.257,98.944L135.855,98.944L136.054,98.944L136.259,98.944L136.452,98.944L136.651,98.944L137.05,98.944L137.249,98.944L137.452,98.944L137.647,98.944L137.847,98.944L138.245,98.944L138.444,98.944L138.648,98.944L138.843,98.944L139.042,98.944L139.44,98.944L139.64,98.944L139.844,98.944L140.038,98.944L140.237,98.944L140.635,98.944L140.835,98.944L141.233,98.944L141.432,98.944L141.831,98.944L142.03,98.944L142.234,98.944L142.628,98.944L143.225,98.944L143.43,98.944L143.624,98.944L144.221,98.944L144.819,98.944L145.417,98.944L145.616,98.944L145.82,98.944L146.213,98.944L146.612,98.944L147.015,98.944L147.209,98.944L147.409,98.944L147.807,98.944L148.006,98.944L148.211,98.944L148.405,98.944L148.604,98.944L149.002,98.944L149.6,98.944L150.198,120.056L150.397,120.056L150.795,120.056L150.994,120.056L151.393,120.056L151.797,120.056L151.99,120.056L152.19,120.056L152.787,120.056L152.993,120.056L153.186,120.056L153.385,120.056L153.783,120.056L153.983,120.056L154.188,120.056L154.381,120.056L154.58,120.056L154.979,120.056L155.178,120.056L155.383,120.056L155.576,120.056L155.775,120.056L156.174,120.056L156.579,120.056L156.971,120.056L157.369,120.056L158.166,120.056L158.764,120.056L159.959,120.056L160.165,120.056L160.358,120.056L160.557,120.056L160.955,120.056L161.154,120.056L161.36,120.056L161.553,120.056L161.752,120.056L162.15,120.056L162.349,120.056L162.554,120.056L162.748,120.056L162.947,120.056L163.346,120.056L164.142,120.056L164.947,98.944L165.338,98.944L166.533,98.944L167.337,98.944L168.326,98.944L168.532,98.944L168.724,98.944L168.924,98.944L169.322,98.944L169.521,98.944L169.727,98.944L169.919,98.944L170.119,98.944L170.517,98.944L170.716,98.944L170.921,98.944L171.115,98.944L171.314,98.944L171.911,98.944L172.116,98.944L172.31,98.944L172.509,98.944L172.907,98.944L173.107,98.944L173.314,98.944L173.505,98.944L173.705,98.944L174.103,98.944L174.302,98.944L174.509,98.944L174.7,98.944L174.9,98.944L175.298,98.944L175.497,98.944L175.704,98.944L175.896,98.944L176.095,98.944L176.493,98.944L176.692,98.944L176.899,98.944L177.091,98.944L177.29,98.944L177.689,98.944L177.888,98.944L178.091,98.944L178.286,98.944L178.485,98.944L178.884,98.944L179.083,98.944L179.284,98.944L179.481,98.944L179.681,98.944L180.079,98.944L180.278,98.944L180.48,98.944L180.677,98.944L180.876,98.944L181.275,98.944L181.474,98.944L181.676,98.944L181.872,98.944L182.071,98.944L182.47,98.944L182.669,98.944L182.872,98.944L183.067,98.944L183.267,98.944L183.665,98.944L183.864,98.944L184.067,98.944L184.262,98.944L184.462,98.944L184.86,98.944L185.059,98.944L185.263,98.944L185.458,98.944L185.657,98.944L186.055,98.944L186.254,98.944L186.458,98.944L186.653,98.944L186.852,98.944L187.251,98.944L187.45,98.944L187.651,98.944L193.629,98.944L193.825,98.944L194.024,98.944L194.422,98.944L194.622,98.944L194.824,98.944L195.02,98.944L195.219,98.944L195.618,98.944L195.817,98.944L196.018,98.944L196.215,98.944L196.414,98.944L196.813,98.944L197.012,98.944L197.213,98.944L197.41,98.944L197.609,98.944L198.008,98.944L198.207,98.944L198.411,98.944L198.606,98.944L198.805,98.944L199.203,98.944L199.403,98.944L199.605,98.944L199.801,98.944L200,98.944" stroke="#ff9da6" stroke-width="2"/></g></g><path class="foreground" aria-hidden="true" d="" display="none"/></g><g transform="translate(0,0)"><path class="background" aria-hidden="true" d="M0,0h200v200h-200Z"/><g><g class="mark-line role-mark child_marks" role="graphics-object" aria-roledescription="line mark container"><path aria-label="Time: Oct 12, 2023; Price: 4995; item: SHOWERPROOF_PONCHO_UNISEX_-_Cape_-_classic_tartan" role="graphics-symbol" aria-roledescription="line mark" d="M50.991,144.5L51.19,144.5L51.397,144.5L51.589,144.5L51.788,144.5L52.187,144.5L52.386,144.5L52.593,144.5L52.784,144.5L52.983,144.5L53.382,144.5L53.581,144.5L53.784,144.5L53.979,144.5L54.178,144.5L54.577,144.5L54.776,144.5L54.98,144.5L55.174,144.5L55.374,144.5L55.772,152.611L55.972,152.611L56.179,152.611L56.37,152.611L56.569,152.611L56.968,152.611L57.167,152.611L57.374,152.611L57.565,152.611L57.764,152.611L58.163,152.611L58.362,152.611L58.569,152.611L58.76,152.611L58.96,152.611L59.358,152.611L59.557,152.611L59.764,152.611L59.956,152.611L60.155,152.611L60.554,152.611L60.753,152.611L60.959,152.611L61.151,152.611L61.35,152.611L61.748,152.611L61.948,152.611L62.151,152.611L62.346,152.611L62.545,152.611L62.944,144.5L63.143,144.5L63.346,144.5L63.541,144.5L63.741,144.5L64.139,144.5L64.338,144.5L64.545,144.5L64.737,144.5L64.936,144.5L65.334,152.611L65.534,152.611L65.739,152.611L65.932,152.611L66.131,152.611L66.53,152.611L66.729,152.611L66.935,152.611L67.127,152.611L67.327,152.611L67.725,152.611L67.924,152.611L68.13,152.611L68.322,152.611L68.521,152.611L68.92,152.611L69.12,152.611L69.324,152.611L69.518,152.611L69.717,152.611L70.115,152.611L70.315,152.611L70.517,152.611L70.713,152.611L70.912,152.611L71.311,152.611L71.51,152.611L71.714,152.611L71.908,152.611L72.107,152.611L72.506,144.5L72.705,144.5L72.911,144.5L73.104,144.5L73.303,144.5L73.701,144.5L73.9,144.5L74.106,144.5L74.299,144.5L74.498,144.5L74.896,152.611L75.096,152.611L75.301,152.611L75.494,152.611L75.693,152.611L76.092,152.611L76.291,152.611L76.496,152.611L76.689,152.611L76.888,152.611L77.287,152.611L77.486,152.611L77.693,152.611L77.885,152.611L78.084,152.611L78.482,152.611L78.682,152.611L78.885,152.611L79.08,152.611L79.279,152.611L79.677,152.611L79.876,152.611L80.08,152.611L80.275,152.611L80.474,152.611L80.872,152.611L81.072,152.611L81.279,152.611L81.47,152.611L81.669,152.611L82.068,150.056L82.267,144.5L82.473,144.5L82.665,144.5L82.865,144.5L83.263,144.5L83.462,144.5L83.668,144.5L83.861,144.5L84.06,144.5L84.458,144.5L84.657,144.5L84.863,144.5L85.056,144.5L85.255,144.5L85.654,144.5L85.853,144.5L86.059,144.5L86.251,144.5L86.45,144.5L86.849,144.5L87.048,144.5L87.252,144.5L87.646,144.5L88.044,144.5L88.243,144.5L88.447,144.5L88.642,144.5L88.841,144.5L89.239,144.5L89.439,144.5L89.645,144.5L89.837,144.5L90.434,144.5L90.634,144.5L90.84,144.5L91.032,144.5L91.231,144.5L91.63,144.5L91.829,144.5L92.036,144.5L92.228,144.5L92.427,144.5L92.825,144.5L93.024,144.5L93.231,144.5L93.423,144.5L93.622,144.5L94.02,144.5L94.22,144.5L94.426,144.5L94.618,144.5L94.817,144.5L95.216,144.5L95.415,144.5L95.619,144.5L95.813,144.5L96.013,144.5L96.411,144.5L96.61,144.5L96.815,144.5L97.009,144.5L97.208,144.5L97.606,144.5L97.805,144.5L98.013,144.5L98.204,144.5L98.403,144.5L98.801,144.5L99.001,144.5L99.208,144.5L99.399,144.5L99.598,144.5L99.997,144.5L100.196,144.5L100.403,144.5L100.594,144.5L100.793,144.5L114.938,144.5L115.136,144.5L115.535,144.5L115.734,144.5L115.941,144.5L116.133,144.5L116.332,144.5L116.73,144.5L116.93,144.5L117.136,144.5L117.328,144.5L117.527,144.5L117.925,144.5L118.125,144.5L118.332,144.5L118.523,144.5L118.723,144.5L119.121,144.5L119.32,144.5L119.526,144.5L119.719,144.5L119.918,144.5L120.316,144.5L120.515,144.5L120.719,144.5L120.914,144.5L121.113,144.5L121.511,144.5L121.71,144.5L121.915,144.5L122.109,144.5L122.308,144.5L122.707,144.5L122.906,144.5L123.113,144.5L123.304,144.5L123.504,144.5L123.902,144.5L124.101,144.5L124.308,144.5L124.5,144.5L124.699,144.5L125.097,144.5L125.296,144.5L125.503,144.5L125.695,144.5L125.894,144.5L126.292,144.5L126.492,144.5L126.698,144.5L126.89,144.5L127.089,144.5L127.488,144.5L127.687,144.5L127.893,144.5L128.085,144.5L128.284,144.5L128.683,144.5L128.882,144.5L129.086,144.5L129.281,144.5L129.48,144.5L129.878,144.5L130.077,144.5L130.281,144.5L130.476,144.5L130.675,144.5L131.073,144.5L131.273,144.5L131.479,144.5L131.671,144.5L131.87,144.5L132.269,158.167L132.468,158.167L132.674,158.167L132.866,158.167L133.066,158.167L133.464,158.167L133.663,158.167L133.864,158.167L134.062,158.167L134.261,158.167L134.659,144.5L134.859,144.5L135.257,144.5L135.456,144.5L135.855,144.5L136.054,144.5L136.259,144.5L136.452,144.5L136.651,144.5L137.05,144.5L137.249,144.5L137.452,144.5L137.647,144.5L137.847,144.5L138.245,144.5L138.444,144.5L138.648,144.5L138.843,144.5L139.042,144.5L139.44,144.5L139.64,144.5L139.844,144.5L140.038,144.5L140.237,144.5L140.635,144.5L140.835,144.5L141.039,144.5L141.233,144.5L141.432,144.5L141.831,144.5L142.03,144.5L142.234,144.5L142.428,144.5L142.628,144.5L143.026,144.5L143.225,144.5L143.43,144.5L143.624,144.5L143.823,144.5L144.221,144.5L144.42,144.5L144.626,144.5L144.819,144.5L145.018,144.5L145.417,144.5L145.616,144.5L145.819,144.5L146.014,144.5L146.213,144.5L146.612,144.5L146.811,144.5L147.015,144.5L147.209,144.5L147.409,144.5L147.807,144.5L148.006,144.5L148.211,144.5L148.405,144.5L148.604,144.5L149.002,144.5L149.201,144.5L149.407,144.5L149.6,144.5L149.799,144.5L150.198,144.5L150.397,144.5L150.603,144.5L150.795,144.5L150.994,144.5L151.393,144.5L151.592,144.5L151.797,144.5L151.99,144.5L152.19,144.5L152.588,144.5L152.787,144.5L152.993,144.5L153.186,144.5L153.385,144.5L153.783,144.5L153.983,144.5L154.188,144.5L154.381,144.5L154.58,144.5L154.979,144.5L155.178,144.5L155.383,144.5L155.576,144.5L155.775,144.5L156.174,144.5L156.373,144.5L156.579,144.5L156.771,144.5L156.971,144.5L157.369,152.611L157.568,152.611L157.779,152.611L157.967,152.611L158.166,152.611L158.565,152.611L158.764,152.611L158.97,152.611L159.162,152.611L159.361,152.611L159.76,158.167L159.959,158.167L160.165,158.167L160.358,158.167L160.557,158.167L160.955,158.167L161.154,158.167L161.36,158.167L161.553,158.167L161.752,158.167L162.15,158.167L162.349,158.167L162.554,158.167L162.748,158.167L162.947,158.167L163.346,144.5L163.545,144.5L163.749,144.5L163.943,144.5L164.142,144.5L164.541,158.167L164.74,158.167L164.947,158.167L165.138,158.167L165.338,158.167L165.736,150.056L165.935,150.056L166.142,150.056L166.334,150.056L166.533,150.056L166.931,144.5L167.13,144.5L167.337,144.5L167.529,144.5L167.728,144.5L168.126,150.056L168.326,150.056L168.532,150.056L168.724,150.056L168.924,150.056L169.322,161.167L169.521,161.167L169.727,161.167L169.919,161.167L170.119,161.167L170.517,161.167L170.716,161.167L170.921,161.167L171.115,161.167L171.314,161.167L171.911,144.5L172.116,144.5L172.31,144.5L172.509,144.5L172.907,161.167L173.107,161.167L173.314,161.167L173.505,161.167L173.705,161.167L174.103,150.056L174.302,150.056L174.509,150.056L174.7,150.056L174.9,150.056L175.298,144.5L175.497,144.5L175.704,144.5L175.896,144.5L176.095,144.5L176.493,150.056L176.692,150.056L176.899,150.056L177.091,150.056L177.29,150.056L177.689,150.056L177.888,150.056L178.091,150.056L178.286,150.056L178.485,150.056L178.884,144.5L179.083,144.5L179.284,144.5L179.481,144.5L179.681,144.5L180.079,144.5L180.278,144.5L180.48,144.5L180.677,144.5L180.876,144.5L181.275,144.5L181.474,144.5L181.676,144.5L181.872,144.5L182.071,144.5L182.47,144.5L182.669,144.5L182.872,144.5L183.067,144.5L183.267,144.5L183.665,144.5L183.864,144.5L184.067,144.5L184.262,144.5L184.462,144.5L184.86,152.611L185.059,152.611L185.263,152.611L185.458,152.611L185.657,152.611L186.055,152.611L186.254,152.611L186.458,152.611L186.653,152.611L186.852,152.611L187.251,152.611L187.45,152.611L187.651,152.611L187.848,152.611L188.047,152.611L188.446,133.389L188.645,133.389L188.847,133.389L189.043,133.389L189.243,133.389L189.641,133.389L189.84,133.389L190.044,133.389L190.239,133.389L190.438,133.389L190.837,133.389L191.036,133.389L191.238,133.389L191.435,133.389L191.633,133.389L192.032,150.056L192.231,150.056L192.434,150.056L192.629,150.056L192.829,150.056L193.227,133.389L193.426,133.389L193.629,133.389L193.825,133.389L194.024,133.389L194.422,133.389L194.622,133.389L194.824,133.389L195.02,133.389L195.219,133.389L195.618,133.389L195.817,133.389L196.018,133.389L196.215,133.389L196.414,133.389L196.813,133.389L197.012,133.389L197.213,133.389L197.41,133.389L197.609,133.389L198.008,133.389L198.207,133.389L198.411,133.389L198.606,133.389L198.805,133.389L199.203,133.389L199.403,133.389L199.605,133.389L199.801,133.389L200,133.389" stroke="#4c78a8" stroke-width="2"/></g></g><path class="foreground" aria-hidden="true" d="" display="none"/></g><g transform="translate(0,0)"><path class="background" aria-hidden="true" d="M0,0h200v200h-200Z"/><g><g class="mark-line role-mark child_marks" role="graphics-object" aria-roledescription="line mark container"><path aria-label="Time: Oct 12, 2023; Price: 13995; item: PONCHO_-_Cape_-_lucid_blue" role="graphics-symbol" aria-roledescription="line mark" d="M50.991,44.5L52.386,44.5L52.784,44.5L53.382,91.167L53.979,91.167L54.776,91.167L54.98,91.167L55.174,91.167L55.374,91.167L55.772,91.167L55.972,91.167L56.179,91.167L56.37,91.167L56.569,91.167L56.968,91.167L57.167,91.167L57.374,91.167L57.565,91.167L57.764,91.167L58.163,91.167L58.362,91.167L58.569,91.167L58.76,91.167L58.96,91.167L59.358,91.167L59.557,91.167L59.764,91.167L60.155,91.167L61.151,91.167L61.35,91.167L61.748,91.167L62.346,91.167L62.944,91.167L63.143,91.167L63.346,91.167L63.541,91.167L63.741,91.167L64.737,91.167L65.334,114.5L65.534,114.5L66.131,114.5L66.729,114.5L66.935,114.5L67.127,114.5L67.725,114.5L68.92,114.5L69.12,114.5L69.324,114.5L69.518,114.5L69.717,114.5L70.115,114.5L70.315,114.5L70.517,114.5L70.713,114.5L70.912,114.5L71.311,114.5L71.51,114.5L71.714,114.5L71.908,114.5L72.107,114.5L72.506,114.5L72.705,114.5L72.911,114.5L73.104,114.5L73.303,114.5L73.701,114.5L73.9,114.5L74.106,114.5L74.299,114.5L74.498,114.5L74.896,114.5L75.096,114.5L75.301,114.5L75.494,114.5L75.693,114.5L76.092,83.389L76.291,83.389L76.888,83.389L77.287,83.389L78.482,83.389L78.682,83.389L79.08,83.389L79.279,83.389L79.677,83.389L79.876,83.389L80.08,83.389L80.275,83.389L80.474,83.389L80.872,83.389L81.072,83.389L81.669,83.389L82.068,44.5L82.267,44.5L82.473,44.5L82.665,44.5L82.865,44.5L83.263,44.5L83.462,44.5L83.668,44.5L83.861,44.5L84.06,44.5L84.458,44.5L84.657,44.5L84.863,44.5L85.056,44.5L85.255,44.5L85.654,122.278L86.059,122.278L86.45,122.278L87.048,122.278L87.252,122.278L87.646,122.278L88.044,122.278L88.243,122.278L88.447,122.278L88.642,122.278L88.841,122.278L89.239,44.5L89.439,44.5L89.645,44.5L89.837,44.5L90.434,44.5L90.634,44.5L90.84,44.5L91.032,44.5L91.231,44.5L91.63,44.5L91.829,44.5L92.036,44.5L92.228,44.5L92.427,44.5L93.024,130.056L93.231,130.056L93.423,130.056L93.622,130.056L94.02,130.056L94.817,130.056L95.216,44.5L95.415,44.5L95.619,44.5L96.411,44.5L96.61,44.5L96.815,44.5L97.009,44.5L97.208,44.5L97.606,60.056L97.805,60.056L98.013,106.722L98.204,106.722L98.403,122.278L98.801,122.278L99.001,122.278L99.208,122.278L99.399,122.278L99.598,122.278L99.997,122.278L100.196,122.278L100.403,122.278L100.594,122.278L100.793,122.278L101.192,122.278L101.391,122.278L101.598,122.278L101.79,122.278L101.989,122.278L102.387,122.278L103.782,130.056L103.986,122.278L104.18,122.278L104.379,122.278L104.778,122.278L104.977,122.278L105.181,122.278L105.375,122.278L105.575,122.278L105.973,122.278L106.77,75.611L107.168,44.5L107.368,44.5L107.573,44.5L107.766,44.5L107.965,44.5L108.364,44.5L108.563,44.5L108.77,44.5L108.961,44.5L109.16,44.5L109.559,44.5L109.758,44.5L109.964,44.5L110.156,44.5L110.356,44.5L110.754,44.5L110.953,44.5L111.16,44.5L111.551,44.5L111.95,44.5L112.149,44.5L112.352,44.5L112.547,44.5L112.746,44.5L113.144,44.5L113.344,44.5L113.548,44.5L113.743,44.5L113.941,44.5L114.34,44.5L114.746,44.5L116.93,91.167L117.136,91.167L117.328,91.167L117.527,91.167L117.925,91.167L119.526,91.167L119.719,91.167L120.719,91.167L121.113,91.167L121.915,122.278L122.109,122.278L122.308,122.278L122.707,122.278L122.906,122.278L123.113,122.278L123.304,122.278L123.504,122.278L123.902,91.167L124.308,91.167L124.5,91.167L124.699,91.167L125.097,91.167L126.492,91.167L126.698,91.167L126.89,91.167L127.089,91.167L127.488,91.167L127.687,91.167L127.893,91.167L128.085,91.167L128.284,91.167L128.683,91.167L129.281,91.167L130.077,106.722L130.281,106.722L130.476,106.722L130.675,106.722L131.073,106.722L131.273,106.722L131.479,106.722L131.671,106.722L131.87,106.722L132.269,106.722L132.468,106.722L132.674,106.722L132.866,106.722L133.066,106.722L133.464,106.722L133.663,106.722L133.864,106.722L134.062,106.722L134.261,106.722L134.659,91.167L135.257,91.167L135.456,91.167L135.855,91.167L136.054,91.167L136.259,91.167L136.452,91.167L136.651,91.167L137.05,91.167L137.249,91.167L137.452,91.167L137.647,91.167L137.847,91.167L138.245,91.167L138.444,91.167L138.648,91.167L138.843,91.167L139.042,91.167L139.44,91.167L139.64,91.167L139.844,91.167L140.038,91.167L140.237,91.167L140.635,91.167L140.835,91.167L141.039,91.167L141.233,91.167L141.432,91.167L141.831,91.167L142.03,91.167L142.234,91.167L142.428,91.167L142.628,91.167L143.026,83.389L143.225,83.389L143.43,83.389L143.624,83.389L143.823,83.389L144.221,83.389L144.42,83.389L144.626,83.389L144.819,83.389L145.018,83.389L145.417,83.389L145.616,83.389L145.819,83.389L146.014,83.389L146.213,83.389L146.612,83.389L146.811,83.389L147.015,83.389L147.209,83.389L147.409,83.389L147.807,83.389L148.006,83.389L148.211,83.389L148.405,83.389L148.604,83.389L149.002,83.389L149.201,83.389L149.407,83.389L149.6,83.389L149.799,83.389L150.198,106.722L150.397,106.722L150.603,106.722L150.795,106.722L150.994,106.722L151.393,106.722L151.592,106.722L151.797,106.722L151.99,106.722L152.19,106.722L152.588,106.722L152.787,106.722L152.993,106.722L153.186,106.722L153.385,106.722L153.783,114.5L153.983,114.5L154.188,114.5L154.381,114.5L154.58,114.5L154.979,106.722L155.178,106.722L155.383,106.722L155.576,106.722L155.775,106.722L156.174,114.5L156.373,114.5L156.579,114.5L156.771,114.5L156.971,114.5L157.369,122.278L157.568,122.278L157.779,122.278L157.967,122.278L158.166,122.278L158.565,122.278L158.764,122.278L158.97,122.278L159.162,122.278L159.361,122.278L159.76,122.278L159.959,122.278L160.165,122.278L160.358,122.278L160.557,122.278L160.955,122.278L161.154,122.278L161.36,122.278L161.553,122.278L161.752,122.278L162.15,122.278L162.349,122.278L162.554,122.278L162.748,122.278L162.947,122.278L163.346,122.278L163.545,122.278L163.749,122.278L163.943,122.278L164.142,122.278L164.541,122.278L164.74,122.278L164.947,122.278L165.138,122.278L165.338,122.278L165.736,114.5L165.935,114.5L166.142,114.5L166.334,114.5L166.533,114.5L166.931,122.278L167.13,122.278L167.337,122.278L167.529,122.278L167.728,122.278L168.126,114.5L168.326,114.5L168.532,114.5L168.724,114.5L168.924,114.5L169.322,122.278L169.521,122.278L169.727,122.278L169.919,122.278L170.119,122.278L170.517,122.278L170.716,122.278L170.921,122.278L171.115,122.278L171.314,122.278L171.911,122.278L172.116,122.278L172.31,122.278L172.509,122.278L172.907,122.278L173.107,122.278L173.314,122.278L173.505,122.278L173.705,122.278L174.103,145.611L174.302,145.611L174.509,145.611L174.7,145.611L174.9,145.611L175.298,145.611L175.497,145.611L175.704,145.611L175.896,145.611L176.095,145.611L176.493,145.611L176.692,145.611L176.899,145.611L177.091,145.611L177.29,145.611L177.689,145.611L177.888,145.611L178.091,145.611L178.286,145.611L178.485,145.611L178.884,145.611L179.083,145.611L179.284,145.611L179.481,145.611L179.681,145.611L180.079,145.611L180.278,145.611L180.48,145.611L180.677,145.611L180.876,145.611L181.275,106.722L181.474,106.722L181.676,106.722L181.872,106.722L182.071,106.722L182.47,106.722L182.669,106.722L182.872,106.722L183.067,106.722L183.267,106.722L183.665,106.722L183.864,106.722L184.067,137.833L184.262,137.833L184.462,137.833L184.86,44.5L185.059,44.5L185.263,44.5L185.458,44.5L185.657,44.5L186.055,44.5L186.254,44.5L186.458,44.5L186.653,44.5L186.852,44.5L187.251,44.5L187.45,44.5L187.651,44.5L187.848,44.5L188.047,44.5L188.446,44.5L188.645,44.5L188.847,44.5L189.043,44.5L189.243,44.5L189.641,44.5L189.84,44.5L190.837,44.5L191.036,44.5L191.238,44.5L191.435,44.5L191.633,44.5L192.032,122.278L192.231,122.278L192.434,122.278L192.629,122.278L192.829,122.278L193.227,122.278L193.426,122.278L193.629,122.278L193.825,122.278L194.024,122.278L194.422,98.944L194.622,98.944L194.824,98.944L195.02,98.944L195.219,98.944L195.618,98.944L195.817,98.944L196.018,98.944L196.215,98.944L196.414,98.944L197.41,98.944L197.609,98.944L198.008,98.944L198.207,98.944L198.411,98.944L198.606,98.944L198.805,98.944L199.403,114.5" stroke="#eeca3b" stroke-width="2"/></g></g><path class="foreground" aria-hidden="true" d="" display="none"/></g><g transform="translate(0,0)"><path class="background" aria-hidden="true" d="M0,0h200v200h-200Z"/><g><g class="mark-line role-mark child_marks" role="graphics-object" aria-roledescription="line mark container"><path aria-label="Time: Dec 18, 2023; Price: 10995; item: K_ESSENTIAL_RAIN_PONCHO_UNISEX_-_Cape_-_black" role="graphics-symbol" aria-roledescription="line mark" d="M131.479,77.833L132.269,77.833L132.468,77.833L132.866,77.833L133.066,77.833L133.464,77.833L133.864,77.833L134.062,77.833L134.261,77.833L135.257,77.833L135.855,77.833L136.054,77.833L136.259,77.833L136.651,77.833L137.05,77.833L137.249,77.833L137.847,77.833L138.245,77.833L138.444,77.833L138.648,77.833L138.843,77.833L139.042,77.833L139.64,77.833L140.237,77.833L140.635,77.833L140.835,77.833L141.432,77.833L142.03,77.833L142.234,77.833L142.628,77.833L143.225,77.833L143.43,77.833L144.221,77.833L144.819,77.833L145.417,77.833L145.616,77.833L145.82,77.833L146.213,77.833L147.015,77.833L147.209,77.833L147.807,77.833L148.211,77.833L148.405,77.833L148.604,77.833L149.6,77.833L150.198,77.833L150.397,77.833L150.795,77.833L150.994,77.833L151.393,77.833L151.797,77.833L151.99,77.833L152.993,77.833L153.186,77.833L154.381,77.833L154.58,77.833L154.979,77.833L156.971,77.833L157.369,77.833L176.493,77.833L176.692,77.833L176.899,77.833L177.091,77.833L177.29,77.833L177.689,77.833L177.888,77.833L178.091,77.833L178.286,77.833L178.485,77.833L178.884,77.833L179.083,77.833L179.284,77.833L179.481,77.833L179.681,77.833L180.079,77.833L180.278,77.833L180.48,77.833L180.677,77.833L180.876,77.833L181.275,77.833L181.474,77.833L181.676,77.833L181.872,77.833L182.071,77.833L182.47,77.833L182.669,77.833L182.872,77.833L183.067,77.833L183.267,77.833L183.665,77.833L183.864,77.833L184.067,77.833L184.262,77.833L184.462,77.833L184.86,77.833L185.059,77.833L185.263,77.833L185.458,77.833L185.657,77.833L186.055,77.833L186.254,77.833L186.458,77.833L186.653,77.833L186.852,77.833L187.251,77.833L187.45,77.833L187.651,77.833L187.848,77.833L188.047,77.833L188.446,77.833L188.645,77.833L188.847,77.833L189.043,77.833L189.243,77.833L189.641,77.833L189.84,77.833L190.044,77.833L190.239,77.833L190.438,77.833L190.837,77.833L191.036,77.833L191.238,77.833L191.435,77.833L191.633,77.833L192.032,77.833L192.231,77.833L192.434,77.833L192.629,77.833L192.829,77.833L193.227,77.833L193.426,77.833L193.629,77.833L193.825,77.833L194.024,77.833L194.422,77.833L194.622,77.833L194.824,77.833L195.02,77.833L195.219,77.833L195.618,77.833L195.817,77.833L196.018,77.833L196.215,77.833L196.414,77.833L196.813,77.833L197.012,77.833L197.213,77.833L197.41,77.833L197.609,77.833L198.008,77.833L198.207,77.833L198.411,77.833L198.606,77.833L198.805,77.833L199.203,77.833L199.403,77.833L199.605,77.833L199.801,77.833L200,77.833" stroke="#72b7b2" stroke-width="2"/></g></g><path class="foreground" aria-hidden="true" d="" display="none"/></g><g transform="translate(0,0)"><path class="background" aria-hidden="true" d="M0,0h200v200h-200Z"/><g><g class="mark-line role-mark child_marks" role="graphics-object" aria-roledescription="line mark container"><path aria-label="Time: Dec 18, 2023; Price: 5845; item: PONCHO_-_Peignoir_-_dark_blue" role="graphics-symbol" aria-roledescription="line mark" d="M131.479,135.056L133.066,135.056L136.054,125.056L137.249,125.056L137.847,125.056L139.042,125.056L152.993,130.056" stroke="#9d755d" stroke-width="2"/></g></g><path class="foreground" aria-hidden="true" d="" display="none"/></g></g><g class="mark-group role-legend" role="graphics-symbol" aria-roledescription="legend" aria-label="Symbol legend titled 'item' for stroke color with 12 values: KUURA_3L_PONCHO_UNISEX_-_Veste_imperméable_-_green, DESCHUTES_VALLEY™_RAIN_PONCHO_-_Parka_-_black, DESCHUTES_VALLEY™_RAIN_PONCHO_-_Parka_-_vista_blue, K_ESSENTIAL_RAIN_PONCHO_UNISEX_-_Cape_-_black, HIKING_BACKPACK_PONCHO_-_Veste_imperméable_-_blue, ending with COVERO_PONCHO_II_-_Cape_-_lightgrey"><g transform="translate(220,0)"><path class="background" aria-hidden="true" d="M0,0h328v170h-328Z" pointer-events="none"/><g><g class="mark-group role-legend-entry"><g transform="translate(0,16)"><path class="background" aria-hidden="true" d="M0,0h0v0h0Z" pointer-events="none"/><g><g class="mark-group role-scope" role="graphics-object" aria-roledescription="group mark container"><g transform="translate(0,0)"><path class="background" aria-hidden="true" d="M0,0h328v11h-328Z" pointer-events="none" opacity="1"/><g><g class="mark-symbol role-legend-symbol" pointer-events="none"><path transform="translate(6,6)" d="M-5,0L5,0" stroke="#4c78a8" stroke-width="1.5" opacity="1"/></g><g class="mark-text role-legend-label" pointer-events="none"><text text-anchor="start" transform="translate(16,9)" font-family="Liberation Mono" font-size="10px" fill="#000" opacity="1">KUURA_3L_PONCHO_UNISEX_-_Veste_impermé…</text></g></g><path class="foreground" aria-hidden="true" d="" pointer-events="none" display="none"/></g><g transform="translate(0,13)"><path class="background" aria-hidden="true" d="M0,0h328v11h-328Z" pointer-events="none" opacity="1"/><g><g class="mark-symbol role-legend-symbol" pointer-events="none"><path transform="translate(6,6)" d="M-5,0L5,0" stroke="#f58518" stroke-width="1.5" opacity="1"/></g><g class="mark-text role-legend-label" pointer-events="none"><text text-anchor="start" transform="translate(16,9)" font-family="Liberation Mono" font-size="10px" fill="#000" opacity="1">DESCHUTES_VALLEY™_RAIN_PONCHO_-_Parka_…</text></g></g><path class="foreground" aria-hidden="true" d="" pointer-events="none" display="none"/></g><g transform="translate(0,26)"><path class="background" aria-hidden="true" d="M0,0h328v11h-328Z" pointer-events="none" opacity="1"/><g><g class="mark-symbol role-legend-symbol" pointer-events="none"><path transform="translate(6,6)" d="M-5,0L5,0" stroke="#e45756" stroke-width="1.5" opacity="1"/></g><g class="mark-text role-legend-label" pointer-events="none"><text text-anchor="start" transform="translate(16,9)" font-family="Liberation Mono" font-size="10px" fill="#000" opacity="1">DESCHUTES_VALLEY™_RAIN_PONCHO_-_Parka_…</text></g></g><path class="foreground" aria-hidden="true" d="" pointer-events="none" display="none"/></g><g transform="translate(0,39)"><path class="background" aria-hidden="true" d="M0,0h328v11h-328Z" pointer-events="none" opacity="1"/><g><g class="mark-symbol role-legend-symbol" pointer-events="none"><path transform="translate(6,6)" d="M-5,0L5,0" stroke="#72b7b2" stroke-width="1.5" opacity="1"/></g><g class="mark-text role-legend-label" pointer-events="none"><text text-anchor="start" transform="translate(16,9)" font-family="Liberation Mono" font-size="10px" fill="#000" opacity="1">K_ESSENTIAL_RAIN_PONCHO_UNISEX_-_Cape_…</text></g></g><path class="foreground" aria-hidden="true" d="" pointer-events="none" display="none"/></g><g transform="translate(0,52)"><path class="background" aria-hidden="true" d="M0,0h328v11h-328Z" pointer-events="none" opacity="1"/><g><g class="mark-symbol role-legend-symbol" pointer-events="none"><path transform="translate(6,6)" d="M-5,0L5,0" stroke="#54a24b" stroke-width="1.5" opacity="1"/></g><g class="mark-text role-legend-label" pointer-events="none"><text text-anchor="start" transform="translate(16,9)" font-family="Liberation Mono" font-size="10px" fill="#000" opacity="1">HIKING_BACKPACK_PONCHO_-_Veste_impermé…</text></g></g><path class="foreground" aria-hidden="true" d="" pointer-events="none" display="none"/></g><g transform="translate(0,65)"><path class="background" aria-hidden="true" d="M0,0h328v11h-328Z" pointer-events="none" opacity="1"/><g><g class="mark-symbol role-legend-symbol" pointer-events="none"><path transform="translate(6,6)" d="M-5,0L5,0" stroke="#eeca3b" stroke-width="1.5" opacity="1"/></g><g class="mark-text role-legend-label" pointer-events="none"><text text-anchor="start" transform="translate(16,9)" font-family="Liberation Mono" font-size="10px" fill="#000" opacity="1">PONCHO_-_Cape_-_lucid_blue</text></g></g><path class="foreground" aria-hidden="true" d="" pointer-events="none" display="none"/></g><g transform="translate(0,78)"><path class="background" aria-hidden="true" d="M0,0h328v11h-328Z" pointer-events="none" opacity="1"/><g><g class="mark-symbol role-legend-symbol" pointer-events="none"><path transform="translate(6,6)" d="M-5,0L5,0" stroke="#b279a2" stroke-width="1.5" opacity="1"/></g><g class="mark-text role-legend-label" pointer-events="none"><text text-anchor="start" transform="translate(16,9)" font-family="Liberation Mono" font-size="10px" fill="#000" opacity="1">HIKING_BACKPACK_PONCHO_-_Veste_impermé…</text></g></g><path class="foreground" aria-hidden="true" d="" pointer-events="none" display="none"/></g><g transform="translate(0,91)"><path class="background" aria-hidden="true" d="M0,0h328v11h-328Z" pointer-events="none" opacity="1"/><g><g class="mark-symbol role-legend-symbol" pointer-events="none"><path transform="translate(6,6)" d="M-5,0L5,0" stroke="#ff9da6" stroke-width="1.5" opacity="1"/></g><g class="mark-text role-legend-label" pointer-events="none"><text text-anchor="start" transform="translate(16,9)" font-family="Liberation Mono" font-size="10px" fill="#000" opacity="1">PSG_M_NSW_CITY_MADE_PONCHO_-_Veste_de_…</text></g></g><path class="foreground" aria-hidden="true" d="" pointer-events="none" display="none"/></g><g transform="translate(0,104)"><path class="background" aria-hidden="true" d="M0,0h328v11h-328Z" pointer-events="none" opacity="1"/><g><g class="mark-symbol role-legend-symbol" pointer-events="none"><path transform="translate(6,6)" d="M-5,0L5,0" stroke="#9d755d" stroke-width="1.5" opacity="1"/></g><g class="mark-text role-legend-label" pointer-events="none"><text text-anchor="start" transform="translate(16,9)" font-family="Liberation Mono" font-size="10px" fill="#000" opacity="1">PONCHO_-_Peignoir_-_dark_blue</text></g></g><path class="foreground" aria-hidden="true" d="" pointer-events="none" display="none"/></g><g transform="translate(0,117)"><path class="background" aria-hidden="true" d="M0,0h328v11h-328Z" pointer-events="none" opacity="1"/><g><g class="mark-symbol role-legend-symbol" pointer-events="none"><path transform="translate(6,6)" d="M-5,0L5,0" stroke="#bab0ac" stroke-width="1.5" opacity="1"/></g><g class="mark-text role-legend-label" pointer-events="none"><text text-anchor="start" transform="translate(16,9)" font-family="Liberation Mono" font-size="10px" fill="#000" opacity="1">PARIS_ST._GERMAIN_CITY_MADE_PONCHO_-_V…</text></g></g><path class="foreground" aria-hidden="true" d="" pointer-events="none" display="none"/></g><g transform="translate(0,130)"><path class="background" aria-hidden="true" d="M0,0h328v11h-328Z" pointer-events="none" opacity="1"/><g><g class="mark-symbol role-legend-symbol" pointer-events="none"><path transform="translate(6,6)" d="M-5,0L5,0" stroke="#4c78a8" stroke-width="1.5" opacity="1"/></g><g class="mark-text role-legend-label" pointer-events="none"><text text-anchor="start" transform="translate(16,9)" font-family="Liberation Mono" font-size="10px" fill="#000" opacity="1">SHOWERPROOF_PONCHO_UNISEX_-_Cape_-_cla…</text></g></g><path class="foreground" aria-hidden="true" d="" pointer-events="none" display="none"/></g><g transform="translate(0,143)"><path class="background" aria-hidden="true" d="M0,0h328v11h-328Z" pointer-events="none" opacity="1"/><g><g class="mark-symbol role-legend-symbol" pointer-events="none"><path transform="translate(6,6)" d="M-5,0L5,0" stroke="#f58518" stroke-width="1.5" opacity="1"/></g><g class="mark-text role-legend-label" pointer-events="none"><text text-anchor="start" transform="translate(16,9)" font-family="Liberation Mono" font-size="10px" fill="#000" opacity="1">COVERO_PONCHO_II_-_Cape_-_lightgrey</text></g></g><path class="foreground" aria-hidden="true" d="" pointer-events="none" display="none"/></g></g></g><path class="foreground" aria-hidden="true" d="" pointer-events="none" display="none"/></g></g><g class="mark-text role-legend-title" pointer-events="none"><text text-anchor="start" transform="translate(0,9)" font-family="Liberation Mono" font-size="11px" font-weight="bold" fill="#000" opacity="1">item</text></g></g><path class="foreground" aria-hidden="true" d="" pointer-events="none" display="none"/></g></g></g><path class="foreground" aria-hidden="true" d="" display="none"/></g></g></g><path class="foreground" aria-hidden="true" d="" display="none"/></g></g></g></svg>