<svg xmlns="http://www.w3.org/2000/svg" xmlns:xlink="http://www.w3.org/1999/xlink" version="1.1" class="marks" width="658" height="244" viewBox="0 0 658 244"><rect width="658" height="244" fill="white"/><g fill="none" stroke-miterlimit="10" transform="translate(104,6)"><g class="mark-group role-frame root" role="graphics-object" aria-roledescription="group mark container"><g transform="translate(0,0)"><path class="background" aria-hidden="true" d="M0,0h0v0h0Z"/><g><g class="mark-group role-row-title row-title" role="graphics-object" aria-roledescription="group mark container"><g transform="translate(-78,116)"><path class="background" aria-hidden="true" d="M0,0h0v0h0Z"/><g><g class="mark-group role-title"><g transform="translate(-21.000000000000004,0)"><path class="background" aria-hidden="true" d="M0,0h0v0h0Z" pointer-events="none"/><g><g class="mark-text role-title-text" role="graphics-symbol" aria-roledescription="title" aria-label="Title text 'group'" pointer-events="none"><text text-anchor="middle" transform="translate(0,0) rotate(-90) translate(0,9)" font-family="Liberation Mono" font-size="11px" font-weight="bold" fill="#000" opacity="1">group</text></g></g><path class="foreground" aria-hidden="true" d="" pointer-events="none" display="none"/></g></g></g><path class="foreground" aria-hidden="true" d="" display="none"/></g></g><g class="mark-group role-row-header row_header" role="graphics-object" aria-roledescription="group mark container"><g transform="translate(-47,0)"><path class="background" aria-hidden="true" d="M0,0h0v200h0Z"/><g><g class="mark-group role-title"><g transform="translate(-20.000000000000007,100)"><path class="background" aria-hidden="true" d="M0,0h0v0h0Z" pointer-events="none"/><g><g class="mark-text role-title-text" role="graphics-symbol" aria-roledescription="title" aria-label="Title text 'zalando-poncho'" pointer-events="none"><text text-anchor="middle" transform="translate(0,0) rotate(-90) translate(0,8)" font-family="Liberation Mono" font-size="10px" fill="#000" opacity="1">zalando-poncho</text></g></g><path class="foreground" aria-hidden="true" d="" pointer-events="none" display="none"/></g></g></g><path class="foreground" aria-hidden="true" d="" display="none"/></g></g><g class="mark-group role-scope cell" role="graphics-object" aria-roledescription="group mark container"><g transform="translate(0,0)"><path class="background" aria-hidden="true" d="M0.5,0.5h200v200h-200Z" stroke="#ddd"/><g><g class="mark-group role-axis" aria-hidden="true"><g transform="translate(0.5,200.5)"><path class="background" aria-hidden="true" d="M0,0h0v0h0Z" pointer-events="none"/><g><g class="mark-rule role-axis-grid" pointer-events="none"><line transform="translate(3,-200)" x2="0" y2="200" stroke="#ddd" stroke-width="1" opacity="1"/><line transform="translate(69,-200)" x2="0" y2="200" stroke="#ddd" stroke-width="1" opacity="1"/><line transform="translate(138,-200)" x2="0" y2="200" stroke="#ddd" stroke-width="1" opacity="1"/></g></g><path class="foreground" aria-hidden="true" d="" pointer-events="none" display="none"/></g></g><g class="mark-group role-axis" aria-hidden="true"><g transform="translate(0.5,0.5)"><path class="background" aria-hidden="true" d="M0,0h0v0h0Z" pointer-events="none"/><g><g class="mark-rule role-axis-grid" pointer-events="none"><line transform="translate(0,200)" x2="200" y2="0" stroke="#ddd" stroke-width="1" opacity="1"/><line transform="translate(0,144)" x2="200" y2="0" stroke="#ddd" stroke-width="1" opacity="1"/><line transform="translate(0,89)" x2="200" y2="0" stroke="#ddd" stroke-width="1" opacity="1"/><line transform="translate(0,33)" x2="200" y2="0" stroke="#ddd" stroke-width="1" opacity="1"/></g></g><path class="foreground" aria-hidden="true" d="" pointer-events="none" display="none"/></g></g><g class="mark-group role-axis" role="graphics-symbol" aria-roledescription="axis" aria-label="X-axis titled 'Time' for a time scale with values from Wednesday, 30 August 2023, 12:58:24 PM to Wednesday, 29 November 2023, 4:50:27 AM"><g transform="translate(0.5,200.5)"><path class="background" aria-hidden="true" d="M0,0h0v0h0Z" pointer-events="none"/><g><g class="mark-rule role-axis-tick" pointer-events="none"><line transform="translate(3,0)" x2="0" y2="5" stroke="#888" stroke-width="1" opacity="1"/><line transform="translate(69,0)" x2="0" y2="5" stroke="#888" stroke-width="1" opacity="1"/><line transform="translate(138,0)" x2="0" y2="5" stroke="#888" stroke-width="1" opacity="1"/></g><g class="mark-text role-axis-label" pointer-events="none"><text text-anchor="middle" transform="translate(3.2195579173943285,15)" font-family="Liberation Mono" font-size="10px" fill="#000" opacity="1">September</text><text text-anchor="middle" transform="translate(69.40005616714886,15)" font-family="Liberation Mono" font-size="10px" fill="#000" opacity="1">October</text><text text-anchor="middle" transform="translate(137.78657102522854,15)" font-family="Liberation Mono" font-size="10px" fill="#000" opacity="1">November</text></g><g class="mark-rule role-axis-domain" pointer-events="none"><line transform="translate(0,0)" x2="200" y2="0" stroke="#888" stroke-width="1" opacity="1"/></g><g class="mark-text role-axis-title" pointer-events="none"><text text-anchor="middle" transform="translate(100,30)" font-family="Liberation Mono" font-size="11px" font-weight="bold" fill="#000" opacity="1">Time</text></g></g><path class="foreground" aria-hidden="true" d="" pointer-events="none" display="none"/></g></g><g class="mark-group role-axis" role="graphics-symbol" aria-roledescription="axis" aria-label="Y-axis titled 'Price' for a linear scale with values from 0 to 18,000"><g transform="translate(0.5,0.5)"><path class="background" aria-hidden="true" d="M0,0h0v0h0Z" pointer-events="none"/><g><g class="mark-rule role-axis-tick" pointer-events="none"><line transform="translate(0,200)" x2="-5" y2="0" stroke="#888" stroke-width="1" opacity="1"/><line transform="translate(0,144)" x2="-5" y2="0" stroke="#888" stroke-width="1" opacity="1"/><line transform="translate(0,89)" x2="-5" y2="0" stroke="#888" stroke-width="1" opacity="1"/><line transform="translate(0,33)" x2="-5" y2="0" stroke="#888" stroke-width="1" opacity="1"/></g><g class="mark-text role-axis-label" pointer-events="none"><text text-anchor="end" transform="translate(-7,203)" font-family="Liberation Mono" font-size="10px" fill="#000" opacity="1">0</text><text text-anchor="end" transform="translate(-7,147.44444444444443)" font-family="Liberation Mono" font-size="10px" fill="#000" opacity="1">50</text><text text-anchor="end" transform="translate(-7,91.88888888888889)" font-family="Liberation Mono" font-size="10px" fill="#000" opacity="1">100</text><text text-anchor="end" transform="translate(-7,36.33333333333333)" font-family="Liberation Mono" font-size="10px" fill="#000" opacity="1">150</text></g><g class="mark-rule role-axis-domain" pointer-events="none"><line transform="translate(0,200)" x2="0" y2="-200" stroke="#888" stroke-width="1" opacity="1"/></g><g class="mark-text role-axis-title" pointer-events="none"><text text-anchor="middle" transform="translate(-35,100) rotate(-90) translate(0,-2)" font-family="Liberation Mono" font-size="11px" font-weight="bold" fill="#000" opacity="1">Price</text></g></g><path class="foreground" aria-hidden="true" d="" pointer-events="none" display="none"/></g></g><g class="mark-group role-scope child_pathgroup" role="graphics-object" aria-roledescription="group mark container"><g transform="translate(0,0)"><path class="background" aria-hidden="true" d="M0,0h200v200h-200Z"/><g><g class="mark-line role-mark child_marks" role="graphics-object" aria-roledescription="line mark container"><path aria-label="Time: Aug 30, 2023; Price: 10795; item: DESCHUTES_VALLEY™_RAIN_PONCHO_-_Parka_-_black" role="graphics-symbol" aria-roledescription="line mark" d="M0,80.056L0.358,80.056L0.724,80.056L1.459,80.056L1.827,80.056L2.207,80.056L2.562,80.056L2.929,80.056L3.666,80.056L4.033,80.056L4.412,80.056L4.768,80.056L5.136,80.056L5.871,80.056L6.239,80.056L6.613,80.056L6.973,80.056L7.342,80.056L8.077,80.056L8.709,80.056L8.82,80.056L9.18,80.056L9.548,80.056L10.283,80.056L10.652,80.056L11.031,80.056L11.386,80.056L11.753,80.056L12.491,50.056L12.859,50.056L13.237,50.056L13.593,50.056L13.959,50.056L14.695,50.056L15.063,50.056L15.444,50.056L15.798,50.056L16.166,50.056L16.902,50.056L17.269,50.056L17.648,50.056L18.004,50.056L18.372,50.056L19.339,50.056L19.474,50.056L19.853,50.056L20.21,50.056L20.578,50.056L21.312,50.056L21.681,50.056L22.055,50.056L22.416,50.056L22.784,50.056L23.519,50.056L23.886,50.056L24.261,50.056L24.621,50.056L24.989,50.056L25.724,50.056L26.092,50.056L26.474,50.056L26.828,50.056L27.195,50.056L27.931,50.056L28.298,50.056L28.679,50.056L29.034,50.056L29.402,50.056L30.137,20.056L30.505,20.056L30.886,20.056L31.08,20.056L31.24,20.056L31.608,20.056L32.343,20.056L32.71,20.056L33.092,20.056L33.446,20.056L33.814,20.056L34.549,20.056L34.916,20.056L35.296,20.056L35.652,20.056L36.019,20.056L36.755,20.056L37.123,20.056L37.497,20.056L37.858,20.056L38.225,20.056L38.961,20.056L39.328,20.056L39.703,20.056L40.064,20.056L40.432,20.056L41.167,20.056L41.534,20.056L41.916,20.056L42.27,20.056L42.638,20.056L43.372,20.056L43.74,20.056L44.122,20.056L44.476,20.056L44.844,20.056L45.578,20.056L45.947,20.056L46.328,20.056L46.682,20.056L47.049,20.056L47.785,20.056L48.152,20.056L48.534,20.056L48.888,20.056L49.256,20.056L49.991,20.056L50.359,20.056L50.739,20.056L51.094,20.056L51.461,20.056L52.197,20.056L52.565,20.056L52.939,20.056L53.3,20.056L53.668,20.056L54.403,20.056L54.771,20.056L55.146,20.056L55.506,20.056L55.873,20.056L56.609,20.056L56.977,20.056L57.359,20.056L57.712,20.056L58.079,20.056L58.815,20.056L59.183,20.056L59.565,20.056L59.918,20.056L60.286,20.056L61.021,40.056L61.388,40.056L61.77,40.056L62.124,40.056L62.492,40.056L63.227,40.056L63.594,40.056L63.976,40.056L64.33,40.056L65.433,40.056L65.801,40.056L66.18,40.056L66.536,40.056L66.904,40.056L67.639,40.056L68.006,40.056L68.382,40.056L68.742,40.056L69.109,40.056L69.845,40.056L70.213,40.056L70.589,40.056L70.948,40.056L71.316,40.056L72.051,100.056L72.419,100.056L72.8,100.056L73.154,100.056L73.522,100.056L74.257,90.056L74.626,90.056L75.007,90.056L75.36,90.056L75.728,90.056L76.463,90.056L76.831,90.056L77.214,90.056L77.566,90.056L77.934,90.056L78.669,90.056L79.036,90.056L79.421,90.056L79.772,90.056L80.14,90.056L80.875,90.056L81.243,90.056L81.625,90.056L81.978,90.056L82.346,90.056L83.081,90.056L83.449,90.056L83.825,90.056L84.184,90.056L84.552,90.056L85.288,90.056L85.654,90.056L86.391,90.056L86.758,90.056L87.493,90.056L87.861,90.056L88.245,90.056L88.596,90.056L88.964,90.056L89.7,100.056L90.067,100.056L90.45,100.056L90.802,100.056L91.17,100.056L91.905,100.056L92.274,100.056L92.655,100.056L93.008,100.056L93.376,100.056L94.111,100.056L94.479,100.056L94.861,100.056L95.215,100.056L95.582,100.056L96.318,100.056L96.685,100.056L97.067,100.056L97.42,100.056L97.788,100.056L98.523,100.056L98.891,100.056L99.267,100.056L99.626,100.056L99.994,100.056L100.729,100.056L101.097,100.056L101.473,100.056L101.832,100.056L102.2,100.056L102.936,90.056L103.303,90.056L103.685,90.056L104.038,90.056L104.406,90.056L105.141,90.056L105.509,90.056L105.891,90.056L106.245,90.056L106.612,90.056L107.348,90.056L107.715,90.056L108.097,90.056L108.45,90.056L108.818,90.056L109.554,90.056L109.921,90.056L110.303,90.056L110.657,90.056L111.024,90.056L111.76,90.056L112.128,90.056L112.508,90.056L112.862,90.056L113.23,90.056L113.965,90.056L114.333,90.056L114.709,90.056L115.068,90.056L115.436,90.056L116.171,90.056L116.539,90.056L116.915,90.056L117.274,90.056L117.642,90.056L118.377,90.056L118.745,90.056L119.126,90.056L119.481,90.056L119.848,90.056L120.583,50.056L120.951,50.056L121.331,50.056L121.686,50.056L122.054,50.056L122.79,50.056L123.157,50.056L123.537,50.056L123.892,50.056L124.26,50.056L124.995,50.056L125.363,50.056L125.742,50.056L126.098,50.056L126.466,50.056L127.201,50.056L127.57,50.056L127.948,50.056L128.305,50.056L128.672,50.056L129.407,50.056L129.775,50.056L130.15,50.056L130.51,50.056L130.878,50.056L131.614,50.056L131.981,50.056L132.357,50.056L132.716,50.056L133.084,50.056L133.82,50.056L134.187,50.056L134.567,50.056L134.923,50.056L135.29,50.056L136.026,50.056L136.393,50.056L136.773,50.056L137.129,50.056L137.496,50.056L138.231,50.056L138.599,50.056L138.978,50.056L139.334,50.056L139.702,50.056L140.438,40.056L140.805,40.056L141.185,40.056L141.541,40.056L143.747,40.056L144.115,40.056L144.849,40.056L145.593,40.056L145.952,40.056L154.776,40.056L155.144,40.056L155.879,40.056L156.247,40.056L156.626,40.056L156.983,40.056L157.35,40.056L158.086,70.056L158.454,70.056L158.833,70.056L159.189,70.056L159.556,70.056L160.292,70.056L160.66,70.056L161.035,70.056L161.762,70.056L162.497,70.056L162.865,70.056L163.241,70.056L163.6,70.056L163.968,70.056L164.703,40.056L165.071,40.056L165.452,40.056L165.807,40.056L166.909,40.056L167.277,40.056L167.658,40.056L168.013,40.056L168.38,40.056L169.116,40.056L169.483,40.056L169.865,40.056L170.219,40.056L170.586,40.056L171.322,50.056L171.689,50.056L172.071,50.056L172.424,50.056L172.792,50.056L173.527,50.056L173.895,50.056L174.277,50.056L174.63,50.056L174.998,50.056L175.734,40.056L176.101,40.056L176.478,40.056L176.836,40.056L177.205,40.056L177.94,40.056L178.307,40.056L178.685,40.056L179.043,40.056L179.41,40.056L180.146,40.056L180.513,40.056L180.897,40.056L181.248,40.056L181.616,40.056L182.352,40.056L182.719,40.056L183.102,60.056L183.455,60.056L183.822,60.056L184.558,60.056L184.926,60.056L185.308,60.056L185.661,60.056L186.028,60.056L186.763,60.056L187.131,60.056L187.513,80.056L187.867,80.056L188.235,80.056L188.97,80.056L189.337,80.056L189.717,80.056L190.073,80.056L190.44,80.056L191.176,70.056L191.544,70.056L191.92,70.056L192.279,70.056L192.646,70.056L193.382,70.056L193.75,70.056L194.127,70.056L194.484,70.056L194.852,70.056L195.588,40.056L195.955,40.056L196.338,40.056L196.691,40.056L197.059,40.056L197.794,40.056L198.162,40.056L198.541,40.056L198.897,40.056L199.265,40.056L200,40.056" stroke="#e45756" stroke-width="2"/></g></g><path class="foreground" aria-hidden="true" d="" display="none"/></g><g transform="translate(0,0)"><path class="background" aria-hidden="true" d="M0,0h200v200h-200Z"/><g><g class="mark-line role-mark child_marks" role="graphics-object" aria-roledescription="line mark container"><path aria-label="Time: Aug 30, 2023; Price: 8995; item: HIKING_BACKPACK_PONCHO_-_Veste_imperméable_-_blue" role="graphics-symbol" aria-roledescription="line mark" d="M0,100.056L0.358,100.056L0.724,100.056L1.459,100.056L1.827,100.056L2.207,100.056L2.562,100.056L2.929,100.056L3.666,100.056L4.033,100.056L4.412,100.056L4.768,100.056L5.136,100.056L5.871,100.056L6.239,100.056L6.613,100.056L6.973,100.056L7.342,100.056L8.077,100.056L8.709,100.056L8.82,100.056L26.092,100.056L26.474,100.056L26.828,100.056L27.195,100.056L27.931,100.056L28.298,100.056L28.679,100.056L29.034,100.056L29.402,100.056L30.137,100.056L30.505,100.056L30.886,100.056L31.08,100.056L31.24,100.056L31.608,100.056L32.343,100.056L32.71,100.056L33.092,100.056L33.446,100.056L33.814,100.056L34.549,100.056L34.916,100.056L35.296,100.056L35.652,100.056L36.019,100.056L36.755,100.056L37.123,100.056L37.497,100.056L37.858,100.056L38.225,100.056L38.961,100.056L39.328,100.056L64.33,111.167L65.433,111.167L65.801,111.167L66.18,111.167L66.536,111.167L66.904,111.167L67.639,111.167L68.007,111.167L68.382,111.167L68.742,111.167L69.109,111.167L69.845,111.167L70.213,111.167L70.589,111.167L70.948,111.167L71.316,111.167L72.051,111.167L72.419,111.167L72.8,111.167L73.154,111.167L73.522,111.167L74.257,127.833L74.626,127.833L75.007,127.833L75.36,127.833L75.728,127.833L76.463,127.833L76.831,127.833L77.214,127.833L77.566,127.833L77.934,127.833L78.669,127.833L79.036,127.833L79.421,127.833L79.772,127.833L80.14,127.833L80.875,127.833L81.243,127.833L81.625,127.833L81.978,127.833L82.346,127.833L83.081,127.833L83.449,127.833L83.825,127.833L84.184,127.833L84.552,127.833L85.288,127.833L85.654,127.833L86.391,127.833L86.758,127.833L87.493,127.833" stroke="#54a24b" stroke-width="2"/></g></g><path class="foreground" aria-hidden="true" d="" display="none"/></g><g transform="translate(0,0)"><path class="background" aria-hidden="true" d="M0,0h200v200h-200Z"/><g><g class="mark-line role-mark child_marks" role="graphics-object" aria-roledescription="line mark container"><path aria-label="Time: Aug 30, 2023; Price: 16195; item: DESCHUTES_VALLEY™_RAIN_PONCHO_-_Parka_-_vista_blue" role="graphics-symbol" aria-roledescription="line mark" d="M0,20.056L0.358,20.056L0.724,20.056L1.459,20.056L1.827,20.056L2.207,20.056L2.562,20.056L2.929,20.056L3.666,20.056L4.033,20.056L4.412,20.056L4.768,20.056L5.136,20.056L5.871,20.056L6.239,20.056L6.613,20.056L6.973,20.056L7.342,20.056L8.077,20.056L8.709,20.056L8.82,20.056L9.18,20.056L9.548,20.056L10.283,20.056L10.652,20.056L11.031,20.056L11.386,20.056L11.753,20.056L12.491,80.056L12.859,80.056L13.237,80.056L13.593,80.056L13.959,80.056L14.695,80.056L15.063,80.056L15.444,80.056L15.798,80.056L16.166,80.056L16.902,80.056L17.269,80.056L17.648,80.056L18.004,80.056L18.372,80.056L19.339,80.056L19.474,80.056L19.853,80.056L20.21,80.056L20.578,80.056L21.312,80.056L21.681,80.056L22.055,80.056L22.416,80.056L22.784,80.056L23.519,80.056L23.886,80.056L24.261,80.056L24.621,80.056L24.989,80.056L25.724,80.056L26.092,80.056L26.474,80.056L26.828,80.056L27.195,80.056L27.931,80.056L28.298,80.056L28.679,80.056L29.034,80.056L29.402,80.056L30.137,20.056L30.505,20.056L30.886,20.056L31.08,20.056L31.24,20.056L31.608,20.056L32.343,20.056L32.71,20.056L33.092,20.056L33.446,20.056L33.814,20.056L34.549,20.056L34.916,20.056L35.296,20.056L35.652,20.056L36.019,20.056L36.755,20.056L37.123,20.056L37.497,20.056L37.858,20.056L38.225,20.056L38.961,20.056L39.328,20.056L39.703,20.056L40.064,20.056L40.432,20.056L41.167,20.056L41.534,20.056L41.916,20.056L42.27,20.056L42.638,20.056L43.372,20.056L43.74,20.056L44.122,20.056L44.476,20.056L44.844,20.056L45.578,20.056L45.947,20.056L46.328,20.056L46.682,20.056L47.049,20.056L47.785,20.056L48.152,20.056L48.534,20.056L48.888,20.056L49.256,20.056L49.991,20.056L50.359,20.056L50.739,20.056L51.094,20.056L51.461,20.056L52.197,20.056L52.565,20.056L52.939,20.056L53.3,20.056L53.668,20.056L54.403,20.056L54.771,20.056L55.146,20.056L55.506,20.056L55.873,20.056L56.609,20.056L56.977,20.056L57.359,20.056L57.712,20.056L58.079,20.056L58.815,20.056L59.183,20.056L59.565,20.056L59.918,20.056L60.286,20.056L61.021,40.056L61.388,40.056L61.77,40.056L62.124,40.056L62.492,40.056L63.227,40.056L63.594,40.056L63.976,40.056L64.33,40.056L65.433,40.056L65.801,40.056L66.18,40.056L66.536,40.056L66.904,40.056L67.639,40.056L68.006,40.056L68.382,40.056L68.742,40.056L69.109,40.056L69.845,40.056L70.213,40.056L70.589,40.056L70.948,40.056L71.316,40.056L72.051,90.056L72.419,90.056L72.8,90.056L73.154,90.056L73.522,90.056L74.257,40.056L74.626,40.056L75.007,40.056L75.36,40.056L75.728,40.056L76.463,40.056L76.831,40.056L77.214,40.056L77.566,40.056L77.934,40.056L78.669,40.056L79.036,40.056L79.421,40.056L79.772,40.056L80.14,40.056L80.875,40.056L81.243,40.056L81.625,40.056L81.978,40.056L82.346,40.056L83.081,40.056L83.449,40.056L83.825,40.056L84.184,40.056L84.552,40.056L85.288,40.056L85.654,40.056L86.391,40.056L86.758,40.056L87.493,40.056L87.861,40.056L88.245,40.056L88.596,40.056L88.964,40.056L89.7,90.056L90.067,90.056L90.45,90.056L90.802,90.056L91.17,90.056L91.905,90.056L92.274,90.056L92.655,90.056L93.008,90.056L93.376,90.056L94.111,90.056L94.479,90.056L94.861,90.056L95.215,90.056L95.582,90.056L96.318,90.056L96.685,90.056L97.067,90.056L97.42,90.056L97.788,90.056L98.523,40.056L98.891,40.056L99.267,40.056L99.626,40.056L99.994,40.056L100.729,40.056L101.097,40.056L101.473,40.056L101.832,40.056L102.2,40.056L102.936,100.056L103.303,100.056L103.685,100.056L104.038,100.056L104.406,100.056L105.141,100.056L105.509,100.056L105.891,100.056L106.245,100.056L106.612,100.056L107.348,100.056L107.715,100.056L108.097,100.056L108.45,100.056L108.818,100.056L109.554,100.056L109.921,100.056L110.303,100.056L110.657,100.056L111.024,100.056L111.76,100.056L112.128,100.056L112.508,100.056L112.862,100.056L113.23,100.056L113.965,100.056L114.333,100.056L114.709,100.056L115.068,100.056L115.436,100.056L116.171,100.056L116.539,100.056L116.915,100.056L117.274,100.056L117.642,100.056L118.377,100.056L118.745,100.056L119.126,100.056L119.481,100.056L119.848,100.056L120.583,40.056L120.951,40.056L121.331,40.056L121.686,40.056L122.054,40.056L122.79,40.056L123.157,40.056L123.537,40.056L123.892,40.056L124.26,40.056L124.995,40.056L125.363,40.056L125.742,40.056L126.098,40.056L126.466,40.056L127.201,40.056L127.57,40.056L127.948,40.056L128.305,40.056L128.672,40.056L129.407,40.056L129.775,40.056L130.15,40.056L130.51,40.056L130.878,40.056L131.614,40.056L131.981,40.056L132.357,40.056L132.716,40.056L133.084,40.056L133.82,40.056L134.187,40.056L134.567,40.056L134.923,40.056L135.29,40.056L136.026,40.056L136.393,40.056L136.773,40.056L137.129,40.056L137.496,40.056L138.231,40.056L138.599,40.056L138.978,40.056L139.334,40.056L139.702,40.056L140.438,40.056L140.805,40.056L141.185,40.056L141.541,40.056L141.908,40.056L142.643,40.056L143.011,40.056L143.392,40.056L143.747,40.056L144.115,40.056L144.849,40.056L145.218,40.056L145.593,40.056L145.952,40.056L146.321,40.056L147.056,40.056L147.423,40.056L147.799,40.056L148.159,40.056L148.526,40.056L149.261,40.056L149.629,40.056L150.012,40.056L150.365,40.056L150.732,40.056L151.468,40.056L151.836,40.056L152.215,40.056L152.571,40.056L152.938,40.056L153.673,40.056L154.041,40.056L154.421,40.056L154.776,40.056L155.144,40.056L155.879,40.056L156.247,40.056L156.626,40.056L156.983,40.056L157.35,40.056L158.086,40.056L158.454,40.056L158.833,40.056L159.189,40.056L159.556,40.056L160.292,40.056L160.66,40.056L161.035,40.056L161.762,40.056L162.497,40.056L162.865,40.056L163.241,40.056L163.6,40.056L163.968,40.056L164.703,40.056L165.071,40.056L165.452,40.056L165.807,40.056L166.909,40.056L167.277,40.056L167.658,40.056L168.013,40.056L168.38,40.056L169.116,40.056L169.483,40.056L169.865,40.056L170.219,40.056L170.586,40.056L171.322,120.056L171.689,120.056L172.071,120.056L172.424,120.056L172.792,120.056L173.527,120.056L173.895,120.056L174.277,120.056L174.63,120.056L174.998,120.056L175.734,40.056L176.101,40.056L176.478,40.056L176.836,40.056L177.205,40.056L177.94,40.056L178.307,40.056L178.685,40.056L179.043,40.056L179.41,40.056L180.146,50.056L180.513,50.056L180.897,70.056L181.248,70.056L181.616,70.056L182.352,70.056L182.719,70.056L183.102,70.056L183.455,70.056L183.822,70.056L184.558,70.056L184.926,70.056L185.308,70.056L185.661,70.056L186.028,70.056L186.763,120.056L187.131,120.056L187.513,120.056L187.867,120.056L188.235,120.056L188.97,120.056L189.337,120.056L189.717,120.056L190.073,120.056L190.44,120.056L191.176,120.056L191.544,120.056L191.92,120.056L192.279,120.056L192.646,120.056L193.382,120.056L193.75,120.056L194.127,120.056L194.484,120.056L194.852,120.056L195.588,40.056L195.955,40.056L196.338,40.056L196.691,40.056L197.059,40.056L197.794,40.056L198.162,40.056L198.541,40.056L198.897,40.056L199.265,40.056L200,40.056" stroke="#f58518" stroke-width="2"/></g></g><path class="foreground" aria-hidden="true" d="" display="none"/></g><g transform="translate(0,0)"><path class="background" aria-hidden="true" d="M0,0h200v200h-200Z"/><g><g class="mark-line role-mark child_marks" role="graphics-object" aria-roledescription="line mark container"><path aria-label="Time: Aug 30, 2023; Price: 5495; item: COVERO_PONCHO_II_-_Cape_-_lightgrey" role="graphics-symbol" aria-roledescription="line mark" d="M0,138.944L0.358,138.944L0.724,138.944L1.459,138.944L1.827,138.944L2.207,138.944L2.562,138.944L2.929,138.944L3.666,138.944L4.033,138.944L6.239,138.944L6.613,138.944L6.973,138.944L7.342,138.944L8.077,138.944L8.709,138.944L8.821,138.944L9.18,138.944L9.548,138.944L10.283,138.944L10.652,138.944L11.031,138.944L11.386,138.944L11.753,138.944L12.491,138.944L12.859,138.944L13.237,138.944L13.593,138.944L13.959,138.944L20.21,153.944L23.886,138.944L24.261,138.944L24.622,138.944L24.989,138.944L25.724,138.944L26.092,138.944L26.474,138.944L26.828,138.944L27.195,138.944L27.931,138.944L28.298,138.944L28.679,138.944L29.034,138.944L29.402,138.944L30.137,138.944L30.505,138.944L30.886,138.944L31.08,138.944L31.24,138.944L31.608,138.944L32.343,138.944L32.71,138.944L33.092,138.944L33.446,138.944L33.814,138.944L34.549,138.944L34.916,138.944L35.296,138.944L35.652,138.944L36.019,138.944L36.755,138.944L37.123,138.944L37.497,138.944L37.858,138.944L38.225,138.944L38.961,138.944L39.328,138.944L39.703,138.944L40.064,138.944L40.432,138.944L41.167,138.944L41.534,138.944L41.916,138.944L42.27,138.944L42.638,138.944L43.372,138.944L43.74,138.944L44.122,138.944L44.476,138.944L44.844,138.944L45.578,151.167L45.947,151.167L46.328,151.167L46.682,151.167L47.049,151.167L47.785,151.167L48.152,151.167L48.534,151.167L48.888,151.167L49.256,151.167L49.991,151.167L50.359,151.167L50.739,151.167L52.565,151.167L52.939,151.167L53.3,151.167L53.668,151.167L54.403,151.167L54.771,151.167L55.146,151.167L55.506,151.167L55.873,151.167L56.609,151.167L56.977,151.167L57.359,151.167L57.712,151.167L58.079,151.167L58.815,151.167L59.183,151.167L59.565,151.167L59.918,151.167L60.286,151.167L61.021,151.167L61.388,151.167L61.77,151.167L62.124,151.167L62.492,151.167L63.227,151.167L63.594,151.167L63.976,151.167L64.33,151.167L65.433,151.167L65.801,151.167L66.18,151.167L66.536,151.167L66.904,151.167L67.639,151.167L68.007,151.167L68.382,151.167L68.742,151.167L69.109,151.167L69.845,151.167L70.213,151.167L70.589,151.167L70.948,151.167L71.316,151.167L72.051,151.167L72.419,151.167L72.8,151.167L73.154,151.167L73.522,151.167L74.257,151.167L74.626,151.167L75.007,151.167L75.36,151.167L75.728,151.167L76.463,151.167L76.831,151.167L77.214,151.167L77.566,151.167L77.934,151.167L78.669,151.167L79.036,151.167L79.421,151.167L79.772,151.167L80.14,151.167L80.875,151.167L81.243,151.167L81.625,151.167L81.978,151.167L82.346,151.167L83.449,151.167L83.825,151.167L85.288,151.167L85.654,151.167L86.391,151.167L86.758,151.167L88.596,151.167L88.964,151.167L89.7,151.167L90.067,151.167L90.45,151.167L91.17,151.167L91.905,138.944L92.274,138.944L92.655,138.944L93.008,138.944L93.376,138.944L97.421,138.944L99.626,153.944L104.406,153.944L105.141,153.944L106.245,153.944L107.348,153.944L108.45,153.944L108.818,153.944L109.921,153.944L112.862,153.944L113.23,153.944L113.965,153.944L116.915,153.944L117.274,153.944L117.642,153.944L118.377,153.944L119.481,153.944L119.848,153.944L120.583,153.944L120.951,153.944L121.331,153.944L122.054,153.944L123.157,153.944L123.537,153.944L123.892,153.944L124.995,153.944L125.363,153.944L126.098,153.944L128.305,153.944L128.672,153.944L129.407,153.944L130.15,153.944L130.51,153.944L130.878,153.944L131.981,153.944L132.357,153.944L132.716,153.944L133.82,153.944L134.187,153.944L134.567,153.944L134.923,153.944L135.29,153.944L136.026,153.944L136.393,153.944L136.773,153.944L137.129,153.944L137.496,153.944L138.231,153.944L140.805,153.944L141.185,153.944L141.541,153.944L141.908,153.944L143.011,153.944L143.393,153.944L143.747,153.944L144.115,153.944L144.849,145.611L145.218,145.611L152.938,145.611L153.673,145.611L154.041,145.611L154.421,145.611L154.776,145.611L155.144,145.611L156.247,145.611L156.626,145.611L156.983,145.611L157.35,145.611L158.086,145.611L158.833,145.611L159.556,145.611L160.66,145.611L161.035,145.611L161.762,145.611L162.497,145.611L162.865,145.611L163.241,145.611L163.6,145.611L163.968,145.611L164.703,138.944L165.452,138.944L166.909,138.944L167.277,138.944L167.658,138.944L168.013,138.944L168.38,138.944L169.116,138.944L169.483,138.944L169.865,138.944L170.219,138.944L170.586,138.944L171.689,153.944L172.071,153.944L172.424,153.944L172.792,153.944L173.527,153.944L174.63,153.944L174.998,153.944L175.734,153.944L176.101,153.944L176.478,153.944L176.836,160.056L180.513,138.944L180.897,138.944L181.248,138.944L181.616,138.944L182.352,138.944L182.719,138.944L183.102,138.944L183.455,138.944L183.822,138.944L184.558,138.944L184.926,138.944L185.308,138.944L185.661,138.944L186.028,138.944L187.132,163.389" stroke="#bab0ac" stroke-width="2"/></g></g><path class="foreground" aria-hidden="true" d="" display="none"/></g><g transform="translate(0,0)"><path class="background" aria-hidden="true" d="M0,0h200v200h-200Z"/><g><g class="mark-line role-mark child_marks" role="graphics-object" aria-roledescription="line mark container"><path aria-label="Time: Sep 01, 2023; Price: 12995; item: KUURA_3L_PONCHO_UNISEX_-_Veste_imperméable_-_green" role="graphics-symbol" aria-roledescription="line mark" d="M5.136,55.611L5.871,55.611L6.239,55.611L6.613,55.611L10.652,55.611L11.031,55.611L11.386,55.611L11.753,55.611L12.491,11.167L12.859,11.167L13.237,11.167L13.593,11.167L13.959,11.167L14.695,11.167L15.063,11.167L15.444,11.167L15.798,11.167L16.166,11.167L16.902,11.167L17.269,11.167L17.648,11.167L18.004,11.167L18.372,11.167L19.339,11.167L19.474,11.167L19.853,11.167L20.21,11.167L20.578,11.167L21.312,11.167L21.681,11.167L22.055,11.167L22.416,11.167L22.784,11.167L23.519,11.167L23.886,11.167L24.261,11.167L24.622,11.167L24.989,11.167L25.724,11.167L26.092,11.167L26.474,11.167L26.828,11.167L27.931,11.167L28.298,11.167L28.679,11.167L29.034,11.167L29.402,11.167L37.497,22.278L37.858,22.278L38.225,22.278L38.961,22.278L39.328,22.278L39.703,22.278L40.064,22.278L40.432,22.278L41.167,22.278L41.534,22.278L41.916,22.278L43.74,22.278L44.122,22.278L44.476,22.278L44.844,22.278L45.578,22.278L45.947,22.278L75.36,22.278L75.728,22.278L76.463,22.278L76.831,22.278L77.214,22.278L77.566,22.278L77.934,22.278L78.669,22.278L79.036,22.278L79.421,22.278L79.772,22.278L80.14,22.278L80.875,22.278L81.243,22.278L81.625,22.278L81.978,22.278L82.346,22.278L83.081,22.278L83.449,22.278L83.825,22.278L84.184,22.278L84.552,22.278L118.377,22.278L118.745,22.278L119.126,22.278L119.481,22.278L119.848,22.278L120.583,22.278L120.951,22.278L121.331,22.278L121.686,22.278" stroke="#4c78a8" stroke-width="2"/></g></g><path class="foreground" aria-hidden="true" d="" display="none"/></g><g transform="translate(0,0)"><path class="background" aria-hidden="true" d="M0,0h200v200h-200Z"/><g><g class="mark-line role-mark child_marks" role="graphics-object" aria-roledescription="line mark container"><path aria-label="Time: Sep 14, 2023; Price: 6495; item: PARIS_ST._GERMAIN_CITY_MADE_PONCHO_-_Veste_de_survêtement_-_aura_white" role="graphics-symbol" aria-roledescription="line mark" d="M32.343,127.833L32.71,127.833L33.092,127.833L33.446,127.833L33.814,127.833L34.549,127.833L34.916,127.833L36.755,127.833L39.328,127.833L39.703,127.833L40.064,127.833L40.432,127.833L41.167,127.833L41.534,127.833L41.916,127.833L42.27,127.833L42.638,127.833L43.372,127.833L43.74,127.833L44.122,127.833L44.476,127.833L44.844,127.833L45.578,127.833L45.947,127.833L46.328,127.833L46.682,127.833L47.049,127.833L47.785,127.833L48.152,127.833L48.534,127.833L48.888,127.833L49.256,127.833L49.991,127.833L50.359,127.833L50.739,127.833L51.094,127.833L51.461,127.833L52.197,127.833L52.565,127.833L52.939,127.833L53.3,127.833L53.668,127.833L54.403,127.833L54.771,127.833L55.146,127.833L55.506,127.833L55.873,127.833L56.609,127.833L56.977,127.833L57.359,127.833L57.712,127.833L58.079,127.833L58.815,127.833L59.183,127.833L59.565,127.833" stroke="#b279a2" stroke-width="2"/></g></g><path class="foreground" aria-hidden="true" d="" display="none"/></g><g transform="translate(0,0)"><path class="background" aria-hidden="true" d="M0,0h200v200h-200Z"/><g><g class="mark-line role-mark child_marks" role="graphics-object" aria-roledescription="line mark container"><path aria-label="Time: Sep 18, 2023; Price: 8995; item: HIKING_BACKPACK_PONCHO_-_Veste_imperméable_-_indian_red" role="graphics-symbol" aria-roledescription="line mark" d="M41.167,100.056L41.534,100.056L41.916,100.056L42.27,100.056L42.638,100.056L43.372,100.056L43.74,100.056L57.712,100.056L58.079,100.056L58.815,100.056L59.183,100.056L59.565,100.056L59.918,100.056L60.286,100.056L61.021,111.167L61.388,111.167L61.77,111.167L62.124,111.167L97.067,111.167L97.42,111.167L97.788,111.167L98.523,111.167L98.891,111.167L99.267,111.167L99.626,111.167L99.994,111.167L100.729,111.167" stroke="#eeca3b" stroke-width="2"/></g></g><path class="foreground" aria-hidden="true" d="" display="none"/></g><g transform="translate(0,0)"><path class="background" aria-hidden="true" d="M0,0h200v200h-200Z"/><g><g class="mark-line role-mark child_marks" role="graphics-object" aria-roledescription="line mark container"><path aria-label="Time: Sep 26, 2023; Price: 6495; item: PSG_M_NSW_CITY_MADE_PONCHO_-_Veste_de_survêtement_-_aura_white" role="graphics-symbol" aria-roledescription="line mark" d="M59.918,127.833L60.286,127.833L61.021,91.167L61.388,91.167L61.77,91.167L62.124,91.167L62.492,91.167L63.227,91.167L63.594,91.167L63.976,91.167L64.33,91.167L65.433,91.167L65.801,91.167L66.18,91.167L66.536,91.167L66.904,91.167L67.639,91.167L68.007,91.167L68.382,91.167L68.742,91.167L69.109,91.167L69.845,91.167L70.213,91.167L70.589,91.167L70.948,91.167L71.316,91.167L72.051,127.833L72.419,127.833L72.8,127.833L73.154,127.833L73.522,127.833L74.257,127.833L74.626,127.833L75.007,127.833L75.36,127.833L75.728,127.833L76.463,127.833L76.831,127.833L77.214,127.833L77.566,127.833L77.934,127.833L78.669,127.833L79.036,127.833L79.421,127.833L79.772,127.833L80.141,127.833L80.875,127.833L81.243,127.833L81.625,127.833L81.978,127.833L82.346,127.833L83.081,127.833L83.449,127.833L83.825,127.833L84.184,127.833L84.553,127.833L85.288,127.833L85.654,127.833L86.391,127.833L86.758,127.833L87.493,127.833L87.861,127.833L88.245,127.833L88.596,127.833L88.964,127.833L89.7,84.5L90.067,84.5L90.45,84.5L91.17,84.5L91.905,84.5L92.274,84.5L92.655,84.5L93.008,84.5L93.376,84.5L94.111,84.5L94.479,84.5L96.318,84.5L97.421,84.5L99.626,127.833L100.729,127.833L103.303,127.833L103.685,127.833L117.642,127.833L118.377,127.833L118.745,127.833L119.126,127.833L120.951,127.833L121.331,127.833L123.892,127.833L124.26,127.833L125.742,127.833L126.466,127.833L127.201,127.833L127.948,127.833L129.775,127.833L130.878,127.833L131.614,127.833L131.981,127.833L132.357,127.833L133.084,127.833L134.187,127.833L135.29,127.833L136.026,127.833L136.393,127.833L136.773,127.833L137.129,127.833L137.496,127.833L138.231,127.833L138.599,127.833L138.978,127.833L139.334,127.833L139.702,127.833L140.438,127.833L140.805,127.833L141.185,127.833L141.541,127.833L141.908,127.833L142.643,127.833L143.011,127.833L143.393,127.833L143.747,127.833L144.115,127.833L144.849,127.833L145.218,127.833L145.593,127.833L145.952,127.833L146.321,127.833L147.056,127.833L147.423,127.833L147.799,127.833L148.159,127.833L148.526,127.833L149.261,127.833L149.629,127.833L150.012,127.833L150.365,127.833L150.732,127.833L151.468,127.833L151.836,127.833L152.215,127.833L152.571,127.833L152.938,127.833L153.673,127.833L154.421,127.833L154.776,127.833L155.144,127.833L156.626,127.833L156.983,127.833L158.086,84.5L158.833,84.5L159.556,84.5L161.762,84.5L163.968,84.5L165.452,127.833L166.909,127.833L167.277,127.833L167.658,127.833L168.38,127.833L169.116,127.833L169.483,127.833L169.865,127.833L170.219,127.833L171.689,156.722L176.101,127.833L176.478,127.833L177.94,127.833L181.616,105.611L182.352,105.611L185.308,105.611L185.661,105.611L187.132,148.944L192.646,148.944L193.382,148.944L197.059,120.056L197.794,127.833L199.265,127.833" stroke="#ff9da6" stroke-width="2"/></g></g><path class="foreground" aria-hidden="true" d="" display="none"/></g><g transform="translate(0,0)"><path class="background" aria-hidden="true" d="M0,0h200v200h-200Z"/><g><g class="mark-line role-mark child_marks" role="graphics-object" aria-roledescription="line mark container"><path aria-label="Time: Oct 12, 2023; Price: 4995; item: SHOWERPROOF_PONCHO_UNISEX_-_Cape_-_classic_tartan" role="graphics-symbol" aria-roledescription="line mark" d="M94.111,144.5L94.479,144.5L94.861,144.5L95.215,144.5L95.582,144.5L96.318,144.5L96.685,144.5L97.067,144.5L97.42,144.5L97.788,144.5L98.523,144.5L98.891,144.5L99.267,144.5L99.626,144.5L99.994,144.5L100.729,144.5L101.097,144.5L101.473,144.5L101.832,144.5L102.2,144.5L102.936,152.611L103.303,152.611L103.685,152.611L104.038,152.611L104.406,152.611L105.141,152.611L105.509,152.611L105.891,152.611L106.245,152.611L106.612,152.611L107.348,152.611L107.715,152.611L108.097,152.611L108.45,152.611L108.818,152.611L109.554,152.611L109.921,152.611L110.303,152.611L110.657,152.611L111.024,152.611L111.76,152.611L112.128,152.611L112.508,152.611L112.862,152.611L113.23,152.611L113.965,152.611L114.333,152.611L114.709,152.611L115.068,152.611L115.436,152.611L116.171,144.5L116.539,144.5L116.915,144.5L117.274,144.5L117.642,144.5L118.377,144.5L118.745,144.5L119.126,144.5L119.481,144.5L119.848,144.5L120.583,152.611L120.951,152.611L121.331,152.611L121.686,152.611L122.054,152.611L122.79,152.611L123.157,152.611L123.537,152.611L123.892,152.611L124.26,152.611L124.995,152.611L125.363,152.611L125.742,152.611L126.098,152.611L126.466,152.611L127.201,152.611L127.57,152.611L127.948,152.611L128.305,152.611L128.672,152.611L129.407,152.611L129.775,152.611L130.15,152.611L130.51,152.611L130.878,152.611L131.614,152.611L131.981,152.611L132.357,152.611L132.716,152.611L133.084,152.611L133.82,144.5L134.187,144.5L134.567,144.5L134.923,144.5L135.29,144.5L136.026,144.5L136.393,144.5L136.773,144.5L137.129,144.5L137.496,144.5L138.231,152.611L138.599,152.611L138.978,152.611L139.334,152.611L139.702,152.611L140.438,152.611L140.805,152.611L141.185,152.611L141.541,152.611L141.908,152.611L142.643,152.611L143.011,152.611L143.393,152.611L143.747,152.611L144.115,152.611L144.849,152.611L145.218,152.611L145.593,152.611L145.952,152.611L146.321,152.611L147.056,152.611L147.423,152.611L147.799,152.611L148.159,152.611L148.526,152.611L149.261,152.611L149.629,152.611L150.012,152.611L150.365,152.611L150.732,152.611L151.468,150.056L151.836,144.5L152.215,144.5L152.571,144.5L152.938,144.5L153.673,144.5L154.041,144.5L154.421,144.5L154.776,144.5L155.144,144.5L155.879,144.5L156.247,144.5L156.626,144.5L156.983,144.5L157.35,144.5L158.086,144.5L158.454,144.5L158.833,144.5L159.189,144.5L159.556,144.5L160.292,144.5L160.66,144.5L161.035,144.5L161.762,144.5L162.497,144.5L162.865,144.5L163.241,144.5L163.6,144.5L163.968,144.5L164.703,144.5L165.071,144.5L165.452,144.5L165.807,144.5L166.909,144.5L167.277,144.5L167.658,144.5L168.013,144.5L168.38,144.5L169.116,144.5L169.483,144.5L169.865,144.5L170.219,144.5L170.586,144.5L171.322,144.5L171.689,144.5L172.071,144.5L172.424,144.5L172.792,144.5L173.527,144.5L173.895,144.5L174.277,144.5L174.63,144.5L174.998,144.5L175.734,144.5L176.101,144.5L176.478,144.5L176.836,144.5L177.205,144.5L177.94,144.5L178.307,144.5L178.685,144.5L179.043,144.5L179.41,144.5L180.146,144.5L180.513,144.5L180.897,144.5L181.248,144.5L181.616,144.5L182.352,144.5L182.719,144.5L183.102,144.5L183.455,144.5L183.822,144.5L184.558,144.5L184.926,144.5L185.308,144.5L185.661,144.5L186.028,144.5" stroke="#9d755d" stroke-width="2"/></g></g><path class="foreground" aria-hidden="true" d="" display="none"/></g><g transform="translate(0,0)"><path class="background" aria-hidden="true" d="M0,0h200v200h-200Z"/><g><g class="mark-line role-mark child_marks" role="graphics-object" aria-roledescription="line mark container"><path aria-label="Time: Oct 12, 2023; Price: 13995; item: PONCHO_-_Cape_-_lucid_blue" role="graphics-symbol" aria-roledescription="line mark" d="M94.111,44.5L96.685,44.5L97.421,44.5L98.523,91.167L99.626,91.167L101.097,91.167L101.473,91.167L101.832,91.167L102.2,91.167L102.936,91.167L103.303,91.167L103.685,91.167L104.038,91.167L104.406,91.167L105.141,91.167L105.509,91.167L105.891,91.167L106.245,91.167L106.612,91.167L107.348,91.167L107.715,91.167L108.097,91.167L108.45,91.167L108.818,91.167L109.554,91.167L109.921,91.167L110.303,91.167L111.024,91.167L112.862,91.167L113.23,91.167L113.965,91.167L115.069,91.167L116.171,91.167L116.539,91.167L116.915,91.167L117.274,91.167L117.642,91.167L119.481,91.167L120.583,114.5L120.951,114.5L122.054,114.5L123.157,114.5L123.537,114.5L123.892,114.5L124.995,114.5L127.201,114.5L127.57,114.5L127.948,114.5L128.305,114.5L128.672,114.5L129.407,114.5L129.775,114.5L130.15,114.5L130.51,114.5L130.878,114.5L131.614,114.5L131.981,114.5L132.357,114.5L132.716,114.5L133.084,114.5L133.82,114.5L134.187,114.5L134.567,114.5L134.923,114.5L135.29,114.5L136.026,114.5L136.393,114.5L136.773,114.5L137.129,114.5L137.496,114.5L138.231,114.5L138.599,114.5L138.978,114.5L139.334,114.5L139.702,114.5L140.438,83.389L140.805,83.389L141.908,83.389L142.643,83.389L144.849,83.389L145.218,83.389L145.952,83.389L146.321,83.389L147.056,83.389L147.423,83.389L147.799,83.389L148.159,83.389L148.526,83.389L149.261,83.389L149.629,83.389L150.732,83.389L151.468,44.5L151.836,44.5L152.215,44.5L152.571,44.5L152.938,44.5L153.673,44.5L154.041,44.5L154.421,44.5L154.776,44.5L155.144,44.5L155.879,44.5L156.247,44.5L156.626,44.5L156.983,44.5L157.35,44.5L158.086,122.278L158.833,122.278L159.556,122.278L160.66,122.278L161.035,122.278L161.762,122.278L162.497,122.278L162.865,122.278L163.241,122.278L163.6,122.278L163.968,122.278L164.703,44.5L165.071,44.5L165.452,44.5L165.807,44.5L166.909,44.5L167.277,44.5L167.658,44.5L168.013,44.5L168.38,44.5L169.116,44.5L169.483,44.5L169.865,44.5L170.219,44.5L170.586,44.5L171.689,130.056L172.071,130.056L172.424,130.056L172.792,130.056L173.527,130.056L174.998,130.056L175.734,44.5L176.101,44.5L176.478,44.5L177.94,44.5L178.307,44.5L178.685,44.5L179.043,44.5L179.41,44.5L180.146,60.056L180.513,60.056L180.897,106.722L181.248,106.722L181.616,122.278L182.352,122.278L182.719,122.278L183.102,122.278L183.455,122.278L183.822,122.278L184.558,122.278L184.926,122.278L185.308,122.278L185.661,122.278L186.028,122.278L186.763,122.278L187.131,122.278L187.513,122.278L187.867,122.278L188.235,122.278L188.97,122.278L191.544,130.056L191.92,122.278L192.279,122.278L192.646,122.278L193.382,122.278L193.75,122.278L194.127,122.278L194.484,122.278L194.852,122.278L195.588,122.278L197.059,75.611L197.794,44.5L198.162,44.5L198.541,44.5L198.897,44.5L199.265,44.5L200,44.5" stroke="#72b7b2" stroke-width="2"/></g></g><path class="foreground" aria-hidden="true" d="" display="none"/></g></g><g class="mark-group role-legend" role="graphics-symbol" aria-roledescription="legend" aria-label="Symbol legend titled 'item' for stroke color with 10 values: KUURA_3L_PONCHO_UNISEX_-_Veste_imperméable_-_green, DESCHUTES_VALLEY™_RAIN_PONCHO_-_Parka_-_vista_blue, DESCHUTES_VALLEY™_RAIN_PONCHO_-_Parka_-_black, PONCHO_-_Cape_-_lucid_blue, HIKING_BACKPACK_PONCHO_-_Veste_imperméable_-_blue, ending with COVERO_PONCHO_II_-_Cape_-_lightgrey"><g transform="translate(220,0)"><path class="background" aria-hidden="true" d="M0,0h328v144h-328Z" pointer-events="none"/><g><g class="mark-group role-legend-entry"><g transform="translate(0,16)"><path class="background" aria-hidden="true" d="M0,0h0v0h0Z" pointer-events="none"/><g><g class="mark-group role-scope" role="graphics-object" aria-roledescription="group mark container"><g transform="translate(0,0)"><path class="background" aria-hidden="true" d="M0,0h328v11h-328Z" pointer-events="none" opacity="1"/><g><g class="mark-symbol role-legend-symbol" pointer-events="none"><path transform="translate(6,6)" d="M-5,0L5,0" stroke="#4c78a8" stroke-width="1.5" opacity="1"/></g><g class="mark-text role-legend-label" pointer-events="none"><text text-anchor="start" transform="translate(16,9)" font-family="Liberation Mono" font-size="10px" fill="#000" opacity="1">KUURA_3L_PONCHO_UNISEX_-_Veste_impermé…</text></g></g><path class="foreground" aria-hidden="true" d="" pointer-events="none" display="none"/></g><g transform="translate(0,13)"><path class="background" aria-hidden="true" d="M0,0h328v11h-328Z" pointer-events="none" opacity="1"/><g><g class="mark-symbol role-legend-symbol" pointer-events="none"><path transform="translate(6,6)" d="M-5,0L5,0" stroke="#f58518" stroke-width="1.5" opacity="1"/></g><g class="mark-text role-legend-label" pointer-events="none"><text text-anchor="start" transform="translate(16,9)" font-family="Liberation Mono" font-size="10px" fill="#000" opacity="1">DESCHUTES_VALLEY™_RAIN_PONCHO_-_Parka_…</text></g></g><path class="foreground" aria-hidden="true" d="" pointer-events="none" display="none"/></g><g transform="translate(0,26)"><path class="background" aria-hidden="true" d="M0,0h328v11h-328Z" pointer-events="none" opacity="1"/><g><g class="mark-symbol role-legend-symbol" pointer-events="none"><path transform="translate(6,6)" d="M-5,0L5,0" stroke="#e45756" stroke-width="1.5" opacity="1"/></g><g class="mark-text role-legend-label" pointer-events="none"><text text-anchor="start" transform="translate(16,9)" font-family="Liberation Mono" font-size="10px" fill="#000" opacity="1">DESCHUTES_VALLEY™_RAIN_PONCHO_-_Parka_…</text></g></g><path class="foreground" aria-hidden="true" d="" pointer-events="none" display="none"/></g><g transform="translate(0,39)"><path class="background" aria-hidden="true" d="M0,0h328v11h-328Z" pointer-events="none" opacity="1"/><g><g class="mark-symbol role-legend-symbol" pointer-events="none"><path transform="translate(6,6)" d="M-5,0L5,0" stroke="#72b7b2" stroke-width="1.5" opacity="1"/></g><g class="mark-text role-legend-label" pointer-events="none"><text text-anchor="start" transform="translate(16,9)" font-family="Liberation Mono" font-size="10px" fill="#000" opacity="1">PONCHO_-_Cape_-_lucid_blue</text></g></g><path class="foreground" aria-hidden="true" d="" pointer-events="none" display="none"/></g><g transform="translate(0,52)"><path class="background" aria-hidden="true" d="M0,0h328v11h-328Z" pointer-events="none" opacity="1"/><g><g class="mark-symbol role-legend-symbol" pointer-events="none"><path transform="translate(6,6)" d="M-5,0L5,0" stroke="#54a24b" stroke-width="1.5" opacity="1"/></g><g class="mark-text role-legend-label" pointer-events="none"><text text-anchor="start" transform="translate(16,9)" font-family="Liberation Mono" font-size="10px" fill="#000" opacity="1">HIKING_BACKPACK_PONCHO_-_Veste_impermé…</text></g></g><path class="foreground" aria-hidden="true" d="" pointer-events="none" display="none"/></g><g transform="translate(0,65)"><path class="background" aria-hidden="true" d="M0,0h328v11h-328Z" pointer-events="none" opacity="1"/><g><g class="mark-symbol role-legend-symbol" pointer-events="none"><path transform="translate(6,6)" d="M-5,0L5,0" stroke="#eeca3b" stroke-width="1.5" opacity="1"/></g><g class="mark-text role-legend-label" pointer-events="none"><text text-anchor="start" transform="translate(16,9)" font-family="Liberation Mono" font-size="10px" fill="#000" opacity="1">HIKING_BACKPACK_PONCHO_-_Veste_impermé…</text></g></g><path class="foreground" aria-hidden="true" d="" pointer-events="none" display="none"/></g><g transform="translate(0,78)"><path class="background" aria-hidden="true" d="M0,0h328v11h-328Z" pointer-events="none" opacity="1"/><g><g class="mark-symbol role-legend-symbol" pointer-events="none"><path transform="translate(6,6)" d="M-5,0L5,0" stroke="#b279a2" stroke-width="1.5" opacity="1"/></g><g class="mark-text role-legend-label" pointer-events="none"><text text-anchor="start" transform="translate(16,9)" font-family="Liberation Mono" font-size="10px" fill="#000" opacity="1">PARIS_ST._GERMAIN_CITY_MADE_PONCHO_-_V…</text></g></g><path class="foreground" aria-hidden="true" d="" pointer-events="none" display="none"/></g><g transform="translate(0,91)"><path class="background" aria-hidden="true" d="M0,0h328v11h-328Z" pointer-events="none" opacity="1"/><g><g class="mark-symbol role-legend-symbol" pointer-events="none"><path transform="translate(6,6)" d="M-5,0L5,0" stroke="#ff9da6" stroke-width="1.5" opacity="1"/></g><g class="mark-text role-legend-label" pointer-events="none"><text text-anchor="start" transform="translate(16,9)" font-family="Liberation Mono" font-size="10px" fill="#000" opacity="1">PSG_M_NSW_CITY_MADE_PONCHO_-_Veste_de_…</text></g></g><path class="foreground" aria-hidden="true" d="" pointer-events="none" display="none"/></g><g transform="translate(0,104)"><path class="background" aria-hidden="true" d="M0,0h328v11h-328Z" pointer-events="none" opacity="1"/><g><g class="mark-symbol role-legend-symbol" pointer-events="none"><path transform="translate(6,6)" d="M-5,0L5,0" stroke="#9d755d" stroke-width="1.5" opacity="1"/></g><g class="mark-text role-legend-label" pointer-events="none"><text text-anchor="start" transform="translate(16,9)" font-family="Liberation Mono" font-size="10px" fill="#000" opacity="1">SHOWERPROOF_PONCHO_UNISEX_-_Cape_-_cla…</text></g></g><path class="foreground" aria-hidden="true" d="" pointer-events="none" display="none"/></g><g transform="translate(0,117)"><path class="background" aria-hidden="true" d="M0,0h328v11h-328Z" pointer-events="none" opacity="1"/><g><g class="mark-symbol role-legend-symbol" pointer-events="none"><path transform="translate(6,6)" d="M-5,0L5,0" stroke="#bab0ac" stroke-width="1.5" opacity="1"/></g><g class="mark-text role-legend-label" pointer-events="none"><text text-anchor="start" transform="translate(16,9)" font-family="Liberation Mono" font-size="10px" fill="#000" opacity="1">COVERO_PONCHO_II_-_Cape_-_lightgrey</text></g></g><path class="foreground" aria-hidden="true" d="" pointer-events="none" display="none"/></g></g></g><path class="foreground" aria-hidden="true" d="" pointer-events="none" display="none"/></g></g><g class="mark-text role-legend-title" pointer-events="none"><text text-anchor="start" transform="translate(0,9)" font-family="Liberation Mono" font-size="11px" font-weight="bold" fill="#000" opacity="1">item</text></g></g><path class="foreground" aria-hidden="true" d="" pointer-events="none" display="none"/></g></g></g><path class="foreground" aria-hidden="true" d="" display="none"/></g></g></g><path class="foreground" aria-hidden="true" d="" display="none"/></g></g></g></svg>