<svg xmlns="http://www.w3.org/2000/svg" xmlns:xlink="http://www.w3.org/1999/xlink" version="1.1" class="marks" width="658" height="244" viewBox="0 0 658 244"><rect width="658" height="244" fill="white"/><g fill="none" stroke-miterlimit="10" transform="translate(104,6)"><g class="mark-group role-frame root" role="graphics-object" aria-roledescription="group mark container"><g transform="translate(0,0)"><path class="background" aria-hidden="true" d="M0,0h0v0h0Z"/><g><g class="mark-group role-row-title row-title" role="graphics-object" aria-roledescription="group mark container"><g transform="translate(-78,116)"><path class="background" aria-hidden="true" d="M0,0h0v0h0Z"/><g><g class="mark-group role-title"><g transform="translate(-21.000000000000004,0)"><path class="background" aria-hidden="true" d="M0,0h0v0h0Z" pointer-events="none"/><g><g class="mark-text role-title-text" role="graphics-symbol" aria-roledescription="title" aria-label="Title text 'group'" pointer-events="none"><text text-anchor="middle" transform="translate(0,0) rotate(-90) translate(0,9)" font-family="Liberation Mono" font-size="11px" font-weight="bold" fill="#000" opacity="1">group</text></g></g><path class="foreground" aria-hidden="true" d="" pointer-events="none" display="none"/></g></g></g><path class="foreground" aria-hidden="true" d="" display="none"/></g></g><g class="mark-group role-row-header row_header" role="graphics-object" aria-roledescription="group mark container"><g transform="translate(-47,0)"><path class="background" aria-hidden="true" d="M0,0h0v200h0Z"/><g><g class="mark-group role-title"><g transform="translate(-20.000000000000007,100)"><path class="background" aria-hidden="true" d="M0,0h0v0h0Z" pointer-events="none"/><g><g class="mark-text role-title-text" role="graphics-symbol" aria-roledescription="title" aria-label="Title text 'zalando-poncho'" pointer-events="none"><text text-anchor="middle" transform="translate(0,0) rotate(-90) translate(0,8)" font-family="Liberation Mono" font-size="10px" fill="#000" opacity="1">zalando-poncho</text></g></g><path class="foreground" aria-hidden="true" d="" pointer-events="none" display="none"/></g></g></g><path class="foreground" aria-hidden="true" d="" display="none"/></g></g><g class="mark-group role-scope cell" role="graphics-object" aria-roledescription="group mark container"><g transform="translate(0,0)"><path class="background" aria-hidden="true" d="M0.5,0.5h200v200h-200Z" stroke="#ddd"/><g><g class="mark-group role-axis" aria-hidden="true"><g transform="translate(0.5,200.5)"><path class="background" aria-hidden="true" d="M0,0h0v0h0Z" pointer-events="none"/><g><g class="mark-rule role-axis-grid" pointer-events="none"><line transform="translate(21,-200)" x2="0" y2="200" stroke="#ddd" stroke-width="1" opacity="1"/><line transform="translate(63,-200)" x2="0" y2="200" stroke="#ddd" stroke-width="1" opacity="1"/><line transform="translate(106,-200)" x2="0" y2="200" stroke="#ddd" stroke-width="1" opacity="1"/><line transform="translate(148,-200)" x2="0" y2="200" stroke="#ddd" stroke-width="1" opacity="1"/><line transform="translate(191,-200)" x2="0" y2="200" stroke="#ddd" stroke-width="1" opacity="1"/></g></g><path class="foreground" aria-hidden="true" d="" pointer-events="none" display="none"/></g></g><g class="mark-group role-axis" aria-hidden="true"><g transform="translate(0.5,0.5)"><path class="background" aria-hidden="true" d="M0,0h0v0h0Z" pointer-events="none"/><g><g class="mark-rule role-axis-grid" pointer-events="none"><line transform="translate(0,200)" x2="200" y2="0" stroke="#ddd" stroke-width="1" opacity="1"/><line transform="translate(0,144)" x2="200" y2="0" stroke="#ddd" stroke-width="1" opacity="1"/><line transform="translate(0,89)" x2="200" y2="0" stroke="#ddd" stroke-width="1" opacity="1"/><line transform="translate(0,33)" x2="200" y2="0" stroke="#ddd" stroke-width="1" opacity="1"/></g></g><path class="foreground" aria-hidden="true" d="" pointer-events="none" display="none"/></g></g><g class="mark-group role-axis" role="graphics-symbol" aria-roledescription="axis" aria-label="X-axis titled 'Time' for a time scale with values from Wednesday, 30 August 2023, 12:58:24 PM to Monday, 02 October 2023, 12:59:22 PM"><g transform="translate(0.5,200.5)"><path class="background" aria-hidden="true" d="M0,0h0v0h0Z" pointer-events="none"/><g><g class="mark-rule role-axis-tick" pointer-events="none"><line transform="translate(21,0)" x2="0" y2="5" stroke="#888" stroke-width="1" opacity="1"/><line transform="translate(63,0)" x2="0" y2="5" stroke="#888" stroke-width="1" opacity="1"/><line transform="translate(106,0)" x2="0" y2="5" stroke="#888" stroke-width="1" opacity="1"/><line transform="translate(148,0)" x2="0" y2="5" stroke="#888" stroke-width="1" opacity="1"/><line transform="translate(191,0)" x2="0" y2="5" stroke="#888" stroke-width="1" opacity="1"/></g><g class="mark-text role-axis-label" pointer-events="none"><text text-anchor="middle" transform="translate(20.965899300793648,15)" font-family="Liberation Mono" font-size="10px" fill="#000" opacity="1">Sep 03</text><text text-anchor="middle" transform="translate(63.38927455446468,15)" font-family="Liberation Mono" font-size="10px" fill="#000" opacity="0">Sep 10</text><text text-anchor="middle" transform="translate(105.81264980813572,15)" font-family="Liberation Mono" font-size="10px" fill="#000" opacity="1">Sep 17</text><text text-anchor="middle" transform="translate(148.23602506180674,15)" font-family="Liberation Mono" font-size="10px" fill="#000" opacity="0">Sep 24</text><text text-anchor="middle" transform="translate(190.65940031547777,15)" font-family="Liberation Mono" font-size="10px" fill="#000" opacity="1">October</text></g><g class="mark-rule role-axis-domain" pointer-events="none"><line transform="translate(0,0)" x2="200" y2="0" stroke="#888" stroke-width="1" opacity="1"/></g><g class="mark-text role-axis-title" pointer-events="none"><text text-anchor="middle" transform="translate(100,30)" font-family="Liberation Mono" font-size="11px" font-weight="bold" fill="#000" opacity="1">Time</text></g></g><path class="foreground" aria-hidden="true" d="" pointer-events="none" display="none"/></g></g><g class="mark-group role-axis" role="graphics-symbol" aria-roledescription="axis" aria-label="Y-axis titled 'Price' for a linear scale with values from 0 to 18,000"><g transform="translate(0.5,0.5)"><path class="background" aria-hidden="true" d="M0,0h0v0h0Z" pointer-events="none"/><g><g class="mark-rule role-axis-tick" pointer-events="none"><line transform="translate(0,200)" x2="-5" y2="0" stroke="#888" stroke-width="1" opacity="1"/><line transform="translate(0,144)" x2="-5" y2="0" stroke="#888" stroke-width="1" opacity="1"/><line transform="translate(0,89)" x2="-5" y2="0" stroke="#888" stroke-width="1" opacity="1"/><line transform="translate(0,33)" x2="-5" y2="0" stroke="#888" stroke-width="1" opacity="1"/></g><g class="mark-text role-axis-label" pointer-events="none"><text text-anchor="end" transform="translate(-7,203)" font-family="Liberation Mono" font-size="10px" fill="#000" opacity="1">0</text><text text-anchor="end" transform="translate(-7,147.44444444444443)" font-family="Liberation Mono" font-size="10px" fill="#000" opacity="1">50</text><text text-anchor="end" transform="translate(-7,91.88888888888889)" font-family="Liberation Mono" font-size="10px" fill="#000" opacity="1">100</text><text text-anchor="end" transform="translate(-7,36.33333333333333)" font-family="Liberation Mono" font-size="10px" fill="#000" opacity="1">150</text></g><g class="mark-rule role-axis-domain" pointer-events="none"><line transform="translate(0,200)" x2="0" y2="-200" stroke="#888" stroke-width="1" opacity="1"/></g><g class="mark-text role-axis-title" pointer-events="none"><text text-anchor="middle" transform="translate(-35,100) rotate(-90) translate(0,-2)" font-family="Liberation Mono" font-size="11px" font-weight="bold" fill="#000" opacity="1">Price</text></g></g><path class="foreground" aria-hidden="true" d="" pointer-events="none" display="none"/></g></g><g class="mark-group role-scope child_pathgroup" role="graphics-object" aria-roledescription="group mark container"><g transform="translate(0,0)"><path class="background" aria-hidden="true" d="M0,0h200v200h-200Z"/><g><g class="mark-line role-mark child_marks" role="graphics-object" aria-roledescription="line mark container"><path aria-label="Time: Aug 30, 2023; Price: 10795; item: DESCHUTES_VALLEY™_RAIN_PONCHO_-_Parka_-_black" role="graphics-symbol" aria-roledescription="line mark" d="M0,80.056L0.984,80.056L1.989,80.056L4.009,80.056L5.018,80.056L6.063,80.056L7.039,80.056L8.047,80.056L10.071,80.056L11.079,80.056L12.121,80.056L13.098,80.056L14.109,80.056L16.129,80.056L17.139,80.056L18.169,80.056L19.158,80.056L20.169,80.056L22.19,80.056L23.926,80.056L24.232,80.056L25.219,80.056L26.23,80.056L28.251,80.056L29.263,80.056L30.306,80.056L31.28,80.056L32.289,80.056L34.316,50.056L35.327,50.056L36.365,50.056L37.342,50.056L38.35,50.056L40.371,50.056L41.381,50.056L42.428,50.056L43.401,50.056L44.412,50.056L46.434,50.056L47.443,50.056L48.484,50.056L49.463,50.056L50.472,50.056L53.128,50.056L53.501,50.056L54.542,50.056L55.521,50.056L56.532,50.056L58.55,50.056L59.562,50.056L60.592,50.056L61.582,50.056L62.592,50.056L64.613,50.056L65.622,50.056L66.652,50.056L67.641,50.056L68.652,50.056L70.672,50.056L71.682,50.056L72.73,50.056L73.703,50.056L74.712,50.056L76.733,50.056L77.742,50.056L78.787,50.056L79.763,50.056L80.774,50.056L82.794,20.056L83.804,20.056L84.85,20.056L85.384,20.056L85.824,20.056L86.834,20.056L88.854,20.056L89.864,20.056L90.911,20.056L91.885,20.056L92.894,20.056L94.913,20.056L95.924,20.056L96.967,20.056L97.944,20.056L98.954,20.056L100.974,20.056L101.985,20.056L103.013,20.056L104.005,20.056L105.014,20.056L107.034,20.056L108.045,20.056L109.075,20.056L110.065,20.056L111.076,20.056L113.096,20.056L114.106,20.056L115.154,20.056L116.126,20.056L117.137,20.056L119.155,20.056L120.166,20.056L121.213,20.056L122.186,20.056L123.197,20.056L125.216,20.056L126.228,20.056L127.275,20.056L128.247,20.056L129.256,20.056L131.276,20.056L132.287,20.056L133.336,20.056L134.308,20.056L135.318,20.056L137.338,20.056L138.348,20.056L139.392,20.056L140.368,20.056L141.377,20.056L143.397,20.056L144.408,20.056L145.437,20.056L146.428,20.056L147.439,20.056L149.458,20.056L150.469,20.056L151.499,20.056L152.489,20.056L153.498,20.056L155.519,20.056L156.53,20.056L157.579,20.056L158.549,20.056L159.558,20.056L161.579,20.056L162.591,20.056L163.64,20.056L164.609,20.056L165.62,20.056L167.64,40.056L168.649,40.056L169.697,40.056L170.67,40.056L171.682,40.056L173.701,40.056L174.71,40.056L175.758,40.056L176.73,40.056L179.76,40.056L180.771,40.056L181.814,40.056L182.792,40.056L183.801,40.056L185.821,40.056L186.831,40.056L187.862,40.056L188.851,40.056L189.861,40.056L191.882,40.056L192.892,40.056L193.926,40.056L194.912,40.056L195.923,40.056L197.942,100.056L198.953,100.056L200,100.056" stroke="#e45756" stroke-width="2"/></g></g><path class="foreground" aria-hidden="true" d="" display="none"/></g><g transform="translate(0,0)"><path class="background" aria-hidden="true" d="M0,0h200v200h-200Z"/><g><g class="mark-line role-mark child_marks" role="graphics-object" aria-roledescription="line mark container"><path aria-label="Time: Aug 30, 2023; Price: 8995; item: HIKING_BACKPACK_PONCHO_-_Veste_imperméable_-_blue" role="graphics-symbol" aria-roledescription="line mark" d="M0,100.056L0.984,100.056L1.989,100.056L4.009,100.056L5.018,100.056L6.063,100.056L7.039,100.056L8.047,100.056L10.071,100.056L11.079,100.056L12.121,100.056L13.098,100.056L14.109,100.056L16.13,100.056L17.139,100.056L18.169,100.056L19.158,100.056L20.169,100.056L22.19,100.056L23.926,100.056L24.232,100.056L71.682,100.056L72.73,100.056L73.703,100.056L74.712,100.056L76.733,100.056L77.742,100.056L78.787,100.056L79.763,100.056L80.774,100.056L82.794,100.056L83.804,100.056L84.85,100.056L85.384,100.056L85.824,100.056L86.834,100.056L88.854,100.056L89.864,100.056L90.911,100.056L91.885,100.056L92.894,100.056L94.914,100.056L95.924,100.056L96.967,100.056L97.944,100.056L98.954,100.056L100.974,100.056L101.985,100.056L103.013,100.056L104.005,100.056L105.014,100.056L107.034,100.056L108.045,100.056L176.73,111.167L179.76,111.167L180.771,111.167L181.814,111.167L182.792,111.167L183.801,111.167L185.821,111.167L186.831,111.167L187.862,111.167L188.851,111.167L189.861,111.167L191.882,111.167L192.892,111.167L193.926,111.167L194.912,111.167L195.923,111.167L197.942,111.167L198.953,111.167L200,111.167" stroke="#54a24b" stroke-width="2"/></g></g><path class="foreground" aria-hidden="true" d="" display="none"/></g><g transform="translate(0,0)"><path class="background" aria-hidden="true" d="M0,0h200v200h-200Z"/><g><g class="mark-line role-mark child_marks" role="graphics-object" aria-roledescription="line mark container"><path aria-label="Time: Aug 30, 2023; Price: 16195; item: DESCHUTES_VALLEY™_RAIN_PONCHO_-_Parka_-_vista_blue" role="graphics-symbol" aria-roledescription="line mark" d="M0,20.056L0.984,20.056L1.989,20.056L4.009,20.056L5.018,20.056L6.063,20.056L7.039,20.056L8.047,20.056L10.071,20.056L11.079,20.056L12.121,20.056L13.098,20.056L14.109,20.056L16.129,20.056L17.139,20.056L18.169,20.056L19.158,20.056L20.169,20.056L22.19,20.056L23.926,20.056L24.232,20.056L25.219,20.056L26.23,20.056L28.251,20.056L29.263,20.056L30.306,20.056L31.28,20.056L32.289,20.056L34.316,80.056L35.327,80.056L36.365,80.056L37.342,80.056L38.35,80.056L40.371,80.056L41.381,80.056L42.428,80.056L43.401,80.056L44.412,80.056L46.434,80.056L47.443,80.056L48.484,80.056L49.463,80.056L50.472,80.056L53.128,80.056L53.501,80.056L54.542,80.056L55.521,80.056L56.532,80.056L58.55,80.056L59.562,80.056L60.592,80.056L61.582,80.056L62.592,80.056L64.613,80.056L65.622,80.056L66.652,80.056L67.641,80.056L68.652,80.056L70.672,80.056L71.682,80.056L72.73,80.056L73.703,80.056L74.712,80.056L76.733,80.056L77.742,80.056L78.787,80.056L79.763,80.056L80.774,80.056L82.794,20.056L83.804,20.056L84.85,20.056L85.384,20.056L85.824,20.056L86.834,20.056L88.854,20.056L89.864,20.056L90.911,20.056L91.885,20.056L92.894,20.056L94.913,20.056L95.924,20.056L96.967,20.056L97.944,20.056L98.954,20.056L100.974,20.056L101.985,20.056L103.013,20.056L104.005,20.056L105.014,20.056L107.034,20.056L108.045,20.056L109.075,20.056L110.065,20.056L111.076,20.056L113.096,20.056L114.105,20.056L115.154,20.056L116.126,20.056L117.137,20.056L119.155,20.056L120.166,20.056L121.213,20.056L122.186,20.056L123.197,20.056L125.216,20.056L126.228,20.056L127.275,20.056L128.247,20.056L129.256,20.056L131.276,20.056L132.287,20.056L133.336,20.056L134.308,20.056L135.318,20.056L137.338,20.056L138.348,20.056L139.392,20.056L140.368,20.056L141.377,20.056L143.397,20.056L144.408,20.056L145.437,20.056L146.428,20.056L147.439,20.056L149.458,20.056L150.469,20.056L151.499,20.056L152.489,20.056L153.498,20.056L155.519,20.056L156.53,20.056L157.579,20.056L158.549,20.056L159.558,20.056L161.579,20.056L162.591,20.056L163.64,20.056L164.609,20.056L165.62,20.056L167.64,40.056L168.649,40.056L169.697,40.056L170.67,40.056L171.682,40.056L173.701,40.056L174.71,40.056L175.758,40.056L176.73,40.056L179.76,40.056L180.771,40.056L181.814,40.056L182.792,40.056L183.801,40.056L185.821,40.056L186.831,40.056L187.862,40.056L188.851,40.056L189.861,40.056L191.882,40.056L192.892,40.056L193.926,40.056L194.912,40.056L195.923,40.056L197.942,90.056L198.953,90.056L200,90.056" stroke="#f58518" stroke-width="2"/></g></g><path class="foreground" aria-hidden="true" d="" display="none"/></g><g transform="translate(0,0)"><path class="background" aria-hidden="true" d="M0,0h200v200h-200Z"/><g><g class="mark-line role-mark child_marks" role="graphics-object" aria-roledescription="line mark container"><path aria-label="Time: Aug 30, 2023; Price: 5495; item: COVERO_PONCHO_II_-_Cape_-_lightgrey" role="graphics-symbol" aria-roledescription="line mark" d="M0,138.944L0.984,138.944L1.989,138.944L4.009,138.944L5.018,138.944L6.063,138.944L7.039,138.944L8.047,138.944L10.072,138.944L11.079,138.944L17.139,138.944L18.169,138.944L19.158,138.944L20.169,138.944L22.19,138.944L23.926,138.944L24.232,138.944L25.22,138.944L26.23,138.944L28.251,138.944L29.263,138.944L30.306,138.944L31.28,138.944L32.289,138.944L34.316,138.944L35.327,138.944L36.365,138.944L37.343,138.944L38.35,138.944L55.521,153.944L65.622,138.944L66.652,138.944L67.641,138.944L68.652,138.944L70.672,138.944L71.682,138.944L72.73,138.944L73.703,138.944L74.712,138.944L76.733,138.944L77.742,138.944L78.787,138.944L79.763,138.944L80.774,138.944L82.794,138.944L83.804,138.944L84.85,138.944L85.384,138.944L85.824,138.944L86.834,138.944L88.854,138.944L89.864,138.944L90.911,138.944L91.885,138.944L92.894,138.944L94.914,138.944L95.924,138.944L96.967,138.944L97.944,138.944L98.954,138.944L100.974,138.944L101.985,138.944L103.013,138.944L104.005,138.944L105.014,138.944L107.034,138.944L108.045,138.944L109.075,138.944L110.065,138.944L111.076,138.944L113.096,138.944L114.106,138.944L115.154,138.944L116.126,138.944L117.137,138.944L119.155,138.944L120.166,138.944L121.213,138.944L122.186,138.944L123.197,138.944L125.216,151.167L126.228,151.167L127.275,151.167L128.247,151.167L129.256,151.167L131.276,151.167L132.287,151.167L133.336,151.167L134.308,151.167L135.318,151.167L137.338,151.167L138.348,151.167L139.392,151.167L144.408,151.167L145.437,151.167L146.428,151.167L147.439,151.167L149.458,151.167L150.469,151.167L151.5,151.167L152.489,151.167L153.498,151.167L155.519,151.167L156.53,151.167L157.579,151.167L158.549,151.167L159.558,151.167L161.579,151.167L162.591,151.167L163.64,151.167L164.609,151.167L165.62,151.167L167.64,151.167L168.649,151.167L169.697,151.167L170.671,151.167L171.682,151.167L173.701,151.167L174.71,151.167L175.758,151.167L176.73,151.167L179.76,151.167L180.771,151.167L181.814,151.167L182.792,151.167L183.801,151.167L185.821,151.167L186.831,151.167L187.862,151.167L188.851,151.167L189.861,151.167L191.882,151.167L192.892,151.167L193.926,151.167L194.912,151.167L195.923,151.167L197.942,151.167L198.953,151.167L200,151.167" stroke="#ff9da6" stroke-width="2"/></g></g><path class="foreground" aria-hidden="true" d="" display="none"/></g><g transform="translate(0,0)"><path class="background" aria-hidden="true" d="M0,0h200v200h-200Z"/><g><g class="mark-line role-mark child_marks" role="graphics-object" aria-roledescription="line mark container"><path aria-label="Time: Sep 01, 2023; Price: 12995; item: KUURA_3L_PONCHO_UNISEX_-_Veste_imperméable_-_green" role="graphics-symbol" aria-roledescription="line mark" d="M14.109,55.611L16.129,55.611L17.139,55.611L18.169,55.611L29.263,55.611L30.306,55.611L31.28,55.611L32.289,55.611L34.316,11.167L35.327,11.167L36.365,11.167L37.342,11.167L38.35,11.167L40.371,11.167L41.381,11.167L42.428,11.167L43.401,11.167L44.412,11.167L46.434,11.167L47.443,11.167L48.484,11.167L49.463,11.167L50.472,11.167L53.128,11.167L53.501,11.167L54.542,11.167L55.521,11.167L56.532,11.167L58.55,11.167L59.562,11.167L60.592,11.167L61.582,11.167L62.592,11.167L64.613,11.167L65.622,11.167L66.652,11.167L67.641,11.167L68.652,11.167L70.672,11.167L71.682,11.167L72.73,11.167L73.703,11.167L76.733,11.167L77.742,11.167L78.787,11.167L79.763,11.167L80.774,11.167L103.013,22.278L104.005,22.278L105.014,22.278L107.034,22.278L108.045,22.278L109.075,22.278L110.065,22.278L111.076,22.278L113.096,22.278L114.106,22.278L115.154,22.278L120.166,22.278L121.213,22.278L122.186,22.278L123.197,22.278L125.216,22.278L126.228,22.278" stroke="#4c78a8" stroke-width="2"/></g></g><path class="foreground" aria-hidden="true" d="" display="none"/></g><g transform="translate(0,0)"><path class="background" aria-hidden="true" d="M0,0h200v200h-200Z"/><g><g class="mark-line role-mark child_marks" role="graphics-object" aria-roledescription="line mark container"><path aria-label="Time: Sep 14, 2023; Price: 6495; item: PARIS_ST._GERMAIN_CITY_MADE_PONCHO_-_Veste_de_survêtement_-_aura_white" role="graphics-symbol" aria-roledescription="line mark" d="M88.854,127.833L89.864,127.833L90.911,127.833L91.885,127.833L92.894,127.833L94.914,127.833L95.924,127.833L100.974,127.833L108.045,127.833L109.075,127.833L110.065,127.833L111.076,127.833L113.096,127.833L114.106,127.833L115.154,127.833L116.126,127.833L117.137,127.833L119.155,127.833L120.166,127.833L121.213,127.833L122.186,127.833L123.197,127.833L125.216,127.833L126.228,127.833L127.275,127.833L128.247,127.833L129.256,127.833L131.276,127.833L132.287,127.833L133.336,127.833L134.308,127.833L135.318,127.833L137.338,127.833L138.348,127.833L139.392,127.833L140.368,127.833L141.377,127.833L143.397,127.833L144.408,127.833L145.437,127.833L146.428,127.833L147.439,127.833L149.458,127.833L150.469,127.833L151.5,127.833L152.489,127.833L153.498,127.833L155.519,127.833L156.53,127.833L157.579,127.833L158.549,127.833L159.558,127.833L161.579,127.833L162.591,127.833L163.64,127.833" stroke="#b279a2" stroke-width="2"/></g></g><path class="foreground" aria-hidden="true" d="" display="none"/></g><g transform="translate(0,0)"><path class="background" aria-hidden="true" d="M0,0h200v200h-200Z"/><g><g class="mark-line role-mark child_marks" role="graphics-object" aria-roledescription="line mark container"><path aria-label="Time: Sep 18, 2023; Price: 8995; item: HIKING_BACKPACK_PONCHO_-_Veste_imperméable_-_indian_red" role="graphics-symbol" aria-roledescription="line mark" d="M113.096,100.056L114.106,100.056L115.154,100.056L116.126,100.056L117.137,100.056L119.155,100.056L120.166,100.056L158.549,100.056L159.558,100.056L161.579,100.056L162.591,100.056L163.64,100.056L164.609,100.056L165.62,100.056L167.64,111.167L168.649,111.167L169.697,111.167L170.671,111.167" stroke="#eeca3b" stroke-width="2"/></g></g><path class="foreground" aria-hidden="true" d="" display="none"/></g><g transform="translate(0,0)"><path class="background" aria-hidden="true" d="M0,0h200v200h-200Z"/><g><g class="mark-line role-mark child_marks" role="graphics-object" aria-roledescription="line mark container"><path aria-label="Time: Sep 26, 2023; Price: 6495; item: PSG_M_NSW_CITY_MADE_PONCHO_-_Veste_de_survêtement_-_aura_white" role="graphics-symbol" aria-roledescription="line mark" d="M164.609,127.833L165.62,127.833L167.64,91.167L168.649,91.167L169.697,91.167L170.671,91.167L171.682,91.167L173.701,91.167L174.71,91.167L175.758,91.167L176.73,91.167L179.76,91.167L180.771,91.167L181.814,91.167L182.792,91.167L183.801,91.167L185.821,91.167L186.831,91.167L187.862,91.167L188.851,91.167L189.861,91.167L191.882,91.167L192.892,91.167L193.926,91.167L194.912,91.167L195.923,91.167L197.942,127.833L198.953,127.833L200,127.833" stroke="#72b7b2" stroke-width="2"/></g></g><path class="foreground" aria-hidden="true" d="" display="none"/></g></g><g class="mark-group role-legend" role="graphics-symbol" aria-roledescription="legend" aria-label="Symbol legend titled 'item' for stroke color with 8 values: KUURA_3L_PONCHO_UNISEX_-_Veste_imperméable_-_green, DESCHUTES_VALLEY™_RAIN_PONCHO_-_Parka_-_vista_blue, DESCHUTES_VALLEY™_RAIN_PONCHO_-_Parka_-_black, PSG_M_NSW_CITY_MADE_PONCHO_-_Veste_de_survêtement_-_aura_white, HIKING_BACKPACK_PONCHO_-_Veste_imperméable_-_blue, ending with COVERO_PONCHO_II_-_Cape_-_lightgrey"><g transform="translate(220,0)"><path class="background" aria-hidden="true" d="M0,0h328v118h-328Z" pointer-events="none"/><g><g class="mark-group role-legend-entry"><g transform="translate(0,16)"><path class="background" aria-hidden="true" d="M0,0h0v0h0Z" pointer-events="none"/><g><g class="mark-group role-scope" role="graphics-object" aria-roledescription="group mark container"><g transform="translate(0,0)"><path class="background" aria-hidden="true" d="M0,0h328v11h-328Z" pointer-events="none" opacity="1"/><g><g class="mark-symbol role-legend-symbol" pointer-events="none"><path transform="translate(6,6)" d="M-5,0L5,0" stroke="#4c78a8" stroke-width="1.5" opacity="1"/></g><g class="mark-text role-legend-label" pointer-events="none"><text text-anchor="start" transform="translate(16,9)" font-family="Liberation Mono" font-size="10px" fill="#000" opacity="1">KUURA_3L_PONCHO_UNISEX_-_Veste_impermé…</text></g></g><path class="foreground" aria-hidden="true" d="" pointer-events="none" display="none"/></g><g transform="translate(0,13)"><path class="background" aria-hidden="true" d="M0,0h328v11h-328Z" pointer-events="none" opacity="1"/><g><g class="mark-symbol role-legend-symbol" pointer-events="none"><path transform="translate(6,6)" d="M-5,0L5,0" stroke="#f58518" stroke-width="1.5" opacity="1"/></g><g class="mark-text role-legend-label" pointer-events="none"><text text-anchor="start" transform="translate(16,9)" font-family="Liberation Mono" font-size="10px" fill="#000" opacity="1">DESCHUTES_VALLEY™_RAIN_PONCHO_-_Parka_…</text></g></g><path class="foreground" aria-hidden="true" d="" pointer-events="none" display="none"/></g><g transform="translate(0,26)"><path class="background" aria-hidden="true" d="M0,0h328v11h-328Z" pointer-events="none" opacity="1"/><g><g class="mark-symbol role-legend-symbol" pointer-events="none"><path transform="translate(6,6)" d="M-5,0L5,0" stroke="#e45756" stroke-width="1.5" opacity="1"/></g><g class="mark-text role-legend-label" pointer-events="none"><text text-anchor="start" transform="translate(16,9)" font-family="Liberation Mono" font-size="10px" fill="#000" opacity="1">DESCHUTES_VALLEY™_RAIN_PONCHO_-_Parka_…</text></g></g><path class="foreground" aria-hidden="true" d="" pointer-events="none" display="none"/></g><g transform="translate(0,39)"><path class="background" aria-hidden="true" d="M0,0h328v11h-328Z" pointer-events="none" opacity="1"/><g><g class="mark-symbol role-legend-symbol" pointer-events="none"><path transform="translate(6,6)" d="M-5,0L5,0" stroke="#72b7b2" stroke-width="1.5" opacity="1"/></g><g class="mark-text role-legend-label" pointer-events="none"><text text-anchor="start" transform="translate(16,9)" font-family="Liberation Mono" font-size="10px" fill="#000" opacity="1">PSG_M_NSW_CITY_MADE_PONCHO_-_Veste_de_…</text></g></g><path class="foreground" aria-hidden="true" d="" pointer-events="none" display="none"/></g><g transform="translate(0,52)"><path class="background" aria-hidden="true" d="M0,0h328v11h-328Z" pointer-events="none" opacity="1"/><g><g class="mark-symbol role-legend-symbol" pointer-events="none"><path transform="translate(6,6)" d="M-5,0L5,0" stroke="#54a24b" stroke-width="1.5" opacity="1"/></g><g class="mark-text role-legend-label" pointer-events="none"><text text-anchor="start" transform="translate(16,9)" font-family="Liberation Mono" font-size="10px" fill="#000" opacity="1">HIKING_BACKPACK_PONCHO_-_Veste_impermé…</text></g></g><path class="foreground" aria-hidden="true" d="" pointer-events="none" display="none"/></g><g transform="translate(0,65)"><path class="background" aria-hidden="true" d="M0,0h328v11h-328Z" pointer-events="none" opacity="1"/><g><g class="mark-symbol role-legend-symbol" pointer-events="none"><path transform="translate(6,6)" d="M-5,0L5,0" stroke="#eeca3b" stroke-width="1.5" opacity="1"/></g><g class="mark-text role-legend-label" pointer-events="none"><text text-anchor="start" transform="translate(16,9)" font-family="Liberation Mono" font-size="10px" fill="#000" opacity="1">HIKING_BACKPACK_PONCHO_-_Veste_impermé…</text></g></g><path class="foreground" aria-hidden="true" d="" pointer-events="none" display="none"/></g><g transform="translate(0,78)"><path class="background" aria-hidden="true" d="M0,0h328v11h-328Z" pointer-events="none" opacity="1"/><g><g class="mark-symbol role-legend-symbol" pointer-events="none"><path transform="translate(6,6)" d="M-5,0L5,0" stroke="#b279a2" stroke-width="1.5" opacity="1"/></g><g class="mark-text role-legend-label" pointer-events="none"><text text-anchor="start" transform="translate(16,9)" font-family="Liberation Mono" font-size="10px" fill="#000" opacity="1">PARIS_ST._GERMAIN_CITY_MADE_PONCHO_-_V…</text></g></g><path class="foreground" aria-hidden="true" d="" pointer-events="none" display="none"/></g><g transform="translate(0,91)"><path class="background" aria-hidden="true" d="M0,0h328v11h-328Z" pointer-events="none" opacity="1"/><g><g class="mark-symbol role-legend-symbol" pointer-events="none"><path transform="translate(6,6)" d="M-5,0L5,0" stroke="#ff9da6" stroke-width="1.5" opacity="1"/></g><g class="mark-text role-legend-label" pointer-events="none"><text text-anchor="start" transform="translate(16,9)" font-family="Liberation Mono" font-size="10px" fill="#000" opacity="1">COVERO_PONCHO_II_-_Cape_-_lightgrey</text></g></g><path class="foreground" aria-hidden="true" d="" pointer-events="none" display="none"/></g></g></g><path class="foreground" aria-hidden="true" d="" pointer-events="none" display="none"/></g></g><g class="mark-text role-legend-title" pointer-events="none"><text text-anchor="start" transform="translate(0,9)" font-family="Liberation Mono" font-size="11px" font-weight="bold" fill="#000" opacity="1">item</text></g></g><path class="foreground" aria-hidden="true" d="" pointer-events="none" display="none"/></g></g></g><path class="foreground" aria-hidden="true" d="" display="none"/></g></g></g><path class="foreground" aria-hidden="true" d="" display="none"/></g></g></g></svg>