<svg xmlns="http://www.w3.org/2000/svg" xmlns:xlink="http://www.w3.org/1999/xlink" version="1.1" class="marks" width="658" height="244" viewBox="0 0 658 244"><rect width="658" height="244" fill="white"/><g fill="none" stroke-miterlimit="10" transform="translate(104,6)"><g class="mark-group role-frame root" role="graphics-object" aria-roledescription="group mark container"><g transform="translate(0,0)"><path class="background" aria-hidden="true" d="M0,0h0v0h0Z"/><g><g class="mark-group role-row-title row-title" role="graphics-object" aria-roledescription="group mark container"><g transform="translate(-78,116)"><path class="background" aria-hidden="true" d="M0,0h0v0h0Z"/><g><g class="mark-group role-title"><g transform="translate(-21.000000000000004,0)"><path class="background" aria-hidden="true" d="M0,0h0v0h0Z" pointer-events="none"/><g><g class="mark-text role-title-text" role="graphics-symbol" aria-roledescription="title" aria-label="Title text 'group'" pointer-events="none"><text text-anchor="middle" transform="translate(0,0) rotate(-90) translate(0,9)" font-family="Liberation Mono" font-size="11px" font-weight="bold" fill="#000" opacity="1">group</text></g></g><path class="foreground" aria-hidden="true" d="" pointer-events="none" display="none"/></g></g></g><path class="foreground" aria-hidden="true" d="" display="none"/></g></g><g class="mark-group role-row-header row_header" role="graphics-object" aria-roledescription="group mark container"><g transform="translate(-47,0)"><path class="background" aria-hidden="true" d="M0,0h0v200h0Z"/><g><g class="mark-group role-title"><g transform="translate(-20.000000000000007,100)"><path class="background" aria-hidden="true" d="M0,0h0v0h0Z" pointer-events="none"/><g><g class="mark-text role-title-text" role="graphics-symbol" aria-roledescription="title" aria-label="Title text 'zalando-poncho'" pointer-events="none"><text text-anchor="middle" transform="translate(0,0) rotate(-90) translate(0,8)" font-family="Liberation Mono" font-size="10px" fill="#000" opacity="1">zalando-poncho</text></g></g><path class="foreground" aria-hidden="true" d="" pointer-events="none" display="none"/></g></g></g><path class="foreground" aria-hidden="true" d="" display="none"/></g></g><g class="mark-group role-scope cell" role="graphics-object" aria-roledescription="group mark container"><g transform="translate(0,0)"><path class="background" aria-hidden="true" d="M0.5,0.5h200v200h-200Z" stroke="#ddd"/><g><g class="mark-group role-axis" aria-hidden="true"><g transform="translate(0.5,200.5)"><path class="background" aria-hidden="true" d="M0,0h0v0h0Z" pointer-events="none"/><g><g class="mark-rule role-axis-grid" pointer-events="none"><line transform="translate(2,-200)" x2="0" y2="200" stroke="#ddd" stroke-width="1" opacity="1"/><line transform="translate(53,-200)" x2="0" y2="200" stroke="#ddd" stroke-width="1" opacity="1"/><line transform="translate(104,-200)" x2="0" y2="200" stroke="#ddd" stroke-width="1" opacity="1"/><line transform="translate(155,-200)" x2="0" y2="200" stroke="#ddd" stroke-width="1" opacity="1"/></g></g><path class="foreground" aria-hidden="true" d="" pointer-events="none" display="none"/></g></g><g class="mark-group role-axis" aria-hidden="true"><g transform="translate(0.5,0.5)"><path class="background" aria-hidden="true" d="M0,0h0v0h0Z" pointer-events="none"/><g><g class="mark-rule role-axis-grid" pointer-events="none"><line transform="translate(0,200)" x2="200" y2="0" stroke="#ddd" stroke-width="1" opacity="1"/><line transform="translate(0,144)" x2="200" y2="0" stroke="#ddd" stroke-width="1" opacity="1"/><line transform="translate(0,89)" x2="200" y2="0" stroke="#ddd" stroke-width="1" opacity="1"/><line transform="translate(0,33)" x2="200" y2="0" stroke="#ddd" stroke-width="1" opacity="1"/></g></g><path class="foreground" aria-hidden="true" d="" pointer-events="none" display="none"/></g></g><g class="mark-group role-axis" role="graphics-symbol" aria-roledescription="axis" aria-label="X-axis titled 'Time' for a time scale with values from Wednesday, 30 August 2023, 12:58:24 PM to Thursday, 28 December 2023, 4:50:17 AM"><g transform="translate(0.5,200.5)"><path class="background" aria-hidden="true" d="M0,0h0v0h0Z" pointer-events="none"/><g><g class="mark-rule role-axis-tick" pointer-events="none"><line transform="translate(2,0)" x2="0" y2="5" stroke="#888" stroke-width="1" opacity="1"/><line transform="translate(53,0)" x2="0" y2="5" stroke="#888" stroke-width="1" opacity="1"/><line transform="translate(104,0)" x2="0" y2="5" stroke="#888" stroke-width="1" opacity="1"/><line transform="translate(155,0)" x2="0" y2="5" stroke="#888" stroke-width="1" opacity="1"/></g><g class="mark-text role-axis-label" pointer-events="none"><text text-anchor="middle" transform="translate(2.4392971125279286,15)" font-family="Liberation Mono" font-size="10px" fill="#000" opacity="1">September</text><text text-anchor="middle" transform="translate(52.580932215318214,15)" font-family="Liberation Mono" font-size="10px" fill="#000" opacity="0">October</text><text text-anchor="middle" transform="translate(104.39395515486818,15)" font-family="Liberation Mono" font-size="10px" fill="#000" opacity="0">November</text><text text-anchor="middle" transform="translate(154.53559025765847,15)" font-family="Liberation Mono" font-size="10px" fill="#000" opacity="1">December</text></g><g class="mark-rule role-axis-domain" pointer-events="none"><line transform="translate(0,0)" x2="200" y2="0" stroke="#888" stroke-width="1" opacity="1"/></g><g class="mark-text role-axis-title" pointer-events="none"><text text-anchor="middle" transform="translate(100,30)" font-family="Liberation Mono" font-size="11px" font-weight="bold" fill="#000" opacity="1">Time</text></g></g><path class="foreground" aria-hidden="true" d="" pointer-events="none" display="none"/></g></g><g class="mark-group role-axis" role="graphics-symbol" aria-roledescription="axis" aria-label="Y-axis titled 'Price' for a linear scale with values from 0 to 18,000"><g transform="translate(0.5,0.5)"><path class="background" aria-hidden="true" d="M0,0h0v0h0Z" pointer-events="none"/><g><g class="mark-rule role-axis-tick" pointer-events="none"><line transform="translate(0,200)" x2="-5" y2="0" stroke="#888" stroke-width="1" opacity="1"/><line transform="translate(0,144)" x2="-5" y2="0" stroke="#888" stroke-width="1" opacity="1"/><line transform="translate(0,89)" x2="-5" y2="0" stroke="#888" stroke-width="1" opacity="1"/><line transform="translate(0,33)" x2="-5" y2="0" stroke="#888" stroke-width="1" opacity="1"/></g><g class="mark-text role-axis-label" pointer-events="none"><text text-anchor="end" transform="translate(-7,203)" font-family="Liberation Mono" font-size="10px" fill="#000" opacity="1">0</text><text text-anchor="end" transform="translate(-7,147.44444444444443)" font-family="Liberation Mono" font-size="10px" fill="#000" opacity="1">50</text><text text-anchor="end" transform="translate(-7,91.88888888888889)" font-family="Liberation Mono" font-size="10px" fill="#000" opacity="1">100</text><text text-anchor="end" transform="translate(-7,36.33333333333333)" font-family="Liberation Mono" font-size="10px" fill="#000" opacity="1">150</text></g><g class="mark-rule role-axis-domain" pointer-events="none"><line transform="translate(0,200)" x2="0" y2="-200" stroke="#888" stroke-width="1" opacity="1"/></g><g class="mark-text role-axis-title" pointer-events="none"><text text-anchor="middle" transform="translate(-35,100) rotate(-90) translate(0,-2)" font-family="Liberation Mono" font-size="11px" font-weight="bold" fill="#000" opacity="1">Price</text></g></g><path class="foreground" aria-hidden="true" d="" pointer-events="none" display="none"/></g></g><g class="mark-group role-scope child_pathgroup" role="graphics-object" aria-roledescription="group mark container"><g transform="translate(0,0)"><path class="background" aria-hidden="true" d="M0,0h200v200h-200Z"/><g><g class="mark-line role-mark child_marks" role="graphics-object" aria-roledescription="line mark container"><path aria-label="Time: Aug 30, 2023; Price: 10795; item: DESCHUTES_VALLEY™_RAIN_PONCHO_-_Parka_-_black" role="graphics-symbol" aria-roledescription="line mark" d="M0,80.056L0.271,80.056L0.549,80.056L1.106,80.056L1.384,80.056L1.672,80.056L1.941,80.056L2.219,80.056L2.778,80.056L3.055,80.056L3.343,80.056L3.612,80.056L3.891,80.056L4.448,80.056L4.727,80.056L5.011,80.056L5.283,80.056L5.562,80.056L6.12,80.056L6.598,80.056L6.683,80.056L6.955,80.056L7.234,80.056L7.791,80.056L8.07,80.056L8.358,80.056L8.626,80.056L8.905,80.056L9.464,50.056L9.743,50.056L10.029,50.056L10.298,50.056L10.576,50.056L11.134,50.056L11.412,50.056L11.701,50.056L11.969,50.056L12.248,50.056L12.806,50.056L13.084,50.056L13.371,50.056L13.641,50.056L13.92,50.056L14.652,50.056L14.755,50.056L15.042,50.056L15.312,50.056L15.591,50.056L16.147,50.056L16.426,50.056L16.71,50.056L16.983,50.056L17.262,50.056L17.819,50.056L18.097,50.056L18.382,50.056L18.654,50.056L18.933,50.056L19.49,50.056L19.769,50.056L20.058,50.056L20.326,50.056L20.604,50.056L21.162,50.056L21.44,50.056L21.728,50.056L21.997,50.056L22.276,50.056L22.833,20.056L23.112,20.056L23.4,20.056L23.548,20.056L23.669,20.056L23.948,20.056L24.505,20.056L24.783,20.056L25.072,20.056L25.341,20.056L25.619,20.056L26.176,20.056L26.454,20.056L26.742,20.056L27.011,20.056L27.29,20.056L27.847,20.056L28.126,20.056L28.409,20.056L28.683,20.056L28.961,20.056L29.518,20.056L29.797,20.056L30.081,20.056L30.354,20.056L30.633,20.056L31.19,20.056L31.469,20.056L31.758,20.056L32.026,20.056L32.305,20.056L32.861,20.056L33.14,20.056L33.429,20.056L33.697,20.056L33.976,20.056L34.533,20.056L34.812,20.056L35.1,20.056L35.369,20.056L35.647,20.056L36.204,20.056L36.483,20.056L36.772,20.056L37.04,20.056L37.319,20.056L37.876,20.056L38.154,20.056L38.442,20.056L38.711,20.056L38.99,20.056L39.547,20.056L39.826,20.056L40.109,20.056L40.383,20.056L40.661,20.056L41.218,20.056L41.497,20.056L41.781,20.056L42.054,20.056L42.332,20.056L42.89,20.056L43.169,20.056L43.458,20.056L43.725,20.056L44.004,20.056L44.561,20.056L44.84,20.056L45.129,20.056L45.397,20.056L45.675,20.056L46.232,40.056L46.511,40.056L46.8,40.056L47.068,40.056L47.347,40.056L47.904,40.056L48.182,40.056L48.471,40.056L48.739,40.056L49.575,40.056L49.854,40.056L50.141,40.056L50.411,40.056L50.69,40.056L51.247,40.056L51.525,40.056L51.81,40.056L52.082,40.056L52.361,40.056L52.918,40.056L53.197,40.056L53.482,40.056L53.754,40.056L54.032,40.056L54.589,100.056L54.868,100.056L55.157,100.056L55.425,100.056L55.704,100.056L56.261,90.056L56.54,90.056L56.829,90.056L57.097,90.056L57.375,90.056L57.932,90.056L58.211,90.056L58.501,90.056L58.768,90.056L59.047,90.056L59.604,90.056L59.882,90.056L60.173,90.056L60.439,90.056L60.718,90.056L61.275,90.056L61.554,90.056L61.843,90.056L62.111,90.056L62.39,90.056L62.946,90.056L63.225,90.056L63.51,90.056L63.782,90.056L64.061,90.056L64.618,90.056L64.896,90.056L65.454,90.056L65.732,90.056L66.289,90.056L66.568,90.056L66.859,90.056L67.125,90.056L67.403,90.056L67.961,100.056L68.239,100.056L68.529,100.056L68.796,100.056L69.075,100.056L69.632,100.056L69.911,100.056L70.2,100.056L70.468,100.056L70.747,100.056L71.303,100.056L71.582,100.056L71.871,100.056L72.139,100.056L72.418,100.056L72.975,100.056L73.254,100.056L73.543,100.056L73.811,100.056L74.089,100.056L74.646,100.056L74.925,100.056L75.209,100.056L75.482,100.056L75.76,100.056L76.318,100.056L76.596,100.056L76.881,100.056L77.153,100.056L77.432,100.056L77.989,90.056L78.268,90.056L78.557,90.056L78.825,90.056L79.103,90.056L79.66,90.056L79.939,90.056L80.228,90.056L80.496,90.056L80.774,90.056L81.332,90.056L81.61,90.056L81.899,90.056L82.167,90.056L82.446,90.056L83.003,90.056L83.282,90.056L83.571,90.056L83.839,90.056L84.117,90.056L84.675,90.056L84.954,90.056L85.242,90.056L85.51,90.056L85.788,90.056L86.346,90.056L86.624,90.056L86.909,90.056L87.182,90.056L87.46,90.056L88.017,90.056L88.296,90.056L88.58,90.056L88.853,90.056L89.132,90.056L89.688,90.056L89.967,90.056L90.256,90.056L90.525,90.056L90.803,90.056L91.36,50.056L91.639,50.056L91.927,50.056L92.195,50.056L92.474,50.056L93.031,50.056L93.31,50.056L93.598,50.056L93.867,50.056L94.146,50.056L94.703,50.056L94.981,50.056L95.269,50.056L95.538,50.056L95.817,50.056L96.374,50.056L96.654,50.056L96.939,50.056L97.21,50.056L97.489,50.056L98.045,50.056L98.324,50.056L98.608,50.056L98.881,50.056L99.16,50.056L99.717,50.056L99.995,50.056L100.28,50.056L100.553,50.056L100.831,50.056L101.388,50.056L101.667,50.056L101.954,50.056L102.224,50.056L102.503,50.056L103.06,50.056L103.338,50.056L103.626,50.056L103.896,50.056L104.174,50.056L104.731,50.056L105.01,50.056L105.297,50.056L105.567,50.056L105.845,50.056L106.403,40.056L106.681,40.056L106.968,40.056L107.238,40.056L108.91,40.056L109.188,40.056L109.745,40.056L110.309,40.056L110.581,40.056L117.266,40.056L117.545,40.056L118.102,40.056L118.38,40.056L118.668,40.056L118.938,40.056L119.217,40.056L119.774,70.056L120.052,70.056L120.34,70.056L120.609,70.056L120.888,70.056L121.445,70.056L121.724,70.056L122.008,70.056L122.559,70.056L123.116,70.056L123.395,70.056L123.68,70.056L123.952,70.056L124.23,70.056L124.787,40.056L125.066,40.056L125.355,40.056L125.623,40.056L126.459,40.056L126.738,40.056L127.026,40.056L127.295,40.056L127.573,40.056L128.13,40.056L128.409,40.056L128.698,40.056L128.966,40.056L129.244,40.056L129.802,50.056L130.08,50.056L130.37,50.056L130.637,50.056L130.916,50.056L131.473,50.056L131.752,50.056L132.041,50.056L132.309,50.056L132.587,50.056L133.145,40.056L133.423,40.056L133.709,40.056L133.98,40.056L134.259,40.056L134.816,40.056L135.095,40.056L135.38,40.056L135.652,40.056L135.93,40.056L136.487,40.056L136.766,40.056L137.056,40.056L137.323,40.056L137.601,40.056L138.159,40.056L138.437,40.056L138.727,60.056L138.994,60.056L139.273,60.056L139.83,60.056L140.109,60.056L140.398,60.056L140.666,60.056L140.944,60.056L141.501,60.056L141.78,60.056L142.069,80.056L142.337,80.056L142.616,80.056L143.173,80.056L143.451,80.056L143.739,80.056L144.008,80.056L144.287,80.056L144.844,70.056L145.123,70.056L145.408,70.056L145.68,70.056L145.958,70.056L146.515,70.056L146.794,70.056L147.08,70.056L147.351,70.056L147.63,70.056L148.187,40.056L148.466,40.056L148.755,40.056L149.023,40.056L149.301,40.056L149.858,40.056L150.137,40.056L150.425,40.056L150.694,40.056L150.973,40.056L151.53,40.056L151.808,40.056L152.098,40.056L152.366,40.056L152.644,40.056L153.201,40.056L153.479,40.056L153.768,40.056L154.037,40.056L154.316,40.056L154.872,40.056L155.151,40.056L155.44,40.056L155.708,40.056L155.987,40.056L156.544,40.056L156.823,40.056L157.107,40.056L157.38,40.056L157.658,40.056L158.215,40.056L158.494,40.056L158.78,40.056L159.052,40.056L159.33,40.056L159.887,40.056L160.165,40.056L160.454,40.056L160.723,40.056L161.001,40.056L161.558,50.056L161.837,50.056L162.126,50.056L162.394,50.056L162.673,50.056L163.229,50.056L163.508,50.056L163.797,50.056L164.065,50.056L164.344,50.056L164.901,50.056L165.179,50.056L165.469,50.056L165.736,50.056L166.015,50.056L166.572,50.056L166.851,50.056L167.138,50.056L167.408,50.056L167.687,50.056L168.244,50.056L168.522,50.056L168.808,50.056L169.08,50.056L169.358,50.056L169.915,50.056L170.193,50.056L170.479,50.056L170.75,50.056L171.029,50.056L171.586,50.056L171.865,50.056L172.154,50.056L173.258,50.056L173.536,50.056L173.825,50.056L174.094,50.056L174.372,50.056L174.929,50.056L175.208,50.056L175.497,50.056L175.765,50.056L176.044,50.056L176.601,50.056L176.879,50.056L177.168,50.056L177.436,50.056L177.715,50.056L178.272,50.056L178.551,50.056L178.839,50.056L179.108,50.056L179.386,50.056L179.943,50.056L180.222,50.056L180.507,50.056L180.779,50.056L181.057,50.056L181.615,50.056L181.893,50.056L182.179,50.056L182.45,50.056L182.729,50.056L183.286,50.056L183.565,50.056L183.854,50.056L184.122,50.056L184.4,50.056L184.958,50.056L185.236,50.056L185.524,50.056L185.793,50.056L186.072,50.056L186.629,50.056L186.908,50.056L187.188,50.056L187.465,50.056L187.743,50.056L188.3,50.056L188.579,50.056L189.136,50.056L189.414,50.056L189.972,50.056L190.251,50.056L190.537,50.056L190.807,50.056L191.086,50.056L191.643,50.056L191.922,50.056L192.206,50.056L192.479,50.056L192.757,50.056L193.314,50.056L193.593,50.056L193.878,50.056L194.15,50.056L194.429,50.056L194.986,50.056L195.265,50.056L195.551,50.056L195.822,50.056L196.1,50.056L196.657,50.056L196.936,50.056L197.221,50.056L197.493,50.056L197.771,50.056L198.328,50.056L198.607,50.056L198.893,50.056L199.164,50.056L199.443,50.056L200,60.056" stroke="#e45756" stroke-width="2"/></g></g><path class="foreground" aria-hidden="true" d="" display="none"/></g><g transform="translate(0,0)"><path class="background" aria-hidden="true" d="M0,0h200v200h-200Z"/><g><g class="mark-line role-mark child_marks" role="graphics-object" aria-roledescription="line mark container"><path aria-label="Time: Aug 30, 2023; Price: 8995; item: HIKING_BACKPACK_PONCHO_-_Veste_imperméable_-_blue" role="graphics-symbol" aria-roledescription="line mark" d="M0,100.056L0.271,100.056L0.549,100.056L1.106,100.056L1.384,100.056L1.672,100.056L1.941,100.056L2.219,100.056L2.778,100.056L3.055,100.056L3.343,100.056L3.612,100.056L3.891,100.056L4.448,100.056L4.727,100.056L5.011,100.056L5.283,100.056L5.562,100.056L6.12,100.056L6.598,100.056L6.683,100.056L19.769,100.056L20.058,100.056L20.326,100.056L20.604,100.056L21.162,100.056L21.44,100.056L21.728,100.056L21.997,100.056L22.276,100.056L22.833,100.056L23.112,100.056L23.4,100.056L23.548,100.056L23.669,100.056L23.948,100.056L24.505,100.056L24.783,100.056L25.072,100.056L25.341,100.056L25.619,100.056L26.176,100.056L26.454,100.056L26.742,100.056L27.011,100.056L27.29,100.056L27.847,100.056L28.126,100.056L28.409,100.056L28.683,100.056L28.961,100.056L29.518,100.056L29.797,100.056L48.739,111.167L49.575,111.167L49.854,111.167L50.141,111.167L50.411,111.167L50.69,111.167L51.247,111.167L51.525,111.167L51.81,111.167L52.082,111.167L52.361,111.167L52.918,111.167L53.197,111.167L53.482,111.167L53.754,111.167L54.032,111.167L54.589,111.167L54.868,111.167L55.157,111.167L55.425,111.167L55.704,111.167L56.261,127.833L56.54,127.833L56.829,127.833L57.097,127.833L57.375,127.833L57.932,127.833L58.211,127.833L58.501,127.833L58.768,127.833L59.047,127.833L59.604,127.833L59.882,127.833L60.173,127.833L60.439,127.833L60.718,127.833L61.275,127.833L61.554,127.833L61.843,127.833L62.111,127.833L62.39,127.833L62.946,127.833L63.225,127.833L63.51,127.833L63.782,127.833L64.061,127.833L64.618,127.833L64.896,127.833L65.454,127.833L65.732,127.833L66.289,127.833" stroke="#eeca3b" stroke-width="2"/></g></g><path class="foreground" aria-hidden="true" d="" display="none"/></g><g transform="translate(0,0)"><path class="background" aria-hidden="true" d="M0,0h200v200h-200Z"/><g><g class="mark-line role-mark child_marks" role="graphics-object" aria-roledescription="line mark container"><path aria-label="Time: Aug 30, 2023; Price: 16195; item: DESCHUTES_VALLEY™_RAIN_PONCHO_-_Parka_-_vista_blue" role="graphics-symbol" aria-roledescription="line mark" d="M0,20.056L0.271,20.056L0.549,20.056L1.106,20.056L1.384,20.056L1.672,20.056L1.941,20.056L2.219,20.056L2.778,20.056L3.055,20.056L3.343,20.056L3.612,20.056L3.891,20.056L4.448,20.056L4.727,20.056L5.011,20.056L5.283,20.056L5.562,20.056L6.12,20.056L6.598,20.056L6.683,20.056L6.955,20.056L7.234,20.056L7.791,20.056L8.07,20.056L8.358,20.056L8.626,20.056L8.905,20.056L9.464,80.056L9.743,80.056L10.029,80.056L10.298,80.056L10.576,80.056L11.134,80.056L11.412,80.056L11.701,80.056L11.969,80.056L12.248,80.056L12.806,80.056L13.084,80.056L13.371,80.056L13.641,80.056L13.92,80.056L14.652,80.056L14.755,80.056L15.042,80.056L15.312,80.056L15.591,80.056L16.147,80.056L16.426,80.056L16.71,80.056L16.983,80.056L17.262,80.056L17.819,80.056L18.097,80.056L18.382,80.056L18.654,80.056L18.933,80.056L19.49,80.056L19.769,80.056L20.058,80.056L20.326,80.056L20.604,80.056L21.162,80.056L21.44,80.056L21.728,80.056L21.997,80.056L22.276,80.056L22.833,20.056L23.112,20.056L23.4,20.056L23.548,20.056L23.669,20.056L23.948,20.056L24.505,20.056L24.783,20.056L25.072,20.056L25.341,20.056L25.619,20.056L26.176,20.056L26.454,20.056L26.742,20.056L27.011,20.056L27.29,20.056L27.847,20.056L28.126,20.056L28.409,20.056L28.683,20.056L28.961,20.056L29.518,20.056L29.797,20.056L30.081,20.056L30.354,20.056L30.633,20.056L31.19,20.056L31.469,20.056L31.758,20.056L32.026,20.056L32.305,20.056L32.861,20.056L33.14,20.056L33.429,20.056L33.697,20.056L33.976,20.056L34.533,20.056L34.812,20.056L35.1,20.056L35.369,20.056L35.647,20.056L36.204,20.056L36.483,20.056L36.772,20.056L37.04,20.056L37.319,20.056L37.876,20.056L38.154,20.056L38.442,20.056L38.711,20.056L38.99,20.056L39.547,20.056L39.826,20.056L40.109,20.056L40.383,20.056L40.661,20.056L41.218,20.056L41.497,20.056L41.781,20.056L42.054,20.056L42.332,20.056L42.89,20.056L43.169,20.056L43.458,20.056L43.725,20.056L44.004,20.056L44.561,20.056L44.84,20.056L45.129,20.056L45.397,20.056L45.675,20.056L46.232,40.056L46.511,40.056L46.8,40.056L47.068,40.056L47.347,40.056L47.904,40.056L48.182,40.056L48.471,40.056L48.739,40.056L49.575,40.056L49.854,40.056L50.141,40.056L50.411,40.056L50.69,40.056L51.247,40.056L51.525,40.056L51.81,40.056L52.082,40.056L52.361,40.056L52.918,40.056L53.197,40.056L53.482,40.056L53.754,40.056L54.032,40.056L54.589,90.056L54.868,90.056L55.157,90.056L55.425,90.056L55.704,90.056L56.261,40.056L56.54,40.056L56.829,40.056L57.097,40.056L57.375,40.056L57.932,40.056L58.211,40.056L58.501,40.056L58.768,40.056L59.047,40.056L59.604,40.056L59.882,40.056L60.173,40.056L60.439,40.056L60.718,40.056L61.275,40.056L61.554,40.056L61.843,40.056L62.111,40.056L62.39,40.056L62.946,40.056L63.225,40.056L63.51,40.056L63.782,40.056L64.061,40.056L64.618,40.056L64.896,40.056L65.454,40.056L65.732,40.056L66.289,40.056L66.568,40.056L66.859,40.056L67.125,40.056L67.403,40.056L67.961,90.056L68.239,90.056L68.529,90.056L68.796,90.056L69.075,90.056L69.632,90.056L69.911,90.056L70.2,90.056L70.468,90.056L70.747,90.056L71.303,90.056L71.582,90.056L71.871,90.056L72.139,90.056L72.418,90.056L72.975,90.056L73.254,90.056L73.543,90.056L73.811,90.056L74.089,90.056L74.646,40.056L74.925,40.056L75.209,40.056L75.482,40.056L75.76,40.056L76.318,40.056L76.596,40.056L76.881,40.056L77.153,40.056L77.432,40.056L77.989,100.056L78.268,100.056L78.557,100.056L78.825,100.056L79.103,100.056L79.66,100.056L79.939,100.056L80.228,100.056L80.496,100.056L80.774,100.056L81.332,100.056L81.61,100.056L81.899,100.056L82.167,100.056L82.446,100.056L83.003,100.056L83.282,100.056L83.571,100.056L83.839,100.056L84.117,100.056L84.675,100.056L84.954,100.056L85.242,100.056L85.51,100.056L85.788,100.056L86.346,100.056L86.624,100.056L86.909,100.056L87.182,100.056L87.46,100.056L88.017,100.056L88.296,100.056L88.58,100.056L88.853,100.056L89.132,100.056L89.688,100.056L89.967,100.056L90.256,100.056L90.525,100.056L90.803,100.056L91.36,40.056L91.639,40.056L91.927,40.056L92.195,40.056L92.474,40.056L93.031,40.056L93.31,40.056L93.598,40.056L93.867,40.056L94.146,40.056L94.703,40.056L94.982,40.056L95.269,40.056L95.538,40.056L95.817,40.056L96.374,40.056L96.654,40.056L96.939,40.056L97.21,40.056L97.489,40.056L98.045,40.056L98.324,40.056L98.608,40.056L98.881,40.056L99.16,40.056L99.717,40.056L99.995,40.056L100.28,40.056L100.553,40.056L100.831,40.056L101.388,40.056L101.667,40.056L101.954,40.056L102.224,40.056L102.503,40.056L103.06,40.056L103.338,40.056L103.626,40.056L103.896,40.056L104.174,40.056L104.731,40.056L105.01,40.056L105.297,40.056L105.567,40.056L105.845,40.056L106.403,40.056L106.681,40.056L106.968,40.056L107.238,40.056L107.517,40.056L108.074,40.056L108.352,40.056L108.641,40.056L108.91,40.056L109.188,40.056L109.745,40.056L110.024,40.056L110.309,40.056L110.581,40.056L110.86,40.056L111.417,40.056L111.695,40.056L111.98,40.056L112.253,40.056L112.531,40.056L113.088,40.056L113.367,40.056L113.656,40.056L113.924,40.056L114.202,40.056L114.76,40.056L115.038,40.056L115.326,40.056L115.595,40.056L115.874,40.056L116.431,40.056L116.709,40.056L116.997,40.056L117.266,40.056L117.545,40.056L118.102,40.056L118.38,40.056L118.668,40.056L118.938,40.056L119.217,40.056L119.774,40.056L120.052,40.056L120.34,40.056L120.609,40.056L120.888,40.056L121.445,40.056L121.724,40.056L122.008,40.056L122.559,40.056L123.116,40.056L123.395,40.056L123.68,40.056L123.952,40.056L124.23,40.056L124.787,40.056L125.066,40.056L125.355,40.056L125.623,40.056L126.459,40.056L126.738,40.056L127.026,40.056L127.295,40.056L127.573,40.056L128.13,40.056L128.409,40.056L128.698,40.056L128.966,40.056L129.244,40.056L129.802,120.056L130.08,120.056L130.37,120.056L130.637,120.056L130.916,120.056L131.473,120.056L131.752,120.056L132.041,120.056L132.309,120.056L132.587,120.056L133.145,40.056L133.423,40.056L133.709,40.056L133.98,40.056L134.259,40.056L134.816,40.056L135.095,40.056L135.38,40.056L135.652,40.056L135.93,40.056L136.487,50.056L136.766,50.056L137.056,70.056L137.323,70.056L137.601,70.056L138.159,70.056L138.437,70.056L138.727,70.056L138.994,70.056L139.273,70.056L139.83,70.056L140.109,70.056L140.398,70.056L140.666,70.056L140.944,70.056L141.501,120.056L141.78,120.056L142.069,120.056L142.337,120.056L142.616,120.056L143.173,120.056L143.451,120.056L143.739,120.056L144.008,120.056L144.287,120.056L144.844,120.056L145.123,120.056L145.408,120.056L145.68,120.056L145.958,120.056L146.515,120.056L146.794,120.056L147.08,120.056L147.351,120.056L147.63,120.056L148.187,40.056L148.466,40.056L148.755,40.056L149.023,40.056L149.301,40.056L149.858,40.056L150.137,40.056L150.425,40.056L150.694,40.056L150.973,40.056L151.53,40.056L151.808,40.056L152.098,40.056L152.366,40.056L152.644,40.056L153.201,40.056L153.479,40.056L153.768,40.056L154.037,40.056L154.316,40.056L154.872,40.056L155.151,40.056L155.44,40.056L155.708,40.056L155.987,40.056L156.544,40.056L156.823,40.056L157.107,40.056L157.38,40.056L157.658,40.056L158.215,40.056L158.494,40.056L158.78,40.056L159.052,40.056L159.33,40.056L159.887,40.056L160.165,40.056L160.454,40.056L160.723,40.056L161.001,40.056L161.558,100.056L161.837,100.056L162.126,100.056L162.394,100.056L162.673,100.056L163.229,100.056L163.508,100.056L163.797,100.056L164.065,100.056L164.344,100.056L164.901,100.056L165.179,100.056L165.469,100.056L165.736,100.056L166.015,100.056L166.572,100.056L166.851,100.056L167.138,100.056L167.408,100.056L167.687,100.056L168.244,100.056L168.522,100.056L168.808,100.056L169.08,100.056L169.358,100.056L169.915,100.056L170.193,100.056L170.479,100.056L170.75,100.056L171.029,100.056L171.586,100.056L171.865,100.056L172.154,100.056L172.422,100.056L172.701,100.056L173.258,100.056L173.536,100.056L173.825,100.056L174.094,100.056L174.372,100.056L174.929,100.056L175.208,100.056L175.497,100.056L175.765,100.056L176.044,100.056L176.601,100.056L176.879,100.056L177.168,100.056L177.436,100.056L177.715,100.056L178.272,100.056L178.551,100.056L178.839,100.056L179.108,100.056L179.386,100.056L179.943,100.056L180.222,100.056L180.507,100.056L180.779,100.056L181.057,100.056L181.615,90.056L181.893,90.056L182.179,90.056L182.45,90.056L182.729,90.056L183.286,90.056L183.565,90.056L183.854,90.056L184.122,90.056L184.4,90.056L184.958,90.056L185.236,90.056L185.524,90.056L185.793,90.056L186.072,90.056L186.629,90.056L186.908,90.056L187.188,90.056L187.465,90.056L187.743,90.056L188.3,60.056L188.579,60.056L189.136,60.056L189.414,60.056L189.972,60.056L190.251,60.056L190.537,60.056L190.807,60.056L191.086,60.056L191.643,60.056L191.922,60.056L192.206,60.056L192.479,60.056L192.757,60.056L193.314,60.056L193.593,60.056L193.878,60.056L194.15,60.056L194.429,60.056L194.986,60.056L195.265,60.056L195.551,60.056L195.822,60.056L196.1,60.056L196.657,60.056L196.936,60.056L197.221,60.056L197.493,60.056L197.771,60.056L198.329,60.056L198.607,60.056L198.893,60.056L199.164,60.056L199.443,60.056L200,60.056" stroke="#f58518" stroke-width="2"/></g></g><path class="foreground" aria-hidden="true" d="" display="none"/></g><g transform="translate(0,0)"><path class="background" aria-hidden="true" d="M0,0h200v200h-200Z"/><g><g class="mark-line role-mark child_marks" role="graphics-object" aria-roledescription="line mark container"><path aria-label="Time: Aug 30, 2023; Price: 5495; item: COVERO_PONCHO_II_-_Cape_-_lightgrey" role="graphics-symbol" aria-roledescription="line mark" d="M0,138.944L0.271,138.944L0.549,138.944L1.106,138.944L1.384,138.944L1.672,138.944L1.941,138.944L2.219,138.944L2.778,138.944L3.055,138.944L4.727,138.944L5.011,138.944L5.283,138.944L5.562,138.944L6.12,138.944L6.598,138.944L6.683,138.944L6.955,138.944L7.234,138.944L7.791,138.944L8.07,138.944L8.358,138.944L8.626,138.944L8.905,138.944L9.464,138.944L9.743,138.944L10.029,138.944L10.299,138.944L10.576,138.944L15.312,153.944L18.098,138.944L18.382,138.944L18.654,138.944L18.933,138.944L19.49,138.944L19.769,138.944L20.058,138.944L20.326,138.944L20.604,138.944L21.162,138.944L21.44,138.944L21.728,138.944L21.997,138.944L22.276,138.944L22.833,138.944L23.112,138.944L23.4,138.944L23.548,138.944L23.669,138.944L23.948,138.944L24.505,138.944L24.783,138.944L25.072,138.944L25.341,138.944L25.619,138.944L26.176,138.944L26.454,138.944L26.742,138.944L27.011,138.944L27.29,138.944L27.847,138.944L28.126,138.944L28.409,138.944L28.683,138.944L28.961,138.944L29.518,138.944L29.797,138.944L30.081,138.944L30.354,138.944L30.633,138.944L31.19,138.944L31.469,138.944L31.758,138.944L32.026,138.944L32.305,138.944L32.861,138.944L33.14,138.944L33.429,138.944L33.697,138.944L33.976,138.944L34.533,151.167L34.812,151.167L35.1,151.167L35.369,151.167L35.647,151.167L36.204,151.167L36.483,151.167L36.772,151.167L37.04,151.167L37.319,151.167L37.876,151.167L38.154,151.167L38.442,151.167L39.826,151.167L40.109,151.167L40.383,151.167L40.661,151.167L41.218,151.167L41.497,151.167L41.781,151.167L42.054,151.167L42.332,151.167L42.89,151.167L43.169,151.167L43.458,151.167L43.725,151.167L44.004,151.167L44.561,151.167L44.84,151.167L45.129,151.167L45.397,151.167L45.675,151.167L46.233,151.167L46.511,151.167L46.8,151.167L47.068,151.167L47.347,151.167L47.904,151.167L48.182,151.167L48.471,151.167L48.739,151.167L49.575,151.167L49.854,151.167L50.141,151.167L50.411,151.167L50.69,151.167L51.247,151.167L51.525,151.167L51.81,151.167L52.082,151.167L52.361,151.167L52.918,151.167L53.197,151.167L53.482,151.167L53.754,151.167L54.033,151.167L54.589,151.167L54.868,151.167L55.157,151.167L55.425,151.167L55.704,151.167L56.261,151.167L56.54,151.167L56.829,151.167L57.097,151.167L57.375,151.167L57.932,151.167L58.211,151.167L58.501,151.167L58.768,151.167L59.047,151.167L59.604,151.167L59.882,151.167L60.173,151.167L60.439,151.167L60.718,151.167L61.275,151.167L61.554,151.167L61.843,151.167L62.111,151.167L62.39,151.167L63.225,151.167L63.51,151.167L64.618,151.167L64.896,151.167L65.454,151.167L65.732,151.167L67.125,151.167L67.404,151.167L67.961,151.167L68.239,151.167L68.529,151.167L69.075,151.167L69.632,138.944L69.911,138.944L70.2,138.944L70.468,138.944L70.747,138.944L73.811,138.944L75.482,153.944L79.103,153.944L79.66,153.944L80.496,153.944L81.332,153.944L82.167,153.944L82.446,153.944L83.282,153.944L85.51,153.944L85.788,153.944L86.346,153.944L88.58,153.944L88.853,153.944L89.132,153.944L89.688,153.944L90.525,153.944L90.803,153.944L91.36,153.944L91.639,153.944L91.927,153.944L92.474,153.944L93.31,153.944L93.598,153.944L93.867,153.944L94.703,153.944L94.982,153.944L95.538,153.944L97.21,153.944L97.489,153.944L98.045,153.944L98.608,153.944L98.881,153.944L99.16,153.944L99.995,153.944L100.28,153.944L100.553,153.944L101.388,153.944L101.667,153.944L101.954,153.944L102.224,153.944L102.503,153.944L103.06,153.944L103.338,153.944L103.626,153.944L103.896,153.944L104.174,153.944L104.731,153.944L106.681,153.944L106.968,153.944L107.238,153.944L107.517,153.944L108.352,153.944L108.641,153.944L108.91,153.944L109.188,153.944L109.745,145.611L110.024,145.611L115.874,145.611L116.431,145.611L116.709,145.611L116.997,145.611L117.266,145.611L117.545,145.611L118.38,145.611L118.668,145.611L118.938,145.611L119.217,145.611L119.774,145.611L120.34,145.611L120.888,145.611L121.724,145.611L122.008,145.611L122.559,145.611L123.116,145.611L123.395,145.611L123.68,145.611L123.952,145.611L124.23,145.611L124.787,138.944L125.355,138.944L126.459,138.944L126.738,138.944L127.026,138.944L127.295,138.944L127.573,138.944L128.13,138.944L128.409,138.944L128.698,138.944L128.966,138.944L129.244,138.944L130.08,153.944L130.37,153.944L130.637,153.944L130.916,153.944L131.473,153.944L132.309,153.944L132.587,153.944L133.145,153.944L133.423,153.944L133.709,153.944L133.98,160.056L136.766,138.944L137.056,138.944L137.323,138.944L137.601,138.944L138.159,138.944L138.437,138.944L138.727,138.944L138.994,138.944L139.273,138.944L139.83,138.944L140.109,138.944L140.398,138.944L140.666,138.944L140.944,138.944L141.78,163.389L155.44,138.944L156.544,138.944L157.38,138.944L158.494,138.944L160.165,138.944L160.454,138.944L160.723,138.944L161.001,138.944L161.558,138.944L163.508,138.944L164.901,138.944L167.408,138.944L168.522,138.944L168.808,138.944L169.08,138.944L169.358,138.944L169.915,138.944L170.479,138.944L171.865,138.944L172.154,138.944L172.422,138.944L172.701,138.944L173.825,138.944L174.929,138.944L177.168,138.944L178.551,138.944L179.108,138.944L179.386,138.944L179.943,138.944L180.779,138.944L181.057,138.944L181.615,138.944" stroke="#f58518" stroke-width="2"/></g></g><path class="foreground" aria-hidden="true" d="" display="none"/></g><g transform="translate(0,0)"><path class="background" aria-hidden="true" d="M0,0h200v200h-200Z"/><g><g class="mark-line role-mark child_marks" role="graphics-object" aria-roledescription="line mark container"><path aria-label="Time: Sep 01, 2023; Price: 12995; item: KUURA_3L_PONCHO_UNISEX_-_Veste_imperméable_-_green" role="graphics-symbol" aria-roledescription="line mark" d="M3.891,55.611L4.448,55.611L4.727,55.611L5.011,55.611L8.07,55.611L8.358,55.611L8.626,55.611L8.905,55.611L9.464,11.167L9.743,11.167L10.029,11.167L10.298,11.167L10.576,11.167L11.134,11.167L11.412,11.167L11.701,11.167L11.969,11.167L12.248,11.167L12.806,11.167L13.084,11.167L13.371,11.167L13.641,11.167L13.92,11.167L14.652,11.167L14.755,11.167L15.042,11.167L15.312,11.167L15.591,11.167L16.147,11.167L16.426,11.167L16.71,11.167L16.983,11.167L17.262,11.167L17.819,11.167L18.098,11.167L18.382,11.167L18.654,11.167L18.933,11.167L19.49,11.167L19.769,11.167L20.058,11.167L20.326,11.167L21.162,11.167L21.44,11.167L21.728,11.167L21.997,11.167L22.276,11.167L28.409,22.278L28.683,22.278L28.961,22.278L29.518,22.278L29.797,22.278L30.081,22.278L30.354,22.278L30.633,22.278L31.19,22.278L31.469,22.278L31.758,22.278L33.14,22.278L33.429,22.278L33.697,22.278L33.976,22.278L34.533,22.278L34.812,22.278L57.097,22.278L57.375,22.278L57.932,22.278L58.211,22.278L58.501,22.278L58.768,22.278L59.047,22.278L59.604,22.278L59.882,22.278L60.173,22.278L60.439,22.278L60.718,22.278L61.275,22.278L61.554,22.278L61.843,22.278L62.111,22.278L62.39,22.278L62.946,22.278L63.225,22.278L63.51,22.278L63.782,22.278L64.061,22.278L89.688,22.278L89.967,22.278L90.256,22.278L90.525,22.278L90.803,22.278L91.36,22.278L91.639,22.278L91.927,22.278L92.195,22.278" stroke="#4c78a8" stroke-width="2"/></g></g><path class="foreground" aria-hidden="true" d="" display="none"/></g><g transform="translate(0,0)"><path class="background" aria-hidden="true" d="M0,0h200v200h-200Z"/><g><g class="mark-line role-mark child_marks" role="graphics-object" aria-roledescription="line mark container"><path aria-label="Time: Sep 14, 2023; Price: 6495; item: PARIS_ST._GERMAIN_CITY_MADE_PONCHO_-_Veste_de_survêtement_-_aura_white" role="graphics-symbol" aria-roledescription="line mark" d="M24.505,127.833L24.783,127.833L25.072,127.833L25.341,127.833L25.619,127.833L26.176,127.833L26.454,127.833L27.847,127.833L29.797,127.833L30.081,127.833L30.354,127.833L30.633,127.833L31.19,127.833L31.469,127.833L31.758,127.833L32.026,127.833L32.305,127.833L32.861,127.833L33.14,127.833L33.429,127.833L33.697,127.833L33.976,127.833L34.533,127.833L34.812,127.833L35.1,127.833L35.369,127.833L35.647,127.833L36.204,127.833L36.483,127.833L36.772,127.833L37.04,127.833L37.319,127.833L37.876,127.833L38.154,127.833L38.442,127.833L38.711,127.833L38.99,127.833L39.547,127.833L39.826,127.833L40.109,127.833L40.383,127.833L40.661,127.833L41.218,127.833L41.497,127.833L41.781,127.833L42.054,127.833L42.332,127.833L42.89,127.833L43.169,127.833L43.458,127.833L43.725,127.833L44.004,127.833L44.561,127.833L44.84,127.833L45.129,127.833" stroke="#9d755d" stroke-width="2"/></g></g><path class="foreground" aria-hidden="true" d="" display="none"/></g><g transform="translate(0,0)"><path class="background" aria-hidden="true" d="M0,0h200v200h-200Z"/><g><g class="mark-line role-mark child_marks" role="graphics-object" aria-roledescription="line mark container"><path aria-label="Time: Sep 18, 2023; Price: 8995; item: HIKING_BACKPACK_PONCHO_-_Veste_imperméable_-_indian_red" role="graphics-symbol" aria-roledescription="line mark" d="M31.19,100.056L31.469,100.056L31.758,100.056L32.026,100.056L32.305,100.056L32.861,100.056L33.14,100.056L43.725,100.056L44.004,100.056L44.561,100.056L44.84,100.056L45.129,100.056L45.397,100.056L45.675,100.056L46.232,111.167L46.511,111.167L46.8,111.167L47.068,111.167L73.543,111.167L73.811,111.167L74.089,111.167L74.646,111.167L74.925,111.167L75.209,111.167L75.482,111.167L75.76,111.167L76.318,111.167L187.188,122.278L187.465,122.278L187.743,122.278L188.3,111.167L188.579,111.167" stroke="#b279a2" stroke-width="2"/></g></g><path class="foreground" aria-hidden="true" d="" display="none"/></g><g transform="translate(0,0)"><path class="background" aria-hidden="true" d="M0,0h200v200h-200Z"/><g><g class="mark-line role-mark child_marks" role="graphics-object" aria-roledescription="line mark container"><path aria-label="Time: Sep 26, 2023; Price: 6495; item: PSG_M_NSW_CITY_MADE_PONCHO_-_Veste_de_survêtement_-_aura_white" role="graphics-symbol" aria-roledescription="line mark" d="M45.397,127.833L45.675,127.833L46.232,91.167L46.511,91.167L46.8,91.167L47.068,91.167L47.347,91.167L47.904,91.167L48.182,91.167L48.471,91.167L48.739,91.167L49.575,91.167L49.854,91.167L50.141,91.167L50.411,91.167L50.69,91.167L51.247,91.167L51.525,91.167L51.81,91.167L52.082,91.167L52.361,91.167L52.918,91.167L53.197,91.167L53.482,91.167L53.754,91.167L54.033,91.167L54.589,127.833L54.868,127.833L55.157,127.833L55.425,127.833L55.704,127.833L56.261,127.833L56.54,127.833L56.829,127.833L57.097,127.833L57.375,127.833L57.932,127.833L58.211,127.833L58.501,127.833L58.768,127.833L59.047,127.833L59.604,127.833L59.882,127.833L60.173,127.833L60.439,127.833L60.718,127.833L61.275,127.833L61.554,127.833L61.843,127.833L62.111,127.833L62.39,127.833L62.946,127.833L63.225,127.833L63.51,127.833L63.782,127.833L64.061,127.833L64.618,127.833L64.896,127.833L65.454,127.833L65.732,127.833L66.289,127.833L66.568,127.833L66.859,127.833L67.125,127.833L67.403,127.833L67.961,84.5L68.239,84.5L68.529,84.5L69.075,84.5L69.632,84.5L69.911,84.5L70.2,84.5L70.468,84.5L70.747,84.5L71.303,84.5L71.582,84.5L72.975,84.5L73.811,84.5L75.482,127.833L76.318,127.833L78.268,127.833L78.557,127.833L89.132,127.833L89.688,127.833L89.967,127.833L90.256,127.833L91.639,127.833L91.927,127.833L93.867,127.833L94.146,127.833L95.269,127.833L95.817,127.833L96.374,127.833L96.939,127.833L98.324,127.833L99.16,127.833L99.717,127.833L99.995,127.833L100.28,127.833L100.831,127.833L101.667,127.833L102.503,127.833L103.06,127.833L103.338,127.833L103.626,127.833L103.896,127.833L104.174,127.833L104.731,127.833L105.01,127.833L105.297,127.833L105.567,127.833L105.845,127.833L106.403,127.833L106.681,127.833L106.968,127.833L107.238,127.833L107.517,127.833L108.074,127.833L108.352,127.833L108.641,127.833L108.91,127.833L109.188,127.833L109.745,127.833L110.024,127.833L110.309,127.833L110.581,127.833L110.86,127.833L111.417,127.833L111.695,127.833L111.98,127.833L112.253,127.833L112.531,127.833L113.088,127.833L113.367,127.833L113.656,127.833L113.924,127.833L114.202,127.833L114.76,127.833L115.038,127.833L115.326,127.833L115.595,127.833L115.874,127.833L116.431,127.833L116.997,127.833L117.266,127.833L117.545,127.833L118.668,127.833L118.938,127.833L119.774,84.5L120.34,84.5L120.888,84.5L122.559,84.5L124.23,84.5L125.355,127.833L126.459,127.833L126.738,127.833L127.026,127.833L127.573,127.833L128.13,127.833L128.409,127.833L128.698,127.833L128.966,127.833L130.08,156.722L133.423,127.833L133.709,127.833L134.816,127.833L137.601,105.611L138.159,105.611L140.398,105.611L140.666,105.611L141.78,148.944L145.958,148.944L146.515,148.944L149.301,120.056L149.858,127.833L150.973,127.833L152.098,127.833L153.768,127.833L154.316,127.833L155.44,91.167L156.544,91.167L157.38,91.167L158.494,127.833L160.454,91.167L163.508,127.833L167.408,127.833L168.808,127.833L169.358,127.833L170.479,127.833L171.865,127.833L172.154,127.833L172.422,127.833L172.701,127.833L173.258,127.833L173.536,127.833L173.825,127.833L174.094,127.833L174.372,127.833L174.929,127.833L178.551,127.833L179.108,127.833L179.386,127.833L179.943,127.833L180.779,127.833L181.893,120.056L182.179,120.056L182.45,120.056L182.729,120.056L183.286,120.056L183.854,120.056L184.4,120.056L184.958,120.056L185.236,120.056L185.524,120.056L185.793,120.056L186.072,120.056L186.629,120.056L186.908,120.056L187.188,120.056L187.465,120.056L187.743,120.056L188.3,98.944L189.136,98.944L189.972,98.944L190.251,98.944L190.537,98.944L190.807,98.944L191.086,98.944L191.643,98.944L191.922,98.944L192.206,98.944L192.479,98.944L192.757,98.944L193.314,98.944L193.593,98.944L193.878,98.944L194.15,98.944L194.429,98.944L194.986,98.944L195.265,98.944L195.551,98.944L195.822,98.944L196.1,98.944L196.657,98.944L196.936,98.944L197.493,98.944L197.771,98.944L198.329,98.944L198.607,98.944L198.893,98.944L199.443,98.944" stroke="#bab0ac" stroke-width="2"/></g></g><path class="foreground" aria-hidden="true" d="" display="none"/></g><g transform="translate(0,0)"><path class="background" aria-hidden="true" d="M0,0h200v200h-200Z"/><g><g class="mark-line role-mark child_marks" role="graphics-object" aria-roledescription="line mark container"><path aria-label="Time: Oct 12, 2023; Price: 4995; item: SHOWERPROOF_PONCHO_UNISEX_-_Cape_-_classic_tartan" role="graphics-symbol" aria-roledescription="line mark" d="M71.303,144.5L71.582,144.5L71.871,144.5L72.139,144.5L72.418,144.5L72.975,144.5L73.254,144.5L73.543,144.5L73.811,144.5L74.089,144.5L74.646,144.5L74.925,144.5L75.209,144.5L75.482,144.5L75.76,144.5L76.318,144.5L76.596,144.5L76.881,144.5L77.153,144.5L77.432,144.5L77.989,152.611L78.268,152.611L78.557,152.611L78.825,152.611L79.103,152.611L79.66,152.611L79.939,152.611L80.228,152.611L80.496,152.611L80.774,152.611L81.332,152.611L81.61,152.611L81.899,152.611L82.167,152.611L82.446,152.611L83.003,152.611L83.282,152.611L83.571,152.611L83.839,152.611L84.117,152.611L84.675,152.611L84.954,152.611L85.242,152.611L85.51,152.611L85.788,152.611L86.346,152.611L86.624,152.611L86.909,152.611L87.182,152.611L87.46,152.611L88.017,144.5L88.296,144.5L88.58,144.5L88.853,144.5L89.132,144.5L89.688,144.5L89.967,144.5L90.256,144.5L90.525,144.5L90.803,144.5L91.36,152.611L91.639,152.611L91.927,152.611L92.195,152.611L92.474,152.611L93.031,152.611L93.31,152.611L93.598,152.611L93.867,152.611L94.146,152.611L94.703,152.611L94.982,152.611L95.269,152.611L95.538,152.611L95.817,152.611L96.374,152.611L96.654,152.611L96.939,152.611L97.21,152.611L97.489,152.611L98.045,152.611L98.324,152.611L98.608,152.611L98.881,152.611L99.16,152.611L99.717,152.611L99.995,152.611L100.28,152.611L100.553,152.611L100.831,152.611L101.388,144.5L101.667,144.5L101.954,144.5L102.224,144.5L102.503,144.5L103.06,144.5L103.338,144.5L103.626,144.5L103.896,144.5L104.174,144.5L104.731,152.611L105.01,152.611L105.297,152.611L105.567,152.611L105.845,152.611L106.403,152.611L106.681,152.611L106.968,152.611L107.238,152.611L107.517,152.611L108.074,152.611L108.352,152.611L108.641,152.611L108.91,152.611L109.188,152.611L109.745,152.611L110.024,152.611L110.309,152.611L110.581,152.611L110.86,152.611L111.417,152.611L111.695,152.611L111.98,152.611L112.253,152.611L112.531,152.611L113.088,152.611L113.367,152.611L113.656,152.611L113.924,152.611L114.202,152.611L114.76,150.056L115.038,144.5L115.326,144.5L115.595,144.5L115.874,144.5L116.431,144.5L116.709,144.5L116.997,144.5L117.266,144.5L117.545,144.5L118.102,144.5L118.38,144.5L118.668,144.5L118.938,144.5L119.217,144.5L119.774,144.5L120.052,144.5L120.34,144.5L120.609,144.5L120.888,144.5L121.445,144.5L121.724,144.5L122.008,144.5L122.559,144.5L123.116,144.5L123.395,144.5L123.68,144.5L123.952,144.5L124.23,144.5L124.787,144.5L125.066,144.5L125.355,144.5L125.623,144.5L126.459,144.5L126.738,144.5L127.026,144.5L127.295,144.5L127.573,144.5L128.13,144.5L128.409,144.5L128.698,144.5L128.966,144.5L129.244,144.5L129.802,144.5L130.08,144.5L130.37,144.5L130.637,144.5L130.916,144.5L131.473,144.5L131.752,144.5L132.041,144.5L132.309,144.5L132.587,144.5L133.145,144.5L133.423,144.5L133.709,144.5L133.98,144.5L134.259,144.5L134.816,144.5L135.095,144.5L135.38,144.5L135.652,144.5L135.93,144.5L136.487,144.5L136.766,144.5L137.056,144.5L137.323,144.5L137.601,144.5L138.159,144.5L138.437,144.5L138.727,144.5L138.994,144.5L139.273,144.5L139.83,144.5L140.109,144.5L140.398,144.5L140.666,144.5L140.944,144.5L160.723,144.5L161.001,144.5L161.558,144.5L161.837,144.5L162.126,144.5L162.394,144.5L162.673,144.5L163.229,144.5L163.508,144.5L163.797,144.5L164.065,144.5L164.344,144.5L164.901,144.5L165.179,144.5L165.469,144.5L165.736,144.5L166.015,144.5L166.572,144.5L166.851,144.5L167.138,144.5L167.408,144.5L167.687,144.5L168.244,144.5L168.522,144.5L168.808,144.5L169.08,144.5L169.358,144.5L169.915,144.5L170.193,144.5L170.479,144.5L170.75,144.5L171.029,144.5L171.586,144.5L171.865,144.5L172.154,144.5L172.422,144.5L172.701,144.5L173.258,144.5L173.536,144.5L173.825,144.5L174.094,144.5L174.372,144.5L174.929,144.5L175.208,144.5L175.497,144.5L175.765,144.5L176.044,144.5L176.601,144.5L176.879,144.5L177.168,144.5L177.436,144.5L177.715,144.5L178.272,144.5L178.551,144.5L178.839,144.5L179.108,144.5L179.386,144.5L179.943,144.5L180.222,144.5L180.507,144.5L180.779,144.5L181.057,144.5L181.615,144.5L181.893,144.5L182.179,144.5L182.45,144.5L182.729,144.5L183.286,144.5L183.565,144.5L183.854,144.5L184.122,144.5L184.4,144.5L184.958,158.167L185.236,158.167L185.524,158.167L185.793,158.167L186.072,158.167L186.629,158.167L186.908,158.167L187.188,158.167L187.465,158.167L187.743,158.167L188.3,144.5L188.579,144.5L189.136,144.5L189.414,144.5L189.972,144.5L190.251,144.5L190.537,144.5L190.807,144.5L191.086,144.5L191.643,144.5L191.922,144.5L192.206,144.5L192.479,144.5L192.757,144.5L193.314,144.5L193.593,144.5L193.878,144.5L194.15,144.5L194.429,144.5L194.986,144.5L195.265,144.5L195.551,144.5L195.822,144.5L196.1,144.5L196.657,144.5L196.936,144.5L197.221,144.5L197.493,144.5L197.771,144.5L198.329,144.5L198.607,144.5L198.893,144.5L199.164,144.5L199.443,144.5L200,144.5" stroke="#4c78a8" stroke-width="2"/></g></g><path class="foreground" aria-hidden="true" d="" display="none"/></g><g transform="translate(0,0)"><path class="background" aria-hidden="true" d="M0,0h200v200h-200Z"/><g><g class="mark-line role-mark child_marks" role="graphics-object" aria-roledescription="line mark container"><path aria-label="Time: Oct 12, 2023; Price: 13995; item: PONCHO_-_Cape_-_lucid_blue" role="graphics-symbol" aria-roledescription="line mark" d="M71.303,44.5L73.254,44.5L73.811,44.5L74.646,91.167L75.482,91.167L76.596,91.167L76.881,91.167L77.153,91.167L77.432,91.167L77.989,91.167L78.268,91.167L78.557,91.167L78.825,91.167L79.103,91.167L79.66,91.167L79.939,91.167L80.228,91.167L80.496,91.167L80.774,91.167L81.332,91.167L81.61,91.167L81.899,91.167L82.167,91.167L82.446,91.167L83.003,91.167L83.282,91.167L83.571,91.167L84.117,91.167L85.51,91.167L85.788,91.167L86.346,91.167L87.182,91.167L88.017,91.167L88.296,91.167L88.58,91.167L88.853,91.167L89.132,91.167L90.525,91.167L91.36,114.5L91.639,114.5L92.474,114.5L93.31,114.5L93.598,114.5L93.867,114.5L94.703,114.5L96.374,114.5L96.654,114.5L96.939,114.5L97.21,114.5L97.489,114.5L98.045,114.5L98.324,114.5L98.608,114.5L98.881,114.5L99.16,114.5L99.717,114.5L99.995,114.5L100.28,114.5L100.553,114.5L100.831,114.5L101.388,114.5L101.667,114.5L101.954,114.5L102.224,114.5L102.503,114.5L103.06,114.5L103.338,114.5L103.626,114.5L103.896,114.5L104.174,114.5L104.731,114.5L105.01,114.5L105.297,114.5L105.567,114.5L105.845,114.5L106.403,83.389L106.681,83.389L107.517,83.389L108.074,83.389L109.745,83.389L110.024,83.389L110.581,83.389L110.86,83.389L111.417,83.389L111.695,83.389L111.98,83.389L112.253,83.389L112.531,83.389L113.088,83.389L113.367,83.389L114.202,83.389L114.76,44.5L115.038,44.5L115.326,44.5L115.595,44.5L115.874,44.5L116.431,44.5L116.709,44.5L116.997,44.5L117.266,44.5L117.545,44.5L118.102,44.5L118.38,44.5L118.668,44.5L118.938,44.5L119.217,44.5L119.774,122.278L120.34,122.278L120.888,122.278L121.724,122.278L122.008,122.278L122.559,122.278L123.116,122.278L123.395,122.278L123.68,122.278L123.952,122.278L124.23,122.278L124.787,44.5L125.066,44.5L125.355,44.5L125.623,44.5L126.459,44.5L126.738,44.5L127.026,44.5L127.295,44.5L127.573,44.5L128.13,44.5L128.409,44.5L128.698,44.5L128.966,44.5L129.244,44.5L130.08,130.056L130.37,130.056L130.637,130.056L130.916,130.056L131.473,130.056L132.587,130.056L133.145,44.5L133.423,44.5L133.709,44.5L134.816,44.5L135.095,44.5L135.38,44.5L135.652,44.5L135.93,44.5L136.487,60.056L136.766,60.056L137.056,106.722L137.323,106.722L137.601,122.278L138.159,122.278L138.437,122.278L138.727,122.278L138.994,122.278L139.273,122.278L139.83,122.278L140.109,122.278L140.398,122.278L140.666,122.278L140.944,122.278L141.501,122.278L141.78,122.278L142.069,122.278L142.337,122.278L142.616,122.278L143.173,122.278L145.123,130.056L145.408,122.278L145.68,122.278L145.958,122.278L146.515,122.278L146.794,122.278L147.08,122.278L147.351,122.278L147.63,122.278L148.187,122.278L149.301,75.611L149.858,44.5L150.137,44.5L150.425,44.5L150.694,44.5L150.973,44.5L151.53,44.5L151.808,44.5L152.098,44.5L152.366,44.5L152.644,44.5L153.201,44.5L153.479,44.5L153.768,44.5L154.037,44.5L154.316,44.5L154.872,44.5L155.151,44.5L155.44,44.5L155.987,44.5L156.544,44.5L156.823,44.5L157.107,44.5L157.38,44.5L157.658,44.5L158.215,44.5L158.494,44.5L158.78,44.5L159.052,44.5L159.33,44.5L159.887,44.5L160.454,44.5L163.508,91.167L163.797,91.167L164.065,91.167L164.344,91.167L164.901,91.167L167.138,91.167L167.408,91.167L168.808,91.167L169.358,91.167L170.479,122.278L170.75,122.278L171.029,122.278L171.587,122.278L171.865,122.278L172.154,122.278L172.422,122.278L172.701,122.278L173.258,91.167L173.825,91.167L174.094,91.167L174.372,91.167L174.929,91.167L176.879,91.167L177.168,91.167L177.436,91.167L177.715,91.167L178.272,91.167L178.551,91.167L178.839,91.167L179.108,91.167L179.386,91.167L179.943,91.167L180.779,91.167L181.893,106.722L182.179,106.722L182.45,106.722L182.729,106.722L183.286,106.722L183.565,106.722L183.854,106.722L184.122,106.722L184.4,106.722L184.958,106.722L185.236,106.722L185.524,106.722L185.793,106.722L186.072,106.722L186.629,106.722L186.908,106.722L187.188,106.722L187.465,106.722L187.743,106.722L188.3,91.167L189.136,91.167L189.414,91.167L189.972,91.167L190.251,91.167L190.537,91.167L190.807,91.167L191.086,91.167L191.643,91.167L191.922,91.167L192.206,91.167L192.479,91.167L192.757,91.167L193.314,91.167L193.593,91.167L193.878,91.167L194.15,91.167L194.429,91.167L194.986,91.167L195.265,91.167L195.551,91.167L195.822,91.167L196.1,91.167L196.657,91.167L196.936,91.167L197.221,91.167L197.493,91.167L197.771,91.167L198.329,91.167L198.607,91.167L198.893,91.167L199.164,91.167L199.443,91.167L200,83.389" stroke="#54a24b" stroke-width="2"/></g></g><path class="foreground" aria-hidden="true" d="" display="none"/></g><g transform="translate(0,0)"><path class="background" aria-hidden="true" d="M0,0h200v200h-200Z"/><g><g class="mark-line role-mark child_marks" role="graphics-object" aria-roledescription="line mark container"><path aria-label="Time: Dec 18, 2023; Price: 10995; item: K_ESSENTIAL_RAIN_PONCHO_UNISEX_-_Cape_-_black" role="graphics-symbol" aria-roledescription="line mark" d="M183.854,77.833L184.958,77.833L185.236,77.833L185.793,77.833L186.072,77.833L186.629,77.833L187.188,77.833L187.465,77.833L187.743,77.833L189.136,77.833L189.972,77.833L190.251,77.833L190.537,77.833L191.086,77.833L191.643,77.833L191.922,77.833L192.757,77.833L193.314,77.833L193.593,77.833L193.878,77.833L194.15,77.833L194.429,77.833L195.265,77.833L196.1,77.833L196.657,77.833L196.936,77.833L197.771,77.833L198.607,77.833L198.893,77.833L199.443,77.833" stroke="#72b7b2" stroke-width="2"/></g></g><path class="foreground" aria-hidden="true" d="" display="none"/></g><g transform="translate(0,0)"><path class="background" aria-hidden="true" d="M0,0h200v200h-200Z"/><g><g class="mark-line role-mark child_marks" role="graphics-object" aria-roledescription="line mark container"><path aria-label="Time: Dec 18, 2023; Price: 5845; item: PONCHO_-_Peignoir_-_dark_blue" role="graphics-symbol" aria-roledescription="line mark" d="M183.854,135.056L186.072,135.056L190.251,125.056L191.922,125.056L192.757,125.056L194.429,125.056" stroke="#ff9da6" stroke-width="2"/></g></g><path class="foreground" aria-hidden="true" d="" display="none"/></g></g><g class="mark-group role-legend" role="graphics-symbol" aria-roledescription="legend" aria-label="Symbol legend titled 'item' for stroke color with 12 values: KUURA_3L_PONCHO_UNISEX_-_Veste_imperméable_-_green, DESCHUTES_VALLEY™_RAIN_PONCHO_-_Parka_-_vista_blue, DESCHUTES_VALLEY™_RAIN_PONCHO_-_Parka_-_black, K_ESSENTIAL_RAIN_PONCHO_UNISEX_-_Cape_-_black, PONCHO_-_Cape_-_lucid_blue, ending with COVERO_PONCHO_II_-_Cape_-_lightgrey"><g transform="translate(220,0)"><path class="background" aria-hidden="true" d="M0,0h328v170h-328Z" pointer-events="none"/><g><g class="mark-group role-legend-entry"><g transform="translate(0,16)"><path class="background" aria-hidden="true" d="M0,0h0v0h0Z" pointer-events="none"/><g><g class="mark-group role-scope" role="graphics-object" aria-roledescription="group mark container"><g transform="translate(0,0)"><path class="background" aria-hidden="true" d="M0,0h328v11h-328Z" pointer-events="none" opacity="1"/><g><g class="mark-symbol role-legend-symbol" pointer-events="none"><path transform="translate(6,6)" d="M-5,0L5,0" stroke="#4c78a8" stroke-width="1.5" opacity="1"/></g><g class="mark-text role-legend-label" pointer-events="none"><text text-anchor="start" transform="translate(16,9)" font-family="Liberation Mono" font-size="10px" fill="#000" opacity="1">KUURA_3L_PONCHO_UNISEX_-_Veste_impermé…</text></g></g><path class="foreground" aria-hidden="true" d="" pointer-events="none" display="none"/></g><g transform="translate(0,13)"><path class="background" aria-hidden="true" d="M0,0h328v11h-328Z" pointer-events="none" opacity="1"/><g><g class="mark-symbol role-legend-symbol" pointer-events="none"><path transform="translate(6,6)" d="M-5,0L5,0" stroke="#f58518" stroke-width="1.5" opacity="1"/></g><g class="mark-text role-legend-label" pointer-events="none"><text text-anchor="start" transform="translate(16,9)" font-family="Liberation Mono" font-size="10px" fill="#000" opacity="1">DESCHUTES_VALLEY™_RAIN_PONCHO_-_Parka_…</text></g></g><path class="foreground" aria-hidden="true" d="" pointer-events="none" display="none"/></g><g transform="translate(0,26)"><path class="background" aria-hidden="true" d="M0,0h328v11h-328Z" pointer-events="none" opacity="1"/><g><g class="mark-symbol role-legend-symbol" pointer-events="none"><path transform="translate(6,6)" d="M-5,0L5,0" stroke="#e45756" stroke-width="1.5" opacity="1"/></g><g class="mark-text role-legend-label" pointer-events="none"><text text-anchor="start" transform="translate(16,9)" font-family="Liberation Mono" font-size="10px" fill="#000" opacity="1">DESCHUTES_VALLEY™_RAIN_PONCHO_-_Parka_…</text></g></g><path class="foreground" aria-hidden="true" d="" pointer-events="none" display="none"/></g><g transform="translate(0,39)"><path class="background" aria-hidden="true" d="M0,0h328v11h-328Z" pointer-events="none" opacity="1"/><g><g class="mark-symbol role-legend-symbol" pointer-events="none"><path transform="translate(6,6)" d="M-5,0L5,0" stroke="#72b7b2" stroke-width="1.5" opacity="1"/></g><g class="mark-text role-legend-label" pointer-events="none"><text text-anchor="start" transform="translate(16,9)" font-family="Liberation Mono" font-size="10px" fill="#000" opacity="1">K_ESSENTIAL_RAIN_PONCHO_UNISEX_-_Cape_…</text></g></g><path class="foreground" aria-hidden="true" d="" pointer-events="none" display="none"/></g><g transform="translate(0,52)"><path class="background" aria-hidden="true" d="M0,0h328v11h-328Z" pointer-events="none" opacity="1"/><g><g class="mark-symbol role-legend-symbol" pointer-events="none"><path transform="translate(6,6)" d="M-5,0L5,0" stroke="#54a24b" stroke-width="1.5" opacity="1"/></g><g class="mark-text role-legend-label" pointer-events="none"><text text-anchor="start" transform="translate(16,9)" font-family="Liberation Mono" font-size="10px" fill="#000" opacity="1">PONCHO_-_Cape_-_lucid_blue</text></g></g><path class="foreground" aria-hidden="true" d="" pointer-events="none" display="none"/></g><g transform="translate(0,65)"><path class="background" aria-hidden="true" d="M0,0h328v11h-328Z" pointer-events="none" opacity="1"/><g><g class="mark-symbol role-legend-symbol" pointer-events="none"><path transform="translate(6,6)" d="M-5,0L5,0" stroke="#eeca3b" stroke-width="1.5" opacity="1"/></g><g class="mark-text role-legend-label" pointer-events="none"><text text-anchor="start" transform="translate(16,9)" font-family="Liberation Mono" font-size="10px" fill="#000" opacity="1">HIKING_BACKPACK_PONCHO_-_Veste_impermé…</text></g></g><path class="foreground" aria-hidden="true" d="" pointer-events="none" display="none"/></g><g transform="translate(0,78)"><path class="background" aria-hidden="true" d="M0,0h328v11h-328Z" pointer-events="none" opacity="1"/><g><g class="mark-symbol role-legend-symbol" pointer-events="none"><path transform="translate(6,6)" d="M-5,0L5,0" stroke="#b279a2" stroke-width="1.5" opacity="1"/></g><g class="mark-text role-legend-label" pointer-events="none"><text text-anchor="start" transform="translate(16,9)" font-family="Liberation Mono" font-size="10px" fill="#000" opacity="1">HIKING_BACKPACK_PONCHO_-_Veste_impermé…</text></g></g><path class="foreground" aria-hidden="true" d="" pointer-events="none" display="none"/></g><g transform="translate(0,91)"><path class="background" aria-hidden="true" d="M0,0h328v11h-328Z" pointer-events="none" opacity="1"/><g><g class="mark-symbol role-legend-symbol" pointer-events="none"><path transform="translate(6,6)" d="M-5,0L5,0" stroke="#ff9da6" stroke-width="1.5" opacity="1"/></g><g class="mark-text role-legend-label" pointer-events="none"><text text-anchor="start" transform="translate(16,9)" font-family="Liberation Mono" font-size="10px" fill="#000" opacity="1">PONCHO_-_Peignoir_-_dark_blue</text></g></g><path class="foreground" aria-hidden="true" d="" pointer-events="none" display="none"/></g><g transform="translate(0,104)"><path class="background" aria-hidden="true" d="M0,0h328v11h-328Z" pointer-events="none" opacity="1"/><g><g class="mark-symbol role-legend-symbol" pointer-events="none"><path transform="translate(6,6)" d="M-5,0L5,0" stroke="#9d755d" stroke-width="1.5" opacity="1"/></g><g class="mark-text role-legend-label" pointer-events="none"><text text-anchor="start" transform="translate(16,9)" font-family="Liberation Mono" font-size="10px" fill="#000" opacity="1">PARIS_ST._GERMAIN_CITY_MADE_PONCHO_-_V…</text></g></g><path class="foreground" aria-hidden="true" d="" pointer-events="none" display="none"/></g><g transform="translate(0,117)"><path class="background" aria-hidden="true" d="M0,0h328v11h-328Z" pointer-events="none" opacity="1"/><g><g class="mark-symbol role-legend-symbol" pointer-events="none"><path transform="translate(6,6)" d="M-5,0L5,0" stroke="#bab0ac" stroke-width="1.5" opacity="1"/></g><g class="mark-text role-legend-label" pointer-events="none"><text text-anchor="start" transform="translate(16,9)" font-family="Liberation Mono" font-size="10px" fill="#000" opacity="1">PSG_M_NSW_CITY_MADE_PONCHO_-_Veste_de_…</text></g></g><path class="foreground" aria-hidden="true" d="" pointer-events="none" display="none"/></g><g transform="translate(0,130)"><path class="background" aria-hidden="true" d="M0,0h328v11h-328Z" pointer-events="none" opacity="1"/><g><g class="mark-symbol role-legend-symbol" pointer-events="none"><path transform="translate(6,6)" d="M-5,0L5,0" stroke="#4c78a8" stroke-width="1.5" opacity="1"/></g><g class="mark-text role-legend-label" pointer-events="none"><text text-anchor="start" transform="translate(16,9)" font-family="Liberation Mono" font-size="10px" fill="#000" opacity="1">SHOWERPROOF_PONCHO_UNISEX_-_Cape_-_cla…</text></g></g><path class="foreground" aria-hidden="true" d="" pointer-events="none" display="none"/></g><g transform="translate(0,143)"><path class="background" aria-hidden="true" d="M0,0h328v11h-328Z" pointer-events="none" opacity="1"/><g><g class="mark-symbol role-legend-symbol" pointer-events="none"><path transform="translate(6,6)" d="M-5,0L5,0" stroke="#f58518" stroke-width="1.5" opacity="1"/></g><g class="mark-text role-legend-label" pointer-events="none"><text text-anchor="start" transform="translate(16,9)" font-family="Liberation Mono" font-size="10px" fill="#000" opacity="1">COVERO_PONCHO_II_-_Cape_-_lightgrey</text></g></g><path class="foreground" aria-hidden="true" d="" pointer-events="none" display="none"/></g></g></g><path class="foreground" aria-hidden="true" d="" pointer-events="none" display="none"/></g></g><g class="mark-text role-legend-title" pointer-events="none"><text text-anchor="start" transform="translate(0,9)" font-family="Liberation Mono" font-size="11px" font-weight="bold" fill="#000" opacity="1">item</text></g></g><path class="foreground" aria-hidden="true" d="" pointer-events="none" display="none"/></g></g></g><path class="foreground" aria-hidden="true" d="" display="none"/></g></g></g><path class="foreground" aria-hidden="true" d="" display="none"/></g></g></g></svg>