<svg xmlns="http://www.w3.org/2000/svg" xmlns:xlink="http://www.w3.org/1999/xlink" version="1.1" class="marks" width="658" height="244" viewBox="0 0 658 244"><rect width="658" height="244" fill="white"/><g fill="none" stroke-miterlimit="10" transform="translate(104,6)"><g class="mark-group role-frame root" role="graphics-object" aria-roledescription="group mark container"><g transform="translate(0,0)"><path class="background" aria-hidden="true" d="M0,0h0v0h0Z"/><g><g class="mark-group role-row-title row-title" role="graphics-object" aria-roledescription="group mark container"><g transform="translate(-78,116)"><path class="background" aria-hidden="true" d="M0,0h0v0h0Z"/><g><g class="mark-group role-title"><g transform="translate(-21.000000000000004,0)"><path class="background" aria-hidden="true" d="M0,0h0v0h0Z" pointer-events="none"/><g><g class="mark-text role-title-text" role="graphics-symbol" aria-roledescription="title" aria-label="Title text 'group'" pointer-events="none"><text text-anchor="middle" transform="translate(0,0) rotate(-90) translate(0,9)" font-family="Liberation Mono" font-size="11px" font-weight="bold" fill="#000" opacity="1">group</text></g></g><path class="foreground" aria-hidden="true" d="" pointer-events="none" display="none"/></g></g></g><path class="foreground" aria-hidden="true" d="" display="none"/></g></g><g class="mark-group role-row-header row_header" role="graphics-object" aria-roledescription="group mark container"><g transform="translate(-47,0)"><path class="background" aria-hidden="true" d="M0,0h0v200h0Z"/><g><g class="mark-group role-title"><g transform="translate(-20.000000000000007,100)"><path class="background" aria-hidden="true" d="M0,0h0v0h0Z" pointer-events="none"/><g><g class="mark-text role-title-text" role="graphics-symbol" aria-roledescription="title" aria-label="Title text 'zalando-poncho'" pointer-events="none"><text text-anchor="middle" transform="translate(0,0) rotate(-90) translate(0,8)" font-family="Liberation Mono" font-size="10px" fill="#000" opacity="1">zalando-poncho</text></g></g><path class="foreground" aria-hidden="true" d="" pointer-events="none" display="none"/></g></g></g><path class="foreground" aria-hidden="true" d="" display="none"/></g></g><g class="mark-group role-scope cell" role="graphics-object" aria-roledescription="group mark container"><g transform="translate(0,0)"><path class="background" aria-hidden="true" d="M0.5,0.5h200v200h-200Z" stroke="#ddd"/><g><g class="mark-group role-axis" aria-hidden="true"><g transform="translate(0.5,200.5)"><path class="background" aria-hidden="true" d="M0,0h0v0h0Z" pointer-events="none"/><g><g class="mark-rule role-axis-grid" pointer-events="none"><line transform="translate(18,-200)" x2="0" y2="200" stroke="#ddd" stroke-width="1" opacity="1"/><line transform="translate(55,-200)" x2="0" y2="200" stroke="#ddd" stroke-width="1" opacity="1"/><line transform="translate(91,-200)" x2="0" y2="200" stroke="#ddd" stroke-width="1" opacity="1"/><line transform="translate(128,-200)" x2="0" y2="200" stroke="#ddd" stroke-width="1" opacity="1"/><line transform="translate(164,-200)" x2="0" y2="200" stroke="#ddd" stroke-width="1" opacity="1"/></g></g><path class="foreground" aria-hidden="true" d="" pointer-events="none" display="none"/></g></g><g class="mark-group role-axis" aria-hidden="true"><g transform="translate(0.5,0.5)"><path class="background" aria-hidden="true" d="M0,0h0v0h0Z" pointer-events="none"/><g><g class="mark-rule role-axis-grid" pointer-events="none"><line transform="translate(0,200)" x2="200" y2="0" stroke="#ddd" stroke-width="1" opacity="1"/><line transform="translate(0,144)" x2="200" y2="0" stroke="#ddd" stroke-width="1" opacity="1"/><line transform="translate(0,89)" x2="200" y2="0" stroke="#ddd" stroke-width="1" opacity="1"/><line transform="translate(0,33)" x2="200" y2="0" stroke="#ddd" stroke-width="1" opacity="1"/></g></g><path class="foreground" aria-hidden="true" d="" pointer-events="none" display="none"/></g></g><g class="mark-group role-axis" role="graphics-symbol" aria-roledescription="axis" aria-label="X-axis titled 'Time' for a time scale with values from Wednesday, 30 August 2023, 12:58:24 PM to Saturday, 07 October 2023, 8:50:55 PM"><g transform="translate(0.5,200.5)"><path class="background" aria-hidden="true" d="M0,0h0v0h0Z" pointer-events="none"/><g><g class="mark-rule role-axis-tick" pointer-events="none"><line transform="translate(18,0)" x2="0" y2="5" stroke="#888" stroke-width="1" opacity="1"/><line transform="translate(55,0)" x2="0" y2="5" stroke="#888" stroke-width="1" opacity="1"/><line transform="translate(91,0)" x2="0" y2="5" stroke="#888" stroke-width="1" opacity="1"/><line transform="translate(128,0)" x2="0" y2="5" stroke="#888" stroke-width="1" opacity="1"/><line transform="translate(164,0)" x2="0" y2="5" stroke="#888" stroke-width="1" opacity="1"/></g><g class="mark-text role-axis-label" pointer-events="none"><text text-anchor="middle" transform="translate(18.05171839218159,15)" font-family="Liberation Mono" font-size="10px" fill="#000" opacity="1">Sep 03</text><text text-anchor="middle" transform="translate(54.57840452846984,15)" font-family="Liberation Mono" font-size="10px" fill="#000" opacity="0">Sep 10</text><text text-anchor="middle" transform="translate(91.10509066475808,15)" font-family="Liberation Mono" font-size="10px" fill="#000" opacity="1">Sep 17</text><text text-anchor="middle" transform="translate(127.63177680104631,15)" font-family="Liberation Mono" font-size="10px" fill="#000" opacity="0">Sep 24</text><text text-anchor="middle" transform="translate(164.15846293733455,15)" font-family="Liberation Mono" font-size="10px" fill="#000" opacity="1">October</text></g><g class="mark-rule role-axis-domain" pointer-events="none"><line transform="translate(0,0)" x2="200" y2="0" stroke="#888" stroke-width="1" opacity="1"/></g><g class="mark-text role-axis-title" pointer-events="none"><text text-anchor="middle" transform="translate(100,30)" font-family="Liberation Mono" font-size="11px" font-weight="bold" fill="#000" opacity="1">Time</text></g></g><path class="foreground" aria-hidden="true" d="" pointer-events="none" display="none"/></g></g><g class="mark-group role-axis" role="graphics-symbol" aria-roledescription="axis" aria-label="Y-axis titled 'Price' for a linear scale with values from 0 to 18,000"><g transform="translate(0.5,0.5)"><path class="background" aria-hidden="true" d="M0,0h0v0h0Z" pointer-events="none"/><g><g class="mark-rule role-axis-tick" pointer-events="none"><line transform="translate(0,200)" x2="-5" y2="0" stroke="#888" stroke-width="1" opacity="1"/><line transform="translate(0,144)" x2="-5" y2="0" stroke="#888" stroke-width="1" opacity="1"/><line transform="translate(0,89)" x2="-5" y2="0" stroke="#888" stroke-width="1" opacity="1"/><line transform="translate(0,33)" x2="-5" y2="0" stroke="#888" stroke-width="1" opacity="1"/></g><g class="mark-text role-axis-label" pointer-events="none"><text text-anchor="end" transform="translate(-7,203)" font-family="Liberation Mono" font-size="10px" fill="#000" opacity="1">0</text><text text-anchor="end" transform="translate(-7,147.44444444444443)" font-family="Liberation Mono" font-size="10px" fill="#000" opacity="1">50</text><text text-anchor="end" transform="translate(-7,91.88888888888889)" font-family="Liberation Mono" font-size="10px" fill="#000" opacity="1">100</text><text text-anchor="end" transform="translate(-7,36.33333333333333)" font-family="Liberation Mono" font-size="10px" fill="#000" opacity="1">150</text></g><g class="mark-rule role-axis-domain" pointer-events="none"><line transform="translate(0,200)" x2="0" y2="-200" stroke="#888" stroke-width="1" opacity="1"/></g><g class="mark-text role-axis-title" pointer-events="none"><text text-anchor="middle" transform="translate(-35,100) rotate(-90) translate(0,-2)" font-family="Liberation Mono" font-size="11px" font-weight="bold" fill="#000" opacity="1">Price</text></g></g><path class="foreground" aria-hidden="true" d="" pointer-events="none" display="none"/></g></g><g class="mark-group role-scope child_pathgroup" role="graphics-object" aria-roledescription="group mark container"><g transform="translate(0,0)"><path class="background" aria-hidden="true" d="M0,0h200v200h-200Z"/><g><g class="mark-line role-mark child_marks" role="graphics-object" aria-roledescription="line mark container"><path aria-label="Time: Aug 30, 2023; Price: 10795; item: DESCHUTES_VALLEY™_RAIN_PONCHO_-_Parka_-_black" role="graphics-symbol" aria-roledescription="line mark" d="M0,80.056L0.847,80.056L1.713,80.056L3.452,80.056L4.321,80.056L5.22,80.056L6.06,80.056L6.929,80.056L8.671,80.056L9.539,80.056L10.436,80.056L11.278,80.056L12.148,80.056L13.888,80.056L14.757,80.056L15.643,80.056L16.495,80.056L17.366,80.056L19.106,80.056L20.6,80.056L20.864,80.056L21.714,80.056L22.584,80.056L24.324,80.056L25.195,80.056L26.093,80.056L26.932,80.056L27.801,80.056L29.546,50.056L30.417,50.056L31.31,50.056L32.152,50.056L33.02,50.056L34.76,50.056L35.629,50.056L36.531,50.056L37.368,50.056L38.239,50.056L39.98,50.056L40.849,50.056L41.745,50.056L42.587,50.056L43.457,50.056L45.744,50.056L46.065,50.056L46.961,50.056L47.804,50.056L48.674,50.056L50.412,50.056L51.283,50.056L52.17,50.056L53.022,50.056L53.892,50.056L55.632,50.056L56.501,50.056L57.387,50.056L58.24,50.056L59.109,50.056L60.849,50.056L61.719,50.056L62.621,50.056L63.458,50.056L64.327,50.056L66.068,50.056L66.936,50.056L67.836,50.056L68.676,50.056L69.547,50.056L71.286,20.056L72.156,20.056L73.057,20.056L73.516,20.056L73.895,20.056L74.765,20.056L76.504,20.056L77.373,20.056L78.275,20.056L79.114,20.056L79.982,20.056L81.721,20.056L82.591,20.056L83.489,20.056L84.33,20.056L85.2,20.056L86.939,20.056L87.81,20.056L88.694,20.056L89.549,20.056L90.417,20.056L92.157,20.056L93.027,20.056L93.914,20.056L94.766,20.056L95.637,20.056L97.376,20.056L98.245,20.056L99.148,20.056L99.985,20.056L100.855,20.056L102.593,20.056L103.463,20.056L104.365,20.056L105.203,20.056L106.073,20.056L107.811,20.056L108.683,20.056L109.584,20.056L110.421,20.056L111.29,20.056L113.029,20.056L113.899,20.056L114.802,20.056L115.639,20.056L116.509,20.056L118.248,20.056L119.118,20.056L120.017,20.056L120.857,20.056L121.726,20.056L123.466,20.056L124.336,20.056L125.222,20.056L126.075,20.056L126.946,20.056L128.684,20.056L129.554,20.056L130.442,20.056L131.294,20.056L132.162,20.056L133.903,20.056L134.773,20.056L135.676,20.056L136.511,20.056L137.38,20.056L139.12,20.056L139.991,20.056L140.895,20.056L141.729,20.056L142.599,20.056L144.338,40.056L145.208,40.056L146.11,40.056L146.948,40.056L147.819,40.056L149.557,40.056L150.426,40.056L151.328,40.056L152.165,40.056L154.774,40.056L155.644,40.056L156.542,40.056L157.384,40.056L158.254,40.056L159.992,40.056L160.862,40.056L161.75,40.056L162.601,40.056L163.471,40.056L165.211,40.056L166.081,40.056L166.971,40.056L167.82,40.056L168.69,40.056L170.429,100.056L171.299,100.056L172.201,100.056L173.039,100.056L173.908,100.056L175.648,90.056L176.519,90.056L177.42,90.056L178.257,90.056L179.125,90.056L180.864,90.056L181.736,90.056L182.642,90.056L183.475,90.056L184.345,90.056L186.083,90.056L186.952,90.056L187.861,90.056L188.692,90.056L189.564,90.056L191.301,90.056L192.172,90.056L193.075,90.056L193.911,90.056L194.782,90.056L196.52,90.056L197.391,90.056L198.279,90.056L199.128,90.056L200,90.056" stroke="#e45756" stroke-width="2"/></g></g><path class="foreground" aria-hidden="true" d="" display="none"/></g><g transform="translate(0,0)"><path class="background" aria-hidden="true" d="M0,0h200v200h-200Z"/><g><g class="mark-line role-mark child_marks" role="graphics-object" aria-roledescription="line mark container"><path aria-label="Time: Aug 30, 2023; Price: 8995; item: HIKING_BACKPACK_PONCHO_-_Veste_imperméable_-_blue" role="graphics-symbol" aria-roledescription="line mark" d="M0,100.056L0.847,100.056L1.713,100.056L3.452,100.056L4.321,100.056L5.22,100.056L6.06,100.056L6.929,100.056L8.672,100.056L9.539,100.056L10.436,100.056L11.278,100.056L12.148,100.056L13.888,100.056L14.757,100.056L15.643,100.056L16.495,100.056L17.366,100.056L19.106,100.056L20.6,100.056L20.864,100.056L61.719,100.056L62.621,100.056L63.458,100.056L64.327,100.056L66.068,100.056L66.936,100.056L67.836,100.056L68.676,100.056L69.547,100.056L71.286,100.056L72.156,100.056L73.057,100.056L73.516,100.056L73.895,100.056L74.765,100.056L76.504,100.056L77.373,100.056L78.275,100.056L79.114,100.056L79.982,100.056L81.721,100.056L82.591,100.056L83.489,100.056L84.33,100.056L85.2,100.056L86.939,100.056L87.81,100.056L88.694,100.056L89.549,100.056L90.417,100.056L92.157,100.056L93.027,100.056L152.165,111.167L154.774,111.167L155.644,111.167L156.542,111.167L157.384,111.167L158.254,111.167L159.993,111.167L160.862,111.167L161.75,111.167L162.601,111.167L163.471,111.167L165.211,111.167L166.081,111.167L166.971,111.167L167.82,111.167L168.69,111.167L170.429,111.167L171.299,111.167L172.201,111.167L173.039,111.167L173.908,111.167L175.648,127.833L176.519,127.833L177.42,127.833L178.257,127.833L179.125,127.833L180.864,127.833L181.736,127.833L182.642,127.833L183.475,127.833L184.345,127.833L186.083,127.833L186.952,127.833L187.861,127.833L188.692,127.833L189.564,127.833L191.301,127.833L192.172,127.833L193.075,127.833L193.911,127.833L194.782,127.833L196.52,127.833L197.391,127.833L198.279,127.833L199.128,127.833L200,127.833" stroke="#72b7b2" stroke-width="2"/></g></g><path class="foreground" aria-hidden="true" d="" display="none"/></g><g transform="translate(0,0)"><path class="background" aria-hidden="true" d="M0,0h200v200h-200Z"/><g><g class="mark-line role-mark child_marks" role="graphics-object" aria-roledescription="line mark container"><path aria-label="Time: Aug 30, 2023; Price: 16195; item: DESCHUTES_VALLEY™_RAIN_PONCHO_-_Parka_-_vista_blue" role="graphics-symbol" aria-roledescription="line mark" d="M0,20.056L0.847,20.056L1.713,20.056L3.452,20.056L4.321,20.056L5.22,20.056L6.06,20.056L6.929,20.056L8.672,20.056L9.539,20.056L10.436,20.056L11.278,20.056L12.148,20.056L13.888,20.056L14.757,20.056L15.643,20.056L16.495,20.056L17.366,20.056L19.106,20.056L20.6,20.056L20.864,20.056L21.714,20.056L22.584,20.056L24.324,20.056L25.195,20.056L26.093,20.056L26.932,20.056L27.801,20.056L29.546,80.056L30.417,80.056L31.31,80.056L32.152,80.056L33.02,80.056L34.76,80.056L35.629,80.056L36.531,80.056L37.368,80.056L38.239,80.056L39.98,80.056L40.849,80.056L41.745,80.056L42.587,80.056L43.457,80.056L45.744,80.056L46.065,80.056L46.961,80.056L47.804,80.056L48.674,80.056L50.412,80.056L51.283,80.056L52.17,80.056L53.022,80.056L53.892,80.056L55.632,80.056L56.501,80.056L57.387,80.056L58.24,80.056L59.109,80.056L60.849,80.056L61.719,80.056L62.621,80.056L63.458,80.056L64.327,80.056L66.068,80.056L66.936,80.056L67.836,80.056L68.676,80.056L69.547,80.056L71.286,20.056L72.156,20.056L73.057,20.056L73.516,20.056L73.895,20.056L74.765,20.056L76.504,20.056L77.373,20.056L78.275,20.056L79.114,20.056L79.982,20.056L81.721,20.056L82.591,20.056L83.489,20.056L84.33,20.056L85.2,20.056L86.939,20.056L87.81,20.056L88.694,20.056L89.549,20.056L90.417,20.056L92.157,20.056L93.027,20.056L93.914,20.056L94.766,20.056L95.637,20.056L97.376,20.056L98.245,20.056L99.148,20.056L99.985,20.056L100.855,20.056L102.593,20.056L103.463,20.056L104.365,20.056L105.203,20.056L106.073,20.056L107.811,20.056L108.683,20.056L109.584,20.056L110.421,20.056L111.29,20.056L113.029,20.056L113.899,20.056L114.802,20.056L115.639,20.056L116.509,20.056L118.248,20.056L119.118,20.056L120.017,20.056L120.857,20.056L121.726,20.056L123.466,20.056L124.336,20.056L125.222,20.056L126.075,20.056L126.946,20.056L128.684,20.056L129.554,20.056L130.442,20.056L131.294,20.056L132.162,20.056L133.903,20.056L134.773,20.056L135.676,20.056L136.511,20.056L137.38,20.056L139.12,20.056L139.991,20.056L140.895,20.056L141.729,20.056L142.599,20.056L144.338,40.056L145.208,40.056L146.11,40.056L146.948,40.056L147.819,40.056L149.557,40.056L150.426,40.056L151.328,40.056L152.165,40.056L154.774,40.056L155.644,40.056L156.542,40.056L157.384,40.056L158.254,40.056L159.992,40.056L160.862,40.056L161.75,40.056L162.601,40.056L163.471,40.056L165.211,40.056L166.081,40.056L166.971,40.056L167.82,40.056L168.69,40.056L170.429,90.056L171.299,90.056L172.201,90.056L173.039,90.056L173.908,90.056L175.648,40.056L176.519,40.056L177.42,40.056L178.257,40.056L179.125,40.056L180.864,40.056L181.736,40.056L182.642,40.056L183.475,40.056L184.345,40.056L186.083,40.056L186.952,40.056L187.861,40.056L188.692,40.056L189.564,40.056L191.301,40.056L192.172,40.056L193.075,40.056L193.911,40.056L194.781,40.056L196.519,40.056L197.391,40.056L198.279,40.056L199.128,40.056L200,40.056" stroke="#4c78a8" stroke-width="2"/></g></g><path class="foreground" aria-hidden="true" d="" display="none"/></g><g transform="translate(0,0)"><path class="background" aria-hidden="true" d="M0,0h200v200h-200Z"/><g><g class="mark-line role-mark child_marks" role="graphics-object" aria-roledescription="line mark container"><path aria-label="Time: Aug 30, 2023; Price: 5495; item: COVERO_PONCHO_II_-_Cape_-_lightgrey" role="graphics-symbol" aria-roledescription="line mark" d="M0,138.944L0.847,138.944L1.713,138.944L3.452,138.944L4.321,138.944L5.22,138.944L6.061,138.944L6.929,138.944L8.672,138.944L9.539,138.944L14.757,138.944L15.643,138.944L16.495,138.944L17.366,138.944L19.106,138.944L20.6,138.944L20.864,138.944L21.714,138.944L22.584,138.944L24.324,138.944L25.195,138.944L26.093,138.944L26.932,138.944L27.801,138.944L29.546,138.944L30.417,138.944L31.31,138.944L32.152,138.944L33.02,138.944L47.804,153.944L56.501,138.944L57.388,138.944L58.24,138.944L59.109,138.944L60.849,138.944L61.719,138.944L62.621,138.944L63.458,138.944L64.327,138.944L66.068,138.944L66.936,138.944L67.836,138.944L68.676,138.944L69.547,138.944L71.286,138.944L72.156,138.944L73.057,138.944L73.516,138.944L73.895,138.944L74.765,138.944L76.504,138.944L77.373,138.944L78.275,138.944L79.114,138.944L79.982,138.944L81.721,138.944L82.591,138.944L83.489,138.944L84.33,138.944L85.2,138.944L86.939,138.944L87.81,138.944L88.694,138.944L89.549,138.944L90.417,138.944L92.157,138.944L93.027,138.944L93.914,138.944L94.766,138.944L95.637,138.944L97.376,138.944L98.245,138.944L99.148,138.944L99.985,138.944L100.855,138.944L102.593,138.944L103.463,138.944L104.365,138.944L105.203,138.944L106.073,138.944L107.811,151.167L108.683,151.167L109.584,151.167L110.421,151.167L111.29,151.167L113.029,151.167L113.899,151.167L114.803,151.167L115.639,151.167L116.509,151.167L118.248,151.167L119.118,151.167L120.017,151.167L124.336,151.167L125.222,151.167L126.075,151.167L126.946,151.167L128.684,151.167L129.554,151.167L130.442,151.167L131.294,151.167L132.162,151.167L133.903,151.167L134.773,151.167L135.676,151.167L136.511,151.167L137.38,151.167L139.12,151.167L139.991,151.167L140.895,151.167L141.729,151.167L142.6,151.167L144.339,151.167L145.208,151.167L146.11,151.167L146.948,151.167L147.819,151.167L149.557,151.167L150.426,151.167L151.328,151.167L152.165,151.167L154.774,151.167L155.644,151.167L156.542,151.167L157.385,151.167L158.254,151.167L159.993,151.167L160.862,151.167L161.75,151.167L162.601,151.167L163.471,151.167L165.211,151.167L166.081,151.167L166.971,151.167L167.82,151.167L168.69,151.167L170.429,151.167L171.299,151.167L172.201,151.167L173.039,151.167L173.908,151.167L175.648,151.167L176.519,151.167L177.42,151.167L178.257,151.167L179.126,151.167L180.864,151.167L181.736,151.167L182.642,151.167L183.475,151.167L184.345,151.167L186.083,151.167L186.952,151.167L187.861,151.167L188.692,151.167L189.564,151.167L191.301,151.167L192.172,151.167L193.075,151.167L193.911,151.167L194.782,151.167L197.391,151.167L198.279,151.167" stroke="#ff9da6" stroke-width="2"/></g></g><path class="foreground" aria-hidden="true" d="" display="none"/></g><g transform="translate(0,0)"><path class="background" aria-hidden="true" d="M0,0h200v200h-200Z"/><g><g class="mark-line role-mark child_marks" role="graphics-object" aria-roledescription="line mark container"><path aria-label="Time: Sep 01, 2023; Price: 12995; item: KUURA_3L_PONCHO_UNISEX_-_Veste_imperméable_-_green" role="graphics-symbol" aria-roledescription="line mark" d="M12.148,55.611L13.888,55.611L14.757,55.611L15.643,55.611L25.195,55.611L26.093,55.611L26.932,55.611L27.801,55.611L29.546,11.167L30.417,11.167L31.31,11.167L32.152,11.167L33.02,11.167L34.76,11.167L35.629,11.167L36.531,11.167L37.368,11.167L38.239,11.167L39.98,11.167L40.849,11.167L41.745,11.167L42.587,11.167L43.457,11.167L45.744,11.167L46.065,11.167L46.961,11.167L47.804,11.167L48.674,11.167L50.412,11.167L51.283,11.167L52.17,11.167L53.022,11.167L53.892,11.167L55.632,11.167L56.501,11.167L57.388,11.167L58.24,11.167L59.109,11.167L60.849,11.167L61.719,11.167L62.621,11.167L63.458,11.167L66.068,11.167L66.936,11.167L67.836,11.167L68.676,11.167L69.547,11.167L88.694,22.278L89.549,22.278L90.417,22.278L92.157,22.278L93.027,22.278L93.914,22.278L94.766,22.278L95.637,22.278L97.376,22.278L98.245,22.278L99.148,22.278L103.463,22.278L104.365,22.278L105.203,22.278L106.073,22.278L107.811,22.278L108.683,22.278L178.257,22.278L179.125,22.278L180.864,22.278L181.736,22.278L182.642,22.278L183.475,22.278L184.345,22.278L186.083,22.278L186.952,22.278L187.861,22.278L188.692,22.278L189.564,22.278L191.301,22.278L192.172,22.278L193.075,22.278L193.911,22.278L194.781,22.278L196.519,22.278L197.391,22.278L198.279,22.278L199.128,22.278L200,22.278" stroke="#f58518" stroke-width="2"/></g></g><path class="foreground" aria-hidden="true" d="" display="none"/></g><g transform="translate(0,0)"><path class="background" aria-hidden="true" d="M0,0h200v200h-200Z"/><g><g class="mark-line role-mark child_marks" role="graphics-object" aria-roledescription="line mark container"><path aria-label="Time: Sep 14, 2023; Price: 6495; item: PARIS_ST._GERMAIN_CITY_MADE_PONCHO_-_Veste_de_survêtement_-_aura_white" role="graphics-symbol" aria-roledescription="line mark" d="M76.504,127.833L77.373,127.833L78.275,127.833L79.114,127.833L79.982,127.833L81.721,127.833L82.591,127.833L86.939,127.833L93.027,127.833L93.914,127.833L94.766,127.833L95.637,127.833L97.376,127.833L98.245,127.833L99.148,127.833L99.985,127.833L100.855,127.833L102.593,127.833L103.463,127.833L104.365,127.833L105.203,127.833L106.073,127.833L107.811,127.833L108.683,127.833L109.584,127.833L110.421,127.833L111.29,127.833L113.029,127.833L113.899,127.833L114.803,127.833L115.639,127.833L116.509,127.833L118.248,127.833L119.118,127.833L120.017,127.833L120.857,127.833L121.726,127.833L123.466,127.833L124.336,127.833L125.222,127.833L126.075,127.833L126.946,127.833L128.684,127.833L129.554,127.833L130.442,127.833L131.294,127.833L132.162,127.833L133.903,127.833L134.773,127.833L135.676,127.833L136.511,127.833L137.38,127.833L139.12,127.833L139.991,127.833L140.895,127.833" stroke="#eeca3b" stroke-width="2"/></g></g><path class="foreground" aria-hidden="true" d="" display="none"/></g><g transform="translate(0,0)"><path class="background" aria-hidden="true" d="M0,0h200v200h-200Z"/><g><g class="mark-line role-mark child_marks" role="graphics-object" aria-roledescription="line mark container"><path aria-label="Time: Sep 18, 2023; Price: 8995; item: HIKING_BACKPACK_PONCHO_-_Veste_imperméable_-_indian_red" role="graphics-symbol" aria-roledescription="line mark" d="M97.376,100.056L98.245,100.056L99.148,100.056L99.985,100.056L100.855,100.056L102.593,100.056L103.463,100.056L136.511,100.056L137.38,100.056L139.12,100.056L139.991,100.056L140.895,100.056L141.729,100.056L142.599,100.056L144.338,111.167L145.208,111.167L146.11,111.167L146.948,111.167" stroke="#54a24b" stroke-width="2"/></g></g><path class="foreground" aria-hidden="true" d="" display="none"/></g><g transform="translate(0,0)"><path class="background" aria-hidden="true" d="M0,0h200v200h-200Z"/><g><g class="mark-line role-mark child_marks" role="graphics-object" aria-roledescription="line mark container"><path aria-label="Time: Sep 26, 2023; Price: 6495; item: PSG_M_NSW_CITY_MADE_PONCHO_-_Veste_de_survêtement_-_aura_white" role="graphics-symbol" aria-roledescription="line mark" d="M141.729,127.833L142.6,127.833L144.339,91.167L145.208,91.167L146.11,91.167L146.948,91.167L147.819,91.167L149.557,91.167L150.426,91.167L151.328,91.167L152.165,91.167L154.774,91.167L155.644,91.167L156.542,91.167L157.385,91.167L158.254,91.167L159.993,91.167L160.862,91.167L161.75,91.167L162.601,91.167L163.471,91.167L165.211,91.167L166.081,91.167L166.971,91.167L167.82,91.167L168.69,91.167L170.429,127.833L171.299,127.833L172.201,127.833L173.039,127.833L173.908,127.833L175.648,127.833L176.519,127.833L177.42,127.833L178.257,127.833L179.126,127.833L180.864,127.833L181.736,127.833L182.642,127.833L183.475,127.833L184.345,127.833L186.083,127.833L186.952,127.833L187.861,127.833L188.692,127.833L189.564,127.833L191.301,127.833L192.172,127.833L193.075,127.833L193.911,127.833L194.782,127.833L196.52,127.833L197.391,127.833L198.279,127.833L199.128,127.833L200,127.833" stroke="#b279a2" stroke-width="2"/></g></g><path class="foreground" aria-hidden="true" d="" display="none"/></g></g><g class="mark-group role-legend" role="graphics-symbol" aria-roledescription="legend" aria-label="Symbol legend titled 'item' for stroke color with 8 values: DESCHUTES_VALLEY™_RAIN_PONCHO_-_Parka_-_vista_blue, KUURA_3L_PONCHO_UNISEX_-_Veste_imperméable_-_green, DESCHUTES_VALLEY™_RAIN_PONCHO_-_Parka_-_black, HIKING_BACKPACK_PONCHO_-_Veste_imperméable_-_blue, HIKING_BACKPACK_PONCHO_-_Veste_imperméable_-_indian_red, ending with COVERO_PONCHO_II_-_Cape_-_lightgrey"><g transform="translate(220,0)"><path class="background" aria-hidden="true" d="M0,0h328v118h-328Z" pointer-events="none"/><g><g class="mark-group role-legend-entry"><g transform="translate(0,16)"><path class="background" aria-hidden="true" d="M0,0h0v0h0Z" pointer-events="none"/><g><g class="mark-group role-scope" role="graphics-object" aria-roledescription="group mark container"><g transform="translate(0,0)"><path class="background" aria-hidden="true" d="M0,0h328v11h-328Z" pointer-events="none" opacity="1"/><g><g class="mark-symbol role-legend-symbol" pointer-events="none"><path transform="translate(6,6)" d="M-5,0L5,0" stroke="#4c78a8" stroke-width="1.5" opacity="1"/></g><g class="mark-text role-legend-label" pointer-events="none"><text text-anchor="start" transform="translate(16,9)" font-family="Liberation Mono" font-size="10px" fill="#000" opacity="1">DESCHUTES_VALLEY™_RAIN_PONCHO_-_Parka_…</text></g></g><path class="foreground" aria-hidden="true" d="" pointer-events="none" display="none"/></g><g transform="translate(0,13)"><path class="background" aria-hidden="true" d="M0,0h328v11h-328Z" pointer-events="none" opacity="1"/><g><g class="mark-symbol role-legend-symbol" pointer-events="none"><path transform="translate(6,6)" d="M-5,0L5,0" stroke="#f58518" stroke-width="1.5" opacity="1"/></g><g class="mark-text role-legend-label" pointer-events="none"><text text-anchor="start" transform="translate(16,9)" font-family="Liberation Mono" font-size="10px" fill="#000" opacity="1">KUURA_3L_PONCHO_UNISEX_-_Veste_impermé…</text></g></g><path class="foreground" aria-hidden="true" d="" pointer-events="none" display="none"/></g><g transform="translate(0,26)"><path class="background" aria-hidden="true" d="M0,0h328v11h-328Z" pointer-events="none" opacity="1"/><g><g class="mark-symbol role-legend-symbol" pointer-events="none"><path transform="translate(6,6)" d="M-5,0L5,0" stroke="#e45756" stroke-width="1.5" opacity="1"/></g><g class="mark-text role-legend-label" pointer-events="none"><text text-anchor="start" transform="translate(16,9)" font-family="Liberation Mono" font-size="10px" fill="#000" opacity="1">DESCHUTES_VALLEY™_RAIN_PONCHO_-_Parka_…</text></g></g><path class="foreground" aria-hidden="true" d="" pointer-events="none" display="none"/></g><g transform="translate(0,39)"><path class="background" aria-hidden="true" d="M0,0h328v11h-328Z" pointer-events="none" opacity="1"/><g><g class="mark-symbol role-legend-symbol" pointer-events="none"><path transform="translate(6,6)" d="M-5,0L5,0" stroke="#72b7b2" stroke-width="1.5" opacity="1"/></g><g class="mark-text role-legend-label" pointer-events="none"><text text-anchor="start" transform="translate(16,9)" font-family="Liberation Mono" font-size="10px" fill="#000" opacity="1">HIKING_BACKPACK_PONCHO_-_Veste_impermé…</text></g></g><path class="foreground" aria-hidden="true" d="" pointer-events="none" display="none"/></g><g transform="translate(0,52)"><path class="background" aria-hidden="true" d="M0,0h328v11h-328Z" pointer-events="none" opacity="1"/><g><g class="mark-symbol role-legend-symbol" pointer-events="none"><path transform="translate(6,6)" d="M-5,0L5,0" stroke="#54a24b" stroke-width="1.5" opacity="1"/></g><g class="mark-text role-legend-label" pointer-events="none"><text text-anchor="start" transform="translate(16,9)" font-family="Liberation Mono" font-size="10px" fill="#000" opacity="1">HIKING_BACKPACK_PONCHO_-_Veste_impermé…</text></g></g><path class="foreground" aria-hidden="true" d="" pointer-events="none" display="none"/></g><g transform="translate(0,65)"><path class="background" aria-hidden="true" d="M0,0h328v11h-328Z" pointer-events="none" opacity="1"/><g><g class="mark-symbol role-legend-symbol" pointer-events="none"><path transform="translate(6,6)" d="M-5,0L5,0" stroke="#eeca3b" stroke-width="1.5" opacity="1"/></g><g class="mark-text role-legend-label" pointer-events="none"><text text-anchor="start" transform="translate(16,9)" font-family="Liberation Mono" font-size="10px" fill="#000" opacity="1">PARIS_ST._GERMAIN_CITY_MADE_PONCHO_-_V…</text></g></g><path class="foreground" aria-hidden="true" d="" pointer-events="none" display="none"/></g><g transform="translate(0,78)"><path class="background" aria-hidden="true" d="M0,0h328v11h-328Z" pointer-events="none" opacity="1"/><g><g class="mark-symbol role-legend-symbol" pointer-events="none"><path transform="translate(6,6)" d="M-5,0L5,0" stroke="#b279a2" stroke-width="1.5" opacity="1"/></g><g class="mark-text role-legend-label" pointer-events="none"><text text-anchor="start" transform="translate(16,9)" font-family="Liberation Mono" font-size="10px" fill="#000" opacity="1">PSG_M_NSW_CITY_MADE_PONCHO_-_Veste_de_…</text></g></g><path class="foreground" aria-hidden="true" d="" pointer-events="none" display="none"/></g><g transform="translate(0,91)"><path class="background" aria-hidden="true" d="M0,0h328v11h-328Z" pointer-events="none" opacity="1"/><g><g class="mark-symbol role-legend-symbol" pointer-events="none"><path transform="translate(6,6)" d="M-5,0L5,0" stroke="#ff9da6" stroke-width="1.5" opacity="1"/></g><g class="mark-text role-legend-label" pointer-events="none"><text text-anchor="start" transform="translate(16,9)" font-family="Liberation Mono" font-size="10px" fill="#000" opacity="1">COVERO_PONCHO_II_-_Cape_-_lightgrey</text></g></g><path class="foreground" aria-hidden="true" d="" pointer-events="none" display="none"/></g></g></g><path class="foreground" aria-hidden="true" d="" pointer-events="none" display="none"/></g></g><g class="mark-text role-legend-title" pointer-events="none"><text text-anchor="start" transform="translate(0,9)" font-family="Liberation Mono" font-size="11px" font-weight="bold" fill="#000" opacity="1">item</text></g></g><path class="foreground" aria-hidden="true" d="" pointer-events="none" display="none"/></g></g></g><path class="foreground" aria-hidden="true" d="" display="none"/></g></g></g><path class="foreground" aria-hidden="true" d="" display="none"/></g></g></g></svg>