<svg xmlns="http://www.w3.org/2000/svg" xmlns:xlink="http://www.w3.org/1999/xlink" version="1.1" class="marks" width="658" height="244" viewBox="0 0 658 244"><rect width="658" height="244" fill="white"/><g fill="none" stroke-miterlimit="10" transform="translate(104,6)"><g class="mark-group role-frame root" role="graphics-object" aria-roledescription="group mark container"><g transform="translate(0,0)"><path class="background" aria-hidden="true" d="M0,0h0v0h0Z"/><g><g class="mark-group role-row-title row-title" role="graphics-object" aria-roledescription="group mark container"><g transform="translate(-78,116)"><path class="background" aria-hidden="true" d="M0,0h0v0h0Z"/><g><g class="mark-group role-title"><g transform="translate(-21.000000000000004,0)"><path class="background" aria-hidden="true" d="M0,0h0v0h0Z" pointer-events="none"/><g><g class="mark-text role-title-text" role="graphics-symbol" aria-roledescription="title" aria-label="Title text 'group'" pointer-events="none"><text text-anchor="middle" transform="translate(0,0) rotate(-90) translate(0,9)" font-family="Liberation Mono" font-size="11px" font-weight="bold" fill="#000" opacity="1">group</text></g></g><path class="foreground" aria-hidden="true" d="" pointer-events="none" display="none"/></g></g></g><path class="foreground" aria-hidden="true" d="" display="none"/></g></g><g class="mark-group role-row-header row_header" role="graphics-object" aria-roledescription="group mark container"><g transform="translate(-47,0)"><path class="background" aria-hidden="true" d="M0,0h0v200h0Z"/><g><g class="mark-group role-title"><g transform="translate(-20.000000000000007,100)"><path class="background" aria-hidden="true" d="M0,0h0v0h0Z" pointer-events="none"/><g><g class="mark-text role-title-text" role="graphics-symbol" aria-roledescription="title" aria-label="Title text 'zalando-poncho'" pointer-events="none"><text text-anchor="middle" transform="translate(0,0) rotate(-90) translate(0,8)" font-family="Liberation Mono" font-size="10px" fill="#000" opacity="1">zalando-poncho</text></g></g><path class="foreground" aria-hidden="true" d="" pointer-events="none" display="none"/></g></g></g><path class="foreground" aria-hidden="true" d="" display="none"/></g></g><g class="mark-group role-scope cell" role="graphics-object" aria-roledescription="group mark container"><g transform="translate(0,0)"><path class="background" aria-hidden="true" d="M0.5,0.5h200v200h-200Z" stroke="#ddd"/><g><g class="mark-group role-axis" aria-hidden="true"><g transform="translate(0.5,200.5)"><path class="background" aria-hidden="true" d="M0,0h0v0h0Z" pointer-events="none"/><g><g class="mark-rule role-axis-grid" pointer-events="none"><line transform="translate(2,-200)" x2="0" y2="200" stroke="#ddd" stroke-width="1" opacity="1"/><line transform="translate(34,-200)" x2="0" y2="200" stroke="#ddd" stroke-width="1" opacity="1"/><line transform="translate(68,-200)" x2="0" y2="200" stroke="#ddd" stroke-width="1" opacity="1"/><line transform="translate(101,-200)" x2="0" y2="200" stroke="#ddd" stroke-width="1" opacity="1"/><line transform="translate(134,-200)" x2="0" y2="200" stroke="#ddd" stroke-width="1" opacity="1"/><line transform="translate(168,-200)" x2="0" y2="200" stroke="#ddd" stroke-width="1" opacity="1"/><line transform="translate(200,-200)" x2="0" y2="200" stroke="#ddd" stroke-width="1" opacity="1"/></g></g><path class="foreground" aria-hidden="true" d="" pointer-events="none" display="none"/></g></g><g class="mark-group role-axis" aria-hidden="true"><g transform="translate(0.5,0.5)"><path class="background" aria-hidden="true" d="M0,0h0v0h0Z" pointer-events="none"/><g><g class="mark-rule role-axis-grid" pointer-events="none"><line transform="translate(0,200)" x2="200" y2="0" stroke="#ddd" stroke-width="1" opacity="1"/><line transform="translate(0,144)" x2="200" y2="0" stroke="#ddd" stroke-width="1" opacity="1"/><line transform="translate(0,89)" x2="200" y2="0" stroke="#ddd" stroke-width="1" opacity="1"/><line transform="translate(0,33)" x2="200" y2="0" stroke="#ddd" stroke-width="1" opacity="1"/></g></g><path class="foreground" aria-hidden="true" d="" pointer-events="none" display="none"/></g></g><g class="mark-group role-axis" role="graphics-symbol" aria-roledescription="axis" aria-label="X-axis titled 'Time' for a time scale with values from Wednesday, 30 August 2023, 12:58:24 PM to Friday, 01 March 2024, 8:50:20 AM"><g transform="translate(0.5,200.5)"><path class="background" aria-hidden="true" d="M0,0h0v0h0Z" pointer-events="none"/><g><g class="mark-rule role-axis-tick" pointer-events="none"><line transform="translate(2,0)" x2="0" y2="5" stroke="#888" stroke-width="1" opacity="1"/><line transform="translate(34,0)" x2="0" y2="5" stroke="#888" stroke-width="1" opacity="1"/><line transform="translate(68,0)" x2="0" y2="5" stroke="#888" stroke-width="1" opacity="1"/><line transform="translate(101,0)" x2="0" y2="5" stroke="#888" stroke-width="1" opacity="1"/><line transform="translate(134,0)" x2="0" y2="5" stroke="#888" stroke-width="1" opacity="1"/><line transform="translate(168,0)" x2="0" y2="5" stroke="#888" stroke-width="1" opacity="1"/><line transform="translate(200,0)" x2="0" y2="5" stroke="#888" stroke-width="1" opacity="1"/></g><g class="mark-text role-axis-label" pointer-events="none"><text text-anchor="middle" transform="translate(1.5878388732592337,15)" font-family="Liberation Mono" font-size="10px" fill="#000" opacity="1">September</text><text text-anchor="middle" transform="translate(34.2270926058562,15)" font-family="Liberation Mono" font-size="10px" fill="#000" opacity="0">October</text><text text-anchor="middle" transform="translate(67.95432146287305,15)" font-family="Liberation Mono" font-size="10px" fill="#000" opacity="0">November</text><text text-anchor="middle" transform="translate(100.59357519547001,15)" font-family="Liberation Mono" font-size="10px" fill="#000" opacity="0">December</text><text text-anchor="middle" transform="translate(134.32080405248686,15)" font-family="Liberation Mono" font-size="10px" fill="#000" opacity="0">2024</text><text text-anchor="middle" transform="translate(168.04803290950375,15)" font-family="Liberation Mono" font-size="10px" fill="#000" opacity="0">February</text><text text-anchor="end" transform="translate(199.5993115176808,15)" font-family="Liberation Mono" font-size="10px" fill="#000" opacity="1">March</text></g><g class="mark-rule role-axis-domain" pointer-events="none"><line transform="translate(0,0)" x2="200" y2="0" stroke="#888" stroke-width="1" opacity="1"/></g><g class="mark-text role-axis-title" pointer-events="none"><text text-anchor="middle" transform="translate(100,30)" font-family="Liberation Mono" font-size="11px" font-weight="bold" fill="#000" opacity="1">Time</text></g></g><path class="foreground" aria-hidden="true" d="" pointer-events="none" display="none"/></g></g><g class="mark-group role-axis" role="graphics-symbol" aria-roledescription="axis" aria-label="Y-axis titled 'Price' for a linear scale with values from 0 to 18,000"><g transform="translate(0.5,0.5)"><path class="background" aria-hidden="true" d="M0,0h0v0h0Z" pointer-events="none"/><g><g class="mark-rule role-axis-tick" pointer-events="none"><line transform="translate(0,200)" x2="-5" y2="0" stroke="#888" stroke-width="1" opacity="1"/><line transform="translate(0,144)" x2="-5" y2="0" stroke="#888" stroke-width="1" opacity="1"/><line transform="translate(0,89)" x2="-5" y2="0" stroke="#888" stroke-width="1" opacity="1"/><line transform="translate(0,33)" x2="-5" y2="0" stroke="#888" stroke-width="1" opacity="1"/></g><g class="mark-text role-axis-label" pointer-events="none"><text text-anchor="end" transform="translate(-7,203)" font-family="Liberation Mono" font-size="10px" fill="#000" opacity="1">0</text><text text-anchor="end" transform="translate(-7,147.44444444444443)" font-family="Liberation Mono" font-size="10px" fill="#000" opacity="1">50</text><text text-anchor="end" transform="translate(-7,91.88888888888889)" font-family="Liberation Mono" font-size="10px" fill="#000" opacity="1">100</text><text text-anchor="end" transform="translate(-7,36.33333333333333)" font-family="Liberation Mono" font-size="10px" fill="#000" opacity="1">150</text></g><g class="mark-rule role-axis-domain" pointer-events="none"><line transform="translate(0,200)" x2="0" y2="-200" stroke="#888" stroke-width="1" opacity="1"/></g><g class="mark-text role-axis-title" pointer-events="none"><text text-anchor="middle" transform="translate(-35,100) rotate(-90) translate(0,-2)" font-family="Liberation Mono" font-size="11px" font-weight="bold" fill="#000" opacity="1">Price</text></g></g><path class="foreground" aria-hidden="true" d="" pointer-events="none" display="none"/></g></g><g class="mark-group role-scope child_pathgroup" role="graphics-object" aria-roledescription="group mark container"><g transform="translate(0,0)"><path class="background" aria-hidden="true" d="M0,0h200v200h-200Z"/><g><g class="mark-line role-mark child_marks" role="graphics-object" aria-roledescription="line mark container"><path aria-label="Time: Aug 30, 2023; Price: 10795; item: DESCHUTES_VALLEY™_RAIN_PONCHO_-_Parka_-_black" role="graphics-symbol" aria-roledescription="line mark" d="M0,80.056L0.177,80.056L0.357,80.056L0.72,80.056L0.901,80.056L1.088,80.056L1.264,80.056L1.445,80.056L1.808,80.056L1.989,80.056L2.176,80.056L2.351,80.056L2.533,80.056L2.896,80.056L3.077,80.056L3.262,80.056L3.439,80.056L3.621,80.056L3.984,80.056L4.295,80.056L4.35,80.056L4.527,80.056L4.709,80.056L5.072,80.056L5.253,80.056L5.44,80.056L5.615,80.056L5.796,80.056L6.16,50.056L6.342,50.056L6.528,50.056L6.704,50.056L6.885,50.056L7.247,50.056L7.429,50.056L7.617,50.056L7.791,50.056L7.973,50.056L8.336,50.056L8.517,50.056L8.704,50.056L8.88,50.056L9.061,50.056L9.538,50.056L9.605,50.056L9.791,50.056L9.967,50.056L10.149,50.056L10.511,50.056L10.693,50.056L10.877,50.056L11.055,50.056L11.237,50.056L11.599,50.056L11.78,50.056L11.965,50.056L12.143,50.056L12.324,50.056L12.687,50.056L12.868,50.056L13.057,50.056L13.231,50.056L13.412,50.056L13.775,50.056L13.956,50.056L14.144,50.056L14.319,50.056L14.501,50.056L14.863,20.056L15.044,20.056L15.232,20.056L15.328,20.056L15.407,20.056L15.588,20.056L15.951,20.056L16.132,20.056L16.32,20.056L16.495,20.056L16.676,20.056L17.039,20.056L17.22,20.056L17.408,20.056L17.583,20.056L17.764,20.056L18.127,20.056L18.308,20.056L18.493,20.056L18.671,20.056L18.852,20.056L19.215,20.056L19.396,20.056L19.581,20.056L19.759,20.056L19.94,20.056L20.303,20.056L20.484,20.056L20.672,20.056L20.847,20.056L21.028,20.056L21.391,20.056L21.572,20.056L21.76,20.056L21.935,20.056L22.116,20.056L22.479,20.056L22.66,20.056L22.848,20.056L23.023,20.056L23.204,20.056L23.567,20.056L23.748,20.056L23.936,20.056L24.111,20.056L24.292,20.056L24.655,20.056L24.836,20.056L25.024,20.056L25.199,20.056L25.38,20.056L25.743,20.056L25.924,20.056L26.109,20.056L26.287,20.056L26.468,20.056L26.831,20.056L27.012,20.056L27.197,20.056L27.375,20.056L27.556,20.056L27.919,20.056L28.1,20.056L28.288,20.056L28.463,20.056L28.644,20.056L29.007,20.056L29.188,20.056L29.377,20.056L29.551,20.056L29.732,20.056L30.095,40.056L30.276,40.056L30.464,40.056L30.639,40.056L30.82,40.056L31.183,40.056L31.364,40.056L31.552,40.056L31.727,40.056L32.27,40.056L32.452,40.056L32.639,40.056L32.815,40.056L32.996,40.056L33.358,40.056L33.54,40.056L33.725,40.056L33.902,40.056L34.084,40.056L34.447,40.056L34.628,40.056L34.814,40.056L34.99,40.056L35.172,40.056L35.534,100.056L35.716,100.056L35.904,100.056L36.079,100.056L36.26,100.056L36.623,90.056L36.804,90.056L36.992,90.056L37.167,90.056L37.348,90.056L37.71,90.056L37.892,90.056L38.081,90.056L38.255,90.056L38.436,90.056L38.798,90.056L38.98,90.056L39.169,90.056L39.342,90.056L39.524,90.056L39.886,90.056L40.068,90.056L40.256,90.056L40.431,90.056L40.612,90.056L40.974,90.056L41.156,90.056L41.341,90.056L41.518,90.056L41.7,90.056L42.063,90.056L42.244,90.056L42.607,90.056L42.788,90.056L43.15,90.056L43.332,90.056L43.521,90.056L43.694,90.056L43.876,90.056L44.238,100.056L44.42,100.056L44.608,100.056L44.782,100.056L44.964,100.056L45.326,100.056L45.508,100.056L45.696,100.056L45.87,100.056L46.052,100.056L46.414,100.056L46.596,100.056L46.784,100.056L46.958,100.056L47.14,100.056L47.502,100.056L47.684,100.056L47.872,100.056L48.046,100.056L48.228,100.056L48.59,100.056L48.772,100.056L48.957,100.056L49.134,100.056L49.315,100.056L49.678,100.056L49.86,100.056L50.045,100.056L50.222,100.056L50.404,100.056L50.766,90.056L50.948,90.056L51.136,90.056L51.31,90.056L51.492,90.056L51.854,90.056L52.035,90.056L52.224,90.056L52.398,90.056L52.579,90.056L52.942,90.056L53.124,90.056L53.312,90.056L53.486,90.056L53.667,90.056L54.03,90.056L54.211,90.056L54.4,90.056L54.574,90.056L54.755,90.056L55.118,90.056L55.3,90.056L55.487,90.056L55.662,90.056L55.843,90.056L56.206,90.056L56.387,90.056L56.573,90.056L56.75,90.056L56.931,90.056L57.294,90.056L57.475,90.056L57.661,90.056L57.838,90.056L58.019,90.056L58.382,90.056L58.563,90.056L58.751,90.056L58.926,90.056L59.107,90.056L59.47,50.056L59.651,50.056L59.839,50.056L60.014,50.056L60.195,50.056L60.558,50.056L60.739,50.056L60.927,50.056L61.102,50.056L61.283,50.056L61.646,50.056L61.827,50.056L62.014,50.056L62.19,50.056L62.371,50.056L62.734,50.056L62.916,50.056L63.102,50.056L63.278,50.056L63.459,50.056L63.822,50.056L64.003,50.056L64.188,50.056L64.366,50.056L64.547,50.056L64.91,50.056L65.091,50.056L65.277,50.056L65.454,50.056L65.635,50.056L65.998,50.056L66.179,50.056L66.366,50.056L66.542,50.056L66.723,50.056L67.086,50.056L67.267,50.056L67.454,50.056L67.63,50.056L67.811,50.056L68.174,50.056L68.355,50.056L68.542,50.056L68.718,50.056L68.899,50.056L69.262,40.056L69.443,40.056L69.63,40.056L69.806,40.056L70.894,40.056L71.075,40.056L71.438,40.056L71.804,40.056L71.982,40.056L76.333,40.056L76.515,40.056L76.877,40.056L77.059,40.056L77.246,40.056L77.422,40.056L77.603,40.056L77.966,70.056L78.147,70.056L78.334,70.056L78.51,70.056L78.691,70.056L79.054,70.056L79.235,70.056L79.42,70.056L79.779,70.056L80.141,70.056L80.323,70.056L80.508,70.056L80.685,70.056L80.867,70.056L81.229,40.056L81.411,40.056L81.599,40.056L81.773,40.056L82.317,40.056L82.499,40.056L82.686,40.056L82.861,40.056L83.043,40.056L83.405,40.056L83.587,40.056L83.775,40.056L83.949,40.056L84.131,40.056L84.493,50.056L84.675,50.056L84.863,50.056L85.037,50.056L85.219,50.056L85.581,50.056L85.763,50.056L85.951,50.056L86.125,50.056L86.306,50.056L86.669,40.056L86.85,40.056L87.037,40.056L87.213,40.056L87.395,40.056L87.757,40.056L87.939,40.056L88.125,40.056L88.301,40.056L88.483,40.056L88.845,40.056L89.027,40.056L89.216,40.056L89.389,40.056L89.57,40.056L89.933,40.056L90.114,40.056L90.303,60.056L90.477,60.056L90.658,60.056L91.021,60.056L91.203,60.056L91.391,60.056L91.565,60.056L91.746,60.056L92.109,60.056L92.291,60.056L92.478,80.056L92.653,80.056L92.835,80.056L93.197,80.056L93.378,80.056L93.566,80.056L93.741,80.056L93.922,80.056L94.285,70.056L94.467,70.056L94.652,70.056L94.829,70.056L95.01,70.056L95.373,70.056L95.555,70.056L95.741,70.056L95.917,70.056L96.098,70.056L96.461,40.056L96.642,40.056L96.831,40.056L97.005,40.056L97.186,40.056L97.549,40.056L97.73,40.056L97.918,40.056L98.093,40.056L98.274,40.056L98.637,40.056L98.818,40.056L99.007,40.056L99.181,40.056L99.362,40.056L99.725,40.056L99.906,40.056L100.094,40.056L100.269,40.056L100.45,40.056L100.813,40.056L100.994,40.056L101.182,40.056L101.357,40.056L101.538,40.056L101.901,40.056L102.082,40.056L102.268,40.056L102.445,40.056L102.626,40.056L102.989,40.056L103.17,40.056L103.356,40.056L103.533,40.056L103.714,40.056L104.077,40.056L104.258,40.056L104.446,40.056L104.621,40.056L104.802,40.056L105.165,50.056L105.346,50.056L105.534,50.056L105.709,50.056L105.89,50.056L106.253,50.056L106.434,50.056L106.622,50.056L106.797,50.056L106.978,50.056L107.341,50.056L107.522,50.056L107.71,50.056L107.885,50.056L108.066,50.056L108.429,50.056L108.61,50.056L108.797,50.056L108.973,50.056L109.154,50.056L109.517,50.056L109.698,50.056L109.884,50.056L110.061,50.056L110.242,50.056L110.605,50.056L110.786,50.056L110.972,50.056L111.149,50.056L111.33,50.056L111.693,50.056L111.874,50.056L112.062,50.056L112.781,50.056L112.962,50.056L113.15,50.056L113.325,50.056L113.506,50.056L113.869,50.056L114.05,50.056L114.238,50.056L114.413,50.056L114.594,50.056L114.957,50.056L115.138,50.056L115.326,50.056L115.501,50.056L115.682,50.056L116.045,50.056L116.226,50.056L116.413,50.056L116.589,50.056L116.77,50.056L117.133,50.056L117.314,50.056L117.499,50.056L117.677,50.056L117.858,50.056L118.22,50.056L118.402,50.056L118.588,50.056L118.764,50.056L118.946,50.056L119.308,50.056L119.49,50.056L119.678,50.056L119.852,50.056L120.034,50.056L120.396,50.056L120.578,50.056L120.765,50.056L120.941,50.056L121.122,50.056L121.484,50.056L121.666,50.056L121.848,50.056L122.028,50.056L122.21,50.056L122.572,50.056L122.754,50.056L123.117,50.056L123.298,50.056L123.66,50.056L123.842,50.056L124.028,50.056L124.204,50.056L124.386,50.056L124.748,50.056L124.93,50.056L125.115,50.056L125.292,50.056L125.474,50.056L125.836,50.056L126.018,50.056L126.203,50.056L126.38,50.056L126.562,50.056L126.924,50.056L127.106,50.056L127.292,50.056L127.469,50.056L127.65,50.056L128.012,50.056L128.193,50.056L128.379,50.056L128.556,50.056L128.737,50.056L129.1,50.056L129.282,50.056L129.468,50.056L129.644,50.056L129.825,50.056L130.188,60.056L130.37,60.056L130.556,60.056L130.732,60.056L130.914,60.056L131.276,60.056L131.457,60.056L131.644,60.056L131.82,60.056L132.002,60.056L132.364,60.056L132.546,60.056L132.731,60.056L132.908,60.056L133.089,60.056L133.452,60.056L133.634,60.056L133.819,60.056L133.996,60.056L134.177,60.056L134.54,60.056L134.721,60.056L134.908,60.056L135.084,60.056L135.266,60.056L135.628,60.056L135.809,60.056L135.996,60.056L136.172,60.056L136.353,60.056L136.716,90.056L136.897,90.056L137.085,90.056L137.26,90.056L137.441,90.056L137.804,90.056L137.985,90.056L138.172,90.056L138.348,90.056L150.86,60.056L151.041,60.056L151.229,60.056L151.404,60.056L151.585,60.056L151.948,60.056L152.129,60.056L152.317,60.056L152.492,60.056L152.673,60.056L153.036,60.056L153.217,60.056L153.405,60.056L153.58,60.056L153.761,60.056L154.124,100.056L154.305,100.056L154.493,100.056L154.668,100.056L154.849,100.056L155.212,100.056L155.393,100.056L155.579,100.056L188.395,60.056" stroke="#f58518" stroke-width="2"/></g></g><path class="foreground" aria-hidden="true" d="" display="none"/></g><g transform="translate(0,0)"><path class="background" aria-hidden="true" d="M0,0h200v200h-200Z"/><g><g class="mark-line role-mark child_marks" role="graphics-object" aria-roledescription="line mark container"><path aria-label="Time: Aug 30, 2023; Price: 8995; item: HIKING_BACKPACK_PONCHO_-_Veste_imperméable_-_blue" role="graphics-symbol" aria-roledescription="line mark" d="M0,100.056L0.177,100.056L0.357,100.056L0.72,100.056L0.901,100.056L1.088,100.056L1.264,100.056L1.445,100.056L1.808,100.056L1.989,100.056L2.176,100.056L2.351,100.056L2.533,100.056L2.896,100.056L3.077,100.056L3.262,100.056L3.439,100.056L3.621,100.056L3.984,100.056L4.295,100.056L4.35,100.056L12.868,100.056L13.057,100.056L13.231,100.056L13.412,100.056L13.775,100.056L13.956,100.056L14.144,100.056L14.319,100.056L14.501,100.056L14.863,100.056L15.044,100.056L15.232,100.056L15.328,100.056L15.407,100.056L15.588,100.056L15.951,100.056L16.132,100.056L16.32,100.056L16.495,100.056L16.676,100.056L17.039,100.056L17.22,100.056L17.408,100.056L17.583,100.056L17.764,100.056L18.127,100.056L18.308,100.056L18.493,100.056L18.671,100.056L18.852,100.056L19.215,100.056L19.396,100.056L31.727,111.167L32.271,111.167L32.452,111.167L32.639,111.167L32.815,111.167L32.996,111.167L33.358,111.167L33.54,111.167L33.725,111.167L33.902,111.167L34.084,111.167L34.447,111.167L34.628,111.167L34.814,111.167L34.99,111.167L35.172,111.167L35.534,111.167L35.716,111.167L35.904,111.167L36.079,111.167L36.26,111.167L36.623,127.833L36.804,127.833L36.992,127.833L37.167,127.833L37.348,127.833L37.71,127.833L37.892,127.833L38.081,127.833L38.255,127.833L38.436,127.833L38.798,127.833L38.98,127.833L39.169,127.833L39.342,127.833L39.524,127.833L39.886,127.833L40.068,127.833L40.256,127.833L40.431,127.833L40.612,127.833L40.974,127.833L41.156,127.833L41.341,127.833L41.518,127.833L41.7,127.833L42.063,127.833L42.244,127.833L42.607,127.833L42.788,127.833L43.15,127.833" stroke="#eeca3b" stroke-width="2"/></g></g><path class="foreground" aria-hidden="true" d="" display="none"/></g><g transform="translate(0,0)"><path class="background" aria-hidden="true" d="M0,0h200v200h-200Z"/><g><g class="mark-line role-mark child_marks" role="graphics-object" aria-roledescription="line mark container"><path aria-label="Time: Aug 30, 2023; Price: 16195; item: DESCHUTES_VALLEY™_RAIN_PONCHO_-_Parka_-_vista_blue" role="graphics-symbol" aria-roledescription="line mark" d="M0,20.056L0.177,20.056L0.357,20.056L0.72,20.056L0.901,20.056L1.088,20.056L1.264,20.056L1.445,20.056L1.808,20.056L1.989,20.056L2.176,20.056L2.351,20.056L2.533,20.056L2.896,20.056L3.077,20.056L3.262,20.056L3.439,20.056L3.621,20.056L3.984,20.056L4.295,20.056L4.35,20.056L4.527,20.056L4.709,20.056L5.072,20.056L5.253,20.056L5.44,20.056L5.615,20.056L5.797,20.056L6.16,80.056L6.342,80.056L6.528,80.056L6.704,80.056L6.885,80.056L7.247,80.056L7.429,80.056L7.617,80.056L7.791,80.056L7.973,80.056L8.336,80.056L8.517,80.056L8.704,80.056L8.879,80.056L9.061,80.056L9.538,80.056L9.605,80.056L9.791,80.056L9.967,80.056L10.149,80.056L10.511,80.056L10.693,80.056L10.877,80.056L11.055,80.056L11.237,80.056L11.599,80.056L11.78,80.056L11.965,80.056L12.143,80.056L12.324,80.056L12.687,80.056L12.868,80.056L13.057,80.056L13.231,80.056L13.412,80.056L13.775,80.056L13.956,80.056L14.144,80.056L14.319,80.056L14.501,80.056L14.863,20.056L15.044,20.056L15.232,20.056L15.328,20.056L15.407,20.056L15.588,20.056L15.951,20.056L16.132,20.056L16.32,20.056L16.495,20.056L16.676,20.056L17.039,20.056L17.22,20.056L17.408,20.056L17.583,20.056L17.764,20.056L18.127,20.056L18.308,20.056L18.493,20.056L18.671,20.056L18.852,20.056L19.215,20.056L19.396,20.056L19.581,20.056L19.759,20.056L19.94,20.056L20.303,20.056L20.484,20.056L20.672,20.056L20.847,20.056L21.028,20.056L21.391,20.056L21.572,20.056L21.76,20.056L21.935,20.056L22.116,20.056L22.479,20.056L22.66,20.056L22.848,20.056L23.023,20.056L23.204,20.056L23.567,20.056L23.748,20.056L23.936,20.056L24.111,20.056L24.292,20.056L24.655,20.056L24.836,20.056L25.024,20.056L25.199,20.056L25.38,20.056L25.743,20.056L25.924,20.056L26.109,20.056L26.287,20.056L26.468,20.056L26.831,20.056L27.012,20.056L27.197,20.056L27.375,20.056L27.556,20.056L27.919,20.056L28.1,20.056L28.288,20.056L28.463,20.056L28.644,20.056L29.007,20.056L29.188,20.056L29.377,20.056L29.551,20.056L29.732,20.056L30.095,40.056L30.276,40.056L30.464,40.056L30.639,40.056L30.82,40.056L31.183,40.056L31.364,40.056L31.552,40.056L31.727,40.056L32.271,40.056L32.452,40.056L32.639,40.056L32.815,40.056L32.996,40.056L33.358,40.056L33.54,40.056L33.725,40.056L33.902,40.056L34.084,40.056L34.447,40.056L34.628,40.056L34.814,40.056L34.99,40.056L35.172,40.056L35.534,90.056L35.716,90.056L35.904,90.056L36.079,90.056L36.26,90.056L36.623,40.056L36.804,40.056L36.992,40.056L37.167,40.056L37.348,40.056L37.71,40.056L37.892,40.056L38.081,40.056L38.255,40.056L38.436,40.056L38.798,40.056L38.98,40.056L39.169,40.056L39.342,40.056L39.524,40.056L39.886,40.056L40.068,40.056L40.256,40.056L40.431,40.056L40.612,40.056L40.974,40.056L41.156,40.056L41.341,40.056L41.518,40.056L41.7,40.056L42.063,40.056L42.244,40.056L42.607,40.056L42.788,40.056L43.15,40.056L43.332,40.056L43.521,40.056L43.694,40.056L43.876,40.056L44.238,90.056L44.42,90.056L44.608,90.056L44.782,90.056L44.964,90.056L45.326,90.056L45.508,90.056L45.696,90.056L45.87,90.056L46.052,90.056L46.414,90.056L46.596,90.056L46.784,90.056L46.958,90.056L47.14,90.056L47.502,90.056L47.684,90.056L47.872,90.056L48.046,90.056L48.228,90.056L48.59,40.056L48.772,40.056L48.957,40.056L49.134,40.056L49.315,40.056L49.678,40.056L49.86,40.056L50.045,40.056L50.222,40.056L50.404,40.056L50.766,100.056L50.948,100.056L51.136,100.056L51.31,100.056L51.492,100.056L51.854,100.056L52.035,100.056L52.224,100.056L52.398,100.056L52.579,100.056L52.942,100.056L53.124,100.056L53.312,100.056L53.486,100.056L53.667,100.056L54.03,100.056L54.211,100.056L54.4,100.056L54.574,100.056L54.755,100.056L55.118,100.056L55.3,100.056L55.487,100.056L55.662,100.056L55.843,100.056L56.206,100.056L56.387,100.056L56.573,100.056L56.75,100.056L56.931,100.056L57.294,100.056L57.475,100.056L57.661,100.056L57.838,100.056L58.019,100.056L58.382,100.056L58.563,100.056L58.751,100.056L58.926,100.056L59.107,100.056L59.47,40.056L59.651,40.056L59.839,40.056L60.014,40.056L60.195,40.056L60.558,40.056L60.739,40.056L60.927,40.056L61.102,40.056L61.283,40.056L61.646,40.056L61.827,40.056L62.014,40.056L62.19,40.056L62.371,40.056L62.734,40.056L62.916,40.056L63.102,40.056L63.278,40.056L63.459,40.056L63.822,40.056L64.003,40.056L64.188,40.056L64.366,40.056L64.547,40.056L64.91,40.056L65.091,40.056L65.277,40.056L65.454,40.056L65.635,40.056L65.998,40.056L66.179,40.056L66.366,40.056L66.542,40.056L66.723,40.056L67.086,40.056L67.267,40.056L67.454,40.056L67.63,40.056L67.811,40.056L68.174,40.056L68.355,40.056L68.542,40.056L68.718,40.056L68.899,40.056L69.262,40.056L69.443,40.056L69.63,40.056L69.806,40.056L69.987,40.056L70.35,40.056L70.531,40.056L70.719,40.056L70.894,40.056L71.075,40.056L71.438,40.056L71.619,40.056L71.804,40.056L71.982,40.056L72.163,40.056L72.526,40.056L72.707,40.056L72.892,40.056L73.07,40.056L73.251,40.056L73.613,40.056L73.795,40.056L73.984,40.056L74.158,40.056L74.339,40.056L74.702,40.056L74.883,40.056L75.07,40.056L75.246,40.056L75.427,40.056L75.789,40.056L75.971,40.056L76.158,40.056L76.333,40.056L76.515,40.056L76.877,40.056L77.059,40.056L77.246,40.056L77.422,40.056L77.603,40.056L77.966,40.056L78.147,40.056L78.334,40.056L78.51,40.056L78.691,40.056L79.054,40.056L79.235,40.056L79.42,40.056L79.779,40.056L80.141,40.056L80.323,40.056L80.508,40.056L80.685,40.056L80.867,40.056L81.229,40.056L81.411,40.056L81.599,40.056L81.773,40.056L82.317,40.056L82.499,40.056L82.686,40.056L82.861,40.056L83.043,40.056L83.405,40.056L83.587,40.056L83.775,40.056L83.949,40.056L84.131,40.056L84.493,120.056L84.675,120.056L84.863,120.056L85.037,120.056L85.219,120.056L85.581,120.056L85.763,120.056L85.951,120.056L86.125,120.056L86.306,120.056L86.669,40.056L86.85,40.056L87.037,40.056L87.213,40.056L87.395,40.056L87.757,40.056L87.939,40.056L88.125,40.056L88.301,40.056L88.483,40.056L88.845,50.056L89.027,50.056L89.216,70.056L89.389,70.056L89.57,70.056L89.933,70.056L90.114,70.056L90.303,70.056L90.477,70.056L90.658,70.056L91.021,70.056L91.203,70.056L91.391,70.056L91.565,70.056L91.746,70.056L92.109,120.056L92.291,120.056L92.478,120.056L92.653,120.056L92.835,120.056L93.197,120.056L93.378,120.056L93.566,120.056L93.741,120.056L93.922,120.056L94.285,120.056L94.467,120.056L94.652,120.056L94.829,120.056L95.01,120.056L95.373,120.056L95.555,120.056L95.741,120.056L95.917,120.056L96.098,120.056L96.461,40.056L96.642,40.056L96.831,40.056L97.005,40.056L97.186,40.056L97.549,40.056L97.73,40.056L97.918,40.056L98.093,40.056L98.274,40.056L98.637,40.056L98.818,40.056L99.007,40.056L99.181,40.056L99.362,40.056L99.725,40.056L99.906,40.056L100.094,40.056L100.269,40.056L100.45,40.056L100.813,40.056L100.994,40.056L101.182,40.056L101.357,40.056L101.538,40.056L101.901,40.056L102.082,40.056L102.268,40.056L102.445,40.056L102.626,40.056L102.989,40.056L103.17,40.056L103.356,40.056L103.533,40.056L103.714,40.056L104.077,40.056L104.258,40.056L104.446,40.056L104.621,40.056L104.802,40.056L105.165,100.056L105.346,100.056L105.534,100.056L105.709,100.056L105.89,100.056L106.253,100.056L106.434,100.056L106.622,100.056L106.797,100.056L106.978,100.056L107.341,100.056L107.522,100.056L107.71,100.056L107.885,100.056L108.066,100.056L108.429,100.056L108.61,100.056L108.797,100.056L108.973,100.056L109.154,100.056L109.517,100.056L109.698,100.056L109.884,100.056L110.061,100.056L110.242,100.056L110.605,100.056L110.786,100.056L110.972,100.056L111.149,100.056L111.33,100.056L111.693,100.056L111.874,100.056L112.062,100.056L112.236,100.056L112.418,100.056L112.781,100.056L112.962,100.056L113.15,100.056L113.325,100.056L113.506,100.056L113.869,100.056L114.05,100.056L114.238,100.056L114.413,100.056L114.594,100.056L114.957,100.056L115.138,100.056L115.326,100.056L115.501,100.056L115.682,100.056L116.045,100.056L116.226,100.056L116.413,100.056L116.589,100.056L116.77,100.056L117.133,100.056L117.314,100.056L117.499,100.056L117.677,100.056L117.858,100.056L118.22,90.056L118.402,90.056L118.588,90.056L118.764,90.056L118.946,90.056L119.308,90.056L119.49,90.056L119.678,90.056L119.852,90.056L120.034,90.056L120.396,90.056L120.578,90.056L120.765,90.056L120.941,90.056L121.122,90.056L121.484,90.056L121.666,90.056L121.848,90.056L122.028,90.056L122.21,90.056L122.572,60.056L122.754,60.056L123.117,60.056L123.298,60.056L123.66,60.056L123.842,60.056L124.028,60.056L124.204,60.056L124.386,60.056L124.748,60.056L124.93,60.056L125.115,60.056L125.292,60.056L125.474,60.056L125.836,60.056L126.018,60.056L126.203,60.056L126.38,60.056L126.562,60.056L126.924,60.056L127.106,60.056L127.292,60.056L127.469,60.056L127.65,60.056L128.012,60.056L128.193,60.056L128.379,60.056L128.556,60.056L128.737,60.056L129.1,60.056L129.282,60.056L129.468,60.056L129.644,60.056L129.825,60.056L130.188,60.056L130.37,60.056L130.556,60.056L130.732,60.056L130.914,60.056L131.276,60.056L131.457,60.056L131.644,60.056L131.82,60.056L132.002,60.056L132.364,60.056L132.546,60.056L132.731,60.056L132.908,60.056L133.089,60.056L133.452,60.056L133.634,60.056L133.819,60.056L133.996,60.056L134.177,60.056L134.54,60.056L134.721,60.056L134.908,60.056L135.084,60.056L135.266,60.056L135.628,60.056L135.809,60.056L135.996,60.056L136.172,60.056L136.353,60.056L136.716,90.056L136.897,90.056L137.085,90.056L137.26,90.056L137.441,90.056L137.804,90.056L137.985,90.056L138.172,90.056L138.348,90.056L138.529,90.056L138.892,90.056L139.073,90.056L139.26,90.056L139.436,90.056L139.617,90.056L139.98,100.056L140.161,100.056L140.348,100.056L140.524,100.056L140.705,100.056L141.068,90.056L141.249,90.056L141.436,90.056L141.612,90.056L141.793,90.056L142.156,100.056L142.337,100.056L142.525,100.056L142.7,100.056L142.881,100.056L143.244,100.056L143.425,100.056L143.617,100.056L143.788,100.056L143.969,100.056L144.332,100.056L144.513,100.056L144.701,100.056L144.876,100.056L145.057,100.056L145.42,90.056L145.601,90.056L145.789,90.056L145.964,90.056L146.145,90.056L146.508,90.056L146.689,90.056L146.877,90.056L147.052,90.056L147.233,90.056L147.596,90.056L147.777,90.056L147.963,90.056L148.14,90.056L148.321,90.056L148.684,100.056L148.865,100.056L149.051,100.056L149.228,100.056L149.409,100.056L149.772,90.056L149.953,90.056L150.141,90.056L150.316,90.056L150.497,90.056L150.86,100.056L151.041,100.056L151.229,100.056L151.404,100.056L151.585,100.056L151.948,100.056L152.129,100.056L152.317,100.056L152.492,100.056L152.673,100.056L153.036,100.056L153.217,100.056L153.405,100.056L153.58,100.056L153.761,100.056L154.124,100.056L154.305,100.056L154.493,100.056L154.668,100.056L154.849,100.056L155.212,100.056L155.393,100.056L155.579,100.056L155.756,100.056L155.937,100.056L156.481,100.056L156.667,100.056L156.844,100.056L157.025,100.056L157.388,100.056L157.569,100.056L157.757,100.056L157.932,100.056L158.113,100.056L158.476,130.056L158.657,130.056L158.845,130.056L159.019,130.056L159.201,130.056L159.564,130.056L159.745,130.056L159.933,130.056L160.108,130.056L160.289,130.056L160.652,130.056L160.833,130.056L161.021,130.056L161.195,130.056L161.377,130.056L161.74,130.056L161.921,130.056L162.106,130.056L162.283,130.056L162.465,130.056L162.827,130.056L163.009,130.056L163.192,130.056L163.371,130.056L163.553,130.056L163.915,130.056L164.097,130.056L164.28,130.056L164.46,130.056L164.641,130.056L165.004,60.056L165.185,60.056L165.369,60.056L165.547,60.056L165.729,60.056L166.091,60.056L166.273,60.056L166.457,60.056L166.635,80.056L166.817,80.056L167.179,80.056L167.361,80.056L167.545,100.056L167.723,100.056L167.905,100.056L168.267,60.056L168.449,60.056L168.634,60.056L168.811,60.056L168.993,60.056L169.355,60.056L169.536,60.056L169.721,60.056L169.899,60.056L170.081,60.056L170.443,60.056L170.625,60.056L170.808,60.056L170.987,60.056L171.169,60.056L171.531,60.056L171.713,60.056L171.896,60.056L172.075,60.056L172.257,60.056L172.619,60.056L172.801,60.056L172.986,60.056L173.163,60.056L173.345,60.056L173.707,60.056L173.889,60.056L174.073,60.056L174.252,60.056L174.433,60.056L174.795,60.056L174.977,60.056L175.161,60.056L175.339,60.056L175.521,60.056L175.883,60.056L176.065,60.056L176.249,60.056L176.427,60.056L176.609,60.056L176.971,60.056L177.153,60.056L177.337,60.056L177.515,60.056L177.696,60.056L178.059,60.056L178.24,60.056L178.424,60.056L178.603,60.056L178.784,60.056L179.147,60.056L179.329,60.056L179.512,60.056L179.691,60.056L179.872,60.056L180.235,60.056L180.416,60.056L180.602,60.056L180.779,60.056L180.96,60.056L181.323,60.056L181.504,60.056L181.689,60.056L181.867,60.056L182.048,60.056L182.411,60.056L182.592,60.056L182.777,60.056L182.955,60.056L183.137,60.056L183.499,60.056L183.68,60.056L183.865,60.056L184.043,60.056L184.224,60.056L184.587,60.056L184.768,60.056L184.953,60.056L185.131,60.056L185.312,60.056L185.675,60.056L185.856,60.056L186.04,60.056L186.219,60.056L186.4,60.056L186.763,60.056L186.944,60.056L187.128,60.056L187.307,60.056L187.488,60.056L187.851,60.056L188.032,60.056L188.217,60.056L188.395,60.056L188.576,60.056L188.939,60.056L189.12,60.056L189.304,60.056L189.483,60.056L189.664,60.056L190.027,90.056L190.208,90.056L190.393,90.056L190.571,90.056L190.752,90.056L191.115,90.056L191.296,90.056L191.481,90.056L191.659,90.056L191.84,90.056L192.203,90.056L192.384,90.056L192.568,90.056L192.747,90.056L192.928,90.056L193.291,90.056L193.472,90.056L193.655,90.056L193.835,90.056L194.016,90.056L194.379,100.056L194.56,100.056L194.743,100.056L194.923,100.056L195.104,100.056L195.467,100.056L195.648,100.056L195.833,100.056L196.011,100.056L196.192,100.056L196.555,70.056L196.736,70.056L196.921,70.056L197.099,70.056L197.28,70.056L197.642,70.056L197.824,70.056L198.008,70.056L198.187,70.056L198.368,70.056L198.731,70.056L198.912,70.056L199.096,70.056L199.275,70.056L199.456,70.056L199.819,70.056L200,70.056" stroke="#e45756" stroke-width="2"/></g></g><path class="foreground" aria-hidden="true" d="" display="none"/></g><g transform="translate(0,0)"><path class="background" aria-hidden="true" d="M0,0h200v200h-200Z"/><g><g class="mark-line role-mark child_marks" role="graphics-object" aria-roledescription="line mark container"><path aria-label="Time: Aug 30, 2023; Price: 5495; item: COVERO_PONCHO_II_-_Cape_-_lightgrey" role="graphics-symbol" aria-roledescription="line mark" d="M0,138.944L0.177,138.944L0.357,138.944L0.72,138.944L0.901,138.944L1.088,138.944L1.264,138.944L1.445,138.944L1.808,138.944L1.989,138.944L3.077,138.944L3.262,138.944L3.439,138.944L3.621,138.944L3.984,138.944L4.295,138.944L4.35,138.944L4.527,138.944L4.709,138.944L5.072,138.944L5.253,138.944L5.44,138.944L5.615,138.944L5.797,138.944L6.16,138.944L6.342,138.944L6.528,138.944L6.704,138.944L6.885,138.944L9.967,153.944L11.78,138.944L11.965,138.944L12.143,138.944L12.324,138.944L12.687,138.944L12.868,138.944L13.057,138.944L13.231,138.944L13.412,138.944L13.775,138.944L13.956,138.944L14.144,138.944L14.319,138.944L14.501,138.944L14.863,138.944L15.044,138.944L15.232,138.944L15.328,138.944L15.407,138.944L15.588,138.944L15.951,138.944L16.132,138.944L16.32,138.944L16.495,138.944L16.676,138.944L17.039,138.944L17.22,138.944L17.408,138.944L17.583,138.944L17.764,138.944L18.127,138.944L18.308,138.944L18.493,138.944L18.671,138.944L18.852,138.944L19.215,138.944L19.396,138.944L19.581,138.944L19.759,138.944L19.94,138.944L20.303,138.944L20.484,138.944L20.672,138.944L20.847,138.944L21.028,138.944L21.391,138.944L21.572,138.944L21.76,138.944L21.935,138.944L22.116,138.944L22.479,151.167L22.66,151.167L22.848,151.167L23.023,151.167L23.204,151.167L23.567,151.167L23.748,151.167L23.936,151.167L24.111,151.167L24.292,151.167L24.655,151.167L24.836,151.167L25.024,151.167L25.924,151.167L26.109,151.167L26.287,151.167L26.468,151.167L26.831,151.167L27.012,151.167L27.197,151.167L27.375,151.167L27.556,151.167L27.919,151.167L28.1,151.167L28.288,151.167L28.463,151.167L28.644,151.167L29.007,151.167L29.188,151.167L29.377,151.167L29.551,151.167L29.732,151.167L30.095,151.167L30.276,151.167L30.464,151.167L30.639,151.167L30.82,151.167L31.183,151.167L31.364,151.167L31.552,151.167L31.727,151.167L32.271,151.167L32.452,151.167L32.639,151.167L32.815,151.167L32.996,151.167L33.358,151.167L33.54,151.167L33.725,151.167L33.902,151.167L34.084,151.167L34.447,151.167L34.628,151.167L34.814,151.167L34.99,151.167L35.172,151.167L35.534,151.167L35.716,151.167L35.904,151.167L36.079,151.167L36.26,151.167L36.623,151.167L36.804,151.167L36.992,151.167L37.167,151.167L37.348,151.167L37.71,151.167L37.892,151.167L38.081,151.167L38.255,151.167L38.436,151.167L38.798,151.167L38.98,151.167L39.169,151.167L39.342,151.167L39.524,151.167L39.886,151.167L40.068,151.167L40.256,151.167L40.431,151.167L40.612,151.167L41.156,151.167L41.341,151.167L42.063,151.167L42.244,151.167L42.607,151.167L42.788,151.167L43.694,151.167L43.876,151.167L44.238,151.167L44.42,151.167L44.608,151.167L44.964,151.167L45.326,138.944L45.508,138.944L45.696,138.944L45.87,138.944L46.052,138.944L48.046,138.944L49.134,153.944L51.492,153.944L51.854,153.944L52.398,153.944L52.942,153.944L53.486,153.944L53.667,153.944L54.211,153.944L55.662,153.944L55.843,153.944L56.206,153.944L57.661,153.944L57.838,153.944L58.019,153.944L58.382,153.944L58.926,153.944L59.107,153.944L59.47,153.944L59.651,153.944L59.839,153.944L60.195,153.944L60.739,153.944L60.927,153.944L61.102,153.944L61.646,153.944L61.827,153.944L62.19,153.944L63.278,153.944L63.459,153.944L63.822,153.944L64.188,153.944L64.366,153.944L64.547,153.944L65.091,153.944L65.277,153.944L65.454,153.944L65.998,153.944L66.179,153.944L66.366,153.944L66.542,153.944L66.723,153.944L67.086,153.944L67.267,153.944L67.454,153.944L67.63,153.944L67.811,153.944L68.174,153.944L69.443,153.944L69.63,153.944L69.806,153.944L69.987,153.944L70.531,153.944L70.719,153.944L70.894,153.944L71.075,153.944L71.438,145.611L71.619,145.611L75.427,145.611L75.789,145.611L75.971,145.611L76.158,145.611L76.333,145.611L76.515,145.611L77.059,145.611L77.246,145.611L77.422,145.611L77.603,145.611L77.966,145.611L78.334,145.611L78.691,145.611L79.235,145.611L79.42,145.611L79.779,145.611L80.141,145.611L80.323,145.611L80.508,145.611L80.685,145.611L80.867,145.611L81.229,138.944L81.599,138.944L82.317,138.944L82.499,138.944L82.686,138.944L82.861,138.944L83.043,138.944L83.405,138.944L83.587,138.944L83.775,138.944L83.949,138.944L84.131,138.944L84.675,153.944L84.863,153.944L85.037,153.944L85.219,153.944L85.581,153.944L86.125,153.944L86.307,153.944L86.669,153.944L86.85,153.944L87.037,153.944L87.213,160.056L89.027,138.944L89.216,138.944L89.389,138.944L89.57,138.944L89.933,138.944L90.114,138.944L90.303,138.944L90.477,138.944L90.658,138.944L91.021,138.944L91.203,138.944L91.391,138.944L91.565,138.944L91.746,138.944L92.291,163.389L101.182,138.944L101.901,138.944L102.445,138.944L103.17,138.944L104.258,138.944L104.446,138.944L104.621,138.944L104.802,138.944L105.165,138.944L106.434,138.944L107.341,138.944L108.973,138.944L109.698,138.944L109.884,138.944L110.061,138.944L110.242,138.944L110.605,138.944L110.972,138.944L111.874,138.944L112.062,138.944L112.236,138.944L112.418,138.944L113.15,138.944L113.869,138.944L115.326,138.944L116.226,138.944L116.589,138.944L116.77,138.944L117.133,138.944L117.677,138.944L117.858,138.944L118.22,138.944" stroke="#f58518" stroke-width="2"/></g></g><path class="foreground" aria-hidden="true" d="" display="none"/></g><g transform="translate(0,0)"><path class="background" aria-hidden="true" d="M0,0h200v200h-200Z"/><g><g class="mark-line role-mark child_marks" role="graphics-object" aria-roledescription="line mark container"><path aria-label="Time: Sep 01, 2023; Price: 12995; item: KUURA_3L_PONCHO_UNISEX_-_Veste_imperméable_-_green" role="graphics-symbol" aria-roledescription="line mark" d="M2.533,55.611L2.896,55.611L3.077,55.611L3.262,55.611L5.253,55.611L5.44,55.611L5.615,55.611L5.797,55.611L6.16,11.167L6.342,11.167L6.528,11.167L6.704,11.167L6.885,11.167L7.247,11.167L7.429,11.167L7.617,11.167L7.791,11.167L7.973,11.167L8.336,11.167L8.517,11.167L8.704,11.167L8.88,11.167L9.061,11.167L9.538,11.167L9.605,11.167L9.791,11.167L9.967,11.167L10.149,11.167L10.511,11.167L10.693,11.167L10.877,11.167L11.055,11.167L11.237,11.167L11.599,11.167L11.78,11.167L11.965,11.167L12.143,11.167L12.324,11.167L12.687,11.167L12.868,11.167L13.057,11.167L13.231,11.167L13.775,11.167L13.956,11.167L14.144,11.167L14.319,11.167L14.501,11.167L18.493,22.278L18.671,22.278L18.852,22.278L19.215,22.278L19.396,22.278L19.581,22.278L19.759,22.278L19.94,22.278L20.303,22.278L20.484,22.278L20.672,22.278L21.572,22.278L21.76,22.278L21.935,22.278L22.116,22.278L22.479,22.278L22.66,22.278L37.167,22.278L37.348,22.278L37.71,22.278L37.892,22.278L38.081,22.278L38.255,22.278L38.436,22.278L38.798,22.278L38.98,22.278L39.169,22.278L39.342,22.278L39.524,22.278L39.886,22.278L40.068,22.278L40.256,22.278L40.431,22.278L40.612,22.278L40.974,22.278L41.156,22.278L41.341,22.278L41.518,22.278L41.7,22.278L58.382,22.278L58.563,22.278L58.751,22.278L58.926,22.278L59.107,22.278L59.47,22.278L59.651,22.278L59.839,22.278L60.014,22.278" stroke="#4c78a8" stroke-width="2"/></g></g><path class="foreground" aria-hidden="true" d="" display="none"/></g><g transform="translate(0,0)"><path class="background" aria-hidden="true" d="M0,0h200v200h-200Z"/><g><g class="mark-line role-mark child_marks" role="graphics-object" aria-roledescription="line mark container"><path aria-label="Time: Sep 14, 2023; Price: 6495; item: PARIS_ST._GERMAIN_CITY_MADE_PONCHO_-_Veste_de_survêtement_-_aura_white" role="graphics-symbol" aria-roledescription="line mark" d="M15.951,127.833L16.132,127.833L16.32,127.833L16.495,127.833L16.676,127.833L17.039,127.833L17.22,127.833L18.127,127.833L19.396,127.833L19.581,127.833L19.759,127.833L19.94,127.833L20.303,127.833L20.484,127.833L20.672,127.833L20.847,127.833L21.028,127.833L21.391,127.833L21.572,127.833L21.76,127.833L21.935,127.833L22.116,127.833L22.479,127.833L22.66,127.833L22.848,127.833L23.023,127.833L23.204,127.833L23.567,127.833L23.748,127.833L23.936,127.833L24.111,127.833L24.292,127.833L24.655,127.833L24.836,127.833L25.024,127.833L25.199,127.833L25.38,127.833L25.743,127.833L25.924,127.833L26.109,127.833L26.287,127.833L26.468,127.833L26.831,127.833L27.012,127.833L27.197,127.833L27.375,127.833L27.556,127.833L27.919,127.833L28.1,127.833L28.288,127.833L28.463,127.833L28.644,127.833L29.007,127.833L29.188,127.833L29.377,127.833" stroke="#bab0ac" stroke-width="2"/></g></g><path class="foreground" aria-hidden="true" d="" display="none"/></g><g transform="translate(0,0)"><path class="background" aria-hidden="true" d="M0,0h200v200h-200Z"/><g><g class="mark-line role-mark child_marks" role="graphics-object" aria-roledescription="line mark container"><path aria-label="Time: Sep 18, 2023; Price: 8995; item: HIKING_BACKPACK_PONCHO_-_Veste_imperméable_-_indian_red" role="graphics-symbol" aria-roledescription="line mark" d="M20.303,100.056L20.484,100.056L20.672,100.056L20.847,100.056L21.028,100.056L21.391,100.056L21.572,100.056L28.463,100.056L28.644,100.056L29.007,100.056L29.188,100.056L29.377,100.056L29.551,100.056L29.732,100.056L30.095,111.167L30.276,111.167L30.464,111.167L30.639,111.167L47.872,111.167L48.046,111.167L48.228,111.167L48.59,111.167L48.772,111.167L48.957,111.167L49.134,111.167L49.315,111.167L49.678,111.167L121.848,122.278L122.028,122.278L122.21,122.278L122.572,111.167L122.754,111.167" stroke="#ff9da6" stroke-width="2"/></g></g><path class="foreground" aria-hidden="true" d="" display="none"/></g><g transform="translate(0,0)"><path class="background" aria-hidden="true" d="M0,0h200v200h-200Z"/><g><g class="mark-line role-mark child_marks" role="graphics-object" aria-roledescription="line mark container"><path aria-label="Time: Sep 26, 2023; Price: 6495; item: PSG_M_NSW_CITY_MADE_PONCHO_-_Veste_de_survêtement_-_aura_white" role="graphics-symbol" aria-roledescription="line mark" d="M29.551,127.833L29.732,127.833L30.095,91.167L30.276,91.167L30.464,91.167L30.639,91.167L30.82,91.167L31.183,91.167L31.364,91.167L31.552,91.167L31.727,91.167L32.271,91.167L32.452,91.167L32.639,91.167L32.815,91.167L32.996,91.167L33.358,91.167L33.54,91.167L33.725,91.167L33.902,91.167L34.084,91.167L34.447,91.167L34.628,91.167L34.814,91.167L34.99,91.167L35.172,91.167L35.534,127.833L35.716,127.833L35.904,127.833L36.079,127.833L36.26,127.833L36.623,127.833L36.804,127.833L36.992,127.833L37.167,127.833L37.348,127.833L37.71,127.833L37.892,127.833L38.081,127.833L38.255,127.833L38.436,127.833L38.798,127.833L38.98,127.833L39.169,127.833L39.342,127.833L39.524,127.833L39.886,127.833L40.068,127.833L40.256,127.833L40.431,127.833L40.612,127.833L40.974,127.833L41.156,127.833L41.341,127.833L41.518,127.833L41.7,127.833L42.063,127.833L42.244,127.833L42.607,127.833L42.788,127.833L43.15,127.833L43.332,127.833L43.521,127.833L43.694,127.833L43.876,127.833L44.238,84.5L44.42,84.5L44.608,84.5L44.964,84.5L45.326,84.5L45.508,84.5L45.696,84.5L45.87,84.5L46.052,84.5L46.414,84.5L46.596,84.5L47.502,84.5L48.046,84.5L49.134,127.833L49.678,127.833L50.948,127.833L51.136,127.833L58.019,127.833L58.382,127.833L58.563,127.833L58.751,127.833L59.651,127.833L59.839,127.833L61.102,127.833L61.283,127.833L62.014,127.833L62.371,127.833L62.734,127.833L63.102,127.833L64.003,127.833L64.547,127.833L64.91,127.833L65.091,127.833L65.277,127.833L65.635,127.833L66.179,127.833L66.723,127.833L67.086,127.833L67.267,127.833L67.454,127.833L67.63,127.833L67.811,127.833L68.174,127.833L68.355,127.833L68.542,127.833L68.718,127.833L68.899,127.833L69.262,127.833L69.443,127.833L69.63,127.833L69.806,127.833L69.987,127.833L70.35,127.833L70.531,127.833L70.719,127.833L70.894,127.833L71.075,127.833L71.438,127.833L71.619,127.833L71.804,127.833L71.982,127.833L72.163,127.833L72.526,127.833L72.707,127.833L72.892,127.833L73.07,127.833L73.251,127.833L73.613,127.833L73.795,127.833L73.984,127.833L74.158,127.833L74.339,127.833L74.702,127.833L74.883,127.833L75.07,127.833L75.246,127.833L75.427,127.833L75.789,127.833L76.158,127.833L76.333,127.833L76.515,127.833L77.246,127.833L77.422,127.833L77.966,84.5L78.334,84.5L78.691,84.5L79.779,84.5L80.867,84.5L81.599,127.833L82.317,127.833L82.499,127.833L82.686,127.833L83.043,127.833L83.405,127.833L83.587,127.833L83.775,127.833L83.949,127.833L84.675,156.722L86.85,127.833L87.037,127.833L87.757,127.833L89.57,105.611L89.933,105.611L91.391,105.611L91.565,105.611L92.291,148.944L95.01,148.944L95.373,148.944L97.186,120.056L97.549,127.833L98.274,127.833L99.007,127.833L100.094,127.833L100.45,127.833L101.182,91.167L101.901,91.167L102.445,91.167L103.17,127.833L104.446,91.167L106.434,127.833L108.973,127.833L109.884,127.833L110.242,127.833L110.972,127.833L111.874,127.833L112.062,127.833L112.236,127.833L112.418,127.833L112.781,127.833L112.962,127.833L113.15,127.833L113.325,127.833L113.506,127.833L113.869,127.833L116.226,127.833L116.589,127.833L116.77,127.833L117.133,127.833L117.677,127.833L118.402,120.056L118.588,120.056L118.764,120.056L118.946,120.056L119.308,120.056L119.678,120.056L120.034,120.056L120.396,120.056L120.578,120.056L120.765,120.056L120.941,120.056L121.122,120.056L121.484,120.056L121.666,120.056L121.848,120.056L122.028,120.056L122.21,120.056L122.572,98.944L123.117,98.944L123.66,98.944L123.842,98.944L124.028,98.944L124.204,98.944L124.386,98.944L124.748,98.944L124.93,98.944L125.115,98.944L125.292,98.944L125.474,98.944L125.836,98.944L126.018,98.944L126.203,98.944L126.38,98.944L126.562,98.944L126.924,98.944L127.106,98.944L127.292,98.944L127.469,98.944L127.65,98.944L128.012,98.944L128.194,98.944L128.556,98.944L128.737,98.944L129.1,98.944L129.282,98.944L129.468,98.944L129.826,98.944L130.37,98.944L130.556,98.944L130.732,98.944L131.276,98.944L131.82,98.944L132.364,98.944L132.546,98.944L132.731,98.944L133.089,98.944L133.452,98.944L133.819,98.944L133.996,98.944L134.177,98.944L134.54,98.944L134.721,98.944L134.908,98.944L135.084,98.944L135.266,98.944L135.628,98.944L136.172,98.944L136.716,120.056L136.897,120.056L137.26,120.056L137.441,120.056L137.804,120.056L138.172,120.056L138.348,120.056L138.529,120.056L139.073,120.056L139.26,120.056L139.436,120.056L139.617,120.056L139.98,120.056L140.161,120.056L140.348,120.056L140.524,120.056L140.705,120.056L141.068,120.056L141.249,120.056L141.436,120.056L141.612,120.056L141.793,120.056L142.156,120.056L142.525,120.056L142.881,120.056L143.244,120.056L143.969,120.056L144.513,120.056L145.601,120.056L145.789,120.056L145.964,120.056L146.145,120.056L146.508,120.056L146.689,120.056L146.877,120.056L147.052,120.056L147.233,120.056L147.596,120.056L147.777,120.056L147.963,120.056L148.14,120.056L148.321,120.056L148.684,120.056L149.409,120.056L150.141,98.944L150.497,98.944L151.585,98.944L152.317,98.944L153.217,98.944L153.405,98.944L153.58,98.944L153.761,98.944L154.124,98.944L154.305,98.944L154.493,98.944L154.668,98.944L154.849,98.944L155.212,98.944L155.393,98.944L155.579,98.944L155.756,98.944L155.937,98.944L156.481,98.944L156.667,98.944L156.844,98.944L157.025,98.944L157.388,98.944L157.569,98.944L157.757,98.944L157.932,98.944L158.113,98.944L158.476,98.944L158.657,98.944L158.845,98.944L159.019,98.944L159.201,98.944L159.564,98.944L159.745,98.944L159.933,98.944L160.108,98.944L160.289,98.944L160.652,98.944L160.833,98.944L161.021,98.944L161.195,98.944L161.377,98.944L161.74,98.944L161.921,98.944L162.106,98.944L162.283,98.944L162.465,98.944L162.827,98.944L163.009,98.944L163.192,98.944L163.371,98.944L163.553,98.944L163.915,98.944L164.097,98.944L164.28,98.944L164.46,98.944L164.641,98.944L165.004,98.944L165.185,98.944L165.369,98.944L165.547,98.944L165.729,98.944L166.091,98.944L166.273,98.944L166.457,98.944L166.635,98.944L166.817,98.944L167.179,98.944L167.361,98.944L167.545,98.944L167.723,98.944L167.905,98.944L168.267,98.944L168.449,98.944L168.634,98.944L168.811,98.944L168.993,98.944L169.355,98.944L169.536,98.944L169.721,98.944L169.899,98.944L170.081,98.944L170.443,98.944L170.625,98.944L170.808,98.944L176.249,98.944L176.427,98.944L176.609,98.944L176.971,98.944L177.153,98.944L177.337,98.944L177.515,98.944L177.696,98.944L178.059,98.944L178.24,98.944L178.424,98.944L178.603,98.944L178.784,98.944L179.147,98.944L179.329,98.944L179.512,98.944L179.691,98.944L179.872,98.944L180.235,98.944L180.416,98.944L180.602,98.944L180.779,98.944L180.96,98.944L181.323,98.944L181.504,98.944L181.689,98.944L181.867,98.944L182.048,98.944L182.411,98.944L182.592,98.944L182.777,98.944L182.955,98.944L183.137,98.944L183.499,98.944L183.68,98.944L183.865,98.944L184.043,98.944L184.224,98.944L184.587,98.944L184.768,98.944L184.953,98.944L185.131,98.944L185.312,98.944L185.675,98.944L185.856,98.944L186.04,98.944L186.219,98.944L186.4,98.944L186.763,98.944L186.944,98.944L187.128,98.944L187.307,98.944L187.488,98.944L187.851,98.944L188.032,98.944L188.217,98.944" stroke="#54a24b" stroke-width="2"/></g></g><path class="foreground" aria-hidden="true" d="" display="none"/></g><g transform="translate(0,0)"><path class="background" aria-hidden="true" d="M0,0h200v200h-200Z"/><g><g class="mark-line role-mark child_marks" role="graphics-object" aria-roledescription="line mark container"><path aria-label="Time: Oct 12, 2023; Price: 4995; item: SHOWERPROOF_PONCHO_UNISEX_-_Cape_-_classic_tartan" role="graphics-symbol" aria-roledescription="line mark" d="M46.414,144.5L46.596,144.5L46.784,144.5L46.958,144.5L47.14,144.5L47.502,144.5L47.684,144.5L47.872,144.5L48.046,144.5L48.228,144.5L48.59,144.5L48.772,144.5L48.957,144.5L49.134,144.5L49.316,144.5L49.678,144.5L49.86,144.5L50.045,144.5L50.222,144.5L50.404,144.5L50.766,152.611L50.948,152.611L51.136,152.611L51.31,152.611L51.492,152.611L51.854,152.611L52.035,152.611L52.224,152.611L52.398,152.611L52.579,152.611L52.942,152.611L53.124,152.611L53.312,152.611L53.486,152.611L53.667,152.611L54.03,152.611L54.211,152.611L54.4,152.611L54.574,152.611L54.755,152.611L55.118,152.611L55.3,152.611L55.487,152.611L55.662,152.611L55.843,152.611L56.206,152.611L56.387,152.611L56.573,152.611L56.75,152.611L56.931,152.611L57.294,144.5L57.475,144.5L57.661,144.5L57.838,144.5L58.019,144.5L58.382,144.5L58.563,144.5L58.751,144.5L58.926,144.5L59.107,144.5L59.47,152.611L59.651,152.611L59.839,152.611L60.014,152.611L60.195,152.611L60.558,152.611L60.739,152.611L60.927,152.611L61.102,152.611L61.283,152.611L61.646,152.611L61.827,152.611L62.014,152.611L62.19,152.611L62.371,152.611L62.734,152.611L62.916,152.611L63.102,152.611L63.278,152.611L63.459,152.611L63.822,152.611L64.003,152.611L64.188,152.611L64.366,152.611L64.547,152.611L64.91,152.611L65.091,152.611L65.277,152.611L65.454,152.611L65.635,152.611L65.998,144.5L66.179,144.5L66.366,144.5L66.542,144.5L66.723,144.5L67.086,144.5L67.267,144.5L67.454,144.5L67.63,144.5L67.811,144.5L68.174,152.611L68.355,152.611L68.542,152.611L68.718,152.611L68.899,152.611L69.262,152.611L69.443,152.611L69.63,152.611L69.806,152.611L69.987,152.611L70.35,152.611L70.531,152.611L70.719,152.611L70.894,152.611L71.075,152.611L71.438,152.611L71.619,152.611L71.804,152.611L71.982,152.611L72.163,152.611L72.526,152.611L72.707,152.611L72.892,152.611L73.07,152.611L73.251,152.611L73.613,152.611L73.795,152.611L73.984,152.611L74.158,152.611L74.339,152.611L74.702,150.056L74.883,144.5L75.07,144.5L75.246,144.5L75.427,144.5L75.789,144.5L75.971,144.5L76.158,144.5L76.333,144.5L76.515,144.5L76.877,144.5L77.059,144.5L77.246,144.5L77.422,144.5L77.603,144.5L77.966,144.5L78.147,144.5L78.334,144.5L78.51,144.5L78.691,144.5L79.054,144.5L79.235,144.5L79.42,144.5L79.779,144.5L80.141,144.5L80.323,144.5L80.508,144.5L80.685,144.5L80.867,144.5L81.229,144.5L81.411,144.5L81.599,144.5L81.773,144.5L82.317,144.5L82.499,144.5L82.686,144.5L82.861,144.5L83.043,144.5L83.405,144.5L83.587,144.5L83.775,144.5L83.949,144.5L84.131,144.5L84.493,144.5L84.675,144.5L84.863,144.5L85.037,144.5L85.219,144.5L85.581,144.5L85.763,144.5L85.951,144.5L86.125,144.5L86.307,144.5L86.669,144.5L86.85,144.5L87.037,144.5L87.213,144.5L87.395,144.5L87.757,144.5L87.939,144.5L88.125,144.5L88.301,144.5L88.483,144.5L88.845,144.5L89.027,144.5L89.216,144.5L89.389,144.5L89.57,144.5L89.933,144.5L90.114,144.5L90.303,144.5L90.477,144.5L90.658,144.5L91.021,144.5L91.203,144.5L91.391,144.5L91.565,144.5L91.746,144.5L104.621,144.5L104.802,144.5L105.165,144.5L105.346,144.5L105.534,144.5L105.709,144.5L105.89,144.5L106.253,144.5L106.434,144.5L106.622,144.5L106.797,144.5L106.978,144.5L107.341,144.5L107.522,144.5L107.71,144.5L107.885,144.5L108.066,144.5L108.429,144.5L108.61,144.5L108.797,144.5L108.973,144.5L109.154,144.5L109.517,144.5L109.698,144.5L109.884,144.5L110.061,144.5L110.242,144.5L110.605,144.5L110.786,144.5L110.972,144.5L111.149,144.5L111.33,144.5L111.693,144.5L111.874,144.5L112.062,144.5L112.236,144.5L112.418,144.5L112.781,144.5L112.962,144.5L113.15,144.5L113.325,144.5L113.506,144.5L113.869,144.5L114.05,144.5L114.238,144.5L114.413,144.5L114.594,144.5L114.957,144.5L115.138,144.5L115.326,144.5L115.501,144.5L115.682,144.5L116.045,144.5L116.226,144.5L116.413,144.5L116.589,144.5L116.77,144.5L117.133,144.5L117.314,144.5L117.499,144.5L117.677,144.5L117.858,144.5L118.22,144.5L118.402,144.5L118.588,144.5L118.764,144.5L118.946,144.5L119.308,144.5L119.49,144.5L119.678,144.5L119.852,144.5L120.034,144.5L120.396,158.167L120.578,158.167L120.765,158.167L120.941,158.167L121.122,158.167L121.484,158.167L121.666,158.167L121.848,158.167L122.028,158.167L122.21,158.167L122.572,144.5L122.754,144.5L123.117,144.5L123.298,144.5L123.66,144.5L123.842,144.5L124.028,144.5L124.204,144.5L124.386,144.5L124.748,144.5L124.93,144.5L125.115,144.5L125.292,144.5L125.474,144.5L125.836,144.5L126.018,144.5L126.203,144.5L126.38,144.5L126.562,144.5L126.924,144.5L127.106,144.5L127.292,144.5L127.469,144.5L127.65,144.5L128.012,144.5L128.193,144.5L128.379,144.5L128.556,144.5L128.737,144.5L129.1,144.5L129.282,144.5L129.468,144.5L129.644,144.5L129.825,144.5L130.188,144.5L130.37,144.5L130.556,144.5L130.732,144.5L130.914,144.5L131.276,144.5L131.457,144.5L131.644,144.5L131.82,144.5L132.002,144.5L132.364,144.5L132.546,144.5L132.731,144.5L132.908,144.5L133.089,144.5L133.452,144.5L133.634,144.5L133.819,144.5L133.996,144.5L134.177,144.5L134.54,144.5L134.721,144.5L134.908,144.5L135.084,144.5L135.266,144.5L135.628,144.5L135.809,144.5L135.996,144.5L136.172,144.5L136.353,144.5L136.716,144.5L136.897,144.5L137.085,144.5L137.26,144.5L137.441,144.5L137.804,144.5L137.985,144.5L138.172,144.5L138.348,144.5L138.529,144.5L138.892,144.5L139.073,144.5L139.26,144.5L139.436,144.5L139.617,144.5L139.98,144.5L140.161,144.5L140.348,144.5L140.524,144.5L140.705,144.5L141.068,144.5L141.249,144.5L141.436,144.5L141.612,144.5L141.793,144.5L142.156,144.5L142.337,144.5L142.525,144.5L142.7,144.5L142.881,144.5L143.244,152.611L143.425,152.611L143.617,152.611L143.788,152.611L143.969,152.611L144.332,152.611L144.513,152.611L144.701,152.611L144.876,152.611L145.057,152.611L145.42,158.167L145.601,158.167L145.789,158.167L145.964,158.167L146.145,158.167L146.508,158.167L146.689,158.167L146.877,158.167L147.052,158.167L147.233,158.167L147.596,158.167L147.777,158.167L147.963,158.167L148.14,158.167L148.321,158.167L148.684,144.5L148.865,144.5L149.051,144.5L149.228,144.5L149.409,144.5L149.772,158.167L149.953,158.167L150.141,158.167L150.316,158.167L150.497,158.167L150.86,150.056L151.041,150.056L151.229,150.056L151.404,150.056L151.585,150.056L151.948,144.5L152.129,144.5L152.317,144.5L152.492,144.5L152.673,144.5L153.036,150.056L153.217,150.056L153.405,150.056L153.58,150.056L153.761,150.056L154.124,161.167L154.305,161.167L154.493,161.167L154.668,161.167L154.849,161.167L155.212,161.167L155.393,161.167L155.579,161.167L155.756,161.167L155.937,161.167L156.481,144.5L156.667,144.5L156.844,144.5L157.025,144.5L157.388,161.167L157.569,161.167L157.757,161.167L157.932,161.167L158.113,161.167L158.476,150.056L158.657,150.056L158.845,150.056L159.019,150.056L159.201,150.056L159.564,144.5L159.745,144.5L159.933,144.5L160.108,144.5L160.289,144.5L160.652,150.056L160.833,150.056L161.021,150.056L161.195,150.056L161.377,150.056L161.74,150.056L161.921,150.056L162.106,150.056L162.283,150.056L162.465,150.056L162.827,144.5L163.009,144.5L163.192,144.5L163.371,144.5L163.553,144.5L163.915,144.5L164.097,144.5L164.28,144.5L164.46,144.5L164.641,144.5L165.004,144.5L165.185,144.5L165.369,144.5L165.547,144.5L165.729,144.5L166.091,144.5L166.273,144.5L166.457,144.5L166.635,144.5L166.817,144.5L167.179,144.5L167.361,144.5L167.545,144.5L167.723,144.5L167.905,144.5L168.267,152.611L168.449,152.611L168.634,152.611L168.811,152.611L168.993,152.611L169.355,152.611L169.536,152.611L169.721,152.611L169.899,152.611L170.081,152.611L170.443,152.611L170.625,152.611L170.808,152.611L170.987,152.611L171.169,152.611L171.531,133.389L171.713,133.389L171.896,133.389L172.075,133.389L172.257,133.389L172.619,133.389L172.801,133.389L172.986,133.389L173.163,133.389L173.345,133.389L173.707,133.389L173.889,133.389L174.073,133.389L174.252,133.389L174.433,133.389L174.795,150.056L174.977,150.056L175.161,150.056L175.339,150.056L175.521,150.056L175.883,133.389L176.065,133.389L176.249,133.389L176.427,133.389L176.609,133.389L176.971,133.389L177.153,133.389L177.337,133.389L177.515,133.389L177.696,133.389L178.059,133.389L178.24,133.389L178.424,133.389L178.603,133.389L178.784,133.389L179.147,133.389L179.329,133.389L179.512,133.389L179.691,133.389L179.872,133.389L180.235,133.389L180.416,133.389L180.602,133.389L180.779,133.389L180.96,133.389L181.323,133.389L181.504,133.389L181.689,133.389L181.867,133.389L182.048,133.389L182.411,146.722L182.592,146.722L182.777,146.722L182.955,146.722L183.137,146.722L183.499,133.389L183.68,133.389L183.865,133.389L184.043,133.389L184.224,133.389L184.587,133.389L184.768,133.389L184.953,133.389L185.131,133.389L185.312,133.389L185.675,133.389L185.856,133.389L186.04,133.389L186.219,133.389L186.4,133.389L186.763,133.389L186.944,133.389L187.128,133.389L187.307,133.389L187.488,133.389L187.851,133.389L188.032,133.389L188.217,133.389L188.395,133.389L188.576,133.389L188.939,133.389L189.12,133.389L189.304,133.389L189.483,133.389L189.664,133.389L190.027,143.389L190.208,143.389L190.393,143.389L190.571,143.389L190.752,143.389L191.115,143.389L191.296,143.389L191.481,143.389L191.659,143.389L191.84,143.389L192.203,143.389L192.384,143.389L192.568,143.389L192.747,143.389L192.928,143.389L193.291,143.389L193.472,143.389L193.655,143.389L193.835,143.389L194.016,143.389L194.379,133.389L194.56,133.389L194.743,133.389L194.923,133.389L195.104,133.389L195.467,133.389L195.648,133.389L195.833,133.389L196.011,133.389L196.192,133.389L196.555,143.389L196.736,143.389L196.921,143.389L197.099,143.389L197.28,143.389L197.642,143.389L197.824,143.389L198.008,143.389L198.187,143.389L198.368,143.389L198.731,143.389L198.912,143.389L199.096,143.389L199.275,143.389L199.456,143.389L199.819,143.389L200,143.389" stroke="#4c78a8" stroke-width="2"/></g></g><path class="foreground" aria-hidden="true" d="" display="none"/></g><g transform="translate(0,0)"><path class="background" aria-hidden="true" d="M0,0h200v200h-200Z"/><g><g class="mark-line role-mark child_marks" role="graphics-object" aria-roledescription="line mark container"><path aria-label="Time: Oct 12, 2023; Price: 13995; item: PONCHO_-_Cape_-_lucid_blue" role="graphics-symbol" aria-roledescription="line mark" d="M46.414,44.5L47.684,44.5L48.046,44.5L48.59,91.167L49.134,91.167L49.86,91.167L50.045,91.167L50.222,91.167L50.404,91.167L50.766,91.167L50.948,91.167L51.136,91.167L51.31,91.167L51.492,91.167L51.854,91.167L52.035,91.167L52.224,91.167L52.398,91.167L52.579,91.167L52.942,91.167L53.124,91.167L53.312,91.167L53.486,91.167L53.667,91.167L54.03,91.167L54.211,91.167L54.4,91.167L54.755,91.167L55.662,91.167L55.843,91.167L56.206,91.167L56.75,91.167L57.294,91.167L57.475,91.167L57.661,91.167L57.838,91.167L58.019,91.167L58.926,91.167L59.47,114.5L59.651,114.5L60.195,114.5L60.739,114.5L60.927,114.5L61.102,114.5L61.646,114.5L62.734,114.5L62.916,114.5L63.102,114.5L63.278,114.5L63.459,114.5L63.822,114.5L64.003,114.5L64.188,114.5L64.366,114.5L64.547,114.5L64.91,114.5L65.091,114.5L65.277,114.5L65.454,114.5L65.635,114.5L65.998,114.5L66.179,114.5L66.366,114.5L66.542,114.5L66.723,114.5L67.086,114.5L67.267,114.5L67.454,114.5L67.63,114.5L67.811,114.5L68.174,114.5L68.355,114.5L68.542,114.5L68.718,114.5L68.899,114.5L69.262,83.389L69.443,83.389L69.987,83.389L70.35,83.389L71.438,83.389L71.619,83.389L71.982,83.389L72.163,83.389L72.526,83.389L72.707,83.389L72.892,83.389L73.07,83.389L73.251,83.389L73.613,83.389L73.795,83.389L74.339,83.389L74.702,44.5L74.883,44.5L75.07,44.5L75.246,44.5L75.427,44.5L75.789,44.5L75.971,44.5L76.158,44.5L76.333,44.5L76.515,44.5L76.877,44.5L77.059,44.5L77.246,44.5L77.422,44.5L77.603,44.5L77.966,122.278L78.334,122.278L78.691,122.278L79.235,122.278L79.42,122.278L79.779,122.278L80.141,122.278L80.323,122.278L80.508,122.278L80.685,122.278L80.867,122.278L81.229,44.5L81.411,44.5L81.599,44.5L81.773,44.5L82.317,44.5L82.499,44.5L82.686,44.5L82.861,44.5L83.043,44.5L83.405,44.5L83.587,44.5L83.775,44.5L83.949,44.5L84.131,44.5L84.675,130.056L84.863,130.056L85.037,130.056L85.219,130.056L85.581,130.056L86.307,130.056L86.669,44.5L86.85,44.5L87.037,44.5L87.757,44.5L87.939,44.5L88.125,44.5L88.301,44.5L88.483,44.5L88.845,60.056L89.027,60.056L89.216,106.722L89.389,106.722L89.57,122.278L89.933,122.278L90.114,122.278L90.303,122.278L90.477,122.278L90.658,122.278L91.021,122.278L91.203,122.278L91.391,122.278L91.565,122.278L91.746,122.278L92.109,122.278L92.291,122.278L92.478,122.278L92.653,122.278L92.835,122.278L93.197,122.278L94.467,130.056L94.652,122.278L94.829,122.278L95.01,122.278L95.373,122.278L95.555,122.278L95.741,122.278L95.917,122.278L96.098,122.278L96.461,122.278L97.186,75.611L97.549,44.5L97.73,44.5L97.918,44.5L98.093,44.5L98.274,44.5L98.637,44.5L98.818,44.5L99.007,44.5L99.181,44.5L99.362,44.5L99.725,44.5L99.906,44.5L100.094,44.5L100.269,44.5L100.45,44.5L100.813,44.5L100.994,44.5L101.182,44.5L101.538,44.5L101.901,44.5L102.082,44.5L102.268,44.5L102.445,44.5L102.626,44.5L102.989,44.5L103.17,44.5L103.356,44.5L103.533,44.5L103.714,44.5L104.077,44.5L104.446,44.5L106.434,91.167L106.622,91.167L106.797,91.167L106.978,91.167L107.341,91.167L108.797,91.167L108.973,91.167L109.884,91.167L110.242,91.167L110.972,122.278L111.149,122.278L111.33,122.278L111.693,122.278L111.874,122.278L112.062,122.278L112.236,122.278L112.418,122.278L112.781,91.167L113.15,91.167L113.325,91.167L113.506,91.167L113.869,91.167L115.138,91.167L115.326,91.167L115.501,91.167L115.682,91.167L116.045,91.167L116.226,91.167L116.413,91.167L116.589,91.167L116.77,91.167L117.133,91.167L117.677,91.167L118.402,106.722L118.588,106.722L118.764,106.722L118.946,106.722L119.308,106.722L119.49,106.722L119.678,106.722L119.852,106.722L120.034,106.722L120.396,106.722L120.578,106.722L120.765,106.722L120.941,106.722L121.122,106.722L121.484,106.722L121.666,106.722L121.848,106.722L122.028,106.722L122.21,106.722L122.572,91.167L123.117,91.167L123.298,91.167L123.66,91.167L123.842,91.167L124.028,91.167L124.204,91.167L124.386,91.167L124.748,91.167L124.93,91.167L125.115,91.167L125.292,91.167L125.474,91.167L125.836,91.167L126.018,91.167L126.203,91.167L126.38,91.167L126.562,91.167L126.924,91.167L127.106,91.167L127.292,91.167L127.469,91.167L127.65,91.167L128.012,91.167L128.193,91.167L128.379,91.167L128.556,91.167L128.737,91.167L129.1,91.167L129.282,91.167L129.468,91.167L129.644,91.167L129.825,91.167L130.188,83.389L130.37,83.389L130.556,83.389L130.732,83.389L130.914,83.389L131.276,83.389L131.457,83.389L131.644,83.389L131.82,83.389L132.002,83.389L132.364,83.389L132.546,83.389L132.731,83.389L132.908,83.389L133.089,83.389L133.452,83.389L133.634,83.389L133.819,83.389L133.996,83.389L134.177,83.389L134.54,83.389L134.721,83.389L134.908,83.389L135.084,83.389L135.266,83.389L135.628,83.389L135.809,83.389L135.996,83.389L136.172,83.389L136.353,83.389L136.716,106.722L136.897,106.722L137.085,106.722L137.26,106.722L137.441,106.722L137.804,106.722L137.985,106.722L138.172,106.722L138.348,106.722L138.529,106.722L138.892,106.722L139.073,106.722L139.26,106.722L139.436,106.722L139.617,106.722L139.98,114.5L140.161,114.5L140.348,114.5L140.524,114.5L140.705,114.5L141.068,106.722L141.249,106.722L141.436,106.722L141.612,106.722L141.793,106.722L142.156,114.5L142.337,114.5L142.525,114.5L142.7,114.5L142.881,114.5L143.244,122.278L143.425,122.278L143.617,122.278L143.788,122.278L143.969,122.278L144.332,122.278L144.513,122.278L144.701,122.278L144.876,122.278L145.057,122.278L145.42,122.278L145.601,122.278L145.789,122.278L145.964,122.278L146.145,122.278L146.508,122.278L146.689,122.278L146.877,122.278L147.052,122.278L147.233,122.278L147.596,122.278L147.777,122.278L147.963,122.278L148.14,122.278L148.321,122.278L148.684,122.278L148.865,122.278L149.051,122.278L149.228,122.278L149.409,122.278L149.772,122.278L149.953,122.278L150.141,122.278L150.316,122.278L150.497,122.278L150.86,114.5L151.041,114.5L151.229,114.5L151.404,114.5L151.585,114.5L151.948,122.278L152.129,122.278L152.317,122.278L152.492,122.278L152.673,122.278L153.036,114.5L153.217,114.5L153.405,114.5L153.58,114.5L153.761,114.5L154.124,122.278L154.305,122.278L154.493,122.278L154.668,122.278L154.849,122.278L155.212,122.278L155.393,122.278L155.579,122.278L155.756,122.278L155.937,122.278L156.481,122.278L156.667,122.278L156.844,122.278L157.025,122.278L157.388,122.278L157.569,122.278L157.757,122.278L157.932,122.278L158.113,122.278L158.476,145.611L158.657,145.611L158.845,145.611L159.019,145.611L159.201,145.611L159.564,145.611L159.745,145.611L159.933,145.611L160.108,145.611L160.289,145.611L160.652,145.611L160.833,145.611L161.021,145.611L161.195,145.611L161.377,145.611L161.74,145.611L161.921,145.611L162.106,145.611L162.283,145.611L162.465,145.611L162.827,145.611L163.009,145.611L163.192,145.611L163.371,145.611L163.553,145.611L163.915,145.611L164.097,145.611L164.28,145.611L164.46,145.611L164.641,145.611L165.004,106.722L165.185,106.722L165.369,106.722L165.547,106.722L165.729,106.722L166.091,106.722L166.273,106.722L166.457,106.722L166.635,106.722L166.817,106.722L167.179,106.722L167.361,106.722L167.545,137.833L167.723,137.833L167.905,137.833L168.267,44.5L168.449,44.5L168.634,44.5L168.811,44.5L168.993,44.5L169.355,44.5L169.536,44.5L169.721,44.5L169.899,44.5L170.081,44.5L170.443,44.5L170.625,44.5L170.808,44.5L170.987,44.5L171.169,44.5L171.531,44.5L171.713,44.5L171.896,44.5L172.075,44.5L172.257,44.5L172.619,44.5L172.801,44.5L173.707,44.5L173.889,44.5L174.073,44.5L174.252,44.5L174.433,44.5L174.795,122.278L174.977,122.278L175.161,122.278L175.339,122.278L175.521,122.278L175.883,122.278L176.065,122.278L176.249,122.278L176.427,122.278L176.609,122.278L176.971,98.944L177.153,98.944L177.337,98.944L177.515,98.944L177.696,98.944L178.059,98.944L178.24,98.944L178.424,98.944L178.603,98.944L178.784,98.944L179.691,98.944L179.872,98.944L180.235,98.944L180.416,98.944L180.602,98.944L180.779,98.944L180.96,98.944L181.504,114.5L182.411,114.5L183.137,114.5L183.499,67.833L185.312,67.833L185.856,67.833L187.128,67.833L187.851,67.833L188.032,67.833L188.217,67.833L188.395,67.833L188.576,67.833L190.027,91.167L190.571,91.167L190.752,91.167L191.115,91.167L191.296,91.167L191.481,91.167L191.659,91.167L191.84,91.167L192.203,91.167L192.384,91.167L192.568,91.167L192.747,91.167L192.928,91.167L193.291,91.167L193.472,91.167L193.655,91.167L193.835,91.167L194.016,91.167L194.379,114.5L194.56,114.5L194.743,114.5L194.923,114.5L195.104,114.5L195.467,114.5L195.648,114.5L195.833,114.5L196.011,114.5L196.192,114.5L196.736,114.5L197.099,114.5L197.28,114.5L197.824,114.5L198.008,114.5L198.187,114.5L198.368,114.5L199.275,114.5L199.819,114.5" stroke="#b279a2" stroke-width="2"/></g></g><path class="foreground" aria-hidden="true" d="" display="none"/></g><g transform="translate(0,0)"><path class="background" aria-hidden="true" d="M0,0h200v200h-200Z"/><g><g class="mark-line role-mark child_marks" role="graphics-object" aria-roledescription="line mark container"><path aria-label="Time: Dec 18, 2023; Price: 10995; item: K_ESSENTIAL_RAIN_PONCHO_UNISEX_-_Cape_-_black" role="graphics-symbol" aria-roledescription="line mark" d="M119.678,77.833L120.396,77.833L120.578,77.833L120.941,77.833L121.122,77.833L121.484,77.833L121.848,77.833L122.028,77.833L122.21,77.833L123.117,77.833L123.66,77.833L123.842,77.833L124.028,77.833L124.386,77.833L124.748,77.833L124.93,77.833L125.474,77.833L125.836,77.833L126.018,77.833L126.203,77.833L126.38,77.833L126.562,77.833L127.106,77.833L127.65,77.833L128.012,77.833L128.194,77.833L128.737,77.833L129.282,77.833L129.468,77.833L129.825,77.833L130.37,77.833L130.556,77.833L131.276,77.833L131.82,77.833L132.364,77.833L132.546,77.833L132.731,77.833L133.089,77.833L133.819,77.833L133.996,77.833L134.54,77.833L134.908,77.833L135.084,77.833L135.266,77.833L136.172,77.833L136.716,77.833L136.897,77.833L137.26,77.833L137.441,77.833L137.804,77.833L138.172,77.833L138.348,77.833L139.26,77.833L139.436,77.833L140.524,77.833L140.705,77.833L141.068,77.833L142.881,77.833L143.244,77.833L160.652,77.833L160.833,77.833L161.021,77.833L161.195,77.833L161.377,77.833L161.74,77.833L161.921,77.833L162.106,77.833L162.283,77.833L162.465,77.833L162.827,77.833L163.009,77.833L163.192,77.833L163.371,77.833L163.553,77.833L163.915,77.833L164.097,77.833L164.28,77.833L164.46,77.833L164.641,77.833L165.004,77.833L165.185,77.833L165.369,77.833L165.547,77.833L165.729,77.833L166.091,77.833L166.273,77.833L166.457,77.833L166.635,77.833L166.817,77.833L167.179,77.833L167.361,77.833L167.545,77.833L167.723,77.833L167.905,77.833L168.267,77.833L168.449,77.833L168.634,77.833L168.811,77.833L168.993,77.833L169.355,77.833L169.536,77.833L169.721,77.833L169.899,77.833L170.081,77.833L170.443,77.833L170.625,77.833L170.808,77.833L170.987,77.833L171.169,77.833L171.531,77.833L171.713,77.833L171.896,77.833L172.075,77.833L172.257,77.833L172.619,77.833L172.801,77.833L172.986,77.833L173.163,77.833L173.345,77.833L173.707,77.833L173.889,77.833L174.073,77.833L174.252,77.833L174.433,77.833L174.795,77.833L174.977,77.833L175.161,77.833L175.339,77.833L175.521,77.833L175.883,77.833L176.065,77.833L176.249,77.833L176.427,77.833L176.609,77.833L176.971,77.833L177.153,77.833L177.337,77.833L177.515,77.833L177.696,77.833L178.059,77.833L178.24,77.833L178.424,77.833L178.603,77.833L178.784,77.833L179.147,77.833L179.329,77.833L179.512,77.833L179.691,77.833L179.872,77.833L180.235,77.833L180.416,77.833L180.602,77.833L180.779,77.833L180.96,77.833L181.323,77.833L181.504,77.833L181.689,77.833L181.867,77.833L182.048,77.833L182.411,90.056L182.592,90.056L182.777,90.056L182.955,90.056L183.137,90.056L183.499,77.833L183.68,77.833L183.865,77.833L184.043,77.833L184.224,77.833L184.587,77.833L184.768,77.833L184.953,77.833L185.131,77.833L185.312,77.833L185.675,77.833L185.856,77.833L186.04,77.833L186.219,77.833L186.4,77.833L186.763,77.833L186.944,77.833L187.128,77.833L187.307,77.833L187.488,77.833L187.851,77.833L188.032,77.833L188.217,77.833L188.395,77.833L188.576,77.833L188.939,77.833L189.12,77.833L189.304,77.833L189.483,77.833L189.664,77.833L190.027,77.833L190.208,77.833L190.393,77.833L190.571,77.833L190.752,77.833L191.115,77.833L191.296,77.833L191.481,77.833L191.659,77.833L191.84,77.833L192.203,77.833L192.384,77.833L192.568,77.833L192.747,77.833L192.928,77.833L193.291,77.833L193.472,77.833L193.655,77.833L193.835,77.833L194.016,77.833L194.379,77.833L194.56,77.833L194.743,77.833L194.923,77.833L195.104,77.833L195.467,77.833L195.648,77.833L195.833,77.833L196.011,77.833L196.192,77.833L196.555,77.833L196.736,77.833L196.921,77.833L197.099,77.833L197.28,77.833L197.642,77.833L197.824,77.833L198.008,77.833L198.187,77.833L198.368,77.833L198.731,77.833L198.912,77.833L199.096,77.833L199.275,77.833L199.456,77.833L199.819,77.833L200,77.833" stroke="#72b7b2" stroke-width="2"/></g></g><path class="foreground" aria-hidden="true" d="" display="none"/></g><g transform="translate(0,0)"><path class="background" aria-hidden="true" d="M0,0h200v200h-200Z"/><g><g class="mark-line role-mark child_marks" role="graphics-object" aria-roledescription="line mark container"><path aria-label="Time: Dec 18, 2023; Price: 5845; item: PONCHO_-_Peignoir_-_dark_blue" role="graphics-symbol" aria-roledescription="line mark" d="M119.678,135.056L121.122,135.056L123.842,125.056L124.93,125.056L125.474,125.056L126.562,125.056L139.26,130.056" stroke="#9d755d" stroke-width="2"/></g></g><path class="foreground" aria-hidden="true" d="" display="none"/></g></g><g class="mark-group role-legend" role="graphics-symbol" aria-roledescription="legend" aria-label="Symbol legend titled 'item' for stroke color with 12 values: KUURA_3L_PONCHO_UNISEX_-_Veste_imperméable_-_green, DESCHUTES_VALLEY™_RAIN_PONCHO_-_Parka_-_black, DESCHUTES_VALLEY™_RAIN_PONCHO_-_Parka_-_vista_blue, K_ESSENTIAL_RAIN_PONCHO_UNISEX_-_Cape_-_black, PSG_M_NSW_CITY_MADE_PONCHO_-_Veste_de_survêtement_-_aura_white, ending with COVERO_PONCHO_II_-_Cape_-_lightgrey"><g transform="translate(220,0)"><path class="background" aria-hidden="true" d="M0,0h328v170h-328Z" pointer-events="none"/><g><g class="mark-group role-legend-entry"><g transform="translate(0,16)"><path class="background" aria-hidden="true" d="M0,0h0v0h0Z" pointer-events="none"/><g><g class="mark-group role-scope" role="graphics-object" aria-roledescription="group mark container"><g transform="translate(0,0)"><path class="background" aria-hidden="true" d="M0,0h328v11h-328Z" pointer-events="none" opacity="1"/><g><g class="mark-symbol role-legend-symbol" pointer-events="none"><path transform="translate(6,6)" d="M-5,0L5,0" stroke="#4c78a8" stroke-width="1.5" opacity="1"/></g><g class="mark-text role-legend-label" pointer-events="none"><text text-anchor="start" transform="translate(16,9)" font-family="Liberation Mono" font-size="10px" fill="#000" opacity="1">KUURA_3L_PONCHO_UNISEX_-_Veste_impermé…</text></g></g><path class="foreground" aria-hidden="true" d="" pointer-events="none" display="none"/></g><g transform="translate(0,13)"><path class="background" aria-hidden="true" d="M0,0h328v11h-328Z" pointer-events="none" opacity="1"/><g><g class="mark-symbol role-legend-symbol" pointer-events="none"><path transform="translate(6,6)" d="M-5,0L5,0" stroke="#f58518" stroke-width="1.5" opacity="1"/></g><g class="mark-text role-legend-label" pointer-events="none"><text text-anchor="start" transform="translate(16,9)" font-family="Liberation Mono" font-size="10px" fill="#000" opacity="1">DESCHUTES_VALLEY™_RAIN_PONCHO_-_Parka_…</text></g></g><path class="foreground" aria-hidden="true" d="" pointer-events="none" display="none"/></g><g transform="translate(0,26)"><path class="background" aria-hidden="true" d="M0,0h328v11h-328Z" pointer-events="none" opacity="1"/><g><g class="mark-symbol role-legend-symbol" pointer-events="none"><path transform="translate(6,6)" d="M-5,0L5,0" stroke="#e45756" stroke-width="1.5" opacity="1"/></g><g class="mark-text role-legend-label" pointer-events="none"><text text-anchor="start" transform="translate(16,9)" font-family="Liberation Mono" font-size="10px" fill="#000" opacity="1">DESCHUTES_VALLEY™_RAIN_PONCHO_-_Parka_…</text></g></g><path class="foreground" aria-hidden="true" d="" pointer-events="none" display="none"/></g><g transform="translate(0,39)"><path class="background" aria-hidden="true" d="M0,0h328v11h-328Z" pointer-events="none" opacity="1"/><g><g class="mark-symbol role-legend-symbol" pointer-events="none"><path transform="translate(6,6)" d="M-5,0L5,0" stroke="#72b7b2" stroke-width="1.5" opacity="1"/></g><g class="mark-text role-legend-label" pointer-events="none"><text text-anchor="start" transform="translate(16,9)" font-family="Liberation Mono" font-size="10px" fill="#000" opacity="1">K_ESSENTIAL_RAIN_PONCHO_UNISEX_-_Cape_…</text></g></g><path class="foreground" aria-hidden="true" d="" pointer-events="none" display="none"/></g><g transform="translate(0,52)"><path class="background" aria-hidden="true" d="M0,0h328v11h-328Z" pointer-events="none" opacity="1"/><g><g class="mark-symbol role-legend-symbol" pointer-events="none"><path transform="translate(6,6)" d="M-5,0L5,0" stroke="#54a24b" stroke-width="1.5" opacity="1"/></g><g class="mark-text role-legend-label" pointer-events="none"><text text-anchor="start" transform="translate(16,9)" font-family="Liberation Mono" font-size="10px" fill="#000" opacity="1">PSG_M_NSW_CITY_MADE_PONCHO_-_Veste_de_…</text></g></g><path class="foreground" aria-hidden="true" d="" pointer-events="none" display="none"/></g><g transform="translate(0,65)"><path class="background" aria-hidden="true" d="M0,0h328v11h-328Z" pointer-events="none" opacity="1"/><g><g class="mark-symbol role-legend-symbol" pointer-events="none"><path transform="translate(6,6)" d="M-5,0L5,0" stroke="#eeca3b" stroke-width="1.5" opacity="1"/></g><g class="mark-text role-legend-label" pointer-events="none"><text text-anchor="start" transform="translate(16,9)" font-family="Liberation Mono" font-size="10px" fill="#000" opacity="1">HIKING_BACKPACK_PONCHO_-_Veste_impermé…</text></g></g><path class="foreground" aria-hidden="true" d="" pointer-events="none" display="none"/></g><g transform="translate(0,78)"><path class="background" aria-hidden="true" d="M0,0h328v11h-328Z" pointer-events="none" opacity="1"/><g><g class="mark-symbol role-legend-symbol" pointer-events="none"><path transform="translate(6,6)" d="M-5,0L5,0" stroke="#b279a2" stroke-width="1.5" opacity="1"/></g><g class="mark-text role-legend-label" pointer-events="none"><text text-anchor="start" transform="translate(16,9)" font-family="Liberation Mono" font-size="10px" fill="#000" opacity="1">PONCHO_-_Cape_-_lucid_blue</text></g></g><path class="foreground" aria-hidden="true" d="" pointer-events="none" display="none"/></g><g transform="translate(0,91)"><path class="background" aria-hidden="true" d="M0,0h328v11h-328Z" pointer-events="none" opacity="1"/><g><g class="mark-symbol role-legend-symbol" pointer-events="none"><path transform="translate(6,6)" d="M-5,0L5,0" stroke="#ff9da6" stroke-width="1.5" opacity="1"/></g><g class="mark-text role-legend-label" pointer-events="none"><text text-anchor="start" transform="translate(16,9)" font-family="Liberation Mono" font-size="10px" fill="#000" opacity="1">HIKING_BACKPACK_PONCHO_-_Veste_impermé…</text></g></g><path class="foreground" aria-hidden="true" d="" pointer-events="none" display="none"/></g><g transform="translate(0,104)"><path class="background" aria-hidden="true" d="M0,0h328v11h-328Z" pointer-events="none" opacity="1"/><g><g class="mark-symbol role-legend-symbol" pointer-events="none"><path transform="translate(6,6)" d="M-5,0L5,0" stroke="#9d755d" stroke-width="1.5" opacity="1"/></g><g class="mark-text role-legend-label" pointer-events="none"><text text-anchor="start" transform="translate(16,9)" font-family="Liberation Mono" font-size="10px" fill="#000" opacity="1">PONCHO_-_Peignoir_-_dark_blue</text></g></g><path class="foreground" aria-hidden="true" d="" pointer-events="none" display="none"/></g><g transform="translate(0,117)"><path class="background" aria-hidden="true" d="M0,0h328v11h-328Z" pointer-events="none" opacity="1"/><g><g class="mark-symbol role-legend-symbol" pointer-events="none"><path transform="translate(6,6)" d="M-5,0L5,0" stroke="#bab0ac" stroke-width="1.5" opacity="1"/></g><g class="mark-text role-legend-label" pointer-events="none"><text text-anchor="start" transform="translate(16,9)" font-family="Liberation Mono" font-size="10px" fill="#000" opacity="1">PARIS_ST._GERMAIN_CITY_MADE_PONCHO_-_V…</text></g></g><path class="foreground" aria-hidden="true" d="" pointer-events="none" display="none"/></g><g transform="translate(0,130)"><path class="background" aria-hidden="true" d="M0,0h328v11h-328Z" pointer-events="none" opacity="1"/><g><g class="mark-symbol role-legend-symbol" pointer-events="none"><path transform="translate(6,6)" d="M-5,0L5,0" stroke="#4c78a8" stroke-width="1.5" opacity="1"/></g><g class="mark-text role-legend-label" pointer-events="none"><text text-anchor="start" transform="translate(16,9)" font-family="Liberation Mono" font-size="10px" fill="#000" opacity="1">SHOWERPROOF_PONCHO_UNISEX_-_Cape_-_cla…</text></g></g><path class="foreground" aria-hidden="true" d="" pointer-events="none" display="none"/></g><g transform="translate(0,143)"><path class="background" aria-hidden="true" d="M0,0h328v11h-328Z" pointer-events="none" opacity="1"/><g><g class="mark-symbol role-legend-symbol" pointer-events="none"><path transform="translate(6,6)" d="M-5,0L5,0" stroke="#f58518" stroke-width="1.5" opacity="1"/></g><g class="mark-text role-legend-label" pointer-events="none"><text text-anchor="start" transform="translate(16,9)" font-family="Liberation Mono" font-size="10px" fill="#000" opacity="1">COVERO_PONCHO_II_-_Cape_-_lightgrey</text></g></g><path class="foreground" aria-hidden="true" d="" pointer-events="none" display="none"/></g></g></g><path class="foreground" aria-hidden="true" d="" pointer-events="none" display="none"/></g></g><g class="mark-text role-legend-title" pointer-events="none"><text text-anchor="start" transform="translate(0,9)" font-family="Liberation Mono" font-size="11px" font-weight="bold" fill="#000" opacity="1">item</text></g></g><path class="foreground" aria-hidden="true" d="" pointer-events="none" display="none"/></g></g></g><path class="foreground" aria-hidden="true" d="" display="none"/></g></g></g><path class="foreground" aria-hidden="true" d="" display="none"/></g></g></g></svg>