<svg xmlns="http://www.w3.org/2000/svg" xmlns:xlink="http://www.w3.org/1999/xlink" version="1.1" class="marks" width="658" height="244" viewBox="0 0 658 244"><rect width="658" height="244" fill="white"/><g fill="none" stroke-miterlimit="10" transform="translate(104,6)"><g class="mark-group role-frame root" role="graphics-object" aria-roledescription="group mark container"><g transform="translate(0,0)"><path class="background" aria-hidden="true" d="M0,0h0v0h0Z"/><g><g class="mark-group role-row-title row-title" role="graphics-object" aria-roledescription="group mark container"><g transform="translate(-78,116)"><path class="background" aria-hidden="true" d="M0,0h0v0h0Z"/><g><g class="mark-group role-title"><g transform="translate(-21.000000000000004,0)"><path class="background" aria-hidden="true" d="M0,0h0v0h0Z" pointer-events="none"/><g><g class="mark-text role-title-text" role="graphics-symbol" aria-roledescription="title" aria-label="Title text 'group'" pointer-events="none"><text text-anchor="middle" transform="translate(0,0) rotate(-90) translate(0,9)" font-family="Liberation Mono" font-size="11px" font-weight="bold" fill="#000" opacity="1">group</text></g></g><path class="foreground" aria-hidden="true" d="" pointer-events="none" display="none"/></g></g></g><path class="foreground" aria-hidden="true" d="" display="none"/></g></g><g class="mark-group role-row-header row_header" role="graphics-object" aria-roledescription="group mark container"><g transform="translate(-47,0)"><path class="background" aria-hidden="true" d="M0,0h0v200h0Z"/><g><g class="mark-group role-title"><g transform="translate(-20.000000000000007,100)"><path class="background" aria-hidden="true" d="M0,0h0v0h0Z" pointer-events="none"/><g><g class="mark-text role-title-text" role="graphics-symbol" aria-roledescription="title" aria-label="Title text 'zalando-poncho'" pointer-events="none"><text text-anchor="middle" transform="translate(0,0) rotate(-90) translate(0,8)" font-family="Liberation Mono" font-size="10px" fill="#000" opacity="1">zalando-poncho</text></g></g><path class="foreground" aria-hidden="true" d="" pointer-events="none" display="none"/></g></g></g><path class="foreground" aria-hidden="true" d="" display="none"/></g></g><g class="mark-group role-scope cell" role="graphics-object" aria-roledescription="group mark container"><g transform="translate(0,0)"><path class="background" aria-hidden="true" d="M0.5,0.5h200v200h-200Z" stroke="#ddd"/><g><g class="mark-group role-axis" aria-hidden="true"><g transform="translate(0.5,200.5)"><path class="background" aria-hidden="true" d="M0,0h0v0h0Z" pointer-events="none"/><g><g class="mark-rule role-axis-grid" pointer-events="none"><line transform="translate(14,-200)" x2="0" y2="200" stroke="#ddd" stroke-width="1" opacity="1"/><line transform="translate(42,-200)" x2="0" y2="200" stroke="#ddd" stroke-width="1" opacity="1"/><line transform="translate(70,-200)" x2="0" y2="200" stroke="#ddd" stroke-width="1" opacity="1"/><line transform="translate(99,-200)" x2="0" y2="200" stroke="#ddd" stroke-width="1" opacity="1"/><line transform="translate(127,-200)" x2="0" y2="200" stroke="#ddd" stroke-width="1" opacity="1"/><line transform="translate(155,-200)" x2="0" y2="200" stroke="#ddd" stroke-width="1" opacity="1"/><line transform="translate(183,-200)" x2="0" y2="200" stroke="#ddd" stroke-width="1" opacity="1"/></g></g><path class="foreground" aria-hidden="true" d="" pointer-events="none" display="none"/></g></g><g class="mark-group role-axis" aria-hidden="true"><g transform="translate(0.5,0.5)"><path class="background" aria-hidden="true" d="M0,0h0v0h0Z" pointer-events="none"/><g><g class="mark-rule role-axis-grid" pointer-events="none"><line transform="translate(0,200)" x2="200" y2="0" stroke="#ddd" stroke-width="1" opacity="1"/><line transform="translate(0,144)" x2="200" y2="0" stroke="#ddd" stroke-width="1" opacity="1"/><line transform="translate(0,89)" x2="200" y2="0" stroke="#ddd" stroke-width="1" opacity="1"/><line transform="translate(0,33)" x2="200" y2="0" stroke="#ddd" stroke-width="1" opacity="1"/></g></g><path class="foreground" aria-hidden="true" d="" pointer-events="none" display="none"/></g></g><g class="mark-group role-axis" role="graphics-symbol" aria-roledescription="axis" aria-label="X-axis titled 'Time' for a time scale with values from Wednesday, 30 August 2023, 12:58:24 PM to Thursday, 19 October 2023, 4:50:35 AM"><g transform="translate(0.5,200.5)"><path class="background" aria-hidden="true" d="M0,0h0v0h0Z" pointer-events="none"/><g><g class="mark-rule role-axis-tick" pointer-events="none"><line transform="translate(14,0)" x2="0" y2="5" stroke="#888" stroke-width="1" opacity="1"/><line transform="translate(42,0)" x2="0" y2="5" stroke="#888" stroke-width="1" opacity="1"/><line transform="translate(70,0)" x2="0" y2="5" stroke="#888" stroke-width="1" opacity="1"/><line transform="translate(99,0)" x2="0" y2="5" stroke="#888" stroke-width="1" opacity="1"/><line transform="translate(127,0)" x2="0" y2="5" stroke="#888" stroke-width="1" opacity="1"/><line transform="translate(155,0)" x2="0" y2="5" stroke="#888" stroke-width="1" opacity="1"/><line transform="translate(183,0)" x2="0" y2="5" stroke="#888" stroke-width="1" opacity="1"/></g><g class="mark-text role-axis-label" pointer-events="none"><text text-anchor="middle" transform="translate(13.932168283502186,15)" font-family="Liberation Mono" font-size="10px" fill="#000" opacity="1">Sep 03</text><text text-anchor="middle" transform="translate(42.12316523090874,15)" font-family="Liberation Mono" font-size="10px" fill="#000" opacity="0">Sep 10</text><text text-anchor="middle" transform="translate(70.3141621783153,15)" font-family="Liberation Mono" font-size="10px" fill="#000" opacity="1">Sep 17</text><text text-anchor="middle" transform="translate(98.50515912572185,15)" font-family="Liberation Mono" font-size="10px" fill="#000" opacity="0">Sep 24</text><text text-anchor="middle" transform="translate(126.6961560731284,15)" font-family="Liberation Mono" font-size="10px" fill="#000" opacity="1">October</text><text text-anchor="middle" transform="translate(154.88715302053495,15)" font-family="Liberation Mono" font-size="10px" fill="#000" opacity="0">Oct 08</text><text text-anchor="middle" transform="translate(183.07814996794153,15)" font-family="Liberation Mono" font-size="10px" fill="#000" opacity="1">Oct 15</text></g><g class="mark-rule role-axis-domain" pointer-events="none"><line transform="translate(0,0)" x2="200" y2="0" stroke="#888" stroke-width="1" opacity="1"/></g><g class="mark-text role-axis-title" pointer-events="none"><text text-anchor="middle" transform="translate(100,30)" font-family="Liberation Mono" font-size="11px" font-weight="bold" fill="#000" opacity="1">Time</text></g></g><path class="foreground" aria-hidden="true" d="" pointer-events="none" display="none"/></g></g><g class="mark-group role-axis" role="graphics-symbol" aria-roledescription="axis" aria-label="Y-axis titled 'Price' for a linear scale with values from 0 to 18,000"><g transform="translate(0.5,0.5)"><path class="background" aria-hidden="true" d="M0,0h0v0h0Z" pointer-events="none"/><g><g class="mark-rule role-axis-tick" pointer-events="none"><line transform="translate(0,200)" x2="-5" y2="0" stroke="#888" stroke-width="1" opacity="1"/><line transform="translate(0,144)" x2="-5" y2="0" stroke="#888" stroke-width="1" opacity="1"/><line transform="translate(0,89)" x2="-5" y2="0" stroke="#888" stroke-width="1" opacity="1"/><line transform="translate(0,33)" x2="-5" y2="0" stroke="#888" stroke-width="1" opacity="1"/></g><g class="mark-text role-axis-label" pointer-events="none"><text text-anchor="end" transform="translate(-7,203)" font-family="Liberation Mono" font-size="10px" fill="#000" opacity="1">0</text><text text-anchor="end" transform="translate(-7,147.44444444444443)" font-family="Liberation Mono" font-size="10px" fill="#000" opacity="1">50</text><text text-anchor="end" transform="translate(-7,91.88888888888889)" font-family="Liberation Mono" font-size="10px" fill="#000" opacity="1">100</text><text text-anchor="end" transform="translate(-7,36.33333333333333)" font-family="Liberation Mono" font-size="10px" fill="#000" opacity="1">150</text></g><g class="mark-rule role-axis-domain" pointer-events="none"><line transform="translate(0,200)" x2="0" y2="-200" stroke="#888" stroke-width="1" opacity="1"/></g><g class="mark-text role-axis-title" pointer-events="none"><text text-anchor="middle" transform="translate(-35,100) rotate(-90) translate(0,-2)" font-family="Liberation Mono" font-size="11px" font-weight="bold" fill="#000" opacity="1">Price</text></g></g><path class="foreground" aria-hidden="true" d="" pointer-events="none" display="none"/></g></g><g class="mark-group role-scope child_pathgroup" role="graphics-object" aria-roledescription="group mark container"><g transform="translate(0,0)"><path class="background" aria-hidden="true" d="M0,0h200v200h-200Z"/><g><g class="mark-line role-mark child_marks" role="graphics-object" aria-roledescription="line mark container"><path aria-label="Time: Aug 30, 2023; Price: 10795; item: DESCHUTES_VALLEY™_RAIN_PONCHO_-_Parka_-_black" role="graphics-symbol" aria-roledescription="line mark" d="M0,80.056L0.654,80.056L1.322,80.056L2.664,80.056L3.335,80.056L4.029,80.056L4.677,80.056L5.348,80.056L6.693,80.056L7.362,80.056L8.054,80.056L8.704,80.056L9.375,80.056L10.718,80.056L11.389,80.056L12.073,80.056L12.731,80.056L13.403,80.056L14.746,80.056L15.899,80.056L16.103,80.056L16.759,80.056L17.43,80.056L18.773,80.056L19.446,80.056L20.139,80.056L20.786,80.056L21.457,80.056L22.804,50.056L23.475,50.056L24.165,50.056L24.815,50.056L25.484,50.056L26.827,50.056L27.498,50.056L28.194,50.056L28.841,50.056L29.512,50.056L30.856,50.056L31.527,50.056L32.219,50.056L32.869,50.056L33.54,50.056L35.305,50.056L35.552,50.056L36.244,50.056L36.894,50.056L37.566,50.056L38.908,50.056L39.58,50.056L40.264,50.056L40.922,50.056L41.594,50.056L42.936,50.056L43.607,50.056L44.291,50.056L44.949,50.056L45.62,50.056L46.962,50.056L47.634,50.056L48.33,50.056L48.977,50.056L49.647,50.056L50.991,50.056L51.661,50.056L52.355,50.056L53.004,50.056L53.676,50.056L55.018,20.056L55.689,20.056L56.384,20.056L56.739,20.056L57.031,20.056L57.703,20.056L59.045,20.056L59.716,20.056L60.412,20.056L61.059,20.056L61.73,20.056L63.071,20.056L63.743,20.056L64.436,20.056L65.085,20.056L65.757,20.056L67.099,20.056L67.771,20.056L68.453,20.056L69.113,20.056L69.783,20.056L71.126,20.056L71.798,20.056L72.482,20.056L73.14,20.056L73.812,20.056L75.154,20.056L75.825,20.056L76.522,20.056L77.168,20.056L77.839,20.056L79.18,20.056L79.852,20.056L80.548,20.056L81.194,20.056L81.866,20.056L83.208,20.056L83.88,20.056L84.576,20.056L85.222,20.056L85.893,20.056L87.235,20.056L87.907,20.056L88.604,20.056L89.25,20.056L89.921,20.056L91.263,20.056L91.934,20.056L92.628,20.056L93.277,20.056L93.947,20.056L95.29,20.056L95.962,20.056L96.645,20.056L97.304,20.056L97.976,20.056L99.317,20.056L99.989,20.056L100.674,20.056L101.331,20.056L102.002,20.056L103.345,20.056L104.017,20.056L104.713,20.056L105.358,20.056L106.029,20.056L107.372,20.056L108.044,20.056L108.741,20.056L109.385,20.056L110.057,20.056L111.399,40.056L112.07,40.056L112.766,40.056L113.413,40.056L114.085,40.056L115.427,40.056L116.097,40.056L116.794,40.056L117.44,40.056L119.454,40.056L120.125,40.056L120.818,40.056L121.468,40.056L122.139,40.056L123.481,40.056L124.152,40.056L124.837,40.056L125.494,40.056L126.165,40.056L127.509,40.056L128.18,40.056L128.867,40.056L129.522,40.056L130.194,40.056L131.536,100.056L132.207,100.056L132.903,100.056L133.55,100.056L134.221,100.056L135.564,90.056L136.236,90.056L136.932,90.056L137.577,90.056L138.248,90.056L139.59,90.056L140.262,90.056L140.962,90.056L141.605,90.056L142.276,90.056L143.618,90.056L144.288,90.056L144.99,90.056L145.631,90.056L146.304,90.056L147.645,90.056L148.317,90.056L149.013,90.056L149.659,90.056L150.331,90.056L151.672,90.056L152.345,90.056L153.03,90.056L153.685,90.056L154.358,90.056L155.7,90.056L156.37,90.056L157.714,90.056L158.384,90.056L159.727,90.056L160.399,90.056L161.1,90.056L161.741,90.056L162.412,90.056L163.755,100.056L164.426,100.056L165.124,100.056L165.768,100.056L166.439,100.056L167.782,100.056L168.454,100.056L169.15,100.056L169.795,100.056L170.467,100.056L171.808,100.056L172.48,100.056L173.177,100.056L173.823,100.056L174.494,100.056L175.836,100.056L176.508,100.056L177.205,100.056L177.85,100.056L178.521,100.056L179.864,100.056L180.535,100.056L181.22,100.056L181.877,100.056L182.548,100.056L183.891,100.056L184.562,100.056L185.248,100.056L185.903,100.056L186.576,100.056L187.918,90.056L188.59,90.056L189.287,90.056L189.932,90.056L190.603,90.056L191.945,90.056L192.616,90.056L193.314,90.056L193.959,90.056L194.63,90.056L195.973,90.056L196.644,90.056L197.34,90.056L197.986,90.056L198.657,90.056L200,90.056" stroke="#e45756" stroke-width="2"/></g></g><path class="foreground" aria-hidden="true" d="" display="none"/></g><g transform="translate(0,0)"><path class="background" aria-hidden="true" d="M0,0h200v200h-200Z"/><g><g class="mark-line role-mark child_marks" role="graphics-object" aria-roledescription="line mark container"><path aria-label="Time: Aug 30, 2023; Price: 8995; item: HIKING_BACKPACK_PONCHO_-_Veste_imperméable_-_blue" role="graphics-symbol" aria-roledescription="line mark" d="M0,100.056L0.654,100.056L1.322,100.056L2.664,100.056L3.335,100.056L4.029,100.056L4.677,100.056L5.348,100.056L6.693,100.056L7.362,100.056L8.054,100.056L8.704,100.056L9.375,100.056L10.718,100.056L11.389,100.056L12.073,100.056L12.731,100.056L13.403,100.056L14.746,100.056L15.899,100.056L16.103,100.056L47.634,100.056L48.33,100.056L48.977,100.056L49.647,100.056L50.991,100.056L51.661,100.056L52.355,100.056L53.004,100.056L53.676,100.056L55.018,100.056L55.689,100.056L56.384,100.056L56.739,100.056L57.031,100.056L57.703,100.056L59.045,100.056L59.716,100.056L60.412,100.056L61.059,100.056L61.73,100.056L63.072,100.056L63.743,100.056L64.436,100.056L65.085,100.056L65.757,100.056L67.099,100.056L67.771,100.056L68.453,100.056L69.113,100.056L69.783,100.056L71.126,100.056L71.798,100.056L117.44,111.167L119.454,111.167L120.125,111.167L120.818,111.167L121.468,111.167L122.139,111.167L123.481,111.167L124.152,111.167L124.837,111.167L125.494,111.167L126.165,111.167L127.509,111.167L128.18,111.167L128.867,111.167L129.522,111.167L130.194,111.167L131.536,111.167L132.207,111.167L132.903,111.167L133.55,111.167L134.221,111.167L135.564,127.833L136.236,127.833L136.932,127.833L137.577,127.833L138.248,127.833L139.59,127.833L140.262,127.833L140.962,127.833L141.605,127.833L142.276,127.833L143.618,127.833L144.288,127.833L144.99,127.833L145.631,127.833L146.304,127.833L147.645,127.833L148.317,127.833L149.013,127.833L149.659,127.833L150.331,127.833L151.672,127.833L152.345,127.833L153.03,127.833L153.685,127.833L154.358,127.833L155.7,127.833L156.37,127.833L157.714,127.833L158.384,127.833L159.727,127.833" stroke="#54a24b" stroke-width="2"/></g></g><path class="foreground" aria-hidden="true" d="" display="none"/></g><g transform="translate(0,0)"><path class="background" aria-hidden="true" d="M0,0h200v200h-200Z"/><g><g class="mark-line role-mark child_marks" role="graphics-object" aria-roledescription="line mark container"><path aria-label="Time: Aug 30, 2023; Price: 16195; item: DESCHUTES_VALLEY™_RAIN_PONCHO_-_Parka_-_vista_blue" role="graphics-symbol" aria-roledescription="line mark" d="M0,20.056L0.654,20.056L1.322,20.056L2.664,20.056L3.335,20.056L4.029,20.056L4.677,20.056L5.348,20.056L6.693,20.056L7.362,20.056L8.054,20.056L8.704,20.056L9.375,20.056L10.718,20.056L11.389,20.056L12.073,20.056L12.731,20.056L13.403,20.056L14.746,20.056L15.899,20.056L16.103,20.056L16.759,20.056L17.43,20.056L18.773,20.056L19.446,20.056L20.139,20.056L20.786,20.056L21.457,20.056L22.804,80.056L23.475,80.056L24.165,80.056L24.815,80.056L25.484,80.056L26.827,80.056L27.498,80.056L28.194,80.056L28.841,80.056L29.512,80.056L30.856,80.056L31.527,80.056L32.219,80.056L32.869,80.056L33.54,80.056L35.305,80.056L35.552,80.056L36.244,80.056L36.894,80.056L37.566,80.056L38.908,80.056L39.58,80.056L40.264,80.056L40.922,80.056L41.594,80.056L42.936,80.056L43.607,80.056L44.291,80.056L44.949,80.056L45.62,80.056L46.962,80.056L47.634,80.056L48.33,80.056L48.977,80.056L49.647,80.056L50.991,80.056L51.661,80.056L52.355,80.056L53.004,80.056L53.676,80.056L55.018,20.056L55.689,20.056L56.384,20.056L56.739,20.056L57.031,20.056L57.703,20.056L59.045,20.056L59.716,20.056L60.412,20.056L61.059,20.056L61.73,20.056L63.071,20.056L63.743,20.056L64.436,20.056L65.085,20.056L65.757,20.056L67.099,20.056L67.771,20.056L68.453,20.056L69.113,20.056L69.783,20.056L71.126,20.056L71.798,20.056L72.482,20.056L73.14,20.056L73.812,20.056L75.154,20.056L75.825,20.056L76.522,20.056L77.168,20.056L77.839,20.056L79.18,20.056L79.852,20.056L80.548,20.056L81.194,20.056L81.866,20.056L83.208,20.056L83.88,20.056L84.576,20.056L85.222,20.056L85.893,20.056L87.235,20.056L87.907,20.056L88.604,20.056L89.25,20.056L89.921,20.056L91.263,20.056L91.934,20.056L92.628,20.056L93.277,20.056L93.947,20.056L95.29,20.056L95.962,20.056L96.645,20.056L97.304,20.056L97.976,20.056L99.317,20.056L99.989,20.056L100.674,20.056L101.331,20.056L102.002,20.056L103.345,20.056L104.017,20.056L104.713,20.056L105.358,20.056L106.029,20.056L107.372,20.056L108.044,20.056L108.741,20.056L109.385,20.056L110.057,20.056L111.399,40.056L112.07,40.056L112.766,40.056L113.413,40.056L114.085,40.056L115.427,40.056L116.097,40.056L116.794,40.056L117.44,40.056L119.454,40.056L120.125,40.056L120.818,40.056L121.468,40.056L122.139,40.056L123.481,40.056L124.152,40.056L124.837,40.056L125.494,40.056L126.165,40.056L127.509,40.056L128.18,40.056L128.867,40.056L129.522,40.056L130.194,40.056L131.536,90.056L132.207,90.056L132.903,90.056L133.55,90.056L134.221,90.056L135.564,40.056L136.236,40.056L136.932,40.056L137.577,40.056L138.248,40.056L139.59,40.056L140.262,40.056L140.962,40.056L141.605,40.056L142.276,40.056L143.618,40.056L144.288,40.056L144.99,40.056L145.631,40.056L146.304,40.056L147.645,40.056L148.317,40.056L149.013,40.056L149.659,40.056L150.331,40.056L151.672,40.056L152.345,40.056L153.03,40.056L153.685,40.056L154.358,40.056L155.7,40.056L156.37,40.056L157.714,40.056L158.384,40.056L159.727,40.056L160.399,40.056L161.1,40.056L161.741,40.056L162.412,40.056L163.755,90.056L164.426,90.056L165.124,90.056L165.768,90.056L166.439,90.056L167.782,90.056L168.454,90.056L169.15,90.056L169.795,90.056L170.467,90.056L171.808,90.056L172.48,90.056L173.177,90.056L173.823,90.056L174.494,90.056L175.836,90.056L176.508,90.056L177.205,90.056L177.85,90.056L178.521,90.056L179.864,40.056L180.535,40.056L181.22,40.056L181.877,40.056L182.548,40.056L183.891,40.056L184.562,40.056L185.248,40.056L185.903,40.056L186.576,40.056L187.918,100.056L188.59,100.056L189.287,100.056L189.932,100.056L190.603,100.056L191.945,100.056L192.616,100.056L193.314,100.056L193.959,100.056L194.63,100.056L195.973,100.056L196.644,100.056L197.34,100.056L197.986,100.056L198.657,100.056L200,100.056" stroke="#f58518" stroke-width="2"/></g></g><path class="foreground" aria-hidden="true" d="" display="none"/></g><g transform="translate(0,0)"><path class="background" aria-hidden="true" d="M0,0h200v200h-200Z"/><g><g class="mark-line role-mark child_marks" role="graphics-object" aria-roledescription="line mark container"><path aria-label="Time: Aug 30, 2023; Price: 5495; item: COVERO_PONCHO_II_-_Cape_-_lightgrey" role="graphics-symbol" aria-roledescription="line mark" d="M0,138.944L0.654,138.944L1.322,138.944L2.664,138.944L3.335,138.944L4.029,138.944L4.677,138.944L5.348,138.944L6.693,138.944L7.362,138.944L11.389,138.944L12.074,138.944L12.731,138.944L13.403,138.944L14.746,138.944L15.899,138.944L16.103,138.944L16.759,138.944L17.431,138.944L18.773,138.944L19.446,138.944L20.139,138.944L20.786,138.944L21.457,138.944L22.804,138.944L23.475,138.944L24.165,138.944L24.815,138.944L25.484,138.944L36.894,153.944L43.607,138.944L44.291,138.944L44.949,138.944L45.62,138.944L46.962,138.944L47.634,138.944L48.331,138.944L48.977,138.944L49.647,138.944L50.991,138.944L51.661,138.944L52.355,138.944L53.004,138.944L53.676,138.944L55.018,138.944L55.689,138.944L56.384,138.944L56.739,138.944L57.031,138.944L57.703,138.944L59.045,138.944L59.716,138.944L60.412,138.944L61.059,138.944L61.73,138.944L63.072,138.944L63.743,138.944L64.436,138.944L65.085,138.944L65.757,138.944L67.099,138.944L67.771,138.944L68.453,138.944L69.113,138.944L69.783,138.944L71.126,138.944L71.798,138.944L72.482,138.944L73.14,138.944L73.812,138.944L75.154,138.944L75.825,138.944L76.522,138.944L77.168,138.944L77.839,138.944L79.18,138.944L79.852,138.944L80.548,138.944L81.194,138.944L81.866,138.944L83.208,151.167L83.881,151.167L84.576,151.167L85.222,151.167L85.893,151.167L87.235,151.167L87.907,151.167L88.604,151.167L89.25,151.167L89.921,151.167L91.263,151.167L91.934,151.167L92.628,151.167L95.962,151.167L96.645,151.167L97.304,151.167L97.976,151.167L99.317,151.167L99.989,151.167L100.674,151.167L101.332,151.167L102.002,151.167L103.345,151.167L104.017,151.167L104.713,151.167L105.358,151.167L106.029,151.167L107.372,151.167L108.044,151.167L108.741,151.167L109.385,151.167L110.057,151.167L111.399,151.167L112.07,151.167L112.766,151.167L113.413,151.167L114.085,151.167L115.427,151.167L116.097,151.167L116.794,151.167L117.44,151.167L119.454,151.167L120.125,151.167L120.818,151.167L121.468,151.167L122.139,151.167L123.481,151.167L124.152,151.167L124.837,151.167L125.494,151.167L126.165,151.167L127.509,151.167L128.18,151.167L128.867,151.167L129.522,151.167L130.194,151.167L131.536,151.167L132.207,151.167L132.903,151.167L133.55,151.167L134.221,151.167L135.564,151.167L136.236,151.167L136.932,151.167L137.577,151.167L138.248,151.167L139.59,151.167L140.262,151.167L140.962,151.167L141.605,151.167L142.276,151.167L143.618,151.167L144.288,151.167L144.99,151.167L145.631,151.167L146.304,151.167L147.645,151.167L148.317,151.167L149.013,151.167L149.659,151.167L150.331,151.167L152.345,151.167L153.03,151.167L155.7,151.167L156.37,151.167L157.714,151.167L158.384,151.167L161.741,151.167L162.412,151.167L163.755,151.167L164.426,151.167L165.124,151.167L166.439,151.167L167.782,138.944L168.454,138.944L169.15,138.944L169.795,138.944L170.467,138.944L177.85,138.944L181.877,153.944L190.603,153.944L191.945,153.944L193.959,153.944L195.973,153.944L197.986,153.944L198.657,153.944" stroke="#bab0ac" stroke-width="2"/></g></g><path class="foreground" aria-hidden="true" d="" display="none"/></g><g transform="translate(0,0)"><path class="background" aria-hidden="true" d="M0,0h200v200h-200Z"/><g><g class="mark-line role-mark child_marks" role="graphics-object" aria-roledescription="line mark container"><path aria-label="Time: Sep 01, 2023; Price: 12995; item: KUURA_3L_PONCHO_UNISEX_-_Veste_imperméable_-_green" role="graphics-symbol" aria-roledescription="line mark" d="M9.375,55.611L10.718,55.611L11.389,55.611L12.073,55.611L19.446,55.611L20.139,55.611L20.786,55.611L21.457,55.611L22.804,11.167L23.475,11.167L24.165,11.167L24.815,11.167L25.484,11.167L26.827,11.167L27.498,11.167L28.194,11.167L28.841,11.167L29.512,11.167L30.856,11.167L31.527,11.167L32.219,11.167L32.869,11.167L33.54,11.167L35.305,11.167L35.552,11.167L36.244,11.167L36.894,11.167L37.566,11.167L38.908,11.167L39.58,11.167L40.264,11.167L40.922,11.167L41.594,11.167L42.936,11.167L43.607,11.167L44.291,11.167L44.949,11.167L45.62,11.167L46.962,11.167L47.634,11.167L48.33,11.167L48.977,11.167L50.991,11.167L51.661,11.167L52.355,11.167L53.004,11.167L53.676,11.167L68.453,22.278L69.113,22.278L69.783,22.278L71.126,22.278L71.798,22.278L72.482,22.278L73.14,22.278L73.812,22.278L75.154,22.278L75.825,22.278L76.522,22.278L79.852,22.278L80.548,22.278L81.194,22.278L81.866,22.278L83.208,22.278L83.881,22.278L137.577,22.278L138.248,22.278L139.59,22.278L140.262,22.278L140.962,22.278L141.605,22.278L142.276,22.278L143.618,22.278L144.288,22.278L144.99,22.278L145.631,22.278L146.304,22.278L147.645,22.278L148.317,22.278L149.013,22.278L149.659,22.278L150.331,22.278L151.672,22.278L152.345,22.278L153.03,22.278L153.685,22.278L154.358,22.278" stroke="#4c78a8" stroke-width="2"/></g></g><path class="foreground" aria-hidden="true" d="" display="none"/></g><g transform="translate(0,0)"><path class="background" aria-hidden="true" d="M0,0h200v200h-200Z"/><g><g class="mark-line role-mark child_marks" role="graphics-object" aria-roledescription="line mark container"><path aria-label="Time: Sep 14, 2023; Price: 6495; item: PARIS_ST._GERMAIN_CITY_MADE_PONCHO_-_Veste_de_survêtement_-_aura_white" role="graphics-symbol" aria-roledescription="line mark" d="M59.045,127.833L59.716,127.833L60.412,127.833L61.059,127.833L61.73,127.833L63.072,127.833L63.743,127.833L67.099,127.833L71.798,127.833L72.482,127.833L73.14,127.833L73.812,127.833L75.154,127.833L75.825,127.833L76.522,127.833L77.168,127.833L77.839,127.833L79.18,127.833L79.852,127.833L80.548,127.833L81.194,127.833L81.866,127.833L83.208,127.833L83.881,127.833L84.576,127.833L85.222,127.833L85.893,127.833L87.235,127.833L87.907,127.833L88.604,127.833L89.25,127.833L89.921,127.833L91.263,127.833L91.934,127.833L92.628,127.833L93.277,127.833L93.947,127.833L95.29,127.833L95.962,127.833L96.645,127.833L97.304,127.833L97.976,127.833L99.317,127.833L99.989,127.833L100.674,127.833L101.332,127.833L102.002,127.833L103.345,127.833L104.017,127.833L104.713,127.833L105.358,127.833L106.029,127.833L107.372,127.833L108.044,127.833L108.741,127.833" stroke="#b279a2" stroke-width="2"/></g></g><path class="foreground" aria-hidden="true" d="" display="none"/></g><g transform="translate(0,0)"><path class="background" aria-hidden="true" d="M0,0h200v200h-200Z"/><g><g class="mark-line role-mark child_marks" role="graphics-object" aria-roledescription="line mark container"><path aria-label="Time: Sep 18, 2023; Price: 8995; item: HIKING_BACKPACK_PONCHO_-_Veste_imperméable_-_indian_red" role="graphics-symbol" aria-roledescription="line mark" d="M75.154,100.056L75.825,100.056L76.522,100.056L77.168,100.056L77.839,100.056L79.18,100.056L79.852,100.056L105.358,100.056L106.029,100.056L107.372,100.056L108.044,100.056L108.741,100.056L109.385,100.056L110.057,100.056L111.399,111.167L112.07,111.167L112.766,111.167L113.413,111.167L177.205,111.167L177.85,111.167L178.521,111.167L179.864,111.167L180.535,111.167L181.22,111.167L181.877,111.167L182.548,111.167L183.891,111.167" stroke="#eeca3b" stroke-width="2"/></g></g><path class="foreground" aria-hidden="true" d="" display="none"/></g><g transform="translate(0,0)"><path class="background" aria-hidden="true" d="M0,0h200v200h-200Z"/><g><g class="mark-line role-mark child_marks" role="graphics-object" aria-roledescription="line mark container"><path aria-label="Time: Sep 26, 2023; Price: 6495; item: PSG_M_NSW_CITY_MADE_PONCHO_-_Veste_de_survêtement_-_aura_white" role="graphics-symbol" aria-roledescription="line mark" d="M109.385,127.833L110.057,127.833L111.399,91.167L112.07,91.167L112.766,91.167L113.413,91.167L114.085,91.167L115.427,91.167L116.097,91.167L116.794,91.167L117.44,91.167L119.454,91.167L120.125,91.167L120.818,91.167L121.468,91.167L122.139,91.167L123.481,91.167L124.152,91.167L124.837,91.167L125.494,91.167L126.165,91.167L127.509,91.167L128.18,91.167L128.867,91.167L129.522,91.167L130.194,91.167L131.536,127.833L132.207,127.833L132.903,127.833L133.55,127.833L134.221,127.833L135.564,127.833L136.236,127.833L136.932,127.833L137.577,127.833L138.248,127.833L139.59,127.833L140.262,127.833L140.962,127.833L141.605,127.833L142.276,127.833L143.618,127.833L144.288,127.833L144.99,127.833L145.631,127.833L146.304,127.833L147.645,127.833L148.317,127.833L149.013,127.833L149.659,127.833L150.331,127.833L151.672,127.833L152.345,127.833L153.03,127.833L153.685,127.833L154.358,127.833L155.7,127.833L156.37,127.833L157.714,127.833L158.384,127.833L159.727,127.833L160.399,127.833L161.1,127.833L161.741,127.833L162.412,127.833L163.755,84.5L164.426,84.5L165.124,84.5L166.439,84.5L167.782,84.5L168.454,84.5L169.15,84.5L169.795,84.5L170.467,84.5L171.808,84.5L172.48,84.5L175.837,84.5L177.85,84.5L181.877,127.833L183.891,127.833L188.59,127.833L189.287,127.833" stroke="#ff9da6" stroke-width="2"/></g></g><path class="foreground" aria-hidden="true" d="" display="none"/></g><g transform="translate(0,0)"><path class="background" aria-hidden="true" d="M0,0h200v200h-200Z"/><g><g class="mark-line role-mark child_marks" role="graphics-object" aria-roledescription="line mark container"><path aria-label="Time: Oct 12, 2023; Price: 4995; item: SHOWERPROOF_PONCHO_UNISEX_-_Cape_-_classic_tartan" role="graphics-symbol" aria-roledescription="line mark" d="M171.808,144.5L172.48,144.5L173.177,144.5L173.823,144.5L174.494,144.5L175.836,144.5L176.508,144.5L177.205,144.5L177.85,144.5L178.521,144.5L179.864,144.5L180.535,144.5L181.22,144.5L181.877,144.5L182.548,144.5L183.891,144.5L184.562,144.5L185.248,144.5L185.903,144.5L186.576,144.5L187.918,152.611L188.59,152.611L189.287,152.611L189.932,152.611L190.603,152.611L191.945,152.611L192.616,152.611L193.314,152.611L193.959,152.611L194.63,152.611L195.973,152.611L196.644,152.611L197.34,152.611L197.986,152.611L198.657,152.611L200,152.611" stroke="#9d755d" stroke-width="2"/></g></g><path class="foreground" aria-hidden="true" d="" display="none"/></g><g transform="translate(0,0)"><path class="background" aria-hidden="true" d="M0,0h200v200h-200Z"/><g><g class="mark-line role-mark child_marks" role="graphics-object" aria-roledescription="line mark container"><path aria-label="Time: Oct 12, 2023; Price: 13995; item: PONCHO_-_Cape_-_lucid_blue" role="graphics-symbol" aria-roledescription="line mark" d="M171.808,44.5L176.508,44.5L177.85,44.5L179.864,91.167L181.877,91.167L184.562,91.167L185.248,91.167L185.903,91.167L186.576,91.167L187.918,91.167L188.59,91.167L189.287,91.167L189.932,91.167L190.603,91.167L191.945,91.167L192.616,91.167L193.314,91.167L193.959,91.167L194.63,91.167L195.973,91.167L196.644,91.167L197.34,91.167L197.986,91.167L198.657,91.167L200,91.167" stroke="#72b7b2" stroke-width="2"/></g></g><path class="foreground" aria-hidden="true" d="" display="none"/></g></g><g class="mark-group role-legend" role="graphics-symbol" aria-roledescription="legend" aria-label="Symbol legend titled 'item' for stroke color with 10 values: KUURA_3L_PONCHO_UNISEX_-_Veste_imperméable_-_green, DESCHUTES_VALLEY™_RAIN_PONCHO_-_Parka_-_vista_blue, DESCHUTES_VALLEY™_RAIN_PONCHO_-_Parka_-_black, PONCHO_-_Cape_-_lucid_blue, HIKING_BACKPACK_PONCHO_-_Veste_imperméable_-_blue, ending with COVERO_PONCHO_II_-_Cape_-_lightgrey"><g transform="translate(220,0)"><path class="background" aria-hidden="true" d="M0,0h328v144h-328Z" pointer-events="none"/><g><g class="mark-group role-legend-entry"><g transform="translate(0,16)"><path class="background" aria-hidden="true" d="M0,0h0v0h0Z" pointer-events="none"/><g><g class="mark-group role-scope" role="graphics-object" aria-roledescription="group mark container"><g transform="translate(0,0)"><path class="background" aria-hidden="true" d="M0,0h328v11h-328Z" pointer-events="none" opacity="1"/><g><g class="mark-symbol role-legend-symbol" pointer-events="none"><path transform="translate(6,6)" d="M-5,0L5,0" stroke="#4c78a8" stroke-width="1.5" opacity="1"/></g><g class="mark-text role-legend-label" pointer-events="none"><text text-anchor="start" transform="translate(16,9)" font-family="Liberation Mono" font-size="10px" fill="#000" opacity="1">KUURA_3L_PONCHO_UNISEX_-_Veste_impermé…</text></g></g><path class="foreground" aria-hidden="true" d="" pointer-events="none" display="none"/></g><g transform="translate(0,13)"><path class="background" aria-hidden="true" d="M0,0h328v11h-328Z" pointer-events="none" opacity="1"/><g><g class="mark-symbol role-legend-symbol" pointer-events="none"><path transform="translate(6,6)" d="M-5,0L5,0" stroke="#f58518" stroke-width="1.5" opacity="1"/></g><g class="mark-text role-legend-label" pointer-events="none"><text text-anchor="start" transform="translate(16,9)" font-family="Liberation Mono" font-size="10px" fill="#000" opacity="1">DESCHUTES_VALLEY™_RAIN_PONCHO_-_Parka_…</text></g></g><path class="foreground" aria-hidden="true" d="" pointer-events="none" display="none"/></g><g transform="translate(0,26)"><path class="background" aria-hidden="true" d="M0,0h328v11h-328Z" pointer-events="none" opacity="1"/><g><g class="mark-symbol role-legend-symbol" pointer-events="none"><path transform="translate(6,6)" d="M-5,0L5,0" stroke="#e45756" stroke-width="1.5" opacity="1"/></g><g class="mark-text role-legend-label" pointer-events="none"><text text-anchor="start" transform="translate(16,9)" font-family="Liberation Mono" font-size="10px" fill="#000" opacity="1">DESCHUTES_VALLEY™_RAIN_PONCHO_-_Parka_…</text></g></g><path class="foreground" aria-hidden="true" d="" pointer-events="none" display="none"/></g><g transform="translate(0,39)"><path class="background" aria-hidden="true" d="M0,0h328v11h-328Z" pointer-events="none" opacity="1"/><g><g class="mark-symbol role-legend-symbol" pointer-events="none"><path transform="translate(6,6)" d="M-5,0L5,0" stroke="#72b7b2" stroke-width="1.5" opacity="1"/></g><g class="mark-text role-legend-label" pointer-events="none"><text text-anchor="start" transform="translate(16,9)" font-family="Liberation Mono" font-size="10px" fill="#000" opacity="1">PONCHO_-_Cape_-_lucid_blue</text></g></g><path class="foreground" aria-hidden="true" d="" pointer-events="none" display="none"/></g><g transform="translate(0,52)"><path class="background" aria-hidden="true" d="M0,0h328v11h-328Z" pointer-events="none" opacity="1"/><g><g class="mark-symbol role-legend-symbol" pointer-events="none"><path transform="translate(6,6)" d="M-5,0L5,0" stroke="#54a24b" stroke-width="1.5" opacity="1"/></g><g class="mark-text role-legend-label" pointer-events="none"><text text-anchor="start" transform="translate(16,9)" font-family="Liberation Mono" font-size="10px" fill="#000" opacity="1">HIKING_BACKPACK_PONCHO_-_Veste_impermé…</text></g></g><path class="foreground" aria-hidden="true" d="" pointer-events="none" display="none"/></g><g transform="translate(0,65)"><path class="background" aria-hidden="true" d="M0,0h328v11h-328Z" pointer-events="none" opacity="1"/><g><g class="mark-symbol role-legend-symbol" pointer-events="none"><path transform="translate(6,6)" d="M-5,0L5,0" stroke="#eeca3b" stroke-width="1.5" opacity="1"/></g><g class="mark-text role-legend-label" pointer-events="none"><text text-anchor="start" transform="translate(16,9)" font-family="Liberation Mono" font-size="10px" fill="#000" opacity="1">HIKING_BACKPACK_PONCHO_-_Veste_impermé…</text></g></g><path class="foreground" aria-hidden="true" d="" pointer-events="none" display="none"/></g><g transform="translate(0,78)"><path class="background" aria-hidden="true" d="M0,0h328v11h-328Z" pointer-events="none" opacity="1"/><g><g class="mark-symbol role-legend-symbol" pointer-events="none"><path transform="translate(6,6)" d="M-5,0L5,0" stroke="#b279a2" stroke-width="1.5" opacity="1"/></g><g class="mark-text role-legend-label" pointer-events="none"><text text-anchor="start" transform="translate(16,9)" font-family="Liberation Mono" font-size="10px" fill="#000" opacity="1">PARIS_ST._GERMAIN_CITY_MADE_PONCHO_-_V…</text></g></g><path class="foreground" aria-hidden="true" d="" pointer-events="none" display="none"/></g><g transform="translate(0,91)"><path class="background" aria-hidden="true" d="M0,0h328v11h-328Z" pointer-events="none" opacity="1"/><g><g class="mark-symbol role-legend-symbol" pointer-events="none"><path transform="translate(6,6)" d="M-5,0L5,0" stroke="#ff9da6" stroke-width="1.5" opacity="1"/></g><g class="mark-text role-legend-label" pointer-events="none"><text text-anchor="start" transform="translate(16,9)" font-family="Liberation Mono" font-size="10px" fill="#000" opacity="1">PSG_M_NSW_CITY_MADE_PONCHO_-_Veste_de_…</text></g></g><path class="foreground" aria-hidden="true" d="" pointer-events="none" display="none"/></g><g transform="translate(0,104)"><path class="background" aria-hidden="true" d="M0,0h328v11h-328Z" pointer-events="none" opacity="1"/><g><g class="mark-symbol role-legend-symbol" pointer-events="none"><path transform="translate(6,6)" d="M-5,0L5,0" stroke="#9d755d" stroke-width="1.5" opacity="1"/></g><g class="mark-text role-legend-label" pointer-events="none"><text text-anchor="start" transform="translate(16,9)" font-family="Liberation Mono" font-size="10px" fill="#000" opacity="1">SHOWERPROOF_PONCHO_UNISEX_-_Cape_-_cla…</text></g></g><path class="foreground" aria-hidden="true" d="" pointer-events="none" display="none"/></g><g transform="translate(0,117)"><path class="background" aria-hidden="true" d="M0,0h328v11h-328Z" pointer-events="none" opacity="1"/><g><g class="mark-symbol role-legend-symbol" pointer-events="none"><path transform="translate(6,6)" d="M-5,0L5,0" stroke="#bab0ac" stroke-width="1.5" opacity="1"/></g><g class="mark-text role-legend-label" pointer-events="none"><text text-anchor="start" transform="translate(16,9)" font-family="Liberation Mono" font-size="10px" fill="#000" opacity="1">COVERO_PONCHO_II_-_Cape_-_lightgrey</text></g></g><path class="foreground" aria-hidden="true" d="" pointer-events="none" display="none"/></g></g></g><path class="foreground" aria-hidden="true" d="" pointer-events="none" display="none"/></g></g><g class="mark-text role-legend-title" pointer-events="none"><text text-anchor="start" transform="translate(0,9)" font-family="Liberation Mono" font-size="11px" font-weight="bold" fill="#000" opacity="1">item</text></g></g><path class="foreground" aria-hidden="true" d="" pointer-events="none" display="none"/></g></g></g><path class="foreground" aria-hidden="true" d="" display="none"/></g></g></g><path class="foreground" aria-hidden="true" d="" display="none"/></g></g></g></svg>