<svg xmlns="http://www.w3.org/2000/svg" xmlns:xlink="http://www.w3.org/1999/xlink" version="1.1" class="marks" width="658" height="244" viewBox="0 0 658 244"><rect width="658" height="244" fill="white"/><g fill="none" stroke-miterlimit="10" transform="translate(104,6)"><g class="mark-group role-frame root" role="graphics-object" aria-roledescription="group mark container"><g transform="translate(0,0)"><path class="background" aria-hidden="true" d="M0,0h0v0h0Z"/><g><g class="mark-group role-row-title row-title" role="graphics-object" aria-roledescription="group mark container"><g transform="translate(-78,116)"><path class="background" aria-hidden="true" d="M0,0h0v0h0Z"/><g><g class="mark-group role-title"><g transform="translate(-21.000000000000004,0)"><path class="background" aria-hidden="true" d="M0,0h0v0h0Z" pointer-events="none"/><g><g class="mark-text role-title-text" role="graphics-symbol" aria-roledescription="title" aria-label="Title text 'group'" pointer-events="none"><text text-anchor="middle" transform="translate(0,0) rotate(-90) translate(0,9)" font-family="Liberation Mono" font-size="11px" font-weight="bold" fill="#000" opacity="1">group</text></g></g><path class="foreground" aria-hidden="true" d="" pointer-events="none" display="none"/></g></g></g><path class="foreground" aria-hidden="true" d="" display="none"/></g></g><g class="mark-group role-row-header row_header" role="graphics-object" aria-roledescription="group mark container"><g transform="translate(-47,0)"><path class="background" aria-hidden="true" d="M0,0h0v200h0Z"/><g><g class="mark-group role-title"><g transform="translate(-20.000000000000007,100)"><path class="background" aria-hidden="true" d="M0,0h0v0h0Z" pointer-events="none"/><g><g class="mark-text role-title-text" role="graphics-symbol" aria-roledescription="title" aria-label="Title text 'zalando-poncho'" pointer-events="none"><text text-anchor="middle" transform="translate(0,0) rotate(-90) translate(0,8)" font-family="Liberation Mono" font-size="10px" fill="#000" opacity="1">zalando-poncho</text></g></g><path class="foreground" aria-hidden="true" d="" pointer-events="none" display="none"/></g></g></g><path class="foreground" aria-hidden="true" d="" display="none"/></g></g><g class="mark-group role-scope cell" role="graphics-object" aria-roledescription="group mark container"><g transform="translate(0,0)"><path class="background" aria-hidden="true" d="M0.5,0.5h200v200h-200Z" stroke="#ddd"/><g><g class="mark-group role-axis" aria-hidden="true"><g transform="translate(0.5,200.5)"><path class="background" aria-hidden="true" d="M0,0h0v0h0Z" pointer-events="none"/><g><g class="mark-rule role-axis-grid" pointer-events="none"><line transform="translate(2,-200)" x2="0" y2="200" stroke="#ddd" stroke-width="1" opacity="1"/><line transform="translate(34,-200)" x2="0" y2="200" stroke="#ddd" stroke-width="1" opacity="1"/><line transform="translate(68,-200)" x2="0" y2="200" stroke="#ddd" stroke-width="1" opacity="1"/><line transform="translate(100,-200)" x2="0" y2="200" stroke="#ddd" stroke-width="1" opacity="1"/><line transform="translate(134,-200)" x2="0" y2="200" stroke="#ddd" stroke-width="1" opacity="1"/><line transform="translate(168,-200)" x2="0" y2="200" stroke="#ddd" stroke-width="1" opacity="1"/><line transform="translate(199,-200)" x2="0" y2="200" stroke="#ddd" stroke-width="1" opacity="1"/></g></g><path class="foreground" aria-hidden="true" d="" pointer-events="none" display="none"/></g></g><g class="mark-group role-axis" aria-hidden="true"><g transform="translate(0.5,0.5)"><path class="background" aria-hidden="true" d="M0,0h0v0h0Z" pointer-events="none"/><g><g class="mark-rule role-axis-grid" pointer-events="none"><line transform="translate(0,200)" x2="200" y2="0" stroke="#ddd" stroke-width="1" opacity="1"/><line transform="translate(0,144)" x2="200" y2="0" stroke="#ddd" stroke-width="1" opacity="1"/><line transform="translate(0,89)" x2="200" y2="0" stroke="#ddd" stroke-width="1" opacity="1"/><line transform="translate(0,33)" x2="200" y2="0" stroke="#ddd" stroke-width="1" opacity="1"/></g></g><path class="foreground" aria-hidden="true" d="" pointer-events="none" display="none"/></g></g><g class="mark-group role-axis" role="graphics-symbol" aria-roledescription="axis" aria-label="X-axis titled 'Time' for a time scale with values from Wednesday, 30 August 2023, 12:58:24 PM to Friday, 01 March 2024, 4:50:20 PM"><g transform="translate(0.5,200.5)"><path class="background" aria-hidden="true" d="M0,0h0v0h0Z" pointer-events="none"/><g><g class="mark-rule role-axis-tick" pointer-events="none"><line transform="translate(2,0)" x2="0" y2="5" stroke="#888" stroke-width="1" opacity="1"/><line transform="translate(34,0)" x2="0" y2="5" stroke="#888" stroke-width="1" opacity="1"/><line transform="translate(68,0)" x2="0" y2="5" stroke="#888" stroke-width="1" opacity="1"/><line transform="translate(100,0)" x2="0" y2="5" stroke="#888" stroke-width="1" opacity="1"/><line transform="translate(134,0)" x2="0" y2="5" stroke="#888" stroke-width="1" opacity="1"/><line transform="translate(168,0)" x2="0" y2="5" stroke="#888" stroke-width="1" opacity="1"/><line transform="translate(199,0)" x2="0" y2="5" stroke="#888" stroke-width="1" opacity="1"/></g><g class="mark-text role-axis-label" pointer-events="none"><text text-anchor="middle" transform="translate(1.5849648013065976,15)" font-family="Liberation Mono" font-size="10px" fill="#000" opacity="1">September</text><text text-anchor="middle" transform="translate(34.16513976634871,15)" font-family="Liberation Mono" font-size="10px" fill="#000" opacity="0">October</text><text text-anchor="middle" transform="translate(67.83132056355889,15)" font-family="Liberation Mono" font-size="10px" fill="#000" opacity="0">November</text><text text-anchor="middle" transform="translate(100.41149552860101,15)" font-family="Liberation Mono" font-size="10px" fill="#000" opacity="0">December</text><text text-anchor="middle" transform="translate(134.0776763258112,15)" font-family="Liberation Mono" font-size="10px" fill="#000" opacity="0">2024</text><text text-anchor="middle" transform="translate(167.74385712302137,15)" font-family="Liberation Mono" font-size="10px" fill="#000" opacity="0">February</text><text text-anchor="end" transform="translate(199.23802625589542,15)" font-family="Liberation Mono" font-size="10px" fill="#000" opacity="1">March</text></g><g class="mark-rule role-axis-domain" pointer-events="none"><line transform="translate(0,0)" x2="200" y2="0" stroke="#888" stroke-width="1" opacity="1"/></g><g class="mark-text role-axis-title" pointer-events="none"><text text-anchor="middle" transform="translate(100,30)" font-family="Liberation Mono" font-size="11px" font-weight="bold" fill="#000" opacity="1">Time</text></g></g><path class="foreground" aria-hidden="true" d="" pointer-events="none" display="none"/></g></g><g class="mark-group role-axis" role="graphics-symbol" aria-roledescription="axis" aria-label="Y-axis titled 'Price' for a linear scale with values from 0 to 18,000"><g transform="translate(0.5,0.5)"><path class="background" aria-hidden="true" d="M0,0h0v0h0Z" pointer-events="none"/><g><g class="mark-rule role-axis-tick" pointer-events="none"><line transform="translate(0,200)" x2="-5" y2="0" stroke="#888" stroke-width="1" opacity="1"/><line transform="translate(0,144)" x2="-5" y2="0" stroke="#888" stroke-width="1" opacity="1"/><line transform="translate(0,89)" x2="-5" y2="0" stroke="#888" stroke-width="1" opacity="1"/><line transform="translate(0,33)" x2="-5" y2="0" stroke="#888" stroke-width="1" opacity="1"/></g><g class="mark-text role-axis-label" pointer-events="none"><text text-anchor="end" transform="translate(-7,203)" font-family="Liberation Mono" font-size="10px" fill="#000" opacity="1">0</text><text text-anchor="end" transform="translate(-7,147.44444444444443)" font-family="Liberation Mono" font-size="10px" fill="#000" opacity="1">50</text><text text-anchor="end" transform="translate(-7,91.88888888888889)" font-family="Liberation Mono" font-size="10px" fill="#000" opacity="1">100</text><text text-anchor="end" transform="translate(-7,36.33333333333333)" font-family="Liberation Mono" font-size="10px" fill="#000" opacity="1">150</text></g><g class="mark-rule role-axis-domain" pointer-events="none"><line transform="translate(0,200)" x2="0" y2="-200" stroke="#888" stroke-width="1" opacity="1"/></g><g class="mark-text role-axis-title" pointer-events="none"><text text-anchor="middle" transform="translate(-35,100) rotate(-90) translate(0,-2)" font-family="Liberation Mono" font-size="11px" font-weight="bold" fill="#000" opacity="1">Price</text></g></g><path class="foreground" aria-hidden="true" d="" pointer-events="none" display="none"/></g></g><g class="mark-group role-scope child_pathgroup" role="graphics-object" aria-roledescription="group mark container"><g transform="translate(0,0)"><path class="background" aria-hidden="true" d="M0,0h200v200h-200Z"/><g><g class="mark-line role-mark child_marks" role="graphics-object" aria-roledescription="line mark container"><path aria-label="Time: Aug 30, 2023; Price: 10795; item: DESCHUTES_VALLEY™_RAIN_PONCHO_-_Parka_-_black" role="graphics-symbol" aria-roledescription="line mark" d="M0,80.056L0.176,80.056L0.356,80.056L0.718,80.056L0.899,80.056L1.086,80.056L1.261,80.056L1.442,80.056L1.805,80.056L1.985,80.056L2.172,80.056L2.347,80.056L2.528,80.056L2.89,80.056L3.071,80.056L3.256,80.056L3.433,80.056L3.614,80.056L3.976,80.056L4.287,80.056L4.342,80.056L4.519,80.056L4.7,80.056L5.062,80.056L5.244,80.056L5.431,80.056L5.605,80.056L5.786,80.056L6.149,50.056L6.33,50.056L6.516,50.056L6.692,50.056L6.872,50.056L7.234,50.056L7.415,50.056L7.603,50.056L7.777,50.056L7.958,50.056L8.321,50.056L8.502,50.056L8.688,50.056L8.863,50.056L9.044,50.056L9.52,50.056L9.587,50.056L9.774,50.056L9.949,50.056L10.13,50.056L10.492,50.056L10.673,50.056L10.858,50.056L11.035,50.056L11.216,50.056L11.578,50.056L11.759,50.056L11.944,50.056L12.121,50.056L12.302,50.056L12.664,50.056L12.845,50.056L13.033,50.056L13.207,50.056L13.388,50.056L13.75,50.056L13.931,50.056L14.118,50.056L14.293,50.056L14.474,50.056L14.836,20.056L15.017,20.056L15.205,20.056L15.3,20.056L15.379,20.056L15.56,20.056L15.922,20.056L16.103,20.056L16.291,20.056L16.465,20.056L16.646,20.056L17.008,20.056L17.189,20.056L17.376,20.056L17.551,20.056L17.732,20.056L18.094,20.056L18.275,20.056L18.459,20.056L18.637,20.056L18.818,20.056L19.18,20.056L19.361,20.056L19.546,20.056L19.723,20.056L19.904,20.056L20.266,20.056L20.447,20.056L20.635,20.056L20.809,20.056L20.99,20.056L21.352,20.056L21.533,20.056L21.721,20.056L21.895,20.056L22.076,20.056L22.438,20.056L22.619,20.056L22.807,20.056L22.981,20.056L23.162,20.056L23.524,20.056L23.705,20.056L23.893,20.056L24.067,20.056L24.248,20.056L24.61,20.056L24.791,20.056L24.978,20.056L25.153,20.056L25.334,20.056L25.696,20.056L25.877,20.056L26.062,20.056L26.239,20.056L26.42,20.056L26.782,20.056L26.963,20.056L27.148,20.056L27.325,20.056L27.506,20.056L27.868,20.056L28.049,20.056L28.237,20.056L28.411,20.056L28.592,20.056L28.954,20.056L29.135,20.056L29.323,20.056L29.497,20.056L29.678,20.056L30.04,40.056L30.221,40.056L30.409,40.056L30.583,40.056L30.764,40.056L31.126,40.056L31.307,40.056L31.495,40.056L31.669,40.056L32.212,40.056L32.393,40.056L32.58,40.056L32.755,40.056L32.936,40.056L33.298,40.056L33.479,40.056L33.664,40.056L33.841,40.056L34.022,40.056L34.384,40.056L34.565,40.056L34.751,40.056L34.927,40.056L35.108,40.056L35.47,100.056L35.651,100.056L35.839,100.056L36.013,100.056L36.194,100.056L36.556,90.056L36.738,90.056L36.925,90.056L37.099,90.056L37.28,90.056L37.642,90.056L37.823,90.056L38.012,90.056L38.185,90.056L38.366,90.056L38.728,90.056L38.909,90.056L39.098,90.056L39.271,90.056L39.453,90.056L39.814,90.056L39.995,90.056L40.183,90.056L40.357,90.056L40.538,90.056L40.9,90.056L41.082,90.056L41.266,90.056L41.443,90.056L41.625,90.056L41.986,90.056L42.167,90.056L42.529,90.056L42.71,90.056L43.072,90.056L43.253,90.056L43.442,90.056L43.615,90.056L43.796,90.056L44.158,100.056L44.339,100.056L44.528,100.056L44.701,100.056L44.882,100.056L45.244,100.056L45.426,100.056L45.613,100.056L45.787,100.056L45.968,100.056L46.33,100.056L46.511,100.056L46.699,100.056L46.873,100.056L47.054,100.056L47.416,100.056L47.597,100.056L47.785,100.056L47.959,100.056L48.14,100.056L48.502,100.056L48.684,100.056L48.868,100.056L49.045,100.056L49.226,100.056L49.588,100.056L49.769,100.056L49.954,100.056L50.131,100.056L50.312,100.056L50.674,90.056L50.855,90.056L51.043,90.056L51.217,90.056L51.398,90.056L51.76,90.056L51.941,90.056L52.129,90.056L52.303,90.056L52.484,90.056L52.847,90.056L53.027,90.056L53.215,90.056L53.389,90.056L53.57,90.056L53.932,90.056L54.113,90.056L54.301,90.056L54.475,90.056L54.656,90.056L55.019,90.056L55.2,90.056L55.387,90.056L55.561,90.056L55.742,90.056L56.104,90.056L56.285,90.056L56.47,90.056L56.647,90.056L56.828,90.056L57.19,90.056L57.371,90.056L57.556,90.056L57.733,90.056L57.914,90.056L58.276,90.056L58.457,90.056L58.645,90.056L58.82,90.056L59,90.056L59.362,50.056L59.543,50.056L59.73,50.056L59.905,50.056L60.086,50.056L60.448,50.056L60.629,50.056L60.816,50.056L60.991,50.056L61.172,50.056L61.534,50.056L61.715,50.056L61.902,50.056L62.077,50.056L62.258,50.056L62.62,50.056L62.802,50.056L62.988,50.056L63.163,50.056L63.344,50.056L63.706,50.056L63.887,50.056L64.072,50.056L64.249,50.056L64.43,50.056L64.792,50.056L64.973,50.056L65.158,50.056L65.335,50.056L65.516,50.056L65.878,50.056L66.059,50.056L66.246,50.056L66.422,50.056L66.602,50.056L66.964,50.056L67.145,50.056L67.332,50.056L67.507,50.056L67.688,50.056L68.05,50.056L68.231,50.056L68.418,50.056L68.593,50.056L68.774,50.056L69.136,40.056L69.317,40.056L69.504,40.056L69.679,40.056L70.765,40.056L70.947,40.056L71.308,40.056L71.674,40.056L71.851,40.056L76.195,40.056L76.376,40.056L76.738,40.056L76.919,40.056L77.106,40.056L77.282,40.056L77.462,40.056L77.824,70.056L78.006,70.056L78.192,70.056L78.367,70.056L78.548,70.056L78.91,70.056L79.092,70.056L79.276,70.056L79.634,70.056L79.996,70.056L80.177,70.056L80.363,70.056L80.539,70.056L80.72,70.056L81.082,40.056L81.263,40.056L81.451,40.056L81.625,40.056L82.168,40.056L82.349,40.056L82.537,40.056L82.711,40.056L82.892,40.056L83.254,40.056L83.435,40.056L83.623,40.056L83.797,40.056L83.978,40.056L84.34,50.056L84.521,50.056L84.709,50.056L84.883,50.056L85.064,50.056L85.426,50.056L85.607,50.056L85.795,50.056L85.969,50.056L86.15,50.056L86.513,40.056L86.693,40.056L86.879,40.056L87.055,40.056L87.237,40.056L87.599,40.056L87.779,40.056L87.965,40.056L88.141,40.056L88.322,40.056L88.684,40.056L88.865,40.056L89.054,40.056L89.227,40.056L89.408,40.056L89.77,40.056L89.951,40.056L90.14,60.056L90.313,60.056L90.494,60.056L90.857,60.056L91.038,60.056L91.226,60.056L91.399,60.056L91.58,60.056L91.942,60.056L92.123,60.056L92.311,80.056L92.485,80.056L92.667,80.056L93.028,80.056L93.209,80.056L93.396,80.056L93.571,80.056L93.752,80.056L94.114,70.056L94.296,70.056L94.481,70.056L94.657,70.056L94.838,70.056L95.2,70.056L95.382,70.056L95.567,70.056L95.743,70.056L95.924,70.056L96.286,40.056L96.467,40.056L96.656,40.056L96.829,40.056L97.011,40.056L97.372,40.056L97.553,40.056L97.74,40.056L97.916,40.056L98.097,40.056L98.459,40.056L98.639,40.056L98.827,40.056L99.002,40.056L99.182,40.056L99.544,40.056L99.725,40.056L99.913,40.056L100.087,40.056L100.268,40.056L100.63,40.056L100.812,40.056L100.999,40.056L101.173,40.056L101.355,40.056L101.717,40.056L101.897,40.056L102.082,40.056L102.26,40.056L102.44,40.056L102.802,40.056L102.983,40.056L103.169,40.056L103.346,40.056L103.526,40.056L103.888,40.056L104.07,40.056L104.257,40.056L104.432,40.056L104.612,40.056L104.975,50.056L105.155,50.056L105.343,50.056L105.517,50.056L105.699,50.056L106.06,50.056L106.241,50.056L106.429,50.056L106.603,50.056L106.785,50.056L107.146,50.056L107.327,50.056L107.515,50.056L107.689,50.056L107.871,50.056L108.232,50.056L108.414,50.056L108.6,50.056L108.776,50.056L108.957,50.056L109.318,50.056L109.5,50.056L109.685,50.056L109.862,50.056L110.043,50.056L110.404,50.056L110.585,50.056L110.771,50.056L110.947,50.056L111.128,50.056L111.491,50.056L111.672,50.056L111.86,50.056L112.576,50.056L112.757,50.056L112.945,50.056L113.12,50.056L113.3,50.056L113.663,50.056L113.844,50.056L114.031,50.056L114.205,50.056L114.387,50.056L114.749,50.056L114.93,50.056L115.117,50.056L115.292,50.056L115.473,50.056L115.835,50.056L116.016,50.056L116.203,50.056L116.378,50.056L116.558,50.056L116.921,50.056L117.102,50.056L117.287,50.056L117.464,50.056L117.644,50.056L118.006,50.056L118.188,50.056L118.373,50.056L118.549,50.056L118.73,50.056L119.093,50.056L119.274,50.056L119.461,50.056L119.635,50.056L119.816,50.056L120.179,50.056L120.359,50.056L120.547,50.056L120.722,50.056L120.903,50.056L121.265,50.056L121.446,50.056L121.628,50.056L121.807,50.056L121.989,50.056L122.351,50.056L122.532,50.056L122.894,50.056L123.074,50.056L123.437,50.056L123.618,50.056L123.804,50.056L123.98,50.056L124.161,50.056L124.523,50.056L124.704,50.056L124.888,50.056L125.066,50.056L125.247,50.056L125.609,50.056L125.79,50.056L125.975,50.056L126.151,50.056L126.333,50.056L126.694,50.056L126.876,50.056L127.062,50.056L127.238,50.056L127.419,50.056L127.781,50.056L127.961,50.056L128.147,50.056L128.324,50.056L128.504,50.056L128.867,50.056L129.048,50.056L129.233,50.056L129.409,50.056L129.59,50.056L129.953,60.056L130.134,60.056L130.319,60.056L130.496,60.056L130.677,60.056L131.038,60.056L131.219,60.056L131.406,60.056L131.582,60.056L131.763,60.056L132.125,60.056L132.306,60.056L132.491,60.056L132.668,60.056L132.848,60.056L133.211,60.056L133.392,60.056L133.577,60.056L133.753,60.056L133.935,60.056L134.297,60.056L134.477,60.056L134.664,60.056L134.84,60.056L135.021,60.056L135.383,60.056L135.563,60.056L135.75,60.056L135.926,60.056L136.107,60.056L136.469,90.056L136.65,90.056L136.837,90.056L137.012,90.056L137.193,90.056L137.555,90.056L137.736,90.056L137.922,90.056L138.098,90.056L150.587,60.056L150.768,60.056L150.955,60.056L151.13,60.056L151.311,60.056L151.673,60.056L151.854,60.056L152.041,60.056L152.216,60.056L152.397,60.056L152.759,60.056L152.94,60.056L153.127,60.056L153.302,60.056L153.483,60.056L153.845,100.056L154.026,100.056L154.213,100.056L154.388,100.056L154.569,100.056L154.931,100.056L155.112,100.056L155.297,100.056L188.054,60.056" stroke="#f58518" stroke-width="2"/></g></g><path class="foreground" aria-hidden="true" d="" display="none"/></g><g transform="translate(0,0)"><path class="background" aria-hidden="true" d="M0,0h200v200h-200Z"/><g><g class="mark-line role-mark child_marks" role="graphics-object" aria-roledescription="line mark container"><path aria-label="Time: Aug 30, 2023; Price: 8995; item: HIKING_BACKPACK_PONCHO_-_Veste_imperméable_-_blue" role="graphics-symbol" aria-roledescription="line mark" d="M0,100.056L0.176,100.056L0.356,100.056L0.718,100.056L0.899,100.056L1.086,100.056L1.261,100.056L1.442,100.056L1.805,100.056L1.985,100.056L2.172,100.056L2.347,100.056L2.528,100.056L2.89,100.056L3.071,100.056L3.256,100.056L3.433,100.056L3.614,100.056L3.976,100.056L4.287,100.056L4.342,100.056L12.845,100.056L13.033,100.056L13.207,100.056L13.388,100.056L13.75,100.056L13.931,100.056L14.118,100.056L14.293,100.056L14.474,100.056L14.836,100.056L15.017,100.056L15.205,100.056L15.3,100.056L15.379,100.056L15.56,100.056L15.922,100.056L16.103,100.056L16.291,100.056L16.465,100.056L16.646,100.056L17.008,100.056L17.189,100.056L17.376,100.056L17.551,100.056L17.732,100.056L18.094,100.056L18.275,100.056L18.459,100.056L18.637,100.056L18.818,100.056L19.18,100.056L19.361,100.056L31.669,111.167L32.212,111.167L32.393,111.167L32.58,111.167L32.755,111.167L32.936,111.167L33.298,111.167L33.479,111.167L33.664,111.167L33.841,111.167L34.022,111.167L34.384,111.167L34.565,111.167L34.751,111.167L34.927,111.167L35.108,111.167L35.47,111.167L35.651,111.167L35.839,111.167L36.013,111.167L36.194,111.167L36.556,127.833L36.738,127.833L36.925,127.833L37.099,127.833L37.28,127.833L37.642,127.833L37.823,127.833L38.012,127.833L38.185,127.833L38.366,127.833L38.728,127.833L38.909,127.833L39.098,127.833L39.271,127.833L39.453,127.833L39.814,127.833L39.995,127.833L40.183,127.833L40.357,127.833L40.539,127.833L40.9,127.833L41.082,127.833L41.266,127.833L41.443,127.833L41.625,127.833L41.986,127.833L42.167,127.833L42.529,127.833L42.71,127.833L43.072,127.833" stroke="#eeca3b" stroke-width="2"/></g></g><path class="foreground" aria-hidden="true" d="" display="none"/></g><g transform="translate(0,0)"><path class="background" aria-hidden="true" d="M0,0h200v200h-200Z"/><g><g class="mark-line role-mark child_marks" role="graphics-object" aria-roledescription="line mark container"><path aria-label="Time: Aug 30, 2023; Price: 16195; item: DESCHUTES_VALLEY™_RAIN_PONCHO_-_Parka_-_vista_blue" role="graphics-symbol" aria-roledescription="line mark" d="M0,20.056L0.176,20.056L0.356,20.056L0.718,20.056L0.899,20.056L1.086,20.056L1.261,20.056L1.442,20.056L1.805,20.056L1.985,20.056L2.172,20.056L2.347,20.056L2.528,20.056L2.89,20.056L3.071,20.056L3.256,20.056L3.433,20.056L3.614,20.056L3.976,20.056L4.287,20.056L4.342,20.056L4.519,20.056L4.7,20.056L5.062,20.056L5.244,20.056L5.431,20.056L5.605,20.056L5.786,20.056L6.149,80.056L6.33,80.056L6.516,80.056L6.692,80.056L6.872,80.056L7.234,80.056L7.415,80.056L7.603,80.056L7.777,80.056L7.958,80.056L8.321,80.056L8.502,80.056L8.688,80.056L8.863,80.056L9.044,80.056L9.52,80.056L9.587,80.056L9.774,80.056L9.949,80.056L10.13,80.056L10.492,80.056L10.673,80.056L10.858,80.056L11.035,80.056L11.216,80.056L11.578,80.056L11.759,80.056L11.944,80.056L12.121,80.056L12.302,80.056L12.664,80.056L12.845,80.056L13.033,80.056L13.207,80.056L13.388,80.056L13.75,80.056L13.931,80.056L14.118,80.056L14.293,80.056L14.474,80.056L14.836,20.056L15.017,20.056L15.205,20.056L15.3,20.056L15.379,20.056L15.56,20.056L15.922,20.056L16.103,20.056L16.291,20.056L16.465,20.056L16.646,20.056L17.008,20.056L17.189,20.056L17.376,20.056L17.551,20.056L17.732,20.056L18.094,20.056L18.275,20.056L18.459,20.056L18.637,20.056L18.818,20.056L19.18,20.056L19.361,20.056L19.546,20.056L19.723,20.056L19.904,20.056L20.266,20.056L20.447,20.056L20.635,20.056L20.809,20.056L20.99,20.056L21.352,20.056L21.533,20.056L21.721,20.056L21.895,20.056L22.076,20.056L22.438,20.056L22.619,20.056L22.807,20.056L22.981,20.056L23.162,20.056L23.524,20.056L23.705,20.056L23.893,20.056L24.067,20.056L24.248,20.056L24.61,20.056L24.791,20.056L24.978,20.056L25.153,20.056L25.334,20.056L25.696,20.056L25.877,20.056L26.062,20.056L26.239,20.056L26.42,20.056L26.782,20.056L26.963,20.056L27.148,20.056L27.325,20.056L27.506,20.056L27.868,20.056L28.049,20.056L28.237,20.056L28.411,20.056L28.592,20.056L28.954,20.056L29.135,20.056L29.323,20.056L29.497,20.056L29.678,20.056L30.04,40.056L30.221,40.056L30.409,40.056L30.583,40.056L30.764,40.056L31.126,40.056L31.307,40.056L31.495,40.056L31.669,40.056L32.212,40.056L32.393,40.056L32.58,40.056L32.755,40.056L32.936,40.056L33.298,40.056L33.479,40.056L33.664,40.056L33.841,40.056L34.022,40.056L34.384,40.056L34.565,40.056L34.751,40.056L34.927,40.056L35.108,40.056L35.47,90.056L35.651,90.056L35.839,90.056L36.013,90.056L36.194,90.056L36.556,40.056L36.738,40.056L36.925,40.056L37.099,40.056L37.28,40.056L37.642,40.056L37.823,40.056L38.012,40.056L38.185,40.056L38.366,40.056L38.728,40.056L38.909,40.056L39.098,40.056L39.271,40.056L39.453,40.056L39.814,40.056L39.995,40.056L40.183,40.056L40.357,40.056L40.538,40.056L40.9,40.056L41.082,40.056L41.266,40.056L41.443,40.056L41.625,40.056L41.986,40.056L42.167,40.056L42.529,40.056L42.71,40.056L43.072,40.056L43.253,40.056L43.442,40.056L43.615,40.056L43.796,40.056L44.158,90.056L44.339,90.056L44.528,90.056L44.701,90.056L44.882,90.056L45.244,90.056L45.426,90.056L45.613,90.056L45.787,90.056L45.968,90.056L46.33,90.056L46.511,90.056L46.699,90.056L46.873,90.056L47.054,90.056L47.416,90.056L47.597,90.056L47.785,90.056L47.959,90.056L48.14,90.056L48.502,40.056L48.684,40.056L48.868,40.056L49.045,40.056L49.226,40.056L49.588,40.056L49.769,40.056L49.954,40.056L50.131,40.056L50.312,40.056L50.674,100.056L50.855,100.056L51.043,100.056L51.217,100.056L51.399,100.056L51.76,100.056L51.941,100.056L52.129,100.056L52.303,100.056L52.484,100.056L52.847,100.056L53.027,100.056L53.215,100.056L53.389,100.056L53.57,100.056L53.932,100.056L54.113,100.056L54.301,100.056L54.475,100.056L54.656,100.056L55.019,100.056L55.2,100.056L55.387,100.056L55.561,100.056L55.742,100.056L56.104,100.056L56.285,100.056L56.47,100.056L56.647,100.056L56.828,100.056L57.19,100.056L57.371,100.056L57.556,100.056L57.733,100.056L57.914,100.056L58.276,100.056L58.457,100.056L58.645,100.056L58.82,100.056L59,100.056L59.362,40.056L59.543,40.056L59.73,40.056L59.905,40.056L60.086,40.056L60.448,40.056L60.629,40.056L60.816,40.056L60.991,40.056L61.172,40.056L61.534,40.056L61.715,40.056L61.902,40.056L62.077,40.056L62.258,40.056L62.62,40.056L62.802,40.056L62.988,40.056L63.163,40.056L63.344,40.056L63.706,40.056L63.887,40.056L64.072,40.056L64.249,40.056L64.43,40.056L64.792,40.056L64.973,40.056L65.158,40.056L65.335,40.056L65.516,40.056L65.878,40.056L66.059,40.056L66.246,40.056L66.422,40.056L66.602,40.056L66.964,40.056L67.145,40.056L67.332,40.056L67.507,40.056L67.688,40.056L68.05,40.056L68.231,40.056L68.418,40.056L68.593,40.056L68.774,40.056L69.136,40.056L69.317,40.056L69.504,40.056L69.679,40.056L69.86,40.056L70.222,40.056L70.403,40.056L70.591,40.056L70.765,40.056L70.947,40.056L71.308,40.056L71.49,40.056L71.674,40.056L71.851,40.056L72.033,40.056L72.394,40.056L72.575,40.056L72.76,40.056L72.938,40.056L73.118,40.056L73.48,40.056L73.661,40.056L73.85,40.056L74.023,40.056L74.204,40.056L74.567,40.056L74.748,40.056L74.934,40.056L75.109,40.056L75.29,40.056L75.652,40.056L75.833,40.056L76.02,40.056L76.195,40.056L76.376,40.056L76.738,40.056L76.919,40.056L77.106,40.056L77.282,40.056L77.462,40.056L77.824,40.056L78.006,40.056L78.192,40.056L78.367,40.056L78.548,40.056L78.91,40.056L79.092,40.056L79.276,40.056L79.634,40.056L79.996,40.056L80.177,40.056L80.363,40.056L80.539,40.056L80.72,40.056L81.082,40.056L81.263,40.056L81.451,40.056L81.625,40.056L82.168,40.056L82.349,40.056L82.537,40.056L82.711,40.056L82.892,40.056L83.254,40.056L83.435,40.056L83.623,40.056L83.797,40.056L83.978,40.056L84.34,120.056L84.521,120.056L84.709,120.056L84.883,120.056L85.064,120.056L85.426,120.056L85.607,120.056L85.795,120.056L85.969,120.056L86.15,120.056L86.513,40.056L86.693,40.056L86.879,40.056L87.055,40.056L87.237,40.056L87.599,40.056L87.779,40.056L87.965,40.056L88.141,40.056L88.322,40.056L88.684,50.056L88.865,50.056L89.054,70.056L89.227,70.056L89.408,70.056L89.77,70.056L89.951,70.056L90.14,70.056L90.313,70.056L90.494,70.056L90.857,70.056L91.038,70.056L91.226,70.056L91.399,70.056L91.58,70.056L91.942,120.056L92.123,120.056L92.311,120.056L92.485,120.056L92.667,120.056L93.028,120.056L93.209,120.056L93.396,120.056L93.571,120.056L93.752,120.056L94.114,120.056L94.296,120.056L94.481,120.056L94.657,120.056L94.838,120.056L95.2,120.056L95.382,120.056L95.567,120.056L95.743,120.056L95.924,120.056L96.286,40.056L96.467,40.056L96.656,40.056L96.829,40.056L97.011,40.056L97.372,40.056L97.553,40.056L97.74,40.056L97.916,40.056L98.097,40.056L98.459,40.056L98.639,40.056L98.827,40.056L99.002,40.056L99.182,40.056L99.544,40.056L99.725,40.056L99.913,40.056L100.087,40.056L100.268,40.056L100.63,40.056L100.812,40.056L100.999,40.056L101.173,40.056L101.355,40.056L101.717,40.056L101.897,40.056L102.082,40.056L102.26,40.056L102.44,40.056L102.802,40.056L102.983,40.056L103.169,40.056L103.346,40.056L103.526,40.056L103.888,40.056L104.07,40.056L104.257,40.056L104.432,40.056L104.612,40.056L104.975,100.056L105.155,100.056L105.343,100.056L105.517,100.056L105.699,100.056L106.06,100.056L106.241,100.056L106.429,100.056L106.603,100.056L106.785,100.056L107.146,100.056L107.327,100.056L107.515,100.056L107.689,100.056L107.871,100.056L108.233,100.056L108.414,100.056L108.6,100.056L108.776,100.056L108.957,100.056L109.318,100.056L109.5,100.056L109.685,100.056L109.862,100.056L110.043,100.056L110.404,100.056L110.585,100.056L110.771,100.056L110.947,100.056L111.128,100.056L111.491,100.056L111.672,100.056L111.86,100.056L112.033,100.056L112.215,100.056L112.576,100.056L112.757,100.056L112.945,100.056L113.12,100.056L113.3,100.056L113.663,100.056L113.844,100.056L114.031,100.056L114.205,100.056L114.387,100.056L114.749,100.056L114.93,100.056L115.117,100.056L115.292,100.056L115.473,100.056L115.835,100.056L116.016,100.056L116.203,100.056L116.378,100.056L116.558,100.056L116.921,100.056L117.102,100.056L117.287,100.056L117.464,100.056L117.644,100.056L118.006,90.056L118.188,90.056L118.373,90.056L118.549,90.056L118.73,90.056L119.093,90.056L119.274,90.056L119.461,90.056L119.635,90.056L119.816,90.056L120.179,90.056L120.359,90.056L120.547,90.056L120.722,90.056L120.903,90.056L121.265,90.056L121.446,90.056L121.628,90.056L121.807,90.056L121.989,90.056L122.351,60.056L122.532,60.056L122.894,60.056L123.074,60.056L123.437,60.056L123.618,60.056L123.804,60.056L123.98,60.056L124.161,60.056L124.523,60.056L124.704,60.056L124.888,60.056L125.066,60.056L125.247,60.056L125.609,60.056L125.79,60.056L125.975,60.056L126.151,60.056L126.333,60.056L126.694,60.056L126.876,60.056L127.062,60.056L127.238,60.056L127.419,60.056L127.781,60.056L127.961,60.056L128.147,60.056L128.324,60.056L128.504,60.056L128.867,60.056L129.048,60.056L129.233,60.056L129.409,60.056L129.591,60.056L129.953,60.056L130.134,60.056L130.319,60.056L130.496,60.056L130.677,60.056L131.039,60.056L131.219,60.056L131.406,60.056L131.582,60.056L131.763,60.056L132.125,60.056L132.306,60.056L132.491,60.056L132.668,60.056L132.848,60.056L133.211,60.056L133.392,60.056L133.577,60.056L133.753,60.056L133.935,60.056L134.297,60.056L134.477,60.056L134.664,60.056L134.84,60.056L135.021,60.056L135.383,60.056L135.563,60.056L135.75,60.056L135.926,60.056L136.107,60.056L136.469,90.056L136.65,90.056L136.837,90.056L137.012,90.056L137.193,90.056L137.555,90.056L137.736,90.056L137.922,90.056L138.098,90.056L138.279,90.056L138.64,90.056L138.821,90.056L139.008,90.056L139.184,90.056L139.365,90.056L139.727,100.056L139.908,100.056L140.094,100.056L140.27,100.056L140.451,100.056L140.813,90.056L140.994,90.056L141.18,90.056L141.356,90.056L141.537,90.056L141.899,100.056L142.08,100.056L142.267,100.056L142.442,100.056L142.623,100.056L142.985,100.056L143.166,100.056L143.357,100.056L143.528,100.056L143.709,100.056L144.071,100.056L144.252,100.056L144.439,100.056L144.614,100.056L144.795,100.056L145.157,90.056L145.338,90.056L145.525,90.056L145.7,90.056L145.881,90.056L146.243,90.056L146.424,90.056L146.611,90.056L146.786,90.056L146.967,90.056L147.329,90.056L147.51,90.056L147.695,90.056L147.872,90.056L148.053,90.056L148.415,100.056L148.596,100.056L148.781,100.056L148.958,100.056L149.139,100.056L149.501,90.056L149.682,90.056L149.869,90.056L150.044,90.056L150.225,90.056L150.587,100.056L150.768,100.056L150.955,100.056L151.13,100.056L151.311,100.056L151.673,100.056L151.854,100.056L152.041,100.056L152.216,100.056L152.397,100.056L152.759,100.056L152.94,100.056L153.127,100.056L153.302,100.056L153.483,100.056L153.845,100.056L154.026,100.056L154.213,100.056L154.388,100.056L154.569,100.056L154.931,100.056L155.112,100.056L155.297,100.056L155.474,100.056L155.655,100.056L156.198,100.056L156.384,100.056L156.56,100.056L156.741,100.056L157.103,100.056L157.284,100.056L157.472,100.056L157.646,100.056L157.827,100.056L158.189,130.056L158.37,130.056L158.558,130.056L158.732,130.056L158.913,130.056L159.275,130.056L159.456,130.056L159.644,130.056L159.818,130.056L159.999,130.056L160.361,130.056L160.542,130.056L160.73,130.056L160.904,130.056L161.085,130.056L161.447,130.056L161.628,130.056L161.813,130.056L161.99,130.056L162.171,130.056L162.533,130.056L162.714,130.056L162.896,130.056L163.076,130.056L163.257,130.056L163.619,130.056L163.8,130.056L163.983,130.056L164.162,130.056L164.343,130.056L164.705,60.056L164.886,60.056L165.07,60.056L165.248,60.056L165.429,60.056L165.791,60.056L165.972,60.056L166.156,60.056L166.334,80.056L166.515,80.056L166.877,80.056L167.058,80.056L167.242,100.056L167.42,100.056L167.601,100.056L167.963,60.056L168.144,60.056L168.329,60.056L168.506,60.056L168.687,60.056L169.049,60.056L169.23,60.056L169.414,60.056L169.592,60.056L169.773,60.056L170.135,60.056L170.316,60.056L170.499,60.056L170.678,60.056L170.859,60.056L171.221,60.056L171.402,60.056L171.585,60.056L171.764,60.056L171.945,60.056L172.307,60.056L172.488,60.056L172.672,60.056L172.85,60.056L173.031,60.056L173.393,60.056L173.574,60.056L173.758,60.056L173.936,60.056L174.117,60.056L174.479,60.056L174.66,60.056L174.844,60.056L175.022,60.056L175.203,60.056L175.565,60.056L175.746,60.056L175.93,60.056L176.108,60.056L176.289,60.056L176.651,60.056L176.832,60.056L177.016,60.056L177.194,60.056L177.375,60.056L177.737,60.056L177.918,60.056L178.101,60.056L178.28,60.056L178.461,60.056L178.823,60.056L179.004,60.056L179.187,60.056L179.366,60.056L179.547,60.056L179.909,60.056L180.09,60.056L180.275,60.056L180.452,60.056L180.633,60.056L180.995,60.056L181.176,60.056L181.36,60.056L181.538,60.056L181.719,60.056L182.081,60.056L182.262,60.056L182.446,60.056L182.624,60.056L182.805,60.056L183.167,60.056L183.348,60.056L183.532,60.056L183.71,60.056L183.891,60.056L184.253,60.056L184.434,60.056L184.618,60.056L184.796,60.056L184.977,60.056L185.339,60.056L185.52,60.056L185.703,60.056L185.882,60.056L186.063,60.056L186.425,60.056L186.606,60.056L186.789,60.056L186.968,60.056L187.149,60.056L187.511,60.056L187.692,60.056L187.877,60.056L188.054,60.056L188.235,60.056L188.597,60.056L188.778,60.056L188.962,60.056L189.14,60.056L189.321,60.056L189.683,90.056L189.864,90.056L190.049,90.056L190.226,90.056L190.407,90.056L190.769,90.056L190.95,90.056L191.134,90.056L191.312,90.056L191.493,90.056L191.855,90.056L192.036,90.056L192.22,90.056L192.398,90.056L192.579,90.056L192.941,90.056L193.122,90.056L193.305,90.056L193.484,90.056L193.665,90.056L194.027,100.056L194.208,100.056L194.391,100.056L194.57,100.056L194.751,100.056L195.113,100.056L195.294,100.056L195.479,100.056L195.656,100.056L195.837,100.056L196.199,70.056L196.38,70.056L196.564,70.056L196.742,70.056L196.923,70.056L197.285,70.056L197.466,70.056L197.65,70.056L197.828,70.056L198.009,70.056L198.371,70.056L198.552,70.056L198.735,70.056L198.914,70.056L199.095,70.056L199.457,70.056L199.638,70.056L199.823,70.056L200,70.056" stroke="#e45756" stroke-width="2"/></g></g><path class="foreground" aria-hidden="true" d="" display="none"/></g><g transform="translate(0,0)"><path class="background" aria-hidden="true" d="M0,0h200v200h-200Z"/><g><g class="mark-line role-mark child_marks" role="graphics-object" aria-roledescription="line mark container"><path aria-label="Time: Aug 30, 2023; Price: 5495; item: COVERO_PONCHO_II_-_Cape_-_lightgrey" role="graphics-symbol" aria-roledescription="line mark" d="M0,138.944L0.176,138.944L0.356,138.944L0.718,138.944L0.899,138.944L1.086,138.944L1.261,138.944L1.442,138.944L1.805,138.944L1.985,138.944L3.071,138.944L3.256,138.944L3.433,138.944L3.614,138.944L3.976,138.944L4.287,138.944L4.342,138.944L4.519,138.944L4.7,138.944L5.062,138.944L5.244,138.944L5.431,138.944L5.605,138.944L5.786,138.944L6.149,138.944L6.33,138.944L6.516,138.944L6.692,138.944L6.872,138.944L9.949,153.944L11.759,138.944L11.944,138.944L12.121,138.944L12.302,138.944L12.664,138.944L12.845,138.944L13.033,138.944L13.207,138.944L13.388,138.944L13.75,138.944L13.931,138.944L14.118,138.944L14.293,138.944L14.474,138.944L14.836,138.944L15.017,138.944L15.205,138.944L15.3,138.944L15.379,138.944L15.56,138.944L15.922,138.944L16.103,138.944L16.291,138.944L16.465,138.944L16.646,138.944L17.008,138.944L17.189,138.944L17.376,138.944L17.551,138.944L17.732,138.944L18.094,138.944L18.275,138.944L18.459,138.944L18.637,138.944L18.818,138.944L19.18,138.944L19.361,138.944L19.546,138.944L19.723,138.944L19.904,138.944L20.266,138.944L20.447,138.944L20.635,138.944L20.809,138.944L20.99,138.944L21.352,138.944L21.533,138.944L21.721,138.944L21.895,138.944L22.076,138.944L22.438,151.167L22.619,151.167L22.807,151.167L22.981,151.167L23.162,151.167L23.524,151.167L23.705,151.167L23.893,151.167L24.067,151.167L24.248,151.167L24.61,151.167L24.791,151.167L24.978,151.167L25.877,151.167L26.062,151.167L26.239,151.167L26.42,151.167L26.782,151.167L26.963,151.167L27.148,151.167L27.325,151.167L27.506,151.167L27.868,151.167L28.049,151.167L28.237,151.167L28.411,151.167L28.592,151.167L28.954,151.167L29.135,151.167L29.323,151.167L29.497,151.167L29.678,151.167L30.04,151.167L30.221,151.167L30.409,151.167L30.583,151.167L30.764,151.167L31.126,151.167L31.307,151.167L31.495,151.167L31.669,151.167L32.212,151.167L32.393,151.167L32.58,151.167L32.755,151.167L32.936,151.167L33.298,151.167L33.479,151.167L33.664,151.167L33.841,151.167L34.022,151.167L34.384,151.167L34.565,151.167L34.751,151.167L34.927,151.167L35.108,151.167L35.47,151.167L35.651,151.167L35.839,151.167L36.013,151.167L36.194,151.167L36.556,151.167L36.738,151.167L36.925,151.167L37.099,151.167L37.28,151.167L37.642,151.167L37.823,151.167L38.012,151.167L38.185,151.167L38.366,151.167L38.728,151.167L38.909,151.167L39.098,151.167L39.271,151.167L39.453,151.167L39.814,151.167L39.995,151.167L40.183,151.167L40.357,151.167L40.539,151.167L41.082,151.167L41.266,151.167L41.986,151.167L42.167,151.167L42.529,151.167L42.71,151.167L43.615,151.167L43.796,151.167L44.158,151.167L44.339,151.167L44.528,151.167L44.882,151.167L45.244,138.944L45.426,138.944L45.613,138.944L45.787,138.944L45.968,138.944L47.959,138.944L49.045,153.944L51.399,153.944L51.76,153.944L52.303,153.944L52.847,153.944L53.389,153.944L53.57,153.944L54.113,153.944L55.561,153.944L55.742,153.944L56.104,153.944L57.556,153.944L57.733,153.944L57.914,153.944L58.276,153.944L58.82,153.944L59,153.944L59.362,153.944L59.543,153.944L59.73,153.944L60.086,153.944L60.629,153.944L60.816,153.944L60.991,153.944L61.534,153.944L61.715,153.944L62.077,153.944L63.163,153.944L63.344,153.944L63.706,153.944L64.072,153.944L64.249,153.944L64.43,153.944L64.973,153.944L65.158,153.944L65.335,153.944L65.878,153.944L66.06,153.944L66.246,153.944L66.422,153.944L66.602,153.944L66.964,153.944L67.145,153.944L67.332,153.944L67.507,153.944L67.688,153.944L68.05,153.944L69.317,153.944L69.504,153.944L69.679,153.944L69.86,153.944L70.403,153.944L70.591,153.944L70.765,153.944L70.947,153.944L71.308,145.611L71.49,145.611L75.29,145.611L75.652,145.611L75.833,145.611L76.02,145.611L76.195,145.611L76.376,145.611L76.919,145.611L77.106,145.611L77.282,145.611L77.462,145.611L77.824,145.611L78.192,145.611L78.548,145.611L79.092,145.611L79.276,145.611L79.634,145.611L79.996,145.611L80.177,145.611L80.363,145.611L80.539,145.611L80.72,145.611L81.082,138.944L81.451,138.944L82.168,138.944L82.349,138.944L82.537,138.944L82.711,138.944L82.892,138.944L83.254,138.944L83.435,138.944L83.623,138.944L83.797,138.944L83.978,138.944L84.521,153.944L84.709,153.944L84.883,153.944L85.064,153.944L85.426,153.944L85.969,153.944L86.15,153.944L86.513,153.944L86.693,153.944L86.879,153.944L87.055,160.056L88.865,138.944L89.054,138.944L89.227,138.944L89.408,138.944L89.77,138.944L89.951,138.944L90.14,138.944L90.313,138.944L90.494,138.944L90.857,138.944L91.038,138.944L91.226,138.944L91.399,138.944L91.58,138.944L92.123,163.389L100.999,138.944L101.717,138.944L102.26,138.944L102.983,138.944L104.07,138.944L104.257,138.944L104.432,138.944L104.612,138.944L104.975,138.944L106.241,138.944L107.146,138.944L108.776,138.944L109.5,138.944L109.685,138.944L109.862,138.944L110.043,138.944L110.404,138.944L110.771,138.944L111.672,138.944L111.86,138.944L112.033,138.944L112.215,138.944L112.945,138.944L113.663,138.944L115.117,138.944L116.016,138.944L116.378,138.944L116.558,138.944L116.921,138.944L117.464,138.944L117.644,138.944L118.006,138.944" stroke="#f58518" stroke-width="2"/></g></g><path class="foreground" aria-hidden="true" d="" display="none"/></g><g transform="translate(0,0)"><path class="background" aria-hidden="true" d="M0,0h200v200h-200Z"/><g><g class="mark-line role-mark child_marks" role="graphics-object" aria-roledescription="line mark container"><path aria-label="Time: Sep 01, 2023; Price: 12995; item: KUURA_3L_PONCHO_UNISEX_-_Veste_imperméable_-_green" role="graphics-symbol" aria-roledescription="line mark" d="M2.528,55.611L2.89,55.611L3.071,55.611L3.256,55.611L5.244,55.611L5.431,55.611L5.605,55.611L5.786,55.611L6.149,11.167L6.33,11.167L6.516,11.167L6.692,11.167L6.872,11.167L7.234,11.167L7.415,11.167L7.603,11.167L7.777,11.167L7.958,11.167L8.321,11.167L8.502,11.167L8.688,11.167L8.863,11.167L9.044,11.167L9.52,11.167L9.587,11.167L9.774,11.167L9.949,11.167L10.13,11.167L10.492,11.167L10.673,11.167L10.858,11.167L11.035,11.167L11.216,11.167L11.578,11.167L11.759,11.167L11.944,11.167L12.121,11.167L12.302,11.167L12.664,11.167L12.845,11.167L13.033,11.167L13.207,11.167L13.75,11.167L13.931,11.167L14.118,11.167L14.293,11.167L14.474,11.167L18.459,22.278L18.637,22.278L18.818,22.278L19.18,22.278L19.361,22.278L19.546,22.278L19.723,22.278L19.904,22.278L20.266,22.278L20.447,22.278L20.635,22.278L21.533,22.278L21.721,22.278L21.895,22.278L22.076,22.278L22.438,22.278L22.619,22.278L37.099,22.278L37.28,22.278L37.642,22.278L37.823,22.278L38.012,22.278L38.185,22.278L38.366,22.278L38.728,22.278L38.909,22.278L39.098,22.278L39.271,22.278L39.453,22.278L39.814,22.278L39.995,22.278L40.183,22.278L40.357,22.278L40.538,22.278L40.9,22.278L41.082,22.278L41.266,22.278L41.443,22.278L41.625,22.278L58.276,22.278L58.457,22.278L58.645,22.278L58.82,22.278L59,22.278L59.362,22.278L59.543,22.278L59.73,22.278L59.905,22.278" stroke="#4c78a8" stroke-width="2"/></g></g><path class="foreground" aria-hidden="true" d="" display="none"/></g><g transform="translate(0,0)"><path class="background" aria-hidden="true" d="M0,0h200v200h-200Z"/><g><g class="mark-line role-mark child_marks" role="graphics-object" aria-roledescription="line mark container"><path aria-label="Time: Sep 14, 2023; Price: 6495; item: PARIS_ST._GERMAIN_CITY_MADE_PONCHO_-_Veste_de_survêtement_-_aura_white" role="graphics-symbol" aria-roledescription="line mark" d="M15.922,127.833L16.103,127.833L16.291,127.833L16.465,127.833L16.646,127.833L17.008,127.833L17.189,127.833L18.094,127.833L19.361,127.833L19.546,127.833L19.723,127.833L19.904,127.833L20.266,127.833L20.447,127.833L20.635,127.833L20.809,127.833L20.99,127.833L21.352,127.833L21.533,127.833L21.721,127.833L21.895,127.833L22.076,127.833L22.438,127.833L22.619,127.833L22.807,127.833L22.981,127.833L23.162,127.833L23.524,127.833L23.705,127.833L23.893,127.833L24.067,127.833L24.248,127.833L24.61,127.833L24.791,127.833L24.978,127.833L25.153,127.833L25.334,127.833L25.696,127.833L25.877,127.833L26.062,127.833L26.239,127.833L26.42,127.833L26.782,127.833L26.963,127.833L27.148,127.833L27.325,127.833L27.506,127.833L27.868,127.833L28.049,127.833L28.237,127.833L28.411,127.833L28.592,127.833L28.954,127.833L29.135,127.833L29.323,127.833" stroke="#bab0ac" stroke-width="2"/></g></g><path class="foreground" aria-hidden="true" d="" display="none"/></g><g transform="translate(0,0)"><path class="background" aria-hidden="true" d="M0,0h200v200h-200Z"/><g><g class="mark-line role-mark child_marks" role="graphics-object" aria-roledescription="line mark container"><path aria-label="Time: Sep 18, 2023; Price: 8995; item: HIKING_BACKPACK_PONCHO_-_Veste_imperméable_-_indian_red" role="graphics-symbol" aria-roledescription="line mark" d="M20.266,100.056L20.447,100.056L20.635,100.056L20.809,100.056L20.99,100.056L21.352,100.056L21.533,100.056L28.411,100.056L28.592,100.056L28.954,100.056L29.135,100.056L29.323,100.056L29.497,100.056L29.678,100.056L30.04,111.167L30.221,111.167L30.409,111.167L30.583,111.167L47.785,111.167L47.959,111.167L48.14,111.167L48.502,111.167L48.684,111.167L48.868,111.167L49.045,111.167L49.226,111.167L49.588,111.167L121.628,122.278L121.807,122.278L121.989,122.278L122.351,111.167L122.532,111.167" stroke="#ff9da6" stroke-width="2"/></g></g><path class="foreground" aria-hidden="true" d="" display="none"/></g><g transform="translate(0,0)"><path class="background" aria-hidden="true" d="M0,0h200v200h-200Z"/><g><g class="mark-line role-mark child_marks" role="graphics-object" aria-roledescription="line mark container"><path aria-label="Time: Sep 26, 2023; Price: 6495; item: PSG_M_NSW_CITY_MADE_PONCHO_-_Veste_de_survêtement_-_aura_white" role="graphics-symbol" aria-roledescription="line mark" d="M29.497,127.833L29.678,127.833L30.04,91.167L30.221,91.167L30.409,91.167L30.583,91.167L30.764,91.167L31.126,91.167L31.307,91.167L31.495,91.167L31.669,91.167L32.212,91.167L32.393,91.167L32.58,91.167L32.755,91.167L32.936,91.167L33.298,91.167L33.479,91.167L33.664,91.167L33.841,91.167L34.022,91.167L34.384,91.167L34.565,91.167L34.751,91.167L34.927,91.167L35.108,91.167L35.47,127.833L35.651,127.833L35.839,127.833L36.013,127.833L36.194,127.833L36.556,127.833L36.738,127.833L36.925,127.833L37.099,127.833L37.28,127.833L37.642,127.833L37.823,127.833L38.012,127.833L38.185,127.833L38.366,127.833L38.728,127.833L38.909,127.833L39.098,127.833L39.271,127.833L39.453,127.833L39.814,127.833L39.995,127.833L40.183,127.833L40.357,127.833L40.539,127.833L40.9,127.833L41.082,127.833L41.266,127.833L41.443,127.833L41.625,127.833L41.986,127.833L42.167,127.833L42.529,127.833L42.71,127.833L43.072,127.833L43.253,127.833L43.442,127.833L43.615,127.833L43.796,127.833L44.158,84.5L44.339,84.5L44.528,84.5L44.882,84.5L45.244,84.5L45.426,84.5L45.613,84.5L45.787,84.5L45.968,84.5L46.33,84.5L46.511,84.5L47.416,84.5L47.959,84.5L49.045,127.833L49.588,127.833L50.855,127.833L51.044,127.833L57.914,127.833L58.276,127.833L58.457,127.833L58.645,127.833L59.543,127.833L59.73,127.833L60.991,127.833L61.172,127.833L61.902,127.833L62.258,127.833L62.62,127.833L62.988,127.833L63.887,127.833L64.43,127.833L64.792,127.833L64.973,127.833L65.158,127.833L65.516,127.833L66.06,127.833L66.602,127.833L66.964,127.833L67.145,127.833L67.332,127.833L67.507,127.833L67.688,127.833L68.05,127.833L68.231,127.833L68.418,127.833L68.593,127.833L68.774,127.833L69.136,127.833L69.317,127.833L69.504,127.833L69.679,127.833L69.86,127.833L70.222,127.833L70.403,127.833L70.591,127.833L70.765,127.833L70.947,127.833L71.308,127.833L71.49,127.833L71.674,127.833L71.851,127.833L72.033,127.833L72.394,127.833L72.575,127.833L72.76,127.833L72.938,127.833L73.118,127.833L73.48,127.833L73.661,127.833L73.85,127.833L74.023,127.833L74.204,127.833L74.567,127.833L74.748,127.833L74.934,127.833L75.109,127.833L75.29,127.833L75.652,127.833L76.02,127.833L76.195,127.833L76.376,127.833L77.106,127.833L77.282,127.833L77.824,84.5L78.192,84.5L78.548,84.5L79.634,84.5L80.72,84.5L81.451,127.833L82.168,127.833L82.349,127.833L82.537,127.833L82.892,127.833L83.254,127.833L83.435,127.833L83.623,127.833L83.797,127.833L84.521,156.722L86.693,127.833L86.879,127.833L87.599,127.833L89.408,105.611L89.77,105.611L91.226,105.611L91.399,105.611L92.123,148.944L94.838,148.944L95.2,148.944L97.011,120.056L97.372,127.833L98.097,127.833L98.827,127.833L99.913,127.833L100.268,127.833L100.999,91.167L101.717,91.167L102.26,91.167L102.983,127.833L104.257,91.167L106.241,127.833L108.776,127.833L109.685,127.833L110.043,127.833L110.771,127.833L111.672,127.833L111.86,127.833L112.033,127.833L112.215,127.833L112.576,127.833L112.757,127.833L112.945,127.833L113.12,127.833L113.3,127.833L113.663,127.833L116.016,127.833L116.378,127.833L116.558,127.833L116.921,127.833L117.464,127.833L118.188,120.056L118.373,120.056L118.549,120.056L118.73,120.056L119.093,120.056L119.461,120.056L119.817,120.056L120.179,120.056L120.359,120.056L120.547,120.056L120.722,120.056L120.903,120.056L121.265,120.056L121.446,120.056L121.628,120.056L121.807,120.056L121.989,120.056L122.351,98.944L122.894,98.944L123.437,98.944L123.618,98.944L123.804,98.944L123.98,98.944L124.161,98.944L124.523,98.944L124.704,98.944L124.888,98.944L125.066,98.944L125.247,98.944L125.609,98.944L125.79,98.944L125.975,98.944L126.151,98.944L126.333,98.944L126.694,98.944L126.876,98.944L127.062,98.944L127.238,98.944L127.419,98.944L127.781,98.944L127.961,98.944L128.324,98.944L128.504,98.944L128.867,98.944L129.048,98.944L129.233,98.944L129.591,98.944L130.134,98.944L130.319,98.944L130.496,98.944L131.039,98.944L131.582,98.944L132.125,98.944L132.306,98.944L132.491,98.944L132.848,98.944L133.211,98.944L133.577,98.944L133.753,98.944L133.935,98.944L134.297,98.944L134.477,98.944L134.664,98.944L134.84,98.944L135.021,98.944L135.383,98.944L135.926,98.944L136.469,120.056L136.65,120.056L137.012,120.056L137.193,120.056L137.555,120.056L137.922,120.056L138.098,120.056L138.279,120.056L138.821,120.056L139.008,120.056L139.184,120.056L139.365,120.056L139.727,120.056L139.908,120.056L140.094,120.056L140.27,120.056L140.451,120.056L140.813,120.056L140.994,120.056L141.18,120.056L141.356,120.056L141.537,120.056L141.899,120.056L142.267,120.056L142.623,120.056L142.985,120.056L143.709,120.056L144.252,120.056L145.338,120.056L145.525,120.056L145.7,120.056L145.881,120.056L146.243,120.056L146.424,120.056L146.611,120.056L146.786,120.056L146.967,120.056L147.329,120.056L147.51,120.056L147.695,120.056L147.872,120.056L148.053,120.056L148.415,120.056L149.139,120.056L149.869,98.944L150.225,98.944L151.311,98.944L152.041,98.944L152.94,98.944L153.127,98.944L153.302,98.944L153.483,98.944L153.845,98.944L154.026,98.944L154.213,98.944L154.388,98.944L154.569,98.944L154.931,98.944L155.112,98.944L155.297,98.944L155.474,98.944L155.655,98.944L156.198,98.944L156.384,98.944L156.56,98.944L156.741,98.944L157.103,98.944L157.284,98.944L157.472,98.944L157.646,98.944L157.827,98.944L158.189,98.944L158.37,98.944L158.558,98.944L158.732,98.944L158.913,98.944L159.275,98.944L159.456,98.944L159.644,98.944L159.818,98.944L159.999,98.944L160.361,98.944L160.542,98.944L160.73,98.944L160.904,98.944L161.085,98.944L161.447,98.944L161.628,98.944L161.813,98.944L161.99,98.944L162.171,98.944L162.533,98.944L162.714,98.944L162.896,98.944L163.076,98.944L163.257,98.944L163.619,98.944L163.8,98.944L163.983,98.944L164.162,98.944L164.343,98.944L164.705,98.944L164.886,98.944L165.07,98.944L165.248,98.944L165.429,98.944L165.791,98.944L165.972,98.944L166.156,98.944L166.334,98.944L166.515,98.944L166.877,98.944L167.058,98.944L167.242,98.944L167.42,98.944L167.601,98.944L167.963,98.944L168.144,98.944L168.329,98.944L168.506,98.944L168.687,98.944L169.049,98.944L169.23,98.944L169.414,98.944L169.592,98.944L169.773,98.944L170.135,98.944L170.316,98.944L170.499,98.944L175.93,98.944L176.108,98.944L176.289,98.944L176.651,98.944L176.832,98.944L177.016,98.944L177.194,98.944L177.375,98.944L177.737,98.944L177.918,98.944L178.101,98.944L178.28,98.944L178.461,98.944L178.823,98.944L179.004,98.944L179.187,98.944L179.366,98.944L179.547,98.944L179.909,98.944L180.09,98.944L180.275,98.944L180.452,98.944L180.633,98.944L180.995,98.944L181.176,98.944L181.36,98.944L181.538,98.944L181.719,98.944L182.081,98.944L182.262,98.944L182.446,98.944L182.624,98.944L182.805,98.944L183.167,98.944L183.348,98.944L183.532,98.944L183.71,98.944L183.891,98.944L184.253,98.944L184.434,98.944L184.618,98.944L184.796,98.944L184.977,98.944L185.339,98.944L185.52,98.944L185.703,98.944L185.882,98.944L186.063,98.944L186.425,98.944L186.606,98.944L186.789,98.944L186.968,98.944L187.149,98.944L187.511,98.944L187.692,98.944L187.877,98.944" stroke="#54a24b" stroke-width="2"/></g></g><path class="foreground" aria-hidden="true" d="" display="none"/></g><g transform="translate(0,0)"><path class="background" aria-hidden="true" d="M0,0h200v200h-200Z"/><g><g class="mark-line role-mark child_marks" role="graphics-object" aria-roledescription="line mark container"><path aria-label="Time: Oct 12, 2023; Price: 4995; item: SHOWERPROOF_PONCHO_UNISEX_-_Cape_-_classic_tartan" role="graphics-symbol" aria-roledescription="line mark" d="M46.33,144.5L46.511,144.5L46.699,144.5L46.873,144.5L47.054,144.5L47.416,144.5L47.597,144.5L47.785,144.5L47.959,144.5L48.14,144.5L48.502,144.5L48.684,144.5L48.868,144.5L49.045,144.5L49.226,144.5L49.588,144.5L49.769,144.5L49.954,144.5L50.131,144.5L50.312,144.5L50.674,152.611L50.855,152.611L51.043,152.611L51.217,152.611L51.399,152.611L51.76,152.611L51.941,152.611L52.129,152.611L52.303,152.611L52.484,152.611L52.847,152.611L53.027,152.611L53.215,152.611L53.389,152.611L53.57,152.611L53.932,152.611L54.113,152.611L54.301,152.611L54.475,152.611L54.656,152.611L55.019,152.611L55.2,152.611L55.387,152.611L55.561,152.611L55.742,152.611L56.104,152.611L56.285,152.611L56.47,152.611L56.647,152.611L56.828,152.611L57.19,144.5L57.371,144.5L57.556,144.5L57.733,144.5L57.914,144.5L58.276,144.5L58.457,144.5L58.645,144.5L58.82,144.5L59,144.5L59.362,152.611L59.543,152.611L59.73,152.611L59.905,152.611L60.086,152.611L60.448,152.611L60.629,152.611L60.816,152.611L60.991,152.611L61.172,152.611L61.534,152.611L61.715,152.611L61.902,152.611L62.077,152.611L62.258,152.611L62.62,152.611L62.802,152.611L62.988,152.611L63.163,152.611L63.344,152.611L63.706,152.611L63.887,152.611L64.072,152.611L64.249,152.611L64.43,152.611L64.792,152.611L64.973,152.611L65.158,152.611L65.335,152.611L65.516,152.611L65.878,144.5L66.06,144.5L66.246,144.5L66.422,144.5L66.602,144.5L66.964,144.5L67.145,144.5L67.332,144.5L67.507,144.5L67.688,144.5L68.05,152.611L68.231,152.611L68.418,152.611L68.593,152.611L68.774,152.611L69.136,152.611L69.317,152.611L69.504,152.611L69.679,152.611L69.86,152.611L70.222,152.611L70.403,152.611L70.591,152.611L70.765,152.611L70.947,152.611L71.308,152.611L71.49,152.611L71.674,152.611L71.851,152.611L72.033,152.611L72.394,152.611L72.575,152.611L72.76,152.611L72.938,152.611L73.118,152.611L73.48,152.611L73.661,152.611L73.85,152.611L74.023,152.611L74.204,152.611L74.567,150.056L74.748,144.5L74.934,144.5L75.109,144.5L75.29,144.5L75.652,144.5L75.833,144.5L76.02,144.5L76.195,144.5L76.376,144.5L76.738,144.5L76.919,144.5L77.106,144.5L77.282,144.5L77.462,144.5L77.824,144.5L78.006,144.5L78.192,144.5L78.367,144.5L78.548,144.5L78.91,144.5L79.092,144.5L79.276,144.5L79.634,144.5L79.996,144.5L80.177,144.5L80.363,144.5L80.539,144.5L80.72,144.5L81.082,144.5L81.263,144.5L81.451,144.5L81.625,144.5L82.168,144.5L82.349,144.5L82.537,144.5L82.711,144.5L82.892,144.5L83.254,144.5L83.435,144.5L83.623,144.5L83.797,144.5L83.978,144.5L84.34,144.5L84.521,144.5L84.709,144.5L84.883,144.5L85.064,144.5L85.426,144.5L85.607,144.5L85.795,144.5L85.969,144.5L86.15,144.5L86.513,144.5L86.693,144.5L86.879,144.5L87.055,144.5L87.237,144.5L87.599,144.5L87.779,144.5L87.965,144.5L88.141,144.5L88.322,144.5L88.684,144.5L88.865,144.5L89.054,144.5L89.227,144.5L89.408,144.5L89.77,144.5L89.951,144.5L90.14,144.5L90.313,144.5L90.494,144.5L90.857,144.5L91.038,144.5L91.226,144.5L91.399,144.5L91.58,144.5L104.432,144.5L104.612,144.5L104.975,144.5L105.155,144.5L105.343,144.5L105.517,144.5L105.699,144.5L106.06,144.5L106.241,144.5L106.429,144.5L106.603,144.5L106.785,144.5L107.146,144.5L107.327,144.5L107.515,144.5L107.689,144.5L107.871,144.5L108.233,144.5L108.414,144.5L108.6,144.5L108.776,144.5L108.957,144.5L109.318,144.5L109.5,144.5L109.685,144.5L109.862,144.5L110.043,144.5L110.404,144.5L110.585,144.5L110.771,144.5L110.947,144.5L111.128,144.5L111.491,144.5L111.672,144.5L111.86,144.5L112.033,144.5L112.215,144.5L112.576,144.5L112.757,144.5L112.945,144.5L113.12,144.5L113.3,144.5L113.663,144.5L113.844,144.5L114.031,144.5L114.205,144.5L114.387,144.5L114.749,144.5L114.93,144.5L115.117,144.5L115.292,144.5L115.473,144.5L115.835,144.5L116.016,144.5L116.203,144.5L116.378,144.5L116.558,144.5L116.921,144.5L117.102,144.5L117.287,144.5L117.464,144.5L117.644,144.5L118.006,144.5L118.188,144.5L118.373,144.5L118.549,144.5L118.73,144.5L119.093,144.5L119.274,144.5L119.461,144.5L119.635,144.5L119.816,144.5L120.179,158.167L120.359,158.167L120.547,158.167L120.722,158.167L120.903,158.167L121.265,158.167L121.446,158.167L121.628,158.167L121.807,158.167L121.989,158.167L122.351,144.5L122.532,144.5L122.894,144.5L123.074,144.5L123.437,144.5L123.618,144.5L123.804,144.5L123.98,144.5L124.161,144.5L124.523,144.5L124.704,144.5L124.888,144.5L125.066,144.5L125.247,144.5L125.609,144.5L125.79,144.5L125.975,144.5L126.151,144.5L126.333,144.5L126.694,144.5L126.876,144.5L127.062,144.5L127.238,144.5L127.419,144.5L127.781,144.5L127.961,144.5L128.147,144.5L128.324,144.5L128.504,144.5L128.867,144.5L129.048,144.5L129.233,144.5L129.409,144.5L129.591,144.5L129.953,144.5L130.134,144.5L130.319,144.5L130.496,144.5L130.677,144.5L131.039,144.5L131.219,144.5L131.406,144.5L131.582,144.5L131.763,144.5L132.125,144.5L132.306,144.5L132.491,144.5L132.668,144.5L132.848,144.5L133.211,144.5L133.392,144.5L133.577,144.5L133.753,144.5L133.935,144.5L134.297,144.5L134.477,144.5L134.664,144.5L134.84,144.5L135.021,144.5L135.383,144.5L135.563,144.5L135.75,144.5L135.926,144.5L136.107,144.5L136.469,144.5L136.65,144.5L136.837,144.5L137.012,144.5L137.193,144.5L137.555,144.5L137.736,144.5L137.922,144.5L138.098,144.5L138.279,144.5L138.64,144.5L138.821,144.5L139.008,144.5L139.184,144.5L139.365,144.5L139.727,144.5L139.908,144.5L140.094,144.5L140.27,144.5L140.451,144.5L140.813,144.5L140.994,144.5L141.18,144.5L141.356,144.5L141.537,144.5L141.899,144.5L142.08,144.5L142.267,144.5L142.442,144.5L142.623,144.5L142.985,152.611L143.166,152.611L143.357,152.611L143.528,152.611L143.709,152.611L144.071,152.611L144.252,152.611L144.439,152.611L144.614,152.611L144.795,152.611L145.157,158.167L145.338,158.167L145.525,158.167L145.7,158.167L145.881,158.167L146.243,158.167L146.424,158.167L146.611,158.167L146.786,158.167L146.967,158.167L147.329,158.167L147.51,158.167L147.695,158.167L147.872,158.167L148.053,158.167L148.415,144.5L148.596,144.5L148.781,144.5L148.958,144.5L149.139,144.5L149.501,158.167L149.682,158.167L149.869,158.167L150.044,158.167L150.225,158.167L150.587,150.056L150.768,150.056L150.955,150.056L151.13,150.056L151.311,150.056L151.673,144.5L151.854,144.5L152.041,144.5L152.216,144.5L152.397,144.5L152.759,150.056L152.94,150.056L153.127,150.056L153.302,150.056L153.483,150.056L153.845,161.167L154.026,161.167L154.213,161.167L154.388,161.167L154.569,161.167L154.931,161.167L155.112,161.167L155.297,161.167L155.474,161.167L155.655,161.167L156.198,144.5L156.384,144.5L156.56,144.5L156.741,144.5L157.103,161.167L157.284,161.167L157.472,161.167L157.646,161.167L157.827,161.167L158.189,150.056L158.37,150.056L158.558,150.056L158.732,150.056L158.913,150.056L159.275,144.5L159.456,144.5L159.644,144.5L159.818,144.5L159.999,144.5L160.361,150.056L160.542,150.056L160.73,150.056L160.904,150.056L161.085,150.056L161.447,150.056L161.628,150.056L161.813,150.056L161.99,150.056L162.171,150.056L162.533,144.5L162.714,144.5L162.896,144.5L163.076,144.5L163.257,144.5L163.619,144.5L163.8,144.5L163.983,144.5L164.162,144.5L164.343,144.5L164.705,144.5L164.886,144.5L165.07,144.5L165.248,144.5L165.429,144.5L165.791,144.5L165.972,144.5L166.156,144.5L166.334,144.5L166.515,144.5L166.877,144.5L167.058,144.5L167.242,144.5L167.42,144.5L167.601,144.5L167.963,152.611L168.144,152.611L168.329,152.611L168.506,152.611L168.687,152.611L169.049,152.611L169.23,152.611L169.414,152.611L169.592,152.611L169.773,152.611L170.135,152.611L170.316,152.611L170.499,152.611L170.678,152.611L170.859,152.611L171.221,133.389L171.402,133.389L171.585,133.389L171.764,133.389L171.945,133.389L172.307,133.389L172.488,133.389L172.672,133.389L172.85,133.389L173.031,133.389L173.393,133.389L173.574,133.389L173.758,133.389L173.936,133.389L174.117,133.389L174.479,150.056L174.66,150.056L174.844,150.056L175.022,150.056L175.203,150.056L175.565,133.389L175.746,133.389L175.93,133.389L176.108,133.389L176.289,133.389L176.651,133.389L176.832,133.389L177.016,133.389L177.194,133.389L177.375,133.389L177.737,133.389L177.918,133.389L178.101,133.389L178.28,133.389L178.461,133.389L178.823,133.389L179.004,133.389L179.187,133.389L179.366,133.389L179.547,133.389L179.909,133.389L180.09,133.389L180.275,133.389L180.452,133.389L180.633,133.389L180.995,133.389L181.176,133.389L181.36,133.389L181.538,133.389L181.719,133.389L182.081,146.722L182.262,146.722L182.446,146.722L182.624,146.722L182.805,146.722L183.167,133.389L183.348,133.389L183.532,133.389L183.71,133.389L183.891,133.389L184.253,133.389L184.434,133.389L184.618,133.389L184.796,133.389L184.977,133.389L185.339,133.389L185.52,133.389L185.703,133.389L185.882,133.389L186.063,133.389L186.425,133.389L186.606,133.389L186.789,133.389L186.968,133.389L187.149,133.389L187.511,133.389L187.692,133.389L187.877,133.389L188.054,133.389L188.235,133.389L188.597,133.389L188.778,133.389L188.962,133.389L189.14,133.389L189.321,133.389L189.683,143.389L189.864,143.389L190.049,143.389L190.226,143.389L190.407,143.389L190.769,143.389L190.95,143.389L191.134,143.389L191.312,143.389L191.493,143.389L191.855,143.389L192.036,143.389L192.22,143.389L192.398,143.389L192.579,143.389L192.941,143.389L193.122,143.389L193.305,143.389L193.484,143.389L193.665,143.389L194.027,133.389L194.208,133.389L194.391,133.389L194.57,133.389L194.751,133.389L195.113,133.389L195.294,133.389L195.479,133.389L195.656,133.389L195.837,133.389L196.199,143.389L196.38,143.389L196.564,143.389L196.742,143.389L196.923,143.389L197.285,143.389L197.466,143.389L197.65,143.389L197.828,143.389L198.009,143.389L198.371,143.389L198.552,143.389L198.735,143.389L198.914,143.389L199.095,143.389L199.457,143.389L199.638,143.389L199.823,143.389L200,143.389" stroke="#4c78a8" stroke-width="2"/></g></g><path class="foreground" aria-hidden="true" d="" display="none"/></g><g transform="translate(0,0)"><path class="background" aria-hidden="true" d="M0,0h200v200h-200Z"/><g><g class="mark-line role-mark child_marks" role="graphics-object" aria-roledescription="line mark container"><path aria-label="Time: Oct 12, 2023; Price: 13995; item: PONCHO_-_Cape_-_lucid_blue" role="graphics-symbol" aria-roledescription="line mark" d="M46.33,44.5L47.597,44.5L47.959,44.5L48.502,91.167L49.045,91.167L49.769,91.167L49.954,91.167L50.131,91.167L50.312,91.167L50.674,91.167L50.855,91.167L51.043,91.167L51.217,91.167L51.399,91.167L51.76,91.167L51.941,91.167L52.129,91.167L52.303,91.167L52.484,91.167L52.847,91.167L53.027,91.167L53.215,91.167L53.389,91.167L53.57,91.167L53.932,91.167L54.113,91.167L54.301,91.167L54.656,91.167L55.561,91.167L55.742,91.167L56.104,91.167L56.647,91.167L57.19,91.167L57.371,91.167L57.556,91.167L57.733,91.167L57.914,91.167L58.82,91.167L59.362,114.5L59.543,114.5L60.086,114.5L60.629,114.5L60.816,114.5L60.991,114.5L61.534,114.5L62.62,114.5L62.802,114.5L62.988,114.5L63.163,114.5L63.344,114.5L63.706,114.5L63.887,114.5L64.072,114.5L64.249,114.5L64.43,114.5L64.792,114.5L64.973,114.5L65.158,114.5L65.335,114.5L65.516,114.5L65.878,114.5L66.06,114.5L66.246,114.5L66.422,114.5L66.602,114.5L66.964,114.5L67.145,114.5L67.332,114.5L67.507,114.5L67.688,114.5L68.05,114.5L68.231,114.5L68.418,114.5L68.593,114.5L68.774,114.5L69.136,83.389L69.317,83.389L69.86,83.389L70.222,83.389L71.308,83.389L71.49,83.389L71.851,83.389L72.033,83.389L72.394,83.389L72.575,83.389L72.76,83.389L72.938,83.389L73.118,83.389L73.48,83.389L73.661,83.389L74.204,83.389L74.567,44.5L74.748,44.5L74.934,44.5L75.109,44.5L75.29,44.5L75.652,44.5L75.833,44.5L76.02,44.5L76.195,44.5L76.376,44.5L76.738,44.5L76.919,44.5L77.106,44.5L77.282,44.5L77.462,44.5L77.824,122.278L78.192,122.278L78.548,122.278L79.092,122.278L79.276,122.278L79.634,122.278L79.996,122.278L80.177,122.278L80.363,122.278L80.539,122.278L80.72,122.278L81.082,44.5L81.263,44.5L81.451,44.5L81.625,44.5L82.168,44.5L82.349,44.5L82.537,44.5L82.711,44.5L82.892,44.5L83.254,44.5L83.435,44.5L83.623,44.5L83.797,44.5L83.978,44.5L84.521,130.056L84.709,130.056L84.883,130.056L85.064,130.056L85.426,130.056L86.15,130.056L86.513,44.5L86.693,44.5L86.879,44.5L87.599,44.5L87.779,44.5L87.965,44.5L88.141,44.5L88.322,44.5L88.684,60.056L88.865,60.056L89.054,106.722L89.227,106.722L89.408,122.278L89.77,122.278L89.951,122.278L90.14,122.278L90.313,122.278L90.494,122.278L90.857,122.278L91.038,122.278L91.226,122.278L91.399,122.278L91.58,122.278L91.942,122.278L92.123,122.278L92.311,122.278L92.485,122.278L92.667,122.278L93.028,122.278L94.296,130.056L94.481,122.278L94.657,122.278L94.838,122.278L95.2,122.278L95.382,122.278L95.567,122.278L95.743,122.278L95.924,122.278L96.286,122.278L97.011,75.611L97.372,44.5L97.553,44.5L97.74,44.5L97.916,44.5L98.097,44.5L98.459,44.5L98.639,44.5L98.827,44.5L99.002,44.5L99.182,44.5L99.544,44.5L99.725,44.5L99.913,44.5L100.087,44.5L100.268,44.5L100.63,44.5L100.812,44.5L100.999,44.5L101.355,44.5L101.717,44.5L101.897,44.5L102.082,44.5L102.26,44.5L102.44,44.5L102.802,44.5L102.983,44.5L103.169,44.5L103.346,44.5L103.526,44.5L103.888,44.5L104.257,44.5L106.241,91.167L106.429,91.167L106.603,91.167L106.785,91.167L107.146,91.167L108.6,91.167L108.776,91.167L109.685,91.167L110.043,91.167L110.771,122.278L110.947,122.278L111.128,122.278L111.491,122.278L111.672,122.278L111.86,122.278L112.033,122.278L112.215,122.278L112.576,91.167L112.945,91.167L113.12,91.167L113.3,91.167L113.663,91.167L114.93,91.167L115.117,91.167L115.292,91.167L115.473,91.167L115.835,91.167L116.016,91.167L116.203,91.167L116.378,91.167L116.558,91.167L116.921,91.167L117.464,91.167L118.188,106.722L118.373,106.722L118.549,106.722L118.73,106.722L119.093,106.722L119.274,106.722L119.461,106.722L119.635,106.722L119.817,106.722L120.179,106.722L120.359,106.722L120.547,106.722L120.722,106.722L120.903,106.722L121.265,106.722L121.446,106.722L121.628,106.722L121.807,106.722L121.989,106.722L122.351,91.167L122.894,91.167L123.074,91.167L123.437,91.167L123.618,91.167L123.804,91.167L123.98,91.167L124.161,91.167L124.523,91.167L124.704,91.167L124.888,91.167L125.066,91.167L125.247,91.167L125.609,91.167L125.79,91.167L125.975,91.167L126.151,91.167L126.333,91.167L126.694,91.167L126.876,91.167L127.062,91.167L127.238,91.167L127.419,91.167L127.781,91.167L127.961,91.167L128.147,91.167L128.324,91.167L128.504,91.167L128.867,91.167L129.048,91.167L129.233,91.167L129.409,91.167L129.591,91.167L129.953,83.389L130.134,83.389L130.319,83.389L130.496,83.389L130.677,83.389L131.039,83.389L131.219,83.389L131.406,83.389L131.582,83.389L131.763,83.389L132.125,83.389L132.306,83.389L132.491,83.389L132.668,83.389L132.848,83.389L133.211,83.389L133.392,83.389L133.577,83.389L133.753,83.389L133.935,83.389L134.297,83.389L134.477,83.389L134.664,83.389L134.84,83.389L135.021,83.389L135.383,83.389L135.563,83.389L135.75,83.389L135.926,83.389L136.107,83.389L136.469,106.722L136.65,106.722L136.837,106.722L137.012,106.722L137.193,106.722L137.555,106.722L137.736,106.722L137.922,106.722L138.098,106.722L138.279,106.722L138.641,106.722L138.821,106.722L139.008,106.722L139.184,106.722L139.365,106.722L139.727,114.5L139.908,114.5L140.094,114.5L140.27,114.5L140.451,114.5L140.813,106.722L140.994,106.722L141.18,106.722L141.356,106.722L141.537,106.722L141.899,114.5L142.08,114.5L142.267,114.5L142.442,114.5L142.623,114.5L142.985,122.278L143.166,122.278L143.357,122.278L143.528,122.278L143.709,122.278L144.071,122.278L144.252,122.278L144.439,122.278L144.614,122.278L144.795,122.278L145.157,122.278L145.338,122.278L145.525,122.278L145.7,122.278L145.881,122.278L146.243,122.278L146.424,122.278L146.611,122.278L146.786,122.278L146.967,122.278L147.329,122.278L147.51,122.278L147.695,122.278L147.872,122.278L148.053,122.278L148.415,122.278L148.596,122.278L148.781,122.278L148.958,122.278L149.139,122.278L149.501,122.278L149.682,122.278L149.869,122.278L150.044,122.278L150.225,122.278L150.587,114.5L150.768,114.5L150.955,114.5L151.13,114.5L151.311,114.5L151.673,122.278L151.854,122.278L152.041,122.278L152.216,122.278L152.397,122.278L152.759,114.5L152.94,114.5L153.127,114.5L153.302,114.5L153.483,114.5L153.845,122.278L154.026,122.278L154.213,122.278L154.388,122.278L154.569,122.278L154.931,122.278L155.112,122.278L155.297,122.278L155.474,122.278L155.655,122.278L156.198,122.278L156.384,122.278L156.56,122.278L156.741,122.278L157.103,122.278L157.284,122.278L157.472,122.278L157.646,122.278L157.827,122.278L158.189,145.611L158.37,145.611L158.558,145.611L158.732,145.611L158.913,145.611L159.275,145.611L159.456,145.611L159.644,145.611L159.818,145.611L159.999,145.611L160.361,145.611L160.542,145.611L160.73,145.611L160.904,145.611L161.085,145.611L161.447,145.611L161.628,145.611L161.813,145.611L161.99,145.611L162.171,145.611L162.533,145.611L162.714,145.611L162.896,145.611L163.076,145.611L163.257,145.611L163.619,145.611L163.8,145.611L163.983,145.611L164.162,145.611L164.343,145.611L164.705,106.722L164.886,106.722L165.07,106.722L165.248,106.722L165.429,106.722L165.791,106.722L165.972,106.722L166.156,106.722L166.334,106.722L166.515,106.722L166.877,106.722L167.058,106.722L167.242,137.833L167.42,137.833L167.601,137.833L167.963,44.5L168.144,44.5L168.329,44.5L168.506,44.5L168.687,44.5L169.049,44.5L169.23,44.5L169.414,44.5L169.592,44.5L169.773,44.5L170.135,44.5L170.316,44.5L170.499,44.5L170.678,44.5L170.859,44.5L171.221,44.5L171.402,44.5L171.585,44.5L171.764,44.5L171.945,44.5L172.307,44.5L172.488,44.5L173.393,44.5L173.574,44.5L173.758,44.5L173.936,44.5L174.117,44.5L174.479,122.278L174.66,122.278L174.844,122.278L175.022,122.278L175.203,122.278L175.565,122.278L175.746,122.278L175.93,122.278L176.108,122.278L176.289,122.278L176.651,98.944L176.832,98.944L177.016,98.944L177.194,98.944L177.375,98.944L177.737,98.944L177.918,98.944L178.101,98.944L178.28,98.944L178.461,98.944L179.366,98.944L179.547,98.944L179.909,98.944L180.09,98.944L180.275,98.944L180.452,98.944L180.633,98.944L181.176,114.5L182.081,114.5L182.805,114.5L183.167,67.833L184.977,67.833L185.52,67.833L186.789,67.833L187.511,67.833L187.692,67.833L187.877,67.833L188.054,67.833L188.235,67.833L189.683,91.167L190.226,91.167L190.407,91.167L190.769,91.167L190.95,91.167L191.134,91.167L191.312,91.167L191.493,91.167L191.855,91.167L192.036,91.167L192.22,91.167L192.398,91.167L192.579,91.167L192.941,91.167L193.122,91.167L193.305,91.167L193.484,91.167L193.665,91.167L194.027,114.5L194.208,114.5L194.391,114.5L194.57,114.5L194.751,114.5L195.113,114.5L195.294,114.5L195.479,114.5L195.656,114.5L195.837,114.5L196.38,114.5L196.742,114.5L196.923,114.5L197.466,114.5L197.65,114.5L197.828,114.5L198.009,114.5L198.914,114.5L199.457,114.5L199.823,114.5" stroke="#b279a2" stroke-width="2"/></g></g><path class="foreground" aria-hidden="true" d="" display="none"/></g><g transform="translate(0,0)"><path class="background" aria-hidden="true" d="M0,0h200v200h-200Z"/><g><g class="mark-line role-mark child_marks" role="graphics-object" aria-roledescription="line mark container"><path aria-label="Time: Dec 18, 2023; Price: 10995; item: K_ESSENTIAL_RAIN_PONCHO_UNISEX_-_Cape_-_black" role="graphics-symbol" aria-roledescription="line mark" d="M119.461,77.833L120.179,77.833L120.359,77.833L120.722,77.833L120.903,77.833L121.265,77.833L121.628,77.833L121.807,77.833L121.989,77.833L122.894,77.833L123.437,77.833L123.618,77.833L123.804,77.833L124.161,77.833L124.523,77.833L124.704,77.833L125.247,77.833L125.609,77.833L125.79,77.833L125.975,77.833L126.151,77.833L126.333,77.833L126.876,77.833L127.419,77.833L127.781,77.833L127.961,77.833L128.504,77.833L129.048,77.833L129.233,77.833L129.591,77.833L130.134,77.833L130.319,77.833L131.039,77.833L131.582,77.833L132.125,77.833L132.306,77.833L132.491,77.833L132.848,77.833L133.577,77.833L133.753,77.833L134.297,77.833L134.664,77.833L134.84,77.833L135.021,77.833L135.926,77.833L136.469,77.833L136.65,77.833L137.012,77.833L137.193,77.833L137.555,77.833L137.922,77.833L138.098,77.833L139.008,77.833L139.184,77.833L140.27,77.833L140.451,77.833L140.813,77.833L142.623,77.833L142.985,77.833L160.361,77.833L160.542,77.833L160.73,77.833L160.904,77.833L161.085,77.833L161.447,77.833L161.628,77.833L161.813,77.833L161.99,77.833L162.171,77.833L162.533,77.833L162.714,77.833L162.896,77.833L163.076,77.833L163.257,77.833L163.619,77.833L163.8,77.833L163.983,77.833L164.162,77.833L164.343,77.833L164.705,77.833L164.886,77.833L165.07,77.833L165.248,77.833L165.429,77.833L165.791,77.833L165.972,77.833L166.156,77.833L166.334,77.833L166.515,77.833L166.877,77.833L167.058,77.833L167.242,77.833L167.42,77.833L167.601,77.833L167.963,77.833L168.144,77.833L168.329,77.833L168.506,77.833L168.687,77.833L169.049,77.833L169.23,77.833L169.414,77.833L169.592,77.833L169.773,77.833L170.135,77.833L170.316,77.833L170.499,77.833L170.678,77.833L170.859,77.833L171.221,77.833L171.402,77.833L171.585,77.833L171.764,77.833L171.945,77.833L172.307,77.833L172.488,77.833L172.672,77.833L172.85,77.833L173.031,77.833L173.393,77.833L173.574,77.833L173.758,77.833L173.936,77.833L174.117,77.833L174.479,77.833L174.66,77.833L174.844,77.833L175.022,77.833L175.203,77.833L175.565,77.833L175.746,77.833L175.93,77.833L176.108,77.833L176.289,77.833L176.651,77.833L176.832,77.833L177.016,77.833L177.194,77.833L177.375,77.833L177.737,77.833L177.918,77.833L178.101,77.833L178.28,77.833L178.461,77.833L178.823,77.833L179.004,77.833L179.187,77.833L179.366,77.833L179.547,77.833L179.909,77.833L180.09,77.833L180.275,77.833L180.452,77.833L180.633,77.833L180.995,77.833L181.176,77.833L181.36,77.833L181.538,77.833L181.719,77.833L182.081,90.056L182.262,90.056L182.446,90.056L182.624,90.056L182.805,90.056L183.167,77.833L183.348,77.833L183.532,77.833L183.71,77.833L183.891,77.833L184.253,77.833L184.434,77.833L184.618,77.833L184.796,77.833L184.977,77.833L185.339,77.833L185.52,77.833L185.703,77.833L185.882,77.833L186.063,77.833L186.425,77.833L186.606,77.833L186.789,77.833L186.968,77.833L187.149,77.833L187.511,77.833L187.692,77.833L187.877,77.833L188.054,77.833L188.235,77.833L188.597,77.833L188.778,77.833L188.962,77.833L189.14,77.833L189.321,77.833L189.683,77.833L189.864,77.833L190.049,77.833L190.226,77.833L190.407,77.833L190.769,77.833L190.95,77.833L191.134,77.833L191.312,77.833L191.493,77.833L191.855,77.833L192.036,77.833L192.22,77.833L192.398,77.833L192.579,77.833L192.941,77.833L193.122,77.833L193.305,77.833L193.484,77.833L193.665,77.833L194.027,77.833L194.208,77.833L194.391,77.833L194.57,77.833L194.751,77.833L195.113,77.833L195.294,77.833L195.479,77.833L195.656,77.833L195.837,77.833L196.199,77.833L196.38,77.833L196.564,77.833L196.742,77.833L196.923,77.833L197.285,77.833L197.466,77.833L197.65,77.833L197.828,77.833L198.009,77.833L198.371,77.833L198.552,77.833L198.735,77.833L198.914,77.833L199.095,77.833L199.457,77.833L199.638,77.833L199.823,77.833L200,77.833" stroke="#72b7b2" stroke-width="2"/></g></g><path class="foreground" aria-hidden="true" d="" display="none"/></g><g transform="translate(0,0)"><path class="background" aria-hidden="true" d="M0,0h200v200h-200Z"/><g><g class="mark-line role-mark child_marks" role="graphics-object" aria-roledescription="line mark container"><path aria-label="Time: Dec 18, 2023; Price: 5845; item: PONCHO_-_Peignoir_-_dark_blue" role="graphics-symbol" aria-roledescription="line mark" d="M119.461,135.056L120.903,135.056L123.618,125.056L124.704,125.056L125.247,125.056L126.333,125.056L139.008,130.056" stroke="#9d755d" stroke-width="2"/></g></g><path class="foreground" aria-hidden="true" d="" display="none"/></g></g><g class="mark-group role-legend" role="graphics-symbol" aria-roledescription="legend" aria-label="Symbol legend titled 'item' for stroke color with 12 values: KUURA_3L_PONCHO_UNISEX_-_Veste_imperméable_-_green, DESCHUTES_VALLEY™_RAIN_PONCHO_-_Parka_-_black, DESCHUTES_VALLEY™_RAIN_PONCHO_-_Parka_-_vista_blue, K_ESSENTIAL_RAIN_PONCHO_UNISEX_-_Cape_-_black, PSG_M_NSW_CITY_MADE_PONCHO_-_Veste_de_survêtement_-_aura_white, ending with COVERO_PONCHO_II_-_Cape_-_lightgrey"><g transform="translate(220,0)"><path class="background" aria-hidden="true" d="M0,0h328v170h-328Z" pointer-events="none"/><g><g class="mark-group role-legend-entry"><g transform="translate(0,16)"><path class="background" aria-hidden="true" d="M0,0h0v0h0Z" pointer-events="none"/><g><g class="mark-group role-scope" role="graphics-object" aria-roledescription="group mark container"><g transform="translate(0,0)"><path class="background" aria-hidden="true" d="M0,0h328v11h-328Z" pointer-events="none" opacity="1"/><g><g class="mark-symbol role-legend-symbol" pointer-events="none"><path transform="translate(6,6)" d="M-5,0L5,0" stroke="#4c78a8" stroke-width="1.5" opacity="1"/></g><g class="mark-text role-legend-label" pointer-events="none"><text text-anchor="start" transform="translate(16,9)" font-family="Liberation Mono" font-size="10px" fill="#000" opacity="1">KUURA_3L_PONCHO_UNISEX_-_Veste_impermé…</text></g></g><path class="foreground" aria-hidden="true" d="" pointer-events="none" display="none"/></g><g transform="translate(0,13)"><path class="background" aria-hidden="true" d="M0,0h328v11h-328Z" pointer-events="none" opacity="1"/><g><g class="mark-symbol role-legend-symbol" pointer-events="none"><path transform="translate(6,6)" d="M-5,0L5,0" stroke="#f58518" stroke-width="1.5" opacity="1"/></g><g class="mark-text role-legend-label" pointer-events="none"><text text-anchor="start" transform="translate(16,9)" font-family="Liberation Mono" font-size="10px" fill="#000" opacity="1">DESCHUTES_VALLEY™_RAIN_PONCHO_-_Parka_…</text></g></g><path class="foreground" aria-hidden="true" d="" pointer-events="none" display="none"/></g><g transform="translate(0,26)"><path class="background" aria-hidden="true" d="M0,0h328v11h-328Z" pointer-events="none" opacity="1"/><g><g class="mark-symbol role-legend-symbol" pointer-events="none"><path transform="translate(6,6)" d="M-5,0L5,0" stroke="#e45756" stroke-width="1.5" opacity="1"/></g><g class="mark-text role-legend-label" pointer-events="none"><text text-anchor="start" transform="translate(16,9)" font-family="Liberation Mono" font-size="10px" fill="#000" opacity="1">DESCHUTES_VALLEY™_RAIN_PONCHO_-_Parka_…</text></g></g><path class="foreground" aria-hidden="true" d="" pointer-events="none" display="none"/></g><g transform="translate(0,39)"><path class="background" aria-hidden="true" d="M0,0h328v11h-328Z" pointer-events="none" opacity="1"/><g><g class="mark-symbol role-legend-symbol" pointer-events="none"><path transform="translate(6,6)" d="M-5,0L5,0" stroke="#72b7b2" stroke-width="1.5" opacity="1"/></g><g class="mark-text role-legend-label" pointer-events="none"><text text-anchor="start" transform="translate(16,9)" font-family="Liberation Mono" font-size="10px" fill="#000" opacity="1">K_ESSENTIAL_RAIN_PONCHO_UNISEX_-_Cape_…</text></g></g><path class="foreground" aria-hidden="true" d="" pointer-events="none" display="none"/></g><g transform="translate(0,52)"><path class="background" aria-hidden="true" d="M0,0h328v11h-328Z" pointer-events="none" opacity="1"/><g><g class="mark-symbol role-legend-symbol" pointer-events="none"><path transform="translate(6,6)" d="M-5,0L5,0" stroke="#54a24b" stroke-width="1.5" opacity="1"/></g><g class="mark-text role-legend-label" pointer-events="none"><text text-anchor="start" transform="translate(16,9)" font-family="Liberation Mono" font-size="10px" fill="#000" opacity="1">PSG_M_NSW_CITY_MADE_PONCHO_-_Veste_de_…</text></g></g><path class="foreground" aria-hidden="true" d="" pointer-events="none" display="none"/></g><g transform="translate(0,65)"><path class="background" aria-hidden="true" d="M0,0h328v11h-328Z" pointer-events="none" opacity="1"/><g><g class="mark-symbol role-legend-symbol" pointer-events="none"><path transform="translate(6,6)" d="M-5,0L5,0" stroke="#eeca3b" stroke-width="1.5" opacity="1"/></g><g class="mark-text role-legend-label" pointer-events="none"><text text-anchor="start" transform="translate(16,9)" font-family="Liberation Mono" font-size="10px" fill="#000" opacity="1">HIKING_BACKPACK_PONCHO_-_Veste_impermé…</text></g></g><path class="foreground" aria-hidden="true" d="" pointer-events="none" display="none"/></g><g transform="translate(0,78)"><path class="background" aria-hidden="true" d="M0,0h328v11h-328Z" pointer-events="none" opacity="1"/><g><g class="mark-symbol role-legend-symbol" pointer-events="none"><path transform="translate(6,6)" d="M-5,0L5,0" stroke="#b279a2" stroke-width="1.5" opacity="1"/></g><g class="mark-text role-legend-label" pointer-events="none"><text text-anchor="start" transform="translate(16,9)" font-family="Liberation Mono" font-size="10px" fill="#000" opacity="1">PONCHO_-_Cape_-_lucid_blue</text></g></g><path class="foreground" aria-hidden="true" d="" pointer-events="none" display="none"/></g><g transform="translate(0,91)"><path class="background" aria-hidden="true" d="M0,0h328v11h-328Z" pointer-events="none" opacity="1"/><g><g class="mark-symbol role-legend-symbol" pointer-events="none"><path transform="translate(6,6)" d="M-5,0L5,0" stroke="#ff9da6" stroke-width="1.5" opacity="1"/></g><g class="mark-text role-legend-label" pointer-events="none"><text text-anchor="start" transform="translate(16,9)" font-family="Liberation Mono" font-size="10px" fill="#000" opacity="1">HIKING_BACKPACK_PONCHO_-_Veste_impermé…</text></g></g><path class="foreground" aria-hidden="true" d="" pointer-events="none" display="none"/></g><g transform="translate(0,104)"><path class="background" aria-hidden="true" d="M0,0h328v11h-328Z" pointer-events="none" opacity="1"/><g><g class="mark-symbol role-legend-symbol" pointer-events="none"><path transform="translate(6,6)" d="M-5,0L5,0" stroke="#9d755d" stroke-width="1.5" opacity="1"/></g><g class="mark-text role-legend-label" pointer-events="none"><text text-anchor="start" transform="translate(16,9)" font-family="Liberation Mono" font-size="10px" fill="#000" opacity="1">PONCHO_-_Peignoir_-_dark_blue</text></g></g><path class="foreground" aria-hidden="true" d="" pointer-events="none" display="none"/></g><g transform="translate(0,117)"><path class="background" aria-hidden="true" d="M0,0h328v11h-328Z" pointer-events="none" opacity="1"/><g><g class="mark-symbol role-legend-symbol" pointer-events="none"><path transform="translate(6,6)" d="M-5,0L5,0" stroke="#bab0ac" stroke-width="1.5" opacity="1"/></g><g class="mark-text role-legend-label" pointer-events="none"><text text-anchor="start" transform="translate(16,9)" font-family="Liberation Mono" font-size="10px" fill="#000" opacity="1">PARIS_ST._GERMAIN_CITY_MADE_PONCHO_-_V…</text></g></g><path class="foreground" aria-hidden="true" d="" pointer-events="none" display="none"/></g><g transform="translate(0,130)"><path class="background" aria-hidden="true" d="M0,0h328v11h-328Z" pointer-events="none" opacity="1"/><g><g class="mark-symbol role-legend-symbol" pointer-events="none"><path transform="translate(6,6)" d="M-5,0L5,0" stroke="#4c78a8" stroke-width="1.5" opacity="1"/></g><g class="mark-text role-legend-label" pointer-events="none"><text text-anchor="start" transform="translate(16,9)" font-family="Liberation Mono" font-size="10px" fill="#000" opacity="1">SHOWERPROOF_PONCHO_UNISEX_-_Cape_-_cla…</text></g></g><path class="foreground" aria-hidden="true" d="" pointer-events="none" display="none"/></g><g transform="translate(0,143)"><path class="background" aria-hidden="true" d="M0,0h328v11h-328Z" pointer-events="none" opacity="1"/><g><g class="mark-symbol role-legend-symbol" pointer-events="none"><path transform="translate(6,6)" d="M-5,0L5,0" stroke="#f58518" stroke-width="1.5" opacity="1"/></g><g class="mark-text role-legend-label" pointer-events="none"><text text-anchor="start" transform="translate(16,9)" font-family="Liberation Mono" font-size="10px" fill="#000" opacity="1">COVERO_PONCHO_II_-_Cape_-_lightgrey</text></g></g><path class="foreground" aria-hidden="true" d="" pointer-events="none" display="none"/></g></g></g><path class="foreground" aria-hidden="true" d="" pointer-events="none" display="none"/></g></g><g class="mark-text role-legend-title" pointer-events="none"><text text-anchor="start" transform="translate(0,9)" font-family="Liberation Mono" font-size="11px" font-weight="bold" fill="#000" opacity="1">item</text></g></g><path class="foreground" aria-hidden="true" d="" pointer-events="none" display="none"/></g></g></g><path class="foreground" aria-hidden="true" d="" display="none"/></g></g></g><path class="foreground" aria-hidden="true" d="" display="none"/></g></g></g></svg>