<svg xmlns="http://www.w3.org/2000/svg" xmlns:xlink="http://www.w3.org/1999/xlink" version="1.1" class="marks" width="658" height="244" viewBox="0 0 658 244"><rect width="658" height="244" fill="white"/><g fill="none" stroke-miterlimit="10" transform="translate(104,6)"><g class="mark-group role-frame root" role="graphics-object" aria-roledescription="group mark container"><g transform="translate(0,0)"><path class="background" aria-hidden="true" d="M0,0h0v0h0Z"/><g><g class="mark-group role-row-title row-title" role="graphics-object" aria-roledescription="group mark container"><g transform="translate(-78,116)"><path class="background" aria-hidden="true" d="M0,0h0v0h0Z"/><g><g class="mark-group role-title"><g transform="translate(-21.000000000000004,0)"><path class="background" aria-hidden="true" d="M0,0h0v0h0Z" pointer-events="none"/><g><g class="mark-text role-title-text" role="graphics-symbol" aria-roledescription="title" aria-label="Title text 'group'" pointer-events="none"><text text-anchor="middle" transform="translate(0,0) rotate(-90) translate(0,9)" font-family="Liberation Mono" font-size="11px" font-weight="bold" fill="#000" opacity="1">group</text></g></g><path class="foreground" aria-hidden="true" d="" pointer-events="none" display="none"/></g></g></g><path class="foreground" aria-hidden="true" d="" display="none"/></g></g><g class="mark-group role-row-header row_header" role="graphics-object" aria-roledescription="group mark container"><g transform="translate(-47,0)"><path class="background" aria-hidden="true" d="M0,0h0v200h0Z"/><g><g class="mark-group role-title"><g transform="translate(-20.000000000000007,100)"><path class="background" aria-hidden="true" d="M0,0h0v0h0Z" pointer-events="none"/><g><g class="mark-text role-title-text" role="graphics-symbol" aria-roledescription="title" aria-label="Title text 'zalando-poncho'" pointer-events="none"><text text-anchor="middle" transform="translate(0,0) rotate(-90) translate(0,8)" font-family="Liberation Mono" font-size="10px" fill="#000" opacity="1">zalando-poncho</text></g></g><path class="foreground" aria-hidden="true" d="" pointer-events="none" display="none"/></g></g></g><path class="foreground" aria-hidden="true" d="" display="none"/></g></g><g class="mark-group role-scope cell" role="graphics-object" aria-roledescription="group mark container"><g transform="translate(0,0)"><path class="background" aria-hidden="true" d="M0.5,0.5h200v200h-200Z" stroke="#ddd"/><g><g class="mark-group role-axis" aria-hidden="true"><g transform="translate(0.5,200.5)"><path class="background" aria-hidden="true" d="M0,0h0v0h0Z" pointer-events="none"/><g><g class="mark-rule role-axis-grid" pointer-events="none"><line transform="translate(2,-200)" x2="0" y2="200" stroke="#ddd" stroke-width="1" opacity="1"/><line transform="translate(39,-200)" x2="0" y2="200" stroke="#ddd" stroke-width="1" opacity="1"/><line transform="translate(78,-200)" x2="0" y2="200" stroke="#ddd" stroke-width="1" opacity="1"/><line transform="translate(116,-200)" x2="0" y2="200" stroke="#ddd" stroke-width="1" opacity="1"/><line transform="translate(155,-200)" x2="0" y2="200" stroke="#ddd" stroke-width="1" opacity="1"/><line transform="translate(194,-200)" x2="0" y2="200" stroke="#ddd" stroke-width="1" opacity="1"/></g></g><path class="foreground" aria-hidden="true" d="" pointer-events="none" display="none"/></g></g><g class="mark-group role-axis" aria-hidden="true"><g transform="translate(0.5,0.5)"><path class="background" aria-hidden="true" d="M0,0h0v0h0Z" pointer-events="none"/><g><g class="mark-rule role-axis-grid" pointer-events="none"><line transform="translate(0,200)" x2="200" y2="0" stroke="#ddd" stroke-width="1" opacity="1"/><line transform="translate(0,144)" x2="200" y2="0" stroke="#ddd" stroke-width="1" opacity="1"/><line transform="translate(0,89)" x2="200" y2="0" stroke="#ddd" stroke-width="1" opacity="1"/><line transform="translate(0,33)" x2="200" y2="0" stroke="#ddd" stroke-width="1" opacity="1"/></g></g><path class="foreground" aria-hidden="true" d="" pointer-events="none" display="none"/></g></g><g class="mark-group role-axis" role="graphics-symbol" aria-roledescription="axis" aria-label="X-axis titled 'Time' for a time scale with values from Wednesday, 30 August 2023, 12:58:24 PM to Monday, 05 February 2024, 8:50:21 PM"><g transform="translate(0.5,200.5)"><path class="background" aria-hidden="true" d="M0,0h0v0h0Z" pointer-events="none"/><g><g class="mark-rule role-axis-tick" pointer-events="none"><line transform="translate(2,0)" x2="0" y2="5" stroke="#888" stroke-width="1" opacity="1"/><line transform="translate(39,0)" x2="0" y2="5" stroke="#888" stroke-width="1" opacity="1"/><line transform="translate(78,0)" x2="0" y2="5" stroke="#888" stroke-width="1" opacity="1"/><line transform="translate(116,0)" x2="0" y2="5" stroke="#888" stroke-width="1" opacity="1"/><line transform="translate(155,0)" x2="0" y2="5" stroke="#888" stroke-width="1" opacity="1"/><line transform="translate(194,0)" x2="0" y2="5" stroke="#888" stroke-width="1" opacity="1"/></g><g class="mark-text role-axis-label" pointer-events="none"><text text-anchor="middle" transform="translate(1.8320024643542325,15)" font-family="Liberation Mono" font-size="10px" fill="#000" opacity="1">September</text><text text-anchor="middle" transform="translate(39.49022728792449,15)" font-family="Liberation Mono" font-size="10px" fill="#000" opacity="0">October</text><text text-anchor="middle" transform="translate(78.40372627228042,15)" font-family="Liberation Mono" font-size="10px" fill="#000" opacity="1">November</text><text text-anchor="middle" transform="translate(116.06195109585069,15)" font-family="Liberation Mono" font-size="10px" fill="#000" opacity="0">December</text><text text-anchor="middle" transform="translate(154.9754500802066,15)" font-family="Liberation Mono" font-size="10px" fill="#000" opacity="1">2024</text><text text-anchor="middle" transform="translate(193.88894906456255,15)" font-family="Liberation Mono" font-size="10px" fill="#000" opacity="0">February</text></g><g class="mark-rule role-axis-domain" pointer-events="none"><line transform="translate(0,0)" x2="200" y2="0" stroke="#888" stroke-width="1" opacity="1"/></g><g class="mark-text role-axis-title" pointer-events="none"><text text-anchor="middle" transform="translate(100,30)" font-family="Liberation Mono" font-size="11px" font-weight="bold" fill="#000" opacity="1">Time</text></g></g><path class="foreground" aria-hidden="true" d="" pointer-events="none" display="none"/></g></g><g class="mark-group role-axis" role="graphics-symbol" aria-roledescription="axis" aria-label="Y-axis titled 'Price' for a linear scale with values from 0 to 18,000"><g transform="translate(0.5,0.5)"><path class="background" aria-hidden="true" d="M0,0h0v0h0Z" pointer-events="none"/><g><g class="mark-rule role-axis-tick" pointer-events="none"><line transform="translate(0,200)" x2="-5" y2="0" stroke="#888" stroke-width="1" opacity="1"/><line transform="translate(0,144)" x2="-5" y2="0" stroke="#888" stroke-width="1" opacity="1"/><line transform="translate(0,89)" x2="-5" y2="0" stroke="#888" stroke-width="1" opacity="1"/><line transform="translate(0,33)" x2="-5" y2="0" stroke="#888" stroke-width="1" opacity="1"/></g><g class="mark-text role-axis-label" pointer-events="none"><text text-anchor="end" transform="translate(-7,203)" font-family="Liberation Mono" font-size="10px" fill="#000" opacity="1">0</text><text text-anchor="end" transform="translate(-7,147.44444444444443)" font-family="Liberation Mono" font-size="10px" fill="#000" opacity="1">50</text><text text-anchor="end" transform="translate(-7,91.88888888888889)" font-family="Liberation Mono" font-size="10px" fill="#000" opacity="1">100</text><text text-anchor="end" transform="translate(-7,36.33333333333333)" font-family="Liberation Mono" font-size="10px" fill="#000" opacity="1">150</text></g><g class="mark-rule role-axis-domain" pointer-events="none"><line transform="translate(0,200)" x2="0" y2="-200" stroke="#888" stroke-width="1" opacity="1"/></g><g class="mark-text role-axis-title" pointer-events="none"><text text-anchor="middle" transform="translate(-35,100) rotate(-90) translate(0,-2)" font-family="Liberation Mono" font-size="11px" font-weight="bold" fill="#000" opacity="1">Price</text></g></g><path class="foreground" aria-hidden="true" d="" pointer-events="none" display="none"/></g></g><g class="mark-group role-scope child_pathgroup" role="graphics-object" aria-roledescription="group mark container"><g transform="translate(0,0)"><path class="background" aria-hidden="true" d="M0,0h200v200h-200Z"/><g><g class="mark-line role-mark child_marks" role="graphics-object" aria-roledescription="line mark container"><path aria-label="Time: Aug 30, 2023; Price: 10795; item: DESCHUTES_VALLEY™_RAIN_PONCHO_-_Parka_-_black" role="graphics-symbol" aria-roledescription="line mark" d="M0,80.056L0.204,80.056L0.412,80.056L0.83,80.056L1.039,80.056L1.256,80.056L1.458,80.056L1.667,80.056L2.086,80.056L2.295,80.056L2.51,80.056L2.713,80.056L2.922,80.056L3.341,80.056L3.55,80.056L3.763,80.056L3.968,80.056L4.178,80.056L4.596,80.056L4.956,80.056L5.019,80.056L5.224,80.056L5.433,80.056L5.851,80.056L6.061,80.056L6.277,80.056L6.479,80.056L6.688,80.056L7.108,50.056L7.317,50.056L7.532,50.056L7.735,50.056L7.943,50.056L8.362,50.056L8.571,50.056L8.788,50.056L8.989,50.056L9.199,50.056L9.618,50.056L9.827,50.056L10.042,50.056L10.245,50.056L10.454,50.056L11.004,50.056L11.081,50.056L11.297,50.056L11.5,50.056L11.709,50.056L12.127,50.056L12.337,50.056L12.55,50.056L12.755,50.056L12.964,50.056L13.383,50.056L13.592,50.056L13.805,50.056L14.01,50.056L14.219,50.056L14.638,50.056L14.847,50.056L15.064,50.056L15.266,50.056L15.475,50.056L15.893,50.056L16.102,50.056L16.319,50.056L16.521,50.056L16.73,50.056L17.149,20.056L17.358,20.056L17.575,20.056L17.685,20.056L17.776,20.056L17.986,20.056L18.404,20.056L18.613,20.056L18.83,20.056L19.032,20.056L19.241,20.056L19.659,20.056L19.868,20.056L20.084,20.056L20.287,20.056L20.496,20.056L20.914,20.056L21.124,20.056L21.336,20.056L21.542,20.056L21.751,20.056L22.169,20.056L22.379,20.056L22.592,20.056L22.797,20.056L23.006,20.056L23.425,20.056L23.634,20.056L23.851,20.056L24.053,20.056L24.262,20.056L24.68,20.056L24.889,20.056L25.106,20.056L25.308,20.056L25.517,20.056L25.935,20.056L26.145,20.056L26.362,20.056L26.563,20.056L26.772,20.056L27.191,20.056L27.4,20.056L27.617,20.056L27.818,20.056L28.028,20.056L28.446,20.056L28.655,20.056L28.871,20.056L29.074,20.056L29.283,20.056L29.701,20.056L29.91,20.056L30.124,20.056L30.329,20.056L30.538,20.056L30.956,20.056L31.166,20.056L31.379,20.056L31.584,20.056L31.793,20.056L32.212,20.056L32.421,20.056L32.638,20.056L32.839,20.056L33.048,20.056L33.467,20.056L33.677,20.056L33.894,20.056L34.095,20.056L34.304,20.056L34.722,40.056L34.931,40.056L35.148,40.056L35.35,40.056L35.56,40.056L35.978,40.056L36.187,40.056L36.404,40.056L36.605,40.056L37.233,40.056L37.442,40.056L37.658,40.056L37.861,40.056L38.07,40.056L38.488,40.056L38.697,40.056L38.911,40.056L39.116,40.056L39.325,40.056L39.744,40.056L39.953,40.056L40.167,40.056L40.371,40.056L40.58,40.056L40.999,100.056L41.208,100.056L41.425,100.056L41.626,100.056L41.836,100.056L42.254,90.056L42.464,90.056L42.681,90.056L42.882,90.056L43.091,90.056L43.509,90.056L43.719,90.056L43.937,90.056L44.137,90.056L44.346,90.056L44.765,90.056L44.974,90.056L45.192,90.056L45.392,90.056L45.602,90.056L46.02,90.056L46.229,90.056L46.446,90.056L46.648,90.056L46.857,90.056L47.275,90.056L47.485,90.056L47.698,90.056L47.903,90.056L48.112,90.056L48.531,90.056L48.739,90.056L49.158,90.056L49.367,90.056L49.786,90.056L49.995,90.056L50.214,90.056L50.413,90.056L50.623,90.056L51.041,100.056L51.25,100.056L51.468,100.056L51.669,100.056L51.878,100.056L52.296,100.056L52.506,100.056L52.723,100.056L52.924,100.056L53.133,100.056L53.551,100.056L53.761,100.056L53.978,100.056L54.179,100.056L54.388,100.056L54.807,100.056L55.016,100.056L55.233,100.056L55.434,100.056L55.644,100.056L56.062,100.056L56.271,100.056L56.485,100.056L56.69,100.056L56.899,100.056L57.317,100.056L57.526,100.056L57.74,100.056L57.945,100.056L58.154,100.056L58.573,90.056L58.782,90.056L58.999,90.056L59.2,90.056L59.41,90.056L59.828,90.056L60.037,90.056L60.254,90.056L60.456,90.056L60.665,90.056L61.083,90.056L61.292,90.056L61.509,90.056L61.711,90.056L61.92,90.056L62.338,90.056L62.548,90.056L62.765,90.056L62.966,90.056L63.175,90.056L63.594,90.056L63.803,90.056L64.02,90.056L64.221,90.056L64.43,90.056L64.849,90.056L65.058,90.056L65.272,90.056L65.477,90.056L65.686,90.056L66.104,90.056L66.313,90.056L66.527,90.056L66.732,90.056L66.941,90.056L67.359,90.056L67.569,90.056L67.786,90.056L67.987,90.056L68.196,90.056L68.615,50.056L68.824,50.056L69.04,50.056L69.242,50.056L69.451,50.056L69.87,50.056L70.079,50.056L70.296,50.056L70.497,50.056L70.707,50.056L71.125,50.056L71.335,50.056L71.55,50.056L71.753,50.056L71.962,50.056L72.381,50.056L72.59,50.056L72.805,50.056L73.008,50.056L73.218,50.056L73.636,50.056L73.845,50.056L74.058,50.056L74.263,50.056L74.473,50.056L74.891,50.056L75.1,50.056L75.314,50.056L75.519,50.056L75.728,50.056L76.146,50.056L76.356,50.056L76.572,50.056L76.774,50.056L76.983,50.056L77.402,50.056L77.611,50.056L77.827,50.056L78.029,50.056L78.238,50.056L78.657,50.056L78.866,50.056L79.082,50.056L79.284,50.056L79.494,50.056L79.912,40.056L80.121,40.056L80.337,40.056L80.54,40.056L81.795,40.056L82.004,40.056L82.423,40.056L82.846,40.056L83.05,40.056L88.071,40.056L88.281,40.056L88.699,40.056L88.908,40.056L89.124,40.056L89.327,40.056L89.536,40.056L89.954,70.056L90.164,70.056L90.38,70.056L90.582,70.056L90.791,70.056L91.21,70.056L91.419,70.056L91.633,70.056L92.046,70.056L92.465,70.056L92.674,70.056L92.888,70.056L93.092,70.056L93.302,70.056L93.72,40.056L93.929,40.056L94.146,40.056L94.348,40.056L94.975,40.056L95.185,40.056L95.401,40.056L95.603,40.056L95.812,40.056L96.231,40.056L96.44,40.056L96.657,40.056L96.858,40.056L97.067,40.056L97.486,50.056L97.695,50.056L97.912,50.056L98.113,50.056L98.323,50.056L98.741,50.056L98.95,50.056L99.167,50.056L99.369,50.056L99.578,50.056L99.997,40.056L100.205,40.056L100.42,40.056L100.624,40.056L100.834,40.056L101.252,40.056L101.461,40.056L101.676,40.056L101.879,40.056L102.089,40.056L102.507,40.056L102.716,40.056L102.934,40.056L103.135,40.056L103.344,40.056L103.762,40.056L103.971,40.056L104.189,60.056L104.39,60.056L104.599,60.056L105.018,60.056L105.227,60.056L105.444,60.056L105.645,60.056L105.854,60.056L106.273,60.056L106.482,60.056L106.699,80.056L106.9,80.056L107.11,80.056L107.528,80.056L107.737,80.056L107.953,80.056L108.156,80.056L108.365,80.056L108.783,70.056L108.993,70.056L109.207,70.056L109.411,70.056L109.62,70.056L110.039,70.056L110.248,70.056L110.463,70.056L110.666,70.056L110.875,70.056L111.294,40.056L111.503,40.056L111.721,40.056L111.921,40.056L112.131,40.056L112.549,40.056L112.758,40.056L112.974,40.056L113.177,40.056L113.386,40.056L113.805,40.056L114.014,40.056L114.231,40.056L114.432,40.056L114.641,40.056L115.06,40.056L115.269,40.056L115.486,40.056L115.687,40.056L115.897,40.056L116.315,40.056L116.524,40.056L116.741,40.056L116.943,40.056L117.152,40.056L117.571,40.056L117.78,40.056L117.993,40.056L118.198,40.056L118.407,40.056L118.825,40.056L119.035,40.056L119.25,40.056L119.454,40.056L119.662,40.056L120.081,40.056L120.29,40.056L120.507,40.056L120.709,40.056L120.917,40.056L121.336,50.056L121.545,50.056L121.763,50.056L121.964,50.056L122.173,50.056L122.591,50.056L122.801,50.056L123.018,50.056L123.219,50.056L123.428,50.056L123.847,50.056L124.056,50.056L124.273,50.056L124.474,50.056L124.684,50.056L125.102,50.056L125.311,50.056L125.527,50.056L125.73,50.056L125.939,50.056L126.357,50.056L126.566,50.056L126.781,50.056L126.985,50.056L127.194,50.056L127.612,50.056L127.822,50.056L128.036,50.056L128.24,50.056L128.449,50.056L128.868,50.056L129.077,50.056L129.294,50.056L130.123,50.056L130.332,50.056L130.549,50.056L130.751,50.056L130.96,50.056L131.378,50.056L131.588,50.056L131.805,50.056L132.006,50.056L132.215,50.056L132.634,50.056L132.843,50.056L133.06,50.056L133.261,50.056L133.47,50.056L133.889,50.056L134.098,50.056L134.314,50.056L134.516,50.056L134.726,50.056L135.144,50.056L135.353,50.056L135.567,50.056L135.772,50.056L135.981,50.056L136.399,50.056L136.609,50.056L136.823,50.056L137.027,50.056L137.236,50.056L137.655,50.056L137.864,50.056L138.081,50.056L138.282,50.056L138.491,50.056L138.91,50.056L139.119,50.056L139.335,50.056L139.538,50.056L139.747,50.056L140.165,50.056L140.374,50.056L140.585,50.056L140.793,50.056L141.002,50.056L141.421,50.056L141.63,50.056L142.048,50.056L142.257,50.056L142.676,50.056L142.885,50.056L143.1,50.056L143.303,50.056L143.513,50.056L143.931,50.056L144.14,50.056L144.354,50.056L144.559,50.056L144.768,50.056L145.186,50.056L145.396,50.056L145.609,50.056L145.814,50.056L146.023,50.056L146.441,50.056L146.651,50.056L146.866,50.056L147.069,50.056L147.278,50.056L147.697,50.056L147.906,50.056L148.12,50.056L148.325,50.056L148.534,50.056L148.952,50.056L149.161,50.056L149.376,50.056L149.58,50.056L149.789,50.056L150.207,60.056L150.417,60.056L150.631,60.056L150.835,60.056L151.044,60.056L151.463,60.056L151.672,60.056L151.887,60.056L152.091,60.056L152.3,60.056L152.718,60.056L152.927,60.056L153.141,60.056L153.346,60.056L153.555,60.056L153.973,60.056L154.183,60.056L154.397,60.056L154.601,60.056L154.81,60.056L155.228,60.056L155.438,60.056L155.653,60.056L155.856,60.056L156.065,60.056L156.484,60.056L156.693,60.056L156.908,60.056L157.111,60.056L157.321,60.056L157.739,90.056L157.948,90.056L158.164,90.056L158.367,90.056L158.576,90.056L158.994,90.056L159.204,90.056L159.419,90.056L159.622,90.056L174.057,60.056L174.267,60.056L174.484,60.056L174.685,60.056L174.895,60.056L175.313,60.056L175.522,60.056L175.739,60.056L175.94,60.056L176.15,60.056L176.568,60.056L176.777,60.056L176.994,60.056L177.196,60.056L177.405,60.056L177.824,100.056L178.033,100.056L178.249,100.056L178.451,100.056L178.66,100.056L179.079,100.056L179.288,100.056L179.503,100.056" stroke="#f58518" stroke-width="2"/></g></g><path class="foreground" aria-hidden="true" d="" display="none"/></g><g transform="translate(0,0)"><path class="background" aria-hidden="true" d="M0,0h200v200h-200Z"/><g><g class="mark-line role-mark child_marks" role="graphics-object" aria-roledescription="line mark container"><path aria-label="Time: Aug 30, 2023; Price: 8995; item: HIKING_BACKPACK_PONCHO_-_Veste_imperméable_-_blue" role="graphics-symbol" aria-roledescription="line mark" d="M0,100.056L0.204,100.056L0.412,100.056L0.83,100.056L1.039,100.056L1.256,100.056L1.458,100.056L1.667,100.056L2.086,100.056L2.295,100.056L2.51,100.056L2.713,100.056L2.922,100.056L3.341,100.056L3.55,100.056L3.763,100.056L3.968,100.056L4.178,100.056L4.596,100.056L4.956,100.056L5.019,100.056L14.847,100.056L15.064,100.056L15.266,100.056L15.475,100.056L15.893,100.056L16.102,100.056L16.319,100.056L16.521,100.056L16.73,100.056L17.149,100.056L17.358,100.056L17.575,100.056L17.685,100.056L17.776,100.056L17.986,100.056L18.404,100.056L18.613,100.056L18.83,100.056L19.032,100.056L19.241,100.056L19.659,100.056L19.868,100.056L20.084,100.056L20.287,100.056L20.496,100.056L20.914,100.056L21.124,100.056L21.336,100.056L21.542,100.056L21.751,100.056L22.169,100.056L22.379,100.056L36.605,111.167L37.233,111.167L37.442,111.167L37.658,111.167L37.861,111.167L38.07,111.167L38.488,111.167L38.697,111.167L38.911,111.167L39.116,111.167L39.325,111.167L39.744,111.167L39.953,111.167L40.167,111.167L40.371,111.167L40.58,111.167L40.999,111.167L41.208,111.167L41.425,111.167L41.626,111.167L41.836,111.167L42.254,127.833L42.464,127.833L42.681,127.833L42.882,127.833L43.091,127.833L43.509,127.833L43.719,127.833L43.937,127.833L44.137,127.833L44.346,127.833L44.765,127.833L44.974,127.833L45.192,127.833L45.392,127.833L45.602,127.833L46.02,127.833L46.229,127.833L46.446,127.833L46.648,127.833L46.857,127.833L47.275,127.833L47.485,127.833L47.698,127.833L47.903,127.833L48.112,127.833L48.531,127.833L48.739,127.833L49.158,127.833L49.367,127.833L49.786,127.833" stroke="#54a24b" stroke-width="2"/></g></g><path class="foreground" aria-hidden="true" d="" display="none"/></g><g transform="translate(0,0)"><path class="background" aria-hidden="true" d="M0,0h200v200h-200Z"/><g><g class="mark-line role-mark child_marks" role="graphics-object" aria-roledescription="line mark container"><path aria-label="Time: Aug 30, 2023; Price: 16195; item: DESCHUTES_VALLEY™_RAIN_PONCHO_-_Parka_-_vista_blue" role="graphics-symbol" aria-roledescription="line mark" d="M0,20.056L0.204,20.056L0.412,20.056L0.83,20.056L1.039,20.056L1.256,20.056L1.458,20.056L1.667,20.056L2.086,20.056L2.295,20.056L2.51,20.056L2.713,20.056L2.922,20.056L3.341,20.056L3.55,20.056L3.763,20.056L3.968,20.056L4.178,20.056L4.596,20.056L4.956,20.056L5.019,20.056L5.224,20.056L5.433,20.056L5.851,20.056L6.061,20.056L6.277,20.056L6.479,20.056L6.688,20.056L7.108,80.056L7.317,80.056L7.532,80.056L7.735,80.056L7.943,80.056L8.362,80.056L8.571,80.056L8.788,80.056L8.989,80.056L9.199,80.056L9.618,80.056L9.827,80.056L10.042,80.056L10.245,80.056L10.454,80.056L11.004,80.056L11.081,80.056L11.297,80.056L11.5,80.056L11.709,80.056L12.127,80.056L12.337,80.056L12.55,80.056L12.755,80.056L12.964,80.056L13.383,80.056L13.592,80.056L13.805,80.056L14.01,80.056L14.219,80.056L14.638,80.056L14.847,80.056L15.064,80.056L15.266,80.056L15.475,80.056L15.893,80.056L16.102,80.056L16.319,80.056L16.521,80.056L16.73,80.056L17.149,20.056L17.358,20.056L17.575,20.056L17.685,20.056L17.776,20.056L17.986,20.056L18.404,20.056L18.613,20.056L18.83,20.056L19.032,20.056L19.241,20.056L19.659,20.056L19.868,20.056L20.084,20.056L20.287,20.056L20.496,20.056L20.914,20.056L21.124,20.056L21.336,20.056L21.542,20.056L21.751,20.056L22.169,20.056L22.379,20.056L22.592,20.056L22.797,20.056L23.006,20.056L23.425,20.056L23.634,20.056L23.851,20.056L24.053,20.056L24.262,20.056L24.68,20.056L24.889,20.056L25.106,20.056L25.308,20.056L25.517,20.056L25.935,20.056L26.145,20.056L26.362,20.056L26.563,20.056L26.772,20.056L27.191,20.056L27.4,20.056L27.617,20.056L27.818,20.056L28.028,20.056L28.446,20.056L28.655,20.056L28.871,20.056L29.074,20.056L29.283,20.056L29.701,20.056L29.91,20.056L30.124,20.056L30.329,20.056L30.538,20.056L30.956,20.056L31.166,20.056L31.379,20.056L31.584,20.056L31.793,20.056L32.212,20.056L32.421,20.056L32.638,20.056L32.839,20.056L33.048,20.056L33.467,20.056L33.677,20.056L33.894,20.056L34.095,20.056L34.304,20.056L34.722,40.056L34.931,40.056L35.148,40.056L35.35,40.056L35.56,40.056L35.978,40.056L36.187,40.056L36.404,40.056L36.605,40.056L37.233,40.056L37.442,40.056L37.658,40.056L37.861,40.056L38.07,40.056L38.488,40.056L38.697,40.056L38.911,40.056L39.116,40.056L39.325,40.056L39.744,40.056L39.953,40.056L40.167,40.056L40.371,40.056L40.58,40.056L40.999,90.056L41.208,90.056L41.425,90.056L41.626,90.056L41.836,90.056L42.254,40.056L42.464,40.056L42.681,40.056L42.882,40.056L43.091,40.056L43.509,40.056L43.719,40.056L43.937,40.056L44.137,40.056L44.346,40.056L44.765,40.056L44.974,40.056L45.192,40.056L45.392,40.056L45.602,40.056L46.02,40.056L46.229,40.056L46.446,40.056L46.648,40.056L46.857,40.056L47.275,40.056L47.485,40.056L47.698,40.056L47.903,40.056L48.112,40.056L48.531,40.056L48.739,40.056L49.158,40.056L49.367,40.056L49.786,40.056L49.995,40.056L50.214,40.056L50.413,40.056L50.623,40.056L51.041,90.056L51.25,90.056L51.468,90.056L51.669,90.056L51.878,90.056L52.296,90.056L52.506,90.056L52.723,90.056L52.924,90.056L53.133,90.056L53.551,90.056L53.761,90.056L53.978,90.056L54.179,90.056L54.388,90.056L54.807,90.056L55.016,90.056L55.233,90.056L55.435,90.056L55.644,90.056L56.062,40.056L56.271,40.056L56.485,40.056L56.69,40.056L56.899,40.056L57.317,40.056L57.526,40.056L57.74,40.056L57.945,40.056L58.154,40.056L58.573,100.056L58.782,100.056L58.999,100.056L59.2,100.056L59.41,100.056L59.828,100.056L60.037,100.056L60.254,100.056L60.456,100.056L60.665,100.056L61.083,100.056L61.292,100.056L61.509,100.056L61.711,100.056L61.92,100.056L62.338,100.056L62.548,100.056L62.765,100.056L62.966,100.056L63.175,100.056L63.594,100.056L63.803,100.056L64.02,100.056L64.221,100.056L64.43,100.056L64.849,100.056L65.058,100.056L65.272,100.056L65.477,100.056L65.686,100.056L66.104,100.056L66.313,100.056L66.527,100.056L66.732,100.056L66.941,100.056L67.359,100.056L67.569,100.056L67.786,100.056L67.987,100.056L68.196,100.056L68.615,40.056L68.824,40.056L69.04,40.056L69.242,40.056L69.451,40.056L69.87,40.056L70.079,40.056L70.296,40.056L70.497,40.056L70.707,40.056L71.125,40.056L71.335,40.056L71.55,40.056L71.753,40.056L71.962,40.056L72.381,40.056L72.59,40.056L72.805,40.056L73.008,40.056L73.218,40.056L73.636,40.056L73.845,40.056L74.058,40.056L74.263,40.056L74.473,40.056L74.891,40.056L75.1,40.056L75.314,40.056L75.519,40.056L75.728,40.056L76.146,40.056L76.356,40.056L76.572,40.056L76.774,40.056L76.983,40.056L77.402,40.056L77.611,40.056L77.827,40.056L78.029,40.056L78.238,40.056L78.657,40.056L78.866,40.056L79.082,40.056L79.284,40.056L79.494,40.056L79.912,40.056L80.121,40.056L80.337,40.056L80.54,40.056L80.749,40.056L81.167,40.056L81.377,40.056L81.594,40.056L81.795,40.056L82.004,40.056L82.423,40.056L82.632,40.056L82.846,40.056L83.05,40.056L83.26,40.056L83.678,40.056L83.887,40.056L84.101,40.056L84.306,40.056L84.515,40.056L84.933,40.056L85.143,40.056L85.36,40.056L85.561,40.056L85.77,40.056L86.189,40.056L86.398,40.056L86.614,40.056L86.816,40.056L87.025,40.056L87.444,40.056L87.653,40.056L87.869,40.056L88.071,40.056L88.281,40.056L88.699,40.056L88.908,40.056L89.124,40.056L89.327,40.056L89.536,40.056L89.954,40.056L90.164,40.056L90.38,40.056L90.582,40.056L90.791,40.056L91.21,40.056L91.419,40.056L91.633,40.056L92.046,40.056L92.465,40.056L92.674,40.056L92.888,40.056L93.092,40.056L93.302,40.056L93.72,40.056L93.929,40.056L94.146,40.056L94.348,40.056L94.975,40.056L95.185,40.056L95.401,40.056L95.603,40.056L95.812,40.056L96.231,40.056L96.44,40.056L96.657,40.056L96.858,40.056L97.067,40.056L97.486,120.056L97.695,120.056L97.912,120.056L98.113,120.056L98.323,120.056L98.741,120.056L98.95,120.056L99.167,120.056L99.369,120.056L99.578,120.056L99.997,40.056L100.205,40.056L100.42,40.056L100.624,40.056L100.834,40.056L101.252,40.056L101.461,40.056L101.676,40.056L101.879,40.056L102.089,40.056L102.507,50.056L102.716,50.056L102.934,70.056L103.135,70.056L103.344,70.056L103.762,70.056L103.971,70.056L104.189,70.056L104.39,70.056L104.599,70.056L105.018,70.056L105.227,70.056L105.444,70.056L105.645,70.056L105.854,70.056L106.273,120.056L106.482,120.056L106.699,120.056L106.9,120.056L107.11,120.056L107.528,120.056L107.737,120.056L107.953,120.056L108.156,120.056L108.365,120.056L108.783,120.056L108.993,120.056L109.207,120.056L109.411,120.056L109.62,120.056L110.039,120.056L110.248,120.056L110.463,120.056L110.666,120.056L110.875,120.056L111.294,40.056L111.503,40.056L111.721,40.056L111.921,40.056L112.131,40.056L112.549,40.056L112.758,40.056L112.974,40.056L113.177,40.056L113.386,40.056L113.805,40.056L114.014,40.056L114.231,40.056L114.432,40.056L114.641,40.056L115.06,40.056L115.269,40.056L115.486,40.056L115.687,40.056L115.897,40.056L116.315,40.056L116.524,40.056L116.741,40.056L116.943,40.056L117.152,40.056L117.571,40.056L117.78,40.056L117.993,40.056L118.198,40.056L118.407,40.056L118.825,40.056L119.035,40.056L119.25,40.056L119.454,40.056L119.662,40.056L120.081,40.056L120.29,40.056L120.507,40.056L120.709,40.056L120.917,40.056L121.336,100.056L121.545,100.056L121.763,100.056L121.964,100.056L122.173,100.056L122.591,100.056L122.801,100.056L123.018,100.056L123.219,100.056L123.428,100.056L123.847,100.056L124.056,100.056L124.273,100.056L124.474,100.056L124.684,100.056L125.102,100.056L125.311,100.056L125.527,100.056L125.73,100.056L125.939,100.056L126.357,100.056L126.566,100.056L126.781,100.056L126.985,100.056L127.194,100.056L127.612,100.056L127.822,100.056L128.036,100.056L128.24,100.056L128.449,100.056L128.868,100.056L129.077,100.056L129.294,100.056L129.495,100.056L129.705,100.056L130.123,100.056L130.332,100.056L130.549,100.056L130.751,100.056L130.96,100.056L131.378,100.056L131.588,100.056L131.805,100.056L132.006,100.056L132.215,100.056L132.634,100.056L132.843,100.056L133.06,100.056L133.261,100.056L133.47,100.056L133.889,100.056L134.098,100.056L134.314,100.056L134.516,100.056L134.726,100.056L135.144,100.056L135.353,100.056L135.567,100.056L135.772,100.056L135.981,100.056L136.399,90.056L136.609,90.056L136.823,90.056L137.027,90.056L137.236,90.056L137.655,90.056L137.864,90.056L138.081,90.056L138.282,90.056L138.491,90.056L138.91,90.056L139.119,90.056L139.335,90.056L139.538,90.056L139.747,90.056L140.165,90.056L140.374,90.056L140.585,90.056L140.793,90.056L141.002,90.056L141.421,60.056L141.63,60.056L142.048,60.056L142.257,60.056L142.676,60.056L142.885,60.056L143.1,60.056L143.303,60.056L143.513,60.056L143.931,60.056L144.14,60.056L144.354,60.056L144.559,60.056L144.768,60.056L145.186,60.056L145.396,60.056L145.609,60.056L145.814,60.056L146.023,60.056L146.441,60.056L146.651,60.056L146.866,60.056L147.069,60.056L147.278,60.056L147.697,60.056L147.906,60.056L148.12,60.056L148.325,60.056L148.534,60.056L148.952,60.056L149.161,60.056L149.376,60.056L149.58,60.056L149.789,60.056L150.207,60.056L150.417,60.056L150.631,60.056L150.835,60.056L151.044,60.056L151.463,60.056L151.672,60.056L151.887,60.056L152.091,60.056L152.3,60.056L152.718,60.056L152.927,60.056L153.141,60.056L153.346,60.056L153.555,60.056L153.973,60.056L154.183,60.056L154.397,60.056L154.601,60.056L154.81,60.056L155.228,60.056L155.438,60.056L155.653,60.056L155.856,60.056L156.065,60.056L156.484,60.056L156.693,60.056L156.908,60.056L157.111,60.056L157.321,60.056L157.739,90.056L157.948,90.056L158.164,90.056L158.367,90.056L158.576,90.056L158.994,90.056L159.204,90.056L159.419,90.056L159.622,90.056L159.831,90.056L160.249,90.056L160.459,90.056L160.675,90.056L160.877,90.056L161.086,90.056L161.505,100.056L161.714,100.056L161.93,100.056L162.132,100.056L162.342,100.056L162.76,90.056L162.969,90.056L163.185,90.056L163.388,90.056L163.597,90.056L164.016,100.056L164.225,100.056L164.441,100.056L164.643,100.056L164.852,100.056L165.271,100.056L165.48,100.056L165.701,100.056L165.898,100.056L166.108,100.056L166.526,100.056L166.735,100.056L166.952,100.056L167.154,100.056L167.363,100.056L167.781,90.056L167.99,90.056L168.207,90.056L168.409,90.056L168.618,90.056L169.037,90.056L169.246,90.056L169.462,90.056L169.664,90.056L169.873,90.056L170.292,90.056L170.501,90.056L170.716,90.056L170.919,90.056L171.129,90.056L171.547,100.056L171.756,100.056L171.971,100.056L172.175,100.056L172.384,100.056L172.802,90.056L173.012,90.056L173.229,90.056L173.43,90.056L173.639,90.056L174.057,100.056L174.267,100.056L174.484,100.056L174.685,100.056L174.895,100.056L175.313,100.056L175.522,100.056L175.739,100.056L175.94,100.056L176.15,100.056L176.568,100.056L176.777,100.056L176.994,100.056L177.196,100.056L177.405,100.056L177.824,100.056L178.033,100.056L178.249,100.056L178.451,100.056L178.66,100.056L179.079,100.056L179.288,100.056L179.503,100.056L179.706,100.056L179.916,100.056L180.543,100.056L180.758,100.056L180.962,100.056L181.171,100.056L181.589,100.056L181.799,100.056L182.016,100.056L182.217,100.056L182.426,100.056L182.845,130.056L183.054,130.056L183.271,130.056L183.472,130.056L183.681,130.056L184.1,130.056L184.309,130.056L184.526,130.056L184.728,130.056L184.937,130.056L185.355,130.056L185.564,130.056L185.781,130.056L185.983,130.056L186.192,130.056L186.61,130.056L186.82,130.056L187.033,130.056L187.238,130.056L187.447,130.056L187.866,130.056L188.075,130.056L188.286,130.056L188.493,130.056L188.702,130.056L189.121,130.056L189.33,130.056L189.542,130.056L189.749,130.056L189.958,130.056L190.376,60.056L190.585,60.056L190.798,60.056L191.004,60.056L191.213,60.056L191.631,60.056L191.841,60.056L192.054,60.056L192.259,80.056L192.468,80.056L192.887,80.056L193.096,80.056L193.309,100.056L193.514,100.056L193.724,100.056L194.142,60.056L194.351,60.056L194.565,60.056L194.77,60.056L194.979,60.056L195.397,60.056L195.606,60.056L195.82,60.056L196.025,60.056L196.234,60.056L196.652,60.056L196.862,60.056L197.073,60.056L197.28,60.056L197.489,60.056L197.908,60.056L198.117,60.056L198.329,60.056L198.535,60.056L198.745,60.056L199.163,60.056L199.372,60.056L199.586,60.056L199.791,60.056L200,60.056" stroke="#e45756" stroke-width="2"/></g></g><path class="foreground" aria-hidden="true" d="" display="none"/></g><g transform="translate(0,0)"><path class="background" aria-hidden="true" d="M0,0h200v200h-200Z"/><g><g class="mark-line role-mark child_marks" role="graphics-object" aria-roledescription="line mark container"><path aria-label="Time: Aug 30, 2023; Price: 5495; item: COVERO_PONCHO_II_-_Cape_-_lightgrey" role="graphics-symbol" aria-roledescription="line mark" d="M0,138.944L0.204,138.944L0.412,138.944L0.83,138.944L1.039,138.944L1.256,138.944L1.458,138.944L1.667,138.944L2.086,138.944L2.295,138.944L3.55,138.944L3.763,138.944L3.968,138.944L4.178,138.944L4.596,138.944L4.956,138.944L5.019,138.944L5.224,138.944L5.433,138.944L5.851,138.944L6.061,138.944L6.277,138.944L6.479,138.944L6.688,138.944L7.108,138.944L7.317,138.944L7.532,138.944L7.735,138.944L7.943,138.944L11.5,153.944L13.592,138.944L13.805,138.944L14.01,138.944L14.219,138.944L14.638,138.944L14.847,138.944L15.064,138.944L15.266,138.944L15.475,138.944L15.893,138.944L16.102,138.944L16.319,138.944L16.521,138.944L16.73,138.944L17.149,138.944L17.358,138.944L17.575,138.944L17.685,138.944L17.776,138.944L17.986,138.944L18.404,138.944L18.613,138.944L18.83,138.944L19.032,138.944L19.241,138.944L19.659,138.944L19.868,138.944L20.084,138.944L20.287,138.944L20.496,138.944L20.914,138.944L21.124,138.944L21.336,138.944L21.542,138.944L21.751,138.944L22.169,138.944L22.379,138.944L22.592,138.944L22.797,138.944L23.007,138.944L23.425,138.944L23.634,138.944L23.851,138.944L24.053,138.944L24.262,138.944L24.68,138.944L24.889,138.944L25.106,138.944L25.308,138.944L25.517,138.944L25.935,151.167L26.145,151.167L26.362,151.167L26.563,151.167L26.772,151.167L27.191,151.167L27.4,151.167L27.617,151.167L27.818,151.167L28.028,151.167L28.446,151.167L28.655,151.167L28.871,151.167L29.911,151.167L30.124,151.167L30.329,151.167L30.538,151.167L30.956,151.167L31.166,151.167L31.379,151.167L31.584,151.167L31.793,151.167L32.212,151.167L32.421,151.167L32.638,151.167L32.839,151.167L33.048,151.167L33.467,151.167L33.677,151.167L33.894,151.167L34.095,151.167L34.304,151.167L34.722,151.167L34.931,151.167L35.148,151.167L35.35,151.167L35.56,151.167L35.978,151.167L36.187,151.167L36.404,151.167L36.605,151.167L37.233,151.167L37.442,151.167L37.658,151.167L37.861,151.167L38.07,151.167L38.488,151.167L38.697,151.167L38.911,151.167L39.116,151.167L39.325,151.167L39.744,151.167L39.953,151.167L40.167,151.167L40.371,151.167L40.58,151.167L40.999,151.167L41.208,151.167L41.425,151.167L41.626,151.167L41.836,151.167L42.254,151.167L42.464,151.167L42.681,151.167L42.882,151.167L43.091,151.167L43.509,151.167L43.719,151.167L43.937,151.167L44.137,151.167L44.346,151.167L44.765,151.167L44.974,151.167L45.192,151.167L45.392,151.167L45.602,151.167L46.02,151.167L46.229,151.167L46.446,151.167L46.648,151.167L46.857,151.167L47.485,151.167L47.698,151.167L48.531,151.167L48.739,151.167L49.158,151.167L49.367,151.167L50.413,151.167L50.623,151.167L51.041,151.167L51.25,151.167L51.468,151.167L51.878,151.167L52.296,138.944L52.506,138.944L52.723,138.944L52.924,138.944L53.133,138.944L55.435,138.944L56.69,153.944L59.41,153.944L59.828,153.944L60.456,153.944L61.083,153.944L61.711,153.944L61.92,153.944L62.548,153.944L64.221,153.944L64.43,153.944L64.849,153.944L66.527,153.944L66.732,153.944L66.941,153.944L67.359,153.944L67.987,153.944L68.196,153.944L68.615,153.944L68.824,153.944L69.04,153.944L69.451,153.944L70.079,153.944L70.296,153.944L70.497,153.944L71.125,153.944L71.335,153.944L71.753,153.944L73.008,153.944L73.218,153.944L73.636,153.944L74.058,153.944L74.263,153.944L74.473,153.944L75.1,153.944L75.314,153.944L75.519,153.944L76.146,153.944L76.356,153.944L76.572,153.944L76.774,153.944L76.983,153.944L77.402,153.944L77.611,153.944L77.827,153.944L78.029,153.944L78.238,153.944L78.657,153.944L80.121,153.944L80.337,153.944L80.54,153.944L80.749,153.944L81.377,153.944L81.594,153.944L81.795,153.944L82.005,153.944L82.423,145.611L82.632,145.611L87.025,145.611L87.444,145.611L87.653,145.611L87.869,145.611L88.071,145.611L88.281,145.611L88.908,145.611L89.124,145.611L89.327,145.611L89.536,145.611L89.954,145.611L90.38,145.611L90.791,145.611L91.419,145.611L91.633,145.611L92.046,145.611L92.465,145.611L92.674,145.611L92.888,145.611L93.092,145.611L93.302,145.611L93.72,138.944L94.146,138.944L94.975,138.944L95.185,138.944L95.401,138.944L95.603,138.944L95.812,138.944L96.231,138.944L96.44,138.944L96.657,138.944L96.858,138.944L97.067,138.944L97.695,153.944L97.912,153.944L98.113,153.944L98.323,153.944L98.741,153.944L99.369,153.944L99.578,153.944L99.997,153.944L100.205,153.944L100.42,153.944L100.624,160.056L102.716,138.944L102.934,138.944L103.135,138.944L103.344,138.944L103.762,138.944L103.971,138.944L104.189,138.944L104.39,138.944L104.599,138.944L105.018,138.944L105.227,138.944L105.444,138.944L105.645,138.944L105.854,138.944L106.482,163.389L116.741,138.944L117.571,138.944L118.198,138.944L119.035,138.944L120.29,138.944L120.507,138.944L120.709,138.944L120.917,138.944L121.336,138.944L122.801,138.944L123.847,138.944L125.73,138.944L126.566,138.944L126.781,138.944L126.985,138.944L127.194,138.944L127.612,138.944L128.036,138.944L129.077,138.944L129.294,138.944L129.495,138.944L129.705,138.944L130.549,138.944L131.378,138.944L133.06,138.944L134.098,138.944L134.516,138.944L134.726,138.944L135.144,138.944L135.772,138.944L135.981,138.944L136.399,138.944" stroke="#f58518" stroke-width="2"/></g></g><path class="foreground" aria-hidden="true" d="" display="none"/></g><g transform="translate(0,0)"><path class="background" aria-hidden="true" d="M0,0h200v200h-200Z"/><g><g class="mark-line role-mark child_marks" role="graphics-object" aria-roledescription="line mark container"><path aria-label="Time: Sep 01, 2023; Price: 12995; item: KUURA_3L_PONCHO_UNISEX_-_Veste_imperméable_-_green" role="graphics-symbol" aria-roledescription="line mark" d="M2.922,55.611L3.341,55.611L3.55,55.611L3.763,55.611L6.061,55.611L6.277,55.611L6.479,55.611L6.688,55.611L7.108,11.167L7.317,11.167L7.532,11.167L7.735,11.167L7.943,11.167L8.362,11.167L8.571,11.167L8.788,11.167L8.989,11.167L9.199,11.167L9.618,11.167L9.827,11.167L10.042,11.167L10.245,11.167L10.454,11.167L11.004,11.167L11.081,11.167L11.297,11.167L11.5,11.167L11.709,11.167L12.127,11.167L12.337,11.167L12.55,11.167L12.755,11.167L12.964,11.167L13.383,11.167L13.592,11.167L13.805,11.167L14.01,11.167L14.219,11.167L14.638,11.167L14.847,11.167L15.064,11.167L15.266,11.167L15.893,11.167L16.102,11.167L16.319,11.167L16.521,11.167L16.73,11.167L21.336,22.278L21.542,22.278L21.751,22.278L22.169,22.278L22.379,22.278L22.592,22.278L22.797,22.278L23.007,22.278L23.425,22.278L23.634,22.278L23.851,22.278L24.889,22.278L25.106,22.278L25.308,22.278L25.517,22.278L25.935,22.278L26.145,22.278L42.882,22.278L43.091,22.278L43.509,22.278L43.719,22.278L43.937,22.278L44.137,22.278L44.346,22.278L44.765,22.278L44.974,22.278L45.192,22.278L45.392,22.278L45.602,22.278L46.02,22.278L46.229,22.278L46.446,22.278L46.648,22.278L46.857,22.278L47.275,22.278L47.485,22.278L47.698,22.278L47.903,22.278L48.112,22.278L67.359,22.278L67.569,22.278L67.786,22.278L67.987,22.278L68.196,22.278L68.615,22.278L68.824,22.278L69.04,22.278L69.242,22.278" stroke="#4c78a8" stroke-width="2"/></g></g><path class="foreground" aria-hidden="true" d="" display="none"/></g><g transform="translate(0,0)"><path class="background" aria-hidden="true" d="M0,0h200v200h-200Z"/><g><g class="mark-line role-mark child_marks" role="graphics-object" aria-roledescription="line mark container"><path aria-label="Time: Sep 14, 2023; Price: 6495; item: PARIS_ST._GERMAIN_CITY_MADE_PONCHO_-_Veste_de_survêtement_-_aura_white" role="graphics-symbol" aria-roledescription="line mark" d="M18.404,127.833L18.613,127.833L18.83,127.833L19.032,127.833L19.241,127.833L19.659,127.833L19.868,127.833L20.914,127.833L22.379,127.833L22.592,127.833L22.797,127.833L23.007,127.833L23.425,127.833L23.634,127.833L23.851,127.833L24.053,127.833L24.262,127.833L24.68,127.833L24.889,127.833L25.106,127.833L25.308,127.833L25.517,127.833L25.935,127.833L26.145,127.833L26.362,127.833L26.563,127.833L26.772,127.833L27.191,127.833L27.4,127.833L27.617,127.833L27.818,127.833L28.028,127.833L28.446,127.833L28.655,127.833L28.871,127.833L29.074,127.833L29.283,127.833L29.701,127.833L29.911,127.833L30.124,127.833L30.329,127.833L30.538,127.833L30.956,127.833L31.166,127.833L31.379,127.833L31.584,127.833L31.793,127.833L32.212,127.833L32.421,127.833L32.638,127.833L32.839,127.833L33.048,127.833L33.467,127.833L33.677,127.833L33.894,127.833" stroke="#bab0ac" stroke-width="2"/></g></g><path class="foreground" aria-hidden="true" d="" display="none"/></g><g transform="translate(0,0)"><path class="background" aria-hidden="true" d="M0,0h200v200h-200Z"/><g><g class="mark-line role-mark child_marks" role="graphics-object" aria-roledescription="line mark container"><path aria-label="Time: Sep 18, 2023; Price: 8995; item: HIKING_BACKPACK_PONCHO_-_Veste_imperméable_-_indian_red" role="graphics-symbol" aria-roledescription="line mark" d="M23.425,100.056L23.634,100.056L23.851,100.056L24.053,100.056L24.262,100.056L24.68,100.056L24.889,100.056L32.839,100.056L33.048,100.056L33.467,100.056L33.677,100.056L33.894,100.056L34.095,100.056L34.304,100.056L34.722,111.167L34.931,111.167L35.148,111.167L35.35,111.167L55.233,111.167L55.435,111.167L55.644,111.167L56.062,111.167L56.271,111.167L56.485,111.167L56.69,111.167L56.899,111.167L57.317,111.167L140.585,122.278L140.793,122.278L141.002,122.278L141.421,111.167L141.63,111.167" stroke="#b279a2" stroke-width="2"/></g></g><path class="foreground" aria-hidden="true" d="" display="none"/></g><g transform="translate(0,0)"><path class="background" aria-hidden="true" d="M0,0h200v200h-200Z"/><g><g class="mark-line role-mark child_marks" role="graphics-object" aria-roledescription="line mark container"><path aria-label="Time: Sep 26, 2023; Price: 6495; item: PSG_M_NSW_CITY_MADE_PONCHO_-_Veste_de_survêtement_-_aura_white" role="graphics-symbol" aria-roledescription="line mark" d="M34.095,127.833L34.304,127.833L34.722,91.167L34.931,91.167L35.148,91.167L35.35,91.167L35.56,91.167L35.978,91.167L36.187,91.167L36.404,91.167L36.605,91.167L37.233,91.167L37.442,91.167L37.658,91.167L37.861,91.167L38.07,91.167L38.488,91.167L38.697,91.167L38.911,91.167L39.116,91.167L39.325,91.167L39.744,91.167L39.953,91.167L40.167,91.167L40.371,91.167L40.58,91.167L40.999,127.833L41.208,127.833L41.425,127.833L41.626,127.833L41.836,127.833L42.254,127.833L42.464,127.833L42.681,127.833L42.882,127.833L43.091,127.833L43.509,127.833L43.719,127.833L43.937,127.833L44.137,127.833L44.346,127.833L44.765,127.833L44.974,127.833L45.192,127.833L45.392,127.833L45.602,127.833L46.02,127.833L46.229,127.833L46.446,127.833L46.648,127.833L46.857,127.833L47.275,127.833L47.485,127.833L47.698,127.833L47.903,127.833L48.112,127.833L48.531,127.833L48.739,127.833L49.158,127.833L49.367,127.833L49.786,127.833L49.995,127.833L50.214,127.833L50.413,127.833L50.623,127.833L51.041,84.5L51.25,84.5L51.468,84.5L51.878,84.5L52.296,84.5L52.506,84.5L52.723,84.5L52.924,84.5L53.133,84.5L53.551,84.5L53.761,84.5L54.807,84.5L55.435,84.5L56.69,127.833L57.317,127.833L58.782,127.833L58.999,127.833L66.941,127.833L67.359,127.833L67.569,127.833L67.786,127.833L68.824,127.833L69.04,127.833L70.497,127.833L70.707,127.833L71.55,127.833L71.962,127.833L72.381,127.833L72.805,127.833L73.845,127.833L74.473,127.833L74.891,127.833L75.1,127.833L75.314,127.833L75.728,127.833L76.356,127.833L76.983,127.833L77.402,127.833L77.611,127.833L77.827,127.833L78.029,127.833L78.238,127.833L78.657,127.833L78.866,127.833L79.082,127.833L79.284,127.833L79.494,127.833L79.912,127.833L80.121,127.833L80.337,127.833L80.54,127.833L80.749,127.833L81.167,127.833L81.377,127.833L81.594,127.833L81.795,127.833L82.004,127.833L82.423,127.833L82.632,127.833L82.846,127.833L83.05,127.833L83.26,127.833L83.678,127.833L83.887,127.833L84.101,127.833L84.306,127.833L84.515,127.833L84.933,127.833L85.143,127.833L85.36,127.833L85.561,127.833L85.77,127.833L86.189,127.833L86.398,127.833L86.614,127.833L86.816,127.833L87.025,127.833L87.444,127.833L87.869,127.833L88.071,127.833L88.281,127.833L89.124,127.833L89.327,127.833L89.954,84.5L90.38,84.5L90.791,84.5L92.046,84.5L93.302,84.5L94.146,127.833L94.975,127.833L95.185,127.833L95.401,127.833L95.812,127.833L96.231,127.833L96.44,127.833L96.657,127.833L96.858,127.833L97.695,156.722L100.205,127.833L100.42,127.833L101.252,127.833L103.344,105.611L103.762,105.611L105.444,105.611L105.645,105.611L106.482,148.944L109.62,148.944L110.039,148.944L112.131,120.056L112.549,127.833L113.386,127.833L114.231,127.833L115.486,127.833L115.897,127.833L116.741,91.167L117.571,91.167L118.198,91.167L119.035,127.833L120.507,91.167L122.801,127.833L125.73,127.833L126.781,127.833L127.194,127.833L128.036,127.833L129.077,127.833L129.294,127.833L129.495,127.833L129.705,127.833L130.123,127.833L130.332,127.833L130.549,127.833L130.751,127.833L130.96,127.833L131.378,127.833L134.098,127.833L134.516,127.833L134.726,127.833L135.144,127.833L135.772,127.833L136.609,120.056L136.823,120.056L137.027,120.056L137.236,120.056L137.655,120.056L138.081,120.056L138.491,120.056L138.91,120.056L139.119,120.056L139.335,120.056L139.538,120.056L139.747,120.056L140.165,120.056L140.375,120.056L140.585,120.056L140.793,120.056L141.002,120.056L141.421,98.944L142.048,98.944L142.676,98.944L142.885,98.944L143.1,98.944L143.303,98.944L143.513,98.944L143.931,98.944L144.14,98.944L144.354,98.944L144.559,98.944L144.768,98.944L145.186,98.944L145.396,98.944L145.609,98.944L145.814,98.944L146.023,98.944L146.441,98.944L146.651,98.944L146.866,98.944L147.069,98.944L147.278,98.944L147.697,98.944L147.906,98.944L148.325,98.944L148.534,98.944L148.952,98.944L149.161,98.944L149.376,98.944L149.789,98.944L150.417,98.944L150.631,98.944L150.835,98.944L151.463,98.944L152.091,98.944L152.718,98.944L152.927,98.944L153.141,98.944L153.555,98.944L153.973,98.944L154.397,98.944L154.601,98.944L154.81,98.944L155.228,98.944L155.438,98.944L155.653,98.944L155.856,98.944L156.065,98.944L156.484,98.944L157.111,98.944L157.739,120.056L157.948,120.056L158.367,120.056L158.576,120.056L158.994,120.056L159.419,120.056L159.622,120.056L159.831,120.056L160.459,120.056L160.675,120.056L160.877,120.056L161.086,120.056L161.505,120.056L161.714,120.056L161.93,120.056L162.132,120.056L162.342,120.056L162.76,120.056L162.969,120.056L163.185,120.056L163.388,120.056L163.597,120.056L164.016,120.056L164.441,120.056L164.852,120.056L165.271,120.056L166.108,120.056L166.735,120.056L167.99,120.056L168.207,120.056L168.409,120.056L168.618,120.056L169.037,120.056L169.246,120.056L169.462,120.056L169.664,120.056L169.873,120.056L170.292,120.056L170.501,120.056L170.716,120.056L170.919,120.056L171.129,120.056L171.547,120.056L172.384,120.056L173.229,98.944L173.639,98.944L174.895,98.944L175.739,98.944L176.778,98.944L176.994,98.944L177.196,98.944L177.405,98.944L177.824,98.944L178.033,98.944L178.249,98.944L178.451,98.944L178.66,98.944L179.079,98.944L179.288,98.944L179.503,98.944L179.706,98.944L179.916,98.944L180.543,98.944L180.758,98.944L180.962,98.944L181.171,98.944L181.589,98.944L181.799,98.944L182.016,98.944L182.217,98.944L182.426,98.944L182.845,98.944L183.054,98.944L183.271,98.944L183.472,98.944L183.681,98.944L184.1,98.944L184.309,98.944L184.526,98.944L184.728,98.944L184.937,98.944L185.355,98.944L185.564,98.944L185.781,98.944L185.983,98.944L186.192,98.944L186.61,98.944L186.82,98.944L187.033,98.944L187.238,98.944L187.447,98.944L187.866,98.944L188.075,98.944L188.286,98.944L188.493,98.944L188.702,98.944L189.121,98.944L189.33,98.944L189.542,98.944L189.749,98.944L189.958,98.944L190.376,98.944L190.585,98.944L190.798,98.944L191.004,98.944L191.213,98.944L191.631,98.944L191.841,98.944L192.054,98.944L192.259,98.944L192.468,98.944L192.887,98.944L193.096,98.944L193.309,98.944L193.514,98.944L193.724,98.944L194.142,98.944L194.351,98.944L194.565,98.944L194.77,98.944L194.979,98.944L195.397,98.944L195.606,98.944L195.82,98.944L196.025,98.944L196.234,98.944L196.652,98.944L196.862,98.944L197.073,98.944" stroke="#ff9da6" stroke-width="2"/></g></g><path class="foreground" aria-hidden="true" d="" display="none"/></g><g transform="translate(0,0)"><path class="background" aria-hidden="true" d="M0,0h200v200h-200Z"/><g><g class="mark-line role-mark child_marks" role="graphics-object" aria-roledescription="line mark container"><path aria-label="Time: Oct 12, 2023; Price: 4995; item: SHOWERPROOF_PONCHO_UNISEX_-_Cape_-_classic_tartan" role="graphics-symbol" aria-roledescription="line mark" d="M53.551,144.5L53.761,144.5L53.978,144.5L54.179,144.5L54.388,144.5L54.807,144.5L55.016,144.5L55.233,144.5L55.435,144.5L55.644,144.5L56.062,144.5L56.271,144.5L56.485,144.5L56.69,144.5L56.899,144.5L57.317,144.5L57.526,144.5L57.74,144.5L57.945,144.5L58.154,144.5L58.573,152.611L58.782,152.611L58.999,152.611L59.2,152.611L59.41,152.611L59.828,152.611L60.037,152.611L60.254,152.611L60.456,152.611L60.665,152.611L61.083,152.611L61.292,152.611L61.509,152.611L61.711,152.611L61.92,152.611L62.338,152.611L62.548,152.611L62.765,152.611L62.966,152.611L63.175,152.611L63.594,152.611L63.803,152.611L64.02,152.611L64.221,152.611L64.43,152.611L64.849,152.611L65.058,152.611L65.272,152.611L65.477,152.611L65.686,152.611L66.104,144.5L66.313,144.5L66.527,144.5L66.732,144.5L66.941,144.5L67.359,144.5L67.569,144.5L67.786,144.5L67.987,144.5L68.196,144.5L68.615,152.611L68.824,152.611L69.04,152.611L69.242,152.611L69.451,152.611L69.87,152.611L70.079,152.611L70.296,152.611L70.497,152.611L70.707,152.611L71.125,152.611L71.335,152.611L71.55,152.611L71.753,152.611L71.962,152.611L72.381,152.611L72.59,152.611L72.805,152.611L73.008,152.611L73.218,152.611L73.636,152.611L73.845,152.611L74.058,152.611L74.263,152.611L74.473,152.611L74.891,152.611L75.1,152.611L75.314,152.611L75.519,152.611L75.728,152.611L76.146,144.5L76.356,144.5L76.572,144.5L76.774,144.5L76.983,144.5L77.402,144.5L77.611,144.5L77.827,144.5L78.029,144.5L78.238,144.5L78.657,152.611L78.866,152.611L79.082,152.611L79.284,152.611L79.494,152.611L79.912,152.611L80.121,152.611L80.337,152.611L80.54,152.611L80.749,152.611L81.167,152.611L81.377,152.611L81.594,152.611L81.795,152.611L82.004,152.611L82.423,152.611L82.632,152.611L82.846,152.611L83.05,152.611L83.26,152.611L83.678,152.611L83.887,152.611L84.101,152.611L84.306,152.611L84.515,152.611L84.933,152.611L85.143,152.611L85.36,152.611L85.561,152.611L85.77,152.611L86.189,150.056L86.398,144.5L86.614,144.5L86.816,144.5L87.025,144.5L87.444,144.5L87.653,144.5L87.869,144.5L88.071,144.5L88.281,144.5L88.699,144.5L88.908,144.5L89.124,144.5L89.327,144.5L89.536,144.5L89.954,144.5L90.164,144.5L90.38,144.5L90.582,144.5L90.791,144.5L91.21,144.5L91.419,144.5L91.633,144.5L92.046,144.5L92.465,144.5L92.674,144.5L92.888,144.5L93.092,144.5L93.302,144.5L93.72,144.5L93.929,144.5L94.146,144.5L94.348,144.5L94.975,144.5L95.185,144.5L95.401,144.5L95.603,144.5L95.812,144.5L96.231,144.5L96.44,144.5L96.657,144.5L96.858,144.5L97.067,144.5L97.486,144.5L97.695,144.5L97.912,144.5L98.113,144.5L98.323,144.5L98.741,144.5L98.95,144.5L99.167,144.5L99.369,144.5L99.578,144.5L99.997,144.5L100.205,144.5L100.42,144.5L100.624,144.5L100.834,144.5L101.252,144.5L101.461,144.5L101.676,144.5L101.879,144.5L102.089,144.5L102.507,144.5L102.716,144.5L102.934,144.5L103.135,144.5L103.344,144.5L103.762,144.5L103.971,144.5L104.189,144.5L104.39,144.5L104.599,144.5L105.018,144.5L105.227,144.5L105.444,144.5L105.645,144.5L105.854,144.5L120.709,144.5L120.917,144.5L121.336,144.5L121.545,144.5L121.763,144.5L121.964,144.5L122.173,144.5L122.591,144.5L122.801,144.5L123.018,144.5L123.219,144.5L123.428,144.5L123.847,144.5L124.056,144.5L124.273,144.5L124.474,144.5L124.684,144.5L125.102,144.5L125.311,144.5L125.527,144.5L125.73,144.5L125.939,144.5L126.357,144.5L126.566,144.5L126.781,144.5L126.985,144.5L127.194,144.5L127.612,144.5L127.822,144.5L128.036,144.5L128.24,144.5L128.449,144.5L128.868,144.5L129.077,144.5L129.294,144.5L129.495,144.5L129.705,144.5L130.123,144.5L130.332,144.5L130.549,144.5L130.751,144.5L130.96,144.5L131.378,144.5L131.588,144.5L131.805,144.5L132.006,144.5L132.215,144.5L132.634,144.5L132.843,144.5L133.06,144.5L133.261,144.5L133.47,144.5L133.889,144.5L134.098,144.5L134.314,144.5L134.516,144.5L134.726,144.5L135.144,144.5L135.353,144.5L135.567,144.5L135.772,144.5L135.981,144.5L136.399,144.5L136.609,144.5L136.823,144.5L137.027,144.5L137.236,144.5L137.655,144.5L137.864,144.5L138.081,144.5L138.282,144.5L138.491,144.5L138.91,158.167L139.119,158.167L139.335,158.167L139.538,158.167L139.747,158.167L140.165,158.167L140.374,158.167L140.585,158.167L140.793,158.167L141.002,158.167L141.421,144.5L141.63,144.5L142.048,144.5L142.257,144.5L142.676,144.5L142.885,144.5L143.1,144.5L143.303,144.5L143.513,144.5L143.931,144.5L144.14,144.5L144.354,144.5L144.559,144.5L144.768,144.5L145.186,144.5L145.396,144.5L145.609,144.5L145.814,144.5L146.023,144.5L146.441,144.5L146.651,144.5L146.866,144.5L147.069,144.5L147.278,144.5L147.697,144.5L147.906,144.5L148.12,144.5L148.325,144.5L148.534,144.5L148.952,144.5L149.161,144.5L149.376,144.5L149.58,144.5L149.789,144.5L150.207,144.5L150.417,144.5L150.631,144.5L150.835,144.5L151.044,144.5L151.463,144.5L151.672,144.5L151.887,144.5L152.091,144.5L152.3,144.5L152.718,144.5L152.927,144.5L153.141,144.5L153.346,144.5L153.555,144.5L153.973,144.5L154.183,144.5L154.397,144.5L154.601,144.5L154.81,144.5L155.228,144.5L155.438,144.5L155.653,144.5L155.856,144.5L156.065,144.5L156.484,144.5L156.693,144.5L156.908,144.5L157.111,144.5L157.321,144.5L157.739,144.5L157.948,144.5L158.164,144.5L158.367,144.5L158.576,144.5L158.994,144.5L159.204,144.5L159.419,144.5L159.622,144.5L159.831,144.5L160.249,144.5L160.459,144.5L160.675,144.5L160.877,144.5L161.086,144.5L161.505,144.5L161.714,144.5L161.93,144.5L162.132,144.5L162.342,144.5L162.76,144.5L162.969,144.5L163.185,144.5L163.388,144.5L163.597,144.5L164.016,144.5L164.225,144.5L164.441,144.5L164.643,144.5L164.852,144.5L165.271,152.611L165.48,152.611L165.701,152.611L165.898,152.611L166.108,152.611L166.526,152.611L166.735,152.611L166.952,152.611L167.154,152.611L167.363,152.611L167.781,158.167L167.99,158.167L168.207,158.167L168.409,158.167L168.618,158.167L169.037,158.167L169.246,158.167L169.462,158.167L169.664,158.167L169.873,158.167L170.292,158.167L170.501,158.167L170.716,158.167L170.919,158.167L171.129,158.167L171.547,144.5L171.756,144.5L171.971,144.5L172.175,144.5L172.384,144.5L172.802,158.167L173.012,158.167L173.229,158.167L173.43,158.167L173.639,158.167L174.057,150.056L174.267,150.056L174.484,150.056L174.685,150.056L174.895,150.056L175.313,144.5L175.522,144.5L175.739,144.5L175.94,144.5L176.15,144.5L176.568,150.056L176.778,150.056L176.994,150.056L177.196,150.056L177.405,150.056L177.824,161.167L178.033,161.167L178.249,161.167L178.451,161.167L178.66,161.167L179.079,161.167L179.288,161.167L179.503,161.167L179.706,161.167L179.916,161.167L180.543,144.5L180.758,144.5L180.962,144.5L181.171,144.5L181.589,161.167L181.799,161.167L182.016,161.167L182.217,161.167L182.426,161.167L182.845,150.056L183.054,150.056L183.271,150.056L183.472,150.056L183.681,150.056L184.1,144.5L184.309,144.5L184.526,144.5L184.728,144.5L184.937,144.5L185.355,150.056L185.564,150.056L185.781,150.056L185.983,150.056L186.192,150.056L186.61,150.056L186.82,150.056L187.033,150.056L187.238,150.056L187.447,150.056L187.866,144.5L188.075,144.5L188.286,144.5L188.493,144.5L188.702,144.5L189.121,144.5L189.33,144.5L189.542,144.5L189.749,144.5L189.958,144.5L190.376,144.5L190.585,144.5L190.798,144.5L191.004,144.5L191.213,144.5L191.631,144.5L191.841,144.5L192.054,144.5L192.259,144.5L192.468,144.5L192.887,144.5L193.096,144.5L193.309,144.5L193.514,144.5L193.724,144.5L194.142,152.611L194.351,152.611L194.565,152.611L194.77,152.611L194.979,152.611L195.397,152.611L195.606,152.611L195.82,152.611L196.025,152.611L196.234,152.611L196.652,152.611L196.862,152.611L197.073,152.611L197.28,152.611L197.489,152.611L197.908,133.389L198.117,133.389L198.329,133.389L198.535,133.389L198.745,133.389L199.163,133.389L199.372,133.389L199.586,133.389L199.791,133.389L200,133.389" stroke="#4c78a8" stroke-width="2"/></g></g><path class="foreground" aria-hidden="true" d="" display="none"/></g><g transform="translate(0,0)"><path class="background" aria-hidden="true" d="M0,0h200v200h-200Z"/><g><g class="mark-line role-mark child_marks" role="graphics-object" aria-roledescription="line mark container"><path aria-label="Time: Oct 12, 2023; Price: 13995; item: PONCHO_-_Cape_-_lucid_blue" role="graphics-symbol" aria-roledescription="line mark" d="M53.551,44.5L55.016,44.5L55.435,44.5L56.062,91.167L56.69,91.167L57.526,91.167L57.74,91.167L57.945,91.167L58.154,91.167L58.573,91.167L58.782,91.167L58.999,91.167L59.2,91.167L59.41,91.167L59.828,91.167L60.037,91.167L60.254,91.167L60.456,91.167L60.665,91.167L61.083,91.167L61.292,91.167L61.509,91.167L61.711,91.167L61.92,91.167L62.338,91.167L62.548,91.167L62.765,91.167L63.175,91.167L64.221,91.167L64.43,91.167L64.849,91.167L65.477,91.167L66.104,91.167L66.313,91.167L66.527,91.167L66.732,91.167L66.941,91.167L67.987,91.167L68.615,114.5L68.824,114.5L69.451,114.5L70.079,114.5L70.296,114.5L70.497,114.5L71.125,114.5L72.381,114.5L72.59,114.5L72.805,114.5L73.008,114.5L73.218,114.5L73.636,114.5L73.845,114.5L74.058,114.5L74.263,114.5L74.473,114.5L74.891,114.5L75.1,114.5L75.314,114.5L75.519,114.5L75.728,114.5L76.146,114.5L76.356,114.5L76.572,114.5L76.774,114.5L76.983,114.5L77.402,114.5L77.611,114.5L77.827,114.5L78.029,114.5L78.238,114.5L78.657,114.5L78.866,114.5L79.082,114.5L79.284,114.5L79.494,114.5L79.912,83.389L80.121,83.389L80.749,83.389L81.167,83.389L82.423,83.389L82.632,83.389L83.05,83.389L83.26,83.389L83.678,83.389L83.887,83.389L84.101,83.389L84.306,83.389L84.515,83.389L84.933,83.389L85.143,83.389L85.77,83.389L86.189,44.5L86.398,44.5L86.614,44.5L86.816,44.5L87.025,44.5L87.444,44.5L87.653,44.5L87.869,44.5L88.071,44.5L88.281,44.5L88.699,44.5L88.908,44.5L89.124,44.5L89.327,44.5L89.536,44.5L89.954,122.278L90.38,122.278L90.791,122.278L91.419,122.278L91.633,122.278L92.046,122.278L92.465,122.278L92.674,122.278L92.888,122.278L93.092,122.278L93.302,122.278L93.72,44.5L93.929,44.5L94.146,44.5L94.348,44.5L94.975,44.5L95.185,44.5L95.401,44.5L95.603,44.5L95.812,44.5L96.231,44.5L96.44,44.5L96.657,44.5L96.858,44.5L97.067,44.5L97.695,130.056L97.912,130.056L98.113,130.056L98.323,130.056L98.741,130.056L99.578,130.056L99.997,44.5L100.205,44.5L100.42,44.5L101.252,44.5L101.461,44.5L101.676,44.5L101.879,44.5L102.089,44.5L102.507,60.056L102.716,60.056L102.934,106.722L103.135,106.722L103.344,122.278L103.762,122.278L103.971,122.278L104.189,122.278L104.39,122.278L104.599,122.278L105.018,122.278L105.227,122.278L105.444,122.278L105.645,122.278L105.854,122.278L106.273,122.278L106.482,122.278L106.699,122.278L106.9,122.278L107.11,122.278L107.528,122.278L108.993,130.056L109.207,122.278L109.411,122.278L109.62,122.278L110.039,122.278L110.248,122.278L110.463,122.278L110.666,122.278L110.875,122.278L111.294,122.278L112.131,75.611L112.549,44.5L112.758,44.5L112.975,44.5L113.177,44.5L113.386,44.5L113.805,44.5L114.014,44.5L114.231,44.5L114.432,44.5L114.641,44.5L115.06,44.5L115.269,44.5L115.486,44.5L115.687,44.5L115.897,44.5L116.315,44.5L116.524,44.5L116.741,44.5L117.152,44.5L117.571,44.5L117.78,44.5L117.993,44.5L118.198,44.5L118.407,44.5L118.825,44.5L119.035,44.5L119.25,44.5L119.454,44.5L119.662,44.5L120.081,44.5L120.507,44.5L122.801,91.167L123.018,91.167L123.219,91.167L123.428,91.167L123.847,91.167L125.527,91.167L125.73,91.167L126.781,91.167L127.194,91.167L128.036,122.278L128.24,122.278L128.449,122.278L128.868,122.278L129.077,122.278L129.294,122.278L129.495,122.278L129.705,122.278L130.123,91.167L130.549,91.167L130.751,91.167L130.96,91.167L131.378,91.167L132.843,91.167L133.06,91.167L133.261,91.167L133.47,91.167L133.889,91.167L134.098,91.167L134.314,91.167L134.516,91.167L134.726,91.167L135.144,91.167L135.772,91.167L136.609,106.722L136.823,106.722L137.027,106.722L137.236,106.722L137.655,106.722L137.864,106.722L138.081,106.722L138.282,106.722L138.491,106.722L138.91,106.722L139.119,106.722L139.335,106.722L139.538,106.722L139.747,106.722L140.165,106.722L140.374,106.722L140.585,106.722L140.793,106.722L141.002,106.722L141.421,91.167L142.048,91.167L142.257,91.167L142.676,91.167L142.885,91.167L143.1,91.167L143.303,91.167L143.513,91.167L143.931,91.167L144.14,91.167L144.354,91.167L144.559,91.167L144.768,91.167L145.186,91.167L145.396,91.167L145.609,91.167L145.814,91.167L146.023,91.167L146.441,91.167L146.651,91.167L146.866,91.167L147.069,91.167L147.278,91.167L147.697,91.167L147.906,91.167L148.12,91.167L148.325,91.167L148.534,91.167L148.952,91.167L149.161,91.167L149.376,91.167L149.58,91.167L149.789,91.167L150.207,83.389L150.417,83.389L150.631,83.389L150.835,83.389L151.044,83.389L151.463,83.389L151.672,83.389L151.887,83.389L152.091,83.389L152.3,83.389L152.718,83.389L152.927,83.389L153.141,83.389L153.346,83.389L153.555,83.389L153.973,83.389L154.183,83.389L154.397,83.389L154.601,83.389L154.81,83.389L155.228,83.389L155.438,83.389L155.653,83.389L155.856,83.389L156.065,83.389L156.484,83.389L156.693,83.389L156.908,83.389L157.111,83.389L157.321,83.389L157.739,106.722L157.948,106.722L158.164,106.722L158.367,106.722L158.576,106.722L158.994,106.722L159.204,106.722L159.419,106.722L159.622,106.722L159.831,106.722L160.249,106.722L160.459,106.722L160.675,106.722L160.877,106.722L161.086,106.722L161.505,114.5L161.714,114.5L161.93,114.5L162.132,114.5L162.342,114.5L162.76,106.722L162.969,106.722L163.185,106.722L163.388,106.722L163.597,106.722L164.016,114.5L164.225,114.5L164.441,114.5L164.643,114.5L164.852,114.5L165.271,122.278L165.48,122.278L165.701,122.278L165.898,122.278L166.108,122.278L166.526,122.278L166.735,122.278L166.952,122.278L167.154,122.278L167.363,122.278L167.781,122.278L167.99,122.278L168.207,122.278L168.409,122.278L168.618,122.278L169.037,122.278L169.246,122.278L169.462,122.278L169.664,122.278L169.873,122.278L170.292,122.278L170.501,122.278L170.716,122.278L170.919,122.278L171.129,122.278L171.547,122.278L171.756,122.278L171.971,122.278L172.175,122.278L172.384,122.278L172.802,122.278L173.012,122.278L173.229,122.278L173.43,122.278L173.639,122.278L174.057,114.5L174.267,114.5L174.484,114.5L174.685,114.5L174.895,114.5L175.313,122.278L175.522,122.278L175.739,122.278L175.94,122.278L176.15,122.278L176.568,114.5L176.778,114.5L176.994,114.5L177.196,114.5L177.405,114.5L177.824,122.278L178.033,122.278L178.249,122.278L178.451,122.278L178.66,122.278L179.079,122.278L179.288,122.278L179.503,122.278L179.706,122.278L179.916,122.278L180.543,122.278L180.758,122.278L180.962,122.278L181.171,122.278L181.589,122.278L181.799,122.278L182.016,122.278L182.217,122.278L182.426,122.278L182.845,145.611L183.054,145.611L183.271,145.611L183.472,145.611L183.681,145.611L184.1,145.611L184.309,145.611L184.526,145.611L184.728,145.611L184.937,145.611L185.355,145.611L185.564,145.611L185.781,145.611L185.983,145.611L186.192,145.611L186.61,145.611L186.82,145.611L187.033,145.611L187.238,145.611L187.447,145.611L187.866,145.611L188.075,145.611L188.286,145.611L188.493,145.611L188.702,145.611L189.121,145.611L189.33,145.611L189.542,145.611L189.749,145.611L189.958,145.611L190.376,106.722L190.585,106.722L190.798,106.722L191.004,106.722L191.213,106.722L191.631,106.722L191.841,106.722L192.054,106.722L192.259,106.722L192.468,106.722L192.887,106.722L193.096,106.722L193.309,137.833L193.514,137.833L193.724,137.833L194.142,44.5L194.351,44.5L194.565,44.5L194.77,44.5L194.979,44.5L195.397,44.5L195.606,44.5L195.82,44.5L196.025,44.5L196.234,44.5L196.652,44.5L196.862,44.5L197.073,44.5L197.28,44.5L197.489,44.5L197.908,44.5L198.117,44.5L198.329,44.5L198.535,44.5L198.745,44.5L199.163,44.5L199.372,44.5" stroke="#eeca3b" stroke-width="2"/></g></g><path class="foreground" aria-hidden="true" d="" display="none"/></g><g transform="translate(0,0)"><path class="background" aria-hidden="true" d="M0,0h200v200h-200Z"/><g><g class="mark-line role-mark child_marks" role="graphics-object" aria-roledescription="line mark container"><path aria-label="Time: Dec 18, 2023; Price: 10995; item: K_ESSENTIAL_RAIN_PONCHO_UNISEX_-_Cape_-_black" role="graphics-symbol" aria-roledescription="line mark" d="M138.081,77.833L138.91,77.833L139.119,77.833L139.538,77.833L139.747,77.833L140.165,77.833L140.585,77.833L140.793,77.833L141.002,77.833L142.048,77.833L142.676,77.833L142.885,77.833L143.1,77.833L143.513,77.833L143.931,77.833L144.14,77.833L144.768,77.833L145.186,77.833L145.396,77.833L145.609,77.833L145.814,77.833L146.023,77.833L146.651,77.833L147.278,77.833L147.697,77.833L147.906,77.833L148.534,77.833L149.161,77.833L149.376,77.833L149.789,77.833L150.417,77.833L150.631,77.833L151.463,77.833L152.091,77.833L152.718,77.833L152.927,77.833L153.141,77.833L153.555,77.833L154.397,77.833L154.601,77.833L155.228,77.833L155.653,77.833L155.856,77.833L156.065,77.833L157.111,77.833L157.739,77.833L157.948,77.833L158.367,77.833L158.576,77.833L158.994,77.833L159.419,77.833L159.622,77.833L160.675,77.833L160.877,77.833L162.132,77.833L162.342,77.833L162.76,77.833L164.852,77.833L165.271,77.833L185.355,77.833L185.564,77.833L185.781,77.833L185.983,77.833L186.192,77.833L186.611,77.833L186.82,77.833L187.033,77.833L187.238,77.833L187.447,77.833L187.866,77.833L188.075,77.833L188.286,77.833L188.493,77.833L188.702,77.833L189.121,77.833L189.33,77.833L189.542,77.833L189.749,77.833L189.958,77.833L190.376,77.833L190.585,77.833L190.798,77.833L191.004,77.833L191.213,77.833L191.631,77.833L191.841,77.833L192.054,77.833L192.259,77.833L192.468,77.833L192.887,77.833L193.096,77.833L193.309,77.833L193.514,77.833L193.724,77.833L194.142,77.833L194.351,77.833L194.565,77.833L194.77,77.833L194.979,77.833L195.397,77.833L195.606,77.833L195.82,77.833L196.025,77.833L196.234,77.833L196.652,77.833L196.862,77.833L197.073,77.833L197.28,77.833L197.489,77.833L197.908,77.833L198.117,77.833L198.329,77.833L198.535,77.833L198.745,77.833L199.163,77.833L199.372,77.833L199.586,77.833L199.791,77.833L200,77.833" stroke="#72b7b2" stroke-width="2"/></g></g><path class="foreground" aria-hidden="true" d="" display="none"/></g><g transform="translate(0,0)"><path class="background" aria-hidden="true" d="M0,0h200v200h-200Z"/><g><g class="mark-line role-mark child_marks" role="graphics-object" aria-roledescription="line mark container"><path aria-label="Time: Dec 18, 2023; Price: 5845; item: PONCHO_-_Peignoir_-_dark_blue" role="graphics-symbol" aria-roledescription="line mark" d="M138.081,135.056L139.747,135.056L142.885,125.056L144.14,125.056L144.768,125.056L146.023,125.056L160.675,130.056" stroke="#9d755d" stroke-width="2"/></g></g><path class="foreground" aria-hidden="true" d="" display="none"/></g></g><g class="mark-group role-legend" role="graphics-symbol" aria-roledescription="legend" aria-label="Symbol legend titled 'item' for stroke color with 12 values: KUURA_3L_PONCHO_UNISEX_-_Veste_imperméable_-_green, DESCHUTES_VALLEY™_RAIN_PONCHO_-_Parka_-_black, DESCHUTES_VALLEY™_RAIN_PONCHO_-_Parka_-_vista_blue, K_ESSENTIAL_RAIN_PONCHO_UNISEX_-_Cape_-_black, HIKING_BACKPACK_PONCHO_-_Veste_imperméable_-_blue, ending with COVERO_PONCHO_II_-_Cape_-_lightgrey"><g transform="translate(220,0)"><path class="background" aria-hidden="true" d="M0,0h328v170h-328Z" pointer-events="none"/><g><g class="mark-group role-legend-entry"><g transform="translate(0,16)"><path class="background" aria-hidden="true" d="M0,0h0v0h0Z" pointer-events="none"/><g><g class="mark-group role-scope" role="graphics-object" aria-roledescription="group mark container"><g transform="translate(0,0)"><path class="background" aria-hidden="true" d="M0,0h328v11h-328Z" pointer-events="none" opacity="1"/><g><g class="mark-symbol role-legend-symbol" pointer-events="none"><path transform="translate(6,6)" d="M-5,0L5,0" stroke="#4c78a8" stroke-width="1.5" opacity="1"/></g><g class="mark-text role-legend-label" pointer-events="none"><text text-anchor="start" transform="translate(16,9)" font-family="Liberation Mono" font-size="10px" fill="#000" opacity="1">KUURA_3L_PONCHO_UNISEX_-_Veste_impermé…</text></g></g><path class="foreground" aria-hidden="true" d="" pointer-events="none" display="none"/></g><g transform="translate(0,13)"><path class="background" aria-hidden="true" d="M0,0h328v11h-328Z" pointer-events="none" opacity="1"/><g><g class="mark-symbol role-legend-symbol" pointer-events="none"><path transform="translate(6,6)" d="M-5,0L5,0" stroke="#f58518" stroke-width="1.5" opacity="1"/></g><g class="mark-text role-legend-label" pointer-events="none"><text text-anchor="start" transform="translate(16,9)" font-family="Liberation Mono" font-size="10px" fill="#000" opacity="1">DESCHUTES_VALLEY™_RAIN_PONCHO_-_Parka_…</text></g></g><path class="foreground" aria-hidden="true" d="" pointer-events="none" display="none"/></g><g transform="translate(0,26)"><path class="background" aria-hidden="true" d="M0,0h328v11h-328Z" pointer-events="none" opacity="1"/><g><g class="mark-symbol role-legend-symbol" pointer-events="none"><path transform="translate(6,6)" d="M-5,0L5,0" stroke="#e45756" stroke-width="1.5" opacity="1"/></g><g class="mark-text role-legend-label" pointer-events="none"><text text-anchor="start" transform="translate(16,9)" font-family="Liberation Mono" font-size="10px" fill="#000" opacity="1">DESCHUTES_VALLEY™_RAIN_PONCHO_-_Parka_…</text></g></g><path class="foreground" aria-hidden="true" d="" pointer-events="none" display="none"/></g><g transform="translate(0,39)"><path class="background" aria-hidden="true" d="M0,0h328v11h-328Z" pointer-events="none" opacity="1"/><g><g class="mark-symbol role-legend-symbol" pointer-events="none"><path transform="translate(6,6)" d="M-5,0L5,0" stroke="#72b7b2" stroke-width="1.5" opacity="1"/></g><g class="mark-text role-legend-label" pointer-events="none"><text text-anchor="start" transform="translate(16,9)" font-family="Liberation Mono" font-size="10px" fill="#000" opacity="1">K_ESSENTIAL_RAIN_PONCHO_UNISEX_-_Cape_…</text></g></g><path class="foreground" aria-hidden="true" d="" pointer-events="none" display="none"/></g><g transform="translate(0,52)"><path class="background" aria-hidden="true" d="M0,0h328v11h-328Z" pointer-events="none" opacity="1"/><g><g class="mark-symbol role-legend-symbol" pointer-events="none"><path transform="translate(6,6)" d="M-5,0L5,0" stroke="#54a24b" stroke-width="1.5" opacity="1"/></g><g class="mark-text role-legend-label" pointer-events="none"><text text-anchor="start" transform="translate(16,9)" font-family="Liberation Mono" font-size="10px" fill="#000" opacity="1">HIKING_BACKPACK_PONCHO_-_Veste_impermé…</text></g></g><path class="foreground" aria-hidden="true" d="" pointer-events="none" display="none"/></g><g transform="translate(0,65)"><path class="background" aria-hidden="true" d="M0,0h328v11h-328Z" pointer-events="none" opacity="1"/><g><g class="mark-symbol role-legend-symbol" pointer-events="none"><path transform="translate(6,6)" d="M-5,0L5,0" stroke="#eeca3b" stroke-width="1.5" opacity="1"/></g><g class="mark-text role-legend-label" pointer-events="none"><text text-anchor="start" transform="translate(16,9)" font-family="Liberation Mono" font-size="10px" fill="#000" opacity="1">PONCHO_-_Cape_-_lucid_blue</text></g></g><path class="foreground" aria-hidden="true" d="" pointer-events="none" display="none"/></g><g transform="translate(0,78)"><path class="background" aria-hidden="true" d="M0,0h328v11h-328Z" pointer-events="none" opacity="1"/><g><g class="mark-symbol role-legend-symbol" pointer-events="none"><path transform="translate(6,6)" d="M-5,0L5,0" stroke="#b279a2" stroke-width="1.5" opacity="1"/></g><g class="mark-text role-legend-label" pointer-events="none"><text text-anchor="start" transform="translate(16,9)" font-family="Liberation Mono" font-size="10px" fill="#000" opacity="1">HIKING_BACKPACK_PONCHO_-_Veste_impermé…</text></g></g><path class="foreground" aria-hidden="true" d="" pointer-events="none" display="none"/></g><g transform="translate(0,91)"><path class="background" aria-hidden="true" d="M0,0h328v11h-328Z" pointer-events="none" opacity="1"/><g><g class="mark-symbol role-legend-symbol" pointer-events="none"><path transform="translate(6,6)" d="M-5,0L5,0" stroke="#ff9da6" stroke-width="1.5" opacity="1"/></g><g class="mark-text role-legend-label" pointer-events="none"><text text-anchor="start" transform="translate(16,9)" font-family="Liberation Mono" font-size="10px" fill="#000" opacity="1">PSG_M_NSW_CITY_MADE_PONCHO_-_Veste_de_…</text></g></g><path class="foreground" aria-hidden="true" d="" pointer-events="none" display="none"/></g><g transform="translate(0,104)"><path class="background" aria-hidden="true" d="M0,0h328v11h-328Z" pointer-events="none" opacity="1"/><g><g class="mark-symbol role-legend-symbol" pointer-events="none"><path transform="translate(6,6)" d="M-5,0L5,0" stroke="#9d755d" stroke-width="1.5" opacity="1"/></g><g class="mark-text role-legend-label" pointer-events="none"><text text-anchor="start" transform="translate(16,9)" font-family="Liberation Mono" font-size="10px" fill="#000" opacity="1">PONCHO_-_Peignoir_-_dark_blue</text></g></g><path class="foreground" aria-hidden="true" d="" pointer-events="none" display="none"/></g><g transform="translate(0,117)"><path class="background" aria-hidden="true" d="M0,0h328v11h-328Z" pointer-events="none" opacity="1"/><g><g class="mark-symbol role-legend-symbol" pointer-events="none"><path transform="translate(6,6)" d="M-5,0L5,0" stroke="#bab0ac" stroke-width="1.5" opacity="1"/></g><g class="mark-text role-legend-label" pointer-events="none"><text text-anchor="start" transform="translate(16,9)" font-family="Liberation Mono" font-size="10px" fill="#000" opacity="1">PARIS_ST._GERMAIN_CITY_MADE_PONCHO_-_V…</text></g></g><path class="foreground" aria-hidden="true" d="" pointer-events="none" display="none"/></g><g transform="translate(0,130)"><path class="background" aria-hidden="true" d="M0,0h328v11h-328Z" pointer-events="none" opacity="1"/><g><g class="mark-symbol role-legend-symbol" pointer-events="none"><path transform="translate(6,6)" d="M-5,0L5,0" stroke="#4c78a8" stroke-width="1.5" opacity="1"/></g><g class="mark-text role-legend-label" pointer-events="none"><text text-anchor="start" transform="translate(16,9)" font-family="Liberation Mono" font-size="10px" fill="#000" opacity="1">SHOWERPROOF_PONCHO_UNISEX_-_Cape_-_cla…</text></g></g><path class="foreground" aria-hidden="true" d="" pointer-events="none" display="none"/></g><g transform="translate(0,143)"><path class="background" aria-hidden="true" d="M0,0h328v11h-328Z" pointer-events="none" opacity="1"/><g><g class="mark-symbol role-legend-symbol" pointer-events="none"><path transform="translate(6,6)" d="M-5,0L5,0" stroke="#f58518" stroke-width="1.5" opacity="1"/></g><g class="mark-text role-legend-label" pointer-events="none"><text text-anchor="start" transform="translate(16,9)" font-family="Liberation Mono" font-size="10px" fill="#000" opacity="1">COVERO_PONCHO_II_-_Cape_-_lightgrey</text></g></g><path class="foreground" aria-hidden="true" d="" pointer-events="none" display="none"/></g></g></g><path class="foreground" aria-hidden="true" d="" pointer-events="none" display="none"/></g></g><g class="mark-text role-legend-title" pointer-events="none"><text text-anchor="start" transform="translate(0,9)" font-family="Liberation Mono" font-size="11px" font-weight="bold" fill="#000" opacity="1">item</text></g></g><path class="foreground" aria-hidden="true" d="" pointer-events="none" display="none"/></g></g></g><path class="foreground" aria-hidden="true" d="" display="none"/></g></g></g><path class="foreground" aria-hidden="true" d="" display="none"/></g></g></g></svg>