<svg xmlns="http://www.w3.org/2000/svg" xmlns:xlink="http://www.w3.org/1999/xlink" version="1.1" class="marks" width="548" height="244" viewBox="0 0 548 244"><rect width="548" height="244" fill="white"/><g fill="none" stroke-miterlimit="10" transform="translate(67,7)"><g class="mark-group role-frame root" role="graphics-object" aria-roledescription="group mark container"><g transform="translate(0,0)"><path class="background" aria-hidden="true" d="M0.5,0.5h200v200h-200Z" stroke="#ddd"/><g><g class="mark-group role-axis" aria-hidden="true"><g transform="translate(0.5,200.5)"><path class="background" aria-hidden="true" d="M0,0h0v0h0Z" pointer-events="none"/><g><g class="mark-rule role-axis-grid" pointer-events="none"><line transform="translate(48,-200)" x2="0" y2="200" stroke="#ddd" stroke-width="1" opacity="1"/><line transform="translate(130,-200)" x2="0" y2="200" stroke="#ddd" stroke-width="1" opacity="1"/></g></g><path class="foreground" aria-hidden="true" d="" pointer-events="none" display="none"/></g></g><g class="mark-group role-axis" aria-hidden="true"><g transform="translate(0.5,0.5)"><path class="background" aria-hidden="true" d="M0,0h0v0h0Z" pointer-events="none"/><g><g class="mark-rule role-axis-grid" pointer-events="none"><line transform="translate(0,200)" x2="200" y2="0" stroke="#ddd" stroke-width="1" opacity="1"/><line transform="translate(0,144)" x2="200" y2="0" stroke="#ddd" stroke-width="1" opacity="1"/><line transform="translate(0,89)" x2="200" y2="0" stroke="#ddd" stroke-width="1" opacity="1"/><line transform="translate(0,33)" x2="200" y2="0" stroke="#ddd" stroke-width="1" opacity="1"/></g></g><path class="foreground" aria-hidden="true" d="" pointer-events="none" display="none"/></g></g><g class="mark-group role-axis" role="graphics-symbol" aria-roledescription="axis" aria-label="X-axis titled 'Time' for a time scale with values from Thursday, 14 August 2025, 8:34:48 AM to Sunday, 26 October 2025, 4:48:43 PM"><g transform="translate(0.5,200.5)"><path class="background" aria-hidden="true" d="M0,0h0v0h0Z" pointer-events="none"/><g><g class="mark-rule role-axis-tick" pointer-events="none"><line transform="translate(48,0)" x2="0" y2="5" stroke="#888" stroke-width="1" opacity="1"/><line transform="translate(130,0)" x2="0" y2="5" stroke="#888" stroke-width="1" opacity="1"/></g><g class="mark-text role-axis-label" pointer-events="none"><text text-anchor="middle" transform="translate(48.10954362979252,15)" font-family="Liberation Mono" font-size="10px" fill="#000" opacity="1">September</text><text text-anchor="middle" transform="translate(129.91694188750347,15)" font-family="Liberation Mono" font-size="10px" fill="#000" opacity="1">October</text></g><g class="mark-rule role-axis-domain" pointer-events="none"><line transform="translate(0,0)" x2="200" y2="0" stroke="#888" stroke-width="1" opacity="1"/></g><g class="mark-text role-axis-title" pointer-events="none"><text text-anchor="middle" transform="translate(100,30)" font-family="Liberation Mono" font-size="11px" font-weight="bold" fill="#000" opacity="1">Time</text></g></g><path class="foreground" aria-hidden="true" d="" pointer-events="none" display="none"/></g></g><g class="mark-group role-axis" role="graphics-symbol" aria-roledescription="axis" aria-label="Y-axis titled 'Price' for a linear scale with values from 0 to 1,800"><g transform="translate(0.5,0.5)"><path class="background" aria-hidden="true" d="M0,0h0v0h0Z" pointer-events="none"/><g><g class="mark-rule role-axis-tick" pointer-events="none"><line transform="translate(0,200)" x2="-5" y2="0" stroke="#888" stroke-width="1" opacity="1"/><line transform="translate(0,144)" x2="-5" y2="0" stroke="#888" stroke-width="1" opacity="1"/><line transform="translate(0,89)" x2="-5" y2="0" stroke="#888" stroke-width="1" opacity="1"/><line transform="translate(0,33)" x2="-5" y2="0" stroke="#888" stroke-width="1" opacity="1"/></g><g class="mark-text role-axis-label" pointer-events="none"><text text-anchor="end" transform="translate(-7,203)" font-family="Liberation Mono" font-size="10px" fill="#000" opacity="1">0</text><text text-anchor="end" transform="translate(-7,147.44444444444443)" font-family="Liberation Mono" font-size="10px" fill="#000" opacity="1">500</text><text text-anchor="end" transform="translate(-7,91.88888888888889)" font-family="Liberation Mono" font-size="10px" fill="#000" opacity="1">1,000</text><text text-anchor="end" transform="translate(-7,36.33333333333333)" font-family="Liberation Mono" font-size="10px" fill="#000" opacity="1">1,500</text></g><g class="mark-rule role-axis-domain" pointer-events="none"><line transform="translate(0,200)" x2="0" y2="-200" stroke="#888" stroke-width="1" opacity="1"/></g><g class="mark-text role-axis-title" pointer-events="none"><text text-anchor="middle" transform="translate(-51,100) rotate(-90) translate(0,-2)" font-family="Liberation Mono" font-size="11px" font-weight="bold" fill="#000" opacity="1">Price</text></g></g><path class="foreground" aria-hidden="true" d="" pointer-events="none" display="none"/></g></g><g class="mark-group role-scope pathgroup" role="graphics-object" aria-roledescription="group mark container"><g transform="translate(0,0)"><path class="background" aria-hidden="true" d="M0,0h200v200h-200Z"/><g><g class="mark-line role-mark marks" role="graphics-object" aria-roledescription="line mark container"><path aria-label="Time: Aug 14, 2025; Price: 899; identifier: escape-city-disc-1-2024" role="graphics-symbol" aria-roledescription="line mark" d="M0,100.111L0.023,100.111L0.041,100.111L0.543,100.111L0.943,100.111L1.391,100.111L2.311,100.111L2.762,100.111L3.261,100.111L3.67,100.111L4.116,100.111L5.029,100.111L5.486,100.111L5.97,100.111L6.392,100.111L6.839,100.111L7.766,100.111L8.212,100.111L8.698,100.111L9.121,100.111L9.569,100.111L10.501,100.111L10.949,100.111L11.451,100.111L11.627,100.111L11.856,100.111L12.294,100.111L13.207,100.111L13.669,100.111L14.153,100.111L14.576,100.111L15.02,100.111L15.935,100.111L16.392,100.111L16.896,100.111L17.1,100.111L17.302,100.111L17.75,100.111L18.66,100.111L19.121,100.111L19.608,100.111L20.031,100.111L20.475,100.111L21.388,100.111L21.847,100.111L22.334,100.111L22.755,100.111L23.201,100.111L24.113,100.111L24.57,100.111L25.052,100.111L25.475,100.111L25.925,100.111L26.843,100.111L27.295,100.111L27.78,100.111L28.205,100.111L28.653,100.111L29.574,100.111L30.034,100.111L30.531,100.111L30.939,100.111L31.383,100.111L32.296,100.111L32.759,100.111L33.663,100.111L34.107,100.111L35.02,100.111L35.481,100.111L35.659,100.111L35.966,100.111L36.27,100.111L36.389,100.111L36.836,100.111L37.746,100.111L38.209,100.111L38.694,100.111L39.116,100.111L39.561,100.111L40.473,100.111L40.934,100.111L41.418,100.111L41.842,100.111L42.287,100.111L43.197,100.111L43.654,100.111L44.136,100.111L44.562,100.111L44.991,100.111L45.012,100.111L45.925,100.111L46.216,100.111L46.38,100.111L46.865,100.111L47.29,100.111L47.74,100.111L48.661,100.111L49.119,100.111L49.603,100.111L50.021,100.111L50.466,100.111L51.383,100.111L51.844,100.111L52.332,100.111L52.749,100.111L53.195,100.111L54.107,100.111L54.567,100.111L55.053,100.111L55.475,100.111L55.921,100.111L56.833,100.111L57.295,100.111L57.777,100.111L58.204,100.111L58.647,100.111L59.561,100.111L60.021,100.111L60.505,100.111L60.925,100.111L61.375,100.111L62.285,100.111L62.519,100.111L62.74,100.111L63.221,100.111L63.648,100.111L64.1,100.111L65.011,100.111L65.466,100.111L65.95,100.111L66.375,100.111L66.827,100.111L67.742,100.111L68.206,100.111L68.693,100.111L69.112,100.111L69.558,100.111L70.468,100.111L70.932,100.111L71.435,100.111L71.84,100.111L72.282,100.111L73.191,100.111L73.656,100.111L74.14,100.111L74.563,100.111L75.01,100.111L75.922,100.111L76.382,100.111L76.866,100.111L77.284,100.111L77.735,100.111L78.647,100.111L79.108,100.111L79.591,100.111L80.013,100.111L80.461,100.111L81.372,100.111L81.829,100.111L82.31,100.111L82.734,100.111L83.189,100.111L84.1,100.111L84.556,100.111L85.035,100.111L85.46,100.111L85.916,100.111L86.831,100.111L87.291,100.111L87.778,100.111L88.198,100.111L88.644,100.111L89.556,100.111L90.02,100.111L90.505,100.111L90.924,100.111L91.372,100.111L92.284,100.111L92.745,100.111L93.231,100.111L93.652,100.111L94.098,100.111L95.01,100.111L95.471,100.111L95.957,100.111L96.377,100.111L96.825,100.111L97.737,100.111L98.198,100.111L98.683,100.111L99.105,100.111L99.55,100.111L100.462,100.111L100.92,100.111L101.402,100.111L101.824,100.111L102.277,100.111L103.19,100.111L103.644,100.111L104.128,100.111L104.553,100.111L105.005,100.111L105.918,100.111L106.383,100.111L106.868,100.111L107.282,100.111L107.734,100.111L108.644,100.111L109.107,100.111L109.592,100.111L110.015,100.111L110.461,100.111L111.372,100.111L111.835,100.111L112.32,100.111L112.744,100.111L113.186,100.111L114.099,100.111L114.563,100.111L115.049,100.111L115.47,100.111L115.912,100.111L116.825,100.111L117.288,100.111L117.773,100.111L118.194,100.111L118.639,100.111L119.551,100.111L120.006,100.111L120.489,100.111L120.914,100.111L121.366,100.111L122.278,100.111L122.733,100.111L123.217,100.111L123.639,100.111L124.092,100.111L125.008,100.111L125.472,100.111L125.958,100.111L126.366,100.111L126.821,100.111L127.734,100.111L128.2,100.111L128.684,100.111L129.102,100.111L129.548,100.111L130.462,100.111L130.925,100.111L131.412,100.111L131.83,100.111L132.276,100.111L133.186,100.111L133.647,100.111L134.131,100.111L134.556,100.111L135.001,100.111L135.911,100.111L136.374,100.111L136.857,100.111L137.282,100.111L137.727,100.111L138.638,100.111L139.095,100.111L139.576,100.111L140.003,100.111L140.454,100.111L141.363,100.111L141.82,100.111L142.304,100.111L142.729,100.111L143.181,100.111L144.094,100.111L144.557,100.111L145.044,100.111L145.465,100.111L145.911,100.111L146.821,100.111L147.283,100.111L147.771,100.111L148.191,100.111L148.637,100.111L149.549,100.111L150.013,100.111L150.499,100.111L150.918,100.111L151.364,100.111L152.277,100.111L152.74,100.111L153.227,100.111L153.649,100.111L154.091,100.111L155.003,100.111L155.465,100.111L155.95,100.111L156.371,100.111L156.818,100.111L157.727,100.111L158.183,100.111L158.665,100.111L159.089,100.111L159.542,100.111L160.454,100.111L160.91,100.111L161.393,100.111L161.818,100.111L162.269,100.111L163.187,100.111L163.651,100.111L164.135,100.111L164.552,100.111L164.998,100.111L165.91,100.111L166.372,100.111L166.876,100.111L167.28,100.111L167.727,100.111L168.638,100.111L169.105,100.111L169.606,100.111L170.006,100.111L170.455,100.111L171.365,100.111L171.831,100.111L172.33,100.111L172.736,100.111L173.18,100.111L174.091,100.111L174.554,100.111L175.04,100.111L175.46,100.111L175.906,100.111L176.816,100.111L177.275,100.111L177.756,100.111L178.181,100.111L178.631,100.111L179.546,100.111L179.999,100.111L180.484,100.111L180.908,100.111L181.358,100.111L182.274,100.111L182.748,100.111L183.223,100.111L183.642,100.111L184.092,100.111L184.999,100.111L185.476,100.111L185.97,100.111L186.368,100.111L186.817,100.111L187.729,100.111L188.195,100.111L188.696,100.111L189.102,100.111L189.541,100.111L190.454,100.111L190.919,100.111L191.42,100.111L191.824,100.111L192.27,100.111L193.18,100.111L193.644,100.111L194.145,100.111L194.551,100.111L194.997,100.111L195.905,100.111L196.362,100.111L196.844,100.111L197.271,100.111L197.72,100.111L198.633,100.111L199.088,100.111L199.574,100.111L199.999,100.111" stroke="#4c78a8" stroke-width="2"/></g></g><path class="foreground" aria-hidden="true" d="" display="none"/></g><g transform="translate(0,0)"><path class="background" aria-hidden="true" d="M0,0h200v200h-200Z"/><g><g class="mark-line role-mark marks" role="graphics-object" aria-roledescription="line mark container"><path aria-label="Time: Aug 14, 2025; Price: 999; identifier: roam-2" role="graphics-symbol" aria-roledescription="line mark" d="M0,89L0.023,89L0.041,89L0.543,89L0.943,89L1.391,89L2.311,89L2.763,89L3.261,89L3.67,89L4.116,89L5.029,89L5.486,89L5.97,89L6.392,89L6.843,89L7.766,89L8.212,89L8.698,89L9.121,89L9.569,89L10.501,89L10.949,89L11.451,89L11.628,89L11.856,89L12.294,89L13.207,89L13.669,89L14.153,89L14.576,89L15.02,89L15.935,89L16.392,89L16.896,89L17.1,89L17.302,89L17.75,89L18.66,89L19.121,89L19.608,89L20.031,89L20.475,89L21.388,89L21.847,89L22.334,89L22.755,89L23.201,89L24.113,89L24.57,89L25.052,89L25.475,89L25.925,89L26.843,89L27.295,89L27.78,89L28.205,89L28.653,89L29.574,89L30.034,89L30.532,89L30.939,89L31.383,89L32.296,89L32.759,89L33.663,89L34.107,89L35.02,89L35.481,89L35.66,89L35.966,89L36.27,89L36.39,89L36.836,89L37.746,89L38.209,89L38.694,89L39.116,89L39.562,89L40.473,89L40.934,89L41.418,89L41.842,89L42.287,89L43.197,89L43.654,89L44.137,89L44.562,89L44.991,89L45.012,89L45.925,89L46.217,89L46.38,89L46.865,89L47.291,89L47.74,89L48.661,89L49.119,89L49.603,89L50.021,89L50.466,89L51.383,89L51.845,89L52.332,89L52.75,89L53.195,89L54.107,89L54.567,89L55.053,89L55.475,89L55.921,89L56.833,89L57.295,89L57.777,89L58.204,89L58.647,89L59.561,89L60.021,89L60.506,89L60.926,89L61.375,89L62.285,89L62.519,89L62.74,89L63.221,89L63.648,89L64.101,89L65.011,89L65.467,89L65.95,89L66.375,89L66.827,89L67.743,89L68.206,89L68.693,89L69.112,89L69.558,89L70.468,89L70.932,89L71.435,89L71.84,89L72.282,89L73.192,89L73.657,89L74.14,89L74.563,89L75.01,89L75.922,89L76.382,89L76.866,89L77.285,89L77.735,89L78.647,89L79.108,89L79.591,89L80.013,89L80.462,89L81.372,89L81.829,89L82.31,89L82.734,89L83.189,89L84.1,89L84.556,89L85.035,89L85.461,89L85.916,89L86.831,89L87.291,89L87.778,89L88.199,89L88.645,89L89.556,89L90.02,89L90.505,89L90.924,89L91.372,89L92.284,89L92.745,89L93.232,89L93.652,89L94.098,89L95.01,89L95.471,89L95.958,89L96.377,89L96.825,89L97.737,89L98.198,89L98.684,89L99.106,89L99.551,89L100.462,89L100.92,89L101.402,89L101.824,89L102.277,89L103.19,89L103.645,89L104.128,89L104.553,89L105.005,89L105.919,89L106.383,89L106.868,89L107.282,89L107.734,89L108.645,89L109.107,89L109.593,89L110.015,89L110.461,89L111.372,89L111.835,89L112.32,89L112.744,89L113.186,89L114.099,89L114.563,89L115.049,89L115.47,89L115.912,89L116.825,89L117.289,89L117.773,89L118.194,89L118.639,89L119.551,89L120.006,89L120.489,89L120.914,89L121.366,89L122.278,89L122.733,89L123.217,89L123.639,89L124.092,89L125.008,89L125.472,89L125.958,89L126.366,89L126.821,89L127.734,89L128.2,89L128.684,89L129.102,89L129.548,89L130.462,89L130.925,89L131.412,89L131.83,89L132.276,89L133.186,89L133.647,89L134.132,89L134.556,89L135.001,89L135.912,89L136.374,89L136.857,89L137.282,89L137.727,89L138.638,89L139.095,89L139.577,89L140.003,89L140.454,89L141.364,89L141.821,89L142.304,89L142.729,89L143.181,89L144.094,89L144.558,89L145.044,89L145.465,89L145.911,89L146.821,89L147.283,89L147.771,89L148.191,89L148.637,89L149.549,89L150.013,89L150.499,89L150.918,89L151.364,89L152.277,89L152.74,89L153.227,89L153.65,89L154.092,89L155.003,89L155.465,89L155.95,89L156.371,89L156.818,89L157.727,89L158.183,89L158.665,89L159.089,89L159.543,89L160.455,89L160.91,89L161.393,89L161.818,89L162.269,89L163.187,89L163.651,89L164.135,89L164.553,89L164.998,89L165.91,89L166.373,89L166.876,89L167.28,89L167.727,89L168.638,89L169.105,89L169.606,89L170.006,89L170.455,89L171.365,89L171.831,89L172.33,89L172.736,89L173.18,89L174.092,89L174.554,89L175.04,89L175.461,89L175.906,89L176.816,89L177.275,89L177.756,89L178.181,89L178.631,89L179.546,89L179.999,89L180.484,89L180.908,89L181.358,89L182.274,89L182.748,89L183.223,89L183.643,89L184.092,89L185,89L185.476,89L185.97,89L186.368,89L186.817,89L187.729,89L188.195,89L188.696,89L189.102,89L189.541,89L190.454,89L190.919,89L191.42,89L191.824,89L192.27,89L193.18,89L193.644,89L194.146,89L194.551,89L194.998,89L195.906,89L196.362,89L196.844,89L197.271,89L197.72,89L198.633,89L199.089,89L199.574,89L199.999,89" stroke="#ff9da6" stroke-width="2"/></g></g><path class="foreground" aria-hidden="true" d="" display="none"/></g><g transform="translate(0,0)"><path class="background" aria-hidden="true" d="M0,0h200v200h-200Z"/><g><g class="mark-line role-mark marks" role="graphics-object" aria-roledescription="line mark container"><path aria-label="Time: Aug 14, 2025; Price: 999; identifier: fastroad-sl-3-2022" role="graphics-symbol" aria-roledescription="line mark" d="M0,89L0.023,89L0.041,89L0.543,89L0.943,89L1.391,89L2.311,89L2.763,89L3.261,89L3.67,89L4.116,89L5.029,89L5.486,89L5.97,89L6.392,89L6.843,89L7.766,89L8.212,89L8.698,89L9.121,89L9.57,89L10.501,89L10.949,89L11.451,89L11.628,89L11.857,89L12.294,89L13.207,89L13.669,89L14.153,89L14.576,89L15.02,89L15.935,89L16.392,89L16.896,89L17.1,89L17.302,89L17.75,89L18.66,89L19.121,89L19.608,89L20.031,89L20.475,89L21.388,89L21.848,89L22.334,89L22.755,89L23.201,89L24.113,89L24.57,89L25.052,89L25.475,89L25.925,89L26.843,89L27.295,89L27.78,89L28.205,89L28.653,89L29.574,89L30.034,89L30.532,89L30.939,89L31.383,89L32.296,89L32.759,89L33.663,89L34.107,89L35.02,89L35.481,89L35.66,89L35.966,89L36.271,89L36.39,89L36.836,89L37.746,89L38.209,89L38.695,89L39.116,89L39.562,89L40.473,89L40.934,89L41.418,89L41.842,89L42.287,89L43.197,89L43.654,89L44.137,89L44.562,89L44.991,89L45.012,89L45.925,89L46.217,89L46.38,89L46.865,89L47.291,89L47.74,89L48.661,89L49.119,89L49.603,89L50.021,89L50.466,89L51.384,89L51.845,89L52.332,89L52.75,89L53.195,89L54.107,89L54.567,89L55.053,89L55.475,89L55.921,89L56.833,89L57.295,89L57.777,89L58.204,89L58.647,89L59.561,89L60.021,89L60.506,89L60.926,89L61.375,89L62.285,89L62.519,89L62.74,89L63.221,89L63.648,89L64.101,89L65.011,89L65.467,89L65.95,89L66.375,89L66.827,89L67.743,89L68.206,89L68.693,89L69.112,89L69.558,89L70.469,89L70.932,89L71.435,89L71.84,89L72.282,89L73.192,89L73.657,89L74.14,89L74.563,89L75.01,89L75.922,89L76.383,89L76.866,89L77.285,89L77.735,89L78.647,89L79.108,89L79.591,89L80.013,89L80.462,89L81.372,89L81.829,89L82.31,89L82.734,89L83.189,89L84.1,89L84.556,89L85.035,89L85.461,89L85.916,89L86.831,89L87.291,89L87.779,89L88.199,89L88.645,89L89.556,89L90.02,89L90.505,89L90.924,89L91.372,89L92.284,89L92.745,89L93.232,89L93.652,89L94.098,89L95.01,89L95.471,89L95.958,89L96.377,89L96.825,89L97.737,89L98.198,89L98.684,89L99.106,89L99.551,89L100.462,89L100.92,89L101.402,89L101.824,89L102.277,89L103.19,89L103.645,89L104.128,89L104.553,89L105.005,89L105.919,89L106.383,89L106.868,89L107.282,89L107.734,89L108.645,89L109.107,89L109.593,89L110.015,89L110.461,89L111.372,89L111.835,89L112.32,89L112.744,89L113.186,89L114.099,89L114.563,89L115.049,89L115.47,89L115.912,89L116.825,89L117.289,89L117.773,89L118.194,89L118.639,89L119.552,89L120.006,89L120.489,89L120.914,89L121.367,89L122.279,89L122.733,89L123.217,89L123.639,89L124.093,89L125.008,89L125.472,89L125.958,89L126.366,89L126.821,89L127.734,89L128.2,89L128.684,89L129.102,89L129.548,89L130.462,89L130.925,89L131.412,89L131.83,89L132.276,89L133.186,89L133.647,89L134.132,89L134.556,89L135.001,89L135.912,89L136.374,89L136.857,89L137.282,89L137.727,89L138.638,89L139.095,89L139.577,89L140.003,89L140.454,89L141.364,89L141.821,89L142.304,89L142.729,89L143.181,89L144.094,89L144.558,89L145.044,89L145.465,89L145.911,89L146.821,89L147.284,89L147.771,89L148.191,89L148.637,89L149.549,89L150.013,89L150.499,89L150.919,89L151.364,89L152.277,89L152.74,89L153.227,89L153.65,89L154.092,89L155.003,89L155.465,89L155.95,89L156.371,89L156.818,89L157.727,89L158.184,89L158.665,89L159.089,89L159.543,89L160.455,89L160.91,89L161.393,89L161.818,89L162.269,89L163.187,89L163.651,89L164.135,89L164.553,89L164.998,89L165.91,89L166.373,89L166.876,89L167.281,89L167.727,89L168.638,89L169.105,89L169.606,89L170.007,89L170.455,89L171.365,89L171.831,89L172.33,89L172.736,89L173.18,89L174.092,89L174.554,89L175.04,89L175.461,89L175.906,89L176.816,89L177.275,89L177.756,89L178.181,89L178.631,89L179.546,89L179.999,89L180.484,89L180.908,89L181.358,89L182.274,89L182.748,89L183.223,89L183.643,89L184.092,89L185,89L185.476,89L185.97,89L186.369,89L186.817,89L187.73,89L188.195,89L188.696,89L189.103,89L189.541,89L190.454,89L190.919,89L191.42,89L191.824,89L192.27,89L193.18,89L193.644,89L194.146,89L194.551,89L194.998,89L195.906,89L196.362,89L196.844,89L197.271,89L197.72,89L198.633,89L199.089,89L199.574,89L199.999,89" stroke="#9d755d" stroke-width="2"/></g></g><path class="foreground" aria-hidden="true" d="" display="none"/></g><g transform="translate(0,0)"><path class="background" aria-hidden="true" d="M0,0h200v200h-200Z"/><g><g class="mark-line role-mark marks" role="graphics-object" aria-roledescription="line mark container"><path aria-label="Time: Aug 14, 2025; Price: 1199; identifier: fastroad-ar-2" role="graphics-symbol" aria-roledescription="line mark" d="M0,66.778L0.023,66.778L0.041,66.778L0.543,66.778L0.943,66.778L1.391,66.778L2.311,66.778L2.763,66.778L3.261,66.778L3.67,66.778L4.116,66.778L5.029,66.778L5.486,66.778L5.97,66.778L6.392,66.778L6.846,66.778L7.767,66.778L8.212,66.778L8.698,66.778L9.121,66.778L9.57,66.778L10.501,66.778L10.949,66.778L11.451,66.778L11.628,66.778L11.857,66.778L12.294,66.778L13.207,66.778L13.669,66.778L14.153,66.778L14.576,66.778L15.02,66.778L15.935,66.778L16.392,66.778L16.896,66.778L17.1,66.778L17.302,66.778L17.75,66.778L18.661,66.778L19.121,66.778L19.608,66.778L20.031,66.778L20.475,66.778L21.388,66.778L21.848,66.778L22.334,66.778L22.755,66.778L23.201,66.778L24.113,66.778L24.57,66.778L25.052,66.778L25.475,66.778L25.925,66.778L26.843,66.778L27.295,66.778L27.781,66.778L28.205,66.778L28.653,66.778L29.574,66.778L30.034,66.778L30.532,66.778L30.939,66.778L31.383,66.778L32.297,66.778L32.759,66.778L33.663,66.778L34.107,66.778L35.02,66.778L35.481,66.778L35.66,66.778L35.967,66.778L36.271,66.778L36.39,66.778L36.836,66.778L37.746,66.778L38.209,66.778L38.695,66.778L39.116,66.778L39.562,66.778L40.474,66.778L40.934,66.778L41.418,66.778L41.842,66.778L42.287,66.778L43.197,66.778L43.654,66.778L44.137,66.778L44.562,66.778L44.991,66.778L45.012,66.778L45.925,66.778L46.217,66.778L46.38,66.778L46.865,66.778L47.291,66.778L47.74,66.778L48.661,66.778L49.119,66.778L49.603,66.778L50.021,66.778L50.466,66.778L51.384,66.778L51.845,66.778L52.332,66.778L52.75,66.778L53.195,66.778L54.107,66.778L54.567,66.778L55.053,66.778L55.475,66.778L55.921,66.778L56.833,66.778L57.295,66.778L57.777,66.778L58.204,66.778L58.647,66.778L59.561,66.778L60.021,66.778L60.506,66.778L60.926,66.778L61.375,66.778L62.285,66.778L62.519,66.778L62.74,66.778L63.221,66.778L63.648,66.778L64.101,66.778L65.011,66.778L65.467,66.778L65.95,66.778L66.375,66.778L66.827,66.778L67.743,66.778L68.207,66.778L68.693,66.778L69.112,66.778L69.558,66.778L70.469,66.778L70.932,66.778L71.435,66.778L71.841,66.778L72.282,66.778L73.192,66.778L73.657,66.778L74.14,66.778L74.563,66.778L75.01,66.778L75.922,66.778L76.383,66.778L76.866,66.778L77.285,66.778L77.735,66.778L78.647,66.778L79.108,66.778L79.591,66.778L80.013,66.778L80.462,66.778L81.372,66.778L81.829,66.778L82.31,66.778L82.734,66.778L83.189,66.778L84.1,66.778L84.556,66.778L85.035,66.778L85.461,66.778L85.916,66.778L86.831,66.778L87.291,66.778L87.779,66.778L88.199,66.778L88.645,66.778L89.556,66.778L90.02,66.778L90.505,66.778L90.924,66.778L91.372,66.778L92.284,66.778L92.745,66.778L93.232,66.778L93.652,66.778L94.098,66.778L95.01,66.778L95.471,66.778L95.958,66.778L96.377,66.778L96.825,66.778L97.737,66.778L98.198,66.778L98.684,66.778L99.106,66.778L99.551,66.778L100.462,66.778L100.92,66.778L101.402,66.778L101.824,66.778L102.277,66.778L103.19,66.778L103.645,66.778L104.128,66.778L104.553,66.778L105.005,66.778L105.919,66.778L106.383,66.778L106.868,66.778L107.282,66.778L107.734,66.778L108.645,66.778L109.107,66.778L109.593,66.778L110.015,66.778L110.461,66.778L111.372,66.778L111.835,66.778L112.32,66.778L112.744,66.778L113.186,66.778L114.1,66.778L114.563,66.778L115.049,66.778L115.47,66.778L115.912,66.778L116.825,66.778L117.289,66.778L117.773,66.778L118.195,66.778L118.639,66.778L119.552,66.778L120.006,66.778L120.489,66.778L120.914,66.778L121.367,66.778L122.279,66.778L122.733,66.778L123.217,66.778L123.639,66.778L124.093,66.778L125.008,66.778L125.472,66.778L125.958,66.778L126.366,66.778L126.821,66.778L127.734,66.778L128.2,66.778L128.684,66.778L129.102,66.778L129.548,66.778L130.462,66.778L130.925,66.778L131.412,66.778L131.83,66.778L132.276,66.778L133.186,66.778L133.647,66.778L134.132,66.778L134.557,66.778L135.001,66.778L135.912,66.778L136.374,66.778L136.857,66.778L137.282,66.778L137.727,66.778L138.638,66.778L139.095,66.778L139.577,66.778L140.003,66.778L140.454,66.778L141.364,66.778L141.821,66.778L142.304,66.778L142.729,66.778L143.182,66.778L144.094,66.778L144.558,66.778L145.044,66.778L145.465,66.778L145.911,66.778L146.821,66.778L147.284,66.778L147.772,66.778L148.191,66.778L148.637,66.778L149.549,66.778L150.013,66.778L150.499,66.778L150.919,66.778L151.364,66.778L152.277,66.778L152.74,66.778L153.227,66.778L153.65,66.778L154.092,66.778L155.003,66.778L155.465,66.778L155.95,66.778L156.371,66.778L156.818,66.778L157.727,66.778L158.184,66.778L158.665,66.778L159.089,66.778L159.543,66.778L160.455,66.778L160.91,66.778L161.393,66.778L161.819,66.778L162.269,66.778L163.187,66.778L163.652,66.778L164.135,66.778L164.554,66.778L164.998,66.778L165.91,66.778L166.373,66.778L166.876,66.778L167.281,66.778L167.727,66.778L168.638,66.778L169.105,66.778L169.606,66.778L170.007,66.778L170.455,66.778L171.365,66.778L171.831,66.778L172.33,66.778L172.736,66.778L173.18,66.778L174.092,66.778L174.554,66.778L175.04,66.778L175.461,66.778L175.906,66.778L176.816,66.778L177.275,66.778L177.756,66.778L178.181,66.778L178.631,66.778L179.546,66.778L179.999,66.778L180.484,66.778L180.908,66.778L181.358,66.778L182.274,66.778L182.748,66.778L183.223,66.778L183.643,66.778L184.092,66.778L185,66.778L185.476,66.778L185.97,66.778L186.369,66.778L186.818,66.778L187.73,66.778L188.195,66.778L188.696,66.778L189.103,66.778L189.541,66.778L190.454,66.778L190.919,66.778L191.42,66.778L191.824,66.778L192.271,66.778L193.18,66.778L193.644,66.778L194.146,66.778L194.551,66.778L194.998,66.778L195.906,66.778L196.363,66.778L196.845,66.778L197.271,66.778L197.72,66.778L198.633,66.778L199.089,66.778L199.574,66.778L199.999,66.778" stroke="#54a24b" stroke-width="2"/></g></g><path class="foreground" aria-hidden="true" d="" display="none"/></g><g transform="translate(0,0)"><path class="background" aria-hidden="true" d="M0,0h200v200h-200Z"/><g><g class="mark-line role-mark marks" role="graphics-object" aria-roledescription="line mark container"><path aria-label="Time: Aug 18, 2025; Price: 899; identifier: sdrbike-escape-1-city-disc" role="graphics-symbol" aria-roledescription="line mark" d="M11.628,100.111L11.857,100.111L12.294,100.111L13.208,100.111L13.669,100.111L14.153,100.111L14.576,100.111L15.02,100.111L15.935,100.111L16.392,100.111L16.897,100.111L17.101,100.111L17.302,100.111L17.75,100.111L18.661,100.111L19.121,100.111L19.608,100.111L20.031,100.111L20.476,100.111L21.388,100.111L21.848,100.111L22.334,100.111L22.755,100.111L23.201,100.111L24.113,100.111L24.57,100.111L25.052,100.111L25.475,100.111L25.925,100.111L26.843,100.111L27.295,100.111L27.781,100.111L28.205,100.111L28.653,100.111L29.574,100.111L30.034,100.111L30.532,100.111L30.939,100.111L31.383,100.111L32.297,100.111L32.76,100.111L33.663,100.111L34.107,100.111L35.02,100.111L35.481,100.111L35.66,100.111L35.967,100.111L36.271,100.111L36.39,100.111L36.836,100.111L37.747,100.111L38.209,100.111L38.695,100.111L39.116,100.111L39.562,100.111L40.474,100.111L40.934,100.111L41.418,100.111L41.842,100.111L42.287,100.111L43.197,100.111L43.654,100.111L44.137,100.111L44.562,100.111L44.991,100.111L45.012,100.111L45.926,100.111L46.217,100.111L46.38,100.111L46.865,100.111L47.291,100.111L47.74,100.111L48.661,100.111L49.12,100.111L49.603,100.111L50.021,100.111L50.467,100.111L51.384,100.111L51.845,100.111L52.332,100.111L52.75,100.111L53.195,100.111L54.107,100.111L54.567,100.111L55.053,100.111L55.475,100.111L55.921,100.111L56.833,100.111L57.295,100.111L57.777,100.111L58.204,100.111L58.648,100.111L59.561,100.111L60.021,100.111L60.506,100.111L60.926,100.111L61.375,100.111L62.285,100.111L62.519,100.111L62.74,100.111L63.221,100.111L63.648,100.111L64.101,100.111L65.011,100.111L65.467,100.111L65.95,100.111L66.375,100.111L66.828,100.111L67.743,100.111L68.207,100.111L68.693,100.111L69.112,100.111L69.559,100.111L70.469,100.111L70.933,100.111L71.435,100.111L71.841,100.111L72.282,100.111L73.192,100.111L73.657,100.111L74.14,100.111L74.563,100.111L75.01,100.111L75.922,100.111L76.383,100.111L76.866,100.111L77.285,100.111L77.735,100.111L78.647,100.111L79.109,100.111L79.591,100.111L80.013,100.111L80.462,100.111L81.372,100.111L81.829,100.111L82.31,100.111L82.735,100.111L83.189,100.111L84.1,100.111L84.556,100.111L85.035,100.111L85.461,100.111L85.916,100.111L86.832,100.111L87.291,100.111L87.779,100.111L88.199,100.111L88.645,100.111L89.556,100.111L90.021,100.111L90.505,100.111L90.924,100.111L91.372,100.111L92.284,100.111L92.745,100.111L93.232,100.111L93.652,100.111L94.098,100.111L95.011,100.111L95.471,100.111L95.958,100.111L96.377,100.111L96.826,100.111L97.738,100.111L98.198,100.111L98.684,100.111L99.106,100.111L99.551,100.111L100.462,100.111L100.92,100.111L101.402,100.111L101.824,100.111L102.277,100.111L103.19,100.111L103.645,100.111L104.129,100.111L104.554,100.111L105.005,100.111L105.919,100.111L106.383,100.111L106.868,100.111L107.282,100.111L107.734,100.111L108.645,100.111L109.108,100.111L109.593,100.111L110.015,100.111L110.461,100.111L111.373,100.111L111.836,100.111L112.32,100.111L112.744,100.111L113.186,100.111L114.1,100.111L114.563,100.111L115.05,100.111L115.47,100.111L115.912,100.111L116.825,100.111L117.289,100.111L117.773,100.111L118.195,100.111L118.64,100.111L119.552,100.111L120.006,100.111L120.489,100.111L120.914,100.111L121.367,100.111L122.279,100.111L122.734,100.111L123.217,100.111L123.639,100.111L124.093,100.111L125.008,100.111L125.472,100.111L125.958,100.111L126.366,100.111L126.821,100.111L127.734,100.111L128.2,100.111L128.685,100.111L129.102,100.111L129.549,100.111L130.462,100.111L130.925,100.111L131.412,100.111L131.83,100.111L132.276,100.111L133.186,100.111L133.647,100.111L134.132,100.111L134.557,100.111L135.001,100.111L135.912,100.111L136.374,100.111L136.857,100.111L137.282,100.111L137.728,100.111L138.638,100.111L139.095,100.111L139.577,100.111L140.003,100.111L140.454,100.111L141.364,100.111L141.821,100.111L142.304,100.111L142.73,100.111L143.182,100.111L144.094,100.111L144.558,100.111L145.044,100.111L145.465,100.111L145.911,100.111L146.821,100.111L147.284,100.111L147.772,100.111L148.192,100.111L148.637,100.111L149.549,100.111L150.013,100.111L150.499,100.111L150.919,100.111L151.364,100.111L152.277,100.111L152.74,100.111L153.227,100.111L153.65,100.111L154.092,100.111L155.003,100.111L155.465,100.111L155.95,100.111L156.371,100.111L156.818,100.111L157.727,100.111L158.184,100.111L158.665,100.111L159.089,100.111L159.543,100.111L160.455,100.111L160.911,100.111L161.393,100.111L161.819,100.111L162.269,100.111L163.187,100.111L163.652,100.111L164.135,100.111L164.554,100.111L164.998,100.111L165.91,100.111L166.373,100.111L166.876,100.111L167.281,100.111L167.727,100.111L168.638,100.111L169.105,100.111L169.606,100.111L170.007,100.111L170.455,100.111L171.365,100.111L171.831,100.111L172.33,100.111L172.736,100.111L173.181,100.111L174.092,100.111L174.554,100.111L175.04,100.111L175.461,100.111L175.906,100.111L176.816,100.111L177.275,100.111L177.757,100.111L178.181,100.111L178.632,100.111L179.546,100.111L179.999,100.111L180.484,100.111L180.908,100.111L181.358,100.111L182.274,100.111L182.748,100.111L183.223,100.111L183.643,100.111L184.092,100.111L185,100.111L185.476,100.111L185.97,100.111L186.369,100.111L186.818,100.111L187.73,100.111L188.195,100.111L188.696,100.111L189.103,100.111L189.541,100.111L190.454,100.111L190.919,100.111L191.42,100.111L191.824,100.111L192.271,100.111L193.18,100.111L193.644,100.111L194.146,100.111L194.551,100.111L194.998,100.111L195.906,100.111L196.363,100.111L196.845,100.111L197.271,100.111L197.72,100.111L198.633,100.111L199.089,100.111L199.574,100.111L199.999,100.111" stroke="#f58518" stroke-width="2"/></g></g><path class="foreground" aria-hidden="true" d="" display="none"/></g><g transform="translate(0,0)"><path class="background" aria-hidden="true" d="M0,0h200v200h-200Z"/><g><g class="mark-line role-mark marks" role="graphics-object" aria-roledescription="line mark container"><path aria-label="Time: Aug 20, 2025; Price: 899; identifier: roam-disc-2-2024" role="graphics-symbol" aria-roledescription="line mark" d="M17.1,100.111L17.302,100.111L17.75,100.111L18.66,100.111L19.121,100.111L19.608,100.111L20.031,100.111L20.475,100.111L21.388,100.111L21.847,100.111L22.334,100.111L22.755,100.111L23.201,100.111L24.113,100.111L24.57,100.111L25.052,100.111L25.475,100.111L25.925,100.111L26.843,100.111L27.295,100.111L27.78,100.111L28.205,100.111L28.653,100.111L29.574,100.111L30.034,100.111L30.532,100.111L30.939,100.111L31.383,100.111L32.296,100.111L32.759,100.111L33.663,100.111L34.107,100.111L35.02,100.111L35.481,100.111L35.659,100.111L35.966,100.111L36.27,100.111L36.39,100.111L36.836,100.111L37.746,100.111L38.209,100.111L38.694,100.111L39.116,100.111L39.561,100.111L40.473,100.111L40.934,100.111L41.418,100.111L41.842,100.111L42.287,100.111L43.197,100.111L43.654,100.111L44.137,100.111L44.562,100.111L44.991,100.111L45.012,100.111L45.925,100.111L46.217,100.111L46.38,100.111L46.865,100.111L47.29,100.111L47.74,100.111L48.661,100.111L49.119,100.111L49.603,100.111L50.021,100.111L50.466,100.111L51.383,100.111L51.844,100.111L52.332,100.111L52.749,100.111L53.195,100.111L54.107,100.111L54.567,100.111L55.053,100.111L55.475,100.111L55.921,100.111L56.833,100.111L57.295,100.111L57.777,100.111L58.204,100.111L58.647,100.111L59.561,100.111L60.021,100.111L60.506,100.111L60.926,100.111L61.375,100.111L62.285,100.111L62.519,100.111L62.74,100.111L63.221,100.111L63.648,100.111L64.101,100.111L65.011,100.111L65.467,100.111L65.95,100.111L66.375,100.111L66.827,100.111L67.743,100.111L68.206,100.111L68.693,100.111L69.112,100.111L69.558,100.111L70.468,100.111L70.932,100.111L71.435,100.111L71.84,100.111L72.282,100.111L73.192,100.111L73.656,100.111L74.14,100.111L74.563,100.111L75.01,100.111L75.922,100.111L76.382,100.111L76.866,100.111L77.284,100.111L77.735,100.111L78.647,100.111L79.108,100.111L79.591,100.111L80.013,100.111L80.462,100.111L81.372,100.111L81.829,100.111L82.31,100.111L82.734,100.111L83.189,100.111L84.1,100.111L84.556,100.111L85.035,100.111L85.461,100.111L85.916,100.111L86.831,100.111L87.291,100.111L87.778,100.111L88.199,100.111L88.644,100.111L89.556,100.111L90.02,100.111L90.505,100.111L90.924,100.111L91.372,100.111L92.284,100.111L92.745,100.111L93.232,100.111L93.652,100.111L94.098,100.111L95.01,100.111L95.471,100.111L95.958,100.111L96.377,100.111L96.825,100.111L97.737,100.111L98.198,100.111L98.684,100.111L99.106,100.111L99.55,100.111L100.462,100.111L100.92,100.111L101.402,100.111L101.824,100.111L102.277,100.111L103.19,100.111L103.644,100.111L104.128,100.111L104.553,100.111L105.005,100.111L105.918,100.111L106.383,100.111L106.868,100.111L107.282,100.111L107.734,100.111L108.644,100.111L109.107,100.111L109.593,100.111L110.015,100.111L110.461,100.111L111.372,100.111L111.835,100.111L112.32,100.111L112.744,100.111L113.186,100.111L114.099,100.111L114.563,100.111L115.049,100.111L115.47,100.111L115.912,100.111L116.825,100.111L117.288,100.111L117.773,100.111L118.194,100.111L118.639,100.111L119.551,100.111L120.006,100.111L120.489,100.111L120.914,100.111L121.366,100.111L122.278,100.111L122.733,100.111L123.217,100.111L123.639,100.111L124.092,100.111L125.008,100.111L125.472,100.111L125.958,100.111L126.366,100.111L126.821,100.111L127.734,100.111L128.2,100.111L128.684,100.111L129.102,100.111L129.548,100.111L130.462,100.111L130.925,100.111L131.412,100.111L131.83,100.111L132.276,100.111L133.186,100.111L133.647,100.111L134.132,100.111L134.556,100.111L135.001,100.111L135.912,100.111L136.374,100.111L136.857,100.111L137.282,100.111L137.727,100.111L138.638,100.111L139.095,100.111L139.577,100.111L140.003,100.111L140.454,100.111L141.363,100.111L141.82,100.111L142.304,100.111L142.729,100.111L143.181,100.111L144.094,100.111L144.558,100.111L145.044,100.111L145.465,100.111L145.911,100.111L146.821,100.111L147.283,100.111L147.771,100.111L148.191,100.111L148.637,100.111L149.549,100.111L150.013,100.111L150.499,100.111L150.918,100.111L151.364,100.111L152.277,100.111L152.74,100.111L153.227,100.111L153.65,100.111L154.092,100.111L155.003,100.111L155.465,100.111L155.95,100.111L156.371,100.111L156.818,100.111L157.727,100.111L158.183,100.111L158.665,100.111L159.089,100.111L159.543,100.111L160.454,100.111L160.91,100.111L161.393,100.111L161.818,100.111L162.269,100.111L163.187,100.111L163.651,100.111L164.135,100.111L164.552,100.111L164.998,100.111L165.91,100.111L166.372,100.111L166.876,100.111L167.28,100.111L167.727,100.111L168.638,100.111L169.105,100.111L169.606,100.111L170.006,100.111L170.455,100.111L171.365,100.111L171.831,100.111L172.33,100.111L172.736,100.111L173.18,100.111L174.092,100.111L174.554,100.111L175.04,100.111L175.46,100.111L175.906,100.111L176.816,100.111L177.275,100.111L177.756,100.111L178.181,100.111L178.631,100.111L179.546,100.111L179.999,100.111L180.484,100.111L180.908,100.111L181.358,100.111L182.274,100.111L182.748,100.111L183.223,100.111L183.642,100.111L184.092,100.111L185,100.111L185.476,100.111L185.97,100.111L186.368,100.111L186.817,100.111L187.729,100.111L188.195,100.111L188.696,100.111L189.102,100.111L189.541,100.111L190.454,100.111L190.919,100.111L191.42,100.111L191.824,100.111L192.27,100.111L193.18,100.111L193.644,100.111L194.145,100.111L194.551,100.111L194.998,100.111L195.905,100.111L196.362,100.111L196.844,100.111L197.271,100.111L197.72,100.111L198.633,100.111L199.088,100.111L199.574,100.111L199.999,100.111" stroke="#e45756" stroke-width="2"/></g></g><path class="foreground" aria-hidden="true" d="" display="none"/></g><g transform="translate(0,0)"><path class="background" aria-hidden="true" d="M0,0h200v200h-200Z"/><g><g class="mark-line role-mark marks" role="graphics-object" aria-roledescription="line mark container"><path aria-label="Time: Aug 20, 2025; Price: 1199; identifier: thrive-2" role="graphics-symbol" aria-roledescription="line mark" d="M17.101,66.778L17.303,66.778L17.75,66.778L18.661,66.778L19.122,66.778L19.608,66.778L20.031,66.778L20.476,66.778L21.388,66.778L21.848,66.778L22.334,66.778L22.755,66.778L23.201,66.778L24.113,66.778L24.57,66.778L25.052,66.778L25.475,66.778L25.925,66.778L26.844,66.778L27.295,66.778L27.781,66.778L28.205,66.778L28.653,66.778L29.574,66.778L30.034,66.778L30.532,66.778L30.939,66.778L31.383,66.778L32.297,66.778L32.76,66.778L33.663,66.778L34.107,66.778L35.02,66.778L35.481,66.778L35.66,66.778L35.967,66.778L36.271,66.778L36.39,66.778L36.836,66.778L37.747,66.778L38.209,66.778L38.695,66.778L39.116,66.778L39.562,66.778L40.474,66.778L40.934,66.778L41.418,66.778L41.842,66.778L42.287,66.778L43.198,66.778L43.655,66.778L44.137,66.778L44.562,66.778L44.991,66.778L45.012,66.778L45.926,66.778L46.217,66.778L46.38,66.778L46.865,66.778L47.291,66.778L47.74,66.778L48.661,66.778L49.12,66.778L49.603,66.778L50.021,66.778L50.467,66.778L51.384,66.778L51.845,66.778L52.332,66.778L52.75,66.778L53.195,66.778L54.107,66.778L54.567,66.778L55.053,66.778L55.475,66.778L55.921,66.778L56.833,66.778L57.295,66.778L57.777,66.778L58.204,66.778L58.648,66.778L59.561,66.778L60.022,66.778L60.506,66.778L60.926,66.778L61.375,66.778L62.285,66.778L62.519,66.778L62.74,66.778L63.221,66.778L63.648,66.778L64.101,66.778L65.011,66.778L65.467,66.778L65.95,66.778L66.375,66.778L66.828,66.778L67.743,66.778L68.207,66.778L68.693,66.778L69.112,66.778L69.559,66.778L70.469,66.778L70.933,66.778L71.435,66.778L71.841,66.778L72.282,66.778L73.192,66.778L73.657,66.778L74.14,66.778L74.563,66.778L75.011,66.778L75.922,66.778L76.383,66.778L76.866,66.778L77.285,66.778L77.735,66.778L78.647,66.778L79.109,66.778L79.592,66.778L80.013,66.778L80.462,66.778L81.372,66.778L81.829,66.778L82.31,66.778L82.735,66.778L83.189,66.778L84.1,66.778L84.556,66.778L85.035,66.778L85.461,66.778L85.916,66.778L86.832,66.778L87.291,66.778L87.779,66.778L88.199,66.778L88.645,66.778L89.556,66.778L90.021,66.778L90.505,66.778L90.925,66.778L91.372,66.778L92.284,66.778L92.745,66.778L93.232,66.778L93.652,66.778L94.098,66.778L95.011,66.778L95.471,66.778L95.958,66.778L96.377,66.778L96.826,66.778L97.738,66.778L98.198,66.778L98.684,66.778L99.106,66.778L99.551,66.778L100.463,66.778L100.92,66.778L101.402,66.778L101.824,66.778L102.277,66.778L103.19,66.778L103.645,66.778L104.129,66.778L104.554,66.778L105.005,66.778L105.919,66.778L106.383,66.778L106.868,66.778L107.282,66.778L107.734,66.778L108.645,66.778L109.108,66.778L109.593,66.778L110.015,66.778L110.461,66.778L111.373,66.778L111.836,66.778L112.32,66.778L112.744,66.778L113.186,66.778L114.1,66.778L114.563,66.778L115.05,66.778L115.47,66.778L115.912,66.778L116.825,66.778L117.289,66.778L117.773,66.778L118.195,66.778L118.64,66.778L119.552,66.778L120.006,66.778L120.489,66.778L120.914,66.778L121.367,66.778L122.279,66.778L122.734,66.778L123.217,66.778L123.639,66.778L124.093,66.778L125.008,66.778L125.472,66.778L125.958,66.778L126.366,66.778L126.821,66.778L127.734,66.778L128.201,66.778L128.685,66.778L129.102,66.778L129.549,66.778L130.462,66.778L130.925,66.778L131.412,66.778L131.83,66.778L132.276,66.778L133.186,66.778L133.648,66.778L134.132,66.778L134.557,66.778L135.001,66.778L135.912,66.778L136.374,66.778L136.857,66.778L137.282,66.778L137.728,66.778L138.638,66.778L139.096,66.778L139.577,66.778L140.003,66.778L140.454,66.778L141.364,66.778L141.821,66.778L142.305,66.778L142.73,66.778L143.182,66.778L144.094,66.778L144.558,66.778L145.044,66.778L145.465,66.778L145.911,66.778L146.821,66.778L147.284,66.778L147.772,66.778L148.192,66.778L148.637,66.778L149.549,66.778L150.013,66.778L150.499,66.778L150.919,66.778L151.364,66.778L152.277,66.778L152.74,66.778L153.227,66.778L153.65,66.778L154.092,66.778L155.003,66.778L155.465,66.778L155.95,66.778L156.371,66.778L156.818,66.778L157.728,66.778L158.184,66.778L158.665,66.778L159.089,66.778L159.543,66.778L160.455,66.778L160.911,66.778L161.393,66.778L161.819,66.778L162.269,66.778L163.187,66.778L163.652,66.778L164.135,66.778L164.555,66.778L164.998,66.778L165.91,66.778L166.373,66.778L166.876,66.778L167.281,66.778L167.728,66.778L168.639,66.778L169.105,66.778L169.606,66.778L170.007,66.778L170.456,66.778L171.365,66.778L171.831,66.778L172.33,66.778L172.736,66.778L173.181,66.778L174.092,66.778L174.555,66.778L175.04,66.778L175.461,66.778L175.906,66.778L176.816,66.778L177.275,66.778L177.757,66.778L178.181,66.778L178.632,66.778L179.546,66.778L179.999,66.778L180.484,66.778L180.908,66.778L181.358,66.778L182.274,66.778L182.748,66.778L183.223,66.778L183.643,66.778L184.092,66.778L185,66.778L185.476,66.778L185.97,66.778L186.369,66.778L186.818,66.778L187.73,66.778L188.195,66.778L188.696,66.778L189.103,66.778L189.541,66.778L190.454,66.778L190.919,66.778L191.42,66.778L191.825,66.778L192.271,66.778L193.18,66.778L193.644,66.778L194.146,66.778L194.551,66.778L194.998,66.778L195.906,66.778L196.363,66.778L196.845,66.778L197.271,66.778L197.72,66.778L198.633,66.778L199.089,66.778L199.574,66.778L199.999,66.778" stroke="#eeca3b" stroke-width="2"/></g></g><path class="foreground" aria-hidden="true" d="" display="none"/></g><g transform="translate(0,0)"><path class="background" aria-hidden="true" d="M0,0h200v200h-200Z"/><g><g class="mark-line role-mark marks" role="graphics-object" aria-roledescription="line mark container"><path aria-label="Time: Aug 20, 2025; Price: 999; identifier: rove-2" role="graphics-symbol" aria-roledescription="line mark" d="M17.101,89L17.303,89L17.75,89L18.661,89L19.122,89L19.608,89L20.031,89L20.476,89L21.388,89L21.848,89L22.334,89L22.755,89L23.201,89L24.113,89L24.57,89L25.052,89L25.475,89L25.925,89L26.844,89L27.296,89L27.781,89L28.205,89L28.653,89L29.574,89L30.034,89L30.532,89L30.939,89L31.383,89L32.297,89L32.76,89L33.663,89L34.107,89L35.02,89L35.481,89L35.66,89L35.967,89L36.271,89L36.39,89L36.836,89L37.747,89L38.209,89L38.695,89L39.116,89L39.562,89L40.474,89L40.934,89L41.419,89L41.842,89L42.287,89L44.991,111.222L45.012,111.222L45.926,111.222L46.217,111.222L46.38,111.222L46.865,111.222L47.291,111.222L47.74,111.222L48.661,111.222L49.12,111.222L49.604,111.222L50.021,111.222L50.467,111.222L51.384,111.222L51.845,111.222L52.332,111.222L52.75,111.222L53.195,111.222L54.107,111.222L54.567,111.222L55.053,111.222L55.475,111.222L55.921,111.222L56.833,111.222L57.295,111.222L57.778,111.222L58.204,111.222L58.648,111.222L59.561,111.222L60.022,111.222L60.506,111.222L60.926,111.222L61.375,111.222L62.285,111.222L62.519,111.222L62.74,111.222L63.221,111.222L63.648,111.222L64.101,111.222L65.011,111.222L65.467,111.222L65.95,111.222L66.376,111.222L66.828,111.222L67.743,111.222L68.207,111.222L68.693,111.222L69.112,111.222L69.559,111.222L70.469,111.222L70.933,111.222L71.435,111.222L71.841,111.222L72.282,111.222L73.192,111.222L73.657,111.222L74.14,111.222L74.563,111.222L75.011,111.222L75.922,111.222L76.383,111.222L76.866,111.222L77.285,111.222L77.735,111.222L78.647,111.222L79.109,111.222L79.592,111.222L80.013,111.222L80.462,111.222L81.372,111.222L81.829,111.222L82.31,111.222L82.735,111.222L83.189,111.222L84.1,111.222L84.556,111.222L85.035,111.222L85.461,111.222L85.916,111.222L86.832,111.222L87.291,111.222L87.779,111.222L88.199,111.222L88.645,111.222L89.556,111.222L90.021,111.222L90.505,111.222L90.925,111.222L91.372,111.222L92.284,111.222L92.745,111.222L93.232,111.222L93.652,111.222L94.098,111.222L95.011,111.222L95.471,111.222L95.958,111.222L96.377,111.222L96.826,111.222L97.738,111.222L98.198,111.222L98.684,111.222L99.106,111.222L99.551,111.222L100.463,111.222L100.92,111.222L101.403,111.222L101.824,111.222L102.277,111.222L103.19,111.222L103.645,111.222L104.129,111.222L104.554,111.222L105.005,111.222L105.919,111.222L106.383,111.222L106.868,111.222L107.282,111.222L107.734,111.222L108.645,111.222L109.108,111.222L109.593,111.222L110.016,111.222L110.461,111.222L111.373,111.222L111.836,111.222L112.321,111.222L112.744,111.222L113.186,111.222L114.1,111.222L114.563,111.222L115.05,111.222L115.47,111.222L115.912,111.222L116.825,111.222L117.289,111.222L117.773,111.222L118.195,111.222L118.64,111.222L119.552,111.222L120.006,111.222L120.489,111.222L120.914,111.222L121.367,111.222L122.279,111.222L122.734,111.222L123.217,111.222L123.639,111.222L124.093,111.222L125.008,111.222L125.473,111.222L125.958,111.222L126.366,111.222L126.822,111.222L127.734,111.222L128.201,111.222L128.685,111.222L129.102,111.222L129.549,111.222L130.463,111.222L130.925,111.222L131.412,111.222L131.83,111.222L132.276,111.222L133.186,111.222L133.648,111.222L134.132,111.222L134.557,111.222L135.001,111.222L135.912,111.222L136.374,111.222L136.858,111.222L137.282,111.222L137.728,111.222L138.638,111.222L139.096,111.222L139.577,111.222L140.003,111.222L140.454,111.222L141.364,111.222L141.821,111.222L142.305,111.222L142.73,111.222L143.182,111.222L144.095,111.222L144.558,111.222L145.044,111.222L145.465,111.222L145.911,111.222L146.821,111.222L147.284,111.222L147.772,111.222L148.192,111.222L148.637,111.222L149.549,111.222L150.013,111.222L150.5,111.222L150.919,111.222L151.365,111.222L152.277,111.222L152.74,111.222L153.227,111.222L153.65,111.222L154.092,111.222L155.003,111.222L155.465,111.222L155.95,111.222L156.372,111.222L156.818,111.222L157.728,111.222L158.184,111.222L158.666,111.222L159.089,111.222L159.543,111.222L160.455,111.222L160.911,111.222L161.393,111.222L161.819,111.222L162.27,111.222L163.187,111.222L163.652,111.222L164.135,111.222L164.555,111.222L164.998,111.222L165.91,111.222L166.373,111.222L166.876,111.222L167.281,111.222L167.728,111.222L168.639,111.222L169.105,111.222L169.606,111.222L170.007,111.222L170.456,111.222L171.365,111.222L171.832,111.222L172.33,111.222L172.736,111.222L173.181,111.222L174.092,111.222L174.555,111.222L175.04,111.222L175.461,111.222L175.907,111.222L176.816,111.222L177.276,111.222L177.757,111.222L178.181,111.222L178.632,111.222L179.546,111.222L179.999,111.222L180.484,111.222L180.908,111.222L181.358,111.222L182.274,111.222L182.749,111.222L183.223,111.222L183.643,111.222L184.093,111.222L185,111.222L185.476,111.222L185.971,111.222L186.369,111.222L186.818,111.222L187.73,111.222L188.195,111.222L188.696,111.222L189.103,111.222L189.541,111.222L190.454,111.222L190.919,111.222L191.421,111.222L191.825,111.222L192.271,111.222L193.18,111.222L193.645,111.222L194.146,111.222L194.551,111.222L194.998,111.222L195.906,111.222L196.363,111.222L196.845,111.222L197.271,111.222L197.72,111.222L198.633,111.222L199.089,111.222L199.574,111.222L199.999,111.222" stroke="#72b7b2" stroke-width="2"/></g></g><path class="foreground" aria-hidden="true" d="" display="none"/></g><g transform="translate(0,0)"><path class="background" aria-hidden="true" d="M0,0h200v200h-200Z"/><g><g class="mark-line role-mark marks" role="graphics-object" aria-roledescription="line mark container"><path aria-label="Time: Aug 27, 2025; Price: 1199; identifier: allure-rs-1-2023" role="graphics-symbol" aria-roledescription="line mark" d="M35.66,66.778L35.967,66.778L36.271,66.778L36.39,66.778L36.836,66.778L37.747,66.778L38.209,66.778L38.695,66.778L39.116,66.778L39.562,66.778L40.474,66.778L40.934,66.778L41.419,66.778L41.842,66.778L42.287,66.778L43.198,66.778L43.655,66.778L44.137,66.778L44.562,66.778L44.991,66.778L45.012,66.778L45.926,66.778L46.217,66.778L46.38,66.778L46.865,66.778L47.291,66.778L47.74,66.778L48.661,66.778L49.12,66.778L49.604,66.778L50.021,66.778L50.467,66.778L51.384,66.778L51.845,66.778L52.332,66.778L52.75,66.778L53.195,66.778L54.107,66.778L54.567,66.778L55.053,66.778L55.475,66.778L55.921,66.778L56.833,66.778L57.295,66.778L57.778,66.778L58.204,66.778L58.648,66.778L59.561,66.778L60.022,66.778L60.506,66.778L60.926,66.778L61.376,66.778L62.285,66.778L62.519,66.778L62.741,66.778L63.222,66.778L63.648,66.778L64.101,66.778L65.011,66.778L65.467,66.778L65.95,66.778L66.376,66.778L66.828,66.778L67.743,66.778L68.207,66.778L68.693,66.778L69.112,66.778L69.559,66.778L70.469,66.778L70.933,66.778L71.435,66.778L71.841,66.778L72.282,66.778L73.192,66.778L73.657,66.778L74.14,66.778L74.563,66.778L75.011,66.778L75.923,66.778L76.383,66.778L76.866,66.778L77.285,66.778L77.735,66.778L78.647,66.778L79.109,66.778L79.592,66.778L80.013,66.778L80.462,66.778L81.372,66.778L81.829,66.778L82.311,66.778L82.735,66.778L83.189,66.778L84.1,66.778L84.556,66.778L85.036,66.778L85.461,66.778L85.916,66.778L86.832,66.778L87.291,66.778L87.779,66.778L88.199,66.778L88.645,66.778L89.556,66.778L90.021,66.778L90.505,66.778L90.925,66.778L91.372,66.778L92.284,66.778L92.745,66.778L93.232,66.778L93.652,66.778L94.099,66.778L95.011,66.778L95.471,66.778L95.958,66.778L96.378,66.778L96.826,66.778L97.738,66.778L98.198,66.778L98.684,66.778L99.106,66.778L99.551,66.778L100.463,66.778L100.92,66.778L101.403,66.778L101.824,66.778L102.277,66.778L103.19,66.778L103.645,66.778L104.129,66.778L104.554,66.778L105.005,66.778L105.919,66.778L106.383,66.778L106.868,66.778L107.282,66.778L107.735,66.778L108.645,66.778L109.108,66.778L109.593,66.778L110.016,66.778L110.461,66.778L111.373,66.778L111.836,66.778L112.321,66.778L112.744,66.778L113.186,66.778L114.1,66.778L114.563,66.778L115.05,66.778L115.471,66.778L115.912,66.778L116.826,66.778L117.289,66.778L117.773,66.778L118.195,66.778L118.64,66.778L119.552,66.778L120.007,66.778L120.489,66.778L120.914,66.778L121.367,66.778L122.279,66.778L122.734,66.778L123.217,66.778L123.639,66.778L124.093,66.778L125.008,66.778L125.473,66.778L125.958,66.778L126.366,66.778L126.822,66.778L127.734,66.778L128.201,66.778L128.685,66.778L129.102,66.778L129.549,66.778L130.463,66.778L130.925,66.778L131.412,66.778L131.831,66.778L132.276,66.778L133.186,66.778L133.648,66.778L134.132,66.778L134.557,66.778L135.001,66.778L135.912,66.778L136.374,66.778L136.858,66.778L137.282,66.778L137.728,66.778L138.638,66.778L139.096,66.778L139.577,66.778L140.003,66.778L140.454,66.778L141.364,66.778L141.821,66.778L142.305,66.778L142.73,66.778L143.182,66.778L144.095,66.778L144.558,66.778L145.044,66.778L145.465,66.778L145.911,66.778L146.821,66.778L147.284,66.778L147.772,66.778L148.192,66.778L148.637,66.778L149.549,66.778L150.013,66.778L150.5,66.778L150.919,66.778L151.365,66.778L152.278,66.778L152.74,66.778L153.227,66.778L153.65,66.778L154.092,66.778L155.003,66.778L155.465,66.778L155.95,66.778L156.372,66.778L156.818,66.778L157.728,66.778L158.184,66.778L158.666,66.778L159.089,66.778L159.543,66.778L160.455,66.778L160.911,66.778L161.393,66.778L161.819,66.778L162.27,66.778L163.187,66.778L163.652,66.778L164.135,66.778L164.555,66.778L164.998,66.778L165.911,66.778L166.373,66.778L166.876,66.778L167.281,66.778L167.728,66.778L168.639,66.778L169.105,66.778L169.606,66.778L170.007,66.778L170.456,66.778L171.365,66.778L171.832,66.778L172.33,66.778L172.736,66.778L173.181,66.778L174.092,66.778L174.555,66.778L175.04,66.778L175.461,66.778L175.907,66.778L176.816,66.778L177.276,66.778L177.757,66.778L178.181,66.778L178.632,66.778L179.546,66.778L179.999,66.778L180.484,66.778L180.908,66.778L181.359,66.778L182.274,66.778L182.749,66.778L183.223,66.778L183.643,66.778L184.093,66.778L185,66.778L185.476,66.778L185.971,66.778L186.369,66.778L186.818,66.778L187.73,66.778L188.196,66.778L188.697,66.778L189.103,66.778L189.541,66.778L190.454,66.778L190.919,66.778L191.421,66.778L191.825,66.778L192.271,66.778L193.18,66.778L193.645,66.778L194.146,66.778L194.552,66.778L194.998,66.778L195.906,66.778L196.363,66.778L196.845,66.778L197.271,66.778L197.72,66.778L198.633,66.778L199.089,66.778L199.574,66.778L200,66.778" stroke="#b279a2" stroke-width="2"/></g></g><path class="foreground" aria-hidden="true" d="" display="none"/></g><g transform="translate(0,0)"><path class="background" aria-hidden="true" d="M0,0h200v200h-200Z"/><g><g class="mark-line role-mark marks" role="graphics-object" aria-roledescription="line mark container"><path aria-label="Time: Aug 27, 2025; Price: 999; identifier: allure-rs-2-2022" role="graphics-symbol" aria-roledescription="line mark" d="M35.661,89L35.967,89L36.271,89L36.39,89L36.836,89L37.747,89L38.209,89L38.695,89L39.116,89L39.562,89L40.474,89L40.934,89L41.419,89L41.842,89L42.287,89L44.991,111.222L45.013,111.222L45.926,111.222L46.217,111.222L46.38,111.222L46.865,111.222L47.291,111.222L47.74,111.222L48.661,111.222L49.12,111.222L49.604,111.222L50.021,111.222L50.467,111.222L51.384,111.222L51.845,111.222L52.332,111.222L52.75,111.222L53.196,111.222L54.107,111.222L54.567,111.222L55.053,111.222L55.475,111.222L55.921,111.222L56.834,111.222L57.295,111.222L57.778,111.222L58.204,111.222L58.648,111.222L59.562,111.222L60.022,111.222L60.506,111.222L60.926,111.222L61.376,111.222L62.285,111.222L62.519,111.222L62.741,111.222L63.222,111.222L63.648,111.222L64.101,111.222L65.012,111.222L65.467,111.222L65.95,111.222L66.376,111.222L66.828,111.222L67.743,111.222L68.207,111.222L68.693,111.222L69.112,111.222L69.559,111.222L70.469,111.222L70.933,111.222L71.436,111.222L71.841,111.222L72.283,111.222L73.192,111.222L73.657,111.222L74.14,111.222L74.563,111.222L75.011,111.222L75.923,111.222L76.383,111.222L76.866,111.222L77.285,111.222L77.735,111.222L78.647,111.222L79.109,111.222L79.592,111.222L80.013,111.222L80.462,111.222L81.373,111.222L81.829,111.222L82.311,111.222L82.735,111.222L83.189,111.222L84.1,111.222L84.556,111.222L85.036,111.222L85.461,111.222L85.916,111.222L86.832,111.222L87.291,111.222L87.779,111.222L88.199,111.222L88.645,111.222L89.556,111.222L90.021,111.222L90.505,111.222L90.925,111.222L91.372,111.222L92.284,111.222L92.745,111.222L93.232,111.222L93.652,111.222L94.099,111.222L95.011,111.222L95.472,111.222L95.958,111.222L96.378,111.222L96.826,111.222L97.738,111.222L98.198,111.222L98.684,111.222L99.106,111.222L99.551,111.222L100.463,111.222L100.92,111.222L101.403,111.222L101.825,111.222L102.277,111.222L103.191,111.222L103.645,111.222L104.129,111.222L104.554,111.222L105.005,111.222L105.919,111.222L106.383,111.222L106.868,111.222L107.282,111.222L107.735,111.222L108.645,111.222L109.108,111.222L109.593,111.222L110.016,111.222L110.461,111.222L111.373,111.222L111.836,111.222L112.321,111.222L112.744,111.222L113.186,111.222L114.1,111.222L114.564,111.222L115.05,111.222L115.471,111.222L115.913,111.222L116.826,111.222L117.289,111.222L117.774,111.222L118.195,111.222L118.64,111.222L119.552,111.222L120.007,111.222L120.489,111.222L120.914,111.222L121.367,111.222L122.279,111.222L122.734,111.222L123.217,111.222L123.639,111.222L124.093,111.222L125.008,111.222L125.473,111.222L125.958,111.222L126.366,111.222L126.822,111.222L127.734,111.222L128.201,111.222L128.685,111.222L129.103,111.222L129.549,111.222L130.463,111.222L130.925,111.222L131.412,111.222L131.831,111.222L132.276,111.222L133.186,111.222L133.648,111.222L134.132,111.222L134.557,111.222L135.001,111.222L135.912,111.222L136.375,111.222L136.858,111.222L137.282,111.222L137.728,111.222L138.638,111.222L139.096,111.222L139.577,111.222L140.003,111.222L140.454,111.222L141.364,111.222L141.821,111.222L142.305,111.222L142.73,111.222L143.182,111.222L144.095,111.222L144.558,111.222L145.044,111.222L145.465,111.222L145.911,111.222L146.821,111.222L147.284,111.222L147.772,111.222L148.192,111.222L148.638,111.222L149.55,111.222L150.013,111.222L150.5,111.222L150.919,111.222L151.365,111.222L152.278,111.222L152.74,111.222L153.227,111.222L153.65,111.222L154.092,111.222L155.003,111.222L155.465,111.222L155.95,111.222L156.372,111.222L156.818,111.222L157.728,111.222L158.184,111.222L158.666,111.222L159.089,111.222L159.543,111.222L160.455,111.222L160.911,111.222L161.393,111.222L161.819,111.222L162.27,111.222L163.187,111.222L163.652,111.222L164.135,111.222L164.555,111.222L164.998,111.222L165.911,111.222L166.373,111.222L166.877,111.222L167.281,111.222L167.728,111.222L168.639,111.222L169.105,111.222L169.606,111.222L170.007,111.222L170.456,111.222L171.365,111.222L171.832,111.222L172.33,111.222L172.736,111.222L173.181,111.222L174.092,111.222L174.555,111.222L175.04,111.222L175.461,111.222L175.907,111.222L176.816,111.222L177.276,111.222L177.757,111.222L178.181,111.222L178.632,111.222L179.547,111.222L179.999,111.222L180.484,111.222L180.909,111.222L181.359,111.222L182.275,111.222L182.749,111.222L183.223,111.222L183.643,111.222L184.093,111.222L185,111.222L185.476,111.222L185.971,111.222L186.369,111.222L186.818,111.222L187.73,111.222L188.196,111.222L188.697,111.222L189.103,111.222L189.541,111.222L190.454,111.222L190.92,111.222L191.421,111.222L191.825,111.222L192.271,111.222L193.18,111.222L193.645,111.222L194.146,111.222L194.552,111.222L194.998,111.222L195.906,111.222L196.363,111.222L196.845,111.222L197.271,111.222L197.721,111.222L198.634,111.222L199.089,111.222L199.574,111.222L200,111.222" stroke="#54a24b" stroke-width="2"/></g></g><path class="foreground" aria-hidden="true" d="" display="none"/></g><g transform="translate(0,0)"><path class="background" aria-hidden="true" d="M0,0h200v200h-200Z"/><g><g class="mark-line role-mark marks" role="graphics-object" aria-roledescription="line mark container"><path aria-label="Time: Aug 27, 2025; Price: 949; identifier: allure-rs-2-2023" role="graphics-symbol" aria-roledescription="line mark" d="M35.661,94.556L35.967,94.556L36.271,94.556L36.39,94.556L36.836,94.556L37.747,94.556L38.209,94.556L38.695,94.556L39.117,94.556L39.562,94.556L40.474,94.556L40.934,94.556L41.419,94.556L41.842,94.556L42.287,94.556L43.198,94.556L43.655,94.556L44.137,94.556L44.563,94.556L44.991,94.556L45.013,94.556L45.926,94.556L46.217,94.556L46.381,94.556L46.865,94.556L47.291,94.556L47.74,94.556L48.661,94.556L49.12,94.556L49.604,94.556L50.021,94.556L50.467,94.556L51.384,94.556L51.845,94.556L52.332,94.556L52.75,94.556L53.196,94.556L54.107,94.556L54.568,94.556L55.053,94.556L55.476,94.556L55.922,94.556L56.834,94.556L57.296,94.556L57.778,94.556L58.204,94.556L58.648,94.556L59.562,94.556L60.022,94.556L60.506,94.556L60.926,94.556L61.376,94.556L62.286,94.556L62.519,94.556L62.741,94.556L63.222,94.556L63.649,94.556L64.101,94.556L65.012,94.556L65.467,94.556L65.95,94.556L66.376,94.556L66.828,94.556L67.743,94.556L68.207,94.556L68.693,94.556L69.112,94.556L69.559,94.556L70.469,94.556L70.933,94.556L71.436,94.556L71.841,94.556L72.283,94.556L73.192,94.556L73.657,94.556L74.14,94.556L74.563,94.556L75.011,94.556L75.923,94.556L76.383,94.556L76.866,94.556L77.285,94.556L77.735,94.556L78.647,94.556L79.109,94.556L79.592,94.556L80.013,94.556L80.462,94.556L81.373,94.556L81.829,94.556L82.311,94.556L82.735,94.556L83.189,94.556L84.101,94.556L84.556,94.556L85.036,94.556L85.461,94.556L85.916,94.556L86.832,94.556L87.292,94.556L87.779,94.556L88.199,94.556L88.645,94.556L89.557,94.556L90.021,94.556L90.505,94.556L90.925,94.556L91.372,94.556L92.284,94.556L92.745,94.556L93.232,94.556L93.652,94.556L94.099,94.556L95.011,94.556L95.472,94.556L95.958,94.556L96.378,94.556L96.826,94.556L97.738,94.556L98.199,94.556L98.684,94.556L99.106,94.556L99.551,94.556L100.463,94.556L100.921,94.556L101.403,94.556L101.825,94.556L102.277,94.556L103.191,94.556L103.645,94.556L104.129,94.556L104.554,94.556L105.005,94.556L105.919,94.556L106.383,94.556L106.869,94.556L107.283,94.556L107.735,94.556L108.645,94.556L109.108,94.556L109.593,94.556L110.016,94.556L110.461,94.556L111.373,94.556L111.836,94.556L112.321,94.556L112.744,94.556L113.186,94.556L114.1,94.556L114.564,94.556L115.05,94.556L115.471,94.556L115.913,94.556L116.826,94.556L117.289,94.556L117.774,94.556L118.195,94.556L118.64,94.556L119.552,94.556L120.007,94.556L120.489,94.556L120.915,94.556L121.367,94.556L122.279,94.556L122.734,94.556L123.217,94.556L123.639,94.556L124.093,94.556L125.008,94.556L125.473,94.556L125.958,94.556L126.366,94.556L126.822,94.556L127.734,94.556L128.201,94.556L128.685,94.556L129.103,94.556L129.549,94.556L130.463,94.556L130.926,94.556L131.412,94.556L131.831,94.556L132.276,94.556L133.186,94.556L133.648,94.556L134.132,94.556L134.557,94.556L135.002,94.556L135.912,94.556L136.375,94.556L136.858,94.556L137.282,94.556L137.728,94.556L138.638,94.556L139.096,94.556L139.577,94.556L140.003,94.556L140.455,94.556L141.364,94.556L141.821,94.556L142.305,94.556L142.73,94.556L143.182,94.556L144.095,94.556L144.558,94.556L145.044,94.556L145.465,94.556L145.911,94.556L146.821,94.556L147.284,94.556L147.772,94.556L148.192,94.556L148.638,94.556L149.55,94.556L150.013,94.556L150.5,94.556L150.919,94.556L151.365,94.556L152.278,94.556L152.741,94.556L153.227,94.556L153.65,94.556L154.092,94.556L155.003,94.556L155.465,94.556L155.95,94.556L156.372,94.556L156.819,94.556L157.728,94.556L158.184,94.556L158.666,94.556L159.089,94.556L159.543,94.556L160.455,94.556L160.911,94.556L161.393,94.556L161.819,94.556L162.27,94.556L163.188,94.556L163.652,94.556L164.135,94.556L164.555,94.556L164.998,94.556L165.911,94.556L166.373,94.556L166.877,94.556L167.282,94.556L167.728,94.556L168.639,94.556L169.105,94.556L169.606,94.556L170.007,94.556L170.456,94.556L171.366,94.556L171.832,94.556L172.331,94.556L172.736,94.556L173.181,94.556L174.092,94.556L174.555,94.556L175.041,94.556L175.461,94.556L175.907,94.556L176.816,94.556L177.276,94.556L177.757,94.556L178.181,94.556L178.632,94.556L179.547,94.556L179.999,94.556L180.484,94.556L180.909,94.556L181.359,94.556L182.275,94.556L182.749,94.556L183.223,94.556L183.643,94.556L184.093,94.556L185,94.556L185.477,94.556L185.971,94.556L186.369,94.556L186.818,94.556L187.73,94.556L188.196,94.556L188.697,94.556L189.103,94.556L189.541,94.556L190.454,94.556L190.92,94.556L191.421,94.556L191.825,94.556L192.271,94.556L193.18,94.556L193.645,94.556L194.146,94.556L194.552,94.556L194.998,94.556L195.906,94.556L196.363,94.556L196.845,94.556L197.271,94.556L197.721,94.556L198.634,94.556L199.089,94.556L199.575,94.556L200,94.556" stroke="#bab0ac" stroke-width="2"/></g></g><path class="foreground" aria-hidden="true" d="" display="none"/></g><g transform="translate(0,0)"><path class="background" aria-hidden="true" d="M0,0h200v200h-200Z"/><g><g class="mark-line role-mark marks" role="graphics-object" aria-roledescription="line mark container"><path aria-label="Time: Aug 27, 2025; Price: 999; identifier: allure-rs-2-2024" role="graphics-symbol" aria-roledescription="line mark" d="M35.661,89L35.967,89L36.271,89L36.39,89L36.836,89L37.747,89L38.209,89L38.695,89L39.117,89L39.562,89L40.474,89L40.934,89L41.419,89L41.842,89L42.288,89L44.992,111.222L45.013,111.222L45.926,111.222L46.217,111.222L46.381,111.222L46.866,111.222L47.291,111.222L47.741,111.222L48.661,111.222L49.12,111.222L49.604,111.222L50.021,111.222L50.467,111.222L51.384,111.222L51.845,111.222L52.332,111.222L52.75,111.222L53.196,111.222L54.107,111.222L54.568,111.222L55.053,111.222L55.476,111.222L55.922,111.222L56.834,111.222L57.296,111.222L57.778,111.222L58.205,111.222L58.648,111.222L59.562,111.222L60.022,111.222L60.506,111.222L60.926,111.222L61.376,111.222L62.286,111.222L62.519,111.222L62.741,111.222L63.222,111.222L63.649,111.222L64.101,111.222L65.012,111.222L65.467,111.222L65.95,111.222L66.376,111.222L66.828,111.222L67.743,111.222L68.207,111.222L68.693,111.222L69.112,111.222L69.559,111.222L70.469,111.222L70.933,111.222L71.436,111.222L71.841,111.222L72.283,111.222L73.192,111.222L73.657,111.222L74.141,111.222L74.564,111.222L75.011,111.222L75.923,111.222L76.383,111.222L76.866,111.222L77.285,111.222L77.735,111.222L78.647,111.222L79.109,111.222L79.592,111.222L80.013,111.222L80.462,111.222L81.373,111.222L81.829,111.222L82.311,111.222L82.735,111.222L83.189,111.222L84.101,111.222L84.556,111.222L85.036,111.222L85.461,111.222L85.916,111.222L86.832,111.222L87.292,111.222L87.779,111.222L88.199,111.222L88.645,111.222L89.557,111.222L90.021,111.222L90.505,111.222L90.925,111.222L91.372,111.222L92.284,111.222L92.745,111.222L93.232,111.222L93.652,111.222L94.099,111.222L95.011,111.222L95.472,111.222L95.958,111.222L96.378,111.222L96.826,111.222L97.738,111.222L98.199,111.222L98.684,111.222L99.106,111.222L99.551,111.222L100.463,111.222L100.921,111.222L101.403,111.222L101.825,111.222L102.277,111.222L103.191,111.222L103.645,111.222L104.129,111.222L104.554,111.222L105.005,111.222L105.919,111.222L106.383,111.222L106.869,111.222L107.283,111.222L107.735,111.222L108.645,111.222L109.108,111.222L109.593,111.222L110.016,111.222L110.461,111.222L111.373,111.222L111.836,111.222L112.321,111.222L112.745,111.222L113.186,111.222L114.1,111.222L114.564,111.222L115.05,111.222L115.471,111.222L115.913,111.222L116.826,111.222L117.289,111.222L117.774,111.222L118.195,111.222L118.64,111.222L119.552,111.222L120.007,111.222L120.49,111.222L120.915,111.222L121.367,111.222L122.279,111.222L122.734,111.222L123.217,111.222L123.639,111.222L124.093,111.222L125.009,111.222L125.473,111.222L125.958,111.222L126.366,111.222L126.822,111.222L127.734,111.222L128.201,111.222L128.685,111.222L129.103,111.222L129.549,111.222L130.463,111.222L130.926,111.222L131.412,111.222L131.831,111.222L132.276,111.222L133.186,111.222L133.648,111.222L134.132,111.222L134.557,111.222L135.002,111.222L135.912,111.222L136.375,111.222L136.858,111.222L137.282,111.222L137.728,111.222L138.638,111.222L139.096,111.222L139.577,111.222L140.003,111.222L140.455,111.222L141.364,111.222L141.821,111.222L142.305,111.222L142.73,111.222L143.182,111.222L144.095,111.222L144.558,111.222L145.045,111.222L145.465,111.222L145.911,111.222L146.821,111.222L147.284,111.222L147.772,111.222L148.192,111.222L148.638,111.222L149.55,111.222L150.013,111.222L150.5,111.222L150.919,111.222L151.365,111.222L152.278,111.222L152.741,111.222L153.227,111.222L153.65,111.222L154.092,111.222L155.003,111.222L155.465,111.222L155.95,111.222L156.372,111.222L156.819,111.222L157.728,111.222L158.184,111.222L158.666,111.222L159.09,111.222L159.543,111.222L160.455,111.222L160.911,111.222L161.393,111.222L161.819,111.222L162.27,111.222L163.188,111.222L163.652,111.222L164.135,111.222L164.555,111.222L164.999,111.222L165.911,111.222L166.373,111.222L166.877,111.222L167.282,111.222L167.728,111.222L168.639,111.222L169.105,111.222L169.607,111.222L170.007,111.222L170.456,111.222L171.366,111.222L171.832,111.222L172.331,111.222L172.736,111.222L173.181,111.222L174.092,111.222L174.555,111.222L175.041,111.222L175.461,111.222L175.907,111.222L176.816,111.222L177.276,111.222L177.757,111.222L178.181,111.222L178.632,111.222L179.547,111.222L179.999,111.222L180.485,111.222L180.909,111.222L181.359,111.222L182.275,111.222L182.749,111.222L183.223,111.222L183.643,111.222L184.093,111.222L185,111.222L185.477,111.222L185.971,111.222L186.369,111.222L186.818,111.222L187.73,111.222L188.196,111.222L188.697,111.222L189.103,111.222L189.541,111.222L190.454,111.222L190.92,111.222L191.421,111.222L191.825,111.222L192.271,111.222L193.18,111.222L193.645,111.222L194.146,111.222L194.552,111.222L194.998,111.222L195.906,111.222L196.363,111.222L196.845,111.222L197.271,111.222L197.721,111.222L198.634,111.222L199.089,111.222L199.575,111.222L200,111.222" stroke="#eeca3b" stroke-width="2"/></g></g><path class="foreground" aria-hidden="true" d="" display="none"/></g><g transform="translate(0,0)"><path class="background" aria-hidden="true" d="M0,0h200v200h-200Z"/><g><g class="mark-line role-mark marks" role="graphics-object" aria-roledescription="line mark container"><path aria-label="Time: Aug 27, 2025; Price: 1799; identifier: devote-1-2024" role="graphics-symbol" aria-roledescription="line mark" d="M36.271,0.111L36.39,0.111L36.836,0.111L37.747,0.111L38.209,0.111L38.695,0.111L39.117,0.111L39.562,0.111L40.474,0.111L40.934,0.111L41.419,0.111L41.842,0.111L42.288,0.111L44.992,44.556L45.013,44.556L45.926,44.556L46.217,44.556L46.381,44.556L46.866,44.556L47.291,44.556L47.741,44.556L48.662,44.556L49.12,44.556L49.604,44.556L50.022,44.556L50.467,44.556L51.384,44.556L51.845,44.556L52.333,44.556L52.75,44.556L53.196,44.556L54.107,44.556L54.568,44.556L55.053,44.556L55.476,44.556L55.922,44.556L56.834,44.556L57.296,44.556L57.778,44.556L58.205,44.556L58.648,44.556L59.562,44.556L60.022,44.556L60.506,44.556L60.926,44.556L61.376,44.556L62.286,44.556L62.52,44.556L62.741,44.556L63.222,44.556L63.649,44.556L64.101,44.556L65.012,44.556L65.467,44.556L65.95,44.556L66.376,44.556L66.828,44.556L67.743,44.556L68.207,44.556L68.694,44.556L69.112,44.556L69.559,44.556L70.469,44.556L70.933,44.556L71.436,44.556L71.841,44.556L72.283,44.556L73.192,44.556L73.657,44.556L74.141,44.556L74.564,44.556L75.011,44.556L75.923,44.556L76.383,44.556L76.866,44.556L77.285,44.556L77.735,44.556L78.648,44.556L79.109,44.556L79.592,44.556L80.013,44.556L80.462,44.556L81.373,44.556L81.829,44.556L82.311,44.556L82.735,44.556L83.189,44.556L84.101,44.556L84.556,44.556L85.036,44.556L85.461,44.556L85.916,44.556L86.832,44.556L87.292,44.556L87.779,44.556L88.2,44.556L88.646,44.556L89.557,44.556L90.021,44.556L90.505,44.556L90.925,44.556L91.372,44.556L92.285,44.556L92.746,44.556L93.232,44.556L93.653,44.556L94.099,44.556L95.011,44.556L95.472,44.556L95.958,44.556L96.378,44.556L96.826,44.556L97.738,44.556L98.199,44.556L98.684,44.556L99.106,44.556L99.551,44.556L100.463,44.556L100.921,44.556L101.403,44.556L101.825,44.556L102.277,44.556L103.191,44.556L103.645,44.556L104.129,44.556L104.554,44.556L105.005,44.556L105.919,44.556L106.383,44.556L106.869,44.556L107.283,44.556L107.735,44.556L108.645,44.556L109.108,44.556L109.593,44.556L110.016,44.556L110.461,44.556L111.373,44.556L111.836,44.556L112.321,44.556L112.745,44.556L113.186,44.556L114.1,44.556L114.564,44.556L115.05,44.556L115.471,44.556L115.913,44.556L116.826,44.556L117.289,44.556L117.774,44.556L118.195,44.556L118.64,44.556L119.552,44.556L120.007,44.556L120.49,44.556L120.915,44.556L121.367,44.556L122.279,44.556L122.734,44.556L123.218,44.556L123.639,44.556L124.093,44.556L125.009,44.556L125.473,44.556L125.958,44.556L126.367,44.556L126.822,44.556L127.734,44.556L128.201,44.556L128.685,44.556L129.103,44.556L129.549,44.556L130.463,44.556L130.926,44.556L131.412,44.556L131.831,44.556L132.276,44.556L133.186,44.556L133.648,44.556L134.132,44.556L134.557,44.556L135.002,44.556L135.912,44.556L136.375,44.556L136.858,44.556L137.282,44.556L137.728,44.556L138.639,44.556L139.096,44.556L139.577,44.556L140.003,44.556L140.455,44.556L141.364,44.556L141.821,44.556L142.305,44.556L142.73,44.556L143.182,44.556L144.095,44.556L144.558,44.556L145.045,44.556L145.465,44.556L145.911,44.556L146.821,44.556L147.284,44.556L147.772,44.556L148.192,44.556L148.638,44.556L149.55,44.556L150.013,44.556L150.5,44.556L150.919,44.556L151.365,44.556L152.278,44.556L152.741,44.556L153.228,44.556L153.65,44.556L154.092,44.556L155.003,44.556L155.465,44.556L155.95,44.556L156.372,44.556L156.819,44.556L157.728,44.556L158.184,44.556L158.666,44.556L159.09,44.556L159.543,44.556L160.455,44.556L160.911,44.556L161.393,44.556L161.819,44.556L162.27,44.556L163.188,44.556L163.652,44.556L164.135,44.556L164.555,44.556L164.999,44.556L165.911,44.556L166.373,44.556L166.877,44.556L167.282,44.556L167.728,44.556L168.639,44.556L169.105,44.556L169.607,44.556L170.007,44.556L170.456,44.556L171.367,44.556L171.832,44.556L172.331,44.556L172.736,44.556L173.181,44.556L174.092,44.556L174.555,44.556L175.041,44.556L175.461,44.556L175.907,44.556L176.817,44.556L177.276,44.556L177.757,44.556L178.181,44.556L178.632,44.556L179.547,44.556L179.999,44.556L180.485,44.556L180.909,44.556L181.359,44.556L182.275,44.556L182.749,44.556L183.223,44.556L183.643,44.556L184.093,44.556L185,44.556L185.477,44.556L185.971,44.556L186.369,44.556L186.818,44.556L187.73,44.556L188.196,44.556L188.697,44.556L189.103,44.556L189.541,44.556L190.454,44.556L190.92,44.556L191.421,44.556L191.825,44.556L192.271,44.556L193.18,44.556L193.645,44.556L194.146,44.556L194.552,44.556L194.998,44.556L195.906,44.556L196.363,44.556L196.845,44.556L197.272,44.556L197.721,44.556L198.634,44.556L199.089,44.556L199.575,44.556L200,44.556" stroke="#72b7b2" stroke-width="2"/></g></g><path class="foreground" aria-hidden="true" d="" display="none"/></g><g transform="translate(0,0)"><path class="background" aria-hidden="true" d="M0,0h200v200h-200Z"/><g><g class="mark-line role-mark marks" role="graphics-object" aria-roledescription="line mark container"><path aria-label="Time: Aug 27, 2025; Price: 1699; identifier: devote-1-2022" role="graphics-symbol" aria-roledescription="line mark" d="M36.271,11.222L36.39,11.222L36.836,11.222L37.747,11.222L38.21,11.222L38.695,11.222L39.117,11.222L39.562,11.222L40.474,11.222L40.934,11.222L41.419,11.222L41.842,11.222L42.288,11.222L43.198,11.222L43.655,11.222L44.137,11.222L44.563,11.222L44.992,11.222L45.013,11.222L45.926,11.222L46.217,11.222L46.381,11.222L46.866,11.222L47.291,11.222L47.741,11.222L48.662,11.222L49.12,11.222L49.604,11.222L50.022,11.222L50.467,11.222L51.384,11.222L51.845,11.222L52.333,11.222L52.75,11.222L53.196,11.222L54.108,11.222L54.568,11.222L55.053,11.222L55.476,11.222L55.922,11.222L56.834,11.222L57.296,11.222L57.778,11.222L58.205,11.222L58.648,11.222L59.562,11.222L60.022,11.222L60.506,11.222L60.926,11.222L61.376,11.222L62.286,11.222L62.52,11.222L62.741,11.222L63.222,11.222L63.649,11.222L64.101,11.222L65.012,11.222L65.467,11.222L65.95,11.222L66.376,11.222L66.828,11.222L67.743,11.222L68.207,11.222L68.694,11.222L69.112,11.222L69.559,11.222L70.469,11.222L70.933,11.222L71.436,11.222L71.841,11.222L72.283,11.222L73.192,11.222L73.657,11.222L74.141,11.222L74.564,11.222L75.011,11.222L75.923,11.222L76.383,11.222L76.866,11.222L77.285,11.222L77.736,11.222L78.648,11.222L79.109,11.222L79.592,11.222L80.013,11.222L80.462,11.222L81.373,11.222L81.829,11.222L82.311,11.222L82.735,11.222L83.189,11.222L84.101,11.222L84.556,11.222L85.036,11.222L85.461,11.222L85.916,11.222L86.832,11.222L87.292,11.222L87.779,11.222L88.2,11.222L88.646,11.222L89.557,11.222L90.021,11.222L90.505,11.222L90.925,11.222L91.372,11.222L92.285,11.222L92.746,11.222L93.232,11.222L93.653,11.222L94.099,11.222L95.011,11.222L95.472,11.222L95.959,11.222L96.378,11.222L96.826,11.222L97.738,11.222L98.199,11.222L98.684,11.222L99.106,11.222L99.551,11.222L100.463,11.222L100.921,11.222L101.403,11.222L101.825,11.222L102.277,11.222L103.191,11.222L103.645,11.222L104.129,11.222L104.554,11.222L105.005,11.222L105.919,11.222L106.383,11.222L106.869,11.222L107.283,11.222L107.735,11.222L108.645,11.222L109.108,11.222L109.593,11.222L110.016,11.222L110.461,11.222L111.373,11.222L111.836,11.222L112.321,11.222L112.745,11.222L113.186,11.222L114.1,11.222L114.564,11.222L115.05,11.222L115.471,11.222L115.913,11.222L116.826,11.222L117.289,11.222L117.774,11.222L118.195,11.222L118.64,11.222L119.552,11.222L120.007,11.222L120.49,11.222L120.915,11.222L121.367,11.222L122.279,11.222L122.734,11.222L123.218,11.222L123.64,11.222L124.093,11.222L125.009,11.222L125.473,11.222L125.959,11.222L126.367,11.222L126.822,11.222L127.734,11.222L128.201,11.222L128.685,11.222L129.103,11.222L129.549,11.222L130.463,11.222L130.926,11.222L131.412,11.222L131.831,11.222L132.276,11.222L133.186,11.222L133.648,11.222L134.132,11.222L134.557,11.222L135.002,11.222L135.912,11.222L136.375,11.222L136.858,11.222L137.282,11.222L137.728,11.222L138.639,11.222L139.096,11.222L139.577,11.222L140.003,11.222L140.455,11.222L141.364,11.222L141.821,11.222L142.305,11.222L142.73,11.222L143.182,11.222L144.095,11.222L144.558,11.222L145.045,11.222L145.465,11.222L145.912,11.222L146.821,11.222L147.284,11.222L147.772,11.222L148.192,11.222L148.638,11.222L149.55,11.222L150.014,11.222L150.5,11.222L150.919,11.222L151.365,11.222L152.278,11.222L152.741,11.222L153.228,11.222L153.65,11.222L154.092,11.222L155.004,11.222L155.465,11.222L155.95,11.222L156.372,11.222L156.819,11.222L157.728,11.222L158.184,11.222L158.666,11.222L159.09,11.222L159.543,11.222L160.455,11.222L160.911,11.222L161.394,11.222L161.819,11.222L162.27,11.222L163.188,11.222L163.652,11.222L164.136,11.222L164.555,11.222L164.999,11.222L165.911,11.222L166.373,11.222L166.877,11.222L167.282,11.222L167.728,11.222L168.639,11.222L169.105,11.222L169.607,11.222L170.007,11.222L170.456,11.222L171.367,11.222L171.832,11.222L172.331,11.222L172.736,11.222L173.181,11.222L174.092,11.222L174.555,11.222L175.041,11.222L175.461,11.222L175.907,11.222L176.817,11.222L177.276,11.222L177.757,11.222L178.182,11.222L178.632,11.222L179.547,11.222L179.999,11.222L180.485,11.222L180.909,11.222L181.359,11.222L182.275,11.222L182.749,11.222L183.223,11.222L183.643,11.222L184.093,11.222L185,11.222L185.477,11.222L185.971,11.222L186.369,11.222L186.818,11.222L187.73,11.222L188.196,11.222L188.697,11.222L189.103,11.222L189.541,11.222L190.454,11.222L190.92,11.222L191.421,11.222L191.825,11.222L192.271,11.222L193.18,11.222L193.645,11.222L194.146,11.222L194.552,11.222L194.998,11.222L195.906,11.222L196.363,11.222L196.845,11.222L197.272,11.222L197.721,11.222L198.634,11.222L199.089,11.222L199.575,11.222L200,11.222" stroke="#4c78a8" stroke-width="2"/></g></g><path class="foreground" aria-hidden="true" d="" display="none"/></g><g transform="translate(0,0)"><path class="background" aria-hidden="true" d="M0,0h200v200h-200Z"/><g><g class="mark-line role-mark marks" role="graphics-object" aria-roledescription="line mark container"><path aria-label="Time: Aug 31, 2025; Price: 1599; identifier: silex-400-oak-bork-2026" role="graphics-symbol" aria-roledescription="line mark" d="M46.217,22.333L46.381,22.333L46.866,22.333L47.291,22.333L47.741,22.333L48.662,22.333L49.12,22.333L49.604,22.333L50.022,22.333L50.467,22.333L51.384,22.333L51.845,22.333L52.333,22.333L52.75,22.333L53.196,22.333L54.108,22.333L54.568,22.333L55.054,22.333L55.476,22.333L55.922,22.333L56.834,22.333L57.296,22.333L57.778,22.333L58.205,22.333L58.648,22.333L59.562,22.333L60.022,22.333L60.506,22.333L60.927,22.333L61.376,22.333L62.286,22.333L62.52,22.333L62.741,22.333L63.222,22.333L63.649,22.333L64.101,22.333L65.012,22.333L65.468,22.333L65.951,22.333L66.376,22.333L66.828,22.333L67.744,22.333L68.207,22.333L68.694,22.333L69.113,22.333L69.559,22.333L70.469,22.333L70.933,22.333L71.436,22.333L71.841,22.333L72.283,22.333L73.192,22.333L73.657,22.333L74.141,22.333L74.564,22.333L75.011,22.333L75.923,22.333L76.383,22.333L76.867,22.333L77.285,22.333L77.736,22.333L78.648,22.333L79.109,22.333L79.592,22.333L80.013,22.333L80.462,22.333L81.373,22.333L81.829,22.333L82.311,22.333L82.735,22.333L83.19,22.333L84.101,22.333L84.557,22.333L85.036,22.333L85.461,22.333L85.916,22.333L86.832,22.333L87.292,22.333L87.779,22.333L88.2,22.333L88.646,22.333L89.557,22.333L90.021,22.333L90.505,22.333L90.925,22.333L91.373,22.333L92.285,22.333L92.746,22.333L93.233,22.333L93.653,22.333L94.099,22.333L95.011,22.333L95.472,22.333L95.959,22.333L96.378,22.333L96.826,22.333L97.738,22.333L98.199,22.333L98.684,22.333L99.106,22.333L99.551,22.333L100.463,22.333L100.921,22.333L101.403,22.333L101.825,22.333L102.277,22.333L103.191,22.333L103.646,22.333L104.129,22.333L104.554,22.333L105.006,22.333L105.919,22.333L106.384,22.333L106.869,22.333L107.283,22.333L107.735,22.333L108.645,22.333L109.108,22.333L109.594,22.333L110.016,22.333L110.462,22.333L111.373,22.333L111.836,22.333L112.321,22.333L112.745,22.333L113.186,22.333L114.1,22.333L114.564,22.333L115.05,22.333L115.471,22.333L115.913,22.333L116.826,22.333L117.289,22.333L117.774,22.333L118.195,22.333L118.64,22.333L119.552,22.333L120.007,22.333L120.49,22.333L120.915,22.333L121.368,22.333L122.279,22.333L122.734,22.333L123.218,22.333L123.64,22.333L124.093,22.333L125.009,22.333L125.473,22.333L125.959,22.333L126.367,22.333L126.822,22.333L127.735,22.333L128.201,22.333L128.685,22.333L129.103,22.333L129.55,22.333L130.463,22.333L130.926,22.333L131.413,22.333L131.831,22.333L132.276,22.333L133.186,22.333L133.648,22.333L134.132,22.333L134.557,22.333L135.002,22.333L135.913,22.333L136.375,22.333L136.858,22.333L137.283,22.333L137.728,22.333L138.639,22.333L139.096,22.333L139.577,22.333L140.004,22.333L140.455,22.333L141.364,22.333L141.821,22.333L142.305,22.333L142.73,22.333L143.183,22.333L144.095,22.333L144.558,22.333L145.045,22.333L145.465,22.333L145.912,22.333L146.822,22.333L147.284,22.333L147.772,22.333L148.192,22.333L148.638,22.333L149.55,22.333L150.014,22.333L150.5,22.333L150.919,22.333L151.365,22.333L152.278,22.333L152.741,22.333L153.228,22.333L153.65,22.333L154.092,22.333L155.004,22.333L155.465,22.333L155.95,22.333L156.372,22.333L156.819,22.333L157.728,22.333L158.184,22.333L158.666,22.333L159.09,22.333L159.543,22.333L160.455,22.333L160.911,22.333L161.394,22.333L161.819,22.333L162.27,22.333L163.188,22.333L163.652,22.333L164.136,22.333L164.555,22.333L164.999,22.333L165.911,22.333L166.374,22.333L166.877,22.333L167.282,22.333L167.728,22.333L168.639,22.333L169.106,22.333L169.607,22.333L170.007,22.333L170.456,22.333L171.367,22.333L171.832,22.333L172.331,22.333L172.736,22.333L173.181,22.333L174.092,22.333L174.555,22.333L175.041,22.333L175.461,22.333L175.907,22.333L176.817,22.333L177.276,22.333L177.757,22.333L178.182,22.333L178.632,22.333L179.547,22.333L179.999,22.333L180.485,22.333L180.909,22.333L181.359,22.333L182.275,22.333L182.749,22.333L183.224,22.333L183.643,22.333L184.093,22.333L185,22.333L185.477,22.333L185.971,22.333L186.369,22.333L186.818,22.333L187.73,22.333L188.196,22.333L188.697,22.333L189.103,22.333L189.542,22.333L190.454,22.333L190.92,22.333L191.421,22.333L191.825,22.333L192.271,22.333L193.18,22.333L193.645,22.333L194.146,22.333L194.552,22.333L194.999,22.333L195.906,22.333L196.363,22.333L196.845,22.333L197.272,22.333L197.721,22.333L198.634,22.333L199.089,22.333L199.575,22.333L200,22.333" stroke="#f58518" stroke-width="2"/></g></g><path class="foreground" aria-hidden="true" d="" display="none"/></g><g transform="translate(0,0)"><path class="background" aria-hidden="true" d="M0,0h200v200h-200Z"/><g><g class="mark-line role-mark marks" role="graphics-object" aria-roledescription="line mark container"><path aria-label="Time: Aug 31, 2025; Price: 1599; identifier: silex-400-warm-slate-grey-2026" role="graphics-symbol" aria-roledescription="line mark" d="M46.217,22.333L46.381,22.333L46.866,22.333L47.291,22.333L47.741,22.333L48.662,22.333L49.12,22.333L49.604,22.333L50.022,22.333L50.467,22.333L51.384,22.333L51.845,22.333L52.333,22.333L52.75,22.333L53.196,22.333L54.108,22.333L54.568,22.333L55.054,22.333L55.476,22.333L55.922,22.333L56.834,22.333L57.296,22.333L57.778,22.333L58.205,22.333L58.648,22.333L59.562,22.333L60.022,22.333L60.506,22.333L60.927,22.333L61.376,22.333L62.286,22.333L62.52,22.333L62.741,22.333L63.222,22.333L63.649,22.333L64.101,22.333L65.012,22.333L65.468,22.333L65.951,22.333L66.376,22.333L66.828,22.333L67.744,22.333L68.208,22.333L68.694,22.333L69.113,22.333L69.559,22.333L70.469,22.333L70.933,22.333L71.436,22.333L71.841,22.333L72.283,22.333L73.193,22.333L73.658,22.333L74.141,22.333L74.564,22.333L75.011,22.333L75.923,22.333L76.383,22.333L76.867,22.333L77.286,22.333L77.736,22.333L78.648,22.333L79.109,22.333L79.593,22.333L80.014,22.333L80.462,22.333L81.373,22.333L81.83,22.333L82.311,22.333L82.735,22.333L83.19,22.333L84.101,22.333L84.557,22.333L85.036,22.333L85.461,22.333L85.917,22.333L86.832,22.333L87.292,22.333L87.78,22.333L88.2,22.333L88.646,22.333L89.557,22.333L90.021,22.333L90.506,22.333L90.925,22.333L91.373,22.333L92.285,22.333L92.746,22.333L93.233,22.333L93.653,22.333L94.099,22.333L95.011,22.333L95.472,22.333L95.959,22.333L96.378,22.333L96.826,22.333L97.738,22.333L98.199,22.333L98.685,22.333L99.106,22.333L99.552,22.333L100.463,22.333L100.921,22.333L101.403,22.333L101.825,22.333L102.278,22.333L103.191,22.333L103.646,22.333L104.129,22.333L104.554,22.333L105.006,22.333L105.919,22.333L106.384,22.333L106.869,22.333L107.283,22.333L107.735,22.333L108.646,22.333L109.108,22.333L109.594,22.333L110.016,22.333L110.462,22.333L111.373,22.333L111.836,22.333L112.322,22.333L112.745,22.333L113.187,22.333L114.1,22.333L114.564,22.333L115.05,22.333L115.471,22.333L115.913,22.333L116.826,22.333L117.289,22.333L117.774,22.333L118.195,22.333L118.64,22.333L119.552,22.333L120.007,22.333L120.49,22.333L120.915,22.333L121.368,22.333L122.279,22.333L122.734,22.333L123.218,22.333L123.64,22.333L124.094,22.333L125.009,22.333L125.473,22.333L125.959,22.333L126.367,22.333L126.822,22.333L127.735,22.333L128.201,22.333L128.685,22.333L129.103,22.333L129.55,22.333L130.463,22.333L130.926,22.333L131.413,22.333L131.831,22.333L132.277,22.333L133.187,22.333L133.648,22.333L134.132,22.333L134.557,22.333L135.002,22.333L135.913,22.333L136.375,22.333L136.858,22.333L137.283,22.333L137.728,22.333L138.639,22.333L139.096,22.333L139.578,22.333L140.004,22.333L140.455,22.333L141.365,22.333L141.821,22.333L142.305,22.333L142.73,22.333L143.183,22.333L144.095,22.333L144.558,22.333L145.045,22.333L145.466,22.333L145.912,22.333L146.822,22.333L147.284,22.333L147.772,22.333L148.192,22.333L148.638,22.333L149.55,22.333L150.014,22.333L150.5,22.333L150.919,22.333L151.365,22.333L152.278,22.333L152.741,22.333L153.228,22.333L153.651,22.333L154.093,22.333L155.004,22.333L155.466,22.333L155.951,22.333L156.372,22.333L156.819,22.333L157.728,22.333L158.184,22.333L158.666,22.333L159.09,22.333L159.543,22.333L160.455,22.333L160.911,22.333L161.394,22.333L161.819,22.333L162.27,22.333L163.188,22.333L163.652,22.333L164.136,22.333L164.555,22.333L164.999,22.333L165.911,22.333L166.374,22.333L166.877,22.333L167.282,22.333L167.728,22.333L168.639,22.333L169.106,22.333L169.607,22.333L170.007,22.333L170.456,22.333L171.367,22.333L171.832,22.333L172.331,22.333L172.736,22.333L173.181,22.333L174.092,22.333L174.555,22.333L175.041,22.333L175.462,22.333L175.907,22.333L176.817,22.333L177.276,22.333L177.757,22.333L178.182,22.333L178.632,22.333L179.547,22.333L180,22.333L180.485,22.333L180.909,22.333L181.359,22.333L182.275,22.333L182.749,22.333L183.224,22.333L183.644,22.333L184.093,22.333L185,22.333L185.477,22.333L185.971,22.333L186.369,22.333L186.819,22.333L187.73,22.333L188.196,22.333L188.697,22.333L189.103,22.333L189.542,22.333L190.455,22.333L190.92,22.333L191.421,22.333L191.825,22.333L192.271,22.333L193.18,22.333L193.645,22.333L194.146,22.333L194.552,22.333L194.999,22.333L195.907,22.333L196.363,22.333L196.845,22.333L197.272,22.333L197.721,22.333L198.634,22.333L199.09,22.333L199.575,22.333L200,22.333" stroke="#e45756" stroke-width="2"/></g></g><path class="foreground" aria-hidden="true" d="" display="none"/></g></g><g class="mark-group role-legend" role="graphics-symbol" aria-roledescription="legend" aria-label="Symbol legend titled 'identifier' for stroke color with 16 values: devote-1-2022, silex-400-oak-bork-2026, silex-400-warm-slate-grey-2026, devote-1-2024, fastroad-ar-2, ending with allure-rs-2-2024"><g transform="translate(220,0)"><path class="background" aria-hidden="true" d="M0,0h256v222h-256Z" pointer-events="none"/><g><g class="mark-group role-legend-entry"><g transform="translate(0,16)"><path class="background" aria-hidden="true" d="M0,0h0v0h0Z" pointer-events="none"/><g><g class="mark-group role-scope" role="graphics-object" aria-roledescription="group mark container"><g transform="translate(0,0)"><path class="background" aria-hidden="true" d="M0,0h256v11h-256Z" pointer-events="none" opacity="1"/><g><g class="mark-symbol role-legend-symbol" pointer-events="none"><path transform="translate(6,6)" d="M-5,0L5,0" stroke="#4c78a8" stroke-width="1.5" opacity="1"/></g><g class="mark-text role-legend-label" pointer-events="none"><text text-anchor="start" transform="translate(16,9)" font-family="Liberation Mono" font-size="10px" fill="#000" opacity="1">devote-1-2022</text></g></g><path class="foreground" aria-hidden="true" d="" pointer-events="none" display="none"/></g><g transform="translate(0,13)"><path class="background" aria-hidden="true" d="M0,0h256v11h-256Z" pointer-events="none" opacity="1"/><g><g class="mark-symbol role-legend-symbol" pointer-events="none"><path transform="translate(6,6)" d="M-5,0L5,0" stroke="#f58518" stroke-width="1.5" opacity="1"/></g><g class="mark-text role-legend-label" pointer-events="none"><text text-anchor="start" transform="translate(16,9)" font-family="Liberation Mono" font-size="10px" fill="#000" opacity="1">silex-400-oak-bork-2026</text></g></g><path class="foreground" aria-hidden="true" d="" pointer-events="none" display="none"/></g><g transform="translate(0,26)"><path class="background" aria-hidden="true" d="M0,0h256v11h-256Z" pointer-events="none" opacity="1"/><g><g class="mark-symbol role-legend-symbol" pointer-events="none"><path transform="translate(6,6)" d="M-5,0L5,0" stroke="#e45756" stroke-width="1.5" opacity="1"/></g><g class="mark-text role-legend-label" pointer-events="none"><text text-anchor="start" transform="translate(16,9)" font-family="Liberation Mono" font-size="10px" fill="#000" opacity="1">silex-400-warm-slate-grey-2026</text></g></g><path class="foreground" aria-hidden="true" d="" pointer-events="none" display="none"/></g><g transform="translate(0,39)"><path class="background" aria-hidden="true" d="M0,0h256v11h-256Z" pointer-events="none" opacity="1"/><g><g class="mark-symbol role-legend-symbol" pointer-events="none"><path transform="translate(6,6)" d="M-5,0L5,0" stroke="#72b7b2" stroke-width="1.5" opacity="1"/></g><g class="mark-text role-legend-label" pointer-events="none"><text text-anchor="start" transform="translate(16,9)" font-family="Liberation Mono" font-size="10px" fill="#000" opacity="1">devote-1-2024</text></g></g><path class="foreground" aria-hidden="true" d="" pointer-events="none" display="none"/></g><g transform="translate(0,52)"><path class="background" aria-hidden="true" d="M0,0h256v11h-256Z" pointer-events="none" opacity="1"/><g><g class="mark-symbol role-legend-symbol" pointer-events="none"><path transform="translate(6,6)" d="M-5,0L5,0" stroke="#54a24b" stroke-width="1.5" opacity="1"/></g><g class="mark-text role-legend-label" pointer-events="none"><text text-anchor="start" transform="translate(16,9)" font-family="Liberation Mono" font-size="10px" fill="#000" opacity="1">fastroad-ar-2</text></g></g><path class="foreground" aria-hidden="true" d="" pointer-events="none" display="none"/></g><g transform="translate(0,65)"><path class="background" aria-hidden="true" d="M0,0h256v11h-256Z" pointer-events="none" opacity="1"/><g><g class="mark-symbol role-legend-symbol" pointer-events="none"><path transform="translate(6,6)" d="M-5,0L5,0" stroke="#eeca3b" stroke-width="1.5" opacity="1"/></g><g class="mark-text role-legend-label" pointer-events="none"><text text-anchor="start" transform="translate(16,9)" font-family="Liberation Mono" font-size="10px" fill="#000" opacity="1">thrive-2</text></g></g><path class="foreground" aria-hidden="true" d="" pointer-events="none" display="none"/></g><g transform="translate(0,78)"><path class="background" aria-hidden="true" d="M0,0h256v11h-256Z" pointer-events="none" opacity="1"/><g><g class="mark-symbol role-legend-symbol" pointer-events="none"><path transform="translate(6,6)" d="M-5,0L5,0" stroke="#b279a2" stroke-width="1.5" opacity="1"/></g><g class="mark-text role-legend-label" pointer-events="none"><text text-anchor="start" transform="translate(16,9)" font-family="Liberation Mono" font-size="10px" fill="#000" opacity="1">allure-rs-1-2023</text></g></g><path class="foreground" aria-hidden="true" d="" pointer-events="none" display="none"/></g><g transform="translate(0,91)"><path class="background" aria-hidden="true" d="M0,0h256v11h-256Z" pointer-events="none" opacity="1"/><g><g class="mark-symbol role-legend-symbol" pointer-events="none"><path transform="translate(6,6)" d="M-5,0L5,0" stroke="#ff9da6" stroke-width="1.5" opacity="1"/></g><g class="mark-text role-legend-label" pointer-events="none"><text text-anchor="start" transform="translate(16,9)" font-family="Liberation Mono" font-size="10px" fill="#000" opacity="1">roam-2</text></g></g><path class="foreground" aria-hidden="true" d="" pointer-events="none" display="none"/></g><g transform="translate(0,104)"><path class="background" aria-hidden="true" d="M0,0h256v11h-256Z" pointer-events="none" opacity="1"/><g><g class="mark-symbol role-legend-symbol" pointer-events="none"><path transform="translate(6,6)" d="M-5,0L5,0" stroke="#9d755d" stroke-width="1.5" opacity="1"/></g><g class="mark-text role-legend-label" pointer-events="none"><text text-anchor="start" transform="translate(16,9)" font-family="Liberation Mono" font-size="10px" fill="#000" opacity="1">fastroad-sl-3-2022</text></g></g><path class="foreground" aria-hidden="true" d="" pointer-events="none" display="none"/></g><g transform="translate(0,117)"><path class="background" aria-hidden="true" d="M0,0h256v11h-256Z" pointer-events="none" opacity="1"/><g><g class="mark-symbol role-legend-symbol" pointer-events="none"><path transform="translate(6,6)" d="M-5,0L5,0" stroke="#bab0ac" stroke-width="1.5" opacity="1"/></g><g class="mark-text role-legend-label" pointer-events="none"><text text-anchor="start" transform="translate(16,9)" font-family="Liberation Mono" font-size="10px" fill="#000" opacity="1">allure-rs-2-2023</text></g></g><path class="foreground" aria-hidden="true" d="" pointer-events="none" display="none"/></g><g transform="translate(0,130)"><path class="background" aria-hidden="true" d="M0,0h256v11h-256Z" pointer-events="none" opacity="1"/><g><g class="mark-symbol role-legend-symbol" pointer-events="none"><path transform="translate(6,6)" d="M-5,0L5,0" stroke="#4c78a8" stroke-width="1.5" opacity="1"/></g><g class="mark-text role-legend-label" pointer-events="none"><text text-anchor="start" transform="translate(16,9)" font-family="Liberation Mono" font-size="10px" fill="#000" opacity="1">escape-city-disc-1-2024</text></g></g><path class="foreground" aria-hidden="true" d="" pointer-events="none" display="none"/></g><g transform="translate(0,143)"><path class="background" aria-hidden="true" d="M0,0h256v11h-256Z" pointer-events="none" opacity="1"/><g><g class="mark-symbol role-legend-symbol" pointer-events="none"><path transform="translate(6,6)" d="M-5,0L5,0" stroke="#f58518" stroke-width="1.5" opacity="1"/></g><g class="mark-text role-legend-label" pointer-events="none"><text text-anchor="start" transform="translate(16,9)" font-family="Liberation Mono" font-size="10px" fill="#000" opacity="1">sdrbike-escape-1-city-disc</text></g></g><path class="foreground" aria-hidden="true" d="" pointer-events="none" display="none"/></g><g transform="translate(0,156)"><path class="background" aria-hidden="true" d="M0,0h256v11h-256Z" pointer-events="none" opacity="1"/><g><g class="mark-symbol role-legend-symbol" pointer-events="none"><path transform="translate(6,6)" d="M-5,0L5,0" stroke="#e45756" stroke-width="1.5" opacity="1"/></g><g class="mark-text role-legend-label" pointer-events="none"><text text-anchor="start" transform="translate(16,9)" font-family="Liberation Mono" font-size="10px" fill="#000" opacity="1">roam-disc-2-2024</text></g></g><path class="foreground" aria-hidden="true" d="" pointer-events="none" display="none"/></g><g transform="translate(0,169)"><path class="background" aria-hidden="true" d="M0,0h256v11h-256Z" pointer-events="none" opacity="1"/><g><g class="mark-symbol role-legend-symbol" pointer-events="none"><path transform="translate(6,6)" d="M-5,0L5,0" stroke="#72b7b2" stroke-width="1.5" opacity="1"/></g><g class="mark-text role-legend-label" pointer-events="none"><text text-anchor="start" transform="translate(16,9)" font-family="Liberation Mono" font-size="10px" fill="#000" opacity="1">rove-2</text></g></g><path class="foreground" aria-hidden="true" d="" pointer-events="none" display="none"/></g><g transform="translate(0,182)"><path class="background" aria-hidden="true" d="M0,0h256v11h-256Z" pointer-events="none" opacity="1"/><g><g class="mark-symbol role-legend-symbol" pointer-events="none"><path transform="translate(6,6)" d="M-5,0L5,0" stroke="#54a24b" stroke-width="1.5" opacity="1"/></g><g class="mark-text role-legend-label" pointer-events="none"><text text-anchor="start" transform="translate(16,9)" font-family="Liberation Mono" font-size="10px" fill="#000" opacity="1">allure-rs-2-2022</text></g></g><path class="foreground" aria-hidden="true" d="" pointer-events="none" display="none"/></g><g transform="translate(0,195)"><path class="background" aria-hidden="true" d="M0,0h256v11h-256Z" pointer-events="none" opacity="1"/><g><g class="mark-symbol role-legend-symbol" pointer-events="none"><path transform="translate(6,6)" d="M-5,0L5,0" stroke="#eeca3b" stroke-width="1.5" opacity="1"/></g><g class="mark-text role-legend-label" pointer-events="none"><text text-anchor="start" transform="translate(16,9)" font-family="Liberation Mono" font-size="10px" fill="#000" opacity="1">allure-rs-2-2024</text></g></g><path class="foreground" aria-hidden="true" d="" pointer-events="none" display="none"/></g></g></g><path class="foreground" aria-hidden="true" d="" pointer-events="none" display="none"/></g></g><g class="mark-text role-legend-title" pointer-events="none"><text text-anchor="start" transform="translate(0,9)" font-family="Liberation Mono" font-size="11px" font-weight="bold" fill="#000" opacity="1">identifier</text></g></g><path class="foreground" aria-hidden="true" d="" pointer-events="none" display="none"/></g></g></g><path class="foreground" aria-hidden="true" d="" display="none"/></g></g></g></svg>