<svg xmlns="http://www.w3.org/2000/svg" xmlns:xlink="http://www.w3.org/1999/xlink" version="1.1" class="marks" width="548" height="244" viewBox="0 0 548 244"><rect width="548" height="244" fill="white"/><g fill="none" stroke-miterlimit="10" transform="translate(67,7)"><g class="mark-group role-frame root" role="graphics-object" aria-roledescription="group mark container"><g transform="translate(0,0)"><path class="background" aria-hidden="true" d="M0.5,0.5h200v200h-200Z" stroke="#ddd"/><g><g class="mark-group role-axis" aria-hidden="true"><g transform="translate(0.5,200.5)"><path class="background" aria-hidden="true" d="M0,0h0v0h0Z" pointer-events="none"/><g><g class="mark-rule role-axis-grid" pointer-events="none"><line transform="translate(18,-200)" x2="0" y2="200" stroke="#ddd" stroke-width="1" opacity="1"/><line transform="translate(65,-200)" x2="0" y2="200" stroke="#ddd" stroke-width="1" opacity="1"/><line transform="translate(112,-200)" x2="0" y2="200" stroke="#ddd" stroke-width="1" opacity="1"/><line transform="translate(158,-200)" x2="0" y2="200" stroke="#ddd" stroke-width="1" opacity="1"/></g></g><path class="foreground" aria-hidden="true" d="" pointer-events="none" display="none"/></g></g><g class="mark-group role-axis" aria-hidden="true"><g transform="translate(0.5,0.5)"><path class="background" aria-hidden="true" d="M0,0h0v0h0Z" pointer-events="none"/><g><g class="mark-rule role-axis-grid" pointer-events="none"><line transform="translate(0,200)" x2="200" y2="0" stroke="#ddd" stroke-width="1" opacity="1"/><line transform="translate(0,144)" x2="200" y2="0" stroke="#ddd" stroke-width="1" opacity="1"/><line transform="translate(0,89)" x2="200" y2="0" stroke="#ddd" stroke-width="1" opacity="1"/><line transform="translate(0,33)" x2="200" y2="0" stroke="#ddd" stroke-width="1" opacity="1"/></g></g><path class="foreground" aria-hidden="true" d="" pointer-events="none" display="none"/></g></g><g class="mark-group role-axis" role="graphics-symbol" aria-roledescription="axis" aria-label="X-axis titled 'Time' for a time scale with values from Thursday, 14 August 2025, 8:34:48 AM to Saturday, 13 September 2025, 4:45:26 AM"><g transform="translate(0.5,200.5)"><path class="background" aria-hidden="true" d="M0,0h0v0h0Z" pointer-events="none"/><g><g class="mark-rule role-axis-tick" pointer-events="none"><line transform="translate(18,0)" x2="0" y2="5" stroke="#888" stroke-width="1" opacity="1"/><line transform="translate(65,0)" x2="0" y2="5" stroke="#888" stroke-width="1" opacity="1"/><line transform="translate(112,0)" x2="0" y2="5" stroke="#888" stroke-width="1" opacity="1"/><line transform="translate(158,0)" x2="0" y2="5" stroke="#888" stroke-width="1" opacity="1"/></g><g class="mark-text role-axis-label" pointer-events="none"><text text-anchor="middle" transform="translate(17.71064162045488,15)" font-family="Liberation Mono" font-size="10px" fill="#000" opacity="1">Aug 17</text><text text-anchor="middle" transform="translate(64.62640370677309,15)" font-family="Liberation Mono" font-size="10px" fill="#000" opacity="0">Aug 24</text><text text-anchor="middle" transform="translate(111.54216579309131,15)" font-family="Liberation Mono" font-size="10px" fill="#000" opacity="0">Aug 31</text><text text-anchor="middle" transform="translate(158.45792787940954,15)" font-family="Liberation Mono" font-size="10px" fill="#000" opacity="1">Sep 07</text></g><g class="mark-rule role-axis-domain" pointer-events="none"><line transform="translate(0,0)" x2="200" y2="0" stroke="#888" stroke-width="1" opacity="1"/></g><g class="mark-text role-axis-title" pointer-events="none"><text text-anchor="middle" transform="translate(100,30)" font-family="Liberation Mono" font-size="11px" font-weight="bold" fill="#000" opacity="1">Time</text></g></g><path class="foreground" aria-hidden="true" d="" pointer-events="none" display="none"/></g></g><g class="mark-group role-axis" role="graphics-symbol" aria-roledescription="axis" aria-label="Y-axis titled 'Price' for a linear scale with values from 0 to 1,800"><g transform="translate(0.5,0.5)"><path class="background" aria-hidden="true" d="M0,0h0v0h0Z" pointer-events="none"/><g><g class="mark-rule role-axis-tick" pointer-events="none"><line transform="translate(0,200)" x2="-5" y2="0" stroke="#888" stroke-width="1" opacity="1"/><line transform="translate(0,144)" x2="-5" y2="0" stroke="#888" stroke-width="1" opacity="1"/><line transform="translate(0,89)" x2="-5" y2="0" stroke="#888" stroke-width="1" opacity="1"/><line transform="translate(0,33)" x2="-5" y2="0" stroke="#888" stroke-width="1" opacity="1"/></g><g class="mark-text role-axis-label" pointer-events="none"><text text-anchor="end" transform="translate(-7,203)" font-family="Liberation Mono" font-size="10px" fill="#000" opacity="1">0</text><text text-anchor="end" transform="translate(-7,147.44444444444443)" font-family="Liberation Mono" font-size="10px" fill="#000" opacity="1">500</text><text text-anchor="end" transform="translate(-7,91.88888888888889)" font-family="Liberation Mono" font-size="10px" fill="#000" opacity="1">1,000</text><text text-anchor="end" transform="translate(-7,36.33333333333333)" font-family="Liberation Mono" font-size="10px" fill="#000" opacity="1">1,500</text></g><g class="mark-rule role-axis-domain" pointer-events="none"><line transform="translate(0,200)" x2="0" y2="-200" stroke="#888" stroke-width="1" opacity="1"/></g><g class="mark-text role-axis-title" pointer-events="none"><text text-anchor="middle" transform="translate(-51,100) rotate(-90) translate(0,-2)" font-family="Liberation Mono" font-size="11px" font-weight="bold" fill="#000" opacity="1">Price</text></g></g><path class="foreground" aria-hidden="true" d="" pointer-events="none" display="none"/></g></g><g class="mark-group role-scope pathgroup" role="graphics-object" aria-roledescription="group mark container"><g transform="translate(0,0)"><path class="background" aria-hidden="true" d="M0,0h200v200h-200Z"/><g><g class="mark-line role-mark marks" role="graphics-object" aria-roledescription="line mark container"><path aria-label="Time: Aug 14, 2025; Price: 899; identifier: escape-city-disc-1-2024" role="graphics-symbol" aria-roledescription="line mark" d="M0,100.111L0.056,100.111L0.1,100.111L1.335,100.111L2.317,100.111L3.419,100.111L5.68,100.111L6.79,100.111L8.015,100.111L9.021,100.111L10.117,100.111L12.36,100.111L13.483,100.111L14.673,100.111L15.71,100.111L16.809,100.111L19.088,100.111L20.183,100.111L21.379,100.111L22.417,100.111L23.52,100.111L25.81,100.111L26.91,100.111L28.145,100.111L28.578,100.111L29.141,100.111L30.216,100.111L32.461,100.111L33.595,100.111L34.786,100.111L35.825,100.111L36.915,100.111L39.166,100.111L40.289,100.111L41.528,100.111L42.029,100.111L42.525,100.111L43.625,100.111L45.864,100.111L46.996,100.111L48.192,100.111L49.232,100.111L50.324,100.111L52.568,100.111L53.697,100.111L54.892,100.111L55.927,100.111L57.023,100.111L59.265,100.111L60.388,100.111L61.573,100.111L62.612,100.111L63.718,100.111L65.975,100.111L67.086,100.111L68.279,100.111L69.323,100.111L70.423,100.111L72.687,100.111L73.818,100.111L75.041,100.111L76.042,100.111L77.133,100.111L79.378,100.111L80.516,100.111L82.737,100.111L83.828,100.111L86.072,100.111L87.205,100.111L87.644,100.111L88.399,100.111L89.146,100.111L89.439,100.111L90.535,100.111L92.773,100.111L93.91,100.111L95.104,100.111L96.14,100.111L97.235,100.111L99.476,100.111L100.607,100.111L101.798,100.111L102.839,100.111L103.933,100.111L106.171,100.111L107.294,100.111L108.479,100.111L109.525,100.111L110.579,100.111L110.631,100.111L112.876,100.111L113.592,100.111L113.993,100.111L115.185,100.111L116.231,100.111L117.336,100.111L119.599,100.111L120.726,100.111L121.915,100.111L122.942,100.111L124.037,100.111L126.291,100.111L127.424,100.111L128.621,100.111L129.648,100.111L130.743,100.111L132.984,100.111L134.116,100.111L135.309,100.111L136.347,100.111L137.443,100.111L139.685,100.111L140.82,100.111L142.005,100.111L143.054,100.111L144.144,100.111L146.39,100.111L147.521,100.111L148.711,100.111L149.744,100.111L150.848,100.111L153.085,100.111L153.66,100.111L154.203,100.111L155.385,100.111L156.435,100.111L157.547,100.111L159.785,100.111L160.905,100.111L162.092,100.111L163.138,100.111L164.249,100.111L166.498,100.111L167.638,100.111L168.834,100.111L169.864,100.111L170.961,100.111L173.198,100.111L174.338,100.111L175.574,100.111L176.57,100.111L177.656,100.111L179.891,100.111L181.034,100.111L182.222,100.111L183.262,100.111L184.361,100.111L186.602,100.111L187.734,100.111L188.922,100.111L189.951,100.111L191.058,100.111L193.299,100.111L194.433,100.111L195.62,100.111L196.656,100.111L197.759,100.111L199.997,100.111" stroke="#4c78a8" stroke-width="2"/></g></g><path class="foreground" aria-hidden="true" d="" display="none"/></g><g transform="translate(0,0)"><path class="background" aria-hidden="true" d="M0,0h200v200h-200Z"/><g><g class="mark-line role-mark marks" role="graphics-object" aria-roledescription="line mark container"><path aria-label="Time: Aug 14, 2025; Price: 999; identifier: roam-2" role="graphics-symbol" aria-roledescription="line mark" d="M0,89L0.056,89L0.1,89L1.336,89L2.318,89L3.419,89L5.68,89L6.79,89L8.016,89L9.021,89L10.117,89L12.361,89L13.484,89L14.673,89L15.71,89L16.82,89L19.088,89L20.183,89L21.379,89L22.417,89L23.52,89L25.81,89L26.91,89L28.145,89L28.578,89L29.141,89L30.216,89L32.461,89L33.596,89L34.786,89L35.826,89L36.916,89L39.166,89L40.289,89L41.528,89L42.029,89L42.526,89L43.626,89L45.864,89L46.997,89L48.192,89L49.232,89L50.325,89L52.568,89L53.697,89L54.892,89L55.928,89L57.023,89L59.265,89L60.389,89L61.573,89L62.612,89L63.719,89L65.976,89L67.086,89L68.279,89L69.323,89L70.423,89L72.687,89L73.818,89L75.041,89L76.042,89L77.133,89L79.379,89L80.516,89L82.738,89L83.828,89L86.072,89L87.205,89L87.645,89L88.399,89L89.146,89L89.439,89L90.535,89L92.774,89L93.91,89L95.104,89L96.14,89L97.235,89L99.476,89L100.608,89L101.798,89L102.84,89L103.933,89L106.171,89L107.294,89L108.48,89L109.525,89L110.579,89L110.632,89L112.876,89L113.592,89L113.993,89L115.185,89L116.231,89L117.336,89L119.6,89L120.726,89L121.915,89L122.942,89L124.037,89L126.291,89L127.424,89L128.622,89L129.649,89L130.744,89L132.985,89L134.116,89L135.31,89L136.348,89L137.444,89L139.685,89L140.821,89L142.006,89L143.055,89L144.144,89L146.39,89L147.521,89L148.712,89L149.744,89L150.849,89L153.085,89L153.66,89L154.204,89L155.386,89L156.435,89L157.547,89L159.785,89L160.905,89L162.092,89L163.138,89L164.249,89L166.499,89L167.639,89L168.834,89L169.864,89L170.962,89L173.199,89L174.339,89L175.574,89L176.57,89L177.656,89L179.892,89L181.034,89L182.222,89L183.262,89L184.361,89L186.602,89L187.734,89L188.922,89L189.951,89L191.058,89L193.3,89L194.434,89L195.621,89L196.657,89L197.76,89L199.998,89" stroke="#ff9da6" stroke-width="2"/></g></g><path class="foreground" aria-hidden="true" d="" display="none"/></g><g transform="translate(0,0)"><path class="background" aria-hidden="true" d="M0,0h200v200h-200Z"/><g><g class="mark-line role-mark marks" role="graphics-object" aria-roledescription="line mark container"><path aria-label="Time: Aug 14, 2025; Price: 999; identifier: fastroad-sl-3-2022" role="graphics-symbol" aria-roledescription="line mark" d="M0,89L0.056,89L0.1,89L1.336,89L2.318,89L3.419,89L5.68,89L6.79,89L8.016,89L9.021,89L10.117,89L12.361,89L13.484,89L14.673,89L15.71,89L16.82,89L19.089,89L20.184,89L21.379,89L22.417,89L23.52,89L25.81,89L26.91,89L28.145,89L28.578,89L29.141,89L30.216,89L32.461,89L33.596,89L34.786,89L35.826,89L36.916,89L39.166,89L40.289,89L41.528,89L42.03,89L42.526,89L43.626,89L45.864,89L46.997,89L48.193,89L49.232,89L50.325,89L52.568,89L53.697,89L54.892,89L55.928,89L57.023,89L59.265,89L60.389,89L61.574,89L62.612,89L63.719,89L65.976,89L67.086,89L68.279,89L69.323,89L70.423,89L72.688,89L73.818,89L75.041,89L76.042,89L77.133,89L79.379,89L80.516,89L82.738,89L83.828,89L86.073,89L87.205,89L87.645,89L88.399,89L89.146,89L89.439,89L90.535,89L92.774,89L93.91,89L95.104,89L96.14,89L97.235,89L99.476,89L100.608,89L101.798,89L102.84,89L103.934,89L106.171,89L107.294,89L108.48,89L109.526,89L110.579,89L110.632,89L112.876,89L113.592,89L113.994,89L115.185,89L116.231,89L117.336,89L119.6,89L120.726,89L121.916,89L122.942,89L124.037,89L126.291,89L127.424,89L128.622,89L129.649,89L130.744,89L132.985,89L134.116,89L135.31,89L136.348,89L137.444,89L139.685,89L140.821,89L142.006,89L143.055,89L144.144,89L146.39,89L147.521,89L148.712,89L149.744,89L150.849,89L153.085,89L153.66,89L154.204,89L155.386,89L156.435,89L157.548,89L159.785,89L160.905,89L162.092,89L163.138,89L164.249,89L166.499,89L167.639,89L168.834,89L169.864,89L170.962,89L173.199,89L174.339,89L175.574,89L176.571,89L177.656,89L179.892,89L181.034,89L182.222,89L183.262,89L184.361,89L186.603,89L187.734,89L188.922,89L189.951,89L191.058,89L193.3,89L194.434,89L195.621,89L196.657,89L197.76,89L199.998,89" stroke="#9d755d" stroke-width="2"/></g></g><path class="foreground" aria-hidden="true" d="" display="none"/></g><g transform="translate(0,0)"><path class="background" aria-hidden="true" d="M0,0h200v200h-200Z"/><g><g class="mark-line role-mark marks" role="graphics-object" aria-roledescription="line mark container"><path aria-label="Time: Aug 14, 2025; Price: 1199; identifier: fastroad-ar-2" role="graphics-symbol" aria-roledescription="line mark" d="M0,66.778L0.056,66.778L0.1,66.778L1.336,66.778L2.318,66.778L3.42,66.778L5.68,66.778L6.79,66.778L8.016,66.778L9.021,66.778L10.117,66.778L12.361,66.778L13.484,66.778L14.674,66.778L15.71,66.778L16.825,66.778L19.089,66.778L20.184,66.778L21.379,66.778L22.418,66.778L23.52,66.778L25.81,66.778L26.911,66.778L28.145,66.778L28.579,66.778L29.141,66.778L30.216,66.778L32.461,66.778L33.596,66.778L34.786,66.778L35.826,66.778L36.916,66.778L39.166,66.778L40.289,66.778L41.528,66.778L42.03,66.778L42.526,66.778L43.626,66.778L45.864,66.778L46.997,66.778L48.193,66.778L49.233,66.778L50.325,66.778L52.568,66.778L53.697,66.778L54.892,66.778L55.928,66.778L57.023,66.778L59.266,66.778L60.389,66.778L61.574,66.778L62.612,66.778L63.719,66.778L65.976,66.778L67.087,66.778L68.28,66.778L69.323,66.778L70.423,66.778L72.688,66.778L73.819,66.778L75.041,66.778L76.042,66.778L77.133,66.778L79.379,66.778L80.517,66.778L82.738,66.778L83.829,66.778L86.073,66.778L87.205,66.778L87.645,66.778L88.399,66.778L89.146,66.778L89.439,66.778L90.536,66.778L92.774,66.778L93.91,66.778L95.104,66.778L96.14,66.778L97.235,66.778L99.477,66.778L100.608,66.778L101.799,66.778L102.84,66.778L103.934,66.778L106.171,66.778L107.294,66.778L108.48,66.778L109.526,66.778L110.58,66.778L110.632,66.778L112.876,66.778L113.592,66.778L113.994,66.778L115.186,66.778L116.232,66.778L117.336,66.778L119.6,66.778L120.727,66.778L121.916,66.778L122.942,66.778L124.037,66.778L126.291,66.778L127.425,66.778L128.622,66.778L129.649,66.778L130.744,66.778L132.985,66.778L134.116,66.778L135.31,66.778L136.348,66.778L137.444,66.778L139.685,66.778L140.821,66.778L142.006,66.778L143.055,66.778L144.145,66.778L146.391,66.778L147.522,66.778L148.712,66.778L149.744,66.778L150.849,66.778L153.086,66.778L153.66,66.778L154.204,66.778L155.386,66.778L156.435,66.778L157.548,66.778L159.786,66.778L160.905,66.778L162.092,66.778L163.138,66.778L164.25,66.778L166.5,66.778L167.639,66.778L168.835,66.778L169.864,66.778L170.962,66.778L173.199,66.778L174.339,66.778L175.574,66.778L176.571,66.778L177.656,66.778L179.892,66.778L181.035,66.778L182.223,66.778L183.262,66.778L184.361,66.778L186.603,66.778L187.734,66.778L188.922,66.778L189.951,66.778L191.058,66.778L193.3,66.778L194.434,66.778L195.621,66.778L196.657,66.778L197.76,66.778L199.998,66.778" stroke="#54a24b" stroke-width="2"/></g></g><path class="foreground" aria-hidden="true" d="" display="none"/></g><g transform="translate(0,0)"><path class="background" aria-hidden="true" d="M0,0h200v200h-200Z"/><g><g class="mark-line role-mark marks" role="graphics-object" aria-roledescription="line mark container"><path aria-label="Time: Aug 18, 2025; Price: 899; identifier: sdrbike-escape-1-city-disc" role="graphics-symbol" aria-roledescription="line mark" d="M28.579,100.111L29.142,100.111L30.216,100.111L32.462,100.111L33.596,100.111L34.787,100.111L35.826,100.111L36.916,100.111L39.166,100.111L40.29,100.111L41.529,100.111L42.03,100.111L42.526,100.111L43.626,100.111L45.864,100.111L46.997,100.111L48.193,100.111L49.233,100.111L50.325,100.111L52.568,100.111L53.698,100.111L54.893,100.111L55.928,100.111L57.024,100.111L59.266,100.111L60.389,100.111L61.574,100.111L62.613,100.111L63.719,100.111L65.976,100.111L67.087,100.111L68.28,100.111L69.323,100.111L70.423,100.111L72.688,100.111L73.819,100.111L75.042,100.111L76.042,100.111L77.133,100.111L79.38,100.111L80.517,100.111L82.738,100.111L83.829,100.111L86.073,100.111L87.206,100.111L87.646,100.111L88.399,100.111L89.147,100.111L89.439,100.111L90.536,100.111L92.774,100.111L93.911,100.111L95.105,100.111L96.14,100.111L97.235,100.111L99.477,100.111L100.608,100.111L101.799,100.111L102.84,100.111L103.934,100.111L106.171,100.111L107.295,100.111L108.48,100.111L109.526,100.111L110.58,100.111L110.632,100.111L112.876,100.111L113.592,100.111L113.994,100.111L115.186,100.111L116.232,100.111L117.337,100.111L119.6,100.111L120.727,100.111L121.916,100.111L122.943,100.111L124.037,100.111L126.292,100.111L127.425,100.111L128.623,100.111L129.649,100.111L130.744,100.111L132.985,100.111L134.116,100.111L135.31,100.111L136.348,100.111L137.444,100.111L139.686,100.111L140.821,100.111L142.006,100.111L143.055,100.111L144.145,100.111L146.391,100.111L147.522,100.111L148.712,100.111L149.745,100.111L150.849,100.111L153.086,100.111L153.661,100.111L154.204,100.111L155.386,100.111L156.436,100.111L157.548,100.111L159.786,100.111L160.905,100.111L162.093,100.111L163.139,100.111L164.25,100.111L166.5,100.111L167.639,100.111L168.835,100.111L169.864,100.111L170.962,100.111L173.199,100.111L174.339,100.111L175.575,100.111L176.571,100.111L177.657,100.111L179.892,100.111L181.035,100.111L182.223,100.111L183.263,100.111L184.362,100.111L186.603,100.111L187.735,100.111L188.922,100.111L189.952,100.111L191.058,100.111L193.3,100.111L194.434,100.111L195.621,100.111L196.657,100.111L197.76,100.111L199.998,100.111" stroke="#f58518" stroke-width="2"/></g></g><path class="foreground" aria-hidden="true" d="" display="none"/></g><g transform="translate(0,0)"><path class="background" aria-hidden="true" d="M0,0h200v200h-200Z"/><g><g class="mark-line role-mark marks" role="graphics-object" aria-roledescription="line mark container"><path aria-label="Time: Aug 20, 2025; Price: 899; identifier: roam-disc-2-2024" role="graphics-symbol" aria-roledescription="line mark" d="M42.029,100.111L42.526,100.111L43.626,100.111L45.864,100.111L46.997,100.111L48.192,100.111L49.232,100.111L50.324,100.111L52.568,100.111L53.697,100.111L54.892,100.111L55.927,100.111L57.023,100.111L59.265,100.111L60.388,100.111L61.573,100.111L62.612,100.111L63.718,100.111L65.975,100.111L67.086,100.111L68.279,100.111L69.323,100.111L70.423,100.111L72.687,100.111L73.818,100.111L75.041,100.111L76.042,100.111L77.133,100.111L79.378,100.111L80.516,100.111L82.737,100.111L83.828,100.111L86.072,100.111L87.205,100.111L87.644,100.111L88.399,100.111L89.146,100.111L89.439,100.111L90.535,100.111L92.773,100.111L93.91,100.111L95.104,100.111L96.14,100.111L97.235,100.111L99.476,100.111L100.608,100.111L101.798,100.111L102.839,100.111L103.933,100.111L106.171,100.111L107.294,100.111L108.48,100.111L109.525,100.111L110.579,100.111L110.631,100.111L112.876,100.111L113.592,100.111L113.993,100.111L115.185,100.111L116.231,100.111L117.336,100.111L119.599,100.111L120.726,100.111L121.915,100.111L122.942,100.111L124.037,100.111L126.291,100.111L127.424,100.111L128.622,100.111L129.648,100.111L130.743,100.111L132.985,100.111L134.116,100.111L135.309,100.111L136.347,100.111L137.444,100.111L139.685,100.111L140.82,100.111L142.006,100.111L143.054,100.111L144.144,100.111L146.39,100.111L147.521,100.111L148.711,100.111L149.744,100.111L150.849,100.111L153.085,100.111L153.66,100.111L154.203,100.111L155.386,100.111L156.435,100.111L157.547,100.111L159.785,100.111L160.905,100.111L162.092,100.111L163.138,100.111L164.249,100.111L166.499,100.111L167.639,100.111L168.834,100.111L169.864,100.111L170.961,100.111L173.198,100.111L174.338,100.111L175.574,100.111L176.57,100.111L177.656,100.111L179.891,100.111L181.034,100.111L182.222,100.111L183.262,100.111L184.361,100.111L186.602,100.111L187.734,100.111L188.922,100.111L189.951,100.111L191.058,100.111L193.299,100.111L194.433,100.111L195.621,100.111L196.656,100.111L197.76,100.111L199.998,100.111" stroke="#e45756" stroke-width="2"/></g></g><path class="foreground" aria-hidden="true" d="" display="none"/></g><g transform="translate(0,0)"><path class="background" aria-hidden="true" d="M0,0h200v200h-200Z"/><g><g class="mark-line role-mark marks" role="graphics-object" aria-roledescription="line mark container"><path aria-label="Time: Aug 20, 2025; Price: 1199; identifier: thrive-2" role="graphics-symbol" aria-roledescription="line mark" d="M42.03,66.778L42.526,66.778L43.627,66.778L45.864,66.778L46.997,66.778L48.193,66.778L49.233,66.778L50.325,66.778L52.569,66.778L53.698,66.778L54.893,66.778L55.928,66.778L57.024,66.778L59.266,66.778L60.39,66.778L61.574,66.778L62.613,66.778L63.719,66.778L65.976,66.778L67.087,66.778L68.28,66.778L69.323,66.778L70.424,66.778L72.688,66.778L73.819,66.778L75.042,66.778L76.043,66.778L77.134,66.778L79.38,66.778L80.517,66.778L82.738,66.778L83.829,66.778L86.073,66.778L87.206,66.778L87.646,66.778L88.399,66.778L89.147,66.778L89.44,66.778L90.536,66.778L92.774,66.778L93.911,66.778L95.105,66.778L96.141,66.778L97.236,66.778L99.477,66.778L100.608,66.778L101.799,66.778L102.84,66.778L103.934,66.778L106.172,66.778L107.295,66.778L108.481,66.778L109.526,66.778L110.58,66.778L110.632,66.778L112.877,66.778L113.592,66.778L113.994,66.778L115.186,66.778L116.232,66.778L117.337,66.778L119.6,66.778L120.727,66.778L121.916,66.778L122.943,66.778L124.038,66.778L126.292,66.778L127.425,66.778L128.623,66.778L129.649,66.778L130.744,66.778L132.985,66.778L134.116,66.778L135.31,66.778L136.348,66.778L137.444,66.778L139.686,66.778L140.821,66.778L142.006,66.778L143.055,66.778L144.145,66.778L146.391,66.778L147.522,66.778L148.712,66.778L149.745,66.778L150.849,66.778L153.086,66.778L153.661,66.778L154.204,66.778L155.386,66.778L156.436,66.778L157.548,66.778L159.786,66.778L160.906,66.778L162.093,66.778L163.139,66.778L164.25,66.778L166.5,66.778L167.64,66.778L168.835,66.778L169.865,66.778L170.962,66.778L173.199,66.778L174.339,66.778L175.575,66.778L176.571,66.778L177.657,66.778L179.892,66.778L181.035,66.778L182.223,66.778L183.263,66.778L184.362,66.778L186.603,66.778L187.735,66.778L188.922,66.778L189.952,66.778L191.058,66.778L193.3,66.778L194.434,66.778L195.621,66.778L196.657,66.778L197.76,66.778L199.998,66.778" stroke="#eeca3b" stroke-width="2"/></g></g><path class="foreground" aria-hidden="true" d="" display="none"/></g><g transform="translate(0,0)"><path class="background" aria-hidden="true" d="M0,0h200v200h-200Z"/><g><g class="mark-line role-mark marks" role="graphics-object" aria-roledescription="line mark container"><path aria-label="Time: Aug 20, 2025; Price: 999; identifier: rove-2" role="graphics-symbol" aria-roledescription="line mark" d="M42.03,89L42.527,89L43.627,89L45.865,89L46.998,89L48.193,89L49.233,89L50.325,89L52.569,89L53.698,89L54.893,89L55.928,89L57.024,89L59.266,89L60.39,89L61.574,89L62.613,89L63.719,89L65.977,89L67.087,89L68.28,89L69.323,89L70.424,89L72.688,89L73.819,89L75.042,89L76.043,89L77.134,89L79.38,89L80.517,89L82.739,89L83.829,89L86.073,89L87.206,89L87.646,89L88.4,89L89.147,89L89.44,89L90.536,89L92.774,89L93.911,89L95.105,89L96.141,89L97.236,89L99.477,89L100.609,89L101.799,89L102.84,89L103.934,89L110.58,111.222L110.632,111.222L112.877,111.222L113.593,111.222L113.994,111.222L115.186,111.222L116.232,111.222L117.337,111.222L119.6,111.222L120.727,111.222L121.916,111.222L122.943,111.222L124.038,111.222L126.292,111.222L127.425,111.222L128.623,111.222L129.649,111.222L130.745,111.222L132.986,111.222L134.117,111.222L135.31,111.222L136.348,111.222L137.444,111.222L139.686,111.222L140.822,111.222L142.007,111.222L143.055,111.222L144.145,111.222L146.391,111.222L147.522,111.222L148.712,111.222L149.745,111.222L150.85,111.222L153.086,111.222L153.661,111.222L154.204,111.222L155.387,111.222L156.436,111.222L157.548,111.222L159.786,111.222L160.906,111.222L162.093,111.222L163.139,111.222L164.25,111.222L166.5,111.222L167.64,111.222L168.835,111.222L169.865,111.222L170.962,111.222L173.199,111.222L174.339,111.222L175.575,111.222L176.571,111.222L177.657,111.222L179.892,111.222L181.035,111.222L182.223,111.222L183.263,111.222L184.362,111.222L186.603,111.222L187.735,111.222L188.923,111.222L189.952,111.222L191.059,111.222L193.3,111.222L194.435,111.222L195.622,111.222L196.657,111.222L197.76,111.222L199.998,111.222" stroke="#72b7b2" stroke-width="2"/></g></g><path class="foreground" aria-hidden="true" d="" display="none"/></g><g transform="translate(0,0)"><path class="background" aria-hidden="true" d="M0,0h200v200h-200Z"/><g><g class="mark-line role-mark marks" role="graphics-object" aria-roledescription="line mark container"><path aria-label="Time: Aug 27, 2025; Price: 1199; identifier: allure-rs-1-2023" role="graphics-symbol" aria-roledescription="line mark" d="M87.647,66.778L88.4,66.778L89.147,66.778L89.44,66.778L90.536,66.778L92.775,66.778L93.911,66.778L95.105,66.778L96.141,66.778L97.236,66.778L99.477,66.778L100.609,66.778L101.799,66.778L102.84,66.778L103.935,66.778L106.172,66.778L107.295,66.778L108.481,66.778L109.526,66.778L110.58,66.778L110.632,66.778L112.877,66.778L113.593,66.778L113.994,66.778L115.186,66.778L116.232,66.778L117.337,66.778L119.601,66.778L120.727,66.778L121.917,66.778L122.943,66.778L124.038,66.778L126.292,66.778L127.425,66.778L128.623,66.778L129.649,66.778L130.745,66.778L132.986,66.778L134.117,66.778L135.311,66.778L136.348,66.778L137.445,66.778L139.686,66.778L140.822,66.778L142.007,66.778L143.056,66.778L144.145,66.778L146.391,66.778L147.522,66.778L148.713,66.778L149.745,66.778L150.85,66.778L153.086,66.778L153.661,66.778L154.205,66.778L155.387,66.778L156.436,66.778L157.548,66.778L159.786,66.778L160.906,66.778L162.093,66.778L163.139,66.778L164.25,66.778L166.5,66.778L167.64,66.778L168.835,66.778L169.865,66.778L170.962,66.778L173.2,66.778L174.339,66.778L175.575,66.778L176.572,66.778L177.657,66.778L179.893,66.778L181.035,66.778L182.223,66.778L183.263,66.778L184.362,66.778L186.604,66.778L187.735,66.778L188.923,66.778L189.952,66.778L191.059,66.778L193.301,66.778L194.435,66.778L195.622,66.778L196.657,66.778L197.761,66.778L199.999,66.778" stroke="#b279a2" stroke-width="2"/></g></g><path class="foreground" aria-hidden="true" d="" display="none"/></g><g transform="translate(0,0)"><path class="background" aria-hidden="true" d="M0,0h200v200h-200Z"/><g><g class="mark-line role-mark marks" role="graphics-object" aria-roledescription="line mark container"><path aria-label="Time: Aug 27, 2025; Price: 999; identifier: allure-rs-2-2022" role="graphics-symbol" aria-roledescription="line mark" d="M87.647,89L88.4,89L89.147,89L89.44,89L90.537,89L92.775,89L93.911,89L95.105,89L96.141,89L97.236,89L99.477,89L100.609,89L101.799,89L102.84,89L103.935,89L110.581,111.222L110.633,111.222L112.877,111.222L113.593,111.222L113.995,111.222L115.187,111.222L116.232,111.222L117.337,111.222L119.601,111.222L120.727,111.222L121.917,111.222L122.943,111.222L124.038,111.222L126.292,111.222L127.425,111.222L128.623,111.222L129.65,111.222L130.745,111.222L132.986,111.222L134.117,111.222L135.311,111.222L136.349,111.222L137.445,111.222L139.686,111.222L140.822,111.222L142.007,111.222L143.056,111.222L144.146,111.222L146.391,111.222L147.522,111.222L148.713,111.222L149.745,111.222L150.85,111.222L153.086,111.222L153.661,111.222L154.205,111.222L155.387,111.222L156.436,111.222L157.548,111.222L159.786,111.222L160.906,111.222L162.093,111.222L163.139,111.222L164.25,111.222L166.5,111.222L167.64,111.222L168.836,111.222L169.865,111.222L170.963,111.222L173.2,111.222L174.34,111.222L175.576,111.222L176.572,111.222L177.657,111.222L179.893,111.222L181.035,111.222L182.224,111.222L183.263,111.222L184.363,111.222L186.604,111.222L187.735,111.222L188.923,111.222L189.952,111.222L191.059,111.222L193.301,111.222L194.435,111.222L195.622,111.222L196.658,111.222L197.761,111.222L199.999,111.222" stroke="#54a24b" stroke-width="2"/></g></g><path class="foreground" aria-hidden="true" d="" display="none"/></g><g transform="translate(0,0)"><path class="background" aria-hidden="true" d="M0,0h200v200h-200Z"/><g><g class="mark-line role-mark marks" role="graphics-object" aria-roledescription="line mark container"><path aria-label="Time: Aug 27, 2025; Price: 949; identifier: allure-rs-2-2023" role="graphics-symbol" aria-roledescription="line mark" d="M87.648,94.556L88.4,94.556L89.147,94.556L89.44,94.556L90.537,94.556L92.775,94.556L93.911,94.556L95.105,94.556L96.141,94.556L97.236,94.556L99.478,94.556L100.609,94.556L101.8,94.556L102.841,94.556L103.935,94.556L106.172,94.556L107.295,94.556L108.481,94.556L109.527,94.556L110.581,94.556L110.633,94.556L112.877,94.556L113.593,94.556L113.995,94.556L115.187,94.556L116.232,94.556L117.337,94.556L119.601,94.556L120.727,94.556L121.917,94.556L122.943,94.556L124.038,94.556L126.293,94.556L127.426,94.556L128.623,94.556L129.65,94.556L130.745,94.556L132.986,94.556L134.117,94.556L135.311,94.556L136.349,94.556L137.445,94.556L139.687,94.556L140.822,94.556L142.007,94.556L143.056,94.556L144.146,94.556L146.391,94.556L147.522,94.556L148.713,94.556L149.745,94.556L150.85,94.556L153.086,94.556L153.661,94.556L154.205,94.556L155.387,94.556L156.436,94.556L157.549,94.556L159.787,94.556L160.906,94.556L162.094,94.556L163.139,94.556L164.25,94.556L166.501,94.556L167.64,94.556L168.836,94.556L169.865,94.556L170.963,94.556L173.2,94.556L174.34,94.556L175.576,94.556L176.572,94.556L177.657,94.556L179.893,94.556L181.036,94.556L182.224,94.556L183.263,94.556L184.363,94.556L186.604,94.556L187.735,94.556L188.923,94.556L189.953,94.556L191.059,94.556L193.301,94.556L194.435,94.556L195.622,94.556L196.658,94.556L197.761,94.556L199.999,94.556" stroke="#bab0ac" stroke-width="2"/></g></g><path class="foreground" aria-hidden="true" d="" display="none"/></g><g transform="translate(0,0)"><path class="background" aria-hidden="true" d="M0,0h200v200h-200Z"/><g><g class="mark-line role-mark marks" role="graphics-object" aria-roledescription="line mark container"><path aria-label="Time: Aug 27, 2025; Price: 999; identifier: allure-rs-2-2024" role="graphics-symbol" aria-roledescription="line mark" d="M87.648,89L88.4,89L89.147,89L89.44,89L90.537,89L92.775,89L93.912,89L95.105,89L96.141,89L97.236,89L99.478,89L100.609,89L101.8,89L102.841,89L103.935,89L110.581,111.222L110.633,111.222L112.877,111.222L113.593,111.222L113.995,111.222L115.187,111.222L116.233,111.222L117.337,111.222L119.601,111.222L120.728,111.222L121.917,111.222L122.944,111.222L124.038,111.222L126.293,111.222L127.426,111.222L128.624,111.222L129.65,111.222L130.745,111.222L132.986,111.222L134.117,111.222L135.311,111.222L136.349,111.222L137.445,111.222L139.687,111.222L140.822,111.222L142.007,111.222L143.056,111.222L144.146,111.222L146.392,111.222L147.523,111.222L148.713,111.222L149.746,111.222L150.85,111.222L153.087,111.222L153.661,111.222L154.205,111.222L155.387,111.222L156.436,111.222L157.549,111.222L159.787,111.222L160.907,111.222L162.094,111.222L163.139,111.222L164.251,111.222L166.501,111.222L167.64,111.222L168.836,111.222L169.865,111.222L170.963,111.222L173.2,111.222L174.34,111.222L175.576,111.222L176.572,111.222L177.657,111.222L179.893,111.222L181.036,111.222L182.224,111.222L183.263,111.222L184.363,111.222L186.604,111.222L187.735,111.222L188.923,111.222L189.953,111.222L191.059,111.222L193.301,111.222L194.435,111.222L195.623,111.222L196.658,111.222L197.761,111.222L199.999,111.222" stroke="#eeca3b" stroke-width="2"/></g></g><path class="foreground" aria-hidden="true" d="" display="none"/></g><g transform="translate(0,0)"><path class="background" aria-hidden="true" d="M0,0h200v200h-200Z"/><g><g class="mark-line role-mark marks" role="graphics-object" aria-roledescription="line mark container"><path aria-label="Time: Aug 27, 2025; Price: 1799; identifier: devote-1-2024" role="graphics-symbol" aria-roledescription="line mark" d="M89.147,0.111L89.44,0.111L90.537,0.111L92.775,0.111L93.912,0.111L95.106,0.111L96.141,0.111L97.236,0.111L99.478,0.111L100.609,0.111L101.8,0.111L102.841,0.111L103.935,0.111L110.581,44.556L110.633,44.556L112.877,44.556L113.593,44.556L113.995,44.556L115.187,44.556L116.233,44.556L117.338,44.556L119.601,44.556L120.728,44.556L121.917,44.556L122.944,44.556L124.039,44.556L126.293,44.556L127.426,44.556L128.624,44.556L129.65,44.556L130.745,44.556L132.986,44.556L134.117,44.556L135.311,44.556L136.349,44.556L137.445,44.556L139.687,44.556L140.822,44.556L142.007,44.556L143.056,44.556L144.146,44.556L146.392,44.556L147.523,44.556L148.713,44.556L149.746,44.556L150.85,44.556L153.087,44.556L153.661,44.556L154.205,44.556L155.388,44.556L156.437,44.556L157.549,44.556L159.787,44.556L160.907,44.556L162.094,44.556L163.139,44.556L164.251,44.556L166.501,44.556L167.641,44.556L168.836,44.556L169.865,44.556L170.963,44.556L173.2,44.556L174.34,44.556L175.576,44.556L176.572,44.556L177.658,44.556L179.893,44.556L181.036,44.556L182.224,44.556L183.264,44.556L184.363,44.556L186.604,44.556L187.736,44.556L188.923,44.556L189.953,44.556L191.059,44.556L193.301,44.556L194.436,44.556L195.623,44.556L196.658,44.556L197.761,44.556L199.999,44.556" stroke="#72b7b2" stroke-width="2"/></g></g><path class="foreground" aria-hidden="true" d="" display="none"/></g><g transform="translate(0,0)"><path class="background" aria-hidden="true" d="M0,0h200v200h-200Z"/><g><g class="mark-line role-mark marks" role="graphics-object" aria-roledescription="line mark container"><path aria-label="Time: Aug 27, 2025; Price: 1699; identifier: devote-1-2022" role="graphics-symbol" aria-roledescription="line mark" d="M89.147,11.222L89.44,11.222L90.537,11.222L92.775,11.222L93.912,11.222L95.106,11.222L96.142,11.222L97.236,11.222L99.478,11.222L100.609,11.222L101.8,11.222L102.841,11.222L103.935,11.222L106.172,11.222L107.296,11.222L108.482,11.222L109.527,11.222L110.581,11.222L110.633,11.222L112.878,11.222L113.593,11.222L113.995,11.222L115.187,11.222L116.233,11.222L117.338,11.222L119.601,11.222L120.728,11.222L121.917,11.222L122.944,11.222L124.039,11.222L126.293,11.222L127.426,11.222L128.624,11.222L129.65,11.222L130.746,11.222L132.986,11.222L134.117,11.222L135.311,11.222L136.349,11.222L137.445,11.222L139.687,11.222L140.822,11.222L142.007,11.222L143.056,11.222L144.146,11.222L146.392,11.222L147.523,11.222L148.713,11.222L149.746,11.222L150.85,11.222L153.087,11.222L153.662,11.222L154.206,11.222L155.388,11.222L156.437,11.222L157.549,11.222L159.787,11.222L160.907,11.222L162.094,11.222L163.14,11.222L164.251,11.222L166.501,11.222L167.641,11.222L168.836,11.222L169.866,11.222L170.963,11.222L173.2,11.222L174.34,11.222L175.576,11.222L176.572,11.222L177.658,11.222L179.893,11.222L181.036,11.222L182.224,11.222L183.264,11.222L184.363,11.222L186.605,11.222L187.736,11.222L188.923,11.222L189.953,11.222L191.06,11.222L193.301,11.222L194.436,11.222L195.623,11.222L196.658,11.222L197.761,11.222L199.999,11.222" stroke="#4c78a8" stroke-width="2"/></g></g><path class="foreground" aria-hidden="true" d="" display="none"/></g><g transform="translate(0,0)"><path class="background" aria-hidden="true" d="M0,0h200v200h-200Z"/><g><g class="mark-line role-mark marks" role="graphics-object" aria-roledescription="line mark container"><path aria-label="Time: Aug 31, 2025; Price: 1599; identifier: silex-400-oak-bork-2026" role="graphics-symbol" aria-roledescription="line mark" d="M113.594,22.333L113.996,22.333L115.188,22.333L116.233,22.333L117.338,22.333L119.602,22.333L120.728,22.333L121.918,22.333L122.944,22.333L124.039,22.333L126.293,22.333L127.426,22.333L128.624,22.333L129.65,22.333L130.746,22.333L132.987,22.333L134.118,22.333L135.312,22.333L136.349,22.333L137.445,22.333L139.687,22.333L140.823,22.333L142.008,22.333L143.057,22.333L144.147,22.333L146.392,22.333L147.523,22.333L148.713,22.333L149.746,22.333L150.851,22.333L153.087,22.333L153.662,22.333L154.206,22.333L155.388,22.333L156.437,22.333L157.549,22.333L159.787,22.333L160.907,22.333L162.094,22.333L163.14,22.333L164.251,22.333L166.501,22.333L167.641,22.333L168.836,22.333L169.866,22.333L170.963,22.333L173.201,22.333L174.34,22.333L175.577,22.333L176.573,22.333L177.658,22.333L179.894,22.333L181.036,22.333L182.224,22.333L183.264,22.333L184.364,22.333L186.605,22.333L187.736,22.333L188.924,22.333L189.953,22.333L191.06,22.333L193.302,22.333L194.436,22.333L195.623,22.333L196.658,22.333L197.762,22.333L200,22.333" stroke="#f58518" stroke-width="2"/></g></g><path class="foreground" aria-hidden="true" d="" display="none"/></g><g transform="translate(0,0)"><path class="background" aria-hidden="true" d="M0,0h200v200h-200Z"/><g><g class="mark-line role-mark marks" role="graphics-object" aria-roledescription="line mark container"><path aria-label="Time: Aug 31, 2025; Price: 1599; identifier: silex-400-warm-slate-grey-2026" role="graphics-symbol" aria-roledescription="line mark" d="M113.594,22.333L113.996,22.333L115.188,22.333L116.233,22.333L117.338,22.333L119.602,22.333L120.728,22.333L121.918,22.333L122.944,22.333L124.039,22.333L126.294,22.333L127.426,22.333L128.625,22.333L129.651,22.333L130.746,22.333L132.987,22.333L134.118,22.333L135.312,22.333L136.35,22.333L137.446,22.333L139.688,22.333L140.823,22.333L142.008,22.333L143.057,22.333L144.147,22.333L146.392,22.333L147.523,22.333L148.714,22.333L149.746,22.333L150.851,22.333L153.087,22.333L153.662,22.333L154.206,22.333L155.389,22.333L156.437,22.333L157.549,22.333L159.787,22.333L160.907,22.333L162.095,22.333L163.14,22.333L164.251,22.333L166.502,22.333L167.642,22.333L168.837,22.333L169.866,22.333L170.964,22.333L173.201,22.333L174.341,22.333L175.577,22.333L176.573,22.333L177.659,22.333L179.894,22.333L181.037,22.333L182.225,22.333L183.264,22.333L184.364,22.333L186.605,22.333L187.736,22.333L188.924,22.333L189.954,22.333L191.06,22.333L193.302,22.333L194.436,22.333L195.624,22.333L196.659,22.333L197.762,22.333L200,22.333" stroke="#e45756" stroke-width="2"/></g></g><path class="foreground" aria-hidden="true" d="" display="none"/></g></g><g class="mark-group role-legend" role="graphics-symbol" aria-roledescription="legend" aria-label="Symbol legend titled 'identifier' for stroke color with 16 values: devote-1-2022, silex-400-oak-bork-2026, silex-400-warm-slate-grey-2026, devote-1-2024, fastroad-ar-2, ending with allure-rs-2-2024"><g transform="translate(220,0)"><path class="background" aria-hidden="true" d="M0,0h256v222h-256Z" pointer-events="none"/><g><g class="mark-group role-legend-entry"><g transform="translate(0,16)"><path class="background" aria-hidden="true" d="M0,0h0v0h0Z" pointer-events="none"/><g><g class="mark-group role-scope" role="graphics-object" aria-roledescription="group mark container"><g transform="translate(0,0)"><path class="background" aria-hidden="true" d="M0,0h256v11h-256Z" pointer-events="none" opacity="1"/><g><g class="mark-symbol role-legend-symbol" pointer-events="none"><path transform="translate(6,6)" d="M-5,0L5,0" stroke="#4c78a8" stroke-width="1.5" opacity="1"/></g><g class="mark-text role-legend-label" pointer-events="none"><text text-anchor="start" transform="translate(16,9)" font-family="Liberation Mono" font-size="10px" fill="#000" opacity="1">devote-1-2022</text></g></g><path class="foreground" aria-hidden="true" d="" pointer-events="none" display="none"/></g><g transform="translate(0,13)"><path class="background" aria-hidden="true" d="M0,0h256v11h-256Z" pointer-events="none" opacity="1"/><g><g class="mark-symbol role-legend-symbol" pointer-events="none"><path transform="translate(6,6)" d="M-5,0L5,0" stroke="#f58518" stroke-width="1.5" opacity="1"/></g><g class="mark-text role-legend-label" pointer-events="none"><text text-anchor="start" transform="translate(16,9)" font-family="Liberation Mono" font-size="10px" fill="#000" opacity="1">silex-400-oak-bork-2026</text></g></g><path class="foreground" aria-hidden="true" d="" pointer-events="none" display="none"/></g><g transform="translate(0,26)"><path class="background" aria-hidden="true" d="M0,0h256v11h-256Z" pointer-events="none" opacity="1"/><g><g class="mark-symbol role-legend-symbol" pointer-events="none"><path transform="translate(6,6)" d="M-5,0L5,0" stroke="#e45756" stroke-width="1.5" opacity="1"/></g><g class="mark-text role-legend-label" pointer-events="none"><text text-anchor="start" transform="translate(16,9)" font-family="Liberation Mono" font-size="10px" fill="#000" opacity="1">silex-400-warm-slate-grey-2026</text></g></g><path class="foreground" aria-hidden="true" d="" pointer-events="none" display="none"/></g><g transform="translate(0,39)"><path class="background" aria-hidden="true" d="M0,0h256v11h-256Z" pointer-events="none" opacity="1"/><g><g class="mark-symbol role-legend-symbol" pointer-events="none"><path transform="translate(6,6)" d="M-5,0L5,0" stroke="#72b7b2" stroke-width="1.5" opacity="1"/></g><g class="mark-text role-legend-label" pointer-events="none"><text text-anchor="start" transform="translate(16,9)" font-family="Liberation Mono" font-size="10px" fill="#000" opacity="1">devote-1-2024</text></g></g><path class="foreground" aria-hidden="true" d="" pointer-events="none" display="none"/></g><g transform="translate(0,52)"><path class="background" aria-hidden="true" d="M0,0h256v11h-256Z" pointer-events="none" opacity="1"/><g><g class="mark-symbol role-legend-symbol" pointer-events="none"><path transform="translate(6,6)" d="M-5,0L5,0" stroke="#54a24b" stroke-width="1.5" opacity="1"/></g><g class="mark-text role-legend-label" pointer-events="none"><text text-anchor="start" transform="translate(16,9)" font-family="Liberation Mono" font-size="10px" fill="#000" opacity="1">fastroad-ar-2</text></g></g><path class="foreground" aria-hidden="true" d="" pointer-events="none" display="none"/></g><g transform="translate(0,65)"><path class="background" aria-hidden="true" d="M0,0h256v11h-256Z" pointer-events="none" opacity="1"/><g><g class="mark-symbol role-legend-symbol" pointer-events="none"><path transform="translate(6,6)" d="M-5,0L5,0" stroke="#eeca3b" stroke-width="1.5" opacity="1"/></g><g class="mark-text role-legend-label" pointer-events="none"><text text-anchor="start" transform="translate(16,9)" font-family="Liberation Mono" font-size="10px" fill="#000" opacity="1">thrive-2</text></g></g><path class="foreground" aria-hidden="true" d="" pointer-events="none" display="none"/></g><g transform="translate(0,78)"><path class="background" aria-hidden="true" d="M0,0h256v11h-256Z" pointer-events="none" opacity="1"/><g><g class="mark-symbol role-legend-symbol" pointer-events="none"><path transform="translate(6,6)" d="M-5,0L5,0" stroke="#b279a2" stroke-width="1.5" opacity="1"/></g><g class="mark-text role-legend-label" pointer-events="none"><text text-anchor="start" transform="translate(16,9)" font-family="Liberation Mono" font-size="10px" fill="#000" opacity="1">allure-rs-1-2023</text></g></g><path class="foreground" aria-hidden="true" d="" pointer-events="none" display="none"/></g><g transform="translate(0,91)"><path class="background" aria-hidden="true" d="M0,0h256v11h-256Z" pointer-events="none" opacity="1"/><g><g class="mark-symbol role-legend-symbol" pointer-events="none"><path transform="translate(6,6)" d="M-5,0L5,0" stroke="#ff9da6" stroke-width="1.5" opacity="1"/></g><g class="mark-text role-legend-label" pointer-events="none"><text text-anchor="start" transform="translate(16,9)" font-family="Liberation Mono" font-size="10px" fill="#000" opacity="1">roam-2</text></g></g><path class="foreground" aria-hidden="true" d="" pointer-events="none" display="none"/></g><g transform="translate(0,104)"><path class="background" aria-hidden="true" d="M0,0h256v11h-256Z" pointer-events="none" opacity="1"/><g><g class="mark-symbol role-legend-symbol" pointer-events="none"><path transform="translate(6,6)" d="M-5,0L5,0" stroke="#9d755d" stroke-width="1.5" opacity="1"/></g><g class="mark-text role-legend-label" pointer-events="none"><text text-anchor="start" transform="translate(16,9)" font-family="Liberation Mono" font-size="10px" fill="#000" opacity="1">fastroad-sl-3-2022</text></g></g><path class="foreground" aria-hidden="true" d="" pointer-events="none" display="none"/></g><g transform="translate(0,117)"><path class="background" aria-hidden="true" d="M0,0h256v11h-256Z" pointer-events="none" opacity="1"/><g><g class="mark-symbol role-legend-symbol" pointer-events="none"><path transform="translate(6,6)" d="M-5,0L5,0" stroke="#bab0ac" stroke-width="1.5" opacity="1"/></g><g class="mark-text role-legend-label" pointer-events="none"><text text-anchor="start" transform="translate(16,9)" font-family="Liberation Mono" font-size="10px" fill="#000" opacity="1">allure-rs-2-2023</text></g></g><path class="foreground" aria-hidden="true" d="" pointer-events="none" display="none"/></g><g transform="translate(0,130)"><path class="background" aria-hidden="true" d="M0,0h256v11h-256Z" pointer-events="none" opacity="1"/><g><g class="mark-symbol role-legend-symbol" pointer-events="none"><path transform="translate(6,6)" d="M-5,0L5,0" stroke="#4c78a8" stroke-width="1.5" opacity="1"/></g><g class="mark-text role-legend-label" pointer-events="none"><text text-anchor="start" transform="translate(16,9)" font-family="Liberation Mono" font-size="10px" fill="#000" opacity="1">escape-city-disc-1-2024</text></g></g><path class="foreground" aria-hidden="true" d="" pointer-events="none" display="none"/></g><g transform="translate(0,143)"><path class="background" aria-hidden="true" d="M0,0h256v11h-256Z" pointer-events="none" opacity="1"/><g><g class="mark-symbol role-legend-symbol" pointer-events="none"><path transform="translate(6,6)" d="M-5,0L5,0" stroke="#f58518" stroke-width="1.5" opacity="1"/></g><g class="mark-text role-legend-label" pointer-events="none"><text text-anchor="start" transform="translate(16,9)" font-family="Liberation Mono" font-size="10px" fill="#000" opacity="1">sdrbike-escape-1-city-disc</text></g></g><path class="foreground" aria-hidden="true" d="" pointer-events="none" display="none"/></g><g transform="translate(0,156)"><path class="background" aria-hidden="true" d="M0,0h256v11h-256Z" pointer-events="none" opacity="1"/><g><g class="mark-symbol role-legend-symbol" pointer-events="none"><path transform="translate(6,6)" d="M-5,0L5,0" stroke="#e45756" stroke-width="1.5" opacity="1"/></g><g class="mark-text role-legend-label" pointer-events="none"><text text-anchor="start" transform="translate(16,9)" font-family="Liberation Mono" font-size="10px" fill="#000" opacity="1">roam-disc-2-2024</text></g></g><path class="foreground" aria-hidden="true" d="" pointer-events="none" display="none"/></g><g transform="translate(0,169)"><path class="background" aria-hidden="true" d="M0,0h256v11h-256Z" pointer-events="none" opacity="1"/><g><g class="mark-symbol role-legend-symbol" pointer-events="none"><path transform="translate(6,6)" d="M-5,0L5,0" stroke="#72b7b2" stroke-width="1.5" opacity="1"/></g><g class="mark-text role-legend-label" pointer-events="none"><text text-anchor="start" transform="translate(16,9)" font-family="Liberation Mono" font-size="10px" fill="#000" opacity="1">rove-2</text></g></g><path class="foreground" aria-hidden="true" d="" pointer-events="none" display="none"/></g><g transform="translate(0,182)"><path class="background" aria-hidden="true" d="M0,0h256v11h-256Z" pointer-events="none" opacity="1"/><g><g class="mark-symbol role-legend-symbol" pointer-events="none"><path transform="translate(6,6)" d="M-5,0L5,0" stroke="#54a24b" stroke-width="1.5" opacity="1"/></g><g class="mark-text role-legend-label" pointer-events="none"><text text-anchor="start" transform="translate(16,9)" font-family="Liberation Mono" font-size="10px" fill="#000" opacity="1">allure-rs-2-2022</text></g></g><path class="foreground" aria-hidden="true" d="" pointer-events="none" display="none"/></g><g transform="translate(0,195)"><path class="background" aria-hidden="true" d="M0,0h256v11h-256Z" pointer-events="none" opacity="1"/><g><g class="mark-symbol role-legend-symbol" pointer-events="none"><path transform="translate(6,6)" d="M-5,0L5,0" stroke="#eeca3b" stroke-width="1.5" opacity="1"/></g><g class="mark-text role-legend-label" pointer-events="none"><text text-anchor="start" transform="translate(16,9)" font-family="Liberation Mono" font-size="10px" fill="#000" opacity="1">allure-rs-2-2024</text></g></g><path class="foreground" aria-hidden="true" d="" pointer-events="none" display="none"/></g></g></g><path class="foreground" aria-hidden="true" d="" pointer-events="none" display="none"/></g></g><g class="mark-text role-legend-title" pointer-events="none"><text text-anchor="start" transform="translate(0,9)" font-family="Liberation Mono" font-size="11px" font-weight="bold" fill="#000" opacity="1">identifier</text></g></g><path class="foreground" aria-hidden="true" d="" pointer-events="none" display="none"/></g></g></g><path class="foreground" aria-hidden="true" d="" display="none"/></g></g></g></svg>