<svg xmlns="http://www.w3.org/2000/svg" xmlns:xlink="http://www.w3.org/1999/xlink" version="1.1" class="marks" width="548" height="244" viewBox="0 0 548 244"><rect width="548" height="244" fill="white"/><g fill="none" stroke-miterlimit="10" transform="translate(67,7)"><g class="mark-group role-frame root" role="graphics-object" aria-roledescription="group mark container"><g transform="translate(0,0)"><path class="background" aria-hidden="true" d="M0.5,0.5h200v200h-200Z" stroke="#ddd"/><g><g class="mark-group role-axis" aria-hidden="true"><g transform="translate(0.5,200.5)"><path class="background" aria-hidden="true" d="M0,0h0v0h0Z" pointer-events="none"/><g><g class="mark-rule role-axis-grid" pointer-events="none"><line transform="translate(14,-200)" x2="0" y2="200" stroke="#ddd" stroke-width="1" opacity="1"/><line transform="translate(53,-200)" x2="0" y2="200" stroke="#ddd" stroke-width="1" opacity="1"/><line transform="translate(91,-200)" x2="0" y2="200" stroke="#ddd" stroke-width="1" opacity="1"/><line transform="translate(130,-200)" x2="0" y2="200" stroke="#ddd" stroke-width="1" opacity="1"/><line transform="translate(168,-200)" x2="0" y2="200" stroke="#ddd" stroke-width="1" opacity="1"/></g></g><path class="foreground" aria-hidden="true" d="" pointer-events="none" display="none"/></g></g><g class="mark-group role-axis" aria-hidden="true"><g transform="translate(0.5,0.5)"><path class="background" aria-hidden="true" d="M0,0h0v0h0Z" pointer-events="none"/><g><g class="mark-rule role-axis-grid" pointer-events="none"><line transform="translate(0,200)" x2="200" y2="0" stroke="#ddd" stroke-width="1" opacity="1"/><line transform="translate(0,144)" x2="200" y2="0" stroke="#ddd" stroke-width="1" opacity="1"/><line transform="translate(0,89)" x2="200" y2="0" stroke="#ddd" stroke-width="1" opacity="1"/><line transform="translate(0,33)" x2="200" y2="0" stroke="#ddd" stroke-width="1" opacity="1"/></g></g><path class="foreground" aria-hidden="true" d="" pointer-events="none" display="none"/></g></g><g class="mark-group role-axis" role="graphics-symbol" aria-roledescription="axis" aria-label="X-axis titled 'Time' for a time scale with values from Thursday, 14 August 2025, 8:34:48 AM to Friday, 19 September 2025, 8:44:56 PM"><g transform="translate(0.5,200.5)"><path class="background" aria-hidden="true" d="M0,0h0v0h0Z" pointer-events="none"/><g><g class="mark-rule role-axis-tick" pointer-events="none"><line transform="translate(14,0)" x2="0" y2="5" stroke="#888" stroke-width="1" opacity="1"/><line transform="translate(53,0)" x2="0" y2="5" stroke="#888" stroke-width="1" opacity="1"/><line transform="translate(91,0)" x2="0" y2="5" stroke="#888" stroke-width="1" opacity="1"/><line transform="translate(130,0)" x2="0" y2="5" stroke="#888" stroke-width="1" opacity="1"/><line transform="translate(168,0)" x2="0" y2="5" stroke="#888" stroke-width="1" opacity="1"/></g><g class="mark-text role-axis-label" pointer-events="none"><text text-anchor="middle" transform="translate(14.476614688740419,15)" font-family="Liberation Mono" font-size="10px" fill="#000" opacity="1">Aug 17</text><text text-anchor="middle" transform="translate(52.82538968556637,15)" font-family="Liberation Mono" font-size="10px" fill="#000" opacity="0">Aug 24</text><text text-anchor="middle" transform="translate(91.17416468239232,15)" font-family="Liberation Mono" font-size="10px" fill="#000" opacity="1">Aug 31</text><text text-anchor="middle" transform="translate(129.5229396792183,15)" font-family="Liberation Mono" font-size="10px" fill="#000" opacity="0">Sep 07</text><text text-anchor="middle" transform="translate(167.87171467604423,15)" font-family="Liberation Mono" font-size="10px" fill="#000" opacity="1">Sep 14</text></g><g class="mark-rule role-axis-domain" pointer-events="none"><line transform="translate(0,0)" x2="200" y2="0" stroke="#888" stroke-width="1" opacity="1"/></g><g class="mark-text role-axis-title" pointer-events="none"><text text-anchor="middle" transform="translate(100,30)" font-family="Liberation Mono" font-size="11px" font-weight="bold" fill="#000" opacity="1">Time</text></g></g><path class="foreground" aria-hidden="true" d="" pointer-events="none" display="none"/></g></g><g class="mark-group role-axis" role="graphics-symbol" aria-roledescription="axis" aria-label="Y-axis titled 'Price' for a linear scale with values from 0 to 1,800"><g transform="translate(0.5,0.5)"><path class="background" aria-hidden="true" d="M0,0h0v0h0Z" pointer-events="none"/><g><g class="mark-rule role-axis-tick" pointer-events="none"><line transform="translate(0,200)" x2="-5" y2="0" stroke="#888" stroke-width="1" opacity="1"/><line transform="translate(0,144)" x2="-5" y2="0" stroke="#888" stroke-width="1" opacity="1"/><line transform="translate(0,89)" x2="-5" y2="0" stroke="#888" stroke-width="1" opacity="1"/><line transform="translate(0,33)" x2="-5" y2="0" stroke="#888" stroke-width="1" opacity="1"/></g><g class="mark-text role-axis-label" pointer-events="none"><text text-anchor="end" transform="translate(-7,203)" font-family="Liberation Mono" font-size="10px" fill="#000" opacity="1">0</text><text text-anchor="end" transform="translate(-7,147.44444444444443)" font-family="Liberation Mono" font-size="10px" fill="#000" opacity="1">500</text><text text-anchor="end" transform="translate(-7,91.88888888888889)" font-family="Liberation Mono" font-size="10px" fill="#000" opacity="1">1,000</text><text text-anchor="end" transform="translate(-7,36.33333333333333)" font-family="Liberation Mono" font-size="10px" fill="#000" opacity="1">1,500</text></g><g class="mark-rule role-axis-domain" pointer-events="none"><line transform="translate(0,200)" x2="0" y2="-200" stroke="#888" stroke-width="1" opacity="1"/></g><g class="mark-text role-axis-title" pointer-events="none"><text text-anchor="middle" transform="translate(-51,100) rotate(-90) translate(0,-2)" font-family="Liberation Mono" font-size="11px" font-weight="bold" fill="#000" opacity="1">Price</text></g></g><path class="foreground" aria-hidden="true" d="" pointer-events="none" display="none"/></g></g><g class="mark-group role-scope pathgroup" role="graphics-object" aria-roledescription="group mark container"><g transform="translate(0,0)"><path class="background" aria-hidden="true" d="M0,0h200v200h-200Z"/><g><g class="mark-line role-mark marks" role="graphics-object" aria-roledescription="line mark container"><path aria-label="Time: Aug 14, 2025; Price: 899; identifier: escape-city-disc-1-2024" role="graphics-symbol" aria-roledescription="line mark" d="M0,100.111L0.045,100.111L0.081,100.111L1.092,100.111L1.894,100.111L2.795,100.111L4.643,100.111L5.55,100.111L6.552,100.111L7.374,100.111L8.27,100.111L10.103,100.111L11.021,100.111L11.994,100.111L12.841,100.111L13.74,100.111L15.603,100.111L16.498,100.111L17.475,100.111L18.324,100.111L19.225,100.111L21.097,100.111L21.996,100.111L23.006,100.111L23.36,100.111L23.82,100.111L24.698,100.111L26.533,100.111L27.461,100.111L28.434,100.111L29.284,100.111L30.175,100.111L32.014,100.111L32.932,100.111L33.945,100.111L34.354,100.111L34.76,100.111L35.659,100.111L37.489,100.111L38.415,100.111L39.392,100.111L40.242,100.111L41.135,100.111L42.969,100.111L43.891,100.111L44.868,100.111L45.715,100.111L46.61,100.111L48.443,100.111L49.361,100.111L50.33,100.111L51.179,100.111L52.083,100.111L53.928,100.111L54.836,100.111L55.811,100.111L56.664,100.111L57.563,100.111L59.414,100.111L60.339,100.111L61.338,100.111L62.156,100.111L63.048,100.111L64.884,100.111L65.813,100.111L67.629,100.111L68.521,100.111L70.355,100.111L71.281,100.111L71.64,100.111L72.257,100.111L72.868,100.111L73.107,100.111L74.003,100.111L75.833,100.111L76.761,100.111L77.737,100.111L78.584,100.111L79.479,100.111L81.311,100.111L82.236,100.111L83.209,100.111L84.06,100.111L84.955,100.111L86.784,100.111L87.702,100.111L88.671,100.111L89.526,100.111L90.387,100.111L90.43,100.111L92.264,100.111L92.849,100.111L93.177,100.111L94.152,100.111L95.007,100.111L95.91,100.111L97.76,100.111L98.681,100.111L99.653,100.111L100.492,100.111L101.387,100.111L103.23,100.111L104.156,100.111L105.135,100.111L105.974,100.111L106.869,100.111L108.701,100.111L109.626,100.111L110.601,100.111L111.45,100.111L112.346,100.111L114.178,100.111L115.106,100.111L116.075,100.111L116.932,100.111L117.823,100.111L119.659,100.111L120.583,100.111L121.556,100.111L122.4,100.111L123.303,100.111L125.131,100.111L125.601,100.111L126.045,100.111L127.011,100.111L127.869,100.111L128.779,100.111L130.608,100.111L131.523,100.111L132.493,100.111L133.348,100.111L134.257,100.111L136.095,100.111L137.027,100.111L138.004,100.111L138.846,100.111L139.743,100.111L141.572,100.111L142.503,100.111L143.513,100.111L144.328,100.111L145.215,100.111L147.042,100.111L147.976,100.111L148.948,100.111L149.797,100.111L150.696,100.111L152.528,100.111L153.453,100.111L154.424,100.111L155.265,100.111L156.17,100.111L158.002,100.111L158.929,100.111L159.899,100.111L160.746,100.111L161.648,100.111L163.477,100.111L164.394,100.111L165.362,100.111L166.214,100.111L167.127,100.111L168.957,100.111L169.873,100.111L170.836,100.111L171.691,100.111L172.605,100.111L174.445,100.111L175.368,100.111L176.347,100.111L177.191,100.111L178.086,100.111L179.918,100.111L180.852,100.111L181.825,100.111L182.667,100.111L183.567,100.111L185.399,100.111L186.325,100.111L187.303,100.111L188.147,100.111L189.044,100.111L190.876,100.111L191.802,100.111L192.78,100.111L193.622,100.111L194.523,100.111L196.355,100.111L197.28,100.111L198.256,100.111L199.104,100.111L199.998,100.111" stroke="#4c78a8" stroke-width="2"/></g></g><path class="foreground" aria-hidden="true" d="" display="none"/></g><g transform="translate(0,0)"><path class="background" aria-hidden="true" d="M0,0h200v200h-200Z"/><g><g class="mark-line role-mark marks" role="graphics-object" aria-roledescription="line mark container"><path aria-label="Time: Aug 14, 2025; Price: 999; identifier: roam-2" role="graphics-symbol" aria-roledescription="line mark" d="M0,89L0.046,89L0.082,89L1.092,89L1.894,89L2.795,89L4.643,89L5.55,89L6.552,89L7.374,89L8.27,89L10.103,89L11.021,89L11.994,89L12.841,89L13.748,89L15.603,89L16.498,89L17.475,89L18.324,89L19.225,89L21.097,89L21.996,89L23.006,89L23.36,89L23.82,89L24.698,89L26.534,89L27.461,89L28.434,89L29.284,89L30.175,89L32.014,89L32.932,89L33.945,89L34.355,89L34.76,89L35.66,89L37.489,89L38.415,89L39.392,89L40.242,89L41.135,89L42.969,89L43.892,89L44.869,89L45.715,89L46.61,89L48.443,89L49.361,89L50.33,89L51.179,89L52.083,89L53.928,89L54.836,89L55.811,89L56.664,89L57.563,89L59.414,89L60.339,89L61.338,89L62.156,89L63.048,89L64.884,89L65.814,89L67.629,89L68.521,89L70.355,89L71.281,89L71.64,89L72.257,89L72.868,89L73.107,89L74.003,89L75.833,89L76.762,89L77.738,89L78.584,89L79.48,89L81.312,89L82.236,89L83.209,89L84.061,89L84.955,89L86.784,89L87.702,89L88.671,89L89.526,89L90.387,89L90.43,89L92.264,89L92.85,89L93.178,89L94.152,89L95.007,89L95.91,89L97.76,89L98.681,89L99.653,89L100.492,89L101.387,89L103.23,89L104.156,89L105.135,89L105.974,89L106.869,89L108.701,89L109.626,89L110.602,89L111.45,89L112.346,89L114.178,89L115.106,89L116.075,89L116.932,89L117.823,89L119.659,89L120.583,89L121.556,89L122.4,89L123.303,89L125.131,89L125.601,89L126.045,89L127.012,89L127.87,89L128.779,89L130.608,89L131.523,89L132.494,89L133.348,89L134.257,89L136.096,89L137.027,89L138.004,89L138.846,89L139.743,89L141.572,89L142.504,89L143.514,89L144.328,89L145.215,89L147.043,89L147.977,89L148.948,89L149.798,89L150.696,89L152.528,89L153.453,89L154.424,89L155.265,89L156.17,89L158.002,89L158.929,89L159.9,89L160.746,89L161.648,89L163.477,89L164.395,89L165.362,89L166.214,89L167.127,89L168.958,89L169.873,89L170.836,89L171.691,89L172.605,89L174.445,89L175.369,89L176.348,89L177.192,89L178.088,89L179.919,89L180.852,89L181.825,89L182.668,89L183.567,89L185.399,89L186.326,89L187.303,89L188.147,89L189.044,89L190.877,89L191.803,89L192.78,89L193.623,89L194.523,89L196.355,89L197.281,89L198.256,89L199.104,89L199.998,89" stroke="#ff9da6" stroke-width="2"/></g></g><path class="foreground" aria-hidden="true" d="" display="none"/></g><g transform="translate(0,0)"><path class="background" aria-hidden="true" d="M0,0h200v200h-200Z"/><g><g class="mark-line role-mark marks" role="graphics-object" aria-roledescription="line mark container"><path aria-label="Time: Aug 14, 2025; Price: 999; identifier: fastroad-sl-3-2022" role="graphics-symbol" aria-roledescription="line mark" d="M0,89L0.046,89L0.082,89L1.092,89L1.895,89L2.795,89L4.643,89L5.55,89L6.552,89L7.374,89L8.27,89L10.104,89L11.022,89L11.994,89L12.842,89L13.748,89L15.603,89L16.498,89L17.475,89L18.324,89L19.225,89L21.097,89L21.997,89L23.006,89L23.36,89L23.82,89L24.698,89L26.534,89L27.461,89L28.434,89L29.284,89L30.175,89L32.014,89L32.932,89L33.945,89L34.355,89L34.76,89L35.66,89L37.489,89L38.415,89L39.392,89L40.242,89L41.135,89L42.969,89L43.892,89L44.869,89L45.715,89L46.611,89L48.443,89L49.362,89L50.33,89L51.179,89L52.083,89L53.928,89L54.836,89L55.811,89L56.664,89L57.564,89L59.415,89L60.339,89L61.338,89L62.156,89L63.048,89L64.884,89L65.814,89L67.63,89L68.521,89L70.356,89L71.281,89L71.641,89L72.257,89L72.868,89L73.107,89L74.003,89L75.833,89L76.762,89L77.738,89L78.585,89L79.48,89L81.312,89L82.237,89L83.21,89L84.061,89L84.955,89L86.784,89L87.702,89L88.671,89L89.526,89L90.387,89L90.43,89L92.265,89L92.85,89L93.178,89L94.152,89L95.007,89L95.91,89L97.76,89L98.681,89L99.653,89L100.492,89L101.387,89L103.23,89L104.156,89L105.135,89L105.974,89L106.869,89L108.701,89L109.626,89L110.602,89L111.45,89L112.346,89L114.178,89L115.106,89L116.075,89L116.932,89L117.823,89L119.659,89L120.583,89L121.556,89L122.4,89L123.303,89L125.131,89L125.601,89L126.046,89L127.012,89L127.87,89L128.779,89L130.608,89L131.523,89L132.494,89L133.349,89L134.257,89L136.096,89L137.028,89L138.005,89L138.846,89L139.744,89L141.572,89L142.504,89L143.514,89L144.328,89L145.216,89L147.043,89L147.977,89L148.948,89L149.798,89L150.696,89L152.528,89L153.453,89L154.424,89L155.266,89L156.17,89L158.002,89L158.929,89L159.9,89L160.746,89L161.648,89L163.478,89L164.395,89L165.362,89L166.214,89L167.127,89L168.958,89L169.873,89L170.837,89L171.691,89L172.606,89L174.445,89L175.369,89L176.348,89L177.192,89L178.088,89L179.919,89L180.852,89L181.825,89L182.668,89L183.567,89L185.399,89L186.326,89L187.303,89L188.148,89L189.044,89L190.877,89L191.803,89L192.78,89L193.623,89L194.523,89L196.355,89L197.281,89L198.257,89L199.104,89L199.998,89" stroke="#9d755d" stroke-width="2"/></g></g><path class="foreground" aria-hidden="true" d="" display="none"/></g><g transform="translate(0,0)"><path class="background" aria-hidden="true" d="M0,0h200v200h-200Z"/><g><g class="mark-line role-mark marks" role="graphics-object" aria-roledescription="line mark container"><path aria-label="Time: Aug 14, 2025; Price: 1199; identifier: fastroad-ar-2" role="graphics-symbol" aria-roledescription="line mark" d="M0,66.778L0.046,66.778L0.082,66.778L1.092,66.778L1.895,66.778L2.795,66.778L4.643,66.778L5.55,66.778L6.552,66.778L7.374,66.778L8.27,66.778L10.104,66.778L11.022,66.778L11.994,66.778L12.842,66.778L13.753,66.778L15.603,66.778L16.498,66.778L17.475,66.778L18.324,66.778L19.225,66.778L21.097,66.778L21.997,66.778L23.006,66.778L23.36,66.778L23.82,66.778L24.698,66.778L26.534,66.778L27.461,66.778L28.434,66.778L29.284,66.778L30.175,66.778L32.014,66.778L32.932,66.778L33.945,66.778L34.355,66.778L34.761,66.778L35.66,66.778L37.489,66.778L38.415,66.778L39.393,66.778L40.242,66.778L41.135,66.778L42.969,66.778L43.892,66.778L44.869,66.778L45.715,66.778L46.611,66.778L48.443,66.778L49.362,66.778L50.33,66.778L51.179,66.778L52.084,66.778L53.929,66.778L54.837,66.778L55.811,66.778L56.664,66.778L57.564,66.778L59.415,66.778L60.339,66.778L61.339,66.778L62.157,66.778L63.048,66.778L64.884,66.778L65.814,66.778L67.63,66.778L68.521,66.778L70.356,66.778L71.281,66.778L71.641,66.778L72.257,66.778L72.868,66.778L73.107,66.778L74.004,66.778L75.833,66.778L76.762,66.778L77.738,66.778L78.585,66.778L79.48,66.778L81.312,66.778L82.237,66.778L83.21,66.778L84.061,66.778L84.955,66.778L86.784,66.778L87.702,66.778L88.671,66.778L89.526,66.778L90.387,66.778L90.43,66.778L92.265,66.778L92.85,66.778L93.178,66.778L94.152,66.778L95.007,66.778L95.91,66.778L97.761,66.778L98.681,66.778L99.654,66.778L100.493,66.778L101.388,66.778L103.23,66.778L104.156,66.778L105.135,66.778L105.974,66.778L106.87,66.778L108.702,66.778L109.626,66.778L110.602,66.778L111.45,66.778L112.346,66.778L114.178,66.778L115.106,66.778L116.075,66.778L116.933,66.778L117.823,66.778L119.659,66.778L120.584,66.778L121.557,66.778L122.4,66.778L123.304,66.778L125.132,66.778L125.601,66.778L126.046,66.778L127.012,66.778L127.87,66.778L128.779,66.778L130.608,66.778L131.523,66.778L132.494,66.778L133.349,66.778L134.257,66.778L136.096,66.778L137.028,66.778L138.005,66.778L138.846,66.778L139.744,66.778L141.572,66.778L142.504,66.778L143.514,66.778L144.328,66.778L145.216,66.778L147.043,66.778L147.977,66.778L148.948,66.778L149.798,66.778L150.696,66.778L152.528,66.778L153.453,66.778L154.424,66.778L155.266,66.778L156.17,66.778L158.003,66.778L158.93,66.778L159.9,66.778L160.747,66.778L161.648,66.778L163.478,66.778L164.395,66.778L165.362,66.778L166.214,66.778L167.127,66.778L168.958,66.778L169.873,66.778L170.837,66.778L171.691,66.778L172.606,66.778L174.445,66.778L175.369,66.778L176.348,66.778L177.192,66.778L178.088,66.778L179.919,66.778L180.852,66.778L181.825,66.778L182.668,66.778L183.567,66.778L185.399,66.778L186.326,66.778L187.303,66.778L188.148,66.778L189.044,66.778L190.877,66.778L191.803,66.778L192.78,66.778L193.623,66.778L194.523,66.778L196.356,66.778L197.281,66.778L198.257,66.778L199.104,66.778L199.998,66.778" stroke="#54a24b" stroke-width="2"/></g></g><path class="foreground" aria-hidden="true" d="" display="none"/></g><g transform="translate(0,0)"><path class="background" aria-hidden="true" d="M0,0h200v200h-200Z"/><g><g class="mark-line role-mark marks" role="graphics-object" aria-roledescription="line mark container"><path aria-label="Time: Aug 18, 2025; Price: 899; identifier: sdrbike-escape-1-city-disc" role="graphics-symbol" aria-roledescription="line mark" d="M23.36,100.111L23.82,100.111L24.699,100.111L26.534,100.111L27.461,100.111L28.434,100.111L29.284,100.111L30.175,100.111L32.014,100.111L32.933,100.111L33.945,100.111L34.355,100.111L34.761,100.111L35.66,100.111L37.489,100.111L38.415,100.111L39.393,100.111L40.243,100.111L41.135,100.111L42.969,100.111L43.892,100.111L44.869,100.111L45.715,100.111L46.611,100.111L48.444,100.111L49.362,100.111L50.33,100.111L51.179,100.111L52.084,100.111L53.929,100.111L54.837,100.111L55.812,100.111L56.665,100.111L57.564,100.111L59.415,100.111L60.339,100.111L61.339,100.111L62.157,100.111L63.049,100.111L64.885,100.111L65.814,100.111L67.63,100.111L68.521,100.111L70.356,100.111L71.281,100.111L71.641,100.111L72.257,100.111L72.868,100.111L73.107,100.111L74.004,100.111L75.833,100.111L76.762,100.111L77.738,100.111L78.585,100.111L79.48,100.111L81.312,100.111L82.237,100.111L83.21,100.111L84.061,100.111L84.955,100.111L86.784,100.111L87.702,100.111L88.672,100.111L89.526,100.111L90.388,100.111L90.43,100.111L92.265,100.111L92.85,100.111L93.178,100.111L94.152,100.111L95.007,100.111L95.911,100.111L97.761,100.111L98.682,100.111L99.654,100.111L100.493,100.111L101.388,100.111L103.23,100.111L104.157,100.111L105.136,100.111L105.975,100.111L106.87,100.111L108.702,100.111L109.626,100.111L110.602,100.111L111.45,100.111L112.346,100.111L114.179,100.111L115.107,100.111L116.075,100.111L116.933,100.111L117.823,100.111L119.659,100.111L120.584,100.111L121.557,100.111L122.401,100.111L123.304,100.111L125.132,100.111L125.602,100.111L126.046,100.111L127.012,100.111L127.87,100.111L128.779,100.111L130.608,100.111L131.524,100.111L132.494,100.111L133.349,100.111L134.257,100.111L136.096,100.111L137.028,100.111L138.005,100.111L138.847,100.111L139.744,100.111L141.572,100.111L142.504,100.111L143.514,100.111L144.329,100.111L145.216,100.111L147.043,100.111L147.977,100.111L148.948,100.111L149.798,100.111L150.697,100.111L152.529,100.111L153.454,100.111L154.424,100.111L155.266,100.111L156.17,100.111L158.003,100.111L158.93,100.111L159.9,100.111L160.747,100.111L161.648,100.111L163.478,100.111L164.395,100.111L165.362,100.111L166.215,100.111L167.127,100.111L168.958,100.111L169.874,100.111L170.837,100.111L171.691,100.111L172.606,100.111L174.445,100.111L175.369,100.111L176.348,100.111L177.192,100.111L178.088,100.111L179.919,100.111L180.852,100.111L181.825,100.111L182.668,100.111L183.567,100.111L185.4,100.111L186.326,100.111L187.304,100.111L188.148,100.111L189.044,100.111L190.877,100.111L191.803,100.111L192.78,100.111L193.623,100.111L194.524,100.111L196.356,100.111L197.281,100.111L198.257,100.111L199.104,100.111L199.998,100.111" stroke="#f58518" stroke-width="2"/></g></g><path class="foreground" aria-hidden="true" d="" display="none"/></g><g transform="translate(0,0)"><path class="background" aria-hidden="true" d="M0,0h200v200h-200Z"/><g><g class="mark-line role-mark marks" role="graphics-object" aria-roledescription="line mark container"><path aria-label="Time: Aug 20, 2025; Price: 899; identifier: roam-disc-2-2024" role="graphics-symbol" aria-roledescription="line mark" d="M34.355,100.111L34.76,100.111L35.659,100.111L37.489,100.111L38.415,100.111L39.392,100.111L40.242,100.111L41.135,100.111L42.969,100.111L43.892,100.111L44.868,100.111L45.715,100.111L46.61,100.111L48.443,100.111L49.361,100.111L50.33,100.111L51.179,100.111L52.083,100.111L53.928,100.111L54.836,100.111L55.811,100.111L56.664,100.111L57.563,100.111L59.414,100.111L60.339,100.111L61.338,100.111L62.156,100.111L63.048,100.111L64.884,100.111L65.814,100.111L67.629,100.111L68.521,100.111L70.355,100.111L71.281,100.111L71.64,100.111L72.257,100.111L72.868,100.111L73.107,100.111L74.003,100.111L75.833,100.111L76.762,100.111L77.737,100.111L78.584,100.111L79.479,100.111L81.311,100.111L82.236,100.111L83.209,100.111L84.061,100.111L84.955,100.111L86.784,100.111L87.702,100.111L88.671,100.111L89.526,100.111L90.387,100.111L90.43,100.111L92.264,100.111L92.849,100.111L93.178,100.111L94.152,100.111L95.007,100.111L95.91,100.111L97.76,100.111L98.681,100.111L99.653,100.111L100.492,100.111L101.387,100.111L103.23,100.111L104.156,100.111L105.135,100.111L105.974,100.111L106.869,100.111L108.701,100.111L109.626,100.111L110.601,100.111L111.45,100.111L112.346,100.111L114.178,100.111L115.106,100.111L116.075,100.111L116.932,100.111L117.823,100.111L119.659,100.111L120.583,100.111L121.556,100.111L122.4,100.111L123.303,100.111L125.131,100.111L125.601,100.111L126.045,100.111L127.012,100.111L127.869,100.111L128.779,100.111L130.608,100.111L131.523,100.111L132.493,100.111L133.348,100.111L134.257,100.111L136.096,100.111L137.027,100.111L138.004,100.111L138.846,100.111L139.743,100.111L141.572,100.111L142.504,100.111L143.513,100.111L144.328,100.111L145.215,100.111L147.043,100.111L147.977,100.111L148.948,100.111L149.798,100.111L150.696,100.111L152.528,100.111L153.453,100.111L154.424,100.111L155.265,100.111L156.17,100.111L158.002,100.111L158.929,100.111L159.9,100.111L160.746,100.111L161.648,100.111L163.477,100.111L164.395,100.111L165.362,100.111L166.214,100.111L167.127,100.111L168.958,100.111L169.873,100.111L170.836,100.111L171.691,100.111L172.605,100.111L174.445,100.111L175.369,100.111L176.348,100.111L177.192,100.111L178.088,100.111L179.919,100.111L180.852,100.111L181.825,100.111L182.668,100.111L183.567,100.111L185.399,100.111L186.325,100.111L187.303,100.111L188.147,100.111L189.044,100.111L190.877,100.111L191.802,100.111L192.78,100.111L193.622,100.111L194.523,100.111L196.355,100.111L197.28,100.111L198.256,100.111L199.104,100.111L199.998,100.111" stroke="#e45756" stroke-width="2"/></g></g><path class="foreground" aria-hidden="true" d="" display="none"/></g><g transform="translate(0,0)"><path class="background" aria-hidden="true" d="M0,0h200v200h-200Z"/><g><g class="mark-line role-mark marks" role="graphics-object" aria-roledescription="line mark container"><path aria-label="Time: Aug 20, 2025; Price: 1199; identifier: thrive-2" role="graphics-symbol" aria-roledescription="line mark" d="M34.355,66.778L34.761,66.778L35.66,66.778L37.489,66.778L38.416,66.778L39.393,66.778L40.243,66.778L41.136,66.778L42.969,66.778L43.892,66.778L44.869,66.778L45.716,66.778L46.611,66.778L48.444,66.778L49.362,66.778L50.33,66.778L51.18,66.778L52.084,66.778L53.929,66.778L54.837,66.778L55.812,66.778L56.665,66.778L57.564,66.778L59.415,66.778L60.339,66.778L61.339,66.778L62.157,66.778L63.049,66.778L64.885,66.778L65.814,66.778L67.63,66.778L68.521,66.778L70.356,66.778L71.282,66.778L71.642,66.778L72.257,66.778L72.868,66.778L73.108,66.778L74.004,66.778L75.833,66.778L76.762,66.778L77.738,66.778L78.585,66.778L79.48,66.778L81.312,66.778L82.237,66.778L83.21,66.778L84.061,66.778L84.955,66.778L86.784,66.778L87.702,66.778L88.672,66.778L89.526,66.778L90.388,66.778L90.43,66.778L92.265,66.778L92.85,66.778L93.178,66.778L94.153,66.778L95.008,66.778L95.911,66.778L97.761,66.778L98.682,66.778L99.654,66.778L100.493,66.778L101.388,66.778L103.231,66.778L104.157,66.778L105.136,66.778L105.975,66.778L106.87,66.778L108.702,66.778L109.626,66.778L110.602,66.778L111.45,66.778L112.346,66.778L114.179,66.778L115.107,66.778L116.076,66.778L116.933,66.778L117.824,66.778L119.659,66.778L120.584,66.778L121.557,66.778L122.401,66.778L123.304,66.778L125.132,66.778L125.602,66.778L126.046,66.778L127.012,66.778L127.87,66.778L128.779,66.778L130.608,66.778L131.524,66.778L132.494,66.778L133.349,66.778L134.257,66.778L136.096,66.778L137.028,66.778L138.005,66.778L138.847,66.778L139.744,66.778L141.572,66.778L142.504,66.778L143.514,66.778L144.329,66.778L145.216,66.778L147.043,66.778L147.977,66.778L148.948,66.778L149.798,66.778L150.697,66.778L152.529,66.778L153.454,66.778L154.425,66.778L155.266,66.778L156.17,66.778L158.003,66.778L158.93,66.778L159.9,66.778L160.747,66.778L161.649,66.778L163.478,66.778L164.395,66.778L165.362,66.778L166.215,66.778L167.128,66.778L168.958,66.778L169.874,66.778L170.837,66.778L171.692,66.778L172.606,66.778L174.446,66.778L175.369,66.778L176.348,66.778L177.193,66.778L178.088,66.778L179.919,66.778L180.852,66.778L181.825,66.778L182.668,66.778L183.567,66.778L185.4,66.778L186.326,66.778L187.304,66.778L188.148,66.778L189.045,66.778L190.877,66.778L191.803,66.778L192.781,66.778L193.623,66.778L194.524,66.778L196.356,66.778L197.281,66.778L198.257,66.778L199.105,66.778L199.999,66.778" stroke="#eeca3b" stroke-width="2"/></g></g><path class="foreground" aria-hidden="true" d="" display="none"/></g><g transform="translate(0,0)"><path class="background" aria-hidden="true" d="M0,0h200v200h-200Z"/><g><g class="mark-line role-mark marks" role="graphics-object" aria-roledescription="line mark container"><path aria-label="Time: Aug 20, 2025; Price: 999; identifier: rove-2" role="graphics-symbol" aria-roledescription="line mark" d="M34.356,89L34.761,89L35.66,89L37.49,89L38.416,89L39.393,89L40.243,89L41.136,89L42.97,89L43.892,89L44.869,89L45.716,89L46.611,89L48.444,89L49.362,89L50.331,89L51.18,89L52.084,89L53.929,89L54.837,89L55.812,89L56.665,89L57.564,89L59.415,89L60.339,89L61.339,89L62.157,89L63.049,89L64.885,89L65.814,89L67.63,89L68.522,89L70.356,89L71.282,89L71.642,89L72.258,89L72.868,89L73.108,89L74.004,89L75.833,89L76.763,89L77.738,89L78.585,89L79.48,89L81.312,89L82.237,89L83.21,89L84.061,89L84.956,89L90.388,111.222L90.43,111.222L92.265,111.222L92.85,111.222L93.179,111.222L94.153,111.222L95.008,111.222L95.911,111.222L97.761,111.222L98.682,111.222L99.654,111.222L100.493,111.222L101.388,111.222L103.231,111.222L104.157,111.222L105.136,111.222L105.975,111.222L106.87,111.222L108.702,111.222L109.626,111.222L110.602,111.222L111.451,111.222L112.347,111.222L114.179,111.222L115.107,111.222L116.076,111.222L116.933,111.222L117.824,111.222L119.659,111.222L120.584,111.222L121.557,111.222L122.401,111.222L123.304,111.222L125.132,111.222L125.602,111.222L126.046,111.222L127.012,111.222L127.87,111.222L128.779,111.222L130.609,111.222L131.524,111.222L132.494,111.222L133.349,111.222L134.257,111.222L136.097,111.222L137.028,111.222L138.005,111.222L138.847,111.222L139.744,111.222L141.573,111.222L142.504,111.222L143.514,111.222L144.329,111.222L145.216,111.222L147.043,111.222L147.977,111.222L148.949,111.222L149.798,111.222L150.697,111.222L152.529,111.222L153.454,111.222L154.425,111.222L155.266,111.222L156.171,111.222L158.003,111.222L158.93,111.222L159.9,111.222L160.747,111.222L161.649,111.222L163.478,111.222L164.395,111.222L165.363,111.222L166.215,111.222L167.128,111.222L168.958,111.222L169.874,111.222L170.837,111.222L171.692,111.222L172.606,111.222L174.446,111.222L175.369,111.222L176.349,111.222L177.193,111.222L178.088,111.222L179.92,111.222L180.852,111.222L181.825,111.222L182.668,111.222L183.567,111.222L185.4,111.222L186.326,111.222L187.304,111.222L188.148,111.222L189.045,111.222L190.877,111.222L191.803,111.222L192.781,111.222L193.623,111.222L194.524,111.222L196.356,111.222L197.281,111.222L198.257,111.222L199.105,111.222L199.999,111.222" stroke="#72b7b2" stroke-width="2"/></g></g><path class="foreground" aria-hidden="true" d="" display="none"/></g><g transform="translate(0,0)"><path class="background" aria-hidden="true" d="M0,0h200v200h-200Z"/><g><g class="mark-line role-mark marks" role="graphics-object" aria-roledescription="line mark container"><path aria-label="Time: Aug 27, 2025; Price: 1199; identifier: allure-rs-1-2023" role="graphics-symbol" aria-roledescription="line mark" d="M71.642,66.778L72.258,66.778L72.868,66.778L73.108,66.778L74.004,66.778L75.834,66.778L76.763,66.778L77.738,66.778L78.585,66.778L79.48,66.778L81.312,66.778L82.237,66.778L83.21,66.778L84.061,66.778L84.956,66.778L86.784,66.778L87.703,66.778L88.672,66.778L89.526,66.778L90.388,66.778L90.43,66.778L92.265,66.778L92.85,66.778L93.179,66.778L94.153,66.778L95.008,66.778L95.911,66.778L97.761,66.778L98.682,66.778L99.654,66.778L100.493,66.778L101.388,66.778L103.231,66.778L104.157,66.778L105.136,66.778L105.975,66.778L106.87,66.778L108.702,66.778L109.626,66.778L110.602,66.778L111.451,66.778L112.347,66.778L114.179,66.778L115.107,66.778L116.076,66.778L116.933,66.778L117.824,66.778L119.66,66.778L120.584,66.778L121.557,66.778L122.401,66.778L123.304,66.778L125.132,66.778L125.602,66.778L126.046,66.778L127.013,66.778L127.87,66.778L128.779,66.778L130.609,66.778L131.524,66.778L132.494,66.778L133.349,66.778L134.257,66.778L136.097,66.778L137.028,66.778L138.005,66.778L138.847,66.778L139.744,66.778L141.573,66.778L142.504,66.778L143.515,66.778L144.329,66.778L145.216,66.778L147.043,66.778L147.978,66.778L148.949,66.778L149.799,66.778L150.697,66.778L152.529,66.778L153.454,66.778L154.425,66.778L155.266,66.778L156.171,66.778L158.003,66.778L158.93,66.778L159.901,66.778L160.747,66.778L161.649,66.778L163.478,66.778L164.395,66.778L165.363,66.778L166.215,66.778L167.128,66.778L168.959,66.778L169.874,66.778L170.837,66.778L171.692,66.778L172.606,66.778L174.446,66.778L175.369,66.778L176.349,66.778L177.193,66.778L178.089,66.778L179.92,66.778L180.853,66.778L181.826,66.778L182.669,66.778L183.567,66.778L185.4,66.778L186.326,66.778L187.304,66.778L188.148,66.778L189.045,66.778L190.877,66.778L191.803,66.778L192.781,66.778L193.623,66.778L194.524,66.778L196.356,66.778L197.282,66.778L198.257,66.778L199.105,66.778L199.999,66.778" stroke="#b279a2" stroke-width="2"/></g></g><path class="foreground" aria-hidden="true" d="" display="none"/></g><g transform="translate(0,0)"><path class="background" aria-hidden="true" d="M0,0h200v200h-200Z"/><g><g class="mark-line role-mark marks" role="graphics-object" aria-roledescription="line mark container"><path aria-label="Time: Aug 27, 2025; Price: 999; identifier: allure-rs-2-2022" role="graphics-symbol" aria-roledescription="line mark" d="M71.643,89L72.258,89L72.869,89L73.108,89L74.004,89L75.834,89L76.763,89L77.739,89L78.585,89L79.48,89L81.312,89L82.237,89L83.21,89L84.061,89L84.956,89L90.388,111.222L90.431,111.222L92.265,111.222L92.85,111.222L93.179,111.222L94.153,111.222L95.008,111.222L95.911,111.222L97.761,111.222L98.682,111.222L99.654,111.222L100.493,111.222L101.388,111.222L103.231,111.222L104.157,111.222L105.136,111.222L105.975,111.222L106.87,111.222L108.702,111.222L109.627,111.222L110.602,111.222L111.451,111.222L112.347,111.222L114.179,111.222L115.107,111.222L116.076,111.222L116.933,111.222L117.824,111.222L119.66,111.222L120.584,111.222L121.557,111.222L122.401,111.222L123.304,111.222L125.132,111.222L125.602,111.222L126.046,111.222L127.013,111.222L127.87,111.222L128.779,111.222L130.609,111.222L131.524,111.222L132.495,111.222L133.349,111.222L134.258,111.222L136.097,111.222L137.028,111.222L138.006,111.222L138.847,111.222L139.744,111.222L141.573,111.222L142.505,111.222L143.515,111.222L144.329,111.222L145.216,111.222L147.044,111.222L147.978,111.222L148.949,111.222L149.799,111.222L150.697,111.222L152.529,111.222L153.454,111.222L154.425,111.222L155.266,111.222L156.171,111.222L158.003,111.222L158.93,111.222L159.901,111.222L160.747,111.222L161.649,111.222L163.478,111.222L164.396,111.222L165.363,111.222L166.215,111.222L167.128,111.222L168.959,111.222L169.874,111.222L170.837,111.222L171.692,111.222L172.606,111.222L174.446,111.222L175.369,111.222L176.349,111.222L177.193,111.222L178.089,111.222L179.92,111.222L180.853,111.222L181.826,111.222L182.669,111.222L183.568,111.222L185.4,111.222L186.326,111.222L187.304,111.222L188.148,111.222L189.045,111.222L190.878,111.222L191.803,111.222L192.781,111.222L193.624,111.222L194.524,111.222L196.356,111.222L197.282,111.222L198.257,111.222L199.105,111.222L199.999,111.222" stroke="#54a24b" stroke-width="2"/></g></g><path class="foreground" aria-hidden="true" d="" display="none"/></g><g transform="translate(0,0)"><path class="background" aria-hidden="true" d="M0,0h200v200h-200Z"/><g><g class="mark-line role-mark marks" role="graphics-object" aria-roledescription="line mark container"><path aria-label="Time: Aug 27, 2025; Price: 949; identifier: allure-rs-2-2023" role="graphics-symbol" aria-roledescription="line mark" d="M71.643,94.556L72.258,94.556L72.869,94.556L73.108,94.556L74.004,94.556L75.834,94.556L76.763,94.556L77.739,94.556L78.585,94.556L79.48,94.556L81.313,94.556L82.237,94.556L83.211,94.556L84.062,94.556L84.956,94.556L86.785,94.556L87.703,94.556L88.672,94.556L89.527,94.556L90.388,94.556L90.431,94.556L92.265,94.556L92.85,94.556L93.179,94.556L94.153,94.556L95.008,94.556L95.911,94.556L97.761,94.556L98.682,94.556L99.654,94.556L100.493,94.556L101.388,94.556L103.231,94.556L104.157,94.556L105.136,94.556L105.975,94.556L106.871,94.556L108.702,94.556L109.627,94.556L110.603,94.556L111.451,94.556L112.347,94.556L114.179,94.556L115.107,94.556L116.076,94.556L116.933,94.556L117.824,94.556L119.66,94.556L120.584,94.556L121.557,94.556L122.401,94.556L123.304,94.556L125.132,94.556L125.602,94.556L126.047,94.556L127.013,94.556L127.87,94.556L128.78,94.556L130.609,94.556L131.524,94.556L132.495,94.556L133.349,94.556L134.258,94.556L136.097,94.556L137.029,94.556L138.006,94.556L138.847,94.556L139.744,94.556L141.573,94.556L142.505,94.556L143.515,94.556L144.329,94.556L145.216,94.556L147.044,94.556L147.978,94.556L148.949,94.556L149.799,94.556L150.697,94.556L152.529,94.556L153.454,94.556L154.425,94.556L155.267,94.556L156.171,94.556L158.003,94.556L158.931,94.556L159.901,94.556L160.747,94.556L161.649,94.556L163.478,94.556L164.396,94.556L165.363,94.556L166.215,94.556L167.128,94.556L168.959,94.556L169.874,94.556L170.837,94.556L171.692,94.556L172.607,94.556L174.446,94.556L175.37,94.556L176.349,94.556L177.193,94.556L178.089,94.556L179.92,94.556L180.853,94.556L181.826,94.556L182.669,94.556L183.568,94.556L185.4,94.556L186.326,94.556L187.304,94.556L188.149,94.556L189.045,94.556L190.878,94.556L191.803,94.556L192.781,94.556L193.624,94.556L194.524,94.556L196.356,94.556L197.282,94.556L198.257,94.556L199.105,94.556L199.999,94.556" stroke="#bab0ac" stroke-width="2"/></g></g><path class="foreground" aria-hidden="true" d="" display="none"/></g><g transform="translate(0,0)"><path class="background" aria-hidden="true" d="M0,0h200v200h-200Z"/><g><g class="mark-line role-mark marks" role="graphics-object" aria-roledescription="line mark container"><path aria-label="Time: Aug 27, 2025; Price: 999; identifier: allure-rs-2-2024" role="graphics-symbol" aria-roledescription="line mark" d="M71.643,89L72.258,89L72.869,89L73.108,89L74.005,89L75.834,89L76.763,89L77.739,89L78.586,89L79.481,89L81.313,89L82.238,89L83.211,89L84.062,89L84.956,89L90.388,111.222L90.431,111.222L92.265,111.222L92.851,111.222L93.179,111.222L94.153,111.222L95.008,111.222L95.911,111.222L97.761,111.222L98.682,111.222L99.655,111.222L100.494,111.222L101.389,111.222L103.231,111.222L104.157,111.222L105.136,111.222L105.975,111.222L106.871,111.222L108.702,111.222L109.627,111.222L110.603,111.222L111.451,111.222L112.347,111.222L114.179,111.222L115.107,111.222L116.076,111.222L116.934,111.222L117.824,111.222L119.66,111.222L120.584,111.222L121.557,111.222L122.401,111.222L123.304,111.222L125.132,111.222L125.602,111.222L126.047,111.222L127.013,111.222L127.871,111.222L128.78,111.222L130.609,111.222L131.524,111.222L132.495,111.222L133.349,111.222L134.258,111.222L136.097,111.222L137.029,111.222L138.006,111.222L138.847,111.222L139.744,111.222L141.573,111.222L142.505,111.222L143.515,111.222L144.329,111.222L145.217,111.222L147.044,111.222L147.978,111.222L148.949,111.222L149.799,111.222L150.698,111.222L152.53,111.222L153.454,111.222L154.425,111.222L155.267,111.222L156.171,111.222L158.004,111.222L158.931,111.222L159.901,111.222L160.747,111.222L161.649,111.222L163.479,111.222L164.396,111.222L165.363,111.222L166.215,111.222L167.128,111.222L168.959,111.222L169.874,111.222L170.838,111.222L171.692,111.222L172.607,111.222L174.446,111.222L175.37,111.222L176.349,111.222L177.194,111.222L178.089,111.222L179.92,111.222L180.853,111.222L181.826,111.222L182.669,111.222L183.568,111.222L185.4,111.222L186.327,111.222L187.305,111.222L188.149,111.222L189.045,111.222L190.878,111.222L191.804,111.222L192.781,111.222L193.624,111.222L194.524,111.222L196.357,111.222L197.282,111.222L198.258,111.222L199.105,111.222L199.999,111.222" stroke="#eeca3b" stroke-width="2"/></g></g><path class="foreground" aria-hidden="true" d="" display="none"/></g><g transform="translate(0,0)"><path class="background" aria-hidden="true" d="M0,0h200v200h-200Z"/><g><g class="mark-line role-mark marks" role="graphics-object" aria-roledescription="line mark container"><path aria-label="Time: Aug 27, 2025; Price: 1799; identifier: devote-1-2024" role="graphics-symbol" aria-roledescription="line mark" d="M72.869,0.111L73.108,0.111L74.005,0.111L75.834,0.111L76.763,0.111L77.739,0.111L78.586,0.111L79.481,0.111L81.313,0.111L82.238,0.111L83.211,0.111L84.062,0.111L84.956,0.111L90.389,44.556L90.431,44.556L92.266,44.556L92.851,44.556L93.179,44.556L94.153,44.556L95.008,44.556L95.911,44.556L97.762,44.556L98.682,44.556L99.655,44.556L100.494,44.556L101.389,44.556L103.231,44.556L104.157,44.556L105.137,44.556L105.975,44.556L106.871,44.556L108.702,44.556L109.627,44.556L110.603,44.556L111.451,44.556L112.347,44.556L114.18,44.556L115.108,44.556L116.076,44.556L116.934,44.556L117.824,44.556L119.66,44.556L120.584,44.556L121.558,44.556L122.402,44.556L123.305,44.556L125.133,44.556L125.602,44.556L126.047,44.556L127.013,44.556L127.871,44.556L128.78,44.556L130.609,44.556L131.525,44.556L132.495,44.556L133.35,44.556L134.258,44.556L136.097,44.556L137.029,44.556L138.006,44.556L138.847,44.556L139.745,44.556L141.573,44.556L142.505,44.556L143.515,44.556L144.329,44.556L145.217,44.556L147.044,44.556L147.978,44.556L148.949,44.556L149.799,44.556L150.698,44.556L152.53,44.556L153.454,44.556L154.425,44.556L155.267,44.556L156.171,44.556L158.004,44.556L158.931,44.556L159.901,44.556L160.747,44.556L161.649,44.556L163.479,44.556L164.396,44.556L165.363,44.556L166.216,44.556L167.128,44.556L168.959,44.556L169.875,44.556L170.838,44.556L171.692,44.556L172.607,44.556L174.446,44.556L175.37,44.556L176.349,44.556L177.195,44.556L178.09,44.556L179.92,44.556L180.853,44.556L181.826,44.556L182.669,44.556L183.568,44.556L185.401,44.556L186.327,44.556L187.305,44.556L188.149,44.556L189.045,44.556L190.878,44.556L191.804,44.556L192.782,44.556L193.624,44.556L194.524,44.556L196.357,44.556L197.282,44.556L198.258,44.556L199.105,44.556L199.999,44.556" stroke="#72b7b2" stroke-width="2"/></g></g><path class="foreground" aria-hidden="true" d="" display="none"/></g><g transform="translate(0,0)"><path class="background" aria-hidden="true" d="M0,0h200v200h-200Z"/><g><g class="mark-line role-mark marks" role="graphics-object" aria-roledescription="line mark container"><path aria-label="Time: Aug 27, 2025; Price: 1699; identifier: devote-1-2022" role="graphics-symbol" aria-roledescription="line mark" d="M72.869,11.222L73.108,11.222L74.005,11.222L75.834,11.222L76.763,11.222L77.739,11.222L78.586,11.222L79.481,11.222L81.313,11.222L82.238,11.222L83.211,11.222L84.062,11.222L84.956,11.222L86.785,11.222L87.703,11.222L88.673,11.222L89.527,11.222L90.389,11.222L90.431,11.222L92.266,11.222L92.851,11.222L93.179,11.222L94.154,11.222L95.008,11.222L95.911,11.222L97.762,11.222L98.683,11.222L99.655,11.222L100.494,11.222L101.389,11.222L103.231,11.222L104.158,11.222L105.137,11.222L105.975,11.222L106.871,11.222L108.703,11.222L109.627,11.222L110.603,11.222L111.451,11.222L112.347,11.222L114.18,11.222L115.108,11.222L116.076,11.222L116.934,11.222L117.825,11.222L119.66,11.222L120.585,11.222L121.558,11.222L122.402,11.222L123.305,11.222L125.133,11.222L125.602,11.222L126.047,11.222L127.013,11.222L127.871,11.222L128.78,11.222L130.609,11.222L131.525,11.222L132.495,11.222L133.35,11.222L134.258,11.222L136.097,11.222L137.029,11.222L138.006,11.222L138.848,11.222L139.745,11.222L141.573,11.222L142.505,11.222L143.515,11.222L144.33,11.222L145.217,11.222L147.044,11.222L147.978,11.222L148.949,11.222L149.799,11.222L150.698,11.222L152.53,11.222L153.454,11.222L154.425,11.222L155.267,11.222L156.171,11.222L158.004,11.222L158.931,11.222L159.902,11.222L160.748,11.222L161.649,11.222L163.479,11.222L164.396,11.222L165.363,11.222L166.216,11.222L167.128,11.222L168.959,11.222L169.875,11.222L170.838,11.222L171.692,11.222L172.607,11.222L174.447,11.222L175.37,11.222L176.35,11.222L177.195,11.222L178.091,11.222L179.92,11.222L180.853,11.222L181.826,11.222L182.669,11.222L183.568,11.222L185.401,11.222L186.327,11.222L187.305,11.222L188.149,11.222L189.046,11.222L190.878,11.222L191.804,11.222L192.782,11.222L193.624,11.222L194.525,11.222L196.357,11.222L197.282,11.222L198.258,11.222L199.105,11.222L199.999,11.222" stroke="#4c78a8" stroke-width="2"/></g></g><path class="foreground" aria-hidden="true" d="" display="none"/></g><g transform="translate(0,0)"><path class="background" aria-hidden="true" d="M0,0h200v200h-200Z"/><g><g class="mark-line role-mark marks" role="graphics-object" aria-roledescription="line mark container"><path aria-label="Time: Aug 31, 2025; Price: 1599; identifier: silex-400-oak-bork-2026" role="graphics-symbol" aria-roledescription="line mark" d="M92.851,22.333L93.18,22.333L94.154,22.333L95.009,22.333L95.912,22.333L97.762,22.333L98.683,22.333L99.655,22.333L100.494,22.333L101.389,22.333L103.232,22.333L104.158,22.333L105.137,22.333L105.976,22.333L106.871,22.333L108.703,22.333L109.627,22.333L110.603,22.333L111.451,22.333L112.347,22.333L114.18,22.333L115.108,22.333L116.077,22.333L116.934,22.333L117.825,22.333L119.66,22.333L120.585,22.333L121.558,22.333L122.402,22.333L123.305,22.333L125.133,22.333L125.603,22.333L126.047,22.333L127.014,22.333L127.871,22.333L128.78,22.333L130.609,22.333L131.525,22.333L132.495,22.333L133.35,22.333L134.258,22.333L136.098,22.333L137.029,22.333L138.006,22.333L138.848,22.333L139.745,22.333L141.574,22.333L142.505,22.333L143.516,22.333L144.33,22.333L145.217,22.333L147.044,22.333L147.979,22.333L148.95,22.333L149.799,22.333L150.698,22.333L152.53,22.333L153.455,22.333L154.426,22.333L155.267,22.333L156.172,22.333L158.004,22.333L158.931,22.333L159.902,22.333L160.748,22.333L161.65,22.333L163.479,22.333L164.396,22.333L165.364,22.333L166.216,22.333L167.129,22.333L168.96,22.333L169.875,22.333L170.838,22.333L171.693,22.333L172.607,22.333L174.447,22.333L175.37,22.333L176.35,22.333L177.195,22.333L178.091,22.333L179.921,22.333L180.853,22.333L181.826,22.333L182.67,22.333L183.568,22.333L185.401,22.333L186.327,22.333L187.305,22.333L188.149,22.333L189.046,22.333L190.878,22.333L191.804,22.333L192.782,22.333L193.624,22.333L194.525,22.333L196.357,22.333L197.283,22.333L198.258,22.333L199.106,22.333L200,22.333" stroke="#f58518" stroke-width="2"/></g></g><path class="foreground" aria-hidden="true" d="" display="none"/></g><g transform="translate(0,0)"><path class="background" aria-hidden="true" d="M0,0h200v200h-200Z"/><g><g class="mark-line role-mark marks" role="graphics-object" aria-roledescription="line mark container"><path aria-label="Time: Aug 31, 2025; Price: 1599; identifier: silex-400-warm-slate-grey-2026" role="graphics-symbol" aria-roledescription="line mark" d="M92.851,22.333L93.18,22.333L94.154,22.333L95.009,22.333L95.912,22.333L97.762,22.333L98.683,22.333L99.655,22.333L100.494,22.333L101.389,22.333L103.232,22.333L104.158,22.333L105.137,22.333L105.976,22.333L106.872,22.333L108.703,22.333L109.627,22.333L110.603,22.333L111.452,22.333L112.348,22.333L114.18,22.333L115.108,22.333L116.077,22.333L116.934,22.333L117.825,22.333L119.661,22.333L120.585,22.333L121.558,22.333L122.402,22.333L123.305,22.333L125.133,22.333L125.603,22.333L126.048,22.333L127.014,22.333L127.871,22.333L128.78,22.333L130.61,22.333L131.525,22.333L132.496,22.333L133.35,22.333L134.258,22.333L136.098,22.333L137.03,22.333L138.007,22.333L138.848,22.333L139.745,22.333L141.574,22.333L142.505,22.333L143.516,22.333L144.33,22.333L145.217,22.333L147.045,22.333L147.979,22.333L148.95,22.333L149.8,22.333L150.698,22.333L152.53,22.333L153.455,22.333L154.426,22.333L155.267,22.333L156.172,22.333L158.004,22.333L158.932,22.333L159.902,22.333L160.748,22.333L161.65,22.333L163.479,22.333L164.396,22.333L165.364,22.333L166.216,22.333L167.129,22.333L168.96,22.333L169.875,22.333L170.838,22.333L171.693,22.333L172.607,22.333L174.447,22.333L175.37,22.333L176.35,22.333L177.195,22.333L178.092,22.333L179.921,22.333L180.854,22.333L181.827,22.333L182.67,22.333L183.569,22.333L185.401,22.333L186.327,22.333L187.305,22.333L188.15,22.333L189.046,22.333L190.879,22.333L191.804,22.333L192.782,22.333L193.625,22.333L194.525,22.333L196.357,22.333L197.283,22.333L198.258,22.333L199.106,22.333L200,22.333" stroke="#e45756" stroke-width="2"/></g></g><path class="foreground" aria-hidden="true" d="" display="none"/></g></g><g class="mark-group role-legend" role="graphics-symbol" aria-roledescription="legend" aria-label="Symbol legend titled 'identifier' for stroke color with 16 values: devote-1-2022, silex-400-oak-bork-2026, silex-400-warm-slate-grey-2026, devote-1-2024, fastroad-ar-2, ending with allure-rs-2-2024"><g transform="translate(220,0)"><path class="background" aria-hidden="true" d="M0,0h256v222h-256Z" pointer-events="none"/><g><g class="mark-group role-legend-entry"><g transform="translate(0,16)"><path class="background" aria-hidden="true" d="M0,0h0v0h0Z" pointer-events="none"/><g><g class="mark-group role-scope" role="graphics-object" aria-roledescription="group mark container"><g transform="translate(0,0)"><path class="background" aria-hidden="true" d="M0,0h256v11h-256Z" pointer-events="none" opacity="1"/><g><g class="mark-symbol role-legend-symbol" pointer-events="none"><path transform="translate(6,6)" d="M-5,0L5,0" stroke="#4c78a8" stroke-width="1.5" opacity="1"/></g><g class="mark-text role-legend-label" pointer-events="none"><text text-anchor="start" transform="translate(16,9)" font-family="Liberation Mono" font-size="10px" fill="#000" opacity="1">devote-1-2022</text></g></g><path class="foreground" aria-hidden="true" d="" pointer-events="none" display="none"/></g><g transform="translate(0,13)"><path class="background" aria-hidden="true" d="M0,0h256v11h-256Z" pointer-events="none" opacity="1"/><g><g class="mark-symbol role-legend-symbol" pointer-events="none"><path transform="translate(6,6)" d="M-5,0L5,0" stroke="#f58518" stroke-width="1.5" opacity="1"/></g><g class="mark-text role-legend-label" pointer-events="none"><text text-anchor="start" transform="translate(16,9)" font-family="Liberation Mono" font-size="10px" fill="#000" opacity="1">silex-400-oak-bork-2026</text></g></g><path class="foreground" aria-hidden="true" d="" pointer-events="none" display="none"/></g><g transform="translate(0,26)"><path class="background" aria-hidden="true" d="M0,0h256v11h-256Z" pointer-events="none" opacity="1"/><g><g class="mark-symbol role-legend-symbol" pointer-events="none"><path transform="translate(6,6)" d="M-5,0L5,0" stroke="#e45756" stroke-width="1.5" opacity="1"/></g><g class="mark-text role-legend-label" pointer-events="none"><text text-anchor="start" transform="translate(16,9)" font-family="Liberation Mono" font-size="10px" fill="#000" opacity="1">silex-400-warm-slate-grey-2026</text></g></g><path class="foreground" aria-hidden="true" d="" pointer-events="none" display="none"/></g><g transform="translate(0,39)"><path class="background" aria-hidden="true" d="M0,0h256v11h-256Z" pointer-events="none" opacity="1"/><g><g class="mark-symbol role-legend-symbol" pointer-events="none"><path transform="translate(6,6)" d="M-5,0L5,0" stroke="#72b7b2" stroke-width="1.5" opacity="1"/></g><g class="mark-text role-legend-label" pointer-events="none"><text text-anchor="start" transform="translate(16,9)" font-family="Liberation Mono" font-size="10px" fill="#000" opacity="1">devote-1-2024</text></g></g><path class="foreground" aria-hidden="true" d="" pointer-events="none" display="none"/></g><g transform="translate(0,52)"><path class="background" aria-hidden="true" d="M0,0h256v11h-256Z" pointer-events="none" opacity="1"/><g><g class="mark-symbol role-legend-symbol" pointer-events="none"><path transform="translate(6,6)" d="M-5,0L5,0" stroke="#54a24b" stroke-width="1.5" opacity="1"/></g><g class="mark-text role-legend-label" pointer-events="none"><text text-anchor="start" transform="translate(16,9)" font-family="Liberation Mono" font-size="10px" fill="#000" opacity="1">fastroad-ar-2</text></g></g><path class="foreground" aria-hidden="true" d="" pointer-events="none" display="none"/></g><g transform="translate(0,65)"><path class="background" aria-hidden="true" d="M0,0h256v11h-256Z" pointer-events="none" opacity="1"/><g><g class="mark-symbol role-legend-symbol" pointer-events="none"><path transform="translate(6,6)" d="M-5,0L5,0" stroke="#eeca3b" stroke-width="1.5" opacity="1"/></g><g class="mark-text role-legend-label" pointer-events="none"><text text-anchor="start" transform="translate(16,9)" font-family="Liberation Mono" font-size="10px" fill="#000" opacity="1">thrive-2</text></g></g><path class="foreground" aria-hidden="true" d="" pointer-events="none" display="none"/></g><g transform="translate(0,78)"><path class="background" aria-hidden="true" d="M0,0h256v11h-256Z" pointer-events="none" opacity="1"/><g><g class="mark-symbol role-legend-symbol" pointer-events="none"><path transform="translate(6,6)" d="M-5,0L5,0" stroke="#b279a2" stroke-width="1.5" opacity="1"/></g><g class="mark-text role-legend-label" pointer-events="none"><text text-anchor="start" transform="translate(16,9)" font-family="Liberation Mono" font-size="10px" fill="#000" opacity="1">allure-rs-1-2023</text></g></g><path class="foreground" aria-hidden="true" d="" pointer-events="none" display="none"/></g><g transform="translate(0,91)"><path class="background" aria-hidden="true" d="M0,0h256v11h-256Z" pointer-events="none" opacity="1"/><g><g class="mark-symbol role-legend-symbol" pointer-events="none"><path transform="translate(6,6)" d="M-5,0L5,0" stroke="#ff9da6" stroke-width="1.5" opacity="1"/></g><g class="mark-text role-legend-label" pointer-events="none"><text text-anchor="start" transform="translate(16,9)" font-family="Liberation Mono" font-size="10px" fill="#000" opacity="1">roam-2</text></g></g><path class="foreground" aria-hidden="true" d="" pointer-events="none" display="none"/></g><g transform="translate(0,104)"><path class="background" aria-hidden="true" d="M0,0h256v11h-256Z" pointer-events="none" opacity="1"/><g><g class="mark-symbol role-legend-symbol" pointer-events="none"><path transform="translate(6,6)" d="M-5,0L5,0" stroke="#9d755d" stroke-width="1.5" opacity="1"/></g><g class="mark-text role-legend-label" pointer-events="none"><text text-anchor="start" transform="translate(16,9)" font-family="Liberation Mono" font-size="10px" fill="#000" opacity="1">fastroad-sl-3-2022</text></g></g><path class="foreground" aria-hidden="true" d="" pointer-events="none" display="none"/></g><g transform="translate(0,117)"><path class="background" aria-hidden="true" d="M0,0h256v11h-256Z" pointer-events="none" opacity="1"/><g><g class="mark-symbol role-legend-symbol" pointer-events="none"><path transform="translate(6,6)" d="M-5,0L5,0" stroke="#bab0ac" stroke-width="1.5" opacity="1"/></g><g class="mark-text role-legend-label" pointer-events="none"><text text-anchor="start" transform="translate(16,9)" font-family="Liberation Mono" font-size="10px" fill="#000" opacity="1">allure-rs-2-2023</text></g></g><path class="foreground" aria-hidden="true" d="" pointer-events="none" display="none"/></g><g transform="translate(0,130)"><path class="background" aria-hidden="true" d="M0,0h256v11h-256Z" pointer-events="none" opacity="1"/><g><g class="mark-symbol role-legend-symbol" pointer-events="none"><path transform="translate(6,6)" d="M-5,0L5,0" stroke="#4c78a8" stroke-width="1.5" opacity="1"/></g><g class="mark-text role-legend-label" pointer-events="none"><text text-anchor="start" transform="translate(16,9)" font-family="Liberation Mono" font-size="10px" fill="#000" opacity="1">escape-city-disc-1-2024</text></g></g><path class="foreground" aria-hidden="true" d="" pointer-events="none" display="none"/></g><g transform="translate(0,143)"><path class="background" aria-hidden="true" d="M0,0h256v11h-256Z" pointer-events="none" opacity="1"/><g><g class="mark-symbol role-legend-symbol" pointer-events="none"><path transform="translate(6,6)" d="M-5,0L5,0" stroke="#f58518" stroke-width="1.5" opacity="1"/></g><g class="mark-text role-legend-label" pointer-events="none"><text text-anchor="start" transform="translate(16,9)" font-family="Liberation Mono" font-size="10px" fill="#000" opacity="1">sdrbike-escape-1-city-disc</text></g></g><path class="foreground" aria-hidden="true" d="" pointer-events="none" display="none"/></g><g transform="translate(0,156)"><path class="background" aria-hidden="true" d="M0,0h256v11h-256Z" pointer-events="none" opacity="1"/><g><g class="mark-symbol role-legend-symbol" pointer-events="none"><path transform="translate(6,6)" d="M-5,0L5,0" stroke="#e45756" stroke-width="1.5" opacity="1"/></g><g class="mark-text role-legend-label" pointer-events="none"><text text-anchor="start" transform="translate(16,9)" font-family="Liberation Mono" font-size="10px" fill="#000" opacity="1">roam-disc-2-2024</text></g></g><path class="foreground" aria-hidden="true" d="" pointer-events="none" display="none"/></g><g transform="translate(0,169)"><path class="background" aria-hidden="true" d="M0,0h256v11h-256Z" pointer-events="none" opacity="1"/><g><g class="mark-symbol role-legend-symbol" pointer-events="none"><path transform="translate(6,6)" d="M-5,0L5,0" stroke="#72b7b2" stroke-width="1.5" opacity="1"/></g><g class="mark-text role-legend-label" pointer-events="none"><text text-anchor="start" transform="translate(16,9)" font-family="Liberation Mono" font-size="10px" fill="#000" opacity="1">rove-2</text></g></g><path class="foreground" aria-hidden="true" d="" pointer-events="none" display="none"/></g><g transform="translate(0,182)"><path class="background" aria-hidden="true" d="M0,0h256v11h-256Z" pointer-events="none" opacity="1"/><g><g class="mark-symbol role-legend-symbol" pointer-events="none"><path transform="translate(6,6)" d="M-5,0L5,0" stroke="#54a24b" stroke-width="1.5" opacity="1"/></g><g class="mark-text role-legend-label" pointer-events="none"><text text-anchor="start" transform="translate(16,9)" font-family="Liberation Mono" font-size="10px" fill="#000" opacity="1">allure-rs-2-2022</text></g></g><path class="foreground" aria-hidden="true" d="" pointer-events="none" display="none"/></g><g transform="translate(0,195)"><path class="background" aria-hidden="true" d="M0,0h256v11h-256Z" pointer-events="none" opacity="1"/><g><g class="mark-symbol role-legend-symbol" pointer-events="none"><path transform="translate(6,6)" d="M-5,0L5,0" stroke="#eeca3b" stroke-width="1.5" opacity="1"/></g><g class="mark-text role-legend-label" pointer-events="none"><text text-anchor="start" transform="translate(16,9)" font-family="Liberation Mono" font-size="10px" fill="#000" opacity="1">allure-rs-2-2024</text></g></g><path class="foreground" aria-hidden="true" d="" pointer-events="none" display="none"/></g></g></g><path class="foreground" aria-hidden="true" d="" pointer-events="none" display="none"/></g></g><g class="mark-text role-legend-title" pointer-events="none"><text text-anchor="start" transform="translate(0,9)" font-family="Liberation Mono" font-size="11px" font-weight="bold" fill="#000" opacity="1">identifier</text></g></g><path class="foreground" aria-hidden="true" d="" pointer-events="none" display="none"/></g></g></g><path class="foreground" aria-hidden="true" d="" display="none"/></g></g></g></svg>