<svg xmlns="http://www.w3.org/2000/svg" xmlns:xlink="http://www.w3.org/1999/xlink" version="1.1" class="marks" width="548" height="244" viewBox="0 0 548 244"><rect width="548" height="244" fill="white"/><g fill="none" stroke-miterlimit="10" transform="translate(67,7)"><g class="mark-group role-frame root" role="graphics-object" aria-roledescription="group mark container"><g transform="translate(0,0)"><path class="background" aria-hidden="true" d="M0.5,0.5h200v200h-200Z" stroke="#ddd"/><g><g class="mark-group role-axis" aria-hidden="true"><g transform="translate(0.5,200.5)"><path class="background" aria-hidden="true" d="M0,0h0v0h0Z" pointer-events="none"/><g><g class="mark-rule role-axis-grid" pointer-events="none"><line transform="translate(7,-200)" x2="0" y2="200" stroke="#ddd" stroke-width="1" opacity="1"/><line transform="translate(30,-200)" x2="0" y2="200" stroke="#ddd" stroke-width="1" opacity="1"/><line transform="translate(54,-200)" x2="0" y2="200" stroke="#ddd" stroke-width="1" opacity="1"/><line transform="translate(77,-200)" x2="0" y2="200" stroke="#ddd" stroke-width="1" opacity="1"/><line transform="translate(100,-200)" x2="0" y2="200" stroke="#ddd" stroke-width="1" opacity="1"/><line transform="translate(123,-200)" x2="0" y2="200" stroke="#ddd" stroke-width="1" opacity="1"/><line transform="translate(146,-200)" x2="0" y2="200" stroke="#ddd" stroke-width="1" opacity="1"/><line transform="translate(169,-200)" x2="0" y2="200" stroke="#ddd" stroke-width="1" opacity="1"/><line transform="translate(192,-200)" x2="0" y2="200" stroke="#ddd" stroke-width="1" opacity="1"/></g></g><path class="foreground" aria-hidden="true" d="" pointer-events="none" display="none"/></g></g><g class="mark-group role-axis" aria-hidden="true"><g transform="translate(0.5,0.5)"><path class="background" aria-hidden="true" d="M0,0h0v0h0Z" pointer-events="none"/><g><g class="mark-rule role-axis-grid" pointer-events="none"><line transform="translate(0,200)" x2="200" y2="0" stroke="#ddd" stroke-width="1" opacity="1"/><line transform="translate(0,144)" x2="200" y2="0" stroke="#ddd" stroke-width="1" opacity="1"/><line transform="translate(0,89)" x2="200" y2="0" stroke="#ddd" stroke-width="1" opacity="1"/><line transform="translate(0,33)" x2="200" y2="0" stroke="#ddd" stroke-width="1" opacity="1"/></g></g><path class="foreground" aria-hidden="true" d="" pointer-events="none" display="none"/></g></g><g class="mark-group role-axis" role="graphics-symbol" aria-roledescription="axis" aria-label="X-axis titled 'Time' for a time scale with values from Thursday, 14 August 2025, 8:34:48 AM to Sunday, 31 August 2025, 4:47:54 PM"><g transform="translate(0.5,200.5)"><path class="background" aria-hidden="true" d="M0,0h0v0h0Z" pointer-events="none"/><g><g class="mark-rule role-axis-tick" pointer-events="none"><line transform="translate(7,0)" x2="0" y2="5" stroke="#888" stroke-width="1" opacity="1"/><line transform="translate(30,0)" x2="0" y2="5" stroke="#888" stroke-width="1" opacity="1"/><line transform="translate(54,0)" x2="0" y2="5" stroke="#888" stroke-width="1" opacity="1"/><line transform="translate(77,0)" x2="0" y2="5" stroke="#888" stroke-width="1" opacity="1"/><line transform="translate(100,0)" x2="0" y2="5" stroke="#888" stroke-width="1" opacity="1"/><line transform="translate(123,0)" x2="0" y2="5" stroke="#888" stroke-width="1" opacity="1"/><line transform="translate(146,0)" x2="0" y2="5" stroke="#888" stroke-width="1" opacity="1"/><line transform="translate(169,0)" x2="0" y2="5" stroke="#888" stroke-width="1" opacity="1"/><line transform="translate(192,0)" x2="0" y2="5" stroke="#888" stroke-width="1" opacity="1"/></g><g class="mark-text role-axis-label" pointer-events="none"><text text-anchor="middle" transform="translate(7.409471396013151,15)" font-family="Liberation Mono" font-size="10px" fill="#000" opacity="1">Fri 15</text><text text-anchor="middle" transform="translate(30.47428749284313,15)" font-family="Liberation Mono" font-size="10px" fill="#000" opacity="0">Aug 17</text><text text-anchor="middle" transform="translate(53.5391035896731,15)" font-family="Liberation Mono" font-size="10px" fill="#000" opacity="0">Tue 19</text><text text-anchor="middle" transform="translate(76.60391968650308,15)" font-family="Liberation Mono" font-size="10px" fill="#000" opacity="0">Thu 21</text><text text-anchor="middle" transform="translate(99.66873578333305,15)" font-family="Liberation Mono" font-size="10px" fill="#000" opacity="1">Sat 23</text><text text-anchor="middle" transform="translate(122.73355188016302,15)" font-family="Liberation Mono" font-size="10px" fill="#000" opacity="0">Mon 25</text><text text-anchor="middle" transform="translate(145.798367976993,15)" font-family="Liberation Mono" font-size="10px" fill="#000" opacity="0">Wed 27</text><text text-anchor="middle" transform="translate(168.86318407382296,15)" font-family="Liberation Mono" font-size="10px" fill="#000" opacity="0">Fri 29</text><text text-anchor="middle" transform="translate(191.92800017065295,15)" font-family="Liberation Mono" font-size="10px" fill="#000" opacity="1">Aug 31</text></g><g class="mark-rule role-axis-domain" pointer-events="none"><line transform="translate(0,0)" x2="200" y2="0" stroke="#888" stroke-width="1" opacity="1"/></g><g class="mark-text role-axis-title" pointer-events="none"><text text-anchor="middle" transform="translate(100,30)" font-family="Liberation Mono" font-size="11px" font-weight="bold" fill="#000" opacity="1">Time</text></g></g><path class="foreground" aria-hidden="true" d="" pointer-events="none" display="none"/></g></g><g class="mark-group role-axis" role="graphics-symbol" aria-roledescription="axis" aria-label="Y-axis titled 'Price' for a linear scale with values from 0 to 1,800"><g transform="translate(0.5,0.5)"><path class="background" aria-hidden="true" d="M0,0h0v0h0Z" pointer-events="none"/><g><g class="mark-rule role-axis-tick" pointer-events="none"><line transform="translate(0,200)" x2="-5" y2="0" stroke="#888" stroke-width="1" opacity="1"/><line transform="translate(0,144)" x2="-5" y2="0" stroke="#888" stroke-width="1" opacity="1"/><line transform="translate(0,89)" x2="-5" y2="0" stroke="#888" stroke-width="1" opacity="1"/><line transform="translate(0,33)" x2="-5" y2="0" stroke="#888" stroke-width="1" opacity="1"/></g><g class="mark-text role-axis-label" pointer-events="none"><text text-anchor="end" transform="translate(-7,203)" font-family="Liberation Mono" font-size="10px" fill="#000" opacity="1">0</text><text text-anchor="end" transform="translate(-7,147.44444444444443)" font-family="Liberation Mono" font-size="10px" fill="#000" opacity="1">500</text><text text-anchor="end" transform="translate(-7,91.88888888888889)" font-family="Liberation Mono" font-size="10px" fill="#000" opacity="1">1,000</text><text text-anchor="end" transform="translate(-7,36.33333333333333)" font-family="Liberation Mono" font-size="10px" fill="#000" opacity="1">1,500</text></g><g class="mark-rule role-axis-domain" pointer-events="none"><line transform="translate(0,200)" x2="0" y2="-200" stroke="#888" stroke-width="1" opacity="1"/></g><g class="mark-text role-axis-title" pointer-events="none"><text text-anchor="middle" transform="translate(-51,100) rotate(-90) translate(0,-2)" font-family="Liberation Mono" font-size="11px" font-weight="bold" fill="#000" opacity="1">Price</text></g></g><path class="foreground" aria-hidden="true" d="" pointer-events="none" display="none"/></g></g><g class="mark-group role-scope pathgroup" role="graphics-object" aria-roledescription="group mark container"><g transform="translate(0,0)"><path class="background" aria-hidden="true" d="M0,0h200v200h-200Z"/><g><g class="mark-line role-mark marks" role="graphics-object" aria-roledescription="line mark container"><path aria-label="Time: Aug 14, 2025; Price: 899; identifier: escape-city-disc-1-2024" role="graphics-symbol" aria-roledescription="line mark" d="M0,100.111L0.096,100.111L0.171,100.111L2.298,100.111L3.988,100.111L5.883,100.111L9.773,100.111L11.683,100.111L13.792,100.111L15.522,100.111L17.408,100.111L21.268,100.111L23.201,100.111L25.248,100.111L27.032,100.111L28.923,100.111L32.845,100.111L34.729,100.111L36.786,100.111L38.572,100.111L40.47,100.111L44.41,100.111L46.304,100.111L48.428,100.111L49.174,100.111L50.142,100.111L51.991,100.111L55.855,100.111L57.807,100.111L59.855,100.111L61.644,100.111L63.52,100.111L67.391,100.111L69.324,100.111L71.456,100.111L72.318,100.111L73.172,100.111L75.065,100.111L78.917,100.111L80.866,100.111L82.923,100.111L84.712,100.111L86.592,100.111L90.452,100.111L92.395,100.111L94.451,100.111L96.233,100.111L98.118,100.111L101.976,100.111L103.909,100.111L105.947,100.111L107.735,100.111L109.639,100.111L113.522,100.111L115.433,100.111L117.486,100.111L119.282,100.111L121.175,100.111L125.071,100.111L127.017,100.111L129.121,100.111L130.843,100.111L132.72,100.111L136.584,100.111L138.542,100.111L142.364,100.111L144.241,100.111L148.102,100.111L150.051,100.111L150.807,100.111L152.105,100.111L153.391,100.111L153.895,100.111L155.781,100.111L159.633,100.111L161.588,100.111L163.643,100.111L165.425,100.111L167.31,100.111L171.166,100.111L173.113,100.111L175.161,100.111L176.953,100.111L178.835,100.111L182.685,100.111L184.618,100.111L186.658,100.111L188.458,100.111L190.27,100.111L190.361,100.111L194.223,100.111L195.454,100.111L196.145,100.111L198.196,100.111L199.996,100.111" stroke="#72b7b2" stroke-width="2"/></g></g><path class="foreground" aria-hidden="true" d="" display="none"/></g><g transform="translate(0,0)"><path class="background" aria-hidden="true" d="M0,0h200v200h-200Z"/><g><g class="mark-line role-mark marks" role="graphics-object" aria-roledescription="line mark container"><path aria-label="Time: Aug 14, 2025; Price: 999; identifier: roam-2" role="graphics-symbol" aria-roledescription="line mark" d="M0,89L0.096,89L0.172,89L2.298,89L3.988,89L5.884,89L9.773,89L11.683,89L13.792,89L15.522,89L17.408,89L21.269,89L23.201,89L25.248,89L27.032,89L28.941,89L32.845,89L34.729,89L36.786,89L38.573,89L40.47,89L44.41,89L46.304,89L48.428,89L49.174,89L50.142,89L51.992,89L55.855,89L57.807,89L59.855,89L61.644,89L63.52,89L67.391,89L69.325,89L71.457,89L72.319,89L73.173,89L75.066,89L78.917,89L80.866,89L82.924,89L84.713,89L86.592,89L90.452,89L92.395,89L94.451,89L96.233,89L98.118,89L101.976,89L103.909,89L105.948,89L107.735,89L109.639,89L113.523,89L115.434,89L117.486,89L119.282,89L121.175,89L125.071,89L127.017,89L129.122,89L130.843,89L132.721,89L136.585,89L138.543,89L142.365,89L144.241,89L148.103,89L150.052,89L150.808,89L152.106,89L153.392,89L153.895,89L155.782,89L159.633,89L161.589,89L163.643,89L165.426,89L167.31,89L171.166,89L173.113,89L175.162,89L176.954,89L178.836,89L182.686,89L184.618,89L186.659,89L188.458,89L190.271,89L190.361,89L194.223,89L195.455,89L196.146,89L198.197,89L199.997,89" stroke="#ff9da6" stroke-width="2"/></g></g><path class="foreground" aria-hidden="true" d="" display="none"/></g><g transform="translate(0,0)"><path class="background" aria-hidden="true" d="M0,0h200v200h-200Z"/><g><g class="mark-line role-mark marks" role="graphics-object" aria-roledescription="line mark container"><path aria-label="Time: Aug 14, 2025; Price: 999; identifier: fastroad-sl-3-2022" role="graphics-symbol" aria-roledescription="line mark" d="M0.001,89L0.096,89L0.172,89L2.298,89L3.988,89L5.884,89L9.774,89L11.683,89L13.792,89L15.522,89L17.409,89L21.269,89L23.201,89L25.248,89L27.032,89L28.941,89L32.845,89L34.73,89L36.786,89L38.573,89L40.471,89L44.41,89L46.304,89L48.429,89L49.174,89L50.143,89L51.992,89L55.855,89L57.807,89L59.856,89L61.645,89L63.52,89L67.392,89L69.325,89L71.457,89L72.319,89L73.173,89L75.066,89L78.917,89L80.866,89L82.924,89L84.713,89L86.592,89L90.453,89L92.395,89L94.452,89L96.234,89L98.119,89L101.977,89L103.91,89L105.948,89L107.736,89L109.639,89L113.523,89L115.434,89L117.487,89L119.282,89L121.175,89L125.072,89L127.018,89L129.122,89L130.844,89L132.721,89L136.585,89L138.543,89L142.365,89L144.242,89L148.103,89L150.052,89L150.809,89L152.106,89L153.392,89L153.896,89L155.782,89L159.634,89L161.589,89L163.643,89L165.426,89L167.31,89L171.167,89L173.114,89L175.162,89L176.954,89L178.836,89L182.686,89L184.619,89L186.659,89L188.458,89L190.271,89L190.361,89L194.223,89L195.455,89L196.146,89L198.197,89L199.997,89" stroke="#9d755d" stroke-width="2"/></g></g><path class="foreground" aria-hidden="true" d="" display="none"/></g><g transform="translate(0,0)"><path class="background" aria-hidden="true" d="M0,0h200v200h-200Z"/><g><g class="mark-line role-mark marks" role="graphics-object" aria-roledescription="line mark container"><path aria-label="Time: Aug 14, 2025; Price: 1199; identifier: fastroad-ar-2" role="graphics-symbol" aria-roledescription="line mark" d="M0.001,66.778L0.096,66.778L0.172,66.778L2.298,66.778L3.989,66.778L5.884,66.778L9.774,66.778L11.684,66.778L13.793,66.778L15.522,66.778L17.409,66.778L21.269,66.778L23.201,66.778L25.249,66.778L27.033,66.778L28.951,66.778L32.846,66.778L34.73,66.778L36.786,66.778L38.573,66.778L40.471,66.778L44.411,66.778L46.305,66.778L48.429,66.778L49.175,66.778L50.143,66.778L51.992,66.778L55.856,66.778L57.808,66.778L59.856,66.778L61.645,66.778L63.52,66.778L67.392,66.778L69.325,66.778L71.457,66.778L72.32,66.778L73.174,66.778L75.067,66.778L78.917,66.778L80.867,66.778L82.924,66.778L84.713,66.778L86.593,66.778L90.453,66.778L92.396,66.778L94.452,66.778L96.234,66.778L98.119,66.778L101.977,66.778L103.91,66.778L105.948,66.778L107.736,66.778L109.64,66.778L113.523,66.778L115.435,66.778L117.487,66.778L119.283,66.778L121.176,66.778L125.072,66.778L127.018,66.778L129.122,66.778L130.844,66.778L132.721,66.778L136.586,66.778L138.543,66.778L142.365,66.778L144.242,66.778L148.104,66.778L150.052,66.778L150.809,66.778L152.106,66.778L153.392,66.778L153.896,66.778L155.783,66.778L159.634,66.778L161.589,66.778L163.644,66.778L165.426,66.778L167.31,66.778L171.167,66.778L173.114,66.778L175.162,66.778L176.954,66.778L178.836,66.778L182.686,66.778L184.619,66.778L186.659,66.778L188.458,66.778L190.272,66.778L190.362,66.778L194.224,66.778L195.455,66.778L196.146,66.778L198.197,66.778L199.997,66.778" stroke="#54a24b" stroke-width="2"/></g></g><path class="foreground" aria-hidden="true" d="" display="none"/></g><g transform="translate(0,0)"><path class="background" aria-hidden="true" d="M0,0h200v200h-200Z"/><g><g class="mark-line role-mark marks" role="graphics-object" aria-roledescription="line mark container"><path aria-label="Time: Aug 18, 2025; Price: 899; identifier: sdrbike-escape-1-city-disc" role="graphics-symbol" aria-roledescription="line mark" d="M49.175,100.111L50.143,100.111L51.992,100.111L55.856,100.111L57.808,100.111L59.856,100.111L61.645,100.111L63.521,100.111L67.392,100.111L69.325,100.111L71.457,100.111L72.32,100.111L73.174,100.111L75.067,100.111L78.918,100.111L80.867,100.111L82.925,100.111L84.714,100.111L86.593,100.111L90.453,100.111L92.396,100.111L94.452,100.111L96.234,100.111L98.119,100.111L101.977,100.111L103.911,100.111L105.949,100.111L107.736,100.111L109.64,100.111L113.524,100.111L115.435,100.111L117.488,100.111L119.283,100.111L121.176,100.111L125.072,100.111L127.018,100.111L129.122,100.111L130.844,100.111L132.722,100.111L136.587,100.111L138.543,100.111L142.366,100.111L144.242,100.111L148.104,100.111L150.053,100.111L150.81,100.111L152.107,100.111L153.392,100.111L153.896,100.111L155.783,100.111L159.634,100.111L161.59,100.111L163.644,100.111L165.427,100.111L167.311,100.111L171.167,100.111L173.114,100.111L175.163,100.111L176.954,100.111L178.837,100.111L182.687,100.111L184.619,100.111L186.66,100.111L188.459,100.111L190.272,100.111L190.362,100.111L194.224,100.111L195.456,100.111L196.147,100.111L198.198,100.111L199.997,100.111" stroke="#54a24b" stroke-width="2"/></g></g><path class="foreground" aria-hidden="true" d="" display="none"/></g><g transform="translate(0,0)"><path class="background" aria-hidden="true" d="M0,0h200v200h-200Z"/><g><g class="mark-line role-mark marks" role="graphics-object" aria-roledescription="line mark container"><path aria-label="Time: Aug 20, 2025; Price: 899; identifier: roam-disc-2-2024" role="graphics-symbol" aria-roledescription="line mark" d="M72.319,100.111L73.173,100.111L75.066,100.111L78.917,100.111L80.866,100.111L82.923,100.111L84.713,100.111L86.592,100.111L90.452,100.111L92.395,100.111L94.451,100.111L96.233,100.111L98.118,100.111L101.976,100.111L103.909,100.111L105.948,100.111L107.735,100.111L109.639,100.111L113.522,100.111L115.434,100.111L117.486,100.111L119.282,100.111L121.175,100.111L125.071,100.111L127.017,100.111L129.121,100.111L130.843,100.111L132.721,100.111L136.585,100.111L138.542,100.111L142.364,100.111L144.241,100.111L148.103,100.111L150.051,100.111L150.808,100.111L152.106,100.111L153.392,100.111L153.895,100.111L155.782,100.111L159.633,100.111L161.588,100.111L163.643,100.111L165.426,100.111L167.31,100.111L171.166,100.111L173.113,100.111L175.161,100.111L176.953,100.111L178.835,100.111L182.686,100.111L184.618,100.111L186.658,100.111L188.458,100.111L190.271,100.111L190.361,100.111L194.223,100.111L195.455,100.111L196.145,100.111L198.196,100.111L199.996,100.111" stroke="#eeca3b" stroke-width="2"/></g></g><path class="foreground" aria-hidden="true" d="" display="none"/></g><g transform="translate(0,0)"><path class="background" aria-hidden="true" d="M0,0h200v200h-200Z"/><g><g class="mark-line role-mark marks" role="graphics-object" aria-roledescription="line mark container"><path aria-label="Time: Aug 20, 2025; Price: 1199; identifier: thrive-2" role="graphics-symbol" aria-roledescription="line mark" d="M72.32,66.778L73.174,66.778L75.067,66.778L78.918,66.778L80.867,66.778L82.925,66.778L84.714,66.778L86.593,66.778L90.454,66.778L92.396,66.778L94.453,66.778L96.234,66.778L98.119,66.778L101.978,66.778L103.911,66.778L105.949,66.778L107.737,66.778L109.64,66.778L113.524,66.778L115.436,66.778L117.488,66.778L119.283,66.778L121.176,66.778L125.073,66.778L127.019,66.778L129.123,66.778L130.845,66.778L132.722,66.778L136.587,66.778L138.544,66.778L142.366,66.778L144.242,66.778L148.104,66.778L150.053,66.778L150.811,66.778L152.107,66.778L153.393,66.778L153.897,66.778L155.783,66.778L159.635,66.778L161.59,66.778L163.644,66.778L165.427,66.778L167.311,66.778L171.168,66.778L173.115,66.778L175.163,66.778L176.955,66.778L178.837,66.778L182.687,66.778L184.62,66.778L186.66,66.778L188.459,66.778L190.272,66.778L190.362,66.778L194.224,66.778L195.456,66.778L196.147,66.778L198.198,66.778L199.998,66.778" stroke="#eeca3b" stroke-width="2"/></g></g><path class="foreground" aria-hidden="true" d="" display="none"/></g><g transform="translate(0,0)"><path class="background" aria-hidden="true" d="M0,0h200v200h-200Z"/><g><g class="mark-line role-mark marks" role="graphics-object" aria-roledescription="line mark container"><path aria-label="Time: Aug 20, 2025; Price: 999; identifier: rove-2" role="graphics-symbol" aria-roledescription="line mark" d="M72.321,89L73.175,89L75.068,89L78.918,89L80.868,89L82.925,89L84.714,89L86.594,89L90.454,89L92.397,89L94.453,89L96.235,89L98.12,89L101.978,89L103.911,89L105.949,89L107.737,89L109.64,89L113.524,89L115.436,89L117.489,89L119.283,89L121.176,89L125.073,89L127.019,89L129.123,89L130.845,89L132.722,89L136.587,89L138.544,89L142.366,89L144.243,89L148.105,89L150.053,89L150.811,89L152.107,89L153.393,89L153.897,89L155.784,89L159.635,89L161.59,89L163.645,89L165.427,89L167.311,89L171.168,89L173.115,89L175.163,89L176.955,89L178.837,89L190.273,111.222L190.362,111.222L194.224,111.222L195.456,111.222L196.147,111.222L198.198,111.222L199.998,111.222" stroke="#bab0ac" stroke-width="2"/></g></g><path class="foreground" aria-hidden="true" d="" display="none"/></g><g transform="translate(0,0)"><path class="background" aria-hidden="true" d="M0,0h200v200h-200Z"/><g><g class="mark-line role-mark marks" role="graphics-object" aria-roledescription="line mark container"><path aria-label="Time: Aug 27, 2025; Price: 1199; identifier: allure-rs-1-2023" role="graphics-symbol" aria-roledescription="line mark" d="M150.812,66.778L152.107,66.778L153.393,66.778L153.897,66.778L155.784,66.778L159.635,66.778L161.591,66.778L163.645,66.778L165.427,66.778L167.311,66.778L171.168,66.778L173.115,66.778L175.164,66.778L176.955,66.778L178.838,66.778L182.687,66.778L184.62,66.778L186.661,66.778L188.459,66.778L190.273,66.778L190.363,66.778L194.225,66.778L195.456,66.778L196.148,66.778L198.198,66.778L199.998,66.778" stroke="#b279a2" stroke-width="2"/></g></g><path class="foreground" aria-hidden="true" d="" display="none"/></g><g transform="translate(0,0)"><path class="background" aria-hidden="true" d="M0,0h200v200h-200Z"/><g><g class="mark-line role-mark marks" role="graphics-object" aria-roledescription="line mark container"><path aria-label="Time: Aug 27, 2025; Price: 999; identifier: allure-rs-2-2022" role="graphics-symbol" aria-roledescription="line mark" d="M150.813,89L152.108,89L153.393,89L153.897,89L155.784,89L159.635,89L161.591,89L163.645,89L165.428,89L167.312,89L171.168,89L173.115,89L175.164,89L176.955,89L178.838,89L190.273,111.222L190.363,111.222L194.225,111.222L195.457,111.222L196.148,111.222L198.199,111.222L199.998,111.222" stroke="#4c78a8" stroke-width="2"/></g></g><path class="foreground" aria-hidden="true" d="" display="none"/></g><g transform="translate(0,0)"><path class="background" aria-hidden="true" d="M0,0h200v200h-200Z"/><g><g class="mark-line role-mark marks" role="graphics-object" aria-roledescription="line mark container"><path aria-label="Time: Aug 27, 2025; Price: 949; identifier: allure-rs-2-2023" role="graphics-symbol" aria-roledescription="line mark" d="M150.813,94.556L152.108,94.556L153.394,94.556L153.897,94.556L155.785,94.556L159.636,94.556L161.591,94.556L163.645,94.556L165.428,94.556L167.312,94.556L171.169,94.556L173.116,94.556L175.164,94.556L176.955,94.556L178.838,94.556L182.688,94.556L184.621,94.556L186.661,94.556L188.46,94.556L190.274,94.556L190.363,94.556L194.225,94.556L195.457,94.556L196.148,94.556L198.199,94.556L199.999,94.556" stroke="#e45756" stroke-width="2"/></g></g><path class="foreground" aria-hidden="true" d="" display="none"/></g><g transform="translate(0,0)"><path class="background" aria-hidden="true" d="M0,0h200v200h-200Z"/><g><g class="mark-line role-mark marks" role="graphics-object" aria-roledescription="line mark container"><path aria-label="Time: Aug 27, 2025; Price: 999; identifier: allure-rs-2-2024" role="graphics-symbol" aria-roledescription="line mark" d="M150.814,89L152.108,89L153.394,89L153.898,89L155.785,89L159.636,89L161.592,89L163.646,89L165.428,89L167.312,89L171.169,89L173.116,89L175.164,89L176.956,89L178.838,89L190.274,111.222L190.363,111.222L194.225,111.222L195.457,111.222L196.148,111.222L198.199,111.222L199.999,111.222" stroke="#f58518" stroke-width="2"/></g></g><path class="foreground" aria-hidden="true" d="" display="none"/></g><g transform="translate(0,0)"><path class="background" aria-hidden="true" d="M0,0h200v200h-200Z"/><g><g class="mark-line role-mark marks" role="graphics-object" aria-roledescription="line mark container"><path aria-label="Time: Aug 27, 2025; Price: 1799; identifier: devote-1-2024" role="graphics-symbol" aria-roledescription="line mark" d="M153.394,0.111L153.898,0.111L155.785,0.111L159.636,0.111L161.592,0.111L163.646,0.111L165.428,0.111L167.312,0.111L171.169,0.111L173.116,0.111L175.165,0.111L176.956,0.111L178.839,0.111L190.274,44.556L190.363,44.556L194.226,44.556L195.457,44.556L196.149,44.556L198.2,44.556L199.999,44.556" stroke="#4c78a8" stroke-width="2"/></g></g><path class="foreground" aria-hidden="true" d="" display="none"/></g><g transform="translate(0,0)"><path class="background" aria-hidden="true" d="M0,0h200v200h-200Z"/><g><g class="mark-line role-mark marks" role="graphics-object" aria-roledescription="line mark container"><path aria-label="Time: Aug 27, 2025; Price: 1699; identifier: devote-1-2022" role="graphics-symbol" aria-roledescription="line mark" d="M153.394,11.222L153.898,11.222L155.785,11.222L159.637,11.222L161.592,11.222L163.646,11.222L165.429,11.222L167.313,11.222L171.169,11.222L173.116,11.222L175.165,11.222L176.956,11.222L178.839,11.222L182.689,11.222L184.621,11.222L186.662,11.222L188.461,11.222L190.275,11.222L190.364,11.222L194.226,11.222L195.457,11.222L196.149,11.222L198.2,11.222L199.999,11.222" stroke="#f58518" stroke-width="2"/></g></g><path class="foreground" aria-hidden="true" d="" display="none"/></g><g transform="translate(0,0)"><path class="background" aria-hidden="true" d="M0,0h200v200h-200Z"/><g><g class="mark-line role-mark marks" role="graphics-object" aria-roledescription="line mark container"><path aria-label="Time: Aug 31, 2025; Price: 1599; identifier: silex-400-oak-bork-2026" role="graphics-symbol" aria-roledescription="line mark" d="M195.458,22.333L196.15,22.333L198.2,22.333L200,22.333" stroke="#e45756" stroke-width="2"/></g></g><path class="foreground" aria-hidden="true" d="" display="none"/></g><g transform="translate(0,0)"><path class="background" aria-hidden="true" d="M0,0h200v200h-200Z"/><g><g class="mark-line role-mark marks" role="graphics-object" aria-roledescription="line mark container"><path aria-label="Time: Aug 31, 2025; Price: 1599; identifier: silex-400-warm-slate-grey-2026" role="graphics-symbol" aria-roledescription="line mark" d="M195.458,22.333L196.15,22.333L198.201,22.333L200,22.333" stroke="#72b7b2" stroke-width="2"/></g></g><path class="foreground" aria-hidden="true" d="" display="none"/></g></g><g class="mark-group role-legend" role="graphics-symbol" aria-roledescription="legend" aria-label="Symbol legend titled 'identifier' for stroke color with 16 values: devote-1-2024, devote-1-2022, silex-400-oak-bork-2026, silex-400-warm-slate-grey-2026, fastroad-ar-2, ending with roam-disc-2-2024"><g transform="translate(220,0)"><path class="background" aria-hidden="true" d="M0,0h256v222h-256Z" pointer-events="none"/><g><g class="mark-group role-legend-entry"><g transform="translate(0,16)"><path class="background" aria-hidden="true" d="M0,0h0v0h0Z" pointer-events="none"/><g><g class="mark-group role-scope" role="graphics-object" aria-roledescription="group mark container"><g transform="translate(0,0)"><path class="background" aria-hidden="true" d="M0,0h256v11h-256Z" pointer-events="none" opacity="1"/><g><g class="mark-symbol role-legend-symbol" pointer-events="none"><path transform="translate(6,6)" d="M-5,0L5,0" stroke="#4c78a8" stroke-width="1.5" opacity="1"/></g><g class="mark-text role-legend-label" pointer-events="none"><text text-anchor="start" transform="translate(16,9)" font-family="Liberation Mono" font-size="10px" fill="#000" opacity="1">devote-1-2024</text></g></g><path class="foreground" aria-hidden="true" d="" pointer-events="none" display="none"/></g><g transform="translate(0,13)"><path class="background" aria-hidden="true" d="M0,0h256v11h-256Z" pointer-events="none" opacity="1"/><g><g class="mark-symbol role-legend-symbol" pointer-events="none"><path transform="translate(6,6)" d="M-5,0L5,0" stroke="#f58518" stroke-width="1.5" opacity="1"/></g><g class="mark-text role-legend-label" pointer-events="none"><text text-anchor="start" transform="translate(16,9)" font-family="Liberation Mono" font-size="10px" fill="#000" opacity="1">devote-1-2022</text></g></g><path class="foreground" aria-hidden="true" d="" pointer-events="none" display="none"/></g><g transform="translate(0,26)"><path class="background" aria-hidden="true" d="M0,0h256v11h-256Z" pointer-events="none" opacity="1"/><g><g class="mark-symbol role-legend-symbol" pointer-events="none"><path transform="translate(6,6)" d="M-5,0L5,0" stroke="#e45756" stroke-width="1.5" opacity="1"/></g><g class="mark-text role-legend-label" pointer-events="none"><text text-anchor="start" transform="translate(16,9)" font-family="Liberation Mono" font-size="10px" fill="#000" opacity="1">silex-400-oak-bork-2026</text></g></g><path class="foreground" aria-hidden="true" d="" pointer-events="none" display="none"/></g><g transform="translate(0,39)"><path class="background" aria-hidden="true" d="M0,0h256v11h-256Z" pointer-events="none" opacity="1"/><g><g class="mark-symbol role-legend-symbol" pointer-events="none"><path transform="translate(6,6)" d="M-5,0L5,0" stroke="#72b7b2" stroke-width="1.5" opacity="1"/></g><g class="mark-text role-legend-label" pointer-events="none"><text text-anchor="start" transform="translate(16,9)" font-family="Liberation Mono" font-size="10px" fill="#000" opacity="1">silex-400-warm-slate-grey-2026</text></g></g><path class="foreground" aria-hidden="true" d="" pointer-events="none" display="none"/></g><g transform="translate(0,52)"><path class="background" aria-hidden="true" d="M0,0h256v11h-256Z" pointer-events="none" opacity="1"/><g><g class="mark-symbol role-legend-symbol" pointer-events="none"><path transform="translate(6,6)" d="M-5,0L5,0" stroke="#54a24b" stroke-width="1.5" opacity="1"/></g><g class="mark-text role-legend-label" pointer-events="none"><text text-anchor="start" transform="translate(16,9)" font-family="Liberation Mono" font-size="10px" fill="#000" opacity="1">fastroad-ar-2</text></g></g><path class="foreground" aria-hidden="true" d="" pointer-events="none" display="none"/></g><g transform="translate(0,65)"><path class="background" aria-hidden="true" d="M0,0h256v11h-256Z" pointer-events="none" opacity="1"/><g><g class="mark-symbol role-legend-symbol" pointer-events="none"><path transform="translate(6,6)" d="M-5,0L5,0" stroke="#eeca3b" stroke-width="1.5" opacity="1"/></g><g class="mark-text role-legend-label" pointer-events="none"><text text-anchor="start" transform="translate(16,9)" font-family="Liberation Mono" font-size="10px" fill="#000" opacity="1">thrive-2</text></g></g><path class="foreground" aria-hidden="true" d="" pointer-events="none" display="none"/></g><g transform="translate(0,78)"><path class="background" aria-hidden="true" d="M0,0h256v11h-256Z" pointer-events="none" opacity="1"/><g><g class="mark-symbol role-legend-symbol" pointer-events="none"><path transform="translate(6,6)" d="M-5,0L5,0" stroke="#b279a2" stroke-width="1.5" opacity="1"/></g><g class="mark-text role-legend-label" pointer-events="none"><text text-anchor="start" transform="translate(16,9)" font-family="Liberation Mono" font-size="10px" fill="#000" opacity="1">allure-rs-1-2023</text></g></g><path class="foreground" aria-hidden="true" d="" pointer-events="none" display="none"/></g><g transform="translate(0,91)"><path class="background" aria-hidden="true" d="M0,0h256v11h-256Z" pointer-events="none" opacity="1"/><g><g class="mark-symbol role-legend-symbol" pointer-events="none"><path transform="translate(6,6)" d="M-5,0L5,0" stroke="#ff9da6" stroke-width="1.5" opacity="1"/></g><g class="mark-text role-legend-label" pointer-events="none"><text text-anchor="start" transform="translate(16,9)" font-family="Liberation Mono" font-size="10px" fill="#000" opacity="1">roam-2</text></g></g><path class="foreground" aria-hidden="true" d="" pointer-events="none" display="none"/></g><g transform="translate(0,104)"><path class="background" aria-hidden="true" d="M0,0h256v11h-256Z" pointer-events="none" opacity="1"/><g><g class="mark-symbol role-legend-symbol" pointer-events="none"><path transform="translate(6,6)" d="M-5,0L5,0" stroke="#9d755d" stroke-width="1.5" opacity="1"/></g><g class="mark-text role-legend-label" pointer-events="none"><text text-anchor="start" transform="translate(16,9)" font-family="Liberation Mono" font-size="10px" fill="#000" opacity="1">fastroad-sl-3-2022</text></g></g><path class="foreground" aria-hidden="true" d="" pointer-events="none" display="none"/></g><g transform="translate(0,117)"><path class="background" aria-hidden="true" d="M0,0h256v11h-256Z" pointer-events="none" opacity="1"/><g><g class="mark-symbol role-legend-symbol" pointer-events="none"><path transform="translate(6,6)" d="M-5,0L5,0" stroke="#bab0ac" stroke-width="1.5" opacity="1"/></g><g class="mark-text role-legend-label" pointer-events="none"><text text-anchor="start" transform="translate(16,9)" font-family="Liberation Mono" font-size="10px" fill="#000" opacity="1">rove-2</text></g></g><path class="foreground" aria-hidden="true" d="" pointer-events="none" display="none"/></g><g transform="translate(0,130)"><path class="background" aria-hidden="true" d="M0,0h256v11h-256Z" pointer-events="none" opacity="1"/><g><g class="mark-symbol role-legend-symbol" pointer-events="none"><path transform="translate(6,6)" d="M-5,0L5,0" stroke="#4c78a8" stroke-width="1.5" opacity="1"/></g><g class="mark-text role-legend-label" pointer-events="none"><text text-anchor="start" transform="translate(16,9)" font-family="Liberation Mono" font-size="10px" fill="#000" opacity="1">allure-rs-2-2022</text></g></g><path class="foreground" aria-hidden="true" d="" pointer-events="none" display="none"/></g><g transform="translate(0,143)"><path class="background" aria-hidden="true" d="M0,0h256v11h-256Z" pointer-events="none" opacity="1"/><g><g class="mark-symbol role-legend-symbol" pointer-events="none"><path transform="translate(6,6)" d="M-5,0L5,0" stroke="#f58518" stroke-width="1.5" opacity="1"/></g><g class="mark-text role-legend-label" pointer-events="none"><text text-anchor="start" transform="translate(16,9)" font-family="Liberation Mono" font-size="10px" fill="#000" opacity="1">allure-rs-2-2024</text></g></g><path class="foreground" aria-hidden="true" d="" pointer-events="none" display="none"/></g><g transform="translate(0,156)"><path class="background" aria-hidden="true" d="M0,0h256v11h-256Z" pointer-events="none" opacity="1"/><g><g class="mark-symbol role-legend-symbol" pointer-events="none"><path transform="translate(6,6)" d="M-5,0L5,0" stroke="#e45756" stroke-width="1.5" opacity="1"/></g><g class="mark-text role-legend-label" pointer-events="none"><text text-anchor="start" transform="translate(16,9)" font-family="Liberation Mono" font-size="10px" fill="#000" opacity="1">allure-rs-2-2023</text></g></g><path class="foreground" aria-hidden="true" d="" pointer-events="none" display="none"/></g><g transform="translate(0,169)"><path class="background" aria-hidden="true" d="M0,0h256v11h-256Z" pointer-events="none" opacity="1"/><g><g class="mark-symbol role-legend-symbol" pointer-events="none"><path transform="translate(6,6)" d="M-5,0L5,0" stroke="#72b7b2" stroke-width="1.5" opacity="1"/></g><g class="mark-text role-legend-label" pointer-events="none"><text text-anchor="start" transform="translate(16,9)" font-family="Liberation Mono" font-size="10px" fill="#000" opacity="1">escape-city-disc-1-2024</text></g></g><path class="foreground" aria-hidden="true" d="" pointer-events="none" display="none"/></g><g transform="translate(0,182)"><path class="background" aria-hidden="true" d="M0,0h256v11h-256Z" pointer-events="none" opacity="1"/><g><g class="mark-symbol role-legend-symbol" pointer-events="none"><path transform="translate(6,6)" d="M-5,0L5,0" stroke="#54a24b" stroke-width="1.5" opacity="1"/></g><g class="mark-text role-legend-label" pointer-events="none"><text text-anchor="start" transform="translate(16,9)" font-family="Liberation Mono" font-size="10px" fill="#000" opacity="1">sdrbike-escape-1-city-disc</text></g></g><path class="foreground" aria-hidden="true" d="" pointer-events="none" display="none"/></g><g transform="translate(0,195)"><path class="background" aria-hidden="true" d="M0,0h256v11h-256Z" pointer-events="none" opacity="1"/><g><g class="mark-symbol role-legend-symbol" pointer-events="none"><path transform="translate(6,6)" d="M-5,0L5,0" stroke="#eeca3b" stroke-width="1.5" opacity="1"/></g><g class="mark-text role-legend-label" pointer-events="none"><text text-anchor="start" transform="translate(16,9)" font-family="Liberation Mono" font-size="10px" fill="#000" opacity="1">roam-disc-2-2024</text></g></g><path class="foreground" aria-hidden="true" d="" pointer-events="none" display="none"/></g></g></g><path class="foreground" aria-hidden="true" d="" pointer-events="none" display="none"/></g></g><g class="mark-text role-legend-title" pointer-events="none"><text text-anchor="start" transform="translate(0,9)" font-family="Liberation Mono" font-size="11px" font-weight="bold" fill="#000" opacity="1">identifier</text></g></g><path class="foreground" aria-hidden="true" d="" pointer-events="none" display="none"/></g></g></g><path class="foreground" aria-hidden="true" d="" display="none"/></g></g></g></svg>