<svg xmlns="http://www.w3.org/2000/svg" xmlns:xlink="http://www.w3.org/1999/xlink" version="1.1" class="marks" width="548" height="244" viewBox="0 0 548 244"><rect width="548" height="244" fill="white"/><g fill="none" stroke-miterlimit="10" transform="translate(67,7)"><g class="mark-group role-frame root" role="graphics-object" aria-roledescription="group mark container"><g transform="translate(0,0)"><path class="background" aria-hidden="true" d="M0.5,0.5h200v200h-200Z" stroke="#ddd"/><g><g class="mark-group role-axis" aria-hidden="true"><g transform="translate(0.5,200.5)"><path class="background" aria-hidden="true" d="M0,0h0v0h0Z" pointer-events="none"/><g><g class="mark-rule role-axis-grid" pointer-events="none"><line transform="translate(24,-200)" x2="0" y2="200" stroke="#ddd" stroke-width="1" opacity="1"/><line transform="translate(88,-200)" x2="0" y2="200" stroke="#ddd" stroke-width="1" opacity="1"/><line transform="translate(152,-200)" x2="0" y2="200" stroke="#ddd" stroke-width="1" opacity="1"/></g></g><path class="foreground" aria-hidden="true" d="" pointer-events="none" display="none"/></g></g><g class="mark-group role-axis" aria-hidden="true"><g transform="translate(0.5,0.5)"><path class="background" aria-hidden="true" d="M0,0h0v0h0Z" pointer-events="none"/><g><g class="mark-rule role-axis-grid" pointer-events="none"><line transform="translate(0,200)" x2="200" y2="0" stroke="#ddd" stroke-width="1" opacity="1"/><line transform="translate(0,144)" x2="200" y2="0" stroke="#ddd" stroke-width="1" opacity="1"/><line transform="translate(0,89)" x2="200" y2="0" stroke="#ddd" stroke-width="1" opacity="1"/><line transform="translate(0,33)" x2="200" y2="0" stroke="#ddd" stroke-width="1" opacity="1"/></g></g><path class="foreground" aria-hidden="true" d="" pointer-events="none" display="none"/></g></g><g class="mark-group role-axis" role="graphics-symbol" aria-roledescription="axis" aria-label="X-axis titled 'Time' for a time scale with values from Thursday, 14 August 2025, 8:34:48 AM to Friday, 05 September 2025, 4:47:40 AM"><g transform="translate(0.5,200.5)"><path class="background" aria-hidden="true" d="M0,0h0v0h0Z" pointer-events="none"/><g><g class="mark-rule role-axis-tick" pointer-events="none"><line transform="translate(24,0)" x2="0" y2="5" stroke="#888" stroke-width="1" opacity="1"/><line transform="translate(88,0)" x2="0" y2="5" stroke="#888" stroke-width="1" opacity="1"/><line transform="translate(152,0)" x2="0" y2="5" stroke="#888" stroke-width="1" opacity="1"/></g><g class="mark-text role-axis-label" pointer-events="none"><text text-anchor="middle" transform="translate(24.196131588278615,15)" font-family="Liberation Mono" font-size="10px" fill="#000" opacity="1">Aug 17</text><text text-anchor="middle" transform="translate(88.2920563623339,15)" font-family="Liberation Mono" font-size="10px" fill="#000" opacity="1">Aug 24</text><text text-anchor="middle" transform="translate(152.3879811363892,15)" font-family="Liberation Mono" font-size="10px" fill="#000" opacity="1">Aug 31</text></g><g class="mark-rule role-axis-domain" pointer-events="none"><line transform="translate(0,0)" x2="200" y2="0" stroke="#888" stroke-width="1" opacity="1"/></g><g class="mark-text role-axis-title" pointer-events="none"><text text-anchor="middle" transform="translate(100,30)" font-family="Liberation Mono" font-size="11px" font-weight="bold" fill="#000" opacity="1">Time</text></g></g><path class="foreground" aria-hidden="true" d="" pointer-events="none" display="none"/></g></g><g class="mark-group role-axis" role="graphics-symbol" aria-roledescription="axis" aria-label="Y-axis titled 'Price' for a linear scale with values from 0 to 1,800"><g transform="translate(0.5,0.5)"><path class="background" aria-hidden="true" d="M0,0h0v0h0Z" pointer-events="none"/><g><g class="mark-rule role-axis-tick" pointer-events="none"><line transform="translate(0,200)" x2="-5" y2="0" stroke="#888" stroke-width="1" opacity="1"/><line transform="translate(0,144)" x2="-5" y2="0" stroke="#888" stroke-width="1" opacity="1"/><line transform="translate(0,89)" x2="-5" y2="0" stroke="#888" stroke-width="1" opacity="1"/><line transform="translate(0,33)" x2="-5" y2="0" stroke="#888" stroke-width="1" opacity="1"/></g><g class="mark-text role-axis-label" pointer-events="none"><text text-anchor="end" transform="translate(-7,203)" font-family="Liberation Mono" font-size="10px" fill="#000" opacity="1">0</text><text text-anchor="end" transform="translate(-7,147.44444444444443)" font-family="Liberation Mono" font-size="10px" fill="#000" opacity="1">500</text><text text-anchor="end" transform="translate(-7,91.88888888888889)" font-family="Liberation Mono" font-size="10px" fill="#000" opacity="1">1,000</text><text text-anchor="end" transform="translate(-7,36.33333333333333)" font-family="Liberation Mono" font-size="10px" fill="#000" opacity="1">1,500</text></g><g class="mark-rule role-axis-domain" pointer-events="none"><line transform="translate(0,200)" x2="0" y2="-200" stroke="#888" stroke-width="1" opacity="1"/></g><g class="mark-text role-axis-title" pointer-events="none"><text text-anchor="middle" transform="translate(-51,100) rotate(-90) translate(0,-2)" font-family="Liberation Mono" font-size="11px" font-weight="bold" fill="#000" opacity="1">Price</text></g></g><path class="foreground" aria-hidden="true" d="" pointer-events="none" display="none"/></g></g><g class="mark-group role-scope pathgroup" role="graphics-object" aria-roledescription="group mark container"><g transform="translate(0,0)"><path class="background" aria-hidden="true" d="M0,0h200v200h-200Z"/><g><g class="mark-line role-mark marks" role="graphics-object" aria-roledescription="line mark container"><path aria-label="Time: Aug 14, 2025; Price: 899; identifier: escape-city-disc-1-2024" role="graphics-symbol" aria-roledescription="line mark" d="M0,100.111L0.076,100.111L0.136,100.111L1.824,100.111L3.166,100.111L4.671,100.111L7.76,100.111L9.276,100.111L10.951,100.111L12.324,100.111L13.822,100.111L16.887,100.111L18.421,100.111L20.046,100.111L21.463,100.111L22.964,100.111L26.078,100.111L27.574,100.111L29.207,100.111L30.626,100.111L32.133,100.111L35.261,100.111L36.764,100.111L38.451,100.111L39.043,100.111L39.812,100.111L41.28,100.111L44.348,100.111L45.898,100.111L47.524,100.111L48.944,100.111L50.434,100.111L53.508,100.111L55.042,100.111L56.735,100.111L57.42,100.111L58.098,100.111L59.601,100.111L62.659,100.111L64.206,100.111L65.84,100.111L67.26,100.111L68.752,100.111L71.818,100.111L73.36,100.111L74.993,100.111L76.407,100.111L77.904,100.111L80.967,100.111L82.502,100.111L84.121,100.111L85.54,100.111L87.051,100.111L90.135,100.111L91.652,100.111L93.282,100.111L94.708,100.111L96.211,100.111L99.304,100.111L100.85,100.111L102.52,100.111L103.887,100.111L105.378,100.111L108.446,100.111L110,100.111L113.035,100.111L114.525,100.111L117.591,100.111L119.138,100.111L119.739,100.111L120.769,100.111L121.791,100.111L122.19,100.111L123.688,100.111L126.746,100.111L128.299,100.111L129.93,100.111L131.345,100.111L132.841,100.111L135.903,100.111L137.449,100.111L139.075,100.111L140.498,100.111L141.992,100.111L145.049,100.111L146.584,100.111L148.204,100.111L149.632,100.111L151.072,100.111L151.144,100.111L154.21,100.111L155.188,100.111L155.736,100.111L157.365,100.111L158.794,100.111L160.303,100.111L163.396,100.111L164.935,100.111L166.559,100.111L167.962,100.111L169.458,100.111L172.537,100.111L174.086,100.111L175.722,100.111L177.124,100.111L178.62,100.111L181.682,100.111L183.228,100.111L184.858,100.111L186.277,100.111L187.774,100.111L190.836,100.111L192.388,100.111L194.007,100.111L195.439,100.111L196.928,100.111L199.997,100.111" stroke="#f58518" stroke-width="2"/></g></g><path class="foreground" aria-hidden="true" d="" display="none"/></g><g transform="translate(0,0)"><path class="background" aria-hidden="true" d="M0,0h200v200h-200Z"/><g><g class="mark-line role-mark marks" role="graphics-object" aria-roledescription="line mark container"><path aria-label="Time: Aug 14, 2025; Price: 999; identifier: roam-2" role="graphics-symbol" aria-roledescription="line mark" d="M0,89L0.076,89L0.136,89L1.825,89L3.166,89L4.671,89L7.76,89L9.276,89L10.951,89L12.324,89L13.822,89L16.887,89L18.421,89L20.047,89L21.463,89L22.979,89L26.078,89L27.575,89L29.208,89L30.626,89L32.133,89L35.261,89L36.765,89L38.451,89L39.043,89L39.812,89L41.281,89L44.348,89L45.898,89L47.524,89L48.945,89L50.434,89L53.508,89L55.043,89L56.735,89L57.42,89L58.098,89L59.601,89L62.659,89L64.206,89L65.84,89L67.261,89L68.753,89L71.818,89L73.36,89L74.993,89L76.408,89L77.904,89L80.968,89L82.502,89L84.121,89L85.54,89L87.052,89L90.135,89L91.653,89L93.282,89L94.708,89L96.211,89L99.305,89L100.85,89L102.521,89L103.888,89L105.378,89L108.446,89L110.001,89L113.036,89L114.526,89L117.592,89L119.139,89L119.74,89L120.77,89L121.791,89L122.191,89L123.689,89L126.746,89L128.299,89L129.93,89L131.346,89L132.842,89L135.904,89L137.449,89L139.076,89L140.498,89L141.993,89L145.05,89L146.584,89L148.204,89L149.633,89L151.072,89L151.144,89L154.21,89L155.188,89L155.737,89L157.365,89L158.794,89L160.304,89L163.396,89L164.935,89L166.56,89L167.962,89L169.458,89L172.538,89L174.086,89L175.722,89L177.125,89L178.621,89L181.683,89L183.228,89L184.859,89L186.277,89L187.774,89L190.837,89L192.388,89L194.007,89L195.44,89L196.929,89L199.997,89" stroke="#ff9da6" stroke-width="2"/></g></g><path class="foreground" aria-hidden="true" d="" display="none"/></g><g transform="translate(0,0)"><path class="background" aria-hidden="true" d="M0,0h200v200h-200Z"/><g><g class="mark-line role-mark marks" role="graphics-object" aria-roledescription="line mark container"><path aria-label="Time: Aug 14, 2025; Price: 999; identifier: fastroad-sl-3-2022" role="graphics-symbol" aria-roledescription="line mark" d="M0,89L0.076,89L0.136,89L1.825,89L3.167,89L4.672,89L7.76,89L9.276,89L10.951,89L12.324,89L13.822,89L16.887,89L18.421,89L20.047,89L21.463,89L22.979,89L26.079,89L27.575,89L29.208,89L30.626,89L32.133,89L35.261,89L36.765,89L38.452,89L39.044,89L39.812,89L41.281,89L44.348,89L45.898,89L47.525,89L48.945,89L50.434,89L53.508,89L55.043,89L56.736,89L57.421,89L58.098,89L59.601,89L62.659,89L64.207,89L65.84,89L67.261,89L68.753,89L71.818,89L73.361,89L74.993,89L76.408,89L77.905,89L80.968,89L82.503,89L84.121,89L85.54,89L87.052,89L90.136,89L91.653,89L93.283,89L94.708,89L96.211,89L99.305,89L100.85,89L102.521,89L103.888,89L105.379,89L108.447,89L110.001,89L113.036,89L114.526,89L117.592,89L119.139,89L119.74,89L120.77,89L121.791,89L122.191,89L123.689,89L126.747,89L128.299,89L129.93,89L131.346,89L132.842,89L135.904,89L137.45,89L139.076,89L140.499,89L141.993,89L145.05,89L146.584,89L148.204,89L149.633,89L151.073,89L151.144,89L154.21,89L155.188,89L155.737,89L157.365,89L158.794,89L160.304,89L163.396,89L164.935,89L166.56,89L167.963,89L169.458,89L172.538,89L174.086,89L175.722,89L177.125,89L178.621,89L181.683,89L183.228,89L184.859,89L186.277,89L187.775,89L190.837,89L192.388,89L194.007,89L195.44,89L196.929,89L199.997,89" stroke="#9d755d" stroke-width="2"/></g></g><path class="foreground" aria-hidden="true" d="" display="none"/></g><g transform="translate(0,0)"><path class="background" aria-hidden="true" d="M0,0h200v200h-200Z"/><g><g class="mark-line role-mark marks" role="graphics-object" aria-roledescription="line mark container"><path aria-label="Time: Aug 14, 2025; Price: 1199; identifier: fastroad-ar-2" role="graphics-symbol" aria-roledescription="line mark" d="M0.001,66.778L0.077,66.778L0.137,66.778L1.825,66.778L3.167,66.778L4.672,66.778L7.76,66.778L9.277,66.778L10.951,66.778L12.325,66.778L13.822,66.778L16.887,66.778L18.422,66.778L20.047,66.778L21.464,66.778L22.986,66.778L26.079,66.778L27.575,66.778L29.208,66.778L30.627,66.778L32.133,66.778L35.261,66.778L36.765,66.778L38.452,66.778L39.044,66.778L39.813,66.778L41.281,66.778L44.349,66.778L45.898,66.778L47.525,66.778L48.945,66.778L50.434,66.778L53.508,66.778L55.043,66.778L56.736,66.778L57.421,66.778L58.099,66.778L59.602,66.778L62.659,66.778L64.207,66.778L65.841,66.778L67.261,66.778L68.753,66.778L71.818,66.778L73.361,66.778L74.993,66.778L76.408,66.778L77.905,66.778L80.968,66.778L82.503,66.778L84.122,66.778L85.541,66.778L87.052,66.778L90.136,66.778L91.654,66.778L93.283,66.778L94.709,66.778L96.212,66.778L99.305,66.778L100.85,66.778L102.521,66.778L103.888,66.778L105.379,66.778L108.448,66.778L110.001,66.778L113.036,66.778L114.526,66.778L117.592,66.778L119.139,66.778L119.74,66.778L120.77,66.778L121.791,66.778L122.191,66.778L123.689,66.778L126.747,66.778L128.3,66.778L129.931,66.778L131.346,66.778L132.842,66.778L135.904,66.778L137.45,66.778L139.076,66.778L140.499,66.778L141.993,66.778L145.05,66.778L146.585,66.778L148.205,66.778L149.633,66.778L151.073,66.778L151.144,66.778L154.211,66.778L155.189,66.778L155.737,66.778L157.366,66.778L158.795,66.778L160.304,66.778L163.396,66.778L164.936,66.778L166.56,66.778L167.963,66.778L169.459,66.778L172.538,66.778L174.086,66.778L175.723,66.778L177.125,66.778L178.621,66.778L181.683,66.778L183.228,66.778L184.859,66.778L186.277,66.778L187.775,66.778L190.837,66.778L192.388,66.778L194.007,66.778L195.44,66.778L196.929,66.778L199.998,66.778" stroke="#54a24b" stroke-width="2"/></g></g><path class="foreground" aria-hidden="true" d="" display="none"/></g><g transform="translate(0,0)"><path class="background" aria-hidden="true" d="M0,0h200v200h-200Z"/><g><g class="mark-line role-mark marks" role="graphics-object" aria-roledescription="line mark container"><path aria-label="Time: Aug 18, 2025; Price: 899; identifier: sdrbike-escape-1-city-disc" role="graphics-symbol" aria-roledescription="line mark" d="M39.044,100.111L39.813,100.111L41.281,100.111L44.349,100.111L45.899,100.111L47.525,100.111L48.946,100.111L50.435,100.111L53.509,100.111L55.043,100.111L56.736,100.111L57.421,100.111L58.099,100.111L59.602,100.111L62.659,100.111L64.207,100.111L65.841,100.111L67.261,100.111L68.754,100.111L71.819,100.111L73.361,100.111L74.994,100.111L76.408,100.111L77.905,100.111L80.969,100.111L82.503,100.111L84.122,100.111L85.541,100.111L87.052,100.111L90.136,100.111L91.654,100.111L93.284,100.111L94.709,100.111L96.212,100.111L99.306,100.111L100.851,100.111L102.521,100.111L103.889,100.111L105.379,100.111L108.448,100.111L110.001,100.111L113.036,100.111L114.526,100.111L117.592,100.111L119.139,100.111L119.741,100.111L120.77,100.111L121.791,100.111L122.191,100.111L123.689,100.111L126.747,100.111L128.3,100.111L129.931,100.111L131.346,100.111L132.842,100.111L135.904,100.111L137.45,100.111L139.077,100.111L140.499,100.111L141.994,100.111L145.051,100.111L146.585,100.111L148.205,100.111L149.633,100.111L151.073,100.111L151.145,100.111L154.211,100.111L155.189,100.111L155.738,100.111L157.366,100.111L158.795,100.111L160.304,100.111L163.397,100.111L164.936,100.111L166.561,100.111L167.963,100.111L169.459,100.111L172.539,100.111L174.087,100.111L175.723,100.111L177.125,100.111L178.622,100.111L181.683,100.111L183.229,100.111L184.86,100.111L186.278,100.111L187.775,100.111L190.837,100.111L192.389,100.111L194.008,100.111L195.441,100.111L196.929,100.111L199.998,100.111" stroke="#e45756" stroke-width="2"/></g></g><path class="foreground" aria-hidden="true" d="" display="none"/></g><g transform="translate(0,0)"><path class="background" aria-hidden="true" d="M0,0h200v200h-200Z"/><g><g class="mark-line role-mark marks" role="graphics-object" aria-roledescription="line mark container"><path aria-label="Time: Aug 20, 2025; Price: 899; identifier: roam-disc-2-2024" role="graphics-symbol" aria-roledescription="line mark" d="M57.42,100.111L58.098,100.111L59.601,100.111L62.659,100.111L64.206,100.111L65.84,100.111L67.261,100.111L68.753,100.111L71.818,100.111L73.36,100.111L74.993,100.111L76.408,100.111L77.904,100.111L80.967,100.111L82.502,100.111L84.121,100.111L85.54,100.111L87.052,100.111L90.135,100.111L91.653,100.111L93.282,100.111L94.708,100.111L96.211,100.111L99.305,100.111L100.85,100.111L102.52,100.111L103.888,100.111L105.378,100.111L108.446,100.111L110,100.111L113.035,100.111L114.525,100.111L117.591,100.111L119.139,100.111L119.739,100.111L120.77,100.111L121.791,100.111L122.19,100.111L123.688,100.111L126.746,100.111L128.299,100.111L129.93,100.111L131.345,100.111L132.841,100.111L135.903,100.111L137.449,100.111L139.076,100.111L140.498,100.111L141.993,100.111L145.05,100.111L146.584,100.111L148.204,100.111L149.633,100.111L151.072,100.111L151.144,100.111L154.21,100.111L155.188,100.111L155.737,100.111L157.365,100.111L158.794,100.111L160.304,100.111L163.396,100.111L164.935,100.111L166.56,100.111L167.962,100.111L169.458,100.111L172.538,100.111L174.086,100.111L175.722,100.111L177.125,100.111L178.621,100.111L181.682,100.111L183.228,100.111L184.859,100.111L186.277,100.111L187.774,100.111L190.836,100.111L192.388,100.111L194.007,100.111L195.44,100.111L196.928,100.111L199.997,100.111" stroke="#72b7b2" stroke-width="2"/></g></g><path class="foreground" aria-hidden="true" d="" display="none"/></g><g transform="translate(0,0)"><path class="background" aria-hidden="true" d="M0,0h200v200h-200Z"/><g><g class="mark-line role-mark marks" role="graphics-object" aria-roledescription="line mark container"><path aria-label="Time: Aug 20, 2025; Price: 1199; identifier: thrive-2" role="graphics-symbol" aria-roledescription="line mark" d="M57.421,66.778L58.099,66.778L59.602,66.778L62.66,66.778L64.207,66.778L65.841,66.778L67.262,66.778L68.754,66.778L71.819,66.778L73.361,66.778L74.994,66.778L76.409,66.778L77.905,66.778L80.969,66.778L82.504,66.778L84.122,66.778L85.541,66.778L87.053,66.778L90.136,66.778L91.654,66.778L93.284,66.778L94.709,66.778L96.212,66.778L99.306,66.778L100.851,66.778L102.521,66.778L103.889,66.778L105.379,66.778L108.448,66.778L110.002,66.778L113.037,66.778L114.526,66.778L117.593,66.778L119.14,66.778L119.741,66.778L120.771,66.778L121.792,66.778L122.192,66.778L123.69,66.778L126.747,66.778L128.3,66.778L129.931,66.778L131.346,66.778L132.843,66.778L135.905,66.778L137.45,66.778L139.077,66.778L140.499,66.778L141.994,66.778L145.051,66.778L146.585,66.778L148.205,66.778L149.634,66.778L151.073,66.778L151.145,66.778L154.211,66.778L155.189,66.778L155.738,66.778L157.366,66.778L158.795,66.778L160.304,66.778L163.397,66.778L164.936,66.778L166.561,66.778L167.963,66.778L169.459,66.778L172.539,66.778L174.087,66.778L175.723,66.778L177.126,66.778L178.622,66.778L181.684,66.778L183.229,66.778L184.86,66.778L186.278,66.778L187.775,66.778L190.838,66.778L192.389,66.778L194.008,66.778L195.441,66.778L196.93,66.778L199.998,66.778" stroke="#eeca3b" stroke-width="2"/></g></g><path class="foreground" aria-hidden="true" d="" display="none"/></g><g transform="translate(0,0)"><path class="background" aria-hidden="true" d="M0,0h200v200h-200Z"/><g><g class="mark-line role-mark marks" role="graphics-object" aria-roledescription="line mark container"><path aria-label="Time: Aug 20, 2025; Price: 999; identifier: rove-2" role="graphics-symbol" aria-roledescription="line mark" d="M57.422,89L58.099,89L59.603,89L62.66,89L64.208,89L65.841,89L67.262,89L68.754,89L71.819,89L73.362,89L74.994,89L76.409,89L77.906,89L80.969,89L82.504,89L84.122,89L85.541,89L87.053,89L90.137,89L91.654,89L93.284,89L94.709,89L96.212,89L99.306,89L100.851,89L102.522,89L103.889,89L105.38,89L108.448,89L110.002,89L113.037,89L114.526,89L117.593,89L119.14,89L119.742,89L120.771,89L121.792,89L122.192,89L123.69,89L126.748,89L128.3,89L129.931,89L131.347,89L132.843,89L135.905,89L137.451,89L139.077,89L140.499,89L141.994,89L151.074,111.222L151.145,111.222L154.211,111.222L155.189,111.222L155.738,111.222L157.366,111.222L158.795,111.222L160.305,111.222L163.397,111.222L164.936,111.222L166.561,111.222L167.964,111.222L169.459,111.222L172.539,111.222L174.087,111.222L175.724,111.222L177.126,111.222L178.622,111.222L181.684,111.222L183.229,111.222L184.86,111.222L186.278,111.222L187.775,111.222L190.838,111.222L192.389,111.222L194.008,111.222L195.441,111.222L196.93,111.222L199.998,111.222" stroke="#bab0ac" stroke-width="2"/></g></g><path class="foreground" aria-hidden="true" d="" display="none"/></g><g transform="translate(0,0)"><path class="background" aria-hidden="true" d="M0,0h200v200h-200Z"/><g><g class="mark-line role-mark marks" role="graphics-object" aria-roledescription="line mark container"><path aria-label="Time: Aug 27, 2025; Price: 1199; identifier: allure-rs-1-2023" role="graphics-symbol" aria-roledescription="line mark" d="M119.742,66.778L120.771,66.778L121.792,66.778L122.192,66.778L123.69,66.778L126.748,66.778L128.301,66.778L129.932,66.778L131.347,66.778L132.843,66.778L135.905,66.778L137.451,66.778L139.077,66.778L140.5,66.778L141.994,66.778L145.051,66.778L146.586,66.778L148.206,66.778L149.634,66.778L151.074,66.778L151.145,66.778L154.211,66.778L155.189,66.778L155.738,66.778L157.367,66.778L158.795,66.778L160.305,66.778L163.397,66.778L164.936,66.778L166.561,66.778L167.964,66.778L169.46,66.778L172.539,66.778L174.087,66.778L175.724,66.778L177.126,66.778L178.622,66.778L181.684,66.778L183.229,66.778L184.86,66.778L186.278,66.778L187.776,66.778L190.838,66.778L192.389,66.778L194.008,66.778L195.441,66.778L196.93,66.778L199.998,66.778" stroke="#b279a2" stroke-width="2"/></g></g><path class="foreground" aria-hidden="true" d="" display="none"/></g><g transform="translate(0,0)"><path class="background" aria-hidden="true" d="M0,0h200v200h-200Z"/><g><g class="mark-line role-mark marks" role="graphics-object" aria-roledescription="line mark container"><path aria-label="Time: Aug 27, 2025; Price: 999; identifier: allure-rs-2-2022" role="graphics-symbol" aria-roledescription="line mark" d="M119.743,89L120.771,89L121.792,89L122.192,89L123.69,89L126.748,89L128.301,89L129.932,89L131.347,89L132.843,89L135.905,89L137.451,89L139.078,89L140.5,89L141.995,89L151.074,111.222L151.145,111.222L154.212,111.222L155.19,111.222L155.739,111.222L157.367,111.222L158.796,111.222L160.305,111.222L163.397,111.222L164.937,111.222L166.562,111.222L167.964,111.222L169.46,111.222L172.54,111.222L174.088,111.222L175.724,111.222L177.126,111.222L178.623,111.222L181.684,111.222L183.229,111.222L184.86,111.222L186.278,111.222L187.776,111.222L190.838,111.222L192.39,111.222L194.009,111.222L195.442,111.222L196.931,111.222L199.999,111.222" stroke="#54a24b" stroke-width="2"/></g></g><path class="foreground" aria-hidden="true" d="" display="none"/></g><g transform="translate(0,0)"><path class="background" aria-hidden="true" d="M0,0h200v200h-200Z"/><g><g class="mark-line role-mark marks" role="graphics-object" aria-roledescription="line mark container"><path aria-label="Time: Aug 27, 2025; Price: 949; identifier: allure-rs-2-2023" role="graphics-symbol" aria-roledescription="line mark" d="M119.744,94.556L120.771,94.556L121.792,94.556L122.192,94.556L123.691,94.556L126.748,94.556L128.301,94.556L129.932,94.556L131.347,94.556L132.843,94.556L135.905,94.556L137.451,94.556L139.078,94.556L140.5,94.556L141.995,94.556L145.051,94.556L146.586,94.556L148.206,94.556L149.634,94.556L151.075,94.556L151.145,94.556L154.212,94.556L155.19,94.556L155.739,94.556L157.367,94.556L158.796,94.556L160.305,94.556L163.398,94.556L164.937,94.556L166.562,94.556L167.964,94.556L169.46,94.556L172.54,94.556L174.088,94.556L175.724,94.556L177.126,94.556L178.623,94.556L181.684,94.556L183.229,94.556L184.861,94.556L186.278,94.556L187.776,94.556L190.839,94.556L192.39,94.556L194.009,94.556L195.442,94.556L196.931,94.556L199.999,94.556" stroke="#4c78a8" stroke-width="2"/></g></g><path class="foreground" aria-hidden="true" d="" display="none"/></g><g transform="translate(0,0)"><path class="background" aria-hidden="true" d="M0,0h200v200h-200Z"/><g><g class="mark-line role-mark marks" role="graphics-object" aria-roledescription="line mark container"><path aria-label="Time: Aug 27, 2025; Price: 999; identifier: allure-rs-2-2024" role="graphics-symbol" aria-roledescription="line mark" d="M119.744,89L120.771,89L121.792,89L122.192,89L123.691,89L126.749,89L128.301,89L129.932,89L131.347,89L132.843,89L135.906,89L137.451,89L139.078,89L140.5,89L141.995,89L151.075,111.222L151.146,111.222L154.212,111.222L155.19,111.222L155.739,111.222L157.367,111.222L158.796,111.222L160.305,111.222L163.398,111.222L164.937,111.222L166.562,111.222L167.964,111.222L169.46,111.222L172.54,111.222L174.088,111.222L175.724,111.222L177.126,111.222L178.623,111.222L181.684,111.222L183.23,111.222L184.861,111.222L186.279,111.222L187.776,111.222L190.839,111.222L192.39,111.222L194.009,111.222L195.442,111.222L196.931,111.222L199.999,111.222" stroke="#eeca3b" stroke-width="2"/></g></g><path class="foreground" aria-hidden="true" d="" display="none"/></g><g transform="translate(0,0)"><path class="background" aria-hidden="true" d="M0,0h200v200h-200Z"/><g><g class="mark-line role-mark marks" role="graphics-object" aria-roledescription="line mark container"><path aria-label="Time: Aug 27, 2025; Price: 1799; identifier: devote-1-2024" role="graphics-symbol" aria-roledescription="line mark" d="M121.792,0.111L122.193,0.111L123.691,0.111L126.749,0.111L128.302,0.111L129.932,0.111L131.348,0.111L132.844,0.111L135.906,0.111L137.452,0.111L139.078,0.111L140.5,0.111L141.995,0.111L151.075,44.556L151.146,44.556L154.212,44.556L155.19,44.556L155.739,44.556L157.367,44.556L158.796,44.556L160.306,44.556L163.398,44.556L164.937,44.556L166.562,44.556L167.965,44.556L169.461,44.556L172.54,44.556L174.088,44.556L175.725,44.556L177.127,44.556L178.623,44.556L181.685,44.556L183.23,44.556L184.861,44.556L186.279,44.556L187.776,44.556L190.839,44.556L192.39,44.556L194.009,44.556L195.442,44.556L196.931,44.556L199.999,44.556" stroke="#72b7b2" stroke-width="2"/></g></g><path class="foreground" aria-hidden="true" d="" display="none"/></g><g transform="translate(0,0)"><path class="background" aria-hidden="true" d="M0,0h200v200h-200Z"/><g><g class="mark-line role-mark marks" role="graphics-object" aria-roledescription="line mark container"><path aria-label="Time: Aug 27, 2025; Price: 1699; identifier: devote-1-2022" role="graphics-symbol" aria-roledescription="line mark" d="M121.793,11.222L122.193,11.222L123.691,11.222L126.749,11.222L128.302,11.222L129.933,11.222L131.348,11.222L132.844,11.222L135.906,11.222L137.452,11.222L139.078,11.222L140.5,11.222L141.996,11.222L145.052,11.222L146.587,11.222L148.207,11.222L149.635,11.222L151.075,11.222L151.146,11.222L154.212,11.222L155.19,11.222L155.739,11.222L157.368,11.222L158.796,11.222L160.306,11.222L163.398,11.222L164.937,11.222L166.562,11.222L167.965,11.222L169.461,11.222L172.541,11.222L174.088,11.222L175.725,11.222L177.127,11.222L178.624,11.222L181.685,11.222L183.23,11.222L184.861,11.222L186.279,11.222L187.776,11.222L190.839,11.222L192.39,11.222L194.009,11.222L195.443,11.222L196.931,11.222L199.999,11.222" stroke="#4c78a8" stroke-width="2"/></g></g><path class="foreground" aria-hidden="true" d="" display="none"/></g><g transform="translate(0,0)"><path class="background" aria-hidden="true" d="M0,0h200v200h-200Z"/><g><g class="mark-line role-mark marks" role="graphics-object" aria-roledescription="line mark container"><path aria-label="Time: Aug 31, 2025; Price: 1599; identifier: silex-400-oak-bork-2026" role="graphics-symbol" aria-roledescription="line mark" d="M155.191,22.333L155.74,22.333L157.368,22.333L158.797,22.333L160.306,22.333L163.399,22.333L164.938,22.333L166.563,22.333L167.965,22.333L169.461,22.333L172.541,22.333L174.089,22.333L175.725,22.333L177.127,22.333L178.624,22.333L181.685,22.333L183.23,22.333L184.861,22.333L186.279,22.333L187.777,22.333L190.84,22.333L192.391,22.333L194.01,22.333L195.443,22.333L196.932,22.333L200,22.333" stroke="#f58518" stroke-width="2"/></g></g><path class="foreground" aria-hidden="true" d="" display="none"/></g><g transform="translate(0,0)"><path class="background" aria-hidden="true" d="M0,0h200v200h-200Z"/><g><g class="mark-line role-mark marks" role="graphics-object" aria-roledescription="line mark container"><path aria-label="Time: Aug 31, 2025; Price: 1599; identifier: silex-400-warm-slate-grey-2026" role="graphics-symbol" aria-roledescription="line mark" d="M155.191,22.333L155.74,22.333L157.369,22.333L158.797,22.333L160.306,22.333L163.399,22.333L164.938,22.333L166.563,22.333L167.966,22.333L169.462,22.333L172.541,22.333L174.089,22.333L175.726,22.333L177.128,22.333L178.624,22.333L181.686,22.333L183.231,22.333L184.862,22.333L186.28,22.333L187.777,22.333L190.84,22.333L192.391,22.333L194.01,22.333L195.444,22.333L196.932,22.333L200,22.333" stroke="#e45756" stroke-width="2"/></g></g><path class="foreground" aria-hidden="true" d="" display="none"/></g></g><g class="mark-group role-legend" role="graphics-symbol" aria-roledescription="legend" aria-label="Symbol legend titled 'identifier' for stroke color with 16 values: devote-1-2022, silex-400-oak-bork-2026, silex-400-warm-slate-grey-2026, devote-1-2024, fastroad-ar-2, ending with allure-rs-2-2024"><g transform="translate(220,0)"><path class="background" aria-hidden="true" d="M0,0h256v222h-256Z" pointer-events="none"/><g><g class="mark-group role-legend-entry"><g transform="translate(0,16)"><path class="background" aria-hidden="true" d="M0,0h0v0h0Z" pointer-events="none"/><g><g class="mark-group role-scope" role="graphics-object" aria-roledescription="group mark container"><g transform="translate(0,0)"><path class="background" aria-hidden="true" d="M0,0h256v11h-256Z" pointer-events="none" opacity="1"/><g><g class="mark-symbol role-legend-symbol" pointer-events="none"><path transform="translate(6,6)" d="M-5,0L5,0" stroke="#4c78a8" stroke-width="1.5" opacity="1"/></g><g class="mark-text role-legend-label" pointer-events="none"><text text-anchor="start" transform="translate(16,9)" font-family="Liberation Mono" font-size="10px" fill="#000" opacity="1">devote-1-2022</text></g></g><path class="foreground" aria-hidden="true" d="" pointer-events="none" display="none"/></g><g transform="translate(0,13)"><path class="background" aria-hidden="true" d="M0,0h256v11h-256Z" pointer-events="none" opacity="1"/><g><g class="mark-symbol role-legend-symbol" pointer-events="none"><path transform="translate(6,6)" d="M-5,0L5,0" stroke="#f58518" stroke-width="1.5" opacity="1"/></g><g class="mark-text role-legend-label" pointer-events="none"><text text-anchor="start" transform="translate(16,9)" font-family="Liberation Mono" font-size="10px" fill="#000" opacity="1">silex-400-oak-bork-2026</text></g></g><path class="foreground" aria-hidden="true" d="" pointer-events="none" display="none"/></g><g transform="translate(0,26)"><path class="background" aria-hidden="true" d="M0,0h256v11h-256Z" pointer-events="none" opacity="1"/><g><g class="mark-symbol role-legend-symbol" pointer-events="none"><path transform="translate(6,6)" d="M-5,0L5,0" stroke="#e45756" stroke-width="1.5" opacity="1"/></g><g class="mark-text role-legend-label" pointer-events="none"><text text-anchor="start" transform="translate(16,9)" font-family="Liberation Mono" font-size="10px" fill="#000" opacity="1">silex-400-warm-slate-grey-2026</text></g></g><path class="foreground" aria-hidden="true" d="" pointer-events="none" display="none"/></g><g transform="translate(0,39)"><path class="background" aria-hidden="true" d="M0,0h256v11h-256Z" pointer-events="none" opacity="1"/><g><g class="mark-symbol role-legend-symbol" pointer-events="none"><path transform="translate(6,6)" d="M-5,0L5,0" stroke="#72b7b2" stroke-width="1.5" opacity="1"/></g><g class="mark-text role-legend-label" pointer-events="none"><text text-anchor="start" transform="translate(16,9)" font-family="Liberation Mono" font-size="10px" fill="#000" opacity="1">devote-1-2024</text></g></g><path class="foreground" aria-hidden="true" d="" pointer-events="none" display="none"/></g><g transform="translate(0,52)"><path class="background" aria-hidden="true" d="M0,0h256v11h-256Z" pointer-events="none" opacity="1"/><g><g class="mark-symbol role-legend-symbol" pointer-events="none"><path transform="translate(6,6)" d="M-5,0L5,0" stroke="#54a24b" stroke-width="1.5" opacity="1"/></g><g class="mark-text role-legend-label" pointer-events="none"><text text-anchor="start" transform="translate(16,9)" font-family="Liberation Mono" font-size="10px" fill="#000" opacity="1">fastroad-ar-2</text></g></g><path class="foreground" aria-hidden="true" d="" pointer-events="none" display="none"/></g><g transform="translate(0,65)"><path class="background" aria-hidden="true" d="M0,0h256v11h-256Z" pointer-events="none" opacity="1"/><g><g class="mark-symbol role-legend-symbol" pointer-events="none"><path transform="translate(6,6)" d="M-5,0L5,0" stroke="#eeca3b" stroke-width="1.5" opacity="1"/></g><g class="mark-text role-legend-label" pointer-events="none"><text text-anchor="start" transform="translate(16,9)" font-family="Liberation Mono" font-size="10px" fill="#000" opacity="1">thrive-2</text></g></g><path class="foreground" aria-hidden="true" d="" pointer-events="none" display="none"/></g><g transform="translate(0,78)"><path class="background" aria-hidden="true" d="M0,0h256v11h-256Z" pointer-events="none" opacity="1"/><g><g class="mark-symbol role-legend-symbol" pointer-events="none"><path transform="translate(6,6)" d="M-5,0L5,0" stroke="#b279a2" stroke-width="1.5" opacity="1"/></g><g class="mark-text role-legend-label" pointer-events="none"><text text-anchor="start" transform="translate(16,9)" font-family="Liberation Mono" font-size="10px" fill="#000" opacity="1">allure-rs-1-2023</text></g></g><path class="foreground" aria-hidden="true" d="" pointer-events="none" display="none"/></g><g transform="translate(0,91)"><path class="background" aria-hidden="true" d="M0,0h256v11h-256Z" pointer-events="none" opacity="1"/><g><g class="mark-symbol role-legend-symbol" pointer-events="none"><path transform="translate(6,6)" d="M-5,0L5,0" stroke="#ff9da6" stroke-width="1.5" opacity="1"/></g><g class="mark-text role-legend-label" pointer-events="none"><text text-anchor="start" transform="translate(16,9)" font-family="Liberation Mono" font-size="10px" fill="#000" opacity="1">roam-2</text></g></g><path class="foreground" aria-hidden="true" d="" pointer-events="none" display="none"/></g><g transform="translate(0,104)"><path class="background" aria-hidden="true" d="M0,0h256v11h-256Z" pointer-events="none" opacity="1"/><g><g class="mark-symbol role-legend-symbol" pointer-events="none"><path transform="translate(6,6)" d="M-5,0L5,0" stroke="#9d755d" stroke-width="1.5" opacity="1"/></g><g class="mark-text role-legend-label" pointer-events="none"><text text-anchor="start" transform="translate(16,9)" font-family="Liberation Mono" font-size="10px" fill="#000" opacity="1">fastroad-sl-3-2022</text></g></g><path class="foreground" aria-hidden="true" d="" pointer-events="none" display="none"/></g><g transform="translate(0,117)"><path class="background" aria-hidden="true" d="M0,0h256v11h-256Z" pointer-events="none" opacity="1"/><g><g class="mark-symbol role-legend-symbol" pointer-events="none"><path transform="translate(6,6)" d="M-5,0L5,0" stroke="#bab0ac" stroke-width="1.5" opacity="1"/></g><g class="mark-text role-legend-label" pointer-events="none"><text text-anchor="start" transform="translate(16,9)" font-family="Liberation Mono" font-size="10px" fill="#000" opacity="1">rove-2</text></g></g><path class="foreground" aria-hidden="true" d="" pointer-events="none" display="none"/></g><g transform="translate(0,130)"><path class="background" aria-hidden="true" d="M0,0h256v11h-256Z" pointer-events="none" opacity="1"/><g><g class="mark-symbol role-legend-symbol" pointer-events="none"><path transform="translate(6,6)" d="M-5,0L5,0" stroke="#4c78a8" stroke-width="1.5" opacity="1"/></g><g class="mark-text role-legend-label" pointer-events="none"><text text-anchor="start" transform="translate(16,9)" font-family="Liberation Mono" font-size="10px" fill="#000" opacity="1">allure-rs-2-2023</text></g></g><path class="foreground" aria-hidden="true" d="" pointer-events="none" display="none"/></g><g transform="translate(0,143)"><path class="background" aria-hidden="true" d="M0,0h256v11h-256Z" pointer-events="none" opacity="1"/><g><g class="mark-symbol role-legend-symbol" pointer-events="none"><path transform="translate(6,6)" d="M-5,0L5,0" stroke="#f58518" stroke-width="1.5" opacity="1"/></g><g class="mark-text role-legend-label" pointer-events="none"><text text-anchor="start" transform="translate(16,9)" font-family="Liberation Mono" font-size="10px" fill="#000" opacity="1">escape-city-disc-1-2024</text></g></g><path class="foreground" aria-hidden="true" d="" pointer-events="none" display="none"/></g><g transform="translate(0,156)"><path class="background" aria-hidden="true" d="M0,0h256v11h-256Z" pointer-events="none" opacity="1"/><g><g class="mark-symbol role-legend-symbol" pointer-events="none"><path transform="translate(6,6)" d="M-5,0L5,0" stroke="#e45756" stroke-width="1.5" opacity="1"/></g><g class="mark-text role-legend-label" pointer-events="none"><text text-anchor="start" transform="translate(16,9)" font-family="Liberation Mono" font-size="10px" fill="#000" opacity="1">sdrbike-escape-1-city-disc</text></g></g><path class="foreground" aria-hidden="true" d="" pointer-events="none" display="none"/></g><g transform="translate(0,169)"><path class="background" aria-hidden="true" d="M0,0h256v11h-256Z" pointer-events="none" opacity="1"/><g><g class="mark-symbol role-legend-symbol" pointer-events="none"><path transform="translate(6,6)" d="M-5,0L5,0" stroke="#72b7b2" stroke-width="1.5" opacity="1"/></g><g class="mark-text role-legend-label" pointer-events="none"><text text-anchor="start" transform="translate(16,9)" font-family="Liberation Mono" font-size="10px" fill="#000" opacity="1">roam-disc-2-2024</text></g></g><path class="foreground" aria-hidden="true" d="" pointer-events="none" display="none"/></g><g transform="translate(0,182)"><path class="background" aria-hidden="true" d="M0,0h256v11h-256Z" pointer-events="none" opacity="1"/><g><g class="mark-symbol role-legend-symbol" pointer-events="none"><path transform="translate(6,6)" d="M-5,0L5,0" stroke="#54a24b" stroke-width="1.5" opacity="1"/></g><g class="mark-text role-legend-label" pointer-events="none"><text text-anchor="start" transform="translate(16,9)" font-family="Liberation Mono" font-size="10px" fill="#000" opacity="1">allure-rs-2-2022</text></g></g><path class="foreground" aria-hidden="true" d="" pointer-events="none" display="none"/></g><g transform="translate(0,195)"><path class="background" aria-hidden="true" d="M0,0h256v11h-256Z" pointer-events="none" opacity="1"/><g><g class="mark-symbol role-legend-symbol" pointer-events="none"><path transform="translate(6,6)" d="M-5,0L5,0" stroke="#eeca3b" stroke-width="1.5" opacity="1"/></g><g class="mark-text role-legend-label" pointer-events="none"><text text-anchor="start" transform="translate(16,9)" font-family="Liberation Mono" font-size="10px" fill="#000" opacity="1">allure-rs-2-2024</text></g></g><path class="foreground" aria-hidden="true" d="" pointer-events="none" display="none"/></g></g></g><path class="foreground" aria-hidden="true" d="" pointer-events="none" display="none"/></g></g><g class="mark-text role-legend-title" pointer-events="none"><text text-anchor="start" transform="translate(0,9)" font-family="Liberation Mono" font-size="11px" font-weight="bold" fill="#000" opacity="1">identifier</text></g></g><path class="foreground" aria-hidden="true" d="" pointer-events="none" display="none"/></g></g></g><path class="foreground" aria-hidden="true" d="" display="none"/></g></g></g></svg>