<svg xmlns="http://www.w3.org/2000/svg" xmlns:xlink="http://www.w3.org/1999/xlink" version="1.1" class="marks" width="548" height="244" viewBox="0 0 548 244"><rect width="548" height="244" fill="white"/><g fill="none" stroke-miterlimit="10" transform="translate(67,7)"><g class="mark-group role-frame root" role="graphics-object" aria-roledescription="group mark container"><g transform="translate(0,0)"><path class="background" aria-hidden="true" d="M0.5,0.5h200v200h-200Z" stroke="#ddd"/><g><g class="mark-group role-axis" aria-hidden="true"><g transform="translate(0.5,200.5)"><path class="background" aria-hidden="true" d="M0,0h0v0h0Z" pointer-events="none"/><g><g class="mark-rule role-axis-grid" pointer-events="none"><line transform="translate(12,-200)" x2="0" y2="200" stroke="#ddd" stroke-width="1" opacity="1"/><line transform="translate(43,-200)" x2="0" y2="200" stroke="#ddd" stroke-width="1" opacity="1"/><line transform="translate(75,-200)" x2="0" y2="200" stroke="#ddd" stroke-width="1" opacity="1"/><line transform="translate(106,-200)" x2="0" y2="200" stroke="#ddd" stroke-width="1" opacity="1"/><line transform="translate(138,-200)" x2="0" y2="200" stroke="#ddd" stroke-width="1" opacity="1"/><line transform="translate(169,-200)" x2="0" y2="200" stroke="#ddd" stroke-width="1" opacity="1"/></g></g><path class="foreground" aria-hidden="true" d="" pointer-events="none" display="none"/></g></g><g class="mark-group role-axis" aria-hidden="true"><g transform="translate(0.5,0.5)"><path class="background" aria-hidden="true" d="M0,0h0v0h0Z" pointer-events="none"/><g><g class="mark-rule role-axis-grid" pointer-events="none"><line transform="translate(0,200)" x2="200" y2="0" stroke="#ddd" stroke-width="1" opacity="1"/><line transform="translate(0,144)" x2="200" y2="0" stroke="#ddd" stroke-width="1" opacity="1"/><line transform="translate(0,89)" x2="200" y2="0" stroke="#ddd" stroke-width="1" opacity="1"/><line transform="translate(0,33)" x2="200" y2="0" stroke="#ddd" stroke-width="1" opacity="1"/></g></g><path class="foreground" aria-hidden="true" d="" pointer-events="none" display="none"/></g></g><g class="mark-group role-axis" role="graphics-symbol" aria-roledescription="axis" aria-label="X-axis titled 'Time' for a time scale with values from Thursday, 14 August 2025, 8:34:48 AM to Saturday, 27 September 2025, 8:45:23 PM"><g transform="translate(0.5,200.5)"><path class="background" aria-hidden="true" d="M0,0h0v0h0Z" pointer-events="none"/><g><g class="mark-rule role-axis-tick" pointer-events="none"><line transform="translate(12,0)" x2="0" y2="5" stroke="#888" stroke-width="1" opacity="1"/><line transform="translate(43,0)" x2="0" y2="5" stroke="#888" stroke-width="1" opacity="1"/><line transform="translate(75,0)" x2="0" y2="5" stroke="#888" stroke-width="1" opacity="1"/><line transform="translate(106,0)" x2="0" y2="5" stroke="#888" stroke-width="1" opacity="1"/><line transform="translate(138,0)" x2="0" y2="5" stroke="#888" stroke-width="1" opacity="1"/><line transform="translate(169,0)" x2="0" y2="5" stroke="#888" stroke-width="1" opacity="1"/></g><g class="mark-text role-axis-label" pointer-events="none"><text text-anchor="middle" transform="translate(11.874404532396227,15)" font-family="Liberation Mono" font-size="10px" fill="#000" opacity="1">Aug 17</text><text text-anchor="middle" transform="translate(43.32988479659976,15)" font-family="Liberation Mono" font-size="10px" fill="#000" opacity="0">Aug 24</text><text text-anchor="middle" transform="translate(74.7853650608033,15)" font-family="Liberation Mono" font-size="10px" fill="#000" opacity="1">Aug 31</text><text text-anchor="middle" transform="translate(106.24084532500684,15)" font-family="Liberation Mono" font-size="10px" fill="#000" opacity="0">Sep 07</text><text text-anchor="middle" transform="translate(137.69632558921037,15)" font-family="Liberation Mono" font-size="10px" fill="#000" opacity="1">Sep 14</text><text text-anchor="middle" transform="translate(169.1518058534139,15)" font-family="Liberation Mono" font-size="10px" fill="#000" opacity="0">Sep 21</text></g><g class="mark-rule role-axis-domain" pointer-events="none"><line transform="translate(0,0)" x2="200" y2="0" stroke="#888" stroke-width="1" opacity="1"/></g><g class="mark-text role-axis-title" pointer-events="none"><text text-anchor="middle" transform="translate(100,30)" font-family="Liberation Mono" font-size="11px" font-weight="bold" fill="#000" opacity="1">Time</text></g></g><path class="foreground" aria-hidden="true" d="" pointer-events="none" display="none"/></g></g><g class="mark-group role-axis" role="graphics-symbol" aria-roledescription="axis" aria-label="Y-axis titled 'Price' for a linear scale with values from 0 to 1,800"><g transform="translate(0.5,0.5)"><path class="background" aria-hidden="true" d="M0,0h0v0h0Z" pointer-events="none"/><g><g class="mark-rule role-axis-tick" pointer-events="none"><line transform="translate(0,200)" x2="-5" y2="0" stroke="#888" stroke-width="1" opacity="1"/><line transform="translate(0,144)" x2="-5" y2="0" stroke="#888" stroke-width="1" opacity="1"/><line transform="translate(0,89)" x2="-5" y2="0" stroke="#888" stroke-width="1" opacity="1"/><line transform="translate(0,33)" x2="-5" y2="0" stroke="#888" stroke-width="1" opacity="1"/></g><g class="mark-text role-axis-label" pointer-events="none"><text text-anchor="end" transform="translate(-7,203)" font-family="Liberation Mono" font-size="10px" fill="#000" opacity="1">0</text><text text-anchor="end" transform="translate(-7,147.44444444444443)" font-family="Liberation Mono" font-size="10px" fill="#000" opacity="1">500</text><text text-anchor="end" transform="translate(-7,91.88888888888889)" font-family="Liberation Mono" font-size="10px" fill="#000" opacity="1">1,000</text><text text-anchor="end" transform="translate(-7,36.33333333333333)" font-family="Liberation Mono" font-size="10px" fill="#000" opacity="1">1,500</text></g><g class="mark-rule role-axis-domain" pointer-events="none"><line transform="translate(0,200)" x2="0" y2="-200" stroke="#888" stroke-width="1" opacity="1"/></g><g class="mark-text role-axis-title" pointer-events="none"><text text-anchor="middle" transform="translate(-51,100) rotate(-90) translate(0,-2)" font-family="Liberation Mono" font-size="11px" font-weight="bold" fill="#000" opacity="1">Price</text></g></g><path class="foreground" aria-hidden="true" d="" pointer-events="none" display="none"/></g></g><g class="mark-group role-scope pathgroup" role="graphics-object" aria-roledescription="group mark container"><g transform="translate(0,0)"><path class="background" aria-hidden="true" d="M0,0h200v200h-200Z"/><g><g class="mark-line role-mark marks" role="graphics-object" aria-roledescription="line mark container"><path aria-label="Time: Aug 14, 2025; Price: 899; identifier: escape-city-disc-1-2024" role="graphics-symbol" aria-roledescription="line mark" d="M0,100.111L0.037,100.111L0.067,100.111L0.895,100.111L1.554,100.111L2.292,100.111L3.808,100.111L4.552,100.111L5.374,100.111L6.048,100.111L6.783,100.111L8.287,100.111L9.04,100.111L9.838,100.111L10.533,100.111L11.27,100.111L12.798,100.111L13.532,100.111L14.334,100.111L15.03,100.111L15.769,100.111L17.304,100.111L18.042,100.111L18.87,100.111L19.161,100.111L19.538,100.111L20.259,100.111L21.764,100.111L22.525,100.111L23.323,100.111L24.02,100.111L24.751,100.111L26.259,100.111L27.012,100.111L27.843,100.111L28.179,100.111L28.512,100.111L29.249,100.111L30.75,100.111L31.51,100.111L32.311,100.111L33.008,100.111L33.741,100.111L35.245,100.111L36.002,100.111L36.803,100.111L37.497,100.111L38.232,100.111L39.735,100.111L40.488,100.111L41.283,100.111L41.979,100.111L42.721,100.111L44.234,100.111L44.979,100.111L45.779,100.111L46.478,100.111L47.216,100.111L48.734,100.111L49.493,100.111L50.312,100.111L50.983,100.111L51.715,100.111L53.221,100.111L53.983,100.111L55.473,100.111L56.204,100.111L57.709,100.111L58.468,100.111L58.762,100.111L59.268,100.111L59.769,100.111L59.966,100.111L60.701,100.111L62.201,100.111L62.963,100.111L63.764,100.111L64.459,100.111L65.193,100.111L66.695,100.111L67.454,100.111L68.252,100.111L68.95,100.111L69.684,100.111L71.184,100.111L71.937,100.111L72.732,100.111L73.433,100.111L74.139,100.111L74.175,100.111L75.679,100.111L76.159,100.111L76.429,100.111L77.228,100.111L77.929,100.111L78.67,100.111L80.187,100.111L80.943,100.111L81.74,100.111L82.428,100.111L83.162,100.111L84.674,100.111L85.434,100.111L86.236,100.111L86.925,100.111L87.659,100.111L89.162,100.111L89.92,100.111L90.72,100.111L91.416,100.111L92.151,100.111L93.654,100.111L94.415,100.111L95.21,100.111L95.913,100.111L96.644,100.111L98.15,100.111L98.908,100.111L99.706,100.111L100.398,100.111L101.139,100.111L102.638,100.111L103.024,100.111L103.388,100.111L104.181,100.111L104.884,100.111L105.63,100.111L107.131,100.111L107.881,100.111L108.677,100.111L109.379,100.111L110.124,100.111L111.631,100.111L112.396,100.111L113.198,100.111L113.888,100.111L114.624,100.111L116.124,100.111L116.888,100.111L117.716,100.111L118.384,100.111L119.112,100.111L120.611,100.111L121.377,100.111L122.174,100.111L122.871,100.111L123.608,100.111L125.111,100.111L125.869,100.111L126.666,100.111L127.356,100.111L128.098,100.111L129.601,100.111L130.361,100.111L131.157,100.111L131.852,100.111L132.591,100.111L134.092,100.111L134.844,100.111L135.637,100.111L136.336,100.111L137.085,100.111L138.587,100.111L139.338,100.111L140.128,100.111L140.829,100.111L141.579,100.111L143.088,100.111L143.845,100.111L144.648,100.111L145.341,100.111L146.075,100.111L147.578,100.111L148.343,100.111L149.141,100.111L149.832,100.111L150.57,100.111L152.073,100.111L152.833,100.111L153.635,100.111L154.327,100.111L155.063,100.111L156.566,100.111L157.325,100.111L158.127,100.111L158.818,100.111L159.557,100.111L161.06,100.111L161.819,100.111L162.619,100.111L163.314,100.111L164.048,100.111L165.55,100.111L166.304,100.111L167.099,100.111L167.794,100.111L168.54,100.111L170.045,100.111L170.794,100.111L171.591,100.111L172.292,100.111L173.036,100.111L174.541,100.111L175.306,100.111L176.106,100.111L176.788,100.111L177.533,100.111L179.033,100.111L179.796,100.111L180.596,100.111L181.292,100.111L182.026,100.111L183.529,100.111L184.292,100.111L185.091,100.111L185.789,100.111L186.517,100.111L188.023,100.111L188.787,100.111L189.588,100.111L190.281,100.111L191.01,100.111L192.514,100.111L193.278,100.111L194.076,100.111L194.771,100.111L195.504,100.111L197.007,100.111L197.756,100.111L198.552,100.111L199.252,100.111L199.998,100.111" stroke="#4c78a8" stroke-width="2"/></g></g><path class="foreground" aria-hidden="true" d="" display="none"/></g><g transform="translate(0,0)"><path class="background" aria-hidden="true" d="M0,0h200v200h-200Z"/><g><g class="mark-line role-mark marks" role="graphics-object" aria-roledescription="line mark container"><path aria-label="Time: Aug 14, 2025; Price: 999; identifier: roam-2" role="graphics-symbol" aria-roledescription="line mark" d="M0,89L0.037,89L0.067,89L0.895,89L1.554,89L2.293,89L3.808,89L4.552,89L5.374,89L6.048,89L6.783,89L8.287,89L9.04,89L9.838,89L10.533,89L11.277,89L12.798,89L13.532,89L14.334,89L15.03,89L15.769,89L17.305,89L18.043,89L18.87,89L19.161,89L19.538,89L20.259,89L21.764,89L22.525,89L23.323,89L24.02,89L24.751,89L26.259,89L27.013,89L27.843,89L28.179,89L28.512,89L29.25,89L30.75,89L31.51,89L32.311,89L33.009,89L33.741,89L35.245,89L36.002,89L36.803,89L37.498,89L38.232,89L39.735,89L40.489,89L41.283,89L41.979,89L42.721,89L44.235,89L44.979,89L45.779,89L46.479,89L47.216,89L48.734,89L49.493,89L50.313,89L50.984,89L51.715,89L53.221,89L53.984,89L55.473,89L56.204,89L57.709,89L58.468,89L58.763,89L59.269,89L59.77,89L59.966,89L60.701,89L62.202,89L62.964,89L63.764,89L64.459,89L65.193,89L66.696,89L67.454,89L68.252,89L68.951,89L69.684,89L71.184,89L71.937,89L72.732,89L73.433,89L74.14,89L74.175,89L75.68,89L76.16,89L76.429,89L77.228,89L77.929,89L78.67,89L80.188,89L80.943,89L81.74,89L82.429,89L83.163,89L84.674,89L85.434,89L86.237,89L86.925,89L87.659,89L89.162,89L89.92,89L90.721,89L91.417,89L92.151,89L93.654,89L94.416,89L95.21,89L95.913,89L96.644,89L98.15,89L98.908,89L99.706,89L100.398,89L101.139,89L102.639,89L103.024,89L103.388,89L104.181,89L104.885,89L105.63,89L107.131,89L107.881,89L108.677,89L109.379,89L110.124,89L111.632,89L112.396,89L113.198,89L113.888,89L114.624,89L116.124,89L116.888,89L117.717,89L118.385,89L119.113,89L120.611,89L121.377,89L122.174,89L122.871,89L123.608,89L125.111,89L125.87,89L126.666,89L127.356,89L128.098,89L129.601,89L130.361,89L131.157,89L131.852,89L132.591,89L134.092,89L134.844,89L135.638,89L136.337,89L137.085,89L138.587,89L139.338,89L140.128,89L140.829,89L141.579,89L143.088,89L143.846,89L144.649,89L145.341,89L146.076,89L147.578,89L148.343,89L149.141,89L149.833,89L150.57,89L152.073,89L152.833,89L153.635,89L154.327,89L155.063,89L156.566,89L157.325,89L158.127,89L158.818,89L159.557,89L161.06,89L161.819,89L162.619,89L163.315,89L164.048,89L165.55,89L166.305,89L167.099,89L167.794,89L168.54,89L170.045,89L170.794,89L171.591,89L172.292,89L173.036,89L174.542,89L175.307,89L176.106,89L176.789,89L177.534,89L179.034,89L179.796,89L180.596,89L181.292,89L182.027,89L183.529,89L184.292,89L185.091,89L185.789,89L186.517,89L188.023,89L188.787,89L189.588,89L190.282,89L191.01,89L192.514,89L193.278,89L194.076,89L194.771,89L195.504,89L197.007,89L197.756,89L198.552,89L199.253,89L199.998,89" stroke="#ff9da6" stroke-width="2"/></g></g><path class="foreground" aria-hidden="true" d="" display="none"/></g><g transform="translate(0,0)"><path class="background" aria-hidden="true" d="M0,0h200v200h-200Z"/><g><g class="mark-line role-mark marks" role="graphics-object" aria-roledescription="line mark container"><path aria-label="Time: Aug 14, 2025; Price: 999; identifier: fastroad-sl-3-2022" role="graphics-symbol" aria-roledescription="line mark" d="M0,89L0.037,89L0.067,89L0.896,89L1.554,89L2.293,89L3.808,89L4.552,89L5.374,89L6.048,89L6.783,89L8.287,89L9.04,89L9.838,89L10.533,89L11.277,89L12.798,89L13.532,89L14.334,89L15.03,89L15.77,89L17.305,89L18.043,89L18.87,89L19.161,89L19.538,89L20.259,89L21.764,89L22.525,89L23.323,89L24.02,89L24.751,89L26.259,89L27.013,89L27.843,89L28.18,89L28.512,89L29.25,89L30.75,89L31.51,89L32.312,89L33.009,89L33.741,89L35.245,89L36.002,89L36.803,89L37.498,89L38.232,89L39.736,89L40.489,89L41.283,89L41.98,89L42.721,89L44.235,89L44.979,89L45.779,89L46.479,89L47.216,89L48.735,89L49.493,89L50.313,89L50.984,89L51.715,89L53.221,89L53.984,89L55.473,89L56.204,89L57.709,89L58.468,89L58.763,89L59.269,89L59.77,89L59.966,89L60.701,89L62.202,89L62.964,89L63.764,89L64.459,89L65.193,89L66.696,89L67.454,89L68.252,89L68.951,89L69.684,89L71.184,89L71.937,89L72.732,89L73.433,89L74.14,89L74.175,89L75.68,89L76.16,89L76.429,89L77.228,89L77.929,89L78.67,89L80.188,89L80.943,89L81.74,89L82.429,89L83.163,89L84.674,89L85.434,89L86.237,89L86.925,89L87.659,89L89.162,89L89.92,89L90.721,89L91.417,89L92.152,89L93.654,89L94.416,89L95.21,89L95.913,89L96.644,89L98.15,89L98.908,89L99.706,89L100.399,89L101.139,89L102.639,89L103.024,89L103.389,89L104.181,89L104.885,89L105.63,89L107.131,89L107.882,89L108.678,89L109.379,89L110.124,89L111.632,89L112.396,89L113.198,89L113.888,89L114.624,89L116.124,89L116.888,89L117.717,89L118.385,89L119.113,89L120.611,89L121.378,89L122.174,89L122.871,89L123.608,89L125.111,89L125.87,89L126.666,89L127.356,89L128.098,89L129.601,89L130.361,89L131.157,89L131.852,89L132.592,89L134.092,89L134.844,89L135.638,89L136.337,89L137.086,89L138.587,89L139.338,89L140.128,89L140.829,89L141.579,89L143.088,89L143.846,89L144.649,89L145.341,89L146.076,89L147.578,89L148.343,89L149.141,89L149.833,89L150.57,89L152.073,89L152.833,89L153.635,89L154.328,89L155.063,89L156.566,89L157.326,89L158.127,89L158.819,89L159.557,89L161.06,89L161.819,89L162.619,89L163.315,89L164.048,89L165.55,89L166.305,89L167.099,89L167.794,89L168.54,89L170.045,89L170.794,89L171.592,89L172.292,89L173.036,89L174.542,89L175.307,89L176.106,89L176.789,89L177.534,89L179.034,89L179.796,89L180.596,89L181.292,89L182.027,89L183.529,89L184.292,89L185.091,89L185.789,89L186.517,89L188.023,89L188.787,89L189.588,89L190.282,89L191.01,89L192.515,89L193.278,89L194.077,89L194.771,89L195.504,89L197.007,89L197.756,89L198.552,89L199.253,89L199.998,89" stroke="#9d755d" stroke-width="2"/></g></g><path class="foreground" aria-hidden="true" d="" display="none"/></g><g transform="translate(0,0)"><path class="background" aria-hidden="true" d="M0,0h200v200h-200Z"/><g><g class="mark-line role-mark marks" role="graphics-object" aria-roledescription="line mark container"><path aria-label="Time: Aug 14, 2025; Price: 1199; identifier: fastroad-ar-2" role="graphics-symbol" aria-roledescription="line mark" d="M0,66.778L0.038,66.778L0.067,66.778L0.896,66.778L1.554,66.778L2.293,66.778L3.808,66.778L4.553,66.778L5.374,66.778L6.048,66.778L6.783,66.778L8.288,66.778L9.041,66.778L9.838,66.778L10.533,66.778L11.281,66.778L12.798,66.778L13.533,66.778L14.334,66.778L15.03,66.778L15.77,66.778L17.305,66.778L18.043,66.778L18.871,66.778L19.161,66.778L19.538,66.778L20.259,66.778L21.764,66.778L22.525,66.778L23.323,66.778L24.02,66.778L24.751,66.778L26.259,66.778L27.013,66.778L27.843,66.778L28.18,66.778L28.512,66.778L29.25,66.778L30.75,66.778L31.51,66.778L32.312,66.778L33.009,66.778L33.741,66.778L35.245,66.778L36.002,66.778L36.804,66.778L37.498,66.778L38.232,66.778L39.736,66.778L40.489,66.778L41.283,66.778L41.98,66.778L42.721,66.778L44.235,66.778L44.98,66.778L45.779,66.778L46.479,66.778L47.216,66.778L48.735,66.778L49.493,66.778L50.313,66.778L50.984,66.778L51.715,66.778L53.221,66.778L53.984,66.778L55.473,66.778L56.204,66.778L57.709,66.778L58.468,66.778L58.763,66.778L59.269,66.778L59.77,66.778L59.966,66.778L60.701,66.778L62.202,66.778L62.964,66.778L63.764,66.778L64.459,66.778L65.193,66.778L66.696,66.778L67.454,66.778L68.253,66.778L68.951,66.778L69.684,66.778L71.184,66.778L71.937,66.778L72.732,66.778L73.433,66.778L74.14,66.778L74.175,66.778L75.68,66.778L76.16,66.778L76.429,66.778L77.228,66.778L77.929,66.778L78.67,66.778L80.188,66.778L80.943,66.778L81.741,66.778L82.429,66.778L83.163,66.778L84.674,66.778L85.434,66.778L86.237,66.778L86.925,66.778L87.66,66.778L89.162,66.778L89.92,66.778L90.721,66.778L91.417,66.778L92.152,66.778L93.655,66.778L94.416,66.778L95.21,66.778L95.914,66.778L96.644,66.778L98.15,66.778L98.908,66.778L99.706,66.778L100.399,66.778L101.139,66.778L102.639,66.778L103.024,66.778L103.389,66.778L104.181,66.778L104.885,66.778L105.631,66.778L107.131,66.778L107.882,66.778L108.678,66.778L109.379,66.778L110.124,66.778L111.633,66.778L112.397,66.778L113.198,66.778L113.888,66.778L114.624,66.778L116.124,66.778L116.888,66.778L117.717,66.778L118.385,66.778L119.113,66.778L120.612,66.778L121.378,66.778L122.174,66.778L122.871,66.778L123.608,66.778L125.111,66.778L125.87,66.778L126.666,66.778L127.356,66.778L128.098,66.778L129.601,66.778L130.362,66.778L131.158,66.778L131.852,66.778L132.592,66.778L134.092,66.778L134.844,66.778L135.638,66.778L136.337,66.778L137.086,66.778L138.587,66.778L139.338,66.778L140.128,66.778L140.829,66.778L141.579,66.778L143.088,66.778L143.846,66.778L144.649,66.778L145.342,66.778L146.076,66.778L147.578,66.778L148.343,66.778L149.142,66.778L149.833,66.778L150.57,66.778L152.073,66.778L152.833,66.778L153.635,66.778L154.328,66.778L155.063,66.778L156.566,66.778L157.326,66.778L158.127,66.778L158.819,66.778L159.557,66.778L161.06,66.778L161.819,66.778L162.619,66.778L163.315,66.778L164.048,66.778L165.55,66.778L166.305,66.778L167.099,66.778L167.795,66.778L168.54,66.778L170.046,66.778L170.795,66.778L171.592,66.778L172.292,66.778L173.036,66.778L174.542,66.778L175.307,66.778L176.106,66.778L176.789,66.778L177.534,66.778L179.034,66.778L179.797,66.778L180.596,66.778L181.293,66.778L182.027,66.778L183.529,66.778L184.292,66.778L185.091,66.778L185.789,66.778L186.517,66.778L188.023,66.778L188.787,66.778L189.588,66.778L190.282,66.778L191.01,66.778L192.515,66.778L193.278,66.778L194.077,66.778L194.771,66.778L195.504,66.778L197.007,66.778L197.757,66.778L198.552,66.778L199.253,66.778L199.998,66.778" stroke="#54a24b" stroke-width="2"/></g></g><path class="foreground" aria-hidden="true" d="" display="none"/></g><g transform="translate(0,0)"><path class="background" aria-hidden="true" d="M0,0h200v200h-200Z"/><g><g class="mark-line role-mark marks" role="graphics-object" aria-roledescription="line mark container"><path aria-label="Time: Aug 18, 2025; Price: 899; identifier: sdrbike-escape-1-city-disc" role="graphics-symbol" aria-roledescription="line mark" d="M19.161,100.111L19.538,100.111L20.259,100.111L21.764,100.111L22.525,100.111L23.323,100.111L24.02,100.111L24.751,100.111L26.26,100.111L27.013,100.111L27.844,100.111L28.18,100.111L28.512,100.111L29.25,100.111L30.751,100.111L31.51,100.111L32.312,100.111L33.009,100.111L33.741,100.111L35.245,100.111L36.002,100.111L36.804,100.111L37.498,100.111L38.232,100.111L39.736,100.111L40.489,100.111L41.283,100.111L41.98,100.111L42.722,100.111L44.235,100.111L44.98,100.111L45.78,100.111L46.479,100.111L47.217,100.111L48.735,100.111L49.493,100.111L50.313,100.111L50.984,100.111L51.715,100.111L53.222,100.111L53.984,100.111L55.473,100.111L56.204,100.111L57.709,100.111L58.468,100.111L58.763,100.111L59.269,100.111L59.77,100.111L59.966,100.111L60.701,100.111L62.202,100.111L62.964,100.111L63.764,100.111L64.459,100.111L65.193,100.111L66.696,100.111L67.455,100.111L68.253,100.111L68.951,100.111L69.684,100.111L71.184,100.111L71.937,100.111L72.733,100.111L73.434,100.111L74.14,100.111L74.175,100.111L75.68,100.111L76.16,100.111L76.429,100.111L77.228,100.111L77.93,100.111L78.67,100.111L80.188,100.111L80.943,100.111L81.741,100.111L82.429,100.111L83.163,100.111L84.674,100.111L85.434,100.111L86.237,100.111L86.925,100.111L87.66,100.111L89.162,100.111L89.921,100.111L90.721,100.111L91.417,100.111L92.152,100.111L93.655,100.111L94.416,100.111L95.211,100.111L95.914,100.111L96.644,100.111L98.15,100.111L98.908,100.111L99.707,100.111L100.399,100.111L101.14,100.111L102.639,100.111L103.024,100.111L103.389,100.111L104.181,100.111L104.885,100.111L105.631,100.111L107.131,100.111L107.882,100.111L108.678,100.111L109.379,100.111L110.124,100.111L111.633,100.111L112.397,100.111L113.198,100.111L113.889,100.111L114.624,100.111L116.124,100.111L116.889,100.111L117.717,100.111L118.385,100.111L119.113,100.111L120.612,100.111L121.378,100.111L122.174,100.111L122.872,100.111L123.608,100.111L125.111,100.111L125.87,100.111L126.666,100.111L127.356,100.111L128.098,100.111L129.601,100.111L130.362,100.111L131.158,100.111L131.852,100.111L132.592,100.111L134.092,100.111L134.845,100.111L135.638,100.111L136.337,100.111L137.086,100.111L138.587,100.111L139.338,100.111L140.128,100.111L140.829,100.111L141.579,100.111L143.088,100.111L143.846,100.111L144.649,100.111L145.342,100.111L146.076,100.111L147.578,100.111L148.343,100.111L149.142,100.111L149.833,100.111L150.57,100.111L152.074,100.111L152.833,100.111L153.635,100.111L154.328,100.111L155.063,100.111L156.566,100.111L157.326,100.111L158.128,100.111L158.819,100.111L159.557,100.111L161.06,100.111L161.819,100.111L162.62,100.111L163.315,100.111L164.048,100.111L165.551,100.111L166.305,100.111L167.1,100.111L167.795,100.111L168.541,100.111L170.046,100.111L170.795,100.111L171.592,100.111L172.292,100.111L173.036,100.111L174.542,100.111L175.307,100.111L176.107,100.111L176.789,100.111L177.534,100.111L179.034,100.111L179.797,100.111L180.596,100.111L181.293,100.111L182.027,100.111L183.529,100.111L184.292,100.111L185.091,100.111L185.79,100.111L186.517,100.111L188.023,100.111L188.787,100.111L189.588,100.111L190.282,100.111L191.01,100.111L192.515,100.111L193.278,100.111L194.077,100.111L194.771,100.111L195.504,100.111L197.007,100.111L197.757,100.111L198.552,100.111L199.253,100.111L199.998,100.111" stroke="#f58518" stroke-width="2"/></g></g><path class="foreground" aria-hidden="true" d="" display="none"/></g><g transform="translate(0,0)"><path class="background" aria-hidden="true" d="M0,0h200v200h-200Z"/><g><g class="mark-line role-mark marks" role="graphics-object" aria-roledescription="line mark container"><path aria-label="Time: Aug 20, 2025; Price: 899; identifier: roam-disc-2-2024" role="graphics-symbol" aria-roledescription="line mark" d="M28.179,100.111L28.512,100.111L29.25,100.111L30.75,100.111L31.51,100.111L32.311,100.111L33.009,100.111L33.741,100.111L35.245,100.111L36.002,100.111L36.803,100.111L37.498,100.111L38.232,100.111L39.735,100.111L40.489,100.111L41.283,100.111L41.979,100.111L42.721,100.111L44.234,100.111L44.979,100.111L45.779,100.111L46.479,100.111L47.216,100.111L48.734,100.111L49.493,100.111L50.313,100.111L50.983,100.111L51.715,100.111L53.221,100.111L53.983,100.111L55.473,100.111L56.204,100.111L57.709,100.111L58.468,100.111L58.763,100.111L59.268,100.111L59.77,100.111L59.966,100.111L60.701,100.111L62.202,100.111L62.963,100.111L63.764,100.111L64.459,100.111L65.193,100.111L66.695,100.111L67.454,100.111L68.252,100.111L68.95,100.111L69.684,100.111L71.184,100.111L71.937,100.111L72.732,100.111L73.433,100.111L74.14,100.111L74.175,100.111L75.68,100.111L76.16,100.111L76.429,100.111L77.228,100.111L77.929,100.111L78.67,100.111L80.188,100.111L80.943,100.111L81.74,100.111L82.428,100.111L83.163,100.111L84.674,100.111L85.434,100.111L86.237,100.111L86.925,100.111L87.659,100.111L89.162,100.111L89.92,100.111L90.721,100.111L91.416,100.111L92.151,100.111L93.654,100.111L94.415,100.111L95.21,100.111L95.913,100.111L96.644,100.111L98.15,100.111L98.908,100.111L99.706,100.111L100.398,100.111L101.139,100.111L102.639,100.111L103.024,100.111L103.388,100.111L104.181,100.111L104.885,100.111L105.63,100.111L107.131,100.111L107.881,100.111L108.677,100.111L109.379,100.111L110.124,100.111L111.632,100.111L112.396,100.111L113.198,100.111L113.888,100.111L114.624,100.111L116.124,100.111L116.888,100.111L117.717,100.111L118.385,100.111L119.112,100.111L120.611,100.111L121.377,100.111L122.174,100.111L122.871,100.111L123.608,100.111L125.111,100.111L125.869,100.111L126.666,100.111L127.356,100.111L128.098,100.111L129.601,100.111L130.361,100.111L131.157,100.111L131.852,100.111L132.591,100.111L134.092,100.111L134.844,100.111L135.638,100.111L136.337,100.111L137.085,100.111L138.587,100.111L139.338,100.111L140.128,100.111L140.829,100.111L141.579,100.111L143.088,100.111L143.846,100.111L144.649,100.111L145.341,100.111L146.076,100.111L147.578,100.111L148.343,100.111L149.141,100.111L149.833,100.111L150.57,100.111L152.073,100.111L152.833,100.111L153.635,100.111L154.327,100.111L155.063,100.111L156.566,100.111L157.325,100.111L158.127,100.111L158.818,100.111L159.557,100.111L161.06,100.111L161.819,100.111L162.619,100.111L163.315,100.111L164.048,100.111L165.55,100.111L166.305,100.111L167.099,100.111L167.794,100.111L168.54,100.111L170.045,100.111L170.794,100.111L171.591,100.111L172.292,100.111L173.036,100.111L174.542,100.111L175.307,100.111L176.106,100.111L176.789,100.111L177.533,100.111L179.034,100.111L179.796,100.111L180.596,100.111L181.292,100.111L182.026,100.111L183.529,100.111L184.292,100.111L185.091,100.111L185.789,100.111L186.517,100.111L188.023,100.111L188.787,100.111L189.588,100.111L190.281,100.111L191.01,100.111L192.514,100.111L193.278,100.111L194.076,100.111L194.771,100.111L195.504,100.111L197.007,100.111L197.756,100.111L198.552,100.111L199.252,100.111L199.998,100.111" stroke="#e45756" stroke-width="2"/></g></g><path class="foreground" aria-hidden="true" d="" display="none"/></g><g transform="translate(0,0)"><path class="background" aria-hidden="true" d="M0,0h200v200h-200Z"/><g><g class="mark-line role-mark marks" role="graphics-object" aria-roledescription="line mark container"><path aria-label="Time: Aug 20, 2025; Price: 1199; identifier: thrive-2" role="graphics-symbol" aria-roledescription="line mark" d="M28.18,66.778L28.513,66.778L29.25,66.778L30.751,66.778L31.51,66.778L32.312,66.778L33.009,66.778L33.741,66.778L35.246,66.778L36.003,66.778L36.804,66.778L37.498,66.778L38.233,66.778L39.736,66.778L40.489,66.778L41.283,66.778L41.98,66.778L42.722,66.778L44.235,66.778L44.98,66.778L45.78,66.778L46.479,66.778L47.217,66.778L48.735,66.778L49.493,66.778L50.313,66.778L50.984,66.778L51.716,66.778L53.222,66.778L53.984,66.778L55.473,66.778L56.204,66.778L57.709,66.778L58.469,66.778L58.764,66.778L59.269,66.778L59.77,66.778L59.966,66.778L60.701,66.778L62.202,66.778L62.964,66.778L63.765,66.778L64.459,66.778L65.193,66.778L66.696,66.778L67.455,66.778L68.253,66.778L68.951,66.778L69.684,66.778L71.185,66.778L71.938,66.778L72.733,66.778L73.434,66.778L74.14,66.778L74.175,66.778L75.68,66.778L76.16,66.778L76.429,66.778L77.228,66.778L77.93,66.778L78.67,66.778L80.188,66.778L80.943,66.778L81.741,66.778L82.429,66.778L83.163,66.778L84.675,66.778L85.434,66.778L86.237,66.778L86.926,66.778L87.66,66.778L89.162,66.778L89.921,66.778L90.721,66.778L91.417,66.778L92.152,66.778L93.655,66.778L94.416,66.778L95.211,66.778L95.914,66.778L96.645,66.778L98.15,66.778L98.909,66.778L99.707,66.778L100.399,66.778L101.14,66.778L102.639,66.778L103.025,66.778L103.389,66.778L104.182,66.778L104.885,66.778L105.631,66.778L107.131,66.778L107.882,66.778L108.678,66.778L109.379,66.778L110.124,66.778L111.633,66.778L112.397,66.778L113.198,66.778L113.889,66.778L114.625,66.778L116.124,66.778L116.889,66.778L117.717,66.778L118.385,66.778L119.113,66.778L120.612,66.778L121.378,66.778L122.175,66.778L122.872,66.778L123.609,66.778L125.111,66.778L125.87,66.778L126.666,66.778L127.356,66.778L128.098,66.778L129.601,66.778L130.362,66.778L131.158,66.778L131.852,66.778L132.592,66.778L134.092,66.778L134.845,66.778L135.638,66.778L136.337,66.778L137.086,66.778L138.588,66.778L139.339,66.778L140.129,66.778L140.83,66.778L141.58,66.778L143.089,66.778L143.846,66.778L144.649,66.778L145.342,66.778L146.076,66.778L147.578,66.778L148.344,66.778L149.142,66.778L149.833,66.778L150.571,66.778L152.074,66.778L152.833,66.778L153.636,66.778L154.328,66.778L155.063,66.778L156.567,66.778L157.326,66.778L158.128,66.778L158.819,66.778L159.558,66.778L161.06,66.778L161.819,66.778L162.62,66.778L163.315,66.778L164.048,66.778L165.551,66.778L166.305,66.778L167.1,66.778L167.795,66.778L168.541,66.778L170.046,66.778L170.795,66.778L171.592,66.778L172.292,66.778L173.036,66.778L174.542,66.778L175.307,66.778L176.107,66.778L176.789,66.778L177.534,66.778L179.034,66.778L179.797,66.778L180.597,66.778L181.293,66.778L182.027,66.778L183.529,66.778L184.292,66.778L185.091,66.778L185.79,66.778L186.517,66.778L188.023,66.778L188.787,66.778L189.589,66.778L190.282,66.778L191.01,66.778L192.515,66.778L193.278,66.778L194.077,66.778L194.771,66.778L195.504,66.778L197.008,66.778L197.757,66.778L198.552,66.778L199.253,66.778L199.998,66.778" stroke="#eeca3b" stroke-width="2"/></g></g><path class="foreground" aria-hidden="true" d="" display="none"/></g><g transform="translate(0,0)"><path class="background" aria-hidden="true" d="M0,0h200v200h-200Z"/><g><g class="mark-line role-mark marks" role="graphics-object" aria-roledescription="line mark container"><path aria-label="Time: Aug 20, 2025; Price: 999; identifier: rove-2" role="graphics-symbol" aria-roledescription="line mark" d="M28.18,89L28.513,89L29.25,89L30.751,89L31.51,89L32.312,89L33.009,89L33.741,89L35.246,89L36.003,89L36.804,89L37.498,89L38.233,89L39.736,89L40.489,89L41.284,89L41.98,89L42.722,89L44.235,89L44.98,89L45.78,89L46.479,89L47.217,89L48.735,89L49.493,89L50.313,89L50.984,89L51.716,89L53.222,89L53.984,89L55.474,89L56.205,89L57.709,89L58.469,89L58.764,89L59.269,89L59.77,89L59.966,89L60.702,89L62.202,89L62.964,89L63.765,89L64.459,89L65.193,89L66.696,89L67.455,89L68.253,89L68.951,89L69.685,89L74.14,111.222L74.175,111.222L75.68,111.222L76.16,111.222L76.429,111.222L77.229,111.222L77.93,111.222L78.671,111.222L80.188,111.222L80.944,111.222L81.741,111.222L82.429,111.222L83.163,111.222L84.675,111.222L85.434,111.222L86.237,111.222L86.926,111.222L87.66,111.222L89.162,111.222L89.921,111.222L90.721,111.222L91.417,111.222L92.152,111.222L93.655,111.222L94.416,111.222L95.211,111.222L95.914,111.222L96.645,111.222L98.15,111.222L98.909,111.222L99.707,111.222L100.399,111.222L101.14,111.222L102.639,111.222L103.025,111.222L103.389,111.222L104.182,111.222L104.885,111.222L105.631,111.222L107.131,111.222L107.882,111.222L108.678,111.222L109.379,111.222L110.124,111.222L111.633,111.222L112.397,111.222L113.198,111.222L113.889,111.222L114.625,111.222L116.125,111.222L116.889,111.222L117.717,111.222L118.385,111.222L119.113,111.222L120.612,111.222L121.378,111.222L122.175,111.222L122.872,111.222L123.609,111.222L125.111,111.222L125.87,111.222L126.666,111.222L127.357,111.222L128.099,111.222L129.602,111.222L130.362,111.222L131.158,111.222L131.852,111.222L132.592,111.222L134.092,111.222L134.845,111.222L135.638,111.222L136.337,111.222L137.086,111.222L138.588,111.222L139.339,111.222L140.129,111.222L140.83,111.222L141.58,111.222L143.089,111.222L143.846,111.222L144.649,111.222L145.342,111.222L146.077,111.222L147.579,111.222L148.344,111.222L149.142,111.222L149.833,111.222L150.571,111.222L152.074,111.222L152.833,111.222L153.636,111.222L154.328,111.222L155.063,111.222L156.567,111.222L157.326,111.222L158.128,111.222L158.819,111.222L159.558,111.222L161.06,111.222L161.82,111.222L162.62,111.222L163.315,111.222L164.048,111.222L165.551,111.222L166.305,111.222L167.1,111.222L167.795,111.222L168.541,111.222L170.046,111.222L170.795,111.222L171.592,111.222L172.292,111.222L173.036,111.222L174.542,111.222L175.307,111.222L176.107,111.222L176.789,111.222L177.534,111.222L179.034,111.222L179.797,111.222L180.597,111.222L181.293,111.222L182.027,111.222L183.529,111.222L184.292,111.222L185.091,111.222L185.79,111.222L186.518,111.222L188.023,111.222L188.787,111.222L189.589,111.222L190.282,111.222L191.01,111.222L192.515,111.222L193.279,111.222L194.077,111.222L194.771,111.222L195.505,111.222L197.008,111.222L197.757,111.222L198.552,111.222L199.253,111.222L199.999,111.222" stroke="#72b7b2" stroke-width="2"/></g></g><path class="foreground" aria-hidden="true" d="" display="none"/></g><g transform="translate(0,0)"><path class="background" aria-hidden="true" d="M0,0h200v200h-200Z"/><g><g class="mark-line role-mark marks" role="graphics-object" aria-roledescription="line mark container"><path aria-label="Time: Aug 27, 2025; Price: 1199; identifier: allure-rs-1-2023" role="graphics-symbol" aria-roledescription="line mark" d="M58.764,66.778L59.269,66.778L59.77,66.778L59.966,66.778L60.702,66.778L62.202,66.778L62.964,66.778L63.765,66.778L64.459,66.778L65.193,66.778L66.696,66.778L67.455,66.778L68.253,66.778L68.951,66.778L69.685,66.778L71.185,66.778L71.938,66.778L72.733,66.778L73.434,66.778L74.141,66.778L74.175,66.778L75.68,66.778L76.16,66.778L76.43,66.778L77.229,66.778L77.93,66.778L78.671,66.778L80.188,66.778L80.944,66.778L81.741,66.778L82.429,66.778L83.163,66.778L84.675,66.778L85.434,66.778L86.238,66.778L86.926,66.778L87.66,66.778L89.163,66.778L89.921,66.778L90.721,66.778L91.417,66.778L92.152,66.778L93.655,66.778L94.416,66.778L95.211,66.778L95.914,66.778L96.645,66.778L98.15,66.778L98.909,66.778L99.707,66.778L100.399,66.778L101.14,66.778L102.639,66.778L103.025,66.778L103.389,66.778L104.182,66.778L104.885,66.778L105.631,66.778L107.131,66.778L107.882,66.778L108.678,66.778L109.379,66.778L110.124,66.778L111.633,66.778L112.397,66.778L113.199,66.778L113.889,66.778L114.625,66.778L116.125,66.778L116.889,66.778L117.717,66.778L118.385,66.778L119.113,66.778L120.612,66.778L121.378,66.778L122.175,66.778L122.872,66.778L123.609,66.778L125.112,66.778L125.87,66.778L126.667,66.778L127.357,66.778L128.099,66.778L129.602,66.778L130.362,66.778L131.158,66.778L131.852,66.778L132.592,66.778L134.093,66.778L134.845,66.778L135.638,66.778L136.337,66.778L137.086,66.778L138.588,66.778L139.339,66.778L140.129,66.778L140.83,66.778L141.58,66.778L143.089,66.778L143.846,66.778L144.65,66.778L145.342,66.778L146.077,66.778L147.579,66.778L148.344,66.778L149.142,66.778L149.833,66.778L150.571,66.778L152.074,66.778L152.834,66.778L153.636,66.778L154.328,66.778L155.064,66.778L156.567,66.778L157.326,66.778L158.128,66.778L158.819,66.778L159.558,66.778L161.061,66.778L161.82,66.778L162.62,66.778L163.315,66.778L164.048,66.778L165.551,66.778L166.305,66.778L167.1,66.778L167.795,66.778L168.541,66.778L170.046,66.778L170.795,66.778L171.592,66.778L172.292,66.778L173.037,66.778L174.542,66.778L175.307,66.778L176.107,66.778L176.789,66.778L177.534,66.778L179.034,66.778L179.797,66.778L180.597,66.778L181.293,66.778L182.027,66.778L183.53,66.778L184.292,66.778L185.091,66.778L185.79,66.778L186.518,66.778L188.023,66.778L188.787,66.778L189.589,66.778L190.282,66.778L191.01,66.778L192.515,66.778L193.279,66.778L194.077,66.778L194.771,66.778L195.505,66.778L197.008,66.778L197.757,66.778L198.553,66.778L199.253,66.778L199.999,66.778" stroke="#b279a2" stroke-width="2"/></g></g><path class="foreground" aria-hidden="true" d="" display="none"/></g><g transform="translate(0,0)"><path class="background" aria-hidden="true" d="M0,0h200v200h-200Z"/><g><g class="mark-line role-mark marks" role="graphics-object" aria-roledescription="line mark container"><path aria-label="Time: Aug 27, 2025; Price: 999; identifier: allure-rs-2-2022" role="graphics-symbol" aria-roledescription="line mark" d="M58.765,89L59.269,89L59.77,89L59.967,89L60.702,89L62.202,89L62.964,89L63.765,89L64.459,89L65.194,89L66.696,89L67.455,89L68.253,89L68.951,89L69.685,89L74.141,111.222L74.175,111.222L75.68,111.222L76.16,111.222L76.43,111.222L77.229,111.222L77.93,111.222L78.671,111.222L80.188,111.222L80.944,111.222L81.741,111.222L82.429,111.222L83.164,111.222L84.675,111.222L85.435,111.222L86.238,111.222L86.926,111.222L87.66,111.222L89.163,111.222L89.921,111.222L90.721,111.222L91.417,111.222L92.152,111.222L93.655,111.222L94.416,111.222L95.211,111.222L95.914,111.222L96.645,111.222L98.151,111.222L98.909,111.222L99.707,111.222L100.399,111.222L101.14,111.222L102.639,111.222L103.025,111.222L103.389,111.222L104.182,111.222L104.885,111.222L105.631,111.222L107.132,111.222L107.882,111.222L108.678,111.222L109.379,111.222L110.124,111.222L111.633,111.222L112.397,111.222L113.199,111.222L113.889,111.222L114.625,111.222L116.125,111.222L116.889,111.222L117.718,111.222L118.386,111.222L119.113,111.222L120.612,111.222L121.378,111.222L122.175,111.222L122.872,111.222L123.609,111.222L125.112,111.222L125.87,111.222L126.667,111.222L127.357,111.222L128.099,111.222L129.602,111.222L130.362,111.222L131.158,111.222L131.852,111.222L132.592,111.222L134.093,111.222L134.845,111.222L135.638,111.222L136.338,111.222L137.086,111.222L138.588,111.222L139.339,111.222L140.129,111.222L140.83,111.222L141.58,111.222L143.089,111.222L143.846,111.222L144.65,111.222L145.342,111.222L146.077,111.222L147.579,111.222L148.344,111.222L149.142,111.222L149.834,111.222L150.571,111.222L152.074,111.222L152.834,111.222L153.636,111.222L154.328,111.222L155.064,111.222L156.567,111.222L157.326,111.222L158.128,111.222L158.819,111.222L159.558,111.222L161.061,111.222L161.82,111.222L162.62,111.222L163.315,111.222L164.049,111.222L165.551,111.222L166.305,111.222L167.1,111.222L167.795,111.222L168.541,111.222L170.046,111.222L170.795,111.222L171.592,111.222L172.293,111.222L173.037,111.222L174.542,111.222L175.307,111.222L176.107,111.222L176.789,111.222L177.534,111.222L179.035,111.222L179.797,111.222L180.597,111.222L181.293,111.222L182.027,111.222L183.53,111.222L184.292,111.222L185.092,111.222L185.79,111.222L186.518,111.222L188.023,111.222L188.788,111.222L189.589,111.222L190.282,111.222L191.011,111.222L192.515,111.222L193.279,111.222L194.077,111.222L194.772,111.222L195.505,111.222L197.008,111.222L197.757,111.222L198.553,111.222L199.253,111.222L199.999,111.222" stroke="#54a24b" stroke-width="2"/></g></g><path class="foreground" aria-hidden="true" d="" display="none"/></g><g transform="translate(0,0)"><path class="background" aria-hidden="true" d="M0,0h200v200h-200Z"/><g><g class="mark-line role-mark marks" role="graphics-object" aria-roledescription="line mark container"><path aria-label="Time: Aug 27, 2025; Price: 949; identifier: allure-rs-2-2023" role="graphics-symbol" aria-roledescription="line mark" d="M58.765,94.556L59.269,94.556L59.77,94.556L59.967,94.556L60.702,94.556L62.203,94.556L62.965,94.556L63.765,94.556L64.46,94.556L65.194,94.556L66.696,94.556L67.455,94.556L68.253,94.556L68.951,94.556L69.685,94.556L71.185,94.556L71.938,94.556L72.733,94.556L73.434,94.556L74.141,94.556L74.176,94.556L75.68,94.556L76.16,94.556L76.43,94.556L77.229,94.556L77.93,94.556L78.671,94.556L80.188,94.556L80.944,94.556L81.741,94.556L82.43,94.556L83.164,94.556L84.675,94.556L85.435,94.556L86.238,94.556L86.926,94.556L87.66,94.556L89.163,94.556L89.921,94.556L90.721,94.556L91.417,94.556L92.152,94.556L93.655,94.556L94.416,94.556L95.211,94.556L95.914,94.556L96.645,94.556L98.151,94.556L98.909,94.556L99.707,94.556L100.399,94.556L101.14,94.556L102.639,94.556L103.025,94.556L103.389,94.556L104.182,94.556L104.885,94.556L105.631,94.556L107.132,94.556L107.882,94.556L108.678,94.556L109.379,94.556L110.125,94.556L111.633,94.556L112.397,94.556L113.199,94.556L113.889,94.556L114.625,94.556L116.125,94.556L116.889,94.556L117.718,94.556L118.386,94.556L119.113,94.556L120.612,94.556L121.378,94.556L122.175,94.556L122.872,94.556L123.609,94.556L125.112,94.556L125.87,94.556L126.667,94.556L127.357,94.556L128.099,94.556L129.602,94.556L130.362,94.556L131.158,94.556L131.853,94.556L132.592,94.556L134.093,94.556L134.845,94.556L135.639,94.556L136.338,94.556L137.086,94.556L138.588,94.556L139.339,94.556L140.129,94.556L140.83,94.556L141.58,94.556L143.089,94.556L143.846,94.556L144.65,94.556L145.342,94.556L146.077,94.556L147.579,94.556L148.344,94.556L149.142,94.556L149.834,94.556L150.571,94.556L152.074,94.556L152.834,94.556L153.636,94.556L154.328,94.556L155.064,94.556L156.567,94.556L157.326,94.556L158.128,94.556L158.819,94.556L159.558,94.556L161.061,94.556L161.82,94.556L162.62,94.556L163.315,94.556L164.049,94.556L165.551,94.556L166.305,94.556L167.1,94.556L167.795,94.556L168.541,94.556L170.046,94.556L170.795,94.556L171.592,94.556L172.293,94.556L173.037,94.556L174.542,94.556L175.307,94.556L176.107,94.556L176.789,94.556L177.534,94.556L179.035,94.556L179.797,94.556L180.597,94.556L181.293,94.556L182.027,94.556L183.53,94.556L184.293,94.556L185.092,94.556L185.79,94.556L186.518,94.556L188.024,94.556L188.788,94.556L189.589,94.556L190.282,94.556L191.011,94.556L192.515,94.556L193.279,94.556L194.077,94.556L194.772,94.556L195.505,94.556L197.008,94.556L197.757,94.556L198.553,94.556L199.253,94.556L199.999,94.556" stroke="#bab0ac" stroke-width="2"/></g></g><path class="foreground" aria-hidden="true" d="" display="none"/></g><g transform="translate(0,0)"><path class="background" aria-hidden="true" d="M0,0h200v200h-200Z"/><g><g class="mark-line role-mark marks" role="graphics-object" aria-roledescription="line mark container"><path aria-label="Time: Aug 27, 2025; Price: 999; identifier: allure-rs-2-2024" role="graphics-symbol" aria-roledescription="line mark" d="M58.765,89L59.269,89L59.77,89L59.967,89L60.702,89L62.203,89L62.965,89L63.765,89L64.46,89L65.194,89L66.697,89L67.455,89L68.253,89L68.951,89L69.685,89L74.141,111.222L74.176,111.222L75.681,111.222L76.16,111.222L76.43,111.222L77.229,111.222L77.93,111.222L78.671,111.222L80.189,111.222L80.944,111.222L81.741,111.222L82.43,111.222L83.164,111.222L84.675,111.222L85.435,111.222L86.238,111.222L86.926,111.222L87.66,111.222L89.163,111.222L89.921,111.222L90.722,111.222L91.417,111.222L92.152,111.222L93.655,111.222L94.417,111.222L95.211,111.222L95.914,111.222L96.645,111.222L98.151,111.222L98.909,111.222L99.707,111.222L100.399,111.222L101.14,111.222L102.64,111.222L103.025,111.222L103.39,111.222L104.182,111.222L104.886,111.222L105.631,111.222L107.132,111.222L107.883,111.222L108.678,111.222L109.38,111.222L110.125,111.222L111.633,111.222L112.397,111.222L113.199,111.222L113.889,111.222L114.625,111.222L116.125,111.222L116.889,111.222L117.718,111.222L118.386,111.222L119.114,111.222L120.612,111.222L121.379,111.222L122.175,111.222L122.872,111.222L123.609,111.222L125.112,111.222L125.87,111.222L126.667,111.222L127.357,111.222L128.099,111.222L129.602,111.222L130.363,111.222L131.159,111.222L131.853,111.222L132.592,111.222L134.093,111.222L134.845,111.222L135.639,111.222L136.338,111.222L137.086,111.222L138.588,111.222L139.339,111.222L140.129,111.222L140.83,111.222L141.58,111.222L143.089,111.222L143.847,111.222L144.65,111.222L145.343,111.222L146.077,111.222L147.579,111.222L148.344,111.222L149.142,111.222L149.834,111.222L150.571,111.222L152.074,111.222L152.834,111.222L153.636,111.222L154.328,111.222L155.064,111.222L156.567,111.222L157.326,111.222L158.128,111.222L158.819,111.222L159.558,111.222L161.061,111.222L161.82,111.222L162.62,111.222L163.315,111.222L164.049,111.222L165.551,111.222L166.306,111.222L167.1,111.222L167.795,111.222L168.541,111.222L170.046,111.222L170.795,111.222L171.592,111.222L172.293,111.222L173.037,111.222L174.543,111.222L175.308,111.222L176.107,111.222L176.789,111.222L177.534,111.222L179.035,111.222L179.797,111.222L180.597,111.222L181.293,111.222L182.028,111.222L183.53,111.222L184.293,111.222L185.092,111.222L185.79,111.222L186.518,111.222L188.024,111.222L188.788,111.222L189.589,111.222L190.282,111.222L191.011,111.222L192.515,111.222L193.279,111.222L194.077,111.222L194.772,111.222L195.505,111.222L197.008,111.222L197.757,111.222L198.553,111.222L199.253,111.222L199.999,111.222" stroke="#eeca3b" stroke-width="2"/></g></g><path class="foreground" aria-hidden="true" d="" display="none"/></g><g transform="translate(0,0)"><path class="background" aria-hidden="true" d="M0,0h200v200h-200Z"/><g><g class="mark-line role-mark marks" role="graphics-object" aria-roledescription="line mark container"><path aria-label="Time: Aug 27, 2025; Price: 1799; identifier: devote-1-2024" role="graphics-symbol" aria-roledescription="line mark" d="M59.77,0.111L59.967,0.111L60.702,0.111L62.203,0.111L62.965,0.111L63.765,0.111L64.46,0.111L65.194,0.111L66.697,0.111L67.455,0.111L68.253,0.111L68.951,0.111L69.685,0.111L74.141,44.556L74.176,44.556L75.681,44.556L76.16,44.556L76.43,44.556L77.229,44.556L77.93,44.556L78.671,44.556L80.189,44.556L80.944,44.556L81.741,44.556L82.43,44.556L83.164,44.556L84.675,44.556L85.435,44.556L86.238,44.556L86.926,44.556L87.661,44.556L89.163,44.556L89.921,44.556L90.722,44.556L91.417,44.556L92.152,44.556L93.655,44.556L94.417,44.556L95.211,44.556L95.915,44.556L96.645,44.556L98.151,44.556L98.909,44.556L99.707,44.556L100.4,44.556L101.14,44.556L102.64,44.556L103.025,44.556L103.39,44.556L104.182,44.556L104.886,44.556L105.631,44.556L107.132,44.556L107.883,44.556L108.679,44.556L109.38,44.556L110.125,44.556L111.633,44.556L112.398,44.556L113.199,44.556L113.889,44.556L114.625,44.556L116.125,44.556L116.889,44.556L117.718,44.556L118.386,44.556L119.114,44.556L120.612,44.556L121.379,44.556L122.175,44.556L122.872,44.556L123.609,44.556L125.112,44.556L125.871,44.556L126.667,44.556L127.357,44.556L128.099,44.556L129.602,44.556L130.363,44.556L131.159,44.556L131.853,44.556L132.592,44.556L134.093,44.556L134.845,44.556L135.639,44.556L136.338,44.556L137.087,44.556L138.588,44.556L139.339,44.556L140.129,44.556L140.83,44.556L141.58,44.556L143.089,44.556L143.847,44.556L144.65,44.556L145.343,44.556L146.078,44.556L147.579,44.556L148.344,44.556L149.142,44.556L149.834,44.556L150.571,44.556L152.074,44.556L152.834,44.556L153.636,44.556L154.329,44.556L155.064,44.556L156.567,44.556L157.326,44.556L158.129,44.556L158.82,44.556L159.558,44.556L161.061,44.556L161.82,44.556L162.62,44.556L163.316,44.556L164.049,44.556L165.551,44.556L166.306,44.556L167.1,44.556L167.795,44.556L168.541,44.556L170.047,44.556L170.796,44.556L171.593,44.556L172.293,44.556L173.037,44.556L174.543,44.556L175.308,44.556L176.107,44.556L176.789,44.556L177.534,44.556L179.035,44.556L179.797,44.556L180.597,44.556L181.293,44.556L182.028,44.556L183.53,44.556L184.293,44.556L185.092,44.556L185.79,44.556L186.518,44.556L188.024,44.556L188.788,44.556L189.589,44.556L190.283,44.556L191.011,44.556L192.515,44.556L193.279,44.556L194.078,44.556L194.772,44.556L195.505,44.556L197.008,44.556L197.757,44.556L198.553,44.556L199.253,44.556L199.999,44.556" stroke="#72b7b2" stroke-width="2"/></g></g><path class="foreground" aria-hidden="true" d="" display="none"/></g><g transform="translate(0,0)"><path class="background" aria-hidden="true" d="M0,0h200v200h-200Z"/><g><g class="mark-line role-mark marks" role="graphics-object" aria-roledescription="line mark container"><path aria-label="Time: Aug 27, 2025; Price: 1699; identifier: devote-1-2022" role="graphics-symbol" aria-roledescription="line mark" d="M59.77,11.222L59.967,11.222L60.702,11.222L62.203,11.222L62.965,11.222L63.765,11.222L64.46,11.222L65.194,11.222L66.697,11.222L67.455,11.222L68.254,11.222L68.951,11.222L69.685,11.222L71.185,11.222L71.938,11.222L72.734,11.222L73.434,11.222L74.141,11.222L74.176,11.222L75.681,11.222L76.161,11.222L76.43,11.222L77.229,11.222L77.93,11.222L78.671,11.222L80.189,11.222L80.944,11.222L81.742,11.222L82.43,11.222L83.164,11.222L84.675,11.222L85.435,11.222L86.238,11.222L86.926,11.222L87.661,11.222L89.163,11.222L89.921,11.222L90.722,11.222L91.418,11.222L92.152,11.222L93.656,11.222L94.417,11.222L95.211,11.222L95.915,11.222L96.645,11.222L98.151,11.222L98.909,11.222L99.707,11.222L100.4,11.222L101.14,11.222L102.64,11.222L103.025,11.222L103.39,11.222L104.182,11.222L104.886,11.222L105.631,11.222L107.132,11.222L107.883,11.222L108.679,11.222L109.38,11.222L110.125,11.222L111.633,11.222L112.398,11.222L113.199,11.222L113.889,11.222L114.625,11.222L116.125,11.222L116.889,11.222L117.718,11.222L118.386,11.222L119.114,11.222L120.613,11.222L121.379,11.222L122.175,11.222L122.872,11.222L123.61,11.222L125.112,11.222L125.871,11.222L126.667,11.222L127.357,11.222L128.099,11.222L129.602,11.222L130.363,11.222L131.159,11.222L131.853,11.222L132.592,11.222L134.093,11.222L134.845,11.222L135.639,11.222L136.338,11.222L137.087,11.222L138.588,11.222L139.339,11.222L140.129,11.222L140.83,11.222L141.58,11.222L143.089,11.222L143.847,11.222L144.65,11.222L145.344,11.222L146.079,11.222L147.579,11.222L148.344,11.222L149.142,11.222L149.834,11.222L150.571,11.222L152.074,11.222L152.834,11.222L153.636,11.222L154.329,11.222L155.064,11.222L156.567,11.222L157.326,11.222L158.129,11.222L158.82,11.222L159.558,11.222L161.061,11.222L161.82,11.222L162.62,11.222L163.316,11.222L164.049,11.222L165.551,11.222L166.306,11.222L167.1,11.222L167.795,11.222L168.541,11.222L170.047,11.222L170.796,11.222L171.593,11.222L172.293,11.222L173.037,11.222L174.543,11.222L175.308,11.222L176.107,11.222L176.79,11.222L177.535,11.222L179.035,11.222L179.798,11.222L180.597,11.222L181.294,11.222L182.028,11.222L183.53,11.222L184.293,11.222L185.092,11.222L185.79,11.222L186.518,11.222L188.024,11.222L188.788,11.222L189.589,11.222L190.283,11.222L191.011,11.222L192.515,11.222L193.279,11.222L194.078,11.222L194.772,11.222L195.505,11.222L197.008,11.222L197.757,11.222L198.553,11.222L199.253,11.222L199.999,11.222" stroke="#4c78a8" stroke-width="2"/></g></g><path class="foreground" aria-hidden="true" d="" display="none"/></g><g transform="translate(0,0)"><path class="background" aria-hidden="true" d="M0,0h200v200h-200Z"/><g><g class="mark-line role-mark marks" role="graphics-object" aria-roledescription="line mark container"><path aria-label="Time: Aug 31, 2025; Price: 1599; identifier: silex-400-oak-bork-2026" role="graphics-symbol" aria-roledescription="line mark" d="M76.161,22.333L76.43,22.333L77.229,22.333L77.93,22.333L78.671,22.333L80.189,22.333L80.944,22.333L81.742,22.333L82.43,22.333L83.164,22.333L84.676,22.333L85.435,22.333L86.238,22.333L86.926,22.333L87.661,22.333L89.163,22.333L89.921,22.333L90.722,22.333L91.418,22.333L92.153,22.333L93.656,22.333L94.417,22.333L95.211,22.333L95.915,22.333L96.646,22.333L98.151,22.333L98.909,22.333L99.708,22.333L100.4,22.333L101.14,22.333L102.64,22.333L103.025,22.333L103.39,22.333L104.183,22.333L104.886,22.333L105.632,22.333L107.132,22.333L107.883,22.333L108.679,22.333L109.38,22.333L110.125,22.333L111.634,22.333L112.398,22.333L113.199,22.333L113.89,22.333L114.625,22.333L116.125,22.333L116.89,22.333L117.718,22.333L118.386,22.333L119.114,22.333L120.613,22.333L121.379,22.333L122.176,22.333L122.873,22.333L123.61,22.333L125.112,22.333L125.871,22.333L126.667,22.333L127.357,22.333L128.099,22.333L129.602,22.333L130.363,22.333L131.159,22.333L131.853,22.333L132.593,22.333L134.093,22.333L134.846,22.333L135.639,22.333L136.338,22.333L137.087,22.333L138.589,22.333L139.339,22.333L140.129,22.333L140.83,22.333L141.581,22.333L143.09,22.333L143.847,22.333L144.65,22.333L145.344,22.333L146.079,22.333L147.579,22.333L148.344,22.333L149.143,22.333L149.834,22.333L150.571,22.333L152.075,22.333L152.834,22.333L153.637,22.333L154.329,22.333L155.064,22.333L156.568,22.333L157.327,22.333L158.129,22.333L158.82,22.333L159.558,22.333L161.061,22.333L161.82,22.333L162.621,22.333L163.316,22.333L164.049,22.333L165.552,22.333L166.306,22.333L167.101,22.333L167.796,22.333L168.541,22.333L170.047,22.333L170.796,22.333L171.593,22.333L172.293,22.333L173.037,22.333L174.543,22.333L175.308,22.333L176.108,22.333L176.79,22.333L177.535,22.333L179.035,22.333L179.798,22.333L180.598,22.333L181.294,22.333L182.028,22.333L183.53,22.333L184.293,22.333L185.093,22.333L185.79,22.333L186.518,22.333L188.024,22.333L188.788,22.333L189.589,22.333L190.283,22.333L191.011,22.333L192.516,22.333L193.279,22.333L194.078,22.333L194.772,22.333L195.506,22.333L197.008,22.333L197.758,22.333L198.553,22.333L199.254,22.333L200,22.333" stroke="#f58518" stroke-width="2"/></g></g><path class="foreground" aria-hidden="true" d="" display="none"/></g><g transform="translate(0,0)"><path class="background" aria-hidden="true" d="M0,0h200v200h-200Z"/><g><g class="mark-line role-mark marks" role="graphics-object" aria-roledescription="line mark container"><path aria-label="Time: Aug 31, 2025; Price: 1599; identifier: silex-400-warm-slate-grey-2026" role="graphics-symbol" aria-roledescription="line mark" d="M76.161,22.333L76.43,22.333L77.23,22.333L77.931,22.333L78.671,22.333L80.189,22.333L80.944,22.333L81.742,22.333L82.43,22.333L83.164,22.333L84.676,22.333L85.435,22.333L86.239,22.333L86.926,22.333L87.661,22.333L89.163,22.333L89.922,22.333L90.722,22.333L91.418,22.333L92.153,22.333L93.656,22.333L94.417,22.333L95.212,22.333L95.915,22.333L96.646,22.333L98.151,22.333L98.91,22.333L99.708,22.333L100.4,22.333L101.141,22.333L102.64,22.333L103.025,22.333L103.39,22.333L104.183,22.333L104.886,22.333L105.632,22.333L107.132,22.333L107.883,22.333L108.679,22.333L109.38,22.333L110.125,22.333L111.634,22.333L112.398,22.333L113.2,22.333L113.89,22.333L114.626,22.333L116.126,22.333L116.89,22.333L117.719,22.333L118.386,22.333L119.114,22.333L120.613,22.333L121.379,22.333L122.176,22.333L122.873,22.333L123.61,22.333L125.113,22.333L125.871,22.333L126.667,22.333L127.358,22.333L128.1,22.333L129.603,22.333L130.363,22.333L131.159,22.333L131.853,22.333L132.593,22.333L134.093,22.333L134.846,22.333L135.639,22.333L136.338,22.333L137.087,22.333L138.589,22.333L139.34,22.333L140.13,22.333L140.831,22.333L141.581,22.333L143.09,22.333L143.847,22.333L144.651,22.333L145.344,22.333L146.079,22.333L147.58,22.333L148.345,22.333L149.143,22.333L149.834,22.333L150.572,22.333L152.075,22.333L152.834,22.333L153.637,22.333L154.329,22.333L155.065,22.333L156.568,22.333L157.327,22.333L158.129,22.333L158.82,22.333L159.559,22.333L161.061,22.333L161.821,22.333L162.621,22.333L163.316,22.333L164.049,22.333L165.552,22.333L166.306,22.333L167.101,22.333L167.796,22.333L168.542,22.333L170.047,22.333L170.796,22.333L171.593,22.333L172.293,22.333L173.037,22.333L174.543,22.333L175.308,22.333L176.108,22.333L176.79,22.333L177.535,22.333L179.035,22.333L179.798,22.333L180.598,22.333L181.294,22.333L182.028,22.333L183.531,22.333L184.293,22.333L185.094,22.333L185.791,22.333L186.519,22.333L188.024,22.333L188.789,22.333L189.59,22.333L190.283,22.333L191.011,22.333L192.516,22.333L193.28,22.333L194.078,22.333L194.772,22.333L195.506,22.333L197.009,22.333L197.758,22.333L198.553,22.333L199.254,22.333L200,22.333" stroke="#e45756" stroke-width="2"/></g></g><path class="foreground" aria-hidden="true" d="" display="none"/></g></g><g class="mark-group role-legend" role="graphics-symbol" aria-roledescription="legend" aria-label="Symbol legend titled 'identifier' for stroke color with 16 values: devote-1-2022, silex-400-oak-bork-2026, silex-400-warm-slate-grey-2026, devote-1-2024, fastroad-ar-2, ending with allure-rs-2-2024"><g transform="translate(220,0)"><path class="background" aria-hidden="true" d="M0,0h256v222h-256Z" pointer-events="none"/><g><g class="mark-group role-legend-entry"><g transform="translate(0,16)"><path class="background" aria-hidden="true" d="M0,0h0v0h0Z" pointer-events="none"/><g><g class="mark-group role-scope" role="graphics-object" aria-roledescription="group mark container"><g transform="translate(0,0)"><path class="background" aria-hidden="true" d="M0,0h256v11h-256Z" pointer-events="none" opacity="1"/><g><g class="mark-symbol role-legend-symbol" pointer-events="none"><path transform="translate(6,6)" d="M-5,0L5,0" stroke="#4c78a8" stroke-width="1.5" opacity="1"/></g><g class="mark-text role-legend-label" pointer-events="none"><text text-anchor="start" transform="translate(16,9)" font-family="Liberation Mono" font-size="10px" fill="#000" opacity="1">devote-1-2022</text></g></g><path class="foreground" aria-hidden="true" d="" pointer-events="none" display="none"/></g><g transform="translate(0,13)"><path class="background" aria-hidden="true" d="M0,0h256v11h-256Z" pointer-events="none" opacity="1"/><g><g class="mark-symbol role-legend-symbol" pointer-events="none"><path transform="translate(6,6)" d="M-5,0L5,0" stroke="#f58518" stroke-width="1.5" opacity="1"/></g><g class="mark-text role-legend-label" pointer-events="none"><text text-anchor="start" transform="translate(16,9)" font-family="Liberation Mono" font-size="10px" fill="#000" opacity="1">silex-400-oak-bork-2026</text></g></g><path class="foreground" aria-hidden="true" d="" pointer-events="none" display="none"/></g><g transform="translate(0,26)"><path class="background" aria-hidden="true" d="M0,0h256v11h-256Z" pointer-events="none" opacity="1"/><g><g class="mark-symbol role-legend-symbol" pointer-events="none"><path transform="translate(6,6)" d="M-5,0L5,0" stroke="#e45756" stroke-width="1.5" opacity="1"/></g><g class="mark-text role-legend-label" pointer-events="none"><text text-anchor="start" transform="translate(16,9)" font-family="Liberation Mono" font-size="10px" fill="#000" opacity="1">silex-400-warm-slate-grey-2026</text></g></g><path class="foreground" aria-hidden="true" d="" pointer-events="none" display="none"/></g><g transform="translate(0,39)"><path class="background" aria-hidden="true" d="M0,0h256v11h-256Z" pointer-events="none" opacity="1"/><g><g class="mark-symbol role-legend-symbol" pointer-events="none"><path transform="translate(6,6)" d="M-5,0L5,0" stroke="#72b7b2" stroke-width="1.5" opacity="1"/></g><g class="mark-text role-legend-label" pointer-events="none"><text text-anchor="start" transform="translate(16,9)" font-family="Liberation Mono" font-size="10px" fill="#000" opacity="1">devote-1-2024</text></g></g><path class="foreground" aria-hidden="true" d="" pointer-events="none" display="none"/></g><g transform="translate(0,52)"><path class="background" aria-hidden="true" d="M0,0h256v11h-256Z" pointer-events="none" opacity="1"/><g><g class="mark-symbol role-legend-symbol" pointer-events="none"><path transform="translate(6,6)" d="M-5,0L5,0" stroke="#54a24b" stroke-width="1.5" opacity="1"/></g><g class="mark-text role-legend-label" pointer-events="none"><text text-anchor="start" transform="translate(16,9)" font-family="Liberation Mono" font-size="10px" fill="#000" opacity="1">fastroad-ar-2</text></g></g><path class="foreground" aria-hidden="true" d="" pointer-events="none" display="none"/></g><g transform="translate(0,65)"><path class="background" aria-hidden="true" d="M0,0h256v11h-256Z" pointer-events="none" opacity="1"/><g><g class="mark-symbol role-legend-symbol" pointer-events="none"><path transform="translate(6,6)" d="M-5,0L5,0" stroke="#eeca3b" stroke-width="1.5" opacity="1"/></g><g class="mark-text role-legend-label" pointer-events="none"><text text-anchor="start" transform="translate(16,9)" font-family="Liberation Mono" font-size="10px" fill="#000" opacity="1">thrive-2</text></g></g><path class="foreground" aria-hidden="true" d="" pointer-events="none" display="none"/></g><g transform="translate(0,78)"><path class="background" aria-hidden="true" d="M0,0h256v11h-256Z" pointer-events="none" opacity="1"/><g><g class="mark-symbol role-legend-symbol" pointer-events="none"><path transform="translate(6,6)" d="M-5,0L5,0" stroke="#b279a2" stroke-width="1.5" opacity="1"/></g><g class="mark-text role-legend-label" pointer-events="none"><text text-anchor="start" transform="translate(16,9)" font-family="Liberation Mono" font-size="10px" fill="#000" opacity="1">allure-rs-1-2023</text></g></g><path class="foreground" aria-hidden="true" d="" pointer-events="none" display="none"/></g><g transform="translate(0,91)"><path class="background" aria-hidden="true" d="M0,0h256v11h-256Z" pointer-events="none" opacity="1"/><g><g class="mark-symbol role-legend-symbol" pointer-events="none"><path transform="translate(6,6)" d="M-5,0L5,0" stroke="#ff9da6" stroke-width="1.5" opacity="1"/></g><g class="mark-text role-legend-label" pointer-events="none"><text text-anchor="start" transform="translate(16,9)" font-family="Liberation Mono" font-size="10px" fill="#000" opacity="1">roam-2</text></g></g><path class="foreground" aria-hidden="true" d="" pointer-events="none" display="none"/></g><g transform="translate(0,104)"><path class="background" aria-hidden="true" d="M0,0h256v11h-256Z" pointer-events="none" opacity="1"/><g><g class="mark-symbol role-legend-symbol" pointer-events="none"><path transform="translate(6,6)" d="M-5,0L5,0" stroke="#9d755d" stroke-width="1.5" opacity="1"/></g><g class="mark-text role-legend-label" pointer-events="none"><text text-anchor="start" transform="translate(16,9)" font-family="Liberation Mono" font-size="10px" fill="#000" opacity="1">fastroad-sl-3-2022</text></g></g><path class="foreground" aria-hidden="true" d="" pointer-events="none" display="none"/></g><g transform="translate(0,117)"><path class="background" aria-hidden="true" d="M0,0h256v11h-256Z" pointer-events="none" opacity="1"/><g><g class="mark-symbol role-legend-symbol" pointer-events="none"><path transform="translate(6,6)" d="M-5,0L5,0" stroke="#bab0ac" stroke-width="1.5" opacity="1"/></g><g class="mark-text role-legend-label" pointer-events="none"><text text-anchor="start" transform="translate(16,9)" font-family="Liberation Mono" font-size="10px" fill="#000" opacity="1">allure-rs-2-2023</text></g></g><path class="foreground" aria-hidden="true" d="" pointer-events="none" display="none"/></g><g transform="translate(0,130)"><path class="background" aria-hidden="true" d="M0,0h256v11h-256Z" pointer-events="none" opacity="1"/><g><g class="mark-symbol role-legend-symbol" pointer-events="none"><path transform="translate(6,6)" d="M-5,0L5,0" stroke="#4c78a8" stroke-width="1.5" opacity="1"/></g><g class="mark-text role-legend-label" pointer-events="none"><text text-anchor="start" transform="translate(16,9)" font-family="Liberation Mono" font-size="10px" fill="#000" opacity="1">escape-city-disc-1-2024</text></g></g><path class="foreground" aria-hidden="true" d="" pointer-events="none" display="none"/></g><g transform="translate(0,143)"><path class="background" aria-hidden="true" d="M0,0h256v11h-256Z" pointer-events="none" opacity="1"/><g><g class="mark-symbol role-legend-symbol" pointer-events="none"><path transform="translate(6,6)" d="M-5,0L5,0" stroke="#f58518" stroke-width="1.5" opacity="1"/></g><g class="mark-text role-legend-label" pointer-events="none"><text text-anchor="start" transform="translate(16,9)" font-family="Liberation Mono" font-size="10px" fill="#000" opacity="1">sdrbike-escape-1-city-disc</text></g></g><path class="foreground" aria-hidden="true" d="" pointer-events="none" display="none"/></g><g transform="translate(0,156)"><path class="background" aria-hidden="true" d="M0,0h256v11h-256Z" pointer-events="none" opacity="1"/><g><g class="mark-symbol role-legend-symbol" pointer-events="none"><path transform="translate(6,6)" d="M-5,0L5,0" stroke="#e45756" stroke-width="1.5" opacity="1"/></g><g class="mark-text role-legend-label" pointer-events="none"><text text-anchor="start" transform="translate(16,9)" font-family="Liberation Mono" font-size="10px" fill="#000" opacity="1">roam-disc-2-2024</text></g></g><path class="foreground" aria-hidden="true" d="" pointer-events="none" display="none"/></g><g transform="translate(0,169)"><path class="background" aria-hidden="true" d="M0,0h256v11h-256Z" pointer-events="none" opacity="1"/><g><g class="mark-symbol role-legend-symbol" pointer-events="none"><path transform="translate(6,6)" d="M-5,0L5,0" stroke="#72b7b2" stroke-width="1.5" opacity="1"/></g><g class="mark-text role-legend-label" pointer-events="none"><text text-anchor="start" transform="translate(16,9)" font-family="Liberation Mono" font-size="10px" fill="#000" opacity="1">rove-2</text></g></g><path class="foreground" aria-hidden="true" d="" pointer-events="none" display="none"/></g><g transform="translate(0,182)"><path class="background" aria-hidden="true" d="M0,0h256v11h-256Z" pointer-events="none" opacity="1"/><g><g class="mark-symbol role-legend-symbol" pointer-events="none"><path transform="translate(6,6)" d="M-5,0L5,0" stroke="#54a24b" stroke-width="1.5" opacity="1"/></g><g class="mark-text role-legend-label" pointer-events="none"><text text-anchor="start" transform="translate(16,9)" font-family="Liberation Mono" font-size="10px" fill="#000" opacity="1">allure-rs-2-2022</text></g></g><path class="foreground" aria-hidden="true" d="" pointer-events="none" display="none"/></g><g transform="translate(0,195)"><path class="background" aria-hidden="true" d="M0,0h256v11h-256Z" pointer-events="none" opacity="1"/><g><g class="mark-symbol role-legend-symbol" pointer-events="none"><path transform="translate(6,6)" d="M-5,0L5,0" stroke="#eeca3b" stroke-width="1.5" opacity="1"/></g><g class="mark-text role-legend-label" pointer-events="none"><text text-anchor="start" transform="translate(16,9)" font-family="Liberation Mono" font-size="10px" fill="#000" opacity="1">allure-rs-2-2024</text></g></g><path class="foreground" aria-hidden="true" d="" pointer-events="none" display="none"/></g></g></g><path class="foreground" aria-hidden="true" d="" pointer-events="none" display="none"/></g></g><g class="mark-text role-legend-title" pointer-events="none"><text text-anchor="start" transform="translate(0,9)" font-family="Liberation Mono" font-size="11px" font-weight="bold" fill="#000" opacity="1">identifier</text></g></g><path class="foreground" aria-hidden="true" d="" pointer-events="none" display="none"/></g></g></g><path class="foreground" aria-hidden="true" d="" display="none"/></g></g></g></svg>