<svg xmlns="http://www.w3.org/2000/svg" xmlns:xlink="http://www.w3.org/1999/xlink" version="1.1" class="marks" width="548" height="244" viewBox="0 0 548 244"><rect width="548" height="244" fill="white"/><g fill="none" stroke-miterlimit="10" transform="translate(67,7)"><g class="mark-group role-frame root" role="graphics-object" aria-roledescription="group mark container"><g transform="translate(0,0)"><path class="background" aria-hidden="true" d="M0.5,0.5h200v200h-200Z" stroke="#ddd"/><g><g class="mark-group role-axis" aria-hidden="true"><g transform="translate(0.5,200.5)"><path class="background" aria-hidden="true" d="M0,0h0v0h0Z" pointer-events="none"/><g><g class="mark-rule role-axis-grid" pointer-events="none"><line transform="translate(10,-200)" x2="0" y2="200" stroke="#ddd" stroke-width="1" opacity="1"/><line transform="translate(36,-200)" x2="0" y2="200" stroke="#ddd" stroke-width="1" opacity="1"/><line transform="translate(63,-200)" x2="0" y2="200" stroke="#ddd" stroke-width="1" opacity="1"/><line transform="translate(89,-200)" x2="0" y2="200" stroke="#ddd" stroke-width="1" opacity="1"/><line transform="translate(115,-200)" x2="0" y2="200" stroke="#ddd" stroke-width="1" opacity="1"/><line transform="translate(142,-200)" x2="0" y2="200" stroke="#ddd" stroke-width="1" opacity="1"/><line transform="translate(168,-200)" x2="0" y2="200" stroke="#ddd" stroke-width="1" opacity="1"/><line transform="translate(194,-200)" x2="0" y2="200" stroke="#ddd" stroke-width="1" opacity="1"/></g></g><path class="foreground" aria-hidden="true" d="" pointer-events="none" display="none"/></g></g><g class="mark-group role-axis" aria-hidden="true"><g transform="translate(0.5,0.5)"><path class="background" aria-hidden="true" d="M0,0h0v0h0Z" pointer-events="none"/><g><g class="mark-rule role-axis-grid" pointer-events="none"><line transform="translate(0,200)" x2="200" y2="0" stroke="#ddd" stroke-width="1" opacity="1"/><line transform="translate(0,144)" x2="200" y2="0" stroke="#ddd" stroke-width="1" opacity="1"/><line transform="translate(0,89)" x2="200" y2="0" stroke="#ddd" stroke-width="1" opacity="1"/><line transform="translate(0,33)" x2="200" y2="0" stroke="#ddd" stroke-width="1" opacity="1"/></g></g><path class="foreground" aria-hidden="true" d="" pointer-events="none" display="none"/></g></g><g class="mark-group role-axis" role="graphics-symbol" aria-roledescription="axis" aria-label="X-axis titled 'Time' for a time scale with values from Thursday, 14 August 2025, 8:34:48 AM to Monday, 06 October 2025, 1:08:36 PM"><g transform="translate(0.5,200.5)"><path class="background" aria-hidden="true" d="M0,0h0v0h0Z" pointer-events="none"/><g><g class="mark-rule role-axis-tick" pointer-events="none"><line transform="translate(10,0)" x2="0" y2="5" stroke="#888" stroke-width="1" opacity="1"/><line transform="translate(36,0)" x2="0" y2="5" stroke="#888" stroke-width="1" opacity="1"/><line transform="translate(63,0)" x2="0" y2="5" stroke="#888" stroke-width="1" opacity="1"/><line transform="translate(89,0)" x2="0" y2="5" stroke="#888" stroke-width="1" opacity="1"/><line transform="translate(115,0)" x2="0" y2="5" stroke="#888" stroke-width="1" opacity="1"/><line transform="translate(142,0)" x2="0" y2="5" stroke="#888" stroke-width="1" opacity="1"/><line transform="translate(168,0)" x2="0" y2="5" stroke="#888" stroke-width="1" opacity="1"/><line transform="translate(194,0)" x2="0" y2="5" stroke="#888" stroke-width="1" opacity="1"/></g><g class="mark-text role-axis-label" pointer-events="none"><text text-anchor="middle" transform="translate(9.93601966313425,15)" font-family="Liberation Mono" font-size="10px" fill="#000" opacity="1">Aug 17</text><text text-anchor="middle" transform="translate(36.256688591480696,15)" font-family="Liberation Mono" font-size="10px" fill="#000" opacity="0">Aug 24</text><text text-anchor="middle" transform="translate(62.577357519827146,15)" font-family="Liberation Mono" font-size="10px" fill="#000" opacity="1">Aug 31</text><text text-anchor="middle" transform="translate(88.8980264481736,15)" font-family="Liberation Mono" font-size="10px" fill="#000" opacity="0">Sep 07</text><text text-anchor="middle" transform="translate(115.21869537652006,15)" font-family="Liberation Mono" font-size="10px" fill="#000" opacity="1">Sep 14</text><text text-anchor="middle" transform="translate(141.5393643048665,15)" font-family="Liberation Mono" font-size="10px" fill="#000" opacity="0">Sep 21</text><text text-anchor="middle" transform="translate(167.86003323321296,15)" font-family="Liberation Mono" font-size="10px" fill="#000" opacity="1">Sep 28</text><text text-anchor="middle" transform="translate(194.1807021615594,15)" font-family="Liberation Mono" font-size="10px" fill="#000" opacity="0">Oct 05</text></g><g class="mark-rule role-axis-domain" pointer-events="none"><line transform="translate(0,0)" x2="200" y2="0" stroke="#888" stroke-width="1" opacity="1"/></g><g class="mark-text role-axis-title" pointer-events="none"><text text-anchor="middle" transform="translate(100,30)" font-family="Liberation Mono" font-size="11px" font-weight="bold" fill="#000" opacity="1">Time</text></g></g><path class="foreground" aria-hidden="true" d="" pointer-events="none" display="none"/></g></g><g class="mark-group role-axis" role="graphics-symbol" aria-roledescription="axis" aria-label="Y-axis titled 'Price' for a linear scale with values from 0 to 1,800"><g transform="translate(0.5,0.5)"><path class="background" aria-hidden="true" d="M0,0h0v0h0Z" pointer-events="none"/><g><g class="mark-rule role-axis-tick" pointer-events="none"><line transform="translate(0,200)" x2="-5" y2="0" stroke="#888" stroke-width="1" opacity="1"/><line transform="translate(0,144)" x2="-5" y2="0" stroke="#888" stroke-width="1" opacity="1"/><line transform="translate(0,89)" x2="-5" y2="0" stroke="#888" stroke-width="1" opacity="1"/><line transform="translate(0,33)" x2="-5" y2="0" stroke="#888" stroke-width="1" opacity="1"/></g><g class="mark-text role-axis-label" pointer-events="none"><text text-anchor="end" transform="translate(-7,203)" font-family="Liberation Mono" font-size="10px" fill="#000" opacity="1">0</text><text text-anchor="end" transform="translate(-7,147.44444444444443)" font-family="Liberation Mono" font-size="10px" fill="#000" opacity="1">500</text><text text-anchor="end" transform="translate(-7,91.88888888888889)" font-family="Liberation Mono" font-size="10px" fill="#000" opacity="1">1,000</text><text text-anchor="end" transform="translate(-7,36.33333333333333)" font-family="Liberation Mono" font-size="10px" fill="#000" opacity="1">1,500</text></g><g class="mark-rule role-axis-domain" pointer-events="none"><line transform="translate(0,200)" x2="0" y2="-200" stroke="#888" stroke-width="1" opacity="1"/></g><g class="mark-text role-axis-title" pointer-events="none"><text text-anchor="middle" transform="translate(-51,100) rotate(-90) translate(0,-2)" font-family="Liberation Mono" font-size="11px" font-weight="bold" fill="#000" opacity="1">Price</text></g></g><path class="foreground" aria-hidden="true" d="" pointer-events="none" display="none"/></g></g><g class="mark-group role-scope pathgroup" role="graphics-object" aria-roledescription="group mark container"><g transform="translate(0,0)"><path class="background" aria-hidden="true" d="M0,0h200v200h-200Z"/><g><g class="mark-line role-mark marks" role="graphics-object" aria-roledescription="line mark container"><path aria-label="Time: Aug 14, 2025; Price: 899; identifier: escape-city-disc-1-2024" role="graphics-symbol" aria-roledescription="line mark" d="M0,100.111L0.031,100.111L0.056,100.111L0.749,100.111L1.3,100.111L1.918,100.111L3.186,100.111L3.809,100.111L4.497,100.111L5.061,100.111L5.676,100.111L6.934,100.111L7.564,100.111L8.232,100.111L8.814,100.111L9.43,100.111L10.709,100.111L11.323,100.111L11.994,100.111L12.576,100.111L13.195,100.111L14.48,100.111L15.097,100.111L15.79,100.111L16.033,100.111L16.349,100.111L16.952,100.111L18.211,100.111L18.848,100.111L19.515,100.111L20.099,100.111L20.71,100.111L21.973,100.111L22.603,100.111L23.298,100.111L23.579,100.111L23.858,100.111L24.475,100.111L25.73,100.111L26.366,100.111L27.037,100.111L27.62,100.111L28.233,100.111L29.492,100.111L30.125,100.111L30.795,100.111L31.376,100.111L31.991,100.111L33.249,100.111L33.879,100.111L34.544,100.111L35.127,100.111L35.747,100.111L37.013,100.111L37.637,100.111L38.306,100.111L38.891,100.111L39.509,100.111L40.779,100.111L41.413,100.111L42.099,100.111L42.661,100.111L43.273,100.111L44.533,100.111L45.171,100.111L46.417,100.111L47.029,100.111L48.288,100.111L48.924,100.111L49.17,100.111L49.593,100.111L50.013,100.111L50.177,100.111L50.792,100.111L52.048,100.111L52.685,100.111L53.355,100.111L53.936,100.111L54.551,100.111L55.808,100.111L56.443,100.111L57.111,100.111L57.695,100.111L58.308,100.111L59.564,100.111L60.194,100.111L60.859,100.111L61.446,100.111L62.037,100.111L62.066,100.111L63.325,100.111L63.727,100.111L63.952,100.111L64.621,100.111L65.208,100.111L65.828,100.111L67.098,100.111L67.73,100.111L68.397,100.111L68.973,100.111L69.587,100.111L70.852,100.111L71.487,100.111L72.159,100.111L72.735,100.111L73.35,100.111L74.607,100.111L75.241,100.111L75.911,100.111L76.494,100.111L77.108,100.111L78.366,100.111L79.003,100.111L79.668,100.111L80.256,100.111L80.868,100.111L82.128,100.111L82.762,100.111L83.43,100.111L84.009,100.111L84.629,100.111L85.884,100.111L86.206,100.111L86.511,100.111L87.174,100.111L87.763,100.111L88.387,100.111L89.643,100.111L90.271,100.111L90.937,100.111L91.524,100.111L92.147,100.111L93.409,100.111L94.048,100.111L94.719,100.111L95.297,100.111L95.913,100.111L97.168,100.111L97.807,100.111L98.5,100.111L99.059,100.111L99.668,100.111L100.923,100.111L101.564,100.111L102.23,100.111L102.813,100.111L103.43,100.111L104.687,100.111L105.322,100.111L105.989,100.111L106.566,100.111L107.187,100.111L108.445,100.111L109.081,100.111L109.747,100.111L110.328,100.111L110.947,100.111L112.203,100.111L112.832,100.111L113.496,100.111L114.081,100.111L114.707,100.111L115.964,100.111L116.592,100.111L117.253,100.111L117.84,100.111L118.467,100.111L119.73,100.111L120.364,100.111L121.036,100.111L121.615,100.111L122.229,100.111L123.487,100.111L124.127,100.111L124.795,100.111L125.374,100.111L125.991,100.111L127.249,100.111L127.884,100.111L128.555,100.111L129.135,100.111L129.75,100.111L131.008,100.111L131.643,100.111L132.314,100.111L132.893,100.111L133.511,100.111L134.768,100.111L135.403,100.111L136.073,100.111L136.655,100.111L137.268,100.111L138.526,100.111L139.157,100.111L139.822,100.111L140.403,100.111L141.027,100.111L142.287,100.111L142.914,100.111L143.581,100.111L144.167,100.111L144.789,100.111L146.049,100.111L146.689,100.111L147.358,100.111L147.929,100.111L148.553,100.111L149.808,100.111L150.446,100.111L151.115,100.111L151.698,100.111L152.312,100.111L153.569,100.111L154.208,100.111L154.876,100.111L155.461,100.111L156.07,100.111L157.33,100.111L157.969,100.111L158.639,100.111L159.22,100.111L159.829,100.111L161.088,100.111L161.727,100.111L162.395,100.111L162.976,100.111L163.59,100.111L164.847,100.111L165.474,100.111L166.14,100.111L166.726,100.111L167.35,100.111L168.608,100.111L169.235,100.111L169.901,100.111L170.484,100.111L171.109,100.111L172.371,100.111L173.011,100.111L173.681,100.111L174.244,100.111L174.871,100.111L176.13,100.111L176.773,100.111L177.441,100.111L178.017,100.111L178.632,100.111L179.892,100.111L180.53,100.111L181.201,100.111L181.778,100.111L182.393,100.111L183.647,100.111L184.284,100.111L184.952,100.111L185.537,100.111L186.15,100.111L187.406,100.111L188.044,100.111L188.71,100.111L189.296,100.111L189.91,100.111L191.165,100.111L191.796,100.111L192.46,100.111L193.047,100.111L193.669,100.111L194.924,100.111L195.554,100.111L196.221,100.111L196.807,100.111L197.43,100.111L198.689,100.111L199.328,100.111L199.999,100.111" stroke="#4c78a8" stroke-width="2"/></g></g><path class="foreground" aria-hidden="true" d="" display="none"/></g><g transform="translate(0,0)"><path class="background" aria-hidden="true" d="M0,0h200v200h-200Z"/><g><g class="mark-line role-mark marks" role="graphics-object" aria-roledescription="line mark container"><path aria-label="Time: Aug 14, 2025; Price: 999; identifier: roam-2" role="graphics-symbol" aria-roledescription="line mark" d="M0,89L0.031,89L0.056,89L0.749,89L1.3,89L1.918,89L3.187,89L3.809,89L4.497,89L5.061,89L5.676,89L6.935,89L7.565,89L8.232,89L8.814,89L9.436,89L10.709,89L11.323,89L11.994,89L12.576,89L13.195,89L14.48,89L15.097,89L15.79,89L16.033,89L16.349,89L16.952,89L18.211,89L18.848,89L19.516,89L20.099,89L20.71,89L21.973,89L22.603,89L23.298,89L23.579,89L23.858,89L24.475,89L25.731,89L26.366,89L27.037,89L27.62,89L28.233,89L29.492,89L30.125,89L30.796,89L31.377,89L31.991,89L33.249,89L33.879,89L34.544,89L35.127,89L35.747,89L37.014,89L37.637,89L38.306,89L38.891,89L39.509,89L40.779,89L41.414,89L42.1,89L42.661,89L43.273,89L44.533,89L45.171,89L46.417,89L47.029,89L48.288,89L48.924,89L49.17,89L49.593,89L50.013,89L50.177,89L50.792,89L52.048,89L52.685,89L53.355,89L53.936,89L54.551,89L55.808,89L56.443,89L57.111,89L57.695,89L58.309,89L59.564,89L60.194,89L60.859,89L61.446,89L62.037,89L62.066,89L63.326,89L63.727,89L63.953,89L64.621,89L65.208,89L65.828,89L67.098,89L67.73,89L68.397,89L68.973,89L69.587,89L70.852,89L71.488,89L72.159,89L72.735,89L73.35,89L74.607,89L75.242,89L75.911,89L76.494,89L77.109,89L78.366,89L79.003,89L79.668,89L80.256,89L80.868,89L82.128,89L82.762,89L83.43,89L84.009,89L84.629,89L85.884,89L86.206,89L86.511,89L87.174,89L87.763,89L88.387,89L89.643,89L90.271,89L90.937,89L91.524,89L92.147,89L93.409,89L94.049,89L94.719,89L95.297,89L95.913,89L97.168,89L97.807,89L98.501,89L99.06,89L99.669,89L100.923,89L101.564,89L102.23,89L102.814,89L103.43,89L104.688,89L105.323,89L105.989,89L106.566,89L107.187,89L108.445,89L109.081,89L109.747,89L110.328,89L110.947,89L112.203,89L112.832,89L113.496,89L114.081,89L114.708,89L115.964,89L116.592,89L117.253,89L117.84,89L118.468,89L119.73,89L120.364,89L121.036,89L121.616,89L122.23,89L123.487,89L124.128,89L124.795,89L125.374,89L125.991,89L127.249,89L127.884,89L128.555,89L129.135,89L129.75,89L131.008,89L131.644,89L132.314,89L132.893,89L133.511,89L134.768,89L135.403,89L136.073,89L136.655,89L137.269,89L138.526,89L139.157,89L139.822,89L140.403,89L141.028,89L142.287,89L142.914,89L143.581,89L144.167,89L144.789,89L146.049,89L146.689,89L147.359,89L147.93,89L148.553,89L149.808,89L150.446,89L151.115,89L151.698,89L152.312,89L153.569,89L154.208,89L154.876,89L155.461,89L156.07,89L157.33,89L157.969,89L158.64,89L159.22,89L159.829,89L161.088,89L161.727,89L162.395,89L162.976,89L163.59,89L164.848,89L165.474,89L166.14,89L166.726,89L167.35,89L168.608,89L169.235,89L169.902,89L170.484,89L171.109,89L172.371,89L173.012,89L173.681,89L174.244,89L174.872,89L176.13,89L176.773,89L177.441,89L178.017,89L178.632,89L179.892,89L180.53,89L181.201,89L181.778,89L182.393,89L183.648,89L184.284,89L184.952,89L185.538,89L186.151,89L187.406,89L188.044,89L188.71,89L189.296,89L189.91,89L191.166,89L191.796,89L192.46,89L193.047,89L193.67,89L194.924,89L195.554,89L196.221,89L196.807,89L197.43,89L198.689,89L199.328,89L199.999,89" stroke="#ff9da6" stroke-width="2"/></g></g><path class="foreground" aria-hidden="true" d="" display="none"/></g><g transform="translate(0,0)"><path class="background" aria-hidden="true" d="M0,0h200v200h-200Z"/><g><g class="mark-line role-mark marks" role="graphics-object" aria-roledescription="line mark container"><path aria-label="Time: Aug 14, 2025; Price: 999; identifier: fastroad-sl-3-2022" role="graphics-symbol" aria-roledescription="line mark" d="M0,89L0.031,89L0.056,89L0.749,89L1.3,89L1.918,89L3.187,89L3.809,89L4.497,89L5.061,89L5.676,89L6.935,89L7.565,89L8.232,89L8.814,89L9.436,89L10.709,89L11.323,89L11.994,89L12.577,89L13.195,89L14.48,89L15.097,89L15.79,89L16.033,89L16.349,89L16.952,89L18.211,89L18.848,89L19.516,89L20.099,89L20.71,89L21.973,89L22.603,89L23.298,89L23.579,89L23.858,89L24.475,89L25.731,89L26.366,89L27.037,89L27.62,89L28.233,89L29.492,89L30.125,89L30.796,89L31.377,89L31.991,89L33.249,89L33.879,89L34.544,89L35.127,89L35.747,89L37.014,89L37.637,89L38.306,89L38.892,89L39.509,89L40.779,89L41.414,89L42.1,89L42.661,89L43.273,89L44.533,89L45.171,89L46.418,89L47.029,89L48.288,89L48.924,89L49.171,89L49.594,89L50.013,89L50.177,89L50.792,89L52.048,89L52.685,89L53.355,89L53.937,89L54.551,89L55.808,89L56.443,89L57.111,89L57.695,89L58.309,89L59.564,89L60.194,89L60.859,89L61.446,89L62.037,89L62.067,89L63.326,89L63.727,89L63.953,89L64.621,89L65.208,89L65.828,89L67.098,89L67.73,89L68.397,89L68.973,89L69.587,89L70.852,89L71.488,89L72.16,89L72.735,89L73.35,89L74.607,89L75.242,89L75.911,89L76.494,89L77.109,89L78.366,89L79.003,89L79.668,89L80.256,89L80.868,89L82.128,89L82.762,89L83.43,89L84.009,89L84.629,89L85.884,89L86.206,89L86.511,89L87.175,89L87.763,89L88.387,89L89.643,89L90.271,89L90.937,89L91.524,89L92.147,89L93.409,89L94.049,89L94.719,89L95.297,89L95.913,89L97.168,89L97.807,89L98.501,89L99.06,89L99.669,89L100.923,89L101.564,89L102.23,89L102.814,89L103.43,89L104.688,89L105.323,89L105.989,89L106.566,89L107.187,89L108.445,89L109.081,89L109.747,89L110.328,89L110.947,89L112.203,89L112.832,89L113.496,89L114.081,89L114.708,89L115.964,89L116.592,89L117.254,89L117.84,89L118.468,89L119.73,89L120.364,89L121.036,89L121.616,89L122.231,89L123.487,89L124.128,89L124.795,89L125.374,89L125.991,89L127.249,89L127.885,89L128.556,89L129.135,89L129.75,89L131.008,89L131.644,89L132.315,89L132.893,89L133.511,89L134.769,89L135.404,89L136.073,89L136.655,89L137.269,89L138.526,89L139.157,89L139.822,89L140.404,89L141.028,89L142.287,89L142.914,89L143.581,89L144.167,89L144.789,89L146.049,89L146.69,89L147.359,89L147.93,89L148.553,89L149.808,89L150.446,89L151.116,89L151.698,89L152.312,89L153.57,89L154.208,89L154.877,89L155.461,89L156.07,89L157.33,89L157.969,89L158.64,89L159.22,89L159.829,89L161.088,89L161.727,89L162.395,89L162.976,89L163.59,89L164.848,89L165.475,89L166.14,89L166.727,89L167.35,89L168.608,89L169.235,89L169.902,89L170.484,89L171.109,89L172.371,89L173.012,89L173.681,89L174.244,89L174.872,89L176.13,89L176.773,89L177.441,89L178.017,89L178.632,89L179.892,89L180.53,89L181.202,89L181.778,89L182.393,89L183.648,89L184.284,89L184.952,89L185.538,89L186.151,89L187.406,89L188.044,89L188.71,89L189.296,89L189.91,89L191.166,89L191.796,89L192.46,89L193.047,89L193.67,89L194.924,89L195.554,89L196.221,89L196.807,89L197.431,89L198.689,89L199.328,89L199.999,89" stroke="#9d755d" stroke-width="2"/></g></g><path class="foreground" aria-hidden="true" d="" display="none"/></g><g transform="translate(0,0)"><path class="background" aria-hidden="true" d="M0,0h200v200h-200Z"/><g><g class="mark-line role-mark marks" role="graphics-object" aria-roledescription="line mark container"><path aria-label="Time: Aug 14, 2025; Price: 1199; identifier: fastroad-ar-2" role="graphics-symbol" aria-roledescription="line mark" d="M0,66.778L0.031,66.778L0.056,66.778L0.749,66.778L1.3,66.778L1.918,66.778L3.187,66.778L3.809,66.778L4.497,66.778L5.061,66.778L5.676,66.778L6.935,66.778L7.565,66.778L8.232,66.778L8.814,66.778L9.439,66.778L10.709,66.778L11.324,66.778L11.994,66.778L12.577,66.778L13.195,66.778L14.48,66.778L15.097,66.778L15.79,66.778L16.033,66.778L16.349,66.778L16.952,66.778L18.212,66.778L18.848,66.778L19.516,66.778L20.099,66.778L20.711,66.778L21.973,66.778L22.603,66.778L23.298,66.778L23.58,66.778L23.858,66.778L24.475,66.778L25.731,66.778L26.366,66.778L27.037,66.778L27.62,66.778L28.233,66.778L29.492,66.778L30.125,66.778L30.796,66.778L31.377,66.778L31.991,66.778L33.249,66.778L33.879,66.778L34.544,66.778L35.127,66.778L35.748,66.778L37.014,66.778L37.637,66.778L38.306,66.778L38.892,66.778L39.509,66.778L40.779,66.778L41.414,66.778L42.1,66.778L42.661,66.778L43.273,66.778L44.533,66.778L45.171,66.778L46.418,66.778L47.029,66.778L48.289,66.778L48.924,66.778L49.171,66.778L49.594,66.778L50.013,66.778L50.177,66.778L50.792,66.778L52.048,66.778L52.686,66.778L53.355,66.778L53.937,66.778L54.551,66.778L55.808,66.778L56.443,66.778L57.111,66.778L57.695,66.778L58.309,66.778L59.564,66.778L60.194,66.778L60.86,66.778L61.446,66.778L62.037,66.778L62.067,66.778L63.326,66.778L63.727,66.778L63.953,66.778L64.621,66.778L65.208,66.778L65.828,66.778L67.098,66.778L67.73,66.778L68.397,66.778L68.973,66.778L69.587,66.778L70.852,66.778L71.488,66.778L72.16,66.778L72.736,66.778L73.35,66.778L74.607,66.778L75.242,66.778L75.912,66.778L76.494,66.778L77.109,66.778L78.366,66.778L79.003,66.778L79.668,66.778L80.257,66.778L80.868,66.778L82.128,66.778L82.762,66.778L83.43,66.778L84.01,66.778L84.629,66.778L85.884,66.778L86.207,66.778L86.511,66.778L87.175,66.778L87.763,66.778L88.387,66.778L89.643,66.778L90.271,66.778L90.937,66.778L91.524,66.778L92.147,66.778L93.41,66.778L94.049,66.778L94.719,66.778L95.297,66.778L95.913,66.778L97.168,66.778L97.808,66.778L98.501,66.778L99.06,66.778L99.669,66.778L100.923,66.778L101.564,66.778L102.231,66.778L102.814,66.778L103.43,66.778L104.688,66.778L105.323,66.778L105.989,66.778L106.567,66.778L107.187,66.778L108.445,66.778L109.081,66.778L109.747,66.778L110.328,66.778L110.947,66.778L112.203,66.778L112.832,66.778L113.496,66.778L114.081,66.778L114.708,66.778L115.964,66.778L116.593,66.778L117.254,66.778L117.84,66.778L118.468,66.778L119.73,66.778L120.364,66.778L121.037,66.778L121.616,66.778L122.231,66.778L123.487,66.778L124.128,66.778L124.796,66.778L125.374,66.778L125.991,66.778L127.249,66.778L127.885,66.778L128.556,66.778L129.135,66.778L129.75,66.778L131.008,66.778L131.644,66.778L132.315,66.778L132.893,66.778L133.511,66.778L134.769,66.778L135.404,66.778L136.073,66.778L136.655,66.778L137.269,66.778L138.526,66.778L139.157,66.778L139.822,66.778L140.404,66.778L141.028,66.778L142.287,66.778L142.914,66.778L143.581,66.778L144.167,66.778L144.79,66.778L146.049,66.778L146.69,66.778L147.359,66.778L147.93,66.778L148.553,66.778L149.808,66.778L150.446,66.778L151.116,66.778L151.698,66.778L152.313,66.778L153.57,66.778L154.208,66.778L154.877,66.778L155.461,66.778L156.07,66.778L157.33,66.778L157.969,66.778L158.64,66.778L159.22,66.778L159.829,66.778L161.088,66.778L161.727,66.778L162.395,66.778L162.976,66.778L163.59,66.778L164.848,66.778L165.475,66.778L166.14,66.778L166.727,66.778L167.35,66.778L168.608,66.778L169.235,66.778L169.902,66.778L170.484,66.778L171.109,66.778L172.371,66.778L173.012,66.778L173.681,66.778L174.244,66.778L174.872,66.778L176.13,66.778L176.773,66.778L177.441,66.778L178.017,66.778L178.632,66.778L179.892,66.778L180.53,66.778L181.202,66.778L181.779,66.778L182.393,66.778L183.648,66.778L184.284,66.778L184.952,66.778L185.538,66.778L186.151,66.778L187.406,66.778L188.044,66.778L188.71,66.778L189.296,66.778L189.91,66.778L191.166,66.778L191.796,66.778L192.46,66.778L193.048,66.778L193.67,66.778L194.924,66.778L195.554,66.778L196.221,66.778L196.807,66.778L197.431,66.778L198.689,66.778L199.328,66.778L199.999,66.778" stroke="#54a24b" stroke-width="2"/></g></g><path class="foreground" aria-hidden="true" d="" display="none"/></g><g transform="translate(0,0)"><path class="background" aria-hidden="true" d="M0,0h200v200h-200Z"/><g><g class="mark-line role-mark marks" role="graphics-object" aria-roledescription="line mark container"><path aria-label="Time: Aug 18, 2025; Price: 899; identifier: sdrbike-escape-1-city-disc" role="graphics-symbol" aria-roledescription="line mark" d="M16.033,100.111L16.349,100.111L16.952,100.111L18.212,100.111L18.848,100.111L19.516,100.111L20.099,100.111L20.711,100.111L21.973,100.111L22.603,100.111L23.298,100.111L23.58,100.111L23.858,100.111L24.475,100.111L25.731,100.111L26.366,100.111L27.037,100.111L27.621,100.111L28.233,100.111L29.492,100.111L30.125,100.111L30.796,100.111L31.377,100.111L31.991,100.111L33.249,100.111L33.88,100.111L34.544,100.111L35.127,100.111L35.748,100.111L37.014,100.111L37.637,100.111L38.307,100.111L38.892,100.111L39.509,100.111L40.779,100.111L41.414,100.111L42.1,100.111L42.661,100.111L43.273,100.111L44.534,100.111L45.172,100.111L46.418,100.111L47.03,100.111L48.289,100.111L48.924,100.111L49.171,100.111L49.594,100.111L50.013,100.111L50.177,100.111L50.792,100.111L52.048,100.111L52.686,100.111L53.356,100.111L53.937,100.111L54.551,100.111L55.808,100.111L56.443,100.111L57.111,100.111L57.695,100.111L58.309,100.111L59.564,100.111L60.194,100.111L60.86,100.111L61.446,100.111L62.037,100.111L62.067,100.111L63.326,100.111L63.728,100.111L63.953,100.111L64.622,100.111L65.208,100.111L65.828,100.111L67.098,100.111L67.73,100.111L68.397,100.111L68.973,100.111L69.587,100.111L70.852,100.111L71.488,100.111L72.16,100.111L72.736,100.111L73.35,100.111L74.607,100.111L75.242,100.111L75.912,100.111L76.494,100.111L77.109,100.111L78.366,100.111L79.003,100.111L79.668,100.111L80.257,100.111L80.868,100.111L82.128,100.111L82.763,100.111L83.43,100.111L84.01,100.111L84.629,100.111L85.884,100.111L86.207,100.111L86.512,100.111L87.175,100.111L87.763,100.111L88.387,100.111L89.643,100.111L90.271,100.111L90.937,100.111L91.524,100.111L92.147,100.111L93.41,100.111L94.049,100.111L94.72,100.111L95.297,100.111L95.913,100.111L97.168,100.111L97.808,100.111L98.501,100.111L99.06,100.111L99.669,100.111L100.923,100.111L101.564,100.111L102.231,100.111L102.814,100.111L103.431,100.111L104.688,100.111L105.323,100.111L105.989,100.111L106.567,100.111L107.187,100.111L108.445,100.111L109.081,100.111L109.747,100.111L110.328,100.111L110.947,100.111L112.203,100.111L112.832,100.111L113.496,100.111L114.081,100.111L114.708,100.111L115.964,100.111L116.593,100.111L117.254,100.111L117.84,100.111L118.468,100.111L119.731,100.111L120.364,100.111L121.037,100.111L121.616,100.111L122.231,100.111L123.488,100.111L124.128,100.111L124.796,100.111L125.374,100.111L125.991,100.111L127.249,100.111L127.885,100.111L128.556,100.111L129.135,100.111L129.751,100.111L131.008,100.111L131.644,100.111L132.315,100.111L132.893,100.111L133.511,100.111L134.769,100.111L135.404,100.111L136.073,100.111L136.655,100.111L137.269,100.111L138.526,100.111L139.157,100.111L139.822,100.111L140.404,100.111L141.028,100.111L142.287,100.111L142.914,100.111L143.581,100.111L144.167,100.111L144.79,100.111L146.05,100.111L146.69,100.111L147.359,100.111L147.93,100.111L148.553,100.111L149.808,100.111L150.447,100.111L151.116,100.111L151.698,100.111L152.313,100.111L153.57,100.111L154.208,100.111L154.877,100.111L155.461,100.111L156.07,100.111L157.33,100.111L157.969,100.111L158.64,100.111L159.22,100.111L159.83,100.111L161.089,100.111L161.727,100.111L162.396,100.111L162.977,100.111L163.59,100.111L164.848,100.111L165.475,100.111L166.14,100.111L166.727,100.111L167.351,100.111L168.608,100.111L169.235,100.111L169.902,100.111L170.484,100.111L171.109,100.111L172.372,100.111L173.012,100.111L173.681,100.111L174.244,100.111L174.872,100.111L176.13,100.111L176.773,100.111L177.441,100.111L178.017,100.111L178.632,100.111L179.892,100.111L180.531,100.111L181.202,100.111L181.779,100.111L182.393,100.111L183.648,100.111L184.284,100.111L184.952,100.111L185.538,100.111L186.151,100.111L187.407,100.111L188.044,100.111L188.71,100.111L189.296,100.111L189.91,100.111L191.166,100.111L191.796,100.111L192.46,100.111L193.048,100.111L193.67,100.111L194.924,100.111L195.554,100.111L196.221,100.111L196.807,100.111L197.431,100.111L198.689,100.111L199.328,100.111L199.999,100.111" stroke="#f58518" stroke-width="2"/></g></g><path class="foreground" aria-hidden="true" d="" display="none"/></g><g transform="translate(0,0)"><path class="background" aria-hidden="true" d="M0,0h200v200h-200Z"/><g><g class="mark-line role-mark marks" role="graphics-object" aria-roledescription="line mark container"><path aria-label="Time: Aug 20, 2025; Price: 899; identifier: roam-disc-2-2024" role="graphics-symbol" aria-roledescription="line mark" d="M23.579,100.111L23.858,100.111L24.475,100.111L25.73,100.111L26.366,100.111L27.037,100.111L27.62,100.111L28.233,100.111L29.492,100.111L30.125,100.111L30.795,100.111L31.376,100.111L31.991,100.111L33.249,100.111L33.879,100.111L34.544,100.111L35.127,100.111L35.747,100.111L37.014,100.111L37.637,100.111L38.306,100.111L38.891,100.111L39.509,100.111L40.779,100.111L41.413,100.111L42.099,100.111L42.661,100.111L43.273,100.111L44.533,100.111L45.171,100.111L46.417,100.111L47.029,100.111L48.288,100.111L48.924,100.111L49.17,100.111L49.593,100.111L50.013,100.111L50.177,100.111L50.792,100.111L52.048,100.111L52.685,100.111L53.355,100.111L53.936,100.111L54.551,100.111L55.808,100.111L56.443,100.111L57.111,100.111L57.695,100.111L58.309,100.111L59.564,100.111L60.194,100.111L60.859,100.111L61.446,100.111L62.037,100.111L62.066,100.111L63.326,100.111L63.727,100.111L63.952,100.111L64.621,100.111L65.208,100.111L65.828,100.111L67.098,100.111L67.73,100.111L68.397,100.111L68.973,100.111L69.587,100.111L70.852,100.111L71.487,100.111L72.159,100.111L72.735,100.111L73.35,100.111L74.607,100.111L75.242,100.111L75.911,100.111L76.494,100.111L77.109,100.111L78.366,100.111L79.003,100.111L79.668,100.111L80.256,100.111L80.868,100.111L82.128,100.111L82.762,100.111L83.43,100.111L84.009,100.111L84.629,100.111L85.884,100.111L86.206,100.111L86.511,100.111L87.174,100.111L87.763,100.111L88.387,100.111L89.643,100.111L90.271,100.111L90.937,100.111L91.524,100.111L92.147,100.111L93.409,100.111L94.049,100.111L94.719,100.111L95.297,100.111L95.913,100.111L97.168,100.111L97.807,100.111L98.5,100.111L99.059,100.111L99.668,100.111L100.923,100.111L101.564,100.111L102.23,100.111L102.813,100.111L103.43,100.111L104.688,100.111L105.322,100.111L105.989,100.111L106.566,100.111L107.187,100.111L108.445,100.111L109.081,100.111L109.747,100.111L110.328,100.111L110.947,100.111L112.203,100.111L112.832,100.111L113.496,100.111L114.081,100.111L114.707,100.111L115.964,100.111L116.592,100.111L117.253,100.111L117.84,100.111L118.468,100.111L119.73,100.111L120.364,100.111L121.036,100.111L121.616,100.111L122.23,100.111L123.487,100.111L124.127,100.111L124.795,100.111L125.374,100.111L125.991,100.111L127.249,100.111L127.884,100.111L128.555,100.111L129.135,100.111L129.75,100.111L131.008,100.111L131.644,100.111L132.314,100.111L132.893,100.111L133.511,100.111L134.768,100.111L135.403,100.111L136.073,100.111L136.655,100.111L137.268,100.111L138.526,100.111L139.157,100.111L139.822,100.111L140.403,100.111L141.028,100.111L142.287,100.111L142.914,100.111L143.581,100.111L144.167,100.111L144.789,100.111L146.049,100.111L146.689,100.111L147.358,100.111L147.929,100.111L148.553,100.111L149.808,100.111L150.446,100.111L151.115,100.111L151.698,100.111L152.312,100.111L153.569,100.111L154.208,100.111L154.876,100.111L155.461,100.111L156.07,100.111L157.33,100.111L157.969,100.111L158.639,100.111L159.22,100.111L159.829,100.111L161.088,100.111L161.727,100.111L162.395,100.111L162.976,100.111L163.59,100.111L164.847,100.111L165.474,100.111L166.14,100.111L166.726,100.111L167.35,100.111L168.608,100.111L169.235,100.111L169.901,100.111L170.484,100.111L171.109,100.111L172.371,100.111L173.011,100.111L173.681,100.111L174.244,100.111L174.871,100.111L176.13,100.111L176.773,100.111L177.441,100.111L178.017,100.111L178.632,100.111L179.892,100.111L180.53,100.111L181.201,100.111L181.778,100.111L182.393,100.111L183.648,100.111L184.284,100.111L184.952,100.111L185.537,100.111L186.151,100.111L187.406,100.111L188.044,100.111L188.71,100.111L189.296,100.111L189.91,100.111L191.165,100.111L191.796,100.111L192.46,100.111L193.047,100.111L193.67,100.111L194.924,100.111L195.554,100.111L196.221,100.111L196.807,100.111L197.43,100.111L198.689,100.111L199.328,100.111L199.999,100.111" stroke="#e45756" stroke-width="2"/></g></g><path class="foreground" aria-hidden="true" d="" display="none"/></g><g transform="translate(0,0)"><path class="background" aria-hidden="true" d="M0,0h200v200h-200Z"/><g><g class="mark-line role-mark marks" role="graphics-object" aria-roledescription="line mark container"><path aria-label="Time: Aug 20, 2025; Price: 1199; identifier: thrive-2" role="graphics-symbol" aria-roledescription="line mark" d="M23.58,66.778L23.858,66.778L24.475,66.778L25.731,66.778L26.366,66.778L27.037,66.778L27.621,66.778L28.233,66.778L29.492,66.778L30.125,66.778L30.796,66.778L31.377,66.778L31.991,66.778L33.249,66.778L33.88,66.778L34.544,66.778L35.127,66.778L35.748,66.778L37.014,66.778L37.637,66.778L38.307,66.778L38.892,66.778L39.509,66.778L40.779,66.778L41.414,66.778L42.1,66.778L42.661,66.778L43.273,66.778L44.534,66.778L45.172,66.778L46.418,66.778L47.03,66.778L48.289,66.778L48.924,66.778L49.171,66.778L49.594,66.778L50.013,66.778L50.177,66.778L50.793,66.778L52.048,66.778L52.686,66.778L53.356,66.778L53.937,66.778L54.551,66.778L55.809,66.778L56.443,66.778L57.111,66.778L57.695,66.778L58.309,66.778L59.564,66.778L60.194,66.778L60.86,66.778L61.446,66.778L62.038,66.778L62.067,66.778L63.326,66.778L63.728,66.778L63.953,66.778L64.622,66.778L65.208,66.778L65.828,66.778L67.098,66.778L67.73,66.778L68.397,66.778L68.973,66.778L69.588,66.778L70.852,66.778L71.488,66.778L72.16,66.778L72.736,66.778L73.35,66.778L74.607,66.778L75.242,66.778L75.912,66.778L76.494,66.778L77.109,66.778L78.367,66.778L79.004,66.778L79.668,66.778L80.257,66.778L80.868,66.778L82.128,66.778L82.763,66.778L83.431,66.778L84.01,66.778L84.63,66.778L85.884,66.778L86.207,66.778L86.512,66.778L87.175,66.778L87.764,66.778L88.388,66.778L89.643,66.778L90.271,66.778L90.937,66.778L91.524,66.778L92.147,66.778L93.41,66.778L94.049,66.778L94.72,66.778L95.297,66.778L95.913,66.778L97.168,66.778L97.808,66.778L98.501,66.778L99.06,66.778L99.669,66.778L100.923,66.778L101.564,66.778L102.231,66.778L102.814,66.778L103.431,66.778L104.688,66.778L105.323,66.778L105.989,66.778L106.567,66.778L107.188,66.778L108.445,66.778L109.082,66.778L109.747,66.778L110.329,66.778L110.947,66.778L112.203,66.778L112.833,66.778L113.496,66.778L114.081,66.778L114.708,66.778L115.964,66.778L116.593,66.778L117.254,66.778L117.84,66.778L118.468,66.778L119.731,66.778L120.365,66.778L121.037,66.778L121.616,66.778L122.231,66.778L123.488,66.778L124.128,66.778L124.796,66.778L125.374,66.778L125.991,66.778L127.249,66.778L127.885,66.778L128.556,66.778L129.135,66.778L129.751,66.778L131.009,66.778L131.644,66.778L132.315,66.778L132.893,66.778L133.511,66.778L134.769,66.778L135.404,66.778L136.074,66.778L136.655,66.778L137.269,66.778L138.526,66.778L139.157,66.778L139.822,66.778L140.404,66.778L141.028,66.778L142.287,66.778L142.914,66.778L143.581,66.778L144.167,66.778L144.79,66.778L146.05,66.778L146.69,66.778L147.359,66.778L147.93,66.778L148.553,66.778L149.809,66.778L150.447,66.778L151.116,66.778L151.698,66.778L152.313,66.778L153.57,66.778L154.208,66.778L154.877,66.778L155.461,66.778L156.07,66.778L157.33,66.778L157.97,66.778L158.64,66.778L159.22,66.778L159.83,66.778L161.089,66.778L161.728,66.778L162.396,66.778L162.977,66.778L163.59,66.778L164.848,66.778L165.475,66.778L166.14,66.778L166.727,66.778L167.351,66.778L168.608,66.778L169.235,66.778L169.902,66.778L170.484,66.778L171.109,66.778L172.372,66.778L173.012,66.778L173.682,66.778L174.244,66.778L174.872,66.778L176.13,66.778L176.774,66.778L177.441,66.778L178.017,66.778L178.632,66.778L179.893,66.778L180.531,66.778L181.202,66.778L181.779,66.778L182.393,66.778L183.648,66.778L184.284,66.778L184.952,66.778L185.538,66.778L186.151,66.778L187.407,66.778L188.044,66.778L188.71,66.778L189.296,66.778L189.91,66.778L191.166,66.778L191.797,66.778L192.46,66.778L193.048,66.778L193.67,66.778L194.924,66.778L195.554,66.778L196.221,66.778L196.807,66.778L197.431,66.778L198.689,66.778L199.328,66.778L199.999,66.778" stroke="#eeca3b" stroke-width="2"/></g></g><path class="foreground" aria-hidden="true" d="" display="none"/></g><g transform="translate(0,0)"><path class="background" aria-hidden="true" d="M0,0h200v200h-200Z"/><g><g class="mark-line role-mark marks" role="graphics-object" aria-roledescription="line mark container"><path aria-label="Time: Aug 20, 2025; Price: 999; identifier: rove-2" role="graphics-symbol" aria-roledescription="line mark" d="M23.58,89L23.858,89L24.476,89L25.731,89L26.367,89L27.037,89L27.621,89L28.233,89L29.492,89L30.126,89L30.796,89L31.377,89L31.992,89L33.25,89L33.88,89L34.544,89L35.127,89L35.748,89L37.014,89L37.637,89L38.307,89L38.892,89L39.509,89L40.779,89L41.414,89L42.1,89L42.661,89L43.274,89L44.534,89L45.172,89L46.418,89L47.03,89L48.289,89L48.924,89L49.171,89L49.594,89L50.013,89L50.177,89L50.793,89L52.048,89L52.686,89L53.356,89L53.937,89L54.551,89L55.809,89L56.443,89L57.111,89L57.695,89L58.309,89L62.038,111.222L62.067,111.222L63.326,111.222L63.728,111.222L63.953,111.222L64.622,111.222L65.209,111.222L65.828,111.222L67.098,111.222L67.73,111.222L68.397,111.222L68.973,111.222L69.588,111.222L70.852,111.222L71.488,111.222L72.16,111.222L72.736,111.222L73.35,111.222L74.607,111.222L75.242,111.222L75.912,111.222L76.494,111.222L77.109,111.222L78.367,111.222L79.004,111.222L79.668,111.222L80.257,111.222L80.868,111.222L82.128,111.222L82.763,111.222L83.431,111.222L84.01,111.222L84.63,111.222L85.884,111.222L86.207,111.222L86.512,111.222L87.175,111.222L87.764,111.222L88.388,111.222L89.643,111.222L90.271,111.222L90.937,111.222L91.524,111.222L92.147,111.222L93.41,111.222L94.049,111.222L94.72,111.222L95.297,111.222L95.913,111.222L97.168,111.222L97.808,111.222L98.501,111.222L99.06,111.222L99.669,111.222L100.923,111.222L101.564,111.222L102.231,111.222L102.814,111.222L103.431,111.222L104.688,111.222L105.323,111.222L105.989,111.222L106.567,111.222L107.188,111.222L108.445,111.222L109.082,111.222L109.748,111.222L110.329,111.222L110.948,111.222L112.203,111.222L112.833,111.222L113.497,111.222L114.082,111.222L114.708,111.222L115.965,111.222L116.593,111.222L117.254,111.222L117.841,111.222L118.468,111.222L119.731,111.222L120.365,111.222L121.037,111.222L121.616,111.222L122.231,111.222L123.488,111.222L124.128,111.222L124.796,111.222L125.374,111.222L125.991,111.222L127.249,111.222L127.885,111.222L128.556,111.222L129.135,111.222L129.751,111.222L131.009,111.222L131.644,111.222L132.315,111.222L132.893,111.222L133.511,111.222L134.769,111.222L135.404,111.222L136.074,111.222L136.655,111.222L137.269,111.222L138.526,111.222L139.157,111.222L139.822,111.222L140.404,111.222L141.028,111.222L142.288,111.222L142.914,111.222L143.581,111.222L144.167,111.222L144.79,111.222L146.05,111.222L146.69,111.222L147.359,111.222L147.93,111.222L148.553,111.222L149.809,111.222L150.447,111.222L151.116,111.222L151.699,111.222L152.313,111.222L153.57,111.222L154.208,111.222L154.877,111.222L155.461,111.222L156.07,111.222L157.33,111.222L157.97,111.222L158.64,111.222L159.22,111.222L159.83,111.222L161.089,111.222L161.728,111.222L162.396,111.222L162.977,111.222L163.59,111.222L164.848,111.222L165.475,111.222L166.141,111.222L166.727,111.222L167.351,111.222L168.608,111.222L169.235,111.222L169.902,111.222L170.484,111.222L171.11,111.222L172.372,111.222L173.012,111.222L173.682,111.222L174.244,111.222L174.872,111.222L176.13,111.222L176.774,111.222L177.441,111.222L178.017,111.222L178.633,111.222L179.893,111.222L180.531,111.222L181.202,111.222L181.779,111.222L182.393,111.222L183.648,111.222L184.284,111.222L184.952,111.222L185.538,111.222L186.151,111.222L187.407,111.222L188.044,111.222L188.711,111.222L189.296,111.222L189.91,111.222L191.166,111.222L191.797,111.222L192.46,111.222L193.048,111.222L193.67,111.222L194.924,111.222L195.554,111.222L196.222,111.222L196.808,111.222L197.431,111.222L198.69,111.222L199.328,111.222L199.999,111.222" stroke="#72b7b2" stroke-width="2"/></g></g><path class="foreground" aria-hidden="true" d="" display="none"/></g><g transform="translate(0,0)"><path class="background" aria-hidden="true" d="M0,0h200v200h-200Z"/><g><g class="mark-line role-mark marks" role="graphics-object" aria-roledescription="line mark container"><path aria-label="Time: Aug 27, 2025; Price: 1199; identifier: allure-rs-1-2023" role="graphics-symbol" aria-roledescription="line mark" d="M49.172,66.778L49.594,66.778L50.013,66.778L50.177,66.778L50.793,66.778L52.048,66.778L52.686,66.778L53.356,66.778L53.937,66.778L54.551,66.778L55.809,66.778L56.443,66.778L57.111,66.778L57.695,66.778L58.309,66.778L59.564,66.778L60.195,66.778L60.86,66.778L61.446,66.778L62.038,66.778L62.067,66.778L63.326,66.778L63.728,66.778L63.953,66.778L64.622,66.778L65.209,66.778L65.828,66.778L67.098,66.778L67.73,66.778L68.398,66.778L68.973,66.778L69.588,66.778L70.852,66.778L71.488,66.778L72.16,66.778L72.736,66.778L73.35,66.778L74.608,66.778L75.242,66.778L75.912,66.778L76.494,66.778L77.109,66.778L78.367,66.778L79.004,66.778L79.669,66.778L80.257,66.778L80.868,66.778L82.128,66.778L82.763,66.778L83.431,66.778L84.01,66.778L84.63,66.778L85.884,66.778L86.207,66.778L86.512,66.778L87.175,66.778L87.764,66.778L88.388,66.778L89.643,66.778L90.271,66.778L90.937,66.778L91.524,66.778L92.148,66.778L93.41,66.778L94.049,66.778L94.72,66.778L95.298,66.778L95.913,66.778L97.168,66.778L97.808,66.778L98.501,66.778L99.06,66.778L99.669,66.778L100.923,66.778L101.564,66.778L102.231,66.778L102.814,66.778L103.431,66.778L104.688,66.778L105.323,66.778L105.989,66.778L106.567,66.778L107.188,66.778L108.445,66.778L109.082,66.778L109.748,66.778L110.329,66.778L110.948,66.778L112.203,66.778L112.833,66.778L113.497,66.778L114.082,66.778L114.708,66.778L115.965,66.778L116.593,66.778L117.254,66.778L117.841,66.778L118.468,66.778L119.731,66.778L120.365,66.778L121.037,66.778L121.616,66.778L122.231,66.778L123.488,66.778L124.128,66.778L124.796,66.778L125.375,66.778L125.991,66.778L127.249,66.778L127.885,66.778L128.556,66.778L129.136,66.778L129.751,66.778L131.009,66.778L131.644,66.778L132.315,66.778L132.893,66.778L133.511,66.778L134.769,66.778L135.404,66.778L136.074,66.778L136.656,66.778L137.269,66.778L138.526,66.778L139.157,66.778L139.822,66.778L140.404,66.778L141.028,66.778L142.288,66.778L142.914,66.778L143.581,66.778L144.167,66.778L144.79,66.778L146.05,66.778L146.69,66.778L147.359,66.778L147.93,66.778L148.553,66.778L149.809,66.778L150.447,66.778L151.116,66.778L151.699,66.778L152.313,66.778L153.57,66.778L154.208,66.778L154.877,66.778L155.461,66.778L156.07,66.778L157.33,66.778L157.97,66.778L158.64,66.778L159.22,66.778L159.83,66.778L161.089,66.778L161.728,66.778L162.396,66.778L162.977,66.778L163.59,66.778L164.848,66.778L165.475,66.778L166.141,66.778L166.727,66.778L167.351,66.778L168.608,66.778L169.236,66.778L169.902,66.778L170.484,66.778L171.11,66.778L172.372,66.778L173.012,66.778L173.682,66.778L174.244,66.778L174.872,66.778L176.13,66.778L176.774,66.778L177.441,66.778L178.017,66.778L178.633,66.778L179.893,66.778L180.531,66.778L181.202,66.778L181.779,66.778L182.393,66.778L183.648,66.778L184.285,66.778L184.952,66.778L185.538,66.778L186.151,66.778L187.407,66.778L188.044,66.778L188.711,66.778L189.296,66.778L189.91,66.778L191.166,66.778L191.797,66.778L192.46,66.778L193.048,66.778L193.67,66.778L194.924,66.778L195.554,66.778L196.222,66.778L196.808,66.778L197.431,66.778L198.69,66.778L199.329,66.778L199.999,66.778" stroke="#b279a2" stroke-width="2"/></g></g><path class="foreground" aria-hidden="true" d="" display="none"/></g><g transform="translate(0,0)"><path class="background" aria-hidden="true" d="M0,0h200v200h-200Z"/><g><g class="mark-line role-mark marks" role="graphics-object" aria-roledescription="line mark container"><path aria-label="Time: Aug 27, 2025; Price: 999; identifier: allure-rs-2-2022" role="graphics-symbol" aria-roledescription="line mark" d="M49.172,89L49.594,89L50.013,89L50.178,89L50.793,89L52.048,89L52.686,89L53.356,89L53.937,89L54.551,89L55.809,89L56.444,89L57.111,89L57.696,89L58.309,89L62.038,111.222L62.067,111.222L63.326,111.222L63.728,111.222L63.953,111.222L64.622,111.222L65.209,111.222L65.828,111.222L67.098,111.222L67.73,111.222L68.398,111.222L68.974,111.222L69.588,111.222L70.853,111.222L71.488,111.222L72.16,111.222L72.736,111.222L73.35,111.222L74.608,111.222L75.242,111.222L75.912,111.222L76.494,111.222L77.109,111.222L78.367,111.222L79.004,111.222L79.669,111.222L80.257,111.222L80.869,111.222L82.128,111.222L82.763,111.222L83.431,111.222L84.01,111.222L84.63,111.222L85.884,111.222L86.207,111.222L86.512,111.222L87.175,111.222L87.764,111.222L88.388,111.222L89.643,111.222L90.272,111.222L90.938,111.222L91.524,111.222L92.148,111.222L93.41,111.222L94.049,111.222L94.72,111.222L95.298,111.222L95.913,111.222L97.169,111.222L97.808,111.222L98.501,111.222L99.06,111.222L99.669,111.222L100.923,111.222L101.564,111.222L102.231,111.222L102.814,111.222L103.431,111.222L104.688,111.222L105.323,111.222L105.989,111.222L106.567,111.222L107.188,111.222L108.446,111.222L109.082,111.222L109.748,111.222L110.329,111.222L110.948,111.222L112.203,111.222L112.833,111.222L113.497,111.222L114.082,111.222L114.708,111.222L115.965,111.222L116.593,111.222L117.254,111.222L117.841,111.222L118.468,111.222L119.731,111.222L120.365,111.222L121.037,111.222L121.616,111.222L122.231,111.222L123.488,111.222L124.128,111.222L124.796,111.222L125.375,111.222L125.992,111.222L127.249,111.222L127.885,111.222L128.556,111.222L129.136,111.222L129.751,111.222L131.009,111.222L131.644,111.222L132.315,111.222L132.893,111.222L133.512,111.222L134.769,111.222L135.404,111.222L136.074,111.222L136.656,111.222L137.269,111.222L138.526,111.222L139.158,111.222L139.823,111.222L140.404,111.222L141.028,111.222L142.288,111.222L142.914,111.222L143.581,111.222L144.167,111.222L144.79,111.222L146.05,111.222L146.69,111.222L147.359,111.222L147.93,111.222L148.553,111.222L149.809,111.222L150.447,111.222L151.116,111.222L151.699,111.222L152.313,111.222L153.57,111.222L154.208,111.222L154.877,111.222L155.461,111.222L156.07,111.222L157.33,111.222L157.97,111.222L158.64,111.222L159.221,111.222L159.83,111.222L161.089,111.222L161.728,111.222L162.396,111.222L162.977,111.222L163.59,111.222L164.848,111.222L165.475,111.222L166.141,111.222L166.727,111.222L167.351,111.222L168.608,111.222L169.236,111.222L169.902,111.222L170.484,111.222L171.11,111.222L172.372,111.222L173.012,111.222L173.682,111.222L174.244,111.222L174.872,111.222L176.131,111.222L176.774,111.222L177.441,111.222L178.017,111.222L178.633,111.222L179.893,111.222L180.531,111.222L181.202,111.222L181.779,111.222L182.393,111.222L183.648,111.222L184.285,111.222L184.952,111.222L185.538,111.222L186.151,111.222L187.407,111.222L188.045,111.222L188.711,111.222L189.296,111.222L189.911,111.222L191.166,111.222L191.797,111.222L192.461,111.222L193.048,111.222L193.67,111.222L194.924,111.222L195.555,111.222L196.222,111.222L196.808,111.222L197.431,111.222L198.69,111.222L199.329,111.222L199.999,111.222" stroke="#54a24b" stroke-width="2"/></g></g><path class="foreground" aria-hidden="true" d="" display="none"/></g><g transform="translate(0,0)"><path class="background" aria-hidden="true" d="M0,0h200v200h-200Z"/><g><g class="mark-line role-mark marks" role="graphics-object" aria-roledescription="line mark container"><path aria-label="Time: Aug 27, 2025; Price: 949; identifier: allure-rs-2-2023" role="graphics-symbol" aria-roledescription="line mark" d="M49.172,94.556L49.594,94.556L50.013,94.556L50.178,94.556L50.793,94.556L52.049,94.556L52.686,94.556L53.356,94.556L53.937,94.556L54.551,94.556L55.809,94.556L56.444,94.556L57.112,94.556L57.696,94.556L58.309,94.556L59.565,94.556L60.195,94.556L60.86,94.556L61.447,94.556L62.038,94.556L62.067,94.556L63.326,94.556L63.728,94.556L63.953,94.556L64.622,94.556L65.209,94.556L65.829,94.556L67.098,94.556L67.73,94.556L68.398,94.556L68.974,94.556L69.588,94.556L70.853,94.556L71.488,94.556L72.16,94.556L72.736,94.556L73.351,94.556L74.608,94.556L75.242,94.556L75.912,94.556L76.494,94.556L77.109,94.556L78.367,94.556L79.004,94.556L79.669,94.556L80.257,94.556L80.869,94.556L82.128,94.556L82.763,94.556L83.431,94.556L84.01,94.556L84.63,94.556L85.885,94.556L86.207,94.556L86.512,94.556L87.175,94.556L87.764,94.556L88.388,94.556L89.643,94.556L90.272,94.556L90.938,94.556L91.524,94.556L92.148,94.556L93.41,94.556L94.05,94.556L94.72,94.556L95.298,94.556L95.913,94.556L97.169,94.556L97.808,94.556L98.501,94.556L99.06,94.556L99.669,94.556L100.923,94.556L101.565,94.556L102.231,94.556L102.814,94.556L103.431,94.556L104.689,94.556L105.323,94.556L105.99,94.556L106.567,94.556L107.188,94.556L108.446,94.556L109.082,94.556L109.748,94.556L110.329,94.556L110.948,94.556L112.203,94.556L112.833,94.556L113.497,94.556L114.082,94.556L114.708,94.556L115.965,94.556L116.593,94.556L117.254,94.556L117.841,94.556L118.468,94.556L119.731,94.556L120.365,94.556L121.037,94.556L121.617,94.556L122.231,94.556L123.488,94.556L124.128,94.556L124.796,94.556L125.375,94.556L125.992,94.556L127.249,94.556L127.885,94.556L128.556,94.556L129.136,94.556L129.751,94.556L131.009,94.556L131.644,94.556L132.315,94.556L132.894,94.556L133.512,94.556L134.769,94.556L135.404,94.556L136.074,94.556L136.656,94.556L137.269,94.556L138.526,94.556L139.158,94.556L139.823,94.556L140.404,94.556L141.028,94.556L142.288,94.556L142.915,94.556L143.582,94.556L144.167,94.556L144.79,94.556L146.05,94.556L146.69,94.556L147.359,94.556L147.93,94.556L148.553,94.556L149.809,94.556L150.447,94.556L151.116,94.556L151.699,94.556L152.313,94.556L153.57,94.556L154.209,94.556L154.877,94.556L155.462,94.556L156.071,94.556L157.331,94.556L157.97,94.556L158.64,94.556L159.221,94.556L159.83,94.556L161.089,94.556L161.728,94.556L162.396,94.556L162.977,94.556L163.59,94.556L164.848,94.556L165.475,94.556L166.141,94.556L166.727,94.556L167.351,94.556L168.608,94.556L169.236,94.556L169.902,94.556L170.484,94.556L171.11,94.556L172.372,94.556L173.012,94.556L173.682,94.556L174.245,94.556L174.872,94.556L176.131,94.556L176.774,94.556L177.441,94.556L178.017,94.556L178.633,94.556L179.893,94.556L180.531,94.556L181.202,94.556L181.779,94.556L182.393,94.556L183.648,94.556L184.285,94.556L184.952,94.556L185.538,94.556L186.151,94.556L187.407,94.556L188.045,94.556L188.711,94.556L189.296,94.556L189.911,94.556L191.166,94.556L191.797,94.556L192.461,94.556L193.048,94.556L193.67,94.556L194.925,94.556L195.555,94.556L196.222,94.556L196.808,94.556L197.431,94.556L198.69,94.556L199.329,94.556L199.999,94.556" stroke="#bab0ac" stroke-width="2"/></g></g><path class="foreground" aria-hidden="true" d="" display="none"/></g><g transform="translate(0,0)"><path class="background" aria-hidden="true" d="M0,0h200v200h-200Z"/><g><g class="mark-line role-mark marks" role="graphics-object" aria-roledescription="line mark container"><path aria-label="Time: Aug 27, 2025; Price: 999; identifier: allure-rs-2-2024" role="graphics-symbol" aria-roledescription="line mark" d="M49.172,89L49.594,89L50.013,89L50.178,89L50.793,89L52.049,89L52.686,89L53.356,89L53.937,89L54.551,89L55.809,89L56.444,89L57.112,89L57.696,89L58.31,89L62.038,111.222L62.067,111.222L63.326,111.222L63.728,111.222L63.953,111.222L64.622,111.222L65.209,111.222L65.829,111.222L67.098,111.222L67.731,111.222L68.398,111.222L68.974,111.222L69.588,111.222L70.853,111.222L71.488,111.222L72.16,111.222L72.736,111.222L73.351,111.222L74.608,111.222L75.242,111.222L75.912,111.222L76.494,111.222L77.109,111.222L78.367,111.222L79.004,111.222L79.669,111.222L80.257,111.222L80.869,111.222L82.129,111.222L82.763,111.222L83.431,111.222L84.01,111.222L84.63,111.222L85.885,111.222L86.207,111.222L86.512,111.222L87.175,111.222L87.764,111.222L88.388,111.222L89.643,111.222L90.272,111.222L90.938,111.222L91.524,111.222L92.148,111.222L93.41,111.222L94.05,111.222L94.72,111.222L95.298,111.222L95.914,111.222L97.169,111.222L97.808,111.222L98.502,111.222L99.06,111.222L99.669,111.222L100.924,111.222L101.565,111.222L102.231,111.222L102.814,111.222L103.431,111.222L104.689,111.222L105.323,111.222L105.99,111.222L106.567,111.222L107.188,111.222L108.446,111.222L109.082,111.222L109.748,111.222L110.329,111.222L110.948,111.222L112.203,111.222L112.833,111.222L113.497,111.222L114.082,111.222L114.708,111.222L115.965,111.222L116.593,111.222L117.254,111.222L117.841,111.222L118.468,111.222L119.731,111.222L120.365,111.222L121.037,111.222L121.617,111.222L122.231,111.222L123.488,111.222L124.128,111.222L124.796,111.222L125.375,111.222L125.992,111.222L127.25,111.222L127.885,111.222L128.556,111.222L129.136,111.222L129.751,111.222L131.009,111.222L131.644,111.222L132.315,111.222L132.894,111.222L133.512,111.222L134.769,111.222L135.404,111.222L136.074,111.222L136.656,111.222L137.269,111.222L138.527,111.222L139.158,111.222L139.823,111.222L140.404,111.222L141.028,111.222L142.288,111.222L142.915,111.222L143.582,111.222L144.168,111.222L144.79,111.222L146.05,111.222L146.69,111.222L147.359,111.222L147.93,111.222L148.554,111.222L149.809,111.222L150.447,111.222L151.116,111.222L151.699,111.222L152.313,111.222L153.57,111.222L154.209,111.222L154.877,111.222L155.462,111.222L156.071,111.222L157.331,111.222L157.97,111.222L158.64,111.222L159.221,111.222L159.83,111.222L161.089,111.222L161.728,111.222L162.396,111.222L162.977,111.222L163.591,111.222L164.848,111.222L165.475,111.222L166.141,111.222L166.727,111.222L167.351,111.222L168.609,111.222L169.236,111.222L169.903,111.222L170.484,111.222L171.11,111.222L172.372,111.222L173.012,111.222L173.682,111.222L174.245,111.222L174.872,111.222L176.131,111.222L176.774,111.222L177.441,111.222L178.017,111.222L178.633,111.222L179.893,111.222L180.531,111.222L181.202,111.222L181.779,111.222L182.393,111.222L183.648,111.222L184.285,111.222L184.953,111.222L185.538,111.222L186.151,111.222L187.407,111.222L188.045,111.222L188.711,111.222L189.296,111.222L189.911,111.222L191.166,111.222L191.797,111.222L192.461,111.222L193.048,111.222L193.671,111.222L194.925,111.222L195.555,111.222L196.222,111.222L196.808,111.222L197.431,111.222L198.69,111.222L199.329,111.222L200,111.222" stroke="#eeca3b" stroke-width="2"/></g></g><path class="foreground" aria-hidden="true" d="" display="none"/></g><g transform="translate(0,0)"><path class="background" aria-hidden="true" d="M0,0h200v200h-200Z"/><g><g class="mark-line role-mark marks" role="graphics-object" aria-roledescription="line mark container"><path aria-label="Time: Aug 27, 2025; Price: 1799; identifier: devote-1-2024" role="graphics-symbol" aria-roledescription="line mark" d="M50.013,0.111L50.178,0.111L50.793,0.111L52.049,0.111L52.686,0.111L53.356,0.111L53.937,0.111L54.552,0.111L55.809,0.111L56.444,0.111L57.112,0.111L57.696,0.111L58.31,0.111L62.038,44.556L62.067,44.556L63.326,44.556L63.728,44.556L63.954,44.556L64.622,44.556L65.209,44.556L65.829,44.556L67.099,44.556L67.731,44.556L68.398,44.556L68.974,44.556L69.588,44.556L70.853,44.556L71.488,44.556L72.16,44.556L72.736,44.556L73.351,44.556L74.608,44.556L75.242,44.556L75.912,44.556L76.494,44.556L77.109,44.556L78.367,44.556L79.004,44.556L79.669,44.556L80.257,44.556L80.869,44.556L82.129,44.556L82.763,44.556L83.431,44.556L84.01,44.556L84.63,44.556L85.885,44.556L86.207,44.556L86.512,44.556L87.175,44.556L87.764,44.556L88.388,44.556L89.644,44.556L90.272,44.556L90.938,44.556L91.524,44.556L92.148,44.556L93.41,44.556L94.05,44.556L94.72,44.556L95.298,44.556L95.914,44.556L97.169,44.556L97.808,44.556L98.502,44.556L99.06,44.556L99.669,44.556L100.924,44.556L101.565,44.556L102.231,44.556L102.815,44.556L103.431,44.556L104.689,44.556L105.323,44.556L105.99,44.556L106.567,44.556L107.188,44.556L108.446,44.556L109.082,44.556L109.748,44.556L110.329,44.556L110.948,44.556L112.204,44.556L112.833,44.556L113.497,44.556L114.082,44.556L114.708,44.556L115.965,44.556L116.593,44.556L117.254,44.556L117.841,44.556L118.469,44.556L119.731,44.556L120.365,44.556L121.037,44.556L121.617,44.556L122.232,44.556L123.488,44.556L124.128,44.556L124.796,44.556L125.375,44.556L125.992,44.556L127.25,44.556L127.885,44.556L128.557,44.556L129.136,44.556L129.751,44.556L131.009,44.556L131.644,44.556L132.316,44.556L132.894,44.556L133.512,44.556L134.769,44.556L135.404,44.556L136.074,44.556L136.656,44.556L137.269,44.556L138.527,44.556L139.158,44.556L139.823,44.556L140.404,44.556L141.028,44.556L142.288,44.556L142.915,44.556L143.582,44.556L144.168,44.556L144.79,44.556L146.05,44.556L146.69,44.556L147.359,44.556L147.93,44.556L148.554,44.556L149.809,44.556L150.447,44.556L151.116,44.556L151.699,44.556L152.313,44.556L153.57,44.556L154.209,44.556L154.877,44.556L155.462,44.556L156.071,44.556L157.331,44.556L157.97,44.556L158.641,44.556L159.221,44.556L159.83,44.556L161.089,44.556L161.728,44.556L162.396,44.556L162.977,44.556L163.591,44.556L164.848,44.556L165.475,44.556L166.141,44.556L166.727,44.556L167.351,44.556L168.609,44.556L169.236,44.556L169.903,44.556L170.484,44.556L171.11,44.556L172.372,44.556L173.012,44.556L173.682,44.556L174.245,44.556L174.872,44.556L176.131,44.556L176.774,44.556L177.441,44.556L178.018,44.556L178.633,44.556L179.893,44.556L180.531,44.556L181.202,44.556L181.779,44.556L182.394,44.556L183.648,44.556L184.285,44.556L184.953,44.556L185.538,44.556L186.151,44.556L187.407,44.556L188.045,44.556L188.711,44.556L189.296,44.556L189.911,44.556L191.166,44.556L191.797,44.556L192.461,44.556L193.048,44.556L193.671,44.556L194.925,44.556L195.555,44.556L196.222,44.556L196.808,44.556L197.431,44.556L198.69,44.556L199.329,44.556L200,44.556" stroke="#72b7b2" stroke-width="2"/></g></g><path class="foreground" aria-hidden="true" d="" display="none"/></g><g transform="translate(0,0)"><path class="background" aria-hidden="true" d="M0,0h200v200h-200Z"/><g><g class="mark-line role-mark marks" role="graphics-object" aria-roledescription="line mark container"><path aria-label="Time: Aug 27, 2025; Price: 1699; identifier: devote-1-2022" role="graphics-symbol" aria-roledescription="line mark" d="M50.013,11.222L50.178,11.222L50.793,11.222L52.049,11.222L52.686,11.222L53.356,11.222L53.937,11.222L54.552,11.222L55.809,11.222L56.444,11.222L57.112,11.222L57.696,11.222L58.31,11.222L59.565,11.222L60.195,11.222L60.86,11.222L61.447,11.222L62.038,11.222L62.067,11.222L63.327,11.222L63.728,11.222L63.954,11.222L64.622,11.222L65.209,11.222L65.829,11.222L67.099,11.222L67.731,11.222L68.398,11.222L68.974,11.222L69.588,11.222L70.853,11.222L71.488,11.222L72.161,11.222L72.736,11.222L73.351,11.222L74.608,11.222L75.242,11.222L75.912,11.222L76.495,11.222L77.109,11.222L78.367,11.222L79.004,11.222L79.669,11.222L80.257,11.222L80.869,11.222L82.129,11.222L82.763,11.222L83.431,11.222L84.01,11.222L84.63,11.222L85.885,11.222L86.207,11.222L86.512,11.222L87.176,11.222L87.764,11.222L88.388,11.222L89.644,11.222L90.272,11.222L90.938,11.222L91.525,11.222L92.148,11.222L93.41,11.222L94.05,11.222L94.72,11.222L95.298,11.222L95.914,11.222L97.169,11.222L97.808,11.222L98.502,11.222L99.061,11.222L99.67,11.222L100.924,11.222L101.565,11.222L102.231,11.222L102.815,11.222L103.431,11.222L104.689,11.222L105.323,11.222L105.99,11.222L106.567,11.222L107.188,11.222L108.446,11.222L109.082,11.222L109.748,11.222L110.329,11.222L110.948,11.222L112.204,11.222L112.833,11.222L113.497,11.222L114.082,11.222L114.709,11.222L115.965,11.222L116.593,11.222L117.254,11.222L117.841,11.222L118.469,11.222L119.731,11.222L120.365,11.222L121.037,11.222L121.618,11.222L122.233,11.222L123.488,11.222L124.128,11.222L124.796,11.222L125.375,11.222L125.992,11.222L127.25,11.222L127.885,11.222L128.557,11.222L129.136,11.222L129.751,11.222L131.009,11.222L131.644,11.222L132.316,11.222L132.894,11.222L133.512,11.222L134.769,11.222L135.405,11.222L136.074,11.222L136.656,11.222L137.27,11.222L138.527,11.222L139.158,11.222L139.823,11.222L140.404,11.222L141.028,11.222L142.288,11.222L142.915,11.222L143.582,11.222L144.168,11.222L144.79,11.222L146.05,11.222L146.69,11.222L147.359,11.222L147.93,11.222L148.554,11.222L149.809,11.222L150.447,11.222L151.117,11.222L151.699,11.222L152.313,11.222L153.57,11.222L154.209,11.222L154.877,11.222L155.462,11.222L156.071,11.222L157.331,11.222L157.97,11.222L158.641,11.222L159.221,11.222L159.83,11.222L161.089,11.222L161.728,11.222L162.396,11.222L162.977,11.222L163.591,11.222L164.849,11.222L165.475,11.222L166.141,11.222L166.727,11.222L167.351,11.222L168.609,11.222L169.236,11.222L169.903,11.222L170.484,11.222L171.11,11.222L172.373,11.222L173.012,11.222L173.682,11.222L174.245,11.222L174.873,11.222L176.131,11.222L176.774,11.222L177.442,11.222L178.018,11.222L178.633,11.222L179.893,11.222L180.531,11.222L181.202,11.222L181.779,11.222L182.394,11.222L183.648,11.222L184.285,11.222L184.953,11.222L185.539,11.222L186.152,11.222L187.407,11.222L188.045,11.222L188.711,11.222L189.296,11.222L189.911,11.222L191.166,11.222L191.797,11.222L192.461,11.222L193.048,11.222L193.671,11.222L194.925,11.222L195.555,11.222L196.222,11.222L196.808,11.222L197.431,11.222L198.69,11.222L199.329,11.222L200,11.222" stroke="#4c78a8" stroke-width="2"/></g></g><path class="foreground" aria-hidden="true" d="" display="none"/></g><g transform="translate(0,0)"><path class="background" aria-hidden="true" d="M0,0h200v200h-200Z"/><g><g class="mark-line role-mark marks" role="graphics-object" aria-roledescription="line mark container"><path aria-label="Time: Aug 31, 2025; Price: 1599; identifier: silex-400-oak-bork-2026" role="graphics-symbol" aria-roledescription="line mark" d="M63.728,22.333L63.954,22.333L64.622,22.333L65.209,22.333L65.829,22.333L67.099,22.333L67.731,22.333L68.398,22.333L68.974,22.333L69.588,22.333L70.853,22.333L71.489,22.333L72.161,22.333L72.736,22.333L73.351,22.333L74.608,22.333L75.243,22.333L75.912,22.333L76.495,22.333L77.11,22.333L78.367,22.333L79.004,22.333L79.669,22.333L80.258,22.333L80.869,22.333L82.129,22.333L82.763,22.333L83.431,22.333L84.011,22.333L84.63,22.333L85.885,22.333L86.207,22.333L86.513,22.333L87.176,22.333L87.764,22.333L88.388,22.333L89.644,22.333L90.272,22.333L90.938,22.333L91.525,22.333L92.148,22.333L93.411,22.333L94.05,22.333L94.721,22.333L95.298,22.333L95.914,22.333L97.169,22.333L97.808,22.333L98.502,22.333L99.061,22.333L99.67,22.333L100.924,22.333L101.565,22.333L102.232,22.333L102.815,22.333L103.432,22.333L104.689,22.333L105.324,22.333L105.99,22.333L106.568,22.333L107.188,22.333L108.446,22.333L109.082,22.333L109.749,22.333L110.329,22.333L110.948,22.333L112.204,22.333L112.833,22.333L113.497,22.333L114.082,22.333L114.709,22.333L115.965,22.333L116.594,22.333L117.255,22.333L117.841,22.333L118.469,22.333L119.732,22.333L120.365,22.333L121.038,22.333L121.618,22.333L122.233,22.333L123.488,22.333L124.129,22.333L124.796,22.333L125.375,22.333L125.992,22.333L127.25,22.333L127.886,22.333L128.557,22.333L129.136,22.333L129.752,22.333L131.009,22.333L131.645,22.333L132.316,22.333L132.894,22.333L133.512,22.333L134.77,22.333L135.405,22.333L136.074,22.333L136.656,22.333L137.27,22.333L138.527,22.333L139.158,22.333L139.823,22.333L140.405,22.333L141.029,22.333L142.288,22.333L142.915,22.333L143.582,22.333L144.168,22.333L144.791,22.333L146.05,22.333L146.691,22.333L147.36,22.333L147.931,22.333L148.554,22.333L149.809,22.333L150.448,22.333L151.117,22.333L151.699,22.333L152.314,22.333L153.571,22.333L154.209,22.333L154.878,22.333L155.462,22.333L156.071,22.333L157.331,22.333L157.97,22.333L158.641,22.333L159.221,22.333L159.83,22.333L161.089,22.333L161.728,22.333L162.396,22.333L162.977,22.333L163.591,22.333L164.849,22.333L165.476,22.333L166.141,22.333L166.727,22.333L167.352,22.333L168.609,22.333L169.236,22.333L169.903,22.333L170.485,22.333L171.11,22.333L172.373,22.333L173.013,22.333L173.682,22.333L174.245,22.333L174.873,22.333L176.131,22.333L176.774,22.333L177.442,22.333L178.018,22.333L178.634,22.333L179.893,22.333L180.532,22.333L181.203,22.333L181.78,22.333L182.394,22.333L183.649,22.333L184.285,22.333L184.953,22.333L185.539,22.333L186.152,22.333L187.408,22.333L188.045,22.333L188.711,22.333L189.297,22.333L189.911,22.333L191.167,22.333L191.797,22.333L192.461,22.333L193.049,22.333L193.671,22.333L194.925,22.333L195.555,22.333L196.223,22.333L196.808,22.333L197.432,22.333L198.69,22.333L199.329,22.333L200,22.333" stroke="#f58518" stroke-width="2"/></g></g><path class="foreground" aria-hidden="true" d="" display="none"/></g><g transform="translate(0,0)"><path class="background" aria-hidden="true" d="M0,0h200v200h-200Z"/><g><g class="mark-line role-mark marks" role="graphics-object" aria-roledescription="line mark container"><path aria-label="Time: Aug 31, 2025; Price: 1599; identifier: silex-400-warm-slate-grey-2026" role="graphics-symbol" aria-roledescription="line mark" d="M63.728,22.333L63.954,22.333L64.623,22.333L65.209,22.333L65.829,22.333L67.099,22.333L67.731,22.333L68.398,22.333L68.974,22.333L69.589,22.333L70.853,22.333L71.489,22.333L72.161,22.333L72.737,22.333L73.351,22.333L74.608,22.333L75.243,22.333L75.913,22.333L76.495,22.333L77.11,22.333L78.368,22.333L79.004,22.333L79.669,22.333L80.258,22.333L80.869,22.333L82.129,22.333L82.763,22.333L83.431,22.333L84.011,22.333L84.63,22.333L85.885,22.333L86.207,22.333L86.513,22.333L87.176,22.333L87.764,22.333L88.388,22.333L89.644,22.333L90.272,22.333L90.938,22.333L91.525,22.333L92.148,22.333L93.411,22.333L94.05,22.333L94.721,22.333L95.298,22.333L95.914,22.333L97.169,22.333L97.809,22.333L98.502,22.333L99.061,22.333L99.67,22.333L100.924,22.333L101.565,22.333L102.232,22.333L102.815,22.333L103.432,22.333L104.689,22.333L105.324,22.333L105.99,22.333L106.568,22.333L107.189,22.333L108.446,22.333L109.083,22.333L109.749,22.333L110.329,22.333L110.948,22.333L112.204,22.333L112.833,22.333L113.497,22.333L114.082,22.333L114.709,22.333L115.966,22.333L116.594,22.333L117.255,22.333L117.841,22.333L118.469,22.333L119.732,22.333L120.365,22.333L121.038,22.333L121.618,22.333L122.233,22.333L123.489,22.333L124.129,22.333L124.797,22.333L125.375,22.333L125.992,22.333L127.25,22.333L127.886,22.333L128.557,22.333L129.136,22.333L129.752,22.333L131.01,22.333L131.645,22.333L132.316,22.333L132.894,22.333L133.512,22.333L134.77,22.333L135.405,22.333L136.075,22.333L136.656,22.333L137.27,22.333L138.527,22.333L139.158,22.333L139.823,22.333L140.405,22.333L141.029,22.333L142.288,22.333L142.915,22.333L143.582,22.333L144.168,22.333L144.791,22.333L146.051,22.333L146.691,22.333L147.36,22.333L147.931,22.333L148.554,22.333L149.81,22.333L150.448,22.333L151.117,22.333L151.7,22.333L152.314,22.333L153.571,22.333L154.209,22.333L154.879,22.333L155.462,22.333L156.071,22.333L157.331,22.333L157.971,22.333L158.641,22.333L159.221,22.333L159.83,22.333L161.089,22.333L161.728,22.333L162.397,22.333L162.978,22.333L163.591,22.333L164.849,22.333L165.476,22.333L166.142,22.333L166.728,22.333L167.352,22.333L168.609,22.333L169.236,22.333L169.903,22.333L170.485,22.333L171.111,22.333L172.373,22.333L173.013,22.333L173.682,22.333L174.245,22.333L174.873,22.333L176.131,22.333L176.775,22.333L177.442,22.333L178.018,22.333L178.634,22.333L179.894,22.333L180.532,22.333L181.203,22.333L181.78,22.333L182.394,22.333L183.649,22.333L184.285,22.333L184.953,22.333L185.539,22.333L186.152,22.333L187.408,22.333L188.045,22.333L188.711,22.333L189.297,22.333L189.911,22.333L191.167,22.333L191.797,22.333L192.461,22.333L193.049,22.333L193.671,22.333L194.925,22.333L195.555,22.333L196.223,22.333L196.808,22.333L197.432,22.333L198.691,22.333L199.329,22.333L200,22.333" stroke="#e45756" stroke-width="2"/></g></g><path class="foreground" aria-hidden="true" d="" display="none"/></g></g><g class="mark-group role-legend" role="graphics-symbol" aria-roledescription="legend" aria-label="Symbol legend titled 'identifier' for stroke color with 16 values: devote-1-2022, silex-400-oak-bork-2026, silex-400-warm-slate-grey-2026, devote-1-2024, fastroad-ar-2, ending with allure-rs-2-2024"><g transform="translate(220,0)"><path class="background" aria-hidden="true" d="M0,0h256v222h-256Z" pointer-events="none"/><g><g class="mark-group role-legend-entry"><g transform="translate(0,16)"><path class="background" aria-hidden="true" d="M0,0h0v0h0Z" pointer-events="none"/><g><g class="mark-group role-scope" role="graphics-object" aria-roledescription="group mark container"><g transform="translate(0,0)"><path class="background" aria-hidden="true" d="M0,0h256v11h-256Z" pointer-events="none" opacity="1"/><g><g class="mark-symbol role-legend-symbol" pointer-events="none"><path transform="translate(6,6)" d="M-5,0L5,0" stroke="#4c78a8" stroke-width="1.5" opacity="1"/></g><g class="mark-text role-legend-label" pointer-events="none"><text text-anchor="start" transform="translate(16,9)" font-family="Liberation Mono" font-size="10px" fill="#000" opacity="1">devote-1-2022</text></g></g><path class="foreground" aria-hidden="true" d="" pointer-events="none" display="none"/></g><g transform="translate(0,13)"><path class="background" aria-hidden="true" d="M0,0h256v11h-256Z" pointer-events="none" opacity="1"/><g><g class="mark-symbol role-legend-symbol" pointer-events="none"><path transform="translate(6,6)" d="M-5,0L5,0" stroke="#f58518" stroke-width="1.5" opacity="1"/></g><g class="mark-text role-legend-label" pointer-events="none"><text text-anchor="start" transform="translate(16,9)" font-family="Liberation Mono" font-size="10px" fill="#000" opacity="1">silex-400-oak-bork-2026</text></g></g><path class="foreground" aria-hidden="true" d="" pointer-events="none" display="none"/></g><g transform="translate(0,26)"><path class="background" aria-hidden="true" d="M0,0h256v11h-256Z" pointer-events="none" opacity="1"/><g><g class="mark-symbol role-legend-symbol" pointer-events="none"><path transform="translate(6,6)" d="M-5,0L5,0" stroke="#e45756" stroke-width="1.5" opacity="1"/></g><g class="mark-text role-legend-label" pointer-events="none"><text text-anchor="start" transform="translate(16,9)" font-family="Liberation Mono" font-size="10px" fill="#000" opacity="1">silex-400-warm-slate-grey-2026</text></g></g><path class="foreground" aria-hidden="true" d="" pointer-events="none" display="none"/></g><g transform="translate(0,39)"><path class="background" aria-hidden="true" d="M0,0h256v11h-256Z" pointer-events="none" opacity="1"/><g><g class="mark-symbol role-legend-symbol" pointer-events="none"><path transform="translate(6,6)" d="M-5,0L5,0" stroke="#72b7b2" stroke-width="1.5" opacity="1"/></g><g class="mark-text role-legend-label" pointer-events="none"><text text-anchor="start" transform="translate(16,9)" font-family="Liberation Mono" font-size="10px" fill="#000" opacity="1">devote-1-2024</text></g></g><path class="foreground" aria-hidden="true" d="" pointer-events="none" display="none"/></g><g transform="translate(0,52)"><path class="background" aria-hidden="true" d="M0,0h256v11h-256Z" pointer-events="none" opacity="1"/><g><g class="mark-symbol role-legend-symbol" pointer-events="none"><path transform="translate(6,6)" d="M-5,0L5,0" stroke="#54a24b" stroke-width="1.5" opacity="1"/></g><g class="mark-text role-legend-label" pointer-events="none"><text text-anchor="start" transform="translate(16,9)" font-family="Liberation Mono" font-size="10px" fill="#000" opacity="1">fastroad-ar-2</text></g></g><path class="foreground" aria-hidden="true" d="" pointer-events="none" display="none"/></g><g transform="translate(0,65)"><path class="background" aria-hidden="true" d="M0,0h256v11h-256Z" pointer-events="none" opacity="1"/><g><g class="mark-symbol role-legend-symbol" pointer-events="none"><path transform="translate(6,6)" d="M-5,0L5,0" stroke="#eeca3b" stroke-width="1.5" opacity="1"/></g><g class="mark-text role-legend-label" pointer-events="none"><text text-anchor="start" transform="translate(16,9)" font-family="Liberation Mono" font-size="10px" fill="#000" opacity="1">thrive-2</text></g></g><path class="foreground" aria-hidden="true" d="" pointer-events="none" display="none"/></g><g transform="translate(0,78)"><path class="background" aria-hidden="true" d="M0,0h256v11h-256Z" pointer-events="none" opacity="1"/><g><g class="mark-symbol role-legend-symbol" pointer-events="none"><path transform="translate(6,6)" d="M-5,0L5,0" stroke="#b279a2" stroke-width="1.5" opacity="1"/></g><g class="mark-text role-legend-label" pointer-events="none"><text text-anchor="start" transform="translate(16,9)" font-family="Liberation Mono" font-size="10px" fill="#000" opacity="1">allure-rs-1-2023</text></g></g><path class="foreground" aria-hidden="true" d="" pointer-events="none" display="none"/></g><g transform="translate(0,91)"><path class="background" aria-hidden="true" d="M0,0h256v11h-256Z" pointer-events="none" opacity="1"/><g><g class="mark-symbol role-legend-symbol" pointer-events="none"><path transform="translate(6,6)" d="M-5,0L5,0" stroke="#ff9da6" stroke-width="1.5" opacity="1"/></g><g class="mark-text role-legend-label" pointer-events="none"><text text-anchor="start" transform="translate(16,9)" font-family="Liberation Mono" font-size="10px" fill="#000" opacity="1">roam-2</text></g></g><path class="foreground" aria-hidden="true" d="" pointer-events="none" display="none"/></g><g transform="translate(0,104)"><path class="background" aria-hidden="true" d="M0,0h256v11h-256Z" pointer-events="none" opacity="1"/><g><g class="mark-symbol role-legend-symbol" pointer-events="none"><path transform="translate(6,6)" d="M-5,0L5,0" stroke="#9d755d" stroke-width="1.5" opacity="1"/></g><g class="mark-text role-legend-label" pointer-events="none"><text text-anchor="start" transform="translate(16,9)" font-family="Liberation Mono" font-size="10px" fill="#000" opacity="1">fastroad-sl-3-2022</text></g></g><path class="foreground" aria-hidden="true" d="" pointer-events="none" display="none"/></g><g transform="translate(0,117)"><path class="background" aria-hidden="true" d="M0,0h256v11h-256Z" pointer-events="none" opacity="1"/><g><g class="mark-symbol role-legend-symbol" pointer-events="none"><path transform="translate(6,6)" d="M-5,0L5,0" stroke="#bab0ac" stroke-width="1.5" opacity="1"/></g><g class="mark-text role-legend-label" pointer-events="none"><text text-anchor="start" transform="translate(16,9)" font-family="Liberation Mono" font-size="10px" fill="#000" opacity="1">allure-rs-2-2023</text></g></g><path class="foreground" aria-hidden="true" d="" pointer-events="none" display="none"/></g><g transform="translate(0,130)"><path class="background" aria-hidden="true" d="M0,0h256v11h-256Z" pointer-events="none" opacity="1"/><g><g class="mark-symbol role-legend-symbol" pointer-events="none"><path transform="translate(6,6)" d="M-5,0L5,0" stroke="#4c78a8" stroke-width="1.5" opacity="1"/></g><g class="mark-text role-legend-label" pointer-events="none"><text text-anchor="start" transform="translate(16,9)" font-family="Liberation Mono" font-size="10px" fill="#000" opacity="1">escape-city-disc-1-2024</text></g></g><path class="foreground" aria-hidden="true" d="" pointer-events="none" display="none"/></g><g transform="translate(0,143)"><path class="background" aria-hidden="true" d="M0,0h256v11h-256Z" pointer-events="none" opacity="1"/><g><g class="mark-symbol role-legend-symbol" pointer-events="none"><path transform="translate(6,6)" d="M-5,0L5,0" stroke="#f58518" stroke-width="1.5" opacity="1"/></g><g class="mark-text role-legend-label" pointer-events="none"><text text-anchor="start" transform="translate(16,9)" font-family="Liberation Mono" font-size="10px" fill="#000" opacity="1">sdrbike-escape-1-city-disc</text></g></g><path class="foreground" aria-hidden="true" d="" pointer-events="none" display="none"/></g><g transform="translate(0,156)"><path class="background" aria-hidden="true" d="M0,0h256v11h-256Z" pointer-events="none" opacity="1"/><g><g class="mark-symbol role-legend-symbol" pointer-events="none"><path transform="translate(6,6)" d="M-5,0L5,0" stroke="#e45756" stroke-width="1.5" opacity="1"/></g><g class="mark-text role-legend-label" pointer-events="none"><text text-anchor="start" transform="translate(16,9)" font-family="Liberation Mono" font-size="10px" fill="#000" opacity="1">roam-disc-2-2024</text></g></g><path class="foreground" aria-hidden="true" d="" pointer-events="none" display="none"/></g><g transform="translate(0,169)"><path class="background" aria-hidden="true" d="M0,0h256v11h-256Z" pointer-events="none" opacity="1"/><g><g class="mark-symbol role-legend-symbol" pointer-events="none"><path transform="translate(6,6)" d="M-5,0L5,0" stroke="#72b7b2" stroke-width="1.5" opacity="1"/></g><g class="mark-text role-legend-label" pointer-events="none"><text text-anchor="start" transform="translate(16,9)" font-family="Liberation Mono" font-size="10px" fill="#000" opacity="1">rove-2</text></g></g><path class="foreground" aria-hidden="true" d="" pointer-events="none" display="none"/></g><g transform="translate(0,182)"><path class="background" aria-hidden="true" d="M0,0h256v11h-256Z" pointer-events="none" opacity="1"/><g><g class="mark-symbol role-legend-symbol" pointer-events="none"><path transform="translate(6,6)" d="M-5,0L5,0" stroke="#54a24b" stroke-width="1.5" opacity="1"/></g><g class="mark-text role-legend-label" pointer-events="none"><text text-anchor="start" transform="translate(16,9)" font-family="Liberation Mono" font-size="10px" fill="#000" opacity="1">allure-rs-2-2022</text></g></g><path class="foreground" aria-hidden="true" d="" pointer-events="none" display="none"/></g><g transform="translate(0,195)"><path class="background" aria-hidden="true" d="M0,0h256v11h-256Z" pointer-events="none" opacity="1"/><g><g class="mark-symbol role-legend-symbol" pointer-events="none"><path transform="translate(6,6)" d="M-5,0L5,0" stroke="#eeca3b" stroke-width="1.5" opacity="1"/></g><g class="mark-text role-legend-label" pointer-events="none"><text text-anchor="start" transform="translate(16,9)" font-family="Liberation Mono" font-size="10px" fill="#000" opacity="1">allure-rs-2-2024</text></g></g><path class="foreground" aria-hidden="true" d="" pointer-events="none" display="none"/></g></g></g><path class="foreground" aria-hidden="true" d="" pointer-events="none" display="none"/></g></g><g class="mark-text role-legend-title" pointer-events="none"><text text-anchor="start" transform="translate(0,9)" font-family="Liberation Mono" font-size="11px" font-weight="bold" fill="#000" opacity="1">identifier</text></g></g><path class="foreground" aria-hidden="true" d="" pointer-events="none" display="none"/></g></g></g><path class="foreground" aria-hidden="true" d="" display="none"/></g></g></g></svg>