<svg xmlns="http://www.w3.org/2000/svg" xmlns:xlink="http://www.w3.org/1999/xlink" version="1.1" class="marks" width="548" height="244" viewBox="0 0 548 244"><rect width="548" height="244" fill="white"/><g fill="none" stroke-miterlimit="10" transform="translate(67,7)"><g class="mark-group role-frame root" role="graphics-object" aria-roledescription="group mark container"><g transform="translate(0,0)"><path class="background" aria-hidden="true" d="M0.5,0.5h200v200h-200Z" stroke="#ddd"/><g><g class="mark-group role-axis" aria-hidden="true"><g transform="translate(0.5,200.5)"><path class="background" aria-hidden="true" d="M0,0h0v0h0Z" pointer-events="none"/><g><g class="mark-rule role-axis-grid" pointer-events="none"><line transform="translate(8,-200)" x2="0" y2="200" stroke="#ddd" stroke-width="1" opacity="1"/><line transform="translate(31,-200)" x2="0" y2="200" stroke="#ddd" stroke-width="1" opacity="1"/><line transform="translate(53,-200)" x2="0" y2="200" stroke="#ddd" stroke-width="1" opacity="1"/><line transform="translate(75,-200)" x2="0" y2="200" stroke="#ddd" stroke-width="1" opacity="1"/><line transform="translate(97,-200)" x2="0" y2="200" stroke="#ddd" stroke-width="1" opacity="1"/><line transform="translate(119,-200)" x2="0" y2="200" stroke="#ddd" stroke-width="1" opacity="1"/><line transform="translate(142,-200)" x2="0" y2="200" stroke="#ddd" stroke-width="1" opacity="1"/><line transform="translate(164,-200)" x2="0" y2="200" stroke="#ddd" stroke-width="1" opacity="1"/><line transform="translate(186,-200)" x2="0" y2="200" stroke="#ddd" stroke-width="1" opacity="1"/></g></g><path class="foreground" aria-hidden="true" d="" pointer-events="none" display="none"/></g></g><g class="mark-group role-axis" aria-hidden="true"><g transform="translate(0.5,0.5)"><path class="background" aria-hidden="true" d="M0,0h0v0h0Z" pointer-events="none"/><g><g class="mark-rule role-axis-grid" pointer-events="none"><line transform="translate(0,200)" x2="200" y2="0" stroke="#ddd" stroke-width="1" opacity="1"/><line transform="translate(0,144)" x2="200" y2="0" stroke="#ddd" stroke-width="1" opacity="1"/><line transform="translate(0,89)" x2="200" y2="0" stroke="#ddd" stroke-width="1" opacity="1"/><line transform="translate(0,33)" x2="200" y2="0" stroke="#ddd" stroke-width="1" opacity="1"/></g></g><path class="foreground" aria-hidden="true" d="" pointer-events="none" display="none"/></g></g><g class="mark-group role-axis" role="graphics-symbol" aria-roledescription="axis" aria-label="X-axis titled 'Time' for a time scale with values from Thursday, 14 August 2025, 8:34:48 AM to Thursday, 16 October 2025, 8:54:07 AM"><g transform="translate(0.5,200.5)"><path class="background" aria-hidden="true" d="M0,0h0v0h0Z" pointer-events="none"/><g><g class="mark-rule role-axis-tick" pointer-events="none"><line transform="translate(8,0)" x2="0" y2="5" stroke="#888" stroke-width="1" opacity="1"/><line transform="translate(31,0)" x2="0" y2="5" stroke="#888" stroke-width="1" opacity="1"/><line transform="translate(53,0)" x2="0" y2="5" stroke="#888" stroke-width="1" opacity="1"/><line transform="translate(75,0)" x2="0" y2="5" stroke="#888" stroke-width="1" opacity="1"/><line transform="translate(97,0)" x2="0" y2="5" stroke="#888" stroke-width="1" opacity="1"/><line transform="translate(119,0)" x2="0" y2="5" stroke="#888" stroke-width="1" opacity="1"/><line transform="translate(142,0)" x2="0" y2="5" stroke="#888" stroke-width="1" opacity="1"/><line transform="translate(164,0)" x2="0" y2="5" stroke="#888" stroke-width="1" opacity="1"/><line transform="translate(186,0)" x2="0" y2="5" stroke="#888" stroke-width="1" opacity="1"/></g><g class="mark-text role-axis-label" pointer-events="none"><text text-anchor="middle" transform="translate(8.387075079291481,15)" font-family="Liberation Mono" font-size="10px" fill="#000" opacity="1">Aug 17</text><text text-anchor="middle" transform="translate(30.604565978416876,15)" font-family="Liberation Mono" font-size="10px" fill="#000" opacity="0">Aug 24</text><text text-anchor="middle" transform="translate(52.822056877542266,15)" font-family="Liberation Mono" font-size="10px" fill="#000" opacity="0">Aug 31</text><text text-anchor="middle" transform="translate(75.03954777666766,15)" font-family="Liberation Mono" font-size="10px" fill="#000" opacity="0">Sep 07</text><text text-anchor="middle" transform="translate(97.25703867579305,15)" font-family="Liberation Mono" font-size="10px" fill="#000" opacity="1">Sep 14</text><text text-anchor="middle" transform="translate(119.47452957491845,15)" font-family="Liberation Mono" font-size="10px" fill="#000" opacity="0">Sep 21</text><text text-anchor="middle" transform="translate(141.69202047404383,15)" font-family="Liberation Mono" font-size="10px" fill="#000" opacity="0">Sep 28</text><text text-anchor="middle" transform="translate(163.90951137316924,15)" font-family="Liberation Mono" font-size="10px" fill="#000" opacity="0">Oct 05</text><text text-anchor="middle" transform="translate(186.12700227229462,15)" font-family="Liberation Mono" font-size="10px" fill="#000" opacity="1">Oct 12</text></g><g class="mark-rule role-axis-domain" pointer-events="none"><line transform="translate(0,0)" x2="200" y2="0" stroke="#888" stroke-width="1" opacity="1"/></g><g class="mark-text role-axis-title" pointer-events="none"><text text-anchor="middle" transform="translate(100,30)" font-family="Liberation Mono" font-size="11px" font-weight="bold" fill="#000" opacity="1">Time</text></g></g><path class="foreground" aria-hidden="true" d="" pointer-events="none" display="none"/></g></g><g class="mark-group role-axis" role="graphics-symbol" aria-roledescription="axis" aria-label="Y-axis titled 'Price' for a linear scale with values from 0 to 1,800"><g transform="translate(0.5,0.5)"><path class="background" aria-hidden="true" d="M0,0h0v0h0Z" pointer-events="none"/><g><g class="mark-rule role-axis-tick" pointer-events="none"><line transform="translate(0,200)" x2="-5" y2="0" stroke="#888" stroke-width="1" opacity="1"/><line transform="translate(0,144)" x2="-5" y2="0" stroke="#888" stroke-width="1" opacity="1"/><line transform="translate(0,89)" x2="-5" y2="0" stroke="#888" stroke-width="1" opacity="1"/><line transform="translate(0,33)" x2="-5" y2="0" stroke="#888" stroke-width="1" opacity="1"/></g><g class="mark-text role-axis-label" pointer-events="none"><text text-anchor="end" transform="translate(-7,203)" font-family="Liberation Mono" font-size="10px" fill="#000" opacity="1">0</text><text text-anchor="end" transform="translate(-7,147.44444444444443)" font-family="Liberation Mono" font-size="10px" fill="#000" opacity="1">500</text><text text-anchor="end" transform="translate(-7,91.88888888888889)" font-family="Liberation Mono" font-size="10px" fill="#000" opacity="1">1,000</text><text text-anchor="end" transform="translate(-7,36.33333333333333)" font-family="Liberation Mono" font-size="10px" fill="#000" opacity="1">1,500</text></g><g class="mark-rule role-axis-domain" pointer-events="none"><line transform="translate(0,200)" x2="0" y2="-200" stroke="#888" stroke-width="1" opacity="1"/></g><g class="mark-text role-axis-title" pointer-events="none"><text text-anchor="middle" transform="translate(-51,100) rotate(-90) translate(0,-2)" font-family="Liberation Mono" font-size="11px" font-weight="bold" fill="#000" opacity="1">Price</text></g></g><path class="foreground" aria-hidden="true" d="" pointer-events="none" display="none"/></g></g><g class="mark-group role-scope pathgroup" role="graphics-object" aria-roledescription="group mark container"><g transform="translate(0,0)"><path class="background" aria-hidden="true" d="M0,0h200v200h-200Z"/><g><g class="mark-line role-mark marks" role="graphics-object" aria-roledescription="line mark container"><path aria-label="Time: Aug 14, 2025; Price: 899; identifier: escape-city-disc-1-2024" role="graphics-symbol" aria-roledescription="line mark" d="M0,100.111L0.026,100.111L0.047,100.111L0.632,100.111L1.097,100.111L1.619,100.111L2.69,100.111L3.215,100.111L3.796,100.111L4.272,100.111L4.791,100.111L5.853,100.111L6.385,100.111L6.949,100.111L7.44,100.111L7.96,100.111L9.039,100.111L9.558,100.111L10.124,100.111L10.616,100.111L11.138,100.111L12.222,100.111L12.744,100.111L13.328,100.111L13.534,100.111L13.8,100.111L14.309,100.111L15.372,100.111L15.909,100.111L16.473,100.111L16.966,100.111L17.482,100.111L18.547,100.111L19.079,100.111L19.666,100.111L19.903,100.111L20.138,100.111L20.659,100.111L21.719,100.111L22.256,100.111L22.822,100.111L23.314,100.111L23.832,100.111L24.894,100.111L25.429,100.111L25.995,100.111L26.485,100.111L27.004,100.111L28.066,100.111L28.598,100.111L29.159,100.111L29.651,100.111L30.175,100.111L31.243,100.111L31.769,100.111L32.334,100.111L32.828,100.111L33.349,100.111L34.422,100.111L34.957,100.111L35.536,100.111L36.01,100.111L36.527,100.111L37.59,100.111L38.129,100.111L39.181,100.111L39.698,100.111L40.76,100.111L41.297,100.111L41.505,100.111L41.862,100.111L42.216,100.111L42.355,100.111L42.874,100.111L43.934,100.111L44.472,100.111L45.037,100.111L45.528,100.111L46.047,100.111L47.108,100.111L47.644,100.111L48.208,100.111L48.701,100.111L49.219,100.111L50.278,100.111L50.81,100.111L51.372,100.111L51.867,100.111L52.366,100.111L52.391,100.111L53.454,100.111L53.793,100.111L53.983,100.111L54.547,100.111L55.043,100.111L55.566,100.111L56.638,100.111L57.171,100.111L57.734,100.111L58.22,100.111L58.739,100.111L59.806,100.111L60.343,100.111L60.91,100.111L61.396,100.111L61.915,100.111L62.976,100.111L63.512,100.111L64.077,100.111L64.569,100.111L65.088,100.111L66.149,100.111L66.687,100.111L67.248,100.111L67.745,100.111L68.261,100.111L69.325,100.111L69.86,100.111L70.424,100.111L70.913,100.111L71.436,100.111L72.495,100.111L72.767,100.111L73.025,100.111L73.584,100.111L74.082,100.111L74.608,100.111L75.668,100.111L76.198,100.111L76.76,100.111L77.256,100.111L77.782,100.111L78.847,100.111L79.387,100.111L79.953,100.111L80.441,100.111L80.961,100.111L82.02,100.111L82.56,100.111L83.145,100.111L83.617,100.111L84.131,100.111L85.19,100.111L85.731,100.111L86.293,100.111L86.786,100.111L87.306,100.111L88.368,100.111L88.903,100.111L89.466,100.111L89.953,100.111L90.477,100.111L91.539,100.111L92.076,100.111L92.638,100.111L93.129,100.111L93.651,100.111L94.711,100.111L95.242,100.111L95.803,100.111L96.297,100.111L96.825,100.111L97.886,100.111L98.416,100.111L98.974,100.111L99.47,100.111L99.999,100.111L101.065,100.111L101.6,100.111L102.167,100.111L102.656,100.111L103.175,100.111L104.236,100.111L104.777,100.111L105.341,100.111L105.829,100.111L106.35,100.111L107.412,100.111L107.948,100.111L108.515,100.111L109.004,100.111L109.523,100.111L110.585,100.111L111.121,100.111L111.687,100.111L112.176,100.111L112.698,100.111L113.759,100.111L114.295,100.111L114.86,100.111L115.352,100.111L115.869,100.111L116.931,100.111L117.463,100.111L118.025,100.111L118.516,100.111L119.042,100.111L120.105,100.111L120.634,100.111L121.198,100.111L121.692,100.111L122.218,100.111L123.281,100.111L123.822,100.111L124.386,100.111L124.868,100.111L125.395,100.111L126.454,100.111L126.993,100.111L127.558,100.111L128.049,100.111L128.568,100.111L129.629,100.111L130.168,100.111L130.732,100.111L131.226,100.111L131.74,100.111L132.803,100.111L133.343,100.111L133.909,100.111L134.399,100.111L134.913,100.111L135.976,100.111L136.515,100.111L137.079,100.111L137.569,100.111L138.087,100.111L139.149,100.111L139.678,100.111L140.24,100.111L140.735,100.111L141.262,100.111L142.323,100.111L142.852,100.111L143.415,100.111L143.907,100.111L144.434,100.111L145.5,100.111L146.04,100.111L146.605,100.111L147.081,100.111L147.61,100.111L148.673,100.111L149.215,100.111L149.779,100.111L150.265,100.111L150.785,100.111L151.848,100.111L152.387,100.111L152.953,100.111L153.44,100.111L153.959,100.111L155.018,100.111L155.555,100.111L156.119,100.111L156.614,100.111L157.131,100.111L158.191,100.111L158.729,100.111L159.292,100.111L159.786,100.111L160.304,100.111L161.364,100.111L161.897,100.111L162.457,100.111L162.953,100.111L163.478,100.111L164.537,100.111L165.069,100.111L165.632,100.111L166.126,100.111L166.653,100.111L167.715,100.111L168.254,100.111L168.82,100.111L169.31,100.111L169.829,100.111L170.888,100.111L171.427,100.111L171.995,100.111L172.484,100.111L173.003,100.111L174.064,100.111L174.604,100.111L175.17,100.111L175.658,100.111L176.177,100.111L177.239,100.111L177.778,100.111L178.345,100.111L178.837,100.111L179.351,100.111L180.412,100.111L180.949,100.111L181.514,100.111L182.004,100.111L182.524,100.111L183.583,100.111L184.114,100.111L184.674,100.111L185.168,100.111L185.696,100.111L186.757,100.111L187.288,100.111L187.849,100.111L188.345,100.111L188.869,100.111L189.938,100.111L190.478,100.111L191.041,100.111L191.526,100.111L192.045,100.111L193.107,100.111L193.645,100.111L194.231,100.111L194.702,100.111L195.222,100.111L196.282,100.111L196.825,100.111L197.409,100.111L197.875,100.111L198.397,100.111L199.456,100.111L199.999,100.111" stroke="#4c78a8" stroke-width="2"/></g></g><path class="foreground" aria-hidden="true" d="" display="none"/></g><g transform="translate(0,0)"><path class="background" aria-hidden="true" d="M0,0h200v200h-200Z"/><g><g class="mark-line role-mark marks" role="graphics-object" aria-roledescription="line mark container"><path aria-label="Time: Aug 14, 2025; Price: 999; identifier: roam-2" role="graphics-symbol" aria-roledescription="line mark" d="M0,89L0.026,89L0.047,89L0.632,89L1.098,89L1.619,89L2.69,89L3.215,89L3.796,89L4.272,89L4.791,89L5.853,89L6.385,89L6.949,89L7.44,89L7.965,89L9.04,89L9.558,89L10.124,89L10.616,89L11.138,89L12.222,89L12.744,89L13.328,89L13.534,89L13.8,89L14.309,89L15.372,89L15.91,89L16.473,89L16.966,89L17.482,89L18.547,89L19.079,89L19.666,89L19.904,89L20.139,89L20.659,89L21.719,89L22.256,89L22.822,89L23.314,89L23.832,89L24.894,89L25.429,89L25.995,89L26.485,89L27.004,89L28.066,89L28.598,89L29.159,89L29.651,89L30.175,89L31.244,89L31.769,89L32.334,89L32.829,89L33.35,89L34.422,89L34.958,89L35.537,89L36.01,89L36.527,89L37.591,89L38.129,89L39.181,89L39.698,89L40.761,89L41.297,89L41.505,89L41.862,89L42.216,89L42.355,89L42.874,89L43.934,89L44.472,89L45.038,89L45.528,89L46.047,89L47.108,89L47.644,89L48.208,89L48.701,89L49.219,89L50.278,89L50.81,89L51.372,89L51.867,89L52.366,89L52.391,89L53.454,89L53.793,89L53.983,89L54.547,89L55.043,89L55.566,89L56.638,89L57.171,89L57.734,89L58.221,89L58.739,89L59.807,89L60.343,89L60.91,89L61.397,89L61.915,89L62.976,89L63.512,89L64.077,89L64.569,89L65.088,89L66.149,89L66.687,89L67.248,89L67.745,89L68.261,89L69.325,89L69.86,89L70.424,89L70.913,89L71.436,89L72.495,89L72.768,89L73.025,89L73.585,89L74.082,89L74.608,89L75.668,89L76.198,89L76.761,89L77.256,89L77.782,89L78.848,89L79.387,89L79.953,89L80.441,89L80.961,89L82.02,89L82.56,89L83.145,89L83.617,89L84.131,89L85.19,89L85.731,89L86.293,89L86.786,89L87.306,89L88.368,89L88.904,89L89.466,89L89.954,89L90.478,89L91.539,89L92.076,89L92.638,89L93.129,89L93.651,89L94.711,89L95.243,89L95.803,89L96.297,89L96.826,89L97.886,89L98.417,89L98.975,89L99.47,89L100,89L101.065,89L101.6,89L102.168,89L102.657,89L103.176,89L104.237,89L104.777,89L105.341,89L105.829,89L106.35,89L107.412,89L107.948,89L108.515,89L109.004,89L109.523,89L110.585,89L111.121,89L111.688,89L112.176,89L112.698,89L113.759,89L114.295,89L114.86,89L115.352,89L115.87,89L116.931,89L117.464,89L118.025,89L118.516,89L119.043,89L120.106,89L120.635,89L121.198,89L121.692,89L122.218,89L123.281,89L123.822,89L124.387,89L124.869,89L125.395,89L126.454,89L126.993,89L127.558,89L128.05,89L128.568,89L129.629,89L130.168,89L130.733,89L131.226,89L131.74,89L132.803,89L133.343,89L133.909,89L134.399,89L134.913,89L135.976,89L136.515,89L137.079,89L137.57,89L138.088,89L139.149,89L139.678,89L140.24,89L140.735,89L141.262,89L142.323,89L142.853,89L143.415,89L143.907,89L144.435,89L145.5,89L146.04,89L146.606,89L147.081,89L147.61,89L148.673,89L149.216,89L149.779,89L150.265,89L150.785,89L151.848,89L152.387,89L152.954,89L153.441,89L153.959,89L155.018,89L155.556,89L156.119,89L156.614,89L157.131,89L158.191,89L158.729,89L159.292,89L159.786,89L160.305,89L161.364,89L161.897,89L162.457,89L162.953,89L163.478,89L164.537,89L165.069,89L165.632,89L166.126,89L166.653,89L167.715,89L168.254,89L168.821,89L169.31,89L169.83,89L170.889,89L171.427,89L171.995,89L172.484,89L173.003,89L174.064,89L174.604,89L175.17,89L175.658,89L176.177,89L177.239,89L177.778,89L178.345,89L178.837,89L179.351,89L180.412,89L180.949,89L181.514,89L182.005,89L182.524,89L183.583,89L184.114,89L184.675,89L185.168,89L185.696,89L186.757,89L187.288,89L187.85,89L188.345,89L188.869,89L189.938,89L190.478,89L191.041,89L191.527,89L192.045,89L193.107,89L193.645,89L194.231,89L194.702,89L195.222,89L196.283,89L196.825,89L197.409,89L197.875,89L198.397,89L199.456,89L199.999,89" stroke="#ff9da6" stroke-width="2"/></g></g><path class="foreground" aria-hidden="true" d="" display="none"/></g><g transform="translate(0,0)"><path class="background" aria-hidden="true" d="M0,0h200v200h-200Z"/><g><g class="mark-line role-mark marks" role="graphics-object" aria-roledescription="line mark container"><path aria-label="Time: Aug 14, 2025; Price: 999; identifier: fastroad-sl-3-2022" role="graphics-symbol" aria-roledescription="line mark" d="M0,89L0.026,89L0.047,89L0.633,89L1.098,89L1.619,89L2.69,89L3.215,89L3.796,89L4.272,89L4.791,89L5.854,89L6.385,89L6.949,89L7.44,89L7.965,89L9.04,89L9.558,89L10.124,89L10.616,89L11.138,89L12.223,89L12.744,89L13.328,89L13.534,89L13.8,89L14.309,89L15.372,89L15.91,89L16.473,89L16.966,89L17.482,89L18.547,89L19.079,89L19.666,89L19.904,89L20.139,89L20.66,89L21.719,89L22.256,89L22.822,89L23.315,89L23.832,89L24.894,89L25.429,89L25.995,89L26.485,89L27.004,89L28.066,89L28.598,89L29.159,89L29.651,89L30.175,89L31.244,89L31.77,89L32.334,89L32.829,89L33.35,89L34.422,89L34.958,89L35.537,89L36.011,89L36.527,89L37.591,89L38.129,89L39.181,89L39.698,89L40.761,89L41.297,89L41.505,89L41.862,89L42.216,89L42.355,89L42.874,89L43.934,89L44.472,89L45.038,89L45.528,89L46.047,89L47.108,89L47.644,89L48.208,89L48.701,89L49.219,89L50.279,89L50.81,89L51.372,89L51.867,89L52.366,89L52.391,89L53.454,89L53.793,89L53.983,89L54.547,89L55.043,89L55.566,89L56.638,89L57.171,89L57.735,89L58.221,89L58.739,89L59.807,89L60.343,89L60.91,89L61.397,89L61.915,89L62.977,89L63.512,89L64.077,89L64.569,89L65.088,89L66.15,89L66.687,89L67.248,89L67.745,89L68.261,89L69.325,89L69.86,89L70.424,89L70.913,89L71.436,89L72.495,89L72.768,89L73.025,89L73.585,89L74.082,89L74.608,89L75.668,89L76.198,89L76.761,89L77.256,89L77.782,89L78.848,89L79.387,89L79.953,89L80.441,89L80.961,89L82.02,89L82.56,89L83.145,89L83.617,89L84.131,89L85.19,89L85.731,89L86.294,89L86.786,89L87.306,89L88.368,89L88.904,89L89.466,89L89.954,89L90.478,89L91.539,89L92.076,89L92.638,89L93.129,89L93.651,89L94.711,89L95.243,89L95.803,89L96.297,89L96.826,89L97.886,89L98.417,89L98.975,89L99.47,89L100,89L101.065,89L101.6,89L102.168,89L102.657,89L103.176,89L104.237,89L104.777,89L105.341,89L105.829,89L106.35,89L107.412,89L107.948,89L108.515,89L109.004,89L109.523,89L110.585,89L111.121,89L111.688,89L112.176,89L112.698,89L113.759,89L114.295,89L114.861,89L115.352,89L115.87,89L116.931,89L117.464,89L118.025,89L118.516,89L119.043,89L120.106,89L120.635,89L121.198,89L121.692,89L122.218,89L123.281,89L123.822,89L124.387,89L124.869,89L125.395,89L126.454,89L126.993,89L127.558,89L128.05,89L128.568,89L129.629,89L130.168,89L130.733,89L131.226,89L131.74,89L132.803,89L133.343,89L133.909,89L134.399,89L134.913,89L135.976,89L136.515,89L137.079,89L137.57,89L138.088,89L139.149,89L139.678,89L140.24,89L140.735,89L141.262,89L142.323,89L142.853,89L143.415,89L143.907,89L144.435,89L145.5,89L146.04,89L146.606,89L147.081,89L147.611,89L148.673,89L149.216,89L149.779,89L150.265,89L150.785,89L151.848,89L152.387,89L152.954,89L153.441,89L153.959,89L155.018,89L155.556,89L156.119,89L156.614,89L157.131,89L158.191,89L158.729,89L159.292,89L159.786,89L160.305,89L161.364,89L161.897,89L162.457,89L162.953,89L163.478,89L164.537,89L165.069,89L165.632,89L166.127,89L166.653,89L167.715,89L168.254,89L168.821,89L169.31,89L169.83,89L170.889,89L171.427,89L171.995,89L172.484,89L173.003,89L174.064,89L174.604,89L175.17,89L175.658,89L176.177,89L177.239,89L177.778,89L178.345,89L178.837,89L179.351,89L180.412,89L180.95,89L181.514,89L182.005,89L182.525,89L183.583,89L184.114,89L184.675,89L185.168,89L185.696,89L186.757,89L187.288,89L187.85,89L188.345,89L188.869,89L189.938,89L190.478,89L191.041,89L191.528,89L192.046,89L193.107,89L193.646,89L194.232,89L194.702,89L195.222,89L196.283,89L196.826,89L197.409,89L197.875,89L198.398,89L199.456,89L199.999,89" stroke="#9d755d" stroke-width="2"/></g></g><path class="foreground" aria-hidden="true" d="" display="none"/></g><g transform="translate(0,0)"><path class="background" aria-hidden="true" d="M0,0h200v200h-200Z"/><g><g class="mark-line role-mark marks" role="graphics-object" aria-roledescription="line mark container"><path aria-label="Time: Aug 14, 2025; Price: 1199; identifier: fastroad-ar-2" role="graphics-symbol" aria-roledescription="line mark" d="M0,66.778L0.027,66.778L0.047,66.778L0.633,66.778L1.098,66.778L1.619,66.778L2.69,66.778L3.216,66.778L3.796,66.778L4.272,66.778L4.791,66.778L5.854,66.778L6.385,66.778L6.949,66.778L7.44,66.778L7.968,66.778L9.04,66.778L9.558,66.778L10.124,66.778L10.616,66.778L11.138,66.778L12.223,66.778L12.744,66.778L13.329,66.778L13.534,66.778L13.8,66.778L14.309,66.778L15.372,66.778L15.91,66.778L16.473,66.778L16.966,66.778L17.482,66.778L18.547,66.778L19.08,66.778L19.666,66.778L19.904,66.778L20.139,66.778L20.66,66.778L21.719,66.778L22.256,66.778L22.822,66.778L23.315,66.778L23.832,66.778L24.894,66.778L25.429,66.778L25.995,66.778L26.485,66.778L27.004,66.778L28.066,66.778L28.598,66.778L29.159,66.778L29.651,66.778L30.175,66.778L31.244,66.778L31.77,66.778L32.335,66.778L32.829,66.778L33.35,66.778L34.422,66.778L34.958,66.778L35.537,66.778L36.011,66.778L36.527,66.778L37.591,66.778L38.13,66.778L39.182,66.778L39.698,66.778L40.761,66.778L41.297,66.778L41.505,66.778L41.862,66.778L42.216,66.778L42.355,66.778L42.874,66.778L43.934,66.778L44.472,66.778L45.038,66.778L45.528,66.778L46.047,66.778L47.108,66.778L47.644,66.778L48.208,66.778L48.701,66.778L49.219,66.778L50.279,66.778L50.81,66.778L51.372,66.778L51.867,66.778L52.366,66.778L52.391,66.778L53.454,66.778L53.793,66.778L53.983,66.778L54.547,66.778L55.043,66.778L55.566,66.778L56.638,66.778L57.171,66.778L57.735,66.778L58.221,66.778L58.739,66.778L59.807,66.778L60.343,66.778L60.911,66.778L61.397,66.778L61.915,66.778L62.977,66.778L63.512,66.778L64.078,66.778L64.569,66.778L65.088,66.778L66.15,66.778L66.687,66.778L67.249,66.778L67.745,66.778L68.261,66.778L69.325,66.778L69.86,66.778L70.424,66.778L70.913,66.778L71.436,66.778L72.495,66.778L72.768,66.778L73.025,66.778L73.585,66.778L74.082,66.778L74.608,66.778L75.668,66.778L76.199,66.778L76.761,66.778L77.256,66.778L77.782,66.778L78.848,66.778L79.387,66.778L79.953,66.778L80.441,66.778L80.961,66.778L82.02,66.778L82.56,66.778L83.145,66.778L83.617,66.778L84.131,66.778L85.19,66.778L85.731,66.778L86.294,66.778L86.786,66.778L87.306,66.778L88.368,66.778L88.904,66.778L89.466,66.778L89.954,66.778L90.478,66.778L91.539,66.778L92.076,66.778L92.639,66.778L93.129,66.778L93.651,66.778L94.711,66.778L95.243,66.778L95.803,66.778L96.297,66.778L96.826,66.778L97.886,66.778L98.417,66.778L98.975,66.778L99.47,66.778L100,66.778L101.065,66.778L101.601,66.778L102.168,66.778L102.657,66.778L103.176,66.778L104.237,66.778L104.777,66.778L105.341,66.778L105.829,66.778L106.35,66.778L107.412,66.778L107.948,66.778L108.515,66.778L109.004,66.778L109.523,66.778L110.585,66.778L111.122,66.778L111.688,66.778L112.176,66.778L112.698,66.778L113.759,66.778L114.295,66.778L114.861,66.778L115.352,66.778L115.87,66.778L116.931,66.778L117.464,66.778L118.025,66.778L118.516,66.778L119.043,66.778L120.106,66.778L120.635,66.778L121.198,66.778L121.693,66.778L122.218,66.778L123.282,66.778L123.822,66.778L124.387,66.778L124.869,66.778L125.395,66.778L126.454,66.778L126.993,66.778L127.558,66.778L128.05,66.778L128.568,66.778L129.629,66.778L130.168,66.778L130.733,66.778L131.226,66.778L131.74,66.778L132.804,66.778L133.343,66.778L133.909,66.778L134.399,66.778L134.913,66.778L135.976,66.778L136.515,66.778L137.079,66.778L137.57,66.778L138.088,66.778L139.149,66.778L139.678,66.778L140.24,66.778L140.735,66.778L141.262,66.778L142.323,66.778L142.853,66.778L143.415,66.778L143.907,66.778L144.435,66.778L145.5,66.778L146.041,66.778L146.606,66.778L147.081,66.778L147.611,66.778L148.673,66.778L149.216,66.778L149.779,66.778L150.265,66.778L150.785,66.778L151.849,66.778L152.387,66.778L152.954,66.778L153.441,66.778L153.959,66.778L155.019,66.778L155.556,66.778L156.119,66.778L156.614,66.778L157.131,66.778L158.191,66.778L158.73,66.778L159.292,66.778L159.786,66.778L160.305,66.778L161.365,66.778L161.897,66.778L162.457,66.778L162.953,66.778L163.478,66.778L164.537,66.778L165.069,66.778L165.632,66.778L166.127,66.778L166.653,66.778L167.715,66.778L168.255,66.778L168.821,66.778L169.31,66.778L169.83,66.778L170.889,66.778L171.427,66.778L171.995,66.778L172.484,66.778L173.003,66.778L174.064,66.778L174.604,66.778L175.17,66.778L175.658,66.778L176.177,66.778L177.239,66.778L177.778,66.778L178.345,66.778L178.837,66.778L179.351,66.778L180.412,66.778L180.95,66.778L181.514,66.778L182.005,66.778L182.525,66.778L183.583,66.778L184.114,66.778L184.675,66.778L185.168,66.778L185.696,66.778L186.757,66.778L187.288,66.778L187.85,66.778L188.345,66.778L188.87,66.778L189.938,66.778L190.478,66.778L191.041,66.778L191.528,66.778L192.046,66.778L193.107,66.778L193.646,66.778L194.232,66.778L194.702,66.778L195.222,66.778L196.283,66.778L196.826,66.778L197.409,66.778L197.875,66.778L198.398,66.778L199.456,66.778L199.999,66.778" stroke="#54a24b" stroke-width="2"/></g></g><path class="foreground" aria-hidden="true" d="" display="none"/></g><g transform="translate(0,0)"><path class="background" aria-hidden="true" d="M0,0h200v200h-200Z"/><g><g class="mark-line role-mark marks" role="graphics-object" aria-roledescription="line mark container"><path aria-label="Time: Aug 18, 2025; Price: 899; identifier: sdrbike-escape-1-city-disc" role="graphics-symbol" aria-roledescription="line mark" d="M13.534,100.111L13.8,100.111L14.309,100.111L15.373,100.111L15.91,100.111L16.474,100.111L16.966,100.111L17.482,100.111L18.548,100.111L19.08,100.111L19.666,100.111L19.904,100.111L20.139,100.111L20.66,100.111L21.72,100.111L22.256,100.111L22.822,100.111L23.315,100.111L23.832,100.111L24.894,100.111L25.429,100.111L25.995,100.111L26.485,100.111L27.004,100.111L28.066,100.111L28.598,100.111L29.159,100.111L29.651,100.111L30.175,100.111L31.244,100.111L31.77,100.111L32.335,100.111L32.829,100.111L33.35,100.111L34.422,100.111L34.958,100.111L35.537,100.111L36.011,100.111L36.527,100.111L37.591,100.111L38.13,100.111L39.182,100.111L39.698,100.111L40.761,100.111L41.297,100.111L41.506,100.111L41.862,100.111L42.216,100.111L42.355,100.111L42.874,100.111L43.934,100.111L44.472,100.111L45.038,100.111L45.528,100.111L46.047,100.111L47.108,100.111L47.644,100.111L48.208,100.111L48.701,100.111L49.219,100.111L50.279,100.111L50.811,100.111L51.372,100.111L51.867,100.111L52.366,100.111L52.391,100.111L53.454,100.111L53.793,100.111L53.983,100.111L54.548,100.111L55.043,100.111L55.566,100.111L56.638,100.111L57.172,100.111L57.735,100.111L58.221,100.111L58.739,100.111L59.807,100.111L60.343,100.111L60.911,100.111L61.397,100.111L61.915,100.111L62.977,100.111L63.512,100.111L64.078,100.111L64.569,100.111L65.088,100.111L66.15,100.111L66.687,100.111L67.249,100.111L67.745,100.111L68.261,100.111L69.325,100.111L69.861,100.111L70.424,100.111L70.913,100.111L71.436,100.111L72.495,100.111L72.768,100.111L73.025,100.111L73.585,100.111L74.082,100.111L74.609,100.111L75.668,100.111L76.199,100.111L76.761,100.111L77.256,100.111L77.782,100.111L78.848,100.111L79.388,100.111L79.954,100.111L80.441,100.111L80.961,100.111L82.02,100.111L82.56,100.111L83.145,100.111L83.617,100.111L84.131,100.111L85.19,100.111L85.731,100.111L86.294,100.111L86.786,100.111L87.307,100.111L88.368,100.111L88.904,100.111L89.466,100.111L89.954,100.111L90.478,100.111L91.539,100.111L92.077,100.111L92.639,100.111L93.129,100.111L93.652,100.111L94.711,100.111L95.243,100.111L95.803,100.111L96.297,100.111L96.826,100.111L97.886,100.111L98.417,100.111L98.975,100.111L99.47,100.111L100,100.111L101.066,100.111L101.601,100.111L102.168,100.111L102.657,100.111L103.176,100.111L104.237,100.111L104.777,100.111L105.341,100.111L105.829,100.111L106.35,100.111L107.412,100.111L107.949,100.111L108.515,100.111L109.004,100.111L109.524,100.111L110.585,100.111L111.122,100.111L111.688,100.111L112.176,100.111L112.698,100.111L113.759,100.111L114.295,100.111L114.861,100.111L115.352,100.111L115.87,100.111L116.931,100.111L117.464,100.111L118.025,100.111L118.516,100.111L119.043,100.111L120.106,100.111L120.635,100.111L121.198,100.111L121.693,100.111L122.218,100.111L123.282,100.111L123.822,100.111L124.387,100.111L124.869,100.111L125.395,100.111L126.455,100.111L126.993,100.111L127.558,100.111L128.05,100.111L128.568,100.111L129.629,100.111L130.168,100.111L130.733,100.111L131.226,100.111L131.74,100.111L132.804,100.111L133.343,100.111L133.909,100.111L134.399,100.111L134.913,100.111L135.976,100.111L136.515,100.111L137.079,100.111L137.57,100.111L138.088,100.111L139.149,100.111L139.679,100.111L140.24,100.111L140.735,100.111L141.262,100.111L142.323,100.111L142.853,100.111L143.416,100.111L143.907,100.111L144.435,100.111L145.5,100.111L146.041,100.111L146.606,100.111L147.081,100.111L147.611,100.111L148.673,100.111L149.216,100.111L149.779,100.111L150.266,100.111L150.785,100.111L151.849,100.111L152.387,100.111L152.954,100.111L153.441,100.111L153.959,100.111L155.019,100.111L155.556,100.111L156.12,100.111L156.614,100.111L157.132,100.111L158.191,100.111L158.73,100.111L159.292,100.111L159.786,100.111L160.305,100.111L161.365,100.111L161.897,100.111L162.457,100.111L162.953,100.111L163.478,100.111L164.537,100.111L165.069,100.111L165.632,100.111L166.127,100.111L166.653,100.111L167.715,100.111L168.255,100.111L168.821,100.111L169.31,100.111L169.83,100.111L170.889,100.111L171.427,100.111L171.995,100.111L172.484,100.111L173.003,100.111L174.064,100.111L174.604,100.111L175.17,100.111L175.658,100.111L176.177,100.111L177.24,100.111L177.778,100.111L178.345,100.111L178.837,100.111L179.352,100.111L180.412,100.111L180.95,100.111L181.514,100.111L182.005,100.111L182.525,100.111L183.583,100.111L184.114,100.111L184.675,100.111L185.168,100.111L185.696,100.111L186.758,100.111L187.288,100.111L187.85,100.111L188.345,100.111L188.87,100.111L189.938,100.111L190.478,100.111L191.041,100.111L191.529,100.111L192.046,100.111L193.108,100.111L193.646,100.111L194.232,100.111L194.702,100.111L195.222,100.111L196.283,100.111L196.826,100.111L197.409,100.111L197.875,100.111L198.398,100.111L199.456,100.111L199.999,100.111" stroke="#f58518" stroke-width="2"/></g></g><path class="foreground" aria-hidden="true" d="" display="none"/></g><g transform="translate(0,0)"><path class="background" aria-hidden="true" d="M0,0h200v200h-200Z"/><g><g class="mark-line role-mark marks" role="graphics-object" aria-roledescription="line mark container"><path aria-label="Time: Aug 20, 2025; Price: 899; identifier: roam-disc-2-2024" role="graphics-symbol" aria-roledescription="line mark" d="M19.903,100.111L20.138,100.111L20.659,100.111L21.719,100.111L22.256,100.111L22.822,100.111L23.314,100.111L23.832,100.111L24.894,100.111L25.429,100.111L25.995,100.111L26.485,100.111L27.004,100.111L28.066,100.111L28.598,100.111L29.159,100.111L29.651,100.111L30.175,100.111L31.243,100.111L31.769,100.111L32.334,100.111L32.829,100.111L33.35,100.111L34.422,100.111L34.957,100.111L35.537,100.111L36.01,100.111L36.527,100.111L37.591,100.111L38.129,100.111L39.181,100.111L39.698,100.111L40.761,100.111L41.297,100.111L41.505,100.111L41.862,100.111L42.216,100.111L42.355,100.111L42.874,100.111L43.934,100.111L44.472,100.111L45.037,100.111L45.528,100.111L46.047,100.111L47.108,100.111L47.644,100.111L48.208,100.111L48.701,100.111L49.219,100.111L50.278,100.111L50.81,100.111L51.372,100.111L51.867,100.111L52.366,100.111L52.391,100.111L53.454,100.111L53.793,100.111L53.983,100.111L54.547,100.111L55.043,100.111L55.566,100.111L56.638,100.111L57.171,100.111L57.734,100.111L58.22,100.111L58.739,100.111L59.807,100.111L60.343,100.111L60.91,100.111L61.396,100.111L61.915,100.111L62.976,100.111L63.512,100.111L64.077,100.111L64.569,100.111L65.088,100.111L66.149,100.111L66.687,100.111L67.248,100.111L67.745,100.111L68.261,100.111L69.325,100.111L69.86,100.111L70.424,100.111L70.913,100.111L71.436,100.111L72.495,100.111L72.767,100.111L73.025,100.111L73.585,100.111L74.082,100.111L74.608,100.111L75.668,100.111L76.198,100.111L76.761,100.111L77.256,100.111L77.782,100.111L78.848,100.111L79.387,100.111L79.953,100.111L80.441,100.111L80.961,100.111L82.02,100.111L82.56,100.111L83.145,100.111L83.617,100.111L84.131,100.111L85.19,100.111L85.731,100.111L86.293,100.111L86.786,100.111L87.306,100.111L88.368,100.111L88.904,100.111L89.466,100.111L89.953,100.111L90.478,100.111L91.539,100.111L92.076,100.111L92.638,100.111L93.129,100.111L93.651,100.111L94.711,100.111L95.243,100.111L95.803,100.111L96.297,100.111L96.825,100.111L97.886,100.111L98.417,100.111L98.975,100.111L99.47,100.111L99.999,100.111L101.065,100.111L101.6,100.111L102.168,100.111L102.657,100.111L103.176,100.111L104.236,100.111L104.777,100.111L105.341,100.111L105.829,100.111L106.35,100.111L107.412,100.111L107.948,100.111L108.515,100.111L109.004,100.111L109.523,100.111L110.585,100.111L111.121,100.111L111.688,100.111L112.176,100.111L112.698,100.111L113.759,100.111L114.295,100.111L114.86,100.111L115.352,100.111L115.869,100.111L116.931,100.111L117.463,100.111L118.025,100.111L118.516,100.111L119.042,100.111L120.106,100.111L120.635,100.111L121.198,100.111L121.692,100.111L122.218,100.111L123.281,100.111L123.822,100.111L124.386,100.111L124.868,100.111L125.395,100.111L126.454,100.111L126.993,100.111L127.558,100.111L128.049,100.111L128.568,100.111L129.629,100.111L130.168,100.111L130.732,100.111L131.226,100.111L131.74,100.111L132.803,100.111L133.343,100.111L133.909,100.111L134.399,100.111L134.913,100.111L135.976,100.111L136.515,100.111L137.079,100.111L137.57,100.111L138.087,100.111L139.149,100.111L139.678,100.111L140.24,100.111L140.735,100.111L141.262,100.111L142.323,100.111L142.852,100.111L143.415,100.111L143.907,100.111L144.434,100.111L145.5,100.111L146.04,100.111L146.606,100.111L147.081,100.111L147.61,100.111L148.673,100.111L149.216,100.111L149.779,100.111L150.265,100.111L150.785,100.111L151.848,100.111L152.387,100.111L152.954,100.111L153.441,100.111L153.959,100.111L155.018,100.111L155.556,100.111L156.119,100.111L156.614,100.111L157.131,100.111L158.191,100.111L158.729,100.111L159.292,100.111L159.786,100.111L160.304,100.111L161.364,100.111L161.897,100.111L162.457,100.111L162.953,100.111L163.478,100.111L164.537,100.111L165.069,100.111L165.632,100.111L166.126,100.111L166.653,100.111L167.715,100.111L168.254,100.111L168.821,100.111L169.31,100.111L169.829,100.111L170.888,100.111L171.427,100.111L171.995,100.111L172.484,100.111L173.003,100.111L174.064,100.111L174.604,100.111L175.17,100.111L175.658,100.111L176.177,100.111L177.239,100.111L177.778,100.111L178.345,100.111L178.837,100.111L179.351,100.111L180.412,100.111L180.949,100.111L181.514,100.111L182.004,100.111L182.524,100.111L183.583,100.111L184.114,100.111L184.675,100.111L185.168,100.111L185.696,100.111L186.757,100.111L187.288,100.111L187.849,100.111L188.345,100.111L188.869,100.111L189.938,100.111L190.478,100.111L191.041,100.111L191.526,100.111L192.045,100.111L193.107,100.111L193.645,100.111L194.231,100.111L194.702,100.111L195.222,100.111L196.283,100.111L196.825,100.111L197.409,100.111L197.875,100.111L198.397,100.111L199.456,100.111L199.999,100.111" stroke="#e45756" stroke-width="2"/></g></g><path class="foreground" aria-hidden="true" d="" display="none"/></g><g transform="translate(0,0)"><path class="background" aria-hidden="true" d="M0,0h200v200h-200Z"/><g><g class="mark-line role-mark marks" role="graphics-object" aria-roledescription="line mark container"><path aria-label="Time: Aug 20, 2025; Price: 1199; identifier: thrive-2" role="graphics-symbol" aria-roledescription="line mark" d="M19.904,66.778L20.139,66.778L20.66,66.778L21.72,66.778L22.256,66.778L22.822,66.778L23.315,66.778L23.832,66.778L24.894,66.778L25.429,66.778L25.995,66.778L26.485,66.778L27.004,66.778L28.066,66.778L28.598,66.778L29.159,66.778L29.651,66.778L30.175,66.778L31.244,66.778L31.77,66.778L32.335,66.778L32.829,66.778L33.35,66.778L34.422,66.778L34.958,66.778L35.537,66.778L36.011,66.778L36.528,66.778L37.591,66.778L38.13,66.778L39.182,66.778L39.698,66.778L40.761,66.778L41.297,66.778L41.506,66.778L41.863,66.778L42.216,66.778L42.355,66.778L42.874,66.778L43.934,66.778L44.473,66.778L45.038,66.778L45.528,66.778L46.047,66.778L47.108,66.778L47.644,66.778L48.208,66.778L48.701,66.778L49.219,66.778L50.279,66.778L50.811,66.778L51.372,66.778L51.867,66.778L52.366,66.778L52.391,66.778L53.454,66.778L53.793,66.778L53.983,66.778L54.548,66.778L55.043,66.778L55.566,66.778L56.638,66.778L57.172,66.778L57.735,66.778L58.221,66.778L58.739,66.778L59.807,66.778L60.344,66.778L60.911,66.778L61.397,66.778L61.915,66.778L62.977,66.778L63.512,66.778L64.078,66.778L64.569,66.778L65.088,66.778L66.15,66.778L66.688,66.778L67.249,66.778L67.745,66.778L68.262,66.778L69.325,66.778L69.861,66.778L70.424,66.778L70.913,66.778L71.436,66.778L72.496,66.778L72.768,66.778L73.025,66.778L73.585,66.778L74.082,66.778L74.609,66.778L75.668,66.778L76.199,66.778L76.761,66.778L77.256,66.778L77.782,66.778L78.848,66.778L79.388,66.778L79.954,66.778L80.441,66.778L80.961,66.778L82.02,66.778L82.56,66.778L83.145,66.778L83.617,66.778L84.131,66.778L85.19,66.778L85.731,66.778L86.294,66.778L86.786,66.778L87.307,66.778L88.368,66.778L88.904,66.778L89.466,66.778L89.954,66.778L90.478,66.778L91.54,66.778L92.077,66.778L92.639,66.778L93.129,66.778L93.652,66.778L94.711,66.778L95.243,66.778L95.803,66.778L96.297,66.778L96.826,66.778L97.887,66.778L98.417,66.778L98.975,66.778L99.47,66.778L100,66.778L101.066,66.778L101.601,66.778L102.168,66.778L102.657,66.778L103.176,66.778L104.237,66.778L104.777,66.778L105.341,66.778L105.83,66.778L106.35,66.778L107.412,66.778L107.949,66.778L108.515,66.778L109.004,66.778L109.524,66.778L110.585,66.778L111.122,66.778L111.688,66.778L112.176,66.778L112.698,66.778L113.759,66.778L114.296,66.778L114.861,66.778L115.352,66.778L115.87,66.778L116.931,66.778L117.464,66.778L118.025,66.778L118.516,66.778L119.043,66.778L120.106,66.778L120.635,66.778L121.198,66.778L121.693,66.778L122.218,66.778L123.282,66.778L123.822,66.778L124.387,66.778L124.869,66.778L125.395,66.778L126.455,66.778L126.993,66.778L127.558,66.778L128.05,66.778L128.568,66.778L129.63,66.778L130.168,66.778L130.733,66.778L131.226,66.778L131.74,66.778L132.804,66.778L133.343,66.778L133.909,66.778L134.399,66.778L134.913,66.778L135.976,66.778L136.516,66.778L137.08,66.778L137.57,66.778L138.088,66.778L139.15,66.778L139.679,66.778L140.241,66.778L140.735,66.778L141.262,66.778L142.324,66.778L142.853,66.778L143.416,66.778L143.907,66.778L144.435,66.778L145.5,66.778L146.041,66.778L146.606,66.778L147.081,66.778L147.611,66.778L148.673,66.778L149.216,66.778L149.779,66.778L150.266,66.778L150.785,66.778L151.849,66.778L152.387,66.778L152.954,66.778L153.441,66.778L153.959,66.778L155.019,66.778L155.556,66.778L156.12,66.778L156.614,66.778L157.132,66.778L158.192,66.778L158.73,66.778L159.292,66.778L159.786,66.778L160.305,66.778L161.365,66.778L161.897,66.778L162.457,66.778L162.953,66.778L163.478,66.778L164.537,66.778L165.069,66.778L165.632,66.778L166.127,66.778L166.653,66.778L167.715,66.778L168.255,66.778L168.821,66.778L169.311,66.778L169.83,66.778L170.889,66.778L171.427,66.778L171.995,66.778L172.484,66.778L173.003,66.778L174.064,66.778L174.604,66.778L175.17,66.778L175.658,66.778L176.177,66.778L177.24,66.778L177.778,66.778L178.345,66.778L178.837,66.778L179.352,66.778L180.412,66.778L180.95,66.778L181.514,66.778L182.005,66.778L182.525,66.778L183.583,66.778L184.114,66.778L184.675,66.778L185.168,66.778L185.696,66.778L186.758,66.778L187.288,66.778L187.85,66.778L188.345,66.778L188.87,66.778L189.938,66.778L190.479,66.778L191.041,66.778L191.529,66.778L192.046,66.778L193.108,66.778L193.646,66.778L194.232,66.778L194.703,66.778L195.223,66.778L196.283,66.778L196.826,66.778L197.409,66.778L197.875,66.778L198.398,66.778L199.456,66.778L199.999,66.778" stroke="#eeca3b" stroke-width="2"/></g></g><path class="foreground" aria-hidden="true" d="" display="none"/></g><g transform="translate(0,0)"><path class="background" aria-hidden="true" d="M0,0h200v200h-200Z"/><g><g class="mark-line role-mark marks" role="graphics-object" aria-roledescription="line mark container"><path aria-label="Time: Aug 20, 2025; Price: 999; identifier: rove-2" role="graphics-symbol" aria-roledescription="line mark" d="M19.904,89L20.139,89L20.66,89L21.72,89L22.256,89L22.823,89L23.315,89L23.832,89L24.895,89L25.429,89L25.995,89L26.486,89L27.004,89L28.066,89L28.598,89L29.159,89L29.651,89L30.175,89L31.244,89L31.77,89L32.335,89L32.829,89L33.35,89L34.422,89L34.958,89L35.537,89L36.011,89L36.528,89L37.591,89L38.13,89L39.182,89L39.698,89L40.761,89L41.297,89L41.506,89L41.863,89L42.217,89L42.355,89L42.874,89L43.934,89L44.473,89L45.038,89L45.529,89L46.047,89L47.109,89L47.644,89L48.208,89L48.701,89L49.219,89L52.367,111.222L52.391,111.222L53.454,111.222L53.793,111.222L53.983,111.222L54.548,111.222L55.043,111.222L55.566,111.222L56.638,111.222L57.172,111.222L57.735,111.222L58.221,111.222L58.739,111.222L59.807,111.222L60.344,111.222L60.911,111.222L61.397,111.222L61.916,111.222L62.977,111.222L63.512,111.222L64.078,111.222L64.569,111.222L65.088,111.222L66.15,111.222L66.688,111.222L67.249,111.222L67.746,111.222L68.262,111.222L69.325,111.222L69.861,111.222L70.424,111.222L70.913,111.222L71.437,111.222L72.496,111.222L72.768,111.222L73.025,111.222L73.585,111.222L74.082,111.222L74.609,111.222L75.669,111.222L76.199,111.222L76.761,111.222L77.256,111.222L77.782,111.222L78.848,111.222L79.388,111.222L79.954,111.222L80.441,111.222L80.961,111.222L82.021,111.222L82.56,111.222L83.146,111.222L83.617,111.222L84.131,111.222L85.19,111.222L85.731,111.222L86.294,111.222L86.786,111.222L87.307,111.222L88.368,111.222L88.904,111.222L89.466,111.222L89.954,111.222L90.478,111.222L91.54,111.222L92.077,111.222L92.639,111.222L93.129,111.222L93.652,111.222L94.712,111.222L95.243,111.222L95.803,111.222L96.297,111.222L96.826,111.222L97.887,111.222L98.417,111.222L98.975,111.222L99.47,111.222L100,111.222L101.066,111.222L101.601,111.222L102.168,111.222L102.657,111.222L103.176,111.222L104.237,111.222L104.777,111.222L105.341,111.222L105.83,111.222L106.35,111.222L107.412,111.222L107.949,111.222L108.515,111.222L109.004,111.222L109.524,111.222L110.585,111.222L111.122,111.222L111.688,111.222L112.176,111.222L112.698,111.222L113.76,111.222L114.296,111.222L114.861,111.222L115.352,111.222L115.87,111.222L116.931,111.222L117.464,111.222L118.025,111.222L118.516,111.222L119.043,111.222L120.106,111.222L120.635,111.222L121.198,111.222L121.693,111.222L122.218,111.222L123.282,111.222L123.822,111.222L124.387,111.222L124.869,111.222L125.395,111.222L126.455,111.222L126.993,111.222L127.558,111.222L128.05,111.222L128.569,111.222L129.63,111.222L130.168,111.222L130.733,111.222L131.226,111.222L131.74,111.222L132.804,111.222L133.343,111.222L133.909,111.222L134.399,111.222L134.914,111.222L135.976,111.222L136.516,111.222L137.08,111.222L137.57,111.222L138.088,111.222L139.15,111.222L139.679,111.222L140.241,111.222L140.735,111.222L141.262,111.222L142.324,111.222L142.853,111.222L143.416,111.222L143.907,111.222L144.435,111.222L145.5,111.222L146.041,111.222L146.606,111.222L147.081,111.222L147.611,111.222L148.673,111.222L149.216,111.222L149.779,111.222L150.266,111.222L150.785,111.222L151.849,111.222L152.387,111.222L152.954,111.222L153.441,111.222L153.96,111.222L155.019,111.222L155.556,111.222L156.12,111.222L156.614,111.222L157.132,111.222L158.192,111.222L158.73,111.222L159.292,111.222L159.786,111.222L160.305,111.222L161.365,111.222L161.897,111.222L162.457,111.222L162.953,111.222L163.479,111.222L164.537,111.222L165.069,111.222L165.632,111.222L166.127,111.222L166.653,111.222L167.715,111.222L168.255,111.222L168.821,111.222L169.311,111.222L169.83,111.222L170.889,111.222L171.428,111.222L171.995,111.222L172.484,111.222L173.003,111.222L174.064,111.222L174.604,111.222L175.17,111.222L175.658,111.222L176.177,111.222L177.24,111.222L177.779,111.222L178.345,111.222L178.837,111.222L179.352,111.222L180.412,111.222L180.95,111.222L181.514,111.222L182.005,111.222L182.525,111.222L183.583,111.222L184.114,111.222L184.675,111.222L185.168,111.222L185.696,111.222L186.758,111.222L187.288,111.222L187.85,111.222L188.345,111.222L188.87,111.222L189.938,111.222L190.479,111.222L191.041,111.222L191.53,111.222L192.046,111.222L193.108,111.222L193.646,111.222L194.232,111.222L194.703,111.222L195.223,111.222L196.283,111.222L196.826,111.222L197.409,111.222L197.875,111.222L198.398,111.222L199.457,111.222L199.999,111.222" stroke="#72b7b2" stroke-width="2"/></g></g><path class="foreground" aria-hidden="true" d="" display="none"/></g><g transform="translate(0,0)"><path class="background" aria-hidden="true" d="M0,0h200v200h-200Z"/><g><g class="mark-line role-mark marks" role="graphics-object" aria-roledescription="line mark container"><path aria-label="Time: Aug 27, 2025; Price: 1199; identifier: allure-rs-1-2023" role="graphics-symbol" aria-roledescription="line mark" d="M41.506,66.778L41.863,66.778L42.217,66.778L42.355,66.778L42.875,66.778L43.934,66.778L44.473,66.778L45.038,66.778L45.529,66.778L46.047,66.778L47.109,66.778L47.644,66.778L48.208,66.778L48.701,66.778L49.219,66.778L50.279,66.778L50.811,66.778L51.372,66.778L51.867,66.778L52.367,66.778L52.391,66.778L53.454,66.778L53.793,66.778L53.983,66.778L54.548,66.778L55.043,66.778L55.566,66.778L56.638,66.778L57.172,66.778L57.735,66.778L58.221,66.778L58.74,66.778L59.807,66.778L60.344,66.778L60.911,66.778L61.397,66.778L61.916,66.778L62.977,66.778L63.512,66.778L64.078,66.778L64.569,66.778L65.088,66.778L66.15,66.778L66.688,66.778L67.249,66.778L67.746,66.778L68.262,66.778L69.325,66.778L69.861,66.778L70.425,66.778L70.913,66.778L71.437,66.778L72.496,66.778L72.768,66.778L73.025,66.778L73.585,66.778L74.082,66.778L74.609,66.778L75.669,66.778L76.199,66.778L76.761,66.778L77.256,66.778L77.783,66.778L78.848,66.778L79.388,66.778L79.954,66.778L80.441,66.778L80.961,66.778L82.021,66.778L82.56,66.778L83.146,66.778L83.617,66.778L84.131,66.778L85.19,66.778L85.731,66.778L86.294,66.778L86.786,66.778L87.307,66.778L88.368,66.778L88.904,66.778L89.467,66.778L89.954,66.778L90.478,66.778L91.54,66.778L92.077,66.778L92.639,66.778L93.129,66.778L93.652,66.778L94.712,66.778L95.243,66.778L95.803,66.778L96.297,66.778L96.826,66.778L97.887,66.778L98.417,66.778L98.975,66.778L99.47,66.778L100,66.778L101.066,66.778L101.601,66.778L102.168,66.778L102.657,66.778L103.176,66.778L104.237,66.778L104.778,66.778L105.341,66.778L105.83,66.778L106.35,66.778L107.412,66.778L107.949,66.778L108.515,66.778L109.004,66.778L109.524,66.778L110.585,66.778L111.122,66.778L111.688,66.778L112.176,66.778L112.698,66.778L113.76,66.778L114.296,66.778L114.861,66.778L115.352,66.778L115.87,66.778L116.931,66.778L117.464,66.778L118.025,66.778L118.516,66.778L119.043,66.778L120.106,66.778L120.635,66.778L121.198,66.778L121.693,66.778L122.218,66.778L123.282,66.778L123.822,66.778L124.387,66.778L124.869,66.778L125.395,66.778L126.455,66.778L126.993,66.778L127.558,66.778L128.05,66.778L128.569,66.778L129.63,66.778L130.169,66.778L130.733,66.778L131.226,66.778L131.74,66.778L132.804,66.778L133.344,66.778L133.909,66.778L134.399,66.778L134.914,66.778L135.976,66.778L136.516,66.778L137.08,66.778L137.57,66.778L138.088,66.778L139.15,66.778L139.679,66.778L140.241,66.778L140.736,66.778L141.262,66.778L142.324,66.778L142.853,66.778L143.416,66.778L143.907,66.778L144.435,66.778L145.501,66.778L146.041,66.778L146.606,66.778L147.081,66.778L147.611,66.778L148.673,66.778L149.216,66.778L149.78,66.778L150.266,66.778L150.785,66.778L151.849,66.778L152.388,66.778L152.954,66.778L153.441,66.778L153.96,66.778L155.019,66.778L155.556,66.778L156.12,66.778L156.614,66.778L157.132,66.778L158.192,66.778L158.73,66.778L159.292,66.778L159.786,66.778L160.305,66.778L161.365,66.778L161.897,66.778L162.457,66.778L162.953,66.778L163.479,66.778L164.537,66.778L165.069,66.778L165.632,66.778L166.127,66.778L166.653,66.778L167.716,66.778L168.255,66.778L168.821,66.778L169.311,66.778L169.83,66.778L170.889,66.778L171.428,66.778L171.996,66.778L172.484,66.778L173.003,66.778L174.065,66.778L174.604,66.778L175.17,66.778L175.659,66.778L176.177,66.778L177.24,66.778L177.779,66.778L178.345,66.778L178.837,66.778L179.352,66.778L180.412,66.778L180.95,66.778L181.514,66.778L182.005,66.778L182.525,66.778L183.583,66.778L184.114,66.778L184.675,66.778L185.168,66.778L185.696,66.778L186.758,66.778L187.288,66.778L187.85,66.778L188.345,66.778L188.87,66.778L189.938,66.778L190.479,66.778L191.041,66.778L191.53,66.778L192.046,66.778L193.108,66.778L193.646,66.778L194.232,66.778L194.703,66.778L195.223,66.778L196.283,66.778L196.826,66.778L197.409,66.778L197.876,66.778L198.398,66.778L199.457,66.778L199.999,66.778" stroke="#b279a2" stroke-width="2"/></g></g><path class="foreground" aria-hidden="true" d="" display="none"/></g><g transform="translate(0,0)"><path class="background" aria-hidden="true" d="M0,0h200v200h-200Z"/><g><g class="mark-line role-mark marks" role="graphics-object" aria-roledescription="line mark container"><path aria-label="Time: Aug 27, 2025; Price: 999; identifier: allure-rs-2-2022" role="graphics-symbol" aria-roledescription="line mark" d="M41.506,89L41.863,89L42.217,89L42.355,89L42.875,89L43.935,89L44.473,89L45.038,89L45.529,89L46.047,89L47.109,89L47.644,89L48.208,89L48.701,89L49.219,89L52.367,111.222L52.391,111.222L53.454,111.222L53.793,111.222L53.983,111.222L54.548,111.222L55.043,111.222L55.566,111.222L56.638,111.222L57.172,111.222L57.735,111.222L58.221,111.222L58.74,111.222L59.807,111.222L60.344,111.222L60.911,111.222L61.397,111.222L61.916,111.222L62.977,111.222L63.513,111.222L64.078,111.222L64.569,111.222L65.088,111.222L66.15,111.222L66.688,111.222L67.249,111.222L67.746,111.222L68.262,111.222L69.325,111.222L69.861,111.222L70.425,111.222L70.914,111.222L71.437,111.222L72.496,111.222L72.768,111.222L73.025,111.222L73.585,111.222L74.082,111.222L74.609,111.222L75.669,111.222L76.199,111.222L76.761,111.222L77.256,111.222L77.783,111.222L78.848,111.222L79.388,111.222L79.954,111.222L80.442,111.222L80.961,111.222L82.021,111.222L82.561,111.222L83.146,111.222L83.618,111.222L84.132,111.222L85.19,111.222L85.731,111.222L86.294,111.222L86.786,111.222L87.307,111.222L88.368,111.222L88.904,111.222L89.467,111.222L89.954,111.222L90.478,111.222L91.54,111.222L92.077,111.222L92.639,111.222L93.129,111.222L93.652,111.222L94.712,111.222L95.243,111.222L95.804,111.222L96.297,111.222L96.826,111.222L97.887,111.222L98.417,111.222L98.975,111.222L99.47,111.222L100,111.222L101.066,111.222L101.601,111.222L102.168,111.222L102.657,111.222L103.176,111.222L104.237,111.222L104.778,111.222L105.341,111.222L105.83,111.222L106.351,111.222L107.412,111.222L107.949,111.222L108.515,111.222L109.004,111.222L109.524,111.222L110.586,111.222L111.122,111.222L111.688,111.222L112.176,111.222L112.698,111.222L113.76,111.222L114.296,111.222L114.861,111.222L115.352,111.222L115.87,111.222L116.931,111.222L117.464,111.222L118.025,111.222L118.516,111.222L119.043,111.222L120.106,111.222L120.635,111.222L121.198,111.222L121.693,111.222L122.218,111.222L123.282,111.222L123.822,111.222L124.387,111.222L124.869,111.222L125.395,111.222L126.455,111.222L126.994,111.222L127.558,111.222L128.05,111.222L128.569,111.222L129.63,111.222L130.169,111.222L130.733,111.222L131.226,111.222L131.74,111.222L132.804,111.222L133.344,111.222L133.91,111.222L134.399,111.222L134.914,111.222L135.976,111.222L136.516,111.222L137.08,111.222L137.57,111.222L138.088,111.222L139.15,111.222L139.679,111.222L140.241,111.222L140.736,111.222L141.262,111.222L142.324,111.222L142.853,111.222L143.416,111.222L143.907,111.222L144.435,111.222L145.501,111.222L146.041,111.222L146.606,111.222L147.081,111.222L147.611,111.222L148.673,111.222L149.216,111.222L149.78,111.222L150.266,111.222L150.785,111.222L151.849,111.222L152.388,111.222L152.954,111.222L153.441,111.222L153.96,111.222L155.019,111.222L155.556,111.222L156.12,111.222L156.614,111.222L157.132,111.222L158.192,111.222L158.73,111.222L159.292,111.222L159.786,111.222L160.305,111.222L161.365,111.222L161.897,111.222L162.458,111.222L162.954,111.222L163.479,111.222L164.537,111.222L165.069,111.222L165.632,111.222L166.127,111.222L166.653,111.222L167.716,111.222L168.255,111.222L168.821,111.222L169.311,111.222L169.83,111.222L170.889,111.222L171.428,111.222L171.996,111.222L172.484,111.222L173.003,111.222L174.065,111.222L174.604,111.222L175.171,111.222L175.659,111.222L176.177,111.222L177.24,111.222L177.779,111.222L178.345,111.222L178.837,111.222L179.352,111.222L180.412,111.222L180.95,111.222L181.514,111.222L182.005,111.222L182.525,111.222L183.584,111.222L184.114,111.222L184.675,111.222L185.168,111.222L185.696,111.222L186.758,111.222L187.288,111.222L187.85,111.222L188.345,111.222L188.87,111.222L189.938,111.222L190.479,111.222L191.041,111.222L191.53,111.222L192.046,111.222L193.108,111.222L193.646,111.222L194.232,111.222L194.703,111.222L195.223,111.222L196.283,111.222L196.826,111.222L197.409,111.222L197.876,111.222L198.398,111.222L199.457,111.222L199.999,111.222" stroke="#54a24b" stroke-width="2"/></g></g><path class="foreground" aria-hidden="true" d="" display="none"/></g><g transform="translate(0,0)"><path class="background" aria-hidden="true" d="M0,0h200v200h-200Z"/><g><g class="mark-line role-mark marks" role="graphics-object" aria-roledescription="line mark container"><path aria-label="Time: Aug 27, 2025; Price: 949; identifier: allure-rs-2-2023" role="graphics-symbol" aria-roledescription="line mark" d="M41.507,94.556L41.863,94.556L42.217,94.556L42.355,94.556L42.875,94.556L43.935,94.556L44.473,94.556L45.038,94.556L45.529,94.556L46.047,94.556L47.109,94.556L47.645,94.556L48.208,94.556L48.701,94.556L49.22,94.556L50.279,94.556L50.811,94.556L51.373,94.556L51.868,94.556L52.367,94.556L52.391,94.556L53.454,94.556L53.793,94.556L53.984,94.556L54.548,94.556L55.043,94.556L55.566,94.556L56.638,94.556L57.172,94.556L57.735,94.556L58.221,94.556L58.74,94.556L59.807,94.556L60.344,94.556L60.911,94.556L61.397,94.556L61.916,94.556L62.977,94.556L63.513,94.556L64.078,94.556L64.569,94.556L65.089,94.556L66.15,94.556L66.688,94.556L67.249,94.556L67.746,94.556L68.262,94.556L69.325,94.556L69.861,94.556L70.425,94.556L70.914,94.556L71.437,94.556L72.496,94.556L72.768,94.556L73.026,94.556L73.585,94.556L74.082,94.556L74.609,94.556L75.669,94.556L76.199,94.556L76.761,94.556L77.256,94.556L77.783,94.556L78.848,94.556L79.388,94.556L79.954,94.556L80.442,94.556L80.961,94.556L82.021,94.556L82.561,94.556L83.146,94.556L83.618,94.556L84.132,94.556L85.19,94.556L85.731,94.556L86.294,94.556L86.786,94.556L87.307,94.556L88.368,94.556L88.904,94.556L89.467,94.556L89.954,94.556L90.478,94.556L91.54,94.556L92.077,94.556L92.639,94.556L93.129,94.556L93.652,94.556L94.712,94.556L95.243,94.556L95.804,94.556L96.297,94.556L96.826,94.556L97.887,94.556L98.417,94.556L98.975,94.556L99.47,94.556L100,94.556L101.066,94.556L101.601,94.556L102.168,94.556L102.658,94.556L103.176,94.556L104.237,94.556L104.778,94.556L105.341,94.556L105.83,94.556L106.351,94.556L107.412,94.556L107.949,94.556L108.515,94.556L109.005,94.556L109.524,94.556L110.586,94.556L111.122,94.556L111.688,94.556L112.177,94.556L112.698,94.556L113.76,94.556L114.296,94.556L114.861,94.556L115.352,94.556L115.87,94.556L116.931,94.556L117.464,94.556L118.025,94.556L118.516,94.556L119.043,94.556L120.106,94.556L120.635,94.556L121.198,94.556L121.693,94.556L122.219,94.556L123.282,94.556L123.822,94.556L124.387,94.556L124.869,94.556L125.395,94.556L126.455,94.556L126.994,94.556L127.558,94.556L128.05,94.556L128.569,94.556L129.63,94.556L130.169,94.556L130.733,94.556L131.226,94.556L131.74,94.556L132.804,94.556L133.344,94.556L133.91,94.556L134.399,94.556L134.914,94.556L135.976,94.556L136.516,94.556L137.08,94.556L137.57,94.556L138.088,94.556L139.15,94.556L139.679,94.556L140.241,94.556L140.736,94.556L141.262,94.556L142.324,94.556L142.853,94.556L143.416,94.556L143.907,94.556L144.435,94.556L145.501,94.556L146.041,94.556L146.606,94.556L147.081,94.556L147.611,94.556L148.673,94.556L149.216,94.556L149.78,94.556L150.266,94.556L150.785,94.556L151.849,94.556L152.388,94.556L152.954,94.556L153.441,94.556L153.96,94.556L155.019,94.556L155.556,94.556L156.12,94.556L156.614,94.556L157.132,94.556L158.192,94.556L158.73,94.556L159.292,94.556L159.787,94.556L160.305,94.556L161.365,94.556L161.897,94.556L162.458,94.556L162.954,94.556L163.479,94.556L164.537,94.556L165.069,94.556L165.633,94.556L166.127,94.556L166.653,94.556L167.716,94.556L168.255,94.556L168.821,94.556L169.311,94.556L169.83,94.556L170.889,94.556L171.428,94.556L171.996,94.556L172.484,94.556L173.003,94.556L174.065,94.556L174.605,94.556L175.171,94.556L175.659,94.556L176.177,94.556L177.24,94.556L177.779,94.556L178.345,94.556L178.837,94.556L179.352,94.556L180.412,94.556L180.95,94.556L181.515,94.556L182.005,94.556L182.525,94.556L183.584,94.556L184.115,94.556L184.675,94.556L185.169,94.556L185.696,94.556L186.758,94.556L187.289,94.556L187.85,94.556L188.345,94.556L188.87,94.556L189.938,94.556L190.479,94.556L191.042,94.556L191.53,94.556L192.046,94.556L193.108,94.556L193.646,94.556L194.232,94.556L194.704,94.556L195.223,94.556L196.283,94.556L196.826,94.556L197.409,94.556L197.876,94.556L198.398,94.556L199.457,94.556L200,94.556" stroke="#bab0ac" stroke-width="2"/></g></g><path class="foreground" aria-hidden="true" d="" display="none"/></g><g transform="translate(0,0)"><path class="background" aria-hidden="true" d="M0,0h200v200h-200Z"/><g><g class="mark-line role-mark marks" role="graphics-object" aria-roledescription="line mark container"><path aria-label="Time: Aug 27, 2025; Price: 999; identifier: allure-rs-2-2024" role="graphics-symbol" aria-roledescription="line mark" d="M41.507,89L41.863,89L42.217,89L42.355,89L42.875,89L43.935,89L44.473,89L45.038,89L45.529,89L46.047,89L47.109,89L47.645,89L48.208,89L48.701,89L49.22,89L52.367,111.222L52.391,111.222L53.454,111.222L53.793,111.222L53.984,111.222L54.548,111.222L55.043,111.222L55.566,111.222L56.638,111.222L57.172,111.222L57.735,111.222L58.221,111.222L58.74,111.222L59.807,111.222L60.344,111.222L60.911,111.222L61.397,111.222L61.916,111.222L62.977,111.222L63.513,111.222L64.078,111.222L64.57,111.222L65.089,111.222L66.15,111.222L66.688,111.222L67.249,111.222L67.746,111.222L68.262,111.222L69.325,111.222L69.861,111.222L70.425,111.222L70.914,111.222L71.437,111.222L72.496,111.222L72.768,111.222L73.026,111.222L73.585,111.222L74.082,111.222L74.609,111.222L75.669,111.222L76.199,111.222L76.761,111.222L77.256,111.222L77.783,111.222L78.848,111.222L79.388,111.222L79.954,111.222L80.442,111.222L80.961,111.222L82.021,111.222L82.561,111.222L83.146,111.222L83.618,111.222L84.132,111.222L85.19,111.222L85.732,111.222L86.294,111.222L86.787,111.222L87.307,111.222L88.369,111.222L88.904,111.222L89.467,111.222L89.954,111.222L90.478,111.222L91.54,111.222L92.077,111.222L92.639,111.222L93.13,111.222L93.652,111.222L94.712,111.222L95.243,111.222L95.804,111.222L96.297,111.222L96.826,111.222L97.887,111.222L98.417,111.222L98.975,111.222L99.47,111.222L100,111.222L101.066,111.222L101.601,111.222L102.168,111.222L102.658,111.222L103.176,111.222L104.237,111.222L104.778,111.222L105.341,111.222L105.83,111.222L106.351,111.222L107.412,111.222L107.949,111.222L108.516,111.222L109.005,111.222L109.524,111.222L110.586,111.222L111.122,111.222L111.689,111.222L112.177,111.222L112.698,111.222L113.76,111.222L114.296,111.222L114.861,111.222L115.352,111.222L115.87,111.222L116.931,111.222L117.464,111.222L118.025,111.222L118.516,111.222L119.043,111.222L120.106,111.222L120.635,111.222L121.198,111.222L121.693,111.222L122.219,111.222L123.282,111.222L123.822,111.222L124.387,111.222L124.869,111.222L125.395,111.222L126.455,111.222L126.994,111.222L127.559,111.222L128.05,111.222L128.569,111.222L129.63,111.222L130.169,111.222L130.733,111.222L131.226,111.222L131.74,111.222L132.804,111.222L133.344,111.222L133.91,111.222L134.399,111.222L134.914,111.222L135.977,111.222L136.516,111.222L137.08,111.222L137.57,111.222L138.088,111.222L139.15,111.222L139.679,111.222L140.241,111.222L140.736,111.222L141.262,111.222L142.324,111.222L142.853,111.222L143.416,111.222L143.907,111.222L144.435,111.222L145.501,111.222L146.041,111.222L146.606,111.222L147.081,111.222L147.611,111.222L148.673,111.222L149.216,111.222L149.78,111.222L150.266,111.222L150.785,111.222L151.849,111.222L152.388,111.222L152.954,111.222L153.441,111.222L153.96,111.222L155.019,111.222L155.556,111.222L156.12,111.222L156.614,111.222L157.132,111.222L158.192,111.222L158.73,111.222L159.292,111.222L159.787,111.222L160.305,111.222L161.365,111.222L161.897,111.222L162.458,111.222L162.954,111.222L163.479,111.222L164.537,111.222L165.069,111.222L165.633,111.222L166.127,111.222L166.653,111.222L167.716,111.222L168.255,111.222L168.821,111.222L169.311,111.222L169.83,111.222L170.889,111.222L171.428,111.222L171.996,111.222L172.484,111.222L173.003,111.222L174.065,111.222L174.605,111.222L175.171,111.222L175.659,111.222L176.178,111.222L177.24,111.222L177.779,111.222L178.346,111.222L178.838,111.222L179.352,111.222L180.412,111.222L180.95,111.222L181.515,111.222L182.005,111.222L182.525,111.222L183.584,111.222L184.115,111.222L184.675,111.222L185.169,111.222L185.696,111.222L186.758,111.222L187.289,111.222L187.85,111.222L188.345,111.222L188.87,111.222L189.938,111.222L190.479,111.222L191.042,111.222L191.53,111.222L192.046,111.222L193.108,111.222L193.646,111.222L194.232,111.222L194.704,111.222L195.223,111.222L196.283,111.222L196.826,111.222L197.41,111.222L197.876,111.222L198.398,111.222L199.457,111.222L200,111.222" stroke="#eeca3b" stroke-width="2"/></g></g><path class="foreground" aria-hidden="true" d="" display="none"/></g><g transform="translate(0,0)"><path class="background" aria-hidden="true" d="M0,0h200v200h-200Z"/><g><g class="mark-line role-mark marks" role="graphics-object" aria-roledescription="line mark container"><path aria-label="Time: Aug 27, 2025; Price: 1799; identifier: devote-1-2024" role="graphics-symbol" aria-roledescription="line mark" d="M42.217,0.111L42.355,0.111L42.875,0.111L43.935,0.111L44.473,0.111L45.038,0.111L45.529,0.111L46.047,0.111L47.109,0.111L47.645,0.111L48.208,0.111L48.701,0.111L49.22,0.111L52.367,44.556L52.391,44.556L53.454,44.556L53.793,44.556L53.984,44.556L54.548,44.556L55.043,44.556L55.567,44.556L56.638,44.556L57.172,44.556L57.735,44.556L58.221,44.556L58.74,44.556L59.807,44.556L60.344,44.556L60.911,44.556L61.397,44.556L61.916,44.556L62.977,44.556L63.513,44.556L64.078,44.556L64.57,44.556L65.089,44.556L66.15,44.556L66.688,44.556L67.249,44.556L67.746,44.556L68.262,44.556L69.325,44.556L69.861,44.556L70.425,44.556L70.914,44.556L71.437,44.556L72.496,44.556L72.768,44.556L73.026,44.556L73.586,44.556L74.082,44.556L74.609,44.556L75.669,44.556L76.199,44.556L76.761,44.556L77.257,44.556L77.783,44.556L78.848,44.556L79.388,44.556L79.954,44.556L80.442,44.556L80.961,44.556L82.021,44.556L82.561,44.556L83.146,44.556L83.618,44.556L84.132,44.556L85.19,44.556L85.732,44.556L86.294,44.556L86.787,44.556L87.307,44.556L88.369,44.556L88.904,44.556L89.467,44.556L89.954,44.556L90.478,44.556L91.54,44.556L92.077,44.556L92.639,44.556L93.13,44.556L93.652,44.556L94.712,44.556L95.243,44.556L95.804,44.556L96.298,44.556L96.826,44.556L97.887,44.556L98.417,44.556L98.975,44.556L99.47,44.556L100,44.556L101.066,44.556L101.601,44.556L102.169,44.556L102.658,44.556L103.177,44.556L104.237,44.556L104.778,44.556L105.342,44.556L105.83,44.556L106.351,44.556L107.412,44.556L107.949,44.556L108.516,44.556L109.005,44.556L109.524,44.556L110.586,44.556L111.122,44.556L111.689,44.556L112.177,44.556L112.698,44.556L113.76,44.556L114.296,44.556L114.861,44.556L115.352,44.556L115.87,44.556L116.931,44.556L117.464,44.556L118.026,44.556L118.516,44.556L119.043,44.556L120.106,44.556L120.636,44.556L121.199,44.556L121.693,44.556L122.219,44.556L123.282,44.556L123.822,44.556L124.387,44.556L124.869,44.556L125.395,44.556L126.455,44.556L126.994,44.556L127.559,44.556L128.05,44.556L128.569,44.556L129.63,44.556L130.169,44.556L130.733,44.556L131.226,44.556L131.741,44.556L132.804,44.556L133.344,44.556L133.91,44.556L134.4,44.556L134.914,44.556L135.977,44.556L136.516,44.556L137.08,44.556L137.57,44.556L138.088,44.556L139.15,44.556L139.679,44.556L140.241,44.556L140.736,44.556L141.262,44.556L142.324,44.556L142.853,44.556L143.416,44.556L143.907,44.556L144.435,44.556L145.501,44.556L146.041,44.556L146.606,44.556L147.081,44.556L147.611,44.556L148.673,44.556L149.216,44.556L149.78,44.556L150.266,44.556L150.786,44.556L151.849,44.556L152.388,44.556L152.954,44.556L153.441,44.556L153.96,44.556L155.019,44.556L155.556,44.556L156.12,44.556L156.615,44.556L157.132,44.556L158.192,44.556L158.73,44.556L159.293,44.556L159.787,44.556L160.305,44.556L161.365,44.556L161.897,44.556L162.458,44.556L162.954,44.556L163.479,44.556L164.538,44.556L165.069,44.556L165.633,44.556L166.127,44.556L166.653,44.556L167.716,44.556L168.255,44.556L168.821,44.556L169.311,44.556L169.83,44.556L170.889,44.556L171.428,44.556L171.996,44.556L172.485,44.556L173.003,44.556L174.065,44.556L174.605,44.556L175.171,44.556L175.659,44.556L176.178,44.556L177.24,44.556L177.779,44.556L178.346,44.556L178.838,44.556L179.352,44.556L180.413,44.556L180.95,44.556L181.515,44.556L182.005,44.556L182.525,44.556L183.584,44.556L184.115,44.556L184.676,44.556L185.169,44.556L185.697,44.556L186.758,44.556L187.289,44.556L187.85,44.556L188.345,44.556L188.87,44.556L189.938,44.556L190.479,44.556L191.042,44.556L191.53,44.556L192.046,44.556L193.108,44.556L193.646,44.556L194.232,44.556L194.704,44.556L195.223,44.556L196.283,44.556L196.826,44.556L197.41,44.556L197.876,44.556L198.398,44.556L199.458,44.556L200,44.556" stroke="#72b7b2" stroke-width="2"/></g></g><path class="foreground" aria-hidden="true" d="" display="none"/></g><g transform="translate(0,0)"><path class="background" aria-hidden="true" d="M0,0h200v200h-200Z"/><g><g class="mark-line role-mark marks" role="graphics-object" aria-roledescription="line mark container"><path aria-label="Time: Aug 27, 2025; Price: 1699; identifier: devote-1-2022" role="graphics-symbol" aria-roledescription="line mark" d="M42.217,11.222L42.356,11.222L42.875,11.222L43.935,11.222L44.473,11.222L45.038,11.222L45.529,11.222L46.047,11.222L47.109,11.222L47.645,11.222L48.209,11.222L48.701,11.222L49.22,11.222L50.279,11.222L50.811,11.222L51.373,11.222L51.868,11.222L52.367,11.222L52.391,11.222L53.454,11.222L53.793,11.222L53.984,11.222L54.548,11.222L55.043,11.222L55.567,11.222L56.639,11.222L57.172,11.222L57.735,11.222L58.221,11.222L58.74,11.222L59.807,11.222L60.344,11.222L60.911,11.222L61.397,11.222L61.916,11.222L62.977,11.222L63.513,11.222L64.078,11.222L64.57,11.222L65.089,11.222L66.15,11.222L66.688,11.222L67.249,11.222L67.746,11.222L68.262,11.222L69.325,11.222L69.861,11.222L70.425,11.222L70.914,11.222L71.437,11.222L72.496,11.222L72.768,11.222L73.026,11.222L73.586,11.222L74.082,11.222L74.609,11.222L75.669,11.222L76.199,11.222L76.761,11.222L77.257,11.222L77.783,11.222L78.848,11.222L79.388,11.222L79.954,11.222L80.442,11.222L80.962,11.222L82.021,11.222L82.561,11.222L83.146,11.222L83.618,11.222L84.132,11.222L85.19,11.222L85.732,11.222L86.294,11.222L86.787,11.222L87.307,11.222L88.369,11.222L88.904,11.222L89.467,11.222L89.954,11.222L90.478,11.222L91.54,11.222L92.077,11.222L92.64,11.222L93.13,11.222L93.652,11.222L94.712,11.222L95.243,11.222L95.804,11.222L96.298,11.222L96.826,11.222L97.887,11.222L98.417,11.222L98.975,11.222L99.471,11.222L100,11.222L101.066,11.222L101.601,11.222L102.169,11.222L102.658,11.222L103.178,11.222L104.237,11.222L104.778,11.222L105.342,11.222L105.83,11.222L106.351,11.222L107.412,11.222L107.949,11.222L108.516,11.222L109.005,11.222L109.524,11.222L110.586,11.222L111.122,11.222L111.689,11.222L112.177,11.222L112.698,11.222L113.76,11.222L114.296,11.222L114.861,11.222L115.352,11.222L115.87,11.222L116.932,11.222L117.464,11.222L118.026,11.222L118.517,11.222L119.043,11.222L120.107,11.222L120.636,11.222L121.199,11.222L121.693,11.222L122.219,11.222L123.282,11.222L123.823,11.222L124.387,11.222L124.869,11.222L125.395,11.222L126.455,11.222L126.994,11.222L127.559,11.222L128.05,11.222L128.569,11.222L129.63,11.222L130.169,11.222L130.733,11.222L131.227,11.222L131.741,11.222L132.804,11.222L133.344,11.222L133.91,11.222L134.4,11.222L134.914,11.222L135.977,11.222L136.516,11.222L137.08,11.222L137.57,11.222L138.088,11.222L139.15,11.222L139.679,11.222L140.241,11.222L140.736,11.222L141.262,11.222L142.324,11.222L142.853,11.222L143.416,11.222L143.907,11.222L144.435,11.222L145.501,11.222L146.041,11.222L146.607,11.222L147.081,11.222L147.611,11.222L148.673,11.222L149.217,11.222L149.78,11.222L150.266,11.222L150.786,11.222L151.849,11.222L152.388,11.222L152.954,11.222L153.441,11.222L153.96,11.222L155.019,11.222L155.556,11.222L156.12,11.222L156.615,11.222L157.132,11.222L158.192,11.222L158.73,11.222L159.293,11.222L159.787,11.222L160.305,11.222L161.365,11.222L161.897,11.222L162.458,11.222L162.954,11.222L163.479,11.222L164.538,11.222L165.069,11.222L165.633,11.222L166.127,11.222L166.653,11.222L167.716,11.222L168.255,11.222L168.821,11.222L169.311,11.222L169.83,11.222L170.889,11.222L171.428,11.222L171.996,11.222L172.485,11.222L173.003,11.222L174.065,11.222L174.605,11.222L175.171,11.222L175.659,11.222L176.178,11.222L177.24,11.222L177.779,11.222L178.346,11.222L178.838,11.222L179.352,11.222L180.413,11.222L180.95,11.222L181.515,11.222L182.005,11.222L182.525,11.222L183.584,11.222L184.115,11.222L184.676,11.222L185.169,11.222L185.697,11.222L186.758,11.222L187.289,11.222L187.85,11.222L188.346,11.222L188.871,11.222L189.939,11.222L190.479,11.222L191.042,11.222L191.53,11.222L192.046,11.222L193.108,11.222L193.646,11.222L194.232,11.222L194.704,11.222L195.223,11.222L196.283,11.222L196.826,11.222L197.41,11.222L197.876,11.222L198.398,11.222L199.458,11.222L200,11.222" stroke="#4c78a8" stroke-width="2"/></g></g><path class="foreground" aria-hidden="true" d="" display="none"/></g><g transform="translate(0,0)"><path class="background" aria-hidden="true" d="M0,0h200v200h-200Z"/><g><g class="mark-line role-mark marks" role="graphics-object" aria-roledescription="line mark container"><path aria-label="Time: Aug 31, 2025; Price: 1599; identifier: silex-400-oak-bork-2026" role="graphics-symbol" aria-roledescription="line mark" d="M53.793,22.333L53.984,22.333L54.548,22.333L55.043,22.333L55.567,22.333L56.639,22.333L57.172,22.333L57.735,22.333L58.222,22.333L58.74,22.333L59.808,22.333L60.344,22.333L60.912,22.333L61.397,22.333L61.916,22.333L62.977,22.333L63.513,22.333L64.078,22.333L64.57,22.333L65.089,22.333L66.151,22.333L66.688,22.333L67.249,22.333L67.746,22.333L68.262,22.333L69.326,22.333L69.861,22.333L70.425,22.333L70.914,22.333L71.437,22.333L72.496,22.333L72.768,22.333L73.026,22.333L73.586,22.333L74.083,22.333L74.609,22.333L75.669,22.333L76.199,22.333L76.762,22.333L77.257,22.333L77.783,22.333L78.849,22.333L79.388,22.333L79.954,22.333L80.442,22.333L80.962,22.333L82.021,22.333L82.561,22.333L83.146,22.333L83.618,22.333L84.132,22.333L85.191,22.333L85.732,22.333L86.294,22.333L86.787,22.333L87.307,22.333L88.369,22.333L88.905,22.333L89.467,22.333L89.955,22.333L90.479,22.333L91.54,22.333L92.077,22.333L92.64,22.333L93.13,22.333L93.652,22.333L94.712,22.333L95.243,22.333L95.804,22.333L96.298,22.333L96.827,22.333L97.887,22.333L98.418,22.333L98.976,22.333L99.471,22.333L100,22.333L101.066,22.333L101.601,22.333L102.169,22.333L102.659,22.333L103.178,22.333L104.238,22.333L104.778,22.333L105.342,22.333L105.83,22.333L106.351,22.333L107.413,22.333L107.949,22.333L108.516,22.333L109.005,22.333L109.524,22.333L110.586,22.333L111.122,22.333L111.689,22.333L112.177,22.333L112.699,22.333L113.76,22.333L114.296,22.333L114.861,22.333L115.353,22.333L115.871,22.333L116.932,22.333L117.464,22.333L118.026,22.333L118.517,22.333L119.043,22.333L120.107,22.333L120.636,22.333L121.199,22.333L121.693,22.333L122.219,22.333L123.282,22.333L123.823,22.333L124.387,22.333L124.869,22.333L125.396,22.333L126.455,22.333L126.994,22.333L127.559,22.333L128.051,22.333L128.569,22.333L129.63,22.333L130.169,22.333L130.734,22.333L131.227,22.333L131.741,22.333L132.804,22.333L133.344,22.333L133.91,22.333L134.4,22.333L134.914,22.333L135.977,22.333L136.516,22.333L137.08,22.333L137.571,22.333L138.089,22.333L139.15,22.333L139.679,22.333L140.241,22.333L140.736,22.333L141.263,22.333L142.324,22.333L142.854,22.333L143.416,22.333L143.907,22.333L144.436,22.333L145.501,22.333L146.041,22.333L146.607,22.333L147.082,22.333L147.612,22.333L148.674,22.333L149.217,22.333L149.78,22.333L150.266,22.333L150.786,22.333L151.849,22.333L152.388,22.333L152.955,22.333L153.442,22.333L153.96,22.333L155.019,22.333L155.557,22.333L156.12,22.333L156.615,22.333L157.132,22.333L158.192,22.333L158.73,22.333L159.293,22.333L159.787,22.333L160.306,22.333L161.365,22.333L161.898,22.333L162.458,22.333L162.954,22.333L163.479,22.333L164.538,22.333L165.07,22.333L165.633,22.333L166.128,22.333L166.654,22.333L167.716,22.333L168.255,22.333L168.822,22.333L169.311,22.333L169.83,22.333L170.89,22.333L171.428,22.333L171.996,22.333L172.485,22.333L173.004,22.333L174.065,22.333L174.605,22.333L175.171,22.333L175.659,22.333L176.178,22.333L177.24,22.333L177.779,22.333L178.346,22.333L178.838,22.333L179.352,22.333L180.413,22.333L180.95,22.333L181.515,22.333L182.006,22.333L182.526,22.333L183.584,22.333L184.115,22.333L184.676,22.333L185.169,22.333L185.697,22.333L186.758,22.333L187.289,22.333L187.85,22.333L188.346,22.333L188.871,22.333L189.939,22.333L190.479,22.333L191.042,22.333L191.53,22.333L192.047,22.333L193.108,22.333L193.647,22.333L194.233,22.333L194.704,22.333L195.223,22.333L196.284,22.333L196.826,22.333L197.41,22.333L197.876,22.333L198.398,22.333L199.459,22.333L200,22.333" stroke="#f58518" stroke-width="2"/></g></g><path class="foreground" aria-hidden="true" d="" display="none"/></g><g transform="translate(0,0)"><path class="background" aria-hidden="true" d="M0,0h200v200h-200Z"/><g><g class="mark-line role-mark marks" role="graphics-object" aria-roledescription="line mark container"><path aria-label="Time: Aug 31, 2025; Price: 1599; identifier: silex-400-warm-slate-grey-2026" role="graphics-symbol" aria-roledescription="line mark" d="M53.794,22.333L53.984,22.333L54.548,22.333L55.044,22.333L55.567,22.333L56.639,22.333L57.172,22.333L57.736,22.333L58.222,22.333L58.74,22.333L59.808,22.333L60.344,22.333L60.912,22.333L61.397,22.333L61.916,22.333L62.977,22.333L63.513,22.333L64.078,22.333L64.57,22.333L65.089,22.333L66.151,22.333L66.688,22.333L67.249,22.333L67.746,22.333L68.262,22.333L69.326,22.333L69.861,22.333L70.425,22.333L70.914,22.333L71.437,22.333L72.496,22.333L72.768,22.333L73.026,22.333L73.586,22.333L74.083,22.333L74.609,22.333L75.669,22.333L76.2,22.333L76.762,22.333L77.257,22.333L77.783,22.333L78.849,22.333L79.389,22.333L79.955,22.333L80.442,22.333L80.962,22.333L82.021,22.333L82.561,22.333L83.146,22.333L83.618,22.333L84.132,22.333L85.191,22.333L85.732,22.333L86.295,22.333L86.787,22.333L87.308,22.333L88.369,22.333L88.905,22.333L89.467,22.333L89.955,22.333L90.479,22.333L91.54,22.333L92.078,22.333L92.64,22.333L93.13,22.333L93.652,22.333L94.712,22.333L95.244,22.333L95.804,22.333L96.298,22.333L96.827,22.333L97.887,22.333L98.418,22.333L98.976,22.333L99.471,22.333L100.001,22.333L101.067,22.333L101.601,22.333L102.169,22.333L102.659,22.333L103.178,22.333L104.238,22.333L104.778,22.333L105.342,22.333L105.83,22.333L106.351,22.333L107.413,22.333L107.949,22.333L108.516,22.333L109.005,22.333L109.524,22.333L110.586,22.333L111.122,22.333L111.689,22.333L112.177,22.333L112.699,22.333L113.76,22.333L114.296,22.333L114.862,22.333L115.353,22.333L115.871,22.333L116.932,22.333L117.465,22.333L118.026,22.333L118.517,22.333L119.044,22.333L120.107,22.333L120.636,22.333L121.199,22.333L121.693,22.333L122.219,22.333L123.282,22.333L123.823,22.333L124.388,22.333L124.869,22.333L125.396,22.333L126.456,22.333L126.994,22.333L127.559,22.333L128.051,22.333L128.569,22.333L129.63,22.333L130.169,22.333L130.735,22.333L131.227,22.333L131.741,22.333L132.804,22.333L133.344,22.333L133.91,22.333L134.4,22.333L134.914,22.333L135.977,22.333L136.516,22.333L137.08,22.333L137.571,22.333L138.089,22.333L139.15,22.333L139.679,22.333L140.241,22.333L140.736,22.333L141.263,22.333L142.324,22.333L142.854,22.333L143.417,22.333L143.908,22.333L144.436,22.333L145.501,22.333L146.042,22.333L146.607,22.333L147.082,22.333L147.612,22.333L148.674,22.333L149.217,22.333L149.78,22.333L150.266,22.333L150.786,22.333L151.85,22.333L152.388,22.333L152.955,22.333L153.442,22.333L153.96,22.333L155.019,22.333L155.557,22.333L156.12,22.333L156.615,22.333L157.132,22.333L158.192,22.333L158.731,22.333L159.293,22.333L159.787,22.333L160.306,22.333L161.365,22.333L161.898,22.333L162.458,22.333L162.954,22.333L163.479,22.333L164.538,22.333L165.07,22.333L165.633,22.333L166.128,22.333L166.654,22.333L167.716,22.333L168.255,22.333L168.822,22.333L169.311,22.333L169.831,22.333L170.89,22.333L171.428,22.333L171.996,22.333L172.485,22.333L173.004,22.333L174.065,22.333L174.605,22.333L175.171,22.333L175.659,22.333L176.178,22.333L177.241,22.333L177.779,22.333L178.346,22.333L178.838,22.333L179.352,22.333L180.413,22.333L180.95,22.333L181.515,22.333L182.006,22.333L182.526,22.333L183.584,22.333L184.115,22.333L184.676,22.333L185.169,22.333L185.697,22.333L186.758,22.333L187.289,22.333L187.851,22.333L188.346,22.333L188.871,22.333L189.939,22.333L190.479,22.333L191.042,22.333L191.53,22.333L192.047,22.333L193.108,22.333L193.647,22.333L194.233,22.333L194.704,22.333L195.223,22.333L196.284,22.333L196.827,22.333L197.41,22.333L197.876,22.333L198.399,22.333L199.459,22.333L200,22.333" stroke="#e45756" stroke-width="2"/></g></g><path class="foreground" aria-hidden="true" d="" display="none"/></g></g><g class="mark-group role-legend" role="graphics-symbol" aria-roledescription="legend" aria-label="Symbol legend titled 'identifier' for stroke color with 16 values: devote-1-2022, silex-400-oak-bork-2026, silex-400-warm-slate-grey-2026, devote-1-2024, fastroad-ar-2, ending with allure-rs-2-2024"><g transform="translate(220,0)"><path class="background" aria-hidden="true" d="M0,0h256v222h-256Z" pointer-events="none"/><g><g class="mark-group role-legend-entry"><g transform="translate(0,16)"><path class="background" aria-hidden="true" d="M0,0h0v0h0Z" pointer-events="none"/><g><g class="mark-group role-scope" role="graphics-object" aria-roledescription="group mark container"><g transform="translate(0,0)"><path class="background" aria-hidden="true" d="M0,0h256v11h-256Z" pointer-events="none" opacity="1"/><g><g class="mark-symbol role-legend-symbol" pointer-events="none"><path transform="translate(6,6)" d="M-5,0L5,0" stroke="#4c78a8" stroke-width="1.5" opacity="1"/></g><g class="mark-text role-legend-label" pointer-events="none"><text text-anchor="start" transform="translate(16,9)" font-family="Liberation Mono" font-size="10px" fill="#000" opacity="1">devote-1-2022</text></g></g><path class="foreground" aria-hidden="true" d="" pointer-events="none" display="none"/></g><g transform="translate(0,13)"><path class="background" aria-hidden="true" d="M0,0h256v11h-256Z" pointer-events="none" opacity="1"/><g><g class="mark-symbol role-legend-symbol" pointer-events="none"><path transform="translate(6,6)" d="M-5,0L5,0" stroke="#f58518" stroke-width="1.5" opacity="1"/></g><g class="mark-text role-legend-label" pointer-events="none"><text text-anchor="start" transform="translate(16,9)" font-family="Liberation Mono" font-size="10px" fill="#000" opacity="1">silex-400-oak-bork-2026</text></g></g><path class="foreground" aria-hidden="true" d="" pointer-events="none" display="none"/></g><g transform="translate(0,26)"><path class="background" aria-hidden="true" d="M0,0h256v11h-256Z" pointer-events="none" opacity="1"/><g><g class="mark-symbol role-legend-symbol" pointer-events="none"><path transform="translate(6,6)" d="M-5,0L5,0" stroke="#e45756" stroke-width="1.5" opacity="1"/></g><g class="mark-text role-legend-label" pointer-events="none"><text text-anchor="start" transform="translate(16,9)" font-family="Liberation Mono" font-size="10px" fill="#000" opacity="1">silex-400-warm-slate-grey-2026</text></g></g><path class="foreground" aria-hidden="true" d="" pointer-events="none" display="none"/></g><g transform="translate(0,39)"><path class="background" aria-hidden="true" d="M0,0h256v11h-256Z" pointer-events="none" opacity="1"/><g><g class="mark-symbol role-legend-symbol" pointer-events="none"><path transform="translate(6,6)" d="M-5,0L5,0" stroke="#72b7b2" stroke-width="1.5" opacity="1"/></g><g class="mark-text role-legend-label" pointer-events="none"><text text-anchor="start" transform="translate(16,9)" font-family="Liberation Mono" font-size="10px" fill="#000" opacity="1">devote-1-2024</text></g></g><path class="foreground" aria-hidden="true" d="" pointer-events="none" display="none"/></g><g transform="translate(0,52)"><path class="background" aria-hidden="true" d="M0,0h256v11h-256Z" pointer-events="none" opacity="1"/><g><g class="mark-symbol role-legend-symbol" pointer-events="none"><path transform="translate(6,6)" d="M-5,0L5,0" stroke="#54a24b" stroke-width="1.5" opacity="1"/></g><g class="mark-text role-legend-label" pointer-events="none"><text text-anchor="start" transform="translate(16,9)" font-family="Liberation Mono" font-size="10px" fill="#000" opacity="1">fastroad-ar-2</text></g></g><path class="foreground" aria-hidden="true" d="" pointer-events="none" display="none"/></g><g transform="translate(0,65)"><path class="background" aria-hidden="true" d="M0,0h256v11h-256Z" pointer-events="none" opacity="1"/><g><g class="mark-symbol role-legend-symbol" pointer-events="none"><path transform="translate(6,6)" d="M-5,0L5,0" stroke="#eeca3b" stroke-width="1.5" opacity="1"/></g><g class="mark-text role-legend-label" pointer-events="none"><text text-anchor="start" transform="translate(16,9)" font-family="Liberation Mono" font-size="10px" fill="#000" opacity="1">thrive-2</text></g></g><path class="foreground" aria-hidden="true" d="" pointer-events="none" display="none"/></g><g transform="translate(0,78)"><path class="background" aria-hidden="true" d="M0,0h256v11h-256Z" pointer-events="none" opacity="1"/><g><g class="mark-symbol role-legend-symbol" pointer-events="none"><path transform="translate(6,6)" d="M-5,0L5,0" stroke="#b279a2" stroke-width="1.5" opacity="1"/></g><g class="mark-text role-legend-label" pointer-events="none"><text text-anchor="start" transform="translate(16,9)" font-family="Liberation Mono" font-size="10px" fill="#000" opacity="1">allure-rs-1-2023</text></g></g><path class="foreground" aria-hidden="true" d="" pointer-events="none" display="none"/></g><g transform="translate(0,91)"><path class="background" aria-hidden="true" d="M0,0h256v11h-256Z" pointer-events="none" opacity="1"/><g><g class="mark-symbol role-legend-symbol" pointer-events="none"><path transform="translate(6,6)" d="M-5,0L5,0" stroke="#ff9da6" stroke-width="1.5" opacity="1"/></g><g class="mark-text role-legend-label" pointer-events="none"><text text-anchor="start" transform="translate(16,9)" font-family="Liberation Mono" font-size="10px" fill="#000" opacity="1">roam-2</text></g></g><path class="foreground" aria-hidden="true" d="" pointer-events="none" display="none"/></g><g transform="translate(0,104)"><path class="background" aria-hidden="true" d="M0,0h256v11h-256Z" pointer-events="none" opacity="1"/><g><g class="mark-symbol role-legend-symbol" pointer-events="none"><path transform="translate(6,6)" d="M-5,0L5,0" stroke="#9d755d" stroke-width="1.5" opacity="1"/></g><g class="mark-text role-legend-label" pointer-events="none"><text text-anchor="start" transform="translate(16,9)" font-family="Liberation Mono" font-size="10px" fill="#000" opacity="1">fastroad-sl-3-2022</text></g></g><path class="foreground" aria-hidden="true" d="" pointer-events="none" display="none"/></g><g transform="translate(0,117)"><path class="background" aria-hidden="true" d="M0,0h256v11h-256Z" pointer-events="none" opacity="1"/><g><g class="mark-symbol role-legend-symbol" pointer-events="none"><path transform="translate(6,6)" d="M-5,0L5,0" stroke="#bab0ac" stroke-width="1.5" opacity="1"/></g><g class="mark-text role-legend-label" pointer-events="none"><text text-anchor="start" transform="translate(16,9)" font-family="Liberation Mono" font-size="10px" fill="#000" opacity="1">allure-rs-2-2023</text></g></g><path class="foreground" aria-hidden="true" d="" pointer-events="none" display="none"/></g><g transform="translate(0,130)"><path class="background" aria-hidden="true" d="M0,0h256v11h-256Z" pointer-events="none" opacity="1"/><g><g class="mark-symbol role-legend-symbol" pointer-events="none"><path transform="translate(6,6)" d="M-5,0L5,0" stroke="#4c78a8" stroke-width="1.5" opacity="1"/></g><g class="mark-text role-legend-label" pointer-events="none"><text text-anchor="start" transform="translate(16,9)" font-family="Liberation Mono" font-size="10px" fill="#000" opacity="1">escape-city-disc-1-2024</text></g></g><path class="foreground" aria-hidden="true" d="" pointer-events="none" display="none"/></g><g transform="translate(0,143)"><path class="background" aria-hidden="true" d="M0,0h256v11h-256Z" pointer-events="none" opacity="1"/><g><g class="mark-symbol role-legend-symbol" pointer-events="none"><path transform="translate(6,6)" d="M-5,0L5,0" stroke="#f58518" stroke-width="1.5" opacity="1"/></g><g class="mark-text role-legend-label" pointer-events="none"><text text-anchor="start" transform="translate(16,9)" font-family="Liberation Mono" font-size="10px" fill="#000" opacity="1">sdrbike-escape-1-city-disc</text></g></g><path class="foreground" aria-hidden="true" d="" pointer-events="none" display="none"/></g><g transform="translate(0,156)"><path class="background" aria-hidden="true" d="M0,0h256v11h-256Z" pointer-events="none" opacity="1"/><g><g class="mark-symbol role-legend-symbol" pointer-events="none"><path transform="translate(6,6)" d="M-5,0L5,0" stroke="#e45756" stroke-width="1.5" opacity="1"/></g><g class="mark-text role-legend-label" pointer-events="none"><text text-anchor="start" transform="translate(16,9)" font-family="Liberation Mono" font-size="10px" fill="#000" opacity="1">roam-disc-2-2024</text></g></g><path class="foreground" aria-hidden="true" d="" pointer-events="none" display="none"/></g><g transform="translate(0,169)"><path class="background" aria-hidden="true" d="M0,0h256v11h-256Z" pointer-events="none" opacity="1"/><g><g class="mark-symbol role-legend-symbol" pointer-events="none"><path transform="translate(6,6)" d="M-5,0L5,0" stroke="#72b7b2" stroke-width="1.5" opacity="1"/></g><g class="mark-text role-legend-label" pointer-events="none"><text text-anchor="start" transform="translate(16,9)" font-family="Liberation Mono" font-size="10px" fill="#000" opacity="1">rove-2</text></g></g><path class="foreground" aria-hidden="true" d="" pointer-events="none" display="none"/></g><g transform="translate(0,182)"><path class="background" aria-hidden="true" d="M0,0h256v11h-256Z" pointer-events="none" opacity="1"/><g><g class="mark-symbol role-legend-symbol" pointer-events="none"><path transform="translate(6,6)" d="M-5,0L5,0" stroke="#54a24b" stroke-width="1.5" opacity="1"/></g><g class="mark-text role-legend-label" pointer-events="none"><text text-anchor="start" transform="translate(16,9)" font-family="Liberation Mono" font-size="10px" fill="#000" opacity="1">allure-rs-2-2022</text></g></g><path class="foreground" aria-hidden="true" d="" pointer-events="none" display="none"/></g><g transform="translate(0,195)"><path class="background" aria-hidden="true" d="M0,0h256v11h-256Z" pointer-events="none" opacity="1"/><g><g class="mark-symbol role-legend-symbol" pointer-events="none"><path transform="translate(6,6)" d="M-5,0L5,0" stroke="#eeca3b" stroke-width="1.5" opacity="1"/></g><g class="mark-text role-legend-label" pointer-events="none"><text text-anchor="start" transform="translate(16,9)" font-family="Liberation Mono" font-size="10px" fill="#000" opacity="1">allure-rs-2-2024</text></g></g><path class="foreground" aria-hidden="true" d="" pointer-events="none" display="none"/></g></g></g><path class="foreground" aria-hidden="true" d="" pointer-events="none" display="none"/></g></g><g class="mark-text role-legend-title" pointer-events="none"><text text-anchor="start" transform="translate(0,9)" font-family="Liberation Mono" font-size="11px" font-weight="bold" fill="#000" opacity="1">identifier</text></g></g><path class="foreground" aria-hidden="true" d="" pointer-events="none" display="none"/></g></g></g><path class="foreground" aria-hidden="true" d="" display="none"/></g></g></g></svg>