<svg xmlns="http://www.w3.org/2000/svg" xmlns:xlink="http://www.w3.org/1999/xlink" version="1.1" class="marks" width="548" height="244" viewBox="0 0 548 244"><rect width="548" height="244" fill="white"/><g fill="none" stroke-miterlimit="10" transform="translate(67,7)"><g class="mark-group role-frame root" role="graphics-object" aria-roledescription="group mark container"><g transform="translate(0,0)"><path class="background" aria-hidden="true" d="M0.5,0.5h200v200h-200Z" stroke="#ddd"/><g><g class="mark-group role-axis" aria-hidden="true"><g transform="translate(0.5,200.5)"><path class="background" aria-hidden="true" d="M0,0h0v0h0Z" pointer-events="none"/><g><g class="mark-rule role-axis-grid" pointer-events="none"><line transform="translate(8,-200)" x2="0" y2="200" stroke="#ddd" stroke-width="1" opacity="1"/><line transform="translate(29,-200)" x2="0" y2="200" stroke="#ddd" stroke-width="1" opacity="1"/><line transform="translate(50,-200)" x2="0" y2="200" stroke="#ddd" stroke-width="1" opacity="1"/><line transform="translate(71,-200)" x2="0" y2="200" stroke="#ddd" stroke-width="1" opacity="1"/><line transform="translate(93,-200)" x2="0" y2="200" stroke="#ddd" stroke-width="1" opacity="1"/><line transform="translate(114,-200)" x2="0" y2="200" stroke="#ddd" stroke-width="1" opacity="1"/><line transform="translate(135,-200)" x2="0" y2="200" stroke="#ddd" stroke-width="1" opacity="1"/><line transform="translate(156,-200)" x2="0" y2="200" stroke="#ddd" stroke-width="1" opacity="1"/><line transform="translate(177,-200)" x2="0" y2="200" stroke="#ddd" stroke-width="1" opacity="1"/><line transform="translate(198,-200)" x2="0" y2="200" stroke="#ddd" stroke-width="1" opacity="1"/></g></g><path class="foreground" aria-hidden="true" d="" pointer-events="none" display="none"/></g></g><g class="mark-group role-axis" aria-hidden="true"><g transform="translate(0.5,0.5)"><path class="background" aria-hidden="true" d="M0,0h0v0h0Z" pointer-events="none"/><g><g class="mark-rule role-axis-grid" pointer-events="none"><line transform="translate(0,200)" x2="200" y2="0" stroke="#ddd" stroke-width="1" opacity="1"/><line transform="translate(0,144)" x2="200" y2="0" stroke="#ddd" stroke-width="1" opacity="1"/><line transform="translate(0,89)" x2="200" y2="0" stroke="#ddd" stroke-width="1" opacity="1"/><line transform="translate(0,33)" x2="200" y2="0" stroke="#ddd" stroke-width="1" opacity="1"/></g></g><path class="foreground" aria-hidden="true" d="" pointer-events="none" display="none"/></g></g><g class="mark-group role-axis" role="graphics-symbol" aria-roledescription="axis" aria-label="X-axis titled 'Time' for a time scale with values from Thursday, 14 August 2025, 8:34:48 AM to Sunday, 19 October 2025, 1:03:22 PM"><g transform="translate(0.5,200.5)"><path class="background" aria-hidden="true" d="M0,0h0v0h0Z" pointer-events="none"/><g><g class="mark-rule role-axis-tick" pointer-events="none"><line transform="translate(8,0)" x2="0" y2="5" stroke="#888" stroke-width="1" opacity="1"/><line transform="translate(29,0)" x2="0" y2="5" stroke="#888" stroke-width="1" opacity="1"/><line transform="translate(50,0)" x2="0" y2="5" stroke="#888" stroke-width="1" opacity="1"/><line transform="translate(71,0)" x2="0" y2="5" stroke="#888" stroke-width="1" opacity="1"/><line transform="translate(93,0)" x2="0" y2="5" stroke="#888" stroke-width="1" opacity="1"/><line transform="translate(114,0)" x2="0" y2="5" stroke="#888" stroke-width="1" opacity="1"/><line transform="translate(135,0)" x2="0" y2="5" stroke="#888" stroke-width="1" opacity="1"/><line transform="translate(156,0)" x2="0" y2="5" stroke="#888" stroke-width="1" opacity="1"/><line transform="translate(177,0)" x2="0" y2="5" stroke="#888" stroke-width="1" opacity="1"/><line transform="translate(198,0)" x2="0" y2="5" stroke="#888" stroke-width="1" opacity="1"/></g><g class="mark-text role-axis-label" pointer-events="none"><text text-anchor="middle" transform="translate(7.984985290548005,15)" font-family="Liberation Mono" font-size="10px" fill="#000" opacity="1">Aug 17</text><text text-anchor="middle" transform="translate(29.137334154150558,15)" font-family="Liberation Mono" font-size="10px" fill="#000" opacity="0">Aug 24</text><text text-anchor="middle" transform="translate(50.289683017753106,15)" font-family="Liberation Mono" font-size="10px" fill="#000" opacity="0">Aug 31</text><text text-anchor="middle" transform="translate(71.44203188135566,15)" font-family="Liberation Mono" font-size="10px" fill="#000" opacity="0">Sep 07</text><text text-anchor="middle" transform="translate(92.59438074495822,15)" font-family="Liberation Mono" font-size="10px" fill="#000" opacity="1">Sep 14</text><text text-anchor="middle" transform="translate(113.74672960856076,15)" font-family="Liberation Mono" font-size="10px" fill="#000" opacity="0">Sep 21</text><text text-anchor="middle" transform="translate(134.89907847216332,15)" font-family="Liberation Mono" font-size="10px" fill="#000" opacity="0">Sep 28</text><text text-anchor="middle" transform="translate(156.05142733576588,15)" font-family="Liberation Mono" font-size="10px" fill="#000" opacity="0">Oct 05</text><text text-anchor="middle" transform="translate(177.20377619936843,15)" font-family="Liberation Mono" font-size="10px" fill="#000" opacity="1">Oct 12</text><text text-anchor="middle" transform="translate(198.356125062971,15)" font-family="Liberation Mono" font-size="10px" fill="#000" opacity="0">Oct 19</text></g><g class="mark-rule role-axis-domain" pointer-events="none"><line transform="translate(0,0)" x2="200" y2="0" stroke="#888" stroke-width="1" opacity="1"/></g><g class="mark-text role-axis-title" pointer-events="none"><text text-anchor="middle" transform="translate(100,30)" font-family="Liberation Mono" font-size="11px" font-weight="bold" fill="#000" opacity="1">Time</text></g></g><path class="foreground" aria-hidden="true" d="" pointer-events="none" display="none"/></g></g><g class="mark-group role-axis" role="graphics-symbol" aria-roledescription="axis" aria-label="Y-axis titled 'Price' for a linear scale with values from 0 to 1,800"><g transform="translate(0.5,0.5)"><path class="background" aria-hidden="true" d="M0,0h0v0h0Z" pointer-events="none"/><g><g class="mark-rule role-axis-tick" pointer-events="none"><line transform="translate(0,200)" x2="-5" y2="0" stroke="#888" stroke-width="1" opacity="1"/><line transform="translate(0,144)" x2="-5" y2="0" stroke="#888" stroke-width="1" opacity="1"/><line transform="translate(0,89)" x2="-5" y2="0" stroke="#888" stroke-width="1" opacity="1"/><line transform="translate(0,33)" x2="-5" y2="0" stroke="#888" stroke-width="1" opacity="1"/></g><g class="mark-text role-axis-label" pointer-events="none"><text text-anchor="end" transform="translate(-7,203)" font-family="Liberation Mono" font-size="10px" fill="#000" opacity="1">0</text><text text-anchor="end" transform="translate(-7,147.44444444444443)" font-family="Liberation Mono" font-size="10px" fill="#000" opacity="1">500</text><text text-anchor="end" transform="translate(-7,91.88888888888889)" font-family="Liberation Mono" font-size="10px" fill="#000" opacity="1">1,000</text><text text-anchor="end" transform="translate(-7,36.33333333333333)" font-family="Liberation Mono" font-size="10px" fill="#000" opacity="1">1,500</text></g><g class="mark-rule role-axis-domain" pointer-events="none"><line transform="translate(0,200)" x2="0" y2="-200" stroke="#888" stroke-width="1" opacity="1"/></g><g class="mark-text role-axis-title" pointer-events="none"><text text-anchor="middle" transform="translate(-51,100) rotate(-90) translate(0,-2)" font-family="Liberation Mono" font-size="11px" font-weight="bold" fill="#000" opacity="1">Price</text></g></g><path class="foreground" aria-hidden="true" d="" pointer-events="none" display="none"/></g></g><g class="mark-group role-scope pathgroup" role="graphics-object" aria-roledescription="group mark container"><g transform="translate(0,0)"><path class="background" aria-hidden="true" d="M0,0h200v200h-200Z"/><g><g class="mark-line role-mark marks" role="graphics-object" aria-roledescription="line mark container"><path aria-label="Time: Aug 14, 2025; Price: 899; identifier: escape-city-disc-1-2024" role="graphics-symbol" aria-roledescription="line mark" d="M0,100.111L0.025,100.111L0.045,100.111L0.602,100.111L1.045,100.111L1.542,100.111L2.561,100.111L3.061,100.111L3.614,100.111L4.067,100.111L4.561,100.111L5.573,100.111L6.079,100.111L6.616,100.111L7.083,100.111L7.578,100.111L8.606,100.111L9.1,100.111L9.639,100.111L10.107,100.111L10.604,100.111L11.636,100.111L12.133,100.111L12.689,100.111L12.885,100.111L13.138,100.111L13.623,100.111L14.635,100.111L15.147,100.111L15.683,100.111L16.152,100.111L16.644,100.111L17.658,100.111L18.165,100.111L18.723,100.111L18.949,100.111L19.173,100.111L19.669,100.111L20.678,100.111L21.189,100.111L21.728,100.111L22.197,100.111L22.689,100.111L23.701,100.111L24.21,100.111L24.748,100.111L25.215,100.111L25.709,100.111L26.72,100.111L27.227,100.111L27.761,100.111L28.229,100.111L28.728,100.111L29.745,100.111L30.246,100.111L30.784,100.111L31.255,100.111L31.751,100.111L32.772,100.111L33.281,100.111L33.833,100.111L34.284,100.111L34.776,100.111L35.788,100.111L36.301,100.111L37.303,100.111L37.795,100.111L38.806,100.111L39.317,100.111L39.515,100.111L39.855,100.111L40.192,100.111L40.324,100.111L40.818,100.111L41.828,100.111L42.34,100.111L42.878,100.111L43.345,100.111L43.839,100.111L44.85,100.111L45.36,100.111L45.896,100.111L46.366,100.111L46.859,100.111L47.868,100.111L48.374,100.111L48.909,100.111L49.38,100.111L49.855,100.111L49.879,100.111L50.891,100.111L51.214,100.111L51.395,100.111L51.932,100.111L52.404,100.111L52.902,100.111L53.922,100.111L54.43,100.111L54.966,100.111L55.429,100.111L55.923,100.111L56.939,100.111L57.45,100.111L57.99,100.111L58.453,100.111L58.947,100.111L59.957,100.111L60.467,100.111L61.005,100.111L61.473,100.111L61.967,100.111L62.978,100.111L63.49,100.111L64.024,100.111L64.497,100.111L64.988,100.111L66.001,100.111L66.511,100.111L67.048,100.111L67.513,100.111L68.011,100.111L69.02,100.111L69.279,100.111L69.524,100.111L70.057,100.111L70.53,100.111L71.031,100.111L72.04,100.111L72.545,100.111L73.08,100.111L73.552,100.111L74.053,100.111L75.067,100.111L75.581,100.111L76.12,100.111L76.584,100.111L77.079,100.111L78.088,100.111L78.602,100.111L79.159,100.111L79.608,100.111L80.098,100.111L81.105,100.111L81.621,100.111L82.156,100.111L82.625,100.111L83.121,100.111L84.131,100.111L84.641,100.111L85.177,100.111L85.641,100.111L86.14,100.111L87.15,100.111L87.662,100.111L88.197,100.111L88.664,100.111L89.161,100.111L90.17,100.111L90.676,100.111L91.21,100.111L91.68,100.111L92.183,100.111L93.193,100.111L93.698,100.111L94.229,100.111L94.701,100.111L95.205,100.111L96.22,100.111L96.729,100.111L97.269,100.111L97.735,100.111L98.228,100.111L99.239,100.111L99.754,100.111L100.29,100.111L100.755,100.111L101.251,100.111L102.262,100.111L102.773,100.111L103.312,100.111L103.778,100.111L104.272,100.111L105.283,100.111L105.794,100.111L106.333,100.111L106.798,100.111L107.295,100.111L108.305,100.111L108.815,100.111L109.354,100.111L109.821,100.111L110.314,100.111L111.325,100.111L111.832,100.111L112.366,100.111L112.834,100.111L113.335,100.111L114.347,100.111L114.851,100.111L115.387,100.111L115.858,100.111L116.358,100.111L117.371,100.111L117.885,100.111L118.423,100.111L118.882,100.111L119.383,100.111L120.392,100.111L120.905,100.111L121.442,100.111L121.91,100.111L122.404,100.111L123.414,100.111L123.928,100.111L124.465,100.111L124.935,100.111L125.424,100.111L126.436,100.111L126.95,100.111L127.489,100.111L127.955,100.111L128.445,100.111L129.457,100.111L129.97,100.111L130.507,100.111L130.974,100.111L131.467,100.111L132.478,100.111L132.982,100.111L133.517,100.111L133.988,100.111L134.489,100.111L135.5,100.111L136.004,100.111L136.54,100.111L137.007,100.111L137.51,100.111L138.524,100.111L139.039,100.111L139.577,100.111L140.029,100.111L140.534,100.111L141.545,100.111L142.062,100.111L142.598,100.111L143.061,100.111L143.556,100.111L144.568,100.111L145.081,100.111L145.621,100.111L146.084,100.111L146.578,100.111L147.586,100.111L148.098,100.111L148.635,100.111L149.105,100.111L149.598,100.111L150.607,100.111L151.12,100.111L151.655,100.111L152.126,100.111L152.619,100.111L153.628,100.111L154.135,100.111L154.668,100.111L155.14,100.111L155.641,100.111L156.648,100.111L157.155,100.111L157.691,100.111L158.162,100.111L158.663,100.111L159.674,100.111L160.188,100.111L160.727,100.111L161.193,100.111L161.687,100.111L162.696,100.111L163.209,100.111L163.749,100.111L164.215,100.111L164.709,100.111L165.719,100.111L166.233,100.111L166.772,100.111L167.237,100.111L167.73,100.111L168.742,100.111L169.255,100.111L169.795,100.111L170.263,100.111L170.753,100.111L171.762,100.111L172.274,100.111L172.812,100.111L173.279,100.111L173.774,100.111L174.781,100.111L175.287,100.111L175.821,100.111L176.29,100.111L176.793,100.111L177.804,100.111L178.309,100.111L178.844,100.111L179.315,100.111L179.815,100.111L180.832,100.111L181.346,100.111L181.882,100.111L182.344,100.111L182.838,100.111L183.849,100.111L184.362,100.111L184.92,100.111L185.368,100.111L185.863,100.111L186.872,100.111L187.389,100.111L187.944,100.111L188.388,100.111L188.886,100.111L189.894,100.111L190.411,100.111L190.963,100.111L191.413,100.111L191.905,100.111L192.915,100.111L193.428,100.111L193.966,100.111L194.432,100.111L194.926,100.111L195.934,100.111L196.443,100.111L196.976,100.111L197.447,100.111L197.946,100.111L198.96,100.111L199.461,100.111L199.999,100.111" stroke="#4c78a8" stroke-width="2"/></g></g><path class="foreground" aria-hidden="true" d="" display="none"/></g><g transform="translate(0,0)"><path class="background" aria-hidden="true" d="M0,0h200v200h-200Z"/><g><g class="mark-line role-mark marks" role="graphics-object" aria-roledescription="line mark container"><path aria-label="Time: Aug 14, 2025; Price: 999; identifier: roam-2" role="graphics-symbol" aria-roledescription="line mark" d="M0,89L0.025,89L0.045,89L0.602,89L1.045,89L1.542,89L2.561,89L3.061,89L3.614,89L4.067,89L4.561,89L5.573,89L6.079,89L6.616,89L7.083,89L7.583,89L8.606,89L9.1,89L9.639,89L10.107,89L10.604,89L11.637,89L12.133,89L12.689,89L12.885,89L13.138,89L13.623,89L14.635,89L15.147,89L15.684,89L16.152,89L16.644,89L17.658,89L18.165,89L18.723,89L18.949,89L19.173,89L19.669,89L20.678,89L21.189,89L21.728,89L22.197,89L22.689,89L23.701,89L24.21,89L24.749,89L25.215,89L25.709,89L26.72,89L27.227,89L27.761,89L28.229,89L28.728,89L29.746,89L30.246,89L30.784,89L31.255,89L31.751,89L32.772,89L33.282,89L33.833,89L34.284,89L34.776,89L35.788,89L36.301,89L37.303,89L37.795,89L38.806,89L39.317,89L39.515,89L39.855,89L40.192,89L40.324,89L40.819,89L41.828,89L42.34,89L42.878,89L43.345,89L43.839,89L44.85,89L45.36,89L45.897,89L46.366,89L46.859,89L47.868,89L48.374,89L48.909,89L49.38,89L49.856,89L49.879,89L50.891,89L51.214,89L51.395,89L51.932,89L52.404,89L52.902,89L53.922,89L54.43,89L54.967,89L55.429,89L55.923,89L56.939,89L57.45,89L57.99,89L58.453,89L58.947,89L59.957,89L60.467,89L61.005,89L61.473,89L61.968,89L62.978,89L63.49,89L64.024,89L64.497,89L64.989,89L66.001,89L66.511,89L67.048,89L67.513,89L68.011,89L69.02,89L69.279,89L69.524,89L70.057,89L70.53,89L71.032,89L72.041,89L72.545,89L73.081,89L73.552,89L74.053,89L75.068,89L75.581,89L76.12,89L76.585,89L77.079,89L78.088,89L78.602,89L79.159,89L79.608,89L80.098,89L81.106,89L81.621,89L82.156,89L82.625,89L83.121,89L84.131,89L84.641,89L85.177,89L85.641,89L86.14,89L87.151,89L87.662,89L88.197,89L88.664,89L89.162,89L90.171,89L90.677,89L91.21,89L91.68,89L92.184,89L93.193,89L93.698,89L94.23,89L94.701,89L95.205,89L96.22,89L96.73,89L97.27,89L97.735,89L98.229,89L99.239,89L99.754,89L100.291,89L100.756,89L101.251,89L102.262,89L102.773,89L103.312,89L103.778,89L104.273,89L105.283,89L105.794,89L106.333,89L106.798,89L107.295,89L108.305,89L108.816,89L109.354,89L109.821,89L110.315,89L111.325,89L111.832,89L112.366,89L112.834,89L113.335,89L114.348,89L114.851,89L115.387,89L115.858,89L116.359,89L117.371,89L117.886,89L118.423,89L118.882,89L119.383,89L120.392,89L120.905,89L121.442,89L121.911,89L122.404,89L123.415,89L123.928,89L124.465,89L124.935,89L125.424,89L126.437,89L126.95,89L127.489,89L127.956,89L128.445,89L129.457,89L129.97,89L130.507,89L130.974,89L131.467,89L132.478,89L132.982,89L133.517,89L133.988,89L134.489,89L135.5,89L136.004,89L136.54,89L137.008,89L137.51,89L138.524,89L139.039,89L139.577,89L140.029,89L140.534,89L141.545,89L142.062,89L142.598,89L143.061,89L143.556,89L144.569,89L145.081,89L145.621,89L146.084,89L146.578,89L147.587,89L148.098,89L148.635,89L149.105,89L149.598,89L150.607,89L151.12,89L151.655,89L152.126,89L152.619,89L153.628,89L154.135,89L154.668,89L155.141,89L155.641,89L156.649,89L157.155,89L157.691,89L158.162,89L158.663,89L159.675,89L160.188,89L160.727,89L161.193,89L161.688,89L162.696,89L163.209,89L163.749,89L164.215,89L164.709,89L165.719,89L166.233,89L166.772,89L167.237,89L167.731,89L168.742,89L169.255,89L169.795,89L170.263,89L170.753,89L171.762,89L172.274,89L172.812,89L173.279,89L173.774,89L174.782,89L175.287,89L175.821,89L176.291,89L176.793,89L177.804,89L178.309,89L178.844,89L179.315,89L179.815,89L180.832,89L181.346,89L181.882,89L182.345,89L182.839,89L183.849,89L184.362,89L184.92,89L185.368,89L185.863,89L186.872,89L187.389,89L187.945,89L188.389,89L188.886,89L189.894,89L190.411,89L190.963,89L191.413,89L191.906,89L192.916,89L193.428,89L193.967,89L194.432,89L194.926,89L195.934,89L196.443,89L196.976,89L197.447,89L197.946,89L198.96,89L199.461,89L199.999,89" stroke="#ff9da6" stroke-width="2"/></g></g><path class="foreground" aria-hidden="true" d="" display="none"/></g><g transform="translate(0,0)"><path class="background" aria-hidden="true" d="M0,0h200v200h-200Z"/><g><g class="mark-line role-mark marks" role="graphics-object" aria-roledescription="line mark container"><path aria-label="Time: Aug 14, 2025; Price: 999; identifier: fastroad-sl-3-2022" role="graphics-symbol" aria-roledescription="line mark" d="M0,89L0.025,89L0.045,89L0.602,89L1.045,89L1.542,89L2.561,89L3.061,89L3.614,89L4.067,89L4.561,89L5.573,89L6.079,89L6.616,89L7.083,89L7.583,89L8.606,89L9.1,89L9.639,89L10.107,89L10.604,89L11.637,89L12.133,89L12.689,89L12.885,89L13.139,89L13.623,89L14.635,89L15.147,89L15.684,89L16.152,89L16.644,89L17.658,89L18.165,89L18.723,89L18.949,89L19.173,89L19.669,89L20.678,89L21.189,89L21.728,89L22.197,89L22.689,89L23.701,89L24.21,89L24.749,89L25.215,89L25.709,89L26.72,89L27.227,89L27.761,89L28.229,89L28.728,89L29.746,89L30.246,89L30.784,89L31.255,89L31.751,89L32.772,89L33.282,89L33.833,89L34.284,89L34.776,89L35.789,89L36.302,89L37.303,89L37.795,89L38.807,89L39.317,89L39.515,89L39.855,89L40.192,89L40.324,89L40.819,89L41.828,89L42.34,89L42.878,89L43.346,89L43.839,89L44.85,89L45.36,89L45.897,89L46.366,89L46.859,89L47.868,89L48.374,89L48.909,89L49.381,89L49.856,89L49.879,89L50.891,89L51.214,89L51.395,89L51.932,89L52.404,89L52.902,89L53.923,89L54.43,89L54.967,89L55.429,89L55.923,89L56.939,89L57.45,89L57.99,89L58.453,89L58.947,89L59.957,89L60.467,89L61.005,89L61.473,89L61.968,89L62.978,89L63.49,89L64.024,89L64.497,89L64.989,89L66.001,89L66.511,89L67.048,89L67.513,89L68.011,89L69.02,89L69.279,89L69.524,89L70.057,89L70.53,89L71.032,89L72.041,89L72.545,89L73.081,89L73.552,89L74.053,89L75.068,89L75.581,89L76.12,89L76.585,89L77.079,89L78.088,89L78.602,89L79.159,89L79.608,89L80.098,89L81.106,89L81.621,89L82.156,89L82.625,89L83.121,89L84.131,89L84.641,89L85.177,89L85.641,89L86.14,89L87.151,89L87.662,89L88.197,89L88.664,89L89.162,89L90.171,89L90.677,89L91.21,89L91.68,89L92.184,89L93.193,89L93.698,89L94.23,89L94.701,89L95.205,89L96.22,89L96.73,89L97.27,89L97.735,89L98.229,89L99.239,89L99.754,89L100.291,89L100.756,89L101.251,89L102.262,89L102.773,89L103.312,89L103.778,89L104.273,89L105.283,89L105.794,89L106.333,89L106.798,89L107.295,89L108.305,89L108.816,89L109.354,89L109.822,89L110.315,89L111.325,89L111.832,89L112.366,89L112.834,89L113.336,89L114.348,89L114.851,89L115.387,89L115.858,89L116.359,89L117.371,89L117.886,89L118.423,89L118.882,89L119.383,89L120.392,89L120.905,89L121.443,89L121.911,89L122.404,89L123.415,89L123.928,89L124.465,89L124.935,89L125.424,89L126.437,89L126.95,89L127.489,89L127.956,89L128.445,89L129.457,89L129.971,89L130.507,89L130.974,89L131.467,89L132.478,89L132.982,89L133.517,89L133.988,89L134.489,89L135.5,89L136.004,89L136.54,89L137.008,89L137.51,89L138.525,89L139.039,89L139.577,89L140.029,89L140.534,89L141.545,89L142.062,89L142.599,89L143.061,89L143.556,89L144.569,89L145.081,89L145.621,89L146.084,89L146.578,89L147.587,89L148.098,89L148.635,89L149.106,89L149.598,89L150.607,89L151.12,89L151.655,89L152.126,89L152.619,89L153.628,89L154.135,89L154.669,89L155.141,89L155.641,89L156.649,89L157.155,89L157.691,89L158.162,89L158.663,89L159.675,89L160.188,89L160.727,89L161.193,89L161.688,89L162.696,89L163.209,89L163.749,89L164.215,89L164.709,89L165.719,89L166.233,89L166.772,89L167.237,89L167.731,89L168.742,89L169.255,89L169.795,89L170.263,89L170.753,89L171.763,89L172.275,89L172.812,89L173.279,89L173.774,89L174.782,89L175.287,89L175.821,89L176.291,89L176.793,89L177.804,89L178.309,89L178.844,89L179.315,89L179.815,89L180.832,89L181.346,89L181.882,89L182.346,89L182.839,89L183.85,89L184.362,89L184.92,89L185.368,89L185.863,89L186.873,89L187.389,89L187.945,89L188.389,89L188.886,89L189.894,89L190.411,89L190.964,89L191.413,89L191.906,89L192.916,89L193.428,89L193.967,89L194.432,89L194.926,89L195.934,89L196.443,89L196.976,89L197.447,89L197.946,89L198.96,89L199.461,89L199.999,89" stroke="#9d755d" stroke-width="2"/></g></g><path class="foreground" aria-hidden="true" d="" display="none"/></g><g transform="translate(0,0)"><path class="background" aria-hidden="true" d="M0,0h200v200h-200Z"/><g><g class="mark-line role-mark marks" role="graphics-object" aria-roledescription="line mark container"><path aria-label="Time: Aug 14, 2025; Price: 1199; identifier: fastroad-ar-2" role="graphics-symbol" aria-roledescription="line mark" d="M0,66.778L0.025,66.778L0.045,66.778L0.602,66.778L1.045,66.778L1.542,66.778L2.561,66.778L3.061,66.778L3.614,66.778L4.067,66.778L4.562,66.778L5.573,66.778L6.079,66.778L6.616,66.778L7.083,66.778L7.586,66.778L8.606,66.778L9.1,66.778L9.639,66.778L10.107,66.778L10.604,66.778L11.637,66.778L12.133,66.778L12.69,66.778L12.885,66.778L13.139,66.778L13.623,66.778L14.636,66.778L15.147,66.778L15.684,66.778L16.152,66.778L16.644,66.778L17.658,66.778L18.165,66.778L18.723,66.778L18.949,66.778L19.173,66.778L19.669,66.778L20.678,66.778L21.189,66.778L21.728,66.778L22.197,66.778L22.689,66.778L23.701,66.778L24.21,66.778L24.749,66.778L25.216,66.778L25.709,66.778L26.72,66.778L27.227,66.778L27.761,66.778L28.229,66.778L28.728,66.778L29.746,66.778L30.247,66.778L30.784,66.778L31.255,66.778L31.751,66.778L32.772,66.778L33.282,66.778L33.833,66.778L34.284,66.778L34.776,66.778L35.789,66.778L36.302,66.778L37.303,66.778L37.795,66.778L38.807,66.778L39.317,66.778L39.516,66.778L39.855,66.778L40.192,66.778L40.324,66.778L40.819,66.778L41.828,66.778L42.34,66.778L42.878,66.778L43.346,66.778L43.839,66.778L44.85,66.778L45.36,66.778L45.897,66.778L46.366,66.778L46.859,66.778L47.868,66.778L48.375,66.778L48.909,66.778L49.381,66.778L49.856,66.778L49.879,66.778L50.891,66.778L51.214,66.778L51.395,66.778L51.932,66.778L52.404,66.778L52.902,66.778L53.923,66.778L54.431,66.778L54.967,66.778L55.43,66.778L55.923,66.778L56.94,66.778L57.45,66.778L57.99,66.778L58.453,66.778L58.947,66.778L59.957,66.778L60.467,66.778L61.006,66.778L61.474,66.778L61.968,66.778L62.978,66.778L63.49,66.778L64.025,66.778L64.497,66.778L64.989,66.778L66.001,66.778L66.511,66.778L67.048,66.778L67.513,66.778L68.012,66.778L69.02,66.778L69.279,66.778L69.524,66.778L70.057,66.778L70.53,66.778L71.032,66.778L72.041,66.778L72.545,66.778L73.081,66.778L73.552,66.778L74.053,66.778L75.068,66.778L75.581,66.778L76.12,66.778L76.585,66.778L77.08,66.778L78.088,66.778L78.602,66.778L79.159,66.778L79.608,66.778L80.098,66.778L81.106,66.778L81.621,66.778L82.157,66.778L82.625,66.778L83.121,66.778L84.131,66.778L84.642,66.778L85.177,66.778L85.641,66.778L86.14,66.778L87.151,66.778L87.662,66.778L88.197,66.778L88.664,66.778L89.162,66.778L90.171,66.778L90.677,66.778L91.21,66.778L91.68,66.778L92.184,66.778L93.194,66.778L93.698,66.778L94.23,66.778L94.701,66.778L95.206,66.778L96.22,66.778L96.73,66.778L97.27,66.778L97.735,66.778L98.229,66.778L99.239,66.778L99.754,66.778L100.291,66.778L100.756,66.778L101.252,66.778L102.262,66.778L102.773,66.778L103.313,66.778L103.778,66.778L104.273,66.778L105.284,66.778L105.794,66.778L106.333,66.778L106.798,66.778L107.295,66.778L108.305,66.778L108.816,66.778L109.354,66.778L109.822,66.778L110.315,66.778L111.325,66.778L111.832,66.778L112.367,66.778L112.834,66.778L113.336,66.778L114.348,66.778L114.851,66.778L115.387,66.778L115.858,66.778L116.359,66.778L117.371,66.778L117.886,66.778L118.423,66.778L118.882,66.778L119.383,66.778L120.392,66.778L120.905,66.778L121.443,66.778L121.911,66.778L122.405,66.778L123.415,66.778L123.928,66.778L124.465,66.778L124.935,66.778L125.424,66.778L126.437,66.778L126.95,66.778L127.489,66.778L127.956,66.778L128.445,66.778L129.457,66.778L129.971,66.778L130.508,66.778L130.974,66.778L131.468,66.778L132.478,66.778L132.982,66.778L133.517,66.778L133.988,66.778L134.49,66.778L135.5,66.778L136.004,66.778L136.54,66.778L137.008,66.778L137.51,66.778L138.525,66.778L139.039,66.778L139.577,66.778L140.03,66.778L140.534,66.778L141.545,66.778L142.062,66.778L142.599,66.778L143.062,66.778L143.556,66.778L144.569,66.778L145.081,66.778L145.621,66.778L146.085,66.778L146.578,66.778L147.587,66.778L148.098,66.778L148.635,66.778L149.106,66.778L149.598,66.778L150.607,66.778L151.12,66.778L151.655,66.778L152.126,66.778L152.619,66.778L153.628,66.778L154.135,66.778L154.669,66.778L155.141,66.778L155.641,66.778L156.649,66.778L157.155,66.778L157.691,66.778L158.162,66.778L158.663,66.778L159.675,66.778L160.188,66.778L160.727,66.778L161.193,66.778L161.688,66.778L162.696,66.778L163.209,66.778L163.749,66.778L164.215,66.778L164.709,66.778L165.719,66.778L166.233,66.778L166.772,66.778L167.237,66.778L167.731,66.778L168.742,66.778L169.255,66.778L169.795,66.778L170.263,66.778L170.753,66.778L171.763,66.778L172.275,66.778L172.812,66.778L173.279,66.778L173.774,66.778L174.782,66.778L175.287,66.778L175.821,66.778L176.291,66.778L176.793,66.778L177.804,66.778L178.309,66.778L178.844,66.778L179.315,66.778L179.815,66.778L180.832,66.778L181.347,66.778L181.882,66.778L182.346,66.778L182.839,66.778L183.85,66.778L184.362,66.778L184.92,66.778L185.368,66.778L185.863,66.778L186.873,66.778L187.389,66.778L187.945,66.778L188.389,66.778L188.886,66.778L189.894,66.778L190.411,66.778L190.964,66.778L191.413,66.778L191.906,66.778L192.916,66.778L193.428,66.778L193.967,66.778L194.433,66.778L194.926,66.778L195.934,66.778L196.443,66.778L196.977,66.778L197.447,66.778L197.946,66.778L198.96,66.778L199.461,66.778L199.999,66.778" stroke="#54a24b" stroke-width="2"/></g></g><path class="foreground" aria-hidden="true" d="" display="none"/></g><g transform="translate(0,0)"><path class="background" aria-hidden="true" d="M0,0h200v200h-200Z"/><g><g class="mark-line role-mark marks" role="graphics-object" aria-roledescription="line mark container"><path aria-label="Time: Aug 18, 2025; Price: 899; identifier: sdrbike-escape-1-city-disc" role="graphics-symbol" aria-roledescription="line mark" d="M12.885,100.111L13.139,100.111L13.623,100.111L14.636,100.111L15.147,100.111L15.684,100.111L16.153,100.111L16.644,100.111L17.658,100.111L18.165,100.111L18.724,100.111L18.95,100.111L19.173,100.111L19.669,100.111L20.678,100.111L21.189,100.111L21.728,100.111L22.197,100.111L22.689,100.111L23.701,100.111L24.21,100.111L24.749,100.111L25.216,100.111L25.71,100.111L26.72,100.111L27.227,100.111L27.761,100.111L28.229,100.111L28.728,100.111L29.746,100.111L30.247,100.111L30.785,100.111L31.255,100.111L31.751,100.111L32.772,100.111L33.282,100.111L33.833,100.111L34.284,100.111L34.776,100.111L35.789,100.111L36.302,100.111L37.303,100.111L37.795,100.111L38.807,100.111L39.317,100.111L39.516,100.111L39.856,100.111L40.192,100.111L40.324,100.111L40.819,100.111L41.828,100.111L42.34,100.111L42.879,100.111L43.346,100.111L43.839,100.111L44.85,100.111L45.36,100.111L45.897,100.111L46.366,100.111L46.859,100.111L47.868,100.111L48.375,100.111L48.909,100.111L49.381,100.111L49.856,100.111L49.879,100.111L50.891,100.111L51.214,100.111L51.395,100.111L51.932,100.111L52.404,100.111L52.902,100.111L53.923,100.111L54.431,100.111L54.967,100.111L55.43,100.111L55.923,100.111L56.94,100.111L57.45,100.111L57.991,100.111L58.453,100.111L58.947,100.111L59.957,100.111L60.467,100.111L61.006,100.111L61.474,100.111L61.968,100.111L62.978,100.111L63.49,100.111L64.025,100.111L64.498,100.111L64.989,100.111L66.001,100.111L66.511,100.111L67.048,100.111L67.514,100.111L68.012,100.111L69.02,100.111L69.279,100.111L69.524,100.111L70.057,100.111L70.53,100.111L71.032,100.111L72.041,100.111L72.546,100.111L73.081,100.111L73.552,100.111L74.053,100.111L75.068,100.111L75.582,100.111L76.12,100.111L76.585,100.111L77.08,100.111L78.088,100.111L78.602,100.111L79.159,100.111L79.608,100.111L80.098,100.111L81.106,100.111L81.621,100.111L82.157,100.111L82.625,100.111L83.121,100.111L84.131,100.111L84.642,100.111L85.177,100.111L85.641,100.111L86.14,100.111L87.151,100.111L87.662,100.111L88.197,100.111L88.664,100.111L89.162,100.111L90.171,100.111L90.677,100.111L91.21,100.111L91.68,100.111L92.184,100.111L93.194,100.111L93.699,100.111L94.23,100.111L94.701,100.111L95.206,100.111L96.22,100.111L96.73,100.111L97.27,100.111L97.735,100.111L98.23,100.111L99.24,100.111L99.754,100.111L100.291,100.111L100.756,100.111L101.252,100.111L102.262,100.111L102.773,100.111L103.313,100.111L103.778,100.111L104.273,100.111L105.284,100.111L105.794,100.111L106.333,100.111L106.798,100.111L107.295,100.111L108.306,100.111L108.816,100.111L109.354,100.111L109.822,100.111L110.315,100.111L111.325,100.111L111.832,100.111L112.367,100.111L112.834,100.111L113.336,100.111L114.348,100.111L114.852,100.111L115.388,100.111L115.859,100.111L116.359,100.111L117.371,100.111L117.886,100.111L118.423,100.111L118.882,100.111L119.383,100.111L120.392,100.111L120.905,100.111L121.443,100.111L121.911,100.111L122.405,100.111L123.415,100.111L123.928,100.111L124.465,100.111L124.935,100.111L125.424,100.111L126.437,100.111L126.951,100.111L127.489,100.111L127.956,100.111L128.445,100.111L129.457,100.111L129.971,100.111L130.508,100.111L130.975,100.111L131.468,100.111L132.478,100.111L132.982,100.111L133.517,100.111L133.988,100.111L134.49,100.111L135.5,100.111L136.004,100.111L136.54,100.111L137.008,100.111L137.51,100.111L138.525,100.111L139.039,100.111L139.577,100.111L140.03,100.111L140.534,100.111L141.545,100.111L142.062,100.111L142.599,100.111L143.062,100.111L143.556,100.111L144.569,100.111L145.082,100.111L145.621,100.111L146.085,100.111L146.578,100.111L147.587,100.111L148.098,100.111L148.635,100.111L149.106,100.111L149.598,100.111L150.607,100.111L151.12,100.111L151.655,100.111L152.126,100.111L152.619,100.111L153.629,100.111L154.135,100.111L154.669,100.111L155.141,100.111L155.641,100.111L156.649,100.111L157.155,100.111L157.691,100.111L158.162,100.111L158.663,100.111L159.675,100.111L160.188,100.111L160.727,100.111L161.193,100.111L161.688,100.111L162.696,100.111L163.209,100.111L163.75,100.111L164.215,100.111L164.709,100.111L165.719,100.111L166.233,100.111L166.772,100.111L167.237,100.111L167.731,100.111L168.742,100.111L169.255,100.111L169.795,100.111L170.263,100.111L170.753,100.111L171.763,100.111L172.275,100.111L172.812,100.111L173.279,100.111L173.774,100.111L174.782,100.111L175.287,100.111L175.821,100.111L176.291,100.111L176.793,100.111L177.804,100.111L178.309,100.111L178.844,100.111L179.315,100.111L179.815,100.111L180.832,100.111L181.347,100.111L181.882,100.111L182.346,100.111L182.839,100.111L183.85,100.111L184.362,100.111L184.92,100.111L185.368,100.111L185.863,100.111L186.873,100.111L187.39,100.111L187.945,100.111L188.389,100.111L188.886,100.111L189.894,100.111L190.411,100.111L190.964,100.111L191.413,100.111L191.906,100.111L192.916,100.111L193.428,100.111L193.967,100.111L194.433,100.111L194.927,100.111L195.934,100.111L196.444,100.111L196.977,100.111L197.447,100.111L197.946,100.111L198.96,100.111L199.462,100.111L199.999,100.111" stroke="#f58518" stroke-width="2"/></g></g><path class="foreground" aria-hidden="true" d="" display="none"/></g><g transform="translate(0,0)"><path class="background" aria-hidden="true" d="M0,0h200v200h-200Z"/><g><g class="mark-line role-mark marks" role="graphics-object" aria-roledescription="line mark container"><path aria-label="Time: Aug 20, 2025; Price: 899; identifier: roam-disc-2-2024" role="graphics-symbol" aria-roledescription="line mark" d="M18.949,100.111L19.173,100.111L19.669,100.111L20.678,100.111L21.189,100.111L21.728,100.111L22.197,100.111L22.689,100.111L23.701,100.111L24.21,100.111L24.748,100.111L25.215,100.111L25.709,100.111L26.72,100.111L27.227,100.111L27.761,100.111L28.229,100.111L28.728,100.111L29.746,100.111L30.246,100.111L30.784,100.111L31.255,100.111L31.751,100.111L32.772,100.111L33.282,100.111L33.833,100.111L34.284,100.111L34.776,100.111L35.788,100.111L36.301,100.111L37.303,100.111L37.795,100.111L38.806,100.111L39.317,100.111L39.515,100.111L39.855,100.111L40.192,100.111L40.324,100.111L40.818,100.111L41.828,100.111L42.34,100.111L42.878,100.111L43.345,100.111L43.839,100.111L44.85,100.111L45.36,100.111L45.896,100.111L46.366,100.111L46.859,100.111L47.868,100.111L48.374,100.111L48.909,100.111L49.38,100.111L49.855,100.111L49.879,100.111L50.891,100.111L51.214,100.111L51.395,100.111L51.932,100.111L52.404,100.111L52.902,100.111L53.922,100.111L54.43,100.111L54.967,100.111L55.429,100.111L55.923,100.111L56.939,100.111L57.45,100.111L57.99,100.111L58.453,100.111L58.947,100.111L59.957,100.111L60.467,100.111L61.005,100.111L61.473,100.111L61.968,100.111L62.978,100.111L63.49,100.111L64.024,100.111L64.497,100.111L64.989,100.111L66.001,100.111L66.511,100.111L67.048,100.111L67.513,100.111L68.011,100.111L69.02,100.111L69.279,100.111L69.524,100.111L70.057,100.111L70.53,100.111L71.031,100.111L72.04,100.111L72.545,100.111L73.08,100.111L73.552,100.111L74.053,100.111L75.067,100.111L75.581,100.111L76.12,100.111L76.584,100.111L77.079,100.111L78.088,100.111L78.602,100.111L79.159,100.111L79.608,100.111L80.098,100.111L81.105,100.111L81.621,100.111L82.156,100.111L82.625,100.111L83.121,100.111L84.131,100.111L84.641,100.111L85.177,100.111L85.641,100.111L86.14,100.111L87.151,100.111L87.662,100.111L88.197,100.111L88.664,100.111L89.162,100.111L90.171,100.111L90.676,100.111L91.21,100.111L91.68,100.111L92.184,100.111L93.193,100.111L93.698,100.111L94.23,100.111L94.701,100.111L95.205,100.111L96.22,100.111L96.729,100.111L97.27,100.111L97.735,100.111L98.229,100.111L99.239,100.111L99.754,100.111L100.291,100.111L100.755,100.111L101.251,100.111L102.262,100.111L102.773,100.111L103.312,100.111L103.778,100.111L104.272,100.111L105.283,100.111L105.794,100.111L106.333,100.111L106.798,100.111L107.295,100.111L108.305,100.111L108.816,100.111L109.354,100.111L109.821,100.111L110.314,100.111L111.325,100.111L111.832,100.111L112.366,100.111L112.834,100.111L113.335,100.111L114.347,100.111L114.851,100.111L115.387,100.111L115.858,100.111L116.359,100.111L117.371,100.111L117.885,100.111L118.423,100.111L118.882,100.111L119.383,100.111L120.392,100.111L120.905,100.111L121.442,100.111L121.911,100.111L122.404,100.111L123.415,100.111L123.928,100.111L124.465,100.111L124.935,100.111L125.424,100.111L126.436,100.111L126.95,100.111L127.489,100.111L127.955,100.111L128.445,100.111L129.457,100.111L129.97,100.111L130.507,100.111L130.974,100.111L131.467,100.111L132.478,100.111L132.982,100.111L133.517,100.111L133.988,100.111L134.489,100.111L135.5,100.111L136.004,100.111L136.54,100.111L137.007,100.111L137.51,100.111L138.524,100.111L139.039,100.111L139.577,100.111L140.029,100.111L140.534,100.111L141.545,100.111L142.062,100.111L142.598,100.111L143.061,100.111L143.556,100.111L144.568,100.111L145.081,100.111L145.621,100.111L146.084,100.111L146.578,100.111L147.587,100.111L148.098,100.111L148.635,100.111L149.105,100.111L149.598,100.111L150.607,100.111L151.12,100.111L151.655,100.111L152.126,100.111L152.619,100.111L153.628,100.111L154.135,100.111L154.668,100.111L155.141,100.111L155.641,100.111L156.649,100.111L157.155,100.111L157.691,100.111L158.162,100.111L158.663,100.111L159.674,100.111L160.188,100.111L160.727,100.111L161.193,100.111L161.688,100.111L162.696,100.111L163.209,100.111L163.749,100.111L164.215,100.111L164.709,100.111L165.719,100.111L166.233,100.111L166.772,100.111L167.237,100.111L167.731,100.111L168.742,100.111L169.255,100.111L169.795,100.111L170.263,100.111L170.753,100.111L171.762,100.111L172.274,100.111L172.812,100.111L173.279,100.111L173.774,100.111L174.782,100.111L175.287,100.111L175.821,100.111L176.291,100.111L176.793,100.111L177.804,100.111L178.309,100.111L178.844,100.111L179.315,100.111L179.815,100.111L180.832,100.111L181.346,100.111L181.882,100.111L182.344,100.111L182.838,100.111L183.849,100.111L184.362,100.111L184.92,100.111L185.368,100.111L185.863,100.111L186.872,100.111L187.389,100.111L187.945,100.111L188.389,100.111L188.886,100.111L189.894,100.111L190.411,100.111L190.963,100.111L191.413,100.111L191.906,100.111L192.915,100.111L193.428,100.111L193.966,100.111L194.432,100.111L194.926,100.111L195.934,100.111L196.443,100.111L196.976,100.111L197.447,100.111L197.946,100.111L198.96,100.111L199.461,100.111L199.999,100.111" stroke="#e45756" stroke-width="2"/></g></g><path class="foreground" aria-hidden="true" d="" display="none"/></g><g transform="translate(0,0)"><path class="background" aria-hidden="true" d="M0,0h200v200h-200Z"/><g><g class="mark-line role-mark marks" role="graphics-object" aria-roledescription="line mark container"><path aria-label="Time: Aug 20, 2025; Price: 1199; identifier: thrive-2" role="graphics-symbol" aria-roledescription="line mark" d="M18.95,66.778L19.173,66.778L19.669,66.778L20.678,66.778L21.189,66.778L21.728,66.778L22.197,66.778L22.69,66.778L23.701,66.778L24.21,66.778L24.749,66.778L25.216,66.778L25.71,66.778L26.721,66.778L27.227,66.778L27.761,66.778L28.23,66.778L28.728,66.778L29.746,66.778L30.247,66.778L30.785,66.778L31.255,66.778L31.751,66.778L32.772,66.778L33.282,66.778L33.833,66.778L34.284,66.778L34.776,66.778L35.789,66.778L36.302,66.778L37.303,66.778L37.795,66.778L38.807,66.778L39.317,66.778L39.516,66.778L39.856,66.778L40.193,66.778L40.325,66.778L40.819,66.778L41.828,66.778L42.34,66.778L42.879,66.778L43.346,66.778L43.839,66.778L44.85,66.778L45.36,66.778L45.897,66.778L46.366,66.778L46.86,66.778L47.868,66.778L48.375,66.778L48.909,66.778L49.381,66.778L49.856,66.778L49.879,66.778L50.891,66.778L51.214,66.778L51.395,66.778L51.933,66.778L52.404,66.778L52.902,66.778L53.923,66.778L54.431,66.778L54.967,66.778L55.43,66.778L55.923,66.778L56.94,66.778L57.451,66.778L57.991,66.778L58.453,66.778L58.947,66.778L59.958,66.778L60.467,66.778L61.006,66.778L61.474,66.778L61.968,66.778L62.979,66.778L63.49,66.778L64.025,66.778L64.498,66.778L64.989,66.778L66.002,66.778L66.511,66.778L67.048,66.778L67.514,66.778L68.012,66.778L69.02,66.778L69.279,66.778L69.524,66.778L70.057,66.778L70.53,66.778L71.032,66.778L72.041,66.778L72.546,66.778L73.081,66.778L73.552,66.778L74.053,66.778L75.068,66.778L75.582,66.778L76.121,66.778L76.585,66.778L77.08,66.778L78.088,66.778L78.602,66.778L79.159,66.778L79.609,66.778L80.098,66.778L81.106,66.778L81.621,66.778L82.157,66.778L82.625,66.778L83.121,66.778L84.132,66.778L84.642,66.778L85.177,66.778L85.641,66.778L86.14,66.778L87.151,66.778L87.662,66.778L88.197,66.778L88.664,66.778L89.162,66.778L90.171,66.778L90.677,66.778L91.21,66.778L91.68,66.778L92.184,66.778L93.194,66.778L93.699,66.778L94.23,66.778L94.701,66.778L95.206,66.778L96.22,66.778L96.73,66.778L97.27,66.778L97.736,66.778L98.23,66.778L99.24,66.778L99.754,66.778L100.291,66.778L100.756,66.778L101.252,66.778L102.263,66.778L102.773,66.778L103.313,66.778L103.778,66.778L104.273,66.778L105.284,66.778L105.794,66.778L106.334,66.778L106.798,66.778L107.295,66.778L108.306,66.778L108.816,66.778L109.354,66.778L109.822,66.778L110.315,66.778L111.325,66.778L111.832,66.778L112.367,66.778L112.834,66.778L113.336,66.778L114.348,66.778L114.852,66.778L115.388,66.778L115.859,66.778L116.359,66.778L117.371,66.778L117.886,66.778L118.424,66.778L118.882,66.778L119.383,66.778L120.392,66.778L120.905,66.778L121.443,66.778L121.911,66.778L122.405,66.778L123.415,66.778L123.928,66.778L124.465,66.778L124.935,66.778L125.424,66.778L126.437,66.778L126.951,66.778L127.489,66.778L127.956,66.778L128.445,66.778L129.457,66.778L129.971,66.778L130.508,66.778L130.975,66.778L131.468,66.778L132.478,66.778L132.982,66.778L133.517,66.778L133.988,66.778L134.49,66.778L135.5,66.778L136.004,66.778L136.54,66.778L137.008,66.778L137.51,66.778L138.525,66.778L139.039,66.778L139.578,66.778L140.03,66.778L140.534,66.778L141.545,66.778L142.062,66.778L142.599,66.778L143.062,66.778L143.556,66.778L144.569,66.778L145.082,66.778L145.621,66.778L146.085,66.778L146.578,66.778L147.587,66.778L148.098,66.778L148.635,66.778L149.106,66.778L149.598,66.778L150.608,66.778L151.12,66.778L151.655,66.778L152.126,66.778L152.62,66.778L153.629,66.778L154.135,66.778L154.669,66.778L155.141,66.778L155.641,66.778L156.649,66.778L157.155,66.778L157.691,66.778L158.162,66.778L158.663,66.778L159.675,66.778L160.188,66.778L160.727,66.778L161.194,66.778L161.688,66.778L162.696,66.778L163.209,66.778L163.75,66.778L164.215,66.778L164.709,66.778L165.719,66.778L166.233,66.778L166.772,66.778L167.237,66.778L167.731,66.778L168.743,66.778L169.256,66.778L169.795,66.778L170.263,66.778L170.753,66.778L171.763,66.778L172.275,66.778L172.812,66.778L173.279,66.778L173.774,66.778L174.782,66.778L175.288,66.778L175.821,66.778L176.291,66.778L176.794,66.778L177.804,66.778L178.309,66.778L178.844,66.778L179.316,66.778L179.815,66.778L180.832,66.778L181.347,66.778L181.882,66.778L182.347,66.778L182.839,66.778L183.85,66.778L184.362,66.778L184.92,66.778L185.368,66.778L185.863,66.778L186.873,66.778L187.39,66.778L187.945,66.778L188.389,66.778L188.886,66.778L189.894,66.778L190.411,66.778L190.964,66.778L191.413,66.778L191.906,66.778L192.916,66.778L193.428,66.778L193.967,66.778L194.433,66.778L194.927,66.778L195.935,66.778L196.444,66.778L196.977,66.778L197.447,66.778L197.946,66.778L198.96,66.778L199.462,66.778L199.999,66.778" stroke="#eeca3b" stroke-width="2"/></g></g><path class="foreground" aria-hidden="true" d="" display="none"/></g><g transform="translate(0,0)"><path class="background" aria-hidden="true" d="M0,0h200v200h-200Z"/><g><g class="mark-line role-mark marks" role="graphics-object" aria-roledescription="line mark container"><path aria-label="Time: Aug 20, 2025; Price: 999; identifier: rove-2" role="graphics-symbol" aria-roledescription="line mark" d="M18.95,89L19.173,89L19.67,89L20.678,89L21.189,89L21.728,89L22.197,89L22.69,89L23.701,89L24.21,89L24.749,89L25.216,89L25.71,89L26.721,89L27.227,89L27.761,89L28.23,89L28.728,89L29.746,89L30.247,89L30.785,89L31.255,89L31.751,89L32.772,89L33.282,89L33.833,89L34.284,89L34.776,89L35.789,89L36.302,89L37.303,89L37.795,89L38.807,89L39.317,89L39.516,89L39.856,89L40.193,89L40.325,89L40.819,89L41.828,89L42.341,89L42.879,89L43.346,89L43.84,89L44.85,89L45.36,89L45.897,89L46.366,89L46.86,89L49.856,111.222L49.879,111.222L50.891,111.222L51.214,111.222L51.395,111.222L51.933,111.222L52.404,111.222L52.902,111.222L53.923,111.222L54.431,111.222L54.967,111.222L55.43,111.222L55.923,111.222L56.94,111.222L57.451,111.222L57.991,111.222L58.453,111.222L58.947,111.222L59.958,111.222L60.468,111.222L61.006,111.222L61.474,111.222L61.968,111.222L62.979,111.222L63.491,111.222L64.025,111.222L64.498,111.222L64.989,111.222L66.002,111.222L66.511,111.222L67.048,111.222L67.514,111.222L68.012,111.222L69.02,111.222L69.279,111.222L69.524,111.222L70.057,111.222L70.53,111.222L71.032,111.222L72.041,111.222L72.546,111.222L73.081,111.222L73.552,111.222L74.053,111.222L75.068,111.222L75.582,111.222L76.121,111.222L76.585,111.222L77.08,111.222L78.088,111.222L78.602,111.222L79.159,111.222L79.609,111.222L80.098,111.222L81.106,111.222L81.621,111.222L82.157,111.222L82.626,111.222L83.121,111.222L84.132,111.222L84.642,111.222L85.177,111.222L85.641,111.222L86.14,111.222L87.151,111.222L87.662,111.222L88.198,111.222L88.665,111.222L89.162,111.222L90.171,111.222L90.677,111.222L91.21,111.222L91.68,111.222L92.184,111.222L93.194,111.222L93.699,111.222L94.23,111.222L94.701,111.222L95.206,111.222L96.22,111.222L96.73,111.222L97.27,111.222L97.736,111.222L98.23,111.222L99.24,111.222L99.754,111.222L100.291,111.222L100.756,111.222L101.252,111.222L102.263,111.222L102.773,111.222L103.313,111.222L103.778,111.222L104.273,111.222L105.284,111.222L105.794,111.222L106.334,111.222L106.798,111.222L107.295,111.222L108.306,111.222L108.816,111.222L109.354,111.222L109.822,111.222L110.315,111.222L111.325,111.222L111.832,111.222L112.367,111.222L112.834,111.222L113.336,111.222L114.348,111.222L114.852,111.222L115.388,111.222L115.859,111.222L116.359,111.222L117.371,111.222L117.886,111.222L118.424,111.222L118.882,111.222L119.383,111.222L120.392,111.222L120.905,111.222L121.443,111.222L121.911,111.222L122.405,111.222L123.415,111.222L123.928,111.222L124.465,111.222L124.935,111.222L125.424,111.222L126.437,111.222L126.951,111.222L127.49,111.222L127.956,111.222L128.446,111.222L129.457,111.222L129.971,111.222L130.508,111.222L130.975,111.222L131.468,111.222L132.479,111.222L132.982,111.222L133.517,111.222L133.988,111.222L134.49,111.222L135.5,111.222L136.004,111.222L136.54,111.222L137.008,111.222L137.511,111.222L138.525,111.222L139.039,111.222L139.578,111.222L140.03,111.222L140.534,111.222L141.545,111.222L142.062,111.222L142.599,111.222L143.062,111.222L143.556,111.222L144.569,111.222L145.082,111.222L145.621,111.222L146.085,111.222L146.578,111.222L147.587,111.222L148.098,111.222L148.635,111.222L149.106,111.222L149.599,111.222L150.608,111.222L151.12,111.222L151.655,111.222L152.126,111.222L152.62,111.222L153.629,111.222L154.135,111.222L154.669,111.222L155.141,111.222L155.641,111.222L156.649,111.222L157.155,111.222L157.692,111.222L158.162,111.222L158.663,111.222L159.675,111.222L160.188,111.222L160.727,111.222L161.194,111.222L161.688,111.222L162.696,111.222L163.209,111.222L163.75,111.222L164.215,111.222L164.709,111.222L165.72,111.222L166.234,111.222L166.772,111.222L167.237,111.222L167.731,111.222L168.743,111.222L169.256,111.222L169.795,111.222L170.263,111.222L170.753,111.222L171.763,111.222L172.275,111.222L172.812,111.222L173.279,111.222L173.774,111.222L174.782,111.222L175.288,111.222L175.821,111.222L176.291,111.222L176.794,111.222L177.804,111.222L178.309,111.222L178.844,111.222L179.316,111.222L179.815,111.222L180.832,111.222L181.347,111.222L181.882,111.222L182.347,111.222L182.839,111.222L183.85,111.222L184.362,111.222L184.92,111.222L185.368,111.222L185.863,111.222L186.873,111.222L187.39,111.222L187.945,111.222L188.389,111.222L188.886,111.222L189.894,111.222L190.411,111.222L190.964,111.222L191.413,111.222L191.906,111.222L192.916,111.222L193.429,111.222L193.967,111.222L194.433,111.222L194.927,111.222L195.935,111.222L196.444,111.222L196.977,111.222L197.447,111.222L197.946,111.222L198.96,111.222L199.462,111.222L199.999,111.222" stroke="#72b7b2" stroke-width="2"/></g></g><path class="foreground" aria-hidden="true" d="" display="none"/></g><g transform="translate(0,0)"><path class="background" aria-hidden="true" d="M0,0h200v200h-200Z"/><g><g class="mark-line role-mark marks" role="graphics-object" aria-roledescription="line mark container"><path aria-label="Time: Aug 27, 2025; Price: 1199; identifier: allure-rs-1-2023" role="graphics-symbol" aria-roledescription="line mark" d="M39.516,66.778L39.856,66.778L40.193,66.778L40.325,66.778L40.819,66.778L41.828,66.778L42.341,66.778L42.879,66.778L43.346,66.778L43.84,66.778L44.85,66.778L45.36,66.778L45.897,66.778L46.366,66.778L46.86,66.778L47.868,66.778L48.375,66.778L48.91,66.778L49.381,66.778L49.856,66.778L49.879,66.778L50.891,66.778L51.214,66.778L51.395,66.778L51.933,66.778L52.404,66.778L52.902,66.778L53.923,66.778L54.431,66.778L54.967,66.778L55.43,66.778L55.924,66.778L56.94,66.778L57.451,66.778L57.991,66.778L58.453,66.778L58.947,66.778L59.958,66.778L60.468,66.778L61.006,66.778L61.474,66.778L61.968,66.778L62.979,66.778L63.491,66.778L64.025,66.778L64.498,66.778L64.989,66.778L66.002,66.778L66.512,66.778L67.048,66.778L67.514,66.778L68.012,66.778L69.02,66.778L69.279,66.778L69.524,66.778L70.057,66.778L70.53,66.778L71.032,66.778L72.041,66.778L72.546,66.778L73.081,66.778L73.552,66.778L74.054,66.778L75.068,66.778L75.582,66.778L76.121,66.778L76.585,66.778L77.08,66.778L78.088,66.778L78.602,66.778L79.159,66.778L79.609,66.778L80.098,66.778L81.106,66.778L81.621,66.778L82.157,66.778L82.626,66.778L83.121,66.778L84.132,66.778L84.642,66.778L85.177,66.778L85.641,66.778L86.14,66.778L87.151,66.778L87.663,66.778L88.198,66.778L88.665,66.778L89.162,66.778L90.171,66.778L90.677,66.778L91.21,66.778L91.681,66.778L92.184,66.778L93.194,66.778L93.699,66.778L94.23,66.778L94.701,66.778L95.206,66.778L96.221,66.778L96.73,66.778L97.27,66.778L97.736,66.778L98.23,66.778L99.24,66.778L99.754,66.778L100.291,66.778L100.756,66.778L101.252,66.778L102.263,66.778L102.773,66.778L103.313,66.778L103.779,66.778L104.273,66.778L105.284,66.778L105.794,66.778L106.334,66.778L106.798,66.778L107.295,66.778L108.306,66.778L108.816,66.778L109.354,66.778L109.822,66.778L110.315,66.778L111.325,66.778L111.833,66.778L112.367,66.778L112.834,66.778L113.336,66.778L114.348,66.778L114.852,66.778L115.388,66.778L115.859,66.778L116.359,66.778L117.372,66.778L117.886,66.778L118.424,66.778L118.882,66.778L119.383,66.778L120.392,66.778L120.905,66.778L121.443,66.778L121.911,66.778L122.405,66.778L123.415,66.778L123.928,66.778L124.465,66.778L124.935,66.778L125.424,66.778L126.437,66.778L126.951,66.778L127.49,66.778L127.956,66.778L128.446,66.778L129.457,66.778L129.971,66.778L130.508,66.778L130.975,66.778L131.468,66.778L132.479,66.778L132.982,66.778L133.517,66.778L133.988,66.778L134.49,66.778L135.5,66.778L136.004,66.778L136.54,66.778L137.008,66.778L137.511,66.778L138.525,66.778L139.039,66.778L139.578,66.778L140.03,66.778L140.534,66.778L141.546,66.778L142.063,66.778L142.599,66.778L143.062,66.778L143.556,66.778L144.569,66.778L145.082,66.778L145.621,66.778L146.085,66.778L146.579,66.778L147.587,66.778L148.098,66.778L148.635,66.778L149.106,66.778L149.599,66.778L150.608,66.778L151.12,66.778L151.656,66.778L152.126,66.778L152.62,66.778L153.629,66.778L154.136,66.778L154.669,66.778L155.141,66.778L155.641,66.778L156.649,66.778L157.155,66.778L157.692,66.778L158.163,66.778L158.664,66.778L159.675,66.778L160.188,66.778L160.727,66.778L161.194,66.778L161.688,66.778L162.696,66.778L163.209,66.778L163.75,66.778L164.215,66.778L164.709,66.778L165.72,66.778L166.234,66.778L166.773,66.778L167.237,66.778L167.731,66.778L168.743,66.778L169.256,66.778L169.795,66.778L170.264,66.778L170.753,66.778L171.763,66.778L172.275,66.778L172.812,66.778L173.279,66.778L173.775,66.778L174.782,66.778L175.288,66.778L175.822,66.778L176.291,66.778L176.794,66.778L177.804,66.778L178.309,66.778L178.844,66.778L179.316,66.778L179.815,66.778L180.832,66.778L181.347,66.778L181.883,66.778L182.347,66.778L182.839,66.778L183.85,66.778L184.362,66.778L184.92,66.778L185.368,66.778L185.863,66.778L186.873,66.778L187.39,66.778L187.945,66.778L188.389,66.778L188.886,66.778L189.894,66.778L190.411,66.778L190.964,66.778L191.413,66.778L191.906,66.778L192.916,66.778L193.429,66.778L193.967,66.778L194.433,66.778L194.927,66.778L195.935,66.778L196.444,66.778L196.977,66.778L197.447,66.778L197.946,66.778L198.96,66.778L199.462,66.778L199.999,66.778" stroke="#b279a2" stroke-width="2"/></g></g><path class="foreground" aria-hidden="true" d="" display="none"/></g><g transform="translate(0,0)"><path class="background" aria-hidden="true" d="M0,0h200v200h-200Z"/><g><g class="mark-line role-mark marks" role="graphics-object" aria-roledescription="line mark container"><path aria-label="Time: Aug 27, 2025; Price: 999; identifier: allure-rs-2-2022" role="graphics-symbol" aria-roledescription="line mark" d="M39.517,89L39.856,89L40.193,89L40.325,89L40.819,89L41.828,89L42.341,89L42.879,89L43.346,89L43.84,89L44.85,89L45.36,89L45.897,89L46.366,89L46.86,89L49.856,111.222L49.88,111.222L50.892,111.222L51.214,111.222L51.395,111.222L51.933,111.222L52.404,111.222L52.902,111.222L53.923,111.222L54.431,111.222L54.967,111.222L55.43,111.222L55.924,111.222L56.94,111.222L57.451,111.222L57.991,111.222L58.454,111.222L58.947,111.222L59.958,111.222L60.468,111.222L61.006,111.222L61.474,111.222L61.968,111.222L62.979,111.222L63.491,111.222L64.025,111.222L64.498,111.222L64.989,111.222L66.002,111.222L66.512,111.222L67.048,111.222L67.514,111.222L68.012,111.222L69.02,111.222L69.279,111.222L69.524,111.222L70.057,111.222L70.531,111.222L71.032,111.222L72.041,111.222L72.546,111.222L73.081,111.222L73.553,111.222L74.054,111.222L75.068,111.222L75.582,111.222L76.121,111.222L76.585,111.222L77.08,111.222L78.089,111.222L78.602,111.222L79.16,111.222L79.609,111.222L80.098,111.222L81.106,111.222L81.621,111.222L82.157,111.222L82.626,111.222L83.121,111.222L84.132,111.222L84.642,111.222L85.177,111.222L85.642,111.222L86.141,111.222L87.151,111.222L87.663,111.222L88.198,111.222L88.665,111.222L89.162,111.222L90.171,111.222L90.677,111.222L91.211,111.222L91.681,111.222L92.184,111.222L93.194,111.222L93.699,111.222L94.23,111.222L94.702,111.222L95.206,111.222L96.221,111.222L96.73,111.222L97.27,111.222L97.736,111.222L98.23,111.222L99.24,111.222L99.754,111.222L100.291,111.222L100.756,111.222L101.252,111.222L102.263,111.222L102.774,111.222L103.313,111.222L103.779,111.222L104.273,111.222L105.284,111.222L105.795,111.222L106.334,111.222L106.799,111.222L107.295,111.222L108.306,111.222L108.816,111.222L109.354,111.222L109.822,111.222L110.315,111.222L111.325,111.222L111.833,111.222L112.367,111.222L112.834,111.222L113.336,111.222L114.348,111.222L114.852,111.222L115.388,111.222L115.859,111.222L116.359,111.222L117.372,111.222L117.886,111.222L118.424,111.222L118.883,111.222L119.383,111.222L120.392,111.222L120.905,111.222L121.443,111.222L121.911,111.222L122.405,111.222L123.415,111.222L123.928,111.222L124.465,111.222L124.935,111.222L125.425,111.222L126.437,111.222L126.951,111.222L127.49,111.222L127.956,111.222L128.446,111.222L129.457,111.222L129.971,111.222L130.508,111.222L130.975,111.222L131.468,111.222L132.479,111.222L132.982,111.222L133.517,111.222L133.989,111.222L134.49,111.222L135.5,111.222L136.005,111.222L136.54,111.222L137.008,111.222L137.511,111.222L138.525,111.222L139.04,111.222L139.578,111.222L140.03,111.222L140.534,111.222L141.546,111.222L142.063,111.222L142.599,111.222L143.062,111.222L143.556,111.222L144.569,111.222L145.082,111.222L145.621,111.222L146.085,111.222L146.579,111.222L147.587,111.222L148.099,111.222L148.635,111.222L149.106,111.222L149.599,111.222L150.608,111.222L151.12,111.222L151.656,111.222L152.126,111.222L152.62,111.222L153.629,111.222L154.136,111.222L154.669,111.222L155.141,111.222L155.641,111.222L156.649,111.222L157.156,111.222L157.692,111.222L158.163,111.222L158.664,111.222L159.675,111.222L160.189,111.222L160.728,111.222L161.194,111.222L161.688,111.222L162.697,111.222L163.209,111.222L163.75,111.222L164.215,111.222L164.709,111.222L165.72,111.222L166.234,111.222L166.773,111.222L167.237,111.222L167.731,111.222L168.743,111.222L169.256,111.222L169.795,111.222L170.264,111.222L170.753,111.222L171.763,111.222L172.275,111.222L172.812,111.222L173.28,111.222L173.775,111.222L174.782,111.222L175.288,111.222L175.822,111.222L176.291,111.222L176.794,111.222L177.804,111.222L178.31,111.222L178.844,111.222L179.316,111.222L179.816,111.222L180.832,111.222L181.347,111.222L181.883,111.222L182.347,111.222L182.839,111.222L183.85,111.222L184.362,111.222L184.92,111.222L185.369,111.222L185.864,111.222L186.873,111.222L187.39,111.222L187.945,111.222L188.389,111.222L188.886,111.222L189.894,111.222L190.411,111.222L190.964,111.222L191.413,111.222L191.906,111.222L192.916,111.222L193.429,111.222L193.967,111.222L194.433,111.222L194.927,111.222L195.935,111.222L196.444,111.222L196.977,111.222L197.447,111.222L197.947,111.222L198.96,111.222L199.462,111.222L199.999,111.222" stroke="#54a24b" stroke-width="2"/></g></g><path class="foreground" aria-hidden="true" d="" display="none"/></g><g transform="translate(0,0)"><path class="background" aria-hidden="true" d="M0,0h200v200h-200Z"/><g><g class="mark-line role-mark marks" role="graphics-object" aria-roledescription="line mark container"><path aria-label="Time: Aug 27, 2025; Price: 949; identifier: allure-rs-2-2023" role="graphics-symbol" aria-roledescription="line mark" d="M39.517,94.556L39.856,94.556L40.193,94.556L40.325,94.556L40.819,94.556L41.828,94.556L42.341,94.556L42.879,94.556L43.346,94.556L43.84,94.556L44.85,94.556L45.36,94.556L45.897,94.556L46.367,94.556L46.86,94.556L47.869,94.556L48.375,94.556L48.91,94.556L49.381,94.556L49.856,94.556L49.88,94.556L50.892,94.556L51.214,94.556L51.395,94.556L51.933,94.556L52.404,94.556L52.902,94.556L53.923,94.556L54.431,94.556L54.967,94.556L55.43,94.556L55.924,94.556L56.94,94.556L57.451,94.556L57.991,94.556L58.454,94.556L58.947,94.556L59.958,94.556L60.468,94.556L61.006,94.556L61.474,94.556L61.968,94.556L62.979,94.556L63.491,94.556L64.025,94.556L64.498,94.556L64.989,94.556L66.002,94.556L66.512,94.556L67.048,94.556L67.514,94.556L68.012,94.556L69.02,94.556L69.279,94.556L69.525,94.556L70.058,94.556L70.531,94.556L71.032,94.556L72.041,94.556L72.546,94.556L73.081,94.556L73.553,94.556L74.054,94.556L75.068,94.556L75.582,94.556L76.121,94.556L76.585,94.556L77.08,94.556L78.089,94.556L78.602,94.556L79.16,94.556L79.609,94.556L80.098,94.556L81.106,94.556L81.621,94.556L82.157,94.556L82.626,94.556L83.121,94.556L84.132,94.556L84.642,94.556L85.177,94.556L85.642,94.556L86.141,94.556L87.151,94.556L87.663,94.556L88.198,94.556L88.665,94.556L89.162,94.556L90.171,94.556L90.677,94.556L91.211,94.556L91.681,94.556L92.184,94.556L93.194,94.556L93.699,94.556L94.23,94.556L94.702,94.556L95.206,94.556L96.221,94.556L96.73,94.556L97.27,94.556L97.736,94.556L98.23,94.556L99.24,94.556L99.754,94.556L100.291,94.556L100.756,94.556L101.252,94.556L102.263,94.556L102.774,94.556L103.313,94.556L103.779,94.556L104.273,94.556L105.284,94.556L105.795,94.556L106.334,94.556L106.799,94.556L107.295,94.556L108.306,94.556L108.816,94.556L109.354,94.556L109.822,94.556L110.315,94.556L111.325,94.556L111.833,94.556L112.367,94.556L112.834,94.556L113.336,94.556L114.348,94.556L114.852,94.556L115.388,94.556L115.859,94.556L116.359,94.556L117.372,94.556L117.886,94.556L118.424,94.556L118.883,94.556L119.384,94.556L120.393,94.556L120.905,94.556L121.443,94.556L121.911,94.556L122.405,94.556L123.415,94.556L123.928,94.556L124.466,94.556L124.935,94.556L125.425,94.556L126.437,94.556L126.951,94.556L127.49,94.556L127.956,94.556L128.446,94.556L129.458,94.556L129.971,94.556L130.508,94.556L130.975,94.556L131.468,94.556L132.479,94.556L132.983,94.556L133.518,94.556L133.989,94.556L134.49,94.556L135.501,94.556L136.005,94.556L136.54,94.556L137.008,94.556L137.511,94.556L138.525,94.556L139.04,94.556L139.578,94.556L140.03,94.556L140.534,94.556L141.546,94.556L142.063,94.556L142.599,94.556L143.062,94.556L143.557,94.556L144.569,94.556L145.082,94.556L145.621,94.556L146.085,94.556L146.579,94.556L147.587,94.556L148.099,94.556L148.635,94.556L149.106,94.556L149.599,94.556L150.608,94.556L151.12,94.556L151.656,94.556L152.126,94.556L152.62,94.556L153.629,94.556L154.136,94.556L154.669,94.556L155.141,94.556L155.641,94.556L156.649,94.556L157.156,94.556L157.692,94.556L158.163,94.556L158.664,94.556L159.675,94.556L160.189,94.556L160.728,94.556L161.194,94.556L161.688,94.556L162.697,94.556L163.209,94.556L163.75,94.556L164.215,94.556L164.709,94.556L165.72,94.556L166.234,94.556L166.773,94.556L167.237,94.556L167.731,94.556L168.743,94.556L169.256,94.556L169.795,94.556L170.264,94.556L170.753,94.556L171.763,94.556L172.275,94.556L172.812,94.556L173.28,94.556L173.775,94.556L174.782,94.556L175.288,94.556L175.822,94.556L176.291,94.556L176.794,94.556L177.804,94.556L178.31,94.556L178.844,94.556L179.316,94.556L179.816,94.556L180.832,94.556L181.347,94.556L181.883,94.556L182.348,94.556L182.839,94.556L183.85,94.556L184.362,94.556L184.92,94.556L185.369,94.556L185.864,94.556L186.873,94.556L187.39,94.556L187.945,94.556L188.389,94.556L188.887,94.556L189.895,94.556L190.411,94.556L190.964,94.556L191.413,94.556L191.906,94.556L192.916,94.556L193.429,94.556L193.967,94.556L194.433,94.556L194.927,94.556L195.935,94.556L196.444,94.556L196.977,94.556L197.447,94.556L197.947,94.556L198.96,94.556L199.462,94.556L200,94.556" stroke="#bab0ac" stroke-width="2"/></g></g><path class="foreground" aria-hidden="true" d="" display="none"/></g><g transform="translate(0,0)"><path class="background" aria-hidden="true" d="M0,0h200v200h-200Z"/><g><g class="mark-line role-mark marks" role="graphics-object" aria-roledescription="line mark container"><path aria-label="Time: Aug 27, 2025; Price: 999; identifier: allure-rs-2-2024" role="graphics-symbol" aria-roledescription="line mark" d="M39.517,89L39.856,89L40.193,89L40.325,89L40.819,89L41.828,89L42.341,89L42.879,89L43.346,89L43.84,89L44.85,89L45.36,89L45.897,89L46.367,89L46.86,89L49.856,111.222L49.88,111.222L50.892,111.222L51.214,111.222L51.396,111.222L51.933,111.222L52.404,111.222L52.903,111.222L53.923,111.222L54.431,111.222L54.967,111.222L55.43,111.222L55.924,111.222L56.94,111.222L57.451,111.222L57.991,111.222L58.454,111.222L58.948,111.222L59.958,111.222L60.468,111.222L61.006,111.222L61.474,111.222L61.968,111.222L62.979,111.222L63.491,111.222L64.025,111.222L64.498,111.222L64.989,111.222L66.002,111.222L66.512,111.222L67.048,111.222L67.514,111.222L68.012,111.222L69.02,111.222L69.279,111.222L69.525,111.222L70.058,111.222L70.531,111.222L71.032,111.222L72.041,111.222L72.546,111.222L73.081,111.222L73.553,111.222L74.054,111.222L75.068,111.222L75.582,111.222L76.121,111.222L76.585,111.222L77.08,111.222L78.089,111.222L78.603,111.222L79.16,111.222L79.609,111.222L80.098,111.222L81.106,111.222L81.621,111.222L82.157,111.222L82.626,111.222L83.122,111.222L84.132,111.222L84.642,111.222L85.178,111.222L85.642,111.222L86.141,111.222L87.151,111.222L87.663,111.222L88.198,111.222L88.665,111.222L89.162,111.222L90.171,111.222L90.677,111.222L91.211,111.222L91.681,111.222L92.184,111.222L93.194,111.222L93.699,111.222L94.23,111.222L94.702,111.222L95.206,111.222L96.221,111.222L96.73,111.222L97.27,111.222L97.736,111.222L98.23,111.222L99.24,111.222L99.754,111.222L100.291,111.222L100.756,111.222L101.252,111.222L102.263,111.222L102.774,111.222L103.313,111.222L103.779,111.222L104.273,111.222L105.284,111.222L105.795,111.222L106.334,111.222L106.799,111.222L107.295,111.222L108.306,111.222L108.816,111.222L109.355,111.222L109.822,111.222L110.315,111.222L111.325,111.222L111.833,111.222L112.367,111.222L112.835,111.222L113.336,111.222L114.348,111.222L114.852,111.222L115.388,111.222L115.859,111.222L116.359,111.222L117.372,111.222L117.886,111.222L118.424,111.222L118.883,111.222L119.384,111.222L120.393,111.222L120.905,111.222L121.443,111.222L121.911,111.222L122.405,111.222L123.415,111.222L123.928,111.222L124.466,111.222L124.935,111.222L125.425,111.222L126.437,111.222L126.951,111.222L127.49,111.222L127.956,111.222L128.446,111.222L129.458,111.222L129.971,111.222L130.508,111.222L130.975,111.222L131.468,111.222L132.479,111.222L132.983,111.222L133.518,111.222L133.989,111.222L134.49,111.222L135.501,111.222L136.005,111.222L136.541,111.222L137.008,111.222L137.511,111.222L138.525,111.222L139.04,111.222L139.578,111.222L140.03,111.222L140.534,111.222L141.546,111.222L142.063,111.222L142.599,111.222L143.062,111.222L143.557,111.222L144.569,111.222L145.082,111.222L145.621,111.222L146.085,111.222L146.579,111.222L147.587,111.222L148.099,111.222L148.635,111.222L149.106,111.222L149.599,111.222L150.608,111.222L151.12,111.222L151.656,111.222L152.126,111.222L152.62,111.222L153.629,111.222L154.136,111.222L154.669,111.222L155.141,111.222L155.641,111.222L156.649,111.222L157.156,111.222L157.692,111.222L158.163,111.222L158.664,111.222L159.675,111.222L160.189,111.222L160.728,111.222L161.194,111.222L161.688,111.222L162.697,111.222L163.209,111.222L163.75,111.222L164.215,111.222L164.709,111.222L165.72,111.222L166.234,111.222L166.773,111.222L167.237,111.222L167.731,111.222L168.743,111.222L169.256,111.222L169.795,111.222L170.264,111.222L170.753,111.222L171.763,111.222L172.275,111.222L172.812,111.222L173.28,111.222L173.775,111.222L174.782,111.222L175.288,111.222L175.822,111.222L176.291,111.222L176.794,111.222L177.805,111.222L178.31,111.222L178.844,111.222L179.316,111.222L179.816,111.222L180.832,111.222L181.347,111.222L181.883,111.222L182.348,111.222L182.839,111.222L183.85,111.222L184.363,111.222L184.921,111.222L185.369,111.222L185.864,111.222L186.873,111.222L187.39,111.222L187.946,111.222L188.389,111.222L188.887,111.222L189.895,111.222L190.411,111.222L190.964,111.222L191.413,111.222L191.906,111.222L192.916,111.222L193.429,111.222L193.967,111.222L194.433,111.222L194.927,111.222L195.935,111.222L196.444,111.222L196.977,111.222L197.448,111.222L197.947,111.222L198.96,111.222L199.462,111.222L200,111.222" stroke="#eeca3b" stroke-width="2"/></g></g><path class="foreground" aria-hidden="true" d="" display="none"/></g><g transform="translate(0,0)"><path class="background" aria-hidden="true" d="M0,0h200v200h-200Z"/><g><g class="mark-line role-mark marks" role="graphics-object" aria-roledescription="line mark container"><path aria-label="Time: Aug 27, 2025; Price: 1799; identifier: devote-1-2024" role="graphics-symbol" aria-roledescription="line mark" d="M40.193,0.111L40.325,0.111L40.819,0.111L41.828,0.111L42.341,0.111L42.879,0.111L43.346,0.111L43.84,0.111L44.85,0.111L45.361,0.111L45.897,0.111L46.367,0.111L46.86,0.111L49.856,44.556L49.88,44.556L50.892,44.556L51.214,44.556L51.396,44.556L51.933,44.556L52.404,44.556L52.903,44.556L53.923,44.556L54.431,44.556L54.967,44.556L55.43,44.556L55.924,44.556L56.94,44.556L57.451,44.556L57.991,44.556L58.454,44.556L58.948,44.556L59.958,44.556L60.468,44.556L61.006,44.556L61.474,44.556L61.968,44.556L62.979,44.556L63.491,44.556L64.025,44.556L64.498,44.556L64.989,44.556L66.002,44.556L66.512,44.556L67.048,44.556L67.514,44.556L68.012,44.556L69.02,44.556L69.28,44.556L69.525,44.556L70.058,44.556L70.531,44.556L71.032,44.556L72.041,44.556L72.546,44.556L73.081,44.556L73.553,44.556L74.054,44.556L75.068,44.556L75.582,44.556L76.121,44.556L76.585,44.556L77.08,44.556L78.089,44.556L78.603,44.556L79.16,44.556L79.609,44.556L80.098,44.556L81.106,44.556L81.622,44.556L82.157,44.556L82.626,44.556L83.122,44.556L84.132,44.556L84.642,44.556L85.178,44.556L85.642,44.556L86.141,44.556L87.151,44.556L87.663,44.556L88.198,44.556L88.665,44.556L89.162,44.556L90.171,44.556L90.677,44.556L91.211,44.556L91.681,44.556L92.184,44.556L93.194,44.556L93.699,44.556L94.23,44.556L94.702,44.556L95.206,44.556L96.221,44.556L96.73,44.556L97.271,44.556L97.737,44.556L98.231,44.556L99.24,44.556L99.755,44.556L100.291,44.556L100.756,44.556L101.252,44.556L102.263,44.556L102.774,44.556L103.313,44.556L103.779,44.556L104.273,44.556L105.284,44.556L105.795,44.556L106.334,44.556L106.799,44.556L107.295,44.556L108.306,44.556L108.817,44.556L109.355,44.556L109.822,44.556L110.315,44.556L111.326,44.556L111.833,44.556L112.367,44.556L112.835,44.556L113.336,44.556L114.348,44.556L114.852,44.556L115.388,44.556L115.859,44.556L116.359,44.556L117.372,44.556L117.886,44.556L118.424,44.556L118.883,44.556L119.384,44.556L120.393,44.556L120.905,44.556L121.443,44.556L121.911,44.556L122.405,44.556L123.415,44.556L123.928,44.556L124.466,44.556L124.935,44.556L125.425,44.556L126.437,44.556L126.951,44.556L127.49,44.556L127.956,44.556L128.446,44.556L129.458,44.556L129.971,44.556L130.508,44.556L130.975,44.556L131.468,44.556L132.479,44.556L132.983,44.556L133.518,44.556L133.989,44.556L134.49,44.556L135.501,44.556L136.005,44.556L136.541,44.556L137.008,44.556L137.511,44.556L138.525,44.556L139.04,44.556L139.578,44.556L140.03,44.556L140.535,44.556L141.546,44.556L142.063,44.556L142.599,44.556L143.062,44.556L143.557,44.556L144.569,44.556L145.082,44.556L145.621,44.556L146.085,44.556L146.579,44.556L147.587,44.556L148.099,44.556L148.635,44.556L149.106,44.556L149.599,44.556L150.608,44.556L151.12,44.556L151.656,44.556L152.126,44.556L152.62,44.556L153.629,44.556L154.136,44.556L154.669,44.556L155.141,44.556L155.642,44.556L156.649,44.556L157.156,44.556L157.692,44.556L158.163,44.556L158.664,44.556L159.675,44.556L160.189,44.556L160.728,44.556L161.194,44.556L161.688,44.556L162.697,44.556L163.209,44.556L163.75,44.556L164.215,44.556L164.709,44.556L165.72,44.556L166.234,44.556L166.773,44.556L167.237,44.556L167.731,44.556L168.743,44.556L169.256,44.556L169.795,44.556L170.264,44.556L170.754,44.556L171.763,44.556L172.275,44.556L172.813,44.556L173.28,44.556L173.775,44.556L174.782,44.556L175.288,44.556L175.822,44.556L176.291,44.556L176.794,44.556L177.805,44.556L178.31,44.556L178.844,44.556L179.316,44.556L179.816,44.556L180.832,44.556L181.347,44.556L181.883,44.556L182.348,44.556L182.839,44.556L183.85,44.556L184.363,44.556L184.921,44.556L185.369,44.556L185.864,44.556L186.873,44.556L187.39,44.556L187.946,44.556L188.389,44.556L188.887,44.556L189.896,44.556L190.411,44.556L190.964,44.556L191.414,44.556L191.906,44.556L192.916,44.556L193.429,44.556L193.967,44.556L194.433,44.556L194.927,44.556L195.935,44.556L196.444,44.556L196.977,44.556L197.448,44.556L197.947,44.556L198.96,44.556L199.462,44.556L200,44.556" stroke="#72b7b2" stroke-width="2"/></g></g><path class="foreground" aria-hidden="true" d="" display="none"/></g><g transform="translate(0,0)"><path class="background" aria-hidden="true" d="M0,0h200v200h-200Z"/><g><g class="mark-line role-mark marks" role="graphics-object" aria-roledescription="line mark container"><path aria-label="Time: Aug 27, 2025; Price: 1699; identifier: devote-1-2022" role="graphics-symbol" aria-roledescription="line mark" d="M40.193,11.222L40.325,11.222L40.819,11.222L41.829,11.222L42.341,11.222L42.879,11.222L43.346,11.222L43.84,11.222L44.85,11.222L45.361,11.222L45.897,11.222L46.367,11.222L46.86,11.222L47.869,11.222L48.375,11.222L48.91,11.222L49.381,11.222L49.856,11.222L49.88,11.222L50.892,11.222L51.214,11.222L51.396,11.222L51.933,11.222L52.405,11.222L52.903,11.222L53.923,11.222L54.431,11.222L54.967,11.222L55.43,11.222L55.924,11.222L56.94,11.222L57.451,11.222L57.991,11.222L58.454,11.222L58.948,11.222L59.958,11.222L60.468,11.222L61.006,11.222L61.474,11.222L61.968,11.222L62.979,11.222L63.491,11.222L64.025,11.222L64.498,11.222L64.99,11.222L66.002,11.222L66.512,11.222L67.049,11.222L67.514,11.222L68.012,11.222L69.02,11.222L69.28,11.222L69.525,11.222L70.058,11.222L70.531,11.222L71.032,11.222L72.041,11.222L72.546,11.222L73.081,11.222L73.553,11.222L74.054,11.222L75.068,11.222L75.582,11.222L76.121,11.222L76.585,11.222L77.08,11.222L78.089,11.222L78.603,11.222L79.16,11.222L79.609,11.222L80.098,11.222L81.106,11.222L81.622,11.222L82.157,11.222L82.626,11.222L83.122,11.222L84.132,11.222L84.642,11.222L85.178,11.222L85.642,11.222L86.141,11.222L87.151,11.222L87.663,11.222L88.198,11.222L88.665,11.222L89.162,11.222L90.171,11.222L90.677,11.222L91.211,11.222L91.681,11.222L92.184,11.222L93.194,11.222L93.699,11.222L94.23,11.222L94.702,11.222L95.206,11.222L96.221,11.222L96.73,11.222L97.271,11.222L97.737,11.222L98.231,11.222L99.24,11.222L99.755,11.222L100.291,11.222L100.756,11.222L101.252,11.222L102.263,11.222L102.774,11.222L103.313,11.222L103.779,11.222L104.273,11.222L105.284,11.222L105.795,11.222L106.334,11.222L106.799,11.222L107.295,11.222L108.306,11.222L108.817,11.222L109.355,11.222L109.822,11.222L110.315,11.222L111.326,11.222L111.833,11.222L112.367,11.222L112.835,11.222L113.336,11.222L114.348,11.222L114.852,11.222L115.388,11.222L115.859,11.222L116.359,11.222L117.372,11.222L117.886,11.222L118.424,11.222L118.883,11.222L119.384,11.222L120.393,11.222L120.906,11.222L121.443,11.222L121.912,11.222L122.405,11.222L123.415,11.222L123.928,11.222L124.466,11.222L124.935,11.222L125.425,11.222L126.437,11.222L126.951,11.222L127.49,11.222L127.956,11.222L128.446,11.222L129.458,11.222L129.971,11.222L130.508,11.222L130.975,11.222L131.468,11.222L132.479,11.222L132.983,11.222L133.518,11.222L133.989,11.222L134.49,11.222L135.501,11.222L136.005,11.222L136.541,11.222L137.008,11.222L137.511,11.222L138.526,11.222L139.04,11.222L139.578,11.222L140.03,11.222L140.535,11.222L141.546,11.222L142.063,11.222L142.599,11.222L143.062,11.222L143.557,11.222L144.569,11.222L145.082,11.222L145.622,11.222L146.085,11.222L146.579,11.222L147.587,11.222L148.099,11.222L148.635,11.222L149.106,11.222L149.599,11.222L150.608,11.222L151.12,11.222L151.656,11.222L152.126,11.222L152.62,11.222L153.629,11.222L154.136,11.222L154.669,11.222L155.142,11.222L155.642,11.222L156.649,11.222L157.156,11.222L157.692,11.222L158.163,11.222L158.664,11.222L159.675,11.222L160.189,11.222L160.728,11.222L161.194,11.222L161.688,11.222L162.697,11.222L163.209,11.222L163.75,11.222L164.215,11.222L164.709,11.222L165.72,11.222L166.234,11.222L166.773,11.222L167.237,11.222L167.731,11.222L168.743,11.222L169.256,11.222L169.796,11.222L170.264,11.222L170.754,11.222L171.763,11.222L172.275,11.222L172.813,11.222L173.28,11.222L173.775,11.222L174.783,11.222L175.288,11.222L175.822,11.222L176.291,11.222L176.794,11.222L177.805,11.222L178.31,11.222L178.844,11.222L179.316,11.222L179.816,11.222L180.833,11.222L181.347,11.222L181.883,11.222L182.348,11.222L182.839,11.222L183.85,11.222L184.363,11.222L184.921,11.222L185.369,11.222L185.864,11.222L186.873,11.222L187.39,11.222L187.946,11.222L188.389,11.222L188.887,11.222L189.896,11.222L190.411,11.222L190.964,11.222L191.414,11.222L191.907,11.222L192.916,11.222L193.429,11.222L193.967,11.222L194.433,11.222L194.927,11.222L195.935,11.222L196.444,11.222L196.977,11.222L197.448,11.222L197.947,11.222L198.96,11.222L199.462,11.222L200,11.222" stroke="#4c78a8" stroke-width="2"/></g></g><path class="foreground" aria-hidden="true" d="" display="none"/></g><g transform="translate(0,0)"><path class="background" aria-hidden="true" d="M0,0h200v200h-200Z"/><g><g class="mark-line role-mark marks" role="graphics-object" aria-roledescription="line mark container"><path aria-label="Time: Aug 31, 2025; Price: 1599; identifier: silex-400-oak-bork-2026" role="graphics-symbol" aria-roledescription="line mark" d="M51.215,22.333L51.396,22.333L51.933,22.333L52.405,22.333L52.903,22.333L53.923,22.333L54.431,22.333L54.968,22.333L55.43,22.333L55.924,22.333L56.94,22.333L57.451,22.333L57.991,22.333L58.454,22.333L58.948,22.333L59.958,22.333L60.468,22.333L61.006,22.333L61.474,22.333L61.968,22.333L62.979,22.333L63.491,22.333L64.025,22.333L64.498,22.333L64.99,22.333L66.002,22.333L66.512,22.333L67.049,22.333L67.514,22.333L68.012,22.333L69.021,22.333L69.28,22.333L69.525,22.333L70.058,22.333L70.531,22.333L71.032,22.333L72.041,22.333L72.546,22.333L73.082,22.333L73.553,22.333L74.054,22.333L75.068,22.333L75.582,22.333L76.121,22.333L76.585,22.333L77.08,22.333L78.089,22.333L78.603,22.333L79.16,22.333L79.609,22.333L80.099,22.333L81.106,22.333L81.622,22.333L82.157,22.333L82.626,22.333L83.122,22.333L84.132,22.333L84.642,22.333L85.178,22.333L85.642,22.333L86.141,22.333L87.152,22.333L87.663,22.333L88.198,22.333L88.665,22.333L89.162,22.333L90.171,22.333L90.677,22.333L91.211,22.333L91.681,22.333L92.185,22.333L93.194,22.333L93.699,22.333L94.231,22.333L94.702,22.333L95.206,22.333L96.221,22.333L96.73,22.333L97.271,22.333L97.737,22.333L98.231,22.333L99.24,22.333L99.755,22.333L100.291,22.333L100.757,22.333L101.252,22.333L102.263,22.333L102.774,22.333L103.313,22.333L103.779,22.333L104.274,22.333L105.284,22.333L105.795,22.333L106.334,22.333L106.799,22.333L107.296,22.333L108.306,22.333L108.817,22.333L109.355,22.333L109.822,22.333L110.315,22.333L111.326,22.333L111.833,22.333L112.367,22.333L112.835,22.333L113.336,22.333L114.349,22.333L114.852,22.333L115.388,22.333L115.859,22.333L116.36,22.333L117.372,22.333L117.886,22.333L118.424,22.333L118.883,22.333L119.384,22.333L120.393,22.333L120.906,22.333L121.443,22.333L121.912,22.333L122.405,22.333L123.416,22.333L123.929,22.333L124.466,22.333L124.935,22.333L125.425,22.333L126.437,22.333L126.951,22.333L127.49,22.333L127.956,22.333L128.446,22.333L129.458,22.333L129.971,22.333L130.508,22.333L130.975,22.333L131.468,22.333L132.479,22.333L132.983,22.333L133.518,22.333L133.989,22.333L134.491,22.333L135.501,22.333L136.005,22.333L136.541,22.333L137.008,22.333L137.511,22.333L138.526,22.333L139.04,22.333L139.578,22.333L140.03,22.333L140.535,22.333L141.546,22.333L142.063,22.333L142.599,22.333L143.062,22.333L143.557,22.333L144.57,22.333L145.082,22.333L145.622,22.333L146.085,22.333L146.579,22.333L147.587,22.333L148.099,22.333L148.636,22.333L149.106,22.333L149.599,22.333L150.608,22.333L151.121,22.333L151.656,22.333L152.126,22.333L152.62,22.333L153.629,22.333L154.136,22.333L154.669,22.333L155.142,22.333L155.642,22.333L156.65,22.333L157.156,22.333L157.692,22.333L158.163,22.333L158.664,22.333L159.676,22.333L160.189,22.333L160.728,22.333L161.194,22.333L161.689,22.333L162.697,22.333L163.21,22.333L163.75,22.333L164.216,22.333L164.71,22.333L165.72,22.333L166.234,22.333L166.773,22.333L167.238,22.333L167.732,22.333L168.743,22.333L169.256,22.333L169.796,22.333L170.264,22.333L170.754,22.333L171.764,22.333L172.275,22.333L172.813,22.333L173.28,22.333L173.775,22.333L174.783,22.333L175.288,22.333L175.822,22.333L176.292,22.333L176.794,22.333L177.805,22.333L178.31,22.333L178.845,22.333L179.316,22.333L179.816,22.333L180.833,22.333L181.347,22.333L181.883,22.333L182.348,22.333L182.84,22.333L183.85,22.333L184.363,22.333L184.921,22.333L185.369,22.333L185.864,22.333L186.873,22.333L187.39,22.333L187.946,22.333L188.39,22.333L188.887,22.333L189.896,22.333L190.412,22.333L190.964,22.333L191.414,22.333L191.907,22.333L192.916,22.333L193.429,22.333L193.967,22.333L194.433,22.333L194.927,22.333L195.935,22.333L196.444,22.333L196.977,22.333L197.448,22.333L197.947,22.333L198.961,22.333L199.462,22.333L200,22.333" stroke="#f58518" stroke-width="2"/></g></g><path class="foreground" aria-hidden="true" d="" display="none"/></g><g transform="translate(0,0)"><path class="background" aria-hidden="true" d="M0,0h200v200h-200Z"/><g><g class="mark-line role-mark marks" role="graphics-object" aria-roledescription="line mark container"><path aria-label="Time: Aug 31, 2025; Price: 1599; identifier: silex-400-warm-slate-grey-2026" role="graphics-symbol" aria-roledescription="line mark" d="M51.215,22.333L51.396,22.333L51.933,22.333L52.405,22.333L52.903,22.333L53.923,22.333L54.431,22.333L54.968,22.333L55.43,22.333L55.924,22.333L56.94,22.333L57.451,22.333L57.991,22.333L58.454,22.333L58.948,22.333L59.958,22.333L60.468,22.333L61.006,22.333L61.474,22.333L61.969,22.333L62.979,22.333L63.491,22.333L64.025,22.333L64.498,22.333L64.99,22.333L66.002,22.333L66.512,22.333L67.049,22.333L67.514,22.333L68.012,22.333L69.021,22.333L69.28,22.333L69.525,22.333L70.058,22.333L70.531,22.333L71.032,22.333L72.041,22.333L72.546,22.333L73.082,22.333L73.553,22.333L74.054,22.333L75.069,22.333L75.583,22.333L76.121,22.333L76.586,22.333L77.08,22.333L78.089,22.333L78.603,22.333L79.16,22.333L79.609,22.333L80.099,22.333L81.107,22.333L81.622,22.333L82.158,22.333L82.626,22.333L83.122,22.333L84.132,22.333L84.642,22.333L85.178,22.333L85.642,22.333L86.141,22.333L87.152,22.333L87.663,22.333L88.199,22.333L88.665,22.333L89.163,22.333L90.172,22.333L90.677,22.333L91.211,22.333L91.681,22.333L92.185,22.333L93.195,22.333L93.699,22.333L94.231,22.333L94.702,22.333L95.206,22.333L96.221,22.333L96.73,22.333L97.271,22.333L97.737,22.333L98.231,22.333L99.24,22.333L99.755,22.333L100.292,22.333L100.757,22.333L101.252,22.333L102.263,22.333L102.774,22.333L103.314,22.333L103.779,22.333L104.274,22.333L105.285,22.333L105.795,22.333L106.334,22.333L106.799,22.333L107.296,22.333L108.306,22.333L108.817,22.333L109.355,22.333L109.822,22.333L110.316,22.333L111.326,22.333L111.833,22.333L112.368,22.333L112.835,22.333L113.336,22.333L114.349,22.333L114.852,22.333L115.388,22.333L115.859,22.333L116.36,22.333L117.372,22.333L117.887,22.333L118.424,22.333L118.883,22.333L119.384,22.333L120.393,22.333L120.906,22.333L121.444,22.333L121.912,22.333L122.406,22.333L123.416,22.333L123.929,22.333L124.467,22.333L124.936,22.333L125.425,22.333L126.438,22.333L126.951,22.333L127.49,22.333L127.957,22.333L128.446,22.333L129.458,22.333L129.972,22.333L130.508,22.333L130.975,22.333L131.469,22.333L132.479,22.333L132.983,22.333L133.518,22.333L133.989,22.333L134.491,22.333L135.501,22.333L136.005,22.333L136.541,22.333L137.008,22.333L137.511,22.333L138.526,22.333L139.04,22.333L139.578,22.333L140.03,22.333L140.535,22.333L141.546,22.333L142.063,22.333L142.599,22.333L143.062,22.333L143.557,22.333L144.57,22.333L145.083,22.333L145.622,22.333L146.085,22.333L146.579,22.333L147.587,22.333L148.099,22.333L148.636,22.333L149.107,22.333L149.599,22.333L150.608,22.333L151.121,22.333L151.656,22.333L152.127,22.333L152.62,22.333L153.629,22.333L154.136,22.333L154.67,22.333L155.142,22.333L155.642,22.333L156.65,22.333L157.156,22.333L157.692,22.333L158.163,22.333L158.665,22.333L159.676,22.333L160.189,22.333L160.728,22.333L161.194,22.333L161.689,22.333L162.697,22.333L163.21,22.333L163.75,22.333L164.216,22.333L164.71,22.333L165.72,22.333L166.234,22.333L166.773,22.333L167.238,22.333L167.732,22.333L168.743,22.333L169.256,22.333L169.796,22.333L170.264,22.333L170.754,22.333L171.764,22.333L172.275,22.333L172.813,22.333L173.28,22.333L173.776,22.333L174.783,22.333L175.288,22.333L175.822,22.333L176.292,22.333L176.794,22.333L177.805,22.333L178.31,22.333L178.845,22.333L179.316,22.333L179.816,22.333L180.833,22.333L181.348,22.333L181.883,22.333L182.348,22.333L182.84,22.333L183.85,22.333L184.363,22.333L184.921,22.333L185.37,22.333L185.864,22.333L186.874,22.333L187.39,22.333L187.946,22.333L188.39,22.333L188.887,22.333L189.896,22.333L190.412,22.333L190.964,22.333L191.414,22.333L191.907,22.333L192.916,22.333L193.429,22.333L193.967,22.333L194.434,22.333L194.927,22.333L195.935,22.333L196.444,22.333L196.977,22.333L197.448,22.333L197.947,22.333L198.961,22.333L199.462,22.333L200,22.333" stroke="#e45756" stroke-width="2"/></g></g><path class="foreground" aria-hidden="true" d="" display="none"/></g></g><g class="mark-group role-legend" role="graphics-symbol" aria-roledescription="legend" aria-label="Symbol legend titled 'identifier' for stroke color with 16 values: devote-1-2022, silex-400-oak-bork-2026, silex-400-warm-slate-grey-2026, devote-1-2024, fastroad-ar-2, ending with allure-rs-2-2024"><g transform="translate(220,0)"><path class="background" aria-hidden="true" d="M0,0h256v222h-256Z" pointer-events="none"/><g><g class="mark-group role-legend-entry"><g transform="translate(0,16)"><path class="background" aria-hidden="true" d="M0,0h0v0h0Z" pointer-events="none"/><g><g class="mark-group role-scope" role="graphics-object" aria-roledescription="group mark container"><g transform="translate(0,0)"><path class="background" aria-hidden="true" d="M0,0h256v11h-256Z" pointer-events="none" opacity="1"/><g><g class="mark-symbol role-legend-symbol" pointer-events="none"><path transform="translate(6,6)" d="M-5,0L5,0" stroke="#4c78a8" stroke-width="1.5" opacity="1"/></g><g class="mark-text role-legend-label" pointer-events="none"><text text-anchor="start" transform="translate(16,9)" font-family="Liberation Mono" font-size="10px" fill="#000" opacity="1">devote-1-2022</text></g></g><path class="foreground" aria-hidden="true" d="" pointer-events="none" display="none"/></g><g transform="translate(0,13)"><path class="background" aria-hidden="true" d="M0,0h256v11h-256Z" pointer-events="none" opacity="1"/><g><g class="mark-symbol role-legend-symbol" pointer-events="none"><path transform="translate(6,6)" d="M-5,0L5,0" stroke="#f58518" stroke-width="1.5" opacity="1"/></g><g class="mark-text role-legend-label" pointer-events="none"><text text-anchor="start" transform="translate(16,9)" font-family="Liberation Mono" font-size="10px" fill="#000" opacity="1">silex-400-oak-bork-2026</text></g></g><path class="foreground" aria-hidden="true" d="" pointer-events="none" display="none"/></g><g transform="translate(0,26)"><path class="background" aria-hidden="true" d="M0,0h256v11h-256Z" pointer-events="none" opacity="1"/><g><g class="mark-symbol role-legend-symbol" pointer-events="none"><path transform="translate(6,6)" d="M-5,0L5,0" stroke="#e45756" stroke-width="1.5" opacity="1"/></g><g class="mark-text role-legend-label" pointer-events="none"><text text-anchor="start" transform="translate(16,9)" font-family="Liberation Mono" font-size="10px" fill="#000" opacity="1">silex-400-warm-slate-grey-2026</text></g></g><path class="foreground" aria-hidden="true" d="" pointer-events="none" display="none"/></g><g transform="translate(0,39)"><path class="background" aria-hidden="true" d="M0,0h256v11h-256Z" pointer-events="none" opacity="1"/><g><g class="mark-symbol role-legend-symbol" pointer-events="none"><path transform="translate(6,6)" d="M-5,0L5,0" stroke="#72b7b2" stroke-width="1.5" opacity="1"/></g><g class="mark-text role-legend-label" pointer-events="none"><text text-anchor="start" transform="translate(16,9)" font-family="Liberation Mono" font-size="10px" fill="#000" opacity="1">devote-1-2024</text></g></g><path class="foreground" aria-hidden="true" d="" pointer-events="none" display="none"/></g><g transform="translate(0,52)"><path class="background" aria-hidden="true" d="M0,0h256v11h-256Z" pointer-events="none" opacity="1"/><g><g class="mark-symbol role-legend-symbol" pointer-events="none"><path transform="translate(6,6)" d="M-5,0L5,0" stroke="#54a24b" stroke-width="1.5" opacity="1"/></g><g class="mark-text role-legend-label" pointer-events="none"><text text-anchor="start" transform="translate(16,9)" font-family="Liberation Mono" font-size="10px" fill="#000" opacity="1">fastroad-ar-2</text></g></g><path class="foreground" aria-hidden="true" d="" pointer-events="none" display="none"/></g><g transform="translate(0,65)"><path class="background" aria-hidden="true" d="M0,0h256v11h-256Z" pointer-events="none" opacity="1"/><g><g class="mark-symbol role-legend-symbol" pointer-events="none"><path transform="translate(6,6)" d="M-5,0L5,0" stroke="#eeca3b" stroke-width="1.5" opacity="1"/></g><g class="mark-text role-legend-label" pointer-events="none"><text text-anchor="start" transform="translate(16,9)" font-family="Liberation Mono" font-size="10px" fill="#000" opacity="1">thrive-2</text></g></g><path class="foreground" aria-hidden="true" d="" pointer-events="none" display="none"/></g><g transform="translate(0,78)"><path class="background" aria-hidden="true" d="M0,0h256v11h-256Z" pointer-events="none" opacity="1"/><g><g class="mark-symbol role-legend-symbol" pointer-events="none"><path transform="translate(6,6)" d="M-5,0L5,0" stroke="#b279a2" stroke-width="1.5" opacity="1"/></g><g class="mark-text role-legend-label" pointer-events="none"><text text-anchor="start" transform="translate(16,9)" font-family="Liberation Mono" font-size="10px" fill="#000" opacity="1">allure-rs-1-2023</text></g></g><path class="foreground" aria-hidden="true" d="" pointer-events="none" display="none"/></g><g transform="translate(0,91)"><path class="background" aria-hidden="true" d="M0,0h256v11h-256Z" pointer-events="none" opacity="1"/><g><g class="mark-symbol role-legend-symbol" pointer-events="none"><path transform="translate(6,6)" d="M-5,0L5,0" stroke="#ff9da6" stroke-width="1.5" opacity="1"/></g><g class="mark-text role-legend-label" pointer-events="none"><text text-anchor="start" transform="translate(16,9)" font-family="Liberation Mono" font-size="10px" fill="#000" opacity="1">roam-2</text></g></g><path class="foreground" aria-hidden="true" d="" pointer-events="none" display="none"/></g><g transform="translate(0,104)"><path class="background" aria-hidden="true" d="M0,0h256v11h-256Z" pointer-events="none" opacity="1"/><g><g class="mark-symbol role-legend-symbol" pointer-events="none"><path transform="translate(6,6)" d="M-5,0L5,0" stroke="#9d755d" stroke-width="1.5" opacity="1"/></g><g class="mark-text role-legend-label" pointer-events="none"><text text-anchor="start" transform="translate(16,9)" font-family="Liberation Mono" font-size="10px" fill="#000" opacity="1">fastroad-sl-3-2022</text></g></g><path class="foreground" aria-hidden="true" d="" pointer-events="none" display="none"/></g><g transform="translate(0,117)"><path class="background" aria-hidden="true" d="M0,0h256v11h-256Z" pointer-events="none" opacity="1"/><g><g class="mark-symbol role-legend-symbol" pointer-events="none"><path transform="translate(6,6)" d="M-5,0L5,0" stroke="#bab0ac" stroke-width="1.5" opacity="1"/></g><g class="mark-text role-legend-label" pointer-events="none"><text text-anchor="start" transform="translate(16,9)" font-family="Liberation Mono" font-size="10px" fill="#000" opacity="1">allure-rs-2-2023</text></g></g><path class="foreground" aria-hidden="true" d="" pointer-events="none" display="none"/></g><g transform="translate(0,130)"><path class="background" aria-hidden="true" d="M0,0h256v11h-256Z" pointer-events="none" opacity="1"/><g><g class="mark-symbol role-legend-symbol" pointer-events="none"><path transform="translate(6,6)" d="M-5,0L5,0" stroke="#4c78a8" stroke-width="1.5" opacity="1"/></g><g class="mark-text role-legend-label" pointer-events="none"><text text-anchor="start" transform="translate(16,9)" font-family="Liberation Mono" font-size="10px" fill="#000" opacity="1">escape-city-disc-1-2024</text></g></g><path class="foreground" aria-hidden="true" d="" pointer-events="none" display="none"/></g><g transform="translate(0,143)"><path class="background" aria-hidden="true" d="M0,0h256v11h-256Z" pointer-events="none" opacity="1"/><g><g class="mark-symbol role-legend-symbol" pointer-events="none"><path transform="translate(6,6)" d="M-5,0L5,0" stroke="#f58518" stroke-width="1.5" opacity="1"/></g><g class="mark-text role-legend-label" pointer-events="none"><text text-anchor="start" transform="translate(16,9)" font-family="Liberation Mono" font-size="10px" fill="#000" opacity="1">sdrbike-escape-1-city-disc</text></g></g><path class="foreground" aria-hidden="true" d="" pointer-events="none" display="none"/></g><g transform="translate(0,156)"><path class="background" aria-hidden="true" d="M0,0h256v11h-256Z" pointer-events="none" opacity="1"/><g><g class="mark-symbol role-legend-symbol" pointer-events="none"><path transform="translate(6,6)" d="M-5,0L5,0" stroke="#e45756" stroke-width="1.5" opacity="1"/></g><g class="mark-text role-legend-label" pointer-events="none"><text text-anchor="start" transform="translate(16,9)" font-family="Liberation Mono" font-size="10px" fill="#000" opacity="1">roam-disc-2-2024</text></g></g><path class="foreground" aria-hidden="true" d="" pointer-events="none" display="none"/></g><g transform="translate(0,169)"><path class="background" aria-hidden="true" d="M0,0h256v11h-256Z" pointer-events="none" opacity="1"/><g><g class="mark-symbol role-legend-symbol" pointer-events="none"><path transform="translate(6,6)" d="M-5,0L5,0" stroke="#72b7b2" stroke-width="1.5" opacity="1"/></g><g class="mark-text role-legend-label" pointer-events="none"><text text-anchor="start" transform="translate(16,9)" font-family="Liberation Mono" font-size="10px" fill="#000" opacity="1">rove-2</text></g></g><path class="foreground" aria-hidden="true" d="" pointer-events="none" display="none"/></g><g transform="translate(0,182)"><path class="background" aria-hidden="true" d="M0,0h256v11h-256Z" pointer-events="none" opacity="1"/><g><g class="mark-symbol role-legend-symbol" pointer-events="none"><path transform="translate(6,6)" d="M-5,0L5,0" stroke="#54a24b" stroke-width="1.5" opacity="1"/></g><g class="mark-text role-legend-label" pointer-events="none"><text text-anchor="start" transform="translate(16,9)" font-family="Liberation Mono" font-size="10px" fill="#000" opacity="1">allure-rs-2-2022</text></g></g><path class="foreground" aria-hidden="true" d="" pointer-events="none" display="none"/></g><g transform="translate(0,195)"><path class="background" aria-hidden="true" d="M0,0h256v11h-256Z" pointer-events="none" opacity="1"/><g><g class="mark-symbol role-legend-symbol" pointer-events="none"><path transform="translate(6,6)" d="M-5,0L5,0" stroke="#eeca3b" stroke-width="1.5" opacity="1"/></g><g class="mark-text role-legend-label" pointer-events="none"><text text-anchor="start" transform="translate(16,9)" font-family="Liberation Mono" font-size="10px" fill="#000" opacity="1">allure-rs-2-2024</text></g></g><path class="foreground" aria-hidden="true" d="" pointer-events="none" display="none"/></g></g></g><path class="foreground" aria-hidden="true" d="" pointer-events="none" display="none"/></g></g><g class="mark-text role-legend-title" pointer-events="none"><text text-anchor="start" transform="translate(0,9)" font-family="Liberation Mono" font-size="11px" font-weight="bold" fill="#000" opacity="1">identifier</text></g></g><path class="foreground" aria-hidden="true" d="" pointer-events="none" display="none"/></g></g></g><path class="foreground" aria-hidden="true" d="" display="none"/></g></g></g></svg>