<svg xmlns="http://www.w3.org/2000/svg" xmlns:xlink="http://www.w3.org/1999/xlink" version="1.1" class="marks" width="548" height="244" viewBox="0 0 548 244"><rect width="548" height="244" fill="white"/><g fill="none" stroke-miterlimit="10" transform="translate(67,7)"><g class="mark-group role-frame root" role="graphics-object" aria-roledescription="group mark container"><g transform="translate(0,0)"><path class="background" aria-hidden="true" d="M0.5,0.5h200v200h-200Z" stroke="#ddd"/><g><g class="mark-group role-axis" aria-hidden="true"><g transform="translate(0.5,200.5)"><path class="background" aria-hidden="true" d="M0,0h0v0h0Z" pointer-events="none"/><g><g class="mark-rule role-axis-grid" pointer-events="none"><line transform="translate(7,-200)" x2="0" y2="200" stroke="#ddd" stroke-width="1" opacity="1"/><line transform="translate(29,-200)" x2="0" y2="200" stroke="#ddd" stroke-width="1" opacity="1"/><line transform="translate(52,-200)" x2="0" y2="200" stroke="#ddd" stroke-width="1" opacity="1"/><line transform="translate(74,-200)" x2="0" y2="200" stroke="#ddd" stroke-width="1" opacity="1"/><line transform="translate(96,-200)" x2="0" y2="200" stroke="#ddd" stroke-width="1" opacity="1"/><line transform="translate(118,-200)" x2="0" y2="200" stroke="#ddd" stroke-width="1" opacity="1"/><line transform="translate(140,-200)" x2="0" y2="200" stroke="#ddd" stroke-width="1" opacity="1"/><line transform="translate(163,-200)" x2="0" y2="200" stroke="#ddd" stroke-width="1" opacity="1"/><line transform="translate(185,-200)" x2="0" y2="200" stroke="#ddd" stroke-width="1" opacity="1"/><line transform="translate(196,-200)" x2="0" y2="200" stroke="#ddd" stroke-width="1" opacity="1"/></g></g><path class="foreground" aria-hidden="true" d="" pointer-events="none" display="none"/></g></g><g class="mark-group role-axis" aria-hidden="true"><g transform="translate(0.5,0.5)"><path class="background" aria-hidden="true" d="M0,0h0v0h0Z" pointer-events="none"/><g><g class="mark-rule role-axis-grid" pointer-events="none"><line transform="translate(0,200)" x2="200" y2="0" stroke="#ddd" stroke-width="1" opacity="1"/><line transform="translate(0,144)" x2="200" y2="0" stroke="#ddd" stroke-width="1" opacity="1"/><line transform="translate(0,89)" x2="200" y2="0" stroke="#ddd" stroke-width="1" opacity="1"/><line transform="translate(0,33)" x2="200" y2="0" stroke="#ddd" stroke-width="1" opacity="1"/></g></g><path class="foreground" aria-hidden="true" d="" pointer-events="none" display="none"/></g></g><g class="mark-group role-axis" role="graphics-symbol" aria-roledescription="axis" aria-label="X-axis titled 'Time' for a time scale with values from Thursday, 14 August 2025, 8:34:48 AM to Monday, 01 September 2025, 8:53:41 AM"><g transform="translate(0.5,200.5)"><path class="background" aria-hidden="true" d="M0,0h0v0h0Z" pointer-events="none"/><g><g class="mark-rule role-axis-tick" pointer-events="none"><line transform="translate(7,0)" x2="0" y2="5" stroke="#888" stroke-width="1" opacity="1"/><line transform="translate(29,0)" x2="0" y2="5" stroke="#888" stroke-width="1" opacity="1"/><line transform="translate(52,0)" x2="0" y2="5" stroke="#888" stroke-width="1" opacity="1"/><line transform="translate(74,0)" x2="0" y2="5" stroke="#888" stroke-width="1" opacity="1"/><line transform="translate(96,0)" x2="0" y2="5" stroke="#888" stroke-width="1" opacity="1"/><line transform="translate(118,0)" x2="0" y2="5" stroke="#888" stroke-width="1" opacity="1"/><line transform="translate(140,0)" x2="0" y2="5" stroke="#888" stroke-width="1" opacity="1"/><line transform="translate(163,0)" x2="0" y2="5" stroke="#888" stroke-width="1" opacity="1"/><line transform="translate(185,0)" x2="0" y2="5" stroke="#888" stroke-width="1" opacity="1"/><line transform="translate(196,0)" x2="0" y2="5" stroke="#888" stroke-width="1" opacity="1"/></g><g class="mark-text role-axis-label" pointer-events="none"><text text-anchor="middle" transform="translate(7.133596929441819,15)" font-family="Liberation Mono" font-size="10px" fill="#000" opacity="1">Fri 15</text><text text-anchor="middle" transform="translate(29.33964814316521,15)" font-family="Liberation Mono" font-size="10px" fill="#000" opacity="0">Aug 17</text><text text-anchor="middle" transform="translate(51.5456993568886,15)" font-family="Liberation Mono" font-size="10px" fill="#000" opacity="0">Tue 19</text><text text-anchor="middle" transform="translate(73.75175057061199,15)" font-family="Liberation Mono" font-size="10px" fill="#000" opacity="0">Thu 21</text><text text-anchor="middle" transform="translate(95.95780178433537,15)" font-family="Liberation Mono" font-size="10px" fill="#000" opacity="1">Sat 23</text><text text-anchor="middle" transform="translate(118.16385299805876,15)" font-family="Liberation Mono" font-size="10px" fill="#000" opacity="0">Mon 25</text><text text-anchor="middle" transform="translate(140.36990421178214,15)" font-family="Liberation Mono" font-size="10px" fill="#000" opacity="0">Wed 27</text><text text-anchor="middle" transform="translate(162.57595542550553,15)" font-family="Liberation Mono" font-size="10px" fill="#000" opacity="0">Fri 29</text><text text-anchor="middle" transform="translate(184.7820066392289,15)" font-family="Liberation Mono" font-size="10px" fill="#000" opacity="1">Aug 31</text><text text-anchor="middle" transform="translate(195.88503224609062,15)" font-family="Liberation Mono" font-size="10px" fill="#000" opacity="0">September</text></g><g class="mark-rule role-axis-domain" pointer-events="none"><line transform="translate(0,0)" x2="200" y2="0" stroke="#888" stroke-width="1" opacity="1"/></g><g class="mark-text role-axis-title" pointer-events="none"><text text-anchor="middle" transform="translate(100,30)" font-family="Liberation Mono" font-size="11px" font-weight="bold" fill="#000" opacity="1">Time</text></g></g><path class="foreground" aria-hidden="true" d="" pointer-events="none" display="none"/></g></g><g class="mark-group role-axis" role="graphics-symbol" aria-roledescription="axis" aria-label="Y-axis titled 'Price' for a linear scale with values from 0 to 1,800"><g transform="translate(0.5,0.5)"><path class="background" aria-hidden="true" d="M0,0h0v0h0Z" pointer-events="none"/><g><g class="mark-rule role-axis-tick" pointer-events="none"><line transform="translate(0,200)" x2="-5" y2="0" stroke="#888" stroke-width="1" opacity="1"/><line transform="translate(0,144)" x2="-5" y2="0" stroke="#888" stroke-width="1" opacity="1"/><line transform="translate(0,89)" x2="-5" y2="0" stroke="#888" stroke-width="1" opacity="1"/><line transform="translate(0,33)" x2="-5" y2="0" stroke="#888" stroke-width="1" opacity="1"/></g><g class="mark-text role-axis-label" pointer-events="none"><text text-anchor="end" transform="translate(-7,203)" font-family="Liberation Mono" font-size="10px" fill="#000" opacity="1">0</text><text text-anchor="end" transform="translate(-7,147.44444444444443)" font-family="Liberation Mono" font-size="10px" fill="#000" opacity="1">500</text><text text-anchor="end" transform="translate(-7,91.88888888888889)" font-family="Liberation Mono" font-size="10px" fill="#000" opacity="1">1,000</text><text text-anchor="end" transform="translate(-7,36.33333333333333)" font-family="Liberation Mono" font-size="10px" fill="#000" opacity="1">1,500</text></g><g class="mark-rule role-axis-domain" pointer-events="none"><line transform="translate(0,200)" x2="0" y2="-200" stroke="#888" stroke-width="1" opacity="1"/></g><g class="mark-text role-axis-title" pointer-events="none"><text text-anchor="middle" transform="translate(-51,100) rotate(-90) translate(0,-2)" font-family="Liberation Mono" font-size="11px" font-weight="bold" fill="#000" opacity="1">Price</text></g></g><path class="foreground" aria-hidden="true" d="" pointer-events="none" display="none"/></g></g><g class="mark-group role-scope pathgroup" role="graphics-object" aria-roledescription="group mark container"><g transform="translate(0,0)"><path class="background" aria-hidden="true" d="M0,0h200v200h-200Z"/><g><g class="mark-line role-mark marks" role="graphics-object" aria-roledescription="line mark container"><path aria-label="Time: Aug 14, 2025; Price: 899; identifier: escape-city-disc-1-2024" role="graphics-symbol" aria-roledescription="line mark" d="M0,100.111L0.092,100.111L0.165,100.111L2.212,100.111L3.839,100.111L5.664,100.111L9.409,100.111L11.248,100.111L13.278,100.111L14.944,100.111L16.76,100.111L20.476,100.111L22.337,100.111L24.308,100.111L26.025,100.111L27.846,100.111L31.622,100.111L33.436,100.111L35.416,100.111L37.136,100.111L38.963,100.111L42.756,100.111L44.58,100.111L46.625,100.111L47.343,100.111L48.275,100.111L50.056,100.111L53.775,100.111L55.654,100.111L57.626,100.111L59.349,100.111L61.155,100.111L64.882,100.111L66.743,100.111L68.796,100.111L69.626,100.111L70.448,100.111L72.27,100.111L75.978,100.111L77.855,100.111L79.836,100.111L81.558,100.111L83.368,100.111L87.084,100.111L88.955,100.111L90.934,100.111L92.65,100.111L94.465,100.111L98.179,100.111L100.04,100.111L102.003,100.111L103.724,100.111L105.556,100.111L109.295,100.111L111.136,100.111L113.112,100.111L114.84,100.111L116.663,100.111L120.414,100.111L122.288,100.111L124.313,100.111L125.971,100.111L127.779,100.111L131.499,100.111L133.384,100.111L137.064,100.111L138.87,100.111L142.588,100.111L144.464,100.111L145.192,100.111L146.442,100.111L147.68,100.111L148.165,100.111L149.981,100.111L153.689,100.111L155.572,100.111L157.55,100.111L159.266,100.111L161.08,100.111L164.793,100.111L166.667,100.111L168.639,100.111L170.365,100.111L172.177,100.111L175.884,100.111L177.744,100.111L179.708,100.111L181.441,100.111L183.186,100.111L183.273,100.111L186.991,100.111L188.177,100.111L188.842,100.111L190.817,100.111L192.55,100.111L194.38,100.111L198.13,100.111L199.996,100.111" stroke="#72b7b2" stroke-width="2"/></g></g><path class="foreground" aria-hidden="true" d="" display="none"/></g><g transform="translate(0,0)"><path class="background" aria-hidden="true" d="M0,0h200v200h-200Z"/><g><g class="mark-line role-mark marks" role="graphics-object" aria-roledescription="line mark container"><path aria-label="Time: Aug 14, 2025; Price: 999; identifier: roam-2" role="graphics-symbol" aria-roledescription="line mark" d="M0,89L0.092,89L0.165,89L2.212,89L3.839,89L5.664,89L9.409,89L11.248,89L13.279,89L14.944,89L16.76,89L20.477,89L22.337,89L24.308,89L26.026,89L27.864,89L31.622,89L33.436,89L35.416,89L37.137,89L38.964,89L42.757,89L44.58,89L46.625,89L47.343,89L48.275,89L50.056,89L53.776,89L55.655,89L57.627,89L59.349,89L61.155,89L64.882,89L66.743,89L68.796,89L69.626,89L70.448,89L72.271,89L75.979,89L77.855,89L79.836,89L81.559,89L83.368,89L87.085,89L88.955,89L90.935,89L92.65,89L94.465,89L98.18,89L100.041,89L102.003,89L103.724,89L105.557,89L109.296,89L111.136,89L113.112,89L114.841,89L116.664,89L120.415,89L122.288,89L124.314,89L125.972,89L127.779,89L131.499,89L133.384,89L137.064,89L138.871,89L142.589,89L144.465,89L145.193,89L146.443,89L147.681,89L148.166,89L149.982,89L153.69,89L155.572,89L157.55,89L159.267,89L161.081,89L164.793,89L166.668,89L168.64,89L170.365,89L172.177,89L175.884,89L177.745,89L179.709,89L181.441,89L183.187,89L183.274,89L186.992,89L188.178,89L188.843,89L190.817,89L192.55,89L194.38,89L198.13,89L199.997,89" stroke="#ff9da6" stroke-width="2"/></g></g><path class="foreground" aria-hidden="true" d="" display="none"/></g><g transform="translate(0,0)"><path class="background" aria-hidden="true" d="M0,0h200v200h-200Z"/><g><g class="mark-line role-mark marks" role="graphics-object" aria-roledescription="line mark container"><path aria-label="Time: Aug 14, 2025; Price: 999; identifier: fastroad-sl-3-2022" role="graphics-symbol" aria-roledescription="line mark" d="M0,89L0.093,89L0.165,89L2.213,89L3.84,89L5.665,89L9.41,89L11.248,89L13.279,89L14.944,89L16.761,89L20.477,89L22.337,89L24.308,89L26.026,89L27.864,89L31.622,89L33.436,89L35.417,89L37.137,89L38.964,89L42.757,89L44.58,89L46.626,89L47.343,89L48.276,89L50.056,89L53.776,89L55.655,89L57.627,89L59.35,89L61.155,89L64.883,89L66.744,89L68.796,89L69.627,89L70.449,89L72.271,89L75.979,89L77.855,89L79.836,89L81.559,89L83.368,89L87.085,89L88.955,89L90.935,89L92.651,89L94.465,89L98.18,89L100.041,89L102.003,89L103.724,89L105.557,89L109.296,89L111.136,89L113.112,89L114.841,89L116.664,89L120.415,89L122.289,89L124.314,89L125.972,89L127.78,89L131.5,89L133.385,89L137.064,89L138.871,89L142.589,89L144.465,89L145.194,89L146.443,89L147.681,89L148.166,89L149.982,89L153.69,89L155.573,89L157.55,89L159.267,89L161.081,89L164.794,89L166.668,89L168.64,89L170.365,89L172.178,89L175.884,89L177.745,89L179.709,89L181.441,89L183.187,89L183.274,89L186.992,89L188.178,89L188.843,89L190.817,89L192.55,89L194.381,89L198.13,89L199.997,89" stroke="#9d755d" stroke-width="2"/></g></g><path class="foreground" aria-hidden="true" d="" display="none"/></g><g transform="translate(0,0)"><path class="background" aria-hidden="true" d="M0,0h200v200h-200Z"/><g><g class="mark-line role-mark marks" role="graphics-object" aria-roledescription="line mark container"><path aria-label="Time: Aug 14, 2025; Price: 1199; identifier: fastroad-ar-2" role="graphics-symbol" aria-roledescription="line mark" d="M0.001,66.778L0.093,66.778L0.166,66.778L2.213,66.778L3.84,66.778L5.665,66.778L9.41,66.778L11.249,66.778L13.279,66.778L14.945,66.778L16.761,66.778L20.477,66.778L22.338,66.778L24.309,66.778L26.026,66.778L27.873,66.778L31.623,66.778L33.437,66.778L35.417,66.778L37.137,66.778L38.964,66.778L42.757,66.778L44.581,66.778L46.626,66.778L47.344,66.778L48.276,66.778L50.056,66.778L53.776,66.778L55.655,66.778L57.627,66.778L59.35,66.778L61.155,66.778L64.883,66.778L66.744,66.778L68.797,66.778L69.627,66.778L70.449,66.778L72.272,66.778L75.979,66.778L77.856,66.778L79.837,66.778L81.559,66.778L83.369,66.778L87.085,66.778L88.956,66.778L90.935,66.778L92.651,66.778L94.466,66.778L98.18,66.778L100.041,66.778L102.004,66.778L103.725,66.778L105.557,66.778L109.297,66.778L111.137,66.778L113.113,66.778L114.841,66.778L116.664,66.778L120.415,66.778L122.289,66.778L124.315,66.778L125.972,66.778L127.78,66.778L131.501,66.778L133.385,66.778L137.065,66.778L138.871,66.778L142.589,66.778L144.465,66.778L145.194,66.778L146.443,66.778L147.681,66.778L148.166,66.778L149.982,66.778L153.69,66.778L155.573,66.778L157.551,66.778L159.267,66.778L161.081,66.778L164.794,66.778L166.668,66.778L168.641,66.778L170.366,66.778L172.178,66.778L175.884,66.778L177.745,66.778L179.709,66.778L181.442,66.778L183.187,66.778L183.274,66.778L186.992,66.778L188.178,66.778L188.843,66.778L190.818,66.778L192.551,66.778L194.381,66.778L198.131,66.778L199.997,66.778" stroke="#54a24b" stroke-width="2"/></g></g><path class="foreground" aria-hidden="true" d="" display="none"/></g><g transform="translate(0,0)"><path class="background" aria-hidden="true" d="M0,0h200v200h-200Z"/><g><g class="mark-line role-mark marks" role="graphics-object" aria-roledescription="line mark container"><path aria-label="Time: Aug 18, 2025; Price: 899; identifier: sdrbike-escape-1-city-disc" role="graphics-symbol" aria-roledescription="line mark" d="M47.344,100.111L48.276,100.111L50.057,100.111L53.776,100.111L55.655,100.111L57.628,100.111L59.35,100.111L61.156,100.111L64.883,100.111L66.744,100.111L68.797,100.111L69.627,100.111L70.45,100.111L72.272,100.111L75.979,100.111L77.856,100.111L79.837,100.111L81.559,100.111L83.369,100.111L87.086,100.111L88.956,100.111L90.936,100.111L92.651,100.111L94.466,100.111L98.18,100.111L100.042,100.111L102.004,100.111L103.725,100.111L105.558,100.111L109.297,100.111L111.137,100.111L113.114,100.111L114.842,100.111L116.664,100.111L120.416,100.111L122.289,100.111L124.315,100.111L125.973,100.111L127.78,100.111L131.501,100.111L133.385,100.111L137.065,100.111L138.872,100.111L142.59,100.111L144.466,100.111L145.195,100.111L146.443,100.111L147.681,100.111L148.166,100.111L149.983,100.111L153.691,100.111L155.573,100.111L157.551,100.111L159.267,100.111L161.081,100.111L164.794,100.111L166.669,100.111L168.641,100.111L170.366,100.111L172.178,100.111L175.885,100.111L177.745,100.111L179.71,100.111L181.442,100.111L183.188,100.111L183.274,100.111L186.992,100.111L188.178,100.111L188.844,100.111L190.818,100.111L192.551,100.111L194.381,100.111L198.131,100.111L199.997,100.111" stroke="#54a24b" stroke-width="2"/></g></g><path class="foreground" aria-hidden="true" d="" display="none"/></g><g transform="translate(0,0)"><path class="background" aria-hidden="true" d="M0,0h200v200h-200Z"/><g><g class="mark-line role-mark marks" role="graphics-object" aria-roledescription="line mark container"><path aria-label="Time: Aug 20, 2025; Price: 899; identifier: roam-disc-2-2024" role="graphics-symbol" aria-roledescription="line mark" d="M69.626,100.111L70.448,100.111L72.271,100.111L75.978,100.111L77.855,100.111L79.836,100.111L81.559,100.111L83.368,100.111L87.084,100.111L88.955,100.111L90.934,100.111L92.65,100.111L94.465,100.111L98.179,100.111L100.04,100.111L102.003,100.111L103.724,100.111L105.557,100.111L109.296,100.111L111.136,100.111L113.112,100.111L114.841,100.111L116.663,100.111L120.414,100.111L122.288,100.111L124.314,100.111L125.972,100.111L127.779,100.111L131.499,100.111L133.384,100.111L137.064,100.111L138.871,100.111L142.588,100.111L144.465,100.111L145.193,100.111L146.442,100.111L147.68,100.111L148.165,100.111L149.982,100.111L153.689,100.111L155.572,100.111L157.55,100.111L159.266,100.111L161.08,100.111L164.793,100.111L166.668,100.111L168.64,100.111L170.365,100.111L172.177,100.111L175.884,100.111L177.744,100.111L179.708,100.111L181.441,100.111L183.186,100.111L183.273,100.111L186.991,100.111L188.177,100.111L188.842,100.111L190.817,100.111L192.55,100.111L194.38,100.111L198.13,100.111L199.996,100.111" stroke="#eeca3b" stroke-width="2"/></g></g><path class="foreground" aria-hidden="true" d="" display="none"/></g><g transform="translate(0,0)"><path class="background" aria-hidden="true" d="M0,0h200v200h-200Z"/><g><g class="mark-line role-mark marks" role="graphics-object" aria-roledescription="line mark container"><path aria-label="Time: Aug 20, 2025; Price: 1199; identifier: thrive-2" role="graphics-symbol" aria-roledescription="line mark" d="M69.628,66.778L70.45,66.778L72.272,66.778L75.98,66.778L77.856,66.778L79.837,66.778L81.56,66.778L83.369,66.778L87.086,66.778L88.956,66.778L90.936,66.778L92.651,66.778L94.466,66.778L98.181,66.778L100.042,66.778L102.004,66.778L103.725,66.778L105.558,66.778L109.297,66.778L111.138,66.778L113.114,66.778L114.842,66.778L116.664,66.778L120.416,66.778L122.289,66.778L124.315,66.778L125.973,66.778L127.78,66.778L131.502,66.778L133.385,66.778L137.065,66.778L138.872,66.778L142.59,66.778L144.466,66.778L145.196,66.778L146.444,66.778L147.682,66.778L148.167,66.778L149.983,66.778L153.691,66.778L155.574,66.778L157.551,66.778L159.268,66.778L161.082,66.778L164.795,66.778L166.669,66.778L168.641,66.778L170.366,66.778L172.179,66.778L175.885,66.778L177.746,66.778L179.71,66.778L181.442,66.778L183.188,66.778L183.274,66.778L186.993,66.778L188.179,66.778L188.844,66.778L190.818,66.778L192.551,66.778L194.381,66.778L198.131,66.778L199.998,66.778" stroke="#eeca3b" stroke-width="2"/></g></g><path class="foreground" aria-hidden="true" d="" display="none"/></g><g transform="translate(0,0)"><path class="background" aria-hidden="true" d="M0,0h200v200h-200Z"/><g><g class="mark-line role-mark marks" role="graphics-object" aria-roledescription="line mark container"><path aria-label="Time: Aug 20, 2025; Price: 999; identifier: rove-2" role="graphics-symbol" aria-roledescription="line mark" d="M69.628,89L70.45,89L72.273,89L75.98,89L77.857,89L79.838,89L81.56,89L83.369,89L87.086,89L88.956,89L90.936,89L92.652,89L94.466,89L98.181,89L100.042,89L102.005,89L103.725,89L105.558,89L109.298,89L111.138,89L113.114,89L114.842,89L116.665,89L120.416,89L122.29,89L124.315,89L125.973,89L127.781,89L131.502,89L133.386,89L137.066,89L138.872,89L142.59,89L144.466,89L145.196,89L146.444,89L147.682,89L148.167,89L149.983,89L153.691,89L155.574,89L157.552,89L159.268,89L161.082,89L164.795,89L166.669,89L168.642,89L170.366,89L172.179,89L183.188,111.222L183.275,111.222L186.993,111.222L188.179,111.222L188.844,111.222L190.819,111.222L192.551,111.222L194.382,111.222L198.131,111.222L199.998,111.222" stroke="#bab0ac" stroke-width="2"/></g></g><path class="foreground" aria-hidden="true" d="" display="none"/></g><g transform="translate(0,0)"><path class="background" aria-hidden="true" d="M0,0h200v200h-200Z"/><g><g class="mark-line role-mark marks" role="graphics-object" aria-roledescription="line mark container"><path aria-label="Time: Aug 27, 2025; Price: 1199; identifier: allure-rs-1-2023" role="graphics-symbol" aria-roledescription="line mark" d="M145.197,66.778L146.444,66.778L147.682,66.778L148.167,66.778L149.984,66.778L153.691,66.778L155.574,66.778L157.552,66.778L159.268,66.778L161.082,66.778L164.795,66.778L166.67,66.778L168.642,66.778L170.366,66.778L172.179,66.778L175.885,66.778L177.746,66.778L179.711,66.778L181.443,66.778L183.189,66.778L183.275,66.778L186.993,66.778L188.179,66.778L188.845,66.778L190.819,66.778L192.552,66.778L194.382,66.778L198.132,66.778L199.998,66.778" stroke="#b279a2" stroke-width="2"/></g></g><path class="foreground" aria-hidden="true" d="" display="none"/></g><g transform="translate(0,0)"><path class="background" aria-hidden="true" d="M0,0h200v200h-200Z"/><g><g class="mark-line role-mark marks" role="graphics-object" aria-roledescription="line mark container"><path aria-label="Time: Aug 27, 2025; Price: 999; identifier: allure-rs-2-2022" role="graphics-symbol" aria-roledescription="line mark" d="M145.198,89L146.444,89L147.682,89L148.167,89L149.984,89L153.692,89L155.575,89L157.552,89L159.268,89L161.082,89L164.795,89L166.67,89L168.642,89L170.367,89L172.179,89L183.189,111.222L183.275,111.222L186.993,111.222L188.179,111.222L188.845,111.222L190.819,111.222L192.552,111.222L194.382,111.222L198.132,111.222L199.998,111.222" stroke="#4c78a8" stroke-width="2"/></g></g><path class="foreground" aria-hidden="true" d="" display="none"/></g><g transform="translate(0,0)"><path class="background" aria-hidden="true" d="M0,0h200v200h-200Z"/><g><g class="mark-line role-mark marks" role="graphics-object" aria-roledescription="line mark container"><path aria-label="Time: Aug 27, 2025; Price: 949; identifier: allure-rs-2-2023" role="graphics-symbol" aria-roledescription="line mark" d="M145.198,94.556L146.444,94.556L147.682,94.556L148.167,94.556L149.984,94.556L153.692,94.556L155.575,94.556L157.552,94.556L159.269,94.556L161.082,94.556L164.796,94.556L166.67,94.556L168.642,94.556L170.367,94.556L172.18,94.556L175.886,94.556L177.747,94.556L179.711,94.556L181.443,94.556L183.189,94.556L183.275,94.556L186.994,94.556L188.179,94.556L188.845,94.556L190.82,94.556L192.552,94.556L194.382,94.556L198.132,94.556L199.998,94.556" stroke="#e45756" stroke-width="2"/></g></g><path class="foreground" aria-hidden="true" d="" display="none"/></g><g transform="translate(0,0)"><path class="background" aria-hidden="true" d="M0,0h200v200h-200Z"/><g><g class="mark-line role-mark marks" role="graphics-object" aria-roledescription="line mark container"><path aria-label="Time: Aug 27, 2025; Price: 999; identifier: allure-rs-2-2024" role="graphics-symbol" aria-roledescription="line mark" d="M145.199,89L146.445,89L147.682,89L148.168,89L149.984,89L153.692,89L155.575,89L157.553,89L159.269,89L161.083,89L164.796,89L166.67,89L168.643,89L170.367,89L172.18,89L183.19,111.222L183.275,111.222L186.994,111.222L188.18,111.222L188.845,111.222L190.82,111.222L192.552,111.222L194.382,111.222L198.132,111.222L199.999,111.222" stroke="#f58518" stroke-width="2"/></g></g><path class="foreground" aria-hidden="true" d="" display="none"/></g><g transform="translate(0,0)"><path class="background" aria-hidden="true" d="M0,0h200v200h-200Z"/><g><g class="mark-line role-mark marks" role="graphics-object" aria-roledescription="line mark container"><path aria-label="Time: Aug 27, 2025; Price: 1799; identifier: devote-1-2024" role="graphics-symbol" aria-roledescription="line mark" d="M147.683,0.111L148.168,0.111L149.985,0.111L153.693,0.111L155.575,0.111L157.553,0.111L159.269,0.111L161.083,0.111L164.796,0.111L166.671,0.111L168.643,0.111L170.367,0.111L172.18,0.111L183.19,44.556L183.276,44.556L186.994,44.556L188.18,44.556L188.846,44.556L190.82,44.556L192.552,44.556L194.383,44.556L198.133,44.556L199.999,44.556" stroke="#4c78a8" stroke-width="2"/></g></g><path class="foreground" aria-hidden="true" d="" display="none"/></g><g transform="translate(0,0)"><path class="background" aria-hidden="true" d="M0,0h200v200h-200Z"/><g><g class="mark-line role-mark marks" role="graphics-object" aria-roledescription="line mark container"><path aria-label="Time: Aug 27, 2025; Price: 1699; identifier: devote-1-2022" role="graphics-symbol" aria-roledescription="line mark" d="M147.683,11.222L148.168,11.222L149.985,11.222L153.693,11.222L155.576,11.222L157.553,11.222L159.269,11.222L161.083,11.222L164.796,11.222L166.671,11.222L168.643,11.222L170.367,11.222L172.18,11.222L175.887,11.222L177.747,11.222L179.712,11.222L181.444,11.222L183.19,11.222L183.276,11.222L186.994,11.222L188.18,11.222L188.846,11.222L190.82,11.222L192.553,11.222L194.383,11.222L198.133,11.222L199.999,11.222" stroke="#f58518" stroke-width="2"/></g></g><path class="foreground" aria-hidden="true" d="" display="none"/></g><g transform="translate(0,0)"><path class="background" aria-hidden="true" d="M0,0h200v200h-200Z"/><g><g class="mark-line role-mark marks" role="graphics-object" aria-roledescription="line mark container"><path aria-label="Time: Aug 31, 2025; Price: 1599; identifier: silex-400-oak-bork-2026" role="graphics-symbol" aria-roledescription="line mark" d="M188.18,22.333L188.846,22.333L190.821,22.333L192.553,22.333L194.383,22.333L198.133,22.333L200,22.333" stroke="#e45756" stroke-width="2"/></g></g><path class="foreground" aria-hidden="true" d="" display="none"/></g><g transform="translate(0,0)"><path class="background" aria-hidden="true" d="M0,0h200v200h-200Z"/><g><g class="mark-line role-mark marks" role="graphics-object" aria-roledescription="line mark container"><path aria-label="Time: Aug 31, 2025; Price: 1599; identifier: silex-400-warm-slate-grey-2026" role="graphics-symbol" aria-roledescription="line mark" d="M188.181,22.333L188.847,22.333L190.821,22.333L192.553,22.333L194.384,22.333L198.134,22.333L200,22.333" stroke="#72b7b2" stroke-width="2"/></g></g><path class="foreground" aria-hidden="true" d="" display="none"/></g></g><g class="mark-group role-legend" role="graphics-symbol" aria-roledescription="legend" aria-label="Symbol legend titled 'identifier' for stroke color with 16 values: devote-1-2024, devote-1-2022, silex-400-oak-bork-2026, silex-400-warm-slate-grey-2026, fastroad-ar-2, ending with roam-disc-2-2024"><g transform="translate(220,0)"><path class="background" aria-hidden="true" d="M0,0h256v222h-256Z" pointer-events="none"/><g><g class="mark-group role-legend-entry"><g transform="translate(0,16)"><path class="background" aria-hidden="true" d="M0,0h0v0h0Z" pointer-events="none"/><g><g class="mark-group role-scope" role="graphics-object" aria-roledescription="group mark container"><g transform="translate(0,0)"><path class="background" aria-hidden="true" d="M0,0h256v11h-256Z" pointer-events="none" opacity="1"/><g><g class="mark-symbol role-legend-symbol" pointer-events="none"><path transform="translate(6,6)" d="M-5,0L5,0" stroke="#4c78a8" stroke-width="1.5" opacity="1"/></g><g class="mark-text role-legend-label" pointer-events="none"><text text-anchor="start" transform="translate(16,9)" font-family="Liberation Mono" font-size="10px" fill="#000" opacity="1">devote-1-2024</text></g></g><path class="foreground" aria-hidden="true" d="" pointer-events="none" display="none"/></g><g transform="translate(0,13)"><path class="background" aria-hidden="true" d="M0,0h256v11h-256Z" pointer-events="none" opacity="1"/><g><g class="mark-symbol role-legend-symbol" pointer-events="none"><path transform="translate(6,6)" d="M-5,0L5,0" stroke="#f58518" stroke-width="1.5" opacity="1"/></g><g class="mark-text role-legend-label" pointer-events="none"><text text-anchor="start" transform="translate(16,9)" font-family="Liberation Mono" font-size="10px" fill="#000" opacity="1">devote-1-2022</text></g></g><path class="foreground" aria-hidden="true" d="" pointer-events="none" display="none"/></g><g transform="translate(0,26)"><path class="background" aria-hidden="true" d="M0,0h256v11h-256Z" pointer-events="none" opacity="1"/><g><g class="mark-symbol role-legend-symbol" pointer-events="none"><path transform="translate(6,6)" d="M-5,0L5,0" stroke="#e45756" stroke-width="1.5" opacity="1"/></g><g class="mark-text role-legend-label" pointer-events="none"><text text-anchor="start" transform="translate(16,9)" font-family="Liberation Mono" font-size="10px" fill="#000" opacity="1">silex-400-oak-bork-2026</text></g></g><path class="foreground" aria-hidden="true" d="" pointer-events="none" display="none"/></g><g transform="translate(0,39)"><path class="background" aria-hidden="true" d="M0,0h256v11h-256Z" pointer-events="none" opacity="1"/><g><g class="mark-symbol role-legend-symbol" pointer-events="none"><path transform="translate(6,6)" d="M-5,0L5,0" stroke="#72b7b2" stroke-width="1.5" opacity="1"/></g><g class="mark-text role-legend-label" pointer-events="none"><text text-anchor="start" transform="translate(16,9)" font-family="Liberation Mono" font-size="10px" fill="#000" opacity="1">silex-400-warm-slate-grey-2026</text></g></g><path class="foreground" aria-hidden="true" d="" pointer-events="none" display="none"/></g><g transform="translate(0,52)"><path class="background" aria-hidden="true" d="M0,0h256v11h-256Z" pointer-events="none" opacity="1"/><g><g class="mark-symbol role-legend-symbol" pointer-events="none"><path transform="translate(6,6)" d="M-5,0L5,0" stroke="#54a24b" stroke-width="1.5" opacity="1"/></g><g class="mark-text role-legend-label" pointer-events="none"><text text-anchor="start" transform="translate(16,9)" font-family="Liberation Mono" font-size="10px" fill="#000" opacity="1">fastroad-ar-2</text></g></g><path class="foreground" aria-hidden="true" d="" pointer-events="none" display="none"/></g><g transform="translate(0,65)"><path class="background" aria-hidden="true" d="M0,0h256v11h-256Z" pointer-events="none" opacity="1"/><g><g class="mark-symbol role-legend-symbol" pointer-events="none"><path transform="translate(6,6)" d="M-5,0L5,0" stroke="#eeca3b" stroke-width="1.5" opacity="1"/></g><g class="mark-text role-legend-label" pointer-events="none"><text text-anchor="start" transform="translate(16,9)" font-family="Liberation Mono" font-size="10px" fill="#000" opacity="1">thrive-2</text></g></g><path class="foreground" aria-hidden="true" d="" pointer-events="none" display="none"/></g><g transform="translate(0,78)"><path class="background" aria-hidden="true" d="M0,0h256v11h-256Z" pointer-events="none" opacity="1"/><g><g class="mark-symbol role-legend-symbol" pointer-events="none"><path transform="translate(6,6)" d="M-5,0L5,0" stroke="#b279a2" stroke-width="1.5" opacity="1"/></g><g class="mark-text role-legend-label" pointer-events="none"><text text-anchor="start" transform="translate(16,9)" font-family="Liberation Mono" font-size="10px" fill="#000" opacity="1">allure-rs-1-2023</text></g></g><path class="foreground" aria-hidden="true" d="" pointer-events="none" display="none"/></g><g transform="translate(0,91)"><path class="background" aria-hidden="true" d="M0,0h256v11h-256Z" pointer-events="none" opacity="1"/><g><g class="mark-symbol role-legend-symbol" pointer-events="none"><path transform="translate(6,6)" d="M-5,0L5,0" stroke="#ff9da6" stroke-width="1.5" opacity="1"/></g><g class="mark-text role-legend-label" pointer-events="none"><text text-anchor="start" transform="translate(16,9)" font-family="Liberation Mono" font-size="10px" fill="#000" opacity="1">roam-2</text></g></g><path class="foreground" aria-hidden="true" d="" pointer-events="none" display="none"/></g><g transform="translate(0,104)"><path class="background" aria-hidden="true" d="M0,0h256v11h-256Z" pointer-events="none" opacity="1"/><g><g class="mark-symbol role-legend-symbol" pointer-events="none"><path transform="translate(6,6)" d="M-5,0L5,0" stroke="#9d755d" stroke-width="1.5" opacity="1"/></g><g class="mark-text role-legend-label" pointer-events="none"><text text-anchor="start" transform="translate(16,9)" font-family="Liberation Mono" font-size="10px" fill="#000" opacity="1">fastroad-sl-3-2022</text></g></g><path class="foreground" aria-hidden="true" d="" pointer-events="none" display="none"/></g><g transform="translate(0,117)"><path class="background" aria-hidden="true" d="M0,0h256v11h-256Z" pointer-events="none" opacity="1"/><g><g class="mark-symbol role-legend-symbol" pointer-events="none"><path transform="translate(6,6)" d="M-5,0L5,0" stroke="#bab0ac" stroke-width="1.5" opacity="1"/></g><g class="mark-text role-legend-label" pointer-events="none"><text text-anchor="start" transform="translate(16,9)" font-family="Liberation Mono" font-size="10px" fill="#000" opacity="1">rove-2</text></g></g><path class="foreground" aria-hidden="true" d="" pointer-events="none" display="none"/></g><g transform="translate(0,130)"><path class="background" aria-hidden="true" d="M0,0h256v11h-256Z" pointer-events="none" opacity="1"/><g><g class="mark-symbol role-legend-symbol" pointer-events="none"><path transform="translate(6,6)" d="M-5,0L5,0" stroke="#4c78a8" stroke-width="1.5" opacity="1"/></g><g class="mark-text role-legend-label" pointer-events="none"><text text-anchor="start" transform="translate(16,9)" font-family="Liberation Mono" font-size="10px" fill="#000" opacity="1">allure-rs-2-2022</text></g></g><path class="foreground" aria-hidden="true" d="" pointer-events="none" display="none"/></g><g transform="translate(0,143)"><path class="background" aria-hidden="true" d="M0,0h256v11h-256Z" pointer-events="none" opacity="1"/><g><g class="mark-symbol role-legend-symbol" pointer-events="none"><path transform="translate(6,6)" d="M-5,0L5,0" stroke="#f58518" stroke-width="1.5" opacity="1"/></g><g class="mark-text role-legend-label" pointer-events="none"><text text-anchor="start" transform="translate(16,9)" font-family="Liberation Mono" font-size="10px" fill="#000" opacity="1">allure-rs-2-2024</text></g></g><path class="foreground" aria-hidden="true" d="" pointer-events="none" display="none"/></g><g transform="translate(0,156)"><path class="background" aria-hidden="true" d="M0,0h256v11h-256Z" pointer-events="none" opacity="1"/><g><g class="mark-symbol role-legend-symbol" pointer-events="none"><path transform="translate(6,6)" d="M-5,0L5,0" stroke="#e45756" stroke-width="1.5" opacity="1"/></g><g class="mark-text role-legend-label" pointer-events="none"><text text-anchor="start" transform="translate(16,9)" font-family="Liberation Mono" font-size="10px" fill="#000" opacity="1">allure-rs-2-2023</text></g></g><path class="foreground" aria-hidden="true" d="" pointer-events="none" display="none"/></g><g transform="translate(0,169)"><path class="background" aria-hidden="true" d="M0,0h256v11h-256Z" pointer-events="none" opacity="1"/><g><g class="mark-symbol role-legend-symbol" pointer-events="none"><path transform="translate(6,6)" d="M-5,0L5,0" stroke="#72b7b2" stroke-width="1.5" opacity="1"/></g><g class="mark-text role-legend-label" pointer-events="none"><text text-anchor="start" transform="translate(16,9)" font-family="Liberation Mono" font-size="10px" fill="#000" opacity="1">escape-city-disc-1-2024</text></g></g><path class="foreground" aria-hidden="true" d="" pointer-events="none" display="none"/></g><g transform="translate(0,182)"><path class="background" aria-hidden="true" d="M0,0h256v11h-256Z" pointer-events="none" opacity="1"/><g><g class="mark-symbol role-legend-symbol" pointer-events="none"><path transform="translate(6,6)" d="M-5,0L5,0" stroke="#54a24b" stroke-width="1.5" opacity="1"/></g><g class="mark-text role-legend-label" pointer-events="none"><text text-anchor="start" transform="translate(16,9)" font-family="Liberation Mono" font-size="10px" fill="#000" opacity="1">sdrbike-escape-1-city-disc</text></g></g><path class="foreground" aria-hidden="true" d="" pointer-events="none" display="none"/></g><g transform="translate(0,195)"><path class="background" aria-hidden="true" d="M0,0h256v11h-256Z" pointer-events="none" opacity="1"/><g><g class="mark-symbol role-legend-symbol" pointer-events="none"><path transform="translate(6,6)" d="M-5,0L5,0" stroke="#eeca3b" stroke-width="1.5" opacity="1"/></g><g class="mark-text role-legend-label" pointer-events="none"><text text-anchor="start" transform="translate(16,9)" font-family="Liberation Mono" font-size="10px" fill="#000" opacity="1">roam-disc-2-2024</text></g></g><path class="foreground" aria-hidden="true" d="" pointer-events="none" display="none"/></g></g></g><path class="foreground" aria-hidden="true" d="" pointer-events="none" display="none"/></g></g><g class="mark-text role-legend-title" pointer-events="none"><text text-anchor="start" transform="translate(0,9)" font-family="Liberation Mono" font-size="11px" font-weight="bold" fill="#000" opacity="1">identifier</text></g></g><path class="foreground" aria-hidden="true" d="" pointer-events="none" display="none"/></g></g></g><path class="foreground" aria-hidden="true" d="" display="none"/></g></g></g></svg>