<svg xmlns="http://www.w3.org/2000/svg" xmlns:xlink="http://www.w3.org/1999/xlink" version="1.1" class="marks" width="516" height="247" viewBox="0 0 516 247"><rect width="516" height="247" fill="white"/><g fill="none" stroke-miterlimit="10" transform="translate(67,10)"><g class="mark-group role-frame root" role="graphics-object" aria-roledescription="group mark container"><g transform="translate(0,0)"><path class="background" aria-hidden="true" d="M0.5,0.5h200v200h-200Z" stroke="#ddd"/><g><g class="mark-group role-axis" aria-hidden="true"><g transform="translate(0.5,200.5)"><path class="background" aria-hidden="true" d="M0,0h0v0h0Z" pointer-events="none"/><g><g class="mark-rule role-axis-grid" pointer-events="none"><line transform="translate(10,-200)" x2="0" y2="200" stroke="#ddd" stroke-width="1" opacity="1"/><line transform="translate(42,-200)" x2="0" y2="200" stroke="#ddd" stroke-width="1" opacity="1"/><line transform="translate(74,-200)" x2="0" y2="200" stroke="#ddd" stroke-width="1" opacity="1"/><line transform="translate(106,-200)" x2="0" y2="200" stroke="#ddd" stroke-width="1" opacity="1"/><line transform="translate(138,-200)" x2="0" y2="200" stroke="#ddd" stroke-width="1" opacity="1"/><line transform="translate(170,-200)" x2="0" y2="200" stroke="#ddd" stroke-width="1" opacity="1"/></g></g><path class="foreground" aria-hidden="true" d="" pointer-events="none" display="none"/></g></g><g class="mark-group role-axis" aria-hidden="true"><g transform="translate(0.5,0.5)"><path class="background" aria-hidden="true" d="M0,0h0v0h0Z" pointer-events="none"/><g><g class="mark-rule role-axis-grid" pointer-events="none"><line transform="translate(0,200)" x2="200" y2="0" stroke="#ddd" stroke-width="1" opacity="1"/><line transform="translate(0,167)" x2="200" y2="0" stroke="#ddd" stroke-width="1" opacity="1"/><line transform="translate(0,133)" x2="200" y2="0" stroke="#ddd" stroke-width="1" opacity="1"/><line transform="translate(0,100)" x2="200" y2="0" stroke="#ddd" stroke-width="1" opacity="1"/><line transform="translate(0,67)" x2="200" y2="0" stroke="#ddd" stroke-width="1" opacity="1"/><line transform="translate(0,33)" x2="200" y2="0" stroke="#ddd" stroke-width="1" opacity="1"/><line transform="translate(0,0)" x2="200" y2="0" stroke="#ddd" stroke-width="1" opacity="1"/></g></g><path class="foreground" aria-hidden="true" d="" pointer-events="none" display="none"/></g></g><g class="mark-group role-axis" role="graphics-symbol" aria-roledescription="axis" aria-label="X-axis titled 'Time' for a time scale with values from Thursday, 14 August 2025, 8:34:48 AM to Tuesday, 26 August 2025, 8:45:43 PM"><g transform="translate(0.5,200.5)"><path class="background" aria-hidden="true" d="M0,0h0v0h0Z" pointer-events="none"/><g><g class="mark-rule role-axis-tick" pointer-events="none"><line transform="translate(10,0)" x2="0" y2="5" stroke="#888" stroke-width="1" opacity="1"/><line transform="translate(42,0)" x2="0" y2="5" stroke="#888" stroke-width="1" opacity="1"/><line transform="translate(74,0)" x2="0" y2="5" stroke="#888" stroke-width="1" opacity="1"/><line transform="translate(106,0)" x2="0" y2="5" stroke="#888" stroke-width="1" opacity="1"/><line transform="translate(138,0)" x2="0" y2="5" stroke="#888" stroke-width="1" opacity="1"/><line transform="translate(170,0)" x2="0" y2="5" stroke="#888" stroke-width="1" opacity="1"/></g><g class="mark-text role-axis-label" pointer-events="none"><text text-anchor="middle" transform="translate(10.273627422755867,15)" font-family="Liberation Mono" font-size="10px" fill="#000" opacity="1">Fri 15</text><text text-anchor="middle" transform="translate(42.25422556376701,15)" font-family="Liberation Mono" font-size="10px" fill="#000" opacity="0">Aug 17</text><text text-anchor="middle" transform="translate(74.23482370477814,15)" font-family="Liberation Mono" font-size="10px" fill="#000" opacity="1">Tue 19</text><text text-anchor="middle" transform="translate(106.21542184578927,15)" font-family="Liberation Mono" font-size="10px" fill="#000" opacity="0">Thu 21</text><text text-anchor="middle" transform="translate(138.19601998680042,15)" font-family="Liberation Mono" font-size="10px" fill="#000" opacity="1">Sat 23</text><text text-anchor="middle" transform="translate(170.17661812781157,15)" font-family="Liberation Mono" font-size="10px" fill="#000" opacity="0">Mon 25</text></g><g class="mark-rule role-axis-domain" pointer-events="none"><line transform="translate(0,0)" x2="200" y2="0" stroke="#888" stroke-width="1" opacity="1"/></g><g class="mark-text role-axis-title" pointer-events="none"><text text-anchor="middle" transform="translate(100,30)" font-family="Liberation Mono" font-size="11px" font-weight="bold" fill="#000" opacity="1">Time</text></g></g><path class="foreground" aria-hidden="true" d="" pointer-events="none" display="none"/></g></g><g class="mark-group role-axis" role="graphics-symbol" aria-roledescription="axis" aria-label="Y-axis titled 'Price' for a linear scale with values from 0 to 1,200"><g transform="translate(0.5,0.5)"><path class="background" aria-hidden="true" d="M0,0h0v0h0Z" pointer-events="none"/><g><g class="mark-rule role-axis-tick" pointer-events="none"><line transform="translate(0,200)" x2="-5" y2="0" stroke="#888" stroke-width="1" opacity="1"/><line transform="translate(0,167)" x2="-5" y2="0" stroke="#888" stroke-width="1" opacity="1"/><line transform="translate(0,133)" x2="-5" y2="0" stroke="#888" stroke-width="1" opacity="1"/><line transform="translate(0,100)" x2="-5" y2="0" stroke="#888" stroke-width="1" opacity="1"/><line transform="translate(0,67)" x2="-5" y2="0" stroke="#888" stroke-width="1" opacity="1"/><line transform="translate(0,33)" x2="-5" y2="0" stroke="#888" stroke-width="1" opacity="1"/><line transform="translate(0,0)" x2="-5" y2="0" stroke="#888" stroke-width="1" opacity="1"/></g><g class="mark-text role-axis-label" pointer-events="none"><text text-anchor="end" transform="translate(-7,203)" font-family="Liberation Mono" font-size="10px" fill="#000" opacity="1">0</text><text text-anchor="end" transform="translate(-7,169.66666666666669)" font-family="Liberation Mono" font-size="10px" fill="#000" opacity="1">200</text><text text-anchor="end" transform="translate(-7,136.33333333333334)" font-family="Liberation Mono" font-size="10px" fill="#000" opacity="1">400</text><text text-anchor="end" transform="translate(-7,103)" font-family="Liberation Mono" font-size="10px" fill="#000" opacity="1">600</text><text text-anchor="end" transform="translate(-7,69.66666666666667)" font-family="Liberation Mono" font-size="10px" fill="#000" opacity="1">800</text><text text-anchor="end" transform="translate(-7,36.33333333333333)" font-family="Liberation Mono" font-size="10px" fill="#000" opacity="1">1,000</text><text text-anchor="end" transform="translate(-7,3)" font-family="Liberation Mono" font-size="10px" fill="#000" opacity="1">1,200</text></g><g class="mark-rule role-axis-domain" pointer-events="none"><line transform="translate(0,200)" x2="0" y2="-200" stroke="#888" stroke-width="1" opacity="1"/></g><g class="mark-text role-axis-title" pointer-events="none"><text text-anchor="middle" transform="translate(-51,100) rotate(-90) translate(0,-2)" font-family="Liberation Mono" font-size="11px" font-weight="bold" fill="#000" opacity="1">Price</text></g></g><path class="foreground" aria-hidden="true" d="" pointer-events="none" display="none"/></g></g><g class="mark-group role-scope pathgroup" role="graphics-object" aria-roledescription="group mark container"><g transform="translate(0,0)"><path class="background" aria-hidden="true" d="M0,0h200v200h-200Z"/><g><g class="mark-line role-mark marks" role="graphics-object" aria-roledescription="line mark container"><path aria-label="Time: Aug 14, 2025; Price: 899; identifier: escape-city-disc-1-2024" role="graphics-symbol" aria-roledescription="line mark" d="M0,50.167L0.133,50.167L0.238,50.167L3.186,50.167L5.529,50.167L8.158,50.167L13.551,50.167L16.199,50.167L19.123,50.167L21.522,50.167L24.137,50.167L29.49,50.167L32.169,50.167L35.007,50.167L37.481,50.167L40.103,50.167L45.541,50.167L48.154,50.167L51.005,50.167L53.483,50.167L56.114,50.167L61.577,50.167L64.203,50.167L67.148,50.167L68.182,50.167L69.525,50.167L72.089,50.167L77.446,50.167L80.152,50.167L82.992,50.167L85.473,50.167L88.073,50.167L93.441,50.167L96.122,50.167L99.078,50.167L100.273,50.167L101.457,50.167L104.082,50.167L109.422,50.167L112.124,50.167L114.977,50.167L117.458,50.167L120.064,50.167L125.417,50.167L128.11,50.167L130.961,50.167L133.432,50.167L136.046,50.167L141.395,50.167L144.075,50.167L146.902,50.167L149.38,50.167L152.02,50.167L157.405,50.167L160.055,50.167L162.9,50.167L165.39,50.167L168.015,50.167L173.418,50.167L176.116,50.167L179.033,50.167L181.421,50.167L184.024,50.167L189.381,50.167L192.096,50.167L197.395,50.167L199.998,50.167" stroke="#eeca3b" stroke-width="2"/></g></g><path class="foreground" aria-hidden="true" d="" display="none"/></g><g transform="translate(0,0)"><path class="background" aria-hidden="true" d="M0,0h200v200h-200Z"/><g><g class="mark-line role-mark marks" role="graphics-object" aria-roledescription="line mark container"><path aria-label="Time: Aug 14, 2025; Price: 999; identifier: roam-2" role="graphics-symbol" aria-roledescription="line mark" d="M0,33.5L0.133,33.5L0.238,33.5L3.186,33.5L5.529,33.5L8.158,33.5L13.551,33.5L16.199,33.5L19.124,33.5L21.522,33.5L24.138,33.5L29.49,33.5L32.169,33.5L35.008,33.5L37.481,33.5L40.128,33.5L45.541,33.5L48.154,33.5L51.006,33.5L53.483,33.5L56.114,33.5L61.577,33.5L64.203,33.5L67.149,33.5L68.182,33.5L69.525,33.5L72.089,33.5L77.446,33.5L80.152,33.5L82.993,33.5L85.473,33.5L88.074,33.5L93.442,33.5L96.122,33.5L99.078,33.5L100.274,33.5L101.458,33.5L104.083,33.5L109.423,33.5L112.125,33.5L114.978,33.5L117.459,33.5L120.065,33.5L125.417,33.5L128.111,33.5L130.962,33.5L133.433,33.5L136.046,33.5L141.396,33.5L144.076,33.5L146.902,33.5L149.381,33.5L152.021,33.5L157.405,33.5L160.055,33.5L162.901,33.5L165.391,33.5L168.016,33.5L173.418,33.5L176.117,33.5L179.034,33.5L181.421,33.5L184.025,33.5L189.382,33.5L192.097,33.5L197.396,33.5L199.998,33.5" stroke="#e45756" stroke-width="2"/></g></g><path class="foreground" aria-hidden="true" d="" display="none"/></g><g transform="translate(0,0)"><path class="background" aria-hidden="true" d="M0,0h200v200h-200Z"/><g><g class="mark-line role-mark marks" role="graphics-object" aria-roledescription="line mark container"><path aria-label="Time: Aug 14, 2025; Price: 999; identifier: fastroad-sl-3-2022" role="graphics-symbol" aria-roledescription="line mark" d="M0.001,33.5L0.133,33.5L0.238,33.5L3.187,33.5L5.53,33.5L8.158,33.5L13.552,33.5L16.2,33.5L19.124,33.5L21.522,33.5L24.138,33.5L29.49,33.5L32.17,33.5L35.008,33.5L37.482,33.5L40.129,33.5L45.542,33.5L48.154,33.5L51.006,33.5L53.484,33.5L56.115,33.5L61.577,33.5L64.203,33.5L67.149,33.5L68.183,33.5L69.525,33.5L72.089,33.5L77.446,33.5L80.153,33.5L82.993,33.5L85.474,33.5L88.074,33.5L93.442,33.5L96.123,33.5L99.079,33.5L100.275,33.5L101.459,33.5L104.083,33.5L109.423,33.5L112.125,33.5L114.979,33.5L117.459,33.5L120.065,33.5L125.418,33.5L128.111,33.5L130.962,33.5L133.433,33.5L136.047,33.5L141.396,33.5L144.076,33.5L146.903,33.5L149.381,33.5L152.021,33.5L157.406,33.5L160.056,33.5L162.902,33.5L165.391,33.5L168.016,33.5L173.419,33.5L176.117,33.5L179.034,33.5L181.422,33.5L184.025,33.5L189.383,33.5L192.097,33.5L197.397,33.5L199.999,33.5" stroke="#72b7b2" stroke-width="2"/></g></g><path class="foreground" aria-hidden="true" d="" display="none"/></g><g transform="translate(0,0)"><path class="background" aria-hidden="true" d="M0,0h200v200h-200Z"/><g><g class="mark-line role-mark marks" role="graphics-object" aria-roledescription="line mark container"><path aria-label="Time: Aug 14, 2025; Price: 1199; identifier: fastroad-ar-2" role="graphics-symbol" aria-roledescription="line mark" d="M0.001,0.167L0.134,0.167L0.239,0.167L3.187,0.167L5.53,0.167L8.158,0.167L13.552,0.167L16.2,0.167L19.124,0.167L21.523,0.167L24.138,0.167L29.491,0.167L32.17,0.167L35.008,0.167L37.482,0.167L40.142,0.167L45.542,0.167L48.155,0.167L51.006,0.167L53.484,0.167L56.115,0.167L61.578,0.167L64.204,0.167L67.149,0.167L68.183,0.167L69.526,0.167L72.09,0.167L77.447,0.167L80.153,0.167L82.993,0.167L85.474,0.167L88.074,0.167L93.443,0.167L96.123,0.167L99.079,0.167L100.275,0.167L101.459,0.167L104.084,0.167L109.423,0.167L112.126,0.167L114.979,0.167L117.459,0.167L120.065,0.167L125.418,0.167L128.112,0.167L130.963,0.167L133.433,0.167L136.047,0.167L141.396,0.167L144.077,0.167L146.903,0.167L149.381,0.167L152.021,0.167L157.406,0.167L160.057,0.167L162.902,0.167L165.392,0.167L168.016,0.167L173.419,0.167L176.117,0.167L179.035,0.167L181.422,0.167L184.025,0.167L189.384,0.167L192.097,0.167L197.397,0.167L199.999,0.167" stroke="#4c78a8" stroke-width="2"/></g></g><path class="foreground" aria-hidden="true" d="" display="none"/></g><g transform="translate(0,0)"><path class="background" aria-hidden="true" d="M0,0h200v200h-200Z"/><g><g class="mark-line role-mark marks" role="graphics-object" aria-roledescription="line mark container"><path aria-label="Time: Aug 18, 2025; Price: 899; identifier: sdrbike-escape-1-city-disc" role="graphics-symbol" aria-roledescription="line mark" d="M68.184,50.167L69.526,50.167L72.09,50.167L77.447,50.167L80.154,50.167L82.994,50.167L85.475,50.167L88.075,50.167L93.443,50.167L96.123,50.167L99.08,50.167L100.276,50.167L101.46,50.167L104.084,50.167L109.424,50.167L112.126,50.167L114.98,50.167L117.46,50.167L120.066,50.167L125.418,50.167L128.112,50.167L130.963,50.167L133.434,50.167L136.048,50.167L141.397,50.167L144.077,50.167L146.904,50.167L149.382,50.167L152.022,50.167L157.407,50.167L160.057,50.167L162.903,50.167L165.392,50.167L168.017,50.167L173.419,50.167L176.118,50.167L179.035,50.167L181.423,50.167L184.026,50.167L189.385,50.167L192.098,50.167L197.398,50.167L199.999,50.167" stroke="#b279a2" stroke-width="2"/></g></g><path class="foreground" aria-hidden="true" d="" display="none"/></g><g transform="translate(0,0)"><path class="background" aria-hidden="true" d="M0,0h200v200h-200Z"/><g><g class="mark-line role-mark marks" role="graphics-object" aria-roledescription="line mark container"><path aria-label="Time: Aug 20, 2025; Price: 899; identifier: roam-disc-2-2024" role="graphics-symbol" aria-roledescription="line mark" d="M100.274,50.167L101.458,50.167L104.082,50.167L109.422,50.167L112.125,50.167L114.978,50.167L117.459,50.167L120.064,50.167L125.417,50.167L128.111,50.167L130.962,50.167L133.432,50.167L136.046,50.167L141.395,50.167L144.075,50.167L146.902,50.167L149.38,50.167L152.02,50.167L157.405,50.167L160.055,50.167L162.901,50.167L165.391,50.167L168.016,50.167L173.418,50.167L176.116,50.167L179.033,50.167L181.421,50.167L184.024,50.167L189.382,50.167L192.096,50.167L197.396,50.167L199.998,50.167" stroke="#ff9da6" stroke-width="2"/></g></g><path class="foreground" aria-hidden="true" d="" display="none"/></g><g transform="translate(0,0)"><path class="background" aria-hidden="true" d="M0,0h200v200h-200Z"/><g><g class="mark-line role-mark marks" role="graphics-object" aria-roledescription="line mark container"><path aria-label="Time: Aug 20, 2025; Price: 1199; identifier: thrive-2" role="graphics-symbol" aria-roledescription="line mark" d="M100.276,0.167L101.46,0.167L104.085,0.167L109.424,0.167L112.127,0.167L114.98,0.167L117.46,0.167L120.066,0.167L125.419,0.167L128.113,0.167L130.964,0.167L133.434,0.167L136.048,0.167L141.398,0.167L144.078,0.167L146.904,0.167L149.382,0.167L152.022,0.167L157.407,0.167L160.057,0.167L162.904,0.167L165.392,0.167L168.017,0.167L173.42,0.167L176.118,0.167L179.035,0.167L181.423,0.167L184.026,0.167L189.385,0.167L192.098,0.167L197.398,0.167L200,0.167" stroke="#f58518" stroke-width="2"/></g></g><path class="foreground" aria-hidden="true" d="" display="none"/></g><g transform="translate(0,0)"><path class="background" aria-hidden="true" d="M0,0h200v200h-200Z"/><g><g class="mark-line role-mark marks" role="graphics-object" aria-roledescription="line mark container"><path aria-label="Time: Aug 20, 2025; Price: 999; identifier: rove-2" role="graphics-symbol" aria-roledescription="line mark" d="M100.277,33.5L101.46,33.5L104.085,33.5L109.424,33.5L112.127,33.5L114.98,33.5L117.461,33.5L120.067,33.5L125.419,33.5L128.113,33.5L130.964,33.5L133.434,33.5L136.048,33.5L141.398,33.5L144.078,33.5L146.905,33.5L149.383,33.5L152.022,33.5L157.408,33.5L160.058,33.5L162.904,33.5L165.393,33.5L168.018,33.5L173.42,33.5L176.118,33.5L179.036,33.5L181.424,33.5L184.027,33.5L189.386,33.5L192.099,33.5L197.399,33.5L200,33.5" stroke="#54a24b" stroke-width="2"/></g></g><path class="foreground" aria-hidden="true" d="" display="none"/></g></g><g class="mark-group role-legend" role="graphics-symbol" aria-roledescription="legend" aria-label="Symbol legend titled 'identifier' for stroke color with 8 values: fastroad-ar-2, thrive-2, roam-2, fastroad-sl-3-2022, rove-2, ending with roam-disc-2-2024"><g transform="translate(220,0)"><path class="background" aria-hidden="true" d="M0,0h224v118h-224Z" pointer-events="none"/><g><g class="mark-group role-legend-entry"><g transform="translate(0,16)"><path class="background" aria-hidden="true" d="M0,0h0v0h0Z" pointer-events="none"/><g><g class="mark-group role-scope" role="graphics-object" aria-roledescription="group mark container"><g transform="translate(0,0)"><path class="background" aria-hidden="true" d="M0,0h224v11h-224Z" pointer-events="none" opacity="1"/><g><g class="mark-symbol role-legend-symbol" pointer-events="none"><path transform="translate(6,6)" d="M-5,0L5,0" stroke="#4c78a8" stroke-width="1.5" opacity="1"/></g><g class="mark-text role-legend-label" pointer-events="none"><text text-anchor="start" transform="translate(16,9)" font-family="Liberation Mono" font-size="10px" fill="#000" opacity="1">fastroad-ar-2</text></g></g><path class="foreground" aria-hidden="true" d="" pointer-events="none" display="none"/></g><g transform="translate(0,13)"><path class="background" aria-hidden="true" d="M0,0h224v11h-224Z" pointer-events="none" opacity="1"/><g><g class="mark-symbol role-legend-symbol" pointer-events="none"><path transform="translate(6,6)" d="M-5,0L5,0" stroke="#f58518" stroke-width="1.5" opacity="1"/></g><g class="mark-text role-legend-label" pointer-events="none"><text text-anchor="start" transform="translate(16,9)" font-family="Liberation Mono" font-size="10px" fill="#000" opacity="1">thrive-2</text></g></g><path class="foreground" aria-hidden="true" d="" pointer-events="none" display="none"/></g><g transform="translate(0,26)"><path class="background" aria-hidden="true" d="M0,0h224v11h-224Z" pointer-events="none" opacity="1"/><g><g class="mark-symbol role-legend-symbol" pointer-events="none"><path transform="translate(6,6)" d="M-5,0L5,0" stroke="#e45756" stroke-width="1.5" opacity="1"/></g><g class="mark-text role-legend-label" pointer-events="none"><text text-anchor="start" transform="translate(16,9)" font-family="Liberation Mono" font-size="10px" fill="#000" opacity="1">roam-2</text></g></g><path class="foreground" aria-hidden="true" d="" pointer-events="none" display="none"/></g><g transform="translate(0,39)"><path class="background" aria-hidden="true" d="M0,0h224v11h-224Z" pointer-events="none" opacity="1"/><g><g class="mark-symbol role-legend-symbol" pointer-events="none"><path transform="translate(6,6)" d="M-5,0L5,0" stroke="#72b7b2" stroke-width="1.5" opacity="1"/></g><g class="mark-text role-legend-label" pointer-events="none"><text text-anchor="start" transform="translate(16,9)" font-family="Liberation Mono" font-size="10px" fill="#000" opacity="1">fastroad-sl-3-2022</text></g></g><path class="foreground" aria-hidden="true" d="" pointer-events="none" display="none"/></g><g transform="translate(0,52)"><path class="background" aria-hidden="true" d="M0,0h224v11h-224Z" pointer-events="none" opacity="1"/><g><g class="mark-symbol role-legend-symbol" pointer-events="none"><path transform="translate(6,6)" d="M-5,0L5,0" stroke="#54a24b" stroke-width="1.5" opacity="1"/></g><g class="mark-text role-legend-label" pointer-events="none"><text text-anchor="start" transform="translate(16,9)" font-family="Liberation Mono" font-size="10px" fill="#000" opacity="1">rove-2</text></g></g><path class="foreground" aria-hidden="true" d="" pointer-events="none" display="none"/></g><g transform="translate(0,65)"><path class="background" aria-hidden="true" d="M0,0h224v11h-224Z" pointer-events="none" opacity="1"/><g><g class="mark-symbol role-legend-symbol" pointer-events="none"><path transform="translate(6,6)" d="M-5,0L5,0" stroke="#eeca3b" stroke-width="1.5" opacity="1"/></g><g class="mark-text role-legend-label" pointer-events="none"><text text-anchor="start" transform="translate(16,9)" font-family="Liberation Mono" font-size="10px" fill="#000" opacity="1">escape-city-disc-1-2024</text></g></g><path class="foreground" aria-hidden="true" d="" pointer-events="none" display="none"/></g><g transform="translate(0,78)"><path class="background" aria-hidden="true" d="M0,0h224v11h-224Z" pointer-events="none" opacity="1"/><g><g class="mark-symbol role-legend-symbol" pointer-events="none"><path transform="translate(6,6)" d="M-5,0L5,0" stroke="#b279a2" stroke-width="1.5" opacity="1"/></g><g class="mark-text role-legend-label" pointer-events="none"><text text-anchor="start" transform="translate(16,9)" font-family="Liberation Mono" font-size="10px" fill="#000" opacity="1">sdrbike-escape-1-city-disc</text></g></g><path class="foreground" aria-hidden="true" d="" pointer-events="none" display="none"/></g><g transform="translate(0,91)"><path class="background" aria-hidden="true" d="M0,0h224v11h-224Z" pointer-events="none" opacity="1"/><g><g class="mark-symbol role-legend-symbol" pointer-events="none"><path transform="translate(6,6)" d="M-5,0L5,0" stroke="#ff9da6" stroke-width="1.5" opacity="1"/></g><g class="mark-text role-legend-label" pointer-events="none"><text text-anchor="start" transform="translate(16,9)" font-family="Liberation Mono" font-size="10px" fill="#000" opacity="1">roam-disc-2-2024</text></g></g><path class="foreground" aria-hidden="true" d="" pointer-events="none" display="none"/></g></g></g><path class="foreground" aria-hidden="true" d="" pointer-events="none" display="none"/></g></g><g class="mark-text role-legend-title" pointer-events="none"><text text-anchor="start" transform="translate(0,9)" font-family="Liberation Mono" font-size="11px" font-weight="bold" fill="#000" opacity="1">identifier</text></g></g><path class="foreground" aria-hidden="true" d="" pointer-events="none" display="none"/></g></g></g><path class="foreground" aria-hidden="true" d="" display="none"/></g></g></g></svg>