<svg xmlns="http://www.w3.org/2000/svg" xmlns:xlink="http://www.w3.org/1999/xlink" version="1.1" class="marks" width="548" height="244" viewBox="0 0 548 244"><rect width="548" height="244" fill="white"/><g fill="none" stroke-miterlimit="10" transform="translate(67,7)"><g class="mark-group role-frame root" role="graphics-object" aria-roledescription="group mark container"><g transform="translate(0,0)"><path class="background" aria-hidden="true" d="M0.5,0.5h200v200h-200Z" stroke="#ddd"/><g><g class="mark-group role-axis" aria-hidden="true"><g transform="translate(0.5,200.5)"><path class="background" aria-hidden="true" d="M0,0h0v0h0Z" pointer-events="none"/><g><g class="mark-rule role-axis-grid" pointer-events="none"><line transform="translate(9,-200)" x2="0" y2="200" stroke="#ddd" stroke-width="1" opacity="1"/><line transform="translate(31,-200)" x2="0" y2="200" stroke="#ddd" stroke-width="1" opacity="1"/><line transform="translate(54,-200)" x2="0" y2="200" stroke="#ddd" stroke-width="1" opacity="1"/><line transform="translate(76,-200)" x2="0" y2="200" stroke="#ddd" stroke-width="1" opacity="1"/><line transform="translate(99,-200)" x2="0" y2="200" stroke="#ddd" stroke-width="1" opacity="1"/><line transform="translate(122,-200)" x2="0" y2="200" stroke="#ddd" stroke-width="1" opacity="1"/><line transform="translate(144,-200)" x2="0" y2="200" stroke="#ddd" stroke-width="1" opacity="1"/><line transform="translate(167,-200)" x2="0" y2="200" stroke="#ddd" stroke-width="1" opacity="1"/><line transform="translate(190,-200)" x2="0" y2="200" stroke="#ddd" stroke-width="1" opacity="1"/></g></g><path class="foreground" aria-hidden="true" d="" pointer-events="none" display="none"/></g></g><g class="mark-group role-axis" aria-hidden="true"><g transform="translate(0.5,0.5)"><path class="background" aria-hidden="true" d="M0,0h0v0h0Z" pointer-events="none"/><g><g class="mark-rule role-axis-grid" pointer-events="none"><line transform="translate(0,200)" x2="200" y2="0" stroke="#ddd" stroke-width="1" opacity="1"/><line transform="translate(0,144)" x2="200" y2="0" stroke="#ddd" stroke-width="1" opacity="1"/><line transform="translate(0,89)" x2="200" y2="0" stroke="#ddd" stroke-width="1" opacity="1"/><line transform="translate(0,33)" x2="200" y2="0" stroke="#ddd" stroke-width="1" opacity="1"/></g></g><path class="foreground" aria-hidden="true" d="" pointer-events="none" display="none"/></g></g><g class="mark-group role-axis" role="graphics-symbol" aria-roledescription="axis" aria-label="X-axis titled 'Time' for a time scale with values from Thursday, 14 August 2025, 8:34:48 AM to Wednesday, 15 October 2025, 4:48:04 AM"><g transform="translate(0.5,200.5)"><path class="background" aria-hidden="true" d="M0,0h0v0h0Z" pointer-events="none"/><g><g class="mark-rule role-axis-tick" pointer-events="none"><line transform="translate(9,0)" x2="0" y2="5" stroke="#888" stroke-width="1" opacity="1"/><line transform="translate(31,0)" x2="0" y2="5" stroke="#888" stroke-width="1" opacity="1"/><line transform="translate(54,0)" x2="0" y2="5" stroke="#888" stroke-width="1" opacity="1"/><line transform="translate(76,0)" x2="0" y2="5" stroke="#888" stroke-width="1" opacity="1"/><line transform="translate(99,0)" x2="0" y2="5" stroke="#888" stroke-width="1" opacity="1"/><line transform="translate(122,0)" x2="0" y2="5" stroke="#888" stroke-width="1" opacity="1"/><line transform="translate(144,0)" x2="0" y2="5" stroke="#888" stroke-width="1" opacity="1"/><line transform="translate(167,0)" x2="0" y2="5" stroke="#888" stroke-width="1" opacity="1"/><line transform="translate(190,0)" x2="0" y2="5" stroke="#888" stroke-width="1" opacity="1"/></g><g class="mark-text role-axis-label" pointer-events="none"><text text-anchor="middle" transform="translate(8.545868993969957,15)" font-family="Liberation Mono" font-size="10px" fill="#000" opacity="1">Aug 17</text><text text-anchor="middle" transform="translate(31.18400741572413,15)" font-family="Liberation Mono" font-size="10px" fill="#000" opacity="0">Aug 24</text><text text-anchor="middle" transform="translate(53.822145837478296,15)" font-family="Liberation Mono" font-size="10px" fill="#000" opacity="0">Aug 31</text><text text-anchor="middle" transform="translate(76.46028425923247,15)" font-family="Liberation Mono" font-size="10px" fill="#000" opacity="0">Sep 07</text><text text-anchor="middle" transform="translate(99.09842268098664,15)" font-family="Liberation Mono" font-size="10px" fill="#000" opacity="1">Sep 14</text><text text-anchor="middle" transform="translate(121.73656110274081,15)" font-family="Liberation Mono" font-size="10px" fill="#000" opacity="0">Sep 21</text><text text-anchor="middle" transform="translate(144.37469952449499,15)" font-family="Liberation Mono" font-size="10px" fill="#000" opacity="0">Sep 28</text><text text-anchor="middle" transform="translate(167.01283794624914,15)" font-family="Liberation Mono" font-size="10px" fill="#000" opacity="0">Oct 05</text><text text-anchor="middle" transform="translate(189.6509763680033,15)" font-family="Liberation Mono" font-size="10px" fill="#000" opacity="1">Oct 12</text></g><g class="mark-rule role-axis-domain" pointer-events="none"><line transform="translate(0,0)" x2="200" y2="0" stroke="#888" stroke-width="1" opacity="1"/></g><g class="mark-text role-axis-title" pointer-events="none"><text text-anchor="middle" transform="translate(100,30)" font-family="Liberation Mono" font-size="11px" font-weight="bold" fill="#000" opacity="1">Time</text></g></g><path class="foreground" aria-hidden="true" d="" pointer-events="none" display="none"/></g></g><g class="mark-group role-axis" role="graphics-symbol" aria-roledescription="axis" aria-label="Y-axis titled 'Price' for a linear scale with values from 0 to 1,800"><g transform="translate(0.5,0.5)"><path class="background" aria-hidden="true" d="M0,0h0v0h0Z" pointer-events="none"/><g><g class="mark-rule role-axis-tick" pointer-events="none"><line transform="translate(0,200)" x2="-5" y2="0" stroke="#888" stroke-width="1" opacity="1"/><line transform="translate(0,144)" x2="-5" y2="0" stroke="#888" stroke-width="1" opacity="1"/><line transform="translate(0,89)" x2="-5" y2="0" stroke="#888" stroke-width="1" opacity="1"/><line transform="translate(0,33)" x2="-5" y2="0" stroke="#888" stroke-width="1" opacity="1"/></g><g class="mark-text role-axis-label" pointer-events="none"><text text-anchor="end" transform="translate(-7,203)" font-family="Liberation Mono" font-size="10px" fill="#000" opacity="1">0</text><text text-anchor="end" transform="translate(-7,147.44444444444443)" font-family="Liberation Mono" font-size="10px" fill="#000" opacity="1">500</text><text text-anchor="end" transform="translate(-7,91.88888888888889)" font-family="Liberation Mono" font-size="10px" fill="#000" opacity="1">1,000</text><text text-anchor="end" transform="translate(-7,36.33333333333333)" font-family="Liberation Mono" font-size="10px" fill="#000" opacity="1">1,500</text></g><g class="mark-rule role-axis-domain" pointer-events="none"><line transform="translate(0,200)" x2="0" y2="-200" stroke="#888" stroke-width="1" opacity="1"/></g><g class="mark-text role-axis-title" pointer-events="none"><text text-anchor="middle" transform="translate(-51,100) rotate(-90) translate(0,-2)" font-family="Liberation Mono" font-size="11px" font-weight="bold" fill="#000" opacity="1">Price</text></g></g><path class="foreground" aria-hidden="true" d="" pointer-events="none" display="none"/></g></g><g class="mark-group role-scope pathgroup" role="graphics-object" aria-roledescription="group mark container"><g transform="translate(0,0)"><path class="background" aria-hidden="true" d="M0,0h200v200h-200Z"/><g><g class="mark-line role-mark marks" role="graphics-object" aria-roledescription="line mark container"><path aria-label="Time: Aug 14, 2025; Price: 899; identifier: escape-city-disc-1-2024" role="graphics-symbol" aria-roledescription="line mark" d="M0,100.111L0.027,100.111L0.048,100.111L0.644,100.111L1.118,100.111L1.65,100.111L2.741,100.111L3.276,100.111L3.868,100.111L4.353,100.111L4.882,100.111L5.964,100.111L6.506,100.111L7.08,100.111L7.581,100.111L8.111,100.111L9.211,100.111L9.739,100.111L10.316,100.111L10.817,100.111L11.349,100.111L12.454,100.111L12.985,100.111L13.581,100.111L13.79,100.111L14.061,100.111L14.58,100.111L15.663,100.111L16.211,100.111L16.785,100.111L17.287,100.111L17.813,100.111L18.898,100.111L19.441,100.111L20.038,100.111L20.28,100.111L20.52,100.111L21.05,100.111L22.13,100.111L22.677,100.111L23.254,100.111L23.756,100.111L24.283,100.111L25.365,100.111L25.91,100.111L26.487,100.111L26.986,100.111L27.515,100.111L28.597,100.111L29.139,100.111L29.711,100.111L30.212,100.111L30.746,100.111L31.835,100.111L32.371,100.111L32.946,100.111L33.45,100.111L33.981,100.111L35.073,100.111L35.619,100.111L36.209,100.111L36.692,100.111L37.219,100.111L38.302,100.111L38.851,100.111L39.923,100.111L40.449,100.111L41.532,100.111L42.079,100.111L42.291,100.111L42.655,100.111L43.015,100.111L43.157,100.111L43.686,100.111L44.766,100.111L45.314,100.111L45.89,100.111L46.39,100.111L46.918,100.111L48,100.111L48.546,100.111L49.12,100.111L49.623,100.111L50.151,100.111L51.23,100.111L51.772,100.111L52.344,100.111L52.849,100.111L53.357,100.111L53.383,100.111L54.466,100.111L54.811,100.111L55.005,100.111L55.58,100.111L56.085,100.111L56.618,100.111L57.71,100.111L58.254,100.111L58.827,100.111L59.323,100.111L59.851,100.111L60.939,100.111L61.486,100.111L62.063,100.111L62.559,100.111L63.087,100.111L64.169,100.111L64.714,100.111L65.29,100.111L65.791,100.111L66.32,100.111L67.402,100.111L67.95,100.111L68.521,100.111L69.028,100.111L69.553,100.111L70.637,100.111L71.183,100.111L71.757,100.111L72.255,100.111L72.789,100.111L73.868,100.111L74.145,100.111L74.407,100.111L74.978,100.111L75.484,100.111L76.021,100.111L77.101,100.111L77.641,100.111L78.214,100.111L78.718,100.111L79.255,100.111L80.34,100.111L80.89,100.111L81.467,100.111L81.964,100.111L82.494,100.111L83.573,100.111L84.123,100.111L84.719,100.111L85.2,100.111L85.724,100.111L86.802,100.111L87.354,100.111L87.927,100.111L88.429,100.111L88.959,100.111L90.041,100.111L90.587,100.111L91.16,100.111L91.656,100.111L92.191,100.111L93.272,100.111L93.819,100.111L94.392,100.111L94.892,100.111L95.424,100.111L96.504,100.111L97.046,100.111L97.617,100.111L98.12,100.111L98.659,100.111L99.739,100.111L100.28,100.111L100.848,100.111L101.353,100.111L101.893,100.111L102.979,100.111L103.524,100.111L104.102,100.111L104.6,100.111L105.128,100.111L106.21,100.111L106.761,100.111L107.335,100.111L107.833,100.111L108.363,100.111L109.445,100.111L109.992,100.111L110.569,100.111L111.068,100.111L111.597,100.111L112.679,100.111L113.225,100.111L113.802,100.111L114.3,100.111L114.831,100.111L115.913,100.111L116.459,100.111L117.035,100.111L117.535,100.111L118.063,100.111L119.144,100.111L119.687,100.111L120.259,100.111L120.759,100.111L121.296,100.111L122.379,100.111L122.918,100.111L123.492,100.111L123.996,100.111L124.532,100.111L125.615,100.111L126.166,100.111L126.741,100.111L127.233,100.111L127.769,100.111L128.848,100.111L129.397,100.111L129.973,100.111L130.474,100.111L131.002,100.111L132.083,100.111L132.632,100.111L133.208,100.111L133.71,100.111L134.234,100.111L135.318,100.111L135.867,100.111L136.444,100.111L136.943,100.111L137.467,100.111L138.55,100.111L139.1,100.111L139.674,100.111L140.174,100.111L140.702,100.111L141.784,100.111L142.323,100.111L142.895,100.111L143.4,100.111L143.936,100.111L145.018,100.111L145.557,100.111L146.13,100.111L146.631,100.111L147.169,100.111L148.255,100.111L148.805,100.111L149.381,100.111L149.865,100.111L150.405,100.111L151.487,100.111L152.041,100.111L152.615,100.111L153.11,100.111L153.639,100.111L154.723,100.111L155.272,100.111L155.849,100.111L156.346,100.111L156.874,100.111L157.953,100.111L158.501,100.111L159.075,100.111L159.579,100.111L160.106,100.111L161.186,100.111L161.734,100.111L162.307,100.111L162.811,100.111L163.339,100.111L164.419,100.111L164.962,100.111L165.533,100.111L166.038,100.111L166.573,100.111L167.652,100.111L168.194,100.111L168.767,100.111L169.272,100.111L169.808,100.111L170.89,100.111L171.44,100.111L172.017,100.111L172.516,100.111L173.045,100.111L174.124,100.111L174.673,100.111L175.251,100.111L175.749,100.111L176.278,100.111L177.359,100.111L177.91,100.111L178.486,100.111L178.984,100.111L179.512,100.111L180.595,100.111L181.144,100.111L181.721,100.111L182.223,100.111L182.747,100.111L183.827,100.111L184.375,100.111L184.95,100.111L185.45,100.111L185.98,100.111L187.059,100.111L187.6,100.111L188.171,100.111L188.674,100.111L189.212,100.111L190.293,100.111L190.834,100.111L191.406,100.111L191.911,100.111L192.445,100.111L193.534,100.111L194.084,100.111L194.658,100.111L195.152,100.111L195.681,100.111L196.763,100.111L197.312,100.111L197.909,100.111L198.388,100.111L198.918,100.111L199.999,100.111" stroke="#4c78a8" stroke-width="2"/></g></g><path class="foreground" aria-hidden="true" d="" display="none"/></g><g transform="translate(0,0)"><path class="background" aria-hidden="true" d="M0,0h200v200h-200Z"/><g><g class="mark-line role-mark marks" role="graphics-object" aria-roledescription="line mark container"><path aria-label="Time: Aug 14, 2025; Price: 999; identifier: roam-2" role="graphics-symbol" aria-roledescription="line mark" d="M0,89L0.027,89L0.048,89L0.644,89L1.118,89L1.65,89L2.741,89L3.276,89L3.868,89L4.353,89L4.882,89L5.964,89L6.506,89L7.08,89L7.581,89L8.116,89L9.211,89L9.739,89L10.316,89L10.817,89L11.349,89L12.454,89L12.985,89L13.581,89L13.79,89L14.061,89L14.58,89L15.663,89L16.211,89L16.785,89L17.287,89L17.813,89L18.898,89L19.441,89L20.038,89L20.28,89L20.52,89L21.051,89L22.131,89L22.677,89L23.254,89L23.756,89L24.283,89L25.365,89L25.91,89L26.487,89L26.987,89L27.515,89L28.597,89L29.139,89L29.711,89L30.212,89L30.746,89L31.835,89L32.371,89L32.947,89L33.45,89L33.981,89L35.074,89L35.619,89L36.209,89L36.692,89L37.219,89L38.302,89L38.851,89L39.923,89L40.449,89L41.532,89L42.079,89L42.291,89L42.655,89L43.015,89L43.157,89L43.686,89L44.766,89L45.314,89L45.89,89L46.39,89L46.919,89L48,89L48.546,89L49.12,89L49.623,89L50.151,89L51.23,89L51.772,89L52.344,89L52.849,89L53.358,89L53.383,89L54.466,89L54.811,89L55.005,89L55.58,89L56.085,89L56.618,89L57.71,89L58.254,89L58.828,89L59.323,89L59.851,89L60.939,89L61.486,89L62.064,89L62.559,89L63.087,89L64.169,89L64.715,89L65.291,89L65.791,89L66.32,89L67.402,89L67.95,89L68.522,89L69.028,89L69.554,89L70.637,89L71.183,89L71.757,89L72.256,89L72.789,89L73.868,89L74.145,89L74.407,89L74.978,89L75.484,89L76.021,89L77.101,89L77.641,89L78.214,89L78.719,89L79.255,89L80.34,89L80.89,89L81.467,89L81.964,89L82.494,89L83.573,89L84.123,89L84.719,89L85.2,89L85.724,89L86.803,89L87.354,89L87.927,89L88.429,89L88.959,89L90.041,89L90.587,89L91.16,89L91.657,89L92.191,89L93.272,89L93.82,89L94.392,89L94.892,89L95.424,89L96.504,89L97.046,89L97.617,89L98.12,89L98.659,89L99.74,89L100.28,89L100.849,89L101.353,89L101.893,89L102.979,89L103.524,89L104.102,89L104.6,89L105.129,89L106.21,89L106.761,89L107.335,89L107.833,89L108.364,89L109.445,89L109.992,89L110.569,89L111.068,89L111.597,89L112.679,89L113.225,89L113.802,89L114.3,89L114.831,89L115.913,89L116.459,89L117.035,89L117.536,89L118.063,89L119.145,89L119.687,89L120.259,89L120.76,89L121.296,89L122.38,89L122.919,89L123.492,89L123.996,89L124.532,89L125.616,89L126.166,89L126.742,89L127.233,89L127.769,89L128.848,89L129.397,89L129.973,89L130.474,89L131.002,89L132.084,89L132.633,89L133.208,89L133.71,89L134.234,89L135.318,89L135.868,89L136.444,89L136.943,89L137.468,89L138.55,89L139.1,89L139.675,89L140.174,89L140.702,89L141.784,89L142.323,89L142.895,89L143.4,89L143.936,89L145.018,89L145.557,89L146.131,89L146.631,89L147.169,89L148.255,89L148.805,89L149.381,89L149.865,89L150.405,89L151.488,89L152.041,89L152.615,89L153.11,89L153.64,89L154.723,89L155.272,89L155.85,89L156.346,89L156.874,89L157.953,89L158.501,89L159.075,89L159.579,89L160.106,89L161.186,89L161.735,89L162.308,89L162.811,89L163.34,89L164.42,89L164.962,89L165.533,89L166.038,89L166.573,89L167.652,89L168.194,89L168.768,89L169.272,89L169.808,89L170.89,89L171.44,89L172.017,89L172.516,89L173.045,89L174.124,89L174.673,89L175.252,89L175.75,89L176.278,89L177.36,89L177.91,89L178.487,89L178.984,89L179.512,89L180.595,89L181.144,89L181.722,89L182.223,89L182.747,89L183.827,89L184.375,89L184.951,89L185.45,89L185.98,89L187.059,89L187.6,89L188.171,89L188.674,89L189.212,89L190.293,89L190.834,89L191.406,89L191.911,89L192.445,89L193.534,89L194.085,89L194.658,89L195.154,89L195.682,89L196.763,89L197.312,89L197.909,89L198.389,89L198.918,89L199.999,89" stroke="#ff9da6" stroke-width="2"/></g></g><path class="foreground" aria-hidden="true" d="" display="none"/></g><g transform="translate(0,0)"><path class="background" aria-hidden="true" d="M0,0h200v200h-200Z"/><g><g class="mark-line role-mark marks" role="graphics-object" aria-roledescription="line mark container"><path aria-label="Time: Aug 14, 2025; Price: 999; identifier: fastroad-sl-3-2022" role="graphics-symbol" aria-roledescription="line mark" d="M0,89L0.027,89L0.048,89L0.644,89L1.118,89L1.65,89L2.741,89L3.276,89L3.868,89L4.353,89L4.882,89L5.964,89L6.506,89L7.08,89L7.581,89L8.116,89L9.211,89L9.739,89L10.316,89L10.817,89L11.349,89L12.454,89L12.985,89L13.581,89L13.79,89L14.061,89L14.58,89L15.663,89L16.211,89L16.785,89L17.287,89L17.813,89L18.899,89L19.441,89L20.039,89L20.28,89L20.52,89L21.051,89L22.131,89L22.677,89L23.254,89L23.756,89L24.283,89L25.366,89L25.91,89L26.487,89L26.987,89L27.515,89L28.597,89L29.139,89L29.711,89L30.212,89L30.746,89L31.835,89L32.371,89L32.947,89L33.45,89L33.981,89L35.074,89L35.619,89L36.209,89L36.692,89L37.219,89L38.302,89L38.851,89L39.923,89L40.45,89L41.532,89L42.079,89L42.291,89L42.655,89L43.016,89L43.157,89L43.686,89L44.766,89L45.314,89L45.89,89L46.39,89L46.919,89L48,89L48.546,89L49.12,89L49.623,89L50.151,89L51.23,89L51.772,89L52.345,89L52.849,89L53.358,89L53.383,89L54.466,89L54.811,89L55.005,89L55.58,89L56.085,89L56.618,89L57.71,89L58.254,89L58.828,89L59.323,89L59.851,89L60.939,89L61.486,89L62.064,89L62.559,89L63.087,89L64.169,89L64.715,89L65.291,89L65.791,89L66.32,89L67.402,89L67.95,89L68.522,89L69.028,89L69.554,89L70.637,89L71.183,89L71.757,89L72.256,89L72.789,89L73.868,89L74.145,89L74.408,89L74.978,89L75.484,89L76.021,89L77.101,89L77.641,89L78.214,89L78.719,89L79.255,89L80.341,89L80.89,89L81.467,89L81.964,89L82.494,89L83.573,89L84.123,89L84.719,89L85.2,89L85.724,89L86.803,89L87.354,89L87.927,89L88.429,89L88.959,89L90.041,89L90.587,89L91.16,89L91.657,89L92.191,89L93.272,89L93.82,89L94.392,89L94.892,89L95.425,89L96.504,89L97.046,89L97.617,89L98.12,89L98.659,89L99.74,89L100.28,89L100.849,89L101.353,89L101.893,89L102.979,89L103.524,89L104.102,89L104.601,89L105.129,89L106.21,89L106.761,89L107.335,89L107.833,89L108.364,89L109.445,89L109.992,89L110.569,89L111.068,89L111.597,89L112.679,89L113.225,89L113.802,89L114.3,89L114.831,89L115.913,89L116.459,89L117.035,89L117.536,89L118.063,89L119.145,89L119.688,89L120.259,89L120.76,89L121.297,89L122.38,89L122.919,89L123.492,89L123.997,89L124.532,89L125.616,89L126.166,89L126.742,89L127.233,89L127.769,89L128.849,89L129.397,89L129.973,89L130.474,89L131.002,89L132.084,89L132.633,89L133.208,89L133.71,89L134.234,89L135.318,89L135.868,89L136.444,89L136.943,89L137.468,89L138.55,89L139.1,89L139.675,89L140.174,89L140.702,89L141.784,89L142.323,89L142.895,89L143.4,89L143.936,89L145.018,89L145.557,89L146.131,89L146.631,89L147.169,89L148.255,89L148.806,89L149.381,89L149.865,89L150.405,89L151.488,89L152.041,89L152.615,89L153.11,89L153.64,89L154.723,89L155.272,89L155.85,89L156.346,89L156.874,89L157.953,89L158.501,89L159.075,89L159.579,89L160.106,89L161.186,89L161.735,89L162.308,89L162.811,89L163.34,89L164.42,89L164.962,89L165.533,89L166.038,89L166.573,89L167.652,89L168.194,89L168.768,89L169.272,89L169.808,89L170.89,89L171.44,89L172.017,89L172.516,89L173.045,89L174.124,89L174.673,89L175.252,89L175.75,89L176.278,89L177.36,89L177.91,89L178.487,89L178.984,89L179.512,89L180.595,89L181.144,89L181.722,89L182.223,89L182.747,89L183.828,89L184.375,89L184.951,89L185.451,89L185.98,89L187.059,89L187.6,89L188.171,89L188.674,89L189.212,89L190.293,89L190.834,89L191.406,89L191.911,89L192.445,89L193.534,89L194.085,89L194.658,89L195.154,89L195.682,89L196.764,89L197.312,89L197.909,89L198.389,89L198.918,89L199.999,89" stroke="#9d755d" stroke-width="2"/></g></g><path class="foreground" aria-hidden="true" d="" display="none"/></g><g transform="translate(0,0)"><path class="background" aria-hidden="true" d="M0,0h200v200h-200Z"/><g><g class="mark-line role-mark marks" role="graphics-object" aria-roledescription="line mark container"><path aria-label="Time: Aug 14, 2025; Price: 1199; identifier: fastroad-ar-2" role="graphics-symbol" aria-roledescription="line mark" d="M0,66.778L0.027,66.778L0.048,66.778L0.645,66.778L1.118,66.778L1.65,66.778L2.741,66.778L3.276,66.778L3.868,66.778L4.353,66.778L4.882,66.778L5.964,66.778L6.506,66.778L7.08,66.778L7.581,66.778L8.119,66.778L9.211,66.778L9.739,66.778L10.316,66.778L10.817,66.778L11.349,66.778L12.454,66.778L12.985,66.778L13.581,66.778L13.79,66.778L14.062,66.778L14.58,66.778L15.664,66.778L16.211,66.778L16.785,66.778L17.287,66.778L17.813,66.778L18.899,66.778L19.441,66.778L20.039,66.778L20.281,66.778L20.52,66.778L21.051,66.778L22.131,66.778L22.677,66.778L23.254,66.778L23.756,66.778L24.283,66.778L25.366,66.778L25.91,66.778L26.487,66.778L26.987,66.778L27.515,66.778L28.597,66.778L29.139,66.778L29.711,66.778L30.212,66.778L30.746,66.778L31.835,66.778L32.371,66.778L32.947,66.778L33.45,66.778L33.981,66.778L35.074,66.778L35.62,66.778L36.21,66.778L36.692,66.778L37.219,66.778L38.303,66.778L38.851,66.778L39.923,66.778L40.45,66.778L41.533,66.778L42.079,66.778L42.291,66.778L42.655,66.778L43.016,66.778L43.157,66.778L43.686,66.778L44.766,66.778L45.314,66.778L45.89,66.778L46.39,66.778L46.919,66.778L48,66.778L48.546,66.778L49.121,66.778L49.623,66.778L50.151,66.778L51.231,66.778L51.772,66.778L52.345,66.778L52.849,66.778L53.358,66.778L53.383,66.778L54.466,66.778L54.811,66.778L55.005,66.778L55.58,66.778L56.085,66.778L56.618,66.778L57.71,66.778L58.254,66.778L58.828,66.778L59.323,66.778L59.851,66.778L60.939,66.778L61.486,66.778L62.064,66.778L62.559,66.778L63.088,66.778L64.169,66.778L64.715,66.778L65.291,66.778L65.792,66.778L66.32,66.778L67.402,66.778L67.95,66.778L68.522,66.778L69.028,66.778L69.554,66.778L70.637,66.778L71.183,66.778L71.758,66.778L72.256,66.778L72.789,66.778L73.868,66.778L74.145,66.778L74.408,66.778L74.978,66.778L75.484,66.778L76.021,66.778L77.101,66.778L77.641,66.778L78.214,66.778L78.719,66.778L79.255,66.778L80.341,66.778L80.89,66.778L81.467,66.778L81.964,66.778L82.494,66.778L83.573,66.778L84.123,66.778L84.719,66.778L85.2,66.778L85.724,66.778L86.803,66.778L87.354,66.778L87.927,66.778L88.429,66.778L88.959,66.778L90.041,66.778L90.587,66.778L91.16,66.778L91.657,66.778L92.191,66.778L93.272,66.778L93.82,66.778L94.393,66.778L94.892,66.778L95.425,66.778L96.505,66.778L97.046,66.778L97.617,66.778L98.12,66.778L98.659,66.778L99.74,66.778L100.28,66.778L100.849,66.778L101.353,66.778L101.893,66.778L102.979,66.778L103.524,66.778L104.102,66.778L104.601,66.778L105.129,66.778L106.21,66.778L106.761,66.778L107.335,66.778L107.833,66.778L108.364,66.778L109.445,66.778L109.992,66.778L110.569,66.778L111.068,66.778L111.597,66.778L112.679,66.778L113.225,66.778L113.802,66.778L114.3,66.778L114.832,66.778L115.913,66.778L116.459,66.778L117.035,66.778L117.536,66.778L118.063,66.778L119.145,66.778L119.688,66.778L120.259,66.778L120.76,66.778L121.297,66.778L122.38,66.778L122.919,66.778L123.493,66.778L123.997,66.778L124.532,66.778L125.616,66.778L126.166,66.778L126.742,66.778L127.233,66.778L127.769,66.778L128.849,66.778L129.397,66.778L129.973,66.778L130.474,66.778L131.002,66.778L132.084,66.778L132.633,66.778L133.208,66.778L133.71,66.778L134.234,66.778L135.318,66.778L135.868,66.778L136.444,66.778L136.944,66.778L137.468,66.778L138.551,66.778L139.1,66.778L139.675,66.778L140.174,66.778L140.702,66.778L141.784,66.778L142.323,66.778L142.896,66.778L143.4,66.778L143.936,66.778L145.018,66.778L145.557,66.778L146.131,66.778L146.631,66.778L147.169,66.778L148.255,66.778L148.806,66.778L149.382,66.778L149.866,66.778L150.405,66.778L151.488,66.778L152.041,66.778L152.615,66.778L153.11,66.778L153.64,66.778L154.724,66.778L155.272,66.778L155.85,66.778L156.346,66.778L156.874,66.778L157.954,66.778L158.501,66.778L159.075,66.778L159.579,66.778L160.106,66.778L161.186,66.778L161.735,66.778L162.308,66.778L162.811,66.778L163.34,66.778L164.42,66.778L164.962,66.778L165.533,66.778L166.038,66.778L166.573,66.778L167.652,66.778L168.194,66.778L168.768,66.778L169.272,66.778L169.808,66.778L170.891,66.778L171.44,66.778L172.017,66.778L172.516,66.778L173.045,66.778L174.124,66.778L174.673,66.778L175.252,66.778L175.75,66.778L176.278,66.778L177.36,66.778L177.91,66.778L178.487,66.778L178.984,66.778L179.513,66.778L180.595,66.778L181.144,66.778L181.722,66.778L182.223,66.778L182.747,66.778L183.828,66.778L184.376,66.778L184.951,66.778L185.451,66.778L185.98,66.778L187.059,66.778L187.6,66.778L188.171,66.778L188.674,66.778L189.212,66.778L190.293,66.778L190.834,66.778L191.406,66.778L191.911,66.778L192.445,66.778L193.534,66.778L194.085,66.778L194.658,66.778L195.155,66.778L195.682,66.778L196.764,66.778L197.312,66.778L197.909,66.778L198.389,66.778L198.918,66.778L199.999,66.778" stroke="#54a24b" stroke-width="2"/></g></g><path class="foreground" aria-hidden="true" d="" display="none"/></g><g transform="translate(0,0)"><path class="background" aria-hidden="true" d="M0,0h200v200h-200Z"/><g><g class="mark-line role-mark marks" role="graphics-object" aria-roledescription="line mark container"><path aria-label="Time: Aug 18, 2025; Price: 899; identifier: sdrbike-escape-1-city-disc" role="graphics-symbol" aria-roledescription="line mark" d="M13.79,100.111L14.062,100.111L14.58,100.111L15.664,100.111L16.211,100.111L16.785,100.111L17.287,100.111L17.813,100.111L18.899,100.111L19.441,100.111L20.039,100.111L20.281,100.111L20.52,100.111L21.051,100.111L22.131,100.111L22.677,100.111L23.254,100.111L23.756,100.111L24.283,100.111L25.366,100.111L25.911,100.111L26.487,100.111L26.987,100.111L27.515,100.111L28.597,100.111L29.14,100.111L29.711,100.111L30.212,100.111L30.746,100.111L31.835,100.111L32.371,100.111L32.947,100.111L33.45,100.111L33.981,100.111L35.074,100.111L35.62,100.111L36.21,100.111L36.693,100.111L37.219,100.111L38.303,100.111L38.852,100.111L39.923,100.111L40.45,100.111L41.533,100.111L42.079,100.111L42.291,100.111L42.655,100.111L43.016,100.111L43.157,100.111L43.686,100.111L44.766,100.111L45.314,100.111L45.891,100.111L46.39,100.111L46.919,100.111L48,100.111L48.546,100.111L49.121,100.111L49.623,100.111L50.151,100.111L51.231,100.111L51.773,100.111L52.345,100.111L52.849,100.111L53.358,100.111L53.383,100.111L54.466,100.111L54.811,100.111L55.005,100.111L55.58,100.111L56.085,100.111L56.618,100.111L57.71,100.111L58.254,100.111L58.828,100.111L59.323,100.111L59.851,100.111L60.939,100.111L61.486,100.111L62.064,100.111L62.559,100.111L63.088,100.111L64.169,100.111L64.715,100.111L65.291,100.111L65.792,100.111L66.321,100.111L67.402,100.111L67.95,100.111L68.522,100.111L69.028,100.111L69.554,100.111L70.638,100.111L71.183,100.111L71.758,100.111L72.256,100.111L72.789,100.111L73.868,100.111L74.145,100.111L74.408,100.111L74.978,100.111L75.484,100.111L76.021,100.111L77.101,100.111L77.641,100.111L78.214,100.111L78.719,100.111L79.255,100.111L80.341,100.111L80.891,100.111L81.467,100.111L81.964,100.111L82.494,100.111L83.573,100.111L84.123,100.111L84.72,100.111L85.2,100.111L85.724,100.111L86.803,100.111L87.354,100.111L87.928,100.111L88.429,100.111L88.96,100.111L90.041,100.111L90.587,100.111L91.16,100.111L91.657,100.111L92.191,100.111L93.273,100.111L93.82,100.111L94.393,100.111L94.892,100.111L95.425,100.111L96.505,100.111L97.046,100.111L97.617,100.111L98.12,100.111L98.659,100.111L99.74,100.111L100.28,100.111L100.849,100.111L101.353,100.111L101.893,100.111L102.979,100.111L103.524,100.111L104.102,100.111L104.601,100.111L105.129,100.111L106.21,100.111L106.761,100.111L107.335,100.111L107.833,100.111L108.364,100.111L109.446,100.111L109.992,100.111L110.57,100.111L111.068,100.111L111.597,100.111L112.679,100.111L113.226,100.111L113.803,100.111L114.3,100.111L114.832,100.111L115.913,100.111L116.459,100.111L117.035,100.111L117.536,100.111L118.064,100.111L119.145,100.111L119.688,100.111L120.26,100.111L120.76,100.111L121.297,100.111L122.38,100.111L122.919,100.111L123.493,100.111L123.997,100.111L124.532,100.111L125.616,100.111L126.166,100.111L126.742,100.111L127.233,100.111L127.769,100.111L128.849,100.111L129.398,100.111L129.973,100.111L130.474,100.111L131.003,100.111L132.084,100.111L132.633,100.111L133.208,100.111L133.711,100.111L134.234,100.111L135.318,100.111L135.868,100.111L136.445,100.111L136.944,100.111L137.468,100.111L138.551,100.111L139.1,100.111L139.675,100.111L140.174,100.111L140.702,100.111L141.784,100.111L142.323,100.111L142.896,100.111L143.4,100.111L143.936,100.111L145.018,100.111L145.557,100.111L146.131,100.111L146.631,100.111L147.169,100.111L148.255,100.111L148.806,100.111L149.382,100.111L149.866,100.111L150.405,100.111L151.488,100.111L152.041,100.111L152.615,100.111L153.111,100.111L153.64,100.111L154.724,100.111L155.272,100.111L155.85,100.111L156.346,100.111L156.874,100.111L157.954,100.111L158.501,100.111L159.075,100.111L159.579,100.111L160.107,100.111L161.186,100.111L161.735,100.111L162.308,100.111L162.812,100.111L163.34,100.111L164.42,100.111L164.962,100.111L165.533,100.111L166.038,100.111L166.574,100.111L167.652,100.111L168.194,100.111L168.768,100.111L169.272,100.111L169.808,100.111L170.891,100.111L171.44,100.111L172.017,100.111L172.516,100.111L173.045,100.111L174.124,100.111L174.673,100.111L175.252,100.111L175.75,100.111L176.278,100.111L177.36,100.111L177.91,100.111L178.487,100.111L178.984,100.111L179.513,100.111L180.595,100.111L181.144,100.111L181.722,100.111L182.223,100.111L182.747,100.111L183.828,100.111L184.376,100.111L184.951,100.111L185.451,100.111L185.981,100.111L187.059,100.111L187.6,100.111L188.171,100.111L188.674,100.111L189.212,100.111L190.293,100.111L190.834,100.111L191.406,100.111L191.911,100.111L192.446,100.111L193.534,100.111L194.085,100.111L194.658,100.111L195.155,100.111L195.682,100.111L196.764,100.111L197.312,100.111L197.909,100.111L198.389,100.111L198.919,100.111L199.999,100.111" stroke="#f58518" stroke-width="2"/></g></g><path class="foreground" aria-hidden="true" d="" display="none"/></g><g transform="translate(0,0)"><path class="background" aria-hidden="true" d="M0,0h200v200h-200Z"/><g><g class="mark-line role-mark marks" role="graphics-object" aria-roledescription="line mark container"><path aria-label="Time: Aug 20, 2025; Price: 899; identifier: roam-disc-2-2024" role="graphics-symbol" aria-roledescription="line mark" d="M20.28,100.111L20.52,100.111L21.051,100.111L22.131,100.111L22.677,100.111L23.254,100.111L23.756,100.111L24.283,100.111L25.365,100.111L25.91,100.111L26.487,100.111L26.987,100.111L27.515,100.111L28.597,100.111L29.139,100.111L29.711,100.111L30.212,100.111L30.746,100.111L31.835,100.111L32.371,100.111L32.947,100.111L33.45,100.111L33.981,100.111L35.074,100.111L35.619,100.111L36.209,100.111L36.692,100.111L37.219,100.111L38.302,100.111L38.851,100.111L39.923,100.111L40.449,100.111L41.532,100.111L42.079,100.111L42.291,100.111L42.655,100.111L43.015,100.111L43.157,100.111L43.686,100.111L44.766,100.111L45.314,100.111L45.89,100.111L46.39,100.111L46.918,100.111L48,100.111L48.546,100.111L49.12,100.111L49.623,100.111L50.151,100.111L51.23,100.111L51.772,100.111L52.344,100.111L52.849,100.111L53.357,100.111L53.383,100.111L54.466,100.111L54.811,100.111L55.005,100.111L55.58,100.111L56.085,100.111L56.618,100.111L57.71,100.111L58.254,100.111L58.827,100.111L59.323,100.111L59.851,100.111L60.939,100.111L61.486,100.111L62.063,100.111L62.559,100.111L63.087,100.111L64.169,100.111L64.714,100.111L65.291,100.111L65.791,100.111L66.32,100.111L67.402,100.111L67.95,100.111L68.522,100.111L69.028,100.111L69.553,100.111L70.637,100.111L71.183,100.111L71.757,100.111L72.255,100.111L72.789,100.111L73.868,100.111L74.145,100.111L74.407,100.111L74.978,100.111L75.484,100.111L76.021,100.111L77.101,100.111L77.641,100.111L78.214,100.111L78.719,100.111L79.255,100.111L80.34,100.111L80.89,100.111L81.467,100.111L81.964,100.111L82.494,100.111L83.573,100.111L84.123,100.111L84.719,100.111L85.2,100.111L85.724,100.111L86.803,100.111L87.354,100.111L87.927,100.111L88.429,100.111L88.959,100.111L90.041,100.111L90.587,100.111L91.16,100.111L91.657,100.111L92.191,100.111L93.272,100.111L93.819,100.111L94.392,100.111L94.892,100.111L95.424,100.111L96.504,100.111L97.046,100.111L97.617,100.111L98.12,100.111L98.659,100.111L99.739,100.111L100.28,100.111L100.848,100.111L101.353,100.111L101.893,100.111L102.979,100.111L103.524,100.111L104.102,100.111L104.6,100.111L105.129,100.111L106.21,100.111L106.761,100.111L107.335,100.111L107.833,100.111L108.363,100.111L109.445,100.111L109.992,100.111L110.569,100.111L111.068,100.111L111.597,100.111L112.679,100.111L113.225,100.111L113.802,100.111L114.3,100.111L114.831,100.111L115.913,100.111L116.459,100.111L117.035,100.111L117.536,100.111L118.063,100.111L119.144,100.111L119.687,100.111L120.259,100.111L120.76,100.111L121.296,100.111L122.38,100.111L122.919,100.111L123.492,100.111L123.996,100.111L124.532,100.111L125.615,100.111L126.166,100.111L126.742,100.111L127.233,100.111L127.769,100.111L128.848,100.111L129.397,100.111L129.973,100.111L130.474,100.111L131.002,100.111L132.083,100.111L132.633,100.111L133.208,100.111L133.71,100.111L134.234,100.111L135.318,100.111L135.868,100.111L136.444,100.111L136.943,100.111L137.467,100.111L138.55,100.111L139.1,100.111L139.674,100.111L140.174,100.111L140.702,100.111L141.784,100.111L142.323,100.111L142.895,100.111L143.4,100.111L143.936,100.111L145.018,100.111L145.557,100.111L146.13,100.111L146.631,100.111L147.169,100.111L148.255,100.111L148.805,100.111L149.381,100.111L149.865,100.111L150.405,100.111L151.488,100.111L152.041,100.111L152.615,100.111L153.11,100.111L153.64,100.111L154.723,100.111L155.272,100.111L155.849,100.111L156.346,100.111L156.874,100.111L157.953,100.111L158.501,100.111L159.075,100.111L159.579,100.111L160.106,100.111L161.186,100.111L161.735,100.111L162.308,100.111L162.811,100.111L163.34,100.111L164.419,100.111L164.962,100.111L165.533,100.111L166.038,100.111L166.573,100.111L167.652,100.111L168.194,100.111L168.768,100.111L169.272,100.111L169.808,100.111L170.89,100.111L171.44,100.111L172.017,100.111L172.516,100.111L173.045,100.111L174.124,100.111L174.673,100.111L175.251,100.111L175.749,100.111L176.278,100.111L177.36,100.111L177.91,100.111L178.487,100.111L178.984,100.111L179.512,100.111L180.595,100.111L181.144,100.111L181.721,100.111L182.223,100.111L182.747,100.111L183.827,100.111L184.375,100.111L184.951,100.111L185.45,100.111L185.98,100.111L187.059,100.111L187.6,100.111L188.171,100.111L188.674,100.111L189.212,100.111L190.293,100.111L190.834,100.111L191.406,100.111L191.911,100.111L192.445,100.111L193.534,100.111L194.084,100.111L194.658,100.111L195.152,100.111L195.681,100.111L196.763,100.111L197.312,100.111L197.909,100.111L198.388,100.111L198.918,100.111L199.999,100.111" stroke="#e45756" stroke-width="2"/></g></g><path class="foreground" aria-hidden="true" d="" display="none"/></g><g transform="translate(0,0)"><path class="background" aria-hidden="true" d="M0,0h200v200h-200Z"/><g><g class="mark-line role-mark marks" role="graphics-object" aria-roledescription="line mark container"><path aria-label="Time: Aug 20, 2025; Price: 1199; identifier: thrive-2" role="graphics-symbol" aria-roledescription="line mark" d="M20.281,66.778L20.52,66.778L21.051,66.778L22.131,66.778L22.678,66.778L23.255,66.778L23.756,66.778L24.283,66.778L25.366,66.778L25.911,66.778L26.487,66.778L26.987,66.778L27.516,66.778L28.597,66.778L29.14,66.778L29.711,66.778L30.212,66.778L30.746,66.778L31.835,66.778L32.371,66.778L32.947,66.778L33.45,66.778L33.981,66.778L35.074,66.778L35.62,66.778L36.21,66.778L36.693,66.778L37.219,66.778L38.303,66.778L38.852,66.778L39.924,66.778L40.45,66.778L41.533,66.778L42.079,66.778L42.292,66.778L42.655,66.778L43.016,66.778L43.157,66.778L43.686,66.778L44.766,66.778L45.315,66.778L45.891,66.778L46.39,66.778L46.919,66.778L48,66.778L48.546,66.778L49.121,66.778L49.623,66.778L50.151,66.778L51.231,66.778L51.773,66.778L52.345,66.778L52.849,66.778L53.358,66.778L53.383,66.778L54.466,66.778L54.811,66.778L55.005,66.778L55.58,66.778L56.085,66.778L56.618,66.778L57.71,66.778L58.254,66.778L58.828,66.778L59.323,66.778L59.852,66.778L60.939,66.778L61.486,66.778L62.064,66.778L62.559,66.778L63.088,66.778L64.169,66.778L64.715,66.778L65.291,66.778L65.792,66.778L66.321,66.778L67.402,66.778L67.95,66.778L68.522,66.778L69.028,66.778L69.554,66.778L70.638,66.778L71.183,66.778L71.758,66.778L72.256,66.778L72.789,66.778L73.868,66.778L74.146,66.778L74.408,66.778L74.978,66.778L75.485,66.778L76.021,66.778L77.101,66.778L77.641,66.778L78.214,66.778L78.719,66.778L79.255,66.778L80.341,66.778L80.891,66.778L81.467,66.778L81.964,66.778L82.494,66.778L83.573,66.778L84.123,66.778L84.72,66.778L85.2,66.778L85.724,66.778L86.803,66.778L87.354,66.778L87.928,66.778L88.429,66.778L88.96,66.778L90.041,66.778L90.587,66.778L91.16,66.778L91.657,66.778L92.191,66.778L93.273,66.778L93.82,66.778L94.393,66.778L94.892,66.778L95.425,66.778L96.505,66.778L97.046,66.778L97.617,66.778L98.12,66.778L98.659,66.778L99.74,66.778L100.28,66.778L100.849,66.778L101.353,66.778L101.893,66.778L102.979,66.778L103.524,66.778L104.102,66.778L104.601,66.778L105.129,66.778L106.21,66.778L106.761,66.778L107.336,66.778L107.833,66.778L108.364,66.778L109.446,66.778L109.992,66.778L110.57,66.778L111.068,66.778L111.597,66.778L112.679,66.778L113.226,66.778L113.803,66.778L114.3,66.778L114.832,66.778L115.913,66.778L116.46,66.778L117.035,66.778L117.536,66.778L118.064,66.778L119.145,66.778L119.688,66.778L120.26,66.778L120.76,66.778L121.297,66.778L122.38,66.778L122.919,66.778L123.493,66.778L123.997,66.778L124.532,66.778L125.616,66.778L126.166,66.778L126.742,66.778L127.233,66.778L127.769,66.778L128.849,66.778L129.398,66.778L129.973,66.778L130.474,66.778L131.003,66.778L132.084,66.778L132.633,66.778L133.208,66.778L133.711,66.778L134.234,66.778L135.318,66.778L135.868,66.778L136.445,66.778L136.944,66.778L137.468,66.778L138.551,66.778L139.1,66.778L139.675,66.778L140.175,66.778L140.702,66.778L141.784,66.778L142.323,66.778L142.896,66.778L143.4,66.778L143.937,66.778L145.018,66.778L145.558,66.778L146.131,66.778L146.632,66.778L147.17,66.778L148.255,66.778L148.806,66.778L149.382,66.778L149.866,66.778L150.406,66.778L151.488,66.778L152.041,66.778L152.615,66.778L153.111,66.778L153.64,66.778L154.724,66.778L155.273,66.778L155.85,66.778L156.346,66.778L156.874,66.778L157.954,66.778L158.501,66.778L159.075,66.778L159.579,66.778L160.107,66.778L161.187,66.778L161.735,66.778L162.308,66.778L162.812,66.778L163.34,66.778L164.42,66.778L164.962,66.778L165.533,66.778L166.038,66.778L166.574,66.778L167.652,66.778L168.194,66.778L168.768,66.778L169.272,66.778L169.808,66.778L170.891,66.778L171.44,66.778L172.017,66.778L172.516,66.778L173.045,66.778L174.124,66.778L174.673,66.778L175.252,66.778L175.75,66.778L176.279,66.778L177.36,66.778L177.91,66.778L178.487,66.778L178.984,66.778L179.513,66.778L180.595,66.778L181.144,66.778L181.722,66.778L182.223,66.778L182.747,66.778L183.828,66.778L184.376,66.778L184.951,66.778L185.451,66.778L185.981,66.778L187.059,66.778L187.6,66.778L188.171,66.778L188.674,66.778L189.212,66.778L190.294,66.778L190.834,66.778L191.406,66.778L191.911,66.778L192.446,66.778L193.534,66.778L194.085,66.778L194.658,66.778L195.156,66.778L195.682,66.778L196.764,66.778L197.312,66.778L197.909,66.778L198.389,66.778L198.919,66.778L199.999,66.778" stroke="#eeca3b" stroke-width="2"/></g></g><path class="foreground" aria-hidden="true" d="" display="none"/></g><g transform="translate(0,0)"><path class="background" aria-hidden="true" d="M0,0h200v200h-200Z"/><g><g class="mark-line role-mark marks" role="graphics-object" aria-roledescription="line mark container"><path aria-label="Time: Aug 20, 2025; Price: 999; identifier: rove-2" role="graphics-symbol" aria-roledescription="line mark" d="M20.281,89L20.52,89L21.051,89L22.131,89L22.678,89L23.255,89L23.756,89L24.283,89L25.366,89L25.911,89L26.487,89L26.987,89L27.516,89L28.598,89L29.14,89L29.711,89L30.213,89L30.746,89L31.836,89L32.372,89L32.947,89L33.45,89L33.981,89L35.074,89L35.62,89L36.21,89L36.693,89L37.219,89L38.303,89L38.852,89L39.924,89L40.45,89L41.533,89L42.079,89L42.292,89L42.655,89L43.016,89L43.157,89L43.686,89L44.766,89L45.315,89L45.891,89L46.391,89L46.919,89L48,89L48.546,89L49.121,89L49.623,89L50.151,89L53.358,111.222L53.383,111.222L54.466,111.222L54.812,111.222L55.005,111.222L55.58,111.222L56.085,111.222L56.618,111.222L57.71,111.222L58.254,111.222L58.828,111.222L59.323,111.222L59.852,111.222L60.939,111.222L61.486,111.222L62.064,111.222L62.559,111.222L63.088,111.222L64.169,111.222L64.715,111.222L65.291,111.222L65.792,111.222L66.321,111.222L67.402,111.222L67.95,111.222L68.522,111.222L69.028,111.222L69.554,111.222L70.638,111.222L71.183,111.222L71.758,111.222L72.256,111.222L72.789,111.222L73.868,111.222L74.146,111.222L74.408,111.222L74.978,111.222L75.485,111.222L76.021,111.222L77.101,111.222L77.641,111.222L78.214,111.222L78.719,111.222L79.255,111.222L80.341,111.222L80.891,111.222L81.468,111.222L81.964,111.222L82.494,111.222L83.573,111.222L84.123,111.222L84.72,111.222L85.201,111.222L85.724,111.222L86.803,111.222L87.354,111.222L87.928,111.222L88.429,111.222L88.96,111.222L90.041,111.222L90.587,111.222L91.16,111.222L91.657,111.222L92.191,111.222L93.273,111.222L93.82,111.222L94.393,111.222L94.893,111.222L95.425,111.222L96.505,111.222L97.046,111.222L97.617,111.222L98.12,111.222L98.659,111.222L99.74,111.222L100.28,111.222L100.849,111.222L101.353,111.222L101.893,111.222L102.979,111.222L103.524,111.222L104.103,111.222L104.601,111.222L105.13,111.222L106.211,111.222L106.761,111.222L107.336,111.222L107.833,111.222L108.364,111.222L109.446,111.222L109.992,111.222L110.57,111.222L111.068,111.222L111.597,111.222L112.679,111.222L113.226,111.222L113.803,111.222L114.3,111.222L114.832,111.222L115.913,111.222L116.46,111.222L117.036,111.222L117.536,111.222L118.064,111.222L119.145,111.222L119.688,111.222L120.26,111.222L120.76,111.222L121.297,111.222L122.38,111.222L122.919,111.222L123.493,111.222L123.997,111.222L124.532,111.222L125.616,111.222L126.166,111.222L126.742,111.222L127.233,111.222L127.769,111.222L128.849,111.222L129.398,111.222L129.973,111.222L130.474,111.222L131.003,111.222L132.084,111.222L132.633,111.222L133.208,111.222L133.711,111.222L134.234,111.222L135.318,111.222L135.868,111.222L136.445,111.222L136.944,111.222L137.468,111.222L138.551,111.222L139.1,111.222L139.675,111.222L140.175,111.222L140.702,111.222L141.784,111.222L142.323,111.222L142.896,111.222L143.4,111.222L143.937,111.222L145.018,111.222L145.558,111.222L146.131,111.222L146.632,111.222L147.17,111.222L148.255,111.222L148.806,111.222L149.382,111.222L149.866,111.222L150.406,111.222L151.488,111.222L152.041,111.222L152.615,111.222L153.111,111.222L153.64,111.222L154.724,111.222L155.273,111.222L155.85,111.222L156.346,111.222L156.874,111.222L157.954,111.222L158.501,111.222L159.075,111.222L159.579,111.222L160.107,111.222L161.187,111.222L161.735,111.222L162.308,111.222L162.812,111.222L163.34,111.222L164.42,111.222L164.962,111.222L165.533,111.222L166.039,111.222L166.574,111.222L167.652,111.222L168.194,111.222L168.768,111.222L169.272,111.222L169.808,111.222L170.891,111.222L171.44,111.222L172.017,111.222L172.516,111.222L173.045,111.222L174.125,111.222L174.673,111.222L175.252,111.222L175.75,111.222L176.279,111.222L177.36,111.222L177.91,111.222L178.487,111.222L178.984,111.222L179.513,111.222L180.595,111.222L181.144,111.222L181.722,111.222L182.223,111.222L182.747,111.222L183.828,111.222L184.376,111.222L184.951,111.222L185.451,111.222L185.981,111.222L187.059,111.222L187.6,111.222L188.172,111.222L188.674,111.222L189.212,111.222L190.294,111.222L190.834,111.222L191.406,111.222L191.911,111.222L192.446,111.222L193.534,111.222L194.085,111.222L194.658,111.222L195.156,111.222L195.682,111.222L196.764,111.222L197.312,111.222L197.909,111.222L198.389,111.222L198.919,111.222L199.999,111.222" stroke="#72b7b2" stroke-width="2"/></g></g><path class="foreground" aria-hidden="true" d="" display="none"/></g><g transform="translate(0,0)"><path class="background" aria-hidden="true" d="M0,0h200v200h-200Z"/><g><g class="mark-line role-mark marks" role="graphics-object" aria-roledescription="line mark container"><path aria-label="Time: Aug 27, 2025; Price: 1199; identifier: allure-rs-1-2023" role="graphics-symbol" aria-roledescription="line mark" d="M42.292,66.778L42.655,66.778L43.016,66.778L43.157,66.778L43.686,66.778L44.766,66.778L45.315,66.778L45.891,66.778L46.391,66.778L46.919,66.778L48,66.778L48.546,66.778L49.121,66.778L49.623,66.778L50.151,66.778L51.231,66.778L51.773,66.778L52.345,66.778L52.849,66.778L53.358,66.778L53.383,66.778L54.466,66.778L54.812,66.778L55.005,66.778L55.581,66.778L56.085,66.778L56.618,66.778L57.711,66.778L58.254,66.778L58.828,66.778L59.323,66.778L59.852,66.778L60.939,66.778L61.486,66.778L62.064,66.778L62.559,66.778L63.088,66.778L64.169,66.778L64.715,66.778L65.291,66.778L65.792,66.778L66.321,66.778L67.402,66.778L67.95,66.778L68.522,66.778L69.028,66.778L69.554,66.778L70.638,66.778L71.183,66.778L71.758,66.778L72.256,66.778L72.789,66.778L73.868,66.778L74.146,66.778L74.408,66.778L74.978,66.778L75.485,66.778L76.021,66.778L77.101,66.778L77.642,66.778L78.214,66.778L78.719,66.778L79.255,66.778L80.341,66.778L80.891,66.778L81.468,66.778L81.964,66.778L82.494,66.778L83.574,66.778L84.124,66.778L84.72,66.778L85.201,66.778L85.724,66.778L86.803,66.778L87.354,66.778L87.928,66.778L88.429,66.778L88.96,66.778L90.041,66.778L90.587,66.778L91.16,66.778L91.657,66.778L92.191,66.778L93.273,66.778L93.82,66.778L94.393,66.778L94.893,66.778L95.425,66.778L96.505,66.778L97.046,66.778L97.617,66.778L98.12,66.778L98.659,66.778L99.74,66.778L100.28,66.778L100.849,66.778L101.354,66.778L101.893,66.778L102.979,66.778L103.524,66.778L104.103,66.778L104.601,66.778L105.13,66.778L106.211,66.778L106.761,66.778L107.336,66.778L107.833,66.778L108.364,66.778L109.446,66.778L109.993,66.778L110.57,66.778L111.068,66.778L111.597,66.778L112.679,66.778L113.226,66.778L113.803,66.778L114.3,66.778L114.832,66.778L115.913,66.778L116.46,66.778L117.036,66.778L117.536,66.778L118.064,66.778L119.145,66.778L119.688,66.778L120.26,66.778L120.76,66.778L121.297,66.778L122.38,66.778L122.919,66.778L123.493,66.778L123.997,66.778L124.532,66.778L125.616,66.778L126.167,66.778L126.742,66.778L127.233,66.778L127.769,66.778L128.849,66.778L129.398,66.778L129.973,66.778L130.474,66.778L131.003,66.778L132.084,66.778L132.633,66.778L133.208,66.778L133.711,66.778L134.235,66.778L135.318,66.778L135.868,66.778L136.445,66.778L136.944,66.778L137.468,66.778L138.551,66.778L139.1,66.778L139.675,66.778L140.175,66.778L140.702,66.778L141.784,66.778L142.323,66.778L142.896,66.778L143.4,66.778L143.937,66.778L145.018,66.778L145.558,66.778L146.131,66.778L146.632,66.778L147.17,66.778L148.255,66.778L148.806,66.778L149.382,66.778L149.866,66.778L150.406,66.778L151.488,66.778L152.041,66.778L152.615,66.778L153.111,66.778L153.64,66.778L154.724,66.778L155.273,66.778L155.85,66.778L156.346,66.778L156.875,66.778L157.954,66.778L158.501,66.778L159.076,66.778L159.579,66.778L160.107,66.778L161.187,66.778L161.735,66.778L162.308,66.778L162.812,66.778L163.34,66.778L164.42,66.778L164.962,66.778L165.533,66.778L166.039,66.778L166.574,66.778L167.652,66.778L168.194,66.778L168.768,66.778L169.272,66.778L169.808,66.778L170.891,66.778L171.44,66.778L172.017,66.778L172.516,66.778L173.045,66.778L174.125,66.778L174.673,66.778L175.252,66.778L175.75,66.778L176.279,66.778L177.36,66.778L177.91,66.778L178.487,66.778L178.984,66.778L179.513,66.778L180.596,66.778L181.145,66.778L181.722,66.778L182.223,66.778L182.747,66.778L183.828,66.778L184.376,66.778L184.951,66.778L185.451,66.778L185.981,66.778L187.059,66.778L187.6,66.778L188.172,66.778L188.674,66.778L189.212,66.778L190.294,66.778L190.834,66.778L191.407,66.778L191.911,66.778L192.446,66.778L193.534,66.778L194.085,66.778L194.658,66.778L195.156,66.778L195.682,66.778L196.764,66.778L197.312,66.778L197.909,66.778L198.389,66.778L198.919,66.778L199.999,66.778" stroke="#b279a2" stroke-width="2"/></g></g><path class="foreground" aria-hidden="true" d="" display="none"/></g><g transform="translate(0,0)"><path class="background" aria-hidden="true" d="M0,0h200v200h-200Z"/><g><g class="mark-line role-mark marks" role="graphics-object" aria-roledescription="line mark container"><path aria-label="Time: Aug 27, 2025; Price: 999; identifier: allure-rs-2-2022" role="graphics-symbol" aria-roledescription="line mark" d="M42.292,89L42.655,89L43.016,89L43.157,89L43.686,89L44.766,89L45.315,89L45.891,89L46.391,89L46.919,89L48.001,89L48.547,89L49.121,89L49.623,89L50.151,89L53.358,111.222L53.383,111.222L54.466,111.222L54.812,111.222L55.006,111.222L55.581,111.222L56.085,111.222L56.618,111.222L57.711,111.222L58.254,111.222L58.828,111.222L59.323,111.222L59.852,111.222L60.94,111.222L61.486,111.222L62.064,111.222L62.559,111.222L63.088,111.222L64.169,111.222L64.715,111.222L65.291,111.222L65.792,111.222L66.321,111.222L67.403,111.222L67.95,111.222L68.522,111.222L69.028,111.222L69.554,111.222L70.638,111.222L71.184,111.222L71.758,111.222L72.256,111.222L72.789,111.222L73.868,111.222L74.146,111.222L74.408,111.222L74.978,111.222L75.485,111.222L76.021,111.222L77.101,111.222L77.642,111.222L78.214,111.222L78.719,111.222L79.255,111.222L80.341,111.222L80.891,111.222L81.468,111.222L81.965,111.222L82.494,111.222L83.574,111.222L84.124,111.222L84.72,111.222L85.201,111.222L85.724,111.222L86.803,111.222L87.355,111.222L87.928,111.222L88.43,111.222L88.96,111.222L90.041,111.222L90.587,111.222L91.16,111.222L91.657,111.222L92.191,111.222L93.273,111.222L93.82,111.222L94.393,111.222L94.893,111.222L95.425,111.222L96.505,111.222L97.046,111.222L97.617,111.222L98.121,111.222L98.659,111.222L99.74,111.222L100.281,111.222L100.849,111.222L101.354,111.222L101.893,111.222L102.979,111.222L103.525,111.222L104.103,111.222L104.601,111.222L105.13,111.222L106.211,111.222L106.761,111.222L107.336,111.222L107.833,111.222L108.364,111.222L109.446,111.222L109.993,111.222L110.57,111.222L111.068,111.222L111.597,111.222L112.679,111.222L113.226,111.222L113.803,111.222L114.3,111.222L114.832,111.222L115.913,111.222L116.46,111.222L117.036,111.222L117.536,111.222L118.064,111.222L119.145,111.222L119.688,111.222L120.26,111.222L120.76,111.222L121.297,111.222L122.38,111.222L122.919,111.222L123.493,111.222L123.997,111.222L124.532,111.222L125.616,111.222L126.167,111.222L126.742,111.222L127.233,111.222L127.769,111.222L128.849,111.222L129.398,111.222L129.973,111.222L130.475,111.222L131.003,111.222L132.084,111.222L132.633,111.222L133.208,111.222L133.711,111.222L134.235,111.222L135.318,111.222L135.868,111.222L136.445,111.222L136.944,111.222L137.468,111.222L138.551,111.222L139.1,111.222L139.675,111.222L140.175,111.222L140.702,111.222L141.784,111.222L142.323,111.222L142.896,111.222L143.4,111.222L143.937,111.222L145.018,111.222L145.558,111.222L146.131,111.222L146.632,111.222L147.17,111.222L148.255,111.222L148.806,111.222L149.382,111.222L149.866,111.222L150.406,111.222L151.488,111.222L152.041,111.222L152.615,111.222L153.111,111.222L153.64,111.222L154.724,111.222L155.273,111.222L155.85,111.222L156.346,111.222L156.875,111.222L157.954,111.222L158.501,111.222L159.076,111.222L159.58,111.222L160.107,111.222L161.187,111.222L161.735,111.222L162.308,111.222L162.812,111.222L163.34,111.222L164.42,111.222L164.962,111.222L165.533,111.222L166.039,111.222L166.574,111.222L167.653,111.222L168.194,111.222L168.768,111.222L169.272,111.222L169.808,111.222L170.891,111.222L171.441,111.222L172.017,111.222L172.516,111.222L173.045,111.222L174.125,111.222L174.673,111.222L175.252,111.222L175.75,111.222L176.279,111.222L177.36,111.222L177.91,111.222L178.487,111.222L178.984,111.222L179.513,111.222L180.596,111.222L181.145,111.222L181.722,111.222L182.223,111.222L182.747,111.222L183.828,111.222L184.376,111.222L184.951,111.222L185.451,111.222L185.981,111.222L187.059,111.222L187.6,111.222L188.172,111.222L188.674,111.222L189.212,111.222L190.294,111.222L190.834,111.222L191.407,111.222L191.911,111.222L192.446,111.222L193.534,111.222L194.085,111.222L194.658,111.222L195.156,111.222L195.682,111.222L196.764,111.222L197.312,111.222L197.909,111.222L198.39,111.222L198.919,111.222L199.999,111.222" stroke="#54a24b" stroke-width="2"/></g></g><path class="foreground" aria-hidden="true" d="" display="none"/></g><g transform="translate(0,0)"><path class="background" aria-hidden="true" d="M0,0h200v200h-200Z"/><g><g class="mark-line role-mark marks" role="graphics-object" aria-roledescription="line mark container"><path aria-label="Time: Aug 27, 2025; Price: 949; identifier: allure-rs-2-2023" role="graphics-symbol" aria-roledescription="line mark" d="M42.292,94.556L42.655,94.556L43.016,94.556L43.157,94.556L43.686,94.556L44.766,94.556L45.315,94.556L45.891,94.556L46.391,94.556L46.919,94.556L48.001,94.556L48.547,94.556L49.121,94.556L49.623,94.556L50.151,94.556L51.231,94.556L51.773,94.556L52.345,94.556L52.85,94.556L53.358,94.556L53.383,94.556L54.466,94.556L54.812,94.556L55.006,94.556L55.581,94.556L56.085,94.556L56.618,94.556L57.711,94.556L58.254,94.556L58.828,94.556L59.324,94.556L59.852,94.556L60.94,94.556L61.486,94.556L62.064,94.556L62.56,94.556L63.088,94.556L64.169,94.556L64.715,94.556L65.291,94.556L65.792,94.556L66.321,94.556L67.403,94.556L67.95,94.556L68.522,94.556L69.028,94.556L69.554,94.556L70.638,94.556L71.184,94.556L71.758,94.556L72.256,94.556L72.789,94.556L73.868,94.556L74.146,94.556L74.408,94.556L74.979,94.556L75.485,94.556L76.021,94.556L77.101,94.556L77.642,94.556L78.215,94.556L78.719,94.556L79.255,94.556L80.341,94.556L80.891,94.556L81.468,94.556L81.965,94.556L82.494,94.556L83.574,94.556L84.124,94.556L84.72,94.556L85.201,94.556L85.725,94.556L86.803,94.556L87.355,94.556L87.928,94.556L88.43,94.556L88.96,94.556L90.042,94.556L90.587,94.556L91.161,94.556L91.657,94.556L92.191,94.556L93.273,94.556L93.82,94.556L94.393,94.556L94.893,94.556L95.425,94.556L96.505,94.556L97.046,94.556L97.617,94.556L98.121,94.556L98.659,94.556L99.74,94.556L100.281,94.556L100.849,94.556L101.354,94.556L101.893,94.556L102.979,94.556L103.525,94.556L104.103,94.556L104.601,94.556L105.13,94.556L106.211,94.556L106.761,94.556L107.336,94.556L107.834,94.556L108.364,94.556L109.446,94.556L109.993,94.556L110.57,94.556L111.068,94.556L111.598,94.556L112.679,94.556L113.226,94.556L113.803,94.556L114.3,94.556L114.832,94.556L115.914,94.556L116.46,94.556L117.036,94.556L117.536,94.556L118.064,94.556L119.145,94.556L119.688,94.556L120.26,94.556L120.76,94.556L121.297,94.556L122.38,94.556L122.919,94.556L123.493,94.556L123.997,94.556L124.532,94.556L125.616,94.556L126.167,94.556L126.742,94.556L127.233,94.556L127.769,94.556L128.849,94.556L129.398,94.556L129.974,94.556L130.475,94.556L131.003,94.556L132.084,94.556L132.633,94.556L133.208,94.556L133.711,94.556L134.235,94.556L135.318,94.556L135.868,94.556L136.445,94.556L136.944,94.556L137.468,94.556L138.551,94.556L139.101,94.556L139.675,94.556L140.175,94.556L140.703,94.556L141.784,94.556L142.324,94.556L142.896,94.556L143.4,94.556L143.937,94.556L145.018,94.556L145.558,94.556L146.131,94.556L146.632,94.556L147.17,94.556L148.256,94.556L148.806,94.556L149.382,94.556L149.866,94.556L150.406,94.556L151.488,94.556L152.041,94.556L152.615,94.556L153.111,94.556L153.64,94.556L154.724,94.556L155.273,94.556L155.85,94.556L156.346,94.556L156.875,94.556L157.954,94.556L158.501,94.556L159.076,94.556L159.58,94.556L160.107,94.556L161.187,94.556L161.735,94.556L162.308,94.556L162.812,94.556L163.34,94.556L164.42,94.556L164.963,94.556L165.533,94.556L166.039,94.556L166.574,94.556L167.653,94.556L168.195,94.556L168.769,94.556L169.272,94.556L169.809,94.556L170.891,94.556L171.441,94.556L172.017,94.556L172.516,94.556L173.046,94.556L174.125,94.556L174.673,94.556L175.252,94.556L175.75,94.556L176.279,94.556L177.36,94.556L177.91,94.556L178.487,94.556L178.984,94.556L179.513,94.556L180.596,94.556L181.145,94.556L181.722,94.556L182.223,94.556L182.748,94.556L183.828,94.556L184.376,94.556L184.951,94.556L185.451,94.556L185.981,94.556L187.059,94.556L187.6,94.556L188.172,94.556L188.674,94.556L189.212,94.556L190.294,94.556L190.835,94.556L191.407,94.556L191.911,94.556L192.446,94.556L193.534,94.556L194.085,94.556L194.659,94.556L195.156,94.556L195.682,94.556L196.764,94.556L197.312,94.556L197.91,94.556L198.39,94.556L198.919,94.556L199.999,94.556" stroke="#bab0ac" stroke-width="2"/></g></g><path class="foreground" aria-hidden="true" d="" display="none"/></g><g transform="translate(0,0)"><path class="background" aria-hidden="true" d="M0,0h200v200h-200Z"/><g><g class="mark-line role-mark marks" role="graphics-object" aria-roledescription="line mark container"><path aria-label="Time: Aug 27, 2025; Price: 999; identifier: allure-rs-2-2024" role="graphics-symbol" aria-roledescription="line mark" d="M42.293,89L42.655,89L43.016,89L43.157,89L43.687,89L44.767,89L45.315,89L45.891,89L46.391,89L46.919,89L48.001,89L48.547,89L49.121,89L49.623,89L50.151,89L53.358,111.222L53.383,111.222L54.466,111.222L54.812,111.222L55.006,111.222L55.581,111.222L56.085,111.222L56.619,111.222L57.711,111.222L58.254,111.222L58.828,111.222L59.324,111.222L59.852,111.222L60.94,111.222L61.486,111.222L62.064,111.222L62.56,111.222L63.088,111.222L64.169,111.222L64.715,111.222L65.291,111.222L65.792,111.222L66.321,111.222L67.403,111.222L67.95,111.222L68.522,111.222L69.028,111.222L69.554,111.222L70.638,111.222L71.184,111.222L71.758,111.222L72.256,111.222L72.789,111.222L73.868,111.222L74.146,111.222L74.408,111.222L74.979,111.222L75.485,111.222L76.022,111.222L77.101,111.222L77.642,111.222L78.215,111.222L78.719,111.222L79.255,111.222L80.341,111.222L80.891,111.222L81.468,111.222L81.965,111.222L82.494,111.222L83.574,111.222L84.124,111.222L84.72,111.222L85.201,111.222L85.725,111.222L86.803,111.222L87.355,111.222L87.928,111.222L88.43,111.222L88.96,111.222L90.042,111.222L90.587,111.222L91.161,111.222L91.657,111.222L92.191,111.222L93.273,111.222L93.82,111.222L94.393,111.222L94.893,111.222L95.425,111.222L96.505,111.222L97.046,111.222L97.618,111.222L98.121,111.222L98.66,111.222L99.74,111.222L100.281,111.222L100.849,111.222L101.354,111.222L101.894,111.222L102.98,111.222L103.525,111.222L104.103,111.222L104.601,111.222L105.13,111.222L106.211,111.222L106.761,111.222L107.336,111.222L107.834,111.222L108.364,111.222L109.446,111.222L109.993,111.222L110.57,111.222L111.068,111.222L111.598,111.222L112.679,111.222L113.226,111.222L113.803,111.222L114.3,111.222L114.832,111.222L115.914,111.222L116.46,111.222L117.036,111.222L117.536,111.222L118.064,111.222L119.145,111.222L119.688,111.222L120.26,111.222L120.76,111.222L121.297,111.222L122.38,111.222L122.919,111.222L123.493,111.222L123.997,111.222L124.533,111.222L125.616,111.222L126.167,111.222L126.742,111.222L127.233,111.222L127.769,111.222L128.849,111.222L129.398,111.222L129.974,111.222L130.475,111.222L131.003,111.222L132.084,111.222L132.633,111.222L133.208,111.222L133.711,111.222L134.235,111.222L135.318,111.222L135.868,111.222L136.445,111.222L136.944,111.222L137.468,111.222L138.551,111.222L139.101,111.222L139.675,111.222L140.175,111.222L140.703,111.222L141.784,111.222L142.324,111.222L142.896,111.222L143.4,111.222L143.937,111.222L145.018,111.222L145.558,111.222L146.131,111.222L146.632,111.222L147.17,111.222L148.256,111.222L148.806,111.222L149.382,111.222L149.866,111.222L150.406,111.222L151.488,111.222L152.042,111.222L152.616,111.222L153.111,111.222L153.64,111.222L154.724,111.222L155.273,111.222L155.85,111.222L156.346,111.222L156.875,111.222L157.954,111.222L158.501,111.222L159.076,111.222L159.58,111.222L160.107,111.222L161.187,111.222L161.735,111.222L162.308,111.222L162.812,111.222L163.34,111.222L164.42,111.222L164.963,111.222L165.533,111.222L166.039,111.222L166.574,111.222L167.653,111.222L168.195,111.222L168.769,111.222L169.273,111.222L169.809,111.222L170.891,111.222L171.441,111.222L172.018,111.222L172.516,111.222L173.046,111.222L174.125,111.222L174.673,111.222L175.252,111.222L175.75,111.222L176.279,111.222L177.36,111.222L177.91,111.222L178.487,111.222L178.984,111.222L179.513,111.222L180.596,111.222L181.145,111.222L181.722,111.222L182.224,111.222L182.748,111.222L183.828,111.222L184.376,111.222L184.951,111.222L185.451,111.222L185.981,111.222L187.06,111.222L187.6,111.222L188.172,111.222L188.674,111.222L189.212,111.222L190.294,111.222L190.835,111.222L191.407,111.222L191.911,111.222L192.446,111.222L193.535,111.222L194.085,111.222L194.659,111.222L195.156,111.222L195.682,111.222L196.764,111.222L197.313,111.222L197.91,111.222L198.39,111.222L198.919,111.222L200,111.222" stroke="#eeca3b" stroke-width="2"/></g></g><path class="foreground" aria-hidden="true" d="" display="none"/></g><g transform="translate(0,0)"><path class="background" aria-hidden="true" d="M0,0h200v200h-200Z"/><g><g class="mark-line role-mark marks" role="graphics-object" aria-roledescription="line mark container"><path aria-label="Time: Aug 27, 2025; Price: 1799; identifier: devote-1-2024" role="graphics-symbol" aria-roledescription="line mark" d="M43.016,0.111L43.157,0.111L43.687,0.111L44.767,0.111L45.315,0.111L45.891,0.111L46.391,0.111L46.919,0.111L48.001,0.111L48.547,0.111L49.121,0.111L49.624,0.111L50.152,0.111L53.358,44.556L53.383,44.556L54.466,44.556L54.812,44.556L55.006,44.556L55.581,44.556L56.085,44.556L56.619,44.556L57.711,44.556L58.254,44.556L58.828,44.556L59.324,44.556L59.852,44.556L60.94,44.556L61.486,44.556L62.064,44.556L62.56,44.556L63.088,44.556L64.169,44.556L64.715,44.556L65.291,44.556L65.792,44.556L66.321,44.556L67.403,44.556L67.951,44.556L68.522,44.556L69.029,44.556L69.554,44.556L70.638,44.556L71.184,44.556L71.758,44.556L72.256,44.556L72.789,44.556L73.869,44.556L74.146,44.556L74.408,44.556L74.979,44.556L75.485,44.556L76.022,44.556L77.102,44.556L77.642,44.556L78.215,44.556L78.719,44.556L79.255,44.556L80.341,44.556L80.891,44.556L81.468,44.556L81.965,44.556L82.494,44.556L83.574,44.556L84.124,44.556L84.72,44.556L85.201,44.556L85.725,44.556L86.803,44.556L87.355,44.556L87.928,44.556L88.43,44.556L88.96,44.556L90.042,44.556L90.588,44.556L91.161,44.556L91.657,44.556L92.191,44.556L93.273,44.556L93.82,44.556L94.393,44.556L94.893,44.556L95.425,44.556L96.505,44.556L97.047,44.556L97.618,44.556L98.121,44.556L98.66,44.556L99.74,44.556L100.281,44.556L100.849,44.556L101.354,44.556L101.894,44.556L102.98,44.556L103.525,44.556L104.103,44.556L104.602,44.556L105.131,44.556L106.211,44.556L106.762,44.556L107.336,44.556L107.834,44.556L108.364,44.556L109.446,44.556L109.993,44.556L110.57,44.556L111.068,44.556L111.598,44.556L112.68,44.556L113.226,44.556L113.803,44.556L114.301,44.556L114.832,44.556L115.914,44.556L116.46,44.556L117.036,44.556L117.536,44.556L118.064,44.556L119.145,44.556L119.688,44.556L120.26,44.556L120.76,44.556L121.297,44.556L122.38,44.556L122.92,44.556L123.493,44.556L123.997,44.556L124.533,44.556L125.616,44.556L126.167,44.556L126.742,44.556L127.233,44.556L127.769,44.556L128.849,44.556L129.398,44.556L129.974,44.556L130.475,44.556L131.003,44.556L132.084,44.556L132.633,44.556L133.208,44.556L133.711,44.556L134.235,44.556L135.319,44.556L135.868,44.556L136.445,44.556L136.944,44.556L137.468,44.556L138.551,44.556L139.101,44.556L139.675,44.556L140.175,44.556L140.703,44.556L141.784,44.556L142.324,44.556L142.896,44.556L143.4,44.556L143.937,44.556L145.019,44.556L145.558,44.556L146.132,44.556L146.632,44.556L147.17,44.556L148.256,44.556L148.806,44.556L149.382,44.556L149.866,44.556L150.406,44.556L151.488,44.556L152.042,44.556L152.616,44.556L153.111,44.556L153.64,44.556L154.724,44.556L155.273,44.556L155.85,44.556L156.346,44.556L156.875,44.556L157.954,44.556L158.502,44.556L159.076,44.556L159.58,44.556L160.107,44.556L161.187,44.556L161.735,44.556L162.308,44.556L162.812,44.556L163.34,44.556L164.42,44.556L164.963,44.556L165.534,44.556L166.039,44.556L166.574,44.556L167.653,44.556L168.195,44.556L168.769,44.556L169.273,44.556L169.809,44.556L170.891,44.556L171.441,44.556L172.018,44.556L172.517,44.556L173.046,44.556L174.125,44.556L174.674,44.556L175.252,44.556L175.75,44.556L176.279,44.556L177.361,44.556L177.911,44.556L178.487,44.556L178.985,44.556L179.513,44.556L180.596,44.556L181.145,44.556L181.722,44.556L182.224,44.556L182.748,44.556L183.828,44.556L184.376,44.556L184.951,44.556L185.451,44.556L185.981,44.556L187.06,44.556L187.601,44.556L188.172,44.556L188.674,44.556L189.212,44.556L190.294,44.556L190.835,44.556L191.407,44.556L191.911,44.556L192.446,44.556L193.535,44.556L194.085,44.556L194.659,44.556L195.156,44.556L195.682,44.556L196.764,44.556L197.313,44.556L197.91,44.556L198.39,44.556L198.919,44.556L200,44.556" stroke="#72b7b2" stroke-width="2"/></g></g><path class="foreground" aria-hidden="true" d="" display="none"/></g><g transform="translate(0,0)"><path class="background" aria-hidden="true" d="M0,0h200v200h-200Z"/><g><g class="mark-line role-mark marks" role="graphics-object" aria-roledescription="line mark container"><path aria-label="Time: Aug 27, 2025; Price: 1699; identifier: devote-1-2022" role="graphics-symbol" aria-roledescription="line mark" d="M43.016,11.222L43.157,11.222L43.687,11.222L44.767,11.222L45.315,11.222L45.891,11.222L46.391,11.222L46.919,11.222L48.001,11.222L48.547,11.222L49.121,11.222L49.624,11.222L50.152,11.222L51.231,11.222L51.773,11.222L52.345,11.222L52.85,11.222L53.359,11.222L53.383,11.222L54.467,11.222L54.812,11.222L55.006,11.222L55.581,11.222L56.086,11.222L56.619,11.222L57.711,11.222L58.254,11.222L58.828,11.222L59.324,11.222L59.852,11.222L60.94,11.222L61.487,11.222L62.065,11.222L62.56,11.222L63.088,11.222L64.17,11.222L64.715,11.222L65.291,11.222L65.792,11.222L66.321,11.222L67.403,11.222L67.951,11.222L68.522,11.222L69.029,11.222L69.555,11.222L70.638,11.222L71.184,11.222L71.758,11.222L72.256,11.222L72.789,11.222L73.869,11.222L74.146,11.222L74.408,11.222L74.979,11.222L75.485,11.222L76.022,11.222L77.102,11.222L77.642,11.222L78.215,11.222L78.719,11.222L79.256,11.222L80.341,11.222L80.891,11.222L81.468,11.222L81.965,11.222L82.494,11.222L83.574,11.222L84.124,11.222L84.72,11.222L85.201,11.222L85.725,11.222L86.803,11.222L87.355,11.222L87.928,11.222L88.43,11.222L88.96,11.222L90.042,11.222L90.588,11.222L91.161,11.222L91.658,11.222L92.191,11.222L93.273,11.222L93.821,11.222L94.394,11.222L94.893,11.222L95.425,11.222L96.505,11.222L97.047,11.222L97.618,11.222L98.121,11.222L98.66,11.222L99.74,11.222L100.281,11.222L100.849,11.222L101.354,11.222L101.894,11.222L102.98,11.222L103.525,11.222L104.103,11.222L104.602,11.222L105.131,11.222L106.211,11.222L106.762,11.222L107.336,11.222L107.834,11.222L108.364,11.222L109.446,11.222L109.993,11.222L110.57,11.222L111.069,11.222L111.598,11.222L112.68,11.222L113.226,11.222L113.803,11.222L114.301,11.222L114.832,11.222L115.914,11.222L116.46,11.222L117.036,11.222L117.536,11.222L118.064,11.222L119.145,11.222L119.688,11.222L120.26,11.222L120.76,11.222L121.297,11.222L122.381,11.222L122.92,11.222L123.493,11.222L123.997,11.222L124.533,11.222L125.616,11.222L126.167,11.222L126.742,11.222L127.233,11.222L127.77,11.222L128.849,11.222L129.398,11.222L129.974,11.222L130.475,11.222L131.003,11.222L132.084,11.222L132.633,11.222L133.208,11.222L133.711,11.222L134.235,11.222L135.319,11.222L135.869,11.222L136.445,11.222L136.944,11.222L137.468,11.222L138.551,11.222L139.101,11.222L139.675,11.222L140.175,11.222L140.703,11.222L141.785,11.222L142.324,11.222L142.896,11.222L143.4,11.222L143.937,11.222L145.019,11.222L145.558,11.222L146.132,11.222L146.632,11.222L147.17,11.222L148.256,11.222L148.806,11.222L149.382,11.222L149.866,11.222L150.406,11.222L151.488,11.222L152.042,11.222L152.616,11.222L153.111,11.222L153.64,11.222L154.724,11.222L155.273,11.222L155.85,11.222L156.347,11.222L156.875,11.222L157.954,11.222L158.502,11.222L159.076,11.222L159.58,11.222L160.107,11.222L161.187,11.222L161.736,11.222L162.309,11.222L162.812,11.222L163.34,11.222L164.42,11.222L164.963,11.222L165.534,11.222L166.039,11.222L166.574,11.222L167.653,11.222L168.195,11.222L168.769,11.222L169.273,11.222L169.809,11.222L170.891,11.222L171.441,11.222L172.018,11.222L172.517,11.222L173.046,11.222L174.125,11.222L174.674,11.222L175.252,11.222L175.75,11.222L176.279,11.222L177.361,11.222L177.911,11.222L178.487,11.222L178.985,11.222L179.513,11.222L180.596,11.222L181.145,11.222L181.722,11.222L182.224,11.222L182.748,11.222L183.829,11.222L184.376,11.222L184.951,11.222L185.451,11.222L185.981,11.222L187.06,11.222L187.601,11.222L188.172,11.222L188.675,11.222L189.212,11.222L190.294,11.222L190.835,11.222L191.407,11.222L191.912,11.222L192.446,11.222L193.535,11.222L194.086,11.222L194.659,11.222L195.156,11.222L195.682,11.222L196.764,11.222L197.313,11.222L197.91,11.222L198.39,11.222L198.919,11.222L200,11.222" stroke="#4c78a8" stroke-width="2"/></g></g><path class="foreground" aria-hidden="true" d="" display="none"/></g><g transform="translate(0,0)"><path class="background" aria-hidden="true" d="M0,0h200v200h-200Z"/><g><g class="mark-line role-mark marks" role="graphics-object" aria-roledescription="line mark container"><path aria-label="Time: Aug 31, 2025; Price: 1599; identifier: silex-400-oak-bork-2026" role="graphics-symbol" aria-roledescription="line mark" d="M54.812,22.333L55.006,22.333L55.581,22.333L56.086,22.333L56.619,22.333L57.711,22.333L58.255,22.333L58.829,22.333L59.324,22.333L59.852,22.333L60.94,22.333L61.487,22.333L62.065,22.333L62.56,22.333L63.088,22.333L64.17,22.333L64.715,22.333L65.292,22.333L65.792,22.333L66.321,22.333L67.403,22.333L67.951,22.333L68.523,22.333L69.029,22.333L69.555,22.333L70.638,22.333L71.184,22.333L71.758,22.333L72.257,22.333L72.79,22.333L73.869,22.333L74.146,22.333L74.409,22.333L74.979,22.333L75.485,22.333L76.022,22.333L77.102,22.333L77.642,22.333L78.215,22.333L78.719,22.333L79.256,22.333L80.341,22.333L80.891,22.333L81.468,22.333L81.965,22.333L82.495,22.333L83.574,22.333L84.124,22.333L84.72,22.333L85.201,22.333L85.725,22.333L86.804,22.333L87.355,22.333L87.928,22.333L88.43,22.333L88.96,22.333L90.042,22.333L90.588,22.333L91.161,22.333L91.658,22.333L92.192,22.333L93.273,22.333L93.821,22.333L94.394,22.333L94.893,22.333L95.425,22.333L96.505,22.333L97.047,22.333L97.618,22.333L98.121,22.333L98.66,22.333L99.741,22.333L100.281,22.333L100.849,22.333L101.354,22.333L101.894,22.333L102.98,22.333L103.525,22.333L104.103,22.333L104.602,22.333L105.131,22.333L106.211,22.333L106.762,22.333L107.336,22.333L107.834,22.333L108.365,22.333L109.446,22.333L109.993,22.333L110.57,22.333L111.069,22.333L111.598,22.333L112.68,22.333L113.226,22.333L113.804,22.333L114.301,22.333L114.832,22.333L115.914,22.333L116.46,22.333L117.036,22.333L117.537,22.333L118.064,22.333L119.146,22.333L119.688,22.333L120.26,22.333L120.761,22.333L121.297,22.333L122.381,22.333L122.92,22.333L123.493,22.333L123.997,22.333L124.533,22.333L125.616,22.333L126.167,22.333L126.743,22.333L127.234,22.333L127.77,22.333L128.85,22.333L129.398,22.333L129.974,22.333L130.475,22.333L131.003,22.333L132.085,22.333L132.634,22.333L133.209,22.333L133.711,22.333L134.235,22.333L135.319,22.333L135.869,22.333L136.445,22.333L136.944,22.333L137.468,22.333L138.551,22.333L139.101,22.333L139.676,22.333L140.175,22.333L140.703,22.333L141.785,22.333L142.324,22.333L142.896,22.333L143.401,22.333L143.938,22.333L145.019,22.333L145.558,22.333L146.132,22.333L146.632,22.333L147.17,22.333L148.256,22.333L148.806,22.333L149.382,22.333L149.866,22.333L150.406,22.333L151.488,22.333L152.042,22.333L152.616,22.333L153.111,22.333L153.641,22.333L154.724,22.333L155.273,22.333L155.851,22.333L156.347,22.333L156.875,22.333L157.954,22.333L158.502,22.333L159.076,22.333L159.58,22.333L160.107,22.333L161.187,22.333L161.736,22.333L162.309,22.333L162.812,22.333L163.341,22.333L164.42,22.333L164.963,22.333L165.534,22.333L166.039,22.333L166.574,22.333L167.653,22.333L168.195,22.333L168.769,22.333L169.273,22.333L169.809,22.333L170.892,22.333L171.441,22.333L172.018,22.333L172.517,22.333L173.046,22.333L174.125,22.333L174.674,22.333L175.252,22.333L175.75,22.333L176.279,22.333L177.361,22.333L177.911,22.333L178.487,22.333L178.985,22.333L179.513,22.333L180.596,22.333L181.145,22.333L181.722,22.333L182.224,22.333L182.748,22.333L183.829,22.333L184.376,22.333L184.952,22.333L185.452,22.333L185.982,22.333L187.06,22.333L187.601,22.333L188.172,22.333L188.675,22.333L189.213,22.333L190.294,22.333L190.835,22.333L191.407,22.333L191.912,22.333L192.447,22.333L193.535,22.333L194.086,22.333L194.659,22.333L195.157,22.333L195.683,22.333L196.764,22.333L197.313,22.333L197.91,22.333L198.39,22.333L198.919,22.333L200,22.333" stroke="#f58518" stroke-width="2"/></g></g><path class="foreground" aria-hidden="true" d="" display="none"/></g><g transform="translate(0,0)"><path class="background" aria-hidden="true" d="M0,0h200v200h-200Z"/><g><g class="mark-line role-mark marks" role="graphics-object" aria-roledescription="line mark container"><path aria-label="Time: Aug 31, 2025; Price: 1599; identifier: silex-400-warm-slate-grey-2026" role="graphics-symbol" aria-roledescription="line mark" d="M54.812,22.333L55.006,22.333L55.581,22.333L56.086,22.333L56.619,22.333L57.711,22.333L58.255,22.333L58.829,22.333L59.324,22.333L59.852,22.333L60.94,22.333L61.487,22.333L62.065,22.333L62.56,22.333L63.089,22.333L64.17,22.333L64.716,22.333L65.292,22.333L65.792,22.333L66.321,22.333L67.403,22.333L67.951,22.333L68.523,22.333L69.029,22.333L69.555,22.333L70.638,22.333L71.184,22.333L71.758,22.333L72.257,22.333L72.79,22.333L73.869,22.333L74.146,22.333L74.409,22.333L74.979,22.333L75.485,22.333L76.022,22.333L77.102,22.333L77.642,22.333L78.215,22.333L78.72,22.333L79.256,22.333L80.342,22.333L80.892,22.333L81.468,22.333L81.965,22.333L82.495,22.333L83.574,22.333L84.124,22.333L84.721,22.333L85.201,22.333L85.725,22.333L86.804,22.333L87.355,22.333L87.928,22.333L88.43,22.333L88.961,22.333L90.042,22.333L90.588,22.333L91.161,22.333L91.658,22.333L92.192,22.333L93.273,22.333L93.821,22.333L94.394,22.333L94.893,22.333L95.426,22.333L96.505,22.333L97.047,22.333L97.618,22.333L98.121,22.333L98.66,22.333L99.741,22.333L100.281,22.333L100.85,22.333L101.354,22.333L101.894,22.333L102.98,22.333L103.525,22.333L104.103,22.333L104.602,22.333L105.131,22.333L106.211,22.333L106.762,22.333L107.336,22.333L107.834,22.333L108.365,22.333L109.446,22.333L109.993,22.333L110.571,22.333L111.069,22.333L111.598,22.333L112.68,22.333L113.226,22.333L113.804,22.333L114.301,22.333L114.832,22.333L115.914,22.333L116.46,22.333L117.036,22.333L117.537,22.333L118.064,22.333L119.146,22.333L119.689,22.333L120.261,22.333L120.761,22.333L121.297,22.333L122.381,22.333L122.92,22.333L123.494,22.333L123.997,22.333L124.533,22.333L125.617,22.333L126.167,22.333L126.743,22.333L127.234,22.333L127.77,22.333L128.85,22.333L129.399,22.333L129.974,22.333L130.475,22.333L131.004,22.333L132.085,22.333L132.634,22.333L133.21,22.333L133.711,22.333L134.235,22.333L135.319,22.333L135.869,22.333L136.445,22.333L136.945,22.333L137.469,22.333L138.551,22.333L139.101,22.333L139.676,22.333L140.175,22.333L140.703,22.333L141.785,22.333L142.324,22.333L142.897,22.333L143.401,22.333L143.938,22.333L145.019,22.333L145.558,22.333L146.132,22.333L146.632,22.333L147.17,22.333L148.256,22.333L148.807,22.333L149.383,22.333L149.866,22.333L150.406,22.333L151.489,22.333L152.042,22.333L152.616,22.333L153.111,22.333L153.641,22.333L154.725,22.333L155.273,22.333L155.851,22.333L156.347,22.333L156.875,22.333L157.954,22.333L158.502,22.333L159.076,22.333L159.58,22.333L160.107,22.333L161.187,22.333L161.736,22.333L162.309,22.333L162.812,22.333L163.341,22.333L164.421,22.333L164.963,22.333L165.534,22.333L166.039,22.333L166.575,22.333L167.653,22.333L168.195,22.333L168.769,22.333L169.273,22.333L169.809,22.333L170.892,22.333L171.441,22.333L172.018,22.333L172.517,22.333L173.046,22.333L174.125,22.333L174.674,22.333L175.253,22.333L175.751,22.333L176.279,22.333L177.361,22.333L177.911,22.333L178.488,22.333L178.985,22.333L179.514,22.333L180.596,22.333L181.145,22.333L181.723,22.333L182.224,22.333L182.748,22.333L183.829,22.333L184.376,22.333L184.952,22.333L185.452,22.333L185.982,22.333L187.06,22.333L187.601,22.333L188.172,22.333L188.675,22.333L189.213,22.333L190.294,22.333L190.835,22.333L191.407,22.333L191.912,22.333L192.447,22.333L193.535,22.333L194.086,22.333L194.659,22.333L195.157,22.333L195.683,22.333L196.764,22.333L197.313,22.333L197.91,22.333L198.39,22.333L198.92,22.333L200,22.333" stroke="#e45756" stroke-width="2"/></g></g><path class="foreground" aria-hidden="true" d="" display="none"/></g></g><g class="mark-group role-legend" role="graphics-symbol" aria-roledescription="legend" aria-label="Symbol legend titled 'identifier' for stroke color with 16 values: devote-1-2022, silex-400-oak-bork-2026, silex-400-warm-slate-grey-2026, devote-1-2024, fastroad-ar-2, ending with allure-rs-2-2024"><g transform="translate(220,0)"><path class="background" aria-hidden="true" d="M0,0h256v222h-256Z" pointer-events="none"/><g><g class="mark-group role-legend-entry"><g transform="translate(0,16)"><path class="background" aria-hidden="true" d="M0,0h0v0h0Z" pointer-events="none"/><g><g class="mark-group role-scope" role="graphics-object" aria-roledescription="group mark container"><g transform="translate(0,0)"><path class="background" aria-hidden="true" d="M0,0h256v11h-256Z" pointer-events="none" opacity="1"/><g><g class="mark-symbol role-legend-symbol" pointer-events="none"><path transform="translate(6,6)" d="M-5,0L5,0" stroke="#4c78a8" stroke-width="1.5" opacity="1"/></g><g class="mark-text role-legend-label" pointer-events="none"><text text-anchor="start" transform="translate(16,9)" font-family="Liberation Mono" font-size="10px" fill="#000" opacity="1">devote-1-2022</text></g></g><path class="foreground" aria-hidden="true" d="" pointer-events="none" display="none"/></g><g transform="translate(0,13)"><path class="background" aria-hidden="true" d="M0,0h256v11h-256Z" pointer-events="none" opacity="1"/><g><g class="mark-symbol role-legend-symbol" pointer-events="none"><path transform="translate(6,6)" d="M-5,0L5,0" stroke="#f58518" stroke-width="1.5" opacity="1"/></g><g class="mark-text role-legend-label" pointer-events="none"><text text-anchor="start" transform="translate(16,9)" font-family="Liberation Mono" font-size="10px" fill="#000" opacity="1">silex-400-oak-bork-2026</text></g></g><path class="foreground" aria-hidden="true" d="" pointer-events="none" display="none"/></g><g transform="translate(0,26)"><path class="background" aria-hidden="true" d="M0,0h256v11h-256Z" pointer-events="none" opacity="1"/><g><g class="mark-symbol role-legend-symbol" pointer-events="none"><path transform="translate(6,6)" d="M-5,0L5,0" stroke="#e45756" stroke-width="1.5" opacity="1"/></g><g class="mark-text role-legend-label" pointer-events="none"><text text-anchor="start" transform="translate(16,9)" font-family="Liberation Mono" font-size="10px" fill="#000" opacity="1">silex-400-warm-slate-grey-2026</text></g></g><path class="foreground" aria-hidden="true" d="" pointer-events="none" display="none"/></g><g transform="translate(0,39)"><path class="background" aria-hidden="true" d="M0,0h256v11h-256Z" pointer-events="none" opacity="1"/><g><g class="mark-symbol role-legend-symbol" pointer-events="none"><path transform="translate(6,6)" d="M-5,0L5,0" stroke="#72b7b2" stroke-width="1.5" opacity="1"/></g><g class="mark-text role-legend-label" pointer-events="none"><text text-anchor="start" transform="translate(16,9)" font-family="Liberation Mono" font-size="10px" fill="#000" opacity="1">devote-1-2024</text></g></g><path class="foreground" aria-hidden="true" d="" pointer-events="none" display="none"/></g><g transform="translate(0,52)"><path class="background" aria-hidden="true" d="M0,0h256v11h-256Z" pointer-events="none" opacity="1"/><g><g class="mark-symbol role-legend-symbol" pointer-events="none"><path transform="translate(6,6)" d="M-5,0L5,0" stroke="#54a24b" stroke-width="1.5" opacity="1"/></g><g class="mark-text role-legend-label" pointer-events="none"><text text-anchor="start" transform="translate(16,9)" font-family="Liberation Mono" font-size="10px" fill="#000" opacity="1">fastroad-ar-2</text></g></g><path class="foreground" aria-hidden="true" d="" pointer-events="none" display="none"/></g><g transform="translate(0,65)"><path class="background" aria-hidden="true" d="M0,0h256v11h-256Z" pointer-events="none" opacity="1"/><g><g class="mark-symbol role-legend-symbol" pointer-events="none"><path transform="translate(6,6)" d="M-5,0L5,0" stroke="#eeca3b" stroke-width="1.5" opacity="1"/></g><g class="mark-text role-legend-label" pointer-events="none"><text text-anchor="start" transform="translate(16,9)" font-family="Liberation Mono" font-size="10px" fill="#000" opacity="1">thrive-2</text></g></g><path class="foreground" aria-hidden="true" d="" pointer-events="none" display="none"/></g><g transform="translate(0,78)"><path class="background" aria-hidden="true" d="M0,0h256v11h-256Z" pointer-events="none" opacity="1"/><g><g class="mark-symbol role-legend-symbol" pointer-events="none"><path transform="translate(6,6)" d="M-5,0L5,0" stroke="#b279a2" stroke-width="1.5" opacity="1"/></g><g class="mark-text role-legend-label" pointer-events="none"><text text-anchor="start" transform="translate(16,9)" font-family="Liberation Mono" font-size="10px" fill="#000" opacity="1">allure-rs-1-2023</text></g></g><path class="foreground" aria-hidden="true" d="" pointer-events="none" display="none"/></g><g transform="translate(0,91)"><path class="background" aria-hidden="true" d="M0,0h256v11h-256Z" pointer-events="none" opacity="1"/><g><g class="mark-symbol role-legend-symbol" pointer-events="none"><path transform="translate(6,6)" d="M-5,0L5,0" stroke="#ff9da6" stroke-width="1.5" opacity="1"/></g><g class="mark-text role-legend-label" pointer-events="none"><text text-anchor="start" transform="translate(16,9)" font-family="Liberation Mono" font-size="10px" fill="#000" opacity="1">roam-2</text></g></g><path class="foreground" aria-hidden="true" d="" pointer-events="none" display="none"/></g><g transform="translate(0,104)"><path class="background" aria-hidden="true" d="M0,0h256v11h-256Z" pointer-events="none" opacity="1"/><g><g class="mark-symbol role-legend-symbol" pointer-events="none"><path transform="translate(6,6)" d="M-5,0L5,0" stroke="#9d755d" stroke-width="1.5" opacity="1"/></g><g class="mark-text role-legend-label" pointer-events="none"><text text-anchor="start" transform="translate(16,9)" font-family="Liberation Mono" font-size="10px" fill="#000" opacity="1">fastroad-sl-3-2022</text></g></g><path class="foreground" aria-hidden="true" d="" pointer-events="none" display="none"/></g><g transform="translate(0,117)"><path class="background" aria-hidden="true" d="M0,0h256v11h-256Z" pointer-events="none" opacity="1"/><g><g class="mark-symbol role-legend-symbol" pointer-events="none"><path transform="translate(6,6)" d="M-5,0L5,0" stroke="#bab0ac" stroke-width="1.5" opacity="1"/></g><g class="mark-text role-legend-label" pointer-events="none"><text text-anchor="start" transform="translate(16,9)" font-family="Liberation Mono" font-size="10px" fill="#000" opacity="1">allure-rs-2-2023</text></g></g><path class="foreground" aria-hidden="true" d="" pointer-events="none" display="none"/></g><g transform="translate(0,130)"><path class="background" aria-hidden="true" d="M0,0h256v11h-256Z" pointer-events="none" opacity="1"/><g><g class="mark-symbol role-legend-symbol" pointer-events="none"><path transform="translate(6,6)" d="M-5,0L5,0" stroke="#4c78a8" stroke-width="1.5" opacity="1"/></g><g class="mark-text role-legend-label" pointer-events="none"><text text-anchor="start" transform="translate(16,9)" font-family="Liberation Mono" font-size="10px" fill="#000" opacity="1">escape-city-disc-1-2024</text></g></g><path class="foreground" aria-hidden="true" d="" pointer-events="none" display="none"/></g><g transform="translate(0,143)"><path class="background" aria-hidden="true" d="M0,0h256v11h-256Z" pointer-events="none" opacity="1"/><g><g class="mark-symbol role-legend-symbol" pointer-events="none"><path transform="translate(6,6)" d="M-5,0L5,0" stroke="#f58518" stroke-width="1.5" opacity="1"/></g><g class="mark-text role-legend-label" pointer-events="none"><text text-anchor="start" transform="translate(16,9)" font-family="Liberation Mono" font-size="10px" fill="#000" opacity="1">sdrbike-escape-1-city-disc</text></g></g><path class="foreground" aria-hidden="true" d="" pointer-events="none" display="none"/></g><g transform="translate(0,156)"><path class="background" aria-hidden="true" d="M0,0h256v11h-256Z" pointer-events="none" opacity="1"/><g><g class="mark-symbol role-legend-symbol" pointer-events="none"><path transform="translate(6,6)" d="M-5,0L5,0" stroke="#e45756" stroke-width="1.5" opacity="1"/></g><g class="mark-text role-legend-label" pointer-events="none"><text text-anchor="start" transform="translate(16,9)" font-family="Liberation Mono" font-size="10px" fill="#000" opacity="1">roam-disc-2-2024</text></g></g><path class="foreground" aria-hidden="true" d="" pointer-events="none" display="none"/></g><g transform="translate(0,169)"><path class="background" aria-hidden="true" d="M0,0h256v11h-256Z" pointer-events="none" opacity="1"/><g><g class="mark-symbol role-legend-symbol" pointer-events="none"><path transform="translate(6,6)" d="M-5,0L5,0" stroke="#72b7b2" stroke-width="1.5" opacity="1"/></g><g class="mark-text role-legend-label" pointer-events="none"><text text-anchor="start" transform="translate(16,9)" font-family="Liberation Mono" font-size="10px" fill="#000" opacity="1">rove-2</text></g></g><path class="foreground" aria-hidden="true" d="" pointer-events="none" display="none"/></g><g transform="translate(0,182)"><path class="background" aria-hidden="true" d="M0,0h256v11h-256Z" pointer-events="none" opacity="1"/><g><g class="mark-symbol role-legend-symbol" pointer-events="none"><path transform="translate(6,6)" d="M-5,0L5,0" stroke="#54a24b" stroke-width="1.5" opacity="1"/></g><g class="mark-text role-legend-label" pointer-events="none"><text text-anchor="start" transform="translate(16,9)" font-family="Liberation Mono" font-size="10px" fill="#000" opacity="1">allure-rs-2-2022</text></g></g><path class="foreground" aria-hidden="true" d="" pointer-events="none" display="none"/></g><g transform="translate(0,195)"><path class="background" aria-hidden="true" d="M0,0h256v11h-256Z" pointer-events="none" opacity="1"/><g><g class="mark-symbol role-legend-symbol" pointer-events="none"><path transform="translate(6,6)" d="M-5,0L5,0" stroke="#eeca3b" stroke-width="1.5" opacity="1"/></g><g class="mark-text role-legend-label" pointer-events="none"><text text-anchor="start" transform="translate(16,9)" font-family="Liberation Mono" font-size="10px" fill="#000" opacity="1">allure-rs-2-2024</text></g></g><path class="foreground" aria-hidden="true" d="" pointer-events="none" display="none"/></g></g></g><path class="foreground" aria-hidden="true" d="" pointer-events="none" display="none"/></g></g><g class="mark-text role-legend-title" pointer-events="none"><text text-anchor="start" transform="translate(0,9)" font-family="Liberation Mono" font-size="11px" font-weight="bold" fill="#000" opacity="1">identifier</text></g></g><path class="foreground" aria-hidden="true" d="" pointer-events="none" display="none"/></g></g></g><path class="foreground" aria-hidden="true" d="" display="none"/></g></g></g></svg>