<svg xmlns="http://www.w3.org/2000/svg" xmlns:xlink="http://www.w3.org/1999/xlink" version="1.1" class="marks" width="548" height="244" viewBox="0 0 548 244"><rect width="548" height="244" fill="white"/><g fill="none" stroke-miterlimit="10" transform="translate(67,7)"><g class="mark-group role-frame root" role="graphics-object" aria-roledescription="group mark container"><g transform="translate(0,0)"><path class="background" aria-hidden="true" d="M0.5,0.5h200v200h-200Z" stroke="#ddd"/><g><g class="mark-group role-axis" aria-hidden="true"><g transform="translate(0.5,200.5)"><path class="background" aria-hidden="true" d="M0,0h0v0h0Z" pointer-events="none"/><g><g class="mark-rule role-axis-grid" pointer-events="none"><line transform="translate(9,-200)" x2="0" y2="200" stroke="#ddd" stroke-width="1" opacity="1"/><line transform="translate(32,-200)" x2="0" y2="200" stroke="#ddd" stroke-width="1" opacity="1"/><line transform="translate(55,-200)" x2="0" y2="200" stroke="#ddd" stroke-width="1" opacity="1"/><line transform="translate(78,-200)" x2="0" y2="200" stroke="#ddd" stroke-width="1" opacity="1"/><line transform="translate(101,-200)" x2="0" y2="200" stroke="#ddd" stroke-width="1" opacity="1"/><line transform="translate(124,-200)" x2="0" y2="200" stroke="#ddd" stroke-width="1" opacity="1"/><line transform="translate(147,-200)" x2="0" y2="200" stroke="#ddd" stroke-width="1" opacity="1"/><line transform="translate(170,-200)" x2="0" y2="200" stroke="#ddd" stroke-width="1" opacity="1"/><line transform="translate(193,-200)" x2="0" y2="200" stroke="#ddd" stroke-width="1" opacity="1"/></g></g><path class="foreground" aria-hidden="true" d="" pointer-events="none" display="none"/></g></g><g class="mark-group role-axis" aria-hidden="true"><g transform="translate(0.5,0.5)"><path class="background" aria-hidden="true" d="M0,0h0v0h0Z" pointer-events="none"/><g><g class="mark-rule role-axis-grid" pointer-events="none"><line transform="translate(0,200)" x2="200" y2="0" stroke="#ddd" stroke-width="1" opacity="1"/><line transform="translate(0,144)" x2="200" y2="0" stroke="#ddd" stroke-width="1" opacity="1"/><line transform="translate(0,89)" x2="200" y2="0" stroke="#ddd" stroke-width="1" opacity="1"/><line transform="translate(0,33)" x2="200" y2="0" stroke="#ddd" stroke-width="1" opacity="1"/></g></g><path class="foreground" aria-hidden="true" d="" pointer-events="none" display="none"/></g></g><g class="mark-group role-axis" role="graphics-symbol" aria-roledescription="axis" aria-label="X-axis titled 'Time' for a time scale with values from Thursday, 14 August 2025, 8:34:48 AM to Tuesday, 14 October 2025, 4:47:23 AM"><g transform="translate(0.5,200.5)"><path class="background" aria-hidden="true" d="M0,0h0v0h0Z" pointer-events="none"/><g><g class="mark-rule role-axis-tick" pointer-events="none"><line transform="translate(9,0)" x2="0" y2="5" stroke="#888" stroke-width="1" opacity="1"/><line transform="translate(32,0)" x2="0" y2="5" stroke="#888" stroke-width="1" opacity="1"/><line transform="translate(55,0)" x2="0" y2="5" stroke="#888" stroke-width="1" opacity="1"/><line transform="translate(78,0)" x2="0" y2="5" stroke="#888" stroke-width="1" opacity="1"/><line transform="translate(101,0)" x2="0" y2="5" stroke="#888" stroke-width="1" opacity="1"/><line transform="translate(124,0)" x2="0" y2="5" stroke="#888" stroke-width="1" opacity="1"/><line transform="translate(147,0)" x2="0" y2="5" stroke="#888" stroke-width="1" opacity="1"/><line transform="translate(170,0)" x2="0" y2="5" stroke="#888" stroke-width="1" opacity="1"/><line transform="translate(193,0)" x2="0" y2="5" stroke="#888" stroke-width="1" opacity="1"/></g><g class="mark-text role-axis-label" pointer-events="none"><text text-anchor="middle" transform="translate(8.686395409452667,15)" font-family="Liberation Mono" font-size="10px" fill="#000" opacity="1">Aug 17</text><text text-anchor="middle" transform="translate(31.69679046746644,15)" font-family="Liberation Mono" font-size="10px" fill="#000" opacity="0">Aug 24</text><text text-anchor="middle" transform="translate(54.70718552548022,15)" font-family="Liberation Mono" font-size="10px" fill="#000" opacity="0">Aug 31</text><text text-anchor="middle" transform="translate(77.717580583494,15)" font-family="Liberation Mono" font-size="10px" fill="#000" opacity="0">Sep 07</text><text text-anchor="middle" transform="translate(100.72797564150777,15)" font-family="Liberation Mono" font-size="10px" fill="#000" opacity="1">Sep 14</text><text text-anchor="middle" transform="translate(123.73837069952154,15)" font-family="Liberation Mono" font-size="10px" fill="#000" opacity="0">Sep 21</text><text text-anchor="middle" transform="translate(146.74876575753532,15)" font-family="Liberation Mono" font-size="10px" fill="#000" opacity="0">Sep 28</text><text text-anchor="middle" transform="translate(169.75916081554908,15)" font-family="Liberation Mono" font-size="10px" fill="#000" opacity="0">Oct 05</text><text text-anchor="middle" transform="translate(192.7695558735629,15)" font-family="Liberation Mono" font-size="10px" fill="#000" opacity="1">Oct 12</text></g><g class="mark-rule role-axis-domain" pointer-events="none"><line transform="translate(0,0)" x2="200" y2="0" stroke="#888" stroke-width="1" opacity="1"/></g><g class="mark-text role-axis-title" pointer-events="none"><text text-anchor="middle" transform="translate(100,30)" font-family="Liberation Mono" font-size="11px" font-weight="bold" fill="#000" opacity="1">Time</text></g></g><path class="foreground" aria-hidden="true" d="" pointer-events="none" display="none"/></g></g><g class="mark-group role-axis" role="graphics-symbol" aria-roledescription="axis" aria-label="Y-axis titled 'Price' for a linear scale with values from 0 to 1,800"><g transform="translate(0.5,0.5)"><path class="background" aria-hidden="true" d="M0,0h0v0h0Z" pointer-events="none"/><g><g class="mark-rule role-axis-tick" pointer-events="none"><line transform="translate(0,200)" x2="-5" y2="0" stroke="#888" stroke-width="1" opacity="1"/><line transform="translate(0,144)" x2="-5" y2="0" stroke="#888" stroke-width="1" opacity="1"/><line transform="translate(0,89)" x2="-5" y2="0" stroke="#888" stroke-width="1" opacity="1"/><line transform="translate(0,33)" x2="-5" y2="0" stroke="#888" stroke-width="1" opacity="1"/></g><g class="mark-text role-axis-label" pointer-events="none"><text text-anchor="end" transform="translate(-7,203)" font-family="Liberation Mono" font-size="10px" fill="#000" opacity="1">0</text><text text-anchor="end" transform="translate(-7,147.44444444444443)" font-family="Liberation Mono" font-size="10px" fill="#000" opacity="1">500</text><text text-anchor="end" transform="translate(-7,91.88888888888889)" font-family="Liberation Mono" font-size="10px" fill="#000" opacity="1">1,000</text><text text-anchor="end" transform="translate(-7,36.33333333333333)" font-family="Liberation Mono" font-size="10px" fill="#000" opacity="1">1,500</text></g><g class="mark-rule role-axis-domain" pointer-events="none"><line transform="translate(0,200)" x2="0" y2="-200" stroke="#888" stroke-width="1" opacity="1"/></g><g class="mark-text role-axis-title" pointer-events="none"><text text-anchor="middle" transform="translate(-51,100) rotate(-90) translate(0,-2)" font-family="Liberation Mono" font-size="11px" font-weight="bold" fill="#000" opacity="1">Price</text></g></g><path class="foreground" aria-hidden="true" d="" pointer-events="none" display="none"/></g></g><g class="mark-group role-scope pathgroup" role="graphics-object" aria-roledescription="group mark container"><g transform="translate(0,0)"><path class="background" aria-hidden="true" d="M0,0h200v200h-200Z"/><g><g class="mark-line role-mark marks" role="graphics-object" aria-roledescription="line mark container"><path aria-label="Time: Aug 14, 2025; Price: 899; identifier: escape-city-disc-1-2024" role="graphics-symbol" aria-roledescription="line mark" d="M0,100.111L0.027,100.111L0.049,100.111L0.655,100.111L1.137,100.111L1.677,100.111L2.786,100.111L3.33,100.111L3.931,100.111L4.424,100.111L4.962,100.111L6.062,100.111L6.613,100.111L7.197,100.111L7.705,100.111L8.244,100.111L9.362,100.111L9.899,100.111L10.485,100.111L10.995,100.111L11.536,100.111L12.659,100.111L13.198,100.111L13.804,100.111L14.017,100.111L14.292,100.111L14.82,100.111L15.921,100.111L16.477,100.111L17.061,100.111L17.571,100.111L18.106,100.111L19.209,100.111L19.76,100.111L20.368,100.111L20.614,100.111L20.857,100.111L21.397,100.111L22.494,100.111L23.05,100.111L23.636,100.111L24.146,100.111L24.682,100.111L25.782,100.111L26.336,100.111L26.922,100.111L27.43,100.111L27.968,100.111L29.067,100.111L29.618,100.111L30.199,100.111L30.709,100.111L31.251,100.111L32.358,100.111L32.903,100.111L33.488,100.111L34,100.111L34.54,100.111L35.65,100.111L36.205,100.111L36.805,100.111L37.295,100.111L37.831,100.111L38.932,100.111L39.49,100.111L40.579,100.111L41.114,100.111L42.215,100.111L42.771,100.111L42.986,100.111L43.356,100.111L43.723,100.111L43.866,100.111L44.404,100.111L45.502,100.111L46.059,100.111L46.645,100.111L47.153,100.111L47.69,100.111L48.789,100.111L49.344,100.111L49.928,100.111L50.439,100.111L50.975,100.111L52.073,100.111L52.624,100.111L53.205,100.111L53.718,100.111L54.235,100.111L54.26,100.111L55.361,100.111L55.712,100.111L55.909,100.111L56.494,100.111L57.007,100.111L57.549,100.111L58.659,100.111L59.211,100.111L59.795,100.111L60.298,100.111L60.835,100.111L61.941,100.111L62.497,100.111L63.084,100.111L63.588,100.111L64.125,100.111L65.224,100.111L65.779,100.111L66.364,100.111L66.873,100.111L67.411,100.111L68.51,100.111L69.067,100.111L69.648,100.111L70.163,100.111L70.697,100.111L71.799,100.111L72.353,100.111L72.937,100.111L73.444,100.111L73.985,100.111L75.082,100.111L75.364,100.111L75.631,100.111L76.211,100.111L76.725,100.111L77.271,100.111L78.368,100.111L78.918,100.111L79.5,100.111L80.013,100.111L80.558,100.111L81.661,100.111L82.22,100.111L82.807,100.111L83.312,100.111L83.85,100.111L84.947,100.111L85.506,100.111L86.112,100.111L86.601,100.111L87.133,100.111L88.23,100.111L88.79,100.111L89.373,100.111L89.883,100.111L90.422,100.111L91.521,100.111L92.076,100.111L92.659,100.111L93.164,100.111L93.706,100.111L94.806,100.111L95.362,100.111L95.944,100.111L96.452,100.111L96.993,100.111L98.091,100.111L98.641,100.111L99.222,100.111L99.733,100.111L100.281,100.111L101.379,100.111L101.929,100.111L102.507,100.111L103.02,100.111L103.568,100.111L104.672,100.111L105.226,100.111L105.813,100.111L106.32,100.111L106.857,100.111L107.956,100.111L108.516,100.111L109.1,100.111L109.606,100.111L110.145,100.111L111.245,100.111L111.801,100.111L112.387,100.111L112.894,100.111L113.432,100.111L114.531,100.111L115.087,100.111L115.673,100.111L116.179,100.111L116.719,100.111L117.819,100.111L118.374,100.111L118.959,100.111L119.468,100.111L120.005,100.111L121.104,100.111L121.655,100.111L122.237,100.111L122.745,100.111L123.291,100.111L124.392,100.111L124.94,100.111L125.523,100.111L126.035,100.111L126.58,100.111L127.681,100.111L128.241,100.111L128.826,100.111L129.325,100.111L129.87,100.111L130.967,100.111L131.525,100.111L132.11,100.111L132.619,100.111L133.156,100.111L134.255,100.111L134.813,100.111L135.398,100.111L135.909,100.111L136.441,100.111L137.543,100.111L138.102,100.111L138.688,100.111L139.195,100.111L139.728,100.111L140.829,100.111L141.387,100.111L141.971,100.111L142.479,100.111L143.015,100.111L144.115,100.111L144.663,100.111L145.245,100.111L145.758,100.111L146.303,100.111L147.402,100.111L147.951,100.111L148.533,100.111L149.042,100.111L149.589,100.111L150.692,100.111L151.252,100.111L151.838,100.111L152.33,100.111L152.878,100.111L153.979,100.111L154.541,100.111L155.124,100.111L155.628,100.111L156.166,100.111L157.267,100.111L157.825,100.111L158.412,100.111L158.917,100.111L159.454,100.111L160.551,100.111L161.107,100.111L161.691,100.111L162.203,100.111L162.739,100.111L163.837,100.111L164.394,100.111L164.976,100.111L165.488,100.111L166.025,100.111L167.123,100.111L167.674,100.111L168.255,100.111L168.768,100.111L169.312,100.111L170.409,100.111L170.96,100.111L171.543,100.111L172.055,100.111L172.6,100.111L173.7,100.111L174.259,100.111L174.845,100.111L175.352,100.111L175.89,100.111L176.987,100.111L177.545,100.111L178.133,100.111L178.639,100.111L179.177,100.111L180.276,100.111L180.835,100.111L181.421,100.111L181.927,100.111L182.464,100.111L183.564,100.111L184.123,100.111L184.71,100.111L185.219,100.111L185.752,100.111L186.85,100.111L187.407,100.111L187.992,100.111L188.5,100.111L189.038,100.111L190.135,100.111L190.685,100.111L191.265,100.111L191.776,100.111L192.323,100.111L193.422,100.111L193.972,100.111L194.553,100.111L195.066,100.111L195.61,100.111L196.716,100.111L197.276,100.111L197.859,100.111L198.361,100.111L198.899,100.111L199.999,100.111" stroke="#4c78a8" stroke-width="2"/></g></g><path class="foreground" aria-hidden="true" d="" display="none"/></g><g transform="translate(0,0)"><path class="background" aria-hidden="true" d="M0,0h200v200h-200Z"/><g><g class="mark-line role-mark marks" role="graphics-object" aria-roledescription="line mark container"><path aria-label="Time: Aug 14, 2025; Price: 999; identifier: roam-2" role="graphics-symbol" aria-roledescription="line mark" d="M0,89L0.027,89L0.049,89L0.655,89L1.137,89L1.677,89L2.786,89L3.33,89L3.931,89L4.424,89L4.962,89L6.062,89L6.613,89L7.197,89L7.705,89L8.249,89L9.362,89L9.899,89L10.485,89L10.995,89L11.536,89L12.659,89L13.198,89L13.804,89L14.017,89L14.293,89L14.82,89L15.921,89L16.477,89L17.061,89L17.571,89L18.106,89L19.209,89L19.76,89L20.368,89L20.614,89L20.857,89L21.397,89L22.495,89L23.05,89L23.637,89L24.147,89L24.682,89L25.783,89L26.336,89L26.922,89L27.43,89L27.968,89L29.067,89L29.618,89L30.199,89L30.709,89L31.252,89L32.359,89L32.903,89L33.488,89L34,89L34.54,89L35.65,89L36.205,89L36.805,89L37.296,89L37.831,89L38.932,89L39.49,89L40.58,89L41.115,89L42.215,89L42.771,89L42.986,89L43.356,89L43.723,89L43.866,89L44.404,89L45.502,89L46.059,89L46.645,89L47.153,89L47.69,89L48.789,89L49.344,89L49.928,89L50.439,89L50.975,89L52.073,89L52.624,89L53.205,89L53.718,89L54.235,89L54.261,89L55.361,89L55.712,89L55.909,89L56.494,89L57.007,89L57.549,89L58.659,89L59.212,89L59.795,89L60.298,89L60.835,89L61.941,89L62.497,89L63.084,89L63.588,89L64.125,89L65.224,89L65.779,89L66.364,89L66.873,89L67.411,89L68.51,89L69.067,89L69.648,89L70.163,89L70.697,89L71.799,89L72.354,89L72.937,89L73.444,89L73.986,89L75.083,89L75.364,89L75.631,89L76.211,89L76.725,89L77.271,89L78.369,89L78.918,89L79.5,89L80.013,89L80.558,89L81.662,89L82.22,89L82.807,89L83.312,89L83.85,89L84.947,89L85.506,89L86.112,89L86.601,89L87.134,89L88.23,89L88.79,89L89.373,89L89.883,89L90.422,89L91.521,89L92.076,89L92.659,89L93.164,89L93.707,89L94.806,89L95.362,89L95.945,89L96.453,89L96.994,89L98.091,89L98.642,89L99.222,89L99.733,89L100.281,89L101.38,89L101.929,89L102.507,89L103.02,89L103.568,89L104.672,89L105.226,89L105.814,89L106.32,89L106.858,89L107.957,89L108.516,89L109.1,89L109.606,89L110.145,89L111.245,89L111.801,89L112.387,89L112.894,89L113.432,89L114.532,89L115.087,89L115.674,89L116.179,89L116.72,89L117.819,89L118.374,89L118.96,89L119.468,89L120.005,89L121.104,89L121.656,89L122.237,89L122.745,89L123.291,89L124.392,89L124.94,89L125.523,89L126.035,89L126.58,89L127.681,89L128.241,89L128.826,89L129.325,89L129.87,89L130.967,89L131.525,89L132.11,89L132.619,89L133.157,89L134.255,89L134.814,89L135.398,89L135.909,89L136.441,89L137.543,89L138.102,89L138.688,89L139.195,89L139.728,89L140.829,89L141.387,89L141.971,89L142.479,89L143.016,89L144.115,89L144.663,89L145.245,89L145.758,89L146.303,89L147.402,89L147.951,89L148.533,89L149.042,89L149.589,89L150.693,89L151.252,89L151.838,89L152.33,89L152.878,89L153.979,89L154.541,89L155.124,89L155.628,89L156.166,89L157.268,89L157.825,89L158.412,89L158.917,89L159.454,89L160.551,89L161.107,89L161.691,89L162.203,89L162.739,89L163.837,89L164.394,89L164.977,89L165.489,89L166.026,89L167.123,89L167.675,89L168.255,89L168.768,89L169.312,89L170.409,89L170.96,89L171.543,89L172.055,89L172.6,89L173.7,89L174.259,89L174.845,89L175.353,89L175.89,89L176.987,89L177.545,89L178.133,89L178.64,89L179.177,89L180.276,89L180.835,89L181.422,89L181.927,89L182.464,89L183.565,89L184.123,89L184.71,89L185.219,89L185.752,89L186.85,89L187.407,89L187.992,89L188.5,89L189.038,89L190.135,89L190.685,89L191.265,89L191.776,89L192.323,89L193.422,89L193.972,89L194.554,89L195.066,89L195.61,89L196.716,89L197.276,89L197.859,89L198.363,89L198.899,89L199.999,89" stroke="#ff9da6" stroke-width="2"/></g></g><path class="foreground" aria-hidden="true" d="" display="none"/></g><g transform="translate(0,0)"><path class="background" aria-hidden="true" d="M0,0h200v200h-200Z"/><g><g class="mark-line role-mark marks" role="graphics-object" aria-roledescription="line mark container"><path aria-label="Time: Aug 14, 2025; Price: 999; identifier: fastroad-sl-3-2022" role="graphics-symbol" aria-roledescription="line mark" d="M0,89L0.027,89L0.049,89L0.655,89L1.137,89L1.677,89L2.786,89L3.33,89L3.931,89L4.424,89L4.962,89L6.062,89L6.613,89L7.197,89L7.705,89L8.249,89L9.362,89L9.899,89L10.486,89L10.995,89L11.536,89L12.659,89L13.199,89L13.804,89L14.017,89L14.293,89L14.82,89L15.921,89L16.477,89L17.061,89L17.571,89L18.106,89L19.209,89L19.76,89L20.368,89L20.614,89L20.857,89L21.397,89L22.495,89L23.05,89L23.637,89L24.147,89L24.682,89L25.783,89L26.336,89L26.923,89L27.43,89L27.968,89L29.067,89L29.618,89L30.199,89L30.709,89L31.252,89L32.359,89L32.903,89L33.488,89L34,89L34.54,89L35.65,89L36.205,89L36.805,89L37.296,89L37.831,89L38.932,89L39.49,89L40.58,89L41.115,89L42.215,89L42.771,89L42.987,89L43.356,89L43.723,89L43.866,89L44.404,89L45.502,89L46.059,89L46.645,89L47.153,89L47.69,89L48.789,89L49.344,89L49.928,89L50.439,89L50.975,89L52.073,89L52.624,89L53.205,89L53.718,89L54.235,89L54.261,89L55.361,89L55.713,89L55.909,89L56.494,89L57.007,89L57.549,89L58.659,89L59.212,89L59.795,89L60.298,89L60.835,89L61.941,89L62.497,89L63.084,89L63.588,89L64.125,89L65.224,89L65.779,89L66.364,89L66.873,89L67.411,89L68.51,89L69.067,89L69.648,89L70.163,89L70.697,89L71.799,89L72.354,89L72.937,89L73.444,89L73.986,89L75.083,89L75.365,89L75.631,89L76.211,89L76.726,89L77.271,89L78.369,89L78.918,89L79.5,89L80.013,89L80.558,89L81.662,89L82.221,89L82.807,89L83.312,89L83.85,89L84.947,89L85.507,89L86.112,89L86.601,89L87.134,89L88.23,89L88.79,89L89.373,89L89.883,89L90.422,89L91.521,89L92.076,89L92.659,89L93.164,89L93.707,89L94.806,89L95.362,89L95.945,89L96.453,89L96.994,89L98.091,89L98.642,89L99.222,89L99.733,89L100.281,89L101.38,89L101.929,89L102.507,89L103.02,89L103.568,89L104.672,89L105.226,89L105.814,89L106.321,89L106.858,89L107.957,89L108.516,89L109.1,89L109.606,89L110.146,89L111.245,89L111.801,89L112.388,89L112.894,89L113.432,89L114.532,89L115.087,89L115.674,89L116.179,89L116.72,89L117.819,89L118.374,89L118.96,89L119.468,89L120.005,89L121.104,89L121.656,89L122.237,89L122.745,89L123.291,89L124.392,89L124.94,89L125.523,89L126.035,89L126.58,89L127.681,89L128.241,89L128.826,89L129.325,89L129.87,89L130.967,89L131.525,89L132.11,89L132.62,89L133.157,89L134.256,89L134.814,89L135.398,89L135.909,89L136.441,89L137.543,89L138.102,89L138.688,89L139.195,89L139.728,89L140.829,89L141.387,89L141.971,89L142.479,89L143.016,89L144.115,89L144.663,89L145.245,89L145.758,89L146.303,89L147.403,89L147.951,89L148.534,89L149.042,89L149.589,89L150.693,89L151.252,89L151.838,89L152.33,89L152.878,89L153.979,89L154.541,89L155.125,89L155.628,89L156.166,89L157.268,89L157.826,89L158.412,89L158.917,89L159.454,89L160.551,89L161.107,89L161.691,89L162.203,89L162.739,89L163.837,89L164.394,89L164.977,89L165.489,89L166.026,89L167.123,89L167.675,89L168.255,89L168.768,89L169.312,89L170.409,89L170.96,89L171.543,89L172.055,89L172.6,89L173.701,89L174.259,89L174.846,89L175.353,89L175.891,89L176.987,89L177.545,89L178.133,89L178.64,89L179.177,89L180.276,89L180.835,89L181.422,89L181.927,89L182.464,89L183.565,89L184.123,89L184.71,89L185.219,89L185.752,89L186.85,89L187.407,89L187.992,89L188.5,89L189.039,89L190.135,89L190.685,89L191.265,89L191.776,89L192.323,89L193.422,89L193.972,89L194.554,89L195.067,89L195.61,89L196.716,89L197.276,89L197.859,89L198.363,89L198.899,89L199.999,89" stroke="#9d755d" stroke-width="2"/></g></g><path class="foreground" aria-hidden="true" d="" display="none"/></g><g transform="translate(0,0)"><path class="background" aria-hidden="true" d="M0,0h200v200h-200Z"/><g><g class="mark-line role-mark marks" role="graphics-object" aria-roledescription="line mark container"><path aria-label="Time: Aug 14, 2025; Price: 1199; identifier: fastroad-ar-2" role="graphics-symbol" aria-roledescription="line mark" d="M0,66.778L0.027,66.778L0.049,66.778L0.655,66.778L1.137,66.778L1.677,66.778L2.786,66.778L3.33,66.778L3.931,66.778L4.425,66.778L4.962,66.778L6.063,66.778L6.613,66.778L7.197,66.778L7.705,66.778L8.252,66.778L9.362,66.778L9.899,66.778L10.486,66.778L10.995,66.778L11.536,66.778L12.659,66.778L13.199,66.778L13.804,66.778L14.017,66.778L14.293,66.778L14.82,66.778L15.921,66.778L16.477,66.778L17.061,66.778L17.571,66.778L18.106,66.778L19.209,66.778L19.76,66.778L20.368,66.778L20.614,66.778L20.857,66.778L21.397,66.778L22.495,66.778L23.05,66.778L23.637,66.778L24.147,66.778L24.682,66.778L25.783,66.778L26.337,66.778L26.923,66.778L27.43,66.778L27.968,66.778L29.068,66.778L29.619,66.778L30.2,66.778L30.709,66.778L31.252,66.778L32.359,66.778L32.904,66.778L33.489,66.778L34,66.778L34.54,66.778L35.651,66.778L36.205,66.778L36.805,66.778L37.296,66.778L37.831,66.778L38.933,66.778L39.49,66.778L40.58,66.778L41.115,66.778L42.215,66.778L42.771,66.778L42.987,66.778L43.356,66.778L43.723,66.778L43.867,66.778L44.404,66.778L45.502,66.778L46.059,66.778L46.645,66.778L47.153,66.778L47.69,66.778L48.789,66.778L49.344,66.778L49.928,66.778L50.439,66.778L50.976,66.778L52.073,66.778L52.624,66.778L53.205,66.778L53.718,66.778L54.235,66.778L54.261,66.778L55.362,66.778L55.713,66.778L55.91,66.778L56.494,66.778L57.007,66.778L57.549,66.778L58.659,66.778L59.212,66.778L59.795,66.778L60.299,66.778L60.836,66.778L61.941,66.778L62.497,66.778L63.084,66.778L63.588,66.778L64.125,66.778L65.224,66.778L65.779,66.778L66.364,66.778L66.873,66.778L67.411,66.778L68.51,66.778L69.067,66.778L69.649,66.778L70.163,66.778L70.697,66.778L71.799,66.778L72.354,66.778L72.938,66.778L73.444,66.778L73.986,66.778L75.083,66.778L75.365,66.778L75.631,66.778L76.211,66.778L76.726,66.778L77.271,66.778L78.369,66.778L78.918,66.778L79.5,66.778L80.013,66.778L80.558,66.778L81.662,66.778L82.221,66.778L82.807,66.778L83.312,66.778L83.85,66.778L84.947,66.778L85.507,66.778L86.113,66.778L86.601,66.778L87.134,66.778L88.23,66.778L88.791,66.778L89.373,66.778L89.883,66.778L90.422,66.778L91.522,66.778L92.077,66.778L92.659,66.778L93.164,66.778L93.707,66.778L94.806,66.778L95.362,66.778L95.945,66.778L96.453,66.778L96.994,66.778L98.091,66.778L98.642,66.778L99.222,66.778L99.734,66.778L100.281,66.778L101.38,66.778L101.929,66.778L102.507,66.778L103.02,66.778L103.568,66.778L104.672,66.778L105.227,66.778L105.814,66.778L106.321,66.778L106.858,66.778L107.957,66.778L108.517,66.778L109.1,66.778L109.606,66.778L110.146,66.778L111.245,66.778L111.801,66.778L112.388,66.778L112.894,66.778L113.432,66.778L114.532,66.778L115.087,66.778L115.674,66.778L116.179,66.778L116.72,66.778L117.819,66.778L118.374,66.778L118.96,66.778L119.468,66.778L120.005,66.778L121.104,66.778L121.656,66.778L122.237,66.778L122.746,66.778L123.291,66.778L124.392,66.778L124.94,66.778L125.523,66.778L126.036,66.778L126.58,66.778L127.681,66.778L128.241,66.778L128.826,66.778L129.325,66.778L129.87,66.778L130.967,66.778L131.525,66.778L132.11,66.778L132.62,66.778L133.157,66.778L134.256,66.778L134.814,66.778L135.398,66.778L135.909,66.778L136.442,66.778L137.543,66.778L138.102,66.778L138.688,66.778L139.195,66.778L139.728,66.778L140.829,66.778L141.387,66.778L141.971,66.778L142.479,66.778L143.016,66.778L144.115,66.778L144.663,66.778L145.245,66.778L145.758,66.778L146.303,66.778L147.403,66.778L147.951,66.778L148.534,66.778L149.043,66.778L149.589,66.778L150.693,66.778L151.253,66.778L151.838,66.778L152.33,66.778L152.879,66.778L153.979,66.778L154.541,66.778L155.125,66.778L155.628,66.778L156.166,66.778L157.268,66.778L157.826,66.778L158.412,66.778L158.917,66.778L159.454,66.778L160.551,66.778L161.107,66.778L161.691,66.778L162.203,66.778L162.739,66.778L163.837,66.778L164.394,66.778L164.977,66.778L165.489,66.778L166.026,66.778L167.123,66.778L167.675,66.778L168.255,66.778L168.769,66.778L169.313,66.778L170.409,66.778L170.96,66.778L171.543,66.778L172.055,66.778L172.6,66.778L173.701,66.778L174.259,66.778L174.846,66.778L175.353,66.778L175.891,66.778L176.987,66.778L177.545,66.778L178.133,66.778L178.64,66.778L179.177,66.778L180.276,66.778L180.835,66.778L181.422,66.778L181.927,66.778L182.464,66.778L183.565,66.778L184.123,66.778L184.71,66.778L185.219,66.778L185.752,66.778L186.85,66.778L187.407,66.778L187.992,66.778L188.5,66.778L189.039,66.778L190.135,66.778L190.685,66.778L191.266,66.778L191.776,66.778L192.323,66.778L193.423,66.778L193.972,66.778L194.554,66.778L195.067,66.778L195.61,66.778L196.716,66.778L197.276,66.778L197.859,66.778L198.364,66.778L198.899,66.778L199.999,66.778" stroke="#54a24b" stroke-width="2"/></g></g><path class="foreground" aria-hidden="true" d="" display="none"/></g><g transform="translate(0,0)"><path class="background" aria-hidden="true" d="M0,0h200v200h-200Z"/><g><g class="mark-line role-mark marks" role="graphics-object" aria-roledescription="line mark container"><path aria-label="Time: Aug 18, 2025; Price: 899; identifier: sdrbike-escape-1-city-disc" role="graphics-symbol" aria-roledescription="line mark" d="M14.017,100.111L14.293,100.111L14.82,100.111L15.921,100.111L16.478,100.111L17.061,100.111L17.571,100.111L18.106,100.111L19.21,100.111L19.761,100.111L20.368,100.111L20.614,100.111L20.858,100.111L21.397,100.111L22.495,100.111L23.05,100.111L23.637,100.111L24.147,100.111L24.683,100.111L25.783,100.111L26.337,100.111L26.923,100.111L27.431,100.111L27.968,100.111L29.068,100.111L29.619,100.111L30.2,100.111L30.709,100.111L31.252,100.111L32.359,100.111L32.904,100.111L33.489,100.111L34,100.111L34.54,100.111L35.651,100.111L36.205,100.111L36.805,100.111L37.296,100.111L37.831,100.111L38.933,100.111L39.49,100.111L40.58,100.111L41.115,100.111L42.216,100.111L42.771,100.111L42.987,100.111L43.356,100.111L43.723,100.111L43.867,100.111L44.404,100.111L45.502,100.111L46.06,100.111L46.645,100.111L47.153,100.111L47.69,100.111L48.79,100.111L49.345,100.111L49.928,100.111L50.439,100.111L50.976,100.111L52.073,100.111L52.624,100.111L53.206,100.111L53.718,100.111L54.235,100.111L54.261,100.111L55.362,100.111L55.713,100.111L55.91,100.111L56.494,100.111L57.007,100.111L57.549,100.111L58.659,100.111L59.212,100.111L59.795,100.111L60.299,100.111L60.836,100.111L61.941,100.111L62.497,100.111L63.084,100.111L63.588,100.111L64.125,100.111L65.224,100.111L65.779,100.111L66.364,100.111L66.874,100.111L67.411,100.111L68.511,100.111L69.067,100.111L69.649,100.111L70.163,100.111L70.698,100.111L71.799,100.111L72.354,100.111L72.938,100.111L73.444,100.111L73.986,100.111L75.083,100.111L75.365,100.111L75.631,100.111L76.211,100.111L76.726,100.111L77.271,100.111L78.369,100.111L78.918,100.111L79.5,100.111L80.013,100.111L80.558,100.111L81.662,100.111L82.221,100.111L82.807,100.111L83.312,100.111L83.85,100.111L84.948,100.111L85.507,100.111L86.113,100.111L86.601,100.111L87.134,100.111L88.23,100.111L88.791,100.111L89.373,100.111L89.883,100.111L90.422,100.111L91.522,100.111L92.077,100.111L92.659,100.111L93.164,100.111L93.707,100.111L94.806,100.111L95.363,100.111L95.945,100.111L96.453,100.111L96.994,100.111L98.091,100.111L98.642,100.111L99.222,100.111L99.734,100.111L100.281,100.111L101.38,100.111L101.929,100.111L102.507,100.111L103.02,100.111L103.569,100.111L104.672,100.111L105.227,100.111L105.814,100.111L106.321,100.111L106.858,100.111L107.957,100.111L108.517,100.111L109.1,100.111L109.606,100.111L110.146,100.111L111.245,100.111L111.801,100.111L112.388,100.111L112.894,100.111L113.432,100.111L114.532,100.111L115.087,100.111L115.674,100.111L116.18,100.111L116.72,100.111L117.819,100.111L118.374,100.111L118.96,100.111L119.469,100.111L120.005,100.111L121.104,100.111L121.656,100.111L122.237,100.111L122.746,100.111L123.291,100.111L124.392,100.111L124.94,100.111L125.523,100.111L126.036,100.111L126.58,100.111L127.681,100.111L128.241,100.111L128.826,100.111L129.325,100.111L129.87,100.111L130.968,100.111L131.525,100.111L132.11,100.111L132.62,100.111L133.157,100.111L134.256,100.111L134.814,100.111L135.398,100.111L135.909,100.111L136.442,100.111L137.543,100.111L138.102,100.111L138.688,100.111L139.196,100.111L139.728,100.111L140.829,100.111L141.387,100.111L141.972,100.111L142.479,100.111L143.016,100.111L144.115,100.111L144.663,100.111L145.245,100.111L145.758,100.111L146.303,100.111L147.403,100.111L147.951,100.111L148.534,100.111L149.043,100.111L149.589,100.111L150.693,100.111L151.253,100.111L151.838,100.111L152.33,100.111L152.879,100.111L153.979,100.111L154.541,100.111L155.125,100.111L155.628,100.111L156.166,100.111L157.268,100.111L157.826,100.111L158.413,100.111L158.917,100.111L159.454,100.111L160.551,100.111L161.107,100.111L161.691,100.111L162.203,100.111L162.739,100.111L163.837,100.111L164.394,100.111L164.977,100.111L165.489,100.111L166.026,100.111L167.123,100.111L167.675,100.111L168.255,100.111L168.769,100.111L169.313,100.111L170.409,100.111L170.96,100.111L171.543,100.111L172.056,100.111L172.6,100.111L173.701,100.111L174.259,100.111L174.846,100.111L175.353,100.111L175.891,100.111L176.988,100.111L177.545,100.111L178.134,100.111L178.64,100.111L179.177,100.111L180.276,100.111L180.836,100.111L181.422,100.111L181.927,100.111L182.465,100.111L183.565,100.111L184.123,100.111L184.71,100.111L185.219,100.111L185.752,100.111L186.851,100.111L187.407,100.111L187.992,100.111L188.5,100.111L189.039,100.111L190.135,100.111L190.685,100.111L191.266,100.111L191.776,100.111L192.323,100.111L193.423,100.111L193.972,100.111L194.554,100.111L195.067,100.111L195.61,100.111L196.716,100.111L197.276,100.111L197.859,100.111L198.364,100.111L198.9,100.111L199.999,100.111" stroke="#f58518" stroke-width="2"/></g></g><path class="foreground" aria-hidden="true" d="" display="none"/></g><g transform="translate(0,0)"><path class="background" aria-hidden="true" d="M0,0h200v200h-200Z"/><g><g class="mark-line role-mark marks" role="graphics-object" aria-roledescription="line mark container"><path aria-label="Time: Aug 20, 2025; Price: 899; identifier: roam-disc-2-2024" role="graphics-symbol" aria-roledescription="line mark" d="M20.614,100.111L20.857,100.111L21.397,100.111L22.494,100.111L23.05,100.111L23.637,100.111L24.146,100.111L24.682,100.111L25.783,100.111L26.336,100.111L26.922,100.111L27.43,100.111L27.968,100.111L29.067,100.111L29.618,100.111L30.199,100.111L30.709,100.111L31.251,100.111L32.358,100.111L32.903,100.111L33.488,100.111L34,100.111L34.54,100.111L35.65,100.111L36.205,100.111L36.805,100.111L37.296,100.111L37.831,100.111L38.932,100.111L39.49,100.111L40.58,100.111L41.115,100.111L42.215,100.111L42.771,100.111L42.986,100.111L43.356,100.111L43.723,100.111L43.866,100.111L44.404,100.111L45.502,100.111L46.059,100.111L46.645,100.111L47.153,100.111L47.69,100.111L48.789,100.111L49.344,100.111L49.928,100.111L50.439,100.111L50.975,100.111L52.073,100.111L52.624,100.111L53.205,100.111L53.718,100.111L54.235,100.111L54.261,100.111L55.361,100.111L55.712,100.111L55.909,100.111L56.494,100.111L57.007,100.111L57.549,100.111L58.659,100.111L59.212,100.111L59.795,100.111L60.298,100.111L60.835,100.111L61.941,100.111L62.497,100.111L63.084,100.111L63.588,100.111L64.125,100.111L65.224,100.111L65.779,100.111L66.364,100.111L66.873,100.111L67.411,100.111L68.51,100.111L69.067,100.111L69.648,100.111L70.163,100.111L70.697,100.111L71.799,100.111L72.353,100.111L72.937,100.111L73.444,100.111L73.986,100.111L75.082,100.111L75.364,100.111L75.631,100.111L76.211,100.111L76.725,100.111L77.271,100.111L78.369,100.111L78.918,100.111L79.5,100.111L80.013,100.111L80.558,100.111L81.661,100.111L82.22,100.111L82.807,100.111L83.312,100.111L83.85,100.111L84.947,100.111L85.506,100.111L86.112,100.111L86.601,100.111L87.133,100.111L88.23,100.111L88.79,100.111L89.373,100.111L89.883,100.111L90.422,100.111L91.521,100.111L92.076,100.111L92.659,100.111L93.164,100.111L93.707,100.111L94.806,100.111L95.362,100.111L95.944,100.111L96.452,100.111L96.994,100.111L98.091,100.111L98.642,100.111L99.222,100.111L99.733,100.111L100.281,100.111L101.38,100.111L101.929,100.111L102.507,100.111L103.02,100.111L103.568,100.111L104.672,100.111L105.226,100.111L105.814,100.111L106.32,100.111L106.858,100.111L107.956,100.111L108.516,100.111L109.1,100.111L109.606,100.111L110.145,100.111L111.245,100.111L111.801,100.111L112.387,100.111L112.894,100.111L113.432,100.111L114.532,100.111L115.087,100.111L115.674,100.111L116.179,100.111L116.72,100.111L117.819,100.111L118.374,100.111L118.96,100.111L119.468,100.111L120.005,100.111L121.104,100.111L121.656,100.111L122.237,100.111L122.745,100.111L123.291,100.111L124.392,100.111L124.94,100.111L125.523,100.111L126.035,100.111L126.58,100.111L127.681,100.111L128.241,100.111L128.826,100.111L129.325,100.111L129.87,100.111L130.967,100.111L131.525,100.111L132.11,100.111L132.619,100.111L133.156,100.111L134.255,100.111L134.814,100.111L135.398,100.111L135.909,100.111L136.441,100.111L137.543,100.111L138.102,100.111L138.688,100.111L139.195,100.111L139.728,100.111L140.829,100.111L141.387,100.111L141.971,100.111L142.479,100.111L143.016,100.111L144.115,100.111L144.663,100.111L145.245,100.111L145.758,100.111L146.303,100.111L147.402,100.111L147.951,100.111L148.533,100.111L149.042,100.111L149.589,100.111L150.693,100.111L151.252,100.111L151.838,100.111L152.33,100.111L152.878,100.111L153.979,100.111L154.541,100.111L155.124,100.111L155.628,100.111L156.166,100.111L157.268,100.111L157.825,100.111L158.412,100.111L158.917,100.111L159.454,100.111L160.551,100.111L161.107,100.111L161.691,100.111L162.203,100.111L162.739,100.111L163.837,100.111L164.394,100.111L164.976,100.111L165.488,100.111L166.025,100.111L167.123,100.111L167.674,100.111L168.255,100.111L168.768,100.111L169.312,100.111L170.409,100.111L170.96,100.111L171.543,100.111L172.055,100.111L172.6,100.111L173.7,100.111L174.259,100.111L174.845,100.111L175.353,100.111L175.89,100.111L176.987,100.111L177.545,100.111L178.133,100.111L178.639,100.111L179.177,100.111L180.276,100.111L180.835,100.111L181.422,100.111L181.927,100.111L182.464,100.111L183.565,100.111L184.123,100.111L184.71,100.111L185.219,100.111L185.752,100.111L186.85,100.111L187.407,100.111L187.992,100.111L188.5,100.111L189.038,100.111L190.135,100.111L190.685,100.111L191.265,100.111L191.776,100.111L192.323,100.111L193.422,100.111L193.972,100.111L194.553,100.111L195.066,100.111L195.61,100.111L196.716,100.111L197.276,100.111L197.859,100.111L198.361,100.111L198.899,100.111L199.999,100.111" stroke="#e45756" stroke-width="2"/></g></g><path class="foreground" aria-hidden="true" d="" display="none"/></g><g transform="translate(0,0)"><path class="background" aria-hidden="true" d="M0,0h200v200h-200Z"/><g><g class="mark-line role-mark marks" role="graphics-object" aria-roledescription="line mark container"><path aria-label="Time: Aug 20, 2025; Price: 1199; identifier: thrive-2" role="graphics-symbol" aria-roledescription="line mark" d="M20.614,66.778L20.858,66.778L21.397,66.778L22.495,66.778L23.05,66.778L23.637,66.778L24.147,66.778L24.683,66.778L25.783,66.778L26.337,66.778L26.923,66.778L27.431,66.778L27.968,66.778L29.068,66.778L29.619,66.778L30.2,66.778L30.709,66.778L31.252,66.778L32.359,66.778L32.904,66.778L33.489,66.778L34,66.778L34.54,66.778L35.651,66.778L36.205,66.778L36.805,66.778L37.296,66.778L37.831,66.778L38.933,66.778L39.491,66.778L40.58,66.778L41.115,66.778L42.216,66.778L42.771,66.778L42.987,66.778L43.357,66.778L43.723,66.778L43.867,66.778L44.404,66.778L45.502,66.778L46.06,66.778L46.645,66.778L47.153,66.778L47.69,66.778L48.79,66.778L49.345,66.778L49.928,66.778L50.439,66.778L50.976,66.778L52.073,66.778L52.624,66.778L53.206,66.778L53.718,66.778L54.235,66.778L54.261,66.778L55.362,66.778L55.713,66.778L55.91,66.778L56.494,66.778L57.007,66.778L57.549,66.778L58.659,66.778L59.212,66.778L59.795,66.778L60.299,66.778L60.836,66.778L61.941,66.778L62.497,66.778L63.085,66.778L63.588,66.778L64.125,66.778L65.224,66.778L65.779,66.778L66.365,66.778L66.874,66.778L67.411,66.778L68.511,66.778L69.067,66.778L69.649,66.778L70.163,66.778L70.698,66.778L71.799,66.778L72.354,66.778L72.938,66.778L73.444,66.778L73.986,66.778L75.083,66.778L75.365,66.778L75.631,66.778L76.211,66.778L76.726,66.778L77.271,66.778L78.369,66.778L78.918,66.778L79.5,66.778L80.013,66.778L80.558,66.778L81.662,66.778L82.221,66.778L82.807,66.778L83.312,66.778L83.85,66.778L84.948,66.778L85.507,66.778L86.113,66.778L86.601,66.778L87.134,66.778L88.23,66.778L88.791,66.778L89.373,66.778L89.883,66.778L90.423,66.778L91.522,66.778L92.077,66.778L92.659,66.778L93.164,66.778L93.707,66.778L94.806,66.778L95.363,66.778L95.945,66.778L96.453,66.778L96.994,66.778L98.092,66.778L98.642,66.778L99.222,66.778L99.734,66.778L100.281,66.778L101.38,66.778L101.929,66.778L102.507,66.778L103.02,66.778L103.569,66.778L104.673,66.778L105.227,66.778L105.814,66.778L106.321,66.778L106.858,66.778L107.957,66.778L108.517,66.778L109.101,66.778L109.606,66.778L110.146,66.778L111.245,66.778L111.801,66.778L112.388,66.778L112.894,66.778L113.432,66.778L114.532,66.778L115.087,66.778L115.674,66.778L116.18,66.778L116.72,66.778L117.819,66.778L118.375,66.778L118.96,66.778L119.469,66.778L120.005,66.778L121.104,66.778L121.656,66.778L122.237,66.778L122.746,66.778L123.291,66.778L124.392,66.778L124.94,66.778L125.523,66.778L126.036,66.778L126.58,66.778L127.681,66.778L128.241,66.778L128.826,66.778L129.325,66.778L129.87,66.778L130.968,66.778L131.525,66.778L132.11,66.778L132.62,66.778L133.157,66.778L134.256,66.778L134.814,66.778L135.398,66.778L135.909,66.778L136.442,66.778L137.543,66.778L138.102,66.778L138.688,66.778L139.196,66.778L139.728,66.778L140.829,66.778L141.388,66.778L141.972,66.778L142.48,66.778L143.016,66.778L144.116,66.778L144.664,66.778L145.245,66.778L145.758,66.778L146.303,66.778L147.403,66.778L147.951,66.778L148.534,66.778L149.043,66.778L149.59,66.778L150.693,66.778L151.253,66.778L151.838,66.778L152.33,66.778L152.879,66.778L153.979,66.778L154.541,66.778L155.125,66.778L155.628,66.778L156.166,66.778L157.268,66.778L157.826,66.778L158.413,66.778L158.917,66.778L159.454,66.778L160.551,66.778L161.107,66.778L161.691,66.778L162.203,66.778L162.739,66.778L163.837,66.778L164.395,66.778L164.977,66.778L165.489,66.778L166.026,66.778L167.124,66.778L167.675,66.778L168.255,66.778L168.769,66.778L169.313,66.778L170.409,66.778L170.96,66.778L171.543,66.778L172.056,66.778L172.601,66.778L173.701,66.778L174.259,66.778L174.846,66.778L175.353,66.778L175.891,66.778L176.988,66.778L177.545,66.778L178.134,66.778L178.64,66.778L179.177,66.778L180.276,66.778L180.836,66.778L181.422,66.778L181.927,66.778L182.465,66.778L183.565,66.778L184.123,66.778L184.71,66.778L185.22,66.778L185.752,66.778L186.851,66.778L187.408,66.778L187.992,66.778L188.5,66.778L189.039,66.778L190.135,66.778L190.685,66.778L191.266,66.778L191.777,66.778L192.323,66.778L193.423,66.778L193.972,66.778L194.554,66.778L195.067,66.778L195.61,66.778L196.717,66.778L197.276,66.778L197.859,66.778L198.365,66.778L198.9,66.778L199.999,66.778" stroke="#eeca3b" stroke-width="2"/></g></g><path class="foreground" aria-hidden="true" d="" display="none"/></g><g transform="translate(0,0)"><path class="background" aria-hidden="true" d="M0,0h200v200h-200Z"/><g><g class="mark-line role-mark marks" role="graphics-object" aria-roledescription="line mark container"><path aria-label="Time: Aug 20, 2025; Price: 999; identifier: rove-2" role="graphics-symbol" aria-roledescription="line mark" d="M20.614,89L20.858,89L21.397,89L22.495,89L23.051,89L23.637,89L24.147,89L24.683,89L25.783,89L26.337,89L26.923,89L27.431,89L27.968,89L29.068,89L29.619,89L30.2,89L30.709,89L31.252,89L32.359,89L32.904,89L33.489,89L34.001,89L34.54,89L35.651,89L36.205,89L36.805,89L37.296,89L37.831,89L38.933,89L39.491,89L40.58,89L41.115,89L42.216,89L42.771,89L42.987,89L43.357,89L43.723,89L43.867,89L44.405,89L45.502,89L46.06,89L46.645,89L47.153,89L47.69,89L48.79,89L49.345,89L49.929,89L50.439,89L50.976,89L54.235,111.222L54.261,111.222L55.362,111.222L55.713,111.222L55.91,111.222L56.494,111.222L57.007,111.222L57.549,111.222L58.659,111.222L59.212,111.222L59.795,111.222L60.299,111.222L60.836,111.222L61.941,111.222L62.497,111.222L63.085,111.222L63.588,111.222L64.125,111.222L65.224,111.222L65.779,111.222L66.365,111.222L66.874,111.222L67.411,111.222L68.511,111.222L69.068,111.222L69.649,111.222L70.163,111.222L70.698,111.222L71.799,111.222L72.354,111.222L72.938,111.222L73.444,111.222L73.986,111.222L75.083,111.222L75.365,111.222L75.631,111.222L76.211,111.222L76.726,111.222L77.271,111.222L78.369,111.222L78.918,111.222L79.5,111.222L80.013,111.222L80.558,111.222L81.662,111.222L82.221,111.222L82.807,111.222L83.312,111.222L83.851,111.222L84.948,111.222L85.507,111.222L86.113,111.222L86.602,111.222L87.134,111.222L88.23,111.222L88.791,111.222L89.374,111.222L89.883,111.222L90.423,111.222L91.522,111.222L92.077,111.222L92.659,111.222L93.164,111.222L93.707,111.222L94.806,111.222L95.363,111.222L95.945,111.222L96.453,111.222L96.994,111.222L98.092,111.222L98.642,111.222L99.222,111.222L99.734,111.222L100.282,111.222L101.38,111.222L101.929,111.222L102.507,111.222L103.02,111.222L103.569,111.222L104.673,111.222L105.227,111.222L105.814,111.222L106.321,111.222L106.858,111.222L107.957,111.222L108.517,111.222L109.101,111.222L109.606,111.222L110.146,111.222L111.245,111.222L111.801,111.222L112.388,111.222L112.894,111.222L113.432,111.222L114.532,111.222L115.088,111.222L115.674,111.222L116.18,111.222L116.72,111.222L117.819,111.222L118.375,111.222L118.96,111.222L119.469,111.222L120.005,111.222L121.104,111.222L121.656,111.222L122.237,111.222L122.746,111.222L123.291,111.222L124.392,111.222L124.94,111.222L125.523,111.222L126.036,111.222L126.58,111.222L127.681,111.222L128.241,111.222L128.826,111.222L129.325,111.222L129.87,111.222L130.968,111.222L131.526,111.222L132.111,111.222L132.62,111.222L133.157,111.222L134.256,111.222L134.814,111.222L135.399,111.222L135.909,111.222L136.442,111.222L137.543,111.222L138.102,111.222L138.688,111.222L139.196,111.222L139.728,111.222L140.829,111.222L141.388,111.222L141.972,111.222L142.48,111.222L143.016,111.222L144.116,111.222L144.664,111.222L145.246,111.222L145.758,111.222L146.303,111.222L147.403,111.222L147.951,111.222L148.534,111.222L149.043,111.222L149.59,111.222L150.693,111.222L151.253,111.222L151.838,111.222L152.33,111.222L152.879,111.222L153.979,111.222L154.541,111.222L155.125,111.222L155.628,111.222L156.166,111.222L157.268,111.222L157.826,111.222L158.413,111.222L158.917,111.222L159.454,111.222L160.551,111.222L161.108,111.222L161.691,111.222L162.203,111.222L162.739,111.222L163.837,111.222L164.395,111.222L164.977,111.222L165.489,111.222L166.026,111.222L167.124,111.222L167.675,111.222L168.255,111.222L168.769,111.222L169.313,111.222L170.409,111.222L170.96,111.222L171.543,111.222L172.056,111.222L172.601,111.222L173.701,111.222L174.26,111.222L174.846,111.222L175.353,111.222L175.891,111.222L176.988,111.222L177.545,111.222L178.134,111.222L178.64,111.222L179.177,111.222L180.277,111.222L180.836,111.222L181.422,111.222L181.927,111.222L182.465,111.222L183.565,111.222L184.123,111.222L184.71,111.222L185.22,111.222L185.752,111.222L186.851,111.222L187.408,111.222L187.992,111.222L188.5,111.222L189.039,111.222L190.135,111.222L190.685,111.222L191.266,111.222L191.777,111.222L192.323,111.222L193.423,111.222L193.972,111.222L194.554,111.222L195.067,111.222L195.61,111.222L196.717,111.222L197.277,111.222L197.859,111.222L198.365,111.222L198.9,111.222L199.999,111.222" stroke="#72b7b2" stroke-width="2"/></g></g><path class="foreground" aria-hidden="true" d="" display="none"/></g><g transform="translate(0,0)"><path class="background" aria-hidden="true" d="M0,0h200v200h-200Z"/><g><g class="mark-line role-mark marks" role="graphics-object" aria-roledescription="line mark container"><path aria-label="Time: Aug 27, 2025; Price: 1199; identifier: allure-rs-1-2023" role="graphics-symbol" aria-roledescription="line mark" d="M42.987,66.778L43.357,66.778L43.723,66.778L43.867,66.778L44.405,66.778L45.502,66.778L46.06,66.778L46.645,66.778L47.153,66.778L47.69,66.778L48.79,66.778L49.345,66.778L49.929,66.778L50.439,66.778L50.976,66.778L52.073,66.778L52.624,66.778L53.206,66.778L53.718,66.778L54.235,66.778L54.261,66.778L55.362,66.778L55.713,66.778L55.91,66.778L56.495,66.778L57.007,66.778L57.549,66.778L58.66,66.778L59.212,66.778L59.795,66.778L60.299,66.778L60.836,66.778L61.942,66.778L62.497,66.778L63.085,66.778L63.588,66.778L64.125,66.778L65.224,66.778L65.779,66.778L66.365,66.778L66.874,66.778L67.411,66.778L68.511,66.778L69.068,66.778L69.649,66.778L70.163,66.778L70.698,66.778L71.799,66.778L72.354,66.778L72.938,66.778L73.444,66.778L73.986,66.778L75.083,66.778L75.365,66.778L75.632,66.778L76.211,66.778L76.726,66.778L77.271,66.778L78.369,66.778L78.918,66.778L79.501,66.778L80.013,66.778L80.558,66.778L81.662,66.778L82.221,66.778L82.807,66.778L83.312,66.778L83.851,66.778L84.948,66.778L85.507,66.778L86.113,66.778L86.602,66.778L87.134,66.778L88.23,66.778L88.791,66.778L89.374,66.778L89.884,66.778L90.423,66.778L91.522,66.778L92.077,66.778L92.659,66.778L93.164,66.778L93.707,66.778L94.807,66.778L95.363,66.778L95.945,66.778L96.453,66.778L96.994,66.778L98.092,66.778L98.642,66.778L99.222,66.778L99.734,66.778L100.282,66.778L101.38,66.778L101.929,66.778L102.507,66.778L103.02,66.778L103.569,66.778L104.673,66.778L105.227,66.778L105.814,66.778L106.321,66.778L106.858,66.778L107.957,66.778L108.517,66.778L109.101,66.778L109.607,66.778L110.146,66.778L111.245,66.778L111.801,66.778L112.388,66.778L112.895,66.778L113.432,66.778L114.532,66.778L115.088,66.778L115.674,66.778L116.18,66.778L116.72,66.778L117.819,66.778L118.375,66.778L118.96,66.778L119.469,66.778L120.005,66.778L121.104,66.778L121.656,66.778L122.237,66.778L122.746,66.778L123.291,66.778L124.393,66.778L124.94,66.778L125.524,66.778L126.036,66.778L126.58,66.778L127.682,66.778L128.241,66.778L128.826,66.778L129.325,66.778L129.87,66.778L130.968,66.778L131.526,66.778L132.111,66.778L132.62,66.778L133.157,66.778L134.256,66.778L134.814,66.778L135.399,66.778L135.909,66.778L136.442,66.778L137.543,66.778L138.102,66.778L138.688,66.778L139.196,66.778L139.728,66.778L140.829,66.778L141.388,66.778L141.972,66.778L142.48,66.778L143.016,66.778L144.116,66.778L144.664,66.778L145.246,66.778L145.758,66.778L146.304,66.778L147.403,66.778L147.951,66.778L148.534,66.778L149.043,66.778L149.59,66.778L150.693,66.778L151.253,66.778L151.838,66.778L152.33,66.778L152.879,66.778L153.979,66.778L154.541,66.778L155.125,66.778L155.629,66.778L156.167,66.778L157.268,66.778L157.826,66.778L158.413,66.778L158.917,66.778L159.454,66.778L160.551,66.778L161.108,66.778L161.691,66.778L162.204,66.778L162.739,66.778L163.837,66.778L164.395,66.778L164.977,66.778L165.489,66.778L166.026,66.778L167.124,66.778L167.675,66.778L168.255,66.778L168.769,66.778L169.313,66.778L170.409,66.778L170.96,66.778L171.543,66.778L172.056,66.778L172.601,66.778L173.701,66.778L174.26,66.778L174.846,66.778L175.353,66.778L175.891,66.778L176.988,66.778L177.546,66.778L178.134,66.778L178.64,66.778L179.177,66.778L180.277,66.778L180.836,66.778L181.422,66.778L181.927,66.778L182.465,66.778L183.565,66.778L184.123,66.778L184.71,66.778L185.22,66.778L185.752,66.778L186.851,66.778L187.408,66.778L187.992,66.778L188.501,66.778L189.039,66.778L190.135,66.778L190.685,66.778L191.266,66.778L191.777,66.778L192.323,66.778L193.423,66.778L193.972,66.778L194.554,66.778L195.067,66.778L195.611,66.778L196.717,66.778L197.277,66.778L197.859,66.778L198.365,66.778L198.9,66.778L199.999,66.778" stroke="#b279a2" stroke-width="2"/></g></g><path class="foreground" aria-hidden="true" d="" display="none"/></g><g transform="translate(0,0)"><path class="background" aria-hidden="true" d="M0,0h200v200h-200Z"/><g><g class="mark-line role-mark marks" role="graphics-object" aria-roledescription="line mark container"><path aria-label="Time: Aug 27, 2025; Price: 999; identifier: allure-rs-2-2022" role="graphics-symbol" aria-roledescription="line mark" d="M42.988,89L43.357,89L43.723,89L43.867,89L44.405,89L45.503,89L46.06,89L46.645,89L47.154,89L47.691,89L48.79,89L49.345,89L49.929,89L50.439,89L50.976,89L54.236,111.222L54.261,111.222L55.362,111.222L55.713,111.222L55.91,111.222L56.495,111.222L57.008,111.222L57.549,111.222L58.66,111.222L59.212,111.222L59.795,111.222L60.299,111.222L60.836,111.222L61.942,111.222L62.497,111.222L63.085,111.222L63.588,111.222L64.125,111.222L65.224,111.222L65.779,111.222L66.365,111.222L66.874,111.222L67.411,111.222L68.511,111.222L69.068,111.222L69.649,111.222L70.163,111.222L70.698,111.222L71.799,111.222L72.354,111.222L72.938,111.222L73.444,111.222L73.986,111.222L75.083,111.222L75.365,111.222L75.632,111.222L76.211,111.222L76.726,111.222L77.271,111.222L78.369,111.222L78.918,111.222L79.501,111.222L80.014,111.222L80.559,111.222L81.662,111.222L82.221,111.222L82.807,111.222L83.312,111.222L83.851,111.222L84.948,111.222L85.507,111.222L86.113,111.222L86.602,111.222L87.134,111.222L88.231,111.222L88.791,111.222L89.374,111.222L89.884,111.222L90.423,111.222L91.522,111.222L92.077,111.222L92.659,111.222L93.164,111.222L93.707,111.222L94.807,111.222L95.363,111.222L95.945,111.222L96.453,111.222L96.994,111.222L98.092,111.222L98.642,111.222L99.223,111.222L99.734,111.222L100.282,111.222L101.38,111.222L101.93,111.222L102.507,111.222L103.02,111.222L103.569,111.222L104.673,111.222L105.227,111.222L105.814,111.222L106.321,111.222L106.859,111.222L107.957,111.222L108.517,111.222L109.101,111.222L109.607,111.222L110.146,111.222L111.246,111.222L111.801,111.222L112.388,111.222L112.895,111.222L113.433,111.222L114.532,111.222L115.088,111.222L115.674,111.222L116.18,111.222L116.72,111.222L117.82,111.222L118.375,111.222L118.96,111.222L119.469,111.222L120.005,111.222L121.104,111.222L121.656,111.222L122.237,111.222L122.746,111.222L123.292,111.222L124.393,111.222L124.941,111.222L125.524,111.222L126.036,111.222L126.58,111.222L127.682,111.222L128.241,111.222L128.826,111.222L129.325,111.222L129.87,111.222L130.968,111.222L131.526,111.222L132.111,111.222L132.62,111.222L133.157,111.222L134.256,111.222L134.814,111.222L135.399,111.222L135.91,111.222L136.442,111.222L137.543,111.222L138.102,111.222L138.689,111.222L139.196,111.222L139.729,111.222L140.829,111.222L141.388,111.222L141.972,111.222L142.48,111.222L143.016,111.222L144.116,111.222L144.664,111.222L145.246,111.222L145.758,111.222L146.304,111.222L147.403,111.222L147.951,111.222L148.534,111.222L149.043,111.222L149.59,111.222L150.693,111.222L151.253,111.222L151.838,111.222L152.33,111.222L152.879,111.222L153.979,111.222L154.542,111.222L155.125,111.222L155.629,111.222L156.167,111.222L157.268,111.222L157.826,111.222L158.413,111.222L158.917,111.222L159.454,111.222L160.551,111.222L161.108,111.222L161.691,111.222L162.204,111.222L162.74,111.222L163.837,111.222L164.395,111.222L164.977,111.222L165.489,111.222L166.026,111.222L167.124,111.222L167.675,111.222L168.255,111.222L168.769,111.222L169.313,111.222L170.409,111.222L170.96,111.222L171.544,111.222L172.056,111.222L172.601,111.222L173.701,111.222L174.26,111.222L174.846,111.222L175.353,111.222L175.891,111.222L176.988,111.222L177.546,111.222L178.134,111.222L178.64,111.222L179.177,111.222L180.277,111.222L180.836,111.222L181.422,111.222L181.928,111.222L182.465,111.222L183.565,111.222L184.123,111.222L184.71,111.222L185.22,111.222L185.753,111.222L186.851,111.222L187.408,111.222L187.992,111.222L188.501,111.222L189.039,111.222L190.135,111.222L190.685,111.222L191.266,111.222L191.777,111.222L192.324,111.222L193.423,111.222L193.972,111.222L194.554,111.222L195.067,111.222L195.611,111.222L196.717,111.222L197.277,111.222L197.859,111.222L198.365,111.222L198.9,111.222L199.999,111.222" stroke="#54a24b" stroke-width="2"/></g></g><path class="foreground" aria-hidden="true" d="" display="none"/></g><g transform="translate(0,0)"><path class="background" aria-hidden="true" d="M0,0h200v200h-200Z"/><g><g class="mark-line role-mark marks" role="graphics-object" aria-roledescription="line mark container"><path aria-label="Time: Aug 27, 2025; Price: 949; identifier: allure-rs-2-2023" role="graphics-symbol" aria-roledescription="line mark" d="M42.988,94.556L43.357,94.556L43.723,94.556L43.867,94.556L44.405,94.556L45.503,94.556L46.06,94.556L46.646,94.556L47.154,94.556L47.691,94.556L48.79,94.556L49.345,94.556L49.929,94.556L50.439,94.556L50.976,94.556L52.073,94.556L52.624,94.556L53.206,94.556L53.719,94.556L54.236,94.556L54.261,94.556L55.362,94.556L55.713,94.556L55.91,94.556L56.495,94.556L57.008,94.556L57.549,94.556L58.66,94.556L59.212,94.556L59.796,94.556L60.299,94.556L60.836,94.556L61.942,94.556L62.497,94.556L63.085,94.556L63.588,94.556L64.125,94.556L65.225,94.556L65.779,94.556L66.365,94.556L66.874,94.556L67.411,94.556L68.511,94.556L69.068,94.556L69.649,94.556L70.163,94.556L70.698,94.556L71.799,94.556L72.354,94.556L72.938,94.556L73.444,94.556L73.986,94.556L75.083,94.556L75.365,94.556L75.632,94.556L76.212,94.556L76.726,94.556L77.272,94.556L78.369,94.556L78.918,94.556L79.501,94.556L80.014,94.556L80.559,94.556L81.662,94.556L82.221,94.556L82.807,94.556L83.312,94.556L83.851,94.556L84.948,94.556L85.507,94.556L86.113,94.556L86.602,94.556L87.134,94.556L88.231,94.556L88.791,94.556L89.374,94.556L89.884,94.556L90.423,94.556L91.522,94.556L92.077,94.556L92.66,94.556L93.164,94.556L93.707,94.556L94.807,94.556L95.363,94.556L95.945,94.556L96.453,94.556L96.994,94.556L98.092,94.556L98.642,94.556L99.223,94.556L99.734,94.556L100.282,94.556L101.38,94.556L101.93,94.556L102.507,94.556L103.02,94.556L103.569,94.556L104.673,94.556L105.227,94.556L105.815,94.556L106.321,94.556L106.859,94.556L107.957,94.556L108.517,94.556L109.101,94.556L109.607,94.556L110.146,94.556L111.246,94.556L111.801,94.556L112.388,94.556L112.895,94.556L113.433,94.556L114.532,94.556L115.088,94.556L115.674,94.556L116.18,94.556L116.72,94.556L117.82,94.556L118.375,94.556L118.96,94.556L119.469,94.556L120.005,94.556L121.104,94.556L121.656,94.556L122.238,94.556L122.746,94.556L123.292,94.556L124.393,94.556L124.941,94.556L125.524,94.556L126.036,94.556L126.58,94.556L127.682,94.556L128.241,94.556L128.826,94.556L129.325,94.556L129.87,94.556L130.968,94.556L131.526,94.556L132.111,94.556L132.62,94.556L133.157,94.556L134.256,94.556L134.814,94.556L135.399,94.556L135.91,94.556L136.442,94.556L137.544,94.556L138.102,94.556L138.689,94.556L139.196,94.556L139.729,94.556L140.829,94.556L141.388,94.556L141.972,94.556L142.48,94.556L143.016,94.556L144.116,94.556L144.664,94.556L145.246,94.556L145.758,94.556L146.304,94.556L147.403,94.556L147.951,94.556L148.534,94.556L149.043,94.556L149.59,94.556L150.693,94.556L151.253,94.556L151.838,94.556L152.33,94.556L152.879,94.556L153.979,94.556L154.542,94.556L155.125,94.556L155.629,94.556L156.167,94.556L157.268,94.556L157.826,94.556L158.413,94.556L158.917,94.556L159.454,94.556L160.551,94.556L161.108,94.556L161.692,94.556L162.204,94.556L162.74,94.556L163.837,94.556L164.395,94.556L164.977,94.556L165.489,94.556L166.026,94.556L167.124,94.556L167.675,94.556L168.255,94.556L168.769,94.556L169.313,94.556L170.409,94.556L170.96,94.556L171.544,94.556L172.056,94.556L172.601,94.556L173.701,94.556L174.26,94.556L174.846,94.556L175.353,94.556L175.891,94.556L176.988,94.556L177.546,94.556L178.134,94.556L178.64,94.556L179.177,94.556L180.277,94.556L180.836,94.556L181.422,94.556L181.928,94.556L182.465,94.556L183.565,94.556L184.123,94.556L184.71,94.556L185.22,94.556L185.753,94.556L186.851,94.556L187.408,94.556L187.992,94.556L188.501,94.556L189.039,94.556L190.135,94.556L190.685,94.556L191.266,94.556L191.777,94.556L192.324,94.556L193.423,94.556L193.973,94.556L194.554,94.556L195.067,94.556L195.611,94.556L196.717,94.556L197.277,94.556L197.859,94.556L198.365,94.556L198.9,94.556L200,94.556" stroke="#bab0ac" stroke-width="2"/></g></g><path class="foreground" aria-hidden="true" d="" display="none"/></g><g transform="translate(0,0)"><path class="background" aria-hidden="true" d="M0,0h200v200h-200Z"/><g><g class="mark-line role-mark marks" role="graphics-object" aria-roledescription="line mark container"><path aria-label="Time: Aug 27, 2025; Price: 999; identifier: allure-rs-2-2024" role="graphics-symbol" aria-roledescription="line mark" d="M42.988,89L43.357,89L43.723,89L43.867,89L44.405,89L45.503,89L46.06,89L46.646,89L47.154,89L47.691,89L48.79,89L49.345,89L49.929,89L50.439,89L50.976,89L54.236,111.222L54.261,111.222L55.362,111.222L55.713,111.222L55.91,111.222L56.495,111.222L57.008,111.222L57.55,111.222L58.66,111.222L59.212,111.222L59.796,111.222L60.299,111.222L60.836,111.222L61.942,111.222L62.497,111.222L63.085,111.222L63.588,111.222L64.126,111.222L65.225,111.222L65.779,111.222L66.365,111.222L66.874,111.222L67.412,111.222L68.511,111.222L69.068,111.222L69.649,111.222L70.164,111.222L70.698,111.222L71.799,111.222L72.354,111.222L72.938,111.222L73.444,111.222L73.986,111.222L75.083,111.222L75.365,111.222L75.632,111.222L76.212,111.222L76.726,111.222L77.272,111.222L78.369,111.222L78.919,111.222L79.501,111.222L80.014,111.222L80.559,111.222L81.662,111.222L82.221,111.222L82.808,111.222L83.312,111.222L83.851,111.222L84.948,111.222L85.507,111.222L86.113,111.222L86.602,111.222L87.134,111.222L88.231,111.222L88.791,111.222L89.374,111.222L89.884,111.222L90.423,111.222L91.522,111.222L92.077,111.222L92.66,111.222L93.165,111.222L93.707,111.222L94.807,111.222L95.363,111.222L95.945,111.222L96.453,111.222L96.994,111.222L98.092,111.222L98.642,111.222L99.223,111.222L99.734,111.222L100.282,111.222L101.38,111.222L101.93,111.222L102.508,111.222L103.02,111.222L103.569,111.222L104.673,111.222L105.227,111.222L105.815,111.222L106.321,111.222L106.859,111.222L107.957,111.222L108.517,111.222L109.101,111.222L109.607,111.222L110.146,111.222L111.246,111.222L111.801,111.222L112.388,111.222L112.895,111.222L113.433,111.222L114.532,111.222L115.088,111.222L115.675,111.222L116.18,111.222L116.72,111.222L117.82,111.222L118.375,111.222L118.96,111.222L119.469,111.222L120.005,111.222L121.104,111.222L121.656,111.222L122.238,111.222L122.746,111.222L123.292,111.222L124.393,111.222L124.941,111.222L125.524,111.222L126.036,111.222L126.58,111.222L127.682,111.222L128.241,111.222L128.826,111.222L129.325,111.222L129.87,111.222L130.968,111.222L131.526,111.222L132.111,111.222L132.62,111.222L133.157,111.222L134.256,111.222L134.814,111.222L135.399,111.222L135.91,111.222L136.442,111.222L137.544,111.222L138.103,111.222L138.689,111.222L139.196,111.222L139.729,111.222L140.829,111.222L141.388,111.222L141.972,111.222L142.48,111.222L143.016,111.222L144.116,111.222L144.664,111.222L145.246,111.222L145.758,111.222L146.304,111.222L147.403,111.222L147.951,111.222L148.534,111.222L149.043,111.222L149.59,111.222L150.693,111.222L151.253,111.222L151.839,111.222L152.33,111.222L152.879,111.222L153.979,111.222L154.542,111.222L155.125,111.222L155.629,111.222L156.167,111.222L157.268,111.222L157.826,111.222L158.413,111.222L158.917,111.222L159.454,111.222L160.551,111.222L161.108,111.222L161.692,111.222L162.204,111.222L162.74,111.222L163.838,111.222L164.395,111.222L164.977,111.222L165.489,111.222L166.026,111.222L167.124,111.222L167.675,111.222L168.255,111.222L168.769,111.222L169.313,111.222L170.41,111.222L170.96,111.222L171.544,111.222L172.056,111.222L172.601,111.222L173.701,111.222L174.26,111.222L174.846,111.222L175.353,111.222L175.891,111.222L176.988,111.222L177.546,111.222L178.134,111.222L178.64,111.222L179.178,111.222L180.277,111.222L180.836,111.222L181.422,111.222L181.928,111.222L182.465,111.222L183.566,111.222L184.124,111.222L184.71,111.222L185.22,111.222L185.753,111.222L186.851,111.222L187.408,111.222L187.993,111.222L188.501,111.222L189.039,111.222L190.135,111.222L190.685,111.222L191.266,111.222L191.777,111.222L192.324,111.222L193.423,111.222L193.973,111.222L194.554,111.222L195.067,111.222L195.611,111.222L196.717,111.222L197.277,111.222L197.86,111.222L198.365,111.222L198.9,111.222L200,111.222" stroke="#eeca3b" stroke-width="2"/></g></g><path class="foreground" aria-hidden="true" d="" display="none"/></g><g transform="translate(0,0)"><path class="background" aria-hidden="true" d="M0,0h200v200h-200Z"/><g><g class="mark-line role-mark marks" role="graphics-object" aria-roledescription="line mark container"><path aria-label="Time: Aug 27, 2025; Price: 1799; identifier: devote-1-2024" role="graphics-symbol" aria-roledescription="line mark" d="M43.723,0.111L43.867,0.111L44.405,0.111L45.503,0.111L46.06,0.111L46.646,0.111L47.154,0.111L47.691,0.111L48.79,0.111L49.345,0.111L49.929,0.111L50.44,0.111L50.976,0.111L54.236,44.556L54.261,44.556L55.362,44.556L55.713,44.556L55.91,44.556L56.495,44.556L57.008,44.556L57.55,44.556L58.66,44.556L59.212,44.556L59.796,44.556L60.299,44.556L60.836,44.556L61.942,44.556L62.498,44.556L63.085,44.556L63.588,44.556L64.126,44.556L65.225,44.556L65.779,44.556L66.365,44.556L66.874,44.556L67.412,44.556L68.511,44.556L69.068,44.556L69.649,44.556L70.164,44.556L70.698,44.556L71.8,44.556L72.354,44.556L72.938,44.556L73.445,44.556L73.986,44.556L75.083,44.556L75.365,44.556L75.632,44.556L76.212,44.556L76.726,44.556L77.272,44.556L78.369,44.556L78.919,44.556L79.501,44.556L80.014,44.556L80.559,44.556L81.662,44.556L82.221,44.556L82.808,44.556L83.313,44.556L83.851,44.556L84.948,44.556L85.507,44.556L86.113,44.556L86.602,44.556L87.134,44.556L88.231,44.556L88.791,44.556L89.374,44.556L89.884,44.556L90.423,44.556L91.522,44.556L92.077,44.556L92.66,44.556L93.165,44.556L93.707,44.556L94.807,44.556L95.363,44.556L95.946,44.556L96.453,44.556L96.994,44.556L98.092,44.556L98.642,44.556L99.223,44.556L99.734,44.556L100.282,44.556L101.38,44.556L101.93,44.556L102.508,44.556L103.02,44.556L103.569,44.556L104.673,44.556L105.227,44.556L105.815,44.556L106.322,44.556L106.859,44.556L107.957,44.556L108.517,44.556L109.101,44.556L109.607,44.556L110.146,44.556L111.246,44.556L111.802,44.556L112.388,44.556L112.895,44.556L113.433,44.556L114.532,44.556L115.088,44.556L115.675,44.556L116.18,44.556L116.72,44.556L117.82,44.556L118.375,44.556L118.96,44.556L119.469,44.556L120.005,44.556L121.105,44.556L121.656,44.556L122.238,44.556L122.746,44.556L123.292,44.556L124.393,44.556L124.941,44.556L125.524,44.556L126.036,44.556L126.58,44.556L127.682,44.556L128.241,44.556L128.826,44.556L129.326,44.556L129.87,44.556L130.968,44.556L131.526,44.556L132.111,44.556L132.62,44.556L133.157,44.556L134.256,44.556L134.814,44.556L135.399,44.556L135.91,44.556L136.442,44.556L137.544,44.556L138.103,44.556L138.689,44.556L139.196,44.556L139.729,44.556L140.829,44.556L141.388,44.556L141.972,44.556L142.48,44.556L143.016,44.556L144.116,44.556L144.664,44.556L145.246,44.556L145.758,44.556L146.304,44.556L147.403,44.556L147.952,44.556L148.534,44.556L149.043,44.556L149.59,44.556L150.694,44.556L151.253,44.556L151.839,44.556L152.33,44.556L152.879,44.556L153.979,44.556L154.542,44.556L155.125,44.556L155.629,44.556L156.167,44.556L157.268,44.556L157.826,44.556L158.413,44.556L158.917,44.556L159.454,44.556L160.551,44.556L161.108,44.556L161.692,44.556L162.204,44.556L162.74,44.556L163.838,44.556L164.395,44.556L164.977,44.556L165.489,44.556L166.026,44.556L167.124,44.556L167.675,44.556L168.256,44.556L168.769,44.556L169.313,44.556L170.41,44.556L170.96,44.556L171.544,44.556L172.056,44.556L172.601,44.556L173.701,44.556L174.26,44.556L174.846,44.556L175.353,44.556L175.891,44.556L176.988,44.556L177.546,44.556L178.134,44.556L178.64,44.556L179.178,44.556L180.277,44.556L180.836,44.556L181.422,44.556L181.928,44.556L182.465,44.556L183.566,44.556L184.124,44.556L184.71,44.556L185.22,44.556L185.753,44.556L186.851,44.556L187.408,44.556L187.993,44.556L188.501,44.556L189.039,44.556L190.136,44.556L190.685,44.556L191.266,44.556L191.777,44.556L192.324,44.556L193.423,44.556L193.973,44.556L194.554,44.556L195.067,44.556L195.611,44.556L196.717,44.556L197.277,44.556L197.86,44.556L198.365,44.556L198.9,44.556L200,44.556" stroke="#72b7b2" stroke-width="2"/></g></g><path class="foreground" aria-hidden="true" d="" display="none"/></g><g transform="translate(0,0)"><path class="background" aria-hidden="true" d="M0,0h200v200h-200Z"/><g><g class="mark-line role-mark marks" role="graphics-object" aria-roledescription="line mark container"><path aria-label="Time: Aug 27, 2025; Price: 1699; identifier: devote-1-2022" role="graphics-symbol" aria-roledescription="line mark" d="M43.723,11.222L43.867,11.222L44.405,11.222L45.503,11.222L46.06,11.222L46.646,11.222L47.154,11.222L47.691,11.222L48.79,11.222L49.345,11.222L49.929,11.222L50.44,11.222L50.976,11.222L52.074,11.222L52.624,11.222L53.206,11.222L53.719,11.222L54.236,11.222L54.261,11.222L55.362,11.222L55.713,11.222L55.91,11.222L56.495,11.222L57.008,11.222L57.55,11.222L58.66,11.222L59.212,11.222L59.796,11.222L60.299,11.222L60.836,11.222L61.942,11.222L62.498,11.222L63.085,11.222L63.588,11.222L64.126,11.222L65.225,11.222L65.779,11.222L66.365,11.222L66.874,11.222L67.412,11.222L68.511,11.222L69.068,11.222L69.649,11.222L70.164,11.222L70.698,11.222L71.8,11.222L72.354,11.222L72.938,11.222L73.445,11.222L73.986,11.222L75.083,11.222L75.365,11.222L75.632,11.222L76.212,11.222L76.726,11.222L77.272,11.222L78.369,11.222L78.919,11.222L79.501,11.222L80.014,11.222L80.559,11.222L81.662,11.222L82.221,11.222L82.808,11.222L83.313,11.222L83.851,11.222L84.948,11.222L85.507,11.222L86.113,11.222L86.602,11.222L87.134,11.222L88.231,11.222L88.791,11.222L89.374,11.222L89.884,11.222L90.423,11.222L91.522,11.222L92.077,11.222L92.66,11.222L93.165,11.222L93.707,11.222L94.807,11.222L95.363,11.222L95.946,11.222L96.453,11.222L96.994,11.222L98.092,11.222L98.642,11.222L99.223,11.222L99.734,11.222L100.282,11.222L101.381,11.222L101.93,11.222L102.508,11.222L103.02,11.222L103.569,11.222L104.673,11.222L105.227,11.222L105.815,11.222L106.322,11.222L106.86,11.222L107.958,11.222L108.517,11.222L109.101,11.222L109.607,11.222L110.146,11.222L111.246,11.222L111.802,11.222L112.388,11.222L112.895,11.222L113.433,11.222L114.533,11.222L115.088,11.222L115.675,11.222L116.18,11.222L116.72,11.222L117.82,11.222L118.375,11.222L118.961,11.222L119.469,11.222L120.006,11.222L121.105,11.222L121.656,11.222L122.238,11.222L122.746,11.222L123.292,11.222L124.393,11.222L124.941,11.222L125.524,11.222L126.036,11.222L126.58,11.222L127.682,11.222L128.242,11.222L128.826,11.222L129.326,11.222L129.871,11.222L130.968,11.222L131.526,11.222L132.111,11.222L132.62,11.222L133.157,11.222L134.256,11.222L134.814,11.222L135.399,11.222L135.91,11.222L136.442,11.222L137.544,11.222L138.103,11.222L138.689,11.222L139.196,11.222L139.729,11.222L140.829,11.222L141.388,11.222L141.972,11.222L142.48,11.222L143.016,11.222L144.116,11.222L144.664,11.222L145.246,11.222L145.758,11.222L146.304,11.222L147.403,11.222L147.952,11.222L148.535,11.222L149.043,11.222L149.59,11.222L150.694,11.222L151.253,11.222L151.839,11.222L152.33,11.222L152.879,11.222L153.979,11.222L154.542,11.222L155.125,11.222L155.629,11.222L156.167,11.222L157.269,11.222L157.826,11.222L158.413,11.222L158.917,11.222L159.455,11.222L160.551,11.222L161.108,11.222L161.692,11.222L162.204,11.222L162.74,11.222L163.838,11.222L164.395,11.222L164.977,11.222L165.489,11.222L166.026,11.222L167.124,11.222L167.675,11.222L168.256,11.222L168.769,11.222L169.313,11.222L170.41,11.222L170.961,11.222L171.544,11.222L172.056,11.222L172.601,11.222L173.701,11.222L174.26,11.222L174.846,11.222L175.353,11.222L175.891,11.222L176.988,11.222L177.546,11.222L178.134,11.222L178.64,11.222L179.178,11.222L180.277,11.222L180.836,11.222L181.422,11.222L181.928,11.222L182.465,11.222L183.566,11.222L184.124,11.222L184.711,11.222L185.22,11.222L185.753,11.222L186.851,11.222L187.408,11.222L187.993,11.222L188.501,11.222L189.039,11.222L190.136,11.222L190.685,11.222L191.266,11.222L191.777,11.222L192.324,11.222L193.423,11.222L193.973,11.222L194.554,11.222L195.067,11.222L195.611,11.222L196.717,11.222L197.277,11.222L197.86,11.222L198.365,11.222L198.9,11.222L200,11.222" stroke="#4c78a8" stroke-width="2"/></g></g><path class="foreground" aria-hidden="true" d="" display="none"/></g><g transform="translate(0,0)"><path class="background" aria-hidden="true" d="M0,0h200v200h-200Z"/><g><g class="mark-line role-mark marks" role="graphics-object" aria-roledescription="line mark container"><path aria-label="Time: Aug 31, 2025; Price: 1599; identifier: silex-400-oak-bork-2026" role="graphics-symbol" aria-roledescription="line mark" d="M55.713,22.333L55.91,22.333L56.495,22.333L57.008,22.333L57.55,22.333L58.66,22.333L59.213,22.333L59.796,22.333L60.299,22.333L60.836,22.333L61.942,22.333L62.498,22.333L63.085,22.333L63.589,22.333L64.126,22.333L65.225,22.333L65.78,22.333L66.365,22.333L66.874,22.333L67.412,22.333L68.511,22.333L69.068,22.333L69.649,22.333L70.164,22.333L70.698,22.333L71.8,22.333L72.354,22.333L72.938,22.333L73.445,22.333L73.987,22.333L75.083,22.333L75.365,22.333L75.632,22.333L76.212,22.333L76.726,22.333L77.272,22.333L78.37,22.333L78.919,22.333L79.501,22.333L80.014,22.333L80.559,22.333L81.663,22.333L82.222,22.333L82.808,22.333L83.313,22.333L83.851,22.333L84.948,22.333L85.507,22.333L86.114,22.333L86.602,22.333L87.135,22.333L88.231,22.333L88.791,22.333L89.374,22.333L89.884,22.333L90.423,22.333L91.523,22.333L92.077,22.333L92.66,22.333L93.165,22.333L93.708,22.333L94.807,22.333L95.363,22.333L95.946,22.333L96.453,22.333L96.995,22.333L98.092,22.333L98.643,22.333L99.223,22.333L99.734,22.333L100.282,22.333L101.381,22.333L101.93,22.333L102.508,22.333L103.021,22.333L103.569,22.333L104.673,22.333L105.227,22.333L105.815,22.333L106.322,22.333L106.86,22.333L107.958,22.333L108.517,22.333L109.101,22.333L109.607,22.333L110.146,22.333L111.246,22.333L111.802,22.333L112.389,22.333L112.895,22.333L113.433,22.333L114.533,22.333L115.088,22.333L115.675,22.333L116.18,22.333L116.721,22.333L117.82,22.333L118.375,22.333L118.961,22.333L119.469,22.333L120.006,22.333L121.105,22.333L121.657,22.333L122.238,22.333L122.746,22.333L123.292,22.333L124.393,22.333L124.941,22.333L125.524,22.333L126.036,22.333L126.581,22.333L127.682,22.333L128.242,22.333L128.827,22.333L129.326,22.333L129.871,22.333L130.968,22.333L131.526,22.333L132.111,22.333L132.621,22.333L133.158,22.333L134.257,22.333L134.815,22.333L135.4,22.333L135.91,22.333L136.442,22.333L137.544,22.333L138.103,22.333L138.689,22.333L139.196,22.333L139.729,22.333L140.83,22.333L141.388,22.333L141.972,22.333L142.48,22.333L143.017,22.333L144.116,22.333L144.664,22.333L145.246,22.333L145.759,22.333L146.304,22.333L147.403,22.333L147.952,22.333L148.535,22.333L149.043,22.333L149.59,22.333L150.694,22.333L151.253,22.333L151.839,22.333L152.331,22.333L152.88,22.333L153.98,22.333L154.542,22.333L155.125,22.333L155.629,22.333L156.168,22.333L157.269,22.333L157.827,22.333L158.413,22.333L158.918,22.333L159.455,22.333L160.552,22.333L161.108,22.333L161.692,22.333L162.204,22.333L162.74,22.333L163.838,22.333L164.395,22.333L164.978,22.333L165.489,22.333L166.027,22.333L167.124,22.333L167.675,22.333L168.256,22.333L168.769,22.333L169.313,22.333L170.41,22.333L170.961,22.333L171.544,22.333L172.056,22.333L172.602,22.333L173.702,22.333L174.26,22.333L174.846,22.333L175.354,22.333L175.891,22.333L176.988,22.333L177.546,22.333L178.134,22.333L178.64,22.333L179.178,22.333L180.277,22.333L180.836,22.333L181.423,22.333L181.928,22.333L182.465,22.333L183.566,22.333L184.124,22.333L184.711,22.333L185.22,22.333L185.753,22.333L186.851,22.333L187.408,22.333L187.993,22.333L188.501,22.333L189.04,22.333L190.136,22.333L190.686,22.333L191.267,22.333L191.777,22.333L192.324,22.333L193.423,22.333L193.973,22.333L194.554,22.333L195.067,22.333L195.611,22.333L196.717,22.333L197.277,22.333L197.86,22.333L198.366,22.333L198.9,22.333L200,22.333" stroke="#f58518" stroke-width="2"/></g></g><path class="foreground" aria-hidden="true" d="" display="none"/></g><g transform="translate(0,0)"><path class="background" aria-hidden="true" d="M0,0h200v200h-200Z"/><g><g class="mark-line role-mark marks" role="graphics-object" aria-roledescription="line mark container"><path aria-label="Time: Aug 31, 2025; Price: 1599; identifier: silex-400-warm-slate-grey-2026" role="graphics-symbol" aria-roledescription="line mark" d="M55.713,22.333L55.911,22.333L56.495,22.333L57.008,22.333L57.55,22.333L58.66,22.333L59.213,22.333L59.796,22.333L60.3,22.333L60.837,22.333L61.942,22.333L62.498,22.333L63.086,22.333L63.589,22.333L64.126,22.333L65.225,22.333L65.78,22.333L66.365,22.333L66.874,22.333L67.412,22.333L68.511,22.333L69.068,22.333L69.649,22.333L70.164,22.333L70.699,22.333L71.8,22.333L72.355,22.333L72.938,22.333L73.445,22.333L73.987,22.333L75.084,22.333L75.365,22.333L75.632,22.333L76.212,22.333L76.727,22.333L77.272,22.333L78.37,22.333L78.919,22.333L79.501,22.333L80.014,22.333L80.559,22.333L81.663,22.333L82.222,22.333L82.808,22.333L83.313,22.333L83.851,22.333L84.948,22.333L85.507,22.333L86.114,22.333L86.602,22.333L87.135,22.333L88.231,22.333L88.792,22.333L89.374,22.333L89.884,22.333L90.423,22.333L91.523,22.333L92.078,22.333L92.66,22.333L93.165,22.333L93.708,22.333L94.807,22.333L95.364,22.333L95.946,22.333L96.454,22.333L96.995,22.333L98.092,22.333L98.643,22.333L99.223,22.333L99.735,22.333L100.282,22.333L101.381,22.333L101.93,22.333L102.508,22.333L103.021,22.333L103.569,22.333L104.673,22.333L105.227,22.333L105.815,22.333L106.322,22.333L106.86,22.333L107.958,22.333L108.517,22.333L109.101,22.333L109.607,22.333L110.147,22.333L111.246,22.333L111.802,22.333L112.389,22.333L112.895,22.333L113.433,22.333L114.533,22.333L115.088,22.333L115.675,22.333L116.18,22.333L116.721,22.333L117.82,22.333L118.375,22.333L118.961,22.333L119.469,22.333L120.006,22.333L121.105,22.333L121.657,22.333L122.238,22.333L122.746,22.333L123.292,22.333L124.393,22.333L124.941,22.333L125.524,22.333L126.036,22.333L126.581,22.333L127.682,22.333L128.242,22.333L128.827,22.333L129.326,22.333L129.871,22.333L130.969,22.333L131.526,22.333L132.111,22.333L132.621,22.333L133.158,22.333L134.257,22.333L134.815,22.333L135.4,22.333L135.91,22.333L136.443,22.333L137.544,22.333L138.103,22.333L138.689,22.333L139.196,22.333L139.729,22.333L140.83,22.333L141.388,22.333L141.972,22.333L142.48,22.333L143.017,22.333L144.116,22.333L144.664,22.333L145.246,22.333L145.759,22.333L146.305,22.333L147.404,22.333L147.952,22.333L148.535,22.333L149.043,22.333L149.59,22.333L150.694,22.333L151.253,22.333L151.839,22.333L152.331,22.333L152.88,22.333L153.98,22.333L154.542,22.333L155.126,22.333L155.629,22.333L156.168,22.333L157.269,22.333L157.827,22.333L158.413,22.333L158.918,22.333L159.455,22.333L160.552,22.333L161.108,22.333L161.692,22.333L162.204,22.333L162.74,22.333L163.838,22.333L164.395,22.333L164.978,22.333L165.49,22.333L166.027,22.333L167.124,22.333L167.676,22.333L168.256,22.333L168.77,22.333L169.314,22.333L170.41,22.333L170.961,22.333L171.544,22.333L172.056,22.333L172.602,22.333L173.702,22.333L174.26,22.333L174.847,22.333L175.354,22.333L175.892,22.333L176.989,22.333L177.546,22.333L178.134,22.333L178.641,22.333L179.178,22.333L180.277,22.333L180.836,22.333L181.423,22.333L181.928,22.333L182.465,22.333L183.566,22.333L184.124,22.333L184.711,22.333L185.22,22.333L185.753,22.333L186.852,22.333L187.408,22.333L187.993,22.333L188.501,22.333L189.04,22.333L190.136,22.333L190.686,22.333L191.267,22.333L191.777,22.333L192.324,22.333L193.424,22.333L193.973,22.333L194.555,22.333L195.068,22.333L195.611,22.333L196.717,22.333L197.277,22.333L197.86,22.333L198.366,22.333L198.9,22.333L200,22.333" stroke="#e45756" stroke-width="2"/></g></g><path class="foreground" aria-hidden="true" d="" display="none"/></g></g><g class="mark-group role-legend" role="graphics-symbol" aria-roledescription="legend" aria-label="Symbol legend titled 'identifier' for stroke color with 16 values: devote-1-2022, silex-400-oak-bork-2026, silex-400-warm-slate-grey-2026, devote-1-2024, fastroad-ar-2, ending with allure-rs-2-2024"><g transform="translate(220,0)"><path class="background" aria-hidden="true" d="M0,0h256v222h-256Z" pointer-events="none"/><g><g class="mark-group role-legend-entry"><g transform="translate(0,16)"><path class="background" aria-hidden="true" d="M0,0h0v0h0Z" pointer-events="none"/><g><g class="mark-group role-scope" role="graphics-object" aria-roledescription="group mark container"><g transform="translate(0,0)"><path class="background" aria-hidden="true" d="M0,0h256v11h-256Z" pointer-events="none" opacity="1"/><g><g class="mark-symbol role-legend-symbol" pointer-events="none"><path transform="translate(6,6)" d="M-5,0L5,0" stroke="#4c78a8" stroke-width="1.5" opacity="1"/></g><g class="mark-text role-legend-label" pointer-events="none"><text text-anchor="start" transform="translate(16,9)" font-family="Liberation Mono" font-size="10px" fill="#000" opacity="1">devote-1-2022</text></g></g><path class="foreground" aria-hidden="true" d="" pointer-events="none" display="none"/></g><g transform="translate(0,13)"><path class="background" aria-hidden="true" d="M0,0h256v11h-256Z" pointer-events="none" opacity="1"/><g><g class="mark-symbol role-legend-symbol" pointer-events="none"><path transform="translate(6,6)" d="M-5,0L5,0" stroke="#f58518" stroke-width="1.5" opacity="1"/></g><g class="mark-text role-legend-label" pointer-events="none"><text text-anchor="start" transform="translate(16,9)" font-family="Liberation Mono" font-size="10px" fill="#000" opacity="1">silex-400-oak-bork-2026</text></g></g><path class="foreground" aria-hidden="true" d="" pointer-events="none" display="none"/></g><g transform="translate(0,26)"><path class="background" aria-hidden="true" d="M0,0h256v11h-256Z" pointer-events="none" opacity="1"/><g><g class="mark-symbol role-legend-symbol" pointer-events="none"><path transform="translate(6,6)" d="M-5,0L5,0" stroke="#e45756" stroke-width="1.5" opacity="1"/></g><g class="mark-text role-legend-label" pointer-events="none"><text text-anchor="start" transform="translate(16,9)" font-family="Liberation Mono" font-size="10px" fill="#000" opacity="1">silex-400-warm-slate-grey-2026</text></g></g><path class="foreground" aria-hidden="true" d="" pointer-events="none" display="none"/></g><g transform="translate(0,39)"><path class="background" aria-hidden="true" d="M0,0h256v11h-256Z" pointer-events="none" opacity="1"/><g><g class="mark-symbol role-legend-symbol" pointer-events="none"><path transform="translate(6,6)" d="M-5,0L5,0" stroke="#72b7b2" stroke-width="1.5" opacity="1"/></g><g class="mark-text role-legend-label" pointer-events="none"><text text-anchor="start" transform="translate(16,9)" font-family="Liberation Mono" font-size="10px" fill="#000" opacity="1">devote-1-2024</text></g></g><path class="foreground" aria-hidden="true" d="" pointer-events="none" display="none"/></g><g transform="translate(0,52)"><path class="background" aria-hidden="true" d="M0,0h256v11h-256Z" pointer-events="none" opacity="1"/><g><g class="mark-symbol role-legend-symbol" pointer-events="none"><path transform="translate(6,6)" d="M-5,0L5,0" stroke="#54a24b" stroke-width="1.5" opacity="1"/></g><g class="mark-text role-legend-label" pointer-events="none"><text text-anchor="start" transform="translate(16,9)" font-family="Liberation Mono" font-size="10px" fill="#000" opacity="1">fastroad-ar-2</text></g></g><path class="foreground" aria-hidden="true" d="" pointer-events="none" display="none"/></g><g transform="translate(0,65)"><path class="background" aria-hidden="true" d="M0,0h256v11h-256Z" pointer-events="none" opacity="1"/><g><g class="mark-symbol role-legend-symbol" pointer-events="none"><path transform="translate(6,6)" d="M-5,0L5,0" stroke="#eeca3b" stroke-width="1.5" opacity="1"/></g><g class="mark-text role-legend-label" pointer-events="none"><text text-anchor="start" transform="translate(16,9)" font-family="Liberation Mono" font-size="10px" fill="#000" opacity="1">thrive-2</text></g></g><path class="foreground" aria-hidden="true" d="" pointer-events="none" display="none"/></g><g transform="translate(0,78)"><path class="background" aria-hidden="true" d="M0,0h256v11h-256Z" pointer-events="none" opacity="1"/><g><g class="mark-symbol role-legend-symbol" pointer-events="none"><path transform="translate(6,6)" d="M-5,0L5,0" stroke="#b279a2" stroke-width="1.5" opacity="1"/></g><g class="mark-text role-legend-label" pointer-events="none"><text text-anchor="start" transform="translate(16,9)" font-family="Liberation Mono" font-size="10px" fill="#000" opacity="1">allure-rs-1-2023</text></g></g><path class="foreground" aria-hidden="true" d="" pointer-events="none" display="none"/></g><g transform="translate(0,91)"><path class="background" aria-hidden="true" d="M0,0h256v11h-256Z" pointer-events="none" opacity="1"/><g><g class="mark-symbol role-legend-symbol" pointer-events="none"><path transform="translate(6,6)" d="M-5,0L5,0" stroke="#ff9da6" stroke-width="1.5" opacity="1"/></g><g class="mark-text role-legend-label" pointer-events="none"><text text-anchor="start" transform="translate(16,9)" font-family="Liberation Mono" font-size="10px" fill="#000" opacity="1">roam-2</text></g></g><path class="foreground" aria-hidden="true" d="" pointer-events="none" display="none"/></g><g transform="translate(0,104)"><path class="background" aria-hidden="true" d="M0,0h256v11h-256Z" pointer-events="none" opacity="1"/><g><g class="mark-symbol role-legend-symbol" pointer-events="none"><path transform="translate(6,6)" d="M-5,0L5,0" stroke="#9d755d" stroke-width="1.5" opacity="1"/></g><g class="mark-text role-legend-label" pointer-events="none"><text text-anchor="start" transform="translate(16,9)" font-family="Liberation Mono" font-size="10px" fill="#000" opacity="1">fastroad-sl-3-2022</text></g></g><path class="foreground" aria-hidden="true" d="" pointer-events="none" display="none"/></g><g transform="translate(0,117)"><path class="background" aria-hidden="true" d="M0,0h256v11h-256Z" pointer-events="none" opacity="1"/><g><g class="mark-symbol role-legend-symbol" pointer-events="none"><path transform="translate(6,6)" d="M-5,0L5,0" stroke="#bab0ac" stroke-width="1.5" opacity="1"/></g><g class="mark-text role-legend-label" pointer-events="none"><text text-anchor="start" transform="translate(16,9)" font-family="Liberation Mono" font-size="10px" fill="#000" opacity="1">allure-rs-2-2023</text></g></g><path class="foreground" aria-hidden="true" d="" pointer-events="none" display="none"/></g><g transform="translate(0,130)"><path class="background" aria-hidden="true" d="M0,0h256v11h-256Z" pointer-events="none" opacity="1"/><g><g class="mark-symbol role-legend-symbol" pointer-events="none"><path transform="translate(6,6)" d="M-5,0L5,0" stroke="#4c78a8" stroke-width="1.5" opacity="1"/></g><g class="mark-text role-legend-label" pointer-events="none"><text text-anchor="start" transform="translate(16,9)" font-family="Liberation Mono" font-size="10px" fill="#000" opacity="1">escape-city-disc-1-2024</text></g></g><path class="foreground" aria-hidden="true" d="" pointer-events="none" display="none"/></g><g transform="translate(0,143)"><path class="background" aria-hidden="true" d="M0,0h256v11h-256Z" pointer-events="none" opacity="1"/><g><g class="mark-symbol role-legend-symbol" pointer-events="none"><path transform="translate(6,6)" d="M-5,0L5,0" stroke="#f58518" stroke-width="1.5" opacity="1"/></g><g class="mark-text role-legend-label" pointer-events="none"><text text-anchor="start" transform="translate(16,9)" font-family="Liberation Mono" font-size="10px" fill="#000" opacity="1">sdrbike-escape-1-city-disc</text></g></g><path class="foreground" aria-hidden="true" d="" pointer-events="none" display="none"/></g><g transform="translate(0,156)"><path class="background" aria-hidden="true" d="M0,0h256v11h-256Z" pointer-events="none" opacity="1"/><g><g class="mark-symbol role-legend-symbol" pointer-events="none"><path transform="translate(6,6)" d="M-5,0L5,0" stroke="#e45756" stroke-width="1.5" opacity="1"/></g><g class="mark-text role-legend-label" pointer-events="none"><text text-anchor="start" transform="translate(16,9)" font-family="Liberation Mono" font-size="10px" fill="#000" opacity="1">roam-disc-2-2024</text></g></g><path class="foreground" aria-hidden="true" d="" pointer-events="none" display="none"/></g><g transform="translate(0,169)"><path class="background" aria-hidden="true" d="M0,0h256v11h-256Z" pointer-events="none" opacity="1"/><g><g class="mark-symbol role-legend-symbol" pointer-events="none"><path transform="translate(6,6)" d="M-5,0L5,0" stroke="#72b7b2" stroke-width="1.5" opacity="1"/></g><g class="mark-text role-legend-label" pointer-events="none"><text text-anchor="start" transform="translate(16,9)" font-family="Liberation Mono" font-size="10px" fill="#000" opacity="1">rove-2</text></g></g><path class="foreground" aria-hidden="true" d="" pointer-events="none" display="none"/></g><g transform="translate(0,182)"><path class="background" aria-hidden="true" d="M0,0h256v11h-256Z" pointer-events="none" opacity="1"/><g><g class="mark-symbol role-legend-symbol" pointer-events="none"><path transform="translate(6,6)" d="M-5,0L5,0" stroke="#54a24b" stroke-width="1.5" opacity="1"/></g><g class="mark-text role-legend-label" pointer-events="none"><text text-anchor="start" transform="translate(16,9)" font-family="Liberation Mono" font-size="10px" fill="#000" opacity="1">allure-rs-2-2022</text></g></g><path class="foreground" aria-hidden="true" d="" pointer-events="none" display="none"/></g><g transform="translate(0,195)"><path class="background" aria-hidden="true" d="M0,0h256v11h-256Z" pointer-events="none" opacity="1"/><g><g class="mark-symbol role-legend-symbol" pointer-events="none"><path transform="translate(6,6)" d="M-5,0L5,0" stroke="#eeca3b" stroke-width="1.5" opacity="1"/></g><g class="mark-text role-legend-label" pointer-events="none"><text text-anchor="start" transform="translate(16,9)" font-family="Liberation Mono" font-size="10px" fill="#000" opacity="1">allure-rs-2-2024</text></g></g><path class="foreground" aria-hidden="true" d="" pointer-events="none" display="none"/></g></g></g><path class="foreground" aria-hidden="true" d="" pointer-events="none" display="none"/></g></g><g class="mark-text role-legend-title" pointer-events="none"><text text-anchor="start" transform="translate(0,9)" font-family="Liberation Mono" font-size="11px" font-weight="bold" fill="#000" opacity="1">identifier</text></g></g><path class="foreground" aria-hidden="true" d="" pointer-events="none" display="none"/></g></g></g><path class="foreground" aria-hidden="true" d="" display="none"/></g></g></g></svg>