<svg xmlns="http://www.w3.org/2000/svg" xmlns:xlink="http://www.w3.org/1999/xlink" version="1.1" class="marks" width="548" height="244" viewBox="0 0 548 244"><rect width="548" height="244" fill="white"/><g fill="none" stroke-miterlimit="10" transform="translate(67,7)"><g class="mark-group role-frame root" role="graphics-object" aria-roledescription="group mark container"><g transform="translate(0,0)"><path class="background" aria-hidden="true" d="M0.5,0.5h200v200h-200Z" stroke="#ddd"/><g><g class="mark-group role-axis" aria-hidden="true"><g transform="translate(0.5,200.5)"><path class="background" aria-hidden="true" d="M0,0h0v0h0Z" pointer-events="none"/><g><g class="mark-rule role-axis-grid" pointer-events="none"><line transform="translate(8,-200)" x2="0" y2="200" stroke="#ddd" stroke-width="1" opacity="1"/><line transform="translate(30,-200)" x2="0" y2="200" stroke="#ddd" stroke-width="1" opacity="1"/><line transform="translate(51,-200)" x2="0" y2="200" stroke="#ddd" stroke-width="1" opacity="1"/><line transform="translate(72,-200)" x2="0" y2="200" stroke="#ddd" stroke-width="1" opacity="1"/><line transform="translate(94,-200)" x2="0" y2="200" stroke="#ddd" stroke-width="1" opacity="1"/><line transform="translate(115,-200)" x2="0" y2="200" stroke="#ddd" stroke-width="1" opacity="1"/><line transform="translate(137,-200)" x2="0" y2="200" stroke="#ddd" stroke-width="1" opacity="1"/><line transform="translate(158,-200)" x2="0" y2="200" stroke="#ddd" stroke-width="1" opacity="1"/><line transform="translate(179,-200)" x2="0" y2="200" stroke="#ddd" stroke-width="1" opacity="1"/></g></g><path class="foreground" aria-hidden="true" d="" pointer-events="none" display="none"/></g></g><g class="mark-group role-axis" aria-hidden="true"><g transform="translate(0.5,0.5)"><path class="background" aria-hidden="true" d="M0,0h0v0h0Z" pointer-events="none"/><g><g class="mark-rule role-axis-grid" pointer-events="none"><line transform="translate(0,200)" x2="200" y2="0" stroke="#ddd" stroke-width="1" opacity="1"/><line transform="translate(0,144)" x2="200" y2="0" stroke="#ddd" stroke-width="1" opacity="1"/><line transform="translate(0,89)" x2="200" y2="0" stroke="#ddd" stroke-width="1" opacity="1"/><line transform="translate(0,33)" x2="200" y2="0" stroke="#ddd" stroke-width="1" opacity="1"/></g></g><path class="foreground" aria-hidden="true" d="" pointer-events="none" display="none"/></g></g><g class="mark-group role-axis" role="graphics-symbol" aria-roledescription="axis" aria-label="X-axis titled 'Time' for a time scale with values from Thursday, 14 August 2025, 8:34:48 AM to Saturday, 18 October 2025, 4:47:13 PM"><g transform="translate(0.5,200.5)"><path class="background" aria-hidden="true" d="M0,0h0v0h0Z" pointer-events="none"/><g><g class="mark-rule role-axis-tick" pointer-events="none"><line transform="translate(8,0)" x2="0" y2="5" stroke="#888" stroke-width="1" opacity="1"/><line transform="translate(30,0)" x2="0" y2="5" stroke="#888" stroke-width="1" opacity="1"/><line transform="translate(51,0)" x2="0" y2="5" stroke="#888" stroke-width="1" opacity="1"/><line transform="translate(72,0)" x2="0" y2="5" stroke="#888" stroke-width="1" opacity="1"/><line transform="translate(94,0)" x2="0" y2="5" stroke="#888" stroke-width="1" opacity="1"/><line transform="translate(115,0)" x2="0" y2="5" stroke="#888" stroke-width="1" opacity="1"/><line transform="translate(137,0)" x2="0" y2="5" stroke="#888" stroke-width="1" opacity="1"/><line transform="translate(158,0)" x2="0" y2="5" stroke="#888" stroke-width="1" opacity="1"/><line transform="translate(179,0)" x2="0" y2="5" stroke="#888" stroke-width="1" opacity="1"/></g><g class="mark-text role-axis-label" pointer-events="none"><text text-anchor="middle" transform="translate(8.088191800685708,15)" font-family="Liberation Mono" font-size="10px" fill="#000" opacity="1">Aug 17</text><text text-anchor="middle" transform="translate(29.513936297215942,15)" font-family="Liberation Mono" font-size="10px" fill="#000" opacity="0">Aug 24</text><text text-anchor="middle" transform="translate(50.93968079374618,15)" font-family="Liberation Mono" font-size="10px" fill="#000" opacity="0">Aug 31</text><text text-anchor="middle" transform="translate(72.36542529027642,15)" font-family="Liberation Mono" font-size="10px" fill="#000" opacity="0">Sep 07</text><text text-anchor="middle" transform="translate(93.79116978680665,15)" font-family="Liberation Mono" font-size="10px" fill="#000" opacity="1">Sep 14</text><text text-anchor="middle" transform="translate(115.21691428333689,15)" font-family="Liberation Mono" font-size="10px" fill="#000" opacity="0">Sep 21</text><text text-anchor="middle" transform="translate(136.64265877986713,15)" font-family="Liberation Mono" font-size="10px" fill="#000" opacity="0">Sep 28</text><text text-anchor="middle" transform="translate(158.06840327639736,15)" font-family="Liberation Mono" font-size="10px" fill="#000" opacity="0">Oct 05</text><text text-anchor="middle" transform="translate(179.4941477729276,15)" font-family="Liberation Mono" font-size="10px" fill="#000" opacity="1">Oct 12</text></g><g class="mark-rule role-axis-domain" pointer-events="none"><line transform="translate(0,0)" x2="200" y2="0" stroke="#888" stroke-width="1" opacity="1"/></g><g class="mark-text role-axis-title" pointer-events="none"><text text-anchor="middle" transform="translate(100,30)" font-family="Liberation Mono" font-size="11px" font-weight="bold" fill="#000" opacity="1">Time</text></g></g><path class="foreground" aria-hidden="true" d="" pointer-events="none" display="none"/></g></g><g class="mark-group role-axis" role="graphics-symbol" aria-roledescription="axis" aria-label="Y-axis titled 'Price' for a linear scale with values from 0 to 1,800"><g transform="translate(0.5,0.5)"><path class="background" aria-hidden="true" d="M0,0h0v0h0Z" pointer-events="none"/><g><g class="mark-rule role-axis-tick" pointer-events="none"><line transform="translate(0,200)" x2="-5" y2="0" stroke="#888" stroke-width="1" opacity="1"/><line transform="translate(0,144)" x2="-5" y2="0" stroke="#888" stroke-width="1" opacity="1"/><line transform="translate(0,89)" x2="-5" y2="0" stroke="#888" stroke-width="1" opacity="1"/><line transform="translate(0,33)" x2="-5" y2="0" stroke="#888" stroke-width="1" opacity="1"/></g><g class="mark-text role-axis-label" pointer-events="none"><text text-anchor="end" transform="translate(-7,203)" font-family="Liberation Mono" font-size="10px" fill="#000" opacity="1">0</text><text text-anchor="end" transform="translate(-7,147.44444444444443)" font-family="Liberation Mono" font-size="10px" fill="#000" opacity="1">500</text><text text-anchor="end" transform="translate(-7,91.88888888888889)" font-family="Liberation Mono" font-size="10px" fill="#000" opacity="1">1,000</text><text text-anchor="end" transform="translate(-7,36.33333333333333)" font-family="Liberation Mono" font-size="10px" fill="#000" opacity="1">1,500</text></g><g class="mark-rule role-axis-domain" pointer-events="none"><line transform="translate(0,200)" x2="0" y2="-200" stroke="#888" stroke-width="1" opacity="1"/></g><g class="mark-text role-axis-title" pointer-events="none"><text text-anchor="middle" transform="translate(-51,100) rotate(-90) translate(0,-2)" font-family="Liberation Mono" font-size="11px" font-weight="bold" fill="#000" opacity="1">Price</text></g></g><path class="foreground" aria-hidden="true" d="" pointer-events="none" display="none"/></g></g><g class="mark-group role-scope pathgroup" role="graphics-object" aria-roledescription="group mark container"><g transform="translate(0,0)"><path class="background" aria-hidden="true" d="M0,0h200v200h-200Z"/><g><g class="mark-line role-mark marks" role="graphics-object" aria-roledescription="line mark container"><path aria-label="Time: Aug 14, 2025; Price: 899; identifier: escape-city-disc-1-2024" role="graphics-symbol" aria-roledescription="line mark" d="M0,100.111L0.025,100.111L0.045,100.111L0.61,100.111L1.058,100.111L1.561,100.111L2.594,100.111L3.101,100.111L3.661,100.111L4.12,100.111L4.62,100.111L5.645,100.111L6.158,100.111L6.701,100.111L7.175,100.111L7.676,100.111L8.717,100.111L9.217,100.111L9.763,100.111L10.238,100.111L10.741,100.111L11.787,100.111L12.289,100.111L12.853,100.111L13.051,100.111L13.308,100.111L13.799,100.111L14.824,100.111L15.343,100.111L15.886,100.111L16.361,100.111L16.859,100.111L17.886,100.111L18.399,100.111L18.965,100.111L19.194,100.111L19.421,100.111L19.923,100.111L20.945,100.111L21.463,100.111L22.009,100.111L22.484,100.111L22.982,100.111L24.007,100.111L24.522,100.111L25.068,100.111L25.541,100.111L26.041,100.111L27.065,100.111L27.578,100.111L28.12,100.111L28.594,100.111L29.099,100.111L30.13,100.111L30.637,100.111L31.182,100.111L31.659,100.111L32.161,100.111L33.195,100.111L33.712,100.111L34.27,100.111L34.727,100.111L35.225,100.111L36.251,100.111L36.77,100.111L37.785,100.111L38.283,100.111L39.308,100.111L39.825,100.111L40.026,100.111L40.37,100.111L40.712,100.111L40.845,100.111L41.346,100.111L42.368,100.111L42.887,100.111L43.432,100.111L43.906,100.111L44.406,100.111L45.429,100.111L45.946,100.111L46.49,100.111L46.965,100.111L47.465,100.111L48.487,100.111L48.999,100.111L49.541,100.111L50.019,100.111L50.5,100.111L50.524,100.111L51.549,100.111L51.876,100.111L52.059,100.111L52.603,100.111L53.081,100.111L53.586,100.111L54.619,100.111L55.134,100.111L55.677,100.111L56.146,100.111L56.646,100.111L57.675,100.111L58.193,100.111L58.74,100.111L59.209,100.111L59.709,100.111L60.732,100.111L61.249,100.111L61.794,100.111L62.268,100.111L62.768,100.111L63.792,100.111L64.311,100.111L64.852,100.111L65.331,100.111L65.828,100.111L66.854,100.111L67.371,100.111L67.914,100.111L68.386,100.111L68.89,100.111L69.912,100.111L70.174,100.111L70.422,100.111L70.962,100.111L71.442,100.111L71.95,100.111L72.972,100.111L73.483,100.111L74.025,100.111L74.503,100.111L75.01,100.111L76.037,100.111L76.558,100.111L77.104,100.111L77.574,100.111L78.076,100.111L79.097,100.111L79.618,100.111L80.182,100.111L80.637,100.111L81.133,100.111L82.154,100.111L82.675,100.111L83.218,100.111L83.693,100.111L84.195,100.111L85.218,100.111L85.735,100.111L86.278,100.111L86.748,100.111L87.253,100.111L88.277,100.111L88.795,100.111L89.337,100.111L89.81,100.111L90.314,100.111L91.336,100.111L91.848,100.111L92.389,100.111L92.865,100.111L93.375,100.111L94.398,100.111L94.909,100.111L95.447,100.111L95.925,100.111L96.436,100.111L97.464,100.111L97.98,100.111L98.526,100.111L98.998,100.111L99.498,100.111L100.522,100.111L101.043,100.111L101.587,100.111L102.058,100.111L102.56,100.111L103.584,100.111L104.101,100.111L104.648,100.111L105.119,100.111L105.62,100.111L106.644,100.111L107.161,100.111L107.707,100.111L108.178,100.111L108.681,100.111L109.705,100.111L110.222,100.111L110.767,100.111L111.241,100.111L111.74,100.111L112.764,100.111L113.277,100.111L113.819,100.111L114.292,100.111L114.8,100.111L115.825,100.111L116.336,100.111L116.879,100.111L117.356,100.111L117.862,100.111L118.888,100.111L119.409,100.111L119.954,100.111L120.419,100.111L120.926,100.111L121.948,100.111L122.467,100.111L123.012,100.111L123.486,100.111L123.986,100.111L125.01,100.111L125.529,100.111L126.074,100.111L126.549,100.111L127.045,100.111L128.071,100.111L128.591,100.111L129.137,100.111L129.609,100.111L130.105,100.111L131.13,100.111L131.65,100.111L132.194,100.111L132.667,100.111L133.166,100.111L134.19,100.111L134.701,100.111L135.242,100.111L135.72,100.111L136.228,100.111L137.251,100.111L137.762,100.111L138.304,100.111L138.778,100.111L139.287,100.111L140.315,100.111L140.836,100.111L141.381,100.111L141.839,100.111L142.35,100.111L143.375,100.111L143.898,100.111L144.441,100.111L144.91,100.111L145.411,100.111L146.437,100.111L146.956,100.111L147.503,100.111L147.972,100.111L148.472,100.111L149.494,100.111L150.012,100.111L150.556,100.111L151.033,100.111L151.532,100.111L152.554,100.111L153.073,100.111L153.615,100.111L154.092,100.111L154.592,100.111L155.614,100.111L156.127,100.111L156.667,100.111L157.146,100.111L157.652,100.111L158.673,100.111L159.186,100.111L159.729,100.111L160.206,100.111L160.714,100.111L161.738,100.111L162.258,100.111L162.804,100.111L163.277,100.111L163.777,100.111L164.799,100.111L165.318,100.111L165.866,100.111L166.337,100.111L166.837,100.111L167.861,100.111L168.382,100.111L168.927,100.111L169.398,100.111L169.898,100.111L170.923,100.111L171.443,100.111L171.989,100.111L172.464,100.111L172.96,100.111L173.982,100.111L174.501,100.111L175.045,100.111L175.518,100.111L176.02,100.111L177.041,100.111L177.553,100.111L178.093,100.111L178.569,100.111L179.078,100.111L180.102,100.111L180.613,100.111L181.155,100.111L181.633,100.111L182.139,100.111L183.169,100.111L183.69,100.111L184.233,100.111L184.701,100.111L185.202,100.111L186.226,100.111L186.745,100.111L187.31,100.111L187.764,100.111L188.265,100.111L189.288,100.111L189.811,100.111L190.374,100.111L190.823,100.111L191.327,100.111L192.348,100.111L192.872,100.111L193.431,100.111L193.887,100.111L194.386,100.111L195.409,100.111L195.928,100.111L196.473,100.111L196.945,100.111L197.446,100.111L198.467,100.111L198.982,100.111L199.522,100.111L199.999,100.111" stroke="#4c78a8" stroke-width="2"/></g></g><path class="foreground" aria-hidden="true" d="" display="none"/></g><g transform="translate(0,0)"><path class="background" aria-hidden="true" d="M0,0h200v200h-200Z"/><g><g class="mark-line role-mark marks" role="graphics-object" aria-roledescription="line mark container"><path aria-label="Time: Aug 14, 2025; Price: 999; identifier: roam-2" role="graphics-symbol" aria-roledescription="line mark" d="M0,89L0.025,89L0.046,89L0.61,89L1.058,89L1.562,89L2.594,89L3.101,89L3.661,89L4.12,89L4.62,89L5.645,89L6.158,89L6.701,89L7.175,89L7.681,89L8.717,89L9.218,89L9.763,89L10.238,89L10.741,89L11.787,89L12.29,89L12.853,89L13.051,89L13.308,89L13.799,89L14.825,89L15.343,89L15.886,89L16.361,89L16.859,89L17.886,89L18.399,89L18.965,89L19.194,89L19.421,89L19.923,89L20.945,89L21.463,89L22.009,89L22.484,89L22.982,89L24.007,89L24.523,89L25.068,89L25.541,89L26.042,89L27.066,89L27.579,89L28.12,89L28.594,89L29.099,89L30.13,89L30.637,89L31.182,89L31.659,89L32.161,89L33.195,89L33.712,89L34.27,89L34.727,89L35.226,89L36.251,89L36.771,89L37.785,89L38.283,89L39.308,89L39.825,89L40.026,89L40.37,89L40.712,89L40.845,89L41.346,89L42.368,89L42.887,89L43.433,89L43.906,89L44.406,89L45.429,89L45.946,89L46.49,89L46.965,89L47.465,89L48.487,89L49,89L49.541,89L50.019,89L50.5,89L50.524,89L51.549,89L51.876,89L52.059,89L52.603,89L53.081,89L53.586,89L54.619,89L55.134,89L55.677,89L56.146,89L56.646,89L57.675,89L58.193,89L58.74,89L59.209,89L59.709,89L60.732,89L61.249,89L61.794,89L62.268,89L62.769,89L63.792,89L64.311,89L64.852,89L65.331,89L65.829,89L66.854,89L67.371,89L67.914,89L68.386,89L68.89,89L69.912,89L70.174,89L70.423,89L70.962,89L71.442,89L71.95,89L72.972,89L73.483,89L74.025,89L74.503,89L75.01,89L76.038,89L76.558,89L77.104,89L77.574,89L78.076,89L79.097,89L79.618,89L80.182,89L80.637,89L81.133,89L82.154,89L82.676,89L83.218,89L83.693,89L84.195,89L85.219,89L85.735,89L86.278,89L86.748,89L87.253,89L88.277,89L88.795,89L89.337,89L89.81,89L90.314,89L91.336,89L91.849,89L92.389,89L92.865,89L93.375,89L94.398,89L94.909,89L95.448,89L95.925,89L96.436,89L97.464,89L97.98,89L98.527,89L98.999,89L99.499,89L100.522,89L101.043,89L101.587,89L102.058,89L102.56,89L103.584,89L104.101,89L104.648,89L105.119,89L105.62,89L106.644,89L107.161,89L107.708,89L108.178,89L108.682,89L109.705,89L110.222,89L110.767,89L111.241,89L111.74,89L112.764,89L113.278,89L113.819,89L114.292,89L114.8,89L115.826,89L116.336,89L116.879,89L117.356,89L117.863,89L118.888,89L119.409,89L119.954,89L120.419,89L120.926,89L121.948,89L122.467,89L123.012,89L123.486,89L123.986,89L125.01,89L125.529,89L126.074,89L126.549,89L127.045,89L128.071,89L128.591,89L129.137,89L129.609,89L130.105,89L131.13,89L131.65,89L132.194,89L132.667,89L133.167,89L134.19,89L134.701,89L135.243,89L135.72,89L136.228,89L137.251,89L137.762,89L138.304,89L138.778,89L139.287,89L140.315,89L140.836,89L141.381,89L141.839,89L142.35,89L143.375,89L143.898,89L144.442,89L144.91,89L145.411,89L146.437,89L146.957,89L147.503,89L147.973,89L148.473,89L149.494,89L150.012,89L150.556,89L151.033,89L151.532,89L152.554,89L153.073,89L153.615,89L154.092,89L154.592,89L155.614,89L156.127,89L156.668,89L157.146,89L157.652,89L158.673,89L159.186,89L159.729,89L160.206,89L160.714,89L161.738,89L162.258,89L162.804,89L163.277,89L163.777,89L164.799,89L165.318,89L165.866,89L166.337,89L166.838,89L167.861,89L168.382,89L168.928,89L169.398,89L169.899,89L170.923,89L171.443,89L171.989,89L172.464,89L172.96,89L173.983,89L174.501,89L175.046,89L175.519,89L176.02,89L177.041,89L177.553,89L178.094,89L178.569,89L179.078,89L180.102,89L180.614,89L181.155,89L181.633,89L182.139,89L183.169,89L183.69,89L184.233,89L184.702,89L185.202,89L186.226,89L186.745,89L187.31,89L187.764,89L188.265,89L189.288,89L189.811,89L190.374,89L190.824,89L191.327,89L192.348,89L192.872,89L193.432,89L193.887,89L194.386,89L195.409,89L195.928,89L196.474,89L196.945,89L197.446,89L198.467,89L198.982,89L199.522,89L199.999,89" stroke="#ff9da6" stroke-width="2"/></g></g><path class="foreground" aria-hidden="true" d="" display="none"/></g><g transform="translate(0,0)"><path class="background" aria-hidden="true" d="M0,0h200v200h-200Z"/><g><g class="mark-line role-mark marks" role="graphics-object" aria-roledescription="line mark container"><path aria-label="Time: Aug 14, 2025; Price: 999; identifier: fastroad-sl-3-2022" role="graphics-symbol" aria-roledescription="line mark" d="M0,89L0.026,89L0.046,89L0.61,89L1.059,89L1.562,89L2.594,89L3.101,89L3.661,89L4.12,89L4.62,89L5.645,89L6.158,89L6.701,89L7.175,89L7.681,89L8.717,89L9.218,89L9.763,89L10.238,89L10.741,89L11.787,89L12.29,89L12.853,89L13.051,89L13.308,89L13.799,89L14.825,89L15.343,89L15.886,89L16.361,89L16.859,89L17.886,89L18.4,89L18.965,89L19.194,89L19.421,89L19.923,89L20.945,89L21.463,89L22.009,89L22.484,89L22.983,89L24.007,89L24.523,89L25.068,89L25.541,89L26.042,89L27.066,89L27.579,89L28.12,89L28.594,89L29.099,89L30.13,89L30.637,89L31.182,89L31.659,89L32.161,89L33.195,89L33.712,89L34.27,89L34.727,89L35.226,89L36.251,89L36.771,89L37.785,89L38.283,89L39.308,89L39.825,89L40.026,89L40.371,89L40.712,89L40.846,89L41.346,89L42.368,89L42.887,89L43.433,89L43.906,89L44.406,89L45.429,89L45.946,89L46.49,89L46.965,89L47.465,89L48.487,89L49,89L49.541,89L50.019,89L50.5,89L50.524,89L51.549,89L51.876,89L52.059,89L52.604,89L53.081,89L53.586,89L54.619,89L55.134,89L55.677,89L56.146,89L56.646,89L57.675,89L58.193,89L58.74,89L59.209,89L59.709,89L60.732,89L61.249,89L61.794,89L62.268,89L62.769,89L63.792,89L64.311,89L64.852,89L65.331,89L65.829,89L66.854,89L67.371,89L67.914,89L68.386,89L68.891,89L69.912,89L70.174,89L70.423,89L70.962,89L71.442,89L71.95,89L72.972,89L73.483,89L74.025,89L74.503,89L75.01,89L76.038,89L76.558,89L77.104,89L77.574,89L78.076,89L79.097,89L79.618,89L80.182,89L80.637,89L81.133,89L82.154,89L82.676,89L83.218,89L83.693,89L84.195,89L85.219,89L85.735,89L86.278,89L86.748,89L87.253,89L88.277,89L88.795,89L89.337,89L89.81,89L90.314,89L91.336,89L91.849,89L92.389,89L92.865,89L93.375,89L94.398,89L94.909,89L95.448,89L95.925,89L96.436,89L97.464,89L97.98,89L98.527,89L98.999,89L99.499,89L100.522,89L101.043,89L101.587,89L102.058,89L102.56,89L103.584,89L104.102,89L104.648,89L105.119,89L105.62,89L106.644,89L107.162,89L107.708,89L108.178,89L108.682,89L109.705,89L110.222,89L110.767,89L111.241,89L111.74,89L112.764,89L113.278,89L113.819,89L114.292,89L114.8,89L115.826,89L116.336,89L116.879,89L117.356,89L117.863,89L118.888,89L119.409,89L119.954,89L120.419,89L120.926,89L121.948,89L122.467,89L123.012,89L123.486,89L123.987,89L125.01,89L125.529,89L126.074,89L126.55,89L127.045,89L128.071,89L128.591,89L129.137,89L129.609,89L130.105,89L131.13,89L131.65,89L132.194,89L132.667,89L133.167,89L134.191,89L134.701,89L135.243,89L135.72,89L136.228,89L137.251,89L137.762,89L138.305,89L138.778,89L139.288,89L140.315,89L140.836,89L141.381,89L141.839,89L142.35,89L143.375,89L143.898,89L144.442,89L144.911,89L145.411,89L146.437,89L146.957,89L147.503,89L147.973,89L148.473,89L149.494,89L150.012,89L150.556,89L151.033,89L151.532,89L152.554,89L153.073,89L153.615,89L154.092,89L154.592,89L155.614,89L156.127,89L156.668,89L157.146,89L157.652,89L158.673,89L159.186,89L159.729,89L160.206,89L160.714,89L161.738,89L162.259,89L162.805,89L163.277,89L163.778,89L164.799,89L165.318,89L165.866,89L166.337,89L166.838,89L167.861,89L168.382,89L168.928,89L169.398,89L169.899,89L170.923,89L171.443,89L171.989,89L172.464,89L172.96,89L173.983,89L174.501,89L175.046,89L175.519,89L176.02,89L177.041,89L177.553,89L178.094,89L178.569,89L179.078,89L180.102,89L180.614,89L181.155,89L181.633,89L182.139,89L183.169,89L183.69,89L184.233,89L184.702,89L185.202,89L186.226,89L186.745,89L187.31,89L187.764,89L188.265,89L189.288,89L189.811,89L190.374,89L190.824,89L191.327,89L192.348,89L192.872,89L193.432,89L193.887,89L194.386,89L195.409,89L195.928,89L196.474,89L196.946,89L197.446,89L198.467,89L198.982,89L199.522,89L199.999,89" stroke="#9d755d" stroke-width="2"/></g></g><path class="foreground" aria-hidden="true" d="" display="none"/></g><g transform="translate(0,0)"><path class="background" aria-hidden="true" d="M0,0h200v200h-200Z"/><g><g class="mark-line role-mark marks" role="graphics-object" aria-roledescription="line mark container"><path aria-label="Time: Aug 14, 2025; Price: 1199; identifier: fastroad-ar-2" role="graphics-symbol" aria-roledescription="line mark" d="M0,66.778L0.026,66.778L0.046,66.778L0.61,66.778L1.059,66.778L1.562,66.778L2.594,66.778L3.101,66.778L3.661,66.778L4.12,66.778L4.621,66.778L5.645,66.778L6.158,66.778L6.701,66.778L7.175,66.778L7.684,66.778L8.718,66.778L9.218,66.778L9.763,66.778L10.238,66.778L10.741,66.778L11.787,66.778L12.29,66.778L12.854,66.778L13.051,66.778L13.308,66.778L13.799,66.778L14.825,66.778L15.343,66.778L15.886,66.778L16.361,66.778L16.859,66.778L17.887,66.778L18.4,66.778L18.965,66.778L19.194,66.778L19.421,66.778L19.923,66.778L20.945,66.778L21.463,66.778L22.009,66.778L22.484,66.778L22.983,66.778L24.007,66.778L24.523,66.778L25.069,66.778L25.541,66.778L26.042,66.778L27.066,66.778L27.579,66.778L28.12,66.778L28.594,66.778L29.099,66.778L30.13,66.778L30.638,66.778L31.182,66.778L31.659,66.778L32.161,66.778L33.195,66.778L33.712,66.778L34.27,66.778L34.727,66.778L35.226,66.778L36.251,66.778L36.771,66.778L37.785,66.778L38.283,66.778L39.308,66.778L39.825,66.778L40.026,66.778L40.371,66.778L40.712,66.778L40.846,66.778L41.346,66.778L42.368,66.778L42.887,66.778L43.433,66.778L43.906,66.778L44.406,66.778L45.429,66.778L45.946,66.778L46.49,66.778L46.965,66.778L47.465,66.778L48.487,66.778L49,66.778L49.541,66.778L50.019,66.778L50.5,66.778L50.524,66.778L51.549,66.778L51.876,66.778L52.059,66.778L52.604,66.778L53.081,66.778L53.586,66.778L54.62,66.778L55.134,66.778L55.677,66.778L56.146,66.778L56.646,66.778L57.675,66.778L58.193,66.778L58.74,66.778L59.209,66.778L59.709,66.778L60.732,66.778L61.249,66.778L61.794,66.778L62.268,66.778L62.769,66.778L63.792,66.778L64.311,66.778L64.852,66.778L65.331,66.778L65.829,66.778L66.854,66.778L67.371,66.778L67.915,66.778L68.386,66.778L68.891,66.778L69.912,66.778L70.174,66.778L70.423,66.778L70.963,66.778L71.442,66.778L71.95,66.778L72.972,66.778L73.483,66.778L74.025,66.778L74.503,66.778L75.01,66.778L76.038,66.778L76.558,66.778L77.104,66.778L77.575,66.778L78.076,66.778L79.097,66.778L79.618,66.778L80.182,66.778L80.637,66.778L81.133,66.778L82.154,66.778L82.676,66.778L83.218,66.778L83.693,66.778L84.195,66.778L85.219,66.778L85.736,66.778L86.278,66.778L86.748,66.778L87.253,66.778L88.277,66.778L88.795,66.778L89.337,66.778L89.81,66.778L90.314,66.778L91.336,66.778L91.849,66.778L92.389,66.778L92.865,66.778L93.375,66.778L94.398,66.778L94.91,66.778L95.448,66.778L95.925,66.778L96.436,66.778L97.464,66.778L97.98,66.778L98.527,66.778L98.999,66.778L99.499,66.778L100.522,66.778L101.043,66.778L101.587,66.778L102.058,66.778L102.56,66.778L103.584,66.778L104.102,66.778L104.648,66.778L105.12,66.778L105.62,66.778L106.644,66.778L107.162,66.778L107.708,66.778L108.179,66.778L108.682,66.778L109.705,66.778L110.222,66.778L110.767,66.778L111.241,66.778L111.74,66.778L112.764,66.778L113.278,66.778L113.819,66.778L114.292,66.778L114.8,66.778L115.826,66.778L116.336,66.778L116.879,66.778L117.356,66.778L117.863,66.778L118.888,66.778L119.409,66.778L119.954,66.778L120.419,66.778L120.926,66.778L121.948,66.778L122.468,66.778L123.012,66.778L123.487,66.778L123.987,66.778L125.01,66.778L125.53,66.778L126.074,66.778L126.55,66.778L127.045,66.778L128.071,66.778L128.591,66.778L129.137,66.778L129.609,66.778L130.106,66.778L131.13,66.778L131.65,66.778L132.194,66.778L132.667,66.778L133.167,66.778L134.191,66.778L134.701,66.778L135.243,66.778L135.72,66.778L136.228,66.778L137.251,66.778L137.762,66.778L138.305,66.778L138.778,66.778L139.288,66.778L140.315,66.778L140.836,66.778L141.381,66.778L141.839,66.778L142.35,66.778L143.375,66.778L143.898,66.778L144.442,66.778L144.911,66.778L145.412,66.778L146.437,66.778L146.957,66.778L147.503,66.778L147.973,66.778L148.473,66.778L149.494,66.778L150.012,66.778L150.556,66.778L151.033,66.778L151.532,66.778L152.554,66.778L153.073,66.778L153.615,66.778L154.092,66.778L154.592,66.778L155.614,66.778L156.127,66.778L156.668,66.778L157.146,66.778L157.653,66.778L158.673,66.778L159.186,66.778L159.729,66.778L160.206,66.778L160.714,66.778L161.738,66.778L162.259,66.778L162.805,66.778L163.277,66.778L163.778,66.778L164.799,66.778L165.318,66.778L165.866,66.778L166.337,66.778L166.838,66.778L167.861,66.778L168.382,66.778L168.928,66.778L169.398,66.778L169.899,66.778L170.923,66.778L171.443,66.778L171.99,66.778L172.464,66.778L172.96,66.778L173.983,66.778L174.501,66.778L175.046,66.778L175.519,66.778L176.02,66.778L177.041,66.778L177.553,66.778L178.094,66.778L178.569,66.778L179.078,66.778L180.102,66.778L180.614,66.778L181.155,66.778L181.633,66.778L182.139,66.778L183.169,66.778L183.69,66.778L184.233,66.778L184.703,66.778L185.202,66.778L186.226,66.778L186.745,66.778L187.31,66.778L187.764,66.778L188.265,66.778L189.288,66.778L189.811,66.778L190.374,66.778L190.824,66.778L191.327,66.778L192.348,66.778L192.872,66.778L193.432,66.778L193.887,66.778L194.386,66.778L195.409,66.778L195.928,66.778L196.474,66.778L196.946,66.778L197.446,66.778L198.467,66.778L198.982,66.778L199.523,66.778L199.999,66.778" stroke="#54a24b" stroke-width="2"/></g></g><path class="foreground" aria-hidden="true" d="" display="none"/></g><g transform="translate(0,0)"><path class="background" aria-hidden="true" d="M0,0h200v200h-200Z"/><g><g class="mark-line role-mark marks" role="graphics-object" aria-roledescription="line mark container"><path aria-label="Time: Aug 18, 2025; Price: 899; identifier: sdrbike-escape-1-city-disc" role="graphics-symbol" aria-roledescription="line mark" d="M13.052,100.111L13.309,100.111L13.799,100.111L14.825,100.111L15.343,100.111L15.887,100.111L16.361,100.111L16.859,100.111L17.887,100.111L18.4,100.111L18.966,100.111L19.195,100.111L19.421,100.111L19.924,100.111L20.946,100.111L21.463,100.111L22.009,100.111L22.484,100.111L22.983,100.111L24.007,100.111L24.523,100.111L25.069,100.111L25.542,100.111L26.042,100.111L27.066,100.111L27.579,100.111L28.12,100.111L28.594,100.111L29.1,100.111L30.13,100.111L30.638,100.111L31.183,100.111L31.659,100.111L32.161,100.111L33.195,100.111L33.712,100.111L34.27,100.111L34.727,100.111L35.226,100.111L36.252,100.111L36.771,100.111L37.785,100.111L38.283,100.111L39.308,100.111L39.825,100.111L40.026,100.111L40.371,100.111L40.712,100.111L40.846,100.111L41.346,100.111L42.369,100.111L42.888,100.111L43.433,100.111L43.906,100.111L44.406,100.111L45.43,100.111L45.946,100.111L46.49,100.111L46.966,100.111L47.465,100.111L48.487,100.111L49,100.111L49.541,100.111L50.019,100.111L50.5,100.111L50.524,100.111L51.549,100.111L51.876,100.111L52.059,100.111L52.604,100.111L53.081,100.111L53.586,100.111L54.62,100.111L55.134,100.111L55.677,100.111L56.146,100.111L56.646,100.111L57.676,100.111L58.193,100.111L58.74,100.111L59.209,100.111L59.709,100.111L60.732,100.111L61.249,100.111L61.794,100.111L62.268,100.111L62.769,100.111L63.792,100.111L64.311,100.111L64.852,100.111L65.331,100.111L65.829,100.111L66.855,100.111L67.371,100.111L67.915,100.111L68.386,100.111L68.891,100.111L69.912,100.111L70.175,100.111L70.423,100.111L70.963,100.111L71.442,100.111L71.95,100.111L72.972,100.111L73.483,100.111L74.025,100.111L74.503,100.111L75.01,100.111L76.038,100.111L76.558,100.111L77.104,100.111L77.575,100.111L78.076,100.111L79.098,100.111L79.618,100.111L80.182,100.111L80.637,100.111L81.133,100.111L82.154,100.111L82.676,100.111L83.219,100.111L83.693,100.111L84.195,100.111L85.219,100.111L85.736,100.111L86.278,100.111L86.748,100.111L87.254,100.111L88.277,100.111L88.795,100.111L89.337,100.111L89.81,100.111L90.314,100.111L91.336,100.111L91.849,100.111L92.389,100.111L92.865,100.111L93.375,100.111L94.398,100.111L94.91,100.111L95.448,100.111L95.925,100.111L96.436,100.111L97.464,100.111L97.98,100.111L98.527,100.111L98.999,100.111L99.499,100.111L100.522,100.111L101.043,100.111L101.587,100.111L102.058,100.111L102.56,100.111L103.584,100.111L104.102,100.111L104.648,100.111L105.12,100.111L105.621,100.111L106.644,100.111L107.162,100.111L107.708,100.111L108.179,100.111L108.682,100.111L109.705,100.111L110.222,100.111L110.768,100.111L111.241,100.111L111.741,100.111L112.764,100.111L113.278,100.111L113.819,100.111L114.293,100.111L114.801,100.111L115.826,100.111L116.336,100.111L116.879,100.111L117.356,100.111L117.863,100.111L118.888,100.111L119.409,100.111L119.954,100.111L120.419,100.111L120.926,100.111L121.948,100.111L122.468,100.111L123.012,100.111L123.487,100.111L123.987,100.111L125.01,100.111L125.53,100.111L126.074,100.111L126.55,100.111L127.045,100.111L128.071,100.111L128.591,100.111L129.137,100.111L129.61,100.111L130.106,100.111L131.13,100.111L131.651,100.111L132.194,100.111L132.667,100.111L133.167,100.111L134.191,100.111L134.701,100.111L135.243,100.111L135.72,100.111L136.228,100.111L137.252,100.111L137.762,100.111L138.305,100.111L138.779,100.111L139.288,100.111L140.315,100.111L140.836,100.111L141.381,100.111L141.84,100.111L142.35,100.111L143.375,100.111L143.898,100.111L144.442,100.111L144.911,100.111L145.412,100.111L146.437,100.111L146.957,100.111L147.503,100.111L147.973,100.111L148.473,100.111L149.494,100.111L150.012,100.111L150.556,100.111L151.033,100.111L151.532,100.111L152.554,100.111L153.073,100.111L153.615,100.111L154.092,100.111L154.592,100.111L155.614,100.111L156.128,100.111L156.668,100.111L157.146,100.111L157.653,100.111L158.674,100.111L159.186,100.111L159.73,100.111L160.207,100.111L160.714,100.111L161.739,100.111L162.259,100.111L162.805,100.111L163.277,100.111L163.778,100.111L164.799,100.111L165.318,100.111L165.866,100.111L166.337,100.111L166.838,100.111L167.861,100.111L168.382,100.111L168.928,100.111L169.399,100.111L169.899,100.111L170.923,100.111L171.443,100.111L171.99,100.111L172.464,100.111L172.96,100.111L173.983,100.111L174.501,100.111L175.046,100.111L175.519,100.111L176.02,100.111L177.041,100.111L177.553,100.111L178.094,100.111L178.569,100.111L179.079,100.111L180.102,100.111L180.614,100.111L181.155,100.111L181.633,100.111L182.139,100.111L183.169,100.111L183.691,100.111L184.233,100.111L184.703,100.111L185.202,100.111L186.226,100.111L186.745,100.111L187.31,100.111L187.764,100.111L188.265,100.111L189.288,100.111L189.812,100.111L190.374,100.111L190.824,100.111L191.328,100.111L192.348,100.111L192.872,100.111L193.432,100.111L193.887,100.111L194.386,100.111L195.409,100.111L195.928,100.111L196.474,100.111L196.946,100.111L197.446,100.111L198.467,100.111L198.983,100.111L199.523,100.111L199.999,100.111" stroke="#f58518" stroke-width="2"/></g></g><path class="foreground" aria-hidden="true" d="" display="none"/></g><g transform="translate(0,0)"><path class="background" aria-hidden="true" d="M0,0h200v200h-200Z"/><g><g class="mark-line role-mark marks" role="graphics-object" aria-roledescription="line mark container"><path aria-label="Time: Aug 20, 2025; Price: 899; identifier: roam-disc-2-2024" role="graphics-symbol" aria-roledescription="line mark" d="M19.194,100.111L19.421,100.111L19.923,100.111L20.945,100.111L21.463,100.111L22.009,100.111L22.484,100.111L22.982,100.111L24.007,100.111L24.523,100.111L25.068,100.111L25.541,100.111L26.042,100.111L27.066,100.111L27.579,100.111L28.12,100.111L28.594,100.111L29.099,100.111L30.13,100.111L30.637,100.111L31.182,100.111L31.659,100.111L32.161,100.111L33.195,100.111L33.712,100.111L34.27,100.111L34.727,100.111L35.225,100.111L36.251,100.111L36.771,100.111L37.785,100.111L38.283,100.111L39.308,100.111L39.825,100.111L40.026,100.111L40.37,100.111L40.712,100.111L40.845,100.111L41.346,100.111L42.368,100.111L42.887,100.111L43.432,100.111L43.906,100.111L44.406,100.111L45.429,100.111L45.946,100.111L46.49,100.111L46.965,100.111L47.465,100.111L48.487,100.111L49,100.111L49.541,100.111L50.019,100.111L50.5,100.111L50.524,100.111L51.549,100.111L51.876,100.111L52.059,100.111L52.603,100.111L53.081,100.111L53.586,100.111L54.619,100.111L55.134,100.111L55.677,100.111L56.146,100.111L56.646,100.111L57.675,100.111L58.193,100.111L58.74,100.111L59.209,100.111L59.709,100.111L60.732,100.111L61.249,100.111L61.794,100.111L62.268,100.111L62.768,100.111L63.792,100.111L64.311,100.111L64.852,100.111L65.331,100.111L65.829,100.111L66.854,100.111L67.371,100.111L67.914,100.111L68.386,100.111L68.89,100.111L69.912,100.111L70.174,100.111L70.422,100.111L70.962,100.111L71.442,100.111L71.95,100.111L72.972,100.111L73.483,100.111L74.025,100.111L74.503,100.111L75.01,100.111L76.038,100.111L76.558,100.111L77.104,100.111L77.574,100.111L78.076,100.111L79.097,100.111L79.618,100.111L80.182,100.111L80.637,100.111L81.133,100.111L82.154,100.111L82.676,100.111L83.218,100.111L83.693,100.111L84.195,100.111L85.219,100.111L85.735,100.111L86.278,100.111L86.748,100.111L87.253,100.111L88.277,100.111L88.795,100.111L89.337,100.111L89.81,100.111L90.314,100.111L91.336,100.111L91.848,100.111L92.389,100.111L92.865,100.111L93.375,100.111L94.398,100.111L94.909,100.111L95.447,100.111L95.925,100.111L96.436,100.111L97.464,100.111L97.98,100.111L98.527,100.111L98.998,100.111L99.499,100.111L100.522,100.111L101.043,100.111L101.587,100.111L102.058,100.111L102.56,100.111L103.584,100.111L104.101,100.111L104.648,100.111L105.119,100.111L105.62,100.111L106.644,100.111L107.161,100.111L107.707,100.111L108.178,100.111L108.681,100.111L109.705,100.111L110.222,100.111L110.767,100.111L111.241,100.111L111.74,100.111L112.764,100.111L113.277,100.111L113.819,100.111L114.292,100.111L114.8,100.111L115.825,100.111L116.336,100.111L116.879,100.111L117.356,100.111L117.862,100.111L118.888,100.111L119.409,100.111L119.954,100.111L120.419,100.111L120.926,100.111L121.948,100.111L122.467,100.111L123.012,100.111L123.486,100.111L123.986,100.111L125.01,100.111L125.529,100.111L126.074,100.111L126.549,100.111L127.045,100.111L128.071,100.111L128.591,100.111L129.137,100.111L129.609,100.111L130.105,100.111L131.13,100.111L131.65,100.111L132.194,100.111L132.667,100.111L133.167,100.111L134.19,100.111L134.701,100.111L135.242,100.111L135.72,100.111L136.228,100.111L137.251,100.111L137.762,100.111L138.304,100.111L138.778,100.111L139.287,100.111L140.315,100.111L140.836,100.111L141.381,100.111L141.839,100.111L142.35,100.111L143.375,100.111L143.898,100.111L144.442,100.111L144.91,100.111L145.411,100.111L146.437,100.111L146.956,100.111L147.503,100.111L147.973,100.111L148.473,100.111L149.494,100.111L150.012,100.111L150.556,100.111L151.033,100.111L151.532,100.111L152.554,100.111L153.073,100.111L153.615,100.111L154.092,100.111L154.592,100.111L155.614,100.111L156.127,100.111L156.667,100.111L157.146,100.111L157.652,100.111L158.673,100.111L159.186,100.111L159.729,100.111L160.206,100.111L160.714,100.111L161.738,100.111L162.258,100.111L162.804,100.111L163.277,100.111L163.777,100.111L164.799,100.111L165.318,100.111L165.866,100.111L166.337,100.111L166.837,100.111L167.861,100.111L168.382,100.111L168.928,100.111L169.398,100.111L169.898,100.111L170.923,100.111L171.443,100.111L171.989,100.111L172.464,100.111L172.96,100.111L173.982,100.111L174.501,100.111L175.045,100.111L175.519,100.111L176.02,100.111L177.041,100.111L177.553,100.111L178.093,100.111L178.569,100.111L179.078,100.111L180.102,100.111L180.613,100.111L181.155,100.111L181.633,100.111L182.139,100.111L183.169,100.111L183.69,100.111L184.233,100.111L184.701,100.111L185.202,100.111L186.226,100.111L186.745,100.111L187.31,100.111L187.764,100.111L188.265,100.111L189.288,100.111L189.811,100.111L190.374,100.111L190.823,100.111L191.327,100.111L192.348,100.111L192.872,100.111L193.432,100.111L193.887,100.111L194.386,100.111L195.409,100.111L195.928,100.111L196.473,100.111L196.945,100.111L197.446,100.111L198.467,100.111L198.982,100.111L199.522,100.111L199.999,100.111" stroke="#e45756" stroke-width="2"/></g></g><path class="foreground" aria-hidden="true" d="" display="none"/></g><g transform="translate(0,0)"><path class="background" aria-hidden="true" d="M0,0h200v200h-200Z"/><g><g class="mark-line role-mark marks" role="graphics-object" aria-roledescription="line mark container"><path aria-label="Time: Aug 20, 2025; Price: 1199; identifier: thrive-2" role="graphics-symbol" aria-roledescription="line mark" d="M19.195,66.778L19.421,66.778L19.924,66.778L20.946,66.778L21.463,66.778L22.009,66.778L22.484,66.778L22.983,66.778L24.007,66.778L24.523,66.778L25.069,66.778L25.542,66.778L26.042,66.778L27.066,66.778L27.579,66.778L28.12,66.778L28.594,66.778L29.1,66.778L30.13,66.778L30.638,66.778L31.183,66.778L31.659,66.778L32.161,66.778L33.196,66.778L33.712,66.778L34.27,66.778L34.728,66.778L35.226,66.778L36.252,66.778L36.771,66.778L37.785,66.778L38.283,66.778L39.308,66.778L39.826,66.778L40.027,66.778L40.371,66.778L40.712,66.778L40.846,66.778L41.346,66.778L42.369,66.778L42.888,66.778L43.433,66.778L43.906,66.778L44.406,66.778L45.43,66.778L45.946,66.778L46.49,66.778L46.966,66.778L47.465,66.778L48.487,66.778L49,66.778L49.542,66.778L50.019,66.778L50.5,66.778L50.524,66.778L51.549,66.778L51.876,66.778L52.059,66.778L52.604,66.778L53.081,66.778L53.586,66.778L54.62,66.778L55.134,66.778L55.677,66.778L56.146,66.778L56.646,66.778L57.676,66.778L58.193,66.778L58.74,66.778L59.209,66.778L59.709,66.778L60.732,66.778L61.249,66.778L61.794,66.778L62.268,66.778L62.769,66.778L63.793,66.778L64.311,66.778L64.852,66.778L65.331,66.778L65.829,66.778L66.855,66.778L67.371,66.778L67.915,66.778L68.386,66.778L68.891,66.778L69.912,66.778L70.175,66.778L70.423,66.778L70.963,66.778L71.442,66.778L71.95,66.778L72.972,66.778L73.483,66.778L74.025,66.778L74.503,66.778L75.011,66.778L76.038,66.778L76.559,66.778L77.104,66.778L77.575,66.778L78.076,66.778L79.098,66.778L79.618,66.778L80.182,66.778L80.637,66.778L81.133,66.778L82.154,66.778L82.676,66.778L83.219,66.778L83.693,66.778L84.195,66.778L85.219,66.778L85.736,66.778L86.278,66.778L86.748,66.778L87.254,66.778L88.277,66.778L88.795,66.778L89.337,66.778L89.81,66.778L90.314,66.778L91.336,66.778L91.849,66.778L92.389,66.778L92.865,66.778L93.375,66.778L94.398,66.778L94.91,66.778L95.448,66.778L95.925,66.778L96.436,66.778L97.464,66.778L97.98,66.778L98.527,66.778L98.999,66.778L99.499,66.778L100.522,66.778L101.044,66.778L101.587,66.778L102.058,66.778L102.56,66.778L103.584,66.778L104.102,66.778L104.648,66.778L105.12,66.778L105.621,66.778L106.645,66.778L107.162,66.778L107.708,66.778L108.179,66.778L108.682,66.778L109.705,66.778L110.222,66.778L110.768,66.778L111.241,66.778L111.741,66.778L112.764,66.778L113.278,66.778L113.819,66.778L114.293,66.778L114.801,66.778L115.826,66.778L116.336,66.778L116.879,66.778L117.356,66.778L117.863,66.778L118.888,66.778L119.41,66.778L119.954,66.778L120.419,66.778L120.926,66.778L121.948,66.778L122.468,66.778L123.012,66.778L123.487,66.778L123.987,66.778L125.01,66.778L125.53,66.778L126.074,66.778L126.55,66.778L127.045,66.778L128.071,66.778L128.592,66.778L129.137,66.778L129.61,66.778L130.106,66.778L131.131,66.778L131.651,66.778L132.195,66.778L132.667,66.778L133.167,66.778L134.191,66.778L134.701,66.778L135.243,66.778L135.72,66.778L136.228,66.778L137.252,66.778L137.762,66.778L138.305,66.778L138.779,66.778L139.288,66.778L140.315,66.778L140.836,66.778L141.382,66.778L141.84,66.778L142.351,66.778L143.375,66.778L143.899,66.778L144.442,66.778L144.911,66.778L145.412,66.778L146.437,66.778L146.957,66.778L147.503,66.778L147.973,66.778L148.473,66.778L149.494,66.778L150.013,66.778L150.556,66.778L151.033,66.778L151.532,66.778L152.554,66.778L153.073,66.778L153.615,66.778L154.092,66.778L154.592,66.778L155.614,66.778L156.128,66.778L156.668,66.778L157.146,66.778L157.653,66.778L158.674,66.778L159.187,66.778L159.73,66.778L160.207,66.778L160.714,66.778L161.739,66.778L162.259,66.778L162.805,66.778L163.277,66.778L163.778,66.778L164.799,66.778L165.318,66.778L165.866,66.778L166.337,66.778L166.838,66.778L167.861,66.778L168.382,66.778L168.928,66.778L169.399,66.778L169.899,66.778L170.924,66.778L171.443,66.778L171.99,66.778L172.464,66.778L172.96,66.778L173.983,66.778L174.501,66.778L175.046,66.778L175.519,66.778L176.02,66.778L177.041,66.778L177.553,66.778L178.094,66.778L178.57,66.778L179.079,66.778L180.102,66.778L180.614,66.778L181.156,66.778L181.633,66.778L182.139,66.778L183.169,66.778L183.691,66.778L184.233,66.778L184.704,66.778L185.202,66.778L186.226,66.778L186.745,66.778L187.31,66.778L187.764,66.778L188.266,66.778L189.288,66.778L189.812,66.778L190.374,66.778L190.824,66.778L191.328,66.778L192.349,66.778L192.872,66.778L193.432,66.778L193.887,66.778L194.386,66.778L195.409,66.778L195.929,66.778L196.474,66.778L196.946,66.778L197.446,66.778L198.467,66.778L198.983,66.778L199.523,66.778L199.999,66.778" stroke="#eeca3b" stroke-width="2"/></g></g><path class="foreground" aria-hidden="true" d="" display="none"/></g><g transform="translate(0,0)"><path class="background" aria-hidden="true" d="M0,0h200v200h-200Z"/><g><g class="mark-line role-mark marks" role="graphics-object" aria-roledescription="line mark container"><path aria-label="Time: Aug 20, 2025; Price: 999; identifier: rove-2" role="graphics-symbol" aria-roledescription="line mark" d="M19.195,89L19.421,89L19.924,89L20.946,89L21.463,89L22.009,89L22.484,89L22.983,89L24.007,89L24.523,89L25.069,89L25.542,89L26.042,89L27.066,89L27.579,89L28.12,89L28.594,89L29.1,89L30.131,89L30.638,89L31.183,89L31.659,89L32.161,89L33.196,89L33.712,89L34.271,89L34.728,89L35.226,89L36.252,89L36.771,89L37.786,89L38.283,89L39.308,89L39.826,89L40.027,89L40.371,89L40.712,89L40.846,89L41.347,89L42.369,89L42.888,89L43.433,89L43.906,89L44.406,89L45.43,89L45.946,89L46.49,89L46.966,89L47.465,89L50.5,111.222L50.524,111.222L51.549,111.222L51.876,111.222L52.06,111.222L52.604,111.222L53.082,111.222L53.586,111.222L54.62,111.222L55.134,111.222L55.677,111.222L56.146,111.222L56.646,111.222L57.676,111.222L58.193,111.222L58.74,111.222L59.209,111.222L59.709,111.222L60.733,111.222L61.249,111.222L61.794,111.222L62.268,111.222L62.769,111.222L63.793,111.222L64.311,111.222L64.852,111.222L65.331,111.222L65.829,111.222L66.855,111.222L67.371,111.222L67.915,111.222L68.386,111.222L68.891,111.222L69.912,111.222L70.175,111.222L70.423,111.222L70.963,111.222L71.442,111.222L71.95,111.222L72.972,111.222L73.483,111.222L74.026,111.222L74.503,111.222L75.011,111.222L76.038,111.222L76.559,111.222L77.105,111.222L77.575,111.222L78.076,111.222L79.098,111.222L79.618,111.222L80.183,111.222L80.638,111.222L81.133,111.222L82.154,111.222L82.676,111.222L83.219,111.222L83.693,111.222L84.196,111.222L85.219,111.222L85.736,111.222L86.278,111.222L86.748,111.222L87.254,111.222L88.277,111.222L88.795,111.222L89.338,111.222L89.811,111.222L90.314,111.222L91.336,111.222L91.849,111.222L92.389,111.222L92.865,111.222L93.375,111.222L94.398,111.222L94.91,111.222L95.448,111.222L95.925,111.222L96.436,111.222L97.464,111.222L97.98,111.222L98.527,111.222L98.999,111.222L99.499,111.222L100.522,111.222L101.044,111.222L101.587,111.222L102.058,111.222L102.56,111.222L103.584,111.222L104.102,111.222L104.648,111.222L105.12,111.222L105.621,111.222L106.645,111.222L107.162,111.222L107.708,111.222L108.179,111.222L108.682,111.222L109.706,111.222L110.223,111.222L110.768,111.222L111.241,111.222L111.741,111.222L112.764,111.222L113.278,111.222L113.819,111.222L114.293,111.222L114.801,111.222L115.826,111.222L116.336,111.222L116.879,111.222L117.356,111.222L117.863,111.222L118.888,111.222L119.41,111.222L119.954,111.222L120.419,111.222L120.926,111.222L121.948,111.222L122.468,111.222L123.013,111.222L123.487,111.222L123.987,111.222L125.01,111.222L125.53,111.222L126.074,111.222L126.55,111.222L127.046,111.222L128.071,111.222L128.592,111.222L129.137,111.222L129.61,111.222L130.106,111.222L131.131,111.222L131.651,111.222L132.195,111.222L132.668,111.222L133.167,111.222L134.191,111.222L134.701,111.222L135.243,111.222L135.72,111.222L136.228,111.222L137.252,111.222L137.762,111.222L138.305,111.222L138.779,111.222L139.288,111.222L140.315,111.222L140.836,111.222L141.382,111.222L141.84,111.222L142.351,111.222L143.375,111.222L143.899,111.222L144.442,111.222L144.911,111.222L145.412,111.222L146.438,111.222L146.957,111.222L147.503,111.222L147.973,111.222L148.473,111.222L149.494,111.222L150.013,111.222L150.556,111.222L151.033,111.222L151.532,111.222L152.554,111.222L153.073,111.222L153.616,111.222L154.092,111.222L154.592,111.222L155.614,111.222L156.128,111.222L156.668,111.222L157.146,111.222L157.653,111.222L158.674,111.222L159.187,111.222L159.73,111.222L160.207,111.222L160.714,111.222L161.739,111.222L162.259,111.222L162.805,111.222L163.277,111.222L163.778,111.222L164.799,111.222L165.319,111.222L165.866,111.222L166.338,111.222L166.838,111.222L167.862,111.222L168.382,111.222L168.928,111.222L169.399,111.222L169.899,111.222L170.924,111.222L171.443,111.222L171.99,111.222L172.464,111.222L172.96,111.222L173.983,111.222L174.501,111.222L175.046,111.222L175.519,111.222L176.021,111.222L177.041,111.222L177.553,111.222L178.094,111.222L178.57,111.222L179.079,111.222L180.102,111.222L180.614,111.222L181.156,111.222L181.633,111.222L182.139,111.222L183.169,111.222L183.691,111.222L184.233,111.222L184.704,111.222L185.202,111.222L186.226,111.222L186.745,111.222L187.31,111.222L187.764,111.222L188.266,111.222L189.288,111.222L189.812,111.222L190.374,111.222L190.824,111.222L191.328,111.222L192.349,111.222L192.872,111.222L193.432,111.222L193.887,111.222L194.387,111.222L195.409,111.222L195.929,111.222L196.474,111.222L196.946,111.222L197.446,111.222L198.467,111.222L198.983,111.222L199.523,111.222L199.999,111.222" stroke="#72b7b2" stroke-width="2"/></g></g><path class="foreground" aria-hidden="true" d="" display="none"/></g><g transform="translate(0,0)"><path class="background" aria-hidden="true" d="M0,0h200v200h-200Z"/><g><g class="mark-line role-mark marks" role="graphics-object" aria-roledescription="line mark container"><path aria-label="Time: Aug 27, 2025; Price: 1199; identifier: allure-rs-1-2023" role="graphics-symbol" aria-roledescription="line mark" d="M40.027,66.778L40.371,66.778L40.712,66.778L40.846,66.778L41.347,66.778L42.369,66.778L42.888,66.778L43.433,66.778L43.906,66.778L44.406,66.778L45.43,66.778L45.947,66.778L46.49,66.778L46.966,66.778L47.465,66.778L48.487,66.778L49,66.778L49.542,66.778L50.019,66.778L50.5,66.778L50.524,66.778L51.549,66.778L51.876,66.778L52.06,66.778L52.604,66.778L53.082,66.778L53.586,66.778L54.62,66.778L55.134,66.778L55.678,66.778L56.146,66.778L56.646,66.778L57.676,66.778L58.193,66.778L58.74,66.778L59.209,66.778L59.709,66.778L60.733,66.778L61.249,66.778L61.794,66.778L62.268,66.778L62.769,66.778L63.793,66.778L64.311,66.778L64.852,66.778L65.331,66.778L65.829,66.778L66.855,66.778L67.371,66.778L67.915,66.778L68.386,66.778L68.891,66.778L69.912,66.778L70.175,66.778L70.423,66.778L70.963,66.778L71.442,66.778L71.95,66.778L72.972,66.778L73.483,66.778L74.026,66.778L74.503,66.778L75.011,66.778L76.038,66.778L76.559,66.778L77.105,66.778L77.575,66.778L78.076,66.778L79.098,66.778L79.618,66.778L80.183,66.778L80.638,66.778L81.133,66.778L82.154,66.778L82.676,66.778L83.219,66.778L83.694,66.778L84.196,66.778L85.219,66.778L85.736,66.778L86.278,66.778L86.748,66.778L87.254,66.778L88.278,66.778L88.796,66.778L89.338,66.778L89.811,66.778L90.314,66.778L91.336,66.778L91.849,66.778L92.389,66.778L92.866,66.778L93.376,66.778L94.398,66.778L94.91,66.778L95.448,66.778L95.925,66.778L96.436,66.778L97.464,66.778L97.98,66.778L98.527,66.778L98.999,66.778L99.499,66.778L100.522,66.778L101.044,66.778L101.587,66.778L102.058,66.778L102.561,66.778L103.584,66.778L104.102,66.778L104.648,66.778L105.12,66.778L105.621,66.778L106.645,66.778L107.162,66.778L107.708,66.778L108.179,66.778L108.682,66.778L109.706,66.778L110.223,66.778L110.768,66.778L111.241,66.778L111.741,66.778L112.764,66.778L113.278,66.778L113.819,66.778L114.293,66.778L114.801,66.778L115.826,66.778L116.336,66.778L116.879,66.778L117.356,66.778L117.863,66.778L118.889,66.778L119.41,66.778L119.954,66.778L120.419,66.778L120.926,66.778L121.948,66.778L122.468,66.778L123.013,66.778L123.487,66.778L123.987,66.778L125.01,66.778L125.53,66.778L126.074,66.778L126.55,66.778L127.046,66.778L128.071,66.778L128.592,66.778L129.137,66.778L129.61,66.778L130.106,66.778L131.131,66.778L131.651,66.778L132.195,66.778L132.668,66.778L133.167,66.778L134.191,66.778L134.701,66.778L135.243,66.778L135.72,66.778L136.228,66.778L137.252,66.778L137.762,66.778L138.305,66.778L138.779,66.778L139.288,66.778L140.315,66.778L140.837,66.778L141.382,66.778L141.84,66.778L142.351,66.778L143.375,66.778L143.899,66.778L144.442,66.778L144.911,66.778L145.412,66.778L146.438,66.778L146.957,66.778L147.503,66.778L147.973,66.778L148.473,66.778L149.495,66.778L150.013,66.778L150.556,66.778L151.033,66.778L151.532,66.778L152.554,66.778L153.073,66.778L153.616,66.778L154.092,66.778L154.592,66.778L155.614,66.778L156.128,66.778L156.668,66.778L157.146,66.778L157.653,66.778L158.674,66.778L159.187,66.778L159.73,66.778L160.207,66.778L160.714,66.778L161.739,66.778L162.259,66.778L162.805,66.778L163.277,66.778L163.778,66.778L164.799,66.778L165.319,66.778L165.866,66.778L166.338,66.778L166.838,66.778L167.862,66.778L168.382,66.778L168.928,66.778L169.399,66.778L169.899,66.778L170.924,66.778L171.443,66.778L171.99,66.778L172.464,66.778L172.96,66.778L173.983,66.778L174.502,66.778L175.046,66.778L175.519,66.778L176.021,66.778L177.041,66.778L177.553,66.778L178.094,66.778L178.57,66.778L179.079,66.778L180.102,66.778L180.614,66.778L181.156,66.778L181.633,66.778L182.14,66.778L183.169,66.778L183.691,66.778L184.233,66.778L184.704,66.778L185.202,66.778L186.226,66.778L186.745,66.778L187.31,66.778L187.764,66.778L188.266,66.778L189.288,66.778L189.812,66.778L190.374,66.778L190.824,66.778L191.328,66.778L192.349,66.778L192.872,66.778L193.432,66.778L193.887,66.778L194.387,66.778L195.409,66.778L195.929,66.778L196.474,66.778L196.946,66.778L197.446,66.778L198.467,66.778L198.983,66.778L199.523,66.778L199.999,66.778" stroke="#b279a2" stroke-width="2"/></g></g><path class="foreground" aria-hidden="true" d="" display="none"/></g><g transform="translate(0,0)"><path class="background" aria-hidden="true" d="M0,0h200v200h-200Z"/><g><g class="mark-line role-mark marks" role="graphics-object" aria-roledescription="line mark container"><path aria-label="Time: Aug 27, 2025; Price: 999; identifier: allure-rs-2-2022" role="graphics-symbol" aria-roledescription="line mark" d="M40.027,89L40.371,89L40.712,89L40.846,89L41.347,89L42.369,89L42.888,89L43.433,89L43.906,89L44.406,89L45.43,89L45.947,89L46.49,89L46.966,89L47.465,89L50.501,111.222L50.524,111.222L51.549,111.222L51.876,111.222L52.06,111.222L52.604,111.222L53.082,111.222L53.586,111.222L54.62,111.222L55.134,111.222L55.678,111.222L56.146,111.222L56.646,111.222L57.676,111.222L58.193,111.222L58.74,111.222L59.209,111.222L59.709,111.222L60.733,111.222L61.249,111.222L61.794,111.222L62.268,111.222L62.769,111.222L63.793,111.222L64.311,111.222L64.852,111.222L65.331,111.222L65.829,111.222L66.855,111.222L67.371,111.222L67.915,111.222L68.386,111.222L68.891,111.222L69.912,111.222L70.175,111.222L70.423,111.222L70.963,111.222L71.442,111.222L71.95,111.222L72.972,111.222L73.484,111.222L74.026,111.222L74.503,111.222L75.011,111.222L76.038,111.222L76.559,111.222L77.105,111.222L77.575,111.222L78.076,111.222L79.098,111.222L79.618,111.222L80.183,111.222L80.638,111.222L81.133,111.222L82.154,111.222L82.676,111.222L83.219,111.222L83.694,111.222L84.196,111.222L85.219,111.222L85.736,111.222L86.278,111.222L86.748,111.222L87.254,111.222L88.278,111.222L88.796,111.222L89.338,111.222L89.811,111.222L90.314,111.222L91.337,111.222L91.849,111.222L92.389,111.222L92.866,111.222L93.376,111.222L94.398,111.222L94.91,111.222L95.448,111.222L95.926,111.222L96.436,111.222L97.464,111.222L97.98,111.222L98.527,111.222L98.999,111.222L99.5,111.222L100.523,111.222L101.044,111.222L101.587,111.222L102.058,111.222L102.561,111.222L103.584,111.222L104.102,111.222L104.648,111.222L105.12,111.222L105.621,111.222L106.645,111.222L107.162,111.222L107.708,111.222L108.179,111.222L108.682,111.222L109.706,111.222L110.223,111.222L110.768,111.222L111.241,111.222L111.741,111.222L112.764,111.222L113.278,111.222L113.819,111.222L114.293,111.222L114.801,111.222L115.826,111.222L116.336,111.222L116.879,111.222L117.356,111.222L117.863,111.222L118.889,111.222L119.41,111.222L119.954,111.222L120.419,111.222L120.927,111.222L121.949,111.222L122.468,111.222L123.013,111.222L123.487,111.222L123.987,111.222L125.01,111.222L125.53,111.222L126.074,111.222L126.55,111.222L127.046,111.222L128.071,111.222L128.592,111.222L129.138,111.222L129.61,111.222L130.106,111.222L131.131,111.222L131.651,111.222L132.195,111.222L132.668,111.222L133.167,111.222L134.191,111.222L134.701,111.222L135.243,111.222L135.72,111.222L136.228,111.222L137.252,111.222L137.762,111.222L138.305,111.222L138.779,111.222L139.288,111.222L140.316,111.222L140.837,111.222L141.382,111.222L141.84,111.222L142.351,111.222L143.375,111.222L143.899,111.222L144.442,111.222L144.911,111.222L145.412,111.222L146.438,111.222L146.957,111.222L147.503,111.222L147.973,111.222L148.473,111.222L149.495,111.222L150.013,111.222L150.556,111.222L151.033,111.222L151.532,111.222L152.554,111.222L153.073,111.222L153.616,111.222L154.092,111.222L154.592,111.222L155.614,111.222L156.128,111.222L156.668,111.222L157.146,111.222L157.653,111.222L158.674,111.222L159.187,111.222L159.73,111.222L160.207,111.222L160.714,111.222L161.739,111.222L162.259,111.222L162.805,111.222L163.277,111.222L163.778,111.222L164.799,111.222L165.319,111.222L165.866,111.222L166.338,111.222L166.838,111.222L167.862,111.222L168.382,111.222L168.928,111.222L169.399,111.222L169.899,111.222L170.924,111.222L171.443,111.222L171.99,111.222L172.464,111.222L172.96,111.222L173.983,111.222L174.502,111.222L175.046,111.222L175.519,111.222L176.021,111.222L177.041,111.222L177.553,111.222L178.094,111.222L178.57,111.222L179.079,111.222L180.103,111.222L180.614,111.222L181.156,111.222L181.633,111.222L182.14,111.222L183.17,111.222L183.691,111.222L184.233,111.222L184.704,111.222L185.202,111.222L186.226,111.222L186.745,111.222L187.31,111.222L187.765,111.222L188.266,111.222L189.288,111.222L189.812,111.222L190.374,111.222L190.824,111.222L191.328,111.222L192.349,111.222L192.872,111.222L193.432,111.222L193.887,111.222L194.387,111.222L195.409,111.222L195.929,111.222L196.474,111.222L196.946,111.222L197.446,111.222L198.467,111.222L198.983,111.222L199.523,111.222L199.999,111.222" stroke="#54a24b" stroke-width="2"/></g></g><path class="foreground" aria-hidden="true" d="" display="none"/></g><g transform="translate(0,0)"><path class="background" aria-hidden="true" d="M0,0h200v200h-200Z"/><g><g class="mark-line role-mark marks" role="graphics-object" aria-roledescription="line mark container"><path aria-label="Time: Aug 27, 2025; Price: 949; identifier: allure-rs-2-2023" role="graphics-symbol" aria-roledescription="line mark" d="M40.027,94.556L40.371,94.556L40.712,94.556L40.846,94.556L41.347,94.556L42.369,94.556L42.888,94.556L43.433,94.556L43.906,94.556L44.406,94.556L45.43,94.556L45.947,94.556L46.49,94.556L46.966,94.556L47.466,94.556L48.487,94.556L49,94.556L49.542,94.556L50.019,94.556L50.501,94.556L50.524,94.556L51.549,94.556L51.876,94.556L52.06,94.556L52.604,94.556L53.082,94.556L53.586,94.556L54.62,94.556L55.134,94.556L55.678,94.556L56.146,94.556L56.646,94.556L57.676,94.556L58.193,94.556L58.74,94.556L59.209,94.556L59.709,94.556L60.733,94.556L61.249,94.556L61.794,94.556L62.268,94.556L62.769,94.556L63.793,94.556L64.311,94.556L64.853,94.556L65.332,94.556L65.829,94.556L66.855,94.556L67.371,94.556L67.915,94.556L68.387,94.556L68.891,94.556L69.912,94.556L70.175,94.556L70.423,94.556L70.963,94.556L71.442,94.556L71.95,94.556L72.972,94.556L73.484,94.556L74.026,94.556L74.503,94.556L75.011,94.556L76.038,94.556L76.559,94.556L77.105,94.556L77.575,94.556L78.076,94.556L79.098,94.556L79.618,94.556L80.183,94.556L80.638,94.556L81.134,94.556L82.154,94.556L82.676,94.556L83.219,94.556L83.694,94.556L84.196,94.556L85.219,94.556L85.736,94.556L86.278,94.556L86.749,94.556L87.254,94.556L88.278,94.556L88.796,94.556L89.338,94.556L89.811,94.556L90.315,94.556L91.337,94.556L91.849,94.556L92.39,94.556L92.866,94.556L93.376,94.556L94.399,94.556L94.91,94.556L95.448,94.556L95.926,94.556L96.437,94.556L97.464,94.556L97.98,94.556L98.527,94.556L98.999,94.556L99.5,94.556L100.523,94.556L101.044,94.556L101.587,94.556L102.058,94.556L102.561,94.556L103.585,94.556L104.102,94.556L104.648,94.556L105.12,94.556L105.621,94.556L106.645,94.556L107.162,94.556L107.708,94.556L108.179,94.556L108.682,94.556L109.706,94.556L110.223,94.556L110.768,94.556L111.241,94.556L111.741,94.556L112.764,94.556L113.278,94.556L113.819,94.556L114.293,94.556L114.801,94.556L115.826,94.556L116.336,94.556L116.879,94.556L117.356,94.556L117.863,94.556L118.889,94.556L119.41,94.556L119.954,94.556L120.419,94.556L120.927,94.556L121.949,94.556L122.468,94.556L123.013,94.556L123.487,94.556L123.987,94.556L125.01,94.556L125.53,94.556L126.074,94.556L126.55,94.556L127.046,94.556L128.071,94.556L128.592,94.556L129.138,94.556L129.61,94.556L130.106,94.556L131.131,94.556L131.651,94.556L132.195,94.556L132.668,94.556L133.167,94.556L134.191,94.556L134.701,94.556L135.243,94.556L135.72,94.556L136.228,94.556L137.252,94.556L137.762,94.556L138.305,94.556L138.779,94.556L139.288,94.556L140.316,94.556L140.837,94.556L141.382,94.556L141.84,94.556L142.351,94.556L143.375,94.556L143.899,94.556L144.442,94.556L144.911,94.556L145.412,94.556L146.438,94.556L146.957,94.556L147.504,94.556L147.973,94.556L148.473,94.556L149.495,94.556L150.013,94.556L150.556,94.556L151.033,94.556L151.532,94.556L152.554,94.556L153.074,94.556L153.616,94.556L154.092,94.556L154.592,94.556L155.615,94.556L156.128,94.556L156.668,94.556L157.147,94.556L157.653,94.556L158.674,94.556L159.187,94.556L159.73,94.556L160.207,94.556L160.714,94.556L161.739,94.556L162.259,94.556L162.805,94.556L163.277,94.556L163.778,94.556L164.799,94.556L165.319,94.556L165.866,94.556L166.338,94.556L166.838,94.556L167.862,94.556L168.382,94.556L168.928,94.556L169.399,94.556L169.899,94.556L170.924,94.556L171.443,94.556L171.99,94.556L172.464,94.556L172.96,94.556L173.983,94.556L174.502,94.556L175.046,94.556L175.519,94.556L176.021,94.556L177.041,94.556L177.553,94.556L178.094,94.556L178.57,94.556L179.079,94.556L180.103,94.556L180.614,94.556L181.156,94.556L181.633,94.556L182.14,94.556L183.17,94.556L183.691,94.556L184.234,94.556L184.704,94.556L185.202,94.556L186.226,94.556L186.745,94.556L187.311,94.556L187.765,94.556L188.266,94.556L189.288,94.556L189.812,94.556L190.375,94.556L190.824,94.556L191.328,94.556L192.349,94.556L192.872,94.556L193.432,94.556L193.887,94.556L194.387,94.556L195.409,94.556L195.929,94.556L196.474,94.556L196.946,94.556L197.446,94.556L198.467,94.556L198.983,94.556L199.523,94.556L199.999,94.556" stroke="#bab0ac" stroke-width="2"/></g></g><path class="foreground" aria-hidden="true" d="" display="none"/></g><g transform="translate(0,0)"><path class="background" aria-hidden="true" d="M0,0h200v200h-200Z"/><g><g class="mark-line role-mark marks" role="graphics-object" aria-roledescription="line mark container"><path aria-label="Time: Aug 27, 2025; Price: 999; identifier: allure-rs-2-2024" role="graphics-symbol" aria-roledescription="line mark" d="M40.028,89L40.371,89L40.712,89L40.846,89L41.347,89L42.369,89L42.888,89L43.433,89L43.906,89L44.406,89L45.43,89L45.947,89L46.49,89L46.966,89L47.466,89L50.501,111.222L50.524,111.222L51.549,111.222L51.876,111.222L52.06,111.222L52.604,111.222L53.082,111.222L53.586,111.222L54.62,111.222L55.135,111.222L55.678,111.222L56.147,111.222L56.647,111.222L57.676,111.222L58.193,111.222L58.741,111.222L59.209,111.222L59.709,111.222L60.733,111.222L61.249,111.222L61.795,111.222L62.269,111.222L62.769,111.222L63.793,111.222L64.311,111.222L64.853,111.222L65.332,111.222L65.829,111.222L66.855,111.222L67.371,111.222L67.915,111.222L68.387,111.222L68.891,111.222L69.912,111.222L70.175,111.222L70.423,111.222L70.963,111.222L71.442,111.222L71.95,111.222L72.972,111.222L73.484,111.222L74.026,111.222L74.503,111.222L75.011,111.222L76.038,111.222L76.559,111.222L77.105,111.222L77.575,111.222L78.076,111.222L79.098,111.222L79.618,111.222L80.183,111.222L80.638,111.222L81.134,111.222L82.154,111.222L82.676,111.222L83.219,111.222L83.694,111.222L84.196,111.222L85.219,111.222L85.736,111.222L86.278,111.222L86.749,111.222L87.254,111.222L88.278,111.222L88.796,111.222L89.338,111.222L89.811,111.222L90.315,111.222L91.337,111.222L91.849,111.222L92.39,111.222L92.866,111.222L93.376,111.222L94.399,111.222L94.91,111.222L95.448,111.222L95.926,111.222L96.437,111.222L97.464,111.222L97.98,111.222L98.528,111.222L98.999,111.222L99.5,111.222L100.523,111.222L101.044,111.222L101.587,111.222L102.059,111.222L102.561,111.222L103.585,111.222L104.102,111.222L104.648,111.222L105.12,111.222L105.621,111.222L106.645,111.222L107.162,111.222L107.708,111.222L108.179,111.222L108.682,111.222L109.706,111.222L110.223,111.222L110.768,111.222L111.242,111.222L111.741,111.222L112.764,111.222L113.278,111.222L113.82,111.222L114.293,111.222L114.801,111.222L115.826,111.222L116.336,111.222L116.879,111.222L117.356,111.222L117.863,111.222L118.889,111.222L119.41,111.222L119.954,111.222L120.419,111.222L120.927,111.222L121.949,111.222L122.468,111.222L123.013,111.222L123.487,111.222L123.987,111.222L125.01,111.222L125.53,111.222L126.074,111.222L126.55,111.222L127.046,111.222L128.071,111.222L128.592,111.222L129.138,111.222L129.61,111.222L130.106,111.222L131.131,111.222L131.651,111.222L132.195,111.222L132.668,111.222L133.167,111.222L134.191,111.222L134.701,111.222L135.243,111.222L135.72,111.222L136.228,111.222L137.252,111.222L137.763,111.222L138.305,111.222L138.779,111.222L139.288,111.222L140.316,111.222L140.837,111.222L141.382,111.222L141.84,111.222L142.351,111.222L143.375,111.222L143.899,111.222L144.442,111.222L144.911,111.222L145.412,111.222L146.438,111.222L146.957,111.222L147.504,111.222L147.973,111.222L148.473,111.222L149.495,111.222L150.013,111.222L150.556,111.222L151.033,111.222L151.532,111.222L152.555,111.222L153.074,111.222L153.616,111.222L154.092,111.222L154.592,111.222L155.615,111.222L156.128,111.222L156.668,111.222L157.147,111.222L157.653,111.222L158.674,111.222L159.187,111.222L159.73,111.222L160.207,111.222L160.714,111.222L161.739,111.222L162.259,111.222L162.805,111.222L163.277,111.222L163.778,111.222L164.799,111.222L165.319,111.222L165.866,111.222L166.338,111.222L166.838,111.222L167.862,111.222L168.382,111.222L168.928,111.222L169.399,111.222L169.899,111.222L170.924,111.222L171.444,111.222L171.99,111.222L172.464,111.222L172.96,111.222L173.983,111.222L174.502,111.222L175.046,111.222L175.519,111.222L176.021,111.222L177.041,111.222L177.553,111.222L178.094,111.222L178.57,111.222L179.079,111.222L180.103,111.222L180.614,111.222L181.156,111.222L181.634,111.222L182.14,111.222L183.17,111.222L183.691,111.222L184.234,111.222L184.705,111.222L185.202,111.222L186.226,111.222L186.745,111.222L187.311,111.222L187.765,111.222L188.266,111.222L189.289,111.222L189.812,111.222L190.375,111.222L190.824,111.222L191.328,111.222L192.349,111.222L192.872,111.222L193.432,111.222L193.887,111.222L194.387,111.222L195.41,111.222L195.929,111.222L196.474,111.222L196.946,111.222L197.446,111.222L198.467,111.222L198.983,111.222L199.523,111.222L200,111.222" stroke="#eeca3b" stroke-width="2"/></g></g><path class="foreground" aria-hidden="true" d="" display="none"/></g><g transform="translate(0,0)"><path class="background" aria-hidden="true" d="M0,0h200v200h-200Z"/><g><g class="mark-line role-mark marks" role="graphics-object" aria-roledescription="line mark container"><path aria-label="Time: Aug 27, 2025; Price: 1799; identifier: devote-1-2024" role="graphics-symbol" aria-roledescription="line mark" d="M40.712,0.111L40.846,0.111L41.347,0.111L42.369,0.111L42.888,0.111L43.433,0.111L43.906,0.111L44.406,0.111L45.43,0.111L45.947,0.111L46.491,0.111L46.966,0.111L47.466,0.111L50.501,44.556L50.524,44.556L51.549,44.556L51.876,44.556L52.06,44.556L52.604,44.556L53.082,44.556L53.586,44.556L54.62,44.556L55.135,44.556L55.678,44.556L56.147,44.556L56.647,44.556L57.676,44.556L58.194,44.556L58.741,44.556L59.209,44.556L59.71,44.556L60.733,44.556L61.249,44.556L61.795,44.556L62.269,44.556L62.769,44.556L63.793,44.556L64.311,44.556L64.853,44.556L65.332,44.556L65.829,44.556L66.855,44.556L67.371,44.556L67.915,44.556L68.387,44.556L68.891,44.556L69.912,44.556L70.175,44.556L70.423,44.556L70.963,44.556L71.442,44.556L71.95,44.556L72.972,44.556L73.484,44.556L74.026,44.556L74.503,44.556L75.011,44.556L76.039,44.556L76.559,44.556L77.105,44.556L77.575,44.556L78.076,44.556L79.098,44.556L79.619,44.556L80.183,44.556L80.638,44.556L81.134,44.556L82.155,44.556L82.676,44.556L83.219,44.556L83.694,44.556L84.196,44.556L85.219,44.556L85.736,44.556L86.279,44.556L86.749,44.556L87.254,44.556L88.278,44.556L88.796,44.556L89.338,44.556L89.811,44.556L90.315,44.556L91.337,44.556L91.849,44.556L92.39,44.556L92.866,44.556L93.376,44.556L94.399,44.556L94.91,44.556L95.448,44.556L95.926,44.556L96.437,44.556L97.465,44.556L97.98,44.556L98.528,44.556L99,44.556L99.5,44.556L100.523,44.556L101.044,44.556L101.588,44.556L102.059,44.556L102.561,44.556L103.585,44.556L104.102,44.556L104.649,44.556L105.12,44.556L105.621,44.556L106.645,44.556L107.162,44.556L107.708,44.556L108.179,44.556L108.682,44.556L109.706,44.556L110.223,44.556L110.768,44.556L111.242,44.556L111.741,44.556L112.764,44.556L113.278,44.556L113.82,44.556L114.293,44.556L114.801,44.556L115.826,44.556L116.337,44.556L116.879,44.556L117.356,44.556L117.863,44.556L118.889,44.556L119.41,44.556L119.955,44.556L120.419,44.556L120.927,44.556L121.949,44.556L122.468,44.556L123.013,44.556L123.487,44.556L123.987,44.556L125.011,44.556L125.53,44.556L126.074,44.556L126.55,44.556L127.046,44.556L128.071,44.556L128.592,44.556L129.138,44.556L129.61,44.556L130.106,44.556L131.131,44.556L131.651,44.556L132.195,44.556L132.668,44.556L133.167,44.556L134.191,44.556L134.701,44.556L135.243,44.556L135.72,44.556L136.228,44.556L137.252,44.556L137.763,44.556L138.305,44.556L138.779,44.556L139.288,44.556L140.316,44.556L140.837,44.556L141.382,44.556L141.84,44.556L142.351,44.556L143.375,44.556L143.899,44.556L144.442,44.556L144.911,44.556L145.412,44.556L146.438,44.556L146.957,44.556L147.504,44.556L147.973,44.556L148.473,44.556L149.495,44.556L150.013,44.556L150.556,44.556L151.033,44.556L151.532,44.556L152.555,44.556L153.074,44.556L153.616,44.556L154.092,44.556L154.593,44.556L155.615,44.556L156.128,44.556L156.668,44.556L157.147,44.556L157.653,44.556L158.674,44.556L159.187,44.556L159.73,44.556L160.207,44.556L160.715,44.556L161.739,44.556L162.259,44.556L162.805,44.556L163.277,44.556L163.778,44.556L164.8,44.556L165.319,44.556L165.867,44.556L166.338,44.556L166.838,44.556L167.862,44.556L168.382,44.556L168.928,44.556L169.399,44.556L169.899,44.556L170.924,44.556L171.444,44.556L171.99,44.556L172.465,44.556L172.961,44.556L173.983,44.556L174.502,44.556L175.046,44.556L175.519,44.556L176.021,44.556L177.042,44.556L177.554,44.556L178.094,44.556L178.57,44.556L179.079,44.556L180.103,44.556L180.614,44.556L181.156,44.556L181.634,44.556L182.14,44.556L183.17,44.556L183.691,44.556L184.234,44.556L184.705,44.556L185.202,44.556L186.226,44.556L186.746,44.556L187.311,44.556L187.765,44.556L188.266,44.556L189.289,44.556L189.812,44.556L190.375,44.556L190.824,44.556L191.328,44.556L192.35,44.556L192.872,44.556L193.432,44.556L193.888,44.556L194.387,44.556L195.41,44.556L195.929,44.556L196.474,44.556L196.946,44.556L197.446,44.556L198.467,44.556L198.983,44.556L199.523,44.556L200,44.556" stroke="#72b7b2" stroke-width="2"/></g></g><path class="foreground" aria-hidden="true" d="" display="none"/></g><g transform="translate(0,0)"><path class="background" aria-hidden="true" d="M0,0h200v200h-200Z"/><g><g class="mark-line role-mark marks" role="graphics-object" aria-roledescription="line mark container"><path aria-label="Time: Aug 27, 2025; Price: 1699; identifier: devote-1-2022" role="graphics-symbol" aria-roledescription="line mark" d="M40.712,11.222L40.846,11.222L41.347,11.222L42.369,11.222L42.888,11.222L43.433,11.222L43.906,11.222L44.406,11.222L45.43,11.222L45.947,11.222L46.491,11.222L46.966,11.222L47.466,11.222L48.487,11.222L49,11.222L49.542,11.222L50.019,11.222L50.501,11.222L50.524,11.222L51.55,11.222L51.876,11.222L52.06,11.222L52.604,11.222L53.082,11.222L53.586,11.222L54.62,11.222L55.135,11.222L55.678,11.222L56.147,11.222L56.647,11.222L57.676,11.222L58.194,11.222L58.741,11.222L59.209,11.222L59.71,11.222L60.733,11.222L61.249,11.222L61.795,11.222L62.269,11.222L62.769,11.222L63.793,11.222L64.312,11.222L64.853,11.222L65.332,11.222L65.83,11.222L66.855,11.222L67.372,11.222L67.915,11.222L68.387,11.222L68.891,11.222L69.913,11.222L70.175,11.222L70.423,11.222L70.963,11.222L71.442,11.222L71.95,11.222L72.972,11.222L73.484,11.222L74.026,11.222L74.503,11.222L75.011,11.222L76.039,11.222L76.559,11.222L77.105,11.222L77.575,11.222L78.076,11.222L79.098,11.222L79.619,11.222L80.183,11.222L80.638,11.222L81.134,11.222L82.155,11.222L82.677,11.222L83.219,11.222L83.694,11.222L84.196,11.222L85.22,11.222L85.736,11.222L86.279,11.222L86.749,11.222L87.254,11.222L88.278,11.222L88.796,11.222L89.338,11.222L89.811,11.222L90.315,11.222L91.337,11.222L91.849,11.222L92.39,11.222L92.866,11.222L93.376,11.222L94.399,11.222L94.91,11.222L95.448,11.222L95.926,11.222L96.437,11.222L97.465,11.222L97.98,11.222L98.528,11.222L99,11.222L99.501,11.222L100.523,11.222L101.044,11.222L101.588,11.222L102.059,11.222L102.561,11.222L103.585,11.222L104.102,11.222L104.649,11.222L105.12,11.222L105.621,11.222L106.645,11.222L107.162,11.222L107.709,11.222L108.179,11.222L108.682,11.222L109.706,11.222L110.223,11.222L110.768,11.222L111.242,11.222L111.741,11.222L112.765,11.222L113.278,11.222L113.82,11.222L114.293,11.222L114.801,11.222L115.826,11.222L116.337,11.222L116.88,11.222L117.356,11.222L117.863,11.222L118.889,11.222L119.41,11.222L119.955,11.222L120.419,11.222L120.927,11.222L121.949,11.222L122.468,11.222L123.013,11.222L123.487,11.222L123.987,11.222L125.011,11.222L125.53,11.222L126.074,11.222L126.55,11.222L127.046,11.222L128.072,11.222L128.592,11.222L129.138,11.222L129.61,11.222L130.106,11.222L131.131,11.222L131.651,11.222L132.195,11.222L132.668,11.222L133.167,11.222L134.191,11.222L134.702,11.222L135.243,11.222L135.721,11.222L136.228,11.222L137.252,11.222L137.763,11.222L138.305,11.222L138.779,11.222L139.288,11.222L140.316,11.222L140.837,11.222L141.382,11.222L141.84,11.222L142.351,11.222L143.375,11.222L143.899,11.222L144.442,11.222L144.911,11.222L145.412,11.222L146.438,11.222L146.957,11.222L147.504,11.222L147.973,11.222L148.473,11.222L149.495,11.222L150.013,11.222L150.557,11.222L151.033,11.222L151.532,11.222L152.555,11.222L153.074,11.222L153.616,11.222L154.093,11.222L154.593,11.222L155.615,11.222L156.128,11.222L156.668,11.222L157.147,11.222L157.653,11.222L158.674,11.222L159.187,11.222L159.73,11.222L160.207,11.222L160.715,11.222L161.739,11.222L162.259,11.222L162.805,11.222L163.277,11.222L163.778,11.222L164.8,11.222L165.319,11.222L165.867,11.222L166.338,11.222L166.838,11.222L167.862,11.222L168.383,11.222L168.928,11.222L169.399,11.222L169.899,11.222L170.924,11.222L171.444,11.222L171.99,11.222L172.465,11.222L172.961,11.222L173.984,11.222L174.502,11.222L175.046,11.222L175.519,11.222L176.021,11.222L177.042,11.222L177.554,11.222L178.094,11.222L178.57,11.222L179.079,11.222L180.103,11.222L180.615,11.222L181.156,11.222L181.634,11.222L182.14,11.222L183.17,11.222L183.691,11.222L184.234,11.222L184.705,11.222L185.203,11.222L186.226,11.222L186.746,11.222L187.311,11.222L187.765,11.222L188.266,11.222L189.289,11.222L189.812,11.222L190.375,11.222L190.824,11.222L191.328,11.222L192.35,11.222L192.873,11.222L193.432,11.222L193.888,11.222L194.387,11.222L195.41,11.222L195.929,11.222L196.474,11.222L196.946,11.222L197.447,11.222L198.468,11.222L198.983,11.222L199.523,11.222L200,11.222" stroke="#4c78a8" stroke-width="2"/></g></g><path class="foreground" aria-hidden="true" d="" display="none"/></g><g transform="translate(0,0)"><path class="background" aria-hidden="true" d="M0,0h200v200h-200Z"/><g><g class="mark-line role-mark marks" role="graphics-object" aria-roledescription="line mark container"><path aria-label="Time: Aug 31, 2025; Price: 1599; identifier: silex-400-oak-bork-2026" role="graphics-symbol" aria-roledescription="line mark" d="M51.876,22.333L52.06,22.333L52.604,22.333L53.082,22.333L53.587,22.333L54.62,22.333L55.135,22.333L55.678,22.333L56.147,22.333L56.647,22.333L57.676,22.333L58.194,22.333L58.741,22.333L59.209,22.333L59.71,22.333L60.733,22.333L61.25,22.333L61.795,22.333L62.269,22.333L62.769,22.333L63.793,22.333L64.312,22.333L64.853,22.333L65.332,22.333L65.83,22.333L66.855,22.333L67.372,22.333L67.915,22.333L68.387,22.333L68.891,22.333L69.913,22.333L70.175,22.333L70.424,22.333L70.964,22.333L71.442,22.333L71.95,22.333L72.972,22.333L73.484,22.333L74.026,22.333L74.504,22.333L75.011,22.333L76.039,22.333L76.559,22.333L77.105,22.333L77.575,22.333L78.077,22.333L79.098,22.333L79.619,22.333L80.183,22.333L80.638,22.333L81.134,22.333L82.155,22.333L82.677,22.333L83.219,22.333L83.694,22.333L84.196,22.333L85.22,22.333L85.736,22.333L86.279,22.333L86.749,22.333L87.254,22.333L88.278,22.333L88.796,22.333L89.338,22.333L89.811,22.333L90.315,22.333L91.337,22.333L91.849,22.333L92.39,22.333L92.866,22.333L93.376,22.333L94.399,22.333L94.91,22.333L95.448,22.333L95.926,22.333L96.437,22.333L97.465,22.333L97.981,22.333L98.528,22.333L99,22.333L99.501,22.333L100.523,22.333L101.044,22.333L101.588,22.333L102.059,22.333L102.561,22.333L103.585,22.333L104.102,22.333L104.649,22.333L105.12,22.333L105.621,22.333L106.645,22.333L107.162,22.333L107.709,22.333L108.179,22.333L108.682,22.333L109.706,22.333L110.223,22.333L110.768,22.333L111.242,22.333L111.741,22.333L112.765,22.333L113.278,22.333L113.82,22.333L114.293,22.333L114.801,22.333L115.827,22.333L116.337,22.333L116.88,22.333L117.357,22.333L117.863,22.333L118.889,22.333L119.41,22.333L119.955,22.333L120.419,22.333L120.927,22.333L121.949,22.333L122.468,22.333L123.013,22.333L123.487,22.333L123.988,22.333L125.011,22.333L125.53,22.333L126.075,22.333L126.55,22.333L127.046,22.333L128.072,22.333L128.592,22.333L129.138,22.333L129.61,22.333L130.106,22.333L131.131,22.333L131.651,22.333L132.195,22.333L132.668,22.333L133.168,22.333L134.191,22.333L134.702,22.333L135.244,22.333L135.721,22.333L136.229,22.333L137.252,22.333L137.763,22.333L138.306,22.333L138.779,22.333L139.289,22.333L140.316,22.333L140.837,22.333L141.382,22.333L141.84,22.333L142.351,22.333L143.375,22.333L143.899,22.333L144.442,22.333L144.911,22.333L145.413,22.333L146.438,22.333L146.958,22.333L147.504,22.333L147.973,22.333L148.474,22.333L149.495,22.333L150.013,22.333L150.557,22.333L151.034,22.333L151.533,22.333L152.555,22.333L153.074,22.333L153.616,22.333L154.093,22.333L154.593,22.333L155.615,22.333L156.128,22.333L156.669,22.333L157.147,22.333L157.653,22.333L158.674,22.333L159.187,22.333L159.731,22.333L160.207,22.333L160.715,22.333L161.739,22.333L162.259,22.333L162.805,22.333L163.278,22.333L163.778,22.333L164.8,22.333L165.319,22.333L165.867,22.333L166.338,22.333L166.838,22.333L167.862,22.333L168.383,22.333L168.929,22.333L169.399,22.333L169.9,22.333L170.924,22.333L171.444,22.333L171.99,22.333L172.465,22.333L172.961,22.333L173.984,22.333L174.502,22.333L175.046,22.333L175.52,22.333L176.021,22.333L177.042,22.333L177.554,22.333L178.095,22.333L178.57,22.333L179.079,22.333L180.103,22.333L180.615,22.333L181.156,22.333L181.634,22.333L182.14,22.333L183.17,22.333L183.691,22.333L184.234,22.333L184.705,22.333L185.203,22.333L186.227,22.333L186.746,22.333L187.311,22.333L187.765,22.333L188.266,22.333L189.289,22.333L189.812,22.333L190.375,22.333L190.824,22.333L191.328,22.333L192.351,22.333L192.873,22.333L193.433,22.333L193.888,22.333L194.387,22.333L195.41,22.333L195.929,22.333L196.474,22.333L196.946,22.333L197.447,22.333L198.468,22.333L198.983,22.333L199.523,22.333L200,22.333" stroke="#f58518" stroke-width="2"/></g></g><path class="foreground" aria-hidden="true" d="" display="none"/></g><g transform="translate(0,0)"><path class="background" aria-hidden="true" d="M0,0h200v200h-200Z"/><g><g class="mark-line role-mark marks" role="graphics-object" aria-roledescription="line mark container"><path aria-label="Time: Aug 31, 2025; Price: 1599; identifier: silex-400-warm-slate-grey-2026" role="graphics-symbol" aria-roledescription="line mark" d="M51.877,22.333L52.06,22.333L52.605,22.333L53.082,22.333L53.587,22.333L54.62,22.333L55.135,22.333L55.678,22.333L56.147,22.333L56.647,22.333L57.676,22.333L58.194,22.333L58.741,22.333L59.21,22.333L59.71,22.333L60.733,22.333L61.25,22.333L61.795,22.333L62.269,22.333L62.769,22.333L63.793,22.333L64.312,22.333L64.853,22.333L65.332,22.333L65.83,22.333L66.855,22.333L67.372,22.333L67.915,22.333L68.387,22.333L68.891,22.333L69.913,22.333L70.175,22.333L70.424,22.333L70.964,22.333L71.443,22.333L71.951,22.333L72.973,22.333L73.484,22.333L74.026,22.333L74.504,22.333L75.011,22.333L76.039,22.333L76.559,22.333L77.105,22.333L77.575,22.333L78.077,22.333L79.098,22.333L79.619,22.333L80.183,22.333L80.638,22.333L81.134,22.333L82.155,22.333L82.677,22.333L83.219,22.333L83.694,22.333L84.196,22.333L85.22,22.333L85.736,22.333L86.279,22.333L86.749,22.333L87.254,22.333L88.278,22.333L88.796,22.333L89.339,22.333L89.811,22.333L90.315,22.333L91.337,22.333L91.85,22.333L92.39,22.333L92.866,22.333L93.376,22.333L94.399,22.333L94.911,22.333L95.449,22.333L95.926,22.333L96.437,22.333L97.465,22.333L97.981,22.333L98.528,22.333L99,22.333L99.501,22.333L100.523,22.333L101.044,22.333L101.588,22.333L102.059,22.333L102.561,22.333L103.585,22.333L104.102,22.333L104.649,22.333L105.121,22.333L105.621,22.333L106.645,22.333L107.162,22.333L107.709,22.333L108.18,22.333L108.683,22.333L109.706,22.333L110.223,22.333L110.768,22.333L111.242,22.333L111.741,22.333L112.765,22.333L113.279,22.333L113.82,22.333L114.293,22.333L114.801,22.333L115.827,22.333L116.337,22.333L116.88,22.333L117.357,22.333L117.864,22.333L118.889,22.333L119.41,22.333L119.955,22.333L120.42,22.333L120.927,22.333L121.949,22.333L122.469,22.333L123.013,22.333L123.488,22.333L123.988,22.333L125.011,22.333L125.53,22.333L126.076,22.333L126.55,22.333L127.046,22.333L128.072,22.333L128.592,22.333L129.138,22.333L129.61,22.333L130.106,22.333L131.131,22.333L131.651,22.333L132.195,22.333L132.668,22.333L133.168,22.333L134.191,22.333L134.702,22.333L135.244,22.333L135.721,22.333L136.229,22.333L137.252,22.333L137.763,22.333L138.306,22.333L138.779,22.333L139.289,22.333L140.316,22.333L140.837,22.333L141.382,22.333L141.84,22.333L142.351,22.333L143.376,22.333L143.899,22.333L144.443,22.333L144.912,22.333L145.413,22.333L146.438,22.333L146.958,22.333L147.504,22.333L147.974,22.333L148.474,22.333L149.495,22.333L150.013,22.333L150.557,22.333L151.034,22.333L151.533,22.333L152.555,22.333L153.074,22.333L153.616,22.333L154.093,22.333L154.593,22.333L155.615,22.333L156.128,22.333L156.669,22.333L157.147,22.333L157.654,22.333L158.674,22.333L159.187,22.333L159.731,22.333L160.207,22.333L160.715,22.333L161.74,22.333L162.259,22.333L162.805,22.333L163.278,22.333L163.779,22.333L164.8,22.333L165.319,22.333L165.867,22.333L166.338,22.333L166.839,22.333L167.862,22.333L168.383,22.333L168.929,22.333L169.399,22.333L169.9,22.333L170.924,22.333L171.444,22.333L171.99,22.333L172.465,22.333L172.961,22.333L173.984,22.333L174.502,22.333L175.046,22.333L175.52,22.333L176.022,22.333L177.042,22.333L177.554,22.333L178.095,22.333L178.57,22.333L179.079,22.333L180.103,22.333L180.615,22.333L181.156,22.333L181.634,22.333L182.14,22.333L183.17,22.333L183.692,22.333L184.234,22.333L184.705,22.333L185.203,22.333L186.227,22.333L186.746,22.333L187.311,22.333L187.766,22.333L188.266,22.333L189.289,22.333L189.812,22.333L190.375,22.333L190.825,22.333L191.328,22.333L192.351,22.333L192.873,22.333L193.433,22.333L193.888,22.333L194.387,22.333L195.41,22.333L195.929,22.333L196.475,22.333L196.947,22.333L197.447,22.333L198.468,22.333L198.983,22.333L199.523,22.333L200,22.333" stroke="#e45756" stroke-width="2"/></g></g><path class="foreground" aria-hidden="true" d="" display="none"/></g></g><g class="mark-group role-legend" role="graphics-symbol" aria-roledescription="legend" aria-label="Symbol legend titled 'identifier' for stroke color with 16 values: devote-1-2022, silex-400-oak-bork-2026, silex-400-warm-slate-grey-2026, devote-1-2024, fastroad-ar-2, ending with allure-rs-2-2024"><g transform="translate(220,0)"><path class="background" aria-hidden="true" d="M0,0h256v222h-256Z" pointer-events="none"/><g><g class="mark-group role-legend-entry"><g transform="translate(0,16)"><path class="background" aria-hidden="true" d="M0,0h0v0h0Z" pointer-events="none"/><g><g class="mark-group role-scope" role="graphics-object" aria-roledescription="group mark container"><g transform="translate(0,0)"><path class="background" aria-hidden="true" d="M0,0h256v11h-256Z" pointer-events="none" opacity="1"/><g><g class="mark-symbol role-legend-symbol" pointer-events="none"><path transform="translate(6,6)" d="M-5,0L5,0" stroke="#4c78a8" stroke-width="1.5" opacity="1"/></g><g class="mark-text role-legend-label" pointer-events="none"><text text-anchor="start" transform="translate(16,9)" font-family="Liberation Mono" font-size="10px" fill="#000" opacity="1">devote-1-2022</text></g></g><path class="foreground" aria-hidden="true" d="" pointer-events="none" display="none"/></g><g transform="translate(0,13)"><path class="background" aria-hidden="true" d="M0,0h256v11h-256Z" pointer-events="none" opacity="1"/><g><g class="mark-symbol role-legend-symbol" pointer-events="none"><path transform="translate(6,6)" d="M-5,0L5,0" stroke="#f58518" stroke-width="1.5" opacity="1"/></g><g class="mark-text role-legend-label" pointer-events="none"><text text-anchor="start" transform="translate(16,9)" font-family="Liberation Mono" font-size="10px" fill="#000" opacity="1">silex-400-oak-bork-2026</text></g></g><path class="foreground" aria-hidden="true" d="" pointer-events="none" display="none"/></g><g transform="translate(0,26)"><path class="background" aria-hidden="true" d="M0,0h256v11h-256Z" pointer-events="none" opacity="1"/><g><g class="mark-symbol role-legend-symbol" pointer-events="none"><path transform="translate(6,6)" d="M-5,0L5,0" stroke="#e45756" stroke-width="1.5" opacity="1"/></g><g class="mark-text role-legend-label" pointer-events="none"><text text-anchor="start" transform="translate(16,9)" font-family="Liberation Mono" font-size="10px" fill="#000" opacity="1">silex-400-warm-slate-grey-2026</text></g></g><path class="foreground" aria-hidden="true" d="" pointer-events="none" display="none"/></g><g transform="translate(0,39)"><path class="background" aria-hidden="true" d="M0,0h256v11h-256Z" pointer-events="none" opacity="1"/><g><g class="mark-symbol role-legend-symbol" pointer-events="none"><path transform="translate(6,6)" d="M-5,0L5,0" stroke="#72b7b2" stroke-width="1.5" opacity="1"/></g><g class="mark-text role-legend-label" pointer-events="none"><text text-anchor="start" transform="translate(16,9)" font-family="Liberation Mono" font-size="10px" fill="#000" opacity="1">devote-1-2024</text></g></g><path class="foreground" aria-hidden="true" d="" pointer-events="none" display="none"/></g><g transform="translate(0,52)"><path class="background" aria-hidden="true" d="M0,0h256v11h-256Z" pointer-events="none" opacity="1"/><g><g class="mark-symbol role-legend-symbol" pointer-events="none"><path transform="translate(6,6)" d="M-5,0L5,0" stroke="#54a24b" stroke-width="1.5" opacity="1"/></g><g class="mark-text role-legend-label" pointer-events="none"><text text-anchor="start" transform="translate(16,9)" font-family="Liberation Mono" font-size="10px" fill="#000" opacity="1">fastroad-ar-2</text></g></g><path class="foreground" aria-hidden="true" d="" pointer-events="none" display="none"/></g><g transform="translate(0,65)"><path class="background" aria-hidden="true" d="M0,0h256v11h-256Z" pointer-events="none" opacity="1"/><g><g class="mark-symbol role-legend-symbol" pointer-events="none"><path transform="translate(6,6)" d="M-5,0L5,0" stroke="#eeca3b" stroke-width="1.5" opacity="1"/></g><g class="mark-text role-legend-label" pointer-events="none"><text text-anchor="start" transform="translate(16,9)" font-family="Liberation Mono" font-size="10px" fill="#000" opacity="1">thrive-2</text></g></g><path class="foreground" aria-hidden="true" d="" pointer-events="none" display="none"/></g><g transform="translate(0,78)"><path class="background" aria-hidden="true" d="M0,0h256v11h-256Z" pointer-events="none" opacity="1"/><g><g class="mark-symbol role-legend-symbol" pointer-events="none"><path transform="translate(6,6)" d="M-5,0L5,0" stroke="#b279a2" stroke-width="1.5" opacity="1"/></g><g class="mark-text role-legend-label" pointer-events="none"><text text-anchor="start" transform="translate(16,9)" font-family="Liberation Mono" font-size="10px" fill="#000" opacity="1">allure-rs-1-2023</text></g></g><path class="foreground" aria-hidden="true" d="" pointer-events="none" display="none"/></g><g transform="translate(0,91)"><path class="background" aria-hidden="true" d="M0,0h256v11h-256Z" pointer-events="none" opacity="1"/><g><g class="mark-symbol role-legend-symbol" pointer-events="none"><path transform="translate(6,6)" d="M-5,0L5,0" stroke="#ff9da6" stroke-width="1.5" opacity="1"/></g><g class="mark-text role-legend-label" pointer-events="none"><text text-anchor="start" transform="translate(16,9)" font-family="Liberation Mono" font-size="10px" fill="#000" opacity="1">roam-2</text></g></g><path class="foreground" aria-hidden="true" d="" pointer-events="none" display="none"/></g><g transform="translate(0,104)"><path class="background" aria-hidden="true" d="M0,0h256v11h-256Z" pointer-events="none" opacity="1"/><g><g class="mark-symbol role-legend-symbol" pointer-events="none"><path transform="translate(6,6)" d="M-5,0L5,0" stroke="#9d755d" stroke-width="1.5" opacity="1"/></g><g class="mark-text role-legend-label" pointer-events="none"><text text-anchor="start" transform="translate(16,9)" font-family="Liberation Mono" font-size="10px" fill="#000" opacity="1">fastroad-sl-3-2022</text></g></g><path class="foreground" aria-hidden="true" d="" pointer-events="none" display="none"/></g><g transform="translate(0,117)"><path class="background" aria-hidden="true" d="M0,0h256v11h-256Z" pointer-events="none" opacity="1"/><g><g class="mark-symbol role-legend-symbol" pointer-events="none"><path transform="translate(6,6)" d="M-5,0L5,0" stroke="#bab0ac" stroke-width="1.5" opacity="1"/></g><g class="mark-text role-legend-label" pointer-events="none"><text text-anchor="start" transform="translate(16,9)" font-family="Liberation Mono" font-size="10px" fill="#000" opacity="1">allure-rs-2-2023</text></g></g><path class="foreground" aria-hidden="true" d="" pointer-events="none" display="none"/></g><g transform="translate(0,130)"><path class="background" aria-hidden="true" d="M0,0h256v11h-256Z" pointer-events="none" opacity="1"/><g><g class="mark-symbol role-legend-symbol" pointer-events="none"><path transform="translate(6,6)" d="M-5,0L5,0" stroke="#4c78a8" stroke-width="1.5" opacity="1"/></g><g class="mark-text role-legend-label" pointer-events="none"><text text-anchor="start" transform="translate(16,9)" font-family="Liberation Mono" font-size="10px" fill="#000" opacity="1">escape-city-disc-1-2024</text></g></g><path class="foreground" aria-hidden="true" d="" pointer-events="none" display="none"/></g><g transform="translate(0,143)"><path class="background" aria-hidden="true" d="M0,0h256v11h-256Z" pointer-events="none" opacity="1"/><g><g class="mark-symbol role-legend-symbol" pointer-events="none"><path transform="translate(6,6)" d="M-5,0L5,0" stroke="#f58518" stroke-width="1.5" opacity="1"/></g><g class="mark-text role-legend-label" pointer-events="none"><text text-anchor="start" transform="translate(16,9)" font-family="Liberation Mono" font-size="10px" fill="#000" opacity="1">sdrbike-escape-1-city-disc</text></g></g><path class="foreground" aria-hidden="true" d="" pointer-events="none" display="none"/></g><g transform="translate(0,156)"><path class="background" aria-hidden="true" d="M0,0h256v11h-256Z" pointer-events="none" opacity="1"/><g><g class="mark-symbol role-legend-symbol" pointer-events="none"><path transform="translate(6,6)" d="M-5,0L5,0" stroke="#e45756" stroke-width="1.5" opacity="1"/></g><g class="mark-text role-legend-label" pointer-events="none"><text text-anchor="start" transform="translate(16,9)" font-family="Liberation Mono" font-size="10px" fill="#000" opacity="1">roam-disc-2-2024</text></g></g><path class="foreground" aria-hidden="true" d="" pointer-events="none" display="none"/></g><g transform="translate(0,169)"><path class="background" aria-hidden="true" d="M0,0h256v11h-256Z" pointer-events="none" opacity="1"/><g><g class="mark-symbol role-legend-symbol" pointer-events="none"><path transform="translate(6,6)" d="M-5,0L5,0" stroke="#72b7b2" stroke-width="1.5" opacity="1"/></g><g class="mark-text role-legend-label" pointer-events="none"><text text-anchor="start" transform="translate(16,9)" font-family="Liberation Mono" font-size="10px" fill="#000" opacity="1">rove-2</text></g></g><path class="foreground" aria-hidden="true" d="" pointer-events="none" display="none"/></g><g transform="translate(0,182)"><path class="background" aria-hidden="true" d="M0,0h256v11h-256Z" pointer-events="none" opacity="1"/><g><g class="mark-symbol role-legend-symbol" pointer-events="none"><path transform="translate(6,6)" d="M-5,0L5,0" stroke="#54a24b" stroke-width="1.5" opacity="1"/></g><g class="mark-text role-legend-label" pointer-events="none"><text text-anchor="start" transform="translate(16,9)" font-family="Liberation Mono" font-size="10px" fill="#000" opacity="1">allure-rs-2-2022</text></g></g><path class="foreground" aria-hidden="true" d="" pointer-events="none" display="none"/></g><g transform="translate(0,195)"><path class="background" aria-hidden="true" d="M0,0h256v11h-256Z" pointer-events="none" opacity="1"/><g><g class="mark-symbol role-legend-symbol" pointer-events="none"><path transform="translate(6,6)" d="M-5,0L5,0" stroke="#eeca3b" stroke-width="1.5" opacity="1"/></g><g class="mark-text role-legend-label" pointer-events="none"><text text-anchor="start" transform="translate(16,9)" font-family="Liberation Mono" font-size="10px" fill="#000" opacity="1">allure-rs-2-2024</text></g></g><path class="foreground" aria-hidden="true" d="" pointer-events="none" display="none"/></g></g></g><path class="foreground" aria-hidden="true" d="" pointer-events="none" display="none"/></g></g><g class="mark-text role-legend-title" pointer-events="none"><text text-anchor="start" transform="translate(0,9)" font-family="Liberation Mono" font-size="11px" font-weight="bold" fill="#000" opacity="1">identifier</text></g></g><path class="foreground" aria-hidden="true" d="" pointer-events="none" display="none"/></g></g></g><path class="foreground" aria-hidden="true" d="" display="none"/></g></g></g></svg>