<svg xmlns="http://www.w3.org/2000/svg" xmlns:xlink="http://www.w3.org/1999/xlink" version="1.1" class="marks" width="548" height="244" viewBox="0 0 548 244"><rect width="548" height="244" fill="white"/><g fill="none" stroke-miterlimit="10" transform="translate(67,7)"><g class="mark-group role-frame root" role="graphics-object" aria-roledescription="group mark container"><g transform="translate(0,0)"><path class="background" aria-hidden="true" d="M0.5,0.5h200v200h-200Z" stroke="#ddd"/><g><g class="mark-group role-axis" aria-hidden="true"><g transform="translate(0.5,200.5)"><path class="background" aria-hidden="true" d="M0,0h0v0h0Z" pointer-events="none"/><g><g class="mark-rule role-axis-grid" pointer-events="none"><line transform="translate(13,-200)" x2="0" y2="200" stroke="#ddd" stroke-width="1" opacity="1"/><line transform="translate(47,-200)" x2="0" y2="200" stroke="#ddd" stroke-width="1" opacity="1"/><line transform="translate(81,-200)" x2="0" y2="200" stroke="#ddd" stroke-width="1" opacity="1"/><line transform="translate(116,-200)" x2="0" y2="200" stroke="#ddd" stroke-width="1" opacity="1"/><line transform="translate(150,-200)" x2="0" y2="200" stroke="#ddd" stroke-width="1" opacity="1"/><line transform="translate(184,-200)" x2="0" y2="200" stroke="#ddd" stroke-width="1" opacity="1"/></g></g><path class="foreground" aria-hidden="true" d="" pointer-events="none" display="none"/></g></g><g class="mark-group role-axis" aria-hidden="true"><g transform="translate(0.5,0.5)"><path class="background" aria-hidden="true" d="M0,0h0v0h0Z" pointer-events="none"/><g><g class="mark-rule role-axis-grid" pointer-events="none"><line transform="translate(0,200)" x2="200" y2="0" stroke="#ddd" stroke-width="1" opacity="1"/><line transform="translate(0,144)" x2="200" y2="0" stroke="#ddd" stroke-width="1" opacity="1"/><line transform="translate(0,89)" x2="200" y2="0" stroke="#ddd" stroke-width="1" opacity="1"/><line transform="translate(0,33)" x2="200" y2="0" stroke="#ddd" stroke-width="1" opacity="1"/></g></g><path class="foreground" aria-hidden="true" d="" pointer-events="none" display="none"/></g></g><g class="mark-group role-axis" role="graphics-symbol" aria-roledescription="axis" aria-label="X-axis titled 'Time' for a time scale with values from Thursday, 14 August 2025, 8:34:48 AM to Wednesday, 24 September 2025, 4:47:41 AM"><g transform="translate(0.5,200.5)"><path class="background" aria-hidden="true" d="M0,0h0v0h0Z" pointer-events="none"/><g><g class="mark-rule role-axis-tick" pointer-events="none"><line transform="translate(13,0)" x2="0" y2="5" stroke="#888" stroke-width="1" opacity="1"/><line transform="translate(47,0)" x2="0" y2="5" stroke="#888" stroke-width="1" opacity="1"/><line transform="translate(81,0)" x2="0" y2="5" stroke="#888" stroke-width="1" opacity="1"/><line transform="translate(116,0)" x2="0" y2="5" stroke="#888" stroke-width="1" opacity="1"/><line transform="translate(150,0)" x2="0" y2="5" stroke="#888" stroke-width="1" opacity="1"/><line transform="translate(184,0)" x2="0" y2="5" stroke="#888" stroke-width="1" opacity="1"/></g><g class="mark-text role-axis-label" pointer-events="none"><text text-anchor="middle" transform="translate(12.939978539504665,15)" font-family="Liberation Mono" font-size="10px" fill="#000" opacity="1">Aug 17</text><text text-anchor="middle" transform="translate(47.218180739717894,15)" font-family="Liberation Mono" font-size="10px" fill="#000" opacity="0">Aug 24</text><text text-anchor="middle" transform="translate(81.49638293993112,15)" font-family="Liberation Mono" font-size="10px" fill="#000" opacity="1">Aug 31</text><text text-anchor="middle" transform="translate(115.77458514014435,15)" font-family="Liberation Mono" font-size="10px" fill="#000" opacity="0">Sep 07</text><text text-anchor="middle" transform="translate(150.05278734035758,15)" font-family="Liberation Mono" font-size="10px" fill="#000" opacity="1">Sep 14</text><text text-anchor="middle" transform="translate(184.3309895405708,15)" font-family="Liberation Mono" font-size="10px" fill="#000" opacity="0">Sep 21</text></g><g class="mark-rule role-axis-domain" pointer-events="none"><line transform="translate(0,0)" x2="200" y2="0" stroke="#888" stroke-width="1" opacity="1"/></g><g class="mark-text role-axis-title" pointer-events="none"><text text-anchor="middle" transform="translate(100,30)" font-family="Liberation Mono" font-size="11px" font-weight="bold" fill="#000" opacity="1">Time</text></g></g><path class="foreground" aria-hidden="true" d="" pointer-events="none" display="none"/></g></g><g class="mark-group role-axis" role="graphics-symbol" aria-roledescription="axis" aria-label="Y-axis titled 'Price' for a linear scale with values from 0 to 1,800"><g transform="translate(0.5,0.5)"><path class="background" aria-hidden="true" d="M0,0h0v0h0Z" pointer-events="none"/><g><g class="mark-rule role-axis-tick" pointer-events="none"><line transform="translate(0,200)" x2="-5" y2="0" stroke="#888" stroke-width="1" opacity="1"/><line transform="translate(0,144)" x2="-5" y2="0" stroke="#888" stroke-width="1" opacity="1"/><line transform="translate(0,89)" x2="-5" y2="0" stroke="#888" stroke-width="1" opacity="1"/><line transform="translate(0,33)" x2="-5" y2="0" stroke="#888" stroke-width="1" opacity="1"/></g><g class="mark-text role-axis-label" pointer-events="none"><text text-anchor="end" transform="translate(-7,203)" font-family="Liberation Mono" font-size="10px" fill="#000" opacity="1">0</text><text text-anchor="end" transform="translate(-7,147.44444444444443)" font-family="Liberation Mono" font-size="10px" fill="#000" opacity="1">500</text><text text-anchor="end" transform="translate(-7,91.88888888888889)" font-family="Liberation Mono" font-size="10px" fill="#000" opacity="1">1,000</text><text text-anchor="end" transform="translate(-7,36.33333333333333)" font-family="Liberation Mono" font-size="10px" fill="#000" opacity="1">1,500</text></g><g class="mark-rule role-axis-domain" pointer-events="none"><line transform="translate(0,200)" x2="0" y2="-200" stroke="#888" stroke-width="1" opacity="1"/></g><g class="mark-text role-axis-title" pointer-events="none"><text text-anchor="middle" transform="translate(-51,100) rotate(-90) translate(0,-2)" font-family="Liberation Mono" font-size="11px" font-weight="bold" fill="#000" opacity="1">Price</text></g></g><path class="foreground" aria-hidden="true" d="" pointer-events="none" display="none"/></g></g><g class="mark-group role-scope pathgroup" role="graphics-object" aria-roledescription="group mark container"><g transform="translate(0,0)"><path class="background" aria-hidden="true" d="M0,0h200v200h-200Z"/><g><g class="mark-line role-mark marks" role="graphics-object" aria-roledescription="line mark container"><path aria-label="Time: Aug 14, 2025; Price: 899; identifier: escape-city-disc-1-2024" role="graphics-symbol" aria-roledescription="line mark" d="M0,100.111L0.041,100.111L0.073,100.111L0.976,100.111L1.693,100.111L2.498,100.111L4.15,100.111L4.961,100.111L5.856,100.111L6.591,100.111L7.392,100.111L9.031,100.111L9.851,100.111L10.721,100.111L11.478,100.111L12.281,100.111L13.947,100.111L14.747,100.111L15.62,100.111L16.379,100.111L17.184,100.111L18.857,100.111L19.661,100.111L20.564,100.111L20.88,100.111L21.291,100.111L22.077,100.111L23.717,100.111L24.546,100.111L25.416,100.111L26.175,100.111L26.972,100.111L28.616,100.111L29.436,100.111L30.342,100.111L30.708,100.111L31.07,100.111L31.874,100.111L33.51,100.111L34.337,100.111L35.211,100.111L35.971,100.111L36.768,100.111L38.408,100.111L39.233,100.111L40.106,100.111L40.862,100.111L41.663,100.111L43.301,100.111L44.122,100.111L44.987,100.111L45.746,100.111L46.555,100.111L48.204,100.111L49.015,100.111L49.887,100.111L50.649,100.111L51.453,100.111L53.108,100.111L53.934,100.111L54.827,100.111L55.558,100.111L56.356,100.111L57.996,100.111L58.828,100.111L60.451,100.111L61.248,100.111L62.887,100.111L63.715,100.111L64.036,100.111L64.587,100.111L65.133,100.111L65.347,100.111L66.148,100.111L67.783,100.111L68.613,100.111L69.486,100.111L70.243,100.111L71.043,100.111L72.68,100.111L73.507,100.111L74.377,100.111L75.138,100.111L75.937,100.111L77.572,100.111L78.392,100.111L79.259,100.111L80.023,100.111L80.792,100.111L80.831,100.111L82.471,100.111L82.994,100.111L83.287,100.111L84.158,100.111L84.922,100.111L85.729,100.111L87.383,100.111L88.206,100.111L89.075,100.111L89.825,100.111L90.625,100.111L92.272,100.111L93.1,100.111L93.975,100.111L94.725,100.111L95.525,100.111L97.163,100.111L97.989,100.111L98.861,100.111L99.62,100.111L100.421,100.111L102.058,100.111L102.888,100.111L103.754,100.111L104.52,100.111L105.316,100.111L106.957,100.111L107.784,100.111L108.653,100.111L109.408,100.111L110.215,100.111L111.849,100.111L112.269,100.111L112.666,100.111L113.53,100.111L114.296,100.111L115.109,100.111L116.744,100.111L117.562,100.111L118.43,100.111L119.194,100.111L120.006,100.111L121.649,100.111L122.482,100.111L123.356,100.111L124.108,100.111L124.91,100.111L126.544,100.111L127.377,100.111L128.28,100.111L129.008,100.111L129.801,100.111L131.434,100.111L132.269,100.111L133.137,100.111L133.897,100.111L134.7,100.111L136.338,100.111L137.164,100.111L138.032,100.111L138.784,100.111L139.593,100.111L141.231,100.111L142.059,100.111L142.927,100.111L143.683,100.111L144.49,100.111L146.125,100.111L146.945,100.111L147.809,100.111L148.571,100.111L149.387,100.111L151.023,100.111L151.842,100.111L152.702,100.111L153.467,100.111L154.284,100.111L155.928,100.111L156.754,100.111L157.628,100.111L158.383,100.111L159.183,100.111L160.821,100.111L161.655,100.111L162.525,100.111L163.278,100.111L164.082,100.111L165.72,100.111L166.548,100.111L167.421,100.111L168.176,100.111L168.977,100.111L170.616,100.111L171.443,100.111L172.317,100.111L173.07,100.111L173.875,100.111L175.513,100.111L176.34,100.111L177.212,100.111L177.97,100.111L178.769,100.111L180.406,100.111L181.228,100.111L182.094,100.111L182.852,100.111L183.664,100.111L185.304,100.111L186.121,100.111L186.989,100.111L187.753,100.111L188.563,100.111L190.204,100.111L191.038,100.111L191.909,100.111L192.653,100.111L193.465,100.111L195.099,100.111L195.931,100.111L196.802,100.111L197.561,100.111L198.361,100.111L199.998,100.111" stroke="#4c78a8" stroke-width="2"/></g></g><path class="foreground" aria-hidden="true" d="" display="none"/></g><g transform="translate(0,0)"><path class="background" aria-hidden="true" d="M0,0h200v200h-200Z"/><g><g class="mark-line role-mark marks" role="graphics-object" aria-roledescription="line mark container"><path aria-label="Time: Aug 14, 2025; Price: 999; identifier: roam-2" role="graphics-symbol" aria-roledescription="line mark" d="M0,89L0.041,89L0.073,89L0.976,89L1.693,89L2.498,89L4.15,89L4.961,89L5.856,89L6.591,89L7.392,89L9.031,89L9.852,89L10.721,89L11.478,89L12.289,89L13.947,89L14.747,89L15.62,89L16.379,89L17.184,89L18.857,89L19.662,89L20.564,89L20.88,89L21.291,89L22.077,89L23.717,89L24.546,89L25.416,89L26.175,89L26.972,89L28.616,89L29.437,89L30.342,89L30.708,89L31.071,89L31.874,89L33.51,89L34.337,89L35.211,89L35.971,89L36.769,89L38.408,89L39.233,89L40.106,89L40.863,89L41.663,89L43.301,89L44.122,89L44.988,89L45.747,89L46.555,89L48.204,89L49.015,89L49.887,89L50.65,89L51.453,89L53.108,89L53.934,89L54.828,89L55.559,89L56.356,89L57.997,89L58.828,89L60.451,89L61.248,89L62.887,89L63.715,89L64.036,89L64.587,89L65.133,89L65.347,89L66.148,89L67.783,89L68.614,89L69.486,89L70.243,89L71.043,89L72.681,89L73.507,89L74.377,89L75.138,89L75.937,89L77.572,89L78.393,89L79.259,89L80.023,89L80.793,89L80.831,89L82.471,89L82.994,89L83.287,89L84.158,89L84.922,89L85.73,89L87.383,89L88.207,89L89.075,89L89.825,89L90.625,89L92.272,89L93.1,89L93.975,89L94.726,89L95.526,89L97.163,89L97.989,89L98.862,89L99.62,89L100.421,89L102.059,89L102.888,89L103.754,89L104.52,89L105.317,89L106.958,89L107.784,89L108.654,89L109.408,89L110.215,89L111.849,89L112.269,89L112.666,89L113.53,89L114.297,89L115.109,89L116.744,89L117.562,89L118.43,89L119.194,89L120.006,89L121.65,89L122.482,89L123.356,89L124.108,89L124.91,89L126.545,89L127.378,89L128.28,89L129.008,89L129.801,89L131.435,89L132.27,89L133.138,89L133.897,89L134.7,89L136.338,89L137.165,89L138.033,89L138.785,89L139.593,89L141.231,89L142.06,89L142.927,89L143.684,89L144.49,89L146.125,89L146.945,89L147.809,89L148.571,89L149.387,89L151.024,89L151.842,89L152.703,89L153.467,89L154.284,89L155.928,89L156.754,89L157.629,89L158.384,89L159.184,89L160.821,89L161.655,89L162.525,89L163.278,89L164.082,89L165.72,89L166.548,89L167.422,89L168.176,89L168.978,89L170.616,89L171.443,89L172.317,89L173.07,89L173.875,89L175.513,89L176.34,89L177.212,89L177.97,89L178.769,89L180.406,89L181.228,89L182.094,89L182.852,89L183.665,89L185.305,89L186.121,89L186.99,89L187.753,89L188.564,89L190.204,89L191.038,89L191.91,89L192.653,89L193.465,89L195.1,89L195.931,89L196.802,89L197.561,89L198.361,89L199.998,89" stroke="#ff9da6" stroke-width="2"/></g></g><path class="foreground" aria-hidden="true" d="" display="none"/></g><g transform="translate(0,0)"><path class="background" aria-hidden="true" d="M0,0h200v200h-200Z"/><g><g class="mark-line role-mark marks" role="graphics-object" aria-roledescription="line mark container"><path aria-label="Time: Aug 14, 2025; Price: 999; identifier: fastroad-sl-3-2022" role="graphics-symbol" aria-roledescription="line mark" d="M0,89L0.041,89L0.073,89L0.976,89L1.693,89L2.498,89L4.15,89L4.961,89L5.857,89L6.591,89L7.392,89L9.031,89L9.852,89L10.721,89L11.478,89L12.289,89L13.947,89L14.747,89L15.62,89L16.379,89L17.185,89L18.858,89L19.662,89L20.564,89L20.88,89L21.292,89L22.077,89L23.717,89L24.546,89L25.416,89L26.176,89L26.972,89L28.616,89L29.437,89L30.342,89L30.708,89L31.071,89L31.875,89L33.51,89L34.337,89L35.211,89L35.971,89L36.769,89L38.408,89L39.233,89L40.106,89L40.863,89L41.663,89L43.301,89L44.122,89L44.988,89L45.747,89L46.555,89L48.204,89L49.016,89L49.887,89L50.65,89L51.453,89L53.108,89L53.934,89L54.828,89L55.559,89L56.356,89L57.997,89L58.828,89L60.451,89L61.248,89L62.888,89L63.715,89L64.036,89L64.587,89L65.133,89L65.347,89L66.148,89L67.784,89L68.614,89L69.486,89L70.243,89L71.043,89L72.681,89L73.507,89L74.377,89L75.138,89L75.937,89L77.572,89L78.393,89L79.259,89L80.023,89L80.793,89L80.831,89L82.471,89L82.994,89L83.287,89L84.158,89L84.923,89L85.73,89L87.384,89L88.207,89L89.076,89L89.826,89L90.626,89L92.273,89L93.101,89L93.976,89L94.726,89L95.526,89L97.163,89L97.99,89L98.862,89L99.62,89L100.421,89L102.059,89L102.888,89L103.754,89L104.52,89L105.317,89L106.958,89L107.784,89L108.654,89L109.408,89L110.215,89L111.849,89L112.269,89L112.666,89L113.53,89L114.297,89L115.109,89L116.745,89L117.563,89L118.43,89L119.194,89L120.006,89L121.65,89L122.483,89L123.356,89L124.108,89L124.91,89L126.545,89L127.378,89L128.28,89L129.008,89L129.801,89L131.435,89L132.27,89L133.138,89L133.897,89L134.7,89L136.338,89L137.165,89L138.033,89L138.785,89L139.593,89L141.231,89L142.06,89L142.927,89L143.684,89L144.49,89L146.125,89L146.945,89L147.809,89L148.571,89L149.387,89L151.024,89L151.842,89L152.703,89L153.467,89L154.284,89L155.929,89L156.754,89L157.629,89L158.384,89L159.185,89L160.821,89L161.655,89L162.525,89L163.278,89L164.082,89L165.72,89L166.548,89L167.422,89L168.176,89L168.978,89L170.616,89L171.443,89L172.317,89L173.07,89L173.875,89L175.513,89L176.34,89L177.212,89L177.97,89L178.769,89L180.406,89L181.228,89L182.094,89L182.852,89L183.665,89L185.305,89L186.121,89L186.99,89L187.753,89L188.564,89L190.205,89L191.038,89L191.91,89L192.653,89L193.465,89L195.1,89L195.931,89L196.802,89L197.561,89L198.361,89L199.998,89" stroke="#9d755d" stroke-width="2"/></g></g><path class="foreground" aria-hidden="true" d="" display="none"/></g><g transform="translate(0,0)"><path class="background" aria-hidden="true" d="M0,0h200v200h-200Z"/><g><g class="mark-line role-mark marks" role="graphics-object" aria-roledescription="line mark container"><path aria-label="Time: Aug 14, 2025; Price: 1199; identifier: fastroad-ar-2" role="graphics-symbol" aria-roledescription="line mark" d="M0,66.778L0.041,66.778L0.073,66.778L0.976,66.778L1.694,66.778L2.498,66.778L4.15,66.778L4.961,66.778L5.857,66.778L6.591,66.778L7.392,66.778L9.031,66.778L9.852,66.778L10.721,66.778L11.479,66.778L12.293,66.778L13.947,66.778L14.747,66.778L15.62,66.778L16.379,66.778L17.185,66.778L18.858,66.778L19.662,66.778L20.564,66.778L20.88,66.778L21.292,66.778L22.077,66.778L23.717,66.778L24.546,66.778L25.416,66.778L26.176,66.778L26.972,66.778L28.616,66.778L29.437,66.778L30.342,66.778L30.708,66.778L31.071,66.778L31.875,66.778L33.51,66.778L34.337,66.778L35.211,66.778L35.971,66.778L36.769,66.778L38.408,66.778L39.233,66.778L40.106,66.778L40.863,66.778L41.663,66.778L43.301,66.778L44.122,66.778L44.988,66.778L45.747,66.778L46.555,66.778L48.204,66.778L49.016,66.778L49.887,66.778L50.65,66.778L51.454,66.778L53.108,66.778L53.934,66.778L54.828,66.778L55.559,66.778L56.356,66.778L57.997,66.778L58.828,66.778L60.451,66.778L61.248,66.778L62.888,66.778L63.715,66.778L64.037,66.778L64.587,66.778L65.133,66.778L65.347,66.778L66.148,66.778L67.784,66.778L68.614,66.778L69.486,66.778L70.243,66.778L71.043,66.778L72.681,66.778L73.508,66.778L74.377,66.778L75.138,66.778L75.937,66.778L77.572,66.778L78.393,66.778L79.259,66.778L80.023,66.778L80.793,66.778L80.831,66.778L82.471,66.778L82.994,66.778L83.288,66.778L84.158,66.778L84.923,66.778L85.73,66.778L87.384,66.778L88.207,66.778L89.076,66.778L89.826,66.778L90.626,66.778L92.273,66.778L93.101,66.778L93.976,66.778L94.726,66.778L95.526,66.778L97.163,66.778L97.99,66.778L98.862,66.778L99.62,66.778L100.421,66.778L102.059,66.778L102.888,66.778L103.754,66.778L104.521,66.778L105.317,66.778L106.958,66.778L107.784,66.778L108.654,66.778L109.408,66.778L110.215,66.778L111.849,66.778L112.269,66.778L112.666,66.778L113.53,66.778L114.297,66.778L115.11,66.778L116.745,66.778L117.563,66.778L118.43,66.778L119.194,66.778L120.006,66.778L121.65,66.778L122.483,66.778L123.356,66.778L124.108,66.778L124.91,66.778L126.545,66.778L127.378,66.778L128.28,66.778L129.008,66.778L129.802,66.778L131.435,66.778L132.27,66.778L133.138,66.778L133.897,66.778L134.701,66.778L136.338,66.778L137.165,66.778L138.033,66.778L138.785,66.778L139.593,66.778L141.231,66.778L142.06,66.778L142.927,66.778L143.684,66.778L144.49,66.778L146.125,66.778L146.945,66.778L147.81,66.778L148.571,66.778L149.387,66.778L151.024,66.778L151.842,66.778L152.703,66.778L153.467,66.778L154.284,66.778L155.929,66.778L156.754,66.778L157.63,66.778L158.384,66.778L159.185,66.778L160.821,66.778L161.655,66.778L162.525,66.778L163.278,66.778L164.082,66.778L165.72,66.778L166.548,66.778L167.422,66.778L168.177,66.778L168.978,66.778L170.616,66.778L171.444,66.778L172.317,66.778L173.071,66.778L173.876,66.778L175.513,66.778L176.34,66.778L177.212,66.778L177.97,66.778L178.769,66.778L180.406,66.778L181.228,66.778L182.094,66.778L182.852,66.778L183.665,66.778L185.305,66.778L186.121,66.778L186.99,66.778L187.753,66.778L188.564,66.778L190.205,66.778L191.038,66.778L191.91,66.778L192.653,66.778L193.465,66.778L195.1,66.778L195.931,66.778L196.802,66.778L197.561,66.778L198.361,66.778L199.998,66.778" stroke="#54a24b" stroke-width="2"/></g></g><path class="foreground" aria-hidden="true" d="" display="none"/></g><g transform="translate(0,0)"><path class="background" aria-hidden="true" d="M0,0h200v200h-200Z"/><g><g class="mark-line role-mark marks" role="graphics-object" aria-roledescription="line mark container"><path aria-label="Time: Aug 18, 2025; Price: 899; identifier: sdrbike-escape-1-city-disc" role="graphics-symbol" aria-roledescription="line mark" d="M20.881,100.111L21.292,100.111L22.077,100.111L23.718,100.111L24.546,100.111L25.416,100.111L26.176,100.111L26.972,100.111L28.616,100.111L29.437,100.111L30.342,100.111L30.709,100.111L31.071,100.111L31.875,100.111L33.51,100.111L34.338,100.111L35.211,100.111L35.971,100.111L36.769,100.111L38.408,100.111L39.233,100.111L40.106,100.111L40.863,100.111L41.663,100.111L43.302,100.111L44.122,100.111L44.988,100.111L45.747,100.111L46.555,100.111L48.204,100.111L49.016,100.111L49.888,100.111L50.65,100.111L51.454,100.111L53.108,100.111L53.934,100.111L54.828,100.111L55.559,100.111L56.356,100.111L57.997,100.111L58.828,100.111L60.451,100.111L61.248,100.111L62.888,100.111L63.715,100.111L64.037,100.111L64.587,100.111L65.133,100.111L65.347,100.111L66.148,100.111L67.784,100.111L68.614,100.111L69.487,100.111L70.243,100.111L71.043,100.111L72.681,100.111L73.508,100.111L74.378,100.111L75.138,100.111L75.938,100.111L77.572,100.111L78.393,100.111L79.259,100.111L80.023,100.111L80.793,100.111L80.831,100.111L82.471,100.111L82.994,100.111L83.288,100.111L84.159,100.111L84.923,100.111L85.73,100.111L87.384,100.111L88.207,100.111L89.076,100.111L89.826,100.111L90.626,100.111L92.273,100.111L93.101,100.111L93.976,100.111L94.726,100.111L95.526,100.111L97.163,100.111L97.99,100.111L98.862,100.111L99.62,100.111L100.421,100.111L102.059,100.111L102.889,100.111L103.754,100.111L104.521,100.111L105.317,100.111L106.958,100.111L107.784,100.111L108.654,100.111L109.408,100.111L110.215,100.111L111.849,100.111L112.27,100.111L112.667,100.111L113.53,100.111L114.297,100.111L115.11,100.111L116.745,100.111L117.563,100.111L118.43,100.111L119.194,100.111L120.006,100.111L121.65,100.111L122.483,100.111L123.356,100.111L124.109,100.111L124.911,100.111L126.545,100.111L127.378,100.111L128.281,100.111L129.009,100.111L129.802,100.111L131.435,100.111L132.27,100.111L133.138,100.111L133.898,100.111L134.701,100.111L136.338,100.111L137.165,100.111L138.033,100.111L138.785,100.111L139.593,100.111L141.231,100.111L142.06,100.111L142.927,100.111L143.684,100.111L144.49,100.111L146.125,100.111L146.945,100.111L147.81,100.111L148.572,100.111L149.388,100.111L151.024,100.111L151.842,100.111L152.703,100.111L153.467,100.111L154.284,100.111L155.929,100.111L156.754,100.111L157.63,100.111L158.384,100.111L159.185,100.111L160.822,100.111L161.655,100.111L162.525,100.111L163.279,100.111L164.082,100.111L165.72,100.111L166.548,100.111L167.422,100.111L168.177,100.111L168.978,100.111L170.616,100.111L171.444,100.111L172.318,100.111L173.071,100.111L173.876,100.111L175.513,100.111L176.34,100.111L177.213,100.111L177.97,100.111L178.769,100.111L180.407,100.111L181.229,100.111L182.095,100.111L182.852,100.111L183.665,100.111L185.305,100.111L186.121,100.111L186.99,100.111L187.753,100.111L188.564,100.111L190.205,100.111L191.038,100.111L191.91,100.111L192.653,100.111L193.465,100.111L195.1,100.111L195.931,100.111L196.803,100.111L197.561,100.111L198.361,100.111L199.999,100.111" stroke="#f58518" stroke-width="2"/></g></g><path class="foreground" aria-hidden="true" d="" display="none"/></g><g transform="translate(0,0)"><path class="background" aria-hidden="true" d="M0,0h200v200h-200Z"/><g><g class="mark-line role-mark marks" role="graphics-object" aria-roledescription="line mark container"><path aria-label="Time: Aug 20, 2025; Price: 899; identifier: roam-disc-2-2024" role="graphics-symbol" aria-roledescription="line mark" d="M30.708,100.111L31.071,100.111L31.874,100.111L33.51,100.111L34.337,100.111L35.211,100.111L35.971,100.111L36.769,100.111L38.408,100.111L39.233,100.111L40.106,100.111L40.862,100.111L41.663,100.111L43.301,100.111L44.122,100.111L44.987,100.111L45.746,100.111L46.555,100.111L48.204,100.111L49.015,100.111L49.887,100.111L50.649,100.111L51.453,100.111L53.108,100.111L53.934,100.111L54.827,100.111L55.559,100.111L56.356,100.111L57.996,100.111L58.828,100.111L60.451,100.111L61.248,100.111L62.887,100.111L63.715,100.111L64.036,100.111L64.587,100.111L65.133,100.111L65.347,100.111L66.148,100.111L67.783,100.111L68.614,100.111L69.486,100.111L70.243,100.111L71.043,100.111L72.681,100.111L73.507,100.111L74.377,100.111L75.138,100.111L75.937,100.111L77.572,100.111L78.392,100.111L79.259,100.111L80.023,100.111L80.793,100.111L80.831,100.111L82.471,100.111L82.994,100.111L83.287,100.111L84.158,100.111L84.922,100.111L85.73,100.111L87.383,100.111L88.207,100.111L89.075,100.111L89.825,100.111L90.625,100.111L92.272,100.111L93.1,100.111L93.975,100.111L94.725,100.111L95.525,100.111L97.163,100.111L97.989,100.111L98.862,100.111L99.62,100.111L100.421,100.111L102.058,100.111L102.888,100.111L103.754,100.111L104.52,100.111L105.316,100.111L106.957,100.111L107.784,100.111L108.654,100.111L109.408,100.111L110.215,100.111L111.849,100.111L112.269,100.111L112.666,100.111L113.53,100.111L114.297,100.111L115.109,100.111L116.744,100.111L117.562,100.111L118.43,100.111L119.194,100.111L120.006,100.111L121.65,100.111L122.482,100.111L123.356,100.111L124.108,100.111L124.91,100.111L126.544,100.111L127.377,100.111L128.28,100.111L129.008,100.111L129.801,100.111L131.435,100.111L132.269,100.111L133.138,100.111L133.897,100.111L134.7,100.111L136.338,100.111L137.165,100.111L138.032,100.111L138.784,100.111L139.593,100.111L141.231,100.111L142.059,100.111L142.927,100.111L143.684,100.111L144.49,100.111L146.125,100.111L146.945,100.111L147.809,100.111L148.571,100.111L149.387,100.111L151.023,100.111L151.842,100.111L152.703,100.111L153.467,100.111L154.284,100.111L155.928,100.111L156.754,100.111L157.629,100.111L158.384,100.111L159.184,100.111L160.821,100.111L161.655,100.111L162.525,100.111L163.278,100.111L164.082,100.111L165.72,100.111L166.548,100.111L167.422,100.111L168.176,100.111L168.978,100.111L170.616,100.111L171.443,100.111L172.317,100.111L173.07,100.111L173.875,100.111L175.513,100.111L176.34,100.111L177.212,100.111L177.97,100.111L178.769,100.111L180.406,100.111L181.228,100.111L182.094,100.111L182.852,100.111L183.664,100.111L185.305,100.111L186.121,100.111L186.989,100.111L187.753,100.111L188.564,100.111L190.204,100.111L191.038,100.111L191.909,100.111L192.653,100.111L193.465,100.111L195.1,100.111L195.931,100.111L196.802,100.111L197.561,100.111L198.361,100.111L199.998,100.111" stroke="#e45756" stroke-width="2"/></g></g><path class="foreground" aria-hidden="true" d="" display="none"/></g><g transform="translate(0,0)"><path class="background" aria-hidden="true" d="M0,0h200v200h-200Z"/><g><g class="mark-line role-mark marks" role="graphics-object" aria-roledescription="line mark container"><path aria-label="Time: Aug 20, 2025; Price: 1199; identifier: thrive-2" role="graphics-symbol" aria-roledescription="line mark" d="M30.709,66.778L31.071,66.778L31.875,66.778L33.51,66.778L34.338,66.778L35.212,66.778L35.971,66.778L36.769,66.778L38.408,66.778L39.233,66.778L40.106,66.778L40.863,66.778L41.663,66.778L43.302,66.778L44.123,66.778L44.988,66.778L45.747,66.778L46.555,66.778L48.205,66.778L49.016,66.778L49.888,66.778L50.65,66.778L51.454,66.778L53.108,66.778L53.935,66.778L54.828,66.778L55.559,66.778L56.356,66.778L57.998,66.778L58.828,66.778L60.451,66.778L61.248,66.778L62.888,66.778L63.715,66.778L64.037,66.778L64.588,66.778L65.134,66.778L65.347,66.778L66.149,66.778L67.784,66.778L68.614,66.778L69.487,66.778L70.243,66.778L71.044,66.778L72.681,66.778L73.508,66.778L74.378,66.778L75.138,66.778L75.938,66.778L77.572,66.778L78.393,66.778L79.26,66.778L80.023,66.778L80.793,66.778L80.831,66.778L82.471,66.778L82.994,66.778L83.288,66.778L84.159,66.778L84.923,66.778L85.73,66.778L87.384,66.778L88.207,66.778L89.076,66.778L89.826,66.778L90.626,66.778L92.273,66.778L93.101,66.778L93.976,66.778L94.726,66.778L95.526,66.778L97.163,66.778L97.99,66.778L98.862,66.778L99.62,66.778L100.421,66.778L102.059,66.778L102.889,66.778L103.755,66.778L104.521,66.778L105.317,66.778L106.958,66.778L107.784,66.778L108.654,66.778L109.408,66.778L110.216,66.778L111.85,66.778L112.27,66.778L112.667,66.778L113.53,66.778L114.297,66.778L115.11,66.778L116.745,66.778L117.563,66.778L118.43,66.778L119.195,66.778L120.006,66.778L121.65,66.778L122.483,66.778L123.356,66.778L124.109,66.778L124.911,66.778L126.545,66.778L127.378,66.778L128.281,66.778L129.009,66.778L129.802,66.778L131.435,66.778L132.27,66.778L133.138,66.778L133.898,66.778L134.701,66.778L136.338,66.778L137.165,66.778L138.033,66.778L138.785,66.778L139.594,66.778L141.232,66.778L142.06,66.778L142.927,66.778L143.684,66.778L144.49,66.778L146.125,66.778L146.945,66.778L147.81,66.778L148.572,66.778L149.388,66.778L151.024,66.778L151.842,66.778L152.703,66.778L153.467,66.778L154.285,66.778L155.929,66.778L156.754,66.778L157.63,66.778L158.384,66.778L159.185,66.778L160.822,66.778L161.656,66.778L162.525,66.778L163.279,66.778L164.082,66.778L165.72,66.778L166.548,66.778L167.422,66.778L168.177,66.778L168.978,66.778L170.616,66.778L171.444,66.778L172.318,66.778L173.071,66.778L173.876,66.778L175.513,66.778L176.341,66.778L177.213,66.778L177.97,66.778L178.769,66.778L180.407,66.778L181.229,66.778L182.095,66.778L182.852,66.778L183.665,66.778L185.305,66.778L186.121,66.778L186.99,66.778L187.753,66.778L188.564,66.778L190.205,66.778L191.039,66.778L191.91,66.778L192.653,66.778L193.465,66.778L195.1,66.778L195.931,66.778L196.803,66.778L197.561,66.778L198.362,66.778L199.999,66.778" stroke="#eeca3b" stroke-width="2"/></g></g><path class="foreground" aria-hidden="true" d="" display="none"/></g><g transform="translate(0,0)"><path class="background" aria-hidden="true" d="M0,0h200v200h-200Z"/><g><g class="mark-line role-mark marks" role="graphics-object" aria-roledescription="line mark container"><path aria-label="Time: Aug 20, 2025; Price: 999; identifier: rove-2" role="graphics-symbol" aria-roledescription="line mark" d="M30.709,89L31.071,89L31.875,89L33.51,89L34.338,89L35.212,89L35.971,89L36.769,89L38.408,89L39.233,89L40.107,89L40.863,89L41.664,89L43.302,89L44.123,89L44.988,89L45.747,89L46.555,89L48.205,89L49.016,89L49.888,89L50.65,89L51.454,89L53.108,89L53.935,89L54.828,89L55.559,89L56.356,89L57.998,89L58.828,89L60.452,89L61.248,89L62.888,89L63.715,89L64.037,89L64.588,89L65.134,89L65.348,89L66.149,89L67.784,89L68.614,89L69.487,89L70.244,89L71.044,89L72.681,89L73.508,89L74.378,89L75.138,89L75.938,89L80.794,111.222L80.832,111.222L82.471,111.222L82.994,111.222L83.288,111.222L84.159,111.222L84.923,111.222L85.73,111.222L87.384,111.222L88.207,111.222L89.076,111.222L89.826,111.222L90.626,111.222L92.273,111.222L93.101,111.222L93.976,111.222L94.726,111.222L95.526,111.222L97.164,111.222L97.99,111.222L98.862,111.222L99.621,111.222L100.421,111.222L102.059,111.222L102.889,111.222L103.755,111.222L104.521,111.222L105.317,111.222L106.958,111.222L107.784,111.222L108.654,111.222L109.409,111.222L110.216,111.222L111.85,111.222L112.27,111.222L112.667,111.222L113.531,111.222L114.297,111.222L115.11,111.222L116.745,111.222L117.563,111.222L118.431,111.222L119.195,111.222L120.006,111.222L121.65,111.222L122.483,111.222L123.356,111.222L124.109,111.222L124.911,111.222L126.545,111.222L127.378,111.222L128.281,111.222L129.009,111.222L129.802,111.222L131.435,111.222L132.27,111.222L133.138,111.222L133.898,111.222L134.701,111.222L136.339,111.222L137.165,111.222L138.033,111.222L138.785,111.222L139.594,111.222L141.232,111.222L142.06,111.222L142.928,111.222L143.684,111.222L144.49,111.222L146.125,111.222L146.945,111.222L147.81,111.222L148.572,111.222L149.388,111.222L151.024,111.222L151.842,111.222L152.703,111.222L153.467,111.222L154.285,111.222L155.929,111.222L156.754,111.222L157.63,111.222L158.384,111.222L159.185,111.222L160.822,111.222L161.656,111.222L162.525,111.222L163.279,111.222L164.082,111.222L165.72,111.222L166.548,111.222L167.422,111.222L168.177,111.222L168.978,111.222L170.616,111.222L171.444,111.222L172.318,111.222L173.071,111.222L173.876,111.222L175.514,111.222L176.341,111.222L177.213,111.222L177.971,111.222L178.77,111.222L180.407,111.222L181.229,111.222L182.095,111.222L182.852,111.222L183.665,111.222L185.305,111.222L186.122,111.222L186.99,111.222L187.753,111.222L188.564,111.222L190.205,111.222L191.039,111.222L191.91,111.222L192.654,111.222L193.465,111.222L195.1,111.222L195.931,111.222L196.803,111.222L197.562,111.222L198.362,111.222L199.999,111.222" stroke="#72b7b2" stroke-width="2"/></g></g><path class="foreground" aria-hidden="true" d="" display="none"/></g><g transform="translate(0,0)"><path class="background" aria-hidden="true" d="M0,0h200v200h-200Z"/><g><g class="mark-line role-mark marks" role="graphics-object" aria-roledescription="line mark container"><path aria-label="Time: Aug 27, 2025; Price: 1199; identifier: allure-rs-1-2023" role="graphics-symbol" aria-roledescription="line mark" d="M64.038,66.778L64.588,66.778L65.134,66.778L65.348,66.778L66.149,66.778L67.784,66.778L68.615,66.778L69.487,66.778L70.244,66.778L71.044,66.778L72.681,66.778L73.508,66.778L74.378,66.778L75.139,66.778L75.938,66.778L77.573,66.778L78.393,66.778L79.26,66.778L80.024,66.778L80.794,66.778L80.832,66.778L82.472,66.778L82.995,66.778L83.288,66.778L84.159,66.778L84.923,66.778L85.73,66.778L87.384,66.778L88.207,66.778L89.076,66.778L89.826,66.778L90.626,66.778L92.273,66.778L93.101,66.778L93.976,66.778L94.726,66.778L95.526,66.778L97.164,66.778L97.99,66.778L98.862,66.778L99.621,66.778L100.421,66.778L102.059,66.778L102.889,66.778L103.755,66.778L104.521,66.778L105.317,66.778L106.958,66.778L107.785,66.778L108.654,66.778L109.409,66.778L110.216,66.778L111.85,66.778L112.27,66.778L112.667,66.778L113.531,66.778L114.297,66.778L115.11,66.778L116.745,66.778L117.563,66.778L118.431,66.778L119.195,66.778L120.007,66.778L121.651,66.778L122.483,66.778L123.357,66.778L124.109,66.778L124.911,66.778L126.545,66.778L127.378,66.778L128.281,66.778L129.009,66.778L129.802,66.778L131.435,66.778L132.27,66.778L133.138,66.778L133.898,66.778L134.701,66.778L136.339,66.778L137.165,66.778L138.033,66.778L138.785,66.778L139.594,66.778L141.232,66.778L142.06,66.778L142.928,66.778L143.684,66.778L144.49,66.778L146.126,66.778L146.945,66.778L147.81,66.778L148.572,66.778L149.388,66.778L151.024,66.778L151.843,66.778L152.703,66.778L153.467,66.778L154.285,66.778L155.929,66.778L156.755,66.778L157.63,66.778L158.384,66.778L159.185,66.778L160.822,66.778L161.656,66.778L162.525,66.778L163.279,66.778L164.083,66.778L165.721,66.778L166.548,66.778L167.423,66.778L168.177,66.778L168.978,66.778L170.617,66.778L171.444,66.778L172.318,66.778L173.071,66.778L173.876,66.778L175.514,66.778L176.341,66.778L177.213,66.778L177.971,66.778L178.77,66.778L180.407,66.778L181.229,66.778L182.095,66.778L182.852,66.778L183.665,66.778L185.306,66.778L186.122,66.778L186.99,66.778L187.753,66.778L188.564,66.778L190.205,66.778L191.039,66.778L191.91,66.778L192.654,66.778L193.465,66.778L195.1,66.778L195.932,66.778L196.803,66.778L197.562,66.778L198.362,66.778L199.999,66.778" stroke="#b279a2" stroke-width="2"/></g></g><path class="foreground" aria-hidden="true" d="" display="none"/></g><g transform="translate(0,0)"><path class="background" aria-hidden="true" d="M0,0h200v200h-200Z"/><g><g class="mark-line role-mark marks" role="graphics-object" aria-roledescription="line mark container"><path aria-label="Time: Aug 27, 2025; Price: 999; identifier: allure-rs-2-2022" role="graphics-symbol" aria-roledescription="line mark" d="M64.038,89L64.588,89L65.134,89L65.348,89L66.149,89L67.784,89L68.615,89L69.487,89L70.244,89L71.044,89L72.681,89L73.508,89L74.378,89L75.139,89L75.938,89L80.794,111.222L80.832,111.222L82.472,111.222L82.995,111.222L83.288,111.222L84.159,111.222L84.923,111.222L85.73,111.222L87.384,111.222L88.207,111.222L89.076,111.222L89.826,111.222L90.626,111.222L92.273,111.222L93.101,111.222L93.976,111.222L94.726,111.222L95.527,111.222L97.164,111.222L97.99,111.222L98.862,111.222L99.621,111.222L100.422,111.222L102.059,111.222L102.889,111.222L103.755,111.222L104.521,111.222L105.318,111.222L106.958,111.222L107.785,111.222L108.654,111.222L109.409,111.222L110.216,111.222L111.85,111.222L112.27,111.222L112.667,111.222L113.531,111.222L114.297,111.222L115.11,111.222L116.745,111.222L117.563,111.222L118.431,111.222L119.195,111.222L120.007,111.222L121.651,111.222L122.483,111.222L123.357,111.222L124.109,111.222L124.911,111.222L126.545,111.222L127.378,111.222L128.281,111.222L129.009,111.222L129.802,111.222L131.436,111.222L132.27,111.222L133.139,111.222L133.898,111.222L134.701,111.222L136.339,111.222L137.165,111.222L138.033,111.222L138.785,111.222L139.594,111.222L141.232,111.222L142.061,111.222L142.928,111.222L143.684,111.222L144.491,111.222L146.126,111.222L146.946,111.222L147.81,111.222L148.572,111.222L149.388,111.222L151.024,111.222L151.843,111.222L152.704,111.222L153.467,111.222L154.285,111.222L155.929,111.222L156.755,111.222L157.63,111.222L158.385,111.222L159.185,111.222L160.822,111.222L161.656,111.222L162.526,111.222L163.279,111.222L164.083,111.222L165.721,111.222L166.549,111.222L167.423,111.222L168.177,111.222L168.979,111.222L170.617,111.222L171.444,111.222L172.318,111.222L173.071,111.222L173.876,111.222L175.514,111.222L176.341,111.222L177.213,111.222L177.971,111.222L178.77,111.222L180.407,111.222L181.229,111.222L182.095,111.222L182.853,111.222L183.665,111.222L185.306,111.222L186.122,111.222L186.99,111.222L187.754,111.222L188.564,111.222L190.205,111.222L191.039,111.222L191.91,111.222L192.654,111.222L193.466,111.222L195.101,111.222L195.932,111.222L196.803,111.222L197.562,111.222L198.362,111.222L199.999,111.222" stroke="#54a24b" stroke-width="2"/></g></g><path class="foreground" aria-hidden="true" d="" display="none"/></g><g transform="translate(0,0)"><path class="background" aria-hidden="true" d="M0,0h200v200h-200Z"/><g><g class="mark-line role-mark marks" role="graphics-object" aria-roledescription="line mark container"><path aria-label="Time: Aug 27, 2025; Price: 949; identifier: allure-rs-2-2023" role="graphics-symbol" aria-roledescription="line mark" d="M64.038,94.556L64.588,94.556L65.134,94.556L65.348,94.556L66.149,94.556L67.784,94.556L68.615,94.556L69.487,94.556L70.244,94.556L71.044,94.556L72.682,94.556L73.508,94.556L74.378,94.556L75.139,94.556L75.938,94.556L77.573,94.556L78.394,94.556L79.26,94.556L80.024,94.556L80.794,94.556L80.832,94.556L82.472,94.556L82.995,94.556L83.288,94.556L84.159,94.556L84.923,94.556L85.73,94.556L87.384,94.556L88.207,94.556L89.076,94.556L89.827,94.556L90.626,94.556L92.274,94.556L93.101,94.556L93.977,94.556L94.726,94.556L95.527,94.556L97.164,94.556L97.99,94.556L98.863,94.556L99.621,94.556L100.422,94.556L102.06,94.556L102.889,94.556L103.755,94.556L104.521,94.556L105.318,94.556L106.958,94.556L107.785,94.556L108.655,94.556L109.409,94.556L110.216,94.556L111.85,94.556L112.27,94.556L112.667,94.556L113.531,94.556L114.298,94.556L115.11,94.556L116.745,94.556L117.564,94.556L118.431,94.556L119.195,94.556L120.007,94.556L121.651,94.556L122.484,94.556L123.357,94.556L124.109,94.556L124.911,94.556L126.546,94.556L127.378,94.556L128.281,94.556L129.009,94.556L129.802,94.556L131.436,94.556L132.271,94.556L133.139,94.556L133.898,94.556L134.702,94.556L136.339,94.556L137.166,94.556L138.033,94.556L138.786,94.556L139.594,94.556L141.232,94.556L142.061,94.556L142.928,94.556L143.685,94.556L144.491,94.556L146.126,94.556L146.946,94.556L147.81,94.556L148.572,94.556L149.388,94.556L151.025,94.556L151.843,94.556L152.704,94.556L153.468,94.556L154.285,94.556L155.929,94.556L156.755,94.556L157.63,94.556L158.385,94.556L159.185,94.556L160.822,94.556L161.656,94.556L162.526,94.556L163.279,94.556L164.083,94.556L165.721,94.556L166.549,94.556L167.423,94.556L168.177,94.556L168.979,94.556L170.617,94.556L171.444,94.556L172.318,94.556L173.071,94.556L173.876,94.556L175.514,94.556L176.341,94.556L177.213,94.556L177.971,94.556L178.77,94.556L180.407,94.556L181.229,94.556L182.095,94.556L182.853,94.556L183.665,94.556L185.306,94.556L186.122,94.556L186.991,94.556L187.754,94.556L188.565,94.556L190.205,94.556L191.039,94.556L191.91,94.556L192.654,94.556L193.466,94.556L195.101,94.556L195.932,94.556L196.803,94.556L197.562,94.556L198.362,94.556L199.999,94.556" stroke="#bab0ac" stroke-width="2"/></g></g><path class="foreground" aria-hidden="true" d="" display="none"/></g><g transform="translate(0,0)"><path class="background" aria-hidden="true" d="M0,0h200v200h-200Z"/><g><g class="mark-line role-mark marks" role="graphics-object" aria-roledescription="line mark container"><path aria-label="Time: Aug 27, 2025; Price: 999; identifier: allure-rs-2-2024" role="graphics-symbol" aria-roledescription="line mark" d="M64.039,89L64.588,89L65.134,89L65.348,89L66.149,89L67.785,89L68.615,89L69.487,89L70.244,89L71.044,89L72.682,89L73.508,89L74.378,89L75.139,89L75.938,89L80.794,111.222L80.832,111.222L82.472,111.222L82.995,111.222L83.288,111.222L84.159,111.222L84.923,111.222L85.731,111.222L87.384,111.222L88.208,111.222L89.077,111.222L89.827,111.222L90.627,111.222L92.274,111.222L93.101,111.222L93.977,111.222L94.726,111.222L95.527,111.222L97.164,111.222L97.99,111.222L98.863,111.222L99.621,111.222L100.422,111.222L102.06,111.222L102.889,111.222L103.755,111.222L104.521,111.222L105.318,111.222L106.958,111.222L107.785,111.222L108.655,111.222L109.409,111.222L110.216,111.222L111.85,111.222L112.27,111.222L112.667,111.222L113.531,111.222L114.298,111.222L115.11,111.222L116.745,111.222L117.564,111.222L118.431,111.222L119.195,111.222L120.007,111.222L121.651,111.222L122.484,111.222L123.357,111.222L124.109,111.222L124.911,111.222L126.546,111.222L127.378,111.222L128.282,111.222L129.009,111.222L129.802,111.222L131.436,111.222L132.271,111.222L133.139,111.222L133.898,111.222L134.702,111.222L136.339,111.222L137.166,111.222L138.033,111.222L138.786,111.222L139.594,111.222L141.232,111.222L142.061,111.222L142.928,111.222L143.685,111.222L144.491,111.222L146.126,111.222L146.946,111.222L147.81,111.222L148.572,111.222L149.388,111.222L151.025,111.222L151.843,111.222L152.704,111.222L153.468,111.222L154.285,111.222L155.93,111.222L156.755,111.222L157.63,111.222L158.385,111.222L159.186,111.222L160.822,111.222L161.656,111.222L162.526,111.222L163.279,111.222L164.083,111.222L165.721,111.222L166.549,111.222L167.423,111.222L168.177,111.222L168.979,111.222L170.617,111.222L171.444,111.222L172.318,111.222L173.071,111.222L173.876,111.222L175.514,111.222L176.341,111.222L177.213,111.222L177.971,111.222L178.77,111.222L180.407,111.222L181.229,111.222L182.095,111.222L182.853,111.222L183.665,111.222L185.306,111.222L186.122,111.222L186.991,111.222L187.754,111.222L188.565,111.222L190.205,111.222L191.039,111.222L191.91,111.222L192.654,111.222L193.466,111.222L195.101,111.222L195.932,111.222L196.803,111.222L197.562,111.222L198.362,111.222L199.999,111.222" stroke="#eeca3b" stroke-width="2"/></g></g><path class="foreground" aria-hidden="true" d="" display="none"/></g><g transform="translate(0,0)"><path class="background" aria-hidden="true" d="M0,0h200v200h-200Z"/><g><g class="mark-line role-mark marks" role="graphics-object" aria-roledescription="line mark container"><path aria-label="Time: Aug 27, 2025; Price: 1799; identifier: devote-1-2024" role="graphics-symbol" aria-roledescription="line mark" d="M65.134,0.111L65.348,0.111L66.149,0.111L67.785,0.111L68.615,0.111L69.487,0.111L70.244,0.111L71.044,0.111L72.682,0.111L73.508,0.111L74.378,0.111L75.139,0.111L75.938,0.111L80.794,44.556L80.832,44.556L82.472,44.556L82.995,44.556L83.289,44.556L84.159,44.556L84.923,44.556L85.731,44.556L87.385,44.556L88.208,44.556L89.077,44.556L89.827,44.556L90.627,44.556L92.274,44.556L93.101,44.556L93.977,44.556L94.727,44.556L95.527,44.556L97.164,44.556L97.99,44.556L98.863,44.556L99.621,44.556L100.422,44.556L102.06,44.556L102.889,44.556L103.755,44.556L104.522,44.556L105.318,44.556L106.959,44.556L107.785,44.556L108.655,44.556L109.409,44.556L110.216,44.556L111.85,44.556L112.27,44.556L112.668,44.556L113.531,44.556L114.298,44.556L115.11,44.556L116.746,44.556L117.564,44.556L118.431,44.556L119.195,44.556L120.007,44.556L121.651,44.556L122.484,44.556L123.357,44.556L124.109,44.556L124.911,44.556L126.546,44.556L127.379,44.556L128.282,44.556L129.009,44.556L129.803,44.556L131.436,44.556L132.271,44.556L133.139,44.556L133.898,44.556L134.702,44.556L136.339,44.556L137.166,44.556L138.034,44.556L138.786,44.556L139.594,44.556L141.232,44.556L142.061,44.556L142.929,44.556L143.685,44.556L144.491,44.556L146.126,44.556L146.946,44.556L147.811,44.556L148.572,44.556L149.388,44.556L151.025,44.556L151.843,44.556L152.704,44.556L153.468,44.556L154.285,44.556L155.93,44.556L156.755,44.556L157.631,44.556L158.386,44.556L159.187,44.556L160.822,44.556L161.656,44.556L162.526,44.556L163.279,44.556L164.083,44.556L165.721,44.556L166.549,44.556L167.423,44.556L168.178,44.556L168.979,44.556L170.617,44.556L171.444,44.556L172.319,44.556L173.072,44.556L173.876,44.556L175.514,44.556L176.341,44.556L177.213,44.556L177.971,44.556L178.77,44.556L180.407,44.556L181.229,44.556L182.095,44.556L182.853,44.556L183.666,44.556L185.306,44.556L186.122,44.556L186.991,44.556L187.754,44.556L188.565,44.556L190.206,44.556L191.039,44.556L191.911,44.556L192.654,44.556L193.466,44.556L195.101,44.556L195.932,44.556L196.804,44.556L197.562,44.556L198.362,44.556L199.999,44.556" stroke="#72b7b2" stroke-width="2"/></g></g><path class="foreground" aria-hidden="true" d="" display="none"/></g><g transform="translate(0,0)"><path class="background" aria-hidden="true" d="M0,0h200v200h-200Z"/><g><g class="mark-line role-mark marks" role="graphics-object" aria-roledescription="line mark container"><path aria-label="Time: Aug 27, 2025; Price: 1699; identifier: devote-1-2022" role="graphics-symbol" aria-roledescription="line mark" d="M65.134,11.222L65.348,11.222L66.149,11.222L67.785,11.222L68.615,11.222L69.487,11.222L70.244,11.222L71.044,11.222L72.682,11.222L73.509,11.222L74.378,11.222L75.139,11.222L75.939,11.222L77.573,11.222L78.394,11.222L79.26,11.222L80.024,11.222L80.794,11.222L80.832,11.222L82.472,11.222L82.995,11.222L83.289,11.222L84.159,11.222L84.924,11.222L85.731,11.222L87.385,11.222L88.208,11.222L89.077,11.222L89.827,11.222L90.627,11.222L92.274,11.222L93.102,11.222L93.977,11.222L94.727,11.222L95.527,11.222L97.164,11.222L97.991,11.222L98.863,11.222L99.621,11.222L100.422,11.222L102.06,11.222L102.889,11.222L103.755,11.222L104.522,11.222L105.318,11.222L106.959,11.222L107.785,11.222L108.655,11.222L109.409,11.222L110.216,11.222L111.85,11.222L112.27,11.222L112.668,11.222L113.531,11.222L114.298,11.222L115.11,11.222L116.746,11.222L117.564,11.222L118.431,11.222L119.195,11.222L120.007,11.222L121.651,11.222L122.484,11.222L123.357,11.222L124.109,11.222L124.911,11.222L126.546,11.222L127.379,11.222L128.282,11.222L129.01,11.222L129.803,11.222L131.436,11.222L132.271,11.222L133.139,11.222L133.899,11.222L134.702,11.222L136.339,11.222L137.166,11.222L138.034,11.222L138.786,11.222L139.594,11.222L141.232,11.222L142.061,11.222L142.929,11.222L143.685,11.222L144.491,11.222L146.126,11.222L146.946,11.222L147.811,11.222L148.573,11.222L149.388,11.222L151.025,11.222L151.843,11.222L152.704,11.222L153.468,11.222L154.285,11.222L155.93,11.222L156.755,11.222L157.631,11.222L158.386,11.222L159.187,11.222L160.823,11.222L161.656,11.222L162.526,11.222L163.28,11.222L164.083,11.222L165.721,11.222L166.549,11.222L167.423,11.222L168.178,11.222L168.979,11.222L170.617,11.222L171.445,11.222L172.319,11.222L173.072,11.222L173.877,11.222L175.514,11.222L176.341,11.222L177.213,11.222L177.971,11.222L178.77,11.222L180.408,11.222L181.229,11.222L182.096,11.222L182.853,11.222L183.666,11.222L185.306,11.222L186.122,11.222L186.991,11.222L187.754,11.222L188.565,11.222L190.206,11.222L191.039,11.222L191.911,11.222L192.654,11.222L193.466,11.222L195.101,11.222L195.932,11.222L196.804,11.222L197.562,11.222L198.362,11.222L199.999,11.222" stroke="#4c78a8" stroke-width="2"/></g></g><path class="foreground" aria-hidden="true" d="" display="none"/></g><g transform="translate(0,0)"><path class="background" aria-hidden="true" d="M0,0h200v200h-200Z"/><g><g class="mark-line role-mark marks" role="graphics-object" aria-roledescription="line mark container"><path aria-label="Time: Aug 31, 2025; Price: 1599; identifier: silex-400-oak-bork-2026" role="graphics-symbol" aria-roledescription="line mark" d="M82.995,22.333L83.289,22.333L84.16,22.333L84.924,22.333L85.731,22.333L87.385,22.333L88.208,22.333L89.077,22.333L89.827,22.333L90.627,22.333L92.274,22.333L93.102,22.333L93.977,22.333L94.727,22.333L95.527,22.333L97.164,22.333L97.991,22.333L98.863,22.333L99.621,22.333L100.422,22.333L102.06,22.333L102.89,22.333L103.755,22.333L104.522,22.333L105.318,22.333L106.959,22.333L107.785,22.333L108.655,22.333L109.41,22.333L110.217,22.333L111.851,22.333L112.27,22.333L112.668,22.333L113.532,22.333L114.298,22.333L115.111,22.333L116.746,22.333L117.564,22.333L118.431,22.333L119.195,22.333L120.007,22.333L121.651,22.333L122.484,22.333L123.357,22.333L124.11,22.333L124.912,22.333L126.546,22.333L127.379,22.333L128.282,22.333L129.01,22.333L129.803,22.333L131.436,22.333L132.271,22.333L133.139,22.333L133.899,22.333L134.702,22.333L136.34,22.333L137.166,22.333L138.034,22.333L138.786,22.333L139.595,22.333L141.233,22.333L142.061,22.333L142.929,22.333L143.685,22.333L144.491,22.333L146.126,22.333L146.946,22.333L147.811,22.333L148.573,22.333L149.389,22.333L151.025,22.333L151.843,22.333L152.704,22.333L153.468,22.333L154.286,22.333L155.93,22.333L156.755,22.333L157.631,22.333L158.387,22.333L159.188,22.333L160.823,22.333L161.656,22.333L162.526,22.333L163.28,22.333L164.083,22.333L165.721,22.333L166.549,22.333L167.423,22.333L168.178,22.333L168.979,22.333L170.617,22.333L171.445,22.333L172.319,22.333L173.072,22.333L173.877,22.333L175.514,22.333L176.342,22.333L177.214,22.333L177.971,22.333L178.771,22.333L180.408,22.333L181.23,22.333L182.096,22.333L182.853,22.333L183.666,22.333L185.306,22.333L186.123,22.333L186.991,22.333L187.754,22.333L188.565,22.333L190.206,22.333L191.04,22.333L191.911,22.333L192.654,22.333L193.466,22.333L195.101,22.333L195.932,22.333L196.804,22.333L197.563,22.333L198.363,22.333L200,22.333" stroke="#f58518" stroke-width="2"/></g></g><path class="foreground" aria-hidden="true" d="" display="none"/></g><g transform="translate(0,0)"><path class="background" aria-hidden="true" d="M0,0h200v200h-200Z"/><g><g class="mark-line role-mark marks" role="graphics-object" aria-roledescription="line mark container"><path aria-label="Time: Aug 31, 2025; Price: 1599; identifier: silex-400-warm-slate-grey-2026" role="graphics-symbol" aria-roledescription="line mark" d="M82.995,22.333L83.289,22.333L84.16,22.333L84.924,22.333L85.731,22.333L87.385,22.333L88.208,22.333L89.077,22.333L89.827,22.333L90.627,22.333L92.274,22.333L93.102,22.333L93.977,22.333L94.727,22.333L95.528,22.333L97.165,22.333L97.991,22.333L98.863,22.333L99.621,22.333L100.422,22.333L102.06,22.333L102.89,22.333L103.756,22.333L104.522,22.333L105.318,22.333L106.959,22.333L107.785,22.333L108.655,22.333L109.41,22.333L110.217,22.333L111.851,22.333L112.271,22.333L112.668,22.333L113.532,22.333L114.298,22.333L115.111,22.333L116.746,22.333L117.564,22.333L118.432,22.333L119.196,22.333L120.007,22.333L121.651,22.333L122.484,22.333L123.358,22.333L124.11,22.333L124.912,22.333L126.546,22.333L127.379,22.333L128.282,22.333L129.01,22.333L129.803,22.333L131.436,22.333L132.271,22.333L133.139,22.333L133.899,22.333L134.702,22.333L136.34,22.333L137.166,22.333L138.034,22.333L138.786,22.333L139.595,22.333L141.233,22.333L142.062,22.333L142.929,22.333L143.685,22.333L144.491,22.333L146.127,22.333L146.946,22.333L147.811,22.333L148.573,22.333L149.389,22.333L151.025,22.333L151.844,22.333L152.704,22.333L153.468,22.333L154.286,22.333L155.93,22.333L156.755,22.333L157.631,22.333L158.387,22.333L159.188,22.333L160.823,22.333L161.657,22.333L162.526,22.333L163.28,22.333L164.084,22.333L165.722,22.333L166.549,22.333L167.424,22.333L168.178,22.333L168.98,22.333L170.618,22.333L171.445,22.333L172.319,22.333L173.072,22.333L173.877,22.333L175.515,22.333L176.342,22.333L177.214,22.333L177.972,22.333L178.771,22.333L180.408,22.333L181.23,22.333L182.096,22.333L182.853,22.333L183.666,22.333L185.307,22.333L186.123,22.333L186.991,22.333L187.754,22.333L188.565,22.333L190.206,22.333L191.04,22.333L191.911,22.333L192.655,22.333L193.466,22.333L195.102,22.333L195.933,22.333L196.804,22.333L197.563,22.333L198.363,22.333L200,22.333" stroke="#e45756" stroke-width="2"/></g></g><path class="foreground" aria-hidden="true" d="" display="none"/></g></g><g class="mark-group role-legend" role="graphics-symbol" aria-roledescription="legend" aria-label="Symbol legend titled 'identifier' for stroke color with 16 values: devote-1-2022, silex-400-oak-bork-2026, silex-400-warm-slate-grey-2026, devote-1-2024, fastroad-ar-2, ending with allure-rs-2-2024"><g transform="translate(220,0)"><path class="background" aria-hidden="true" d="M0,0h256v222h-256Z" pointer-events="none"/><g><g class="mark-group role-legend-entry"><g transform="translate(0,16)"><path class="background" aria-hidden="true" d="M0,0h0v0h0Z" pointer-events="none"/><g><g class="mark-group role-scope" role="graphics-object" aria-roledescription="group mark container"><g transform="translate(0,0)"><path class="background" aria-hidden="true" d="M0,0h256v11h-256Z" pointer-events="none" opacity="1"/><g><g class="mark-symbol role-legend-symbol" pointer-events="none"><path transform="translate(6,6)" d="M-5,0L5,0" stroke="#4c78a8" stroke-width="1.5" opacity="1"/></g><g class="mark-text role-legend-label" pointer-events="none"><text text-anchor="start" transform="translate(16,9)" font-family="Liberation Mono" font-size="10px" fill="#000" opacity="1">devote-1-2022</text></g></g><path class="foreground" aria-hidden="true" d="" pointer-events="none" display="none"/></g><g transform="translate(0,13)"><path class="background" aria-hidden="true" d="M0,0h256v11h-256Z" pointer-events="none" opacity="1"/><g><g class="mark-symbol role-legend-symbol" pointer-events="none"><path transform="translate(6,6)" d="M-5,0L5,0" stroke="#f58518" stroke-width="1.5" opacity="1"/></g><g class="mark-text role-legend-label" pointer-events="none"><text text-anchor="start" transform="translate(16,9)" font-family="Liberation Mono" font-size="10px" fill="#000" opacity="1">silex-400-oak-bork-2026</text></g></g><path class="foreground" aria-hidden="true" d="" pointer-events="none" display="none"/></g><g transform="translate(0,26)"><path class="background" aria-hidden="true" d="M0,0h256v11h-256Z" pointer-events="none" opacity="1"/><g><g class="mark-symbol role-legend-symbol" pointer-events="none"><path transform="translate(6,6)" d="M-5,0L5,0" stroke="#e45756" stroke-width="1.5" opacity="1"/></g><g class="mark-text role-legend-label" pointer-events="none"><text text-anchor="start" transform="translate(16,9)" font-family="Liberation Mono" font-size="10px" fill="#000" opacity="1">silex-400-warm-slate-grey-2026</text></g></g><path class="foreground" aria-hidden="true" d="" pointer-events="none" display="none"/></g><g transform="translate(0,39)"><path class="background" aria-hidden="true" d="M0,0h256v11h-256Z" pointer-events="none" opacity="1"/><g><g class="mark-symbol role-legend-symbol" pointer-events="none"><path transform="translate(6,6)" d="M-5,0L5,0" stroke="#72b7b2" stroke-width="1.5" opacity="1"/></g><g class="mark-text role-legend-label" pointer-events="none"><text text-anchor="start" transform="translate(16,9)" font-family="Liberation Mono" font-size="10px" fill="#000" opacity="1">devote-1-2024</text></g></g><path class="foreground" aria-hidden="true" d="" pointer-events="none" display="none"/></g><g transform="translate(0,52)"><path class="background" aria-hidden="true" d="M0,0h256v11h-256Z" pointer-events="none" opacity="1"/><g><g class="mark-symbol role-legend-symbol" pointer-events="none"><path transform="translate(6,6)" d="M-5,0L5,0" stroke="#54a24b" stroke-width="1.5" opacity="1"/></g><g class="mark-text role-legend-label" pointer-events="none"><text text-anchor="start" transform="translate(16,9)" font-family="Liberation Mono" font-size="10px" fill="#000" opacity="1">fastroad-ar-2</text></g></g><path class="foreground" aria-hidden="true" d="" pointer-events="none" display="none"/></g><g transform="translate(0,65)"><path class="background" aria-hidden="true" d="M0,0h256v11h-256Z" pointer-events="none" opacity="1"/><g><g class="mark-symbol role-legend-symbol" pointer-events="none"><path transform="translate(6,6)" d="M-5,0L5,0" stroke="#eeca3b" stroke-width="1.5" opacity="1"/></g><g class="mark-text role-legend-label" pointer-events="none"><text text-anchor="start" transform="translate(16,9)" font-family="Liberation Mono" font-size="10px" fill="#000" opacity="1">thrive-2</text></g></g><path class="foreground" aria-hidden="true" d="" pointer-events="none" display="none"/></g><g transform="translate(0,78)"><path class="background" aria-hidden="true" d="M0,0h256v11h-256Z" pointer-events="none" opacity="1"/><g><g class="mark-symbol role-legend-symbol" pointer-events="none"><path transform="translate(6,6)" d="M-5,0L5,0" stroke="#b279a2" stroke-width="1.5" opacity="1"/></g><g class="mark-text role-legend-label" pointer-events="none"><text text-anchor="start" transform="translate(16,9)" font-family="Liberation Mono" font-size="10px" fill="#000" opacity="1">allure-rs-1-2023</text></g></g><path class="foreground" aria-hidden="true" d="" pointer-events="none" display="none"/></g><g transform="translate(0,91)"><path class="background" aria-hidden="true" d="M0,0h256v11h-256Z" pointer-events="none" opacity="1"/><g><g class="mark-symbol role-legend-symbol" pointer-events="none"><path transform="translate(6,6)" d="M-5,0L5,0" stroke="#ff9da6" stroke-width="1.5" opacity="1"/></g><g class="mark-text role-legend-label" pointer-events="none"><text text-anchor="start" transform="translate(16,9)" font-family="Liberation Mono" font-size="10px" fill="#000" opacity="1">roam-2</text></g></g><path class="foreground" aria-hidden="true" d="" pointer-events="none" display="none"/></g><g transform="translate(0,104)"><path class="background" aria-hidden="true" d="M0,0h256v11h-256Z" pointer-events="none" opacity="1"/><g><g class="mark-symbol role-legend-symbol" pointer-events="none"><path transform="translate(6,6)" d="M-5,0L5,0" stroke="#9d755d" stroke-width="1.5" opacity="1"/></g><g class="mark-text role-legend-label" pointer-events="none"><text text-anchor="start" transform="translate(16,9)" font-family="Liberation Mono" font-size="10px" fill="#000" opacity="1">fastroad-sl-3-2022</text></g></g><path class="foreground" aria-hidden="true" d="" pointer-events="none" display="none"/></g><g transform="translate(0,117)"><path class="background" aria-hidden="true" d="M0,0h256v11h-256Z" pointer-events="none" opacity="1"/><g><g class="mark-symbol role-legend-symbol" pointer-events="none"><path transform="translate(6,6)" d="M-5,0L5,0" stroke="#bab0ac" stroke-width="1.5" opacity="1"/></g><g class="mark-text role-legend-label" pointer-events="none"><text text-anchor="start" transform="translate(16,9)" font-family="Liberation Mono" font-size="10px" fill="#000" opacity="1">allure-rs-2-2023</text></g></g><path class="foreground" aria-hidden="true" d="" pointer-events="none" display="none"/></g><g transform="translate(0,130)"><path class="background" aria-hidden="true" d="M0,0h256v11h-256Z" pointer-events="none" opacity="1"/><g><g class="mark-symbol role-legend-symbol" pointer-events="none"><path transform="translate(6,6)" d="M-5,0L5,0" stroke="#4c78a8" stroke-width="1.5" opacity="1"/></g><g class="mark-text role-legend-label" pointer-events="none"><text text-anchor="start" transform="translate(16,9)" font-family="Liberation Mono" font-size="10px" fill="#000" opacity="1">escape-city-disc-1-2024</text></g></g><path class="foreground" aria-hidden="true" d="" pointer-events="none" display="none"/></g><g transform="translate(0,143)"><path class="background" aria-hidden="true" d="M0,0h256v11h-256Z" pointer-events="none" opacity="1"/><g><g class="mark-symbol role-legend-symbol" pointer-events="none"><path transform="translate(6,6)" d="M-5,0L5,0" stroke="#f58518" stroke-width="1.5" opacity="1"/></g><g class="mark-text role-legend-label" pointer-events="none"><text text-anchor="start" transform="translate(16,9)" font-family="Liberation Mono" font-size="10px" fill="#000" opacity="1">sdrbike-escape-1-city-disc</text></g></g><path class="foreground" aria-hidden="true" d="" pointer-events="none" display="none"/></g><g transform="translate(0,156)"><path class="background" aria-hidden="true" d="M0,0h256v11h-256Z" pointer-events="none" opacity="1"/><g><g class="mark-symbol role-legend-symbol" pointer-events="none"><path transform="translate(6,6)" d="M-5,0L5,0" stroke="#e45756" stroke-width="1.5" opacity="1"/></g><g class="mark-text role-legend-label" pointer-events="none"><text text-anchor="start" transform="translate(16,9)" font-family="Liberation Mono" font-size="10px" fill="#000" opacity="1">roam-disc-2-2024</text></g></g><path class="foreground" aria-hidden="true" d="" pointer-events="none" display="none"/></g><g transform="translate(0,169)"><path class="background" aria-hidden="true" d="M0,0h256v11h-256Z" pointer-events="none" opacity="1"/><g><g class="mark-symbol role-legend-symbol" pointer-events="none"><path transform="translate(6,6)" d="M-5,0L5,0" stroke="#72b7b2" stroke-width="1.5" opacity="1"/></g><g class="mark-text role-legend-label" pointer-events="none"><text text-anchor="start" transform="translate(16,9)" font-family="Liberation Mono" font-size="10px" fill="#000" opacity="1">rove-2</text></g></g><path class="foreground" aria-hidden="true" d="" pointer-events="none" display="none"/></g><g transform="translate(0,182)"><path class="background" aria-hidden="true" d="M0,0h256v11h-256Z" pointer-events="none" opacity="1"/><g><g class="mark-symbol role-legend-symbol" pointer-events="none"><path transform="translate(6,6)" d="M-5,0L5,0" stroke="#54a24b" stroke-width="1.5" opacity="1"/></g><g class="mark-text role-legend-label" pointer-events="none"><text text-anchor="start" transform="translate(16,9)" font-family="Liberation Mono" font-size="10px" fill="#000" opacity="1">allure-rs-2-2022</text></g></g><path class="foreground" aria-hidden="true" d="" pointer-events="none" display="none"/></g><g transform="translate(0,195)"><path class="background" aria-hidden="true" d="M0,0h256v11h-256Z" pointer-events="none" opacity="1"/><g><g class="mark-symbol role-legend-symbol" pointer-events="none"><path transform="translate(6,6)" d="M-5,0L5,0" stroke="#eeca3b" stroke-width="1.5" opacity="1"/></g><g class="mark-text role-legend-label" pointer-events="none"><text text-anchor="start" transform="translate(16,9)" font-family="Liberation Mono" font-size="10px" fill="#000" opacity="1">allure-rs-2-2024</text></g></g><path class="foreground" aria-hidden="true" d="" pointer-events="none" display="none"/></g></g></g><path class="foreground" aria-hidden="true" d="" pointer-events="none" display="none"/></g></g><g class="mark-text role-legend-title" pointer-events="none"><text text-anchor="start" transform="translate(0,9)" font-family="Liberation Mono" font-size="11px" font-weight="bold" fill="#000" opacity="1">identifier</text></g></g><path class="foreground" aria-hidden="true" d="" pointer-events="none" display="none"/></g></g></g><path class="foreground" aria-hidden="true" d="" display="none"/></g></g></g></svg>