<svg xmlns="http://www.w3.org/2000/svg" xmlns:xlink="http://www.w3.org/1999/xlink" version="1.1" class="marks" width="548" height="244" viewBox="0 0 548 244"><rect width="548" height="244" fill="white"/><g fill="none" stroke-miterlimit="10" transform="translate(67,7)"><g class="mark-group role-frame root" role="graphics-object" aria-roledescription="group mark container"><g transform="translate(0,0)"><path class="background" aria-hidden="true" d="M0.5,0.5h200v200h-200Z" stroke="#ddd"/><g><g class="mark-group role-axis" aria-hidden="true"><g transform="translate(0.5,200.5)"><path class="background" aria-hidden="true" d="M0,0h0v0h0Z" pointer-events="none"/><g><g class="mark-rule role-axis-grid" pointer-events="none"><line transform="translate(9,-200)" x2="0" y2="200" stroke="#ddd" stroke-width="1" opacity="1"/><line transform="translate(33,-200)" x2="0" y2="200" stroke="#ddd" stroke-width="1" opacity="1"/><line transform="translate(56,-200)" x2="0" y2="200" stroke="#ddd" stroke-width="1" opacity="1"/><line transform="translate(80,-200)" x2="0" y2="200" stroke="#ddd" stroke-width="1" opacity="1"/><line transform="translate(104,-200)" x2="0" y2="200" stroke="#ddd" stroke-width="1" opacity="1"/><line transform="translate(128,-200)" x2="0" y2="200" stroke="#ddd" stroke-width="1" opacity="1"/><line transform="translate(151,-200)" x2="0" y2="200" stroke="#ddd" stroke-width="1" opacity="1"/><line transform="translate(175,-200)" x2="0" y2="200" stroke="#ddd" stroke-width="1" opacity="1"/><line transform="translate(199,-200)" x2="0" y2="200" stroke="#ddd" stroke-width="1" opacity="1"/></g></g><path class="foreground" aria-hidden="true" d="" pointer-events="none" display="none"/></g></g><g class="mark-group role-axis" aria-hidden="true"><g transform="translate(0.5,0.5)"><path class="background" aria-hidden="true" d="M0,0h0v0h0Z" pointer-events="none"/><g><g class="mark-rule role-axis-grid" pointer-events="none"><line transform="translate(0,200)" x2="200" y2="0" stroke="#ddd" stroke-width="1" opacity="1"/><line transform="translate(0,144)" x2="200" y2="0" stroke="#ddd" stroke-width="1" opacity="1"/><line transform="translate(0,89)" x2="200" y2="0" stroke="#ddd" stroke-width="1" opacity="1"/><line transform="translate(0,33)" x2="200" y2="0" stroke="#ddd" stroke-width="1" opacity="1"/></g></g><path class="foreground" aria-hidden="true" d="" pointer-events="none" display="none"/></g></g><g class="mark-group role-axis" role="graphics-symbol" aria-roledescription="axis" aria-label="X-axis titled 'Time' for a time scale with values from Thursday, 14 August 2025, 8:34:48 AM to Sunday, 12 October 2025, 8:47:14 AM"><g transform="translate(0.5,200.5)"><path class="background" aria-hidden="true" d="M0,0h0v0h0Z" pointer-events="none"/><g><g class="mark-rule role-axis-tick" pointer-events="none"><line transform="translate(9,0)" x2="0" y2="5" stroke="#888" stroke-width="1" opacity="1"/><line transform="translate(33,0)" x2="0" y2="5" stroke="#888" stroke-width="1" opacity="1"/><line transform="translate(56,0)" x2="0" y2="5" stroke="#888" stroke-width="1" opacity="1"/><line transform="translate(80,0)" x2="0" y2="5" stroke="#888" stroke-width="1" opacity="1"/><line transform="translate(104,0)" x2="0" y2="5" stroke="#888" stroke-width="1" opacity="1"/><line transform="translate(128,0)" x2="0" y2="5" stroke="#888" stroke-width="1" opacity="1"/><line transform="translate(151,0)" x2="0" y2="5" stroke="#888" stroke-width="1" opacity="1"/><line transform="translate(175,0)" x2="0" y2="5" stroke="#888" stroke-width="1" opacity="1"/><line transform="translate(199,0)" x2="0" y2="5" stroke="#888" stroke-width="1" opacity="1"/></g><g class="mark-text role-axis-label" pointer-events="none"><text text-anchor="middle" transform="translate(8.956287566012351,15)" font-family="Liberation Mono" font-size="10px" fill="#000" opacity="1">Aug 17</text><text text-anchor="middle" transform="translate(32.68163109836561,15)" font-family="Liberation Mono" font-size="10px" fill="#000" opacity="0">Aug 24</text><text text-anchor="middle" transform="translate(56.406974630718864,15)" font-family="Liberation Mono" font-size="10px" fill="#000" opacity="0">Aug 31</text><text text-anchor="middle" transform="translate(80.13231816307211,15)" font-family="Liberation Mono" font-size="10px" fill="#000" opacity="0">Sep 07</text><text text-anchor="middle" transform="translate(103.85766169542538,15)" font-family="Liberation Mono" font-size="10px" fill="#000" opacity="1">Sep 14</text><text text-anchor="middle" transform="translate(127.58300522777863,15)" font-family="Liberation Mono" font-size="10px" fill="#000" opacity="0">Sep 21</text><text text-anchor="middle" transform="translate(151.30834876013188,15)" font-family="Liberation Mono" font-size="10px" fill="#000" opacity="0">Sep 28</text><text text-anchor="middle" transform="translate(175.03369229248514,15)" font-family="Liberation Mono" font-size="10px" fill="#000" opacity="0">Oct 05</text><text text-anchor="middle" transform="translate(198.7590358248384,15)" font-family="Liberation Mono" font-size="10px" fill="#000" opacity="1">Oct 12</text></g><g class="mark-rule role-axis-domain" pointer-events="none"><line transform="translate(0,0)" x2="200" y2="0" stroke="#888" stroke-width="1" opacity="1"/></g><g class="mark-text role-axis-title" pointer-events="none"><text text-anchor="middle" transform="translate(100,30)" font-family="Liberation Mono" font-size="11px" font-weight="bold" fill="#000" opacity="1">Time</text></g></g><path class="foreground" aria-hidden="true" d="" pointer-events="none" display="none"/></g></g><g class="mark-group role-axis" role="graphics-symbol" aria-roledescription="axis" aria-label="Y-axis titled 'Price' for a linear scale with values from 0 to 1,800"><g transform="translate(0.5,0.5)"><path class="background" aria-hidden="true" d="M0,0h0v0h0Z" pointer-events="none"/><g><g class="mark-rule role-axis-tick" pointer-events="none"><line transform="translate(0,200)" x2="-5" y2="0" stroke="#888" stroke-width="1" opacity="1"/><line transform="translate(0,144)" x2="-5" y2="0" stroke="#888" stroke-width="1" opacity="1"/><line transform="translate(0,89)" x2="-5" y2="0" stroke="#888" stroke-width="1" opacity="1"/><line transform="translate(0,33)" x2="-5" y2="0" stroke="#888" stroke-width="1" opacity="1"/></g><g class="mark-text role-axis-label" pointer-events="none"><text text-anchor="end" transform="translate(-7,203)" font-family="Liberation Mono" font-size="10px" fill="#000" opacity="1">0</text><text text-anchor="end" transform="translate(-7,147.44444444444443)" font-family="Liberation Mono" font-size="10px" fill="#000" opacity="1">500</text><text text-anchor="end" transform="translate(-7,91.88888888888889)" font-family="Liberation Mono" font-size="10px" fill="#000" opacity="1">1,000</text><text text-anchor="end" transform="translate(-7,36.33333333333333)" font-family="Liberation Mono" font-size="10px" fill="#000" opacity="1">1,500</text></g><g class="mark-rule role-axis-domain" pointer-events="none"><line transform="translate(0,200)" x2="0" y2="-200" stroke="#888" stroke-width="1" opacity="1"/></g><g class="mark-text role-axis-title" pointer-events="none"><text text-anchor="middle" transform="translate(-51,100) rotate(-90) translate(0,-2)" font-family="Liberation Mono" font-size="11px" font-weight="bold" fill="#000" opacity="1">Price</text></g></g><path class="foreground" aria-hidden="true" d="" pointer-events="none" display="none"/></g></g><g class="mark-group role-scope pathgroup" role="graphics-object" aria-roledescription="group mark container"><g transform="translate(0,0)"><path class="background" aria-hidden="true" d="M0,0h200v200h-200Z"/><g><g class="mark-line role-mark marks" role="graphics-object" aria-roledescription="line mark container"><path aria-label="Time: Aug 14, 2025; Price: 899; identifier: escape-city-disc-1-2024" role="graphics-symbol" aria-roledescription="line mark" d="M0,100.111L0.028,100.111L0.05,100.111L0.675,100.111L1.172,100.111L1.729,100.111L2.872,100.111L3.434,100.111L4.053,100.111L4.562,100.111L5.116,100.111L6.251,100.111L6.819,100.111L7.42,100.111L7.945,100.111L8.5,100.111L9.653,100.111L10.207,100.111L10.811,100.111L11.336,100.111L11.894,100.111L13.052,100.111L13.609,100.111L14.233,100.111L14.452,100.111L14.737,100.111L15.28,100.111L16.416,100.111L16.989,100.111L17.591,100.111L18.117,100.111L18.668,100.111L19.806,100.111L20.374,100.111L21.001,100.111L21.254,100.111L21.505,100.111L22.061,100.111L23.193,100.111L23.766,100.111L24.371,100.111L24.897,100.111L25.449,100.111L26.584,100.111L27.154,100.111L27.759,100.111L28.283,100.111L28.836,100.111L29.97,100.111L30.538,100.111L31.138,100.111L31.663,100.111L32.222,100.111L33.364,100.111L33.925,100.111L34.529,100.111L35.056,100.111L35.613,100.111L36.758,100.111L37.33,100.111L37.948,100.111L38.454,100.111L39.006,100.111L40.142,100.111L40.717,100.111L41.84,100.111L42.392,100.111L43.527,100.111L44.099,100.111L44.322,100.111L44.703,100.111L45.081,100.111L45.229,100.111L45.784,100.111L46.916,100.111L47.49,100.111L48.094,100.111L48.618,100.111L49.172,100.111L50.305,100.111L50.877,100.111L51.479,100.111L52.006,100.111L52.559,100.111L53.691,100.111L54.259,100.111L54.858,100.111L55.387,100.111L55.92,100.111L55.946,100.111L57.081,100.111L57.443,100.111L57.646,100.111L58.249,100.111L58.778,100.111L59.337,100.111L60.481,100.111L61.051,100.111L61.653,100.111L62.172,100.111L62.725,100.111L63.865,100.111L64.438,100.111L65.044,100.111L65.563,100.111L66.117,100.111L67.25,100.111L67.822,100.111L68.426,100.111L68.951,100.111L69.505,100.111L70.639,100.111L71.213,100.111L71.812,100.111L72.343,100.111L72.894,100.111L74.03,100.111L74.601,100.111L75.203,100.111L75.725,100.111L76.284,100.111L77.415,100.111L77.706,100.111L77.981,100.111L78.579,100.111L79.109,100.111L79.672,100.111L80.803,100.111L81.37,100.111L81.97,100.111L82.499,100.111L83.061,100.111L84.198,100.111L84.775,100.111L85.379,100.111L85.9,100.111L86.455,100.111L87.587,100.111L88.163,100.111L88.788,100.111L89.292,100.111L89.841,100.111L90.971,100.111L91.549,100.111L92.15,100.111L92.676,100.111L93.231,100.111L94.365,100.111L94.937,100.111L95.538,100.111L96.058,100.111L96.618,100.111L97.752,100.111L98.325,100.111L98.925,100.111L99.449,100.111L100.007,100.111L101.139,100.111L101.706,100.111L102.305,100.111L102.832,100.111L103.397,100.111L104.529,100.111L105.096,100.111L105.692,100.111L106.22,100.111L106.786,100.111L107.924,100.111L108.496,100.111L109.101,100.111L109.623,100.111L110.177,100.111L111.311,100.111L111.888,100.111L112.49,100.111L113.011,100.111L113.568,100.111L114.701,100.111L115.274,100.111L115.879,100.111L116.402,100.111L116.956,100.111L118.09,100.111L118.663,100.111L119.267,100.111L119.789,100.111L120.346,100.111L121.48,100.111L122.052,100.111L122.656,100.111L123.18,100.111L123.733,100.111L124.866,100.111L125.435,100.111L126.035,100.111L126.559,100.111L127.122,100.111L128.257,100.111L128.822,100.111L129.423,100.111L129.951,100.111L130.512,100.111L131.648,100.111L132.225,100.111L132.828,100.111L133.343,100.111L133.905,100.111L135.036,100.111L135.612,100.111L136.215,100.111L136.74,100.111L137.294,100.111L138.427,100.111L139.002,100.111L139.605,100.111L140.132,100.111L140.681,100.111L141.816,100.111L142.393,100.111L142.997,100.111L143.52,100.111L144.069,100.111L145.204,100.111L145.78,100.111L146.382,100.111L146.906,100.111L147.459,100.111L148.593,100.111L149.158,100.111L149.758,100.111L150.286,100.111L150.849,100.111L151.982,100.111L152.547,100.111L153.148,100.111L153.673,100.111L154.237,100.111L155.375,100.111L155.952,100.111L156.555,100.111L157.063,100.111L157.628,100.111L158.763,100.111L159.342,100.111L159.944,100.111L160.463,100.111L161.018,100.111L162.154,100.111L162.729,100.111L163.334,100.111L163.854,100.111L164.408,100.111L165.539,100.111L166.113,100.111L166.715,100.111L167.243,100.111L167.795,100.111L168.927,100.111L169.502,100.111L170.102,100.111L170.63,100.111L171.184,100.111L172.316,100.111L172.884,100.111L173.482,100.111L174.012,100.111L174.573,100.111L175.703,100.111L176.271,100.111L176.873,100.111L177.401,100.111L177.963,100.111L179.097,100.111L179.673,100.111L180.278,100.111L180.801,100.111L181.355,100.111L182.486,100.111L183.061,100.111L183.668,100.111L184.19,100.111L184.744,100.111L185.877,100.111L186.454,100.111L187.058,100.111L187.579,100.111L188.133,100.111L189.268,100.111L189.843,100.111L190.449,100.111L190.974,100.111L191.523,100.111L192.656,100.111L193.23,100.111L193.833,100.111L194.357,100.111L194.912,100.111L196.042,100.111L196.609,100.111L197.208,100.111L197.735,100.111L198.298,100.111L199.432,100.111L199.998,100.111" stroke="#4c78a8" stroke-width="2"/></g></g><path class="foreground" aria-hidden="true" d="" display="none"/></g><g transform="translate(0,0)"><path class="background" aria-hidden="true" d="M0,0h200v200h-200Z"/><g><g class="mark-line role-mark marks" role="graphics-object" aria-roledescription="line mark container"><path aria-label="Time: Aug 14, 2025; Price: 999; identifier: roam-2" role="graphics-symbol" aria-roledescription="line mark" d="M0,89L0.028,89L0.05,89L0.675,89L1.172,89L1.729,89L2.872,89L3.434,89L4.053,89L4.562,89L5.116,89L6.251,89L6.819,89L7.42,89L7.945,89L8.506,89L9.653,89L10.207,89L10.811,89L11.336,89L11.894,89L13.052,89L13.609,89L14.233,89L14.452,89L14.737,89L15.28,89L16.416,89L16.989,89L17.591,89L18.117,89L18.668,89L19.806,89L20.374,89L21.001,89L21.254,89L21.505,89L22.062,89L23.193,89L23.766,89L24.371,89L24.897,89L25.449,89L26.584,89L27.155,89L27.759,89L28.283,89L28.837,89L29.971,89L30.539,89L31.138,89L31.663,89L32.223,89L33.364,89L33.926,89L34.529,89L35.057,89L35.613,89L36.758,89L37.33,89L37.948,89L38.454,89L39.006,89L40.142,89L40.717,89L41.841,89L42.392,89L43.527,89L44.1,89L44.322,89L44.703,89L45.081,89L45.229,89L45.784,89L46.916,89L47.49,89L48.094,89L48.618,89L49.172,89L50.305,89L50.877,89L51.479,89L52.006,89L52.559,89L53.691,89L54.259,89L54.858,89L55.387,89L55.92,89L55.946,89L57.081,89L57.444,89L57.647,89L58.249,89L58.778,89L59.337,89L60.482,89L61.051,89L61.653,89L62.172,89L62.726,89L63.866,89L64.439,89L65.044,89L65.563,89L66.117,89L67.251,89L67.822,89L68.426,89L68.951,89L69.505,89L70.639,89L71.213,89L71.812,89L72.343,89L72.894,89L74.03,89L74.602,89L75.204,89L75.726,89L76.284,89L77.415,89L77.706,89L77.981,89L78.579,89L79.109,89L79.672,89L80.804,89L81.37,89L81.97,89L82.499,89L83.061,89L84.199,89L84.775,89L85.38,89L85.9,89L86.455,89L87.587,89L88.163,89L88.788,89L89.292,89L89.841,89L90.971,89L91.549,89L92.15,89L92.676,89L93.232,89L94.365,89L94.937,89L95.538,89L96.058,89L96.618,89L97.752,89L98.325,89L98.926,89L99.449,89L100.007,89L101.139,89L101.707,89L102.305,89L102.832,89L103.397,89L104.53,89L105.096,89L105.692,89L106.221,89L106.786,89L107.924,89L108.496,89L109.102,89L109.624,89L110.178,89L111.311,89L111.888,89L112.49,89L113.012,89L113.568,89L114.701,89L115.275,89L115.879,89L116.402,89L116.956,89L118.09,89L118.663,89L119.268,89L119.789,89L120.346,89L121.48,89L122.052,89L122.656,89L123.18,89L123.733,89L124.867,89L125.435,89L126.035,89L126.559,89L127.122,89L128.257,89L128.822,89L129.423,89L129.951,89L130.513,89L131.648,89L132.225,89L132.828,89L133.343,89L133.905,89L135.036,89L135.612,89L136.215,89L136.74,89L137.294,89L138.427,89L139.002,89L139.605,89L140.132,89L140.681,89L141.816,89L142.393,89L142.997,89L143.52,89L144.069,89L145.204,89L145.78,89L146.382,89L146.906,89L147.459,89L148.593,89L149.158,89L149.758,89L150.287,89L150.849,89L151.982,89L152.548,89L153.149,89L153.673,89L154.237,89L155.375,89L155.952,89L156.555,89L157.063,89L157.628,89L158.763,89L159.343,89L159.944,89L160.464,89L161.018,89L162.154,89L162.729,89L163.334,89L163.854,89L164.408,89L165.539,89L166.113,89L166.715,89L167.243,89L167.795,89L168.927,89L169.502,89L170.102,89L170.63,89L171.184,89L172.316,89L172.884,89L173.482,89L174.012,89L174.573,89L175.704,89L176.272,89L176.873,89L177.401,89L177.963,89L179.097,89L179.673,89L180.278,89L180.801,89L181.355,89L182.486,89L183.062,89L183.668,89L184.19,89L184.744,89L185.877,89L186.454,89L187.058,89L187.58,89L188.134,89L189.268,89L189.844,89L190.449,89L190.974,89L191.524,89L192.656,89L193.23,89L193.833,89L194.357,89L194.912,89L196.042,89L196.609,89L197.208,89L197.735,89L198.299,89L199.432,89L199.999,89" stroke="#ff9da6" stroke-width="2"/></g></g><path class="foreground" aria-hidden="true" d="" display="none"/></g><g transform="translate(0,0)"><path class="background" aria-hidden="true" d="M0,0h200v200h-200Z"/><g><g class="mark-line role-mark marks" role="graphics-object" aria-roledescription="line mark container"><path aria-label="Time: Aug 14, 2025; Price: 999; identifier: fastroad-sl-3-2022" role="graphics-symbol" aria-roledescription="line mark" d="M0,89L0.028,89L0.051,89L0.675,89L1.172,89L1.729,89L2.872,89L3.434,89L4.054,89L4.562,89L5.116,89L6.251,89L6.819,89L7.42,89L7.945,89L8.506,89L9.653,89L10.207,89L10.811,89L11.336,89L11.894,89L13.052,89L13.609,89L14.233,89L14.452,89L14.737,89L15.28,89L16.416,89L16.989,89L17.591,89L18.117,89L18.668,89L19.806,89L20.374,89L21.001,89L21.254,89L21.505,89L22.062,89L23.193,89L23.766,89L24.371,89L24.897,89L25.449,89L26.584,89L27.155,89L27.759,89L28.283,89L28.837,89L29.971,89L30.539,89L31.138,89L31.663,89L32.223,89L33.364,89L33.926,89L34.529,89L35.057,89L35.613,89L36.758,89L37.33,89L37.948,89L38.455,89L39.006,89L40.142,89L40.717,89L41.841,89L42.392,89L43.527,89L44.1,89L44.322,89L44.703,89L45.081,89L45.229,89L45.784,89L46.916,89L47.49,89L48.094,89L48.618,89L49.172,89L50.305,89L50.878,89L51.48,89L52.006,89L52.559,89L53.691,89L54.259,89L54.858,89L55.387,89L55.92,89L55.947,89L57.082,89L57.444,89L57.647,89L58.249,89L58.778,89L59.337,89L60.482,89L61.051,89L61.653,89L62.172,89L62.726,89L63.866,89L64.439,89L65.044,89L65.563,89L66.117,89L67.251,89L67.823,89L68.426,89L68.951,89L69.505,89L70.639,89L71.213,89L71.812,89L72.343,89L72.894,89L74.03,89L74.602,89L75.204,89L75.726,89L76.284,89L77.415,89L77.706,89L77.981,89L78.579,89L79.109,89L79.672,89L80.804,89L81.37,89L81.97,89L82.499,89L83.061,89L84.199,89L84.775,89L85.38,89L85.9,89L86.456,89L87.587,89L88.163,89L88.788,89L89.292,89L89.841,89L90.971,89L91.549,89L92.15,89L92.676,89L93.232,89L94.365,89L94.937,89L95.538,89L96.059,89L96.618,89L97.752,89L98.325,89L98.926,89L99.449,89L100.007,89L101.139,89L101.707,89L102.305,89L102.832,89L103.397,89L104.53,89L105.096,89L105.692,89L106.221,89L106.786,89L107.924,89L108.496,89L109.102,89L109.624,89L110.178,89L111.311,89L111.888,89L112.49,89L113.012,89L113.568,89L114.702,89L115.275,89L115.879,89L116.402,89L116.956,89L118.09,89L118.663,89L119.268,89L119.789,89L120.346,89L121.48,89L122.052,89L122.656,89L123.18,89L123.733,89L124.867,89L125.436,89L126.035,89L126.559,89L127.122,89L128.257,89L128.822,89L129.423,89L129.951,89L130.513,89L131.648,89L132.225,89L132.828,89L133.343,89L133.905,89L135.037,89L135.612,89L136.215,89L136.74,89L137.294,89L138.427,89L139.002,89L139.605,89L140.132,89L140.681,89L141.817,89L142.393,89L142.997,89L143.52,89L144.07,89L145.204,89L145.78,89L146.383,89L146.906,89L147.459,89L148.593,89L149.158,89L149.758,89L150.287,89L150.849,89L151.982,89L152.548,89L153.149,89L153.673,89L154.237,89L155.375,89L155.952,89L156.556,89L157.063,89L157.629,89L158.763,89L159.343,89L159.944,89L160.464,89L161.018,89L162.154,89L162.729,89L163.334,89L163.854,89L164.408,89L165.539,89L166.113,89L166.715,89L167.243,89L167.795,89L168.927,89L169.502,89L170.103,89L170.63,89L171.184,89L172.316,89L172.884,89L173.483,89L174.012,89L174.573,89L175.704,89L176.272,89L176.873,89L177.401,89L177.963,89L179.098,89L179.674,89L180.278,89L180.801,89L181.356,89L182.486,89L183.062,89L183.668,89L184.19,89L184.744,89L185.878,89L186.454,89L187.059,89L187.58,89L188.134,89L189.268,89L189.844,89L190.449,89L190.974,89L191.524,89L192.656,89L193.23,89L193.833,89L194.357,89L194.912,89L196.042,89L196.609,89L197.208,89L197.735,89L198.299,89L199.432,89L199.999,89" stroke="#9d755d" stroke-width="2"/></g></g><path class="foreground" aria-hidden="true" d="" display="none"/></g><g transform="translate(0,0)"><path class="background" aria-hidden="true" d="M0,0h200v200h-200Z"/><g><g class="mark-line role-mark marks" role="graphics-object" aria-roledescription="line mark container"><path aria-label="Time: Aug 14, 2025; Price: 1199; identifier: fastroad-ar-2" role="graphics-symbol" aria-roledescription="line mark" d="M0,66.778L0.028,66.778L0.051,66.778L0.676,66.778L1.172,66.778L1.729,66.778L2.872,66.778L3.434,66.778L4.054,66.778L4.562,66.778L5.116,66.778L6.251,66.778L6.819,66.778L7.42,66.778L7.945,66.778L8.508,66.778L9.653,66.778L10.207,66.778L10.811,66.778L11.337,66.778L11.894,66.778L13.052,66.778L13.609,66.778L14.233,66.778L14.452,66.778L14.737,66.778L15.28,66.778L16.416,66.778L16.989,66.778L17.591,66.778L18.117,66.778L18.668,66.778L19.806,66.778L20.374,66.778L21.001,66.778L21.255,66.778L21.505,66.778L22.062,66.778L23.194,66.778L23.766,66.778L24.371,66.778L24.897,66.778L25.449,66.778L26.584,66.778L27.155,66.778L27.759,66.778L28.283,66.778L28.837,66.778L29.971,66.778L30.539,66.778L31.138,66.778L31.663,66.778L32.223,66.778L33.364,66.778L33.926,66.778L34.529,66.778L35.057,66.778L35.613,66.778L36.758,66.778L37.33,66.778L37.949,66.778L38.455,66.778L39.006,66.778L40.142,66.778L40.717,66.778L41.841,66.778L42.392,66.778L43.527,66.778L44.1,66.778L44.322,66.778L44.704,66.778L45.081,66.778L45.229,66.778L45.784,66.778L46.916,66.778L47.491,66.778L48.094,66.778L48.618,66.778L49.172,66.778L50.305,66.778L50.878,66.778L51.48,66.778L52.006,66.778L52.559,66.778L53.691,66.778L54.259,66.778L54.859,66.778L55.387,66.778L55.92,66.778L55.947,66.778L57.082,66.778L57.444,66.778L57.647,66.778L58.249,66.778L58.778,66.778L59.337,66.778L60.482,66.778L61.052,66.778L61.653,66.778L62.172,66.778L62.726,66.778L63.866,66.778L64.439,66.778L65.044,66.778L65.564,66.778L66.117,66.778L67.251,66.778L67.823,66.778L68.426,66.778L68.951,66.778L69.506,66.778L70.639,66.778L71.213,66.778L71.813,66.778L72.343,66.778L72.894,66.778L74.03,66.778L74.602,66.778L75.204,66.778L75.726,66.778L76.285,66.778L77.416,66.778L77.706,66.778L77.981,66.778L78.579,66.778L79.11,66.778L79.672,66.778L80.804,66.778L81.37,66.778L81.97,66.778L82.499,66.778L83.061,66.778L84.199,66.778L84.775,66.778L85.38,66.778L85.9,66.778L86.456,66.778L87.587,66.778L88.163,66.778L88.788,66.778L89.292,66.778L89.841,66.778L90.971,66.778L91.549,66.778L92.15,66.778L92.676,66.778L93.232,66.778L94.365,66.778L94.937,66.778L95.538,66.778L96.059,66.778L96.618,66.778L97.752,66.778L98.325,66.778L98.926,66.778L99.45,66.778L100.007,66.778L101.139,66.778L101.707,66.778L102.305,66.778L102.832,66.778L103.397,66.778L104.53,66.778L105.096,66.778L105.692,66.778L106.221,66.778L106.786,66.778L107.925,66.778L108.496,66.778L109.102,66.778L109.624,66.778L110.178,66.778L111.311,66.778L111.888,66.778L112.49,66.778L113.012,66.778L113.568,66.778L114.702,66.778L115.275,66.778L115.88,66.778L116.402,66.778L116.957,66.778L118.09,66.778L118.663,66.778L119.268,66.778L119.789,66.778L120.346,66.778L121.48,66.778L122.052,66.778L122.656,66.778L123.18,66.778L123.733,66.778L124.867,66.778L125.436,66.778L126.035,66.778L126.559,66.778L127.122,66.778L128.257,66.778L128.822,66.778L129.423,66.778L129.952,66.778L130.513,66.778L131.648,66.778L132.225,66.778L132.829,66.778L133.343,66.778L133.905,66.778L135.037,66.778L135.612,66.778L136.215,66.778L136.74,66.778L137.294,66.778L138.427,66.778L139.002,66.778L139.605,66.778L140.132,66.778L140.681,66.778L141.817,66.778L142.393,66.778L142.997,66.778L143.52,66.778L144.07,66.778L145.204,66.778L145.78,66.778L146.383,66.778L146.906,66.778L147.459,66.778L148.593,66.778L149.158,66.778L149.758,66.778L150.287,66.778L150.849,66.778L151.983,66.778L152.548,66.778L153.149,66.778L153.673,66.778L154.237,66.778L155.375,66.778L155.952,66.778L156.556,66.778L157.063,66.778L157.629,66.778L158.763,66.778L159.343,66.778L159.944,66.778L160.464,66.778L161.018,66.778L162.154,66.778L162.729,66.778L163.334,66.778L163.854,66.778L164.408,66.778L165.539,66.778L166.113,66.778L166.715,66.778L167.243,66.778L167.796,66.778L168.927,66.778L169.502,66.778L170.103,66.778L170.63,66.778L171.184,66.778L172.316,66.778L172.884,66.778L173.483,66.778L174.012,66.778L174.573,66.778L175.704,66.778L176.272,66.778L176.873,66.778L177.401,66.778L177.963,66.778L179.098,66.778L179.674,66.778L180.278,66.778L180.801,66.778L181.356,66.778L182.487,66.778L183.062,66.778L183.668,66.778L184.19,66.778L184.744,66.778L185.878,66.778L186.454,66.778L187.059,66.778L187.58,66.778L188.134,66.778L189.268,66.778L189.844,66.778L190.449,66.778L190.974,66.778L191.524,66.778L192.656,66.778L193.23,66.778L193.833,66.778L194.357,66.778L194.912,66.778L196.042,66.778L196.61,66.778L197.208,66.778L197.735,66.778L198.299,66.778L199.432,66.778L199.999,66.778" stroke="#54a24b" stroke-width="2"/></g></g><path class="foreground" aria-hidden="true" d="" display="none"/></g><g transform="translate(0,0)"><path class="background" aria-hidden="true" d="M0,0h200v200h-200Z"/><g><g class="mark-line role-mark marks" role="graphics-object" aria-roledescription="line mark container"><path aria-label="Time: Aug 18, 2025; Price: 899; identifier: sdrbike-escape-1-city-disc" role="graphics-symbol" aria-roledescription="line mark" d="M14.452,100.111L14.737,100.111L15.28,100.111L16.416,100.111L16.99,100.111L17.592,100.111L18.117,100.111L18.669,100.111L19.806,100.111L20.374,100.111L21.001,100.111L21.255,100.111L21.506,100.111L22.062,100.111L23.194,100.111L23.766,100.111L24.371,100.111L24.897,100.111L25.449,100.111L26.584,100.111L27.155,100.111L27.759,100.111L28.283,100.111L28.837,100.111L29.971,100.111L30.539,100.111L31.138,100.111L31.663,100.111L32.223,100.111L33.364,100.111L33.926,100.111L34.529,100.111L35.057,100.111L35.613,100.111L36.758,100.111L37.33,100.111L37.949,100.111L38.455,100.111L39.006,100.111L40.142,100.111L40.717,100.111L41.841,100.111L42.392,100.111L43.527,100.111L44.1,100.111L44.322,100.111L44.704,100.111L45.082,100.111L45.23,100.111L45.784,100.111L46.916,100.111L47.491,100.111L48.094,100.111L48.618,100.111L49.172,100.111L50.306,100.111L50.878,100.111L51.48,100.111L52.006,100.111L52.56,100.111L53.691,100.111L54.259,100.111L54.859,100.111L55.387,100.111L55.92,100.111L55.947,100.111L57.082,100.111L57.444,100.111L57.647,100.111L58.25,100.111L58.779,100.111L59.337,100.111L60.482,100.111L61.052,100.111L61.653,100.111L62.172,100.111L62.726,100.111L63.866,100.111L64.439,100.111L65.045,100.111L65.564,100.111L66.117,100.111L67.251,100.111L67.823,100.111L68.426,100.111L68.951,100.111L69.506,100.111L70.639,100.111L71.213,100.111L71.813,100.111L72.343,100.111L72.894,100.111L74.03,100.111L74.602,100.111L75.204,100.111L75.726,100.111L76.285,100.111L77.416,100.111L77.706,100.111L77.981,100.111L78.579,100.111L79.11,100.111L79.672,100.111L80.804,100.111L81.37,100.111L81.97,100.111L82.499,100.111L83.061,100.111L84.199,100.111L84.775,100.111L85.38,100.111L85.901,100.111L86.456,100.111L87.587,100.111L88.163,100.111L88.788,100.111L89.292,100.111L89.841,100.111L90.972,100.111L91.549,100.111L92.15,100.111L92.676,100.111L93.232,100.111L94.365,100.111L94.938,100.111L95.538,100.111L96.059,100.111L96.618,100.111L97.752,100.111L98.326,100.111L98.926,100.111L99.45,100.111L100.008,100.111L101.139,100.111L101.707,100.111L102.305,100.111L102.832,100.111L103.397,100.111L104.53,100.111L105.096,100.111L105.692,100.111L106.221,100.111L106.787,100.111L107.925,100.111L108.496,100.111L109.102,100.111L109.624,100.111L110.178,100.111L111.311,100.111L111.888,100.111L112.49,100.111L113.012,100.111L113.568,100.111L114.702,100.111L115.275,100.111L115.88,100.111L116.402,100.111L116.957,100.111L118.09,100.111L118.663,100.111L119.268,100.111L119.789,100.111L120.346,100.111L121.48,100.111L122.052,100.111L122.656,100.111L123.181,100.111L123.734,100.111L124.867,100.111L125.436,100.111L126.035,100.111L126.559,100.111L127.122,100.111L128.257,100.111L128.822,100.111L129.423,100.111L129.952,100.111L130.513,100.111L131.648,100.111L132.226,100.111L132.829,100.111L133.343,100.111L133.905,100.111L135.037,100.111L135.612,100.111L136.215,100.111L136.74,100.111L137.294,100.111L138.427,100.111L139.003,100.111L139.605,100.111L140.132,100.111L140.681,100.111L141.817,100.111L142.393,100.111L142.997,100.111L143.52,100.111L144.07,100.111L145.205,100.111L145.78,100.111L146.383,100.111L146.906,100.111L147.459,100.111L148.593,100.111L149.158,100.111L149.758,100.111L150.287,100.111L150.849,100.111L151.983,100.111L152.548,100.111L153.149,100.111L153.674,100.111L154.237,100.111L155.375,100.111L155.952,100.111L156.556,100.111L157.063,100.111L157.629,100.111L158.763,100.111L159.343,100.111L159.945,100.111L160.464,100.111L161.018,100.111L162.154,100.111L162.729,100.111L163.335,100.111L163.855,100.111L164.408,100.111L165.539,100.111L166.113,100.111L166.715,100.111L167.243,100.111L167.796,100.111L168.928,100.111L169.502,100.111L170.103,100.111L170.631,100.111L171.184,100.111L172.316,100.111L172.884,100.111L173.483,100.111L174.012,100.111L174.573,100.111L175.704,100.111L176.272,100.111L176.873,100.111L177.401,100.111L177.963,100.111L179.098,100.111L179.674,100.111L180.278,100.111L180.801,100.111L181.356,100.111L182.487,100.111L183.062,100.111L183.668,100.111L184.19,100.111L184.744,100.111L185.878,100.111L186.454,100.111L187.059,100.111L187.58,100.111L188.134,100.111L189.268,100.111L189.844,100.111L190.449,100.111L190.974,100.111L191.524,100.111L192.656,100.111L193.23,100.111L193.833,100.111L194.357,100.111L194.912,100.111L196.043,100.111L196.61,100.111L197.208,100.111L197.735,100.111L198.299,100.111L199.432,100.111L199.999,100.111" stroke="#f58518" stroke-width="2"/></g></g><path class="foreground" aria-hidden="true" d="" display="none"/></g><g transform="translate(0,0)"><path class="background" aria-hidden="true" d="M0,0h200v200h-200Z"/><g><g class="mark-line role-mark marks" role="graphics-object" aria-roledescription="line mark container"><path aria-label="Time: Aug 20, 2025; Price: 899; identifier: roam-disc-2-2024" role="graphics-symbol" aria-roledescription="line mark" d="M21.254,100.111L21.505,100.111L22.062,100.111L23.193,100.111L23.766,100.111L24.371,100.111L24.897,100.111L25.449,100.111L26.584,100.111L27.155,100.111L27.759,100.111L28.283,100.111L28.837,100.111L29.97,100.111L30.539,100.111L31.138,100.111L31.663,100.111L32.222,100.111L33.364,100.111L33.926,100.111L34.529,100.111L35.057,100.111L35.613,100.111L36.758,100.111L37.33,100.111L37.948,100.111L38.454,100.111L39.006,100.111L40.142,100.111L40.717,100.111L41.84,100.111L42.392,100.111L43.527,100.111L44.1,100.111L44.322,100.111L44.703,100.111L45.081,100.111L45.229,100.111L45.784,100.111L46.916,100.111L47.49,100.111L48.094,100.111L48.618,100.111L49.172,100.111L50.305,100.111L50.877,100.111L51.479,100.111L52.006,100.111L52.559,100.111L53.691,100.111L54.259,100.111L54.858,100.111L55.387,100.111L55.92,100.111L55.946,100.111L57.081,100.111L57.443,100.111L57.646,100.111L58.249,100.111L58.778,100.111L59.337,100.111L60.482,100.111L61.051,100.111L61.653,100.111L62.172,100.111L62.725,100.111L63.865,100.111L64.439,100.111L65.044,100.111L65.563,100.111L66.117,100.111L67.25,100.111L67.822,100.111L68.426,100.111L68.951,100.111L69.505,100.111L70.639,100.111L71.213,100.111L71.812,100.111L72.343,100.111L72.894,100.111L74.03,100.111L74.602,100.111L75.204,100.111L75.726,100.111L76.284,100.111L77.415,100.111L77.706,100.111L77.981,100.111L78.579,100.111L79.109,100.111L79.672,100.111L80.804,100.111L81.37,100.111L81.97,100.111L82.499,100.111L83.061,100.111L84.199,100.111L84.775,100.111L85.38,100.111L85.9,100.111L86.455,100.111L87.587,100.111L88.163,100.111L88.788,100.111L89.292,100.111L89.841,100.111L90.971,100.111L91.549,100.111L92.15,100.111L92.676,100.111L93.232,100.111L94.365,100.111L94.937,100.111L95.538,100.111L96.058,100.111L96.618,100.111L97.752,100.111L98.325,100.111L98.926,100.111L99.449,100.111L100.007,100.111L101.139,100.111L101.706,100.111L102.305,100.111L102.832,100.111L103.397,100.111L104.529,100.111L105.096,100.111L105.692,100.111L106.221,100.111L106.786,100.111L107.924,100.111L108.496,100.111L109.101,100.111L109.624,100.111L110.178,100.111L111.311,100.111L111.888,100.111L112.49,100.111L113.011,100.111L113.568,100.111L114.701,100.111L115.274,100.111L115.879,100.111L116.402,100.111L116.956,100.111L118.09,100.111L118.663,100.111L119.268,100.111L119.789,100.111L120.346,100.111L121.48,100.111L122.052,100.111L122.656,100.111L123.18,100.111L123.733,100.111L124.866,100.111L125.435,100.111L126.035,100.111L126.559,100.111L127.122,100.111L128.257,100.111L128.822,100.111L129.423,100.111L129.951,100.111L130.513,100.111L131.648,100.111L132.225,100.111L132.828,100.111L133.343,100.111L133.905,100.111L135.036,100.111L135.612,100.111L136.215,100.111L136.74,100.111L137.294,100.111L138.427,100.111L139.002,100.111L139.605,100.111L140.132,100.111L140.681,100.111L141.816,100.111L142.393,100.111L142.997,100.111L143.52,100.111L144.069,100.111L145.204,100.111L145.78,100.111L146.382,100.111L146.906,100.111L147.459,100.111L148.593,100.111L149.158,100.111L149.758,100.111L150.286,100.111L150.849,100.111L151.982,100.111L152.548,100.111L153.148,100.111L153.673,100.111L154.237,100.111L155.375,100.111L155.952,100.111L156.555,100.111L157.063,100.111L157.628,100.111L158.763,100.111L159.342,100.111L159.944,100.111L160.463,100.111L161.018,100.111L162.154,100.111L162.729,100.111L163.334,100.111L163.854,100.111L164.408,100.111L165.539,100.111L166.113,100.111L166.715,100.111L167.243,100.111L167.795,100.111L168.927,100.111L169.502,100.111L170.102,100.111L170.63,100.111L171.184,100.111L172.316,100.111L172.884,100.111L173.482,100.111L174.012,100.111L174.573,100.111L175.703,100.111L176.271,100.111L176.873,100.111L177.401,100.111L177.963,100.111L179.097,100.111L179.673,100.111L180.278,100.111L180.801,100.111L181.355,100.111L182.486,100.111L183.061,100.111L183.668,100.111L184.19,100.111L184.744,100.111L185.877,100.111L186.454,100.111L187.058,100.111L187.58,100.111L188.133,100.111L189.268,100.111L189.843,100.111L190.449,100.111L190.974,100.111L191.523,100.111L192.656,100.111L193.23,100.111L193.833,100.111L194.357,100.111L194.912,100.111L196.042,100.111L196.609,100.111L197.208,100.111L197.735,100.111L198.299,100.111L199.432,100.111L199.999,100.111" stroke="#e45756" stroke-width="2"/></g></g><path class="foreground" aria-hidden="true" d="" display="none"/></g><g transform="translate(0,0)"><path class="background" aria-hidden="true" d="M0,0h200v200h-200Z"/><g><g class="mark-line role-mark marks" role="graphics-object" aria-roledescription="line mark container"><path aria-label="Time: Aug 20, 2025; Price: 1199; identifier: thrive-2" role="graphics-symbol" aria-roledescription="line mark" d="M21.255,66.778L21.506,66.778L22.062,66.778L23.194,66.778L23.767,66.778L24.371,66.778L24.897,66.778L25.449,66.778L26.584,66.778L27.155,66.778L27.759,66.778L28.283,66.778L28.837,66.778L29.971,66.778L30.539,66.778L31.138,66.778L31.663,66.778L32.223,66.778L33.364,66.778L33.926,66.778L34.529,66.778L35.057,66.778L35.613,66.778L36.758,66.778L37.33,66.778L37.949,66.778L38.455,66.778L39.007,66.778L40.142,66.778L40.718,66.778L41.841,66.778L42.392,66.778L43.527,66.778L44.1,66.778L44.323,66.778L44.704,66.778L45.082,66.778L45.23,66.778L45.784,66.778L46.916,66.778L47.491,66.778L48.095,66.778L48.618,66.778L49.172,66.778L50.306,66.778L50.878,66.778L51.48,66.778L52.006,66.778L52.56,66.778L53.691,66.778L54.259,66.778L54.859,66.778L55.387,66.778L55.92,66.778L55.947,66.778L57.082,66.778L57.444,66.778L57.647,66.778L58.25,66.778L58.779,66.778L59.337,66.778L60.482,66.778L61.052,66.778L61.653,66.778L62.172,66.778L62.726,66.778L63.866,66.778L64.439,66.778L65.045,66.778L65.564,66.778L66.118,66.778L67.251,66.778L67.823,66.778L68.427,66.778L68.951,66.778L69.506,66.778L70.639,66.778L71.213,66.778L71.813,66.778L72.343,66.778L72.894,66.778L74.03,66.778L74.602,66.778L75.204,66.778L75.726,66.778L76.285,66.778L77.416,66.778L77.706,66.778L77.981,66.778L78.579,66.778L79.11,66.778L79.672,66.778L80.804,66.778L81.37,66.778L81.971,66.778L82.499,66.778L83.061,66.778L84.199,66.778L84.776,66.778L85.38,66.778L85.901,66.778L86.456,66.778L87.587,66.778L88.163,66.778L88.788,66.778L89.292,66.778L89.841,66.778L90.972,66.778L91.55,66.778L92.15,66.778L92.676,66.778L93.232,66.778L94.365,66.778L94.938,66.778L95.538,66.778L96.059,66.778L96.618,66.778L97.752,66.778L98.326,66.778L98.926,66.778L99.45,66.778L100.008,66.778L101.139,66.778L101.707,66.778L102.305,66.778L102.833,66.778L103.397,66.778L104.53,66.778L105.096,66.778L105.692,66.778L106.221,66.778L106.787,66.778L107.925,66.778L108.496,66.778L109.102,66.778L109.624,66.778L110.178,66.778L111.311,66.778L111.888,66.778L112.49,66.778L113.012,66.778L113.568,66.778L114.702,66.778L115.275,66.778L115.88,66.778L116.402,66.778L116.957,66.778L118.091,66.778L118.663,66.778L119.268,66.778L119.789,66.778L120.347,66.778L121.48,66.778L122.053,66.778L122.656,66.778L123.181,66.778L123.734,66.778L124.867,66.778L125.436,66.778L126.035,66.778L126.559,66.778L127.122,66.778L128.257,66.778L128.822,66.778L129.423,66.778L129.952,66.778L130.513,66.778L131.649,66.778L132.226,66.778L132.829,66.778L133.343,66.778L133.905,66.778L135.037,66.778L135.612,66.778L136.215,66.778L136.74,66.778L137.294,66.778L138.427,66.778L139.003,66.778L139.605,66.778L140.132,66.778L140.681,66.778L141.817,66.778L142.393,66.778L142.997,66.778L143.52,66.778L144.07,66.778L145.205,66.778L145.781,66.778L146.383,66.778L146.906,66.778L147.46,66.778L148.593,66.778L149.158,66.778L149.758,66.778L150.287,66.778L150.849,66.778L151.983,66.778L152.548,66.778L153.149,66.778L153.674,66.778L154.237,66.778L155.375,66.778L155.952,66.778L156.556,66.778L157.063,66.778L157.629,66.778L158.763,66.778L159.343,66.778L159.945,66.778L160.464,66.778L161.019,66.778L162.154,66.778L162.73,66.778L163.335,66.778L163.855,66.778L164.408,66.778L165.539,66.778L166.113,66.778L166.715,66.778L167.243,66.778L167.796,66.778L168.928,66.778L169.502,66.778L170.103,66.778L170.631,66.778L171.184,66.778L172.316,66.778L172.885,66.778L173.483,66.778L174.013,66.778L174.573,66.778L175.704,66.778L176.272,66.778L176.873,66.778L177.401,66.778L177.963,66.778L179.098,66.778L179.674,66.778L180.278,66.778L180.801,66.778L181.356,66.778L182.487,66.778L183.062,66.778L183.668,66.778L184.19,66.778L184.744,66.778L185.878,66.778L186.454,66.778L187.059,66.778L187.58,66.778L188.134,66.778L189.269,66.778L189.844,66.778L190.449,66.778L190.974,66.778L191.524,66.778L192.656,66.778L193.23,66.778L193.833,66.778L194.357,66.778L194.912,66.778L196.043,66.778L196.61,66.778L197.208,66.778L197.735,66.778L198.299,66.778L199.432,66.778L199.999,66.778" stroke="#eeca3b" stroke-width="2"/></g></g><path class="foreground" aria-hidden="true" d="" display="none"/></g><g transform="translate(0,0)"><path class="background" aria-hidden="true" d="M0,0h200v200h-200Z"/><g><g class="mark-line role-mark marks" role="graphics-object" aria-roledescription="line mark container"><path aria-label="Time: Aug 20, 2025; Price: 999; identifier: rove-2" role="graphics-symbol" aria-roledescription="line mark" d="M21.255,89L21.506,89L22.062,89L23.194,89L23.767,89L24.371,89L24.897,89L25.45,89L26.584,89L27.155,89L27.759,89L28.283,89L28.837,89L29.971,89L30.539,89L31.138,89L31.663,89L32.223,89L33.364,89L33.926,89L34.53,89L35.057,89L35.613,89L36.758,89L37.33,89L37.949,89L38.455,89L39.007,89L40.143,89L40.718,89L41.841,89L42.392,89L43.527,89L44.1,89L44.323,89L44.704,89L45.082,89L45.23,89L45.784,89L46.916,89L47.491,89L48.095,89L48.618,89L49.172,89L50.306,89L50.878,89L51.48,89L52.006,89L52.56,89L55.921,111.222L55.947,111.222L57.082,111.222L57.444,111.222L57.647,111.222L58.25,111.222L58.779,111.222L59.337,111.222L60.482,111.222L61.052,111.222L61.653,111.222L62.172,111.222L62.726,111.222L63.866,111.222L64.439,111.222L65.045,111.222L65.564,111.222L66.118,111.222L67.251,111.222L67.823,111.222L68.427,111.222L68.951,111.222L69.506,111.222L70.639,111.222L71.214,111.222L71.813,111.222L72.343,111.222L72.894,111.222L74.03,111.222L74.602,111.222L75.204,111.222L75.726,111.222L76.285,111.222L77.416,111.222L77.706,111.222L77.981,111.222L78.579,111.222L79.11,111.222L79.672,111.222L80.804,111.222L81.37,111.222L81.971,111.222L82.499,111.222L83.061,111.222L84.199,111.222L84.776,111.222L85.38,111.222L85.901,111.222L86.456,111.222L87.587,111.222L88.164,111.222L88.788,111.222L89.292,111.222L89.841,111.222L90.972,111.222L91.55,111.222L92.15,111.222L92.676,111.222L93.232,111.222L94.366,111.222L94.938,111.222L95.538,111.222L96.059,111.222L96.619,111.222L97.752,111.222L98.326,111.222L98.926,111.222L99.45,111.222L100.008,111.222L101.139,111.222L101.707,111.222L102.305,111.222L102.833,111.222L103.397,111.222L104.53,111.222L105.096,111.222L105.692,111.222L106.221,111.222L106.787,111.222L107.925,111.222L108.496,111.222L109.102,111.222L109.624,111.222L110.178,111.222L111.311,111.222L111.888,111.222L112.49,111.222L113.012,111.222L113.568,111.222L114.702,111.222L115.275,111.222L115.88,111.222L116.402,111.222L116.957,111.222L118.091,111.222L118.663,111.222L119.268,111.222L119.789,111.222L120.347,111.222L121.48,111.222L122.053,111.222L122.656,111.222L123.181,111.222L123.734,111.222L124.867,111.222L125.436,111.222L126.035,111.222L126.56,111.222L127.122,111.222L128.257,111.222L128.822,111.222L129.424,111.222L129.952,111.222L130.513,111.222L131.649,111.222L132.226,111.222L132.829,111.222L133.343,111.222L133.905,111.222L135.037,111.222L135.612,111.222L136.215,111.222L136.74,111.222L137.294,111.222L138.427,111.222L139.003,111.222L139.605,111.222L140.132,111.222L140.681,111.222L141.817,111.222L142.393,111.222L142.998,111.222L143.521,111.222L144.07,111.222L145.205,111.222L145.781,111.222L146.383,111.222L146.907,111.222L147.46,111.222L148.593,111.222L149.158,111.222L149.758,111.222L150.287,111.222L150.849,111.222L151.983,111.222L152.548,111.222L153.149,111.222L153.674,111.222L154.237,111.222L155.375,111.222L155.952,111.222L156.556,111.222L157.063,111.222L157.629,111.222L158.763,111.222L159.343,111.222L159.945,111.222L160.464,111.222L161.019,111.222L162.154,111.222L162.73,111.222L163.335,111.222L163.855,111.222L164.408,111.222L165.54,111.222L166.113,111.222L166.715,111.222L167.243,111.222L167.796,111.222L168.928,111.222L169.502,111.222L170.103,111.222L170.631,111.222L171.184,111.222L172.316,111.222L172.885,111.222L173.483,111.222L174.013,111.222L174.573,111.222L175.704,111.222L176.272,111.222L176.873,111.222L177.402,111.222L177.963,111.222L179.098,111.222L179.674,111.222L180.278,111.222L180.801,111.222L181.356,111.222L182.487,111.222L183.062,111.222L183.668,111.222L184.19,111.222L184.744,111.222L185.878,111.222L186.454,111.222L187.059,111.222L187.58,111.222L188.134,111.222L189.269,111.222L189.844,111.222L190.449,111.222L190.974,111.222L191.524,111.222L192.656,111.222L193.231,111.222L193.833,111.222L194.357,111.222L194.913,111.222L196.043,111.222L196.61,111.222L197.209,111.222L197.735,111.222L198.299,111.222L199.433,111.222L199.999,111.222" stroke="#72b7b2" stroke-width="2"/></g></g><path class="foreground" aria-hidden="true" d="" display="none"/></g><g transform="translate(0,0)"><path class="background" aria-hidden="true" d="M0,0h200v200h-200Z"/><g><g class="mark-line role-mark marks" role="graphics-object" aria-roledescription="line mark container"><path aria-label="Time: Aug 27, 2025; Price: 1199; identifier: allure-rs-1-2023" role="graphics-symbol" aria-roledescription="line mark" d="M44.323,66.778L44.704,66.778L45.082,66.778L45.23,66.778L45.784,66.778L46.916,66.778L47.491,66.778L48.095,66.778L48.619,66.778L49.172,66.778L50.306,66.778L50.878,66.778L51.48,66.778L52.006,66.778L52.56,66.778L53.691,66.778L54.259,66.778L54.859,66.778L55.388,66.778L55.921,66.778L55.947,66.778L57.082,66.778L57.444,66.778L57.647,66.778L58.25,66.778L58.779,66.778L59.337,66.778L60.482,66.778L61.052,66.778L61.653,66.778L62.172,66.778L62.726,66.778L63.866,66.778L64.439,66.778L65.045,66.778L65.564,66.778L66.118,66.778L67.251,66.778L67.823,66.778L68.427,66.778L68.951,66.778L69.506,66.778L70.639,66.778L71.214,66.778L71.813,66.778L72.343,66.778L72.894,66.778L74.03,66.778L74.602,66.778L75.204,66.778L75.726,66.778L76.285,66.778L77.416,66.778L77.707,66.778L77.981,66.778L78.579,66.778L79.11,66.778L79.672,66.778L80.804,66.778L81.37,66.778L81.971,66.778L82.5,66.778L83.061,66.778L84.199,66.778L84.776,66.778L85.38,66.778L85.901,66.778L86.456,66.778L87.587,66.778L88.164,66.778L88.789,66.778L89.292,66.778L89.841,66.778L90.972,66.778L91.55,66.778L92.151,66.778L92.676,66.778L93.232,66.778L94.366,66.778L94.938,66.778L95.538,66.778L96.059,66.778L96.619,66.778L97.752,66.778L98.326,66.778L98.926,66.778L99.45,66.778L100.008,66.778L101.139,66.778L101.707,66.778L102.305,66.778L102.833,66.778L103.397,66.778L104.53,66.778L105.096,66.778L105.692,66.778L106.221,66.778L106.787,66.778L107.925,66.778L108.496,66.778L109.102,66.778L109.624,66.778L110.179,66.778L111.311,66.778L111.889,66.778L112.491,66.778L113.012,66.778L113.568,66.778L114.702,66.778L115.275,66.778L115.88,66.778L116.402,66.778L116.957,66.778L118.091,66.778L118.663,66.778L119.268,66.778L119.79,66.778L120.347,66.778L121.48,66.778L122.053,66.778L122.656,66.778L123.181,66.778L123.734,66.778L124.867,66.778L125.436,66.778L126.035,66.778L126.56,66.778L127.122,66.778L128.258,66.778L128.822,66.778L129.424,66.778L129.952,66.778L130.513,66.778L131.649,66.778L132.226,66.778L132.829,66.778L133.343,66.778L133.905,66.778L135.037,66.778L135.612,66.778L136.215,66.778L136.741,66.778L137.294,66.778L138.427,66.778L139.003,66.778L139.606,66.778L140.132,66.778L140.681,66.778L141.817,66.778L142.393,66.778L142.998,66.778L143.521,66.778L144.07,66.778L145.205,66.778L145.781,66.778L146.383,66.778L146.907,66.778L147.46,66.778L148.593,66.778L149.158,66.778L149.759,66.778L150.287,66.778L150.849,66.778L151.983,66.778L152.548,66.778L153.149,66.778L153.674,66.778L154.238,66.778L155.375,66.778L155.952,66.778L156.556,66.778L157.063,66.778L157.629,66.778L158.763,66.778L159.343,66.778L159.945,66.778L160.464,66.778L161.019,66.778L162.155,66.778L162.73,66.778L163.335,66.778L163.855,66.778L164.409,66.778L165.54,66.778L166.113,66.778L166.715,66.778L167.243,66.778L167.796,66.778L168.928,66.778L169.503,66.778L170.103,66.778L170.631,66.778L171.184,66.778L172.316,66.778L172.885,66.778L173.483,66.778L174.013,66.778L174.574,66.778L175.704,66.778L176.272,66.778L176.873,66.778L177.402,66.778L177.964,66.778L179.098,66.778L179.674,66.778L180.279,66.778L180.801,66.778L181.356,66.778L182.487,66.778L183.062,66.778L183.668,66.778L184.19,66.778L184.744,66.778L185.878,66.778L186.454,66.778L187.059,66.778L187.58,66.778L188.134,66.778L189.269,66.778L189.844,66.778L190.449,66.778L190.975,66.778L191.524,66.778L192.656,66.778L193.231,66.778L193.833,66.778L194.357,66.778L194.913,66.778L196.043,66.778L196.61,66.778L197.209,66.778L197.735,66.778L198.299,66.778L199.433,66.778L199.999,66.778" stroke="#b279a2" stroke-width="2"/></g></g><path class="foreground" aria-hidden="true" d="" display="none"/></g><g transform="translate(0,0)"><path class="background" aria-hidden="true" d="M0,0h200v200h-200Z"/><g><g class="mark-line role-mark marks" role="graphics-object" aria-roledescription="line mark container"><path aria-label="Time: Aug 27, 2025; Price: 999; identifier: allure-rs-2-2022" role="graphics-symbol" aria-roledescription="line mark" d="M44.323,89L44.704,89L45.082,89L45.23,89L45.784,89L46.916,89L47.491,89L48.095,89L48.619,89L49.172,89L50.306,89L50.878,89L51.48,89L52.007,89L52.56,89L55.921,111.222L55.947,111.222L57.082,111.222L57.444,111.222L57.647,111.222L58.25,111.222L58.779,111.222L59.338,111.222L60.482,111.222L61.052,111.222L61.653,111.222L62.173,111.222L62.726,111.222L63.866,111.222L64.439,111.222L65.045,111.222L65.564,111.222L66.118,111.222L67.251,111.222L67.823,111.222L68.427,111.222L68.952,111.222L69.506,111.222L70.64,111.222L71.214,111.222L71.813,111.222L72.343,111.222L72.895,111.222L74.03,111.222L74.602,111.222L75.204,111.222L75.726,111.222L76.285,111.222L77.416,111.222L77.707,111.222L77.982,111.222L78.579,111.222L79.11,111.222L79.672,111.222L80.804,111.222L81.37,111.222L81.971,111.222L82.5,111.222L83.062,111.222L84.199,111.222L84.776,111.222L85.38,111.222L85.901,111.222L86.456,111.222L87.587,111.222L88.164,111.222L88.789,111.222L89.292,111.222L89.841,111.222L90.972,111.222L91.55,111.222L92.151,111.222L92.676,111.222L93.232,111.222L94.366,111.222L94.938,111.222L95.538,111.222L96.059,111.222L96.619,111.222L97.752,111.222L98.326,111.222L98.926,111.222L99.45,111.222L100.008,111.222L101.14,111.222L101.707,111.222L102.306,111.222L102.833,111.222L103.398,111.222L104.53,111.222L105.097,111.222L105.692,111.222L106.221,111.222L106.787,111.222L107.925,111.222L108.496,111.222L109.102,111.222L109.625,111.222L110.179,111.222L111.312,111.222L111.889,111.222L112.491,111.222L113.012,111.222L113.568,111.222L114.702,111.222L115.275,111.222L115.88,111.222L116.402,111.222L116.957,111.222L118.091,111.222L118.663,111.222L119.268,111.222L119.79,111.222L120.347,111.222L121.48,111.222L122.053,111.222L122.656,111.222L123.181,111.222L123.734,111.222L124.867,111.222L125.436,111.222L126.035,111.222L126.56,111.222L127.122,111.222L128.258,111.222L128.823,111.222L129.424,111.222L129.952,111.222L130.513,111.222L131.649,111.222L132.226,111.222L132.829,111.222L133.344,111.222L133.905,111.222L135.037,111.222L135.612,111.222L136.215,111.222L136.741,111.222L137.294,111.222L138.428,111.222L139.003,111.222L139.606,111.222L140.132,111.222L140.681,111.222L141.817,111.222L142.393,111.222L142.998,111.222L143.521,111.222L144.07,111.222L145.205,111.222L145.781,111.222L146.383,111.222L146.907,111.222L147.46,111.222L148.593,111.222L149.159,111.222L149.759,111.222L150.287,111.222L150.849,111.222L151.983,111.222L152.548,111.222L153.149,111.222L153.674,111.222L154.238,111.222L155.375,111.222L155.952,111.222L156.556,111.222L157.063,111.222L157.629,111.222L158.763,111.222L159.343,111.222L159.945,111.222L160.464,111.222L161.019,111.222L162.155,111.222L162.73,111.222L163.335,111.222L163.855,111.222L164.409,111.222L165.54,111.222L166.113,111.222L166.715,111.222L167.243,111.222L167.796,111.222L168.928,111.222L169.503,111.222L170.103,111.222L170.631,111.222L171.185,111.222L172.316,111.222L172.885,111.222L173.483,111.222L174.013,111.222L174.574,111.222L175.704,111.222L176.272,111.222L176.874,111.222L177.402,111.222L177.964,111.222L179.098,111.222L179.674,111.222L180.279,111.222L180.802,111.222L181.356,111.222L182.487,111.222L183.062,111.222L183.669,111.222L184.19,111.222L184.745,111.222L185.878,111.222L186.455,111.222L187.059,111.222L187.58,111.222L188.134,111.222L189.269,111.222L189.844,111.222L190.449,111.222L190.975,111.222L191.524,111.222L192.657,111.222L193.231,111.222L193.833,111.222L194.357,111.222L194.913,111.222L196.043,111.222L196.61,111.222L197.209,111.222L197.735,111.222L198.299,111.222L199.433,111.222L199.999,111.222" stroke="#54a24b" stroke-width="2"/></g></g><path class="foreground" aria-hidden="true" d="" display="none"/></g><g transform="translate(0,0)"><path class="background" aria-hidden="true" d="M0,0h200v200h-200Z"/><g><g class="mark-line role-mark marks" role="graphics-object" aria-roledescription="line mark container"><path aria-label="Time: Aug 27, 2025; Price: 949; identifier: allure-rs-2-2023" role="graphics-symbol" aria-roledescription="line mark" d="M44.324,94.556L44.704,94.556L45.082,94.556L45.23,94.556L45.785,94.556L46.916,94.556L47.491,94.556L48.095,94.556L48.619,94.556L49.172,94.556L50.306,94.556L50.878,94.556L51.48,94.556L52.007,94.556L52.56,94.556L53.691,94.556L54.259,94.556L54.859,94.556L55.388,94.556L55.921,94.556L55.947,94.556L57.082,94.556L57.444,94.556L57.647,94.556L58.25,94.556L58.779,94.556L59.338,94.556L60.482,94.556L61.052,94.556L61.653,94.556L62.173,94.556L62.726,94.556L63.866,94.556L64.439,94.556L65.045,94.556L65.564,94.556L66.118,94.556L67.251,94.556L67.823,94.556L68.427,94.556L68.952,94.556L69.506,94.556L70.64,94.556L71.214,94.556L71.813,94.556L72.344,94.556L72.895,94.556L74.03,94.556L74.602,94.556L75.204,94.556L75.726,94.556L76.285,94.556L77.416,94.556L77.707,94.556L77.982,94.556L78.579,94.556L79.11,94.556L79.672,94.556L80.804,94.556L81.371,94.556L81.971,94.556L82.5,94.556L83.062,94.556L84.199,94.556L84.776,94.556L85.38,94.556L85.901,94.556L86.456,94.556L87.587,94.556L88.164,94.556L88.789,94.556L89.293,94.556L89.841,94.556L90.972,94.556L91.55,94.556L92.151,94.556L92.676,94.556L93.232,94.556L94.366,94.556L94.938,94.556L95.539,94.556L96.059,94.556L96.619,94.556L97.752,94.556L98.326,94.556L98.926,94.556L99.45,94.556L100.008,94.556L101.14,94.556L101.707,94.556L102.306,94.556L102.833,94.556L103.398,94.556L104.53,94.556L105.097,94.556L105.692,94.556L106.221,94.556L106.787,94.556L107.925,94.556L108.496,94.556L109.102,94.556L109.625,94.556L110.179,94.556L111.312,94.556L111.889,94.556L112.491,94.556L113.012,94.556L113.568,94.556L114.702,94.556L115.275,94.556L115.88,94.556L116.402,94.556L116.957,94.556L118.091,94.556L118.664,94.556L119.269,94.556L119.79,94.556L120.347,94.556L121.48,94.556L122.053,94.556L122.656,94.556L123.181,94.556L123.734,94.556L124.867,94.556L125.436,94.556L126.036,94.556L126.56,94.556L127.122,94.556L128.258,94.556L128.823,94.556L129.424,94.556L129.952,94.556L130.513,94.556L131.649,94.556L132.226,94.556L132.829,94.556L133.344,94.556L133.905,94.556L135.037,94.556L135.612,94.556L136.216,94.556L136.741,94.556L137.295,94.556L138.428,94.556L139.003,94.556L139.606,94.556L140.132,94.556L140.681,94.556L141.817,94.556L142.393,94.556L142.998,94.556L143.521,94.556L144.07,94.556L145.205,94.556L145.781,94.556L146.383,94.556L146.907,94.556L147.46,94.556L148.594,94.556L149.159,94.556L149.759,94.556L150.287,94.556L150.849,94.556L151.983,94.556L152.548,94.556L153.149,94.556L153.674,94.556L154.238,94.556L155.376,94.556L155.953,94.556L156.556,94.556L157.063,94.556L157.629,94.556L158.763,94.556L159.343,94.556L159.945,94.556L160.464,94.556L161.019,94.556L162.155,94.556L162.73,94.556L163.335,94.556L163.855,94.556L164.409,94.556L165.54,94.556L166.113,94.556L166.715,94.556L167.243,94.556L167.796,94.556L168.928,94.556L169.503,94.556L170.103,94.556L170.631,94.556L171.185,94.556L172.316,94.556L172.885,94.556L173.483,94.556L174.013,94.556L174.574,94.556L175.704,94.556L176.272,94.556L176.874,94.556L177.402,94.556L177.964,94.556L179.098,94.556L179.674,94.556L180.279,94.556L180.802,94.556L181.356,94.556L182.487,94.556L183.062,94.556L183.669,94.556L184.191,94.556L184.745,94.556L185.878,94.556L186.455,94.556L187.059,94.556L187.58,94.556L188.134,94.556L189.269,94.556L189.844,94.556L190.449,94.556L190.975,94.556L191.524,94.556L192.657,94.556L193.231,94.556L193.834,94.556L194.358,94.556L194.913,94.556L196.043,94.556L196.61,94.556L197.209,94.556L197.735,94.556L198.299,94.556L199.433,94.556L199.999,94.556" stroke="#bab0ac" stroke-width="2"/></g></g><path class="foreground" aria-hidden="true" d="" display="none"/></g><g transform="translate(0,0)"><path class="background" aria-hidden="true" d="M0,0h200v200h-200Z"/><g><g class="mark-line role-mark marks" role="graphics-object" aria-roledescription="line mark container"><path aria-label="Time: Aug 27, 2025; Price: 999; identifier: allure-rs-2-2024" role="graphics-symbol" aria-roledescription="line mark" d="M44.324,89L44.704,89L45.082,89L45.23,89L45.785,89L46.916,89L47.491,89L48.095,89L48.619,89L49.172,89L50.306,89L50.878,89L51.48,89L52.007,89L52.56,89L55.921,111.222L55.947,111.222L57.082,111.222L57.444,111.222L57.647,111.222L58.25,111.222L58.779,111.222L59.338,111.222L60.482,111.222L61.052,111.222L61.654,111.222L62.173,111.222L62.726,111.222L63.866,111.222L64.439,111.222L65.045,111.222L65.564,111.222L66.118,111.222L67.251,111.222L67.823,111.222L68.427,111.222L68.952,111.222L69.506,111.222L70.64,111.222L71.214,111.222L71.813,111.222L72.344,111.222L72.895,111.222L74.03,111.222L74.602,111.222L75.204,111.222L75.726,111.222L76.285,111.222L77.416,111.222L77.707,111.222L77.982,111.222L78.58,111.222L79.11,111.222L79.672,111.222L80.804,111.222L81.371,111.222L81.971,111.222L82.5,111.222L83.062,111.222L84.2,111.222L84.776,111.222L85.38,111.222L85.901,111.222L86.456,111.222L87.587,111.222L88.164,111.222L88.789,111.222L89.293,111.222L89.842,111.222L90.972,111.222L91.55,111.222L92.151,111.222L92.677,111.222L93.233,111.222L94.366,111.222L94.938,111.222L95.539,111.222L96.059,111.222L96.619,111.222L97.753,111.222L98.326,111.222L98.927,111.222L99.45,111.222L100.008,111.222L101.14,111.222L101.707,111.222L102.306,111.222L102.833,111.222L103.398,111.222L104.53,111.222L105.097,111.222L105.693,111.222L106.221,111.222L106.787,111.222L107.925,111.222L108.496,111.222L109.102,111.222L109.625,111.222L110.179,111.222L111.312,111.222L111.889,111.222L112.491,111.222L113.012,111.222L113.568,111.222L114.702,111.222L115.275,111.222L115.88,111.222L116.402,111.222L116.957,111.222L118.091,111.222L118.664,111.222L119.269,111.222L119.79,111.222L120.347,111.222L121.48,111.222L122.053,111.222L122.657,111.222L123.181,111.222L123.734,111.222L124.867,111.222L125.436,111.222L126.036,111.222L126.56,111.222L127.122,111.222L128.258,111.222L128.823,111.222L129.424,111.222L129.952,111.222L130.513,111.222L131.649,111.222L132.226,111.222L132.829,111.222L133.344,111.222L133.906,111.222L135.037,111.222L135.612,111.222L136.216,111.222L136.741,111.222L137.295,111.222L138.428,111.222L139.003,111.222L139.606,111.222L140.132,111.222L140.681,111.222L141.817,111.222L142.394,111.222L142.998,111.222L143.521,111.222L144.07,111.222L145.205,111.222L145.781,111.222L146.383,111.222L146.907,111.222L147.46,111.222L148.594,111.222L149.159,111.222L149.759,111.222L150.287,111.222L150.849,111.222L151.983,111.222L152.548,111.222L153.149,111.222L153.674,111.222L154.238,111.222L155.376,111.222L155.953,111.222L156.556,111.222L157.063,111.222L157.629,111.222L158.763,111.222L159.343,111.222L159.945,111.222L160.464,111.222L161.019,111.222L162.155,111.222L162.73,111.222L163.335,111.222L163.855,111.222L164.409,111.222L165.54,111.222L166.114,111.222L166.715,111.222L167.244,111.222L167.796,111.222L168.928,111.222L169.503,111.222L170.103,111.222L170.631,111.222L171.185,111.222L172.317,111.222L172.885,111.222L173.483,111.222L174.013,111.222L174.574,111.222L175.704,111.222L176.272,111.222L176.874,111.222L177.402,111.222L177.964,111.222L179.098,111.222L179.674,111.222L180.279,111.222L180.802,111.222L181.356,111.222L182.487,111.222L183.062,111.222L183.669,111.222L184.191,111.222L184.745,111.222L185.878,111.222L186.455,111.222L187.059,111.222L187.58,111.222L188.134,111.222L189.269,111.222L189.844,111.222L190.449,111.222L190.975,111.222L191.524,111.222L192.657,111.222L193.231,111.222L193.834,111.222L194.358,111.222L194.913,111.222L196.043,111.222L196.61,111.222L197.209,111.222L197.736,111.222L198.299,111.222L199.433,111.222L200,111.222" stroke="#eeca3b" stroke-width="2"/></g></g><path class="foreground" aria-hidden="true" d="" display="none"/></g><g transform="translate(0,0)"><path class="background" aria-hidden="true" d="M0,0h200v200h-200Z"/><g><g class="mark-line role-mark marks" role="graphics-object" aria-roledescription="line mark container"><path aria-label="Time: Aug 27, 2025; Price: 1799; identifier: devote-1-2024" role="graphics-symbol" aria-roledescription="line mark" d="M45.082,0.111L45.23,0.111L45.785,0.111L46.917,0.111L47.491,0.111L48.095,0.111L48.619,0.111L49.173,0.111L50.306,0.111L50.878,0.111L51.48,0.111L52.007,0.111L52.56,0.111L55.921,44.556L55.947,44.556L57.082,44.556L57.444,44.556L57.647,44.556L58.25,44.556L58.779,44.556L59.338,44.556L60.482,44.556L61.052,44.556L61.654,44.556L62.173,44.556L62.726,44.556L63.866,44.556L64.439,44.556L65.045,44.556L65.564,44.556L66.118,44.556L67.251,44.556L67.823,44.556L68.427,44.556L68.952,44.556L69.506,44.556L70.64,44.556L71.214,44.556L71.813,44.556L72.344,44.556L72.895,44.556L74.03,44.556L74.602,44.556L75.204,44.556L75.727,44.556L76.285,44.556L77.416,44.556L77.707,44.556L77.982,44.556L78.58,44.556L79.11,44.556L79.673,44.556L80.804,44.556L81.371,44.556L81.971,44.556L82.5,44.556L83.062,44.556L84.2,44.556L84.776,44.556L85.381,44.556L85.901,44.556L86.456,44.556L87.588,44.556L88.164,44.556L88.789,44.556L89.293,44.556L89.842,44.556L90.972,44.556L91.55,44.556L92.151,44.556L92.677,44.556L93.233,44.556L94.366,44.556L94.938,44.556L95.539,44.556L96.059,44.556L96.619,44.556L97.753,44.556L98.326,44.556L98.927,44.556L99.45,44.556L100.008,44.556L101.14,44.556L101.707,44.556L102.306,44.556L102.833,44.556L103.398,44.556L104.53,44.556L105.097,44.556L105.693,44.556L106.221,44.556L106.787,44.556L107.925,44.556L108.497,44.556L109.103,44.556L109.625,44.556L110.18,44.556L111.312,44.556L111.889,44.556L112.491,44.556L113.012,44.556L113.569,44.556L114.702,44.556L115.275,44.556L115.88,44.556L116.403,44.556L116.957,44.556L118.091,44.556L118.664,44.556L119.269,44.556L119.79,44.556L120.347,44.556L121.481,44.556L122.053,44.556L122.657,44.556L123.181,44.556L123.734,44.556L124.867,44.556L125.436,44.556L126.036,44.556L126.56,44.556L127.122,44.556L128.258,44.556L128.823,44.556L129.424,44.556L129.952,44.556L130.513,44.556L131.649,44.556L132.226,44.556L132.829,44.556L133.344,44.556L133.906,44.556L135.037,44.556L135.613,44.556L136.216,44.556L136.741,44.556L137.295,44.556L138.428,44.556L139.003,44.556L139.606,44.556L140.133,44.556L140.682,44.556L141.817,44.556L142.394,44.556L142.998,44.556L143.521,44.556L144.07,44.556L145.205,44.556L145.781,44.556L146.383,44.556L146.907,44.556L147.46,44.556L148.594,44.556L149.159,44.556L149.759,44.556L150.287,44.556L150.85,44.556L151.983,44.556L152.548,44.556L153.15,44.556L153.674,44.556L154.238,44.556L155.376,44.556L155.953,44.556L156.556,44.556L157.063,44.556L157.629,44.556L158.764,44.556L159.343,44.556L159.945,44.556L160.464,44.556L161.019,44.556L162.155,44.556L162.73,44.556L163.335,44.556L163.855,44.556L164.409,44.556L165.54,44.556L166.114,44.556L166.716,44.556L167.244,44.556L167.796,44.556L168.928,44.556L169.503,44.556L170.103,44.556L170.631,44.556L171.185,44.556L172.317,44.556L172.885,44.556L173.483,44.556L174.013,44.556L174.574,44.556L175.704,44.556L176.272,44.556L176.874,44.556L177.402,44.556L177.964,44.556L179.098,44.556L179.674,44.556L180.279,44.556L180.802,44.556L181.356,44.556L182.487,44.556L183.062,44.556L183.669,44.556L184.191,44.556L184.745,44.556L185.878,44.556L186.455,44.556L187.059,44.556L187.58,44.556L188.134,44.556L189.269,44.556L189.844,44.556L190.45,44.556L190.975,44.556L191.524,44.556L192.657,44.556L193.231,44.556L193.834,44.556L194.358,44.556L194.913,44.556L196.043,44.556L196.61,44.556L197.209,44.556L197.736,44.556L198.299,44.556L199.433,44.556L200,44.556" stroke="#72b7b2" stroke-width="2"/></g></g><path class="foreground" aria-hidden="true" d="" display="none"/></g><g transform="translate(0,0)"><path class="background" aria-hidden="true" d="M0,0h200v200h-200Z"/><g><g class="mark-line role-mark marks" role="graphics-object" aria-roledescription="line mark container"><path aria-label="Time: Aug 27, 2025; Price: 1699; identifier: devote-1-2022" role="graphics-symbol" aria-roledescription="line mark" d="M45.082,11.222L45.23,11.222L45.785,11.222L46.917,11.222L47.491,11.222L48.095,11.222L48.619,11.222L49.173,11.222L50.306,11.222L50.878,11.222L51.48,11.222L52.007,11.222L52.56,11.222L53.692,11.222L54.26,11.222L54.859,11.222L55.388,11.222L55.921,11.222L55.947,11.222L57.082,11.222L57.444,11.222L57.648,11.222L58.25,11.222L58.779,11.222L59.338,11.222L60.482,11.222L61.052,11.222L61.654,11.222L62.173,11.222L62.727,11.222L63.867,11.222L64.439,11.222L65.045,11.222L65.564,11.222L66.118,11.222L67.251,11.222L67.823,11.222L68.427,11.222L68.952,11.222L69.506,11.222L70.64,11.222L71.214,11.222L71.813,11.222L72.344,11.222L72.895,11.222L74.03,11.222L74.602,11.222L75.204,11.222L75.727,11.222L76.285,11.222L77.416,11.222L77.707,11.222L77.982,11.222L78.58,11.222L79.11,11.222L79.673,11.222L80.804,11.222L81.371,11.222L81.971,11.222L82.5,11.222L83.062,11.222L84.2,11.222L84.776,11.222L85.381,11.222L85.901,11.222L86.456,11.222L87.588,11.222L88.164,11.222L88.789,11.222L89.293,11.222L89.842,11.222L90.972,11.222L91.55,11.222L92.151,11.222L92.677,11.222L93.233,11.222L94.366,11.222L94.938,11.222L95.539,11.222L96.059,11.222L96.619,11.222L97.753,11.222L98.326,11.222L98.927,11.222L99.45,11.222L100.008,11.222L101.14,11.222L101.707,11.222L102.306,11.222L102.833,11.222L103.398,11.222L104.531,11.222L105.097,11.222L105.693,11.222L106.221,11.222L106.787,11.222L107.925,11.222L108.497,11.222L109.103,11.222L109.626,11.222L110.18,11.222L111.312,11.222L111.889,11.222L112.491,11.222L113.012,11.222L113.569,11.222L114.702,11.222L115.275,11.222L115.88,11.222L116.403,11.222L116.957,11.222L118.091,11.222L118.664,11.222L119.269,11.222L119.79,11.222L120.347,11.222L121.481,11.222L122.053,11.222L122.657,11.222L123.181,11.222L123.734,11.222L124.867,11.222L125.436,11.222L126.036,11.222L126.56,11.222L127.123,11.222L128.258,11.222L128.823,11.222L129.424,11.222L129.952,11.222L130.513,11.222L131.649,11.222L132.226,11.222L132.829,11.222L133.344,11.222L133.906,11.222L135.037,11.222L135.613,11.222L136.216,11.222L136.741,11.222L137.295,11.222L138.428,11.222L139.003,11.222L139.606,11.222L140.133,11.222L140.682,11.222L141.817,11.222L142.394,11.222L142.998,11.222L143.521,11.222L144.07,11.222L145.205,11.222L145.781,11.222L146.383,11.222L146.907,11.222L147.46,11.222L148.594,11.222L149.159,11.222L149.759,11.222L150.287,11.222L150.85,11.222L151.983,11.222L152.549,11.222L153.15,11.222L153.674,11.222L154.238,11.222L155.376,11.222L155.953,11.222L156.556,11.222L157.064,11.222L157.629,11.222L158.764,11.222L159.344,11.222L159.945,11.222L160.464,11.222L161.019,11.222L162.155,11.222L162.73,11.222L163.335,11.222L163.855,11.222L164.409,11.222L165.54,11.222L166.114,11.222L166.716,11.222L167.244,11.222L167.796,11.222L168.928,11.222L169.503,11.222L170.103,11.222L170.631,11.222L171.185,11.222L172.317,11.222L172.885,11.222L173.483,11.222L174.013,11.222L174.574,11.222L175.704,11.222L176.272,11.222L176.874,11.222L177.402,11.222L177.964,11.222L179.098,11.222L179.674,11.222L180.279,11.222L180.802,11.222L181.356,11.222L182.487,11.222L183.062,11.222L183.669,11.222L184.191,11.222L184.745,11.222L185.878,11.222L186.455,11.222L187.059,11.222L187.58,11.222L188.134,11.222L189.269,11.222L189.845,11.222L190.45,11.222L190.975,11.222L191.524,11.222L192.657,11.222L193.231,11.222L193.834,11.222L194.358,11.222L194.913,11.222L196.043,11.222L196.61,11.222L197.209,11.222L197.736,11.222L198.299,11.222L199.433,11.222L200,11.222" stroke="#4c78a8" stroke-width="2"/></g></g><path class="foreground" aria-hidden="true" d="" display="none"/></g><g transform="translate(0,0)"><path class="background" aria-hidden="true" d="M0,0h200v200h-200Z"/><g><g class="mark-line role-mark marks" role="graphics-object" aria-roledescription="line mark container"><path aria-label="Time: Aug 31, 2025; Price: 1599; identifier: silex-400-oak-bork-2026" role="graphics-symbol" aria-roledescription="line mark" d="M57.444,22.333L57.648,22.333L58.25,22.333L58.779,22.333L59.338,22.333L60.483,22.333L61.052,22.333L61.654,22.333L62.173,22.333L62.727,22.333L63.867,22.333L64.44,22.333L65.045,22.333L65.564,22.333L66.118,22.333L67.251,22.333L67.823,22.333L68.427,22.333L68.952,22.333L69.506,22.333L70.64,22.333L71.214,22.333L71.813,22.333L72.344,22.333L72.895,22.333L74.031,22.333L74.603,22.333L75.205,22.333L75.727,22.333L76.285,22.333L77.416,22.333L77.707,22.333L77.982,22.333L78.58,22.333L79.11,22.333L79.673,22.333L80.805,22.333L81.371,22.333L81.971,22.333L82.5,22.333L83.062,22.333L84.2,22.333L84.776,22.333L85.381,22.333L85.901,22.333L86.456,22.333L87.588,22.333L88.164,22.333L88.789,22.333L89.293,22.333L89.842,22.333L90.972,22.333L91.55,22.333L92.151,22.333L92.677,22.333L93.233,22.333L94.366,22.333L94.938,22.333L95.539,22.333L96.06,22.333L96.619,22.333L97.753,22.333L98.327,22.333L98.927,22.333L99.45,22.333L100.008,22.333L101.14,22.333L101.707,22.333L102.306,22.333L102.833,22.333L103.398,22.333L104.531,22.333L105.097,22.333L105.693,22.333L106.222,22.333L106.787,22.333L107.926,22.333L108.497,22.333L109.103,22.333L109.626,22.333L110.18,22.333L111.312,22.333L111.889,22.333L112.491,22.333L113.013,22.333L113.569,22.333L114.703,22.333L115.275,22.333L115.881,22.333L116.403,22.333L116.958,22.333L118.091,22.333L118.664,22.333L119.269,22.333L119.79,22.333L120.347,22.333L121.481,22.333L122.053,22.333L122.657,22.333L123.181,22.333L123.734,22.333L124.868,22.333L125.436,22.333L126.036,22.333L126.56,22.333L127.123,22.333L128.258,22.333L128.823,22.333L129.424,22.333L129.952,22.333L130.514,22.333L131.649,22.333L132.226,22.333L132.829,22.333L133.344,22.333L133.906,22.333L135.038,22.333L135.613,22.333L136.216,22.333L136.741,22.333L137.295,22.333L138.428,22.333L139.003,22.333L139.607,22.333L140.133,22.333L140.682,22.333L141.817,22.333L142.394,22.333L142.998,22.333L143.521,22.333L144.07,22.333L145.205,22.333L145.781,22.333L146.383,22.333L146.907,22.333L147.46,22.333L148.594,22.333L149.159,22.333L149.759,22.333L150.287,22.333L150.85,22.333L151.983,22.333L152.549,22.333L153.15,22.333L153.674,22.333L154.238,22.333L155.376,22.333L155.953,22.333L156.557,22.333L157.064,22.333L157.63,22.333L158.764,22.333L159.344,22.333L159.945,22.333L160.465,22.333L161.02,22.333L162.155,22.333L162.73,22.333L163.335,22.333L163.855,22.333L164.409,22.333L165.54,22.333L166.114,22.333L166.716,22.333L167.244,22.333L167.796,22.333L168.928,22.333L169.503,22.333L170.104,22.333L170.631,22.333L171.185,22.333L172.317,22.333L172.885,22.333L173.484,22.333L174.013,22.333L174.574,22.333L175.705,22.333L176.273,22.333L176.874,22.333L177.402,22.333L177.965,22.333L179.099,22.333L179.674,22.333L180.279,22.333L180.802,22.333L181.357,22.333L182.488,22.333L183.063,22.333L183.669,22.333L184.191,22.333L184.745,22.333L185.879,22.333L186.455,22.333L187.059,22.333L187.581,22.333L188.135,22.333L189.269,22.333L189.845,22.333L190.45,22.333L190.975,22.333L191.525,22.333L192.657,22.333L193.231,22.333L193.834,22.333L194.358,22.333L194.914,22.333L196.043,22.333L196.61,22.333L197.209,22.333L197.736,22.333L198.3,22.333L199.433,22.333L200,22.333" stroke="#f58518" stroke-width="2"/></g></g><path class="foreground" aria-hidden="true" d="" display="none"/></g><g transform="translate(0,0)"><path class="background" aria-hidden="true" d="M0,0h200v200h-200Z"/><g><g class="mark-line role-mark marks" role="graphics-object" aria-roledescription="line mark container"><path aria-label="Time: Aug 31, 2025; Price: 1599; identifier: silex-400-warm-slate-grey-2026" role="graphics-symbol" aria-roledescription="line mark" d="M57.444,22.333L57.648,22.333L58.251,22.333L58.779,22.333L59.338,22.333L60.483,22.333L61.052,22.333L61.654,22.333L62.173,22.333L62.727,22.333L63.867,22.333L64.44,22.333L65.046,22.333L65.564,22.333L66.119,22.333L67.252,22.333L67.824,22.333L68.427,22.333L68.952,22.333L69.506,22.333L70.64,22.333L71.214,22.333L71.814,22.333L72.344,22.333L72.895,22.333L74.031,22.333L74.603,22.333L75.205,22.333L75.727,22.333L76.286,22.333L77.416,22.333L77.707,22.333L77.982,22.333L78.58,22.333L79.11,22.333L79.673,22.333L80.805,22.333L81.371,22.333L81.971,22.333L82.5,22.333L83.062,22.333L84.2,22.333L84.776,22.333L85.381,22.333L85.902,22.333L86.457,22.333L87.588,22.333L88.164,22.333L88.789,22.333L89.293,22.333L89.842,22.333L90.972,22.333L91.55,22.333L92.151,22.333L92.677,22.333L93.233,22.333L94.366,22.333L94.938,22.333L95.539,22.333L96.06,22.333L96.619,22.333L97.753,22.333L98.327,22.333L98.927,22.333L99.45,22.333L100.008,22.333L101.14,22.333L101.708,22.333L102.306,22.333L102.833,22.333L103.398,22.333L104.531,22.333L105.097,22.333L105.693,22.333L106.222,22.333L106.787,22.333L107.926,22.333L108.497,22.333L109.103,22.333L109.626,22.333L110.18,22.333L111.312,22.333L111.889,22.333L112.491,22.333L113.013,22.333L113.569,22.333L114.703,22.333L115.276,22.333L115.881,22.333L116.403,22.333L116.958,22.333L118.091,22.333L118.664,22.333L119.269,22.333L119.79,22.333L120.347,22.333L121.481,22.333L122.053,22.333L122.657,22.333L123.181,22.333L123.735,22.333L124.868,22.333L125.437,22.333L126.036,22.333L126.56,22.333L127.123,22.333L128.258,22.333L128.823,22.333L129.424,22.333L129.952,22.333L130.514,22.333L131.649,22.333L132.226,22.333L132.83,22.333L133.344,22.333L133.906,22.333L135.038,22.333L135.613,22.333L136.216,22.333L136.741,22.333L137.295,22.333L138.428,22.333L139.003,22.333L139.607,22.333L140.133,22.333L140.682,22.333L141.818,22.333L142.394,22.333L142.998,22.333L143.521,22.333L144.071,22.333L145.205,22.333L145.781,22.333L146.384,22.333L146.907,22.333L147.461,22.333L148.594,22.333L149.159,22.333L149.759,22.333L150.288,22.333L150.85,22.333L151.983,22.333L152.549,22.333L153.15,22.333L153.674,22.333L154.238,22.333L155.376,22.333L155.953,22.333L156.557,22.333L157.064,22.333L157.63,22.333L158.764,22.333L159.344,22.333L159.945,22.333L160.465,22.333L161.02,22.333L162.155,22.333L162.731,22.333L163.335,22.333L163.855,22.333L164.409,22.333L165.54,22.333L166.114,22.333L166.716,22.333L167.244,22.333L167.797,22.333L168.929,22.333L169.503,22.333L170.104,22.333L170.631,22.333L171.185,22.333L172.317,22.333L172.885,22.333L173.484,22.333L174.013,22.333L174.574,22.333L175.705,22.333L176.273,22.333L176.874,22.333L177.402,22.333L177.965,22.333L179.099,22.333L179.675,22.333L180.279,22.333L180.802,22.333L181.357,22.333L182.488,22.333L183.063,22.333L183.669,22.333L184.191,22.333L184.745,22.333L185.879,22.333L186.455,22.333L187.06,22.333L187.581,22.333L188.135,22.333L189.27,22.333L189.845,22.333L190.45,22.333L190.975,22.333L191.525,22.333L192.657,22.333L193.231,22.333L193.834,22.333L194.358,22.333L194.914,22.333L196.044,22.333L196.611,22.333L197.209,22.333L197.736,22.333L198.3,22.333L199.433,22.333L200,22.333" stroke="#e45756" stroke-width="2"/></g></g><path class="foreground" aria-hidden="true" d="" display="none"/></g></g><g class="mark-group role-legend" role="graphics-symbol" aria-roledescription="legend" aria-label="Symbol legend titled 'identifier' for stroke color with 16 values: devote-1-2022, silex-400-oak-bork-2026, silex-400-warm-slate-grey-2026, devote-1-2024, fastroad-ar-2, ending with allure-rs-2-2024"><g transform="translate(220,0)"><path class="background" aria-hidden="true" d="M0,0h256v222h-256Z" pointer-events="none"/><g><g class="mark-group role-legend-entry"><g transform="translate(0,16)"><path class="background" aria-hidden="true" d="M0,0h0v0h0Z" pointer-events="none"/><g><g class="mark-group role-scope" role="graphics-object" aria-roledescription="group mark container"><g transform="translate(0,0)"><path class="background" aria-hidden="true" d="M0,0h256v11h-256Z" pointer-events="none" opacity="1"/><g><g class="mark-symbol role-legend-symbol" pointer-events="none"><path transform="translate(6,6)" d="M-5,0L5,0" stroke="#4c78a8" stroke-width="1.5" opacity="1"/></g><g class="mark-text role-legend-label" pointer-events="none"><text text-anchor="start" transform="translate(16,9)" font-family="Liberation Mono" font-size="10px" fill="#000" opacity="1">devote-1-2022</text></g></g><path class="foreground" aria-hidden="true" d="" pointer-events="none" display="none"/></g><g transform="translate(0,13)"><path class="background" aria-hidden="true" d="M0,0h256v11h-256Z" pointer-events="none" opacity="1"/><g><g class="mark-symbol role-legend-symbol" pointer-events="none"><path transform="translate(6,6)" d="M-5,0L5,0" stroke="#f58518" stroke-width="1.5" opacity="1"/></g><g class="mark-text role-legend-label" pointer-events="none"><text text-anchor="start" transform="translate(16,9)" font-family="Liberation Mono" font-size="10px" fill="#000" opacity="1">silex-400-oak-bork-2026</text></g></g><path class="foreground" aria-hidden="true" d="" pointer-events="none" display="none"/></g><g transform="translate(0,26)"><path class="background" aria-hidden="true" d="M0,0h256v11h-256Z" pointer-events="none" opacity="1"/><g><g class="mark-symbol role-legend-symbol" pointer-events="none"><path transform="translate(6,6)" d="M-5,0L5,0" stroke="#e45756" stroke-width="1.5" opacity="1"/></g><g class="mark-text role-legend-label" pointer-events="none"><text text-anchor="start" transform="translate(16,9)" font-family="Liberation Mono" font-size="10px" fill="#000" opacity="1">silex-400-warm-slate-grey-2026</text></g></g><path class="foreground" aria-hidden="true" d="" pointer-events="none" display="none"/></g><g transform="translate(0,39)"><path class="background" aria-hidden="true" d="M0,0h256v11h-256Z" pointer-events="none" opacity="1"/><g><g class="mark-symbol role-legend-symbol" pointer-events="none"><path transform="translate(6,6)" d="M-5,0L5,0" stroke="#72b7b2" stroke-width="1.5" opacity="1"/></g><g class="mark-text role-legend-label" pointer-events="none"><text text-anchor="start" transform="translate(16,9)" font-family="Liberation Mono" font-size="10px" fill="#000" opacity="1">devote-1-2024</text></g></g><path class="foreground" aria-hidden="true" d="" pointer-events="none" display="none"/></g><g transform="translate(0,52)"><path class="background" aria-hidden="true" d="M0,0h256v11h-256Z" pointer-events="none" opacity="1"/><g><g class="mark-symbol role-legend-symbol" pointer-events="none"><path transform="translate(6,6)" d="M-5,0L5,0" stroke="#54a24b" stroke-width="1.5" opacity="1"/></g><g class="mark-text role-legend-label" pointer-events="none"><text text-anchor="start" transform="translate(16,9)" font-family="Liberation Mono" font-size="10px" fill="#000" opacity="1">fastroad-ar-2</text></g></g><path class="foreground" aria-hidden="true" d="" pointer-events="none" display="none"/></g><g transform="translate(0,65)"><path class="background" aria-hidden="true" d="M0,0h256v11h-256Z" pointer-events="none" opacity="1"/><g><g class="mark-symbol role-legend-symbol" pointer-events="none"><path transform="translate(6,6)" d="M-5,0L5,0" stroke="#eeca3b" stroke-width="1.5" opacity="1"/></g><g class="mark-text role-legend-label" pointer-events="none"><text text-anchor="start" transform="translate(16,9)" font-family="Liberation Mono" font-size="10px" fill="#000" opacity="1">thrive-2</text></g></g><path class="foreground" aria-hidden="true" d="" pointer-events="none" display="none"/></g><g transform="translate(0,78)"><path class="background" aria-hidden="true" d="M0,0h256v11h-256Z" pointer-events="none" opacity="1"/><g><g class="mark-symbol role-legend-symbol" pointer-events="none"><path transform="translate(6,6)" d="M-5,0L5,0" stroke="#b279a2" stroke-width="1.5" opacity="1"/></g><g class="mark-text role-legend-label" pointer-events="none"><text text-anchor="start" transform="translate(16,9)" font-family="Liberation Mono" font-size="10px" fill="#000" opacity="1">allure-rs-1-2023</text></g></g><path class="foreground" aria-hidden="true" d="" pointer-events="none" display="none"/></g><g transform="translate(0,91)"><path class="background" aria-hidden="true" d="M0,0h256v11h-256Z" pointer-events="none" opacity="1"/><g><g class="mark-symbol role-legend-symbol" pointer-events="none"><path transform="translate(6,6)" d="M-5,0L5,0" stroke="#ff9da6" stroke-width="1.5" opacity="1"/></g><g class="mark-text role-legend-label" pointer-events="none"><text text-anchor="start" transform="translate(16,9)" font-family="Liberation Mono" font-size="10px" fill="#000" opacity="1">roam-2</text></g></g><path class="foreground" aria-hidden="true" d="" pointer-events="none" display="none"/></g><g transform="translate(0,104)"><path class="background" aria-hidden="true" d="M0,0h256v11h-256Z" pointer-events="none" opacity="1"/><g><g class="mark-symbol role-legend-symbol" pointer-events="none"><path transform="translate(6,6)" d="M-5,0L5,0" stroke="#9d755d" stroke-width="1.5" opacity="1"/></g><g class="mark-text role-legend-label" pointer-events="none"><text text-anchor="start" transform="translate(16,9)" font-family="Liberation Mono" font-size="10px" fill="#000" opacity="1">fastroad-sl-3-2022</text></g></g><path class="foreground" aria-hidden="true" d="" pointer-events="none" display="none"/></g><g transform="translate(0,117)"><path class="background" aria-hidden="true" d="M0,0h256v11h-256Z" pointer-events="none" opacity="1"/><g><g class="mark-symbol role-legend-symbol" pointer-events="none"><path transform="translate(6,6)" d="M-5,0L5,0" stroke="#bab0ac" stroke-width="1.5" opacity="1"/></g><g class="mark-text role-legend-label" pointer-events="none"><text text-anchor="start" transform="translate(16,9)" font-family="Liberation Mono" font-size="10px" fill="#000" opacity="1">allure-rs-2-2023</text></g></g><path class="foreground" aria-hidden="true" d="" pointer-events="none" display="none"/></g><g transform="translate(0,130)"><path class="background" aria-hidden="true" d="M0,0h256v11h-256Z" pointer-events="none" opacity="1"/><g><g class="mark-symbol role-legend-symbol" pointer-events="none"><path transform="translate(6,6)" d="M-5,0L5,0" stroke="#4c78a8" stroke-width="1.5" opacity="1"/></g><g class="mark-text role-legend-label" pointer-events="none"><text text-anchor="start" transform="translate(16,9)" font-family="Liberation Mono" font-size="10px" fill="#000" opacity="1">escape-city-disc-1-2024</text></g></g><path class="foreground" aria-hidden="true" d="" pointer-events="none" display="none"/></g><g transform="translate(0,143)"><path class="background" aria-hidden="true" d="M0,0h256v11h-256Z" pointer-events="none" opacity="1"/><g><g class="mark-symbol role-legend-symbol" pointer-events="none"><path transform="translate(6,6)" d="M-5,0L5,0" stroke="#f58518" stroke-width="1.5" opacity="1"/></g><g class="mark-text role-legend-label" pointer-events="none"><text text-anchor="start" transform="translate(16,9)" font-family="Liberation Mono" font-size="10px" fill="#000" opacity="1">sdrbike-escape-1-city-disc</text></g></g><path class="foreground" aria-hidden="true" d="" pointer-events="none" display="none"/></g><g transform="translate(0,156)"><path class="background" aria-hidden="true" d="M0,0h256v11h-256Z" pointer-events="none" opacity="1"/><g><g class="mark-symbol role-legend-symbol" pointer-events="none"><path transform="translate(6,6)" d="M-5,0L5,0" stroke="#e45756" stroke-width="1.5" opacity="1"/></g><g class="mark-text role-legend-label" pointer-events="none"><text text-anchor="start" transform="translate(16,9)" font-family="Liberation Mono" font-size="10px" fill="#000" opacity="1">roam-disc-2-2024</text></g></g><path class="foreground" aria-hidden="true" d="" pointer-events="none" display="none"/></g><g transform="translate(0,169)"><path class="background" aria-hidden="true" d="M0,0h256v11h-256Z" pointer-events="none" opacity="1"/><g><g class="mark-symbol role-legend-symbol" pointer-events="none"><path transform="translate(6,6)" d="M-5,0L5,0" stroke="#72b7b2" stroke-width="1.5" opacity="1"/></g><g class="mark-text role-legend-label" pointer-events="none"><text text-anchor="start" transform="translate(16,9)" font-family="Liberation Mono" font-size="10px" fill="#000" opacity="1">rove-2</text></g></g><path class="foreground" aria-hidden="true" d="" pointer-events="none" display="none"/></g><g transform="translate(0,182)"><path class="background" aria-hidden="true" d="M0,0h256v11h-256Z" pointer-events="none" opacity="1"/><g><g class="mark-symbol role-legend-symbol" pointer-events="none"><path transform="translate(6,6)" d="M-5,0L5,0" stroke="#54a24b" stroke-width="1.5" opacity="1"/></g><g class="mark-text role-legend-label" pointer-events="none"><text text-anchor="start" transform="translate(16,9)" font-family="Liberation Mono" font-size="10px" fill="#000" opacity="1">allure-rs-2-2022</text></g></g><path class="foreground" aria-hidden="true" d="" pointer-events="none" display="none"/></g><g transform="translate(0,195)"><path class="background" aria-hidden="true" d="M0,0h256v11h-256Z" pointer-events="none" opacity="1"/><g><g class="mark-symbol role-legend-symbol" pointer-events="none"><path transform="translate(6,6)" d="M-5,0L5,0" stroke="#eeca3b" stroke-width="1.5" opacity="1"/></g><g class="mark-text role-legend-label" pointer-events="none"><text text-anchor="start" transform="translate(16,9)" font-family="Liberation Mono" font-size="10px" fill="#000" opacity="1">allure-rs-2-2024</text></g></g><path class="foreground" aria-hidden="true" d="" pointer-events="none" display="none"/></g></g></g><path class="foreground" aria-hidden="true" d="" pointer-events="none" display="none"/></g></g><g class="mark-text role-legend-title" pointer-events="none"><text text-anchor="start" transform="translate(0,9)" font-family="Liberation Mono" font-size="11px" font-weight="bold" fill="#000" opacity="1">identifier</text></g></g><path class="foreground" aria-hidden="true" d="" pointer-events="none" display="none"/></g></g></g><path class="foreground" aria-hidden="true" d="" display="none"/></g></g></g></svg>