<svg xmlns="http://www.w3.org/2000/svg" xmlns:xlink="http://www.w3.org/1999/xlink" version="1.1" class="marks" width="548" height="244" viewBox="0 0 548 244"><rect width="548" height="244" fill="white"/><g fill="none" stroke-miterlimit="10" transform="translate(67,7)"><g class="mark-group role-frame root" role="graphics-object" aria-roledescription="group mark container"><g transform="translate(0,0)"><path class="background" aria-hidden="true" d="M0.5,0.5h200v200h-200Z" stroke="#ddd"/><g><g class="mark-group role-axis" aria-hidden="true"><g transform="translate(0.5,200.5)"><path class="background" aria-hidden="true" d="M0,0h0v0h0Z" pointer-events="none"/><g><g class="mark-rule role-axis-grid" pointer-events="none"><line transform="translate(8,-200)" x2="0" y2="200" stroke="#ddd" stroke-width="1" opacity="1"/><line transform="translate(29,-200)" x2="0" y2="200" stroke="#ddd" stroke-width="1" opacity="1"/><line transform="translate(49,-200)" x2="0" y2="200" stroke="#ddd" stroke-width="1" opacity="1"/><line transform="translate(70,-200)" x2="0" y2="200" stroke="#ddd" stroke-width="1" opacity="1"/><line transform="translate(91,-200)" x2="0" y2="200" stroke="#ddd" stroke-width="1" opacity="1"/><line transform="translate(112,-200)" x2="0" y2="200" stroke="#ddd" stroke-width="1" opacity="1"/><line transform="translate(133,-200)" x2="0" y2="200" stroke="#ddd" stroke-width="1" opacity="1"/><line transform="translate(153,-200)" x2="0" y2="200" stroke="#ddd" stroke-width="1" opacity="1"/><line transform="translate(174,-200)" x2="0" y2="200" stroke="#ddd" stroke-width="1" opacity="1"/><line transform="translate(195,-200)" x2="0" y2="200" stroke="#ddd" stroke-width="1" opacity="1"/></g></g><path class="foreground" aria-hidden="true" d="" pointer-events="none" display="none"/></g></g><g class="mark-group role-axis" aria-hidden="true"><g transform="translate(0.5,0.5)"><path class="background" aria-hidden="true" d="M0,0h0v0h0Z" pointer-events="none"/><g><g class="mark-rule role-axis-grid" pointer-events="none"><line transform="translate(0,200)" x2="200" y2="0" stroke="#ddd" stroke-width="1" opacity="1"/><line transform="translate(0,144)" x2="200" y2="0" stroke="#ddd" stroke-width="1" opacity="1"/><line transform="translate(0,89)" x2="200" y2="0" stroke="#ddd" stroke-width="1" opacity="1"/><line transform="translate(0,33)" x2="200" y2="0" stroke="#ddd" stroke-width="1" opacity="1"/></g></g><path class="foreground" aria-hidden="true" d="" pointer-events="none" display="none"/></g></g><g class="mark-group role-axis" role="graphics-symbol" aria-roledescription="axis" aria-label="X-axis titled 'Time' for a time scale with values from Thursday, 14 August 2025, 8:34:48 AM to Monday, 20 October 2025, 4:51:21 PM"><g transform="translate(0.5,200.5)"><path class="background" aria-hidden="true" d="M0,0h0v0h0Z" pointer-events="none"/><g><g class="mark-rule role-axis-tick" pointer-events="none"><line transform="translate(8,0)" x2="0" y2="5" stroke="#888" stroke-width="1" opacity="1"/><line transform="translate(29,0)" x2="0" y2="5" stroke="#888" stroke-width="1" opacity="1"/><line transform="translate(49,0)" x2="0" y2="5" stroke="#888" stroke-width="1" opacity="1"/><line transform="translate(70,0)" x2="0" y2="5" stroke="#888" stroke-width="1" opacity="1"/><line transform="translate(91,0)" x2="0" y2="5" stroke="#888" stroke-width="1" opacity="1"/><line transform="translate(112,0)" x2="0" y2="5" stroke="#888" stroke-width="1" opacity="1"/><line transform="translate(133,0)" x2="0" y2="5" stroke="#888" stroke-width="1" opacity="1"/><line transform="translate(153,0)" x2="0" y2="5" stroke="#888" stroke-width="1" opacity="1"/><line transform="translate(174,0)" x2="0" y2="5" stroke="#888" stroke-width="1" opacity="1"/><line transform="translate(195,0)" x2="0" y2="5" stroke="#888" stroke-width="1" opacity="1"/></g><g class="mark-text role-axis-label" pointer-events="none"><text text-anchor="middle" transform="translate(7.847644132969049,15)" font-family="Liberation Mono" font-size="10px" fill="#000" opacity="1">Aug 17</text><text text-anchor="middle" transform="translate(28.63617415749623,15)" font-family="Liberation Mono" font-size="10px" fill="#000" opacity="0">Aug 24</text><text text-anchor="middle" transform="translate(49.42470418202341,15)" font-family="Liberation Mono" font-size="10px" fill="#000" opacity="0">Aug 31</text><text text-anchor="middle" transform="translate(70.2132342065506,15)" font-family="Liberation Mono" font-size="10px" fill="#000" opacity="0">Sep 07</text><text text-anchor="middle" transform="translate(91.00176423107777,15)" font-family="Liberation Mono" font-size="10px" fill="#000" opacity="1">Sep 14</text><text text-anchor="middle" transform="translate(111.79029425560496,15)" font-family="Liberation Mono" font-size="10px" fill="#000" opacity="0">Sep 21</text><text text-anchor="middle" transform="translate(132.57882428013215,15)" font-family="Liberation Mono" font-size="10px" fill="#000" opacity="0">Sep 28</text><text text-anchor="middle" transform="translate(153.3673543046593,15)" font-family="Liberation Mono" font-size="10px" fill="#000" opacity="0">Oct 05</text><text text-anchor="middle" transform="translate(174.1558843291865,15)" font-family="Liberation Mono" font-size="10px" fill="#000" opacity="1">Oct 12</text><text text-anchor="middle" transform="translate(194.94441435371368,15)" font-family="Liberation Mono" font-size="10px" fill="#000" opacity="0">Oct 19</text></g><g class="mark-rule role-axis-domain" pointer-events="none"><line transform="translate(0,0)" x2="200" y2="0" stroke="#888" stroke-width="1" opacity="1"/></g><g class="mark-text role-axis-title" pointer-events="none"><text text-anchor="middle" transform="translate(100,30)" font-family="Liberation Mono" font-size="11px" font-weight="bold" fill="#000" opacity="1">Time</text></g></g><path class="foreground" aria-hidden="true" d="" pointer-events="none" display="none"/></g></g><g class="mark-group role-axis" role="graphics-symbol" aria-roledescription="axis" aria-label="Y-axis titled 'Price' for a linear scale with values from 0 to 1,800"><g transform="translate(0.5,0.5)"><path class="background" aria-hidden="true" d="M0,0h0v0h0Z" pointer-events="none"/><g><g class="mark-rule role-axis-tick" pointer-events="none"><line transform="translate(0,200)" x2="-5" y2="0" stroke="#888" stroke-width="1" opacity="1"/><line transform="translate(0,144)" x2="-5" y2="0" stroke="#888" stroke-width="1" opacity="1"/><line transform="translate(0,89)" x2="-5" y2="0" stroke="#888" stroke-width="1" opacity="1"/><line transform="translate(0,33)" x2="-5" y2="0" stroke="#888" stroke-width="1" opacity="1"/></g><g class="mark-text role-axis-label" pointer-events="none"><text text-anchor="end" transform="translate(-7,203)" font-family="Liberation Mono" font-size="10px" fill="#000" opacity="1">0</text><text text-anchor="end" transform="translate(-7,147.44444444444443)" font-family="Liberation Mono" font-size="10px" fill="#000" opacity="1">500</text><text text-anchor="end" transform="translate(-7,91.88888888888889)" font-family="Liberation Mono" font-size="10px" fill="#000" opacity="1">1,000</text><text text-anchor="end" transform="translate(-7,36.33333333333333)" font-family="Liberation Mono" font-size="10px" fill="#000" opacity="1">1,500</text></g><g class="mark-rule role-axis-domain" pointer-events="none"><line transform="translate(0,200)" x2="0" y2="-200" stroke="#888" stroke-width="1" opacity="1"/></g><g class="mark-text role-axis-title" pointer-events="none"><text text-anchor="middle" transform="translate(-51,100) rotate(-90) translate(0,-2)" font-family="Liberation Mono" font-size="11px" font-weight="bold" fill="#000" opacity="1">Price</text></g></g><path class="foreground" aria-hidden="true" d="" pointer-events="none" display="none"/></g></g><g class="mark-group role-scope pathgroup" role="graphics-object" aria-roledescription="group mark container"><g transform="translate(0,0)"><path class="background" aria-hidden="true" d="M0,0h200v200h-200Z"/><g><g class="mark-line role-mark marks" role="graphics-object" aria-roledescription="line mark container"><path aria-label="Time: Aug 14, 2025; Price: 899; identifier: escape-city-disc-1-2024" role="graphics-symbol" aria-roledescription="line mark" d="M0,100.111L0.025,100.111L0.044,100.111L0.592,100.111L1.027,100.111L1.515,100.111L2.517,100.111L3.009,100.111L3.552,100.111L3.997,100.111L4.483,100.111L5.477,100.111L5.975,100.111L6.502,100.111L6.961,100.111L7.448,100.111L8.458,100.111L8.943,100.111L9.473,100.111L9.933,100.111L10.422,100.111L11.436,100.111L11.924,100.111L12.471,100.111L12.663,100.111L12.912,100.111L13.389,100.111L14.384,100.111L14.886,100.111L15.414,100.111L15.874,100.111L16.357,100.111L17.354,100.111L17.852,100.111L18.401,100.111L18.623,100.111L18.843,100.111L19.331,100.111L20.322,100.111L20.824,100.111L21.354,100.111L21.815,100.111L22.299,100.111L23.293,100.111L23.793,100.111L24.323,100.111L24.782,100.111L25.267,100.111L26.26,100.111L26.758,100.111L27.283,100.111L27.744,100.111L28.234,100.111L29.234,100.111L29.726,100.111L30.255,100.111L30.717,100.111L31.205,100.111L32.208,100.111L32.709,100.111L33.251,100.111L33.694,100.111L34.178,100.111L35.173,100.111L35.677,100.111L36.661,100.111L37.144,100.111L38.139,100.111L38.641,100.111L38.835,100.111L39.17,100.111L39.501,100.111L39.631,100.111L40.116,100.111L41.108,100.111L41.612,100.111L42.141,100.111L42.6,100.111L43.085,100.111L44.078,100.111L44.579,100.111L45.107,100.111L45.568,100.111L46.053,100.111L47.045,100.111L47.542,100.111L48.068,100.111L48.531,100.111L48.998,100.111L49.021,100.111L50.016,100.111L50.333,100.111L50.511,100.111L51.039,100.111L51.502,100.111L51.992,100.111L52.995,100.111L53.494,100.111L54.021,100.111L54.476,100.111L54.961,100.111L55.96,100.111L56.462,100.111L56.993,100.111L57.448,100.111L57.933,100.111L58.926,100.111L59.427,100.111L59.956,100.111L60.416,100.111L60.902,100.111L61.895,100.111L62.398,100.111L62.923,100.111L63.388,100.111L63.871,100.111L64.866,100.111L65.367,100.111L65.894,100.111L66.352,100.111L66.841,100.111L67.832,100.111L68.087,100.111L68.328,100.111L68.852,100.111L69.317,100.111L69.81,100.111L70.801,100.111L71.297,100.111L71.823,100.111L72.287,100.111L72.779,100.111L73.776,100.111L74.281,100.111L74.811,100.111L75.267,100.111L75.754,100.111L76.745,100.111L77.25,100.111L77.797,100.111L78.239,100.111L78.72,100.111L79.71,100.111L80.217,100.111L80.743,100.111L81.204,100.111L81.691,100.111L82.684,100.111L83.185,100.111L83.712,100.111L84.168,100.111L84.658,100.111L85.652,100.111L86.154,100.111L86.68,100.111L87.139,100.111L87.628,100.111L88.62,100.111L89.117,100.111L89.641,100.111L90.103,100.111L90.598,100.111L91.59,100.111L92.087,100.111L92.609,100.111L93.072,100.111L93.568,100.111L94.565,100.111L95.066,100.111L95.596,100.111L96.054,100.111L96.539,100.111L97.532,100.111L98.038,100.111L98.565,100.111L99.022,100.111L99.51,100.111L100.503,100.111L101.005,100.111L101.535,100.111L101.993,100.111L102.479,100.111L103.472,100.111L103.974,100.111L104.504,100.111L104.961,100.111L105.449,100.111L106.442,100.111L106.944,100.111L107.473,100.111L107.932,100.111L108.417,100.111L109.41,100.111L109.908,100.111L110.434,100.111L110.893,100.111L111.386,100.111L112.381,100.111L112.876,100.111L113.402,100.111L113.865,100.111L114.357,100.111L115.352,100.111L115.858,100.111L116.386,100.111L116.837,100.111L117.33,100.111L118.321,100.111L118.825,100.111L119.354,100.111L119.814,100.111L120.299,100.111L121.292,100.111L121.796,100.111L122.324,100.111L122.786,100.111L123.267,100.111L124.262,100.111L124.767,100.111L125.296,100.111L125.755,100.111L126.236,100.111L127.23,100.111L127.735,100.111L128.263,100.111L128.721,100.111L129.206,100.111L130.199,100.111L130.695,100.111L131.22,100.111L131.683,100.111L132.176,100.111L133.169,100.111L133.665,100.111L134.191,100.111L134.651,100.111L135.145,100.111L136.142,100.111L136.647,100.111L137.176,100.111L137.621,100.111L138.116,100.111L139.11,100.111L139.618,100.111L140.146,100.111L140.601,100.111L141.087,100.111L142.082,100.111L142.586,100.111L143.116,100.111L143.572,100.111L144.057,100.111L145.048,100.111L145.551,100.111L146.078,100.111L146.541,100.111L147.025,100.111L148.017,100.111L148.52,100.111L149.046,100.111L149.509,100.111L149.994,100.111L150.986,100.111L151.484,100.111L152.008,100.111L152.472,100.111L152.964,100.111L153.954,100.111L154.452,100.111L154.979,100.111L155.442,100.111L155.934,100.111L156.928,100.111L157.433,100.111L157.962,100.111L158.421,100.111L158.906,100.111L159.897,100.111L160.401,100.111L160.933,100.111L161.39,100.111L161.876,100.111L162.869,100.111L163.374,100.111L163.903,100.111L164.36,100.111L164.846,100.111L165.84,100.111L166.344,100.111L166.874,100.111L167.334,100.111L167.816,100.111L168.808,100.111L169.311,100.111L169.839,100.111L170.298,100.111L170.785,100.111L171.775,100.111L172.272,100.111L172.797,100.111L173.258,100.111L173.752,100.111L174.746,100.111L175.242,100.111L175.767,100.111L176.231,100.111L176.722,100.111L177.721,100.111L178.227,100.111L178.754,100.111L179.208,100.111L179.694,100.111L180.687,100.111L181.191,100.111L181.739,100.111L182.179,100.111L182.666,100.111L183.658,100.111L184.166,100.111L184.712,100.111L185.148,100.111L185.637,100.111L186.627,100.111L187.135,100.111L187.679,100.111L188.12,100.111L188.605,100.111L189.597,100.111L190.101,100.111L190.63,100.111L191.088,100.111L191.573,100.111L192.564,100.111L193.064,100.111L193.588,100.111L194.051,100.111L194.541,100.111L195.538,100.111L196.03,100.111L196.559,100.111L197.021,100.111L197.511,100.111L198.508,100.111L199.025,100.111L199.542,100.111L199.999,100.111" stroke="#4c78a8" stroke-width="2"/></g></g><path class="foreground" aria-hidden="true" d="" display="none"/></g><g transform="translate(0,0)"><path class="background" aria-hidden="true" d="M0,0h200v200h-200Z"/><g><g class="mark-line role-mark marks" role="graphics-object" aria-roledescription="line mark container"><path aria-label="Time: Aug 14, 2025; Price: 999; identifier: roam-2" role="graphics-symbol" aria-roledescription="line mark" d="M0,89L0.025,89L0.044,89L0.592,89L1.027,89L1.515,89L2.517,89L3.009,89L3.552,89L3.997,89L4.483,89L5.477,89L5.975,89L6.502,89L6.961,89L7.453,89L8.458,89L8.943,89L9.473,89L9.933,89L10.422,89L11.436,89L11.924,89L12.471,89L12.663,89L12.913,89L13.389,89L14.384,89L14.886,89L15.414,89L15.874,89L16.357,89L17.354,89L17.852,89L18.401,89L18.623,89L18.843,89L19.331,89L20.322,89L20.824,89L21.354,89L21.815,89L22.299,89L23.293,89L23.793,89L24.323,89L24.782,89L25.267,89L26.261,89L26.758,89L27.283,89L27.744,89L28.234,89L29.234,89L29.726,89L30.255,89L30.717,89L31.205,89L32.208,89L32.709,89L33.251,89L33.694,89L34.178,89L35.173,89L35.677,89L36.661,89L37.145,89L38.139,89L38.641,89L38.836,89L39.17,89L39.501,89L39.631,89L40.116,89L41.108,89L41.612,89L42.141,89L42.6,89L43.085,89L44.078,89L44.58,89L45.107,89L45.569,89L46.053,89L47.045,89L47.542,89L48.068,89L48.531,89L48.998,89L49.021,89L50.016,89L50.333,89L50.511,89L51.039,89L51.503,89L51.992,89L52.995,89L53.494,89L54.021,89L54.476,89L54.961,89L55.96,89L56.462,89L56.993,89L57.448,89L57.933,89L58.926,89L59.427,89L59.956,89L60.416,89L60.902,89L61.895,89L62.398,89L62.923,89L63.388,89L63.871,89L64.866,89L65.367,89L65.895,89L66.352,89L66.842,89L67.833,89L68.087,89L68.328,89L68.852,89L69.317,89L69.81,89L70.801,89L71.297,89L71.824,89L72.287,89L72.779,89L73.776,89L74.281,89L74.811,89L75.267,89L75.754,89L76.745,89L77.25,89L77.797,89L78.239,89L78.72,89L79.711,89L80.217,89L80.743,89L81.204,89L81.691,89L82.684,89L83.186,89L83.712,89L84.168,89L84.658,89L85.652,89L86.154,89L86.68,89L87.139,89L87.628,89L88.62,89L89.117,89L89.641,89L90.103,89L90.598,89L91.59,89L92.087,89L92.609,89L93.072,89L93.568,89L94.565,89L95.066,89L95.597,89L96.054,89L96.54,89L97.532,89L98.038,89L98.566,89L99.023,89L99.51,89L100.503,89L101.005,89L101.535,89L101.993,89L102.479,89L103.473,89L103.974,89L104.504,89L104.961,89L105.449,89L106.443,89L106.944,89L107.473,89L107.933,89L108.417,89L109.41,89L109.909,89L110.434,89L110.893,89L111.386,89L112.381,89L112.876,89L113.403,89L113.866,89L114.357,89L115.352,89L115.858,89L116.386,89L116.837,89L117.33,89L118.321,89L118.825,89L119.354,89L119.814,89L120.299,89L121.292,89L121.796,89L122.324,89L122.786,89L123.267,89L124.262,89L124.767,89L125.296,89L125.755,89L126.236,89L127.23,89L127.735,89L128.263,89L128.722,89L129.206,89L130.2,89L130.695,89L131.22,89L131.683,89L132.176,89L133.169,89L133.665,89L134.191,89L134.651,89L135.145,89L136.142,89L136.648,89L137.176,89L137.621,89L138.117,89L139.111,89L139.619,89L140.146,89L140.601,89L141.087,89L142.082,89L142.586,89L143.116,89L143.572,89L144.057,89L145.048,89L145.551,89L146.078,89L146.541,89L147.025,89L148.017,89L148.52,89L149.047,89L149.509,89L149.994,89L150.986,89L151.484,89L152.008,89L152.472,89L152.964,89L153.954,89L154.452,89L154.979,89L155.442,89L155.934,89L156.928,89L157.433,89L157.963,89L158.421,89L158.907,89L159.898,89L160.401,89L160.933,89L161.39,89L161.876,89L162.869,89L163.374,89L163.904,89L164.36,89L164.846,89L165.84,89L166.344,89L166.874,89L167.335,89L167.816,89L168.808,89L169.311,89L169.84,89L170.299,89L170.785,89L171.775,89L172.272,89L172.797,89L173.258,89L173.752,89L174.746,89L175.242,89L175.768,89L176.231,89L176.722,89L177.721,89L178.227,89L178.754,89L179.209,89L179.694,89L180.687,89L181.191,89L181.739,89L182.18,89L182.666,89L183.658,89L184.166,89L184.712,89L185.148,89L185.637,89L186.628,89L187.136,89L187.679,89L188.121,89L188.605,89L189.597,89L190.101,89L190.63,89L191.088,89L191.574,89L192.564,89L193.065,89L193.588,89L194.051,89L194.541,89L195.538,89L196.031,89L196.559,89L197.021,89L197.511,89L198.509,89L199.025,89L199.542,89L199.999,89" stroke="#ff9da6" stroke-width="2"/></g></g><path class="foreground" aria-hidden="true" d="" display="none"/></g><g transform="translate(0,0)"><path class="background" aria-hidden="true" d="M0,0h200v200h-200Z"/><g><g class="mark-line role-mark marks" role="graphics-object" aria-roledescription="line mark container"><path aria-label="Time: Aug 14, 2025; Price: 999; identifier: fastroad-sl-3-2022" role="graphics-symbol" aria-roledescription="line mark" d="M0,89L0.025,89L0.044,89L0.592,89L1.027,89L1.515,89L2.517,89L3.009,89L3.552,89L3.997,89L4.483,89L5.477,89L5.975,89L6.502,89L6.961,89L7.453,89L8.458,89L8.943,89L9.473,89L9.933,89L10.422,89L11.436,89L11.924,89L12.471,89L12.663,89L12.913,89L13.389,89L14.384,89L14.886,89L15.414,89L15.875,89L16.358,89L17.355,89L17.852,89L18.401,89L18.623,89L18.843,89L19.331,89L20.323,89L20.824,89L21.354,89L21.815,89L22.299,89L23.293,89L23.793,89L24.323,89L24.782,89L25.267,89L26.261,89L26.758,89L27.283,89L27.744,89L28.234,89L29.234,89L29.726,89L30.255,89L30.717,89L31.205,89L32.208,89L32.709,89L33.251,89L33.694,89L34.178,89L35.173,89L35.677,89L36.661,89L37.145,89L38.139,89L38.641,89L38.836,89L39.17,89L39.501,89L39.631,89L40.117,89L41.108,89L41.612,89L42.141,89L42.6,89L43.085,89L44.078,89L44.58,89L45.107,89L45.569,89L46.053,89L47.045,89L47.542,89L48.068,89L48.531,89L48.998,89L49.021,89L50.016,89L50.333,89L50.511,89L51.039,89L51.503,89L51.992,89L52.995,89L53.494,89L54.021,89L54.476,89L54.961,89L55.96,89L56.462,89L56.993,89L57.448,89L57.933,89L58.926,89L59.427,89L59.956,89L60.416,89L60.902,89L61.895,89L62.398,89L62.923,89L63.388,89L63.871,89L64.866,89L65.367,89L65.895,89L66.352,89L66.842,89L67.833,89L68.087,89L68.328,89L68.852,89L69.317,89L69.81,89L70.801,89L71.298,89L71.824,89L72.287,89L72.779,89L73.776,89L74.281,89L74.811,89L75.267,89L75.754,89L76.745,89L77.25,89L77.798,89L78.239,89L78.72,89L79.711,89L80.217,89L80.743,89L81.204,89L81.691,89L82.684,89L83.186,89L83.712,89L84.168,89L84.658,89L85.652,89L86.154,89L86.68,89L87.139,89L87.628,89L88.62,89L89.117,89L89.641,89L90.103,89L90.598,89L91.591,89L92.087,89L92.609,89L93.072,89L93.568,89L94.565,89L95.066,89L95.597,89L96.054,89L96.54,89L97.532,89L98.038,89L98.566,89L99.023,89L99.51,89L100.503,89L101.005,89L101.535,89L101.993,89L102.479,89L103.473,89L103.974,89L104.504,89L104.961,89L105.449,89L106.443,89L106.944,89L107.473,89L107.933,89L108.417,89L109.41,89L109.909,89L110.434,89L110.893,89L111.386,89L112.381,89L112.876,89L113.403,89L113.866,89L114.357,89L115.352,89L115.858,89L116.386,89L116.837,89L117.33,89L118.321,89L118.825,89L119.354,89L119.814,89L120.299,89L121.292,89L121.796,89L122.324,89L122.786,89L123.267,89L124.262,89L124.767,89L125.296,89L125.755,89L126.236,89L127.23,89L127.735,89L128.263,89L128.722,89L129.206,89L130.2,89L130.695,89L131.22,89L131.684,89L132.176,89L133.169,89L133.665,89L134.191,89L134.651,89L135.145,89L136.142,89L136.648,89L137.177,89L137.621,89L138.117,89L139.111,89L139.619,89L140.146,89L140.601,89L141.087,89L142.082,89L142.586,89L143.116,89L143.572,89L144.057,89L145.048,89L145.551,89L146.078,89L146.541,89L147.025,89L148.017,89L148.52,89L149.047,89L149.509,89L149.994,89L150.986,89L151.484,89L152.008,89L152.472,89L152.964,89L153.954,89L154.452,89L154.979,89L155.442,89L155.934,89L156.928,89L157.433,89L157.963,89L158.421,89L158.907,89L159.898,89L160.402,89L160.933,89L161.39,89L161.876,89L162.869,89L163.374,89L163.904,89L164.36,89L164.846,89L165.84,89L166.344,89L166.874,89L167.335,89L167.816,89L168.808,89L169.311,89L169.84,89L170.299,89L170.785,89L171.775,89L172.272,89L172.797,89L173.259,89L173.753,89L174.746,89L175.242,89L175.768,89L176.231,89L176.722,89L177.722,89L178.227,89L178.754,89L179.209,89L179.694,89L180.687,89L181.191,89L181.739,89L182.18,89L182.666,89L183.658,89L184.166,89L184.712,89L185.148,89L185.637,89L186.628,89L187.136,89L187.679,89L188.121,89L188.605,89L189.597,89L190.101,89L190.63,89L191.088,89L191.574,89L192.564,89L193.065,89L193.589,89L194.051,89L194.542,89L195.538,89L196.031,89L196.559,89L197.021,89L197.511,89L198.509,89L199.025,89L199.542,89L199.999,89" stroke="#9d755d" stroke-width="2"/></g></g><path class="foreground" aria-hidden="true" d="" display="none"/></g><g transform="translate(0,0)"><path class="background" aria-hidden="true" d="M0,0h200v200h-200Z"/><g><g class="mark-line role-mark marks" role="graphics-object" aria-roledescription="line mark container"><path aria-label="Time: Aug 14, 2025; Price: 1199; identifier: fastroad-ar-2" role="graphics-symbol" aria-roledescription="line mark" d="M0,66.778L0.025,66.778L0.044,66.778L0.592,66.778L1.027,66.778L1.515,66.778L2.517,66.778L3.009,66.778L3.552,66.778L3.997,66.778L4.483,66.778L5.477,66.778L5.975,66.778L6.502,66.778L6.961,66.778L7.455,66.778L8.458,66.778L8.944,66.778L9.473,66.778L9.933,66.778L10.422,66.778L11.437,66.778L11.924,66.778L12.471,66.778L12.663,66.778L12.913,66.778L13.389,66.778L14.384,66.778L14.886,66.778L15.414,66.778L15.875,66.778L16.358,66.778L17.355,66.778L17.852,66.778L18.401,66.778L18.624,66.778L18.843,66.778L19.331,66.778L20.323,66.778L20.824,66.778L21.354,66.778L21.815,66.778L22.299,66.778L23.293,66.778L23.793,66.778L24.323,66.778L24.782,66.778L25.267,66.778L26.261,66.778L26.759,66.778L27.284,66.778L27.744,66.778L28.234,66.778L29.234,66.778L29.726,66.778L30.255,66.778L30.717,66.778L31.205,66.778L32.208,66.778L32.709,66.778L33.251,66.778L33.695,66.778L34.178,66.778L35.173,66.778L35.677,66.778L36.661,66.778L37.145,66.778L38.139,66.778L38.641,66.778L38.836,66.778L39.17,66.778L39.501,66.778L39.631,66.778L40.117,66.778L41.108,66.778L41.612,66.778L42.141,66.778L42.6,66.778L43.085,66.778L44.078,66.778L44.58,66.778L45.107,66.778L45.569,66.778L46.053,66.778L47.045,66.778L47.542,66.778L48.068,66.778L48.531,66.778L48.998,66.778L49.021,66.778L50.016,66.778L50.333,66.778L50.511,66.778L51.039,66.778L51.503,66.778L51.992,66.778L52.995,66.778L53.494,66.778L54.021,66.778L54.476,66.778L54.961,66.778L55.96,66.778L56.462,66.778L56.993,66.778L57.448,66.778L57.933,66.778L58.926,66.778L59.427,66.778L59.956,66.778L60.416,66.778L60.902,66.778L61.895,66.778L62.398,66.778L62.923,66.778L63.388,66.778L63.871,66.778L64.866,66.778L65.367,66.778L65.895,66.778L66.352,66.778L66.842,66.778L67.833,66.778L68.087,66.778L68.328,66.778L68.852,66.778L69.317,66.778L69.81,66.778L70.802,66.778L71.298,66.778L71.824,66.778L72.287,66.778L72.78,66.778L73.777,66.778L74.281,66.778L74.811,66.778L75.267,66.778L75.754,66.778L76.745,66.778L77.25,66.778L77.798,66.778L78.239,66.778L78.72,66.778L79.711,66.778L80.217,66.778L80.743,66.778L81.204,66.778L81.691,66.778L82.684,66.778L83.186,66.778L83.712,66.778L84.168,66.778L84.658,66.778L85.652,66.778L86.154,66.778L86.68,66.778L87.139,66.778L87.628,66.778L88.62,66.778L89.117,66.778L89.641,66.778L90.103,66.778L90.598,66.778L91.591,66.778L92.087,66.778L92.609,66.778L93.072,66.778L93.568,66.778L94.565,66.778L95.066,66.778L95.597,66.778L96.054,66.778L96.54,66.778L97.533,66.778L98.038,66.778L98.566,66.778L99.023,66.778L99.51,66.778L100.503,66.778L101.006,66.778L101.536,66.778L101.993,66.778L102.479,66.778L103.473,66.778L103.975,66.778L104.504,66.778L104.961,66.778L105.449,66.778L106.443,66.778L106.944,66.778L107.473,66.778L107.933,66.778L108.417,66.778L109.41,66.778L109.909,66.778L110.434,66.778L110.893,66.778L111.386,66.778L112.381,66.778L112.876,66.778L113.403,66.778L113.866,66.778L114.357,66.778L115.352,66.778L115.858,66.778L116.387,66.778L116.837,66.778L117.33,66.778L118.321,66.778L118.825,66.778L119.354,66.778L119.814,66.778L120.299,66.778L121.292,66.778L121.796,66.778L122.324,66.778L122.786,66.778L123.267,66.778L124.262,66.778L124.767,66.778L125.296,66.778L125.755,66.778L126.236,66.778L127.231,66.778L127.735,66.778L128.263,66.778L128.722,66.778L129.206,66.778L130.2,66.778L130.695,66.778L131.221,66.778L131.684,66.778L132.176,66.778L133.17,66.778L133.665,66.778L134.191,66.778L134.651,66.778L135.145,66.778L136.142,66.778L136.648,66.778L137.177,66.778L137.621,66.778L138.117,66.778L139.111,66.778L139.619,66.778L140.146,66.778L140.601,66.778L141.087,66.778L142.082,66.778L142.586,66.778L143.116,66.778L143.572,66.778L144.057,66.778L145.048,66.778L145.551,66.778L146.078,66.778L146.541,66.778L147.025,66.778L148.017,66.778L148.521,66.778L149.047,66.778L149.509,66.778L149.994,66.778L150.986,66.778L151.484,66.778L152.008,66.778L152.472,66.778L152.964,66.778L153.954,66.778L154.452,66.778L154.979,66.778L155.442,66.778L155.934,66.778L156.928,66.778L157.433,66.778L157.963,66.778L158.421,66.778L158.907,66.778L159.898,66.778L160.402,66.778L160.933,66.778L161.39,66.778L161.876,66.778L162.869,66.778L163.374,66.778L163.904,66.778L164.36,66.778L164.846,66.778L165.84,66.778L166.344,66.778L166.874,66.778L167.335,66.778L167.816,66.778L168.808,66.778L169.311,66.778L169.84,66.778L170.299,66.778L170.785,66.778L171.776,66.778L172.272,66.778L172.797,66.778L173.259,66.778L173.753,66.778L174.746,66.778L175.242,66.778L175.768,66.778L176.231,66.778L176.722,66.778L177.722,66.778L178.227,66.778L178.754,66.778L179.21,66.778L179.694,66.778L180.687,66.778L181.191,66.778L181.739,66.778L182.18,66.778L182.666,66.778L183.658,66.778L184.166,66.778L184.712,66.778L185.148,66.778L185.637,66.778L186.628,66.778L187.136,66.778L187.679,66.778L188.121,66.778L188.605,66.778L189.597,66.778L190.101,66.778L190.63,66.778L191.088,66.778L191.574,66.778L192.564,66.778L193.065,66.778L193.589,66.778L194.051,66.778L194.542,66.778L195.538,66.778L196.031,66.778L196.559,66.778L197.021,66.778L197.511,66.778L198.509,66.778L199.025,66.778L199.542,66.778L199.999,66.778" stroke="#54a24b" stroke-width="2"/></g></g><path class="foreground" aria-hidden="true" d="" display="none"/></g><g transform="translate(0,0)"><path class="background" aria-hidden="true" d="M0,0h200v200h-200Z"/><g><g class="mark-line role-mark marks" role="graphics-object" aria-roledescription="line mark container"><path aria-label="Time: Aug 18, 2025; Price: 899; identifier: sdrbike-escape-1-city-disc" role="graphics-symbol" aria-roledescription="line mark" d="M12.663,100.111L12.913,100.111L13.389,100.111L14.384,100.111L14.886,100.111L15.414,100.111L15.875,100.111L16.358,100.111L17.355,100.111L17.852,100.111L18.402,100.111L18.624,100.111L18.844,100.111L19.331,100.111L20.323,100.111L20.825,100.111L21.355,100.111L21.815,100.111L22.299,100.111L23.293,100.111L23.794,100.111L24.323,100.111L24.782,100.111L25.267,100.111L26.261,100.111L26.759,100.111L27.284,100.111L27.744,100.111L28.234,100.111L29.234,100.111L29.727,100.111L30.255,100.111L30.717,100.111L31.205,100.111L32.208,100.111L32.709,100.111L33.251,100.111L33.695,100.111L34.178,100.111L35.173,100.111L35.677,100.111L36.662,100.111L37.145,100.111L38.139,100.111L38.641,100.111L38.836,100.111L39.17,100.111L39.501,100.111L39.631,100.111L40.117,100.111L41.109,100.111L41.612,100.111L42.141,100.111L42.6,100.111L43.085,100.111L44.078,100.111L44.58,100.111L45.107,100.111L45.569,100.111L46.054,100.111L47.045,100.111L47.543,100.111L48.068,100.111L48.531,100.111L48.998,100.111L49.021,100.111L50.016,100.111L50.333,100.111L50.511,100.111L51.039,100.111L51.503,100.111L51.992,100.111L52.995,100.111L53.494,100.111L54.021,100.111L54.476,100.111L54.961,100.111L55.96,100.111L56.462,100.111L56.993,100.111L57.448,100.111L57.933,100.111L58.926,100.111L59.427,100.111L59.956,100.111L60.416,100.111L60.902,100.111L61.895,100.111L62.398,100.111L62.923,100.111L63.388,100.111L63.871,100.111L64.866,100.111L65.367,100.111L65.895,100.111L66.352,100.111L66.842,100.111L67.833,100.111L68.088,100.111L68.328,100.111L68.852,100.111L69.317,100.111L69.81,100.111L70.802,100.111L71.298,100.111L71.824,100.111L72.287,100.111L72.78,100.111L73.777,100.111L74.282,100.111L74.811,100.111L75.268,100.111L75.754,100.111L76.745,100.111L77.25,100.111L77.798,100.111L78.239,100.111L78.72,100.111L79.711,100.111L80.217,100.111L80.744,100.111L81.204,100.111L81.691,100.111L82.684,100.111L83.186,100.111L83.712,100.111L84.168,100.111L84.659,100.111L85.652,100.111L86.154,100.111L86.68,100.111L87.139,100.111L87.628,100.111L88.62,100.111L89.117,100.111L89.641,100.111L90.103,100.111L90.598,100.111L91.591,100.111L92.087,100.111L92.609,100.111L93.072,100.111L93.568,100.111L94.565,100.111L95.066,100.111L95.597,100.111L96.054,100.111L96.54,100.111L97.533,100.111L98.038,100.111L98.566,100.111L99.023,100.111L99.51,100.111L100.504,100.111L101.006,100.111L101.536,100.111L101.993,100.111L102.479,100.111L103.473,100.111L103.975,100.111L104.505,100.111L104.961,100.111L105.449,100.111L106.443,100.111L106.944,100.111L107.473,100.111L107.933,100.111L108.417,100.111L109.41,100.111L109.909,100.111L110.434,100.111L110.893,100.111L111.386,100.111L112.381,100.111L112.876,100.111L113.403,100.111L113.866,100.111L114.357,100.111L115.353,100.111L115.858,100.111L116.387,100.111L116.838,100.111L117.33,100.111L118.321,100.111L118.825,100.111L119.354,100.111L119.814,100.111L120.299,100.111L121.292,100.111L121.796,100.111L122.324,100.111L122.786,100.111L123.267,100.111L124.262,100.111L124.767,100.111L125.297,100.111L125.755,100.111L126.236,100.111L127.231,100.111L127.735,100.111L128.263,100.111L128.722,100.111L129.206,100.111L130.2,100.111L130.695,100.111L131.221,100.111L131.684,100.111L132.176,100.111L133.17,100.111L133.665,100.111L134.192,100.111L134.651,100.111L135.145,100.111L136.142,100.111L136.648,100.111L137.177,100.111L137.621,100.111L138.117,100.111L139.111,100.111L139.619,100.111L140.146,100.111L140.601,100.111L141.087,100.111L142.082,100.111L142.586,100.111L143.116,100.111L143.572,100.111L144.057,100.111L145.048,100.111L145.551,100.111L146.078,100.111L146.541,100.111L147.025,100.111L148.017,100.111L148.521,100.111L149.047,100.111L149.509,100.111L149.994,100.111L150.986,100.111L151.484,100.111L152.008,100.111L152.472,100.111L152.964,100.111L153.955,100.111L154.452,100.111L154.979,100.111L155.442,100.111L155.934,100.111L156.928,100.111L157.433,100.111L157.963,100.111L158.421,100.111L158.907,100.111L159.898,100.111L160.402,100.111L160.933,100.111L161.39,100.111L161.876,100.111L162.869,100.111L163.374,100.111L163.904,100.111L164.36,100.111L164.846,100.111L165.84,100.111L166.344,100.111L166.875,100.111L167.335,100.111L167.816,100.111L168.808,100.111L169.312,100.111L169.84,100.111L170.299,100.111L170.785,100.111L171.776,100.111L172.273,100.111L172.797,100.111L173.259,100.111L173.753,100.111L174.746,100.111L175.242,100.111L175.768,100.111L176.231,100.111L176.722,100.111L177.722,100.111L178.227,100.111L178.754,100.111L179.21,100.111L179.694,100.111L180.687,100.111L181.191,100.111L181.739,100.111L182.18,100.111L182.666,100.111L183.659,100.111L184.166,100.111L184.712,100.111L185.149,100.111L185.637,100.111L186.628,100.111L187.136,100.111L187.679,100.111L188.121,100.111L188.605,100.111L189.598,100.111L190.101,100.111L190.63,100.111L191.088,100.111L191.574,100.111L192.564,100.111L193.065,100.111L193.589,100.111L194.051,100.111L194.542,100.111L195.538,100.111L196.031,100.111L196.559,100.111L197.021,100.111L197.511,100.111L198.509,100.111L199.025,100.111L199.542,100.111L199.999,100.111" stroke="#f58518" stroke-width="2"/></g></g><path class="foreground" aria-hidden="true" d="" display="none"/></g><g transform="translate(0,0)"><path class="background" aria-hidden="true" d="M0,0h200v200h-200Z"/><g><g class="mark-line role-mark marks" role="graphics-object" aria-roledescription="line mark container"><path aria-label="Time: Aug 20, 2025; Price: 899; identifier: roam-disc-2-2024" role="graphics-symbol" aria-roledescription="line mark" d="M18.623,100.111L18.843,100.111L19.331,100.111L20.322,100.111L20.824,100.111L21.354,100.111L21.815,100.111L22.299,100.111L23.293,100.111L23.793,100.111L24.323,100.111L24.782,100.111L25.267,100.111L26.261,100.111L26.758,100.111L27.283,100.111L27.744,100.111L28.234,100.111L29.234,100.111L29.726,100.111L30.255,100.111L30.717,100.111L31.205,100.111L32.208,100.111L32.709,100.111L33.251,100.111L33.694,100.111L34.178,100.111L35.173,100.111L35.677,100.111L36.661,100.111L37.145,100.111L38.139,100.111L38.641,100.111L38.836,100.111L39.17,100.111L39.501,100.111L39.631,100.111L40.116,100.111L41.108,100.111L41.612,100.111L42.141,100.111L42.6,100.111L43.085,100.111L44.078,100.111L44.58,100.111L45.107,100.111L45.568,100.111L46.053,100.111L47.045,100.111L47.542,100.111L48.068,100.111L48.531,100.111L48.998,100.111L49.021,100.111L50.016,100.111L50.333,100.111L50.511,100.111L51.039,100.111L51.502,100.111L51.992,100.111L52.995,100.111L53.494,100.111L54.021,100.111L54.476,100.111L54.961,100.111L55.96,100.111L56.462,100.111L56.993,100.111L57.448,100.111L57.933,100.111L58.926,100.111L59.427,100.111L59.956,100.111L60.416,100.111L60.902,100.111L61.895,100.111L62.398,100.111L62.923,100.111L63.388,100.111L63.871,100.111L64.866,100.111L65.367,100.111L65.895,100.111L66.352,100.111L66.842,100.111L67.833,100.111L68.087,100.111L68.328,100.111L68.852,100.111L69.317,100.111L69.81,100.111L70.801,100.111L71.297,100.111L71.824,100.111L72.287,100.111L72.779,100.111L73.776,100.111L74.281,100.111L74.811,100.111L75.267,100.111L75.754,100.111L76.745,100.111L77.25,100.111L77.797,100.111L78.239,100.111L78.72,100.111L79.71,100.111L80.217,100.111L80.743,100.111L81.204,100.111L81.691,100.111L82.684,100.111L83.186,100.111L83.712,100.111L84.168,100.111L84.658,100.111L85.652,100.111L86.154,100.111L86.68,100.111L87.139,100.111L87.628,100.111L88.62,100.111L89.117,100.111L89.641,100.111L90.103,100.111L90.598,100.111L91.59,100.111L92.087,100.111L92.609,100.111L93.072,100.111L93.568,100.111L94.565,100.111L95.066,100.111L95.596,100.111L96.054,100.111L96.54,100.111L97.532,100.111L98.038,100.111L98.566,100.111L99.022,100.111L99.51,100.111L100.503,100.111L101.005,100.111L101.535,100.111L101.993,100.111L102.479,100.111L103.472,100.111L103.974,100.111L104.504,100.111L104.961,100.111L105.449,100.111L106.442,100.111L106.944,100.111L107.473,100.111L107.933,100.111L108.417,100.111L109.41,100.111L109.909,100.111L110.434,100.111L110.893,100.111L111.386,100.111L112.381,100.111L112.876,100.111L113.403,100.111L113.865,100.111L114.357,100.111L115.352,100.111L115.858,100.111L116.386,100.111L116.837,100.111L117.33,100.111L118.321,100.111L118.825,100.111L119.354,100.111L119.814,100.111L120.299,100.111L121.292,100.111L121.796,100.111L122.324,100.111L122.786,100.111L123.267,100.111L124.262,100.111L124.767,100.111L125.296,100.111L125.755,100.111L126.236,100.111L127.23,100.111L127.735,100.111L128.263,100.111L128.721,100.111L129.206,100.111L130.199,100.111L130.695,100.111L131.22,100.111L131.683,100.111L132.176,100.111L133.169,100.111L133.665,100.111L134.191,100.111L134.651,100.111L135.145,100.111L136.142,100.111L136.647,100.111L137.176,100.111L137.621,100.111L138.117,100.111L139.111,100.111L139.618,100.111L140.146,100.111L140.601,100.111L141.087,100.111L142.082,100.111L142.586,100.111L143.116,100.111L143.572,100.111L144.057,100.111L145.048,100.111L145.551,100.111L146.078,100.111L146.541,100.111L147.025,100.111L148.017,100.111L148.52,100.111L149.046,100.111L149.509,100.111L149.994,100.111L150.986,100.111L151.484,100.111L152.008,100.111L152.472,100.111L152.964,100.111L153.954,100.111L154.452,100.111L154.979,100.111L155.442,100.111L155.934,100.111L156.928,100.111L157.433,100.111L157.962,100.111L158.421,100.111L158.907,100.111L159.897,100.111L160.401,100.111L160.933,100.111L161.39,100.111L161.876,100.111L162.869,100.111L163.374,100.111L163.904,100.111L164.36,100.111L164.846,100.111L165.84,100.111L166.344,100.111L166.874,100.111L167.335,100.111L167.816,100.111L168.808,100.111L169.311,100.111L169.839,100.111L170.299,100.111L170.785,100.111L171.775,100.111L172.272,100.111L172.797,100.111L173.258,100.111L173.752,100.111L174.746,100.111L175.242,100.111L175.768,100.111L176.231,100.111L176.722,100.111L177.721,100.111L178.227,100.111L178.754,100.111L179.208,100.111L179.694,100.111L180.687,100.111L181.191,100.111L181.739,100.111L182.18,100.111L182.666,100.111L183.658,100.111L184.166,100.111L184.712,100.111L185.148,100.111L185.637,100.111L186.628,100.111L187.136,100.111L187.679,100.111L188.121,100.111L188.605,100.111L189.597,100.111L190.101,100.111L190.63,100.111L191.088,100.111L191.573,100.111L192.564,100.111L193.064,100.111L193.588,100.111L194.051,100.111L194.541,100.111L195.538,100.111L196.031,100.111L196.559,100.111L197.021,100.111L197.511,100.111L198.508,100.111L199.025,100.111L199.542,100.111L199.999,100.111" stroke="#e45756" stroke-width="2"/></g></g><path class="foreground" aria-hidden="true" d="" display="none"/></g><g transform="translate(0,0)"><path class="background" aria-hidden="true" d="M0,0h200v200h-200Z"/><g><g class="mark-line role-mark marks" role="graphics-object" aria-roledescription="line mark container"><path aria-label="Time: Aug 20, 2025; Price: 1199; identifier: thrive-2" role="graphics-symbol" aria-roledescription="line mark" d="M18.624,66.778L18.844,66.778L19.331,66.778L20.323,66.778L20.825,66.778L21.355,66.778L21.815,66.778L22.299,66.778L23.293,66.778L23.794,66.778L24.323,66.778L24.782,66.778L25.267,66.778L26.261,66.778L26.759,66.778L27.284,66.778L27.744,66.778L28.234,66.778L29.234,66.778L29.727,66.778L30.255,66.778L30.717,66.778L31.205,66.778L32.208,66.778L32.709,66.778L33.251,66.778L33.695,66.778L34.178,66.778L35.173,66.778L35.677,66.778L36.662,66.778L37.145,66.778L38.139,66.778L38.641,66.778L38.836,66.778L39.17,66.778L39.501,66.778L39.631,66.778L40.117,66.778L41.109,66.778L41.612,66.778L42.141,66.778L42.6,66.778L43.085,66.778L44.079,66.778L44.58,66.778L45.107,66.778L45.569,66.778L46.054,66.778L47.045,66.778L47.543,66.778L48.068,66.778L48.531,66.778L48.998,66.778L49.021,66.778L50.016,66.778L50.333,66.778L50.511,66.778L51.039,66.778L51.503,66.778L51.992,66.778L52.995,66.778L53.494,66.778L54.021,66.778L54.476,66.778L54.961,66.778L55.96,66.778L56.462,66.778L56.993,66.778L57.448,66.778L57.933,66.778L58.926,66.778L59.427,66.778L59.956,66.778L60.416,66.778L60.902,66.778L61.895,66.778L62.398,66.778L62.924,66.778L63.388,66.778L63.871,66.778L64.866,66.778L65.367,66.778L65.895,66.778L66.352,66.778L66.842,66.778L67.833,66.778L68.088,66.778L68.328,66.778L68.852,66.778L69.317,66.778L69.81,66.778L70.802,66.778L71.298,66.778L71.824,66.778L72.287,66.778L72.78,66.778L73.777,66.778L74.282,66.778L74.811,66.778L75.268,66.778L75.754,66.778L76.745,66.778L77.25,66.778L77.798,66.778L78.239,66.778L78.72,66.778L79.711,66.778L80.217,66.778L80.744,66.778L81.204,66.778L81.691,66.778L82.685,66.778L83.186,66.778L83.712,66.778L84.168,66.778L84.659,66.778L85.652,66.778L86.155,66.778L86.68,66.778L87.139,66.778L87.628,66.778L88.62,66.778L89.117,66.778L89.642,66.778L90.104,66.778L90.598,66.778L91.591,66.778L92.087,66.778L92.609,66.778L93.072,66.778L93.568,66.778L94.565,66.778L95.066,66.778L95.597,66.778L96.055,66.778L96.54,66.778L97.533,66.778L98.038,66.778L98.566,66.778L99.023,66.778L99.51,66.778L100.504,66.778L101.006,66.778L101.536,66.778L101.993,66.778L102.479,66.778L103.473,66.778L103.975,66.778L104.505,66.778L104.961,66.778L105.45,66.778L106.443,66.778L106.944,66.778L107.473,66.778L107.933,66.778L108.417,66.778L109.41,66.778L109.909,66.778L110.434,66.778L110.893,66.778L111.386,66.778L112.381,66.778L112.876,66.778L113.403,66.778L113.866,66.778L114.358,66.778L115.353,66.778L115.858,66.778L116.387,66.778L116.838,66.778L117.33,66.778L118.321,66.778L118.825,66.778L119.354,66.778L119.814,66.778L120.299,66.778L121.292,66.778L121.796,66.778L122.324,66.778L122.786,66.778L123.267,66.778L124.262,66.778L124.767,66.778L125.297,66.778L125.755,66.778L126.236,66.778L127.231,66.778L127.735,66.778L128.263,66.778L128.722,66.778L129.206,66.778L130.2,66.778L130.695,66.778L131.221,66.778L131.684,66.778L132.176,66.778L133.17,66.778L133.665,66.778L134.192,66.778L134.651,66.778L135.145,66.778L136.142,66.778L136.648,66.778L137.177,66.778L137.621,66.778L138.117,66.778L139.111,66.778L139.619,66.778L140.146,66.778L140.601,66.778L141.087,66.778L142.082,66.778L142.586,66.778L143.116,66.778L143.572,66.778L144.057,66.778L145.048,66.778L145.551,66.778L146.078,66.778L146.541,66.778L147.025,66.778L148.017,66.778L148.521,66.778L149.047,66.778L149.509,66.778L149.995,66.778L150.986,66.778L151.484,66.778L152.009,66.778L152.473,66.778L152.964,66.778L153.955,66.778L154.452,66.778L154.979,66.778L155.442,66.778L155.934,66.778L156.928,66.778L157.433,66.778L157.963,66.778L158.421,66.778L158.907,66.778L159.898,66.778L160.402,66.778L160.933,66.778L161.391,66.778L161.876,66.778L162.869,66.778L163.374,66.778L163.904,66.778L164.361,66.778L164.846,66.778L165.84,66.778L166.344,66.778L166.875,66.778L167.335,66.778L167.816,66.778L168.808,66.778L169.312,66.778L169.84,66.778L170.299,66.778L170.785,66.778L171.776,66.778L172.273,66.778L172.797,66.778L173.259,66.778L173.753,66.778L174.746,66.778L175.242,66.778L175.768,66.778L176.231,66.778L176.722,66.778L177.722,66.778L178.228,66.778L178.754,66.778L179.211,66.778L179.694,66.778L180.688,66.778L181.191,66.778L181.739,66.778L182.18,66.778L182.666,66.778L183.659,66.778L184.167,66.778L184.712,66.778L185.149,66.778L185.637,66.778L186.628,66.778L187.136,66.778L187.679,66.778L188.121,66.778L188.605,66.778L189.598,66.778L190.102,66.778L190.631,66.778L191.089,66.778L191.574,66.778L192.564,66.778L193.065,66.778L193.589,66.778L194.051,66.778L194.542,66.778L195.538,66.778L196.031,66.778L196.559,66.778L197.021,66.778L197.511,66.778L198.509,66.778L199.025,66.778L199.542,66.778L199.999,66.778" stroke="#eeca3b" stroke-width="2"/></g></g><path class="foreground" aria-hidden="true" d="" display="none"/></g><g transform="translate(0,0)"><path class="background" aria-hidden="true" d="M0,0h200v200h-200Z"/><g><g class="mark-line role-mark marks" role="graphics-object" aria-roledescription="line mark container"><path aria-label="Time: Aug 20, 2025; Price: 999; identifier: rove-2" role="graphics-symbol" aria-roledescription="line mark" d="M18.624,89L18.844,89L19.331,89L20.323,89L20.825,89L21.355,89L21.815,89L22.299,89L23.293,89L23.794,89L24.323,89L24.782,89L25.267,89L26.261,89L26.759,89L27.284,89L27.744,89L28.234,89L29.234,89L29.727,89L30.255,89L30.717,89L31.205,89L32.208,89L32.709,89L33.251,89L33.695,89L34.178,89L35.174,89L35.677,89L36.662,89L37.145,89L38.139,89L38.641,89L38.836,89L39.17,89L39.501,89L39.631,89L40.117,89L41.109,89L41.612,89L42.141,89L42.6,89L43.085,89L44.079,89L44.58,89L45.108,89L45.569,89L46.054,89L48.998,111.222L49.022,111.222L50.016,111.222L50.333,111.222L50.511,111.222L51.039,111.222L51.503,111.222L51.992,111.222L52.995,111.222L53.495,111.222L54.022,111.222L54.476,111.222L54.962,111.222L55.96,111.222L56.462,111.222L56.993,111.222L57.448,111.222L57.933,111.222L58.926,111.222L59.427,111.222L59.956,111.222L60.416,111.222L60.902,111.222L61.895,111.222L62.398,111.222L62.924,111.222L63.388,111.222L63.871,111.222L64.866,111.222L65.367,111.222L65.895,111.222L66.352,111.222L66.842,111.222L67.833,111.222L68.088,111.222L68.329,111.222L68.852,111.222L69.317,111.222L69.81,111.222L70.802,111.222L71.298,111.222L71.824,111.222L72.287,111.222L72.78,111.222L73.777,111.222L74.282,111.222L74.811,111.222L75.268,111.222L75.754,111.222L76.745,111.222L77.25,111.222L77.798,111.222L78.239,111.222L78.72,111.222L79.711,111.222L80.217,111.222L80.744,111.222L81.204,111.222L81.692,111.222L82.685,111.222L83.186,111.222L83.712,111.222L84.168,111.222L84.659,111.222L85.652,111.222L86.155,111.222L86.681,111.222L87.139,111.222L87.628,111.222L88.62,111.222L89.117,111.222L89.642,111.222L90.104,111.222L90.598,111.222L91.591,111.222L92.087,111.222L92.609,111.222L93.073,111.222L93.568,111.222L94.566,111.222L95.066,111.222L95.597,111.222L96.055,111.222L96.54,111.222L97.533,111.222L98.038,111.222L98.566,111.222L99.023,111.222L99.51,111.222L100.504,111.222L101.006,111.222L101.536,111.222L101.993,111.222L102.479,111.222L103.473,111.222L103.975,111.222L104.505,111.222L104.961,111.222L105.45,111.222L106.443,111.222L106.944,111.222L107.473,111.222L107.933,111.222L108.417,111.222L109.41,111.222L109.909,111.222L110.434,111.222L110.894,111.222L111.386,111.222L112.381,111.222L112.876,111.222L113.403,111.222L113.866,111.222L114.358,111.222L115.353,111.222L115.858,111.222L116.387,111.222L116.838,111.222L117.33,111.222L118.322,111.222L118.826,111.222L119.354,111.222L119.814,111.222L120.299,111.222L121.292,111.222L121.796,111.222L122.325,111.222L122.786,111.222L123.267,111.222L124.262,111.222L124.767,111.222L125.297,111.222L125.755,111.222L126.236,111.222L127.231,111.222L127.735,111.222L128.263,111.222L128.722,111.222L129.206,111.222L130.2,111.222L130.695,111.222L131.221,111.222L131.684,111.222L132.177,111.222L133.17,111.222L133.665,111.222L134.192,111.222L134.651,111.222L135.145,111.222L136.142,111.222L136.648,111.222L137.177,111.222L137.621,111.222L138.117,111.222L139.111,111.222L139.619,111.222L140.146,111.222L140.601,111.222L141.087,111.222L142.082,111.222L142.586,111.222L143.116,111.222L143.572,111.222L144.057,111.222L145.048,111.222L145.551,111.222L146.079,111.222L146.541,111.222L147.025,111.222L148.017,111.222L148.521,111.222L149.047,111.222L149.509,111.222L149.995,111.222L150.986,111.222L151.484,111.222L152.009,111.222L152.473,111.222L152.964,111.222L153.955,111.222L154.452,111.222L154.979,111.222L155.442,111.222L155.934,111.222L156.929,111.222L157.433,111.222L157.963,111.222L158.421,111.222L158.907,111.222L159.898,111.222L160.402,111.222L160.933,111.222L161.391,111.222L161.876,111.222L162.869,111.222L163.374,111.222L163.904,111.222L164.361,111.222L164.846,111.222L165.84,111.222L166.344,111.222L166.875,111.222L167.335,111.222L167.816,111.222L168.809,111.222L169.312,111.222L169.84,111.222L170.299,111.222L170.786,111.222L171.776,111.222L172.273,111.222L172.797,111.222L173.259,111.222L173.753,111.222L174.746,111.222L175.242,111.222L175.768,111.222L176.231,111.222L176.722,111.222L177.722,111.222L178.228,111.222L178.754,111.222L179.211,111.222L179.694,111.222L180.688,111.222L181.191,111.222L181.739,111.222L182.18,111.222L182.666,111.222L183.659,111.222L184.167,111.222L184.712,111.222L185.149,111.222L185.637,111.222L186.628,111.222L187.136,111.222L187.679,111.222L188.121,111.222L188.605,111.222L189.598,111.222L190.102,111.222L190.631,111.222L191.089,111.222L191.574,111.222L192.565,111.222L193.065,111.222L193.589,111.222L194.051,111.222L194.542,111.222L195.538,111.222L196.031,111.222L196.559,111.222L197.021,111.222L197.511,111.222L198.509,111.222L199.025,111.222L199.542,111.222L199.999,111.222" stroke="#72b7b2" stroke-width="2"/></g></g><path class="foreground" aria-hidden="true" d="" display="none"/></g><g transform="translate(0,0)"><path class="background" aria-hidden="true" d="M0,0h200v200h-200Z"/><g><g class="mark-line role-mark marks" role="graphics-object" aria-roledescription="line mark container"><path aria-label="Time: Aug 27, 2025; Price: 1199; identifier: allure-rs-1-2023" role="graphics-symbol" aria-roledescription="line mark" d="M38.837,66.778L39.17,66.778L39.501,66.778L39.631,66.778L40.117,66.778L41.109,66.778L41.612,66.778L42.141,66.778L42.6,66.778L43.086,66.778L44.079,66.778L44.58,66.778L45.108,66.778L45.569,66.778L46.054,66.778L47.045,66.778L47.543,66.778L48.068,66.778L48.531,66.778L48.999,66.778L49.022,66.778L50.016,66.778L50.333,66.778L50.511,66.778L51.039,66.778L51.503,66.778L51.992,66.778L52.995,66.778L53.495,66.778L54.022,66.778L54.476,66.778L54.962,66.778L55.961,66.778L56.463,66.778L56.993,66.778L57.448,66.778L57.933,66.778L58.926,66.778L59.428,66.778L59.957,66.778L60.416,66.778L60.902,66.778L61.895,66.778L62.399,66.778L62.924,66.778L63.388,66.778L63.871,66.778L64.866,66.778L65.368,66.778L65.895,66.778L66.353,66.778L66.842,66.778L67.833,66.778L68.088,66.778L68.329,66.778L68.852,66.778L69.317,66.778L69.81,66.778L70.802,66.778L71.298,66.778L71.824,66.778L72.287,66.778L72.78,66.778L73.777,66.778L74.282,66.778L74.811,66.778L75.268,66.778L75.754,66.778L76.745,66.778L77.25,66.778L77.798,66.778L78.239,66.778L78.72,66.778L79.711,66.778L80.217,66.778L80.744,66.778L81.204,66.778L81.692,66.778L82.685,66.778L83.186,66.778L83.712,66.778L84.168,66.778L84.659,66.778L85.652,66.778L86.155,66.778L86.681,66.778L87.14,66.778L87.628,66.778L88.62,66.778L89.117,66.778L89.642,66.778L90.104,66.778L90.599,66.778L91.591,66.778L92.087,66.778L92.609,66.778L93.073,66.778L93.568,66.778L94.566,66.778L95.066,66.778L95.597,66.778L96.055,66.778L96.54,66.778L97.533,66.778L98.039,66.778L98.566,66.778L99.023,66.778L99.51,66.778L100.504,66.778L101.006,66.778L101.536,66.778L101.994,66.778L102.48,66.778L103.473,66.778L103.975,66.778L104.505,66.778L104.962,66.778L105.45,66.778L106.443,66.778L106.945,66.778L107.473,66.778L107.933,66.778L108.418,66.778L109.41,66.778L109.909,66.778L110.434,66.778L110.894,66.778L111.387,66.778L112.381,66.778L112.876,66.778L113.403,66.778L113.866,66.778L114.358,66.778L115.353,66.778L115.858,66.778L116.387,66.778L116.838,66.778L117.33,66.778L118.322,66.778L118.826,66.778L119.354,66.778L119.814,66.778L120.3,66.778L121.292,66.778L121.797,66.778L122.325,66.778L122.786,66.778L123.267,66.778L124.262,66.778L124.767,66.778L125.297,66.778L125.755,66.778L126.236,66.778L127.231,66.778L127.735,66.778L128.263,66.778L128.722,66.778L129.207,66.778L130.2,66.778L130.695,66.778L131.221,66.778L131.684,66.778L132.177,66.778L133.17,66.778L133.665,66.778L134.192,66.778L134.651,66.778L135.145,66.778L136.142,66.778L136.648,66.778L137.177,66.778L137.621,66.778L138.117,66.778L139.111,66.778L139.619,66.778L140.146,66.778L140.601,66.778L141.087,66.778L142.082,66.778L142.586,66.778L143.117,66.778L143.572,66.778L144.057,66.778L145.048,66.778L145.551,66.778L146.079,66.778L146.541,66.778L147.025,66.778L148.017,66.778L148.521,66.778L149.047,66.778L149.509,66.778L149.995,66.778L150.986,66.778L151.484,66.778L152.009,66.778L152.473,66.778L152.964,66.778L153.955,66.778L154.452,66.778L154.979,66.778L155.442,66.778L155.935,66.778L156.929,66.778L157.433,66.778L157.963,66.778L158.421,66.778L158.907,66.778L159.898,66.778L160.402,66.778L160.933,66.778L161.391,66.778L161.876,66.778L162.869,66.778L163.374,66.778L163.904,66.778L164.361,66.778L164.846,66.778L165.84,66.778L166.344,66.778L166.875,66.778L167.335,66.778L167.816,66.778L168.809,66.778L169.312,66.778L169.84,66.778L170.299,66.778L170.786,66.778L171.776,66.778L172.273,66.778L172.797,66.778L173.259,66.778L173.753,66.778L174.746,66.778L175.243,66.778L175.768,66.778L176.231,66.778L176.723,66.778L177.722,66.778L178.228,66.778L178.754,66.778L179.211,66.778L179.694,66.778L180.688,66.778L181.191,66.778L181.74,66.778L182.18,66.778L182.667,66.778L183.659,66.778L184.167,66.778L184.713,66.778L185.149,66.778L185.638,66.778L186.628,66.778L187.136,66.778L187.679,66.778L188.121,66.778L188.605,66.778L189.598,66.778L190.102,66.778L190.631,66.778L191.089,66.778L191.574,66.778L192.565,66.778L193.065,66.778L193.589,66.778L194.051,66.778L194.542,66.778L195.538,66.778L196.031,66.778L196.559,66.778L197.021,66.778L197.512,66.778L198.509,66.778L199.025,66.778L199.542,66.778L199.999,66.778" stroke="#b279a2" stroke-width="2"/></g></g><path class="foreground" aria-hidden="true" d="" display="none"/></g><g transform="translate(0,0)"><path class="background" aria-hidden="true" d="M0,0h200v200h-200Z"/><g><g class="mark-line role-mark marks" role="graphics-object" aria-roledescription="line mark container"><path aria-label="Time: Aug 27, 2025; Price: 999; identifier: allure-rs-2-2022" role="graphics-symbol" aria-roledescription="line mark" d="M38.837,89L39.17,89L39.501,89L39.631,89L40.117,89L41.109,89L41.612,89L42.141,89L42.6,89L43.086,89L44.079,89L44.58,89L45.108,89L45.569,89L46.054,89L48.999,111.222L49.022,111.222L50.016,111.222L50.333,111.222L50.511,111.222L51.04,111.222L51.503,111.222L51.992,111.222L52.995,111.222L53.495,111.222L54.022,111.222L54.477,111.222L54.962,111.222L55.961,111.222L56.463,111.222L56.993,111.222L57.448,111.222L57.934,111.222L58.926,111.222L59.428,111.222L59.957,111.222L60.416,111.222L60.902,111.222L61.896,111.222L62.399,111.222L62.924,111.222L63.388,111.222L63.871,111.222L64.866,111.222L65.368,111.222L65.895,111.222L66.353,111.222L66.842,111.222L67.833,111.222L68.088,111.222L68.329,111.222L68.853,111.222L69.317,111.222L69.81,111.222L70.802,111.222L71.298,111.222L71.824,111.222L72.287,111.222L72.78,111.222L73.777,111.222L74.282,111.222L74.812,111.222L75.268,111.222L75.754,111.222L76.745,111.222L77.25,111.222L77.798,111.222L78.24,111.222L78.72,111.222L79.711,111.222L80.217,111.222L80.744,111.222L81.205,111.222L81.692,111.222L82.685,111.222L83.186,111.222L83.712,111.222L84.169,111.222L84.659,111.222L85.652,111.222L86.155,111.222L86.681,111.222L87.14,111.222L87.628,111.222L88.62,111.222L89.117,111.222L89.642,111.222L90.104,111.222L90.599,111.222L91.591,111.222L92.087,111.222L92.609,111.222L93.073,111.222L93.568,111.222L94.566,111.222L95.066,111.222L95.597,111.222L96.055,111.222L96.54,111.222L97.533,111.222L98.039,111.222L98.566,111.222L99.023,111.222L99.51,111.222L100.504,111.222L101.006,111.222L101.536,111.222L101.994,111.222L102.48,111.222L103.473,111.222L103.975,111.222L104.505,111.222L104.962,111.222L105.45,111.222L106.443,111.222L106.945,111.222L107.474,111.222L107.933,111.222L108.418,111.222L109.411,111.222L109.909,111.222L110.434,111.222L110.894,111.222L111.387,111.222L112.381,111.222L112.876,111.222L113.403,111.222L113.866,111.222L114.358,111.222L115.353,111.222L115.858,111.222L116.387,111.222L116.838,111.222L117.33,111.222L118.322,111.222L118.826,111.222L119.354,111.222L119.814,111.222L120.3,111.222L121.292,111.222L121.797,111.222L122.325,111.222L122.786,111.222L123.267,111.222L124.262,111.222L124.767,111.222L125.297,111.222L125.755,111.222L126.236,111.222L127.231,111.222L127.735,111.222L128.263,111.222L128.722,111.222L129.207,111.222L130.2,111.222L130.695,111.222L131.221,111.222L131.684,111.222L132.177,111.222L133.17,111.222L133.665,111.222L134.192,111.222L134.651,111.222L135.146,111.222L136.142,111.222L136.648,111.222L137.177,111.222L137.621,111.222L138.117,111.222L139.111,111.222L139.619,111.222L140.146,111.222L140.601,111.222L141.087,111.222L142.083,111.222L142.587,111.222L143.117,111.222L143.572,111.222L144.057,111.222L145.049,111.222L145.551,111.222L146.079,111.222L146.541,111.222L147.026,111.222L148.017,111.222L148.521,111.222L149.047,111.222L149.51,111.222L149.995,111.222L150.986,111.222L151.484,111.222L152.009,111.222L152.473,111.222L152.964,111.222L153.955,111.222L154.452,111.222L154.979,111.222L155.442,111.222L155.935,111.222L156.929,111.222L157.433,111.222L157.963,111.222L158.421,111.222L158.907,111.222L159.898,111.222L160.402,111.222L160.933,111.222L161.391,111.222L161.876,111.222L162.869,111.222L163.374,111.222L163.904,111.222L164.361,111.222L164.846,111.222L165.84,111.222L166.345,111.222L166.875,111.222L167.335,111.222L167.816,111.222L168.809,111.222L169.312,111.222L169.84,111.222L170.299,111.222L170.786,111.222L171.776,111.222L172.273,111.222L172.797,111.222L173.259,111.222L173.753,111.222L174.746,111.222L175.243,111.222L175.768,111.222L176.231,111.222L176.723,111.222L177.722,111.222L178.228,111.222L178.754,111.222L179.211,111.222L179.694,111.222L180.688,111.222L181.191,111.222L181.74,111.222L182.181,111.222L182.667,111.222L183.659,111.222L184.167,111.222L184.713,111.222L185.149,111.222L185.638,111.222L186.628,111.222L187.136,111.222L187.679,111.222L188.121,111.222L188.605,111.222L189.598,111.222L190.102,111.222L190.631,111.222L191.089,111.222L191.574,111.222L192.565,111.222L193.065,111.222L193.589,111.222L194.051,111.222L194.542,111.222L195.538,111.222L196.031,111.222L196.56,111.222L197.021,111.222L197.512,111.222L198.509,111.222L199.025,111.222L199.542,111.222L199.999,111.222" stroke="#54a24b" stroke-width="2"/></g></g><path class="foreground" aria-hidden="true" d="" display="none"/></g><g transform="translate(0,0)"><path class="background" aria-hidden="true" d="M0,0h200v200h-200Z"/><g><g class="mark-line role-mark marks" role="graphics-object" aria-roledescription="line mark container"><path aria-label="Time: Aug 27, 2025; Price: 949; identifier: allure-rs-2-2023" role="graphics-symbol" aria-roledescription="line mark" d="M38.837,94.556L39.17,94.556L39.501,94.556L39.631,94.556L40.117,94.556L41.109,94.556L41.612,94.556L42.141,94.556L42.6,94.556L43.086,94.556L44.079,94.556L44.58,94.556L45.108,94.556L45.569,94.556L46.054,94.556L47.045,94.556L47.543,94.556L48.068,94.556L48.532,94.556L48.999,94.556L49.022,94.556L50.016,94.556L50.333,94.556L50.511,94.556L51.04,94.556L51.503,94.556L51.993,94.556L52.996,94.556L53.495,94.556L54.022,94.556L54.477,94.556L54.962,94.556L55.961,94.556L56.463,94.556L56.993,94.556L57.448,94.556L57.934,94.556L58.927,94.556L59.428,94.556L59.957,94.556L60.417,94.556L60.902,94.556L61.896,94.556L62.399,94.556L62.924,94.556L63.389,94.556L63.871,94.556L64.867,94.556L65.368,94.556L65.895,94.556L66.353,94.556L66.842,94.556L67.833,94.556L68.088,94.556L68.329,94.556L68.853,94.556L69.317,94.556L69.81,94.556L70.802,94.556L71.298,94.556L71.824,94.556L72.288,94.556L72.78,94.556L73.777,94.556L74.282,94.556L74.812,94.556L75.268,94.556L75.754,94.556L76.745,94.556L77.251,94.556L77.798,94.556L78.24,94.556L78.721,94.556L79.711,94.556L80.217,94.556L80.744,94.556L81.205,94.556L81.692,94.556L82.685,94.556L83.186,94.556L83.712,94.556L84.169,94.556L84.659,94.556L85.652,94.556L86.155,94.556L86.681,94.556L87.14,94.556L87.628,94.556L88.62,94.556L89.117,94.556L89.642,94.556L90.104,94.556L90.599,94.556L91.591,94.556L92.087,94.556L92.609,94.556L93.073,94.556L93.568,94.556L94.566,94.556L95.066,94.556L95.597,94.556L96.055,94.556L96.54,94.556L97.533,94.556L98.039,94.556L98.566,94.556L99.023,94.556L99.51,94.556L100.504,94.556L101.006,94.556L101.536,94.556L101.994,94.556L102.48,94.556L103.473,94.556L103.975,94.556L104.505,94.556L104.962,94.556L105.45,94.556L106.443,94.556L106.945,94.556L107.474,94.556L107.933,94.556L108.418,94.556L109.411,94.556L109.909,94.556L110.434,94.556L110.894,94.556L111.387,94.556L112.381,94.556L112.876,94.556L113.403,94.556L113.866,94.556L114.358,94.556L115.353,94.556L115.858,94.556L116.387,94.556L116.838,94.556L117.33,94.556L118.322,94.556L118.826,94.556L119.354,94.556L119.814,94.556L120.3,94.556L121.292,94.556L121.797,94.556L122.325,94.556L122.786,94.556L123.267,94.556L124.262,94.556L124.767,94.556L125.297,94.556L125.755,94.556L126.237,94.556L127.231,94.556L127.736,94.556L128.263,94.556L128.722,94.556L129.207,94.556L130.2,94.556L130.695,94.556L131.221,94.556L131.684,94.556L132.177,94.556L133.17,94.556L133.665,94.556L134.192,94.556L134.651,94.556L135.146,94.556L136.143,94.556L136.648,94.556L137.177,94.556L137.621,94.556L138.117,94.556L139.111,94.556L139.619,94.556L140.146,94.556L140.601,94.556L141.087,94.556L142.083,94.556L142.587,94.556L143.117,94.556L143.572,94.556L144.058,94.556L145.049,94.556L145.551,94.556L146.079,94.556L146.541,94.556L147.026,94.556L148.017,94.556L148.521,94.556L149.047,94.556L149.51,94.556L149.995,94.556L150.986,94.556L151.485,94.556L152.009,94.556L152.473,94.556L152.964,94.556L153.955,94.556L154.453,94.556L154.98,94.556L155.442,94.556L155.935,94.556L156.929,94.556L157.433,94.556L157.963,94.556L158.421,94.556L158.907,94.556L159.898,94.556L160.402,94.556L160.933,94.556L161.391,94.556L161.876,94.556L162.869,94.556L163.375,94.556L163.904,94.556L164.361,94.556L164.846,94.556L165.841,94.556L166.345,94.556L166.875,94.556L167.335,94.556L167.816,94.556L168.809,94.556L169.312,94.556L169.84,94.556L170.299,94.556L170.786,94.556L171.776,94.556L172.273,94.556L172.798,94.556L173.259,94.556L173.753,94.556L174.746,94.556L175.243,94.556L175.768,94.556L176.232,94.556L176.723,94.556L177.722,94.556L178.228,94.556L178.754,94.556L179.211,94.556L179.694,94.556L180.688,94.556L181.191,94.556L181.74,94.556L182.181,94.556L182.667,94.556L183.659,94.556L184.167,94.556L184.713,94.556L185.149,94.556L185.638,94.556L186.628,94.556L187.136,94.556L187.679,94.556L188.121,94.556L188.606,94.556L189.598,94.556L190.102,94.556L190.631,94.556L191.089,94.556L191.574,94.556L192.565,94.556L193.065,94.556L193.589,94.556L194.051,94.556L194.542,94.556L195.538,94.556L196.031,94.556L196.56,94.556L197.022,94.556L197.512,94.556L198.509,94.556L199.026,94.556L199.542,94.556L200,94.556" stroke="#bab0ac" stroke-width="2"/></g></g><path class="foreground" aria-hidden="true" d="" display="none"/></g><g transform="translate(0,0)"><path class="background" aria-hidden="true" d="M0,0h200v200h-200Z"/><g><g class="mark-line role-mark marks" role="graphics-object" aria-roledescription="line mark container"><path aria-label="Time: Aug 27, 2025; Price: 999; identifier: allure-rs-2-2024" role="graphics-symbol" aria-roledescription="line mark" d="M38.837,89L39.17,89L39.501,89L39.631,89L40.117,89L41.109,89L41.613,89L42.142,89L42.601,89L43.086,89L44.079,89L44.58,89L45.108,89L45.569,89L46.054,89L48.999,111.222L49.022,111.222L50.016,111.222L50.333,111.222L50.512,111.222L51.04,111.222L51.503,111.222L51.993,111.222L52.996,111.222L53.495,111.222L54.022,111.222L54.477,111.222L54.962,111.222L55.961,111.222L56.463,111.222L56.994,111.222L57.448,111.222L57.934,111.222L58.927,111.222L59.428,111.222L59.957,111.222L60.417,111.222L60.902,111.222L61.896,111.222L62.399,111.222L62.924,111.222L63.389,111.222L63.872,111.222L64.867,111.222L65.368,111.222L65.895,111.222L66.353,111.222L66.842,111.222L67.833,111.222L68.088,111.222L68.329,111.222L68.853,111.222L69.318,111.222L69.81,111.222L70.802,111.222L71.298,111.222L71.824,111.222L72.288,111.222L72.78,111.222L73.777,111.222L74.282,111.222L74.812,111.222L75.268,111.222L75.754,111.222L76.746,111.222L77.251,111.222L77.798,111.222L78.24,111.222L78.721,111.222L79.711,111.222L80.218,111.222L80.744,111.222L81.205,111.222L81.692,111.222L82.685,111.222L83.186,111.222L83.712,111.222L84.169,111.222L84.659,111.222L85.652,111.222L86.155,111.222L86.681,111.222L87.14,111.222L87.629,111.222L88.62,111.222L89.117,111.222L89.642,111.222L90.104,111.222L90.599,111.222L91.591,111.222L92.087,111.222L92.61,111.222L93.073,111.222L93.569,111.222L94.566,111.222L95.066,111.222L95.597,111.222L96.055,111.222L96.54,111.222L97.533,111.222L98.039,111.222L98.566,111.222L99.023,111.222L99.511,111.222L100.504,111.222L101.006,111.222L101.536,111.222L101.994,111.222L102.48,111.222L103.473,111.222L103.975,111.222L104.505,111.222L104.962,111.222L105.45,111.222L106.443,111.222L106.945,111.222L107.474,111.222L107.933,111.222L108.418,111.222L109.411,111.222L109.909,111.222L110.434,111.222L110.894,111.222L111.387,111.222L112.382,111.222L112.877,111.222L113.403,111.222L113.866,111.222L114.358,111.222L115.353,111.222L115.859,111.222L116.387,111.222L116.838,111.222L117.33,111.222L118.322,111.222L118.826,111.222L119.354,111.222L119.815,111.222L120.3,111.222L121.293,111.222L121.797,111.222L122.325,111.222L122.786,111.222L123.267,111.222L124.262,111.222L124.767,111.222L125.297,111.222L125.755,111.222L126.237,111.222L127.231,111.222L127.736,111.222L128.263,111.222L128.722,111.222L129.207,111.222L130.2,111.222L130.695,111.222L131.221,111.222L131.684,111.222L132.177,111.222L133.17,111.222L133.665,111.222L134.192,111.222L134.652,111.222L135.146,111.222L136.143,111.222L136.648,111.222L137.177,111.222L137.621,111.222L138.117,111.222L139.111,111.222L139.619,111.222L140.146,111.222L140.601,111.222L141.087,111.222L142.083,111.222L142.587,111.222L143.117,111.222L143.572,111.222L144.058,111.222L145.049,111.222L145.551,111.222L146.079,111.222L146.541,111.222L147.026,111.222L148.017,111.222L148.521,111.222L149.047,111.222L149.51,111.222L149.995,111.222L150.987,111.222L151.485,111.222L152.009,111.222L152.473,111.222L152.964,111.222L153.955,111.222L154.453,111.222L154.98,111.222L155.442,111.222L155.935,111.222L156.929,111.222L157.433,111.222L157.963,111.222L158.421,111.222L158.907,111.222L159.898,111.222L160.402,111.222L160.933,111.222L161.391,111.222L161.876,111.222L162.87,111.222L163.375,111.222L163.904,111.222L164.361,111.222L164.846,111.222L165.841,111.222L166.345,111.222L166.875,111.222L167.335,111.222L167.817,111.222L168.809,111.222L169.312,111.222L169.84,111.222L170.299,111.222L170.786,111.222L171.776,111.222L172.273,111.222L172.798,111.222L173.259,111.222L173.753,111.222L174.746,111.222L175.243,111.222L175.768,111.222L176.232,111.222L176.723,111.222L177.722,111.222L178.228,111.222L178.754,111.222L179.211,111.222L179.694,111.222L180.688,111.222L181.192,111.222L181.74,111.222L182.181,111.222L182.667,111.222L183.659,111.222L184.167,111.222L184.713,111.222L185.149,111.222L185.638,111.222L186.629,111.222L187.136,111.222L187.679,111.222L188.121,111.222L188.606,111.222L189.598,111.222L190.102,111.222L190.631,111.222L191.089,111.222L191.574,111.222L192.565,111.222L193.065,111.222L193.589,111.222L194.051,111.222L194.542,111.222L195.538,111.222L196.031,111.222L196.56,111.222L197.022,111.222L197.512,111.222L198.509,111.222L199.026,111.222L199.542,111.222L200,111.222" stroke="#eeca3b" stroke-width="2"/></g></g><path class="foreground" aria-hidden="true" d="" display="none"/></g><g transform="translate(0,0)"><path class="background" aria-hidden="true" d="M0,0h200v200h-200Z"/><g><g class="mark-line role-mark marks" role="graphics-object" aria-roledescription="line mark container"><path aria-label="Time: Aug 27, 2025; Price: 1799; identifier: devote-1-2024" role="graphics-symbol" aria-roledescription="line mark" d="M39.502,0.111L39.631,0.111L40.117,0.111L41.109,0.111L41.613,0.111L42.142,0.111L42.601,0.111L43.086,0.111L44.079,0.111L44.58,0.111L45.108,0.111L45.569,0.111L46.054,0.111L48.999,44.556L49.022,44.556L50.016,44.556L50.334,44.556L50.512,44.556L51.04,44.556L51.503,44.556L51.993,44.556L52.996,44.556L53.495,44.556L54.022,44.556L54.477,44.556L54.962,44.556L55.961,44.556L56.463,44.556L56.994,44.556L57.448,44.556L57.934,44.556L58.927,44.556L59.428,44.556L59.957,44.556L60.417,44.556L60.902,44.556L61.896,44.556L62.399,44.556L62.924,44.556L63.389,44.556L63.872,44.556L64.867,44.556L65.368,44.556L65.895,44.556L66.353,44.556L66.842,44.556L67.833,44.556L68.088,44.556L68.329,44.556L68.853,44.556L69.318,44.556L69.81,44.556L70.802,44.556L71.298,44.556L71.824,44.556L72.288,44.556L72.78,44.556L73.777,44.556L74.282,44.556L74.812,44.556L75.268,44.556L75.754,44.556L76.746,44.556L77.251,44.556L77.798,44.556L78.24,44.556L78.721,44.556L79.711,44.556L80.218,44.556L80.744,44.556L81.205,44.556L81.692,44.556L82.685,44.556L83.186,44.556L83.713,44.556L84.169,44.556L84.659,44.556L85.652,44.556L86.155,44.556L86.681,44.556L87.14,44.556L87.629,44.556L88.62,44.556L89.118,44.556L89.642,44.556L90.104,44.556L90.599,44.556L91.591,44.556L92.087,44.556L92.61,44.556L93.073,44.556L93.569,44.556L94.566,44.556L95.066,44.556L95.597,44.556L96.056,44.556L96.541,44.556L97.533,44.556L98.039,44.556L98.566,44.556L99.023,44.556L99.511,44.556L100.504,44.556L101.006,44.556L101.536,44.556L101.994,44.556L102.48,44.556L103.473,44.556L103.975,44.556L104.505,44.556L104.962,44.556L105.45,44.556L106.443,44.556L106.945,44.556L107.474,44.556L107.933,44.556L108.418,44.556L109.411,44.556L109.909,44.556L110.435,44.556L110.894,44.556L111.387,44.556L112.382,44.556L112.877,44.556L113.403,44.556L113.866,44.556L114.358,44.556L115.353,44.556L115.859,44.556L116.387,44.556L116.838,44.556L117.33,44.556L118.322,44.556L118.826,44.556L119.354,44.556L119.815,44.556L120.3,44.556L121.293,44.556L121.797,44.556L122.325,44.556L122.786,44.556L123.267,44.556L124.263,44.556L124.768,44.556L125.297,44.556L125.755,44.556L126.237,44.556L127.231,44.556L127.736,44.556L128.263,44.556L128.722,44.556L129.207,44.556L130.2,44.556L130.695,44.556L131.221,44.556L131.684,44.556L132.177,44.556L133.17,44.556L133.665,44.556L134.192,44.556L134.652,44.556L135.146,44.556L136.143,44.556L136.648,44.556L137.177,44.556L137.622,44.556L138.117,44.556L139.111,44.556L139.619,44.556L140.146,44.556L140.601,44.556L141.087,44.556L142.083,44.556L142.587,44.556L143.117,44.556L143.572,44.556L144.058,44.556L145.049,44.556L145.551,44.556L146.079,44.556L146.542,44.556L147.026,44.556L148.018,44.556L148.521,44.556L149.047,44.556L149.51,44.556L149.995,44.556L150.987,44.556L151.485,44.556L152.009,44.556L152.473,44.556L152.964,44.556L153.955,44.556L154.453,44.556L154.98,44.556L155.442,44.556L155.935,44.556L156.929,44.556L157.433,44.556L157.963,44.556L158.421,44.556L158.907,44.556L159.898,44.556L160.402,44.556L160.934,44.556L161.391,44.556L161.876,44.556L162.87,44.556L163.375,44.556L163.904,44.556L164.361,44.556L164.846,44.556L165.841,44.556L166.345,44.556L166.875,44.556L167.335,44.556L167.817,44.556L168.809,44.556L169.312,44.556L169.84,44.556L170.299,44.556L170.786,44.556L171.776,44.556L172.273,44.556L172.798,44.556L173.259,44.556L173.753,44.556L174.746,44.556L175.243,44.556L175.768,44.556L176.232,44.556L176.723,44.556L177.722,44.556L178.228,44.556L178.754,44.556L179.211,44.556L179.694,44.556L180.688,44.556L181.192,44.556L181.74,44.556L182.181,44.556L182.667,44.556L183.659,44.556L184.167,44.556L184.713,44.556L185.149,44.556L185.638,44.556L186.63,44.556L187.136,44.556L187.68,44.556L188.121,44.556L188.606,44.556L189.598,44.556L190.102,44.556L190.631,44.556L191.089,44.556L191.574,44.556L192.565,44.556L193.065,44.556L193.589,44.556L194.051,44.556L194.542,44.556L195.538,44.556L196.031,44.556L196.56,44.556L197.022,44.556L197.512,44.556L198.509,44.556L199.026,44.556L199.542,44.556L200,44.556" stroke="#72b7b2" stroke-width="2"/></g></g><path class="foreground" aria-hidden="true" d="" display="none"/></g><g transform="translate(0,0)"><path class="background" aria-hidden="true" d="M0,0h200v200h-200Z"/><g><g class="mark-line role-mark marks" role="graphics-object" aria-roledescription="line mark container"><path aria-label="Time: Aug 27, 2025; Price: 1699; identifier: devote-1-2022" role="graphics-symbol" aria-roledescription="line mark" d="M39.502,11.222L39.631,11.222L40.117,11.222L41.109,11.222L41.613,11.222L42.142,11.222L42.601,11.222L43.086,11.222L44.079,11.222L44.58,11.222L45.108,11.222L45.569,11.222L46.054,11.222L47.045,11.222L47.543,11.222L48.069,11.222L48.532,11.222L48.999,11.222L49.022,11.222L50.016,11.222L50.334,11.222L50.512,11.222L51.04,11.222L51.503,11.222L51.993,11.222L52.996,11.222L53.495,11.222L54.022,11.222L54.477,11.222L54.962,11.222L55.961,11.222L56.463,11.222L56.994,11.222L57.448,11.222L57.934,11.222L58.927,11.222L59.428,11.222L59.957,11.222L60.417,11.222L60.902,11.222L61.896,11.222L62.399,11.222L62.924,11.222L63.389,11.222L63.872,11.222L64.867,11.222L65.368,11.222L65.895,11.222L66.353,11.222L66.842,11.222L67.833,11.222L68.088,11.222L68.329,11.222L68.853,11.222L69.318,11.222L69.81,11.222L70.802,11.222L71.298,11.222L71.824,11.222L72.288,11.222L72.78,11.222L73.777,11.222L74.282,11.222L74.812,11.222L75.268,11.222L75.754,11.222L76.746,11.222L77.251,11.222L77.798,11.222L78.24,11.222L78.721,11.222L79.711,11.222L80.218,11.222L80.744,11.222L81.205,11.222L81.692,11.222L82.685,11.222L83.186,11.222L83.713,11.222L84.169,11.222L84.659,11.222L85.652,11.222L86.155,11.222L86.681,11.222L87.14,11.222L87.629,11.222L88.62,11.222L89.118,11.222L89.642,11.222L90.104,11.222L90.599,11.222L91.591,11.222L92.088,11.222L92.61,11.222L93.073,11.222L93.569,11.222L94.566,11.222L95.066,11.222L95.598,11.222L96.056,11.222L96.542,11.222L97.533,11.222L98.039,11.222L98.566,11.222L99.023,11.222L99.511,11.222L100.504,11.222L101.006,11.222L101.536,11.222L101.994,11.222L102.48,11.222L103.473,11.222L103.975,11.222L104.505,11.222L104.962,11.222L105.45,11.222L106.443,11.222L106.945,11.222L107.474,11.222L107.933,11.222L108.418,11.222L109.411,11.222L109.909,11.222L110.435,11.222L110.894,11.222L111.387,11.222L112.382,11.222L112.877,11.222L113.403,11.222L113.866,11.222L114.358,11.222L115.353,11.222L115.859,11.222L116.387,11.222L116.838,11.222L117.33,11.222L118.322,11.222L118.826,11.222L119.355,11.222L119.815,11.222L120.3,11.222L121.293,11.222L121.797,11.222L122.325,11.222L122.786,11.222L123.267,11.222L124.263,11.222L124.768,11.222L125.297,11.222L125.755,11.222L126.237,11.222L127.231,11.222L127.736,11.222L128.263,11.222L128.722,11.222L129.207,11.222L130.2,11.222L130.695,11.222L131.221,11.222L131.684,11.222L132.177,11.222L133.17,11.222L133.666,11.222L134.192,11.222L134.652,11.222L135.146,11.222L136.143,11.222L136.648,11.222L137.177,11.222L137.622,11.222L138.117,11.222L139.111,11.222L139.619,11.222L140.146,11.222L140.601,11.222L141.088,11.222L142.083,11.222L142.587,11.222L143.117,11.222L143.573,11.222L144.058,11.222L145.049,11.222L145.552,11.222L146.079,11.222L146.542,11.222L147.026,11.222L148.018,11.222L148.521,11.222L149.047,11.222L149.51,11.222L149.995,11.222L150.987,11.222L151.485,11.222L152.009,11.222L152.473,11.222L152.965,11.222L153.955,11.222L154.453,11.222L154.98,11.222L155.443,11.222L155.935,11.222L156.929,11.222L157.434,11.222L157.963,11.222L158.421,11.222L158.907,11.222L159.898,11.222L160.402,11.222L160.934,11.222L161.391,11.222L161.876,11.222L162.87,11.222L163.375,11.222L163.904,11.222L164.361,11.222L164.846,11.222L165.841,11.222L166.345,11.222L166.875,11.222L167.335,11.222L167.817,11.222L168.809,11.222L169.312,11.222L169.84,11.222L170.299,11.222L170.786,11.222L171.776,11.222L172.273,11.222L172.798,11.222L173.259,11.222L173.753,11.222L174.746,11.222L175.243,11.222L175.768,11.222L176.232,11.222L176.723,11.222L177.722,11.222L178.228,11.222L178.755,11.222L179.211,11.222L179.695,11.222L180.688,11.222L181.192,11.222L181.74,11.222L182.181,11.222L182.667,11.222L183.659,11.222L184.167,11.222L184.713,11.222L185.149,11.222L185.638,11.222L186.63,11.222L187.136,11.222L187.68,11.222L188.121,11.222L188.606,11.222L189.598,11.222L190.102,11.222L190.631,11.222L191.089,11.222L191.574,11.222L192.565,11.222L193.065,11.222L193.589,11.222L194.052,11.222L194.542,11.222L195.538,11.222L196.031,11.222L196.56,11.222L197.022,11.222L197.512,11.222L198.509,11.222L199.026,11.222L199.543,11.222L200,11.222" stroke="#4c78a8" stroke-width="2"/></g></g><path class="foreground" aria-hidden="true" d="" display="none"/></g><g transform="translate(0,0)"><path class="background" aria-hidden="true" d="M0,0h200v200h-200Z"/><g><g class="mark-line role-mark marks" role="graphics-object" aria-roledescription="line mark container"><path aria-label="Time: Aug 31, 2025; Price: 1599; identifier: silex-400-oak-bork-2026" role="graphics-symbol" aria-roledescription="line mark" d="M50.334,22.333L50.512,22.333L51.04,22.333L51.503,22.333L51.993,22.333L52.996,22.333L53.495,22.333L54.022,22.333L54.477,22.333L54.962,22.333L55.961,22.333L56.463,22.333L56.994,22.333L57.448,22.333L57.934,22.333L58.927,22.333L59.428,22.333L59.957,22.333L60.417,22.333L60.903,22.333L61.896,22.333L62.399,22.333L62.924,22.333L63.389,22.333L63.872,22.333L64.867,22.333L65.368,22.333L65.895,22.333L66.353,22.333L66.842,22.333L67.833,22.333L68.088,22.333L68.329,22.333L68.853,22.333L69.318,22.333L69.811,22.333L70.802,22.333L71.298,22.333L71.825,22.333L72.288,22.333L72.78,22.333L73.777,22.333L74.282,22.333L74.812,22.333L75.268,22.333L75.754,22.333L76.746,22.333L77.251,22.333L77.799,22.333L78.24,22.333L78.721,22.333L79.711,22.333L80.218,22.333L80.744,22.333L81.205,22.333L81.692,22.333L82.685,22.333L83.186,22.333L83.713,22.333L84.169,22.333L84.659,22.333L85.653,22.333L86.155,22.333L86.681,22.333L87.14,22.333L87.629,22.333L88.621,22.333L89.118,22.333L89.642,22.333L90.104,22.333L90.599,22.333L91.591,22.333L92.088,22.333L92.61,22.333L93.073,22.333L93.569,22.333L94.566,22.333L95.067,22.333L95.598,22.333L96.056,22.333L96.542,22.333L97.533,22.333L98.039,22.333L98.566,22.333L99.024,22.333L99.511,22.333L100.504,22.333L101.006,22.333L101.536,22.333L101.994,22.333L102.48,22.333L103.474,22.333L103.975,22.333L104.505,22.333L104.962,22.333L105.45,22.333L106.443,22.333L106.945,22.333L107.474,22.333L107.933,22.333L108.418,22.333L109.411,22.333L109.909,22.333L110.435,22.333L110.894,22.333L111.387,22.333L112.382,22.333L112.877,22.333L113.404,22.333L113.866,22.333L114.358,22.333L115.353,22.333L115.859,22.333L116.387,22.333L116.838,22.333L117.33,22.333L118.322,22.333L118.826,22.333L119.355,22.333L119.815,22.333L120.3,22.333L121.293,22.333L121.797,22.333L122.325,22.333L122.787,22.333L123.268,22.333L124.263,22.333L124.768,22.333L125.297,22.333L125.756,22.333L126.237,22.333L127.231,22.333L127.736,22.333L128.264,22.333L128.722,22.333L129.207,22.333L130.2,22.333L130.696,22.333L131.221,22.333L131.684,22.333L132.177,22.333L133.17,22.333L133.666,22.333L134.192,22.333L134.652,22.333L135.146,22.333L136.143,22.333L136.648,22.333L137.177,22.333L137.622,22.333L138.118,22.333L139.111,22.333L139.62,22.333L140.147,22.333L140.602,22.333L141.088,22.333L142.083,22.333L142.587,22.333L143.117,22.333L143.573,22.333L144.058,22.333L145.049,22.333L145.552,22.333L146.079,22.333L146.542,22.333L147.026,22.333L148.018,22.333L148.521,22.333L149.048,22.333L149.51,22.333L149.995,22.333L150.987,22.333L151.485,22.333L152.009,22.333L152.473,22.333L152.965,22.333L153.955,22.333L154.453,22.333L154.98,22.333L155.443,22.333L155.935,22.333L156.929,22.333L157.434,22.333L157.963,22.333L158.422,22.333L158.908,22.333L159.899,22.333L160.402,22.333L160.934,22.333L161.391,22.333L161.877,22.333L162.87,22.333L163.375,22.333L163.904,22.333L164.361,22.333L164.847,22.333L165.841,22.333L166.345,22.333L166.875,22.333L167.336,22.333L167.817,22.333L168.809,22.333L169.312,22.333L169.84,22.333L170.3,22.333L170.786,22.333L171.776,22.333L172.273,22.333L172.798,22.333L173.259,22.333L173.753,22.333L174.747,22.333L175.243,22.333L175.768,22.333L176.232,22.333L176.723,22.333L177.722,22.333L178.228,22.333L178.755,22.333L179.212,22.333L179.695,22.333L180.688,22.333L181.192,22.333L181.74,22.333L182.181,22.333L182.667,22.333L183.659,22.333L184.167,22.333L184.713,22.333L185.149,22.333L185.638,22.333L186.63,22.333L187.136,22.333L187.68,22.333L188.121,22.333L188.606,22.333L189.598,22.333L190.102,22.333L190.631,22.333L191.089,22.333L191.574,22.333L192.565,22.333L193.065,22.333L193.589,22.333L194.052,22.333L194.542,22.333L195.538,22.333L196.031,22.333L196.56,22.333L197.022,22.333L197.512,22.333L198.51,22.333L199.026,22.333L199.543,22.333L200,22.333" stroke="#f58518" stroke-width="2"/></g></g><path class="foreground" aria-hidden="true" d="" display="none"/></g><g transform="translate(0,0)"><path class="background" aria-hidden="true" d="M0,0h200v200h-200Z"/><g><g class="mark-line role-mark marks" role="graphics-object" aria-roledescription="line mark container"><path aria-label="Time: Aug 31, 2025; Price: 1599; identifier: silex-400-warm-slate-grey-2026" role="graphics-symbol" aria-roledescription="line mark" d="M50.334,22.333L50.512,22.333L51.04,22.333L51.503,22.333L51.993,22.333L52.996,22.333L53.495,22.333L54.022,22.333L54.477,22.333L54.962,22.333L55.961,22.333L56.463,22.333L56.994,22.333L57.449,22.333L57.934,22.333L58.927,22.333L59.428,22.333L59.957,22.333L60.417,22.333L60.903,22.333L61.896,22.333L62.399,22.333L62.924,22.333L63.389,22.333L63.872,22.333L64.867,22.333L65.368,22.333L65.896,22.333L66.353,22.333L66.843,22.333L67.834,22.333L68.088,22.333L68.329,22.333L68.853,22.333L69.318,22.333L69.811,22.333L70.802,22.333L71.299,22.333L71.825,22.333L72.288,22.333L72.78,22.333L73.777,22.333L74.283,22.333L74.812,22.333L75.268,22.333L75.755,22.333L76.746,22.333L77.251,22.333L77.799,22.333L78.24,22.333L78.721,22.333L79.712,22.333L80.218,22.333L80.744,22.333L81.205,22.333L81.692,22.333L82.685,22.333L83.187,22.333L83.713,22.333L84.169,22.333L84.659,22.333L85.653,22.333L86.155,22.333L86.682,22.333L87.14,22.333L87.629,22.333L88.621,22.333L89.118,22.333L89.642,22.333L90.104,22.333L90.599,22.333L91.592,22.333L92.088,22.333L92.61,22.333L93.073,22.333L93.569,22.333L94.566,22.333L95.067,22.333L95.598,22.333L96.056,22.333L96.542,22.333L97.533,22.333L98.039,22.333L98.567,22.333L99.024,22.333L99.511,22.333L100.504,22.333L101.006,22.333L101.537,22.333L101.994,22.333L102.48,22.333L103.474,22.333L103.975,22.333L104.506,22.333L104.962,22.333L105.45,22.333L106.444,22.333L106.945,22.333L107.474,22.333L107.934,22.333L108.418,22.333L109.411,22.333L109.91,22.333L110.435,22.333L110.894,22.333L111.387,22.333L112.382,22.333L112.877,22.333L113.404,22.333L113.866,22.333L114.358,22.333L115.353,22.333L115.859,22.333L116.387,22.333L116.838,22.333L117.331,22.333L118.322,22.333L118.826,22.333L119.355,22.333L119.815,22.333L120.3,22.333L121.293,22.333L121.797,22.333L122.326,22.333L122.787,22.333L123.268,22.333L124.263,22.333L124.768,22.333L125.297,22.333L125.756,22.333L126.237,22.333L127.231,22.333L127.736,22.333L128.264,22.333L128.723,22.333L129.207,22.333L130.201,22.333L130.696,22.333L131.222,22.333L131.684,22.333L132.177,22.333L133.17,22.333L133.666,22.333L134.192,22.333L134.652,22.333L135.146,22.333L136.143,22.333L136.649,22.333L137.177,22.333L137.622,22.333L138.118,22.333L139.112,22.333L139.62,22.333L140.147,22.333L140.602,22.333L141.088,22.333L142.083,22.333L142.587,22.333L143.117,22.333L143.573,22.333L144.058,22.333L145.049,22.333L145.552,22.333L146.079,22.333L146.542,22.333L147.026,22.333L148.018,22.333L148.521,22.333L149.048,22.333L149.51,22.333L149.995,22.333L150.987,22.333L151.485,22.333L152.009,22.333L152.473,22.333L152.965,22.333L153.955,22.333L154.453,22.333L154.98,22.333L155.443,22.333L155.936,22.333L156.929,22.333L157.434,22.333L157.964,22.333L158.422,22.333L158.908,22.333L159.899,22.333L160.402,22.333L160.934,22.333L161.391,22.333L161.877,22.333L162.87,22.333L163.375,22.333L163.905,22.333L164.361,22.333L164.847,22.333L165.841,22.333L166.345,22.333L166.875,22.333L167.336,22.333L167.817,22.333L168.809,22.333L169.312,22.333L169.841,22.333L170.3,22.333L170.787,22.333L171.777,22.333L172.273,22.333L172.798,22.333L173.26,22.333L173.753,22.333L174.747,22.333L175.243,22.333L175.769,22.333L176.232,22.333L176.723,22.333L177.723,22.333L178.228,22.333L178.755,22.333L179.212,22.333L179.695,22.333L180.688,22.333L181.192,22.333L181.74,22.333L182.181,22.333L182.667,22.333L183.659,22.333L184.167,22.333L184.713,22.333L185.149,22.333L185.638,22.333L186.63,22.333L187.137,22.333L187.68,22.333L188.122,22.333L188.606,22.333L189.598,22.333L190.102,22.333L190.631,22.333L191.089,22.333L191.575,22.333L192.565,22.333L193.065,22.333L193.589,22.333L194.052,22.333L194.542,22.333L195.539,22.333L196.032,22.333L196.56,22.333L197.022,22.333L197.512,22.333L198.51,22.333L199.026,22.333L199.543,22.333L200,22.333" stroke="#e45756" stroke-width="2"/></g></g><path class="foreground" aria-hidden="true" d="" display="none"/></g></g><g class="mark-group role-legend" role="graphics-symbol" aria-roledescription="legend" aria-label="Symbol legend titled 'identifier' for stroke color with 16 values: devote-1-2022, silex-400-oak-bork-2026, silex-400-warm-slate-grey-2026, devote-1-2024, fastroad-ar-2, ending with allure-rs-2-2024"><g transform="translate(220,0)"><path class="background" aria-hidden="true" d="M0,0h256v222h-256Z" pointer-events="none"/><g><g class="mark-group role-legend-entry"><g transform="translate(0,16)"><path class="background" aria-hidden="true" d="M0,0h0v0h0Z" pointer-events="none"/><g><g class="mark-group role-scope" role="graphics-object" aria-roledescription="group mark container"><g transform="translate(0,0)"><path class="background" aria-hidden="true" d="M0,0h256v11h-256Z" pointer-events="none" opacity="1"/><g><g class="mark-symbol role-legend-symbol" pointer-events="none"><path transform="translate(6,6)" d="M-5,0L5,0" stroke="#4c78a8" stroke-width="1.5" opacity="1"/></g><g class="mark-text role-legend-label" pointer-events="none"><text text-anchor="start" transform="translate(16,9)" font-family="Liberation Mono" font-size="10px" fill="#000" opacity="1">devote-1-2022</text></g></g><path class="foreground" aria-hidden="true" d="" pointer-events="none" display="none"/></g><g transform="translate(0,13)"><path class="background" aria-hidden="true" d="M0,0h256v11h-256Z" pointer-events="none" opacity="1"/><g><g class="mark-symbol role-legend-symbol" pointer-events="none"><path transform="translate(6,6)" d="M-5,0L5,0" stroke="#f58518" stroke-width="1.5" opacity="1"/></g><g class="mark-text role-legend-label" pointer-events="none"><text text-anchor="start" transform="translate(16,9)" font-family="Liberation Mono" font-size="10px" fill="#000" opacity="1">silex-400-oak-bork-2026</text></g></g><path class="foreground" aria-hidden="true" d="" pointer-events="none" display="none"/></g><g transform="translate(0,26)"><path class="background" aria-hidden="true" d="M0,0h256v11h-256Z" pointer-events="none" opacity="1"/><g><g class="mark-symbol role-legend-symbol" pointer-events="none"><path transform="translate(6,6)" d="M-5,0L5,0" stroke="#e45756" stroke-width="1.5" opacity="1"/></g><g class="mark-text role-legend-label" pointer-events="none"><text text-anchor="start" transform="translate(16,9)" font-family="Liberation Mono" font-size="10px" fill="#000" opacity="1">silex-400-warm-slate-grey-2026</text></g></g><path class="foreground" aria-hidden="true" d="" pointer-events="none" display="none"/></g><g transform="translate(0,39)"><path class="background" aria-hidden="true" d="M0,0h256v11h-256Z" pointer-events="none" opacity="1"/><g><g class="mark-symbol role-legend-symbol" pointer-events="none"><path transform="translate(6,6)" d="M-5,0L5,0" stroke="#72b7b2" stroke-width="1.5" opacity="1"/></g><g class="mark-text role-legend-label" pointer-events="none"><text text-anchor="start" transform="translate(16,9)" font-family="Liberation Mono" font-size="10px" fill="#000" opacity="1">devote-1-2024</text></g></g><path class="foreground" aria-hidden="true" d="" pointer-events="none" display="none"/></g><g transform="translate(0,52)"><path class="background" aria-hidden="true" d="M0,0h256v11h-256Z" pointer-events="none" opacity="1"/><g><g class="mark-symbol role-legend-symbol" pointer-events="none"><path transform="translate(6,6)" d="M-5,0L5,0" stroke="#54a24b" stroke-width="1.5" opacity="1"/></g><g class="mark-text role-legend-label" pointer-events="none"><text text-anchor="start" transform="translate(16,9)" font-family="Liberation Mono" font-size="10px" fill="#000" opacity="1">fastroad-ar-2</text></g></g><path class="foreground" aria-hidden="true" d="" pointer-events="none" display="none"/></g><g transform="translate(0,65)"><path class="background" aria-hidden="true" d="M0,0h256v11h-256Z" pointer-events="none" opacity="1"/><g><g class="mark-symbol role-legend-symbol" pointer-events="none"><path transform="translate(6,6)" d="M-5,0L5,0" stroke="#eeca3b" stroke-width="1.5" opacity="1"/></g><g class="mark-text role-legend-label" pointer-events="none"><text text-anchor="start" transform="translate(16,9)" font-family="Liberation Mono" font-size="10px" fill="#000" opacity="1">thrive-2</text></g></g><path class="foreground" aria-hidden="true" d="" pointer-events="none" display="none"/></g><g transform="translate(0,78)"><path class="background" aria-hidden="true" d="M0,0h256v11h-256Z" pointer-events="none" opacity="1"/><g><g class="mark-symbol role-legend-symbol" pointer-events="none"><path transform="translate(6,6)" d="M-5,0L5,0" stroke="#b279a2" stroke-width="1.5" opacity="1"/></g><g class="mark-text role-legend-label" pointer-events="none"><text text-anchor="start" transform="translate(16,9)" font-family="Liberation Mono" font-size="10px" fill="#000" opacity="1">allure-rs-1-2023</text></g></g><path class="foreground" aria-hidden="true" d="" pointer-events="none" display="none"/></g><g transform="translate(0,91)"><path class="background" aria-hidden="true" d="M0,0h256v11h-256Z" pointer-events="none" opacity="1"/><g><g class="mark-symbol role-legend-symbol" pointer-events="none"><path transform="translate(6,6)" d="M-5,0L5,0" stroke="#ff9da6" stroke-width="1.5" opacity="1"/></g><g class="mark-text role-legend-label" pointer-events="none"><text text-anchor="start" transform="translate(16,9)" font-family="Liberation Mono" font-size="10px" fill="#000" opacity="1">roam-2</text></g></g><path class="foreground" aria-hidden="true" d="" pointer-events="none" display="none"/></g><g transform="translate(0,104)"><path class="background" aria-hidden="true" d="M0,0h256v11h-256Z" pointer-events="none" opacity="1"/><g><g class="mark-symbol role-legend-symbol" pointer-events="none"><path transform="translate(6,6)" d="M-5,0L5,0" stroke="#9d755d" stroke-width="1.5" opacity="1"/></g><g class="mark-text role-legend-label" pointer-events="none"><text text-anchor="start" transform="translate(16,9)" font-family="Liberation Mono" font-size="10px" fill="#000" opacity="1">fastroad-sl-3-2022</text></g></g><path class="foreground" aria-hidden="true" d="" pointer-events="none" display="none"/></g><g transform="translate(0,117)"><path class="background" aria-hidden="true" d="M0,0h256v11h-256Z" pointer-events="none" opacity="1"/><g><g class="mark-symbol role-legend-symbol" pointer-events="none"><path transform="translate(6,6)" d="M-5,0L5,0" stroke="#bab0ac" stroke-width="1.5" opacity="1"/></g><g class="mark-text role-legend-label" pointer-events="none"><text text-anchor="start" transform="translate(16,9)" font-family="Liberation Mono" font-size="10px" fill="#000" opacity="1">allure-rs-2-2023</text></g></g><path class="foreground" aria-hidden="true" d="" pointer-events="none" display="none"/></g><g transform="translate(0,130)"><path class="background" aria-hidden="true" d="M0,0h256v11h-256Z" pointer-events="none" opacity="1"/><g><g class="mark-symbol role-legend-symbol" pointer-events="none"><path transform="translate(6,6)" d="M-5,0L5,0" stroke="#4c78a8" stroke-width="1.5" opacity="1"/></g><g class="mark-text role-legend-label" pointer-events="none"><text text-anchor="start" transform="translate(16,9)" font-family="Liberation Mono" font-size="10px" fill="#000" opacity="1">escape-city-disc-1-2024</text></g></g><path class="foreground" aria-hidden="true" d="" pointer-events="none" display="none"/></g><g transform="translate(0,143)"><path class="background" aria-hidden="true" d="M0,0h256v11h-256Z" pointer-events="none" opacity="1"/><g><g class="mark-symbol role-legend-symbol" pointer-events="none"><path transform="translate(6,6)" d="M-5,0L5,0" stroke="#f58518" stroke-width="1.5" opacity="1"/></g><g class="mark-text role-legend-label" pointer-events="none"><text text-anchor="start" transform="translate(16,9)" font-family="Liberation Mono" font-size="10px" fill="#000" opacity="1">sdrbike-escape-1-city-disc</text></g></g><path class="foreground" aria-hidden="true" d="" pointer-events="none" display="none"/></g><g transform="translate(0,156)"><path class="background" aria-hidden="true" d="M0,0h256v11h-256Z" pointer-events="none" opacity="1"/><g><g class="mark-symbol role-legend-symbol" pointer-events="none"><path transform="translate(6,6)" d="M-5,0L5,0" stroke="#e45756" stroke-width="1.5" opacity="1"/></g><g class="mark-text role-legend-label" pointer-events="none"><text text-anchor="start" transform="translate(16,9)" font-family="Liberation Mono" font-size="10px" fill="#000" opacity="1">roam-disc-2-2024</text></g></g><path class="foreground" aria-hidden="true" d="" pointer-events="none" display="none"/></g><g transform="translate(0,169)"><path class="background" aria-hidden="true" d="M0,0h256v11h-256Z" pointer-events="none" opacity="1"/><g><g class="mark-symbol role-legend-symbol" pointer-events="none"><path transform="translate(6,6)" d="M-5,0L5,0" stroke="#72b7b2" stroke-width="1.5" opacity="1"/></g><g class="mark-text role-legend-label" pointer-events="none"><text text-anchor="start" transform="translate(16,9)" font-family="Liberation Mono" font-size="10px" fill="#000" opacity="1">rove-2</text></g></g><path class="foreground" aria-hidden="true" d="" pointer-events="none" display="none"/></g><g transform="translate(0,182)"><path class="background" aria-hidden="true" d="M0,0h256v11h-256Z" pointer-events="none" opacity="1"/><g><g class="mark-symbol role-legend-symbol" pointer-events="none"><path transform="translate(6,6)" d="M-5,0L5,0" stroke="#54a24b" stroke-width="1.5" opacity="1"/></g><g class="mark-text role-legend-label" pointer-events="none"><text text-anchor="start" transform="translate(16,9)" font-family="Liberation Mono" font-size="10px" fill="#000" opacity="1">allure-rs-2-2022</text></g></g><path class="foreground" aria-hidden="true" d="" pointer-events="none" display="none"/></g><g transform="translate(0,195)"><path class="background" aria-hidden="true" d="M0,0h256v11h-256Z" pointer-events="none" opacity="1"/><g><g class="mark-symbol role-legend-symbol" pointer-events="none"><path transform="translate(6,6)" d="M-5,0L5,0" stroke="#eeca3b" stroke-width="1.5" opacity="1"/></g><g class="mark-text role-legend-label" pointer-events="none"><text text-anchor="start" transform="translate(16,9)" font-family="Liberation Mono" font-size="10px" fill="#000" opacity="1">allure-rs-2-2024</text></g></g><path class="foreground" aria-hidden="true" d="" pointer-events="none" display="none"/></g></g></g><path class="foreground" aria-hidden="true" d="" pointer-events="none" display="none"/></g></g><g class="mark-text role-legend-title" pointer-events="none"><text text-anchor="start" transform="translate(0,9)" font-family="Liberation Mono" font-size="11px" font-weight="bold" fill="#000" opacity="1">identifier</text></g></g><path class="foreground" aria-hidden="true" d="" pointer-events="none" display="none"/></g></g></g><path class="foreground" aria-hidden="true" d="" display="none"/></g></g></g></svg>