<svg xmlns="http://www.w3.org/2000/svg" xmlns:xlink="http://www.w3.org/1999/xlink" version="1.1" class="marks" width="548" height="244" viewBox="0 0 548 244"><rect width="548" height="244" fill="white"/><g fill="none" stroke-miterlimit="10" transform="translate(67,7)"><g class="mark-group role-frame root" role="graphics-object" aria-roledescription="group mark container"><g transform="translate(0,0)"><path class="background" aria-hidden="true" d="M0.5,0.5h200v200h-200Z" stroke="#ddd"/><g><g class="mark-group role-axis" aria-hidden="true"><g transform="translate(0.5,200.5)"><path class="background" aria-hidden="true" d="M0,0h0v0h0Z" pointer-events="none"/><g><g class="mark-rule role-axis-grid" pointer-events="none"><line transform="translate(7,-200)" x2="0" y2="200" stroke="#ddd" stroke-width="1" opacity="1"/><line transform="translate(27,-200)" x2="0" y2="200" stroke="#ddd" stroke-width="1" opacity="1"/><line transform="translate(47,-200)" x2="0" y2="200" stroke="#ddd" stroke-width="1" opacity="1"/><line transform="translate(66,-200)" x2="0" y2="200" stroke="#ddd" stroke-width="1" opacity="1"/><line transform="translate(86,-200)" x2="0" y2="200" stroke="#ddd" stroke-width="1" opacity="1"/><line transform="translate(105,-200)" x2="0" y2="200" stroke="#ddd" stroke-width="1" opacity="1"/><line transform="translate(125,-200)" x2="0" y2="200" stroke="#ddd" stroke-width="1" opacity="1"/><line transform="translate(144,-200)" x2="0" y2="200" stroke="#ddd" stroke-width="1" opacity="1"/><line transform="translate(164,-200)" x2="0" y2="200" stroke="#ddd" stroke-width="1" opacity="1"/><line transform="translate(184,-200)" x2="0" y2="200" stroke="#ddd" stroke-width="1" opacity="1"/></g></g><path class="foreground" aria-hidden="true" d="" pointer-events="none" display="none"/></g></g><g class="mark-group role-axis" aria-hidden="true"><g transform="translate(0.5,0.5)"><path class="background" aria-hidden="true" d="M0,0h0v0h0Z" pointer-events="none"/><g><g class="mark-rule role-axis-grid" pointer-events="none"><line transform="translate(0,200)" x2="200" y2="0" stroke="#ddd" stroke-width="1" opacity="1"/><line transform="translate(0,144)" x2="200" y2="0" stroke="#ddd" stroke-width="1" opacity="1"/><line transform="translate(0,89)" x2="200" y2="0" stroke="#ddd" stroke-width="1" opacity="1"/><line transform="translate(0,33)" x2="200" y2="0" stroke="#ddd" stroke-width="1" opacity="1"/></g></g><path class="foreground" aria-hidden="true" d="" pointer-events="none" display="none"/></g></g><g class="mark-group role-axis" role="graphics-symbol" aria-roledescription="axis" aria-label="X-axis titled 'Time' for a time scale with values from Thursday, 14 August 2025, 8:34:48 AM to Friday, 24 October 2025, 8:47:41 PM"><g transform="translate(0.5,200.5)"><path class="background" aria-hidden="true" d="M0,0h0v0h0Z" pointer-events="none"/><g><g class="mark-rule role-axis-tick" pointer-events="none"><line transform="translate(7,0)" x2="0" y2="5" stroke="#888" stroke-width="1" opacity="1"/><line transform="translate(27,0)" x2="0" y2="5" stroke="#888" stroke-width="1" opacity="1"/><line transform="translate(47,0)" x2="0" y2="5" stroke="#888" stroke-width="1" opacity="1"/><line transform="translate(66,0)" x2="0" y2="5" stroke="#888" stroke-width="1" opacity="1"/><line transform="translate(86,0)" x2="0" y2="5" stroke="#888" stroke-width="1" opacity="1"/><line transform="translate(105,0)" x2="0" y2="5" stroke="#888" stroke-width="1" opacity="1"/><line transform="translate(125,0)" x2="0" y2="5" stroke="#888" stroke-width="1" opacity="1"/><line transform="translate(144,0)" x2="0" y2="5" stroke="#888" stroke-width="1" opacity="1"/><line transform="translate(164,0)" x2="0" y2="5" stroke="#888" stroke-width="1" opacity="1"/><line transform="translate(184,0)" x2="0" y2="5" stroke="#888" stroke-width="1" opacity="1"/></g><g class="mark-text role-axis-label" pointer-events="none"><text text-anchor="middle" transform="translate(7.390659867131791,15)" font-family="Liberation Mono" font-size="10px" fill="#000" opacity="1">Aug 17</text><text text-anchor="middle" transform="translate(26.96863154190106,15)" font-family="Liberation Mono" font-size="10px" fill="#000" opacity="0">Aug 24</text><text text-anchor="middle" transform="translate(46.54660321667033,15)" font-family="Liberation Mono" font-size="10px" fill="#000" opacity="0">Aug 31</text><text text-anchor="middle" transform="translate(66.1245748914396,15)" font-family="Liberation Mono" font-size="10px" fill="#000" opacity="0">Sep 07</text><text text-anchor="middle" transform="translate(85.70254656620887,15)" font-family="Liberation Mono" font-size="10px" fill="#000" opacity="1">Sep 14</text><text text-anchor="middle" transform="translate(105.28051824097813,15)" font-family="Liberation Mono" font-size="10px" fill="#000" opacity="0">Sep 21</text><text text-anchor="middle" transform="translate(124.8584899157474,15)" font-family="Liberation Mono" font-size="10px" fill="#000" opacity="0">Sep 28</text><text text-anchor="middle" transform="translate(144.43646159051667,15)" font-family="Liberation Mono" font-size="10px" fill="#000" opacity="0">Oct 05</text><text text-anchor="middle" transform="translate(164.01443326528593,15)" font-family="Liberation Mono" font-size="10px" fill="#000" opacity="1">Oct 12</text><text text-anchor="middle" transform="translate(183.59240494005522,15)" font-family="Liberation Mono" font-size="10px" fill="#000" opacity="0">Oct 19</text></g><g class="mark-rule role-axis-domain" pointer-events="none"><line transform="translate(0,0)" x2="200" y2="0" stroke="#888" stroke-width="1" opacity="1"/></g><g class="mark-text role-axis-title" pointer-events="none"><text text-anchor="middle" transform="translate(100,30)" font-family="Liberation Mono" font-size="11px" font-weight="bold" fill="#000" opacity="1">Time</text></g></g><path class="foreground" aria-hidden="true" d="" pointer-events="none" display="none"/></g></g><g class="mark-group role-axis" role="graphics-symbol" aria-roledescription="axis" aria-label="Y-axis titled 'Price' for a linear scale with values from 0 to 1,800"><g transform="translate(0.5,0.5)"><path class="background" aria-hidden="true" d="M0,0h0v0h0Z" pointer-events="none"/><g><g class="mark-rule role-axis-tick" pointer-events="none"><line transform="translate(0,200)" x2="-5" y2="0" stroke="#888" stroke-width="1" opacity="1"/><line transform="translate(0,144)" x2="-5" y2="0" stroke="#888" stroke-width="1" opacity="1"/><line transform="translate(0,89)" x2="-5" y2="0" stroke="#888" stroke-width="1" opacity="1"/><line transform="translate(0,33)" x2="-5" y2="0" stroke="#888" stroke-width="1" opacity="1"/></g><g class="mark-text role-axis-label" pointer-events="none"><text text-anchor="end" transform="translate(-7,203)" font-family="Liberation Mono" font-size="10px" fill="#000" opacity="1">0</text><text text-anchor="end" transform="translate(-7,147.44444444444443)" font-family="Liberation Mono" font-size="10px" fill="#000" opacity="1">500</text><text text-anchor="end" transform="translate(-7,91.88888888888889)" font-family="Liberation Mono" font-size="10px" fill="#000" opacity="1">1,000</text><text text-anchor="end" transform="translate(-7,36.33333333333333)" font-family="Liberation Mono" font-size="10px" fill="#000" opacity="1">1,500</text></g><g class="mark-rule role-axis-domain" pointer-events="none"><line transform="translate(0,200)" x2="0" y2="-200" stroke="#888" stroke-width="1" opacity="1"/></g><g class="mark-text role-axis-title" pointer-events="none"><text text-anchor="middle" transform="translate(-51,100) rotate(-90) translate(0,-2)" font-family="Liberation Mono" font-size="11px" font-weight="bold" fill="#000" opacity="1">Price</text></g></g><path class="foreground" aria-hidden="true" d="" pointer-events="none" display="none"/></g></g><g class="mark-group role-scope pathgroup" role="graphics-object" aria-roledescription="group mark container"><g transform="translate(0,0)"><path class="background" aria-hidden="true" d="M0,0h200v200h-200Z"/><g><g class="mark-line role-mark marks" role="graphics-object" aria-roledescription="line mark container"><path aria-label="Time: Aug 14, 2025; Price: 899; identifier: escape-city-disc-1-2024" role="graphics-symbol" aria-roledescription="line mark" d="M0,100.111L0.023,100.111L0.042,100.111L0.557,100.111L0.967,100.111L1.427,100.111L2.37,100.111L2.833,100.111L3.345,100.111L3.764,100.111L4.222,100.111L5.158,100.111L5.627,100.111L6.123,100.111L6.556,100.111L7.014,100.111L7.966,100.111L8.423,100.111L8.921,100.111L9.355,100.111L9.815,100.111L10.77,100.111L11.23,100.111L11.745,100.111L11.926,100.111L12.161,100.111L12.609,100.111L13.546,100.111L14.019,100.111L14.516,100.111L14.95,100.111L15.405,100.111L16.344,100.111L16.813,100.111L17.33,100.111L17.539,100.111L17.746,100.111L18.205,100.111L19.139,100.111L19.612,100.111L20.111,100.111L20.545,100.111L21,100.111L21.937,100.111L22.408,100.111L22.906,100.111L23.339,100.111L23.796,100.111L24.731,100.111L25.2,100.111L25.695,100.111L26.128,100.111L26.59,100.111L27.532,100.111L27.995,100.111L28.493,100.111L28.928,100.111L29.387,100.111L30.332,100.111L30.804,100.111L31.315,100.111L31.732,100.111L32.188,100.111L33.125,100.111L33.599,100.111L34.526,100.111L34.981,100.111L35.918,100.111L36.391,100.111L36.574,100.111L36.889,100.111L37.201,100.111L37.323,100.111L37.78,100.111L38.714,100.111L39.189,100.111L39.687,100.111L40.119,100.111L40.576,100.111L41.511,100.111L41.984,100.111L42.48,100.111L42.915,100.111L43.371,100.111L44.305,100.111L44.774,100.111L45.269,100.111L45.705,100.111L46.145,100.111L46.167,100.111L47.103,100.111L47.402,100.111L47.569,100.111L48.067,100.111L48.503,100.111L48.964,100.111L49.909,100.111L50.379,100.111L50.875,100.111L51.304,100.111L51.761,100.111L52.701,100.111L53.174,100.111L53.674,100.111L54.102,100.111L54.559,100.111L55.494,100.111L55.966,100.111L56.465,100.111L56.898,100.111L57.355,100.111L58.291,100.111L58.764,100.111L59.259,100.111L59.697,100.111L60.151,100.111L61.089,100.111L61.561,100.111L62.057,100.111L62.488,100.111L62.949,100.111L63.882,100.111L64.122,100.111L64.349,100.111L64.842,100.111L65.28,100.111L65.745,100.111L66.678,100.111L67.146,100.111L67.641,100.111L68.077,100.111L68.541,100.111L69.48,100.111L69.956,100.111L70.454,100.111L70.884,100.111L71.342,100.111L72.276,100.111L72.751,100.111L73.267,100.111L73.683,100.111L74.136,100.111L75.069,100.111L75.545,100.111L76.041,100.111L76.475,100.111L76.934,100.111L77.869,100.111L78.341,100.111L78.837,100.111L79.267,100.111L79.728,100.111L80.664,100.111L81.137,100.111L81.633,100.111L82.065,100.111L82.525,100.111L83.459,100.111L83.927,100.111L84.421,100.111L84.856,100.111L85.322,100.111L86.257,100.111L86.724,100.111L87.216,100.111L87.652,100.111L88.119,100.111L89.058,100.111L89.53,100.111L90.029,100.111L90.46,100.111L90.917,100.111L91.853,100.111L92.329,100.111L92.826,100.111L93.256,100.111L93.715,100.111L94.651,100.111L95.124,100.111L95.623,100.111L96.054,100.111L96.511,100.111L97.447,100.111L97.92,100.111L98.419,100.111L98.849,100.111L99.309,100.111L100.244,100.111L100.716,100.111L101.214,100.111L101.647,100.111L102.104,100.111L103.039,100.111L103.508,100.111L104.003,100.111L104.436,100.111L104.9,100.111L105.836,100.111L106.303,100.111L106.799,100.111L107.235,100.111L107.698,100.111L108.635,100.111L109.111,100.111L109.609,100.111L110.034,100.111L110.497,100.111L111.431,100.111L111.906,100.111L112.403,100.111L112.837,100.111L113.294,100.111L114.229,100.111L114.704,100.111L115.201,100.111L115.636,100.111L116.089,100.111L117.026,100.111L117.501,100.111L118,100.111L118.432,100.111L118.885,100.111L119.821,100.111L120.297,100.111L120.794,100.111L121.226,100.111L121.682,100.111L122.618,100.111L123.084,100.111L123.579,100.111L124.015,100.111L124.479,100.111L125.415,100.111L125.881,100.111L126.377,100.111L126.81,100.111L127.275,100.111L128.214,100.111L128.69,100.111L129.188,100.111L129.607,100.111L130.074,100.111L131.01,100.111L131.488,100.111L131.985,100.111L132.413,100.111L132.871,100.111L133.808,100.111L134.283,100.111L134.782,100.111L135.211,100.111L135.668,100.111L136.602,100.111L137.075,100.111L137.572,100.111L138.007,100.111L138.463,100.111L139.397,100.111L139.872,100.111L140.367,100.111L140.803,100.111L141.26,100.111L142.194,100.111L142.663,100.111L143.156,100.111L143.593,100.111L144.056,100.111L144.989,100.111L145.458,100.111L145.954,100.111L146.39,100.111L146.854,100.111L147.79,100.111L148.265,100.111L148.764,100.111L149.195,100.111L149.653,100.111L150.586,100.111L151.061,100.111L151.561,100.111L151.992,100.111L152.449,100.111L153.384,100.111L153.86,100.111L154.359,100.111L154.789,100.111L155.246,100.111L156.182,100.111L156.657,100.111L157.157,100.111L157.59,100.111L158.044,100.111L158.978,100.111L159.452,100.111L159.949,100.111L160.382,100.111L160.84,100.111L161.772,100.111L162.24,100.111L162.734,100.111L163.169,100.111L163.634,100.111L164.57,100.111L165.037,100.111L165.532,100.111L165.969,100.111L166.431,100.111L167.372,100.111L167.849,100.111L168.344,100.111L168.772,100.111L169.23,100.111L170.165,100.111L170.64,100.111L171.156,100.111L171.571,100.111L172.029,100.111L172.963,100.111L173.442,100.111L173.956,100.111L174.367,100.111L174.827,100.111L175.76,100.111L176.238,100.111L176.75,100.111L177.166,100.111L177.622,100.111L178.556,100.111L179.031,100.111L179.529,100.111L179.961,100.111L180.418,100.111L181.351,100.111L181.822,100.111L182.315,100.111L182.751,100.111L183.213,100.111L184.151,100.111L184.615,100.111L185.113,100.111L185.548,100.111L186.01,100.111L186.949,100.111L187.435,100.111L187.922,100.111L188.352,100.111L188.814,100.111L189.744,100.111L190.233,100.111L190.74,100.111L191.148,100.111L191.609,100.111L192.544,100.111L193.022,100.111L193.536,100.111L193.952,100.111L194.402,100.111L195.338,100.111L195.816,100.111L196.33,100.111L196.744,100.111L197.202,100.111L198.134,100.111L198.611,100.111L199.125,100.111L199.541,100.111L199.999,100.111" stroke="#4c78a8" stroke-width="2"/></g></g><path class="foreground" aria-hidden="true" d="" display="none"/></g><g transform="translate(0,0)"><path class="background" aria-hidden="true" d="M0,0h200v200h-200Z"/><g><g class="mark-line role-mark marks" role="graphics-object" aria-roledescription="line mark container"><path aria-label="Time: Aug 14, 2025; Price: 999; identifier: roam-2" role="graphics-symbol" aria-roledescription="line mark" d="M0,89L0.023,89L0.042,89L0.557,89L0.967,89L1.427,89L2.37,89L2.833,89L3.345,89L3.764,89L4.222,89L5.158,89L5.627,89L6.123,89L6.556,89L7.019,89L7.966,89L8.423,89L8.921,89L9.355,89L9.815,89L10.77,89L11.23,89L11.745,89L11.926,89L12.161,89L12.609,89L13.546,89L14.019,89L14.516,89L14.95,89L15.405,89L16.344,89L16.813,89L17.33,89L17.539,89L17.746,89L18.205,89L19.139,89L19.612,89L20.111,89L20.545,89L21,89L21.937,89L22.408,89L22.906,89L23.339,89L23.796,89L24.731,89L25.2,89L25.695,89L26.128,89L26.59,89L27.532,89L27.995,89L28.493,89L28.928,89L29.388,89L30.332,89L30.804,89L31.315,89L31.732,89L32.188,89L33.125,89L33.6,89L34.526,89L34.982,89L35.918,89L36.391,89L36.574,89L36.889,89L37.201,89L37.323,89L37.78,89L38.714,89L39.189,89L39.687,89L40.119,89L40.576,89L41.511,89L41.984,89L42.48,89L42.915,89L43.371,89L44.305,89L44.774,89L45.269,89L45.705,89L46.145,89L46.167,89L47.103,89L47.402,89L47.569,89L48.067,89L48.503,89L48.964,89L49.909,89L50.379,89L50.875,89L51.304,89L51.761,89L52.701,89L53.174,89L53.674,89L54.102,89L54.559,89L55.495,89L55.967,89L56.465,89L56.898,89L57.355,89L58.291,89L58.765,89L59.259,89L59.697,89L60.151,89L61.089,89L61.561,89L62.057,89L62.488,89L62.949,89L63.883,89L64.122,89L64.349,89L64.843,89L65.28,89L65.745,89L66.679,89L67.146,89L67.641,89L68.078,89L68.541,89L69.48,89L69.956,89L70.455,89L70.884,89L71.342,89L72.276,89L72.752,89L73.267,89L73.683,89L74.136,89L75.069,89L75.546,89L76.041,89L76.475,89L76.934,89L77.869,89L78.342,89L78.837,89L79.267,89L79.729,89L80.664,89L81.137,89L81.633,89L82.065,89L82.525,89L83.459,89L83.927,89L84.421,89L84.856,89L85.322,89L86.257,89L86.724,89L87.216,89L87.652,89L88.119,89L89.058,89L89.53,89L90.03,89L90.461,89L90.918,89L91.853,89L92.329,89L92.826,89L93.256,89L93.715,89L94.651,89L95.124,89L95.623,89L96.054,89L96.512,89L97.447,89L97.92,89L98.419,89L98.849,89L99.309,89L100.244,89L100.716,89L101.215,89L101.647,89L102.104,89L103.039,89L103.508,89L104.003,89L104.436,89L104.9,89L105.837,89L106.303,89L106.799,89L107.235,89L107.698,89L108.635,89L109.111,89L109.609,89L110.034,89L110.497,89L111.431,89L111.906,89L112.403,89L112.837,89L113.294,89L114.229,89L114.704,89L115.201,89L115.636,89L116.089,89L117.026,89L117.501,89L118,89L118.432,89L118.885,89L119.822,89L120.297,89L120.794,89L121.226,89L121.682,89L122.618,89L123.084,89L123.579,89L124.015,89L124.479,89L125.415,89L125.881,89L126.377,89L126.81,89L127.275,89L128.214,89L128.69,89L129.188,89L129.607,89L130.074,89L131.01,89L131.488,89L131.985,89L132.413,89L132.871,89L133.808,89L134.283,89L134.782,89L135.211,89L135.668,89L136.602,89L137.075,89L137.572,89L138.007,89L138.463,89L139.397,89L139.872,89L140.367,89L140.803,89L141.26,89L142.194,89L142.663,89L143.156,89L143.593,89L144.056,89L144.989,89L145.458,89L145.954,89L146.39,89L146.854,89L147.79,89L148.265,89L148.764,89L149.196,89L149.653,89L150.586,89L151.061,89L151.561,89L151.992,89L152.449,89L153.385,89L153.86,89L154.359,89L154.789,89L155.246,89L156.183,89L156.657,89L157.157,89L157.59,89L158.044,89L158.978,89L159.452,89L159.949,89L160.382,89L160.84,89L161.773,89L162.241,89L162.735,89L163.169,89L163.635,89L164.57,89L165.037,89L165.532,89L165.969,89L166.431,89L167.372,89L167.849,89L168.344,89L168.773,89L169.23,89L170.165,89L170.64,89L171.156,89L171.571,89L172.029,89L172.964,89L173.442,89L173.956,89L174.367,89L174.827,89L175.76,89L176.238,89L176.75,89L177.166,89L177.622,89L178.557,89L179.031,89L179.53,89L179.961,89L180.418,89L181.351,89L181.822,89L182.315,89L182.751,89L183.213,89L184.151,89L184.615,89L185.113,89L185.548,89L186.01,89L186.949,89L187.435,89L187.922,89L188.353,89L188.814,89L189.744,89L190.233,89L190.74,89L191.148,89L191.609,89L192.544,89L193.022,89L193.536,89L193.953,89L194.402,89L195.338,89L195.816,89L196.33,89L196.744,89L197.202,89L198.134,89L198.611,89L199.125,89L199.541,89L199.999,89" stroke="#ff9da6" stroke-width="2"/></g></g><path class="foreground" aria-hidden="true" d="" display="none"/></g><g transform="translate(0,0)"><path class="background" aria-hidden="true" d="M0,0h200v200h-200Z"/><g><g class="mark-line role-mark marks" role="graphics-object" aria-roledescription="line mark container"><path aria-label="Time: Aug 14, 2025; Price: 999; identifier: fastroad-sl-3-2022" role="graphics-symbol" aria-roledescription="line mark" d="M0,89L0.023,89L0.042,89L0.557,89L0.967,89L1.427,89L2.37,89L2.833,89L3.345,89L3.764,89L4.222,89L5.158,89L5.627,89L6.123,89L6.556,89L7.019,89L7.966,89L8.423,89L8.921,89L9.355,89L9.815,89L10.77,89L11.23,89L11.745,89L11.926,89L12.161,89L12.609,89L13.546,89L14.019,89L14.516,89L14.95,89L15.405,89L16.344,89L16.813,89L17.33,89L17.539,89L17.746,89L18.205,89L19.139,89L19.612,89L20.111,89L20.545,89L21,89L21.937,89L22.408,89L22.907,89L23.339,89L23.796,89L24.732,89L25.2,89L25.695,89L26.128,89L26.59,89L27.532,89L27.995,89L28.493,89L28.928,89L29.388,89L30.333,89L30.804,89L31.315,89L31.732,89L32.188,89L33.125,89L33.6,89L34.527,89L34.982,89L35.918,89L36.391,89L36.574,89L36.889,89L37.201,89L37.323,89L37.781,89L38.715,89L39.189,89L39.687,89L40.119,89L40.576,89L41.512,89L41.984,89L42.481,89L42.915,89L43.372,89L44.305,89L44.774,89L45.269,89L45.705,89L46.145,89L46.167,89L47.103,89L47.402,89L47.57,89L48.067,89L48.503,89L48.964,89L49.909,89L50.379,89L50.875,89L51.304,89L51.761,89L52.701,89L53.174,89L53.674,89L54.102,89L54.559,89L55.495,89L55.967,89L56.465,89L56.898,89L57.355,89L58.291,89L58.765,89L59.259,89L59.697,89L60.152,89L61.089,89L61.561,89L62.057,89L62.488,89L62.949,89L63.883,89L64.123,89L64.349,89L64.843,89L65.281,89L65.745,89L66.679,89L67.146,89L67.641,89L68.078,89L68.541,89L69.48,89L69.956,89L70.455,89L70.884,89L71.342,89L72.276,89L72.752,89L73.267,89L73.683,89L74.136,89L75.069,89L75.546,89L76.042,89L76.475,89L76.934,89L77.869,89L78.342,89L78.837,89L79.267,89L79.729,89L80.664,89L81.137,89L81.633,89L82.065,89L82.525,89L83.459,89L83.927,89L84.421,89L84.856,89L85.322,89L86.257,89L86.724,89L87.216,89L87.653,89L88.119,89L89.058,89L89.53,89L90.03,89L90.461,89L90.918,89L91.853,89L92.329,89L92.826,89L93.256,89L93.715,89L94.651,89L95.124,89L95.623,89L96.054,89L96.512,89L97.447,89L97.92,89L98.419,89L98.849,89L99.309,89L100.244,89L100.717,89L101.215,89L101.647,89L102.104,89L103.039,89L103.508,89L104.003,89L104.436,89L104.9,89L105.837,89L106.303,89L106.799,89L107.235,89L107.698,89L108.635,89L109.111,89L109.609,89L110.034,89L110.497,89L111.431,89L111.906,89L112.404,89L112.837,89L113.294,89L114.229,89L114.704,89L115.201,89L115.636,89L116.089,89L117.026,89L117.501,89L118,89L118.432,89L118.885,89L119.822,89L120.297,89L120.794,89L121.226,89L121.682,89L122.618,89L123.084,89L123.579,89L124.015,89L124.479,89L125.415,89L125.881,89L126.377,89L126.81,89L127.275,89L128.214,89L128.69,89L129.188,89L129.607,89L130.074,89L131.01,89L131.488,89L131.985,89L132.413,89L132.871,89L133.808,89L134.283,89L134.782,89L135.211,89L135.668,89L136.602,89L137.075,89L137.572,89L138.008,89L138.464,89L139.398,89L139.872,89L140.367,89L140.803,89L141.26,89L142.194,89L142.663,89L143.156,89L143.594,89L144.056,89L144.989,89L145.458,89L145.954,89L146.39,89L146.854,89L147.79,89L148.265,89L148.764,89L149.196,89L149.653,89L150.586,89L151.061,89L151.561,89L151.992,89L152.449,89L153.385,89L153.86,89L154.359,89L154.789,89L155.246,89L156.183,89L156.658,89L157.157,89L157.59,89L158.044,89L158.978,89L159.452,89L159.95,89L160.382,89L160.84,89L161.773,89L162.241,89L162.735,89L163.169,89L163.635,89L164.57,89L165.037,89L165.532,89L165.969,89L166.431,89L167.372,89L167.849,89L168.345,89L168.774,89L169.23,89L170.166,89L170.64,89L171.156,89L171.571,89L172.029,89L172.964,89L173.442,89L173.956,89L174.367,89L174.827,89L175.76,89L176.238,89L176.75,89L177.166,89L177.622,89L178.557,89L179.031,89L179.53,89L179.961,89L180.418,89L181.351,89L181.822,89L182.315,89L182.751,89L183.213,89L184.151,89L184.615,89L185.113,89L185.548,89L186.01,89L186.949,89L187.435,89L187.922,89L188.353,89L188.814,89L189.744,89L190.233,89L190.74,89L191.148,89L191.609,89L192.544,89L193.022,89L193.536,89L193.953,89L194.402,89L195.338,89L195.816,89L196.33,89L196.744,89L197.202,89L198.134,89L198.611,89L199.125,89L199.541,89L199.999,89" stroke="#9d755d" stroke-width="2"/></g></g><path class="foreground" aria-hidden="true" d="" display="none"/></g><g transform="translate(0,0)"><path class="background" aria-hidden="true" d="M0,0h200v200h-200Z"/><g><g class="mark-line role-mark marks" role="graphics-object" aria-roledescription="line mark container"><path aria-label="Time: Aug 14, 2025; Price: 1199; identifier: fastroad-ar-2" role="graphics-symbol" aria-roledescription="line mark" d="M0,66.778L0.023,66.778L0.042,66.778L0.557,66.778L0.967,66.778L1.427,66.778L2.37,66.778L2.834,66.778L3.345,66.778L3.765,66.778L4.222,66.778L5.158,66.778L5.627,66.778L6.123,66.778L6.556,66.778L7.021,66.778L7.966,66.778L8.423,66.778L8.921,66.778L9.355,66.778L9.815,66.778L10.771,66.778L11.23,66.778L11.745,66.778L11.926,66.778L12.161,66.778L12.609,66.778L13.546,66.778L14.02,66.778L14.516,66.778L14.95,66.778L15.405,66.778L16.344,66.778L16.813,66.778L17.33,66.778L17.539,66.778L17.746,66.778L18.205,66.778L19.139,66.778L19.612,66.778L20.111,66.778L20.545,66.778L21.001,66.778L21.937,66.778L22.408,66.778L22.907,66.778L23.339,66.778L23.796,66.778L24.732,66.778L25.2,66.778L25.695,66.778L26.128,66.778L26.59,66.778L27.532,66.778L27.995,66.778L28.493,66.778L28.929,66.778L29.388,66.778L30.333,66.778L30.805,66.778L31.315,66.778L31.732,66.778L32.188,66.778L33.125,66.778L33.6,66.778L34.527,66.778L34.982,66.778L35.918,66.778L36.391,66.778L36.574,66.778L36.889,66.778L37.201,66.778L37.323,66.778L37.781,66.778L38.715,66.778L39.189,66.778L39.687,66.778L40.119,66.778L40.576,66.778L41.512,66.778L41.984,66.778L42.481,66.778L42.915,66.778L43.372,66.778L44.305,66.778L44.774,66.778L45.269,66.778L45.705,66.778L46.145,66.778L46.167,66.778L47.103,66.778L47.402,66.778L47.57,66.778L48.067,66.778L48.504,66.778L48.965,66.778L49.909,66.778L50.379,66.778L50.876,66.778L51.304,66.778L51.761,66.778L52.701,66.778L53.174,66.778L53.674,66.778L54.103,66.778L54.56,66.778L55.495,66.778L55.967,66.778L56.465,66.778L56.898,66.778L57.355,66.778L58.291,66.778L58.765,66.778L59.259,66.778L59.697,66.778L60.152,66.778L61.089,66.778L61.561,66.778L62.058,66.778L62.488,66.778L62.949,66.778L63.883,66.778L64.123,66.778L64.349,66.778L64.843,66.778L65.281,66.778L65.745,66.778L66.679,66.778L67.146,66.778L67.641,66.778L68.078,66.778L68.541,66.778L69.48,66.778L69.956,66.778L70.455,66.778L70.884,66.778L71.342,66.778L72.276,66.778L72.752,66.778L73.267,66.778L73.683,66.778L74.136,66.778L75.069,66.778L75.546,66.778L76.042,66.778L76.475,66.778L76.934,66.778L77.869,66.778L78.342,66.778L78.837,66.778L79.267,66.778L79.729,66.778L80.664,66.778L81.137,66.778L81.633,66.778L82.065,66.778L82.525,66.778L83.459,66.778L83.928,66.778L84.421,66.778L84.856,66.778L85.322,66.778L86.257,66.778L86.724,66.778L87.216,66.778L87.653,66.778L88.119,66.778L89.059,66.778L89.53,66.778L90.03,66.778L90.461,66.778L90.918,66.778L91.853,66.778L92.329,66.778L92.826,66.778L93.256,66.778L93.715,66.778L94.651,66.778L95.124,66.778L95.623,66.778L96.054,66.778L96.512,66.778L97.447,66.778L97.92,66.778L98.419,66.778L98.849,66.778L99.309,66.778L100.244,66.778L100.717,66.778L101.215,66.778L101.648,66.778L102.104,66.778L103.039,66.778L103.509,66.778L104.003,66.778L104.436,66.778L104.9,66.778L105.837,66.778L106.303,66.778L106.799,66.778L107.235,66.778L107.698,66.778L108.635,66.778L109.111,66.778L109.609,66.778L110.034,66.778L110.497,66.778L111.431,66.778L111.906,66.778L112.404,66.778L112.837,66.778L113.294,66.778L114.229,66.778L114.704,66.778L115.201,66.778L115.636,66.778L116.089,66.778L117.026,66.778L117.502,66.778L118,66.778L118.432,66.778L118.885,66.778L119.822,66.778L120.297,66.778L120.794,66.778L121.226,66.778L121.682,66.778L122.618,66.778L123.084,66.778L123.579,66.778L124.015,66.778L124.479,66.778L125.415,66.778L125.881,66.778L126.377,66.778L126.81,66.778L127.275,66.778L128.214,66.778L128.69,66.778L129.189,66.778L129.607,66.778L130.074,66.778L131.01,66.778L131.488,66.778L131.985,66.778L132.413,66.778L132.871,66.778L133.808,66.778L134.283,66.778L134.782,66.778L135.211,66.778L135.668,66.778L136.602,66.778L137.075,66.778L137.572,66.778L138.008,66.778L138.464,66.778L139.398,66.778L139.872,66.778L140.367,66.778L140.803,66.778L141.26,66.778L142.194,66.778L142.663,66.778L143.157,66.778L143.594,66.778L144.056,66.778L144.989,66.778L145.458,66.778L145.954,66.778L146.39,66.778L146.854,66.778L147.79,66.778L148.265,66.778L148.764,66.778L149.196,66.778L149.653,66.778L150.586,66.778L151.061,66.778L151.562,66.778L151.992,66.778L152.449,66.778L153.385,66.778L153.861,66.778L154.359,66.778L154.789,66.778L155.246,66.778L156.183,66.778L156.658,66.778L157.157,66.778L157.59,66.778L158.044,66.778L158.978,66.778L159.452,66.778L159.95,66.778L160.382,66.778L160.84,66.778L161.773,66.778L162.241,66.778L162.735,66.778L163.169,66.778L163.635,66.778L164.57,66.778L165.037,66.778L165.532,66.778L165.969,66.778L166.431,66.778L167.373,66.778L167.849,66.778L168.345,66.778L168.774,66.778L169.23,66.778L170.166,66.778L170.64,66.778L171.156,66.778L171.571,66.778L172.029,66.778L172.964,66.778L173.442,66.778L173.956,66.778L174.367,66.778L174.827,66.778L175.76,66.778L176.238,66.778L176.75,66.778L177.166,66.778L177.622,66.778L178.557,66.778L179.031,66.778L179.53,66.778L179.961,66.778L180.418,66.778L181.351,66.778L181.822,66.778L182.316,66.778L182.751,66.778L183.213,66.778L184.151,66.778L184.615,66.778L185.113,66.778L185.548,66.778L186.01,66.778L186.949,66.778L187.435,66.778L187.922,66.778L188.353,66.778L188.814,66.778L189.745,66.778L190.233,66.778L190.74,66.778L191.149,66.778L191.609,66.778L192.544,66.778L193.022,66.778L193.536,66.778L193.953,66.778L194.402,66.778L195.339,66.778L195.816,66.778L196.33,66.778L196.744,66.778L197.202,66.778L198.134,66.778L198.611,66.778L199.125,66.778L199.541,66.778L199.999,66.778" stroke="#54a24b" stroke-width="2"/></g></g><path class="foreground" aria-hidden="true" d="" display="none"/></g><g transform="translate(0,0)"><path class="background" aria-hidden="true" d="M0,0h200v200h-200Z"/><g><g class="mark-line role-mark marks" role="graphics-object" aria-roledescription="line mark container"><path aria-label="Time: Aug 18, 2025; Price: 899; identifier: sdrbike-escape-1-city-disc" role="graphics-symbol" aria-roledescription="line mark" d="M11.926,100.111L12.161,100.111L12.609,100.111L13.546,100.111L14.02,100.111L14.516,100.111L14.95,100.111L15.405,100.111L16.344,100.111L16.813,100.111L17.33,100.111L17.539,100.111L17.746,100.111L18.205,100.111L19.139,100.111L19.612,100.111L20.111,100.111L20.545,100.111L21.001,100.111L21.937,100.111L22.408,100.111L22.907,100.111L23.339,100.111L23.796,100.111L24.732,100.111L25.201,100.111L25.695,100.111L26.128,100.111L26.59,100.111L27.532,100.111L27.995,100.111L28.493,100.111L28.929,100.111L29.388,100.111L30.333,100.111L30.805,100.111L31.315,100.111L31.733,100.111L32.188,100.111L33.125,100.111L33.6,100.111L34.527,100.111L34.982,100.111L35.918,100.111L36.391,100.111L36.575,100.111L36.889,100.111L37.201,100.111L37.323,100.111L37.781,100.111L38.715,100.111L39.189,100.111L39.687,100.111L40.119,100.111L40.576,100.111L41.512,100.111L41.984,100.111L42.481,100.111L42.915,100.111L43.372,100.111L44.305,100.111L44.774,100.111L45.269,100.111L45.705,100.111L46.145,100.111L46.167,100.111L47.103,100.111L47.402,100.111L47.57,100.111L48.067,100.111L48.504,100.111L48.965,100.111L49.909,100.111L50.379,100.111L50.876,100.111L51.304,100.111L51.761,100.111L52.702,100.111L53.174,100.111L53.674,100.111L54.103,100.111L54.56,100.111L55.495,100.111L55.967,100.111L56.465,100.111L56.898,100.111L57.356,100.111L58.291,100.111L58.765,100.111L59.259,100.111L59.697,100.111L60.152,100.111L61.089,100.111L61.561,100.111L62.058,100.111L62.488,100.111L62.95,100.111L63.883,100.111L64.123,100.111L64.349,100.111L64.843,100.111L65.281,100.111L65.745,100.111L66.679,100.111L67.146,100.111L67.641,100.111L68.078,100.111L68.541,100.111L69.48,100.111L69.956,100.111L70.455,100.111L70.885,100.111L71.343,100.111L72.276,100.111L72.752,100.111L73.267,100.111L73.683,100.111L74.136,100.111L75.069,100.111L75.546,100.111L76.042,100.111L76.476,100.111L76.934,100.111L77.87,100.111L78.342,100.111L78.837,100.111L79.267,100.111L79.729,100.111L80.664,100.111L81.138,100.111L81.633,100.111L82.065,100.111L82.525,100.111L83.459,100.111L83.928,100.111L84.421,100.111L84.857,100.111L85.323,100.111L86.257,100.111L86.725,100.111L87.216,100.111L87.653,100.111L88.119,100.111L89.059,100.111L89.53,100.111L90.03,100.111L90.461,100.111L90.918,100.111L91.853,100.111L92.329,100.111L92.826,100.111L93.256,100.111L93.715,100.111L94.651,100.111L95.124,100.111L95.623,100.111L96.054,100.111L96.512,100.111L97.447,100.111L97.92,100.111L98.419,100.111L98.849,100.111L99.309,100.111L100.244,100.111L100.717,100.111L101.215,100.111L101.648,100.111L102.104,100.111L103.039,100.111L103.509,100.111L104.003,100.111L104.436,100.111L104.9,100.111L105.837,100.111L106.303,100.111L106.799,100.111L107.235,100.111L107.698,100.111L108.635,100.111L109.111,100.111L109.609,100.111L110.034,100.111L110.498,100.111L111.431,100.111L111.906,100.111L112.404,100.111L112.837,100.111L113.294,100.111L114.229,100.111L114.704,100.111L115.201,100.111L115.636,100.111L116.089,100.111L117.026,100.111L117.502,100.111L118,100.111L118.432,100.111L118.885,100.111L119.822,100.111L120.297,100.111L120.794,100.111L121.226,100.111L121.682,100.111L122.618,100.111L123.084,100.111L123.579,100.111L124.015,100.111L124.479,100.111L125.415,100.111L125.881,100.111L126.377,100.111L126.81,100.111L127.275,100.111L128.214,100.111L128.69,100.111L129.189,100.111L129.607,100.111L130.074,100.111L131.01,100.111L131.489,100.111L131.985,100.111L132.413,100.111L132.871,100.111L133.808,100.111L134.283,100.111L134.782,100.111L135.212,100.111L135.668,100.111L136.602,100.111L137.075,100.111L137.572,100.111L138.008,100.111L138.464,100.111L139.398,100.111L139.872,100.111L140.367,100.111L140.803,100.111L141.26,100.111L142.194,100.111L142.663,100.111L143.157,100.111L143.594,100.111L144.057,100.111L144.989,100.111L145.458,100.111L145.954,100.111L146.39,100.111L146.854,100.111L147.79,100.111L148.265,100.111L148.764,100.111L149.196,100.111L149.653,100.111L150.587,100.111L151.061,100.111L151.562,100.111L151.992,100.111L152.45,100.111L153.385,100.111L153.861,100.111L154.359,100.111L154.789,100.111L155.247,100.111L156.183,100.111L156.658,100.111L157.157,100.111L157.591,100.111L158.044,100.111L158.978,100.111L159.452,100.111L159.95,100.111L160.382,100.111L160.84,100.111L161.773,100.111L162.241,100.111L162.735,100.111L163.169,100.111L163.635,100.111L164.57,100.111L165.038,100.111L165.532,100.111L165.969,100.111L166.431,100.111L167.373,100.111L167.849,100.111L168.345,100.111L168.774,100.111L169.23,100.111L170.166,100.111L170.64,100.111L171.156,100.111L171.571,100.111L172.029,100.111L172.964,100.111L173.442,100.111L173.956,100.111L174.367,100.111L174.827,100.111L175.76,100.111L176.239,100.111L176.75,100.111L177.166,100.111L177.622,100.111L178.557,100.111L179.031,100.111L179.53,100.111L179.961,100.111L180.418,100.111L181.351,100.111L181.822,100.111L182.316,100.111L182.751,100.111L183.213,100.111L184.151,100.111L184.616,100.111L185.113,100.111L185.548,100.111L186.01,100.111L186.949,100.111L187.436,100.111L187.922,100.111L188.353,100.111L188.814,100.111L189.745,100.111L190.233,100.111L190.74,100.111L191.149,100.111L191.609,100.111L192.545,100.111L193.022,100.111L193.536,100.111L193.953,100.111L194.402,100.111L195.339,100.111L195.816,100.111L196.33,100.111L196.744,100.111L197.202,100.111L198.134,100.111L198.611,100.111L199.125,100.111L199.541,100.111L199.999,100.111" stroke="#f58518" stroke-width="2"/></g></g><path class="foreground" aria-hidden="true" d="" display="none"/></g><g transform="translate(0,0)"><path class="background" aria-hidden="true" d="M0,0h200v200h-200Z"/><g><g class="mark-line role-mark marks" role="graphics-object" aria-roledescription="line mark container"><path aria-label="Time: Aug 20, 2025; Price: 899; identifier: roam-disc-2-2024" role="graphics-symbol" aria-roledescription="line mark" d="M17.539,100.111L17.746,100.111L18.205,100.111L19.139,100.111L19.612,100.111L20.111,100.111L20.545,100.111L21,100.111L21.937,100.111L22.408,100.111L22.906,100.111L23.339,100.111L23.796,100.111L24.731,100.111L25.2,100.111L25.695,100.111L26.128,100.111L26.59,100.111L27.532,100.111L27.995,100.111L28.493,100.111L28.928,100.111L29.387,100.111L30.332,100.111L30.804,100.111L31.315,100.111L31.732,100.111L32.188,100.111L33.125,100.111L33.599,100.111L34.526,100.111L34.982,100.111L35.918,100.111L36.391,100.111L36.574,100.111L36.889,100.111L37.201,100.111L37.323,100.111L37.78,100.111L38.714,100.111L39.189,100.111L39.687,100.111L40.119,100.111L40.576,100.111L41.511,100.111L41.984,100.111L42.48,100.111L42.915,100.111L43.371,100.111L44.305,100.111L44.774,100.111L45.269,100.111L45.705,100.111L46.145,100.111L46.167,100.111L47.103,100.111L47.402,100.111L47.569,100.111L48.067,100.111L48.503,100.111L48.964,100.111L49.909,100.111L50.379,100.111L50.875,100.111L51.304,100.111L51.761,100.111L52.701,100.111L53.174,100.111L53.674,100.111L54.102,100.111L54.559,100.111L55.495,100.111L55.967,100.111L56.465,100.111L56.898,100.111L57.355,100.111L58.291,100.111L58.764,100.111L59.259,100.111L59.697,100.111L60.151,100.111L61.089,100.111L61.561,100.111L62.057,100.111L62.488,100.111L62.949,100.111L63.883,100.111L64.122,100.111L64.349,100.111L64.842,100.111L65.28,100.111L65.745,100.111L66.678,100.111L67.146,100.111L67.641,100.111L68.078,100.111L68.541,100.111L69.48,100.111L69.956,100.111L70.455,100.111L70.884,100.111L71.342,100.111L72.276,100.111L72.752,100.111L73.267,100.111L73.683,100.111L74.136,100.111L75.069,100.111L75.546,100.111L76.041,100.111L76.475,100.111L76.934,100.111L77.869,100.111L78.341,100.111L78.837,100.111L79.267,100.111L79.728,100.111L80.664,100.111L81.137,100.111L81.633,100.111L82.065,100.111L82.525,100.111L83.459,100.111L83.927,100.111L84.421,100.111L84.856,100.111L85.322,100.111L86.257,100.111L86.724,100.111L87.216,100.111L87.652,100.111L88.119,100.111L89.058,100.111L89.53,100.111L90.03,100.111L90.461,100.111L90.918,100.111L91.853,100.111L92.329,100.111L92.826,100.111L93.256,100.111L93.715,100.111L94.651,100.111L95.124,100.111L95.623,100.111L96.054,100.111L96.511,100.111L97.447,100.111L97.92,100.111L98.419,100.111L98.849,100.111L99.309,100.111L100.244,100.111L100.716,100.111L101.215,100.111L101.647,100.111L102.104,100.111L103.039,100.111L103.508,100.111L104.003,100.111L104.436,100.111L104.9,100.111L105.837,100.111L106.303,100.111L106.799,100.111L107.235,100.111L107.698,100.111L108.635,100.111L109.111,100.111L109.609,100.111L110.034,100.111L110.497,100.111L111.431,100.111L111.906,100.111L112.403,100.111L112.837,100.111L113.294,100.111L114.229,100.111L114.704,100.111L115.201,100.111L115.636,100.111L116.089,100.111L117.026,100.111L117.501,100.111L118,100.111L118.432,100.111L118.885,100.111L119.821,100.111L120.297,100.111L120.794,100.111L121.226,100.111L121.682,100.111L122.618,100.111L123.084,100.111L123.579,100.111L124.015,100.111L124.479,100.111L125.415,100.111L125.881,100.111L126.377,100.111L126.81,100.111L127.275,100.111L128.214,100.111L128.69,100.111L129.188,100.111L129.607,100.111L130.074,100.111L131.01,100.111L131.488,100.111L131.985,100.111L132.413,100.111L132.871,100.111L133.808,100.111L134.283,100.111L134.782,100.111L135.211,100.111L135.668,100.111L136.602,100.111L137.075,100.111L137.572,100.111L138.007,100.111L138.463,100.111L139.397,100.111L139.872,100.111L140.367,100.111L140.803,100.111L141.26,100.111L142.194,100.111L142.663,100.111L143.156,100.111L143.593,100.111L144.056,100.111L144.989,100.111L145.458,100.111L145.954,100.111L146.39,100.111L146.854,100.111L147.79,100.111L148.265,100.111L148.764,100.111L149.196,100.111L149.653,100.111L150.586,100.111L151.061,100.111L151.561,100.111L151.992,100.111L152.449,100.111L153.385,100.111L153.86,100.111L154.359,100.111L154.789,100.111L155.246,100.111L156.183,100.111L156.657,100.111L157.157,100.111L157.59,100.111L158.044,100.111L158.978,100.111L159.452,100.111L159.949,100.111L160.382,100.111L160.84,100.111L161.773,100.111L162.24,100.111L162.735,100.111L163.169,100.111L163.634,100.111L164.57,100.111L165.037,100.111L165.532,100.111L165.969,100.111L166.431,100.111L167.372,100.111L167.849,100.111L168.344,100.111L168.772,100.111L169.23,100.111L170.165,100.111L170.64,100.111L171.156,100.111L171.571,100.111L172.029,100.111L172.963,100.111L173.442,100.111L173.956,100.111L174.367,100.111L174.827,100.111L175.76,100.111L176.238,100.111L176.75,100.111L177.166,100.111L177.622,100.111L178.557,100.111L179.031,100.111L179.529,100.111L179.961,100.111L180.418,100.111L181.351,100.111L181.822,100.111L182.315,100.111L182.751,100.111L183.213,100.111L184.151,100.111L184.615,100.111L185.113,100.111L185.548,100.111L186.01,100.111L186.949,100.111L187.435,100.111L187.922,100.111L188.352,100.111L188.814,100.111L189.744,100.111L190.233,100.111L190.74,100.111L191.148,100.111L191.609,100.111L192.544,100.111L193.022,100.111L193.536,100.111L193.952,100.111L194.402,100.111L195.338,100.111L195.816,100.111L196.33,100.111L196.744,100.111L197.202,100.111L198.134,100.111L198.611,100.111L199.125,100.111L199.541,100.111L199.999,100.111" stroke="#e45756" stroke-width="2"/></g></g><path class="foreground" aria-hidden="true" d="" display="none"/></g><g transform="translate(0,0)"><path class="background" aria-hidden="true" d="M0,0h200v200h-200Z"/><g><g class="mark-line role-mark marks" role="graphics-object" aria-roledescription="line mark container"><path aria-label="Time: Aug 20, 2025; Price: 1199; identifier: thrive-2" role="graphics-symbol" aria-roledescription="line mark" d="M17.539,66.778L17.746,66.778L18.205,66.778L19.139,66.778L19.612,66.778L20.111,66.778L20.545,66.778L21.001,66.778L21.937,66.778L22.408,66.778L22.907,66.778L23.339,66.778L23.796,66.778L24.732,66.778L25.201,66.778L25.695,66.778L26.128,66.778L26.59,66.778L27.532,66.778L27.996,66.778L28.493,66.778L28.929,66.778L29.388,66.778L30.333,66.778L30.805,66.778L31.315,66.778L31.733,66.778L32.188,66.778L33.125,66.778L33.6,66.778L34.527,66.778L34.982,66.778L35.918,66.778L36.391,66.778L36.575,66.778L36.889,66.778L37.201,66.778L37.323,66.778L37.781,66.778L38.715,66.778L39.189,66.778L39.687,66.778L40.12,66.778L40.576,66.778L41.512,66.778L41.984,66.778L42.481,66.778L42.915,66.778L43.372,66.778L44.305,66.778L44.774,66.778L45.269,66.778L45.705,66.778L46.145,66.778L46.167,66.778L47.103,66.778L47.402,66.778L47.57,66.778L48.067,66.778L48.504,66.778L48.965,66.778L49.909,66.778L50.379,66.778L50.876,66.778L51.304,66.778L51.761,66.778L52.702,66.778L53.175,66.778L53.674,66.778L54.103,66.778L54.56,66.778L55.495,66.778L55.967,66.778L56.465,66.778L56.898,66.778L57.356,66.778L58.291,66.778L58.765,66.778L59.259,66.778L59.697,66.778L60.152,66.778L61.089,66.778L61.561,66.778L62.058,66.778L62.489,66.778L62.95,66.778L63.883,66.778L64.123,66.778L64.35,66.778L64.843,66.778L65.281,66.778L65.745,66.778L66.679,66.778L67.146,66.778L67.641,66.778L68.078,66.778L68.542,66.778L69.481,66.778L69.956,66.778L70.455,66.778L70.885,66.778L71.343,66.778L72.276,66.778L72.752,66.778L73.267,66.778L73.683,66.778L74.136,66.778L75.069,66.778L75.546,66.778L76.042,66.778L76.476,66.778L76.934,66.778L77.87,66.778L78.342,66.778L78.837,66.778L79.267,66.778L79.729,66.778L80.664,66.778L81.138,66.778L81.633,66.778L82.065,66.778L82.525,66.778L83.459,66.778L83.928,66.778L84.422,66.778L84.857,66.778L85.323,66.778L86.257,66.778L86.725,66.778L87.216,66.778L87.653,66.778L88.12,66.778L89.059,66.778L89.53,66.778L90.03,66.778L90.461,66.778L90.918,66.778L91.853,66.778L92.329,66.778L92.826,66.778L93.257,66.778L93.716,66.778L94.651,66.778L95.124,66.778L95.623,66.778L96.054,66.778L96.512,66.778L97.447,66.778L97.92,66.778L98.419,66.778L98.849,66.778L99.309,66.778L100.244,66.778L100.717,66.778L101.215,66.778L101.648,66.778L102.104,66.778L103.039,66.778L103.509,66.778L104.003,66.778L104.436,66.778L104.9,66.778L105.837,66.778L106.303,66.778L106.799,66.778L107.235,66.778L107.698,66.778L108.635,66.778L109.112,66.778L109.609,66.778L110.034,66.778L110.498,66.778L111.431,66.778L111.906,66.778L112.404,66.778L112.837,66.778L113.294,66.778L114.229,66.778L114.704,66.778L115.201,66.778L115.636,66.778L116.089,66.778L117.026,66.778L117.502,66.778L118,66.778L118.432,66.778L118.885,66.778L119.822,66.778L120.297,66.778L120.794,66.778L121.226,66.778L121.682,66.778L122.618,66.778L123.084,66.778L123.579,66.778L124.016,66.778L124.48,66.778L125.415,66.778L125.881,66.778L126.377,66.778L126.81,66.778L127.276,66.778L128.214,66.778L128.691,66.778L129.189,66.778L129.607,66.778L130.074,66.778L131.01,66.778L131.489,66.778L131.985,66.778L132.414,66.778L132.871,66.778L133.809,66.778L134.283,66.778L134.782,66.778L135.212,66.778L135.669,66.778L136.602,66.778L137.075,66.778L137.572,66.778L138.008,66.778L138.464,66.778L139.398,66.778L139.872,66.778L140.368,66.778L140.803,66.778L141.26,66.778L142.194,66.778L142.663,66.778L143.157,66.778L143.594,66.778L144.057,66.778L144.989,66.778L145.458,66.778L145.954,66.778L146.39,66.778L146.854,66.778L147.79,66.778L148.265,66.778L148.764,66.778L149.196,66.778L149.653,66.778L150.587,66.778L151.061,66.778L151.562,66.778L151.992,66.778L152.45,66.778L153.385,66.778L153.861,66.778L154.359,66.778L154.79,66.778L155.247,66.778L156.183,66.778L156.658,66.778L157.157,66.778L157.591,66.778L158.044,66.778L158.978,66.778L159.452,66.778L159.95,66.778L160.382,66.778L160.84,66.778L161.773,66.778L162.241,66.778L162.735,66.778L163.17,66.778L163.635,66.778L164.57,66.778L165.038,66.778L165.533,66.778L165.969,66.778L166.431,66.778L167.373,66.778L167.849,66.778L168.345,66.778L168.775,66.778L169.23,66.778L170.166,66.778L170.64,66.778L171.156,66.778L171.571,66.778L172.029,66.778L172.964,66.778L173.442,66.778L173.956,66.778L174.367,66.778L174.827,66.778L175.76,66.778L176.239,66.778L176.75,66.778L177.166,66.778L177.622,66.778L178.557,66.778L179.032,66.778L179.53,66.778L179.961,66.778L180.418,66.778L181.351,66.778L181.822,66.778L182.316,66.778L182.751,66.778L183.213,66.778L184.151,66.778L184.616,66.778L185.113,66.778L185.548,66.778L186.01,66.778L186.949,66.778L187.436,66.778L187.922,66.778L188.353,66.778L188.814,66.778L189.745,66.778L190.233,66.778L190.74,66.778L191.149,66.778L191.609,66.778L192.545,66.778L193.022,66.778L193.536,66.778L193.953,66.778L194.402,66.778L195.339,66.778L195.816,66.778L196.33,66.778L196.744,66.778L197.202,66.778L198.135,66.778L198.611,66.778L199.125,66.778L199.541,66.778L199.999,66.778" stroke="#eeca3b" stroke-width="2"/></g></g><path class="foreground" aria-hidden="true" d="" display="none"/></g><g transform="translate(0,0)"><path class="background" aria-hidden="true" d="M0,0h200v200h-200Z"/><g><g class="mark-line role-mark marks" role="graphics-object" aria-roledescription="line mark container"><path aria-label="Time: Aug 20, 2025; Price: 999; identifier: rove-2" role="graphics-symbol" aria-roledescription="line mark" d="M17.539,89L17.746,89L18.206,89L19.139,89L19.612,89L20.111,89L20.545,89L21.001,89L21.937,89L22.408,89L22.907,89L23.339,89L23.796,89L24.732,89L25.201,89L25.695,89L26.128,89L26.59,89L27.532,89L27.996,89L28.493,89L28.929,89L29.388,89L30.333,89L30.805,89L31.315,89L31.733,89L32.188,89L33.125,89L33.6,89L34.527,89L34.982,89L35.918,89L36.391,89L36.575,89L36.889,89L37.201,89L37.323,89L37.781,89L38.715,89L39.189,89L39.687,89L40.12,89L40.577,89L41.512,89L41.984,89L42.481,89L42.915,89L43.372,89L46.145,111.222L46.167,111.222L47.104,111.222L47.402,111.222L47.57,111.222L48.067,111.222L48.504,111.222L48.965,111.222L49.909,111.222L50.379,111.222L50.876,111.222L51.304,111.222L51.761,111.222L52.702,111.222L53.175,111.222L53.674,111.222L54.103,111.222L54.56,111.222L55.495,111.222L55.967,111.222L56.465,111.222L56.898,111.222L57.356,111.222L58.291,111.222L58.765,111.222L59.259,111.222L59.697,111.222L60.152,111.222L61.089,111.222L61.561,111.222L62.058,111.222L62.489,111.222L62.95,111.222L63.883,111.222L64.123,111.222L64.35,111.222L64.843,111.222L65.281,111.222L65.745,111.222L66.679,111.222L67.146,111.222L67.642,111.222L68.078,111.222L68.542,111.222L69.481,111.222L69.956,111.222L70.455,111.222L70.885,111.222L71.343,111.222L72.276,111.222L72.752,111.222L73.268,111.222L73.683,111.222L74.136,111.222L75.069,111.222L75.546,111.222L76.042,111.222L76.476,111.222L76.934,111.222L77.87,111.222L78.342,111.222L78.838,111.222L79.267,111.222L79.729,111.222L80.664,111.222L81.138,111.222L81.633,111.222L82.065,111.222L82.526,111.222L83.459,111.222L83.928,111.222L84.422,111.222L84.857,111.222L85.323,111.222L86.257,111.222L86.725,111.222L87.216,111.222L87.653,111.222L88.12,111.222L89.059,111.222L89.53,111.222L90.03,111.222L90.461,111.222L90.918,111.222L91.853,111.222L92.329,111.222L92.826,111.222L93.257,111.222L93.716,111.222L94.651,111.222L95.124,111.222L95.623,111.222L96.054,111.222L96.512,111.222L97.447,111.222L97.92,111.222L98.419,111.222L98.849,111.222L99.309,111.222L100.244,111.222L100.717,111.222L101.215,111.222L101.648,111.222L102.104,111.222L103.039,111.222L103.509,111.222L104.003,111.222L104.436,111.222L104.9,111.222L105.837,111.222L106.303,111.222L106.799,111.222L107.235,111.222L107.698,111.222L108.635,111.222L109.112,111.222L109.609,111.222L110.034,111.222L110.498,111.222L111.431,111.222L111.906,111.222L112.404,111.222L112.837,111.222L113.294,111.222L114.229,111.222L114.704,111.222L115.201,111.222L115.636,111.222L116.089,111.222L117.026,111.222L117.502,111.222L118,111.222L118.432,111.222L118.885,111.222L119.822,111.222L120.297,111.222L120.794,111.222L121.226,111.222L121.683,111.222L122.618,111.222L123.084,111.222L123.58,111.222L124.016,111.222L124.48,111.222L125.415,111.222L125.882,111.222L126.377,111.222L126.81,111.222L127.276,111.222L128.214,111.222L128.691,111.222L129.189,111.222L129.607,111.222L130.074,111.222L131.01,111.222L131.489,111.222L131.985,111.222L132.414,111.222L132.871,111.222L133.809,111.222L134.283,111.222L134.783,111.222L135.212,111.222L135.669,111.222L136.602,111.222L137.075,111.222L137.572,111.222L138.008,111.222L138.464,111.222L139.398,111.222L139.872,111.222L140.368,111.222L140.803,111.222L141.26,111.222L142.194,111.222L142.663,111.222L143.157,111.222L143.594,111.222L144.057,111.222L144.99,111.222L145.458,111.222L145.954,111.222L146.39,111.222L146.854,111.222L147.79,111.222L148.265,111.222L148.764,111.222L149.196,111.222L149.653,111.222L150.587,111.222L151.061,111.222L151.562,111.222L151.992,111.222L152.45,111.222L153.385,111.222L153.861,111.222L154.36,111.222L154.79,111.222L155.247,111.222L156.183,111.222L156.658,111.222L157.157,111.222L157.591,111.222L158.044,111.222L158.979,111.222L159.452,111.222L159.95,111.222L160.382,111.222L160.84,111.222L161.773,111.222L162.241,111.222L162.735,111.222L163.17,111.222L163.635,111.222L164.57,111.222L165.038,111.222L165.533,111.222L165.969,111.222L166.431,111.222L167.373,111.222L167.849,111.222L168.345,111.222L168.775,111.222L169.23,111.222L170.166,111.222L170.64,111.222L171.156,111.222L171.571,111.222L172.029,111.222L172.964,111.222L173.442,111.222L173.956,111.222L174.367,111.222L174.827,111.222L175.76,111.222L176.239,111.222L176.75,111.222L177.166,111.222L177.622,111.222L178.557,111.222L179.032,111.222L179.53,111.222L179.961,111.222L180.418,111.222L181.351,111.222L181.822,111.222L182.316,111.222L182.751,111.222L183.213,111.222L184.151,111.222L184.616,111.222L185.113,111.222L185.548,111.222L186.01,111.222L186.949,111.222L187.436,111.222L187.922,111.222L188.353,111.222L188.814,111.222L189.745,111.222L190.233,111.222L190.74,111.222L191.149,111.222L191.609,111.222L192.545,111.222L193.022,111.222L193.536,111.222L193.953,111.222L194.402,111.222L195.339,111.222L195.816,111.222L196.33,111.222L196.745,111.222L197.202,111.222L198.135,111.222L198.611,111.222L199.125,111.222L199.541,111.222L199.999,111.222" stroke="#72b7b2" stroke-width="2"/></g></g><path class="foreground" aria-hidden="true" d="" display="none"/></g><g transform="translate(0,0)"><path class="background" aria-hidden="true" d="M0,0h200v200h-200Z"/><g><g class="mark-line role-mark marks" role="graphics-object" aria-roledescription="line mark container"><path aria-label="Time: Aug 27, 2025; Price: 1199; identifier: allure-rs-1-2023" role="graphics-symbol" aria-roledescription="line mark" d="M36.575,66.778L36.889,66.778L37.201,66.778L37.323,66.778L37.781,66.778L38.715,66.778L39.189,66.778L39.687,66.778L40.12,66.778L40.577,66.778L41.512,66.778L41.984,66.778L42.481,66.778L42.915,66.778L43.372,66.778L44.306,66.778L44.774,66.778L45.269,66.778L45.705,66.778L46.145,66.778L46.167,66.778L47.104,66.778L47.402,66.778L47.57,66.778L48.067,66.778L48.504,66.778L48.965,66.778L49.909,66.778L50.38,66.778L50.876,66.778L51.304,66.778L51.761,66.778L52.702,66.778L53.175,66.778L53.674,66.778L54.103,66.778L54.56,66.778L55.495,66.778L55.967,66.778L56.465,66.778L56.898,66.778L57.356,66.778L58.291,66.778L58.765,66.778L59.259,66.778L59.697,66.778L60.152,66.778L61.089,66.778L61.561,66.778L62.058,66.778L62.489,66.778L62.95,66.778L63.883,66.778L64.123,66.778L64.35,66.778L64.843,66.778L65.281,66.778L65.745,66.778L66.679,66.778L67.146,66.778L67.642,66.778L68.078,66.778L68.542,66.778L69.481,66.778L69.956,66.778L70.455,66.778L70.885,66.778L71.343,66.778L72.276,66.778L72.752,66.778L73.268,66.778L73.683,66.778L74.136,66.778L75.069,66.778L75.546,66.778L76.042,66.778L76.476,66.778L76.935,66.778L77.87,66.778L78.342,66.778L78.838,66.778L79.267,66.778L79.729,66.778L80.664,66.778L81.138,66.778L81.633,66.778L82.065,66.778L82.526,66.778L83.46,66.778L83.928,66.778L84.422,66.778L84.857,66.778L85.323,66.778L86.257,66.778L86.725,66.778L87.216,66.778L87.653,66.778L88.12,66.778L89.059,66.778L89.53,66.778L90.03,66.778L90.461,66.778L90.919,66.778L91.853,66.778L92.33,66.778L92.826,66.778L93.257,66.778L93.716,66.778L94.651,66.778L95.124,66.778L95.623,66.778L96.054,66.778L96.512,66.778L97.448,66.778L97.92,66.778L98.419,66.778L98.849,66.778L99.309,66.778L100.245,66.778L100.717,66.778L101.215,66.778L101.648,66.778L102.104,66.778L103.039,66.778L103.509,66.778L104.003,66.778L104.436,66.778L104.9,66.778L105.837,66.778L106.303,66.778L106.799,66.778L107.235,66.778L107.698,66.778L108.636,66.778L109.112,66.778L109.609,66.778L110.034,66.778L110.498,66.778L111.432,66.778L111.906,66.778L112.404,66.778L112.837,66.778L113.294,66.778L114.229,66.778L114.704,66.778L115.201,66.778L115.636,66.778L116.089,66.778L117.026,66.778L117.502,66.778L118.001,66.778L118.432,66.778L118.885,66.778L119.822,66.778L120.297,66.778L120.794,66.778L121.226,66.778L121.683,66.778L122.618,66.778L123.084,66.778L123.58,66.778L124.016,66.778L124.48,66.778L125.415,66.778L125.882,66.778L126.378,66.778L126.81,66.778L127.276,66.778L128.215,66.778L128.691,66.778L129.189,66.778L129.607,66.778L130.074,66.778L131.01,66.778L131.489,66.778L131.985,66.778L132.414,66.778L132.871,66.778L133.809,66.778L134.283,66.778L134.783,66.778L135.212,66.778L135.669,66.778L136.602,66.778L137.075,66.778L137.572,66.778L138.008,66.778L138.464,66.778L139.398,66.778L139.872,66.778L140.368,66.778L140.803,66.778L141.26,66.778L142.194,66.778L142.663,66.778L143.157,66.778L143.594,66.778L144.057,66.778L144.99,66.778L145.458,66.778L145.955,66.778L146.39,66.778L146.854,66.778L147.79,66.778L148.266,66.778L148.764,66.778L149.196,66.778L149.654,66.778L150.587,66.778L151.061,66.778L151.562,66.778L151.993,66.778L152.45,66.778L153.385,66.778L153.861,66.778L154.36,66.778L154.79,66.778L155.247,66.778L156.183,66.778L156.658,66.778L157.157,66.778L157.591,66.778L158.044,66.778L158.979,66.778L159.452,66.778L159.95,66.778L160.382,66.778L160.84,66.778L161.773,66.778L162.241,66.778L162.735,66.778L163.17,66.778L163.635,66.778L164.57,66.778L165.038,66.778L165.533,66.778L165.969,66.778L166.432,66.778L167.373,66.778L167.849,66.778L168.345,66.778L168.775,66.778L169.23,66.778L170.166,66.778L170.64,66.778L171.156,66.778L171.571,66.778L172.03,66.778L172.964,66.778L173.442,66.778L173.956,66.778L174.367,66.778L174.828,66.778L175.76,66.778L176.239,66.778L176.75,66.778L177.166,66.778L177.623,66.778L178.557,66.778L179.032,66.778L179.53,66.778L179.961,66.778L180.418,66.778L181.351,66.778L181.822,66.778L182.316,66.778L182.751,66.778L183.213,66.778L184.151,66.778L184.616,66.778L185.113,66.778L185.548,66.778L186.01,66.778L186.949,66.778L187.436,66.778L187.922,66.778L188.353,66.778L188.814,66.778L189.745,66.778L190.233,66.778L190.74,66.778L191.149,66.778L191.609,66.778L192.545,66.778L193.022,66.778L193.536,66.778L193.953,66.778L194.403,66.778L195.339,66.778L195.816,66.778L196.33,66.778L196.745,66.778L197.202,66.778L198.135,66.778L198.611,66.778L199.125,66.778L199.541,66.778L199.999,66.778" stroke="#b279a2" stroke-width="2"/></g></g><path class="foreground" aria-hidden="true" d="" display="none"/></g><g transform="translate(0,0)"><path class="background" aria-hidden="true" d="M0,0h200v200h-200Z"/><g><g class="mark-line role-mark marks" role="graphics-object" aria-roledescription="line mark container"><path aria-label="Time: Aug 27, 2025; Price: 999; identifier: allure-rs-2-2022" role="graphics-symbol" aria-roledescription="line mark" d="M36.575,89L36.889,89L37.201,89L37.323,89L37.781,89L38.715,89L39.189,89L39.687,89L40.12,89L40.577,89L41.512,89L41.984,89L42.481,89L42.915,89L43.372,89L46.145,111.222L46.167,111.222L47.104,111.222L47.402,111.222L47.57,111.222L48.067,111.222L48.504,111.222L48.965,111.222L49.909,111.222L50.38,111.222L50.876,111.222L51.304,111.222L51.761,111.222L52.702,111.222L53.175,111.222L53.675,111.222L54.103,111.222L54.56,111.222L55.495,111.222L55.967,111.222L56.465,111.222L56.898,111.222L57.356,111.222L58.291,111.222L58.765,111.222L59.26,111.222L59.697,111.222L60.152,111.222L61.089,111.222L61.561,111.222L62.058,111.222L62.489,111.222L62.95,111.222L63.883,111.222L64.123,111.222L64.35,111.222L64.843,111.222L65.281,111.222L65.745,111.222L66.679,111.222L67.146,111.222L67.642,111.222L68.078,111.222L68.542,111.222L69.481,111.222L69.956,111.222L70.455,111.222L70.885,111.222L71.343,111.222L72.276,111.222L72.752,111.222L73.268,111.222L73.683,111.222L74.136,111.222L75.069,111.222L75.546,111.222L76.042,111.222L76.476,111.222L76.935,111.222L77.87,111.222L78.342,111.222L78.838,111.222L79.267,111.222L79.729,111.222L80.664,111.222L81.138,111.222L81.633,111.222L82.065,111.222L82.526,111.222L83.46,111.222L83.928,111.222L84.422,111.222L84.857,111.222L85.323,111.222L86.257,111.222L86.725,111.222L87.217,111.222L87.653,111.222L88.12,111.222L89.059,111.222L89.53,111.222L90.03,111.222L90.461,111.222L90.919,111.222L91.853,111.222L92.33,111.222L92.826,111.222L93.257,111.222L93.716,111.222L94.651,111.222L95.124,111.222L95.623,111.222L96.054,111.222L96.512,111.222L97.448,111.222L97.92,111.222L98.419,111.222L98.849,111.222L99.309,111.222L100.245,111.222L100.717,111.222L101.215,111.222L101.648,111.222L102.104,111.222L103.039,111.222L103.509,111.222L104.003,111.222L104.436,111.222L104.9,111.222L105.837,111.222L106.303,111.222L106.799,111.222L107.235,111.222L107.698,111.222L108.636,111.222L109.112,111.222L109.609,111.222L110.034,111.222L110.498,111.222L111.432,111.222L111.906,111.222L112.404,111.222L112.837,111.222L113.294,111.222L114.229,111.222L114.704,111.222L115.201,111.222L115.636,111.222L116.089,111.222L117.026,111.222L117.502,111.222L118.001,111.222L118.432,111.222L118.885,111.222L119.822,111.222L120.297,111.222L120.794,111.222L121.226,111.222L121.683,111.222L122.618,111.222L123.085,111.222L123.58,111.222L124.016,111.222L124.48,111.222L125.415,111.222L125.882,111.222L126.378,111.222L126.81,111.222L127.276,111.222L128.215,111.222L128.691,111.222L129.189,111.222L129.607,111.222L130.074,111.222L131.01,111.222L131.489,111.222L131.985,111.222L132.414,111.222L132.871,111.222L133.809,111.222L134.283,111.222L134.783,111.222L135.212,111.222L135.669,111.222L136.602,111.222L137.076,111.222L137.572,111.222L138.008,111.222L138.464,111.222L139.398,111.222L139.872,111.222L140.368,111.222L140.803,111.222L141.26,111.222L142.194,111.222L142.663,111.222L143.157,111.222L143.594,111.222L144.057,111.222L144.99,111.222L145.458,111.222L145.955,111.222L146.391,111.222L146.854,111.222L147.79,111.222L148.266,111.222L148.765,111.222L149.196,111.222L149.654,111.222L150.587,111.222L151.061,111.222L151.562,111.222L151.993,111.222L152.45,111.222L153.385,111.222L153.861,111.222L154.36,111.222L154.79,111.222L155.247,111.222L156.183,111.222L156.658,111.222L157.157,111.222L157.591,111.222L158.044,111.222L158.979,111.222L159.452,111.222L159.95,111.222L160.382,111.222L160.841,111.222L161.773,111.222L162.241,111.222L162.735,111.222L163.17,111.222L163.635,111.222L164.57,111.222L165.038,111.222L165.533,111.222L165.969,111.222L166.432,111.222L167.373,111.222L167.849,111.222L168.345,111.222L168.775,111.222L169.23,111.222L170.166,111.222L170.64,111.222L171.157,111.222L171.572,111.222L172.03,111.222L172.964,111.222L173.442,111.222L173.956,111.222L174.367,111.222L174.828,111.222L175.761,111.222L176.239,111.222L176.75,111.222L177.166,111.222L177.623,111.222L178.557,111.222L179.032,111.222L179.53,111.222L179.961,111.222L180.418,111.222L181.351,111.222L181.822,111.222L182.316,111.222L182.751,111.222L183.213,111.222L184.152,111.222L184.616,111.222L185.113,111.222L185.549,111.222L186.01,111.222L186.95,111.222L187.436,111.222L187.922,111.222L188.353,111.222L188.814,111.222L189.745,111.222L190.234,111.222L190.74,111.222L191.149,111.222L191.609,111.222L192.545,111.222L193.022,111.222L193.536,111.222L193.953,111.222L194.403,111.222L195.339,111.222L195.816,111.222L196.33,111.222L196.745,111.222L197.202,111.222L198.135,111.222L198.611,111.222L199.125,111.222L199.541,111.222L199.999,111.222" stroke="#54a24b" stroke-width="2"/></g></g><path class="foreground" aria-hidden="true" d="" display="none"/></g><g transform="translate(0,0)"><path class="background" aria-hidden="true" d="M0,0h200v200h-200Z"/><g><g class="mark-line role-mark marks" role="graphics-object" aria-roledescription="line mark container"><path aria-label="Time: Aug 27, 2025; Price: 949; identifier: allure-rs-2-2023" role="graphics-symbol" aria-roledescription="line mark" d="M36.575,94.556L36.889,94.556L37.201,94.556L37.323,94.556L37.781,94.556L38.715,94.556L39.189,94.556L39.687,94.556L40.12,94.556L40.577,94.556L41.512,94.556L41.984,94.556L42.481,94.556L42.915,94.556L43.372,94.556L44.306,94.556L44.774,94.556L45.269,94.556L45.706,94.556L46.145,94.556L46.167,94.556L47.104,94.556L47.402,94.556L47.57,94.556L48.067,94.556L48.504,94.556L48.965,94.556L49.909,94.556L50.38,94.556L50.876,94.556L51.304,94.556L51.761,94.556L52.702,94.556L53.175,94.556L53.675,94.556L54.103,94.556L54.56,94.556L55.495,94.556L55.967,94.556L56.465,94.556L56.898,94.556L57.356,94.556L58.291,94.556L58.765,94.556L59.26,94.556L59.697,94.556L60.152,94.556L61.089,94.556L61.561,94.556L62.058,94.556L62.489,94.556L62.95,94.556L63.883,94.556L64.123,94.556L64.35,94.556L64.843,94.556L65.281,94.556L65.745,94.556L66.679,94.556L67.146,94.556L67.642,94.556L68.078,94.556L68.542,94.556L69.481,94.556L69.956,94.556L70.455,94.556L70.885,94.556L71.343,94.556L72.276,94.556L72.752,94.556L73.268,94.556L73.684,94.556L74.136,94.556L75.069,94.556L75.546,94.556L76.042,94.556L76.476,94.556L76.935,94.556L77.87,94.556L78.342,94.556L78.838,94.556L79.267,94.556L79.729,94.556L80.665,94.556L81.138,94.556L81.633,94.556L82.065,94.556L82.526,94.556L83.46,94.556L83.928,94.556L84.422,94.556L84.857,94.556L85.323,94.556L86.258,94.556L86.725,94.556L87.217,94.556L87.653,94.556L88.12,94.556L89.059,94.556L89.53,94.556L90.03,94.556L90.462,94.556L90.919,94.556L91.853,94.556L92.33,94.556L92.826,94.556L93.257,94.556L93.716,94.556L94.651,94.556L95.124,94.556L95.623,94.556L96.054,94.556L96.512,94.556L97.448,94.556L97.92,94.556L98.419,94.556L98.85,94.556L99.309,94.556L100.245,94.556L100.717,94.556L101.215,94.556L101.648,94.556L102.104,94.556L103.039,94.556L103.509,94.556L104.004,94.556L104.436,94.556L104.9,94.556L105.837,94.556L106.303,94.556L106.8,94.556L107.235,94.556L107.699,94.556L108.636,94.556L109.112,94.556L109.609,94.556L110.034,94.556L110.498,94.556L111.432,94.556L111.906,94.556L112.404,94.556L112.837,94.556L113.294,94.556L114.229,94.556L114.704,94.556L115.202,94.556L115.636,94.556L116.089,94.556L117.026,94.556L117.502,94.556L118.001,94.556L118.432,94.556L118.885,94.556L119.822,94.556L120.297,94.556L120.794,94.556L121.226,94.556L121.683,94.556L122.618,94.556L123.085,94.556L123.58,94.556L124.016,94.556L124.48,94.556L125.415,94.556L125.882,94.556L126.378,94.556L126.81,94.556L127.276,94.556L128.215,94.556L128.691,94.556L129.189,94.556L129.607,94.556L130.074,94.556L131.01,94.556L131.489,94.556L131.985,94.556L132.414,94.556L132.872,94.556L133.809,94.556L134.284,94.556L134.783,94.556L135.212,94.556L135.669,94.556L136.602,94.556L137.076,94.556L137.572,94.556L138.008,94.556L138.464,94.556L139.398,94.556L139.872,94.556L140.368,94.556L140.803,94.556L141.26,94.556L142.194,94.556L142.663,94.556L143.157,94.556L143.594,94.556L144.057,94.556L144.99,94.556L145.458,94.556L145.955,94.556L146.391,94.556L146.854,94.556L147.79,94.556L148.266,94.556L148.765,94.556L149.196,94.556L149.654,94.556L150.587,94.556L151.061,94.556L151.562,94.556L151.993,94.556L152.45,94.556L153.385,94.556L153.861,94.556L154.36,94.556L154.79,94.556L155.247,94.556L156.183,94.556L156.658,94.556L157.157,94.556L157.591,94.556L158.044,94.556L158.979,94.556L159.453,94.556L159.95,94.556L160.382,94.556L160.841,94.556L161.773,94.556L162.241,94.556L162.735,94.556L163.17,94.556L163.635,94.556L164.57,94.556L165.038,94.556L165.533,94.556L165.969,94.556L166.432,94.556L167.373,94.556L167.849,94.556L168.345,94.556L168.775,94.556L169.23,94.556L170.166,94.556L170.64,94.556L171.157,94.556L171.572,94.556L172.03,94.556L172.964,94.556L173.442,94.556L173.956,94.556L174.367,94.556L174.828,94.556L175.761,94.556L176.239,94.556L176.75,94.556L177.166,94.556L177.623,94.556L178.557,94.556L179.032,94.556L179.53,94.556L179.961,94.556L180.418,94.556L181.351,94.556L181.822,94.556L182.316,94.556L182.751,94.556L183.213,94.556L184.152,94.556L184.616,94.556L185.114,94.556L185.549,94.556L186.01,94.556L186.95,94.556L187.436,94.556L187.923,94.556L188.353,94.556L188.814,94.556L189.745,94.556L190.234,94.556L190.74,94.556L191.149,94.556L191.609,94.556L192.545,94.556L193.022,94.556L193.536,94.556L193.953,94.556L194.403,94.556L195.339,94.556L195.816,94.556L196.33,94.556L196.745,94.556L197.202,94.556L198.135,94.556L198.611,94.556L199.125,94.556L199.542,94.556L200,94.556" stroke="#bab0ac" stroke-width="2"/></g></g><path class="foreground" aria-hidden="true" d="" display="none"/></g><g transform="translate(0,0)"><path class="background" aria-hidden="true" d="M0,0h200v200h-200Z"/><g><g class="mark-line role-mark marks" role="graphics-object" aria-roledescription="line mark container"><path aria-label="Time: Aug 27, 2025; Price: 999; identifier: allure-rs-2-2024" role="graphics-symbol" aria-roledescription="line mark" d="M36.576,89L36.889,89L37.201,89L37.323,89L37.781,89L38.715,89L39.189,89L39.688,89L40.12,89L40.577,89L41.512,89L41.984,89L42.481,89L42.915,89L43.372,89L46.145,111.222L46.167,111.222L47.104,111.222L47.402,111.222L47.57,111.222L48.068,111.222L48.504,111.222L48.965,111.222L49.91,111.222L50.38,111.222L50.876,111.222L51.304,111.222L51.761,111.222L52.702,111.222L53.175,111.222L53.675,111.222L54.103,111.222L54.56,111.222L55.495,111.222L55.967,111.222L56.465,111.222L56.898,111.222L57.356,111.222L58.291,111.222L58.765,111.222L59.26,111.222L59.697,111.222L60.152,111.222L61.089,111.222L61.561,111.222L62.058,111.222L62.489,111.222L62.95,111.222L63.883,111.222L64.123,111.222L64.35,111.222L64.843,111.222L65.281,111.222L65.745,111.222L66.679,111.222L67.146,111.222L67.642,111.222L68.078,111.222L68.542,111.222L69.481,111.222L69.956,111.222L70.455,111.222L70.885,111.222L71.343,111.222L72.276,111.222L72.752,111.222L73.268,111.222L73.684,111.222L74.137,111.222L75.069,111.222L75.546,111.222L76.042,111.222L76.476,111.222L76.935,111.222L77.87,111.222L78.342,111.222L78.838,111.222L79.267,111.222L79.729,111.222L80.665,111.222L81.138,111.222L81.633,111.222L82.065,111.222L82.526,111.222L83.46,111.222L83.928,111.222L84.422,111.222L84.857,111.222L85.323,111.222L86.258,111.222L86.725,111.222L87.217,111.222L87.653,111.222L88.12,111.222L89.059,111.222L89.53,111.222L90.03,111.222L90.462,111.222L90.919,111.222L91.854,111.222L92.33,111.222L92.826,111.222L93.257,111.222L93.716,111.222L94.651,111.222L95.124,111.222L95.623,111.222L96.054,111.222L96.512,111.222L97.448,111.222L97.92,111.222L98.42,111.222L98.85,111.222L99.309,111.222L100.245,111.222L100.717,111.222L101.215,111.222L101.648,111.222L102.104,111.222L103.039,111.222L103.509,111.222L104.004,111.222L104.436,111.222L104.9,111.222L105.837,111.222L106.304,111.222L106.8,111.222L107.235,111.222L107.699,111.222L108.636,111.222L109.112,111.222L109.61,111.222L110.034,111.222L110.498,111.222L111.432,111.222L111.906,111.222L112.404,111.222L112.837,111.222L113.294,111.222L114.229,111.222L114.704,111.222L115.202,111.222L115.636,111.222L116.089,111.222L117.026,111.222L117.502,111.222L118.001,111.222L118.432,111.222L118.886,111.222L119.822,111.222L120.297,111.222L120.794,111.222L121.226,111.222L121.683,111.222L122.618,111.222L123.085,111.222L123.58,111.222L124.016,111.222L124.48,111.222L125.415,111.222L125.882,111.222L126.378,111.222L126.811,111.222L127.276,111.222L128.215,111.222L128.691,111.222L129.189,111.222L129.607,111.222L130.074,111.222L131.01,111.222L131.489,111.222L131.985,111.222L132.414,111.222L132.872,111.222L133.809,111.222L134.284,111.222L134.783,111.222L135.212,111.222L135.669,111.222L136.602,111.222L137.076,111.222L137.572,111.222L138.008,111.222L138.464,111.222L139.398,111.222L139.872,111.222L140.368,111.222L140.803,111.222L141.26,111.222L142.194,111.222L142.663,111.222L143.157,111.222L143.594,111.222L144.057,111.222L144.99,111.222L145.458,111.222L145.955,111.222L146.391,111.222L146.854,111.222L147.791,111.222L148.266,111.222L148.765,111.222L149.196,111.222L149.654,111.222L150.587,111.222L151.062,111.222L151.562,111.222L151.993,111.222L152.45,111.222L153.385,111.222L153.861,111.222L154.36,111.222L154.79,111.222L155.247,111.222L156.183,111.222L156.658,111.222L157.157,111.222L157.591,111.222L158.044,111.222L158.979,111.222L159.453,111.222L159.95,111.222L160.382,111.222L160.841,111.222L161.773,111.222L162.241,111.222L162.735,111.222L163.17,111.222L163.635,111.222L164.57,111.222L165.038,111.222L165.533,111.222L165.969,111.222L166.432,111.222L167.373,111.222L167.849,111.222L168.345,111.222L168.775,111.222L169.23,111.222L170.166,111.222L170.64,111.222L171.157,111.222L171.572,111.222L172.03,111.222L172.964,111.222L173.443,111.222L173.957,111.222L174.367,111.222L174.828,111.222L175.761,111.222L176.239,111.222L176.751,111.222L177.166,111.222L177.623,111.222L178.557,111.222L179.032,111.222L179.53,111.222L179.961,111.222L180.418,111.222L181.351,111.222L181.823,111.222L182.316,111.222L182.751,111.222L183.213,111.222L184.152,111.222L184.616,111.222L185.114,111.222L185.549,111.222L186.01,111.222L186.95,111.222L187.436,111.222L187.923,111.222L188.353,111.222L188.814,111.222L189.745,111.222L190.234,111.222L190.74,111.222L191.149,111.222L191.609,111.222L192.545,111.222L193.023,111.222L193.536,111.222L193.953,111.222L194.403,111.222L195.339,111.222L195.816,111.222L196.33,111.222L196.745,111.222L197.202,111.222L198.135,111.222L198.611,111.222L199.126,111.222L199.542,111.222L200,111.222" stroke="#eeca3b" stroke-width="2"/></g></g><path class="foreground" aria-hidden="true" d="" display="none"/></g><g transform="translate(0,0)"><path class="background" aria-hidden="true" d="M0,0h200v200h-200Z"/><g><g class="mark-line role-mark marks" role="graphics-object" aria-roledescription="line mark container"><path aria-label="Time: Aug 27, 2025; Price: 1799; identifier: devote-1-2024" role="graphics-symbol" aria-roledescription="line mark" d="M37.201,0.111L37.323,0.111L37.781,0.111L38.715,0.111L39.189,0.111L39.688,0.111L40.12,0.111L40.577,0.111L41.512,0.111L41.984,0.111L42.481,0.111L42.916,0.111L43.372,0.111L46.146,44.556L46.167,44.556L47.104,44.556L47.402,44.556L47.57,44.556L48.068,44.556L48.504,44.556L48.965,44.556L49.91,44.556L50.38,44.556L50.876,44.556L51.304,44.556L51.761,44.556L52.702,44.556L53.175,44.556L53.675,44.556L54.103,44.556L54.56,44.556L55.495,44.556L55.967,44.556L56.465,44.556L56.898,44.556L57.356,44.556L58.291,44.556L58.765,44.556L59.26,44.556L59.697,44.556L60.152,44.556L61.089,44.556L61.561,44.556L62.058,44.556L62.489,44.556L62.95,44.556L63.883,44.556L64.123,44.556L64.35,44.556L64.843,44.556L65.281,44.556L65.745,44.556L66.679,44.556L67.146,44.556L67.642,44.556L68.078,44.556L68.542,44.556L69.481,44.556L69.957,44.556L70.455,44.556L70.885,44.556L71.343,44.556L72.277,44.556L72.752,44.556L73.268,44.556L73.684,44.556L74.137,44.556L75.069,44.556L75.546,44.556L76.042,44.556L76.476,44.556L76.935,44.556L77.87,44.556L78.342,44.556L78.838,44.556L79.267,44.556L79.729,44.556L80.665,44.556L81.138,44.556L81.634,44.556L82.065,44.556L82.526,44.556L83.46,44.556L83.928,44.556L84.422,44.556L84.857,44.556L85.323,44.556L86.258,44.556L86.725,44.556L87.217,44.556L87.653,44.556L88.12,44.556L89.059,44.556L89.53,44.556L90.031,44.556L90.462,44.556L90.919,44.556L91.854,44.556L92.33,44.556L92.827,44.556L93.257,44.556L93.716,44.556L94.651,44.556L95.124,44.556L95.624,44.556L96.055,44.556L96.512,44.556L97.448,44.556L97.92,44.556L98.42,44.556L98.85,44.556L99.309,44.556L100.245,44.556L100.717,44.556L101.215,44.556L101.648,44.556L102.104,44.556L103.04,44.556L103.509,44.556L104.004,44.556L104.436,44.556L104.9,44.556L105.837,44.556L106.304,44.556L106.8,44.556L107.235,44.556L107.699,44.556L108.636,44.556L109.112,44.556L109.61,44.556L110.034,44.556L110.498,44.556L111.432,44.556L111.906,44.556L112.404,44.556L112.838,44.556L113.295,44.556L114.23,44.556L114.704,44.556L115.202,44.556L115.636,44.556L116.089,44.556L117.026,44.556L117.502,44.556L118.001,44.556L118.432,44.556L118.886,44.556L119.822,44.556L120.297,44.556L120.794,44.556L121.226,44.556L121.683,44.556L122.618,44.556L123.085,44.556L123.58,44.556L124.016,44.556L124.48,44.556L125.415,44.556L125.882,44.556L126.378,44.556L126.811,44.556L127.276,44.556L128.215,44.556L128.691,44.556L129.189,44.556L129.608,44.556L130.074,44.556L131.01,44.556L131.489,44.556L131.985,44.556L132.414,44.556L132.872,44.556L133.809,44.556L134.284,44.556L134.783,44.556L135.212,44.556L135.669,44.556L136.602,44.556L137.076,44.556L137.572,44.556L138.008,44.556L138.464,44.556L139.398,44.556L139.872,44.556L140.368,44.556L140.803,44.556L141.26,44.556L142.194,44.556L142.663,44.556L143.157,44.556L143.594,44.556L144.057,44.556L144.99,44.556L145.459,44.556L145.955,44.556L146.391,44.556L146.854,44.556L147.791,44.556L148.266,44.556L148.765,44.556L149.196,44.556L149.654,44.556L150.587,44.556L151.062,44.556L151.562,44.556L151.993,44.556L152.45,44.556L153.385,44.556L153.861,44.556L154.36,44.556L154.79,44.556L155.247,44.556L156.183,44.556L156.658,44.556L157.158,44.556L157.591,44.556L158.044,44.556L158.979,44.556L159.453,44.556L159.95,44.556L160.382,44.556L160.841,44.556L161.773,44.556L162.241,44.556L162.735,44.556L163.17,44.556L163.635,44.556L164.571,44.556L165.038,44.556L165.533,44.556L165.969,44.556L166.432,44.556L167.373,44.556L167.849,44.556L168.345,44.556L168.776,44.556L169.23,44.556L170.166,44.556L170.64,44.556L171.157,44.556L171.572,44.556L172.03,44.556L172.964,44.556L173.443,44.556L173.957,44.556L174.367,44.556L174.828,44.556L175.762,44.556L176.239,44.556L176.751,44.556L177.167,44.556L177.623,44.556L178.557,44.556L179.032,44.556L179.53,44.556L179.961,44.556L180.419,44.556L181.351,44.556L181.823,44.556L182.316,44.556L182.751,44.556L183.213,44.556L184.152,44.556L184.616,44.556L185.114,44.556L185.549,44.556L186.01,44.556L186.95,44.556L187.436,44.556L187.923,44.556L188.353,44.556L188.814,44.556L189.745,44.556L190.234,44.556L190.741,44.556L191.149,44.556L191.609,44.556L192.545,44.556L193.023,44.556L193.536,44.556L193.953,44.556L194.403,44.556L195.339,44.556L195.816,44.556L196.33,44.556L196.745,44.556L197.202,44.556L198.135,44.556L198.611,44.556L199.126,44.556L199.542,44.556L200,44.556" stroke="#72b7b2" stroke-width="2"/></g></g><path class="foreground" aria-hidden="true" d="" display="none"/></g><g transform="translate(0,0)"><path class="background" aria-hidden="true" d="M0,0h200v200h-200Z"/><g><g class="mark-line role-mark marks" role="graphics-object" aria-roledescription="line mark container"><path aria-label="Time: Aug 27, 2025; Price: 1699; identifier: devote-1-2022" role="graphics-symbol" aria-roledescription="line mark" d="M37.201,11.222L37.324,11.222L37.781,11.222L38.715,11.222L39.19,11.222L39.688,11.222L40.12,11.222L40.577,11.222L41.512,11.222L41.984,11.222L42.481,11.222L42.916,11.222L43.372,11.222L44.306,11.222L44.775,11.222L45.27,11.222L45.706,11.222L46.146,11.222L46.167,11.222L47.104,11.222L47.403,11.222L47.57,11.222L48.068,11.222L48.504,11.222L48.965,11.222L49.91,11.222L50.38,11.222L50.876,11.222L51.305,11.222L51.761,11.222L52.702,11.222L53.175,11.222L53.675,11.222L54.103,11.222L54.56,11.222L55.495,11.222L55.967,11.222L56.465,11.222L56.899,11.222L57.356,11.222L58.291,11.222L58.765,11.222L59.26,11.222L59.698,11.222L60.152,11.222L61.089,11.222L61.561,11.222L62.058,11.222L62.489,11.222L62.95,11.222L63.883,11.222L64.123,11.222L64.35,11.222L64.843,11.222L65.281,11.222L65.745,11.222L66.679,11.222L67.147,11.222L67.642,11.222L68.078,11.222L68.542,11.222L69.481,11.222L69.957,11.222L70.455,11.222L70.885,11.222L71.343,11.222L72.277,11.222L72.752,11.222L73.268,11.222L73.684,11.222L74.137,11.222L75.07,11.222L75.546,11.222L76.042,11.222L76.476,11.222L76.935,11.222L77.87,11.222L78.342,11.222L78.838,11.222L79.267,11.222L79.729,11.222L80.665,11.222L81.138,11.222L81.634,11.222L82.066,11.222L82.526,11.222L83.46,11.222L83.928,11.222L84.422,11.222L84.857,11.222L85.323,11.222L86.258,11.222L86.725,11.222L87.217,11.222L87.653,11.222L88.12,11.222L89.059,11.222L89.531,11.222L90.031,11.222L90.462,11.222L90.92,11.222L91.854,11.222L92.33,11.222L92.827,11.222L93.257,11.222L93.716,11.222L94.651,11.222L95.124,11.222L95.624,11.222L96.055,11.222L96.512,11.222L97.448,11.222L97.92,11.222L98.42,11.222L98.85,11.222L99.309,11.222L100.245,11.222L100.717,11.222L101.215,11.222L101.648,11.222L102.105,11.222L103.04,11.222L103.509,11.222L104.004,11.222L104.436,11.222L104.901,11.222L105.837,11.222L106.304,11.222L106.8,11.222L107.236,11.222L107.699,11.222L108.636,11.222L109.112,11.222L109.61,11.222L110.034,11.222L110.498,11.222L111.432,11.222L111.906,11.222L112.404,11.222L112.838,11.222L113.295,11.222L114.23,11.222L114.704,11.222L115.202,11.222L115.636,11.222L116.089,11.222L117.027,11.222L117.502,11.222L118.001,11.222L118.432,11.222L118.886,11.222L119.822,11.222L120.297,11.222L120.794,11.222L121.227,11.222L121.683,11.222L122.618,11.222L123.085,11.222L123.58,11.222L124.016,11.222L124.48,11.222L125.415,11.222L125.882,11.222L126.378,11.222L126.811,11.222L127.276,11.222L128.215,11.222L128.691,11.222L129.189,11.222L129.608,11.222L130.075,11.222L131.011,11.222L131.489,11.222L131.985,11.222L132.414,11.222L132.872,11.222L133.809,11.222L134.284,11.222L134.783,11.222L135.212,11.222L135.669,11.222L136.602,11.222L137.076,11.222L137.572,11.222L138.008,11.222L138.464,11.222L139.398,11.222L139.873,11.222L140.368,11.222L140.803,11.222L141.26,11.222L142.194,11.222L142.663,11.222L143.157,11.222L143.594,11.222L144.057,11.222L144.99,11.222L145.459,11.222L145.955,11.222L146.391,11.222L146.854,11.222L147.791,11.222L148.266,11.222L148.765,11.222L149.196,11.222L149.654,11.222L150.587,11.222L151.062,11.222L151.562,11.222L151.993,11.222L152.45,11.222L153.385,11.222L153.861,11.222L154.36,11.222L154.79,11.222L155.247,11.222L156.183,11.222L156.658,11.222L157.158,11.222L157.591,11.222L158.044,11.222L158.979,11.222L159.453,11.222L159.95,11.222L160.383,11.222L160.841,11.222L161.773,11.222L162.241,11.222L162.735,11.222L163.17,11.222L163.635,11.222L164.571,11.222L165.038,11.222L165.533,11.222L165.969,11.222L166.432,11.222L167.373,11.222L167.85,11.222L168.345,11.222L168.776,11.222L169.231,11.222L170.166,11.222L170.641,11.222L171.157,11.222L171.572,11.222L172.03,11.222L172.964,11.222L173.443,11.222L173.957,11.222L174.367,11.222L174.828,11.222L175.762,11.222L176.239,11.222L176.751,11.222L177.167,11.222L177.623,11.222L178.557,11.222L179.032,11.222L179.53,11.222L179.961,11.222L180.419,11.222L181.352,11.222L181.823,11.222L182.316,11.222L182.752,11.222L183.214,11.222L184.152,11.222L184.616,11.222L185.114,11.222L185.549,11.222L186.01,11.222L186.95,11.222L187.436,11.222L187.923,11.222L188.353,11.222L188.814,11.222L189.745,11.222L190.234,11.222L190.741,11.222L191.149,11.222L191.61,11.222L192.545,11.222L193.023,11.222L193.537,11.222L193.953,11.222L194.403,11.222L195.339,11.222L195.816,11.222L196.33,11.222L196.745,11.222L197.202,11.222L198.135,11.222L198.611,11.222L199.126,11.222L199.542,11.222L200,11.222" stroke="#4c78a8" stroke-width="2"/></g></g><path class="foreground" aria-hidden="true" d="" display="none"/></g><g transform="translate(0,0)"><path class="background" aria-hidden="true" d="M0,0h200v200h-200Z"/><g><g class="mark-line role-mark marks" role="graphics-object" aria-roledescription="line mark container"><path aria-label="Time: Aug 31, 2025; Price: 1599; identifier: silex-400-oak-bork-2026" role="graphics-symbol" aria-roledescription="line mark" d="M47.403,22.333L47.57,22.333L48.068,22.333L48.504,22.333L48.965,22.333L49.91,22.333L50.38,22.333L50.876,22.333L51.305,22.333L51.762,22.333L52.702,22.333L53.175,22.333L53.675,22.333L54.103,22.333L54.56,22.333L55.495,22.333L55.967,22.333L56.466,22.333L56.899,22.333L57.356,22.333L58.292,22.333L58.765,22.333L59.26,22.333L59.698,22.333L60.152,22.333L61.089,22.333L61.561,22.333L62.058,22.333L62.489,22.333L62.95,22.333L63.883,22.333L64.123,22.333L64.35,22.333L64.844,22.333L65.281,22.333L65.745,22.333L66.679,22.333L67.147,22.333L67.642,22.333L68.078,22.333L68.542,22.333L69.481,22.333L69.957,22.333L70.456,22.333L70.885,22.333L71.343,22.333L72.277,22.333L72.752,22.333L73.268,22.333L73.684,22.333L74.137,22.333L75.07,22.333L75.547,22.333L76.042,22.333L76.476,22.333L76.935,22.333L77.87,22.333L78.342,22.333L78.838,22.333L79.268,22.333L79.729,22.333L80.665,22.333L81.138,22.333L81.634,22.333L82.066,22.333L82.526,22.333L83.46,22.333L83.928,22.333L84.422,22.333L84.857,22.333L85.323,22.333L86.258,22.333L86.725,22.333L87.217,22.333L87.653,22.333L88.12,22.333L89.059,22.333L89.531,22.333L90.031,22.333L90.462,22.333L90.92,22.333L91.854,22.333L92.33,22.333L92.827,22.333L93.257,22.333L93.716,22.333L94.652,22.333L95.124,22.333L95.624,22.333L96.055,22.333L96.512,22.333L97.448,22.333L97.921,22.333L98.42,22.333L98.85,22.333L99.31,22.333L100.245,22.333L100.717,22.333L101.216,22.333L101.648,22.333L102.105,22.333L103.04,22.333L103.509,22.333L104.004,22.333L104.436,22.333L104.901,22.333L105.838,22.333L106.304,22.333L106.8,22.333L107.236,22.333L107.699,22.333L108.636,22.333L109.112,22.333L109.61,22.333L110.034,22.333L110.498,22.333L111.432,22.333L111.907,22.333L112.404,22.333L112.838,22.333L113.295,22.333L114.23,22.333L114.704,22.333L115.202,22.333L115.636,22.333L116.089,22.333L117.027,22.333L117.502,22.333L118.001,22.333L118.433,22.333L118.886,22.333L119.822,22.333L120.298,22.333L120.795,22.333L121.227,22.333L121.683,22.333L122.619,22.333L123.085,22.333L123.58,22.333L124.016,22.333L124.48,22.333L125.415,22.333L125.882,22.333L126.378,22.333L126.811,22.333L127.276,22.333L128.215,22.333L128.691,22.333L129.189,22.333L129.608,22.333L130.075,22.333L131.011,22.333L131.489,22.333L131.986,22.333L132.414,22.333L132.872,22.333L133.809,22.333L134.284,22.333L134.783,22.333L135.212,22.333L135.669,22.333L136.602,22.333L137.076,22.333L137.573,22.333L138.008,22.333L138.464,22.333L139.398,22.333L139.873,22.333L140.368,22.333L140.804,22.333L141.261,22.333L142.195,22.333L142.664,22.333L143.157,22.333L143.594,22.333L144.057,22.333L144.99,22.333L145.459,22.333L145.955,22.333L146.391,22.333L146.855,22.333L147.791,22.333L148.266,22.333L148.765,22.333L149.196,22.333L149.654,22.333L150.587,22.333L151.062,22.333L151.562,22.333L151.993,22.333L152.45,22.333L153.386,22.333L153.861,22.333L154.36,22.333L154.79,22.333L155.247,22.333L156.184,22.333L156.658,22.333L157.158,22.333L157.591,22.333L158.045,22.333L158.979,22.333L159.453,22.333L159.95,22.333L160.383,22.333L160.841,22.333L161.774,22.333L162.241,22.333L162.736,22.333L163.17,22.333L163.635,22.333L164.571,22.333L165.038,22.333L165.533,22.333L165.97,22.333L166.432,22.333L167.373,22.333L167.85,22.333L168.345,22.333L168.776,22.333L169.231,22.333L170.166,22.333L170.641,22.333L171.157,22.333L171.572,22.333L172.03,22.333L172.964,22.333L173.443,22.333L173.957,22.333L174.368,22.333L174.828,22.333L175.762,22.333L176.239,22.333L176.751,22.333L177.167,22.333L177.623,22.333L178.557,22.333L179.032,22.333L179.53,22.333L179.962,22.333L180.419,22.333L181.352,22.333L181.823,22.333L182.316,22.333L182.752,22.333L183.214,22.333L184.152,22.333L184.616,22.333L185.114,22.333L185.549,22.333L186.011,22.333L186.95,22.333L187.436,22.333L187.923,22.333L188.353,22.333L188.815,22.333L189.745,22.333L190.234,22.333L190.741,22.333L191.149,22.333L191.61,22.333L192.545,22.333L193.023,22.333L193.537,22.333L193.953,22.333L194.403,22.333L195.339,22.333L195.817,22.333L196.331,22.333L196.745,22.333L197.203,22.333L198.135,22.333L198.612,22.333L199.126,22.333L199.542,22.333L200,22.333" stroke="#f58518" stroke-width="2"/></g></g><path class="foreground" aria-hidden="true" d="" display="none"/></g><g transform="translate(0,0)"><path class="background" aria-hidden="true" d="M0,0h200v200h-200Z"/><g><g class="mark-line role-mark marks" role="graphics-object" aria-roledescription="line mark container"><path aria-label="Time: Aug 31, 2025; Price: 1599; identifier: silex-400-warm-slate-grey-2026" role="graphics-symbol" aria-roledescription="line mark" d="M47.403,22.333L47.571,22.333L48.068,22.333L48.504,22.333L48.965,22.333L49.91,22.333L50.38,22.333L50.876,22.333L51.305,22.333L51.762,22.333L52.702,22.333L53.175,22.333L53.675,22.333L54.103,22.333L54.56,22.333L55.495,22.333L55.967,22.333L56.466,22.333L56.899,22.333L57.356,22.333L58.292,22.333L58.765,22.333L59.26,22.333L59.698,22.333L60.153,22.333L61.09,22.333L61.562,22.333L62.058,22.333L62.489,22.333L62.95,22.333L63.883,22.333L64.123,22.333L64.35,22.333L64.844,22.333L65.281,22.333L65.745,22.333L66.679,22.333L67.147,22.333L67.642,22.333L68.078,22.333L68.542,22.333L69.481,22.333L69.957,22.333L70.456,22.333L70.885,22.333L71.343,22.333L72.277,22.333L72.752,22.333L73.268,22.333L73.684,22.333L74.137,22.333L75.07,22.333L75.547,22.333L76.043,22.333L76.476,22.333L76.935,22.333L77.87,22.333L78.342,22.333L78.838,22.333L79.268,22.333L79.73,22.333L80.665,22.333L81.138,22.333L81.634,22.333L82.066,22.333L82.526,22.333L83.46,22.333L83.928,22.333L84.422,22.333L84.857,22.333L85.323,22.333L86.258,22.333L86.725,22.333L87.217,22.333L87.653,22.333L88.12,22.333L89.059,22.333L89.531,22.333L90.031,22.333L90.462,22.333L90.92,22.333L91.854,22.333L92.33,22.333L92.827,22.333L93.257,22.333L93.716,22.333L94.652,22.333L95.125,22.333L95.624,22.333L96.055,22.333L96.513,22.333L97.448,22.333L97.921,22.333L98.42,22.333L98.85,22.333L99.31,22.333L100.245,22.333L100.718,22.333L101.216,22.333L101.648,22.333L102.105,22.333L103.04,22.333L103.509,22.333L104.004,22.333L104.437,22.333L104.901,22.333L105.838,22.333L106.304,22.333L106.8,22.333L107.236,22.333L107.699,22.333L108.636,22.333L109.112,22.333L109.61,22.333L110.035,22.333L110.498,22.333L111.432,22.333L111.907,22.333L112.405,22.333L112.838,22.333L113.295,22.333L114.23,22.333L114.705,22.333L115.203,22.333L115.637,22.333L116.09,22.333L117.027,22.333L117.502,22.333L118.001,22.333L118.433,22.333L118.886,22.333L119.822,22.333L120.298,22.333L120.795,22.333L121.227,22.333L121.683,22.333L122.619,22.333L123.085,22.333L123.58,22.333L124.016,22.333L124.481,22.333L125.416,22.333L125.882,22.333L126.378,22.333L126.811,22.333L127.276,22.333L128.215,22.333L128.691,22.333L129.189,22.333L129.608,22.333L130.075,22.333L131.011,22.333L131.489,22.333L131.986,22.333L132.414,22.333L132.872,22.333L133.809,22.333L134.284,22.333L134.783,22.333L135.212,22.333L135.669,22.333L136.602,22.333L137.076,22.333L137.573,22.333L138.008,22.333L138.464,22.333L139.399,22.333L139.873,22.333L140.368,22.333L140.804,22.333L141.261,22.333L142.195,22.333L142.664,22.333L143.157,22.333L143.595,22.333L144.057,22.333L144.99,22.333L145.459,22.333L145.955,22.333L146.391,22.333L146.855,22.333L147.791,22.333L148.266,22.333L148.765,22.333L149.197,22.333L149.654,22.333L150.587,22.333L151.062,22.333L151.562,22.333L151.993,22.333L152.45,22.333L153.386,22.333L153.861,22.333L154.36,22.333L154.79,22.333L155.247,22.333L156.184,22.333L156.658,22.333L157.158,22.333L157.591,22.333L158.045,22.333L158.979,22.333L159.453,22.333L159.95,22.333L160.383,22.333L160.841,22.333L161.774,22.333L162.241,22.333L162.736,22.333L163.17,22.333L163.635,22.333L164.571,22.333L165.038,22.333L165.533,22.333L165.97,22.333L166.432,22.333L167.373,22.333L167.85,22.333L168.346,22.333L168.776,22.333L169.231,22.333L170.166,22.333L170.641,22.333L171.157,22.333L171.572,22.333L172.03,22.333L172.965,22.333L173.443,22.333L173.957,22.333L174.368,22.333L174.828,22.333L175.762,22.333L176.239,22.333L176.751,22.333L177.167,22.333L177.623,22.333L178.558,22.333L179.032,22.333L179.53,22.333L179.962,22.333L180.419,22.333L181.352,22.333L181.823,22.333L182.316,22.333L182.752,22.333L183.214,22.333L184.152,22.333L184.616,22.333L185.114,22.333L185.549,22.333L186.011,22.333L186.95,22.333L187.436,22.333L187.923,22.333L188.354,22.333L188.815,22.333L189.745,22.333L190.234,22.333L190.741,22.333L191.149,22.333L191.61,22.333L192.545,22.333L193.023,22.333L193.537,22.333L193.954,22.333L194.403,22.333L195.339,22.333L195.817,22.333L196.331,22.333L196.745,22.333L197.203,22.333L198.135,22.333L198.612,22.333L199.126,22.333L199.542,22.333L200,22.333" stroke="#e45756" stroke-width="2"/></g></g><path class="foreground" aria-hidden="true" d="" display="none"/></g></g><g class="mark-group role-legend" role="graphics-symbol" aria-roledescription="legend" aria-label="Symbol legend titled 'identifier' for stroke color with 16 values: devote-1-2022, silex-400-oak-bork-2026, silex-400-warm-slate-grey-2026, devote-1-2024, fastroad-ar-2, ending with allure-rs-2-2024"><g transform="translate(220,0)"><path class="background" aria-hidden="true" d="M0,0h256v222h-256Z" pointer-events="none"/><g><g class="mark-group role-legend-entry"><g transform="translate(0,16)"><path class="background" aria-hidden="true" d="M0,0h0v0h0Z" pointer-events="none"/><g><g class="mark-group role-scope" role="graphics-object" aria-roledescription="group mark container"><g transform="translate(0,0)"><path class="background" aria-hidden="true" d="M0,0h256v11h-256Z" pointer-events="none" opacity="1"/><g><g class="mark-symbol role-legend-symbol" pointer-events="none"><path transform="translate(6,6)" d="M-5,0L5,0" stroke="#4c78a8" stroke-width="1.5" opacity="1"/></g><g class="mark-text role-legend-label" pointer-events="none"><text text-anchor="start" transform="translate(16,9)" font-family="Liberation Mono" font-size="10px" fill="#000" opacity="1">devote-1-2022</text></g></g><path class="foreground" aria-hidden="true" d="" pointer-events="none" display="none"/></g><g transform="translate(0,13)"><path class="background" aria-hidden="true" d="M0,0h256v11h-256Z" pointer-events="none" opacity="1"/><g><g class="mark-symbol role-legend-symbol" pointer-events="none"><path transform="translate(6,6)" d="M-5,0L5,0" stroke="#f58518" stroke-width="1.5" opacity="1"/></g><g class="mark-text role-legend-label" pointer-events="none"><text text-anchor="start" transform="translate(16,9)" font-family="Liberation Mono" font-size="10px" fill="#000" opacity="1">silex-400-oak-bork-2026</text></g></g><path class="foreground" aria-hidden="true" d="" pointer-events="none" display="none"/></g><g transform="translate(0,26)"><path class="background" aria-hidden="true" d="M0,0h256v11h-256Z" pointer-events="none" opacity="1"/><g><g class="mark-symbol role-legend-symbol" pointer-events="none"><path transform="translate(6,6)" d="M-5,0L5,0" stroke="#e45756" stroke-width="1.5" opacity="1"/></g><g class="mark-text role-legend-label" pointer-events="none"><text text-anchor="start" transform="translate(16,9)" font-family="Liberation Mono" font-size="10px" fill="#000" opacity="1">silex-400-warm-slate-grey-2026</text></g></g><path class="foreground" aria-hidden="true" d="" pointer-events="none" display="none"/></g><g transform="translate(0,39)"><path class="background" aria-hidden="true" d="M0,0h256v11h-256Z" pointer-events="none" opacity="1"/><g><g class="mark-symbol role-legend-symbol" pointer-events="none"><path transform="translate(6,6)" d="M-5,0L5,0" stroke="#72b7b2" stroke-width="1.5" opacity="1"/></g><g class="mark-text role-legend-label" pointer-events="none"><text text-anchor="start" transform="translate(16,9)" font-family="Liberation Mono" font-size="10px" fill="#000" opacity="1">devote-1-2024</text></g></g><path class="foreground" aria-hidden="true" d="" pointer-events="none" display="none"/></g><g transform="translate(0,52)"><path class="background" aria-hidden="true" d="M0,0h256v11h-256Z" pointer-events="none" opacity="1"/><g><g class="mark-symbol role-legend-symbol" pointer-events="none"><path transform="translate(6,6)" d="M-5,0L5,0" stroke="#54a24b" stroke-width="1.5" opacity="1"/></g><g class="mark-text role-legend-label" pointer-events="none"><text text-anchor="start" transform="translate(16,9)" font-family="Liberation Mono" font-size="10px" fill="#000" opacity="1">fastroad-ar-2</text></g></g><path class="foreground" aria-hidden="true" d="" pointer-events="none" display="none"/></g><g transform="translate(0,65)"><path class="background" aria-hidden="true" d="M0,0h256v11h-256Z" pointer-events="none" opacity="1"/><g><g class="mark-symbol role-legend-symbol" pointer-events="none"><path transform="translate(6,6)" d="M-5,0L5,0" stroke="#eeca3b" stroke-width="1.5" opacity="1"/></g><g class="mark-text role-legend-label" pointer-events="none"><text text-anchor="start" transform="translate(16,9)" font-family="Liberation Mono" font-size="10px" fill="#000" opacity="1">thrive-2</text></g></g><path class="foreground" aria-hidden="true" d="" pointer-events="none" display="none"/></g><g transform="translate(0,78)"><path class="background" aria-hidden="true" d="M0,0h256v11h-256Z" pointer-events="none" opacity="1"/><g><g class="mark-symbol role-legend-symbol" pointer-events="none"><path transform="translate(6,6)" d="M-5,0L5,0" stroke="#b279a2" stroke-width="1.5" opacity="1"/></g><g class="mark-text role-legend-label" pointer-events="none"><text text-anchor="start" transform="translate(16,9)" font-family="Liberation Mono" font-size="10px" fill="#000" opacity="1">allure-rs-1-2023</text></g></g><path class="foreground" aria-hidden="true" d="" pointer-events="none" display="none"/></g><g transform="translate(0,91)"><path class="background" aria-hidden="true" d="M0,0h256v11h-256Z" pointer-events="none" opacity="1"/><g><g class="mark-symbol role-legend-symbol" pointer-events="none"><path transform="translate(6,6)" d="M-5,0L5,0" stroke="#ff9da6" stroke-width="1.5" opacity="1"/></g><g class="mark-text role-legend-label" pointer-events="none"><text text-anchor="start" transform="translate(16,9)" font-family="Liberation Mono" font-size="10px" fill="#000" opacity="1">roam-2</text></g></g><path class="foreground" aria-hidden="true" d="" pointer-events="none" display="none"/></g><g transform="translate(0,104)"><path class="background" aria-hidden="true" d="M0,0h256v11h-256Z" pointer-events="none" opacity="1"/><g><g class="mark-symbol role-legend-symbol" pointer-events="none"><path transform="translate(6,6)" d="M-5,0L5,0" stroke="#9d755d" stroke-width="1.5" opacity="1"/></g><g class="mark-text role-legend-label" pointer-events="none"><text text-anchor="start" transform="translate(16,9)" font-family="Liberation Mono" font-size="10px" fill="#000" opacity="1">fastroad-sl-3-2022</text></g></g><path class="foreground" aria-hidden="true" d="" pointer-events="none" display="none"/></g><g transform="translate(0,117)"><path class="background" aria-hidden="true" d="M0,0h256v11h-256Z" pointer-events="none" opacity="1"/><g><g class="mark-symbol role-legend-symbol" pointer-events="none"><path transform="translate(6,6)" d="M-5,0L5,0" stroke="#bab0ac" stroke-width="1.5" opacity="1"/></g><g class="mark-text role-legend-label" pointer-events="none"><text text-anchor="start" transform="translate(16,9)" font-family="Liberation Mono" font-size="10px" fill="#000" opacity="1">allure-rs-2-2023</text></g></g><path class="foreground" aria-hidden="true" d="" pointer-events="none" display="none"/></g><g transform="translate(0,130)"><path class="background" aria-hidden="true" d="M0,0h256v11h-256Z" pointer-events="none" opacity="1"/><g><g class="mark-symbol role-legend-symbol" pointer-events="none"><path transform="translate(6,6)" d="M-5,0L5,0" stroke="#4c78a8" stroke-width="1.5" opacity="1"/></g><g class="mark-text role-legend-label" pointer-events="none"><text text-anchor="start" transform="translate(16,9)" font-family="Liberation Mono" font-size="10px" fill="#000" opacity="1">escape-city-disc-1-2024</text></g></g><path class="foreground" aria-hidden="true" d="" pointer-events="none" display="none"/></g><g transform="translate(0,143)"><path class="background" aria-hidden="true" d="M0,0h256v11h-256Z" pointer-events="none" opacity="1"/><g><g class="mark-symbol role-legend-symbol" pointer-events="none"><path transform="translate(6,6)" d="M-5,0L5,0" stroke="#f58518" stroke-width="1.5" opacity="1"/></g><g class="mark-text role-legend-label" pointer-events="none"><text text-anchor="start" transform="translate(16,9)" font-family="Liberation Mono" font-size="10px" fill="#000" opacity="1">sdrbike-escape-1-city-disc</text></g></g><path class="foreground" aria-hidden="true" d="" pointer-events="none" display="none"/></g><g transform="translate(0,156)"><path class="background" aria-hidden="true" d="M0,0h256v11h-256Z" pointer-events="none" opacity="1"/><g><g class="mark-symbol role-legend-symbol" pointer-events="none"><path transform="translate(6,6)" d="M-5,0L5,0" stroke="#e45756" stroke-width="1.5" opacity="1"/></g><g class="mark-text role-legend-label" pointer-events="none"><text text-anchor="start" transform="translate(16,9)" font-family="Liberation Mono" font-size="10px" fill="#000" opacity="1">roam-disc-2-2024</text></g></g><path class="foreground" aria-hidden="true" d="" pointer-events="none" display="none"/></g><g transform="translate(0,169)"><path class="background" aria-hidden="true" d="M0,0h256v11h-256Z" pointer-events="none" opacity="1"/><g><g class="mark-symbol role-legend-symbol" pointer-events="none"><path transform="translate(6,6)" d="M-5,0L5,0" stroke="#72b7b2" stroke-width="1.5" opacity="1"/></g><g class="mark-text role-legend-label" pointer-events="none"><text text-anchor="start" transform="translate(16,9)" font-family="Liberation Mono" font-size="10px" fill="#000" opacity="1">rove-2</text></g></g><path class="foreground" aria-hidden="true" d="" pointer-events="none" display="none"/></g><g transform="translate(0,182)"><path class="background" aria-hidden="true" d="M0,0h256v11h-256Z" pointer-events="none" opacity="1"/><g><g class="mark-symbol role-legend-symbol" pointer-events="none"><path transform="translate(6,6)" d="M-5,0L5,0" stroke="#54a24b" stroke-width="1.5" opacity="1"/></g><g class="mark-text role-legend-label" pointer-events="none"><text text-anchor="start" transform="translate(16,9)" font-family="Liberation Mono" font-size="10px" fill="#000" opacity="1">allure-rs-2-2022</text></g></g><path class="foreground" aria-hidden="true" d="" pointer-events="none" display="none"/></g><g transform="translate(0,195)"><path class="background" aria-hidden="true" d="M0,0h256v11h-256Z" pointer-events="none" opacity="1"/><g><g class="mark-symbol role-legend-symbol" pointer-events="none"><path transform="translate(6,6)" d="M-5,0L5,0" stroke="#eeca3b" stroke-width="1.5" opacity="1"/></g><g class="mark-text role-legend-label" pointer-events="none"><text text-anchor="start" transform="translate(16,9)" font-family="Liberation Mono" font-size="10px" fill="#000" opacity="1">allure-rs-2-2024</text></g></g><path class="foreground" aria-hidden="true" d="" pointer-events="none" display="none"/></g></g></g><path class="foreground" aria-hidden="true" d="" pointer-events="none" display="none"/></g></g><g class="mark-text role-legend-title" pointer-events="none"><text text-anchor="start" transform="translate(0,9)" font-family="Liberation Mono" font-size="11px" font-weight="bold" fill="#000" opacity="1">identifier</text></g></g><path class="foreground" aria-hidden="true" d="" pointer-events="none" display="none"/></g></g></g><path class="foreground" aria-hidden="true" d="" display="none"/></g></g></g></svg>