<svg xmlns="http://www.w3.org/2000/svg" xmlns:xlink="http://www.w3.org/1999/xlink" version="1.1" class="marks" width="548" height="244" viewBox="0 0 548 244"><rect width="548" height="244" fill="white"/><g fill="none" stroke-miterlimit="10" transform="translate(67,7)"><g class="mark-group role-frame root" role="graphics-object" aria-roledescription="group mark container"><g transform="translate(0,0)"><path class="background" aria-hidden="true" d="M0.5,0.5h200v200h-200Z" stroke="#ddd"/><g><g class="mark-group role-axis" aria-hidden="true"><g transform="translate(0.5,200.5)"><path class="background" aria-hidden="true" d="M0,0h0v0h0Z" pointer-events="none"/><g><g class="mark-rule role-axis-grid" pointer-events="none"><line transform="translate(10,-200)" x2="0" y2="200" stroke="#ddd" stroke-width="1" opacity="1"/><line transform="translate(35,-200)" x2="0" y2="200" stroke="#ddd" stroke-width="1" opacity="1"/><line transform="translate(61,-200)" x2="0" y2="200" stroke="#ddd" stroke-width="1" opacity="1"/><line transform="translate(87,-200)" x2="0" y2="200" stroke="#ddd" stroke-width="1" opacity="1"/><line transform="translate(113,-200)" x2="0" y2="200" stroke="#ddd" stroke-width="1" opacity="1"/><line transform="translate(139,-200)" x2="0" y2="200" stroke="#ddd" stroke-width="1" opacity="1"/><line transform="translate(164,-200)" x2="0" y2="200" stroke="#ddd" stroke-width="1" opacity="1"/><line transform="translate(190,-200)" x2="0" y2="200" stroke="#ddd" stroke-width="1" opacity="1"/></g></g><path class="foreground" aria-hidden="true" d="" pointer-events="none" display="none"/></g></g><g class="mark-group role-axis" aria-hidden="true"><g transform="translate(0.5,0.5)"><path class="background" aria-hidden="true" d="M0,0h0v0h0Z" pointer-events="none"/><g><g class="mark-rule role-axis-grid" pointer-events="none"><line transform="translate(0,200)" x2="200" y2="0" stroke="#ddd" stroke-width="1" opacity="1"/><line transform="translate(0,144)" x2="200" y2="0" stroke="#ddd" stroke-width="1" opacity="1"/><line transform="translate(0,89)" x2="200" y2="0" stroke="#ddd" stroke-width="1" opacity="1"/><line transform="translate(0,33)" x2="200" y2="0" stroke="#ddd" stroke-width="1" opacity="1"/></g></g><path class="foreground" aria-hidden="true" d="" pointer-events="none" display="none"/></g></g><g class="mark-group role-axis" role="graphics-symbol" aria-roledescription="axis" aria-label="X-axis titled 'Time' for a time scale with values from Thursday, 14 August 2025, 8:34:48 AM to Tuesday, 07 October 2025, 4:50:36 PM"><g transform="translate(0.5,200.5)"><path class="background" aria-hidden="true" d="M0,0h0v0h0Z" pointer-events="none"/><g><g class="mark-rule role-axis-tick" pointer-events="none"><line transform="translate(10,0)" x2="0" y2="5" stroke="#888" stroke-width="1" opacity="1"/><line transform="translate(35,0)" x2="0" y2="5" stroke="#888" stroke-width="1" opacity="1"/><line transform="translate(61,0)" x2="0" y2="5" stroke="#888" stroke-width="1" opacity="1"/><line transform="translate(87,0)" x2="0" y2="5" stroke="#888" stroke-width="1" opacity="1"/><line transform="translate(113,0)" x2="0" y2="5" stroke="#888" stroke-width="1" opacity="1"/><line transform="translate(139,0)" x2="0" y2="5" stroke="#888" stroke-width="1" opacity="1"/><line transform="translate(164,0)" x2="0" y2="5" stroke="#888" stroke-width="1" opacity="1"/><line transform="translate(190,0)" x2="0" y2="5" stroke="#888" stroke-width="1" opacity="1"/></g><g class="mark-text role-axis-label" pointer-events="none"><text text-anchor="middle" transform="translate(9.724998396630994,15)" font-family="Liberation Mono" font-size="10px" fill="#000" opacity="1">Aug 17</text><text text-anchor="middle" transform="translate(35.48666874397821,15)" font-family="Liberation Mono" font-size="10px" fill="#000" opacity="0">Aug 24</text><text text-anchor="middle" transform="translate(61.24833909132542,15)" font-family="Liberation Mono" font-size="10px" fill="#000" opacity="1">Aug 31</text><text text-anchor="middle" transform="translate(87.01000943867264,15)" font-family="Liberation Mono" font-size="10px" fill="#000" opacity="0">Sep 07</text><text text-anchor="middle" transform="translate(112.77167978601985,15)" font-family="Liberation Mono" font-size="10px" fill="#000" opacity="1">Sep 14</text><text text-anchor="middle" transform="translate(138.53335013336707,15)" font-family="Liberation Mono" font-size="10px" fill="#000" opacity="0">Sep 21</text><text text-anchor="middle" transform="translate(164.29502048071427,15)" font-family="Liberation Mono" font-size="10px" fill="#000" opacity="1">Sep 28</text><text text-anchor="middle" transform="translate(190.0566908280615,15)" font-family="Liberation Mono" font-size="10px" fill="#000" opacity="0">Oct 05</text></g><g class="mark-rule role-axis-domain" pointer-events="none"><line transform="translate(0,0)" x2="200" y2="0" stroke="#888" stroke-width="1" opacity="1"/></g><g class="mark-text role-axis-title" pointer-events="none"><text text-anchor="middle" transform="translate(100,30)" font-family="Liberation Mono" font-size="11px" font-weight="bold" fill="#000" opacity="1">Time</text></g></g><path class="foreground" aria-hidden="true" d="" pointer-events="none" display="none"/></g></g><g class="mark-group role-axis" role="graphics-symbol" aria-roledescription="axis" aria-label="Y-axis titled 'Price' for a linear scale with values from 0 to 1,800"><g transform="translate(0.5,0.5)"><path class="background" aria-hidden="true" d="M0,0h0v0h0Z" pointer-events="none"/><g><g class="mark-rule role-axis-tick" pointer-events="none"><line transform="translate(0,200)" x2="-5" y2="0" stroke="#888" stroke-width="1" opacity="1"/><line transform="translate(0,144)" x2="-5" y2="0" stroke="#888" stroke-width="1" opacity="1"/><line transform="translate(0,89)" x2="-5" y2="0" stroke="#888" stroke-width="1" opacity="1"/><line transform="translate(0,33)" x2="-5" y2="0" stroke="#888" stroke-width="1" opacity="1"/></g><g class="mark-text role-axis-label" pointer-events="none"><text text-anchor="end" transform="translate(-7,203)" font-family="Liberation Mono" font-size="10px" fill="#000" opacity="1">0</text><text text-anchor="end" transform="translate(-7,147.44444444444443)" font-family="Liberation Mono" font-size="10px" fill="#000" opacity="1">500</text><text text-anchor="end" transform="translate(-7,91.88888888888889)" font-family="Liberation Mono" font-size="10px" fill="#000" opacity="1">1,000</text><text text-anchor="end" transform="translate(-7,36.33333333333333)" font-family="Liberation Mono" font-size="10px" fill="#000" opacity="1">1,500</text></g><g class="mark-rule role-axis-domain" pointer-events="none"><line transform="translate(0,200)" x2="0" y2="-200" stroke="#888" stroke-width="1" opacity="1"/></g><g class="mark-text role-axis-title" pointer-events="none"><text text-anchor="middle" transform="translate(-51,100) rotate(-90) translate(0,-2)" font-family="Liberation Mono" font-size="11px" font-weight="bold" fill="#000" opacity="1">Price</text></g></g><path class="foreground" aria-hidden="true" d="" pointer-events="none" display="none"/></g></g><g class="mark-group role-scope pathgroup" role="graphics-object" aria-roledescription="group mark container"><g transform="translate(0,0)"><path class="background" aria-hidden="true" d="M0,0h200v200h-200Z"/><g><g class="mark-line role-mark marks" role="graphics-object" aria-roledescription="line mark container"><path aria-label="Time: Aug 14, 2025; Price: 899; identifier: escape-city-disc-1-2024" role="graphics-symbol" aria-roledescription="line mark" d="M0,100.111L0.031,100.111L0.055,100.111L0.733,100.111L1.273,100.111L1.877,100.111L3.119,100.111L3.728,100.111L4.401,100.111L4.953,100.111L5.555,100.111L6.787,100.111L7.404,100.111L8.057,100.111L8.626,100.111L9.23,100.111L10.481,100.111L11.083,100.111L11.739,100.111L12.309,100.111L12.915,100.111L14.172,100.111L14.777,100.111L15.454,100.111L15.692,100.111L16.001,100.111L16.592,100.111L17.824,100.111L18.447,100.111L19.101,100.111L19.672,100.111L20.27,100.111L21.506,100.111L22.123,100.111L22.803,100.111L23.078,100.111L23.351,100.111L23.955,100.111L25.184,100.111L25.806,100.111L26.463,100.111L27.034,100.111L27.633,100.111L28.865,100.111L29.485,100.111L30.141,100.111L30.71,100.111L31.311,100.111L32.543,100.111L33.16,100.111L33.81,100.111L34.38,100.111L34.988,100.111L36.227,100.111L36.837,100.111L37.492,100.111L38.065,100.111L38.669,100.111L39.913,100.111L40.534,100.111L41.205,100.111L41.755,100.111L42.354,100.111L43.587,100.111L44.212,100.111L45.431,100.111L46.03,100.111L47.263,100.111L47.885,100.111L48.126,100.111L48.54,100.111L48.951,100.111L49.111,100.111L49.713,100.111L50.942,100.111L51.566,100.111L52.222,100.111L52.791,100.111L53.392,100.111L54.623,100.111L55.244,100.111L55.898,100.111L56.47,100.111L57.07,100.111L58.299,100.111L58.916,100.111L59.567,100.111L60.141,100.111L60.719,100.111L60.748,100.111L61.981,100.111L62.374,100.111L62.594,100.111L63.249,100.111L63.823,100.111L64.43,100.111L65.673,100.111L66.291,100.111L66.944,100.111L67.508,100.111L68.109,100.111L69.347,100.111L69.969,100.111L70.627,100.111L71.191,100.111L71.792,100.111L73.022,100.111L73.643,100.111L74.299,100.111L74.869,100.111L75.471,100.111L76.702,100.111L77.325,100.111L77.976,100.111L78.552,100.111L79.15,100.111L80.383,100.111L81.004,100.111L81.658,100.111L82.225,100.111L82.832,100.111L84.06,100.111L84.375,100.111L84.674,100.111L85.323,100.111L85.899,100.111L86.51,100.111L87.739,100.111L88.353,100.111L89.005,100.111L89.58,100.111L90.19,100.111L91.425,100.111L92.051,100.111L92.707,100.111L93.273,100.111L93.876,100.111L95.104,100.111L95.73,100.111L96.408,100.111L96.955,100.111L97.552,100.111L98.779,100.111L99.407,100.111L100.059,100.111L100.63,100.111L101.233,100.111L102.464,100.111L103.086,100.111L103.738,100.111L104.303,100.111L104.911,100.111L106.142,100.111L106.764,100.111L107.416,100.111L107.985,100.111L108.591,100.111L109.82,100.111L110.436,100.111L111.085,100.111L111.658,100.111L112.271,100.111L113.501,100.111L114.116,100.111L114.763,100.111L115.337,100.111L115.951,100.111L117.187,100.111L117.808,100.111L118.465,100.111L119.032,100.111L119.634,100.111L120.864,100.111L121.491,100.111L122.145,100.111L122.711,100.111L123.315,100.111L124.546,100.111L125.168,100.111L125.825,100.111L126.392,100.111L126.994,100.111L128.226,100.111L128.848,100.111L129.504,100.111L130.07,100.111L130.675,100.111L131.906,100.111L132.528,100.111L133.183,100.111L133.753,100.111L134.353,100.111L135.584,100.111L136.201,100.111L136.852,100.111L137.421,100.111L138.032,100.111L139.265,100.111L139.878,100.111L140.531,100.111L141.105,100.111L141.714,100.111L142.947,100.111L143.574,100.111L144.229,100.111L144.788,100.111L145.398,100.111L146.626,100.111L147.251,100.111L147.906,100.111L148.476,100.111L149.077,100.111L150.308,100.111L150.933,100.111L151.587,100.111L152.159,100.111L152.755,100.111L153.988,100.111L154.614,100.111L155.27,100.111L155.838,100.111L156.435,100.111L157.667,100.111L158.292,100.111L158.946,100.111L159.515,100.111L160.115,100.111L161.346,100.111L161.96,100.111L162.611,100.111L163.185,100.111L163.796,100.111L165.027,100.111L165.641,100.111L166.293,100.111L166.863,100.111L167.475,100.111L168.71,100.111L169.337,100.111L169.992,100.111L170.543,100.111L171.157,100.111L172.389,100.111L173.019,100.111L173.672,100.111L174.236,100.111L174.838,100.111L176.071,100.111L176.696,100.111L177.353,100.111L177.918,100.111L178.519,100.111L179.747,100.111L180.37,100.111L181.024,100.111L181.597,100.111L182.197,100.111L183.426,100.111L184.05,100.111L184.702,100.111L185.275,100.111L185.876,100.111L187.105,100.111L187.723,100.111L188.372,100.111L188.947,100.111L189.556,100.111L190.784,100.111L191.401,100.111L192.053,100.111L192.627,100.111L193.237,100.111L194.469,100.111L195.095,100.111L195.751,100.111L196.319,100.111L196.921,100.111L198.149,100.111L198.773,100.111L199.432,100.111L199.999,100.111" stroke="#4c78a8" stroke-width="2"/></g></g><path class="foreground" aria-hidden="true" d="" display="none"/></g><g transform="translate(0,0)"><path class="background" aria-hidden="true" d="M0,0h200v200h-200Z"/><g><g class="mark-line role-mark marks" role="graphics-object" aria-roledescription="line mark container"><path aria-label="Time: Aug 14, 2025; Price: 999; identifier: roam-2" role="graphics-symbol" aria-roledescription="line mark" d="M0,89L0.031,89L0.055,89L0.733,89L1.273,89L1.878,89L3.119,89L3.728,89L4.401,89L4.953,89L5.555,89L6.787,89L7.404,89L8.057,89L8.627,89L9.236,89L10.482,89L11.083,89L11.739,89L12.309,89L12.915,89L14.172,89L14.777,89L15.455,89L15.692,89L16.002,89L16.592,89L17.825,89L18.447,89L19.101,89L19.672,89L20.271,89L21.506,89L22.123,89L22.803,89L23.079,89L23.351,89L23.955,89L25.184,89L25.806,89L26.463,89L27.034,89L27.633,89L28.865,89L29.485,89L30.141,89L30.71,89L31.312,89L32.543,89L33.16,89L33.81,89L34.381,89L34.988,89L36.228,89L36.837,89L37.492,89L38.065,89L38.67,89L39.913,89L40.534,89L41.205,89L41.755,89L42.354,89L43.587,89L44.212,89L45.432,89L46.031,89L47.263,89L47.885,89L48.126,89L48.54,89L48.951,89L49.111,89L49.713,89L50.942,89L51.566,89L52.222,89L52.791,89L53.392,89L54.623,89L55.244,89L55.898,89L56.47,89L57.07,89L58.299,89L58.916,89L59.567,89L60.141,89L60.72,89L60.748,89L61.981,89L62.374,89L62.594,89L63.249,89L63.823,89L64.43,89L65.673,89L66.291,89L66.944,89L67.508,89L68.109,89L69.347,89L69.969,89L70.627,89L71.191,89L71.792,89L73.023,89L73.644,89L74.299,89L74.869,89L75.471,89L76.702,89L77.325,89L77.976,89L78.552,89L79.15,89L80.384,89L81.005,89L81.658,89L82.225,89L82.832,89L84.06,89L84.376,89L84.674,89L85.323,89L85.899,89L86.51,89L87.739,89L88.354,89L89.006,89L89.58,89L90.19,89L91.426,89L92.051,89L92.708,89L93.273,89L93.876,89L95.104,89L95.73,89L96.409,89L96.956,89L97.552,89L98.779,89L99.407,89L100.059,89L100.63,89L101.234,89L102.464,89L103.086,89L103.738,89L104.303,89L104.911,89L106.142,89L106.764,89L107.416,89L107.985,89L108.591,89L109.82,89L110.436,89L111.086,89L111.658,89L112.271,89L113.501,89L114.116,89L114.763,89L115.337,89L115.952,89L117.187,89L117.808,89L118.466,89L119.033,89L119.635,89L120.865,89L121.491,89L122.145,89L122.711,89L123.315,89L124.546,89L125.168,89L125.825,89L126.392,89L126.995,89L128.226,89L128.848,89L129.504,89L130.07,89L130.675,89L131.906,89L132.528,89L133.183,89L133.753,89L134.353,89L135.584,89L136.202,89L136.852,89L137.422,89L138.032,89L139.265,89L139.879,89L140.531,89L141.105,89L141.714,89L142.948,89L143.574,89L144.229,89L144.788,89L145.398,89L146.627,89L147.251,89L147.906,89L148.476,89L149.078,89L150.308,89L150.933,89L151.587,89L152.159,89L152.755,89L153.988,89L154.614,89L155.27,89L155.838,89L156.435,89L157.667,89L158.292,89L158.946,89L159.515,89L160.116,89L161.347,89L161.96,89L162.612,89L163.186,89L163.796,89L165.027,89L165.641,89L166.293,89L166.863,89L167.475,89L168.71,89L169.337,89L169.993,89L170.543,89L171.158,89L172.389,89L173.019,89L173.672,89L174.236,89L174.838,89L176.072,89L176.696,89L177.353,89L177.918,89L178.519,89L179.747,89L180.37,89L181.024,89L181.597,89L182.197,89L183.426,89L184.05,89L184.702,89L185.275,89L185.877,89L187.106,89L187.723,89L188.372,89L188.947,89L189.556,89L190.784,89L191.401,89L192.054,89L192.627,89L193.237,89L194.469,89L195.095,89L195.751,89L196.319,89L196.921,89L198.149,89L198.774,89L199.432,89L199.999,89" stroke="#ff9da6" stroke-width="2"/></g></g><path class="foreground" aria-hidden="true" d="" display="none"/></g><g transform="translate(0,0)"><path class="background" aria-hidden="true" d="M0,0h200v200h-200Z"/><g><g class="mark-line role-mark marks" role="graphics-object" aria-roledescription="line mark container"><path aria-label="Time: Aug 14, 2025; Price: 999; identifier: fastroad-sl-3-2022" role="graphics-symbol" aria-roledescription="line mark" d="M0,89L0.031,89L0.055,89L0.733,89L1.273,89L1.878,89L3.119,89L3.728,89L4.401,89L4.953,89L5.555,89L6.787,89L7.404,89L8.057,89L8.627,89L9.236,89L10.482,89L11.083,89L11.739,89L12.309,89L12.915,89L14.172,89L14.777,89L15.455,89L15.693,89L16.002,89L16.592,89L17.825,89L18.448,89L19.101,89L19.672,89L20.271,89L21.506,89L22.123,89L22.803,89L23.079,89L23.351,89L23.955,89L25.184,89L25.806,89L26.463,89L27.034,89L27.633,89L28.865,89L29.485,89L30.142,89L30.71,89L31.312,89L32.543,89L33.16,89L33.81,89L34.381,89L34.988,89L36.228,89L36.838,89L37.493,89L38.066,89L38.67,89L39.913,89L40.534,89L41.206,89L41.755,89L42.354,89L43.587,89L44.212,89L45.432,89L46.031,89L47.263,89L47.885,89L48.126,89L48.54,89L48.951,89L49.111,89L49.713,89L50.942,89L51.567,89L52.222,89L52.791,89L53.392,89L54.623,89L55.244,89L55.898,89L56.47,89L57.07,89L58.299,89L58.916,89L59.567,89L60.141,89L60.72,89L60.748,89L61.981,89L62.374,89L62.594,89L63.249,89L63.823,89L64.43,89L65.673,89L66.291,89L66.944,89L67.508,89L68.109,89L69.347,89L69.969,89L70.627,89L71.191,89L71.792,89L73.023,89L73.644,89L74.299,89L74.869,89L75.471,89L76.702,89L77.325,89L77.976,89L78.552,89L79.15,89L80.384,89L81.005,89L81.658,89L82.225,89L82.832,89L84.06,89L84.376,89L84.674,89L85.323,89L85.899,89L86.51,89L87.739,89L88.354,89L89.006,89L89.58,89L90.19,89L91.426,89L92.051,89L92.708,89L93.273,89L93.876,89L95.104,89L95.73,89L96.409,89L96.956,89L97.552,89L98.779,89L99.407,89L100.059,89L100.63,89L101.234,89L102.464,89L103.086,89L103.738,89L104.303,89L104.911,89L106.142,89L106.765,89L107.416,89L107.985,89L108.591,89L109.82,89L110.436,89L111.086,89L111.658,89L112.271,89L113.501,89L114.116,89L114.763,89L115.338,89L115.952,89L117.188,89L117.808,89L118.466,89L119.033,89L119.635,89L120.865,89L121.491,89L122.145,89L122.711,89L123.315,89L124.546,89L125.169,89L125.825,89L126.392,89L126.995,89L128.226,89L128.848,89L129.504,89L130.07,89L130.675,89L131.906,89L132.528,89L133.183,89L133.753,89L134.353,89L135.584,89L136.202,89L136.852,89L137.422,89L138.033,89L139.265,89L139.879,89L140.531,89L141.105,89L141.714,89L142.948,89L143.574,89L144.229,89L144.788,89L145.398,89L146.627,89L147.251,89L147.906,89L148.476,89L149.078,89L150.308,89L150.933,89L151.587,89L152.159,89L152.755,89L153.989,89L154.614,89L155.27,89L155.838,89L156.435,89L157.667,89L158.293,89L158.946,89L159.515,89L160.116,89L161.347,89L161.96,89L162.612,89L163.186,89L163.796,89L165.027,89L165.641,89L166.293,89L166.863,89L167.475,89L168.711,89L169.337,89L169.993,89L170.543,89L171.158,89L172.389,89L173.019,89L173.672,89L174.236,89L174.838,89L176.072,89L176.696,89L177.353,89L177.918,89L178.519,89L179.747,89L180.37,89L181.024,89L181.597,89L182.197,89L183.426,89L184.05,89L184.702,89L185.275,89L185.877,89L187.106,89L187.723,89L188.372,89L188.948,89L189.557,89L190.784,89L191.401,89L192.054,89L192.627,89L193.238,89L194.469,89L195.095,89L195.751,89L196.319,89L196.921,89L198.149,89L198.774,89L199.432,89L199.999,89" stroke="#9d755d" stroke-width="2"/></g></g><path class="foreground" aria-hidden="true" d="" display="none"/></g><g transform="translate(0,0)"><path class="background" aria-hidden="true" d="M0,0h200v200h-200Z"/><g><g class="mark-line role-mark marks" role="graphics-object" aria-roledescription="line mark container"><path aria-label="Time: Aug 14, 2025; Price: 1199; identifier: fastroad-ar-2" role="graphics-symbol" aria-roledescription="line mark" d="M0,66.778L0.031,66.778L0.055,66.778L0.733,66.778L1.273,66.778L1.878,66.778L3.119,66.778L3.728,66.778L4.402,66.778L4.954,66.778L5.556,66.778L6.787,66.778L7.404,66.778L8.057,66.778L8.627,66.778L9.239,66.778L10.482,66.778L11.083,66.778L11.739,66.778L12.31,66.778L12.915,66.778L14.172,66.778L14.777,66.778L15.455,66.778L15.693,66.778L16.002,66.778L16.592,66.778L17.825,66.778L18.448,66.778L19.101,66.778L19.672,66.778L20.271,66.778L21.506,66.778L22.123,66.778L22.803,66.778L23.079,66.778L23.351,66.778L23.955,66.778L25.184,66.778L25.806,66.778L26.463,66.778L27.034,66.778L27.634,66.778L28.865,66.778L29.485,66.778L30.142,66.778L30.71,66.778L31.312,66.778L32.543,66.778L33.16,66.778L33.81,66.778L34.381,66.778L34.988,66.778L36.228,66.778L36.838,66.778L37.493,66.778L38.066,66.778L38.67,66.778L39.913,66.778L40.534,66.778L41.206,66.778L41.755,66.778L42.354,66.778L43.588,66.778L44.212,66.778L45.432,66.778L46.031,66.778L47.263,66.778L47.885,66.778L48.126,66.778L48.54,66.778L48.951,66.778L49.111,66.778L49.714,66.778L50.943,66.778L51.567,66.778L52.222,66.778L52.791,66.778L53.392,66.778L54.623,66.778L55.244,66.778L55.898,66.778L56.47,66.778L57.071,66.778L58.299,66.778L58.916,66.778L59.567,66.778L60.141,66.778L60.72,66.778L60.748,66.778L61.981,66.778L62.374,66.778L62.594,66.778L63.249,66.778L63.823,66.778L64.43,66.778L65.673,66.778L66.292,66.778L66.945,66.778L67.508,66.778L68.109,66.778L69.347,66.778L69.969,66.778L70.627,66.778L71.191,66.778L71.792,66.778L73.023,66.778L73.644,66.778L74.299,66.778L74.869,66.778L75.471,66.778L76.702,66.778L77.325,66.778L77.976,66.778L78.552,66.778L79.151,66.778L80.384,66.778L81.005,66.778L81.658,66.778L82.225,66.778L82.832,66.778L84.06,66.778L84.376,66.778L84.674,66.778L85.323,66.778L85.899,66.778L86.51,66.778L87.739,66.778L88.354,66.778L89.006,66.778L89.58,66.778L90.19,66.778L91.426,66.778L92.051,66.778L92.708,66.778L93.273,66.778L93.876,66.778L95.104,66.778L95.73,66.778L96.409,66.778L96.956,66.778L97.552,66.778L98.779,66.778L99.407,66.778L100.059,66.778L100.63,66.778L101.234,66.778L102.465,66.778L103.086,66.778L103.738,66.778L104.303,66.778L104.911,66.778L106.142,66.778L106.765,66.778L107.416,66.778L107.985,66.778L108.591,66.778L109.82,66.778L110.436,66.778L111.086,66.778L111.658,66.778L112.272,66.778L113.501,66.778L114.116,66.778L114.763,66.778L115.338,66.778L115.952,66.778L117.188,66.778L117.808,66.778L118.466,66.778L119.033,66.778L119.635,66.778L120.865,66.778L121.491,66.778L122.145,66.778L122.711,66.778L123.315,66.778L124.546,66.778L125.169,66.778L125.825,66.778L126.393,66.778L126.995,66.778L128.226,66.778L128.848,66.778L129.505,66.778L130.071,66.778L130.676,66.778L131.906,66.778L132.528,66.778L133.183,66.778L133.753,66.778L134.353,66.778L135.584,66.778L136.202,66.778L136.852,66.778L137.422,66.778L138.033,66.778L139.265,66.778L139.879,66.778L140.532,66.778L141.105,66.778L141.715,66.778L142.948,66.778L143.574,66.778L144.229,66.778L144.788,66.778L145.398,66.778L146.627,66.778L147.251,66.778L147.906,66.778L148.476,66.778L149.078,66.778L150.308,66.778L150.933,66.778L151.587,66.778L152.159,66.778L152.755,66.778L153.989,66.778L154.614,66.778L155.271,66.778L155.839,66.778L156.435,66.778L157.667,66.778L158.293,66.778L158.947,66.778L159.515,66.778L160.116,66.778L161.347,66.778L161.96,66.778L162.612,66.778L163.186,66.778L163.796,66.778L165.027,66.778L165.641,66.778L166.293,66.778L166.863,66.778L167.475,66.778L168.711,66.778L169.337,66.778L169.993,66.778L170.543,66.778L171.158,66.778L172.389,66.778L173.019,66.778L173.672,66.778L174.236,66.778L174.838,66.778L176.072,66.778L176.696,66.778L177.353,66.778L177.918,66.778L178.519,66.778L179.747,66.778L180.37,66.778L181.024,66.778L181.597,66.778L182.197,66.778L183.426,66.778L184.05,66.778L184.702,66.778L185.276,66.778L185.877,66.778L187.106,66.778L187.723,66.778L188.373,66.778L188.948,66.778L189.557,66.778L190.784,66.778L191.401,66.778L192.054,66.778L192.627,66.778L193.238,66.778L194.469,66.778L195.095,66.778L195.751,66.778L196.319,66.778L196.921,66.778L198.149,66.778L198.774,66.778L199.432,66.778L199.999,66.778" stroke="#54a24b" stroke-width="2"/></g></g><path class="foreground" aria-hidden="true" d="" display="none"/></g><g transform="translate(0,0)"><path class="background" aria-hidden="true" d="M0,0h200v200h-200Z"/><g><g class="mark-line role-mark marks" role="graphics-object" aria-roledescription="line mark container"><path aria-label="Time: Aug 18, 2025; Price: 899; identifier: sdrbike-escape-1-city-disc" role="graphics-symbol" aria-roledescription="line mark" d="M15.693,100.111L16.002,100.111L16.592,100.111L17.825,100.111L18.448,100.111L19.101,100.111L19.672,100.111L20.271,100.111L21.506,100.111L22.123,100.111L22.804,100.111L23.079,100.111L23.351,100.111L23.955,100.111L25.184,100.111L25.806,100.111L26.463,100.111L27.034,100.111L27.634,100.111L28.866,100.111L29.486,100.111L30.142,100.111L30.71,100.111L31.312,100.111L32.543,100.111L33.16,100.111L33.811,100.111L34.381,100.111L34.988,100.111L36.228,100.111L36.838,100.111L37.493,100.111L38.066,100.111L38.67,100.111L39.913,100.111L40.534,100.111L41.206,100.111L41.755,100.111L42.354,100.111L43.588,100.111L44.212,100.111L45.432,100.111L46.031,100.111L47.263,100.111L47.885,100.111L48.127,100.111L48.54,100.111L48.951,100.111L49.112,100.111L49.714,100.111L50.943,100.111L51.567,100.111L52.222,100.111L52.791,100.111L53.392,100.111L54.623,100.111L55.244,100.111L55.898,100.111L56.47,100.111L57.071,100.111L58.299,100.111L58.916,100.111L59.567,100.111L60.141,100.111L60.72,100.111L60.749,100.111L61.981,100.111L62.374,100.111L62.595,100.111L63.249,100.111L63.823,100.111L64.43,100.111L65.673,100.111L66.292,100.111L66.945,100.111L67.508,100.111L68.11,100.111L69.347,100.111L69.97,100.111L70.627,100.111L71.191,100.111L71.792,100.111L73.023,100.111L73.644,100.111L74.299,100.111L74.869,100.111L75.471,100.111L76.702,100.111L77.326,100.111L77.976,100.111L78.552,100.111L79.151,100.111L80.384,100.111L81.005,100.111L81.659,100.111L82.225,100.111L82.832,100.111L84.06,100.111L84.376,100.111L84.674,100.111L85.323,100.111L85.9,100.111L86.51,100.111L87.739,100.111L88.354,100.111L89.006,100.111L89.58,100.111L90.19,100.111L91.426,100.111L92.052,100.111L92.708,100.111L93.273,100.111L93.876,100.111L95.104,100.111L95.73,100.111L96.409,100.111L96.956,100.111L97.552,100.111L98.78,100.111L99.407,100.111L100.059,100.111L100.63,100.111L101.234,100.111L102.465,100.111L103.086,100.111L103.738,100.111L104.303,100.111L104.911,100.111L106.142,100.111L106.765,100.111L107.417,100.111L107.985,100.111L108.591,100.111L109.82,100.111L110.436,100.111L111.086,100.111L111.658,100.111L112.272,100.111L113.502,100.111L114.117,100.111L114.764,100.111L115.338,100.111L115.952,100.111L117.188,100.111L117.808,100.111L118.466,100.111L119.033,100.111L119.635,100.111L120.865,100.111L121.492,100.111L122.145,100.111L122.712,100.111L123.315,100.111L124.547,100.111L125.169,100.111L125.826,100.111L126.393,100.111L126.995,100.111L128.226,100.111L128.848,100.111L129.505,100.111L130.071,100.111L130.676,100.111L131.906,100.111L132.528,100.111L133.184,100.111L133.753,100.111L134.354,100.111L135.584,100.111L136.202,100.111L136.853,100.111L137.422,100.111L138.033,100.111L139.265,100.111L139.879,100.111L140.532,100.111L141.105,100.111L141.715,100.111L142.948,100.111L143.574,100.111L144.229,100.111L144.788,100.111L145.398,100.111L146.627,100.111L147.251,100.111L147.906,100.111L148.477,100.111L149.078,100.111L150.308,100.111L150.933,100.111L151.588,100.111L152.159,100.111L152.756,100.111L153.989,100.111L154.614,100.111L155.271,100.111L155.839,100.111L156.435,100.111L157.667,100.111L158.293,100.111L158.947,100.111L159.515,100.111L160.116,100.111L161.347,100.111L161.96,100.111L162.612,100.111L163.186,100.111L163.796,100.111L165.027,100.111L165.641,100.111L166.294,100.111L166.863,100.111L167.475,100.111L168.711,100.111L169.337,100.111L169.993,100.111L170.544,100.111L171.158,100.111L172.39,100.111L173.019,100.111L173.672,100.111L174.236,100.111L174.839,100.111L176.072,100.111L176.696,100.111L177.353,100.111L177.918,100.111L178.519,100.111L179.748,100.111L180.37,100.111L181.024,100.111L181.597,100.111L182.197,100.111L183.426,100.111L184.051,100.111L184.703,100.111L185.276,100.111L185.877,100.111L187.106,100.111L187.723,100.111L188.373,100.111L188.948,100.111L189.557,100.111L190.784,100.111L191.401,100.111L192.054,100.111L192.628,100.111L193.238,100.111L194.47,100.111L195.095,100.111L195.751,100.111L196.319,100.111L196.921,100.111L198.149,100.111L198.774,100.111L199.432,100.111L199.999,100.111" stroke="#f58518" stroke-width="2"/></g></g><path class="foreground" aria-hidden="true" d="" display="none"/></g><g transform="translate(0,0)"><path class="background" aria-hidden="true" d="M0,0h200v200h-200Z"/><g><g class="mark-line role-mark marks" role="graphics-object" aria-roledescription="line mark container"><path aria-label="Time: Aug 20, 2025; Price: 899; identifier: roam-disc-2-2024" role="graphics-symbol" aria-roledescription="line mark" d="M23.078,100.111L23.351,100.111L23.955,100.111L25.184,100.111L25.806,100.111L26.463,100.111L27.034,100.111L27.633,100.111L28.865,100.111L29.485,100.111L30.141,100.111L30.71,100.111L31.312,100.111L32.543,100.111L33.16,100.111L33.81,100.111L34.381,100.111L34.988,100.111L36.227,100.111L36.837,100.111L37.492,100.111L38.065,100.111L38.67,100.111L39.913,100.111L40.534,100.111L41.205,100.111L41.755,100.111L42.354,100.111L43.587,100.111L44.212,100.111L45.432,100.111L46.03,100.111L47.263,100.111L47.885,100.111L48.126,100.111L48.54,100.111L48.951,100.111L49.111,100.111L49.713,100.111L50.942,100.111L51.566,100.111L52.222,100.111L52.791,100.111L53.392,100.111L54.623,100.111L55.244,100.111L55.898,100.111L56.47,100.111L57.07,100.111L58.299,100.111L58.916,100.111L59.567,100.111L60.141,100.111L60.719,100.111L60.748,100.111L61.981,100.111L62.374,100.111L62.594,100.111L63.249,100.111L63.823,100.111L64.43,100.111L65.673,100.111L66.291,100.111L66.944,100.111L67.508,100.111L68.109,100.111L69.347,100.111L69.969,100.111L70.627,100.111L71.191,100.111L71.792,100.111L73.022,100.111L73.644,100.111L74.299,100.111L74.869,100.111L75.471,100.111L76.702,100.111L77.325,100.111L77.976,100.111L78.552,100.111L79.15,100.111L80.384,100.111L81.005,100.111L81.658,100.111L82.225,100.111L82.832,100.111L84.06,100.111L84.375,100.111L84.674,100.111L85.323,100.111L85.899,100.111L86.51,100.111L87.739,100.111L88.354,100.111L89.006,100.111L89.58,100.111L90.19,100.111L91.425,100.111L92.051,100.111L92.708,100.111L93.273,100.111L93.876,100.111L95.104,100.111L95.73,100.111L96.408,100.111L96.956,100.111L97.552,100.111L98.779,100.111L99.407,100.111L100.059,100.111L100.63,100.111L101.233,100.111L102.464,100.111L103.086,100.111L103.738,100.111L104.303,100.111L104.911,100.111L106.142,100.111L106.764,100.111L107.416,100.111L107.985,100.111L108.591,100.111L109.82,100.111L110.436,100.111L111.086,100.111L111.658,100.111L112.271,100.111L113.501,100.111L114.116,100.111L114.763,100.111L115.337,100.111L115.952,100.111L117.187,100.111L117.808,100.111L118.466,100.111L119.033,100.111L119.634,100.111L120.864,100.111L121.491,100.111L122.145,100.111L122.711,100.111L123.315,100.111L124.546,100.111L125.168,100.111L125.825,100.111L126.392,100.111L126.995,100.111L128.226,100.111L128.848,100.111L129.504,100.111L130.07,100.111L130.675,100.111L131.906,100.111L132.528,100.111L133.183,100.111L133.753,100.111L134.353,100.111L135.584,100.111L136.201,100.111L136.852,100.111L137.422,100.111L138.032,100.111L139.265,100.111L139.878,100.111L140.531,100.111L141.105,100.111L141.714,100.111L142.947,100.111L143.574,100.111L144.229,100.111L144.788,100.111L145.398,100.111L146.626,100.111L147.251,100.111L147.906,100.111L148.476,100.111L149.078,100.111L150.308,100.111L150.933,100.111L151.587,100.111L152.159,100.111L152.755,100.111L153.988,100.111L154.614,100.111L155.27,100.111L155.838,100.111L156.435,100.111L157.667,100.111L158.292,100.111L158.946,100.111L159.515,100.111L160.115,100.111L161.346,100.111L161.96,100.111L162.612,100.111L163.185,100.111L163.796,100.111L165.027,100.111L165.641,100.111L166.293,100.111L166.863,100.111L167.475,100.111L168.71,100.111L169.337,100.111L169.992,100.111L170.543,100.111L171.158,100.111L172.389,100.111L173.019,100.111L173.672,100.111L174.236,100.111L174.838,100.111L176.072,100.111L176.696,100.111L177.353,100.111L177.918,100.111L178.519,100.111L179.747,100.111L180.37,100.111L181.024,100.111L181.597,100.111L182.197,100.111L183.426,100.111L184.05,100.111L184.702,100.111L185.275,100.111L185.877,100.111L187.105,100.111L187.723,100.111L188.372,100.111L188.947,100.111L189.556,100.111L190.784,100.111L191.401,100.111L192.053,100.111L192.627,100.111L193.237,100.111L194.469,100.111L195.095,100.111L195.751,100.111L196.319,100.111L196.921,100.111L198.149,100.111L198.773,100.111L199.432,100.111L199.999,100.111" stroke="#e45756" stroke-width="2"/></g></g><path class="foreground" aria-hidden="true" d="" display="none"/></g><g transform="translate(0,0)"><path class="background" aria-hidden="true" d="M0,0h200v200h-200Z"/><g><g class="mark-line role-mark marks" role="graphics-object" aria-roledescription="line mark container"><path aria-label="Time: Aug 20, 2025; Price: 1199; identifier: thrive-2" role="graphics-symbol" aria-roledescription="line mark" d="M23.079,66.778L23.351,66.778L23.956,66.778L25.184,66.778L25.806,66.778L26.463,66.778L27.034,66.778L27.634,66.778L28.866,66.778L29.486,66.778L30.142,66.778L30.71,66.778L31.312,66.778L32.543,66.778L33.16,66.778L33.811,66.778L34.381,66.778L34.989,66.778L36.228,66.778L36.838,66.778L37.493,66.778L38.066,66.778L38.67,66.778L39.913,66.778L40.534,66.778L41.206,66.778L41.755,66.778L42.354,66.778L43.588,66.778L44.212,66.778L45.432,66.778L46.031,66.778L47.263,66.778L47.885,66.778L48.127,66.778L48.541,66.778L48.951,66.778L49.112,66.778L49.714,66.778L50.943,66.778L51.567,66.778L52.222,66.778L52.791,66.778L53.393,66.778L54.623,66.778L55.245,66.778L55.898,66.778L56.47,66.778L57.071,66.778L58.299,66.778L58.916,66.778L59.567,66.778L60.141,66.778L60.72,66.778L60.749,66.778L61.981,66.778L62.374,66.778L62.595,66.778L63.249,66.778L63.824,66.778L64.43,66.778L65.673,66.778L66.292,66.778L66.945,66.778L67.508,66.778L68.11,66.778L69.348,66.778L69.97,66.778L70.627,66.778L71.191,66.778L71.792,66.778L73.023,66.778L73.644,66.778L74.299,66.778L74.869,66.778L75.471,66.778L76.702,66.778L77.326,66.778L77.976,66.778L78.552,66.778L79.151,66.778L80.384,66.778L81.005,66.778L81.659,66.778L82.226,66.778L82.832,66.778L84.06,66.778L84.376,66.778L84.674,66.778L85.323,66.778L85.9,66.778L86.51,66.778L87.739,66.778L88.354,66.778L89.006,66.778L89.58,66.778L90.19,66.778L91.426,66.778L92.052,66.778L92.708,66.778L93.273,66.778L93.876,66.778L95.105,66.778L95.73,66.778L96.409,66.778L96.956,66.778L97.552,66.778L98.78,66.778L99.407,66.778L100.06,66.778L100.63,66.778L101.234,66.778L102.465,66.778L103.086,66.778L103.738,66.778L104.303,66.778L104.911,66.778L106.142,66.778L106.765,66.778L107.417,66.778L107.985,66.778L108.591,66.778L109.82,66.778L110.436,66.778L111.086,66.778L111.659,66.778L112.272,66.778L113.502,66.778L114.117,66.778L114.764,66.778L115.338,66.778L115.952,66.778L117.188,66.778L117.808,66.778L118.466,66.778L119.033,66.778L119.635,66.778L120.865,66.778L121.492,66.778L122.145,66.778L122.712,66.778L123.316,66.778L124.547,66.778L125.169,66.778L125.826,66.778L126.393,66.778L126.995,66.778L128.226,66.778L128.848,66.778L129.505,66.778L130.071,66.778L130.676,66.778L131.907,66.778L132.528,66.778L133.184,66.778L133.753,66.778L134.354,66.778L135.584,66.778L136.202,66.778L136.853,66.778L137.422,66.778L138.033,66.778L139.266,66.778L139.879,66.778L140.532,66.778L141.105,66.778L141.715,66.778L142.948,66.778L143.574,66.778L144.229,66.778L144.788,66.778L145.398,66.778L146.627,66.778L147.252,66.778L147.906,66.778L148.477,66.778L149.078,66.778L150.308,66.778L150.933,66.778L151.588,66.778L152.16,66.778L152.756,66.778L153.989,66.778L154.615,66.778L155.271,66.778L155.839,66.778L156.435,66.778L157.667,66.778L158.293,66.778L158.947,66.778L159.515,66.778L160.116,66.778L161.347,66.778L161.96,66.778L162.612,66.778L163.186,66.778L163.796,66.778L165.027,66.778L165.641,66.778L166.294,66.778L166.863,66.778L167.475,66.778L168.711,66.778L169.337,66.778L169.993,66.778L170.544,66.778L171.158,66.778L172.39,66.778L173.019,66.778L173.673,66.778L174.236,66.778L174.839,66.778L176.072,66.778L176.697,66.778L177.353,66.778L177.918,66.778L178.519,66.778L179.748,66.778L180.371,66.778L181.024,66.778L181.598,66.778L182.198,66.778L183.427,66.778L184.051,66.778L184.703,66.778L185.276,66.778L185.877,66.778L187.106,66.778L187.723,66.778L188.373,66.778L188.948,66.778L189.557,66.778L190.784,66.778L191.401,66.778L192.054,66.778L192.628,66.778L193.238,66.778L194.47,66.778L195.095,66.778L195.752,66.778L196.319,66.778L196.921,66.778L198.15,66.778L198.774,66.778L199.432,66.778L199.999,66.778" stroke="#eeca3b" stroke-width="2"/></g></g><path class="foreground" aria-hidden="true" d="" display="none"/></g><g transform="translate(0,0)"><path class="background" aria-hidden="true" d="M0,0h200v200h-200Z"/><g><g class="mark-line role-mark marks" role="graphics-object" aria-roledescription="line mark container"><path aria-label="Time: Aug 20, 2025; Price: 999; identifier: rove-2" role="graphics-symbol" aria-roledescription="line mark" d="M23.079,89L23.352,89L23.956,89L25.184,89L25.807,89L26.463,89L27.034,89L27.634,89L28.866,89L29.486,89L30.142,89L30.711,89L31.312,89L32.543,89L33.16,89L33.811,89L34.381,89L34.989,89L36.228,89L36.838,89L37.493,89L38.066,89L38.67,89L39.913,89L40.534,89L41.206,89L41.755,89L42.355,89L43.588,89L44.212,89L45.432,89L46.031,89L47.263,89L47.885,89L48.127,89L48.541,89L48.951,89L49.112,89L49.714,89L50.943,89L51.567,89L52.223,89L52.791,89L53.393,89L54.623,89L55.245,89L55.898,89L56.47,89L57.071,89L60.72,111.222L60.749,111.222L61.981,111.222L62.374,111.222L62.595,111.222L63.249,111.222L63.824,111.222L64.43,111.222L65.673,111.222L66.292,111.222L66.945,111.222L67.509,111.222L68.11,111.222L69.348,111.222L69.97,111.222L70.627,111.222L71.191,111.222L71.792,111.222L73.023,111.222L73.644,111.222L74.3,111.222L74.869,111.222L75.471,111.222L76.702,111.222L77.326,111.222L77.976,111.222L78.552,111.222L79.151,111.222L80.384,111.222L81.005,111.222L81.659,111.222L82.226,111.222L82.832,111.222L84.06,111.222L84.376,111.222L84.674,111.222L85.324,111.222L85.9,111.222L86.51,111.222L87.739,111.222L88.354,111.222L89.006,111.222L89.58,111.222L90.19,111.222L91.426,111.222L92.052,111.222L92.708,111.222L93.274,111.222L93.876,111.222L95.105,111.222L95.731,111.222L96.409,111.222L96.956,111.222L97.552,111.222L98.78,111.222L99.407,111.222L100.06,111.222L100.631,111.222L101.234,111.222L102.465,111.222L103.086,111.222L103.738,111.222L104.304,111.222L104.911,111.222L106.142,111.222L106.765,111.222L107.417,111.222L107.985,111.222L108.591,111.222L109.82,111.222L110.436,111.222L111.086,111.222L111.659,111.222L112.272,111.222L113.502,111.222L114.117,111.222L114.764,111.222L115.338,111.222L115.952,111.222L117.188,111.222L117.808,111.222L118.466,111.222L119.033,111.222L119.635,111.222L120.865,111.222L121.492,111.222L122.145,111.222L122.712,111.222L123.316,111.222L124.547,111.222L125.169,111.222L125.826,111.222L126.393,111.222L126.995,111.222L128.226,111.222L128.848,111.222L129.505,111.222L130.071,111.222L130.676,111.222L131.907,111.222L132.528,111.222L133.184,111.222L133.753,111.222L134.354,111.222L135.584,111.222L136.202,111.222L136.853,111.222L137.422,111.222L138.033,111.222L139.266,111.222L139.879,111.222L140.532,111.222L141.105,111.222L141.715,111.222L142.948,111.222L143.574,111.222L144.229,111.222L144.788,111.222L145.398,111.222L146.627,111.222L147.252,111.222L147.907,111.222L148.477,111.222L149.078,111.222L150.308,111.222L150.933,111.222L151.588,111.222L152.16,111.222L152.756,111.222L153.989,111.222L154.615,111.222L155.271,111.222L155.839,111.222L156.435,111.222L157.667,111.222L158.293,111.222L158.947,111.222L159.515,111.222L160.116,111.222L161.347,111.222L161.961,111.222L162.612,111.222L163.186,111.222L163.796,111.222L165.027,111.222L165.641,111.222L166.294,111.222L166.863,111.222L167.476,111.222L168.711,111.222L169.338,111.222L169.993,111.222L170.544,111.222L171.158,111.222L172.39,111.222L173.019,111.222L173.673,111.222L174.236,111.222L174.839,111.222L176.072,111.222L176.697,111.222L177.354,111.222L177.918,111.222L178.519,111.222L179.748,111.222L180.371,111.222L181.024,111.222L181.598,111.222L182.198,111.222L183.427,111.222L184.051,111.222L184.703,111.222L185.276,111.222L185.877,111.222L187.106,111.222L187.723,111.222L188.373,111.222L188.948,111.222L189.557,111.222L190.784,111.222L191.401,111.222L192.054,111.222L192.628,111.222L193.238,111.222L194.47,111.222L195.095,111.222L195.752,111.222L196.319,111.222L196.922,111.222L198.15,111.222L198.774,111.222L199.432,111.222L199.999,111.222" stroke="#72b7b2" stroke-width="2"/></g></g><path class="foreground" aria-hidden="true" d="" display="none"/></g><g transform="translate(0,0)"><path class="background" aria-hidden="true" d="M0,0h200v200h-200Z"/><g><g class="mark-line role-mark marks" role="graphics-object" aria-roledescription="line mark container"><path aria-label="Time: Aug 27, 2025; Price: 1199; identifier: allure-rs-1-2023" role="graphics-symbol" aria-roledescription="line mark" d="M48.127,66.778L48.541,66.778L48.951,66.778L49.112,66.778L49.714,66.778L50.943,66.778L51.567,66.778L52.223,66.778L52.791,66.778L53.393,66.778L54.623,66.778L55.245,66.778L55.898,66.778L56.47,66.778L57.071,66.778L58.299,66.778L58.916,66.778L59.567,66.778L60.141,66.778L60.72,66.778L60.749,66.778L61.981,66.778L62.374,66.778L62.595,66.778L63.249,66.778L63.824,66.778L64.43,66.778L65.673,66.778L66.292,66.778L66.945,66.778L67.509,66.778L68.11,66.778L69.348,66.778L69.97,66.778L70.628,66.778L71.191,66.778L71.793,66.778L73.023,66.778L73.644,66.778L74.3,66.778L74.87,66.778L75.471,66.778L76.702,66.778L77.326,66.778L77.977,66.778L78.552,66.778L79.151,66.778L80.384,66.778L81.005,66.778L81.659,66.778L82.226,66.778L82.832,66.778L84.06,66.778L84.376,66.778L84.675,66.778L85.324,66.778L85.9,66.778L86.51,66.778L87.739,66.778L88.354,66.778L89.006,66.778L89.58,66.778L90.191,66.778L91.426,66.778L92.052,66.778L92.708,66.778L93.274,66.778L93.876,66.778L95.105,66.778L95.731,66.778L96.409,66.778L96.956,66.778L97.552,66.778L98.78,66.778L99.407,66.778L100.06,66.778L100.631,66.778L101.234,66.778L102.465,66.778L103.086,66.778L103.738,66.778L104.304,66.778L104.911,66.778L106.142,66.778L106.765,66.778L107.417,66.778L107.986,66.778L108.591,66.778L109.82,66.778L110.436,66.778L111.086,66.778L111.659,66.778L112.272,66.778L113.502,66.778L114.117,66.778L114.764,66.778L115.338,66.778L115.952,66.778L117.188,66.778L117.808,66.778L118.466,66.778L119.033,66.778L119.635,66.778L120.865,66.778L121.492,66.778L122.145,66.778L122.712,66.778L123.316,66.778L124.547,66.778L125.169,66.778L125.826,66.778L126.393,66.778L126.995,66.778L128.226,66.778L128.848,66.778L129.505,66.778L130.071,66.778L130.676,66.778L131.907,66.778L132.528,66.778L133.184,66.778L133.753,66.778L134.354,66.778L135.584,66.778L136.202,66.778L136.853,66.778L137.422,66.778L138.033,66.778L139.266,66.778L139.879,66.778L140.532,66.778L141.106,66.778L141.715,66.778L142.948,66.778L143.575,66.778L144.229,66.778L144.788,66.778L145.398,66.778L146.627,66.778L147.252,66.778L147.907,66.778L148.477,66.778L149.078,66.778L150.309,66.778L150.933,66.778L151.588,66.778L152.16,66.778L152.756,66.778L153.989,66.778L154.615,66.778L155.271,66.778L155.839,66.778L156.435,66.778L157.668,66.778L158.293,66.778L158.947,66.778L159.516,66.778L160.116,66.778L161.347,66.778L161.961,66.778L162.612,66.778L163.186,66.778L163.797,66.778L165.027,66.778L165.641,66.778L166.294,66.778L166.863,66.778L167.476,66.778L168.711,66.778L169.338,66.778L169.993,66.778L170.544,66.778L171.158,66.778L172.39,66.778L173.019,66.778L173.673,66.778L174.236,66.778L174.839,66.778L176.072,66.778L176.697,66.778L177.354,66.778L177.918,66.778L178.52,66.778L179.748,66.778L180.371,66.778L181.024,66.778L181.598,66.778L182.198,66.778L183.427,66.778L184.051,66.778L184.703,66.778L185.276,66.778L185.877,66.778L187.106,66.778L187.723,66.778L188.373,66.778L188.948,66.778L189.557,66.778L190.785,66.778L191.401,66.778L192.054,66.778L192.628,66.778L193.238,66.778L194.47,66.778L195.095,66.778L195.752,66.778L196.319,66.778L196.922,66.778L198.15,66.778L198.774,66.778L199.433,66.778L199.999,66.778" stroke="#b279a2" stroke-width="2"/></g></g><path class="foreground" aria-hidden="true" d="" display="none"/></g><g transform="translate(0,0)"><path class="background" aria-hidden="true" d="M0,0h200v200h-200Z"/><g><g class="mark-line role-mark marks" role="graphics-object" aria-roledescription="line mark container"><path aria-label="Time: Aug 27, 2025; Price: 999; identifier: allure-rs-2-2022" role="graphics-symbol" aria-roledescription="line mark" d="M48.128,89L48.541,89L48.951,89L49.112,89L49.714,89L50.943,89L51.567,89L52.223,89L52.792,89L53.393,89L54.624,89L55.245,89L55.899,89L56.47,89L57.071,89L60.72,111.222L60.749,111.222L61.981,111.222L62.374,111.222L62.595,111.222L63.249,111.222L63.824,111.222L64.43,111.222L65.673,111.222L66.292,111.222L66.945,111.222L67.509,111.222L68.11,111.222L69.348,111.222L69.97,111.222L70.628,111.222L71.191,111.222L71.793,111.222L73.023,111.222L73.644,111.222L74.3,111.222L74.87,111.222L75.472,111.222L76.702,111.222L77.326,111.222L77.977,111.222L78.553,111.222L79.151,111.222L80.384,111.222L81.005,111.222L81.659,111.222L82.226,111.222L82.832,111.222L84.06,111.222L84.376,111.222L84.675,111.222L85.324,111.222L85.9,111.222L86.511,111.222L87.739,111.222L88.354,111.222L89.006,111.222L89.58,111.222L90.191,111.222L91.426,111.222L92.052,111.222L92.708,111.222L93.274,111.222L93.876,111.222L95.105,111.222L95.731,111.222L96.409,111.222L96.956,111.222L97.552,111.222L98.78,111.222L99.407,111.222L100.06,111.222L100.631,111.222L101.234,111.222L102.465,111.222L103.086,111.222L103.738,111.222L104.304,111.222L104.911,111.222L106.142,111.222L106.765,111.222L107.417,111.222L107.986,111.222L108.591,111.222L109.82,111.222L110.436,111.222L111.086,111.222L111.659,111.222L112.272,111.222L113.502,111.222L114.117,111.222L114.764,111.222L115.338,111.222L115.952,111.222L117.188,111.222L117.808,111.222L118.466,111.222L119.033,111.222L119.635,111.222L120.865,111.222L121.492,111.222L122.146,111.222L122.712,111.222L123.316,111.222L124.547,111.222L125.169,111.222L125.826,111.222L126.393,111.222L126.995,111.222L128.226,111.222L128.848,111.222L129.505,111.222L130.071,111.222L130.676,111.222L131.907,111.222L132.529,111.222L133.184,111.222L133.753,111.222L134.354,111.222L135.584,111.222L136.202,111.222L136.853,111.222L137.422,111.222L138.033,111.222L139.266,111.222L139.879,111.222L140.532,111.222L141.106,111.222L141.715,111.222L142.948,111.222L143.575,111.222L144.23,111.222L144.788,111.222L145.398,111.222L146.627,111.222L147.252,111.222L147.907,111.222L148.477,111.222L149.078,111.222L150.309,111.222L150.933,111.222L151.588,111.222L152.16,111.222L152.756,111.222L153.989,111.222L154.615,111.222L155.271,111.222L155.839,111.222L156.435,111.222L157.668,111.222L158.293,111.222L158.947,111.222L159.516,111.222L160.116,111.222L161.347,111.222L161.961,111.222L162.612,111.222L163.186,111.222L163.797,111.222L165.027,111.222L165.641,111.222L166.294,111.222L166.863,111.222L167.476,111.222L168.711,111.222L169.338,111.222L169.993,111.222L170.544,111.222L171.158,111.222L172.39,111.222L173.02,111.222L173.673,111.222L174.237,111.222L174.839,111.222L176.072,111.222L176.697,111.222L177.354,111.222L177.918,111.222L178.52,111.222L179.748,111.222L180.371,111.222L181.024,111.222L181.598,111.222L182.198,111.222L183.427,111.222L184.051,111.222L184.703,111.222L185.276,111.222L185.877,111.222L187.106,111.222L187.723,111.222L188.373,111.222L188.948,111.222L189.557,111.222L190.785,111.222L191.401,111.222L192.054,111.222L192.628,111.222L193.238,111.222L194.47,111.222L195.095,111.222L195.752,111.222L196.32,111.222L196.922,111.222L198.15,111.222L198.774,111.222L199.433,111.222L199.999,111.222" stroke="#54a24b" stroke-width="2"/></g></g><path class="foreground" aria-hidden="true" d="" display="none"/></g><g transform="translate(0,0)"><path class="background" aria-hidden="true" d="M0,0h200v200h-200Z"/><g><g class="mark-line role-mark marks" role="graphics-object" aria-roledescription="line mark container"><path aria-label="Time: Aug 27, 2025; Price: 949; identifier: allure-rs-2-2023" role="graphics-symbol" aria-roledescription="line mark" d="M48.128,94.556L48.541,94.556L48.951,94.556L49.112,94.556L49.714,94.556L50.943,94.556L51.567,94.556L52.223,94.556L52.792,94.556L53.393,94.556L54.624,94.556L55.245,94.556L55.899,94.556L56.47,94.556L57.071,94.556L58.3,94.556L58.916,94.556L59.568,94.556L60.142,94.556L60.72,94.556L60.749,94.556L61.981,94.556L62.374,94.556L62.595,94.556L63.25,94.556L63.824,94.556L64.43,94.556L65.673,94.556L66.292,94.556L66.945,94.556L67.509,94.556L68.11,94.556L69.348,94.556L69.97,94.556L70.628,94.556L71.191,94.556L71.793,94.556L73.023,94.556L73.644,94.556L74.3,94.556L74.87,94.556L75.472,94.556L76.703,94.556L77.326,94.556L77.977,94.556L78.553,94.556L79.151,94.556L80.384,94.556L81.005,94.556L81.659,94.556L82.226,94.556L82.832,94.556L84.061,94.556L84.376,94.556L84.675,94.556L85.324,94.556L85.9,94.556L86.511,94.556L87.74,94.556L88.354,94.556L89.006,94.556L89.581,94.556L90.191,94.556L91.426,94.556L92.052,94.556L92.708,94.556L93.274,94.556L93.876,94.556L95.105,94.556L95.731,94.556L96.409,94.556L96.956,94.556L97.552,94.556L98.78,94.556L99.408,94.556L100.06,94.556L100.631,94.556L101.234,94.556L102.465,94.556L103.086,94.556L103.739,94.556L104.304,94.556L104.912,94.556L106.142,94.556L106.765,94.556L107.417,94.556L107.986,94.556L108.591,94.556L109.82,94.556L110.437,94.556L111.086,94.556L111.659,94.556L112.272,94.556L113.502,94.556L114.117,94.556L114.764,94.556L115.338,94.556L115.952,94.556L117.188,94.556L117.809,94.556L118.466,94.556L119.034,94.556L119.635,94.556L120.865,94.556L121.492,94.556L122.146,94.556L122.712,94.556L123.316,94.556L124.547,94.556L125.169,94.556L125.826,94.556L126.393,94.556L126.995,94.556L128.227,94.556L128.848,94.556L129.505,94.556L130.071,94.556L130.676,94.556L131.907,94.556L132.529,94.556L133.184,94.556L133.753,94.556L134.354,94.556L135.584,94.556L136.202,94.556L136.853,94.556L137.422,94.556L138.033,94.556L139.266,94.556L139.879,94.556L140.532,94.556L141.106,94.556L141.715,94.556L142.948,94.556L143.575,94.556L144.23,94.556L144.788,94.556L145.398,94.556L146.627,94.556L147.252,94.556L147.907,94.556L148.477,94.556L149.078,94.556L150.309,94.556L150.933,94.556L151.588,94.556L152.16,94.556L152.756,94.556L153.989,94.556L154.615,94.556L155.271,94.556L155.839,94.556L156.435,94.556L157.668,94.556L158.293,94.556L158.947,94.556L159.516,94.556L160.116,94.556L161.347,94.556L161.961,94.556L162.612,94.556L163.186,94.556L163.797,94.556L165.028,94.556L165.641,94.556L166.294,94.556L166.864,94.556L167.476,94.556L168.711,94.556L169.338,94.556L169.993,94.556L170.544,94.556L171.158,94.556L172.39,94.556L173.02,94.556L173.673,94.556L174.237,94.556L174.839,94.556L176.072,94.556L176.697,94.556L177.354,94.556L177.918,94.556L178.52,94.556L179.748,94.556L180.371,94.556L181.024,94.556L181.598,94.556L182.198,94.556L183.427,94.556L184.051,94.556L184.703,94.556L185.276,94.556L185.877,94.556L187.106,94.556L187.723,94.556L188.373,94.556L188.948,94.556L189.557,94.556L190.785,94.556L191.401,94.556L192.055,94.556L192.628,94.556L193.238,94.556L194.47,94.556L195.095,94.556L195.752,94.556L196.32,94.556L196.922,94.556L198.15,94.556L198.774,94.556L199.433,94.556L199.999,94.556" stroke="#bab0ac" stroke-width="2"/></g></g><path class="foreground" aria-hidden="true" d="" display="none"/></g><g transform="translate(0,0)"><path class="background" aria-hidden="true" d="M0,0h200v200h-200Z"/><g><g class="mark-line role-mark marks" role="graphics-object" aria-roledescription="line mark container"><path aria-label="Time: Aug 27, 2025; Price: 999; identifier: allure-rs-2-2024" role="graphics-symbol" aria-roledescription="line mark" d="M48.128,89L48.541,89L48.951,89L49.112,89L49.714,89L50.943,89L51.567,89L52.223,89L52.792,89L53.393,89L54.624,89L55.245,89L55.899,89L56.47,89L57.071,89L60.721,111.222L60.749,111.222L61.981,111.222L62.374,111.222L62.595,111.222L63.25,111.222L63.824,111.222L64.431,111.222L65.673,111.222L66.292,111.222L66.945,111.222L67.509,111.222L68.11,111.222L69.348,111.222L69.97,111.222L70.628,111.222L71.191,111.222L71.793,111.222L73.023,111.222L73.644,111.222L74.3,111.222L74.87,111.222L75.472,111.222L76.703,111.222L77.326,111.222L77.977,111.222L78.553,111.222L79.151,111.222L80.384,111.222L81.005,111.222L81.659,111.222L82.226,111.222L82.833,111.222L84.061,111.222L84.376,111.222L84.675,111.222L85.324,111.222L85.9,111.222L86.511,111.222L87.74,111.222L88.355,111.222L89.006,111.222L89.581,111.222L90.191,111.222L91.426,111.222L92.052,111.222L92.709,111.222L93.274,111.222L93.877,111.222L95.105,111.222L95.731,111.222L96.41,111.222L96.957,111.222L97.553,111.222L98.78,111.222L99.408,111.222L100.06,111.222L100.631,111.222L101.235,111.222L102.465,111.222L103.086,111.222L103.739,111.222L104.304,111.222L104.912,111.222L106.143,111.222L106.765,111.222L107.417,111.222L107.986,111.222L108.592,111.222L109.82,111.222L110.437,111.222L111.086,111.222L111.659,111.222L112.272,111.222L113.502,111.222L114.117,111.222L114.764,111.222L115.338,111.222L115.952,111.222L117.188,111.222L117.809,111.222L118.467,111.222L119.034,111.222L119.635,111.222L120.865,111.222L121.492,111.222L122.146,111.222L122.712,111.222L123.316,111.222L124.547,111.222L125.169,111.222L125.826,111.222L126.393,111.222L126.995,111.222L128.227,111.222L128.848,111.222L129.505,111.222L130.071,111.222L130.676,111.222L131.907,111.222L132.529,111.222L133.184,111.222L133.753,111.222L134.354,111.222L135.584,111.222L136.202,111.222L136.853,111.222L137.422,111.222L138.033,111.222L139.266,111.222L139.879,111.222L140.532,111.222L141.106,111.222L141.715,111.222L142.948,111.222L143.575,111.222L144.23,111.222L144.788,111.222L145.399,111.222L146.627,111.222L147.252,111.222L147.907,111.222L148.477,111.222L149.078,111.222L150.309,111.222L150.934,111.222L151.588,111.222L152.16,111.222L152.756,111.222L153.989,111.222L154.615,111.222L155.271,111.222L155.839,111.222L156.436,111.222L157.668,111.222L158.293,111.222L158.947,111.222L159.516,111.222L160.116,111.222L161.347,111.222L161.961,111.222L162.612,111.222L163.186,111.222L163.797,111.222L165.028,111.222L165.642,111.222L166.294,111.222L166.864,111.222L167.476,111.222L168.711,111.222L169.338,111.222L169.993,111.222L170.544,111.222L171.158,111.222L172.39,111.222L173.02,111.222L173.673,111.222L174.237,111.222L174.839,111.222L176.072,111.222L176.697,111.222L177.354,111.222L177.919,111.222L178.52,111.222L179.748,111.222L180.371,111.222L181.024,111.222L181.598,111.222L182.198,111.222L183.427,111.222L184.051,111.222L184.703,111.222L185.276,111.222L185.877,111.222L187.106,111.222L187.724,111.222L188.373,111.222L188.948,111.222L189.557,111.222L190.785,111.222L191.402,111.222L192.055,111.222L192.628,111.222L193.238,111.222L194.47,111.222L195.095,111.222L195.752,111.222L196.32,111.222L196.922,111.222L198.15,111.222L198.774,111.222L199.433,111.222L200,111.222" stroke="#eeca3b" stroke-width="2"/></g></g><path class="foreground" aria-hidden="true" d="" display="none"/></g><g transform="translate(0,0)"><path class="background" aria-hidden="true" d="M0,0h200v200h-200Z"/><g><g class="mark-line role-mark marks" role="graphics-object" aria-roledescription="line mark container"><path aria-label="Time: Aug 27, 2025; Price: 1799; identifier: devote-1-2024" role="graphics-symbol" aria-roledescription="line mark" d="M48.951,0.111L49.112,0.111L49.714,0.111L50.943,0.111L51.567,0.111L52.223,0.111L52.792,0.111L53.393,0.111L54.624,0.111L55.245,0.111L55.899,0.111L56.47,0.111L57.071,0.111L60.721,44.556L60.749,44.556L61.982,44.556L62.375,44.556L62.595,44.556L63.25,44.556L63.824,44.556L64.431,44.556L65.674,44.556L66.292,44.556L66.945,44.556L67.509,44.556L68.11,44.556L69.348,44.556L69.97,44.556L70.628,44.556L71.191,44.556L71.793,44.556L73.023,44.556L73.644,44.556L74.3,44.556L74.87,44.556L75.472,44.556L76.703,44.556L77.326,44.556L77.977,44.556L78.553,44.556L79.151,44.556L80.384,44.556L81.005,44.556L81.659,44.556L82.226,44.556L82.833,44.556L84.061,44.556L84.376,44.556L84.675,44.556L85.324,44.556L85.9,44.556L86.511,44.556L87.74,44.556L88.355,44.556L89.007,44.556L89.581,44.556L90.191,44.556L91.426,44.556L92.052,44.556L92.709,44.556L93.274,44.556L93.877,44.556L95.105,44.556L95.731,44.556L96.41,44.556L96.957,44.556L97.553,44.556L98.78,44.556L99.408,44.556L100.06,44.556L100.631,44.556L101.235,44.556L102.465,44.556L103.086,44.556L103.739,44.556L104.304,44.556L104.912,44.556L106.143,44.556L106.765,44.556L107.417,44.556L107.986,44.556L108.592,44.556L109.821,44.556L110.437,44.556L111.087,44.556L111.659,44.556L112.272,44.556L113.502,44.556L114.117,44.556L114.764,44.556L115.338,44.556L115.953,44.556L117.188,44.556L117.809,44.556L118.467,44.556L119.035,44.556L119.636,44.556L120.866,44.556L121.492,44.556L122.146,44.556L122.712,44.556L123.316,44.556L124.547,44.556L125.169,44.556L125.826,44.556L126.393,44.556L126.996,44.556L128.227,44.556L128.848,44.556L129.505,44.556L130.071,44.556L130.676,44.556L131.907,44.556L132.529,44.556L133.184,44.556L133.754,44.556L134.354,44.556L135.585,44.556L136.202,44.556L136.853,44.556L137.422,44.556L138.033,44.556L139.266,44.556L139.88,44.556L140.532,44.556L141.106,44.556L141.715,44.556L142.948,44.556L143.575,44.556L144.23,44.556L144.789,44.556L145.399,44.556L146.628,44.556L147.252,44.556L147.907,44.556L148.477,44.556L149.079,44.556L150.309,44.556L150.934,44.556L151.588,44.556L152.16,44.556L152.756,44.556L153.989,44.556L154.615,44.556L155.271,44.556L155.839,44.556L156.436,44.556L157.668,44.556L158.293,44.556L158.947,44.556L159.516,44.556L160.116,44.556L161.347,44.556L161.961,44.556L162.613,44.556L163.186,44.556L163.797,44.556L165.028,44.556L165.642,44.556L166.294,44.556L166.864,44.556L167.476,44.556L168.712,44.556L169.338,44.556L169.993,44.556L170.544,44.556L171.159,44.556L172.39,44.556L173.02,44.556L173.673,44.556L174.237,44.556L174.839,44.556L176.073,44.556L176.697,44.556L177.354,44.556L177.919,44.556L178.52,44.556L179.748,44.556L180.371,44.556L181.025,44.556L181.598,44.556L182.198,44.556L183.427,44.556L184.051,44.556L184.703,44.556L185.276,44.556L185.877,44.556L187.106,44.556L187.724,44.556L188.373,44.556L188.948,44.556L189.557,44.556L190.785,44.556L191.402,44.556L192.055,44.556L192.628,44.556L193.238,44.556L194.47,44.556L195.096,44.556L195.752,44.556L196.32,44.556L196.922,44.556L198.15,44.556L198.774,44.556L199.433,44.556L200,44.556" stroke="#72b7b2" stroke-width="2"/></g></g><path class="foreground" aria-hidden="true" d="" display="none"/></g><g transform="translate(0,0)"><path class="background" aria-hidden="true" d="M0,0h200v200h-200Z"/><g><g class="mark-line role-mark marks" role="graphics-object" aria-roledescription="line mark container"><path aria-label="Time: Aug 27, 2025; Price: 1699; identifier: devote-1-2022" role="graphics-symbol" aria-roledescription="line mark" d="M48.951,11.222L49.112,11.222L49.714,11.222L50.943,11.222L51.568,11.222L52.223,11.222L52.792,11.222L53.393,11.222L54.624,11.222L55.245,11.222L55.899,11.222L56.47,11.222L57.071,11.222L58.3,11.222L58.917,11.222L59.568,11.222L60.142,11.222L60.721,11.222L60.749,11.222L61.982,11.222L62.375,11.222L62.595,11.222L63.25,11.222L63.824,11.222L64.431,11.222L65.674,11.222L66.292,11.222L66.945,11.222L67.509,11.222L68.11,11.222L69.348,11.222L69.97,11.222L70.628,11.222L71.191,11.222L71.793,11.222L73.023,11.222L73.644,11.222L74.3,11.222L74.87,11.222L75.472,11.222L76.703,11.222L77.326,11.222L77.977,11.222L78.553,11.222L79.151,11.222L80.384,11.222L81.005,11.222L81.659,11.222L82.226,11.222L82.833,11.222L84.061,11.222L84.376,11.222L84.675,11.222L85.324,11.222L85.9,11.222L86.511,11.222L87.74,11.222L88.355,11.222L89.007,11.222L89.581,11.222L90.191,11.222L91.426,11.222L92.052,11.222L92.709,11.222L93.274,11.222L93.877,11.222L95.105,11.222L95.731,11.222L96.41,11.222L96.957,11.222L97.553,11.222L98.78,11.222L99.408,11.222L100.06,11.222L100.631,11.222L101.235,11.222L102.465,11.222L103.087,11.222L103.739,11.222L104.304,11.222L104.912,11.222L106.143,11.222L106.766,11.222L107.418,11.222L107.986,11.222L108.592,11.222L109.821,11.222L110.437,11.222L111.087,11.222L111.659,11.222L112.272,11.222L113.502,11.222L114.117,11.222L114.764,11.222L115.338,11.222L115.953,11.222L117.188,11.222L117.809,11.222L118.467,11.222L119.035,11.222L119.637,11.222L120.866,11.222L121.492,11.222L122.146,11.222L122.712,11.222L123.316,11.222L124.547,11.222L125.169,11.222L125.826,11.222L126.393,11.222L126.996,11.222L128.227,11.222L128.849,11.222L129.506,11.222L130.071,11.222L130.676,11.222L131.907,11.222L132.529,11.222L133.184,11.222L133.754,11.222L134.354,11.222L135.585,11.222L136.202,11.222L136.853,11.222L137.423,11.222L138.033,11.222L139.266,11.222L139.88,11.222L140.532,11.222L141.106,11.222L141.715,11.222L142.948,11.222L143.575,11.222L144.23,11.222L144.789,11.222L145.399,11.222L146.628,11.222L147.252,11.222L147.907,11.222L148.477,11.222L149.079,11.222L150.309,11.222L150.934,11.222L151.588,11.222L152.16,11.222L152.756,11.222L153.989,11.222L154.615,11.222L155.271,11.222L155.839,11.222L156.436,11.222L157.668,11.222L158.293,11.222L158.947,11.222L159.516,11.222L160.116,11.222L161.347,11.222L161.961,11.222L162.613,11.222L163.186,11.222L163.797,11.222L165.028,11.222L165.642,11.222L166.294,11.222L166.864,11.222L167.476,11.222L168.712,11.222L169.338,11.222L169.993,11.222L170.544,11.222L171.159,11.222L172.39,11.222L173.02,11.222L173.673,11.222L174.237,11.222L174.839,11.222L176.073,11.222L176.697,11.222L177.354,11.222L177.919,11.222L178.52,11.222L179.748,11.222L180.371,11.222L181.025,11.222L181.598,11.222L182.198,11.222L183.427,11.222L184.051,11.222L184.703,11.222L185.276,11.222L185.878,11.222L187.106,11.222L187.724,11.222L188.373,11.222L188.949,11.222L189.558,11.222L190.785,11.222L191.402,11.222L192.055,11.222L192.628,11.222L193.238,11.222L194.47,11.222L195.096,11.222L195.752,11.222L196.32,11.222L196.922,11.222L198.15,11.222L198.774,11.222L199.433,11.222L200,11.222" stroke="#4c78a8" stroke-width="2"/></g></g><path class="foreground" aria-hidden="true" d="" display="none"/></g><g transform="translate(0,0)"><path class="background" aria-hidden="true" d="M0,0h200v200h-200Z"/><g><g class="mark-line role-mark marks" role="graphics-object" aria-roledescription="line mark container"><path aria-label="Time: Aug 31, 2025; Price: 1599; identifier: silex-400-oak-bork-2026" role="graphics-symbol" aria-roledescription="line mark" d="M62.375,22.333L62.596,22.333L63.25,22.333L63.824,22.333L64.431,22.333L65.674,22.333L66.292,22.333L66.946,22.333L67.509,22.333L68.11,22.333L69.348,22.333L69.97,22.333L70.628,22.333L71.192,22.333L71.793,22.333L73.024,22.333L73.645,22.333L74.3,22.333L74.87,22.333L75.472,22.333L76.703,22.333L77.326,22.333L77.977,22.333L78.553,22.333L79.152,22.333L80.385,22.333L81.006,22.333L81.659,22.333L82.226,22.333L82.833,22.333L84.061,22.333L84.376,22.333L84.675,22.333L85.324,22.333L85.9,22.333L86.511,22.333L87.74,22.333L88.355,22.333L89.007,22.333L89.581,22.333L90.191,22.333L91.427,22.333L92.053,22.333L92.709,22.333L93.274,22.333L93.877,22.333L95.105,22.333L95.731,22.333L96.41,22.333L96.957,22.333L97.553,22.333L98.78,22.333L99.408,22.333L100.06,22.333L100.631,22.333L101.235,22.333L102.466,22.333L103.087,22.333L103.739,22.333L104.304,22.333L104.912,22.333L106.143,22.333L106.766,22.333L107.418,22.333L107.986,22.333L108.592,22.333L109.821,22.333L110.437,22.333L111.087,22.333L111.659,22.333L112.273,22.333L113.502,22.333L114.117,22.333L114.764,22.333L115.338,22.333L115.953,22.333L117.189,22.333L117.809,22.333L118.467,22.333L119.035,22.333L119.637,22.333L120.866,22.333L121.492,22.333L122.146,22.333L122.712,22.333L123.316,22.333L124.547,22.333L125.169,22.333L125.827,22.333L126.394,22.333L126.996,22.333L128.227,22.333L128.849,22.333L129.506,22.333L130.072,22.333L130.677,22.333L131.907,22.333L132.529,22.333L133.184,22.333L133.754,22.333L134.354,22.333L135.585,22.333L136.203,22.333L136.854,22.333L137.423,22.333L138.033,22.333L139.266,22.333L139.88,22.333L140.533,22.333L141.106,22.333L141.716,22.333L142.949,22.333L143.575,22.333L144.23,22.333L144.789,22.333L145.399,22.333L146.628,22.333L147.252,22.333L147.907,22.333L148.478,22.333L149.079,22.333L150.309,22.333L150.934,22.333L151.589,22.333L152.16,22.333L152.756,22.333L153.99,22.333L154.615,22.333L155.272,22.333L155.84,22.333L156.436,22.333L157.668,22.333L158.294,22.333L158.947,22.333L159.516,22.333L160.117,22.333L161.348,22.333L161.961,22.333L162.613,22.333L163.186,22.333L163.798,22.333L165.028,22.333L165.642,22.333L166.295,22.333L166.864,22.333L167.476,22.333L168.712,22.333L169.338,22.333L169.994,22.333L170.544,22.333L171.159,22.333L172.39,22.333L173.02,22.333L173.673,22.333L174.237,22.333L174.84,22.333L176.073,22.333L176.697,22.333L177.354,22.333L177.919,22.333L178.52,22.333L179.748,22.333L180.371,22.333L181.025,22.333L181.598,22.333L182.198,22.333L183.427,22.333L184.051,22.333L184.703,22.333L185.276,22.333L185.878,22.333L187.107,22.333L187.724,22.333L188.374,22.333L188.949,22.333L189.558,22.333L190.785,22.333L191.402,22.333L192.055,22.333L192.629,22.333L193.239,22.333L194.471,22.333L195.096,22.333L195.752,22.333L196.32,22.333L196.922,22.333L198.15,22.333L198.775,22.333L199.433,22.333L200,22.333" stroke="#f58518" stroke-width="2"/></g></g><path class="foreground" aria-hidden="true" d="" display="none"/></g><g transform="translate(0,0)"><path class="background" aria-hidden="true" d="M0,0h200v200h-200Z"/><g><g class="mark-line role-mark marks" role="graphics-object" aria-roledescription="line mark container"><path aria-label="Time: Aug 31, 2025; Price: 1599; identifier: silex-400-warm-slate-grey-2026" role="graphics-symbol" aria-roledescription="line mark" d="M62.375,22.333L62.596,22.333L63.25,22.333L63.824,22.333L64.431,22.333L65.674,22.333L66.293,22.333L66.946,22.333L67.509,22.333L68.111,22.333L69.348,22.333L69.97,22.333L70.628,22.333L71.192,22.333L71.793,22.333L73.024,22.333L73.645,22.333L74.3,22.333L74.87,22.333L75.472,22.333L76.703,22.333L77.327,22.333L77.977,22.333L78.553,22.333L79.152,22.333L80.385,22.333L81.006,22.333L81.659,22.333L82.227,22.333L82.833,22.333L84.061,22.333L84.377,22.333L84.675,22.333L85.325,22.333L85.9,22.333L86.511,22.333L87.74,22.333L88.355,22.333L89.007,22.333L89.581,22.333L90.191,22.333L91.427,22.333L92.053,22.333L92.709,22.333L93.274,22.333L93.877,22.333L95.105,22.333L95.731,22.333L96.41,22.333L96.957,22.333L97.553,22.333L98.781,22.333L99.408,22.333L100.061,22.333L100.631,22.333L101.235,22.333L102.466,22.333L103.087,22.333L103.739,22.333L104.304,22.333L104.912,22.333L106.143,22.333L106.766,22.333L107.418,22.333L107.986,22.333L108.592,22.333L109.821,22.333L110.437,22.333L111.087,22.333L111.66,22.333L112.273,22.333L113.503,22.333L114.118,22.333L114.765,22.333L115.339,22.333L115.953,22.333L117.189,22.333L117.809,22.333L118.467,22.333L119.035,22.333L119.637,22.333L120.866,22.333L121.493,22.333L122.146,22.333L122.713,22.333L123.316,22.333L124.547,22.333L125.17,22.333L125.827,22.333L126.394,22.333L126.996,22.333L128.227,22.333L128.849,22.333L129.506,22.333L130.072,22.333L130.677,22.333L131.907,22.333L132.529,22.333L133.185,22.333L133.754,22.333L134.355,22.333L135.585,22.333L136.203,22.333L136.854,22.333L137.423,22.333L138.034,22.333L139.267,22.333L139.88,22.333L140.533,22.333L141.106,22.333L141.716,22.333L142.949,22.333L143.575,22.333L144.23,22.333L144.789,22.333L145.399,22.333L146.628,22.333L147.252,22.333L147.907,22.333L148.478,22.333L149.079,22.333L150.309,22.333L150.934,22.333L151.59,22.333L152.16,22.333L152.757,22.333L153.99,22.333L154.616,22.333L155.272,22.333L155.84,22.333L156.436,22.333L157.668,22.333L158.294,22.333L158.948,22.333L159.516,22.333L160.117,22.333L161.348,22.333L161.961,22.333L162.613,22.333L163.187,22.333L163.798,22.333L165.028,22.333L165.642,22.333L166.295,22.333L166.864,22.333L167.476,22.333L168.712,22.333L169.338,22.333L169.994,22.333L170.544,22.333L171.159,22.333L172.391,22.333L173.02,22.333L173.673,22.333L174.237,22.333L174.84,22.333L176.073,22.333L176.698,22.333L177.354,22.333L177.919,22.333L178.52,22.333L179.748,22.333L180.371,22.333L181.025,22.333L181.598,22.333L182.198,22.333L183.428,22.333L184.052,22.333L184.704,22.333L185.277,22.333L185.878,22.333L187.107,22.333L187.724,22.333L188.374,22.333L188.949,22.333L189.558,22.333L190.785,22.333L191.402,22.333L192.055,22.333L192.629,22.333L193.239,22.333L194.471,22.333L195.096,22.333L195.752,22.333L196.32,22.333L196.922,22.333L198.15,22.333L198.775,22.333L199.433,22.333L200,22.333" stroke="#e45756" stroke-width="2"/></g></g><path class="foreground" aria-hidden="true" d="" display="none"/></g></g><g class="mark-group role-legend" role="graphics-symbol" aria-roledescription="legend" aria-label="Symbol legend titled 'identifier' for stroke color with 16 values: devote-1-2022, silex-400-oak-bork-2026, silex-400-warm-slate-grey-2026, devote-1-2024, fastroad-ar-2, ending with allure-rs-2-2024"><g transform="translate(220,0)"><path class="background" aria-hidden="true" d="M0,0h256v222h-256Z" pointer-events="none"/><g><g class="mark-group role-legend-entry"><g transform="translate(0,16)"><path class="background" aria-hidden="true" d="M0,0h0v0h0Z" pointer-events="none"/><g><g class="mark-group role-scope" role="graphics-object" aria-roledescription="group mark container"><g transform="translate(0,0)"><path class="background" aria-hidden="true" d="M0,0h256v11h-256Z" pointer-events="none" opacity="1"/><g><g class="mark-symbol role-legend-symbol" pointer-events="none"><path transform="translate(6,6)" d="M-5,0L5,0" stroke="#4c78a8" stroke-width="1.5" opacity="1"/></g><g class="mark-text role-legend-label" pointer-events="none"><text text-anchor="start" transform="translate(16,9)" font-family="Liberation Mono" font-size="10px" fill="#000" opacity="1">devote-1-2022</text></g></g><path class="foreground" aria-hidden="true" d="" pointer-events="none" display="none"/></g><g transform="translate(0,13)"><path class="background" aria-hidden="true" d="M0,0h256v11h-256Z" pointer-events="none" opacity="1"/><g><g class="mark-symbol role-legend-symbol" pointer-events="none"><path transform="translate(6,6)" d="M-5,0L5,0" stroke="#f58518" stroke-width="1.5" opacity="1"/></g><g class="mark-text role-legend-label" pointer-events="none"><text text-anchor="start" transform="translate(16,9)" font-family="Liberation Mono" font-size="10px" fill="#000" opacity="1">silex-400-oak-bork-2026</text></g></g><path class="foreground" aria-hidden="true" d="" pointer-events="none" display="none"/></g><g transform="translate(0,26)"><path class="background" aria-hidden="true" d="M0,0h256v11h-256Z" pointer-events="none" opacity="1"/><g><g class="mark-symbol role-legend-symbol" pointer-events="none"><path transform="translate(6,6)" d="M-5,0L5,0" stroke="#e45756" stroke-width="1.5" opacity="1"/></g><g class="mark-text role-legend-label" pointer-events="none"><text text-anchor="start" transform="translate(16,9)" font-family="Liberation Mono" font-size="10px" fill="#000" opacity="1">silex-400-warm-slate-grey-2026</text></g></g><path class="foreground" aria-hidden="true" d="" pointer-events="none" display="none"/></g><g transform="translate(0,39)"><path class="background" aria-hidden="true" d="M0,0h256v11h-256Z" pointer-events="none" opacity="1"/><g><g class="mark-symbol role-legend-symbol" pointer-events="none"><path transform="translate(6,6)" d="M-5,0L5,0" stroke="#72b7b2" stroke-width="1.5" opacity="1"/></g><g class="mark-text role-legend-label" pointer-events="none"><text text-anchor="start" transform="translate(16,9)" font-family="Liberation Mono" font-size="10px" fill="#000" opacity="1">devote-1-2024</text></g></g><path class="foreground" aria-hidden="true" d="" pointer-events="none" display="none"/></g><g transform="translate(0,52)"><path class="background" aria-hidden="true" d="M0,0h256v11h-256Z" pointer-events="none" opacity="1"/><g><g class="mark-symbol role-legend-symbol" pointer-events="none"><path transform="translate(6,6)" d="M-5,0L5,0" stroke="#54a24b" stroke-width="1.5" opacity="1"/></g><g class="mark-text role-legend-label" pointer-events="none"><text text-anchor="start" transform="translate(16,9)" font-family="Liberation Mono" font-size="10px" fill="#000" opacity="1">fastroad-ar-2</text></g></g><path class="foreground" aria-hidden="true" d="" pointer-events="none" display="none"/></g><g transform="translate(0,65)"><path class="background" aria-hidden="true" d="M0,0h256v11h-256Z" pointer-events="none" opacity="1"/><g><g class="mark-symbol role-legend-symbol" pointer-events="none"><path transform="translate(6,6)" d="M-5,0L5,0" stroke="#eeca3b" stroke-width="1.5" opacity="1"/></g><g class="mark-text role-legend-label" pointer-events="none"><text text-anchor="start" transform="translate(16,9)" font-family="Liberation Mono" font-size="10px" fill="#000" opacity="1">thrive-2</text></g></g><path class="foreground" aria-hidden="true" d="" pointer-events="none" display="none"/></g><g transform="translate(0,78)"><path class="background" aria-hidden="true" d="M0,0h256v11h-256Z" pointer-events="none" opacity="1"/><g><g class="mark-symbol role-legend-symbol" pointer-events="none"><path transform="translate(6,6)" d="M-5,0L5,0" stroke="#b279a2" stroke-width="1.5" opacity="1"/></g><g class="mark-text role-legend-label" pointer-events="none"><text text-anchor="start" transform="translate(16,9)" font-family="Liberation Mono" font-size="10px" fill="#000" opacity="1">allure-rs-1-2023</text></g></g><path class="foreground" aria-hidden="true" d="" pointer-events="none" display="none"/></g><g transform="translate(0,91)"><path class="background" aria-hidden="true" d="M0,0h256v11h-256Z" pointer-events="none" opacity="1"/><g><g class="mark-symbol role-legend-symbol" pointer-events="none"><path transform="translate(6,6)" d="M-5,0L5,0" stroke="#ff9da6" stroke-width="1.5" opacity="1"/></g><g class="mark-text role-legend-label" pointer-events="none"><text text-anchor="start" transform="translate(16,9)" font-family="Liberation Mono" font-size="10px" fill="#000" opacity="1">roam-2</text></g></g><path class="foreground" aria-hidden="true" d="" pointer-events="none" display="none"/></g><g transform="translate(0,104)"><path class="background" aria-hidden="true" d="M0,0h256v11h-256Z" pointer-events="none" opacity="1"/><g><g class="mark-symbol role-legend-symbol" pointer-events="none"><path transform="translate(6,6)" d="M-5,0L5,0" stroke="#9d755d" stroke-width="1.5" opacity="1"/></g><g class="mark-text role-legend-label" pointer-events="none"><text text-anchor="start" transform="translate(16,9)" font-family="Liberation Mono" font-size="10px" fill="#000" opacity="1">fastroad-sl-3-2022</text></g></g><path class="foreground" aria-hidden="true" d="" pointer-events="none" display="none"/></g><g transform="translate(0,117)"><path class="background" aria-hidden="true" d="M0,0h256v11h-256Z" pointer-events="none" opacity="1"/><g><g class="mark-symbol role-legend-symbol" pointer-events="none"><path transform="translate(6,6)" d="M-5,0L5,0" stroke="#bab0ac" stroke-width="1.5" opacity="1"/></g><g class="mark-text role-legend-label" pointer-events="none"><text text-anchor="start" transform="translate(16,9)" font-family="Liberation Mono" font-size="10px" fill="#000" opacity="1">allure-rs-2-2023</text></g></g><path class="foreground" aria-hidden="true" d="" pointer-events="none" display="none"/></g><g transform="translate(0,130)"><path class="background" aria-hidden="true" d="M0,0h256v11h-256Z" pointer-events="none" opacity="1"/><g><g class="mark-symbol role-legend-symbol" pointer-events="none"><path transform="translate(6,6)" d="M-5,0L5,0" stroke="#4c78a8" stroke-width="1.5" opacity="1"/></g><g class="mark-text role-legend-label" pointer-events="none"><text text-anchor="start" transform="translate(16,9)" font-family="Liberation Mono" font-size="10px" fill="#000" opacity="1">escape-city-disc-1-2024</text></g></g><path class="foreground" aria-hidden="true" d="" pointer-events="none" display="none"/></g><g transform="translate(0,143)"><path class="background" aria-hidden="true" d="M0,0h256v11h-256Z" pointer-events="none" opacity="1"/><g><g class="mark-symbol role-legend-symbol" pointer-events="none"><path transform="translate(6,6)" d="M-5,0L5,0" stroke="#f58518" stroke-width="1.5" opacity="1"/></g><g class="mark-text role-legend-label" pointer-events="none"><text text-anchor="start" transform="translate(16,9)" font-family="Liberation Mono" font-size="10px" fill="#000" opacity="1">sdrbike-escape-1-city-disc</text></g></g><path class="foreground" aria-hidden="true" d="" pointer-events="none" display="none"/></g><g transform="translate(0,156)"><path class="background" aria-hidden="true" d="M0,0h256v11h-256Z" pointer-events="none" opacity="1"/><g><g class="mark-symbol role-legend-symbol" pointer-events="none"><path transform="translate(6,6)" d="M-5,0L5,0" stroke="#e45756" stroke-width="1.5" opacity="1"/></g><g class="mark-text role-legend-label" pointer-events="none"><text text-anchor="start" transform="translate(16,9)" font-family="Liberation Mono" font-size="10px" fill="#000" opacity="1">roam-disc-2-2024</text></g></g><path class="foreground" aria-hidden="true" d="" pointer-events="none" display="none"/></g><g transform="translate(0,169)"><path class="background" aria-hidden="true" d="M0,0h256v11h-256Z" pointer-events="none" opacity="1"/><g><g class="mark-symbol role-legend-symbol" pointer-events="none"><path transform="translate(6,6)" d="M-5,0L5,0" stroke="#72b7b2" stroke-width="1.5" opacity="1"/></g><g class="mark-text role-legend-label" pointer-events="none"><text text-anchor="start" transform="translate(16,9)" font-family="Liberation Mono" font-size="10px" fill="#000" opacity="1">rove-2</text></g></g><path class="foreground" aria-hidden="true" d="" pointer-events="none" display="none"/></g><g transform="translate(0,182)"><path class="background" aria-hidden="true" d="M0,0h256v11h-256Z" pointer-events="none" opacity="1"/><g><g class="mark-symbol role-legend-symbol" pointer-events="none"><path transform="translate(6,6)" d="M-5,0L5,0" stroke="#54a24b" stroke-width="1.5" opacity="1"/></g><g class="mark-text role-legend-label" pointer-events="none"><text text-anchor="start" transform="translate(16,9)" font-family="Liberation Mono" font-size="10px" fill="#000" opacity="1">allure-rs-2-2022</text></g></g><path class="foreground" aria-hidden="true" d="" pointer-events="none" display="none"/></g><g transform="translate(0,195)"><path class="background" aria-hidden="true" d="M0,0h256v11h-256Z" pointer-events="none" opacity="1"/><g><g class="mark-symbol role-legend-symbol" pointer-events="none"><path transform="translate(6,6)" d="M-5,0L5,0" stroke="#eeca3b" stroke-width="1.5" opacity="1"/></g><g class="mark-text role-legend-label" pointer-events="none"><text text-anchor="start" transform="translate(16,9)" font-family="Liberation Mono" font-size="10px" fill="#000" opacity="1">allure-rs-2-2024</text></g></g><path class="foreground" aria-hidden="true" d="" pointer-events="none" display="none"/></g></g></g><path class="foreground" aria-hidden="true" d="" pointer-events="none" display="none"/></g></g><g class="mark-text role-legend-title" pointer-events="none"><text text-anchor="start" transform="translate(0,9)" font-family="Liberation Mono" font-size="11px" font-weight="bold" fill="#000" opacity="1">identifier</text></g></g><path class="foreground" aria-hidden="true" d="" pointer-events="none" display="none"/></g></g></g><path class="foreground" aria-hidden="true" d="" display="none"/></g></g></g></svg>