<svg xmlns="http://www.w3.org/2000/svg" xmlns:xlink="http://www.w3.org/1999/xlink" version="1.1" class="marks" width="548" height="244" viewBox="0 0 548 244"><rect width="548" height="244" fill="white"/><g fill="none" stroke-miterlimit="10" transform="translate(67,7)"><g class="mark-group role-frame root" role="graphics-object" aria-roledescription="group mark container"><g transform="translate(0,0)"><path class="background" aria-hidden="true" d="M0.5,0.5h200v200h-200Z" stroke="#ddd"/><g><g class="mark-group role-axis" aria-hidden="true"><g transform="translate(0.5,200.5)"><path class="background" aria-hidden="true" d="M0,0h0v0h0Z" pointer-events="none"/><g><g class="mark-rule role-axis-grid" pointer-events="none"><line transform="translate(12,-200)" x2="0" y2="200" stroke="#ddd" stroke-width="1" opacity="1"/><line transform="translate(43,-200)" x2="0" y2="200" stroke="#ddd" stroke-width="1" opacity="1"/><line transform="translate(74,-200)" x2="0" y2="200" stroke="#ddd" stroke-width="1" opacity="1"/><line transform="translate(105,-200)" x2="0" y2="200" stroke="#ddd" stroke-width="1" opacity="1"/><line transform="translate(137,-200)" x2="0" y2="200" stroke="#ddd" stroke-width="1" opacity="1"/><line transform="translate(168,-200)" x2="0" y2="200" stroke="#ddd" stroke-width="1" opacity="1"/><line transform="translate(199,-200)" x2="0" y2="200" stroke="#ddd" stroke-width="1" opacity="1"/></g></g><path class="foreground" aria-hidden="true" d="" pointer-events="none" display="none"/></g></g><g class="mark-group role-axis" aria-hidden="true"><g transform="translate(0.5,0.5)"><path class="background" aria-hidden="true" d="M0,0h0v0h0Z" pointer-events="none"/><g><g class="mark-rule role-axis-grid" pointer-events="none"><line transform="translate(0,200)" x2="200" y2="0" stroke="#ddd" stroke-width="1" opacity="1"/><line transform="translate(0,144)" x2="200" y2="0" stroke="#ddd" stroke-width="1" opacity="1"/><line transform="translate(0,89)" x2="200" y2="0" stroke="#ddd" stroke-width="1" opacity="1"/><line transform="translate(0,33)" x2="200" y2="0" stroke="#ddd" stroke-width="1" opacity="1"/></g></g><path class="foreground" aria-hidden="true" d="" pointer-events="none" display="none"/></g></g><g class="mark-group role-axis" role="graphics-symbol" aria-roledescription="axis" aria-label="X-axis titled 'Time' for a time scale with values from Thursday, 14 August 2025, 8:34:48 AM to Sunday, 28 September 2025, 4:46:50 AM"><g transform="translate(0.5,200.5)"><path class="background" aria-hidden="true" d="M0,0h0v0h0Z" pointer-events="none"/><g><g class="mark-rule role-axis-tick" pointer-events="none"><line transform="translate(12,0)" x2="0" y2="5" stroke="#888" stroke-width="1" opacity="1"/><line transform="translate(43,0)" x2="0" y2="5" stroke="#888" stroke-width="1" opacity="1"/><line transform="translate(74,0)" x2="0" y2="5" stroke="#888" stroke-width="1" opacity="1"/><line transform="translate(105,0)" x2="0" y2="5" stroke="#888" stroke-width="1" opacity="1"/><line transform="translate(137,0)" x2="0" y2="5" stroke="#888" stroke-width="1" opacity="1"/><line transform="translate(168,0)" x2="0" y2="5" stroke="#888" stroke-width="1" opacity="1"/><line transform="translate(199,0)" x2="0" y2="5" stroke="#888" stroke-width="1" opacity="1"/></g><g class="mark-text role-axis-label" pointer-events="none"><text text-anchor="middle" transform="translate(11.785868638439222,15)" font-family="Liberation Mono" font-size="10px" fill="#000" opacity="1">Aug 17</text><text text-anchor="middle" transform="translate(43.00681595764832,15)" font-family="Liberation Mono" font-size="10px" fill="#000" opacity="0">Aug 24</text><text text-anchor="middle" transform="translate(74.22776327685742,15)" font-family="Liberation Mono" font-size="10px" fill="#000" opacity="0">Aug 31</text><text text-anchor="middle" transform="translate(105.44871059606653,15)" font-family="Liberation Mono" font-size="10px" fill="#000" opacity="0">Sep 07</text><text text-anchor="middle" transform="translate(136.66965791527562,15)" font-family="Liberation Mono" font-size="10px" fill="#000" opacity="0">Sep 14</text><text text-anchor="middle" transform="translate(167.89060523448472,15)" font-family="Liberation Mono" font-size="10px" fill="#000" opacity="0">Sep 21</text><text text-anchor="end" transform="translate(199.11155255369383,15)" font-family="Liberation Mono" font-size="10px" fill="#000" opacity="1">Sep 28</text></g><g class="mark-rule role-axis-domain" pointer-events="none"><line transform="translate(0,0)" x2="200" y2="0" stroke="#888" stroke-width="1" opacity="1"/></g><g class="mark-text role-axis-title" pointer-events="none"><text text-anchor="middle" transform="translate(100,30)" font-family="Liberation Mono" font-size="11px" font-weight="bold" fill="#000" opacity="1">Time</text></g></g><path class="foreground" aria-hidden="true" d="" pointer-events="none" display="none"/></g></g><g class="mark-group role-axis" role="graphics-symbol" aria-roledescription="axis" aria-label="Y-axis titled 'Price' for a linear scale with values from 0 to 1,800"><g transform="translate(0.5,0.5)"><path class="background" aria-hidden="true" d="M0,0h0v0h0Z" pointer-events="none"/><g><g class="mark-rule role-axis-tick" pointer-events="none"><line transform="translate(0,200)" x2="-5" y2="0" stroke="#888" stroke-width="1" opacity="1"/><line transform="translate(0,144)" x2="-5" y2="0" stroke="#888" stroke-width="1" opacity="1"/><line transform="translate(0,89)" x2="-5" y2="0" stroke="#888" stroke-width="1" opacity="1"/><line transform="translate(0,33)" x2="-5" y2="0" stroke="#888" stroke-width="1" opacity="1"/></g><g class="mark-text role-axis-label" pointer-events="none"><text text-anchor="end" transform="translate(-7,203)" font-family="Liberation Mono" font-size="10px" fill="#000" opacity="1">0</text><text text-anchor="end" transform="translate(-7,147.44444444444443)" font-family="Liberation Mono" font-size="10px" fill="#000" opacity="1">500</text><text text-anchor="end" transform="translate(-7,91.88888888888889)" font-family="Liberation Mono" font-size="10px" fill="#000" opacity="1">1,000</text><text text-anchor="end" transform="translate(-7,36.33333333333333)" font-family="Liberation Mono" font-size="10px" fill="#000" opacity="1">1,500</text></g><g class="mark-rule role-axis-domain" pointer-events="none"><line transform="translate(0,200)" x2="0" y2="-200" stroke="#888" stroke-width="1" opacity="1"/></g><g class="mark-text role-axis-title" pointer-events="none"><text text-anchor="middle" transform="translate(-51,100) rotate(-90) translate(0,-2)" font-family="Liberation Mono" font-size="11px" font-weight="bold" fill="#000" opacity="1">Price</text></g></g><path class="foreground" aria-hidden="true" d="" pointer-events="none" display="none"/></g></g><g class="mark-group role-scope pathgroup" role="graphics-object" aria-roledescription="group mark container"><g transform="translate(0,0)"><path class="background" aria-hidden="true" d="M0,0h200v200h-200Z"/><g><g class="mark-line role-mark marks" role="graphics-object" aria-roledescription="line mark container"><path aria-label="Time: Aug 14, 2025; Price: 899; identifier: escape-city-disc-1-2024" role="graphics-symbol" aria-roledescription="line mark" d="M0,100.111L0.037,100.111L0.066,100.111L0.889,100.111L1.542,100.111L2.275,100.111L3.78,100.111L4.518,100.111L5.334,100.111L6.003,100.111L6.733,100.111L8.225,100.111L8.973,100.111L9.765,100.111L10.455,100.111L11.186,100.111L12.703,100.111L13.431,100.111L14.227,100.111L14.918,100.111L15.652,100.111L17.175,100.111L17.908,100.111L18.73,100.111L19.018,100.111L19.392,100.111L20.108,100.111L21.602,100.111L22.357,100.111L23.149,100.111L23.841,100.111L24.566,100.111L26.063,100.111L26.811,100.111L27.636,100.111L27.969,100.111L28.299,100.111L29.031,100.111L30.521,100.111L31.275,100.111L32.07,100.111L32.762,100.111L33.489,100.111L34.982,100.111L35.733,100.111L36.529,100.111L37.218,100.111L37.947,100.111L39.439,100.111L40.187,100.111L40.975,100.111L41.666,100.111L42.403,100.111L43.904,100.111L44.644,100.111L45.437,100.111L46.132,100.111L46.864,100.111L48.371,100.111L49.124,100.111L49.937,100.111L50.603,100.111L51.329,100.111L52.824,100.111L53.581,100.111L55.059,100.111L55.785,100.111L57.278,100.111L58.032,100.111L58.324,100.111L58.826,100.111L59.324,100.111L59.519,100.111L60.248,100.111L61.738,100.111L62.494,100.111L63.288,100.111L63.978,100.111L64.707,100.111L66.198,100.111L66.951,100.111L67.743,100.111L68.436,100.111L69.164,100.111L70.653,100.111L71.401,100.111L72.19,100.111L72.886,100.111L73.587,100.111L73.622,100.111L75.115,100.111L75.592,100.111L75.859,100.111L76.652,100.111L77.348,100.111L78.083,100.111L79.59,100.111L80.339,100.111L81.131,100.111L81.814,100.111L82.542,100.111L84.043,100.111L84.797,100.111L85.594,100.111L86.277,100.111L87.005,100.111L88.497,100.111L89.25,100.111L90.044,100.111L90.735,100.111L91.464,100.111L92.956,100.111L93.711,100.111L94.5,100.111L95.198,100.111L95.923,100.111L97.418,100.111L98.171,100.111L98.963,100.111L99.65,100.111L100.385,100.111L101.873,100.111L102.256,100.111L102.617,100.111L103.404,100.111L104.102,100.111L104.843,100.111L106.332,100.111L107.077,100.111L107.867,100.111L108.563,100.111L109.302,100.111L110.799,100.111L111.558,100.111L112.354,100.111L113.039,100.111L113.769,100.111L115.258,100.111L116.017,100.111L116.839,100.111L117.502,100.111L118.224,100.111L119.712,100.111L120.472,100.111L121.263,100.111L121.955,100.111L122.686,100.111L124.178,100.111L124.931,100.111L125.721,100.111L126.406,100.111L127.143,100.111L128.634,100.111L129.389,100.111L130.179,100.111L130.868,100.111L131.603,100.111L133.092,100.111L133.839,100.111L134.626,100.111L135.32,100.111L136.063,100.111L137.554,100.111L138.299,100.111L139.083,100.111L139.779,100.111L140.523,100.111L142.021,100.111L142.773,100.111L143.57,100.111L144.257,100.111L144.986,100.111L146.477,100.111L147.237,100.111L148.029,100.111L148.715,100.111L149.447,100.111L150.939,100.111L151.693,100.111L152.489,100.111L153.177,100.111L153.906,100.111L155.398,100.111L156.152,100.111L156.948,100.111L157.634,100.111L158.367,100.111L159.859,100.111L160.612,100.111L161.407,100.111L162.097,100.111L162.824,100.111L164.316,100.111L165.064,100.111L165.853,100.111L166.543,100.111L167.283,100.111L168.777,100.111L169.521,100.111L170.312,100.111L171.007,100.111L171.746,100.111L173.24,100.111L173.999,100.111L174.793,100.111L175.47,100.111L176.21,100.111L177.699,100.111L178.456,100.111L179.249,100.111L179.94,100.111L180.669,100.111L182.16,100.111L182.917,100.111L183.711,100.111L184.404,100.111L185.126,100.111L186.621,100.111L187.379,100.111L188.174,100.111L188.863,100.111L189.586,100.111L191.079,100.111L191.837,100.111L192.629,100.111L193.318,100.111L194.046,100.111L195.538,100.111L196.282,100.111L197.071,100.111L197.767,100.111L198.507,100.111L199.998,100.111" stroke="#4c78a8" stroke-width="2"/></g></g><path class="foreground" aria-hidden="true" d="" display="none"/></g><g transform="translate(0,0)"><path class="background" aria-hidden="true" d="M0,0h200v200h-200Z"/><g><g class="mark-line role-mark marks" role="graphics-object" aria-roledescription="line mark container"><path aria-label="Time: Aug 14, 2025; Price: 999; identifier: roam-2" role="graphics-symbol" aria-roledescription="line mark" d="M0,89L0.037,89L0.066,89L0.889,89L1.542,89L2.275,89L3.78,89L4.518,89L5.334,89L6.003,89L6.733,89L8.226,89L8.973,89L9.765,89L10.455,89L11.193,89L12.703,89L13.431,89L14.227,89L14.918,89L15.652,89L17.176,89L17.908,89L18.73,89L19.018,89L19.392,89L20.108,89L21.602,89L22.357,89L23.149,89L23.841,89L24.566,89L26.063,89L26.811,89L27.636,89L27.969,89L28.299,89L29.032,89L30.521,89L31.275,89L32.071,89L32.763,89L33.489,89L34.982,89L35.734,89L36.529,89L37.218,89L37.947,89L39.439,89L40.187,89L40.975,89L41.666,89L42.403,89L43.905,89L44.644,89L45.438,89L46.132,89L46.864,89L48.371,89L49.124,89L49.937,89L50.603,89L51.33,89L52.824,89L53.581,89L55.059,89L55.785,89L57.279,89L58.032,89L58.325,89L58.827,89L59.324,89L59.519,89L60.248,89L61.738,89L62.494,89L63.289,89L63.978,89L64.707,89L66.198,89L66.951,89L67.743,89L68.436,89L69.164,89L70.653,89L71.401,89L72.19,89L72.886,89L73.587,89L73.622,89L75.115,89L75.592,89L75.859,89L76.652,89L77.348,89L78.083,89L79.59,89L80.339,89L81.131,89L81.814,89L82.543,89L84.043,89L84.797,89L85.594,89L86.277,89L87.006,89L88.497,89L89.25,89L90.044,89L90.735,89L91.464,89L92.956,89L93.712,89L94.5,89L95.198,89L95.923,89L97.418,89L98.171,89L98.963,89L99.65,89L100.385,89L101.873,89L102.256,89L102.618,89L103.404,89L104.103,89L104.843,89L106.332,89L107.077,89L107.867,89L108.563,89L109.303,89L110.8,89L111.558,89L112.354,89L113.039,89L113.77,89L115.258,89L116.017,89L116.839,89L117.502,89L118.224,89L119.712,89L120.472,89L121.263,89L121.955,89L122.686,89L124.178,89L124.931,89L125.722,89L126.406,89L127.143,89L128.635,89L129.389,89L130.179,89L130.869,89L131.603,89L133.092,89L133.839,89L134.626,89L135.32,89L136.063,89L137.554,89L138.299,89L139.083,89L139.779,89L140.524,89L142.021,89L142.773,89L143.57,89L144.258,89L144.987,89L146.478,89L147.237,89L148.029,89L148.716,89L149.448,89L150.939,89L151.694,89L152.489,89L153.177,89L153.907,89L155.399,89L156.152,89L156.948,89L157.634,89L158.367,89L159.859,89L160.612,89L161.407,89L162.097,89L162.825,89L164.316,89L165.065,89L165.853,89L166.543,89L167.284,89L168.777,89L169.521,89L170.312,89L171.007,89L171.746,89L173.24,89L174,89L174.793,89L175.47,89L176.21,89L177.699,89L178.456,89L179.25,89L179.941,89L180.669,89L182.16,89L182.918,89L183.711,89L184.404,89L185.126,89L186.621,89L187.379,89L188.174,89L188.863,89L189.586,89L191.079,89L191.837,89L192.629,89L193.319,89L194.046,89L195.538,89L196.282,89L197.071,89L197.767,89L198.507,89L199.999,89" stroke="#ff9da6" stroke-width="2"/></g></g><path class="foreground" aria-hidden="true" d="" display="none"/></g><g transform="translate(0,0)"><path class="background" aria-hidden="true" d="M0,0h200v200h-200Z"/><g><g class="mark-line role-mark marks" role="graphics-object" aria-roledescription="line mark container"><path aria-label="Time: Aug 14, 2025; Price: 999; identifier: fastroad-sl-3-2022" role="graphics-symbol" aria-roledescription="line mark" d="M0,89L0.037,89L0.066,89L0.889,89L1.542,89L2.276,89L3.78,89L4.519,89L5.334,89L6.003,89L6.733,89L8.226,89L8.973,89L9.765,89L10.455,89L11.193,89L12.703,89L13.432,89L14.227,89L14.918,89L15.652,89L17.176,89L17.908,89L18.73,89L19.018,89L19.393,89L20.108,89L21.602,89L22.357,89L23.149,89L23.841,89L24.566,89L26.064,89L26.811,89L27.636,89L27.969,89L28.3,89L29.032,89L30.521,89L31.275,89L32.071,89L32.763,89L33.489,89L34.982,89L35.734,89L36.529,89L37.218,89L37.947,89L39.439,89L40.187,89L40.975,89L41.667,89L42.403,89L43.905,89L44.644,89L45.438,89L46.132,89L46.864,89L48.371,89L49.124,89L49.938,89L50.604,89L51.33,89L52.824,89L53.581,89L55.059,89L55.785,89L57.279,89L58.032,89L58.325,89L58.827,89L59.324,89L59.519,89L60.248,89L61.738,89L62.494,89L63.289,89L63.978,89L64.707,89L66.198,89L66.951,89L67.744,89L68.437,89L69.165,89L70.653,89L71.401,89L72.19,89L72.886,89L73.587,89L73.622,89L75.115,89L75.592,89L75.859,89L76.652,89L77.348,89L78.084,89L79.59,89L80.34,89L81.131,89L81.814,89L82.543,89L84.043,89L84.797,89L85.594,89L86.277,89L87.006,89L88.497,89L89.25,89L90.044,89L90.735,89L91.464,89L92.956,89L93.712,89L94.5,89L95.198,89L95.924,89L97.418,89L98.171,89L98.963,89L99.65,89L100.385,89L101.873,89L102.256,89L102.618,89L103.404,89L104.103,89L104.843,89L106.332,89L107.077,89L107.867,89L108.563,89L109.303,89L110.8,89L111.558,89L112.354,89L113.039,89L113.77,89L115.258,89L116.017,89L116.839,89L117.502,89L118.225,89L119.712,89L120.473,89L121.263,89L121.955,89L122.687,89L124.178,89L124.931,89L125.722,89L126.407,89L127.143,89L128.635,89L129.39,89L130.179,89L130.869,89L131.603,89L133.092,89L133.839,89L134.626,89L135.32,89L136.063,89L137.554,89L138.299,89L139.083,89L139.779,89L140.524,89L142.021,89L142.773,89L143.57,89L144.258,89L144.987,89L146.478,89L147.237,89L148.029,89L148.716,89L149.448,89L150.939,89L151.694,89L152.49,89L153.177,89L153.907,89L155.399,89L156.153,89L156.948,89L157.634,89L158.368,89L159.859,89L160.612,89L161.407,89L162.097,89L162.825,89L164.316,89L165.065,89L165.853,89L166.543,89L167.284,89L168.778,89L169.521,89L170.312,89L171.007,89L171.746,89L173.24,89L174,89L174.793,89L175.471,89L176.21,89L177.699,89L178.456,89L179.25,89L179.941,89L180.669,89L182.161,89L182.918,89L183.711,89L184.404,89L185.126,89L186.621,89L187.379,89L188.175,89L188.863,89L189.586,89L191.079,89L191.837,89L192.63,89L193.319,89L194.046,89L195.538,89L196.282,89L197.071,89L197.767,89L198.507,89L199.999,89" stroke="#9d755d" stroke-width="2"/></g></g><path class="foreground" aria-hidden="true" d="" display="none"/></g><g transform="translate(0,0)"><path class="background" aria-hidden="true" d="M0,0h200v200h-200Z"/><g><g class="mark-line role-mark marks" role="graphics-object" aria-roledescription="line mark container"><path aria-label="Time: Aug 14, 2025; Price: 1199; identifier: fastroad-ar-2" role="graphics-symbol" aria-roledescription="line mark" d="M0,66.778L0.037,66.778L0.067,66.778L0.889,66.778L1.543,66.778L2.276,66.778L3.78,66.778L4.519,66.778L5.334,66.778L6.003,66.778L6.733,66.778L8.226,66.778L8.973,66.778L9.765,66.778L10.455,66.778L11.197,66.778L12.703,66.778L13.432,66.778L14.227,66.778L14.918,66.778L15.652,66.778L17.176,66.778L17.908,66.778L18.73,66.778L19.018,66.778L19.393,66.778L20.108,66.778L21.602,66.778L22.357,66.778L23.149,66.778L23.841,66.778L24.566,66.778L26.064,66.778L26.811,66.778L27.636,66.778L27.97,66.778L28.3,66.778L29.032,66.778L30.521,66.778L31.275,66.778L32.071,66.778L32.763,66.778L33.49,66.778L34.982,66.778L35.734,66.778L36.529,66.778L37.218,66.778L37.947,66.778L39.439,66.778L40.187,66.778L40.975,66.778L41.667,66.778L42.403,66.778L43.905,66.778L44.644,66.778L45.438,66.778L46.132,66.778L46.864,66.778L48.371,66.778L49.124,66.778L49.938,66.778L50.604,66.778L51.33,66.778L52.825,66.778L53.581,66.778L55.06,66.778L55.785,66.778L57.279,66.778L58.032,66.778L58.325,66.778L58.827,66.778L59.324,66.778L59.519,66.778L60.249,66.778L61.738,66.778L62.494,66.778L63.289,66.778L63.978,66.778L64.707,66.778L66.198,66.778L66.951,66.778L67.744,66.778L68.437,66.778L69.165,66.778L70.654,66.778L71.401,66.778L72.19,66.778L72.886,66.778L73.587,66.778L73.622,66.778L75.116,66.778L75.592,66.778L75.859,66.778L76.652,66.778L77.348,66.778L78.084,66.778L79.59,66.778L80.34,66.778L81.131,66.778L81.814,66.778L82.543,66.778L84.043,66.778L84.797,66.778L85.594,66.778L86.277,66.778L87.006,66.778L88.497,66.778L89.25,66.778L90.044,66.778L90.735,66.778L91.465,66.778L92.956,66.778L93.712,66.778L94.501,66.778L95.198,66.778L95.924,66.778L97.418,66.778L98.171,66.778L98.963,66.778L99.65,66.778L100.385,66.778L101.874,66.778L102.256,66.778L102.618,66.778L103.404,66.778L104.103,66.778L104.843,66.778L106.332,66.778L107.077,66.778L107.867,66.778L108.563,66.778L109.303,66.778L110.8,66.778L111.559,66.778L112.354,66.778L113.039,66.778L113.77,66.778L115.258,66.778L116.017,66.778L116.839,66.778L117.502,66.778L118.225,66.778L119.712,66.778L120.473,66.778L121.263,66.778L121.955,66.778L122.687,66.778L124.178,66.778L124.931,66.778L125.722,66.778L126.407,66.778L127.143,66.778L128.635,66.778L129.39,66.778L130.18,66.778L130.869,66.778L131.603,66.778L133.092,66.778L133.839,66.778L134.627,66.778L135.32,66.778L136.064,66.778L137.554,66.778L138.299,66.778L139.083,66.778L139.779,66.778L140.524,66.778L142.021,66.778L142.773,66.778L143.571,66.778L144.258,66.778L144.987,66.778L146.478,66.778L147.237,66.778L148.03,66.778L148.716,66.778L149.448,66.778L150.94,66.778L151.694,66.778L152.49,66.778L153.177,66.778L153.907,66.778L155.399,66.778L156.153,66.778L156.948,66.778L157.634,66.778L158.368,66.778L159.859,66.778L160.613,66.778L161.407,66.778L162.097,66.778L162.825,66.778L164.316,66.778L165.065,66.778L165.853,66.778L166.543,66.778L167.284,66.778L168.778,66.778L169.521,66.778L170.312,66.778L171.007,66.778L171.746,66.778L173.24,66.778L174,66.778L174.793,66.778L175.471,66.778L176.21,66.778L177.699,66.778L178.456,66.778L179.25,66.778L179.941,66.778L180.67,66.778L182.161,66.778L182.918,66.778L183.711,66.778L184.404,66.778L185.127,66.778L186.621,66.778L187.379,66.778L188.175,66.778L188.863,66.778L189.586,66.778L191.079,66.778L191.837,66.778L192.63,66.778L193.319,66.778L194.047,66.778L195.538,66.778L196.282,66.778L197.072,66.778L197.767,66.778L198.507,66.778L199.999,66.778" stroke="#54a24b" stroke-width="2"/></g></g><path class="foreground" aria-hidden="true" d="" display="none"/></g><g transform="translate(0,0)"><path class="background" aria-hidden="true" d="M0,0h200v200h-200Z"/><g><g class="mark-line role-mark marks" role="graphics-object" aria-roledescription="line mark container"><path aria-label="Time: Aug 18, 2025; Price: 899; identifier: sdrbike-escape-1-city-disc" role="graphics-symbol" aria-roledescription="line mark" d="M19.018,100.111L19.393,100.111L20.108,100.111L21.602,100.111L22.357,100.111L23.149,100.111L23.841,100.111L24.567,100.111L26.064,100.111L26.811,100.111L27.636,100.111L27.97,100.111L28.3,100.111L29.032,100.111L30.521,100.111L31.275,100.111L32.071,100.111L32.763,100.111L33.49,100.111L34.983,100.111L35.734,100.111L36.529,100.111L37.218,100.111L37.947,100.111L39.44,100.111L40.187,100.111L40.976,100.111L41.667,100.111L42.403,100.111L43.905,100.111L44.644,100.111L45.438,100.111L46.132,100.111L46.865,100.111L48.371,100.111L49.124,100.111L49.938,100.111L50.604,100.111L51.33,100.111L52.825,100.111L53.581,100.111L55.06,100.111L55.785,100.111L57.279,100.111L58.033,100.111L58.325,100.111L58.827,100.111L59.324,100.111L59.519,100.111L60.249,100.111L61.738,100.111L62.495,100.111L63.289,100.111L63.978,100.111L64.707,100.111L66.199,100.111L66.952,100.111L67.744,100.111L68.437,100.111L69.165,100.111L70.654,100.111L71.401,100.111L72.19,100.111L72.886,100.111L73.587,100.111L73.622,100.111L75.116,100.111L75.592,100.111L75.859,100.111L76.653,100.111L77.349,100.111L78.084,100.111L79.59,100.111L80.34,100.111L81.131,100.111L81.814,100.111L82.543,100.111L84.043,100.111L84.797,100.111L85.594,100.111L86.277,100.111L87.006,100.111L88.497,100.111L89.25,100.111L90.045,100.111L90.735,100.111L91.465,100.111L92.956,100.111L93.712,100.111L94.501,100.111L95.199,100.111L95.924,100.111L97.418,100.111L98.171,100.111L98.963,100.111L99.65,100.111L100.385,100.111L101.874,100.111L102.256,100.111L102.618,100.111L103.405,100.111L104.103,100.111L104.843,100.111L106.332,100.111L107.077,100.111L107.868,100.111L108.564,100.111L109.303,100.111L110.8,100.111L111.559,100.111L112.354,100.111L113.039,100.111L113.77,100.111L115.259,100.111L116.017,100.111L116.839,100.111L117.502,100.111L118.225,100.111L119.712,100.111L120.473,100.111L121.264,100.111L121.955,100.111L122.687,100.111L124.178,100.111L124.931,100.111L125.722,100.111L126.407,100.111L127.143,100.111L128.635,100.111L129.39,100.111L130.18,100.111L130.869,100.111L131.603,100.111L133.092,100.111L133.839,100.111L134.627,100.111L135.321,100.111L136.064,100.111L137.554,100.111L138.299,100.111L139.084,100.111L139.779,100.111L140.524,100.111L142.022,100.111L142.773,100.111L143.571,100.111L144.258,100.111L144.987,100.111L146.478,100.111L147.237,100.111L148.03,100.111L148.716,100.111L149.448,100.111L150.94,100.111L151.694,100.111L152.49,100.111L153.177,100.111L153.907,100.111L155.399,100.111L156.153,100.111L156.949,100.111L157.635,100.111L158.368,100.111L159.859,100.111L160.613,100.111L161.407,100.111L162.097,100.111L162.825,100.111L164.316,100.111L165.065,100.111L165.854,100.111L166.544,100.111L167.284,100.111L168.778,100.111L169.521,100.111L170.312,100.111L171.008,100.111L171.746,100.111L173.24,100.111L174,100.111L174.793,100.111L175.471,100.111L176.21,100.111L177.699,100.111L178.456,100.111L179.25,100.111L179.941,100.111L180.67,100.111L182.161,100.111L182.918,100.111L183.711,100.111L184.404,100.111L185.127,100.111L186.621,100.111L187.38,100.111L188.175,100.111L188.863,100.111L189.586,100.111L191.079,100.111L191.837,100.111L192.63,100.111L193.319,100.111L194.047,100.111L195.539,100.111L196.282,100.111L197.072,100.111L197.767,100.111L198.507,100.111L199.999,100.111" stroke="#f58518" stroke-width="2"/></g></g><path class="foreground" aria-hidden="true" d="" display="none"/></g><g transform="translate(0,0)"><path class="background" aria-hidden="true" d="M0,0h200v200h-200Z"/><g><g class="mark-line role-mark marks" role="graphics-object" aria-roledescription="line mark container"><path aria-label="Time: Aug 20, 2025; Price: 899; identifier: roam-disc-2-2024" role="graphics-symbol" aria-roledescription="line mark" d="M27.969,100.111L28.299,100.111L29.031,100.111L30.521,100.111L31.275,100.111L32.07,100.111L32.762,100.111L33.489,100.111L34.982,100.111L35.734,100.111L36.529,100.111L37.218,100.111L37.947,100.111L39.439,100.111L40.187,100.111L40.975,100.111L41.666,100.111L42.403,100.111L43.905,100.111L44.644,100.111L45.438,100.111L46.132,100.111L46.864,100.111L48.371,100.111L49.124,100.111L49.937,100.111L50.603,100.111L51.329,100.111L52.824,100.111L53.581,100.111L55.059,100.111L55.785,100.111L57.278,100.111L58.032,100.111L58.325,100.111L58.827,100.111L59.324,100.111L59.519,100.111L60.248,100.111L61.738,100.111L62.494,100.111L63.289,100.111L63.978,100.111L64.707,100.111L66.198,100.111L66.951,100.111L67.743,100.111L68.436,100.111L69.164,100.111L70.653,100.111L71.401,100.111L72.19,100.111L72.886,100.111L73.587,100.111L73.622,100.111L75.115,100.111L75.592,100.111L75.859,100.111L76.652,100.111L77.348,100.111L78.083,100.111L79.59,100.111L80.339,100.111L81.131,100.111L81.814,100.111L82.542,100.111L84.043,100.111L84.797,100.111L85.594,100.111L86.277,100.111L87.006,100.111L88.497,100.111L89.25,100.111L90.044,100.111L90.735,100.111L91.464,100.111L92.956,100.111L93.712,100.111L94.5,100.111L95.198,100.111L95.923,100.111L97.418,100.111L98.171,100.111L98.963,100.111L99.65,100.111L100.385,100.111L101.873,100.111L102.256,100.111L102.617,100.111L103.404,100.111L104.103,100.111L104.843,100.111L106.332,100.111L107.077,100.111L107.867,100.111L108.563,100.111L109.303,100.111L110.8,100.111L111.558,100.111L112.354,100.111L113.039,100.111L113.769,100.111L115.258,100.111L116.017,100.111L116.839,100.111L117.502,100.111L118.224,100.111L119.712,100.111L120.472,100.111L121.263,100.111L121.955,100.111L122.686,100.111L124.178,100.111L124.931,100.111L125.721,100.111L126.406,100.111L127.143,100.111L128.635,100.111L129.389,100.111L130.179,100.111L130.869,100.111L131.603,100.111L133.092,100.111L133.839,100.111L134.626,100.111L135.32,100.111L136.063,100.111L137.554,100.111L138.299,100.111L139.083,100.111L139.779,100.111L140.523,100.111L142.021,100.111L142.773,100.111L143.57,100.111L144.258,100.111L144.987,100.111L146.477,100.111L147.237,100.111L148.029,100.111L148.715,100.111L149.447,100.111L150.939,100.111L151.693,100.111L152.489,100.111L153.177,100.111L153.907,100.111L155.399,100.111L156.152,100.111L156.948,100.111L157.634,100.111L158.367,100.111L159.859,100.111L160.612,100.111L161.407,100.111L162.097,100.111L162.825,100.111L164.316,100.111L165.065,100.111L165.853,100.111L166.543,100.111L167.283,100.111L168.777,100.111L169.521,100.111L170.312,100.111L171.007,100.111L171.746,100.111L173.24,100.111L173.999,100.111L174.793,100.111L175.47,100.111L176.21,100.111L177.699,100.111L178.456,100.111L179.249,100.111L179.94,100.111L180.669,100.111L182.16,100.111L182.918,100.111L183.711,100.111L184.404,100.111L185.126,100.111L186.621,100.111L187.379,100.111L188.174,100.111L188.863,100.111L189.586,100.111L191.079,100.111L191.837,100.111L192.629,100.111L193.318,100.111L194.046,100.111L195.538,100.111L196.282,100.111L197.071,100.111L197.767,100.111L198.507,100.111L199.998,100.111" stroke="#e45756" stroke-width="2"/></g></g><path class="foreground" aria-hidden="true" d="" display="none"/></g><g transform="translate(0,0)"><path class="background" aria-hidden="true" d="M0,0h200v200h-200Z"/><g><g class="mark-line role-mark marks" role="graphics-object" aria-roledescription="line mark container"><path aria-label="Time: Aug 20, 2025; Price: 1199; identifier: thrive-2" role="graphics-symbol" aria-roledescription="line mark" d="M27.97,66.778L28.3,66.778L29.032,66.778L30.521,66.778L31.275,66.778L32.071,66.778L32.763,66.778L33.49,66.778L34.983,66.778L35.734,66.778L36.529,66.778L37.218,66.778L37.947,66.778L39.44,66.778L40.187,66.778L40.976,66.778L41.667,66.778L42.403,66.778L43.905,66.778L44.644,66.778L45.438,66.778L46.132,66.778L46.865,66.778L48.372,66.778L49.124,66.778L49.938,66.778L50.604,66.778L51.33,66.778L52.825,66.778L53.582,66.778L55.06,66.778L55.785,66.778L57.279,66.778L58.033,66.778L58.326,66.778L58.827,66.778L59.324,66.778L59.519,66.778L60.249,66.778L61.738,66.778L62.495,66.778L63.289,66.778L63.979,66.778L64.707,66.778L66.199,66.778L66.952,66.778L67.744,66.778L68.437,66.778L69.165,66.778L70.654,66.778L71.401,66.778L72.19,66.778L72.886,66.778L73.587,66.778L73.622,66.778L75.116,66.778L75.592,66.778L75.859,66.778L76.653,66.778L77.349,66.778L78.084,66.778L79.59,66.778L80.34,66.778L81.131,66.778L81.814,66.778L82.543,66.778L84.043,66.778L84.797,66.778L85.594,66.778L86.277,66.778L87.006,66.778L88.498,66.778L89.25,66.778L90.045,66.778L90.735,66.778L91.465,66.778L92.957,66.778L93.712,66.778L94.501,66.778L95.199,66.778L95.924,66.778L97.418,66.778L98.171,66.778L98.963,66.778L99.65,66.778L100.386,66.778L101.874,66.778L102.256,66.778L102.618,66.778L103.405,66.778L104.103,66.778L104.843,66.778L106.332,66.778L107.078,66.778L107.868,66.778L108.564,66.778L109.303,66.778L110.8,66.778L111.559,66.778L112.354,66.778L113.039,66.778L113.77,66.778L115.259,66.778L116.017,66.778L116.839,66.778L117.503,66.778L118.225,66.778L119.713,66.778L120.473,66.778L121.264,66.778L121.956,66.778L122.687,66.778L124.179,66.778L124.931,66.778L125.722,66.778L126.407,66.778L127.143,66.778L128.635,66.778L129.39,66.778L130.18,66.778L130.869,66.778L131.603,66.778L133.093,66.778L133.839,66.778L134.627,66.778L135.321,66.778L136.064,66.778L137.554,66.778L138.3,66.778L139.084,66.778L139.78,66.778L140.524,66.778L142.022,66.778L142.774,66.778L143.571,66.778L144.258,66.778L144.987,66.778L146.478,66.778L147.238,66.778L148.03,66.778L148.716,66.778L149.448,66.778L150.94,66.778L151.694,66.778L152.49,66.778L153.177,66.778L153.907,66.778L155.399,66.778L156.153,66.778L156.949,66.778L157.635,66.778L158.368,66.778L159.86,66.778L160.613,66.778L161.407,66.778L162.097,66.778L162.825,66.778L164.316,66.778L165.065,66.778L165.854,66.778L166.544,66.778L167.284,66.778L168.778,66.778L169.521,66.778L170.313,66.778L171.008,66.778L171.746,66.778L173.241,66.778L174,66.778L174.794,66.778L175.471,66.778L176.21,66.778L177.699,66.778L178.456,66.778L179.25,66.778L179.941,66.778L180.67,66.778L182.161,66.778L182.918,66.778L183.711,66.778L184.404,66.778L185.127,66.778L186.621,66.778L187.38,66.778L188.175,66.778L188.863,66.778L189.586,66.778L191.079,66.778L191.837,66.778L192.63,66.778L193.319,66.778L194.047,66.778L195.539,66.778L196.282,66.778L197.072,66.778L197.767,66.778L198.507,66.778L199.999,66.778" stroke="#eeca3b" stroke-width="2"/></g></g><path class="foreground" aria-hidden="true" d="" display="none"/></g><g transform="translate(0,0)"><path class="background" aria-hidden="true" d="M0,0h200v200h-200Z"/><g><g class="mark-line role-mark marks" role="graphics-object" aria-roledescription="line mark container"><path aria-label="Time: Aug 20, 2025; Price: 999; identifier: rove-2" role="graphics-symbol" aria-roledescription="line mark" d="M27.97,89L28.3,89L29.032,89L30.521,89L31.275,89L32.071,89L32.763,89L33.49,89L34.983,89L35.734,89L36.53,89L37.219,89L37.948,89L39.44,89L40.187,89L40.976,89L41.667,89L42.403,89L43.905,89L44.645,89L45.438,89L46.133,89L46.865,89L48.372,89L49.124,89L49.938,89L50.604,89L51.33,89L52.825,89L53.582,89L55.06,89L55.786,89L57.279,89L58.033,89L58.326,89L58.827,89L59.324,89L59.519,89L60.249,89L61.738,89L62.495,89L63.289,89L63.979,89L64.707,89L66.199,89L66.952,89L67.744,89L68.437,89L69.165,89L73.588,111.222L73.622,111.222L75.116,111.222L75.592,111.222L75.86,111.222L76.653,111.222L77.349,111.222L78.084,111.222L79.59,111.222L80.34,111.222L81.131,111.222L81.815,111.222L82.543,111.222L84.043,111.222L84.797,111.222L85.594,111.222L86.277,111.222L87.006,111.222L88.498,111.222L89.25,111.222L90.045,111.222L90.735,111.222L91.465,111.222L92.957,111.222L93.712,111.222L94.501,111.222L95.199,111.222L95.924,111.222L97.419,111.222L98.171,111.222L98.963,111.222L99.65,111.222L100.386,111.222L101.874,111.222L102.256,111.222L102.618,111.222L103.405,111.222L104.103,111.222L104.843,111.222L106.333,111.222L107.078,111.222L107.868,111.222L108.564,111.222L109.303,111.222L110.801,111.222L111.559,111.222L112.354,111.222L113.04,111.222L113.77,111.222L115.259,111.222L116.017,111.222L116.84,111.222L117.503,111.222L118.225,111.222L119.713,111.222L120.473,111.222L121.264,111.222L121.956,111.222L122.687,111.222L124.179,111.222L124.932,111.222L125.722,111.222L126.407,111.222L127.143,111.222L128.635,111.222L129.39,111.222L130.18,111.222L130.869,111.222L131.603,111.222L133.093,111.222L133.839,111.222L134.627,111.222L135.321,111.222L136.064,111.222L137.554,111.222L138.3,111.222L139.084,111.222L139.78,111.222L140.524,111.222L142.022,111.222L142.774,111.222L143.571,111.222L144.258,111.222L144.987,111.222L146.478,111.222L147.238,111.222L148.03,111.222L148.716,111.222L149.448,111.222L150.94,111.222L151.694,111.222L152.49,111.222L153.177,111.222L153.907,111.222L155.399,111.222L156.153,111.222L156.949,111.222L157.635,111.222L158.368,111.222L159.86,111.222L160.613,111.222L161.407,111.222L162.097,111.222L162.825,111.222L164.316,111.222L165.065,111.222L165.854,111.222L166.544,111.222L167.284,111.222L168.778,111.222L169.521,111.222L170.313,111.222L171.008,111.222L171.746,111.222L173.241,111.222L174,111.222L174.794,111.222L175.471,111.222L176.21,111.222L177.699,111.222L178.456,111.222L179.25,111.222L179.941,111.222L180.67,111.222L182.161,111.222L182.918,111.222L183.711,111.222L184.404,111.222L185.127,111.222L186.621,111.222L187.38,111.222L188.175,111.222L188.863,111.222L189.586,111.222L191.08,111.222L191.837,111.222L192.63,111.222L193.319,111.222L194.047,111.222L195.539,111.222L196.282,111.222L197.072,111.222L197.767,111.222L198.507,111.222L199.999,111.222" stroke="#72b7b2" stroke-width="2"/></g></g><path class="foreground" aria-hidden="true" d="" display="none"/></g><g transform="translate(0,0)"><path class="background" aria-hidden="true" d="M0,0h200v200h-200Z"/><g><g class="mark-line role-mark marks" role="graphics-object" aria-roledescription="line mark container"><path aria-label="Time: Aug 27, 2025; Price: 1199; identifier: allure-rs-1-2023" role="graphics-symbol" aria-roledescription="line mark" d="M58.326,66.778L58.827,66.778L59.324,66.778L59.519,66.778L60.249,66.778L61.739,66.778L62.495,66.778L63.289,66.778L63.979,66.778L64.707,66.778L66.199,66.778L66.952,66.778L67.744,66.778L68.437,66.778L69.165,66.778L70.654,66.778L71.401,66.778L72.191,66.778L72.886,66.778L73.588,66.778L73.622,66.778L75.116,66.778L75.592,66.778L75.86,66.778L76.653,66.778L77.349,66.778L78.084,66.778L79.59,66.778L80.34,66.778L81.132,66.778L81.815,66.778L82.543,66.778L84.043,66.778L84.797,66.778L85.595,66.778L86.278,66.778L87.006,66.778L88.498,66.778L89.25,66.778L90.045,66.778L90.736,66.778L91.465,66.778L92.957,66.778L93.712,66.778L94.501,66.778L95.199,66.778L95.924,66.778L97.419,66.778L98.171,66.778L98.963,66.778L99.651,66.778L100.386,66.778L101.874,66.778L102.257,66.778L102.618,66.778L103.405,66.778L104.103,66.778L104.843,66.778L106.333,66.778L107.078,66.778L107.868,66.778L108.564,66.778L109.303,66.778L110.801,66.778L111.559,66.778L112.355,66.778L113.04,66.778L113.77,66.778L115.259,66.778L116.017,66.778L116.84,66.778L117.503,66.778L118.225,66.778L119.713,66.778L120.473,66.778L121.264,66.778L121.956,66.778L122.687,66.778L124.179,66.778L124.932,66.778L125.722,66.778L126.407,66.778L127.144,66.778L128.635,66.778L129.39,66.778L130.18,66.778L130.869,66.778L131.603,66.778L133.093,66.778L133.839,66.778L134.627,66.778L135.321,66.778L136.064,66.778L137.554,66.778L138.3,66.778L139.084,66.778L139.78,66.778L140.524,66.778L142.022,66.778L142.774,66.778L143.571,66.778L144.258,66.778L144.988,66.778L146.478,66.778L147.238,66.778L148.03,66.778L148.716,66.778L149.448,66.778L150.94,66.778L151.694,66.778L152.49,66.778L153.177,66.778L153.907,66.778L155.399,66.778L156.153,66.778L156.949,66.778L157.635,66.778L158.368,66.778L159.86,66.778L160.613,66.778L161.407,66.778L162.098,66.778L162.825,66.778L164.317,66.778L165.065,66.778L165.854,66.778L166.544,66.778L167.284,66.778L168.778,66.778L169.522,66.778L170.313,66.778L171.008,66.778L171.746,66.778L173.241,66.778L174,66.778L174.794,66.778L175.471,66.778L176.21,66.778L177.7,66.778L178.457,66.778L179.25,66.778L179.941,66.778L180.67,66.778L182.161,66.778L182.918,66.778L183.711,66.778L184.405,66.778L185.127,66.778L186.621,66.778L187.38,66.778L188.175,66.778L188.863,66.778L189.586,66.778L191.08,66.778L191.838,66.778L192.63,66.778L193.319,66.778L194.047,66.778L195.539,66.778L196.282,66.778L197.072,66.778L197.767,66.778L198.507,66.778L199.999,66.778" stroke="#b279a2" stroke-width="2"/></g></g><path class="foreground" aria-hidden="true" d="" display="none"/></g><g transform="translate(0,0)"><path class="background" aria-hidden="true" d="M0,0h200v200h-200Z"/><g><g class="mark-line role-mark marks" role="graphics-object" aria-roledescription="line mark container"><path aria-label="Time: Aug 27, 2025; Price: 999; identifier: allure-rs-2-2022" role="graphics-symbol" aria-roledescription="line mark" d="M58.327,89L58.827,89L59.325,89L59.519,89L60.249,89L61.739,89L62.495,89L63.289,89L63.979,89L64.707,89L66.199,89L66.952,89L67.744,89L68.437,89L69.165,89L73.588,111.222L73.622,111.222L75.116,111.222L75.592,111.222L75.86,111.222L76.653,111.222L77.349,111.222L78.084,111.222L79.59,111.222L80.34,111.222L81.132,111.222L81.815,111.222L82.543,111.222L84.044,111.222L84.798,111.222L85.595,111.222L86.278,111.222L87.007,111.222L88.498,111.222L89.25,111.222L90.045,111.222L90.736,111.222L91.465,111.222L92.957,111.222L93.712,111.222L94.501,111.222L95.199,111.222L95.924,111.222L97.419,111.222L98.171,111.222L98.964,111.222L99.651,111.222L100.386,111.222L101.874,111.222L102.257,111.222L102.618,111.222L103.405,111.222L104.103,111.222L104.843,111.222L106.333,111.222L107.078,111.222L107.868,111.222L108.564,111.222L109.303,111.222L110.801,111.222L111.559,111.222L112.355,111.222L113.04,111.222L113.77,111.222L115.259,111.222L116.017,111.222L116.84,111.222L117.503,111.222L118.225,111.222L119.713,111.222L120.473,111.222L121.264,111.222L121.956,111.222L122.687,111.222L124.179,111.222L124.932,111.222L125.722,111.222L126.407,111.222L127.144,111.222L128.635,111.222L129.39,111.222L130.18,111.222L130.869,111.222L131.603,111.222L133.093,111.222L133.84,111.222L134.627,111.222L135.321,111.222L136.064,111.222L137.555,111.222L138.3,111.222L139.084,111.222L139.78,111.222L140.524,111.222L142.022,111.222L142.774,111.222L143.571,111.222L144.258,111.222L144.988,111.222L146.478,111.222L147.238,111.222L148.03,111.222L148.716,111.222L149.448,111.222L150.94,111.222L151.694,111.222L152.49,111.222L153.178,111.222L153.908,111.222L155.399,111.222L156.153,111.222L156.949,111.222L157.635,111.222L158.368,111.222L159.86,111.222L160.613,111.222L161.408,111.222L162.098,111.222L162.825,111.222L164.317,111.222L165.065,111.222L165.854,111.222L166.544,111.222L167.284,111.222L168.778,111.222L169.522,111.222L170.313,111.222L171.008,111.222L171.746,111.222L173.241,111.222L174,111.222L174.794,111.222L175.471,111.222L176.21,111.222L177.7,111.222L178.457,111.222L179.25,111.222L179.941,111.222L180.67,111.222L182.161,111.222L182.918,111.222L183.712,111.222L184.405,111.222L185.127,111.222L186.622,111.222L187.38,111.222L188.175,111.222L188.864,111.222L189.586,111.222L191.08,111.222L191.838,111.222L192.63,111.222L193.319,111.222L194.047,111.222L195.539,111.222L196.283,111.222L197.072,111.222L197.768,111.222L198.508,111.222L199.999,111.222" stroke="#54a24b" stroke-width="2"/></g></g><path class="foreground" aria-hidden="true" d="" display="none"/></g><g transform="translate(0,0)"><path class="background" aria-hidden="true" d="M0,0h200v200h-200Z"/><g><g class="mark-line role-mark marks" role="graphics-object" aria-roledescription="line mark container"><path aria-label="Time: Aug 27, 2025; Price: 949; identifier: allure-rs-2-2023" role="graphics-symbol" aria-roledescription="line mark" d="M58.327,94.556L58.827,94.556L59.325,94.556L59.519,94.556L60.249,94.556L61.739,94.556L62.495,94.556L63.29,94.556L63.979,94.556L64.708,94.556L66.199,94.556L66.952,94.556L67.744,94.556L68.437,94.556L69.165,94.556L70.654,94.556L71.402,94.556L72.191,94.556L72.886,94.556L73.588,94.556L73.622,94.556L75.116,94.556L75.592,94.556L75.86,94.556L76.653,94.556L77.349,94.556L78.084,94.556L79.591,94.556L80.34,94.556L81.132,94.556L81.815,94.556L82.544,94.556L84.044,94.556L84.798,94.556L85.595,94.556L86.278,94.556L87.007,94.556L88.498,94.556L89.251,94.556L90.045,94.556L90.736,94.556L91.465,94.556L92.957,94.556L93.713,94.556L94.501,94.556L95.199,94.556L95.924,94.556L97.419,94.556L98.171,94.556L98.964,94.556L99.651,94.556L100.386,94.556L101.874,94.556L102.257,94.556L102.619,94.556L103.405,94.556L104.103,94.556L104.844,94.556L106.333,94.556L107.078,94.556L107.868,94.556L108.564,94.556L109.303,94.556L110.801,94.556L111.559,94.556L112.355,94.556L113.04,94.556L113.77,94.556L115.259,94.556L116.018,94.556L116.84,94.556L117.503,94.556L118.225,94.556L119.713,94.556L120.473,94.556L121.264,94.556L121.956,94.556L122.688,94.556L124.179,94.556L124.932,94.556L125.722,94.556L126.407,94.556L127.144,94.556L128.636,94.556L129.39,94.556L130.181,94.556L130.869,94.556L131.604,94.556L133.093,94.556L133.84,94.556L134.627,94.556L135.321,94.556L136.064,94.556L137.555,94.556L138.3,94.556L139.084,94.556L139.78,94.556L140.524,94.556L142.022,94.556L142.774,94.556L143.571,94.556L144.259,94.556L144.988,94.556L146.479,94.556L147.238,94.556L148.03,94.556L148.716,94.556L149.448,94.556L150.94,94.556L151.694,94.556L152.49,94.556L153.178,94.556L153.908,94.556L155.4,94.556L156.153,94.556L156.949,94.556L157.635,94.556L158.368,94.556L159.86,94.556L160.613,94.556L161.408,94.556L162.098,94.556L162.826,94.556L164.317,94.556L165.065,94.556L165.854,94.556L166.544,94.556L167.284,94.556L168.778,94.556L169.522,94.556L170.313,94.556L171.008,94.556L171.747,94.556L173.241,94.556L174,94.556L174.794,94.556L175.471,94.556L176.211,94.556L177.7,94.556L178.457,94.556L179.25,94.556L179.942,94.556L180.67,94.556L182.161,94.556L182.919,94.556L183.712,94.556L184.405,94.556L185.127,94.556L186.622,94.556L187.38,94.556L188.175,94.556L188.864,94.556L189.586,94.556L191.08,94.556L191.838,94.556L192.63,94.556L193.319,94.556L194.047,94.556L195.539,94.556L196.283,94.556L197.072,94.556L197.768,94.556L198.508,94.556L199.999,94.556" stroke="#bab0ac" stroke-width="2"/></g></g><path class="foreground" aria-hidden="true" d="" display="none"/></g><g transform="translate(0,0)"><path class="background" aria-hidden="true" d="M0,0h200v200h-200Z"/><g><g class="mark-line role-mark marks" role="graphics-object" aria-roledescription="line mark container"><path aria-label="Time: Aug 27, 2025; Price: 999; identifier: allure-rs-2-2024" role="graphics-symbol" aria-roledescription="line mark" d="M58.327,89L58.827,89L59.325,89L59.52,89L60.249,89L61.739,89L62.495,89L63.29,89L63.979,89L64.708,89L66.199,89L66.952,89L67.744,89L68.437,89L69.165,89L73.588,111.222L73.623,111.222L75.116,111.222L75.593,111.222L75.86,111.222L76.653,111.222L77.349,111.222L78.084,111.222L79.591,111.222L80.34,111.222L81.132,111.222L81.815,111.222L82.544,111.222L84.044,111.222L84.798,111.222L85.595,111.222L86.278,111.222L87.007,111.222L88.498,111.222L89.251,111.222L90.045,111.222L90.736,111.222L91.465,111.222L92.957,111.222L93.713,111.222L94.501,111.222L95.199,111.222L95.925,111.222L97.419,111.222L98.172,111.222L98.964,111.222L99.651,111.222L100.386,111.222L101.874,111.222L102.257,111.222L102.619,111.222L103.405,111.222L104.103,111.222L104.844,111.222L106.333,111.222L107.078,111.222L107.868,111.222L108.564,111.222L109.304,111.222L110.801,111.222L111.559,111.222L112.355,111.222L113.04,111.222L113.77,111.222L115.259,111.222L116.018,111.222L116.84,111.222L117.503,111.222L118.225,111.222L119.713,111.222L120.474,111.222L121.264,111.222L121.956,111.222L122.688,111.222L124.179,111.222L124.932,111.222L125.722,111.222L126.407,111.222L127.144,111.222L128.636,111.222L129.391,111.222L130.181,111.222L130.87,111.222L131.604,111.222L133.093,111.222L133.84,111.222L134.627,111.222L135.321,111.222L136.064,111.222L137.555,111.222L138.3,111.222L139.084,111.222L139.78,111.222L140.524,111.222L142.022,111.222L142.774,111.222L143.571,111.222L144.259,111.222L144.988,111.222L146.479,111.222L147.238,111.222L148.03,111.222L148.717,111.222L149.448,111.222L150.94,111.222L151.694,111.222L152.491,111.222L153.178,111.222L153.908,111.222L155.4,111.222L156.153,111.222L156.949,111.222L157.635,111.222L158.368,111.222L159.86,111.222L160.613,111.222L161.408,111.222L162.098,111.222L162.826,111.222L164.317,111.222L165.066,111.222L165.854,111.222L166.544,111.222L167.284,111.222L168.779,111.222L169.522,111.222L170.313,111.222L171.008,111.222L171.747,111.222L173.241,111.222L174,111.222L174.794,111.222L175.471,111.222L176.211,111.222L177.7,111.222L178.457,111.222L179.251,111.222L179.942,111.222L180.67,111.222L182.161,111.222L182.919,111.222L183.712,111.222L184.405,111.222L185.127,111.222L186.622,111.222L187.38,111.222L188.175,111.222L188.864,111.222L189.587,111.222L191.08,111.222L191.838,111.222L192.63,111.222L193.32,111.222L194.047,111.222L195.539,111.222L196.283,111.222L197.072,111.222L197.768,111.222L198.508,111.222L199.999,111.222" stroke="#eeca3b" stroke-width="2"/></g></g><path class="foreground" aria-hidden="true" d="" display="none"/></g><g transform="translate(0,0)"><path class="background" aria-hidden="true" d="M0,0h200v200h-200Z"/><g><g class="mark-line role-mark marks" role="graphics-object" aria-roledescription="line mark container"><path aria-label="Time: Aug 27, 2025; Price: 1799; identifier: devote-1-2024" role="graphics-symbol" aria-roledescription="line mark" d="M59.325,0.111L59.52,0.111L60.25,0.111L61.739,0.111L62.495,0.111L63.29,0.111L63.979,0.111L64.708,0.111L66.199,0.111L66.952,0.111L67.745,0.111L68.437,0.111L69.166,0.111L73.588,44.556L73.623,44.556L75.116,44.556L75.593,44.556L75.86,44.556L76.653,44.556L77.349,44.556L78.084,44.556L79.591,44.556L80.34,44.556L81.132,44.556L81.815,44.556L82.544,44.556L84.044,44.556L84.798,44.556L85.595,44.556L86.278,44.556L87.007,44.556L88.498,44.556L89.251,44.556L90.045,44.556L90.736,44.556L91.465,44.556L92.957,44.556L93.713,44.556L94.501,44.556L95.199,44.556L95.925,44.556L97.419,44.556L98.172,44.556L98.964,44.556L99.651,44.556L100.386,44.556L101.874,44.556L102.257,44.556L102.619,44.556L103.405,44.556L104.104,44.556L104.844,44.556L106.333,44.556L107.078,44.556L107.868,44.556L108.564,44.556L109.304,44.556L110.801,44.556L111.56,44.556L112.355,44.556L113.04,44.556L113.77,44.556L115.259,44.556L116.018,44.556L116.84,44.556L117.503,44.556L118.225,44.556L119.713,44.556L120.474,44.556L121.264,44.556L121.956,44.556L122.688,44.556L124.179,44.556L124.932,44.556L125.722,44.556L126.408,44.556L127.144,44.556L128.636,44.556L129.391,44.556L130.181,44.556L130.87,44.556L131.604,44.556L133.093,44.556L133.84,44.556L134.627,44.556L135.321,44.556L136.064,44.556L137.555,44.556L138.3,44.556L139.084,44.556L139.78,44.556L140.525,44.556L142.022,44.556L142.774,44.556L143.572,44.556L144.26,44.556L144.989,44.556L146.479,44.556L147.238,44.556L148.03,44.556L148.717,44.556L149.449,44.556L150.94,44.556L151.694,44.556L152.491,44.556L153.178,44.556L153.908,44.556L155.4,44.556L156.153,44.556L156.95,44.556L157.635,44.556L158.368,44.556L159.86,44.556L160.614,44.556L161.408,44.556L162.098,44.556L162.826,44.556L164.317,44.556L165.066,44.556L165.854,44.556L166.544,44.556L167.285,44.556L168.779,44.556L169.522,44.556L170.313,44.556L171.008,44.556L171.747,44.556L173.241,44.556L174.001,44.556L174.794,44.556L175.471,44.556L176.211,44.556L177.7,44.556L178.457,44.556L179.251,44.556L179.942,44.556L180.671,44.556L182.162,44.556L182.919,44.556L183.712,44.556L184.405,44.556L185.127,44.556L186.622,44.556L187.38,44.556L188.176,44.556L188.864,44.556L189.587,44.556L191.08,44.556L191.838,44.556L192.63,44.556L193.32,44.556L194.047,44.556L195.539,44.556L196.283,44.556L197.073,44.556L197.768,44.556L198.508,44.556L199.999,44.556" stroke="#72b7b2" stroke-width="2"/></g></g><path class="foreground" aria-hidden="true" d="" display="none"/></g><g transform="translate(0,0)"><path class="background" aria-hidden="true" d="M0,0h200v200h-200Z"/><g><g class="mark-line role-mark marks" role="graphics-object" aria-roledescription="line mark container"><path aria-label="Time: Aug 27, 2025; Price: 1699; identifier: devote-1-2022" role="graphics-symbol" aria-roledescription="line mark" d="M59.325,11.222L59.52,11.222L60.25,11.222L61.739,11.222L62.495,11.222L63.29,11.222L63.979,11.222L64.708,11.222L66.199,11.222L66.952,11.222L67.745,11.222L68.437,11.222L69.166,11.222L70.654,11.222L71.402,11.222L72.191,11.222L72.887,11.222L73.588,11.222L73.623,11.222L75.116,11.222L75.593,11.222L75.86,11.222L76.653,11.222L77.349,11.222L78.084,11.222L79.591,11.222L80.341,11.222L81.132,11.222L81.815,11.222L82.544,11.222L84.044,11.222L84.798,11.222L85.595,11.222L86.278,11.222L87.007,11.222L88.498,11.222L89.251,11.222L90.045,11.222L90.736,11.222L91.465,11.222L92.957,11.222L93.713,11.222L94.501,11.222L95.2,11.222L95.925,11.222L97.419,11.222L98.172,11.222L98.964,11.222L99.651,11.222L100.386,11.222L101.874,11.222L102.257,11.222L102.619,11.222L103.406,11.222L104.104,11.222L104.844,11.222L106.333,11.222L107.078,11.222L107.868,11.222L108.564,11.222L109.304,11.222L110.801,11.222L111.56,11.222L112.355,11.222L113.04,11.222L113.771,11.222L115.259,11.222L116.018,11.222L116.84,11.222L117.503,11.222L118.226,11.222L119.713,11.222L120.474,11.222L121.264,11.222L121.956,11.222L122.688,11.222L124.179,11.222L124.932,11.222L125.723,11.222L126.408,11.222L127.144,11.222L128.636,11.222L129.391,11.222L130.181,11.222L130.87,11.222L131.604,11.222L133.093,11.222L133.84,11.222L134.628,11.222L135.321,11.222L136.065,11.222L137.555,11.222L138.3,11.222L139.084,11.222L139.78,11.222L140.525,11.222L142.022,11.222L142.774,11.222L143.572,11.222L144.26,11.222L144.99,11.222L146.479,11.222L147.238,11.222L148.03,11.222L148.717,11.222L149.449,11.222L150.941,11.222L151.695,11.222L152.491,11.222L153.178,11.222L153.908,11.222L155.4,11.222L156.153,11.222L156.95,11.222L157.635,11.222L158.369,11.222L159.86,11.222L160.614,11.222L161.408,11.222L162.098,11.222L162.826,11.222L164.317,11.222L165.066,11.222L165.855,11.222L166.544,11.222L167.285,11.222L168.779,11.222L169.522,11.222L170.313,11.222L171.008,11.222L171.747,11.222L173.241,11.222L174.001,11.222L174.794,11.222L175.471,11.222L176.211,11.222L177.7,11.222L178.457,11.222L179.251,11.222L179.942,11.222L180.671,11.222L182.162,11.222L182.919,11.222L183.712,11.222L184.405,11.222L185.127,11.222L186.622,11.222L187.38,11.222L188.176,11.222L188.864,11.222L189.587,11.222L191.08,11.222L191.838,11.222L192.631,11.222L193.32,11.222L194.047,11.222L195.539,11.222L196.283,11.222L197.073,11.222L197.768,11.222L198.508,11.222L200,11.222" stroke="#4c78a8" stroke-width="2"/></g></g><path class="foreground" aria-hidden="true" d="" display="none"/></g><g transform="translate(0,0)"><path class="background" aria-hidden="true" d="M0,0h200v200h-200Z"/><g><g class="mark-line role-mark marks" role="graphics-object" aria-roledescription="line mark container"><path aria-label="Time: Aug 31, 2025; Price: 1599; identifier: silex-400-oak-bork-2026" role="graphics-symbol" aria-roledescription="line mark" d="M75.593,22.333L75.86,22.333L76.654,22.333L77.349,22.333L78.085,22.333L79.591,22.333L80.341,22.333L81.132,22.333L81.815,22.333L82.544,22.333L84.044,22.333L84.798,22.333L85.595,22.333L86.278,22.333L87.007,22.333L88.498,22.333L89.251,22.333L90.046,22.333L90.736,22.333L91.466,22.333L92.957,22.333L93.713,22.333L94.502,22.333L95.2,22.333L95.925,22.333L97.419,22.333L98.172,22.333L98.964,22.333L99.651,22.333L100.386,22.333L101.875,22.333L102.257,22.333L102.619,22.333L103.406,22.333L104.104,22.333L104.844,22.333L106.333,22.333L107.079,22.333L107.869,22.333L108.564,22.333L109.304,22.333L110.801,22.333L111.56,22.333L112.355,22.333L113.04,22.333L113.771,22.333L115.26,22.333L116.018,22.333L116.841,22.333L117.503,22.333L118.226,22.333L119.713,22.333L120.474,22.333L121.265,22.333L121.956,22.333L122.688,22.333L124.18,22.333L124.932,22.333L125.723,22.333L126.408,22.333L127.144,22.333L128.636,22.333L129.391,22.333L130.181,22.333L130.87,22.333L131.604,22.333L133.093,22.333L133.84,22.333L134.628,22.333L135.322,22.333L136.065,22.333L137.555,22.333L138.301,22.333L139.085,22.333L139.78,22.333L140.525,22.333L142.023,22.333L142.774,22.333L143.572,22.333L144.26,22.333L144.99,22.333L146.479,22.333L147.238,22.333L148.031,22.333L148.717,22.333L149.449,22.333L150.941,22.333L151.695,22.333L152.491,22.333L153.178,22.333L153.908,22.333L155.4,22.333L156.154,22.333L156.95,22.333L157.636,22.333L158.369,22.333L159.86,22.333L160.614,22.333L161.408,22.333L162.098,22.333L162.826,22.333L164.317,22.333L165.066,22.333L165.855,22.333L166.545,22.333L167.285,22.333L168.779,22.333L169.522,22.333L170.314,22.333L171.008,22.333L171.747,22.333L173.241,22.333L174.001,22.333L174.794,22.333L175.472,22.333L176.211,22.333L177.7,22.333L178.457,22.333L179.251,22.333L179.942,22.333L180.671,22.333L182.162,22.333L182.919,22.333L183.713,22.333L184.405,22.333L185.128,22.333L186.622,22.333L187.381,22.333L188.176,22.333L188.864,22.333L189.587,22.333L191.08,22.333L191.838,22.333L192.631,22.333L193.32,22.333L194.048,22.333L195.54,22.333L196.283,22.333L197.073,22.333L197.768,22.333L198.509,22.333L200,22.333" stroke="#f58518" stroke-width="2"/></g></g><path class="foreground" aria-hidden="true" d="" display="none"/></g><g transform="translate(0,0)"><path class="background" aria-hidden="true" d="M0,0h200v200h-200Z"/><g><g class="mark-line role-mark marks" role="graphics-object" aria-roledescription="line mark container"><path aria-label="Time: Aug 31, 2025; Price: 1599; identifier: silex-400-warm-slate-grey-2026" role="graphics-symbol" aria-roledescription="line mark" d="M75.593,22.333L75.861,22.333L76.654,22.333L77.35,22.333L78.085,22.333L79.591,22.333L80.341,22.333L81.132,22.333L81.816,22.333L82.544,22.333L84.044,22.333L84.798,22.333L85.596,22.333L86.278,22.333L87.007,22.333L88.499,22.333L89.251,22.333L90.046,22.333L90.736,22.333L91.466,22.333L92.958,22.333L93.713,22.333L94.502,22.333L95.2,22.333L95.925,22.333L97.419,22.333L98.172,22.333L98.964,22.333L99.652,22.333L100.387,22.333L101.875,22.333L102.257,22.333L102.619,22.333L103.406,22.333L104.104,22.333L104.844,22.333L106.333,22.333L107.079,22.333L107.869,22.333L108.565,22.333L109.304,22.333L110.801,22.333L111.56,22.333L112.355,22.333L113.041,22.333L113.771,22.333L115.26,22.333L116.018,22.333L116.841,22.333L117.504,22.333L118.226,22.333L119.714,22.333L120.474,22.333L121.265,22.333L121.957,22.333L122.688,22.333L124.18,22.333L124.933,22.333L125.723,22.333L126.408,22.333L127.145,22.333L128.636,22.333L129.391,22.333L130.181,22.333L130.87,22.333L131.604,22.333L133.094,22.333L133.84,22.333L134.628,22.333L135.322,22.333L136.065,22.333L137.556,22.333L138.301,22.333L139.085,22.333L139.78,22.333L140.525,22.333L142.023,22.333L142.775,22.333L143.572,22.333L144.26,22.333L144.99,22.333L146.479,22.333L147.239,22.333L148.031,22.333L148.717,22.333L149.449,22.333L150.941,22.333L151.695,22.333L152.491,22.333L153.178,22.333L153.908,22.333L155.4,22.333L156.154,22.333L156.95,22.333L157.636,22.333L158.369,22.333L159.861,22.333L160.614,22.333L161.408,22.333L162.098,22.333L162.826,22.333L164.318,22.333L165.066,22.333L165.855,22.333L166.545,22.333L167.285,22.333L168.779,22.333L169.523,22.333L170.314,22.333L171.009,22.333L171.747,22.333L173.242,22.333L174.001,22.333L174.795,22.333L175.472,22.333L176.211,22.333L177.701,22.333L178.457,22.333L179.251,22.333L179.942,22.333L180.671,22.333L182.162,22.333L182.919,22.333L183.714,22.333L184.405,22.333L185.128,22.333L186.622,22.333L187.381,22.333L188.176,22.333L188.864,22.333L189.587,22.333L191.08,22.333L191.838,22.333L192.631,22.333L193.32,22.333L194.048,22.333L195.54,22.333L196.283,22.333L197.073,22.333L197.768,22.333L198.509,22.333L200,22.333" stroke="#e45756" stroke-width="2"/></g></g><path class="foreground" aria-hidden="true" d="" display="none"/></g></g><g class="mark-group role-legend" role="graphics-symbol" aria-roledescription="legend" aria-label="Symbol legend titled 'identifier' for stroke color with 16 values: devote-1-2022, silex-400-oak-bork-2026, silex-400-warm-slate-grey-2026, devote-1-2024, fastroad-ar-2, ending with allure-rs-2-2024"><g transform="translate(220,0)"><path class="background" aria-hidden="true" d="M0,0h256v222h-256Z" pointer-events="none"/><g><g class="mark-group role-legend-entry"><g transform="translate(0,16)"><path class="background" aria-hidden="true" d="M0,0h0v0h0Z" pointer-events="none"/><g><g class="mark-group role-scope" role="graphics-object" aria-roledescription="group mark container"><g transform="translate(0,0)"><path class="background" aria-hidden="true" d="M0,0h256v11h-256Z" pointer-events="none" opacity="1"/><g><g class="mark-symbol role-legend-symbol" pointer-events="none"><path transform="translate(6,6)" d="M-5,0L5,0" stroke="#4c78a8" stroke-width="1.5" opacity="1"/></g><g class="mark-text role-legend-label" pointer-events="none"><text text-anchor="start" transform="translate(16,9)" font-family="Liberation Mono" font-size="10px" fill="#000" opacity="1">devote-1-2022</text></g></g><path class="foreground" aria-hidden="true" d="" pointer-events="none" display="none"/></g><g transform="translate(0,13)"><path class="background" aria-hidden="true" d="M0,0h256v11h-256Z" pointer-events="none" opacity="1"/><g><g class="mark-symbol role-legend-symbol" pointer-events="none"><path transform="translate(6,6)" d="M-5,0L5,0" stroke="#f58518" stroke-width="1.5" opacity="1"/></g><g class="mark-text role-legend-label" pointer-events="none"><text text-anchor="start" transform="translate(16,9)" font-family="Liberation Mono" font-size="10px" fill="#000" opacity="1">silex-400-oak-bork-2026</text></g></g><path class="foreground" aria-hidden="true" d="" pointer-events="none" display="none"/></g><g transform="translate(0,26)"><path class="background" aria-hidden="true" d="M0,0h256v11h-256Z" pointer-events="none" opacity="1"/><g><g class="mark-symbol role-legend-symbol" pointer-events="none"><path transform="translate(6,6)" d="M-5,0L5,0" stroke="#e45756" stroke-width="1.5" opacity="1"/></g><g class="mark-text role-legend-label" pointer-events="none"><text text-anchor="start" transform="translate(16,9)" font-family="Liberation Mono" font-size="10px" fill="#000" opacity="1">silex-400-warm-slate-grey-2026</text></g></g><path class="foreground" aria-hidden="true" d="" pointer-events="none" display="none"/></g><g transform="translate(0,39)"><path class="background" aria-hidden="true" d="M0,0h256v11h-256Z" pointer-events="none" opacity="1"/><g><g class="mark-symbol role-legend-symbol" pointer-events="none"><path transform="translate(6,6)" d="M-5,0L5,0" stroke="#72b7b2" stroke-width="1.5" opacity="1"/></g><g class="mark-text role-legend-label" pointer-events="none"><text text-anchor="start" transform="translate(16,9)" font-family="Liberation Mono" font-size="10px" fill="#000" opacity="1">devote-1-2024</text></g></g><path class="foreground" aria-hidden="true" d="" pointer-events="none" display="none"/></g><g transform="translate(0,52)"><path class="background" aria-hidden="true" d="M0,0h256v11h-256Z" pointer-events="none" opacity="1"/><g><g class="mark-symbol role-legend-symbol" pointer-events="none"><path transform="translate(6,6)" d="M-5,0L5,0" stroke="#54a24b" stroke-width="1.5" opacity="1"/></g><g class="mark-text role-legend-label" pointer-events="none"><text text-anchor="start" transform="translate(16,9)" font-family="Liberation Mono" font-size="10px" fill="#000" opacity="1">fastroad-ar-2</text></g></g><path class="foreground" aria-hidden="true" d="" pointer-events="none" display="none"/></g><g transform="translate(0,65)"><path class="background" aria-hidden="true" d="M0,0h256v11h-256Z" pointer-events="none" opacity="1"/><g><g class="mark-symbol role-legend-symbol" pointer-events="none"><path transform="translate(6,6)" d="M-5,0L5,0" stroke="#eeca3b" stroke-width="1.5" opacity="1"/></g><g class="mark-text role-legend-label" pointer-events="none"><text text-anchor="start" transform="translate(16,9)" font-family="Liberation Mono" font-size="10px" fill="#000" opacity="1">thrive-2</text></g></g><path class="foreground" aria-hidden="true" d="" pointer-events="none" display="none"/></g><g transform="translate(0,78)"><path class="background" aria-hidden="true" d="M0,0h256v11h-256Z" pointer-events="none" opacity="1"/><g><g class="mark-symbol role-legend-symbol" pointer-events="none"><path transform="translate(6,6)" d="M-5,0L5,0" stroke="#b279a2" stroke-width="1.5" opacity="1"/></g><g class="mark-text role-legend-label" pointer-events="none"><text text-anchor="start" transform="translate(16,9)" font-family="Liberation Mono" font-size="10px" fill="#000" opacity="1">allure-rs-1-2023</text></g></g><path class="foreground" aria-hidden="true" d="" pointer-events="none" display="none"/></g><g transform="translate(0,91)"><path class="background" aria-hidden="true" d="M0,0h256v11h-256Z" pointer-events="none" opacity="1"/><g><g class="mark-symbol role-legend-symbol" pointer-events="none"><path transform="translate(6,6)" d="M-5,0L5,0" stroke="#ff9da6" stroke-width="1.5" opacity="1"/></g><g class="mark-text role-legend-label" pointer-events="none"><text text-anchor="start" transform="translate(16,9)" font-family="Liberation Mono" font-size="10px" fill="#000" opacity="1">roam-2</text></g></g><path class="foreground" aria-hidden="true" d="" pointer-events="none" display="none"/></g><g transform="translate(0,104)"><path class="background" aria-hidden="true" d="M0,0h256v11h-256Z" pointer-events="none" opacity="1"/><g><g class="mark-symbol role-legend-symbol" pointer-events="none"><path transform="translate(6,6)" d="M-5,0L5,0" stroke="#9d755d" stroke-width="1.5" opacity="1"/></g><g class="mark-text role-legend-label" pointer-events="none"><text text-anchor="start" transform="translate(16,9)" font-family="Liberation Mono" font-size="10px" fill="#000" opacity="1">fastroad-sl-3-2022</text></g></g><path class="foreground" aria-hidden="true" d="" pointer-events="none" display="none"/></g><g transform="translate(0,117)"><path class="background" aria-hidden="true" d="M0,0h256v11h-256Z" pointer-events="none" opacity="1"/><g><g class="mark-symbol role-legend-symbol" pointer-events="none"><path transform="translate(6,6)" d="M-5,0L5,0" stroke="#bab0ac" stroke-width="1.5" opacity="1"/></g><g class="mark-text role-legend-label" pointer-events="none"><text text-anchor="start" transform="translate(16,9)" font-family="Liberation Mono" font-size="10px" fill="#000" opacity="1">allure-rs-2-2023</text></g></g><path class="foreground" aria-hidden="true" d="" pointer-events="none" display="none"/></g><g transform="translate(0,130)"><path class="background" aria-hidden="true" d="M0,0h256v11h-256Z" pointer-events="none" opacity="1"/><g><g class="mark-symbol role-legend-symbol" pointer-events="none"><path transform="translate(6,6)" d="M-5,0L5,0" stroke="#4c78a8" stroke-width="1.5" opacity="1"/></g><g class="mark-text role-legend-label" pointer-events="none"><text text-anchor="start" transform="translate(16,9)" font-family="Liberation Mono" font-size="10px" fill="#000" opacity="1">escape-city-disc-1-2024</text></g></g><path class="foreground" aria-hidden="true" d="" pointer-events="none" display="none"/></g><g transform="translate(0,143)"><path class="background" aria-hidden="true" d="M0,0h256v11h-256Z" pointer-events="none" opacity="1"/><g><g class="mark-symbol role-legend-symbol" pointer-events="none"><path transform="translate(6,6)" d="M-5,0L5,0" stroke="#f58518" stroke-width="1.5" opacity="1"/></g><g class="mark-text role-legend-label" pointer-events="none"><text text-anchor="start" transform="translate(16,9)" font-family="Liberation Mono" font-size="10px" fill="#000" opacity="1">sdrbike-escape-1-city-disc</text></g></g><path class="foreground" aria-hidden="true" d="" pointer-events="none" display="none"/></g><g transform="translate(0,156)"><path class="background" aria-hidden="true" d="M0,0h256v11h-256Z" pointer-events="none" opacity="1"/><g><g class="mark-symbol role-legend-symbol" pointer-events="none"><path transform="translate(6,6)" d="M-5,0L5,0" stroke="#e45756" stroke-width="1.5" opacity="1"/></g><g class="mark-text role-legend-label" pointer-events="none"><text text-anchor="start" transform="translate(16,9)" font-family="Liberation Mono" font-size="10px" fill="#000" opacity="1">roam-disc-2-2024</text></g></g><path class="foreground" aria-hidden="true" d="" pointer-events="none" display="none"/></g><g transform="translate(0,169)"><path class="background" aria-hidden="true" d="M0,0h256v11h-256Z" pointer-events="none" opacity="1"/><g><g class="mark-symbol role-legend-symbol" pointer-events="none"><path transform="translate(6,6)" d="M-5,0L5,0" stroke="#72b7b2" stroke-width="1.5" opacity="1"/></g><g class="mark-text role-legend-label" pointer-events="none"><text text-anchor="start" transform="translate(16,9)" font-family="Liberation Mono" font-size="10px" fill="#000" opacity="1">rove-2</text></g></g><path class="foreground" aria-hidden="true" d="" pointer-events="none" display="none"/></g><g transform="translate(0,182)"><path class="background" aria-hidden="true" d="M0,0h256v11h-256Z" pointer-events="none" opacity="1"/><g><g class="mark-symbol role-legend-symbol" pointer-events="none"><path transform="translate(6,6)" d="M-5,0L5,0" stroke="#54a24b" stroke-width="1.5" opacity="1"/></g><g class="mark-text role-legend-label" pointer-events="none"><text text-anchor="start" transform="translate(16,9)" font-family="Liberation Mono" font-size="10px" fill="#000" opacity="1">allure-rs-2-2022</text></g></g><path class="foreground" aria-hidden="true" d="" pointer-events="none" display="none"/></g><g transform="translate(0,195)"><path class="background" aria-hidden="true" d="M0,0h256v11h-256Z" pointer-events="none" opacity="1"/><g><g class="mark-symbol role-legend-symbol" pointer-events="none"><path transform="translate(6,6)" d="M-5,0L5,0" stroke="#eeca3b" stroke-width="1.5" opacity="1"/></g><g class="mark-text role-legend-label" pointer-events="none"><text text-anchor="start" transform="translate(16,9)" font-family="Liberation Mono" font-size="10px" fill="#000" opacity="1">allure-rs-2-2024</text></g></g><path class="foreground" aria-hidden="true" d="" pointer-events="none" display="none"/></g></g></g><path class="foreground" aria-hidden="true" d="" pointer-events="none" display="none"/></g></g><g class="mark-text role-legend-title" pointer-events="none"><text text-anchor="start" transform="translate(0,9)" font-family="Liberation Mono" font-size="11px" font-weight="bold" fill="#000" opacity="1">identifier</text></g></g><path class="foreground" aria-hidden="true" d="" pointer-events="none" display="none"/></g></g></g><path class="foreground" aria-hidden="true" d="" display="none"/></g></g></g></svg>