<svg xmlns="http://www.w3.org/2000/svg" xmlns:xlink="http://www.w3.org/1999/xlink" version="1.1" class="marks" width="548" height="244" viewBox="0 0 548 244"><rect width="548" height="244" fill="white"/><g fill="none" stroke-miterlimit="10" transform="translate(67,7)"><g class="mark-group role-frame root" role="graphics-object" aria-roledescription="group mark container"><g transform="translate(0,0)"><path class="background" aria-hidden="true" d="M0.5,0.5h200v200h-200Z" stroke="#ddd"/><g><g class="mark-group role-axis" aria-hidden="true"><g transform="translate(0.5,200.5)"><path class="background" aria-hidden="true" d="M0,0h0v0h0Z" pointer-events="none"/><g><g class="mark-rule role-axis-grid" pointer-events="none"><line transform="translate(19,-200)" x2="0" y2="200" stroke="#ddd" stroke-width="1" opacity="1"/><line transform="translate(69,-200)" x2="0" y2="200" stroke="#ddd" stroke-width="1" opacity="1"/><line transform="translate(120,-200)" x2="0" y2="200" stroke="#ddd" stroke-width="1" opacity="1"/><line transform="translate(170,-200)" x2="0" y2="200" stroke="#ddd" stroke-width="1" opacity="1"/></g></g><path class="foreground" aria-hidden="true" d="" pointer-events="none" display="none"/></g></g><g class="mark-group role-axis" aria-hidden="true"><g transform="translate(0.5,0.5)"><path class="background" aria-hidden="true" d="M0,0h0v0h0Z" pointer-events="none"/><g><g class="mark-rule role-axis-grid" pointer-events="none"><line transform="translate(0,200)" x2="200" y2="0" stroke="#ddd" stroke-width="1" opacity="1"/><line transform="translate(0,144)" x2="200" y2="0" stroke="#ddd" stroke-width="1" opacity="1"/><line transform="translate(0,89)" x2="200" y2="0" stroke="#ddd" stroke-width="1" opacity="1"/><line transform="translate(0,33)" x2="200" y2="0" stroke="#ddd" stroke-width="1" opacity="1"/></g></g><path class="foreground" aria-hidden="true" d="" pointer-events="none" display="none"/></g></g><g class="mark-group role-axis" role="graphics-symbol" aria-roledescription="axis" aria-label="X-axis titled 'Time' for a time scale with values from Thursday, 14 August 2025, 8:34:48 AM to Thursday, 11 September 2025, 4:47:32 AM"><g transform="translate(0.5,200.5)"><path class="background" aria-hidden="true" d="M0,0h0v0h0Z" pointer-events="none"/><g><g class="mark-rule role-axis-tick" pointer-events="none"><line transform="translate(19,0)" x2="0" y2="5" stroke="#888" stroke-width="1" opacity="1"/><line transform="translate(69,0)" x2="0" y2="5" stroke="#888" stroke-width="1" opacity="1"/><line transform="translate(120,0)" x2="0" y2="5" stroke="#888" stroke-width="1" opacity="1"/><line transform="translate(170,0)" x2="0" y2="5" stroke="#888" stroke-width="1" opacity="1"/></g><g class="mark-text role-axis-label" pointer-events="none"><text text-anchor="middle" transform="translate(18.981932787107606,15)" font-family="Liberation Mono" font-size="10px" fill="#000" opacity="1">Aug 17</text><text text-anchor="middle" transform="translate(69.2653647295101,15)" font-family="Liberation Mono" font-size="10px" fill="#000" opacity="1">Aug 24</text><text text-anchor="middle" transform="translate(119.54879667191258,15)" font-family="Liberation Mono" font-size="10px" fill="#000" opacity="1">Aug 31</text><text text-anchor="middle" transform="translate(169.83222861431506,15)" font-family="Liberation Mono" font-size="10px" fill="#000" opacity="1">Sep 07</text></g><g class="mark-rule role-axis-domain" pointer-events="none"><line transform="translate(0,0)" x2="200" y2="0" stroke="#888" stroke-width="1" opacity="1"/></g><g class="mark-text role-axis-title" pointer-events="none"><text text-anchor="middle" transform="translate(100,30)" font-family="Liberation Mono" font-size="11px" font-weight="bold" fill="#000" opacity="1">Time</text></g></g><path class="foreground" aria-hidden="true" d="" pointer-events="none" display="none"/></g></g><g class="mark-group role-axis" role="graphics-symbol" aria-roledescription="axis" aria-label="Y-axis titled 'Price' for a linear scale with values from 0 to 1,800"><g transform="translate(0.5,0.5)"><path class="background" aria-hidden="true" d="M0,0h0v0h0Z" pointer-events="none"/><g><g class="mark-rule role-axis-tick" pointer-events="none"><line transform="translate(0,200)" x2="-5" y2="0" stroke="#888" stroke-width="1" opacity="1"/><line transform="translate(0,144)" x2="-5" y2="0" stroke="#888" stroke-width="1" opacity="1"/><line transform="translate(0,89)" x2="-5" y2="0" stroke="#888" stroke-width="1" opacity="1"/><line transform="translate(0,33)" x2="-5" y2="0" stroke="#888" stroke-width="1" opacity="1"/></g><g class="mark-text role-axis-label" pointer-events="none"><text text-anchor="end" transform="translate(-7,203)" font-family="Liberation Mono" font-size="10px" fill="#000" opacity="1">0</text><text text-anchor="end" transform="translate(-7,147.44444444444443)" font-family="Liberation Mono" font-size="10px" fill="#000" opacity="1">500</text><text text-anchor="end" transform="translate(-7,91.88888888888889)" font-family="Liberation Mono" font-size="10px" fill="#000" opacity="1">1,000</text><text text-anchor="end" transform="translate(-7,36.33333333333333)" font-family="Liberation Mono" font-size="10px" fill="#000" opacity="1">1,500</text></g><g class="mark-rule role-axis-domain" pointer-events="none"><line transform="translate(0,200)" x2="0" y2="-200" stroke="#888" stroke-width="1" opacity="1"/></g><g class="mark-text role-axis-title" pointer-events="none"><text text-anchor="middle" transform="translate(-51,100) rotate(-90) translate(0,-2)" font-family="Liberation Mono" font-size="11px" font-weight="bold" fill="#000" opacity="1">Price</text></g></g><path class="foreground" aria-hidden="true" d="" pointer-events="none" display="none"/></g></g><g class="mark-group role-scope pathgroup" role="graphics-object" aria-roledescription="group mark container"><g transform="translate(0,0)"><path class="background" aria-hidden="true" d="M0,0h200v200h-200Z"/><g><g class="mark-line role-mark marks" role="graphics-object" aria-roledescription="line mark container"><path aria-label="Time: Aug 14, 2025; Price: 899; identifier: escape-city-disc-1-2024" role="graphics-symbol" aria-roledescription="line mark" d="M0,100.111L0.06,100.111L0.107,100.111L1.431,100.111L2.484,100.111L3.665,100.111L6.087,100.111L7.277,100.111L8.591,100.111L9.668,100.111L10.843,100.111L13.248,100.111L14.451,100.111L15.726,100.111L16.838,100.111L18.016,100.111L20.458,100.111L21.632,100.111L22.913,100.111L24.026,100.111L25.208,100.111L27.662,100.111L28.842,100.111L30.165,100.111L30.63,100.111L31.233,100.111L32.385,100.111L34.791,100.111L36.007,100.111L37.283,100.111L38.397,100.111L39.565,100.111L41.977,100.111L43.181,100.111L44.509,100.111L45.046,100.111L45.578,100.111L46.757,100.111L49.156,100.111L50.37,100.111L51.651,100.111L52.766,100.111L53.936,100.111L56.341,100.111L57.551,100.111L58.832,100.111L59.942,100.111L61.116,100.111L63.519,100.111L64.723,100.111L65.993,100.111L67.106,100.111L68.292,100.111L70.711,100.111L71.902,100.111L73.18,100.111L74.299,100.111L75.478,100.111L77.905,100.111L79.117,100.111L80.427,100.111L81.5,100.111L82.669,100.111L85.076,100.111L86.296,100.111L88.676,100.111L89.845,100.111L92.25,100.111L93.464,100.111L93.935,100.111L94.744,100.111L95.545,100.111L95.859,100.111L97.034,100.111L99.433,100.111L100.651,100.111L101.93,100.111L103.041,100.111L104.214,100.111L106.616,100.111L107.829,100.111L109.105,100.111L110.221,100.111L111.393,100.111L113.792,100.111L114.995,100.111L116.266,100.111L117.387,100.111L118.516,100.111L118.573,100.111L120.978,100.111L121.745,100.111L122.176,100.111L123.453,100.111L124.574,100.111L125.758,100.111L128.184,100.111L129.392,100.111L130.666,100.111L131.767,100.111L132.94,100.111L135.356,100.111L136.571,100.111L137.854,100.111L138.955,100.111L140.128,100.111L142.53,100.111L143.743,100.111L145.022,100.111L146.134,100.111L147.309,100.111L149.711,100.111L150.929,100.111L152.199,100.111L153.323,100.111L154.491,100.111L156.898,100.111L158.11,100.111L159.386,100.111L160.492,100.111L161.677,100.111L164.074,100.111L164.69,100.111L165.272,100.111L166.539,100.111L167.664,100.111L168.856,100.111L171.255,100.111L172.455,100.111L173.727,100.111L174.848,100.111L176.039,100.111L178.449,100.111L179.672,100.111L180.953,100.111L182.057,100.111L183.233,100.111L185.631,100.111L186.852,100.111L188.177,100.111L189.245,100.111L190.408,100.111L192.804,100.111L194.029,100.111L195.302,100.111L196.416,100.111L197.594,100.111L199.997,100.111" stroke="#4c78a8" stroke-width="2"/></g></g><path class="foreground" aria-hidden="true" d="" display="none"/></g><g transform="translate(0,0)"><path class="background" aria-hidden="true" d="M0,0h200v200h-200Z"/><g><g class="mark-line role-mark marks" role="graphics-object" aria-roledescription="line mark container"><path aria-label="Time: Aug 14, 2025; Price: 999; identifier: roam-2" role="graphics-symbol" aria-roledescription="line mark" d="M0,89L0.06,89L0.107,89L1.431,89L2.484,89L3.665,89L6.088,89L7.277,89L8.591,89L9.668,89L10.843,89L13.248,89L14.451,89L15.727,89L16.838,89L18.027,89L20.459,89L21.632,89L22.913,89L24.026,89L25.208,89L27.662,89L28.842,89L30.165,89L30.63,89L31.233,89L32.385,89L34.791,89L36.007,89L37.283,89L38.397,89L39.565,89L41.977,89L43.181,89L44.509,89L45.046,89L45.578,89L46.757,89L49.156,89L50.37,89L51.652,89L52.766,89L53.937,89L56.341,89L57.551,89L58.832,89L59.942,89L61.116,89L63.519,89L64.723,89L65.993,89L67.107,89L68.292,89L70.711,89L71.902,89L73.18,89L74.299,89L75.478,89L77.905,89L79.117,89L80.428,89L81.5,89L82.67,89L85.076,89L86.296,89L88.677,89L89.846,89L92.251,89L93.465,89L93.936,89L94.744,89L95.545,89L95.859,89L97.034,89L99.433,89L100.651,89L101.931,89L103.041,89L104.215,89L106.617,89L107.829,89L109.105,89L110.221,89L111.394,89L113.792,89L114.996,89L116.267,89L117.387,89L118.517,89L118.573,89L120.978,89L121.746,89L122.176,89L123.453,89L124.575,89L125.759,89L128.185,89L129.392,89L130.667,89L131.767,89L132.94,89L135.356,89L136.571,89L137.855,89L138.955,89L140.129,89L142.531,89L143.743,89L145.022,89L146.135,89L147.31,89L149.712,89L150.929,89L152.199,89L153.323,89L154.491,89L156.898,89L158.11,89L159.386,89L160.493,89L161.677,89L164.074,89L164.69,89L165.272,89L166.539,89L167.664,89L168.856,89L171.255,89L172.455,89L173.727,89L174.848,89L176.039,89L178.451,89L179.672,89L180.953,89L182.057,89L183.233,89L185.631,89L186.853,89L188.177,89L189.245,89L190.408,89L192.804,89L194.029,89L195.302,89L196.417,89L197.595,89L199.997,89" stroke="#ff9da6" stroke-width="2"/></g></g><path class="foreground" aria-hidden="true" d="" display="none"/></g><g transform="translate(0,0)"><path class="background" aria-hidden="true" d="M0,0h200v200h-200Z"/><g><g class="mark-line role-mark marks" role="graphics-object" aria-roledescription="line mark container"><path aria-label="Time: Aug 14, 2025; Price: 999; identifier: fastroad-sl-3-2022" role="graphics-symbol" aria-roledescription="line mark" d="M0,89L0.06,89L0.107,89L1.432,89L2.484,89L3.665,89L6.088,89L7.277,89L8.591,89L9.669,89L10.844,89L13.248,89L14.452,89L15.727,89L16.838,89L18.027,89L20.459,89L21.632,89L22.914,89L24.026,89L25.209,89L27.663,89L28.842,89L30.165,89L30.63,89L31.233,89L32.385,89L34.791,89L36.007,89L37.283,89L38.397,89L39.566,89L41.977,89L43.181,89L44.509,89L45.047,89L45.578,89L46.757,89L49.156,89L50.37,89L51.652,89L52.766,89L53.937,89L56.342,89L57.552,89L58.832,89L59.942,89L61.116,89L63.52,89L64.724,89L65.993,89L67.107,89L68.293,89L70.712,89L71.902,89L73.181,89L74.299,89L75.478,89L77.905,89L79.117,89L80.428,89L81.5,89L82.67,89L85.077,89L86.296,89L88.677,89L89.846,89L92.251,89L93.465,89L93.936,89L94.744,89L95.545,89L95.859,89L97.034,89L99.433,89L100.651,89L101.931,89L103.041,89L104.215,89L106.617,89L107.83,89L109.106,89L110.222,89L111.394,89L113.792,89L114.996,89L116.267,89L117.388,89L118.517,89L118.573,89L120.978,89L121.746,89L122.176,89L123.454,89L124.575,89L125.759,89L128.185,89L129.392,89L130.667,89L131.767,89L132.941,89L135.357,89L136.571,89L137.855,89L138.955,89L140.129,89L142.531,89L143.743,89L145.022,89L146.135,89L147.31,89L149.712,89L150.929,89L152.199,89L153.323,89L154.491,89L156.898,89L158.111,89L159.386,89L160.493,89L161.677,89L164.074,89L164.69,89L165.273,89L166.54,89L167.664,89L168.857,89L171.255,89L172.455,89L173.728,89L174.848,89L176.039,89L178.451,89L179.672,89L180.953,89L182.057,89L183.234,89L185.631,89L186.853,89L188.177,89L189.245,89L190.409,89L192.805,89L194.029,89L195.303,89L196.417,89L197.595,89L199.997,89" stroke="#9d755d" stroke-width="2"/></g></g><path class="foreground" aria-hidden="true" d="" display="none"/></g><g transform="translate(0,0)"><path class="background" aria-hidden="true" d="M0,0h200v200h-200Z"/><g><g class="mark-line role-mark marks" role="graphics-object" aria-roledescription="line mark container"><path aria-label="Time: Aug 14, 2025; Price: 1199; identifier: fastroad-ar-2" role="graphics-symbol" aria-roledescription="line mark" d="M0,66.778L0.06,66.778L0.107,66.778L1.432,66.778L2.484,66.778L3.665,66.778L6.088,66.778L7.278,66.778L8.591,66.778L9.669,66.778L10.844,66.778L13.248,66.778L14.452,66.778L15.727,66.778L16.838,66.778L18.033,66.778L20.459,66.778L21.633,66.778L22.914,66.778L24.027,66.778L25.209,66.778L27.663,66.778L28.842,66.778L30.166,66.778L30.63,66.778L31.233,66.778L32.385,66.778L34.792,66.778L36.007,66.778L37.283,66.778L38.398,66.778L39.566,66.778L41.977,66.778L43.181,66.778L44.509,66.778L45.047,66.778L45.579,66.778L46.758,66.778L49.156,66.778L50.37,66.778L51.652,66.778L52.767,66.778L53.937,66.778L56.342,66.778L57.552,66.778L58.833,66.778L59.942,66.778L61.117,66.778L63.52,66.778L64.724,66.778L65.994,66.778L67.107,66.778L68.293,66.778L70.712,66.778L71.902,66.778L73.181,66.778L74.299,66.778L75.478,66.778L77.905,66.778L79.117,66.778L80.428,66.778L81.501,66.778L82.67,66.778L85.077,66.778L86.296,66.778L88.677,66.778L89.846,66.778L92.251,66.778L93.465,66.778L93.937,66.778L94.745,66.778L95.545,66.778L95.859,66.778L97.034,66.778L99.433,66.778L100.651,66.778L101.931,66.778L103.041,66.778L104.215,66.778L106.617,66.778L107.83,66.778L109.106,66.778L110.222,66.778L111.394,66.778L113.792,66.778L114.996,66.778L116.267,66.778L117.388,66.778L118.517,66.778L118.573,66.778L120.979,66.778L121.746,66.778L122.176,66.778L123.454,66.778L124.575,66.778L125.759,66.778L128.185,66.778L129.392,66.778L130.667,66.778L131.767,66.778L132.941,66.778L135.357,66.778L136.571,66.778L137.855,66.778L138.955,66.778L140.129,66.778L142.531,66.778L143.743,66.778L145.023,66.778L146.135,66.778L147.31,66.778L149.712,66.778L150.929,66.778L152.199,66.778L153.323,66.778L154.491,66.778L156.899,66.778L158.111,66.778L159.387,66.778L160.493,66.778L161.677,66.778L164.074,66.778L164.69,66.778L165.273,66.778L166.54,66.778L167.665,66.778L168.857,66.778L171.255,66.778L172.455,66.778L173.728,66.778L174.849,66.778L176.04,66.778L178.451,66.778L179.673,66.778L180.954,66.778L182.057,66.778L183.234,66.778L185.631,66.778L186.853,66.778L188.177,66.778L189.245,66.778L190.409,66.778L192.805,66.778L194.029,66.778L195.303,66.778L196.417,66.778L197.595,66.778L199.997,66.778" stroke="#54a24b" stroke-width="2"/></g></g><path class="foreground" aria-hidden="true" d="" display="none"/></g><g transform="translate(0,0)"><path class="background" aria-hidden="true" d="M0,0h200v200h-200Z"/><g><g class="mark-line role-mark marks" role="graphics-object" aria-roledescription="line mark container"><path aria-label="Time: Aug 18, 2025; Price: 899; identifier: sdrbike-escape-1-city-disc" role="graphics-symbol" aria-roledescription="line mark" d="M30.63,100.111L31.233,100.111L32.385,100.111L34.792,100.111L36.008,100.111L37.284,100.111L38.398,100.111L39.566,100.111L41.978,100.111L43.182,100.111L44.51,100.111L45.047,100.111L45.579,100.111L46.758,100.111L49.157,100.111L50.371,100.111L51.652,100.111L52.767,100.111L53.937,100.111L56.342,100.111L57.552,100.111L58.833,100.111L59.943,100.111L61.117,100.111L63.52,100.111L64.724,100.111L65.994,100.111L67.107,100.111L68.293,100.111L70.712,100.111L71.903,100.111L73.181,100.111L74.299,100.111L75.479,100.111L77.905,100.111L79.118,100.111L80.428,100.111L81.501,100.111L82.67,100.111L85.078,100.111L86.296,100.111L88.677,100.111L89.846,100.111L92.252,100.111L93.465,100.111L93.937,100.111L94.745,100.111L95.546,100.111L95.859,100.111L97.035,100.111L99.434,100.111L100.652,100.111L101.931,100.111L103.042,100.111L104.215,100.111L106.617,100.111L107.83,100.111L109.106,100.111L110.222,100.111L111.395,100.111L113.793,100.111L114.996,100.111L116.267,100.111L117.388,100.111L118.517,100.111L118.573,100.111L120.979,100.111L121.746,100.111L122.177,100.111L123.454,100.111L124.575,100.111L125.759,100.111L128.185,100.111L129.393,100.111L130.667,100.111L131.767,100.111L132.941,100.111L135.357,100.111L136.571,100.111L137.855,100.111L138.955,100.111L140.129,100.111L142.531,100.111L143.743,100.111L145.023,100.111L146.135,100.111L147.31,100.111L149.712,100.111L150.929,100.111L152.2,100.111L153.324,100.111L154.492,100.111L156.899,100.111L158.111,100.111L159.387,100.111L160.493,100.111L161.677,100.111L164.074,100.111L164.691,100.111L165.273,100.111L166.54,100.111L167.665,100.111L168.857,100.111L171.255,100.111L172.455,100.111L173.728,100.111L174.849,100.111L176.04,100.111L178.451,100.111L179.673,100.111L180.954,100.111L182.058,100.111L183.234,100.111L185.632,100.111L186.853,100.111L188.178,100.111L189.245,100.111L190.409,100.111L192.805,100.111L194.03,100.111L195.303,100.111L196.417,100.111L197.595,100.111L199.998,100.111" stroke="#f58518" stroke-width="2"/></g></g><path class="foreground" aria-hidden="true" d="" display="none"/></g><g transform="translate(0,0)"><path class="background" aria-hidden="true" d="M0,0h200v200h-200Z"/><g><g class="mark-line role-mark marks" role="graphics-object" aria-roledescription="line mark container"><path aria-label="Time: Aug 20, 2025; Price: 899; identifier: roam-disc-2-2024" role="graphics-symbol" aria-roledescription="line mark" d="M45.046,100.111L45.578,100.111L46.757,100.111L49.156,100.111L50.37,100.111L51.652,100.111L52.766,100.111L53.937,100.111L56.341,100.111L57.551,100.111L58.832,100.111L59.942,100.111L61.116,100.111L63.519,100.111L64.723,100.111L65.993,100.111L67.106,100.111L68.292,100.111L70.711,100.111L71.902,100.111L73.18,100.111L74.299,100.111L75.478,100.111L77.905,100.111L79.117,100.111L80.427,100.111L81.5,100.111L82.67,100.111L85.076,100.111L86.296,100.111L88.676,100.111L89.845,100.111L92.251,100.111L93.465,100.111L93.936,100.111L94.744,100.111L95.545,100.111L95.859,100.111L97.034,100.111L99.433,100.111L100.651,100.111L101.93,100.111L103.041,100.111L104.215,100.111L106.617,100.111L107.829,100.111L109.105,100.111L110.221,100.111L111.394,100.111L113.792,100.111L114.996,100.111L116.266,100.111L117.387,100.111L118.517,100.111L118.573,100.111L120.978,100.111L121.746,100.111L122.176,100.111L123.453,100.111L124.574,100.111L125.759,100.111L128.184,100.111L129.392,100.111L130.667,100.111L131.767,100.111L132.94,100.111L135.356,100.111L136.571,100.111L137.854,100.111L138.955,100.111L140.128,100.111L142.53,100.111L143.743,100.111L145.022,100.111L146.135,100.111L147.309,100.111L149.712,100.111L150.929,100.111L152.199,100.111L153.323,100.111L154.491,100.111L156.898,100.111L158.11,100.111L159.386,100.111L160.493,100.111L161.677,100.111L164.074,100.111L164.69,100.111L165.272,100.111L166.539,100.111L167.664,100.111L168.856,100.111L171.255,100.111L172.455,100.111L173.727,100.111L174.848,100.111L176.039,100.111L178.451,100.111L179.672,100.111L180.953,100.111L182.057,100.111L183.233,100.111L185.631,100.111L186.853,100.111L188.177,100.111L189.245,100.111L190.408,100.111L192.804,100.111L194.029,100.111L195.302,100.111L196.417,100.111L197.595,100.111L199.997,100.111" stroke="#e45756" stroke-width="2"/></g></g><path class="foreground" aria-hidden="true" d="" display="none"/></g><g transform="translate(0,0)"><path class="background" aria-hidden="true" d="M0,0h200v200h-200Z"/><g><g class="mark-line role-mark marks" role="graphics-object" aria-roledescription="line mark container"><path aria-label="Time: Aug 20, 2025; Price: 1199; identifier: thrive-2" role="graphics-symbol" aria-roledescription="line mark" d="M45.047,66.778L45.579,66.778L46.758,66.778L49.157,66.778L50.371,66.778L51.653,66.778L52.767,66.778L53.938,66.778L56.342,66.778L57.552,66.778L58.833,66.778L59.943,66.778L61.117,66.778L63.52,66.778L64.724,66.778L65.994,66.778L67.107,66.778L68.293,66.778L70.712,66.778L71.903,66.778L73.182,66.778L74.299,66.778L75.479,66.778L77.906,66.778L79.118,66.778L80.428,66.778L81.501,66.778L82.67,66.778L85.078,66.778L86.297,66.778L88.677,66.778L89.846,66.778L92.252,66.778L93.465,66.778L93.937,66.778L94.745,66.778L95.546,66.778L95.86,66.778L97.035,66.778L99.434,66.778L100.652,66.778L101.931,66.778L103.042,66.778L104.215,66.778L106.618,66.778L107.83,66.778L109.106,66.778L110.222,66.778L111.395,66.778L113.793,66.778L114.996,66.778L116.267,66.778L117.388,66.778L118.518,66.778L118.573,66.778L120.979,66.778L121.746,66.778L122.177,66.778L123.454,66.778L124.575,66.778L125.759,66.778L128.185,66.778L129.393,66.778L130.668,66.778L131.768,66.778L132.941,66.778L135.357,66.778L136.572,66.778L137.855,66.778L138.956,66.778L140.129,66.778L142.531,66.778L143.743,66.778L145.023,66.778L146.135,66.778L147.31,66.778L149.713,66.778L150.93,66.778L152.2,66.778L153.324,66.778L154.492,66.778L156.899,66.778L158.111,66.778L159.387,66.778L160.494,66.778L161.678,66.778L164.075,66.778L164.691,66.778L165.273,66.778L166.54,66.778L167.665,66.778L168.857,66.778L171.256,66.778L172.456,66.778L173.728,66.778L174.849,66.778L176.04,66.778L178.451,66.778L179.673,66.778L180.954,66.778L182.058,66.778L183.234,66.778L185.632,66.778L186.853,66.778L188.178,66.778L189.246,66.778L190.409,66.778L192.805,66.778L194.03,66.778L195.303,66.778L196.418,66.778L197.596,66.778L199.998,66.778" stroke="#eeca3b" stroke-width="2"/></g></g><path class="foreground" aria-hidden="true" d="" display="none"/></g><g transform="translate(0,0)"><path class="background" aria-hidden="true" d="M0,0h200v200h-200Z"/><g><g class="mark-line role-mark marks" role="graphics-object" aria-roledescription="line mark container"><path aria-label="Time: Aug 20, 2025; Price: 999; identifier: rove-2" role="graphics-symbol" aria-roledescription="line mark" d="M45.047,89L45.579,89L46.758,89L49.157,89L50.371,89L51.653,89L52.767,89L53.938,89L56.342,89L57.552,89L58.833,89L59.943,89L61.117,89L63.521,89L64.725,89L65.994,89L67.107,89L68.293,89L70.712,89L71.903,89L73.182,89L74.3,89L75.479,89L77.906,89L79.118,89L80.429,89L81.501,89L82.671,89L85.078,89L86.297,89L88.678,89L89.846,89L92.252,89L93.466,89L93.938,89L94.745,89L95.546,89L95.86,89L97.035,89L99.434,89L100.652,89L101.932,89L103.042,89L104.215,89L106.618,89L107.83,89L109.106,89L110.222,89L111.395,89L118.518,111.222L118.574,111.222L120.979,111.222L121.746,111.222L122.177,111.222L123.454,111.222L124.575,111.222L125.759,111.222L128.185,111.222L129.393,111.222L130.668,111.222L131.768,111.222L132.941,111.222L135.358,111.222L136.572,111.222L137.856,111.222L138.956,111.222L140.13,111.222L142.531,111.222L143.744,111.222L145.023,111.222L146.135,111.222L147.31,111.222L149.713,111.222L150.93,111.222L152.2,111.222L153.324,111.222L154.492,111.222L156.899,111.222L158.111,111.222L159.387,111.222L160.494,111.222L161.678,111.222L164.075,111.222L164.691,111.222L165.273,111.222L166.54,111.222L167.665,111.222L168.857,111.222L171.256,111.222L172.456,111.222L173.728,111.222L174.849,111.222L176.04,111.222L178.452,111.222L179.673,111.222L180.954,111.222L182.058,111.222L183.234,111.222L185.632,111.222L186.854,111.222L188.178,111.222L189.246,111.222L190.409,111.222L192.805,111.222L194.03,111.222L195.303,111.222L196.418,111.222L197.596,111.222L199.998,111.222" stroke="#72b7b2" stroke-width="2"/></g></g><path class="foreground" aria-hidden="true" d="" display="none"/></g><g transform="translate(0,0)"><path class="background" aria-hidden="true" d="M0,0h200v200h-200Z"/><g><g class="mark-line role-mark marks" role="graphics-object" aria-roledescription="line mark container"><path aria-label="Time: Aug 27, 2025; Price: 1199; identifier: allure-rs-1-2023" role="graphics-symbol" aria-roledescription="line mark" d="M93.938,66.778L94.745,66.778L95.546,66.778L95.86,66.778L97.035,66.778L99.434,66.778L100.652,66.778L101.932,66.778L103.042,66.778L104.216,66.778L106.618,66.778L107.831,66.778L109.107,66.778L110.222,66.778L111.395,66.778L113.793,66.778L114.997,66.778L116.268,66.778L117.388,66.778L118.518,66.778L118.574,66.778L120.979,66.778L121.747,66.778L122.177,66.778L123.455,66.778L124.575,66.778L125.76,66.778L128.186,66.778L129.393,66.778L130.668,66.778L131.768,66.778L132.942,66.778L135.358,66.778L136.572,66.778L137.856,66.778L138.956,66.778L140.13,66.778L142.532,66.778L143.744,66.778L145.023,66.778L146.136,66.778L147.31,66.778L149.713,66.778L150.93,66.778L152.2,66.778L153.324,66.778L154.492,66.778L156.899,66.778L158.111,66.778L159.387,66.778L160.494,66.778L161.678,66.778L164.075,66.778L164.691,66.778L165.274,66.778L166.541,66.778L167.665,66.778L168.857,66.778L171.256,66.778L172.456,66.778L173.728,66.778L174.849,66.778L176.04,66.778L178.452,66.778L179.673,66.778L180.955,66.778L182.058,66.778L183.234,66.778L185.632,66.778L186.854,66.778L188.178,66.778L189.246,66.778L190.409,66.778L192.805,66.778L194.03,66.778L195.304,66.778L196.418,66.778L197.596,66.778L199.998,66.778" stroke="#b279a2" stroke-width="2"/></g></g><path class="foreground" aria-hidden="true" d="" display="none"/></g><g transform="translate(0,0)"><path class="background" aria-hidden="true" d="M0,0h200v200h-200Z"/><g><g class="mark-line role-mark marks" role="graphics-object" aria-roledescription="line mark container"><path aria-label="Time: Aug 27, 2025; Price: 999; identifier: allure-rs-2-2022" role="graphics-symbol" aria-roledescription="line mark" d="M93.939,89L94.745,89L95.546,89L95.86,89L97.035,89L99.434,89L100.652,89L101.932,89L103.042,89L104.216,89L106.618,89L107.831,89L109.107,89L110.222,89L111.395,89L118.518,111.222L118.574,111.222L120.98,111.222L121.747,111.222L122.177,111.222L123.455,111.222L124.576,111.222L125.76,111.222L128.186,111.222L129.393,111.222L130.668,111.222L131.768,111.222L132.942,111.222L135.358,111.222L136.572,111.222L137.856,111.222L138.956,111.222L140.13,111.222L142.532,111.222L143.744,111.222L145.023,111.222L146.136,111.222L147.311,111.222L149.713,111.222L150.93,111.222L152.2,111.222L153.324,111.222L154.493,111.222L156.899,111.222L158.112,111.222L159.387,111.222L160.494,111.222L161.678,111.222L164.075,111.222L164.691,111.222L165.274,111.222L166.541,111.222L167.665,111.222L168.857,111.222L171.256,111.222L172.456,111.222L173.729,111.222L174.849,111.222L176.04,111.222L178.452,111.222L179.674,111.222L180.955,111.222L182.058,111.222L183.235,111.222L185.632,111.222L186.854,111.222L188.179,111.222L189.246,111.222L190.41,111.222L192.806,111.222L194.03,111.222L195.304,111.222L196.418,111.222L197.596,111.222L199.998,111.222" stroke="#54a24b" stroke-width="2"/></g></g><path class="foreground" aria-hidden="true" d="" display="none"/></g><g transform="translate(0,0)"><path class="background" aria-hidden="true" d="M0,0h200v200h-200Z"/><g><g class="mark-line role-mark marks" role="graphics-object" aria-roledescription="line mark container"><path aria-label="Time: Aug 27, 2025; Price: 949; identifier: allure-rs-2-2023" role="graphics-symbol" aria-roledescription="line mark" d="M93.939,94.556L94.745,94.556L95.546,94.556L95.86,94.556L97.036,94.556L99.434,94.556L100.653,94.556L101.932,94.556L103.042,94.556L104.216,94.556L106.618,94.556L107.831,94.556L109.107,94.556L110.223,94.556L111.395,94.556L113.793,94.556L114.997,94.556L116.268,94.556L117.389,94.556L118.518,94.556L118.574,94.556L120.98,94.556L121.747,94.556L122.178,94.556L123.455,94.556L124.576,94.556L125.76,94.556L128.186,94.556L129.393,94.556L130.668,94.556L131.768,94.556L132.942,94.556L135.358,94.556L136.572,94.556L137.856,94.556L138.956,94.556L140.13,94.556L142.532,94.556L143.744,94.556L145.024,94.556L146.136,94.556L147.311,94.556L149.713,94.556L150.93,94.556L152.2,94.556L153.325,94.556L154.493,94.556L156.9,94.556L158.112,94.556L159.388,94.556L160.494,94.556L161.678,94.556L164.075,94.556L164.691,94.556L165.274,94.556L166.541,94.556L167.666,94.556L168.858,94.556L171.256,94.556L172.456,94.556L173.729,94.556L174.85,94.556L176.041,94.556L178.452,94.556L179.674,94.556L180.955,94.556L182.058,94.556L183.235,94.556L185.632,94.556L186.854,94.556L188.179,94.556L189.246,94.556L190.41,94.556L192.806,94.556L194.031,94.556L195.304,94.556L196.418,94.556L197.597,94.556L199.999,94.556" stroke="#bab0ac" stroke-width="2"/></g></g><path class="foreground" aria-hidden="true" d="" display="none"/></g><g transform="translate(0,0)"><path class="background" aria-hidden="true" d="M0,0h200v200h-200Z"/><g><g class="mark-line role-mark marks" role="graphics-object" aria-roledescription="line mark container"><path aria-label="Time: Aug 27, 2025; Price: 999; identifier: allure-rs-2-2024" role="graphics-symbol" aria-roledescription="line mark" d="M93.939,89L94.746,89L95.546,89L95.86,89L97.036,89L99.435,89L100.653,89L101.932,89L103.042,89L104.216,89L106.618,89L107.831,89L109.107,89L110.223,89L111.396,89L118.519,111.222L118.574,111.222L120.98,111.222L121.747,111.222L122.178,111.222L123.455,111.222L124.576,111.222L125.76,111.222L128.186,111.222L129.394,111.222L130.668,111.222L131.769,111.222L132.942,111.222L135.358,111.222L136.572,111.222L137.856,111.222L138.956,111.222L140.13,111.222L142.532,111.222L143.744,111.222L145.024,111.222L146.136,111.222L147.311,111.222L149.714,111.222L150.93,111.222L152.2,111.222L153.325,111.222L154.493,111.222L156.9,111.222L158.112,111.222L159.388,111.222L160.494,111.222L161.678,111.222L164.075,111.222L164.691,111.222L165.274,111.222L166.541,111.222L167.666,111.222L168.858,111.222L171.256,111.222L172.457,111.222L173.729,111.222L174.85,111.222L176.041,111.222L178.452,111.222L179.674,111.222L180.955,111.222L182.058,111.222L183.235,111.222L185.633,111.222L186.854,111.222L188.179,111.222L189.247,111.222L190.41,111.222L192.806,111.222L194.031,111.222L195.304,111.222L196.418,111.222L197.597,111.222L199.999,111.222" stroke="#eeca3b" stroke-width="2"/></g></g><path class="foreground" aria-hidden="true" d="" display="none"/></g><g transform="translate(0,0)"><path class="background" aria-hidden="true" d="M0,0h200v200h-200Z"/><g><g class="mark-line role-mark marks" role="graphics-object" aria-roledescription="line mark container"><path aria-label="Time: Aug 27, 2025; Price: 1799; identifier: devote-1-2024" role="graphics-symbol" aria-roledescription="line mark" d="M95.546,0.111L95.86,0.111L97.036,0.111L99.435,0.111L100.653,0.111L101.932,0.111L103.043,0.111L104.216,0.111L106.618,0.111L107.831,0.111L109.107,0.111L110.223,0.111L111.396,0.111L118.519,44.556L118.574,44.556L120.98,44.556L121.747,44.556L122.178,44.556L123.455,44.556L124.576,44.556L125.76,44.556L128.186,44.556L129.394,44.556L130.669,44.556L131.769,44.556L132.942,44.556L135.358,44.556L136.573,44.556L137.857,44.556L138.956,44.556L140.13,44.556L142.532,44.556L143.744,44.556L145.024,44.556L146.136,44.556L147.311,44.556L149.714,44.556L150.931,44.556L152.201,44.556L153.325,44.556L154.493,44.556L156.9,44.556L158.112,44.556L159.388,44.556L160.495,44.556L161.679,44.556L164.076,44.556L164.692,44.556L165.274,44.556L166.541,44.556L167.666,44.556L168.858,44.556L171.256,44.556L172.457,44.556L173.729,44.556L174.85,44.556L176.041,44.556L178.452,44.556L179.674,44.556L180.955,44.556L182.059,44.556L183.235,44.556L185.633,44.556L186.854,44.556L188.179,44.556L189.247,44.556L190.41,44.556L192.806,44.556L194.031,44.556L195.304,44.556L196.419,44.556L197.597,44.556L199.999,44.556" stroke="#72b7b2" stroke-width="2"/></g></g><path class="foreground" aria-hidden="true" d="" display="none"/></g><g transform="translate(0,0)"><path class="background" aria-hidden="true" d="M0,0h200v200h-200Z"/><g><g class="mark-line role-mark marks" role="graphics-object" aria-roledescription="line mark container"><path aria-label="Time: Aug 27, 2025; Price: 1699; identifier: devote-1-2022" role="graphics-symbol" aria-roledescription="line mark" d="M95.547,11.222L95.861,11.222L97.036,11.222L99.435,11.222L100.653,11.222L101.932,11.222L103.043,11.222L104.216,11.222L106.619,11.222L107.831,11.222L109.107,11.222L110.223,11.222L111.396,11.222L113.794,11.222L114.998,11.222L116.269,11.222L117.389,11.222L118.519,11.222L118.574,11.222L120.98,11.222L121.747,11.222L122.178,11.222L123.455,11.222L124.576,11.222L125.76,11.222L128.186,11.222L129.394,11.222L130.669,11.222L131.769,11.222L132.942,11.222L135.359,11.222L136.573,11.222L137.857,11.222L138.956,11.222L140.131,11.222L142.532,11.222L143.744,11.222L145.024,11.222L146.136,11.222L147.311,11.222L149.714,11.222L150.931,11.222L152.201,11.222L153.325,11.222L154.493,11.222L156.9,11.222L158.112,11.222L159.388,11.222L160.495,11.222L161.679,11.222L164.076,11.222L164.692,11.222L165.275,11.222L166.542,11.222L167.666,11.222L168.858,11.222L171.257,11.222L172.457,11.222L173.729,11.222L174.85,11.222L176.041,11.222L178.453,11.222L179.674,11.222L180.955,11.222L182.059,11.222L183.235,11.222L185.633,11.222L186.854,11.222L188.179,11.222L189.247,11.222L190.41,11.222L192.806,11.222L194.031,11.222L195.304,11.222L196.419,11.222L197.597,11.222L199.999,11.222" stroke="#4c78a8" stroke-width="2"/></g></g><path class="foreground" aria-hidden="true" d="" display="none"/></g><g transform="translate(0,0)"><path class="background" aria-hidden="true" d="M0,0h200v200h-200Z"/><g><g class="mark-line role-mark marks" role="graphics-object" aria-roledescription="line mark container"><path aria-label="Time: Aug 31, 2025; Price: 1599; identifier: silex-400-oak-bork-2026" role="graphics-symbol" aria-roledescription="line mark" d="M121.747,22.333L122.178,22.333L123.456,22.333L124.576,22.333L125.761,22.333L128.187,22.333L129.394,22.333L130.669,22.333L131.769,22.333L132.943,22.333L135.359,22.333L136.573,22.333L137.857,22.333L138.957,22.333L140.131,22.333L142.533,22.333L143.745,22.333L145.024,22.333L146.137,22.333L147.311,22.333L149.714,22.333L150.931,22.333L152.201,22.333L153.326,22.333L154.494,22.333L156.9,22.333L158.112,22.333L159.388,22.333L160.495,22.333L161.679,22.333L164.076,22.333L164.692,22.333L165.275,22.333L166.542,22.333L167.666,22.333L168.858,22.333L171.257,22.333L172.457,22.333L173.73,22.333L174.85,22.333L176.041,22.333L178.453,22.333L179.675,22.333L180.956,22.333L182.059,22.333L183.235,22.333L185.633,22.333L186.855,22.333L188.18,22.333L189.247,22.333L190.411,22.333L192.807,22.333L194.031,22.333L195.305,22.333L196.419,22.333L197.597,22.333L200,22.333" stroke="#f58518" stroke-width="2"/></g></g><path class="foreground" aria-hidden="true" d="" display="none"/></g><g transform="translate(0,0)"><path class="background" aria-hidden="true" d="M0,0h200v200h-200Z"/><g><g class="mark-line role-mark marks" role="graphics-object" aria-roledescription="line mark container"><path aria-label="Time: Aug 31, 2025; Price: 1599; identifier: silex-400-warm-slate-grey-2026" role="graphics-symbol" aria-roledescription="line mark" d="M121.748,22.333L122.179,22.333L123.456,22.333L124.577,22.333L125.761,22.333L128.187,22.333L129.394,22.333L130.669,22.333L131.77,22.333L132.943,22.333L135.359,22.333L136.573,22.333L137.858,22.333L138.957,22.333L140.131,22.333L142.533,22.333L143.745,22.333L145.025,22.333L146.137,22.333L147.312,22.333L149.715,22.333L150.931,22.333L152.201,22.333L153.326,22.333L154.494,22.333L156.901,22.333L158.113,22.333L159.389,22.333L160.495,22.333L161.679,22.333L164.076,22.333L164.692,22.333L165.275,22.333L166.543,22.333L167.666,22.333L168.858,22.333L171.257,22.333L172.458,22.333L173.73,22.333L174.85,22.333L176.042,22.333L178.453,22.333L179.675,22.333L180.956,22.333L182.059,22.333L183.236,22.333L185.634,22.333L186.855,22.333L188.18,22.333L189.248,22.333L190.411,22.333L192.807,22.333L194.032,22.333L195.305,22.333L196.419,22.333L197.598,22.333L200,22.333" stroke="#e45756" stroke-width="2"/></g></g><path class="foreground" aria-hidden="true" d="" display="none"/></g></g><g class="mark-group role-legend" role="graphics-symbol" aria-roledescription="legend" aria-label="Symbol legend titled 'identifier' for stroke color with 16 values: devote-1-2022, silex-400-oak-bork-2026, silex-400-warm-slate-grey-2026, devote-1-2024, fastroad-ar-2, ending with allure-rs-2-2024"><g transform="translate(220,0)"><path class="background" aria-hidden="true" d="M0,0h256v222h-256Z" pointer-events="none"/><g><g class="mark-group role-legend-entry"><g transform="translate(0,16)"><path class="background" aria-hidden="true" d="M0,0h0v0h0Z" pointer-events="none"/><g><g class="mark-group role-scope" role="graphics-object" aria-roledescription="group mark container"><g transform="translate(0,0)"><path class="background" aria-hidden="true" d="M0,0h256v11h-256Z" pointer-events="none" opacity="1"/><g><g class="mark-symbol role-legend-symbol" pointer-events="none"><path transform="translate(6,6)" d="M-5,0L5,0" stroke="#4c78a8" stroke-width="1.5" opacity="1"/></g><g class="mark-text role-legend-label" pointer-events="none"><text text-anchor="start" transform="translate(16,9)" font-family="Liberation Mono" font-size="10px" fill="#000" opacity="1">devote-1-2022</text></g></g><path class="foreground" aria-hidden="true" d="" pointer-events="none" display="none"/></g><g transform="translate(0,13)"><path class="background" aria-hidden="true" d="M0,0h256v11h-256Z" pointer-events="none" opacity="1"/><g><g class="mark-symbol role-legend-symbol" pointer-events="none"><path transform="translate(6,6)" d="M-5,0L5,0" stroke="#f58518" stroke-width="1.5" opacity="1"/></g><g class="mark-text role-legend-label" pointer-events="none"><text text-anchor="start" transform="translate(16,9)" font-family="Liberation Mono" font-size="10px" fill="#000" opacity="1">silex-400-oak-bork-2026</text></g></g><path class="foreground" aria-hidden="true" d="" pointer-events="none" display="none"/></g><g transform="translate(0,26)"><path class="background" aria-hidden="true" d="M0,0h256v11h-256Z" pointer-events="none" opacity="1"/><g><g class="mark-symbol role-legend-symbol" pointer-events="none"><path transform="translate(6,6)" d="M-5,0L5,0" stroke="#e45756" stroke-width="1.5" opacity="1"/></g><g class="mark-text role-legend-label" pointer-events="none"><text text-anchor="start" transform="translate(16,9)" font-family="Liberation Mono" font-size="10px" fill="#000" opacity="1">silex-400-warm-slate-grey-2026</text></g></g><path class="foreground" aria-hidden="true" d="" pointer-events="none" display="none"/></g><g transform="translate(0,39)"><path class="background" aria-hidden="true" d="M0,0h256v11h-256Z" pointer-events="none" opacity="1"/><g><g class="mark-symbol role-legend-symbol" pointer-events="none"><path transform="translate(6,6)" d="M-5,0L5,0" stroke="#72b7b2" stroke-width="1.5" opacity="1"/></g><g class="mark-text role-legend-label" pointer-events="none"><text text-anchor="start" transform="translate(16,9)" font-family="Liberation Mono" font-size="10px" fill="#000" opacity="1">devote-1-2024</text></g></g><path class="foreground" aria-hidden="true" d="" pointer-events="none" display="none"/></g><g transform="translate(0,52)"><path class="background" aria-hidden="true" d="M0,0h256v11h-256Z" pointer-events="none" opacity="1"/><g><g class="mark-symbol role-legend-symbol" pointer-events="none"><path transform="translate(6,6)" d="M-5,0L5,0" stroke="#54a24b" stroke-width="1.5" opacity="1"/></g><g class="mark-text role-legend-label" pointer-events="none"><text text-anchor="start" transform="translate(16,9)" font-family="Liberation Mono" font-size="10px" fill="#000" opacity="1">fastroad-ar-2</text></g></g><path class="foreground" aria-hidden="true" d="" pointer-events="none" display="none"/></g><g transform="translate(0,65)"><path class="background" aria-hidden="true" d="M0,0h256v11h-256Z" pointer-events="none" opacity="1"/><g><g class="mark-symbol role-legend-symbol" pointer-events="none"><path transform="translate(6,6)" d="M-5,0L5,0" stroke="#eeca3b" stroke-width="1.5" opacity="1"/></g><g class="mark-text role-legend-label" pointer-events="none"><text text-anchor="start" transform="translate(16,9)" font-family="Liberation Mono" font-size="10px" fill="#000" opacity="1">thrive-2</text></g></g><path class="foreground" aria-hidden="true" d="" pointer-events="none" display="none"/></g><g transform="translate(0,78)"><path class="background" aria-hidden="true" d="M0,0h256v11h-256Z" pointer-events="none" opacity="1"/><g><g class="mark-symbol role-legend-symbol" pointer-events="none"><path transform="translate(6,6)" d="M-5,0L5,0" stroke="#b279a2" stroke-width="1.5" opacity="1"/></g><g class="mark-text role-legend-label" pointer-events="none"><text text-anchor="start" transform="translate(16,9)" font-family="Liberation Mono" font-size="10px" fill="#000" opacity="1">allure-rs-1-2023</text></g></g><path class="foreground" aria-hidden="true" d="" pointer-events="none" display="none"/></g><g transform="translate(0,91)"><path class="background" aria-hidden="true" d="M0,0h256v11h-256Z" pointer-events="none" opacity="1"/><g><g class="mark-symbol role-legend-symbol" pointer-events="none"><path transform="translate(6,6)" d="M-5,0L5,0" stroke="#ff9da6" stroke-width="1.5" opacity="1"/></g><g class="mark-text role-legend-label" pointer-events="none"><text text-anchor="start" transform="translate(16,9)" font-family="Liberation Mono" font-size="10px" fill="#000" opacity="1">roam-2</text></g></g><path class="foreground" aria-hidden="true" d="" pointer-events="none" display="none"/></g><g transform="translate(0,104)"><path class="background" aria-hidden="true" d="M0,0h256v11h-256Z" pointer-events="none" opacity="1"/><g><g class="mark-symbol role-legend-symbol" pointer-events="none"><path transform="translate(6,6)" d="M-5,0L5,0" stroke="#9d755d" stroke-width="1.5" opacity="1"/></g><g class="mark-text role-legend-label" pointer-events="none"><text text-anchor="start" transform="translate(16,9)" font-family="Liberation Mono" font-size="10px" fill="#000" opacity="1">fastroad-sl-3-2022</text></g></g><path class="foreground" aria-hidden="true" d="" pointer-events="none" display="none"/></g><g transform="translate(0,117)"><path class="background" aria-hidden="true" d="M0,0h256v11h-256Z" pointer-events="none" opacity="1"/><g><g class="mark-symbol role-legend-symbol" pointer-events="none"><path transform="translate(6,6)" d="M-5,0L5,0" stroke="#bab0ac" stroke-width="1.5" opacity="1"/></g><g class="mark-text role-legend-label" pointer-events="none"><text text-anchor="start" transform="translate(16,9)" font-family="Liberation Mono" font-size="10px" fill="#000" opacity="1">allure-rs-2-2023</text></g></g><path class="foreground" aria-hidden="true" d="" pointer-events="none" display="none"/></g><g transform="translate(0,130)"><path class="background" aria-hidden="true" d="M0,0h256v11h-256Z" pointer-events="none" opacity="1"/><g><g class="mark-symbol role-legend-symbol" pointer-events="none"><path transform="translate(6,6)" d="M-5,0L5,0" stroke="#4c78a8" stroke-width="1.5" opacity="1"/></g><g class="mark-text role-legend-label" pointer-events="none"><text text-anchor="start" transform="translate(16,9)" font-family="Liberation Mono" font-size="10px" fill="#000" opacity="1">escape-city-disc-1-2024</text></g></g><path class="foreground" aria-hidden="true" d="" pointer-events="none" display="none"/></g><g transform="translate(0,143)"><path class="background" aria-hidden="true" d="M0,0h256v11h-256Z" pointer-events="none" opacity="1"/><g><g class="mark-symbol role-legend-symbol" pointer-events="none"><path transform="translate(6,6)" d="M-5,0L5,0" stroke="#f58518" stroke-width="1.5" opacity="1"/></g><g class="mark-text role-legend-label" pointer-events="none"><text text-anchor="start" transform="translate(16,9)" font-family="Liberation Mono" font-size="10px" fill="#000" opacity="1">sdrbike-escape-1-city-disc</text></g></g><path class="foreground" aria-hidden="true" d="" pointer-events="none" display="none"/></g><g transform="translate(0,156)"><path class="background" aria-hidden="true" d="M0,0h256v11h-256Z" pointer-events="none" opacity="1"/><g><g class="mark-symbol role-legend-symbol" pointer-events="none"><path transform="translate(6,6)" d="M-5,0L5,0" stroke="#e45756" stroke-width="1.5" opacity="1"/></g><g class="mark-text role-legend-label" pointer-events="none"><text text-anchor="start" transform="translate(16,9)" font-family="Liberation Mono" font-size="10px" fill="#000" opacity="1">roam-disc-2-2024</text></g></g><path class="foreground" aria-hidden="true" d="" pointer-events="none" display="none"/></g><g transform="translate(0,169)"><path class="background" aria-hidden="true" d="M0,0h256v11h-256Z" pointer-events="none" opacity="1"/><g><g class="mark-symbol role-legend-symbol" pointer-events="none"><path transform="translate(6,6)" d="M-5,0L5,0" stroke="#72b7b2" stroke-width="1.5" opacity="1"/></g><g class="mark-text role-legend-label" pointer-events="none"><text text-anchor="start" transform="translate(16,9)" font-family="Liberation Mono" font-size="10px" fill="#000" opacity="1">rove-2</text></g></g><path class="foreground" aria-hidden="true" d="" pointer-events="none" display="none"/></g><g transform="translate(0,182)"><path class="background" aria-hidden="true" d="M0,0h256v11h-256Z" pointer-events="none" opacity="1"/><g><g class="mark-symbol role-legend-symbol" pointer-events="none"><path transform="translate(6,6)" d="M-5,0L5,0" stroke="#54a24b" stroke-width="1.5" opacity="1"/></g><g class="mark-text role-legend-label" pointer-events="none"><text text-anchor="start" transform="translate(16,9)" font-family="Liberation Mono" font-size="10px" fill="#000" opacity="1">allure-rs-2-2022</text></g></g><path class="foreground" aria-hidden="true" d="" pointer-events="none" display="none"/></g><g transform="translate(0,195)"><path class="background" aria-hidden="true" d="M0,0h256v11h-256Z" pointer-events="none" opacity="1"/><g><g class="mark-symbol role-legend-symbol" pointer-events="none"><path transform="translate(6,6)" d="M-5,0L5,0" stroke="#eeca3b" stroke-width="1.5" opacity="1"/></g><g class="mark-text role-legend-label" pointer-events="none"><text text-anchor="start" transform="translate(16,9)" font-family="Liberation Mono" font-size="10px" fill="#000" opacity="1">allure-rs-2-2024</text></g></g><path class="foreground" aria-hidden="true" d="" pointer-events="none" display="none"/></g></g></g><path class="foreground" aria-hidden="true" d="" pointer-events="none" display="none"/></g></g><g class="mark-text role-legend-title" pointer-events="none"><text text-anchor="start" transform="translate(0,9)" font-family="Liberation Mono" font-size="11px" font-weight="bold" fill="#000" opacity="1">identifier</text></g></g><path class="foreground" aria-hidden="true" d="" pointer-events="none" display="none"/></g></g></g><path class="foreground" aria-hidden="true" d="" display="none"/></g></g></g></svg>