<svg xmlns="http://www.w3.org/2000/svg" xmlns:xlink="http://www.w3.org/1999/xlink" version="1.1" class="marks" width="548" height="244" viewBox="0 0 548 244"><rect width="548" height="244" fill="white"/><g fill="none" stroke-miterlimit="10" transform="translate(67,7)"><g class="mark-group role-frame root" role="graphics-object" aria-roledescription="group mark container"><g transform="translate(0,0)"><path class="background" aria-hidden="true" d="M0.5,0.5h200v200h-200Z" stroke="#ddd"/><g><g class="mark-group role-axis" aria-hidden="true"><g transform="translate(0.5,200.5)"><path class="background" aria-hidden="true" d="M0,0h0v0h0Z" pointer-events="none"/><g><g class="mark-rule role-axis-grid" pointer-events="none"><line transform="translate(23,-200)" x2="0" y2="200" stroke="#ddd" stroke-width="1" opacity="1"/><line transform="translate(83,-200)" x2="0" y2="200" stroke="#ddd" stroke-width="1" opacity="1"/><line transform="translate(143,-200)" x2="0" y2="200" stroke="#ddd" stroke-width="1" opacity="1"/></g></g><path class="foreground" aria-hidden="true" d="" pointer-events="none" display="none"/></g></g><g class="mark-group role-axis" aria-hidden="true"><g transform="translate(0.5,0.5)"><path class="background" aria-hidden="true" d="M0,0h0v0h0Z" pointer-events="none"/><g><g class="mark-rule role-axis-grid" pointer-events="none"><line transform="translate(0,200)" x2="200" y2="0" stroke="#ddd" stroke-width="1" opacity="1"/><line transform="translate(0,144)" x2="200" y2="0" stroke="#ddd" stroke-width="1" opacity="1"/><line transform="translate(0,89)" x2="200" y2="0" stroke="#ddd" stroke-width="1" opacity="1"/><line transform="translate(0,33)" x2="200" y2="0" stroke="#ddd" stroke-width="1" opacity="1"/></g></g><path class="foreground" aria-hidden="true" d="" pointer-events="none" display="none"/></g></g><g class="mark-group role-axis" role="graphics-symbol" aria-roledescription="axis" aria-label="X-axis titled 'Time' for a time scale with values from Thursday, 14 August 2025, 8:34:48 AM to Saturday, 06 September 2025, 4:45:50 PM"><g transform="translate(0.5,200.5)"><path class="background" aria-hidden="true" d="M0,0h0v0h0Z" pointer-events="none"/><g><g class="mark-rule role-axis-tick" pointer-events="none"><line transform="translate(23,0)" x2="0" y2="5" stroke="#888" stroke-width="1" opacity="1"/><line transform="translate(83,0)" x2="0" y2="5" stroke="#888" stroke-width="1" opacity="1"/><line transform="translate(143,0)" x2="0" y2="5" stroke="#888" stroke-width="1" opacity="1"/></g><g class="mark-text role-axis-label" pointer-events="none"><text text-anchor="middle" transform="translate(22.642488355854436,15)" font-family="Liberation Mono" font-size="10px" fill="#000" opacity="1">Aug 17</text><text text-anchor="middle" transform="translate(82.6227883083196,15)" font-family="Liberation Mono" font-size="10px" fill="#000" opacity="1">Aug 24</text><text text-anchor="middle" transform="translate(142.60308826078477,15)" font-family="Liberation Mono" font-size="10px" fill="#000" opacity="1">Aug 31</text></g><g class="mark-rule role-axis-domain" pointer-events="none"><line transform="translate(0,0)" x2="200" y2="0" stroke="#888" stroke-width="1" opacity="1"/></g><g class="mark-text role-axis-title" pointer-events="none"><text text-anchor="middle" transform="translate(100,30)" font-family="Liberation Mono" font-size="11px" font-weight="bold" fill="#000" opacity="1">Time</text></g></g><path class="foreground" aria-hidden="true" d="" pointer-events="none" display="none"/></g></g><g class="mark-group role-axis" role="graphics-symbol" aria-roledescription="axis" aria-label="Y-axis titled 'Price' for a linear scale with values from 0 to 1,800"><g transform="translate(0.5,0.5)"><path class="background" aria-hidden="true" d="M0,0h0v0h0Z" pointer-events="none"/><g><g class="mark-rule role-axis-tick" pointer-events="none"><line transform="translate(0,200)" x2="-5" y2="0" stroke="#888" stroke-width="1" opacity="1"/><line transform="translate(0,144)" x2="-5" y2="0" stroke="#888" stroke-width="1" opacity="1"/><line transform="translate(0,89)" x2="-5" y2="0" stroke="#888" stroke-width="1" opacity="1"/><line transform="translate(0,33)" x2="-5" y2="0" stroke="#888" stroke-width="1" opacity="1"/></g><g class="mark-text role-axis-label" pointer-events="none"><text text-anchor="end" transform="translate(-7,203)" font-family="Liberation Mono" font-size="10px" fill="#000" opacity="1">0</text><text text-anchor="end" transform="translate(-7,147.44444444444443)" font-family="Liberation Mono" font-size="10px" fill="#000" opacity="1">500</text><text text-anchor="end" transform="translate(-7,91.88888888888889)" font-family="Liberation Mono" font-size="10px" fill="#000" opacity="1">1,000</text><text text-anchor="end" transform="translate(-7,36.33333333333333)" font-family="Liberation Mono" font-size="10px" fill="#000" opacity="1">1,500</text></g><g class="mark-rule role-axis-domain" pointer-events="none"><line transform="translate(0,200)" x2="0" y2="-200" stroke="#888" stroke-width="1" opacity="1"/></g><g class="mark-text role-axis-title" pointer-events="none"><text text-anchor="middle" transform="translate(-51,100) rotate(-90) translate(0,-2)" font-family="Liberation Mono" font-size="11px" font-weight="bold" fill="#000" opacity="1">Price</text></g></g><path class="foreground" aria-hidden="true" d="" pointer-events="none" display="none"/></g></g><g class="mark-group role-scope pathgroup" role="graphics-object" aria-roledescription="group mark container"><g transform="translate(0,0)"><path class="background" aria-hidden="true" d="M0,0h200v200h-200Z"/><g><g class="mark-line role-mark marks" role="graphics-object" aria-roledescription="line mark container"><path aria-label="Time: Aug 14, 2025; Price: 899; identifier: escape-city-disc-1-2024" role="graphics-symbol" aria-roledescription="line mark" d="M0,100.111L0.071,100.111L0.127,100.111L1.707,100.111L2.963,100.111L4.371,100.111L7.261,100.111L8.68,100.111L10.247,100.111L11.533,100.111L12.934,100.111L15.802,100.111L17.238,100.111L18.759,100.111L20.085,100.111L21.49,100.111L24.404,100.111L25.804,100.111L27.332,100.111L28.659,100.111L30.069,100.111L32.997,100.111L34.404,100.111L35.982,100.111L36.536,100.111L37.256,100.111L38.63,100.111L41.5,100.111L42.951,100.111L44.472,100.111L45.802,100.111L47.195,100.111L50.072,100.111L51.508,100.111L53.092,100.111L53.733,100.111L54.367,100.111L55.774,100.111L58.635,100.111L60.083,100.111L61.612,100.111L62.942,100.111L64.338,100.111L67.206,100.111L68.65,100.111L70.177,100.111L71.501,100.111L72.902,100.111L75.768,100.111L77.205,100.111L78.719,100.111L80.047,100.111L81.462,100.111L84.347,100.111L85.767,100.111L87.292,100.111L88.627,100.111L90.033,100.111L92.928,100.111L94.374,100.111L95.937,100.111L97.217,100.111L98.612,100.111L101.483,100.111L102.937,100.111L105.777,100.111L107.171,100.111L110.04,100.111L111.488,100.111L112.05,100.111L113.015,100.111L113.97,100.111L114.344,100.111L115.746,100.111L118.608,100.111L120.06,100.111L121.587,100.111L122.912,100.111L124.312,100.111L127.177,100.111L128.623,100.111L130.145,100.111L131.477,100.111L132.875,100.111L135.736,100.111L137.172,100.111L138.687,100.111L140.025,100.111L141.371,100.111L141.439,100.111L144.308,100.111L145.223,100.111L145.736,100.111L147.26,100.111L148.598,100.111L150.01,100.111L152.904,100.111L154.344,100.111L155.865,100.111L157.177,100.111L158.577,100.111L161.459,100.111L162.907,100.111L164.438,100.111L165.751,100.111L167.151,100.111L170.016,100.111L171.462,100.111L172.989,100.111L174.316,100.111L175.717,100.111L178.582,100.111L180.034,100.111L181.549,100.111L182.89,100.111L184.283,100.111L187.155,100.111L188.601,100.111L190.123,100.111L191.442,100.111L192.855,100.111L195.714,100.111L196.449,100.111L197.144,100.111L198.655,100.111L199.997,100.111" stroke="#f58518" stroke-width="2"/></g></g><path class="foreground" aria-hidden="true" d="" display="none"/></g><g transform="translate(0,0)"><path class="background" aria-hidden="true" d="M0,0h200v200h-200Z"/><g><g class="mark-line role-mark marks" role="graphics-object" aria-roledescription="line mark container"><path aria-label="Time: Aug 14, 2025; Price: 999; identifier: roam-2" role="graphics-symbol" aria-roledescription="line mark" d="M0,89L0.071,89L0.128,89L1.707,89L2.963,89L4.371,89L7.262,89L8.681,89L10.248,89L11.533,89L12.934,89L15.803,89L17.238,89L18.759,89L20.085,89L21.503,89L24.404,89L25.804,89L27.332,89L28.66,89L30.07,89L32.997,89L34.404,89L35.983,89L36.536,89L37.256,89L38.63,89L41.501,89L42.951,89L44.473,89L45.802,89L47.195,89L50.072,89L51.508,89L53.092,89L53.733,89L54.368,89L55.774,89L58.636,89L60.084,89L61.613,89L62.942,89L64.338,89L67.206,89L68.65,89L70.178,89L71.502,89L72.902,89L75.769,89L77.205,89L78.72,89L80.048,89L81.462,89L84.348,89L85.768,89L87.293,89L88.627,89L90.034,89L92.928,89L94.374,89L95.938,89L97.217,89L98.612,89L101.483,89L102.938,89L105.777,89L107.172,89L110.041,89L111.489,89L112.051,89L113.015,89L113.971,89L114.345,89L115.746,89L118.608,89L120.061,89L121.587,89L122.912,89L124.312,89L127.177,89L128.624,89L130.146,89L131.477,89L132.875,89L135.736,89L137.172,89L138.688,89L140.025,89L141.372,89L141.439,89L144.308,89L145.224,89L145.737,89L147.261,89L148.598,89L150.011,89L152.904,89L154.345,89L155.865,89L157.177,89L158.577,89L161.459,89L162.908,89L164.439,89L165.752,89L167.152,89L170.017,89L171.463,89L172.989,89L174.316,89L175.717,89L178.583,89L180.035,89L181.55,89L182.891,89L184.284,89L187.155,89L188.601,89L190.123,89L191.443,89L192.855,89L195.715,89L196.45,89L197.144,89L198.656,89L199.997,89" stroke="#ff9da6" stroke-width="2"/></g></g><path class="foreground" aria-hidden="true" d="" display="none"/></g><g transform="translate(0,0)"><path class="background" aria-hidden="true" d="M0,0h200v200h-200Z"/><g><g class="mark-line role-mark marks" role="graphics-object" aria-roledescription="line mark container"><path aria-label="Time: Aug 14, 2025; Price: 999; identifier: fastroad-sl-3-2022" role="graphics-symbol" aria-roledescription="line mark" d="M0,89L0.071,89L0.128,89L1.708,89L2.963,89L4.372,89L7.262,89L8.681,89L10.248,89L11.533,89L12.935,89L15.803,89L17.239,89L18.76,89L20.085,89L21.503,89L24.404,89L25.804,89L27.332,89L28.66,89L30.07,89L32.997,89L34.404,89L35.983,89L36.537,89L37.256,89L38.63,89L41.501,89L42.951,89L44.473,89L45.802,89L47.196,89L50.072,89L51.509,89L53.093,89L53.734,89L54.368,89L55.774,89L58.636,89L60.084,89L61.613,89L62.942,89L64.338,89L67.207,89L68.65,89L70.178,89L71.502,89L72.902,89L75.769,89L77.205,89L78.72,89L80.048,89L81.462,89L84.348,89L85.768,89L87.293,89L88.627,89L90.034,89L92.929,89L94.375,89L95.938,89L97.217,89L98.612,89L101.483,89L102.938,89L105.778,89L107.172,89L110.041,89L111.489,89L112.051,89L113.015,89L113.971,89L114.345,89L115.747,89L118.608,89L120.061,89L121.587,89L122.912,89L124.312,89L127.177,89L128.624,89L130.146,89L131.477,89L132.876,89L135.736,89L137.172,89L138.688,89L140.025,89L141.372,89L141.439,89L144.308,89L145.224,89L145.737,89L147.261,89L148.598,89L150.011,89L152.904,89L154.345,89L155.865,89L157.178,89L158.577,89L161.459,89L162.908,89L164.439,89L165.752,89L167.152,89L170.017,89L171.463,89L172.989,89L174.316,89L175.718,89L178.583,89L180.035,89L181.55,89L182.891,89L184.284,89L187.155,89L188.601,89L190.123,89L191.443,89L192.856,89L195.715,89L196.45,89L197.145,89L198.656,89L199.997,89" stroke="#9d755d" stroke-width="2"/></g></g><path class="foreground" aria-hidden="true" d="" display="none"/></g><g transform="translate(0,0)"><path class="background" aria-hidden="true" d="M0,0h200v200h-200Z"/><g><g class="mark-line role-mark marks" role="graphics-object" aria-roledescription="line mark container"><path aria-label="Time: Aug 14, 2025; Price: 1199; identifier: fastroad-ar-2" role="graphics-symbol" aria-roledescription="line mark" d="M0.001,66.778L0.072,66.778L0.128,66.778L1.708,66.778L2.963,66.778L4.372,66.778L7.262,66.778L8.681,66.778L10.248,66.778L11.533,66.778L12.935,66.778L15.803,66.778L17.239,66.778L18.76,66.778L20.085,66.778L21.51,66.778L24.404,66.778L25.804,66.778L27.332,66.778L28.66,66.778L30.07,66.778L32.997,66.778L34.404,66.778L35.983,66.778L36.537,66.778L37.256,66.778L38.63,66.778L41.501,66.778L42.951,66.778L44.473,66.778L45.802,66.778L47.196,66.778L50.072,66.778L51.509,66.778L53.093,66.778L53.734,66.778L54.368,66.778L55.775,66.778L58.636,66.778L60.084,66.778L61.613,66.778L62.942,66.778L64.339,66.778L67.207,66.778L68.65,66.778L70.178,66.778L71.502,66.778L72.903,66.778L75.769,66.778L77.205,66.778L78.72,66.778L80.048,66.778L81.463,66.778L84.348,66.778L85.768,66.778L87.293,66.778L88.627,66.778L90.034,66.778L92.929,66.778L94.375,66.778L95.938,66.778L97.217,66.778L98.612,66.778L101.484,66.778L102.938,66.778L105.778,66.778L107.172,66.778L110.041,66.778L111.489,66.778L112.052,66.778L113.015,66.778L113.971,66.778L114.345,66.778L115.747,66.778L118.608,66.778L120.061,66.778L121.588,66.778L122.912,66.778L124.312,66.778L127.178,66.778L128.624,66.778L130.146,66.778L131.477,66.778L132.876,66.778L135.737,66.778L137.172,66.778L138.688,66.778L140.025,66.778L141.372,66.778L141.439,66.778L144.309,66.778L145.224,66.778L145.737,66.778L147.261,66.778L148.598,66.778L150.011,66.778L152.905,66.778L154.345,66.778L155.866,66.778L157.178,66.778L158.578,66.778L161.46,66.778L162.908,66.778L164.439,66.778L165.752,66.778L167.152,66.778L170.017,66.778L171.463,66.778L172.989,66.778L174.316,66.778L175.718,66.778L178.583,66.778L180.035,66.778L181.55,66.778L182.891,66.778L184.284,66.778L187.156,66.778L188.602,66.778L190.123,66.778L191.443,66.778L192.856,66.778L195.715,66.778L196.45,66.778L197.145,66.778L198.656,66.778L199.998,66.778" stroke="#54a24b" stroke-width="2"/></g></g><path class="foreground" aria-hidden="true" d="" display="none"/></g><g transform="translate(0,0)"><path class="background" aria-hidden="true" d="M0,0h200v200h-200Z"/><g><g class="mark-line role-mark marks" role="graphics-object" aria-roledescription="line mark container"><path aria-label="Time: Aug 18, 2025; Price: 899; identifier: sdrbike-escape-1-city-disc" role="graphics-symbol" aria-roledescription="line mark" d="M36.537,100.111L37.257,100.111L38.63,100.111L41.501,100.111L42.951,100.111L44.473,100.111L45.803,100.111L47.196,100.111L50.073,100.111L51.509,100.111L53.093,100.111L53.734,100.111L54.368,100.111L55.775,100.111L58.636,100.111L60.084,100.111L61.613,100.111L62.942,100.111L64.339,100.111L67.207,100.111L68.651,100.111L70.178,100.111L71.502,100.111L72.903,100.111L75.769,100.111L77.206,100.111L78.72,100.111L80.048,100.111L81.463,100.111L84.348,100.111L85.769,100.111L87.294,100.111L88.627,100.111L90.034,100.111L92.929,100.111L94.375,100.111L95.938,100.111L97.218,100.111L98.613,100.111L101.484,100.111L102.938,100.111L105.778,100.111L107.172,100.111L110.042,100.111L111.489,100.111L112.052,100.111L113.016,100.111L113.971,100.111L114.345,100.111L115.747,100.111L118.609,100.111L120.062,100.111L121.588,100.111L122.912,100.111L124.312,100.111L127.178,100.111L128.624,100.111L130.146,100.111L131.478,100.111L132.876,100.111L135.737,100.111L137.173,100.111L138.689,100.111L140.025,100.111L141.373,100.111L141.439,100.111L144.309,100.111L145.224,100.111L145.738,100.111L147.261,100.111L148.599,100.111L150.011,100.111L152.905,100.111L154.345,100.111L155.866,100.111L157.178,100.111L158.578,100.111L161.46,100.111L162.909,100.111L164.44,100.111L165.752,100.111L167.152,100.111L170.017,100.111L171.463,100.111L172.99,100.111L174.317,100.111L175.718,100.111L178.584,100.111L180.035,100.111L181.55,100.111L182.891,100.111L184.285,100.111L187.156,100.111L188.602,100.111L190.124,100.111L191.444,100.111L192.856,100.111L195.715,100.111L196.45,100.111L197.145,100.111L198.656,100.111L199.998,100.111" stroke="#e45756" stroke-width="2"/></g></g><path class="foreground" aria-hidden="true" d="" display="none"/></g><g transform="translate(0,0)"><path class="background" aria-hidden="true" d="M0,0h200v200h-200Z"/><g><g class="mark-line role-mark marks" role="graphics-object" aria-roledescription="line mark container"><path aria-label="Time: Aug 20, 2025; Price: 899; identifier: roam-disc-2-2024" role="graphics-symbol" aria-roledescription="line mark" d="M53.733,100.111L54.367,100.111L55.774,100.111L58.635,100.111L60.084,100.111L61.612,100.111L62.942,100.111L64.338,100.111L67.206,100.111L68.65,100.111L70.177,100.111L71.501,100.111L72.902,100.111L75.769,100.111L77.205,100.111L78.719,100.111L80.048,100.111L81.462,100.111L84.348,100.111L85.768,100.111L87.293,100.111L88.627,100.111L90.033,100.111L92.928,100.111L94.374,100.111L95.937,100.111L97.217,100.111L98.612,100.111L101.483,100.111L102.937,100.111L105.777,100.111L107.172,100.111L110.041,100.111L111.489,100.111L112.051,100.111L113.015,100.111L113.97,100.111L114.345,100.111L115.746,100.111L118.608,100.111L120.061,100.111L121.587,100.111L122.912,100.111L124.312,100.111L127.177,100.111L128.624,100.111L130.146,100.111L131.477,100.111L132.875,100.111L135.736,100.111L137.172,100.111L138.688,100.111L140.025,100.111L141.372,100.111L141.439,100.111L144.308,100.111L145.223,100.111L145.737,100.111L147.26,100.111L148.598,100.111L150.01,100.111L152.904,100.111L154.345,100.111L155.865,100.111L157.177,100.111L158.577,100.111L161.459,100.111L162.908,100.111L164.439,100.111L165.751,100.111L167.151,100.111L170.017,100.111L171.463,100.111L172.989,100.111L174.316,100.111L175.717,100.111L178.583,100.111L180.034,100.111L181.55,100.111L182.89,100.111L184.284,100.111L187.155,100.111L188.601,100.111L190.123,100.111L191.443,100.111L192.855,100.111L195.714,100.111L196.449,100.111L197.144,100.111L198.655,100.111L199.997,100.111" stroke="#72b7b2" stroke-width="2"/></g></g><path class="foreground" aria-hidden="true" d="" display="none"/></g><g transform="translate(0,0)"><path class="background" aria-hidden="true" d="M0,0h200v200h-200Z"/><g><g class="mark-line role-mark marks" role="graphics-object" aria-roledescription="line mark container"><path aria-label="Time: Aug 20, 2025; Price: 1199; identifier: thrive-2" role="graphics-symbol" aria-roledescription="line mark" d="M53.734,66.778L54.369,66.778L55.775,66.778L58.636,66.778L60.085,66.778L61.614,66.778L62.943,66.778L64.339,66.778L67.207,66.778L68.651,66.778L70.179,66.778L71.502,66.778L72.903,66.778L75.77,66.778L77.206,66.778L78.721,66.778L80.049,66.778L81.463,66.778L84.349,66.778L85.769,66.778L87.294,66.778L88.628,66.778L90.034,66.778L92.929,66.778L94.375,66.778L95.939,66.778L97.218,66.778L98.613,66.778L101.485,66.778L102.938,66.778L105.778,66.778L107.173,66.778L110.042,66.778L111.49,66.778L112.053,66.778L113.016,66.778L113.971,66.778L114.346,66.778L115.747,66.778L118.609,66.778L120.062,66.778L121.588,66.778L122.913,66.778L124.313,66.778L127.178,66.778L128.625,66.778L130.147,66.778L131.478,66.778L132.877,66.778L135.737,66.778L137.173,66.778L138.689,66.778L140.026,66.778L141.373,66.778L141.44,66.778L144.309,66.778L145.224,66.778L145.738,66.778L147.262,66.778L148.599,66.778L150.011,66.778L152.905,66.778L154.345,66.778L155.866,66.778L157.178,66.778L158.578,66.778L161.46,66.778L162.909,66.778L164.44,66.778L165.752,66.778L167.153,66.778L170.018,66.778L171.464,66.778L172.99,66.778L174.317,66.778L175.718,66.778L178.584,66.778L180.035,66.778L181.551,66.778L182.892,66.778L184.285,66.778L187.156,66.778L188.602,66.778L190.124,66.778L191.444,66.778L192.856,66.778L195.715,66.778L196.45,66.778L197.145,66.778L198.657,66.778L199.998,66.778" stroke="#eeca3b" stroke-width="2"/></g></g><path class="foreground" aria-hidden="true" d="" display="none"/></g><g transform="translate(0,0)"><path class="background" aria-hidden="true" d="M0,0h200v200h-200Z"/><g><g class="mark-line role-mark marks" role="graphics-object" aria-roledescription="line mark container"><path aria-label="Time: Aug 20, 2025; Price: 999; identifier: rove-2" role="graphics-symbol" aria-roledescription="line mark" d="M53.735,89L54.369,89L55.776,89L58.636,89L60.085,89L61.614,89L62.943,89L64.339,89L67.208,89L68.651,89L70.179,89L71.503,89L72.903,89L75.77,89L77.206,89L78.721,89L80.049,89L81.463,89L84.349,89L85.769,89L87.294,89L88.628,89L90.034,89L92.929,89L94.375,89L95.939,89L97.218,89L98.613,89L101.485,89L102.939,89L105.779,89L107.173,89L110.042,89L111.49,89L112.053,89L113.016,89L113.971,89L114.346,89L115.748,89L118.609,89L120.062,89L121.588,89L122.913,89L124.313,89L127.178,89L128.625,89L130.147,89L131.478,89L132.877,89L141.373,111.222L141.44,111.222L144.309,111.222L145.224,111.222L145.738,111.222L147.262,111.222L148.599,111.222L150.011,111.222L152.905,111.222L154.346,111.222L155.866,111.222L157.179,111.222L158.578,111.222L161.46,111.222L162.909,111.222L164.44,111.222L165.752,111.222L167.153,111.222L170.018,111.222L171.464,111.222L172.99,111.222L174.317,111.222L175.718,111.222L178.584,111.222L180.036,111.222L181.551,111.222L182.892,111.222L184.285,111.222L187.156,111.222L188.602,111.222L190.124,111.222L191.444,111.222L192.856,111.222L195.716,111.222L196.451,111.222L197.145,111.222L198.657,111.222L199.998,111.222" stroke="#bab0ac" stroke-width="2"/></g></g><path class="foreground" aria-hidden="true" d="" display="none"/></g><g transform="translate(0,0)"><path class="background" aria-hidden="true" d="M0,0h200v200h-200Z"/><g><g class="mark-line role-mark marks" role="graphics-object" aria-roledescription="line mark container"><path aria-label="Time: Aug 27, 2025; Price: 1199; identifier: allure-rs-1-2023" role="graphics-symbol" aria-roledescription="line mark" d="M112.054,66.778L113.016,66.778L113.972,66.778L114.346,66.778L115.748,66.778L118.609,66.778L120.062,66.778L121.589,66.778L122.913,66.778L124.313,66.778L127.178,66.778L128.625,66.778L130.147,66.778L131.478,66.778L132.877,66.778L135.737,66.778L137.173,66.778L138.689,66.778L140.026,66.778L141.374,66.778L141.44,66.778L144.309,66.778L145.225,66.778L145.738,66.778L147.262,66.778L148.599,66.778L150.012,66.778L152.905,66.778L154.346,66.778L155.866,66.778L157.179,66.778L158.579,66.778L161.461,66.778L162.909,66.778L164.44,66.778L165.753,66.778L167.153,66.778L170.018,66.778L171.464,66.778L172.99,66.778L174.317,66.778L175.718,66.778L178.584,66.778L180.036,66.778L181.551,66.778L182.892,66.778L184.285,66.778L187.156,66.778L188.602,66.778L190.124,66.778L191.444,66.778L192.857,66.778L195.716,66.778L196.451,66.778L197.146,66.778L198.657,66.778L199.998,66.778" stroke="#b279a2" stroke-width="2"/></g></g><path class="foreground" aria-hidden="true" d="" display="none"/></g><g transform="translate(0,0)"><path class="background" aria-hidden="true" d="M0,0h200v200h-200Z"/><g><g class="mark-line role-mark marks" role="graphics-object" aria-roledescription="line mark container"><path aria-label="Time: Aug 27, 2025; Price: 999; identifier: allure-rs-2-2022" role="graphics-symbol" aria-roledescription="line mark" d="M112.054,89L113.016,89L113.972,89L114.346,89L115.748,89L118.61,89L120.063,89L121.589,89L122.913,89L124.313,89L127.179,89L128.625,89L130.147,89L131.478,89L132.877,89L141.374,111.222L141.44,111.222L144.31,111.222L145.225,111.222L145.739,111.222L147.262,111.222L148.599,111.222L150.012,111.222L152.906,111.222L154.346,111.222L155.867,111.222L157.179,111.222L158.579,111.222L161.461,111.222L162.909,111.222L164.441,111.222L165.753,111.222L167.153,111.222L170.018,111.222L171.464,111.222L172.99,111.222L174.317,111.222L175.719,111.222L178.585,111.222L180.036,111.222L181.551,111.222L182.892,111.222L184.286,111.222L187.157,111.222L188.603,111.222L190.124,111.222L191.444,111.222L192.857,111.222L195.716,111.222L196.451,111.222L197.146,111.222L198.657,111.222L199.999,111.222" stroke="#54a24b" stroke-width="2"/></g></g><path class="foreground" aria-hidden="true" d="" display="none"/></g><g transform="translate(0,0)"><path class="background" aria-hidden="true" d="M0,0h200v200h-200Z"/><g><g class="mark-line role-mark marks" role="graphics-object" aria-roledescription="line mark container"><path aria-label="Time: Aug 27, 2025; Price: 949; identifier: allure-rs-2-2023" role="graphics-symbol" aria-roledescription="line mark" d="M112.055,94.556L113.017,94.556L113.972,94.556L114.346,94.556L115.748,94.556L118.61,94.556L120.063,94.556L121.589,94.556L122.913,94.556L124.313,94.556L127.179,94.556L128.625,94.556L130.148,94.556L131.478,94.556L132.877,94.556L135.738,94.556L137.174,94.556L138.69,94.556L140.026,94.556L141.374,94.556L141.44,94.556L144.31,94.556L145.225,94.556L145.739,94.556L147.262,94.556L148.6,94.556L150.012,94.556L152.906,94.556L154.346,94.556L155.867,94.556L157.179,94.556L158.579,94.556L161.461,94.556L162.909,94.556L164.441,94.556L165.753,94.556L167.153,94.556L170.018,94.556L171.464,94.556L172.991,94.556L174.317,94.556L175.719,94.556L178.585,94.556L180.036,94.556L181.551,94.556L182.892,94.556L184.286,94.556L187.157,94.556L188.603,94.556L190.125,94.556L191.445,94.556L192.857,94.556L195.716,94.556L196.451,94.556L197.146,94.556L198.658,94.556L199.999,94.556" stroke="#4c78a8" stroke-width="2"/></g></g><path class="foreground" aria-hidden="true" d="" display="none"/></g><g transform="translate(0,0)"><path class="background" aria-hidden="true" d="M0,0h200v200h-200Z"/><g><g class="mark-line role-mark marks" role="graphics-object" aria-roledescription="line mark container"><path aria-label="Time: Aug 27, 2025; Price: 999; identifier: allure-rs-2-2024" role="graphics-symbol" aria-roledescription="line mark" d="M112.055,89L113.017,89L113.972,89L114.346,89L115.749,89L118.61,89L120.063,89L121.589,89L122.914,89L124.313,89L127.179,89L128.626,89L130.148,89L131.479,89L132.878,89L141.374,111.222L141.44,111.222L144.31,111.222L145.225,111.222L145.739,111.222L147.263,111.222L148.6,111.222L150.012,111.222L152.906,111.222L154.346,111.222L155.867,111.222L157.179,111.222L158.579,111.222L161.461,111.222L162.91,111.222L164.441,111.222L165.753,111.222L167.154,111.222L170.018,111.222L171.464,111.222L172.991,111.222L174.318,111.222L175.719,111.222L178.585,111.222L180.036,111.222L181.551,111.222L182.893,111.222L184.286,111.222L187.157,111.222L188.603,111.222L190.125,111.222L191.445,111.222L192.857,111.222L195.716,111.222L196.451,111.222L197.146,111.222L198.658,111.222L199.999,111.222" stroke="#eeca3b" stroke-width="2"/></g></g><path class="foreground" aria-hidden="true" d="" display="none"/></g><g transform="translate(0,0)"><path class="background" aria-hidden="true" d="M0,0h200v200h-200Z"/><g><g class="mark-line role-mark marks" role="graphics-object" aria-roledescription="line mark container"><path aria-label="Time: Aug 27, 2025; Price: 1799; identifier: devote-1-2024" role="graphics-symbol" aria-roledescription="line mark" d="M113.972,0.111L114.347,0.111L115.749,0.111L118.61,0.111L120.063,0.111L121.589,0.111L122.914,0.111L124.314,0.111L127.179,0.111L128.626,0.111L130.148,0.111L131.479,0.111L132.878,0.111L141.374,44.556L141.441,44.556L144.31,44.556L145.225,44.556L145.739,44.556L147.263,44.556L148.6,44.556L150.012,44.556L152.906,44.556L154.347,44.556L155.867,44.556L157.18,44.556L158.579,44.556L161.461,44.556L162.91,44.556L164.441,44.556L165.753,44.556L167.154,44.556L170.019,44.556L171.465,44.556L172.991,44.556L174.318,44.556L175.719,44.556L178.585,44.556L180.037,44.556L181.552,44.556L182.893,44.556L184.286,44.556L187.157,44.556L188.603,44.556L190.125,44.556L191.445,44.556L192.857,44.556L195.717,44.556L196.451,44.556L197.147,44.556L198.658,44.556L199.999,44.556" stroke="#72b7b2" stroke-width="2"/></g></g><path class="foreground" aria-hidden="true" d="" display="none"/></g><g transform="translate(0,0)"><path class="background" aria-hidden="true" d="M0,0h200v200h-200Z"/><g><g class="mark-line role-mark marks" role="graphics-object" aria-roledescription="line mark container"><path aria-label="Time: Aug 27, 2025; Price: 1699; identifier: devote-1-2022" role="graphics-symbol" aria-roledescription="line mark" d="M113.972,11.222L114.347,11.222L115.749,11.222L118.61,11.222L120.063,11.222L121.59,11.222L122.914,11.222L124.314,11.222L127.179,11.222L128.626,11.222L130.148,11.222L131.479,11.222L132.878,11.222L135.738,11.222L137.174,11.222L138.691,11.222L140.027,11.222L141.375,11.222L141.441,11.222L144.31,11.222L145.225,11.222L145.739,11.222L147.263,11.222L148.6,11.222L150.012,11.222L152.906,11.222L154.347,11.222L155.867,11.222L157.18,11.222L158.58,11.222L161.462,11.222L162.91,11.222L164.442,11.222L165.753,11.222L167.154,11.222L170.019,11.222L171.465,11.222L172.991,11.222L174.318,11.222L175.719,11.222L178.585,11.222L180.037,11.222L181.552,11.222L182.893,11.222L184.286,11.222L187.157,11.222L188.603,11.222L190.125,11.222L191.445,11.222L192.857,11.222L195.717,11.222L196.451,11.222L197.147,11.222L198.658,11.222L199.999,11.222" stroke="#4c78a8" stroke-width="2"/></g></g><path class="foreground" aria-hidden="true" d="" display="none"/></g><g transform="translate(0,0)"><path class="background" aria-hidden="true" d="M0,0h200v200h-200Z"/><g><g class="mark-line role-mark marks" role="graphics-object" aria-roledescription="line mark container"><path aria-label="Time: Aug 31, 2025; Price: 1599; identifier: silex-400-oak-bork-2026" role="graphics-symbol" aria-roledescription="line mark" d="M145.226,22.333L145.74,22.333L147.264,22.333L148.6,22.333L150.013,22.333L152.907,22.333L154.347,22.333L155.868,22.333L157.18,22.333L158.58,22.333L161.462,22.333L162.91,22.333L164.442,22.333L165.754,22.333L167.154,22.333L170.019,22.333L171.465,22.333L172.991,22.333L174.318,22.333L175.72,22.333L178.586,22.333L180.037,22.333L181.552,22.333L182.894,22.333L184.287,22.333L187.158,22.333L188.603,22.333L190.125,22.333L191.446,22.333L192.858,22.333L195.717,22.333L196.452,22.333L197.147,22.333L198.659,22.333L200,22.333" stroke="#f58518" stroke-width="2"/></g></g><path class="foreground" aria-hidden="true" d="" display="none"/></g><g transform="translate(0,0)"><path class="background" aria-hidden="true" d="M0,0h200v200h-200Z"/><g><g class="mark-line role-mark marks" role="graphics-object" aria-roledescription="line mark container"><path aria-label="Time: Aug 31, 2025; Price: 1599; identifier: silex-400-warm-slate-grey-2026" role="graphics-symbol" aria-roledescription="line mark" d="M145.226,22.333L145.74,22.333L147.264,22.333L148.601,22.333L150.013,22.333L152.907,22.333L154.347,22.333L155.868,22.333L157.181,22.333L158.581,22.333L161.462,22.333L162.911,22.333L164.443,22.333L165.754,22.333L167.155,22.333L170.019,22.333L171.465,22.333L172.992,22.333L174.319,22.333L175.72,22.333L178.586,22.333L180.038,22.333L181.553,22.333L182.894,22.333L184.287,22.333L187.158,22.333L188.604,22.333L190.126,22.333L191.446,22.333L192.858,22.333L195.717,22.333L196.452,22.333L197.148,22.333L198.659,22.333L200,22.333" stroke="#e45756" stroke-width="2"/></g></g><path class="foreground" aria-hidden="true" d="" display="none"/></g></g><g class="mark-group role-legend" role="graphics-symbol" aria-roledescription="legend" aria-label="Symbol legend titled 'identifier' for stroke color with 16 values: devote-1-2022, silex-400-oak-bork-2026, silex-400-warm-slate-grey-2026, devote-1-2024, fastroad-ar-2, ending with allure-rs-2-2024"><g transform="translate(220,0)"><path class="background" aria-hidden="true" d="M0,0h256v222h-256Z" pointer-events="none"/><g><g class="mark-group role-legend-entry"><g transform="translate(0,16)"><path class="background" aria-hidden="true" d="M0,0h0v0h0Z" pointer-events="none"/><g><g class="mark-group role-scope" role="graphics-object" aria-roledescription="group mark container"><g transform="translate(0,0)"><path class="background" aria-hidden="true" d="M0,0h256v11h-256Z" pointer-events="none" opacity="1"/><g><g class="mark-symbol role-legend-symbol" pointer-events="none"><path transform="translate(6,6)" d="M-5,0L5,0" stroke="#4c78a8" stroke-width="1.5" opacity="1"/></g><g class="mark-text role-legend-label" pointer-events="none"><text text-anchor="start" transform="translate(16,9)" font-family="Liberation Mono" font-size="10px" fill="#000" opacity="1">devote-1-2022</text></g></g><path class="foreground" aria-hidden="true" d="" pointer-events="none" display="none"/></g><g transform="translate(0,13)"><path class="background" aria-hidden="true" d="M0,0h256v11h-256Z" pointer-events="none" opacity="1"/><g><g class="mark-symbol role-legend-symbol" pointer-events="none"><path transform="translate(6,6)" d="M-5,0L5,0" stroke="#f58518" stroke-width="1.5" opacity="1"/></g><g class="mark-text role-legend-label" pointer-events="none"><text text-anchor="start" transform="translate(16,9)" font-family="Liberation Mono" font-size="10px" fill="#000" opacity="1">silex-400-oak-bork-2026</text></g></g><path class="foreground" aria-hidden="true" d="" pointer-events="none" display="none"/></g><g transform="translate(0,26)"><path class="background" aria-hidden="true" d="M0,0h256v11h-256Z" pointer-events="none" opacity="1"/><g><g class="mark-symbol role-legend-symbol" pointer-events="none"><path transform="translate(6,6)" d="M-5,0L5,0" stroke="#e45756" stroke-width="1.5" opacity="1"/></g><g class="mark-text role-legend-label" pointer-events="none"><text text-anchor="start" transform="translate(16,9)" font-family="Liberation Mono" font-size="10px" fill="#000" opacity="1">silex-400-warm-slate-grey-2026</text></g></g><path class="foreground" aria-hidden="true" d="" pointer-events="none" display="none"/></g><g transform="translate(0,39)"><path class="background" aria-hidden="true" d="M0,0h256v11h-256Z" pointer-events="none" opacity="1"/><g><g class="mark-symbol role-legend-symbol" pointer-events="none"><path transform="translate(6,6)" d="M-5,0L5,0" stroke="#72b7b2" stroke-width="1.5" opacity="1"/></g><g class="mark-text role-legend-label" pointer-events="none"><text text-anchor="start" transform="translate(16,9)" font-family="Liberation Mono" font-size="10px" fill="#000" opacity="1">devote-1-2024</text></g></g><path class="foreground" aria-hidden="true" d="" pointer-events="none" display="none"/></g><g transform="translate(0,52)"><path class="background" aria-hidden="true" d="M0,0h256v11h-256Z" pointer-events="none" opacity="1"/><g><g class="mark-symbol role-legend-symbol" pointer-events="none"><path transform="translate(6,6)" d="M-5,0L5,0" stroke="#54a24b" stroke-width="1.5" opacity="1"/></g><g class="mark-text role-legend-label" pointer-events="none"><text text-anchor="start" transform="translate(16,9)" font-family="Liberation Mono" font-size="10px" fill="#000" opacity="1">fastroad-ar-2</text></g></g><path class="foreground" aria-hidden="true" d="" pointer-events="none" display="none"/></g><g transform="translate(0,65)"><path class="background" aria-hidden="true" d="M0,0h256v11h-256Z" pointer-events="none" opacity="1"/><g><g class="mark-symbol role-legend-symbol" pointer-events="none"><path transform="translate(6,6)" d="M-5,0L5,0" stroke="#eeca3b" stroke-width="1.5" opacity="1"/></g><g class="mark-text role-legend-label" pointer-events="none"><text text-anchor="start" transform="translate(16,9)" font-family="Liberation Mono" font-size="10px" fill="#000" opacity="1">thrive-2</text></g></g><path class="foreground" aria-hidden="true" d="" pointer-events="none" display="none"/></g><g transform="translate(0,78)"><path class="background" aria-hidden="true" d="M0,0h256v11h-256Z" pointer-events="none" opacity="1"/><g><g class="mark-symbol role-legend-symbol" pointer-events="none"><path transform="translate(6,6)" d="M-5,0L5,0" stroke="#b279a2" stroke-width="1.5" opacity="1"/></g><g class="mark-text role-legend-label" pointer-events="none"><text text-anchor="start" transform="translate(16,9)" font-family="Liberation Mono" font-size="10px" fill="#000" opacity="1">allure-rs-1-2023</text></g></g><path class="foreground" aria-hidden="true" d="" pointer-events="none" display="none"/></g><g transform="translate(0,91)"><path class="background" aria-hidden="true" d="M0,0h256v11h-256Z" pointer-events="none" opacity="1"/><g><g class="mark-symbol role-legend-symbol" pointer-events="none"><path transform="translate(6,6)" d="M-5,0L5,0" stroke="#ff9da6" stroke-width="1.5" opacity="1"/></g><g class="mark-text role-legend-label" pointer-events="none"><text text-anchor="start" transform="translate(16,9)" font-family="Liberation Mono" font-size="10px" fill="#000" opacity="1">roam-2</text></g></g><path class="foreground" aria-hidden="true" d="" pointer-events="none" display="none"/></g><g transform="translate(0,104)"><path class="background" aria-hidden="true" d="M0,0h256v11h-256Z" pointer-events="none" opacity="1"/><g><g class="mark-symbol role-legend-symbol" pointer-events="none"><path transform="translate(6,6)" d="M-5,0L5,0" stroke="#9d755d" stroke-width="1.5" opacity="1"/></g><g class="mark-text role-legend-label" pointer-events="none"><text text-anchor="start" transform="translate(16,9)" font-family="Liberation Mono" font-size="10px" fill="#000" opacity="1">fastroad-sl-3-2022</text></g></g><path class="foreground" aria-hidden="true" d="" pointer-events="none" display="none"/></g><g transform="translate(0,117)"><path class="background" aria-hidden="true" d="M0,0h256v11h-256Z" pointer-events="none" opacity="1"/><g><g class="mark-symbol role-legend-symbol" pointer-events="none"><path transform="translate(6,6)" d="M-5,0L5,0" stroke="#bab0ac" stroke-width="1.5" opacity="1"/></g><g class="mark-text role-legend-label" pointer-events="none"><text text-anchor="start" transform="translate(16,9)" font-family="Liberation Mono" font-size="10px" fill="#000" opacity="1">rove-2</text></g></g><path class="foreground" aria-hidden="true" d="" pointer-events="none" display="none"/></g><g transform="translate(0,130)"><path class="background" aria-hidden="true" d="M0,0h256v11h-256Z" pointer-events="none" opacity="1"/><g><g class="mark-symbol role-legend-symbol" pointer-events="none"><path transform="translate(6,6)" d="M-5,0L5,0" stroke="#4c78a8" stroke-width="1.5" opacity="1"/></g><g class="mark-text role-legend-label" pointer-events="none"><text text-anchor="start" transform="translate(16,9)" font-family="Liberation Mono" font-size="10px" fill="#000" opacity="1">allure-rs-2-2023</text></g></g><path class="foreground" aria-hidden="true" d="" pointer-events="none" display="none"/></g><g transform="translate(0,143)"><path class="background" aria-hidden="true" d="M0,0h256v11h-256Z" pointer-events="none" opacity="1"/><g><g class="mark-symbol role-legend-symbol" pointer-events="none"><path transform="translate(6,6)" d="M-5,0L5,0" stroke="#f58518" stroke-width="1.5" opacity="1"/></g><g class="mark-text role-legend-label" pointer-events="none"><text text-anchor="start" transform="translate(16,9)" font-family="Liberation Mono" font-size="10px" fill="#000" opacity="1">escape-city-disc-1-2024</text></g></g><path class="foreground" aria-hidden="true" d="" pointer-events="none" display="none"/></g><g transform="translate(0,156)"><path class="background" aria-hidden="true" d="M0,0h256v11h-256Z" pointer-events="none" opacity="1"/><g><g class="mark-symbol role-legend-symbol" pointer-events="none"><path transform="translate(6,6)" d="M-5,0L5,0" stroke="#e45756" stroke-width="1.5" opacity="1"/></g><g class="mark-text role-legend-label" pointer-events="none"><text text-anchor="start" transform="translate(16,9)" font-family="Liberation Mono" font-size="10px" fill="#000" opacity="1">sdrbike-escape-1-city-disc</text></g></g><path class="foreground" aria-hidden="true" d="" pointer-events="none" display="none"/></g><g transform="translate(0,169)"><path class="background" aria-hidden="true" d="M0,0h256v11h-256Z" pointer-events="none" opacity="1"/><g><g class="mark-symbol role-legend-symbol" pointer-events="none"><path transform="translate(6,6)" d="M-5,0L5,0" stroke="#72b7b2" stroke-width="1.5" opacity="1"/></g><g class="mark-text role-legend-label" pointer-events="none"><text text-anchor="start" transform="translate(16,9)" font-family="Liberation Mono" font-size="10px" fill="#000" opacity="1">roam-disc-2-2024</text></g></g><path class="foreground" aria-hidden="true" d="" pointer-events="none" display="none"/></g><g transform="translate(0,182)"><path class="background" aria-hidden="true" d="M0,0h256v11h-256Z" pointer-events="none" opacity="1"/><g><g class="mark-symbol role-legend-symbol" pointer-events="none"><path transform="translate(6,6)" d="M-5,0L5,0" stroke="#54a24b" stroke-width="1.5" opacity="1"/></g><g class="mark-text role-legend-label" pointer-events="none"><text text-anchor="start" transform="translate(16,9)" font-family="Liberation Mono" font-size="10px" fill="#000" opacity="1">allure-rs-2-2022</text></g></g><path class="foreground" aria-hidden="true" d="" pointer-events="none" display="none"/></g><g transform="translate(0,195)"><path class="background" aria-hidden="true" d="M0,0h256v11h-256Z" pointer-events="none" opacity="1"/><g><g class="mark-symbol role-legend-symbol" pointer-events="none"><path transform="translate(6,6)" d="M-5,0L5,0" stroke="#eeca3b" stroke-width="1.5" opacity="1"/></g><g class="mark-text role-legend-label" pointer-events="none"><text text-anchor="start" transform="translate(16,9)" font-family="Liberation Mono" font-size="10px" fill="#000" opacity="1">allure-rs-2-2024</text></g></g><path class="foreground" aria-hidden="true" d="" pointer-events="none" display="none"/></g></g></g><path class="foreground" aria-hidden="true" d="" pointer-events="none" display="none"/></g></g><g class="mark-text role-legend-title" pointer-events="none"><text text-anchor="start" transform="translate(0,9)" font-family="Liberation Mono" font-size="11px" font-weight="bold" fill="#000" opacity="1">identifier</text></g></g><path class="foreground" aria-hidden="true" d="" pointer-events="none" display="none"/></g></g></g><path class="foreground" aria-hidden="true" d="" display="none"/></g></g></g></svg>