<svg xmlns="http://www.w3.org/2000/svg" xmlns:xlink="http://www.w3.org/1999/xlink" version="1.1" class="marks" width="548" height="244" viewBox="0 0 548 244"><rect width="548" height="244" fill="white"/><g fill="none" stroke-miterlimit="10" transform="translate(67,7)"><g class="mark-group role-frame root" role="graphics-object" aria-roledescription="group mark container"><g transform="translate(0,0)"><path class="background" aria-hidden="true" d="M0.5,0.5h200v200h-200Z" stroke="#ddd"/><g><g class="mark-group role-axis" aria-hidden="true"><g transform="translate(0.5,200.5)"><path class="background" aria-hidden="true" d="M0,0h0v0h0Z" pointer-events="none"/><g><g class="mark-rule role-axis-grid" pointer-events="none"><line transform="translate(15,-200)" x2="0" y2="200" stroke="#ddd" stroke-width="1" opacity="1"/><line transform="translate(56,-200)" x2="0" y2="200" stroke="#ddd" stroke-width="1" opacity="1"/><line transform="translate(97,-200)" x2="0" y2="200" stroke="#ddd" stroke-width="1" opacity="1"/><line transform="translate(138,-200)" x2="0" y2="200" stroke="#ddd" stroke-width="1" opacity="1"/><line transform="translate(178,-200)" x2="0" y2="200" stroke="#ddd" stroke-width="1" opacity="1"/></g></g><path class="foreground" aria-hidden="true" d="" pointer-events="none" display="none"/></g></g><g class="mark-group role-axis" aria-hidden="true"><g transform="translate(0.5,0.5)"><path class="background" aria-hidden="true" d="M0,0h0v0h0Z" pointer-events="none"/><g><g class="mark-rule role-axis-grid" pointer-events="none"><line transform="translate(0,200)" x2="200" y2="0" stroke="#ddd" stroke-width="1" opacity="1"/><line transform="translate(0,144)" x2="200" y2="0" stroke="#ddd" stroke-width="1" opacity="1"/><line transform="translate(0,89)" x2="200" y2="0" stroke="#ddd" stroke-width="1" opacity="1"/><line transform="translate(0,33)" x2="200" y2="0" stroke="#ddd" stroke-width="1" opacity="1"/></g></g><path class="foreground" aria-hidden="true" d="" pointer-events="none" display="none"/></g></g><g class="mark-group role-axis" role="graphics-symbol" aria-roledescription="axis" aria-label="X-axis titled 'Time' for a time scale with values from Thursday, 14 August 2025, 8:34:48 AM to Wednesday, 17 September 2025, 4:50:01 PM"><g transform="translate(0.5,200.5)"><path class="background" aria-hidden="true" d="M0,0h0v0h0Z" pointer-events="none"/><g><g class="mark-rule role-axis-tick" pointer-events="none"><line transform="translate(15,0)" x2="0" y2="5" stroke="#888" stroke-width="1" opacity="1"/><line transform="translate(56,0)" x2="0" y2="5" stroke="#888" stroke-width="1" opacity="1"/><line transform="translate(97,0)" x2="0" y2="5" stroke="#888" stroke-width="1" opacity="1"/><line transform="translate(138,0)" x2="0" y2="5" stroke="#888" stroke-width="1" opacity="1"/><line transform="translate(178,0)" x2="0" y2="5" stroke="#888" stroke-width="1" opacity="1"/></g><g class="mark-text role-axis-label" pointer-events="none"><text text-anchor="middle" transform="translate(15.388416819186753,15)" font-family="Liberation Mono" font-size="10px" fill="#000" opacity="1">Aug 17</text><text text-anchor="middle" transform="translate(56.15256968535044,15)" font-family="Liberation Mono" font-size="10px" fill="#000" opacity="0">Aug 24</text><text text-anchor="middle" transform="translate(96.91672255151411,15)" font-family="Liberation Mono" font-size="10px" fill="#000" opacity="1">Aug 31</text><text text-anchor="middle" transform="translate(137.68087541767778,15)" font-family="Liberation Mono" font-size="10px" fill="#000" opacity="0">Sep 07</text><text text-anchor="middle" transform="translate(178.44502828384148,15)" font-family="Liberation Mono" font-size="10px" fill="#000" opacity="1">Sep 14</text></g><g class="mark-rule role-axis-domain" pointer-events="none"><line transform="translate(0,0)" x2="200" y2="0" stroke="#888" stroke-width="1" opacity="1"/></g><g class="mark-text role-axis-title" pointer-events="none"><text text-anchor="middle" transform="translate(100,30)" font-family="Liberation Mono" font-size="11px" font-weight="bold" fill="#000" opacity="1">Time</text></g></g><path class="foreground" aria-hidden="true" d="" pointer-events="none" display="none"/></g></g><g class="mark-group role-axis" role="graphics-symbol" aria-roledescription="axis" aria-label="Y-axis titled 'Price' for a linear scale with values from 0 to 1,800"><g transform="translate(0.5,0.5)"><path class="background" aria-hidden="true" d="M0,0h0v0h0Z" pointer-events="none"/><g><g class="mark-rule role-axis-tick" pointer-events="none"><line transform="translate(0,200)" x2="-5" y2="0" stroke="#888" stroke-width="1" opacity="1"/><line transform="translate(0,144)" x2="-5" y2="0" stroke="#888" stroke-width="1" opacity="1"/><line transform="translate(0,89)" x2="-5" y2="0" stroke="#888" stroke-width="1" opacity="1"/><line transform="translate(0,33)" x2="-5" y2="0" stroke="#888" stroke-width="1" opacity="1"/></g><g class="mark-text role-axis-label" pointer-events="none"><text text-anchor="end" transform="translate(-7,203)" font-family="Liberation Mono" font-size="10px" fill="#000" opacity="1">0</text><text text-anchor="end" transform="translate(-7,147.44444444444443)" font-family="Liberation Mono" font-size="10px" fill="#000" opacity="1">500</text><text text-anchor="end" transform="translate(-7,91.88888888888889)" font-family="Liberation Mono" font-size="10px" fill="#000" opacity="1">1,000</text><text text-anchor="end" transform="translate(-7,36.33333333333333)" font-family="Liberation Mono" font-size="10px" fill="#000" opacity="1">1,500</text></g><g class="mark-rule role-axis-domain" pointer-events="none"><line transform="translate(0,200)" x2="0" y2="-200" stroke="#888" stroke-width="1" opacity="1"/></g><g class="mark-text role-axis-title" pointer-events="none"><text text-anchor="middle" transform="translate(-51,100) rotate(-90) translate(0,-2)" font-family="Liberation Mono" font-size="11px" font-weight="bold" fill="#000" opacity="1">Price</text></g></g><path class="foreground" aria-hidden="true" d="" pointer-events="none" display="none"/></g></g><g class="mark-group role-scope pathgroup" role="graphics-object" aria-roledescription="group mark container"><g transform="translate(0,0)"><path class="background" aria-hidden="true" d="M0,0h200v200h-200Z"/><g><g class="mark-line role-mark marks" role="graphics-object" aria-roledescription="line mark container"><path aria-label="Time: Aug 14, 2025; Price: 899; identifier: escape-city-disc-1-2024" role="graphics-symbol" aria-roledescription="line mark" d="M0,100.111L0.048,100.111L0.087,100.111L1.16,100.111L2.014,100.111L2.971,100.111L4.935,100.111L5.899,100.111L6.964,100.111L7.838,100.111L8.79,100.111L10.74,100.111L11.715,100.111L12.749,100.111L13.65,100.111L14.605,100.111L16.585,100.111L17.537,100.111L18.575,100.111L19.478,100.111L20.436,100.111L22.425,100.111L23.382,100.111L24.455,100.111L24.831,100.111L25.32,100.111L26.254,100.111L28.205,100.111L29.19,100.111L30.225,100.111L31.128,100.111L32.075,100.111L34.03,100.111L35.006,100.111L36.083,100.111L36.518,100.111L36.949,100.111L37.905,100.111L39.85,100.111L40.834,100.111L41.873,100.111L42.777,100.111L43.726,100.111L45.675,100.111L46.656,100.111L47.694,100.111L48.594,100.111L49.546,100.111L51.494,100.111L52.47,100.111L53.5,100.111L54.402,100.111L55.364,100.111L57.325,100.111L58.29,100.111L59.326,100.111L60.233,100.111L61.189,100.111L63.156,100.111L64.139,100.111L65.201,100.111L66.071,100.111L67.019,100.111L68.97,100.111L69.959,100.111L71.889,100.111L72.836,100.111L74.786,100.111L75.77,100.111L76.152,100.111L76.808,100.111L77.457,100.111L77.711,100.111L78.664,100.111L80.609,100.111L81.596,100.111L82.634,100.111L83.534,100.111L84.485,100.111L86.433,100.111L87.416,100.111L88.45,100.111L89.355,100.111L90.305,100.111L92.25,100.111L93.225,100.111L94.256,100.111L95.164,100.111L96.08,100.111L96.125,100.111L98.075,100.111L98.697,100.111L99.046,100.111L100.082,100.111L100.991,100.111L101.951,100.111L103.917,100.111L104.896,100.111L105.93,100.111L106.822,100.111L107.773,100.111L109.732,100.111L110.716,100.111L111.757,100.111L112.649,100.111L113.6,100.111L115.548,100.111L116.53,100.111L117.568,100.111L118.469,100.111L119.422,100.111L121.369,100.111L122.356,100.111L123.386,100.111L124.297,100.111L125.244,100.111L127.195,100.111L128.178,100.111L129.212,100.111L130.109,100.111L131.069,100.111L133.012,100.111L133.512,100.111L133.984,100.111L135.011,100.111L135.923,100.111L136.89,100.111L138.834,100.111L139.807,100.111L140.838,100.111L141.747,100.111L142.713,100.111L144.666,100.111L145.658,100.111L146.696,100.111L147.591,100.111L148.545,100.111L150.488,100.111L151.479,100.111L152.552,100.111L153.418,100.111L154.361,100.111L156.304,100.111L157.297,100.111L158.329,100.111L159.232,100.111L160.187,100.111L162.135,100.111L163.118,100.111L164.15,100.111L165.044,100.111L166.006,100.111L167.954,100.111L168.939,100.111L169.971,100.111L170.871,100.111L171.829,100.111L173.774,100.111L174.749,100.111L175.777,100.111L176.683,100.111L177.653,100.111L179.599,100.111L180.572,100.111L181.596,100.111L182.505,100.111L183.477,100.111L185.432,100.111L186.414,100.111L187.454,100.111L188.351,100.111L189.303,100.111L191.25,100.111L192.242,100.111L193.277,100.111L194.173,100.111L195.128,100.111L197.076,100.111L198.061,100.111L199.1,100.111L199.998,100.111" stroke="#4c78a8" stroke-width="2"/></g></g><path class="foreground" aria-hidden="true" d="" display="none"/></g><g transform="translate(0,0)"><path class="background" aria-hidden="true" d="M0,0h200v200h-200Z"/><g><g class="mark-line role-mark marks" role="graphics-object" aria-roledescription="line mark container"><path aria-label="Time: Aug 14, 2025; Price: 999; identifier: roam-2" role="graphics-symbol" aria-roledescription="line mark" d="M0,89L0.048,89L0.087,89L1.16,89L2.014,89L2.971,89L4.935,89L5.9,89L6.965,89L7.838,89L8.791,89L10.74,89L11.716,89L12.749,89L13.65,89L14.614,89L16.586,89L17.537,89L18.576,89L19.478,89L20.436,89L22.426,89L23.382,89L24.455,89L24.831,89L25.32,89L26.254,89L28.205,89L29.19,89L30.225,89L31.128,89L32.075,89L34.03,89L35.006,89L36.083,89L36.519,89L36.95,89L37.906,89L39.85,89L40.834,89L41.873,89L42.777,89L43.726,89L45.675,89L46.656,89L47.695,89L48.594,89L49.546,89L51.494,89L52.47,89L53.5,89L54.402,89L55.364,89L57.325,89L58.29,89L59.326,89L60.233,89L61.189,89L63.157,89L64.139,89L65.202,89L66.071,89L67.019,89L68.97,89L69.959,89L71.889,89L72.837,89L74.787,89L75.771,89L76.153,89L76.808,89L77.457,89L77.712,89L78.664,89L80.609,89L81.597,89L82.634,89L83.534,89L84.485,89L86.433,89L87.416,89L88.45,89L89.355,89L90.306,89L92.25,89L93.226,89L94.256,89L95.164,89L96.08,89L96.126,89L98.076,89L98.698,89L99.046,89L100.082,89L100.991,89L101.951,89L103.918,89L104.897,89L105.93,89L106.822,89L107.773,89L109.732,89L110.716,89L111.757,89L112.649,89L113.6,89L115.548,89L116.53,89L117.568,89L118.47,89L119.422,89L121.37,89L122.356,89L123.386,89L124.297,89L125.244,89L127.196,89L128.178,89L129.212,89L130.11,89L131.069,89L133.013,89L133.512,89L133.984,89L135.011,89L135.923,89L136.89,89L138.834,89L139.807,89L140.839,89L141.747,89L142.713,89L144.668,89L145.658,89L146.697,89L147.591,89L148.545,89L150.489,89L151.479,89L152.553,89L153.418,89L154.362,89L156.304,89L157.297,89L158.329,89L159.233,89L160.188,89L162.135,89L163.118,89L164.15,89L165.045,89L166.006,89L167.954,89L168.939,89L169.971,89L170.871,89L171.829,89L173.774,89L174.749,89L175.777,89L176.683,89L177.653,89L179.599,89L180.573,89L181.596,89L182.505,89L183.477,89L185.432,89L186.414,89L187.455,89L188.352,89L189.305,89L191.251,89L192.243,89L193.277,89L194.173,89L195.129,89L197.077,89L198.061,89L199.1,89L199.998,89" stroke="#ff9da6" stroke-width="2"/></g></g><path class="foreground" aria-hidden="true" d="" display="none"/></g><g transform="translate(0,0)"><path class="background" aria-hidden="true" d="M0,0h200v200h-200Z"/><g><g class="mark-line role-mark marks" role="graphics-object" aria-roledescription="line mark container"><path aria-label="Time: Aug 14, 2025; Price: 999; identifier: fastroad-sl-3-2022" role="graphics-symbol" aria-roledescription="line mark" d="M0,89L0.049,89L0.087,89L1.161,89L2.014,89L2.971,89L4.935,89L5.9,89L6.965,89L7.838,89L8.791,89L10.74,89L11.716,89L12.75,89L13.65,89L14.614,89L16.586,89L17.537,89L18.576,89L19.478,89L20.436,89L22.426,89L23.382,89L24.455,89L24.831,89L25.32,89L26.254,89L28.205,89L29.191,89L30.225,89L31.128,89L32.075,89L34.03,89L35.007,89L36.083,89L36.519,89L36.95,89L37.906,89L39.85,89L40.835,89L41.874,89L42.777,89L43.726,89L45.675,89L46.656,89L47.695,89L48.594,89L49.546,89L51.495,89L52.471,89L53.5,89L54.403,89L55.364,89L57.325,89L58.29,89L59.327,89L60.233,89L61.189,89L63.157,89L64.139,89L65.202,89L66.071,89L67.019,89L68.971,89L69.959,89L71.889,89L72.837,89L74.787,89L75.771,89L76.153,89L76.808,89L77.457,89L77.712,89L78.664,89L80.609,89L81.597,89L82.634,89L83.534,89L84.486,89L86.433,89L87.416,89L88.451,89L89.355,89L90.306,89L92.25,89L93.226,89L94.256,89L95.165,89L96.08,89L96.126,89L98.076,89L98.698,89L99.047,89L100.082,89L100.991,89L101.951,89L103.918,89L104.897,89L105.93,89L106.822,89L107.773,89L109.732,89L110.717,89L111.757,89L112.649,89L113.601,89L115.548,89L116.531,89L117.568,89L118.47,89L119.422,89L121.37,89L122.356,89L123.386,89L124.297,89L125.244,89L127.196,89L128.178,89L129.213,89L130.11,89L131.07,89L133.013,89L133.512,89L133.984,89L135.012,89L135.923,89L136.89,89L138.834,89L139.807,89L140.839,89L141.747,89L142.713,89L144.668,89L145.658,89L146.697,89L147.591,89L148.545,89L150.489,89L151.479,89L152.553,89L153.419,89L154.362,89L156.304,89L157.297,89L158.329,89L159.233,89L160.188,89L162.135,89L163.118,89L164.151,89L165.045,89L166.006,89L167.954,89L168.94,89L169.971,89L170.871,89L171.83,89L173.774,89L174.749,89L175.777,89L176.683,89L177.654,89L179.6,89L180.573,89L181.597,89L182.505,89L183.477,89L185.433,89L186.414,89L187.455,89L188.353,89L189.305,89L191.251,89L192.243,89L193.277,89L194.173,89L195.129,89L197.077,89L198.061,89L199.101,89L199.998,89" stroke="#9d755d" stroke-width="2"/></g></g><path class="foreground" aria-hidden="true" d="" display="none"/></g><g transform="translate(0,0)"><path class="background" aria-hidden="true" d="M0,0h200v200h-200Z"/><g><g class="mark-line role-mark marks" role="graphics-object" aria-roledescription="line mark container"><path aria-label="Time: Aug 14, 2025; Price: 1199; identifier: fastroad-ar-2" role="graphics-symbol" aria-roledescription="line mark" d="M0,66.778L0.049,66.778L0.087,66.778L1.161,66.778L2.014,66.778L2.971,66.778L4.935,66.778L5.9,66.778L6.965,66.778L7.838,66.778L8.791,66.778L10.74,66.778L11.716,66.778L12.75,66.778L13.651,66.778L14.619,66.778L16.586,66.778L17.537,66.778L18.576,66.778L19.478,66.778L20.436,66.778L22.426,66.778L23.382,66.778L24.455,66.778L24.831,66.778L25.32,66.778L26.254,66.778L28.205,66.778L29.191,66.778L30.225,66.778L31.129,66.778L32.076,66.778L34.031,66.778L35.007,66.778L36.083,66.778L36.519,66.778L36.95,66.778L37.906,66.778L39.85,66.778L40.835,66.778L41.874,66.778L42.777,66.778L43.726,66.778L45.675,66.778L46.657,66.778L47.695,66.778L48.595,66.778L49.546,66.778L51.495,66.778L52.471,66.778L53.5,66.778L54.403,66.778L55.364,66.778L57.325,66.778L58.29,66.778L59.327,66.778L60.233,66.778L61.189,66.778L63.157,66.778L64.139,66.778L65.202,66.778L66.071,66.778L67.02,66.778L68.971,66.778L69.959,66.778L71.889,66.778L72.837,66.778L74.787,66.778L75.771,66.778L76.153,66.778L76.808,66.778L77.457,66.778L77.712,66.778L78.665,66.778L80.609,66.778L81.597,66.778L82.634,66.778L83.534,66.778L84.486,66.778L86.433,66.778L87.416,66.778L88.451,66.778L89.355,66.778L90.306,66.778L92.25,66.778L93.226,66.778L94.256,66.778L95.165,66.778L96.08,66.778L96.126,66.778L98.076,66.778L98.698,66.778L99.047,66.778L100.082,66.778L100.991,66.778L101.951,66.778L103.918,66.778L104.897,66.778L105.93,66.778L106.822,66.778L107.773,66.778L109.732,66.778L110.717,66.778L111.757,66.778L112.649,66.778L113.601,66.778L115.548,66.778L116.531,66.778L117.568,66.778L118.47,66.778L119.422,66.778L121.37,66.778L122.356,66.778L123.386,66.778L124.297,66.778L125.244,66.778L127.196,66.778L128.178,66.778L129.213,66.778L130.11,66.778L131.07,66.778L133.013,66.778L133.512,66.778L133.985,66.778L135.012,66.778L135.924,66.778L136.89,66.778L138.834,66.778L139.807,66.778L140.839,66.778L141.748,66.778L142.713,66.778L144.668,66.778L145.658,66.778L146.697,66.778L147.592,66.778L148.545,66.778L150.489,66.778L151.479,66.778L152.553,66.778L153.419,66.778L154.362,66.778L156.304,66.778L157.297,66.778L158.33,66.778L159.233,66.778L160.188,66.778L162.135,66.778L163.119,66.778L164.151,66.778L165.045,66.778L166.007,66.778L167.954,66.778L168.94,66.778L169.971,66.778L170.871,66.778L171.83,66.778L173.774,66.778L174.749,66.778L175.777,66.778L176.683,66.778L177.654,66.778L179.6,66.778L180.573,66.778L181.597,66.778L182.505,66.778L183.477,66.778L185.433,66.778L186.414,66.778L187.455,66.778L188.353,66.778L189.305,66.778L191.251,66.778L192.243,66.778L193.277,66.778L194.173,66.778L195.129,66.778L197.077,66.778L198.061,66.778L199.101,66.778L199.998,66.778" stroke="#54a24b" stroke-width="2"/></g></g><path class="foreground" aria-hidden="true" d="" display="none"/></g><g transform="translate(0,0)"><path class="background" aria-hidden="true" d="M0,0h200v200h-200Z"/><g><g class="mark-line role-mark marks" role="graphics-object" aria-roledescription="line mark container"><path aria-label="Time: Aug 18, 2025; Price: 899; identifier: sdrbike-escape-1-city-disc" role="graphics-symbol" aria-roledescription="line mark" d="M24.832,100.111L25.321,100.111L26.254,100.111L28.205,100.111L29.191,100.111L30.225,100.111L31.129,100.111L32.076,100.111L34.031,100.111L35.007,100.111L36.083,100.111L36.519,100.111L36.95,100.111L37.906,100.111L39.851,100.111L40.835,100.111L41.874,100.111L42.777,100.111L43.726,100.111L45.676,100.111L46.657,100.111L47.695,100.111L48.595,100.111L49.547,100.111L51.495,100.111L52.471,100.111L53.5,100.111L54.403,100.111L55.364,100.111L57.325,100.111L58.291,100.111L59.327,100.111L60.234,100.111L61.189,100.111L63.157,100.111L64.14,100.111L65.202,100.111L66.072,100.111L67.02,100.111L68.971,100.111L69.959,100.111L71.89,100.111L72.837,100.111L74.787,100.111L75.771,100.111L76.153,100.111L76.808,100.111L77.458,100.111L77.712,100.111L78.665,100.111L80.61,100.111L81.597,100.111L82.634,100.111L83.534,100.111L84.486,100.111L86.433,100.111L87.416,100.111L88.451,100.111L89.356,100.111L90.306,100.111L92.25,100.111L93.226,100.111L94.256,100.111L95.165,100.111L96.081,100.111L96.126,100.111L98.076,100.111L98.698,100.111L99.047,100.111L100.083,100.111L100.991,100.111L101.951,100.111L103.918,100.111L104.897,100.111L105.93,100.111L106.822,100.111L107.774,100.111L109.732,100.111L110.717,100.111L111.758,100.111L112.649,100.111L113.601,100.111L115.548,100.111L116.531,100.111L117.568,100.111L118.47,100.111L119.422,100.111L121.37,100.111L122.357,100.111L123.386,100.111L124.298,100.111L125.245,100.111L127.196,100.111L128.179,100.111L129.213,100.111L130.11,100.111L131.07,100.111L133.013,100.111L133.513,100.111L133.985,100.111L135.012,100.111L135.924,100.111L136.89,100.111L138.835,100.111L139.808,100.111L140.839,100.111L141.748,100.111L142.713,100.111L144.668,100.111L145.658,100.111L146.697,100.111L147.592,100.111L148.545,100.111L150.489,100.111L151.48,100.111L152.553,100.111L153.419,100.111L154.362,100.111L156.305,100.111L157.297,100.111L158.33,100.111L159.233,100.111L160.188,100.111L162.136,100.111L163.119,100.111L164.151,100.111L165.045,100.111L166.007,100.111L167.955,100.111L168.94,100.111L169.971,100.111L170.871,100.111L171.83,100.111L173.774,100.111L174.749,100.111L175.778,100.111L176.684,100.111L177.654,100.111L179.6,100.111L180.573,100.111L181.597,100.111L182.505,100.111L183.477,100.111L185.433,100.111L186.415,100.111L187.456,100.111L188.353,100.111L189.305,100.111L191.251,100.111L192.243,100.111L193.277,100.111L194.173,100.111L195.129,100.111L197.077,100.111L198.062,100.111L199.101,100.111L199.998,100.111" stroke="#f58518" stroke-width="2"/></g></g><path class="foreground" aria-hidden="true" d="" display="none"/></g><g transform="translate(0,0)"><path class="background" aria-hidden="true" d="M0,0h200v200h-200Z"/><g><g class="mark-line role-mark marks" role="graphics-object" aria-roledescription="line mark container"><path aria-label="Time: Aug 20, 2025; Price: 899; identifier: roam-disc-2-2024" role="graphics-symbol" aria-roledescription="line mark" d="M36.518,100.111L36.95,100.111L37.905,100.111L39.85,100.111L40.834,100.111L41.873,100.111L42.777,100.111L43.726,100.111L45.675,100.111L46.656,100.111L47.694,100.111L48.594,100.111L49.546,100.111L51.494,100.111L52.47,100.111L53.5,100.111L54.402,100.111L55.364,100.111L57.325,100.111L58.29,100.111L59.326,100.111L60.233,100.111L61.189,100.111L63.156,100.111L64.139,100.111L65.202,100.111L66.071,100.111L67.019,100.111L68.97,100.111L69.959,100.111L71.889,100.111L72.837,100.111L74.786,100.111L75.771,100.111L76.152,100.111L76.808,100.111L77.457,100.111L77.712,100.111L78.664,100.111L80.609,100.111L81.596,100.111L82.634,100.111L83.534,100.111L84.485,100.111L86.433,100.111L87.416,100.111L88.45,100.111L89.355,100.111L90.305,100.111L92.25,100.111L93.226,100.111L94.256,100.111L95.164,100.111L96.08,100.111L96.125,100.111L98.076,100.111L98.698,100.111L99.046,100.111L100.082,100.111L100.991,100.111L101.951,100.111L103.918,100.111L104.896,100.111L105.93,100.111L106.822,100.111L107.773,100.111L109.732,100.111L110.716,100.111L111.757,100.111L112.649,100.111L113.6,100.111L115.548,100.111L116.53,100.111L117.568,100.111L118.47,100.111L119.422,100.111L121.369,100.111L122.356,100.111L123.386,100.111L124.297,100.111L125.244,100.111L127.195,100.111L128.178,100.111L129.212,100.111L130.109,100.111L131.069,100.111L133.013,100.111L133.512,100.111L133.984,100.111L135.011,100.111L135.923,100.111L136.89,100.111L138.834,100.111L139.807,100.111L140.838,100.111L141.747,100.111L142.713,100.111L144.668,100.111L145.658,100.111L146.696,100.111L147.591,100.111L148.545,100.111L150.489,100.111L151.479,100.111L152.553,100.111L153.418,100.111L154.362,100.111L156.304,100.111L157.297,100.111L158.329,100.111L159.232,100.111L160.187,100.111L162.135,100.111L163.118,100.111L164.15,100.111L165.045,100.111L166.006,100.111L167.954,100.111L168.939,100.111L169.971,100.111L170.871,100.111L171.829,100.111L173.774,100.111L174.749,100.111L175.777,100.111L176.683,100.111L177.653,100.111L179.599,100.111L180.572,100.111L181.596,100.111L182.505,100.111L183.477,100.111L185.432,100.111L186.414,100.111L187.455,100.111L188.352,100.111L189.304,100.111L191.251,100.111L192.242,100.111L193.277,100.111L194.173,100.111L195.129,100.111L197.076,100.111L198.061,100.111L199.1,100.111L199.998,100.111" stroke="#e45756" stroke-width="2"/></g></g><path class="foreground" aria-hidden="true" d="" display="none"/></g><g transform="translate(0,0)"><path class="background" aria-hidden="true" d="M0,0h200v200h-200Z"/><g><g class="mark-line role-mark marks" role="graphics-object" aria-roledescription="line mark container"><path aria-label="Time: Aug 20, 2025; Price: 1199; identifier: thrive-2" role="graphics-symbol" aria-roledescription="line mark" d="M36.519,66.778L36.95,66.778L37.906,66.778L39.851,66.778L40.835,66.778L41.874,66.778L42.777,66.778L43.727,66.778L45.676,66.778L46.657,66.778L47.695,66.778L48.595,66.778L49.547,66.778L51.495,66.778L52.471,66.778L53.501,66.778L54.403,66.778L55.364,66.778L57.326,66.778L58.291,66.778L59.327,66.778L60.234,66.778L61.19,66.778L63.157,66.778L64.14,66.778L65.202,66.778L66.072,66.778L67.02,66.778L68.972,66.778L69.96,66.778L71.89,66.778L72.837,66.778L74.787,66.778L75.771,66.778L76.154,66.778L76.808,66.778L77.458,66.778L77.712,66.778L78.665,66.778L80.61,66.778L81.597,66.778L82.635,66.778L83.535,66.778L84.486,66.778L86.433,66.778L87.417,66.778L88.451,66.778L89.356,66.778L90.306,66.778L92.25,66.778L93.226,66.778L94.257,66.778L95.165,66.778L96.081,66.778L96.126,66.778L98.076,66.778L98.698,66.778L99.047,66.778L100.083,66.778L100.992,66.778L101.952,66.778L103.918,66.778L104.897,66.778L105.931,66.778L106.822,66.778L107.774,66.778L109.733,66.778L110.717,66.778L111.758,66.778L112.65,66.778L113.601,66.778L115.548,66.778L116.531,66.778L117.568,66.778L118.47,66.778L119.423,66.778L121.37,66.778L122.357,66.778L123.386,66.778L124.298,66.778L125.245,66.778L127.196,66.778L128.179,66.778L129.213,66.778L130.11,66.778L131.07,66.778L133.013,66.778L133.513,66.778L133.985,66.778L135.012,66.778L135.924,66.778L136.89,66.778L138.835,66.778L139.808,66.778L140.839,66.778L141.748,66.778L142.713,66.778L144.668,66.778L145.659,66.778L146.697,66.778L147.592,66.778L148.546,66.778L150.489,66.778L151.48,66.778L152.553,66.778L153.419,66.778L154.362,66.778L156.305,66.778L157.298,66.778L158.33,66.778L159.233,66.778L160.188,66.778L162.136,66.778L163.119,66.778L164.151,66.778L165.045,66.778L166.007,66.778L167.955,66.778L168.94,66.778L169.971,66.778L170.871,66.778L171.83,66.778L173.774,66.778L174.749,66.778L175.778,66.778L176.684,66.778L177.654,66.778L179.6,66.778L180.573,66.778L181.597,66.778L182.506,66.778L183.477,66.778L185.433,66.778L186.415,66.778L187.456,66.778L188.353,66.778L189.305,66.778L191.252,66.778L192.243,66.778L193.277,66.778L194.174,66.778L195.129,66.778L197.077,66.778L198.062,66.778L199.101,66.778L199.998,66.778" stroke="#eeca3b" stroke-width="2"/></g></g><path class="foreground" aria-hidden="true" d="" display="none"/></g><g transform="translate(0,0)"><path class="background" aria-hidden="true" d="M0,0h200v200h-200Z"/><g><g class="mark-line role-mark marks" role="graphics-object" aria-roledescription="line mark container"><path aria-label="Time: Aug 20, 2025; Price: 999; identifier: rove-2" role="graphics-symbol" aria-roledescription="line mark" d="M36.519,89L36.951,89L37.906,89L39.851,89L40.835,89L41.874,89L42.778,89L43.727,89L45.676,89L46.657,89L47.695,89L48.595,89L49.547,89L51.495,89L52.471,89L53.501,89L54.403,89L55.364,89L57.326,89L58.291,89L59.328,89L60.234,89L61.19,89L63.157,89L64.14,89L65.202,89L66.072,89L67.02,89L68.972,89L69.96,89L71.89,89L72.837,89L74.787,89L75.771,89L76.154,89L76.809,89L77.458,89L77.712,89L78.665,89L80.61,89L81.597,89L82.635,89L83.535,89L84.486,89L86.434,89L87.417,89L88.451,89L89.356,89L90.306,89L96.081,111.222L96.126,111.222L98.076,111.222L98.698,111.222L99.047,111.222L100.083,111.222L100.992,111.222L101.952,111.222L103.918,111.222L104.897,111.222L105.931,111.222L106.823,111.222L107.774,111.222L109.733,111.222L110.717,111.222L111.758,111.222L112.65,111.222L113.601,111.222L115.548,111.222L116.531,111.222L117.568,111.222L118.47,111.222L119.423,111.222L121.37,111.222L122.357,111.222L123.387,111.222L124.298,111.222L125.245,111.222L127.196,111.222L128.179,111.222L129.213,111.222L130.11,111.222L131.07,111.222L133.013,111.222L133.513,111.222L133.985,111.222L135.012,111.222L135.924,111.222L136.89,111.222L138.835,111.222L139.808,111.222L140.839,111.222L141.748,111.222L142.713,111.222L144.669,111.222L145.659,111.222L146.697,111.222L147.592,111.222L148.546,111.222L150.489,111.222L151.48,111.222L152.554,111.222L153.419,111.222L154.362,111.222L156.305,111.222L157.298,111.222L158.33,111.222L159.233,111.222L160.189,111.222L162.136,111.222L163.119,111.222L164.151,111.222L165.045,111.222L166.007,111.222L167.955,111.222L168.94,111.222L169.972,111.222L170.872,111.222L171.83,111.222L173.775,111.222L174.75,111.222L175.778,111.222L176.684,111.222L177.654,111.222L179.6,111.222L180.573,111.222L181.597,111.222L182.506,111.222L183.478,111.222L185.433,111.222L186.415,111.222L187.456,111.222L188.353,111.222L189.305,111.222L191.252,111.222L192.243,111.222L193.278,111.222L194.174,111.222L195.129,111.222L197.077,111.222L198.062,111.222L199.101,111.222L199.999,111.222" stroke="#72b7b2" stroke-width="2"/></g></g><path class="foreground" aria-hidden="true" d="" display="none"/></g><g transform="translate(0,0)"><path class="background" aria-hidden="true" d="M0,0h200v200h-200Z"/><g><g class="mark-line role-mark marks" role="graphics-object" aria-roledescription="line mark container"><path aria-label="Time: Aug 27, 2025; Price: 1199; identifier: allure-rs-1-2023" role="graphics-symbol" aria-roledescription="line mark" d="M76.155,66.778L76.809,66.778L77.458,66.778L77.712,66.778L78.665,66.778L80.61,66.778L81.597,66.778L82.635,66.778L83.535,66.778L84.486,66.778L86.434,66.778L87.417,66.778L88.451,66.778L89.356,66.778L90.307,66.778L92.251,66.778L93.226,66.778L94.257,66.778L95.165,66.778L96.081,66.778L96.126,66.778L98.076,66.778L98.698,66.778L99.047,66.778L100.083,66.778L100.992,66.778L101.952,66.778L103.918,66.778L104.897,66.778L105.931,66.778L106.823,66.778L107.774,66.778L109.733,66.778L110.717,66.778L111.758,66.778L112.65,66.778L113.601,66.778L115.549,66.778L116.531,66.778L117.569,66.778L118.47,66.778L119.423,66.778L121.371,66.778L122.357,66.778L123.387,66.778L124.298,66.778L125.245,66.778L127.196,66.778L128.179,66.778L129.213,66.778L130.11,66.778L131.07,66.778L133.013,66.778L133.513,66.778L133.985,66.778L135.012,66.778L135.924,66.778L136.89,66.778L138.835,66.778L139.808,66.778L140.839,66.778L141.748,66.778L142.714,66.778L144.669,66.778L145.659,66.778L146.698,66.778L147.592,66.778L148.546,66.778L150.49,66.778L151.48,66.778L152.554,66.778L153.419,66.778L154.363,66.778L156.305,66.778L157.298,66.778L158.33,66.778L159.234,66.778L160.189,66.778L162.136,66.778L163.119,66.778L164.151,66.778L165.046,66.778L166.007,66.778L167.955,66.778L168.94,66.778L169.972,66.778L170.872,66.778L171.83,66.778L173.775,66.778L174.75,66.778L175.778,66.778L176.684,66.778L177.654,66.778L179.6,66.778L180.573,66.778L181.597,66.778L182.506,66.778L183.478,66.778L185.433,66.778L186.415,66.778L187.456,66.778L188.353,66.778L189.305,66.778L191.252,66.778L192.243,66.778L193.278,66.778L194.174,66.778L195.129,66.778L197.077,66.778L198.062,66.778L199.101,66.778L199.999,66.778" stroke="#b279a2" stroke-width="2"/></g></g><path class="foreground" aria-hidden="true" d="" display="none"/></g><g transform="translate(0,0)"><path class="background" aria-hidden="true" d="M0,0h200v200h-200Z"/><g><g class="mark-line role-mark marks" role="graphics-object" aria-roledescription="line mark container"><path aria-label="Time: Aug 27, 2025; Price: 999; identifier: allure-rs-2-2022" role="graphics-symbol" aria-roledescription="line mark" d="M76.155,89L76.809,89L77.458,89L77.713,89L78.665,89L80.61,89L81.598,89L82.635,89L83.535,89L84.486,89L86.434,89L87.417,89L88.451,89L89.356,89L90.307,89L96.081,111.222L96.126,111.222L98.077,111.222L98.699,111.222L99.048,111.222L100.083,111.222L100.992,111.222L101.952,111.222L103.919,111.222L104.898,111.222L105.931,111.222L106.823,111.222L107.774,111.222L109.733,111.222L110.717,111.222L111.758,111.222L112.65,111.222L113.602,111.222L115.549,111.222L116.531,111.222L117.569,111.222L118.47,111.222L119.423,111.222L121.371,111.222L122.357,111.222L123.387,111.222L124.298,111.222L125.245,111.222L127.196,111.222L128.179,111.222L129.213,111.222L130.111,111.222L131.07,111.222L133.014,111.222L133.513,111.222L133.985,111.222L135.013,111.222L135.924,111.222L136.891,111.222L138.835,111.222L139.808,111.222L140.84,111.222L141.748,111.222L142.714,111.222L144.669,111.222L145.659,111.222L146.698,111.222L147.592,111.222L148.546,111.222L150.49,111.222L151.48,111.222L152.554,111.222L153.42,111.222L154.363,111.222L156.305,111.222L157.298,111.222L158.33,111.222L159.234,111.222L160.189,111.222L162.136,111.222L163.119,111.222L164.151,111.222L165.046,111.222L166.007,111.222L167.955,111.222L168.941,111.222L169.972,111.222L170.872,111.222L171.83,111.222L173.775,111.222L174.75,111.222L175.778,111.222L176.684,111.222L177.654,111.222L179.6,111.222L180.574,111.222L181.597,111.222L182.506,111.222L183.478,111.222L185.433,111.222L186.415,111.222L187.456,111.222L188.353,111.222L189.306,111.222L191.252,111.222L192.244,111.222L193.278,111.222L194.174,111.222L195.13,111.222L197.078,111.222L198.062,111.222L199.102,111.222L199.999,111.222" stroke="#54a24b" stroke-width="2"/></g></g><path class="foreground" aria-hidden="true" d="" display="none"/></g><g transform="translate(0,0)"><path class="background" aria-hidden="true" d="M0,0h200v200h-200Z"/><g><g class="mark-line role-mark marks" role="graphics-object" aria-roledescription="line mark container"><path aria-label="Time: Aug 27, 2025; Price: 949; identifier: allure-rs-2-2023" role="graphics-symbol" aria-roledescription="line mark" d="M76.155,94.556L76.809,94.556L77.458,94.556L77.713,94.556L78.666,94.556L80.61,94.556L81.598,94.556L82.635,94.556L83.535,94.556L84.486,94.556L86.434,94.556L87.417,94.556L88.452,94.556L89.356,94.556L90.307,94.556L92.251,94.556L93.227,94.556L94.257,94.556L95.165,94.556L96.081,94.556L96.126,94.556L98.077,94.556L98.699,94.556L99.048,94.556L100.083,94.556L100.992,94.556L101.952,94.556L103.919,94.556L104.898,94.556L105.931,94.556L106.823,94.556L107.774,94.556L109.733,94.556L110.717,94.556L111.758,94.556L112.65,94.556L113.602,94.556L115.549,94.556L116.532,94.556L117.569,94.556L118.471,94.556L119.423,94.556L121.371,94.556L122.357,94.556L123.387,94.556L124.298,94.556L125.245,94.556L127.197,94.556L128.179,94.556L129.214,94.556L130.111,94.556L131.071,94.556L133.014,94.556L133.513,94.556L133.986,94.556L135.013,94.556L135.924,94.556L136.891,94.556L138.835,94.556L139.808,94.556L140.84,94.556L141.748,94.556L142.714,94.556L144.669,94.556L145.659,94.556L146.698,94.556L147.592,94.556L148.546,94.556L150.49,94.556L151.48,94.556L152.554,94.556L153.42,94.556L154.363,94.556L156.305,94.556L157.298,94.556L158.33,94.556L159.234,94.556L160.189,94.556L162.136,94.556L163.119,94.556L164.151,94.556L165.046,94.556L166.007,94.556L167.955,94.556L168.941,94.556L169.972,94.556L170.872,94.556L171.83,94.556L173.775,94.556L174.75,94.556L175.778,94.556L176.684,94.556L177.655,94.556L179.601,94.556L180.574,94.556L181.598,94.556L182.506,94.556L183.478,94.556L185.434,94.556L186.415,94.556L187.456,94.556L188.354,94.556L189.306,94.556L191.252,94.556L192.244,94.556L193.278,94.556L194.174,94.556L195.13,94.556L197.078,94.556L198.062,94.556L199.102,94.556L199.999,94.556" stroke="#bab0ac" stroke-width="2"/></g></g><path class="foreground" aria-hidden="true" d="" display="none"/></g><g transform="translate(0,0)"><path class="background" aria-hidden="true" d="M0,0h200v200h-200Z"/><g><g class="mark-line role-mark marks" role="graphics-object" aria-roledescription="line mark container"><path aria-label="Time: Aug 27, 2025; Price: 999; identifier: allure-rs-2-2024" role="graphics-symbol" aria-roledescription="line mark" d="M76.156,89L76.809,89L77.458,89L77.713,89L78.666,89L80.61,89L81.598,89L82.635,89L83.535,89L84.487,89L86.434,89L87.417,89L88.452,89L89.356,89L90.307,89L96.082,111.222L96.127,111.222L98.077,111.222L98.699,111.222L99.048,111.222L100.083,111.222L100.992,111.222L101.952,111.222L103.919,111.222L104.898,111.222L105.931,111.222L106.823,111.222L107.775,111.222L109.733,111.222L110.718,111.222L111.758,111.222L112.65,111.222L113.602,111.222L115.549,111.222L116.532,111.222L117.569,111.222L118.471,111.222L119.423,111.222L121.371,111.222L122.357,111.222L123.387,111.222L124.299,111.222L125.245,111.222L127.197,111.222L128.179,111.222L129.214,111.222L130.111,111.222L131.071,111.222L133.014,111.222L133.513,111.222L133.986,111.222L135.013,111.222L135.924,111.222L136.891,111.222L138.835,111.222L139.808,111.222L140.84,111.222L141.748,111.222L142.714,111.222L144.669,111.222L145.659,111.222L146.698,111.222L147.593,111.222L148.546,111.222L150.49,111.222L151.48,111.222L152.554,111.222L153.42,111.222L154.363,111.222L156.305,111.222L157.298,111.222L158.331,111.222L159.234,111.222L160.189,111.222L162.137,111.222L163.119,111.222L164.152,111.222L165.046,111.222L166.008,111.222L167.955,111.222L168.941,111.222L169.972,111.222L170.872,111.222L171.831,111.222L173.775,111.222L174.75,111.222L175.778,111.222L176.684,111.222L177.655,111.222L179.601,111.222L180.574,111.222L181.598,111.222L182.506,111.222L183.478,111.222L185.434,111.222L186.415,111.222L187.456,111.222L188.354,111.222L189.306,111.222L191.252,111.222L192.244,111.222L193.278,111.222L194.174,111.222L195.13,111.222L197.078,111.222L198.062,111.222L199.102,111.222L199.999,111.222" stroke="#eeca3b" stroke-width="2"/></g></g><path class="foreground" aria-hidden="true" d="" display="none"/></g><g transform="translate(0,0)"><path class="background" aria-hidden="true" d="M0,0h200v200h-200Z"/><g><g class="mark-line role-mark marks" role="graphics-object" aria-roledescription="line mark container"><path aria-label="Time: Aug 27, 2025; Price: 1799; identifier: devote-1-2024" role="graphics-symbol" aria-roledescription="line mark" d="M77.458,0.111L77.713,0.111L78.666,0.111L80.611,0.111L81.598,0.111L82.635,0.111L83.535,0.111L84.487,0.111L86.434,0.111L87.417,0.111L88.452,0.111L89.356,0.111L90.307,0.111L96.082,44.556L96.127,44.556L98.077,44.556L98.699,44.556L99.048,44.556L100.084,44.556L100.992,44.556L101.952,44.556L103.919,44.556L104.898,44.556L105.931,44.556L106.823,44.556L107.775,44.556L109.733,44.556L110.718,44.556L111.759,44.556L112.65,44.556L113.602,44.556L115.549,44.556L116.532,44.556L117.569,44.556L118.471,44.556L119.423,44.556L121.371,44.556L122.358,44.556L123.387,44.556L124.299,44.556L125.246,44.556L127.197,44.556L128.179,44.556L129.214,44.556L130.111,44.556L131.071,44.556L133.014,44.556L133.513,44.556L133.986,44.556L135.013,44.556L135.925,44.556L136.891,44.556L138.836,44.556L139.809,44.556L140.84,44.556L141.749,44.556L142.714,44.556L144.669,44.556L145.66,44.556L146.698,44.556L147.593,44.556L148.546,44.556L150.49,44.556L151.48,44.556L152.555,44.556L153.42,44.556L154.363,44.556L156.305,44.556L157.298,44.556L158.331,44.556L159.234,44.556L160.189,44.556L162.137,44.556L163.12,44.556L164.152,44.556L165.046,44.556L166.008,44.556L167.955,44.556L168.941,44.556L169.973,44.556L170.872,44.556L171.831,44.556L173.775,44.556L174.75,44.556L175.779,44.556L176.685,44.556L177.655,44.556L179.601,44.556L180.574,44.556L181.598,44.556L182.506,44.556L183.478,44.556L185.434,44.556L186.415,44.556L187.457,44.556L188.355,44.556L189.307,44.556L191.252,44.556L192.244,44.556L193.278,44.556L194.174,44.556L195.13,44.556L197.078,44.556L198.062,44.556L199.102,44.556L199.999,44.556" stroke="#72b7b2" stroke-width="2"/></g></g><path class="foreground" aria-hidden="true" d="" display="none"/></g><g transform="translate(0,0)"><path class="background" aria-hidden="true" d="M0,0h200v200h-200Z"/><g><g class="mark-line role-mark marks" role="graphics-object" aria-roledescription="line mark container"><path aria-label="Time: Aug 27, 2025; Price: 1699; identifier: devote-1-2022" role="graphics-symbol" aria-roledescription="line mark" d="M77.458,11.222L77.713,11.222L78.666,11.222L80.611,11.222L81.598,11.222L82.635,11.222L83.535,11.222L84.487,11.222L86.434,11.222L87.418,11.222L88.452,11.222L89.356,11.222L90.307,11.222L92.251,11.222L93.227,11.222L94.258,11.222L95.166,11.222L96.082,11.222L96.127,11.222L98.077,11.222L98.699,11.222L99.048,11.222L100.084,11.222L100.992,11.222L101.952,11.222L103.919,11.222L104.898,11.222L105.931,11.222L106.823,11.222L107.775,11.222L109.733,11.222L110.718,11.222L111.759,11.222L112.65,11.222L113.602,11.222L115.549,11.222L116.532,11.222L117.569,11.222L118.471,11.222L119.423,11.222L121.371,11.222L122.358,11.222L123.387,11.222L124.299,11.222L125.246,11.222L127.197,11.222L128.18,11.222L129.214,11.222L130.111,11.222L131.071,11.222L133.014,11.222L133.513,11.222L133.986,11.222L135.013,11.222L135.925,11.222L136.891,11.222L138.836,11.222L139.809,11.222L140.84,11.222L141.749,11.222L142.714,11.222L144.669,11.222L145.66,11.222L146.698,11.222L147.593,11.222L148.546,11.222L150.49,11.222L151.481,11.222L152.555,11.222L153.42,11.222L154.363,11.222L156.306,11.222L157.299,11.222L158.331,11.222L159.234,11.222L160.19,11.222L162.137,11.222L163.12,11.222L164.152,11.222L165.046,11.222L166.008,11.222L167.956,11.222L168.941,11.222L169.973,11.222L170.872,11.222L171.831,11.222L173.775,11.222L174.75,11.222L175.779,11.222L176.685,11.222L177.655,11.222L179.601,11.222L180.574,11.222L181.598,11.222L182.506,11.222L183.478,11.222L185.434,11.222L186.415,11.222L187.457,11.222L188.355,11.222L189.308,11.222L191.253,11.222L192.244,11.222L193.278,11.222L194.175,11.222L195.13,11.222L197.078,11.222L198.063,11.222L199.102,11.222L199.999,11.222" stroke="#4c78a8" stroke-width="2"/></g></g><path class="foreground" aria-hidden="true" d="" display="none"/></g><g transform="translate(0,0)"><path class="background" aria-hidden="true" d="M0,0h200v200h-200Z"/><g><g class="mark-line role-mark marks" role="graphics-object" aria-roledescription="line mark container"><path aria-label="Time: Aug 31, 2025; Price: 1599; identifier: silex-400-oak-bork-2026" role="graphics-symbol" aria-roledescription="line mark" d="M98.699,22.333L99.048,22.333L100.084,22.333L100.993,22.333L101.953,22.333L103.919,22.333L104.898,22.333L105.932,22.333L106.824,22.333L107.775,22.333L109.734,22.333L110.718,22.333L111.759,22.333L112.651,22.333L113.602,22.333L115.549,22.333L116.532,22.333L117.569,22.333L118.471,22.333L119.424,22.333L121.371,22.333L122.358,22.333L123.388,22.333L124.299,22.333L125.246,22.333L127.197,22.333L128.18,22.333L129.214,22.333L130.111,22.333L131.071,22.333L133.014,22.333L133.514,22.333L133.986,22.333L135.014,22.333L135.925,22.333L136.891,22.333L138.836,22.333L139.809,22.333L140.84,22.333L141.749,22.333L142.714,22.333L144.67,22.333L145.66,22.333L146.699,22.333L147.593,22.333L148.547,22.333L150.491,22.333L151.481,22.333L152.555,22.333L153.42,22.333L154.364,22.333L156.306,22.333L157.299,22.333L158.331,22.333L159.235,22.333L160.19,22.333L162.137,22.333L163.12,22.333L164.152,22.333L165.047,22.333L166.008,22.333L167.956,22.333L168.942,22.333L169.973,22.333L170.872,22.333L171.831,22.333L173.776,22.333L174.751,22.333L175.779,22.333L176.685,22.333L177.655,22.333L179.601,22.333L180.574,22.333L181.598,22.333L182.507,22.333L183.479,22.333L185.434,22.333L186.416,22.333L187.457,22.333L188.356,22.333L189.308,22.333L191.253,22.333L192.244,22.333L193.279,22.333L194.175,22.333L195.13,22.333L197.078,22.333L198.063,22.333L199.102,22.333L200,22.333" stroke="#f58518" stroke-width="2"/></g></g><path class="foreground" aria-hidden="true" d="" display="none"/></g><g transform="translate(0,0)"><path class="background" aria-hidden="true" d="M0,0h200v200h-200Z"/><g><g class="mark-line role-mark marks" role="graphics-object" aria-roledescription="line mark container"><path aria-label="Time: Aug 31, 2025; Price: 1599; identifier: silex-400-warm-slate-grey-2026" role="graphics-symbol" aria-roledescription="line mark" d="M98.699,22.333L99.049,22.333L100.084,22.333L100.993,22.333L101.953,22.333L103.92,22.333L104.898,22.333L105.932,22.333L106.824,22.333L107.775,22.333L109.734,22.333L110.718,22.333L111.759,22.333L112.651,22.333L113.603,22.333L115.55,22.333L116.532,22.333L117.57,22.333L118.471,22.333L119.424,22.333L121.372,22.333L122.358,22.333L123.388,22.333L124.299,22.333L125.246,22.333L127.197,22.333L128.18,22.333L129.214,22.333L130.112,22.333L131.071,22.333L133.015,22.333L133.514,22.333L133.987,22.333L135.014,22.333L135.925,22.333L136.891,22.333L138.836,22.333L139.809,22.333L140.841,22.333L141.749,22.333L142.715,22.333L144.67,22.333L145.66,22.333L146.699,22.333L147.593,22.333L148.547,22.333L150.491,22.333L151.481,22.333L152.555,22.333L153.421,22.333L154.364,22.333L156.306,22.333L157.299,22.333L158.331,22.333L159.235,22.333L160.19,22.333L162.138,22.333L163.12,22.333L164.152,22.333L165.047,22.333L166.008,22.333L167.956,22.333L168.942,22.333L169.973,22.333L170.873,22.333L171.831,22.333L173.776,22.333L174.751,22.333L175.779,22.333L176.685,22.333L177.656,22.333L179.602,22.333L180.575,22.333L181.598,22.333L182.507,22.333L183.479,22.333L185.435,22.333L186.416,22.333L187.457,22.333L188.356,22.333L189.309,22.333L191.253,22.333L192.244,22.333L193.279,22.333L194.175,22.333L195.131,22.333L197.079,22.333L198.063,22.333L199.103,22.333L200,22.333" stroke="#e45756" stroke-width="2"/></g></g><path class="foreground" aria-hidden="true" d="" display="none"/></g></g><g class="mark-group role-legend" role="graphics-symbol" aria-roledescription="legend" aria-label="Symbol legend titled 'identifier' for stroke color with 16 values: devote-1-2022, silex-400-oak-bork-2026, silex-400-warm-slate-grey-2026, devote-1-2024, fastroad-ar-2, ending with allure-rs-2-2024"><g transform="translate(220,0)"><path class="background" aria-hidden="true" d="M0,0h256v222h-256Z" pointer-events="none"/><g><g class="mark-group role-legend-entry"><g transform="translate(0,16)"><path class="background" aria-hidden="true" d="M0,0h0v0h0Z" pointer-events="none"/><g><g class="mark-group role-scope" role="graphics-object" aria-roledescription="group mark container"><g transform="translate(0,0)"><path class="background" aria-hidden="true" d="M0,0h256v11h-256Z" pointer-events="none" opacity="1"/><g><g class="mark-symbol role-legend-symbol" pointer-events="none"><path transform="translate(6,6)" d="M-5,0L5,0" stroke="#4c78a8" stroke-width="1.5" opacity="1"/></g><g class="mark-text role-legend-label" pointer-events="none"><text text-anchor="start" transform="translate(16,9)" font-family="Liberation Mono" font-size="10px" fill="#000" opacity="1">devote-1-2022</text></g></g><path class="foreground" aria-hidden="true" d="" pointer-events="none" display="none"/></g><g transform="translate(0,13)"><path class="background" aria-hidden="true" d="M0,0h256v11h-256Z" pointer-events="none" opacity="1"/><g><g class="mark-symbol role-legend-symbol" pointer-events="none"><path transform="translate(6,6)" d="M-5,0L5,0" stroke="#f58518" stroke-width="1.5" opacity="1"/></g><g class="mark-text role-legend-label" pointer-events="none"><text text-anchor="start" transform="translate(16,9)" font-family="Liberation Mono" font-size="10px" fill="#000" opacity="1">silex-400-oak-bork-2026</text></g></g><path class="foreground" aria-hidden="true" d="" pointer-events="none" display="none"/></g><g transform="translate(0,26)"><path class="background" aria-hidden="true" d="M0,0h256v11h-256Z" pointer-events="none" opacity="1"/><g><g class="mark-symbol role-legend-symbol" pointer-events="none"><path transform="translate(6,6)" d="M-5,0L5,0" stroke="#e45756" stroke-width="1.5" opacity="1"/></g><g class="mark-text role-legend-label" pointer-events="none"><text text-anchor="start" transform="translate(16,9)" font-family="Liberation Mono" font-size="10px" fill="#000" opacity="1">silex-400-warm-slate-grey-2026</text></g></g><path class="foreground" aria-hidden="true" d="" pointer-events="none" display="none"/></g><g transform="translate(0,39)"><path class="background" aria-hidden="true" d="M0,0h256v11h-256Z" pointer-events="none" opacity="1"/><g><g class="mark-symbol role-legend-symbol" pointer-events="none"><path transform="translate(6,6)" d="M-5,0L5,0" stroke="#72b7b2" stroke-width="1.5" opacity="1"/></g><g class="mark-text role-legend-label" pointer-events="none"><text text-anchor="start" transform="translate(16,9)" font-family="Liberation Mono" font-size="10px" fill="#000" opacity="1">devote-1-2024</text></g></g><path class="foreground" aria-hidden="true" d="" pointer-events="none" display="none"/></g><g transform="translate(0,52)"><path class="background" aria-hidden="true" d="M0,0h256v11h-256Z" pointer-events="none" opacity="1"/><g><g class="mark-symbol role-legend-symbol" pointer-events="none"><path transform="translate(6,6)" d="M-5,0L5,0" stroke="#54a24b" stroke-width="1.5" opacity="1"/></g><g class="mark-text role-legend-label" pointer-events="none"><text text-anchor="start" transform="translate(16,9)" font-family="Liberation Mono" font-size="10px" fill="#000" opacity="1">fastroad-ar-2</text></g></g><path class="foreground" aria-hidden="true" d="" pointer-events="none" display="none"/></g><g transform="translate(0,65)"><path class="background" aria-hidden="true" d="M0,0h256v11h-256Z" pointer-events="none" opacity="1"/><g><g class="mark-symbol role-legend-symbol" pointer-events="none"><path transform="translate(6,6)" d="M-5,0L5,0" stroke="#eeca3b" stroke-width="1.5" opacity="1"/></g><g class="mark-text role-legend-label" pointer-events="none"><text text-anchor="start" transform="translate(16,9)" font-family="Liberation Mono" font-size="10px" fill="#000" opacity="1">thrive-2</text></g></g><path class="foreground" aria-hidden="true" d="" pointer-events="none" display="none"/></g><g transform="translate(0,78)"><path class="background" aria-hidden="true" d="M0,0h256v11h-256Z" pointer-events="none" opacity="1"/><g><g class="mark-symbol role-legend-symbol" pointer-events="none"><path transform="translate(6,6)" d="M-5,0L5,0" stroke="#b279a2" stroke-width="1.5" opacity="1"/></g><g class="mark-text role-legend-label" pointer-events="none"><text text-anchor="start" transform="translate(16,9)" font-family="Liberation Mono" font-size="10px" fill="#000" opacity="1">allure-rs-1-2023</text></g></g><path class="foreground" aria-hidden="true" d="" pointer-events="none" display="none"/></g><g transform="translate(0,91)"><path class="background" aria-hidden="true" d="M0,0h256v11h-256Z" pointer-events="none" opacity="1"/><g><g class="mark-symbol role-legend-symbol" pointer-events="none"><path transform="translate(6,6)" d="M-5,0L5,0" stroke="#ff9da6" stroke-width="1.5" opacity="1"/></g><g class="mark-text role-legend-label" pointer-events="none"><text text-anchor="start" transform="translate(16,9)" font-family="Liberation Mono" font-size="10px" fill="#000" opacity="1">roam-2</text></g></g><path class="foreground" aria-hidden="true" d="" pointer-events="none" display="none"/></g><g transform="translate(0,104)"><path class="background" aria-hidden="true" d="M0,0h256v11h-256Z" pointer-events="none" opacity="1"/><g><g class="mark-symbol role-legend-symbol" pointer-events="none"><path transform="translate(6,6)" d="M-5,0L5,0" stroke="#9d755d" stroke-width="1.5" opacity="1"/></g><g class="mark-text role-legend-label" pointer-events="none"><text text-anchor="start" transform="translate(16,9)" font-family="Liberation Mono" font-size="10px" fill="#000" opacity="1">fastroad-sl-3-2022</text></g></g><path class="foreground" aria-hidden="true" d="" pointer-events="none" display="none"/></g><g transform="translate(0,117)"><path class="background" aria-hidden="true" d="M0,0h256v11h-256Z" pointer-events="none" opacity="1"/><g><g class="mark-symbol role-legend-symbol" pointer-events="none"><path transform="translate(6,6)" d="M-5,0L5,0" stroke="#bab0ac" stroke-width="1.5" opacity="1"/></g><g class="mark-text role-legend-label" pointer-events="none"><text text-anchor="start" transform="translate(16,9)" font-family="Liberation Mono" font-size="10px" fill="#000" opacity="1">allure-rs-2-2023</text></g></g><path class="foreground" aria-hidden="true" d="" pointer-events="none" display="none"/></g><g transform="translate(0,130)"><path class="background" aria-hidden="true" d="M0,0h256v11h-256Z" pointer-events="none" opacity="1"/><g><g class="mark-symbol role-legend-symbol" pointer-events="none"><path transform="translate(6,6)" d="M-5,0L5,0" stroke="#4c78a8" stroke-width="1.5" opacity="1"/></g><g class="mark-text role-legend-label" pointer-events="none"><text text-anchor="start" transform="translate(16,9)" font-family="Liberation Mono" font-size="10px" fill="#000" opacity="1">escape-city-disc-1-2024</text></g></g><path class="foreground" aria-hidden="true" d="" pointer-events="none" display="none"/></g><g transform="translate(0,143)"><path class="background" aria-hidden="true" d="M0,0h256v11h-256Z" pointer-events="none" opacity="1"/><g><g class="mark-symbol role-legend-symbol" pointer-events="none"><path transform="translate(6,6)" d="M-5,0L5,0" stroke="#f58518" stroke-width="1.5" opacity="1"/></g><g class="mark-text role-legend-label" pointer-events="none"><text text-anchor="start" transform="translate(16,9)" font-family="Liberation Mono" font-size="10px" fill="#000" opacity="1">sdrbike-escape-1-city-disc</text></g></g><path class="foreground" aria-hidden="true" d="" pointer-events="none" display="none"/></g><g transform="translate(0,156)"><path class="background" aria-hidden="true" d="M0,0h256v11h-256Z" pointer-events="none" opacity="1"/><g><g class="mark-symbol role-legend-symbol" pointer-events="none"><path transform="translate(6,6)" d="M-5,0L5,0" stroke="#e45756" stroke-width="1.5" opacity="1"/></g><g class="mark-text role-legend-label" pointer-events="none"><text text-anchor="start" transform="translate(16,9)" font-family="Liberation Mono" font-size="10px" fill="#000" opacity="1">roam-disc-2-2024</text></g></g><path class="foreground" aria-hidden="true" d="" pointer-events="none" display="none"/></g><g transform="translate(0,169)"><path class="background" aria-hidden="true" d="M0,0h256v11h-256Z" pointer-events="none" opacity="1"/><g><g class="mark-symbol role-legend-symbol" pointer-events="none"><path transform="translate(6,6)" d="M-5,0L5,0" stroke="#72b7b2" stroke-width="1.5" opacity="1"/></g><g class="mark-text role-legend-label" pointer-events="none"><text text-anchor="start" transform="translate(16,9)" font-family="Liberation Mono" font-size="10px" fill="#000" opacity="1">rove-2</text></g></g><path class="foreground" aria-hidden="true" d="" pointer-events="none" display="none"/></g><g transform="translate(0,182)"><path class="background" aria-hidden="true" d="M0,0h256v11h-256Z" pointer-events="none" opacity="1"/><g><g class="mark-symbol role-legend-symbol" pointer-events="none"><path transform="translate(6,6)" d="M-5,0L5,0" stroke="#54a24b" stroke-width="1.5" opacity="1"/></g><g class="mark-text role-legend-label" pointer-events="none"><text text-anchor="start" transform="translate(16,9)" font-family="Liberation Mono" font-size="10px" fill="#000" opacity="1">allure-rs-2-2022</text></g></g><path class="foreground" aria-hidden="true" d="" pointer-events="none" display="none"/></g><g transform="translate(0,195)"><path class="background" aria-hidden="true" d="M0,0h256v11h-256Z" pointer-events="none" opacity="1"/><g><g class="mark-symbol role-legend-symbol" pointer-events="none"><path transform="translate(6,6)" d="M-5,0L5,0" stroke="#eeca3b" stroke-width="1.5" opacity="1"/></g><g class="mark-text role-legend-label" pointer-events="none"><text text-anchor="start" transform="translate(16,9)" font-family="Liberation Mono" font-size="10px" fill="#000" opacity="1">allure-rs-2-2024</text></g></g><path class="foreground" aria-hidden="true" d="" pointer-events="none" display="none"/></g></g></g><path class="foreground" aria-hidden="true" d="" pointer-events="none" display="none"/></g></g><g class="mark-text role-legend-title" pointer-events="none"><text text-anchor="start" transform="translate(0,9)" font-family="Liberation Mono" font-size="11px" font-weight="bold" fill="#000" opacity="1">identifier</text></g></g><path class="foreground" aria-hidden="true" d="" pointer-events="none" display="none"/></g></g></g><path class="foreground" aria-hidden="true" d="" display="none"/></g></g></g></svg>