<svg xmlns="http://www.w3.org/2000/svg" xmlns:xlink="http://www.w3.org/1999/xlink" version="1.1" class="marks" width="548" height="244" viewBox="0 0 548 244"><rect width="548" height="244" fill="white"/><g fill="none" stroke-miterlimit="10" transform="translate(67,7)"><g class="mark-group role-frame root" role="graphics-object" aria-roledescription="group mark container"><g transform="translate(0,0)"><path class="background" aria-hidden="true" d="M0.5,0.5h200v200h-200Z" stroke="#ddd"/><g><g class="mark-group role-axis" aria-hidden="true"><g transform="translate(0.5,200.5)"><path class="background" aria-hidden="true" d="M0,0h0v0h0Z" pointer-events="none"/><g><g class="mark-rule role-axis-grid" pointer-events="none"><line transform="translate(9,-200)" x2="0" y2="200" stroke="#ddd" stroke-width="1" opacity="1"/><line transform="translate(32,-200)" x2="0" y2="200" stroke="#ddd" stroke-width="1" opacity="1"/><line transform="translate(54,-200)" x2="0" y2="200" stroke="#ddd" stroke-width="1" opacity="1"/><line transform="translate(77,-200)" x2="0" y2="200" stroke="#ddd" stroke-width="1" opacity="1"/><line transform="translate(100,-200)" x2="0" y2="200" stroke="#ddd" stroke-width="1" opacity="1"/><line transform="translate(123,-200)" x2="0" y2="200" stroke="#ddd" stroke-width="1" opacity="1"/><line transform="translate(146,-200)" x2="0" y2="200" stroke="#ddd" stroke-width="1" opacity="1"/><line transform="translate(169,-200)" x2="0" y2="200" stroke="#ddd" stroke-width="1" opacity="1"/><line transform="translate(192,-200)" x2="0" y2="200" stroke="#ddd" stroke-width="1" opacity="1"/></g></g><path class="foreground" aria-hidden="true" d="" pointer-events="none" display="none"/></g></g><g class="mark-group role-axis" aria-hidden="true"><g transform="translate(0.5,0.5)"><path class="background" aria-hidden="true" d="M0,0h0v0h0Z" pointer-events="none"/><g><g class="mark-rule role-axis-grid" pointer-events="none"><line transform="translate(0,200)" x2="200" y2="0" stroke="#ddd" stroke-width="1" opacity="1"/><line transform="translate(0,144)" x2="200" y2="0" stroke="#ddd" stroke-width="1" opacity="1"/><line transform="translate(0,89)" x2="200" y2="0" stroke="#ddd" stroke-width="1" opacity="1"/><line transform="translate(0,33)" x2="200" y2="0" stroke="#ddd" stroke-width="1" opacity="1"/></g></g><path class="foreground" aria-hidden="true" d="" pointer-events="none" display="none"/></g></g><g class="mark-group role-axis" role="graphics-symbol" aria-roledescription="axis" aria-label="X-axis titled 'Time' for a time scale with values from Thursday, 14 August 2025, 8:34:48 AM to Tuesday, 14 October 2025, 1:17:33 PM"><g transform="translate(0.5,200.5)"><path class="background" aria-hidden="true" d="M0,0h0v0h0Z" pointer-events="none"/><g><g class="mark-rule role-axis-tick" pointer-events="none"><line transform="translate(9,0)" x2="0" y2="5" stroke="#888" stroke-width="1" opacity="1"/><line transform="translate(32,0)" x2="0" y2="5" stroke="#888" stroke-width="1" opacity="1"/><line transform="translate(54,0)" x2="0" y2="5" stroke="#888" stroke-width="1" opacity="1"/><line transform="translate(77,0)" x2="0" y2="5" stroke="#888" stroke-width="1" opacity="1"/><line transform="translate(100,0)" x2="0" y2="5" stroke="#888" stroke-width="1" opacity="1"/><line transform="translate(123,0)" x2="0" y2="5" stroke="#888" stroke-width="1" opacity="1"/><line transform="translate(146,0)" x2="0" y2="5" stroke="#888" stroke-width="1" opacity="1"/><line transform="translate(169,0)" x2="0" y2="5" stroke="#888" stroke-width="1" opacity="1"/><line transform="translate(192,0)" x2="0" y2="5" stroke="#888" stroke-width="1" opacity="1"/></g><g class="mark-text role-axis-label" pointer-events="none"><text text-anchor="middle" transform="translate(8.636107402080523,15)" font-family="Liberation Mono" font-size="10px" fill="#000" opacity="1">Aug 17</text><text text-anchor="middle" transform="translate(31.51328875501082,15)" font-family="Liberation Mono" font-size="10px" fill="#000" opacity="0">Aug 24</text><text text-anchor="middle" transform="translate(54.39047010794111,15)" font-family="Liberation Mono" font-size="10px" fill="#000" opacity="0">Aug 31</text><text text-anchor="middle" transform="translate(77.2676514608714,15)" font-family="Liberation Mono" font-size="10px" fill="#000" opacity="0">Sep 07</text><text text-anchor="middle" transform="translate(100.14483281380171,15)" font-family="Liberation Mono" font-size="10px" fill="#000" opacity="1">Sep 14</text><text text-anchor="middle" transform="translate(123.02201416673199,15)" font-family="Liberation Mono" font-size="10px" fill="#000" opacity="0">Sep 21</text><text text-anchor="middle" transform="translate(145.8991955196623,15)" font-family="Liberation Mono" font-size="10px" fill="#000" opacity="0">Sep 28</text><text text-anchor="middle" transform="translate(168.7763768725926,15)" font-family="Liberation Mono" font-size="10px" fill="#000" opacity="0">Oct 05</text><text text-anchor="middle" transform="translate(191.6535582255229,15)" font-family="Liberation Mono" font-size="10px" fill="#000" opacity="1">Oct 12</text></g><g class="mark-rule role-axis-domain" pointer-events="none"><line transform="translate(0,0)" x2="200" y2="0" stroke="#888" stroke-width="1" opacity="1"/></g><g class="mark-text role-axis-title" pointer-events="none"><text text-anchor="middle" transform="translate(100,30)" font-family="Liberation Mono" font-size="11px" font-weight="bold" fill="#000" opacity="1">Time</text></g></g><path class="foreground" aria-hidden="true" d="" pointer-events="none" display="none"/></g></g><g class="mark-group role-axis" role="graphics-symbol" aria-roledescription="axis" aria-label="Y-axis titled 'Price' for a linear scale with values from 0 to 1,800"><g transform="translate(0.5,0.5)"><path class="background" aria-hidden="true" d="M0,0h0v0h0Z" pointer-events="none"/><g><g class="mark-rule role-axis-tick" pointer-events="none"><line transform="translate(0,200)" x2="-5" y2="0" stroke="#888" stroke-width="1" opacity="1"/><line transform="translate(0,144)" x2="-5" y2="0" stroke="#888" stroke-width="1" opacity="1"/><line transform="translate(0,89)" x2="-5" y2="0" stroke="#888" stroke-width="1" opacity="1"/><line transform="translate(0,33)" x2="-5" y2="0" stroke="#888" stroke-width="1" opacity="1"/></g><g class="mark-text role-axis-label" pointer-events="none"><text text-anchor="end" transform="translate(-7,203)" font-family="Liberation Mono" font-size="10px" fill="#000" opacity="1">0</text><text text-anchor="end" transform="translate(-7,147.44444444444443)" font-family="Liberation Mono" font-size="10px" fill="#000" opacity="1">500</text><text text-anchor="end" transform="translate(-7,91.88888888888889)" font-family="Liberation Mono" font-size="10px" fill="#000" opacity="1">1,000</text><text text-anchor="end" transform="translate(-7,36.33333333333333)" font-family="Liberation Mono" font-size="10px" fill="#000" opacity="1">1,500</text></g><g class="mark-rule role-axis-domain" pointer-events="none"><line transform="translate(0,200)" x2="0" y2="-200" stroke="#888" stroke-width="1" opacity="1"/></g><g class="mark-text role-axis-title" pointer-events="none"><text text-anchor="middle" transform="translate(-51,100) rotate(-90) translate(0,-2)" font-family="Liberation Mono" font-size="11px" font-weight="bold" fill="#000" opacity="1">Price</text></g></g><path class="foreground" aria-hidden="true" d="" pointer-events="none" display="none"/></g></g><g class="mark-group role-scope pathgroup" role="graphics-object" aria-roledescription="group mark container"><g transform="translate(0,0)"><path class="background" aria-hidden="true" d="M0,0h200v200h-200Z"/><g><g class="mark-line role-mark marks" role="graphics-object" aria-roledescription="line mark container"><path aria-label="Time: Aug 14, 2025; Price: 899; identifier: escape-city-disc-1-2024" role="graphics-symbol" aria-roledescription="line mark" d="M0,100.111L0.027,100.111L0.049,100.111L0.651,100.111L1.13,100.111L1.667,100.111L2.77,100.111L3.311,100.111L3.908,100.111L4.399,100.111L4.933,100.111L6.027,100.111L6.575,100.111L7.155,100.111L7.661,100.111L8.196,100.111L9.308,100.111L9.842,100.111L10.425,100.111L10.931,100.111L11.469,100.111L12.585,100.111L13.122,100.111L13.724,100.111L13.935,100.111L14.21,100.111L14.734,100.111L15.829,100.111L16.382,100.111L16.962,100.111L17.469,100.111L18.001,100.111L19.098,100.111L19.646,100.111L20.25,100.111L20.494,100.111L20.736,100.111L21.273,100.111L22.364,100.111L22.916,100.111L23.5,100.111L24.007,100.111L24.539,100.111L25.633,100.111L26.184,100.111L26.766,100.111L27.271,100.111L27.806,100.111L28.899,100.111L29.447,100.111L30.024,100.111L30.531,100.111L31.07,100.111L32.171,100.111L32.713,100.111L33.294,100.111L33.803,100.111L34.34,100.111L35.444,100.111L35.995,100.111L36.592,100.111L37.08,100.111L37.612,100.111L38.707,100.111L39.261,100.111L40.345,100.111L40.876,100.111L41.971,100.111L42.523,100.111L42.737,100.111L43.105,100.111L43.47,100.111L43.612,100.111L44.147,100.111L45.238,100.111L45.792,100.111L46.375,100.111L46.88,100.111L47.414,100.111L48.507,100.111L49.058,100.111L49.639,100.111L50.147,100.111L50.68,100.111L51.771,100.111L52.319,100.111L52.897,100.111L53.407,100.111L53.921,100.111L53.946,100.111L55.041,100.111L55.39,100.111L55.586,100.111L56.167,100.111L56.677,100.111L57.216,100.111L58.319,100.111L58.869,100.111L59.449,100.111L59.949,100.111L60.483,100.111L61.582,100.111L62.135,100.111L62.719,100.111L63.219,100.111L63.753,100.111L64.846,100.111L65.398,100.111L65.98,100.111L66.486,100.111L67.02,100.111L68.113,100.111L68.667,100.111L69.245,100.111L69.756,100.111L70.288,100.111L71.383,100.111L71.935,100.111L72.515,100.111L73.018,100.111L73.557,100.111L74.648,100.111L74.928,100.111L75.193,100.111L75.769,100.111L76.281,100.111L76.824,100.111L77.915,100.111L78.461,100.111L79.04,100.111L79.55,100.111L80.091,100.111L81.188,100.111L81.744,100.111L82.327,100.111L82.829,100.111L83.365,100.111L84.455,100.111L85.011,100.111L85.614,100.111L86.1,100.111L86.629,100.111L87.719,100.111L88.276,100.111L88.856,100.111L89.363,100.111L89.898,100.111L90.991,100.111L91.543,100.111L92.122,100.111L92.624,100.111L93.164,100.111L94.257,100.111L94.81,100.111L95.389,100.111L95.894,100.111L96.432,100.111L97.523,100.111L98.07,100.111L98.647,100.111L99.156,100.111L99.7,100.111L100.793,100.111L101.339,100.111L101.913,100.111L102.423,100.111L102.969,100.111L104.066,100.111L104.617,100.111L105.201,100.111L105.704,100.111L106.238,100.111L107.331,100.111L107.888,100.111L108.468,100.111L108.971,100.111L109.508,100.111L110.601,100.111L111.153,100.111L111.737,100.111L112.24,100.111L112.775,100.111L113.868,100.111L114.421,100.111L115.004,100.111L115.506,100.111L116.044,100.111L117.137,100.111L117.689,100.111L118.271,100.111L118.777,100.111L119.31,100.111L120.402,100.111L120.951,100.111L121.529,100.111L122.035,100.111L122.577,100.111L123.672,100.111L124.216,100.111L124.796,100.111L125.306,100.111L125.847,100.111L126.942,100.111L127.498,100.111L128.08,100.111L128.576,100.111L129.118,100.111L130.209,100.111L130.764,100.111L131.345,100.111L131.851,100.111L132.385,100.111L133.478,100.111L134.033,100.111L134.614,100.111L135.122,100.111L135.651,100.111L136.746,100.111L137.302,100.111L137.885,100.111L138.389,100.111L138.919,100.111L140.013,100.111L140.569,100.111L141.149,100.111L141.654,100.111L142.188,100.111L143.281,100.111L143.826,100.111L144.404,100.111L144.914,100.111L145.456,100.111L146.549,100.111L147.094,100.111L147.673,100.111L148.179,100.111L148.723,100.111L149.82,100.111L150.377,100.111L150.959,100.111L151.448,100.111L151.993,100.111L153.087,100.111L153.646,100.111L154.226,100.111L154.727,100.111L155.262,100.111L156.357,100.111L156.912,100.111L157.495,100.111L157.997,100.111L158.53,100.111L159.621,100.111L160.174,100.111L160.755,100.111L161.264,100.111L161.797,100.111L162.888,100.111L163.442,100.111L164.021,100.111L164.53,100.111L165.064,100.111L166.156,100.111L166.704,100.111L167.28,100.111L167.791,100.111L168.332,100.111L169.422,100.111L169.97,100.111L170.549,100.111L171.059,100.111L171.601,100.111L172.695,100.111L173.25,100.111L173.833,100.111L174.337,100.111L174.872,100.111L175.963,100.111L176.517,100.111L177.102,100.111L177.605,100.111L178.139,100.111L179.232,100.111L179.788,100.111L180.371,100.111L180.874,100.111L181.408,100.111L182.502,100.111L183.057,100.111L183.64,100.111L184.147,100.111L184.677,100.111L185.768,100.111L186.322,100.111L186.903,100.111L187.409,100.111L187.944,100.111L189.034,100.111L189.581,100.111L190.158,100.111L190.666,100.111L191.209,100.111L192.302,100.111L192.849,100.111L193.427,100.111L193.937,100.111L194.477,100.111L195.577,100.111L196.134,100.111L196.713,100.111L197.213,100.111L197.748,100.111L198.841,100.111L199.395,100.111L199.999,100.111" stroke="#4c78a8" stroke-width="2"/></g></g><path class="foreground" aria-hidden="true" d="" display="none"/></g><g transform="translate(0,0)"><path class="background" aria-hidden="true" d="M0,0h200v200h-200Z"/><g><g class="mark-line role-mark marks" role="graphics-object" aria-roledescription="line mark container"><path aria-label="Time: Aug 14, 2025; Price: 999; identifier: roam-2" role="graphics-symbol" aria-roledescription="line mark" d="M0,89L0.027,89L0.049,89L0.651,89L1.13,89L1.667,89L2.77,89L3.311,89L3.909,89L4.399,89L4.933,89L6.027,89L6.575,89L7.155,89L7.661,89L8.202,89L9.308,89L9.842,89L10.425,89L10.931,89L11.469,89L12.585,89L13.122,89L13.724,89L13.935,89L14.21,89L14.734,89L15.829,89L16.382,89L16.962,89L17.469,89L18.001,89L19.098,89L19.646,89L20.25,89L20.495,89L20.736,89L21.273,89L22.364,89L22.917,89L23.5,89L24.007,89L24.539,89L25.633,89L26.184,89L26.767,89L27.272,89L27.806,89L28.899,89L29.447,89L30.025,89L30.531,89L31.071,89L32.171,89L32.713,89L33.294,89L33.803,89L34.34,89L35.444,89L35.995,89L36.592,89L37.08,89L37.612,89L38.707,89L39.262,89L40.345,89L40.877,89L41.971,89L42.523,89L42.738,89L43.105,89L43.47,89L43.612,89L44.147,89L45.238,89L45.793,89L46.375,89L46.88,89L47.414,89L48.507,89L49.059,89L49.639,89L50.147,89L50.68,89L51.771,89L52.319,89L52.897,89L53.407,89L53.921,89L53.946,89L55.041,89L55.39,89L55.586,89L56.167,89L56.677,89L57.216,89L58.319,89L58.869,89L59.449,89L59.949,89L60.483,89L61.582,89L62.135,89L62.719,89L63.22,89L63.754,89L64.846,89L65.398,89L65.98,89L66.486,89L67.021,89L68.114,89L68.667,89L69.245,89L69.757,89L70.288,89L71.383,89L71.935,89L72.515,89L73.019,89L73.557,89L74.648,89L74.928,89L75.193,89L75.77,89L76.281,89L76.824,89L77.915,89L78.461,89L79.04,89L79.55,89L80.092,89L81.189,89L81.744,89L82.327,89L82.829,89L83.365,89L84.456,89L85.011,89L85.614,89L86.1,89L86.629,89L87.719,89L88.276,89L88.856,89L89.363,89L89.899,89L90.992,89L91.543,89L92.123,89L92.624,89L93.164,89L94.257,89L94.81,89L95.389,89L95.894,89L96.432,89L97.523,89L98.071,89L98.648,89L99.156,89L99.701,89L100.793,89L101.339,89L101.913,89L102.423,89L102.969,89L104.066,89L104.617,89L105.201,89L105.705,89L106.239,89L107.332,89L107.888,89L108.469,89L108.971,89L109.508,89L110.601,89L111.154,89L111.737,89L112.24,89L112.775,89L113.869,89L114.421,89L115.004,89L115.507,89L116.044,89L117.137,89L117.689,89L118.271,89L118.777,89L119.31,89L120.403,89L120.951,89L121.529,89L122.035,89L122.577,89L123.672,89L124.217,89L124.796,89L125.306,89L125.847,89L126.942,89L127.498,89L128.08,89L128.576,89L129.118,89L130.209,89L130.764,89L131.345,89L131.852,89L132.386,89L133.478,89L134.033,89L134.614,89L135.122,89L135.651,89L136.747,89L137.302,89L137.885,89L138.389,89L138.919,89L140.013,89L140.569,89L141.149,89L141.654,89L142.188,89L143.281,89L143.826,89L144.404,89L144.914,89L145.456,89L146.549,89L147.094,89L147.674,89L148.18,89L148.723,89L149.82,89L150.377,89L150.959,89L151.448,89L151.993,89L153.087,89L153.646,89L154.226,89L154.727,89L155.262,89L156.357,89L156.912,89L157.495,89L157.997,89L158.531,89L159.621,89L160.174,89L160.755,89L161.264,89L161.797,89L162.888,89L163.442,89L164.021,89L164.53,89L165.064,89L166.156,89L166.704,89L167.281,89L167.791,89L168.332,89L169.422,89L169.97,89L170.55,89L171.059,89L171.601,89L172.695,89L173.25,89L173.833,89L174.337,89L174.872,89L175.963,89L176.517,89L177.102,89L177.605,89L178.14,89L179.232,89L179.788,89L180.371,89L180.874,89L181.408,89L182.502,89L183.057,89L183.64,89L184.147,89L184.677,89L185.769,89L186.322,89L186.904,89L187.409,89L187.944,89L189.034,89L189.581,89L190.158,89L190.666,89L191.21,89L192.303,89L192.849,89L193.427,89L193.937,89L194.477,89L195.577,89L196.134,89L196.713,89L197.214,89L197.748,89L198.841,89L199.395,89L199.999,89" stroke="#ff9da6" stroke-width="2"/></g></g><path class="foreground" aria-hidden="true" d="" display="none"/></g><g transform="translate(0,0)"><path class="background" aria-hidden="true" d="M0,0h200v200h-200Z"/><g><g class="mark-line role-mark marks" role="graphics-object" aria-roledescription="line mark container"><path aria-label="Time: Aug 14, 2025; Price: 999; identifier: fastroad-sl-3-2022" role="graphics-symbol" aria-roledescription="line mark" d="M0,89L0.027,89L0.049,89L0.651,89L1.13,89L1.667,89L2.77,89L3.311,89L3.909,89L4.399,89L4.933,89L6.027,89L6.575,89L7.155,89L7.661,89L8.202,89L9.308,89L9.842,89L10.425,89L10.931,89L11.469,89L12.585,89L13.122,89L13.724,89L13.936,89L14.21,89L14.734,89L15.829,89L16.382,89L16.962,89L17.469,89L18.001,89L19.098,89L19.646,89L20.25,89L20.495,89L20.737,89L21.273,89L22.364,89L22.917,89L23.5,89L24.007,89L24.539,89L25.633,89L26.184,89L26.767,89L27.272,89L27.806,89L28.899,89L29.447,89L30.025,89L30.531,89L31.071,89L32.171,89L32.713,89L33.295,89L33.803,89L34.34,89L35.444,89L35.996,89L36.592,89L37.08,89L37.612,89L38.707,89L39.262,89L40.345,89L40.877,89L41.971,89L42.523,89L42.738,89L43.105,89L43.47,89L43.612,89L44.147,89L45.239,89L45.793,89L46.375,89L46.88,89L47.414,89L48.507,89L49.059,89L49.639,89L50.147,89L50.68,89L51.771,89L52.319,89L52.897,89L53.407,89L53.921,89L53.947,89L55.041,89L55.39,89L55.586,89L56.167,89L56.677,89L57.216,89L58.32,89L58.869,89L59.449,89L59.949,89L60.483,89L61.582,89L62.135,89L62.719,89L63.22,89L63.754,89L64.846,89L65.398,89L65.98,89L66.486,89L67.021,89L68.114,89L68.667,89L69.245,89L69.757,89L70.288,89L71.383,89L71.935,89L72.515,89L73.019,89L73.557,89L74.648,89L74.928,89L75.193,89L75.77,89L76.281,89L76.824,89L77.915,89L78.461,89L79.04,89L79.55,89L80.092,89L81.189,89L81.745,89L82.327,89L82.83,89L83.365,89L84.456,89L85.011,89L85.614,89L86.1,89L86.629,89L87.719,89L88.276,89L88.856,89L89.363,89L89.899,89L90.992,89L91.543,89L92.123,89L92.625,89L93.164,89L94.257,89L94.81,89L95.389,89L95.894,89L96.432,89L97.523,89L98.071,89L98.648,89L99.156,89L99.701,89L100.793,89L101.339,89L101.913,89L102.423,89L102.969,89L104.066,89L104.617,89L105.201,89L105.705,89L106.239,89L107.332,89L107.888,89L108.469,89L108.972,89L109.508,89L110.601,89L111.154,89L111.737,89L112.241,89L112.775,89L113.869,89L114.421,89L115.004,89L115.507,89L116.044,89L117.137,89L117.689,89L118.271,89L118.777,89L119.31,89L120.403,89L120.951,89L121.529,89L122.035,89L122.577,89L123.672,89L124.217,89L124.796,89L125.306,89L125.847,89L126.942,89L127.498,89L128.08,89L128.576,89L129.118,89L130.209,89L130.764,89L131.345,89L131.852,89L132.386,89L133.478,89L134.033,89L134.614,89L135.122,89L135.652,89L136.747,89L137.302,89L137.885,89L138.39,89L138.919,89L140.013,89L140.569,89L141.149,89L141.654,89L142.188,89L143.281,89L143.826,89L144.404,89L144.914,89L145.456,89L146.549,89L147.094,89L147.674,89L148.18,89L148.723,89L149.82,89L150.377,89L150.959,89L151.448,89L151.993,89L153.087,89L153.646,89L154.226,89L154.727,89L155.262,89L156.357,89L156.912,89L157.495,89L157.997,89L158.531,89L159.621,89L160.175,89L160.755,89L161.264,89L161.797,89L162.888,89L163.443,89L164.022,89L164.531,89L165.064,89L166.156,89L166.704,89L167.281,89L167.791,89L168.332,89L169.422,89L169.97,89L170.55,89L171.059,89L171.601,89L172.695,89L173.25,89L173.833,89L174.338,89L174.872,89L175.963,89L176.517,89L177.102,89L177.605,89L178.14,89L179.233,89L179.788,89L180.371,89L180.874,89L181.408,89L182.502,89L183.057,89L183.64,89L184.147,89L184.677,89L185.769,89L186.322,89L186.904,89L187.409,89L187.944,89L189.034,89L189.581,89L190.158,89L190.666,89L191.21,89L192.303,89L192.849,89L193.427,89L193.937,89L194.477,89L195.577,89L196.134,89L196.713,89L197.215,89L197.748,89L198.841,89L199.395,89L199.999,89" stroke="#9d755d" stroke-width="2"/></g></g><path class="foreground" aria-hidden="true" d="" display="none"/></g><g transform="translate(0,0)"><path class="background" aria-hidden="true" d="M0,0h200v200h-200Z"/><g><g class="mark-line role-mark marks" role="graphics-object" aria-roledescription="line mark container"><path aria-label="Time: Aug 14, 2025; Price: 1199; identifier: fastroad-ar-2" role="graphics-symbol" aria-roledescription="line mark" d="M0,66.778L0.027,66.778L0.049,66.778L0.651,66.778L1.13,66.778L1.667,66.778L2.77,66.778L3.311,66.778L3.909,66.778L4.399,66.778L4.934,66.778L6.027,66.778L6.575,66.778L7.155,66.778L7.661,66.778L8.204,66.778L9.308,66.778L9.842,66.778L10.425,66.778L10.931,66.778L11.469,66.778L12.586,66.778L13.122,66.778L13.724,66.778L13.936,66.778L14.21,66.778L14.734,66.778L15.829,66.778L16.382,66.778L16.963,66.778L17.47,66.778L18.001,66.778L19.098,66.778L19.646,66.778L20.25,66.778L20.495,66.778L20.737,66.778L21.273,66.778L22.364,66.778L22.917,66.778L23.5,66.778L24.007,66.778L24.539,66.778L25.633,66.778L26.184,66.778L26.767,66.778L27.272,66.778L27.806,66.778L28.899,66.778L29.447,66.778L30.025,66.778L30.531,66.778L31.071,66.778L32.171,66.778L32.713,66.778L33.295,66.778L33.803,66.778L34.34,66.778L35.444,66.778L35.996,66.778L36.592,66.778L37.08,66.778L37.612,66.778L38.707,66.778L39.262,66.778L40.345,66.778L40.877,66.778L41.971,66.778L42.523,66.778L42.738,66.778L43.105,66.778L43.47,66.778L43.613,66.778L44.147,66.778L45.239,66.778L45.793,66.778L46.375,66.778L46.88,66.778L47.414,66.778L48.507,66.778L49.059,66.778L49.639,66.778L50.147,66.778L50.68,66.778L51.771,66.778L52.319,66.778L52.897,66.778L53.407,66.778L53.921,66.778L53.947,66.778L55.041,66.778L55.39,66.778L55.586,66.778L56.167,66.778L56.677,66.778L57.216,66.778L58.32,66.778L58.869,66.778L59.449,66.778L59.949,66.778L60.483,66.778L61.583,66.778L62.135,66.778L62.719,66.778L63.22,66.778L63.754,66.778L64.847,66.778L65.398,66.778L65.98,66.778L66.486,66.778L67.021,66.778L68.114,66.778L68.667,66.778L69.245,66.778L69.757,66.778L70.288,66.778L71.383,66.778L71.935,66.778L72.515,66.778L73.019,66.778L73.557,66.778L74.648,66.778L74.928,66.778L75.193,66.778L75.77,66.778L76.281,66.778L76.824,66.778L77.915,66.778L78.461,66.778L79.04,66.778L79.55,66.778L80.092,66.778L81.189,66.778L81.745,66.778L82.328,66.778L82.83,66.778L83.365,66.778L84.456,66.778L85.012,66.778L85.614,66.778L86.1,66.778L86.629,66.778L87.719,66.778L88.277,66.778L88.856,66.778L89.363,66.778L89.899,66.778L90.992,66.778L91.544,66.778L92.123,66.778L92.625,66.778L93.164,66.778L94.257,66.778L94.81,66.778L95.389,66.778L95.894,66.778L96.432,66.778L97.524,66.778L98.071,66.778L98.648,66.778L99.156,66.778L99.701,66.778L100.793,66.778L101.339,66.778L101.914,66.778L102.423,66.778L102.969,66.778L104.066,66.778L104.617,66.778L105.202,66.778L105.705,66.778L106.239,66.778L107.332,66.778L107.888,66.778L108.469,66.778L108.972,66.778L109.508,66.778L110.601,66.778L111.154,66.778L111.737,66.778L112.241,66.778L112.775,66.778L113.869,66.778L114.421,66.778L115.004,66.778L115.507,66.778L116.044,66.778L117.137,66.778L117.689,66.778L118.271,66.778L118.777,66.778L119.31,66.778L120.403,66.778L120.951,66.778L121.529,66.778L122.035,66.778L122.577,66.778L123.672,66.778L124.217,66.778L124.797,66.778L125.306,66.778L125.847,66.778L126.942,66.778L127.498,66.778L128.08,66.778L128.576,66.778L129.118,66.778L130.209,66.778L130.764,66.778L131.345,66.778L131.852,66.778L132.386,66.778L133.478,66.778L134.033,66.778L134.614,66.778L135.122,66.778L135.652,66.778L136.747,66.778L137.302,66.778L137.885,66.778L138.39,66.778L138.919,66.778L140.014,66.778L140.569,66.778L141.15,66.778L141.655,66.778L142.188,66.778L143.281,66.778L143.826,66.778L144.404,66.778L144.914,66.778L145.456,66.778L146.549,66.778L147.094,66.778L147.674,66.778L148.18,66.778L148.723,66.778L149.82,66.778L150.377,66.778L150.959,66.778L151.448,66.778L151.994,66.778L153.087,66.778L153.646,66.778L154.227,66.778L154.727,66.778L155.262,66.778L156.357,66.778L156.912,66.778L157.495,66.778L157.997,66.778L158.531,66.778L159.621,66.778L160.175,66.778L160.755,66.778L161.264,66.778L161.797,66.778L162.888,66.778L163.443,66.778L164.022,66.778L164.531,66.778L165.064,66.778L166.156,66.778L166.704,66.778L167.281,66.778L167.791,66.778L168.332,66.778L169.422,66.778L169.97,66.778L170.55,66.778L171.059,66.778L171.601,66.778L172.695,66.778L173.25,66.778L173.833,66.778L174.338,66.778L174.872,66.778L175.963,66.778L176.517,66.778L177.102,66.778L177.605,66.778L178.14,66.778L179.233,66.778L179.789,66.778L180.371,66.778L180.874,66.778L181.408,66.778L182.502,66.778L183.057,66.778L183.641,66.778L184.147,66.778L184.677,66.778L185.769,66.778L186.322,66.778L186.904,66.778L187.409,66.778L187.944,66.778L189.034,66.778L189.581,66.778L190.158,66.778L190.666,66.778L191.21,66.778L192.303,66.778L192.849,66.778L193.427,66.778L193.937,66.778L194.478,66.778L195.578,66.778L196.134,66.778L196.713,66.778L197.215,66.778L197.748,66.778L198.841,66.778L199.395,66.778L199.999,66.778" stroke="#54a24b" stroke-width="2"/></g></g><path class="foreground" aria-hidden="true" d="" display="none"/></g><g transform="translate(0,0)"><path class="background" aria-hidden="true" d="M0,0h200v200h-200Z"/><g><g class="mark-line role-mark marks" role="graphics-object" aria-roledescription="line mark container"><path aria-label="Time: Aug 18, 2025; Price: 899; identifier: sdrbike-escape-1-city-disc" role="graphics-symbol" aria-roledescription="line mark" d="M13.936,100.111L14.21,100.111L14.734,100.111L15.829,100.111L16.382,100.111L16.963,100.111L17.47,100.111L18.001,100.111L19.098,100.111L19.646,100.111L20.25,100.111L20.495,100.111L20.737,100.111L21.273,100.111L22.364,100.111L22.917,100.111L23.5,100.111L24.007,100.111L24.54,100.111L25.634,100.111L26.184,100.111L26.767,100.111L27.272,100.111L27.806,100.111L28.899,100.111L29.447,100.111L30.025,100.111L30.531,100.111L31.071,100.111L32.171,100.111L32.713,100.111L33.295,100.111L33.804,100.111L34.34,100.111L35.444,100.111L35.996,100.111L36.592,100.111L37.08,100.111L37.612,100.111L38.707,100.111L39.262,100.111L40.345,100.111L40.877,100.111L41.971,100.111L42.523,100.111L42.738,100.111L43.105,100.111L43.47,100.111L43.613,100.111L44.147,100.111L45.239,100.111L45.793,100.111L46.375,100.111L46.88,100.111L47.414,100.111L48.507,100.111L49.059,100.111L49.639,100.111L50.147,100.111L50.681,100.111L51.772,100.111L52.319,100.111L52.897,100.111L53.407,100.111L53.921,100.111L53.947,100.111L55.041,100.111L55.39,100.111L55.586,100.111L56.167,100.111L56.677,100.111L57.216,100.111L58.32,100.111L58.869,100.111L59.449,100.111L59.95,100.111L60.483,100.111L61.583,100.111L62.135,100.111L62.719,100.111L63.22,100.111L63.754,100.111L64.847,100.111L65.398,100.111L65.98,100.111L66.486,100.111L67.021,100.111L68.114,100.111L68.668,100.111L69.245,100.111L69.757,100.111L70.288,100.111L71.383,100.111L71.935,100.111L72.515,100.111L73.019,100.111L73.558,100.111L74.648,100.111L74.928,100.111L75.193,100.111L75.77,100.111L76.282,100.111L76.824,100.111L77.915,100.111L78.461,100.111L79.04,100.111L79.55,100.111L80.092,100.111L81.189,100.111L81.745,100.111L82.328,100.111L82.83,100.111L83.365,100.111L84.456,100.111L85.012,100.111L85.614,100.111L86.1,100.111L86.629,100.111L87.719,100.111L88.277,100.111L88.856,100.111L89.363,100.111L89.899,100.111L90.992,100.111L91.544,100.111L92.123,100.111L92.625,100.111L93.164,100.111L94.257,100.111L94.811,100.111L95.389,100.111L95.894,100.111L96.432,100.111L97.524,100.111L98.071,100.111L98.648,100.111L99.156,100.111L99.701,100.111L100.793,100.111L101.339,100.111L101.914,100.111L102.424,100.111L102.969,100.111L104.066,100.111L104.617,100.111L105.202,100.111L105.705,100.111L106.239,100.111L107.332,100.111L107.888,100.111L108.469,100.111L108.972,100.111L109.508,100.111L110.601,100.111L111.154,100.111L111.737,100.111L112.241,100.111L112.776,100.111L113.869,100.111L114.421,100.111L115.004,100.111L115.507,100.111L116.044,100.111L117.137,100.111L117.689,100.111L118.271,100.111L118.777,100.111L119.31,100.111L120.403,100.111L120.952,100.111L121.529,100.111L122.035,100.111L122.577,100.111L123.672,100.111L124.217,100.111L124.797,100.111L125.306,100.111L125.847,100.111L126.942,100.111L127.499,100.111L128.08,100.111L128.576,100.111L129.118,100.111L130.209,100.111L130.764,100.111L131.346,100.111L131.852,100.111L132.386,100.111L133.479,100.111L134.033,100.111L134.615,100.111L135.122,100.111L135.652,100.111L136.747,100.111L137.303,100.111L137.885,100.111L138.39,100.111L138.919,100.111L140.014,100.111L140.569,100.111L141.15,100.111L141.655,100.111L142.188,100.111L143.281,100.111L143.826,100.111L144.405,100.111L144.914,100.111L145.456,100.111L146.549,100.111L147.094,100.111L147.674,100.111L148.18,100.111L148.723,100.111L149.821,100.111L150.377,100.111L150.959,100.111L151.448,100.111L151.994,100.111L153.087,100.111L153.647,100.111L154.227,100.111L154.727,100.111L155.262,100.111L156.357,100.111L156.912,100.111L157.495,100.111L157.997,100.111L158.531,100.111L159.621,100.111L160.175,100.111L160.755,100.111L161.264,100.111L161.797,100.111L162.888,100.111L163.443,100.111L164.022,100.111L164.531,100.111L165.065,100.111L166.156,100.111L166.704,100.111L167.281,100.111L167.792,100.111L168.332,100.111L169.423,100.111L169.97,100.111L170.55,100.111L171.059,100.111L171.601,100.111L172.695,100.111L173.251,100.111L173.834,100.111L174.338,100.111L174.872,100.111L175.963,100.111L176.517,100.111L177.102,100.111L177.606,100.111L178.14,100.111L179.233,100.111L179.789,100.111L180.371,100.111L180.874,100.111L181.408,100.111L182.502,100.111L183.057,100.111L183.641,100.111L184.147,100.111L184.677,100.111L185.769,100.111L186.323,100.111L186.904,100.111L187.409,100.111L187.944,100.111L189.034,100.111L189.581,100.111L190.158,100.111L190.666,100.111L191.21,100.111L192.303,100.111L192.849,100.111L193.427,100.111L193.937,100.111L194.478,100.111L195.578,100.111L196.134,100.111L196.714,100.111L197.215,100.111L197.748,100.111L198.841,100.111L199.396,100.111L199.999,100.111" stroke="#f58518" stroke-width="2"/></g></g><path class="foreground" aria-hidden="true" d="" display="none"/></g><g transform="translate(0,0)"><path class="background" aria-hidden="true" d="M0,0h200v200h-200Z"/><g><g class="mark-line role-mark marks" role="graphics-object" aria-roledescription="line mark container"><path aria-label="Time: Aug 20, 2025; Price: 899; identifier: roam-disc-2-2024" role="graphics-symbol" aria-roledescription="line mark" d="M20.494,100.111L20.736,100.111L21.273,100.111L22.364,100.111L22.917,100.111L23.5,100.111L24.007,100.111L24.539,100.111L25.633,100.111L26.184,100.111L26.767,100.111L27.271,100.111L27.806,100.111L28.899,100.111L29.447,100.111L30.025,100.111L30.531,100.111L31.071,100.111L32.171,100.111L32.713,100.111L33.294,100.111L33.803,100.111L34.34,100.111L35.444,100.111L35.995,100.111L36.592,100.111L37.08,100.111L37.612,100.111L38.707,100.111L39.261,100.111L40.345,100.111L40.877,100.111L41.971,100.111L42.523,100.111L42.737,100.111L43.105,100.111L43.47,100.111L43.612,100.111L44.147,100.111L45.238,100.111L45.793,100.111L46.375,100.111L46.88,100.111L47.414,100.111L48.507,100.111L49.059,100.111L49.639,100.111L50.147,100.111L50.68,100.111L51.771,100.111L52.319,100.111L52.897,100.111L53.407,100.111L53.921,100.111L53.946,100.111L55.041,100.111L55.39,100.111L55.586,100.111L56.167,100.111L56.677,100.111L57.216,100.111L58.319,100.111L58.869,100.111L59.449,100.111L59.949,100.111L60.483,100.111L61.582,100.111L62.135,100.111L62.719,100.111L63.22,100.111L63.753,100.111L64.846,100.111L65.398,100.111L65.98,100.111L66.486,100.111L67.021,100.111L68.114,100.111L68.667,100.111L69.245,100.111L69.757,100.111L70.288,100.111L71.383,100.111L71.935,100.111L72.515,100.111L73.018,100.111L73.557,100.111L74.648,100.111L74.928,100.111L75.193,100.111L75.769,100.111L76.281,100.111L76.824,100.111L77.915,100.111L78.461,100.111L79.04,100.111L79.55,100.111L80.092,100.111L81.189,100.111L81.744,100.111L82.327,100.111L82.829,100.111L83.365,100.111L84.455,100.111L85.011,100.111L85.614,100.111L86.1,100.111L86.629,100.111L87.719,100.111L88.276,100.111L88.856,100.111L89.363,100.111L89.899,100.111L90.991,100.111L91.543,100.111L92.122,100.111L92.624,100.111L93.164,100.111L94.257,100.111L94.81,100.111L95.389,100.111L95.894,100.111L96.432,100.111L97.523,100.111L98.07,100.111L98.647,100.111L99.156,100.111L99.7,100.111L100.793,100.111L101.339,100.111L101.913,100.111L102.423,100.111L102.969,100.111L104.066,100.111L104.617,100.111L105.201,100.111L105.705,100.111L106.239,100.111L107.331,100.111L107.888,100.111L108.469,100.111L108.971,100.111L109.508,100.111L110.601,100.111L111.154,100.111L111.737,100.111L112.24,100.111L112.775,100.111L113.868,100.111L114.421,100.111L115.004,100.111L115.507,100.111L116.044,100.111L117.137,100.111L117.689,100.111L118.271,100.111L118.777,100.111L119.31,100.111L120.403,100.111L120.951,100.111L121.529,100.111L122.035,100.111L122.577,100.111L123.672,100.111L124.217,100.111L124.796,100.111L125.306,100.111L125.847,100.111L126.942,100.111L127.498,100.111L128.08,100.111L128.576,100.111L129.118,100.111L130.209,100.111L130.764,100.111L131.345,100.111L131.852,100.111L132.386,100.111L133.478,100.111L134.033,100.111L134.614,100.111L135.122,100.111L135.651,100.111L136.747,100.111L137.302,100.111L137.885,100.111L138.389,100.111L138.919,100.111L140.013,100.111L140.569,100.111L141.149,100.111L141.654,100.111L142.188,100.111L143.281,100.111L143.826,100.111L144.404,100.111L144.914,100.111L145.456,100.111L146.549,100.111L147.094,100.111L147.673,100.111L148.18,100.111L148.723,100.111L149.82,100.111L150.377,100.111L150.959,100.111L151.448,100.111L151.993,100.111L153.087,100.111L153.646,100.111L154.226,100.111L154.727,100.111L155.262,100.111L156.357,100.111L156.912,100.111L157.495,100.111L157.997,100.111L158.53,100.111L159.621,100.111L160.174,100.111L160.755,100.111L161.264,100.111L161.797,100.111L162.888,100.111L163.442,100.111L164.021,100.111L164.53,100.111L165.064,100.111L166.156,100.111L166.704,100.111L167.281,100.111L167.791,100.111L168.332,100.111L169.422,100.111L169.97,100.111L170.55,100.111L171.059,100.111L171.601,100.111L172.695,100.111L173.25,100.111L173.833,100.111L174.337,100.111L174.872,100.111L175.963,100.111L176.517,100.111L177.102,100.111L177.605,100.111L178.139,100.111L179.232,100.111L179.788,100.111L180.371,100.111L180.874,100.111L181.408,100.111L182.502,100.111L183.057,100.111L183.64,100.111L184.147,100.111L184.677,100.111L185.768,100.111L186.322,100.111L186.903,100.111L187.409,100.111L187.944,100.111L189.034,100.111L189.581,100.111L190.158,100.111L190.666,100.111L191.21,100.111L192.303,100.111L192.849,100.111L193.427,100.111L193.937,100.111L194.477,100.111L195.577,100.111L196.134,100.111L196.713,100.111L197.213,100.111L197.748,100.111L198.841,100.111L199.395,100.111L199.999,100.111" stroke="#e45756" stroke-width="2"/></g></g><path class="foreground" aria-hidden="true" d="" display="none"/></g><g transform="translate(0,0)"><path class="background" aria-hidden="true" d="M0,0h200v200h-200Z"/><g><g class="mark-line role-mark marks" role="graphics-object" aria-roledescription="line mark container"><path aria-label="Time: Aug 20, 2025; Price: 1199; identifier: thrive-2" role="graphics-symbol" aria-roledescription="line mark" d="M20.495,66.778L20.737,66.778L21.273,66.778L22.365,66.778L22.917,66.778L23.5,66.778L24.007,66.778L24.54,66.778L25.634,66.778L26.184,66.778L26.767,66.778L27.272,66.778L27.806,66.778L28.899,66.778L29.447,66.778L30.025,66.778L30.531,66.778L31.071,66.778L32.172,66.778L32.713,66.778L33.295,66.778L33.804,66.778L34.34,66.778L35.444,66.778L35.996,66.778L36.592,66.778L37.08,66.778L37.612,66.778L38.707,66.778L39.262,66.778L40.345,66.778L40.877,66.778L41.971,66.778L42.523,66.778L42.738,66.778L43.106,66.778L43.47,66.778L43.613,66.778L44.147,66.778L45.239,66.778L45.793,66.778L46.375,66.778L46.88,66.778L47.414,66.778L48.507,66.778L49.059,66.778L49.639,66.778L50.147,66.778L50.681,66.778L51.772,66.778L52.319,66.778L52.898,66.778L53.407,66.778L53.921,66.778L53.947,66.778L55.041,66.778L55.39,66.778L55.586,66.778L56.167,66.778L56.677,66.778L57.216,66.778L58.32,66.778L58.869,66.778L59.449,66.778L59.95,66.778L60.484,66.778L61.583,66.778L62.135,66.778L62.719,66.778L63.22,66.778L63.754,66.778L64.847,66.778L65.398,66.778L65.98,66.778L66.486,66.778L67.021,66.778L68.114,66.778L68.668,66.778L69.246,66.778L69.757,66.778L70.288,66.778L71.383,66.778L71.935,66.778L72.515,66.778L73.019,66.778L73.558,66.778L74.648,66.778L74.928,66.778L75.193,66.778L75.77,66.778L76.282,66.778L76.824,66.778L77.915,66.778L78.461,66.778L79.04,66.778L79.55,66.778L80.092,66.778L81.189,66.778L81.745,66.778L82.328,66.778L82.83,66.778L83.365,66.778L84.456,66.778L85.012,66.778L85.614,66.778L86.1,66.778L86.629,66.778L87.719,66.778L88.277,66.778L88.856,66.778L89.363,66.778L89.899,66.778L90.992,66.778L91.544,66.778L92.123,66.778L92.625,66.778L93.164,66.778L94.258,66.778L94.811,66.778L95.389,66.778L95.894,66.778L96.432,66.778L97.524,66.778L98.071,66.778L98.648,66.778L99.156,66.778L99.701,66.778L100.793,66.778L101.339,66.778L101.914,66.778L102.424,66.778L102.969,66.778L104.067,66.778L104.617,66.778L105.202,66.778L105.705,66.778L106.24,66.778L107.332,66.778L107.888,66.778L108.469,66.778L108.972,66.778L109.508,66.778L110.601,66.778L111.154,66.778L111.737,66.778L112.241,66.778L112.776,66.778L113.869,66.778L114.421,66.778L115.004,66.778L115.507,66.778L116.044,66.778L117.137,66.778L117.689,66.778L118.271,66.778L118.777,66.778L119.31,66.778L120.403,66.778L120.952,66.778L121.53,66.778L122.035,66.778L122.578,66.778L123.672,66.778L124.217,66.778L124.797,66.778L125.306,66.778L125.847,66.778L126.942,66.778L127.499,66.778L128.08,66.778L128.576,66.778L129.118,66.778L130.209,66.778L130.764,66.778L131.346,66.778L131.852,66.778L132.386,66.778L133.479,66.778L134.033,66.778L134.615,66.778L135.123,66.778L135.652,66.778L136.747,66.778L137.303,66.778L137.885,66.778L138.39,66.778L138.919,66.778L140.014,66.778L140.569,66.778L141.15,66.778L141.655,66.778L142.188,66.778L143.281,66.778L143.826,66.778L144.405,66.778L144.914,66.778L145.456,66.778L146.549,66.778L147.095,66.778L147.674,66.778L148.18,66.778L148.724,66.778L149.821,66.778L150.377,66.778L150.959,66.778L151.448,66.778L151.994,66.778L153.088,66.778L153.647,66.778L154.227,66.778L154.727,66.778L155.262,66.778L156.358,66.778L156.912,66.778L157.496,66.778L157.997,66.778L158.531,66.778L159.622,66.778L160.175,66.778L160.755,66.778L161.264,66.778L161.797,66.778L162.889,66.778L163.443,66.778L164.022,66.778L164.531,66.778L165.065,66.778L166.156,66.778L166.704,66.778L167.281,66.778L167.792,66.778L168.333,66.778L169.423,66.778L169.97,66.778L170.55,66.778L171.06,66.778L171.601,66.778L172.695,66.778L173.251,66.778L173.834,66.778L174.338,66.778L174.873,66.778L175.963,66.778L176.518,66.778L177.102,66.778L177.606,66.778L178.14,66.778L179.233,66.778L179.789,66.778L180.372,66.778L180.874,66.778L181.408,66.778L182.502,66.778L183.057,66.778L183.641,66.778L184.147,66.778L184.677,66.778L185.769,66.778L186.323,66.778L186.904,66.778L187.409,66.778L187.944,66.778L189.034,66.778L189.581,66.778L190.158,66.778L190.666,66.778L191.21,66.778L192.303,66.778L192.849,66.778L193.427,66.778L193.937,66.778L194.478,66.778L195.578,66.778L196.134,66.778L196.714,66.778L197.216,66.778L197.748,66.778L198.841,66.778L199.396,66.778L199.999,66.778" stroke="#eeca3b" stroke-width="2"/></g></g><path class="foreground" aria-hidden="true" d="" display="none"/></g><g transform="translate(0,0)"><path class="background" aria-hidden="true" d="M0,0h200v200h-200Z"/><g><g class="mark-line role-mark marks" role="graphics-object" aria-roledescription="line mark container"><path aria-label="Time: Aug 20, 2025; Price: 999; identifier: rove-2" role="graphics-symbol" aria-roledescription="line mark" d="M20.495,89L20.737,89L21.273,89L22.365,89L22.917,89L23.5,89L24.007,89L24.54,89L25.634,89L26.184,89L26.767,89L27.272,89L27.806,89L28.9,89L29.447,89L30.025,89L30.532,89L31.071,89L32.172,89L32.713,89L33.295,89L33.804,89L34.34,89L35.444,89L35.996,89L36.592,89L37.08,89L37.612,89L38.707,89L39.262,89L40.345,89L40.877,89L41.971,89L42.524,89L42.738,89L43.106,89L43.47,89L43.613,89L44.148,89L45.239,89L45.793,89L46.375,89L46.88,89L47.414,89L48.507,89L49.059,89L49.64,89L50.147,89L50.681,89L53.921,111.222L53.947,111.222L55.041,111.222L55.39,111.222L55.586,111.222L56.167,111.222L56.677,111.222L57.216,111.222L58.32,111.222L58.869,111.222L59.449,111.222L59.95,111.222L60.484,111.222L61.583,111.222L62.135,111.222L62.719,111.222L63.22,111.222L63.754,111.222L64.847,111.222L65.398,111.222L65.98,111.222L66.486,111.222L67.021,111.222L68.114,111.222L68.668,111.222L69.246,111.222L69.757,111.222L70.288,111.222L71.384,111.222L71.935,111.222L72.516,111.222L73.019,111.222L73.558,111.222L74.648,111.222L74.929,111.222L75.194,111.222L75.77,111.222L76.282,111.222L76.824,111.222L77.915,111.222L78.461,111.222L79.04,111.222L79.55,111.222L80.092,111.222L81.189,111.222L81.745,111.222L82.328,111.222L82.83,111.222L83.365,111.222L84.456,111.222L85.012,111.222L85.614,111.222L86.1,111.222L86.629,111.222L87.72,111.222L88.277,111.222L88.856,111.222L89.363,111.222L89.899,111.222L90.992,111.222L91.544,111.222L92.123,111.222L92.625,111.222L93.164,111.222L94.258,111.222L94.811,111.222L95.389,111.222L95.895,111.222L96.432,111.222L97.524,111.222L98.071,111.222L98.648,111.222L99.156,111.222L99.701,111.222L100.793,111.222L101.339,111.222L101.914,111.222L102.424,111.222L102.969,111.222L104.067,111.222L104.618,111.222L105.202,111.222L105.705,111.222L106.24,111.222L107.332,111.222L107.889,111.222L108.469,111.222L108.972,111.222L109.508,111.222L110.601,111.222L111.154,111.222L111.737,111.222L112.241,111.222L112.776,111.222L113.869,111.222L114.421,111.222L115.004,111.222L115.507,111.222L116.044,111.222L117.137,111.222L117.689,111.222L118.271,111.222L118.777,111.222L119.31,111.222L120.403,111.222L120.952,111.222L121.53,111.222L122.035,111.222L122.578,111.222L123.672,111.222L124.217,111.222L124.797,111.222L125.306,111.222L125.847,111.222L126.942,111.222L127.499,111.222L128.08,111.222L128.576,111.222L129.118,111.222L130.209,111.222L130.764,111.222L131.346,111.222L131.852,111.222L132.386,111.222L133.479,111.222L134.033,111.222L134.615,111.222L135.123,111.222L135.652,111.222L136.747,111.222L137.303,111.222L137.885,111.222L138.39,111.222L138.919,111.222L140.014,111.222L140.569,111.222L141.15,111.222L141.655,111.222L142.188,111.222L143.281,111.222L143.826,111.222L144.405,111.222L144.914,111.222L145.456,111.222L146.549,111.222L147.095,111.222L147.674,111.222L148.18,111.222L148.724,111.222L149.821,111.222L150.377,111.222L150.959,111.222L151.448,111.222L151.994,111.222L153.088,111.222L153.647,111.222L154.227,111.222L154.727,111.222L155.262,111.222L156.358,111.222L156.912,111.222L157.496,111.222L157.997,111.222L158.531,111.222L159.622,111.222L160.175,111.222L160.755,111.222L161.264,111.222L161.797,111.222L162.889,111.222L163.443,111.222L164.022,111.222L164.531,111.222L165.065,111.222L166.156,111.222L166.704,111.222L167.281,111.222L167.792,111.222L168.333,111.222L169.423,111.222L169.97,111.222L170.55,111.222L171.06,111.222L171.601,111.222L172.695,111.222L173.251,111.222L173.834,111.222L174.338,111.222L174.873,111.222L175.963,111.222L176.518,111.222L177.102,111.222L177.606,111.222L178.14,111.222L179.233,111.222L179.789,111.222L180.372,111.222L180.874,111.222L181.408,111.222L182.502,111.222L183.057,111.222L183.641,111.222L184.147,111.222L184.677,111.222L185.769,111.222L186.323,111.222L186.904,111.222L187.409,111.222L187.945,111.222L189.034,111.222L189.581,111.222L190.159,111.222L190.666,111.222L191.21,111.222L192.303,111.222L192.849,111.222L193.428,111.222L193.938,111.222L194.478,111.222L195.578,111.222L196.134,111.222L196.714,111.222L197.216,111.222L197.748,111.222L198.841,111.222L199.396,111.222L199.999,111.222" stroke="#72b7b2" stroke-width="2"/></g></g><path class="foreground" aria-hidden="true" d="" display="none"/></g><g transform="translate(0,0)"><path class="background" aria-hidden="true" d="M0,0h200v200h-200Z"/><g><g class="mark-line role-mark marks" role="graphics-object" aria-roledescription="line mark container"><path aria-label="Time: Aug 27, 2025; Price: 1199; identifier: allure-rs-1-2023" role="graphics-symbol" aria-roledescription="line mark" d="M42.739,66.778L43.106,66.778L43.47,66.778L43.613,66.778L44.148,66.778L45.239,66.778L45.793,66.778L46.375,66.778L46.88,66.778L47.414,66.778L48.507,66.778L49.059,66.778L49.64,66.778L50.147,66.778L50.681,66.778L51.772,66.778L52.319,66.778L52.898,66.778L53.407,66.778L53.921,66.778L53.947,66.778L55.041,66.778L55.39,66.778L55.586,66.778L56.167,66.778L56.677,66.778L57.216,66.778L58.32,66.778L58.869,66.778L59.449,66.778L59.95,66.778L60.484,66.778L61.583,66.778L62.135,66.778L62.72,66.778L63.22,66.778L63.754,66.778L64.847,66.778L65.398,66.778L65.98,66.778L66.487,66.778L67.021,66.778L68.114,66.778L68.668,66.778L69.246,66.778L69.757,66.778L70.289,66.778L71.384,66.778L71.935,66.778L72.516,66.778L73.019,66.778L73.558,66.778L74.648,66.778L74.929,66.778L75.194,66.778L75.77,66.778L76.282,66.778L76.824,66.778L77.915,66.778L78.461,66.778L79.04,66.778L79.55,66.778L80.092,66.778L81.189,66.778L81.745,66.778L82.328,66.778L82.83,66.778L83.365,66.778L84.456,66.778L85.012,66.778L85.614,66.778L86.1,66.778L86.63,66.778L87.72,66.778L88.277,66.778L88.856,66.778L89.363,66.778L89.899,66.778L90.992,66.778L91.544,66.778L92.123,66.778L92.625,66.778L93.165,66.778L94.258,66.778L94.811,66.778L95.39,66.778L95.895,66.778L96.433,66.778L97.524,66.778L98.071,66.778L98.648,66.778L99.156,66.778L99.701,66.778L100.793,66.778L101.339,66.778L101.914,66.778L102.424,66.778L102.969,66.778L104.067,66.778L104.618,66.778L105.202,66.778L105.705,66.778L106.24,66.778L107.332,66.778L107.889,66.778L108.469,66.778L108.972,66.778L109.508,66.778L110.601,66.778L111.154,66.778L111.737,66.778L112.241,66.778L112.776,66.778L113.869,66.778L114.421,66.778L115.005,66.778L115.507,66.778L116.044,66.778L117.137,66.778L117.689,66.778L118.271,66.778L118.777,66.778L119.31,66.778L120.403,66.778L120.952,66.778L121.53,66.778L122.035,66.778L122.578,66.778L123.672,66.778L124.217,66.778L124.797,66.778L125.306,66.778L125.847,66.778L126.942,66.778L127.499,66.778L128.08,66.778L128.577,66.778L129.118,66.778L130.21,66.778L130.764,66.778L131.346,66.778L131.852,66.778L132.386,66.778L133.479,66.778L134.034,66.778L134.615,66.778L135.123,66.778L135.652,66.778L136.747,66.778L137.303,66.778L137.886,66.778L138.39,66.778L138.919,66.778L140.014,66.778L140.569,66.778L141.15,66.778L141.655,66.778L142.188,66.778L143.281,66.778L143.826,66.778L144.405,66.778L144.914,66.778L145.457,66.778L146.55,66.778L147.095,66.778L147.674,66.778L148.18,66.778L148.724,66.778L149.821,66.778L150.377,66.778L150.959,66.778L151.448,66.778L151.994,66.778L153.088,66.778L153.647,66.778L154.227,66.778L154.728,66.778L155.262,66.778L156.358,66.778L156.912,66.778L157.496,66.778L157.997,66.778L158.531,66.778L159.622,66.778L160.175,66.778L160.755,66.778L161.264,66.778L161.797,66.778L162.889,66.778L163.443,66.778L164.022,66.778L164.531,66.778L165.065,66.778L166.156,66.778L166.704,66.778L167.281,66.778L167.792,66.778L168.333,66.778L169.423,66.778L169.97,66.778L170.55,66.778L171.06,66.778L171.601,66.778L172.695,66.778L173.251,66.778L173.834,66.778L174.338,66.778L174.873,66.778L175.963,66.778L176.518,66.778L177.102,66.778L177.606,66.778L178.14,66.778L179.233,66.778L179.789,66.778L180.372,66.778L180.874,66.778L181.408,66.778L182.503,66.778L183.057,66.778L183.641,66.778L184.147,66.778L184.677,66.778L185.769,66.778L186.323,66.778L186.904,66.778L187.409,66.778L187.945,66.778L189.034,66.778L189.581,66.778L190.159,66.778L190.666,66.778L191.21,66.778L192.303,66.778L192.849,66.778L193.428,66.778L193.938,66.778L194.478,66.778L195.578,66.778L196.135,66.778L196.714,66.778L197.217,66.778L197.748,66.778L198.842,66.778L199.396,66.778L199.999,66.778" stroke="#b279a2" stroke-width="2"/></g></g><path class="foreground" aria-hidden="true" d="" display="none"/></g><g transform="translate(0,0)"><path class="background" aria-hidden="true" d="M0,0h200v200h-200Z"/><g><g class="mark-line role-mark marks" role="graphics-object" aria-roledescription="line mark container"><path aria-label="Time: Aug 27, 2025; Price: 999; identifier: allure-rs-2-2022" role="graphics-symbol" aria-roledescription="line mark" d="M42.739,89L43.106,89L43.47,89L43.613,89L44.148,89L45.239,89L45.793,89L46.375,89L46.881,89L47.414,89L48.507,89L49.059,89L49.64,89L50.147,89L50.681,89L53.922,111.222L53.947,111.222L55.041,111.222L55.39,111.222L55.586,111.222L56.168,111.222L56.678,111.222L57.216,111.222L58.32,111.222L58.869,111.222L59.449,111.222L59.95,111.222L60.484,111.222L61.583,111.222L62.135,111.222L62.72,111.222L63.22,111.222L63.754,111.222L64.847,111.222L65.398,111.222L65.981,111.222L66.487,111.222L67.021,111.222L68.114,111.222L68.668,111.222L69.246,111.222L69.757,111.222L70.289,111.222L71.384,111.222L71.935,111.222L72.516,111.222L73.019,111.222L73.558,111.222L74.648,111.222L74.929,111.222L75.194,111.222L75.77,111.222L76.282,111.222L76.824,111.222L77.915,111.222L78.461,111.222L79.04,111.222L79.55,111.222L80.092,111.222L81.189,111.222L81.745,111.222L82.328,111.222L82.83,111.222L83.365,111.222L84.456,111.222L85.012,111.222L85.615,111.222L86.1,111.222L86.63,111.222L87.72,111.222L88.277,111.222L88.856,111.222L89.363,111.222L89.899,111.222L90.992,111.222L91.544,111.222L92.123,111.222L92.625,111.222L93.165,111.222L94.258,111.222L94.811,111.222L95.39,111.222L95.895,111.222L96.433,111.222L97.524,111.222L98.071,111.222L98.648,111.222L99.157,111.222L99.701,111.222L100.793,111.222L101.339,111.222L101.914,111.222L102.424,111.222L102.969,111.222L104.067,111.222L104.618,111.222L105.202,111.222L105.706,111.222L106.24,111.222L107.332,111.222L107.889,111.222L108.469,111.222L108.972,111.222L109.508,111.222L110.602,111.222L111.154,111.222L111.737,111.222L112.241,111.222L112.776,111.222L113.869,111.222L114.421,111.222L115.005,111.222L115.507,111.222L116.044,111.222L117.137,111.222L117.69,111.222L118.272,111.222L118.777,111.222L119.311,111.222L120.403,111.222L120.952,111.222L121.53,111.222L122.035,111.222L122.578,111.222L123.672,111.222L124.217,111.222L124.797,111.222L125.306,111.222L125.847,111.222L126.942,111.222L127.499,111.222L128.08,111.222L128.577,111.222L129.118,111.222L130.21,111.222L130.764,111.222L131.346,111.222L131.852,111.222L132.386,111.222L133.479,111.222L134.034,111.222L134.615,111.222L135.123,111.222L135.652,111.222L136.747,111.222L137.303,111.222L137.886,111.222L138.39,111.222L138.92,111.222L140.014,111.222L140.569,111.222L141.15,111.222L141.655,111.222L142.188,111.222L143.281,111.222L143.826,111.222L144.405,111.222L144.914,111.222L145.457,111.222L146.55,111.222L147.095,111.222L147.674,111.222L148.18,111.222L148.724,111.222L149.821,111.222L150.377,111.222L150.959,111.222L151.448,111.222L151.994,111.222L153.088,111.222L153.647,111.222L154.227,111.222L154.728,111.222L155.263,111.222L156.358,111.222L156.912,111.222L157.496,111.222L157.997,111.222L158.531,111.222L159.622,111.222L160.175,111.222L160.755,111.222L161.265,111.222L161.797,111.222L162.889,111.222L163.443,111.222L164.022,111.222L164.531,111.222L165.065,111.222L166.156,111.222L166.704,111.222L167.281,111.222L167.792,111.222L168.333,111.222L169.423,111.222L169.971,111.222L170.55,111.222L171.06,111.222L171.602,111.222L172.696,111.222L173.251,111.222L173.834,111.222L174.338,111.222L174.873,111.222L175.963,111.222L176.518,111.222L177.103,111.222L177.606,111.222L178.14,111.222L179.233,111.222L179.789,111.222L180.372,111.222L180.874,111.222L181.409,111.222L182.503,111.222L183.057,111.222L183.641,111.222L184.148,111.222L184.677,111.222L185.769,111.222L186.323,111.222L186.904,111.222L187.409,111.222L187.945,111.222L189.035,111.222L189.581,111.222L190.159,111.222L190.667,111.222L191.21,111.222L192.303,111.222L192.85,111.222L193.428,111.222L193.938,111.222L194.478,111.222L195.578,111.222L196.135,111.222L196.714,111.222L197.217,111.222L197.748,111.222L198.842,111.222L199.396,111.222L199.999,111.222" stroke="#54a24b" stroke-width="2"/></g></g><path class="foreground" aria-hidden="true" d="" display="none"/></g><g transform="translate(0,0)"><path class="background" aria-hidden="true" d="M0,0h200v200h-200Z"/><g><g class="mark-line role-mark marks" role="graphics-object" aria-roledescription="line mark container"><path aria-label="Time: Aug 27, 2025; Price: 949; identifier: allure-rs-2-2023" role="graphics-symbol" aria-roledescription="line mark" d="M42.739,94.556L43.106,94.556L43.47,94.556L43.613,94.556L44.148,94.556L45.239,94.556L45.793,94.556L46.375,94.556L46.881,94.556L47.415,94.556L48.507,94.556L49.059,94.556L49.64,94.556L50.147,94.556L50.681,94.556L51.772,94.556L52.32,94.556L52.898,94.556L53.408,94.556L53.922,94.556L53.947,94.556L55.041,94.556L55.39,94.556L55.586,94.556L56.168,94.556L56.678,94.556L57.216,94.556L58.32,94.556L58.869,94.556L59.449,94.556L59.95,94.556L60.484,94.556L61.583,94.556L62.136,94.556L62.72,94.556L63.22,94.556L63.754,94.556L64.847,94.556L65.398,94.556L65.981,94.556L66.487,94.556L67.021,94.556L68.114,94.556L68.668,94.556L69.246,94.556L69.757,94.556L70.289,94.556L71.384,94.556L71.935,94.556L72.516,94.556L73.019,94.556L73.558,94.556L74.648,94.556L74.929,94.556L75.194,94.556L75.77,94.556L76.282,94.556L76.824,94.556L77.916,94.556L78.462,94.556L79.04,94.556L79.55,94.556L80.092,94.556L81.189,94.556L81.745,94.556L82.328,94.556L82.83,94.556L83.365,94.556L84.456,94.556L85.012,94.556L85.615,94.556L86.1,94.556L86.63,94.556L87.72,94.556L88.277,94.556L88.856,94.556L89.363,94.556L89.899,94.556L90.992,94.556L91.544,94.556L92.123,94.556L92.625,94.556L93.165,94.556L94.258,94.556L94.811,94.556L95.39,94.556L95.895,94.556L96.433,94.556L97.524,94.556L98.071,94.556L98.648,94.556L99.157,94.556L99.701,94.556L100.793,94.556L101.339,94.556L101.914,94.556L102.424,94.556L102.969,94.556L104.067,94.556L104.618,94.556L105.202,94.556L105.706,94.556L106.24,94.556L107.332,94.556L107.889,94.556L108.469,94.556L108.972,94.556L109.508,94.556L110.602,94.556L111.154,94.556L111.738,94.556L112.241,94.556L112.776,94.556L113.869,94.556L114.421,94.556L115.005,94.556L115.507,94.556L116.045,94.556L117.138,94.556L117.69,94.556L118.272,94.556L118.777,94.556L119.311,94.556L120.403,94.556L120.952,94.556L121.53,94.556L122.035,94.556L122.578,94.556L123.673,94.556L124.217,94.556L124.797,94.556L125.306,94.556L125.847,94.556L126.943,94.556L127.499,94.556L128.08,94.556L128.577,94.556L129.118,94.556L130.21,94.556L130.764,94.556L131.346,94.556L131.852,94.556L132.386,94.556L133.479,94.556L134.034,94.556L134.615,94.556L135.123,94.556L135.652,94.556L136.747,94.556L137.303,94.556L137.886,94.556L138.39,94.556L138.92,94.556L140.014,94.556L140.569,94.556L141.15,94.556L141.655,94.556L142.188,94.556L143.281,94.556L143.826,94.556L144.405,94.556L144.914,94.556L145.457,94.556L146.55,94.556L147.095,94.556L147.674,94.556L148.18,94.556L148.724,94.556L149.821,94.556L150.377,94.556L150.959,94.556L151.448,94.556L151.994,94.556L153.088,94.556L153.647,94.556L154.227,94.556L154.728,94.556L155.263,94.556L156.358,94.556L156.912,94.556L157.496,94.556L157.997,94.556L158.531,94.556L159.622,94.556L160.175,94.556L160.755,94.556L161.265,94.556L161.797,94.556L162.889,94.556L163.443,94.556L164.022,94.556L164.531,94.556L165.065,94.556L166.156,94.556L166.704,94.556L167.281,94.556L167.792,94.556L168.333,94.556L169.423,94.556L169.971,94.556L170.551,94.556L171.06,94.556L171.602,94.556L172.696,94.556L173.251,94.556L173.834,94.556L174.338,94.556L174.873,94.556L175.963,94.556L176.518,94.556L177.103,94.556L177.606,94.556L178.14,94.556L179.233,94.556L179.789,94.556L180.372,94.556L180.874,94.556L181.409,94.556L182.503,94.556L183.057,94.556L183.641,94.556L184.148,94.556L184.677,94.556L185.769,94.556L186.323,94.556L186.904,94.556L187.409,94.556L187.945,94.556L189.035,94.556L189.581,94.556L190.159,94.556L190.667,94.556L191.21,94.556L192.303,94.556L192.85,94.556L193.428,94.556L193.938,94.556L194.478,94.556L195.578,94.556L196.135,94.556L196.714,94.556L197.217,94.556L197.748,94.556L198.842,94.556L199.396,94.556L199.999,94.556" stroke="#bab0ac" stroke-width="2"/></g></g><path class="foreground" aria-hidden="true" d="" display="none"/></g><g transform="translate(0,0)"><path class="background" aria-hidden="true" d="M0,0h200v200h-200Z"/><g><g class="mark-line role-mark marks" role="graphics-object" aria-roledescription="line mark container"><path aria-label="Time: Aug 27, 2025; Price: 999; identifier: allure-rs-2-2024" role="graphics-symbol" aria-roledescription="line mark" d="M42.739,89L43.106,89L43.47,89L43.613,89L44.148,89L45.239,89L45.793,89L46.376,89L46.881,89L47.415,89L48.508,89L49.059,89L49.64,89L50.147,89L50.681,89L53.922,111.222L53.947,111.222L55.042,111.222L55.391,111.222L55.587,111.222L56.168,111.222L56.678,111.222L57.216,111.222L58.32,111.222L58.869,111.222L59.449,111.222L59.95,111.222L60.484,111.222L61.583,111.222L62.136,111.222L62.72,111.222L63.22,111.222L63.754,111.222L64.847,111.222L65.399,111.222L65.981,111.222L66.487,111.222L67.021,111.222L68.114,111.222L68.668,111.222L69.246,111.222L69.757,111.222L70.289,111.222L71.384,111.222L71.935,111.222L72.516,111.222L73.019,111.222L73.558,111.222L74.648,111.222L74.929,111.222L75.194,111.222L75.77,111.222L76.282,111.222L76.824,111.222L77.916,111.222L78.462,111.222L79.041,111.222L79.55,111.222L80.092,111.222L81.189,111.222L81.745,111.222L82.328,111.222L82.83,111.222L83.365,111.222L84.456,111.222L85.012,111.222L85.615,111.222L86.1,111.222L86.63,111.222L87.72,111.222L88.277,111.222L88.856,111.222L89.363,111.222L89.9,111.222L90.992,111.222L91.544,111.222L92.123,111.222L92.625,111.222L93.165,111.222L94.258,111.222L94.811,111.222L95.39,111.222L95.895,111.222L96.433,111.222L97.524,111.222L98.071,111.222L98.648,111.222L99.157,111.222L99.701,111.222L100.793,111.222L101.34,111.222L101.914,111.222L102.424,111.222L102.969,111.222L104.067,111.222L104.618,111.222L105.202,111.222L105.706,111.222L106.24,111.222L107.332,111.222L107.889,111.222L108.469,111.222L108.972,111.222L109.508,111.222L110.602,111.222L111.154,111.222L111.738,111.222L112.241,111.222L112.776,111.222L113.869,111.222L114.421,111.222L115.005,111.222L115.507,111.222L116.045,111.222L117.138,111.222L117.69,111.222L118.272,111.222L118.777,111.222L119.311,111.222L120.403,111.222L120.952,111.222L121.53,111.222L122.035,111.222L122.578,111.222L123.673,111.222L124.217,111.222L124.797,111.222L125.306,111.222L125.848,111.222L126.943,111.222L127.499,111.222L128.081,111.222L128.577,111.222L129.119,111.222L130.21,111.222L130.764,111.222L131.346,111.222L131.852,111.222L132.386,111.222L133.479,111.222L134.034,111.222L134.615,111.222L135.123,111.222L135.652,111.222L136.747,111.222L137.303,111.222L137.886,111.222L138.39,111.222L138.92,111.222L140.014,111.222L140.569,111.222L141.15,111.222L141.655,111.222L142.188,111.222L143.282,111.222L143.826,111.222L144.405,111.222L144.914,111.222L145.457,111.222L146.55,111.222L147.095,111.222L147.674,111.222L148.18,111.222L148.724,111.222L149.821,111.222L150.377,111.222L150.959,111.222L151.448,111.222L151.994,111.222L153.088,111.222L153.647,111.222L154.227,111.222L154.728,111.222L155.263,111.222L156.358,111.222L156.913,111.222L157.496,111.222L157.997,111.222L158.531,111.222L159.622,111.222L160.175,111.222L160.755,111.222L161.265,111.222L161.798,111.222L162.889,111.222L163.443,111.222L164.022,111.222L164.531,111.222L165.065,111.222L166.156,111.222L166.704,111.222L167.281,111.222L167.792,111.222L168.333,111.222L169.423,111.222L169.971,111.222L170.551,111.222L171.06,111.222L171.602,111.222L172.696,111.222L173.251,111.222L173.834,111.222L174.338,111.222L174.873,111.222L175.963,111.222L176.518,111.222L177.103,111.222L177.606,111.222L178.14,111.222L179.233,111.222L179.789,111.222L180.372,111.222L180.874,111.222L181.409,111.222L182.503,111.222L183.058,111.222L183.641,111.222L184.148,111.222L184.677,111.222L185.769,111.222L186.323,111.222L186.904,111.222L187.409,111.222L187.945,111.222L189.035,111.222L189.581,111.222L190.159,111.222L190.667,111.222L191.21,111.222L192.303,111.222L192.85,111.222L193.428,111.222L193.938,111.222L194.478,111.222L195.578,111.222L196.135,111.222L196.714,111.222L197.217,111.222L197.749,111.222L198.842,111.222L199.396,111.222L200,111.222" stroke="#eeca3b" stroke-width="2"/></g></g><path class="foreground" aria-hidden="true" d="" display="none"/></g><g transform="translate(0,0)"><path class="background" aria-hidden="true" d="M0,0h200v200h-200Z"/><g><g class="mark-line role-mark marks" role="graphics-object" aria-roledescription="line mark container"><path aria-label="Time: Aug 27, 2025; Price: 1799; identifier: devote-1-2024" role="graphics-symbol" aria-roledescription="line mark" d="M43.47,0.111L43.613,0.111L44.148,0.111L45.239,0.111L45.794,0.111L46.376,0.111L46.881,0.111L47.415,0.111L48.508,0.111L49.059,0.111L49.64,0.111L50.148,0.111L50.681,0.111L53.922,44.556L53.947,44.556L55.042,44.556L55.391,44.556L55.587,44.556L56.168,44.556L56.678,44.556L57.216,44.556L58.32,44.556L58.87,44.556L59.45,44.556L59.95,44.556L60.484,44.556L61.583,44.556L62.136,44.556L62.72,44.556L63.22,44.556L63.754,44.556L64.847,44.556L65.399,44.556L65.981,44.556L66.487,44.556L67.021,44.556L68.114,44.556L68.668,44.556L69.246,44.556L69.757,44.556L70.289,44.556L71.384,44.556L71.935,44.556L72.516,44.556L73.019,44.556L73.558,44.556L74.649,44.556L74.929,44.556L75.194,44.556L75.77,44.556L76.282,44.556L76.824,44.556L77.916,44.556L78.462,44.556L79.041,44.556L79.55,44.556L80.092,44.556L81.19,44.556L81.745,44.556L82.328,44.556L82.83,44.556L83.365,44.556L84.456,44.556L85.012,44.556L85.615,44.556L86.101,44.556L86.63,44.556L87.72,44.556L88.277,44.556L88.857,44.556L89.363,44.556L89.9,44.556L90.992,44.556L91.544,44.556L92.123,44.556L92.625,44.556L93.165,44.556L94.258,44.556L94.811,44.556L95.39,44.556L95.895,44.556L96.433,44.556L97.524,44.556L98.071,44.556L98.648,44.556L99.157,44.556L99.701,44.556L100.794,44.556L101.34,44.556L101.914,44.556L102.424,44.556L102.97,44.556L104.067,44.556L104.618,44.556L105.202,44.556L105.706,44.556L106.241,44.556L107.332,44.556L107.889,44.556L108.469,44.556L108.972,44.556L109.509,44.556L110.602,44.556L111.154,44.556L111.738,44.556L112.241,44.556L112.776,44.556L113.869,44.556L114.422,44.556L115.005,44.556L115.507,44.556L116.045,44.556L117.138,44.556L117.69,44.556L118.272,44.556L118.777,44.556L119.311,44.556L120.403,44.556L120.952,44.556L121.53,44.556L122.036,44.556L122.578,44.556L123.673,44.556L124.217,44.556L124.797,44.556L125.306,44.556L125.848,44.556L126.943,44.556L127.499,44.556L128.081,44.556L128.577,44.556L129.119,44.556L130.21,44.556L130.764,44.556L131.346,44.556L131.853,44.556L132.386,44.556L133.479,44.556L134.034,44.556L134.615,44.556L135.123,44.556L135.652,44.556L136.747,44.556L137.303,44.556L137.886,44.556L138.39,44.556L138.92,44.556L140.014,44.556L140.569,44.556L141.15,44.556L141.655,44.556L142.188,44.556L143.282,44.556L143.826,44.556L144.405,44.556L144.915,44.556L145.457,44.556L146.55,44.556L147.095,44.556L147.675,44.556L148.18,44.556L148.724,44.556L149.821,44.556L150.377,44.556L150.96,44.556L151.449,44.556L151.994,44.556L153.088,44.556L153.647,44.556L154.227,44.556L154.728,44.556L155.263,44.556L156.358,44.556L156.913,44.556L157.496,44.556L157.997,44.556L158.531,44.556L159.622,44.556L160.175,44.556L160.756,44.556L161.265,44.556L161.798,44.556L162.889,44.556L163.443,44.556L164.022,44.556L164.531,44.556L165.065,44.556L166.156,44.556L166.705,44.556L167.281,44.556L167.792,44.556L168.333,44.556L169.423,44.556L169.971,44.556L170.551,44.556L171.06,44.556L171.602,44.556L172.696,44.556L173.251,44.556L173.834,44.556L174.338,44.556L174.873,44.556L175.964,44.556L176.518,44.556L177.103,44.556L177.606,44.556L178.14,44.556L179.233,44.556L179.789,44.556L180.372,44.556L180.875,44.556L181.409,44.556L182.503,44.556L183.058,44.556L183.641,44.556L184.148,44.556L184.677,44.556L185.77,44.556L186.323,44.556L186.904,44.556L187.41,44.556L187.945,44.556L189.035,44.556L189.581,44.556L190.159,44.556L190.667,44.556L191.21,44.556L192.303,44.556L192.85,44.556L193.428,44.556L193.938,44.556L194.478,44.556L195.578,44.556L196.135,44.556L196.714,44.556L197.217,44.556L197.749,44.556L198.842,44.556L199.396,44.556L200,44.556" stroke="#72b7b2" stroke-width="2"/></g></g><path class="foreground" aria-hidden="true" d="" display="none"/></g><g transform="translate(0,0)"><path class="background" aria-hidden="true" d="M0,0h200v200h-200Z"/><g><g class="mark-line role-mark marks" role="graphics-object" aria-roledescription="line mark container"><path aria-label="Time: Aug 27, 2025; Price: 1699; identifier: devote-1-2022" role="graphics-symbol" aria-roledescription="line mark" d="M43.47,11.222L43.613,11.222L44.148,11.222L45.239,11.222L45.794,11.222L46.376,11.222L46.881,11.222L47.415,11.222L48.508,11.222L49.059,11.222L49.64,11.222L50.148,11.222L50.681,11.222L51.772,11.222L52.32,11.222L52.898,11.222L53.408,11.222L53.922,11.222L53.947,11.222L55.042,11.222L55.391,11.222L55.587,11.222L56.168,11.222L56.678,11.222L57.216,11.222L58.32,11.222L58.87,11.222L59.45,11.222L59.95,11.222L60.484,11.222L61.583,11.222L62.136,11.222L62.72,11.222L63.22,11.222L63.755,11.222L64.847,11.222L65.399,11.222L65.981,11.222L66.487,11.222L67.021,11.222L68.115,11.222L68.668,11.222L69.246,11.222L69.758,11.222L70.289,11.222L71.384,11.222L71.935,11.222L72.516,11.222L73.019,11.222L73.558,11.222L74.649,11.222L74.929,11.222L75.194,11.222L75.771,11.222L76.282,11.222L76.824,11.222L77.916,11.222L78.462,11.222L79.041,11.222L79.551,11.222L80.092,11.222L81.19,11.222L81.745,11.222L82.328,11.222L82.83,11.222L83.365,11.222L84.456,11.222L85.012,11.222L85.615,11.222L86.101,11.222L86.63,11.222L87.72,11.222L88.277,11.222L88.857,11.222L89.364,11.222L89.9,11.222L90.993,11.222L91.544,11.222L92.123,11.222L92.625,11.222L93.165,11.222L94.258,11.222L94.811,11.222L95.39,11.222L95.895,11.222L96.433,11.222L97.524,11.222L98.071,11.222L98.648,11.222L99.157,11.222L99.701,11.222L100.794,11.222L101.34,11.222L101.914,11.222L102.424,11.222L102.97,11.222L104.067,11.222L104.618,11.222L105.202,11.222L105.707,11.222L106.241,11.222L107.333,11.222L107.889,11.222L108.469,11.222L108.972,11.222L109.509,11.222L110.602,11.222L111.154,11.222L111.738,11.222L112.241,11.222L112.776,11.222L113.869,11.222L114.422,11.222L115.005,11.222L115.508,11.222L116.045,11.222L117.138,11.222L117.69,11.222L118.272,11.222L118.777,11.222L119.311,11.222L120.404,11.222L120.952,11.222L121.53,11.222L122.036,11.222L122.578,11.222L123.673,11.222L124.218,11.222L124.797,11.222L125.306,11.222L125.848,11.222L126.943,11.222L127.499,11.222L128.081,11.222L128.577,11.222L129.119,11.222L130.21,11.222L130.765,11.222L131.346,11.222L131.853,11.222L132.387,11.222L133.479,11.222L134.034,11.222L134.615,11.222L135.123,11.222L135.652,11.222L136.747,11.222L137.303,11.222L137.886,11.222L138.39,11.222L138.92,11.222L140.014,11.222L140.57,11.222L141.15,11.222L141.655,11.222L142.188,11.222L143.282,11.222L143.827,11.222L144.405,11.222L144.915,11.222L145.457,11.222L146.55,11.222L147.095,11.222L147.675,11.222L148.18,11.222L148.724,11.222L149.821,11.222L150.378,11.222L150.96,11.222L151.449,11.222L151.994,11.222L153.088,11.222L153.647,11.222L154.227,11.222L154.728,11.222L155.263,11.222L156.358,11.222L156.913,11.222L157.496,11.222L157.997,11.222L158.531,11.222L159.622,11.222L160.175,11.222L160.756,11.222L161.265,11.222L161.798,11.222L162.889,11.222L163.443,11.222L164.022,11.222L164.531,11.222L165.065,11.222L166.156,11.222L166.705,11.222L167.282,11.222L167.792,11.222L168.333,11.222L169.423,11.222L169.971,11.222L170.551,11.222L171.06,11.222L171.602,11.222L172.696,11.222L173.251,11.222L173.834,11.222L174.338,11.222L174.873,11.222L175.964,11.222L176.518,11.222L177.103,11.222L177.606,11.222L178.14,11.222L179.233,11.222L179.789,11.222L180.372,11.222L180.875,11.222L181.409,11.222L182.503,11.222L183.058,11.222L183.641,11.222L184.148,11.222L184.678,11.222L185.77,11.222L186.323,11.222L186.904,11.222L187.41,11.222L187.945,11.222L189.035,11.222L189.582,11.222L190.159,11.222L190.667,11.222L191.21,11.222L192.303,11.222L192.85,11.222L193.428,11.222L193.938,11.222L194.479,11.222L195.578,11.222L196.135,11.222L196.714,11.222L197.217,11.222L197.749,11.222L198.842,11.222L199.396,11.222L200,11.222" stroke="#4c78a8" stroke-width="2"/></g></g><path class="foreground" aria-hidden="true" d="" display="none"/></g><g transform="translate(0,0)"><path class="background" aria-hidden="true" d="M0,0h200v200h-200Z"/><g><g class="mark-line role-mark marks" role="graphics-object" aria-roledescription="line mark container"><path aria-label="Time: Aug 31, 2025; Price: 1599; identifier: silex-400-oak-bork-2026" role="graphics-symbol" aria-roledescription="line mark" d="M55.391,22.333L55.587,22.333L56.168,22.333L56.678,22.333L57.217,22.333L58.32,22.333L58.87,22.333L59.45,22.333L59.95,22.333L60.484,22.333L61.583,22.333L62.136,22.333L62.72,22.333L63.22,22.333L63.755,22.333L64.847,22.333L65.399,22.333L65.981,22.333L66.487,22.333L67.021,22.333L68.115,22.333L68.668,22.333L69.246,22.333L69.758,22.333L70.289,22.333L71.384,22.333L71.936,22.333L72.516,22.333L73.02,22.333L73.558,22.333L74.649,22.333L74.929,22.333L75.194,22.333L75.771,22.333L76.282,22.333L76.825,22.333L77.916,22.333L78.462,22.333L79.041,22.333L79.551,22.333L80.093,22.333L81.19,22.333L81.746,22.333L82.328,22.333L82.83,22.333L83.366,22.333L84.457,22.333L85.012,22.333L85.615,22.333L86.101,22.333L86.63,22.333L87.72,22.333L88.277,22.333L88.857,22.333L89.364,22.333L89.9,22.333L90.993,22.333L91.544,22.333L92.123,22.333L92.626,22.333L93.165,22.333L94.258,22.333L94.811,22.333L95.39,22.333L95.895,22.333L96.433,22.333L97.524,22.333L98.071,22.333L98.649,22.333L99.157,22.333L99.702,22.333L100.794,22.333L101.34,22.333L101.914,22.333L102.424,22.333L102.97,22.333L104.067,22.333L104.618,22.333L105.202,22.333L105.707,22.333L106.241,22.333L107.333,22.333L107.889,22.333L108.47,22.333L108.973,22.333L109.509,22.333L110.602,22.333L111.154,22.333L111.738,22.333L112.242,22.333L112.776,22.333L113.87,22.333L114.422,22.333L115.005,22.333L115.508,22.333L116.045,22.333L117.138,22.333L117.69,22.333L118.272,22.333L118.778,22.333L119.311,22.333L120.404,22.333L120.952,22.333L121.53,22.333L122.036,22.333L122.578,22.333L123.673,22.333L124.218,22.333L124.797,22.333L125.307,22.333L125.848,22.333L126.943,22.333L127.499,22.333L128.081,22.333L128.577,22.333L129.119,22.333L130.21,22.333L130.765,22.333L131.346,22.333L131.853,22.333L132.387,22.333L133.479,22.333L134.034,22.333L134.616,22.333L135.123,22.333L135.652,22.333L136.748,22.333L137.303,22.333L137.886,22.333L138.39,22.333L138.92,22.333L140.014,22.333L140.57,22.333L141.15,22.333L141.655,22.333L142.189,22.333L143.282,22.333L143.827,22.333L144.405,22.333L144.915,22.333L145.457,22.333L146.55,22.333L147.095,22.333L147.675,22.333L148.18,22.333L148.724,22.333L149.822,22.333L150.378,22.333L150.96,22.333L151.449,22.333L151.994,22.333L153.088,22.333L153.647,22.333L154.227,22.333L154.728,22.333L155.263,22.333L156.358,22.333L156.913,22.333L157.496,22.333L157.998,22.333L158.532,22.333L159.622,22.333L160.175,22.333L160.756,22.333L161.265,22.333L161.798,22.333L162.889,22.333L163.444,22.333L164.023,22.333L164.531,22.333L165.066,22.333L166.157,22.333L166.705,22.333L167.282,22.333L167.792,22.333L168.333,22.333L169.423,22.333L169.971,22.333L170.551,22.333L171.06,22.333L171.602,22.333L172.696,22.333L173.251,22.333L173.834,22.333L174.338,22.333L174.873,22.333L175.964,22.333L176.518,22.333L177.103,22.333L177.606,22.333L178.14,22.333L179.234,22.333L179.789,22.333L180.372,22.333L180.875,22.333L181.409,22.333L182.503,22.333L183.058,22.333L183.641,22.333L184.148,22.333L184.678,22.333L185.77,22.333L186.323,22.333L186.904,22.333L187.41,22.333L187.946,22.333L189.035,22.333L189.582,22.333L190.159,22.333L190.667,22.333L191.211,22.333L192.304,22.333L192.85,22.333L193.428,22.333L193.938,22.333L194.479,22.333L195.578,22.333L196.135,22.333L196.714,22.333L197.217,22.333L197.749,22.333L198.842,22.333L199.396,22.333L200,22.333" stroke="#f58518" stroke-width="2"/></g></g><path class="foreground" aria-hidden="true" d="" display="none"/></g><g transform="translate(0,0)"><path class="background" aria-hidden="true" d="M0,0h200v200h-200Z"/><g><g class="mark-line role-mark marks" role="graphics-object" aria-roledescription="line mark container"><path aria-label="Time: Aug 31, 2025; Price: 1599; identifier: silex-400-warm-slate-grey-2026" role="graphics-symbol" aria-roledescription="line mark" d="M55.391,22.333L55.587,22.333L56.168,22.333L56.678,22.333L57.217,22.333L58.321,22.333L58.87,22.333L59.45,22.333L59.95,22.333L60.484,22.333L61.584,22.333L62.136,22.333L62.72,22.333L63.221,22.333L63.755,22.333L64.847,22.333L65.399,22.333L65.981,22.333L66.487,22.333L67.022,22.333L68.115,22.333L68.668,22.333L69.246,22.333L69.758,22.333L70.289,22.333L71.384,22.333L71.936,22.333L72.516,22.333L73.02,22.333L73.558,22.333L74.649,22.333L74.929,22.333L75.194,22.333L75.771,22.333L76.282,22.333L76.825,22.333L77.916,22.333L78.462,22.333L79.041,22.333L79.551,22.333L80.093,22.333L81.19,22.333L81.746,22.333L82.329,22.333L82.831,22.333L83.366,22.333L84.457,22.333L85.012,22.333L85.615,22.333L86.101,22.333L86.63,22.333L87.72,22.333L88.278,22.333L88.857,22.333L89.364,22.333L89.9,22.333L90.993,22.333L91.544,22.333L92.124,22.333L92.626,22.333L93.165,22.333L94.258,22.333L94.812,22.333L95.391,22.333L95.895,22.333L96.433,22.333L97.525,22.333L98.072,22.333L98.649,22.333L99.157,22.333L99.702,22.333L100.794,22.333L101.34,22.333L101.915,22.333L102.424,22.333L102.97,22.333L104.067,22.333L104.618,22.333L105.203,22.333L105.707,22.333L106.242,22.333L107.333,22.333L107.889,22.333L108.47,22.333L108.973,22.333L109.509,22.333L110.602,22.333L111.155,22.333L111.738,22.333L112.242,22.333L112.777,22.333L113.87,22.333L114.422,22.333L115.005,22.333L115.508,22.333L116.045,22.333L117.138,22.333L117.69,22.333L118.272,22.333L118.778,22.333L119.311,22.333L120.404,22.333L120.952,22.333L121.53,22.333L122.036,22.333L122.578,22.333L123.673,22.333L124.218,22.333L124.798,22.333L125.307,22.333L125.848,22.333L126.943,22.333L127.499,22.333L128.081,22.333L128.577,22.333L129.119,22.333L130.21,22.333L130.765,22.333L131.347,22.333L131.853,22.333L132.387,22.333L133.479,22.333L134.034,22.333L134.616,22.333L135.123,22.333L135.653,22.333L136.748,22.333L137.304,22.333L137.886,22.333L138.391,22.333L138.92,22.333L140.014,22.333L140.57,22.333L141.151,22.333L141.656,22.333L142.189,22.333L143.282,22.333L143.827,22.333L144.406,22.333L144.915,22.333L145.458,22.333L146.55,22.333L147.095,22.333L147.675,22.333L148.181,22.333L148.724,22.333L149.822,22.333L150.378,22.333L150.96,22.333L151.449,22.333L151.995,22.333L153.088,22.333L153.647,22.333L154.227,22.333L154.728,22.333L155.264,22.333L156.358,22.333L156.913,22.333L157.496,22.333L157.998,22.333L158.532,22.333L159.622,22.333L160.176,22.333L160.756,22.333L161.265,22.333L161.798,22.333L162.89,22.333L163.444,22.333L164.023,22.333L164.531,22.333L165.066,22.333L166.157,22.333L166.705,22.333L167.282,22.333L167.793,22.333L168.333,22.333L169.423,22.333L169.971,22.333L170.551,22.333L171.06,22.333L171.603,22.333L172.696,22.333L173.251,22.333L173.834,22.333L174.339,22.333L174.873,22.333L175.964,22.333L176.518,22.333L177.103,22.333L177.606,22.333L178.141,22.333L179.234,22.333L179.789,22.333L180.372,22.333L180.875,22.333L181.409,22.333L182.503,22.333L183.058,22.333L183.641,22.333L184.148,22.333L184.678,22.333L185.77,22.333L186.323,22.333L186.905,22.333L187.41,22.333L187.946,22.333L189.035,22.333L189.582,22.333L190.159,22.333L190.667,22.333L191.211,22.333L192.304,22.333L192.85,22.333L193.428,22.333L193.938,22.333L194.479,22.333L195.579,22.333L196.135,22.333L196.715,22.333L197.217,22.333L197.749,22.333L198.842,22.333L199.397,22.333L200,22.333" stroke="#e45756" stroke-width="2"/></g></g><path class="foreground" aria-hidden="true" d="" display="none"/></g></g><g class="mark-group role-legend" role="graphics-symbol" aria-roledescription="legend" aria-label="Symbol legend titled 'identifier' for stroke color with 16 values: devote-1-2022, silex-400-oak-bork-2026, silex-400-warm-slate-grey-2026, devote-1-2024, fastroad-ar-2, ending with allure-rs-2-2024"><g transform="translate(220,0)"><path class="background" aria-hidden="true" d="M0,0h256v222h-256Z" pointer-events="none"/><g><g class="mark-group role-legend-entry"><g transform="translate(0,16)"><path class="background" aria-hidden="true" d="M0,0h0v0h0Z" pointer-events="none"/><g><g class="mark-group role-scope" role="graphics-object" aria-roledescription="group mark container"><g transform="translate(0,0)"><path class="background" aria-hidden="true" d="M0,0h256v11h-256Z" pointer-events="none" opacity="1"/><g><g class="mark-symbol role-legend-symbol" pointer-events="none"><path transform="translate(6,6)" d="M-5,0L5,0" stroke="#4c78a8" stroke-width="1.5" opacity="1"/></g><g class="mark-text role-legend-label" pointer-events="none"><text text-anchor="start" transform="translate(16,9)" font-family="Liberation Mono" font-size="10px" fill="#000" opacity="1">devote-1-2022</text></g></g><path class="foreground" aria-hidden="true" d="" pointer-events="none" display="none"/></g><g transform="translate(0,13)"><path class="background" aria-hidden="true" d="M0,0h256v11h-256Z" pointer-events="none" opacity="1"/><g><g class="mark-symbol role-legend-symbol" pointer-events="none"><path transform="translate(6,6)" d="M-5,0L5,0" stroke="#f58518" stroke-width="1.5" opacity="1"/></g><g class="mark-text role-legend-label" pointer-events="none"><text text-anchor="start" transform="translate(16,9)" font-family="Liberation Mono" font-size="10px" fill="#000" opacity="1">silex-400-oak-bork-2026</text></g></g><path class="foreground" aria-hidden="true" d="" pointer-events="none" display="none"/></g><g transform="translate(0,26)"><path class="background" aria-hidden="true" d="M0,0h256v11h-256Z" pointer-events="none" opacity="1"/><g><g class="mark-symbol role-legend-symbol" pointer-events="none"><path transform="translate(6,6)" d="M-5,0L5,0" stroke="#e45756" stroke-width="1.5" opacity="1"/></g><g class="mark-text role-legend-label" pointer-events="none"><text text-anchor="start" transform="translate(16,9)" font-family="Liberation Mono" font-size="10px" fill="#000" opacity="1">silex-400-warm-slate-grey-2026</text></g></g><path class="foreground" aria-hidden="true" d="" pointer-events="none" display="none"/></g><g transform="translate(0,39)"><path class="background" aria-hidden="true" d="M0,0h256v11h-256Z" pointer-events="none" opacity="1"/><g><g class="mark-symbol role-legend-symbol" pointer-events="none"><path transform="translate(6,6)" d="M-5,0L5,0" stroke="#72b7b2" stroke-width="1.5" opacity="1"/></g><g class="mark-text role-legend-label" pointer-events="none"><text text-anchor="start" transform="translate(16,9)" font-family="Liberation Mono" font-size="10px" fill="#000" opacity="1">devote-1-2024</text></g></g><path class="foreground" aria-hidden="true" d="" pointer-events="none" display="none"/></g><g transform="translate(0,52)"><path class="background" aria-hidden="true" d="M0,0h256v11h-256Z" pointer-events="none" opacity="1"/><g><g class="mark-symbol role-legend-symbol" pointer-events="none"><path transform="translate(6,6)" d="M-5,0L5,0" stroke="#54a24b" stroke-width="1.5" opacity="1"/></g><g class="mark-text role-legend-label" pointer-events="none"><text text-anchor="start" transform="translate(16,9)" font-family="Liberation Mono" font-size="10px" fill="#000" opacity="1">fastroad-ar-2</text></g></g><path class="foreground" aria-hidden="true" d="" pointer-events="none" display="none"/></g><g transform="translate(0,65)"><path class="background" aria-hidden="true" d="M0,0h256v11h-256Z" pointer-events="none" opacity="1"/><g><g class="mark-symbol role-legend-symbol" pointer-events="none"><path transform="translate(6,6)" d="M-5,0L5,0" stroke="#eeca3b" stroke-width="1.5" opacity="1"/></g><g class="mark-text role-legend-label" pointer-events="none"><text text-anchor="start" transform="translate(16,9)" font-family="Liberation Mono" font-size="10px" fill="#000" opacity="1">thrive-2</text></g></g><path class="foreground" aria-hidden="true" d="" pointer-events="none" display="none"/></g><g transform="translate(0,78)"><path class="background" aria-hidden="true" d="M0,0h256v11h-256Z" pointer-events="none" opacity="1"/><g><g class="mark-symbol role-legend-symbol" pointer-events="none"><path transform="translate(6,6)" d="M-5,0L5,0" stroke="#b279a2" stroke-width="1.5" opacity="1"/></g><g class="mark-text role-legend-label" pointer-events="none"><text text-anchor="start" transform="translate(16,9)" font-family="Liberation Mono" font-size="10px" fill="#000" opacity="1">allure-rs-1-2023</text></g></g><path class="foreground" aria-hidden="true" d="" pointer-events="none" display="none"/></g><g transform="translate(0,91)"><path class="background" aria-hidden="true" d="M0,0h256v11h-256Z" pointer-events="none" opacity="1"/><g><g class="mark-symbol role-legend-symbol" pointer-events="none"><path transform="translate(6,6)" d="M-5,0L5,0" stroke="#ff9da6" stroke-width="1.5" opacity="1"/></g><g class="mark-text role-legend-label" pointer-events="none"><text text-anchor="start" transform="translate(16,9)" font-family="Liberation Mono" font-size="10px" fill="#000" opacity="1">roam-2</text></g></g><path class="foreground" aria-hidden="true" d="" pointer-events="none" display="none"/></g><g transform="translate(0,104)"><path class="background" aria-hidden="true" d="M0,0h256v11h-256Z" pointer-events="none" opacity="1"/><g><g class="mark-symbol role-legend-symbol" pointer-events="none"><path transform="translate(6,6)" d="M-5,0L5,0" stroke="#9d755d" stroke-width="1.5" opacity="1"/></g><g class="mark-text role-legend-label" pointer-events="none"><text text-anchor="start" transform="translate(16,9)" font-family="Liberation Mono" font-size="10px" fill="#000" opacity="1">fastroad-sl-3-2022</text></g></g><path class="foreground" aria-hidden="true" d="" pointer-events="none" display="none"/></g><g transform="translate(0,117)"><path class="background" aria-hidden="true" d="M0,0h256v11h-256Z" pointer-events="none" opacity="1"/><g><g class="mark-symbol role-legend-symbol" pointer-events="none"><path transform="translate(6,6)" d="M-5,0L5,0" stroke="#bab0ac" stroke-width="1.5" opacity="1"/></g><g class="mark-text role-legend-label" pointer-events="none"><text text-anchor="start" transform="translate(16,9)" font-family="Liberation Mono" font-size="10px" fill="#000" opacity="1">allure-rs-2-2023</text></g></g><path class="foreground" aria-hidden="true" d="" pointer-events="none" display="none"/></g><g transform="translate(0,130)"><path class="background" aria-hidden="true" d="M0,0h256v11h-256Z" pointer-events="none" opacity="1"/><g><g class="mark-symbol role-legend-symbol" pointer-events="none"><path transform="translate(6,6)" d="M-5,0L5,0" stroke="#4c78a8" stroke-width="1.5" opacity="1"/></g><g class="mark-text role-legend-label" pointer-events="none"><text text-anchor="start" transform="translate(16,9)" font-family="Liberation Mono" font-size="10px" fill="#000" opacity="1">escape-city-disc-1-2024</text></g></g><path class="foreground" aria-hidden="true" d="" pointer-events="none" display="none"/></g><g transform="translate(0,143)"><path class="background" aria-hidden="true" d="M0,0h256v11h-256Z" pointer-events="none" opacity="1"/><g><g class="mark-symbol role-legend-symbol" pointer-events="none"><path transform="translate(6,6)" d="M-5,0L5,0" stroke="#f58518" stroke-width="1.5" opacity="1"/></g><g class="mark-text role-legend-label" pointer-events="none"><text text-anchor="start" transform="translate(16,9)" font-family="Liberation Mono" font-size="10px" fill="#000" opacity="1">sdrbike-escape-1-city-disc</text></g></g><path class="foreground" aria-hidden="true" d="" pointer-events="none" display="none"/></g><g transform="translate(0,156)"><path class="background" aria-hidden="true" d="M0,0h256v11h-256Z" pointer-events="none" opacity="1"/><g><g class="mark-symbol role-legend-symbol" pointer-events="none"><path transform="translate(6,6)" d="M-5,0L5,0" stroke="#e45756" stroke-width="1.5" opacity="1"/></g><g class="mark-text role-legend-label" pointer-events="none"><text text-anchor="start" transform="translate(16,9)" font-family="Liberation Mono" font-size="10px" fill="#000" opacity="1">roam-disc-2-2024</text></g></g><path class="foreground" aria-hidden="true" d="" pointer-events="none" display="none"/></g><g transform="translate(0,169)"><path class="background" aria-hidden="true" d="M0,0h256v11h-256Z" pointer-events="none" opacity="1"/><g><g class="mark-symbol role-legend-symbol" pointer-events="none"><path transform="translate(6,6)" d="M-5,0L5,0" stroke="#72b7b2" stroke-width="1.5" opacity="1"/></g><g class="mark-text role-legend-label" pointer-events="none"><text text-anchor="start" transform="translate(16,9)" font-family="Liberation Mono" font-size="10px" fill="#000" opacity="1">rove-2</text></g></g><path class="foreground" aria-hidden="true" d="" pointer-events="none" display="none"/></g><g transform="translate(0,182)"><path class="background" aria-hidden="true" d="M0,0h256v11h-256Z" pointer-events="none" opacity="1"/><g><g class="mark-symbol role-legend-symbol" pointer-events="none"><path transform="translate(6,6)" d="M-5,0L5,0" stroke="#54a24b" stroke-width="1.5" opacity="1"/></g><g class="mark-text role-legend-label" pointer-events="none"><text text-anchor="start" transform="translate(16,9)" font-family="Liberation Mono" font-size="10px" fill="#000" opacity="1">allure-rs-2-2022</text></g></g><path class="foreground" aria-hidden="true" d="" pointer-events="none" display="none"/></g><g transform="translate(0,195)"><path class="background" aria-hidden="true" d="M0,0h256v11h-256Z" pointer-events="none" opacity="1"/><g><g class="mark-symbol role-legend-symbol" pointer-events="none"><path transform="translate(6,6)" d="M-5,0L5,0" stroke="#eeca3b" stroke-width="1.5" opacity="1"/></g><g class="mark-text role-legend-label" pointer-events="none"><text text-anchor="start" transform="translate(16,9)" font-family="Liberation Mono" font-size="10px" fill="#000" opacity="1">allure-rs-2-2024</text></g></g><path class="foreground" aria-hidden="true" d="" pointer-events="none" display="none"/></g></g></g><path class="foreground" aria-hidden="true" d="" pointer-events="none" display="none"/></g></g><g class="mark-text role-legend-title" pointer-events="none"><text text-anchor="start" transform="translate(0,9)" font-family="Liberation Mono" font-size="11px" font-weight="bold" fill="#000" opacity="1">identifier</text></g></g><path class="foreground" aria-hidden="true" d="" pointer-events="none" display="none"/></g></g></g><path class="foreground" aria-hidden="true" d="" display="none"/></g></g></g></svg>