<svg xmlns="http://www.w3.org/2000/svg" xmlns:xlink="http://www.w3.org/1999/xlink" version="1.1" class="marks" width="548" height="244" viewBox="0 0 548 244"><rect width="548" height="244" fill="white"/><g fill="none" stroke-miterlimit="10" transform="translate(67,7)"><g class="mark-group role-frame root" role="graphics-object" aria-roledescription="group mark container"><g transform="translate(0,0)"><path class="background" aria-hidden="true" d="M0.5,0.5h200v200h-200Z" stroke="#ddd"/><g><g class="mark-group role-axis" aria-hidden="true"><g transform="translate(0.5,200.5)"><path class="background" aria-hidden="true" d="M0,0h0v0h0Z" pointer-events="none"/><g><g class="mark-rule role-axis-grid" pointer-events="none"><line transform="translate(10,-200)" x2="0" y2="200" stroke="#ddd" stroke-width="1" opacity="1"/><line transform="translate(35,-200)" x2="0" y2="200" stroke="#ddd" stroke-width="1" opacity="1"/><line transform="translate(61,-200)" x2="0" y2="200" stroke="#ddd" stroke-width="1" opacity="1"/><line transform="translate(87,-200)" x2="0" y2="200" stroke="#ddd" stroke-width="1" opacity="1"/><line transform="translate(112,-200)" x2="0" y2="200" stroke="#ddd" stroke-width="1" opacity="1"/><line transform="translate(138,-200)" x2="0" y2="200" stroke="#ddd" stroke-width="1" opacity="1"/><line transform="translate(164,-200)" x2="0" y2="200" stroke="#ddd" stroke-width="1" opacity="1"/><line transform="translate(189,-200)" x2="0" y2="200" stroke="#ddd" stroke-width="1" opacity="1"/></g></g><path class="foreground" aria-hidden="true" d="" pointer-events="none" display="none"/></g></g><g class="mark-group role-axis" aria-hidden="true"><g transform="translate(0.5,0.5)"><path class="background" aria-hidden="true" d="M0,0h0v0h0Z" pointer-events="none"/><g><g class="mark-rule role-axis-grid" pointer-events="none"><line transform="translate(0,200)" x2="200" y2="0" stroke="#ddd" stroke-width="1" opacity="1"/><line transform="translate(0,144)" x2="200" y2="0" stroke="#ddd" stroke-width="1" opacity="1"/><line transform="translate(0,89)" x2="200" y2="0" stroke="#ddd" stroke-width="1" opacity="1"/><line transform="translate(0,33)" x2="200" y2="0" stroke="#ddd" stroke-width="1" opacity="1"/></g></g><path class="foreground" aria-hidden="true" d="" pointer-events="none" display="none"/></g></g><g class="mark-group role-axis" role="graphics-symbol" aria-roledescription="axis" aria-label="X-axis titled 'Time' for a time scale with values from Thursday, 14 August 2025, 8:34:48 AM to Tuesday, 07 October 2025, 8:46:00 PM"><g transform="translate(0.5,200.5)"><path class="background" aria-hidden="true" d="M0,0h0v0h0Z" pointer-events="none"/><g><g class="mark-rule role-axis-tick" pointer-events="none"><line transform="translate(10,0)" x2="0" y2="5" stroke="#888" stroke-width="1" opacity="1"/><line transform="translate(35,0)" x2="0" y2="5" stroke="#888" stroke-width="1" opacity="1"/><line transform="translate(61,0)" x2="0" y2="5" stroke="#888" stroke-width="1" opacity="1"/><line transform="translate(87,0)" x2="0" y2="5" stroke="#888" stroke-width="1" opacity="1"/><line transform="translate(112,0)" x2="0" y2="5" stroke="#888" stroke-width="1" opacity="1"/><line transform="translate(138,0)" x2="0" y2="5" stroke="#888" stroke-width="1" opacity="1"/><line transform="translate(164,0)" x2="0" y2="5" stroke="#888" stroke-width="1" opacity="1"/><line transform="translate(189,0)" x2="0" y2="5" stroke="#888" stroke-width="1" opacity="1"/></g><g class="mark-text role-axis-label" pointer-events="none"><text text-anchor="middle" transform="translate(9.695831596318962,15)" font-family="Liberation Mono" font-size="10px" fill="#000" opacity="1">Aug 17</text><text text-anchor="middle" transform="translate(35.380238640981645,15)" font-family="Liberation Mono" font-size="10px" fill="#000" opacity="0">Aug 24</text><text text-anchor="middle" transform="translate(61.06464568564432,15)" font-family="Liberation Mono" font-size="10px" fill="#000" opacity="1">Aug 31</text><text text-anchor="middle" transform="translate(86.74905273030701,15)" font-family="Liberation Mono" font-size="10px" fill="#000" opacity="0">Sep 07</text><text text-anchor="middle" transform="translate(112.43345977496968,15)" font-family="Liberation Mono" font-size="10px" fill="#000" opacity="1">Sep 14</text><text text-anchor="middle" transform="translate(138.11786681963235,15)" font-family="Liberation Mono" font-size="10px" fill="#000" opacity="0">Sep 21</text><text text-anchor="middle" transform="translate(163.80227386429505,15)" font-family="Liberation Mono" font-size="10px" fill="#000" opacity="1">Sep 28</text><text text-anchor="middle" transform="translate(189.48668090895774,15)" font-family="Liberation Mono" font-size="10px" fill="#000" opacity="0">Oct 05</text></g><g class="mark-rule role-axis-domain" pointer-events="none"><line transform="translate(0,0)" x2="200" y2="0" stroke="#888" stroke-width="1" opacity="1"/></g><g class="mark-text role-axis-title" pointer-events="none"><text text-anchor="middle" transform="translate(100,30)" font-family="Liberation Mono" font-size="11px" font-weight="bold" fill="#000" opacity="1">Time</text></g></g><path class="foreground" aria-hidden="true" d="" pointer-events="none" display="none"/></g></g><g class="mark-group role-axis" role="graphics-symbol" aria-roledescription="axis" aria-label="Y-axis titled 'Price' for a linear scale with values from 0 to 1,800"><g transform="translate(0.5,0.5)"><path class="background" aria-hidden="true" d="M0,0h0v0h0Z" pointer-events="none"/><g><g class="mark-rule role-axis-tick" pointer-events="none"><line transform="translate(0,200)" x2="-5" y2="0" stroke="#888" stroke-width="1" opacity="1"/><line transform="translate(0,144)" x2="-5" y2="0" stroke="#888" stroke-width="1" opacity="1"/><line transform="translate(0,89)" x2="-5" y2="0" stroke="#888" stroke-width="1" opacity="1"/><line transform="translate(0,33)" x2="-5" y2="0" stroke="#888" stroke-width="1" opacity="1"/></g><g class="mark-text role-axis-label" pointer-events="none"><text text-anchor="end" transform="translate(-7,203)" font-family="Liberation Mono" font-size="10px" fill="#000" opacity="1">0</text><text text-anchor="end" transform="translate(-7,147.44444444444443)" font-family="Liberation Mono" font-size="10px" fill="#000" opacity="1">500</text><text text-anchor="end" transform="translate(-7,91.88888888888889)" font-family="Liberation Mono" font-size="10px" fill="#000" opacity="1">1,000</text><text text-anchor="end" transform="translate(-7,36.33333333333333)" font-family="Liberation Mono" font-size="10px" fill="#000" opacity="1">1,500</text></g><g class="mark-rule role-axis-domain" pointer-events="none"><line transform="translate(0,200)" x2="0" y2="-200" stroke="#888" stroke-width="1" opacity="1"/></g><g class="mark-text role-axis-title" pointer-events="none"><text text-anchor="middle" transform="translate(-51,100) rotate(-90) translate(0,-2)" font-family="Liberation Mono" font-size="11px" font-weight="bold" fill="#000" opacity="1">Price</text></g></g><path class="foreground" aria-hidden="true" d="" pointer-events="none" display="none"/></g></g><g class="mark-group role-scope pathgroup" role="graphics-object" aria-roledescription="group mark container"><g transform="translate(0,0)"><path class="background" aria-hidden="true" d="M0,0h200v200h-200Z"/><g><g class="mark-line role-mark marks" role="graphics-object" aria-roledescription="line mark container"><path aria-label="Time: Aug 14, 2025; Price: 899; identifier: escape-city-disc-1-2024" role="graphics-symbol" aria-roledescription="line mark" d="M0,100.111L0.03,100.111L0.055,100.111L0.731,100.111L1.269,100.111L1.872,100.111L3.109,100.111L3.717,100.111L4.388,100.111L4.938,100.111L5.539,100.111L6.767,100.111L7.382,100.111L8.033,100.111L8.601,100.111L9.202,100.111L10.45,100.111L11.05,100.111L11.704,100.111L12.272,100.111L12.876,100.111L14.13,100.111L14.732,100.111L15.408,100.111L15.645,100.111L15.953,100.111L16.542,100.111L17.771,100.111L18.392,100.111L19.044,100.111L19.613,100.111L20.21,100.111L21.441,100.111L22.057,100.111L22.735,100.111L23.009,100.111L23.281,100.111L23.883,100.111L25.108,100.111L25.729,100.111L26.383,100.111L26.952,100.111L27.55,100.111L28.779,100.111L29.397,100.111L30.051,100.111L30.618,100.111L31.218,100.111L32.445,100.111L33.06,100.111L33.709,100.111L34.277,100.111L34.883,100.111L36.119,100.111L36.727,100.111L37.38,100.111L37.951,100.111L38.553,100.111L39.793,100.111L40.412,100.111L41.082,100.111L41.63,100.111L42.227,100.111L43.456,100.111L44.079,100.111L45.295,100.111L45.892,100.111L47.121,100.111L47.741,100.111L47.981,100.111L48.394,100.111L48.804,100.111L48.964,100.111L49.564,100.111L50.789,100.111L51.412,100.111L52.065,100.111L52.632,100.111L53.232,100.111L54.459,100.111L55.078,100.111L55.73,100.111L56.3,100.111L56.899,100.111L58.124,100.111L58.739,100.111L59.388,100.111L59.96,100.111L60.537,100.111L60.566,100.111L61.795,100.111L62.187,100.111L62.406,100.111L63.059,100.111L63.632,100.111L64.236,100.111L65.476,100.111L66.092,100.111L66.743,100.111L67.305,100.111L67.905,100.111L69.139,100.111L69.759,100.111L70.415,100.111L70.977,100.111L71.576,100.111L72.803,100.111L73.423,100.111L74.076,100.111L74.644,100.111L75.244,100.111L76.472,100.111L77.093,100.111L77.742,100.111L78.316,100.111L78.913,100.111L80.142,100.111L80.762,100.111L81.413,100.111L81.978,100.111L82.583,100.111L83.808,100.111L84.122,100.111L84.42,100.111L85.067,100.111L85.642,100.111L86.25,100.111L87.476,100.111L88.088,100.111L88.738,100.111L89.311,100.111L89.919,100.111L91.15,100.111L91.775,100.111L92.429,100.111L92.993,100.111L93.594,100.111L94.819,100.111L95.443,100.111L96.119,100.111L96.665,100.111L97.259,100.111L98.483,100.111L99.108,100.111L99.759,100.111L100.328,100.111L100.93,100.111L102.157,100.111L102.776,100.111L103.427,100.111L103.99,100.111L104.596,100.111L105.823,100.111L106.444,100.111L107.094,100.111L107.661,100.111L108.265,100.111L109.49,100.111L110.104,100.111L110.752,100.111L111.323,100.111L111.934,100.111L113.161,100.111L113.774,100.111L114.419,100.111L114.991,100.111L115.604,100.111L116.836,100.111L117.454,100.111L118.11,100.111L118.675,100.111L119.275,100.111L120.502,100.111L121.127,100.111L121.778,100.111L122.343,100.111L122.945,100.111L124.173,100.111L124.793,100.111L125.448,100.111L126.013,100.111L126.614,100.111L127.841,100.111L128.461,100.111L129.116,100.111L129.68,100.111L130.283,100.111L131.51,100.111L132.13,100.111L132.784,100.111L133.351,100.111L133.95,100.111L135.177,100.111L135.793,100.111L136.442,100.111L137.009,100.111L137.618,100.111L138.847,100.111L139.459,100.111L140.11,100.111L140.682,100.111L141.289,100.111L142.519,100.111L143.143,100.111L143.796,100.111L144.353,100.111L144.962,100.111L146.187,100.111L146.809,100.111L147.462,100.111L148.031,100.111L148.63,100.111L149.857,100.111L150.48,100.111L151.132,100.111L151.703,100.111L152.297,100.111L153.526,100.111L154.15,100.111L154.805,100.111L155.371,100.111L155.966,100.111L157.194,100.111L157.818,100.111L158.469,100.111L159.036,100.111L159.635,100.111L160.862,100.111L161.474,100.111L162.124,100.111L162.696,100.111L163.305,100.111L164.532,100.111L165.144,100.111L165.794,100.111L166.362,100.111L166.973,100.111L168.204,100.111L168.829,100.111L169.482,100.111L170.032,100.111L170.644,100.111L171.872,100.111L172.5,100.111L173.151,100.111L173.713,100.111L174.314,100.111L175.543,100.111L176.166,100.111L176.821,100.111L177.384,100.111L177.983,100.111L179.208,100.111L179.829,100.111L180.481,100.111L181.052,100.111L181.651,100.111L182.876,100.111L183.498,100.111L184.148,100.111L184.72,100.111L185.319,100.111L186.544,100.111L187.16,100.111L187.807,100.111L188.381,100.111L188.988,100.111L190.212,100.111L190.827,100.111L191.477,100.111L192.049,100.111L192.658,100.111L193.886,100.111L194.509,100.111L195.164,100.111L195.73,100.111L196.33,100.111L197.555,100.111L198.177,100.111L198.834,100.111L199.399,100.111L199.999,100.111" stroke="#4c78a8" stroke-width="2"/></g></g><path class="foreground" aria-hidden="true" d="" display="none"/></g><g transform="translate(0,0)"><path class="background" aria-hidden="true" d="M0,0h200v200h-200Z"/><g><g class="mark-line role-mark marks" role="graphics-object" aria-roledescription="line mark container"><path aria-label="Time: Aug 14, 2025; Price: 999; identifier: roam-2" role="graphics-symbol" aria-roledescription="line mark" d="M0,89L0.031,89L0.055,89L0.731,89L1.269,89L1.872,89L3.11,89L3.717,89L4.388,89L4.939,89L5.539,89L6.767,89L7.382,89L8.033,89L8.601,89L9.208,89L10.45,89L11.05,89L11.704,89L12.272,89L12.876,89L14.13,89L14.732,89L15.408,89L15.645,89L15.954,89L16.542,89L17.771,89L18.392,89L19.044,89L19.613,89L20.21,89L21.442,89L22.057,89L22.735,89L23.009,89L23.281,89L23.883,89L25.109,89L25.729,89L26.383,89L26.953,89L27.551,89L28.779,89L29.397,89L30.051,89L30.618,89L31.218,89L32.445,89L33.06,89L33.709,89L34.278,89L34.883,89L36.119,89L36.727,89L37.38,89L37.951,89L38.554,89L39.793,89L40.412,89L41.082,89L41.63,89L42.227,89L43.456,89L44.079,89L45.295,89L45.892,89L47.121,89L47.741,89L47.982,89L48.395,89L48.804,89L48.964,89L49.564,89L50.79,89L51.412,89L52.065,89L52.633,89L53.232,89L54.459,89L55.079,89L55.73,89L56.3,89L56.899,89L58.124,89L58.739,89L59.388,89L59.961,89L60.537,89L60.566,89L61.795,89L62.187,89L62.407,89L63.059,89L63.632,89L64.237,89L65.476,89L66.093,89L66.744,89L67.306,89L67.905,89L69.139,89L69.759,89L70.415,89L70.977,89L71.577,89L72.804,89L73.423,89L74.076,89L74.645,89L75.245,89L76.472,89L77.093,89L77.742,89L78.316,89L78.913,89L80.142,89L80.762,89L81.413,89L81.979,89L82.583,89L83.808,89L84.122,89L84.42,89L85.067,89L85.642,89L86.251,89L87.476,89L88.089,89L88.739,89L89.311,89L89.92,89L91.151,89L91.775,89L92.43,89L92.993,89L93.594,89L94.819,89L95.443,89L96.119,89L96.665,89L97.259,89L98.483,89L99.109,89L99.759,89L100.328,89L100.93,89L102.157,89L102.777,89L103.427,89L103.99,89L104.596,89L105.823,89L106.444,89L107.094,89L107.661,89L108.265,89L109.49,89L110.105,89L110.752,89L111.323,89L111.935,89L113.161,89L113.774,89L114.419,89L114.992,89L115.604,89L116.836,89L117.455,89L118.11,89L118.676,89L119.276,89L120.502,89L121.127,89L121.779,89L122.343,89L122.945,89L124.173,89L124.793,89L125.448,89L126.013,89L126.614,89L127.841,89L128.461,89L129.116,89L129.68,89L130.283,89L131.511,89L132.13,89L132.784,89L133.352,89L133.95,89L135.177,89L135.793,89L136.442,89L137.009,89L137.618,89L138.847,89L139.459,89L140.11,89L140.682,89L141.289,89L142.519,89L143.143,89L143.796,89L144.354,89L144.962,89L146.187,89L146.81,89L147.462,89L148.031,89L148.63,89L149.857,89L150.48,89L151.133,89L151.703,89L152.297,89L153.527,89L154.15,89L154.805,89L155.371,89L155.966,89L157.194,89L157.818,89L158.47,89L159.037,89L159.635,89L160.863,89L161.474,89L162.124,89L162.696,89L163.305,89L164.532,89L165.144,89L165.794,89L166.363,89L166.973,89L168.204,89L168.829,89L169.483,89L170.032,89L170.644,89L171.872,89L172.5,89L173.151,89L173.713,89L174.314,89L175.544,89L176.166,89L176.821,89L177.384,89L177.984,89L179.208,89L179.829,89L180.481,89L181.052,89L181.651,89L182.876,89L183.498,89L184.148,89L184.72,89L185.319,89L186.544,89L187.16,89L187.807,89L188.381,89L188.988,89L190.212,89L190.827,89L191.478,89L192.05,89L192.658,89L193.886,89L194.51,89L195.164,89L195.73,89L196.33,89L197.555,89L198.177,89L198.834,89L199.399,89L199.999,89" stroke="#ff9da6" stroke-width="2"/></g></g><path class="foreground" aria-hidden="true" d="" display="none"/></g><g transform="translate(0,0)"><path class="background" aria-hidden="true" d="M0,0h200v200h-200Z"/><g><g class="mark-line role-mark marks" role="graphics-object" aria-roledescription="line mark container"><path aria-label="Time: Aug 14, 2025; Price: 999; identifier: fastroad-sl-3-2022" role="graphics-symbol" aria-roledescription="line mark" d="M0,89L0.031,89L0.055,89L0.731,89L1.269,89L1.872,89L3.11,89L3.717,89L4.388,89L4.939,89L5.539,89L6.767,89L7.382,89L8.033,89L8.601,89L9.208,89L10.45,89L11.05,89L11.704,89L12.273,89L12.876,89L14.13,89L14.732,89L15.408,89L15.646,89L15.954,89L16.542,89L17.771,89L18.392,89L19.044,89L19.613,89L20.21,89L21.442,89L22.057,89L22.735,89L23.009,89L23.281,89L23.883,89L25.109,89L25.729,89L26.383,89L26.953,89L27.551,89L28.779,89L29.397,89L30.051,89L30.618,89L31.218,89L32.445,89L33.06,89L33.709,89L34.278,89L34.883,89L36.119,89L36.727,89L37.38,89L37.951,89L38.554,89L39.793,89L40.413,89L41.082,89L41.63,89L42.227,89L43.457,89L44.079,89L45.295,89L45.893,89L47.121,89L47.741,89L47.982,89L48.395,89L48.804,89L48.964,89L49.564,89L50.79,89L51.412,89L52.065,89L52.633,89L53.232,89L54.459,89L55.079,89L55.73,89L56.3,89L56.899,89L58.124,89L58.739,89L59.388,89L59.961,89L60.538,89L60.566,89L61.795,89L62.187,89L62.407,89L63.059,89L63.632,89L64.237,89L65.476,89L66.093,89L66.744,89L67.306,89L67.905,89L69.139,89L69.76,89L70.415,89L70.977,89L71.577,89L72.804,89L73.423,89L74.076,89L74.645,89L75.245,89L76.472,89L77.093,89L77.742,89L78.316,89L78.913,89L80.143,89L80.762,89L81.413,89L81.979,89L82.583,89L83.808,89L84.123,89L84.42,89L85.067,89L85.642,89L86.251,89L87.476,89L88.089,89L88.739,89L89.311,89L89.92,89L91.151,89L91.775,89L92.43,89L92.993,89L93.594,89L94.819,89L95.443,89L96.12,89L96.665,89L97.259,89L98.483,89L99.109,89L99.759,89L100.328,89L100.93,89L102.157,89L102.777,89L103.427,89L103.99,89L104.596,89L105.823,89L106.444,89L107.094,89L107.661,89L108.265,89L109.49,89L110.105,89L110.753,89L111.323,89L111.935,89L113.161,89L113.774,89L114.419,89L114.992,89L115.604,89L116.836,89L117.455,89L118.111,89L118.676,89L119.276,89L120.502,89L121.127,89L121.779,89L122.343,89L122.945,89L124.173,89L124.793,89L125.448,89L126.013,89L126.614,89L127.841,89L128.461,89L129.116,89L129.68,89L130.284,89L131.511,89L132.13,89L132.784,89L133.352,89L133.95,89L135.177,89L135.793,89L136.442,89L137.01,89L137.619,89L138.848,89L139.459,89L140.11,89L140.682,89L141.289,89L142.519,89L143.144,89L143.796,89L144.354,89L144.962,89L146.187,89L146.81,89L147.463,89L148.031,89L148.631,89L149.857,89L150.48,89L151.133,89L151.703,89L152.297,89L153.527,89L154.151,89L154.805,89L155.371,89L155.966,89L157.194,89L157.818,89L158.47,89L159.037,89L159.635,89L160.863,89L161.474,89L162.124,89L162.696,89L163.305,89L164.532,89L165.144,89L165.795,89L166.363,89L166.973,89L168.205,89L168.829,89L169.483,89L170.032,89L170.644,89L171.872,89L172.5,89L173.151,89L173.713,89L174.314,89L175.544,89L176.166,89L176.821,89L177.384,89L177.984,89L179.208,89L179.829,89L180.481,89L181.053,89L181.651,89L182.876,89L183.498,89L184.148,89L184.72,89L185.319,89L186.544,89L187.16,89L187.807,89L188.381,89L188.988,89L190.212,89L190.827,89L191.478,89L192.05,89L192.658,89L193.886,89L194.51,89L195.164,89L195.73,89L196.331,89L197.555,89L198.177,89L198.834,89L199.399,89L199.999,89" stroke="#9d755d" stroke-width="2"/></g></g><path class="foreground" aria-hidden="true" d="" display="none"/></g><g transform="translate(0,0)"><path class="background" aria-hidden="true" d="M0,0h200v200h-200Z"/><g><g class="mark-line role-mark marks" role="graphics-object" aria-roledescription="line mark container"><path aria-label="Time: Aug 14, 2025; Price: 1199; identifier: fastroad-ar-2" role="graphics-symbol" aria-roledescription="line mark" d="M0,66.778L0.031,66.778L0.055,66.778L0.731,66.778L1.269,66.778L1.872,66.778L3.11,66.778L3.717,66.778L4.388,66.778L4.939,66.778L5.539,66.778L6.767,66.778L7.382,66.778L8.033,66.778L8.601,66.778L9.211,66.778L10.45,66.778L11.05,66.778L11.704,66.778L12.273,66.778L12.876,66.778L14.13,66.778L14.732,66.778L15.408,66.778L15.646,66.778L15.954,66.778L16.542,66.778L17.771,66.778L18.392,66.778L19.044,66.778L19.613,66.778L20.21,66.778L21.442,66.778L22.057,66.778L22.735,66.778L23.01,66.778L23.281,66.778L23.884,66.778L25.109,66.778L25.729,66.778L26.384,66.778L26.953,66.778L27.551,66.778L28.779,66.778L29.397,66.778L30.051,66.778L30.618,66.778L31.218,66.778L32.445,66.778L33.06,66.778L33.709,66.778L34.278,66.778L34.883,66.778L36.119,66.778L36.727,66.778L37.38,66.778L37.951,66.778L38.554,66.778L39.793,66.778L40.413,66.778L41.082,66.778L41.63,66.778L42.227,66.778L43.457,66.778L44.079,66.778L45.296,66.778L45.893,66.778L47.121,66.778L47.741,66.778L47.982,66.778L48.395,66.778L48.804,66.778L48.964,66.778L49.564,66.778L50.79,66.778L51.412,66.778L52.066,66.778L52.633,66.778L53.232,66.778L54.459,66.778L55.079,66.778L55.73,66.778L56.3,66.778L56.899,66.778L58.124,66.778L58.739,66.778L59.388,66.778L59.961,66.778L60.538,66.778L60.566,66.778L61.795,66.778L62.187,66.778L62.407,66.778L63.059,66.778L63.632,66.778L64.237,66.778L65.476,66.778L66.093,66.778L66.744,66.778L67.306,66.778L67.905,66.778L69.139,66.778L69.76,66.778L70.415,66.778L70.977,66.778L71.577,66.778L72.804,66.778L73.423,66.778L74.076,66.778L74.645,66.778L75.245,66.778L76.472,66.778L77.094,66.778L77.742,66.778L78.317,66.778L78.913,66.778L80.143,66.778L80.762,66.778L81.414,66.778L81.979,66.778L82.584,66.778L83.808,66.778L84.123,66.778L84.42,66.778L85.067,66.778L85.642,66.778L86.251,66.778L87.476,66.778L88.089,66.778L88.739,66.778L89.311,66.778L89.92,66.778L91.152,66.778L91.775,66.778L92.43,66.778L92.994,66.778L93.594,66.778L94.819,66.778L95.443,66.778L96.12,66.778L96.665,66.778L97.259,66.778L98.483,66.778L99.109,66.778L99.759,66.778L100.328,66.778L100.93,66.778L102.157,66.778L102.777,66.778L103.427,66.778L103.99,66.778L104.596,66.778L105.824,66.778L106.444,66.778L107.094,66.778L107.661,66.778L108.265,66.778L109.491,66.778L110.105,66.778L110.753,66.778L111.323,66.778L111.935,66.778L113.161,66.778L113.774,66.778L114.419,66.778L114.992,66.778L115.604,66.778L116.836,66.778L117.455,66.778L118.111,66.778L118.676,66.778L119.276,66.778L120.502,66.778L121.127,66.778L121.779,66.778L122.343,66.778L122.946,66.778L124.173,66.778L124.793,66.778L125.448,66.778L126.013,66.778L126.614,66.778L127.841,66.778L128.461,66.778L129.116,66.778L129.68,66.778L130.284,66.778L131.511,66.778L132.13,66.778L132.784,66.778L133.352,66.778L133.95,66.778L135.177,66.778L135.793,66.778L136.442,66.778L137.01,66.778L137.619,66.778L138.848,66.778L139.459,66.778L140.11,66.778L140.682,66.778L141.29,66.778L142.519,66.778L143.144,66.778L143.797,66.778L144.354,66.778L144.962,66.778L146.187,66.778L146.81,66.778L147.463,66.778L148.031,66.778L148.631,66.778L149.857,66.778L150.48,66.778L151.133,66.778L151.703,66.778L152.297,66.778L153.527,66.778L154.151,66.778L154.805,66.778L155.371,66.778L155.966,66.778L157.194,66.778L157.818,66.778L158.47,66.778L159.037,66.778L159.635,66.778L160.863,66.778L161.475,66.778L162.124,66.778L162.696,66.778L163.305,66.778L164.532,66.778L165.144,66.778L165.795,66.778L166.363,66.778L166.973,66.778L168.205,66.778L168.829,66.778L169.483,66.778L170.032,66.778L170.644,66.778L171.872,66.778L172.5,66.778L173.151,66.778L173.714,66.778L174.314,66.778L175.544,66.778L176.166,66.778L176.821,66.778L177.384,66.778L177.984,66.778L179.208,66.778L179.829,66.778L180.481,66.778L181.053,66.778L181.651,66.778L182.876,66.778L183.498,66.778L184.148,66.778L184.72,66.778L185.319,66.778L186.545,66.778L187.16,66.778L187.808,66.778L188.381,66.778L188.988,66.778L190.212,66.778L190.827,66.778L191.478,66.778L192.05,66.778L192.658,66.778L193.886,66.778L194.51,66.778L195.164,66.778L195.73,66.778L196.331,66.778L197.555,66.778L198.178,66.778L198.834,66.778L199.399,66.778L199.999,66.778" stroke="#54a24b" stroke-width="2"/></g></g><path class="foreground" aria-hidden="true" d="" display="none"/></g><g transform="translate(0,0)"><path class="background" aria-hidden="true" d="M0,0h200v200h-200Z"/><g><g class="mark-line role-mark marks" role="graphics-object" aria-roledescription="line mark container"><path aria-label="Time: Aug 18, 2025; Price: 899; identifier: sdrbike-escape-1-city-disc" role="graphics-symbol" aria-roledescription="line mark" d="M15.646,100.111L15.954,100.111L16.542,100.111L17.771,100.111L18.392,100.111L19.044,100.111L19.613,100.111L20.21,100.111L21.442,100.111L22.057,100.111L22.735,100.111L23.01,100.111L23.281,100.111L23.884,100.111L25.109,100.111L25.729,100.111L26.384,100.111L26.953,100.111L27.551,100.111L28.779,100.111L29.397,100.111L30.051,100.111L30.618,100.111L31.218,100.111L32.446,100.111L33.061,100.111L33.709,100.111L34.278,100.111L34.884,100.111L36.119,100.111L36.727,100.111L37.381,100.111L37.952,100.111L38.554,100.111L39.794,100.111L40.413,100.111L41.082,100.111L41.63,100.111L42.227,100.111L43.457,100.111L44.08,100.111L45.296,100.111L45.893,100.111L47.121,100.111L47.741,100.111L47.982,100.111L48.395,100.111L48.804,100.111L48.964,100.111L49.565,100.111L50.79,100.111L51.412,100.111L52.066,100.111L52.633,100.111L53.232,100.111L54.459,100.111L55.079,100.111L55.731,100.111L56.301,100.111L56.899,100.111L58.124,100.111L58.739,100.111L59.388,100.111L59.961,100.111L60.538,100.111L60.566,100.111L61.795,100.111L62.187,100.111L62.407,100.111L63.059,100.111L63.632,100.111L64.237,100.111L65.476,100.111L66.093,100.111L66.744,100.111L67.306,100.111L67.905,100.111L69.139,100.111L69.76,100.111L70.415,100.111L70.977,100.111L71.577,100.111L72.804,100.111L73.423,100.111L74.077,100.111L74.645,100.111L75.245,100.111L76.472,100.111L77.094,100.111L77.742,100.111L78.317,100.111L78.913,100.111L80.143,100.111L80.762,100.111L81.414,100.111L81.979,100.111L82.584,100.111L83.808,100.111L84.123,100.111L84.42,100.111L85.067,100.111L85.642,100.111L86.251,100.111L87.476,100.111L88.089,100.111L88.739,100.111L89.311,100.111L89.92,100.111L91.152,100.111L91.776,100.111L92.43,100.111L92.994,100.111L93.595,100.111L94.819,100.111L95.443,100.111L96.12,100.111L96.665,100.111L97.259,100.111L98.483,100.111L99.109,100.111L99.759,100.111L100.329,100.111L100.93,100.111L102.157,100.111L102.777,100.111L103.427,100.111L103.991,100.111L104.596,100.111L105.824,100.111L106.445,100.111L107.094,100.111L107.661,100.111L108.265,100.111L109.491,100.111L110.105,100.111L110.753,100.111L111.324,100.111L111.935,100.111L113.161,100.111L113.774,100.111L114.419,100.111L114.992,100.111L115.604,100.111L116.836,100.111L117.455,100.111L118.111,100.111L118.676,100.111L119.276,100.111L120.502,100.111L121.127,100.111L121.779,100.111L122.343,100.111L122.946,100.111L124.173,100.111L124.793,100.111L125.448,100.111L126.014,100.111L126.614,100.111L127.841,100.111L128.462,100.111L129.116,100.111L129.681,100.111L130.284,100.111L131.511,100.111L132.131,100.111L132.784,100.111L133.352,100.111L133.951,100.111L135.177,100.111L135.793,100.111L136.442,100.111L137.01,100.111L137.619,100.111L138.848,100.111L139.459,100.111L140.11,100.111L140.682,100.111L141.29,100.111L142.519,100.111L143.144,100.111L143.797,100.111L144.354,100.111L144.962,100.111L146.187,100.111L146.81,100.111L147.463,100.111L148.031,100.111L148.631,100.111L149.857,100.111L150.48,100.111L151.133,100.111L151.703,100.111L152.297,100.111L153.527,100.111L154.151,100.111L154.805,100.111L155.371,100.111L155.966,100.111L157.194,100.111L157.818,100.111L158.47,100.111L159.037,100.111L159.636,100.111L160.863,100.111L161.475,100.111L162.124,100.111L162.696,100.111L163.305,100.111L164.532,100.111L165.144,100.111L165.795,100.111L166.363,100.111L166.973,100.111L168.205,100.111L168.829,100.111L169.483,100.111L170.032,100.111L170.645,100.111L171.873,100.111L172.5,100.111L173.152,100.111L173.714,100.111L174.314,100.111L175.544,100.111L176.166,100.111L176.821,100.111L177.384,100.111L177.984,100.111L179.208,100.111L179.83,100.111L180.481,100.111L181.053,100.111L181.651,100.111L182.876,100.111L183.499,100.111L184.149,100.111L184.72,100.111L185.319,100.111L186.545,100.111L187.16,100.111L187.808,100.111L188.381,100.111L188.988,100.111L190.212,100.111L190.827,100.111L191.478,100.111L192.05,100.111L192.658,100.111L193.886,100.111L194.51,100.111L195.164,100.111L195.73,100.111L196.331,100.111L197.555,100.111L198.178,100.111L198.834,100.111L199.399,100.111L199.999,100.111" stroke="#f58518" stroke-width="2"/></g></g><path class="foreground" aria-hidden="true" d="" display="none"/></g><g transform="translate(0,0)"><path class="background" aria-hidden="true" d="M0,0h200v200h-200Z"/><g><g class="mark-line role-mark marks" role="graphics-object" aria-roledescription="line mark container"><path aria-label="Time: Aug 20, 2025; Price: 899; identifier: roam-disc-2-2024" role="graphics-symbol" aria-roledescription="line mark" d="M23.009,100.111L23.281,100.111L23.883,100.111L25.108,100.111L25.729,100.111L26.383,100.111L26.953,100.111L27.55,100.111L28.779,100.111L29.397,100.111L30.051,100.111L30.618,100.111L31.218,100.111L32.445,100.111L33.06,100.111L33.709,100.111L34.277,100.111L34.883,100.111L36.119,100.111L36.727,100.111L37.38,100.111L37.951,100.111L38.554,100.111L39.793,100.111L40.412,100.111L41.082,100.111L41.63,100.111L42.227,100.111L43.456,100.111L44.079,100.111L45.295,100.111L45.892,100.111L47.121,100.111L47.741,100.111L47.982,100.111L48.395,100.111L48.804,100.111L48.964,100.111L49.564,100.111L50.79,100.111L51.412,100.111L52.065,100.111L52.633,100.111L53.232,100.111L54.459,100.111L55.078,100.111L55.73,100.111L56.3,100.111L56.899,100.111L58.124,100.111L58.739,100.111L59.388,100.111L59.961,100.111L60.537,100.111L60.566,100.111L61.795,100.111L62.187,100.111L62.406,100.111L63.059,100.111L63.632,100.111L64.237,100.111L65.476,100.111L66.092,100.111L66.744,100.111L67.305,100.111L67.905,100.111L69.139,100.111L69.759,100.111L70.415,100.111L70.977,100.111L71.577,100.111L72.803,100.111L73.423,100.111L74.076,100.111L74.644,100.111L75.245,100.111L76.472,100.111L77.093,100.111L77.742,100.111L78.316,100.111L78.913,100.111L80.142,100.111L80.762,100.111L81.413,100.111L81.978,100.111L82.583,100.111L83.808,100.111L84.122,100.111L84.42,100.111L85.067,100.111L85.642,100.111L86.251,100.111L87.476,100.111L88.089,100.111L88.739,100.111L89.311,100.111L89.92,100.111L91.151,100.111L91.775,100.111L92.43,100.111L92.993,100.111L93.594,100.111L94.819,100.111L95.443,100.111L96.119,100.111L96.665,100.111L97.259,100.111L98.483,100.111L99.108,100.111L99.759,100.111L100.328,100.111L100.93,100.111L102.157,100.111L102.776,100.111L103.427,100.111L103.99,100.111L104.596,100.111L105.823,100.111L106.444,100.111L107.094,100.111L107.661,100.111L108.265,100.111L109.49,100.111L110.105,100.111L110.752,100.111L111.323,100.111L111.935,100.111L113.161,100.111L113.774,100.111L114.419,100.111L114.991,100.111L115.604,100.111L116.836,100.111L117.455,100.111L118.11,100.111L118.676,100.111L119.276,100.111L120.502,100.111L121.127,100.111L121.779,100.111L122.343,100.111L122.945,100.111L124.173,100.111L124.793,100.111L125.448,100.111L126.013,100.111L126.614,100.111L127.841,100.111L128.461,100.111L129.116,100.111L129.68,100.111L130.283,100.111L131.511,100.111L132.13,100.111L132.784,100.111L133.352,100.111L133.95,100.111L135.177,100.111L135.793,100.111L136.442,100.111L137.009,100.111L137.618,100.111L138.847,100.111L139.459,100.111L140.11,100.111L140.682,100.111L141.289,100.111L142.519,100.111L143.143,100.111L143.796,100.111L144.354,100.111L144.962,100.111L146.187,100.111L146.809,100.111L147.462,100.111L148.031,100.111L148.63,100.111L149.857,100.111L150.48,100.111L151.133,100.111L151.703,100.111L152.297,100.111L153.527,100.111L154.15,100.111L154.805,100.111L155.371,100.111L155.966,100.111L157.194,100.111L157.818,100.111L158.47,100.111L159.037,100.111L159.635,100.111L160.863,100.111L161.474,100.111L162.124,100.111L162.696,100.111L163.305,100.111L164.532,100.111L165.144,100.111L165.794,100.111L166.362,100.111L166.973,100.111L168.204,100.111L168.829,100.111L169.483,100.111L170.032,100.111L170.644,100.111L171.872,100.111L172.5,100.111L173.151,100.111L173.713,100.111L174.314,100.111L175.543,100.111L176.166,100.111L176.821,100.111L177.384,100.111L177.984,100.111L179.208,100.111L179.829,100.111L180.481,100.111L181.052,100.111L181.651,100.111L182.876,100.111L183.498,100.111L184.148,100.111L184.72,100.111L185.319,100.111L186.544,100.111L187.16,100.111L187.807,100.111L188.381,100.111L188.988,100.111L190.212,100.111L190.827,100.111L191.477,100.111L192.049,100.111L192.658,100.111L193.886,100.111L194.51,100.111L195.164,100.111L195.73,100.111L196.33,100.111L197.555,100.111L198.177,100.111L198.834,100.111L199.399,100.111L199.999,100.111" stroke="#e45756" stroke-width="2"/></g></g><path class="foreground" aria-hidden="true" d="" display="none"/></g><g transform="translate(0,0)"><path class="background" aria-hidden="true" d="M0,0h200v200h-200Z"/><g><g class="mark-line role-mark marks" role="graphics-object" aria-roledescription="line mark container"><path aria-label="Time: Aug 20, 2025; Price: 1199; identifier: thrive-2" role="graphics-symbol" aria-roledescription="line mark" d="M23.01,66.778L23.281,66.778L23.884,66.778L25.109,66.778L25.729,66.778L26.384,66.778L26.953,66.778L27.551,66.778L28.779,66.778L29.397,66.778L30.051,66.778L30.618,66.778L31.218,66.778L32.446,66.778L33.061,66.778L33.709,66.778L34.278,66.778L34.884,66.778L36.119,66.778L36.727,66.778L37.381,66.778L37.952,66.778L38.554,66.778L39.794,66.778L40.413,66.778L41.082,66.778L41.63,66.778L42.227,66.778L43.457,66.778L44.08,66.778L45.296,66.778L45.893,66.778L47.122,66.778L47.741,66.778L47.983,66.778L48.395,66.778L48.804,66.778L48.964,66.778L49.565,66.778L50.79,66.778L51.412,66.778L52.066,66.778L52.633,66.778L53.232,66.778L54.459,66.778L55.079,66.778L55.731,66.778L56.301,66.778L56.9,66.778L58.124,66.778L58.739,66.778L59.389,66.778L59.961,66.778L60.538,66.778L60.566,66.778L61.795,66.778L62.187,66.778L62.407,66.778L63.06,66.778L63.632,66.778L64.237,66.778L65.476,66.778L66.093,66.778L66.744,66.778L67.306,66.778L67.905,66.778L69.14,66.778L69.76,66.778L70.416,66.778L70.977,66.778L71.577,66.778L72.804,66.778L73.423,66.778L74.077,66.778L74.645,66.778L75.245,66.778L76.472,66.778L77.094,66.778L77.743,66.778L78.317,66.778L78.913,66.778L80.143,66.778L80.762,66.778L81.414,66.778L81.979,66.778L82.584,66.778L83.808,66.778L84.123,66.778L84.42,66.778L85.068,66.778L85.642,66.778L86.251,66.778L87.476,66.778L88.089,66.778L88.739,66.778L89.312,66.778L89.92,66.778L91.152,66.778L91.776,66.778L92.43,66.778L92.994,66.778L93.595,66.778L94.819,66.778L95.443,66.778L96.12,66.778L96.665,66.778L97.26,66.778L98.483,66.778L99.109,66.778L99.759,66.778L100.329,66.778L100.93,66.778L102.157,66.778L102.777,66.778L103.427,66.778L103.991,66.778L104.596,66.778L105.824,66.778L106.445,66.778L107.094,66.778L107.662,66.778L108.265,66.778L109.491,66.778L110.105,66.778L110.753,66.778L111.324,66.778L111.935,66.778L113.161,66.778L113.774,66.778L114.419,66.778L114.992,66.778L115.604,66.778L116.836,66.778L117.455,66.778L118.111,66.778L118.676,66.778L119.276,66.778L120.502,66.778L121.127,66.778L121.779,66.778L122.344,66.778L122.946,66.778L124.173,66.778L124.793,66.778L125.448,66.778L126.014,66.778L126.614,66.778L127.842,66.778L128.462,66.778L129.116,66.778L129.681,66.778L130.284,66.778L131.511,66.778L132.131,66.778L132.784,66.778L133.352,66.778L133.951,66.778L135.177,66.778L135.793,66.778L136.442,66.778L137.01,66.778L137.619,66.778L138.848,66.778L139.459,66.778L140.11,66.778L140.682,66.778L141.29,66.778L142.519,66.778L143.144,66.778L143.797,66.778L144.354,66.778L144.962,66.778L146.187,66.778L146.81,66.778L147.463,66.778L148.031,66.778L148.631,66.778L149.858,66.778L150.48,66.778L151.133,66.778L151.703,66.778L152.297,66.778L153.527,66.778L154.151,66.778L154.805,66.778L155.371,66.778L155.966,66.778L157.195,66.778L157.818,66.778L158.47,66.778L159.037,66.778L159.636,66.778L160.863,66.778L161.475,66.778L162.124,66.778L162.696,66.778L163.305,66.778L164.532,66.778L165.144,66.778L165.795,66.778L166.363,66.778L166.973,66.778L168.205,66.778L168.83,66.778L169.483,66.778L170.032,66.778L170.645,66.778L171.873,66.778L172.5,66.778L173.152,66.778L173.714,66.778L174.314,66.778L175.544,66.778L176.167,66.778L176.822,66.778L177.385,66.778L177.984,66.778L179.208,66.778L179.83,66.778L180.481,66.778L181.053,66.778L181.651,66.778L182.876,66.778L183.499,66.778L184.149,66.778L184.72,66.778L185.319,66.778L186.545,66.778L187.16,66.778L187.808,66.778L188.381,66.778L188.988,66.778L190.212,66.778L190.827,66.778L191.478,66.778L192.05,66.778L192.658,66.778L193.886,66.778L194.51,66.778L195.164,66.778L195.731,66.778L196.331,66.778L197.555,66.778L198.178,66.778L198.834,66.778L199.399,66.778L199.999,66.778" stroke="#eeca3b" stroke-width="2"/></g></g><path class="foreground" aria-hidden="true" d="" display="none"/></g><g transform="translate(0,0)"><path class="background" aria-hidden="true" d="M0,0h200v200h-200Z"/><g><g class="mark-line role-mark marks" role="graphics-object" aria-roledescription="line mark container"><path aria-label="Time: Aug 20, 2025; Price: 999; identifier: rove-2" role="graphics-symbol" aria-roledescription="line mark" d="M23.01,89L23.282,89L23.884,89L25.109,89L25.729,89L26.384,89L26.953,89L27.551,89L28.779,89L29.397,89L30.052,89L30.618,89L31.218,89L32.446,89L33.061,89L33.709,89L34.278,89L34.884,89L36.119,89L36.728,89L37.381,89L37.952,89L38.554,89L39.794,89L40.413,89L41.082,89L41.63,89L42.227,89L43.457,89L44.08,89L45.296,89L45.893,89L47.122,89L47.742,89L47.983,89L48.395,89L48.804,89L48.964,89L49.565,89L50.79,89L51.412,89L52.066,89L52.633,89L53.232,89L54.46,89L55.079,89L55.731,89L56.301,89L56.9,89L60.538,111.222L60.567,111.222L61.795,111.222L62.187,111.222L62.407,111.222L63.06,111.222L63.632,111.222L64.237,111.222L65.476,111.222L66.093,111.222L66.744,111.222L67.306,111.222L67.905,111.222L69.14,111.222L69.76,111.222L70.416,111.222L70.978,111.222L71.577,111.222L72.804,111.222L73.423,111.222L74.077,111.222L74.645,111.222L75.245,111.222L76.472,111.222L77.094,111.222L77.743,111.222L78.317,111.222L78.913,111.222L80.143,111.222L80.762,111.222L81.414,111.222L81.979,111.222L82.584,111.222L83.808,111.222L84.123,111.222L84.42,111.222L85.068,111.222L85.642,111.222L86.251,111.222L87.476,111.222L88.089,111.222L88.739,111.222L89.312,111.222L89.92,111.222L91.152,111.222L91.776,111.222L92.43,111.222L92.994,111.222L93.595,111.222L94.819,111.222L95.443,111.222L96.12,111.222L96.665,111.222L97.26,111.222L98.483,111.222L99.109,111.222L99.76,111.222L100.329,111.222L100.931,111.222L102.158,111.222L102.777,111.222L103.427,111.222L103.991,111.222L104.597,111.222L105.824,111.222L106.445,111.222L107.095,111.222L107.662,111.222L108.266,111.222L109.491,111.222L110.105,111.222L110.753,111.222L111.324,111.222L111.935,111.222L113.161,111.222L113.774,111.222L114.42,111.222L114.992,111.222L115.604,111.222L116.836,111.222L117.455,111.222L118.111,111.222L118.676,111.222L119.276,111.222L120.503,111.222L121.127,111.222L121.779,111.222L122.344,111.222L122.946,111.222L124.173,111.222L124.793,111.222L125.448,111.222L126.014,111.222L126.614,111.222L127.842,111.222L128.462,111.222L129.117,111.222L129.681,111.222L130.284,111.222L131.511,111.222L132.131,111.222L132.784,111.222L133.352,111.222L133.951,111.222L135.178,111.222L135.793,111.222L136.442,111.222L137.01,111.222L137.619,111.222L138.848,111.222L139.46,111.222L140.11,111.222L140.682,111.222L141.29,111.222L142.519,111.222L143.144,111.222L143.797,111.222L144.354,111.222L144.962,111.222L146.187,111.222L146.81,111.222L147.463,111.222L148.031,111.222L148.631,111.222L149.858,111.222L150.481,111.222L151.133,111.222L151.703,111.222L152.298,111.222L153.527,111.222L154.151,111.222L154.805,111.222L155.371,111.222L155.966,111.222L157.195,111.222L157.818,111.222L158.47,111.222L159.037,111.222L159.636,111.222L160.863,111.222L161.475,111.222L162.124,111.222L162.696,111.222L163.305,111.222L164.532,111.222L165.144,111.222L165.795,111.222L166.363,111.222L166.973,111.222L168.205,111.222L168.83,111.222L169.483,111.222L170.032,111.222L170.645,111.222L171.873,111.222L172.5,111.222L173.152,111.222L173.714,111.222L174.314,111.222L175.544,111.222L176.167,111.222L176.822,111.222L177.385,111.222L177.984,111.222L179.209,111.222L179.83,111.222L180.481,111.222L181.053,111.222L181.651,111.222L182.877,111.222L183.499,111.222L184.149,111.222L184.72,111.222L185.32,111.222L186.545,111.222L187.16,111.222L187.808,111.222L188.381,111.222L188.988,111.222L190.212,111.222L190.827,111.222L191.478,111.222L192.05,111.222L192.658,111.222L193.887,111.222L194.51,111.222L195.165,111.222L195.731,111.222L196.331,111.222L197.555,111.222L198.178,111.222L198.834,111.222L199.399,111.222L199.999,111.222" stroke="#72b7b2" stroke-width="2"/></g></g><path class="foreground" aria-hidden="true" d="" display="none"/></g><g transform="translate(0,0)"><path class="background" aria-hidden="true" d="M0,0h200v200h-200Z"/><g><g class="mark-line role-mark marks" role="graphics-object" aria-roledescription="line mark container"><path aria-label="Time: Aug 27, 2025; Price: 1199; identifier: allure-rs-1-2023" role="graphics-symbol" aria-roledescription="line mark" d="M47.983,66.778L48.395,66.778L48.804,66.778L48.965,66.778L49.565,66.778L50.79,66.778L51.412,66.778L52.066,66.778L52.633,66.778L53.233,66.778L54.46,66.778L55.079,66.778L55.731,66.778L56.301,66.778L56.9,66.778L58.125,66.778L58.74,66.778L59.389,66.778L59.961,66.778L60.538,66.778L60.567,66.778L61.795,66.778L62.187,66.778L62.407,66.778L63.06,66.778L63.632,66.778L64.237,66.778L65.476,66.778L66.093,66.778L66.744,66.778L67.306,66.778L67.906,66.778L69.14,66.778L69.76,66.778L70.416,66.778L70.978,66.778L71.577,66.778L72.804,66.778L73.423,66.778L74.077,66.778L74.645,66.778L75.245,66.778L76.472,66.778L77.094,66.778L77.743,66.778L78.317,66.778L78.914,66.778L80.143,66.778L80.762,66.778L81.414,66.778L81.979,66.778L82.584,66.778L83.808,66.778L84.123,66.778L84.421,66.778L85.068,66.778L85.642,66.778L86.251,66.778L87.476,66.778L88.089,66.778L88.739,66.778L89.312,66.778L89.92,66.778L91.152,66.778L91.776,66.778L92.43,66.778L92.994,66.778L93.595,66.778L94.82,66.778L95.444,66.778L96.12,66.778L96.665,66.778L97.26,66.778L98.484,66.778L99.109,66.778L99.76,66.778L100.329,66.778L100.931,66.778L102.158,66.778L102.777,66.778L103.427,66.778L103.991,66.778L104.597,66.778L105.824,66.778L106.445,66.778L107.095,66.778L107.662,66.778L108.266,66.778L109.491,66.778L110.105,66.778L110.753,66.778L111.324,66.778L111.935,66.778L113.161,66.778L113.775,66.778L114.42,66.778L114.992,66.778L115.604,66.778L116.837,66.778L117.455,66.778L118.111,66.778L118.676,66.778L119.276,66.778L120.503,66.778L121.127,66.778L121.779,66.778L122.344,66.778L122.946,66.778L124.173,66.778L124.794,66.778L125.449,66.778L126.014,66.778L126.614,66.778L127.842,66.778L128.462,66.778L129.117,66.778L129.681,66.778L130.284,66.778L131.511,66.778L132.131,66.778L132.784,66.778L133.352,66.778L133.951,66.778L135.178,66.778L135.794,66.778L136.442,66.778L137.01,66.778L137.619,66.778L138.848,66.778L139.46,66.778L140.11,66.778L140.682,66.778L141.29,66.778L142.519,66.778L143.144,66.778L143.797,66.778L144.354,66.778L144.962,66.778L146.187,66.778L146.81,66.778L147.463,66.778L148.032,66.778L148.631,66.778L149.858,66.778L150.481,66.778L151.133,66.778L151.703,66.778L152.298,66.778L153.527,66.778L154.151,66.778L154.805,66.778L155.371,66.778L155.966,66.778L157.195,66.778L157.818,66.778L158.47,66.778L159.037,66.778L159.636,66.778L160.863,66.778L161.475,66.778L162.125,66.778L162.697,66.778L163.305,66.778L164.532,66.778L165.144,66.778L165.795,66.778L166.363,66.778L166.973,66.778L168.205,66.778L168.83,66.778L169.483,66.778L170.032,66.778L170.645,66.778L171.873,66.778L172.501,66.778L173.152,66.778L173.714,66.778L174.314,66.778L175.544,66.778L176.167,66.778L176.822,66.778L177.385,66.778L177.984,66.778L179.209,66.778L179.83,66.778L180.481,66.778L181.053,66.778L181.651,66.778L182.877,66.778L183.499,66.778L184.149,66.778L184.72,66.778L185.32,66.778L186.545,66.778L187.16,66.778L187.808,66.778L188.381,66.778L188.989,66.778L190.212,66.778L190.827,66.778L191.478,66.778L192.05,66.778L192.658,66.778L193.887,66.778L194.51,66.778L195.165,66.778L195.731,66.778L196.331,66.778L197.555,66.778L198.178,66.778L198.834,66.778L199.399,66.778L199.999,66.778" stroke="#b279a2" stroke-width="2"/></g></g><path class="foreground" aria-hidden="true" d="" display="none"/></g><g transform="translate(0,0)"><path class="background" aria-hidden="true" d="M0,0h200v200h-200Z"/><g><g class="mark-line role-mark marks" role="graphics-object" aria-roledescription="line mark container"><path aria-label="Time: Aug 27, 2025; Price: 999; identifier: allure-rs-2-2022" role="graphics-symbol" aria-roledescription="line mark" d="M47.983,89L48.395,89L48.804,89L48.965,89L49.565,89L50.79,89L51.413,89L52.066,89L52.633,89L53.233,89L54.46,89L55.079,89L55.731,89L56.301,89L56.9,89L60.538,111.222L60.567,111.222L61.795,111.222L62.187,111.222L62.407,111.222L63.06,111.222L63.632,111.222L64.237,111.222L65.476,111.222L66.093,111.222L66.744,111.222L67.306,111.222L67.906,111.222L69.14,111.222L69.76,111.222L70.416,111.222L70.978,111.222L71.577,111.222L72.804,111.222L73.423,111.222L74.077,111.222L74.645,111.222L75.245,111.222L76.472,111.222L77.094,111.222L77.743,111.222L78.317,111.222L78.914,111.222L80.143,111.222L80.762,111.222L81.414,111.222L81.979,111.222L82.584,111.222L83.808,111.222L84.123,111.222L84.421,111.222L85.068,111.222L85.642,111.222L86.251,111.222L87.476,111.222L88.089,111.222L88.739,111.222L89.312,111.222L89.92,111.222L91.152,111.222L91.776,111.222L92.43,111.222L92.994,111.222L93.595,111.222L94.82,111.222L95.444,111.222L96.12,111.222L96.666,111.222L97.26,111.222L98.484,111.222L99.109,111.222L99.76,111.222L100.329,111.222L100.931,111.222L102.158,111.222L102.777,111.222L103.427,111.222L103.991,111.222L104.597,111.222L105.824,111.222L106.445,111.222L107.095,111.222L107.662,111.222L108.266,111.222L109.491,111.222L110.105,111.222L110.753,111.222L111.324,111.222L111.935,111.222L113.161,111.222L113.775,111.222L114.42,111.222L114.992,111.222L115.605,111.222L116.837,111.222L117.455,111.222L118.111,111.222L118.676,111.222L119.276,111.222L120.503,111.222L121.128,111.222L121.779,111.222L122.344,111.222L122.946,111.222L124.173,111.222L124.794,111.222L125.449,111.222L126.014,111.222L126.614,111.222L127.842,111.222L128.462,111.222L129.117,111.222L129.681,111.222L130.284,111.222L131.511,111.222L132.131,111.222L132.784,111.222L133.352,111.222L133.951,111.222L135.178,111.222L135.794,111.222L136.443,111.222L137.01,111.222L137.619,111.222L138.848,111.222L139.46,111.222L140.111,111.222L140.682,111.222L141.29,111.222L142.519,111.222L143.144,111.222L143.797,111.222L144.354,111.222L144.962,111.222L146.187,111.222L146.81,111.222L147.463,111.222L148.032,111.222L148.631,111.222L149.858,111.222L150.481,111.222L151.133,111.222L151.703,111.222L152.298,111.222L153.527,111.222L154.151,111.222L154.805,111.222L155.372,111.222L155.966,111.222L157.195,111.222L157.818,111.222L158.47,111.222L159.037,111.222L159.636,111.222L160.863,111.222L161.475,111.222L162.125,111.222L162.697,111.222L163.305,111.222L164.533,111.222L165.145,111.222L165.795,111.222L166.363,111.222L166.973,111.222L168.205,111.222L168.83,111.222L169.483,111.222L170.032,111.222L170.645,111.222L171.873,111.222L172.501,111.222L173.152,111.222L173.714,111.222L174.315,111.222L175.544,111.222L176.167,111.222L176.822,111.222L177.385,111.222L177.984,111.222L179.209,111.222L179.83,111.222L180.481,111.222L181.053,111.222L181.651,111.222L182.877,111.222L183.499,111.222L184.149,111.222L184.72,111.222L185.32,111.222L186.545,111.222L187.16,111.222L187.808,111.222L188.381,111.222L188.989,111.222L190.212,111.222L190.827,111.222L191.478,111.222L192.05,111.222L192.659,111.222L193.887,111.222L194.51,111.222L195.165,111.222L195.731,111.222L196.331,111.222L197.556,111.222L198.178,111.222L198.835,111.222L199.4,111.222L199.999,111.222" stroke="#54a24b" stroke-width="2"/></g></g><path class="foreground" aria-hidden="true" d="" display="none"/></g><g transform="translate(0,0)"><path class="background" aria-hidden="true" d="M0,0h200v200h-200Z"/><g><g class="mark-line role-mark marks" role="graphics-object" aria-roledescription="line mark container"><path aria-label="Time: Aug 27, 2025; Price: 949; identifier: allure-rs-2-2023" role="graphics-symbol" aria-roledescription="line mark" d="M47.983,94.556L48.395,94.556L48.804,94.556L48.965,94.556L49.565,94.556L50.79,94.556L51.413,94.556L52.066,94.556L52.633,94.556L53.233,94.556L54.46,94.556L55.079,94.556L55.731,94.556L56.301,94.556L56.9,94.556L58.125,94.556L58.74,94.556L59.389,94.556L59.961,94.556L60.538,94.556L60.567,94.556L61.796,94.556L62.187,94.556L62.407,94.556L63.06,94.556L63.632,94.556L64.237,94.556L65.476,94.556L66.093,94.556L66.744,94.556L67.306,94.556L67.906,94.556L69.14,94.556L69.76,94.556L70.416,94.556L70.978,94.556L71.577,94.556L72.804,94.556L73.423,94.556L74.077,94.556L74.645,94.556L75.245,94.556L76.473,94.556L77.094,94.556L77.743,94.556L78.317,94.556L78.914,94.556L80.143,94.556L80.762,94.556L81.414,94.556L81.979,94.556L82.584,94.556L83.808,94.556L84.123,94.556L84.421,94.556L85.068,94.556L85.642,94.556L86.251,94.556L87.476,94.556L88.089,94.556L88.739,94.556L89.312,94.556L89.92,94.556L91.152,94.556L91.776,94.556L92.43,94.556L92.994,94.556L93.595,94.556L94.82,94.556L95.444,94.556L96.12,94.556L96.666,94.556L97.26,94.556L98.484,94.556L99.109,94.556L99.76,94.556L100.329,94.556L100.931,94.556L102.158,94.556L102.777,94.556L103.427,94.556L103.991,94.556L104.597,94.556L105.824,94.556L106.445,94.556L107.095,94.556L107.662,94.556L108.266,94.556L109.491,94.556L110.105,94.556L110.753,94.556L111.324,94.556L111.935,94.556L113.162,94.556L113.775,94.556L114.42,94.556L114.992,94.556L115.605,94.556L116.837,94.556L117.455,94.556L118.111,94.556L118.677,94.556L119.276,94.556L120.503,94.556L121.128,94.556L121.779,94.556L122.344,94.556L122.946,94.556L124.173,94.556L124.794,94.556L125.449,94.556L126.014,94.556L126.615,94.556L127.842,94.556L128.462,94.556L129.117,94.556L129.681,94.556L130.284,94.556L131.511,94.556L132.131,94.556L132.785,94.556L133.352,94.556L133.951,94.556L135.178,94.556L135.794,94.556L136.443,94.556L137.01,94.556L137.619,94.556L138.848,94.556L139.46,94.556L140.111,94.556L140.682,94.556L141.29,94.556L142.52,94.556L143.144,94.556L143.797,94.556L144.354,94.556L144.962,94.556L146.188,94.556L146.81,94.556L147.463,94.556L148.032,94.556L148.631,94.556L149.858,94.556L150.481,94.556L151.133,94.556L151.703,94.556L152.298,94.556L153.527,94.556L154.151,94.556L154.805,94.556L155.372,94.556L155.966,94.556L157.195,94.556L157.818,94.556L158.47,94.556L159.037,94.556L159.636,94.556L160.863,94.556L161.475,94.556L162.125,94.556L162.697,94.556L163.305,94.556L164.533,94.556L165.145,94.556L165.795,94.556L166.363,94.556L166.974,94.556L168.205,94.556L168.83,94.556L169.483,94.556L170.032,94.556L170.645,94.556L171.873,94.556L172.501,94.556L173.152,94.556L173.714,94.556L174.315,94.556L175.544,94.556L176.167,94.556L176.822,94.556L177.385,94.556L177.984,94.556L179.209,94.556L179.83,94.556L180.481,94.556L181.053,94.556L181.651,94.556L182.877,94.556L183.499,94.556L184.149,94.556L184.72,94.556L185.32,94.556L186.545,94.556L187.16,94.556L187.808,94.556L188.382,94.556L188.989,94.556L190.213,94.556L190.827,94.556L191.479,94.556L192.05,94.556L192.659,94.556L193.887,94.556L194.51,94.556L195.165,94.556L195.731,94.556L196.331,94.556L197.556,94.556L198.178,94.556L198.835,94.556L199.4,94.556L199.999,94.556" stroke="#bab0ac" stroke-width="2"/></g></g><path class="foreground" aria-hidden="true" d="" display="none"/></g><g transform="translate(0,0)"><path class="background" aria-hidden="true" d="M0,0h200v200h-200Z"/><g><g class="mark-line role-mark marks" role="graphics-object" aria-roledescription="line mark container"><path aria-label="Time: Aug 27, 2025; Price: 999; identifier: allure-rs-2-2024" role="graphics-symbol" aria-roledescription="line mark" d="M47.984,89L48.395,89L48.804,89L48.965,89L49.565,89L50.79,89L51.413,89L52.066,89L52.633,89L53.233,89L54.46,89L55.079,89L55.731,89L56.301,89L56.9,89L60.538,111.222L60.567,111.222L61.796,111.222L62.187,111.222L62.407,111.222L63.06,111.222L63.632,111.222L64.237,111.222L65.476,111.222L66.093,111.222L66.744,111.222L67.306,111.222L67.906,111.222L69.14,111.222L69.76,111.222L70.416,111.222L70.978,111.222L71.578,111.222L72.804,111.222L73.423,111.222L74.077,111.222L74.645,111.222L75.245,111.222L76.473,111.222L77.094,111.222L77.743,111.222L78.317,111.222L78.914,111.222L80.143,111.222L80.762,111.222L81.414,111.222L81.979,111.222L82.584,111.222L83.808,111.222L84.123,111.222L84.421,111.222L85.068,111.222L85.642,111.222L86.251,111.222L87.476,111.222L88.09,111.222L88.739,111.222L89.312,111.222L89.92,111.222L91.152,111.222L91.776,111.222L92.431,111.222L92.994,111.222L93.595,111.222L94.82,111.222L95.444,111.222L96.12,111.222L96.666,111.222L97.26,111.222L98.484,111.222L99.109,111.222L99.76,111.222L100.329,111.222L100.931,111.222L102.158,111.222L102.777,111.222L103.427,111.222L103.991,111.222L104.597,111.222L105.824,111.222L106.445,111.222L107.095,111.222L107.662,111.222L108.266,111.222L109.491,111.222L110.105,111.222L110.753,111.222L111.324,111.222L111.935,111.222L113.162,111.222L113.775,111.222L114.42,111.222L114.992,111.222L115.605,111.222L116.837,111.222L117.455,111.222L118.111,111.222L118.677,111.222L119.277,111.222L120.503,111.222L121.128,111.222L121.779,111.222L122.344,111.222L122.946,111.222L124.173,111.222L124.794,111.222L125.449,111.222L126.014,111.222L126.615,111.222L127.842,111.222L128.462,111.222L129.117,111.222L129.681,111.222L130.284,111.222L131.511,111.222L132.131,111.222L132.785,111.222L133.352,111.222L133.951,111.222L135.178,111.222L135.794,111.222L136.443,111.222L137.01,111.222L137.619,111.222L138.848,111.222L139.46,111.222L140.111,111.222L140.683,111.222L141.29,111.222L142.52,111.222L143.144,111.222L143.797,111.222L144.354,111.222L144.962,111.222L146.188,111.222L146.81,111.222L147.463,111.222L148.032,111.222L148.631,111.222L149.858,111.222L150.481,111.222L151.133,111.222L151.704,111.222L152.298,111.222L153.527,111.222L154.151,111.222L154.806,111.222L155.372,111.222L155.966,111.222L157.195,111.222L157.818,111.222L158.47,111.222L159.037,111.222L159.636,111.222L160.863,111.222L161.475,111.222L162.125,111.222L162.697,111.222L163.305,111.222L164.533,111.222L165.145,111.222L165.795,111.222L166.363,111.222L166.974,111.222L168.205,111.222L168.83,111.222L169.483,111.222L170.032,111.222L170.645,111.222L171.873,111.222L172.501,111.222L173.152,111.222L173.714,111.222L174.315,111.222L175.544,111.222L176.167,111.222L176.822,111.222L177.385,111.222L177.984,111.222L179.209,111.222L179.83,111.222L180.482,111.222L181.053,111.222L181.651,111.222L182.877,111.222L183.499,111.222L184.149,111.222L184.72,111.222L185.32,111.222L186.545,111.222L187.161,111.222L187.808,111.222L188.382,111.222L188.989,111.222L190.213,111.222L190.827,111.222L191.479,111.222L192.05,111.222L192.659,111.222L193.887,111.222L194.51,111.222L195.165,111.222L195.731,111.222L196.331,111.222L197.556,111.222L198.178,111.222L198.835,111.222L199.4,111.222L200,111.222" stroke="#eeca3b" stroke-width="2"/></g></g><path class="foreground" aria-hidden="true" d="" display="none"/></g><g transform="translate(0,0)"><path class="background" aria-hidden="true" d="M0,0h200v200h-200Z"/><g><g class="mark-line role-mark marks" role="graphics-object" aria-roledescription="line mark container"><path aria-label="Time: Aug 27, 2025; Price: 1799; identifier: devote-1-2024" role="graphics-symbol" aria-roledescription="line mark" d="M48.804,0.111L48.965,0.111L49.565,0.111L50.791,0.111L51.413,0.111L52.066,0.111L52.633,0.111L53.233,0.111L54.46,0.111L55.079,0.111L55.731,0.111L56.301,0.111L56.9,0.111L60.539,44.556L60.567,44.556L61.796,44.556L62.187,44.556L62.408,44.556L63.06,44.556L63.633,44.556L64.237,44.556L65.477,44.556L66.093,44.556L66.745,44.556L67.307,44.556L67.906,44.556L69.14,44.556L69.76,44.556L70.416,44.556L70.978,44.556L71.578,44.556L72.804,44.556L73.424,44.556L74.077,44.556L74.645,44.556L75.245,44.556L76.473,44.556L77.094,44.556L77.743,44.556L78.317,44.556L78.914,44.556L80.143,44.556L80.762,44.556L81.414,44.556L81.979,44.556L82.584,44.556L83.809,44.556L84.123,44.556L84.421,44.556L85.068,44.556L85.642,44.556L86.251,44.556L87.477,44.556L88.09,44.556L88.74,44.556L89.312,44.556L89.92,44.556L91.152,44.556L91.776,44.556L92.431,44.556L92.994,44.556L93.595,44.556L94.82,44.556L95.444,44.556L96.121,44.556L96.666,44.556L97.26,44.556L98.484,44.556L99.11,44.556L99.76,44.556L100.329,44.556L100.931,44.556L102.158,44.556L102.777,44.556L103.428,44.556L103.991,44.556L104.597,44.556L105.824,44.556L106.445,44.556L107.095,44.556L107.662,44.556L108.266,44.556L109.491,44.556L110.105,44.556L110.753,44.556L111.324,44.556L111.936,44.556L113.162,44.556L113.775,44.556L114.42,44.556L114.992,44.556L115.605,44.556L116.837,44.556L117.455,44.556L118.111,44.556L118.678,44.556L119.277,44.556L120.503,44.556L121.128,44.556L121.779,44.556L122.344,44.556L122.946,44.556L124.174,44.556L124.794,44.556L125.449,44.556L126.014,44.556L126.615,44.556L127.842,44.556L128.462,44.556L129.117,44.556L129.681,44.556L130.284,44.556L131.511,44.556L132.131,44.556L132.785,44.556L133.352,44.556L133.951,44.556L135.178,44.556L135.794,44.556L136.443,44.556L137.01,44.556L137.619,44.556L138.848,44.556L139.46,44.556L140.111,44.556L140.683,44.556L141.29,44.556L142.52,44.556L143.144,44.556L143.797,44.556L144.354,44.556L144.963,44.556L146.188,44.556L146.81,44.556L147.463,44.556L148.032,44.556L148.631,44.556L149.858,44.556L150.481,44.556L151.133,44.556L151.704,44.556L152.298,44.556L153.527,44.556L154.151,44.556L154.806,44.556L155.372,44.556L155.966,44.556L157.195,44.556L157.819,44.556L158.471,44.556L159.037,44.556L159.636,44.556L160.863,44.556L161.475,44.556L162.125,44.556L162.697,44.556L163.306,44.556L164.533,44.556L165.145,44.556L165.796,44.556L166.363,44.556L166.974,44.556L168.206,44.556L168.83,44.556L169.484,44.556L170.033,44.556L170.645,44.556L171.873,44.556L172.501,44.556L173.152,44.556L173.714,44.556L174.315,44.556L175.544,44.556L176.167,44.556L176.822,44.556L177.385,44.556L177.984,44.556L179.209,44.556L179.83,44.556L180.482,44.556L181.053,44.556L181.652,44.556L182.877,44.556L183.499,44.556L184.149,44.556L184.72,44.556L185.32,44.556L186.545,44.556L187.161,44.556L187.808,44.556L188.382,44.556L188.989,44.556L190.213,44.556L190.828,44.556L191.479,44.556L192.05,44.556L192.659,44.556L193.887,44.556L194.51,44.556L195.165,44.556L195.731,44.556L196.331,44.556L197.556,44.556L198.178,44.556L198.835,44.556L199.4,44.556L200,44.556" stroke="#72b7b2" stroke-width="2"/></g></g><path class="foreground" aria-hidden="true" d="" display="none"/></g><g transform="translate(0,0)"><path class="background" aria-hidden="true" d="M0,0h200v200h-200Z"/><g><g class="mark-line role-mark marks" role="graphics-object" aria-roledescription="line mark container"><path aria-label="Time: Aug 27, 2025; Price: 1699; identifier: devote-1-2022" role="graphics-symbol" aria-roledescription="line mark" d="M48.804,11.222L48.965,11.222L49.565,11.222L50.791,11.222L51.413,11.222L52.066,11.222L52.633,11.222L53.233,11.222L54.46,11.222L55.079,11.222L55.731,11.222L56.301,11.222L56.9,11.222L58.125,11.222L58.74,11.222L59.389,11.222L59.961,11.222L60.539,11.222L60.567,11.222L61.796,11.222L62.188,11.222L62.408,11.222L63.06,11.222L63.633,11.222L64.237,11.222L65.477,11.222L66.093,11.222L66.745,11.222L67.307,11.222L67.906,11.222L69.14,11.222L69.76,11.222L70.416,11.222L70.978,11.222L71.578,11.222L72.804,11.222L73.424,11.222L74.077,11.222L74.645,11.222L75.245,11.222L76.473,11.222L77.094,11.222L77.743,11.222L78.317,11.222L78.914,11.222L80.143,11.222L80.763,11.222L81.414,11.222L81.98,11.222L82.584,11.222L83.809,11.222L84.123,11.222L84.421,11.222L85.068,11.222L85.643,11.222L86.251,11.222L87.477,11.222L88.09,11.222L88.74,11.222L89.312,11.222L89.92,11.222L91.152,11.222L91.776,11.222L92.431,11.222L92.994,11.222L93.595,11.222L94.82,11.222L95.444,11.222L96.121,11.222L96.666,11.222L97.26,11.222L98.484,11.222L99.11,11.222L99.76,11.222L100.329,11.222L100.931,11.222L102.158,11.222L102.777,11.222L103.428,11.222L103.991,11.222L104.597,11.222L105.824,11.222L106.445,11.222L107.095,11.222L107.662,11.222L108.266,11.222L109.491,11.222L110.106,11.222L110.753,11.222L111.324,11.222L111.936,11.222L113.162,11.222L113.775,11.222L114.42,11.222L114.992,11.222L115.605,11.222L116.837,11.222L117.455,11.222L118.112,11.222L118.678,11.222L119.278,11.222L120.503,11.222L121.128,11.222L121.78,11.222L122.344,11.222L122.946,11.222L124.174,11.222L124.794,11.222L125.449,11.222L126.014,11.222L126.615,11.222L127.842,11.222L128.462,11.222L129.117,11.222L129.681,11.222L130.284,11.222L131.512,11.222L132.131,11.222L132.785,11.222L133.352,11.222L133.951,11.222L135.178,11.222L135.794,11.222L136.443,11.222L137.01,11.222L137.619,11.222L138.849,11.222L139.46,11.222L140.111,11.222L140.683,11.222L141.29,11.222L142.52,11.222L143.144,11.222L143.797,11.222L144.354,11.222L144.963,11.222L146.188,11.222L146.81,11.222L147.464,11.222L148.032,11.222L148.632,11.222L149.858,11.222L150.481,11.222L151.133,11.222L151.704,11.222L152.298,11.222L153.528,11.222L154.151,11.222L154.806,11.222L155.372,11.222L155.967,11.222L157.195,11.222L157.819,11.222L158.471,11.222L159.038,11.222L159.636,11.222L160.864,11.222L161.475,11.222L162.125,11.222L162.697,11.222L163.306,11.222L164.533,11.222L165.145,11.222L165.796,11.222L166.363,11.222L166.974,11.222L168.206,11.222L168.83,11.222L169.484,11.222L170.033,11.222L170.645,11.222L171.873,11.222L172.501,11.222L173.152,11.222L173.714,11.222L174.315,11.222L175.545,11.222L176.167,11.222L176.822,11.222L177.385,11.222L177.985,11.222L179.209,11.222L179.83,11.222L180.482,11.222L181.053,11.222L181.652,11.222L182.877,11.222L183.499,11.222L184.149,11.222L184.721,11.222L185.32,11.222L186.545,11.222L187.161,11.222L187.808,11.222L188.382,11.222L188.989,11.222L190.213,11.222L190.828,11.222L191.479,11.222L192.051,11.222L192.659,11.222L193.887,11.222L194.51,11.222L195.165,11.222L195.731,11.222L196.331,11.222L197.556,11.222L198.178,11.222L198.835,11.222L199.4,11.222L200,11.222" stroke="#4c78a8" stroke-width="2"/></g></g><path class="foreground" aria-hidden="true" d="" display="none"/></g><g transform="translate(0,0)"><path class="background" aria-hidden="true" d="M0,0h200v200h-200Z"/><g><g class="mark-line role-mark marks" role="graphics-object" aria-roledescription="line mark container"><path aria-label="Time: Aug 31, 2025; Price: 1599; identifier: silex-400-oak-bork-2026" role="graphics-symbol" aria-roledescription="line mark" d="M62.188,22.333L62.408,22.333L63.06,22.333L63.633,22.333L64.238,22.333L65.477,22.333L66.094,22.333L66.745,22.333L67.307,22.333L67.906,22.333L69.14,22.333L69.76,22.333L70.416,22.333L70.978,22.333L71.578,22.333L72.805,22.333L73.424,22.333L74.077,22.333L74.646,22.333L75.246,22.333L76.473,22.333L77.094,22.333L77.743,22.333L78.318,22.333L78.914,22.333L80.143,22.333L80.763,22.333L81.414,22.333L81.98,22.333L82.584,22.333L83.809,22.333L84.123,22.333L84.421,22.333L85.069,22.333L85.643,22.333L86.252,22.333L87.477,22.333L88.09,22.333L88.74,22.333L89.312,22.333L89.921,22.333L91.152,22.333L91.777,22.333L92.431,22.333L92.994,22.333L93.595,22.333L94.82,22.333L95.444,22.333L96.121,22.333L96.666,22.333L97.26,22.333L98.484,22.333L99.11,22.333L99.76,22.333L100.329,22.333L100.931,22.333L102.158,22.333L102.778,22.333L103.428,22.333L103.991,22.333L104.597,22.333L105.825,22.333L106.446,22.333L107.096,22.333L107.662,22.333L108.266,22.333L109.491,22.333L110.106,22.333L110.754,22.333L111.324,22.333L111.936,22.333L113.162,22.333L113.775,22.333L114.42,22.333L114.993,22.333L115.605,22.333L116.837,22.333L117.456,22.333L118.112,22.333L118.678,22.333L119.278,22.333L120.503,22.333L121.128,22.333L121.78,22.333L122.344,22.333L122.946,22.333L124.174,22.333L124.794,22.333L125.449,22.333L126.015,22.333L126.615,22.333L127.842,22.333L128.462,22.333L129.117,22.333L129.682,22.333L130.285,22.333L131.512,22.333L132.132,22.333L132.785,22.333L133.353,22.333L133.951,22.333L135.178,22.333L135.794,22.333L136.443,22.333L137.011,22.333L137.62,22.333L138.849,22.333L139.46,22.333L140.111,22.333L140.683,22.333L141.29,22.333L142.52,22.333L143.145,22.333L143.797,22.333L144.355,22.333L144.963,22.333L146.188,22.333L146.811,22.333L147.464,22.333L148.032,22.333L148.632,22.333L149.858,22.333L150.481,22.333L151.134,22.333L151.704,22.333L152.298,22.333L153.528,22.333L154.152,22.333L154.806,22.333L155.372,22.333L155.967,22.333L157.195,22.333L157.819,22.333L158.471,22.333L159.038,22.333L159.637,22.333L160.864,22.333L161.475,22.333L162.125,22.333L162.697,22.333L163.306,22.333L164.533,22.333L165.145,22.333L165.796,22.333L166.363,22.333L166.974,22.333L168.206,22.333L168.83,22.333L169.484,22.333L170.033,22.333L170.646,22.333L171.873,22.333L172.501,22.333L173.152,22.333L173.715,22.333L174.316,22.333L175.545,22.333L176.167,22.333L176.822,22.333L177.385,22.333L177.985,22.333L179.209,22.333L179.83,22.333L180.482,22.333L181.054,22.333L181.652,22.333L182.877,22.333L183.499,22.333L184.15,22.333L184.721,22.333L185.32,22.333L186.545,22.333L187.161,22.333L187.809,22.333L188.382,22.333L188.989,22.333L190.213,22.333L190.828,22.333L191.479,22.333L192.051,22.333L192.66,22.333L193.887,22.333L194.511,22.333L195.165,22.333L195.731,22.333L196.332,22.333L197.556,22.333L198.178,22.333L198.835,22.333L199.4,22.333L200,22.333" stroke="#f58518" stroke-width="2"/></g></g><path class="foreground" aria-hidden="true" d="" display="none"/></g><g transform="translate(0,0)"><path class="background" aria-hidden="true" d="M0,0h200v200h-200Z"/><g><g class="mark-line role-mark marks" role="graphics-object" aria-roledescription="line mark container"><path aria-label="Time: Aug 31, 2025; Price: 1599; identifier: silex-400-warm-slate-grey-2026" role="graphics-symbol" aria-roledescription="line mark" d="M62.188,22.333L62.408,22.333L63.06,22.333L63.633,22.333L64.238,22.333L65.477,22.333L66.094,22.333L66.745,22.333L67.307,22.333L67.906,22.333L69.14,22.333L69.761,22.333L70.417,22.333L70.978,22.333L71.578,22.333L72.805,22.333L73.424,22.333L74.078,22.333L74.646,22.333L75.246,22.333L76.473,22.333L77.095,22.333L77.743,22.333L78.318,22.333L78.914,22.333L80.144,22.333L80.763,22.333L81.415,22.333L81.98,22.333L82.585,22.333L83.809,22.333L84.124,22.333L84.421,22.333L85.069,22.333L85.643,22.333L86.252,22.333L87.477,22.333L88.09,22.333L88.74,22.333L89.312,22.333L89.921,22.333L91.153,22.333L91.777,22.333L92.431,22.333L92.995,22.333L93.595,22.333L94.82,22.333L95.444,22.333L96.121,22.333L96.666,22.333L97.261,22.333L98.484,22.333L99.11,22.333L99.76,22.333L100.33,22.333L100.932,22.333L102.159,22.333L102.778,22.333L103.428,22.333L103.992,22.333L104.597,22.333L105.825,22.333L106.446,22.333L107.096,22.333L107.662,22.333L108.266,22.333L109.492,22.333L110.106,22.333L110.754,22.333L111.325,22.333L111.936,22.333L113.162,22.333L113.775,22.333L114.42,22.333L114.993,22.333L115.605,22.333L116.837,22.333L117.456,22.333L118.112,22.333L118.678,22.333L119.278,22.333L120.503,22.333L121.128,22.333L121.78,22.333L122.345,22.333L122.947,22.333L124.174,22.333L124.794,22.333L125.449,22.333L126.015,22.333L126.615,22.333L127.843,22.333L128.462,22.333L129.117,22.333L129.682,22.333L130.285,22.333L131.512,22.333L132.132,22.333L132.785,22.333L133.353,22.333L133.952,22.333L135.178,22.333L135.794,22.333L136.443,22.333L137.011,22.333L137.62,22.333L138.849,22.333L139.461,22.333L140.111,22.333L140.683,22.333L141.291,22.333L142.52,22.333L143.145,22.333L143.798,22.333L144.355,22.333L144.963,22.333L146.188,22.333L146.811,22.333L147.464,22.333L148.032,22.333L148.632,22.333L149.859,22.333L150.481,22.333L151.135,22.333L151.704,22.333L152.298,22.333L153.528,22.333L154.152,22.333L154.806,22.333L155.372,22.333L155.967,22.333L157.195,22.333L157.819,22.333L158.471,22.333L159.038,22.333L159.637,22.333L160.864,22.333L161.476,22.333L162.125,22.333L162.697,22.333L163.306,22.333L164.533,22.333L165.145,22.333L165.796,22.333L166.364,22.333L166.974,22.333L168.206,22.333L168.83,22.333L169.484,22.333L170.033,22.333L170.646,22.333L171.873,22.333L172.501,22.333L173.153,22.333L173.715,22.333L174.316,22.333L175.545,22.333L176.168,22.333L176.822,22.333L177.385,22.333L177.985,22.333L179.209,22.333L179.83,22.333L180.482,22.333L181.054,22.333L181.652,22.333L182.877,22.333L183.5,22.333L184.15,22.333L184.721,22.333L185.321,22.333L186.546,22.333L187.161,22.333L187.809,22.333L188.382,22.333L188.989,22.333L190.213,22.333L190.828,22.333L191.479,22.333L192.051,22.333L192.66,22.333L193.887,22.333L194.511,22.333L195.165,22.333L195.731,22.333L196.332,22.333L197.556,22.333L198.179,22.333L198.835,22.333L199.4,22.333L200,22.333" stroke="#e45756" stroke-width="2"/></g></g><path class="foreground" aria-hidden="true" d="" display="none"/></g></g><g class="mark-group role-legend" role="graphics-symbol" aria-roledescription="legend" aria-label="Symbol legend titled 'identifier' for stroke color with 16 values: devote-1-2022, silex-400-oak-bork-2026, silex-400-warm-slate-grey-2026, devote-1-2024, fastroad-ar-2, ending with allure-rs-2-2024"><g transform="translate(220,0)"><path class="background" aria-hidden="true" d="M0,0h256v222h-256Z" pointer-events="none"/><g><g class="mark-group role-legend-entry"><g transform="translate(0,16)"><path class="background" aria-hidden="true" d="M0,0h0v0h0Z" pointer-events="none"/><g><g class="mark-group role-scope" role="graphics-object" aria-roledescription="group mark container"><g transform="translate(0,0)"><path class="background" aria-hidden="true" d="M0,0h256v11h-256Z" pointer-events="none" opacity="1"/><g><g class="mark-symbol role-legend-symbol" pointer-events="none"><path transform="translate(6,6)" d="M-5,0L5,0" stroke="#4c78a8" stroke-width="1.5" opacity="1"/></g><g class="mark-text role-legend-label" pointer-events="none"><text text-anchor="start" transform="translate(16,9)" font-family="Liberation Mono" font-size="10px" fill="#000" opacity="1">devote-1-2022</text></g></g><path class="foreground" aria-hidden="true" d="" pointer-events="none" display="none"/></g><g transform="translate(0,13)"><path class="background" aria-hidden="true" d="M0,0h256v11h-256Z" pointer-events="none" opacity="1"/><g><g class="mark-symbol role-legend-symbol" pointer-events="none"><path transform="translate(6,6)" d="M-5,0L5,0" stroke="#f58518" stroke-width="1.5" opacity="1"/></g><g class="mark-text role-legend-label" pointer-events="none"><text text-anchor="start" transform="translate(16,9)" font-family="Liberation Mono" font-size="10px" fill="#000" opacity="1">silex-400-oak-bork-2026</text></g></g><path class="foreground" aria-hidden="true" d="" pointer-events="none" display="none"/></g><g transform="translate(0,26)"><path class="background" aria-hidden="true" d="M0,0h256v11h-256Z" pointer-events="none" opacity="1"/><g><g class="mark-symbol role-legend-symbol" pointer-events="none"><path transform="translate(6,6)" d="M-5,0L5,0" stroke="#e45756" stroke-width="1.5" opacity="1"/></g><g class="mark-text role-legend-label" pointer-events="none"><text text-anchor="start" transform="translate(16,9)" font-family="Liberation Mono" font-size="10px" fill="#000" opacity="1">silex-400-warm-slate-grey-2026</text></g></g><path class="foreground" aria-hidden="true" d="" pointer-events="none" display="none"/></g><g transform="translate(0,39)"><path class="background" aria-hidden="true" d="M0,0h256v11h-256Z" pointer-events="none" opacity="1"/><g><g class="mark-symbol role-legend-symbol" pointer-events="none"><path transform="translate(6,6)" d="M-5,0L5,0" stroke="#72b7b2" stroke-width="1.5" opacity="1"/></g><g class="mark-text role-legend-label" pointer-events="none"><text text-anchor="start" transform="translate(16,9)" font-family="Liberation Mono" font-size="10px" fill="#000" opacity="1">devote-1-2024</text></g></g><path class="foreground" aria-hidden="true" d="" pointer-events="none" display="none"/></g><g transform="translate(0,52)"><path class="background" aria-hidden="true" d="M0,0h256v11h-256Z" pointer-events="none" opacity="1"/><g><g class="mark-symbol role-legend-symbol" pointer-events="none"><path transform="translate(6,6)" d="M-5,0L5,0" stroke="#54a24b" stroke-width="1.5" opacity="1"/></g><g class="mark-text role-legend-label" pointer-events="none"><text text-anchor="start" transform="translate(16,9)" font-family="Liberation Mono" font-size="10px" fill="#000" opacity="1">fastroad-ar-2</text></g></g><path class="foreground" aria-hidden="true" d="" pointer-events="none" display="none"/></g><g transform="translate(0,65)"><path class="background" aria-hidden="true" d="M0,0h256v11h-256Z" pointer-events="none" opacity="1"/><g><g class="mark-symbol role-legend-symbol" pointer-events="none"><path transform="translate(6,6)" d="M-5,0L5,0" stroke="#eeca3b" stroke-width="1.5" opacity="1"/></g><g class="mark-text role-legend-label" pointer-events="none"><text text-anchor="start" transform="translate(16,9)" font-family="Liberation Mono" font-size="10px" fill="#000" opacity="1">thrive-2</text></g></g><path class="foreground" aria-hidden="true" d="" pointer-events="none" display="none"/></g><g transform="translate(0,78)"><path class="background" aria-hidden="true" d="M0,0h256v11h-256Z" pointer-events="none" opacity="1"/><g><g class="mark-symbol role-legend-symbol" pointer-events="none"><path transform="translate(6,6)" d="M-5,0L5,0" stroke="#b279a2" stroke-width="1.5" opacity="1"/></g><g class="mark-text role-legend-label" pointer-events="none"><text text-anchor="start" transform="translate(16,9)" font-family="Liberation Mono" font-size="10px" fill="#000" opacity="1">allure-rs-1-2023</text></g></g><path class="foreground" aria-hidden="true" d="" pointer-events="none" display="none"/></g><g transform="translate(0,91)"><path class="background" aria-hidden="true" d="M0,0h256v11h-256Z" pointer-events="none" opacity="1"/><g><g class="mark-symbol role-legend-symbol" pointer-events="none"><path transform="translate(6,6)" d="M-5,0L5,0" stroke="#ff9da6" stroke-width="1.5" opacity="1"/></g><g class="mark-text role-legend-label" pointer-events="none"><text text-anchor="start" transform="translate(16,9)" font-family="Liberation Mono" font-size="10px" fill="#000" opacity="1">roam-2</text></g></g><path class="foreground" aria-hidden="true" d="" pointer-events="none" display="none"/></g><g transform="translate(0,104)"><path class="background" aria-hidden="true" d="M0,0h256v11h-256Z" pointer-events="none" opacity="1"/><g><g class="mark-symbol role-legend-symbol" pointer-events="none"><path transform="translate(6,6)" d="M-5,0L5,0" stroke="#9d755d" stroke-width="1.5" opacity="1"/></g><g class="mark-text role-legend-label" pointer-events="none"><text text-anchor="start" transform="translate(16,9)" font-family="Liberation Mono" font-size="10px" fill="#000" opacity="1">fastroad-sl-3-2022</text></g></g><path class="foreground" aria-hidden="true" d="" pointer-events="none" display="none"/></g><g transform="translate(0,117)"><path class="background" aria-hidden="true" d="M0,0h256v11h-256Z" pointer-events="none" opacity="1"/><g><g class="mark-symbol role-legend-symbol" pointer-events="none"><path transform="translate(6,6)" d="M-5,0L5,0" stroke="#bab0ac" stroke-width="1.5" opacity="1"/></g><g class="mark-text role-legend-label" pointer-events="none"><text text-anchor="start" transform="translate(16,9)" font-family="Liberation Mono" font-size="10px" fill="#000" opacity="1">allure-rs-2-2023</text></g></g><path class="foreground" aria-hidden="true" d="" pointer-events="none" display="none"/></g><g transform="translate(0,130)"><path class="background" aria-hidden="true" d="M0,0h256v11h-256Z" pointer-events="none" opacity="1"/><g><g class="mark-symbol role-legend-symbol" pointer-events="none"><path transform="translate(6,6)" d="M-5,0L5,0" stroke="#4c78a8" stroke-width="1.5" opacity="1"/></g><g class="mark-text role-legend-label" pointer-events="none"><text text-anchor="start" transform="translate(16,9)" font-family="Liberation Mono" font-size="10px" fill="#000" opacity="1">escape-city-disc-1-2024</text></g></g><path class="foreground" aria-hidden="true" d="" pointer-events="none" display="none"/></g><g transform="translate(0,143)"><path class="background" aria-hidden="true" d="M0,0h256v11h-256Z" pointer-events="none" opacity="1"/><g><g class="mark-symbol role-legend-symbol" pointer-events="none"><path transform="translate(6,6)" d="M-5,0L5,0" stroke="#f58518" stroke-width="1.5" opacity="1"/></g><g class="mark-text role-legend-label" pointer-events="none"><text text-anchor="start" transform="translate(16,9)" font-family="Liberation Mono" font-size="10px" fill="#000" opacity="1">sdrbike-escape-1-city-disc</text></g></g><path class="foreground" aria-hidden="true" d="" pointer-events="none" display="none"/></g><g transform="translate(0,156)"><path class="background" aria-hidden="true" d="M0,0h256v11h-256Z" pointer-events="none" opacity="1"/><g><g class="mark-symbol role-legend-symbol" pointer-events="none"><path transform="translate(6,6)" d="M-5,0L5,0" stroke="#e45756" stroke-width="1.5" opacity="1"/></g><g class="mark-text role-legend-label" pointer-events="none"><text text-anchor="start" transform="translate(16,9)" font-family="Liberation Mono" font-size="10px" fill="#000" opacity="1">roam-disc-2-2024</text></g></g><path class="foreground" aria-hidden="true" d="" pointer-events="none" display="none"/></g><g transform="translate(0,169)"><path class="background" aria-hidden="true" d="M0,0h256v11h-256Z" pointer-events="none" opacity="1"/><g><g class="mark-symbol role-legend-symbol" pointer-events="none"><path transform="translate(6,6)" d="M-5,0L5,0" stroke="#72b7b2" stroke-width="1.5" opacity="1"/></g><g class="mark-text role-legend-label" pointer-events="none"><text text-anchor="start" transform="translate(16,9)" font-family="Liberation Mono" font-size="10px" fill="#000" opacity="1">rove-2</text></g></g><path class="foreground" aria-hidden="true" d="" pointer-events="none" display="none"/></g><g transform="translate(0,182)"><path class="background" aria-hidden="true" d="M0,0h256v11h-256Z" pointer-events="none" opacity="1"/><g><g class="mark-symbol role-legend-symbol" pointer-events="none"><path transform="translate(6,6)" d="M-5,0L5,0" stroke="#54a24b" stroke-width="1.5" opacity="1"/></g><g class="mark-text role-legend-label" pointer-events="none"><text text-anchor="start" transform="translate(16,9)" font-family="Liberation Mono" font-size="10px" fill="#000" opacity="1">allure-rs-2-2022</text></g></g><path class="foreground" aria-hidden="true" d="" pointer-events="none" display="none"/></g><g transform="translate(0,195)"><path class="background" aria-hidden="true" d="M0,0h256v11h-256Z" pointer-events="none" opacity="1"/><g><g class="mark-symbol role-legend-symbol" pointer-events="none"><path transform="translate(6,6)" d="M-5,0L5,0" stroke="#eeca3b" stroke-width="1.5" opacity="1"/></g><g class="mark-text role-legend-label" pointer-events="none"><text text-anchor="start" transform="translate(16,9)" font-family="Liberation Mono" font-size="10px" fill="#000" opacity="1">allure-rs-2-2024</text></g></g><path class="foreground" aria-hidden="true" d="" pointer-events="none" display="none"/></g></g></g><path class="foreground" aria-hidden="true" d="" pointer-events="none" display="none"/></g></g><g class="mark-text role-legend-title" pointer-events="none"><text text-anchor="start" transform="translate(0,9)" font-family="Liberation Mono" font-size="11px" font-weight="bold" fill="#000" opacity="1">identifier</text></g></g><path class="foreground" aria-hidden="true" d="" pointer-events="none" display="none"/></g></g></g><path class="foreground" aria-hidden="true" d="" display="none"/></g></g></g></svg>