<svg xmlns="http://www.w3.org/2000/svg" xmlns:xlink="http://www.w3.org/1999/xlink" version="1.1" class="marks" width="548" height="244" viewBox="0 0 548 244"><rect width="548" height="244" fill="white"/><g fill="none" stroke-miterlimit="10" transform="translate(67,7)"><g class="mark-group role-frame root" role="graphics-object" aria-roledescription="group mark container"><g transform="translate(0,0)"><path class="background" aria-hidden="true" d="M0.5,0.5h200v200h-200Z" stroke="#ddd"/><g><g class="mark-group role-axis" aria-hidden="true"><g transform="translate(0.5,200.5)"><path class="background" aria-hidden="true" d="M0,0h0v0h0Z" pointer-events="none"/><g><g class="mark-rule role-axis-grid" pointer-events="none"><line transform="translate(11,-200)" x2="0" y2="200" stroke="#ddd" stroke-width="1" opacity="1"/><line transform="translate(40,-200)" x2="0" y2="200" stroke="#ddd" stroke-width="1" opacity="1"/><line transform="translate(69,-200)" x2="0" y2="200" stroke="#ddd" stroke-width="1" opacity="1"/><line transform="translate(97,-200)" x2="0" y2="200" stroke="#ddd" stroke-width="1" opacity="1"/><line transform="translate(126,-200)" x2="0" y2="200" stroke="#ddd" stroke-width="1" opacity="1"/><line transform="translate(155,-200)" x2="0" y2="200" stroke="#ddd" stroke-width="1" opacity="1"/><line transform="translate(184,-200)" x2="0" y2="200" stroke="#ddd" stroke-width="1" opacity="1"/></g></g><path class="foreground" aria-hidden="true" d="" pointer-events="none" display="none"/></g></g><g class="mark-group role-axis" aria-hidden="true"><g transform="translate(0.5,0.5)"><path class="background" aria-hidden="true" d="M0,0h0v0h0Z" pointer-events="none"/><g><g class="mark-rule role-axis-grid" pointer-events="none"><line transform="translate(0,200)" x2="200" y2="0" stroke="#ddd" stroke-width="1" opacity="1"/><line transform="translate(0,144)" x2="200" y2="0" stroke="#ddd" stroke-width="1" opacity="1"/><line transform="translate(0,89)" x2="200" y2="0" stroke="#ddd" stroke-width="1" opacity="1"/><line transform="translate(0,33)" x2="200" y2="0" stroke="#ddd" stroke-width="1" opacity="1"/></g></g><path class="foreground" aria-hidden="true" d="" pointer-events="none" display="none"/></g></g><g class="mark-group role-axis" role="graphics-symbol" aria-roledescription="axis" aria-label="X-axis titled 'Time' for a time scale with values from Thursday, 14 August 2025, 8:34:48 AM to Wednesday, 01 October 2025, 8:46:04 PM"><g transform="translate(0.5,200.5)"><path class="background" aria-hidden="true" d="M0,0h0v0h0Z" pointer-events="none"/><g><g class="mark-rule role-axis-tick" pointer-events="none"><line transform="translate(11,0)" x2="0" y2="5" stroke="#888" stroke-width="1" opacity="1"/><line transform="translate(40,0)" x2="0" y2="5" stroke="#888" stroke-width="1" opacity="1"/><line transform="translate(69,0)" x2="0" y2="5" stroke="#888" stroke-width="1" opacity="1"/><line transform="translate(97,0)" x2="0" y2="5" stroke="#888" stroke-width="1" opacity="1"/><line transform="translate(126,0)" x2="0" y2="5" stroke="#888" stroke-width="1" opacity="1"/><line transform="translate(155,0)" x2="0" y2="5" stroke="#888" stroke-width="1" opacity="1"/><line transform="translate(184,0)" x2="0" y2="5" stroke="#888" stroke-width="1" opacity="1"/></g><g class="mark-text role-axis-label" pointer-events="none"><text text-anchor="middle" transform="translate(10.895114315965113,15)" font-family="Liberation Mono" font-size="10px" fill="#000" opacity="1">Aug 17</text><text text-anchor="middle" transform="translate(39.75643973292257,15)" font-family="Liberation Mono" font-size="10px" fill="#000" opacity="0">Aug 24</text><text text-anchor="middle" transform="translate(68.61776514988003,15)" font-family="Liberation Mono" font-size="10px" fill="#000" opacity="1">Aug 31</text><text text-anchor="middle" transform="translate(97.47909056683748,15)" font-family="Liberation Mono" font-size="10px" fill="#000" opacity="0">Sep 07</text><text text-anchor="middle" transform="translate(126.34041598379495,15)" font-family="Liberation Mono" font-size="10px" fill="#000" opacity="1">Sep 14</text><text text-anchor="middle" transform="translate(155.2017414007524,15)" font-family="Liberation Mono" font-size="10px" fill="#000" opacity="0">Sep 21</text><text text-anchor="middle" transform="translate(184.06306681770985,15)" font-family="Liberation Mono" font-size="10px" fill="#000" opacity="1">Sep 28</text></g><g class="mark-rule role-axis-domain" pointer-events="none"><line transform="translate(0,0)" x2="200" y2="0" stroke="#888" stroke-width="1" opacity="1"/></g><g class="mark-text role-axis-title" pointer-events="none"><text text-anchor="middle" transform="translate(100,30)" font-family="Liberation Mono" font-size="11px" font-weight="bold" fill="#000" opacity="1">Time</text></g></g><path class="foreground" aria-hidden="true" d="" pointer-events="none" display="none"/></g></g><g class="mark-group role-axis" role="graphics-symbol" aria-roledescription="axis" aria-label="Y-axis titled 'Price' for a linear scale with values from 0 to 1,800"><g transform="translate(0.5,0.5)"><path class="background" aria-hidden="true" d="M0,0h0v0h0Z" pointer-events="none"/><g><g class="mark-rule role-axis-tick" pointer-events="none"><line transform="translate(0,200)" x2="-5" y2="0" stroke="#888" stroke-width="1" opacity="1"/><line transform="translate(0,144)" x2="-5" y2="0" stroke="#888" stroke-width="1" opacity="1"/><line transform="translate(0,89)" x2="-5" y2="0" stroke="#888" stroke-width="1" opacity="1"/><line transform="translate(0,33)" x2="-5" y2="0" stroke="#888" stroke-width="1" opacity="1"/></g><g class="mark-text role-axis-label" pointer-events="none"><text text-anchor="end" transform="translate(-7,203)" font-family="Liberation Mono" font-size="10px" fill="#000" opacity="1">0</text><text text-anchor="end" transform="translate(-7,147.44444444444443)" font-family="Liberation Mono" font-size="10px" fill="#000" opacity="1">500</text><text text-anchor="end" transform="translate(-7,91.88888888888889)" font-family="Liberation Mono" font-size="10px" fill="#000" opacity="1">1,000</text><text text-anchor="end" transform="translate(-7,36.33333333333333)" font-family="Liberation Mono" font-size="10px" fill="#000" opacity="1">1,500</text></g><g class="mark-rule role-axis-domain" pointer-events="none"><line transform="translate(0,200)" x2="0" y2="-200" stroke="#888" stroke-width="1" opacity="1"/></g><g class="mark-text role-axis-title" pointer-events="none"><text text-anchor="middle" transform="translate(-51,100) rotate(-90) translate(0,-2)" font-family="Liberation Mono" font-size="11px" font-weight="bold" fill="#000" opacity="1">Price</text></g></g><path class="foreground" aria-hidden="true" d="" pointer-events="none" display="none"/></g></g><g class="mark-group role-scope pathgroup" role="graphics-object" aria-roledescription="group mark container"><g transform="translate(0,0)"><path class="background" aria-hidden="true" d="M0,0h200v200h-200Z"/><g><g class="mark-line role-mark marks" role="graphics-object" aria-roledescription="line mark container"><path aria-label="Time: Aug 14, 2025; Price: 899; identifier: escape-city-disc-1-2024" role="graphics-symbol" aria-roledescription="line mark" d="M0,100.111L0.034,100.111L0.061,100.111L0.821,100.111L1.426,100.111L2.103,100.111L3.494,100.111L4.177,100.111L4.931,100.111L5.549,100.111L6.224,100.111L7.604,100.111L8.295,100.111L9.027,100.111L9.664,100.111L10.34,100.111L11.743,100.111L12.416,100.111L13.152,100.111L13.79,100.111L14.469,100.111L15.877,100.111L16.554,100.111L17.314,100.111L17.581,100.111L17.927,100.111L18.588,100.111L19.969,100.111L20.667,100.111L21.399,100.111L22.039,100.111L22.709,100.111L24.094,100.111L24.785,100.111L25.547,100.111L25.855,100.111L26.16,100.111L26.837,100.111L28.214,100.111L28.911,100.111L29.647,100.111L30.286,100.111L30.958,100.111L32.338,100.111L33.033,100.111L33.768,100.111L34.405,100.111L35.079,100.111L36.458,100.111L37.149,100.111L37.878,100.111L38.517,100.111L39.198,100.111L40.586,100.111L41.27,100.111L42.003,100.111L42.645,100.111L43.322,100.111L44.715,100.111L45.411,100.111L46.163,100.111L46.779,100.111L47.45,100.111L48.831,100.111L49.531,100.111L50.898,100.111L51.569,100.111L52.949,100.111L53.646,100.111L53.916,100.111L54.38,100.111L54.84,100.111L55.02,100.111L55.695,100.111L57.072,100.111L57.771,100.111L58.505,100.111L59.143,100.111L59.816,100.111L61.195,100.111L61.891,100.111L62.623,100.111L63.264,100.111L63.937,100.111L65.313,100.111L66.004,100.111L66.734,100.111L67.377,100.111L68.025,100.111L68.057,100.111L69.438,100.111L69.879,100.111L70.125,100.111L70.859,100.111L71.502,100.111L72.182,100.111L73.574,100.111L74.267,100.111L74.999,100.111L75.63,100.111L76.304,100.111L77.691,100.111L78.388,100.111L79.125,100.111L79.756,100.111L80.43,100.111L81.808,100.111L82.504,100.111L83.239,100.111L83.877,100.111L84.552,100.111L85.93,100.111L86.629,100.111L87.358,100.111L88.003,100.111L88.674,100.111L90.055,100.111L90.751,100.111L91.483,100.111L92.118,100.111L92.798,100.111L94.174,100.111L94.527,100.111L94.862,100.111L95.589,100.111L96.235,100.111L96.919,100.111L98.296,100.111L98.984,100.111L99.715,100.111L100.358,100.111L101.042,100.111L102.425,100.111L103.127,100.111L103.862,100.111L104.496,100.111L105.171,100.111L106.547,100.111L107.248,100.111L108.008,100.111L108.621,100.111L109.289,100.111L110.664,100.111L111.367,100.111L112.098,100.111L112.738,100.111L113.414,100.111L114.793,100.111L115.489,100.111L116.219,100.111L116.853,100.111L117.534,100.111L118.912,100.111L119.61,100.111L120.34,100.111L120.978,100.111L121.656,100.111L123.033,100.111L123.723,100.111L124.451,100.111L125.093,100.111L125.78,100.111L127.158,100.111L127.847,100.111L128.571,100.111L129.215,100.111L129.903,100.111L131.287,100.111L131.982,100.111L132.719,100.111L133.354,100.111L134.028,100.111L135.407,100.111L136.109,100.111L136.841,100.111L137.476,100.111L138.152,100.111L139.531,100.111L140.229,100.111L140.964,100.111L141.6,100.111L142.274,100.111L143.654,100.111L144.351,100.111L145.086,100.111L145.72,100.111L146.398,100.111L147.777,100.111L148.473,100.111L149.208,100.111L149.846,100.111L150.519,100.111L151.897,100.111L152.589,100.111L153.318,100.111L153.956,100.111L154.64,100.111L156.021,100.111L156.709,100.111L157.44,100.111L158.083,100.111L158.765,100.111L160.147,100.111L160.849,100.111L161.582,100.111L162.209,100.111L162.892,100.111L164.268,100.111L164.968,100.111L165.702,100.111L166.341,100.111L167.014,100.111L168.393,100.111L169.093,100.111L169.826,100.111L170.467,100.111L171.135,100.111L172.516,100.111L173.217,100.111L173.952,100.111L174.589,100.111L175.257,100.111L176.638,100.111L177.338,100.111L178.071,100.111L178.708,100.111L179.381,100.111L180.76,100.111L181.447,100.111L182.177,100.111L182.82,100.111L183.504,100.111L184.883,100.111L185.57,100.111L186.301,100.111L186.94,100.111L187.626,100.111L189.01,100.111L189.712,100.111L190.446,100.111L191.063,100.111L191.751,100.111L193.131,100.111L193.836,100.111L194.568,100.111L195.2,100.111L195.875,100.111L197.256,100.111L197.956,100.111L198.692,100.111L199.325,100.111L199.998,100.111" stroke="#4c78a8" stroke-width="2"/></g></g><path class="foreground" aria-hidden="true" d="" display="none"/></g><g transform="translate(0,0)"><path class="background" aria-hidden="true" d="M0,0h200v200h-200Z"/><g><g class="mark-line role-mark marks" role="graphics-object" aria-roledescription="line mark container"><path aria-label="Time: Aug 14, 2025; Price: 999; identifier: roam-2" role="graphics-symbol" aria-roledescription="line mark" d="M0,89L0.034,89L0.061,89L0.822,89L1.426,89L2.103,89L3.494,89L4.177,89L4.931,89L5.549,89L6.224,89L7.604,89L8.295,89L9.027,89L9.664,89L10.347,89L11.743,89L12.416,89L13.152,89L13.79,89L14.469,89L15.877,89L16.555,89L17.314,89L17.581,89L17.927,89L18.588,89L19.969,89L20.667,89L21.399,89L22.039,89L22.71,89L24.094,89L24.785,89L25.547,89L25.855,89L26.161,89L26.837,89L28.214,89L28.911,89L29.647,89L30.286,89L30.958,89L32.338,89L33.033,89L33.768,89L34.405,89L35.079,89L36.458,89L37.149,89L37.878,89L38.517,89L39.198,89L40.586,89L41.27,89L42.004,89L42.646,89L43.322,89L44.715,89L45.411,89L46.163,89L46.779,89L47.45,89L48.832,89L49.532,89L50.898,89L51.569,89L52.949,89L53.646,89L53.917,89L54.381,89L54.84,89L55.02,89L55.695,89L57.072,89L57.771,89L58.505,89L59.143,89L59.816,89L61.195,89L61.891,89L62.624,89L63.264,89L63.937,89L65.314,89L66.004,89L66.734,89L67.377,89L68.025,89L68.058,89L69.438,89L69.879,89L70.126,89L70.859,89L71.502,89L72.182,89L73.575,89L74.268,89L74.999,89L75.631,89L76.304,89L77.691,89L78.388,89L79.125,89L79.756,89L80.43,89L81.809,89L82.504,89L83.239,89L83.877,89L84.552,89L85.931,89L86.629,89L87.358,89L88.003,89L88.674,89L90.055,89L90.751,89L91.483,89L92.119,89L92.798,89L94.174,89L94.528,89L94.862,89L95.589,89L96.235,89L96.919,89L98.296,89L98.984,89L99.715,89L100.358,89L101.042,89L102.426,89L103.127,89L103.862,89L104.496,89L105.171,89L106.547,89L107.248,89L108.009,89L108.621,89L109.289,89L110.664,89L111.367,89L112.098,89L112.738,89L113.414,89L114.793,89L115.489,89L116.22,89L116.853,89L117.534,89L118.913,89L119.61,89L120.341,89L120.978,89L121.657,89L123.033,89L123.724,89L124.452,89L125.093,89L125.78,89L127.158,89L127.847,89L128.572,89L129.215,89L129.903,89L131.288,89L131.983,89L132.72,89L133.355,89L134.029,89L135.407,89L136.109,89L136.842,89L137.476,89L138.153,89L139.532,89L140.229,89L140.965,89L141.6,89L142.275,89L143.654,89L144.351,89L145.086,89L145.721,89L146.398,89L147.777,89L148.474,89L149.208,89L149.846,89L150.519,89L151.897,89L152.589,89L153.318,89L153.956,89L154.641,89L156.022,89L156.709,89L157.44,89L158.083,89L158.766,89L160.147,89L160.849,89L161.583,89L162.209,89L162.892,89L164.269,89L164.968,89L165.702,89L166.341,89L167.015,89L168.393,89L169.093,89L169.826,89L170.467,89L171.135,89L172.516,89L173.217,89L173.953,89L174.589,89L175.257,89L176.638,89L177.338,89L178.071,89L178.708,89L179.381,89L180.76,89L181.447,89L182.177,89L182.82,89L183.504,89L184.883,89L185.571,89L186.302,89L186.94,89L187.626,89L189.01,89L189.712,89L190.446,89L191.063,89L191.751,89L193.131,89L193.837,89L194.569,89L195.2,89L195.875,89L197.257,89L197.956,89L198.692,89L199.325,89L199.999,89" stroke="#ff9da6" stroke-width="2"/></g></g><path class="foreground" aria-hidden="true" d="" display="none"/></g><g transform="translate(0,0)"><path class="background" aria-hidden="true" d="M0,0h200v200h-200Z"/><g><g class="mark-line role-mark marks" role="graphics-object" aria-roledescription="line mark container"><path aria-label="Time: Aug 14, 2025; Price: 999; identifier: fastroad-sl-3-2022" role="graphics-symbol" aria-roledescription="line mark" d="M0,89L0.034,89L0.061,89L0.822,89L1.426,89L2.104,89L3.494,89L4.177,89L4.931,89L5.549,89L6.224,89L7.604,89L8.295,89L9.027,89L9.665,89L10.347,89L11.743,89L12.416,89L13.152,89L13.791,89L14.469,89L15.878,89L16.555,89L17.314,89L17.581,89L17.927,89L18.588,89L19.969,89L20.667,89L21.399,89L22.039,89L22.71,89L24.094,89L24.785,89L25.547,89L25.856,89L26.161,89L26.838,89L28.214,89L28.911,89L29.647,89L30.286,89L30.958,89L32.338,89L33.033,89L33.768,89L34.405,89L35.079,89L36.459,89L37.15,89L37.878,89L38.517,89L39.198,89L40.587,89L41.27,89L42.004,89L42.646,89L43.322,89L44.715,89L45.411,89L46.163,89L46.779,89L47.45,89L48.832,89L49.532,89L50.898,89L51.569,89L52.95,89L53.646,89L53.917,89L54.381,89L54.84,89L55.021,89L55.695,89L57.072,89L57.771,89L58.505,89L59.143,89L59.816,89L61.195,89L61.891,89L62.624,89L63.264,89L63.937,89L65.314,89L66.005,89L66.734,89L67.377,89L68.026,89L68.058,89L69.438,89L69.879,89L70.126,89L70.859,89L71.503,89L72.182,89L73.575,89L74.268,89L74.999,89L75.631,89L76.304,89L77.691,89L78.388,89L79.125,89L79.756,89L80.43,89L81.809,89L82.505,89L83.239,89L83.877,89L84.552,89L85.931,89L86.629,89L87.358,89L88.003,89L88.674,89L90.055,89L90.751,89L91.484,89L92.119,89L92.798,89L94.174,89L94.528,89L94.862,89L95.589,89L96.235,89L96.919,89L98.296,89L98.985,89L99.715,89L100.358,89L101.042,89L102.426,89L103.127,89L103.862,89L104.496,89L105.171,89L106.547,89L107.249,89L108.009,89L108.622,89L109.289,89L110.665,89L111.367,89L112.098,89L112.738,89L113.414,89L114.793,89L115.489,89L116.22,89L116.853,89L117.534,89L118.913,89L119.61,89L120.341,89L120.978,89L121.657,89L123.033,89L123.724,89L124.452,89L125.093,89L125.78,89L127.158,89L127.847,89L128.572,89L129.215,89L129.903,89L131.288,89L131.983,89L132.72,89L133.355,89L134.029,89L135.407,89L136.109,89L136.842,89L137.476,89L138.153,89L139.532,89L140.229,89L140.965,89L141.6,89L142.275,89L143.654,89L144.351,89L145.086,89L145.721,89L146.398,89L147.777,89L148.474,89L149.208,89L149.846,89L150.519,89L151.897,89L152.589,89L153.318,89L153.956,89L154.641,89L156.022,89L156.709,89L157.44,89L158.083,89L158.766,89L160.147,89L160.849,89L161.583,89L162.209,89L162.892,89L164.269,89L164.969,89L165.702,89L166.341,89L167.015,89L168.393,89L169.093,89L169.826,89L170.467,89L171.135,89L172.516,89L173.217,89L173.953,89L174.589,89L175.257,89L176.638,89L177.338,89L178.071,89L178.708,89L179.381,89L180.76,89L181.447,89L182.177,89L182.82,89L183.504,89L184.883,89L185.571,89L186.302,89L186.94,89L187.626,89L189.01,89L189.712,89L190.446,89L191.063,89L191.751,89L193.131,89L193.837,89L194.569,89L195.2,89L195.875,89L197.257,89L197.956,89L198.692,89L199.325,89L199.999,89" stroke="#9d755d" stroke-width="2"/></g></g><path class="foreground" aria-hidden="true" d="" display="none"/></g><g transform="translate(0,0)"><path class="background" aria-hidden="true" d="M0,0h200v200h-200Z"/><g><g class="mark-line role-mark marks" role="graphics-object" aria-roledescription="line mark container"><path aria-label="Time: Aug 14, 2025; Price: 1199; identifier: fastroad-ar-2" role="graphics-symbol" aria-roledescription="line mark" d="M0,66.778L0.034,66.778L0.062,66.778L0.822,66.778L1.426,66.778L2.104,66.778L3.494,66.778L4.177,66.778L4.931,66.778L5.55,66.778L6.224,66.778L7.604,66.778L8.295,66.778L9.027,66.778L9.665,66.778L10.35,66.778L11.743,66.778L12.417,66.778L13.152,66.778L13.791,66.778L14.469,66.778L15.878,66.778L16.555,66.778L17.314,66.778L17.581,66.778L17.927,66.778L18.588,66.778L19.969,66.778L20.667,66.778L21.4,66.778L22.039,66.778L22.71,66.778L24.094,66.778L24.785,66.778L25.547,66.778L25.856,66.778L26.161,66.778L26.838,66.778L28.214,66.778L28.911,66.778L29.647,66.778L30.287,66.778L30.958,66.778L32.339,66.778L33.033,66.778L33.768,66.778L34.405,66.778L35.079,66.778L36.459,66.778L37.15,66.778L37.879,66.778L38.518,66.778L39.198,66.778L40.587,66.778L41.27,66.778L42.004,66.778L42.646,66.778L43.323,66.778L44.716,66.778L45.411,66.778L46.163,66.778L46.779,66.778L47.45,66.778L48.832,66.778L49.532,66.778L50.898,66.778L51.569,66.778L52.95,66.778L53.646,66.778L53.917,66.778L54.381,66.778L54.84,66.778L55.021,66.778L55.695,66.778L57.072,66.778L57.771,66.778L58.506,66.778L59.143,66.778L59.817,66.778L61.195,66.778L61.891,66.778L62.624,66.778L63.264,66.778L63.937,66.778L65.314,66.778L66.005,66.778L66.734,66.778L67.377,66.778L68.026,66.778L68.058,66.778L69.438,66.778L69.879,66.778L70.126,66.778L70.859,66.778L71.503,66.778L72.182,66.778L73.575,66.778L74.268,66.778L74.999,66.778L75.631,66.778L76.304,66.778L77.691,66.778L78.388,66.778L79.125,66.778L79.756,66.778L80.43,66.778L81.809,66.778L82.505,66.778L83.239,66.778L83.878,66.778L84.552,66.778L85.931,66.778L86.629,66.778L87.358,66.778L88.004,66.778L88.674,66.778L90.056,66.778L90.751,66.778L91.484,66.778L92.119,66.778L92.798,66.778L94.174,66.778L94.528,66.778L94.862,66.778L95.589,66.778L96.235,66.778L96.919,66.778L98.296,66.778L98.985,66.778L99.715,66.778L100.358,66.778L101.042,66.778L102.426,66.778L103.127,66.778L103.862,66.778L104.496,66.778L105.171,66.778L106.547,66.778L107.249,66.778L108.009,66.778L108.622,66.778L109.289,66.778L110.665,66.778L111.368,66.778L112.099,66.778L112.738,66.778L113.414,66.778L114.793,66.778L115.489,66.778L116.22,66.778L116.853,66.778L117.534,66.778L118.913,66.778L119.611,66.778L120.341,66.778L120.978,66.778L121.657,66.778L123.033,66.778L123.724,66.778L124.452,66.778L125.093,66.778L125.78,66.778L127.158,66.778L127.847,66.778L128.572,66.778L129.215,66.778L129.903,66.778L131.288,66.778L131.983,66.778L132.72,66.778L133.355,66.778L134.029,66.778L135.407,66.778L136.109,66.778L136.842,66.778L137.476,66.778L138.153,66.778L139.532,66.778L140.229,66.778L140.965,66.778L141.6,66.778L142.275,66.778L143.654,66.778L144.351,66.778L145.087,66.778L145.721,66.778L146.399,66.778L147.777,66.778L148.474,66.778L149.208,66.778L149.846,66.778L150.519,66.778L151.897,66.778L152.59,66.778L153.319,66.778L153.956,66.778L154.641,66.778L156.022,66.778L156.709,66.778L157.44,66.778L158.083,66.778L158.766,66.778L160.147,66.778L160.849,66.778L161.583,66.778L162.209,66.778L162.892,66.778L164.269,66.778L164.969,66.778L165.702,66.778L166.341,66.778L167.015,66.778L168.393,66.778L169.093,66.778L169.826,66.778L170.467,66.778L171.135,66.778L172.517,66.778L173.218,66.778L173.953,66.778L174.589,66.778L175.257,66.778L176.638,66.778L177.338,66.778L178.071,66.778L178.708,66.778L179.381,66.778L180.76,66.778L181.447,66.778L182.177,66.778L182.82,66.778L183.504,66.778L184.883,66.778L185.571,66.778L186.302,66.778L186.94,66.778L187.626,66.778L189.01,66.778L189.712,66.778L190.446,66.778L191.063,66.778L191.752,66.778L193.131,66.778L193.837,66.778L194.569,66.778L195.2,66.778L195.875,66.778L197.257,66.778L197.956,66.778L198.693,66.778L199.325,66.778L199.999,66.778" stroke="#54a24b" stroke-width="2"/></g></g><path class="foreground" aria-hidden="true" d="" display="none"/></g><g transform="translate(0,0)"><path class="background" aria-hidden="true" d="M0,0h200v200h-200Z"/><g><g class="mark-line role-mark marks" role="graphics-object" aria-roledescription="line mark container"><path aria-label="Time: Aug 18, 2025; Price: 899; identifier: sdrbike-escape-1-city-disc" role="graphics-symbol" aria-roledescription="line mark" d="M17.581,100.111L17.927,100.111L18.588,100.111L19.97,100.111L20.667,100.111L21.4,100.111L22.039,100.111L22.71,100.111L24.094,100.111L24.785,100.111L25.547,100.111L25.856,100.111L26.161,100.111L26.838,100.111L28.215,100.111L28.911,100.111L29.647,100.111L30.287,100.111L30.959,100.111L32.339,100.111L33.033,100.111L33.768,100.111L34.405,100.111L35.079,100.111L36.459,100.111L37.15,100.111L37.879,100.111L38.518,100.111L39.198,100.111L40.587,100.111L41.27,100.111L42.004,100.111L42.646,100.111L43.323,100.111L44.716,100.111L45.411,100.111L46.164,100.111L46.779,100.111L47.45,100.111L48.832,100.111L49.532,100.111L50.898,100.111L51.569,100.111L52.95,100.111L53.647,100.111L53.917,100.111L54.381,100.111L54.841,100.111L55.021,100.111L55.695,100.111L57.072,100.111L57.771,100.111L58.506,100.111L59.143,100.111L59.817,100.111L61.195,100.111L61.892,100.111L62.624,100.111L63.264,100.111L63.937,100.111L65.314,100.111L66.005,100.111L66.734,100.111L67.377,100.111L68.026,100.111L68.058,100.111L69.439,100.111L69.879,100.111L70.126,100.111L70.859,100.111L71.503,100.111L72.182,100.111L73.575,100.111L74.268,100.111L75,100.111L75.631,100.111L76.305,100.111L77.691,100.111L78.388,100.111L79.125,100.111L79.757,100.111L80.43,100.111L81.809,100.111L82.505,100.111L83.239,100.111L83.878,100.111L84.552,100.111L85.931,100.111L86.629,100.111L87.358,100.111L88.004,100.111L88.674,100.111L90.056,100.111L90.751,100.111L91.484,100.111L92.119,100.111L92.798,100.111L94.174,100.111L94.528,100.111L94.862,100.111L95.59,100.111L96.235,100.111L96.919,100.111L98.296,100.111L98.985,100.111L99.715,100.111L100.358,100.111L101.042,100.111L102.426,100.111L103.127,100.111L103.863,100.111L104.496,100.111L105.171,100.111L106.547,100.111L107.249,100.111L108.009,100.111L108.622,100.111L109.29,100.111L110.665,100.111L111.368,100.111L112.099,100.111L112.738,100.111L113.414,100.111L114.793,100.111L115.489,100.111L116.22,100.111L116.853,100.111L117.534,100.111L118.913,100.111L119.611,100.111L120.341,100.111L120.978,100.111L121.657,100.111L123.034,100.111L123.724,100.111L124.452,100.111L125.093,100.111L125.78,100.111L127.158,100.111L127.847,100.111L128.572,100.111L129.215,100.111L129.903,100.111L131.288,100.111L131.983,100.111L132.72,100.111L133.355,100.111L134.029,100.111L135.407,100.111L136.109,100.111L136.842,100.111L137.476,100.111L138.153,100.111L139.532,100.111L140.229,100.111L140.965,100.111L141.6,100.111L142.275,100.111L143.654,100.111L144.351,100.111L145.087,100.111L145.721,100.111L146.399,100.111L147.778,100.111L148.474,100.111L149.208,100.111L149.846,100.111L150.519,100.111L151.897,100.111L152.59,100.111L153.319,100.111L153.957,100.111L154.641,100.111L156.022,100.111L156.709,100.111L157.441,100.111L158.083,100.111L158.766,100.111L160.147,100.111L160.849,100.111L161.583,100.111L162.209,100.111L162.892,100.111L164.269,100.111L164.969,100.111L165.703,100.111L166.341,100.111L167.015,100.111L168.393,100.111L169.093,100.111L169.827,100.111L170.467,100.111L171.135,100.111L172.517,100.111L173.218,100.111L173.953,100.111L174.589,100.111L175.257,100.111L176.638,100.111L177.339,100.111L178.071,100.111L178.708,100.111L179.381,100.111L180.76,100.111L181.448,100.111L182.177,100.111L182.82,100.111L183.504,100.111L184.883,100.111L185.571,100.111L186.302,100.111L186.94,100.111L187.626,100.111L189.01,100.111L189.712,100.111L190.446,100.111L191.063,100.111L191.752,100.111L193.132,100.111L193.837,100.111L194.569,100.111L195.2,100.111L195.875,100.111L197.257,100.111L197.957,100.111L198.693,100.111L199.325,100.111L199.999,100.111" stroke="#f58518" stroke-width="2"/></g></g><path class="foreground" aria-hidden="true" d="" display="none"/></g><g transform="translate(0,0)"><path class="background" aria-hidden="true" d="M0,0h200v200h-200Z"/><g><g class="mark-line role-mark marks" role="graphics-object" aria-roledescription="line mark container"><path aria-label="Time: Aug 20, 2025; Price: 899; identifier: roam-disc-2-2024" role="graphics-symbol" aria-roledescription="line mark" d="M25.855,100.111L26.161,100.111L26.837,100.111L28.214,100.111L28.911,100.111L29.647,100.111L30.286,100.111L30.958,100.111L32.338,100.111L33.033,100.111L33.768,100.111L34.405,100.111L35.079,100.111L36.458,100.111L37.149,100.111L37.878,100.111L38.517,100.111L39.198,100.111L40.586,100.111L41.27,100.111L42.003,100.111L42.645,100.111L43.322,100.111L44.715,100.111L45.411,100.111L46.163,100.111L46.779,100.111L47.45,100.111L48.831,100.111L49.531,100.111L50.898,100.111L51.569,100.111L52.949,100.111L53.646,100.111L53.917,100.111L54.381,100.111L54.84,100.111L55.02,100.111L55.695,100.111L57.072,100.111L57.771,100.111L58.505,100.111L59.143,100.111L59.816,100.111L61.195,100.111L61.891,100.111L62.623,100.111L63.264,100.111L63.937,100.111L65.313,100.111L66.004,100.111L66.734,100.111L67.377,100.111L68.025,100.111L68.058,100.111L69.438,100.111L69.879,100.111L70.126,100.111L70.859,100.111L71.502,100.111L72.182,100.111L73.574,100.111L74.268,100.111L74.999,100.111L75.631,100.111L76.304,100.111L77.691,100.111L78.388,100.111L79.125,100.111L79.756,100.111L80.43,100.111L81.809,100.111L82.504,100.111L83.239,100.111L83.877,100.111L84.552,100.111L85.93,100.111L86.629,100.111L87.358,100.111L88.003,100.111L88.674,100.111L90.055,100.111L90.751,100.111L91.483,100.111L92.118,100.111L92.798,100.111L94.174,100.111L94.528,100.111L94.862,100.111L95.589,100.111L96.235,100.111L96.919,100.111L98.296,100.111L98.984,100.111L99.715,100.111L100.358,100.111L101.042,100.111L102.426,100.111L103.127,100.111L103.862,100.111L104.496,100.111L105.171,100.111L106.547,100.111L107.248,100.111L108.008,100.111L108.621,100.111L109.289,100.111L110.664,100.111L111.367,100.111L112.098,100.111L112.738,100.111L113.414,100.111L114.793,100.111L115.489,100.111L116.22,100.111L116.853,100.111L117.534,100.111L118.913,100.111L119.61,100.111L120.341,100.111L120.978,100.111L121.656,100.111L123.033,100.111L123.723,100.111L124.451,100.111L125.093,100.111L125.78,100.111L127.158,100.111L127.847,100.111L128.572,100.111L129.215,100.111L129.903,100.111L131.287,100.111L131.983,100.111L132.719,100.111L133.355,100.111L134.029,100.111L135.407,100.111L136.109,100.111L136.841,100.111L137.476,100.111L138.152,100.111L139.532,100.111L140.229,100.111L140.964,100.111L141.6,100.111L142.275,100.111L143.654,100.111L144.351,100.111L145.086,100.111L145.72,100.111L146.398,100.111L147.777,100.111L148.473,100.111L149.208,100.111L149.846,100.111L150.519,100.111L151.897,100.111L152.589,100.111L153.318,100.111L153.956,100.111L154.64,100.111L156.021,100.111L156.709,100.111L157.44,100.111L158.083,100.111L158.765,100.111L160.147,100.111L160.849,100.111L161.583,100.111L162.209,100.111L162.892,100.111L164.269,100.111L164.968,100.111L165.702,100.111L166.341,100.111L167.015,100.111L168.393,100.111L169.093,100.111L169.826,100.111L170.467,100.111L171.135,100.111L172.516,100.111L173.217,100.111L173.953,100.111L174.589,100.111L175.257,100.111L176.638,100.111L177.338,100.111L178.071,100.111L178.708,100.111L179.381,100.111L180.76,100.111L181.447,100.111L182.177,100.111L182.82,100.111L183.504,100.111L184.883,100.111L185.571,100.111L186.301,100.111L186.94,100.111L187.626,100.111L189.01,100.111L189.712,100.111L190.446,100.111L191.063,100.111L191.751,100.111L193.131,100.111L193.836,100.111L194.568,100.111L195.2,100.111L195.875,100.111L197.257,100.111L197.956,100.111L198.692,100.111L199.325,100.111L199.998,100.111" stroke="#e45756" stroke-width="2"/></g></g><path class="foreground" aria-hidden="true" d="" display="none"/></g><g transform="translate(0,0)"><path class="background" aria-hidden="true" d="M0,0h200v200h-200Z"/><g><g class="mark-line role-mark marks" role="graphics-object" aria-roledescription="line mark container"><path aria-label="Time: Aug 20, 2025; Price: 1199; identifier: thrive-2" role="graphics-symbol" aria-roledescription="line mark" d="M25.856,66.778L26.161,66.778L26.838,66.778L28.215,66.778L28.912,66.778L29.647,66.778L30.287,66.778L30.959,66.778L32.339,66.778L33.033,66.778L33.769,66.778L34.406,66.778L35.079,66.778L36.459,66.778L37.15,66.778L37.879,66.778L38.518,66.778L39.198,66.778L40.587,66.778L41.27,66.778L42.004,66.778L42.646,66.778L43.323,66.778L44.716,66.778L45.411,66.778L46.164,66.778L46.779,66.778L47.451,66.778L48.832,66.778L49.532,66.778L50.898,66.778L51.569,66.778L52.95,66.778L53.647,66.778L53.918,66.778L54.381,66.778L54.841,66.778L55.021,66.778L55.695,66.778L57.072,66.778L57.771,66.778L58.506,66.778L59.143,66.778L59.817,66.778L61.196,66.778L61.892,66.778L62.624,66.778L63.264,66.778L63.938,66.778L65.314,66.778L66.005,66.778L66.734,66.778L67.378,66.778L68.026,66.778L68.058,66.778L69.439,66.778L69.879,66.778L70.126,66.778L70.859,66.778L71.503,66.778L72.182,66.778L73.575,66.778L74.268,66.778L75,66.778L75.631,66.778L76.305,66.778L77.691,66.778L78.388,66.778L79.125,66.778L79.757,66.778L80.43,66.778L81.809,66.778L82.505,66.778L83.239,66.778L83.878,66.778L84.552,66.778L85.931,66.778L86.629,66.778L87.359,66.778L88.004,66.778L88.674,66.778L90.056,66.778L90.752,66.778L91.484,66.778L92.119,66.778L92.799,66.778L94.174,66.778L94.528,66.778L94.862,66.778L95.59,66.778L96.235,66.778L96.919,66.778L98.296,66.778L98.985,66.778L99.715,66.778L100.359,66.778L101.042,66.778L102.426,66.778L103.127,66.778L103.863,66.778L104.496,66.778L105.171,66.778L106.548,66.778L107.249,66.778L108.009,66.778L108.622,66.778L109.29,66.778L110.665,66.778L111.368,66.778L112.099,66.778L112.738,66.778L113.415,66.778L114.793,66.778L115.489,66.778L116.22,66.778L116.853,66.778L117.534,66.778L118.913,66.778L119.611,66.778L120.341,66.778L120.978,66.778L121.657,66.778L123.034,66.778L123.724,66.778L124.452,66.778L125.093,66.778L125.78,66.778L127.158,66.778L127.847,66.778L128.572,66.778L129.215,66.778L129.903,66.778L131.288,66.778L131.983,66.778L132.72,66.778L133.355,66.778L134.029,66.778L135.408,66.778L136.11,66.778L136.842,66.778L137.476,66.778L138.153,66.778L139.532,66.778L140.229,66.778L140.965,66.778L141.6,66.778L142.275,66.778L143.654,66.778L144.351,66.778L145.087,66.778L145.721,66.778L146.399,66.778L147.778,66.778L148.474,66.778L149.208,66.778L149.846,66.778L150.519,66.778L151.898,66.778L152.59,66.778L153.319,66.778L153.957,66.778L154.641,66.778L156.022,66.778L156.709,66.778L157.441,66.778L158.083,66.778L158.766,66.778L160.147,66.778L160.849,66.778L161.583,66.778L162.209,66.778L162.893,66.778L164.269,66.778L164.969,66.778L165.703,66.778L166.341,66.778L167.015,66.778L168.394,66.778L169.093,66.778L169.827,66.778L170.467,66.778L171.135,66.778L172.517,66.778L173.218,66.778L173.953,66.778L174.589,66.778L175.257,66.778L176.638,66.778L177.339,66.778L178.071,66.778L178.708,66.778L179.381,66.778L180.76,66.778L181.448,66.778L182.178,66.778L182.82,66.778L183.504,66.778L184.883,66.778L185.571,66.778L186.302,66.778L186.94,66.778L187.626,66.778L189.01,66.778L189.712,66.778L190.447,66.778L191.064,66.778L191.752,66.778L193.132,66.778L193.837,66.778L194.569,66.778L195.201,66.778L195.875,66.778L197.257,66.778L197.957,66.778L198.693,66.778L199.325,66.778L199.999,66.778" stroke="#eeca3b" stroke-width="2"/></g></g><path class="foreground" aria-hidden="true" d="" display="none"/></g><g transform="translate(0,0)"><path class="background" aria-hidden="true" d="M0,0h200v200h-200Z"/><g><g class="mark-line role-mark marks" role="graphics-object" aria-roledescription="line mark container"><path aria-label="Time: Aug 20, 2025; Price: 999; identifier: rove-2" role="graphics-symbol" aria-roledescription="line mark" d="M25.856,89L26.161,89L26.838,89L28.215,89L28.912,89L29.647,89L30.287,89L30.959,89L32.339,89L33.033,89L33.769,89L34.406,89L35.08,89L36.459,89L37.15,89L37.879,89L38.518,89L39.198,89L40.587,89L41.27,89L42.004,89L42.646,89L43.323,89L44.716,89L45.412,89L46.164,89L46.779,89L47.451,89L48.832,89L49.532,89L50.899,89L51.569,89L52.95,89L53.647,89L53.918,89L54.381,89L54.841,89L55.021,89L55.695,89L57.072,89L57.772,89L58.506,89L59.143,89L59.817,89L61.196,89L61.892,89L62.624,89L63.265,89L63.938,89L68.026,111.222L68.058,111.222L69.439,111.222L69.879,111.222L70.126,111.222L70.859,111.222L71.503,111.222L72.183,111.222L73.575,111.222L74.268,111.222L75,111.222L75.631,111.222L76.305,111.222L77.692,111.222L78.389,111.222L79.125,111.222L79.757,111.222L80.431,111.222L81.809,111.222L82.505,111.222L83.239,111.222L83.878,111.222L84.552,111.222L85.931,111.222L86.63,111.222L87.359,111.222L88.004,111.222L88.674,111.222L90.056,111.222L90.752,111.222L91.484,111.222L92.119,111.222L92.799,111.222L94.174,111.222L94.528,111.222L94.862,111.222L95.59,111.222L96.235,111.222L96.919,111.222L98.296,111.222L98.985,111.222L99.715,111.222L100.359,111.222L101.042,111.222L102.426,111.222L103.128,111.222L103.863,111.222L104.496,111.222L105.171,111.222L106.548,111.222L107.249,111.222L108.009,111.222L108.622,111.222L109.29,111.222L110.665,111.222L111.368,111.222L112.099,111.222L112.738,111.222L113.415,111.222L114.793,111.222L115.489,111.222L116.22,111.222L116.853,111.222L117.534,111.222L118.913,111.222L119.611,111.222L120.341,111.222L120.978,111.222L121.657,111.222L123.034,111.222L123.724,111.222L124.452,111.222L125.093,111.222L125.78,111.222L127.158,111.222L127.847,111.222L128.572,111.222L129.215,111.222L129.904,111.222L131.288,111.222L131.983,111.222L132.72,111.222L133.355,111.222L134.029,111.222L135.408,111.222L136.11,111.222L136.842,111.222L137.476,111.222L138.153,111.222L139.532,111.222L140.229,111.222L140.965,111.222L141.601,111.222L142.275,111.222L143.654,111.222L144.351,111.222L145.087,111.222L145.721,111.222L146.399,111.222L147.778,111.222L148.474,111.222L149.208,111.222L149.846,111.222L150.519,111.222L151.898,111.222L152.59,111.222L153.319,111.222L153.957,111.222L154.641,111.222L156.022,111.222L156.709,111.222L157.441,111.222L158.083,111.222L158.766,111.222L160.147,111.222L160.849,111.222L161.583,111.222L162.209,111.222L162.893,111.222L164.269,111.222L164.969,111.222L165.703,111.222L166.342,111.222L167.015,111.222L168.394,111.222L169.094,111.222L169.827,111.222L170.468,111.222L171.135,111.222L172.517,111.222L173.218,111.222L173.953,111.222L174.589,111.222L175.258,111.222L176.638,111.222L177.339,111.222L178.071,111.222L178.708,111.222L179.381,111.222L180.76,111.222L181.448,111.222L182.178,111.222L182.82,111.222L183.505,111.222L184.883,111.222L185.571,111.222L186.302,111.222L186.94,111.222L187.626,111.222L189.01,111.222L189.712,111.222L190.447,111.222L191.064,111.222L191.752,111.222L193.132,111.222L193.837,111.222L194.569,111.222L195.201,111.222L195.875,111.222L197.257,111.222L197.957,111.222L198.693,111.222L199.325,111.222L199.999,111.222" stroke="#72b7b2" stroke-width="2"/></g></g><path class="foreground" aria-hidden="true" d="" display="none"/></g><g transform="translate(0,0)"><path class="background" aria-hidden="true" d="M0,0h200v200h-200Z"/><g><g class="mark-line role-mark marks" role="graphics-object" aria-roledescription="line mark container"><path aria-label="Time: Aug 27, 2025; Price: 1199; identifier: allure-rs-1-2023" role="graphics-symbol" aria-roledescription="line mark" d="M53.918,66.778L54.381,66.778L54.841,66.778L55.021,66.778L55.696,66.778L57.072,66.778L57.772,66.778L58.506,66.778L59.143,66.778L59.817,66.778L61.196,66.778L61.892,66.778L62.624,66.778L63.265,66.778L63.938,66.778L65.314,66.778L66.005,66.778L66.735,66.778L67.378,66.778L68.026,66.778L68.058,66.778L69.439,66.778L69.879,66.778L70.126,66.778L70.86,66.778L71.503,66.778L72.183,66.778L73.575,66.778L74.268,66.778L75,66.778L75.631,66.778L76.305,66.778L77.692,66.778L78.389,66.778L79.125,66.778L79.757,66.778L80.431,66.778L81.809,66.778L82.505,66.778L83.239,66.778L83.878,66.778L84.552,66.778L85.931,66.778L86.63,66.778L87.359,66.778L88.004,66.778L88.674,66.778L90.056,66.778L90.752,66.778L91.484,66.778L92.119,66.778L92.799,66.778L94.175,66.778L94.528,66.778L94.863,66.778L95.59,66.778L96.235,66.778L96.919,66.778L98.296,66.778L98.985,66.778L99.715,66.778L100.359,66.778L101.042,66.778L102.426,66.778L103.128,66.778L103.863,66.778L104.496,66.778L105.172,66.778L106.548,66.778L107.249,66.778L108.009,66.778L108.622,66.778L109.29,66.778L110.665,66.778L111.368,66.778L112.099,66.778L112.739,66.778L113.415,66.778L114.794,66.778L115.49,66.778L116.22,66.778L116.854,66.778L117.534,66.778L118.913,66.778L119.611,66.778L120.341,66.778L120.978,66.778L121.657,66.778L123.034,66.778L123.724,66.778L124.452,66.778L125.094,66.778L125.781,66.778L127.158,66.778L127.847,66.778L128.572,66.778L129.215,66.778L129.904,66.778L131.288,66.778L131.983,66.778L132.72,66.778L133.355,66.778L134.03,66.778L135.408,66.778L136.11,66.778L136.842,66.778L137.477,66.778L138.153,66.778L139.532,66.778L140.229,66.778L140.965,66.778L141.601,66.778L142.275,66.778L143.655,66.778L144.351,66.778L145.087,66.778L145.721,66.778L146.399,66.778L147.778,66.778L148.474,66.778L149.209,66.778L149.847,66.778L150.519,66.778L151.898,66.778L152.59,66.778L153.319,66.778L153.957,66.778L154.641,66.778L156.022,66.778L156.709,66.778L157.441,66.778L158.083,66.778L158.766,66.778L160.148,66.778L160.85,66.778L161.583,66.778L162.209,66.778L162.893,66.778L164.269,66.778L164.969,66.778L165.703,66.778L166.342,66.778L167.015,66.778L168.394,66.778L169.094,66.778L169.827,66.778L170.468,66.778L171.135,66.778L172.517,66.778L173.218,66.778L173.953,66.778L174.589,66.778L175.258,66.778L176.638,66.778L177.339,66.778L178.071,66.778L178.709,66.778L179.381,66.778L180.76,66.778L181.448,66.778L182.178,66.778L182.821,66.778L183.505,66.778L184.884,66.778L185.571,66.778L186.302,66.778L186.94,66.778L187.626,66.778L189.01,66.778L189.712,66.778L190.447,66.778L191.064,66.778L191.752,66.778L193.132,66.778L193.837,66.778L194.569,66.778L195.201,66.778L195.876,66.778L197.257,66.778L197.957,66.778L198.693,66.778L199.325,66.778L199.999,66.778" stroke="#b279a2" stroke-width="2"/></g></g><path class="foreground" aria-hidden="true" d="" display="none"/></g><g transform="translate(0,0)"><path class="background" aria-hidden="true" d="M0,0h200v200h-200Z"/><g><g class="mark-line role-mark marks" role="graphics-object" aria-roledescription="line mark container"><path aria-label="Time: Aug 27, 2025; Price: 999; identifier: allure-rs-2-2022" role="graphics-symbol" aria-roledescription="line mark" d="M53.918,89L54.381,89L54.841,89L55.021,89L55.696,89L57.073,89L57.772,89L58.506,89L59.143,89L59.817,89L61.196,89L61.892,89L62.624,89L63.265,89L63.938,89L68.026,111.222L68.058,111.222L69.439,111.222L69.879,111.222L70.126,111.222L70.86,111.222L71.503,111.222L72.183,111.222L73.575,111.222L74.268,111.222L75,111.222L75.631,111.222L76.305,111.222L77.692,111.222L78.389,111.222L79.126,111.222L79.757,111.222L80.431,111.222L81.809,111.222L82.505,111.222L83.24,111.222L83.878,111.222L84.552,111.222L85.931,111.222L86.63,111.222L87.359,111.222L88.004,111.222L88.675,111.222L90.056,111.222L90.752,111.222L91.484,111.222L92.119,111.222L92.799,111.222L94.175,111.222L94.528,111.222L94.863,111.222L95.59,111.222L96.235,111.222L96.92,111.222L98.296,111.222L98.985,111.222L99.715,111.222L100.359,111.222L101.042,111.222L102.427,111.222L103.128,111.222L103.863,111.222L104.496,111.222L105.172,111.222L106.548,111.222L107.249,111.222L108.009,111.222L108.622,111.222L109.29,111.222L110.665,111.222L111.368,111.222L112.099,111.222L112.739,111.222L113.415,111.222L114.794,111.222L115.49,111.222L116.22,111.222L116.854,111.222L117.534,111.222L118.913,111.222L119.611,111.222L120.341,111.222L120.978,111.222L121.657,111.222L123.034,111.222L123.724,111.222L124.452,111.222L125.094,111.222L125.781,111.222L127.158,111.222L127.847,111.222L128.572,111.222L129.216,111.222L129.904,111.222L131.288,111.222L131.983,111.222L132.72,111.222L133.356,111.222L134.03,111.222L135.408,111.222L136.11,111.222L136.842,111.222L137.477,111.222L138.153,111.222L139.532,111.222L140.229,111.222L140.965,111.222L141.601,111.222L142.275,111.222L143.655,111.222L144.351,111.222L145.087,111.222L145.721,111.222L146.399,111.222L147.778,111.222L148.474,111.222L149.209,111.222L149.847,111.222L150.519,111.222L151.898,111.222L152.59,111.222L153.319,111.222L153.957,111.222L154.641,111.222L156.022,111.222L156.71,111.222L157.441,111.222L158.083,111.222L158.766,111.222L160.148,111.222L160.85,111.222L161.583,111.222L162.209,111.222L162.893,111.222L164.269,111.222L164.969,111.222L165.703,111.222L166.342,111.222L167.015,111.222L168.394,111.222L169.094,111.222L169.827,111.222L170.468,111.222L171.136,111.222L172.517,111.222L173.218,111.222L173.953,111.222L174.59,111.222L175.258,111.222L176.638,111.222L177.339,111.222L178.072,111.222L178.709,111.222L179.381,111.222L180.761,111.222L181.448,111.222L182.178,111.222L182.821,111.222L183.505,111.222L184.884,111.222L185.571,111.222L186.303,111.222L186.941,111.222L187.627,111.222L189.011,111.222L189.713,111.222L190.447,111.222L191.064,111.222L191.752,111.222L193.132,111.222L193.837,111.222L194.569,111.222L195.201,111.222L195.876,111.222L197.257,111.222L197.957,111.222L198.693,111.222L199.326,111.222L199.999,111.222" stroke="#54a24b" stroke-width="2"/></g></g><path class="foreground" aria-hidden="true" d="" display="none"/></g><g transform="translate(0,0)"><path class="background" aria-hidden="true" d="M0,0h200v200h-200Z"/><g><g class="mark-line role-mark marks" role="graphics-object" aria-roledescription="line mark container"><path aria-label="Time: Aug 27, 2025; Price: 949; identifier: allure-rs-2-2023" role="graphics-symbol" aria-roledescription="line mark" d="M53.919,94.556L54.381,94.556L54.841,94.556L55.021,94.556L55.696,94.556L57.073,94.556L57.772,94.556L58.506,94.556L59.143,94.556L59.817,94.556L61.196,94.556L61.892,94.556L62.624,94.556L63.265,94.556L63.938,94.556L65.314,94.556L66.005,94.556L66.735,94.556L67.378,94.556L68.026,94.556L68.058,94.556L69.439,94.556L69.879,94.556L70.127,94.556L70.86,94.556L71.503,94.556L72.183,94.556L73.575,94.556L74.268,94.556L75,94.556L75.631,94.556L76.305,94.556L77.692,94.556L78.389,94.556L79.126,94.556L79.757,94.556L80.431,94.556L81.809,94.556L82.505,94.556L83.24,94.556L83.878,94.556L84.552,94.556L85.931,94.556L86.63,94.556L87.359,94.556L88.004,94.556L88.675,94.556L90.056,94.556L90.752,94.556L91.484,94.556L92.119,94.556L92.799,94.556L94.175,94.556L94.528,94.556L94.863,94.556L95.59,94.556L96.235,94.556L96.92,94.556L98.296,94.556L98.985,94.556L99.716,94.556L100.359,94.556L101.042,94.556L102.427,94.556L103.128,94.556L103.863,94.556L104.497,94.556L105.172,94.556L106.548,94.556L107.249,94.556L108.01,94.556L108.622,94.556L109.29,94.556L110.665,94.556L111.368,94.556L112.099,94.556L112.739,94.556L113.415,94.556L114.794,94.556L115.49,94.556L116.22,94.556L116.854,94.556L117.535,94.556L118.914,94.556L119.611,94.556L120.342,94.556L120.979,94.556L121.657,94.556L123.034,94.556L123.724,94.556L124.452,94.556L125.094,94.556L125.781,94.556L127.159,94.556L127.848,94.556L128.572,94.556L129.216,94.556L129.904,94.556L131.288,94.556L131.983,94.556L132.72,94.556L133.356,94.556L134.03,94.556L135.408,94.556L136.11,94.556L136.842,94.556L137.477,94.556L138.153,94.556L139.532,94.556L140.229,94.556L140.966,94.556L141.601,94.556L142.276,94.556L143.655,94.556L144.351,94.556L145.087,94.556L145.721,94.556L146.399,94.556L147.778,94.556L148.474,94.556L149.209,94.556L149.847,94.556L150.52,94.556L151.898,94.556L152.59,94.556L153.319,94.556L153.957,94.556L154.641,94.556L156.022,94.556L156.71,94.556L157.441,94.556L158.084,94.556L158.766,94.556L160.148,94.556L160.85,94.556L161.583,94.556L162.209,94.556L162.893,94.556L164.27,94.556L164.969,94.556L165.703,94.556L166.342,94.556L167.016,94.556L168.394,94.556L169.094,94.556L169.827,94.556L170.468,94.556L171.136,94.556L172.517,94.556L173.218,94.556L173.953,94.556L174.59,94.556L175.258,94.556L176.638,94.556L177.339,94.556L178.072,94.556L178.709,94.556L179.381,94.556L180.761,94.556L181.448,94.556L182.178,94.556L182.821,94.556L183.505,94.556L184.884,94.556L185.572,94.556L186.303,94.556L186.941,94.556L187.627,94.556L189.011,94.556L189.713,94.556L190.447,94.556L191.064,94.556L191.752,94.556L193.132,94.556L193.837,94.556L194.569,94.556L195.201,94.556L195.876,94.556L197.257,94.556L197.957,94.556L198.693,94.556L199.326,94.556L199.999,94.556" stroke="#bab0ac" stroke-width="2"/></g></g><path class="foreground" aria-hidden="true" d="" display="none"/></g><g transform="translate(0,0)"><path class="background" aria-hidden="true" d="M0,0h200v200h-200Z"/><g><g class="mark-line role-mark marks" role="graphics-object" aria-roledescription="line mark container"><path aria-label="Time: Aug 27, 2025; Price: 999; identifier: allure-rs-2-2024" role="graphics-symbol" aria-roledescription="line mark" d="M53.919,89L54.381,89L54.841,89L55.021,89L55.696,89L57.073,89L57.772,89L58.506,89L59.144,89L59.817,89L61.196,89L61.892,89L62.624,89L63.265,89L63.938,89L68.026,111.222L68.058,111.222L69.439,111.222L69.879,111.222L70.127,111.222L70.86,111.222L71.503,111.222L72.183,111.222L73.575,111.222L74.268,111.222L75,111.222L75.632,111.222L76.305,111.222L77.692,111.222L78.389,111.222L79.126,111.222L79.757,111.222L80.431,111.222L81.809,111.222L82.505,111.222L83.24,111.222L83.878,111.222L84.552,111.222L85.932,111.222L86.63,111.222L87.359,111.222L88.004,111.222L88.675,111.222L90.056,111.222L90.752,111.222L91.484,111.222L92.119,111.222L92.799,111.222L94.175,111.222L94.528,111.222L94.863,111.222L95.59,111.222L96.236,111.222L96.92,111.222L98.296,111.222L98.985,111.222L99.716,111.222L100.359,111.222L101.043,111.222L102.427,111.222L103.128,111.222L103.863,111.222L104.497,111.222L105.172,111.222L106.548,111.222L107.249,111.222L108.01,111.222L108.622,111.222L109.29,111.222L110.665,111.222L111.368,111.222L112.099,111.222L112.739,111.222L113.415,111.222L114.794,111.222L115.49,111.222L116.22,111.222L116.854,111.222L117.535,111.222L118.914,111.222L119.611,111.222L120.342,111.222L120.979,111.222L121.657,111.222L123.034,111.222L123.724,111.222L124.452,111.222L125.094,111.222L125.781,111.222L127.159,111.222L127.848,111.222L128.572,111.222L129.216,111.222L129.904,111.222L131.288,111.222L131.983,111.222L132.721,111.222L133.356,111.222L134.03,111.222L135.408,111.222L136.11,111.222L136.842,111.222L137.477,111.222L138.153,111.222L139.533,111.222L140.23,111.222L140.966,111.222L141.601,111.222L142.276,111.222L143.655,111.222L144.352,111.222L145.087,111.222L145.721,111.222L146.399,111.222L147.778,111.222L148.475,111.222L149.209,111.222L149.847,111.222L150.52,111.222L151.898,111.222L152.59,111.222L153.319,111.222L153.957,111.222L154.641,111.222L156.023,111.222L156.71,111.222L157.441,111.222L158.084,111.222L158.766,111.222L160.148,111.222L160.85,111.222L161.583,111.222L162.209,111.222L162.893,111.222L164.27,111.222L164.969,111.222L165.703,111.222L166.342,111.222L167.016,111.222L168.394,111.222L169.094,111.222L169.827,111.222L170.468,111.222L171.136,111.222L172.517,111.222L173.218,111.222L173.954,111.222L174.59,111.222L175.258,111.222L176.638,111.222L177.339,111.222L178.072,111.222L178.709,111.222L179.381,111.222L180.761,111.222L181.448,111.222L182.178,111.222L182.821,111.222L183.505,111.222L184.884,111.222L185.572,111.222L186.303,111.222L186.941,111.222L187.627,111.222L189.011,111.222L189.713,111.222L190.447,111.222L191.064,111.222L191.752,111.222L193.132,111.222L193.838,111.222L194.569,111.222L195.201,111.222L195.876,111.222L197.258,111.222L197.957,111.222L198.693,111.222L199.326,111.222L199.999,111.222" stroke="#eeca3b" stroke-width="2"/></g></g><path class="foreground" aria-hidden="true" d="" display="none"/></g><g transform="translate(0,0)"><path class="background" aria-hidden="true" d="M0,0h200v200h-200Z"/><g><g class="mark-line role-mark marks" role="graphics-object" aria-roledescription="line mark container"><path aria-label="Time: Aug 27, 2025; Price: 1799; identifier: devote-1-2024" role="graphics-symbol" aria-roledescription="line mark" d="M54.841,0.111L55.021,0.111L55.696,0.111L57.073,0.111L57.772,0.111L58.506,0.111L59.144,0.111L59.817,0.111L61.196,0.111L61.892,0.111L62.625,0.111L63.265,0.111L63.938,0.111L68.027,44.556L68.058,44.556L69.439,44.556L69.879,44.556L70.127,44.556L70.86,44.556L71.503,44.556L72.183,44.556L73.575,44.556L74.268,44.556L75,44.556L75.632,44.556L76.305,44.556L77.692,44.556L78.389,44.556L79.126,44.556L79.757,44.556L80.431,44.556L81.81,44.556L82.505,44.556L83.24,44.556L83.878,44.556L84.553,44.556L85.932,44.556L86.63,44.556L87.359,44.556L88.004,44.556L88.675,44.556L90.056,44.556L90.752,44.556L91.484,44.556L92.12,44.556L92.799,44.556L94.175,44.556L94.528,44.556L94.863,44.556L95.59,44.556L96.236,44.556L96.92,44.556L98.297,44.556L98.986,44.556L99.716,44.556L100.359,44.556L101.043,44.556L102.427,44.556L103.128,44.556L103.863,44.556L104.497,44.556L105.172,44.556L106.548,44.556L107.249,44.556L108.01,44.556L108.622,44.556L109.29,44.556L110.665,44.556L111.368,44.556L112.099,44.556L112.739,44.556L113.415,44.556L114.794,44.556L115.49,44.556L116.221,44.556L116.854,44.556L117.535,44.556L118.914,44.556L119.612,44.556L120.342,44.556L120.979,44.556L121.657,44.556L123.034,44.556L123.724,44.556L124.453,44.556L125.094,44.556L125.781,44.556L127.159,44.556L127.848,44.556L128.573,44.556L129.216,44.556L129.904,44.556L131.289,44.556L131.983,44.556L132.721,44.556L133.357,44.556L134.031,44.556L135.408,44.556L136.11,44.556L136.842,44.556L137.477,44.556L138.153,44.556L139.533,44.556L140.23,44.556L140.966,44.556L141.601,44.556L142.276,44.556L143.655,44.556L144.352,44.556L145.088,44.556L145.722,44.556L146.399,44.556L147.778,44.556L148.475,44.556L149.209,44.556L149.847,44.556L150.52,44.556L151.898,44.556L152.59,44.556L153.319,44.556L153.957,44.556L154.641,44.556L156.023,44.556L156.71,44.556L157.441,44.556L158.084,44.556L158.766,44.556L160.148,44.556L160.85,44.556L161.584,44.556L162.21,44.556L162.893,44.556L164.27,44.556L164.969,44.556L165.703,44.556L166.342,44.556L167.016,44.556L168.394,44.556L169.094,44.556L169.827,44.556L170.468,44.556L171.136,44.556L172.517,44.556L173.218,44.556L173.954,44.556L174.59,44.556L175.258,44.556L176.639,44.556L177.339,44.556L178.072,44.556L178.709,44.556L179.382,44.556L180.761,44.556L181.448,44.556L182.178,44.556L182.821,44.556L183.505,44.556L184.884,44.556L185.572,44.556L186.303,44.556L186.941,44.556L187.627,44.556L189.011,44.556L189.713,44.556L190.447,44.556L191.064,44.556L191.752,44.556L193.132,44.556L193.838,44.556L194.569,44.556L195.201,44.556L195.876,44.556L197.258,44.556L197.957,44.556L198.693,44.556L199.326,44.556L199.999,44.556" stroke="#72b7b2" stroke-width="2"/></g></g><path class="foreground" aria-hidden="true" d="" display="none"/></g><g transform="translate(0,0)"><path class="background" aria-hidden="true" d="M0,0h200v200h-200Z"/><g><g class="mark-line role-mark marks" role="graphics-object" aria-roledescription="line mark container"><path aria-label="Time: Aug 27, 2025; Price: 1699; identifier: devote-1-2022" role="graphics-symbol" aria-roledescription="line mark" d="M54.841,11.222L55.021,11.222L55.696,11.222L57.073,11.222L57.772,11.222L58.506,11.222L59.144,11.222L59.817,11.222L61.196,11.222L61.892,11.222L62.625,11.222L63.265,11.222L63.938,11.222L65.314,11.222L66.005,11.222L66.735,11.222L67.378,11.222L68.027,11.222L68.058,11.222L69.439,11.222L69.88,11.222L70.127,11.222L70.86,11.222L71.503,11.222L72.183,11.222L73.575,11.222L74.269,11.222L75,11.222L75.632,11.222L76.305,11.222L77.692,11.222L78.389,11.222L79.126,11.222L79.757,11.222L80.431,11.222L81.81,11.222L82.505,11.222L83.24,11.222L83.878,11.222L84.553,11.222L85.932,11.222L86.63,11.222L87.359,11.222L88.005,11.222L88.675,11.222L90.056,11.222L90.752,11.222L91.484,11.222L92.12,11.222L92.799,11.222L94.175,11.222L94.529,11.222L94.863,11.222L95.59,11.222L96.236,11.222L96.92,11.222L98.297,11.222L98.986,11.222L99.716,11.222L100.359,11.222L101.043,11.222L102.427,11.222L103.128,11.222L103.864,11.222L104.497,11.222L105.172,11.222L106.548,11.222L107.249,11.222L108.01,11.222L108.623,11.222L109.29,11.222L110.666,11.222L111.369,11.222L112.099,11.222L112.739,11.222L113.415,11.222L114.794,11.222L115.49,11.222L116.221,11.222L116.854,11.222L117.535,11.222L118.914,11.222L119.612,11.222L120.342,11.222L120.979,11.222L121.657,11.222L123.034,11.222L123.725,11.222L124.453,11.222L125.094,11.222L125.781,11.222L127.159,11.222L127.848,11.222L128.573,11.222L129.216,11.222L129.904,11.222L131.289,11.222L131.984,11.222L132.721,11.222L133.357,11.222L134.032,11.222L135.408,11.222L136.11,11.222L136.843,11.222L137.477,11.222L138.154,11.222L139.533,11.222L140.23,11.222L140.966,11.222L141.601,11.222L142.276,11.222L143.655,11.222L144.352,11.222L145.088,11.222L145.722,11.222L146.399,11.222L147.778,11.222L148.475,11.222L149.209,11.222L149.847,11.222L150.52,11.222L151.898,11.222L152.59,11.222L153.32,11.222L153.957,11.222L154.642,11.222L156.023,11.222L156.71,11.222L157.441,11.222L158.084,11.222L158.767,11.222L160.148,11.222L160.85,11.222L161.584,11.222L162.21,11.222L162.893,11.222L164.27,11.222L164.97,11.222L165.703,11.222L166.342,11.222L167.016,11.222L168.394,11.222L169.094,11.222L169.827,11.222L170.468,11.222L171.136,11.222L172.517,11.222L173.219,11.222L173.954,11.222L174.59,11.222L175.258,11.222L176.639,11.222L177.339,11.222L178.072,11.222L178.709,11.222L179.382,11.222L180.761,11.222L181.448,11.222L182.178,11.222L182.821,11.222L183.505,11.222L184.884,11.222L185.572,11.222L186.303,11.222L186.941,11.222L187.627,11.222L189.011,11.222L189.713,11.222L190.447,11.222L191.064,11.222L191.752,11.222L193.132,11.222L193.838,11.222L194.569,11.222L195.201,11.222L195.876,11.222L197.258,11.222L197.957,11.222L198.693,11.222L199.326,11.222L200,11.222" stroke="#4c78a8" stroke-width="2"/></g></g><path class="foreground" aria-hidden="true" d="" display="none"/></g><g transform="translate(0,0)"><path class="background" aria-hidden="true" d="M0,0h200v200h-200Z"/><g><g class="mark-line role-mark marks" role="graphics-object" aria-roledescription="line mark container"><path aria-label="Time: Aug 31, 2025; Price: 1599; identifier: silex-400-oak-bork-2026" role="graphics-symbol" aria-roledescription="line mark" d="M69.88,22.333L70.127,22.333L70.86,22.333L71.503,22.333L72.183,22.333L73.576,22.333L74.269,22.333L75,22.333L75.632,22.333L76.306,22.333L77.692,22.333L78.389,22.333L79.126,22.333L79.757,22.333L80.431,22.333L81.81,22.333L82.506,22.333L83.24,22.333L83.878,22.333L84.553,22.333L85.932,22.333L86.63,22.333L87.359,22.333L88.005,22.333L88.675,22.333L90.056,22.333L90.752,22.333L91.485,22.333L92.12,22.333L92.799,22.333L94.175,22.333L94.529,22.333L94.863,22.333L95.591,22.333L96.236,22.333L96.92,22.333L98.297,22.333L98.986,22.333L99.716,22.333L100.359,22.333L101.043,22.333L102.427,22.333L103.128,22.333L103.864,22.333L104.497,22.333L105.172,22.333L106.548,22.333L107.25,22.333L108.01,22.333L108.623,22.333L109.291,22.333L110.666,22.333L111.369,22.333L112.1,22.333L112.739,22.333L113.416,22.333L114.794,22.333L115.49,22.333L116.221,22.333L116.854,22.333L117.535,22.333L118.914,22.333L119.612,22.333L120.342,22.333L120.979,22.333L121.658,22.333L123.034,22.333L123.725,22.333L124.453,22.333L125.094,22.333L125.781,22.333L127.159,22.333L127.848,22.333L128.573,22.333L129.216,22.333L129.904,22.333L131.289,22.333L131.984,22.333L132.721,22.333L133.357,22.333L134.032,22.333L135.408,22.333L136.11,22.333L136.843,22.333L137.477,22.333L138.154,22.333L139.533,22.333L140.23,22.333L140.966,22.333L141.601,22.333L142.276,22.333L143.655,22.333L144.352,22.333L145.088,22.333L145.722,22.333L146.4,22.333L147.778,22.333L148.475,22.333L149.209,22.333L149.847,22.333L150.52,22.333L151.899,22.333L152.591,22.333L153.32,22.333L153.957,22.333L154.642,22.333L156.023,22.333L156.71,22.333L157.442,22.333L158.084,22.333L158.767,22.333L160.148,22.333L160.85,22.333L161.584,22.333L162.21,22.333L162.893,22.333L164.27,22.333L164.97,22.333L165.704,22.333L166.342,22.333L167.016,22.333L168.394,22.333L169.094,22.333L169.828,22.333L170.468,22.333L171.136,22.333L172.518,22.333L173.219,22.333L173.954,22.333L174.59,22.333L175.258,22.333L176.639,22.333L177.339,22.333L178.072,22.333L178.709,22.333L179.382,22.333L180.761,22.333L181.448,22.333L182.178,22.333L182.821,22.333L183.506,22.333L184.884,22.333L185.572,22.333L186.303,22.333L186.941,22.333L187.627,22.333L189.011,22.333L189.713,22.333L190.447,22.333L191.064,22.333L191.753,22.333L193.132,22.333L193.838,22.333L194.57,22.333L195.201,22.333L195.877,22.333L197.258,22.333L197.958,22.333L198.694,22.333L199.326,22.333L200,22.333" stroke="#f58518" stroke-width="2"/></g></g><path class="foreground" aria-hidden="true" d="" display="none"/></g><g transform="translate(0,0)"><path class="background" aria-hidden="true" d="M0,0h200v200h-200Z"/><g><g class="mark-line role-mark marks" role="graphics-object" aria-roledescription="line mark container"><path aria-label="Time: Aug 31, 2025; Price: 1599; identifier: silex-400-warm-slate-grey-2026" role="graphics-symbol" aria-roledescription="line mark" d="M69.88,22.333L70.127,22.333L70.86,22.333L71.504,22.333L72.183,22.333L73.576,22.333L74.269,22.333L75.001,22.333L75.632,22.333L76.306,22.333L77.692,22.333L78.389,22.333L79.126,22.333L79.758,22.333L80.432,22.333L81.81,22.333L82.506,22.333L83.24,22.333L83.879,22.333L84.553,22.333L85.932,22.333L86.63,22.333L87.359,22.333L88.005,22.333L88.675,22.333L90.057,22.333L90.752,22.333L91.485,22.333L92.12,22.333L92.8,22.333L94.175,22.333L94.529,22.333L94.863,22.333L95.591,22.333L96.236,22.333L96.92,22.333L98.297,22.333L98.986,22.333L99.716,22.333L100.359,22.333L101.043,22.333L102.427,22.333L103.129,22.333L103.864,22.333L104.497,22.333L105.172,22.333L106.549,22.333L107.25,22.333L108.01,22.333L108.623,22.333L109.291,22.333L110.666,22.333L111.369,22.333L112.1,22.333L112.739,22.333L113.416,22.333L114.795,22.333L115.49,22.333L116.221,22.333L116.854,22.333L117.535,22.333L118.914,22.333L119.612,22.333L120.343,22.333L120.979,22.333L121.658,22.333L123.035,22.333L123.725,22.333L124.453,22.333L125.094,22.333L125.781,22.333L127.159,22.333L127.848,22.333L128.573,22.333L129.216,22.333L129.904,22.333L131.289,22.333L131.984,22.333L132.721,22.333L133.357,22.333L134.032,22.333L135.409,22.333L136.111,22.333L136.843,22.333L137.477,22.333L138.154,22.333L139.533,22.333L140.23,22.333L140.966,22.333L141.601,22.333L142.276,22.333L143.655,22.333L144.352,22.333L145.088,22.333L145.722,22.333L146.4,22.333L147.779,22.333L148.475,22.333L149.209,22.333L149.847,22.333L150.52,22.333L151.899,22.333L152.591,22.333L153.32,22.333L153.958,22.333L154.642,22.333L156.023,22.333L156.71,22.333L157.442,22.333L158.084,22.333L158.767,22.333L160.148,22.333L160.85,22.333L161.584,22.333L162.21,22.333L162.893,22.333L164.27,22.333L164.97,22.333L165.704,22.333L166.343,22.333L167.016,22.333L168.395,22.333L169.095,22.333L169.829,22.333L170.468,22.333L171.136,22.333L172.518,22.333L173.219,22.333L173.954,22.333L174.59,22.333L175.258,22.333L176.639,22.333L177.34,22.333L178.072,22.333L178.709,22.333L179.382,22.333L180.761,22.333L181.449,22.333L182.179,22.333L182.821,22.333L183.506,22.333L184.884,22.333L185.572,22.333L186.303,22.333L186.941,22.333L187.627,22.333L189.012,22.333L189.713,22.333L190.448,22.333L191.064,22.333L191.753,22.333L193.133,22.333L193.838,22.333L194.57,22.333L195.202,22.333L195.877,22.333L197.258,22.333L197.958,22.333L198.694,22.333L199.326,22.333L200,22.333" stroke="#e45756" stroke-width="2"/></g></g><path class="foreground" aria-hidden="true" d="" display="none"/></g></g><g class="mark-group role-legend" role="graphics-symbol" aria-roledescription="legend" aria-label="Symbol legend titled 'identifier' for stroke color with 16 values: devote-1-2022, silex-400-oak-bork-2026, silex-400-warm-slate-grey-2026, devote-1-2024, fastroad-ar-2, ending with allure-rs-2-2024"><g transform="translate(220,0)"><path class="background" aria-hidden="true" d="M0,0h256v222h-256Z" pointer-events="none"/><g><g class="mark-group role-legend-entry"><g transform="translate(0,16)"><path class="background" aria-hidden="true" d="M0,0h0v0h0Z" pointer-events="none"/><g><g class="mark-group role-scope" role="graphics-object" aria-roledescription="group mark container"><g transform="translate(0,0)"><path class="background" aria-hidden="true" d="M0,0h256v11h-256Z" pointer-events="none" opacity="1"/><g><g class="mark-symbol role-legend-symbol" pointer-events="none"><path transform="translate(6,6)" d="M-5,0L5,0" stroke="#4c78a8" stroke-width="1.5" opacity="1"/></g><g class="mark-text role-legend-label" pointer-events="none"><text text-anchor="start" transform="translate(16,9)" font-family="Liberation Mono" font-size="10px" fill="#000" opacity="1">devote-1-2022</text></g></g><path class="foreground" aria-hidden="true" d="" pointer-events="none" display="none"/></g><g transform="translate(0,13)"><path class="background" aria-hidden="true" d="M0,0h256v11h-256Z" pointer-events="none" opacity="1"/><g><g class="mark-symbol role-legend-symbol" pointer-events="none"><path transform="translate(6,6)" d="M-5,0L5,0" stroke="#f58518" stroke-width="1.5" opacity="1"/></g><g class="mark-text role-legend-label" pointer-events="none"><text text-anchor="start" transform="translate(16,9)" font-family="Liberation Mono" font-size="10px" fill="#000" opacity="1">silex-400-oak-bork-2026</text></g></g><path class="foreground" aria-hidden="true" d="" pointer-events="none" display="none"/></g><g transform="translate(0,26)"><path class="background" aria-hidden="true" d="M0,0h256v11h-256Z" pointer-events="none" opacity="1"/><g><g class="mark-symbol role-legend-symbol" pointer-events="none"><path transform="translate(6,6)" d="M-5,0L5,0" stroke="#e45756" stroke-width="1.5" opacity="1"/></g><g class="mark-text role-legend-label" pointer-events="none"><text text-anchor="start" transform="translate(16,9)" font-family="Liberation Mono" font-size="10px" fill="#000" opacity="1">silex-400-warm-slate-grey-2026</text></g></g><path class="foreground" aria-hidden="true" d="" pointer-events="none" display="none"/></g><g transform="translate(0,39)"><path class="background" aria-hidden="true" d="M0,0h256v11h-256Z" pointer-events="none" opacity="1"/><g><g class="mark-symbol role-legend-symbol" pointer-events="none"><path transform="translate(6,6)" d="M-5,0L5,0" stroke="#72b7b2" stroke-width="1.5" opacity="1"/></g><g class="mark-text role-legend-label" pointer-events="none"><text text-anchor="start" transform="translate(16,9)" font-family="Liberation Mono" font-size="10px" fill="#000" opacity="1">devote-1-2024</text></g></g><path class="foreground" aria-hidden="true" d="" pointer-events="none" display="none"/></g><g transform="translate(0,52)"><path class="background" aria-hidden="true" d="M0,0h256v11h-256Z" pointer-events="none" opacity="1"/><g><g class="mark-symbol role-legend-symbol" pointer-events="none"><path transform="translate(6,6)" d="M-5,0L5,0" stroke="#54a24b" stroke-width="1.5" opacity="1"/></g><g class="mark-text role-legend-label" pointer-events="none"><text text-anchor="start" transform="translate(16,9)" font-family="Liberation Mono" font-size="10px" fill="#000" opacity="1">fastroad-ar-2</text></g></g><path class="foreground" aria-hidden="true" d="" pointer-events="none" display="none"/></g><g transform="translate(0,65)"><path class="background" aria-hidden="true" d="M0,0h256v11h-256Z" pointer-events="none" opacity="1"/><g><g class="mark-symbol role-legend-symbol" pointer-events="none"><path transform="translate(6,6)" d="M-5,0L5,0" stroke="#eeca3b" stroke-width="1.5" opacity="1"/></g><g class="mark-text role-legend-label" pointer-events="none"><text text-anchor="start" transform="translate(16,9)" font-family="Liberation Mono" font-size="10px" fill="#000" opacity="1">thrive-2</text></g></g><path class="foreground" aria-hidden="true" d="" pointer-events="none" display="none"/></g><g transform="translate(0,78)"><path class="background" aria-hidden="true" d="M0,0h256v11h-256Z" pointer-events="none" opacity="1"/><g><g class="mark-symbol role-legend-symbol" pointer-events="none"><path transform="translate(6,6)" d="M-5,0L5,0" stroke="#b279a2" stroke-width="1.5" opacity="1"/></g><g class="mark-text role-legend-label" pointer-events="none"><text text-anchor="start" transform="translate(16,9)" font-family="Liberation Mono" font-size="10px" fill="#000" opacity="1">allure-rs-1-2023</text></g></g><path class="foreground" aria-hidden="true" d="" pointer-events="none" display="none"/></g><g transform="translate(0,91)"><path class="background" aria-hidden="true" d="M0,0h256v11h-256Z" pointer-events="none" opacity="1"/><g><g class="mark-symbol role-legend-symbol" pointer-events="none"><path transform="translate(6,6)" d="M-5,0L5,0" stroke="#ff9da6" stroke-width="1.5" opacity="1"/></g><g class="mark-text role-legend-label" pointer-events="none"><text text-anchor="start" transform="translate(16,9)" font-family="Liberation Mono" font-size="10px" fill="#000" opacity="1">roam-2</text></g></g><path class="foreground" aria-hidden="true" d="" pointer-events="none" display="none"/></g><g transform="translate(0,104)"><path class="background" aria-hidden="true" d="M0,0h256v11h-256Z" pointer-events="none" opacity="1"/><g><g class="mark-symbol role-legend-symbol" pointer-events="none"><path transform="translate(6,6)" d="M-5,0L5,0" stroke="#9d755d" stroke-width="1.5" opacity="1"/></g><g class="mark-text role-legend-label" pointer-events="none"><text text-anchor="start" transform="translate(16,9)" font-family="Liberation Mono" font-size="10px" fill="#000" opacity="1">fastroad-sl-3-2022</text></g></g><path class="foreground" aria-hidden="true" d="" pointer-events="none" display="none"/></g><g transform="translate(0,117)"><path class="background" aria-hidden="true" d="M0,0h256v11h-256Z" pointer-events="none" opacity="1"/><g><g class="mark-symbol role-legend-symbol" pointer-events="none"><path transform="translate(6,6)" d="M-5,0L5,0" stroke="#bab0ac" stroke-width="1.5" opacity="1"/></g><g class="mark-text role-legend-label" pointer-events="none"><text text-anchor="start" transform="translate(16,9)" font-family="Liberation Mono" font-size="10px" fill="#000" opacity="1">allure-rs-2-2023</text></g></g><path class="foreground" aria-hidden="true" d="" pointer-events="none" display="none"/></g><g transform="translate(0,130)"><path class="background" aria-hidden="true" d="M0,0h256v11h-256Z" pointer-events="none" opacity="1"/><g><g class="mark-symbol role-legend-symbol" pointer-events="none"><path transform="translate(6,6)" d="M-5,0L5,0" stroke="#4c78a8" stroke-width="1.5" opacity="1"/></g><g class="mark-text role-legend-label" pointer-events="none"><text text-anchor="start" transform="translate(16,9)" font-family="Liberation Mono" font-size="10px" fill="#000" opacity="1">escape-city-disc-1-2024</text></g></g><path class="foreground" aria-hidden="true" d="" pointer-events="none" display="none"/></g><g transform="translate(0,143)"><path class="background" aria-hidden="true" d="M0,0h256v11h-256Z" pointer-events="none" opacity="1"/><g><g class="mark-symbol role-legend-symbol" pointer-events="none"><path transform="translate(6,6)" d="M-5,0L5,0" stroke="#f58518" stroke-width="1.5" opacity="1"/></g><g class="mark-text role-legend-label" pointer-events="none"><text text-anchor="start" transform="translate(16,9)" font-family="Liberation Mono" font-size="10px" fill="#000" opacity="1">sdrbike-escape-1-city-disc</text></g></g><path class="foreground" aria-hidden="true" d="" pointer-events="none" display="none"/></g><g transform="translate(0,156)"><path class="background" aria-hidden="true" d="M0,0h256v11h-256Z" pointer-events="none" opacity="1"/><g><g class="mark-symbol role-legend-symbol" pointer-events="none"><path transform="translate(6,6)" d="M-5,0L5,0" stroke="#e45756" stroke-width="1.5" opacity="1"/></g><g class="mark-text role-legend-label" pointer-events="none"><text text-anchor="start" transform="translate(16,9)" font-family="Liberation Mono" font-size="10px" fill="#000" opacity="1">roam-disc-2-2024</text></g></g><path class="foreground" aria-hidden="true" d="" pointer-events="none" display="none"/></g><g transform="translate(0,169)"><path class="background" aria-hidden="true" d="M0,0h256v11h-256Z" pointer-events="none" opacity="1"/><g><g class="mark-symbol role-legend-symbol" pointer-events="none"><path transform="translate(6,6)" d="M-5,0L5,0" stroke="#72b7b2" stroke-width="1.5" opacity="1"/></g><g class="mark-text role-legend-label" pointer-events="none"><text text-anchor="start" transform="translate(16,9)" font-family="Liberation Mono" font-size="10px" fill="#000" opacity="1">rove-2</text></g></g><path class="foreground" aria-hidden="true" d="" pointer-events="none" display="none"/></g><g transform="translate(0,182)"><path class="background" aria-hidden="true" d="M0,0h256v11h-256Z" pointer-events="none" opacity="1"/><g><g class="mark-symbol role-legend-symbol" pointer-events="none"><path transform="translate(6,6)" d="M-5,0L5,0" stroke="#54a24b" stroke-width="1.5" opacity="1"/></g><g class="mark-text role-legend-label" pointer-events="none"><text text-anchor="start" transform="translate(16,9)" font-family="Liberation Mono" font-size="10px" fill="#000" opacity="1">allure-rs-2-2022</text></g></g><path class="foreground" aria-hidden="true" d="" pointer-events="none" display="none"/></g><g transform="translate(0,195)"><path class="background" aria-hidden="true" d="M0,0h256v11h-256Z" pointer-events="none" opacity="1"/><g><g class="mark-symbol role-legend-symbol" pointer-events="none"><path transform="translate(6,6)" d="M-5,0L5,0" stroke="#eeca3b" stroke-width="1.5" opacity="1"/></g><g class="mark-text role-legend-label" pointer-events="none"><text text-anchor="start" transform="translate(16,9)" font-family="Liberation Mono" font-size="10px" fill="#000" opacity="1">allure-rs-2-2024</text></g></g><path class="foreground" aria-hidden="true" d="" pointer-events="none" display="none"/></g></g></g><path class="foreground" aria-hidden="true" d="" pointer-events="none" display="none"/></g></g><g class="mark-text role-legend-title" pointer-events="none"><text text-anchor="start" transform="translate(0,9)" font-family="Liberation Mono" font-size="11px" font-weight="bold" fill="#000" opacity="1">identifier</text></g></g><path class="foreground" aria-hidden="true" d="" pointer-events="none" display="none"/></g></g></g><path class="foreground" aria-hidden="true" d="" display="none"/></g></g></g></svg>