<svg xmlns="http://www.w3.org/2000/svg" xmlns:xlink="http://www.w3.org/1999/xlink" version="1.1" class="marks" width="516" height="244" viewBox="0 0 516 244"><rect width="516" height="244" fill="white"/><g fill="none" stroke-miterlimit="10" transform="translate(67,7)"><g class="mark-group role-frame root" role="graphics-object" aria-roledescription="group mark container"><g transform="translate(0,0)"><path class="background" aria-hidden="true" d="M0.5,0.5h200v200h-200Z" stroke="#ddd"/><g><g class="mark-group role-axis" aria-hidden="true"><g transform="translate(0.5,200.5)"><path class="background" aria-hidden="true" d="M0,0h0v0h0Z" pointer-events="none"/><g><g class="mark-rule role-axis-grid" pointer-events="none"><line transform="translate(8,-200)" x2="0" y2="200" stroke="#ddd" stroke-width="1" opacity="1"/><line transform="translate(32,-200)" x2="0" y2="200" stroke="#ddd" stroke-width="1" opacity="1"/><line transform="translate(56,-200)" x2="0" y2="200" stroke="#ddd" stroke-width="1" opacity="1"/><line transform="translate(80,-200)" x2="0" y2="200" stroke="#ddd" stroke-width="1" opacity="1"/><line transform="translate(105,-200)" x2="0" y2="200" stroke="#ddd" stroke-width="1" opacity="1"/><line transform="translate(129,-200)" x2="0" y2="200" stroke="#ddd" stroke-width="1" opacity="1"/><line transform="translate(153,-200)" x2="0" y2="200" stroke="#ddd" stroke-width="1" opacity="1"/><line transform="translate(177,-200)" x2="0" y2="200" stroke="#ddd" stroke-width="1" opacity="1"/></g></g><path class="foreground" aria-hidden="true" d="" pointer-events="none" display="none"/></g></g><g class="mark-group role-axis" aria-hidden="true"><g transform="translate(0.5,0.5)"><path class="background" aria-hidden="true" d="M0,0h0v0h0Z" pointer-events="none"/><g><g class="mark-rule role-axis-grid" pointer-events="none"><line transform="translate(0,200)" x2="200" y2="0" stroke="#ddd" stroke-width="1" opacity="1"/><line transform="translate(0,144)" x2="200" y2="0" stroke="#ddd" stroke-width="1" opacity="1"/><line transform="translate(0,89)" x2="200" y2="0" stroke="#ddd" stroke-width="1" opacity="1"/><line transform="translate(0,33)" x2="200" y2="0" stroke="#ddd" stroke-width="1" opacity="1"/></g></g><path class="foreground" aria-hidden="true" d="" pointer-events="none" display="none"/></g></g><g class="mark-group role-axis" role="graphics-symbol" aria-roledescription="axis" aria-label="X-axis titled 'Time' for a time scale with values from Thursday, 14 August 2025, 8:34:48 AM to Saturday, 30 August 2025, 8:44:39 PM"><g transform="translate(0.5,200.5)"><path class="background" aria-hidden="true" d="M0,0h0v0h0Z" pointer-events="none"/><g><g class="mark-rule role-axis-tick" pointer-events="none"><line transform="translate(8,0)" x2="0" y2="5" stroke="#888" stroke-width="1" opacity="1"/><line transform="translate(32,0)" x2="0" y2="5" stroke="#888" stroke-width="1" opacity="1"/><line transform="translate(56,0)" x2="0" y2="5" stroke="#888" stroke-width="1" opacity="1"/><line transform="translate(80,0)" x2="0" y2="5" stroke="#888" stroke-width="1" opacity="1"/><line transform="translate(105,0)" x2="0" y2="5" stroke="#888" stroke-width="1" opacity="1"/><line transform="translate(129,0)" x2="0" y2="5" stroke="#888" stroke-width="1" opacity="1"/><line transform="translate(153,0)" x2="0" y2="5" stroke="#888" stroke-width="1" opacity="1"/><line transform="translate(177,0)" x2="0" y2="5" stroke="#888" stroke-width="1" opacity="1"/></g><g class="mark-text role-axis-label" pointer-events="none"><text text-anchor="middle" transform="translate(7.784548275704925,15)" font-family="Liberation Mono" font-size="10px" fill="#000" opacity="1">Fri 15</text><text text-anchor="middle" transform="translate(32.01693474157884,15)" font-family="Liberation Mono" font-size="10px" fill="#000" opacity="0">Aug 17</text><text text-anchor="middle" transform="translate(56.24932120745275,15)" font-family="Liberation Mono" font-size="10px" fill="#000" opacity="1">Tue 19</text><text text-anchor="middle" transform="translate(80.48170767332667,15)" font-family="Liberation Mono" font-size="10px" fill="#000" opacity="0">Thu 21</text><text text-anchor="middle" transform="translate(104.71409413920058,15)" font-family="Liberation Mono" font-size="10px" fill="#000" opacity="1">Sat 23</text><text text-anchor="middle" transform="translate(128.9464806050745,15)" font-family="Liberation Mono" font-size="10px" fill="#000" opacity="0">Mon 25</text><text text-anchor="middle" transform="translate(153.1788670709484,15)" font-family="Liberation Mono" font-size="10px" fill="#000" opacity="1">Wed 27</text><text text-anchor="middle" transform="translate(177.41125353682233,15)" font-family="Liberation Mono" font-size="10px" fill="#000" opacity="0">Fri 29</text></g><g class="mark-rule role-axis-domain" pointer-events="none"><line transform="translate(0,0)" x2="200" y2="0" stroke="#888" stroke-width="1" opacity="1"/></g><g class="mark-text role-axis-title" pointer-events="none"><text text-anchor="middle" transform="translate(100,30)" font-family="Liberation Mono" font-size="11px" font-weight="bold" fill="#000" opacity="1">Time</text></g></g><path class="foreground" aria-hidden="true" d="" pointer-events="none" display="none"/></g></g><g class="mark-group role-axis" role="graphics-symbol" aria-roledescription="axis" aria-label="Y-axis titled 'Price' for a linear scale with values from 0 to 1,800"><g transform="translate(0.5,0.5)"><path class="background" aria-hidden="true" d="M0,0h0v0h0Z" pointer-events="none"/><g><g class="mark-rule role-axis-tick" pointer-events="none"><line transform="translate(0,200)" x2="-5" y2="0" stroke="#888" stroke-width="1" opacity="1"/><line transform="translate(0,144)" x2="-5" y2="0" stroke="#888" stroke-width="1" opacity="1"/><line transform="translate(0,89)" x2="-5" y2="0" stroke="#888" stroke-width="1" opacity="1"/><line transform="translate(0,33)" x2="-5" y2="0" stroke="#888" stroke-width="1" opacity="1"/></g><g class="mark-text role-axis-label" pointer-events="none"><text text-anchor="end" transform="translate(-7,203)" font-family="Liberation Mono" font-size="10px" fill="#000" opacity="1">0</text><text text-anchor="end" transform="translate(-7,147.44444444444443)" font-family="Liberation Mono" font-size="10px" fill="#000" opacity="1">500</text><text text-anchor="end" transform="translate(-7,91.88888888888889)" font-family="Liberation Mono" font-size="10px" fill="#000" opacity="1">1,000</text><text text-anchor="end" transform="translate(-7,36.33333333333333)" font-family="Liberation Mono" font-size="10px" fill="#000" opacity="1">1,500</text></g><g class="mark-rule role-axis-domain" pointer-events="none"><line transform="translate(0,200)" x2="0" y2="-200" stroke="#888" stroke-width="1" opacity="1"/></g><g class="mark-text role-axis-title" pointer-events="none"><text text-anchor="middle" transform="translate(-51,100) rotate(-90) translate(0,-2)" font-family="Liberation Mono" font-size="11px" font-weight="bold" fill="#000" opacity="1">Price</text></g></g><path class="foreground" aria-hidden="true" d="" pointer-events="none" display="none"/></g></g><g class="mark-group role-scope pathgroup" role="graphics-object" aria-roledescription="group mark container"><g transform="translate(0,0)"><path class="background" aria-hidden="true" d="M0,0h200v200h-200Z"/><g><g class="mark-line role-mark marks" role="graphics-object" aria-roledescription="line mark container"><path aria-label="Time: Aug 14, 2025; Price: 899; identifier: escape-city-disc-1-2024" role="graphics-symbol" aria-roledescription="line mark" d="M0,100.111L0.101,100.111L0.18,100.111L2.414,100.111L4.189,100.111L6.181,100.111L10.268,100.111L12.274,100.111L14.49,100.111L16.308,100.111L18.289,100.111L22.345,100.111L24.375,100.111L26.526,100.111L28.4,100.111L30.387,100.111L34.507,100.111L36.487,100.111L38.648,100.111L40.525,100.111L42.519,100.111L46.658,100.111L48.648,100.111L50.88,100.111L51.663,100.111L52.68,100.111L54.623,100.111L58.682,100.111L60.733,100.111L62.885,100.111L64.765,100.111L66.735,100.111L70.803,100.111L72.834,100.111L75.074,100.111L75.979,100.111L76.876,100.111L78.865,100.111L82.911,100.111L84.959,100.111L87.121,100.111L89.001,100.111L90.975,100.111L95.031,100.111L97.072,100.111L99.232,100.111L101.104,100.111L103.085,100.111L107.138,100.111L109.169,100.111L111.311,100.111L113.189,100.111L115.189,100.111L119.269,100.111L121.277,100.111L123.433,100.111L125.32,100.111L127.309,100.111L131.402,100.111L133.447,100.111L135.657,100.111L137.466,100.111L139.439,100.111L143.498,100.111L145.555,100.111L149.571,100.111L151.543,100.111L155.599,100.111L157.647,100.111L158.441,100.111L159.805,100.111L161.156,100.111L161.685,100.111L163.667,100.111L167.714,100.111L169.768,100.111L171.926,100.111L173.799,100.111L175.779,100.111L179.831,100.111L181.876,100.111L184.028,100.111L185.911,100.111L187.888,100.111L191.933,100.111L193.963,100.111L196.107,100.111L197.997,100.111L199.902,100.111L199.997,100.111" stroke="#f58518" stroke-width="2"/></g></g><path class="foreground" aria-hidden="true" d="" display="none"/></g><g transform="translate(0,0)"><path class="background" aria-hidden="true" d="M0,0h200v200h-200Z"/><g><g class="mark-line role-mark marks" role="graphics-object" aria-roledescription="line mark container"><path aria-label="Time: Aug 14, 2025; Price: 999; identifier: roam-2" role="graphics-symbol" aria-roledescription="line mark" d="M0,89L0.101,89L0.18,89L2.414,89L4.19,89L6.181,89L10.268,89L12.274,89L14.49,89L16.308,89L18.29,89L22.345,89L24.375,89L26.526,89L28.4,89L30.406,89L34.508,89L36.487,89L38.648,89L40.525,89L42.519,89L46.658,89L48.648,89L50.88,89L51.663,89L52.681,89L54.623,89L58.683,89L60.733,89L62.885,89L64.765,89L66.735,89L70.803,89L72.834,89L75.074,89L75.98,89L76.877,89L78.866,89L82.912,89L84.96,89L87.121,89L89.001,89L90.976,89L95.031,89L97.072,89L99.233,89L101.105,89L103.085,89L107.139,89L109.169,89L111.311,89L113.189,89L115.189,89L119.269,89L121.277,89L123.434,89L125.32,89L127.309,89L131.403,89L133.447,89L135.658,89L137.467,89L139.439,89L143.499,89L145.556,89L149.571,89L151.543,89L155.6,89L157.647,89L158.442,89L159.806,89L161.157,89L161.686,89L163.668,89L167.714,89L169.769,89L171.927,89L173.8,89L175.779,89L179.831,89L181.877,89L184.029,89L185.911,89L187.889,89L191.934,89L193.964,89L196.107,89L197.998,89L199.903,89L199.997,89" stroke="#eeca3b" stroke-width="2"/></g></g><path class="foreground" aria-hidden="true" d="" display="none"/></g><g transform="translate(0,0)"><path class="background" aria-hidden="true" d="M0,0h200v200h-200Z"/><g><g class="mark-line role-mark marks" role="graphics-object" aria-roledescription="line mark container"><path aria-label="Time: Aug 14, 2025; Price: 999; identifier: fastroad-sl-3-2022" role="graphics-symbol" aria-roledescription="line mark" d="M0.001,89L0.101,89L0.181,89L2.415,89L4.19,89L6.182,89L10.268,89L12.275,89L14.491,89L16.308,89L18.29,89L22.345,89L24.376,89L26.526,89L28.401,89L30.406,89L34.508,89L36.488,89L38.648,89L40.526,89L42.519,89L46.659,89L48.648,89L50.88,89L51.664,89L52.681,89L54.624,89L58.683,89L60.734,89L62.886,89L64.765,89L66.736,89L70.803,89L72.834,89L75.074,89L75.98,89L76.877,89L78.866,89L82.912,89L84.96,89L87.122,89L89.001,89L90.976,89L95.032,89L97.073,89L99.233,89L101.105,89L103.085,89L107.139,89L109.17,89L111.311,89L113.189,89L115.189,89L119.27,89L121.278,89L123.434,89L125.321,89L127.309,89L131.403,89L133.448,89L135.658,89L137.467,89L139.44,89L143.499,89L145.556,89L149.572,89L151.543,89L155.6,89L157.648,89L158.443,89L159.806,89L161.157,89L161.686,89L163.668,89L167.714,89L169.769,89L171.927,89L173.8,89L175.78,89L179.831,89L181.877,89L184.029,89L185.911,89L187.889,89L191.934,89L193.964,89L196.108,89L197.998,89L199.903,89L199.998,89" stroke="#b279a2" stroke-width="2"/></g></g><path class="foreground" aria-hidden="true" d="" display="none"/></g><g transform="translate(0,0)"><path class="background" aria-hidden="true" d="M0,0h200v200h-200Z"/><g><g class="mark-line role-mark marks" role="graphics-object" aria-roledescription="line mark container"><path aria-label="Time: Aug 14, 2025; Price: 1199; identifier: fastroad-ar-2" role="graphics-symbol" aria-roledescription="line mark" d="M0.001,66.778L0.101,66.778L0.181,66.778L2.415,66.778L4.19,66.778L6.182,66.778L10.269,66.778L12.275,66.778L14.491,66.778L16.308,66.778L18.29,66.778L22.346,66.778L24.376,66.778L26.527,66.778L28.401,66.778L30.416,66.778L34.508,66.778L36.488,66.778L38.649,66.778L40.526,66.778L42.52,66.778L46.659,66.778L48.649,66.778L50.881,66.778L51.664,66.778L52.681,66.778L54.624,66.778L58.683,66.778L60.734,66.778L62.886,66.778L64.766,66.778L66.736,66.778L70.803,66.778L72.834,66.778L75.074,66.778L75.981,66.778L76.878,66.778L78.867,66.778L82.912,66.778L84.96,66.778L87.122,66.778L89.002,66.778L90.976,66.778L95.032,66.778L97.073,66.778L99.233,66.778L101.105,66.778L103.086,66.778L107.139,66.778L109.17,66.778L111.312,66.778L113.19,66.778L115.19,66.778L119.27,66.778L121.278,66.778L123.434,66.778L125.321,66.778L127.31,66.778L131.403,66.778L133.448,66.778L135.658,66.778L137.467,66.778L139.44,66.778L143.501,66.778L145.556,66.778L149.572,66.778L151.544,66.778L155.601,66.778L157.648,66.778L158.443,66.778L159.806,66.778L161.157,66.778L161.686,66.778L163.668,66.778L167.715,66.778L169.769,66.778L171.927,66.778L173.8,66.778L175.78,66.778L179.832,66.778L181.877,66.778L184.029,66.778L185.912,66.778L187.889,66.778L191.934,66.778L193.965,66.778L196.108,66.778L197.998,66.778L199.904,66.778L199.998,66.778" stroke="#e45756" stroke-width="2"/></g></g><path class="foreground" aria-hidden="true" d="" display="none"/></g><g transform="translate(0,0)"><path class="background" aria-hidden="true" d="M0,0h200v200h-200Z"/><g><g class="mark-line role-mark marks" role="graphics-object" aria-roledescription="line mark container"><path aria-label="Time: Aug 18, 2025; Price: 899; identifier: sdrbike-escape-1-city-disc" role="graphics-symbol" aria-roledescription="line mark" d="M51.664,100.111L52.682,100.111L54.624,100.111L58.684,100.111L60.734,100.111L62.886,100.111L64.766,100.111L66.736,100.111L70.804,100.111L72.835,100.111L75.075,100.111L75.981,100.111L76.878,100.111L78.867,100.111L82.913,100.111L84.96,100.111L87.122,100.111L89.002,100.111L90.977,100.111L95.032,100.111L97.073,100.111L99.234,100.111L101.106,100.111L103.086,100.111L107.14,100.111L109.171,100.111L111.312,100.111L113.19,100.111L115.19,100.111L119.27,100.111L121.279,100.111L123.435,100.111L125.321,100.111L127.31,100.111L131.404,100.111L133.448,100.111L135.659,100.111L137.468,100.111L139.44,100.111L143.501,100.111L145.557,100.111L149.572,100.111L151.544,100.111L155.601,100.111L157.648,100.111L158.444,100.111L159.806,100.111L161.157,100.111L161.687,100.111L163.669,100.111L167.715,100.111L169.77,100.111L171.928,100.111L173.801,100.111L175.78,100.111L179.832,100.111L181.878,100.111L184.03,100.111L185.912,100.111L187.89,100.111L191.934,100.111L193.965,100.111L196.109,100.111L197.999,100.111L199.904,100.111L199.998,100.111" stroke="#e45756" stroke-width="2"/></g></g><path class="foreground" aria-hidden="true" d="" display="none"/></g><g transform="translate(0,0)"><path class="background" aria-hidden="true" d="M0,0h200v200h-200Z"/><g><g class="mark-line role-mark marks" role="graphics-object" aria-roledescription="line mark container"><path aria-label="Time: Aug 20, 2025; Price: 899; identifier: roam-disc-2-2024" role="graphics-symbol" aria-roledescription="line mark" d="M75.98,100.111L76.877,100.111L78.865,100.111L82.912,100.111L84.959,100.111L87.121,100.111L89.001,100.111L90.975,100.111L95.031,100.111L97.072,100.111L99.232,100.111L101.105,100.111L103.085,100.111L107.138,100.111L109.169,100.111L111.311,100.111L113.189,100.111L115.189,100.111L119.269,100.111L121.277,100.111L123.433,100.111L125.32,100.111L127.309,100.111L131.402,100.111L133.447,100.111L135.658,100.111L137.467,100.111L139.439,100.111L143.499,100.111L145.555,100.111L149.571,100.111L151.543,100.111L155.6,100.111L157.647,100.111L158.442,100.111L159.805,100.111L161.157,100.111L161.686,100.111L163.668,100.111L167.714,100.111L169.768,100.111L171.927,100.111L173.8,100.111L175.779,100.111L179.831,100.111L181.876,100.111L184.028,100.111L185.911,100.111L187.888,100.111L191.933,100.111L193.964,100.111L196.107,100.111L197.998,100.111L199.902,100.111L199.997,100.111" stroke="#72b7b2" stroke-width="2"/></g></g><path class="foreground" aria-hidden="true" d="" display="none"/></g><g transform="translate(0,0)"><path class="background" aria-hidden="true" d="M0,0h200v200h-200Z"/><g><g class="mark-line role-mark marks" role="graphics-object" aria-roledescription="line mark container"><path aria-label="Time: Aug 20, 2025; Price: 1199; identifier: thrive-2" role="graphics-symbol" aria-roledescription="line mark" d="M75.981,66.778L76.878,66.778L78.867,66.778L82.913,66.778L84.961,66.778L87.123,66.778L89.002,66.778L90.977,66.778L95.033,66.778L97.074,66.778L99.234,66.778L101.106,66.778L103.086,66.778L107.14,66.778L109.171,66.778L111.312,66.778L113.19,66.778L115.19,66.778L119.271,66.778L121.279,66.778L123.436,66.778L125.321,66.778L127.31,66.778L131.404,66.778L133.448,66.778L135.659,66.778L137.468,66.778L139.441,66.778L143.501,66.778L145.557,66.778L149.573,66.778L151.544,66.778L155.602,66.778L157.649,66.778L158.445,66.778L159.807,66.778L161.158,66.778L161.687,66.778L163.669,66.778L167.715,66.778L169.77,66.778L171.928,66.778L173.801,66.778L175.781,66.778L179.832,66.778L181.878,66.778L184.03,66.778L185.912,66.778L187.89,66.778L191.935,66.778L193.965,66.778L196.109,66.778L197.999,66.778L199.904,66.778L199.998,66.778" stroke="#72b7b2" stroke-width="2"/></g></g><path class="foreground" aria-hidden="true" d="" display="none"/></g><g transform="translate(0,0)"><path class="background" aria-hidden="true" d="M0,0h200v200h-200Z"/><g><g class="mark-line role-mark marks" role="graphics-object" aria-roledescription="line mark container"><path aria-label="Time: Aug 20, 2025; Price: 999; identifier: rove-2" role="graphics-symbol" aria-roledescription="line mark" d="M75.982,89L76.879,89L78.868,89L82.913,89L84.961,89L87.123,89L89.002,89L90.977,89L95.033,89L97.074,89L99.234,89L101.106,89L103.087,89L107.14,89L109.171,89L111.313,89L113.191,89L115.191,89L119.271,89L121.279,89L123.436,89L125.322,89L127.311,89L131.404,89L133.449,89L135.659,89L137.469,89L139.441,89L143.502,89L145.557,89L149.573,89L151.544,89L155.602,89L157.649,89L158.446,89L159.807,89L161.158,89L161.687,89L163.67,89L167.716,89L169.77,89L171.929,89L173.801,89L175.781,89L179.833,89L181.878,89L184.03,89L185.912,89L187.89,89L199.905,111.222L199.999,111.222" stroke="#ff9da6" stroke-width="2"/></g></g><path class="foreground" aria-hidden="true" d="" display="none"/></g><g transform="translate(0,0)"><path class="background" aria-hidden="true" d="M0,0h200v200h-200Z"/><g><g class="mark-line role-mark marks" role="graphics-object" aria-roledescription="line mark container"><path aria-label="Time: Aug 27, 2025; Price: 1199; identifier: allure-rs-1-2023" role="graphics-symbol" aria-roledescription="line mark" d="M158.446,66.778L159.807,66.778L161.158,66.778L161.687,66.778L163.67,66.778L167.716,66.778L169.771,66.778L171.929,66.778L173.801,66.778L175.781,66.778L179.833,66.778L181.878,66.778L184.031,66.778L185.913,66.778L187.891,66.778L191.935,66.778L193.966,66.778L196.11,66.778L197.999,66.778L199.905,66.778L199.999,66.778" stroke="#54a24b" stroke-width="2"/></g></g><path class="foreground" aria-hidden="true" d="" display="none"/></g><g transform="translate(0,0)"><path class="background" aria-hidden="true" d="M0,0h200v200h-200Z"/><g><g class="mark-line role-mark marks" role="graphics-object" aria-roledescription="line mark container"><path aria-label="Time: Aug 27, 2025; Price: 999; identifier: allure-rs-2-2022" role="graphics-symbol" aria-roledescription="line mark" d="M158.447,89L159.807,89L161.158,89L161.688,89L163.67,89L167.716,89L169.771,89L171.929,89L173.802,89L175.781,89L179.833,89L181.879,89L184.031,89L185.913,89L187.891,89L199.905,111.222L199.999,111.222" stroke="#9d755d" stroke-width="2"/></g></g><path class="foreground" aria-hidden="true" d="" display="none"/></g><g transform="translate(0,0)"><path class="background" aria-hidden="true" d="M0,0h200v200h-200Z"/><g><g class="mark-line role-mark marks" role="graphics-object" aria-roledescription="line mark container"><path aria-label="Time: Aug 27, 2025; Price: 949; identifier: allure-rs-2-2023" role="graphics-symbol" aria-roledescription="line mark" d="M158.448,94.556L159.808,94.556L161.159,94.556L161.688,94.556L163.671,94.556L167.717,94.556L169.771,94.556L171.929,94.556L173.802,94.556L175.781,94.556L179.833,94.556L181.879,94.556L184.031,94.556L185.913,94.556L187.891,94.556L191.936,94.556L193.966,94.556L196.11,94.556L198,94.556L199.906,94.556L199.999,94.556" stroke="#4c78a8" stroke-width="2"/></g></g><path class="foreground" aria-hidden="true" d="" display="none"/></g><g transform="translate(0,0)"><path class="background" aria-hidden="true" d="M0,0h200v200h-200Z"/><g><g class="mark-line role-mark marks" role="graphics-object" aria-roledescription="line mark container"><path aria-label="Time: Aug 27, 2025; Price: 999; identifier: allure-rs-2-2024" role="graphics-symbol" aria-roledescription="line mark" d="M158.448,89L159.808,89L161.159,89L161.688,89L163.671,89L167.717,89L169.772,89L171.93,89L173.802,89L175.782,89L179.834,89L181.879,89L184.031,89L185.913,89L187.892,89L199.906,111.222L200,111.222" stroke="#bab0ac" stroke-width="2"/></g></g><path class="foreground" aria-hidden="true" d="" display="none"/></g><g transform="translate(0,0)"><path class="background" aria-hidden="true" d="M0,0h200v200h-200Z"/><g><g class="mark-line role-mark marks" role="graphics-object" aria-roledescription="line mark container"><path aria-label="Time: Aug 27, 2025; Price: 1799; identifier: devote-1-2024" role="graphics-symbol" aria-roledescription="line mark" d="M161.159,0.111L161.688,0.111L163.671,0.111L167.717,0.111L169.772,0.111L171.93,0.111L173.803,0.111L175.782,0.111L179.834,0.111L181.879,0.111L184.032,0.111L185.914,0.111L187.892,0.111L199.906,44.556L200,44.556" stroke="#4c78a8" stroke-width="2"/></g></g><path class="foreground" aria-hidden="true" d="" display="none"/></g><g transform="translate(0,0)"><path class="background" aria-hidden="true" d="M0,0h200v200h-200Z"/><g><g class="mark-line role-mark marks" role="graphics-object" aria-roledescription="line mark container"><path aria-label="Time: Aug 27, 2025; Price: 1699; identifier: devote-1-2022" role="graphics-symbol" aria-roledescription="line mark" d="M161.159,11.222L161.689,11.222L163.671,11.222L167.718,11.222L169.772,11.222L171.93,11.222L173.803,11.222L175.782,11.222L179.834,11.222L181.88,11.222L184.032,11.222L185.914,11.222L187.892,11.222L191.936,11.222L193.967,11.222L196.111,11.222L198.001,11.222L199.907,11.222L200,11.222" stroke="#f58518" stroke-width="2"/></g></g><path class="foreground" aria-hidden="true" d="" display="none"/></g></g><g class="mark-group role-legend" role="graphics-symbol" aria-roledescription="legend" aria-label="Symbol legend titled 'identifier' for stroke color with 14 values: devote-1-2024, devote-1-2022, fastroad-ar-2, thrive-2, allure-rs-1-2023, ending with roam-disc-2-2024"><g transform="translate(220,0)"><path class="background" aria-hidden="true" d="M0,0h224v196h-224Z" pointer-events="none"/><g><g class="mark-group role-legend-entry"><g transform="translate(0,16)"><path class="background" aria-hidden="true" d="M0,0h0v0h0Z" pointer-events="none"/><g><g class="mark-group role-scope" role="graphics-object" aria-roledescription="group mark container"><g transform="translate(0,0)"><path class="background" aria-hidden="true" d="M0,0h224v11h-224Z" pointer-events="none" opacity="1"/><g><g class="mark-symbol role-legend-symbol" pointer-events="none"><path transform="translate(6,6)" d="M-5,0L5,0" stroke="#4c78a8" stroke-width="1.5" opacity="1"/></g><g class="mark-text role-legend-label" pointer-events="none"><text text-anchor="start" transform="translate(16,9)" font-family="Liberation Mono" font-size="10px" fill="#000" opacity="1">devote-1-2024</text></g></g><path class="foreground" aria-hidden="true" d="" pointer-events="none" display="none"/></g><g transform="translate(0,13)"><path class="background" aria-hidden="true" d="M0,0h224v11h-224Z" pointer-events="none" opacity="1"/><g><g class="mark-symbol role-legend-symbol" pointer-events="none"><path transform="translate(6,6)" d="M-5,0L5,0" stroke="#f58518" stroke-width="1.5" opacity="1"/></g><g class="mark-text role-legend-label" pointer-events="none"><text text-anchor="start" transform="translate(16,9)" font-family="Liberation Mono" font-size="10px" fill="#000" opacity="1">devote-1-2022</text></g></g><path class="foreground" aria-hidden="true" d="" pointer-events="none" display="none"/></g><g transform="translate(0,26)"><path class="background" aria-hidden="true" d="M0,0h224v11h-224Z" pointer-events="none" opacity="1"/><g><g class="mark-symbol role-legend-symbol" pointer-events="none"><path transform="translate(6,6)" d="M-5,0L5,0" stroke="#e45756" stroke-width="1.5" opacity="1"/></g><g class="mark-text role-legend-label" pointer-events="none"><text text-anchor="start" transform="translate(16,9)" font-family="Liberation Mono" font-size="10px" fill="#000" opacity="1">fastroad-ar-2</text></g></g><path class="foreground" aria-hidden="true" d="" pointer-events="none" display="none"/></g><g transform="translate(0,39)"><path class="background" aria-hidden="true" d="M0,0h224v11h-224Z" pointer-events="none" opacity="1"/><g><g class="mark-symbol role-legend-symbol" pointer-events="none"><path transform="translate(6,6)" d="M-5,0L5,0" stroke="#72b7b2" stroke-width="1.5" opacity="1"/></g><g class="mark-text role-legend-label" pointer-events="none"><text text-anchor="start" transform="translate(16,9)" font-family="Liberation Mono" font-size="10px" fill="#000" opacity="1">thrive-2</text></g></g><path class="foreground" aria-hidden="true" d="" pointer-events="none" display="none"/></g><g transform="translate(0,52)"><path class="background" aria-hidden="true" d="M0,0h224v11h-224Z" pointer-events="none" opacity="1"/><g><g class="mark-symbol role-legend-symbol" pointer-events="none"><path transform="translate(6,6)" d="M-5,0L5,0" stroke="#54a24b" stroke-width="1.5" opacity="1"/></g><g class="mark-text role-legend-label" pointer-events="none"><text text-anchor="start" transform="translate(16,9)" font-family="Liberation Mono" font-size="10px" fill="#000" opacity="1">allure-rs-1-2023</text></g></g><path class="foreground" aria-hidden="true" d="" pointer-events="none" display="none"/></g><g transform="translate(0,65)"><path class="background" aria-hidden="true" d="M0,0h224v11h-224Z" pointer-events="none" opacity="1"/><g><g class="mark-symbol role-legend-symbol" pointer-events="none"><path transform="translate(6,6)" d="M-5,0L5,0" stroke="#eeca3b" stroke-width="1.5" opacity="1"/></g><g class="mark-text role-legend-label" pointer-events="none"><text text-anchor="start" transform="translate(16,9)" font-family="Liberation Mono" font-size="10px" fill="#000" opacity="1">roam-2</text></g></g><path class="foreground" aria-hidden="true" d="" pointer-events="none" display="none"/></g><g transform="translate(0,78)"><path class="background" aria-hidden="true" d="M0,0h224v11h-224Z" pointer-events="none" opacity="1"/><g><g class="mark-symbol role-legend-symbol" pointer-events="none"><path transform="translate(6,6)" d="M-5,0L5,0" stroke="#b279a2" stroke-width="1.5" opacity="1"/></g><g class="mark-text role-legend-label" pointer-events="none"><text text-anchor="start" transform="translate(16,9)" font-family="Liberation Mono" font-size="10px" fill="#000" opacity="1">fastroad-sl-3-2022</text></g></g><path class="foreground" aria-hidden="true" d="" pointer-events="none" display="none"/></g><g transform="translate(0,91)"><path class="background" aria-hidden="true" d="M0,0h224v11h-224Z" pointer-events="none" opacity="1"/><g><g class="mark-symbol role-legend-symbol" pointer-events="none"><path transform="translate(6,6)" d="M-5,0L5,0" stroke="#ff9da6" stroke-width="1.5" opacity="1"/></g><g class="mark-text role-legend-label" pointer-events="none"><text text-anchor="start" transform="translate(16,9)" font-family="Liberation Mono" font-size="10px" fill="#000" opacity="1">rove-2</text></g></g><path class="foreground" aria-hidden="true" d="" pointer-events="none" display="none"/></g><g transform="translate(0,104)"><path class="background" aria-hidden="true" d="M0,0h224v11h-224Z" pointer-events="none" opacity="1"/><g><g class="mark-symbol role-legend-symbol" pointer-events="none"><path transform="translate(6,6)" d="M-5,0L5,0" stroke="#9d755d" stroke-width="1.5" opacity="1"/></g><g class="mark-text role-legend-label" pointer-events="none"><text text-anchor="start" transform="translate(16,9)" font-family="Liberation Mono" font-size="10px" fill="#000" opacity="1">allure-rs-2-2022</text></g></g><path class="foreground" aria-hidden="true" d="" pointer-events="none" display="none"/></g><g transform="translate(0,117)"><path class="background" aria-hidden="true" d="M0,0h224v11h-224Z" pointer-events="none" opacity="1"/><g><g class="mark-symbol role-legend-symbol" pointer-events="none"><path transform="translate(6,6)" d="M-5,0L5,0" stroke="#bab0ac" stroke-width="1.5" opacity="1"/></g><g class="mark-text role-legend-label" pointer-events="none"><text text-anchor="start" transform="translate(16,9)" font-family="Liberation Mono" font-size="10px" fill="#000" opacity="1">allure-rs-2-2024</text></g></g><path class="foreground" aria-hidden="true" d="" pointer-events="none" display="none"/></g><g transform="translate(0,130)"><path class="background" aria-hidden="true" d="M0,0h224v11h-224Z" pointer-events="none" opacity="1"/><g><g class="mark-symbol role-legend-symbol" pointer-events="none"><path transform="translate(6,6)" d="M-5,0L5,0" stroke="#4c78a8" stroke-width="1.5" opacity="1"/></g><g class="mark-text role-legend-label" pointer-events="none"><text text-anchor="start" transform="translate(16,9)" font-family="Liberation Mono" font-size="10px" fill="#000" opacity="1">allure-rs-2-2023</text></g></g><path class="foreground" aria-hidden="true" d="" pointer-events="none" display="none"/></g><g transform="translate(0,143)"><path class="background" aria-hidden="true" d="M0,0h224v11h-224Z" pointer-events="none" opacity="1"/><g><g class="mark-symbol role-legend-symbol" pointer-events="none"><path transform="translate(6,6)" d="M-5,0L5,0" stroke="#f58518" stroke-width="1.5" opacity="1"/></g><g class="mark-text role-legend-label" pointer-events="none"><text text-anchor="start" transform="translate(16,9)" font-family="Liberation Mono" font-size="10px" fill="#000" opacity="1">escape-city-disc-1-2024</text></g></g><path class="foreground" aria-hidden="true" d="" pointer-events="none" display="none"/></g><g transform="translate(0,156)"><path class="background" aria-hidden="true" d="M0,0h224v11h-224Z" pointer-events="none" opacity="1"/><g><g class="mark-symbol role-legend-symbol" pointer-events="none"><path transform="translate(6,6)" d="M-5,0L5,0" stroke="#e45756" stroke-width="1.5" opacity="1"/></g><g class="mark-text role-legend-label" pointer-events="none"><text text-anchor="start" transform="translate(16,9)" font-family="Liberation Mono" font-size="10px" fill="#000" opacity="1">sdrbike-escape-1-city-disc</text></g></g><path class="foreground" aria-hidden="true" d="" pointer-events="none" display="none"/></g><g transform="translate(0,169)"><path class="background" aria-hidden="true" d="M0,0h224v11h-224Z" pointer-events="none" opacity="1"/><g><g class="mark-symbol role-legend-symbol" pointer-events="none"><path transform="translate(6,6)" d="M-5,0L5,0" stroke="#72b7b2" stroke-width="1.5" opacity="1"/></g><g class="mark-text role-legend-label" pointer-events="none"><text text-anchor="start" transform="translate(16,9)" font-family="Liberation Mono" font-size="10px" fill="#000" opacity="1">roam-disc-2-2024</text></g></g><path class="foreground" aria-hidden="true" d="" pointer-events="none" display="none"/></g></g></g><path class="foreground" aria-hidden="true" d="" pointer-events="none" display="none"/></g></g><g class="mark-text role-legend-title" pointer-events="none"><text text-anchor="start" transform="translate(0,9)" font-family="Liberation Mono" font-size="11px" font-weight="bold" fill="#000" opacity="1">identifier</text></g></g><path class="foreground" aria-hidden="true" d="" pointer-events="none" display="none"/></g></g></g><path class="foreground" aria-hidden="true" d="" display="none"/></g></g></g></svg>