<svg xmlns="http://www.w3.org/2000/svg" xmlns:xlink="http://www.w3.org/1999/xlink" version="1.1" class="marks" width="548" height="244" viewBox="0 0 548 244"><rect width="548" height="244" fill="white"/><g fill="none" stroke-miterlimit="10" transform="translate(67,7)"><g class="mark-group role-frame root" role="graphics-object" aria-roledescription="group mark container"><g transform="translate(0,0)"><path class="background" aria-hidden="true" d="M0.5,0.5h200v200h-200Z" stroke="#ddd"/><g><g class="mark-group role-axis" aria-hidden="true"><g transform="translate(0.5,200.5)"><path class="background" aria-hidden="true" d="M0,0h0v0h0Z" pointer-events="none"/><g><g class="mark-rule role-axis-grid" pointer-events="none"><line transform="translate(11,-200)" x2="0" y2="200" stroke="#ddd" stroke-width="1" opacity="1"/><line transform="translate(39,-200)" x2="0" y2="200" stroke="#ddd" stroke-width="1" opacity="1"/><line transform="translate(67,-200)" x2="0" y2="200" stroke="#ddd" stroke-width="1" opacity="1"/><line transform="translate(96,-200)" x2="0" y2="200" stroke="#ddd" stroke-width="1" opacity="1"/><line transform="translate(124,-200)" x2="0" y2="200" stroke="#ddd" stroke-width="1" opacity="1"/><line transform="translate(152,-200)" x2="0" y2="200" stroke="#ddd" stroke-width="1" opacity="1"/><line transform="translate(180,-200)" x2="0" y2="200" stroke="#ddd" stroke-width="1" opacity="1"/></g></g><path class="foreground" aria-hidden="true" d="" pointer-events="none" display="none"/></g></g><g class="mark-group role-axis" aria-hidden="true"><g transform="translate(0.5,0.5)"><path class="background" aria-hidden="true" d="M0,0h0v0h0Z" pointer-events="none"/><g><g class="mark-rule role-axis-grid" pointer-events="none"><line transform="translate(0,200)" x2="200" y2="0" stroke="#ddd" stroke-width="1" opacity="1"/><line transform="translate(0,144)" x2="200" y2="0" stroke="#ddd" stroke-width="1" opacity="1"/><line transform="translate(0,89)" x2="200" y2="0" stroke="#ddd" stroke-width="1" opacity="1"/><line transform="translate(0,33)" x2="200" y2="0" stroke="#ddd" stroke-width="1" opacity="1"/></g></g><path class="foreground" aria-hidden="true" d="" pointer-events="none" display="none"/></g></g><g class="mark-group role-axis" role="graphics-symbol" aria-roledescription="axis" aria-label="X-axis titled 'Time' for a time scale with values from Thursday, 14 August 2025, 8:34:48 AM to Thursday, 02 October 2025, 8:45:14 PM"><g transform="translate(0.5,200.5)"><path class="background" aria-hidden="true" d="M0,0h0v0h0Z" pointer-events="none"/><g><g class="mark-rule role-axis-tick" pointer-events="none"><line transform="translate(11,0)" x2="0" y2="5" stroke="#888" stroke-width="1" opacity="1"/><line transform="translate(39,0)" x2="0" y2="5" stroke="#888" stroke-width="1" opacity="1"/><line transform="translate(67,0)" x2="0" y2="5" stroke="#888" stroke-width="1" opacity="1"/><line transform="translate(96,0)" x2="0" y2="5" stroke="#888" stroke-width="1" opacity="1"/><line transform="translate(124,0)" x2="0" y2="5" stroke="#888" stroke-width="1" opacity="1"/><line transform="translate(152,0)" x2="0" y2="5" stroke="#888" stroke-width="1" opacity="1"/><line transform="translate(180,0)" x2="0" y2="5" stroke="#888" stroke-width="1" opacity="1"/></g><g class="mark-text role-axis-label" pointer-events="none"><text text-anchor="middle" transform="translate(10.67517006305092,15)" font-family="Liberation Mono" font-size="10px" fill="#000" opacity="1">Aug 17</text><text text-anchor="middle" transform="translate(38.953859770748835,15)" font-family="Liberation Mono" font-size="10px" fill="#000" opacity="0">Aug 24</text><text text-anchor="middle" transform="translate(67.23254947844674,15)" font-family="Liberation Mono" font-size="10px" fill="#000" opacity="1">Aug 31</text><text text-anchor="middle" transform="translate(95.51123918614466,15)" font-family="Liberation Mono" font-size="10px" fill="#000" opacity="0">Sep 07</text><text text-anchor="middle" transform="translate(123.78992889384257,15)" font-family="Liberation Mono" font-size="10px" fill="#000" opacity="1">Sep 14</text><text text-anchor="middle" transform="translate(152.0686186015405,15)" font-family="Liberation Mono" font-size="10px" fill="#000" opacity="0">Sep 21</text><text text-anchor="middle" transform="translate(180.3473083092384,15)" font-family="Liberation Mono" font-size="10px" fill="#000" opacity="1">Sep 28</text></g><g class="mark-rule role-axis-domain" pointer-events="none"><line transform="translate(0,0)" x2="200" y2="0" stroke="#888" stroke-width="1" opacity="1"/></g><g class="mark-text role-axis-title" pointer-events="none"><text text-anchor="middle" transform="translate(100,30)" font-family="Liberation Mono" font-size="11px" font-weight="bold" fill="#000" opacity="1">Time</text></g></g><path class="foreground" aria-hidden="true" d="" pointer-events="none" display="none"/></g></g><g class="mark-group role-axis" role="graphics-symbol" aria-roledescription="axis" aria-label="Y-axis titled 'Price' for a linear scale with values from 0 to 1,800"><g transform="translate(0.5,0.5)"><path class="background" aria-hidden="true" d="M0,0h0v0h0Z" pointer-events="none"/><g><g class="mark-rule role-axis-tick" pointer-events="none"><line transform="translate(0,200)" x2="-5" y2="0" stroke="#888" stroke-width="1" opacity="1"/><line transform="translate(0,144)" x2="-5" y2="0" stroke="#888" stroke-width="1" opacity="1"/><line transform="translate(0,89)" x2="-5" y2="0" stroke="#888" stroke-width="1" opacity="1"/><line transform="translate(0,33)" x2="-5" y2="0" stroke="#888" stroke-width="1" opacity="1"/></g><g class="mark-text role-axis-label" pointer-events="none"><text text-anchor="end" transform="translate(-7,203)" font-family="Liberation Mono" font-size="10px" fill="#000" opacity="1">0</text><text text-anchor="end" transform="translate(-7,147.44444444444443)" font-family="Liberation Mono" font-size="10px" fill="#000" opacity="1">500</text><text text-anchor="end" transform="translate(-7,91.88888888888889)" font-family="Liberation Mono" font-size="10px" fill="#000" opacity="1">1,000</text><text text-anchor="end" transform="translate(-7,36.33333333333333)" font-family="Liberation Mono" font-size="10px" fill="#000" opacity="1">1,500</text></g><g class="mark-rule role-axis-domain" pointer-events="none"><line transform="translate(0,200)" x2="0" y2="-200" stroke="#888" stroke-width="1" opacity="1"/></g><g class="mark-text role-axis-title" pointer-events="none"><text text-anchor="middle" transform="translate(-51,100) rotate(-90) translate(0,-2)" font-family="Liberation Mono" font-size="11px" font-weight="bold" fill="#000" opacity="1">Price</text></g></g><path class="foreground" aria-hidden="true" d="" pointer-events="none" display="none"/></g></g><g class="mark-group role-scope pathgroup" role="graphics-object" aria-roledescription="group mark container"><g transform="translate(0,0)"><path class="background" aria-hidden="true" d="M0,0h200v200h-200Z"/><g><g class="mark-line role-mark marks" role="graphics-object" aria-roledescription="line mark container"><path aria-label="Time: Aug 14, 2025; Price: 899; identifier: escape-city-disc-1-2024" role="graphics-symbol" aria-roledescription="line mark" d="M0,100.111L0.034,100.111L0.06,100.111L0.805,100.111L1.397,100.111L2.061,100.111L3.423,100.111L4.092,100.111L4.831,100.111L5.437,100.111L6.098,100.111L7.45,100.111L8.127,100.111L8.844,100.111L9.469,100.111L10.132,100.111L11.506,100.111L12.166,100.111L12.886,100.111L13.512,100.111L14.177,100.111L15.557,100.111L16.22,100.111L16.964,100.111L17.226,100.111L17.565,100.111L18.213,100.111L19.566,100.111L20.25,100.111L20.967,100.111L21.594,100.111L22.251,100.111L23.607,100.111L24.284,100.111L25.031,100.111L25.333,100.111L25.632,100.111L26.295,100.111L27.645,100.111L28.327,100.111L29.048,100.111L29.675,100.111L30.333,100.111L31.685,100.111L32.366,100.111L33.086,100.111L33.71,100.111L34.371,100.111L35.722,100.111L36.399,100.111L37.113,100.111L37.74,100.111L38.407,100.111L39.767,100.111L40.436,100.111L41.155,100.111L41.784,100.111L42.448,100.111L43.812,100.111L44.494,100.111L45.231,100.111L45.834,100.111L46.492,100.111L47.846,100.111L48.531,100.111L49.87,100.111L50.528,100.111L51.88,100.111L52.563,100.111L52.828,100.111L53.283,100.111L53.733,100.111L53.91,100.111L54.57,100.111L55.92,100.111L56.604,100.111L57.324,100.111L57.949,100.111L58.609,100.111L59.96,100.111L60.642,100.111L61.359,100.111L61.987,100.111L62.646,100.111L63.995,100.111L64.672,100.111L65.386,100.111L66.017,100.111L66.652,100.111L66.684,100.111L68.036,100.111L68.468,100.111L68.71,100.111L69.428,100.111L70.059,100.111L70.725,100.111L72.089,100.111L72.768,100.111L73.485,100.111L74.104,100.111L74.764,100.111L76.122,100.111L76.805,100.111L77.527,100.111L78.146,100.111L78.806,100.111L80.157,100.111L80.839,100.111L81.558,100.111L82.184,100.111L82.845,100.111L84.196,100.111L84.88,100.111L85.594,100.111L86.227,100.111L86.883,100.111L88.237,100.111L88.919,100.111L89.636,100.111L90.259,100.111L90.925,100.111L92.273,100.111L92.619,100.111L92.947,100.111L93.659,100.111L94.292,100.111L94.962,100.111L96.311,100.111L96.986,100.111L97.702,100.111L98.332,100.111L99.002,100.111L100.357,100.111L101.045,100.111L101.765,100.111L102.386,100.111L103.048,100.111L104.396,100.111L105.083,100.111L105.828,100.111L106.428,100.111L107.083,100.111L108.43,100.111L109.119,100.111L109.835,100.111L110.462,100.111L111.124,100.111L112.475,100.111L113.157,100.111L113.873,100.111L114.494,100.111L115.161,100.111L116.512,100.111L117.196,100.111L117.911,100.111L118.535,100.111L119.2,100.111L120.549,100.111L121.226,100.111L121.939,100.111L122.567,100.111L123.24,100.111L124.591,100.111L125.266,100.111L125.976,100.111L126.606,100.111L127.28,100.111L128.637,100.111L129.318,100.111L130.04,100.111L130.662,100.111L131.322,100.111L132.673,100.111L133.361,100.111L134.079,100.111L134.7,100.111L135.363,100.111L136.715,100.111L137.398,100.111L138.119,100.111L138.741,100.111L139.402,100.111L140.754,100.111L141.437,100.111L142.157,100.111L142.779,100.111L143.443,100.111L144.794,100.111L145.476,100.111L146.196,100.111L146.821,100.111L147.48,100.111L148.831,100.111L149.509,100.111L150.223,100.111L150.848,100.111L151.519,100.111L152.872,100.111L153.545,100.111L154.262,100.111L154.891,100.111L155.56,100.111L156.914,100.111L157.602,100.111L158.321,100.111L158.934,100.111L159.604,100.111L160.952,100.111L161.638,100.111L162.357,100.111L162.983,100.111L163.643,100.111L164.993,100.111L165.679,100.111L166.398,100.111L167.026,100.111L167.68,100.111L169.034,100.111L169.72,100.111L170.441,100.111L171.064,100.111L171.719,100.111L173.072,100.111L173.758,100.111L174.476,100.111L175.1,100.111L175.759,100.111L177.111,100.111L177.784,100.111L178.499,100.111L179.129,100.111L179.799,100.111L181.151,100.111L181.824,100.111L182.54,100.111L183.166,100.111L183.838,100.111L185.194,100.111L185.882,100.111L186.601,100.111L187.206,100.111L187.88,100.111L189.232,100.111L189.923,100.111L190.64,100.111L191.259,100.111L191.921,100.111L193.274,100.111L193.96,100.111L194.681,100.111L195.301,100.111L195.961,100.111L197.309,100.111L197.993,100.111L198.71,100.111L199.34,100.111L199.998,100.111" stroke="#4c78a8" stroke-width="2"/></g></g><path class="foreground" aria-hidden="true" d="" display="none"/></g><g transform="translate(0,0)"><path class="background" aria-hidden="true" d="M0,0h200v200h-200Z"/><g><g class="mark-line role-mark marks" role="graphics-object" aria-roledescription="line mark container"><path aria-label="Time: Aug 14, 2025; Price: 999; identifier: roam-2" role="graphics-symbol" aria-roledescription="line mark" d="M0,89L0.034,89L0.06,89L0.805,89L1.397,89L2.061,89L3.424,89L4.093,89L4.831,89L5.437,89L6.098,89L7.45,89L8.127,89L8.844,89L9.469,89L10.138,89L11.506,89L12.166,89L12.886,89L13.512,89L14.177,89L15.557,89L16.22,89L16.965,89L17.226,89L17.565,89L18.213,89L19.566,89L20.25,89L20.967,89L21.594,89L22.251,89L23.607,89L24.284,89L25.031,89L25.333,89L25.633,89L26.296,89L27.645,89L28.327,89L29.048,89L29.675,89L30.333,89L31.686,89L32.366,89L33.086,89L33.711,89L34.371,89L35.722,89L36.4,89L37.114,89L37.74,89L38.407,89L39.767,89L40.437,89L41.156,89L41.785,89L42.448,89L43.813,89L44.494,89L45.231,89L45.835,89L46.492,89L47.846,89L48.532,89L49.871,89L50.528,89L51.881,89L52.563,89L52.828,89L53.283,89L53.733,89L53.91,89L54.571,89L55.92,89L56.605,89L57.324,89L57.949,89L58.609,89L59.96,89L60.642,89L61.359,89L61.987,89L62.646,89L63.995,89L64.672,89L65.387,89L66.017,89L66.652,89L66.684,89L68.037,89L68.468,89L68.71,89L69.428,89L70.059,89L70.725,89L72.089,89L72.768,89L73.485,89L74.104,89L74.764,89L76.123,89L76.806,89L77.527,89L78.146,89L78.806,89L80.157,89L80.839,89L81.558,89L82.184,89L82.845,89L84.196,89L84.88,89L85.595,89L86.227,89L86.884,89L88.237,89L88.919,89L89.637,89L90.259,89L90.925,89L92.273,89L92.619,89L92.947,89L93.659,89L94.292,89L94.962,89L96.311,89L96.986,89L97.702,89L98.332,89L99.002,89L100.358,89L101.045,89L101.766,89L102.386,89L103.048,89L104.396,89L105.083,89L105.828,89L106.429,89L107.083,89L108.43,89L109.119,89L109.835,89L110.462,89L111.125,89L112.475,89L113.158,89L113.874,89L114.494,89L115.161,89L116.512,89L117.196,89L117.911,89L118.536,89L119.201,89L120.55,89L121.226,89L121.939,89L122.568,89L123.241,89L124.591,89L125.266,89L125.976,89L126.606,89L127.281,89L128.637,89L129.318,89L130.04,89L130.663,89L131.323,89L132.674,89L133.362,89L134.079,89L134.701,89L135.364,89L136.715,89L137.398,89L138.119,89L138.741,89L139.403,89L140.754,89L141.437,89L142.157,89L142.779,89L143.443,89L144.794,89L145.476,89L146.196,89L146.821,89L147.48,89L148.831,89L149.509,89L150.223,89L150.848,89L151.519,89L152.872,89L153.545,89L154.262,89L154.892,89L155.56,89L156.914,89L157.602,89L158.321,89L158.934,89L159.604,89L160.953,89L161.638,89L162.357,89L162.983,89L163.643,89L164.994,89L165.68,89L166.398,89L167.026,89L167.68,89L169.034,89L169.721,89L170.441,89L171.064,89L171.719,89L173.072,89L173.758,89L174.476,89L175.1,89L175.759,89L177.111,89L177.784,89L178.499,89L179.129,89L179.8,89L181.151,89L181.824,89L182.541,89L183.166,89L183.838,89L185.194,89L185.882,89L186.601,89L187.206,89L187.88,89L189.232,89L189.923,89L190.641,89L191.26,89L191.921,89L193.274,89L193.96,89L194.681,89L195.301,89L195.961,89L197.309,89L197.993,89L198.711,89L199.34,89L199.999,89" stroke="#ff9da6" stroke-width="2"/></g></g><path class="foreground" aria-hidden="true" d="" display="none"/></g><g transform="translate(0,0)"><path class="background" aria-hidden="true" d="M0,0h200v200h-200Z"/><g><g class="mark-line role-mark marks" role="graphics-object" aria-roledescription="line mark container"><path aria-label="Time: Aug 14, 2025; Price: 999; identifier: fastroad-sl-3-2022" role="graphics-symbol" aria-roledescription="line mark" d="M0,89L0.034,89L0.06,89L0.805,89L1.397,89L2.061,89L3.424,89L4.093,89L4.831,89L5.437,89L6.098,89L7.45,89L8.127,89L8.845,89L9.469,89L10.138,89L11.506,89L12.166,89L12.886,89L13.512,89L14.177,89L15.557,89L16.22,89L16.965,89L17.226,89L17.565,89L18.213,89L19.566,89L20.25,89L20.967,89L21.594,89L22.251,89L23.607,89L24.285,89L25.031,89L25.334,89L25.633,89L26.296,89L27.645,89L28.328,89L29.048,89L29.675,89L30.333,89L31.686,89L32.366,89L33.087,89L33.711,89L34.371,89L35.723,89L36.4,89L37.114,89L37.74,89L38.407,89L39.767,89L40.437,89L41.156,89L41.785,89L42.448,89L43.813,89L44.494,89L45.231,89L45.835,89L46.492,89L47.846,89L48.532,89L49.871,89L50.528,89L51.881,89L52.563,89L52.828,89L53.283,89L53.733,89L53.91,89L54.571,89L55.92,89L56.605,89L57.324,89L57.949,89L58.609,89L59.96,89L60.642,89L61.359,89L61.987,89L62.646,89L63.995,89L64.672,89L65.387,89L66.017,89L66.652,89L66.684,89L68.037,89L68.468,89L68.71,89L69.429,89L70.059,89L70.725,89L72.089,89L72.768,89L73.485,89L74.104,89L74.764,89L76.123,89L76.806,89L77.528,89L78.146,89L78.806,89L80.157,89L80.839,89L81.559,89L82.184,89L82.845,89L84.196,89L84.88,89L85.595,89L86.227,89L86.884,89L88.237,89L88.919,89L89.637,89L90.259,89L90.925,89L92.273,89L92.619,89L92.947,89L93.66,89L94.292,89L94.963,89L96.311,89L96.986,89L97.702,89L98.332,89L99.002,89L100.358,89L101.045,89L101.766,89L102.386,89L103.048,89L104.396,89L105.083,89L105.828,89L106.429,89L107.083,89L108.431,89L109.119,89L109.835,89L110.462,89L111.125,89L112.476,89L113.158,89L113.874,89L114.494,89L115.161,89L116.512,89L117.196,89L117.911,89L118.536,89L119.201,89L120.55,89L121.226,89L121.939,89L122.568,89L123.241,89L124.591,89L125.266,89L125.976,89L126.606,89L127.281,89L128.637,89L129.318,89L130.04,89L130.663,89L131.323,89L132.674,89L133.362,89L134.079,89L134.701,89L135.364,89L136.715,89L137.398,89L138.119,89L138.742,89L139.403,89L140.754,89L141.437,89L142.158,89L142.779,89L143.443,89L144.794,89L145.476,89L146.196,89L146.821,89L147.48,89L148.831,89L149.509,89L150.223,89L150.848,89L151.519,89L152.872,89L153.545,89L154.262,89L154.892,89L155.561,89L156.914,89L157.602,89L158.321,89L158.934,89L159.604,89L160.953,89L161.638,89L162.357,89L162.983,89L163.643,89L164.994,89L165.68,89L166.398,89L167.026,89L167.68,89L169.034,89L169.721,89L170.441,89L171.065,89L171.719,89L173.072,89L173.758,89L174.476,89L175.1,89L175.76,89L177.111,89L177.784,89L178.499,89L179.129,89L179.8,89L181.151,89L181.825,89L182.541,89L183.166,89L183.838,89L185.194,89L185.882,89L186.602,89L187.206,89L187.88,89L189.233,89L189.924,89L190.641,89L191.26,89L191.921,89L193.275,89L193.96,89L194.681,89L195.301,89L195.961,89L197.309,89L197.993,89L198.711,89L199.34,89L199.999,89" stroke="#9d755d" stroke-width="2"/></g></g><path class="foreground" aria-hidden="true" d="" display="none"/></g><g transform="translate(0,0)"><path class="background" aria-hidden="true" d="M0,0h200v200h-200Z"/><g><g class="mark-line role-mark marks" role="graphics-object" aria-roledescription="line mark container"><path aria-label="Time: Aug 14, 2025; Price: 1199; identifier: fastroad-ar-2" role="graphics-symbol" aria-roledescription="line mark" d="M0,66.778L0.034,66.778L0.06,66.778L0.805,66.778L1.397,66.778L2.061,66.778L3.424,66.778L4.093,66.778L4.832,66.778L5.438,66.778L6.098,66.778L7.451,66.778L8.127,66.778L8.845,66.778L9.47,66.778L10.141,66.778L11.506,66.778L12.166,66.778L12.886,66.778L13.512,66.778L14.177,66.778L15.557,66.778L16.221,66.778L16.965,66.778L17.226,66.778L17.565,66.778L18.213,66.778L19.566,66.778L20.25,66.778L20.968,66.778L21.594,66.778L22.251,66.778L23.607,66.778L24.285,66.778L25.031,66.778L25.334,66.778L25.633,66.778L26.296,66.778L27.645,66.778L28.328,66.778L29.048,66.778L29.675,66.778L30.333,66.778L31.686,66.778L32.366,66.778L33.087,66.778L33.711,66.778L34.371,66.778L35.723,66.778L36.4,66.778L37.114,66.778L37.74,66.778L38.407,66.778L39.767,66.778L40.437,66.778L41.156,66.778L41.785,66.778L42.448,66.778L43.813,66.778L44.495,66.778L45.232,66.778L45.835,66.778L46.492,66.778L47.846,66.778L48.532,66.778L49.871,66.778L50.528,66.778L51.881,66.778L52.563,66.778L52.829,66.778L53.283,66.778L53.733,66.778L53.91,66.778L54.571,66.778L55.92,66.778L56.605,66.778L57.324,66.778L57.949,66.778L58.609,66.778L59.96,66.778L60.642,66.778L61.36,66.778L61.987,66.778L62.647,66.778L63.995,66.778L64.672,66.778L65.387,66.778L66.017,66.778L66.652,66.778L66.684,66.778L68.037,66.778L68.468,66.778L68.71,66.778L69.429,66.778L70.059,66.778L70.725,66.778L72.089,66.778L72.768,66.778L73.485,66.778L74.104,66.778L74.764,66.778L76.123,66.778L76.806,66.778L77.528,66.778L78.146,66.778L78.807,66.778L80.157,66.778L80.839,66.778L81.559,66.778L82.184,66.778L82.845,66.778L84.196,66.778L84.88,66.778L85.595,66.778L86.227,66.778L86.884,66.778L88.238,66.778L88.919,66.778L89.637,66.778L90.259,66.778L90.925,66.778L92.273,66.778L92.62,66.778L92.947,66.778L93.66,66.778L94.292,66.778L94.963,66.778L96.312,66.778L96.986,66.778L97.702,66.778L98.332,66.778L99.002,66.778L100.358,66.778L101.045,66.778L101.766,66.778L102.386,66.778L103.048,66.778L104.396,66.778L105.084,66.778L105.828,66.778L106.429,66.778L107.083,66.778L108.431,66.778L109.119,66.778L109.836,66.778L110.462,66.778L111.125,66.778L112.476,66.778L113.158,66.778L113.874,66.778L114.494,66.778L115.161,66.778L116.512,66.778L117.196,66.778L117.911,66.778L118.536,66.778L119.201,66.778L120.55,66.778L121.226,66.778L121.939,66.778L122.568,66.778L123.241,66.778L124.591,66.778L125.266,66.778L125.976,66.778L126.607,66.778L127.281,66.778L128.637,66.778L129.318,66.778L130.041,66.778L130.663,66.778L131.323,66.778L132.674,66.778L133.362,66.778L134.079,66.778L134.701,66.778L135.364,66.778L136.715,66.778L137.398,66.778L138.119,66.778L138.742,66.778L139.403,66.778L140.754,66.778L141.437,66.778L142.158,66.778L142.779,66.778L143.443,66.778L144.794,66.778L145.476,66.778L146.196,66.778L146.821,66.778L147.48,66.778L148.831,66.778L149.509,66.778L150.223,66.778L150.848,66.778L151.519,66.778L152.872,66.778L153.545,66.778L154.262,66.778L154.892,66.778L155.561,66.778L156.914,66.778L157.602,66.778L158.321,66.778L158.934,66.778L159.604,66.778L160.953,66.778L161.638,66.778L162.357,66.778L162.983,66.778L163.643,66.778L164.994,66.778L165.68,66.778L166.398,66.778L167.026,66.778L167.68,66.778L169.034,66.778L169.721,66.778L170.441,66.778L171.065,66.778L171.719,66.778L173.072,66.778L173.758,66.778L174.476,66.778L175.1,66.778L175.76,66.778L177.111,66.778L177.784,66.778L178.5,66.778L179.13,66.778L179.8,66.778L181.151,66.778L181.825,66.778L182.541,66.778L183.166,66.778L183.838,66.778L185.194,66.778L185.882,66.778L186.602,66.778L187.206,66.778L187.881,66.778L189.233,66.778L189.924,66.778L190.641,66.778L191.26,66.778L191.921,66.778L193.275,66.778L193.96,66.778L194.681,66.778L195.301,66.778L195.961,66.778L197.309,66.778L197.993,66.778L198.711,66.778L199.34,66.778L199.999,66.778" stroke="#54a24b" stroke-width="2"/></g></g><path class="foreground" aria-hidden="true" d="" display="none"/></g><g transform="translate(0,0)"><path class="background" aria-hidden="true" d="M0,0h200v200h-200Z"/><g><g class="mark-line role-mark marks" role="graphics-object" aria-roledescription="line mark container"><path aria-label="Time: Aug 18, 2025; Price: 899; identifier: sdrbike-escape-1-city-disc" role="graphics-symbol" aria-roledescription="line mark" d="M17.226,100.111L17.565,100.111L18.213,100.111L19.566,100.111L20.25,100.111L20.968,100.111L21.594,100.111L22.251,100.111L23.608,100.111L24.285,100.111L25.032,100.111L25.334,100.111L25.633,100.111L26.296,100.111L27.645,100.111L28.328,100.111L29.049,100.111L29.675,100.111L30.334,100.111L31.686,100.111L32.366,100.111L33.087,100.111L33.711,100.111L34.371,100.111L35.723,100.111L36.4,100.111L37.114,100.111L37.74,100.111L38.407,100.111L39.767,100.111L40.437,100.111L41.156,100.111L41.785,100.111L42.448,100.111L43.813,100.111L44.495,100.111L45.232,100.111L45.835,100.111L46.493,100.111L47.846,100.111L48.532,100.111L49.871,100.111L50.528,100.111L51.881,100.111L52.564,100.111L52.829,100.111L53.283,100.111L53.734,100.111L53.91,100.111L54.571,100.111L55.92,100.111L56.605,100.111L57.325,100.111L57.949,100.111L58.609,100.111L59.96,100.111L60.642,100.111L61.36,100.111L61.987,100.111L62.647,100.111L63.995,100.111L64.672,100.111L65.387,100.111L66.017,100.111L66.652,100.111L66.684,100.111L68.037,100.111L68.468,100.111L68.71,100.111L69.429,100.111L70.059,100.111L70.725,100.111L72.09,100.111L72.769,100.111L73.485,100.111L74.104,100.111L74.764,100.111L76.123,100.111L76.806,100.111L77.528,100.111L78.147,100.111L78.807,100.111L80.157,100.111L80.839,100.111L81.559,100.111L82.184,100.111L82.845,100.111L84.196,100.111L84.881,100.111L85.595,100.111L86.227,100.111L86.884,100.111L88.238,100.111L88.919,100.111L89.637,100.111L90.259,100.111L90.925,100.111L92.273,100.111L92.62,100.111L92.947,100.111L93.66,100.111L94.292,100.111L94.963,100.111L96.312,100.111L96.987,100.111L97.702,100.111L98.333,100.111L99.002,100.111L100.359,100.111L101.045,100.111L101.766,100.111L102.387,100.111L103.048,100.111L104.397,100.111L105.084,100.111L105.828,100.111L106.429,100.111L107.083,100.111L108.431,100.111L109.12,100.111L109.836,100.111L110.462,100.111L111.125,100.111L112.476,100.111L113.158,100.111L113.874,100.111L114.494,100.111L115.161,100.111L116.513,100.111L117.196,100.111L117.912,100.111L118.536,100.111L119.201,100.111L120.55,100.111L121.226,100.111L121.939,100.111L122.568,100.111L123.241,100.111L124.591,100.111L125.266,100.111L125.976,100.111L126.607,100.111L127.281,100.111L128.637,100.111L129.319,100.111L130.041,100.111L130.663,100.111L131.324,100.111L132.674,100.111L133.362,100.111L134.079,100.111L134.701,100.111L135.364,100.111L136.715,100.111L137.398,100.111L138.119,100.111L138.742,100.111L139.403,100.111L140.754,100.111L141.437,100.111L142.158,100.111L142.779,100.111L143.443,100.111L144.794,100.111L145.477,100.111L146.196,100.111L146.821,100.111L147.48,100.111L148.831,100.111L149.509,100.111L150.224,100.111L150.849,100.111L151.519,100.111L152.872,100.111L153.546,100.111L154.262,100.111L154.892,100.111L155.561,100.111L156.914,100.111L157.602,100.111L158.321,100.111L158.934,100.111L159.604,100.111L160.953,100.111L161.638,100.111L162.357,100.111L162.983,100.111L163.643,100.111L164.994,100.111L165.68,100.111L166.398,100.111L167.026,100.111L167.68,100.111L169.034,100.111L169.721,100.111L170.441,100.111L171.065,100.111L171.719,100.111L173.072,100.111L173.759,100.111L174.476,100.111L175.101,100.111L175.76,100.111L177.111,100.111L177.785,100.111L178.5,100.111L179.13,100.111L179.8,100.111L181.151,100.111L181.825,100.111L182.541,100.111L183.166,100.111L183.838,100.111L185.194,100.111L185.882,100.111L186.602,100.111L187.206,100.111L187.881,100.111L189.233,100.111L189.924,100.111L190.641,100.111L191.26,100.111L191.921,100.111L193.275,100.111L193.96,100.111L194.682,100.111L195.301,100.111L195.961,100.111L197.31,100.111L197.993,100.111L198.711,100.111L199.34,100.111L199.999,100.111" stroke="#f58518" stroke-width="2"/></g></g><path class="foreground" aria-hidden="true" d="" display="none"/></g><g transform="translate(0,0)"><path class="background" aria-hidden="true" d="M0,0h200v200h-200Z"/><g><g class="mark-line role-mark marks" role="graphics-object" aria-roledescription="line mark container"><path aria-label="Time: Aug 20, 2025; Price: 899; identifier: roam-disc-2-2024" role="graphics-symbol" aria-roledescription="line mark" d="M25.333,100.111L25.632,100.111L26.296,100.111L27.645,100.111L28.327,100.111L29.048,100.111L29.675,100.111L30.333,100.111L31.685,100.111L32.366,100.111L33.086,100.111L33.711,100.111L34.371,100.111L35.722,100.111L36.399,100.111L37.114,100.111L37.74,100.111L38.407,100.111L39.767,100.111L40.437,100.111L41.156,100.111L41.785,100.111L42.448,100.111L43.813,100.111L44.494,100.111L45.231,100.111L45.834,100.111L46.492,100.111L47.846,100.111L48.531,100.111L49.87,100.111L50.528,100.111L51.88,100.111L52.563,100.111L52.828,100.111L53.283,100.111L53.733,100.111L53.91,100.111L54.57,100.111L55.92,100.111L56.605,100.111L57.324,100.111L57.949,100.111L58.609,100.111L59.96,100.111L60.642,100.111L61.359,100.111L61.987,100.111L62.646,100.111L63.995,100.111L64.672,100.111L65.387,100.111L66.017,100.111L66.652,100.111L66.684,100.111L68.036,100.111L68.468,100.111L68.71,100.111L69.428,100.111L70.059,100.111L70.725,100.111L72.089,100.111L72.768,100.111L73.485,100.111L74.104,100.111L74.764,100.111L76.122,100.111L76.805,100.111L77.527,100.111L78.146,100.111L78.806,100.111L80.157,100.111L80.839,100.111L81.558,100.111L82.184,100.111L82.845,100.111L84.196,100.111L84.88,100.111L85.595,100.111L86.227,100.111L86.884,100.111L88.237,100.111L88.919,100.111L89.637,100.111L90.259,100.111L90.925,100.111L92.273,100.111L92.619,100.111L92.947,100.111L93.659,100.111L94.292,100.111L94.962,100.111L96.311,100.111L96.986,100.111L97.702,100.111L98.332,100.111L99.002,100.111L100.358,100.111L101.045,100.111L101.765,100.111L102.386,100.111L103.048,100.111L104.396,100.111L105.083,100.111L105.828,100.111L106.429,100.111L107.083,100.111L108.43,100.111L109.119,100.111L109.835,100.111L110.462,100.111L111.124,100.111L112.475,100.111L113.157,100.111L113.873,100.111L114.494,100.111L115.161,100.111L116.512,100.111L117.196,100.111L117.911,100.111L118.536,100.111L119.201,100.111L120.549,100.111L121.226,100.111L121.939,100.111L122.567,100.111L123.241,100.111L124.591,100.111L125.266,100.111L125.976,100.111L126.606,100.111L127.28,100.111L128.637,100.111L129.318,100.111L130.04,100.111L130.663,100.111L131.323,100.111L132.673,100.111L133.361,100.111L134.079,100.111L134.7,100.111L135.364,100.111L136.715,100.111L137.398,100.111L138.119,100.111L138.741,100.111L139.402,100.111L140.754,100.111L141.437,100.111L142.157,100.111L142.779,100.111L143.443,100.111L144.794,100.111L145.476,100.111L146.196,100.111L146.821,100.111L147.48,100.111L148.831,100.111L149.509,100.111L150.223,100.111L150.848,100.111L151.519,100.111L152.872,100.111L153.545,100.111L154.262,100.111L154.891,100.111L155.56,100.111L156.914,100.111L157.602,100.111L158.321,100.111L158.934,100.111L159.604,100.111L160.952,100.111L161.638,100.111L162.357,100.111L162.983,100.111L163.643,100.111L164.994,100.111L165.679,100.111L166.398,100.111L167.026,100.111L167.68,100.111L169.034,100.111L169.72,100.111L170.441,100.111L171.064,100.111L171.719,100.111L173.072,100.111L173.758,100.111L174.476,100.111L175.1,100.111L175.759,100.111L177.111,100.111L177.784,100.111L178.499,100.111L179.129,100.111L179.8,100.111L181.151,100.111L181.824,100.111L182.541,100.111L183.166,100.111L183.838,100.111L185.194,100.111L185.882,100.111L186.601,100.111L187.206,100.111L187.88,100.111L189.232,100.111L189.923,100.111L190.641,100.111L191.259,100.111L191.921,100.111L193.274,100.111L193.96,100.111L194.681,100.111L195.301,100.111L195.961,100.111L197.309,100.111L197.993,100.111L198.71,100.111L199.34,100.111L199.998,100.111" stroke="#e45756" stroke-width="2"/></g></g><path class="foreground" aria-hidden="true" d="" display="none"/></g><g transform="translate(0,0)"><path class="background" aria-hidden="true" d="M0,0h200v200h-200Z"/><g><g class="mark-line role-mark marks" role="graphics-object" aria-roledescription="line mark container"><path aria-label="Time: Aug 20, 2025; Price: 1199; identifier: thrive-2" role="graphics-symbol" aria-roledescription="line mark" d="M25.334,66.778L25.633,66.778L26.296,66.778L27.645,66.778L28.328,66.778L29.049,66.778L29.675,66.778L30.334,66.778L31.686,66.778L32.367,66.778L33.087,66.778L33.711,66.778L34.371,66.778L35.723,66.778L36.4,66.778L37.114,66.778L37.74,66.778L38.407,66.778L39.768,66.778L40.437,66.778L41.156,66.778L41.785,66.778L42.448,66.778L43.813,66.778L44.495,66.778L45.232,66.778L45.835,66.778L46.493,66.778L47.847,66.778L48.532,66.778L49.871,66.778L50.528,66.778L51.881,66.778L52.564,66.778L52.829,66.778L53.283,66.778L53.734,66.778L53.91,66.778L54.571,66.778L55.92,66.778L56.605,66.778L57.325,66.778L57.949,66.778L58.609,66.778L59.96,66.778L60.642,66.778L61.36,66.778L61.987,66.778L62.647,66.778L63.995,66.778L64.672,66.778L65.387,66.778L66.017,66.778L66.653,66.778L66.684,66.778L68.037,66.778L68.468,66.778L68.71,66.778L69.429,66.778L70.059,66.778L70.725,66.778L72.09,66.778L72.769,66.778L73.486,66.778L74.104,66.778L74.764,66.778L76.123,66.778L76.806,66.778L77.528,66.778L78.147,66.778L78.807,66.778L80.158,66.778L80.839,66.778L81.559,66.778L82.184,66.778L82.845,66.778L84.196,66.778L84.881,66.778L85.595,66.778L86.227,66.778L86.884,66.778L88.238,66.778L88.919,66.778L89.637,66.778L90.259,66.778L90.925,66.778L92.273,66.778L92.62,66.778L92.947,66.778L93.66,66.778L94.292,66.778L94.963,66.778L96.312,66.778L96.987,66.778L97.702,66.778L98.333,66.778L99.002,66.778L100.359,66.778L101.046,66.778L101.766,66.778L102.387,66.778L103.048,66.778L104.397,66.778L105.084,66.778L105.829,66.778L106.429,66.778L107.083,66.778L108.431,66.778L109.12,66.778L109.836,66.778L110.462,66.778L111.125,66.778L112.476,66.778L113.158,66.778L113.874,66.778L114.494,66.778L115.161,66.778L116.513,66.778L117.196,66.778L117.912,66.778L118.536,66.778L119.201,66.778L120.55,66.778L121.226,66.778L121.94,66.778L122.568,66.778L123.241,66.778L124.591,66.778L125.266,66.778L125.977,66.778L126.607,66.778L127.281,66.778L128.638,66.778L129.319,66.778L130.041,66.778L130.663,66.778L131.324,66.778L132.674,66.778L133.362,66.778L134.079,66.778L134.701,66.778L135.364,66.778L136.715,66.778L137.398,66.778L138.119,66.778L138.742,66.778L139.403,66.778L140.754,66.778L141.437,66.778L142.158,66.778L142.779,66.778L143.443,66.778L144.794,66.778L145.477,66.778L146.196,66.778L146.821,66.778L147.48,66.778L148.831,66.778L149.509,66.778L150.224,66.778L150.849,66.778L151.519,66.778L152.872,66.778L153.546,66.778L154.262,66.778L154.892,66.778L155.561,66.778L156.914,66.778L157.602,66.778L158.321,66.778L158.934,66.778L159.604,66.778L160.953,66.778L161.639,66.778L162.358,66.778L162.983,66.778L163.644,66.778L164.994,66.778L165.68,66.778L166.398,66.778L167.026,66.778L167.68,66.778L169.034,66.778L169.721,66.778L170.441,66.778L171.065,66.778L171.719,66.778L173.072,66.778L173.759,66.778L174.476,66.778L175.101,66.778L175.76,66.778L177.111,66.778L177.785,66.778L178.5,66.778L179.13,66.778L179.8,66.778L181.151,66.778L181.825,66.778L182.541,66.778L183.166,66.778L183.839,66.778L185.195,66.778L185.882,66.778L186.602,66.778L187.206,66.778L187.881,66.778L189.233,66.778L189.924,66.778L190.641,66.778L191.26,66.778L191.921,66.778L193.275,66.778L193.96,66.778L194.682,66.778L195.301,66.778L195.961,66.778L197.31,66.778L197.993,66.778L198.711,66.778L199.34,66.778L199.999,66.778" stroke="#eeca3b" stroke-width="2"/></g></g><path class="foreground" aria-hidden="true" d="" display="none"/></g><g transform="translate(0,0)"><path class="background" aria-hidden="true" d="M0,0h200v200h-200Z"/><g><g class="mark-line role-mark marks" role="graphics-object" aria-roledescription="line mark container"><path aria-label="Time: Aug 20, 2025; Price: 999; identifier: rove-2" role="graphics-symbol" aria-roledescription="line mark" d="M25.334,89L25.633,89L26.296,89L27.645,89L28.328,89L29.049,89L29.675,89L30.334,89L31.686,89L32.367,89L33.087,89L33.711,89L34.371,89L35.723,89L36.4,89L37.114,89L37.74,89L38.407,89L39.768,89L40.437,89L41.156,89L41.785,89L42.448,89L43.813,89L44.495,89L45.232,89L45.835,89L46.493,89L47.847,89L48.532,89L49.871,89L50.528,89L51.881,89L52.564,89L52.829,89L53.283,89L53.734,89L53.91,89L54.571,89L55.92,89L56.605,89L57.325,89L57.949,89L58.609,89L59.96,89L60.642,89L61.36,89L61.987,89L62.647,89L66.653,111.222L66.684,111.222L68.037,111.222L68.468,111.222L68.711,111.222L69.429,111.222L70.059,111.222L70.725,111.222L72.09,111.222L72.769,111.222L73.486,111.222L74.104,111.222L74.764,111.222L76.123,111.222L76.806,111.222L77.528,111.222L78.147,111.222L78.807,111.222L80.158,111.222L80.839,111.222L81.559,111.222L82.185,111.222L82.845,111.222L84.196,111.222L84.881,111.222L85.595,111.222L86.227,111.222L86.884,111.222L88.238,111.222L88.92,111.222L89.637,111.222L90.259,111.222L90.925,111.222L92.273,111.222L92.62,111.222L92.947,111.222L93.66,111.222L94.292,111.222L94.963,111.222L96.312,111.222L96.987,111.222L97.702,111.222L98.333,111.222L99.002,111.222L100.359,111.222L101.046,111.222L101.766,111.222L102.387,111.222L103.048,111.222L104.397,111.222L105.084,111.222L105.829,111.222L106.429,111.222L107.083,111.222L108.431,111.222L109.12,111.222L109.836,111.222L110.463,111.222L111.125,111.222L112.476,111.222L113.158,111.222L113.874,111.222L114.494,111.222L115.161,111.222L116.513,111.222L117.196,111.222L117.912,111.222L118.536,111.222L119.201,111.222L120.55,111.222L121.226,111.222L121.94,111.222L122.568,111.222L123.241,111.222L124.591,111.222L125.266,111.222L125.977,111.222L126.607,111.222L127.281,111.222L128.638,111.222L129.319,111.222L130.041,111.222L130.663,111.222L131.324,111.222L132.674,111.222L133.362,111.222L134.08,111.222L134.701,111.222L135.364,111.222L136.715,111.222L137.398,111.222L138.119,111.222L138.742,111.222L139.403,111.222L140.754,111.222L141.437,111.222L142.158,111.222L142.779,111.222L143.443,111.222L144.794,111.222L145.477,111.222L146.196,111.222L146.821,111.222L147.481,111.222L148.831,111.222L149.509,111.222L150.224,111.222L150.849,111.222L151.519,111.222L152.872,111.222L153.546,111.222L154.262,111.222L154.892,111.222L155.561,111.222L156.915,111.222L157.602,111.222L158.321,111.222L158.935,111.222L159.604,111.222L160.953,111.222L161.639,111.222L162.358,111.222L162.984,111.222L163.644,111.222L164.994,111.222L165.68,111.222L166.398,111.222L167.026,111.222L167.681,111.222L169.034,111.222L169.721,111.222L170.441,111.222L171.065,111.222L171.72,111.222L173.072,111.222L173.759,111.222L174.477,111.222L175.101,111.222L175.76,111.222L177.111,111.222L177.785,111.222L178.5,111.222L179.13,111.222L179.8,111.222L181.151,111.222L181.825,111.222L182.541,111.222L183.167,111.222L183.839,111.222L185.195,111.222L185.883,111.222L186.602,111.222L187.207,111.222L187.881,111.222L189.233,111.222L189.924,111.222L190.641,111.222L191.26,111.222L191.921,111.222L193.275,111.222L193.961,111.222L194.682,111.222L195.302,111.222L195.962,111.222L197.31,111.222L197.994,111.222L198.711,111.222L199.34,111.222L199.999,111.222" stroke="#72b7b2" stroke-width="2"/></g></g><path class="foreground" aria-hidden="true" d="" display="none"/></g><g transform="translate(0,0)"><path class="background" aria-hidden="true" d="M0,0h200v200h-200Z"/><g><g class="mark-line role-mark marks" role="graphics-object" aria-roledescription="line mark container"><path aria-label="Time: Aug 27, 2025; Price: 1199; identifier: allure-rs-1-2023" role="graphics-symbol" aria-roledescription="line mark" d="M52.83,66.778L53.283,66.778L53.734,66.778L53.91,66.778L54.571,66.778L55.92,66.778L56.605,66.778L57.325,66.778L57.949,66.778L58.609,66.778L59.96,66.778L60.642,66.778L61.36,66.778L61.987,66.778L62.647,66.778L63.996,66.778L64.673,66.778L65.387,66.778L66.017,66.778L66.653,66.778L66.684,66.778L68.037,66.778L68.469,66.778L68.711,66.778L69.429,66.778L70.059,66.778L70.725,66.778L72.09,66.778L72.769,66.778L73.486,66.778L74.104,66.778L74.764,66.778L76.123,66.778L76.806,66.778L77.528,66.778L78.147,66.778L78.807,66.778L80.158,66.778L80.839,66.778L81.559,66.778L82.185,66.778L82.845,66.778L84.196,66.778L84.881,66.778L85.595,66.778L86.227,66.778L86.884,66.778L88.238,66.778L88.92,66.778L89.637,66.778L90.26,66.778L90.925,66.778L92.273,66.778L92.62,66.778L92.948,66.778L93.66,66.778L94.293,66.778L94.963,66.778L96.312,66.778L96.987,66.778L97.702,66.778L98.333,66.778L99.003,66.778L100.359,66.778L101.046,66.778L101.766,66.778L102.387,66.778L103.048,66.778L104.397,66.778L105.084,66.778L105.829,66.778L106.429,66.778L107.084,66.778L108.431,66.778L109.12,66.778L109.836,66.778L110.463,66.778L111.125,66.778L112.476,66.778L113.158,66.778L113.874,66.778L114.495,66.778L115.162,66.778L116.513,66.778L117.196,66.778L117.912,66.778L118.536,66.778L119.201,66.778L120.55,66.778L121.226,66.778L121.94,66.778L122.568,66.778L123.241,66.778L124.591,66.778L125.266,66.778L125.977,66.778L126.607,66.778L127.281,66.778L128.638,66.778L129.319,66.778L130.041,66.778L130.663,66.778L131.324,66.778L132.674,66.778L133.362,66.778L134.08,66.778L134.701,66.778L135.364,66.778L136.715,66.778L137.398,66.778L138.12,66.778L138.742,66.778L139.403,66.778L140.755,66.778L141.437,66.778L142.158,66.778L142.779,66.778L143.443,66.778L144.795,66.778L145.477,66.778L146.196,66.778L146.821,66.778L147.481,66.778L148.831,66.778L149.51,66.778L150.224,66.778L150.849,66.778L151.519,66.778L152.873,66.778L153.546,66.778L154.263,66.778L154.892,66.778L155.561,66.778L156.915,66.778L157.602,66.778L158.321,66.778L158.935,66.778L159.604,66.778L160.953,66.778L161.639,66.778L162.358,66.778L162.984,66.778L163.644,66.778L164.994,66.778L165.68,66.778L166.398,66.778L167.026,66.778L167.681,66.778L169.034,66.778L169.721,66.778L170.442,66.778L171.065,66.778L171.72,66.778L173.072,66.778L173.759,66.778L174.477,66.778L175.101,66.778L175.76,66.778L177.111,66.778L177.785,66.778L178.5,66.778L179.13,66.778L179.8,66.778L181.151,66.778L181.825,66.778L182.541,66.778L183.167,66.778L183.839,66.778L185.195,66.778L185.883,66.778L186.602,66.778L187.207,66.778L187.881,66.778L189.233,66.778L189.924,66.778L190.641,66.778L191.26,66.778L191.921,66.778L193.275,66.778L193.961,66.778L194.682,66.778L195.302,66.778L195.962,66.778L197.31,66.778L197.994,66.778L198.711,66.778L199.34,66.778L199.999,66.778" stroke="#b279a2" stroke-width="2"/></g></g><path class="foreground" aria-hidden="true" d="" display="none"/></g><g transform="translate(0,0)"><path class="background" aria-hidden="true" d="M0,0h200v200h-200Z"/><g><g class="mark-line role-mark marks" role="graphics-object" aria-roledescription="line mark container"><path aria-label="Time: Aug 27, 2025; Price: 999; identifier: allure-rs-2-2022" role="graphics-symbol" aria-roledescription="line mark" d="M52.83,89L53.283,89L53.734,89L53.91,89L54.571,89L55.92,89L56.605,89L57.325,89L57.949,89L58.609,89L59.96,89L60.642,89L61.36,89L61.988,89L62.647,89L66.653,111.222L66.684,111.222L68.037,111.222L68.469,111.222L68.711,111.222L69.429,111.222L70.06,111.222L70.726,111.222L72.09,111.222L72.769,111.222L73.486,111.222L74.105,111.222L74.765,111.222L76.123,111.222L76.806,111.222L77.528,111.222L78.147,111.222L78.807,111.222L80.158,111.222L80.84,111.222L81.559,111.222L82.185,111.222L82.845,111.222L84.197,111.222L84.881,111.222L85.595,111.222L86.228,111.222L86.884,111.222L88.238,111.222L88.92,111.222L89.637,111.222L90.26,111.222L90.925,111.222L92.273,111.222L92.62,111.222L92.948,111.222L93.66,111.222L94.293,111.222L94.963,111.222L96.312,111.222L96.987,111.222L97.702,111.222L98.333,111.222L99.003,111.222L100.359,111.222L101.046,111.222L101.766,111.222L102.387,111.222L103.049,111.222L104.397,111.222L105.084,111.222L105.829,111.222L106.429,111.222L107.084,111.222L108.431,111.222L109.12,111.222L109.836,111.222L110.463,111.222L111.125,111.222L112.476,111.222L113.158,111.222L113.874,111.222L114.495,111.222L115.162,111.222L116.513,111.222L117.197,111.222L117.912,111.222L118.536,111.222L119.201,111.222L120.55,111.222L121.227,111.222L121.94,111.222L122.568,111.222L123.241,111.222L124.591,111.222L125.267,111.222L125.977,111.222L126.607,111.222L127.281,111.222L128.638,111.222L129.319,111.222L130.041,111.222L130.664,111.222L131.324,111.222L132.674,111.222L133.362,111.222L134.08,111.222L134.701,111.222L135.364,111.222L136.716,111.222L137.399,111.222L138.12,111.222L138.742,111.222L139.403,111.222L140.755,111.222L141.437,111.222L142.158,111.222L142.78,111.222L143.444,111.222L144.795,111.222L145.477,111.222L146.196,111.222L146.822,111.222L147.481,111.222L148.831,111.222L149.51,111.222L150.224,111.222L150.849,111.222L151.519,111.222L152.873,111.222L153.546,111.222L154.263,111.222L154.892,111.222L155.561,111.222L156.915,111.222L157.602,111.222L158.321,111.222L158.935,111.222L159.604,111.222L160.953,111.222L161.639,111.222L162.358,111.222L162.984,111.222L163.644,111.222L164.994,111.222L165.68,111.222L166.399,111.222L167.026,111.222L167.681,111.222L169.034,111.222L169.721,111.222L170.442,111.222L171.065,111.222L171.72,111.222L173.072,111.222L173.759,111.222L174.477,111.222L175.101,111.222L175.76,111.222L177.111,111.222L177.785,111.222L178.5,111.222L179.13,111.222L179.8,111.222L181.151,111.222L181.825,111.222L182.542,111.222L183.167,111.222L183.839,111.222L185.195,111.222L185.883,111.222L186.602,111.222L187.207,111.222L187.881,111.222L189.233,111.222L189.924,111.222L190.641,111.222L191.26,111.222L191.921,111.222L193.275,111.222L193.961,111.222L194.682,111.222L195.302,111.222L195.962,111.222L197.31,111.222L197.994,111.222L198.711,111.222L199.341,111.222L199.999,111.222" stroke="#54a24b" stroke-width="2"/></g></g><path class="foreground" aria-hidden="true" d="" display="none"/></g><g transform="translate(0,0)"><path class="background" aria-hidden="true" d="M0,0h200v200h-200Z"/><g><g class="mark-line role-mark marks" role="graphics-object" aria-roledescription="line mark container"><path aria-label="Time: Aug 27, 2025; Price: 949; identifier: allure-rs-2-2023" role="graphics-symbol" aria-roledescription="line mark" d="M52.83,94.556L53.283,94.556L53.734,94.556L53.91,94.556L54.571,94.556L55.921,94.556L56.606,94.556L57.325,94.556L57.95,94.556L58.61,94.556L59.961,94.556L60.643,94.556L61.36,94.556L61.988,94.556L62.647,94.556L63.996,94.556L64.673,94.556L65.388,94.556L66.018,94.556L66.653,94.556L66.684,94.556L68.037,94.556L68.469,94.556L68.711,94.556L69.429,94.556L70.06,94.556L70.726,94.556L72.09,94.556L72.769,94.556L73.486,94.556L74.105,94.556L74.765,94.556L76.123,94.556L76.806,94.556L77.528,94.556L78.147,94.556L78.807,94.556L80.158,94.556L80.84,94.556L81.559,94.556L82.185,94.556L82.845,94.556L84.197,94.556L84.881,94.556L85.595,94.556L86.228,94.556L86.885,94.556L88.238,94.556L88.92,94.556L89.637,94.556L90.26,94.556L90.926,94.556L92.274,94.556L92.62,94.556L92.948,94.556L93.66,94.556L94.293,94.556L94.963,94.556L96.312,94.556L96.987,94.556L97.703,94.556L98.333,94.556L99.003,94.556L100.359,94.556L101.046,94.556L101.766,94.556L102.387,94.556L103.049,94.556L104.397,94.556L105.084,94.556L105.829,94.556L106.429,94.556L107.084,94.556L108.431,94.556L109.12,94.556L109.836,94.556L110.463,94.556L111.126,94.556L112.476,94.556L113.158,94.556L113.874,94.556L114.495,94.556L115.162,94.556L116.513,94.556L117.197,94.556L117.912,94.556L118.536,94.556L119.201,94.556L120.55,94.556L121.227,94.556L121.94,94.556L122.568,94.556L123.242,94.556L124.592,94.556L125.267,94.556L125.977,94.556L126.607,94.556L127.281,94.556L128.638,94.556L129.319,94.556L130.041,94.556L130.664,94.556L131.324,94.556L132.674,94.556L133.362,94.556L134.08,94.556L134.701,94.556L135.364,94.556L136.716,94.556L137.399,94.556L138.12,94.556L138.742,94.556L139.403,94.556L140.755,94.556L141.437,94.556L142.158,94.556L142.78,94.556L143.444,94.556L144.795,94.556L145.477,94.556L146.197,94.556L146.822,94.556L147.481,94.556L148.832,94.556L149.51,94.556L150.224,94.556L150.849,94.556L151.52,94.556L152.873,94.556L153.546,94.556L154.263,94.556L154.892,94.556L155.561,94.556L156.915,94.556L157.603,94.556L158.321,94.556L158.935,94.556L159.605,94.556L160.953,94.556L161.639,94.556L162.358,94.556L162.984,94.556L163.644,94.556L164.994,94.556L165.68,94.556L166.399,94.556L167.026,94.556L167.681,94.556L169.034,94.556L169.721,94.556L170.442,94.556L171.065,94.556L171.72,94.556L173.072,94.556L173.759,94.556L174.477,94.556L175.101,94.556L175.76,94.556L177.112,94.556L177.785,94.556L178.5,94.556L179.13,94.556L179.8,94.556L181.151,94.556L181.825,94.556L182.542,94.556L183.167,94.556L183.839,94.556L185.195,94.556L185.883,94.556L186.602,94.556L187.207,94.556L187.881,94.556L189.233,94.556L189.924,94.556L190.641,94.556L191.26,94.556L191.921,94.556L193.275,94.556L193.961,94.556L194.682,94.556L195.302,94.556L195.962,94.556L197.31,94.556L197.994,94.556L198.711,94.556L199.341,94.556L199.999,94.556" stroke="#bab0ac" stroke-width="2"/></g></g><path class="foreground" aria-hidden="true" d="" display="none"/></g><g transform="translate(0,0)"><path class="background" aria-hidden="true" d="M0,0h200v200h-200Z"/><g><g class="mark-line role-mark marks" role="graphics-object" aria-roledescription="line mark container"><path aria-label="Time: Aug 27, 2025; Price: 999; identifier: allure-rs-2-2024" role="graphics-symbol" aria-roledescription="line mark" d="M52.83,89L53.284,89L53.734,89L53.91,89L54.572,89L55.921,89L56.606,89L57.325,89L57.95,89L58.61,89L59.961,89L60.643,89L61.36,89L61.988,89L62.647,89L66.653,111.222L66.684,111.222L68.037,111.222L68.469,111.222L68.711,111.222L69.429,111.222L70.06,111.222L70.726,111.222L72.09,111.222L72.769,111.222L73.486,111.222L74.105,111.222L74.765,111.222L76.124,111.222L76.806,111.222L77.528,111.222L78.147,111.222L78.807,111.222L80.158,111.222L80.84,111.222L81.559,111.222L82.185,111.222L82.846,111.222L84.197,111.222L84.881,111.222L85.595,111.222L86.228,111.222L86.885,111.222L88.238,111.222L88.92,111.222L89.637,111.222L90.26,111.222L90.926,111.222L92.274,111.222L92.62,111.222L92.948,111.222L93.66,111.222L94.293,111.222L94.963,111.222L96.312,111.222L96.987,111.222L97.703,111.222L98.333,111.222L99.003,111.222L100.359,111.222L101.046,111.222L101.767,111.222L102.387,111.222L103.049,111.222L104.397,111.222L105.084,111.222L105.829,111.222L106.43,111.222L107.084,111.222L108.431,111.222L109.12,111.222L109.836,111.222L110.463,111.222L111.126,111.222L112.477,111.222L113.158,111.222L113.874,111.222L114.495,111.222L115.162,111.222L116.513,111.222L117.197,111.222L117.912,111.222L118.536,111.222L119.201,111.222L120.55,111.222L121.227,111.222L121.94,111.222L122.569,111.222L123.242,111.222L124.592,111.222L125.267,111.222L125.977,111.222L126.607,111.222L127.281,111.222L128.638,111.222L129.319,111.222L130.041,111.222L130.664,111.222L131.324,111.222L132.675,111.222L133.362,111.222L134.08,111.222L134.702,111.222L135.364,111.222L136.716,111.222L137.399,111.222L138.12,111.222L138.742,111.222L139.403,111.222L140.755,111.222L141.437,111.222L142.159,111.222L142.78,111.222L143.444,111.222L144.795,111.222L145.477,111.222L146.197,111.222L146.822,111.222L147.481,111.222L148.832,111.222L149.51,111.222L150.224,111.222L150.849,111.222L151.52,111.222L152.873,111.222L153.546,111.222L154.263,111.222L154.892,111.222L155.561,111.222L156.915,111.222L157.603,111.222L158.321,111.222L158.935,111.222L159.605,111.222L160.953,111.222L161.639,111.222L162.358,111.222L162.984,111.222L163.644,111.222L164.995,111.222L165.68,111.222L166.399,111.222L167.027,111.222L167.681,111.222L169.035,111.222L169.722,111.222L170.442,111.222L171.065,111.222L171.72,111.222L173.073,111.222L173.759,111.222L174.477,111.222L175.101,111.222L175.76,111.222L177.112,111.222L177.785,111.222L178.5,111.222L179.13,111.222L179.8,111.222L181.151,111.222L181.825,111.222L182.542,111.222L183.167,111.222L183.839,111.222L185.195,111.222L185.883,111.222L186.602,111.222L187.207,111.222L187.881,111.222L189.233,111.222L189.924,111.222L190.641,111.222L191.26,111.222L191.922,111.222L193.275,111.222L193.961,111.222L194.682,111.222L195.302,111.222L195.962,111.222L197.31,111.222L197.994,111.222L198.711,111.222L199.341,111.222L199.999,111.222" stroke="#eeca3b" stroke-width="2"/></g></g><path class="foreground" aria-hidden="true" d="" display="none"/></g><g transform="translate(0,0)"><path class="background" aria-hidden="true" d="M0,0h200v200h-200Z"/><g><g class="mark-line role-mark marks" role="graphics-object" aria-roledescription="line mark container"><path aria-label="Time: Aug 27, 2025; Price: 1799; identifier: devote-1-2024" role="graphics-symbol" aria-roledescription="line mark" d="M53.734,0.111L53.911,0.111L54.572,0.111L55.921,0.111L56.606,0.111L57.325,0.111L57.95,0.111L58.61,0.111L59.961,0.111L60.643,0.111L61.36,0.111L61.988,0.111L62.647,0.111L66.653,44.556L66.684,44.556L68.037,44.556L68.469,44.556L68.711,44.556L69.429,44.556L70.06,44.556L70.726,44.556L72.09,44.556L72.769,44.556L73.486,44.556L74.105,44.556L74.765,44.556L76.124,44.556L76.806,44.556L77.529,44.556L78.147,44.556L78.807,44.556L80.158,44.556L80.84,44.556L81.559,44.556L82.185,44.556L82.846,44.556L84.197,44.556L84.881,44.556L85.595,44.556L86.228,44.556L86.885,44.556L88.238,44.556L88.92,44.556L89.637,44.556L90.26,44.556L90.926,44.556L92.274,44.556L92.62,44.556L92.948,44.556L93.661,44.556L94.293,44.556L94.963,44.556L96.312,44.556L96.987,44.556L97.703,44.556L98.333,44.556L99.003,44.556L100.359,44.556L101.046,44.556L101.767,44.556L102.387,44.556L103.049,44.556L104.397,44.556L105.084,44.556L105.829,44.556L106.43,44.556L107.084,44.556L108.431,44.556L109.12,44.556L109.836,44.556L110.463,44.556L111.126,44.556L112.477,44.556L113.158,44.556L113.874,44.556L114.495,44.556L115.162,44.556L116.513,44.556L117.197,44.556L117.913,44.556L118.536,44.556L119.201,44.556L120.55,44.556L121.227,44.556L121.94,44.556L122.569,44.556L123.242,44.556L124.592,44.556L125.267,44.556L125.977,44.556L126.607,44.556L127.282,44.556L128.638,44.556L129.319,44.556L130.041,44.556L130.665,44.556L131.325,44.556L132.675,44.556L133.362,44.556L134.08,44.556L134.702,44.556L135.365,44.556L136.716,44.556L137.399,44.556L138.12,44.556L138.742,44.556L139.404,44.556L140.755,44.556L141.438,44.556L142.159,44.556L142.78,44.556L143.444,44.556L144.795,44.556L145.477,44.556L146.197,44.556L146.822,44.556L147.481,44.556L148.832,44.556L149.51,44.556L150.224,44.556L150.849,44.556L151.52,44.556L152.873,44.556L153.546,44.556L154.263,44.556L154.892,44.556L155.561,44.556L156.915,44.556L157.603,44.556L158.322,44.556L158.935,44.556L159.605,44.556L160.954,44.556L161.639,44.556L162.358,44.556L162.984,44.556L163.644,44.556L164.995,44.556L165.68,44.556L166.399,44.556L167.027,44.556L167.681,44.556L169.035,44.556L169.722,44.556L170.442,44.556L171.065,44.556L171.72,44.556L173.073,44.556L173.759,44.556L174.477,44.556L175.101,44.556L175.76,44.556L177.112,44.556L177.785,44.556L178.5,44.556L179.13,44.556L179.8,44.556L181.152,44.556L181.825,44.556L182.542,44.556L183.167,44.556L183.839,44.556L185.195,44.556L185.883,44.556L186.602,44.556L187.207,44.556L187.881,44.556L189.233,44.556L189.925,44.556L190.642,44.556L191.26,44.556L191.922,44.556L193.276,44.556L193.961,44.556L194.682,44.556L195.302,44.556L195.962,44.556L197.31,44.556L197.994,44.556L198.711,44.556L199.341,44.556L199.999,44.556" stroke="#72b7b2" stroke-width="2"/></g></g><path class="foreground" aria-hidden="true" d="" display="none"/></g><g transform="translate(0,0)"><path class="background" aria-hidden="true" d="M0,0h200v200h-200Z"/><g><g class="mark-line role-mark marks" role="graphics-object" aria-roledescription="line mark container"><path aria-label="Time: Aug 27, 2025; Price: 1699; identifier: devote-1-2022" role="graphics-symbol" aria-roledescription="line mark" d="M53.734,11.222L53.911,11.222L54.572,11.222L55.921,11.222L56.606,11.222L57.325,11.222L57.95,11.222L58.61,11.222L59.961,11.222L60.643,11.222L61.36,11.222L61.988,11.222L62.647,11.222L63.996,11.222L64.673,11.222L65.388,11.222L66.018,11.222L66.653,11.222L66.685,11.222L68.037,11.222L68.469,11.222L68.711,11.222L69.43,11.222L70.06,11.222L70.726,11.222L72.09,11.222L72.769,11.222L73.486,11.222L74.105,11.222L74.765,11.222L76.124,11.222L76.807,11.222L77.529,11.222L78.147,11.222L78.808,11.222L80.158,11.222L80.84,11.222L81.559,11.222L82.185,11.222L82.846,11.222L84.197,11.222L84.881,11.222L85.596,11.222L86.228,11.222L86.885,11.222L88.238,11.222L88.92,11.222L89.638,11.222L90.26,11.222L90.926,11.222L92.274,11.222L92.62,11.222L92.948,11.222L93.661,11.222L94.293,11.222L94.963,11.222L96.312,11.222L96.987,11.222L97.703,11.222L98.333,11.222L99.003,11.222L100.359,11.222L101.046,11.222L101.767,11.222L102.387,11.222L103.049,11.222L104.397,11.222L105.084,11.222L105.829,11.222L106.43,11.222L107.084,11.222L108.431,11.222L109.12,11.222L109.836,11.222L110.463,11.222L111.126,11.222L112.477,11.222L113.159,11.222L113.874,11.222L114.495,11.222L115.162,11.222L116.513,11.222L117.197,11.222L117.913,11.222L118.537,11.222L119.202,11.222L120.551,11.222L121.227,11.222L121.94,11.222L122.569,11.222L123.242,11.222L124.592,11.222L125.267,11.222L125.977,11.222L126.607,11.222L127.282,11.222L128.638,11.222L129.319,11.222L130.042,11.222L130.665,11.222L131.326,11.222L132.675,11.222L133.362,11.222L134.08,11.222L134.702,11.222L135.365,11.222L136.716,11.222L137.399,11.222L138.12,11.222L138.743,11.222L139.404,11.222L140.755,11.222L141.438,11.222L142.159,11.222L142.78,11.222L143.444,11.222L144.795,11.222L145.477,11.222L146.197,11.222L146.822,11.222L147.481,11.222L148.832,11.222L149.51,11.222L150.224,11.222L150.849,11.222L151.52,11.222L152.873,11.222L153.546,11.222L154.263,11.222L154.892,11.222L155.561,11.222L156.915,11.222L157.603,11.222L158.322,11.222L158.935,11.222L159.605,11.222L160.954,11.222L161.639,11.222L162.358,11.222L162.984,11.222L163.644,11.222L164.995,11.222L165.681,11.222L166.399,11.222L167.027,11.222L167.681,11.222L169.035,11.222L169.722,11.222L170.442,11.222L171.065,11.222L171.72,11.222L173.073,11.222L173.759,11.222L174.477,11.222L175.101,11.222L175.76,11.222L177.112,11.222L177.785,11.222L178.501,11.222L179.13,11.222L179.801,11.222L181.152,11.222L181.826,11.222L182.542,11.222L183.167,11.222L183.839,11.222L185.195,11.222L185.883,11.222L186.603,11.222L187.207,11.222L187.881,11.222L189.233,11.222L189.925,11.222L190.642,11.222L191.261,11.222L191.922,11.222L193.276,11.222L193.961,11.222L194.682,11.222L195.302,11.222L195.962,11.222L197.31,11.222L197.994,11.222L198.711,11.222L199.341,11.222L200,11.222" stroke="#4c78a8" stroke-width="2"/></g></g><path class="foreground" aria-hidden="true" d="" display="none"/></g><g transform="translate(0,0)"><path class="background" aria-hidden="true" d="M0,0h200v200h-200Z"/><g><g class="mark-line role-mark marks" role="graphics-object" aria-roledescription="line mark container"><path aria-label="Time: Aug 31, 2025; Price: 1599; identifier: silex-400-oak-bork-2026" role="graphics-symbol" aria-roledescription="line mark" d="M68.469,22.333L68.711,22.333L69.43,22.333L70.06,22.333L70.726,22.333L72.09,22.333L72.769,22.333L73.486,22.333L74.105,22.333L74.765,22.333L76.124,22.333L76.807,22.333L77.529,22.333L78.147,22.333L78.808,22.333L80.158,22.333L80.84,22.333L81.56,22.333L82.185,22.333L82.846,22.333L84.197,22.333L84.881,22.333L85.596,22.333L86.228,22.333L86.885,22.333L88.238,22.333L88.92,22.333L89.638,22.333L90.26,22.333L90.926,22.333L92.274,22.333L92.62,22.333L92.948,22.333L93.661,22.333L94.293,22.333L94.963,22.333L96.312,22.333L96.988,22.333L97.703,22.333L98.333,22.333L99.003,22.333L100.359,22.333L101.047,22.333L101.767,22.333L102.387,22.333L103.049,22.333L104.398,22.333L105.085,22.333L105.83,22.333L106.43,22.333L107.084,22.333L108.432,22.333L109.121,22.333L109.837,22.333L110.463,22.333L111.126,22.333L112.477,22.333L113.159,22.333L113.875,22.333L114.495,22.333L115.162,22.333L116.513,22.333L117.197,22.333L117.913,22.333L118.537,22.333L119.202,22.333L120.551,22.333L121.227,22.333L121.94,22.333L122.569,22.333L123.242,22.333L124.592,22.333L125.267,22.333L125.977,22.333L126.607,22.333L127.282,22.333L128.639,22.333L129.319,22.333L130.042,22.333L130.665,22.333L131.326,22.333L132.675,22.333L133.363,22.333L134.08,22.333L134.702,22.333L135.365,22.333L136.716,22.333L137.399,22.333L138.12,22.333L138.743,22.333L139.404,22.333L140.755,22.333L141.438,22.333L142.159,22.333L142.78,22.333L143.444,22.333L144.795,22.333L145.478,22.333L146.197,22.333L146.822,22.333L147.481,22.333L148.832,22.333L149.51,22.333L150.225,22.333L150.849,22.333L151.52,22.333L152.873,22.333L153.547,22.333L154.263,22.333L154.893,22.333L155.562,22.333L156.915,22.333L157.603,22.333L158.322,22.333L158.935,22.333L159.605,22.333L160.954,22.333L161.639,22.333L162.358,22.333L162.984,22.333L163.644,22.333L164.995,22.333L165.681,22.333L166.4,22.333L167.027,22.333L167.681,22.333L169.035,22.333L169.722,22.333L170.442,22.333L171.066,22.333L171.72,22.333L173.073,22.333L173.759,22.333L174.477,22.333L175.102,22.333L175.761,22.333L177.112,22.333L177.785,22.333L178.501,22.333L179.13,22.333L179.801,22.333L181.152,22.333L181.826,22.333L182.542,22.333L183.167,22.333L183.839,22.333L185.196,22.333L185.883,22.333L186.603,22.333L187.207,22.333L187.882,22.333L189.234,22.333L189.925,22.333L190.642,22.333L191.261,22.333L191.923,22.333L193.276,22.333L193.961,22.333L194.682,22.333L195.302,22.333L195.962,22.333L197.31,22.333L197.994,22.333L198.712,22.333L199.341,22.333L200,22.333" stroke="#f58518" stroke-width="2"/></g></g><path class="foreground" aria-hidden="true" d="" display="none"/></g><g transform="translate(0,0)"><path class="background" aria-hidden="true" d="M0,0h200v200h-200Z"/><g><g class="mark-line role-mark marks" role="graphics-object" aria-roledescription="line mark container"><path aria-label="Time: Aug 31, 2025; Price: 1599; identifier: silex-400-warm-slate-grey-2026" role="graphics-symbol" aria-roledescription="line mark" d="M68.469,22.333L68.712,22.333L69.43,22.333L70.06,22.333L70.726,22.333L72.091,22.333L72.77,22.333L73.487,22.333L74.105,22.333L74.765,22.333L76.124,22.333L76.807,22.333L77.529,22.333L78.147,22.333L78.808,22.333L80.158,22.333L80.84,22.333L81.56,22.333L82.185,22.333L82.846,22.333L84.197,22.333L84.882,22.333L85.596,22.333L86.228,22.333L86.885,22.333L88.239,22.333L88.92,22.333L89.638,22.333L90.26,22.333L90.926,22.333L92.274,22.333L92.62,22.333L92.948,22.333L93.661,22.333L94.293,22.333L94.964,22.333L96.313,22.333L96.988,22.333L97.703,22.333L98.333,22.333L99.003,22.333L100.36,22.333L101.047,22.333L101.767,22.333L102.388,22.333L103.049,22.333L104.398,22.333L105.085,22.333L105.83,22.333L106.43,22.333L107.084,22.333L108.432,22.333L109.121,22.333L109.837,22.333L110.464,22.333L111.126,22.333L112.477,22.333L113.159,22.333L113.875,22.333L114.495,22.333L115.162,22.333L116.514,22.333L117.197,22.333L117.913,22.333L118.537,22.333L119.202,22.333L120.551,22.333L121.227,22.333L121.941,22.333L122.569,22.333L123.242,22.333L124.592,22.333L125.267,22.333L125.977,22.333L126.608,22.333L127.282,22.333L128.639,22.333L129.319,22.333L130.042,22.333L130.665,22.333L131.326,22.333L132.675,22.333L133.363,22.333L134.08,22.333L134.702,22.333L135.365,22.333L136.716,22.333L137.399,22.333L138.12,22.333L138.743,22.333L139.404,22.333L140.755,22.333L141.438,22.333L142.159,22.333L142.78,22.333L143.444,22.333L144.795,22.333L145.478,22.333L146.197,22.333L146.822,22.333L147.482,22.333L148.832,22.333L149.51,22.333L150.225,22.333L150.85,22.333L151.52,22.333L152.873,22.333L153.547,22.333L154.263,22.333L154.893,22.333L155.562,22.333L156.915,22.333L157.603,22.333L158.322,22.333L158.935,22.333L159.605,22.333L160.954,22.333L161.64,22.333L162.359,22.333L162.985,22.333L163.645,22.333L164.995,22.333L165.681,22.333L166.4,22.333L167.027,22.333L167.681,22.333L169.035,22.333L169.722,22.333L170.442,22.333L171.066,22.333L171.72,22.333L173.073,22.333L173.76,22.333L174.477,22.333L175.102,22.333L175.761,22.333L177.112,22.333L177.786,22.333L178.501,22.333L179.131,22.333L179.801,22.333L181.152,22.333L181.826,22.333L182.542,22.333L183.167,22.333L183.84,22.333L185.196,22.333L185.883,22.333L186.603,22.333L187.207,22.333L187.882,22.333L189.234,22.333L189.925,22.333L190.642,22.333L191.261,22.333L191.923,22.333L193.276,22.333L193.962,22.333L194.683,22.333L195.302,22.333L195.963,22.333L197.31,22.333L197.994,22.333L198.712,22.333L199.341,22.333L200,22.333" stroke="#e45756" stroke-width="2"/></g></g><path class="foreground" aria-hidden="true" d="" display="none"/></g></g><g class="mark-group role-legend" role="graphics-symbol" aria-roledescription="legend" aria-label="Symbol legend titled 'identifier' for stroke color with 16 values: devote-1-2022, silex-400-oak-bork-2026, silex-400-warm-slate-grey-2026, devote-1-2024, fastroad-ar-2, ending with allure-rs-2-2024"><g transform="translate(220,0)"><path class="background" aria-hidden="true" d="M0,0h256v222h-256Z" pointer-events="none"/><g><g class="mark-group role-legend-entry"><g transform="translate(0,16)"><path class="background" aria-hidden="true" d="M0,0h0v0h0Z" pointer-events="none"/><g><g class="mark-group role-scope" role="graphics-object" aria-roledescription="group mark container"><g transform="translate(0,0)"><path class="background" aria-hidden="true" d="M0,0h256v11h-256Z" pointer-events="none" opacity="1"/><g><g class="mark-symbol role-legend-symbol" pointer-events="none"><path transform="translate(6,6)" d="M-5,0L5,0" stroke="#4c78a8" stroke-width="1.5" opacity="1"/></g><g class="mark-text role-legend-label" pointer-events="none"><text text-anchor="start" transform="translate(16,9)" font-family="Liberation Mono" font-size="10px" fill="#000" opacity="1">devote-1-2022</text></g></g><path class="foreground" aria-hidden="true" d="" pointer-events="none" display="none"/></g><g transform="translate(0,13)"><path class="background" aria-hidden="true" d="M0,0h256v11h-256Z" pointer-events="none" opacity="1"/><g><g class="mark-symbol role-legend-symbol" pointer-events="none"><path transform="translate(6,6)" d="M-5,0L5,0" stroke="#f58518" stroke-width="1.5" opacity="1"/></g><g class="mark-text role-legend-label" pointer-events="none"><text text-anchor="start" transform="translate(16,9)" font-family="Liberation Mono" font-size="10px" fill="#000" opacity="1">silex-400-oak-bork-2026</text></g></g><path class="foreground" aria-hidden="true" d="" pointer-events="none" display="none"/></g><g transform="translate(0,26)"><path class="background" aria-hidden="true" d="M0,0h256v11h-256Z" pointer-events="none" opacity="1"/><g><g class="mark-symbol role-legend-symbol" pointer-events="none"><path transform="translate(6,6)" d="M-5,0L5,0" stroke="#e45756" stroke-width="1.5" opacity="1"/></g><g class="mark-text role-legend-label" pointer-events="none"><text text-anchor="start" transform="translate(16,9)" font-family="Liberation Mono" font-size="10px" fill="#000" opacity="1">silex-400-warm-slate-grey-2026</text></g></g><path class="foreground" aria-hidden="true" d="" pointer-events="none" display="none"/></g><g transform="translate(0,39)"><path class="background" aria-hidden="true" d="M0,0h256v11h-256Z" pointer-events="none" opacity="1"/><g><g class="mark-symbol role-legend-symbol" pointer-events="none"><path transform="translate(6,6)" d="M-5,0L5,0" stroke="#72b7b2" stroke-width="1.5" opacity="1"/></g><g class="mark-text role-legend-label" pointer-events="none"><text text-anchor="start" transform="translate(16,9)" font-family="Liberation Mono" font-size="10px" fill="#000" opacity="1">devote-1-2024</text></g></g><path class="foreground" aria-hidden="true" d="" pointer-events="none" display="none"/></g><g transform="translate(0,52)"><path class="background" aria-hidden="true" d="M0,0h256v11h-256Z" pointer-events="none" opacity="1"/><g><g class="mark-symbol role-legend-symbol" pointer-events="none"><path transform="translate(6,6)" d="M-5,0L5,0" stroke="#54a24b" stroke-width="1.5" opacity="1"/></g><g class="mark-text role-legend-label" pointer-events="none"><text text-anchor="start" transform="translate(16,9)" font-family="Liberation Mono" font-size="10px" fill="#000" opacity="1">fastroad-ar-2</text></g></g><path class="foreground" aria-hidden="true" d="" pointer-events="none" display="none"/></g><g transform="translate(0,65)"><path class="background" aria-hidden="true" d="M0,0h256v11h-256Z" pointer-events="none" opacity="1"/><g><g class="mark-symbol role-legend-symbol" pointer-events="none"><path transform="translate(6,6)" d="M-5,0L5,0" stroke="#eeca3b" stroke-width="1.5" opacity="1"/></g><g class="mark-text role-legend-label" pointer-events="none"><text text-anchor="start" transform="translate(16,9)" font-family="Liberation Mono" font-size="10px" fill="#000" opacity="1">thrive-2</text></g></g><path class="foreground" aria-hidden="true" d="" pointer-events="none" display="none"/></g><g transform="translate(0,78)"><path class="background" aria-hidden="true" d="M0,0h256v11h-256Z" pointer-events="none" opacity="1"/><g><g class="mark-symbol role-legend-symbol" pointer-events="none"><path transform="translate(6,6)" d="M-5,0L5,0" stroke="#b279a2" stroke-width="1.5" opacity="1"/></g><g class="mark-text role-legend-label" pointer-events="none"><text text-anchor="start" transform="translate(16,9)" font-family="Liberation Mono" font-size="10px" fill="#000" opacity="1">allure-rs-1-2023</text></g></g><path class="foreground" aria-hidden="true" d="" pointer-events="none" display="none"/></g><g transform="translate(0,91)"><path class="background" aria-hidden="true" d="M0,0h256v11h-256Z" pointer-events="none" opacity="1"/><g><g class="mark-symbol role-legend-symbol" pointer-events="none"><path transform="translate(6,6)" d="M-5,0L5,0" stroke="#ff9da6" stroke-width="1.5" opacity="1"/></g><g class="mark-text role-legend-label" pointer-events="none"><text text-anchor="start" transform="translate(16,9)" font-family="Liberation Mono" font-size="10px" fill="#000" opacity="1">roam-2</text></g></g><path class="foreground" aria-hidden="true" d="" pointer-events="none" display="none"/></g><g transform="translate(0,104)"><path class="background" aria-hidden="true" d="M0,0h256v11h-256Z" pointer-events="none" opacity="1"/><g><g class="mark-symbol role-legend-symbol" pointer-events="none"><path transform="translate(6,6)" d="M-5,0L5,0" stroke="#9d755d" stroke-width="1.5" opacity="1"/></g><g class="mark-text role-legend-label" pointer-events="none"><text text-anchor="start" transform="translate(16,9)" font-family="Liberation Mono" font-size="10px" fill="#000" opacity="1">fastroad-sl-3-2022</text></g></g><path class="foreground" aria-hidden="true" d="" pointer-events="none" display="none"/></g><g transform="translate(0,117)"><path class="background" aria-hidden="true" d="M0,0h256v11h-256Z" pointer-events="none" opacity="1"/><g><g class="mark-symbol role-legend-symbol" pointer-events="none"><path transform="translate(6,6)" d="M-5,0L5,0" stroke="#bab0ac" stroke-width="1.5" opacity="1"/></g><g class="mark-text role-legend-label" pointer-events="none"><text text-anchor="start" transform="translate(16,9)" font-family="Liberation Mono" font-size="10px" fill="#000" opacity="1">allure-rs-2-2023</text></g></g><path class="foreground" aria-hidden="true" d="" pointer-events="none" display="none"/></g><g transform="translate(0,130)"><path class="background" aria-hidden="true" d="M0,0h256v11h-256Z" pointer-events="none" opacity="1"/><g><g class="mark-symbol role-legend-symbol" pointer-events="none"><path transform="translate(6,6)" d="M-5,0L5,0" stroke="#4c78a8" stroke-width="1.5" opacity="1"/></g><g class="mark-text role-legend-label" pointer-events="none"><text text-anchor="start" transform="translate(16,9)" font-family="Liberation Mono" font-size="10px" fill="#000" opacity="1">escape-city-disc-1-2024</text></g></g><path class="foreground" aria-hidden="true" d="" pointer-events="none" display="none"/></g><g transform="translate(0,143)"><path class="background" aria-hidden="true" d="M0,0h256v11h-256Z" pointer-events="none" opacity="1"/><g><g class="mark-symbol role-legend-symbol" pointer-events="none"><path transform="translate(6,6)" d="M-5,0L5,0" stroke="#f58518" stroke-width="1.5" opacity="1"/></g><g class="mark-text role-legend-label" pointer-events="none"><text text-anchor="start" transform="translate(16,9)" font-family="Liberation Mono" font-size="10px" fill="#000" opacity="1">sdrbike-escape-1-city-disc</text></g></g><path class="foreground" aria-hidden="true" d="" pointer-events="none" display="none"/></g><g transform="translate(0,156)"><path class="background" aria-hidden="true" d="M0,0h256v11h-256Z" pointer-events="none" opacity="1"/><g><g class="mark-symbol role-legend-symbol" pointer-events="none"><path transform="translate(6,6)" d="M-5,0L5,0" stroke="#e45756" stroke-width="1.5" opacity="1"/></g><g class="mark-text role-legend-label" pointer-events="none"><text text-anchor="start" transform="translate(16,9)" font-family="Liberation Mono" font-size="10px" fill="#000" opacity="1">roam-disc-2-2024</text></g></g><path class="foreground" aria-hidden="true" d="" pointer-events="none" display="none"/></g><g transform="translate(0,169)"><path class="background" aria-hidden="true" d="M0,0h256v11h-256Z" pointer-events="none" opacity="1"/><g><g class="mark-symbol role-legend-symbol" pointer-events="none"><path transform="translate(6,6)" d="M-5,0L5,0" stroke="#72b7b2" stroke-width="1.5" opacity="1"/></g><g class="mark-text role-legend-label" pointer-events="none"><text text-anchor="start" transform="translate(16,9)" font-family="Liberation Mono" font-size="10px" fill="#000" opacity="1">rove-2</text></g></g><path class="foreground" aria-hidden="true" d="" pointer-events="none" display="none"/></g><g transform="translate(0,182)"><path class="background" aria-hidden="true" d="M0,0h256v11h-256Z" pointer-events="none" opacity="1"/><g><g class="mark-symbol role-legend-symbol" pointer-events="none"><path transform="translate(6,6)" d="M-5,0L5,0" stroke="#54a24b" stroke-width="1.5" opacity="1"/></g><g class="mark-text role-legend-label" pointer-events="none"><text text-anchor="start" transform="translate(16,9)" font-family="Liberation Mono" font-size="10px" fill="#000" opacity="1">allure-rs-2-2022</text></g></g><path class="foreground" aria-hidden="true" d="" pointer-events="none" display="none"/></g><g transform="translate(0,195)"><path class="background" aria-hidden="true" d="M0,0h256v11h-256Z" pointer-events="none" opacity="1"/><g><g class="mark-symbol role-legend-symbol" pointer-events="none"><path transform="translate(6,6)" d="M-5,0L5,0" stroke="#eeca3b" stroke-width="1.5" opacity="1"/></g><g class="mark-text role-legend-label" pointer-events="none"><text text-anchor="start" transform="translate(16,9)" font-family="Liberation Mono" font-size="10px" fill="#000" opacity="1">allure-rs-2-2024</text></g></g><path class="foreground" aria-hidden="true" d="" pointer-events="none" display="none"/></g></g></g><path class="foreground" aria-hidden="true" d="" pointer-events="none" display="none"/></g></g><g class="mark-text role-legend-title" pointer-events="none"><text text-anchor="start" transform="translate(0,9)" font-family="Liberation Mono" font-size="11px" font-weight="bold" fill="#000" opacity="1">identifier</text></g></g><path class="foreground" aria-hidden="true" d="" pointer-events="none" display="none"/></g></g></g><path class="foreground" aria-hidden="true" d="" display="none"/></g></g></g></svg>