<svg xmlns="http://www.w3.org/2000/svg" xmlns:xlink="http://www.w3.org/1999/xlink" version="1.1" class="marks" width="548" height="244" viewBox="0 0 548 244"><rect width="548" height="244" fill="white"/><g fill="none" stroke-miterlimit="10" transform="translate(67,7)"><g class="mark-group role-frame root" role="graphics-object" aria-roledescription="group mark container"><g transform="translate(0,0)"><path class="background" aria-hidden="true" d="M0.5,0.5h200v200h-200Z" stroke="#ddd"/><g><g class="mark-group role-axis" aria-hidden="true"><g transform="translate(0.5,200.5)"><path class="background" aria-hidden="true" d="M0,0h0v0h0Z" pointer-events="none"/><g><g class="mark-rule role-axis-grid" pointer-events="none"><line transform="translate(7,-200)" x2="0" y2="200" stroke="#ddd" stroke-width="1" opacity="1"/><line transform="translate(30,-200)" x2="0" y2="200" stroke="#ddd" stroke-width="1" opacity="1"/><line transform="translate(52,-200)" x2="0" y2="200" stroke="#ddd" stroke-width="1" opacity="1"/><line transform="translate(74,-200)" x2="0" y2="200" stroke="#ddd" stroke-width="1" opacity="1"/><line transform="translate(97,-200)" x2="0" y2="200" stroke="#ddd" stroke-width="1" opacity="1"/><line transform="translate(119,-200)" x2="0" y2="200" stroke="#ddd" stroke-width="1" opacity="1"/><line transform="translate(142,-200)" x2="0" y2="200" stroke="#ddd" stroke-width="1" opacity="1"/><line transform="translate(164,-200)" x2="0" y2="200" stroke="#ddd" stroke-width="1" opacity="1"/><line transform="translate(187,-200)" x2="0" y2="200" stroke="#ddd" stroke-width="1" opacity="1"/><line transform="translate(198,-200)" x2="0" y2="200" stroke="#ddd" stroke-width="1" opacity="1"/></g></g><path class="foreground" aria-hidden="true" d="" pointer-events="none" display="none"/></g></g><g class="mark-group role-axis" aria-hidden="true"><g transform="translate(0.5,0.5)"><path class="background" aria-hidden="true" d="M0,0h0v0h0Z" pointer-events="none"/><g><g class="mark-rule role-axis-grid" pointer-events="none"><line transform="translate(0,200)" x2="200" y2="0" stroke="#ddd" stroke-width="1" opacity="1"/><line transform="translate(0,144)" x2="200" y2="0" stroke="#ddd" stroke-width="1" opacity="1"/><line transform="translate(0,89)" x2="200" y2="0" stroke="#ddd" stroke-width="1" opacity="1"/><line transform="translate(0,33)" x2="200" y2="0" stroke="#ddd" stroke-width="1" opacity="1"/></g></g><path class="foreground" aria-hidden="true" d="" pointer-events="none" display="none"/></g></g><g class="mark-group role-axis" role="graphics-symbol" aria-roledescription="axis" aria-label="X-axis titled 'Time' for a time scale with values from Thursday, 14 August 2025, 8:34:48 AM to Monday, 01 September 2025, 4:51:38 AM"><g transform="translate(0.5,200.5)"><path class="background" aria-hidden="true" d="M0,0h0v0h0Z" pointer-events="none"/><g><g class="mark-rule role-axis-tick" pointer-events="none"><line transform="translate(7,0)" x2="0" y2="5" stroke="#888" stroke-width="1" opacity="1"/><line transform="translate(30,0)" x2="0" y2="5" stroke="#888" stroke-width="1" opacity="1"/><line transform="translate(52,0)" x2="0" y2="5" stroke="#888" stroke-width="1" opacity="1"/><line transform="translate(74,0)" x2="0" y2="5" stroke="#888" stroke-width="1" opacity="1"/><line transform="translate(97,0)" x2="0" y2="5" stroke="#888" stroke-width="1" opacity="1"/><line transform="translate(119,0)" x2="0" y2="5" stroke="#888" stroke-width="1" opacity="1"/><line transform="translate(142,0)" x2="0" y2="5" stroke="#888" stroke-width="1" opacity="1"/><line transform="translate(164,0)" x2="0" y2="5" stroke="#888" stroke-width="1" opacity="1"/><line transform="translate(187,0)" x2="0" y2="5" stroke="#888" stroke-width="1" opacity="1"/><line transform="translate(198,0)" x2="0" y2="5" stroke="#888" stroke-width="1" opacity="1"/></g><g class="mark-text role-axis-label" pointer-events="none"><text text-anchor="middle" transform="translate(7.200792788078079,15)" font-family="Liberation Mono" font-size="10px" fill="#000" opacity="1">Fri 15</text><text text-anchor="middle" transform="translate(29.61601683466345,15)" font-family="Liberation Mono" font-size="10px" fill="#000" opacity="0">Aug 17</text><text text-anchor="middle" transform="translate(52.03124088124883,15)" font-family="Liberation Mono" font-size="10px" fill="#000" opacity="0">Tue 19</text><text text-anchor="middle" transform="translate(74.4464649278342,15)" font-family="Liberation Mono" font-size="10px" fill="#000" opacity="0">Thu 21</text><text text-anchor="middle" transform="translate(96.86168897441956,15)" font-family="Liberation Mono" font-size="10px" fill="#000" opacity="1">Sat 23</text><text text-anchor="middle" transform="translate(119.27691302100494,15)" font-family="Liberation Mono" font-size="10px" fill="#000" opacity="0">Mon 25</text><text text-anchor="middle" transform="translate(141.69213706759032,15)" font-family="Liberation Mono" font-size="10px" fill="#000" opacity="0">Wed 27</text><text text-anchor="middle" transform="translate(164.1073611141757,15)" font-family="Liberation Mono" font-size="10px" fill="#000" opacity="0">Fri 29</text><text text-anchor="middle" transform="translate(186.52258516076105,15)" font-family="Liberation Mono" font-size="10px" fill="#000" opacity="1">Aug 31</text><text text-anchor="middle" transform="translate(197.73019718405376,15)" font-family="Liberation Mono" font-size="10px" fill="#000" opacity="0">September</text></g><g class="mark-rule role-axis-domain" pointer-events="none"><line transform="translate(0,0)" x2="200" y2="0" stroke="#888" stroke-width="1" opacity="1"/></g><g class="mark-text role-axis-title" pointer-events="none"><text text-anchor="middle" transform="translate(100,30)" font-family="Liberation Mono" font-size="11px" font-weight="bold" fill="#000" opacity="1">Time</text></g></g><path class="foreground" aria-hidden="true" d="" pointer-events="none" display="none"/></g></g><g class="mark-group role-axis" role="graphics-symbol" aria-roledescription="axis" aria-label="Y-axis titled 'Price' for a linear scale with values from 0 to 1,800"><g transform="translate(0.5,0.5)"><path class="background" aria-hidden="true" d="M0,0h0v0h0Z" pointer-events="none"/><g><g class="mark-rule role-axis-tick" pointer-events="none"><line transform="translate(0,200)" x2="-5" y2="0" stroke="#888" stroke-width="1" opacity="1"/><line transform="translate(0,144)" x2="-5" y2="0" stroke="#888" stroke-width="1" opacity="1"/><line transform="translate(0,89)" x2="-5" y2="0" stroke="#888" stroke-width="1" opacity="1"/><line transform="translate(0,33)" x2="-5" y2="0" stroke="#888" stroke-width="1" opacity="1"/></g><g class="mark-text role-axis-label" pointer-events="none"><text text-anchor="end" transform="translate(-7,203)" font-family="Liberation Mono" font-size="10px" fill="#000" opacity="1">0</text><text text-anchor="end" transform="translate(-7,147.44444444444443)" font-family="Liberation Mono" font-size="10px" fill="#000" opacity="1">500</text><text text-anchor="end" transform="translate(-7,91.88888888888889)" font-family="Liberation Mono" font-size="10px" fill="#000" opacity="1">1,000</text><text text-anchor="end" transform="translate(-7,36.33333333333333)" font-family="Liberation Mono" font-size="10px" fill="#000" opacity="1">1,500</text></g><g class="mark-rule role-axis-domain" pointer-events="none"><line transform="translate(0,200)" x2="0" y2="-200" stroke="#888" stroke-width="1" opacity="1"/></g><g class="mark-text role-axis-title" pointer-events="none"><text text-anchor="middle" transform="translate(-51,100) rotate(-90) translate(0,-2)" font-family="Liberation Mono" font-size="11px" font-weight="bold" fill="#000" opacity="1">Price</text></g></g><path class="foreground" aria-hidden="true" d="" pointer-events="none" display="none"/></g></g><g class="mark-group role-scope pathgroup" role="graphics-object" aria-roledescription="group mark container"><g transform="translate(0,0)"><path class="background" aria-hidden="true" d="M0,0h200v200h-200Z"/><g><g class="mark-line role-mark marks" role="graphics-object" aria-roledescription="line mark container"><path aria-label="Time: Aug 14, 2025; Price: 899; identifier: escape-city-disc-1-2024" role="graphics-symbol" aria-roledescription="line mark" d="M0,100.111L0.093,100.111L0.167,100.111L2.233,100.111L3.875,100.111L5.718,100.111L9.498,100.111L11.354,100.111L13.403,100.111L15.085,100.111L16.918,100.111L20.669,100.111L22.547,100.111L24.537,100.111L26.271,100.111L28.108,100.111L31.92,100.111L33.751,100.111L35.75,100.111L37.486,100.111L39.33,100.111L43.159,100.111L45,100.111L47.064,100.111L47.789,100.111L48.73,100.111L50.527,100.111L54.282,100.111L56.179,100.111L58.169,100.111L59.908,100.111L61.731,100.111L65.493,100.111L67.372,100.111L69.444,100.111L70.282,100.111L71.111,100.111L72.951,100.111L76.694,100.111L78.588,100.111L80.588,100.111L82.326,100.111L84.153,100.111L87.905,100.111L89.792,100.111L91.791,100.111L93.523,100.111L95.354,100.111L99.104,100.111L100.982,100.111L102.964,100.111L104.701,100.111L106.551,100.111L110.325,100.111L112.182,100.111L114.177,100.111L115.922,100.111L117.762,100.111L121.548,100.111L123.44,100.111L125.484,100.111L127.158,100.111L128.983,100.111L132.738,100.111L134.64,100.111L138.355,100.111L140.179,100.111L143.931,100.111L145.825,100.111L146.56,100.111L147.821,100.111L149.071,100.111L149.561,100.111L151.394,100.111L155.137,100.111L157.037,100.111L159.034,100.111L160.766,100.111L162.597,100.111L166.345,100.111L168.237,100.111L170.228,100.111L171.969,100.111L173.799,100.111L177.54,100.111L179.418,100.111L181.401,100.111L183.15,100.111L184.912,100.111L184.999,100.111L188.753,100.111L189.95,100.111L190.621,100.111L192.614,100.111L194.364,100.111L196.211,100.111L199.996,100.111" stroke="#72b7b2" stroke-width="2"/></g></g><path class="foreground" aria-hidden="true" d="" display="none"/></g><g transform="translate(0,0)"><path class="background" aria-hidden="true" d="M0,0h200v200h-200Z"/><g><g class="mark-line role-mark marks" role="graphics-object" aria-roledescription="line mark container"><path aria-label="Time: Aug 14, 2025; Price: 999; identifier: roam-2" role="graphics-symbol" aria-roledescription="line mark" d="M0,89L0.093,89L0.167,89L2.233,89L3.876,89L5.718,89L9.498,89L11.354,89L13.404,89L15.085,89L16.918,89L20.67,89L22.547,89L24.537,89L26.271,89L28.126,89L31.92,89L33.751,89L35.75,89L37.486,89L39.331,89L43.159,89L45,89L47.065,89L47.789,89L48.73,89L50.527,89L54.282,89L56.179,89L58.17,89L59.908,89L61.731,89L65.493,89L67.372,89L69.444,89L70.282,89L71.112,89L72.952,89L76.694,89L78.589,89L80.588,89L82.327,89L84.153,89L87.905,89L89.793,89L91.791,89L93.523,89L95.355,89L99.104,89L100.983,89L102.964,89L104.701,89L106.551,89L110.326,89L112.183,89L114.178,89L115.923,89L117.762,89L121.549,89L123.44,89L125.485,89L127.158,89L128.983,89L132.738,89L134.641,89L138.355,89L140.179,89L143.932,89L145.826,89L146.561,89L147.822,89L149.072,89L149.561,89L151.395,89L155.137,89L157.038,89L159.034,89L160.767,89L162.598,89L166.346,89L168.238,89L170.229,89L171.97,89L173.799,89L177.541,89L179.419,89L181.402,89L183.15,89L184.912,89L185,89L188.753,89L189.95,89L190.621,89L192.615,89L194.364,89L196.211,89L199.996,89" stroke="#ff9da6" stroke-width="2"/></g></g><path class="foreground" aria-hidden="true" d="" display="none"/></g><g transform="translate(0,0)"><path class="background" aria-hidden="true" d="M0,0h200v200h-200Z"/><g><g class="mark-line role-mark marks" role="graphics-object" aria-roledescription="line mark container"><path aria-label="Time: Aug 14, 2025; Price: 999; identifier: fastroad-sl-3-2022" role="graphics-symbol" aria-roledescription="line mark" d="M0,89L0.094,89L0.167,89L2.233,89L3.876,89L5.718,89L9.498,89L11.354,89L13.404,89L15.085,89L16.918,89L20.67,89L22.548,89L24.537,89L26.271,89L28.126,89L31.92,89L33.751,89L35.75,89L37.487,89L39.331,89L43.16,89L45,89L47.065,89L47.789,89L48.73,89L50.528,89L54.282,89L56.179,89L58.17,89L59.909,89L61.731,89L65.494,89L67.372,89L69.444,89L70.283,89L71.112,89L72.952,89L76.695,89L78.589,89L80.589,89L82.327,89L84.154,89L87.905,89L89.793,89L91.792,89L93.523,89L95.355,89L99.105,89L100.983,89L102.964,89L104.701,89L106.552,89L110.326,89L112.183,89L114.178,89L115.923,89L117.763,89L121.549,89L123.44,89L125.485,89L127.159,89L128.983,89L132.738,89L134.641,89L138.356,89L140.179,89L143.932,89L145.826,89L146.561,89L147.822,89L149.072,89L149.561,89L151.395,89L155.138,89L157.038,89L159.034,89L160.767,89L162.598,89L166.346,89L168.238,89L170.229,89L171.97,89L173.799,89L177.541,89L179.419,89L181.402,89L183.151,89L184.913,89L185,89L188.753,89L189.95,89L190.622,89L192.615,89L194.364,89L196.212,89L199.997,89" stroke="#9d755d" stroke-width="2"/></g></g><path class="foreground" aria-hidden="true" d="" display="none"/></g><g transform="translate(0,0)"><path class="background" aria-hidden="true" d="M0,0h200v200h-200Z"/><g><g class="mark-line role-mark marks" role="graphics-object" aria-roledescription="line mark container"><path aria-label="Time: Aug 14, 2025; Price: 1199; identifier: fastroad-ar-2" role="graphics-symbol" aria-roledescription="line mark" d="M0.001,66.778L0.094,66.778L0.167,66.778L2.234,66.778L3.876,66.778L5.718,66.778L9.499,66.778L11.355,66.778L13.404,66.778L15.085,66.778L16.919,66.778L20.67,66.778L22.548,66.778L24.537,66.778L26.271,66.778L28.135,66.778L31.92,66.778L33.752,66.778L35.75,66.778L37.487,66.778L39.331,66.778L43.16,66.778L45,66.778L47.065,66.778L47.79,66.778L48.731,66.778L50.528,66.778L54.283,66.778L56.179,66.778L58.17,66.778L59.909,66.778L61.731,66.778L65.494,66.778L67.373,66.778L69.445,66.778L70.283,66.778L71.113,66.778L72.952,66.778L76.695,66.778L78.589,66.778L80.589,66.778L82.327,66.778L84.154,66.778L87.905,66.778L89.794,66.778L91.792,66.778L93.524,66.778L95.355,66.778L99.105,66.778L100.983,66.778L102.965,66.778L104.702,66.778L106.552,66.778L110.326,66.778L112.184,66.778L114.178,66.778L115.923,66.778L117.763,66.778L121.549,66.778L123.441,66.778L125.486,66.778L127.159,66.778L128.983,66.778L132.74,66.778L134.641,66.778L138.356,66.778L140.179,66.778L143.932,66.778L145.826,66.778L146.562,66.778L147.822,66.778L149.072,66.778L149.562,66.778L151.395,66.778L155.138,66.778L157.038,66.778L159.035,66.778L160.767,66.778L162.598,66.778L166.346,66.778L168.238,66.778L170.229,66.778L171.97,66.778L173.8,66.778L177.541,66.778L179.419,66.778L181.402,66.778L183.151,66.778L184.913,66.778L185,66.778L188.754,66.778L189.951,66.778L190.622,66.778L192.615,66.778L194.364,66.778L196.212,66.778L199.997,66.778" stroke="#54a24b" stroke-width="2"/></g></g><path class="foreground" aria-hidden="true" d="" display="none"/></g><g transform="translate(0,0)"><path class="background" aria-hidden="true" d="M0,0h200v200h-200Z"/><g><g class="mark-line role-mark marks" role="graphics-object" aria-roledescription="line mark container"><path aria-label="Time: Aug 18, 2025; Price: 899; identifier: sdrbike-escape-1-city-disc" role="graphics-symbol" aria-roledescription="line mark" d="M47.79,100.111L48.731,100.111L50.528,100.111L54.283,100.111L56.18,100.111L58.171,100.111L59.909,100.111L61.732,100.111L65.494,100.111L67.373,100.111L69.445,100.111L70.283,100.111L71.113,100.111L72.953,100.111L76.695,100.111L78.589,100.111L80.589,100.111L82.328,100.111L84.154,100.111L87.906,100.111L89.794,100.111L91.792,100.111L93.524,100.111L95.356,100.111L99.105,100.111L100.984,100.111L102.965,100.111L104.702,100.111L106.552,100.111L110.326,100.111L112.184,100.111L114.179,100.111L115.923,100.111L117.763,100.111L121.55,100.111L123.441,100.111L125.486,100.111L127.159,100.111L128.984,100.111L132.74,100.111L134.642,100.111L138.356,100.111L140.18,100.111L143.933,100.111L145.826,100.111L146.562,100.111L147.823,100.111L149.072,100.111L149.562,100.111L151.396,100.111L155.138,100.111L157.039,100.111L159.035,100.111L160.768,100.111L162.599,100.111L166.347,100.111L168.239,100.111L170.229,100.111L171.971,100.111L173.8,100.111L177.542,100.111L179.42,100.111L181.403,100.111L183.151,100.111L184.913,100.111L185.001,100.111L188.754,100.111L189.951,100.111L190.622,100.111L192.616,100.111L194.365,100.111L196.212,100.111L199.997,100.111" stroke="#54a24b" stroke-width="2"/></g></g><path class="foreground" aria-hidden="true" d="" display="none"/></g><g transform="translate(0,0)"><path class="background" aria-hidden="true" d="M0,0h200v200h-200Z"/><g><g class="mark-line role-mark marks" role="graphics-object" aria-roledescription="line mark container"><path aria-label="Time: Aug 20, 2025; Price: 899; identifier: roam-disc-2-2024" role="graphics-symbol" aria-roledescription="line mark" d="M70.282,100.111L71.112,100.111L72.951,100.111L76.694,100.111L78.588,100.111L80.588,100.111L82.327,100.111L84.153,100.111L87.905,100.111L89.793,100.111L91.791,100.111L93.523,100.111L95.355,100.111L99.104,100.111L100.983,100.111L102.964,100.111L104.701,100.111L106.551,100.111L110.325,100.111L112.183,100.111L114.177,100.111L115.922,100.111L117.762,100.111L121.549,100.111L123.44,100.111L125.485,100.111L127.158,100.111L128.983,100.111L132.738,100.111L134.64,100.111L138.355,100.111L140.179,100.111L143.932,100.111L145.825,100.111L146.56,100.111L147.822,100.111L149.072,100.111L149.561,100.111L151.394,100.111L155.137,100.111L157.038,100.111L159.034,100.111L160.767,100.111L162.598,100.111L166.346,100.111L168.238,100.111L170.228,100.111L171.97,100.111L173.799,100.111L177.541,100.111L179.419,100.111L181.401,100.111L183.15,100.111L184.912,100.111L185,100.111L188.753,100.111L189.95,100.111L190.621,100.111L192.614,100.111L194.364,100.111L196.211,100.111L199.996,100.111" stroke="#eeca3b" stroke-width="2"/></g></g><path class="foreground" aria-hidden="true" d="" display="none"/></g><g transform="translate(0,0)"><path class="background" aria-hidden="true" d="M0,0h200v200h-200Z"/><g><g class="mark-line role-mark marks" role="graphics-object" aria-roledescription="line mark container"><path aria-label="Time: Aug 20, 2025; Price: 1199; identifier: thrive-2" role="graphics-symbol" aria-roledescription="line mark" d="M70.284,66.778L71.113,66.778L72.953,66.778L76.695,66.778L78.59,66.778L80.59,66.778L82.328,66.778L84.155,66.778L87.906,66.778L89.794,66.778L91.793,66.778L93.524,66.778L95.356,66.778L99.106,66.778L100.984,66.778L102.965,66.778L104.702,66.778L106.552,66.778L110.327,66.778L112.184,66.778L114.179,66.778L115.924,66.778L117.763,66.778L121.55,66.778L123.441,66.778L125.486,66.778L127.16,66.778L128.984,66.778L132.74,66.778L134.642,66.778L138.357,66.778L140.18,66.778L143.933,66.778L145.827,66.778L146.563,66.778L147.823,66.778L149.073,66.778L149.562,66.778L151.396,66.778L155.139,66.778L157.039,66.778L159.036,66.778L160.768,66.778L162.599,66.778L166.347,66.778L168.239,66.778L170.23,66.778L171.971,66.778L173.8,66.778L177.542,66.778L179.42,66.778L181.403,66.778L183.151,66.778L184.914,66.778L185.001,66.778L188.754,66.778L189.951,66.778L190.623,66.778L192.616,66.778L194.365,66.778L196.212,66.778L199.997,66.778" stroke="#eeca3b" stroke-width="2"/></g></g><path class="foreground" aria-hidden="true" d="" display="none"/></g><g transform="translate(0,0)"><path class="background" aria-hidden="true" d="M0,0h200v200h-200Z"/><g><g class="mark-line role-mark marks" role="graphics-object" aria-roledescription="line mark container"><path aria-label="Time: Aug 20, 2025; Price: 999; identifier: rove-2" role="graphics-symbol" aria-roledescription="line mark" d="M70.284,89L71.114,89L72.954,89L76.696,89L78.59,89L80.59,89L82.328,89L84.155,89L87.906,89L89.794,89L91.793,89L93.524,89L95.356,89L99.106,89L100.985,89L102.965,89L104.703,89L106.553,89L110.327,89L112.185,89L114.18,89L115.924,89L117.764,89L121.55,89L123.441,89L125.486,89L127.16,89L128.984,89L132.74,89L134.642,89L138.357,89L140.18,89L143.933,89L145.827,89L146.564,89L147.823,89L149.073,89L149.562,89L151.396,89L155.139,89L157.039,89L159.036,89L160.768,89L162.599,89L166.347,89L168.239,89L170.23,89L171.971,89L173.801,89L184.914,111.222L185.001,111.222L188.754,111.222L189.951,111.222L190.623,111.222L192.616,111.222L194.365,111.222L196.213,111.222L199.998,111.222" stroke="#bab0ac" stroke-width="2"/></g></g><path class="foreground" aria-hidden="true" d="" display="none"/></g><g transform="translate(0,0)"><path class="background" aria-hidden="true" d="M0,0h200v200h-200Z"/><g><g class="mark-line role-mark marks" role="graphics-object" aria-roledescription="line mark container"><path aria-label="Time: Aug 27, 2025; Price: 1199; identifier: allure-rs-1-2023" role="graphics-symbol" aria-roledescription="line mark" d="M146.565,66.778L147.823,66.778L149.073,66.778L149.563,66.778L151.396,66.778L155.139,66.778L157.04,66.778L159.036,66.778L160.768,66.778L162.599,66.778L166.347,66.778L168.24,66.778L170.23,66.778L171.971,66.778L173.801,66.778L177.542,66.778L179.42,66.778L181.404,66.778L183.152,66.778L184.914,66.778L185.001,66.778L188.754,66.778L189.951,66.778L190.623,66.778L192.616,66.778L194.365,66.778L196.213,66.778L199.998,66.778" stroke="#b279a2" stroke-width="2"/></g></g><path class="foreground" aria-hidden="true" d="" display="none"/></g><g transform="translate(0,0)"><path class="background" aria-hidden="true" d="M0,0h200v200h-200Z"/><g><g class="mark-line role-mark marks" role="graphics-object" aria-roledescription="line mark container"><path aria-label="Time: Aug 27, 2025; Price: 999; identifier: allure-rs-2-2022" role="graphics-symbol" aria-roledescription="line mark" d="M146.565,89L147.824,89L149.073,89L149.563,89L151.397,89L155.139,89L157.04,89L159.036,89L160.769,89L162.6,89L166.348,89L168.24,89L170.231,89L171.971,89L173.801,89L184.915,111.222L185.001,111.222L188.755,111.222L189.952,111.222L190.624,111.222L192.617,111.222L194.366,111.222L196.213,111.222L199.998,111.222" stroke="#4c78a8" stroke-width="2"/></g></g><path class="foreground" aria-hidden="true" d="" display="none"/></g><g transform="translate(0,0)"><path class="background" aria-hidden="true" d="M0,0h200v200h-200Z"/><g><g class="mark-line role-mark marks" role="graphics-object" aria-roledescription="line mark container"><path aria-label="Time: Aug 27, 2025; Price: 949; identifier: allure-rs-2-2023" role="graphics-symbol" aria-roledescription="line mark" d="M146.566,94.556L147.824,94.556L149.073,94.556L149.563,94.556L151.397,94.556L155.14,94.556L157.04,94.556L159.037,94.556L160.769,94.556L162.6,94.556L166.348,94.556L168.24,94.556L170.231,94.556L171.972,94.556L173.802,94.556L177.543,94.556L179.421,94.556L181.404,94.556L183.152,94.556L184.915,94.556L185.002,94.556L188.755,94.556L189.952,94.556L190.624,94.556L192.617,94.556L194.366,94.556L196.213,94.556L199.998,94.556" stroke="#e45756" stroke-width="2"/></g></g><path class="foreground" aria-hidden="true" d="" display="none"/></g><g transform="translate(0,0)"><path class="background" aria-hidden="true" d="M0,0h200v200h-200Z"/><g><g class="mark-line role-mark marks" role="graphics-object" aria-roledescription="line mark container"><path aria-label="Time: Aug 27, 2025; Price: 999; identifier: allure-rs-2-2024" role="graphics-symbol" aria-roledescription="line mark" d="M146.566,89L147.824,89L149.074,89L149.563,89L151.397,89L155.14,89L157.041,89L159.037,89L160.769,89L162.6,89L166.348,89L168.24,89L170.231,89L171.972,89L173.802,89L184.915,111.222L185.002,111.222L188.755,111.222L189.952,111.222L190.624,111.222L192.617,111.222L194.366,111.222L196.213,111.222L199.999,111.222" stroke="#f58518" stroke-width="2"/></g></g><path class="foreground" aria-hidden="true" d="" display="none"/></g><g transform="translate(0,0)"><path class="background" aria-hidden="true" d="M0,0h200v200h-200Z"/><g><g class="mark-line role-mark marks" role="graphics-object" aria-roledescription="line mark container"><path aria-label="Time: Aug 27, 2025; Price: 1799; identifier: devote-1-2024" role="graphics-symbol" aria-roledescription="line mark" d="M149.074,0.111L149.563,0.111L151.398,0.111L155.14,0.111L157.041,0.111L159.037,0.111L160.769,0.111L162.6,0.111L166.348,0.111L168.241,0.111L170.231,0.111L171.972,0.111L173.802,0.111L184.916,44.556L185.002,44.556L188.755,44.556L189.952,44.556L190.624,44.556L192.617,44.556L194.366,44.556L196.214,44.556L199.999,44.556" stroke="#4c78a8" stroke-width="2"/></g></g><path class="foreground" aria-hidden="true" d="" display="none"/></g><g transform="translate(0,0)"><path class="background" aria-hidden="true" d="M0,0h200v200h-200Z"/><g><g class="mark-line role-mark marks" role="graphics-object" aria-roledescription="line mark container"><path aria-label="Time: Aug 27, 2025; Price: 1699; identifier: devote-1-2022" role="graphics-symbol" aria-roledescription="line mark" d="M149.074,11.222L149.564,11.222L151.398,11.222L155.141,11.222L157.041,11.222L159.037,11.222L160.769,11.222L162.6,11.222L166.349,11.222L168.241,11.222L170.232,11.222L171.972,11.222L173.802,11.222L177.543,11.222L179.422,11.222L181.405,11.222L183.153,11.222L184.916,11.222L185.002,11.222L188.756,11.222L189.952,11.222L190.625,11.222L192.618,11.222L194.366,11.222L196.214,11.222L199.999,11.222" stroke="#f58518" stroke-width="2"/></g></g><path class="foreground" aria-hidden="true" d="" display="none"/></g><g transform="translate(0,0)"><path class="background" aria-hidden="true" d="M0,0h200v200h-200Z"/><g><g class="mark-line role-mark marks" role="graphics-object" aria-roledescription="line mark container"><path aria-label="Time: Aug 31, 2025; Price: 1599; identifier: silex-400-oak-bork-2026" role="graphics-symbol" aria-roledescription="line mark" d="M189.953,22.333L190.625,22.333L192.618,22.333L194.367,22.333L196.214,22.333L200,22.333" stroke="#e45756" stroke-width="2"/></g></g><path class="foreground" aria-hidden="true" d="" display="none"/></g><g transform="translate(0,0)"><path class="background" aria-hidden="true" d="M0,0h200v200h-200Z"/><g><g class="mark-line role-mark marks" role="graphics-object" aria-roledescription="line mark container"><path aria-label="Time: Aug 31, 2025; Price: 1599; identifier: silex-400-warm-slate-grey-2026" role="graphics-symbol" aria-roledescription="line mark" d="M189.953,22.333L190.626,22.333L192.619,22.333L194.367,22.333L196.215,22.333L200,22.333" stroke="#72b7b2" stroke-width="2"/></g></g><path class="foreground" aria-hidden="true" d="" display="none"/></g></g><g class="mark-group role-legend" role="graphics-symbol" aria-roledescription="legend" aria-label="Symbol legend titled 'identifier' for stroke color with 16 values: devote-1-2024, devote-1-2022, silex-400-oak-bork-2026, silex-400-warm-slate-grey-2026, fastroad-ar-2, ending with roam-disc-2-2024"><g transform="translate(220,0)"><path class="background" aria-hidden="true" d="M0,0h256v222h-256Z" pointer-events="none"/><g><g class="mark-group role-legend-entry"><g transform="translate(0,16)"><path class="background" aria-hidden="true" d="M0,0h0v0h0Z" pointer-events="none"/><g><g class="mark-group role-scope" role="graphics-object" aria-roledescription="group mark container"><g transform="translate(0,0)"><path class="background" aria-hidden="true" d="M0,0h256v11h-256Z" pointer-events="none" opacity="1"/><g><g class="mark-symbol role-legend-symbol" pointer-events="none"><path transform="translate(6,6)" d="M-5,0L5,0" stroke="#4c78a8" stroke-width="1.5" opacity="1"/></g><g class="mark-text role-legend-label" pointer-events="none"><text text-anchor="start" transform="translate(16,9)" font-family="Liberation Mono" font-size="10px" fill="#000" opacity="1">devote-1-2024</text></g></g><path class="foreground" aria-hidden="true" d="" pointer-events="none" display="none"/></g><g transform="translate(0,13)"><path class="background" aria-hidden="true" d="M0,0h256v11h-256Z" pointer-events="none" opacity="1"/><g><g class="mark-symbol role-legend-symbol" pointer-events="none"><path transform="translate(6,6)" d="M-5,0L5,0" stroke="#f58518" stroke-width="1.5" opacity="1"/></g><g class="mark-text role-legend-label" pointer-events="none"><text text-anchor="start" transform="translate(16,9)" font-family="Liberation Mono" font-size="10px" fill="#000" opacity="1">devote-1-2022</text></g></g><path class="foreground" aria-hidden="true" d="" pointer-events="none" display="none"/></g><g transform="translate(0,26)"><path class="background" aria-hidden="true" d="M0,0h256v11h-256Z" pointer-events="none" opacity="1"/><g><g class="mark-symbol role-legend-symbol" pointer-events="none"><path transform="translate(6,6)" d="M-5,0L5,0" stroke="#e45756" stroke-width="1.5" opacity="1"/></g><g class="mark-text role-legend-label" pointer-events="none"><text text-anchor="start" transform="translate(16,9)" font-family="Liberation Mono" font-size="10px" fill="#000" opacity="1">silex-400-oak-bork-2026</text></g></g><path class="foreground" aria-hidden="true" d="" pointer-events="none" display="none"/></g><g transform="translate(0,39)"><path class="background" aria-hidden="true" d="M0,0h256v11h-256Z" pointer-events="none" opacity="1"/><g><g class="mark-symbol role-legend-symbol" pointer-events="none"><path transform="translate(6,6)" d="M-5,0L5,0" stroke="#72b7b2" stroke-width="1.5" opacity="1"/></g><g class="mark-text role-legend-label" pointer-events="none"><text text-anchor="start" transform="translate(16,9)" font-family="Liberation Mono" font-size="10px" fill="#000" opacity="1">silex-400-warm-slate-grey-2026</text></g></g><path class="foreground" aria-hidden="true" d="" pointer-events="none" display="none"/></g><g transform="translate(0,52)"><path class="background" aria-hidden="true" d="M0,0h256v11h-256Z" pointer-events="none" opacity="1"/><g><g class="mark-symbol role-legend-symbol" pointer-events="none"><path transform="translate(6,6)" d="M-5,0L5,0" stroke="#54a24b" stroke-width="1.5" opacity="1"/></g><g class="mark-text role-legend-label" pointer-events="none"><text text-anchor="start" transform="translate(16,9)" font-family="Liberation Mono" font-size="10px" fill="#000" opacity="1">fastroad-ar-2</text></g></g><path class="foreground" aria-hidden="true" d="" pointer-events="none" display="none"/></g><g transform="translate(0,65)"><path class="background" aria-hidden="true" d="M0,0h256v11h-256Z" pointer-events="none" opacity="1"/><g><g class="mark-symbol role-legend-symbol" pointer-events="none"><path transform="translate(6,6)" d="M-5,0L5,0" stroke="#eeca3b" stroke-width="1.5" opacity="1"/></g><g class="mark-text role-legend-label" pointer-events="none"><text text-anchor="start" transform="translate(16,9)" font-family="Liberation Mono" font-size="10px" fill="#000" opacity="1">thrive-2</text></g></g><path class="foreground" aria-hidden="true" d="" pointer-events="none" display="none"/></g><g transform="translate(0,78)"><path class="background" aria-hidden="true" d="M0,0h256v11h-256Z" pointer-events="none" opacity="1"/><g><g class="mark-symbol role-legend-symbol" pointer-events="none"><path transform="translate(6,6)" d="M-5,0L5,0" stroke="#b279a2" stroke-width="1.5" opacity="1"/></g><g class="mark-text role-legend-label" pointer-events="none"><text text-anchor="start" transform="translate(16,9)" font-family="Liberation Mono" font-size="10px" fill="#000" opacity="1">allure-rs-1-2023</text></g></g><path class="foreground" aria-hidden="true" d="" pointer-events="none" display="none"/></g><g transform="translate(0,91)"><path class="background" aria-hidden="true" d="M0,0h256v11h-256Z" pointer-events="none" opacity="1"/><g><g class="mark-symbol role-legend-symbol" pointer-events="none"><path transform="translate(6,6)" d="M-5,0L5,0" stroke="#ff9da6" stroke-width="1.5" opacity="1"/></g><g class="mark-text role-legend-label" pointer-events="none"><text text-anchor="start" transform="translate(16,9)" font-family="Liberation Mono" font-size="10px" fill="#000" opacity="1">roam-2</text></g></g><path class="foreground" aria-hidden="true" d="" pointer-events="none" display="none"/></g><g transform="translate(0,104)"><path class="background" aria-hidden="true" d="M0,0h256v11h-256Z" pointer-events="none" opacity="1"/><g><g class="mark-symbol role-legend-symbol" pointer-events="none"><path transform="translate(6,6)" d="M-5,0L5,0" stroke="#9d755d" stroke-width="1.5" opacity="1"/></g><g class="mark-text role-legend-label" pointer-events="none"><text text-anchor="start" transform="translate(16,9)" font-family="Liberation Mono" font-size="10px" fill="#000" opacity="1">fastroad-sl-3-2022</text></g></g><path class="foreground" aria-hidden="true" d="" pointer-events="none" display="none"/></g><g transform="translate(0,117)"><path class="background" aria-hidden="true" d="M0,0h256v11h-256Z" pointer-events="none" opacity="1"/><g><g class="mark-symbol role-legend-symbol" pointer-events="none"><path transform="translate(6,6)" d="M-5,0L5,0" stroke="#bab0ac" stroke-width="1.5" opacity="1"/></g><g class="mark-text role-legend-label" pointer-events="none"><text text-anchor="start" transform="translate(16,9)" font-family="Liberation Mono" font-size="10px" fill="#000" opacity="1">rove-2</text></g></g><path class="foreground" aria-hidden="true" d="" pointer-events="none" display="none"/></g><g transform="translate(0,130)"><path class="background" aria-hidden="true" d="M0,0h256v11h-256Z" pointer-events="none" opacity="1"/><g><g class="mark-symbol role-legend-symbol" pointer-events="none"><path transform="translate(6,6)" d="M-5,0L5,0" stroke="#4c78a8" stroke-width="1.5" opacity="1"/></g><g class="mark-text role-legend-label" pointer-events="none"><text text-anchor="start" transform="translate(16,9)" font-family="Liberation Mono" font-size="10px" fill="#000" opacity="1">allure-rs-2-2022</text></g></g><path class="foreground" aria-hidden="true" d="" pointer-events="none" display="none"/></g><g transform="translate(0,143)"><path class="background" aria-hidden="true" d="M0,0h256v11h-256Z" pointer-events="none" opacity="1"/><g><g class="mark-symbol role-legend-symbol" pointer-events="none"><path transform="translate(6,6)" d="M-5,0L5,0" stroke="#f58518" stroke-width="1.5" opacity="1"/></g><g class="mark-text role-legend-label" pointer-events="none"><text text-anchor="start" transform="translate(16,9)" font-family="Liberation Mono" font-size="10px" fill="#000" opacity="1">allure-rs-2-2024</text></g></g><path class="foreground" aria-hidden="true" d="" pointer-events="none" display="none"/></g><g transform="translate(0,156)"><path class="background" aria-hidden="true" d="M0,0h256v11h-256Z" pointer-events="none" opacity="1"/><g><g class="mark-symbol role-legend-symbol" pointer-events="none"><path transform="translate(6,6)" d="M-5,0L5,0" stroke="#e45756" stroke-width="1.5" opacity="1"/></g><g class="mark-text role-legend-label" pointer-events="none"><text text-anchor="start" transform="translate(16,9)" font-family="Liberation Mono" font-size="10px" fill="#000" opacity="1">allure-rs-2-2023</text></g></g><path class="foreground" aria-hidden="true" d="" pointer-events="none" display="none"/></g><g transform="translate(0,169)"><path class="background" aria-hidden="true" d="M0,0h256v11h-256Z" pointer-events="none" opacity="1"/><g><g class="mark-symbol role-legend-symbol" pointer-events="none"><path transform="translate(6,6)" d="M-5,0L5,0" stroke="#72b7b2" stroke-width="1.5" opacity="1"/></g><g class="mark-text role-legend-label" pointer-events="none"><text text-anchor="start" transform="translate(16,9)" font-family="Liberation Mono" font-size="10px" fill="#000" opacity="1">escape-city-disc-1-2024</text></g></g><path class="foreground" aria-hidden="true" d="" pointer-events="none" display="none"/></g><g transform="translate(0,182)"><path class="background" aria-hidden="true" d="M0,0h256v11h-256Z" pointer-events="none" opacity="1"/><g><g class="mark-symbol role-legend-symbol" pointer-events="none"><path transform="translate(6,6)" d="M-5,0L5,0" stroke="#54a24b" stroke-width="1.5" opacity="1"/></g><g class="mark-text role-legend-label" pointer-events="none"><text text-anchor="start" transform="translate(16,9)" font-family="Liberation Mono" font-size="10px" fill="#000" opacity="1">sdrbike-escape-1-city-disc</text></g></g><path class="foreground" aria-hidden="true" d="" pointer-events="none" display="none"/></g><g transform="translate(0,195)"><path class="background" aria-hidden="true" d="M0,0h256v11h-256Z" pointer-events="none" opacity="1"/><g><g class="mark-symbol role-legend-symbol" pointer-events="none"><path transform="translate(6,6)" d="M-5,0L5,0" stroke="#eeca3b" stroke-width="1.5" opacity="1"/></g><g class="mark-text role-legend-label" pointer-events="none"><text text-anchor="start" transform="translate(16,9)" font-family="Liberation Mono" font-size="10px" fill="#000" opacity="1">roam-disc-2-2024</text></g></g><path class="foreground" aria-hidden="true" d="" pointer-events="none" display="none"/></g></g></g><path class="foreground" aria-hidden="true" d="" pointer-events="none" display="none"/></g></g><g class="mark-text role-legend-title" pointer-events="none"><text text-anchor="start" transform="translate(0,9)" font-family="Liberation Mono" font-size="11px" font-weight="bold" fill="#000" opacity="1">identifier</text></g></g><path class="foreground" aria-hidden="true" d="" pointer-events="none" display="none"/></g></g></g><path class="foreground" aria-hidden="true" d="" display="none"/></g></g></g></svg>