<svg xmlns="http://www.w3.org/2000/svg" xmlns:xlink="http://www.w3.org/1999/xlink" version="1.1" class="marks" width="548" height="244" viewBox="0 0 548 244"><rect width="548" height="244" fill="white"/><g fill="none" stroke-miterlimit="10" transform="translate(67,7)"><g class="mark-group role-frame root" role="graphics-object" aria-roledescription="group mark container"><g transform="translate(0,0)"><path class="background" aria-hidden="true" d="M0.5,0.5h200v200h-200Z" stroke="#ddd"/><g><g class="mark-group role-axis" aria-hidden="true"><g transform="translate(0.5,200.5)"><path class="background" aria-hidden="true" d="M0,0h0v0h0Z" pointer-events="none"/><g><g class="mark-rule role-axis-grid" pointer-events="none"><line transform="translate(15,-200)" x2="0" y2="200" stroke="#ddd" stroke-width="1" opacity="1"/><line transform="translate(55,-200)" x2="0" y2="200" stroke="#ddd" stroke-width="1" opacity="1"/><line transform="translate(96,-200)" x2="0" y2="200" stroke="#ddd" stroke-width="1" opacity="1"/><line transform="translate(136,-200)" x2="0" y2="200" stroke="#ddd" stroke-width="1" opacity="1"/><line transform="translate(176,-200)" x2="0" y2="200" stroke="#ddd" stroke-width="1" opacity="1"/></g></g><path class="foreground" aria-hidden="true" d="" pointer-events="none" display="none"/></g></g><g class="mark-group role-axis" aria-hidden="true"><g transform="translate(0.5,0.5)"><path class="background" aria-hidden="true" d="M0,0h0v0h0Z" pointer-events="none"/><g><g class="mark-rule role-axis-grid" pointer-events="none"><line transform="translate(0,200)" x2="200" y2="0" stroke="#ddd" stroke-width="1" opacity="1"/><line transform="translate(0,144)" x2="200" y2="0" stroke="#ddd" stroke-width="1" opacity="1"/><line transform="translate(0,89)" x2="200" y2="0" stroke="#ddd" stroke-width="1" opacity="1"/><line transform="translate(0,33)" x2="200" y2="0" stroke="#ddd" stroke-width="1" opacity="1"/></g></g><path class="foreground" aria-hidden="true" d="" pointer-events="none" display="none"/></g></g><g class="mark-group role-axis" role="graphics-symbol" aria-roledescription="axis" aria-label="X-axis titled 'Time' for a time scale with values from Thursday, 14 August 2025, 8:34:48 AM to Thursday, 18 September 2025, 4:47:23 AM"><g transform="translate(0.5,200.5)"><path class="background" aria-hidden="true" d="M0,0h0v0h0Z" pointer-events="none"/><g><g class="mark-rule role-axis-tick" pointer-events="none"><line transform="translate(15,0)" x2="0" y2="5" stroke="#888" stroke-width="1" opacity="1"/><line transform="translate(55,0)" x2="0" y2="5" stroke="#888" stroke-width="1" opacity="1"/><line transform="translate(96,0)" x2="0" y2="5" stroke="#888" stroke-width="1" opacity="1"/><line transform="translate(136,0)" x2="0" y2="5" stroke="#888" stroke-width="1" opacity="1"/><line transform="translate(176,0)" x2="0" y2="5" stroke="#888" stroke-width="1" opacity="1"/></g><g class="mark-text role-axis-label" pointer-events="none"><text text-anchor="middle" transform="translate(15.168393393410826,15)" font-family="Liberation Mono" font-size="10px" fill="#000" opacity="1">Aug 17</text><text text-anchor="middle" transform="translate(55.34970082018636,15)" font-family="Liberation Mono" font-size="10px" fill="#000" opacity="0">Aug 24</text><text text-anchor="middle" transform="translate(95.53100824696187,15)" font-family="Liberation Mono" font-size="10px" fill="#000" opacity="1">Aug 31</text><text text-anchor="middle" transform="translate(135.7123156737374,15)" font-family="Liberation Mono" font-size="10px" fill="#000" opacity="0">Sep 07</text><text text-anchor="middle" transform="translate(175.89362310051294,15)" font-family="Liberation Mono" font-size="10px" fill="#000" opacity="1">Sep 14</text></g><g class="mark-rule role-axis-domain" pointer-events="none"><line transform="translate(0,0)" x2="200" y2="0" stroke="#888" stroke-width="1" opacity="1"/></g><g class="mark-text role-axis-title" pointer-events="none"><text text-anchor="middle" transform="translate(100,30)" font-family="Liberation Mono" font-size="11px" font-weight="bold" fill="#000" opacity="1">Time</text></g></g><path class="foreground" aria-hidden="true" d="" pointer-events="none" display="none"/></g></g><g class="mark-group role-axis" role="graphics-symbol" aria-roledescription="axis" aria-label="Y-axis titled 'Price' for a linear scale with values from 0 to 1,800"><g transform="translate(0.5,0.5)"><path class="background" aria-hidden="true" d="M0,0h0v0h0Z" pointer-events="none"/><g><g class="mark-rule role-axis-tick" pointer-events="none"><line transform="translate(0,200)" x2="-5" y2="0" stroke="#888" stroke-width="1" opacity="1"/><line transform="translate(0,144)" x2="-5" y2="0" stroke="#888" stroke-width="1" opacity="1"/><line transform="translate(0,89)" x2="-5" y2="0" stroke="#888" stroke-width="1" opacity="1"/><line transform="translate(0,33)" x2="-5" y2="0" stroke="#888" stroke-width="1" opacity="1"/></g><g class="mark-text role-axis-label" pointer-events="none"><text text-anchor="end" transform="translate(-7,203)" font-family="Liberation Mono" font-size="10px" fill="#000" opacity="1">0</text><text text-anchor="end" transform="translate(-7,147.44444444444443)" font-family="Liberation Mono" font-size="10px" fill="#000" opacity="1">500</text><text text-anchor="end" transform="translate(-7,91.88888888888889)" font-family="Liberation Mono" font-size="10px" fill="#000" opacity="1">1,000</text><text text-anchor="end" transform="translate(-7,36.33333333333333)" font-family="Liberation Mono" font-size="10px" fill="#000" opacity="1">1,500</text></g><g class="mark-rule role-axis-domain" pointer-events="none"><line transform="translate(0,200)" x2="0" y2="-200" stroke="#888" stroke-width="1" opacity="1"/></g><g class="mark-text role-axis-title" pointer-events="none"><text text-anchor="middle" transform="translate(-51,100) rotate(-90) translate(0,-2)" font-family="Liberation Mono" font-size="11px" font-weight="bold" fill="#000" opacity="1">Price</text></g></g><path class="foreground" aria-hidden="true" d="" pointer-events="none" display="none"/></g></g><g class="mark-group role-scope pathgroup" role="graphics-object" aria-roledescription="group mark container"><g transform="translate(0,0)"><path class="background" aria-hidden="true" d="M0,0h200v200h-200Z"/><g><g class="mark-line role-mark marks" role="graphics-object" aria-roledescription="line mark container"><path aria-label="Time: Aug 14, 2025; Price: 899; identifier: escape-city-disc-1-2024" role="graphics-symbol" aria-roledescription="line mark" d="M0,100.111L0.048,100.111L0.085,100.111L1.144,100.111L1.985,100.111L2.928,100.111L4.864,100.111L5.815,100.111L6.865,100.111L7.726,100.111L8.665,100.111L10.586,100.111L11.548,100.111L12.567,100.111L13.455,100.111L14.396,100.111L16.348,100.111L17.286,100.111L18.31,100.111L19.199,100.111L20.144,100.111L22.105,100.111L23.047,100.111L24.105,100.111L24.476,100.111L24.958,100.111L25.878,100.111L27.801,100.111L28.773,100.111L29.792,100.111L30.683,100.111L31.616,100.111L33.544,100.111L34.506,100.111L35.567,100.111L35.996,100.111L36.421,100.111L37.363,100.111L39.28,100.111L40.25,100.111L41.275,100.111L42.165,100.111L43.1,100.111L45.022,100.111L45.989,100.111L47.012,100.111L47.899,100.111L48.838,100.111L50.758,100.111L51.72,100.111L52.735,100.111L53.624,100.111L54.572,100.111L56.505,100.111L57.456,100.111L58.478,100.111L59.372,100.111L60.314,100.111L62.253,100.111L63.222,100.111L64.269,100.111L65.126,100.111L66.061,100.111L67.984,100.111L68.958,100.111L70.861,100.111L71.795,100.111L73.717,100.111L74.687,100.111L75.063,100.111L75.71,100.111L76.35,100.111L76.6,100.111L77.539,100.111L79.456,100.111L80.43,100.111L81.452,100.111L82.339,100.111L83.277,100.111L85.197,100.111L86.166,100.111L87.185,100.111L88.077,100.111L89.014,100.111L90.931,100.111L91.892,100.111L92.908,100.111L93.804,100.111L94.706,100.111L94.751,100.111L96.673,100.111L97.286,100.111L97.63,100.111L98.651,100.111L99.547,100.111L100.493,100.111L102.432,100.111L103.397,100.111L104.415,100.111L105.294,100.111L106.232,100.111L108.163,100.111L109.133,100.111L110.159,100.111L111.038,100.111L111.976,100.111L113.895,100.111L114.864,100.111L115.887,100.111L116.776,100.111L117.714,100.111L119.634,100.111L120.606,100.111L121.621,100.111L122.52,100.111L123.453,100.111L125.377,100.111L126.345,100.111L127.365,100.111L128.249,100.111L129.195,100.111L131.111,100.111L131.603,100.111L132.068,100.111L133.081,100.111L133.98,100.111L134.932,100.111L136.849,100.111L137.808,100.111L138.825,100.111L139.72,100.111L140.672,100.111L142.598,100.111L143.575,100.111L144.599,100.111L145.481,100.111L146.421,100.111L148.337,100.111L149.313,100.111L150.371,100.111L151.225,100.111L152.154,100.111L154.069,100.111L155.048,100.111L156.065,100.111L156.956,100.111L157.897,100.111L159.817,100.111L160.786,100.111L161.803,100.111L162.685,100.111L163.633,100.111L165.552,100.111L166.524,100.111L167.54,100.111L168.427,100.111L169.372,100.111L171.289,100.111L172.25,100.111L173.263,100.111L174.157,100.111L175.113,100.111L177.031,100.111L177.99,100.111L179,100.111L179.895,100.111L180.853,100.111L182.781,100.111L183.749,100.111L184.774,100.111L185.658,100.111L186.596,100.111L188.516,100.111L189.494,100.111L190.513,100.111L191.396,100.111L192.338,100.111L194.258,100.111L195.229,100.111L196.253,100.111L197.138,100.111L198.077,100.111L199.998,100.111" stroke="#4c78a8" stroke-width="2"/></g></g><path class="foreground" aria-hidden="true" d="" display="none"/></g><g transform="translate(0,0)"><path class="background" aria-hidden="true" d="M0,0h200v200h-200Z"/><g><g class="mark-line role-mark marks" role="graphics-object" aria-roledescription="line mark container"><path aria-label="Time: Aug 14, 2025; Price: 999; identifier: roam-2" role="graphics-symbol" aria-roledescription="line mark" d="M0,89L0.048,89L0.085,89L1.144,89L1.985,89L2.928,89L4.865,89L5.815,89L6.865,89L7.726,89L8.665,89L10.586,89L11.548,89L12.567,89L13.455,89L14.405,89L16.348,89L17.286,89L18.31,89L19.199,89L20.144,89L22.105,89L23.048,89L24.105,89L24.476,89L24.958,89L25.879,89L27.802,89L28.773,89L29.793,89L30.683,89L31.617,89L33.544,89L34.506,89L35.567,89L35.996,89L36.421,89L37.364,89L39.28,89L40.251,89L41.275,89L42.165,89L43.101,89L45.022,89L45.989,89L47.013,89L47.9,89L48.838,89L50.758,89L51.72,89L52.735,89L53.625,89L54.572,89L56.505,89L57.457,89L58.478,89L59.372,89L60.314,89L62.254,89L63.222,89L64.269,89L65.127,89L66.061,89L67.984,89L68.959,89L70.861,89L71.795,89L73.717,89L74.687,89L75.064,89L75.71,89L76.35,89L76.601,89L77.54,89L79.457,89L80.43,89L81.452,89L82.34,89L83.278,89L85.197,89L86.166,89L87.186,89L88.078,89L89.014,89L90.931,89L91.893,89L92.908,89L93.804,89L94.706,89L94.751,89L96.673,89L97.287,89L97.63,89L98.651,89L99.547,89L100.493,89L102.432,89L103.397,89L104.415,89L105.294,89L106.232,89L108.163,89L109.133,89L110.159,89L111.038,89L111.976,89L113.896,89L114.864,89L115.887,89L116.776,89L117.715,89L119.634,89L120.607,89L121.622,89L122.52,89L123.453,89L125.377,89L126.346,89L127.365,89L128.249,89L129.195,89L131.111,89L131.603,89L132.069,89L133.081,89L133.98,89L134.933,89L136.849,89L137.808,89L138.825,89L139.721,89L140.672,89L142.599,89L143.575,89L144.599,89L145.481,89L146.421,89L148.337,89L149.313,89L150.372,89L151.225,89L152.155,89L154.069,89L155.048,89L156.065,89L156.956,89L157.897,89L159.817,89L160.786,89L161.803,89L162.685,89L163.633,89L165.553,89L166.524,89L167.541,89L168.428,89L169.373,89L171.289,89L172.25,89L173.264,89L174.157,89L175.113,89L177.032,89L177.991,89L179,89L179.896,89L180.854,89L182.781,89L183.749,89L184.775,89L185.659,89L186.598,89L188.516,89L189.494,89L190.514,89L191.397,89L192.339,89L194.259,89L195.229,89L196.254,89L197.138,89L198.078,89L199.998,89" stroke="#ff9da6" stroke-width="2"/></g></g><path class="foreground" aria-hidden="true" d="" display="none"/></g><g transform="translate(0,0)"><path class="background" aria-hidden="true" d="M0,0h200v200h-200Z"/><g><g class="mark-line role-mark marks" role="graphics-object" aria-roledescription="line mark container"><path aria-label="Time: Aug 14, 2025; Price: 999; identifier: fastroad-sl-3-2022" role="graphics-symbol" aria-roledescription="line mark" d="M0,89L0.048,89L0.086,89L1.144,89L1.985,89L2.929,89L4.865,89L5.815,89L6.865,89L7.726,89L8.665,89L10.586,89L11.548,89L12.567,89L13.455,89L14.405,89L16.349,89L17.286,89L18.31,89L19.199,89L20.144,89L22.105,89L23.048,89L24.105,89L24.476,89L24.958,89L25.879,89L27.802,89L28.773,89L29.793,89L30.683,89L31.617,89L33.544,89L34.506,89L35.567,89L35.997,89L36.422,89L37.364,89L39.281,89L40.251,89L41.275,89L42.165,89L43.101,89L45.022,89L45.989,89L47.013,89L47.9,89L48.838,89L50.758,89L51.72,89L52.735,89L53.625,89L54.572,89L56.505,89L57.457,89L58.478,89L59.372,89L60.314,89L62.254,89L63.222,89L64.27,89L65.127,89L66.061,89L67.984,89L68.959,89L70.861,89L71.795,89L73.718,89L74.687,89L75.064,89L75.71,89L76.35,89L76.601,89L77.54,89L79.457,89L80.43,89L81.452,89L82.34,89L83.278,89L85.197,89L86.166,89L87.186,89L88.078,89L89.015,89L90.931,89L91.893,89L92.908,89L93.804,89L94.706,89L94.751,89L96.673,89L97.287,89L97.63,89L98.651,89L99.547,89L100.493,89L102.432,89L103.397,89L104.415,89L105.295,89L106.232,89L108.163,89L109.133,89L110.159,89L111.038,89L111.976,89L113.896,89L114.864,89L115.887,89L116.776,89L117.715,89L119.634,89L120.607,89L121.622,89L122.52,89L123.453,89L125.377,89L126.346,89L127.365,89L128.249,89L129.196,89L131.111,89L131.603,89L132.069,89L133.081,89L133.98,89L134.933,89L136.849,89L137.808,89L138.825,89L139.721,89L140.672,89L142.6,89L143.576,89L144.599,89L145.481,89L146.421,89L148.337,89L149.314,89L150.372,89L151.225,89L152.155,89L154.069,89L155.048,89L156.066,89L156.956,89L157.897,89L159.817,89L160.786,89L161.803,89L162.685,89L163.633,89L165.553,89L166.524,89L167.541,89L168.428,89L169.373,89L171.289,89L172.251,89L173.264,89L174.157,89L175.113,89L177.032,89L177.991,89L179,89L179.896,89L180.854,89L182.781,89L183.749,89L184.775,89L185.66,89L186.598,89L188.517,89L189.494,89L190.514,89L191.397,89L192.339,89L194.259,89L195.229,89L196.254,89L197.138,89L198.078,89L199.998,89" stroke="#9d755d" stroke-width="2"/></g></g><path class="foreground" aria-hidden="true" d="" display="none"/></g><g transform="translate(0,0)"><path class="background" aria-hidden="true" d="M0,0h200v200h-200Z"/><g><g class="mark-line role-mark marks" role="graphics-object" aria-roledescription="line mark container"><path aria-label="Time: Aug 14, 2025; Price: 1199; identifier: fastroad-ar-2" role="graphics-symbol" aria-roledescription="line mark" d="M0,66.778L0.048,66.778L0.086,66.778L1.144,66.778L1.985,66.778L2.929,66.778L4.865,66.778L5.815,66.778L6.865,66.778L7.726,66.778L8.665,66.778L10.587,66.778L11.548,66.778L12.567,66.778L13.455,66.778L14.41,66.778L16.349,66.778L17.287,66.778L18.31,66.778L19.2,66.778L20.144,66.778L22.105,66.778L23.048,66.778L24.105,66.778L24.476,66.778L24.958,66.778L25.879,66.778L27.802,66.778L28.773,66.778L29.793,66.778L30.683,66.778L31.617,66.778L33.544,66.778L34.506,66.778L35.567,66.778L35.997,66.778L36.422,66.778L37.364,66.778L39.281,66.778L40.251,66.778L41.275,66.778L42.166,66.778L43.101,66.778L45.022,66.778L45.989,66.778L47.013,66.778L47.9,66.778L48.838,66.778L50.758,66.778L51.721,66.778L52.735,66.778L53.625,66.778L54.572,66.778L56.506,66.778L57.457,66.778L58.478,66.778L59.372,66.778L60.314,66.778L62.254,66.778L63.222,66.778L64.27,66.778L65.127,66.778L66.061,66.778L67.985,66.778L68.959,66.778L70.861,66.778L71.796,66.778L73.718,66.778L74.688,66.778L75.064,66.778L75.71,66.778L76.35,66.778L76.601,66.778L77.54,66.778L79.457,66.778L80.43,66.778L81.453,66.778L82.34,66.778L83.278,66.778L85.197,66.778L86.166,66.778L87.186,66.778L88.078,66.778L89.015,66.778L90.931,66.778L91.893,66.778L92.909,66.778L93.804,66.778L94.707,66.778L94.751,66.778L96.674,66.778L97.287,66.778L97.631,66.778L98.651,66.778L99.547,66.778L100.494,66.778L102.432,66.778L103.397,66.778L104.416,66.778L105.295,66.778L106.232,66.778L108.163,66.778L109.134,66.778L110.159,66.778L111.039,66.778L111.977,66.778L113.896,66.778L114.865,66.778L115.887,66.778L116.776,66.778L117.715,66.778L119.635,66.778L120.607,66.778L121.622,66.778L122.52,66.778L123.454,66.778L125.377,66.778L126.346,66.778L127.365,66.778L128.249,66.778L129.196,66.778L131.111,66.778L131.603,66.778L132.069,66.778L133.081,66.778L133.98,66.778L134.933,66.778L136.849,66.778L137.808,66.778L138.825,66.778L139.721,66.778L140.673,66.778L142.6,66.778L143.576,66.778L144.599,66.778L145.481,66.778L146.421,66.778L148.337,66.778L149.314,66.778L150.372,66.778L151.225,66.778L152.155,66.778L154.07,66.778L155.048,66.778L156.066,66.778L156.956,66.778L157.898,66.778L159.817,66.778L160.786,66.778L161.804,66.778L162.685,66.778L163.633,66.778L165.553,66.778L166.524,66.778L167.541,66.778L168.428,66.778L169.373,66.778L171.29,66.778L172.251,66.778L173.264,66.778L174.157,66.778L175.114,66.778L177.032,66.778L177.991,66.778L179,66.778L179.896,66.778L180.854,66.778L182.781,66.778L183.749,66.778L184.775,66.778L185.66,66.778L186.598,66.778L188.517,66.778L189.494,66.778L190.514,66.778L191.397,66.778L192.339,66.778L194.259,66.778L195.23,66.778L196.254,66.778L197.139,66.778L198.078,66.778L199.998,66.778" stroke="#54a24b" stroke-width="2"/></g></g><path class="foreground" aria-hidden="true" d="" display="none"/></g><g transform="translate(0,0)"><path class="background" aria-hidden="true" d="M0,0h200v200h-200Z"/><g><g class="mark-line role-mark marks" role="graphics-object" aria-roledescription="line mark container"><path aria-label="Time: Aug 18, 2025; Price: 899; identifier: sdrbike-escape-1-city-disc" role="graphics-symbol" aria-roledescription="line mark" d="M24.477,100.111L24.958,100.111L25.879,100.111L27.802,100.111L28.773,100.111L29.793,100.111L30.684,100.111L31.617,100.111L33.544,100.111L34.506,100.111L35.568,100.111L35.997,100.111L36.422,100.111L37.364,100.111L39.281,100.111L40.251,100.111L41.275,100.111L42.166,100.111L43.101,100.111L45.023,100.111L45.99,100.111L47.013,100.111L47.9,100.111L48.838,100.111L50.759,100.111L51.721,100.111L52.735,100.111L53.625,100.111L54.573,100.111L56.506,100.111L57.457,100.111L58.479,100.111L59.372,100.111L60.315,100.111L62.254,100.111L63.223,100.111L64.27,100.111L65.127,100.111L66.061,100.111L67.985,100.111L68.959,100.111L70.862,100.111L71.796,100.111L73.718,100.111L74.688,100.111L75.065,100.111L75.71,100.111L76.35,100.111L76.601,100.111L77.54,100.111L79.457,100.111L80.43,100.111L81.453,100.111L82.34,100.111L83.278,100.111L85.198,100.111L86.167,100.111L87.186,100.111L88.078,100.111L89.015,100.111L90.931,100.111L91.893,100.111L92.909,100.111L93.804,100.111L94.707,100.111L94.751,100.111L96.674,100.111L97.287,100.111L97.631,100.111L98.652,100.111L99.548,100.111L100.494,100.111L102.432,100.111L103.397,100.111L104.416,100.111L105.295,100.111L106.233,100.111L108.163,100.111L109.134,100.111L110.16,100.111L111.039,100.111L111.977,100.111L113.896,100.111L114.865,100.111L115.887,100.111L116.776,100.111L117.715,100.111L119.635,100.111L120.607,100.111L121.622,100.111L122.52,100.111L123.454,100.111L125.377,100.111L126.346,100.111L127.365,100.111L128.25,100.111L129.196,100.111L131.111,100.111L131.604,100.111L132.069,100.111L133.082,100.111L133.98,100.111L134.933,100.111L136.85,100.111L137.809,100.111L138.825,100.111L139.721,100.111L140.673,100.111L142.6,100.111L143.576,100.111L144.6,100.111L145.482,100.111L146.422,100.111L148.338,100.111L149.314,100.111L150.372,100.111L151.225,100.111L152.155,100.111L154.07,100.111L155.048,100.111L156.066,100.111L156.956,100.111L157.898,100.111L159.817,100.111L160.786,100.111L161.804,100.111L162.685,100.111L163.633,100.111L165.553,100.111L166.524,100.111L167.541,100.111L168.428,100.111L169.373,100.111L171.29,100.111L172.251,100.111L173.264,100.111L174.157,100.111L175.114,100.111L177.032,100.111L177.991,100.111L179,100.111L179.896,100.111L180.854,100.111L182.782,100.111L183.749,100.111L184.775,100.111L185.66,100.111L186.598,100.111L188.517,100.111L189.494,100.111L190.514,100.111L191.397,100.111L192.339,100.111L194.259,100.111L195.23,100.111L196.254,100.111L197.139,100.111L198.078,100.111L199.998,100.111" stroke="#f58518" stroke-width="2"/></g></g><path class="foreground" aria-hidden="true" d="" display="none"/></g><g transform="translate(0,0)"><path class="background" aria-hidden="true" d="M0,0h200v200h-200Z"/><g><g class="mark-line role-mark marks" role="graphics-object" aria-roledescription="line mark container"><path aria-label="Time: Aug 20, 2025; Price: 899; identifier: roam-disc-2-2024" role="graphics-symbol" aria-roledescription="line mark" d="M35.996,100.111L36.421,100.111L37.363,100.111L39.28,100.111L40.25,100.111L41.275,100.111L42.165,100.111L43.101,100.111L45.022,100.111L45.989,100.111L47.012,100.111L47.899,100.111L48.838,100.111L50.758,100.111L51.72,100.111L52.735,100.111L53.624,100.111L54.572,100.111L56.505,100.111L57.456,100.111L58.478,100.111L59.372,100.111L60.314,100.111L62.253,100.111L63.222,100.111L64.269,100.111L65.126,100.111L66.061,100.111L67.984,100.111L68.959,100.111L70.861,100.111L71.795,100.111L73.717,100.111L74.687,100.111L75.064,100.111L75.71,100.111L76.35,100.111L76.6,100.111L77.539,100.111L79.456,100.111L80.43,100.111L81.452,100.111L82.34,100.111L83.277,100.111L85.197,100.111L86.166,100.111L87.186,100.111L88.077,100.111L89.014,100.111L90.931,100.111L91.893,100.111L92.908,100.111L93.804,100.111L94.706,100.111L94.751,100.111L96.673,100.111L97.286,100.111L97.63,100.111L98.651,100.111L99.547,100.111L100.493,100.111L102.432,100.111L103.397,100.111L104.415,100.111L105.294,100.111L106.232,100.111L108.163,100.111L109.133,100.111L110.159,100.111L111.038,100.111L111.976,100.111L113.896,100.111L114.864,100.111L115.887,100.111L116.776,100.111L117.714,100.111L119.634,100.111L120.607,100.111L121.622,100.111L122.52,100.111L123.453,100.111L125.377,100.111L126.345,100.111L127.365,100.111L128.249,100.111L129.195,100.111L131.111,100.111L131.603,100.111L132.068,100.111L133.081,100.111L133.98,100.111L134.932,100.111L136.849,100.111L137.808,100.111L138.825,100.111L139.721,100.111L140.672,100.111L142.599,100.111L143.575,100.111L144.599,100.111L145.481,100.111L146.421,100.111L148.337,100.111L149.313,100.111L150.371,100.111L151.225,100.111L152.155,100.111L154.069,100.111L155.048,100.111L156.065,100.111L156.956,100.111L157.897,100.111L159.817,100.111L160.786,100.111L161.803,100.111L162.685,100.111L163.633,100.111L165.552,100.111L166.524,100.111L167.541,100.111L168.428,100.111L169.372,100.111L171.289,100.111L172.25,100.111L173.264,100.111L174.157,100.111L175.113,100.111L177.031,100.111L177.991,100.111L179,100.111L179.895,100.111L180.853,100.111L182.781,100.111L183.749,100.111L184.775,100.111L185.659,100.111L186.598,100.111L188.516,100.111L189.494,100.111L190.513,100.111L191.396,100.111L192.339,100.111L194.259,100.111L195.229,100.111L196.254,100.111L197.138,100.111L198.077,100.111L199.998,100.111" stroke="#e45756" stroke-width="2"/></g></g><path class="foreground" aria-hidden="true" d="" display="none"/></g><g transform="translate(0,0)"><path class="background" aria-hidden="true" d="M0,0h200v200h-200Z"/><g><g class="mark-line role-mark marks" role="graphics-object" aria-roledescription="line mark container"><path aria-label="Time: Aug 20, 2025; Price: 1199; identifier: thrive-2" role="graphics-symbol" aria-roledescription="line mark" d="M35.997,66.778L36.422,66.778L37.364,66.778L39.281,66.778L40.251,66.778L41.275,66.778L42.166,66.778L43.101,66.778L45.023,66.778L45.99,66.778L47.013,66.778L47.9,66.778L48.838,66.778L50.759,66.778L51.721,66.778L52.736,66.778L53.625,66.778L54.573,66.778L56.506,66.778L57.457,66.778L58.479,66.778L59.372,66.778L60.315,66.778L62.254,66.778L63.223,66.778L64.27,66.778L65.127,66.778L66.062,66.778L67.985,66.778L68.959,66.778L70.862,66.778L71.796,66.778L73.718,66.778L74.688,66.778L75.065,66.778L75.71,66.778L76.35,66.778L76.601,66.778L77.54,66.778L79.457,66.778L80.431,66.778L81.453,66.778L82.34,66.778L83.278,66.778L85.198,66.778L86.167,66.778L87.186,66.778L88.078,66.778L89.015,66.778L90.931,66.778L91.893,66.778L92.909,66.778L93.804,66.778L94.707,66.778L94.752,66.778L96.674,66.778L97.287,66.778L97.631,66.778L98.652,66.778L99.548,66.778L100.494,66.778L102.432,66.778L103.397,66.778L104.416,66.778L105.295,66.778L106.233,66.778L108.164,66.778L109.134,66.778L110.16,66.778L111.039,66.778L111.977,66.778L113.896,66.778L114.865,66.778L115.887,66.778L116.776,66.778L117.715,66.778L119.635,66.778L120.607,66.778L121.622,66.778L122.521,66.778L123.454,66.778L125.377,66.778L126.346,66.778L127.366,66.778L128.25,66.778L129.196,66.778L131.111,66.778L131.604,66.778L132.069,66.778L133.082,66.778L133.98,66.778L134.933,66.778L136.85,66.778L137.809,66.778L138.826,66.778L139.721,66.778L140.673,66.778L142.6,66.778L143.576,66.778L144.6,66.778L145.482,66.778L146.422,66.778L148.338,66.778L149.314,66.778L150.372,66.778L151.226,66.778L152.155,66.778L154.07,66.778L155.049,66.778L156.066,66.778L156.957,66.778L157.898,66.778L159.818,66.778L160.787,66.778L161.804,66.778L162.686,66.778L163.633,66.778L165.553,66.778L166.525,66.778L167.541,66.778L168.428,66.778L169.373,66.778L171.29,66.778L172.251,66.778L173.264,66.778L174.157,66.778L175.114,66.778L177.032,66.778L177.991,66.778L179.001,66.778L179.896,66.778L180.854,66.778L182.782,66.778L183.749,66.778L184.775,66.778L185.66,66.778L186.598,66.778L188.517,66.778L189.494,66.778L190.514,66.778L191.397,66.778L192.339,66.778L194.259,66.778L195.23,66.778L196.254,66.778L197.139,66.778L198.078,66.778L199.998,66.778" stroke="#eeca3b" stroke-width="2"/></g></g><path class="foreground" aria-hidden="true" d="" display="none"/></g><g transform="translate(0,0)"><path class="background" aria-hidden="true" d="M0,0h200v200h-200Z"/><g><g class="mark-line role-mark marks" role="graphics-object" aria-roledescription="line mark container"><path aria-label="Time: Aug 20, 2025; Price: 999; identifier: rove-2" role="graphics-symbol" aria-roledescription="line mark" d="M35.997,89L36.422,89L37.364,89L39.281,89L40.251,89L41.276,89L42.166,89L43.101,89L45.023,89L45.99,89L47.013,89L47.9,89L48.838,89L50.759,89L51.721,89L52.736,89L53.625,89L54.573,89L56.506,89L57.457,89L58.479,89L59.373,89L60.315,89L62.254,89L63.223,89L64.27,89L65.127,89L66.062,89L67.986,89L68.959,89L70.862,89L71.796,89L73.718,89L74.688,89L75.065,89L75.71,89L76.35,89L76.601,89L77.54,89L79.457,89L80.431,89L81.453,89L82.34,89L83.278,89L85.198,89L86.167,89L87.186,89L88.078,89L89.015,89L94.707,111.222L94.752,111.222L96.674,111.222L97.287,111.222L97.631,111.222L98.652,111.222L99.548,111.222L100.494,111.222L102.433,111.222L103.397,111.222L104.416,111.222L105.295,111.222L106.233,111.222L108.164,111.222L109.134,111.222L110.16,111.222L111.039,111.222L111.977,111.222L113.896,111.222L114.865,111.222L115.887,111.222L116.776,111.222L117.715,111.222L119.635,111.222L120.607,111.222L121.622,111.222L122.521,111.222L123.454,111.222L125.378,111.222L126.346,111.222L127.366,111.222L128.25,111.222L129.196,111.222L131.112,111.222L131.604,111.222L132.069,111.222L133.082,111.222L133.981,111.222L134.933,111.222L136.85,111.222L137.809,111.222L138.826,111.222L139.721,111.222L140.673,111.222L142.6,111.222L143.576,111.222L144.6,111.222L145.482,111.222L146.422,111.222L148.338,111.222L149.314,111.222L150.372,111.222L151.226,111.222L152.155,111.222L154.07,111.222L155.049,111.222L156.066,111.222L156.957,111.222L157.898,111.222L159.818,111.222L160.787,111.222L161.804,111.222L162.686,111.222L163.633,111.222L165.553,111.222L166.525,111.222L167.541,111.222L168.428,111.222L169.373,111.222L171.29,111.222L172.251,111.222L173.265,111.222L174.158,111.222L175.114,111.222L177.032,111.222L177.992,111.222L179.001,111.222L179.896,111.222L180.854,111.222L182.782,111.222L183.749,111.222L184.776,111.222L185.66,111.222L186.598,111.222L188.517,111.222L189.495,111.222L190.514,111.222L191.397,111.222L192.339,111.222L194.259,111.222L195.23,111.222L196.255,111.222L197.139,111.222L198.078,111.222L199.999,111.222" stroke="#72b7b2" stroke-width="2"/></g></g><path class="foreground" aria-hidden="true" d="" display="none"/></g><g transform="translate(0,0)"><path class="background" aria-hidden="true" d="M0,0h200v200h-200Z"/><g><g class="mark-line role-mark marks" role="graphics-object" aria-roledescription="line mark container"><path aria-label="Time: Aug 27, 2025; Price: 1199; identifier: allure-rs-1-2023" role="graphics-symbol" aria-roledescription="line mark" d="M75.066,66.778L75.711,66.778L76.351,66.778L76.601,66.778L77.541,66.778L79.457,66.778L80.431,66.778L81.453,66.778L82.34,66.778L83.278,66.778L85.198,66.778L86.167,66.778L87.187,66.778L88.078,66.778L89.015,66.778L90.932,66.778L91.894,66.778L92.909,66.778L93.805,66.778L94.707,66.778L94.752,66.778L96.674,66.778L97.287,66.778L97.631,66.778L98.652,66.778L99.548,66.778L100.494,66.778L102.433,66.778L103.398,66.778L104.416,66.778L105.295,66.778L106.233,66.778L108.164,66.778L109.134,66.778L110.16,66.778L111.039,66.778L111.977,66.778L113.896,66.778L114.865,66.778L115.888,66.778L116.776,66.778L117.715,66.778L119.635,66.778L120.608,66.778L121.623,66.778L122.521,66.778L123.454,66.778L125.378,66.778L126.346,66.778L127.366,66.778L128.25,66.778L129.196,66.778L131.112,66.778L131.604,66.778L132.07,66.778L133.082,66.778L133.981,66.778L134.933,66.778L136.85,66.778L137.809,66.778L138.826,66.778L139.721,66.778L140.673,66.778L142.6,66.778L143.576,66.778L144.6,66.778L145.482,66.778L146.422,66.778L148.338,66.778L149.314,66.778L150.373,66.778L151.226,66.778L152.155,66.778L154.07,66.778L155.049,66.778L156.066,66.778L156.957,66.778L157.898,66.778L159.818,66.778L160.787,66.778L161.804,66.778L162.686,66.778L163.634,66.778L165.554,66.778L166.525,66.778L167.542,66.778L168.428,66.778L169.373,66.778L171.29,66.778L172.251,66.778L173.265,66.778L174.158,66.778L175.114,66.778L177.032,66.778L177.992,66.778L179.001,66.778L179.896,66.778L180.854,66.778L182.782,66.778L183.75,66.778L184.776,66.778L185.66,66.778L186.599,66.778L188.517,66.778L189.495,66.778L190.514,66.778L191.398,66.778L192.339,66.778L194.26,66.778L195.23,66.778L196.255,66.778L197.139,66.778L198.079,66.778L199.999,66.778" stroke="#b279a2" stroke-width="2"/></g></g><path class="foreground" aria-hidden="true" d="" display="none"/></g><g transform="translate(0,0)"><path class="background" aria-hidden="true" d="M0,0h200v200h-200Z"/><g><g class="mark-line role-mark marks" role="graphics-object" aria-roledescription="line mark container"><path aria-label="Time: Aug 27, 2025; Price: 999; identifier: allure-rs-2-2022" role="graphics-symbol" aria-roledescription="line mark" d="M75.066,89L75.711,89L76.351,89L76.601,89L77.541,89L79.458,89L80.431,89L81.453,89L82.341,89L83.278,89L85.198,89L86.167,89L87.187,89L88.078,89L89.016,89L94.707,111.222L94.752,111.222L96.674,111.222L97.287,111.222L97.631,111.222L98.652,111.222L99.548,111.222L100.494,111.222L102.433,111.222L103.398,111.222L104.416,111.222L105.296,111.222L106.233,111.222L108.164,111.222L109.134,111.222L110.16,111.222L111.039,111.222L111.977,111.222L113.897,111.222L114.865,111.222L115.888,111.222L116.777,111.222L117.715,111.222L119.635,111.222L120.608,111.222L121.623,111.222L122.521,111.222L123.454,111.222L125.378,111.222L126.346,111.222L127.366,111.222L128.25,111.222L129.196,111.222L131.112,111.222L131.604,111.222L132.07,111.222L133.082,111.222L133.981,111.222L134.933,111.222L136.85,111.222L137.809,111.222L138.826,111.222L139.722,111.222L140.673,111.222L142.6,111.222L143.577,111.222L144.6,111.222L145.482,111.222L146.422,111.222L148.338,111.222L149.314,111.222L150.373,111.222L151.226,111.222L152.156,111.222L154.07,111.222L155.049,111.222L156.067,111.222L156.957,111.222L157.899,111.222L159.818,111.222L160.787,111.222L161.804,111.222L162.686,111.222L163.634,111.222L165.554,111.222L166.525,111.222L167.542,111.222L168.429,111.222L169.373,111.222L171.29,111.222L172.251,111.222L173.265,111.222L174.158,111.222L175.114,111.222L177.033,111.222L177.992,111.222L179.001,111.222L179.896,111.222L180.855,111.222L182.782,111.222L183.75,111.222L184.776,111.222L185.66,111.222L186.599,111.222L188.517,111.222L189.495,111.222L190.514,111.222L191.398,111.222L192.34,111.222L194.26,111.222L195.23,111.222L196.255,111.222L197.139,111.222L198.079,111.222L199.999,111.222" stroke="#54a24b" stroke-width="2"/></g></g><path class="foreground" aria-hidden="true" d="" display="none"/></g><g transform="translate(0,0)"><path class="background" aria-hidden="true" d="M0,0h200v200h-200Z"/><g><g class="mark-line role-mark marks" role="graphics-object" aria-roledescription="line mark container"><path aria-label="Time: Aug 27, 2025; Price: 949; identifier: allure-rs-2-2023" role="graphics-symbol" aria-roledescription="line mark" d="M75.066,94.556L75.711,94.556L76.351,94.556L76.601,94.556L77.541,94.556L79.458,94.556L80.431,94.556L81.454,94.556L82.341,94.556L83.279,94.556L85.198,94.556L86.167,94.556L87.187,94.556L88.079,94.556L89.016,94.556L90.932,94.556L91.894,94.556L92.91,94.556L93.805,94.556L94.708,94.556L94.752,94.556L96.674,94.556L97.287,94.556L97.632,94.556L98.652,94.556L99.548,94.556L100.494,94.556L102.433,94.556L103.398,94.556L104.416,94.556L105.296,94.556L106.233,94.556L108.164,94.556L109.134,94.556L110.16,94.556L111.039,94.556L111.977,94.556L113.897,94.556L114.865,94.556L115.888,94.556L116.777,94.556L117.716,94.556L119.635,94.556L120.608,94.556L121.623,94.556L122.521,94.556L123.455,94.556L125.378,94.556L126.347,94.556L127.366,94.556L128.25,94.556L129.197,94.556L131.112,94.556L131.604,94.556L132.07,94.556L133.082,94.556L133.981,94.556L134.933,94.556L136.85,94.556L137.809,94.556L138.826,94.556L139.722,94.556L140.673,94.556L142.6,94.556L143.577,94.556L144.6,94.556L145.482,94.556L146.422,94.556L148.338,94.556L149.314,94.556L150.373,94.556L151.226,94.556L152.156,94.556L154.07,94.556L155.049,94.556L156.067,94.556L156.957,94.556L157.899,94.556L159.818,94.556L160.787,94.556L161.804,94.556L162.686,94.556L163.634,94.556L165.554,94.556L166.525,94.556L167.542,94.556L168.429,94.556L169.374,94.556L171.29,94.556L172.251,94.556L173.265,94.556L174.158,94.556L175.114,94.556L177.033,94.556L177.992,94.556L179.001,94.556L179.896,94.556L180.855,94.556L182.782,94.556L183.75,94.556L184.776,94.556L185.661,94.556L186.599,94.556L188.518,94.556L189.495,94.556L190.515,94.556L191.398,94.556L192.34,94.556L194.26,94.556L195.23,94.556L196.255,94.556L197.139,94.556L198.079,94.556L199.999,94.556" stroke="#bab0ac" stroke-width="2"/></g></g><path class="foreground" aria-hidden="true" d="" display="none"/></g><g transform="translate(0,0)"><path class="background" aria-hidden="true" d="M0,0h200v200h-200Z"/><g><g class="mark-line role-mark marks" role="graphics-object" aria-roledescription="line mark container"><path aria-label="Time: Aug 27, 2025; Price: 999; identifier: allure-rs-2-2024" role="graphics-symbol" aria-roledescription="line mark" d="M75.067,89L75.711,89L76.351,89L76.602,89L77.541,89L79.458,89L80.431,89L81.454,89L82.341,89L83.279,89L85.198,89L86.167,89L87.187,89L88.079,89L89.016,89L94.708,111.222L94.752,111.222L96.674,111.222L97.287,111.222L97.632,111.222L98.652,111.222L99.548,111.222L100.494,111.222L102.433,111.222L103.398,111.222L104.417,111.222L105.296,111.222L106.234,111.222L108.164,111.222L109.135,111.222L110.16,111.222L111.039,111.222L111.978,111.222L113.897,111.222L114.865,111.222L115.888,111.222L116.777,111.222L117.716,111.222L119.636,111.222L120.608,111.222L121.623,111.222L122.521,111.222L123.455,111.222L125.378,111.222L126.347,111.222L127.366,111.222L128.251,111.222L129.197,111.222L131.112,111.222L131.604,111.222L132.07,111.222L133.083,111.222L133.981,111.222L134.934,111.222L136.85,111.222L137.809,111.222L138.826,111.222L139.722,111.222L140.673,111.222L142.601,111.222L143.577,111.222L144.601,111.222L145.482,111.222L146.422,111.222L148.338,111.222L149.315,111.222L150.373,111.222L151.226,111.222L152.156,111.222L154.07,111.222L155.049,111.222L156.067,111.222L156.957,111.222L157.899,111.222L159.818,111.222L160.787,111.222L161.804,111.222L162.686,111.222L163.634,111.222L165.554,111.222L166.525,111.222L167.542,111.222L168.429,111.222L169.374,111.222L171.29,111.222L172.252,111.222L173.265,111.222L174.158,111.222L175.115,111.222L177.033,111.222L177.992,111.222L179.001,111.222L179.897,111.222L180.855,111.222L182.782,111.222L183.75,111.222L184.776,111.222L185.661,111.222L186.599,111.222L188.518,111.222L189.495,111.222L190.515,111.222L191.398,111.222L192.34,111.222L194.26,111.222L195.23,111.222L196.255,111.222L197.14,111.222L198.079,111.222L199.999,111.222" stroke="#eeca3b" stroke-width="2"/></g></g><path class="foreground" aria-hidden="true" d="" display="none"/></g><g transform="translate(0,0)"><path class="background" aria-hidden="true" d="M0,0h200v200h-200Z"/><g><g class="mark-line role-mark marks" role="graphics-object" aria-roledescription="line mark container"><path aria-label="Time: Aug 27, 2025; Price: 1799; identifier: devote-1-2024" role="graphics-symbol" aria-roledescription="line mark" d="M76.351,0.111L76.602,0.111L77.541,0.111L79.458,0.111L80.431,0.111L81.454,0.111L82.341,0.111L83.279,0.111L85.198,0.111L86.168,0.111L87.187,0.111L88.079,0.111L89.016,0.111L94.708,44.556L94.752,44.556L96.675,44.556L97.288,44.556L97.632,44.556L98.653,44.556L99.548,44.556L100.494,44.556L102.433,44.556L103.398,44.556L104.417,44.556L105.296,44.556L106.234,44.556L108.164,44.556L109.135,44.556L110.161,44.556L111.04,44.556L111.978,44.556L113.897,44.556L114.866,44.556L115.888,44.556L116.777,44.556L117.716,44.556L119.636,44.556L120.608,44.556L121.623,44.556L122.521,44.556L123.455,44.556L125.378,44.556L126.347,44.556L127.366,44.556L128.251,44.556L129.197,44.556L131.112,44.556L131.604,44.556L132.07,44.556L133.083,44.556L133.981,44.556L134.934,44.556L136.85,44.556L137.81,44.556L138.826,44.556L139.722,44.556L140.674,44.556L142.601,44.556L143.577,44.556L144.601,44.556L145.482,44.556L146.422,44.556L148.338,44.556L149.315,44.556L150.373,44.556L151.226,44.556L152.156,44.556L154.071,44.556L155.049,44.556L156.067,44.556L156.957,44.556L157.899,44.556L159.819,44.556L160.787,44.556L161.805,44.556L162.686,44.556L163.634,44.556L165.554,44.556L166.526,44.556L167.543,44.556L168.429,44.556L169.374,44.556L171.291,44.556L172.252,44.556L173.265,44.556L174.158,44.556L175.115,44.556L177.033,44.556L177.992,44.556L179.001,44.556L179.897,44.556L180.855,44.556L182.783,44.556L183.75,44.556L184.776,44.556L185.662,44.556L186.6,44.556L188.518,44.556L189.495,44.556L190.515,44.556L191.398,44.556L192.34,44.556L194.26,44.556L195.231,44.556L196.255,44.556L197.14,44.556L198.079,44.556L199.999,44.556" stroke="#72b7b2" stroke-width="2"/></g></g><path class="foreground" aria-hidden="true" d="" display="none"/></g><g transform="translate(0,0)"><path class="background" aria-hidden="true" d="M0,0h200v200h-200Z"/><g><g class="mark-line role-mark marks" role="graphics-object" aria-roledescription="line mark container"><path aria-label="Time: Aug 27, 2025; Price: 1699; identifier: devote-1-2022" role="graphics-symbol" aria-roledescription="line mark" d="M76.351,11.222L76.602,11.222L77.541,11.222L79.458,11.222L80.432,11.222L81.454,11.222L82.341,11.222L83.279,11.222L85.199,11.222L86.168,11.222L87.187,11.222L88.079,11.222L89.016,11.222L90.932,11.222L91.894,11.222L92.91,11.222L93.805,11.222L94.708,11.222L94.752,11.222L96.675,11.222L97.288,11.222L97.632,11.222L98.653,11.222L99.548,11.222L100.495,11.222L102.433,11.222L103.398,11.222L104.417,11.222L105.296,11.222L106.234,11.222L108.164,11.222L109.135,11.222L110.161,11.222L111.04,11.222L111.978,11.222L113.897,11.222L114.866,11.222L115.888,11.222L116.777,11.222L117.716,11.222L119.636,11.222L120.608,11.222L121.623,11.222L122.522,11.222L123.455,11.222L125.378,11.222L126.347,11.222L127.366,11.222L128.251,11.222L129.197,11.222L131.112,11.222L131.604,11.222L132.07,11.222L133.083,11.222L133.981,11.222L134.934,11.222L136.851,11.222L137.81,11.222L138.826,11.222L139.722,11.222L140.674,11.222L142.601,11.222L143.577,11.222L144.601,11.222L145.482,11.222L146.423,11.222L148.339,11.222L149.315,11.222L150.373,11.222L151.226,11.222L152.156,11.222L154.071,11.222L155.05,11.222L156.067,11.222L156.958,11.222L157.899,11.222L159.819,11.222L160.787,11.222L161.805,11.222L162.686,11.222L163.634,11.222L165.554,11.222L166.526,11.222L167.543,11.222L168.429,11.222L169.374,11.222L171.291,11.222L172.252,11.222L173.265,11.222L174.158,11.222L175.115,11.222L177.033,11.222L177.992,11.222L179.001,11.222L179.897,11.222L180.855,11.222L182.783,11.222L183.75,11.222L184.777,11.222L185.662,11.222L186.601,11.222L188.518,11.222L189.495,11.222L190.515,11.222L191.398,11.222L192.34,11.222L194.26,11.222L195.231,11.222L196.255,11.222L197.14,11.222L198.079,11.222L199.999,11.222" stroke="#4c78a8" stroke-width="2"/></g></g><path class="foreground" aria-hidden="true" d="" display="none"/></g><g transform="translate(0,0)"><path class="background" aria-hidden="true" d="M0,0h200v200h-200Z"/><g><g class="mark-line role-mark marks" role="graphics-object" aria-roledescription="line mark container"><path aria-label="Time: Aug 31, 2025; Price: 1599; identifier: silex-400-oak-bork-2026" role="graphics-symbol" aria-roledescription="line mark" d="M97.288,22.333L97.632,22.333L98.653,22.333L99.549,22.333L100.495,22.333L102.434,22.333L103.398,22.333L104.417,22.333L105.296,22.333L106.234,22.333L108.165,22.333L109.135,22.333L110.161,22.333L111.04,22.333L111.978,22.333L113.897,22.333L114.866,22.333L115.888,22.333L116.777,22.333L117.716,22.333L119.636,22.333L120.608,22.333L121.623,22.333L122.522,22.333L123.455,22.333L125.378,22.333L126.347,22.333L127.367,22.333L128.251,22.333L129.197,22.333L131.113,22.333L131.605,22.333L132.071,22.333L133.083,22.333L133.981,22.333L134.934,22.333L136.851,22.333L137.81,22.333L138.827,22.333L139.722,22.333L140.674,22.333L142.601,22.333L143.577,22.333L144.601,22.333L145.483,22.333L146.423,22.333L148.339,22.333L149.315,22.333L150.374,22.333L151.227,22.333L152.157,22.333L154.071,22.333L155.05,22.333L156.067,22.333L156.958,22.333L157.899,22.333L159.819,22.333L160.788,22.333L161.805,22.333L162.687,22.333L163.635,22.333L165.554,22.333L166.526,22.333L167.543,22.333L168.429,22.333L169.374,22.333L171.291,22.333L172.252,22.333L173.266,22.333L174.159,22.333L175.115,22.333L177.033,22.333L177.993,22.333L179.002,22.333L179.897,22.333L180.855,22.333L182.783,22.333L183.75,22.333L184.777,22.333L185.663,22.333L186.602,22.333L188.518,22.333L189.496,22.333L190.515,22.333L191.399,22.333L192.34,22.333L194.26,22.333L195.231,22.333L196.256,22.333L197.14,22.333L198.08,22.333L200,22.333" stroke="#f58518" stroke-width="2"/></g></g><path class="foreground" aria-hidden="true" d="" display="none"/></g><g transform="translate(0,0)"><path class="background" aria-hidden="true" d="M0,0h200v200h-200Z"/><g><g class="mark-line role-mark marks" role="graphics-object" aria-roledescription="line mark container"><path aria-label="Time: Aug 31, 2025; Price: 1599; identifier: silex-400-warm-slate-grey-2026" role="graphics-symbol" aria-roledescription="line mark" d="M97.288,22.333L97.633,22.333L98.653,22.333L99.549,22.333L100.495,22.333L102.434,22.333L103.399,22.333L104.417,22.333L105.297,22.333L106.234,22.333L108.165,22.333L109.135,22.333L110.161,22.333L111.04,22.333L111.978,22.333L113.897,22.333L114.866,22.333L115.889,22.333L116.777,22.333L117.716,22.333L119.636,22.333L120.609,22.333L121.624,22.333L122.522,22.333L123.456,22.333L125.379,22.333L126.347,22.333L127.367,22.333L128.251,22.333L129.197,22.333L131.113,22.333L131.605,22.333L132.071,22.333L133.084,22.333L133.982,22.333L134.934,22.333L136.851,22.333L137.81,22.333L138.827,22.333L139.722,22.333L140.674,22.333L142.601,22.333L143.578,22.333L144.601,22.333L145.483,22.333L146.423,22.333L148.339,22.333L149.315,22.333L150.374,22.333L151.227,22.333L152.157,22.333L154.071,22.333L155.05,22.333L156.068,22.333L156.958,22.333L157.9,22.333L159.819,22.333L160.788,22.333L161.805,22.333L162.687,22.333L163.635,22.333L165.555,22.333L166.526,22.333L167.543,22.333L168.43,22.333L169.374,22.333L171.291,22.333L172.252,22.333L173.266,22.333L174.159,22.333L175.115,22.333L177.034,22.333L177.993,22.333L179.002,22.333L179.897,22.333L180.856,22.333L182.783,22.333L183.751,22.333L184.777,22.333L185.663,22.333L186.602,22.333L188.519,22.333L189.496,22.333L190.515,22.333L191.399,22.333L192.341,22.333L194.261,22.333L195.231,22.333L196.256,22.333L197.14,22.333L198.08,22.333L200,22.333" stroke="#e45756" stroke-width="2"/></g></g><path class="foreground" aria-hidden="true" d="" display="none"/></g></g><g class="mark-group role-legend" role="graphics-symbol" aria-roledescription="legend" aria-label="Symbol legend titled 'identifier' for stroke color with 16 values: devote-1-2022, silex-400-oak-bork-2026, silex-400-warm-slate-grey-2026, devote-1-2024, fastroad-ar-2, ending with allure-rs-2-2024"><g transform="translate(220,0)"><path class="background" aria-hidden="true" d="M0,0h256v222h-256Z" pointer-events="none"/><g><g class="mark-group role-legend-entry"><g transform="translate(0,16)"><path class="background" aria-hidden="true" d="M0,0h0v0h0Z" pointer-events="none"/><g><g class="mark-group role-scope" role="graphics-object" aria-roledescription="group mark container"><g transform="translate(0,0)"><path class="background" aria-hidden="true" d="M0,0h256v11h-256Z" pointer-events="none" opacity="1"/><g><g class="mark-symbol role-legend-symbol" pointer-events="none"><path transform="translate(6,6)" d="M-5,0L5,0" stroke="#4c78a8" stroke-width="1.5" opacity="1"/></g><g class="mark-text role-legend-label" pointer-events="none"><text text-anchor="start" transform="translate(16,9)" font-family="Liberation Mono" font-size="10px" fill="#000" opacity="1">devote-1-2022</text></g></g><path class="foreground" aria-hidden="true" d="" pointer-events="none" display="none"/></g><g transform="translate(0,13)"><path class="background" aria-hidden="true" d="M0,0h256v11h-256Z" pointer-events="none" opacity="1"/><g><g class="mark-symbol role-legend-symbol" pointer-events="none"><path transform="translate(6,6)" d="M-5,0L5,0" stroke="#f58518" stroke-width="1.5" opacity="1"/></g><g class="mark-text role-legend-label" pointer-events="none"><text text-anchor="start" transform="translate(16,9)" font-family="Liberation Mono" font-size="10px" fill="#000" opacity="1">silex-400-oak-bork-2026</text></g></g><path class="foreground" aria-hidden="true" d="" pointer-events="none" display="none"/></g><g transform="translate(0,26)"><path class="background" aria-hidden="true" d="M0,0h256v11h-256Z" pointer-events="none" opacity="1"/><g><g class="mark-symbol role-legend-symbol" pointer-events="none"><path transform="translate(6,6)" d="M-5,0L5,0" stroke="#e45756" stroke-width="1.5" opacity="1"/></g><g class="mark-text role-legend-label" pointer-events="none"><text text-anchor="start" transform="translate(16,9)" font-family="Liberation Mono" font-size="10px" fill="#000" opacity="1">silex-400-warm-slate-grey-2026</text></g></g><path class="foreground" aria-hidden="true" d="" pointer-events="none" display="none"/></g><g transform="translate(0,39)"><path class="background" aria-hidden="true" d="M0,0h256v11h-256Z" pointer-events="none" opacity="1"/><g><g class="mark-symbol role-legend-symbol" pointer-events="none"><path transform="translate(6,6)" d="M-5,0L5,0" stroke="#72b7b2" stroke-width="1.5" opacity="1"/></g><g class="mark-text role-legend-label" pointer-events="none"><text text-anchor="start" transform="translate(16,9)" font-family="Liberation Mono" font-size="10px" fill="#000" opacity="1">devote-1-2024</text></g></g><path class="foreground" aria-hidden="true" d="" pointer-events="none" display="none"/></g><g transform="translate(0,52)"><path class="background" aria-hidden="true" d="M0,0h256v11h-256Z" pointer-events="none" opacity="1"/><g><g class="mark-symbol role-legend-symbol" pointer-events="none"><path transform="translate(6,6)" d="M-5,0L5,0" stroke="#54a24b" stroke-width="1.5" opacity="1"/></g><g class="mark-text role-legend-label" pointer-events="none"><text text-anchor="start" transform="translate(16,9)" font-family="Liberation Mono" font-size="10px" fill="#000" opacity="1">fastroad-ar-2</text></g></g><path class="foreground" aria-hidden="true" d="" pointer-events="none" display="none"/></g><g transform="translate(0,65)"><path class="background" aria-hidden="true" d="M0,0h256v11h-256Z" pointer-events="none" opacity="1"/><g><g class="mark-symbol role-legend-symbol" pointer-events="none"><path transform="translate(6,6)" d="M-5,0L5,0" stroke="#eeca3b" stroke-width="1.5" opacity="1"/></g><g class="mark-text role-legend-label" pointer-events="none"><text text-anchor="start" transform="translate(16,9)" font-family="Liberation Mono" font-size="10px" fill="#000" opacity="1">thrive-2</text></g></g><path class="foreground" aria-hidden="true" d="" pointer-events="none" display="none"/></g><g transform="translate(0,78)"><path class="background" aria-hidden="true" d="M0,0h256v11h-256Z" pointer-events="none" opacity="1"/><g><g class="mark-symbol role-legend-symbol" pointer-events="none"><path transform="translate(6,6)" d="M-5,0L5,0" stroke="#b279a2" stroke-width="1.5" opacity="1"/></g><g class="mark-text role-legend-label" pointer-events="none"><text text-anchor="start" transform="translate(16,9)" font-family="Liberation Mono" font-size="10px" fill="#000" opacity="1">allure-rs-1-2023</text></g></g><path class="foreground" aria-hidden="true" d="" pointer-events="none" display="none"/></g><g transform="translate(0,91)"><path class="background" aria-hidden="true" d="M0,0h256v11h-256Z" pointer-events="none" opacity="1"/><g><g class="mark-symbol role-legend-symbol" pointer-events="none"><path transform="translate(6,6)" d="M-5,0L5,0" stroke="#ff9da6" stroke-width="1.5" opacity="1"/></g><g class="mark-text role-legend-label" pointer-events="none"><text text-anchor="start" transform="translate(16,9)" font-family="Liberation Mono" font-size="10px" fill="#000" opacity="1">roam-2</text></g></g><path class="foreground" aria-hidden="true" d="" pointer-events="none" display="none"/></g><g transform="translate(0,104)"><path class="background" aria-hidden="true" d="M0,0h256v11h-256Z" pointer-events="none" opacity="1"/><g><g class="mark-symbol role-legend-symbol" pointer-events="none"><path transform="translate(6,6)" d="M-5,0L5,0" stroke="#9d755d" stroke-width="1.5" opacity="1"/></g><g class="mark-text role-legend-label" pointer-events="none"><text text-anchor="start" transform="translate(16,9)" font-family="Liberation Mono" font-size="10px" fill="#000" opacity="1">fastroad-sl-3-2022</text></g></g><path class="foreground" aria-hidden="true" d="" pointer-events="none" display="none"/></g><g transform="translate(0,117)"><path class="background" aria-hidden="true" d="M0,0h256v11h-256Z" pointer-events="none" opacity="1"/><g><g class="mark-symbol role-legend-symbol" pointer-events="none"><path transform="translate(6,6)" d="M-5,0L5,0" stroke="#bab0ac" stroke-width="1.5" opacity="1"/></g><g class="mark-text role-legend-label" pointer-events="none"><text text-anchor="start" transform="translate(16,9)" font-family="Liberation Mono" font-size="10px" fill="#000" opacity="1">allure-rs-2-2023</text></g></g><path class="foreground" aria-hidden="true" d="" pointer-events="none" display="none"/></g><g transform="translate(0,130)"><path class="background" aria-hidden="true" d="M0,0h256v11h-256Z" pointer-events="none" opacity="1"/><g><g class="mark-symbol role-legend-symbol" pointer-events="none"><path transform="translate(6,6)" d="M-5,0L5,0" stroke="#4c78a8" stroke-width="1.5" opacity="1"/></g><g class="mark-text role-legend-label" pointer-events="none"><text text-anchor="start" transform="translate(16,9)" font-family="Liberation Mono" font-size="10px" fill="#000" opacity="1">escape-city-disc-1-2024</text></g></g><path class="foreground" aria-hidden="true" d="" pointer-events="none" display="none"/></g><g transform="translate(0,143)"><path class="background" aria-hidden="true" d="M0,0h256v11h-256Z" pointer-events="none" opacity="1"/><g><g class="mark-symbol role-legend-symbol" pointer-events="none"><path transform="translate(6,6)" d="M-5,0L5,0" stroke="#f58518" stroke-width="1.5" opacity="1"/></g><g class="mark-text role-legend-label" pointer-events="none"><text text-anchor="start" transform="translate(16,9)" font-family="Liberation Mono" font-size="10px" fill="#000" opacity="1">sdrbike-escape-1-city-disc</text></g></g><path class="foreground" aria-hidden="true" d="" pointer-events="none" display="none"/></g><g transform="translate(0,156)"><path class="background" aria-hidden="true" d="M0,0h256v11h-256Z" pointer-events="none" opacity="1"/><g><g class="mark-symbol role-legend-symbol" pointer-events="none"><path transform="translate(6,6)" d="M-5,0L5,0" stroke="#e45756" stroke-width="1.5" opacity="1"/></g><g class="mark-text role-legend-label" pointer-events="none"><text text-anchor="start" transform="translate(16,9)" font-family="Liberation Mono" font-size="10px" fill="#000" opacity="1">roam-disc-2-2024</text></g></g><path class="foreground" aria-hidden="true" d="" pointer-events="none" display="none"/></g><g transform="translate(0,169)"><path class="background" aria-hidden="true" d="M0,0h256v11h-256Z" pointer-events="none" opacity="1"/><g><g class="mark-symbol role-legend-symbol" pointer-events="none"><path transform="translate(6,6)" d="M-5,0L5,0" stroke="#72b7b2" stroke-width="1.5" opacity="1"/></g><g class="mark-text role-legend-label" pointer-events="none"><text text-anchor="start" transform="translate(16,9)" font-family="Liberation Mono" font-size="10px" fill="#000" opacity="1">rove-2</text></g></g><path class="foreground" aria-hidden="true" d="" pointer-events="none" display="none"/></g><g transform="translate(0,182)"><path class="background" aria-hidden="true" d="M0,0h256v11h-256Z" pointer-events="none" opacity="1"/><g><g class="mark-symbol role-legend-symbol" pointer-events="none"><path transform="translate(6,6)" d="M-5,0L5,0" stroke="#54a24b" stroke-width="1.5" opacity="1"/></g><g class="mark-text role-legend-label" pointer-events="none"><text text-anchor="start" transform="translate(16,9)" font-family="Liberation Mono" font-size="10px" fill="#000" opacity="1">allure-rs-2-2022</text></g></g><path class="foreground" aria-hidden="true" d="" pointer-events="none" display="none"/></g><g transform="translate(0,195)"><path class="background" aria-hidden="true" d="M0,0h256v11h-256Z" pointer-events="none" opacity="1"/><g><g class="mark-symbol role-legend-symbol" pointer-events="none"><path transform="translate(6,6)" d="M-5,0L5,0" stroke="#eeca3b" stroke-width="1.5" opacity="1"/></g><g class="mark-text role-legend-label" pointer-events="none"><text text-anchor="start" transform="translate(16,9)" font-family="Liberation Mono" font-size="10px" fill="#000" opacity="1">allure-rs-2-2024</text></g></g><path class="foreground" aria-hidden="true" d="" pointer-events="none" display="none"/></g></g></g><path class="foreground" aria-hidden="true" d="" pointer-events="none" display="none"/></g></g><g class="mark-text role-legend-title" pointer-events="none"><text text-anchor="start" transform="translate(0,9)" font-family="Liberation Mono" font-size="11px" font-weight="bold" fill="#000" opacity="1">identifier</text></g></g><path class="foreground" aria-hidden="true" d="" pointer-events="none" display="none"/></g></g></g><path class="foreground" aria-hidden="true" d="" display="none"/></g></g></g></svg>