<svg xmlns="http://www.w3.org/2000/svg" xmlns:xlink="http://www.w3.org/1999/xlink" version="1.1" class="marks" width="548" height="244" viewBox="0 0 548 244"><rect width="548" height="244" fill="white"/><g fill="none" stroke-miterlimit="10" transform="translate(67,7)"><g class="mark-group role-frame root" role="graphics-object" aria-roledescription="group mark container"><g transform="translate(0,0)"><path class="background" aria-hidden="true" d="M0.5,0.5h200v200h-200Z" stroke="#ddd"/><g><g class="mark-group role-axis" aria-hidden="true"><g transform="translate(0.5,200.5)"><path class="background" aria-hidden="true" d="M0,0h0v0h0Z" pointer-events="none"/><g><g class="mark-rule role-axis-grid" pointer-events="none"><line transform="translate(16,-200)" x2="0" y2="200" stroke="#ddd" stroke-width="1" opacity="1"/><line transform="translate(60,-200)" x2="0" y2="200" stroke="#ddd" stroke-width="1" opacity="1"/><line transform="translate(103,-200)" x2="0" y2="200" stroke="#ddd" stroke-width="1" opacity="1"/><line transform="translate(147,-200)" x2="0" y2="200" stroke="#ddd" stroke-width="1" opacity="1"/><line transform="translate(190,-200)" x2="0" y2="200" stroke="#ddd" stroke-width="1" opacity="1"/></g></g><path class="foreground" aria-hidden="true" d="" pointer-events="none" display="none"/></g></g><g class="mark-group role-axis" aria-hidden="true"><g transform="translate(0.5,0.5)"><path class="background" aria-hidden="true" d="M0,0h0v0h0Z" pointer-events="none"/><g><g class="mark-rule role-axis-grid" pointer-events="none"><line transform="translate(0,200)" x2="200" y2="0" stroke="#ddd" stroke-width="1" opacity="1"/><line transform="translate(0,144)" x2="200" y2="0" stroke="#ddd" stroke-width="1" opacity="1"/><line transform="translate(0,89)" x2="200" y2="0" stroke="#ddd" stroke-width="1" opacity="1"/><line transform="translate(0,33)" x2="200" y2="0" stroke="#ddd" stroke-width="1" opacity="1"/></g></g><path class="foreground" aria-hidden="true" d="" pointer-events="none" display="none"/></g></g><g class="mark-group role-axis" role="graphics-symbol" aria-roledescription="axis" aria-label="X-axis titled 'Time' for a time scale with values from Thursday, 14 August 2025, 8:34:48 AM to Monday, 15 September 2025, 1:08:31 PM"><g transform="translate(0.5,200.5)"><path class="background" aria-hidden="true" d="M0,0h0v0h0Z" pointer-events="none"/><g><g class="mark-rule role-axis-tick" pointer-events="none"><line transform="translate(16,0)" x2="0" y2="5" stroke="#888" stroke-width="1" opacity="1"/><line transform="translate(60,0)" x2="0" y2="5" stroke="#888" stroke-width="1" opacity="1"/><line transform="translate(103,0)" x2="0" y2="5" stroke="#888" stroke-width="1" opacity="1"/><line transform="translate(147,0)" x2="0" y2="5" stroke="#888" stroke-width="1" opacity="1"/><line transform="translate(190,0)" x2="0" y2="5" stroke="#888" stroke-width="1" opacity="1"/></g><g class="mark-text role-axis-label" pointer-events="none"><text text-anchor="middle" transform="translate(16.418050626113754,15)" font-family="Liberation Mono" font-size="10px" fill="#000" opacity="1">Aug 17</text><text text-anchor="middle" transform="translate(59.90971928515679,15)" font-family="Liberation Mono" font-size="10px" fill="#000" opacity="0">Aug 24</text><text text-anchor="middle" transform="translate(103.40138794419984,15)" font-family="Liberation Mono" font-size="10px" fill="#000" opacity="1">Aug 31</text><text text-anchor="middle" transform="translate(146.89305660324288,15)" font-family="Liberation Mono" font-size="10px" fill="#000" opacity="0">Sep 07</text><text text-anchor="middle" transform="translate(190.38472526228594,15)" font-family="Liberation Mono" font-size="10px" fill="#000" opacity="1">Sep 14</text></g><g class="mark-rule role-axis-domain" pointer-events="none"><line transform="translate(0,0)" x2="200" y2="0" stroke="#888" stroke-width="1" opacity="1"/></g><g class="mark-text role-axis-title" pointer-events="none"><text text-anchor="middle" transform="translate(100,30)" font-family="Liberation Mono" font-size="11px" font-weight="bold" fill="#000" opacity="1">Time</text></g></g><path class="foreground" aria-hidden="true" d="" pointer-events="none" display="none"/></g></g><g class="mark-group role-axis" role="graphics-symbol" aria-roledescription="axis" aria-label="Y-axis titled 'Price' for a linear scale with values from 0 to 1,800"><g transform="translate(0.5,0.5)"><path class="background" aria-hidden="true" d="M0,0h0v0h0Z" pointer-events="none"/><g><g class="mark-rule role-axis-tick" pointer-events="none"><line transform="translate(0,200)" x2="-5" y2="0" stroke="#888" stroke-width="1" opacity="1"/><line transform="translate(0,144)" x2="-5" y2="0" stroke="#888" stroke-width="1" opacity="1"/><line transform="translate(0,89)" x2="-5" y2="0" stroke="#888" stroke-width="1" opacity="1"/><line transform="translate(0,33)" x2="-5" y2="0" stroke="#888" stroke-width="1" opacity="1"/></g><g class="mark-text role-axis-label" pointer-events="none"><text text-anchor="end" transform="translate(-7,203)" font-family="Liberation Mono" font-size="10px" fill="#000" opacity="1">0</text><text text-anchor="end" transform="translate(-7,147.44444444444443)" font-family="Liberation Mono" font-size="10px" fill="#000" opacity="1">500</text><text text-anchor="end" transform="translate(-7,91.88888888888889)" font-family="Liberation Mono" font-size="10px" fill="#000" opacity="1">1,000</text><text text-anchor="end" transform="translate(-7,36.33333333333333)" font-family="Liberation Mono" font-size="10px" fill="#000" opacity="1">1,500</text></g><g class="mark-rule role-axis-domain" pointer-events="none"><line transform="translate(0,200)" x2="0" y2="-200" stroke="#888" stroke-width="1" opacity="1"/></g><g class="mark-text role-axis-title" pointer-events="none"><text text-anchor="middle" transform="translate(-51,100) rotate(-90) translate(0,-2)" font-family="Liberation Mono" font-size="11px" font-weight="bold" fill="#000" opacity="1">Price</text></g></g><path class="foreground" aria-hidden="true" d="" pointer-events="none" display="none"/></g></g><g class="mark-group role-scope pathgroup" role="graphics-object" aria-roledescription="group mark container"><g transform="translate(0,0)"><path class="background" aria-hidden="true" d="M0,0h200v200h-200Z"/><g><g class="mark-line role-mark marks" role="graphics-object" aria-roledescription="line mark container"><path aria-label="Time: Aug 14, 2025; Price: 899; identifier: escape-city-disc-1-2024" role="graphics-symbol" aria-roledescription="line mark" d="M0,100.111L0.052,100.111L0.092,100.111L1.238,100.111L2.148,100.111L3.17,100.111L5.265,100.111L6.294,100.111L7.43,100.111L8.362,100.111L9.379,100.111L11.458,100.111L12.499,100.111L13.602,100.111L14.563,100.111L15.582,100.111L17.695,100.111L18.71,100.111L19.818,100.111L20.781,100.111L21.803,100.111L23.926,100.111L24.946,100.111L26.091,100.111L26.492,100.111L27.014,100.111L28.01,100.111L30.092,100.111L31.143,100.111L32.247,100.111L33.211,100.111L34.221,100.111L36.307,100.111L37.349,100.111L38.497,100.111L38.962,100.111L39.422,100.111L40.441,100.111L42.516,100.111L43.566,100.111L44.675,100.111L45.639,100.111L46.651,100.111L48.731,100.111L49.778,100.111L50.885,100.111L51.846,100.111L52.861,100.111L54.94,100.111L55.981,100.111L57.079,100.111L58.042,100.111L59.068,100.111L61.16,100.111L62.19,100.111L63.296,100.111L64.263,100.111L65.283,100.111L67.382,100.111L68.431,100.111L69.564,100.111L70.492,100.111L71.503,100.111L73.585,100.111L74.64,100.111L76.699,100.111L77.71,100.111L79.79,100.111L80.84,100.111L81.247,100.111L81.947,100.111L82.64,100.111L82.911,100.111L83.927,100.111L86.002,100.111L87.056,100.111L88.163,100.111L89.123,100.111L90.138,100.111L92.216,100.111L93.265,100.111L94.368,100.111L95.334,100.111L96.348,100.111L98.422,100.111L99.463,100.111L100.562,100.111L101.532,100.111L102.508,100.111L102.557,100.111L104.638,100.111L105.301,100.111L105.673,100.111L106.778,100.111L107.748,100.111L108.772,100.111L110.871,100.111L111.915,100.111L113.017,100.111L113.969,100.111L114.984,100.111L117.074,100.111L118.124,100.111L119.234,100.111L120.186,100.111L121.201,100.111L123.279,100.111L124.327,100.111L125.434,100.111L126.396,100.111L127.412,100.111L129.49,100.111L130.543,100.111L131.641,100.111L132.614,100.111L133.624,100.111L135.706,100.111L136.754,100.111L137.858,100.111L138.815,100.111L139.839,100.111L141.912,100.111L142.445,100.111L142.949,100.111L144.045,100.111L145.018,100.111L146.049,100.111L148.123,100.111L149.161,100.111L150.262,100.111L151.231,100.111L152.261,100.111L154.346,100.111L155.404,100.111L156.512,100.111L157.466,100.111L158.484,100.111L160.558,100.111L161.614,100.111L162.76,100.111L163.683,100.111L164.69,100.111L166.762,100.111L167.821,100.111L168.923,100.111L169.887,100.111L170.905,100.111L172.983,100.111L174.032,100.111L175.133,100.111L176.087,100.111L177.113,100.111L179.191,100.111L180.243,100.111L181.343,100.111L182.303,100.111L183.326,100.111L185.401,100.111L186.441,100.111L187.538,100.111L188.505,100.111L189.54,100.111L191.616,100.111L192.654,100.111L193.747,100.111L194.716,100.111L195.753,100.111L197.839,100.111L198.887,100.111L199.997,100.111" stroke="#4c78a8" stroke-width="2"/></g></g><path class="foreground" aria-hidden="true" d="" display="none"/></g><g transform="translate(0,0)"><path class="background" aria-hidden="true" d="M0,0h200v200h-200Z"/><g><g class="mark-line role-mark marks" role="graphics-object" aria-roledescription="line mark container"><path aria-label="Time: Aug 14, 2025; Price: 999; identifier: roam-2" role="graphics-symbol" aria-roledescription="line mark" d="M0,89L0.052,89L0.092,89L1.238,89L2.148,89L3.17,89L5.265,89L6.294,89L7.431,89L8.362,89L9.379,89L11.458,89L12.5,89L13.602,89L14.564,89L15.592,89L17.695,89L18.71,89L19.818,89L20.781,89L21.803,89L23.926,89L24.946,89L26.091,89L26.493,89L27.014,89L28.011,89L30.092,89L31.144,89L32.247,89L33.211,89L34.221,89L36.307,89L37.349,89L38.497,89L38.962,89L39.422,89L40.442,89L42.517,89L43.567,89L44.675,89L45.639,89L46.652,89L48.731,89L49.778,89L50.886,89L51.846,89L52.861,89L54.94,89L55.981,89L57.08,89L58.043,89L59.068,89L61.16,89L62.19,89L63.296,89L64.263,89L65.283,89L67.382,89L68.431,89L69.564,89L70.492,89L71.504,89L73.585,89L74.64,89L76.699,89L77.71,89L79.791,89L80.84,89L81.248,89L81.947,89L82.64,89L82.911,89L83.928,89L86.003,89L87.056,89L88.163,89L89.123,89L90.138,89L92.216,89L93.265,89L94.369,89L95.334,89L96.348,89L98.422,89L99.463,89L100.562,89L101.532,89L102.509,89L102.557,89L104.638,89L105.302,89L105.674,89L106.779,89L107.748,89L108.773,89L110.871,89L111.915,89L113.018,89L113.969,89L114.984,89L117.074,89L118.124,89L119.235,89L120.186,89L121.201,89L123.279,89L124.328,89L125.434,89L126.396,89L127.412,89L129.49,89L130.543,89L131.642,89L132.614,89L133.624,89L135.706,89L136.755,89L137.858,89L138.815,89L139.839,89L141.913,89L142.445,89L142.949,89L144.045,89L145.018,89L146.049,89L148.124,89L149.161,89L150.262,89L151.232,89L152.262,89L154.348,89L155.404,89L156.512,89L157.467,89L158.484,89L160.558,89L161.615,89L162.76,89L163.684,89L164.69,89L166.762,89L167.822,89L168.923,89L169.887,89L170.906,89L172.983,89L174.032,89L175.134,89L176.088,89L177.114,89L179.192,89L180.243,89L181.344,89L182.304,89L183.326,89L185.401,89L186.441,89L187.538,89L188.505,89L189.54,89L191.616,89L192.655,89L193.747,89L194.716,89L195.753,89L197.84,89L198.887,89L199.998,89" stroke="#ff9da6" stroke-width="2"/></g></g><path class="foreground" aria-hidden="true" d="" display="none"/></g><g transform="translate(0,0)"><path class="background" aria-hidden="true" d="M0,0h200v200h-200Z"/><g><g class="mark-line role-mark marks" role="graphics-object" aria-roledescription="line mark container"><path aria-label="Time: Aug 14, 2025; Price: 999; identifier: fastroad-sl-3-2022" role="graphics-symbol" aria-roledescription="line mark" d="M0,89L0.052,89L0.093,89L1.238,89L2.149,89L3.17,89L5.265,89L6.294,89L7.431,89L8.363,89L9.379,89L11.459,89L12.5,89L13.603,89L14.564,89L15.592,89L17.695,89L18.711,89L19.819,89L20.781,89L21.804,89L23.926,89L24.946,89L26.091,89L26.493,89L27.014,89L28.011,89L30.092,89L31.144,89L32.247,89L33.211,89L34.222,89L36.307,89L37.349,89L38.497,89L38.962,89L39.422,89L40.442,89L42.517,89L43.567,89L44.675,89L45.639,89L46.652,89L48.731,89L49.778,89L50.886,89L51.846,89L52.861,89L54.94,89L55.981,89L57.08,89L58.043,89L59.068,89L61.161,89L62.19,89L63.296,89L64.263,89L65.283,89L67.382,89L68.431,89L69.564,89L70.492,89L71.504,89L73.585,89L74.64,89L76.699,89L77.71,89L79.791,89L80.841,89L81.248,89L81.947,89L82.64,89L82.911,89L83.928,89L86.003,89L87.056,89L88.163,89L89.123,89L90.139,89L92.216,89L93.265,89L94.369,89L95.334,89L96.348,89L98.422,89L99.463,89L100.563,89L101.532,89L102.509,89L102.557,89L104.638,89L105.302,89L105.674,89L106.779,89L107.748,89L108.773,89L110.871,89L111.915,89L113.018,89L113.969,89L114.984,89L117.074,89L118.125,89L119.235,89L120.186,89L121.202,89L123.279,89L124.328,89L125.434,89L126.397,89L127.413,89L129.491,89L130.543,89L131.642,89L132.614,89L133.624,89L135.706,89L136.755,89L137.858,89L138.815,89L139.839,89L141.913,89L142.446,89L142.949,89L144.045,89L145.018,89L146.049,89L148.124,89L149.162,89L150.262,89L151.232,89L152.262,89L154.348,89L155.404,89L156.512,89L157.467,89L158.484,89L160.558,89L161.615,89L162.76,89L163.684,89L164.69,89L166.762,89L167.822,89L168.923,89L169.887,89L170.906,89L172.984,89L174.033,89L175.134,89L176.088,89L177.114,89L179.192,89L180.243,89L181.344,89L182.304,89L183.327,89L185.401,89L186.442,89L187.538,89L188.505,89L189.54,89L191.616,89L192.655,89L193.747,89L194.716,89L195.753,89L197.84,89L198.887,89L199.998,89" stroke="#9d755d" stroke-width="2"/></g></g><path class="foreground" aria-hidden="true" d="" display="none"/></g><g transform="translate(0,0)"><path class="background" aria-hidden="true" d="M0,0h200v200h-200Z"/><g><g class="mark-line role-mark marks" role="graphics-object" aria-roledescription="line mark container"><path aria-label="Time: Aug 14, 2025; Price: 1199; identifier: fastroad-ar-2" role="graphics-symbol" aria-roledescription="line mark" d="M0,66.778L0.052,66.778L0.093,66.778L1.238,66.778L2.149,66.778L3.17,66.778L5.266,66.778L6.295,66.778L7.431,66.778L8.363,66.778L9.379,66.778L11.459,66.778L12.5,66.778L13.603,66.778L14.564,66.778L15.597,66.778L17.696,66.778L18.711,66.778L19.819,66.778L20.781,66.778L21.804,66.778L23.926,66.778L24.947,66.778L26.091,66.778L26.493,66.778L27.015,66.778L28.011,66.778L30.092,66.778L31.144,66.778L32.247,66.778L33.211,66.778L34.222,66.778L36.307,66.778L37.349,66.778L38.498,66.778L38.962,66.778L39.422,66.778L40.442,66.778L42.517,66.778L43.567,66.778L44.676,66.778L45.639,66.778L46.652,66.778L48.732,66.778L49.778,66.778L50.886,66.778L51.846,66.778L52.862,66.778L54.94,66.778L55.982,66.778L57.08,66.778L58.043,66.778L59.068,66.778L61.161,66.778L62.191,66.778L63.296,66.778L64.264,66.778L65.283,66.778L67.383,66.778L68.431,66.778L69.565,66.778L70.492,66.778L71.504,66.778L73.586,66.778L74.64,66.778L76.699,66.778L77.71,66.778L79.791,66.778L80.841,66.778L81.249,66.778L81.947,66.778L82.64,66.778L82.912,66.778L83.928,66.778L86.003,66.778L87.056,66.778L88.163,66.778L89.124,66.778L90.139,66.778L92.216,66.778L93.265,66.778L94.369,66.778L95.334,66.778L96.348,66.778L98.422,66.778L99.464,66.778L100.563,66.778L101.532,66.778L102.509,66.778L102.557,66.778L104.638,66.778L105.302,66.778L105.674,66.778L106.779,66.778L107.749,66.778L108.773,66.778L110.871,66.778L111.915,66.778L113.018,66.778L113.969,66.778L114.984,66.778L117.074,66.778L118.125,66.778L119.235,66.778L120.187,66.778L121.202,66.778L123.279,66.778L124.328,66.778L125.434,66.778L126.397,66.778L127.413,66.778L129.491,66.778L130.543,66.778L131.642,66.778L132.614,66.778L133.624,66.778L135.706,66.778L136.755,66.778L137.858,66.778L138.815,66.778L139.84,66.778L141.913,66.778L142.446,66.778L142.949,66.778L144.045,66.778L145.018,66.778L146.049,66.778L148.124,66.778L149.162,66.778L150.262,66.778L151.232,66.778L152.262,66.778L154.348,66.778L155.404,66.778L156.512,66.778L157.467,66.778L158.484,66.778L160.558,66.778L161.615,66.778L162.76,66.778L163.684,66.778L164.69,66.778L166.763,66.778L167.822,66.778L168.923,66.778L169.887,66.778L170.906,66.778L172.984,66.778L174.033,66.778L175.134,66.778L176.088,66.778L177.114,66.778L179.192,66.778L180.243,66.778L181.344,66.778L182.304,66.778L183.327,66.778L185.401,66.778L186.442,66.778L187.539,66.778L188.505,66.778L189.54,66.778L191.617,66.778L192.655,66.778L193.747,66.778L194.717,66.778L195.754,66.778L197.84,66.778L198.887,66.778L199.998,66.778" stroke="#54a24b" stroke-width="2"/></g></g><path class="foreground" aria-hidden="true" d="" display="none"/></g><g transform="translate(0,0)"><path class="background" aria-hidden="true" d="M0,0h200v200h-200Z"/><g><g class="mark-line role-mark marks" role="graphics-object" aria-roledescription="line mark container"><path aria-label="Time: Aug 18, 2025; Price: 899; identifier: sdrbike-escape-1-city-disc" role="graphics-symbol" aria-roledescription="line mark" d="M26.493,100.111L27.015,100.111L28.011,100.111L30.093,100.111L31.144,100.111L32.248,100.111L33.212,100.111L34.222,100.111L36.308,100.111L37.349,100.111L38.498,100.111L38.963,100.111L39.423,100.111L40.442,100.111L42.517,100.111L43.567,100.111L44.676,100.111L45.64,100.111L46.652,100.111L48.732,100.111L49.778,100.111L50.886,100.111L51.846,100.111L52.862,100.111L54.94,100.111L55.982,100.111L57.08,100.111L58.043,100.111L59.069,100.111L61.161,100.111L62.191,100.111L63.297,100.111L64.264,100.111L65.284,100.111L67.383,100.111L68.431,100.111L69.565,100.111L70.493,100.111L71.504,100.111L73.586,100.111L74.64,100.111L76.7,100.111L77.711,100.111L79.791,100.111L80.841,100.111L81.249,100.111L81.948,100.111L82.64,100.111L82.912,100.111L83.928,100.111L86.003,100.111L87.057,100.111L88.163,100.111L89.124,100.111L90.139,100.111L92.217,100.111L93.265,100.111L94.369,100.111L95.334,100.111L96.349,100.111L98.423,100.111L99.464,100.111L100.563,100.111L101.532,100.111L102.509,100.111L102.558,100.111L104.638,100.111L105.302,100.111L105.674,100.111L106.779,100.111L107.749,100.111L108.773,100.111L110.871,100.111L111.916,100.111L113.018,100.111L113.97,100.111L114.985,100.111L117.075,100.111L118.125,100.111L119.235,100.111L120.187,100.111L121.202,100.111L123.279,100.111L124.328,100.111L125.435,100.111L126.397,100.111L127.413,100.111L129.491,100.111L130.543,100.111L131.642,100.111L132.614,100.111L133.625,100.111L135.707,100.111L136.755,100.111L137.859,100.111L138.816,100.111L139.84,100.111L141.913,100.111L142.446,100.111L142.95,100.111L144.046,100.111L145.018,100.111L146.049,100.111L148.124,100.111L149.162,100.111L150.263,100.111L151.232,100.111L152.262,100.111L154.348,100.111L155.404,100.111L156.513,100.111L157.467,100.111L158.485,100.111L160.558,100.111L161.615,100.111L162.761,100.111L163.684,100.111L164.69,100.111L166.763,100.111L167.822,100.111L168.924,100.111L169.887,100.111L170.906,100.111L172.984,100.111L174.033,100.111L175.134,100.111L176.088,100.111L177.114,100.111L179.192,100.111L180.244,100.111L181.344,100.111L182.304,100.111L183.327,100.111L185.402,100.111L186.442,100.111L187.539,100.111L188.505,100.111L189.541,100.111L191.617,100.111L192.655,100.111L193.747,100.111L194.717,100.111L195.754,100.111L197.84,100.111L198.887,100.111L199.998,100.111" stroke="#f58518" stroke-width="2"/></g></g><path class="foreground" aria-hidden="true" d="" display="none"/></g><g transform="translate(0,0)"><path class="background" aria-hidden="true" d="M0,0h200v200h-200Z"/><g><g class="mark-line role-mark marks" role="graphics-object" aria-roledescription="line mark container"><path aria-label="Time: Aug 20, 2025; Price: 899; identifier: roam-disc-2-2024" role="graphics-symbol" aria-roledescription="line mark" d="M38.962,100.111L39.422,100.111L40.442,100.111L42.516,100.111L43.567,100.111L44.675,100.111L45.639,100.111L46.651,100.111L48.731,100.111L49.778,100.111L50.886,100.111L51.846,100.111L52.861,100.111L54.94,100.111L55.981,100.111L57.079,100.111L58.042,100.111L59.068,100.111L61.16,100.111L62.19,100.111L63.296,100.111L64.263,100.111L65.283,100.111L67.382,100.111L68.431,100.111L69.564,100.111L70.492,100.111L71.503,100.111L73.585,100.111L74.64,100.111L76.699,100.111L77.71,100.111L79.79,100.111L80.84,100.111L81.248,100.111L81.947,100.111L82.64,100.111L82.911,100.111L83.928,100.111L86.002,100.111L87.056,100.111L88.163,100.111L89.123,100.111L90.138,100.111L92.216,100.111L93.265,100.111L94.368,100.111L95.334,100.111L96.348,100.111L98.422,100.111L99.463,100.111L100.562,100.111L101.532,100.111L102.509,100.111L102.557,100.111L104.638,100.111L105.301,100.111L105.673,100.111L106.778,100.111L107.748,100.111L108.772,100.111L110.871,100.111L111.915,100.111L113.017,100.111L113.969,100.111L114.984,100.111L117.074,100.111L118.124,100.111L119.234,100.111L120.186,100.111L121.201,100.111L123.279,100.111L124.327,100.111L125.434,100.111L126.396,100.111L127.412,100.111L129.49,100.111L130.543,100.111L131.641,100.111L132.614,100.111L133.624,100.111L135.706,100.111L136.754,100.111L137.858,100.111L138.815,100.111L139.839,100.111L141.912,100.111L142.445,100.111L142.949,100.111L144.045,100.111L145.018,100.111L146.049,100.111L148.123,100.111L149.161,100.111L150.262,100.111L151.232,100.111L152.262,100.111L154.347,100.111L155.404,100.111L156.512,100.111L157.466,100.111L158.484,100.111L160.558,100.111L161.615,100.111L162.76,100.111L163.683,100.111L164.69,100.111L166.762,100.111L167.821,100.111L168.923,100.111L169.887,100.111L170.906,100.111L172.983,100.111L174.032,100.111L175.133,100.111L176.088,100.111L177.114,100.111L179.192,100.111L180.243,100.111L181.343,100.111L182.304,100.111L183.326,100.111L185.401,100.111L186.441,100.111L187.538,100.111L188.505,100.111L189.54,100.111L191.616,100.111L192.654,100.111L193.747,100.111L194.716,100.111L195.753,100.111L197.839,100.111L198.887,100.111L199.997,100.111" stroke="#e45756" stroke-width="2"/></g></g><path class="foreground" aria-hidden="true" d="" display="none"/></g><g transform="translate(0,0)"><path class="background" aria-hidden="true" d="M0,0h200v200h-200Z"/><g><g class="mark-line role-mark marks" role="graphics-object" aria-roledescription="line mark container"><path aria-label="Time: Aug 20, 2025; Price: 1199; identifier: thrive-2" role="graphics-symbol" aria-roledescription="line mark" d="M38.963,66.778L39.423,66.778L40.443,66.778L42.517,66.778L43.567,66.778L44.676,66.778L45.64,66.778L46.652,66.778L48.732,66.778L49.779,66.778L50.887,66.778L51.846,66.778L52.862,66.778L54.941,66.778L55.982,66.778L57.08,66.778L58.043,66.778L59.069,66.778L61.161,66.778L62.191,66.778L63.297,66.778L64.264,66.778L65.284,66.778L67.383,66.778L68.431,66.778L69.565,66.778L70.493,66.778L71.504,66.778L73.586,66.778L74.641,66.778L76.7,66.778L77.711,66.778L79.791,66.778L80.841,66.778L81.249,66.778L81.948,66.778L82.641,66.778L82.912,66.778L83.928,66.778L86.003,66.778L87.057,66.778L88.164,66.778L89.124,66.778L90.139,66.778L92.217,66.778L93.266,66.778L94.369,66.778L95.334,66.778L96.349,66.778L98.423,66.778L99.464,66.778L100.563,66.778L101.532,66.778L102.509,66.778L102.558,66.778L104.638,66.778L105.302,66.778L105.674,66.778L106.779,66.778L107.749,66.778L108.773,66.778L110.871,66.778L111.916,66.778L113.018,66.778L113.97,66.778L114.985,66.778L117.075,66.778L118.125,66.778L119.235,66.778L120.187,66.778L121.202,66.778L123.28,66.778L124.328,66.778L125.435,66.778L126.397,66.778L127.413,66.778L129.491,66.778L130.544,66.778L131.642,66.778L132.615,66.778L133.625,66.778L135.707,66.778L136.755,66.778L137.859,66.778L138.816,66.778L139.84,66.778L141.913,66.778L142.446,66.778L142.95,66.778L144.046,66.778L145.019,66.778L146.05,66.778L148.124,66.778L149.162,66.778L150.263,66.778L151.232,66.778L152.262,66.778L154.348,66.778L155.405,66.778L156.513,66.778L157.467,66.778L158.485,66.778L160.559,66.778L161.615,66.778L162.761,66.778L163.684,66.778L164.691,66.778L166.763,66.778L167.822,66.778L168.924,66.778L169.888,66.778L170.907,66.778L172.984,66.778L174.033,66.778L175.134,66.778L176.088,66.778L177.114,66.778L179.192,66.778L180.244,66.778L181.344,66.778L182.304,66.778L183.327,66.778L185.402,66.778L186.442,66.778L187.539,66.778L188.506,66.778L189.541,66.778L191.617,66.778L192.655,66.778L193.748,66.778L194.717,66.778L195.754,66.778L197.84,66.778L198.888,66.778L199.998,66.778" stroke="#eeca3b" stroke-width="2"/></g></g><path class="foreground" aria-hidden="true" d="" display="none"/></g><g transform="translate(0,0)"><path class="background" aria-hidden="true" d="M0,0h200v200h-200Z"/><g><g class="mark-line role-mark marks" role="graphics-object" aria-roledescription="line mark container"><path aria-label="Time: Aug 20, 2025; Price: 999; identifier: rove-2" role="graphics-symbol" aria-roledescription="line mark" d="M38.963,89L39.423,89L40.443,89L42.517,89L43.567,89L44.676,89L45.64,89L46.652,89L48.732,89L49.779,89L50.887,89L51.846,89L52.862,89L54.941,89L55.982,89L57.08,89L58.043,89L59.069,89L61.161,89L62.191,89L63.297,89L64.264,89L65.284,89L67.383,89L68.431,89L69.565,89L70.493,89L71.504,89L73.587,89L74.641,89L76.7,89L77.711,89L79.791,89L80.841,89L81.25,89L81.948,89L82.641,89L82.912,89L83.929,89L86.003,89L87.057,89L88.164,89L89.124,89L90.139,89L92.217,89L93.266,89L94.369,89L95.335,89L96.349,89L102.51,111.222L102.558,111.222L104.639,111.222L105.302,111.222L105.675,111.222L106.779,111.222L107.749,111.222L108.773,111.222L110.872,111.222L111.916,111.222L113.018,111.222L113.97,111.222L114.985,111.222L117.075,111.222L118.125,111.222L119.236,111.222L120.187,111.222L121.202,111.222L123.28,111.222L124.328,111.222L125.435,111.222L126.397,111.222L127.413,111.222L129.491,111.222L130.544,111.222L131.642,111.222L132.615,111.222L133.625,111.222L135.707,111.222L136.755,111.222L137.859,111.222L138.816,111.222L139.84,111.222L141.913,111.222L142.446,111.222L142.95,111.222L144.046,111.222L145.019,111.222L146.05,111.222L148.124,111.222L149.162,111.222L150.263,111.222L151.232,111.222L152.262,111.222L154.348,111.222L155.405,111.222L156.513,111.222L157.467,111.222L158.485,111.222L160.559,111.222L161.615,111.222L162.761,111.222L163.684,111.222L164.691,111.222L166.763,111.222L167.822,111.222L168.924,111.222L169.888,111.222L170.907,111.222L172.984,111.222L174.033,111.222L175.134,111.222L176.089,111.222L177.114,111.222L179.193,111.222L180.244,111.222L181.344,111.222L182.304,111.222L183.327,111.222L185.402,111.222L186.442,111.222L187.539,111.222L188.506,111.222L189.541,111.222L191.617,111.222L192.655,111.222L193.748,111.222L194.717,111.222L195.754,111.222L197.84,111.222L198.888,111.222L199.998,111.222" stroke="#72b7b2" stroke-width="2"/></g></g><path class="foreground" aria-hidden="true" d="" display="none"/></g><g transform="translate(0,0)"><path class="background" aria-hidden="true" d="M0,0h200v200h-200Z"/><g><g class="mark-line role-mark marks" role="graphics-object" aria-roledescription="line mark container"><path aria-label="Time: Aug 27, 2025; Price: 1199; identifier: allure-rs-1-2023" role="graphics-symbol" aria-roledescription="line mark" d="M81.25,66.778L81.948,66.778L82.641,66.778L82.912,66.778L83.929,66.778L86.004,66.778L87.057,66.778L88.164,66.778L89.124,66.778L90.139,66.778L92.217,66.778L93.266,66.778L94.37,66.778L95.335,66.778L96.349,66.778L98.423,66.778L99.464,66.778L100.564,66.778L101.533,66.778L102.51,66.778L102.558,66.778L104.639,66.778L105.302,66.778L105.675,66.778L106.78,66.778L107.749,66.778L108.773,66.778L110.872,66.778L111.916,66.778L113.019,66.778L113.97,66.778L114.985,66.778L117.075,66.778L118.125,66.778L119.236,66.778L120.187,66.778L121.202,66.778L123.28,66.778L124.328,66.778L125.435,66.778L126.397,66.778L127.413,66.778L129.491,66.778L130.544,66.778L131.642,66.778L132.615,66.778L133.625,66.778L135.707,66.778L136.755,66.778L137.859,66.778L138.816,66.778L139.84,66.778L141.913,66.778L142.446,66.778L142.95,66.778L144.046,66.778L145.019,66.778L146.05,66.778L148.124,66.778L149.162,66.778L150.263,66.778L151.232,66.778L152.263,66.778L154.348,66.778L155.405,66.778L156.513,66.778L157.468,66.778L158.485,66.778L160.559,66.778L161.615,66.778L162.761,66.778L163.685,66.778L164.691,66.778L166.763,66.778L167.823,66.778L168.924,66.778L169.888,66.778L170.907,66.778L172.985,66.778L174.033,66.778L175.134,66.778L176.089,66.778L177.115,66.778L179.193,66.778L180.244,66.778L181.345,66.778L182.305,66.778L183.327,66.778L185.402,66.778L186.442,66.778L187.539,66.778L188.506,66.778L189.541,66.778L191.617,66.778L192.656,66.778L193.748,66.778L194.717,66.778L195.754,66.778L197.841,66.778L198.888,66.778L199.999,66.778" stroke="#b279a2" stroke-width="2"/></g></g><path class="foreground" aria-hidden="true" d="" display="none"/></g><g transform="translate(0,0)"><path class="background" aria-hidden="true" d="M0,0h200v200h-200Z"/><g><g class="mark-line role-mark marks" role="graphics-object" aria-roledescription="line mark container"><path aria-label="Time: Aug 27, 2025; Price: 999; identifier: allure-rs-2-2022" role="graphics-symbol" aria-roledescription="line mark" d="M81.251,89L81.948,89L82.641,89L82.912,89L83.929,89L86.004,89L87.057,89L88.164,89L89.124,89L90.139,89L92.217,89L93.266,89L94.37,89L95.335,89L96.349,89L102.51,111.222L102.558,111.222L104.639,111.222L105.302,111.222L105.675,111.222L106.78,111.222L107.749,111.222L108.773,111.222L110.872,111.222L111.916,111.222L113.019,111.222L113.97,111.222L114.985,111.222L117.075,111.222L118.125,111.222L119.236,111.222L120.187,111.222L121.203,111.222L123.28,111.222L124.328,111.222L125.435,111.222L126.397,111.222L127.413,111.222L129.492,111.222L130.544,111.222L131.643,111.222L132.615,111.222L133.625,111.222L135.707,111.222L136.756,111.222L137.859,111.222L138.816,111.222L139.84,111.222L141.913,111.222L142.446,111.222L142.95,111.222L144.046,111.222L145.019,111.222L146.05,111.222L148.125,111.222L149.163,111.222L150.263,111.222L151.233,111.222L152.263,111.222L154.349,111.222L155.405,111.222L156.513,111.222L157.468,111.222L158.485,111.222L160.559,111.222L161.616,111.222L162.761,111.222L163.685,111.222L164.691,111.222L166.763,111.222L167.823,111.222L168.924,111.222L169.888,111.222L170.907,111.222L172.985,111.222L174.034,111.222L175.135,111.222L176.089,111.222L177.115,111.222L179.193,111.222L180.244,111.222L181.345,111.222L182.305,111.222L183.327,111.222L185.402,111.222L186.442,111.222L187.539,111.222L188.506,111.222L189.541,111.222L191.618,111.222L192.656,111.222L193.748,111.222L194.717,111.222L195.754,111.222L197.841,111.222L198.888,111.222L199.999,111.222" stroke="#54a24b" stroke-width="2"/></g></g><path class="foreground" aria-hidden="true" d="" display="none"/></g><g transform="translate(0,0)"><path class="background" aria-hidden="true" d="M0,0h200v200h-200Z"/><g><g class="mark-line role-mark marks" role="graphics-object" aria-roledescription="line mark container"><path aria-label="Time: Aug 27, 2025; Price: 949; identifier: allure-rs-2-2023" role="graphics-symbol" aria-roledescription="line mark" d="M81.251,94.556L81.948,94.556L82.641,94.556L82.912,94.556L83.929,94.556L86.004,94.556L87.057,94.556L88.164,94.556L89.124,94.556L90.139,94.556L92.217,94.556L93.266,94.556L94.37,94.556L95.335,94.556L96.349,94.556L98.423,94.556L99.465,94.556L100.564,94.556L101.533,94.556L102.51,94.556L102.558,94.556L104.639,94.556L105.302,94.556L105.675,94.556L106.78,94.556L107.749,94.556L108.774,94.556L110.872,94.556L111.916,94.556L113.019,94.556L113.971,94.556L114.986,94.556L117.075,94.556L118.126,94.556L119.236,94.556L120.187,94.556L121.203,94.556L123.28,94.556L124.329,94.556L125.435,94.556L126.397,94.556L127.414,94.556L129.492,94.556L130.544,94.556L131.643,94.556L132.615,94.556L133.625,94.556L135.707,94.556L136.756,94.556L137.859,94.556L138.816,94.556L139.84,94.556L141.914,94.556L142.446,94.556L142.951,94.556L144.046,94.556L145.019,94.556L146.05,94.556L148.125,94.556L149.163,94.556L150.263,94.556L151.233,94.556L152.263,94.556L154.349,94.556L155.405,94.556L156.513,94.556L157.468,94.556L158.485,94.556L160.559,94.556L161.616,94.556L162.762,94.556L163.685,94.556L164.691,94.556L166.764,94.556L167.823,94.556L168.924,94.556L169.888,94.556L170.907,94.556L172.985,94.556L174.034,94.556L175.135,94.556L176.089,94.556L177.115,94.556L179.193,94.556L180.245,94.556L181.345,94.556L182.305,94.556L183.328,94.556L185.402,94.556L186.442,94.556L187.54,94.556L188.506,94.556L189.541,94.556L191.618,94.556L192.656,94.556L193.748,94.556L194.717,94.556L195.754,94.556L197.841,94.556L198.888,94.556L199.999,94.556" stroke="#bab0ac" stroke-width="2"/></g></g><path class="foreground" aria-hidden="true" d="" display="none"/></g><g transform="translate(0,0)"><path class="background" aria-hidden="true" d="M0,0h200v200h-200Z"/><g><g class="mark-line role-mark marks" role="graphics-object" aria-roledescription="line mark container"><path aria-label="Time: Aug 27, 2025; Price: 999; identifier: allure-rs-2-2024" role="graphics-symbol" aria-roledescription="line mark" d="M81.251,89L81.948,89L82.641,89L82.912,89L83.929,89L86.004,89L87.058,89L88.164,89L89.125,89L90.14,89L92.217,89L93.266,89L94.37,89L95.335,89L96.349,89L102.51,111.222L102.558,111.222L104.639,111.222L105.303,111.222L105.675,111.222L106.78,111.222L107.749,111.222L108.774,111.222L110.872,111.222L111.916,111.222L113.019,111.222L113.971,111.222L114.986,111.222L117.075,111.222L118.126,111.222L119.236,111.222L120.187,111.222L121.203,111.222L123.28,111.222L124.329,111.222L125.435,111.222L126.398,111.222L127.414,111.222L129.492,111.222L130.544,111.222L131.643,111.222L132.615,111.222L133.626,111.222L135.707,111.222L136.756,111.222L137.859,111.222L138.817,111.222L139.841,111.222L141.914,111.222L142.447,111.222L142.951,111.222L144.047,111.222L145.019,111.222L146.05,111.222L148.125,111.222L149.163,111.222L150.263,111.222L151.233,111.222L152.263,111.222L154.349,111.222L155.405,111.222L156.514,111.222L157.468,111.222L158.485,111.222L160.559,111.222L161.616,111.222L162.762,111.222L163.685,111.222L164.691,111.222L166.764,111.222L167.823,111.222L168.924,111.222L169.888,111.222L170.907,111.222L172.985,111.222L174.034,111.222L175.135,111.222L176.089,111.222L177.115,111.222L179.193,111.222L180.245,111.222L181.345,111.222L182.305,111.222L183.328,111.222L185.402,111.222L186.443,111.222L187.54,111.222L188.506,111.222L189.542,111.222L191.618,111.222L192.656,111.222L193.748,111.222L194.717,111.222L195.755,111.222L197.841,111.222L198.888,111.222L199.999,111.222" stroke="#eeca3b" stroke-width="2"/></g></g><path class="foreground" aria-hidden="true" d="" display="none"/></g><g transform="translate(0,0)"><path class="background" aria-hidden="true" d="M0,0h200v200h-200Z"/><g><g class="mark-line role-mark marks" role="graphics-object" aria-roledescription="line mark container"><path aria-label="Time: Aug 27, 2025; Price: 1799; identifier: devote-1-2024" role="graphics-symbol" aria-roledescription="line mark" d="M82.641,0.111L82.913,0.111L83.929,0.111L86.004,0.111L87.058,0.111L88.164,0.111L89.125,0.111L90.14,0.111L92.218,0.111L93.266,0.111L94.37,0.111L95.335,0.111L96.35,0.111L102.51,44.556L102.558,44.556L104.639,44.556L105.303,44.556L105.675,44.556L106.78,44.556L107.75,44.556L108.774,44.556L110.872,44.556L111.917,44.556L113.019,44.556L113.971,44.556L114.986,44.556L117.076,44.556L118.126,44.556L119.236,44.556L120.188,44.556L121.203,44.556L123.28,44.556L124.329,44.556L125.436,44.556L126.398,44.556L127.414,44.556L129.492,44.556L130.544,44.556L131.643,44.556L132.615,44.556L133.626,44.556L135.707,44.556L136.756,44.556L137.859,44.556L138.817,44.556L139.841,44.556L141.914,44.556L142.447,44.556L142.951,44.556L144.047,44.556L145.019,44.556L146.05,44.556L148.125,44.556L149.163,44.556L150.264,44.556L151.233,44.556L152.263,44.556L154.349,44.556L155.406,44.556L156.514,44.556L157.468,44.556L158.485,44.556L160.559,44.556L161.616,44.556L162.762,44.556L163.685,44.556L164.691,44.556L166.764,44.556L167.823,44.556L168.925,44.556L169.888,44.556L170.908,44.556L172.985,44.556L174.034,44.556L175.135,44.556L176.089,44.556L177.115,44.556L179.193,44.556L180.245,44.556L181.346,44.556L182.305,44.556L183.328,44.556L185.402,44.556L186.443,44.556L187.54,44.556L188.506,44.556L189.542,44.556L191.618,44.556L192.656,44.556L193.748,44.556L194.718,44.556L195.755,44.556L197.841,44.556L198.888,44.556L199.999,44.556" stroke="#72b7b2" stroke-width="2"/></g></g><path class="foreground" aria-hidden="true" d="" display="none"/></g><g transform="translate(0,0)"><path class="background" aria-hidden="true" d="M0,0h200v200h-200Z"/><g><g class="mark-line role-mark marks" role="graphics-object" aria-roledescription="line mark container"><path aria-label="Time: Aug 27, 2025; Price: 1699; identifier: devote-1-2022" role="graphics-symbol" aria-roledescription="line mark" d="M82.641,11.222L82.913,11.222L83.929,11.222L86.004,11.222L87.058,11.222L88.165,11.222L89.125,11.222L90.14,11.222L92.218,11.222L93.267,11.222L94.37,11.222L95.335,11.222L96.35,11.222L98.424,11.222L99.465,11.222L100.564,11.222L101.533,11.222L102.511,11.222L102.559,11.222L104.639,11.222L105.303,11.222L105.675,11.222L106.78,11.222L107.75,11.222L108.774,11.222L110.872,11.222L111.917,11.222L113.019,11.222L113.971,11.222L114.986,11.222L117.076,11.222L118.126,11.222L119.237,11.222L120.188,11.222L121.203,11.222L123.28,11.222L124.329,11.222L125.436,11.222L126.398,11.222L127.414,11.222L129.492,11.222L130.545,11.222L131.643,11.222L132.616,11.222L133.626,11.222L135.708,11.222L136.756,11.222L137.86,11.222L138.817,11.222L139.841,11.222L141.914,11.222L142.447,11.222L142.951,11.222L144.047,11.222L145.019,11.222L146.05,11.222L148.125,11.222L149.163,11.222L150.264,11.222L151.233,11.222L152.263,11.222L154.349,11.222L155.406,11.222L156.514,11.222L157.468,11.222L158.486,11.222L160.56,11.222L161.616,11.222L162.762,11.222L163.685,11.222L164.692,11.222L166.764,11.222L167.823,11.222L168.925,11.222L169.889,11.222L170.908,11.222L172.985,11.222L174.034,11.222L175.135,11.222L176.09,11.222L177.115,11.222L179.193,11.222L180.245,11.222L181.346,11.222L182.305,11.222L183.328,11.222L185.403,11.222L186.443,11.222L187.54,11.222L188.507,11.222L189.542,11.222L191.618,11.222L192.656,11.222L193.749,11.222L194.718,11.222L195.755,11.222L197.841,11.222L198.888,11.222L199.999,11.222" stroke="#4c78a8" stroke-width="2"/></g></g><path class="foreground" aria-hidden="true" d="" display="none"/></g><g transform="translate(0,0)"><path class="background" aria-hidden="true" d="M0,0h200v200h-200Z"/><g><g class="mark-line role-mark marks" role="graphics-object" aria-roledescription="line mark container"><path aria-label="Time: Aug 31, 2025; Price: 1599; identifier: silex-400-oak-bork-2026" role="graphics-symbol" aria-roledescription="line mark" d="M105.303,22.333L105.676,22.333L106.781,22.333L107.75,22.333L108.774,22.333L110.873,22.333L111.917,22.333L113.02,22.333L113.971,22.333L114.986,22.333L117.076,22.333L118.126,22.333L119.237,22.333L120.188,22.333L121.204,22.333L123.281,22.333L124.329,22.333L125.436,22.333L126.398,22.333L127.414,22.333L129.492,22.333L130.545,22.333L131.643,22.333L132.616,22.333L133.626,22.333L135.708,22.333L136.756,22.333L137.86,22.333L138.817,22.333L139.841,22.333L141.914,22.333L142.447,22.333L142.951,22.333L144.047,22.333L145.02,22.333L146.051,22.333L148.125,22.333L149.164,22.333L150.264,22.333L151.233,22.333L152.263,22.333L154.349,22.333L155.406,22.333L156.514,22.333L157.468,22.333L158.486,22.333L160.56,22.333L161.616,22.333L162.762,22.333L163.686,22.333L164.692,22.333L166.764,22.333L167.824,22.333L168.925,22.333L169.889,22.333L170.908,22.333L172.986,22.333L174.034,22.333L175.135,22.333L176.09,22.333L177.116,22.333L179.194,22.333L180.245,22.333L181.346,22.333L182.305,22.333L183.328,22.333L185.403,22.333L186.443,22.333L187.54,22.333L188.507,22.333L189.542,22.333L191.618,22.333L192.657,22.333L193.749,22.333L194.718,22.333L195.755,22.333L197.842,22.333L198.889,22.333L200,22.333" stroke="#f58518" stroke-width="2"/></g></g><path class="foreground" aria-hidden="true" d="" display="none"/></g><g transform="translate(0,0)"><path class="background" aria-hidden="true" d="M0,0h200v200h-200Z"/><g><g class="mark-line role-mark marks" role="graphics-object" aria-roledescription="line mark container"><path aria-label="Time: Aug 31, 2025; Price: 1599; identifier: silex-400-warm-slate-grey-2026" role="graphics-symbol" aria-roledescription="line mark" d="M105.303,22.333L105.676,22.333L106.781,22.333L107.75,22.333L108.774,22.333L110.873,22.333L111.917,22.333L113.02,22.333L113.971,22.333L114.987,22.333L117.076,22.333L118.126,22.333L119.237,22.333L120.188,22.333L121.204,22.333L123.281,22.333L124.329,22.333L125.436,22.333L126.398,22.333L127.414,22.333L129.493,22.333L130.545,22.333L131.644,22.333L132.616,22.333L133.626,22.333L135.708,22.333L136.756,22.333L137.86,22.333L138.817,22.333L139.841,22.333L141.915,22.333L142.447,22.333L142.952,22.333L144.048,22.333L145.02,22.333L146.051,22.333L148.126,22.333L149.164,22.333L150.264,22.333L151.234,22.333L152.264,22.333L154.35,22.333L155.406,22.333L156.514,22.333L157.469,22.333L158.486,22.333L160.56,22.333L161.617,22.333L162.763,22.333L163.686,22.333L164.692,22.333L166.765,22.333L167.824,22.333L168.925,22.333L169.889,22.333L170.908,22.333L172.986,22.333L174.035,22.333L175.136,22.333L176.09,22.333L177.116,22.333L179.194,22.333L180.246,22.333L181.346,22.333L182.306,22.333L183.328,22.333L185.403,22.333L186.443,22.333L187.541,22.333L188.507,22.333L189.542,22.333L191.619,22.333L192.657,22.333L193.749,22.333L194.718,22.333L195.755,22.333L197.842,22.333L198.889,22.333L200,22.333" stroke="#e45756" stroke-width="2"/></g></g><path class="foreground" aria-hidden="true" d="" display="none"/></g></g><g class="mark-group role-legend" role="graphics-symbol" aria-roledescription="legend" aria-label="Symbol legend titled 'identifier' for stroke color with 16 values: devote-1-2022, silex-400-oak-bork-2026, silex-400-warm-slate-grey-2026, devote-1-2024, fastroad-ar-2, ending with allure-rs-2-2024"><g transform="translate(220,0)"><path class="background" aria-hidden="true" d="M0,0h256v222h-256Z" pointer-events="none"/><g><g class="mark-group role-legend-entry"><g transform="translate(0,16)"><path class="background" aria-hidden="true" d="M0,0h0v0h0Z" pointer-events="none"/><g><g class="mark-group role-scope" role="graphics-object" aria-roledescription="group mark container"><g transform="translate(0,0)"><path class="background" aria-hidden="true" d="M0,0h256v11h-256Z" pointer-events="none" opacity="1"/><g><g class="mark-symbol role-legend-symbol" pointer-events="none"><path transform="translate(6,6)" d="M-5,0L5,0" stroke="#4c78a8" stroke-width="1.5" opacity="1"/></g><g class="mark-text role-legend-label" pointer-events="none"><text text-anchor="start" transform="translate(16,9)" font-family="Liberation Mono" font-size="10px" fill="#000" opacity="1">devote-1-2022</text></g></g><path class="foreground" aria-hidden="true" d="" pointer-events="none" display="none"/></g><g transform="translate(0,13)"><path class="background" aria-hidden="true" d="M0,0h256v11h-256Z" pointer-events="none" opacity="1"/><g><g class="mark-symbol role-legend-symbol" pointer-events="none"><path transform="translate(6,6)" d="M-5,0L5,0" stroke="#f58518" stroke-width="1.5" opacity="1"/></g><g class="mark-text role-legend-label" pointer-events="none"><text text-anchor="start" transform="translate(16,9)" font-family="Liberation Mono" font-size="10px" fill="#000" opacity="1">silex-400-oak-bork-2026</text></g></g><path class="foreground" aria-hidden="true" d="" pointer-events="none" display="none"/></g><g transform="translate(0,26)"><path class="background" aria-hidden="true" d="M0,0h256v11h-256Z" pointer-events="none" opacity="1"/><g><g class="mark-symbol role-legend-symbol" pointer-events="none"><path transform="translate(6,6)" d="M-5,0L5,0" stroke="#e45756" stroke-width="1.5" opacity="1"/></g><g class="mark-text role-legend-label" pointer-events="none"><text text-anchor="start" transform="translate(16,9)" font-family="Liberation Mono" font-size="10px" fill="#000" opacity="1">silex-400-warm-slate-grey-2026</text></g></g><path class="foreground" aria-hidden="true" d="" pointer-events="none" display="none"/></g><g transform="translate(0,39)"><path class="background" aria-hidden="true" d="M0,0h256v11h-256Z" pointer-events="none" opacity="1"/><g><g class="mark-symbol role-legend-symbol" pointer-events="none"><path transform="translate(6,6)" d="M-5,0L5,0" stroke="#72b7b2" stroke-width="1.5" opacity="1"/></g><g class="mark-text role-legend-label" pointer-events="none"><text text-anchor="start" transform="translate(16,9)" font-family="Liberation Mono" font-size="10px" fill="#000" opacity="1">devote-1-2024</text></g></g><path class="foreground" aria-hidden="true" d="" pointer-events="none" display="none"/></g><g transform="translate(0,52)"><path class="background" aria-hidden="true" d="M0,0h256v11h-256Z" pointer-events="none" opacity="1"/><g><g class="mark-symbol role-legend-symbol" pointer-events="none"><path transform="translate(6,6)" d="M-5,0L5,0" stroke="#54a24b" stroke-width="1.5" opacity="1"/></g><g class="mark-text role-legend-label" pointer-events="none"><text text-anchor="start" transform="translate(16,9)" font-family="Liberation Mono" font-size="10px" fill="#000" opacity="1">fastroad-ar-2</text></g></g><path class="foreground" aria-hidden="true" d="" pointer-events="none" display="none"/></g><g transform="translate(0,65)"><path class="background" aria-hidden="true" d="M0,0h256v11h-256Z" pointer-events="none" opacity="1"/><g><g class="mark-symbol role-legend-symbol" pointer-events="none"><path transform="translate(6,6)" d="M-5,0L5,0" stroke="#eeca3b" stroke-width="1.5" opacity="1"/></g><g class="mark-text role-legend-label" pointer-events="none"><text text-anchor="start" transform="translate(16,9)" font-family="Liberation Mono" font-size="10px" fill="#000" opacity="1">thrive-2</text></g></g><path class="foreground" aria-hidden="true" d="" pointer-events="none" display="none"/></g><g transform="translate(0,78)"><path class="background" aria-hidden="true" d="M0,0h256v11h-256Z" pointer-events="none" opacity="1"/><g><g class="mark-symbol role-legend-symbol" pointer-events="none"><path transform="translate(6,6)" d="M-5,0L5,0" stroke="#b279a2" stroke-width="1.5" opacity="1"/></g><g class="mark-text role-legend-label" pointer-events="none"><text text-anchor="start" transform="translate(16,9)" font-family="Liberation Mono" font-size="10px" fill="#000" opacity="1">allure-rs-1-2023</text></g></g><path class="foreground" aria-hidden="true" d="" pointer-events="none" display="none"/></g><g transform="translate(0,91)"><path class="background" aria-hidden="true" d="M0,0h256v11h-256Z" pointer-events="none" opacity="1"/><g><g class="mark-symbol role-legend-symbol" pointer-events="none"><path transform="translate(6,6)" d="M-5,0L5,0" stroke="#ff9da6" stroke-width="1.5" opacity="1"/></g><g class="mark-text role-legend-label" pointer-events="none"><text text-anchor="start" transform="translate(16,9)" font-family="Liberation Mono" font-size="10px" fill="#000" opacity="1">roam-2</text></g></g><path class="foreground" aria-hidden="true" d="" pointer-events="none" display="none"/></g><g transform="translate(0,104)"><path class="background" aria-hidden="true" d="M0,0h256v11h-256Z" pointer-events="none" opacity="1"/><g><g class="mark-symbol role-legend-symbol" pointer-events="none"><path transform="translate(6,6)" d="M-5,0L5,0" stroke="#9d755d" stroke-width="1.5" opacity="1"/></g><g class="mark-text role-legend-label" pointer-events="none"><text text-anchor="start" transform="translate(16,9)" font-family="Liberation Mono" font-size="10px" fill="#000" opacity="1">fastroad-sl-3-2022</text></g></g><path class="foreground" aria-hidden="true" d="" pointer-events="none" display="none"/></g><g transform="translate(0,117)"><path class="background" aria-hidden="true" d="M0,0h256v11h-256Z" pointer-events="none" opacity="1"/><g><g class="mark-symbol role-legend-symbol" pointer-events="none"><path transform="translate(6,6)" d="M-5,0L5,0" stroke="#bab0ac" stroke-width="1.5" opacity="1"/></g><g class="mark-text role-legend-label" pointer-events="none"><text text-anchor="start" transform="translate(16,9)" font-family="Liberation Mono" font-size="10px" fill="#000" opacity="1">allure-rs-2-2023</text></g></g><path class="foreground" aria-hidden="true" d="" pointer-events="none" display="none"/></g><g transform="translate(0,130)"><path class="background" aria-hidden="true" d="M0,0h256v11h-256Z" pointer-events="none" opacity="1"/><g><g class="mark-symbol role-legend-symbol" pointer-events="none"><path transform="translate(6,6)" d="M-5,0L5,0" stroke="#4c78a8" stroke-width="1.5" opacity="1"/></g><g class="mark-text role-legend-label" pointer-events="none"><text text-anchor="start" transform="translate(16,9)" font-family="Liberation Mono" font-size="10px" fill="#000" opacity="1">escape-city-disc-1-2024</text></g></g><path class="foreground" aria-hidden="true" d="" pointer-events="none" display="none"/></g><g transform="translate(0,143)"><path class="background" aria-hidden="true" d="M0,0h256v11h-256Z" pointer-events="none" opacity="1"/><g><g class="mark-symbol role-legend-symbol" pointer-events="none"><path transform="translate(6,6)" d="M-5,0L5,0" stroke="#f58518" stroke-width="1.5" opacity="1"/></g><g class="mark-text role-legend-label" pointer-events="none"><text text-anchor="start" transform="translate(16,9)" font-family="Liberation Mono" font-size="10px" fill="#000" opacity="1">sdrbike-escape-1-city-disc</text></g></g><path class="foreground" aria-hidden="true" d="" pointer-events="none" display="none"/></g><g transform="translate(0,156)"><path class="background" aria-hidden="true" d="M0,0h256v11h-256Z" pointer-events="none" opacity="1"/><g><g class="mark-symbol role-legend-symbol" pointer-events="none"><path transform="translate(6,6)" d="M-5,0L5,0" stroke="#e45756" stroke-width="1.5" opacity="1"/></g><g class="mark-text role-legend-label" pointer-events="none"><text text-anchor="start" transform="translate(16,9)" font-family="Liberation Mono" font-size="10px" fill="#000" opacity="1">roam-disc-2-2024</text></g></g><path class="foreground" aria-hidden="true" d="" pointer-events="none" display="none"/></g><g transform="translate(0,169)"><path class="background" aria-hidden="true" d="M0,0h256v11h-256Z" pointer-events="none" opacity="1"/><g><g class="mark-symbol role-legend-symbol" pointer-events="none"><path transform="translate(6,6)" d="M-5,0L5,0" stroke="#72b7b2" stroke-width="1.5" opacity="1"/></g><g class="mark-text role-legend-label" pointer-events="none"><text text-anchor="start" transform="translate(16,9)" font-family="Liberation Mono" font-size="10px" fill="#000" opacity="1">rove-2</text></g></g><path class="foreground" aria-hidden="true" d="" pointer-events="none" display="none"/></g><g transform="translate(0,182)"><path class="background" aria-hidden="true" d="M0,0h256v11h-256Z" pointer-events="none" opacity="1"/><g><g class="mark-symbol role-legend-symbol" pointer-events="none"><path transform="translate(6,6)" d="M-5,0L5,0" stroke="#54a24b" stroke-width="1.5" opacity="1"/></g><g class="mark-text role-legend-label" pointer-events="none"><text text-anchor="start" transform="translate(16,9)" font-family="Liberation Mono" font-size="10px" fill="#000" opacity="1">allure-rs-2-2022</text></g></g><path class="foreground" aria-hidden="true" d="" pointer-events="none" display="none"/></g><g transform="translate(0,195)"><path class="background" aria-hidden="true" d="M0,0h256v11h-256Z" pointer-events="none" opacity="1"/><g><g class="mark-symbol role-legend-symbol" pointer-events="none"><path transform="translate(6,6)" d="M-5,0L5,0" stroke="#eeca3b" stroke-width="1.5" opacity="1"/></g><g class="mark-text role-legend-label" pointer-events="none"><text text-anchor="start" transform="translate(16,9)" font-family="Liberation Mono" font-size="10px" fill="#000" opacity="1">allure-rs-2-2024</text></g></g><path class="foreground" aria-hidden="true" d="" pointer-events="none" display="none"/></g></g></g><path class="foreground" aria-hidden="true" d="" pointer-events="none" display="none"/></g></g><g class="mark-text role-legend-title" pointer-events="none"><text text-anchor="start" transform="translate(0,9)" font-family="Liberation Mono" font-size="11px" font-weight="bold" fill="#000" opacity="1">identifier</text></g></g><path class="foreground" aria-hidden="true" d="" pointer-events="none" display="none"/></g></g></g><path class="foreground" aria-hidden="true" d="" display="none"/></g></g></g></svg>