<svg xmlns="http://www.w3.org/2000/svg" xmlns:xlink="http://www.w3.org/1999/xlink" version="1.1" class="marks" width="548" height="244" viewBox="0 0 548 244"><rect width="548" height="244" fill="white"/><g fill="none" stroke-miterlimit="10" transform="translate(67,7)"><g class="mark-group role-frame root" role="graphics-object" aria-roledescription="group mark container"><g transform="translate(0,0)"><path class="background" aria-hidden="true" d="M0.5,0.5h200v200h-200Z" stroke="#ddd"/><g><g class="mark-group role-axis" aria-hidden="true"><g transform="translate(0.5,200.5)"><path class="background" aria-hidden="true" d="M0,0h0v0h0Z" pointer-events="none"/><g><g class="mark-rule role-axis-grid" pointer-events="none"><line transform="translate(10,-200)" x2="0" y2="200" stroke="#ddd" stroke-width="1" opacity="1"/><line transform="translate(38,-200)" x2="0" y2="200" stroke="#ddd" stroke-width="1" opacity="1"/><line transform="translate(66,-200)" x2="0" y2="200" stroke="#ddd" stroke-width="1" opacity="1"/><line transform="translate(94,-200)" x2="0" y2="200" stroke="#ddd" stroke-width="1" opacity="1"/><line transform="translate(122,-200)" x2="0" y2="200" stroke="#ddd" stroke-width="1" opacity="1"/><line transform="translate(150,-200)" x2="0" y2="200" stroke="#ddd" stroke-width="1" opacity="1"/><line transform="translate(177,-200)" x2="0" y2="200" stroke="#ddd" stroke-width="1" opacity="1"/></g></g><path class="foreground" aria-hidden="true" d="" pointer-events="none" display="none"/></g></g><g class="mark-group role-axis" aria-hidden="true"><g transform="translate(0.5,0.5)"><path class="background" aria-hidden="true" d="M0,0h0v0h0Z" pointer-events="none"/><g><g class="mark-rule role-axis-grid" pointer-events="none"><line transform="translate(0,200)" x2="200" y2="0" stroke="#ddd" stroke-width="1" opacity="1"/><line transform="translate(0,144)" x2="200" y2="0" stroke="#ddd" stroke-width="1" opacity="1"/><line transform="translate(0,89)" x2="200" y2="0" stroke="#ddd" stroke-width="1" opacity="1"/><line transform="translate(0,33)" x2="200" y2="0" stroke="#ddd" stroke-width="1" opacity="1"/></g></g><path class="foreground" aria-hidden="true" d="" pointer-events="none" display="none"/></g></g><g class="mark-group role-axis" role="graphics-symbol" aria-roledescription="axis" aria-label="X-axis titled 'Time' for a time scale with values from Thursday, 14 August 2025, 8:34:48 AM to Friday, 03 October 2025, 4:49:37 PM"><g transform="translate(0.5,200.5)"><path class="background" aria-hidden="true" d="M0,0h0v0h0Z" pointer-events="none"/><g><g class="mark-rule role-axis-tick" pointer-events="none"><line transform="translate(10,0)" x2="0" y2="5" stroke="#888" stroke-width="1" opacity="1"/><line transform="translate(38,0)" x2="0" y2="5" stroke="#888" stroke-width="1" opacity="1"/><line transform="translate(66,0)" x2="0" y2="5" stroke="#888" stroke-width="1" opacity="1"/><line transform="translate(94,0)" x2="0" y2="5" stroke="#888" stroke-width="1" opacity="1"/><line transform="translate(122,0)" x2="0" y2="5" stroke="#888" stroke-width="1" opacity="1"/><line transform="translate(150,0)" x2="0" y2="5" stroke="#888" stroke-width="1" opacity="1"/><line transform="translate(177,0)" x2="0" y2="5" stroke="#888" stroke-width="1" opacity="1"/></g><g class="mark-text role-axis-label" pointer-events="none"><text text-anchor="middle" transform="translate(10.497820418186798,15)" font-family="Liberation Mono" font-size="10px" fill="#000" opacity="1">Aug 17</text><text text-anchor="middle" transform="translate(38.30670818856086,15)" font-family="Liberation Mono" font-size="10px" fill="#000" opacity="0">Aug 24</text><text text-anchor="middle" transform="translate(66.11559595893493,15)" font-family="Liberation Mono" font-size="10px" fill="#000" opacity="1">Aug 31</text><text text-anchor="middle" transform="translate(93.92448372930899,15)" font-family="Liberation Mono" font-size="10px" fill="#000" opacity="0">Sep 07</text><text text-anchor="middle" transform="translate(121.73337149968305,15)" font-family="Liberation Mono" font-size="10px" fill="#000" opacity="1">Sep 14</text><text text-anchor="middle" transform="translate(149.54225927005712,15)" font-family="Liberation Mono" font-size="10px" fill="#000" opacity="0">Sep 21</text><text text-anchor="middle" transform="translate(177.35114704043116,15)" font-family="Liberation Mono" font-size="10px" fill="#000" opacity="1">Sep 28</text></g><g class="mark-rule role-axis-domain" pointer-events="none"><line transform="translate(0,0)" x2="200" y2="0" stroke="#888" stroke-width="1" opacity="1"/></g><g class="mark-text role-axis-title" pointer-events="none"><text text-anchor="middle" transform="translate(100,30)" font-family="Liberation Mono" font-size="11px" font-weight="bold" fill="#000" opacity="1">Time</text></g></g><path class="foreground" aria-hidden="true" d="" pointer-events="none" display="none"/></g></g><g class="mark-group role-axis" role="graphics-symbol" aria-roledescription="axis" aria-label="Y-axis titled 'Price' for a linear scale with values from 0 to 1,800"><g transform="translate(0.5,0.5)"><path class="background" aria-hidden="true" d="M0,0h0v0h0Z" pointer-events="none"/><g><g class="mark-rule role-axis-tick" pointer-events="none"><line transform="translate(0,200)" x2="-5" y2="0" stroke="#888" stroke-width="1" opacity="1"/><line transform="translate(0,144)" x2="-5" y2="0" stroke="#888" stroke-width="1" opacity="1"/><line transform="translate(0,89)" x2="-5" y2="0" stroke="#888" stroke-width="1" opacity="1"/><line transform="translate(0,33)" x2="-5" y2="0" stroke="#888" stroke-width="1" opacity="1"/></g><g class="mark-text role-axis-label" pointer-events="none"><text text-anchor="end" transform="translate(-7,203)" font-family="Liberation Mono" font-size="10px" fill="#000" opacity="1">0</text><text text-anchor="end" transform="translate(-7,147.44444444444443)" font-family="Liberation Mono" font-size="10px" fill="#000" opacity="1">500</text><text text-anchor="end" transform="translate(-7,91.88888888888889)" font-family="Liberation Mono" font-size="10px" fill="#000" opacity="1">1,000</text><text text-anchor="end" transform="translate(-7,36.33333333333333)" font-family="Liberation Mono" font-size="10px" fill="#000" opacity="1">1,500</text></g><g class="mark-rule role-axis-domain" pointer-events="none"><line transform="translate(0,200)" x2="0" y2="-200" stroke="#888" stroke-width="1" opacity="1"/></g><g class="mark-text role-axis-title" pointer-events="none"><text text-anchor="middle" transform="translate(-51,100) rotate(-90) translate(0,-2)" font-family="Liberation Mono" font-size="11px" font-weight="bold" fill="#000" opacity="1">Price</text></g></g><path class="foreground" aria-hidden="true" d="" pointer-events="none" display="none"/></g></g><g class="mark-group role-scope pathgroup" role="graphics-object" aria-roledescription="group mark container"><g transform="translate(0,0)"><path class="background" aria-hidden="true" d="M0,0h200v200h-200Z"/><g><g class="mark-line role-mark marks" role="graphics-object" aria-roledescription="line mark container"><path aria-label="Time: Aug 14, 2025; Price: 899; identifier: escape-city-disc-1-2024" role="graphics-symbol" aria-roledescription="line mark" d="M0,100.111L0.033,100.111L0.059,100.111L0.792,100.111L1.374,100.111L2.027,100.111L3.367,100.111L4.024,100.111L4.751,100.111L5.347,100.111L5.997,100.111L7.327,100.111L7.992,100.111L8.697,100.111L9.312,100.111L9.963,100.111L11.314,100.111L11.963,100.111L12.672,100.111L13.287,100.111L13.941,100.111L15.298,100.111L15.951,100.111L16.683,100.111L16.939,100.111L17.273,100.111L17.91,100.111L19.241,100.111L19.913,100.111L20.619,100.111L21.235,100.111L21.881,100.111L23.215,100.111L23.881,100.111L24.615,100.111L24.912,100.111L25.206,100.111L25.859,100.111L27.185,100.111L27.857,100.111L28.565,100.111L29.182,100.111L29.829,100.111L31.159,100.111L31.828,100.111L32.537,100.111L33.15,100.111L33.8,100.111L35.129,100.111L35.795,100.111L36.497,100.111L37.113,100.111L37.768,100.111L39.106,100.111L39.765,100.111L40.472,100.111L41.09,100.111L41.742,100.111L43.085,100.111L43.755,100.111L44.48,100.111L45.073,100.111L45.72,100.111L47.051,100.111L47.725,100.111L49.042,100.111L49.688,100.111L51.018,100.111L51.69,100.111L51.95,100.111L52.397,100.111L52.84,100.111L53.014,100.111L53.664,100.111L54.991,100.111L55.664,100.111L56.372,100.111L56.986,100.111L57.635,100.111L58.963,100.111L59.634,100.111L60.34,100.111L60.957,100.111L61.605,100.111L62.932,100.111L63.597,100.111L64.3,100.111L64.92,100.111L65.545,100.111L65.576,100.111L66.906,100.111L67.33,100.111L67.568,100.111L68.275,100.111L68.895,100.111L69.55,100.111L70.891,100.111L71.559,100.111L72.264,100.111L72.873,100.111L73.522,100.111L74.858,100.111L75.529,100.111L76.239,100.111L76.848,100.111L77.497,100.111L78.825,100.111L79.496,100.111L80.203,100.111L80.819,100.111L81.468,100.111L82.797,100.111L83.47,100.111L84.172,100.111L84.794,100.111L85.44,100.111L86.771,100.111L87.442,100.111L88.147,100.111L88.759,100.111L89.414,100.111L90.74,100.111L91.081,100.111L91.403,100.111L92.103,100.111L92.725,100.111L93.385,100.111L94.711,100.111L95.375,100.111L96.078,100.111L96.698,100.111L97.357,100.111L98.69,100.111L99.366,100.111L100.075,100.111L100.685,100.111L101.336,100.111L102.662,100.111L103.337,100.111L104.07,100.111L104.66,100.111L105.304,100.111L106.629,100.111L107.306,100.111L108.01,100.111L108.627,100.111L109.278,100.111L110.607,100.111L111.277,100.111L111.981,100.111L112.592,100.111L113.248,100.111L114.576,100.111L115.249,100.111L115.952,100.111L116.566,100.111L117.22,100.111L118.547,100.111L119.212,100.111L119.913,100.111L120.531,100.111L121.193,100.111L122.521,100.111L123.185,100.111L123.883,100.111L124.503,100.111L125.166,100.111L126.5,100.111L127.17,100.111L127.879,100.111L128.491,100.111L129.14,100.111L130.469,100.111L131.146,100.111L131.851,100.111L132.463,100.111L133.115,100.111L134.443,100.111L135.115,100.111L135.824,100.111L136.436,100.111L137.086,100.111L138.415,100.111L139.087,100.111L139.795,100.111L140.407,100.111L141.06,100.111L142.388,100.111L143.059,100.111L143.767,100.111L144.382,100.111L145.03,100.111L146.358,100.111L147.025,100.111L147.727,100.111L148.342,100.111L149.001,100.111L150.332,100.111L150.994,100.111L151.699,100.111L152.318,100.111L152.976,100.111L154.307,100.111L154.983,100.111L155.69,100.111L156.294,100.111L156.952,100.111L158.278,100.111L158.953,100.111L159.66,100.111L160.275,100.111L160.924,100.111L162.252,100.111L162.927,100.111L163.633,100.111L164.251,100.111L164.894,100.111L166.225,100.111L166.901,100.111L167.609,100.111L168.222,100.111L168.866,100.111L170.196,100.111L170.871,100.111L171.577,100.111L172.191,100.111L172.839,100.111L174.168,100.111L174.83,100.111L175.534,100.111L176.153,100.111L176.812,100.111L178.141,100.111L178.804,100.111L179.508,100.111L180.123,100.111L180.784,100.111L182.117,100.111L182.794,100.111L183.501,100.111L184.096,100.111L184.759,100.111L186.089,100.111L186.768,100.111L187.473,100.111L188.082,100.111L188.732,100.111L190.063,100.111L190.737,100.111L191.447,100.111L192.056,100.111L192.705,100.111L194.031,100.111L194.704,100.111L195.409,100.111L196.028,100.111L196.676,100.111L198.002,100.111L198.676,100.111L199.38,100.111L199.999,100.111" stroke="#4c78a8" stroke-width="2"/></g></g><path class="foreground" aria-hidden="true" d="" display="none"/></g><g transform="translate(0,0)"><path class="background" aria-hidden="true" d="M0,0h200v200h-200Z"/><g><g class="mark-line role-mark marks" role="graphics-object" aria-roledescription="line mark container"><path aria-label="Time: Aug 14, 2025; Price: 999; identifier: roam-2" role="graphics-symbol" aria-roledescription="line mark" d="M0,89L0.033,89L0.059,89L0.792,89L1.374,89L2.027,89L3.367,89L4.025,89L4.751,89L5.347,89L5.997,89L7.327,89L7.992,89L8.697,89L9.312,89L9.97,89L11.314,89L11.964,89L12.672,89L13.288,89L13.941,89L15.298,89L15.951,89L16.683,89L16.94,89L17.273,89L17.91,89L19.241,89L19.913,89L20.619,89L21.235,89L21.881,89L23.215,89L23.881,89L24.615,89L24.913,89L25.207,89L25.859,89L27.185,89L27.857,89L28.566,89L29.182,89L29.829,89L31.159,89L31.828,89L32.537,89L33.151,89L33.8,89L35.129,89L35.795,89L36.497,89L37.113,89L37.769,89L39.106,89L39.765,89L40.472,89L41.09,89L41.743,89L43.085,89L43.755,89L44.48,89L45.073,89L45.72,89L47.051,89L47.725,89L49.042,89L49.688,89L51.019,89L51.69,89L51.951,89L52.398,89L52.841,89L53.014,89L53.664,89L54.991,89L55.664,89L56.372,89L56.986,89L57.635,89L58.964,89L59.634,89L60.34,89L60.957,89L61.606,89L62.932,89L63.598,89L64.3,89L64.92,89L65.545,89L65.576,89L66.906,89L67.331,89L67.569,89L68.275,89L68.895,89L69.55,89L70.892,89L71.559,89L72.264,89L72.873,89L73.522,89L74.858,89L75.53,89L76.239,89L76.848,89L77.497,89L78.825,89L79.496,89L80.204,89L80.819,89L81.468,89L82.797,89L83.47,89L84.173,89L84.794,89L85.44,89L86.771,89L87.442,89L88.147,89L88.759,89L89.414,89L90.74,89L91.081,89L91.403,89L92.103,89L92.726,89L93.385,89L94.711,89L95.375,89L96.079,89L96.699,89L97.357,89L98.691,89L99.366,89L100.075,89L100.685,89L101.336,89L102.662,89L103.338,89L104.07,89L104.661,89L105.304,89L106.629,89L107.306,89L108.011,89L108.627,89L109.278,89L110.607,89L111.278,89L111.982,89L112.592,89L113.248,89L114.577,89L115.249,89L115.952,89L116.566,89L117.22,89L118.547,89L119.212,89L119.913,89L120.531,89L121.193,89L122.521,89L123.185,89L123.883,89L124.503,89L125.166,89L126.5,89L127.17,89L127.88,89L128.492,89L129.142,89L130.469,89L131.146,89L131.852,89L132.463,89L133.115,89L134.444,89L135.115,89L135.824,89L136.436,89L137.087,89L138.416,89L139.087,89L139.796,89L140.407,89L141.06,89L142.389,89L143.059,89L143.767,89L144.382,89L145.03,89L146.358,89L147.025,89L147.728,89L148.342,89L149.002,89L150.332,89L150.994,89L151.699,89L152.318,89L152.976,89L154.307,89L154.984,89L155.69,89L156.294,89L156.952,89L158.279,89L158.953,89L159.66,89L160.275,89L160.924,89L162.253,89L162.927,89L163.633,89L164.251,89L164.894,89L166.226,89L166.901,89L167.609,89L168.222,89L168.866,89L170.197,89L170.872,89L171.577,89L172.191,89L172.84,89L174.168,89L174.831,89L175.534,89L176.153,89L176.813,89L178.141,89L178.804,89L179.508,89L180.123,89L180.784,89L182.117,89L182.794,89L183.501,89L184.096,89L184.759,89L186.089,89L186.768,89L187.474,89L188.082,89L188.732,89L190.064,89L190.738,89L191.447,89L192.056,89L192.706,89L194.031,89L194.704,89L195.409,89L196.028,89L196.676,89L198.003,89L198.676,89L199.38,89L199.999,89" stroke="#ff9da6" stroke-width="2"/></g></g><path class="foreground" aria-hidden="true" d="" display="none"/></g><g transform="translate(0,0)"><path class="background" aria-hidden="true" d="M0,0h200v200h-200Z"/><g><g class="mark-line role-mark marks" role="graphics-object" aria-roledescription="line mark container"><path aria-label="Time: Aug 14, 2025; Price: 999; identifier: fastroad-sl-3-2022" role="graphics-symbol" aria-roledescription="line mark" d="M0,89L0.033,89L0.059,89L0.792,89L1.374,89L2.027,89L3.367,89L4.025,89L4.751,89L5.347,89L5.997,89L7.327,89L7.992,89L8.698,89L9.312,89L9.97,89L11.315,89L11.964,89L12.672,89L13.288,89L13.941,89L15.299,89L15.951,89L16.683,89L16.94,89L17.273,89L17.91,89L19.241,89L19.914,89L20.619,89L21.235,89L21.881,89L23.215,89L23.881,89L24.616,89L24.913,89L25.207,89L25.859,89L27.185,89L27.857,89L28.566,89L29.182,89L29.829,89L31.159,89L31.829,89L32.537,89L33.151,89L33.8,89L35.129,89L35.795,89L36.497,89L37.113,89L37.769,89L39.107,89L39.765,89L40.472,89L41.091,89L41.743,89L43.085,89L43.755,89L44.48,89L45.073,89L45.72,89L47.051,89L47.725,89L49.042,89L49.689,89L51.019,89L51.69,89L51.951,89L52.398,89L52.841,89L53.014,89L53.664,89L54.991,89L55.664,89L56.372,89L56.986,89L57.635,89L58.964,89L59.634,89L60.34,89L60.957,89L61.606,89L62.932,89L63.598,89L64.301,89L64.92,89L65.545,89L65.576,89L66.906,89L67.331,89L67.569,89L68.275,89L68.895,89L69.55,89L70.892,89L71.559,89L72.264,89L72.873,89L73.522,89L74.858,89L75.53,89L76.24,89L76.848,89L77.497,89L78.826,89L79.496,89L80.204,89L80.819,89L81.469,89L82.797,89L83.47,89L84.173,89L84.794,89L85.44,89L86.772,89L87.442,89L88.148,89L88.759,89L89.414,89L90.74,89L91.081,89L91.403,89L92.104,89L92.726,89L93.385,89L94.711,89L95.375,89L96.079,89L96.699,89L97.357,89L98.691,89L99.366,89L100.075,89L100.685,89L101.336,89L102.662,89L103.338,89L104.07,89L104.661,89L105.304,89L106.629,89L107.306,89L108.011,89L108.627,89L109.278,89L110.607,89L111.278,89L111.982,89L112.592,89L113.248,89L114.577,89L115.249,89L115.952,89L116.566,89L117.22,89L118.547,89L119.212,89L119.913,89L120.531,89L121.193,89L122.521,89L123.185,89L123.883,89L124.503,89L125.166,89L126.5,89L127.17,89L127.88,89L128.492,89L129.142,89L130.469,89L131.146,89L131.852,89L132.463,89L133.115,89L134.444,89L135.115,89L135.824,89L136.437,89L137.087,89L138.416,89L139.087,89L139.796,89L140.407,89L141.06,89L142.389,89L143.06,89L143.767,89L144.382,89L145.03,89L146.358,89L147.025,89L147.728,89L148.342,89L149.002,89L150.332,89L150.994,89L151.699,89L152.318,89L152.976,89L154.307,89L154.984,89L155.691,89L156.294,89L156.952,89L158.279,89L158.953,89L159.66,89L160.275,89L160.925,89L162.253,89L162.927,89L163.634,89L164.251,89L164.894,89L166.226,89L166.901,89L167.609,89L168.223,89L168.866,89L170.197,89L170.872,89L171.578,89L172.191,89L172.84,89L174.168,89L174.831,89L175.534,89L176.154,89L176.813,89L178.141,89L178.804,89L179.508,89L180.123,89L180.784,89L182.118,89L182.794,89L183.502,89L184.096,89L184.759,89L186.089,89L186.768,89L187.474,89L188.082,89L188.732,89L190.064,89L190.738,89L191.447,89L192.057,89L192.706,89L194.031,89L194.704,89L195.409,89L196.028,89L196.676,89L198.003,89L198.676,89L199.38,89L199.999,89" stroke="#9d755d" stroke-width="2"/></g></g><path class="foreground" aria-hidden="true" d="" display="none"/></g><g transform="translate(0,0)"><path class="background" aria-hidden="true" d="M0,0h200v200h-200Z"/><g><g class="mark-line role-mark marks" role="graphics-object" aria-roledescription="line mark container"><path aria-label="Time: Aug 14, 2025; Price: 1199; identifier: fastroad-ar-2" role="graphics-symbol" aria-roledescription="line mark" d="M0,66.778L0.033,66.778L0.059,66.778L0.792,66.778L1.374,66.778L2.027,66.778L3.367,66.778L4.025,66.778L4.751,66.778L5.347,66.778L5.997,66.778L7.327,66.778L7.992,66.778L8.698,66.778L9.312,66.778L9.973,66.778L11.315,66.778L11.964,66.778L12.672,66.778L13.288,66.778L13.941,66.778L15.299,66.778L15.951,66.778L16.683,66.778L16.94,66.778L17.273,66.778L17.91,66.778L19.241,66.778L19.914,66.778L20.619,66.778L21.236,66.778L21.882,66.778L23.215,66.778L23.881,66.778L24.616,66.778L24.913,66.778L25.207,66.778L25.859,66.778L27.186,66.778L27.857,66.778L28.566,66.778L29.182,66.778L29.83,66.778L31.159,66.778L31.829,66.778L32.537,66.778L33.151,66.778L33.8,66.778L35.129,66.778L35.795,66.778L36.497,66.778L37.113,66.778L37.769,66.778L39.107,66.778L39.765,66.778L40.472,66.778L41.091,66.778L41.743,66.778L43.085,66.778L43.755,66.778L44.48,66.778L45.073,66.778L45.72,66.778L47.051,66.778L47.725,66.778L49.042,66.778L49.689,66.778L51.019,66.778L51.69,66.778L51.951,66.778L52.398,66.778L52.841,66.778L53.014,66.778L53.664,66.778L54.991,66.778L55.664,66.778L56.372,66.778L56.986,66.778L57.635,66.778L58.964,66.778L59.635,66.778L60.34,66.778L60.957,66.778L61.606,66.778L62.932,66.778L63.598,66.778L64.301,66.778L64.92,66.778L65.545,66.778L65.576,66.778L66.906,66.778L67.331,66.778L67.569,66.778L68.275,66.778L68.895,66.778L69.55,66.778L70.892,66.778L71.56,66.778L72.264,66.778L72.873,66.778L73.522,66.778L74.858,66.778L75.53,66.778L76.24,66.778L76.848,66.778L77.497,66.778L78.826,66.778L79.496,66.778L80.204,66.778L80.819,66.778L81.469,66.778L82.797,66.778L83.47,66.778L84.173,66.778L84.794,66.778L85.44,66.778L86.772,66.778L87.442,66.778L88.148,66.778L88.76,66.778L89.414,66.778L90.74,66.778L91.081,66.778L91.403,66.778L92.104,66.778L92.726,66.778L93.385,66.778L94.711,66.778L95.375,66.778L96.079,66.778L96.699,66.778L97.357,66.778L98.691,66.778L99.367,66.778L100.075,66.778L100.685,66.778L101.336,66.778L102.662,66.778L103.338,66.778L104.07,66.778L104.661,66.778L105.304,66.778L106.629,66.778L107.307,66.778L108.011,66.778L108.627,66.778L109.279,66.778L110.607,66.778L111.278,66.778L111.982,66.778L112.592,66.778L113.248,66.778L114.577,66.778L115.249,66.778L115.953,66.778L116.567,66.778L117.22,66.778L118.547,66.778L119.212,66.778L119.914,66.778L120.532,66.778L121.194,66.778L122.521,66.778L123.185,66.778L123.883,66.778L124.503,66.778L125.166,66.778L126.5,66.778L127.17,66.778L127.88,66.778L128.492,66.778L129.142,66.778L130.47,66.778L131.146,66.778L131.852,66.778L132.463,66.778L133.115,66.778L134.444,66.778L135.115,66.778L135.824,66.778L136.437,66.778L137.087,66.778L138.416,66.778L139.087,66.778L139.796,66.778L140.407,66.778L141.06,66.778L142.389,66.778L143.06,66.778L143.767,66.778L144.382,66.778L145.03,66.778L146.358,66.778L147.025,66.778L147.728,66.778L148.342,66.778L149.002,66.778L150.332,66.778L150.995,66.778L151.699,66.778L152.318,66.778L152.976,66.778L154.307,66.778L154.984,66.778L155.691,66.778L156.294,66.778L156.952,66.778L158.279,66.778L158.953,66.778L159.66,66.778L160.276,66.778L160.925,66.778L162.253,66.778L162.927,66.778L163.634,66.778L164.251,66.778L164.894,66.778L166.226,66.778L166.901,66.778L167.61,66.778L168.223,66.778L168.866,66.778L170.197,66.778L170.872,66.778L171.578,66.778L172.191,66.778L172.84,66.778L174.169,66.778L174.831,66.778L175.534,66.778L176.154,66.778L176.813,66.778L178.141,66.778L178.804,66.778L179.508,66.778L180.123,66.778L180.784,66.778L182.118,66.778L182.794,66.778L183.502,66.778L184.096,66.778L184.759,66.778L186.089,66.778L186.768,66.778L187.474,66.778L188.082,66.778L188.732,66.778L190.064,66.778L190.738,66.778L191.447,66.778L192.057,66.778L192.706,66.778L194.032,66.778L194.704,66.778L195.409,66.778L196.028,66.778L196.676,66.778L198.003,66.778L198.676,66.778L199.38,66.778L199.999,66.778" stroke="#54a24b" stroke-width="2"/></g></g><path class="foreground" aria-hidden="true" d="" display="none"/></g><g transform="translate(0,0)"><path class="background" aria-hidden="true" d="M0,0h200v200h-200Z"/><g><g class="mark-line role-mark marks" role="graphics-object" aria-roledescription="line mark container"><path aria-label="Time: Aug 18, 2025; Price: 899; identifier: sdrbike-escape-1-city-disc" role="graphics-symbol" aria-roledescription="line mark" d="M16.94,100.111L17.273,100.111L17.91,100.111L19.241,100.111L19.914,100.111L20.619,100.111L21.236,100.111L21.882,100.111L23.215,100.111L23.881,100.111L24.616,100.111L24.913,100.111L25.207,100.111L25.859,100.111L27.186,100.111L27.857,100.111L28.566,100.111L29.182,100.111L29.83,100.111L31.159,100.111L31.829,100.111L32.537,100.111L33.151,100.111L33.8,100.111L35.129,100.111L35.795,100.111L36.497,100.111L37.113,100.111L37.769,100.111L39.107,100.111L39.765,100.111L40.472,100.111L41.091,100.111L41.743,100.111L43.085,100.111L43.755,100.111L44.48,100.111L45.073,100.111L45.72,100.111L47.052,100.111L47.726,100.111L49.042,100.111L49.689,100.111L51.019,100.111L51.69,100.111L51.951,100.111L52.398,100.111L52.841,100.111L53.014,100.111L53.664,100.111L54.991,100.111L55.665,100.111L56.372,100.111L56.986,100.111L57.635,100.111L58.964,100.111L59.635,100.111L60.34,100.111L60.957,100.111L61.606,100.111L62.932,100.111L63.598,100.111L64.301,100.111L64.92,100.111L65.545,100.111L65.576,100.111L66.906,100.111L67.331,100.111L67.569,100.111L68.275,100.111L68.895,100.111L69.55,100.111L70.892,100.111L71.56,100.111L72.265,100.111L72.873,100.111L73.522,100.111L74.858,100.111L75.53,100.111L76.24,100.111L76.848,100.111L77.497,100.111L78.826,100.111L79.496,100.111L80.204,100.111L80.819,100.111L81.469,100.111L82.797,100.111L83.47,100.111L84.173,100.111L84.795,100.111L85.441,100.111L86.772,100.111L87.442,100.111L88.148,100.111L88.76,100.111L89.415,100.111L90.74,100.111L91.081,100.111L91.403,100.111L92.104,100.111L92.726,100.111L93.385,100.111L94.712,100.111L95.375,100.111L96.079,100.111L96.699,100.111L97.358,100.111L98.691,100.111L99.367,100.111L100.075,100.111L100.686,100.111L101.336,100.111L102.662,100.111L103.338,100.111L104.07,100.111L104.661,100.111L105.304,100.111L106.629,100.111L107.307,100.111L108.011,100.111L108.627,100.111L109.279,100.111L110.607,100.111L111.278,100.111L111.982,100.111L112.592,100.111L113.248,100.111L114.577,100.111L115.249,100.111L115.953,100.111L116.567,100.111L117.221,100.111L118.547,100.111L119.212,100.111L119.914,100.111L120.532,100.111L121.194,100.111L122.521,100.111L123.185,100.111L123.884,100.111L124.503,100.111L125.166,100.111L126.5,100.111L127.17,100.111L127.88,100.111L128.492,100.111L129.142,100.111L130.47,100.111L131.146,100.111L131.852,100.111L132.463,100.111L133.115,100.111L134.444,100.111L135.116,100.111L135.825,100.111L136.437,100.111L137.087,100.111L138.416,100.111L139.087,100.111L139.796,100.111L140.407,100.111L141.06,100.111L142.389,100.111L143.06,100.111L143.767,100.111L144.382,100.111L145.03,100.111L146.359,100.111L147.025,100.111L147.728,100.111L148.342,100.111L149.002,100.111L150.333,100.111L150.995,100.111L151.699,100.111L152.319,100.111L152.976,100.111L154.307,100.111L154.984,100.111L155.691,100.111L156.294,100.111L156.953,100.111L158.279,100.111L158.953,100.111L159.66,100.111L160.276,100.111L160.925,100.111L162.253,100.111L162.927,100.111L163.634,100.111L164.251,100.111L164.895,100.111L166.226,100.111L166.901,100.111L167.61,100.111L168.223,100.111L168.867,100.111L170.197,100.111L170.872,100.111L171.578,100.111L172.192,100.111L172.84,100.111L174.169,100.111L174.831,100.111L175.534,100.111L176.154,100.111L176.813,100.111L178.141,100.111L178.804,100.111L179.508,100.111L180.123,100.111L180.784,100.111L182.118,100.111L182.794,100.111L183.502,100.111L184.096,100.111L184.759,100.111L186.089,100.111L186.769,100.111L187.474,100.111L188.082,100.111L188.733,100.111L190.064,100.111L190.738,100.111L191.447,100.111L192.057,100.111L192.706,100.111L194.032,100.111L194.704,100.111L195.41,100.111L196.029,100.111L196.676,100.111L198.003,100.111L198.677,100.111L199.38,100.111L199.999,100.111" stroke="#f58518" stroke-width="2"/></g></g><path class="foreground" aria-hidden="true" d="" display="none"/></g><g transform="translate(0,0)"><path class="background" aria-hidden="true" d="M0,0h200v200h-200Z"/><g><g class="mark-line role-mark marks" role="graphics-object" aria-roledescription="line mark container"><path aria-label="Time: Aug 20, 2025; Price: 899; identifier: roam-disc-2-2024" role="graphics-symbol" aria-roledescription="line mark" d="M24.912,100.111L25.207,100.111L25.859,100.111L27.185,100.111L27.857,100.111L28.566,100.111L29.182,100.111L29.829,100.111L31.159,100.111L31.828,100.111L32.537,100.111L33.15,100.111L33.8,100.111L35.129,100.111L35.795,100.111L36.497,100.111L37.113,100.111L37.769,100.111L39.106,100.111L39.765,100.111L40.472,100.111L41.09,100.111L41.743,100.111L43.085,100.111L43.755,100.111L44.48,100.111L45.073,100.111L45.72,100.111L47.051,100.111L47.725,100.111L49.042,100.111L49.688,100.111L51.019,100.111L51.69,100.111L51.95,100.111L52.398,100.111L52.841,100.111L53.014,100.111L53.664,100.111L54.991,100.111L55.664,100.111L56.372,100.111L56.986,100.111L57.635,100.111L58.964,100.111L59.634,100.111L60.34,100.111L60.957,100.111L61.605,100.111L62.932,100.111L63.597,100.111L64.3,100.111L64.92,100.111L65.545,100.111L65.576,100.111L66.906,100.111L67.33,100.111L67.568,100.111L68.275,100.111L68.895,100.111L69.55,100.111L70.892,100.111L71.559,100.111L72.264,100.111L72.873,100.111L73.522,100.111L74.858,100.111L75.529,100.111L76.239,100.111L76.848,100.111L77.497,100.111L78.825,100.111L79.496,100.111L80.203,100.111L80.819,100.111L81.468,100.111L82.797,100.111L83.47,100.111L84.172,100.111L84.794,100.111L85.44,100.111L86.771,100.111L87.442,100.111L88.147,100.111L88.759,100.111L89.414,100.111L90.74,100.111L91.081,100.111L91.403,100.111L92.103,100.111L92.725,100.111L93.385,100.111L94.711,100.111L95.375,100.111L96.079,100.111L96.699,100.111L97.357,100.111L98.691,100.111L99.366,100.111L100.075,100.111L100.685,100.111L101.336,100.111L102.662,100.111L103.337,100.111L104.07,100.111L104.66,100.111L105.304,100.111L106.629,100.111L107.306,100.111L108.011,100.111L108.627,100.111L109.278,100.111L110.607,100.111L111.278,100.111L111.982,100.111L112.592,100.111L113.248,100.111L114.576,100.111L115.249,100.111L115.952,100.111L116.566,100.111L117.22,100.111L118.547,100.111L119.212,100.111L119.913,100.111L120.531,100.111L121.193,100.111L122.521,100.111L123.185,100.111L123.883,100.111L124.503,100.111L125.166,100.111L126.5,100.111L127.17,100.111L127.88,100.111L128.492,100.111L129.142,100.111L130.469,100.111L131.146,100.111L131.851,100.111L132.463,100.111L133.115,100.111L134.444,100.111L135.115,100.111L135.824,100.111L136.436,100.111L137.087,100.111L138.415,100.111L139.087,100.111L139.796,100.111L140.407,100.111L141.06,100.111L142.388,100.111L143.059,100.111L143.767,100.111L144.382,100.111L145.03,100.111L146.358,100.111L147.025,100.111L147.727,100.111L148.342,100.111L149.001,100.111L150.332,100.111L150.994,100.111L151.699,100.111L152.318,100.111L152.976,100.111L154.307,100.111L154.983,100.111L155.69,100.111L156.294,100.111L156.952,100.111L158.278,100.111L158.953,100.111L159.66,100.111L160.275,100.111L160.924,100.111L162.252,100.111L162.927,100.111L163.633,100.111L164.251,100.111L164.894,100.111L166.225,100.111L166.901,100.111L167.609,100.111L168.222,100.111L168.866,100.111L170.196,100.111L170.871,100.111L171.577,100.111L172.191,100.111L172.839,100.111L174.168,100.111L174.831,100.111L175.534,100.111L176.153,100.111L176.812,100.111L178.141,100.111L178.804,100.111L179.508,100.111L180.123,100.111L180.784,100.111L182.117,100.111L182.794,100.111L183.501,100.111L184.096,100.111L184.759,100.111L186.089,100.111L186.768,100.111L187.473,100.111L188.082,100.111L188.732,100.111L190.063,100.111L190.738,100.111L191.447,100.111L192.056,100.111L192.705,100.111L194.031,100.111L194.704,100.111L195.409,100.111L196.028,100.111L196.676,100.111L198.002,100.111L198.676,100.111L199.38,100.111L199.999,100.111" stroke="#e45756" stroke-width="2"/></g></g><path class="foreground" aria-hidden="true" d="" display="none"/></g><g transform="translate(0,0)"><path class="background" aria-hidden="true" d="M0,0h200v200h-200Z"/><g><g class="mark-line role-mark marks" role="graphics-object" aria-roledescription="line mark container"><path aria-label="Time: Aug 20, 2025; Price: 1199; identifier: thrive-2" role="graphics-symbol" aria-roledescription="line mark" d="M24.913,66.778L25.207,66.778L25.859,66.778L27.186,66.778L27.857,66.778L28.566,66.778L29.182,66.778L29.83,66.778L31.16,66.778L31.829,66.778L32.537,66.778L33.151,66.778L33.8,66.778L35.129,66.778L35.795,66.778L36.498,66.778L37.113,66.778L37.769,66.778L39.107,66.778L39.765,66.778L40.473,66.778L41.091,66.778L41.743,66.778L43.085,66.778L43.756,66.778L44.48,66.778L45.074,66.778L45.72,66.778L47.052,66.778L47.726,66.778L49.042,66.778L49.689,66.778L51.019,66.778L51.69,66.778L51.951,66.778L52.398,66.778L52.841,66.778L53.014,66.778L53.664,66.778L54.991,66.778L55.665,66.778L56.372,66.778L56.986,66.778L57.636,66.778L58.964,66.778L59.635,66.778L60.34,66.778L60.958,66.778L61.606,66.778L62.932,66.778L63.598,66.778L64.301,66.778L64.921,66.778L65.545,66.778L65.576,66.778L66.907,66.778L67.331,66.778L67.569,66.778L68.275,66.778L68.895,66.778L69.55,66.778L70.892,66.778L71.56,66.778L72.265,66.778L72.873,66.778L73.522,66.778L74.858,66.778L75.53,66.778L76.24,66.778L76.848,66.778L77.498,66.778L78.826,66.778L79.496,66.778L80.204,66.778L80.819,66.778L81.469,66.778L82.798,66.778L83.471,66.778L84.173,66.778L84.795,66.778L85.441,66.778L86.772,66.778L87.442,66.778L88.148,66.778L88.76,66.778L89.415,66.778L90.74,66.778L91.081,66.778L91.403,66.778L92.104,66.778L92.726,66.778L93.385,66.778L94.712,66.778L95.375,66.778L96.079,66.778L96.699,66.778L97.358,66.778L98.691,66.778L99.367,66.778L100.075,66.778L100.686,66.778L101.336,66.778L102.662,66.778L103.338,66.778L104.07,66.778L104.661,66.778L105.304,66.778L106.629,66.778L107.307,66.778L108.011,66.778L108.627,66.778L109.279,66.778L110.607,66.778L111.278,66.778L111.982,66.778L112.592,66.778L113.248,66.778L114.577,66.778L115.249,66.778L115.953,66.778L116.567,66.778L117.221,66.778L118.547,66.778L119.212,66.778L119.914,66.778L120.532,66.778L121.194,66.778L122.521,66.778L123.185,66.778L123.884,66.778L124.503,66.778L125.166,66.778L126.501,66.778L127.17,66.778L127.88,66.778L128.492,66.778L129.142,66.778L130.47,66.778L131.146,66.778L131.852,66.778L132.463,66.778L133.115,66.778L134.444,66.778L135.116,66.778L135.825,66.778L136.437,66.778L137.087,66.778L138.416,66.778L139.087,66.778L139.796,66.778L140.407,66.778L141.06,66.778L142.389,66.778L143.06,66.778L143.767,66.778L144.382,66.778L145.03,66.778L146.359,66.778L147.025,66.778L147.728,66.778L148.343,66.778L149.002,66.778L150.333,66.778L150.995,66.778L151.7,66.778L152.319,66.778L152.976,66.778L154.308,66.778L154.984,66.778L155.691,66.778L156.294,66.778L156.953,66.778L158.279,66.778L158.953,66.778L159.66,66.778L160.276,66.778L160.925,66.778L162.253,66.778L162.927,66.778L163.634,66.778L164.251,66.778L164.895,66.778L166.226,66.778L166.901,66.778L167.61,66.778L168.223,66.778L168.867,66.778L170.197,66.778L170.872,66.778L171.578,66.778L172.192,66.778L172.84,66.778L174.169,66.778L174.831,66.778L175.534,66.778L176.154,66.778L176.813,66.778L178.142,66.778L178.804,66.778L179.509,66.778L180.123,66.778L180.784,66.778L182.118,66.778L182.794,66.778L183.502,66.778L184.096,66.778L184.76,66.778L186.089,66.778L186.769,66.778L187.474,66.778L188.082,66.778L188.733,66.778L190.064,66.778L190.738,66.778L191.447,66.778L192.057,66.778L192.706,66.778L194.032,66.778L194.704,66.778L195.41,66.778L196.029,66.778L196.676,66.778L198.003,66.778L198.677,66.778L199.381,66.778L199.999,66.778" stroke="#eeca3b" stroke-width="2"/></g></g><path class="foreground" aria-hidden="true" d="" display="none"/></g><g transform="translate(0,0)"><path class="background" aria-hidden="true" d="M0,0h200v200h-200Z"/><g><g class="mark-line role-mark marks" role="graphics-object" aria-roledescription="line mark container"><path aria-label="Time: Aug 20, 2025; Price: 999; identifier: rove-2" role="graphics-symbol" aria-roledescription="line mark" d="M24.913,89L25.207,89L25.859,89L27.186,89L27.857,89L28.566,89L29.182,89L29.83,89L31.16,89L31.829,89L32.537,89L33.151,89L33.8,89L35.13,89L35.795,89L36.498,89L37.113,89L37.769,89L39.107,89L39.765,89L40.473,89L41.091,89L41.743,89L43.085,89L43.756,89L44.48,89L45.074,89L45.72,89L47.052,89L47.726,89L49.043,89L49.689,89L51.019,89L51.69,89L51.952,89L52.398,89L52.841,89L53.015,89L53.665,89L54.991,89L55.665,89L56.373,89L56.987,89L57.636,89L58.964,89L59.635,89L60.34,89L60.958,89L61.606,89L65.545,111.222L65.576,111.222L66.907,111.222L67.331,111.222L67.569,111.222L68.276,111.222L68.896,111.222L69.55,111.222L70.892,111.222L71.56,111.222L72.265,111.222L72.873,111.222L73.522,111.222L74.858,111.222L75.53,111.222L76.24,111.222L76.848,111.222L77.498,111.222L78.826,111.222L79.496,111.222L80.204,111.222L80.819,111.222L81.469,111.222L82.798,111.222L83.471,111.222L84.173,111.222L84.795,111.222L85.441,111.222L86.772,111.222L87.442,111.222L88.148,111.222L88.76,111.222L89.415,111.222L90.74,111.222L91.081,111.222L91.403,111.222L92.104,111.222L92.726,111.222L93.385,111.222L94.712,111.222L95.375,111.222L96.079,111.222L96.699,111.222L97.358,111.222L98.691,111.222L99.367,111.222L100.075,111.222L100.686,111.222L101.336,111.222L102.662,111.222L103.338,111.222L104.07,111.222L104.661,111.222L105.304,111.222L106.63,111.222L107.307,111.222L108.011,111.222L108.627,111.222L109.279,111.222L110.607,111.222L111.278,111.222L111.982,111.222L112.592,111.222L113.248,111.222L114.577,111.222L115.249,111.222L115.953,111.222L116.567,111.222L117.221,111.222L118.547,111.222L119.212,111.222L119.914,111.222L120.532,111.222L121.194,111.222L122.521,111.222L123.185,111.222L123.884,111.222L124.503,111.222L125.167,111.222L126.501,111.222L127.17,111.222L127.88,111.222L128.493,111.222L129.142,111.222L130.47,111.222L131.146,111.222L131.852,111.222L132.463,111.222L133.115,111.222L134.444,111.222L135.116,111.222L135.825,111.222L136.437,111.222L137.087,111.222L138.416,111.222L139.087,111.222L139.796,111.222L140.407,111.222L141.06,111.222L142.389,111.222L143.06,111.222L143.767,111.222L144.382,111.222L145.03,111.222L146.359,111.222L147.026,111.222L147.728,111.222L148.343,111.222L149.002,111.222L150.333,111.222L150.995,111.222L151.7,111.222L152.319,111.222L152.977,111.222L154.308,111.222L154.984,111.222L155.691,111.222L156.294,111.222L156.953,111.222L158.279,111.222L158.953,111.222L159.66,111.222L160.276,111.222L160.925,111.222L162.253,111.222L162.928,111.222L163.634,111.222L164.251,111.222L164.895,111.222L166.226,111.222L166.902,111.222L167.61,111.222L168.223,111.222L168.867,111.222L170.197,111.222L170.872,111.222L171.578,111.222L172.192,111.222L172.84,111.222L174.169,111.222L174.831,111.222L175.535,111.222L176.154,111.222L176.813,111.222L178.142,111.222L178.804,111.222L179.509,111.222L180.124,111.222L180.784,111.222L182.118,111.222L182.794,111.222L183.502,111.222L184.096,111.222L184.76,111.222L186.089,111.222L186.769,111.222L187.474,111.222L188.083,111.222L188.733,111.222L190.064,111.222L190.738,111.222L191.447,111.222L192.057,111.222L192.706,111.222L194.032,111.222L194.704,111.222L195.41,111.222L196.029,111.222L196.676,111.222L198.003,111.222L198.677,111.222L199.381,111.222L199.999,111.222" stroke="#72b7b2" stroke-width="2"/></g></g><path class="foreground" aria-hidden="true" d="" display="none"/></g><g transform="translate(0,0)"><path class="background" aria-hidden="true" d="M0,0h200v200h-200Z"/><g><g class="mark-line role-mark marks" role="graphics-object" aria-roledescription="line mark container"><path aria-label="Time: Aug 27, 2025; Price: 1199; identifier: allure-rs-1-2023" role="graphics-symbol" aria-roledescription="line mark" d="M51.952,66.778L52.398,66.778L52.841,66.778L53.015,66.778L53.665,66.778L54.991,66.778L55.665,66.778L56.373,66.778L56.987,66.778L57.636,66.778L58.964,66.778L59.635,66.778L60.341,66.778L60.958,66.778L61.606,66.778L62.932,66.778L63.598,66.778L64.301,66.778L64.921,66.778L65.546,66.778L65.576,66.778L66.907,66.778L67.331,66.778L67.569,66.778L68.276,66.778L68.896,66.778L69.55,66.778L70.892,66.778L71.56,66.778L72.265,66.778L72.873,66.778L73.522,66.778L74.859,66.778L75.53,66.778L76.24,66.778L76.849,66.778L77.498,66.778L78.826,66.778L79.496,66.778L80.204,66.778L80.819,66.778L81.469,66.778L82.798,66.778L83.471,66.778L84.173,66.778L84.795,66.778L85.441,66.778L86.772,66.778L87.442,66.778L88.148,66.778L88.76,66.778L89.415,66.778L90.74,66.778L91.081,66.778L91.403,66.778L92.104,66.778L92.726,66.778L93.385,66.778L94.712,66.778L95.376,66.778L96.079,66.778L96.699,66.778L97.358,66.778L98.691,66.778L99.367,66.778L100.076,66.778L100.686,66.778L101.336,66.778L102.662,66.778L103.338,66.778L104.071,66.778L104.661,66.778L105.305,66.778L106.63,66.778L107.307,66.778L108.011,66.778L108.627,66.778L109.279,66.778L110.608,66.778L111.278,66.778L111.982,66.778L112.592,66.778L113.248,66.778L114.577,66.778L115.249,66.778L115.953,66.778L116.567,66.778L117.221,66.778L118.547,66.778L119.212,66.778L119.914,66.778L120.532,66.778L121.194,66.778L122.522,66.778L123.185,66.778L123.884,66.778L124.504,66.778L125.167,66.778L126.501,66.778L127.17,66.778L127.881,66.778L128.493,66.778L129.142,66.778L130.47,66.778L131.146,66.778L131.852,66.778L132.463,66.778L133.115,66.778L134.444,66.778L135.116,66.778L135.825,66.778L136.437,66.778L137.087,66.778L138.416,66.778L139.087,66.778L139.796,66.778L140.407,66.778L141.06,66.778L142.389,66.778L143.06,66.778L143.768,66.778L144.382,66.778L145.031,66.778L146.359,66.778L147.026,66.778L147.728,66.778L148.343,66.778L149.002,66.778L150.333,66.778L150.995,66.778L151.7,66.778L152.319,66.778L152.977,66.778L154.308,66.778L154.984,66.778L155.691,66.778L156.294,66.778L156.953,66.778L158.279,66.778L158.953,66.778L159.66,66.778L160.276,66.778L160.925,66.778L162.253,66.778L162.928,66.778L163.634,66.778L164.251,66.778L164.895,66.778L166.226,66.778L166.902,66.778L167.61,66.778L168.223,66.778L168.867,66.778L170.197,66.778L170.872,66.778L171.578,66.778L172.192,66.778L172.84,66.778L174.169,66.778L174.831,66.778L175.535,66.778L176.154,66.778L176.813,66.778L178.142,66.778L178.804,66.778L179.509,66.778L180.124,66.778L180.785,66.778L182.118,66.778L182.794,66.778L183.502,66.778L184.096,66.778L184.76,66.778L186.089,66.778L186.769,66.778L187.474,66.778L188.083,66.778L188.733,66.778L190.064,66.778L190.738,66.778L191.448,66.778L192.057,66.778L192.706,66.778L194.032,66.778L194.704,66.778L195.41,66.778L196.029,66.778L196.677,66.778L198.003,66.778L198.677,66.778L199.381,66.778L199.999,66.778" stroke="#b279a2" stroke-width="2"/></g></g><path class="foreground" aria-hidden="true" d="" display="none"/></g><g transform="translate(0,0)"><path class="background" aria-hidden="true" d="M0,0h200v200h-200Z"/><g><g class="mark-line role-mark marks" role="graphics-object" aria-roledescription="line mark container"><path aria-label="Time: Aug 27, 2025; Price: 999; identifier: allure-rs-2-2022" role="graphics-symbol" aria-roledescription="line mark" d="M51.952,89L52.398,89L52.841,89L53.015,89L53.665,89L54.991,89L55.665,89L56.373,89L56.987,89L57.636,89L58.964,89L59.635,89L60.341,89L60.958,89L61.606,89L65.546,111.222L65.576,111.222L66.907,111.222L67.331,111.222L67.569,111.222L68.276,111.222L68.896,111.222L69.551,111.222L70.892,111.222L71.56,111.222L72.265,111.222L72.873,111.222L73.522,111.222L74.859,111.222L75.53,111.222L76.24,111.222L76.849,111.222L77.498,111.222L78.826,111.222L79.497,111.222L80.204,111.222L80.819,111.222L81.469,111.222L82.798,111.222L83.471,111.222L84.173,111.222L84.795,111.222L85.441,111.222L86.772,111.222L87.442,111.222L88.148,111.222L88.76,111.222L89.415,111.222L90.741,111.222L91.081,111.222L91.403,111.222L92.104,111.222L92.726,111.222L93.385,111.222L94.712,111.222L95.376,111.222L96.079,111.222L96.699,111.222L97.358,111.222L98.692,111.222L99.367,111.222L100.076,111.222L100.686,111.222L101.337,111.222L102.663,111.222L103.338,111.222L104.071,111.222L104.661,111.222L105.305,111.222L106.63,111.222L107.307,111.222L108.011,111.222L108.628,111.222L109.279,111.222L110.608,111.222L111.278,111.222L111.982,111.222L112.593,111.222L113.248,111.222L114.577,111.222L115.25,111.222L115.953,111.222L116.567,111.222L117.221,111.222L118.547,111.222L119.213,111.222L119.914,111.222L120.532,111.222L121.194,111.222L122.522,111.222L123.185,111.222L123.884,111.222L124.504,111.222L125.167,111.222L126.501,111.222L127.17,111.222L127.881,111.222L128.493,111.222L129.142,111.222L130.47,111.222L131.147,111.222L131.852,111.222L132.464,111.222L133.115,111.222L134.444,111.222L135.116,111.222L135.825,111.222L136.437,111.222L137.087,111.222L138.416,111.222L139.088,111.222L139.797,111.222L140.408,111.222L141.06,111.222L142.389,111.222L143.06,111.222L143.768,111.222L144.382,111.222L145.031,111.222L146.359,111.222L147.026,111.222L147.728,111.222L148.343,111.222L149.002,111.222L150.333,111.222L150.995,111.222L151.7,111.222L152.319,111.222L152.977,111.222L154.308,111.222L154.984,111.222L155.691,111.222L156.294,111.222L156.953,111.222L158.279,111.222L158.954,111.222L159.661,111.222L160.276,111.222L160.925,111.222L162.253,111.222L162.928,111.222L163.634,111.222L164.252,111.222L164.895,111.222L166.226,111.222L166.902,111.222L167.61,111.222L168.223,111.222L168.867,111.222L170.197,111.222L170.872,111.222L171.578,111.222L172.192,111.222L172.84,111.222L174.169,111.222L174.831,111.222L175.535,111.222L176.154,111.222L176.813,111.222L178.142,111.222L178.804,111.222L179.509,111.222L180.124,111.222L180.785,111.222L182.118,111.222L182.795,111.222L183.502,111.222L184.097,111.222L184.76,111.222L186.089,111.222L186.769,111.222L187.474,111.222L188.083,111.222L188.733,111.222L190.064,111.222L190.738,111.222L191.448,111.222L192.057,111.222L192.706,111.222L194.032,111.222L194.704,111.222L195.41,111.222L196.029,111.222L196.677,111.222L198.003,111.222L198.677,111.222L199.381,111.222L199.999,111.222" stroke="#54a24b" stroke-width="2"/></g></g><path class="foreground" aria-hidden="true" d="" display="none"/></g><g transform="translate(0,0)"><path class="background" aria-hidden="true" d="M0,0h200v200h-200Z"/><g><g class="mark-line role-mark marks" role="graphics-object" aria-roledescription="line mark container"><path aria-label="Time: Aug 27, 2025; Price: 949; identifier: allure-rs-2-2023" role="graphics-symbol" aria-roledescription="line mark" d="M51.952,94.556L52.398,94.556L52.841,94.556L53.015,94.556L53.665,94.556L54.992,94.556L55.665,94.556L56.373,94.556L56.987,94.556L57.636,94.556L58.964,94.556L59.635,94.556L60.341,94.556L60.958,94.556L61.606,94.556L62.933,94.556L63.598,94.556L64.301,94.556L64.921,94.556L65.546,94.556L65.576,94.556L66.907,94.556L67.331,94.556L67.569,94.556L68.276,94.556L68.896,94.556L69.551,94.556L70.892,94.556L71.56,94.556L72.265,94.556L72.874,94.556L73.523,94.556L74.859,94.556L75.53,94.556L76.24,94.556L76.849,94.556L77.498,94.556L78.826,94.556L79.497,94.556L80.204,94.556L80.819,94.556L81.469,94.556L82.798,94.556L83.471,94.556L84.173,94.556L84.795,94.556L85.441,94.556L86.772,94.556L87.443,94.556L88.148,94.556L88.76,94.556L89.415,94.556L90.741,94.556L91.081,94.556L91.404,94.556L92.104,94.556L92.726,94.556L93.385,94.556L94.712,94.556L95.376,94.556L96.079,94.556L96.699,94.556L97.358,94.556L98.692,94.556L99.367,94.556L100.076,94.556L100.686,94.556L101.337,94.556L102.663,94.556L103.338,94.556L104.071,94.556L104.661,94.556L105.305,94.556L106.63,94.556L107.307,94.556L108.011,94.556L108.628,94.556L109.279,94.556L110.608,94.556L111.278,94.556L111.982,94.556L112.593,94.556L113.249,94.556L114.577,94.556L115.25,94.556L115.953,94.556L116.567,94.556L117.221,94.556L118.548,94.556L119.213,94.556L119.914,94.556L120.532,94.556L121.194,94.556L122.522,94.556L123.186,94.556L123.884,94.556L124.504,94.556L125.167,94.556L126.501,94.556L127.171,94.556L127.881,94.556L128.493,94.556L129.142,94.556L130.47,94.556L131.147,94.556L131.852,94.556L132.464,94.556L133.115,94.556L134.444,94.556L135.116,94.556L135.825,94.556L136.437,94.556L137.087,94.556L138.416,94.556L139.088,94.556L139.797,94.556L140.408,94.556L141.061,94.556L142.389,94.556L143.06,94.556L143.768,94.556L144.382,94.556L145.031,94.556L146.359,94.556L147.026,94.556L147.728,94.556L148.343,94.556L149.002,94.556L150.333,94.556L150.995,94.556L151.7,94.556L152.319,94.556L152.977,94.556L154.308,94.556L154.984,94.556L155.691,94.556L156.294,94.556L156.953,94.556L158.279,94.556L158.954,94.556L159.661,94.556L160.276,94.556L160.925,94.556L162.253,94.556L162.928,94.556L163.634,94.556L164.252,94.556L164.895,94.556L166.226,94.556L166.902,94.556L167.61,94.556L168.223,94.556L168.867,94.556L170.197,94.556L170.872,94.556L171.578,94.556L172.192,94.556L172.84,94.556L174.169,94.556L174.831,94.556L175.535,94.556L176.154,94.556L176.813,94.556L178.142,94.556L178.805,94.556L179.509,94.556L180.124,94.556L180.785,94.556L182.118,94.556L182.795,94.556L183.502,94.556L184.097,94.556L184.76,94.556L186.089,94.556L186.769,94.556L187.474,94.556L188.083,94.556L188.733,94.556L190.064,94.556L190.739,94.556L191.448,94.556L192.057,94.556L192.706,94.556L194.032,94.556L194.705,94.556L195.41,94.556L196.029,94.556L196.677,94.556L198.003,94.556L198.677,94.556L199.381,94.556L199.999,94.556" stroke="#bab0ac" stroke-width="2"/></g></g><path class="foreground" aria-hidden="true" d="" display="none"/></g><g transform="translate(0,0)"><path class="background" aria-hidden="true" d="M0,0h200v200h-200Z"/><g><g class="mark-line role-mark marks" role="graphics-object" aria-roledescription="line mark container"><path aria-label="Time: Aug 27, 2025; Price: 999; identifier: allure-rs-2-2024" role="graphics-symbol" aria-roledescription="line mark" d="M51.953,89L52.398,89L52.841,89L53.015,89L53.665,89L54.992,89L55.665,89L56.373,89L56.987,89L57.636,89L58.964,89L59.635,89L60.341,89L60.958,89L61.607,89L65.546,111.222L65.577,111.222L66.907,111.222L67.331,111.222L67.569,111.222L68.276,111.222L68.896,111.222L69.551,111.222L70.892,111.222L71.56,111.222L72.265,111.222L72.874,111.222L73.523,111.222L74.859,111.222L75.53,111.222L76.24,111.222L76.849,111.222L77.498,111.222L78.826,111.222L79.497,111.222L80.204,111.222L80.82,111.222L81.469,111.222L82.798,111.222L83.471,111.222L84.173,111.222L84.795,111.222L85.441,111.222L86.772,111.222L87.443,111.222L88.148,111.222L88.76,111.222L89.415,111.222L90.741,111.222L91.081,111.222L91.404,111.222L92.104,111.222L92.726,111.222L93.386,111.222L94.712,111.222L95.376,111.222L96.08,111.222L96.699,111.222L97.358,111.222L98.692,111.222L99.367,111.222L100.076,111.222L100.686,111.222L101.337,111.222L102.663,111.222L103.338,111.222L104.071,111.222L104.661,111.222L105.305,111.222L106.63,111.222L107.307,111.222L108.011,111.222L108.628,111.222L109.279,111.222L110.608,111.222L111.278,111.222L111.982,111.222L112.593,111.222L113.249,111.222L114.577,111.222L115.25,111.222L115.953,111.222L116.567,111.222L117.221,111.222L118.548,111.222L119.213,111.222L119.914,111.222L120.532,111.222L121.194,111.222L122.522,111.222L123.186,111.222L123.884,111.222L124.504,111.222L125.167,111.222L126.501,111.222L127.171,111.222L127.881,111.222L128.493,111.222L129.143,111.222L130.47,111.222L131.147,111.222L131.852,111.222L132.464,111.222L133.116,111.222L134.444,111.222L135.116,111.222L135.825,111.222L136.437,111.222L137.088,111.222L138.416,111.222L139.088,111.222L139.797,111.222L140.408,111.222L141.061,111.222L142.389,111.222L143.06,111.222L143.768,111.222L144.383,111.222L145.031,111.222L146.359,111.222L147.026,111.222L147.729,111.222L148.343,111.222L149.002,111.222L150.333,111.222L150.995,111.222L151.7,111.222L152.319,111.222L152.977,111.222L154.308,111.222L154.984,111.222L155.691,111.222L156.294,111.222L156.953,111.222L158.28,111.222L158.954,111.222L159.661,111.222L160.276,111.222L160.925,111.222L162.253,111.222L162.928,111.222L163.634,111.222L164.252,111.222L164.895,111.222L166.226,111.222L166.902,111.222L167.61,111.222L168.223,111.222L168.867,111.222L170.197,111.222L170.872,111.222L171.578,111.222L172.192,111.222L172.84,111.222L174.169,111.222L174.832,111.222L175.535,111.222L176.154,111.222L176.813,111.222L178.142,111.222L178.805,111.222L179.509,111.222L180.124,111.222L180.785,111.222L182.118,111.222L182.795,111.222L183.502,111.222L184.097,111.222L184.76,111.222L186.089,111.222L186.769,111.222L187.474,111.222L188.083,111.222L188.733,111.222L190.065,111.222L190.739,111.222L191.448,111.222L192.057,111.222L192.706,111.222L194.032,111.222L194.705,111.222L195.41,111.222L196.029,111.222L196.677,111.222L198.004,111.222L198.677,111.222L199.381,111.222L200,111.222" stroke="#eeca3b" stroke-width="2"/></g></g><path class="foreground" aria-hidden="true" d="" display="none"/></g><g transform="translate(0,0)"><path class="background" aria-hidden="true" d="M0,0h200v200h-200Z"/><g><g class="mark-line role-mark marks" role="graphics-object" aria-roledescription="line mark container"><path aria-label="Time: Aug 27, 2025; Price: 1799; identifier: devote-1-2024" role="graphics-symbol" aria-roledescription="line mark" d="M52.841,0.111L53.015,0.111L53.665,0.111L54.992,0.111L55.665,0.111L56.373,0.111L56.987,0.111L57.636,0.111L58.965,0.111L59.635,0.111L60.341,0.111L60.958,0.111L61.607,0.111L65.546,44.556L65.577,44.556L66.907,44.556L67.331,44.556L67.57,44.556L68.276,44.556L68.896,44.556L69.551,44.556L70.892,44.556L71.56,44.556L72.265,44.556L72.874,44.556L73.523,44.556L74.859,44.556L75.53,44.556L76.241,44.556L76.849,44.556L77.498,44.556L78.826,44.556L79.497,44.556L80.204,44.556L80.82,44.556L81.469,44.556L82.798,44.556L83.471,44.556L84.173,44.556L84.795,44.556L85.441,44.556L86.772,44.556L87.443,44.556L88.148,44.556L88.76,44.556L89.415,44.556L90.741,44.556L91.081,44.556L91.404,44.556L92.105,44.556L92.726,44.556L93.386,44.556L94.712,44.556L95.376,44.556L96.08,44.556L96.699,44.556L97.358,44.556L98.692,44.556L99.367,44.556L100.076,44.556L100.686,44.556L101.337,44.556L102.663,44.556L103.338,44.556L104.071,44.556L104.662,44.556L105.305,44.556L106.63,44.556L107.307,44.556L108.012,44.556L108.628,44.556L109.28,44.556L110.608,44.556L111.279,44.556L111.983,44.556L112.593,44.556L113.249,44.556L114.578,44.556L115.25,44.556L115.954,44.556L116.567,44.556L117.221,44.556L118.548,44.556L119.213,44.556L119.914,44.556L120.532,44.556L121.194,44.556L122.522,44.556L123.186,44.556L123.884,44.556L124.504,44.556L125.167,44.556L126.501,44.556L127.171,44.556L127.881,44.556L128.494,44.556L129.143,44.556L130.47,44.556L131.147,44.556L131.852,44.556L132.464,44.556L133.116,44.556L134.445,44.556L135.116,44.556L135.825,44.556L136.437,44.556L137.088,44.556L138.417,44.556L139.088,44.556L139.797,44.556L140.408,44.556L141.061,44.556L142.389,44.556L143.061,44.556L143.768,44.556L144.383,44.556L145.031,44.556L146.359,44.556L147.026,44.556L147.729,44.556L148.343,44.556L149.002,44.556L150.333,44.556L150.995,44.556L151.7,44.556L152.319,44.556L152.977,44.556L154.308,44.556L154.984,44.556L155.691,44.556L156.295,44.556L156.953,44.556L158.28,44.556L158.954,44.556L159.661,44.556L160.276,44.556L160.925,44.556L162.254,44.556L162.928,44.556L163.634,44.556L164.252,44.556L164.895,44.556L166.226,44.556L166.902,44.556L167.61,44.556L168.223,44.556L168.867,44.556L170.197,44.556L170.872,44.556L171.578,44.556L172.192,44.556L172.84,44.556L174.169,44.556L174.832,44.556L175.535,44.556L176.154,44.556L176.813,44.556L178.142,44.556L178.805,44.556L179.509,44.556L180.124,44.556L180.785,44.556L182.119,44.556L182.795,44.556L183.502,44.556L184.097,44.556L184.76,44.556L186.09,44.556L186.769,44.556L187.474,44.556L188.083,44.556L188.733,44.556L190.065,44.556L190.739,44.556L191.448,44.556L192.057,44.556L192.706,44.556L194.032,44.556L194.705,44.556L195.41,44.556L196.029,44.556L196.677,44.556L198.004,44.556L198.677,44.556L199.381,44.556L200,44.556" stroke="#72b7b2" stroke-width="2"/></g></g><path class="foreground" aria-hidden="true" d="" display="none"/></g><g transform="translate(0,0)"><path class="background" aria-hidden="true" d="M0,0h200v200h-200Z"/><g><g class="mark-line role-mark marks" role="graphics-object" aria-roledescription="line mark container"><path aria-label="Time: Aug 27, 2025; Price: 1699; identifier: devote-1-2022" role="graphics-symbol" aria-roledescription="line mark" d="M52.841,11.222L53.015,11.222L53.665,11.222L54.992,11.222L55.665,11.222L56.373,11.222L56.987,11.222L57.636,11.222L58.965,11.222L59.635,11.222L60.341,11.222L60.958,11.222L61.607,11.222L62.933,11.222L63.599,11.222L64.302,11.222L64.921,11.222L65.546,11.222L65.577,11.222L66.907,11.222L67.331,11.222L67.57,11.222L68.276,11.222L68.896,11.222L69.551,11.222L70.893,11.222L71.56,11.222L72.265,11.222L72.874,11.222L73.523,11.222L74.859,11.222L75.531,11.222L76.241,11.222L76.849,11.222L77.498,11.222L78.826,11.222L79.497,11.222L80.205,11.222L80.82,11.222L81.469,11.222L82.798,11.222L83.471,11.222L84.174,11.222L84.795,11.222L85.441,11.222L86.772,11.222L87.443,11.222L88.148,11.222L88.76,11.222L89.415,11.222L90.741,11.222L91.082,11.222L91.404,11.222L92.105,11.222L92.726,11.222L93.386,11.222L94.712,11.222L95.376,11.222L96.08,11.222L96.699,11.222L97.358,11.222L98.692,11.222L99.368,11.222L100.076,11.222L100.686,11.222L101.337,11.222L102.663,11.222L103.339,11.222L104.071,11.222L104.662,11.222L105.305,11.222L106.63,11.222L107.307,11.222L108.012,11.222L108.628,11.222L109.28,11.222L110.608,11.222L111.279,11.222L111.983,11.222L112.593,11.222L113.249,11.222L114.578,11.222L115.25,11.222L115.954,11.222L116.567,11.222L117.221,11.222L118.548,11.222L119.213,11.222L119.914,11.222L120.532,11.222L121.194,11.222L122.522,11.222L123.186,11.222L123.884,11.222L124.504,11.222L125.167,11.222L126.501,11.222L127.171,11.222L127.881,11.222L128.494,11.222L129.144,11.222L130.471,11.222L131.147,11.222L131.853,11.222L132.464,11.222L133.116,11.222L134.445,11.222L135.116,11.222L135.825,11.222L136.438,11.222L137.088,11.222L138.417,11.222L139.088,11.222L139.797,11.222L140.408,11.222L141.061,11.222L142.389,11.222L143.061,11.222L143.768,11.222L144.383,11.222L145.031,11.222L146.359,11.222L147.026,11.222L147.729,11.222L148.343,11.222L149.003,11.222L150.333,11.222L150.996,11.222L151.7,11.222L152.319,11.222L152.977,11.222L154.308,11.222L154.985,11.222L155.691,11.222L156.295,11.222L156.953,11.222L158.28,11.222L158.954,11.222L159.661,11.222L160.276,11.222L160.926,11.222L162.254,11.222L162.928,11.222L163.634,11.222L164.252,11.222L164.895,11.222L166.227,11.222L166.902,11.222L167.61,11.222L168.223,11.222L168.867,11.222L170.197,11.222L170.873,11.222L171.578,11.222L172.192,11.222L172.84,11.222L174.169,11.222L174.832,11.222L175.535,11.222L176.154,11.222L176.813,11.222L178.142,11.222L178.805,11.222L179.509,11.222L180.124,11.222L180.785,11.222L182.119,11.222L182.795,11.222L183.502,11.222L184.097,11.222L184.76,11.222L186.09,11.222L186.769,11.222L187.474,11.222L188.083,11.222L188.733,11.222L190.065,11.222L190.739,11.222L191.448,11.222L192.057,11.222L192.707,11.222L194.032,11.222L194.705,11.222L195.41,11.222L196.029,11.222L196.677,11.222L198.004,11.222L198.677,11.222L199.381,11.222L200,11.222" stroke="#4c78a8" stroke-width="2"/></g></g><path class="foreground" aria-hidden="true" d="" display="none"/></g><g transform="translate(0,0)"><path class="background" aria-hidden="true" d="M0,0h200v200h-200Z"/><g><g class="mark-line role-mark marks" role="graphics-object" aria-roledescription="line mark container"><path aria-label="Time: Aug 31, 2025; Price: 1599; identifier: silex-400-oak-bork-2026" role="graphics-symbol" aria-roledescription="line mark" d="M67.332,22.333L67.57,22.333L68.276,22.333L68.896,22.333L69.551,22.333L70.893,22.333L71.56,22.333L72.266,22.333L72.874,22.333L73.523,22.333L74.859,22.333L75.531,22.333L76.241,22.333L76.849,22.333L77.498,22.333L78.827,22.333L79.497,22.333L80.205,22.333L80.82,22.333L81.47,22.333L82.798,22.333L83.471,22.333L84.174,22.333L84.796,22.333L85.442,22.333L86.773,22.333L87.443,22.333L88.149,22.333L88.761,22.333L89.415,22.333L90.741,22.333L91.082,22.333L91.404,22.333L92.105,22.333L92.727,22.333L93.386,22.333L94.712,22.333L95.376,22.333L96.08,22.333L96.7,22.333L97.358,22.333L98.692,22.333L99.368,22.333L100.076,22.333L100.686,22.333L101.337,22.333L102.663,22.333L103.339,22.333L104.071,22.333L104.662,22.333L105.305,22.333L106.63,22.333L107.308,22.333L108.012,22.333L108.628,22.333L109.28,22.333L110.608,22.333L111.279,22.333L111.983,22.333L112.593,22.333L113.249,22.333L114.578,22.333L115.25,22.333L115.954,22.333L116.567,22.333L117.221,22.333L118.548,22.333L119.213,22.333L119.915,22.333L120.533,22.333L121.195,22.333L122.522,22.333L123.186,22.333L123.884,22.333L124.504,22.333L125.167,22.333L126.501,22.333L127.171,22.333L127.881,22.333L128.494,22.333L129.144,22.333L130.471,22.333L131.147,22.333L131.853,22.333L132.464,22.333L133.116,22.333L134.445,22.333L135.116,22.333L135.826,22.333L136.438,22.333L137.088,22.333L138.417,22.333L139.088,22.333L139.797,22.333L140.408,22.333L141.061,22.333L142.39,22.333L143.061,22.333L143.768,22.333L144.383,22.333L145.031,22.333L146.359,22.333L147.026,22.333L147.729,22.333L148.343,22.333L149.003,22.333L150.334,22.333L150.996,22.333L151.7,22.333L152.319,22.333L152.977,22.333L154.308,22.333L154.985,22.333L155.692,22.333L156.295,22.333L156.953,22.333L158.28,22.333L158.954,22.333L159.661,22.333L160.277,22.333L160.926,22.333L162.254,22.333L162.928,22.333L163.635,22.333L164.252,22.333L164.896,22.333L166.227,22.333L166.902,22.333L167.611,22.333L168.224,22.333L168.867,22.333L170.198,22.333L170.873,22.333L171.579,22.333L172.192,22.333L172.841,22.333L174.17,22.333L174.832,22.333L175.535,22.333L176.154,22.333L176.814,22.333L178.142,22.333L178.805,22.333L179.51,22.333L180.124,22.333L180.785,22.333L182.119,22.333L182.795,22.333L183.503,22.333L184.097,22.333L184.76,22.333L186.09,22.333L186.77,22.333L187.475,22.333L188.083,22.333L188.734,22.333L190.065,22.333L190.739,22.333L191.448,22.333L192.058,22.333L192.707,22.333L194.032,22.333L194.705,22.333L195.41,22.333L196.029,22.333L196.677,22.333L198.004,22.333L198.678,22.333L199.381,22.333L200,22.333" stroke="#f58518" stroke-width="2"/></g></g><path class="foreground" aria-hidden="true" d="" display="none"/></g><g transform="translate(0,0)"><path class="background" aria-hidden="true" d="M0,0h200v200h-200Z"/><g><g class="mark-line role-mark marks" role="graphics-object" aria-roledescription="line mark container"><path aria-label="Time: Aug 31, 2025; Price: 1599; identifier: silex-400-warm-slate-grey-2026" role="graphics-symbol" aria-roledescription="line mark" d="M67.332,22.333L67.57,22.333L68.277,22.333L68.896,22.333L69.551,22.333L70.893,22.333L71.561,22.333L72.266,22.333L72.874,22.333L73.523,22.333L74.859,22.333L75.531,22.333L76.241,22.333L76.849,22.333L77.499,22.333L78.827,22.333L79.497,22.333L80.205,22.333L80.82,22.333L81.47,22.333L82.799,22.333L83.471,22.333L84.174,22.333L84.796,22.333L85.442,22.333L86.773,22.333L87.443,22.333L88.149,22.333L88.761,22.333L89.416,22.333L90.741,22.333L91.082,22.333L91.404,22.333L92.105,22.333L92.727,22.333L93.386,22.333L94.713,22.333L95.376,22.333L96.08,22.333L96.7,22.333L97.358,22.333L98.692,22.333L99.368,22.333L100.076,22.333L100.687,22.333L101.337,22.333L102.663,22.333L103.339,22.333L104.072,22.333L104.662,22.333L105.305,22.333L106.63,22.333L107.308,22.333L108.012,22.333L108.628,22.333L109.28,22.333L110.609,22.333L111.279,22.333L111.983,22.333L112.593,22.333L113.249,22.333L114.578,22.333L115.25,22.333L115.954,22.333L116.568,22.333L117.222,22.333L118.548,22.333L119.213,22.333L119.915,22.333L120.533,22.333L121.195,22.333L122.522,22.333L123.186,22.333L123.885,22.333L124.504,22.333L125.167,22.333L126.502,22.333L127.171,22.333L127.881,22.333L128.494,22.333L129.144,22.333L130.471,22.333L131.147,22.333L131.853,22.333L132.464,22.333L133.116,22.333L134.445,22.333L135.117,22.333L135.826,22.333L136.438,22.333L137.088,22.333L138.417,22.333L139.088,22.333L139.797,22.333L140.408,22.333L141.061,22.333L142.39,22.333L143.061,22.333L143.768,22.333L144.383,22.333L145.031,22.333L146.36,22.333L147.026,22.333L147.729,22.333L148.344,22.333L149.003,22.333L150.334,22.333L150.996,22.333L151.701,22.333L152.32,22.333L152.977,22.333L154.309,22.333L154.985,22.333L155.692,22.333L156.295,22.333L156.954,22.333L158.28,22.333L158.954,22.333L159.661,22.333L160.277,22.333L160.926,22.333L162.254,22.333L162.928,22.333L163.636,22.333L164.252,22.333L164.896,22.333L166.227,22.333L166.903,22.333L167.611,22.333L168.224,22.333L168.868,22.333L170.198,22.333L170.873,22.333L171.579,22.333L172.193,22.333L172.841,22.333L174.17,22.333L174.832,22.333L175.535,22.333L176.155,22.333L176.814,22.333L178.142,22.333L178.805,22.333L179.51,22.333L180.124,22.333L180.785,22.333L182.119,22.333L182.795,22.333L183.503,22.333L184.097,22.333L184.761,22.333L186.09,22.333L186.77,22.333L187.475,22.333L188.083,22.333L188.734,22.333L190.065,22.333L190.739,22.333L191.448,22.333L192.058,22.333L192.707,22.333L194.032,22.333L194.705,22.333L195.411,22.333L196.03,22.333L196.677,22.333L198.004,22.333L198.678,22.333L199.382,22.333L200,22.333" stroke="#e45756" stroke-width="2"/></g></g><path class="foreground" aria-hidden="true" d="" display="none"/></g></g><g class="mark-group role-legend" role="graphics-symbol" aria-roledescription="legend" aria-label="Symbol legend titled 'identifier' for stroke color with 16 values: devote-1-2022, silex-400-oak-bork-2026, silex-400-warm-slate-grey-2026, devote-1-2024, fastroad-ar-2, ending with allure-rs-2-2024"><g transform="translate(220,0)"><path class="background" aria-hidden="true" d="M0,0h256v222h-256Z" pointer-events="none"/><g><g class="mark-group role-legend-entry"><g transform="translate(0,16)"><path class="background" aria-hidden="true" d="M0,0h0v0h0Z" pointer-events="none"/><g><g class="mark-group role-scope" role="graphics-object" aria-roledescription="group mark container"><g transform="translate(0,0)"><path class="background" aria-hidden="true" d="M0,0h256v11h-256Z" pointer-events="none" opacity="1"/><g><g class="mark-symbol role-legend-symbol" pointer-events="none"><path transform="translate(6,6)" d="M-5,0L5,0" stroke="#4c78a8" stroke-width="1.5" opacity="1"/></g><g class="mark-text role-legend-label" pointer-events="none"><text text-anchor="start" transform="translate(16,9)" font-family="Liberation Mono" font-size="10px" fill="#000" opacity="1">devote-1-2022</text></g></g><path class="foreground" aria-hidden="true" d="" pointer-events="none" display="none"/></g><g transform="translate(0,13)"><path class="background" aria-hidden="true" d="M0,0h256v11h-256Z" pointer-events="none" opacity="1"/><g><g class="mark-symbol role-legend-symbol" pointer-events="none"><path transform="translate(6,6)" d="M-5,0L5,0" stroke="#f58518" stroke-width="1.5" opacity="1"/></g><g class="mark-text role-legend-label" pointer-events="none"><text text-anchor="start" transform="translate(16,9)" font-family="Liberation Mono" font-size="10px" fill="#000" opacity="1">silex-400-oak-bork-2026</text></g></g><path class="foreground" aria-hidden="true" d="" pointer-events="none" display="none"/></g><g transform="translate(0,26)"><path class="background" aria-hidden="true" d="M0,0h256v11h-256Z" pointer-events="none" opacity="1"/><g><g class="mark-symbol role-legend-symbol" pointer-events="none"><path transform="translate(6,6)" d="M-5,0L5,0" stroke="#e45756" stroke-width="1.5" opacity="1"/></g><g class="mark-text role-legend-label" pointer-events="none"><text text-anchor="start" transform="translate(16,9)" font-family="Liberation Mono" font-size="10px" fill="#000" opacity="1">silex-400-warm-slate-grey-2026</text></g></g><path class="foreground" aria-hidden="true" d="" pointer-events="none" display="none"/></g><g transform="translate(0,39)"><path class="background" aria-hidden="true" d="M0,0h256v11h-256Z" pointer-events="none" opacity="1"/><g><g class="mark-symbol role-legend-symbol" pointer-events="none"><path transform="translate(6,6)" d="M-5,0L5,0" stroke="#72b7b2" stroke-width="1.5" opacity="1"/></g><g class="mark-text role-legend-label" pointer-events="none"><text text-anchor="start" transform="translate(16,9)" font-family="Liberation Mono" font-size="10px" fill="#000" opacity="1">devote-1-2024</text></g></g><path class="foreground" aria-hidden="true" d="" pointer-events="none" display="none"/></g><g transform="translate(0,52)"><path class="background" aria-hidden="true" d="M0,0h256v11h-256Z" pointer-events="none" opacity="1"/><g><g class="mark-symbol role-legend-symbol" pointer-events="none"><path transform="translate(6,6)" d="M-5,0L5,0" stroke="#54a24b" stroke-width="1.5" opacity="1"/></g><g class="mark-text role-legend-label" pointer-events="none"><text text-anchor="start" transform="translate(16,9)" font-family="Liberation Mono" font-size="10px" fill="#000" opacity="1">fastroad-ar-2</text></g></g><path class="foreground" aria-hidden="true" d="" pointer-events="none" display="none"/></g><g transform="translate(0,65)"><path class="background" aria-hidden="true" d="M0,0h256v11h-256Z" pointer-events="none" opacity="1"/><g><g class="mark-symbol role-legend-symbol" pointer-events="none"><path transform="translate(6,6)" d="M-5,0L5,0" stroke="#eeca3b" stroke-width="1.5" opacity="1"/></g><g class="mark-text role-legend-label" pointer-events="none"><text text-anchor="start" transform="translate(16,9)" font-family="Liberation Mono" font-size="10px" fill="#000" opacity="1">thrive-2</text></g></g><path class="foreground" aria-hidden="true" d="" pointer-events="none" display="none"/></g><g transform="translate(0,78)"><path class="background" aria-hidden="true" d="M0,0h256v11h-256Z" pointer-events="none" opacity="1"/><g><g class="mark-symbol role-legend-symbol" pointer-events="none"><path transform="translate(6,6)" d="M-5,0L5,0" stroke="#b279a2" stroke-width="1.5" opacity="1"/></g><g class="mark-text role-legend-label" pointer-events="none"><text text-anchor="start" transform="translate(16,9)" font-family="Liberation Mono" font-size="10px" fill="#000" opacity="1">allure-rs-1-2023</text></g></g><path class="foreground" aria-hidden="true" d="" pointer-events="none" display="none"/></g><g transform="translate(0,91)"><path class="background" aria-hidden="true" d="M0,0h256v11h-256Z" pointer-events="none" opacity="1"/><g><g class="mark-symbol role-legend-symbol" pointer-events="none"><path transform="translate(6,6)" d="M-5,0L5,0" stroke="#ff9da6" stroke-width="1.5" opacity="1"/></g><g class="mark-text role-legend-label" pointer-events="none"><text text-anchor="start" transform="translate(16,9)" font-family="Liberation Mono" font-size="10px" fill="#000" opacity="1">roam-2</text></g></g><path class="foreground" aria-hidden="true" d="" pointer-events="none" display="none"/></g><g transform="translate(0,104)"><path class="background" aria-hidden="true" d="M0,0h256v11h-256Z" pointer-events="none" opacity="1"/><g><g class="mark-symbol role-legend-symbol" pointer-events="none"><path transform="translate(6,6)" d="M-5,0L5,0" stroke="#9d755d" stroke-width="1.5" opacity="1"/></g><g class="mark-text role-legend-label" pointer-events="none"><text text-anchor="start" transform="translate(16,9)" font-family="Liberation Mono" font-size="10px" fill="#000" opacity="1">fastroad-sl-3-2022</text></g></g><path class="foreground" aria-hidden="true" d="" pointer-events="none" display="none"/></g><g transform="translate(0,117)"><path class="background" aria-hidden="true" d="M0,0h256v11h-256Z" pointer-events="none" opacity="1"/><g><g class="mark-symbol role-legend-symbol" pointer-events="none"><path transform="translate(6,6)" d="M-5,0L5,0" stroke="#bab0ac" stroke-width="1.5" opacity="1"/></g><g class="mark-text role-legend-label" pointer-events="none"><text text-anchor="start" transform="translate(16,9)" font-family="Liberation Mono" font-size="10px" fill="#000" opacity="1">allure-rs-2-2023</text></g></g><path class="foreground" aria-hidden="true" d="" pointer-events="none" display="none"/></g><g transform="translate(0,130)"><path class="background" aria-hidden="true" d="M0,0h256v11h-256Z" pointer-events="none" opacity="1"/><g><g class="mark-symbol role-legend-symbol" pointer-events="none"><path transform="translate(6,6)" d="M-5,0L5,0" stroke="#4c78a8" stroke-width="1.5" opacity="1"/></g><g class="mark-text role-legend-label" pointer-events="none"><text text-anchor="start" transform="translate(16,9)" font-family="Liberation Mono" font-size="10px" fill="#000" opacity="1">escape-city-disc-1-2024</text></g></g><path class="foreground" aria-hidden="true" d="" pointer-events="none" display="none"/></g><g transform="translate(0,143)"><path class="background" aria-hidden="true" d="M0,0h256v11h-256Z" pointer-events="none" opacity="1"/><g><g class="mark-symbol role-legend-symbol" pointer-events="none"><path transform="translate(6,6)" d="M-5,0L5,0" stroke="#f58518" stroke-width="1.5" opacity="1"/></g><g class="mark-text role-legend-label" pointer-events="none"><text text-anchor="start" transform="translate(16,9)" font-family="Liberation Mono" font-size="10px" fill="#000" opacity="1">sdrbike-escape-1-city-disc</text></g></g><path class="foreground" aria-hidden="true" d="" pointer-events="none" display="none"/></g><g transform="translate(0,156)"><path class="background" aria-hidden="true" d="M0,0h256v11h-256Z" pointer-events="none" opacity="1"/><g><g class="mark-symbol role-legend-symbol" pointer-events="none"><path transform="translate(6,6)" d="M-5,0L5,0" stroke="#e45756" stroke-width="1.5" opacity="1"/></g><g class="mark-text role-legend-label" pointer-events="none"><text text-anchor="start" transform="translate(16,9)" font-family="Liberation Mono" font-size="10px" fill="#000" opacity="1">roam-disc-2-2024</text></g></g><path class="foreground" aria-hidden="true" d="" pointer-events="none" display="none"/></g><g transform="translate(0,169)"><path class="background" aria-hidden="true" d="M0,0h256v11h-256Z" pointer-events="none" opacity="1"/><g><g class="mark-symbol role-legend-symbol" pointer-events="none"><path transform="translate(6,6)" d="M-5,0L5,0" stroke="#72b7b2" stroke-width="1.5" opacity="1"/></g><g class="mark-text role-legend-label" pointer-events="none"><text text-anchor="start" transform="translate(16,9)" font-family="Liberation Mono" font-size="10px" fill="#000" opacity="1">rove-2</text></g></g><path class="foreground" aria-hidden="true" d="" pointer-events="none" display="none"/></g><g transform="translate(0,182)"><path class="background" aria-hidden="true" d="M0,0h256v11h-256Z" pointer-events="none" opacity="1"/><g><g class="mark-symbol role-legend-symbol" pointer-events="none"><path transform="translate(6,6)" d="M-5,0L5,0" stroke="#54a24b" stroke-width="1.5" opacity="1"/></g><g class="mark-text role-legend-label" pointer-events="none"><text text-anchor="start" transform="translate(16,9)" font-family="Liberation Mono" font-size="10px" fill="#000" opacity="1">allure-rs-2-2022</text></g></g><path class="foreground" aria-hidden="true" d="" pointer-events="none" display="none"/></g><g transform="translate(0,195)"><path class="background" aria-hidden="true" d="M0,0h256v11h-256Z" pointer-events="none" opacity="1"/><g><g class="mark-symbol role-legend-symbol" pointer-events="none"><path transform="translate(6,6)" d="M-5,0L5,0" stroke="#eeca3b" stroke-width="1.5" opacity="1"/></g><g class="mark-text role-legend-label" pointer-events="none"><text text-anchor="start" transform="translate(16,9)" font-family="Liberation Mono" font-size="10px" fill="#000" opacity="1">allure-rs-2-2024</text></g></g><path class="foreground" aria-hidden="true" d="" pointer-events="none" display="none"/></g></g></g><path class="foreground" aria-hidden="true" d="" pointer-events="none" display="none"/></g></g><g class="mark-text role-legend-title" pointer-events="none"><text text-anchor="start" transform="translate(0,9)" font-family="Liberation Mono" font-size="11px" font-weight="bold" fill="#000" opacity="1">identifier</text></g></g><path class="foreground" aria-hidden="true" d="" pointer-events="none" display="none"/></g></g></g><path class="foreground" aria-hidden="true" d="" display="none"/></g></g></g></svg>