<svg xmlns="http://www.w3.org/2000/svg" xmlns:xlink="http://www.w3.org/1999/xlink" version="1.1" class="marks" width="548" height="244" viewBox="0 0 548 244"><rect width="548" height="244" fill="white"/><g fill="none" stroke-miterlimit="10" transform="translate(67,7)"><g class="mark-group role-frame root" role="graphics-object" aria-roledescription="group mark container"><g transform="translate(0,0)"><path class="background" aria-hidden="true" d="M0.5,0.5h200v200h-200Z" stroke="#ddd"/><g><g class="mark-group role-axis" aria-hidden="true"><g transform="translate(0.5,200.5)"><path class="background" aria-hidden="true" d="M0,0h0v0h0Z" pointer-events="none"/><g><g class="mark-rule role-axis-grid" pointer-events="none"><line transform="translate(8,-200)" x2="0" y2="200" stroke="#ddd" stroke-width="1" opacity="1"/><line transform="translate(28,-200)" x2="0" y2="200" stroke="#ddd" stroke-width="1" opacity="1"/><line transform="translate(49,-200)" x2="0" y2="200" stroke="#ddd" stroke-width="1" opacity="1"/><line transform="translate(69,-200)" x2="0" y2="200" stroke="#ddd" stroke-width="1" opacity="1"/><line transform="translate(90,-200)" x2="0" y2="200" stroke="#ddd" stroke-width="1" opacity="1"/><line transform="translate(110,-200)" x2="0" y2="200" stroke="#ddd" stroke-width="1" opacity="1"/><line transform="translate(131,-200)" x2="0" y2="200" stroke="#ddd" stroke-width="1" opacity="1"/><line transform="translate(151,-200)" x2="0" y2="200" stroke="#ddd" stroke-width="1" opacity="1"/><line transform="translate(172,-200)" x2="0" y2="200" stroke="#ddd" stroke-width="1" opacity="1"/><line transform="translate(193,-200)" x2="0" y2="200" stroke="#ddd" stroke-width="1" opacity="1"/></g></g><path class="foreground" aria-hidden="true" d="" pointer-events="none" display="none"/></g></g><g class="mark-group role-axis" aria-hidden="true"><g transform="translate(0.5,0.5)"><path class="background" aria-hidden="true" d="M0,0h0v0h0Z" pointer-events="none"/><g><g class="mark-rule role-axis-grid" pointer-events="none"><line transform="translate(0,200)" x2="200" y2="0" stroke="#ddd" stroke-width="1" opacity="1"/><line transform="translate(0,144)" x2="200" y2="0" stroke="#ddd" stroke-width="1" opacity="1"/><line transform="translate(0,89)" x2="200" y2="0" stroke="#ddd" stroke-width="1" opacity="1"/><line transform="translate(0,33)" x2="200" y2="0" stroke="#ddd" stroke-width="1" opacity="1"/></g></g><path class="foreground" aria-hidden="true" d="" pointer-events="none" display="none"/></g></g><g class="mark-group role-axis" role="graphics-symbol" aria-roledescription="axis" aria-label="X-axis titled 'Time' for a time scale with values from Thursday, 14 August 2025, 8:34:48 AM to Tuesday, 21 October 2025, 1:20:28 PM"><g transform="translate(0.5,200.5)"><path class="background" aria-hidden="true" d="M0,0h0v0h0Z" pointer-events="none"/><g><g class="mark-rule role-axis-tick" pointer-events="none"><line transform="translate(8,0)" x2="0" y2="5" stroke="#888" stroke-width="1" opacity="1"/><line transform="translate(28,0)" x2="0" y2="5" stroke="#888" stroke-width="1" opacity="1"/><line transform="translate(49,0)" x2="0" y2="5" stroke="#888" stroke-width="1" opacity="1"/><line transform="translate(69,0)" x2="0" y2="5" stroke="#888" stroke-width="1" opacity="1"/><line transform="translate(90,0)" x2="0" y2="5" stroke="#888" stroke-width="1" opacity="1"/><line transform="translate(110,0)" x2="0" y2="5" stroke="#888" stroke-width="1" opacity="1"/><line transform="translate(131,0)" x2="0" y2="5" stroke="#888" stroke-width="1" opacity="1"/><line transform="translate(151,0)" x2="0" y2="5" stroke="#888" stroke-width="1" opacity="1"/><line transform="translate(172,0)" x2="0" y2="5" stroke="#888" stroke-width="1" opacity="1"/><line transform="translate(193,0)" x2="0" y2="5" stroke="#888" stroke-width="1" opacity="1"/></g><g class="mark-text role-axis-label" pointer-events="none"><text text-anchor="middle" transform="translate(7.749426011900804,15)" font-family="Liberation Mono" font-size="10px" fill="#000" opacity="1">Aug 17</text><text text-anchor="middle" transform="translate(28.277774722879123,15)" font-family="Liberation Mono" font-size="10px" fill="#000" opacity="0">Aug 24</text><text text-anchor="middle" transform="translate(48.806123433857444,15)" font-family="Liberation Mono" font-size="10px" fill="#000" opacity="0">Aug 31</text><text text-anchor="middle" transform="translate(69.33447214483577,15)" font-family="Liberation Mono" font-size="10px" fill="#000" opacity="0">Sep 07</text><text text-anchor="middle" transform="translate(89.86282085581409,15)" font-family="Liberation Mono" font-size="10px" fill="#000" opacity="1">Sep 14</text><text text-anchor="middle" transform="translate(110.39116956679243,15)" font-family="Liberation Mono" font-size="10px" fill="#000" opacity="0">Sep 21</text><text text-anchor="middle" transform="translate(130.91951827777072,15)" font-family="Liberation Mono" font-size="10px" fill="#000" opacity="0">Sep 28</text><text text-anchor="middle" transform="translate(151.44786698874907,15)" font-family="Liberation Mono" font-size="10px" fill="#000" opacity="0">Oct 05</text><text text-anchor="middle" transform="translate(171.9762156997274,15)" font-family="Liberation Mono" font-size="10px" fill="#000" opacity="1">Oct 12</text><text text-anchor="middle" transform="translate(192.50456441070568,15)" font-family="Liberation Mono" font-size="10px" fill="#000" opacity="0">Oct 19</text></g><g class="mark-rule role-axis-domain" pointer-events="none"><line transform="translate(0,0)" x2="200" y2="0" stroke="#888" stroke-width="1" opacity="1"/></g><g class="mark-text role-axis-title" pointer-events="none"><text text-anchor="middle" transform="translate(100,30)" font-family="Liberation Mono" font-size="11px" font-weight="bold" fill="#000" opacity="1">Time</text></g></g><path class="foreground" aria-hidden="true" d="" pointer-events="none" display="none"/></g></g><g class="mark-group role-axis" role="graphics-symbol" aria-roledescription="axis" aria-label="Y-axis titled 'Price' for a linear scale with values from 0 to 1,800"><g transform="translate(0.5,0.5)"><path class="background" aria-hidden="true" d="M0,0h0v0h0Z" pointer-events="none"/><g><g class="mark-rule role-axis-tick" pointer-events="none"><line transform="translate(0,200)" x2="-5" y2="0" stroke="#888" stroke-width="1" opacity="1"/><line transform="translate(0,144)" x2="-5" y2="0" stroke="#888" stroke-width="1" opacity="1"/><line transform="translate(0,89)" x2="-5" y2="0" stroke="#888" stroke-width="1" opacity="1"/><line transform="translate(0,33)" x2="-5" y2="0" stroke="#888" stroke-width="1" opacity="1"/></g><g class="mark-text role-axis-label" pointer-events="none"><text text-anchor="end" transform="translate(-7,203)" font-family="Liberation Mono" font-size="10px" fill="#000" opacity="1">0</text><text text-anchor="end" transform="translate(-7,147.44444444444443)" font-family="Liberation Mono" font-size="10px" fill="#000" opacity="1">500</text><text text-anchor="end" transform="translate(-7,91.88888888888889)" font-family="Liberation Mono" font-size="10px" fill="#000" opacity="1">1,000</text><text text-anchor="end" transform="translate(-7,36.33333333333333)" font-family="Liberation Mono" font-size="10px" fill="#000" opacity="1">1,500</text></g><g class="mark-rule role-axis-domain" pointer-events="none"><line transform="translate(0,200)" x2="0" y2="-200" stroke="#888" stroke-width="1" opacity="1"/></g><g class="mark-text role-axis-title" pointer-events="none"><text text-anchor="middle" transform="translate(-51,100) rotate(-90) translate(0,-2)" font-family="Liberation Mono" font-size="11px" font-weight="bold" fill="#000" opacity="1">Price</text></g></g><path class="foreground" aria-hidden="true" d="" pointer-events="none" display="none"/></g></g><g class="mark-group role-scope pathgroup" role="graphics-object" aria-roledescription="group mark container"><g transform="translate(0,0)"><path class="background" aria-hidden="true" d="M0,0h200v200h-200Z"/><g><g class="mark-line role-mark marks" role="graphics-object" aria-roledescription="line mark container"><path aria-label="Time: Aug 14, 2025; Price: 899; identifier: escape-city-disc-1-2024" role="graphics-symbol" aria-roledescription="line mark" d="M0,100.111L0.024,100.111L0.044,100.111L0.584,100.111L1.014,100.111L1.496,100.111L2.485,100.111L2.971,100.111L3.507,100.111L3.947,100.111L4.427,100.111L5.408,100.111L5.9,100.111L6.42,100.111L6.874,100.111L7.355,100.111L8.352,100.111L8.831,100.111L9.354,100.111L9.809,100.111L10.291,100.111L11.293,100.111L11.775,100.111L12.315,100.111L12.505,100.111L12.751,100.111L13.221,100.111L14.204,100.111L14.7,100.111L15.221,100.111L15.676,100.111L16.153,100.111L17.137,100.111L17.629,100.111L18.171,100.111L18.39,100.111L18.607,100.111L19.089,100.111L20.068,100.111L20.564,100.111L21.087,100.111L21.542,100.111L22.02,100.111L23.001,100.111L23.495,100.111L24.018,100.111L24.471,100.111L24.951,100.111L25.932,100.111L26.423,100.111L26.942,100.111L27.396,100.111L27.88,100.111L28.868,100.111L29.354,100.111L29.876,100.111L30.333,100.111L30.814,100.111L31.805,100.111L32.3,100.111L32.835,100.111L33.273,100.111L33.75,100.111L34.733,100.111L35.23,100.111L36.202,100.111L36.68,100.111L37.662,100.111L38.157,100.111L38.349,100.111L38.679,100.111L39.007,100.111L39.135,100.111L39.614,100.111L40.594,100.111L41.091,100.111L41.613,100.111L42.067,100.111L42.546,100.111L43.526,100.111L44.022,100.111L44.542,100.111L44.998,100.111L45.477,100.111L46.456,100.111L46.947,100.111L47.466,100.111L47.924,100.111L48.385,100.111L48.408,100.111L49.39,100.111L49.703,100.111L49.878,100.111L50.4,100.111L50.858,100.111L51.341,100.111L52.332,100.111L52.825,100.111L53.345,100.111L53.794,100.111L54.273,100.111L55.259,100.111L55.755,100.111L56.279,100.111L56.729,100.111L57.208,100.111L58.188,100.111L58.683,100.111L59.206,100.111L59.66,100.111L60.139,100.111L61.12,100.111L61.617,100.111L62.136,100.111L62.594,100.111L63.071,100.111L64.054,100.111L64.549,100.111L65.07,100.111L65.521,100.111L66.005,100.111L66.984,100.111L67.235,100.111L67.473,100.111L67.99,100.111L68.449,100.111L68.936,100.111L69.915,100.111L70.405,100.111L70.925,100.111L71.382,100.111L71.868,100.111L72.852,100.111L73.351,100.111L73.875,100.111L74.325,100.111L74.805,100.111L75.784,100.111L76.283,100.111L76.824,100.111L77.26,100.111L77.735,100.111L78.713,100.111L79.213,100.111L79.733,100.111L80.188,100.111L80.668,100.111L81.649,100.111L82.144,100.111L82.664,100.111L83.114,100.111L83.599,100.111L84.58,100.111L85.076,100.111L85.595,100.111L86.048,100.111L86.531,100.111L87.51,100.111L88.001,100.111L88.519,100.111L88.975,100.111L89.464,100.111L90.444,100.111L90.934,100.111L91.45,100.111L91.907,100.111L92.397,100.111L93.381,100.111L93.876,100.111L94.4,100.111L94.852,100.111L95.331,100.111L96.311,100.111L96.811,100.111L97.332,100.111L97.783,100.111L98.264,100.111L99.245,100.111L99.741,100.111L100.264,100.111L100.716,100.111L101.196,100.111L102.177,100.111L102.673,100.111L103.196,100.111L103.647,100.111L104.129,100.111L105.11,100.111L105.605,100.111L106.128,100.111L106.582,100.111L107.06,100.111L108.041,100.111L108.533,100.111L109.051,100.111L109.505,100.111L109.992,100.111L110.974,100.111L111.463,100.111L111.983,100.111L112.44,100.111L112.926,100.111L113.909,100.111L114.408,100.111L114.93,100.111L115.375,100.111L115.861,100.111L116.84,100.111L117.338,100.111L117.86,100.111L118.314,100.111L118.793,100.111L119.774,100.111L120.272,100.111L120.793,100.111L121.249,100.111L121.724,100.111L122.707,100.111L123.205,100.111L123.728,100.111L124.181,100.111L124.656,100.111L125.638,100.111L126.136,100.111L126.657,100.111L127.11,100.111L127.589,100.111L128.57,100.111L129.059,100.111L129.578,100.111L130.035,100.111L130.522,100.111L131.503,100.111L131.992,100.111L132.512,100.111L132.966,100.111L133.453,100.111L134.438,100.111L134.937,100.111L135.459,100.111L135.898,100.111L136.388,100.111L137.369,100.111L137.871,100.111L138.392,100.111L138.841,100.111L139.321,100.111L140.304,100.111L140.801,100.111L141.325,100.111L141.775,100.111L142.254,100.111L143.233,100.111L143.729,100.111L144.25,100.111L144.707,100.111L145.185,100.111L146.164,100.111L146.661,100.111L147.181,100.111L147.638,100.111L148.117,100.111L149.096,100.111L149.588,100.111L150.106,100.111L150.564,100.111L151.049,100.111L152.027,100.111L152.519,100.111L153.039,100.111L153.496,100.111L153.982,100.111L154.964,100.111L155.462,100.111L155.985,100.111L156.438,100.111L156.918,100.111L157.896,100.111L158.394,100.111L158.919,100.111L159.37,100.111L159.85,100.111L160.83,100.111L161.329,100.111L161.852,100.111L162.303,100.111L162.782,100.111L163.764,100.111L164.262,100.111L164.786,100.111L165.24,100.111L165.716,100.111L166.695,100.111L167.192,100.111L167.714,100.111L168.167,100.111L168.647,100.111L169.625,100.111L170.116,100.111L170.634,100.111L171.09,100.111L171.578,100.111L172.558,100.111L173.049,100.111L173.568,100.111L174.025,100.111L174.51,100.111L175.497,100.111L175.996,100.111L176.516,100.111L176.965,100.111L177.445,100.111L178.426,100.111L178.923,100.111L179.464,100.111L179.899,100.111L180.38,100.111L181.36,100.111L181.861,100.111L182.4,100.111L182.831,100.111L183.314,100.111L184.292,100.111L184.793,100.111L185.33,100.111L185.766,100.111L186.244,100.111L187.224,100.111L187.722,100.111L188.244,100.111L188.696,100.111L189.176,100.111L190.154,100.111L190.648,100.111L191.165,100.111L191.622,100.111L192.107,100.111L193.09,100.111L193.577,100.111L194.099,100.111L194.555,100.111L195.039,100.111L196.024,100.111L196.534,100.111L197.044,100.111L197.496,100.111L197.979,100.111L198.955,100.111L199.467,100.111L199.999,100.111" stroke="#4c78a8" stroke-width="2"/></g></g><path class="foreground" aria-hidden="true" d="" display="none"/></g><g transform="translate(0,0)"><path class="background" aria-hidden="true" d="M0,0h200v200h-200Z"/><g><g class="mark-line role-mark marks" role="graphics-object" aria-roledescription="line mark container"><path aria-label="Time: Aug 14, 2025; Price: 999; identifier: roam-2" role="graphics-symbol" aria-roledescription="line mark" d="M0,89L0.024,89L0.044,89L0.584,89L1.014,89L1.496,89L2.485,89L2.971,89L3.507,89L3.947,89L4.427,89L5.408,89L5.9,89L6.42,89L6.874,89L7.36,89L8.352,89L8.831,89L9.354,89L9.809,89L10.291,89L11.293,89L11.775,89L12.315,89L12.505,89L12.751,89L13.221,89L14.204,89L14.7,89L15.221,89L15.676,89L16.153,89L17.137,89L17.629,89L18.171,89L18.39,89L18.607,89L19.089,89L20.068,89L20.564,89L21.087,89L21.542,89L22.02,89L23.002,89L23.496,89L24.018,89L24.472,89L24.951,89L25.932,89L26.424,89L26.942,89L27.396,89L27.881,89L28.868,89L29.354,89L29.876,89L30.333,89L30.814,89L31.805,89L32.3,89L32.835,89L33.273,89L33.75,89L34.733,89L35.231,89L36.202,89L36.68,89L37.662,89L38.157,89L38.35,89L38.68,89L39.007,89L39.135,89L39.614,89L40.594,89L41.091,89L41.613,89L42.067,89L42.546,89L43.527,89L44.022,89L44.543,89L44.998,89L45.477,89L46.456,89L46.947,89L47.466,89L47.924,89L48.385,89L48.408,89L49.39,89L49.703,89L49.879,89L50.4,89L50.858,89L51.341,89L52.332,89L52.825,89L53.345,89L53.794,89L54.273,89L55.26,89L55.755,89L56.279,89L56.729,89L57.208,89L58.188,89L58.683,89L59.206,89L59.66,89L60.14,89L61.12,89L61.617,89L62.136,89L62.595,89L63.071,89L64.054,89L64.549,89L65.07,89L65.522,89L66.005,89L66.984,89L67.235,89L67.473,89L67.99,89L68.449,89L68.936,89L69.915,89L70.405,89L70.925,89L71.382,89L71.869,89L72.853,89L73.352,89L73.875,89L74.325,89L74.806,89L75.784,89L76.283,89L76.824,89L77.26,89L77.735,89L78.713,89L79.213,89L79.733,89L80.188,89L80.669,89L81.649,89L82.144,89L82.664,89L83.115,89L83.599,89L84.58,89L85.076,89L85.595,89L86.049,89L86.531,89L87.511,89L88.002,89L88.519,89L88.976,89L89.464,89L90.444,89L90.934,89L91.45,89L91.907,89L92.397,89L93.382,89L93.876,89L94.4,89L94.852,89L95.332,89L96.312,89L96.811,89L97.332,89L97.783,89L98.264,89L99.245,89L99.741,89L100.265,89L100.717,89L101.196,89L102.178,89L102.673,89L103.196,89L103.647,89L104.13,89L105.11,89L105.606,89L106.128,89L106.582,89L107.06,89L108.041,89L108.533,89L109.052,89L109.505,89L109.992,89L110.974,89L111.463,89L111.983,89L112.44,89L112.926,89L113.909,89L114.408,89L114.93,89L115.375,89L115.861,89L116.84,89L117.338,89L117.86,89L118.314,89L118.793,89L119.774,89L120.272,89L120.793,89L121.249,89L121.724,89L122.707,89L123.205,89L123.728,89L124.181,89L124.656,89L125.638,89L126.136,89L126.657,89L127.111,89L127.589,89L128.57,89L129.059,89L129.578,89L130.035,89L130.522,89L131.503,89L131.992,89L132.512,89L132.966,89L133.454,89L134.438,89L134.937,89L135.46,89L135.898,89L136.388,89L137.37,89L137.871,89L138.392,89L138.841,89L139.321,89L140.304,89L140.801,89L141.325,89L141.775,89L142.254,89L143.233,89L143.729,89L144.25,89L144.707,89L145.185,89L146.164,89L146.662,89L147.181,89L147.638,89L148.117,89L149.096,89L149.588,89L150.106,89L150.564,89L151.049,89L152.027,89L152.519,89L153.039,89L153.496,89L153.982,89L154.964,89L155.462,89L155.986,89L156.438,89L156.918,89L157.896,89L158.394,89L158.919,89L159.37,89L159.85,89L160.83,89L161.329,89L161.852,89L162.303,89L162.783,89L163.764,89L164.262,89L164.786,89L165.24,89L165.716,89L166.695,89L167.192,89L167.714,89L168.167,89L168.647,89L169.626,89L170.116,89L170.634,89L171.09,89L171.578,89L172.559,89L173.049,89L173.568,89L174.025,89L174.51,89L175.497,89L175.997,89L176.516,89L176.966,89L177.445,89L178.426,89L178.923,89L179.465,89L179.899,89L180.38,89L181.36,89L181.861,89L182.4,89L182.831,89L183.314,89L184.292,89L184.794,89L185.33,89L185.766,89L186.244,89L187.224,89L187.722,89L188.244,89L188.697,89L189.176,89L190.154,89L190.648,89L191.166,89L191.622,89L192.107,89L193.09,89L193.577,89L194.099,89L194.555,89L195.039,89L196.024,89L196.534,89L197.044,89L197.496,89L197.979,89L198.955,89L199.468,89L199.999,89" stroke="#ff9da6" stroke-width="2"/></g></g><path class="foreground" aria-hidden="true" d="" display="none"/></g><g transform="translate(0,0)"><path class="background" aria-hidden="true" d="M0,0h200v200h-200Z"/><g><g class="mark-line role-mark marks" role="graphics-object" aria-roledescription="line mark container"><path aria-label="Time: Aug 14, 2025; Price: 999; identifier: fastroad-sl-3-2022" role="graphics-symbol" aria-roledescription="line mark" d="M0,89L0.024,89L0.044,89L0.584,89L1.014,89L1.496,89L2.485,89L2.971,89L3.507,89L3.947,89L4.427,89L5.409,89L5.9,89L6.421,89L6.874,89L7.36,89L8.352,89L8.832,89L9.355,89L9.809,89L10.291,89L11.293,89L11.775,89L12.315,89L12.505,89L12.751,89L13.221,89L14.204,89L14.7,89L15.221,89L15.676,89L16.153,89L17.137,89L17.629,89L18.171,89L18.39,89L18.608,89L19.089,89L20.068,89L20.564,89L21.087,89L21.542,89L22.02,89L23.002,89L23.496,89L24.019,89L24.472,89L24.951,89L25.932,89L26.424,89L26.942,89L27.397,89L27.881,89L28.868,89L29.354,89L29.876,89L30.333,89L30.814,89L31.805,89L32.3,89L32.835,89L33.273,89L33.75,89L34.733,89L35.231,89L36.203,89L36.68,89L37.662,89L38.157,89L38.35,89L38.68,89L39.007,89L39.135,89L39.614,89L40.594,89L41.091,89L41.613,89L42.067,89L42.546,89L43.527,89L44.022,89L44.543,89L44.998,89L45.477,89L46.456,89L46.947,89L47.466,89L47.924,89L48.385,89L48.408,89L49.39,89L49.703,89L49.879,89L50.4,89L50.858,89L51.341,89L52.332,89L52.825,89L53.345,89L53.794,89L54.273,89L55.26,89L55.756,89L56.28,89L56.729,89L57.208,89L58.189,89L58.683,89L59.206,89L59.66,89L60.14,89L61.12,89L61.617,89L62.136,89L62.595,89L63.071,89L64.054,89L64.549,89L65.07,89L65.522,89L66.005,89L66.984,89L67.235,89L67.473,89L67.99,89L68.449,89L68.936,89L69.915,89L70.405,89L70.925,89L71.382,89L71.869,89L72.853,89L73.352,89L73.875,89L74.325,89L74.806,89L75.784,89L76.283,89L76.824,89L77.26,89L77.735,89L78.713,89L79.213,89L79.733,89L80.188,89L80.669,89L81.649,89L82.145,89L82.664,89L83.115,89L83.599,89L84.58,89L85.076,89L85.595,89L86.049,89L86.531,89L87.511,89L88.002,89L88.519,89L88.976,89L89.464,89L90.444,89L90.934,89L91.45,89L91.907,89L92.397,89L93.382,89L93.876,89L94.4,89L94.852,89L95.332,89L96.312,89L96.811,89L97.332,89L97.783,89L98.265,89L99.245,89L99.741,89L100.265,89L100.717,89L101.197,89L102.178,89L102.673,89L103.196,89L103.647,89L104.13,89L105.11,89L105.606,89L106.128,89L106.582,89L107.06,89L108.041,89L108.533,89L109.052,89L109.505,89L109.992,89L110.974,89L111.463,89L111.983,89L112.44,89L112.926,89L113.909,89L114.408,89L114.93,89L115.375,89L115.861,89L116.84,89L117.338,89L117.86,89L118.314,89L118.793,89L119.774,89L120.272,89L120.793,89L121.249,89L121.724,89L122.707,89L123.205,89L123.728,89L124.181,89L124.656,89L125.638,89L126.136,89L126.657,89L127.111,89L127.589,89L128.57,89L129.059,89L129.578,89L130.035,89L130.522,89L131.503,89L131.992,89L132.512,89L132.966,89L133.454,89L134.438,89L134.937,89L135.46,89L135.899,89L136.388,89L137.37,89L137.871,89L138.392,89L138.841,89L139.321,89L140.304,89L140.801,89L141.325,89L141.775,89L142.254,89L143.233,89L143.729,89L144.25,89L144.707,89L145.185,89L146.164,89L146.662,89L147.181,89L147.638,89L148.117,89L149.096,89L149.588,89L150.106,89L150.564,89L151.049,89L152.028,89L152.519,89L153.039,89L153.496,89L153.983,89L154.964,89L155.463,89L155.986,89L156.438,89L156.918,89L157.896,89L158.394,89L158.919,89L159.37,89L159.85,89L160.83,89L161.329,89L161.852,89L162.303,89L162.783,89L163.764,89L164.262,89L164.786,89L165.24,89L165.716,89L166.695,89L167.192,89L167.714,89L168.167,89L168.648,89L169.626,89L170.116,89L170.634,89L171.09,89L171.578,89L172.559,89L173.049,89L173.568,89L174.025,89L174.51,89L175.497,89L175.997,89L176.517,89L176.966,89L177.445,89L178.426,89L178.923,89L179.465,89L179.9,89L180.38,89L181.36,89L181.861,89L182.4,89L182.831,89L183.314,89L184.292,89L184.794,89L185.33,89L185.766,89L186.244,89L187.225,89L187.722,89L188.245,89L188.697,89L189.176,89L190.154,89L190.648,89L191.166,89L191.622,89L192.107,89L193.09,89L193.577,89L194.099,89L194.555,89L195.039,89L196.024,89L196.534,89L197.044,89L197.496,89L197.98,89L198.955,89L199.468,89L199.999,89" stroke="#9d755d" stroke-width="2"/></g></g><path class="foreground" aria-hidden="true" d="" display="none"/></g><g transform="translate(0,0)"><path class="background" aria-hidden="true" d="M0,0h200v200h-200Z"/><g><g class="mark-line role-mark marks" role="graphics-object" aria-roledescription="line mark container"><path aria-label="Time: Aug 14, 2025; Price: 1199; identifier: fastroad-ar-2" role="graphics-symbol" aria-roledescription="line mark" d="M0,66.778L0.025,66.778L0.044,66.778L0.584,66.778L1.014,66.778L1.496,66.778L2.485,66.778L2.971,66.778L3.507,66.778L3.947,66.778L4.427,66.778L5.409,66.778L5.9,66.778L6.421,66.778L6.874,66.778L7.362,66.778L8.352,66.778L8.832,66.778L9.355,66.778L9.809,66.778L10.292,66.778L11.293,66.778L11.775,66.778L12.315,66.778L12.505,66.778L12.751,66.778L13.221,66.778L14.204,66.778L14.7,66.778L15.221,66.778L15.676,66.778L16.153,66.778L17.137,66.778L17.629,66.778L18.171,66.778L18.39,66.778L18.608,66.778L19.089,66.778L20.068,66.778L20.564,66.778L21.087,66.778L21.542,66.778L22.02,66.778L23.002,66.778L23.496,66.778L24.019,66.778L24.472,66.778L24.951,66.778L25.932,66.778L26.424,66.778L26.942,66.778L27.397,66.778L27.881,66.778L28.868,66.778L29.354,66.778L29.876,66.778L30.333,66.778L30.814,66.778L31.805,66.778L32.3,66.778L32.835,66.778L33.273,66.778L33.75,66.778L34.733,66.778L35.231,66.778L36.203,66.778L36.68,66.778L37.662,66.778L38.157,66.778L38.35,66.778L38.68,66.778L39.007,66.778L39.135,66.778L39.615,66.778L40.594,66.778L41.091,66.778L41.614,66.778L42.067,66.778L42.546,66.778L43.527,66.778L44.022,66.778L44.543,66.778L44.998,66.778L45.477,66.778L46.456,66.778L46.947,66.778L47.466,66.778L47.924,66.778L48.385,66.778L48.408,66.778L49.39,66.778L49.703,66.778L49.879,66.778L50.4,66.778L50.858,66.778L51.341,66.778L52.332,66.778L52.825,66.778L53.345,66.778L53.794,66.778L54.273,66.778L55.26,66.778L55.756,66.778L56.28,66.778L56.729,66.778L57.208,66.778L58.189,66.778L58.684,66.778L59.206,66.778L59.66,66.778L60.14,66.778L61.12,66.778L61.617,66.778L62.136,66.778L62.595,66.778L63.072,66.778L64.054,66.778L64.549,66.778L65.07,66.778L65.522,66.778L66.005,66.778L66.984,66.778L67.235,66.778L67.473,66.778L67.99,66.778L68.449,66.778L68.936,66.778L69.915,66.778L70.405,66.778L70.925,66.778L71.382,66.778L71.869,66.778L72.853,66.778L73.352,66.778L73.875,66.778L74.325,66.778L74.806,66.778L75.785,66.778L76.283,66.778L76.824,66.778L77.26,66.778L77.735,66.778L78.713,66.778L79.213,66.778L79.733,66.778L80.188,66.778L80.669,66.778L81.649,66.778L82.145,66.778L82.664,66.778L83.115,66.778L83.599,66.778L84.58,66.778L85.076,66.778L85.595,66.778L86.049,66.778L86.531,66.778L87.511,66.778L88.002,66.778L88.519,66.778L88.976,66.778L89.464,66.778L90.444,66.778L90.934,66.778L91.45,66.778L91.907,66.778L92.397,66.778L93.382,66.778L93.876,66.778L94.4,66.778L94.852,66.778L95.332,66.778L96.312,66.778L96.811,66.778L97.332,66.778L97.783,66.778L98.265,66.778L99.246,66.778L99.741,66.778L100.265,66.778L100.717,66.778L101.197,66.778L102.178,66.778L102.673,66.778L103.197,66.778L103.648,66.778L104.13,66.778L105.11,66.778L105.606,66.778L106.128,66.778L106.582,66.778L107.06,66.778L108.041,66.778L108.533,66.778L109.052,66.778L109.505,66.778L109.992,66.778L110.974,66.778L111.463,66.778L111.983,66.778L112.441,66.778L112.926,66.778L113.909,66.778L114.408,66.778L114.93,66.778L115.375,66.778L115.861,66.778L116.84,66.778L117.338,66.778L117.86,66.778L118.314,66.778L118.794,66.778L119.774,66.778L120.272,66.778L120.793,66.778L121.249,66.778L121.724,66.778L122.707,66.778L123.205,66.778L123.728,66.778L124.181,66.778L124.656,66.778L125.638,66.778L126.136,66.778L126.658,66.778L127.111,66.778L127.589,66.778L128.57,66.778L129.059,66.778L129.578,66.778L130.035,66.778L130.522,66.778L131.503,66.778L131.992,66.778L132.512,66.778L132.966,66.778L133.454,66.778L134.438,66.778L134.937,66.778L135.46,66.778L135.899,66.778L136.388,66.778L137.37,66.778L137.871,66.778L138.392,66.778L138.841,66.778L139.321,66.778L140.304,66.778L140.802,66.778L141.325,66.778L141.775,66.778L142.254,66.778L143.233,66.778L143.729,66.778L144.25,66.778L144.707,66.778L145.185,66.778L146.164,66.778L146.662,66.778L147.181,66.778L147.638,66.778L148.117,66.778L149.096,66.778L149.588,66.778L150.106,66.778L150.564,66.778L151.049,66.778L152.028,66.778L152.519,66.778L153.039,66.778L153.496,66.778L153.983,66.778L154.964,66.778L155.463,66.778L155.986,66.778L156.438,66.778L156.918,66.778L157.896,66.778L158.394,66.778L158.919,66.778L159.37,66.778L159.85,66.778L160.831,66.778L161.329,66.778L161.852,66.778L162.303,66.778L162.783,66.778L163.764,66.778L164.262,66.778L164.786,66.778L165.24,66.778L165.716,66.778L166.696,66.778L167.192,66.778L167.714,66.778L168.167,66.778L168.648,66.778L169.626,66.778L170.116,66.778L170.634,66.778L171.09,66.778L171.578,66.778L172.559,66.778L173.049,66.778L173.568,66.778L174.025,66.778L174.51,66.778L175.497,66.778L175.997,66.778L176.517,66.778L176.967,66.778L177.445,66.778L178.426,66.778L178.923,66.778L179.465,66.778L179.9,66.778L180.38,66.778L181.36,66.778L181.861,66.778L182.4,66.778L182.831,66.778L183.314,66.778L184.292,66.778L184.794,66.778L185.33,66.778L185.766,66.778L186.245,66.778L187.225,66.778L187.722,66.778L188.245,66.778L188.697,66.778L189.176,66.778L190.154,66.778L190.648,66.778L191.166,66.778L191.622,66.778L192.107,66.778L193.091,66.778L193.577,66.778L194.099,66.778L194.555,66.778L195.039,66.778L196.024,66.778L196.534,66.778L197.044,66.778L197.496,66.778L197.98,66.778L198.955,66.778L199.468,66.778L199.999,66.778" stroke="#54a24b" stroke-width="2"/></g></g><path class="foreground" aria-hidden="true" d="" display="none"/></g><g transform="translate(0,0)"><path class="background" aria-hidden="true" d="M0,0h200v200h-200Z"/><g><g class="mark-line role-mark marks" role="graphics-object" aria-roledescription="line mark container"><path aria-label="Time: Aug 18, 2025; Price: 899; identifier: sdrbike-escape-1-city-disc" role="graphics-symbol" aria-roledescription="line mark" d="M12.505,100.111L12.751,100.111L13.221,100.111L14.204,100.111L14.7,100.111L15.221,100.111L15.676,100.111L16.153,100.111L17.137,100.111L17.629,100.111L18.171,100.111L18.391,100.111L18.608,100.111L19.089,100.111L20.068,100.111L20.564,100.111L21.087,100.111L21.542,100.111L22.02,100.111L23.002,100.111L23.496,100.111L24.019,100.111L24.472,100.111L24.951,100.111L25.932,100.111L26.424,100.111L26.942,100.111L27.397,100.111L27.881,100.111L28.868,100.111L29.354,100.111L29.876,100.111L30.333,100.111L30.814,100.111L31.805,100.111L32.3,100.111L32.835,100.111L33.273,100.111L33.75,100.111L34.733,100.111L35.231,100.111L36.203,100.111L36.68,100.111L37.662,100.111L38.157,100.111L38.35,100.111L38.68,100.111L39.007,100.111L39.135,100.111L39.615,100.111L40.594,100.111L41.091,100.111L41.614,100.111L42.067,100.111L42.546,100.111L43.527,100.111L44.022,100.111L44.543,100.111L44.998,100.111L45.477,100.111L46.456,100.111L46.948,100.111L47.466,100.111L47.924,100.111L48.385,100.111L48.408,100.111L49.39,100.111L49.703,100.111L49.879,100.111L50.4,100.111L50.858,100.111L51.342,100.111L52.332,100.111L52.825,100.111L53.345,100.111L53.794,100.111L54.274,100.111L55.26,100.111L55.756,100.111L56.28,100.111L56.729,100.111L57.208,100.111L58.189,100.111L58.684,100.111L59.206,100.111L59.66,100.111L60.14,100.111L61.121,100.111L61.617,100.111L62.136,100.111L62.595,100.111L63.072,100.111L64.054,100.111L64.549,100.111L65.07,100.111L65.522,100.111L66.005,100.111L66.984,100.111L67.235,100.111L67.473,100.111L67.99,100.111L68.45,100.111L68.936,100.111L69.916,100.111L70.405,100.111L70.925,100.111L71.383,100.111L71.869,100.111L72.853,100.111L73.352,100.111L73.875,100.111L74.325,100.111L74.806,100.111L75.785,100.111L76.283,100.111L76.824,100.111L77.26,100.111L77.735,100.111L78.713,100.111L79.213,100.111L79.733,100.111L80.188,100.111L80.669,100.111L81.65,100.111L82.145,100.111L82.664,100.111L83.115,100.111L83.599,100.111L84.58,100.111L85.076,100.111L85.596,100.111L86.049,100.111L86.531,100.111L87.511,100.111L88.002,100.111L88.52,100.111L88.976,100.111L89.464,100.111L90.444,100.111L90.934,100.111L91.45,100.111L91.908,100.111L92.397,100.111L93.382,100.111L93.876,100.111L94.4,100.111L94.852,100.111L95.332,100.111L96.312,100.111L96.811,100.111L97.332,100.111L97.783,100.111L98.265,100.111L99.246,100.111L99.741,100.111L100.265,100.111L100.717,100.111L101.197,100.111L102.178,100.111L102.673,100.111L103.197,100.111L103.648,100.111L104.13,100.111L105.111,100.111L105.606,100.111L106.128,100.111L106.582,100.111L107.06,100.111L108.041,100.111L108.533,100.111L109.052,100.111L109.506,100.111L109.992,100.111L110.975,100.111L111.463,100.111L111.984,100.111L112.441,100.111L112.926,100.111L113.909,100.111L114.408,100.111L114.93,100.111L115.375,100.111L115.861,100.111L116.841,100.111L117.338,100.111L117.86,100.111L118.315,100.111L118.794,100.111L119.774,100.111L120.272,100.111L120.793,100.111L121.249,100.111L121.724,100.111L122.707,100.111L123.206,100.111L123.728,100.111L124.181,100.111L124.656,100.111L125.638,100.111L126.137,100.111L126.658,100.111L127.111,100.111L127.589,100.111L128.57,100.111L129.059,100.111L129.578,100.111L130.036,100.111L130.522,100.111L131.503,100.111L131.992,100.111L132.512,100.111L132.966,100.111L133.454,100.111L134.438,100.111L134.938,100.111L135.46,100.111L135.899,100.111L136.388,100.111L137.37,100.111L137.871,100.111L138.392,100.111L138.841,100.111L139.321,100.111L140.304,100.111L140.802,100.111L141.325,100.111L141.775,100.111L142.254,100.111L143.233,100.111L143.729,100.111L144.25,100.111L144.707,100.111L145.185,100.111L146.165,100.111L146.662,100.111L147.181,100.111L147.638,100.111L148.117,100.111L149.096,100.111L149.588,100.111L150.106,100.111L150.564,100.111L151.05,100.111L152.028,100.111L152.519,100.111L153.039,100.111L153.497,100.111L153.983,100.111L154.964,100.111L155.463,100.111L155.986,100.111L156.438,100.111L156.918,100.111L157.897,100.111L158.394,100.111L158.919,100.111L159.371,100.111L159.85,100.111L160.831,100.111L161.329,100.111L161.852,100.111L162.303,100.111L162.783,100.111L163.765,100.111L164.262,100.111L164.786,100.111L165.241,100.111L165.716,100.111L166.696,100.111L167.193,100.111L167.714,100.111L168.167,100.111L168.648,100.111L169.626,100.111L170.116,100.111L170.635,100.111L171.09,100.111L171.578,100.111L172.559,100.111L173.049,100.111L173.568,100.111L174.026,100.111L174.51,100.111L175.497,100.111L175.997,100.111L176.517,100.111L176.967,100.111L177.445,100.111L178.426,100.111L178.923,100.111L179.465,100.111L179.9,100.111L180.38,100.111L181.36,100.111L181.862,100.111L182.401,100.111L182.831,100.111L183.314,100.111L184.292,100.111L184.794,100.111L185.33,100.111L185.766,100.111L186.245,100.111L187.225,100.111L187.722,100.111L188.245,100.111L188.697,100.111L189.176,100.111L190.154,100.111L190.648,100.111L191.166,100.111L191.622,100.111L192.107,100.111L193.091,100.111L193.577,100.111L194.099,100.111L194.555,100.111L195.039,100.111L196.024,100.111L196.534,100.111L197.045,100.111L197.496,100.111L197.98,100.111L198.955,100.111L199.468,100.111L199.999,100.111" stroke="#f58518" stroke-width="2"/></g></g><path class="foreground" aria-hidden="true" d="" display="none"/></g><g transform="translate(0,0)"><path class="background" aria-hidden="true" d="M0,0h200v200h-200Z"/><g><g class="mark-line role-mark marks" role="graphics-object" aria-roledescription="line mark container"><path aria-label="Time: Aug 20, 2025; Price: 899; identifier: roam-disc-2-2024" role="graphics-symbol" aria-roledescription="line mark" d="M18.39,100.111L18.607,100.111L19.089,100.111L20.068,100.111L20.564,100.111L21.087,100.111L21.542,100.111L22.02,100.111L23.001,100.111L23.495,100.111L24.018,100.111L24.471,100.111L24.951,100.111L25.932,100.111L26.423,100.111L26.942,100.111L27.396,100.111L27.881,100.111L28.868,100.111L29.354,100.111L29.876,100.111L30.333,100.111L30.814,100.111L31.805,100.111L32.3,100.111L32.835,100.111L33.273,100.111L33.75,100.111L34.733,100.111L35.23,100.111L36.202,100.111L36.68,100.111L37.662,100.111L38.157,100.111L38.349,100.111L38.68,100.111L39.007,100.111L39.135,100.111L39.614,100.111L40.594,100.111L41.091,100.111L41.613,100.111L42.067,100.111L42.546,100.111L43.527,100.111L44.022,100.111L44.543,100.111L44.998,100.111L45.477,100.111L46.456,100.111L46.947,100.111L47.466,100.111L47.924,100.111L48.385,100.111L48.408,100.111L49.39,100.111L49.703,100.111L49.879,100.111L50.4,100.111L50.858,100.111L51.341,100.111L52.332,100.111L52.825,100.111L53.345,100.111L53.794,100.111L54.273,100.111L55.26,100.111L55.755,100.111L56.279,100.111L56.729,100.111L57.208,100.111L58.188,100.111L58.683,100.111L59.206,100.111L59.66,100.111L60.139,100.111L61.12,100.111L61.617,100.111L62.136,100.111L62.595,100.111L63.071,100.111L64.054,100.111L64.549,100.111L65.07,100.111L65.522,100.111L66.005,100.111L66.984,100.111L67.235,100.111L67.473,100.111L67.99,100.111L68.449,100.111L68.936,100.111L69.915,100.111L70.405,100.111L70.925,100.111L71.382,100.111L71.868,100.111L72.853,100.111L73.352,100.111L73.875,100.111L74.325,100.111L74.805,100.111L75.784,100.111L76.283,100.111L76.824,100.111L77.26,100.111L77.735,100.111L78.713,100.111L79.213,100.111L79.733,100.111L80.188,100.111L80.669,100.111L81.649,100.111L82.144,100.111L82.664,100.111L83.114,100.111L83.599,100.111L84.58,100.111L85.076,100.111L85.595,100.111L86.048,100.111L86.531,100.111L87.51,100.111L88.001,100.111L88.519,100.111L88.975,100.111L89.464,100.111L90.444,100.111L90.934,100.111L91.45,100.111L91.907,100.111L92.397,100.111L93.382,100.111L93.876,100.111L94.4,100.111L94.852,100.111L95.331,100.111L96.312,100.111L96.811,100.111L97.332,100.111L97.783,100.111L98.264,100.111L99.245,100.111L99.741,100.111L100.265,100.111L100.717,100.111L101.196,100.111L102.177,100.111L102.673,100.111L103.196,100.111L103.647,100.111L104.129,100.111L105.11,100.111L105.605,100.111L106.128,100.111L106.582,100.111L107.06,100.111L108.041,100.111L108.533,100.111L109.051,100.111L109.505,100.111L109.992,100.111L110.974,100.111L111.463,100.111L111.983,100.111L112.44,100.111L112.926,100.111L113.909,100.111L114.408,100.111L114.93,100.111L115.375,100.111L115.861,100.111L116.84,100.111L117.338,100.111L117.86,100.111L118.314,100.111L118.793,100.111L119.774,100.111L120.272,100.111L120.793,100.111L121.249,100.111L121.724,100.111L122.707,100.111L123.205,100.111L123.728,100.111L124.181,100.111L124.656,100.111L125.638,100.111L126.136,100.111L126.657,100.111L127.11,100.111L127.589,100.111L128.57,100.111L129.059,100.111L129.578,100.111L130.035,100.111L130.522,100.111L131.503,100.111L131.992,100.111L132.512,100.111L132.966,100.111L133.453,100.111L134.438,100.111L134.937,100.111L135.46,100.111L135.898,100.111L136.388,100.111L137.369,100.111L137.871,100.111L138.392,100.111L138.841,100.111L139.321,100.111L140.304,100.111L140.801,100.111L141.325,100.111L141.775,100.111L142.254,100.111L143.233,100.111L143.729,100.111L144.25,100.111L144.707,100.111L145.185,100.111L146.164,100.111L146.662,100.111L147.181,100.111L147.638,100.111L148.117,100.111L149.096,100.111L149.588,100.111L150.106,100.111L150.564,100.111L151.049,100.111L152.027,100.111L152.519,100.111L153.039,100.111L153.496,100.111L153.982,100.111L154.964,100.111L155.462,100.111L155.985,100.111L156.438,100.111L156.918,100.111L157.896,100.111L158.394,100.111L158.919,100.111L159.37,100.111L159.85,100.111L160.83,100.111L161.329,100.111L161.852,100.111L162.303,100.111L162.782,100.111L163.764,100.111L164.262,100.111L164.786,100.111L165.24,100.111L165.716,100.111L166.695,100.111L167.192,100.111L167.714,100.111L168.167,100.111L168.647,100.111L169.625,100.111L170.116,100.111L170.634,100.111L171.09,100.111L171.578,100.111L172.559,100.111L173.049,100.111L173.568,100.111L174.025,100.111L174.51,100.111L175.497,100.111L175.997,100.111L176.516,100.111L176.965,100.111L177.445,100.111L178.426,100.111L178.923,100.111L179.464,100.111L179.899,100.111L180.38,100.111L181.36,100.111L181.861,100.111L182.4,100.111L182.831,100.111L183.314,100.111L184.292,100.111L184.793,100.111L185.33,100.111L185.766,100.111L186.244,100.111L187.224,100.111L187.722,100.111L188.244,100.111L188.697,100.111L189.176,100.111L190.154,100.111L190.648,100.111L191.166,100.111L191.622,100.111L192.107,100.111L193.09,100.111L193.577,100.111L194.099,100.111L194.555,100.111L195.039,100.111L196.024,100.111L196.534,100.111L197.044,100.111L197.496,100.111L197.979,100.111L198.955,100.111L199.468,100.111L199.999,100.111" stroke="#e45756" stroke-width="2"/></g></g><path class="foreground" aria-hidden="true" d="" display="none"/></g><g transform="translate(0,0)"><path class="background" aria-hidden="true" d="M0,0h200v200h-200Z"/><g><g class="mark-line role-mark marks" role="graphics-object" aria-roledescription="line mark container"><path aria-label="Time: Aug 20, 2025; Price: 1199; identifier: thrive-2" role="graphics-symbol" aria-roledescription="line mark" d="M18.391,66.778L18.608,66.778L19.089,66.778L20.068,66.778L20.564,66.778L21.087,66.778L21.542,66.778L22.02,66.778L23.002,66.778L23.496,66.778L24.019,66.778L24.472,66.778L24.951,66.778L25.932,66.778L26.424,66.778L26.942,66.778L27.397,66.778L27.881,66.778L28.868,66.778L29.355,66.778L29.877,66.778L30.333,66.778L30.814,66.778L31.805,66.778L32.3,66.778L32.835,66.778L33.273,66.778L33.75,66.778L34.733,66.778L35.231,66.778L36.203,66.778L36.68,66.778L37.662,66.778L38.158,66.778L38.35,66.778L38.68,66.778L39.007,66.778L39.135,66.778L39.615,66.778L40.594,66.778L41.091,66.778L41.614,66.778L42.067,66.778L42.546,66.778L43.527,66.778L44.022,66.778L44.543,66.778L44.998,66.778L45.477,66.778L46.456,66.778L46.948,66.778L47.467,66.778L47.924,66.778L48.385,66.778L48.408,66.778L49.39,66.778L49.703,66.778L49.879,66.778L50.401,66.778L50.858,66.778L51.342,66.778L52.332,66.778L52.825,66.778L53.345,66.778L53.795,66.778L54.274,66.778L55.26,66.778L55.756,66.778L56.28,66.778L56.729,66.778L57.208,66.778L58.189,66.778L58.684,66.778L59.206,66.778L59.66,66.778L60.14,66.778L61.121,66.778L61.617,66.778L62.136,66.778L62.595,66.778L63.072,66.778L64.054,66.778L64.549,66.778L65.07,66.778L65.522,66.778L66.005,66.778L66.984,66.778L67.235,66.778L67.473,66.778L67.991,66.778L68.45,66.778L68.936,66.778L69.916,66.778L70.406,66.778L70.925,66.778L71.383,66.778L71.869,66.778L72.853,66.778L73.352,66.778L73.875,66.778L74.326,66.778L74.806,66.778L75.785,66.778L76.283,66.778L76.824,66.778L77.26,66.778L77.735,66.778L78.713,66.778L79.213,66.778L79.733,66.778L80.188,66.778L80.669,66.778L81.65,66.778L82.145,66.778L82.664,66.778L83.115,66.778L83.599,66.778L84.58,66.778L85.076,66.778L85.596,66.778L86.049,66.778L86.532,66.778L87.511,66.778L88.002,66.778L88.52,66.778L88.976,66.778L89.464,66.778L90.444,66.778L90.935,66.778L91.45,66.778L91.908,66.778L92.397,66.778L93.382,66.778L93.876,66.778L94.4,66.778L94.852,66.778L95.332,66.778L96.312,66.778L96.811,66.778L97.332,66.778L97.784,66.778L98.265,66.778L99.246,66.778L99.742,66.778L100.265,66.778L100.717,66.778L101.197,66.778L102.178,66.778L102.673,66.778L103.197,66.778L103.648,66.778L104.13,66.778L105.111,66.778L105.606,66.778L106.128,66.778L106.582,66.778L107.061,66.778L108.041,66.778L108.533,66.778L109.052,66.778L109.506,66.778L109.992,66.778L110.975,66.778L111.463,66.778L111.984,66.778L112.441,66.778L112.926,66.778L113.909,66.778L114.408,66.778L114.93,66.778L115.375,66.778L115.861,66.778L116.841,66.778L117.338,66.778L117.86,66.778L118.315,66.778L118.794,66.778L119.774,66.778L120.272,66.778L120.794,66.778L121.249,66.778L121.724,66.778L122.707,66.778L123.206,66.778L123.729,66.778L124.181,66.778L124.656,66.778L125.638,66.778L126.137,66.778L126.658,66.778L127.111,66.778L127.589,66.778L128.57,66.778L129.059,66.778L129.578,66.778L130.036,66.778L130.522,66.778L131.503,66.778L131.992,66.778L132.512,66.778L132.966,66.778L133.454,66.778L134.438,66.778L134.938,66.778L135.46,66.778L135.899,66.778L136.388,66.778L137.37,66.778L137.871,66.778L138.392,66.778L138.841,66.778L139.321,66.778L140.304,66.778L140.802,66.778L141.325,66.778L141.775,66.778L142.254,66.778L143.233,66.778L143.729,66.778L144.25,66.778L144.707,66.778L145.185,66.778L146.165,66.778L146.662,66.778L147.181,66.778L147.638,66.778L148.117,66.778L149.097,66.778L149.588,66.778L150.106,66.778L150.564,66.778L151.05,66.778L152.028,66.778L152.519,66.778L153.04,66.778L153.497,66.778L153.983,66.778L154.964,66.778L155.463,66.778L155.986,66.778L156.438,66.778L156.918,66.778L157.897,66.778L158.394,66.778L158.919,66.778L159.371,66.778L159.85,66.778L160.831,66.778L161.33,66.778L161.853,66.778L162.303,66.778L162.783,66.778L163.765,66.778L164.262,66.778L164.786,66.778L165.241,66.778L165.716,66.778L166.696,66.778L167.193,66.778L167.714,66.778L168.168,66.778L168.648,66.778L169.626,66.778L170.116,66.778L170.635,66.778L171.09,66.778L171.578,66.778L172.559,66.778L173.049,66.778L173.568,66.778L174.026,66.778L174.51,66.778L175.497,66.778L175.997,66.778L176.517,66.778L176.968,66.778L177.445,66.778L178.426,66.778L178.923,66.778L179.465,66.778L179.9,66.778L180.38,66.778L181.36,66.778L181.862,66.778L182.401,66.778L182.831,66.778L183.314,66.778L184.292,66.778L184.794,66.778L185.33,66.778L185.766,66.778L186.245,66.778L187.225,66.778L187.722,66.778L188.245,66.778L188.697,66.778L189.176,66.778L190.154,66.778L190.648,66.778L191.166,66.778L191.622,66.778L192.107,66.778L193.091,66.778L193.577,66.778L194.099,66.778L194.555,66.778L195.039,66.778L196.024,66.778L196.534,66.778L197.045,66.778L197.496,66.778L197.98,66.778L198.955,66.778L199.468,66.778L199.999,66.778" stroke="#eeca3b" stroke-width="2"/></g></g><path class="foreground" aria-hidden="true" d="" display="none"/></g><g transform="translate(0,0)"><path class="background" aria-hidden="true" d="M0,0h200v200h-200Z"/><g><g class="mark-line role-mark marks" role="graphics-object" aria-roledescription="line mark container"><path aria-label="Time: Aug 20, 2025; Price: 999; identifier: rove-2" role="graphics-symbol" aria-roledescription="line mark" d="M18.391,89L18.608,89L19.089,89L20.068,89L20.564,89L21.087,89L21.542,89L22.02,89L23.002,89L23.496,89L24.019,89L24.472,89L24.951,89L25.932,89L26.424,89L26.942,89L27.397,89L27.881,89L28.869,89L29.355,89L29.877,89L30.333,89L30.814,89L31.805,89L32.3,89L32.835,89L33.273,89L33.75,89L34.733,89L35.231,89L36.203,89L36.68,89L37.662,89L38.158,89L38.35,89L38.68,89L39.007,89L39.135,89L39.615,89L40.594,89L41.091,89L41.614,89L42.067,89L42.546,89L43.527,89L44.022,89L44.543,89L44.999,89L45.477,89L48.385,111.222L48.408,111.222L49.39,111.222L49.703,111.222L49.879,111.222L50.401,111.222L50.858,111.222L51.342,111.222L52.332,111.222L52.825,111.222L53.345,111.222L53.795,111.222L54.274,111.222L55.26,111.222L55.756,111.222L56.28,111.222L56.729,111.222L57.208,111.222L58.189,111.222L58.684,111.222L59.206,111.222L59.66,111.222L60.14,111.222L61.121,111.222L61.618,111.222L62.136,111.222L62.595,111.222L63.072,111.222L64.054,111.222L64.549,111.222L65.07,111.222L65.522,111.222L66.005,111.222L66.984,111.222L67.235,111.222L67.473,111.222L67.991,111.222L68.45,111.222L68.936,111.222L69.916,111.222L70.406,111.222L70.925,111.222L71.383,111.222L71.869,111.222L72.853,111.222L73.352,111.222L73.875,111.222L74.326,111.222L74.806,111.222L75.785,111.222L76.283,111.222L76.824,111.222L77.26,111.222L77.735,111.222L78.713,111.222L79.213,111.222L79.733,111.222L80.188,111.222L80.669,111.222L81.65,111.222L82.145,111.222L82.665,111.222L83.115,111.222L83.599,111.222L84.58,111.222L85.076,111.222L85.596,111.222L86.049,111.222L86.532,111.222L87.511,111.222L88.002,111.222L88.52,111.222L88.976,111.222L89.465,111.222L90.445,111.222L90.935,111.222L91.45,111.222L91.908,111.222L92.397,111.222L93.382,111.222L93.876,111.222L94.401,111.222L94.852,111.222L95.332,111.222L96.312,111.222L96.811,111.222L97.332,111.222L97.784,111.222L98.265,111.222L99.246,111.222L99.742,111.222L100.265,111.222L100.717,111.222L101.197,111.222L102.178,111.222L102.673,111.222L103.197,111.222L103.648,111.222L104.13,111.222L105.111,111.222L105.606,111.222L106.128,111.222L106.582,111.222L107.061,111.222L108.041,111.222L108.533,111.222L109.052,111.222L109.506,111.222L109.992,111.222L110.975,111.222L111.464,111.222L111.984,111.222L112.441,111.222L112.926,111.222L113.909,111.222L114.408,111.222L114.93,111.222L115.375,111.222L115.862,111.222L116.841,111.222L117.338,111.222L117.86,111.222L118.315,111.222L118.794,111.222L119.774,111.222L120.272,111.222L120.794,111.222L121.249,111.222L121.724,111.222L122.707,111.222L123.206,111.222L123.729,111.222L124.181,111.222L124.656,111.222L125.638,111.222L126.137,111.222L126.658,111.222L127.111,111.222L127.589,111.222L128.57,111.222L129.059,111.222L129.578,111.222L130.036,111.222L130.522,111.222L131.503,111.222L131.992,111.222L132.512,111.222L132.966,111.222L133.454,111.222L134.438,111.222L134.938,111.222L135.46,111.222L135.899,111.222L136.388,111.222L137.37,111.222L137.872,111.222L138.392,111.222L138.841,111.222L139.321,111.222L140.304,111.222L140.802,111.222L141.325,111.222L141.775,111.222L142.254,111.222L143.233,111.222L143.729,111.222L144.25,111.222L144.707,111.222L145.185,111.222L146.165,111.222L146.662,111.222L147.182,111.222L147.638,111.222L148.117,111.222L149.097,111.222L149.588,111.222L150.106,111.222L150.564,111.222L151.05,111.222L152.028,111.222L152.519,111.222L153.04,111.222L153.497,111.222L153.983,111.222L154.964,111.222L155.463,111.222L155.986,111.222L156.438,111.222L156.918,111.222L157.897,111.222L158.394,111.222L158.919,111.222L159.371,111.222L159.85,111.222L160.831,111.222L161.33,111.222L161.853,111.222L162.304,111.222L162.783,111.222L163.765,111.222L164.262,111.222L164.786,111.222L165.241,111.222L165.716,111.222L166.696,111.222L167.193,111.222L167.714,111.222L168.168,111.222L168.648,111.222L169.626,111.222L170.117,111.222L170.635,111.222L171.09,111.222L171.578,111.222L172.559,111.222L173.049,111.222L173.568,111.222L174.026,111.222L174.51,111.222L175.498,111.222L175.997,111.222L176.517,111.222L176.968,111.222L177.445,111.222L178.426,111.222L178.923,111.222L179.465,111.222L179.9,111.222L180.38,111.222L181.36,111.222L181.862,111.222L182.401,111.222L182.831,111.222L183.314,111.222L184.292,111.222L184.794,111.222L185.33,111.222L185.766,111.222L186.245,111.222L187.225,111.222L187.722,111.222L188.245,111.222L188.697,111.222L189.176,111.222L190.155,111.222L190.648,111.222L191.166,111.222L191.622,111.222L192.107,111.222L193.091,111.222L193.577,111.222L194.099,111.222L194.555,111.222L195.039,111.222L196.024,111.222L196.534,111.222L197.045,111.222L197.496,111.222L197.98,111.222L198.956,111.222L199.468,111.222L199.999,111.222" stroke="#72b7b2" stroke-width="2"/></g></g><path class="foreground" aria-hidden="true" d="" display="none"/></g><g transform="translate(0,0)"><path class="background" aria-hidden="true" d="M0,0h200v200h-200Z"/><g><g class="mark-line role-mark marks" role="graphics-object" aria-roledescription="line mark container"><path aria-label="Time: Aug 27, 2025; Price: 1199; identifier: allure-rs-1-2023" role="graphics-symbol" aria-roledescription="line mark" d="M38.351,66.778L38.68,66.778L39.007,66.778L39.135,66.778L39.615,66.778L40.594,66.778L41.092,66.778L41.614,66.778L42.067,66.778L42.546,66.778L43.527,66.778L44.022,66.778L44.543,66.778L44.999,66.778L45.477,66.778L46.456,66.778L46.948,66.778L47.467,66.778L47.924,66.778L48.385,66.778L48.408,66.778L49.39,66.778L49.703,66.778L49.879,66.778L50.401,66.778L50.858,66.778L51.342,66.778L52.332,66.778L52.825,66.778L53.346,66.778L53.795,66.778L54.274,66.778L55.26,66.778L55.756,66.778L56.28,66.778L56.729,66.778L57.208,66.778L58.189,66.778L58.684,66.778L59.206,66.778L59.66,66.778L60.14,66.778L61.121,66.778L61.618,66.778L62.136,66.778L62.595,66.778L63.072,66.778L64.055,66.778L64.549,66.778L65.07,66.778L65.522,66.778L66.005,66.778L66.984,66.778L67.236,66.778L67.473,66.778L67.991,66.778L68.45,66.778L68.936,66.778L69.916,66.778L70.406,66.778L70.925,66.778L71.383,66.778L71.869,66.778L72.853,66.778L73.352,66.778L73.875,66.778L74.326,66.778L74.806,66.778L75.785,66.778L76.284,66.778L76.824,66.778L77.26,66.778L77.735,66.778L78.713,66.778L79.213,66.778L79.733,66.778L80.188,66.778L80.669,66.778L81.65,66.778L82.145,66.778L82.665,66.778L83.115,66.778L83.599,66.778L84.58,66.778L85.076,66.778L85.596,66.778L86.049,66.778L86.532,66.778L87.511,66.778L88.002,66.778L88.52,66.778L88.976,66.778L89.465,66.778L90.445,66.778L90.935,66.778L91.45,66.778L91.908,66.778L92.397,66.778L93.382,66.778L93.876,66.778L94.401,66.778L94.852,66.778L95.332,66.778L96.312,66.778L96.812,66.778L97.332,66.778L97.784,66.778L98.265,66.778L99.246,66.778L99.742,66.778L100.265,66.778L100.717,66.778L101.197,66.778L102.178,66.778L102.673,66.778L103.197,66.778L103.648,66.778L104.13,66.778L105.111,66.778L105.606,66.778L106.128,66.778L106.582,66.778L107.061,66.778L108.041,66.778L108.533,66.778L109.052,66.778L109.506,66.778L109.992,66.778L110.975,66.778L111.464,66.778L111.984,66.778L112.441,66.778L112.926,66.778L113.909,66.778L114.408,66.778L114.93,66.778L115.375,66.778L115.862,66.778L116.841,66.778L117.338,66.778L117.86,66.778L118.315,66.778L118.794,66.778L119.774,66.778L120.272,66.778L120.794,66.778L121.249,66.778L121.724,66.778L122.707,66.778L123.206,66.778L123.729,66.778L124.181,66.778L124.656,66.778L125.638,66.778L126.137,66.778L126.658,66.778L127.111,66.778L127.589,66.778L128.57,66.778L129.059,66.778L129.579,66.778L130.036,66.778L130.522,66.778L131.503,66.778L131.992,66.778L132.512,66.778L132.966,66.778L133.454,66.778L134.438,66.778L134.938,66.778L135.46,66.778L135.899,66.778L136.388,66.778L137.37,66.778L137.872,66.778L138.392,66.778L138.841,66.778L139.321,66.778L140.304,66.778L140.802,66.778L141.325,66.778L141.775,66.778L142.254,66.778L143.233,66.778L143.73,66.778L144.25,66.778L144.707,66.778L145.185,66.778L146.165,66.778L146.662,66.778L147.182,66.778L147.638,66.778L148.117,66.778L149.097,66.778L149.588,66.778L150.106,66.778L150.564,66.778L151.05,66.778L152.028,66.778L152.519,66.778L153.04,66.778L153.497,66.778L153.983,66.778L154.965,66.778L155.463,66.778L155.986,66.778L156.438,66.778L156.918,66.778L157.897,66.778L158.394,66.778L158.919,66.778L159.371,66.778L159.85,66.778L160.831,66.778L161.33,66.778L161.853,66.778L162.304,66.778L162.783,66.778L163.765,66.778L164.263,66.778L164.786,66.778L165.241,66.778L165.716,66.778L166.696,66.778L167.193,66.778L167.714,66.778L168.168,66.778L168.648,66.778L169.626,66.778L170.117,66.778L170.635,66.778L171.09,66.778L171.578,66.778L172.559,66.778L173.049,66.778L173.568,66.778L174.026,66.778L174.511,66.778L175.498,66.778L175.997,66.778L176.517,66.778L176.968,66.778L177.445,66.778L178.426,66.778L178.924,66.778L179.465,66.778L179.9,66.778L180.38,66.778L181.36,66.778L181.862,66.778L182.401,66.778L182.832,66.778L183.314,66.778L184.292,66.778L184.794,66.778L185.33,66.778L185.767,66.778L186.245,66.778L187.225,66.778L187.722,66.778L188.245,66.778L188.697,66.778L189.176,66.778L190.155,66.778L190.649,66.778L191.166,66.778L191.623,66.778L192.107,66.778L193.091,66.778L193.578,66.778L194.099,66.778L194.556,66.778L195.04,66.778L196.025,66.778L196.534,66.778L197.045,66.778L197.496,66.778L197.98,66.778L198.956,66.778L199.468,66.778L199.999,66.778" stroke="#b279a2" stroke-width="2"/></g></g><path class="foreground" aria-hidden="true" d="" display="none"/></g><g transform="translate(0,0)"><path class="background" aria-hidden="true" d="M0,0h200v200h-200Z"/><g><g class="mark-line role-mark marks" role="graphics-object" aria-roledescription="line mark container"><path aria-label="Time: Aug 27, 2025; Price: 999; identifier: allure-rs-2-2022" role="graphics-symbol" aria-roledescription="line mark" d="M38.351,89L38.68,89L39.007,89L39.135,89L39.615,89L40.594,89L41.092,89L41.614,89L42.067,89L42.546,89L43.527,89L44.022,89L44.543,89L44.999,89L45.477,89L48.385,111.222L48.408,111.222L49.39,111.222L49.703,111.222L49.879,111.222L50.401,111.222L50.858,111.222L51.342,111.222L52.332,111.222L52.825,111.222L53.346,111.222L53.795,111.222L54.274,111.222L55.26,111.222L55.756,111.222L56.28,111.222L56.729,111.222L57.208,111.222L58.189,111.222L58.684,111.222L59.206,111.222L59.66,111.222L60.14,111.222L61.121,111.222L61.618,111.222L62.136,111.222L62.595,111.222L63.072,111.222L64.055,111.222L64.55,111.222L65.07,111.222L65.522,111.222L66.006,111.222L66.984,111.222L67.236,111.222L67.473,111.222L67.991,111.222L68.45,111.222L68.936,111.222L69.916,111.222L70.406,111.222L70.925,111.222L71.383,111.222L71.869,111.222L72.854,111.222L73.352,111.222L73.875,111.222L74.326,111.222L74.806,111.222L75.785,111.222L76.284,111.222L76.824,111.222L77.26,111.222L77.735,111.222L78.713,111.222L79.213,111.222L79.733,111.222L80.188,111.222L80.669,111.222L81.65,111.222L82.145,111.222L82.665,111.222L83.115,111.222L83.599,111.222L84.58,111.222L85.077,111.222L85.596,111.222L86.049,111.222L86.532,111.222L87.511,111.222L88.002,111.222L88.52,111.222L88.976,111.222L89.465,111.222L90.445,111.222L90.935,111.222L91.45,111.222L91.908,111.222L92.397,111.222L93.382,111.222L93.876,111.222L94.401,111.222L94.853,111.222L95.332,111.222L96.312,111.222L96.812,111.222L97.332,111.222L97.784,111.222L98.265,111.222L99.246,111.222L99.742,111.222L100.265,111.222L100.717,111.222L101.197,111.222L102.178,111.222L102.674,111.222L103.197,111.222L103.648,111.222L104.13,111.222L105.111,111.222L105.606,111.222L106.128,111.222L106.582,111.222L107.061,111.222L108.041,111.222L108.534,111.222L109.052,111.222L109.506,111.222L109.993,111.222L110.975,111.222L111.464,111.222L111.984,111.222L112.441,111.222L112.926,111.222L113.909,111.222L114.408,111.222L114.93,111.222L115.375,111.222L115.862,111.222L116.841,111.222L117.339,111.222L117.86,111.222L118.315,111.222L118.794,111.222L119.774,111.222L120.272,111.222L120.794,111.222L121.249,111.222L121.724,111.222L122.707,111.222L123.206,111.222L123.729,111.222L124.181,111.222L124.657,111.222L125.638,111.222L126.137,111.222L126.658,111.222L127.111,111.222L127.589,111.222L128.57,111.222L129.059,111.222L129.579,111.222L130.036,111.222L130.522,111.222L131.503,111.222L131.992,111.222L132.512,111.222L132.966,111.222L133.454,111.222L134.439,111.222L134.938,111.222L135.46,111.222L135.899,111.222L136.389,111.222L137.37,111.222L137.872,111.222L138.392,111.222L138.842,111.222L139.321,111.222L140.304,111.222L140.802,111.222L141.325,111.222L141.775,111.222L142.255,111.222L143.233,111.222L143.73,111.222L144.25,111.222L144.707,111.222L145.185,111.222L146.165,111.222L146.662,111.222L147.182,111.222L147.638,111.222L148.117,111.222L149.097,111.222L149.589,111.222L150.106,111.222L150.565,111.222L151.05,111.222L152.028,111.222L152.519,111.222L153.04,111.222L153.497,111.222L153.983,111.222L154.965,111.222L155.463,111.222L155.986,111.222L156.438,111.222L156.918,111.222L157.897,111.222L158.394,111.222L158.919,111.222L159.371,111.222L159.85,111.222L160.831,111.222L161.33,111.222L161.853,111.222L162.304,111.222L162.783,111.222L163.765,111.222L164.263,111.222L164.786,111.222L165.241,111.222L165.716,111.222L166.696,111.222L167.193,111.222L167.714,111.222L168.168,111.222L168.648,111.222L169.626,111.222L170.117,111.222L170.635,111.222L171.091,111.222L171.578,111.222L172.559,111.222L173.049,111.222L173.568,111.222L174.026,111.222L174.511,111.222L175.498,111.222L175.997,111.222L176.517,111.222L176.968,111.222L177.445,111.222L178.426,111.222L178.924,111.222L179.465,111.222L179.9,111.222L180.38,111.222L181.36,111.222L181.862,111.222L182.401,111.222L182.832,111.222L183.314,111.222L184.293,111.222L184.794,111.222L185.33,111.222L185.767,111.222L186.245,111.222L187.225,111.222L187.722,111.222L188.245,111.222L188.697,111.222L189.176,111.222L190.155,111.222L190.649,111.222L191.166,111.222L191.623,111.222L192.107,111.222L193.091,111.222L193.578,111.222L194.099,111.222L194.556,111.222L195.04,111.222L196.025,111.222L196.535,111.222L197.045,111.222L197.496,111.222L197.98,111.222L198.956,111.222L199.468,111.222L200,111.222" stroke="#54a24b" stroke-width="2"/></g></g><path class="foreground" aria-hidden="true" d="" display="none"/></g><g transform="translate(0,0)"><path class="background" aria-hidden="true" d="M0,0h200v200h-200Z"/><g><g class="mark-line role-mark marks" role="graphics-object" aria-roledescription="line mark container"><path aria-label="Time: Aug 27, 2025; Price: 949; identifier: allure-rs-2-2023" role="graphics-symbol" aria-roledescription="line mark" d="M38.351,94.556L38.68,94.556L39.007,94.556L39.135,94.556L39.615,94.556L40.594,94.556L41.092,94.556L41.614,94.556L42.067,94.556L42.546,94.556L43.527,94.556L44.022,94.556L44.543,94.556L44.999,94.556L45.477,94.556L46.456,94.556L46.948,94.556L47.467,94.556L47.924,94.556L48.385,94.556L48.408,94.556L49.39,94.556L49.703,94.556L49.879,94.556L50.401,94.556L50.858,94.556L51.342,94.556L52.332,94.556L52.825,94.556L53.346,94.556L53.795,94.556L54.274,94.556L55.26,94.556L55.756,94.556L56.28,94.556L56.729,94.556L57.209,94.556L58.189,94.556L58.684,94.556L59.206,94.556L59.66,94.556L60.14,94.556L61.121,94.556L61.618,94.556L62.136,94.556L62.595,94.556L63.072,94.556L64.055,94.556L64.55,94.556L65.07,94.556L65.522,94.556L66.006,94.556L66.984,94.556L67.236,94.556L67.474,94.556L67.991,94.556L68.45,94.556L68.937,94.556L69.916,94.556L70.406,94.556L70.925,94.556L71.383,94.556L71.869,94.556L72.854,94.556L73.352,94.556L73.875,94.556L74.326,94.556L74.806,94.556L75.785,94.556L76.284,94.556L76.825,94.556L77.26,94.556L77.735,94.556L78.713,94.556L79.214,94.556L79.733,94.556L80.188,94.556L80.669,94.556L81.65,94.556L82.145,94.556L82.665,94.556L83.115,94.556L83.599,94.556L84.58,94.556L85.077,94.556L85.596,94.556L86.049,94.556L86.532,94.556L87.511,94.556L88.002,94.556L88.52,94.556L88.976,94.556L89.465,94.556L90.445,94.556L90.935,94.556L91.45,94.556L91.908,94.556L92.397,94.556L93.382,94.556L93.876,94.556L94.401,94.556L94.853,94.556L95.332,94.556L96.312,94.556L96.812,94.556L97.333,94.556L97.784,94.556L98.265,94.556L99.246,94.556L99.742,94.556L100.265,94.556L100.717,94.556L101.197,94.556L102.178,94.556L102.674,94.556L103.197,94.556L103.648,94.556L104.13,94.556L105.111,94.556L105.606,94.556L106.128,94.556L106.582,94.556L107.061,94.556L108.041,94.556L108.534,94.556L109.052,94.556L109.506,94.556L109.993,94.556L110.975,94.556L111.464,94.556L111.984,94.556L112.441,94.556L112.927,94.556L113.909,94.556L114.408,94.556L114.93,94.556L115.376,94.556L115.862,94.556L116.841,94.556L117.339,94.556L117.86,94.556L118.315,94.556L118.794,94.556L119.774,94.556L120.272,94.556L120.794,94.556L121.25,94.556L121.725,94.556L122.707,94.556L123.206,94.556L123.729,94.556L124.181,94.556L124.657,94.556L125.639,94.556L126.137,94.556L126.658,94.556L127.111,94.556L127.59,94.556L128.571,94.556L129.059,94.556L129.579,94.556L130.036,94.556L130.522,94.556L131.503,94.556L131.992,94.556L132.512,94.556L132.966,94.556L133.454,94.556L134.439,94.556L134.938,94.556L135.46,94.556L135.899,94.556L136.389,94.556L137.37,94.556L137.872,94.556L138.392,94.556L138.842,94.556L139.322,94.556L140.304,94.556L140.802,94.556L141.326,94.556L141.775,94.556L142.255,94.556L143.233,94.556L143.73,94.556L144.25,94.556L144.707,94.556L145.186,94.556L146.165,94.556L146.662,94.556L147.182,94.556L147.638,94.556L148.117,94.556L149.097,94.556L149.589,94.556L150.106,94.556L150.565,94.556L151.05,94.556L152.028,94.556L152.519,94.556L153.04,94.556L153.497,94.556L153.983,94.556L154.965,94.556L155.463,94.556L155.986,94.556L156.439,94.556L156.918,94.556L157.897,94.556L158.394,94.556L158.919,94.556L159.371,94.556L159.85,94.556L160.831,94.556L161.33,94.556L161.853,94.556L162.304,94.556L162.783,94.556L163.765,94.556L164.263,94.556L164.786,94.556L165.241,94.556L165.716,94.556L166.696,94.556L167.193,94.556L167.714,94.556L168.168,94.556L168.648,94.556L169.626,94.556L170.117,94.556L170.635,94.556L171.091,94.556L171.578,94.556L172.559,94.556L173.049,94.556L173.568,94.556L174.026,94.556L174.511,94.556L175.498,94.556L175.997,94.556L176.517,94.556L176.968,94.556L177.445,94.556L178.426,94.556L178.924,94.556L179.465,94.556L179.901,94.556L180.381,94.556L181.36,94.556L181.862,94.556L182.401,94.556L182.832,94.556L183.314,94.556L184.293,94.556L184.794,94.556L185.331,94.556L185.767,94.556L186.245,94.556L187.225,94.556L187.723,94.556L188.245,94.556L188.697,94.556L189.176,94.556L190.155,94.556L190.649,94.556L191.166,94.556L191.623,94.556L192.107,94.556L193.091,94.556L193.578,94.556L194.1,94.556L194.556,94.556L195.04,94.556L196.025,94.556L196.535,94.556L197.045,94.556L197.496,94.556L197.98,94.556L198.956,94.556L199.468,94.556L200,94.556" stroke="#bab0ac" stroke-width="2"/></g></g><path class="foreground" aria-hidden="true" d="" display="none"/></g><g transform="translate(0,0)"><path class="background" aria-hidden="true" d="M0,0h200v200h-200Z"/><g><g class="mark-line role-mark marks" role="graphics-object" aria-roledescription="line mark container"><path aria-label="Time: Aug 27, 2025; Price: 999; identifier: allure-rs-2-2024" role="graphics-symbol" aria-roledescription="line mark" d="M38.351,89L38.68,89L39.007,89L39.135,89L39.615,89L40.594,89L41.092,89L41.614,89L42.067,89L42.546,89L43.527,89L44.022,89L44.543,89L44.999,89L45.478,89L48.386,111.222L48.408,111.222L49.39,111.222L49.704,111.222L49.879,111.222L50.401,111.222L50.858,111.222L51.342,111.222L52.332,111.222L52.825,111.222L53.346,111.222L53.795,111.222L54.274,111.222L55.26,111.222L55.756,111.222L56.28,111.222L56.729,111.222L57.209,111.222L58.189,111.222L58.684,111.222L59.206,111.222L59.66,111.222L60.14,111.222L61.121,111.222L61.618,111.222L62.136,111.222L62.595,111.222L63.072,111.222L64.055,111.222L64.55,111.222L65.07,111.222L65.522,111.222L66.006,111.222L66.984,111.222L67.236,111.222L67.474,111.222L67.991,111.222L68.45,111.222L68.937,111.222L69.916,111.222L70.406,111.222L70.925,111.222L71.383,111.222L71.869,111.222L72.854,111.222L73.352,111.222L73.875,111.222L74.326,111.222L74.806,111.222L75.785,111.222L76.284,111.222L76.825,111.222L77.26,111.222L77.735,111.222L78.714,111.222L79.214,111.222L79.733,111.222L80.188,111.222L80.669,111.222L81.65,111.222L82.145,111.222L82.665,111.222L83.115,111.222L83.599,111.222L84.58,111.222L85.077,111.222L85.596,111.222L86.049,111.222L86.532,111.222L87.511,111.222L88.002,111.222L88.52,111.222L88.976,111.222L89.465,111.222L90.445,111.222L90.935,111.222L91.45,111.222L91.908,111.222L92.397,111.222L93.382,111.222L93.877,111.222L94.401,111.222L94.853,111.222L95.332,111.222L96.312,111.222L96.812,111.222L97.333,111.222L97.784,111.222L98.265,111.222L99.246,111.222L99.742,111.222L100.265,111.222L100.717,111.222L101.197,111.222L102.178,111.222L102.674,111.222L103.197,111.222L103.648,111.222L104.13,111.222L105.111,111.222L105.606,111.222L106.129,111.222L106.582,111.222L107.061,111.222L108.041,111.222L108.534,111.222L109.052,111.222L109.506,111.222L109.993,111.222L110.975,111.222L111.464,111.222L111.984,111.222L112.441,111.222L112.927,111.222L113.909,111.222L114.408,111.222L114.93,111.222L115.376,111.222L115.862,111.222L116.841,111.222L117.339,111.222L117.861,111.222L118.315,111.222L118.794,111.222L119.774,111.222L120.272,111.222L120.794,111.222L121.25,111.222L121.725,111.222L122.707,111.222L123.206,111.222L123.729,111.222L124.181,111.222L124.657,111.222L125.639,111.222L126.137,111.222L126.658,111.222L127.111,111.222L127.59,111.222L128.571,111.222L129.06,111.222L129.579,111.222L130.036,111.222L130.522,111.222L131.503,111.222L131.992,111.222L132.513,111.222L132.966,111.222L133.454,111.222L134.439,111.222L134.938,111.222L135.46,111.222L135.899,111.222L136.389,111.222L137.37,111.222L137.872,111.222L138.392,111.222L138.842,111.222L139.322,111.222L140.304,111.222L140.802,111.222L141.326,111.222L141.775,111.222L142.255,111.222L143.233,111.222L143.73,111.222L144.25,111.222L144.707,111.222L145.186,111.222L146.165,111.222L146.662,111.222L147.182,111.222L147.638,111.222L148.118,111.222L149.097,111.222L149.589,111.222L150.106,111.222L150.565,111.222L151.05,111.222L152.028,111.222L152.52,111.222L153.04,111.222L153.497,111.222L153.983,111.222L154.965,111.222L155.463,111.222L155.986,111.222L156.439,111.222L156.918,111.222L157.897,111.222L158.395,111.222L158.919,111.222L159.371,111.222L159.85,111.222L160.831,111.222L161.33,111.222L161.853,111.222L162.304,111.222L162.783,111.222L163.765,111.222L164.263,111.222L164.786,111.222L165.241,111.222L165.716,111.222L166.696,111.222L167.193,111.222L167.714,111.222L168.168,111.222L168.648,111.222L169.626,111.222L170.117,111.222L170.635,111.222L171.091,111.222L171.578,111.222L172.559,111.222L173.05,111.222L173.568,111.222L174.026,111.222L174.511,111.222L175.498,111.222L175.997,111.222L176.517,111.222L176.968,111.222L177.445,111.222L178.426,111.222L178.924,111.222L179.465,111.222L179.901,111.222L180.381,111.222L181.36,111.222L181.862,111.222L182.401,111.222L182.832,111.222L183.314,111.222L184.293,111.222L184.794,111.222L185.331,111.222L185.767,111.222L186.245,111.222L187.225,111.222L187.723,111.222L188.245,111.222L188.697,111.222L189.177,111.222L190.155,111.222L190.649,111.222L191.166,111.222L191.623,111.222L192.107,111.222L193.091,111.222L193.578,111.222L194.1,111.222L194.556,111.222L195.04,111.222L196.025,111.222L196.535,111.222L197.045,111.222L197.496,111.222L197.98,111.222L198.956,111.222L199.468,111.222L200,111.222" stroke="#eeca3b" stroke-width="2"/></g></g><path class="foreground" aria-hidden="true" d="" display="none"/></g><g transform="translate(0,0)"><path class="background" aria-hidden="true" d="M0,0h200v200h-200Z"/><g><g class="mark-line role-mark marks" role="graphics-object" aria-roledescription="line mark container"><path aria-label="Time: Aug 27, 2025; Price: 1799; identifier: devote-1-2024" role="graphics-symbol" aria-roledescription="line mark" d="M39.007,0.111L39.135,0.111L39.615,0.111L40.595,0.111L41.092,0.111L41.614,0.111L42.067,0.111L42.547,0.111L43.527,0.111L44.022,0.111L44.543,0.111L44.999,0.111L45.478,0.111L48.386,44.556L48.408,44.556L49.39,44.556L49.704,44.556L49.879,44.556L50.401,44.556L50.859,44.556L51.342,44.556L52.332,44.556L52.825,44.556L53.346,44.556L53.795,44.556L54.274,44.556L55.26,44.556L55.756,44.556L56.28,44.556L56.729,44.556L57.209,44.556L58.189,44.556L58.684,44.556L59.206,44.556L59.661,44.556L60.14,44.556L61.121,44.556L61.618,44.556L62.136,44.556L62.595,44.556L63.072,44.556L64.055,44.556L64.55,44.556L65.071,44.556L65.522,44.556L66.006,44.556L66.984,44.556L67.236,44.556L67.474,44.556L67.991,44.556L68.45,44.556L68.937,44.556L69.916,44.556L70.406,44.556L70.925,44.556L71.383,44.556L71.869,44.556L72.854,44.556L73.352,44.556L73.875,44.556L74.326,44.556L74.806,44.556L75.785,44.556L76.284,44.556L76.825,44.556L77.26,44.556L77.735,44.556L78.714,44.556L79.214,44.556L79.733,44.556L80.188,44.556L80.669,44.556L81.65,44.556L82.145,44.556L82.665,44.556L83.115,44.556L83.6,44.556L84.58,44.556L85.077,44.556L85.596,44.556L86.049,44.556L86.532,44.556L87.511,44.556L88.002,44.556L88.52,44.556L88.976,44.556L89.465,44.556L90.445,44.556L90.935,44.556L91.451,44.556L91.908,44.556L92.398,44.556L93.382,44.556L93.877,44.556L94.401,44.556L94.853,44.556L95.333,44.556L96.312,44.556L96.812,44.556L97.333,44.556L97.784,44.556L98.265,44.556L99.246,44.556L99.742,44.556L100.265,44.556L100.717,44.556L101.197,44.556L102.178,44.556L102.674,44.556L103.197,44.556L103.648,44.556L104.13,44.556L105.111,44.556L105.606,44.556L106.129,44.556L106.582,44.556L107.061,44.556L108.041,44.556L108.534,44.556L109.052,44.556L109.506,44.556L109.993,44.556L110.975,44.556L111.464,44.556L111.984,44.556L112.441,44.556L112.927,44.556L113.909,44.556L114.409,44.556L114.93,44.556L115.376,44.556L115.862,44.556L116.841,44.556L117.339,44.556L117.861,44.556L118.315,44.556L118.794,44.556L119.775,44.556L120.272,44.556L120.794,44.556L121.25,44.556L121.725,44.556L122.707,44.556L123.206,44.556L123.729,44.556L124.181,44.556L124.657,44.556L125.639,44.556L126.137,44.556L126.658,44.556L127.111,44.556L127.59,44.556L128.571,44.556L129.06,44.556L129.579,44.556L130.036,44.556L130.523,44.556L131.503,44.556L131.993,44.556L132.513,44.556L132.966,44.556L133.454,44.556L134.439,44.556L134.938,44.556L135.46,44.556L135.899,44.556L136.389,44.556L137.37,44.556L137.872,44.556L138.392,44.556L138.842,44.556L139.322,44.556L140.305,44.556L140.802,44.556L141.326,44.556L141.776,44.556L142.255,44.556L143.233,44.556L143.73,44.556L144.251,44.556L144.707,44.556L145.186,44.556L146.165,44.556L146.662,44.556L147.182,44.556L147.638,44.556L148.118,44.556L149.097,44.556L149.589,44.556L150.106,44.556L150.565,44.556L151.05,44.556L152.028,44.556L152.52,44.556L153.04,44.556L153.497,44.556L153.983,44.556L154.965,44.556L155.463,44.556L155.986,44.556L156.439,44.556L156.918,44.556L157.897,44.556L158.395,44.556L158.919,44.556L159.371,44.556L159.85,44.556L160.831,44.556L161.33,44.556L161.853,44.556L162.304,44.556L162.783,44.556L163.765,44.556L164.263,44.556L164.786,44.556L165.241,44.556L165.716,44.556L166.696,44.556L167.193,44.556L167.715,44.556L168.168,44.556L168.648,44.556L169.626,44.556L170.117,44.556L170.635,44.556L171.091,44.556L171.578,44.556L172.559,44.556L173.05,44.556L173.568,44.556L174.026,44.556L174.511,44.556L175.498,44.556L175.997,44.556L176.517,44.556L176.968,44.556L177.445,44.556L178.426,44.556L178.924,44.556L179.465,44.556L179.901,44.556L180.381,44.556L181.36,44.556L181.862,44.556L182.401,44.556L182.832,44.556L183.314,44.556L184.294,44.556L184.794,44.556L185.331,44.556L185.767,44.556L186.245,44.556L187.225,44.556L187.723,44.556L188.245,44.556L188.697,44.556L189.177,44.556L190.155,44.556L190.649,44.556L191.166,44.556L191.623,44.556L192.107,44.556L193.091,44.556L193.578,44.556L194.1,44.556L194.556,44.556L195.04,44.556L196.025,44.556L196.535,44.556L197.045,44.556L197.497,44.556L197.98,44.556L198.956,44.556L199.468,44.556L200,44.556" stroke="#72b7b2" stroke-width="2"/></g></g><path class="foreground" aria-hidden="true" d="" display="none"/></g><g transform="translate(0,0)"><path class="background" aria-hidden="true" d="M0,0h200v200h-200Z"/><g><g class="mark-line role-mark marks" role="graphics-object" aria-roledescription="line mark container"><path aria-label="Time: Aug 27, 2025; Price: 1699; identifier: devote-1-2022" role="graphics-symbol" aria-roledescription="line mark" d="M39.007,11.222L39.135,11.222L39.615,11.222L40.595,11.222L41.092,11.222L41.614,11.222L42.067,11.222L42.547,11.222L43.527,11.222L44.022,11.222L44.543,11.222L44.999,11.222L45.478,11.222L46.457,11.222L46.948,11.222L47.467,11.222L47.924,11.222L48.386,11.222L48.408,11.222L49.39,11.222L49.704,11.222L49.88,11.222L50.401,11.222L50.859,11.222L51.342,11.222L52.332,11.222L52.825,11.222L53.346,11.222L53.795,11.222L54.274,11.222L55.26,11.222L55.756,11.222L56.28,11.222L56.729,11.222L57.209,11.222L58.189,11.222L58.684,11.222L59.206,11.222L59.661,11.222L60.14,11.222L61.121,11.222L61.618,11.222L62.136,11.222L62.595,11.222L63.072,11.222L64.055,11.222L64.55,11.222L65.071,11.222L65.522,11.222L66.006,11.222L66.984,11.222L67.236,11.222L67.474,11.222L67.991,11.222L68.45,11.222L68.937,11.222L69.916,11.222L70.406,11.222L70.925,11.222L71.383,11.222L71.869,11.222L72.854,11.222L73.353,11.222L73.876,11.222L74.326,11.222L74.806,11.222L75.785,11.222L76.284,11.222L76.825,11.222L77.261,11.222L77.736,11.222L78.714,11.222L79.214,11.222L79.734,11.222L80.189,11.222L80.67,11.222L81.65,11.222L82.145,11.222L82.665,11.222L83.115,11.222L83.6,11.222L84.58,11.222L85.077,11.222L85.596,11.222L86.049,11.222L86.532,11.222L87.511,11.222L88.002,11.222L88.52,11.222L88.976,11.222L89.465,11.222L90.445,11.222L90.935,11.222L91.451,11.222L91.908,11.222L92.398,11.222L93.382,11.222L93.877,11.222L94.401,11.222L94.854,11.222L95.333,11.222L96.313,11.222L96.812,11.222L97.333,11.222L97.784,11.222L98.265,11.222L99.246,11.222L99.742,11.222L100.265,11.222L100.717,11.222L101.197,11.222L102.178,11.222L102.674,11.222L103.197,11.222L103.648,11.222L104.13,11.222L105.111,11.222L105.606,11.222L106.129,11.222L106.582,11.222L107.061,11.222L108.042,11.222L108.534,11.222L109.052,11.222L109.506,11.222L109.993,11.222L110.975,11.222L111.464,11.222L111.984,11.222L112.441,11.222L112.927,11.222L113.909,11.222L114.409,11.222L114.93,11.222L115.376,11.222L115.862,11.222L116.841,11.222L117.339,11.222L117.861,11.222L118.315,11.222L118.794,11.222L119.775,11.222L120.272,11.222L120.794,11.222L121.25,11.222L121.725,11.222L122.707,11.222L123.206,11.222L123.729,11.222L124.182,11.222L124.657,11.222L125.639,11.222L126.137,11.222L126.658,11.222L127.111,11.222L127.59,11.222L128.571,11.222L129.06,11.222L129.579,11.222L130.036,11.222L130.523,11.222L131.503,11.222L131.993,11.222L132.513,11.222L132.966,11.222L133.454,11.222L134.439,11.222L134.938,11.222L135.46,11.222L135.899,11.222L136.389,11.222L137.37,11.222L137.872,11.222L138.392,11.222L138.842,11.222L139.322,11.222L140.305,11.222L140.802,11.222L141.326,11.222L141.776,11.222L142.255,11.222L143.233,11.222L143.73,11.222L144.251,11.222L144.708,11.222L145.186,11.222L146.165,11.222L146.662,11.222L147.182,11.222L147.639,11.222L148.118,11.222L149.097,11.222L149.589,11.222L150.107,11.222L150.565,11.222L151.05,11.222L152.028,11.222L152.52,11.222L153.04,11.222L153.497,11.222L153.983,11.222L154.965,11.222L155.463,11.222L155.986,11.222L156.439,11.222L156.919,11.222L157.897,11.222L158.395,11.222L158.919,11.222L159.371,11.222L159.85,11.222L160.831,11.222L161.33,11.222L161.853,11.222L162.304,11.222L162.783,11.222L163.765,11.222L164.263,11.222L164.786,11.222L165.241,11.222L165.716,11.222L166.696,11.222L167.193,11.222L167.715,11.222L168.168,11.222L168.649,11.222L169.626,11.222L170.117,11.222L170.635,11.222L171.091,11.222L171.579,11.222L172.559,11.222L173.05,11.222L173.568,11.222L174.026,11.222L174.511,11.222L175.498,11.222L175.998,11.222L176.517,11.222L176.969,11.222L177.446,11.222L178.426,11.222L178.924,11.222L179.465,11.222L179.901,11.222L180.381,11.222L181.36,11.222L181.862,11.222L182.401,11.222L182.832,11.222L183.315,11.222L184.294,11.222L184.794,11.222L185.331,11.222L185.767,11.222L186.245,11.222L187.225,11.222L187.723,11.222L188.245,11.222L188.697,11.222L189.177,11.222L190.155,11.222L190.649,11.222L191.166,11.222L191.623,11.222L192.107,11.222L193.091,11.222L193.578,11.222L194.1,11.222L194.556,11.222L195.04,11.222L196.025,11.222L196.535,11.222L197.045,11.222L197.497,11.222L197.98,11.222L198.956,11.222L199.468,11.222L200,11.222" stroke="#4c78a8" stroke-width="2"/></g></g><path class="foreground" aria-hidden="true" d="" display="none"/></g><g transform="translate(0,0)"><path class="background" aria-hidden="true" d="M0,0h200v200h-200Z"/><g><g class="mark-line role-mark marks" role="graphics-object" aria-roledescription="line mark container"><path aria-label="Time: Aug 31, 2025; Price: 1599; identifier: silex-400-oak-bork-2026" role="graphics-symbol" aria-roledescription="line mark" d="M49.704,22.333L49.88,22.333L50.401,22.333L50.859,22.333L51.342,22.333L52.333,22.333L52.826,22.333L53.346,22.333L53.795,22.333L54.274,22.333L55.261,22.333L55.756,22.333L56.281,22.333L56.729,22.333L57.209,22.333L58.189,22.333L58.684,22.333L59.207,22.333L59.661,22.333L60.14,22.333L61.121,22.333L61.618,22.333L62.137,22.333L62.596,22.333L63.072,22.333L64.055,22.333L64.55,22.333L65.071,22.333L65.523,22.333L66.006,22.333L66.984,22.333L67.236,22.333L67.474,22.333L67.991,22.333L68.45,22.333L68.937,22.333L69.916,22.333L70.406,22.333L70.926,22.333L71.383,22.333L71.869,22.333L72.854,22.333L73.353,22.333L73.876,22.333L74.326,22.333L74.806,22.333L75.785,22.333L76.284,22.333L76.825,22.333L77.261,22.333L77.736,22.333L78.714,22.333L79.214,22.333L79.734,22.333L80.189,22.333L80.67,22.333L81.65,22.333L82.145,22.333L82.665,22.333L83.116,22.333L83.6,22.333L84.581,22.333L85.077,22.333L85.597,22.333L86.049,22.333L86.532,22.333L87.511,22.333L88.002,22.333L88.52,22.333L88.976,22.333L89.465,22.333L90.445,22.333L90.935,22.333L91.451,22.333L91.908,22.333L92.398,22.333L93.383,22.333L93.877,22.333L94.401,22.333L94.854,22.333L95.334,22.333L96.313,22.333L96.812,22.333L97.333,22.333L97.784,22.333L98.265,22.333L99.246,22.333L99.742,22.333L100.266,22.333L100.718,22.333L101.197,22.333L102.178,22.333L102.674,22.333L103.197,22.333L103.648,22.333L104.13,22.333L105.111,22.333L105.607,22.333L106.129,22.333L106.583,22.333L107.061,22.333L108.042,22.333L108.534,22.333L109.053,22.333L109.506,22.333L109.993,22.333L110.975,22.333L111.464,22.333L111.984,22.333L112.441,22.333L112.927,22.333L113.909,22.333L114.409,22.333L114.931,22.333L115.376,22.333L115.862,22.333L116.841,22.333L117.339,22.333L117.861,22.333L118.315,22.333L118.794,22.333L119.775,22.333L120.273,22.333L120.795,22.333L121.25,22.333L121.725,22.333L122.708,22.333L123.206,22.333L123.729,22.333L124.182,22.333L124.657,22.333L125.639,22.333L126.137,22.333L126.658,22.333L127.111,22.333L127.59,22.333L128.571,22.333L129.06,22.333L129.579,22.333L130.036,22.333L130.523,22.333L131.504,22.333L131.993,22.333L132.513,22.333L132.967,22.333L133.455,22.333L134.439,22.333L134.938,22.333L135.461,22.333L135.899,22.333L136.389,22.333L137.37,22.333L137.872,22.333L138.393,22.333L138.842,22.333L139.322,22.333L140.305,22.333L140.802,22.333L141.326,22.333L141.776,22.333L142.255,22.333L143.233,22.333L143.73,22.333L144.251,22.333L144.708,22.333L145.186,22.333L146.165,22.333L146.663,22.333L147.182,22.333L147.639,22.333L148.118,22.333L149.097,22.333L149.589,22.333L150.107,22.333L150.565,22.333L151.05,22.333L152.028,22.333L152.52,22.333L153.04,22.333L153.497,22.333L153.984,22.333L154.965,22.333L155.463,22.333L155.986,22.333L156.439,22.333L156.919,22.333L157.897,22.333L158.395,22.333L158.92,22.333L159.371,22.333L159.851,22.333L160.831,22.333L161.33,22.333L161.853,22.333L162.304,22.333L162.783,22.333L163.765,22.333L164.263,22.333L164.787,22.333L165.241,22.333L165.717,22.333L166.697,22.333L167.193,22.333L167.715,22.333L168.168,22.333L168.649,22.333L169.627,22.333L170.117,22.333L170.635,22.333L171.091,22.333L171.579,22.333L172.559,22.333L173.05,22.333L173.569,22.333L174.026,22.333L174.511,22.333L175.498,22.333L175.998,22.333L176.517,22.333L176.969,22.333L177.446,22.333L178.427,22.333L178.924,22.333L179.466,22.333L179.901,22.333L180.381,22.333L181.361,22.333L181.862,22.333L182.401,22.333L182.832,22.333L183.315,22.333L184.294,22.333L184.794,22.333L185.331,22.333L185.767,22.333L186.245,22.333L187.225,22.333L187.723,22.333L188.245,22.333L188.698,22.333L189.177,22.333L190.155,22.333L190.649,22.333L191.166,22.333L191.623,22.333L192.107,22.333L193.091,22.333L193.578,22.333L194.1,22.333L194.556,22.333L195.04,22.333L196.025,22.333L196.535,22.333L197.045,22.333L197.497,22.333L197.98,22.333L198.956,22.333L199.468,22.333L200,22.333" stroke="#f58518" stroke-width="2"/></g></g><path class="foreground" aria-hidden="true" d="" display="none"/></g><g transform="translate(0,0)"><path class="background" aria-hidden="true" d="M0,0h200v200h-200Z"/><g><g class="mark-line role-mark marks" role="graphics-object" aria-roledescription="line mark container"><path aria-label="Time: Aug 31, 2025; Price: 1599; identifier: silex-400-warm-slate-grey-2026" role="graphics-symbol" aria-roledescription="line mark" d="M49.704,22.333L49.88,22.333L50.401,22.333L50.859,22.333L51.342,22.333L52.333,22.333L52.826,22.333L53.346,22.333L53.795,22.333L54.274,22.333L55.261,22.333L55.756,22.333L56.281,22.333L56.73,22.333L57.209,22.333L58.189,22.333L58.684,22.333L59.207,22.333L59.661,22.333L60.14,22.333L61.121,22.333L61.618,22.333L62.137,22.333L62.596,22.333L63.073,22.333L64.055,22.333L64.55,22.333L65.071,22.333L65.523,22.333L66.006,22.333L66.985,22.333L67.236,22.333L67.474,22.333L67.991,22.333L68.45,22.333L68.937,22.333L69.916,22.333L70.406,22.333L70.926,22.333L71.383,22.333L71.869,22.333L72.854,22.333L73.353,22.333L73.876,22.333L74.326,22.333L74.806,22.333L75.785,22.333L76.284,22.333L76.825,22.333L77.261,22.333L77.736,22.333L78.714,22.333L79.214,22.333L79.734,22.333L80.189,22.333L80.67,22.333L81.651,22.333L82.145,22.333L82.665,22.333L83.116,22.333L83.6,22.333L84.581,22.333L85.077,22.333L85.597,22.333L86.049,22.333L86.532,22.333L87.512,22.333L88.002,22.333L88.52,22.333L88.977,22.333L89.465,22.333L90.445,22.333L90.935,22.333L91.451,22.333L91.908,22.333L92.398,22.333L93.383,22.333L93.877,22.333L94.401,22.333L94.854,22.333L95.334,22.333L96.313,22.333L96.812,22.333L97.333,22.333L97.784,22.333L98.265,22.333L99.246,22.333L99.742,22.333L100.266,22.333L100.718,22.333L101.198,22.333L102.179,22.333L102.674,22.333L103.198,22.333L103.649,22.333L104.13,22.333L105.111,22.333L105.607,22.333L106.129,22.333L106.583,22.333L107.061,22.333L108.042,22.333L108.534,22.333L109.053,22.333L109.506,22.333L109.993,22.333L110.975,22.333L111.464,22.333L111.984,22.333L112.441,22.333L112.927,22.333L113.91,22.333L114.409,22.333L114.931,22.333L115.376,22.333L115.862,22.333L116.841,22.333L117.339,22.333L117.861,22.333L118.315,22.333L118.795,22.333L119.775,22.333L120.273,22.333L120.795,22.333L121.25,22.333L121.725,22.333L122.708,22.333L123.206,22.333L123.729,22.333L124.182,22.333L124.657,22.333L125.639,22.333L126.137,22.333L126.658,22.333L127.112,22.333L127.59,22.333L128.571,22.333L129.06,22.333L129.579,22.333L130.036,22.333L130.523,22.333L131.504,22.333L131.993,22.333L132.513,22.333L132.967,22.333L133.455,22.333L134.439,22.333L134.938,22.333L135.461,22.333L135.899,22.333L136.389,22.333L137.37,22.333L137.872,22.333L138.393,22.333L138.842,22.333L139.322,22.333L140.305,22.333L140.803,22.333L141.326,22.333L141.776,22.333L142.255,22.333L143.234,22.333L143.73,22.333L144.251,22.333L144.708,22.333L145.186,22.333L146.165,22.333L146.663,22.333L147.182,22.333L147.639,22.333L148.118,22.333L149.097,22.333L149.589,22.333L150.107,22.333L150.565,22.333L151.05,22.333L152.029,22.333L152.52,22.333L153.04,22.333L153.497,22.333L153.984,22.333L154.965,22.333L155.463,22.333L155.987,22.333L156.439,22.333L156.919,22.333L157.897,22.333L158.395,22.333L158.92,22.333L159.371,22.333L159.851,22.333L160.832,22.333L161.33,22.333L161.853,22.333L162.304,22.333L162.784,22.333L163.765,22.333L164.263,22.333L164.787,22.333L165.241,22.333L165.717,22.333L166.697,22.333L167.193,22.333L167.715,22.333L168.168,22.333L168.649,22.333L169.627,22.333L170.117,22.333L170.635,22.333L171.091,22.333L171.579,22.333L172.56,22.333L173.05,22.333L173.569,22.333L174.026,22.333L174.511,22.333L175.498,22.333L175.998,22.333L176.518,22.333L176.969,22.333L177.446,22.333L178.427,22.333L178.924,22.333L179.466,22.333L179.901,22.333L180.381,22.333L181.361,22.333L181.862,22.333L182.402,22.333L182.832,22.333L183.315,22.333L184.294,22.333L184.794,22.333L185.331,22.333L185.767,22.333L186.246,22.333L187.225,22.333L187.723,22.333L188.245,22.333L188.698,22.333L189.177,22.333L190.155,22.333L190.649,22.333L191.167,22.333L191.623,22.333L192.108,22.333L193.091,22.333L193.578,22.333L194.1,22.333L194.556,22.333L195.04,22.333L196.025,22.333L196.535,22.333L197.045,22.333L197.497,22.333L197.98,22.333L198.956,22.333L199.469,22.333L200,22.333" stroke="#e45756" stroke-width="2"/></g></g><path class="foreground" aria-hidden="true" d="" display="none"/></g></g><g class="mark-group role-legend" role="graphics-symbol" aria-roledescription="legend" aria-label="Symbol legend titled 'identifier' for stroke color with 16 values: devote-1-2022, silex-400-oak-bork-2026, silex-400-warm-slate-grey-2026, devote-1-2024, fastroad-ar-2, ending with allure-rs-2-2024"><g transform="translate(220,0)"><path class="background" aria-hidden="true" d="M0,0h256v222h-256Z" pointer-events="none"/><g><g class="mark-group role-legend-entry"><g transform="translate(0,16)"><path class="background" aria-hidden="true" d="M0,0h0v0h0Z" pointer-events="none"/><g><g class="mark-group role-scope" role="graphics-object" aria-roledescription="group mark container"><g transform="translate(0,0)"><path class="background" aria-hidden="true" d="M0,0h256v11h-256Z" pointer-events="none" opacity="1"/><g><g class="mark-symbol role-legend-symbol" pointer-events="none"><path transform="translate(6,6)" d="M-5,0L5,0" stroke="#4c78a8" stroke-width="1.5" opacity="1"/></g><g class="mark-text role-legend-label" pointer-events="none"><text text-anchor="start" transform="translate(16,9)" font-family="Liberation Mono" font-size="10px" fill="#000" opacity="1">devote-1-2022</text></g></g><path class="foreground" aria-hidden="true" d="" pointer-events="none" display="none"/></g><g transform="translate(0,13)"><path class="background" aria-hidden="true" d="M0,0h256v11h-256Z" pointer-events="none" opacity="1"/><g><g class="mark-symbol role-legend-symbol" pointer-events="none"><path transform="translate(6,6)" d="M-5,0L5,0" stroke="#f58518" stroke-width="1.5" opacity="1"/></g><g class="mark-text role-legend-label" pointer-events="none"><text text-anchor="start" transform="translate(16,9)" font-family="Liberation Mono" font-size="10px" fill="#000" opacity="1">silex-400-oak-bork-2026</text></g></g><path class="foreground" aria-hidden="true" d="" pointer-events="none" display="none"/></g><g transform="translate(0,26)"><path class="background" aria-hidden="true" d="M0,0h256v11h-256Z" pointer-events="none" opacity="1"/><g><g class="mark-symbol role-legend-symbol" pointer-events="none"><path transform="translate(6,6)" d="M-5,0L5,0" stroke="#e45756" stroke-width="1.5" opacity="1"/></g><g class="mark-text role-legend-label" pointer-events="none"><text text-anchor="start" transform="translate(16,9)" font-family="Liberation Mono" font-size="10px" fill="#000" opacity="1">silex-400-warm-slate-grey-2026</text></g></g><path class="foreground" aria-hidden="true" d="" pointer-events="none" display="none"/></g><g transform="translate(0,39)"><path class="background" aria-hidden="true" d="M0,0h256v11h-256Z" pointer-events="none" opacity="1"/><g><g class="mark-symbol role-legend-symbol" pointer-events="none"><path transform="translate(6,6)" d="M-5,0L5,0" stroke="#72b7b2" stroke-width="1.5" opacity="1"/></g><g class="mark-text role-legend-label" pointer-events="none"><text text-anchor="start" transform="translate(16,9)" font-family="Liberation Mono" font-size="10px" fill="#000" opacity="1">devote-1-2024</text></g></g><path class="foreground" aria-hidden="true" d="" pointer-events="none" display="none"/></g><g transform="translate(0,52)"><path class="background" aria-hidden="true" d="M0,0h256v11h-256Z" pointer-events="none" opacity="1"/><g><g class="mark-symbol role-legend-symbol" pointer-events="none"><path transform="translate(6,6)" d="M-5,0L5,0" stroke="#54a24b" stroke-width="1.5" opacity="1"/></g><g class="mark-text role-legend-label" pointer-events="none"><text text-anchor="start" transform="translate(16,9)" font-family="Liberation Mono" font-size="10px" fill="#000" opacity="1">fastroad-ar-2</text></g></g><path class="foreground" aria-hidden="true" d="" pointer-events="none" display="none"/></g><g transform="translate(0,65)"><path class="background" aria-hidden="true" d="M0,0h256v11h-256Z" pointer-events="none" opacity="1"/><g><g class="mark-symbol role-legend-symbol" pointer-events="none"><path transform="translate(6,6)" d="M-5,0L5,0" stroke="#eeca3b" stroke-width="1.5" opacity="1"/></g><g class="mark-text role-legend-label" pointer-events="none"><text text-anchor="start" transform="translate(16,9)" font-family="Liberation Mono" font-size="10px" fill="#000" opacity="1">thrive-2</text></g></g><path class="foreground" aria-hidden="true" d="" pointer-events="none" display="none"/></g><g transform="translate(0,78)"><path class="background" aria-hidden="true" d="M0,0h256v11h-256Z" pointer-events="none" opacity="1"/><g><g class="mark-symbol role-legend-symbol" pointer-events="none"><path transform="translate(6,6)" d="M-5,0L5,0" stroke="#b279a2" stroke-width="1.5" opacity="1"/></g><g class="mark-text role-legend-label" pointer-events="none"><text text-anchor="start" transform="translate(16,9)" font-family="Liberation Mono" font-size="10px" fill="#000" opacity="1">allure-rs-1-2023</text></g></g><path class="foreground" aria-hidden="true" d="" pointer-events="none" display="none"/></g><g transform="translate(0,91)"><path class="background" aria-hidden="true" d="M0,0h256v11h-256Z" pointer-events="none" opacity="1"/><g><g class="mark-symbol role-legend-symbol" pointer-events="none"><path transform="translate(6,6)" d="M-5,0L5,0" stroke="#ff9da6" stroke-width="1.5" opacity="1"/></g><g class="mark-text role-legend-label" pointer-events="none"><text text-anchor="start" transform="translate(16,9)" font-family="Liberation Mono" font-size="10px" fill="#000" opacity="1">roam-2</text></g></g><path class="foreground" aria-hidden="true" d="" pointer-events="none" display="none"/></g><g transform="translate(0,104)"><path class="background" aria-hidden="true" d="M0,0h256v11h-256Z" pointer-events="none" opacity="1"/><g><g class="mark-symbol role-legend-symbol" pointer-events="none"><path transform="translate(6,6)" d="M-5,0L5,0" stroke="#9d755d" stroke-width="1.5" opacity="1"/></g><g class="mark-text role-legend-label" pointer-events="none"><text text-anchor="start" transform="translate(16,9)" font-family="Liberation Mono" font-size="10px" fill="#000" opacity="1">fastroad-sl-3-2022</text></g></g><path class="foreground" aria-hidden="true" d="" pointer-events="none" display="none"/></g><g transform="translate(0,117)"><path class="background" aria-hidden="true" d="M0,0h256v11h-256Z" pointer-events="none" opacity="1"/><g><g class="mark-symbol role-legend-symbol" pointer-events="none"><path transform="translate(6,6)" d="M-5,0L5,0" stroke="#bab0ac" stroke-width="1.5" opacity="1"/></g><g class="mark-text role-legend-label" pointer-events="none"><text text-anchor="start" transform="translate(16,9)" font-family="Liberation Mono" font-size="10px" fill="#000" opacity="1">allure-rs-2-2023</text></g></g><path class="foreground" aria-hidden="true" d="" pointer-events="none" display="none"/></g><g transform="translate(0,130)"><path class="background" aria-hidden="true" d="M0,0h256v11h-256Z" pointer-events="none" opacity="1"/><g><g class="mark-symbol role-legend-symbol" pointer-events="none"><path transform="translate(6,6)" d="M-5,0L5,0" stroke="#4c78a8" stroke-width="1.5" opacity="1"/></g><g class="mark-text role-legend-label" pointer-events="none"><text text-anchor="start" transform="translate(16,9)" font-family="Liberation Mono" font-size="10px" fill="#000" opacity="1">escape-city-disc-1-2024</text></g></g><path class="foreground" aria-hidden="true" d="" pointer-events="none" display="none"/></g><g transform="translate(0,143)"><path class="background" aria-hidden="true" d="M0,0h256v11h-256Z" pointer-events="none" opacity="1"/><g><g class="mark-symbol role-legend-symbol" pointer-events="none"><path transform="translate(6,6)" d="M-5,0L5,0" stroke="#f58518" stroke-width="1.5" opacity="1"/></g><g class="mark-text role-legend-label" pointer-events="none"><text text-anchor="start" transform="translate(16,9)" font-family="Liberation Mono" font-size="10px" fill="#000" opacity="1">sdrbike-escape-1-city-disc</text></g></g><path class="foreground" aria-hidden="true" d="" pointer-events="none" display="none"/></g><g transform="translate(0,156)"><path class="background" aria-hidden="true" d="M0,0h256v11h-256Z" pointer-events="none" opacity="1"/><g><g class="mark-symbol role-legend-symbol" pointer-events="none"><path transform="translate(6,6)" d="M-5,0L5,0" stroke="#e45756" stroke-width="1.5" opacity="1"/></g><g class="mark-text role-legend-label" pointer-events="none"><text text-anchor="start" transform="translate(16,9)" font-family="Liberation Mono" font-size="10px" fill="#000" opacity="1">roam-disc-2-2024</text></g></g><path class="foreground" aria-hidden="true" d="" pointer-events="none" display="none"/></g><g transform="translate(0,169)"><path class="background" aria-hidden="true" d="M0,0h256v11h-256Z" pointer-events="none" opacity="1"/><g><g class="mark-symbol role-legend-symbol" pointer-events="none"><path transform="translate(6,6)" d="M-5,0L5,0" stroke="#72b7b2" stroke-width="1.5" opacity="1"/></g><g class="mark-text role-legend-label" pointer-events="none"><text text-anchor="start" transform="translate(16,9)" font-family="Liberation Mono" font-size="10px" fill="#000" opacity="1">rove-2</text></g></g><path class="foreground" aria-hidden="true" d="" pointer-events="none" display="none"/></g><g transform="translate(0,182)"><path class="background" aria-hidden="true" d="M0,0h256v11h-256Z" pointer-events="none" opacity="1"/><g><g class="mark-symbol role-legend-symbol" pointer-events="none"><path transform="translate(6,6)" d="M-5,0L5,0" stroke="#54a24b" stroke-width="1.5" opacity="1"/></g><g class="mark-text role-legend-label" pointer-events="none"><text text-anchor="start" transform="translate(16,9)" font-family="Liberation Mono" font-size="10px" fill="#000" opacity="1">allure-rs-2-2022</text></g></g><path class="foreground" aria-hidden="true" d="" pointer-events="none" display="none"/></g><g transform="translate(0,195)"><path class="background" aria-hidden="true" d="M0,0h256v11h-256Z" pointer-events="none" opacity="1"/><g><g class="mark-symbol role-legend-symbol" pointer-events="none"><path transform="translate(6,6)" d="M-5,0L5,0" stroke="#eeca3b" stroke-width="1.5" opacity="1"/></g><g class="mark-text role-legend-label" pointer-events="none"><text text-anchor="start" transform="translate(16,9)" font-family="Liberation Mono" font-size="10px" fill="#000" opacity="1">allure-rs-2-2024</text></g></g><path class="foreground" aria-hidden="true" d="" pointer-events="none" display="none"/></g></g></g><path class="foreground" aria-hidden="true" d="" pointer-events="none" display="none"/></g></g><g class="mark-text role-legend-title" pointer-events="none"><text text-anchor="start" transform="translate(0,9)" font-family="Liberation Mono" font-size="11px" font-weight="bold" fill="#000" opacity="1">identifier</text></g></g><path class="foreground" aria-hidden="true" d="" pointer-events="none" display="none"/></g></g></g><path class="foreground" aria-hidden="true" d="" display="none"/></g></g></g></svg>