<svg xmlns="http://www.w3.org/2000/svg" xmlns:xlink="http://www.w3.org/1999/xlink" version="1.1" class="marks" width="548" height="244" viewBox="0 0 548 244"><rect width="548" height="244" fill="white"/><g fill="none" stroke-miterlimit="10" transform="translate(67,7)"><g class="mark-group role-frame root" role="graphics-object" aria-roledescription="group mark container"><g transform="translate(0,0)"><path class="background" aria-hidden="true" d="M0.5,0.5h200v200h-200Z" stroke="#ddd"/><g><g class="mark-group role-axis" aria-hidden="true"><g transform="translate(0.5,200.5)"><path class="background" aria-hidden="true" d="M0,0h0v0h0Z" pointer-events="none"/><g><g class="mark-rule role-axis-grid" pointer-events="none"><line transform="translate(11,-200)" x2="0" y2="200" stroke="#ddd" stroke-width="1" opacity="1"/><line transform="translate(42,-200)" x2="0" y2="200" stroke="#ddd" stroke-width="1" opacity="1"/><line transform="translate(72,-200)" x2="0" y2="200" stroke="#ddd" stroke-width="1" opacity="1"/><line transform="translate(103,-200)" x2="0" y2="200" stroke="#ddd" stroke-width="1" opacity="1"/><line transform="translate(133,-200)" x2="0" y2="200" stroke="#ddd" stroke-width="1" opacity="1"/><line transform="translate(164,-200)" x2="0" y2="200" stroke="#ddd" stroke-width="1" opacity="1"/><line transform="translate(194,-200)" x2="0" y2="200" stroke="#ddd" stroke-width="1" opacity="1"/></g></g><path class="foreground" aria-hidden="true" d="" pointer-events="none" display="none"/></g></g><g class="mark-group role-axis" aria-hidden="true"><g transform="translate(0.5,0.5)"><path class="background" aria-hidden="true" d="M0,0h0v0h0Z" pointer-events="none"/><g><g class="mark-rule role-axis-grid" pointer-events="none"><line transform="translate(0,200)" x2="200" y2="0" stroke="#ddd" stroke-width="1" opacity="1"/><line transform="translate(0,144)" x2="200" y2="0" stroke="#ddd" stroke-width="1" opacity="1"/><line transform="translate(0,89)" x2="200" y2="0" stroke="#ddd" stroke-width="1" opacity="1"/><line transform="translate(0,33)" x2="200" y2="0" stroke="#ddd" stroke-width="1" opacity="1"/></g></g><path class="foreground" aria-hidden="true" d="" pointer-events="none" display="none"/></g></g><g class="mark-group role-axis" role="graphics-symbol" aria-roledescription="axis" aria-label="X-axis titled 'Time' for a time scale with values from Thursday, 14 August 2025, 8:34:48 AM to Monday, 29 September 2025, 8:53:21 AM"><g transform="translate(0.5,200.5)"><path class="background" aria-hidden="true" d="M0,0h0v0h0Z" pointer-events="none"/><g><g class="mark-rule role-axis-tick" pointer-events="none"><line transform="translate(11,0)" x2="0" y2="5" stroke="#888" stroke-width="1" opacity="1"/><line transform="translate(42,0)" x2="0" y2="5" stroke="#888" stroke-width="1" opacity="1"/><line transform="translate(72,0)" x2="0" y2="5" stroke="#888" stroke-width="1" opacity="1"/><line transform="translate(103,0)" x2="0" y2="5" stroke="#888" stroke-width="1" opacity="1"/><line transform="translate(133,0)" x2="0" y2="5" stroke="#888" stroke-width="1" opacity="1"/><line transform="translate(164,0)" x2="0" y2="5" stroke="#888" stroke-width="1" opacity="1"/><line transform="translate(194,0)" x2="0" y2="5" stroke="#888" stroke-width="1" opacity="1"/></g><g class="mark-text role-axis-label" pointer-events="none"><text text-anchor="middle" transform="translate(11.485877713690709,15)" font-family="Liberation Mono" font-size="10px" fill="#000" opacity="1">Aug 17</text><text text-anchor="middle" transform="translate(41.91214445863418,15)" font-family="Liberation Mono" font-size="10px" fill="#000" opacity="0">Aug 24</text><text text-anchor="middle" transform="translate(72.33841120357765,15)" font-family="Liberation Mono" font-size="10px" fill="#000" opacity="1">Aug 31</text><text text-anchor="middle" transform="translate(102.76467794852111,15)" font-family="Liberation Mono" font-size="10px" fill="#000" opacity="0">Sep 07</text><text text-anchor="middle" transform="translate(133.1909446934646,15)" font-family="Liberation Mono" font-size="10px" fill="#000" opacity="1">Sep 14</text><text text-anchor="middle" transform="translate(163.61721143840805,15)" font-family="Liberation Mono" font-size="10px" fill="#000" opacity="0">Sep 21</text><text text-anchor="middle" transform="translate(194.04347818335154,15)" font-family="Liberation Mono" font-size="10px" fill="#000" opacity="1">Sep 28</text></g><g class="mark-rule role-axis-domain" pointer-events="none"><line transform="translate(0,0)" x2="200" y2="0" stroke="#888" stroke-width="1" opacity="1"/></g><g class="mark-text role-axis-title" pointer-events="none"><text text-anchor="middle" transform="translate(100,30)" font-family="Liberation Mono" font-size="11px" font-weight="bold" fill="#000" opacity="1">Time</text></g></g><path class="foreground" aria-hidden="true" d="" pointer-events="none" display="none"/></g></g><g class="mark-group role-axis" role="graphics-symbol" aria-roledescription="axis" aria-label="Y-axis titled 'Price' for a linear scale with values from 0 to 1,800"><g transform="translate(0.5,0.5)"><path class="background" aria-hidden="true" d="M0,0h0v0h0Z" pointer-events="none"/><g><g class="mark-rule role-axis-tick" pointer-events="none"><line transform="translate(0,200)" x2="-5" y2="0" stroke="#888" stroke-width="1" opacity="1"/><line transform="translate(0,144)" x2="-5" y2="0" stroke="#888" stroke-width="1" opacity="1"/><line transform="translate(0,89)" x2="-5" y2="0" stroke="#888" stroke-width="1" opacity="1"/><line transform="translate(0,33)" x2="-5" y2="0" stroke="#888" stroke-width="1" opacity="1"/></g><g class="mark-text role-axis-label" pointer-events="none"><text text-anchor="end" transform="translate(-7,203)" font-family="Liberation Mono" font-size="10px" fill="#000" opacity="1">0</text><text text-anchor="end" transform="translate(-7,147.44444444444443)" font-family="Liberation Mono" font-size="10px" fill="#000" opacity="1">500</text><text text-anchor="end" transform="translate(-7,91.88888888888889)" font-family="Liberation Mono" font-size="10px" fill="#000" opacity="1">1,000</text><text text-anchor="end" transform="translate(-7,36.33333333333333)" font-family="Liberation Mono" font-size="10px" fill="#000" opacity="1">1,500</text></g><g class="mark-rule role-axis-domain" pointer-events="none"><line transform="translate(0,200)" x2="0" y2="-200" stroke="#888" stroke-width="1" opacity="1"/></g><g class="mark-text role-axis-title" pointer-events="none"><text text-anchor="middle" transform="translate(-51,100) rotate(-90) translate(0,-2)" font-family="Liberation Mono" font-size="11px" font-weight="bold" fill="#000" opacity="1">Price</text></g></g><path class="foreground" aria-hidden="true" d="" pointer-events="none" display="none"/></g></g><g class="mark-group role-scope pathgroup" role="graphics-object" aria-roledescription="group mark container"><g transform="translate(0,0)"><path class="background" aria-hidden="true" d="M0,0h200v200h-200Z"/><g><g class="mark-line role-mark marks" role="graphics-object" aria-roledescription="line mark container"><path aria-label="Time: Aug 14, 2025; Price: 899; identifier: escape-city-disc-1-2024" role="graphics-symbol" aria-roledescription="line mark" d="M0,100.111L0.036,100.111L0.065,100.111L0.866,100.111L1.503,100.111L2.217,100.111L3.683,100.111L4.403,100.111L5.198,100.111L5.85,100.111L6.561,100.111L8.016,100.111L8.744,100.111L9.516,100.111L10.188,100.111L10.901,100.111L12.379,100.111L13.089,100.111L13.865,100.111L14.538,100.111L15.253,100.111L16.738,100.111L17.452,100.111L18.253,100.111L18.534,100.111L18.899,100.111L19.596,100.111L21.052,100.111L21.788,100.111L22.56,100.111L23.234,100.111L23.941,100.111L25.4,100.111L26.129,100.111L26.932,100.111L27.257,100.111L27.579,100.111L28.292,100.111L29.744,100.111L30.479,100.111L31.254,100.111L31.928,100.111L32.637,100.111L34.092,100.111L34.824,100.111L35.599,100.111L36.271,100.111L36.981,100.111L38.435,100.111L39.164,100.111L39.932,100.111L40.606,100.111L41.323,100.111L42.787,100.111L43.507,100.111L44.281,100.111L44.958,100.111L45.671,100.111L47.14,100.111L47.873,100.111L48.666,100.111L49.315,100.111L50.023,100.111L51.479,100.111L52.217,100.111L53.658,100.111L54.365,100.111L55.82,100.111L56.555,100.111L56.84,100.111L57.329,100.111L57.814,100.111L58.004,100.111L58.715,100.111L60.166,100.111L60.903,100.111L61.678,100.111L62.349,100.111L63.06,100.111L64.513,100.111L65.247,100.111L66.019,100.111L66.694,100.111L67.404,100.111L68.855,100.111L69.583,100.111L70.352,100.111L71.03,100.111L71.714,100.111L71.748,100.111L73.203,100.111L73.668,100.111L73.928,100.111L74.701,100.111L75.379,100.111L76.096,100.111L77.564,100.111L78.294,100.111L79.066,100.111L79.731,100.111L80.441,100.111L81.903,100.111L82.638,100.111L83.415,100.111L84.081,100.111L84.791,100.111L86.244,100.111L86.978,100.111L87.752,100.111L88.425,100.111L89.136,100.111L90.59,100.111L91.326,100.111L92.095,100.111L92.775,100.111L93.482,100.111L94.938,100.111L95.672,100.111L96.444,100.111L97.113,100.111L97.83,100.111L99.28,100.111L99.653,100.111L100.005,100.111L100.772,100.111L101.453,100.111L102.174,100.111L103.625,100.111L104.351,100.111L105.121,100.111L105.8,100.111L106.52,100.111L107.979,100.111L108.719,100.111L109.494,100.111L110.162,100.111L110.873,100.111L112.324,100.111L113.064,100.111L113.865,100.111L114.511,100.111L115.215,100.111L116.665,100.111L117.406,100.111L118.176,100.111L118.851,100.111L119.563,100.111L121.017,100.111L121.751,100.111L122.521,100.111L123.189,100.111L123.907,100.111L125.36,100.111L126.096,100.111L126.866,100.111L127.537,100.111L128.253,100.111L129.704,100.111L130.432,100.111L131.199,100.111L131.876,100.111L132.6,100.111L134.052,100.111L134.779,100.111L135.543,100.111L136.221,100.111L136.946,100.111L138.406,100.111L139.139,100.111L139.915,100.111L140.585,100.111L141.295,100.111L142.749,100.111L143.489,100.111L144.261,100.111L144.93,100.111L145.643,100.111L147.097,100.111L147.832,100.111L148.608,100.111L149.278,100.111L149.989,100.111L151.443,100.111L152.178,100.111L152.953,100.111L153.622,100.111L154.336,100.111L155.79,100.111L156.524,100.111L157.298,100.111L157.971,100.111L158.68,100.111L160.133,100.111L160.863,100.111L161.631,100.111L162.304,100.111L163.025,100.111L164.481,100.111L165.206,100.111L165.977,100.111L166.654,100.111L167.374,100.111L168.83,100.111L169.57,100.111L170.344,100.111L171.004,100.111L171.725,100.111L173.176,100.111L173.913,100.111L174.687,100.111L175.36,100.111L176.07,100.111L177.524,100.111L178.262,100.111L179.035,100.111L179.71,100.111L180.414,100.111L181.871,100.111L182.61,100.111L183.385,100.111L184.055,100.111L184.76,100.111L186.215,100.111L186.954,100.111L187.726,100.111L188.398,100.111L189.107,100.111L190.561,100.111L191.286,100.111L192.055,100.111L192.733,100.111L193.454,100.111L194.908,100.111L195.633,100.111L196.403,100.111L197.076,100.111L197.799,100.111L199.258,100.111L199.998,100.111" stroke="#4c78a8" stroke-width="2"/></g></g><path class="foreground" aria-hidden="true" d="" display="none"/></g><g transform="translate(0,0)"><path class="background" aria-hidden="true" d="M0,0h200v200h-200Z"/><g><g class="mark-line role-mark marks" role="graphics-object" aria-roledescription="line mark container"><path aria-label="Time: Aug 14, 2025; Price: 999; identifier: roam-2" role="graphics-symbol" aria-roledescription="line mark" d="M0,89L0.036,89L0.065,89L0.866,89L1.503,89L2.218,89L3.684,89L4.403,89L5.198,89L5.85,89L6.561,89L8.016,89L8.745,89L9.516,89L10.188,89L10.908,89L12.379,89L13.09,89L13.865,89L14.538,89L15.253,89L16.738,89L17.452,89L18.253,89L18.534,89L18.899,89L19.596,89L21.052,89L21.788,89L22.56,89L23.234,89L23.941,89L25.4,89L26.129,89L26.932,89L27.257,89L27.579,89L28.293,89L29.744,89L30.479,89L31.254,89L31.929,89L32.637,89L34.092,89L34.824,89L35.599,89L36.271,89L36.981,89L38.435,89L39.164,89L39.932,89L40.606,89L41.323,89L42.787,89L43.507,89L44.281,89L44.958,89L45.671,89L47.14,89L47.873,89L48.666,89L49.315,89L50.023,89L51.479,89L52.217,89L53.658,89L54.365,89L55.821,89L56.555,89L56.84,89L57.329,89L57.814,89L58.004,89L58.715,89L60.166,89L60.903,89L61.678,89L62.35,89L63.06,89L64.513,89L65.247,89L66.019,89L66.694,89L67.404,89L68.855,89L69.583,89L70.352,89L71.031,89L71.714,89L71.748,89L73.203,89L73.668,89L73.928,89L74.701,89L75.38,89L76.096,89L77.564,89L78.295,89L79.066,89L79.732,89L80.442,89L81.904,89L82.638,89L83.415,89L84.081,89L84.791,89L86.245,89L86.978,89L87.752,89L88.425,89L89.136,89L90.59,89L91.326,89L92.095,89L92.775,89L93.482,89L94.938,89L95.672,89L96.444,89L97.113,89L97.83,89L99.28,89L99.653,89L100.006,89L100.772,89L101.453,89L102.174,89L103.626,89L104.352,89L105.122,89L105.8,89L106.521,89L107.98,89L108.719,89L109.494,89L110.162,89L110.874,89L112.324,89L113.064,89L113.865,89L114.511,89L115.215,89L116.665,89L117.406,89L118.177,89L118.851,89L119.564,89L121.017,89L121.751,89L122.521,89L123.189,89L123.907,89L125.36,89L126.096,89L126.866,89L127.538,89L128.253,89L129.704,89L130.432,89L131.2,89L131.876,89L132.6,89L134.053,89L134.779,89L135.543,89L136.221,89L136.947,89L138.406,89L139.139,89L139.916,89L140.586,89L141.296,89L142.749,89L143.489,89L144.261,89L144.93,89L145.644,89L147.097,89L147.832,89L148.608,89L149.278,89L149.989,89L151.443,89L152.178,89L152.953,89L153.622,89L154.336,89L155.79,89L156.524,89L157.298,89L157.971,89L158.68,89L160.134,89L160.863,89L161.632,89L162.304,89L163.026,89L164.481,89L165.206,89L165.977,89L166.655,89L167.374,89L168.831,89L169.571,89L170.344,89L171.004,89L171.725,89L173.176,89L173.914,89L174.687,89L175.36,89L176.071,89L177.524,89L178.262,89L179.035,89L179.71,89L180.414,89L181.871,89L182.61,89L183.385,89L184.056,89L184.76,89L186.215,89L186.954,89L187.726,89L188.398,89L189.107,89L190.561,89L191.286,89L192.055,89L192.733,89L193.454,89L194.908,89L195.633,89L196.403,89L197.076,89L197.799,89L199.258,89L199.999,89" stroke="#ff9da6" stroke-width="2"/></g></g><path class="foreground" aria-hidden="true" d="" display="none"/></g><g transform="translate(0,0)"><path class="background" aria-hidden="true" d="M0,0h200v200h-200Z"/><g><g class="mark-line role-mark marks" role="graphics-object" aria-roledescription="line mark container"><path aria-label="Time: Aug 14, 2025; Price: 999; identifier: fastroad-sl-3-2022" role="graphics-symbol" aria-roledescription="line mark" d="M0,89L0.036,89L0.065,89L0.866,89L1.503,89L2.218,89L3.684,89L4.404,89L5.198,89L5.85,89L6.561,89L8.016,89L8.745,89L9.516,89L10.189,89L10.908,89L12.38,89L13.09,89L13.865,89L14.538,89L15.254,89L16.738,89L17.452,89L18.253,89L18.534,89L18.899,89L19.596,89L21.052,89L21.788,89L22.56,89L23.234,89L23.941,89L25.4,89L26.129,89L26.932,89L27.257,89L27.579,89L28.293,89L29.744,89L30.479,89L31.254,89L31.929,89L32.637,89L34.092,89L34.824,89L35.599,89L36.271,89L36.981,89L38.435,89L39.164,89L39.932,89L40.606,89L41.324,89L42.787,89L43.508,89L44.281,89L44.958,89L45.671,89L47.14,89L47.873,89L48.666,89L49.316,89L50.023,89L51.479,89L52.217,89L53.658,89L54.365,89L55.821,89L56.555,89L56.84,89L57.329,89L57.814,89L58.004,89L58.715,89L60.167,89L60.904,89L61.678,89L62.35,89L63.06,89L64.513,89L65.247,89L66.019,89L66.695,89L67.404,89L68.855,89L69.584,89L70.352,89L71.031,89L71.714,89L71.748,89L73.204,89L73.668,89L73.928,89L74.701,89L75.38,89L76.096,89L77.564,89L78.295,89L79.066,89L79.732,89L80.442,89L81.904,89L82.639,89L83.415,89L84.081,89L84.791,89L86.245,89L86.978,89L87.752,89L88.426,89L89.136,89L90.59,89L91.326,89L92.095,89L92.775,89L93.482,89L94.939,89L95.672,89L96.444,89L97.114,89L97.83,89L99.28,89L99.653,89L100.006,89L100.772,89L101.453,89L102.174,89L103.626,89L104.352,89L105.122,89L105.8,89L106.521,89L107.98,89L108.719,89L109.494,89L110.162,89L110.874,89L112.325,89L113.064,89L113.865,89L114.511,89L115.215,89L116.665,89L117.406,89L118.177,89L118.851,89L119.564,89L121.017,89L121.751,89L122.522,89L123.189,89L123.907,89L125.361,89L126.096,89L126.866,89L127.538,89L128.253,89L129.705,89L130.432,89L131.2,89L131.876,89L132.6,89L134.053,89L134.779,89L135.543,89L136.221,89L136.947,89L138.406,89L139.139,89L139.916,89L140.586,89L141.297,89L142.749,89L143.49,89L144.262,89L144.93,89L145.644,89L147.098,89L147.832,89L148.608,89L149.278,89L149.989,89L151.443,89L152.178,89L152.953,89L153.622,89L154.337,89L155.79,89L156.524,89L157.299,89L157.971,89L158.68,89L160.134,89L160.863,89L161.632,89L162.304,89L163.026,89L164.482,89L165.206,89L165.977,89L166.655,89L167.374,89L168.831,89L169.571,89L170.344,89L171.004,89L171.725,89L173.176,89L173.914,89L174.687,89L175.361,89L176.071,89L177.524,89L178.262,89L179.035,89L179.71,89L180.414,89L181.871,89L182.61,89L183.385,89L184.056,89L184.76,89L186.216,89L186.954,89L187.726,89L188.398,89L189.107,89L190.561,89L191.286,89L192.055,89L192.733,89L193.454,89L194.908,89L195.633,89L196.404,89L197.076,89L197.799,89L199.258,89L199.999,89" stroke="#9d755d" stroke-width="2"/></g></g><path class="foreground" aria-hidden="true" d="" display="none"/></g><g transform="translate(0,0)"><path class="background" aria-hidden="true" d="M0,0h200v200h-200Z"/><g><g class="mark-line role-mark marks" role="graphics-object" aria-roledescription="line mark container"><path aria-label="Time: Aug 14, 2025; Price: 1199; identifier: fastroad-ar-2" role="graphics-symbol" aria-roledescription="line mark" d="M0,66.778L0.036,66.778L0.065,66.778L0.866,66.778L1.503,66.778L2.218,66.778L3.684,66.778L4.404,66.778L5.199,66.778L5.85,66.778L6.561,66.778L8.016,66.778L8.745,66.778L9.516,66.778L10.189,66.778L10.912,66.778L12.38,66.778L13.09,66.778L13.865,66.778L14.538,66.778L15.254,66.778L16.739,66.778L17.452,66.778L18.253,66.778L18.534,66.778L18.899,66.778L19.596,66.778L21.052,66.778L21.788,66.778L22.56,66.778L23.234,66.778L23.941,66.778L25.4,66.778L26.129,66.778L26.932,66.778L27.258,66.778L27.579,66.778L28.293,66.778L29.744,66.778L30.479,66.778L31.254,66.778L31.929,66.778L32.637,66.778L34.092,66.778L34.824,66.778L35.599,66.778L36.271,66.778L36.981,66.778L38.436,66.778L39.164,66.778L39.932,66.778L40.606,66.778L41.324,66.778L42.787,66.778L43.508,66.778L44.281,66.778L44.958,66.778L45.672,66.778L47.14,66.778L47.874,66.778L48.667,66.778L49.316,66.778L50.023,66.778L51.48,66.778L52.217,66.778L53.658,66.778L54.365,66.778L55.821,66.778L56.555,66.778L56.841,66.778L57.329,66.778L57.814,66.778L58.004,66.778L58.715,66.778L60.167,66.778L60.904,66.778L61.678,66.778L62.35,66.778L63.06,66.778L64.514,66.778L65.247,66.778L66.019,66.778L66.695,66.778L67.404,66.778L68.855,66.778L69.584,66.778L70.353,66.778L71.031,66.778L71.714,66.778L71.748,66.778L73.204,66.778L73.668,66.778L73.928,66.778L74.701,66.778L75.38,66.778L76.096,66.778L77.564,66.778L78.295,66.778L79.066,66.778L79.732,66.778L80.442,66.778L81.904,66.778L82.639,66.778L83.415,66.778L84.081,66.778L84.791,66.778L86.245,66.778L86.978,66.778L87.752,66.778L88.426,66.778L89.136,66.778L90.59,66.778L91.327,66.778L92.095,66.778L92.775,66.778L93.482,66.778L94.939,66.778L95.672,66.778L96.444,66.778L97.114,66.778L97.83,66.778L99.281,66.778L99.653,66.778L100.006,66.778L100.772,66.778L101.453,66.778L102.174,66.778L103.626,66.778L104.352,66.778L105.122,66.778L105.8,66.778L106.521,66.778L107.98,66.778L108.719,66.778L109.494,66.778L110.162,66.778L110.874,66.778L112.325,66.778L113.064,66.778L113.865,66.778L114.511,66.778L115.215,66.778L116.665,66.778L117.406,66.778L118.177,66.778L118.851,66.778L119.564,66.778L121.017,66.778L121.751,66.778L122.522,66.778L123.189,66.778L123.907,66.778L125.361,66.778L126.096,66.778L126.866,66.778L127.538,66.778L128.253,66.778L129.705,66.778L130.432,66.778L131.2,66.778L131.876,66.778L132.6,66.778L134.053,66.778L134.779,66.778L135.543,66.778L136.221,66.778L136.947,66.778L138.406,66.778L139.139,66.778L139.916,66.778L140.586,66.778L141.297,66.778L142.749,66.778L143.49,66.778L144.262,66.778L144.93,66.778L145.644,66.778L147.098,66.778L147.833,66.778L148.608,66.778L149.278,66.778L149.989,66.778L151.443,66.778L152.178,66.778L152.954,66.778L153.622,66.778L154.337,66.778L155.79,66.778L156.524,66.778L157.299,66.778L157.971,66.778L158.68,66.778L160.134,66.778L160.863,66.778L161.632,66.778L162.304,66.778L163.026,66.778L164.482,66.778L165.206,66.778L165.977,66.778L166.655,66.778L167.374,66.778L168.831,66.778L169.571,66.778L170.344,66.778L171.004,66.778L171.725,66.778L173.176,66.778L173.914,66.778L174.687,66.778L175.361,66.778L176.071,66.778L177.524,66.778L178.262,66.778L179.035,66.778L179.71,66.778L180.414,66.778L181.871,66.778L182.61,66.778L183.385,66.778L184.056,66.778L184.76,66.778L186.216,66.778L186.954,66.778L187.727,66.778L188.398,66.778L189.107,66.778L190.561,66.778L191.286,66.778L192.055,66.778L192.733,66.778L193.454,66.778L194.908,66.778L195.633,66.778L196.404,66.778L197.077,66.778L197.8,66.778L199.259,66.778L199.999,66.778" stroke="#54a24b" stroke-width="2"/></g></g><path class="foreground" aria-hidden="true" d="" display="none"/></g><g transform="translate(0,0)"><path class="background" aria-hidden="true" d="M0,0h200v200h-200Z"/><g><g class="mark-line role-mark marks" role="graphics-object" aria-roledescription="line mark container"><path aria-label="Time: Aug 18, 2025; Price: 899; identifier: sdrbike-escape-1-city-disc" role="graphics-symbol" aria-roledescription="line mark" d="M18.534,100.111L18.899,100.111L19.596,100.111L21.052,100.111L21.788,100.111L22.56,100.111L23.234,100.111L23.941,100.111L25.4,100.111L26.129,100.111L26.933,100.111L27.258,100.111L27.58,100.111L28.293,100.111L29.744,100.111L30.479,100.111L31.255,100.111L31.929,100.111L32.637,100.111L34.092,100.111L34.824,100.111L35.599,100.111L36.271,100.111L36.982,100.111L38.436,100.111L39.164,100.111L39.933,100.111L40.606,100.111L41.324,100.111L42.788,100.111L43.508,100.111L44.282,100.111L44.958,100.111L45.672,100.111L47.14,100.111L47.874,100.111L48.667,100.111L49.316,100.111L50.023,100.111L51.48,100.111L52.218,100.111L53.658,100.111L54.365,100.111L55.821,100.111L56.555,100.111L56.841,100.111L57.33,100.111L57.814,100.111L58.004,100.111L58.715,100.111L60.167,100.111L60.904,100.111L61.678,100.111L62.35,100.111L63.06,100.111L64.514,100.111L65.247,100.111L66.02,100.111L66.695,100.111L67.404,100.111L68.855,100.111L69.584,100.111L70.353,100.111L71.031,100.111L71.714,100.111L71.748,100.111L73.204,100.111L73.668,100.111L73.928,100.111L74.701,100.111L75.38,100.111L76.096,100.111L77.564,100.111L78.295,100.111L79.066,100.111L79.732,100.111L80.442,100.111L81.904,100.111L82.639,100.111L83.416,100.111L84.081,100.111L84.791,100.111L86.245,100.111L86.978,100.111L87.753,100.111L88.426,100.111L89.137,100.111L90.59,100.111L91.327,100.111L92.095,100.111L92.775,100.111L93.482,100.111L94.939,100.111L95.672,100.111L96.444,100.111L97.114,100.111L97.83,100.111L99.281,100.111L99.653,100.111L100.006,100.111L100.773,100.111L101.453,100.111L102.174,100.111L103.626,100.111L104.352,100.111L105.122,100.111L105.8,100.111L106.521,100.111L107.98,100.111L108.719,100.111L109.494,100.111L110.162,100.111L110.874,100.111L112.325,100.111L113.064,100.111L113.865,100.111L114.512,100.111L115.216,100.111L116.665,100.111L117.406,100.111L118.177,100.111L118.851,100.111L119.564,100.111L121.018,100.111L121.751,100.111L122.522,100.111L123.189,100.111L123.907,100.111L125.361,100.111L126.096,100.111L126.866,100.111L127.538,100.111L128.253,100.111L129.705,100.111L130.433,100.111L131.2,100.111L131.876,100.111L132.6,100.111L134.053,100.111L134.779,100.111L135.543,100.111L136.222,100.111L136.947,100.111L138.407,100.111L139.139,100.111L139.916,100.111L140.586,100.111L141.297,100.111L142.75,100.111L143.49,100.111L144.262,100.111L144.931,100.111L145.644,100.111L147.098,100.111L147.833,100.111L148.608,100.111L149.278,100.111L149.99,100.111L151.444,100.111L152.178,100.111L152.954,100.111L153.622,100.111L154.337,100.111L155.79,100.111L156.525,100.111L157.299,100.111L157.971,100.111L158.681,100.111L160.134,100.111L160.863,100.111L161.632,100.111L162.305,100.111L163.026,100.111L164.482,100.111L165.206,100.111L165.977,100.111L166.655,100.111L167.375,100.111L168.831,100.111L169.571,100.111L170.344,100.111L171.004,100.111L171.725,100.111L173.176,100.111L173.914,100.111L174.687,100.111L175.361,100.111L176.071,100.111L177.524,100.111L178.262,100.111L179.035,100.111L179.711,100.111L180.415,100.111L181.871,100.111L182.61,100.111L183.385,100.111L184.056,100.111L184.76,100.111L186.216,100.111L186.954,100.111L187.727,100.111L188.398,100.111L189.108,100.111L190.561,100.111L191.286,100.111L192.056,100.111L192.733,100.111L193.454,100.111L194.908,100.111L195.633,100.111L196.404,100.111L197.077,100.111L197.8,100.111L199.259,100.111L199.999,100.111" stroke="#f58518" stroke-width="2"/></g></g><path class="foreground" aria-hidden="true" d="" display="none"/></g><g transform="translate(0,0)"><path class="background" aria-hidden="true" d="M0,0h200v200h-200Z"/><g><g class="mark-line role-mark marks" role="graphics-object" aria-roledescription="line mark container"><path aria-label="Time: Aug 20, 2025; Price: 899; identifier: roam-disc-2-2024" role="graphics-symbol" aria-roledescription="line mark" d="M27.257,100.111L27.579,100.111L28.292,100.111L29.744,100.111L30.479,100.111L31.254,100.111L31.929,100.111L32.637,100.111L34.092,100.111L34.824,100.111L35.599,100.111L36.271,100.111L36.981,100.111L38.435,100.111L39.164,100.111L39.932,100.111L40.606,100.111L41.323,100.111L42.787,100.111L43.507,100.111L44.281,100.111L44.958,100.111L45.671,100.111L47.14,100.111L47.873,100.111L48.666,100.111L49.315,100.111L50.023,100.111L51.479,100.111L52.217,100.111L53.658,100.111L54.365,100.111L55.82,100.111L56.555,100.111L56.84,100.111L57.329,100.111L57.814,100.111L58.004,100.111L58.715,100.111L60.166,100.111L60.903,100.111L61.678,100.111L62.35,100.111L63.06,100.111L64.513,100.111L65.247,100.111L66.019,100.111L66.694,100.111L67.404,100.111L68.855,100.111L69.583,100.111L70.352,100.111L71.03,100.111L71.714,100.111L71.748,100.111L73.203,100.111L73.668,100.111L73.928,100.111L74.701,100.111L75.379,100.111L76.096,100.111L77.564,100.111L78.294,100.111L79.066,100.111L79.731,100.111L80.442,100.111L81.903,100.111L82.638,100.111L83.415,100.111L84.081,100.111L84.791,100.111L86.244,100.111L86.978,100.111L87.752,100.111L88.425,100.111L89.136,100.111L90.59,100.111L91.326,100.111L92.095,100.111L92.775,100.111L93.482,100.111L94.938,100.111L95.672,100.111L96.444,100.111L97.113,100.111L97.83,100.111L99.28,100.111L99.653,100.111L100.005,100.111L100.772,100.111L101.453,100.111L102.174,100.111L103.625,100.111L104.352,100.111L105.122,100.111L105.8,100.111L106.52,100.111L107.98,100.111L108.719,100.111L109.494,100.111L110.162,100.111L110.874,100.111L112.324,100.111L113.064,100.111L113.865,100.111L114.511,100.111L115.215,100.111L116.665,100.111L117.406,100.111L118.176,100.111L118.851,100.111L119.564,100.111L121.017,100.111L121.751,100.111L122.521,100.111L123.189,100.111L123.907,100.111L125.36,100.111L126.096,100.111L126.866,100.111L127.537,100.111L128.253,100.111L129.704,100.111L130.432,100.111L131.2,100.111L131.876,100.111L132.6,100.111L134.052,100.111L134.779,100.111L135.543,100.111L136.221,100.111L136.947,100.111L138.406,100.111L139.139,100.111L139.916,100.111L140.586,100.111L141.296,100.111L142.749,100.111L143.489,100.111L144.261,100.111L144.93,100.111L145.643,100.111L147.097,100.111L147.832,100.111L148.608,100.111L149.278,100.111L149.989,100.111L151.443,100.111L152.178,100.111L152.953,100.111L153.622,100.111L154.336,100.111L155.79,100.111L156.524,100.111L157.298,100.111L157.971,100.111L158.68,100.111L160.133,100.111L160.863,100.111L161.632,100.111L162.304,100.111L163.026,100.111L164.481,100.111L165.206,100.111L165.977,100.111L166.654,100.111L167.374,100.111L168.831,100.111L169.571,100.111L170.344,100.111L171.004,100.111L171.725,100.111L173.176,100.111L173.913,100.111L174.687,100.111L175.36,100.111L176.071,100.111L177.524,100.111L178.262,100.111L179.035,100.111L179.71,100.111L180.414,100.111L181.871,100.111L182.61,100.111L183.385,100.111L184.055,100.111L184.76,100.111L186.215,100.111L186.954,100.111L187.726,100.111L188.398,100.111L189.107,100.111L190.561,100.111L191.286,100.111L192.055,100.111L192.733,100.111L193.454,100.111L194.908,100.111L195.633,100.111L196.403,100.111L197.076,100.111L197.799,100.111L199.258,100.111L199.998,100.111" stroke="#e45756" stroke-width="2"/></g></g><path class="foreground" aria-hidden="true" d="" display="none"/></g><g transform="translate(0,0)"><path class="background" aria-hidden="true" d="M0,0h200v200h-200Z"/><g><g class="mark-line role-mark marks" role="graphics-object" aria-roledescription="line mark container"><path aria-label="Time: Aug 20, 2025; Price: 1199; identifier: thrive-2" role="graphics-symbol" aria-roledescription="line mark" d="M27.258,66.778L27.58,66.778L28.293,66.778L29.744,66.778L30.479,66.778L31.255,66.778L31.929,66.778L32.637,66.778L34.092,66.778L34.825,66.778L35.6,66.778L36.271,66.778L36.982,66.778L38.436,66.778L39.164,66.778L39.933,66.778L40.606,66.778L41.324,66.778L42.788,66.778L43.508,66.778L44.282,66.778L44.958,66.778L45.672,66.778L47.14,66.778L47.874,66.778L48.667,66.778L49.316,66.778L50.023,66.778L51.48,66.778L52.218,66.778L53.658,66.778L54.366,66.778L55.821,66.778L56.555,66.778L56.841,66.778L57.33,66.778L57.814,66.778L58.004,66.778L58.715,66.778L60.167,66.778L60.904,66.778L61.678,66.778L62.35,66.778L63.06,66.778L64.514,66.778L65.248,66.778L66.02,66.778L66.695,66.778L67.404,66.778L68.855,66.778L69.584,66.778L70.353,66.778L71.031,66.778L71.714,66.778L71.748,66.778L73.204,66.778L73.668,66.778L73.929,66.778L74.702,66.778L75.38,66.778L76.096,66.778L77.564,66.778L78.295,66.778L79.066,66.778L79.732,66.778L80.442,66.778L81.904,66.778L82.639,66.778L83.416,66.778L84.081,66.778L84.792,66.778L86.245,66.778L86.978,66.778L87.753,66.778L88.426,66.778L89.137,66.778L90.59,66.778L91.327,66.778L92.095,66.778L92.776,66.778L93.482,66.778L94.939,66.778L95.672,66.778L96.444,66.778L97.114,66.778L97.83,66.778L99.281,66.778L99.654,66.778L100.006,66.778L100.773,66.778L101.453,66.778L102.175,66.778L103.626,66.778L104.352,66.778L105.122,66.778L105.8,66.778L106.521,66.778L107.98,66.778L108.719,66.778L109.494,66.778L110.162,66.778L110.874,66.778L112.325,66.778L113.064,66.778L113.866,66.778L114.512,66.778L115.216,66.778L116.665,66.778L117.407,66.778L118.177,66.778L118.851,66.778L119.564,66.778L121.018,66.778L121.752,66.778L122.522,66.778L123.189,66.778L123.907,66.778L125.361,66.778L126.097,66.778L126.866,66.778L127.538,66.778L128.253,66.778L129.705,66.778L130.433,66.778L131.2,66.778L131.876,66.778L132.601,66.778L134.053,66.778L134.779,66.778L135.544,66.778L136.222,66.778L136.947,66.778L138.407,66.778L139.139,66.778L139.916,66.778L140.586,66.778L141.297,66.778L142.75,66.778L143.49,66.778L144.262,66.778L144.931,66.778L145.644,66.778L147.098,66.778L147.833,66.778L148.609,66.778L149.278,66.778L149.99,66.778L151.444,66.778L152.178,66.778L152.954,66.778L153.622,66.778L154.337,66.778L155.791,66.778L156.525,66.778L157.299,66.778L157.971,66.778L158.681,66.778L160.134,66.778L160.864,66.778L161.632,66.778L162.305,66.778L163.026,66.778L164.482,66.778L165.206,66.778L165.978,66.778L166.655,66.778L167.375,66.778L168.831,66.778L169.571,66.778L170.344,66.778L171.004,66.778L171.725,66.778L173.176,66.778L173.914,66.778L174.687,66.778L175.361,66.778L176.071,66.778L177.524,66.778L178.262,66.778L179.035,66.778L179.711,66.778L180.415,66.778L181.871,66.778L182.61,66.778L183.385,66.778L184.056,66.778L184.76,66.778L186.216,66.778L186.954,66.778L187.727,66.778L188.398,66.778L189.108,66.778L190.562,66.778L191.286,66.778L192.056,66.778L192.733,66.778L193.455,66.778L194.908,66.778L195.633,66.778L196.404,66.778L197.077,66.778L197.8,66.778L199.259,66.778L199.999,66.778" stroke="#eeca3b" stroke-width="2"/></g></g><path class="foreground" aria-hidden="true" d="" display="none"/></g><g transform="translate(0,0)"><path class="background" aria-hidden="true" d="M0,0h200v200h-200Z"/><g><g class="mark-line role-mark marks" role="graphics-object" aria-roledescription="line mark container"><path aria-label="Time: Aug 20, 2025; Price: 999; identifier: rove-2" role="graphics-symbol" aria-roledescription="line mark" d="M27.258,89L27.58,89L28.293,89L29.745,89L30.479,89L31.255,89L31.929,89L32.637,89L34.092,89L34.825,89L35.6,89L36.271,89L36.982,89L38.436,89L39.165,89L39.933,89L40.606,89L41.324,89L42.788,89L43.508,89L44.282,89L44.958,89L45.672,89L47.14,89L47.874,89L48.667,89L49.316,89L50.024,89L51.48,89L52.218,89L53.658,89L54.366,89L55.821,89L56.556,89L56.841,89L57.33,89L57.814,89L58.004,89L58.715,89L60.167,89L60.904,89L61.678,89L62.35,89L63.06,89L64.514,89L65.248,89L66.02,89L66.695,89L67.405,89L71.715,111.222L71.748,111.222L73.204,111.222L73.668,111.222L73.929,111.222L74.702,111.222L75.38,111.222L76.096,111.222L77.564,111.222L78.295,111.222L79.066,111.222L79.732,111.222L80.442,111.222L81.904,111.222L82.639,111.222L83.416,111.222L84.081,111.222L84.792,111.222L86.245,111.222L86.979,111.222L87.753,111.222L88.426,111.222L89.137,111.222L90.591,111.222L91.327,111.222L92.095,111.222L92.776,111.222L93.482,111.222L94.939,111.222L95.672,111.222L96.444,111.222L97.114,111.222L97.83,111.222L99.281,111.222L99.654,111.222L100.006,111.222L100.773,111.222L101.453,111.222L102.175,111.222L103.626,111.222L104.352,111.222L105.122,111.222L105.8,111.222L106.521,111.222L107.98,111.222L108.719,111.222L109.495,111.222L110.162,111.222L110.874,111.222L112.325,111.222L113.064,111.222L113.866,111.222L114.512,111.222L115.216,111.222L116.666,111.222L117.407,111.222L118.177,111.222L118.851,111.222L119.564,111.222L121.018,111.222L121.752,111.222L122.522,111.222L123.19,111.222L123.907,111.222L125.361,111.222L126.097,111.222L126.866,111.222L127.538,111.222L128.254,111.222L129.705,111.222L130.433,111.222L131.2,111.222L131.876,111.222L132.601,111.222L134.053,111.222L134.78,111.222L135.544,111.222L136.222,111.222L136.947,111.222L138.407,111.222L139.14,111.222L139.917,111.222L140.586,111.222L141.297,111.222L142.75,111.222L143.49,111.222L144.262,111.222L144.931,111.222L145.644,111.222L147.098,111.222L147.833,111.222L148.609,111.222L149.278,111.222L149.99,111.222L151.444,111.222L152.178,111.222L152.954,111.222L153.622,111.222L154.337,111.222L155.791,111.222L156.525,111.222L157.299,111.222L157.971,111.222L158.681,111.222L160.134,111.222L160.864,111.222L161.632,111.222L162.305,111.222L163.026,111.222L164.482,111.222L165.207,111.222L165.978,111.222L166.655,111.222L167.375,111.222L168.831,111.222L169.571,111.222L170.345,111.222L171.005,111.222L171.725,111.222L173.176,111.222L173.914,111.222L174.688,111.222L175.361,111.222L176.071,111.222L177.524,111.222L178.262,111.222L179.035,111.222L179.711,111.222L180.415,111.222L181.871,111.222L182.61,111.222L183.385,111.222L184.056,111.222L184.76,111.222L186.216,111.222L186.955,111.222L187.727,111.222L188.398,111.222L189.108,111.222L190.562,111.222L191.286,111.222L192.056,111.222L192.734,111.222L193.455,111.222L194.908,111.222L195.633,111.222L196.404,111.222L197.077,111.222L197.8,111.222L199.259,111.222L199.999,111.222" stroke="#72b7b2" stroke-width="2"/></g></g><path class="foreground" aria-hidden="true" d="" display="none"/></g><g transform="translate(0,0)"><path class="background" aria-hidden="true" d="M0,0h200v200h-200Z"/><g><g class="mark-line role-mark marks" role="graphics-object" aria-roledescription="line mark container"><path aria-label="Time: Aug 27, 2025; Price: 1199; identifier: allure-rs-1-2023" role="graphics-symbol" aria-roledescription="line mark" d="M56.842,66.778L57.33,66.778L57.814,66.778L58.004,66.778L58.716,66.778L60.167,66.778L60.904,66.778L61.678,66.778L62.35,66.778L63.06,66.778L64.514,66.778L65.248,66.778L66.02,66.778L66.695,66.778L67.405,66.778L68.856,66.778L69.584,66.778L70.353,66.778L71.031,66.778L71.715,66.778L71.748,66.778L73.204,66.778L73.668,66.778L73.929,66.778L74.702,66.778L75.38,66.778L76.097,66.778L77.565,66.778L78.295,66.778L79.066,66.778L79.732,66.778L80.442,66.778L81.904,66.778L82.639,66.778L83.416,66.778L84.081,66.778L84.792,66.778L86.245,66.778L86.979,66.778L87.753,66.778L88.426,66.778L89.137,66.778L90.591,66.778L91.327,66.778L92.096,66.778L92.776,66.778L93.483,66.778L94.939,66.778L95.672,66.778L96.445,66.778L97.114,66.778L97.831,66.778L99.281,66.778L99.654,66.778L100.006,66.778L100.773,66.778L101.453,66.778L102.175,66.778L103.626,66.778L104.352,66.778L105.122,66.778L105.8,66.778L106.521,66.778L107.98,66.778L108.72,66.778L109.495,66.778L110.162,66.778L110.874,66.778L112.325,66.778L113.064,66.778L113.866,66.778L114.512,66.778L115.216,66.778L116.666,66.778L117.407,66.778L118.177,66.778L118.852,66.778L119.564,66.778L121.018,66.778L121.752,66.778L122.522,66.778L123.19,66.778L123.907,66.778L125.361,66.778L126.097,66.778L126.867,66.778L127.538,66.778L128.254,66.778L129.705,66.778L130.433,66.778L131.2,66.778L131.876,66.778L132.601,66.778L134.053,66.778L134.78,66.778L135.544,66.778L136.222,66.778L136.947,66.778L138.407,66.778L139.14,66.778L139.917,66.778L140.586,66.778L141.297,66.778L142.75,66.778L143.49,66.778L144.262,66.778L144.931,66.778L145.644,66.778L147.098,66.778L147.833,66.778L148.609,66.778L149.279,66.778L149.99,66.778L151.444,66.778L152.178,66.778L152.954,66.778L153.623,66.778L154.337,66.778L155.791,66.778L156.525,66.778L157.299,66.778L157.972,66.778L158.681,66.778L160.134,66.778L160.864,66.778L161.632,66.778L162.305,66.778L163.026,66.778L164.482,66.778L165.207,66.778L165.978,66.778L166.655,66.778L167.375,66.778L168.831,66.778L169.571,66.778L170.345,66.778L171.005,66.778L171.725,66.778L173.177,66.778L173.914,66.778L174.688,66.778L175.361,66.778L176.071,66.778L177.524,66.778L178.262,66.778L179.035,66.778L179.711,66.778L180.415,66.778L181.871,66.778L182.61,66.778L183.385,66.778L184.056,66.778L184.761,66.778L186.216,66.778L186.955,66.778L187.727,66.778L188.399,66.778L189.108,66.778L190.562,66.778L191.286,66.778L192.056,66.778L192.734,66.778L193.455,66.778L194.908,66.778L195.633,66.778L196.404,66.778L197.077,66.778L197.8,66.778L199.259,66.778L199.999,66.778" stroke="#b279a2" stroke-width="2"/></g></g><path class="foreground" aria-hidden="true" d="" display="none"/></g><g transform="translate(0,0)"><path class="background" aria-hidden="true" d="M0,0h200v200h-200Z"/><g><g class="mark-line role-mark marks" role="graphics-object" aria-roledescription="line mark container"><path aria-label="Time: Aug 27, 2025; Price: 999; identifier: allure-rs-2-2022" role="graphics-symbol" aria-roledescription="line mark" d="M56.842,89L57.33,89L57.815,89L58.004,89L58.716,89L60.167,89L60.904,89L61.678,89L62.35,89L63.06,89L64.514,89L65.248,89L66.02,89L66.695,89L67.405,89L71.715,111.222L71.748,111.222L73.204,111.222L73.668,111.222L73.929,111.222L74.702,111.222L75.38,111.222L76.097,111.222L77.565,111.222L78.295,111.222L79.067,111.222L79.732,111.222L80.442,111.222L81.904,111.222L82.639,111.222L83.416,111.222L84.082,111.222L84.792,111.222L86.245,111.222L86.979,111.222L87.753,111.222L88.426,111.222L89.137,111.222L90.591,111.222L91.327,111.222L92.096,111.222L92.776,111.222L93.483,111.222L94.939,111.222L95.673,111.222L96.445,111.222L97.114,111.222L97.831,111.222L99.281,111.222L99.654,111.222L100.006,111.222L100.773,111.222L101.454,111.222L102.175,111.222L103.626,111.222L104.352,111.222L105.122,111.222L105.801,111.222L106.521,111.222L107.98,111.222L108.72,111.222L109.495,111.222L110.163,111.222L110.874,111.222L112.325,111.222L113.064,111.222L113.866,111.222L114.512,111.222L115.216,111.222L116.666,111.222L117.407,111.222L118.177,111.222L118.852,111.222L119.565,111.222L121.018,111.222L121.752,111.222L122.522,111.222L123.19,111.222L123.907,111.222L125.361,111.222L126.097,111.222L126.867,111.222L127.538,111.222L128.254,111.222L129.705,111.222L130.433,111.222L131.2,111.222L131.877,111.222L132.601,111.222L134.053,111.222L134.78,111.222L135.544,111.222L136.222,111.222L136.947,111.222L138.407,111.222L139.14,111.222L139.917,111.222L140.587,111.222L141.297,111.222L142.75,111.222L143.49,111.222L144.262,111.222L144.931,111.222L145.644,111.222L147.098,111.222L147.833,111.222L148.609,111.222L149.279,111.222L149.99,111.222L151.444,111.222L152.178,111.222L152.954,111.222L153.623,111.222L154.337,111.222L155.791,111.222L156.525,111.222L157.299,111.222L157.972,111.222L158.681,111.222L160.134,111.222L160.864,111.222L161.633,111.222L162.305,111.222L163.026,111.222L164.482,111.222L165.207,111.222L165.978,111.222L166.655,111.222L167.375,111.222L168.831,111.222L169.571,111.222L170.345,111.222L171.005,111.222L171.725,111.222L173.177,111.222L173.914,111.222L174.688,111.222L175.361,111.222L176.071,111.222L177.525,111.222L178.263,111.222L179.035,111.222L179.711,111.222L180.415,111.222L181.871,111.222L182.611,111.222L183.386,111.222L184.056,111.222L184.761,111.222L186.216,111.222L186.955,111.222L187.727,111.222L188.399,111.222L189.108,111.222L190.562,111.222L191.287,111.222L192.056,111.222L192.734,111.222L193.455,111.222L194.909,111.222L195.634,111.222L196.404,111.222L197.077,111.222L197.8,111.222L199.259,111.222L199.999,111.222" stroke="#54a24b" stroke-width="2"/></g></g><path class="foreground" aria-hidden="true" d="" display="none"/></g><g transform="translate(0,0)"><path class="background" aria-hidden="true" d="M0,0h200v200h-200Z"/><g><g class="mark-line role-mark marks" role="graphics-object" aria-roledescription="line mark container"><path aria-label="Time: Aug 27, 2025; Price: 949; identifier: allure-rs-2-2023" role="graphics-symbol" aria-roledescription="line mark" d="M56.842,94.556L57.33,94.556L57.815,94.556L58.005,94.556L58.716,94.556L60.167,94.556L60.904,94.556L61.679,94.556L62.35,94.556L63.061,94.556L64.514,94.556L65.248,94.556L66.02,94.556L66.695,94.556L67.405,94.556L68.856,94.556L69.584,94.556L70.353,94.556L71.031,94.556L71.715,94.556L71.749,94.556L73.204,94.556L73.668,94.556L73.929,94.556L74.702,94.556L75.38,94.556L76.097,94.556L77.565,94.556L78.295,94.556L79.067,94.556L79.732,94.556L80.443,94.556L81.905,94.556L82.639,94.556L83.416,94.556L84.082,94.556L84.792,94.556L86.245,94.556L86.979,94.556L87.753,94.556L88.426,94.556L89.137,94.556L90.591,94.556L91.327,94.556L92.096,94.556L92.776,94.556L93.483,94.556L94.939,94.556L95.673,94.556L96.445,94.556L97.114,94.556L97.831,94.556L99.281,94.556L99.654,94.556L100.007,94.556L100.773,94.556L101.454,94.556L102.175,94.556L103.626,94.556L104.353,94.556L105.122,94.556L105.801,94.556L106.521,94.556L107.981,94.556L108.72,94.556L109.495,94.556L110.163,94.556L110.874,94.556L112.325,94.556L113.065,94.556L113.866,94.556L114.512,94.556L115.216,94.556L116.666,94.556L117.407,94.556L118.177,94.556L118.852,94.556L119.565,94.556L121.018,94.556L121.752,94.556L122.522,94.556L123.19,94.556L123.908,94.556L125.361,94.556L126.097,94.556L126.867,94.556L127.538,94.556L128.254,94.556L129.705,94.556L130.433,94.556L131.2,94.556L131.877,94.556L132.601,94.556L134.053,94.556L134.78,94.556L135.544,94.556L136.222,94.556L136.948,94.556L138.407,94.556L139.14,94.556L139.917,94.556L140.587,94.556L141.297,94.556L142.75,94.556L143.49,94.556L144.262,94.556L144.931,94.556L145.644,94.556L147.098,94.556L147.833,94.556L148.609,94.556L149.279,94.556L149.99,94.556L151.444,94.556L152.179,94.556L152.954,94.556L153.623,94.556L154.337,94.556L155.791,94.556L156.525,94.556L157.299,94.556L157.972,94.556L158.681,94.556L160.134,94.556L160.864,94.556L161.633,94.556L162.305,94.556L163.026,94.556L164.482,94.556L165.207,94.556L165.978,94.556L166.655,94.556L167.375,94.556L168.831,94.556L169.571,94.556L170.345,94.556L171.005,94.556L171.725,94.556L173.177,94.556L173.914,94.556L174.688,94.556L175.361,94.556L176.072,94.556L177.525,94.556L178.263,94.556L179.036,94.556L179.711,94.556L180.415,94.556L181.872,94.556L182.611,94.556L183.386,94.556L184.056,94.556L184.761,94.556L186.216,94.556L186.955,94.556L187.727,94.556L188.399,94.556L189.108,94.556L190.562,94.556L191.287,94.556L192.056,94.556L192.734,94.556L193.455,94.556L194.909,94.556L195.634,94.556L196.404,94.556L197.077,94.556L197.8,94.556L199.259,94.556L199.999,94.556" stroke="#bab0ac" stroke-width="2"/></g></g><path class="foreground" aria-hidden="true" d="" display="none"/></g><g transform="translate(0,0)"><path class="background" aria-hidden="true" d="M0,0h200v200h-200Z"/><g><g class="mark-line role-mark marks" role="graphics-object" aria-roledescription="line mark container"><path aria-label="Time: Aug 27, 2025; Price: 999; identifier: allure-rs-2-2024" role="graphics-symbol" aria-roledescription="line mark" d="M56.842,89L57.33,89L57.815,89L58.005,89L58.716,89L60.167,89L60.905,89L61.679,89L62.35,89L63.061,89L64.514,89L65.248,89L66.02,89L66.695,89L67.405,89L71.715,111.222L71.749,111.222L73.204,111.222L73.668,111.222L73.929,111.222L74.702,111.222L75.38,111.222L76.097,111.222L77.565,111.222L78.295,111.222L79.067,111.222L79.733,111.222L80.443,111.222L81.905,111.222L82.639,111.222L83.416,111.222L84.082,111.222L84.792,111.222L86.245,111.222L86.979,111.222L87.753,111.222L88.426,111.222L89.137,111.222L90.591,111.222L91.327,111.222L92.096,111.222L92.776,111.222L93.483,111.222L94.939,111.222L95.673,111.222L96.445,111.222L97.114,111.222L97.831,111.222L99.281,111.222L99.654,111.222L100.007,111.222L100.773,111.222L101.454,111.222L102.175,111.222L103.626,111.222L104.353,111.222L105.123,111.222L105.801,111.222L106.521,111.222L107.981,111.222L108.72,111.222L109.495,111.222L110.163,111.222L110.875,111.222L112.325,111.222L113.065,111.222L113.866,111.222L114.512,111.222L115.216,111.222L116.666,111.222L117.407,111.222L118.178,111.222L118.852,111.222L119.565,111.222L121.018,111.222L121.752,111.222L122.522,111.222L123.19,111.222L123.908,111.222L125.361,111.222L126.097,111.222L126.867,111.222L127.538,111.222L128.254,111.222L129.705,111.222L130.433,111.222L131.201,111.222L131.877,111.222L132.601,111.222L134.054,111.222L134.78,111.222L135.544,111.222L136.222,111.222L136.948,111.222L138.407,111.222L139.14,111.222L139.917,111.222L140.587,111.222L141.297,111.222L142.75,111.222L143.49,111.222L144.262,111.222L144.931,111.222L145.644,111.222L147.098,111.222L147.833,111.222L148.609,111.222L149.279,111.222L149.99,111.222L151.444,111.222L152.179,111.222L152.955,111.222L153.623,111.222L154.337,111.222L155.791,111.222L156.525,111.222L157.299,111.222L157.972,111.222L158.681,111.222L160.134,111.222L160.864,111.222L161.633,111.222L162.305,111.222L163.026,111.222L164.483,111.222L165.207,111.222L165.978,111.222L166.655,111.222L167.375,111.222L168.832,111.222L169.572,111.222L170.345,111.222L171.005,111.222L171.725,111.222L173.177,111.222L173.914,111.222L174.688,111.222L175.362,111.222L176.072,111.222L177.525,111.222L178.263,111.222L179.036,111.222L179.711,111.222L180.415,111.222L181.872,111.222L182.611,111.222L183.386,111.222L184.056,111.222L184.761,111.222L186.216,111.222L186.955,111.222L187.727,111.222L188.399,111.222L189.108,111.222L190.562,111.222L191.287,111.222L192.056,111.222L192.734,111.222L193.455,111.222L194.909,111.222L195.634,111.222L196.405,111.222L197.077,111.222L197.8,111.222L199.259,111.222L199.999,111.222" stroke="#eeca3b" stroke-width="2"/></g></g><path class="foreground" aria-hidden="true" d="" display="none"/></g><g transform="translate(0,0)"><path class="background" aria-hidden="true" d="M0,0h200v200h-200Z"/><g><g class="mark-line role-mark marks" role="graphics-object" aria-roledescription="line mark container"><path aria-label="Time: Aug 27, 2025; Price: 1799; identifier: devote-1-2024" role="graphics-symbol" aria-roledescription="line mark" d="M57.815,0.111L58.005,0.111L58.716,0.111L60.168,0.111L60.905,0.111L61.679,0.111L62.351,0.111L63.061,0.111L64.514,0.111L65.248,0.111L66.02,0.111L66.695,0.111L67.405,0.111L71.715,44.556L71.749,44.556L73.204,44.556L73.669,44.556L73.929,44.556L74.702,44.556L75.38,44.556L76.097,44.556L77.565,44.556L78.296,44.556L79.067,44.556L79.733,44.556L80.443,44.556L81.905,44.556L82.639,44.556L83.416,44.556L84.082,44.556L84.792,44.556L86.245,44.556L86.979,44.556L87.753,44.556L88.426,44.556L89.137,44.556L90.591,44.556L91.327,44.556L92.096,44.556L92.776,44.556L93.483,44.556L94.939,44.556L95.673,44.556L96.445,44.556L97.115,44.556L97.831,44.556L99.281,44.556L99.654,44.556L100.007,44.556L100.773,44.556L101.454,44.556L102.175,44.556L103.626,44.556L104.353,44.556L105.123,44.556L105.801,44.556L106.521,44.556L107.981,44.556L108.72,44.556L109.495,44.556L110.163,44.556L110.875,44.556L112.325,44.556L113.065,44.556L113.866,44.556L114.512,44.556L115.216,44.556L116.666,44.556L117.407,44.556L118.178,44.556L118.852,44.556L119.565,44.556L121.018,44.556L121.752,44.556L122.522,44.556L123.19,44.556L123.908,44.556L125.362,44.556L126.097,44.556L126.867,44.556L127.539,44.556L128.254,44.556L129.705,44.556L130.433,44.556L131.201,44.556L131.877,44.556L132.601,44.556L134.054,44.556L134.78,44.556L135.544,44.556L136.222,44.556L136.948,44.556L138.407,44.556L139.14,44.556L139.917,44.556L140.588,44.556L141.298,44.556L142.75,44.556L143.49,44.556L144.262,44.556L144.931,44.556L145.645,44.556L147.098,44.556L147.833,44.556L148.609,44.556L149.279,44.556L149.99,44.556L151.444,44.556L152.179,44.556L152.955,44.556L153.623,44.556L154.337,44.556L155.791,44.556L156.525,44.556L157.299,44.556L157.972,44.556L158.681,44.556L160.135,44.556L160.864,44.556L161.633,44.556L162.305,44.556L163.027,44.556L164.483,44.556L165.207,44.556L165.978,44.556L166.655,44.556L167.375,44.556L168.832,44.556L169.572,44.556L170.345,44.556L171.005,44.556L171.726,44.556L173.177,44.556L173.915,44.556L174.688,44.556L175.362,44.556L176.072,44.556L177.525,44.556L178.263,44.556L179.036,44.556L179.711,44.556L180.415,44.556L181.872,44.556L182.611,44.556L183.386,44.556L184.057,44.556L184.761,44.556L186.216,44.556L186.955,44.556L187.727,44.556L188.399,44.556L189.108,44.556L190.562,44.556L191.287,44.556L192.056,44.556L192.734,44.556L193.455,44.556L194.909,44.556L195.634,44.556L196.405,44.556L197.077,44.556L197.8,44.556L199.26,44.556L200,44.556" stroke="#72b7b2" stroke-width="2"/></g></g><path class="foreground" aria-hidden="true" d="" display="none"/></g><g transform="translate(0,0)"><path class="background" aria-hidden="true" d="M0,0h200v200h-200Z"/><g><g class="mark-line role-mark marks" role="graphics-object" aria-roledescription="line mark container"><path aria-label="Time: Aug 27, 2025; Price: 1699; identifier: devote-1-2022" role="graphics-symbol" aria-roledescription="line mark" d="M57.815,11.222L58.005,11.222L58.716,11.222L60.168,11.222L60.905,11.222L61.679,11.222L62.351,11.222L63.061,11.222L64.514,11.222L65.248,11.222L66.02,11.222L66.695,11.222L67.405,11.222L68.856,11.222L69.584,11.222L70.354,11.222L71.031,11.222L71.715,11.222L71.749,11.222L73.204,11.222L73.669,11.222L73.929,11.222L74.702,11.222L75.38,11.222L76.097,11.222L77.565,11.222L78.296,11.222L79.067,11.222L79.733,11.222L80.443,11.222L81.905,11.222L82.64,11.222L83.416,11.222L84.082,11.222L84.792,11.222L86.246,11.222L86.979,11.222L87.753,11.222L88.426,11.222L89.137,11.222L90.591,11.222L91.327,11.222L92.096,11.222L92.776,11.222L93.483,11.222L94.939,11.222L95.673,11.222L96.445,11.222L97.115,11.222L97.831,11.222L99.281,11.222L99.654,11.222L100.007,11.222L100.774,11.222L101.454,11.222L102.175,11.222L103.627,11.222L104.353,11.222L105.123,11.222L105.801,11.222L106.522,11.222L107.981,11.222L108.72,11.222L109.495,11.222L110.163,11.222L110.875,11.222L112.326,11.222L113.065,11.222L113.866,11.222L114.512,11.222L115.216,11.222L116.666,11.222L117.407,11.222L118.178,11.222L118.852,11.222L119.565,11.222L121.019,11.222L121.752,11.222L122.522,11.222L123.19,11.222L123.908,11.222L125.362,11.222L126.097,11.222L126.867,11.222L127.539,11.222L128.254,11.222L129.706,11.222L130.433,11.222L131.201,11.222L131.877,11.222L132.601,11.222L134.054,11.222L134.78,11.222L135.544,11.222L136.222,11.222L136.948,11.222L138.408,11.222L139.14,11.222L139.917,11.222L140.588,11.222L141.299,11.222L142.75,11.222L143.49,11.222L144.263,11.222L144.931,11.222L145.645,11.222L147.099,11.222L147.833,11.222L148.609,11.222L149.279,11.222L149.99,11.222L151.444,11.222L152.179,11.222L152.955,11.222L153.623,11.222L154.338,11.222L155.791,11.222L156.526,11.222L157.3,11.222L157.972,11.222L158.681,11.222L160.135,11.222L160.864,11.222L161.633,11.222L162.305,11.222L163.027,11.222L164.483,11.222L165.207,11.222L165.978,11.222L166.656,11.222L167.375,11.222L168.832,11.222L169.572,11.222L170.345,11.222L171.005,11.222L171.726,11.222L173.177,11.222L173.915,11.222L174.688,11.222L175.362,11.222L176.072,11.222L177.525,11.222L178.263,11.222L179.036,11.222L179.711,11.222L180.415,11.222L181.872,11.222L182.611,11.222L183.386,11.222L184.057,11.222L184.761,11.222L186.216,11.222L186.955,11.222L187.727,11.222L188.399,11.222L189.108,11.222L190.562,11.222L191.287,11.222L192.057,11.222L192.734,11.222L193.455,11.222L194.909,11.222L195.634,11.222L196.405,11.222L197.077,11.222L197.801,11.222L199.26,11.222L200,11.222" stroke="#4c78a8" stroke-width="2"/></g></g><path class="foreground" aria-hidden="true" d="" display="none"/></g><g transform="translate(0,0)"><path class="background" aria-hidden="true" d="M0,0h200v200h-200Z"/><g><g class="mark-line role-mark marks" role="graphics-object" aria-roledescription="line mark container"><path aria-label="Time: Aug 31, 2025; Price: 1599; identifier: silex-400-oak-bork-2026" role="graphics-symbol" aria-roledescription="line mark" d="M73.669,22.333L73.93,22.333L74.703,22.333L75.381,22.333L76.097,22.333L77.565,22.333L78.296,22.333L79.067,22.333L79.733,22.333L80.443,22.333L81.905,22.333L82.64,22.333L83.417,22.333L84.082,22.333L84.793,22.333L86.246,22.333L86.979,22.333L87.754,22.333L88.427,22.333L89.137,22.333L90.591,22.333L91.328,22.333L92.096,22.333L92.777,22.333L93.483,22.333L94.94,22.333L95.673,22.333L96.445,22.333L97.115,22.333L97.831,22.333L99.282,22.333L99.654,22.333L100.007,22.333L100.774,22.333L101.454,22.333L102.175,22.333L103.627,22.333L104.353,22.333L105.123,22.333L105.801,22.333L106.522,22.333L107.981,22.333L108.72,22.333L109.495,22.333L110.163,22.333L110.875,22.333L112.326,22.333L113.065,22.333L113.867,22.333L114.513,22.333L115.217,22.333L116.666,22.333L117.408,22.333L118.178,22.333L118.852,22.333L119.565,22.333L121.019,22.333L121.752,22.333L122.523,22.333L123.19,22.333L123.908,22.333L125.362,22.333L126.098,22.333L126.868,22.333L127.539,22.333L128.254,22.333L129.706,22.333L130.433,22.333L131.201,22.333L131.877,22.333L132.601,22.333L134.054,22.333L134.78,22.333L135.544,22.333L136.222,22.333L136.948,22.333L138.408,22.333L139.14,22.333L139.918,22.333L140.588,22.333L141.299,22.333L142.751,22.333L143.491,22.333L144.263,22.333L144.932,22.333L145.645,22.333L147.099,22.333L147.834,22.333L148.61,22.333L149.279,22.333L149.991,22.333L151.445,22.333L152.179,22.333L152.955,22.333L153.623,22.333L154.338,22.333L155.791,22.333L156.526,22.333L157.3,22.333L157.972,22.333L158.682,22.333L160.135,22.333L160.864,22.333L161.633,22.333L162.305,22.333L163.027,22.333L164.483,22.333L165.208,22.333L165.979,22.333L166.656,22.333L167.376,22.333L168.832,22.333L169.572,22.333L170.345,22.333L171.005,22.333L171.726,22.333L173.177,22.333L173.915,22.333L174.688,22.333L175.362,22.333L176.072,22.333L177.525,22.333L178.263,22.333L179.037,22.333L179.711,22.333L180.416,22.333L181.872,22.333L182.611,22.333L183.386,22.333L184.057,22.333L184.761,22.333L186.217,22.333L186.955,22.333L187.728,22.333L188.399,22.333L189.109,22.333L190.562,22.333L191.287,22.333L192.057,22.333L192.734,22.333L193.456,22.333L194.909,22.333L195.634,22.333L196.405,22.333L197.077,22.333L197.801,22.333L199.26,22.333L200,22.333" stroke="#f58518" stroke-width="2"/></g></g><path class="foreground" aria-hidden="true" d="" display="none"/></g><g transform="translate(0,0)"><path class="background" aria-hidden="true" d="M0,0h200v200h-200Z"/><g><g class="mark-line role-mark marks" role="graphics-object" aria-roledescription="line mark container"><path aria-label="Time: Aug 31, 2025; Price: 1599; identifier: silex-400-warm-slate-grey-2026" role="graphics-symbol" aria-roledescription="line mark" d="M73.669,22.333L73.93,22.333L74.703,22.333L75.381,22.333L76.097,22.333L77.565,22.333L78.296,22.333L79.067,22.333L79.733,22.333L80.443,22.333L81.905,22.333L82.64,22.333L83.417,22.333L84.082,22.333L84.793,22.333L86.246,22.333L86.979,22.333L87.754,22.333L88.427,22.333L89.138,22.333L90.592,22.333L91.328,22.333L92.096,22.333L92.777,22.333L93.484,22.333L94.94,22.333L95.673,22.333L96.445,22.333L97.115,22.333L97.831,22.333L99.282,22.333L99.654,22.333L100.007,22.333L100.774,22.333L101.454,22.333L102.175,22.333L103.627,22.333L104.353,22.333L105.123,22.333L105.801,22.333L106.522,22.333L107.981,22.333L108.721,22.333L109.496,22.333L110.163,22.333L110.875,22.333L112.326,22.333L113.065,22.333L113.867,22.333L114.513,22.333L115.217,22.333L116.667,22.333L117.408,22.333L118.178,22.333L118.852,22.333L119.565,22.333L121.019,22.333L121.753,22.333L122.523,22.333L123.191,22.333L123.908,22.333L125.362,22.333L126.098,22.333L126.868,22.333L127.539,22.333L128.254,22.333L129.706,22.333L130.434,22.333L131.201,22.333L131.877,22.333L132.602,22.333L134.054,22.333L134.78,22.333L135.545,22.333L136.223,22.333L136.948,22.333L138.408,22.333L139.14,22.333L139.918,22.333L140.588,22.333L141.3,22.333L142.751,22.333L143.491,22.333L144.263,22.333L144.932,22.333L145.645,22.333L147.099,22.333L147.834,22.333L148.61,22.333L149.28,22.333L149.991,22.333L151.445,22.333L152.179,22.333L152.955,22.333L153.624,22.333L154.338,22.333L155.792,22.333L156.526,22.333L157.3,22.333L157.972,22.333L158.682,22.333L160.135,22.333L160.865,22.333L161.633,22.333L162.306,22.333L163.027,22.333L164.483,22.333L165.208,22.333L165.979,22.333L166.656,22.333L167.376,22.333L168.832,22.333L169.572,22.333L170.346,22.333L171.005,22.333L171.726,22.333L173.178,22.333L173.915,22.333L174.689,22.333L175.362,22.333L176.072,22.333L177.525,22.333L178.263,22.333L179.037,22.333L179.712,22.333L180.416,22.333L181.872,22.333L182.611,22.333L183.386,22.333L184.057,22.333L184.761,22.333L186.217,22.333L186.955,22.333L187.728,22.333L188.399,22.333L189.109,22.333L190.563,22.333L191.287,22.333L192.057,22.333L192.734,22.333L193.456,22.333L194.909,22.333L195.634,22.333L196.405,22.333L197.078,22.333L197.801,22.333L199.26,22.333L200,22.333" stroke="#e45756" stroke-width="2"/></g></g><path class="foreground" aria-hidden="true" d="" display="none"/></g></g><g class="mark-group role-legend" role="graphics-symbol" aria-roledescription="legend" aria-label="Symbol legend titled 'identifier' for stroke color with 16 values: devote-1-2022, silex-400-oak-bork-2026, silex-400-warm-slate-grey-2026, devote-1-2024, fastroad-ar-2, ending with allure-rs-2-2024"><g transform="translate(220,0)"><path class="background" aria-hidden="true" d="M0,0h256v222h-256Z" pointer-events="none"/><g><g class="mark-group role-legend-entry"><g transform="translate(0,16)"><path class="background" aria-hidden="true" d="M0,0h0v0h0Z" pointer-events="none"/><g><g class="mark-group role-scope" role="graphics-object" aria-roledescription="group mark container"><g transform="translate(0,0)"><path class="background" aria-hidden="true" d="M0,0h256v11h-256Z" pointer-events="none" opacity="1"/><g><g class="mark-symbol role-legend-symbol" pointer-events="none"><path transform="translate(6,6)" d="M-5,0L5,0" stroke="#4c78a8" stroke-width="1.5" opacity="1"/></g><g class="mark-text role-legend-label" pointer-events="none"><text text-anchor="start" transform="translate(16,9)" font-family="Liberation Mono" font-size="10px" fill="#000" opacity="1">devote-1-2022</text></g></g><path class="foreground" aria-hidden="true" d="" pointer-events="none" display="none"/></g><g transform="translate(0,13)"><path class="background" aria-hidden="true" d="M0,0h256v11h-256Z" pointer-events="none" opacity="1"/><g><g class="mark-symbol role-legend-symbol" pointer-events="none"><path transform="translate(6,6)" d="M-5,0L5,0" stroke="#f58518" stroke-width="1.5" opacity="1"/></g><g class="mark-text role-legend-label" pointer-events="none"><text text-anchor="start" transform="translate(16,9)" font-family="Liberation Mono" font-size="10px" fill="#000" opacity="1">silex-400-oak-bork-2026</text></g></g><path class="foreground" aria-hidden="true" d="" pointer-events="none" display="none"/></g><g transform="translate(0,26)"><path class="background" aria-hidden="true" d="M0,0h256v11h-256Z" pointer-events="none" opacity="1"/><g><g class="mark-symbol role-legend-symbol" pointer-events="none"><path transform="translate(6,6)" d="M-5,0L5,0" stroke="#e45756" stroke-width="1.5" opacity="1"/></g><g class="mark-text role-legend-label" pointer-events="none"><text text-anchor="start" transform="translate(16,9)" font-family="Liberation Mono" font-size="10px" fill="#000" opacity="1">silex-400-warm-slate-grey-2026</text></g></g><path class="foreground" aria-hidden="true" d="" pointer-events="none" display="none"/></g><g transform="translate(0,39)"><path class="background" aria-hidden="true" d="M0,0h256v11h-256Z" pointer-events="none" opacity="1"/><g><g class="mark-symbol role-legend-symbol" pointer-events="none"><path transform="translate(6,6)" d="M-5,0L5,0" stroke="#72b7b2" stroke-width="1.5" opacity="1"/></g><g class="mark-text role-legend-label" pointer-events="none"><text text-anchor="start" transform="translate(16,9)" font-family="Liberation Mono" font-size="10px" fill="#000" opacity="1">devote-1-2024</text></g></g><path class="foreground" aria-hidden="true" d="" pointer-events="none" display="none"/></g><g transform="translate(0,52)"><path class="background" aria-hidden="true" d="M0,0h256v11h-256Z" pointer-events="none" opacity="1"/><g><g class="mark-symbol role-legend-symbol" pointer-events="none"><path transform="translate(6,6)" d="M-5,0L5,0" stroke="#54a24b" stroke-width="1.5" opacity="1"/></g><g class="mark-text role-legend-label" pointer-events="none"><text text-anchor="start" transform="translate(16,9)" font-family="Liberation Mono" font-size="10px" fill="#000" opacity="1">fastroad-ar-2</text></g></g><path class="foreground" aria-hidden="true" d="" pointer-events="none" display="none"/></g><g transform="translate(0,65)"><path class="background" aria-hidden="true" d="M0,0h256v11h-256Z" pointer-events="none" opacity="1"/><g><g class="mark-symbol role-legend-symbol" pointer-events="none"><path transform="translate(6,6)" d="M-5,0L5,0" stroke="#eeca3b" stroke-width="1.5" opacity="1"/></g><g class="mark-text role-legend-label" pointer-events="none"><text text-anchor="start" transform="translate(16,9)" font-family="Liberation Mono" font-size="10px" fill="#000" opacity="1">thrive-2</text></g></g><path class="foreground" aria-hidden="true" d="" pointer-events="none" display="none"/></g><g transform="translate(0,78)"><path class="background" aria-hidden="true" d="M0,0h256v11h-256Z" pointer-events="none" opacity="1"/><g><g class="mark-symbol role-legend-symbol" pointer-events="none"><path transform="translate(6,6)" d="M-5,0L5,0" stroke="#b279a2" stroke-width="1.5" opacity="1"/></g><g class="mark-text role-legend-label" pointer-events="none"><text text-anchor="start" transform="translate(16,9)" font-family="Liberation Mono" font-size="10px" fill="#000" opacity="1">allure-rs-1-2023</text></g></g><path class="foreground" aria-hidden="true" d="" pointer-events="none" display="none"/></g><g transform="translate(0,91)"><path class="background" aria-hidden="true" d="M0,0h256v11h-256Z" pointer-events="none" opacity="1"/><g><g class="mark-symbol role-legend-symbol" pointer-events="none"><path transform="translate(6,6)" d="M-5,0L5,0" stroke="#ff9da6" stroke-width="1.5" opacity="1"/></g><g class="mark-text role-legend-label" pointer-events="none"><text text-anchor="start" transform="translate(16,9)" font-family="Liberation Mono" font-size="10px" fill="#000" opacity="1">roam-2</text></g></g><path class="foreground" aria-hidden="true" d="" pointer-events="none" display="none"/></g><g transform="translate(0,104)"><path class="background" aria-hidden="true" d="M0,0h256v11h-256Z" pointer-events="none" opacity="1"/><g><g class="mark-symbol role-legend-symbol" pointer-events="none"><path transform="translate(6,6)" d="M-5,0L5,0" stroke="#9d755d" stroke-width="1.5" opacity="1"/></g><g class="mark-text role-legend-label" pointer-events="none"><text text-anchor="start" transform="translate(16,9)" font-family="Liberation Mono" font-size="10px" fill="#000" opacity="1">fastroad-sl-3-2022</text></g></g><path class="foreground" aria-hidden="true" d="" pointer-events="none" display="none"/></g><g transform="translate(0,117)"><path class="background" aria-hidden="true" d="M0,0h256v11h-256Z" pointer-events="none" opacity="1"/><g><g class="mark-symbol role-legend-symbol" pointer-events="none"><path transform="translate(6,6)" d="M-5,0L5,0" stroke="#bab0ac" stroke-width="1.5" opacity="1"/></g><g class="mark-text role-legend-label" pointer-events="none"><text text-anchor="start" transform="translate(16,9)" font-family="Liberation Mono" font-size="10px" fill="#000" opacity="1">allure-rs-2-2023</text></g></g><path class="foreground" aria-hidden="true" d="" pointer-events="none" display="none"/></g><g transform="translate(0,130)"><path class="background" aria-hidden="true" d="M0,0h256v11h-256Z" pointer-events="none" opacity="1"/><g><g class="mark-symbol role-legend-symbol" pointer-events="none"><path transform="translate(6,6)" d="M-5,0L5,0" stroke="#4c78a8" stroke-width="1.5" opacity="1"/></g><g class="mark-text role-legend-label" pointer-events="none"><text text-anchor="start" transform="translate(16,9)" font-family="Liberation Mono" font-size="10px" fill="#000" opacity="1">escape-city-disc-1-2024</text></g></g><path class="foreground" aria-hidden="true" d="" pointer-events="none" display="none"/></g><g transform="translate(0,143)"><path class="background" aria-hidden="true" d="M0,0h256v11h-256Z" pointer-events="none" opacity="1"/><g><g class="mark-symbol role-legend-symbol" pointer-events="none"><path transform="translate(6,6)" d="M-5,0L5,0" stroke="#f58518" stroke-width="1.5" opacity="1"/></g><g class="mark-text role-legend-label" pointer-events="none"><text text-anchor="start" transform="translate(16,9)" font-family="Liberation Mono" font-size="10px" fill="#000" opacity="1">sdrbike-escape-1-city-disc</text></g></g><path class="foreground" aria-hidden="true" d="" pointer-events="none" display="none"/></g><g transform="translate(0,156)"><path class="background" aria-hidden="true" d="M0,0h256v11h-256Z" pointer-events="none" opacity="1"/><g><g class="mark-symbol role-legend-symbol" pointer-events="none"><path transform="translate(6,6)" d="M-5,0L5,0" stroke="#e45756" stroke-width="1.5" opacity="1"/></g><g class="mark-text role-legend-label" pointer-events="none"><text text-anchor="start" transform="translate(16,9)" font-family="Liberation Mono" font-size="10px" fill="#000" opacity="1">roam-disc-2-2024</text></g></g><path class="foreground" aria-hidden="true" d="" pointer-events="none" display="none"/></g><g transform="translate(0,169)"><path class="background" aria-hidden="true" d="M0,0h256v11h-256Z" pointer-events="none" opacity="1"/><g><g class="mark-symbol role-legend-symbol" pointer-events="none"><path transform="translate(6,6)" d="M-5,0L5,0" stroke="#72b7b2" stroke-width="1.5" opacity="1"/></g><g class="mark-text role-legend-label" pointer-events="none"><text text-anchor="start" transform="translate(16,9)" font-family="Liberation Mono" font-size="10px" fill="#000" opacity="1">rove-2</text></g></g><path class="foreground" aria-hidden="true" d="" pointer-events="none" display="none"/></g><g transform="translate(0,182)"><path class="background" aria-hidden="true" d="M0,0h256v11h-256Z" pointer-events="none" opacity="1"/><g><g class="mark-symbol role-legend-symbol" pointer-events="none"><path transform="translate(6,6)" d="M-5,0L5,0" stroke="#54a24b" stroke-width="1.5" opacity="1"/></g><g class="mark-text role-legend-label" pointer-events="none"><text text-anchor="start" transform="translate(16,9)" font-family="Liberation Mono" font-size="10px" fill="#000" opacity="1">allure-rs-2-2022</text></g></g><path class="foreground" aria-hidden="true" d="" pointer-events="none" display="none"/></g><g transform="translate(0,195)"><path class="background" aria-hidden="true" d="M0,0h256v11h-256Z" pointer-events="none" opacity="1"/><g><g class="mark-symbol role-legend-symbol" pointer-events="none"><path transform="translate(6,6)" d="M-5,0L5,0" stroke="#eeca3b" stroke-width="1.5" opacity="1"/></g><g class="mark-text role-legend-label" pointer-events="none"><text text-anchor="start" transform="translate(16,9)" font-family="Liberation Mono" font-size="10px" fill="#000" opacity="1">allure-rs-2-2024</text></g></g><path class="foreground" aria-hidden="true" d="" pointer-events="none" display="none"/></g></g></g><path class="foreground" aria-hidden="true" d="" pointer-events="none" display="none"/></g></g><g class="mark-text role-legend-title" pointer-events="none"><text text-anchor="start" transform="translate(0,9)" font-family="Liberation Mono" font-size="11px" font-weight="bold" fill="#000" opacity="1">identifier</text></g></g><path class="foreground" aria-hidden="true" d="" pointer-events="none" display="none"/></g></g></g><path class="foreground" aria-hidden="true" d="" display="none"/></g></g></g></svg>