<svg xmlns="http://www.w3.org/2000/svg" xmlns:xlink="http://www.w3.org/1999/xlink" version="1.1" class="marks" width="548" height="244" viewBox="0 0 548 244"><rect width="548" height="244" fill="white"/><g fill="none" stroke-miterlimit="10" transform="translate(67,7)"><g class="mark-group role-frame root" role="graphics-object" aria-roledescription="group mark container"><g transform="translate(0,0)"><path class="background" aria-hidden="true" d="M0.5,0.5h200v200h-200Z" stroke="#ddd"/><g><g class="mark-group role-axis" aria-hidden="true"><g transform="translate(0.5,200.5)"><path class="background" aria-hidden="true" d="M0,0h0v0h0Z" pointer-events="none"/><g><g class="mark-rule role-axis-grid" pointer-events="none"><line transform="translate(8,-200)" x2="0" y2="200" stroke="#ddd" stroke-width="1" opacity="1"/><line transform="translate(31,-200)" x2="0" y2="200" stroke="#ddd" stroke-width="1" opacity="1"/><line transform="translate(55,-200)" x2="0" y2="200" stroke="#ddd" stroke-width="1" opacity="1"/><line transform="translate(78,-200)" x2="0" y2="200" stroke="#ddd" stroke-width="1" opacity="1"/><line transform="translate(102,-200)" x2="0" y2="200" stroke="#ddd" stroke-width="1" opacity="1"/><line transform="translate(126,-200)" x2="0" y2="200" stroke="#ddd" stroke-width="1" opacity="1"/><line transform="translate(149,-200)" x2="0" y2="200" stroke="#ddd" stroke-width="1" opacity="1"/><line transform="translate(173,-200)" x2="0" y2="200" stroke="#ddd" stroke-width="1" opacity="1"/><line transform="translate(196,-200)" x2="0" y2="200" stroke="#ddd" stroke-width="1" opacity="1"/></g></g><path class="foreground" aria-hidden="true" d="" pointer-events="none" display="none"/></g></g><g class="mark-group role-axis" aria-hidden="true"><g transform="translate(0.5,0.5)"><path class="background" aria-hidden="true" d="M0,0h0v0h0Z" pointer-events="none"/><g><g class="mark-rule role-axis-grid" pointer-events="none"><line transform="translate(0,200)" x2="200" y2="0" stroke="#ddd" stroke-width="1" opacity="1"/><line transform="translate(0,144)" x2="200" y2="0" stroke="#ddd" stroke-width="1" opacity="1"/><line transform="translate(0,89)" x2="200" y2="0" stroke="#ddd" stroke-width="1" opacity="1"/><line transform="translate(0,33)" x2="200" y2="0" stroke="#ddd" stroke-width="1" opacity="1"/></g></g><path class="foreground" aria-hidden="true" d="" pointer-events="none" display="none"/></g></g><g class="mark-group role-axis" role="graphics-symbol" aria-roledescription="axis" aria-label="X-axis titled 'Time' for a time scale with values from Thursday, 14 August 2025, 8:34:48 AM to Sunday, 31 August 2025, 7:20:47 AM"><g transform="translate(0.5,200.5)"><path class="background" aria-hidden="true" d="M0,0h0v0h0Z" pointer-events="none"/><g><g class="mark-rule role-axis-tick" pointer-events="none"><line transform="translate(8,0)" x2="0" y2="5" stroke="#888" stroke-width="1" opacity="1"/><line transform="translate(31,0)" x2="0" y2="5" stroke="#888" stroke-width="1" opacity="1"/><line transform="translate(55,0)" x2="0" y2="5" stroke="#888" stroke-width="1" opacity="1"/><line transform="translate(78,0)" x2="0" y2="5" stroke="#888" stroke-width="1" opacity="1"/><line transform="translate(102,0)" x2="0" y2="5" stroke="#888" stroke-width="1" opacity="1"/><line transform="translate(126,0)" x2="0" y2="5" stroke="#888" stroke-width="1" opacity="1"/><line transform="translate(149,0)" x2="0" y2="5" stroke="#888" stroke-width="1" opacity="1"/><line transform="translate(173,0)" x2="0" y2="5" stroke="#888" stroke-width="1" opacity="1"/><line transform="translate(196,0)" x2="0" y2="5" stroke="#888" stroke-width="1" opacity="1"/></g><g class="mark-text role-axis-label" pointer-events="none"><text text-anchor="middle" transform="translate(7.581648148711763,15)" font-family="Liberation Mono" font-size="10px" fill="#000" opacity="1">Fri 15</text><text text-anchor="middle" transform="translate(31.18243029829952,15)" font-family="Liberation Mono" font-size="10px" fill="#000" opacity="0">Aug 17</text><text text-anchor="middle" transform="translate(54.78321244788727,15)" font-family="Liberation Mono" font-size="10px" fill="#000" opacity="0">Tue 19</text><text text-anchor="middle" transform="translate(78.38399459747502,15)" font-family="Liberation Mono" font-size="10px" fill="#000" opacity="0">Thu 21</text><text text-anchor="middle" transform="translate(101.9847767470628,15)" font-family="Liberation Mono" font-size="10px" fill="#000" opacity="1">Sat 23</text><text text-anchor="middle" transform="translate(125.58555889665055,15)" font-family="Liberation Mono" font-size="10px" fill="#000" opacity="0">Mon 25</text><text text-anchor="middle" transform="translate(149.18634104623828,15)" font-family="Liberation Mono" font-size="10px" fill="#000" opacity="0">Wed 27</text><text text-anchor="middle" transform="translate(172.78712319582604,15)" font-family="Liberation Mono" font-size="10px" fill="#000" opacity="0">Fri 29</text><text text-anchor="middle" transform="translate(196.38790534541383,15)" font-family="Liberation Mono" font-size="10px" fill="#000" opacity="1">Aug 31</text></g><g class="mark-rule role-axis-domain" pointer-events="none"><line transform="translate(0,0)" x2="200" y2="0" stroke="#888" stroke-width="1" opacity="1"/></g><g class="mark-text role-axis-title" pointer-events="none"><text text-anchor="middle" transform="translate(100,30)" font-family="Liberation Mono" font-size="11px" font-weight="bold" fill="#000" opacity="1">Time</text></g></g><path class="foreground" aria-hidden="true" d="" pointer-events="none" display="none"/></g></g><g class="mark-group role-axis" role="graphics-symbol" aria-roledescription="axis" aria-label="Y-axis titled 'Price' for a linear scale with values from 0 to 1,800"><g transform="translate(0.5,0.5)"><path class="background" aria-hidden="true" d="M0,0h0v0h0Z" pointer-events="none"/><g><g class="mark-rule role-axis-tick" pointer-events="none"><line transform="translate(0,200)" x2="-5" y2="0" stroke="#888" stroke-width="1" opacity="1"/><line transform="translate(0,144)" x2="-5" y2="0" stroke="#888" stroke-width="1" opacity="1"/><line transform="translate(0,89)" x2="-5" y2="0" stroke="#888" stroke-width="1" opacity="1"/><line transform="translate(0,33)" x2="-5" y2="0" stroke="#888" stroke-width="1" opacity="1"/></g><g class="mark-text role-axis-label" pointer-events="none"><text text-anchor="end" transform="translate(-7,203)" font-family="Liberation Mono" font-size="10px" fill="#000" opacity="1">0</text><text text-anchor="end" transform="translate(-7,147.44444444444443)" font-family="Liberation Mono" font-size="10px" fill="#000" opacity="1">500</text><text text-anchor="end" transform="translate(-7,91.88888888888889)" font-family="Liberation Mono" font-size="10px" fill="#000" opacity="1">1,000</text><text text-anchor="end" transform="translate(-7,36.33333333333333)" font-family="Liberation Mono" font-size="10px" fill="#000" opacity="1">1,500</text></g><g class="mark-rule role-axis-domain" pointer-events="none"><line transform="translate(0,200)" x2="0" y2="-200" stroke="#888" stroke-width="1" opacity="1"/></g><g class="mark-text role-axis-title" pointer-events="none"><text text-anchor="middle" transform="translate(-51,100) rotate(-90) translate(0,-2)" font-family="Liberation Mono" font-size="11px" font-weight="bold" fill="#000" opacity="1">Price</text></g></g><path class="foreground" aria-hidden="true" d="" pointer-events="none" display="none"/></g></g><g class="mark-group role-scope pathgroup" role="graphics-object" aria-roledescription="group mark container"><g transform="translate(0,0)"><path class="background" aria-hidden="true" d="M0,0h200v200h-200Z"/><g><g class="mark-line role-mark marks" role="graphics-object" aria-roledescription="line mark container"><path aria-label="Time: Aug 14, 2025; Price: 899; identifier: escape-city-disc-1-2024" role="graphics-symbol" aria-roledescription="line mark" d="M0,100.111L0.098,100.111L0.175,100.111L2.351,100.111L4.08,100.111L6.02,100.111L10,100.111L11.954,100.111L14.112,100.111L15.882,100.111L17.813,100.111L21.763,100.111L23.74,100.111L25.835,100.111L27.66,100.111L29.595,100.111L33.608,100.111L35.536,100.111L37.641,100.111L39.469,100.111L41.41,100.111L45.442,100.111L47.38,100.111L49.554,100.111L50.316,100.111L51.307,100.111L53.2,100.111L57.153,100.111L59.15,100.111L61.246,100.111L63.077,100.111L64.996,100.111L68.957,100.111L70.935,100.111L73.117,100.111L73.999,100.111L74.873,100.111L76.81,100.111L80.75,100.111L82.745,100.111L84.85,100.111L86.681,100.111L88.604,100.111L92.554,100.111L94.542,100.111L96.646,100.111L98.469,100.111L100.398,100.111L104.345,100.111L106.323,100.111L108.409,100.111L110.238,100.111L112.186,100.111L116.16,100.111L118.116,100.111L120.216,100.111L122.053,100.111L123.99,100.111L127.977,100.111L129.969,100.111L132.121,100.111L133.883,100.111L135.804,100.111L139.758,100.111L141.761,100.111L145.672,100.111L147.593,100.111L151.544,100.111L153.538,100.111L154.312,100.111L155.64,100.111L156.956,100.111L157.471,100.111L159.401,100.111L163.342,100.111L165.343,100.111L167.445,100.111L169.269,100.111L171.197,100.111L175.143,100.111L177.135,100.111L179.231,100.111L181.065,100.111L182.991,100.111L186.931,100.111L188.908,100.111L190.995,100.111L192.837,100.111L194.692,100.111L194.784,100.111L198.736,100.111L199.996,100.111" stroke="#72b7b2" stroke-width="2"/></g></g><path class="foreground" aria-hidden="true" d="" display="none"/></g><g transform="translate(0,0)"><path class="background" aria-hidden="true" d="M0,0h200v200h-200Z"/><g><g class="mark-line role-mark marks" role="graphics-object" aria-roledescription="line mark container"><path aria-label="Time: Aug 14, 2025; Price: 999; identifier: roam-2" role="graphics-symbol" aria-roledescription="line mark" d="M0,89L0.098,89L0.176,89L2.351,89L4.08,89L6.02,89L10,89L11.955,89L14.113,89L15.883,89L17.813,89L21.763,89L23.74,89L25.835,89L27.66,89L29.614,89L33.608,89L35.536,89L37.641,89L39.469,89L41.411,89L45.442,89L47.38,89L49.554,89L50.317,89L51.308,89L53.2,89L57.153,89L59.15,89L61.246,89L63.077,89L64.996,89L68.957,89L70.935,89L73.117,89L74,89L74.873,89L76.81,89L80.751,89L82.745,89L84.851,89L86.681,89L88.604,89L92.554,89L94.542,89L96.646,89L98.47,89L100.398,89L104.346,89L106.324,89L108.41,89L110.239,89L112.187,89L116.161,89L118.116,89L120.217,89L122.054,89L123.991,89L127.978,89L129.969,89L132.122,89L133.884,89L135.805,89L139.759,89L141.762,89L145.673,89L147.593,89L151.544,89L153.538,89L154.313,89L155.64,89L156.956,89L157.472,89L159.402,89L163.343,89L165.344,89L167.446,89L169.27,89L171.198,89L175.144,89L177.136,89L179.232,89L181.065,89L182.991,89L186.931,89L188.908,89L190.996,89L192.837,89L194.693,89L194.785,89L198.736,89L199.997,89" stroke="#ff9da6" stroke-width="2"/></g></g><path class="foreground" aria-hidden="true" d="" display="none"/></g><g transform="translate(0,0)"><path class="background" aria-hidden="true" d="M0,0h200v200h-200Z"/><g><g class="mark-line role-mark marks" role="graphics-object" aria-roledescription="line mark container"><path aria-label="Time: Aug 14, 2025; Price: 999; identifier: fastroad-sl-3-2022" role="graphics-symbol" aria-roledescription="line mark" d="M0.001,89L0.098,89L0.176,89L2.352,89L4.081,89L6.02,89L10.001,89L11.955,89L14.113,89L15.883,89L17.813,89L21.763,89L23.74,89L25.835,89L27.661,89L29.614,89L33.609,89L35.537,89L37.641,89L39.469,89L41.411,89L45.442,89L47.38,89L49.554,89L50.317,89L51.308,89L53.2,89L57.153,89L59.151,89L61.247,89L63.077,89L64.996,89L68.958,89L70.936,89L73.117,89L74,89L74.874,89L76.811,89L80.751,89L82.745,89L84.851,89L86.682,89L88.605,89L92.555,89L94.543,89L96.647,89L98.47,89L100.399,89L104.346,89L106.324,89L108.41,89L110.239,89L112.187,89L116.161,89L118.117,89L120.217,89L122.054,89L123.991,89L127.978,89L129.969,89L132.122,89L133.884,89L135.805,89L139.759,89L141.762,89L145.673,89L147.593,89L151.545,89L153.539,89L154.313,89L155.641,89L156.956,89L157.472,89L159.402,89L163.343,89L165.344,89L167.446,89L169.27,89L171.198,89L175.144,89L177.136,89L179.232,89L181.066,89L182.992,89L186.931,89L188.909,89L190.996,89L192.837,89L194.693,89L194.785,89L198.737,89L199.997,89" stroke="#9d755d" stroke-width="2"/></g></g><path class="foreground" aria-hidden="true" d="" display="none"/></g><g transform="translate(0,0)"><path class="background" aria-hidden="true" d="M0,0h200v200h-200Z"/><g><g class="mark-line role-mark marks" role="graphics-object" aria-roledescription="line mark container"><path aria-label="Time: Aug 14, 2025; Price: 1199; identifier: fastroad-ar-2" role="graphics-symbol" aria-roledescription="line mark" d="M0.001,66.778L0.099,66.778L0.176,66.778L2.352,66.778L4.081,66.778L6.021,66.778L10.001,66.778L11.955,66.778L14.113,66.778L15.883,66.778L17.813,66.778L21.763,66.778L23.741,66.778L25.835,66.778L27.661,66.778L29.623,66.778L33.609,66.778L35.537,66.778L37.641,66.778L39.47,66.778L41.411,66.778L45.443,66.778L47.381,66.778L49.554,66.778L50.317,66.778L51.308,66.778L53.2,66.778L57.154,66.778L59.151,66.778L61.247,66.778L63.077,66.778L64.996,66.778L68.958,66.778L70.936,66.778L73.118,66.778L74,66.778L74.874,66.778L76.811,66.778L80.751,66.778L82.746,66.778L84.851,66.778L86.682,66.778L88.605,66.778L92.555,66.778L94.543,66.778L96.647,66.778L98.47,66.778L100.399,66.778L104.347,66.778L106.325,66.778L108.41,66.778L110.239,66.778L112.187,66.778L116.161,66.778L118.117,66.778L120.217,66.778L122.054,66.778L123.991,66.778L127.978,66.778L129.97,66.778L132.123,66.778L133.884,66.778L135.805,66.778L139.76,66.778L141.762,66.778L145.674,66.778L147.594,66.778L151.545,66.778L153.539,66.778L154.314,66.778L155.641,66.778L156.957,66.778L157.472,66.778L159.403,66.778L163.343,66.778L165.344,66.778L167.446,66.778L169.27,66.778L171.198,66.778L175.144,66.778L177.137,66.778L179.233,66.778L181.066,66.778L182.992,66.778L186.931,66.778L188.909,66.778L190.997,66.778L192.838,66.778L194.693,66.778L194.785,66.778L198.737,66.778L199.997,66.778" stroke="#54a24b" stroke-width="2"/></g></g><path class="foreground" aria-hidden="true" d="" display="none"/></g><g transform="translate(0,0)"><path class="background" aria-hidden="true" d="M0,0h200v200h-200Z"/><g><g class="mark-line role-mark marks" role="graphics-object" aria-roledescription="line mark container"><path aria-label="Time: Aug 18, 2025; Price: 899; identifier: sdrbike-escape-1-city-disc" role="graphics-symbol" aria-roledescription="line mark" d="M50.318,100.111L51.308,100.111L53.201,100.111L57.154,100.111L59.151,100.111L61.247,100.111L63.078,100.111L64.997,100.111L68.958,100.111L70.936,100.111L73.118,100.111L74.001,100.111L74.874,100.111L76.811,100.111L80.752,100.111L82.746,100.111L84.852,100.111L86.682,100.111L88.605,100.111L92.555,100.111L94.543,100.111L96.647,100.111L98.47,100.111L100.399,100.111L104.347,100.111L106.325,100.111L108.411,100.111L110.24,100.111L112.188,100.111L116.162,100.111L118.118,100.111L120.218,100.111L122.055,100.111L123.992,100.111L127.979,100.111L129.97,100.111L132.123,100.111L133.885,100.111L135.806,100.111L139.761,100.111L141.763,100.111L145.674,100.111L147.594,100.111L151.546,100.111L153.539,100.111L154.314,100.111L155.641,100.111L156.957,100.111L157.472,100.111L159.403,100.111L163.344,100.111L165.345,100.111L167.447,100.111L169.271,100.111L171.199,100.111L175.145,100.111L177.137,100.111L179.233,100.111L181.066,100.111L182.993,100.111L186.932,100.111L188.909,100.111L190.997,100.111L192.838,100.111L194.694,100.111L194.785,100.111L198.737,100.111L199.998,100.111" stroke="#54a24b" stroke-width="2"/></g></g><path class="foreground" aria-hidden="true" d="" display="none"/></g><g transform="translate(0,0)"><path class="background" aria-hidden="true" d="M0,0h200v200h-200Z"/><g><g class="mark-line role-mark marks" role="graphics-object" aria-roledescription="line mark container"><path aria-label="Time: Aug 20, 2025; Price: 899; identifier: roam-disc-2-2024" role="graphics-symbol" aria-roledescription="line mark" d="M73.999,100.111L74.873,100.111L76.81,100.111L80.751,100.111L82.745,100.111L84.85,100.111L86.681,100.111L88.604,100.111L92.554,100.111L94.542,100.111L96.646,100.111L98.469,100.111L100.398,100.111L104.346,100.111L106.324,100.111L108.41,100.111L110.239,100.111L112.187,100.111L116.16,100.111L118.116,100.111L120.216,100.111L122.054,100.111L123.991,100.111L127.978,100.111L129.969,100.111L132.122,100.111L133.884,100.111L135.805,100.111L139.758,100.111L141.762,100.111L145.673,100.111L147.593,100.111L151.544,100.111L153.538,100.111L154.312,100.111L155.64,100.111L156.956,100.111L157.471,100.111L159.402,100.111L163.343,100.111L165.343,100.111L167.445,100.111L169.27,100.111L171.198,100.111L175.144,100.111L177.136,100.111L179.232,100.111L181.065,100.111L182.991,100.111L186.931,100.111L188.908,100.111L190.996,100.111L192.837,100.111L194.692,100.111L194.784,100.111L198.736,100.111L199.997,100.111" stroke="#eeca3b" stroke-width="2"/></g></g><path class="foreground" aria-hidden="true" d="" display="none"/></g><g transform="translate(0,0)"><path class="background" aria-hidden="true" d="M0,0h200v200h-200Z"/><g><g class="mark-line role-mark marks" role="graphics-object" aria-roledescription="line mark container"><path aria-label="Time: Aug 20, 2025; Price: 1199; identifier: thrive-2" role="graphics-symbol" aria-roledescription="line mark" d="M74.001,66.778L74.875,66.778L76.812,66.778L80.752,66.778L82.746,66.778L84.852,66.778L86.682,66.778L88.606,66.778L92.556,66.778L94.543,66.778L96.648,66.778L98.471,66.778L100.399,66.778L104.347,66.778L106.325,66.778L108.411,66.778L110.24,66.778L112.188,66.778L116.162,66.778L118.118,66.778L120.218,66.778L122.055,66.778L123.992,66.778L127.979,66.778L129.97,66.778L132.123,66.778L133.885,66.778L135.806,66.778L139.761,66.778L141.763,66.778L145.674,66.778L147.594,66.778L151.546,66.778L153.54,66.778L154.315,66.778L155.641,66.778L156.957,66.778L157.473,66.778L159.403,66.778L163.344,66.778L165.345,66.778L167.447,66.778L169.271,66.778L171.199,66.778L175.145,66.778L177.137,66.778L179.233,66.778L181.067,66.778L182.993,66.778L186.932,66.778L188.91,66.778L190.998,66.778L192.838,66.778L194.694,66.778L194.786,66.778L198.737,66.778L199.998,66.778" stroke="#eeca3b" stroke-width="2"/></g></g><path class="foreground" aria-hidden="true" d="" display="none"/></g><g transform="translate(0,0)"><path class="background" aria-hidden="true" d="M0,0h200v200h-200Z"/><g><g class="mark-line role-mark marks" role="graphics-object" aria-roledescription="line mark container"><path aria-label="Time: Aug 20, 2025; Price: 999; identifier: rove-2" role="graphics-symbol" aria-roledescription="line mark" d="M74.001,89L74.875,89L76.812,89L80.752,89L82.747,89L84.852,89L86.683,89L88.606,89L92.556,89L94.544,89L96.648,89L98.471,89L100.4,89L104.348,89L106.326,89L108.411,89L110.24,89L112.188,89L116.162,89L118.118,89L120.219,89L122.055,89L123.992,89L127.979,89L129.97,89L132.123,89L133.885,89L135.806,89L139.761,89L141.763,89L145.675,89L147.594,89L151.546,89L153.54,89L154.316,89L155.642,89L156.957,89L157.473,89L159.404,89L163.344,89L165.345,89L167.447,89L169.271,89L171.199,89L175.145,89L177.138,89L179.234,89L181.067,89L182.993,89L194.694,111.222L194.786,111.222L198.738,111.222L199.998,111.222" stroke="#bab0ac" stroke-width="2"/></g></g><path class="foreground" aria-hidden="true" d="" display="none"/></g><g transform="translate(0,0)"><path class="background" aria-hidden="true" d="M0,0h200v200h-200Z"/><g><g class="mark-line role-mark marks" role="graphics-object" aria-roledescription="line mark container"><path aria-label="Time: Aug 27, 2025; Price: 1199; identifier: allure-rs-1-2023" role="graphics-symbol" aria-roledescription="line mark" d="M154.316,66.778L155.642,66.778L156.958,66.778L157.473,66.778L159.404,66.778L163.345,66.778L165.346,66.778L167.448,66.778L169.271,66.778L171.199,66.778L175.146,66.778L177.138,66.778L179.234,66.778L181.067,66.778L182.993,66.778L186.933,66.778L188.91,66.778L190.998,66.778L192.839,66.778L194.695,66.778L194.786,66.778L198.738,66.778L199.998,66.778" stroke="#b279a2" stroke-width="2"/></g></g><path class="foreground" aria-hidden="true" d="" display="none"/></g><g transform="translate(0,0)"><path class="background" aria-hidden="true" d="M0,0h200v200h-200Z"/><g><g class="mark-line role-mark marks" role="graphics-object" aria-roledescription="line mark container"><path aria-label="Time: Aug 27, 2025; Price: 999; identifier: allure-rs-2-2022" role="graphics-symbol" aria-roledescription="line mark" d="M154.317,89L155.642,89L156.958,89L157.473,89L159.404,89L163.345,89L165.346,89L167.448,89L169.272,89L171.2,89L175.146,89L177.138,89L179.234,89L181.067,89L182.994,89L194.695,111.222L194.786,111.222L198.738,111.222L199.998,111.222" stroke="#4c78a8" stroke-width="2"/></g></g><path class="foreground" aria-hidden="true" d="" display="none"/></g><g transform="translate(0,0)"><path class="background" aria-hidden="true" d="M0,0h200v200h-200Z"/><g><g class="mark-line role-mark marks" role="graphics-object" aria-roledescription="line mark container"><path aria-label="Time: Aug 27, 2025; Price: 949; identifier: allure-rs-2-2023" role="graphics-symbol" aria-roledescription="line mark" d="M154.318,94.556L155.642,94.556L156.958,94.556L157.474,94.556L159.405,94.556L163.345,94.556L165.346,94.556L167.448,94.556L169.272,94.556L171.2,94.556L175.146,94.556L177.138,94.556L179.235,94.556L181.067,94.556L182.994,94.556L186.933,94.556L188.911,94.556L190.999,94.556L192.839,94.556L194.695,94.556L194.787,94.556L198.738,94.556L199.999,94.556" stroke="#e45756" stroke-width="2"/></g></g><path class="foreground" aria-hidden="true" d="" display="none"/></g><g transform="translate(0,0)"><path class="background" aria-hidden="true" d="M0,0h200v200h-200Z"/><g><g class="mark-line role-mark marks" role="graphics-object" aria-roledescription="line mark container"><path aria-label="Time: Aug 27, 2025; Price: 999; identifier: allure-rs-2-2024" role="graphics-symbol" aria-roledescription="line mark" d="M154.318,89L155.643,89L156.958,89L157.474,89L159.405,89L163.346,89L165.347,89L167.448,89L169.272,89L171.2,89L175.146,89L177.139,89L179.235,89L181.068,89L182.994,89L194.696,111.222L194.787,111.222L198.739,111.222L199.999,111.222" stroke="#f58518" stroke-width="2"/></g></g><path class="foreground" aria-hidden="true" d="" display="none"/></g><g transform="translate(0,0)"><path class="background" aria-hidden="true" d="M0,0h200v200h-200Z"/><g><g class="mark-line role-mark marks" role="graphics-object" aria-roledescription="line mark container"><path aria-label="Time: Aug 27, 2025; Price: 1799; identifier: devote-1-2024" role="graphics-symbol" aria-roledescription="line mark" d="M156.958,0.111L157.474,0.111L159.405,0.111L163.346,0.111L165.347,0.111L167.449,0.111L169.272,0.111L171.2,0.111L175.147,0.111L177.139,0.111L179.235,0.111L181.068,0.111L182.995,0.111L194.696,44.556L194.787,44.556L198.739,44.556L199.999,44.556" stroke="#4c78a8" stroke-width="2"/></g></g><path class="foreground" aria-hidden="true" d="" display="none"/></g><g transform="translate(0,0)"><path class="background" aria-hidden="true" d="M0,0h200v200h-200Z"/><g><g class="mark-line role-mark marks" role="graphics-object" aria-roledescription="line mark container"><path aria-label="Time: Aug 27, 2025; Price: 1699; identifier: devote-1-2022" role="graphics-symbol" aria-roledescription="line mark" d="M156.958,11.222L157.474,11.222L159.405,11.222L163.346,11.222L165.347,11.222L167.449,11.222L169.273,11.222L171.2,11.222L175.147,11.222L177.139,11.222L179.235,11.222L181.068,11.222L182.995,11.222L186.934,11.222L188.911,11.222L191,11.222L192.84,11.222L194.696,11.222L194.787,11.222L198.739,11.222L199.999,11.222" stroke="#f58518" stroke-width="2"/></g></g><path class="foreground" aria-hidden="true" d="" display="none"/></g><g transform="translate(0,0)"><path class="background" aria-hidden="true" d="M0,0h200v200h-200Z"/><g><g class="mark-line role-mark marks" role="graphics-object" aria-roledescription="line mark container"><path aria-label="Time: Aug 31, 2025; Price: 1599; identifier: silex-400-oak-bork-2026" role="graphics-symbol" aria-roledescription="line mark" d="M200,22.333Z" stroke="#e45756" stroke-width="2"/></g></g><path class="foreground" aria-hidden="true" d="" display="none"/></g><g transform="translate(0,0)"><path class="background" aria-hidden="true" d="M0,0h200v200h-200Z"/><g><g class="mark-line role-mark marks" role="graphics-object" aria-roledescription="line mark container"><path aria-label="Time: Aug 31, 2025; Price: 1599; identifier: silex-400-warm-slate-grey-2026" role="graphics-symbol" aria-roledescription="line mark" d="M200,22.333Z" stroke="#72b7b2" stroke-width="2"/></g></g><path class="foreground" aria-hidden="true" d="" display="none"/></g></g><g class="mark-group role-legend" role="graphics-symbol" aria-roledescription="legend" aria-label="Symbol legend titled 'identifier' for stroke color with 16 values: devote-1-2024, devote-1-2022, silex-400-oak-bork-2026, silex-400-warm-slate-grey-2026, fastroad-ar-2, ending with roam-disc-2-2024"><g transform="translate(220,0)"><path class="background" aria-hidden="true" d="M0,0h256v222h-256Z" pointer-events="none"/><g><g class="mark-group role-legend-entry"><g transform="translate(0,16)"><path class="background" aria-hidden="true" d="M0,0h0v0h0Z" pointer-events="none"/><g><g class="mark-group role-scope" role="graphics-object" aria-roledescription="group mark container"><g transform="translate(0,0)"><path class="background" aria-hidden="true" d="M0,0h256v11h-256Z" pointer-events="none" opacity="1"/><g><g class="mark-symbol role-legend-symbol" pointer-events="none"><path transform="translate(6,6)" d="M-5,0L5,0" stroke="#4c78a8" stroke-width="1.5" opacity="1"/></g><g class="mark-text role-legend-label" pointer-events="none"><text text-anchor="start" transform="translate(16,9)" font-family="Liberation Mono" font-size="10px" fill="#000" opacity="1">devote-1-2024</text></g></g><path class="foreground" aria-hidden="true" d="" pointer-events="none" display="none"/></g><g transform="translate(0,13)"><path class="background" aria-hidden="true" d="M0,0h256v11h-256Z" pointer-events="none" opacity="1"/><g><g class="mark-symbol role-legend-symbol" pointer-events="none"><path transform="translate(6,6)" d="M-5,0L5,0" stroke="#f58518" stroke-width="1.5" opacity="1"/></g><g class="mark-text role-legend-label" pointer-events="none"><text text-anchor="start" transform="translate(16,9)" font-family="Liberation Mono" font-size="10px" fill="#000" opacity="1">devote-1-2022</text></g></g><path class="foreground" aria-hidden="true" d="" pointer-events="none" display="none"/></g><g transform="translate(0,26)"><path class="background" aria-hidden="true" d="M0,0h256v11h-256Z" pointer-events="none" opacity="1"/><g><g class="mark-symbol role-legend-symbol" pointer-events="none"><path transform="translate(6,6)" d="M-5,0L5,0" stroke="#e45756" stroke-width="1.5" opacity="1"/></g><g class="mark-text role-legend-label" pointer-events="none"><text text-anchor="start" transform="translate(16,9)" font-family="Liberation Mono" font-size="10px" fill="#000" opacity="1">silex-400-oak-bork-2026</text></g></g><path class="foreground" aria-hidden="true" d="" pointer-events="none" display="none"/></g><g transform="translate(0,39)"><path class="background" aria-hidden="true" d="M0,0h256v11h-256Z" pointer-events="none" opacity="1"/><g><g class="mark-symbol role-legend-symbol" pointer-events="none"><path transform="translate(6,6)" d="M-5,0L5,0" stroke="#72b7b2" stroke-width="1.5" opacity="1"/></g><g class="mark-text role-legend-label" pointer-events="none"><text text-anchor="start" transform="translate(16,9)" font-family="Liberation Mono" font-size="10px" fill="#000" opacity="1">silex-400-warm-slate-grey-2026</text></g></g><path class="foreground" aria-hidden="true" d="" pointer-events="none" display="none"/></g><g transform="translate(0,52)"><path class="background" aria-hidden="true" d="M0,0h256v11h-256Z" pointer-events="none" opacity="1"/><g><g class="mark-symbol role-legend-symbol" pointer-events="none"><path transform="translate(6,6)" d="M-5,0L5,0" stroke="#54a24b" stroke-width="1.5" opacity="1"/></g><g class="mark-text role-legend-label" pointer-events="none"><text text-anchor="start" transform="translate(16,9)" font-family="Liberation Mono" font-size="10px" fill="#000" opacity="1">fastroad-ar-2</text></g></g><path class="foreground" aria-hidden="true" d="" pointer-events="none" display="none"/></g><g transform="translate(0,65)"><path class="background" aria-hidden="true" d="M0,0h256v11h-256Z" pointer-events="none" opacity="1"/><g><g class="mark-symbol role-legend-symbol" pointer-events="none"><path transform="translate(6,6)" d="M-5,0L5,0" stroke="#eeca3b" stroke-width="1.5" opacity="1"/></g><g class="mark-text role-legend-label" pointer-events="none"><text text-anchor="start" transform="translate(16,9)" font-family="Liberation Mono" font-size="10px" fill="#000" opacity="1">thrive-2</text></g></g><path class="foreground" aria-hidden="true" d="" pointer-events="none" display="none"/></g><g transform="translate(0,78)"><path class="background" aria-hidden="true" d="M0,0h256v11h-256Z" pointer-events="none" opacity="1"/><g><g class="mark-symbol role-legend-symbol" pointer-events="none"><path transform="translate(6,6)" d="M-5,0L5,0" stroke="#b279a2" stroke-width="1.5" opacity="1"/></g><g class="mark-text role-legend-label" pointer-events="none"><text text-anchor="start" transform="translate(16,9)" font-family="Liberation Mono" font-size="10px" fill="#000" opacity="1">allure-rs-1-2023</text></g></g><path class="foreground" aria-hidden="true" d="" pointer-events="none" display="none"/></g><g transform="translate(0,91)"><path class="background" aria-hidden="true" d="M0,0h256v11h-256Z" pointer-events="none" opacity="1"/><g><g class="mark-symbol role-legend-symbol" pointer-events="none"><path transform="translate(6,6)" d="M-5,0L5,0" stroke="#ff9da6" stroke-width="1.5" opacity="1"/></g><g class="mark-text role-legend-label" pointer-events="none"><text text-anchor="start" transform="translate(16,9)" font-family="Liberation Mono" font-size="10px" fill="#000" opacity="1">roam-2</text></g></g><path class="foreground" aria-hidden="true" d="" pointer-events="none" display="none"/></g><g transform="translate(0,104)"><path class="background" aria-hidden="true" d="M0,0h256v11h-256Z" pointer-events="none" opacity="1"/><g><g class="mark-symbol role-legend-symbol" pointer-events="none"><path transform="translate(6,6)" d="M-5,0L5,0" stroke="#9d755d" stroke-width="1.5" opacity="1"/></g><g class="mark-text role-legend-label" pointer-events="none"><text text-anchor="start" transform="translate(16,9)" font-family="Liberation Mono" font-size="10px" fill="#000" opacity="1">fastroad-sl-3-2022</text></g></g><path class="foreground" aria-hidden="true" d="" pointer-events="none" display="none"/></g><g transform="translate(0,117)"><path class="background" aria-hidden="true" d="M0,0h256v11h-256Z" pointer-events="none" opacity="1"/><g><g class="mark-symbol role-legend-symbol" pointer-events="none"><path transform="translate(6,6)" d="M-5,0L5,0" stroke="#bab0ac" stroke-width="1.5" opacity="1"/></g><g class="mark-text role-legend-label" pointer-events="none"><text text-anchor="start" transform="translate(16,9)" font-family="Liberation Mono" font-size="10px" fill="#000" opacity="1">rove-2</text></g></g><path class="foreground" aria-hidden="true" d="" pointer-events="none" display="none"/></g><g transform="translate(0,130)"><path class="background" aria-hidden="true" d="M0,0h256v11h-256Z" pointer-events="none" opacity="1"/><g><g class="mark-symbol role-legend-symbol" pointer-events="none"><path transform="translate(6,6)" d="M-5,0L5,0" stroke="#4c78a8" stroke-width="1.5" opacity="1"/></g><g class="mark-text role-legend-label" pointer-events="none"><text text-anchor="start" transform="translate(16,9)" font-family="Liberation Mono" font-size="10px" fill="#000" opacity="1">allure-rs-2-2022</text></g></g><path class="foreground" aria-hidden="true" d="" pointer-events="none" display="none"/></g><g transform="translate(0,143)"><path class="background" aria-hidden="true" d="M0,0h256v11h-256Z" pointer-events="none" opacity="1"/><g><g class="mark-symbol role-legend-symbol" pointer-events="none"><path transform="translate(6,6)" d="M-5,0L5,0" stroke="#f58518" stroke-width="1.5" opacity="1"/></g><g class="mark-text role-legend-label" pointer-events="none"><text text-anchor="start" transform="translate(16,9)" font-family="Liberation Mono" font-size="10px" fill="#000" opacity="1">allure-rs-2-2024</text></g></g><path class="foreground" aria-hidden="true" d="" pointer-events="none" display="none"/></g><g transform="translate(0,156)"><path class="background" aria-hidden="true" d="M0,0h256v11h-256Z" pointer-events="none" opacity="1"/><g><g class="mark-symbol role-legend-symbol" pointer-events="none"><path transform="translate(6,6)" d="M-5,0L5,0" stroke="#e45756" stroke-width="1.5" opacity="1"/></g><g class="mark-text role-legend-label" pointer-events="none"><text text-anchor="start" transform="translate(16,9)" font-family="Liberation Mono" font-size="10px" fill="#000" opacity="1">allure-rs-2-2023</text></g></g><path class="foreground" aria-hidden="true" d="" pointer-events="none" display="none"/></g><g transform="translate(0,169)"><path class="background" aria-hidden="true" d="M0,0h256v11h-256Z" pointer-events="none" opacity="1"/><g><g class="mark-symbol role-legend-symbol" pointer-events="none"><path transform="translate(6,6)" d="M-5,0L5,0" stroke="#72b7b2" stroke-width="1.5" opacity="1"/></g><g class="mark-text role-legend-label" pointer-events="none"><text text-anchor="start" transform="translate(16,9)" font-family="Liberation Mono" font-size="10px" fill="#000" opacity="1">escape-city-disc-1-2024</text></g></g><path class="foreground" aria-hidden="true" d="" pointer-events="none" display="none"/></g><g transform="translate(0,182)"><path class="background" aria-hidden="true" d="M0,0h256v11h-256Z" pointer-events="none" opacity="1"/><g><g class="mark-symbol role-legend-symbol" pointer-events="none"><path transform="translate(6,6)" d="M-5,0L5,0" stroke="#54a24b" stroke-width="1.5" opacity="1"/></g><g class="mark-text role-legend-label" pointer-events="none"><text text-anchor="start" transform="translate(16,9)" font-family="Liberation Mono" font-size="10px" fill="#000" opacity="1">sdrbike-escape-1-city-disc</text></g></g><path class="foreground" aria-hidden="true" d="" pointer-events="none" display="none"/></g><g transform="translate(0,195)"><path class="background" aria-hidden="true" d="M0,0h256v11h-256Z" pointer-events="none" opacity="1"/><g><g class="mark-symbol role-legend-symbol" pointer-events="none"><path transform="translate(6,6)" d="M-5,0L5,0" stroke="#eeca3b" stroke-width="1.5" opacity="1"/></g><g class="mark-text role-legend-label" pointer-events="none"><text text-anchor="start" transform="translate(16,9)" font-family="Liberation Mono" font-size="10px" fill="#000" opacity="1">roam-disc-2-2024</text></g></g><path class="foreground" aria-hidden="true" d="" pointer-events="none" display="none"/></g></g></g><path class="foreground" aria-hidden="true" d="" pointer-events="none" display="none"/></g></g><g class="mark-text role-legend-title" pointer-events="none"><text text-anchor="start" transform="translate(0,9)" font-family="Liberation Mono" font-size="11px" font-weight="bold" fill="#000" opacity="1">identifier</text></g></g><path class="foreground" aria-hidden="true" d="" pointer-events="none" display="none"/></g></g></g><path class="foreground" aria-hidden="true" d="" display="none"/></g></g></g></svg>