<svg xmlns="http://www.w3.org/2000/svg" xmlns:xlink="http://www.w3.org/1999/xlink" version="1.1" class="marks" width="548" height="244" viewBox="0 0 548 244"><rect width="548" height="244" fill="white"/><g fill="none" stroke-miterlimit="10" transform="translate(67,7)"><g class="mark-group role-frame root" role="graphics-object" aria-roledescription="group mark container"><g transform="translate(0,0)"><path class="background" aria-hidden="true" d="M0.5,0.5h200v200h-200Z" stroke="#ddd"/><g><g class="mark-group role-axis" aria-hidden="true"><g transform="translate(0.5,200.5)"><path class="background" aria-hidden="true" d="M0,0h0v0h0Z" pointer-events="none"/><g><g class="mark-rule role-axis-grid" pointer-events="none"><line transform="translate(7,-200)" x2="0" y2="200" stroke="#ddd" stroke-width="1" opacity="1"/><line transform="translate(31,-200)" x2="0" y2="200" stroke="#ddd" stroke-width="1" opacity="1"/><line transform="translate(54,-200)" x2="0" y2="200" stroke="#ddd" stroke-width="1" opacity="1"/><line transform="translate(77,-200)" x2="0" y2="200" stroke="#ddd" stroke-width="1" opacity="1"/><line transform="translate(101,-200)" x2="0" y2="200" stroke="#ddd" stroke-width="1" opacity="1"/><line transform="translate(124,-200)" x2="0" y2="200" stroke="#ddd" stroke-width="1" opacity="1"/><line transform="translate(147,-200)" x2="0" y2="200" stroke="#ddd" stroke-width="1" opacity="1"/><line transform="translate(170,-200)" x2="0" y2="200" stroke="#ddd" stroke-width="1" opacity="1"/><line transform="translate(194,-200)" x2="0" y2="200" stroke="#ddd" stroke-width="1" opacity="1"/></g></g><path class="foreground" aria-hidden="true" d="" pointer-events="none" display="none"/></g></g><g class="mark-group role-axis" aria-hidden="true"><g transform="translate(0.5,0.5)"><path class="background" aria-hidden="true" d="M0,0h0v0h0Z" pointer-events="none"/><g><g class="mark-rule role-axis-grid" pointer-events="none"><line transform="translate(0,200)" x2="200" y2="0" stroke="#ddd" stroke-width="1" opacity="1"/><line transform="translate(0,144)" x2="200" y2="0" stroke="#ddd" stroke-width="1" opacity="1"/><line transform="translate(0,89)" x2="200" y2="0" stroke="#ddd" stroke-width="1" opacity="1"/><line transform="translate(0,33)" x2="200" y2="0" stroke="#ddd" stroke-width="1" opacity="1"/></g></g><path class="foreground" aria-hidden="true" d="" pointer-events="none" display="none"/></g></g><g class="mark-group role-axis" role="graphics-symbol" aria-roledescription="axis" aria-label="X-axis titled 'Time' for a time scale with values from Thursday, 14 August 2025, 8:34:48 AM to Sunday, 31 August 2025, 1:03:16 PM"><g transform="translate(0.5,200.5)"><path class="background" aria-hidden="true" d="M0,0h0v0h0Z" pointer-events="none"/><g><g class="mark-rule role-axis-tick" pointer-events="none"><line transform="translate(7,0)" x2="0" y2="5" stroke="#888" stroke-width="1" opacity="1"/><line transform="translate(31,0)" x2="0" y2="5" stroke="#888" stroke-width="1" opacity="1"/><line transform="translate(54,0)" x2="0" y2="5" stroke="#888" stroke-width="1" opacity="1"/><line transform="translate(77,0)" x2="0" y2="5" stroke="#888" stroke-width="1" opacity="1"/><line transform="translate(101,0)" x2="0" y2="5" stroke="#888" stroke-width="1" opacity="1"/><line transform="translate(124,0)" x2="0" y2="5" stroke="#888" stroke-width="1" opacity="1"/><line transform="translate(147,0)" x2="0" y2="5" stroke="#888" stroke-width="1" opacity="1"/><line transform="translate(170,0)" x2="0" y2="5" stroke="#888" stroke-width="1" opacity="1"/><line transform="translate(194,0)" x2="0" y2="5" stroke="#888" stroke-width="1" opacity="1"/></g><g class="mark-text role-axis-label" pointer-events="none"><text text-anchor="middle" transform="translate(7.476726763594672,15)" font-family="Liberation Mono" font-size="10px" fill="#000" opacity="1">Fri 15</text><text text-anchor="middle" transform="translate(30.750900937659033,15)" font-family="Liberation Mono" font-size="10px" fill="#000" opacity="0">Aug 17</text><text text-anchor="middle" transform="translate(54.025075111723396,15)" font-family="Liberation Mono" font-size="10px" fill="#000" opacity="0">Tue 19</text><text text-anchor="middle" transform="translate(77.29924928578775,15)" font-family="Liberation Mono" font-size="10px" fill="#000" opacity="0">Thu 21</text><text text-anchor="middle" transform="translate(100.57342345985212,15)" font-family="Liberation Mono" font-size="10px" fill="#000" opacity="1">Sat 23</text><text text-anchor="middle" transform="translate(123.84759763391648,15)" font-family="Liberation Mono" font-size="10px" fill="#000" opacity="0">Mon 25</text><text text-anchor="middle" transform="translate(147.12177180798082,15)" font-family="Liberation Mono" font-size="10px" fill="#000" opacity="0">Wed 27</text><text text-anchor="middle" transform="translate(170.3959459820452,15)" font-family="Liberation Mono" font-size="10px" fill="#000" opacity="0">Fri 29</text><text text-anchor="middle" transform="translate(193.67012015610956,15)" font-family="Liberation Mono" font-size="10px" fill="#000" opacity="1">Aug 31</text></g><g class="mark-rule role-axis-domain" pointer-events="none"><line transform="translate(0,0)" x2="200" y2="0" stroke="#888" stroke-width="1" opacity="1"/></g><g class="mark-text role-axis-title" pointer-events="none"><text text-anchor="middle" transform="translate(100,30)" font-family="Liberation Mono" font-size="11px" font-weight="bold" fill="#000" opacity="1">Time</text></g></g><path class="foreground" aria-hidden="true" d="" pointer-events="none" display="none"/></g></g><g class="mark-group role-axis" role="graphics-symbol" aria-roledescription="axis" aria-label="Y-axis titled 'Price' for a linear scale with values from 0 to 1,800"><g transform="translate(0.5,0.5)"><path class="background" aria-hidden="true" d="M0,0h0v0h0Z" pointer-events="none"/><g><g class="mark-rule role-axis-tick" pointer-events="none"><line transform="translate(0,200)" x2="-5" y2="0" stroke="#888" stroke-width="1" opacity="1"/><line transform="translate(0,144)" x2="-5" y2="0" stroke="#888" stroke-width="1" opacity="1"/><line transform="translate(0,89)" x2="-5" y2="0" stroke="#888" stroke-width="1" opacity="1"/><line transform="translate(0,33)" x2="-5" y2="0" stroke="#888" stroke-width="1" opacity="1"/></g><g class="mark-text role-axis-label" pointer-events="none"><text text-anchor="end" transform="translate(-7,203)" font-family="Liberation Mono" font-size="10px" fill="#000" opacity="1">0</text><text text-anchor="end" transform="translate(-7,147.44444444444443)" font-family="Liberation Mono" font-size="10px" fill="#000" opacity="1">500</text><text text-anchor="end" transform="translate(-7,91.88888888888889)" font-family="Liberation Mono" font-size="10px" fill="#000" opacity="1">1,000</text><text text-anchor="end" transform="translate(-7,36.33333333333333)" font-family="Liberation Mono" font-size="10px" fill="#000" opacity="1">1,500</text></g><g class="mark-rule role-axis-domain" pointer-events="none"><line transform="translate(0,200)" x2="0" y2="-200" stroke="#888" stroke-width="1" opacity="1"/></g><g class="mark-text role-axis-title" pointer-events="none"><text text-anchor="middle" transform="translate(-51,100) rotate(-90) translate(0,-2)" font-family="Liberation Mono" font-size="11px" font-weight="bold" fill="#000" opacity="1">Price</text></g></g><path class="foreground" aria-hidden="true" d="" pointer-events="none" display="none"/></g></g><g class="mark-group role-scope pathgroup" role="graphics-object" aria-roledescription="group mark container"><g transform="translate(0,0)"><path class="background" aria-hidden="true" d="M0,0h200v200h-200Z"/><g><g class="mark-line role-mark marks" role="graphics-object" aria-roledescription="line mark container"><path aria-label="Time: Aug 14, 2025; Price: 899; identifier: escape-city-disc-1-2024" role="graphics-symbol" aria-roledescription="line mark" d="M0,100.111L0.097,100.111L0.173,100.111L2.319,100.111L4.024,100.111L5.937,100.111L9.862,100.111L11.789,100.111L13.917,100.111L15.663,100.111L17.566,100.111L21.461,100.111L23.411,100.111L25.477,100.111L27.277,100.111L29.185,100.111L33.143,100.111L35.044,100.111L37.12,100.111L38.923,100.111L40.837,100.111L44.813,100.111L46.724,100.111L48.868,100.111L49.62,100.111L50.597,100.111L52.463,100.111L56.362,100.111L58.331,100.111L60.398,100.111L62.204,100.111L64.096,100.111L68.003,100.111L69.954,100.111L72.105,100.111L72.975,100.111L73.836,100.111L75.747,100.111L79.633,100.111L81.6,100.111L83.676,100.111L85.481,100.111L87.378,100.111L91.273,100.111L93.233,100.111L95.308,100.111L97.106,100.111L99.008,100.111L102.901,100.111L104.852,100.111L106.909,100.111L108.713,100.111L110.634,100.111L114.553,100.111L116.481,100.111L118.552,100.111L120.364,100.111L122.275,100.111L126.206,100.111L128.17,100.111L130.293,100.111L132.031,100.111L133.925,100.111L137.824,100.111L139.8,100.111L143.656,100.111L145.55,100.111L149.447,100.111L151.413,100.111L152.176,100.111L153.486,100.111L154.784,100.111L155.292,100.111L157.195,100.111L161.082,100.111L163.055,100.111L165.128,100.111L166.927,100.111L168.828,100.111L172.72,100.111L174.684,100.111L176.751,100.111L178.559,100.111L180.458,100.111L184.344,100.111L186.294,100.111L188.352,100.111L190.168,100.111L191.997,100.111L192.089,100.111L195.986,100.111L197.229,100.111L197.925,100.111L199.995,100.111" stroke="#72b7b2" stroke-width="2"/></g></g><path class="foreground" aria-hidden="true" d="" display="none"/></g><g transform="translate(0,0)"><path class="background" aria-hidden="true" d="M0,0h200v200h-200Z"/><g><g class="mark-line role-mark marks" role="graphics-object" aria-roledescription="line mark container"><path aria-label="Time: Aug 14, 2025; Price: 999; identifier: roam-2" role="graphics-symbol" aria-roledescription="line mark" d="M0,89L0.097,89L0.173,89L2.319,89L4.024,89L5.937,89L9.862,89L11.789,89L13.917,89L15.663,89L17.566,89L21.462,89L23.411,89L25.477,89L27.277,89L29.204,89L33.143,89L35.044,89L37.12,89L38.923,89L40.838,89L44.813,89L46.724,89L48.868,89L49.62,89L50.597,89L52.464,89L56.362,89L58.332,89L60.399,89L62.204,89L64.096,89L68.003,89L69.954,89L72.105,89L72.976,89L73.837,89L75.747,89L79.633,89L81.6,89L83.676,89L85.482,89L87.378,89L91.274,89L93.234,89L95.309,89L97.107,89L99.009,89L102.902,89L104.853,89L106.91,89L108.713,89L110.634,89L114.553,89L116.482,89L118.553,89L120.365,89L122.275,89L126.207,89L128.17,89L130.294,89L132.031,89L133.926,89L137.825,89L139.8,89L143.657,89L145.551,89L149.447,89L151.414,89L152.177,89L153.486,89L154.784,89L155.292,89L157.196,89L161.082,89L163.056,89L165.128,89L166.927,89L168.829,89L172.72,89L174.685,89L176.752,89L178.56,89L180.459,89L184.344,89L186.294,89L188.353,89L190.169,89L191.998,89L192.089,89L195.986,89L197.229,89L197.926,89L199.996,89" stroke="#ff9da6" stroke-width="2"/></g></g><path class="foreground" aria-hidden="true" d="" display="none"/></g><g transform="translate(0,0)"><path class="background" aria-hidden="true" d="M0,0h200v200h-200Z"/><g><g class="mark-line role-mark marks" role="graphics-object" aria-roledescription="line mark container"><path aria-label="Time: Aug 14, 2025; Price: 999; identifier: fastroad-sl-3-2022" role="graphics-symbol" aria-roledescription="line mark" d="M0.001,89L0.097,89L0.173,89L2.319,89L4.024,89L5.937,89L9.862,89L11.789,89L13.918,89L15.663,89L17.567,89L21.462,89L23.412,89L25.478,89L27.278,89L29.204,89L33.143,89L35.045,89L37.12,89L38.923,89L40.838,89L44.814,89L46.725,89L48.868,89L49.621,89L50.598,89L52.464,89L56.362,89L58.332,89L60.399,89L62.204,89L64.097,89L68.003,89L69.954,89L72.105,89L72.976,89L73.837,89L75.748,89L79.634,89L81.6,89L83.677,89L85.482,89L87.378,89L91.274,89L93.234,89L95.309,89L97.107,89L99.009,89L102.902,89L104.853,89L106.91,89L108.713,89L110.635,89L114.553,89L116.482,89L118.553,89L120.365,89L122.275,89L126.207,89L128.171,89L130.294,89L132.031,89L133.926,89L137.825,89L139.8,89L143.657,89L145.551,89L149.448,89L151.414,89L152.178,89L153.487,89L154.784,89L155.293,89L157.196,89L161.083,89L163.056,89L165.129,89L166.928,89L168.829,89L172.72,89L174.685,89L176.752,89L178.56,89L180.459,89L184.344,89L186.294,89L188.353,89L190.169,89L191.999,89L192.089,89L195.986,89L197.229,89L197.926,89L199.996,89" stroke="#9d755d" stroke-width="2"/></g></g><path class="foreground" aria-hidden="true" d="" display="none"/></g><g transform="translate(0,0)"><path class="background" aria-hidden="true" d="M0,0h200v200h-200Z"/><g><g class="mark-line role-mark marks" role="graphics-object" aria-roledescription="line mark container"><path aria-label="Time: Aug 14, 2025; Price: 1199; identifier: fastroad-ar-2" role="graphics-symbol" aria-roledescription="line mark" d="M0.001,66.778L0.097,66.778L0.174,66.778L2.319,66.778L4.025,66.778L5.937,66.778L9.863,66.778L11.79,66.778L13.918,66.778L15.663,66.778L17.567,66.778L21.462,66.778L23.412,66.778L25.478,66.778L27.278,66.778L29.213,66.778L33.144,66.778L35.045,66.778L37.12,66.778L38.923,66.778L40.838,66.778L44.814,66.778L46.725,66.778L48.869,66.778L49.621,66.778L50.598,66.778L52.464,66.778L56.363,66.778L58.332,66.778L60.399,66.778L62.205,66.778L64.097,66.778L68.004,66.778L69.954,66.778L72.106,66.778L72.976,66.778L73.838,66.778L75.748,66.778L79.634,66.778L81.601,66.778L83.677,66.778L85.482,66.778L87.379,66.778L91.274,66.778L93.234,66.778L95.309,66.778L97.107,66.778L99.009,66.778L102.903,66.778L104.853,66.778L106.91,66.778L108.714,66.778L110.635,66.778L114.554,66.778L116.483,66.778L118.553,66.778L120.365,66.778L122.276,66.778L126.207,66.778L128.171,66.778L130.294,66.778L132.032,66.778L133.926,66.778L137.826,66.778L139.801,66.778L143.658,66.778L145.551,66.778L149.448,66.778L151.414,66.778L152.178,66.778L153.487,66.778L154.784,66.778L155.293,66.778L157.197,66.778L161.083,66.778L163.056,66.778L165.129,66.778L166.928,66.778L168.829,66.778L172.721,66.778L174.685,66.778L176.752,66.778L178.56,66.778L180.46,66.778L184.345,66.778L186.295,66.778L188.354,66.778L190.169,66.778L191.999,66.778L192.09,66.778L195.987,66.778L197.229,66.778L197.927,66.778L199.996,66.778" stroke="#54a24b" stroke-width="2"/></g></g><path class="foreground" aria-hidden="true" d="" display="none"/></g><g transform="translate(0,0)"><path class="background" aria-hidden="true" d="M0,0h200v200h-200Z"/><g><g class="mark-line role-mark marks" role="graphics-object" aria-roledescription="line mark container"><path aria-label="Time: Aug 18, 2025; Price: 899; identifier: sdrbike-escape-1-city-disc" role="graphics-symbol" aria-roledescription="line mark" d="M49.621,100.111L50.598,100.111L52.464,100.111L56.363,100.111L58.333,100.111L60.4,100.111L62.205,100.111L64.097,100.111L68.004,100.111L69.955,100.111L72.106,100.111L72.977,100.111L73.838,100.111L75.748,100.111L79.634,100.111L81.601,100.111L83.677,100.111L85.483,100.111L87.379,100.111L91.274,100.111L93.235,100.111L95.31,100.111L97.108,100.111L99.01,100.111L102.903,100.111L104.854,100.111L106.911,100.111L108.714,100.111L110.635,100.111L114.554,100.111L116.483,100.111L118.554,100.111L120.366,100.111L122.276,100.111L126.208,100.111L128.171,100.111L130.294,100.111L132.032,100.111L133.926,100.111L137.827,100.111L139.801,100.111L143.658,100.111L145.551,100.111L149.448,100.111L151.415,100.111L152.179,100.111L153.487,100.111L154.785,100.111L155.293,100.111L157.197,100.111L161.083,100.111L163.057,100.111L165.13,100.111L166.928,100.111L168.829,100.111L172.721,100.111L174.686,100.111L176.753,100.111L178.561,100.111L180.46,100.111L184.345,100.111L186.295,100.111L188.354,100.111L190.169,100.111L191.999,100.111L192.09,100.111L195.987,100.111L197.23,100.111L197.927,100.111L199.997,100.111" stroke="#54a24b" stroke-width="2"/></g></g><path class="foreground" aria-hidden="true" d="" display="none"/></g><g transform="translate(0,0)"><path class="background" aria-hidden="true" d="M0,0h200v200h-200Z"/><g><g class="mark-line role-mark marks" role="graphics-object" aria-roledescription="line mark container"><path aria-label="Time: Aug 20, 2025; Price: 899; identifier: roam-disc-2-2024" role="graphics-symbol" aria-roledescription="line mark" d="M72.975,100.111L73.837,100.111L75.747,100.111L79.633,100.111L81.6,100.111L83.676,100.111L85.482,100.111L87.378,100.111L91.273,100.111L93.234,100.111L95.308,100.111L97.107,100.111L99.009,100.111L102.902,100.111L104.852,100.111L106.909,100.111L108.713,100.111L110.634,100.111L114.553,100.111L116.481,100.111L118.553,100.111L120.365,100.111L122.275,100.111L126.206,100.111L128.17,100.111L130.293,100.111L132.031,100.111L133.925,100.111L137.824,100.111L139.8,100.111L143.657,100.111L145.55,100.111L149.447,100.111L151.413,100.111L152.177,100.111L153.486,100.111L154.784,100.111L155.292,100.111L157.196,100.111L161.082,100.111L163.055,100.111L165.128,100.111L166.927,100.111L168.828,100.111L172.72,100.111L174.684,100.111L176.751,100.111L178.56,100.111L180.459,100.111L184.344,100.111L186.294,100.111L188.353,100.111L190.168,100.111L191.998,100.111L192.089,100.111L195.986,100.111L197.229,100.111L197.926,100.111L199.995,100.111" stroke="#eeca3b" stroke-width="2"/></g></g><path class="foreground" aria-hidden="true" d="" display="none"/></g><g transform="translate(0,0)"><path class="background" aria-hidden="true" d="M0,0h200v200h-200Z"/><g><g class="mark-line role-mark marks" role="graphics-object" aria-roledescription="line mark container"><path aria-label="Time: Aug 20, 2025; Price: 1199; identifier: thrive-2" role="graphics-symbol" aria-roledescription="line mark" d="M72.977,66.778L73.838,66.778L75.749,66.778L79.634,66.778L81.601,66.778L83.678,66.778L85.483,66.778L87.379,66.778L91.275,66.778L93.235,66.778L95.31,66.778L97.108,66.778L99.01,66.778L102.903,66.778L104.854,66.778L106.911,66.778L108.714,66.778L110.635,66.778L114.555,66.778L116.483,66.778L118.555,66.778L120.366,66.778L122.276,66.778L126.208,66.778L128.172,66.778L130.295,66.778L132.032,66.778L133.927,66.778L137.827,66.778L139.801,66.778L143.658,66.778L145.552,66.778L149.449,66.778L151.415,66.778L152.18,66.778L153.488,66.778L154.785,66.778L155.293,66.778L157.197,66.778L161.084,66.778L163.057,66.778L165.13,66.778L166.928,66.778L168.83,66.778L172.721,66.778L174.686,66.778L176.753,66.778L178.561,66.778L180.46,66.778L184.345,66.778L186.295,66.778L188.354,66.778L190.17,66.778L192,66.778L192.09,66.778L195.987,66.778L197.23,66.778L197.927,66.778L199.997,66.778" stroke="#eeca3b" stroke-width="2"/></g></g><path class="foreground" aria-hidden="true" d="" display="none"/></g><g transform="translate(0,0)"><path class="background" aria-hidden="true" d="M0,0h200v200h-200Z"/><g><g class="mark-line role-mark marks" role="graphics-object" aria-roledescription="line mark container"><path aria-label="Time: Aug 20, 2025; Price: 999; identifier: rove-2" role="graphics-symbol" aria-roledescription="line mark" d="M72.977,89L73.839,89L75.749,89L79.634,89L81.602,89L83.678,89L85.483,89L87.38,89L91.275,89L93.235,89L95.31,89L97.108,89L99.01,89L102.904,89L104.854,89L106.911,89L108.715,89L110.636,89L114.555,89L116.484,89L118.555,89L120.366,89L122.276,89L126.208,89L128.172,89L130.295,89L132.033,89L133.927,89L137.827,89L139.802,89L143.659,89L145.552,89L149.449,89L151.415,89L152.18,89L153.488,89L154.785,89L155.294,89L157.198,89L161.084,89L163.057,89L165.13,89L166.929,89L168.83,89L172.722,89L174.686,89L176.753,89L178.561,89L180.461,89L192,111.222L192.09,111.222L195.987,111.222L197.23,111.222L197.928,111.222L199.997,111.222" stroke="#bab0ac" stroke-width="2"/></g></g><path class="foreground" aria-hidden="true" d="" display="none"/></g><g transform="translate(0,0)"><path class="background" aria-hidden="true" d="M0,0h200v200h-200Z"/><g><g class="mark-line role-mark marks" role="graphics-object" aria-roledescription="line mark container"><path aria-label="Time: Aug 27, 2025; Price: 1199; identifier: allure-rs-1-2023" role="graphics-symbol" aria-roledescription="line mark" d="M152.181,66.778L153.488,66.778L154.785,66.778L155.294,66.778L157.198,66.778L161.084,66.778L163.057,66.778L165.13,66.778L166.929,66.778L168.83,66.778L172.722,66.778L174.686,66.778L176.754,66.778L178.561,66.778L180.461,66.778L184.346,66.778L186.296,66.778L188.355,66.778L190.17,66.778L192,66.778L192.09,66.778L195.988,66.778L197.23,66.778L197.928,66.778L199.997,66.778" stroke="#b279a2" stroke-width="2"/></g></g><path class="foreground" aria-hidden="true" d="" display="none"/></g><g transform="translate(0,0)"><path class="background" aria-hidden="true" d="M0,0h200v200h-200Z"/><g><g class="mark-line role-mark marks" role="graphics-object" aria-roledescription="line mark container"><path aria-label="Time: Aug 27, 2025; Price: 999; identifier: allure-rs-2-2022" role="graphics-symbol" aria-roledescription="line mark" d="M152.182,89L153.488,89L154.786,89L155.294,89L157.198,89L161.084,89L163.058,89L165.131,89L166.929,89L168.83,89L172.722,89L174.687,89L176.754,89L178.561,89L180.461,89L192.001,111.222L192.091,111.222L195.988,111.222L197.231,111.222L197.928,111.222L199.998,111.222" stroke="#4c78a8" stroke-width="2"/></g></g><path class="foreground" aria-hidden="true" d="" display="none"/></g><g transform="translate(0,0)"><path class="background" aria-hidden="true" d="M0,0h200v200h-200Z"/><g><g class="mark-line role-mark marks" role="graphics-object" aria-roledescription="line mark container"><path aria-label="Time: Aug 27, 2025; Price: 949; identifier: allure-rs-2-2023" role="graphics-symbol" aria-roledescription="line mark" d="M152.182,94.556L153.488,94.556L154.786,94.556L155.294,94.556L157.199,94.556L161.085,94.556L163.058,94.556L165.131,94.556L166.929,94.556L168.831,94.556L172.722,94.556L174.687,94.556L176.754,94.556L178.562,94.556L180.462,94.556L184.346,94.556L186.296,94.556L188.356,94.556L190.17,94.556L192.001,94.556L192.091,94.556L195.988,94.556L197.231,94.556L197.929,94.556L199.998,94.556" stroke="#e45756" stroke-width="2"/></g></g><path class="foreground" aria-hidden="true" d="" display="none"/></g><g transform="translate(0,0)"><path class="background" aria-hidden="true" d="M0,0h200v200h-200Z"/><g><g class="mark-line role-mark marks" role="graphics-object" aria-roledescription="line mark container"><path aria-label="Time: Aug 27, 2025; Price: 999; identifier: allure-rs-2-2024" role="graphics-symbol" aria-roledescription="line mark" d="M152.183,89L153.489,89L154.786,89L155.294,89L157.199,89L161.085,89L163.058,89L165.131,89L166.93,89L168.831,89L172.723,89L174.687,89L176.754,89L178.562,89L180.462,89L192.001,111.222L192.091,111.222L195.988,111.222L197.231,111.222L197.929,111.222L199.998,111.222" stroke="#f58518" stroke-width="2"/></g></g><path class="foreground" aria-hidden="true" d="" display="none"/></g><g transform="translate(0,0)"><path class="background" aria-hidden="true" d="M0,0h200v200h-200Z"/><g><g class="mark-line role-mark marks" role="graphics-object" aria-roledescription="line mark container"><path aria-label="Time: Aug 27, 2025; Price: 1799; identifier: devote-1-2024" role="graphics-symbol" aria-roledescription="line mark" d="M154.786,0.111L155.295,0.111L157.199,0.111L161.085,0.111L163.059,0.111L165.131,0.111L166.93,0.111L168.831,0.111L172.723,0.111L174.687,0.111L176.755,0.111L178.562,0.111L180.462,0.111L192.001,44.556L192.091,44.556L195.989,44.556L197.231,44.556L197.929,44.556L199.999,44.556" stroke="#4c78a8" stroke-width="2"/></g></g><path class="foreground" aria-hidden="true" d="" display="none"/></g><g transform="translate(0,0)"><path class="background" aria-hidden="true" d="M0,0h200v200h-200Z"/><g><g class="mark-line role-mark marks" role="graphics-object" aria-roledescription="line mark container"><path aria-label="Time: Aug 27, 2025; Price: 1699; identifier: devote-1-2022" role="graphics-symbol" aria-roledescription="line mark" d="M154.786,11.222L155.295,11.222L157.199,11.222L161.086,11.222L163.059,11.222L165.132,11.222L166.93,11.222L168.831,11.222L172.723,11.222L174.688,11.222L176.755,11.222L178.562,11.222L180.462,11.222L184.347,11.222L186.297,11.222L188.357,11.222L190.171,11.222L192.002,11.222L192.091,11.222L195.989,11.222L197.231,11.222L197.929,11.222L199.999,11.222" stroke="#f58518" stroke-width="2"/></g></g><path class="foreground" aria-hidden="true" d="" display="none"/></g><g transform="translate(0,0)"><path class="background" aria-hidden="true" d="M0,0h200v200h-200Z"/><g><g class="mark-line role-mark marks" role="graphics-object" aria-roledescription="line mark container"><path aria-label="Time: Aug 31, 2025; Price: 1599; identifier: silex-400-oak-bork-2026" role="graphics-symbol" aria-roledescription="line mark" d="M197.232,22.333L197.93,22.333L200,22.333" stroke="#e45756" stroke-width="2"/></g></g><path class="foreground" aria-hidden="true" d="" display="none"/></g><g transform="translate(0,0)"><path class="background" aria-hidden="true" d="M0,0h200v200h-200Z"/><g><g class="mark-line role-mark marks" role="graphics-object" aria-roledescription="line mark container"><path aria-label="Time: Aug 31, 2025; Price: 1599; identifier: silex-400-warm-slate-grey-2026" role="graphics-symbol" aria-roledescription="line mark" d="M197.232,22.333L197.93,22.333L200,22.333" stroke="#72b7b2" stroke-width="2"/></g></g><path class="foreground" aria-hidden="true" d="" display="none"/></g></g><g class="mark-group role-legend" role="graphics-symbol" aria-roledescription="legend" aria-label="Symbol legend titled 'identifier' for stroke color with 16 values: devote-1-2024, devote-1-2022, silex-400-oak-bork-2026, silex-400-warm-slate-grey-2026, fastroad-ar-2, ending with roam-disc-2-2024"><g transform="translate(220,0)"><path class="background" aria-hidden="true" d="M0,0h256v222h-256Z" pointer-events="none"/><g><g class="mark-group role-legend-entry"><g transform="translate(0,16)"><path class="background" aria-hidden="true" d="M0,0h0v0h0Z" pointer-events="none"/><g><g class="mark-group role-scope" role="graphics-object" aria-roledescription="group mark container"><g transform="translate(0,0)"><path class="background" aria-hidden="true" d="M0,0h256v11h-256Z" pointer-events="none" opacity="1"/><g><g class="mark-symbol role-legend-symbol" pointer-events="none"><path transform="translate(6,6)" d="M-5,0L5,0" stroke="#4c78a8" stroke-width="1.5" opacity="1"/></g><g class="mark-text role-legend-label" pointer-events="none"><text text-anchor="start" transform="translate(16,9)" font-family="Liberation Mono" font-size="10px" fill="#000" opacity="1">devote-1-2024</text></g></g><path class="foreground" aria-hidden="true" d="" pointer-events="none" display="none"/></g><g transform="translate(0,13)"><path class="background" aria-hidden="true" d="M0,0h256v11h-256Z" pointer-events="none" opacity="1"/><g><g class="mark-symbol role-legend-symbol" pointer-events="none"><path transform="translate(6,6)" d="M-5,0L5,0" stroke="#f58518" stroke-width="1.5" opacity="1"/></g><g class="mark-text role-legend-label" pointer-events="none"><text text-anchor="start" transform="translate(16,9)" font-family="Liberation Mono" font-size="10px" fill="#000" opacity="1">devote-1-2022</text></g></g><path class="foreground" aria-hidden="true" d="" pointer-events="none" display="none"/></g><g transform="translate(0,26)"><path class="background" aria-hidden="true" d="M0,0h256v11h-256Z" pointer-events="none" opacity="1"/><g><g class="mark-symbol role-legend-symbol" pointer-events="none"><path transform="translate(6,6)" d="M-5,0L5,0" stroke="#e45756" stroke-width="1.5" opacity="1"/></g><g class="mark-text role-legend-label" pointer-events="none"><text text-anchor="start" transform="translate(16,9)" font-family="Liberation Mono" font-size="10px" fill="#000" opacity="1">silex-400-oak-bork-2026</text></g></g><path class="foreground" aria-hidden="true" d="" pointer-events="none" display="none"/></g><g transform="translate(0,39)"><path class="background" aria-hidden="true" d="M0,0h256v11h-256Z" pointer-events="none" opacity="1"/><g><g class="mark-symbol role-legend-symbol" pointer-events="none"><path transform="translate(6,6)" d="M-5,0L5,0" stroke="#72b7b2" stroke-width="1.5" opacity="1"/></g><g class="mark-text role-legend-label" pointer-events="none"><text text-anchor="start" transform="translate(16,9)" font-family="Liberation Mono" font-size="10px" fill="#000" opacity="1">silex-400-warm-slate-grey-2026</text></g></g><path class="foreground" aria-hidden="true" d="" pointer-events="none" display="none"/></g><g transform="translate(0,52)"><path class="background" aria-hidden="true" d="M0,0h256v11h-256Z" pointer-events="none" opacity="1"/><g><g class="mark-symbol role-legend-symbol" pointer-events="none"><path transform="translate(6,6)" d="M-5,0L5,0" stroke="#54a24b" stroke-width="1.5" opacity="1"/></g><g class="mark-text role-legend-label" pointer-events="none"><text text-anchor="start" transform="translate(16,9)" font-family="Liberation Mono" font-size="10px" fill="#000" opacity="1">fastroad-ar-2</text></g></g><path class="foreground" aria-hidden="true" d="" pointer-events="none" display="none"/></g><g transform="translate(0,65)"><path class="background" aria-hidden="true" d="M0,0h256v11h-256Z" pointer-events="none" opacity="1"/><g><g class="mark-symbol role-legend-symbol" pointer-events="none"><path transform="translate(6,6)" d="M-5,0L5,0" stroke="#eeca3b" stroke-width="1.5" opacity="1"/></g><g class="mark-text role-legend-label" pointer-events="none"><text text-anchor="start" transform="translate(16,9)" font-family="Liberation Mono" font-size="10px" fill="#000" opacity="1">thrive-2</text></g></g><path class="foreground" aria-hidden="true" d="" pointer-events="none" display="none"/></g><g transform="translate(0,78)"><path class="background" aria-hidden="true" d="M0,0h256v11h-256Z" pointer-events="none" opacity="1"/><g><g class="mark-symbol role-legend-symbol" pointer-events="none"><path transform="translate(6,6)" d="M-5,0L5,0" stroke="#b279a2" stroke-width="1.5" opacity="1"/></g><g class="mark-text role-legend-label" pointer-events="none"><text text-anchor="start" transform="translate(16,9)" font-family="Liberation Mono" font-size="10px" fill="#000" opacity="1">allure-rs-1-2023</text></g></g><path class="foreground" aria-hidden="true" d="" pointer-events="none" display="none"/></g><g transform="translate(0,91)"><path class="background" aria-hidden="true" d="M0,0h256v11h-256Z" pointer-events="none" opacity="1"/><g><g class="mark-symbol role-legend-symbol" pointer-events="none"><path transform="translate(6,6)" d="M-5,0L5,0" stroke="#ff9da6" stroke-width="1.5" opacity="1"/></g><g class="mark-text role-legend-label" pointer-events="none"><text text-anchor="start" transform="translate(16,9)" font-family="Liberation Mono" font-size="10px" fill="#000" opacity="1">roam-2</text></g></g><path class="foreground" aria-hidden="true" d="" pointer-events="none" display="none"/></g><g transform="translate(0,104)"><path class="background" aria-hidden="true" d="M0,0h256v11h-256Z" pointer-events="none" opacity="1"/><g><g class="mark-symbol role-legend-symbol" pointer-events="none"><path transform="translate(6,6)" d="M-5,0L5,0" stroke="#9d755d" stroke-width="1.5" opacity="1"/></g><g class="mark-text role-legend-label" pointer-events="none"><text text-anchor="start" transform="translate(16,9)" font-family="Liberation Mono" font-size="10px" fill="#000" opacity="1">fastroad-sl-3-2022</text></g></g><path class="foreground" aria-hidden="true" d="" pointer-events="none" display="none"/></g><g transform="translate(0,117)"><path class="background" aria-hidden="true" d="M0,0h256v11h-256Z" pointer-events="none" opacity="1"/><g><g class="mark-symbol role-legend-symbol" pointer-events="none"><path transform="translate(6,6)" d="M-5,0L5,0" stroke="#bab0ac" stroke-width="1.5" opacity="1"/></g><g class="mark-text role-legend-label" pointer-events="none"><text text-anchor="start" transform="translate(16,9)" font-family="Liberation Mono" font-size="10px" fill="#000" opacity="1">rove-2</text></g></g><path class="foreground" aria-hidden="true" d="" pointer-events="none" display="none"/></g><g transform="translate(0,130)"><path class="background" aria-hidden="true" d="M0,0h256v11h-256Z" pointer-events="none" opacity="1"/><g><g class="mark-symbol role-legend-symbol" pointer-events="none"><path transform="translate(6,6)" d="M-5,0L5,0" stroke="#4c78a8" stroke-width="1.5" opacity="1"/></g><g class="mark-text role-legend-label" pointer-events="none"><text text-anchor="start" transform="translate(16,9)" font-family="Liberation Mono" font-size="10px" fill="#000" opacity="1">allure-rs-2-2022</text></g></g><path class="foreground" aria-hidden="true" d="" pointer-events="none" display="none"/></g><g transform="translate(0,143)"><path class="background" aria-hidden="true" d="M0,0h256v11h-256Z" pointer-events="none" opacity="1"/><g><g class="mark-symbol role-legend-symbol" pointer-events="none"><path transform="translate(6,6)" d="M-5,0L5,0" stroke="#f58518" stroke-width="1.5" opacity="1"/></g><g class="mark-text role-legend-label" pointer-events="none"><text text-anchor="start" transform="translate(16,9)" font-family="Liberation Mono" font-size="10px" fill="#000" opacity="1">allure-rs-2-2024</text></g></g><path class="foreground" aria-hidden="true" d="" pointer-events="none" display="none"/></g><g transform="translate(0,156)"><path class="background" aria-hidden="true" d="M0,0h256v11h-256Z" pointer-events="none" opacity="1"/><g><g class="mark-symbol role-legend-symbol" pointer-events="none"><path transform="translate(6,6)" d="M-5,0L5,0" stroke="#e45756" stroke-width="1.5" opacity="1"/></g><g class="mark-text role-legend-label" pointer-events="none"><text text-anchor="start" transform="translate(16,9)" font-family="Liberation Mono" font-size="10px" fill="#000" opacity="1">allure-rs-2-2023</text></g></g><path class="foreground" aria-hidden="true" d="" pointer-events="none" display="none"/></g><g transform="translate(0,169)"><path class="background" aria-hidden="true" d="M0,0h256v11h-256Z" pointer-events="none" opacity="1"/><g><g class="mark-symbol role-legend-symbol" pointer-events="none"><path transform="translate(6,6)" d="M-5,0L5,0" stroke="#72b7b2" stroke-width="1.5" opacity="1"/></g><g class="mark-text role-legend-label" pointer-events="none"><text text-anchor="start" transform="translate(16,9)" font-family="Liberation Mono" font-size="10px" fill="#000" opacity="1">escape-city-disc-1-2024</text></g></g><path class="foreground" aria-hidden="true" d="" pointer-events="none" display="none"/></g><g transform="translate(0,182)"><path class="background" aria-hidden="true" d="M0,0h256v11h-256Z" pointer-events="none" opacity="1"/><g><g class="mark-symbol role-legend-symbol" pointer-events="none"><path transform="translate(6,6)" d="M-5,0L5,0" stroke="#54a24b" stroke-width="1.5" opacity="1"/></g><g class="mark-text role-legend-label" pointer-events="none"><text text-anchor="start" transform="translate(16,9)" font-family="Liberation Mono" font-size="10px" fill="#000" opacity="1">sdrbike-escape-1-city-disc</text></g></g><path class="foreground" aria-hidden="true" d="" pointer-events="none" display="none"/></g><g transform="translate(0,195)"><path class="background" aria-hidden="true" d="M0,0h256v11h-256Z" pointer-events="none" opacity="1"/><g><g class="mark-symbol role-legend-symbol" pointer-events="none"><path transform="translate(6,6)" d="M-5,0L5,0" stroke="#eeca3b" stroke-width="1.5" opacity="1"/></g><g class="mark-text role-legend-label" pointer-events="none"><text text-anchor="start" transform="translate(16,9)" font-family="Liberation Mono" font-size="10px" fill="#000" opacity="1">roam-disc-2-2024</text></g></g><path class="foreground" aria-hidden="true" d="" pointer-events="none" display="none"/></g></g></g><path class="foreground" aria-hidden="true" d="" pointer-events="none" display="none"/></g></g><g class="mark-text role-legend-title" pointer-events="none"><text text-anchor="start" transform="translate(0,9)" font-family="Liberation Mono" font-size="11px" font-weight="bold" fill="#000" opacity="1">identifier</text></g></g><path class="foreground" aria-hidden="true" d="" pointer-events="none" display="none"/></g></g></g><path class="foreground" aria-hidden="true" d="" display="none"/></g></g></g></svg>