<svg xmlns="http://www.w3.org/2000/svg" xmlns:xlink="http://www.w3.org/1999/xlink" version="1.1" class="marks" width="548" height="244" viewBox="0 0 548 244"><rect width="548" height="244" fill="white"/><g fill="none" stroke-miterlimit="10" transform="translate(67,7)"><g class="mark-group role-frame root" role="graphics-object" aria-roledescription="group mark container"><g transform="translate(0,0)"><path class="background" aria-hidden="true" d="M0.5,0.5h200v200h-200Z" stroke="#ddd"/><g><g class="mark-group role-axis" aria-hidden="true"><g transform="translate(0.5,200.5)"><path class="background" aria-hidden="true" d="M0,0h0v0h0Z" pointer-events="none"/><g><g class="mark-rule role-axis-grid" pointer-events="none"><line transform="translate(48,-200)" x2="0" y2="200" stroke="#ddd" stroke-width="1" opacity="1"/><line transform="translate(131,-200)" x2="0" y2="200" stroke="#ddd" stroke-width="1" opacity="1"/></g></g><path class="foreground" aria-hidden="true" d="" pointer-events="none" display="none"/></g></g><g class="mark-group role-axis" aria-hidden="true"><g transform="translate(0.5,0.5)"><path class="background" aria-hidden="true" d="M0,0h0v0h0Z" pointer-events="none"/><g><g class="mark-rule role-axis-grid" pointer-events="none"><line transform="translate(0,200)" x2="200" y2="0" stroke="#ddd" stroke-width="1" opacity="1"/><line transform="translate(0,144)" x2="200" y2="0" stroke="#ddd" stroke-width="1" opacity="1"/><line transform="translate(0,89)" x2="200" y2="0" stroke="#ddd" stroke-width="1" opacity="1"/><line transform="translate(0,33)" x2="200" y2="0" stroke="#ddd" stroke-width="1" opacity="1"/></g></g><path class="foreground" aria-hidden="true" d="" pointer-events="none" display="none"/></g></g><g class="mark-group role-axis" role="graphics-symbol" aria-roledescription="axis" aria-label="X-axis titled 'Time' for a time scale with values from Thursday, 14 August 2025, 8:34:48 AM to Sunday, 26 October 2025, 8:47:56 AM"><g transform="translate(0.5,200.5)"><path class="background" aria-hidden="true" d="M0,0h0v0h0Z" pointer-events="none"/><g><g class="mark-rule role-axis-tick" pointer-events="none"><line transform="translate(48,0)" x2="0" y2="5" stroke="#888" stroke-width="1" opacity="1"/><line transform="translate(131,0)" x2="0" y2="5" stroke="#888" stroke-width="1" opacity="1"/></g><g class="mark-text role-axis-label" pointer-events="none"><text text-anchor="middle" transform="translate(48.32955284354044,15)" font-family="Liberation Mono" font-size="10px" fill="#000" opacity="1">September</text><text text-anchor="middle" transform="translate(130.51106359560265,15)" font-family="Liberation Mono" font-size="10px" fill="#000" opacity="1">October</text></g><g class="mark-rule role-axis-domain" pointer-events="none"><line transform="translate(0,0)" x2="200" y2="0" stroke="#888" stroke-width="1" opacity="1"/></g><g class="mark-text role-axis-title" pointer-events="none"><text text-anchor="middle" transform="translate(100,30)" font-family="Liberation Mono" font-size="11px" font-weight="bold" fill="#000" opacity="1">Time</text></g></g><path class="foreground" aria-hidden="true" d="" pointer-events="none" display="none"/></g></g><g class="mark-group role-axis" role="graphics-symbol" aria-roledescription="axis" aria-label="Y-axis titled 'Price' for a linear scale with values from 0 to 1,800"><g transform="translate(0.5,0.5)"><path class="background" aria-hidden="true" d="M0,0h0v0h0Z" pointer-events="none"/><g><g class="mark-rule role-axis-tick" pointer-events="none"><line transform="translate(0,200)" x2="-5" y2="0" stroke="#888" stroke-width="1" opacity="1"/><line transform="translate(0,144)" x2="-5" y2="0" stroke="#888" stroke-width="1" opacity="1"/><line transform="translate(0,89)" x2="-5" y2="0" stroke="#888" stroke-width="1" opacity="1"/><line transform="translate(0,33)" x2="-5" y2="0" stroke="#888" stroke-width="1" opacity="1"/></g><g class="mark-text role-axis-label" pointer-events="none"><text text-anchor="end" transform="translate(-7,203)" font-family="Liberation Mono" font-size="10px" fill="#000" opacity="1">0</text><text text-anchor="end" transform="translate(-7,147.44444444444443)" font-family="Liberation Mono" font-size="10px" fill="#000" opacity="1">500</text><text text-anchor="end" transform="translate(-7,91.88888888888889)" font-family="Liberation Mono" font-size="10px" fill="#000" opacity="1">1,000</text><text text-anchor="end" transform="translate(-7,36.33333333333333)" font-family="Liberation Mono" font-size="10px" fill="#000" opacity="1">1,500</text></g><g class="mark-rule role-axis-domain" pointer-events="none"><line transform="translate(0,200)" x2="0" y2="-200" stroke="#888" stroke-width="1" opacity="1"/></g><g class="mark-text role-axis-title" pointer-events="none"><text text-anchor="middle" transform="translate(-51,100) rotate(-90) translate(0,-2)" font-family="Liberation Mono" font-size="11px" font-weight="bold" fill="#000" opacity="1">Price</text></g></g><path class="foreground" aria-hidden="true" d="" pointer-events="none" display="none"/></g></g><g class="mark-group role-scope pathgroup" role="graphics-object" aria-roledescription="group mark container"><g transform="translate(0,0)"><path class="background" aria-hidden="true" d="M0,0h200v200h-200Z"/><g><g class="mark-line role-mark marks" role="graphics-object" aria-roledescription="line mark container"><path aria-label="Time: Aug 14, 2025; Price: 899; identifier: escape-city-disc-1-2024" role="graphics-symbol" aria-roledescription="line mark" d="M0,100.111L0.023,100.111L0.041,100.111L0.546,100.111L0.947,100.111L1.398,100.111L2.321,100.111L2.775,100.111L3.276,100.111L3.687,100.111L4.135,100.111L5.052,100.111L5.511,100.111L5.997,100.111L6.421,100.111L6.87,100.111L7.802,100.111L8.249,100.111L8.738,100.111L9.162,100.111L9.613,100.111L10.549,100.111L10.999,100.111L11.504,100.111L11.681,100.111L11.911,100.111L12.35,100.111L13.268,100.111L13.731,100.111L14.218,100.111L14.643,100.111L15.088,100.111L16.008,100.111L16.467,100.111L16.974,100.111L17.178,100.111L17.381,100.111L17.831,100.111L18.746,100.111L19.209,100.111L19.697,100.111L20.122,100.111L20.569,100.111L21.486,100.111L21.947,100.111L22.436,100.111L22.859,100.111L23.307,100.111L24.223,100.111L24.682,100.111L25.167,100.111L25.591,100.111L26.043,100.111L26.966,100.111L27.42,100.111L27.907,100.111L28.334,100.111L28.784,100.111L29.709,100.111L30.171,100.111L30.671,100.111L31.08,100.111L31.526,100.111L32.444,100.111L32.909,100.111L33.817,100.111L34.263,100.111L35.18,100.111L35.643,100.111L35.822,100.111L36.131,100.111L36.436,100.111L36.556,100.111L37.004,100.111L37.919,100.111L38.383,100.111L38.871,100.111L39.295,100.111L39.742,100.111L40.658,100.111L41.121,100.111L41.607,100.111L42.033,100.111L42.48,100.111L43.395,100.111L43.854,100.111L44.338,100.111L44.766,100.111L45.196,100.111L45.218,100.111L46.135,100.111L46.428,100.111L46.592,100.111L47.079,100.111L47.507,100.111L47.958,100.111L48.883,100.111L49.344,100.111L49.83,100.111L50.249,100.111L50.697,100.111L51.618,100.111L52.081,100.111L52.571,100.111L52.991,100.111L53.438,100.111L54.354,100.111L54.816,100.111L55.304,100.111L55.729,100.111L56.177,100.111L57.093,100.111L57.557,100.111L58.041,100.111L58.47,100.111L58.915,100.111L59.833,100.111L60.296,100.111L60.782,100.111L61.204,100.111L61.656,100.111L62.57,100.111L62.805,100.111L63.027,100.111L63.51,100.111L63.939,100.111L64.394,100.111L65.308,100.111L65.766,100.111L66.251,100.111L66.679,100.111L67.133,100.111L68.052,100.111L68.518,100.111L69.007,100.111L69.428,100.111L69.876,100.111L70.791,100.111L71.257,100.111L71.762,100.111L72.169,100.111L72.612,100.111L73.526,100.111L73.993,100.111L74.479,100.111L74.904,100.111L75.353,100.111L76.269,100.111L76.732,100.111L77.217,100.111L77.638,100.111L78.09,100.111L79.006,100.111L79.47,100.111L79.955,100.111L80.378,100.111L80.829,100.111L81.744,100.111L82.203,100.111L82.686,100.111L83.113,100.111L83.569,100.111L84.484,100.111L84.942,100.111L85.424,100.111L85.851,100.111L86.308,100.111L87.228,100.111L87.69,100.111L88.179,100.111L88.602,100.111L89.049,100.111L89.965,100.111L90.432,100.111L90.918,100.111L91.34,100.111L91.789,100.111L92.706,100.111L93.169,100.111L93.658,100.111L94.08,100.111L94.528,100.111L95.445,100.111L95.908,100.111L96.396,100.111L96.818,100.111L97.268,100.111L98.184,100.111L98.647,100.111L99.135,100.111L99.559,100.111L100.006,100.111L100.922,100.111L101.381,100.111L101.866,100.111L102.29,100.111L102.744,100.111L103.662,100.111L104.118,100.111L104.604,100.111L105.031,100.111L105.485,100.111L106.403,100.111L106.869,100.111L107.357,100.111L107.773,100.111L108.227,100.111L109.141,100.111L109.606,100.111L110.094,100.111L110.518,100.111L110.966,100.111L111.882,100.111L112.347,100.111L112.834,100.111L113.26,100.111L113.703,100.111L114.621,100.111L115.087,100.111L115.575,100.111L115.998,100.111L116.442,100.111L117.359,100.111L117.825,100.111L118.312,100.111L118.735,100.111L119.182,100.111L120.098,100.111L120.555,100.111L121.04,100.111L121.467,100.111L121.921,100.111L122.838,100.111L123.294,100.111L123.78,100.111L124.204,100.111L124.66,100.111L125.579,100.111L126.046,100.111L126.534,100.111L126.944,100.111L127.401,100.111L128.318,100.111L128.786,100.111L129.273,100.111L129.692,100.111L130.141,100.111L131.059,100.111L131.523,100.111L132.013,100.111L132.433,100.111L132.88,100.111L133.795,100.111L134.258,100.111L134.745,100.111L135.172,100.111L135.618,100.111L136.533,100.111L136.998,100.111L137.483,100.111L137.91,100.111L138.357,100.111L139.272,100.111L139.731,100.111L140.215,100.111L140.643,100.111L141.096,100.111L142.01,100.111L142.469,100.111L142.955,100.111L143.382,100.111L143.836,100.111L144.753,100.111L145.219,100.111L145.707,100.111L146.13,100.111L146.578,100.111L147.492,100.111L147.957,100.111L148.447,100.111L148.869,100.111L149.317,100.111L150.233,100.111L150.699,100.111L151.187,100.111L151.609,100.111L152.056,100.111L152.973,100.111L153.438,100.111L153.928,100.111L154.352,100.111L154.796,100.111L155.711,100.111L156.175,100.111L156.663,100.111L157.086,100.111L157.535,100.111L158.448,100.111L158.907,100.111L159.391,100.111L159.816,100.111L160.272,100.111L161.188,100.111L161.646,100.111L162.131,100.111L162.558,100.111L163.011,100.111L163.933,100.111L164.4,100.111L164.885,100.111L165.304,100.111L165.752,100.111L166.669,100.111L167.133,100.111L167.639,100.111L168.045,100.111L168.494,100.111L169.409,100.111L169.878,100.111L170.381,100.111L170.784,100.111L171.235,100.111L172.148,100.111L172.617,100.111L173.118,100.111L173.525,100.111L173.972,100.111L174.888,100.111L175.352,100.111L175.84,100.111L176.263,100.111L176.711,100.111L177.624,100.111L178.086,100.111L178.569,100.111L178.996,100.111L179.448,100.111L180.367,100.111L180.822,100.111L181.309,100.111L181.735,100.111L182.187,100.111L183.107,100.111L183.584,100.111L184.061,100.111L184.482,100.111L184.934,100.111L185.845,100.111L186.324,100.111L186.821,100.111L187.221,100.111L187.672,100.111L188.588,100.111L189.056,100.111L189.559,100.111L189.967,100.111L190.407,100.111L191.325,100.111L191.792,100.111L192.296,100.111L192.701,100.111L193.15,100.111L194.063,100.111L194.53,100.111L195.033,100.111L195.441,100.111L195.889,100.111L196.801,100.111L197.26,100.111L197.745,100.111L198.173,100.111L198.624,100.111L199.541,100.111L199.999,100.111" stroke="#4c78a8" stroke-width="2"/></g></g><path class="foreground" aria-hidden="true" d="" display="none"/></g><g transform="translate(0,0)"><path class="background" aria-hidden="true" d="M0,0h200v200h-200Z"/><g><g class="mark-line role-mark marks" role="graphics-object" aria-roledescription="line mark container"><path aria-label="Time: Aug 14, 2025; Price: 999; identifier: roam-2" role="graphics-symbol" aria-roledescription="line mark" d="M0,89L0.023,89L0.041,89L0.546,89L0.947,89L1.398,89L2.322,89L2.775,89L3.276,89L3.687,89L4.135,89L5.052,89L5.511,89L5.997,89L6.421,89L6.875,89L7.802,89L8.25,89L8.738,89L9.162,89L9.613,89L10.549,89L10.999,89L11.504,89L11.681,89L11.911,89L12.35,89L13.268,89L13.731,89L14.218,89L14.643,89L15.088,89L16.008,89L16.467,89L16.974,89L17.179,89L17.381,89L17.831,89L18.746,89L19.209,89L19.698,89L20.122,89L20.569,89L21.486,89L21.947,89L22.436,89L22.859,89L23.307,89L24.223,89L24.682,89L25.167,89L25.591,89L26.043,89L26.966,89L27.42,89L27.907,89L28.334,89L28.784,89L29.709,89L30.171,89L30.671,89L31.08,89L31.526,89L32.444,89L32.909,89L33.817,89L34.263,89L35.18,89L35.643,89L35.823,89L36.131,89L36.436,89L36.556,89L37.004,89L37.919,89L38.383,89L38.871,89L39.295,89L39.742,89L40.659,89L41.121,89L41.608,89L42.033,89L42.48,89L43.395,89L43.854,89L44.338,89L44.766,89L45.197,89L45.218,89L46.135,89L46.428,89L46.592,89L47.079,89L47.507,89L47.958,89L48.883,89L49.344,89L49.83,89L50.25,89L50.697,89L51.618,89L52.082,89L52.571,89L52.991,89L53.438,89L54.354,89L54.817,89L55.305,89L55.729,89L56.177,89L57.093,89L57.557,89L58.041,89L58.47,89L58.915,89L59.833,89L60.296,89L60.782,89L61.204,89L61.656,89L62.57,89L62.805,89L63.027,89L63.51,89L63.939,89L64.394,89L65.308,89L65.766,89L66.251,89L66.679,89L67.133,89L68.053,89L68.518,89L69.007,89L69.428,89L69.876,89L70.791,89L71.257,89L71.762,89L72.169,89L72.613,89L73.526,89L73.993,89L74.479,89L74.904,89L75.353,89L76.269,89L76.732,89L77.217,89L77.638,89L78.09,89L79.007,89L79.47,89L79.955,89L80.379,89L80.83,89L81.744,89L82.203,89L82.687,89L83.113,89L83.569,89L84.485,89L84.942,89L85.424,89L85.851,89L86.309,89L87.228,89L87.69,89L88.18,89L88.602,89L89.05,89L89.965,89L90.432,89L90.919,89L91.34,89L91.79,89L92.706,89L93.169,89L93.658,89L94.08,89L94.528,89L95.445,89L95.908,89L96.396,89L96.818,89L97.268,89L98.184,89L98.647,89L99.135,89L99.559,89L100.006,89L100.922,89L101.382,89L101.866,89L102.29,89L102.744,89L103.662,89L104.119,89L104.604,89L105.031,89L105.485,89L106.403,89L106.869,89L107.357,89L107.773,89L108.227,89L109.141,89L109.606,89L110.094,89L110.518,89L110.966,89L111.882,89L112.347,89L112.834,89L113.26,89L113.703,89L114.621,89L115.087,89L115.575,89L115.998,89L116.442,89L117.359,89L117.825,89L118.312,89L118.735,89L119.182,89L120.098,89L120.555,89L121.04,89L121.467,89L121.922,89L122.838,89L123.295,89L123.78,89L124.204,89L124.66,89L125.58,89L126.046,89L126.534,89L126.944,89L127.401,89L128.318,89L128.786,89L129.273,89L129.692,89L130.141,89L131.059,89L131.524,89L132.013,89L132.433,89L132.881,89L133.795,89L134.258,89L134.745,89L135.172,89L135.618,89L136.533,89L136.998,89L137.483,89L137.91,89L138.357,89L139.272,89L139.731,89L140.215,89L140.643,89L141.096,89L142.01,89L142.469,89L142.955,89L143.382,89L143.836,89L144.753,89L145.219,89L145.707,89L146.13,89L146.578,89L147.492,89L147.957,89L148.447,89L148.869,89L149.317,89L150.233,89L150.699,89L151.187,89L151.609,89L152.056,89L152.973,89L153.438,89L153.928,89L154.352,89L154.796,89L155.711,89L156.176,89L156.663,89L157.086,89L157.535,89L158.449,89L158.907,89L159.391,89L159.816,89L160.272,89L161.188,89L161.646,89L162.131,89L162.558,89L163.011,89L163.933,89L164.4,89L164.885,89L165.305,89L165.752,89L166.669,89L167.133,89L167.639,89L168.045,89L168.494,89L169.409,89L169.878,89L170.381,89L170.784,89L171.235,89L172.148,89L172.617,89L173.118,89L173.526,89L173.972,89L174.888,89L175.353,89L175.841,89L176.263,89L176.711,89L177.624,89L178.086,89L178.569,89L178.996,89L179.448,89L180.367,89L180.822,89L181.309,89L181.735,89L182.188,89L183.108,89L183.584,89L184.061,89L184.482,89L184.934,89L185.846,89L186.324,89L186.821,89L187.221,89L187.672,89L188.588,89L189.056,89L189.559,89L189.967,89L190.408,89L191.325,89L191.792,89L192.296,89L192.702,89L193.15,89L194.063,89L194.53,89L195.033,89L195.441,89L195.889,89L196.801,89L197.26,89L197.745,89L198.173,89L198.624,89L199.541,89L199.999,89" stroke="#ff9da6" stroke-width="2"/></g></g><path class="foreground" aria-hidden="true" d="" display="none"/></g><g transform="translate(0,0)"><path class="background" aria-hidden="true" d="M0,0h200v200h-200Z"/><g><g class="mark-line role-mark marks" role="graphics-object" aria-roledescription="line mark container"><path aria-label="Time: Aug 14, 2025; Price: 999; identifier: fastroad-sl-3-2022" role="graphics-symbol" aria-roledescription="line mark" d="M0,89L0.023,89L0.041,89L0.546,89L0.947,89L1.398,89L2.322,89L2.775,89L3.276,89L3.687,89L4.135,89L5.052,89L5.511,89L5.997,89L6.421,89L6.875,89L7.802,89L8.25,89L8.738,89L9.163,89L9.613,89L10.549,89L10.999,89L11.504,89L11.681,89L11.911,89L12.35,89L13.268,89L13.731,89L14.218,89L14.643,89L15.088,89L16.008,89L16.467,89L16.974,89L17.179,89L17.381,89L17.831,89L18.746,89L19.209,89L19.698,89L20.123,89L20.569,89L21.486,89L21.947,89L22.436,89L22.859,89L23.307,89L24.223,89L24.682,89L25.167,89L25.591,89L26.044,89L26.966,89L27.42,89L27.908,89L28.334,89L28.784,89L29.709,89L30.172,89L30.671,89L31.08,89L31.526,89L32.444,89L32.909,89L33.817,89L34.263,89L35.18,89L35.643,89L35.823,89L36.131,89L36.436,89L36.556,89L37.004,89L37.919,89L38.384,89L38.871,89L39.295,89L39.743,89L40.659,89L41.121,89L41.608,89L42.033,89L42.48,89L43.395,89L43.854,89L44.339,89L44.766,89L45.197,89L45.218,89L46.135,89L46.428,89L46.592,89L47.079,89L47.507,89L47.958,89L48.884,89L49.344,89L49.83,89L50.25,89L50.697,89L51.619,89L52.082,89L52.571,89L52.991,89L53.438,89L54.354,89L54.817,89L55.305,89L55.729,89L56.177,89L57.093,89L57.557,89L58.041,89L58.47,89L58.916,89L59.834,89L60.296,89L60.782,89L61.204,89L61.656,89L62.57,89L62.805,89L63.027,89L63.51,89L63.939,89L64.394,89L65.308,89L65.766,89L66.251,89L66.679,89L67.133,89L68.053,89L68.518,89L69.007,89L69.428,89L69.876,89L70.791,89L71.257,89L71.762,89L72.169,89L72.613,89L73.526,89L73.993,89L74.479,89L74.904,89L75.353,89L76.269,89L76.732,89L77.217,89L77.638,89L78.09,89L79.007,89L79.47,89L79.955,89L80.379,89L80.83,89L81.744,89L82.203,89L82.687,89L83.113,89L83.569,89L84.485,89L84.942,89L85.424,89L85.851,89L86.309,89L87.228,89L87.69,89L88.18,89L88.602,89L89.05,89L89.966,89L90.432,89L90.919,89L91.34,89L91.79,89L92.706,89L93.169,89L93.658,89L94.08,89L94.528,89L95.445,89L95.908,89L96.397,89L96.818,89L97.268,89L98.184,89L98.647,89L99.135,89L99.559,89L100.006,89L100.922,89L101.382,89L101.866,89L102.29,89L102.744,89L103.662,89L104.119,89L104.605,89L105.032,89L105.485,89L106.403,89L106.869,89L107.357,89L107.773,89L108.227,89L109.141,89L109.606,89L110.094,89L110.518,89L110.966,89L111.882,89L112.347,89L112.834,89L113.26,89L113.703,89L114.621,89L115.087,89L115.575,89L115.998,89L116.442,89L117.359,89L117.825,89L118.312,89L118.735,89L119.182,89L120.098,89L120.555,89L121.04,89L121.467,89L121.922,89L122.838,89L123.295,89L123.78,89L124.204,89L124.66,89L125.58,89L126.046,89L126.534,89L126.944,89L127.401,89L128.318,89L128.787,89L129.273,89L129.693,89L130.141,89L131.059,89L131.524,89L132.013,89L132.433,89L132.881,89L133.795,89L134.259,89L134.745,89L135.172,89L135.618,89L136.533,89L136.998,89L137.483,89L137.91,89L138.357,89L139.272,89L139.731,89L140.215,89L140.643,89L141.096,89L142.01,89L142.469,89L142.955,89L143.382,89L143.836,89L144.753,89L145.219,89L145.707,89L146.13,89L146.578,89L147.492,89L147.957,89L148.447,89L148.869,89L149.317,89L150.233,89L150.699,89L151.188,89L151.609,89L152.056,89L152.973,89L153.439,89L153.928,89L154.352,89L154.796,89L155.712,89L156.176,89L156.663,89L157.086,89L157.535,89L158.449,89L158.907,89L159.391,89L159.817,89L160.272,89L161.188,89L161.646,89L162.131,89L162.558,89L163.011,89L163.933,89L164.4,89L164.885,89L165.306,89L165.753,89L166.669,89L167.133,89L167.639,89L168.046,89L168.494,89L169.41,89L169.878,89L170.382,89L170.784,89L171.235,89L172.148,89L172.617,89L173.118,89L173.526,89L173.972,89L174.888,89L175.353,89L175.841,89L176.263,89L176.711,89L177.624,89L178.086,89L178.569,89L178.996,89L179.448,89L180.367,89L180.822,89L181.309,89L181.735,89L182.188,89L183.108,89L183.584,89L184.061,89L184.482,89L184.934,89L185.846,89L186.324,89L186.821,89L187.221,89L187.672,89L188.588,89L189.056,89L189.559,89L189.967,89L190.408,89L191.325,89L191.792,89L192.296,89L192.702,89L193.15,89L194.063,89L194.53,89L195.033,89L195.441,89L195.889,89L196.801,89L197.26,89L197.745,89L198.173,89L198.624,89L199.541,89L199.999,89" stroke="#9d755d" stroke-width="2"/></g></g><path class="foreground" aria-hidden="true" d="" display="none"/></g><g transform="translate(0,0)"><path class="background" aria-hidden="true" d="M0,0h200v200h-200Z"/><g><g class="mark-line role-mark marks" role="graphics-object" aria-roledescription="line mark container"><path aria-label="Time: Aug 14, 2025; Price: 1199; identifier: fastroad-ar-2" role="graphics-symbol" aria-roledescription="line mark" d="M0,66.778L0.023,66.778L0.041,66.778L0.546,66.778L0.947,66.778L1.398,66.778L2.322,66.778L2.775,66.778L3.276,66.778L3.687,66.778L4.135,66.778L5.052,66.778L5.511,66.778L5.997,66.778L6.421,66.778L6.877,66.778L7.802,66.778L8.25,66.778L8.738,66.778L9.163,66.778L9.613,66.778L10.549,66.778L10.999,66.778L11.504,66.778L11.681,66.778L11.911,66.778L12.35,66.778L13.268,66.778L13.731,66.778L14.218,66.778L14.643,66.778L15.089,66.778L16.008,66.778L16.467,66.778L16.974,66.778L17.179,66.778L17.381,66.778L17.831,66.778L18.746,66.778L19.209,66.778L19.698,66.778L20.123,66.778L20.569,66.778L21.486,66.778L21.947,66.778L22.436,66.778L22.859,66.778L23.307,66.778L24.223,66.778L24.683,66.778L25.167,66.778L25.591,66.778L26.044,66.778L26.966,66.778L27.42,66.778L27.908,66.778L28.334,66.778L28.784,66.778L29.709,66.778L30.172,66.778L30.671,66.778L31.08,66.778L31.526,66.778L32.444,66.778L32.909,66.778L33.817,66.778L34.263,66.778L35.18,66.778L35.643,66.778L35.823,66.778L36.131,66.778L36.436,66.778L36.556,66.778L37.004,66.778L37.919,66.778L38.384,66.778L38.872,66.778L39.295,66.778L39.743,66.778L40.659,66.778L41.121,66.778L41.608,66.778L42.033,66.778L42.48,66.778L43.395,66.778L43.854,66.778L44.339,66.778L44.766,66.778L45.197,66.778L45.218,66.778L46.135,66.778L46.428,66.778L46.592,66.778L47.079,66.778L47.507,66.778L47.958,66.778L48.884,66.778L49.344,66.778L49.83,66.778L50.25,66.778L50.697,66.778L51.619,66.778L52.082,66.778L52.571,66.778L52.991,66.778L53.438,66.778L54.354,66.778L54.817,66.778L55.305,66.778L55.729,66.778L56.177,66.778L57.093,66.778L57.557,66.778L58.042,66.778L58.47,66.778L58.916,66.778L59.834,66.778L60.296,66.778L60.782,66.778L61.204,66.778L61.656,66.778L62.57,66.778L62.805,66.778L63.027,66.778L63.51,66.778L63.939,66.778L64.394,66.778L65.309,66.778L65.766,66.778L66.251,66.778L66.679,66.778L67.133,66.778L68.053,66.778L68.518,66.778L69.007,66.778L69.428,66.778L69.877,66.778L70.791,66.778L71.257,66.778L71.762,66.778L72.169,66.778L72.613,66.778L73.526,66.778L73.993,66.778L74.479,66.778L74.904,66.778L75.353,66.778L76.269,66.778L76.732,66.778L77.217,66.778L77.638,66.778L78.09,66.778L79.007,66.778L79.47,66.778L79.955,66.778L80.379,66.778L80.83,66.778L81.744,66.778L82.203,66.778L82.687,66.778L83.113,66.778L83.569,66.778L84.485,66.778L84.942,66.778L85.424,66.778L85.851,66.778L86.309,66.778L87.229,66.778L87.69,66.778L88.18,66.778L88.602,66.778L89.05,66.778L89.966,66.778L90.432,66.778L90.919,66.778L91.34,66.778L91.79,66.778L92.706,66.778L93.169,66.778L93.658,66.778L94.08,66.778L94.529,66.778L95.445,66.778L95.908,66.778L96.397,66.778L96.818,66.778L97.268,66.778L98.184,66.778L98.647,66.778L99.135,66.778L99.559,66.778L100.006,66.778L100.922,66.778L101.382,66.778L101.866,66.778L102.29,66.778L102.745,66.778L103.662,66.778L104.119,66.778L104.605,66.778L105.032,66.778L105.485,66.778L106.403,66.778L106.869,66.778L107.357,66.778L107.773,66.778L108.227,66.778L109.142,66.778L109.606,66.778L110.094,66.778L110.518,66.778L110.966,66.778L111.882,66.778L112.347,66.778L112.834,66.778L113.26,66.778L113.703,66.778L114.621,66.778L115.087,66.778L115.576,66.778L115.998,66.778L116.442,66.778L117.36,66.778L117.825,66.778L118.312,66.778L118.735,66.778L119.182,66.778L120.098,66.778L120.555,66.778L121.04,66.778L121.467,66.778L121.922,66.778L122.838,66.778L123.295,66.778L123.78,66.778L124.204,66.778L124.66,66.778L125.58,66.778L126.046,66.778L126.534,66.778L126.944,66.778L127.401,66.778L128.318,66.778L128.787,66.778L129.273,66.778L129.693,66.778L130.141,66.778L131.059,66.778L131.524,66.778L132.013,66.778L132.433,66.778L132.881,66.778L133.795,66.778L134.259,66.778L134.745,66.778L135.172,66.778L135.618,66.778L136.533,66.778L136.998,66.778L137.483,66.778L137.91,66.778L138.357,66.778L139.272,66.778L139.731,66.778L140.215,66.778L140.643,66.778L141.096,66.778L142.01,66.778L142.469,66.778L142.955,66.778L143.382,66.778L143.836,66.778L144.753,66.778L145.219,66.778L145.707,66.778L146.13,66.778L146.578,66.778L147.492,66.778L147.957,66.778L148.447,66.778L148.869,66.778L149.317,66.778L150.233,66.778L150.699,66.778L151.188,66.778L151.609,66.778L152.056,66.778L152.974,66.778L153.439,66.778L153.928,66.778L154.352,66.778L154.796,66.778L155.712,66.778L156.176,66.778L156.663,66.778L157.086,66.778L157.535,66.778L158.449,66.778L158.907,66.778L159.391,66.778L159.817,66.778L160.272,66.778L161.188,66.778L161.646,66.778L162.131,66.778L162.559,66.778L163.011,66.778L163.933,66.778L164.4,66.778L164.886,66.778L165.306,66.778L165.753,66.778L166.669,66.778L167.134,66.778L167.639,66.778L168.046,66.778L168.494,66.778L169.41,66.778L169.878,66.778L170.382,66.778L170.784,66.778L171.235,66.778L172.149,66.778L172.617,66.778L173.118,66.778L173.526,66.778L173.972,66.778L174.888,66.778L175.353,66.778L175.841,66.778L176.263,66.778L176.711,66.778L177.625,66.778L178.086,66.778L178.569,66.778L178.996,66.778L179.448,66.778L180.367,66.778L180.822,66.778L181.309,66.778L181.736,66.778L182.188,66.778L183.108,66.778L183.584,66.778L184.061,66.778L184.482,66.778L184.934,66.778L185.846,66.778L186.324,66.778L186.821,66.778L187.221,66.778L187.672,66.778L188.588,66.778L189.056,66.778L189.559,66.778L189.967,66.778L190.408,66.778L191.325,66.778L191.792,66.778L192.296,66.778L192.702,66.778L193.15,66.778L194.063,66.778L194.53,66.778L195.033,66.778L195.441,66.778L195.89,66.778L196.802,66.778L197.26,66.778L197.745,66.778L198.173,66.778L198.624,66.778L199.542,66.778L199.999,66.778" stroke="#54a24b" stroke-width="2"/></g></g><path class="foreground" aria-hidden="true" d="" display="none"/></g><g transform="translate(0,0)"><path class="background" aria-hidden="true" d="M0,0h200v200h-200Z"/><g><g class="mark-line role-mark marks" role="graphics-object" aria-roledescription="line mark container"><path aria-label="Time: Aug 18, 2025; Price: 899; identifier: sdrbike-escape-1-city-disc" role="graphics-symbol" aria-roledescription="line mark" d="M11.681,100.111L11.911,100.111L12.35,100.111L13.268,100.111L13.732,100.111L14.218,100.111L14.643,100.111L15.089,100.111L16.008,100.111L16.467,100.111L16.974,100.111L17.179,100.111L17.382,100.111L17.831,100.111L18.746,100.111L19.209,100.111L19.698,100.111L20.123,100.111L20.569,100.111L21.486,100.111L21.948,100.111L22.436,100.111L22.859,100.111L23.307,100.111L24.223,100.111L24.683,100.111L25.167,100.111L25.591,100.111L26.044,100.111L26.966,100.111L27.42,100.111L27.908,100.111L28.334,100.111L28.784,100.111L29.709,100.111L30.172,100.111L30.671,100.111L31.081,100.111L31.526,100.111L32.445,100.111L32.909,100.111L33.817,100.111L34.263,100.111L35.18,100.111L35.643,100.111L35.823,100.111L36.131,100.111L36.437,100.111L36.556,100.111L37.004,100.111L37.919,100.111L38.384,100.111L38.872,100.111L39.295,100.111L39.743,100.111L40.659,100.111L41.121,100.111L41.608,100.111L42.033,100.111L42.481,100.111L43.395,100.111L43.854,100.111L44.339,100.111L44.766,100.111L45.197,100.111L45.218,100.111L46.136,100.111L46.428,100.111L46.592,100.111L47.079,100.111L47.507,100.111L47.959,100.111L48.884,100.111L49.344,100.111L49.83,100.111L50.25,100.111L50.697,100.111L51.619,100.111L52.082,100.111L52.571,100.111L52.991,100.111L53.439,100.111L54.355,100.111L54.817,100.111L55.305,100.111L55.729,100.111L56.177,100.111L57.093,100.111L57.557,100.111L58.042,100.111L58.47,100.111L58.916,100.111L59.834,100.111L60.296,100.111L60.782,100.111L61.204,100.111L61.656,100.111L62.57,100.111L62.805,100.111L63.027,100.111L63.51,100.111L63.939,100.111L64.394,100.111L65.309,100.111L65.766,100.111L66.251,100.111L66.679,100.111L67.133,100.111L68.053,100.111L68.519,100.111L69.007,100.111L69.428,100.111L69.877,100.111L70.791,100.111L71.257,100.111L71.762,100.111L72.169,100.111L72.613,100.111L73.527,100.111L73.994,100.111L74.479,100.111L74.904,100.111L75.353,100.111L76.269,100.111L76.732,100.111L77.217,100.111L77.638,100.111L78.09,100.111L79.007,100.111L79.47,100.111L79.955,100.111L80.379,100.111L80.83,100.111L81.744,100.111L82.203,100.111L82.687,100.111L83.113,100.111L83.569,100.111L84.485,100.111L84.943,100.111L85.424,100.111L85.852,100.111L86.309,100.111L87.229,100.111L87.69,100.111L88.18,100.111L88.602,100.111L89.05,100.111L89.966,100.111L90.432,100.111L90.919,100.111L91.34,100.111L91.79,100.111L92.706,100.111L93.169,100.111L93.658,100.111L94.08,100.111L94.529,100.111L95.445,100.111L95.908,100.111L96.397,100.111L96.818,100.111L97.268,100.111L98.185,100.111L98.647,100.111L99.135,100.111L99.559,100.111L100.006,100.111L100.922,100.111L101.382,100.111L101.866,100.111L102.29,100.111L102.745,100.111L103.662,100.111L104.119,100.111L104.605,100.111L105.032,100.111L105.485,100.111L106.403,100.111L106.869,100.111L107.357,100.111L107.773,100.111L108.227,100.111L109.142,100.111L109.607,100.111L110.094,100.111L110.518,100.111L110.966,100.111L111.882,100.111L112.347,100.111L112.834,100.111L113.26,100.111L113.703,100.111L114.621,100.111L115.087,100.111L115.576,100.111L115.998,100.111L116.442,100.111L117.36,100.111L117.825,100.111L118.312,100.111L118.735,100.111L119.182,100.111L120.098,100.111L120.555,100.111L121.04,100.111L121.467,100.111L121.922,100.111L122.838,100.111L123.295,100.111L123.78,100.111L124.205,100.111L124.66,100.111L125.58,100.111L126.046,100.111L126.534,100.111L126.944,100.111L127.401,100.111L128.318,100.111L128.787,100.111L129.273,100.111L129.693,100.111L130.141,100.111L131.059,100.111L131.524,100.111L132.013,100.111L132.433,100.111L132.881,100.111L133.795,100.111L134.259,100.111L134.745,100.111L135.172,100.111L135.619,100.111L136.533,100.111L136.998,100.111L137.483,100.111L137.91,100.111L138.357,100.111L139.272,100.111L139.732,100.111L140.215,100.111L140.643,100.111L141.096,100.111L142.01,100.111L142.469,100.111L142.955,100.111L143.382,100.111L143.836,100.111L144.753,100.111L145.219,100.111L145.707,100.111L146.13,100.111L146.578,100.111L147.492,100.111L147.957,100.111L148.447,100.111L148.869,100.111L149.317,100.111L150.233,100.111L150.699,100.111L151.188,100.111L151.609,100.111L152.057,100.111L152.974,100.111L153.439,100.111L153.928,100.111L154.352,100.111L154.796,100.111L155.712,100.111L156.176,100.111L156.663,100.111L157.086,100.111L157.535,100.111L158.449,100.111L158.907,100.111L159.391,100.111L159.817,100.111L160.272,100.111L161.189,100.111L161.646,100.111L162.131,100.111L162.559,100.111L163.011,100.111L163.933,100.111L164.4,100.111L164.886,100.111L165.306,100.111L165.753,100.111L166.669,100.111L167.134,100.111L167.639,100.111L168.046,100.111L168.494,100.111L169.41,100.111L169.878,100.111L170.382,100.111L170.784,100.111L171.235,100.111L172.149,100.111L172.617,100.111L173.118,100.111L173.526,100.111L173.973,100.111L174.888,100.111L175.353,100.111L175.841,100.111L176.263,100.111L176.711,100.111L177.625,100.111L178.086,100.111L178.569,100.111L178.996,100.111L179.448,100.111L180.367,100.111L180.822,100.111L181.31,100.111L181.736,100.111L182.188,100.111L183.108,100.111L183.584,100.111L184.061,100.111L184.483,100.111L184.934,100.111L185.846,100.111L186.324,100.111L186.821,100.111L187.221,100.111L187.672,100.111L188.588,100.111L189.056,100.111L189.559,100.111L189.967,100.111L190.408,100.111L191.325,100.111L191.792,100.111L192.296,100.111L192.702,100.111L193.15,100.111L194.063,100.111L194.53,100.111L195.034,100.111L195.441,100.111L195.89,100.111L196.802,100.111L197.261,100.111L197.745,100.111L198.173,100.111L198.624,100.111L199.542,100.111L199.999,100.111" stroke="#f58518" stroke-width="2"/></g></g><path class="foreground" aria-hidden="true" d="" display="none"/></g><g transform="translate(0,0)"><path class="background" aria-hidden="true" d="M0,0h200v200h-200Z"/><g><g class="mark-line role-mark marks" role="graphics-object" aria-roledescription="line mark container"><path aria-label="Time: Aug 20, 2025; Price: 899; identifier: roam-disc-2-2024" role="graphics-symbol" aria-roledescription="line mark" d="M17.178,100.111L17.381,100.111L17.831,100.111L18.746,100.111L19.209,100.111L19.697,100.111L20.122,100.111L20.569,100.111L21.486,100.111L21.947,100.111L22.436,100.111L22.859,100.111L23.307,100.111L24.223,100.111L24.682,100.111L25.167,100.111L25.591,100.111L26.043,100.111L26.966,100.111L27.42,100.111L27.907,100.111L28.334,100.111L28.784,100.111L29.709,100.111L30.171,100.111L30.671,100.111L31.08,100.111L31.526,100.111L32.444,100.111L32.909,100.111L33.817,100.111L34.263,100.111L35.18,100.111L35.643,100.111L35.823,100.111L36.131,100.111L36.436,100.111L36.556,100.111L37.004,100.111L37.919,100.111L38.383,100.111L38.871,100.111L39.295,100.111L39.742,100.111L40.658,100.111L41.121,100.111L41.607,100.111L42.033,100.111L42.48,100.111L43.395,100.111L43.854,100.111L44.338,100.111L44.766,100.111L45.197,100.111L45.218,100.111L46.135,100.111L46.428,100.111L46.592,100.111L47.079,100.111L47.507,100.111L47.958,100.111L48.883,100.111L49.344,100.111L49.83,100.111L50.25,100.111L50.697,100.111L51.618,100.111L52.082,100.111L52.571,100.111L52.991,100.111L53.438,100.111L54.354,100.111L54.817,100.111L55.304,100.111L55.729,100.111L56.177,100.111L57.093,100.111L57.557,100.111L58.041,100.111L58.47,100.111L58.915,100.111L59.833,100.111L60.296,100.111L60.782,100.111L61.204,100.111L61.656,100.111L62.57,100.111L62.805,100.111L63.027,100.111L63.51,100.111L63.939,100.111L64.394,100.111L65.308,100.111L65.766,100.111L66.251,100.111L66.679,100.111L67.133,100.111L68.053,100.111L68.518,100.111L69.007,100.111L69.428,100.111L69.876,100.111L70.791,100.111L71.257,100.111L71.762,100.111L72.169,100.111L72.613,100.111L73.526,100.111L73.993,100.111L74.479,100.111L74.904,100.111L75.353,100.111L76.269,100.111L76.732,100.111L77.217,100.111L77.638,100.111L78.09,100.111L79.006,100.111L79.47,100.111L79.955,100.111L80.379,100.111L80.829,100.111L81.744,100.111L82.203,100.111L82.686,100.111L83.113,100.111L83.569,100.111L84.484,100.111L84.942,100.111L85.424,100.111L85.851,100.111L86.308,100.111L87.228,100.111L87.69,100.111L88.18,100.111L88.602,100.111L89.05,100.111L89.965,100.111L90.432,100.111L90.919,100.111L91.34,100.111L91.79,100.111L92.706,100.111L93.169,100.111L93.658,100.111L94.08,100.111L94.528,100.111L95.445,100.111L95.908,100.111L96.396,100.111L96.818,100.111L97.268,100.111L98.184,100.111L98.647,100.111L99.135,100.111L99.559,100.111L100.006,100.111L100.922,100.111L101.381,100.111L101.866,100.111L102.29,100.111L102.744,100.111L103.662,100.111L104.118,100.111L104.604,100.111L105.031,100.111L105.485,100.111L106.403,100.111L106.869,100.111L107.357,100.111L107.773,100.111L108.227,100.111L109.141,100.111L109.606,100.111L110.094,100.111L110.518,100.111L110.966,100.111L111.882,100.111L112.347,100.111L112.834,100.111L113.26,100.111L113.703,100.111L114.621,100.111L115.087,100.111L115.575,100.111L115.998,100.111L116.442,100.111L117.359,100.111L117.825,100.111L118.312,100.111L118.735,100.111L119.182,100.111L120.098,100.111L120.555,100.111L121.04,100.111L121.467,100.111L121.921,100.111L122.838,100.111L123.295,100.111L123.78,100.111L124.204,100.111L124.66,100.111L125.579,100.111L126.046,100.111L126.534,100.111L126.944,100.111L127.401,100.111L128.318,100.111L128.786,100.111L129.273,100.111L129.692,100.111L130.141,100.111L131.059,100.111L131.524,100.111L132.013,100.111L132.433,100.111L132.88,100.111L133.795,100.111L134.258,100.111L134.745,100.111L135.172,100.111L135.618,100.111L136.533,100.111L136.998,100.111L137.483,100.111L137.91,100.111L138.357,100.111L139.272,100.111L139.731,100.111L140.215,100.111L140.643,100.111L141.096,100.111L142.01,100.111L142.469,100.111L142.955,100.111L143.382,100.111L143.836,100.111L144.753,100.111L145.219,100.111L145.707,100.111L146.13,100.111L146.578,100.111L147.492,100.111L147.957,100.111L148.447,100.111L148.869,100.111L149.317,100.111L150.233,100.111L150.699,100.111L151.187,100.111L151.609,100.111L152.056,100.111L152.973,100.111L153.438,100.111L153.928,100.111L154.352,100.111L154.796,100.111L155.711,100.111L156.176,100.111L156.663,100.111L157.086,100.111L157.535,100.111L158.448,100.111L158.907,100.111L159.391,100.111L159.816,100.111L160.272,100.111L161.188,100.111L161.646,100.111L162.131,100.111L162.558,100.111L163.011,100.111L163.933,100.111L164.4,100.111L164.885,100.111L165.304,100.111L165.752,100.111L166.669,100.111L167.133,100.111L167.639,100.111L168.045,100.111L168.494,100.111L169.409,100.111L169.878,100.111L170.381,100.111L170.784,100.111L171.235,100.111L172.148,100.111L172.617,100.111L173.118,100.111L173.526,100.111L173.972,100.111L174.888,100.111L175.352,100.111L175.841,100.111L176.263,100.111L176.711,100.111L177.624,100.111L178.086,100.111L178.569,100.111L178.996,100.111L179.448,100.111L180.367,100.111L180.822,100.111L181.309,100.111L181.735,100.111L182.187,100.111L183.108,100.111L183.584,100.111L184.061,100.111L184.482,100.111L184.934,100.111L185.846,100.111L186.324,100.111L186.821,100.111L187.221,100.111L187.672,100.111L188.588,100.111L189.056,100.111L189.559,100.111L189.967,100.111L190.408,100.111L191.325,100.111L191.792,100.111L192.296,100.111L192.701,100.111L193.15,100.111L194.063,100.111L194.53,100.111L195.033,100.111L195.441,100.111L195.889,100.111L196.801,100.111L197.26,100.111L197.745,100.111L198.173,100.111L198.624,100.111L199.541,100.111L199.999,100.111" stroke="#e45756" stroke-width="2"/></g></g><path class="foreground" aria-hidden="true" d="" display="none"/></g><g transform="translate(0,0)"><path class="background" aria-hidden="true" d="M0,0h200v200h-200Z"/><g><g class="mark-line role-mark marks" role="graphics-object" aria-roledescription="line mark container"><path aria-label="Time: Aug 20, 2025; Price: 1199; identifier: thrive-2" role="graphics-symbol" aria-roledescription="line mark" d="M17.179,66.778L17.382,66.778L17.831,66.778L18.746,66.778L19.209,66.778L19.698,66.778L20.123,66.778L20.569,66.778L21.486,66.778L21.948,66.778L22.436,66.778L22.859,66.778L23.307,66.778L24.224,66.778L24.683,66.778L25.167,66.778L25.592,66.778L26.044,66.778L26.966,66.778L27.42,66.778L27.908,66.778L28.334,66.778L28.784,66.778L29.709,66.778L30.172,66.778L30.672,66.778L31.081,66.778L31.527,66.778L32.445,66.778L32.909,66.778L33.817,66.778L34.263,66.778L35.18,66.778L35.643,66.778L35.823,66.778L36.131,66.778L36.437,66.778L36.556,66.778L37.004,66.778L37.919,66.778L38.384,66.778L38.872,66.778L39.295,66.778L39.743,66.778L40.659,66.778L41.121,66.778L41.608,66.778L42.033,66.778L42.481,66.778L43.395,66.778L43.854,66.778L44.339,66.778L44.766,66.778L45.197,66.778L45.218,66.778L46.136,66.778L46.428,66.778L46.592,66.778L47.08,66.778L47.507,66.778L47.959,66.778L48.884,66.778L49.344,66.778L49.83,66.778L50.25,66.778L50.697,66.778L51.619,66.778L52.082,66.778L52.571,66.778L52.991,66.778L53.439,66.778L54.355,66.778L54.817,66.778L55.305,66.778L55.729,66.778L56.177,66.778L57.093,66.778L57.557,66.778L58.042,66.778L58.47,66.778L58.916,66.778L59.834,66.778L60.296,66.778L60.783,66.778L61.205,66.778L61.656,66.778L62.57,66.778L62.805,66.778L63.027,66.778L63.51,66.778L63.939,66.778L64.394,66.778L65.309,66.778L65.766,66.778L66.252,66.778L66.679,66.778L67.133,66.778L68.053,66.778L68.519,66.778L69.007,66.778L69.428,66.778L69.877,66.778L70.791,66.778L71.257,66.778L71.762,66.778L72.169,66.778L72.613,66.778L73.527,66.778L73.994,66.778L74.479,66.778L74.904,66.778L75.354,66.778L76.27,66.778L76.732,66.778L77.218,66.778L77.638,66.778L78.091,66.778L79.007,66.778L79.47,66.778L79.956,66.778L80.379,66.778L80.83,66.778L81.744,66.778L82.203,66.778L82.687,66.778L83.113,66.778L83.569,66.778L84.485,66.778L84.943,66.778L85.424,66.778L85.852,66.778L86.309,66.778L87.229,66.778L87.691,66.778L88.18,66.778L88.602,66.778L89.05,66.778L89.966,66.778L90.432,66.778L90.919,66.778L91.34,66.778L91.79,66.778L92.706,66.778L93.169,66.778L93.658,66.778L94.08,66.778L94.529,66.778L95.445,66.778L95.908,66.778L96.397,66.778L96.818,66.778L97.268,66.778L98.185,66.778L98.647,66.778L99.135,66.778L99.559,66.778L100.006,66.778L100.922,66.778L101.382,66.778L101.866,66.778L102.29,66.778L102.745,66.778L103.662,66.778L104.119,66.778L104.605,66.778L105.032,66.778L105.485,66.778L106.403,66.778L106.87,66.778L107.357,66.778L107.773,66.778L108.227,66.778L109.142,66.778L109.607,66.778L110.094,66.778L110.519,66.778L110.966,66.778L111.882,66.778L112.347,66.778L112.834,66.778L113.26,66.778L113.704,66.778L114.621,66.778L115.087,66.778L115.576,66.778L115.998,66.778L116.442,66.778L117.36,66.778L117.825,66.778L118.312,66.778L118.735,66.778L119.182,66.778L120.098,66.778L120.555,66.778L121.04,66.778L121.467,66.778L121.922,66.778L122.838,66.778L123.295,66.778L123.781,66.778L124.205,66.778L124.66,66.778L125.58,66.778L126.046,66.778L126.534,66.778L126.944,66.778L127.401,66.778L128.318,66.778L128.787,66.778L129.273,66.778L129.693,66.778L130.141,66.778L131.059,66.778L131.524,66.778L132.013,66.778L132.433,66.778L132.881,66.778L133.795,66.778L134.259,66.778L134.745,66.778L135.172,66.778L135.619,66.778L136.533,66.778L136.998,66.778L137.483,66.778L137.91,66.778L138.357,66.778L139.272,66.778L139.732,66.778L140.215,66.778L140.643,66.778L141.097,66.778L142.01,66.778L142.469,66.778L142.955,66.778L143.382,66.778L143.836,66.778L144.753,66.778L145.219,66.778L145.708,66.778L146.13,66.778L146.578,66.778L147.493,66.778L147.957,66.778L148.447,66.778L148.869,66.778L149.317,66.778L150.233,66.778L150.699,66.778L151.188,66.778L151.609,66.778L152.057,66.778L152.974,66.778L153.439,66.778L153.928,66.778L154.352,66.778L154.796,66.778L155.712,66.778L156.176,66.778L156.663,66.778L157.087,66.778L157.535,66.778L158.449,66.778L158.907,66.778L159.391,66.778L159.817,66.778L160.272,66.778L161.189,66.778L161.647,66.778L162.131,66.778L162.559,66.778L163.011,66.778L163.934,66.778L164.4,66.778L164.886,66.778L165.307,66.778L165.753,66.778L166.669,66.778L167.134,66.778L167.639,66.778L168.046,66.778L168.495,66.778L169.41,66.778L169.878,66.778L170.382,66.778L170.784,66.778L171.235,66.778L172.149,66.778L172.617,66.778L173.118,66.778L173.526,66.778L173.973,66.778L174.888,66.778L175.353,66.778L175.841,66.778L176.263,66.778L176.711,66.778L177.625,66.778L178.086,66.778L178.569,66.778L178.996,66.778L179.449,66.778L180.367,66.778L180.822,66.778L181.31,66.778L181.736,66.778L182.188,66.778L183.108,66.778L183.584,66.778L184.061,66.778L184.483,66.778L184.934,66.778L185.846,66.778L186.324,66.778L186.821,66.778L187.221,66.778L187.672,66.778L188.588,66.778L189.056,66.778L189.559,66.778L189.967,66.778L190.408,66.778L191.325,66.778L191.792,66.778L192.296,66.778L192.702,66.778L193.15,66.778L194.063,66.778L194.53,66.778L195.034,66.778L195.441,66.778L195.89,66.778L196.802,66.778L197.261,66.778L197.745,66.778L198.173,66.778L198.625,66.778L199.542,66.778L199.999,66.778" stroke="#eeca3b" stroke-width="2"/></g></g><path class="foreground" aria-hidden="true" d="" display="none"/></g><g transform="translate(0,0)"><path class="background" aria-hidden="true" d="M0,0h200v200h-200Z"/><g><g class="mark-line role-mark marks" role="graphics-object" aria-roledescription="line mark container"><path aria-label="Time: Aug 20, 2025; Price: 999; identifier: rove-2" role="graphics-symbol" aria-roledescription="line mark" d="M17.179,89L17.382,89L17.831,89L18.746,89L19.209,89L19.698,89L20.123,89L20.569,89L21.486,89L21.948,89L22.436,89L22.859,89L23.307,89L24.224,89L24.683,89L25.167,89L25.592,89L26.044,89L26.966,89L27.42,89L27.908,89L28.334,89L28.784,89L29.71,89L30.172,89L30.672,89L31.081,89L31.527,89L32.445,89L32.909,89L33.817,89L34.263,89L35.18,89L35.643,89L35.823,89L36.131,89L36.437,89L36.556,89L37.005,89L37.919,89L38.384,89L38.872,89L39.295,89L39.743,89L40.659,89L41.121,89L41.608,89L42.033,89L42.481,89L45.197,111.222L45.218,111.222L46.136,111.222L46.428,111.222L46.592,111.222L47.08,111.222L47.507,111.222L47.959,111.222L48.884,111.222L49.344,111.222L49.83,111.222L50.25,111.222L50.697,111.222L51.619,111.222L52.082,111.222L52.572,111.222L52.991,111.222L53.439,111.222L54.355,111.222L54.817,111.222L55.305,111.222L55.729,111.222L56.177,111.222L57.093,111.222L57.557,111.222L58.042,111.222L58.47,111.222L58.916,111.222L59.834,111.222L60.296,111.222L60.783,111.222L61.205,111.222L61.656,111.222L62.57,111.222L62.805,111.222L63.027,111.222L63.511,111.222L63.939,111.222L64.394,111.222L65.309,111.222L65.766,111.222L66.252,111.222L66.679,111.222L67.133,111.222L68.053,111.222L68.519,111.222L69.007,111.222L69.428,111.222L69.877,111.222L70.791,111.222L71.257,111.222L71.762,111.222L72.169,111.222L72.613,111.222L73.527,111.222L73.994,111.222L74.479,111.222L74.904,111.222L75.354,111.222L76.27,111.222L76.732,111.222L77.218,111.222L77.638,111.222L78.091,111.222L79.007,111.222L79.47,111.222L79.956,111.222L80.379,111.222L80.83,111.222L81.745,111.222L82.203,111.222L82.687,111.222L83.113,111.222L83.57,111.222L84.485,111.222L84.943,111.222L85.424,111.222L85.852,111.222L86.309,111.222L87.229,111.222L87.691,111.222L88.18,111.222L88.602,111.222L89.05,111.222L89.966,111.222L90.432,111.222L90.919,111.222L91.34,111.222L91.79,111.222L92.706,111.222L93.169,111.222L93.658,111.222L94.08,111.222L94.529,111.222L95.445,111.222L95.908,111.222L96.397,111.222L96.818,111.222L97.268,111.222L98.185,111.222L98.647,111.222L99.135,111.222L99.559,111.222L100.006,111.222L100.922,111.222L101.382,111.222L101.866,111.222L102.29,111.222L102.745,111.222L103.662,111.222L104.119,111.222L104.605,111.222L105.032,111.222L105.485,111.222L106.403,111.222L106.87,111.222L107.357,111.222L107.773,111.222L108.227,111.222L109.142,111.222L109.607,111.222L110.094,111.222L110.519,111.222L110.966,111.222L111.882,111.222L112.347,111.222L112.834,111.222L113.26,111.222L113.704,111.222L114.622,111.222L115.087,111.222L115.576,111.222L115.999,111.222L116.442,111.222L117.36,111.222L117.825,111.222L118.312,111.222L118.735,111.222L119.182,111.222L120.099,111.222L120.555,111.222L121.04,111.222L121.467,111.222L121.922,111.222L122.838,111.222L123.295,111.222L123.781,111.222L124.205,111.222L124.66,111.222L125.58,111.222L126.046,111.222L126.534,111.222L126.944,111.222L127.401,111.222L128.318,111.222L128.787,111.222L129.273,111.222L129.693,111.222L130.141,111.222L131.059,111.222L131.524,111.222L132.013,111.222L132.433,111.222L132.881,111.222L133.795,111.222L134.259,111.222L134.745,111.222L135.172,111.222L135.619,111.222L136.534,111.222L136.998,111.222L137.483,111.222L137.91,111.222L138.357,111.222L139.272,111.222L139.732,111.222L140.215,111.222L140.643,111.222L141.097,111.222L142.01,111.222L142.469,111.222L142.955,111.222L143.382,111.222L143.837,111.222L144.753,111.222L145.219,111.222L145.708,111.222L146.13,111.222L146.578,111.222L147.493,111.222L147.957,111.222L148.447,111.222L148.869,111.222L149.317,111.222L150.233,111.222L150.699,111.222L151.188,111.222L151.609,111.222L152.057,111.222L152.974,111.222L153.439,111.222L153.928,111.222L154.353,111.222L154.797,111.222L155.712,111.222L156.176,111.222L156.663,111.222L157.087,111.222L157.535,111.222L158.449,111.222L158.907,111.222L159.391,111.222L159.817,111.222L160.272,111.222L161.189,111.222L161.647,111.222L162.131,111.222L162.559,111.222L163.012,111.222L163.934,111.222L164.4,111.222L164.886,111.222L165.307,111.222L165.753,111.222L166.669,111.222L167.134,111.222L167.64,111.222L168.046,111.222L168.495,111.222L169.41,111.222L169.878,111.222L170.382,111.222L170.784,111.222L171.235,111.222L172.149,111.222L172.617,111.222L173.118,111.222L173.526,111.222L173.973,111.222L174.888,111.222L175.353,111.222L175.841,111.222L176.263,111.222L176.711,111.222L177.625,111.222L178.086,111.222L178.57,111.222L178.996,111.222L179.449,111.222L180.367,111.222L180.822,111.222L181.31,111.222L181.736,111.222L182.188,111.222L183.108,111.222L183.584,111.222L184.061,111.222L184.483,111.222L184.934,111.222L185.846,111.222L186.325,111.222L186.821,111.222L187.221,111.222L187.672,111.222L188.588,111.222L189.056,111.222L189.559,111.222L189.968,111.222L190.408,111.222L191.325,111.222L191.793,111.222L192.296,111.222L192.702,111.222L193.15,111.222L194.063,111.222L194.53,111.222L195.034,111.222L195.441,111.222L195.89,111.222L196.802,111.222L197.261,111.222L197.745,111.222L198.173,111.222L198.625,111.222L199.542,111.222L199.999,111.222" stroke="#72b7b2" stroke-width="2"/></g></g><path class="foreground" aria-hidden="true" d="" display="none"/></g><g transform="translate(0,0)"><path class="background" aria-hidden="true" d="M0,0h200v200h-200Z"/><g><g class="mark-line role-mark marks" role="graphics-object" aria-roledescription="line mark container"><path aria-label="Time: Aug 27, 2025; Price: 1199; identifier: allure-rs-1-2023" role="graphics-symbol" aria-roledescription="line mark" d="M35.824,66.778L36.131,66.778L36.437,66.778L36.556,66.778L37.005,66.778L37.919,66.778L38.384,66.778L38.872,66.778L39.295,66.778L39.743,66.778L40.659,66.778L41.121,66.778L41.608,66.778L42.034,66.778L42.481,66.778L43.395,66.778L43.854,66.778L44.339,66.778L44.766,66.778L45.197,66.778L45.218,66.778L46.136,66.778L46.428,66.778L46.592,66.778L47.08,66.778L47.507,66.778L47.959,66.778L48.884,66.778L49.344,66.778L49.83,66.778L50.25,66.778L50.698,66.778L51.619,66.778L52.082,66.778L52.572,66.778L52.991,66.778L53.439,66.778L54.355,66.778L54.817,66.778L55.305,66.778L55.729,66.778L56.177,66.778L57.093,66.778L57.557,66.778L58.042,66.778L58.471,66.778L58.916,66.778L59.834,66.778L60.296,66.778L60.783,66.778L61.205,66.778L61.656,66.778L62.57,66.778L62.805,66.778L63.027,66.778L63.511,66.778L63.939,66.778L64.394,66.778L65.309,66.778L65.766,66.778L66.252,66.778L66.679,66.778L67.133,66.778L68.053,66.778L68.519,66.778L69.007,66.778L69.428,66.778L69.877,66.778L70.791,66.778L71.257,66.778L71.762,66.778L72.169,66.778L72.613,66.778L73.527,66.778L73.994,66.778L74.479,66.778L74.904,66.778L75.354,66.778L76.27,66.778L76.732,66.778L77.218,66.778L77.638,66.778L78.091,66.778L79.007,66.778L79.471,66.778L79.956,66.778L80.379,66.778L80.83,66.778L81.745,66.778L82.203,66.778L82.687,66.778L83.113,66.778L83.57,66.778L84.485,66.778L84.943,66.778L85.424,66.778L85.852,66.778L86.309,66.778L87.229,66.778L87.691,66.778L88.18,66.778L88.602,66.778L89.05,66.778L89.966,66.778L90.432,66.778L90.919,66.778L91.34,66.778L91.79,66.778L92.706,66.778L93.169,66.778L93.658,66.778L94.081,66.778L94.529,66.778L95.445,66.778L95.908,66.778L96.397,66.778L96.818,66.778L97.269,66.778L98.185,66.778L98.647,66.778L99.135,66.778L99.559,66.778L100.006,66.778L100.922,66.778L101.382,66.778L101.866,66.778L102.29,66.778L102.745,66.778L103.662,66.778L104.119,66.778L104.605,66.778L105.032,66.778L105.485,66.778L106.403,66.778L106.87,66.778L107.357,66.778L107.773,66.778L108.227,66.778L109.142,66.778L109.607,66.778L110.094,66.778L110.519,66.778L110.966,66.778L111.882,66.778L112.347,66.778L112.834,66.778L113.26,66.778L113.704,66.778L114.622,66.778L115.087,66.778L115.576,66.778L115.999,66.778L116.443,66.778L117.36,66.778L117.825,66.778L118.312,66.778L118.735,66.778L119.182,66.778L120.099,66.778L120.555,66.778L121.04,66.778L121.467,66.778L121.922,66.778L122.838,66.778L123.295,66.778L123.781,66.778L124.205,66.778L124.66,66.778L125.58,66.778L126.046,66.778L126.534,66.778L126.944,66.778L127.402,66.778L128.318,66.778L128.787,66.778L129.273,66.778L129.693,66.778L130.141,66.778L131.059,66.778L131.524,66.778L132.013,66.778L132.433,66.778L132.881,66.778L133.795,66.778L134.259,66.778L134.745,66.778L135.172,66.778L135.619,66.778L136.534,66.778L136.998,66.778L137.483,66.778L137.91,66.778L138.358,66.778L139.272,66.778L139.732,66.778L140.215,66.778L140.643,66.778L141.097,66.778L142.01,66.778L142.469,66.778L142.956,66.778L143.382,66.778L143.837,66.778L144.754,66.778L145.219,66.778L145.708,66.778L146.13,66.778L146.578,66.778L147.493,66.778L147.957,66.778L148.448,66.778L148.869,66.778L149.317,66.778L150.233,66.778L150.699,66.778L151.188,66.778L151.609,66.778L152.057,66.778L152.974,66.778L153.439,66.778L153.928,66.778L154.353,66.778L154.797,66.778L155.712,66.778L156.176,66.778L156.663,66.778L157.087,66.778L157.536,66.778L158.449,66.778L158.907,66.778L159.391,66.778L159.817,66.778L160.273,66.778L161.189,66.778L161.647,66.778L162.131,66.778L162.559,66.778L163.012,66.778L163.934,66.778L164.4,66.778L164.886,66.778L165.307,66.778L165.753,66.778L166.669,66.778L167.134,66.778L167.64,66.778L168.046,66.778L168.495,66.778L169.41,66.778L169.878,66.778L170.382,66.778L170.784,66.778L171.235,66.778L172.149,66.778L172.617,66.778L173.119,66.778L173.526,66.778L173.973,66.778L174.888,66.778L175.353,66.778L175.841,66.778L176.263,66.778L176.711,66.778L177.625,66.778L178.086,66.778L178.57,66.778L178.996,66.778L179.449,66.778L180.368,66.778L180.822,66.778L181.31,66.778L181.736,66.778L182.188,66.778L183.108,66.778L183.584,66.778L184.061,66.778L184.483,66.778L184.934,66.778L185.846,66.778L186.325,66.778L186.821,66.778L187.221,66.778L187.672,66.778L188.588,66.778L189.056,66.778L189.559,66.778L189.968,66.778L190.408,66.778L191.325,66.778L191.793,66.778L192.296,66.778L192.702,66.778L193.15,66.778L194.063,66.778L194.53,66.778L195.034,66.778L195.441,66.778L195.89,66.778L196.802,66.778L197.261,66.778L197.745,66.778L198.173,66.778L198.625,66.778L199.542,66.778L199.999,66.778" stroke="#b279a2" stroke-width="2"/></g></g><path class="foreground" aria-hidden="true" d="" display="none"/></g><g transform="translate(0,0)"><path class="background" aria-hidden="true" d="M0,0h200v200h-200Z"/><g><g class="mark-line role-mark marks" role="graphics-object" aria-roledescription="line mark container"><path aria-label="Time: Aug 27, 2025; Price: 999; identifier: allure-rs-2-2022" role="graphics-symbol" aria-roledescription="line mark" d="M35.824,89L36.131,89L36.437,89L36.556,89L37.005,89L37.919,89L38.384,89L38.872,89L39.295,89L39.743,89L40.659,89L41.121,89L41.608,89L42.034,89L42.481,89L45.197,111.222L45.218,111.222L46.136,111.222L46.428,111.222L46.593,111.222L47.08,111.222L47.507,111.222L47.959,111.222L48.884,111.222L49.344,111.222L49.831,111.222L50.25,111.222L50.698,111.222L51.619,111.222L52.082,111.222L52.572,111.222L52.991,111.222L53.439,111.222L54.355,111.222L54.817,111.222L55.305,111.222L55.729,111.222L56.177,111.222L57.093,111.222L57.558,111.222L58.042,111.222L58.471,111.222L58.916,111.222L59.834,111.222L60.296,111.222L60.783,111.222L61.205,111.222L61.656,111.222L62.57,111.222L62.805,111.222L63.028,111.222L63.511,111.222L63.94,111.222L64.394,111.222L65.309,111.222L65.767,111.222L66.252,111.222L66.679,111.222L67.133,111.222L68.053,111.222L68.519,111.222L69.007,111.222L69.428,111.222L69.877,111.222L70.791,111.222L71.257,111.222L71.762,111.222L72.169,111.222L72.613,111.222L73.527,111.222L73.994,111.222L74.479,111.222L74.904,111.222L75.354,111.222L76.27,111.222L76.732,111.222L77.218,111.222L77.638,111.222L78.091,111.222L79.007,111.222L79.471,111.222L79.956,111.222L80.379,111.222L80.83,111.222L81.745,111.222L82.203,111.222L82.687,111.222L83.113,111.222L83.57,111.222L84.485,111.222L84.943,111.222L85.424,111.222L85.852,111.222L86.309,111.222L87.229,111.222L87.691,111.222L88.18,111.222L88.603,111.222L89.05,111.222L89.966,111.222L90.432,111.222L90.919,111.222L91.341,111.222L91.79,111.222L92.706,111.222L93.17,111.222L93.659,111.222L94.081,111.222L94.529,111.222L95.445,111.222L95.908,111.222L96.397,111.222L96.818,111.222L97.269,111.222L98.185,111.222L98.648,111.222L99.135,111.222L99.559,111.222L100.006,111.222L100.922,111.222L101.382,111.222L101.866,111.222L102.29,111.222L102.745,111.222L103.662,111.222L104.119,111.222L104.605,111.222L105.032,111.222L105.485,111.222L106.403,111.222L106.87,111.222L107.357,111.222L107.773,111.222L108.227,111.222L109.142,111.222L109.607,111.222L110.094,111.222L110.519,111.222L110.966,111.222L111.882,111.222L112.347,111.222L112.834,111.222L113.26,111.222L113.704,111.222L114.622,111.222L115.087,111.222L115.576,111.222L115.999,111.222L116.443,111.222L117.36,111.222L117.825,111.222L118.312,111.222L118.735,111.222L119.182,111.222L120.099,111.222L120.555,111.222L121.04,111.222L121.467,111.222L121.922,111.222L122.838,111.222L123.295,111.222L123.781,111.222L124.205,111.222L124.66,111.222L125.58,111.222L126.046,111.222L126.534,111.222L126.944,111.222L127.402,111.222L128.318,111.222L128.787,111.222L129.273,111.222L129.693,111.222L130.141,111.222L131.059,111.222L131.524,111.222L132.013,111.222L132.433,111.222L132.881,111.222L133.795,111.222L134.259,111.222L134.745,111.222L135.172,111.222L135.619,111.222L136.534,111.222L136.998,111.222L137.484,111.222L137.91,111.222L138.358,111.222L139.272,111.222L139.732,111.222L140.215,111.222L140.643,111.222L141.097,111.222L142.01,111.222L142.47,111.222L142.956,111.222L143.383,111.222L143.837,111.222L144.754,111.222L145.219,111.222L145.708,111.222L146.13,111.222L146.579,111.222L147.493,111.222L147.957,111.222L148.448,111.222L148.869,111.222L149.317,111.222L150.233,111.222L150.699,111.222L151.188,111.222L151.609,111.222L152.057,111.222L152.974,111.222L153.439,111.222L153.928,111.222L154.353,111.222L154.797,111.222L155.712,111.222L156.176,111.222L156.663,111.222L157.087,111.222L157.536,111.222L158.449,111.222L158.907,111.222L159.391,111.222L159.817,111.222L160.273,111.222L161.189,111.222L161.647,111.222L162.131,111.222L162.559,111.222L163.012,111.222L163.934,111.222L164.4,111.222L164.886,111.222L165.307,111.222L165.753,111.222L166.669,111.222L167.134,111.222L167.64,111.222L168.046,111.222L168.495,111.222L169.41,111.222L169.879,111.222L170.382,111.222L170.784,111.222L171.235,111.222L172.149,111.222L172.617,111.222L173.119,111.222L173.526,111.222L173.973,111.222L174.888,111.222L175.353,111.222L175.841,111.222L176.263,111.222L176.711,111.222L177.625,111.222L178.086,111.222L178.57,111.222L178.996,111.222L179.449,111.222L180.368,111.222L180.822,111.222L181.31,111.222L181.736,111.222L182.188,111.222L183.108,111.222L183.584,111.222L184.061,111.222L184.483,111.222L184.935,111.222L185.846,111.222L186.325,111.222L186.821,111.222L187.221,111.222L187.672,111.222L188.588,111.222L189.056,111.222L189.56,111.222L189.968,111.222L190.408,111.222L191.325,111.222L191.793,111.222L192.296,111.222L192.702,111.222L193.15,111.222L194.063,111.222L194.53,111.222L195.034,111.222L195.441,111.222L195.89,111.222L196.802,111.222L197.261,111.222L197.745,111.222L198.174,111.222L198.625,111.222L199.542,111.222L199.999,111.222" stroke="#54a24b" stroke-width="2"/></g></g><path class="foreground" aria-hidden="true" d="" display="none"/></g><g transform="translate(0,0)"><path class="background" aria-hidden="true" d="M0,0h200v200h-200Z"/><g><g class="mark-line role-mark marks" role="graphics-object" aria-roledescription="line mark container"><path aria-label="Time: Aug 27, 2025; Price: 949; identifier: allure-rs-2-2023" role="graphics-symbol" aria-roledescription="line mark" d="M35.824,94.556L36.131,94.556L36.437,94.556L36.556,94.556L37.005,94.556L37.92,94.556L38.384,94.556L38.872,94.556L39.295,94.556L39.743,94.556L40.659,94.556L41.122,94.556L41.608,94.556L42.034,94.556L42.481,94.556L43.395,94.556L43.854,94.556L44.339,94.556L44.766,94.556L45.197,94.556L45.218,94.556L46.136,94.556L46.428,94.556L46.593,94.556L47.08,94.556L47.507,94.556L47.959,94.556L48.884,94.556L49.344,94.556L49.831,94.556L50.25,94.556L50.698,94.556L51.619,94.556L52.082,94.556L52.572,94.556L52.991,94.556L53.439,94.556L54.355,94.556L54.817,94.556L55.305,94.556L55.729,94.556L56.177,94.556L57.094,94.556L57.558,94.556L58.042,94.556L58.471,94.556L58.916,94.556L59.834,94.556L60.296,94.556L60.783,94.556L61.205,94.556L61.656,94.556L62.57,94.556L62.805,94.556L63.028,94.556L63.511,94.556L63.94,94.556L64.394,94.556L65.309,94.556L65.767,94.556L66.252,94.556L66.679,94.556L67.133,94.556L68.053,94.556L68.519,94.556L69.008,94.556L69.428,94.556L69.877,94.556L70.791,94.556L71.257,94.556L71.762,94.556L72.169,94.556L72.613,94.556L73.527,94.556L73.994,94.556L74.48,94.556L74.904,94.556L75.354,94.556L76.27,94.556L76.732,94.556L77.218,94.556L77.639,94.556L78.091,94.556L79.007,94.556L79.471,94.556L79.956,94.556L80.379,94.556L80.83,94.556L81.745,94.556L82.203,94.556L82.687,94.556L83.113,94.556L83.57,94.556L84.485,94.556L84.943,94.556L85.425,94.556L85.852,94.556L86.309,94.556L87.229,94.556L87.691,94.556L88.18,94.556L88.603,94.556L89.05,94.556L89.966,94.556L90.432,94.556L90.919,94.556L91.341,94.556L91.79,94.556L92.706,94.556L93.17,94.556L93.659,94.556L94.081,94.556L94.529,94.556L95.445,94.556L95.908,94.556L96.397,94.556L96.818,94.556L97.269,94.556L98.185,94.556L98.648,94.556L99.135,94.556L99.559,94.556L100.006,94.556L100.922,94.556L101.382,94.556L101.867,94.556L102.29,94.556L102.745,94.556L103.663,94.556L104.119,94.556L104.605,94.556L105.032,94.556L105.486,94.556L106.403,94.556L106.87,94.556L107.357,94.556L107.773,94.556L108.227,94.556L109.142,94.556L109.607,94.556L110.094,94.556L110.519,94.556L110.966,94.556L111.882,94.556L112.347,94.556L112.834,94.556L113.26,94.556L113.704,94.556L114.622,94.556L115.088,94.556L115.576,94.556L115.999,94.556L116.443,94.556L117.36,94.556L117.825,94.556L118.312,94.556L118.735,94.556L119.182,94.556L120.099,94.556L120.555,94.556L121.04,94.556L121.467,94.556L121.922,94.556L122.838,94.556L123.295,94.556L123.781,94.556L124.205,94.556L124.661,94.556L125.58,94.556L126.047,94.556L126.534,94.556L126.944,94.556L127.402,94.556L128.318,94.556L128.787,94.556L129.273,94.556L129.693,94.556L130.141,94.556L131.059,94.556L131.524,94.556L132.013,94.556L132.434,94.556L132.881,94.556L133.795,94.556L134.259,94.556L134.745,94.556L135.172,94.556L135.619,94.556L136.534,94.556L136.998,94.556L137.484,94.556L137.91,94.556L138.358,94.556L139.272,94.556L139.732,94.556L140.215,94.556L140.644,94.556L141.097,94.556L142.011,94.556L142.47,94.556L142.956,94.556L143.383,94.556L143.837,94.556L144.754,94.556L145.219,94.556L145.708,94.556L146.13,94.556L146.579,94.556L147.493,94.556L147.957,94.556L148.448,94.556L148.869,94.556L149.317,94.556L150.233,94.556L150.699,94.556L151.188,94.556L151.609,94.556L152.057,94.556L152.974,94.556L153.439,94.556L153.928,94.556L154.353,94.556L154.797,94.556L155.712,94.556L156.176,94.556L156.663,94.556L157.087,94.556L157.536,94.556L158.449,94.556L158.907,94.556L159.391,94.556L159.817,94.556L160.273,94.556L161.189,94.556L161.647,94.556L162.131,94.556L162.559,94.556L163.012,94.556L163.934,94.556L164.4,94.556L164.886,94.556L165.307,94.556L165.753,94.556L166.669,94.556L167.134,94.556L167.64,94.556L168.047,94.556L168.495,94.556L169.41,94.556L169.879,94.556L170.382,94.556L170.784,94.556L171.235,94.556L172.149,94.556L172.618,94.556L173.119,94.556L173.526,94.556L173.973,94.556L174.888,94.556L175.353,94.556L175.841,94.556L176.263,94.556L176.711,94.556L177.625,94.556L178.086,94.556L178.57,94.556L178.996,94.556L179.449,94.556L180.368,94.556L180.822,94.556L181.31,94.556L181.736,94.556L182.188,94.556L183.108,94.556L183.584,94.556L184.061,94.556L184.483,94.556L184.935,94.556L185.846,94.556L186.325,94.556L186.821,94.556L187.221,94.556L187.672,94.556L188.588,94.556L189.056,94.556L189.56,94.556L189.968,94.556L190.408,94.556L191.325,94.556L191.793,94.556L192.296,94.556L192.702,94.556L193.15,94.556L194.064,94.556L194.53,94.556L195.034,94.556L195.441,94.556L195.89,94.556L196.802,94.556L197.261,94.556L197.745,94.556L198.174,94.556L198.625,94.556L199.542,94.556L200,94.556" stroke="#bab0ac" stroke-width="2"/></g></g><path class="foreground" aria-hidden="true" d="" display="none"/></g><g transform="translate(0,0)"><path class="background" aria-hidden="true" d="M0,0h200v200h-200Z"/><g><g class="mark-line role-mark marks" role="graphics-object" aria-roledescription="line mark container"><path aria-label="Time: Aug 27, 2025; Price: 999; identifier: allure-rs-2-2024" role="graphics-symbol" aria-roledescription="line mark" d="M35.824,89L36.131,89L36.437,89L36.556,89L37.005,89L37.92,89L38.384,89L38.872,89L39.295,89L39.743,89L40.659,89L41.122,89L41.608,89L42.034,89L42.481,89L45.197,111.222L45.218,111.222L46.136,111.222L46.428,111.222L46.593,111.222L47.08,111.222L47.507,111.222L47.959,111.222L48.884,111.222L49.344,111.222L49.831,111.222L50.25,111.222L50.698,111.222L51.619,111.222L52.082,111.222L52.572,111.222L52.991,111.222L53.439,111.222L54.355,111.222L54.817,111.222L55.305,111.222L55.729,111.222L56.177,111.222L57.094,111.222L57.558,111.222L58.042,111.222L58.471,111.222L58.916,111.222L59.834,111.222L60.296,111.222L60.783,111.222L61.205,111.222L61.656,111.222L62.57,111.222L62.805,111.222L63.028,111.222L63.511,111.222L63.94,111.222L64.394,111.222L65.309,111.222L65.767,111.222L66.252,111.222L66.679,111.222L67.133,111.222L68.053,111.222L68.519,111.222L69.008,111.222L69.428,111.222L69.877,111.222L70.791,111.222L71.257,111.222L71.762,111.222L72.17,111.222L72.613,111.222L73.527,111.222L73.994,111.222L74.48,111.222L74.905,111.222L75.354,111.222L76.27,111.222L76.732,111.222L77.218,111.222L77.639,111.222L78.091,111.222L79.007,111.222L79.471,111.222L79.956,111.222L80.379,111.222L80.83,111.222L81.745,111.222L82.203,111.222L82.687,111.222L83.113,111.222L83.57,111.222L84.485,111.222L84.943,111.222L85.425,111.222L85.852,111.222L86.309,111.222L87.229,111.222L87.691,111.222L88.181,111.222L88.603,111.222L89.051,111.222L89.966,111.222L90.433,111.222L90.919,111.222L91.341,111.222L91.79,111.222L92.706,111.222L93.17,111.222L93.659,111.222L94.081,111.222L94.529,111.222L95.445,111.222L95.908,111.222L96.397,111.222L96.818,111.222L97.269,111.222L98.185,111.222L98.648,111.222L99.135,111.222L99.559,111.222L100.006,111.222L100.922,111.222L101.382,111.222L101.867,111.222L102.29,111.222L102.745,111.222L103.663,111.222L104.119,111.222L104.605,111.222L105.032,111.222L105.486,111.222L106.403,111.222L106.87,111.222L107.357,111.222L107.773,111.222L108.227,111.222L109.142,111.222L109.607,111.222L110.094,111.222L110.519,111.222L110.966,111.222L111.882,111.222L112.347,111.222L112.834,111.222L113.26,111.222L113.704,111.222L114.622,111.222L115.088,111.222L115.576,111.222L115.999,111.222L116.443,111.222L117.36,111.222L117.825,111.222L118.312,111.222L118.735,111.222L119.182,111.222L120.099,111.222L120.555,111.222L121.041,111.222L121.468,111.222L121.922,111.222L122.838,111.222L123.295,111.222L123.781,111.222L124.205,111.222L124.661,111.222L125.58,111.222L126.047,111.222L126.534,111.222L126.944,111.222L127.402,111.222L128.318,111.222L128.787,111.222L129.273,111.222L129.693,111.222L130.141,111.222L131.059,111.222L131.524,111.222L132.013,111.222L132.434,111.222L132.881,111.222L133.795,111.222L134.259,111.222L134.745,111.222L135.172,111.222L135.619,111.222L136.534,111.222L136.998,111.222L137.484,111.222L137.91,111.222L138.358,111.222L139.272,111.222L139.732,111.222L140.215,111.222L140.644,111.222L141.097,111.222L142.011,111.222L142.47,111.222L142.956,111.222L143.383,111.222L143.837,111.222L144.754,111.222L145.219,111.222L145.708,111.222L146.13,111.222L146.579,111.222L147.493,111.222L147.958,111.222L148.448,111.222L148.87,111.222L149.317,111.222L150.234,111.222L150.699,111.222L151.188,111.222L151.609,111.222L152.057,111.222L152.974,111.222L153.439,111.222L153.928,111.222L154.353,111.222L154.797,111.222L155.712,111.222L156.176,111.222L156.663,111.222L157.087,111.222L157.536,111.222L158.449,111.222L158.907,111.222L159.391,111.222L159.817,111.222L160.273,111.222L161.189,111.222L161.647,111.222L162.131,111.222L162.559,111.222L163.012,111.222L163.934,111.222L164.4,111.222L164.886,111.222L165.308,111.222L165.753,111.222L166.669,111.222L167.134,111.222L167.64,111.222L168.047,111.222L168.495,111.222L169.41,111.222L169.879,111.222L170.382,111.222L170.784,111.222L171.235,111.222L172.149,111.222L172.618,111.222L173.119,111.222L173.526,111.222L173.973,111.222L174.888,111.222L175.353,111.222L175.841,111.222L176.264,111.222L176.711,111.222L177.625,111.222L178.086,111.222L178.57,111.222L178.996,111.222L179.449,111.222L180.368,111.222L180.822,111.222L181.31,111.222L181.736,111.222L182.188,111.222L183.108,111.222L183.585,111.222L184.061,111.222L184.483,111.222L184.935,111.222L185.846,111.222L186.325,111.222L186.821,111.222L187.221,111.222L187.672,111.222L188.588,111.222L189.056,111.222L189.56,111.222L189.968,111.222L190.408,111.222L191.325,111.222L191.793,111.222L192.296,111.222L192.702,111.222L193.15,111.222L194.064,111.222L194.53,111.222L195.034,111.222L195.441,111.222L195.89,111.222L196.802,111.222L197.261,111.222L197.745,111.222L198.174,111.222L198.625,111.222L199.542,111.222L200,111.222" stroke="#eeca3b" stroke-width="2"/></g></g><path class="foreground" aria-hidden="true" d="" display="none"/></g><g transform="translate(0,0)"><path class="background" aria-hidden="true" d="M0,0h200v200h-200Z"/><g><g class="mark-line role-mark marks" role="graphics-object" aria-roledescription="line mark container"><path aria-label="Time: Aug 27, 2025; Price: 1799; identifier: devote-1-2024" role="graphics-symbol" aria-roledescription="line mark" d="M36.437,0.111L36.557,0.111L37.005,0.111L37.92,0.111L38.384,0.111L38.872,0.111L39.295,0.111L39.743,0.111L40.659,0.111L41.122,0.111L41.608,0.111L42.034,0.111L42.481,0.111L45.197,44.556L45.219,44.556L46.136,44.556L46.428,44.556L46.593,44.556L47.08,44.556L47.507,44.556L47.959,44.556L48.884,44.556L49.345,44.556L49.831,44.556L50.25,44.556L50.698,44.556L51.619,44.556L52.082,44.556L52.572,44.556L52.991,44.556L53.439,44.556L54.355,44.556L54.817,44.556L55.305,44.556L55.729,44.556L56.177,44.556L57.094,44.556L57.558,44.556L58.042,44.556L58.471,44.556L58.916,44.556L59.834,44.556L60.296,44.556L60.783,44.556L61.205,44.556L61.656,44.556L62.571,44.556L62.805,44.556L63.028,44.556L63.511,44.556L63.94,44.556L64.394,44.556L65.309,44.556L65.767,44.556L66.252,44.556L66.679,44.556L67.134,44.556L68.053,44.556L68.519,44.556L69.008,44.556L69.428,44.556L69.877,44.556L70.791,44.556L71.257,44.556L71.762,44.556L72.17,44.556L72.613,44.556L73.527,44.556L73.994,44.556L74.48,44.556L74.905,44.556L75.354,44.556L76.27,44.556L76.732,44.556L77.218,44.556L77.639,44.556L78.091,44.556L79.007,44.556L79.471,44.556L79.956,44.556L80.379,44.556L80.83,44.556L81.745,44.556L82.203,44.556L82.687,44.556L83.113,44.556L83.57,44.556L84.485,44.556L84.943,44.556L85.425,44.556L85.852,44.556L86.309,44.556L87.229,44.556L87.691,44.556L88.181,44.556L88.603,44.556L89.051,44.556L89.966,44.556L90.433,44.556L90.919,44.556L91.341,44.556L91.79,44.556L92.707,44.556L93.17,44.556L93.659,44.556L94.081,44.556L94.529,44.556L95.445,44.556L95.908,44.556L96.397,44.556L96.819,44.556L97.269,44.556L98.185,44.556L98.648,44.556L99.136,44.556L99.559,44.556L100.006,44.556L100.922,44.556L101.382,44.556L101.867,44.556L102.29,44.556L102.745,44.556L103.663,44.556L104.119,44.556L104.605,44.556L105.032,44.556L105.486,44.556L106.404,44.556L106.87,44.556L107.357,44.556L107.773,44.556L108.227,44.556L109.142,44.556L109.607,44.556L110.095,44.556L110.519,44.556L110.967,44.556L111.882,44.556L112.347,44.556L112.834,44.556L113.26,44.556L113.704,44.556L114.622,44.556L115.088,44.556L115.576,44.556L115.999,44.556L116.443,44.556L117.36,44.556L117.826,44.556L118.312,44.556L118.736,44.556L119.182,44.556L120.099,44.556L120.556,44.556L121.041,44.556L121.468,44.556L121.922,44.556L122.838,44.556L123.295,44.556L123.781,44.556L124.205,44.556L124.661,44.556L125.58,44.556L126.047,44.556L126.535,44.556L126.944,44.556L127.402,44.556L128.318,44.556L128.787,44.556L129.273,44.556L129.693,44.556L130.141,44.556L131.06,44.556L131.524,44.556L132.013,44.556L132.434,44.556L132.881,44.556L133.795,44.556L134.259,44.556L134.746,44.556L135.172,44.556L135.619,44.556L136.534,44.556L136.998,44.556L137.484,44.556L137.91,44.556L138.358,44.556L139.273,44.556L139.732,44.556L140.216,44.556L140.644,44.556L141.097,44.556L142.011,44.556L142.47,44.556L142.956,44.556L143.383,44.556L143.837,44.556L144.754,44.556L145.219,44.556L145.708,44.556L146.131,44.556L146.579,44.556L147.493,44.556L147.958,44.556L148.448,44.556L148.87,44.556L149.317,44.556L150.234,44.556L150.699,44.556L151.188,44.556L151.609,44.556L152.057,44.556L152.974,44.556L153.439,44.556L153.928,44.556L154.353,44.556L154.797,44.556L155.712,44.556L156.176,44.556L156.663,44.556L157.087,44.556L157.536,44.556L158.449,44.556L158.907,44.556L159.392,44.556L159.817,44.556L160.273,44.556L161.189,44.556L161.647,44.556L162.132,44.556L162.559,44.556L163.012,44.556L163.934,44.556L164.401,44.556L164.886,44.556L165.308,44.556L165.753,44.556L166.669,44.556L167.134,44.556L167.64,44.556L168.047,44.556L168.495,44.556L169.41,44.556L169.879,44.556L170.382,44.556L170.785,44.556L171.235,44.556L172.15,44.556L172.618,44.556L173.119,44.556L173.526,44.556L173.973,44.556L174.888,44.556L175.353,44.556L175.841,44.556L176.264,44.556L176.711,44.556L177.625,44.556L178.087,44.556L178.57,44.556L178.996,44.556L179.449,44.556L180.368,44.556L180.822,44.556L181.31,44.556L181.736,44.556L182.188,44.556L183.108,44.556L183.585,44.556L184.061,44.556L184.483,44.556L184.935,44.556L185.846,44.556L186.325,44.556L186.821,44.556L187.221,44.556L187.672,44.556L188.589,44.556L189.056,44.556L189.56,44.556L189.968,44.556L190.408,44.556L191.325,44.556L191.793,44.556L192.296,44.556L192.702,44.556L193.15,44.556L194.064,44.556L194.53,44.556L195.034,44.556L195.441,44.556L195.89,44.556L196.802,44.556L197.261,44.556L197.745,44.556L198.174,44.556L198.625,44.556L199.542,44.556L200,44.556" stroke="#72b7b2" stroke-width="2"/></g></g><path class="foreground" aria-hidden="true" d="" display="none"/></g><g transform="translate(0,0)"><path class="background" aria-hidden="true" d="M0,0h200v200h-200Z"/><g><g class="mark-line role-mark marks" role="graphics-object" aria-roledescription="line mark container"><path aria-label="Time: Aug 27, 2025; Price: 1699; identifier: devote-1-2022" role="graphics-symbol" aria-roledescription="line mark" d="M36.437,11.222L36.557,11.222L37.005,11.222L37.92,11.222L38.384,11.222L38.872,11.222L39.296,11.222L39.743,11.222L40.659,11.222L41.122,11.222L41.608,11.222L42.034,11.222L42.481,11.222L43.395,11.222L43.855,11.222L44.339,11.222L44.767,11.222L45.197,11.222L45.219,11.222L46.136,11.222L46.429,11.222L46.593,11.222L47.08,11.222L47.507,11.222L47.959,11.222L48.884,11.222L49.345,11.222L49.831,11.222L50.25,11.222L50.698,11.222L51.619,11.222L52.082,11.222L52.572,11.222L52.991,11.222L53.439,11.222L54.355,11.222L54.817,11.222L55.305,11.222L55.729,11.222L56.177,11.222L57.094,11.222L57.558,11.222L58.042,11.222L58.471,11.222L58.916,11.222L59.834,11.222L60.296,11.222L60.783,11.222L61.205,11.222L61.656,11.222L62.571,11.222L62.805,11.222L63.028,11.222L63.511,11.222L63.94,11.222L64.394,11.222L65.309,11.222L65.767,11.222L66.252,11.222L66.679,11.222L67.134,11.222L68.053,11.222L68.519,11.222L69.008,11.222L69.428,11.222L69.877,11.222L70.791,11.222L71.257,11.222L71.763,11.222L72.17,11.222L72.613,11.222L73.527,11.222L73.994,11.222L74.48,11.222L74.905,11.222L75.354,11.222L76.27,11.222L76.732,11.222L77.218,11.222L77.639,11.222L78.091,11.222L79.007,11.222L79.471,11.222L79.956,11.222L80.379,11.222L80.83,11.222L81.745,11.222L82.204,11.222L82.687,11.222L83.113,11.222L83.57,11.222L84.485,11.222L84.943,11.222L85.425,11.222L85.852,11.222L86.309,11.222L87.229,11.222L87.691,11.222L88.181,11.222L88.603,11.222L89.052,11.222L89.966,11.222L90.433,11.222L90.919,11.222L91.341,11.222L91.79,11.222L92.707,11.222L93.17,11.222L93.659,11.222L94.081,11.222L94.529,11.222L95.446,11.222L95.908,11.222L96.397,11.222L96.819,11.222L97.269,11.222L98.185,11.222L98.648,11.222L99.136,11.222L99.559,11.222L100.007,11.222L100.922,11.222L101.382,11.222L101.867,11.222L102.29,11.222L102.745,11.222L103.663,11.222L104.119,11.222L104.605,11.222L105.032,11.222L105.486,11.222L106.404,11.222L106.87,11.222L107.357,11.222L107.773,11.222L108.227,11.222L109.142,11.222L109.607,11.222L110.095,11.222L110.519,11.222L110.967,11.222L111.882,11.222L112.347,11.222L112.835,11.222L113.26,11.222L113.704,11.222L114.622,11.222L115.088,11.222L115.576,11.222L115.999,11.222L116.443,11.222L117.36,11.222L117.826,11.222L118.312,11.222L118.736,11.222L119.183,11.222L120.099,11.222L120.556,11.222L121.041,11.222L121.468,11.222L121.922,11.222L122.838,11.222L123.295,11.222L123.781,11.222L124.205,11.222L124.661,11.222L125.58,11.222L126.047,11.222L126.535,11.222L126.944,11.222L127.402,11.222L128.319,11.222L128.787,11.222L129.273,11.222L129.693,11.222L130.141,11.222L131.06,11.222L131.524,11.222L132.013,11.222L132.434,11.222L132.881,11.222L133.795,11.222L134.259,11.222L134.746,11.222L135.172,11.222L135.619,11.222L136.534,11.222L136.998,11.222L137.484,11.222L137.91,11.222L138.358,11.222L139.273,11.222L139.732,11.222L140.216,11.222L140.644,11.222L141.097,11.222L142.011,11.222L142.47,11.222L142.956,11.222L143.383,11.222L143.837,11.222L144.754,11.222L145.219,11.222L145.708,11.222L146.131,11.222L146.579,11.222L147.493,11.222L147.958,11.222L148.448,11.222L148.87,11.222L149.317,11.222L150.234,11.222L150.7,11.222L151.188,11.222L151.609,11.222L152.057,11.222L152.974,11.222L153.439,11.222L153.928,11.222L154.353,11.222L154.797,11.222L155.712,11.222L156.176,11.222L156.663,11.222L157.087,11.222L157.536,11.222L158.449,11.222L158.908,11.222L159.392,11.222L159.817,11.222L160.273,11.222L161.189,11.222L161.647,11.222L162.132,11.222L162.559,11.222L163.012,11.222L163.934,11.222L164.401,11.222L164.886,11.222L165.308,11.222L165.753,11.222L166.67,11.222L167.134,11.222L167.64,11.222L168.047,11.222L168.495,11.222L169.41,11.222L169.879,11.222L170.382,11.222L170.785,11.222L171.235,11.222L172.15,11.222L172.618,11.222L173.119,11.222L173.526,11.222L173.973,11.222L174.888,11.222L175.353,11.222L175.841,11.222L176.264,11.222L176.711,11.222L177.625,11.222L178.087,11.222L178.57,11.222L178.996,11.222L179.449,11.222L180.368,11.222L180.823,11.222L181.31,11.222L181.736,11.222L182.188,11.222L183.108,11.222L183.585,11.222L184.061,11.222L184.483,11.222L184.935,11.222L185.846,11.222L186.325,11.222L186.821,11.222L187.221,11.222L187.672,11.222L188.589,11.222L189.056,11.222L189.56,11.222L189.968,11.222L190.408,11.222L191.325,11.222L191.793,11.222L192.296,11.222L192.702,11.222L193.15,11.222L194.064,11.222L194.53,11.222L195.034,11.222L195.442,11.222L195.89,11.222L196.802,11.222L197.261,11.222L197.745,11.222L198.174,11.222L198.625,11.222L199.542,11.222L200,11.222" stroke="#4c78a8" stroke-width="2"/></g></g><path class="foreground" aria-hidden="true" d="" display="none"/></g><g transform="translate(0,0)"><path class="background" aria-hidden="true" d="M0,0h200v200h-200Z"/><g><g class="mark-line role-mark marks" role="graphics-object" aria-roledescription="line mark container"><path aria-label="Time: Aug 31, 2025; Price: 1599; identifier: silex-400-oak-bork-2026" role="graphics-symbol" aria-roledescription="line mark" d="M46.429,22.333L46.593,22.333L47.08,22.333L47.507,22.333L47.959,22.333L48.884,22.333L49.345,22.333L49.831,22.333L50.25,22.333L50.698,22.333L51.619,22.333L52.082,22.333L52.572,22.333L52.991,22.333L53.439,22.333L54.355,22.333L54.817,22.333L55.305,22.333L55.729,22.333L56.178,22.333L57.094,22.333L57.558,22.333L58.042,22.333L58.471,22.333L58.916,22.333L59.834,22.333L60.296,22.333L60.783,22.333L61.205,22.333L61.657,22.333L62.571,22.333L62.806,22.333L63.028,22.333L63.511,22.333L63.94,22.333L64.394,22.333L65.309,22.333L65.767,22.333L66.252,22.333L66.679,22.333L67.134,22.333L68.053,22.333L68.519,22.333L69.008,22.333L69.429,22.333L69.877,22.333L70.792,22.333L71.257,22.333L71.763,22.333L72.17,22.333L72.614,22.333L73.527,22.333L73.994,22.333L74.48,22.333L74.905,22.333L75.354,22.333L76.27,22.333L76.733,22.333L77.218,22.333L77.639,22.333L78.091,22.333L79.007,22.333L79.471,22.333L79.956,22.333L80.379,22.333L80.83,22.333L81.745,22.333L82.204,22.333L82.687,22.333L83.114,22.333L83.57,22.333L84.485,22.333L84.943,22.333L85.425,22.333L85.852,22.333L86.309,22.333L87.229,22.333L87.691,22.333L88.181,22.333L88.604,22.333L89.052,22.333L89.966,22.333L90.433,22.333L90.919,22.333L91.341,22.333L91.79,22.333L92.707,22.333L93.17,22.333L93.659,22.333L94.081,22.333L94.529,22.333L95.446,22.333L95.908,22.333L96.398,22.333L96.819,22.333L97.269,22.333L98.185,22.333L98.648,22.333L99.136,22.333L99.56,22.333L100.007,22.333L100.923,22.333L101.382,22.333L101.867,22.333L102.291,22.333L102.745,22.333L103.663,22.333L104.119,22.333L104.605,22.333L105.032,22.333L105.486,22.333L106.404,22.333L106.87,22.333L107.358,22.333L107.773,22.333L108.228,22.333L109.142,22.333L109.607,22.333L110.095,22.333L110.519,22.333L110.967,22.333L111.883,22.333L112.348,22.333L112.835,22.333L113.26,22.333L113.704,22.333L114.622,22.333L115.088,22.333L115.576,22.333L115.999,22.333L116.443,22.333L117.36,22.333L117.826,22.333L118.312,22.333L118.736,22.333L119.183,22.333L120.099,22.333L120.556,22.333L121.041,22.333L121.468,22.333L121.923,22.333L122.838,22.333L123.295,22.333L123.781,22.333L124.205,22.333L124.661,22.333L125.581,22.333L126.047,22.333L126.535,22.333L126.945,22.333L127.402,22.333L128.319,22.333L128.787,22.333L129.274,22.333L129.693,22.333L130.142,22.333L131.06,22.333L131.525,22.333L132.014,22.333L132.434,22.333L132.881,22.333L133.795,22.333L134.259,22.333L134.746,22.333L135.173,22.333L135.619,22.333L136.534,22.333L136.999,22.333L137.484,22.333L137.91,22.333L138.358,22.333L139.273,22.333L139.732,22.333L140.216,22.333L140.644,22.333L141.097,22.333L142.011,22.333L142.47,22.333L142.956,22.333L143.383,22.333L143.837,22.333L144.754,22.333L145.219,22.333L145.708,22.333L146.131,22.333L146.579,22.333L147.493,22.333L147.958,22.333L148.448,22.333L148.87,22.333L149.318,22.333L150.234,22.333L150.7,22.333L151.188,22.333L151.609,22.333L152.057,22.333L152.974,22.333L153.439,22.333L153.928,22.333L154.353,22.333L154.797,22.333L155.712,22.333L156.176,22.333L156.664,22.333L157.087,22.333L157.536,22.333L158.449,22.333L158.908,22.333L159.392,22.333L159.817,22.333L160.273,22.333L161.189,22.333L161.647,22.333L162.132,22.333L162.559,22.333L163.012,22.333L163.934,22.333L164.401,22.333L164.886,22.333L165.308,22.333L165.753,22.333L166.67,22.333L167.134,22.333L167.64,22.333L168.047,22.333L168.495,22.333L169.41,22.333L169.879,22.333L170.383,22.333L170.785,22.333L171.236,22.333L172.151,22.333L172.618,22.333L173.119,22.333L173.526,22.333L173.973,22.333L174.889,22.333L175.353,22.333L175.841,22.333L176.264,22.333L176.711,22.333L177.625,22.333L178.087,22.333L178.57,22.333L178.997,22.333L179.449,22.333L180.368,22.333L180.823,22.333L181.31,22.333L181.736,22.333L182.188,22.333L183.108,22.333L183.585,22.333L184.061,22.333L184.483,22.333L184.935,22.333L185.846,22.333L186.325,22.333L186.821,22.333L187.221,22.333L187.673,22.333L188.589,22.333L189.057,22.333L189.56,22.333L189.968,22.333L190.409,22.333L191.325,22.333L191.793,22.333L192.296,22.333L192.702,22.333L193.15,22.333L194.064,22.333L194.531,22.333L195.034,22.333L195.442,22.333L195.89,22.333L196.802,22.333L197.261,22.333L197.745,22.333L198.174,22.333L198.625,22.333L199.542,22.333L200,22.333" stroke="#f58518" stroke-width="2"/></g></g><path class="foreground" aria-hidden="true" d="" display="none"/></g><g transform="translate(0,0)"><path class="background" aria-hidden="true" d="M0,0h200v200h-200Z"/><g><g class="mark-line role-mark marks" role="graphics-object" aria-roledescription="line mark container"><path aria-label="Time: Aug 31, 2025; Price: 1599; identifier: silex-400-warm-slate-grey-2026" role="graphics-symbol" aria-roledescription="line mark" d="M46.429,22.333L46.593,22.333L47.08,22.333L47.508,22.333L47.959,22.333L48.884,22.333L49.345,22.333L49.831,22.333L50.251,22.333L50.698,22.333L51.619,22.333L52.082,22.333L52.572,22.333L52.992,22.333L53.439,22.333L54.355,22.333L54.817,22.333L55.305,22.333L55.73,22.333L56.178,22.333L57.094,22.333L57.558,22.333L58.042,22.333L58.471,22.333L58.917,22.333L59.834,22.333L60.297,22.333L60.783,22.333L61.205,22.333L61.657,22.333L62.571,22.333L62.806,22.333L63.028,22.333L63.511,22.333L63.94,22.333L64.395,22.333L65.309,22.333L65.767,22.333L66.252,22.333L66.68,22.333L67.134,22.333L68.053,22.333L68.519,22.333L69.008,22.333L69.429,22.333L69.877,22.333L70.792,22.333L71.258,22.333L71.763,22.333L72.17,22.333L72.614,22.333L73.527,22.333L73.994,22.333L74.48,22.333L74.905,22.333L75.354,22.333L76.27,22.333L76.733,22.333L77.218,22.333L77.639,22.333L78.091,22.333L79.008,22.333L79.471,22.333L79.956,22.333L80.379,22.333L80.83,22.333L81.745,22.333L82.204,22.333L82.688,22.333L83.114,22.333L83.57,22.333L84.486,22.333L84.943,22.333L85.425,22.333L85.852,22.333L86.31,22.333L87.229,22.333L87.691,22.333L88.181,22.333L88.604,22.333L89.052,22.333L89.967,22.333L90.433,22.333L90.919,22.333L91.341,22.333L91.791,22.333L92.707,22.333L93.17,22.333L93.659,22.333L94.081,22.333L94.529,22.333L95.446,22.333L95.909,22.333L96.398,22.333L96.819,22.333L97.269,22.333L98.185,22.333L98.648,22.333L99.136,22.333L99.56,22.333L100.007,22.333L100.923,22.333L101.382,22.333L101.867,22.333L102.291,22.333L102.745,22.333L103.663,22.333L104.12,22.333L104.606,22.333L105.032,22.333L105.486,22.333L106.404,22.333L106.87,22.333L107.358,22.333L107.774,22.333L108.228,22.333L109.142,22.333L109.607,22.333L110.095,22.333L110.519,22.333L110.967,22.333L111.883,22.333L112.348,22.333L112.836,22.333L113.26,22.333L113.704,22.333L114.622,22.333L115.088,22.333L115.576,22.333L115.999,22.333L116.443,22.333L117.36,22.333L117.826,22.333L118.313,22.333L118.736,22.333L119.183,22.333L120.099,22.333L120.556,22.333L121.041,22.333L121.468,22.333L121.923,22.333L122.839,22.333L123.296,22.333L123.781,22.333L124.205,22.333L124.661,22.333L125.581,22.333L126.047,22.333L126.535,22.333L126.945,22.333L127.402,22.333L128.319,22.333L128.788,22.333L129.274,22.333L129.693,22.333L130.142,22.333L131.06,22.333L131.525,22.333L132.014,22.333L132.434,22.333L132.882,22.333L133.796,22.333L134.259,22.333L134.746,22.333L135.173,22.333L135.619,22.333L136.534,22.333L136.999,22.333L137.484,22.333L137.91,22.333L138.358,22.333L139.273,22.333L139.732,22.333L140.216,22.333L140.644,22.333L141.097,22.333L142.011,22.333L142.47,22.333L142.956,22.333L143.383,22.333L143.838,22.333L144.754,22.333L145.22,22.333L145.708,22.333L146.131,22.333L146.579,22.333L147.493,22.333L147.958,22.333L148.448,22.333L148.87,22.333L149.318,22.333L150.234,22.333L150.7,22.333L151.188,22.333L151.61,22.333L152.057,22.333L152.975,22.333L153.439,22.333L153.929,22.333L154.353,22.333L154.797,22.333L155.713,22.333L156.176,22.333L156.664,22.333L157.087,22.333L157.536,22.333L158.45,22.333L158.908,22.333L159.392,22.333L159.817,22.333L160.273,22.333L161.189,22.333L161.647,22.333L162.132,22.333L162.559,22.333L163.012,22.333L163.934,22.333L164.401,22.333L164.886,22.333L165.308,22.333L165.753,22.333L166.67,22.333L167.135,22.333L167.64,22.333L168.047,22.333L168.495,22.333L169.41,22.333L169.879,22.333L170.383,22.333L170.785,22.333L171.236,22.333L172.151,22.333L172.618,22.333L173.119,22.333L173.526,22.333L173.973,22.333L174.889,22.333L175.353,22.333L175.841,22.333L176.264,22.333L176.712,22.333L177.625,22.333L178.087,22.333L178.57,22.333L178.997,22.333L179.449,22.333L180.368,22.333L180.823,22.333L181.31,22.333L181.736,22.333L182.189,22.333L183.109,22.333L183.585,22.333L184.062,22.333L184.483,22.333L184.935,22.333L185.846,22.333L186.325,22.333L186.822,22.333L187.222,22.333L187.673,22.333L188.589,22.333L189.057,22.333L189.56,22.333L189.968,22.333L190.409,22.333L191.326,22.333L191.793,22.333L192.296,22.333L192.703,22.333L193.151,22.333L194.064,22.333L194.531,22.333L195.034,22.333L195.442,22.333L195.89,22.333L196.802,22.333L197.261,22.333L197.746,22.333L198.174,22.333L198.625,22.333L199.542,22.333L200,22.333" stroke="#e45756" stroke-width="2"/></g></g><path class="foreground" aria-hidden="true" d="" display="none"/></g></g><g class="mark-group role-legend" role="graphics-symbol" aria-roledescription="legend" aria-label="Symbol legend titled 'identifier' for stroke color with 16 values: devote-1-2022, silex-400-oak-bork-2026, silex-400-warm-slate-grey-2026, devote-1-2024, fastroad-ar-2, ending with allure-rs-2-2024"><g transform="translate(220,0)"><path class="background" aria-hidden="true" d="M0,0h256v222h-256Z" pointer-events="none"/><g><g class="mark-group role-legend-entry"><g transform="translate(0,16)"><path class="background" aria-hidden="true" d="M0,0h0v0h0Z" pointer-events="none"/><g><g class="mark-group role-scope" role="graphics-object" aria-roledescription="group mark container"><g transform="translate(0,0)"><path class="background" aria-hidden="true" d="M0,0h256v11h-256Z" pointer-events="none" opacity="1"/><g><g class="mark-symbol role-legend-symbol" pointer-events="none"><path transform="translate(6,6)" d="M-5,0L5,0" stroke="#4c78a8" stroke-width="1.5" opacity="1"/></g><g class="mark-text role-legend-label" pointer-events="none"><text text-anchor="start" transform="translate(16,9)" font-family="Liberation Mono" font-size="10px" fill="#000" opacity="1">devote-1-2022</text></g></g><path class="foreground" aria-hidden="true" d="" pointer-events="none" display="none"/></g><g transform="translate(0,13)"><path class="background" aria-hidden="true" d="M0,0h256v11h-256Z" pointer-events="none" opacity="1"/><g><g class="mark-symbol role-legend-symbol" pointer-events="none"><path transform="translate(6,6)" d="M-5,0L5,0" stroke="#f58518" stroke-width="1.5" opacity="1"/></g><g class="mark-text role-legend-label" pointer-events="none"><text text-anchor="start" transform="translate(16,9)" font-family="Liberation Mono" font-size="10px" fill="#000" opacity="1">silex-400-oak-bork-2026</text></g></g><path class="foreground" aria-hidden="true" d="" pointer-events="none" display="none"/></g><g transform="translate(0,26)"><path class="background" aria-hidden="true" d="M0,0h256v11h-256Z" pointer-events="none" opacity="1"/><g><g class="mark-symbol role-legend-symbol" pointer-events="none"><path transform="translate(6,6)" d="M-5,0L5,0" stroke="#e45756" stroke-width="1.5" opacity="1"/></g><g class="mark-text role-legend-label" pointer-events="none"><text text-anchor="start" transform="translate(16,9)" font-family="Liberation Mono" font-size="10px" fill="#000" opacity="1">silex-400-warm-slate-grey-2026</text></g></g><path class="foreground" aria-hidden="true" d="" pointer-events="none" display="none"/></g><g transform="translate(0,39)"><path class="background" aria-hidden="true" d="M0,0h256v11h-256Z" pointer-events="none" opacity="1"/><g><g class="mark-symbol role-legend-symbol" pointer-events="none"><path transform="translate(6,6)" d="M-5,0L5,0" stroke="#72b7b2" stroke-width="1.5" opacity="1"/></g><g class="mark-text role-legend-label" pointer-events="none"><text text-anchor="start" transform="translate(16,9)" font-family="Liberation Mono" font-size="10px" fill="#000" opacity="1">devote-1-2024</text></g></g><path class="foreground" aria-hidden="true" d="" pointer-events="none" display="none"/></g><g transform="translate(0,52)"><path class="background" aria-hidden="true" d="M0,0h256v11h-256Z" pointer-events="none" opacity="1"/><g><g class="mark-symbol role-legend-symbol" pointer-events="none"><path transform="translate(6,6)" d="M-5,0L5,0" stroke="#54a24b" stroke-width="1.5" opacity="1"/></g><g class="mark-text role-legend-label" pointer-events="none"><text text-anchor="start" transform="translate(16,9)" font-family="Liberation Mono" font-size="10px" fill="#000" opacity="1">fastroad-ar-2</text></g></g><path class="foreground" aria-hidden="true" d="" pointer-events="none" display="none"/></g><g transform="translate(0,65)"><path class="background" aria-hidden="true" d="M0,0h256v11h-256Z" pointer-events="none" opacity="1"/><g><g class="mark-symbol role-legend-symbol" pointer-events="none"><path transform="translate(6,6)" d="M-5,0L5,0" stroke="#eeca3b" stroke-width="1.5" opacity="1"/></g><g class="mark-text role-legend-label" pointer-events="none"><text text-anchor="start" transform="translate(16,9)" font-family="Liberation Mono" font-size="10px" fill="#000" opacity="1">thrive-2</text></g></g><path class="foreground" aria-hidden="true" d="" pointer-events="none" display="none"/></g><g transform="translate(0,78)"><path class="background" aria-hidden="true" d="M0,0h256v11h-256Z" pointer-events="none" opacity="1"/><g><g class="mark-symbol role-legend-symbol" pointer-events="none"><path transform="translate(6,6)" d="M-5,0L5,0" stroke="#b279a2" stroke-width="1.5" opacity="1"/></g><g class="mark-text role-legend-label" pointer-events="none"><text text-anchor="start" transform="translate(16,9)" font-family="Liberation Mono" font-size="10px" fill="#000" opacity="1">allure-rs-1-2023</text></g></g><path class="foreground" aria-hidden="true" d="" pointer-events="none" display="none"/></g><g transform="translate(0,91)"><path class="background" aria-hidden="true" d="M0,0h256v11h-256Z" pointer-events="none" opacity="1"/><g><g class="mark-symbol role-legend-symbol" pointer-events="none"><path transform="translate(6,6)" d="M-5,0L5,0" stroke="#ff9da6" stroke-width="1.5" opacity="1"/></g><g class="mark-text role-legend-label" pointer-events="none"><text text-anchor="start" transform="translate(16,9)" font-family="Liberation Mono" font-size="10px" fill="#000" opacity="1">roam-2</text></g></g><path class="foreground" aria-hidden="true" d="" pointer-events="none" display="none"/></g><g transform="translate(0,104)"><path class="background" aria-hidden="true" d="M0,0h256v11h-256Z" pointer-events="none" opacity="1"/><g><g class="mark-symbol role-legend-symbol" pointer-events="none"><path transform="translate(6,6)" d="M-5,0L5,0" stroke="#9d755d" stroke-width="1.5" opacity="1"/></g><g class="mark-text role-legend-label" pointer-events="none"><text text-anchor="start" transform="translate(16,9)" font-family="Liberation Mono" font-size="10px" fill="#000" opacity="1">fastroad-sl-3-2022</text></g></g><path class="foreground" aria-hidden="true" d="" pointer-events="none" display="none"/></g><g transform="translate(0,117)"><path class="background" aria-hidden="true" d="M0,0h256v11h-256Z" pointer-events="none" opacity="1"/><g><g class="mark-symbol role-legend-symbol" pointer-events="none"><path transform="translate(6,6)" d="M-5,0L5,0" stroke="#bab0ac" stroke-width="1.5" opacity="1"/></g><g class="mark-text role-legend-label" pointer-events="none"><text text-anchor="start" transform="translate(16,9)" font-family="Liberation Mono" font-size="10px" fill="#000" opacity="1">allure-rs-2-2023</text></g></g><path class="foreground" aria-hidden="true" d="" pointer-events="none" display="none"/></g><g transform="translate(0,130)"><path class="background" aria-hidden="true" d="M0,0h256v11h-256Z" pointer-events="none" opacity="1"/><g><g class="mark-symbol role-legend-symbol" pointer-events="none"><path transform="translate(6,6)" d="M-5,0L5,0" stroke="#4c78a8" stroke-width="1.5" opacity="1"/></g><g class="mark-text role-legend-label" pointer-events="none"><text text-anchor="start" transform="translate(16,9)" font-family="Liberation Mono" font-size="10px" fill="#000" opacity="1">escape-city-disc-1-2024</text></g></g><path class="foreground" aria-hidden="true" d="" pointer-events="none" display="none"/></g><g transform="translate(0,143)"><path class="background" aria-hidden="true" d="M0,0h256v11h-256Z" pointer-events="none" opacity="1"/><g><g class="mark-symbol role-legend-symbol" pointer-events="none"><path transform="translate(6,6)" d="M-5,0L5,0" stroke="#f58518" stroke-width="1.5" opacity="1"/></g><g class="mark-text role-legend-label" pointer-events="none"><text text-anchor="start" transform="translate(16,9)" font-family="Liberation Mono" font-size="10px" fill="#000" opacity="1">sdrbike-escape-1-city-disc</text></g></g><path class="foreground" aria-hidden="true" d="" pointer-events="none" display="none"/></g><g transform="translate(0,156)"><path class="background" aria-hidden="true" d="M0,0h256v11h-256Z" pointer-events="none" opacity="1"/><g><g class="mark-symbol role-legend-symbol" pointer-events="none"><path transform="translate(6,6)" d="M-5,0L5,0" stroke="#e45756" stroke-width="1.5" opacity="1"/></g><g class="mark-text role-legend-label" pointer-events="none"><text text-anchor="start" transform="translate(16,9)" font-family="Liberation Mono" font-size="10px" fill="#000" opacity="1">roam-disc-2-2024</text></g></g><path class="foreground" aria-hidden="true" d="" pointer-events="none" display="none"/></g><g transform="translate(0,169)"><path class="background" aria-hidden="true" d="M0,0h256v11h-256Z" pointer-events="none" opacity="1"/><g><g class="mark-symbol role-legend-symbol" pointer-events="none"><path transform="translate(6,6)" d="M-5,0L5,0" stroke="#72b7b2" stroke-width="1.5" opacity="1"/></g><g class="mark-text role-legend-label" pointer-events="none"><text text-anchor="start" transform="translate(16,9)" font-family="Liberation Mono" font-size="10px" fill="#000" opacity="1">rove-2</text></g></g><path class="foreground" aria-hidden="true" d="" pointer-events="none" display="none"/></g><g transform="translate(0,182)"><path class="background" aria-hidden="true" d="M0,0h256v11h-256Z" pointer-events="none" opacity="1"/><g><g class="mark-symbol role-legend-symbol" pointer-events="none"><path transform="translate(6,6)" d="M-5,0L5,0" stroke="#54a24b" stroke-width="1.5" opacity="1"/></g><g class="mark-text role-legend-label" pointer-events="none"><text text-anchor="start" transform="translate(16,9)" font-family="Liberation Mono" font-size="10px" fill="#000" opacity="1">allure-rs-2-2022</text></g></g><path class="foreground" aria-hidden="true" d="" pointer-events="none" display="none"/></g><g transform="translate(0,195)"><path class="background" aria-hidden="true" d="M0,0h256v11h-256Z" pointer-events="none" opacity="1"/><g><g class="mark-symbol role-legend-symbol" pointer-events="none"><path transform="translate(6,6)" d="M-5,0L5,0" stroke="#eeca3b" stroke-width="1.5" opacity="1"/></g><g class="mark-text role-legend-label" pointer-events="none"><text text-anchor="start" transform="translate(16,9)" font-family="Liberation Mono" font-size="10px" fill="#000" opacity="1">allure-rs-2-2024</text></g></g><path class="foreground" aria-hidden="true" d="" pointer-events="none" display="none"/></g></g></g><path class="foreground" aria-hidden="true" d="" pointer-events="none" display="none"/></g></g><g class="mark-text role-legend-title" pointer-events="none"><text text-anchor="start" transform="translate(0,9)" font-family="Liberation Mono" font-size="11px" font-weight="bold" fill="#000" opacity="1">identifier</text></g></g><path class="foreground" aria-hidden="true" d="" pointer-events="none" display="none"/></g></g></g><path class="foreground" aria-hidden="true" d="" display="none"/></g></g></g></svg>