<svg xmlns="http://www.w3.org/2000/svg" xmlns:xlink="http://www.w3.org/1999/xlink" version="1.1" class="marks" width="588" height="247" viewBox="0 0 588 247"><rect width="588" height="247" fill="white"/><g fill="none" stroke-miterlimit="10" transform="translate(139,10)"><g class="mark-group role-frame root" role="graphics-object" aria-roledescription="group mark container"><g transform="translate(0,0)"><path class="background" aria-hidden="true" d="M0.5,0.5h200v200h-200Z" stroke="#ddd"/><g><g class="mark-group role-axis" aria-hidden="true"><g transform="translate(0.5,200.5)"><path class="background" aria-hidden="true" d="M0,0h0v0h0Z" pointer-events="none"/><g><g class="mark-rule role-axis-grid" pointer-events="none"><line transform="translate(8,-200)" x2="0" y2="200" stroke="#ddd" stroke-width="1" opacity="1"/><line transform="translate(32,-200)" x2="0" y2="200" stroke="#ddd" stroke-width="1" opacity="1"/><line transform="translate(57,-200)" x2="0" y2="200" stroke="#ddd" stroke-width="1" opacity="1"/><line transform="translate(81,-200)" x2="0" y2="200" stroke="#ddd" stroke-width="1" opacity="1"/><line transform="translate(106,-200)" x2="0" y2="200" stroke="#ddd" stroke-width="1" opacity="1"/><line transform="translate(130,-200)" x2="0" y2="200" stroke="#ddd" stroke-width="1" opacity="1"/><line transform="translate(155,-200)" x2="0" y2="200" stroke="#ddd" stroke-width="1" opacity="1"/><line transform="translate(179,-200)" x2="0" y2="200" stroke="#ddd" stroke-width="1" opacity="1"/></g></g><path class="foreground" aria-hidden="true" d="" pointer-events="none" display="none"/></g></g><g class="mark-group role-axis" aria-hidden="true"><g transform="translate(0.5,0.5)"><path class="background" aria-hidden="true" d="M0,0h0v0h0Z" pointer-events="none"/><g><g class="mark-rule role-axis-grid" pointer-events="none"><line transform="translate(0,200)" x2="200" y2="0" stroke="#ddd" stroke-width="1" opacity="1"/><line transform="translate(0,150)" x2="200" y2="0" stroke="#ddd" stroke-width="1" opacity="1"/><line transform="translate(0,100)" x2="200" y2="0" stroke="#ddd" stroke-width="1" opacity="1"/><line transform="translate(0,50)" x2="200" y2="0" stroke="#ddd" stroke-width="1" opacity="1"/><line transform="translate(0,0)" x2="200" y2="0" stroke="#ddd" stroke-width="1" opacity="1"/></g></g><path class="foreground" aria-hidden="true" d="" pointer-events="none" display="none"/></g></g><g class="mark-group role-axis" role="graphics-symbol" aria-roledescription="axis" aria-label="X-axis titled 'Time' for a time scale with values from Thursday, 14 August 2025, 8:34:48 AM to Saturday, 30 August 2025, 4:47:01 PM"><g transform="translate(0.5,200.5)"><path class="background" aria-hidden="true" d="M0,0h0v0h0Z" pointer-events="none"/><g><g class="mark-rule role-axis-tick" pointer-events="none"><line transform="translate(8,0)" x2="0" y2="5" stroke="#888" stroke-width="1" opacity="1"/><line transform="translate(32,0)" x2="0" y2="5" stroke="#888" stroke-width="1" opacity="1"/><line transform="translate(57,0)" x2="0" y2="5" stroke="#888" stroke-width="1" opacity="1"/><line transform="translate(81,0)" x2="0" y2="5" stroke="#888" stroke-width="1" opacity="1"/><line transform="translate(106,0)" x2="0" y2="5" stroke="#888" stroke-width="1" opacity="1"/><line transform="translate(130,0)" x2="0" y2="5" stroke="#888" stroke-width="1" opacity="1"/><line transform="translate(155,0)" x2="0" y2="5" stroke="#888" stroke-width="1" opacity="1"/><line transform="translate(179,0)" x2="0" y2="5" stroke="#888" stroke-width="1" opacity="1"/></g><g class="mark-text role-axis-label" pointer-events="none"><text text-anchor="middle" transform="translate(7.8631555598937215,15)" font-family="Liberation Mono" font-size="10px" fill="#000" opacity="1">Fri 15</text><text text-anchor="middle" transform="translate(32.340237289003475,15)" font-family="Liberation Mono" font-size="10px" fill="#000" opacity="0">Aug 17</text><text text-anchor="middle" transform="translate(56.817319018113224,15)" font-family="Liberation Mono" font-size="10px" fill="#000" opacity="1">Tue 19</text><text text-anchor="middle" transform="translate(81.29440074722298,15)" font-family="Liberation Mono" font-size="10px" fill="#000" opacity="0">Thu 21</text><text text-anchor="middle" transform="translate(105.77148247633272,15)" font-family="Liberation Mono" font-size="10px" fill="#000" opacity="1">Sat 23</text><text text-anchor="middle" transform="translate(130.24856420544248,15)" font-family="Liberation Mono" font-size="10px" fill="#000" opacity="0">Mon 25</text><text text-anchor="middle" transform="translate(154.72564593455223,15)" font-family="Liberation Mono" font-size="10px" fill="#000" opacity="1">Wed 27</text><text text-anchor="middle" transform="translate(179.202727663662,15)" font-family="Liberation Mono" font-size="10px" fill="#000" opacity="0">Fri 29</text></g><g class="mark-rule role-axis-domain" pointer-events="none"><line transform="translate(0,0)" x2="200" y2="0" stroke="#888" stroke-width="1" opacity="1"/></g><g class="mark-text role-axis-title" pointer-events="none"><text text-anchor="middle" transform="translate(100,30)" font-family="Liberation Mono" font-size="11px" font-weight="bold" fill="#000" opacity="1">Time</text></g></g><path class="foreground" aria-hidden="true" d="" pointer-events="none" display="none"/></g></g><g class="mark-group role-axis" role="graphics-symbol" aria-roledescription="axis" aria-label="Y-axis titled 'Price' for a linear scale with values from 0 to 80,000,000,000"><g transform="translate(0.5,0.5)"><path class="background" aria-hidden="true" d="M0,0h0v0h0Z" pointer-events="none"/><g><g class="mark-rule role-axis-tick" pointer-events="none"><line transform="translate(0,200)" x2="-5" y2="0" stroke="#888" stroke-width="1" opacity="1"/><line transform="translate(0,150)" x2="-5" y2="0" stroke="#888" stroke-width="1" opacity="1"/><line transform="translate(0,100)" x2="-5" y2="0" stroke="#888" stroke-width="1" opacity="1"/><line transform="translate(0,50)" x2="-5" y2="0" stroke="#888" stroke-width="1" opacity="1"/><line transform="translate(0,0)" x2="-5" y2="0" stroke="#888" stroke-width="1" opacity="1"/></g><g class="mark-text role-axis-label" pointer-events="none"><text text-anchor="end" transform="translate(-7,203)" font-family="Liberation Mono" font-size="10px" fill="#000" opacity="1">0</text><text text-anchor="end" transform="translate(-7,153)" font-family="Liberation Mono" font-size="10px" fill="#000" opacity="1">20,000,000,000</text><text text-anchor="end" transform="translate(-7,103)" font-family="Liberation Mono" font-size="10px" fill="#000" opacity="1">40,000,000,000</text><text text-anchor="end" transform="translate(-7,53)" font-family="Liberation Mono" font-size="10px" fill="#000" opacity="1">60,000,000,000</text><text text-anchor="end" transform="translate(-7,3)" font-family="Liberation Mono" font-size="10px" fill="#000" opacity="1">80,000,000,000</text></g><g class="mark-rule role-axis-domain" pointer-events="none"><line transform="translate(0,200)" x2="0" y2="-200" stroke="#888" stroke-width="1" opacity="1"/></g><g class="mark-text role-axis-title" pointer-events="none"><text text-anchor="middle" transform="translate(-123,100) rotate(-90) translate(0,-2)" font-family="Liberation Mono" font-size="11px" font-weight="bold" fill="#000" opacity="1">Price</text></g></g><path class="foreground" aria-hidden="true" d="" pointer-events="none" display="none"/></g></g><g class="mark-group role-scope pathgroup" role="graphics-object" aria-roledescription="group mark container"><g transform="translate(0,0)"><path class="background" aria-hidden="true" d="M0,0h200v200h-200Z"/><g><g class="mark-line role-mark marks" role="graphics-object" aria-roledescription="line mark container"><path aria-label="Time: Aug 14, 2025; Price: 899; identifier: escape-city-disc-1-2024" role="graphics-symbol" aria-roledescription="line mark" d="M0,200L0.102,200L0.182,200L2.438,200L4.232,200L6.244,200L10.371,200L12.398,200L14.636,200L16.472,200L18.474,200L22.571,200L24.621,200L26.794,200L28.687,200L30.694,200L34.856,200L36.855,200L39.038,200L40.934,200L42.948,200L47.129,200L49.139,200L51.394,200L52.185,200L53.212,200L55.175,200L59.275,200L61.346,200L63.52,200L65.419,200L67.409,200L71.518,200L73.569,200L75.832,200L76.747,200L77.653,200L79.661,200L83.749,200L85.817,200L88.001,200L89.899,200L91.894,200L95.99,200L98.052,200L100.234,200L102.125,200L104.126,200L108.22,200L110.271,200L112.435,200L114.331,200L116.352,200L120.473,200L122.501,200L124.68,200L126.585,200L128.594,200L132.729,200L134.794,200L137.027,200L138.855,200L140.847,200L144.947,200L147.025,200L151.081,200L153.073,200L157.171,200L159.239,200L160.041,200L161.419,200L162.784,200L163.318,200L165.32,200L169.407,200L171.482,200L173.662,200L175.554,200L177.554,200L181.646,200L183.712,200L185.886,200L187.788,200L189.785,200L193.871,200L195.922,200L198.087,200L199.997,200" stroke="#f58518" stroke-width="2"/></g></g><path class="foreground" aria-hidden="true" d="" display="none"/></g><g transform="translate(0,0)"><path class="background" aria-hidden="true" d="M0,0h200v200h-200Z"/><g><g class="mark-line role-mark marks" role="graphics-object" aria-roledescription="line mark container"><path aria-label="Time: Aug 14, 2025; Price: 999; identifier: roam-2" role="graphics-symbol" aria-roledescription="line mark" d="M0,200L0.102,200L0.182,200L2.439,200L4.232,200L6.244,200L10.372,200L12.398,200L14.637,200L16.472,200L18.474,200L22.571,200L24.621,200L26.794,200L28.687,200L30.713,200L34.856,200L36.856,200L39.038,200L40.935,200L42.948,200L47.129,200L49.139,200L51.394,200L52.185,200L53.213,200L55.175,200L59.275,200L61.347,200L63.52,200L65.419,200L67.409,200L71.518,200L73.569,200L75.832,200L76.747,200L77.653,200L79.662,200L83.749,200L85.818,200L88.001,200L89.9,200L91.894,200L95.991,200L98.053,200L100.235,200L102.126,200L104.126,200L108.22,200L110.272,200L112.435,200L114.332,200L116.352,200L120.474,200L122.502,200L124.68,200L126.586,200L128.595,200L132.73,200L134.795,200L137.028,200L138.855,200L140.847,200L144.948,200L147.026,200L151.082,200L153.073,200L157.171,200L159.239,200L160.042,200L161.419,200L162.784,200L163.319,200L165.321,200L169.408,200L171.483,200L173.663,200L175.555,200L177.554,200L181.647,200L183.713,200L185.887,200L187.788,200L189.786,200L193.872,200L195.923,200L198.088,200L199.997,200" stroke="#eeca3b" stroke-width="2"/></g></g><path class="foreground" aria-hidden="true" d="" display="none"/></g><g transform="translate(0,0)"><path class="background" aria-hidden="true" d="M0,0h200v200h-200Z"/><g><g class="mark-line role-mark marks" role="graphics-object" aria-roledescription="line mark container"><path aria-label="Time: Aug 14, 2025; Price: 999; identifier: fastroad-sl-3-2022" role="graphics-symbol" aria-roledescription="line mark" d="M0.001,200L0.102,200L0.182,200L2.439,200L4.232,200L6.244,200L10.372,200L12.399,200L14.637,200L16.473,200L18.475,200L22.571,200L24.622,200L26.794,200L28.688,200L30.713,200L34.856,200L36.856,200L39.039,200L40.935,200L42.949,200L47.13,200L49.139,200L51.394,200L52.185,200L53.213,200L55.175,200L59.275,200L61.347,200L63.521,200L65.419,200L67.409,200L71.518,200L73.57,200L75.832,200L76.748,200L77.654,200L79.662,200L83.749,200L85.818,200L88.001,200L89.9,200L91.894,200L95.991,200L98.053,200L100.235,200L102.126,200L104.126,200L108.221,200L110.272,200L112.435,200L114.332,200L116.353,200L120.474,200L122.502,200L124.68,200L126.586,200L128.595,200L132.73,200L134.795,200L137.028,200L138.855,200L140.848,200L144.948,200L147.026,200L151.082,200L153.074,200L157.172,200L159.24,200L160.043,200L161.42,200L162.784,200L163.319,200L165.321,200L169.408,200L171.483,200L173.663,200L175.555,200L177.555,200L181.647,200L183.713,200L185.887,200L187.789,200L189.786,200L193.872,200L195.923,200L198.088,200L199.998,200" stroke="#b279a2" stroke-width="2"/></g></g><path class="foreground" aria-hidden="true" d="" display="none"/></g><g transform="translate(0,0)"><path class="background" aria-hidden="true" d="M0,0h200v200h-200Z"/><g><g class="mark-line role-mark marks" role="graphics-object" aria-roledescription="line mark container"><path aria-label="Time: Aug 14, 2025; Price: 1199; identifier: fastroad-ar-2" role="graphics-symbol" aria-roledescription="line mark" d="M0.001,200L0.102,200L0.183,200L2.439,200L4.233,200L6.244,200L10.372,200L12.399,200L14.637,200L16.473,200L18.475,200L22.571,200L24.622,200L26.795,200L28.688,200L30.723,200L34.857,200L36.856,200L39.039,200L40.935,200L42.949,200L47.13,200L49.14,200L51.394,200L52.186,200L53.213,200L55.176,200L59.276,200L61.347,200L63.521,200L65.42,200L67.41,200L71.518,200L73.57,200L75.832,200L76.748,200L77.654,200L79.663,200L83.75,200L85.818,200L88.002,200L89.9,200L91.895,200L95.991,200L98.053,200L100.235,200L102.126,200L104.127,200L108.221,200L110.272,200L112.436,200L114.333,200L116.353,200L120.474,200L122.503,200L124.681,200L126.586,200L128.595,200L132.73,200L134.795,200L137.028,200L138.856,200L140.848,200L144.95,200L147.026,200L151.082,200L153.074,200L157.172,200L159.24,200L160.043,200L161.42,200L162.784,200L163.319,200L165.321,200L169.408,200L171.483,200L173.663,200L175.555,200L177.555,200L181.648,200L183.714,200L185.888,200L187.789,200L189.787,200L193.872,200L195.923,200L198.089,200L199.998,200" stroke="#e45756" stroke-width="2"/></g></g><path class="foreground" aria-hidden="true" d="" display="none"/></g><g transform="translate(0,0)"><path class="background" aria-hidden="true" d="M0,0h200v200h-200Z"/><g><g class="mark-line role-mark marks" role="graphics-object" aria-roledescription="line mark container"><path aria-label="Time: Aug 18, 2025; Price: 899; identifier: sdrbike-escape-1-city-disc" role="graphics-symbol" aria-roledescription="line mark" d="M52.186,200L53.214,200L55.176,200L59.276,200L61.347,200L63.521,200L65.42,200L67.41,200L71.519,200L73.57,200L75.833,200L76.748,200L77.654,200L79.663,200L83.75,200L85.818,200L88.002,200L89.901,200L91.895,200L95.992,200L98.054,200L100.236,200L102.127,200L104.127,200L108.221,200L110.273,200L112.436,200L114.333,200L116.353,200L120.475,200L122.503,200L124.682,200L126.587,200L128.596,200L132.731,200L134.796,200L137.029,200L138.856,200L140.848,200L144.95,200L147.027,200L151.083,200L153.074,200L157.172,200L159.24,200L160.044,200L161.42,200L162.785,200L163.319,200L165.322,200L169.409,200L171.484,200L173.664,200L175.556,200L177.555,200L181.648,200L183.714,200L185.888,200L187.789,200L189.787,200L193.873,200L195.924,200L198.089,200L199.998,200" stroke="#e45756" stroke-width="2"/></g></g><path class="foreground" aria-hidden="true" d="" display="none"/></g><g transform="translate(0,0)"><path class="background" aria-hidden="true" d="M0,0h200v200h-200Z"/><g><g class="mark-line role-mark marks" role="graphics-object" aria-roledescription="line mark container"><path aria-label="Time: Aug 20, 2025; Price: 899; identifier: roam-disc-2-2024" role="graphics-symbol" aria-roledescription="line mark" d="M76.747,200L77.653,200L79.662,200L83.749,200L85.817,200L88.001,200L89.9,200L91.894,200L95.991,200L98.052,200L100.234,200L102.125,200L104.126,200L108.22,200L110.271,200L112.435,200L114.332,200L116.352,200L120.473,200L122.502,200L124.68,200L126.586,200L128.595,200L132.729,200L134.795,200L137.027,200L138.855,200L140.847,200L144.948,200L147.025,200L151.081,200L153.073,200L157.171,200L159.239,200L160.042,200L161.419,200L162.784,200L163.318,200L165.32,200L169.407,200L171.483,200L173.663,200L175.555,200L177.554,200L181.647,200L183.713,200L185.887,200L187.788,200L189.786,200L193.872,200L195.922,200L198.087,200L199.997,200" stroke="#72b7b2" stroke-width="2"/></g></g><path class="foreground" aria-hidden="true" d="" display="none"/></g><g transform="translate(0,0)"><path class="background" aria-hidden="true" d="M0,0h200v200h-200Z"/><g><g class="mark-line role-mark marks" role="graphics-object" aria-roledescription="line mark container"><path aria-label="Time: Aug 20, 2025; Price: 1199; identifier: thrive-2" role="graphics-symbol" aria-roledescription="line mark" d="M76.749,200L77.655,200L79.664,200L83.75,200L85.819,200L88.003,200L89.901,200L91.896,200L95.992,200L98.054,200L100.236,200L102.127,200L104.127,200L108.222,200L110.273,200L112.436,200L114.333,200L116.354,200L120.475,200L122.504,200L124.682,200L126.587,200L128.596,200L132.731,200L134.796,200L137.029,200L138.856,200L140.849,200L144.95,200L147.027,200L151.083,200L153.074,200L157.173,200L159.241,200L160.045,200L161.42,200L162.785,200L163.32,200L165.322,200L169.409,200L171.484,200L173.664,200L175.556,200L177.556,200L181.648,200L183.714,200L185.888,200L187.79,200L189.787,200L193.873,200L195.924,200L198.089,200L199.998,200" stroke="#72b7b2" stroke-width="2"/></g></g><path class="foreground" aria-hidden="true" d="" display="none"/></g><g transform="translate(0,0)"><path class="background" aria-hidden="true" d="M0,0h200v200h-200Z"/><g><g class="mark-line role-mark marks" role="graphics-object" aria-roledescription="line mark container"><path aria-label="Time: Aug 20, 2025; Price: 999; identifier: rove-2" role="graphics-symbol" aria-roledescription="line mark" d="M76.749,200L77.655,200L79.664,200L83.75,200L85.819,200L88.003,200L89.901,200L91.896,200L95.992,200L98.054,200L100.236,200L102.127,200L104.128,200L108.222,200L110.274,200L112.437,200L114.334,200L116.354,200L120.475,200L122.504,200L124.683,200L126.587,200L128.596,200L132.731,200L134.796,200L137.029,200L138.857,200L140.849,200L144.951,200L147.027,200L151.084,200L153.075,200L157.173,200L159.241,200L160.045,200L161.421,200L162.785,200L163.32,200L165.322,200L169.409,200L171.485,200L173.665,200L175.556,200L177.556,200L181.649,200L183.715,200L185.889,200L187.79,200L189.788,200L193.873,0L195.924,0L198.09,0L199.999,0" stroke="#ff9da6" stroke-width="2"/></g></g><path class="foreground" aria-hidden="true" d="" display="none"/></g><g transform="translate(0,0)"><path class="background" aria-hidden="true" d="M0,0h200v200h-200Z"/><g><g class="mark-line role-mark marks" role="graphics-object" aria-roledescription="line mark container"><path aria-label="Time: Aug 27, 2025; Price: 1199; identifier: allure-rs-1-2023" role="graphics-symbol" aria-roledescription="line mark" d="M160.046,200L161.421,200L162.785,200L163.32,200L165.323,200L169.41,200L171.485,200L173.665,200L175.556,200L177.556,200L181.649,200L183.715,200L185.889,200L187.79,200L189.788,200L193.873,200L195.924,200L198.09,200L199.999,200" stroke="#54a24b" stroke-width="2"/></g></g><path class="foreground" aria-hidden="true" d="" display="none"/></g><g transform="translate(0,0)"><path class="background" aria-hidden="true" d="M0,0h200v200h-200Z"/><g><g class="mark-line role-mark marks" role="graphics-object" aria-roledescription="line mark container"><path aria-label="Time: Aug 27, 2025; Price: 999; identifier: allure-rs-2-2022" role="graphics-symbol" aria-roledescription="line mark" d="M160.047,200L161.421,200L162.786,200L163.32,200L165.323,200L169.41,200L171.485,200L173.665,200L175.557,200L177.556,200L181.649,200L183.715,200L185.889,200L187.79,200L189.788,200L193.874,199.998L195.925,199.998L198.09,199.998L199.999,199.998" stroke="#9d755d" stroke-width="2"/></g></g><path class="foreground" aria-hidden="true" d="" display="none"/></g><g transform="translate(0,0)"><path class="background" aria-hidden="true" d="M0,0h200v200h-200Z"/><g><g class="mark-line role-mark marks" role="graphics-object" aria-roledescription="line mark container"><path aria-label="Time: Aug 27, 2025; Price: 949; identifier: allure-rs-2-2023" role="graphics-symbol" aria-roledescription="line mark" d="M160.048,200L161.421,200L162.786,200L163.321,200L165.323,200L169.41,200L171.486,200L173.665,200L175.557,200L177.556,200L181.649,200L183.716,200L185.89,200L187.79,200L189.789,200L193.874,200L195.925,200L198.091,200L199.999,200" stroke="#4c78a8" stroke-width="2"/></g></g><path class="foreground" aria-hidden="true" d="" display="none"/></g><g transform="translate(0,0)"><path class="background" aria-hidden="true" d="M0,0h200v200h-200Z"/><g><g class="mark-line role-mark marks" role="graphics-object" aria-roledescription="line mark container"><path aria-label="Time: Aug 27, 2025; Price: 999; identifier: allure-rs-2-2024" role="graphics-symbol" aria-roledescription="line mark" d="M160.048,200L161.422,200L162.786,200L163.321,200L165.324,200L169.411,200L171.486,200L173.666,200L175.557,200L177.557,200L181.65,200L183.716,200L185.89,200L187.791,200L189.789,200L193.874,199.998L195.925,199.998L198.091,199.998L200,199.998" stroke="#bab0ac" stroke-width="2"/></g></g><path class="foreground" aria-hidden="true" d="" display="none"/></g><g transform="translate(0,0)"><path class="background" aria-hidden="true" d="M0,0h200v200h-200Z"/><g><g class="mark-line role-mark marks" role="graphics-object" aria-roledescription="line mark container"><path aria-label="Time: Aug 27, 2025; Price: 1799; identifier: devote-1-2024" role="graphics-symbol" aria-roledescription="line mark" d="M162.786,200L163.321,200L165.324,200L169.411,200L171.486,200L173.666,200L175.558,200L177.557,200L181.65,200L183.716,200L185.89,200L187.791,200L189.789,200L193.874,200L195.925,200L198.091,200L200,200" stroke="#4c78a8" stroke-width="2"/></g></g><path class="foreground" aria-hidden="true" d="" display="none"/></g><g transform="translate(0,0)"><path class="background" aria-hidden="true" d="M0,0h200v200h-200Z"/><g><g class="mark-line role-mark marks" role="graphics-object" aria-roledescription="line mark container"><path aria-label="Time: Aug 27, 2025; Price: 1699; identifier: devote-1-2022" role="graphics-symbol" aria-roledescription="line mark" d="M162.786,200L163.321,200L165.324,200L169.411,200L171.486,200L173.666,200L175.558,200L177.557,200L181.65,200L183.716,200L185.89,200L187.791,200L189.789,200L193.875,200L195.926,200L198.092,200L200,200" stroke="#f58518" stroke-width="2"/></g></g><path class="foreground" aria-hidden="true" d="" display="none"/></g></g><g class="mark-group role-legend" role="graphics-symbol" aria-roledescription="legend" aria-label="Symbol legend titled 'identifier' for stroke color with 14 values: devote-1-2024, devote-1-2022, fastroad-ar-2, thrive-2, allure-rs-1-2023, ending with roam-disc-2-2024"><g transform="translate(220,0)"><path class="background" aria-hidden="true" d="M0,0h224v196h-224Z" pointer-events="none"/><g><g class="mark-group role-legend-entry"><g transform="translate(0,16)"><path class="background" aria-hidden="true" d="M0,0h0v0h0Z" pointer-events="none"/><g><g class="mark-group role-scope" role="graphics-object" aria-roledescription="group mark container"><g transform="translate(0,0)"><path class="background" aria-hidden="true" d="M0,0h224v11h-224Z" pointer-events="none" opacity="1"/><g><g class="mark-symbol role-legend-symbol" pointer-events="none"><path transform="translate(6,6)" d="M-5,0L5,0" stroke="#4c78a8" stroke-width="1.5" opacity="1"/></g><g class="mark-text role-legend-label" pointer-events="none"><text text-anchor="start" transform="translate(16,9)" font-family="Liberation Mono" font-size="10px" fill="#000" opacity="1">devote-1-2024</text></g></g><path class="foreground" aria-hidden="true" d="" pointer-events="none" display="none"/></g><g transform="translate(0,13)"><path class="background" aria-hidden="true" d="M0,0h224v11h-224Z" pointer-events="none" opacity="1"/><g><g class="mark-symbol role-legend-symbol" pointer-events="none"><path transform="translate(6,6)" d="M-5,0L5,0" stroke="#f58518" stroke-width="1.5" opacity="1"/></g><g class="mark-text role-legend-label" pointer-events="none"><text text-anchor="start" transform="translate(16,9)" font-family="Liberation Mono" font-size="10px" fill="#000" opacity="1">devote-1-2022</text></g></g><path class="foreground" aria-hidden="true" d="" pointer-events="none" display="none"/></g><g transform="translate(0,26)"><path class="background" aria-hidden="true" d="M0,0h224v11h-224Z" pointer-events="none" opacity="1"/><g><g class="mark-symbol role-legend-symbol" pointer-events="none"><path transform="translate(6,6)" d="M-5,0L5,0" stroke="#e45756" stroke-width="1.5" opacity="1"/></g><g class="mark-text role-legend-label" pointer-events="none"><text text-anchor="start" transform="translate(16,9)" font-family="Liberation Mono" font-size="10px" fill="#000" opacity="1">fastroad-ar-2</text></g></g><path class="foreground" aria-hidden="true" d="" pointer-events="none" display="none"/></g><g transform="translate(0,39)"><path class="background" aria-hidden="true" d="M0,0h224v11h-224Z" pointer-events="none" opacity="1"/><g><g class="mark-symbol role-legend-symbol" pointer-events="none"><path transform="translate(6,6)" d="M-5,0L5,0" stroke="#72b7b2" stroke-width="1.5" opacity="1"/></g><g class="mark-text role-legend-label" pointer-events="none"><text text-anchor="start" transform="translate(16,9)" font-family="Liberation Mono" font-size="10px" fill="#000" opacity="1">thrive-2</text></g></g><path class="foreground" aria-hidden="true" d="" pointer-events="none" display="none"/></g><g transform="translate(0,52)"><path class="background" aria-hidden="true" d="M0,0h224v11h-224Z" pointer-events="none" opacity="1"/><g><g class="mark-symbol role-legend-symbol" pointer-events="none"><path transform="translate(6,6)" d="M-5,0L5,0" stroke="#54a24b" stroke-width="1.5" opacity="1"/></g><g class="mark-text role-legend-label" pointer-events="none"><text text-anchor="start" transform="translate(16,9)" font-family="Liberation Mono" font-size="10px" fill="#000" opacity="1">allure-rs-1-2023</text></g></g><path class="foreground" aria-hidden="true" d="" pointer-events="none" display="none"/></g><g transform="translate(0,65)"><path class="background" aria-hidden="true" d="M0,0h224v11h-224Z" pointer-events="none" opacity="1"/><g><g class="mark-symbol role-legend-symbol" pointer-events="none"><path transform="translate(6,6)" d="M-5,0L5,0" stroke="#eeca3b" stroke-width="1.5" opacity="1"/></g><g class="mark-text role-legend-label" pointer-events="none"><text text-anchor="start" transform="translate(16,9)" font-family="Liberation Mono" font-size="10px" fill="#000" opacity="1">roam-2</text></g></g><path class="foreground" aria-hidden="true" d="" pointer-events="none" display="none"/></g><g transform="translate(0,78)"><path class="background" aria-hidden="true" d="M0,0h224v11h-224Z" pointer-events="none" opacity="1"/><g><g class="mark-symbol role-legend-symbol" pointer-events="none"><path transform="translate(6,6)" d="M-5,0L5,0" stroke="#b279a2" stroke-width="1.5" opacity="1"/></g><g class="mark-text role-legend-label" pointer-events="none"><text text-anchor="start" transform="translate(16,9)" font-family="Liberation Mono" font-size="10px" fill="#000" opacity="1">fastroad-sl-3-2022</text></g></g><path class="foreground" aria-hidden="true" d="" pointer-events="none" display="none"/></g><g transform="translate(0,91)"><path class="background" aria-hidden="true" d="M0,0h224v11h-224Z" pointer-events="none" opacity="1"/><g><g class="mark-symbol role-legend-symbol" pointer-events="none"><path transform="translate(6,6)" d="M-5,0L5,0" stroke="#ff9da6" stroke-width="1.5" opacity="1"/></g><g class="mark-text role-legend-label" pointer-events="none"><text text-anchor="start" transform="translate(16,9)" font-family="Liberation Mono" font-size="10px" fill="#000" opacity="1">rove-2</text></g></g><path class="foreground" aria-hidden="true" d="" pointer-events="none" display="none"/></g><g transform="translate(0,104)"><path class="background" aria-hidden="true" d="M0,0h224v11h-224Z" pointer-events="none" opacity="1"/><g><g class="mark-symbol role-legend-symbol" pointer-events="none"><path transform="translate(6,6)" d="M-5,0L5,0" stroke="#9d755d" stroke-width="1.5" opacity="1"/></g><g class="mark-text role-legend-label" pointer-events="none"><text text-anchor="start" transform="translate(16,9)" font-family="Liberation Mono" font-size="10px" fill="#000" opacity="1">allure-rs-2-2022</text></g></g><path class="foreground" aria-hidden="true" d="" pointer-events="none" display="none"/></g><g transform="translate(0,117)"><path class="background" aria-hidden="true" d="M0,0h224v11h-224Z" pointer-events="none" opacity="1"/><g><g class="mark-symbol role-legend-symbol" pointer-events="none"><path transform="translate(6,6)" d="M-5,0L5,0" stroke="#bab0ac" stroke-width="1.5" opacity="1"/></g><g class="mark-text role-legend-label" pointer-events="none"><text text-anchor="start" transform="translate(16,9)" font-family="Liberation Mono" font-size="10px" fill="#000" opacity="1">allure-rs-2-2024</text></g></g><path class="foreground" aria-hidden="true" d="" pointer-events="none" display="none"/></g><g transform="translate(0,130)"><path class="background" aria-hidden="true" d="M0,0h224v11h-224Z" pointer-events="none" opacity="1"/><g><g class="mark-symbol role-legend-symbol" pointer-events="none"><path transform="translate(6,6)" d="M-5,0L5,0" stroke="#4c78a8" stroke-width="1.5" opacity="1"/></g><g class="mark-text role-legend-label" pointer-events="none"><text text-anchor="start" transform="translate(16,9)" font-family="Liberation Mono" font-size="10px" fill="#000" opacity="1">allure-rs-2-2023</text></g></g><path class="foreground" aria-hidden="true" d="" pointer-events="none" display="none"/></g><g transform="translate(0,143)"><path class="background" aria-hidden="true" d="M0,0h224v11h-224Z" pointer-events="none" opacity="1"/><g><g class="mark-symbol role-legend-symbol" pointer-events="none"><path transform="translate(6,6)" d="M-5,0L5,0" stroke="#f58518" stroke-width="1.5" opacity="1"/></g><g class="mark-text role-legend-label" pointer-events="none"><text text-anchor="start" transform="translate(16,9)" font-family="Liberation Mono" font-size="10px" fill="#000" opacity="1">escape-city-disc-1-2024</text></g></g><path class="foreground" aria-hidden="true" d="" pointer-events="none" display="none"/></g><g transform="translate(0,156)"><path class="background" aria-hidden="true" d="M0,0h224v11h-224Z" pointer-events="none" opacity="1"/><g><g class="mark-symbol role-legend-symbol" pointer-events="none"><path transform="translate(6,6)" d="M-5,0L5,0" stroke="#e45756" stroke-width="1.5" opacity="1"/></g><g class="mark-text role-legend-label" pointer-events="none"><text text-anchor="start" transform="translate(16,9)" font-family="Liberation Mono" font-size="10px" fill="#000" opacity="1">sdrbike-escape-1-city-disc</text></g></g><path class="foreground" aria-hidden="true" d="" pointer-events="none" display="none"/></g><g transform="translate(0,169)"><path class="background" aria-hidden="true" d="M0,0h224v11h-224Z" pointer-events="none" opacity="1"/><g><g class="mark-symbol role-legend-symbol" pointer-events="none"><path transform="translate(6,6)" d="M-5,0L5,0" stroke="#72b7b2" stroke-width="1.5" opacity="1"/></g><g class="mark-text role-legend-label" pointer-events="none"><text text-anchor="start" transform="translate(16,9)" font-family="Liberation Mono" font-size="10px" fill="#000" opacity="1">roam-disc-2-2024</text></g></g><path class="foreground" aria-hidden="true" d="" pointer-events="none" display="none"/></g></g></g><path class="foreground" aria-hidden="true" d="" pointer-events="none" display="none"/></g></g><g class="mark-text role-legend-title" pointer-events="none"><text text-anchor="start" transform="translate(0,9)" font-family="Liberation Mono" font-size="11px" font-weight="bold" fill="#000" opacity="1">identifier</text></g></g><path class="foreground" aria-hidden="true" d="" pointer-events="none" display="none"/></g></g></g><path class="foreground" aria-hidden="true" d="" display="none"/></g></g></g></svg>