<svg xmlns="http://www.w3.org/2000/svg" xmlns:xlink="http://www.w3.org/1999/xlink" version="1.1" class="marks" width="548" height="244" viewBox="0 0 548 244"><rect width="548" height="244" fill="white"/><g fill="none" stroke-miterlimit="10" transform="translate(67,7)"><g class="mark-group role-frame root" role="graphics-object" aria-roledescription="group mark container"><g transform="translate(0,0)"><path class="background" aria-hidden="true" d="M0.5,0.5h200v200h-200Z" stroke="#ddd"/><g><g class="mark-group role-axis" aria-hidden="true"><g transform="translate(0.5,200.5)"><path class="background" aria-hidden="true" d="M0,0h0v0h0Z" pointer-events="none"/><g><g class="mark-rule role-axis-grid" pointer-events="none"><line transform="translate(9,-200)" x2="0" y2="200" stroke="#ddd" stroke-width="1" opacity="1"/><line transform="translate(32,-200)" x2="0" y2="200" stroke="#ddd" stroke-width="1" opacity="1"/><line transform="translate(55,-200)" x2="0" y2="200" stroke="#ddd" stroke-width="1" opacity="1"/><line transform="translate(78,-200)" x2="0" y2="200" stroke="#ddd" stroke-width="1" opacity="1"/><line transform="translate(102,-200)" x2="0" y2="200" stroke="#ddd" stroke-width="1" opacity="1"/><line transform="translate(125,-200)" x2="0" y2="200" stroke="#ddd" stroke-width="1" opacity="1"/><line transform="translate(148,-200)" x2="0" y2="200" stroke="#ddd" stroke-width="1" opacity="1"/><line transform="translate(171,-200)" x2="0" y2="200" stroke="#ddd" stroke-width="1" opacity="1"/><line transform="translate(194,-200)" x2="0" y2="200" stroke="#ddd" stroke-width="1" opacity="1"/></g></g><path class="foreground" aria-hidden="true" d="" pointer-events="none" display="none"/></g></g><g class="mark-group role-axis" aria-hidden="true"><g transform="translate(0.5,0.5)"><path class="background" aria-hidden="true" d="M0,0h0v0h0Z" pointer-events="none"/><g><g class="mark-rule role-axis-grid" pointer-events="none"><line transform="translate(0,200)" x2="200" y2="0" stroke="#ddd" stroke-width="1" opacity="1"/><line transform="translate(0,144)" x2="200" y2="0" stroke="#ddd" stroke-width="1" opacity="1"/><line transform="translate(0,89)" x2="200" y2="0" stroke="#ddd" stroke-width="1" opacity="1"/><line transform="translate(0,33)" x2="200" y2="0" stroke="#ddd" stroke-width="1" opacity="1"/></g></g><path class="foreground" aria-hidden="true" d="" pointer-events="none" display="none"/></g></g><g class="mark-group role-axis" role="graphics-symbol" aria-roledescription="axis" aria-label="X-axis titled 'Time' for a time scale with values from Thursday, 14 August 2025, 8:34:48 AM to Monday, 13 October 2025, 4:51:30 PM"><g transform="translate(0.5,200.5)"><path class="background" aria-hidden="true" d="M0,0h0v0h0Z" pointer-events="none"/><g><g class="mark-rule role-axis-tick" pointer-events="none"><line transform="translate(9,0)" x2="0" y2="5" stroke="#888" stroke-width="1" opacity="1"/><line transform="translate(32,0)" x2="0" y2="5" stroke="#888" stroke-width="1" opacity="1"/><line transform="translate(55,0)" x2="0" y2="5" stroke="#888" stroke-width="1" opacity="1"/><line transform="translate(78,0)" x2="0" y2="5" stroke="#888" stroke-width="1" opacity="1"/><line transform="translate(102,0)" x2="0" y2="5" stroke="#888" stroke-width="1" opacity="1"/><line transform="translate(125,0)" x2="0" y2="5" stroke="#888" stroke-width="1" opacity="1"/><line transform="translate(148,0)" x2="0" y2="5" stroke="#888" stroke-width="1" opacity="1"/><line transform="translate(171,0)" x2="0" y2="5" stroke="#888" stroke-width="1" opacity="1"/><line transform="translate(194,0)" x2="0" y2="5" stroke="#888" stroke-width="1" opacity="1"/></g><g class="mark-text role-axis-label" pointer-events="none"><text text-anchor="middle" transform="translate(8.757956960986588,15)" font-family="Liberation Mono" font-size="10px" fill="#000" opacity="1">Aug 17</text><text text-anchor="middle" transform="translate(31.957919669808433,15)" font-family="Liberation Mono" font-size="10px" fill="#000" opacity="0">Aug 24</text><text text-anchor="middle" transform="translate(55.157882378630276,15)" font-family="Liberation Mono" font-size="10px" fill="#000" opacity="0">Aug 31</text><text text-anchor="middle" transform="translate(78.35784508745213,15)" font-family="Liberation Mono" font-size="10px" fill="#000" opacity="0">Sep 07</text><text text-anchor="middle" transform="translate(101.55780779627396,15)" font-family="Liberation Mono" font-size="10px" fill="#000" opacity="1">Sep 14</text><text text-anchor="middle" transform="translate(124.75777050509582,15)" font-family="Liberation Mono" font-size="10px" fill="#000" opacity="0">Sep 21</text><text text-anchor="middle" transform="translate(147.95773321391766,15)" font-family="Liberation Mono" font-size="10px" fill="#000" opacity="0">Sep 28</text><text text-anchor="middle" transform="translate(171.1576959227395,15)" font-family="Liberation Mono" font-size="10px" fill="#000" opacity="0">Oct 05</text><text text-anchor="middle" transform="translate(194.35765863156135,15)" font-family="Liberation Mono" font-size="10px" fill="#000" opacity="1">Oct 12</text></g><g class="mark-rule role-axis-domain" pointer-events="none"><line transform="translate(0,0)" x2="200" y2="0" stroke="#888" stroke-width="1" opacity="1"/></g><g class="mark-text role-axis-title" pointer-events="none"><text text-anchor="middle" transform="translate(100,30)" font-family="Liberation Mono" font-size="11px" font-weight="bold" fill="#000" opacity="1">Time</text></g></g><path class="foreground" aria-hidden="true" d="" pointer-events="none" display="none"/></g></g><g class="mark-group role-axis" role="graphics-symbol" aria-roledescription="axis" aria-label="Y-axis titled 'Price' for a linear scale with values from 0 to 1,800"><g transform="translate(0.5,0.5)"><path class="background" aria-hidden="true" d="M0,0h0v0h0Z" pointer-events="none"/><g><g class="mark-rule role-axis-tick" pointer-events="none"><line transform="translate(0,200)" x2="-5" y2="0" stroke="#888" stroke-width="1" opacity="1"/><line transform="translate(0,144)" x2="-5" y2="0" stroke="#888" stroke-width="1" opacity="1"/><line transform="translate(0,89)" x2="-5" y2="0" stroke="#888" stroke-width="1" opacity="1"/><line transform="translate(0,33)" x2="-5" y2="0" stroke="#888" stroke-width="1" opacity="1"/></g><g class="mark-text role-axis-label" pointer-events="none"><text text-anchor="end" transform="translate(-7,203)" font-family="Liberation Mono" font-size="10px" fill="#000" opacity="1">0</text><text text-anchor="end" transform="translate(-7,147.44444444444443)" font-family="Liberation Mono" font-size="10px" fill="#000" opacity="1">500</text><text text-anchor="end" transform="translate(-7,91.88888888888889)" font-family="Liberation Mono" font-size="10px" fill="#000" opacity="1">1,000</text><text text-anchor="end" transform="translate(-7,36.33333333333333)" font-family="Liberation Mono" font-size="10px" fill="#000" opacity="1">1,500</text></g><g class="mark-rule role-axis-domain" pointer-events="none"><line transform="translate(0,200)" x2="0" y2="-200" stroke="#888" stroke-width="1" opacity="1"/></g><g class="mark-text role-axis-title" pointer-events="none"><text text-anchor="middle" transform="translate(-51,100) rotate(-90) translate(0,-2)" font-family="Liberation Mono" font-size="11px" font-weight="bold" fill="#000" opacity="1">Price</text></g></g><path class="foreground" aria-hidden="true" d="" pointer-events="none" display="none"/></g></g><g class="mark-group role-scope pathgroup" role="graphics-object" aria-roledescription="group mark container"><g transform="translate(0,0)"><path class="background" aria-hidden="true" d="M0,0h200v200h-200Z"/><g><g class="mark-line role-mark marks" role="graphics-object" aria-roledescription="line mark container"><path aria-label="Time: Aug 14, 2025; Price: 899; identifier: escape-city-disc-1-2024" role="graphics-symbol" aria-roledescription="line mark" d="M0,100.111L0.028,100.111L0.049,100.111L0.66,100.111L1.146,100.111L1.691,100.111L2.809,100.111L3.357,100.111L3.964,100.111L4.461,100.111L5.003,100.111L6.112,100.111L6.668,100.111L7.256,100.111L7.769,100.111L8.312,100.111L9.439,100.111L9.981,100.111L10.572,100.111L11.085,100.111L11.631,100.111L12.763,100.111L13.307,100.111L13.918,100.111L14.132,100.111L14.41,100.111L14.942,100.111L16.052,100.111L16.613,100.111L17.202,100.111L17.716,100.111L18.255,100.111L19.367,100.111L19.923,100.111L20.536,100.111L20.783,100.111L21.029,100.111L21.573,100.111L22.68,100.111L23.24,100.111L23.831,100.111L24.345,100.111L24.885,100.111L25.995,100.111L26.553,100.111L27.144,100.111L27.656,100.111L28.198,100.111L29.307,100.111L29.862,100.111L30.448,100.111L30.962,100.111L31.509,100.111L32.625,100.111L33.174,100.111L33.764,100.111L34.28,100.111L34.824,100.111L35.944,100.111L36.503,100.111L37.108,100.111L37.603,100.111L38.142,100.111L39.253,100.111L39.815,100.111L40.914,100.111L41.453,100.111L42.563,100.111L43.123,100.111L43.34,100.111L43.713,100.111L44.083,100.111L44.228,100.111L44.77,100.111L45.877,100.111L46.439,100.111L47.029,100.111L47.541,100.111L48.083,100.111L49.191,100.111L49.751,100.111L50.339,100.111L50.854,100.111L51.395,100.111L52.502,100.111L53.057,100.111L53.643,100.111L54.161,100.111L54.681,100.111L54.707,100.111L55.817,100.111L56.171,100.111L56.37,100.111L56.959,100.111L57.477,100.111L58.023,100.111L59.142,100.111L59.699,100.111L60.287,100.111L60.795,100.111L61.336,100.111L62.451,100.111L63.011,100.111L63.604,100.111L64.111,100.111L64.653,100.111L65.761,100.111L66.32,100.111L66.911,100.111L67.424,100.111L67.966,100.111L69.074,100.111L69.636,100.111L70.222,100.111L70.741,100.111L71.28,100.111L72.39,100.111L72.949,100.111L73.538,100.111L74.049,100.111L74.595,100.111L75.701,100.111L75.985,100.111L76.254,100.111L76.838,100.111L77.357,100.111L77.907,100.111L79.014,100.111L79.568,100.111L80.155,100.111L80.672,100.111L81.222,100.111L82.334,100.111L82.898,100.111L83.489,100.111L83.998,100.111L84.541,100.111L85.647,100.111L86.211,100.111L86.822,100.111L87.314,100.111L87.851,100.111L88.957,100.111L89.522,100.111L90.109,100.111L90.623,100.111L91.167,100.111L92.275,100.111L92.835,100.111L93.422,100.111L93.931,100.111L94.478,100.111L95.587,100.111L96.148,100.111L96.735,100.111L97.247,100.111L97.793,100.111L98.899,100.111L99.454,100.111L100.039,100.111L100.555,100.111L101.107,100.111L102.215,100.111L102.768,100.111L103.351,100.111L103.868,100.111L104.421,100.111L105.534,100.111L106.093,100.111L106.685,100.111L107.196,100.111L107.737,100.111L108.846,100.111L109.41,100.111L109.999,100.111L110.509,100.111L111.053,100.111L112.161,100.111L112.722,100.111L113.313,100.111L113.824,100.111L114.366,100.111L115.475,100.111L116.035,100.111L116.626,100.111L117.136,100.111L117.681,100.111L118.789,100.111L119.349,100.111L119.94,100.111L120.452,100.111L120.993,100.111L122.101,100.111L122.658,100.111L123.244,100.111L123.756,100.111L124.307,100.111L125.417,100.111L125.969,100.111L126.557,100.111L127.074,100.111L127.622,100.111L128.733,100.111L129.297,100.111L129.887,100.111L130.39,100.111L130.94,100.111L132.046,100.111L132.609,100.111L133.198,100.111L133.712,100.111L134.253,100.111L135.361,100.111L135.924,100.111L136.513,100.111L137.029,100.111L137.565,100.111L138.676,100.111L139.239,100.111L139.83,100.111L140.342,100.111L140.879,100.111L141.989,100.111L142.552,100.111L143.141,100.111L143.653,100.111L144.194,100.111L145.302,100.111L145.855,100.111L146.442,100.111L146.958,100.111L147.508,100.111L148.617,100.111L149.169,100.111L149.757,100.111L150.27,100.111L150.821,100.111L151.934,100.111L152.498,100.111L153.088,100.111L153.585,100.111L154.138,100.111L155.247,100.111L155.814,100.111L156.402,100.111L156.91,100.111L157.452,100.111L158.563,100.111L159.125,100.111L159.717,100.111L160.226,100.111L160.767,100.111L161.873,100.111L162.434,100.111L163.023,100.111L163.539,100.111L164.08,100.111L165.186,100.111L165.748,100.111L166.336,100.111L166.852,100.111L167.393,100.111L168.5,100.111L169.056,100.111L169.641,100.111L170.159,100.111L170.707,100.111L171.813,100.111L172.368,100.111L172.956,100.111L173.473,100.111L174.022,100.111L175.131,100.111L175.695,100.111L176.286,100.111L176.797,100.111L177.339,100.111L178.445,100.111L179.008,100.111L179.601,100.111L180.111,100.111L180.653,100.111L181.761,100.111L182.325,100.111L182.916,100.111L183.426,100.111L183.967,100.111L185.077,100.111L185.639,100.111L186.231,100.111L186.745,100.111L187.282,100.111L188.389,100.111L188.951,100.111L189.54,100.111L190.053,100.111L190.595,100.111L191.701,100.111L192.255,100.111L192.841,100.111L193.356,100.111L193.907,100.111L195.016,100.111L195.57,100.111L196.156,100.111L196.673,100.111L197.221,100.111L198.337,100.111L198.901,100.111L199.489,100.111L199.995,100.111" stroke="#4c78a8" stroke-width="2"/></g></g><path class="foreground" aria-hidden="true" d="" display="none"/></g><g transform="translate(0,0)"><path class="background" aria-hidden="true" d="M0,0h200v200h-200Z"/><g><g class="mark-line role-mark marks" role="graphics-object" aria-roledescription="line mark container"><path aria-label="Time: Aug 14, 2025; Price: 999; identifier: roam-2" role="graphics-symbol" aria-roledescription="line mark" d="M0,89L0.028,89L0.049,89L0.66,89L1.146,89L1.691,89L2.809,89L3.358,89L3.964,89L4.461,89L5.003,89L6.112,89L6.668,89L7.256,89L7.769,89L8.317,89L9.439,89L9.981,89L10.572,89L11.085,89L11.631,89L12.763,89L13.307,89L13.918,89L14.132,89L14.41,89L14.942,89L16.052,89L16.613,89L17.202,89L17.716,89L18.255,89L19.368,89L19.923,89L20.536,89L20.784,89L21.029,89L21.573,89L22.68,89L23.24,89L23.831,89L24.345,89L24.886,89L25.995,89L26.553,89L27.144,89L27.656,89L28.198,89L29.307,89L29.862,89L30.448,89L30.962,89L31.509,89L32.625,89L33.174,89L33.764,89L34.28,89L34.824,89L35.944,89L36.503,89L37.108,89L37.603,89L38.142,89L39.253,89L39.816,89L40.914,89L41.453,89L42.563,89L43.123,89L43.341,89L43.713,89L44.083,89L44.228,89L44.77,89L45.877,89L46.439,89L47.029,89L47.541,89L48.083,89L49.191,89L49.751,89L50.339,89L50.854,89L51.395,89L52.502,89L53.057,89L53.644,89L54.161,89L54.682,89L54.708,89L55.817,89L56.171,89L56.37,89L56.959,89L57.477,89L58.023,89L59.142,89L59.699,89L60.288,89L60.795,89L61.337,89L62.451,89L63.012,89L63.604,89L64.112,89L64.653,89L65.761,89L66.321,89L66.911,89L67.424,89L67.966,89L69.075,89L69.636,89L70.222,89L70.741,89L71.28,89L72.39,89L72.95,89L73.538,89L74.049,89L74.595,89L75.701,89L75.985,89L76.254,89L76.839,89L77.358,89L77.908,89L79.014,89L79.568,89L80.155,89L80.672,89L81.222,89L82.334,89L82.898,89L83.489,89L83.998,89L84.541,89L85.647,89L86.211,89L86.822,89L87.315,89L87.851,89L88.957,89L89.522,89L90.109,89L90.624,89L91.167,89L92.275,89L92.835,89L93.422,89L93.931,89L94.479,89L95.587,89L96.148,89L96.735,89L97.247,89L97.793,89L98.899,89L99.454,89L100.039,89L100.555,89L101.107,89L102.215,89L102.769,89L103.351,89L103.868,89L104.422,89L105.534,89L106.093,89L106.686,89L107.196,89L107.738,89L108.846,89L109.41,89L109.999,89L110.509,89L111.053,89L112.161,89L112.722,89L113.313,89L113.824,89L114.366,89L115.475,89L116.035,89L116.627,89L117.136,89L117.681,89L118.79,89L119.349,89L119.94,89L120.453,89L120.993,89L122.101,89L122.658,89L123.244,89L123.757,89L124.307,89L125.417,89L125.969,89L126.557,89L127.074,89L127.622,89L128.733,89L129.297,89L129.887,89L130.39,89L130.94,89L132.046,89L132.609,89L133.198,89L133.712,89L134.253,89L135.362,89L135.924,89L136.514,89L137.029,89L137.565,89L138.676,89L139.24,89L139.831,89L140.342,89L140.879,89L141.989,89L142.552,89L143.141,89L143.653,89L144.194,89L145.302,89L145.855,89L146.442,89L146.959,89L147.508,89L148.617,89L149.17,89L149.757,89L150.27,89L150.822,89L151.934,89L152.498,89L153.089,89L153.585,89L154.138,89L155.247,89L155.814,89L156.402,89L156.91,89L157.453,89L158.563,89L159.126,89L159.717,89L160.226,89L160.767,89L161.873,89L162.434,89L163.023,89L163.539,89L164.08,89L165.186,89L165.749,89L166.336,89L166.852,89L167.393,89L168.5,89L169.056,89L169.641,89L170.159,89L170.707,89L171.813,89L172.368,89L172.956,89L173.473,89L174.022,89L175.132,89L175.695,89L176.286,89L176.797,89L177.339,89L178.445,89L179.008,89L179.601,89L180.111,89L180.653,89L181.761,89L182.325,89L182.916,89L183.426,89L183.967,89L185.077,89L185.64,89L186.231,89L186.745,89L187.282,89L188.39,89L188.951,89L189.541,89L190.053,89L190.596,89L191.701,89L192.256,89L192.841,89L193.356,89L193.907,89L195.016,89L195.57,89L196.156,89L196.673,89L197.221,89L198.337,89L198.901,89L199.489,89L199.997,89" stroke="#ff9da6" stroke-width="2"/></g></g><path class="foreground" aria-hidden="true" d="" display="none"/></g><g transform="translate(0,0)"><path class="background" aria-hidden="true" d="M0,0h200v200h-200Z"/><g><g class="mark-line role-mark marks" role="graphics-object" aria-roledescription="line mark container"><path aria-label="Time: Aug 14, 2025; Price: 999; identifier: fastroad-sl-3-2022" role="graphics-symbol" aria-roledescription="line mark" d="M0,89L0.028,89L0.049,89L0.66,89L1.146,89L1.691,89L2.809,89L3.358,89L3.964,89L4.461,89L5.003,89L6.112,89L6.668,89L7.256,89L7.769,89L8.317,89L9.439,89L9.981,89L10.572,89L11.085,89L11.631,89L12.763,89L13.307,89L13.918,89L14.132,89L14.41,89L14.942,89L16.052,89L16.613,89L17.202,89L17.716,89L18.255,89L19.368,89L19.923,89L20.536,89L20.784,89L21.029,89L21.573,89L22.68,89L23.24,89L23.831,89L24.346,89L24.886,89L25.995,89L26.553,89L27.144,89L27.656,89L28.198,89L29.307,89L29.862,89L30.448,89L30.962,89L31.509,89L32.625,89L33.174,89L33.764,89L34.28,89L34.824,89L35.944,89L36.503,89L37.108,89L37.603,89L38.143,89L39.253,89L39.816,89L40.914,89L41.453,89L42.563,89L43.123,89L43.341,89L43.714,89L44.083,89L44.228,89L44.77,89L45.877,89L46.439,89L47.029,89L47.542,89L48.083,89L49.191,89L49.751,89L50.34,89L50.854,89L51.395,89L52.502,89L53.057,89L53.644,89L54.161,89L54.682,89L54.708,89L55.818,89L56.172,89L56.37,89L56.959,89L57.477,89L58.023,89L59.142,89L59.7,89L60.288,89L60.795,89L61.337,89L62.451,89L63.012,89L63.604,89L64.112,89L64.653,89L65.761,89L66.321,89L66.911,89L67.424,89L67.966,89L69.075,89L69.636,89L70.222,89L70.741,89L71.28,89L72.39,89L72.95,89L73.538,89L74.049,89L74.595,89L75.701,89L75.985,89L76.254,89L76.839,89L77.358,89L77.908,89L79.014,89L79.568,89L80.155,89L80.672,89L81.222,89L82.334,89L82.898,89L83.489,89L83.998,89L84.541,89L85.647,89L86.211,89L86.822,89L87.315,89L87.851,89L88.957,89L89.522,89L90.109,89L90.624,89L91.167,89L92.275,89L92.835,89L93.422,89L93.931,89L94.479,89L95.587,89L96.148,89L96.735,89L97.247,89L97.793,89L98.899,89L99.454,89L100.039,89L100.555,89L101.107,89L102.215,89L102.769,89L103.351,89L103.869,89L104.422,89L105.535,89L106.093,89L106.686,89L107.196,89L107.738,89L108.846,89L109.41,89L109.999,89L110.509,89L111.053,89L112.162,89L112.722,89L113.313,89L113.824,89L114.367,89L115.475,89L116.035,89L116.627,89L117.136,89L117.681,89L118.79,89L119.349,89L119.94,89L120.453,89L120.993,89L122.102,89L122.658,89L123.244,89L123.757,89L124.307,89L125.417,89L125.969,89L126.557,89L127.074,89L127.623,89L128.733,89L129.297,89L129.887,89L130.39,89L130.94,89L132.046,89L132.609,89L133.199,89L133.712,89L134.254,89L135.362,89L135.924,89L136.514,89L137.029,89L137.566,89L138.676,89L139.24,89L139.831,89L140.342,89L140.879,89L141.989,89L142.552,89L143.141,89L143.653,89L144.194,89L145.303,89L145.855,89L146.442,89L146.959,89L147.508,89L148.617,89L149.17,89L149.757,89L150.27,89L150.822,89L151.934,89L152.499,89L153.089,89L153.585,89L154.138,89L155.247,89L155.814,89L156.403,89L156.91,89L157.453,89L158.563,89L159.126,89L159.717,89L160.226,89L160.767,89L161.873,89L162.434,89L163.023,89L163.539,89L164.08,89L165.187,89L165.749,89L166.336,89L166.852,89L167.393,89L168.5,89L169.056,89L169.641,89L170.159,89L170.707,89L171.813,89L172.368,89L172.956,89L173.473,89L174.022,89L175.132,89L175.695,89L176.286,89L176.797,89L177.34,89L178.445,89L179.008,89L179.601,89L180.111,89L180.653,89L181.761,89L182.325,89L182.916,89L183.426,89L183.968,89L185.077,89L185.64,89L186.232,89L186.745,89L187.282,89L188.39,89L188.951,89L189.541,89L190.053,89L190.596,89L191.701,89L192.256,89L192.841,89L193.356,89L193.908,89L195.016,89L195.57,89L196.156,89L196.674,89L197.221,89L198.337,89L198.901,89L199.489,89L199.997,89" stroke="#9d755d" stroke-width="2"/></g></g><path class="foreground" aria-hidden="true" d="" display="none"/></g><g transform="translate(0,0)"><path class="background" aria-hidden="true" d="M0,0h200v200h-200Z"/><g><g class="mark-line role-mark marks" role="graphics-object" aria-roledescription="line mark container"><path aria-label="Time: Aug 14, 2025; Price: 1199; identifier: fastroad-ar-2" role="graphics-symbol" aria-roledescription="line mark" d="M0,66.778L0.028,66.778L0.049,66.778L0.661,66.778L1.146,66.778L1.691,66.778L2.809,66.778L3.358,66.778L3.964,66.778L4.461,66.778L5.003,66.778L6.112,66.778L6.668,66.778L7.256,66.778L7.769,66.778L8.32,66.778L9.439,66.778L9.981,66.778L10.572,66.778L11.086,66.778L11.631,66.778L12.763,66.778L13.307,66.778L13.918,66.778L14.132,66.778L14.41,66.778L14.942,66.778L16.052,66.778L16.613,66.778L17.202,66.778L17.716,66.778L18.255,66.778L19.368,66.778L19.923,66.778L20.536,66.778L20.784,66.778L21.029,66.778L21.573,66.778L22.68,66.778L23.24,66.778L23.831,66.778L24.346,66.778L24.886,66.778L25.995,66.778L26.553,66.778L27.144,66.778L27.656,66.778L28.198,66.778L29.307,66.778L29.863,66.778L30.448,66.778L30.962,66.778L31.509,66.778L32.625,66.778L33.175,66.778L33.764,66.778L34.28,66.778L34.824,66.778L35.944,66.778L36.503,66.778L37.108,66.778L37.603,66.778L38.143,66.778L39.253,66.778L39.816,66.778L40.914,66.778L41.453,66.778L42.563,66.778L43.123,66.778L43.341,66.778L43.714,66.778L44.083,66.778L44.228,66.778L44.77,66.778L45.877,66.778L46.439,66.778L47.029,66.778L47.542,66.778L48.083,66.778L49.191,66.778L49.751,66.778L50.34,66.778L50.855,66.778L51.396,66.778L52.502,66.778L53.057,66.778L53.644,66.778L54.161,66.778L54.682,66.778L54.708,66.778L55.818,66.778L56.172,66.778L56.37,66.778L56.96,66.778L57.477,66.778L58.023,66.778L59.142,66.778L59.7,66.778L60.288,66.778L60.795,66.778L61.337,66.778L62.451,66.778L63.012,66.778L63.604,66.778L64.112,66.778L64.653,66.778L65.761,66.778L66.321,66.778L66.911,66.778L67.424,66.778L67.966,66.778L69.075,66.778L69.636,66.778L70.222,66.778L70.741,66.778L71.28,66.778L72.39,66.778L72.95,66.778L73.538,66.778L74.049,66.778L74.595,66.778L75.701,66.778L75.985,66.778L76.254,66.778L76.839,66.778L77.358,66.778L77.908,66.778L79.014,66.778L79.568,66.778L80.155,66.778L80.672,66.778L81.222,66.778L82.334,66.778L82.898,66.778L83.489,66.778L83.998,66.778L84.541,66.778L85.647,66.778L86.211,66.778L86.822,66.778L87.315,66.778L87.852,66.778L88.957,66.778L89.522,66.778L90.11,66.778L90.624,66.778L91.167,66.778L92.276,66.778L92.835,66.778L93.422,66.778L93.931,66.778L94.479,66.778L95.587,66.778L96.148,66.778L96.735,66.778L97.247,66.778L97.793,66.778L98.9,66.778L99.454,66.778L100.04,66.778L100.555,66.778L101.107,66.778L102.215,66.778L102.769,66.778L103.351,66.778L103.869,66.778L104.422,66.778L105.535,66.778L106.093,66.778L106.686,66.778L107.197,66.778L107.738,66.778L108.846,66.778L109.411,66.778L109.999,66.778L110.509,66.778L111.053,66.778L112.162,66.778L112.722,66.778L113.313,66.778L113.824,66.778L114.367,66.778L115.475,66.778L116.035,66.778L116.627,66.778L117.137,66.778L117.681,66.778L118.79,66.778L119.35,66.778L119.94,66.778L120.453,66.778L120.993,66.778L122.102,66.778L122.658,66.778L123.244,66.778L123.757,66.778L124.307,66.778L125.417,66.778L125.969,66.778L126.557,66.778L127.074,66.778L127.623,66.778L128.733,66.778L129.297,66.778L129.887,66.778L130.39,66.778L130.94,66.778L132.046,66.778L132.609,66.778L133.199,66.778L133.712,66.778L134.254,66.778L135.362,66.778L135.924,66.778L136.514,66.778L137.029,66.778L137.566,66.778L138.676,66.778L139.24,66.778L139.831,66.778L140.342,66.778L140.879,66.778L141.989,66.778L142.552,66.778L143.141,66.778L143.653,66.778L144.194,66.778L145.303,66.778L145.855,66.778L146.442,66.778L146.959,66.778L147.509,66.778L148.617,66.778L149.17,66.778L149.757,66.778L150.27,66.778L150.822,66.778L151.934,66.778L152.499,66.778L153.089,66.778L153.585,66.778L154.138,66.778L155.247,66.778L155.814,66.778L156.403,66.778L156.91,66.778L157.453,66.778L158.563,66.778L159.126,66.778L159.718,66.778L160.226,66.778L160.767,66.778L161.874,66.778L162.435,66.778L163.023,66.778L163.539,66.778L164.08,66.778L165.187,66.778L165.749,66.778L166.336,66.778L166.852,66.778L167.393,66.778L168.5,66.778L169.056,66.778L169.641,66.778L170.159,66.778L170.707,66.778L171.813,66.778L172.368,66.778L172.956,66.778L173.473,66.778L174.022,66.778L175.132,66.778L175.695,66.778L176.286,66.778L176.797,66.778L177.34,66.778L178.445,66.778L179.008,66.778L179.601,66.778L180.111,66.778L180.653,66.778L181.761,66.778L182.325,66.778L182.916,66.778L183.426,66.778L183.968,66.778L185.077,66.778L185.64,66.778L186.232,66.778L186.745,66.778L187.282,66.778L188.39,66.778L188.951,66.778L189.541,66.778L190.053,66.778L190.596,66.778L191.701,66.778L192.256,66.778L192.841,66.778L193.356,66.778L193.908,66.778L195.016,66.778L195.57,66.778L196.156,66.778L196.674,66.778L197.221,66.778L198.337,66.778L198.901,66.778L199.489,66.778L199.998,66.778" stroke="#54a24b" stroke-width="2"/></g></g><path class="foreground" aria-hidden="true" d="" display="none"/></g><g transform="translate(0,0)"><path class="background" aria-hidden="true" d="M0,0h200v200h-200Z"/><g><g class="mark-line role-mark marks" role="graphics-object" aria-roledescription="line mark container"><path aria-label="Time: Aug 18, 2025; Price: 899; identifier: sdrbike-escape-1-city-disc" role="graphics-symbol" aria-roledescription="line mark" d="M14.132,100.111L14.411,100.111L14.942,100.111L16.052,100.111L16.613,100.111L17.202,100.111L17.716,100.111L18.255,100.111L19.368,100.111L19.923,100.111L20.536,100.111L20.784,100.111L21.029,100.111L21.573,100.111L22.68,100.111L23.24,100.111L23.832,100.111L24.346,100.111L24.886,100.111L25.995,100.111L26.554,100.111L27.145,100.111L27.657,100.111L28.198,100.111L29.307,100.111L29.863,100.111L30.448,100.111L30.962,100.111L31.509,100.111L32.625,100.111L33.175,100.111L33.765,100.111L34.28,100.111L34.825,100.111L35.944,100.111L36.504,100.111L37.108,100.111L37.603,100.111L38.143,100.111L39.253,100.111L39.816,100.111L40.914,100.111L41.454,100.111L42.563,100.111L43.123,100.111L43.341,100.111L43.714,100.111L44.083,100.111L44.228,100.111L44.77,100.111L45.877,100.111L46.439,100.111L47.029,100.111L47.542,100.111L48.083,100.111L49.192,100.111L49.751,100.111L50.34,100.111L50.855,100.111L51.396,100.111L52.502,100.111L53.057,100.111L53.644,100.111L54.161,100.111L54.682,100.111L54.708,100.111L55.818,100.111L56.172,100.111L56.37,100.111L56.96,100.111L57.477,100.111L58.023,100.111L59.143,100.111L59.7,100.111L60.288,100.111L60.795,100.111L61.337,100.111L62.452,100.111L63.012,100.111L63.604,100.111L64.112,100.111L64.653,100.111L65.762,100.111L66.321,100.111L66.911,100.111L67.424,100.111L67.966,100.111L69.075,100.111L69.636,100.111L70.222,100.111L70.741,100.111L71.28,100.111L72.391,100.111L72.95,100.111L73.539,100.111L74.049,100.111L74.595,100.111L75.701,100.111L75.986,100.111L76.254,100.111L76.839,100.111L77.358,100.111L77.908,100.111L79.014,100.111L79.568,100.111L80.155,100.111L80.672,100.111L81.222,100.111L82.335,100.111L82.898,100.111L83.489,100.111L83.998,100.111L84.541,100.111L85.647,100.111L86.211,100.111L86.822,100.111L87.315,100.111L87.852,100.111L88.957,100.111L89.522,100.111L90.11,100.111L90.624,100.111L91.167,100.111L92.276,100.111L92.835,100.111L93.423,100.111L93.932,100.111L94.479,100.111L95.587,100.111L96.148,100.111L96.735,100.111L97.247,100.111L97.793,100.111L98.9,100.111L99.455,100.111L100.04,100.111L100.555,100.111L101.108,100.111L102.215,100.111L102.769,100.111L103.352,100.111L103.869,100.111L104.422,100.111L105.535,100.111L106.093,100.111L106.686,100.111L107.197,100.111L107.738,100.111L108.846,100.111L109.411,100.111L109.999,100.111L110.509,100.111L111.053,100.111L112.162,100.111L112.722,100.111L113.314,100.111L113.824,100.111L114.367,100.111L115.475,100.111L116.035,100.111L116.627,100.111L117.137,100.111L117.681,100.111L118.79,100.111L119.35,100.111L119.94,100.111L120.453,100.111L120.994,100.111L122.102,100.111L122.658,100.111L123.244,100.111L123.757,100.111L124.307,100.111L125.417,100.111L125.97,100.111L126.557,100.111L127.074,100.111L127.623,100.111L128.733,100.111L129.297,100.111L129.887,100.111L130.39,100.111L130.94,100.111L132.046,100.111L132.609,100.111L133.199,100.111L133.712,100.111L134.254,100.111L135.362,100.111L135.924,100.111L136.514,100.111L137.029,100.111L137.566,100.111L138.676,100.111L139.24,100.111L139.831,100.111L140.342,100.111L140.879,100.111L141.989,100.111L142.552,100.111L143.141,100.111L143.653,100.111L144.194,100.111L145.303,100.111L145.855,100.111L146.442,100.111L146.959,100.111L147.509,100.111L148.617,100.111L149.17,100.111L149.757,100.111L150.271,100.111L150.822,100.111L151.934,100.111L152.499,100.111L153.089,100.111L153.585,100.111L154.138,100.111L155.247,100.111L155.814,100.111L156.403,100.111L156.91,100.111L157.453,100.111L158.564,100.111L159.126,100.111L159.718,100.111L160.226,100.111L160.768,100.111L161.874,100.111L162.435,100.111L163.023,100.111L163.54,100.111L164.08,100.111L165.187,100.111L165.749,100.111L166.336,100.111L166.852,100.111L167.394,100.111L168.5,100.111L169.056,100.111L169.641,100.111L170.159,100.111L170.707,100.111L171.813,100.111L172.368,100.111L172.956,100.111L173.473,100.111L174.022,100.111L175.132,100.111L175.695,100.111L176.286,100.111L176.797,100.111L177.34,100.111L178.446,100.111L179.008,100.111L179.601,100.111L180.111,100.111L180.653,100.111L181.762,100.111L182.325,100.111L182.916,100.111L183.426,100.111L183.968,100.111L185.077,100.111L185.64,100.111L186.232,100.111L186.745,100.111L187.283,100.111L188.39,100.111L188.951,100.111L189.541,100.111L190.053,100.111L190.596,100.111L191.701,100.111L192.256,100.111L192.841,100.111L193.356,100.111L193.908,100.111L195.016,100.111L195.57,100.111L196.157,100.111L196.674,100.111L197.222,100.111L198.337,100.111L198.902,100.111L199.489,100.111L199.998,100.111" stroke="#f58518" stroke-width="2"/></g></g><path class="foreground" aria-hidden="true" d="" display="none"/></g><g transform="translate(0,0)"><path class="background" aria-hidden="true" d="M0,0h200v200h-200Z"/><g><g class="mark-line role-mark marks" role="graphics-object" aria-roledescription="line mark container"><path aria-label="Time: Aug 20, 2025; Price: 899; identifier: roam-disc-2-2024" role="graphics-symbol" aria-roledescription="line mark" d="M20.784,100.111L21.029,100.111L21.573,100.111L22.68,100.111L23.24,100.111L23.831,100.111L24.345,100.111L24.885,100.111L25.995,100.111L26.553,100.111L27.144,100.111L27.656,100.111L28.198,100.111L29.307,100.111L29.862,100.111L30.448,100.111L30.962,100.111L31.509,100.111L32.625,100.111L33.174,100.111L33.764,100.111L34.28,100.111L34.824,100.111L35.944,100.111L36.503,100.111L37.108,100.111L37.603,100.111L38.142,100.111L39.253,100.111L39.815,100.111L40.914,100.111L41.453,100.111L42.563,100.111L43.123,100.111L43.34,100.111L43.713,100.111L44.083,100.111L44.228,100.111L44.77,100.111L45.877,100.111L46.439,100.111L47.029,100.111L47.541,100.111L48.083,100.111L49.191,100.111L49.751,100.111L50.339,100.111L50.854,100.111L51.395,100.111L52.502,100.111L53.057,100.111L53.643,100.111L54.161,100.111L54.682,100.111L54.708,100.111L55.817,100.111L56.171,100.111L56.37,100.111L56.959,100.111L57.477,100.111L58.023,100.111L59.142,100.111L59.699,100.111L60.287,100.111L60.795,100.111L61.336,100.111L62.451,100.111L63.012,100.111L63.604,100.111L64.111,100.111L64.653,100.111L65.761,100.111L66.321,100.111L66.911,100.111L67.424,100.111L67.966,100.111L69.075,100.111L69.636,100.111L70.222,100.111L70.741,100.111L71.28,100.111L72.39,100.111L72.95,100.111L73.538,100.111L74.049,100.111L74.595,100.111L75.701,100.111L75.985,100.111L76.254,100.111L76.839,100.111L77.358,100.111L77.908,100.111L79.014,100.111L79.568,100.111L80.155,100.111L80.672,100.111L81.222,100.111L82.334,100.111L82.898,100.111L83.489,100.111L83.998,100.111L84.541,100.111L85.647,100.111L86.211,100.111L86.822,100.111L87.314,100.111L87.851,100.111L88.957,100.111L89.522,100.111L90.109,100.111L90.623,100.111L91.167,100.111L92.275,100.111L92.835,100.111L93.422,100.111L93.931,100.111L94.479,100.111L95.587,100.111L96.148,100.111L96.735,100.111L97.247,100.111L97.793,100.111L98.899,100.111L99.454,100.111L100.039,100.111L100.555,100.111L101.107,100.111L102.215,100.111L102.769,100.111L103.351,100.111L103.868,100.111L104.421,100.111L105.534,100.111L106.093,100.111L106.686,100.111L107.196,100.111L107.738,100.111L108.846,100.111L109.41,100.111L109.999,100.111L110.509,100.111L111.053,100.111L112.161,100.111L112.722,100.111L113.313,100.111L113.824,100.111L114.366,100.111L115.475,100.111L116.035,100.111L116.626,100.111L117.136,100.111L117.681,100.111L118.79,100.111L119.349,100.111L119.94,100.111L120.452,100.111L120.993,100.111L122.101,100.111L122.658,100.111L123.244,100.111L123.757,100.111L124.307,100.111L125.417,100.111L125.969,100.111L126.557,100.111L127.074,100.111L127.622,100.111L128.733,100.111L129.297,100.111L129.887,100.111L130.39,100.111L130.94,100.111L132.046,100.111L132.609,100.111L133.198,100.111L133.712,100.111L134.253,100.111L135.361,100.111L135.924,100.111L136.514,100.111L137.029,100.111L137.565,100.111L138.676,100.111L139.239,100.111L139.83,100.111L140.342,100.111L140.879,100.111L141.989,100.111L142.552,100.111L143.141,100.111L143.653,100.111L144.194,100.111L145.302,100.111L145.855,100.111L146.442,100.111L146.958,100.111L147.508,100.111L148.617,100.111L149.17,100.111L149.757,100.111L150.27,100.111L150.821,100.111L151.934,100.111L152.498,100.111L153.089,100.111L153.585,100.111L154.138,100.111L155.247,100.111L155.814,100.111L156.402,100.111L156.91,100.111L157.453,100.111L158.563,100.111L159.126,100.111L159.717,100.111L160.226,100.111L160.767,100.111L161.873,100.111L162.434,100.111L163.023,100.111L163.539,100.111L164.08,100.111L165.186,100.111L165.748,100.111L166.336,100.111L166.852,100.111L167.393,100.111L168.5,100.111L169.056,100.111L169.641,100.111L170.159,100.111L170.707,100.111L171.813,100.111L172.368,100.111L172.956,100.111L173.473,100.111L174.022,100.111L175.131,100.111L175.695,100.111L176.286,100.111L176.797,100.111L177.339,100.111L178.445,100.111L179.008,100.111L179.601,100.111L180.111,100.111L180.653,100.111L181.761,100.111L182.325,100.111L182.916,100.111L183.426,100.111L183.967,100.111L185.077,100.111L185.64,100.111L186.231,100.111L186.745,100.111L187.282,100.111L188.39,100.111L188.951,100.111L189.541,100.111L190.053,100.111L190.596,100.111L191.701,100.111L192.256,100.111L192.841,100.111L193.356,100.111L193.907,100.111L195.016,100.111L195.57,100.111L196.156,100.111L196.673,100.111L197.221,100.111L198.337,100.111L198.901,100.111L199.489,100.111L199.995,100.111" stroke="#e45756" stroke-width="2"/></g></g><path class="foreground" aria-hidden="true" d="" display="none"/></g><g transform="translate(0,0)"><path class="background" aria-hidden="true" d="M0,0h200v200h-200Z"/><g><g class="mark-line role-mark marks" role="graphics-object" aria-roledescription="line mark container"><path aria-label="Time: Aug 20, 2025; Price: 1199; identifier: thrive-2" role="graphics-symbol" aria-roledescription="line mark" d="M20.784,66.778L21.029,66.778L21.573,66.778L22.68,66.778L23.24,66.778L23.832,66.778L24.346,66.778L24.886,66.778L25.995,66.778L26.554,66.778L27.145,66.778L27.657,66.778L28.198,66.778L29.307,66.778L29.863,66.778L30.449,66.778L30.962,66.778L31.509,66.778L32.626,66.778L33.175,66.778L33.765,66.778L34.281,66.778L34.825,66.778L35.944,66.778L36.504,66.778L37.108,66.778L37.603,66.778L38.143,66.778L39.254,66.778L39.816,66.778L40.914,66.778L41.454,66.778L42.563,66.778L43.123,66.778L43.341,66.778L43.714,66.778L44.083,66.778L44.228,66.778L44.77,66.778L45.877,66.778L46.439,66.778L47.03,66.778L47.542,66.778L48.083,66.778L49.192,66.778L49.751,66.778L50.34,66.778L50.855,66.778L51.396,66.778L52.502,66.778L53.058,66.778L53.644,66.778L54.161,66.778L54.682,66.778L54.708,66.778L55.818,66.778L56.172,66.778L56.37,66.778L56.96,66.778L57.477,66.778L58.023,66.778L59.143,66.778L59.7,66.778L60.288,66.778L60.795,66.778L61.337,66.778L62.452,66.778L63.012,66.778L63.604,66.778L64.112,66.778L64.653,66.778L65.762,66.778L66.321,66.778L66.911,66.778L67.425,66.778L67.967,66.778L69.075,66.778L69.636,66.778L70.223,66.778L70.741,66.778L71.28,66.778L72.391,66.778L72.95,66.778L73.539,66.778L74.049,66.778L74.595,66.778L75.701,66.778L75.986,66.778L76.254,66.778L76.839,66.778L77.358,66.778L77.908,66.778L79.015,66.778L79.568,66.778L80.155,66.778L80.672,66.778L81.222,66.778L82.335,66.778L82.898,66.778L83.489,66.778L83.998,66.778L84.541,66.778L85.647,66.778L86.211,66.778L86.822,66.778L87.315,66.778L87.852,66.778L88.957,66.778L89.522,66.778L90.11,66.778L90.624,66.778L91.168,66.778L92.276,66.778L92.835,66.778L93.423,66.778L93.932,66.778L94.479,66.778L95.587,66.778L96.148,66.778L96.735,66.778L97.247,66.778L97.793,66.778L98.9,66.778L99.455,66.778L100.04,66.778L100.555,66.778L101.108,66.778L102.215,66.778L102.769,66.778L103.352,66.778L103.869,66.778L104.422,66.778L105.535,66.778L106.094,66.778L106.686,66.778L107.197,66.778L107.739,66.778L108.846,66.778L109.411,66.778L109.999,66.778L110.509,66.778L111.053,66.778L112.162,66.778L112.722,66.778L113.314,66.778L113.824,66.778L114.367,66.778L115.476,66.778L116.036,66.778L116.627,66.778L117.137,66.778L117.682,66.778L118.79,66.778L119.35,66.778L119.94,66.778L120.453,66.778L120.994,66.778L122.102,66.778L122.658,66.778L123.244,66.778L123.757,66.778L124.307,66.778L125.417,66.778L125.97,66.778L126.558,66.778L127.074,66.778L127.623,66.778L128.733,66.778L129.298,66.778L129.887,66.778L130.391,66.778L130.94,66.778L132.047,66.778L132.609,66.778L133.199,66.778L133.712,66.778L134.254,66.778L135.362,66.778L135.925,66.778L136.514,66.778L137.029,66.778L137.566,66.778L138.676,66.778L139.24,66.778L139.831,66.778L140.342,66.778L140.879,66.778L141.989,66.778L142.552,66.778L143.141,66.778L143.653,66.778L144.194,66.778L145.303,66.778L145.855,66.778L146.442,66.778L146.959,66.778L147.509,66.778L148.617,66.778L149.17,66.778L149.758,66.778L150.271,66.778L150.822,66.778L151.934,66.778L152.499,66.778L153.089,66.778L153.585,66.778L154.138,66.778L155.247,66.778L155.814,66.778L156.403,66.778L156.91,66.778L157.453,66.778L158.564,66.778L159.126,66.778L159.718,66.778L160.226,66.778L160.768,66.778L161.874,66.778L162.435,66.778L163.023,66.778L163.54,66.778L164.08,66.778L165.187,66.778L165.749,66.778L166.336,66.778L166.852,66.778L167.394,66.778L168.5,66.778L169.056,66.778L169.641,66.778L170.159,66.778L170.708,66.778L171.813,66.778L172.368,66.778L172.956,66.778L173.473,66.778L174.022,66.778L175.132,66.778L175.695,66.778L176.286,66.778L176.798,66.778L177.34,66.778L178.446,66.778L179.008,66.778L179.601,66.778L180.112,66.778L180.653,66.778L181.762,66.778L182.325,66.778L182.916,66.778L183.426,66.778L183.968,66.778L185.077,66.778L185.64,66.778L186.232,66.778L186.745,66.778L187.283,66.778L188.39,66.778L188.951,66.778L189.541,66.778L190.053,66.778L190.596,66.778L191.701,66.778L192.256,66.778L192.841,66.778L193.356,66.778L193.908,66.778L195.016,66.778L195.57,66.778L196.157,66.778L196.674,66.778L197.222,66.778L198.337,66.778L198.902,66.778L199.489,66.778L199.999,66.778" stroke="#eeca3b" stroke-width="2"/></g></g><path class="foreground" aria-hidden="true" d="" display="none"/></g><g transform="translate(0,0)"><path class="background" aria-hidden="true" d="M0,0h200v200h-200Z"/><g><g class="mark-line role-mark marks" role="graphics-object" aria-roledescription="line mark container"><path aria-label="Time: Aug 20, 2025; Price: 999; identifier: rove-2" role="graphics-symbol" aria-roledescription="line mark" d="M20.784,89L21.03,89L21.574,89L22.68,89L23.24,89L23.832,89L24.346,89L24.886,89L25.995,89L26.554,89L27.145,89L27.657,89L28.198,89L29.307,89L29.863,89L30.449,89L30.962,89L31.509,89L32.626,89L33.175,89L33.765,89L34.281,89L34.825,89L35.944,89L36.504,89L37.108,89L37.603,89L38.143,89L39.254,89L39.816,89L40.914,89L41.454,89L42.564,89L43.123,89L43.341,89L43.714,89L44.083,89L44.228,89L44.77,89L45.877,89L46.439,89L47.03,89L47.542,89L48.083,89L49.192,89L49.751,89L50.34,89L50.855,89L51.396,89L54.682,111.222L54.708,111.222L55.818,111.222L56.172,111.222L56.37,111.222L56.96,111.222L57.477,111.222L58.023,111.222L59.143,111.222L59.7,111.222L60.288,111.222L60.796,111.222L61.337,111.222L62.452,111.222L63.012,111.222L63.604,111.222L64.112,111.222L64.654,111.222L65.762,111.222L66.321,111.222L66.911,111.222L67.425,111.222L67.967,111.222L69.075,111.222L69.637,111.222L70.223,111.222L70.741,111.222L71.28,111.222L72.391,111.222L72.95,111.222L73.539,111.222L74.049,111.222L74.596,111.222L75.701,111.222L75.986,111.222L76.254,111.222L76.839,111.222L77.358,111.222L77.908,111.222L79.015,111.222L79.568,111.222L80.155,111.222L80.673,111.222L81.222,111.222L82.335,111.222L82.898,111.222L83.489,111.222L83.999,111.222L84.541,111.222L85.648,111.222L86.211,111.222L86.822,111.222L87.315,111.222L87.852,111.222L88.957,111.222L89.522,111.222L90.11,111.222L90.624,111.222L91.168,111.222L92.276,111.222L92.835,111.222L93.423,111.222L93.932,111.222L94.479,111.222L95.588,111.222L96.148,111.222L96.735,111.222L97.248,111.222L97.793,111.222L98.9,111.222L99.455,111.222L100.04,111.222L100.555,111.222L101.108,111.222L102.215,111.222L102.769,111.222L103.352,111.222L103.869,111.222L104.422,111.222L105.535,111.222L106.094,111.222L106.686,111.222L107.197,111.222L107.739,111.222L108.846,111.222L109.411,111.222L109.999,111.222L110.509,111.222L111.053,111.222L112.162,111.222L112.722,111.222L113.314,111.222L113.825,111.222L114.367,111.222L115.476,111.222L116.036,111.222L116.627,111.222L117.137,111.222L117.682,111.222L118.79,111.222L119.35,111.222L119.94,111.222L120.453,111.222L120.994,111.222L122.102,111.222L122.658,111.222L123.244,111.222L123.757,111.222L124.307,111.222L125.417,111.222L125.97,111.222L126.558,111.222L127.074,111.222L127.623,111.222L128.733,111.222L129.298,111.222L129.887,111.222L130.391,111.222L130.94,111.222L132.047,111.222L132.609,111.222L133.199,111.222L133.712,111.222L134.254,111.222L135.362,111.222L135.925,111.222L136.514,111.222L137.029,111.222L137.566,111.222L138.676,111.222L139.24,111.222L139.831,111.222L140.342,111.222L140.879,111.222L141.989,111.222L142.552,111.222L143.141,111.222L143.653,111.222L144.194,111.222L145.303,111.222L145.855,111.222L146.442,111.222L146.959,111.222L147.509,111.222L148.617,111.222L149.17,111.222L149.758,111.222L150.271,111.222L150.822,111.222L151.935,111.222L152.499,111.222L153.089,111.222L153.585,111.222L154.138,111.222L155.248,111.222L155.815,111.222L156.403,111.222L156.911,111.222L157.453,111.222L158.564,111.222L159.126,111.222L159.718,111.222L160.226,111.222L160.768,111.222L161.874,111.222L162.435,111.222L163.023,111.222L163.54,111.222L164.08,111.222L165.187,111.222L165.749,111.222L166.336,111.222L166.852,111.222L167.394,111.222L168.5,111.222L169.056,111.222L169.641,111.222L170.159,111.222L170.708,111.222L171.813,111.222L172.369,111.222L172.957,111.222L173.473,111.222L174.023,111.222L175.132,111.222L175.695,111.222L176.286,111.222L176.798,111.222L177.34,111.222L178.446,111.222L179.008,111.222L179.601,111.222L180.112,111.222L180.653,111.222L181.762,111.222L182.325,111.222L182.917,111.222L183.426,111.222L183.968,111.222L185.077,111.222L185.64,111.222L186.232,111.222L186.745,111.222L187.283,111.222L188.39,111.222L188.952,111.222L189.541,111.222L190.053,111.222L190.596,111.222L191.702,111.222L192.256,111.222L192.842,111.222L193.357,111.222L193.908,111.222L195.016,111.222L195.57,111.222L196.157,111.222L196.674,111.222L197.222,111.222L198.337,111.222L198.902,111.222L199.489,111.222L199.999,111.222" stroke="#72b7b2" stroke-width="2"/></g></g><path class="foreground" aria-hidden="true" d="" display="none"/></g><g transform="translate(0,0)"><path class="background" aria-hidden="true" d="M0,0h200v200h-200Z"/><g><g class="mark-line role-mark marks" role="graphics-object" aria-roledescription="line mark container"><path aria-label="Time: Aug 27, 2025; Price: 1199; identifier: allure-rs-1-2023" role="graphics-symbol" aria-roledescription="line mark" d="M43.342,66.778L43.714,66.778L44.083,66.778L44.228,66.778L44.77,66.778L45.877,66.778L46.439,66.778L47.03,66.778L47.542,66.778L48.083,66.778L49.192,66.778L49.751,66.778L50.34,66.778L50.855,66.778L51.396,66.778L52.502,66.778L53.058,66.778L53.644,66.778L54.161,66.778L54.682,66.778L54.708,66.778L55.818,66.778L56.172,66.778L56.371,66.778L56.96,66.778L57.477,66.778L58.023,66.778L59.143,66.778L59.7,66.778L60.288,66.778L60.796,66.778L61.337,66.778L62.452,66.778L63.012,66.778L63.604,66.778L64.112,66.778L64.654,66.778L65.762,66.778L66.321,66.778L66.911,66.778L67.425,66.778L67.967,66.778L69.075,66.778L69.637,66.778L70.223,66.778L70.741,66.778L71.28,66.778L72.391,66.778L72.95,66.778L73.539,66.778L74.049,66.778L74.596,66.778L75.701,66.778L75.986,66.778L76.255,66.778L76.839,66.778L77.358,66.778L77.908,66.778L79.015,66.778L79.568,66.778L80.155,66.778L80.673,66.778L81.222,66.778L82.335,66.778L82.898,66.778L83.489,66.778L83.999,66.778L84.541,66.778L85.648,66.778L86.211,66.778L86.822,66.778L87.315,66.778L87.852,66.778L88.957,66.778L89.522,66.778L90.11,66.778L90.624,66.778L91.168,66.778L92.276,66.778L92.835,66.778L93.423,66.778L93.932,66.778L94.479,66.778L95.588,66.778L96.149,66.778L96.735,66.778L97.248,66.778L97.793,66.778L98.9,66.778L99.455,66.778L100.04,66.778L100.556,66.778L101.108,66.778L102.215,66.778L102.769,66.778L103.352,66.778L103.869,66.778L104.422,66.778L105.535,66.778L106.094,66.778L106.686,66.778L107.197,66.778L107.739,66.778L108.847,66.778L109.411,66.778L110,66.778L110.51,66.778L111.053,66.778L112.162,66.778L112.722,66.778L113.314,66.778L113.825,66.778L114.367,66.778L115.476,66.778L116.036,66.778L116.627,66.778L117.137,66.778L117.682,66.778L118.79,66.778L119.35,66.778L119.94,66.778L120.453,66.778L120.994,66.778L122.102,66.778L122.658,66.778L123.244,66.778L123.757,66.778L124.307,66.778L125.417,66.778L125.97,66.778L126.558,66.778L127.074,66.778L127.623,66.778L128.733,66.778L129.298,66.778L129.887,66.778L130.391,66.778L130.94,66.778L132.047,66.778L132.609,66.778L133.199,66.778L133.713,66.778L134.254,66.778L135.362,66.778L135.925,66.778L136.514,66.778L137.029,66.778L137.566,66.778L138.676,66.778L139.24,66.778L139.831,66.778L140.342,66.778L140.88,66.778L141.989,66.778L142.552,66.778L143.141,66.778L143.654,66.778L144.194,66.778L145.303,66.778L145.855,66.778L146.442,66.778L146.959,66.778L147.509,66.778L148.617,66.778L149.17,66.778L149.758,66.778L150.271,66.778L150.822,66.778L151.935,66.778L152.499,66.778L153.089,66.778L153.585,66.778L154.138,66.778L155.248,66.778L155.815,66.778L156.403,66.778L156.911,66.778L157.453,66.778L158.564,66.778L159.126,66.778L159.718,66.778L160.226,66.778L160.768,66.778L161.874,66.778L162.435,66.778L163.023,66.778L163.54,66.778L164.08,66.778L165.187,66.778L165.749,66.778L166.336,66.778L166.852,66.778L167.394,66.778L168.5,66.778L169.056,66.778L169.641,66.778L170.159,66.778L170.708,66.778L171.813,66.778L172.369,66.778L172.957,66.778L173.473,66.778L174.023,66.778L175.132,66.778L175.695,66.778L176.286,66.778L176.798,66.778L177.34,66.778L178.446,66.778L179.008,66.778L179.601,66.778L180.112,66.778L180.653,66.778L181.762,66.778L182.326,66.778L182.917,66.778L183.426,66.778L183.968,66.778L185.078,66.778L185.64,66.778L186.232,66.778L186.746,66.778L187.283,66.778L188.39,66.778L188.952,66.778L189.541,66.778L190.053,66.778L190.597,66.778L191.702,66.778L192.256,66.778L192.842,66.778L193.357,66.778L193.908,66.778L195.016,66.778L195.57,66.778L196.157,66.778L196.674,66.778L197.222,66.778L198.337,66.778L198.902,66.778L199.489,66.778L199.999,66.778" stroke="#b279a2" stroke-width="2"/></g></g><path class="foreground" aria-hidden="true" d="" display="none"/></g><g transform="translate(0,0)"><path class="background" aria-hidden="true" d="M0,0h200v200h-200Z"/><g><g class="mark-line role-mark marks" role="graphics-object" aria-roledescription="line mark container"><path aria-label="Time: Aug 27, 2025; Price: 999; identifier: allure-rs-2-2022" role="graphics-symbol" aria-roledescription="line mark" d="M43.342,89L43.714,89L44.083,89L44.228,89L44.771,89L45.877,89L46.439,89L47.03,89L47.542,89L48.083,89L49.192,89L49.751,89L50.34,89L50.855,89L51.396,89L54.682,111.222L54.708,111.222L55.818,111.222L56.172,111.222L56.371,111.222L56.96,111.222L57.477,111.222L58.024,111.222L59.143,111.222L59.7,111.222L60.288,111.222L60.796,111.222L61.337,111.222L62.452,111.222L63.012,111.222L63.605,111.222L64.112,111.222L64.654,111.222L65.762,111.222L66.321,111.222L66.911,111.222L67.425,111.222L67.967,111.222L69.075,111.222L69.637,111.222L70.223,111.222L70.741,111.222L71.28,111.222L72.391,111.222L72.95,111.222L73.539,111.222L74.049,111.222L74.596,111.222L75.702,111.222L75.986,111.222L76.255,111.222L76.839,111.222L77.358,111.222L77.908,111.222L79.015,111.222L79.569,111.222L80.156,111.222L80.673,111.222L81.222,111.222L82.335,111.222L82.898,111.222L83.49,111.222L83.999,111.222L84.541,111.222L85.648,111.222L86.211,111.222L86.823,111.222L87.315,111.222L87.852,111.222L88.957,111.222L89.522,111.222L90.11,111.222L90.624,111.222L91.168,111.222L92.276,111.222L92.836,111.222L93.423,111.222L93.932,111.222L94.479,111.222L95.588,111.222L96.149,111.222L96.736,111.222L97.248,111.222L97.793,111.222L98.9,111.222L99.455,111.222L100.04,111.222L100.556,111.222L101.108,111.222L102.215,111.222L102.769,111.222L103.352,111.222L103.869,111.222L104.422,111.222L105.535,111.222L106.094,111.222L106.686,111.222L107.197,111.222L107.739,111.222L108.847,111.222L109.411,111.222L110,111.222L110.51,111.222L111.053,111.222L112.162,111.222L112.722,111.222L113.314,111.222L113.825,111.222L114.367,111.222L115.476,111.222L116.036,111.222L116.627,111.222L117.137,111.222L117.682,111.222L118.79,111.222L119.35,111.222L119.94,111.222L120.453,111.222L120.994,111.222L122.102,111.222L122.658,111.222L123.244,111.222L123.757,111.222L124.307,111.222L125.417,111.222L125.97,111.222L126.558,111.222L127.074,111.222L127.623,111.222L128.734,111.222L129.298,111.222L129.888,111.222L130.391,111.222L130.94,111.222L132.047,111.222L132.609,111.222L133.199,111.222L133.713,111.222L134.254,111.222L135.362,111.222L135.925,111.222L136.514,111.222L137.029,111.222L137.566,111.222L138.677,111.222L139.24,111.222L139.831,111.222L140.343,111.222L140.88,111.222L141.989,111.222L142.553,111.222L143.141,111.222L143.654,111.222L144.194,111.222L145.303,111.222L145.856,111.222L146.442,111.222L146.959,111.222L147.509,111.222L148.617,111.222L149.17,111.222L149.758,111.222L150.271,111.222L150.822,111.222L151.935,111.222L152.499,111.222L153.089,111.222L153.585,111.222L154.139,111.222L155.248,111.222L155.815,111.222L156.403,111.222L156.911,111.222L157.453,111.222L158.564,111.222L159.126,111.222L159.718,111.222L160.226,111.222L160.768,111.222L161.874,111.222L162.435,111.222L163.024,111.222L163.54,111.222L164.08,111.222L165.187,111.222L165.749,111.222L166.336,111.222L166.852,111.222L167.394,111.222L168.501,111.222L169.056,111.222L169.641,111.222L170.159,111.222L170.708,111.222L171.813,111.222L172.369,111.222L172.957,111.222L173.473,111.222L174.023,111.222L175.132,111.222L175.695,111.222L176.286,111.222L176.798,111.222L177.34,111.222L178.446,111.222L179.008,111.222L179.601,111.222L180.112,111.222L180.654,111.222L181.762,111.222L182.326,111.222L182.917,111.222L183.426,111.222L183.968,111.222L185.078,111.222L185.64,111.222L186.232,111.222L186.746,111.222L187.283,111.222L188.39,111.222L188.952,111.222L189.541,111.222L190.054,111.222L190.597,111.222L191.702,111.222L192.256,111.222L192.842,111.222L193.357,111.222L193.908,111.222L195.016,111.222L195.57,111.222L196.157,111.222L196.674,111.222L197.222,111.222L198.337,111.222L198.902,111.222L199.489,111.222L199.999,111.222" stroke="#54a24b" stroke-width="2"/></g></g><path class="foreground" aria-hidden="true" d="" display="none"/></g><g transform="translate(0,0)"><path class="background" aria-hidden="true" d="M0,0h200v200h-200Z"/><g><g class="mark-line role-mark marks" role="graphics-object" aria-roledescription="line mark container"><path aria-label="Time: Aug 27, 2025; Price: 949; identifier: allure-rs-2-2023" role="graphics-symbol" aria-roledescription="line mark" d="M43.342,94.556L43.714,94.556L44.084,94.556L44.228,94.556L44.771,94.556L45.877,94.556L46.439,94.556L47.03,94.556L47.542,94.556L48.084,94.556L49.192,94.556L49.751,94.556L50.34,94.556L50.855,94.556L51.396,94.556L52.502,94.556L53.058,94.556L53.644,94.556L54.161,94.556L54.682,94.556L54.708,94.556L55.818,94.556L56.172,94.556L56.371,94.556L56.96,94.556L57.477,94.556L58.024,94.556L59.143,94.556L59.7,94.556L60.288,94.556L60.796,94.556L61.337,94.556L62.452,94.556L63.012,94.556L63.605,94.556L64.112,94.556L64.654,94.556L65.762,94.556L66.321,94.556L66.912,94.556L67.425,94.556L67.967,94.556L69.075,94.556L69.637,94.556L70.223,94.556L70.742,94.556L71.28,94.556L72.391,94.556L72.95,94.556L73.539,94.556L74.049,94.556L74.596,94.556L75.702,94.556L75.986,94.556L76.255,94.556L76.839,94.556L77.358,94.556L77.908,94.556L79.015,94.556L79.569,94.556L80.156,94.556L80.673,94.556L81.222,94.556L82.335,94.556L82.899,94.556L83.49,94.556L83.999,94.556L84.542,94.556L85.648,94.556L86.211,94.556L86.823,94.556L87.315,94.556L87.852,94.556L88.957,94.556L89.523,94.556L90.11,94.556L90.624,94.556L91.168,94.556L92.276,94.556L92.836,94.556L93.423,94.556L93.932,94.556L94.479,94.556L95.588,94.556L96.149,94.556L96.736,94.556L97.248,94.556L97.793,94.556L98.9,94.556L99.455,94.556L100.04,94.556L100.556,94.556L101.108,94.556L102.215,94.556L102.769,94.556L103.352,94.556L103.869,94.556L104.422,94.556L105.535,94.556L106.094,94.556L106.686,94.556L107.197,94.556L107.739,94.556L108.847,94.556L109.411,94.556L110,94.556L110.51,94.556L111.053,94.556L112.162,94.556L112.722,94.556L113.314,94.556L113.825,94.556L114.367,94.556L115.476,94.556L116.036,94.556L116.627,94.556L117.137,94.556L117.682,94.556L118.79,94.556L119.35,94.556L119.94,94.556L120.453,94.556L120.994,94.556L122.102,94.556L122.658,94.556L123.245,94.556L123.757,94.556L124.307,94.556L125.418,94.556L125.97,94.556L126.558,94.556L127.074,94.556L127.623,94.556L128.734,94.556L129.298,94.556L129.888,94.556L130.391,94.556L130.94,94.556L132.047,94.556L132.609,94.556L133.199,94.556L133.713,94.556L134.254,94.556L135.362,94.556L135.925,94.556L136.514,94.556L137.029,94.556L137.566,94.556L138.677,94.556L139.24,94.556L139.831,94.556L140.343,94.556L140.88,94.556L141.989,94.556L142.553,94.556L143.142,94.556L143.654,94.556L144.194,94.556L145.303,94.556L145.856,94.556L146.442,94.556L146.959,94.556L147.509,94.556L148.617,94.556L149.17,94.556L149.758,94.556L150.271,94.556L150.822,94.556L151.935,94.556L152.499,94.556L153.089,94.556L153.585,94.556L154.139,94.556L155.248,94.556L155.815,94.556L156.403,94.556L156.911,94.556L157.453,94.556L158.564,94.556L159.126,94.556L159.718,94.556L160.226,94.556L160.768,94.556L161.874,94.556L162.435,94.556L163.024,94.556L163.54,94.556L164.08,94.556L165.187,94.556L165.749,94.556L166.336,94.556L166.852,94.556L167.394,94.556L168.501,94.556L169.056,94.556L169.642,94.556L170.159,94.556L170.708,94.556L171.813,94.556L172.369,94.556L172.957,94.556L173.473,94.556L174.023,94.556L175.132,94.556L175.695,94.556L176.287,94.556L176.798,94.556L177.34,94.556L178.446,94.556L179.008,94.556L179.601,94.556L180.112,94.556L180.654,94.556L181.762,94.556L182.326,94.556L182.917,94.556L183.426,94.556L183.968,94.556L185.078,94.556L185.64,94.556L186.232,94.556L186.746,94.556L187.283,94.556L188.39,94.556L188.952,94.556L189.541,94.556L190.054,94.556L190.597,94.556L191.702,94.556L192.256,94.556L192.842,94.556L193.357,94.556L193.908,94.556L195.017,94.556L195.571,94.556L196.157,94.556L196.674,94.556L197.222,94.556L198.338,94.556L198.902,94.556L199.489,94.556L199.999,94.556" stroke="#bab0ac" stroke-width="2"/></g></g><path class="foreground" aria-hidden="true" d="" display="none"/></g><g transform="translate(0,0)"><path class="background" aria-hidden="true" d="M0,0h200v200h-200Z"/><g><g class="mark-line role-mark marks" role="graphics-object" aria-roledescription="line mark container"><path aria-label="Time: Aug 27, 2025; Price: 999; identifier: allure-rs-2-2024" role="graphics-symbol" aria-roledescription="line mark" d="M43.342,89L43.714,89L44.084,89L44.228,89L44.771,89L45.878,89L46.44,89L47.03,89L47.542,89L48.084,89L49.192,89L49.751,89L50.34,89L50.855,89L51.396,89L54.683,111.222L54.708,111.222L55.818,111.222L56.172,111.222L56.371,111.222L56.96,111.222L57.477,111.222L58.024,111.222L59.143,111.222L59.7,111.222L60.288,111.222L60.796,111.222L61.337,111.222L62.452,111.222L63.012,111.222L63.605,111.222L64.112,111.222L64.654,111.222L65.762,111.222L66.321,111.222L66.912,111.222L67.425,111.222L67.967,111.222L69.075,111.222L69.637,111.222L70.223,111.222L70.742,111.222L71.281,111.222L72.391,111.222L72.95,111.222L73.539,111.222L74.05,111.222L74.596,111.222L75.702,111.222L75.986,111.222L76.255,111.222L76.839,111.222L77.358,111.222L77.908,111.222L79.015,111.222L79.569,111.222L80.156,111.222L80.673,111.222L81.222,111.222L82.335,111.222L82.899,111.222L83.49,111.222L83.999,111.222L84.542,111.222L85.648,111.222L86.212,111.222L86.823,111.222L87.315,111.222L87.852,111.222L88.958,111.222L89.523,111.222L90.11,111.222L90.624,111.222L91.168,111.222L92.276,111.222L92.836,111.222L93.423,111.222L93.932,111.222L94.479,111.222L95.588,111.222L96.149,111.222L96.736,111.222L97.248,111.222L97.793,111.222L98.9,111.222L99.455,111.222L100.04,111.222L100.556,111.222L101.108,111.222L102.216,111.222L102.769,111.222L103.352,111.222L103.869,111.222L104.422,111.222L105.535,111.222L106.094,111.222L106.686,111.222L107.197,111.222L107.739,111.222L108.847,111.222L109.411,111.222L110,111.222L110.51,111.222L111.054,111.222L112.162,111.222L112.723,111.222L113.314,111.222L113.825,111.222L114.367,111.222L115.476,111.222L116.036,111.222L116.628,111.222L117.137,111.222L117.682,111.222L118.79,111.222L119.35,111.222L119.94,111.222L120.453,111.222L120.994,111.222L122.102,111.222L122.658,111.222L123.245,111.222L123.757,111.222L124.307,111.222L125.418,111.222L125.97,111.222L126.558,111.222L127.074,111.222L127.623,111.222L128.734,111.222L129.298,111.222L129.888,111.222L130.391,111.222L130.94,111.222L132.047,111.222L132.609,111.222L133.199,111.222L133.713,111.222L134.254,111.222L135.362,111.222L135.925,111.222L136.514,111.222L137.029,111.222L137.566,111.222L138.677,111.222L139.24,111.222L139.831,111.222L140.343,111.222L140.88,111.222L141.99,111.222L142.553,111.222L143.142,111.222L143.654,111.222L144.194,111.222L145.303,111.222L145.856,111.222L146.442,111.222L146.959,111.222L147.509,111.222L148.617,111.222L149.17,111.222L149.758,111.222L150.271,111.222L150.822,111.222L151.935,111.222L152.499,111.222L153.089,111.222L153.585,111.222L154.139,111.222L155.248,111.222L155.815,111.222L156.403,111.222L156.911,111.222L157.453,111.222L158.564,111.222L159.126,111.222L159.718,111.222L160.227,111.222L160.768,111.222L161.874,111.222L162.435,111.222L163.024,111.222L163.54,111.222L164.08,111.222L165.187,111.222L165.749,111.222L166.336,111.222L166.852,111.222L167.394,111.222L168.501,111.222L169.057,111.222L169.642,111.222L170.16,111.222L170.708,111.222L171.813,111.222L172.369,111.222L172.957,111.222L173.473,111.222L174.023,111.222L175.132,111.222L175.695,111.222L176.287,111.222L176.798,111.222L177.34,111.222L178.446,111.222L179.008,111.222L179.601,111.222L180.112,111.222L180.654,111.222L181.762,111.222L182.326,111.222L182.917,111.222L183.426,111.222L183.968,111.222L185.078,111.222L185.64,111.222L186.232,111.222L186.746,111.222L187.283,111.222L188.39,111.222L188.952,111.222L189.541,111.222L190.054,111.222L190.597,111.222L191.702,111.222L192.256,111.222L192.842,111.222L193.357,111.222L193.908,111.222L195.017,111.222L195.571,111.222L196.157,111.222L196.674,111.222L197.222,111.222L198.338,111.222L198.902,111.222L199.49,111.222L200,111.222" stroke="#eeca3b" stroke-width="2"/></g></g><path class="foreground" aria-hidden="true" d="" display="none"/></g><g transform="translate(0,0)"><path class="background" aria-hidden="true" d="M0,0h200v200h-200Z"/><g><g class="mark-line role-mark marks" role="graphics-object" aria-roledescription="line mark container"><path aria-label="Time: Aug 27, 2025; Price: 1799; identifier: devote-1-2024" role="graphics-symbol" aria-roledescription="line mark" d="M44.084,0.111L44.228,0.111L44.771,0.111L45.878,0.111L46.44,0.111L47.03,0.111L47.542,0.111L48.084,0.111L49.192,0.111L49.752,0.111L50.34,0.111L50.855,0.111L51.396,0.111L54.683,44.556L54.708,44.556L55.818,44.556L56.172,44.556L56.371,44.556L56.96,44.556L57.477,44.556L58.024,44.556L59.143,44.556L59.7,44.556L60.288,44.556L60.796,44.556L61.337,44.556L62.452,44.556L63.012,44.556L63.605,44.556L64.112,44.556L64.654,44.556L65.762,44.556L66.321,44.556L66.912,44.556L67.425,44.556L67.967,44.556L69.076,44.556L69.637,44.556L70.223,44.556L70.742,44.556L71.281,44.556L72.391,44.556L72.95,44.556L73.539,44.556L74.05,44.556L74.596,44.556L75.702,44.556L75.986,44.556L76.255,44.556L76.84,44.556L77.358,44.556L77.908,44.556L79.015,44.556L79.569,44.556L80.156,44.556L80.673,44.556L81.222,44.556L82.335,44.556L82.899,44.556L83.49,44.556L83.999,44.556L84.542,44.556L85.648,44.556L86.212,44.556L86.823,44.556L87.315,44.556L87.852,44.556L88.958,44.556L89.523,44.556L90.11,44.556L90.624,44.556L91.168,44.556L92.276,44.556L92.836,44.556L93.423,44.556L93.932,44.556L94.479,44.556L95.588,44.556L96.149,44.556L96.736,44.556L97.248,44.556L97.793,44.556L98.9,44.556L99.455,44.556L100.04,44.556L100.556,44.556L101.108,44.556L102.216,44.556L102.769,44.556L103.352,44.556L103.869,44.556L104.422,44.556L105.535,44.556L106.094,44.556L106.687,44.556L107.198,44.556L107.74,44.556L108.847,44.556L109.411,44.556L110,44.556L110.51,44.556L111.054,44.556L112.162,44.556L112.723,44.556L113.314,44.556L113.825,44.556L114.367,44.556L115.476,44.556L116.036,44.556L116.628,44.556L117.137,44.556L117.682,44.556L118.79,44.556L119.35,44.556L119.94,44.556L120.453,44.556L120.994,44.556L122.102,44.556L122.659,44.556L123.245,44.556L123.757,44.556L124.307,44.556L125.418,44.556L125.97,44.556L126.558,44.556L127.074,44.556L127.623,44.556L128.734,44.556L129.298,44.556L129.888,44.556L130.391,44.556L130.94,44.556L132.047,44.556L132.609,44.556L133.199,44.556L133.713,44.556L134.254,44.556L135.362,44.556L135.925,44.556L136.514,44.556L137.029,44.556L137.566,44.556L138.677,44.556L139.24,44.556L139.831,44.556L140.343,44.556L140.88,44.556L141.99,44.556L142.553,44.556L143.142,44.556L143.654,44.556L144.195,44.556L145.303,44.556L145.856,44.556L146.443,44.556L146.959,44.556L147.509,44.556L148.618,44.556L149.17,44.556L149.758,44.556L150.271,44.556L150.822,44.556L151.935,44.556L152.499,44.556L153.089,44.556L153.585,44.556L154.139,44.556L155.248,44.556L155.815,44.556L156.403,44.556L156.911,44.556L157.453,44.556L158.564,44.556L159.127,44.556L159.718,44.556L160.227,44.556L160.768,44.556L161.874,44.556L162.435,44.556L163.024,44.556L163.54,44.556L164.08,44.556L165.187,44.556L165.749,44.556L166.337,44.556L166.853,44.556L167.394,44.556L168.501,44.556L169.057,44.556L169.642,44.556L170.16,44.556L170.708,44.556L171.813,44.556L172.369,44.556L172.957,44.556L173.474,44.556L174.023,44.556L175.132,44.556L175.695,44.556L176.287,44.556L176.798,44.556L177.34,44.556L178.446,44.556L179.008,44.556L179.602,44.556L180.112,44.556L180.654,44.556L181.762,44.556L182.326,44.556L182.917,44.556L183.427,44.556L183.968,44.556L185.078,44.556L185.64,44.556L186.232,44.556L186.746,44.556L187.283,44.556L188.391,44.556L188.952,44.556L189.541,44.556L190.054,44.556L190.597,44.556L191.702,44.556L192.256,44.556L192.842,44.556L193.357,44.556L193.908,44.556L195.017,44.556L195.571,44.556L196.157,44.556L196.674,44.556L197.222,44.556L198.338,44.556L198.902,44.556L199.49,44.556L200,44.556" stroke="#72b7b2" stroke-width="2"/></g></g><path class="foreground" aria-hidden="true" d="" display="none"/></g><g transform="translate(0,0)"><path class="background" aria-hidden="true" d="M0,0h200v200h-200Z"/><g><g class="mark-line role-mark marks" role="graphics-object" aria-roledescription="line mark container"><path aria-label="Time: Aug 27, 2025; Price: 1699; identifier: devote-1-2022" role="graphics-symbol" aria-roledescription="line mark" d="M44.084,11.222L44.229,11.222L44.771,11.222L45.878,11.222L46.44,11.222L47.03,11.222L47.542,11.222L48.084,11.222L49.192,11.222L49.752,11.222L50.34,11.222L50.855,11.222L51.396,11.222L52.503,11.222L53.058,11.222L53.645,11.222L54.161,11.222L54.683,11.222L54.708,11.222L55.818,11.222L56.172,11.222L56.371,11.222L56.96,11.222L57.477,11.222L58.024,11.222L59.143,11.222L59.7,11.222L60.288,11.222L60.796,11.222L61.337,11.222L62.452,11.222L63.012,11.222L63.605,11.222L64.112,11.222L64.654,11.222L65.762,11.222L66.321,11.222L66.912,11.222L67.425,11.222L67.967,11.222L69.076,11.222L69.637,11.222L70.223,11.222L70.742,11.222L71.281,11.222L72.391,11.222L72.95,11.222L73.539,11.222L74.05,11.222L74.596,11.222L75.702,11.222L75.986,11.222L76.255,11.222L76.84,11.222L77.358,11.222L77.908,11.222L79.015,11.222L79.569,11.222L80.156,11.222L80.673,11.222L81.222,11.222L82.335,11.222L82.899,11.222L83.49,11.222L83.999,11.222L84.542,11.222L85.648,11.222L86.212,11.222L86.823,11.222L87.315,11.222L87.852,11.222L88.958,11.222L89.523,11.222L90.11,11.222L90.624,11.222L91.168,11.222L92.276,11.222L92.836,11.222L93.423,11.222L93.932,11.222L94.479,11.222L95.588,11.222L96.149,11.222L96.736,11.222L97.248,11.222L97.793,11.222L98.9,11.222L99.455,11.222L100.04,11.222L100.556,11.222L101.108,11.222L102.216,11.222L102.77,11.222L103.352,11.222L103.869,11.222L104.422,11.222L105.535,11.222L106.094,11.222L106.687,11.222L107.198,11.222L107.74,11.222L108.847,11.222L109.411,11.222L110,11.222L110.51,11.222L111.054,11.222L112.162,11.222L112.723,11.222L113.314,11.222L113.825,11.222L114.367,11.222L115.476,11.222L116.036,11.222L116.628,11.222L117.137,11.222L117.682,11.222L118.79,11.222L119.35,11.222L119.941,11.222L120.453,11.222L120.994,11.222L122.102,11.222L122.659,11.222L123.245,11.222L123.757,11.222L124.307,11.222L125.418,11.222L125.97,11.222L126.558,11.222L127.074,11.222L127.623,11.222L128.734,11.222L129.298,11.222L129.888,11.222L130.391,11.222L130.94,11.222L132.047,11.222L132.61,11.222L133.199,11.222L133.713,11.222L134.254,11.222L135.362,11.222L135.925,11.222L136.514,11.222L137.029,11.222L137.566,11.222L138.677,11.222L139.24,11.222L139.831,11.222L140.343,11.222L140.88,11.222L141.99,11.222L142.553,11.222L143.142,11.222L143.654,11.222L144.195,11.222L145.303,11.222L145.856,11.222L146.443,11.222L146.959,11.222L147.509,11.222L148.618,11.222L149.17,11.222L149.758,11.222L150.271,11.222L150.822,11.222L151.935,11.222L152.499,11.222L153.09,11.222L153.585,11.222L154.139,11.222L155.248,11.222L155.815,11.222L156.403,11.222L156.911,11.222L157.453,11.222L158.564,11.222L159.127,11.222L159.718,11.222L160.227,11.222L160.768,11.222L161.874,11.222L162.435,11.222L163.024,11.222L163.54,11.222L164.081,11.222L165.187,11.222L165.749,11.222L166.337,11.222L166.853,11.222L167.394,11.222L168.501,11.222L169.057,11.222L169.642,11.222L170.16,11.222L170.708,11.222L171.814,11.222L172.369,11.222L172.957,11.222L173.474,11.222L174.023,11.222L175.132,11.222L175.696,11.222L176.287,11.222L176.798,11.222L177.34,11.222L178.446,11.222L179.009,11.222L179.602,11.222L180.112,11.222L180.654,11.222L181.762,11.222L182.326,11.222L182.917,11.222L183.427,11.222L183.968,11.222L185.078,11.222L185.641,11.222L186.232,11.222L186.746,11.222L187.283,11.222L188.391,11.222L188.952,11.222L189.541,11.222L190.054,11.222L190.597,11.222L191.702,11.222L192.256,11.222L192.842,11.222L193.357,11.222L193.908,11.222L195.017,11.222L195.571,11.222L196.157,11.222L196.674,11.222L197.223,11.222L198.338,11.222L198.902,11.222L199.49,11.222L200,11.222" stroke="#4c78a8" stroke-width="2"/></g></g><path class="foreground" aria-hidden="true" d="" display="none"/></g><g transform="translate(0,0)"><path class="background" aria-hidden="true" d="M0,0h200v200h-200Z"/><g><g class="mark-line role-mark marks" role="graphics-object" aria-roledescription="line mark container"><path aria-label="Time: Aug 31, 2025; Price: 1599; identifier: silex-400-oak-bork-2026" role="graphics-symbol" aria-roledescription="line mark" d="M56.172,22.333L56.371,22.333L56.961,22.333L57.478,22.333L58.024,22.333L59.143,22.333L59.7,22.333L60.289,22.333L60.796,22.333L61.338,22.333L62.452,22.333L63.013,22.333L63.605,22.333L64.112,22.333L64.654,22.333L65.762,22.333L66.322,22.333L66.912,22.333L67.425,22.333L67.967,22.333L69.076,22.333L69.637,22.333L70.223,22.333L70.742,22.333L71.281,22.333L72.391,22.333L72.951,22.333L73.539,22.333L74.05,22.333L74.596,22.333L75.702,22.333L75.986,22.333L76.255,22.333L76.84,22.333L77.358,22.333L77.908,22.333L79.015,22.333L79.569,22.333L80.156,22.333L80.673,22.333L81.223,22.333L82.335,22.333L82.899,22.333L83.49,22.333L83.999,22.333L84.542,22.333L85.648,22.333L86.212,22.333L86.823,22.333L87.316,22.333L87.852,22.333L88.958,22.333L89.523,22.333L90.11,22.333L90.625,22.333L91.168,22.333L92.277,22.333L92.836,22.333L93.423,22.333L93.932,22.333L94.48,22.333L95.588,22.333L96.149,22.333L96.736,22.333L97.248,22.333L97.794,22.333L98.9,22.333L99.455,22.333L100.04,22.333L100.556,22.333L101.108,22.333L102.216,22.333L102.77,22.333L103.352,22.333L103.869,22.333L104.423,22.333L105.536,22.333L106.094,22.333L106.687,22.333L107.198,22.333L107.74,22.333L108.847,22.333L109.411,22.333L110,22.333L110.51,22.333L111.054,22.333L112.162,22.333L112.723,22.333L113.314,22.333L113.825,22.333L114.368,22.333L115.476,22.333L116.036,22.333L116.628,22.333L117.137,22.333L117.682,22.333L118.791,22.333L119.351,22.333L119.941,22.333L120.454,22.333L120.994,22.333L122.103,22.333L122.659,22.333L123.245,22.333L123.758,22.333L124.308,22.333L125.418,22.333L125.97,22.333L126.558,22.333L127.075,22.333L127.623,22.333L128.734,22.333L129.298,22.333L129.888,22.333L130.391,22.333L130.941,22.333L132.047,22.333L132.61,22.333L133.2,22.333L133.713,22.333L134.255,22.333L135.363,22.333L135.925,22.333L136.515,22.333L137.03,22.333L137.566,22.333L138.677,22.333L139.241,22.333L139.832,22.333L140.343,22.333L140.88,22.333L141.99,22.333L142.553,22.333L143.142,22.333L143.654,22.333L144.195,22.333L145.303,22.333L145.856,22.333L146.443,22.333L146.959,22.333L147.51,22.333L148.618,22.333L149.171,22.333L149.758,22.333L150.271,22.333L150.823,22.333L151.935,22.333L152.499,22.333L153.09,22.333L153.586,22.333L154.139,22.333L155.248,22.333L155.815,22.333L156.403,22.333L156.911,22.333L157.454,22.333L158.564,22.333L159.127,22.333L159.718,22.333L160.227,22.333L160.768,22.333L161.874,22.333L162.435,22.333L163.024,22.333L163.54,22.333L164.081,22.333L165.188,22.333L165.75,22.333L166.337,22.333L166.853,22.333L167.394,22.333L168.501,22.333L169.057,22.333L169.642,22.333L170.16,22.333L170.708,22.333L171.814,22.333L172.369,22.333L172.957,22.333L173.474,22.333L174.024,22.333L175.133,22.333L175.696,22.333L176.287,22.333L176.798,22.333L177.341,22.333L178.446,22.333L179.009,22.333L179.602,22.333L180.112,22.333L180.654,22.333L181.762,22.333L182.326,22.333L182.917,22.333L183.427,22.333L183.969,22.333L185.078,22.333L185.641,22.333L186.232,22.333L186.746,22.333L187.283,22.333L188.391,22.333L188.952,22.333L189.542,22.333L190.054,22.333L190.597,22.333L191.702,22.333L192.257,22.333L192.842,22.333L193.357,22.333L193.908,22.333L195.017,22.333L195.571,22.333L196.157,22.333L196.674,22.333L197.223,22.333L198.338,22.333L198.902,22.333L199.49,22.333L200,22.333" stroke="#f58518" stroke-width="2"/></g></g><path class="foreground" aria-hidden="true" d="" display="none"/></g><g transform="translate(0,0)"><path class="background" aria-hidden="true" d="M0,0h200v200h-200Z"/><g><g class="mark-line role-mark marks" role="graphics-object" aria-roledescription="line mark container"><path aria-label="Time: Aug 31, 2025; Price: 1599; identifier: silex-400-warm-slate-grey-2026" role="graphics-symbol" aria-roledescription="line mark" d="M56.172,22.333L56.371,22.333L56.961,22.333L57.478,22.333L58.024,22.333L59.143,22.333L59.7,22.333L60.289,22.333L60.796,22.333L61.338,22.333L62.453,22.333L63.013,22.333L63.605,22.333L64.113,22.333L64.654,22.333L65.762,22.333L66.322,22.333L66.912,22.333L67.425,22.333L67.967,22.333L69.076,22.333L69.637,22.333L70.223,22.333L70.742,22.333L71.281,22.333L72.391,22.333L72.951,22.333L73.539,22.333L74.05,22.333L74.596,22.333L75.702,22.333L75.986,22.333L76.255,22.333L76.84,22.333L77.359,22.333L77.909,22.333L79.015,22.333L79.569,22.333L80.156,22.333L80.673,22.333L81.223,22.333L82.335,22.333L82.899,22.333L83.49,22.333L83.999,22.333L84.542,22.333L85.648,22.333L86.212,22.333L86.823,22.333L87.316,22.333L87.853,22.333L88.958,22.333L89.523,22.333L90.111,22.333L90.625,22.333L91.168,22.333L92.277,22.333L92.836,22.333L93.423,22.333L93.933,22.333L94.48,22.333L95.588,22.333L96.149,22.333L96.736,22.333L97.248,22.333L97.794,22.333L98.901,22.333L99.455,22.333L100.041,22.333L100.556,22.333L101.108,22.333L102.216,22.333L102.77,22.333L103.352,22.333L103.869,22.333L104.423,22.333L105.536,22.333L106.094,22.333L106.687,22.333L107.198,22.333L107.741,22.333L108.847,22.333L109.411,22.333L110,22.333L110.51,22.333L111.054,22.333L112.163,22.333L112.723,22.333L113.315,22.333L113.825,22.333L114.368,22.333L115.476,22.333L116.036,22.333L116.628,22.333L117.138,22.333L117.682,22.333L118.791,22.333L119.351,22.333L119.941,22.333L120.454,22.333L120.995,22.333L122.103,22.333L122.659,22.333L123.245,22.333L123.758,22.333L124.308,22.333L125.418,22.333L125.971,22.333L126.558,22.333L127.075,22.333L127.624,22.333L128.734,22.333L129.298,22.333L129.888,22.333L130.391,22.333L130.941,22.333L132.047,22.333L132.61,22.333L133.2,22.333L133.713,22.333L134.255,22.333L135.363,22.333L135.925,22.333L136.516,22.333L137.03,22.333L137.567,22.333L138.677,22.333L139.241,22.333L139.832,22.333L140.343,22.333L140.88,22.333L141.99,22.333L142.553,22.333L143.142,22.333L143.654,22.333L144.195,22.333L145.304,22.333L145.856,22.333L146.443,22.333L146.96,22.333L147.51,22.333L148.618,22.333L149.171,22.333L149.759,22.333L150.271,22.333L150.823,22.333L151.936,22.333L152.5,22.333L153.09,22.333L153.586,22.333L154.139,22.333L155.248,22.333L155.815,22.333L156.404,22.333L156.911,22.333L157.454,22.333L158.564,22.333L159.127,22.333L159.718,22.333L160.227,22.333L160.769,22.333L161.874,22.333L162.436,22.333L163.024,22.333L163.54,22.333L164.081,22.333L165.188,22.333L165.75,22.333L166.337,22.333L166.853,22.333L167.395,22.333L168.501,22.333L169.057,22.333L169.642,22.333L170.16,22.333L170.709,22.333L171.814,22.333L172.369,22.333L172.958,22.333L173.474,22.333L174.024,22.333L175.133,22.333L175.696,22.333L176.287,22.333L176.798,22.333L177.341,22.333L178.447,22.333L179.009,22.333L179.602,22.333L180.112,22.333L180.654,22.333L181.763,22.333L182.326,22.333L182.917,22.333L183.427,22.333L183.969,22.333L185.078,22.333L185.641,22.333L186.233,22.333L186.746,22.333L187.283,22.333L188.391,22.333L188.952,22.333L189.542,22.333L190.054,22.333L190.598,22.333L191.702,22.333L192.257,22.333L192.842,22.333L193.357,22.333L193.908,22.333L195.017,22.333L195.571,22.333L196.157,22.333L196.675,22.333L197.223,22.333L198.338,22.333L198.903,22.333L199.49,22.333L200,22.333" stroke="#e45756" stroke-width="2"/></g></g><path class="foreground" aria-hidden="true" d="" display="none"/></g></g><g class="mark-group role-legend" role="graphics-symbol" aria-roledescription="legend" aria-label="Symbol legend titled 'identifier' for stroke color with 16 values: devote-1-2022, silex-400-oak-bork-2026, silex-400-warm-slate-grey-2026, devote-1-2024, fastroad-ar-2, ending with allure-rs-2-2024"><g transform="translate(220,0)"><path class="background" aria-hidden="true" d="M0,0h256v222h-256Z" pointer-events="none"/><g><g class="mark-group role-legend-entry"><g transform="translate(0,16)"><path class="background" aria-hidden="true" d="M0,0h0v0h0Z" pointer-events="none"/><g><g class="mark-group role-scope" role="graphics-object" aria-roledescription="group mark container"><g transform="translate(0,0)"><path class="background" aria-hidden="true" d="M0,0h256v11h-256Z" pointer-events="none" opacity="1"/><g><g class="mark-symbol role-legend-symbol" pointer-events="none"><path transform="translate(6,6)" d="M-5,0L5,0" stroke="#4c78a8" stroke-width="1.5" opacity="1"/></g><g class="mark-text role-legend-label" pointer-events="none"><text text-anchor="start" transform="translate(16,9)" font-family="Liberation Mono" font-size="10px" fill="#000" opacity="1">devote-1-2022</text></g></g><path class="foreground" aria-hidden="true" d="" pointer-events="none" display="none"/></g><g transform="translate(0,13)"><path class="background" aria-hidden="true" d="M0,0h256v11h-256Z" pointer-events="none" opacity="1"/><g><g class="mark-symbol role-legend-symbol" pointer-events="none"><path transform="translate(6,6)" d="M-5,0L5,0" stroke="#f58518" stroke-width="1.5" opacity="1"/></g><g class="mark-text role-legend-label" pointer-events="none"><text text-anchor="start" transform="translate(16,9)" font-family="Liberation Mono" font-size="10px" fill="#000" opacity="1">silex-400-oak-bork-2026</text></g></g><path class="foreground" aria-hidden="true" d="" pointer-events="none" display="none"/></g><g transform="translate(0,26)"><path class="background" aria-hidden="true" d="M0,0h256v11h-256Z" pointer-events="none" opacity="1"/><g><g class="mark-symbol role-legend-symbol" pointer-events="none"><path transform="translate(6,6)" d="M-5,0L5,0" stroke="#e45756" stroke-width="1.5" opacity="1"/></g><g class="mark-text role-legend-label" pointer-events="none"><text text-anchor="start" transform="translate(16,9)" font-family="Liberation Mono" font-size="10px" fill="#000" opacity="1">silex-400-warm-slate-grey-2026</text></g></g><path class="foreground" aria-hidden="true" d="" pointer-events="none" display="none"/></g><g transform="translate(0,39)"><path class="background" aria-hidden="true" d="M0,0h256v11h-256Z" pointer-events="none" opacity="1"/><g><g class="mark-symbol role-legend-symbol" pointer-events="none"><path transform="translate(6,6)" d="M-5,0L5,0" stroke="#72b7b2" stroke-width="1.5" opacity="1"/></g><g class="mark-text role-legend-label" pointer-events="none"><text text-anchor="start" transform="translate(16,9)" font-family="Liberation Mono" font-size="10px" fill="#000" opacity="1">devote-1-2024</text></g></g><path class="foreground" aria-hidden="true" d="" pointer-events="none" display="none"/></g><g transform="translate(0,52)"><path class="background" aria-hidden="true" d="M0,0h256v11h-256Z" pointer-events="none" opacity="1"/><g><g class="mark-symbol role-legend-symbol" pointer-events="none"><path transform="translate(6,6)" d="M-5,0L5,0" stroke="#54a24b" stroke-width="1.5" opacity="1"/></g><g class="mark-text role-legend-label" pointer-events="none"><text text-anchor="start" transform="translate(16,9)" font-family="Liberation Mono" font-size="10px" fill="#000" opacity="1">fastroad-ar-2</text></g></g><path class="foreground" aria-hidden="true" d="" pointer-events="none" display="none"/></g><g transform="translate(0,65)"><path class="background" aria-hidden="true" d="M0,0h256v11h-256Z" pointer-events="none" opacity="1"/><g><g class="mark-symbol role-legend-symbol" pointer-events="none"><path transform="translate(6,6)" d="M-5,0L5,0" stroke="#eeca3b" stroke-width="1.5" opacity="1"/></g><g class="mark-text role-legend-label" pointer-events="none"><text text-anchor="start" transform="translate(16,9)" font-family="Liberation Mono" font-size="10px" fill="#000" opacity="1">thrive-2</text></g></g><path class="foreground" aria-hidden="true" d="" pointer-events="none" display="none"/></g><g transform="translate(0,78)"><path class="background" aria-hidden="true" d="M0,0h256v11h-256Z" pointer-events="none" opacity="1"/><g><g class="mark-symbol role-legend-symbol" pointer-events="none"><path transform="translate(6,6)" d="M-5,0L5,0" stroke="#b279a2" stroke-width="1.5" opacity="1"/></g><g class="mark-text role-legend-label" pointer-events="none"><text text-anchor="start" transform="translate(16,9)" font-family="Liberation Mono" font-size="10px" fill="#000" opacity="1">allure-rs-1-2023</text></g></g><path class="foreground" aria-hidden="true" d="" pointer-events="none" display="none"/></g><g transform="translate(0,91)"><path class="background" aria-hidden="true" d="M0,0h256v11h-256Z" pointer-events="none" opacity="1"/><g><g class="mark-symbol role-legend-symbol" pointer-events="none"><path transform="translate(6,6)" d="M-5,0L5,0" stroke="#ff9da6" stroke-width="1.5" opacity="1"/></g><g class="mark-text role-legend-label" pointer-events="none"><text text-anchor="start" transform="translate(16,9)" font-family="Liberation Mono" font-size="10px" fill="#000" opacity="1">roam-2</text></g></g><path class="foreground" aria-hidden="true" d="" pointer-events="none" display="none"/></g><g transform="translate(0,104)"><path class="background" aria-hidden="true" d="M0,0h256v11h-256Z" pointer-events="none" opacity="1"/><g><g class="mark-symbol role-legend-symbol" pointer-events="none"><path transform="translate(6,6)" d="M-5,0L5,0" stroke="#9d755d" stroke-width="1.5" opacity="1"/></g><g class="mark-text role-legend-label" pointer-events="none"><text text-anchor="start" transform="translate(16,9)" font-family="Liberation Mono" font-size="10px" fill="#000" opacity="1">fastroad-sl-3-2022</text></g></g><path class="foreground" aria-hidden="true" d="" pointer-events="none" display="none"/></g><g transform="translate(0,117)"><path class="background" aria-hidden="true" d="M0,0h256v11h-256Z" pointer-events="none" opacity="1"/><g><g class="mark-symbol role-legend-symbol" pointer-events="none"><path transform="translate(6,6)" d="M-5,0L5,0" stroke="#bab0ac" stroke-width="1.5" opacity="1"/></g><g class="mark-text role-legend-label" pointer-events="none"><text text-anchor="start" transform="translate(16,9)" font-family="Liberation Mono" font-size="10px" fill="#000" opacity="1">allure-rs-2-2023</text></g></g><path class="foreground" aria-hidden="true" d="" pointer-events="none" display="none"/></g><g transform="translate(0,130)"><path class="background" aria-hidden="true" d="M0,0h256v11h-256Z" pointer-events="none" opacity="1"/><g><g class="mark-symbol role-legend-symbol" pointer-events="none"><path transform="translate(6,6)" d="M-5,0L5,0" stroke="#4c78a8" stroke-width="1.5" opacity="1"/></g><g class="mark-text role-legend-label" pointer-events="none"><text text-anchor="start" transform="translate(16,9)" font-family="Liberation Mono" font-size="10px" fill="#000" opacity="1">escape-city-disc-1-2024</text></g></g><path class="foreground" aria-hidden="true" d="" pointer-events="none" display="none"/></g><g transform="translate(0,143)"><path class="background" aria-hidden="true" d="M0,0h256v11h-256Z" pointer-events="none" opacity="1"/><g><g class="mark-symbol role-legend-symbol" pointer-events="none"><path transform="translate(6,6)" d="M-5,0L5,0" stroke="#f58518" stroke-width="1.5" opacity="1"/></g><g class="mark-text role-legend-label" pointer-events="none"><text text-anchor="start" transform="translate(16,9)" font-family="Liberation Mono" font-size="10px" fill="#000" opacity="1">sdrbike-escape-1-city-disc</text></g></g><path class="foreground" aria-hidden="true" d="" pointer-events="none" display="none"/></g><g transform="translate(0,156)"><path class="background" aria-hidden="true" d="M0,0h256v11h-256Z" pointer-events="none" opacity="1"/><g><g class="mark-symbol role-legend-symbol" pointer-events="none"><path transform="translate(6,6)" d="M-5,0L5,0" stroke="#e45756" stroke-width="1.5" opacity="1"/></g><g class="mark-text role-legend-label" pointer-events="none"><text text-anchor="start" transform="translate(16,9)" font-family="Liberation Mono" font-size="10px" fill="#000" opacity="1">roam-disc-2-2024</text></g></g><path class="foreground" aria-hidden="true" d="" pointer-events="none" display="none"/></g><g transform="translate(0,169)"><path class="background" aria-hidden="true" d="M0,0h256v11h-256Z" pointer-events="none" opacity="1"/><g><g class="mark-symbol role-legend-symbol" pointer-events="none"><path transform="translate(6,6)" d="M-5,0L5,0" stroke="#72b7b2" stroke-width="1.5" opacity="1"/></g><g class="mark-text role-legend-label" pointer-events="none"><text text-anchor="start" transform="translate(16,9)" font-family="Liberation Mono" font-size="10px" fill="#000" opacity="1">rove-2</text></g></g><path class="foreground" aria-hidden="true" d="" pointer-events="none" display="none"/></g><g transform="translate(0,182)"><path class="background" aria-hidden="true" d="M0,0h256v11h-256Z" pointer-events="none" opacity="1"/><g><g class="mark-symbol role-legend-symbol" pointer-events="none"><path transform="translate(6,6)" d="M-5,0L5,0" stroke="#54a24b" stroke-width="1.5" opacity="1"/></g><g class="mark-text role-legend-label" pointer-events="none"><text text-anchor="start" transform="translate(16,9)" font-family="Liberation Mono" font-size="10px" fill="#000" opacity="1">allure-rs-2-2022</text></g></g><path class="foreground" aria-hidden="true" d="" pointer-events="none" display="none"/></g><g transform="translate(0,195)"><path class="background" aria-hidden="true" d="M0,0h256v11h-256Z" pointer-events="none" opacity="1"/><g><g class="mark-symbol role-legend-symbol" pointer-events="none"><path transform="translate(6,6)" d="M-5,0L5,0" stroke="#eeca3b" stroke-width="1.5" opacity="1"/></g><g class="mark-text role-legend-label" pointer-events="none"><text text-anchor="start" transform="translate(16,9)" font-family="Liberation Mono" font-size="10px" fill="#000" opacity="1">allure-rs-2-2024</text></g></g><path class="foreground" aria-hidden="true" d="" pointer-events="none" display="none"/></g></g></g><path class="foreground" aria-hidden="true" d="" pointer-events="none" display="none"/></g></g><g class="mark-text role-legend-title" pointer-events="none"><text text-anchor="start" transform="translate(0,9)" font-family="Liberation Mono" font-size="11px" font-weight="bold" fill="#000" opacity="1">identifier</text></g></g><path class="foreground" aria-hidden="true" d="" pointer-events="none" display="none"/></g></g></g><path class="foreground" aria-hidden="true" d="" display="none"/></g></g></g></svg>