<svg xmlns="http://www.w3.org/2000/svg" xmlns:xlink="http://www.w3.org/1999/xlink" version="1.1" class="marks" width="516" height="247" viewBox="0 0 516 247"><rect width="516" height="247" fill="white"/><g fill="none" stroke-miterlimit="10" transform="translate(67,10)"><g class="mark-group role-frame root" role="graphics-object" aria-roledescription="group mark container"><g transform="translate(0,0)"><path class="background" aria-hidden="true" d="M0.5,0.5h200v200h-200Z" stroke="#ddd"/><g><g class="mark-group role-axis" aria-hidden="true"><g transform="translate(0.5,200.5)"><path class="background" aria-hidden="true" d="M0,0h0v0h0Z" pointer-events="none"/><g><g class="mark-rule role-axis-grid" pointer-events="none"><line transform="translate(20,-200)" x2="0" y2="200" stroke="#ddd" stroke-width="1" opacity="1"/><line transform="translate(52,-200)" x2="0" y2="200" stroke="#ddd" stroke-width="1" opacity="1"/><line transform="translate(84,-200)" x2="0" y2="200" stroke="#ddd" stroke-width="1" opacity="1"/><line transform="translate(116,-200)" x2="0" y2="200" stroke="#ddd" stroke-width="1" opacity="1"/><line transform="translate(148,-200)" x2="0" y2="200" stroke="#ddd" stroke-width="1" opacity="1"/><line transform="translate(180,-200)" x2="0" y2="200" stroke="#ddd" stroke-width="1" opacity="1"/></g></g><path class="foreground" aria-hidden="true" d="" pointer-events="none" display="none"/></g></g><g class="mark-group role-axis" aria-hidden="true"><g transform="translate(0.5,0.5)"><path class="background" aria-hidden="true" d="M0,0h0v0h0Z" pointer-events="none"/><g><g class="mark-rule role-axis-grid" pointer-events="none"><line transform="translate(0,200)" x2="200" y2="0" stroke="#ddd" stroke-width="1" opacity="1"/><line transform="translate(0,167)" x2="200" y2="0" stroke="#ddd" stroke-width="1" opacity="1"/><line transform="translate(0,133)" x2="200" y2="0" stroke="#ddd" stroke-width="1" opacity="1"/><line transform="translate(0,100)" x2="200" y2="0" stroke="#ddd" stroke-width="1" opacity="1"/><line transform="translate(0,67)" x2="200" y2="0" stroke="#ddd" stroke-width="1" opacity="1"/><line transform="translate(0,33)" x2="200" y2="0" stroke="#ddd" stroke-width="1" opacity="1"/><line transform="translate(0,0)" x2="200" y2="0" stroke="#ddd" stroke-width="1" opacity="1"/></g></g><path class="foreground" aria-hidden="true" d="" pointer-events="none" display="none"/></g></g><g class="mark-group role-axis" role="graphics-symbol" aria-roledescription="axis" aria-label="X-axis titled 'Time' for a time scale with values from Thursday, 14 August 2025, 8:34:48 AM to Wednesday, 20 August 2025, 3:05:10 PM"><g transform="translate(0.5,200.5)"><path class="background" aria-hidden="true" d="M0,0h0v0h0Z" pointer-events="none"/><g><g class="mark-rule role-axis-tick" pointer-events="none"><line transform="translate(20,0)" x2="0" y2="5" stroke="#888" stroke-width="1" opacity="1"/><line transform="translate(52,0)" x2="0" y2="5" stroke="#888" stroke-width="1" opacity="1"/><line transform="translate(84,0)" x2="0" y2="5" stroke="#888" stroke-width="1" opacity="1"/><line transform="translate(116,0)" x2="0" y2="5" stroke="#888" stroke-width="1" opacity="1"/><line transform="translate(148,0)" x2="0" y2="5" stroke="#888" stroke-width="1" opacity="1"/><line transform="translate(180,0)" x2="0" y2="5" stroke="#888" stroke-width="1" opacity="1"/></g><g class="mark-text role-axis-label" pointer-events="none"><text text-anchor="middle" transform="translate(20.490580787060033,15)" font-family="Liberation Mono" font-size="10px" fill="#000" opacity="1">Fri 15</text><text text-anchor="middle" transform="translate(52.382969077072026,15)" font-family="Liberation Mono" font-size="10px" fill="#000" opacity="0">Sat 16</text><text text-anchor="middle" transform="translate(84.27535736708401,15)" font-family="Liberation Mono" font-size="10px" fill="#000" opacity="1">Aug 17</text><text text-anchor="middle" transform="translate(116.16774565709602,15)" font-family="Liberation Mono" font-size="10px" fill="#000" opacity="0">Mon 18</text><text text-anchor="middle" transform="translate(148.060133947108,15)" font-family="Liberation Mono" font-size="10px" fill="#000" opacity="1">Tue 19</text><text text-anchor="middle" transform="translate(179.95252223712,15)" font-family="Liberation Mono" font-size="10px" fill="#000" opacity="0">Wed 20</text></g><g class="mark-rule role-axis-domain" pointer-events="none"><line transform="translate(0,0)" x2="200" y2="0" stroke="#888" stroke-width="1" opacity="1"/></g><g class="mark-text role-axis-title" pointer-events="none"><text text-anchor="middle" transform="translate(100,30)" font-family="Liberation Mono" font-size="11px" font-weight="bold" fill="#000" opacity="1">Time</text></g></g><path class="foreground" aria-hidden="true" d="" pointer-events="none" display="none"/></g></g><g class="mark-group role-axis" role="graphics-symbol" aria-roledescription="axis" aria-label="Y-axis titled 'Price' for a linear scale with values from 0 to 1,200"><g transform="translate(0.5,0.5)"><path class="background" aria-hidden="true" d="M0,0h0v0h0Z" pointer-events="none"/><g><g class="mark-rule role-axis-tick" pointer-events="none"><line transform="translate(0,200)" x2="-5" y2="0" stroke="#888" stroke-width="1" opacity="1"/><line transform="translate(0,167)" x2="-5" y2="0" stroke="#888" stroke-width="1" opacity="1"/><line transform="translate(0,133)" x2="-5" y2="0" stroke="#888" stroke-width="1" opacity="1"/><line transform="translate(0,100)" x2="-5" y2="0" stroke="#888" stroke-width="1" opacity="1"/><line transform="translate(0,67)" x2="-5" y2="0" stroke="#888" stroke-width="1" opacity="1"/><line transform="translate(0,33)" x2="-5" y2="0" stroke="#888" stroke-width="1" opacity="1"/><line transform="translate(0,0)" x2="-5" y2="0" stroke="#888" stroke-width="1" opacity="1"/></g><g class="mark-text role-axis-label" pointer-events="none"><text text-anchor="end" transform="translate(-7,203)" font-family="Liberation Mono" font-size="10px" fill="#000" opacity="1">0</text><text text-anchor="end" transform="translate(-7,169.66666666666669)" font-family="Liberation Mono" font-size="10px" fill="#000" opacity="1">200</text><text text-anchor="end" transform="translate(-7,136.33333333333334)" font-family="Liberation Mono" font-size="10px" fill="#000" opacity="1">400</text><text text-anchor="end" transform="translate(-7,103)" font-family="Liberation Mono" font-size="10px" fill="#000" opacity="1">600</text><text text-anchor="end" transform="translate(-7,69.66666666666667)" font-family="Liberation Mono" font-size="10px" fill="#000" opacity="1">800</text><text text-anchor="end" transform="translate(-7,36.33333333333333)" font-family="Liberation Mono" font-size="10px" fill="#000" opacity="1">1,000</text><text text-anchor="end" transform="translate(-7,3)" font-family="Liberation Mono" font-size="10px" fill="#000" opacity="1">1,200</text></g><g class="mark-rule role-axis-domain" pointer-events="none"><line transform="translate(0,200)" x2="0" y2="-200" stroke="#888" stroke-width="1" opacity="1"/></g><g class="mark-text role-axis-title" pointer-events="none"><text text-anchor="middle" transform="translate(-51,100) rotate(-90) translate(0,-2)" font-family="Liberation Mono" font-size="11px" font-weight="bold" fill="#000" opacity="1">Price</text></g></g><path class="foreground" aria-hidden="true" d="" pointer-events="none" display="none"/></g></g><g class="mark-group role-scope pathgroup" role="graphics-object" aria-roledescription="group mark container"><g transform="translate(0,0)"><path class="background" aria-hidden="true" d="M0,0h200v200h-200Z"/><g><g class="mark-line role-mark marks" role="graphics-object" aria-roledescription="line mark container"><path aria-label="Time: Aug 14, 2025; Price: 899; identifier: escape-city-disc-1-2024" role="graphics-symbol" aria-roledescription="line mark" d="M0,50.167L0.265,50.167L0.474,50.167L6.354,50.167L11.027,50.167L16.27,50.167L27.027,50.167L32.308,50.167L38.141,50.167L42.925,50.167L48.141,50.167L58.817,50.167L64.16,50.167L69.822,50.167L74.755,50.167L79.985,50.167L90.831,50.167L96.042,50.167L101.729,50.167L106.671,50.167L111.918,50.167L122.814,50.167L128.051,50.167L133.926,50.167L135.988,50.167L138.666,50.167L143.78,50.167L154.464,50.167L159.862,50.167L165.527,50.167L170.474,50.167L175.661,50.167L186.367,50.167L191.714,50.167L197.61,50.167L199.994,50.167" stroke="#eeca3b" stroke-width="2"/></g></g><path class="foreground" aria-hidden="true" d="" display="none"/></g><g transform="translate(0,0)"><path class="background" aria-hidden="true" d="M0,0h200v200h-200Z"/><g><g class="mark-line role-mark marks" role="graphics-object" aria-roledescription="line mark container"><path aria-label="Time: Aug 14, 2025; Price: 999; identifier: roam-2" role="graphics-symbol" aria-roledescription="line mark" d="M0.001,33.5L0.266,33.5L0.475,33.5L6.355,33.5L11.028,33.5L16.271,33.5L27.028,33.5L32.309,33.5L38.142,33.5L42.925,33.5L48.142,33.5L58.817,33.5L64.161,33.5L69.823,33.5L74.756,33.5L80.035,33.5L90.831,33.5L96.042,33.5L101.73,33.5L106.671,33.5L111.919,33.5L122.815,33.5L128.052,33.5L133.927,33.5L135.989,33.5L138.667,33.5L143.781,33.5L154.465,33.5L159.863,33.5L165.527,33.5L170.475,33.5L175.661,33.5L186.368,33.5L191.714,33.5L197.61,33.5L199.995,33.5" stroke="#e45756" stroke-width="2"/></g></g><path class="foreground" aria-hidden="true" d="" display="none"/></g><g transform="translate(0,0)"><path class="background" aria-hidden="true" d="M0,0h200v200h-200Z"/><g><g class="mark-line role-mark marks" role="graphics-object" aria-roledescription="line mark container"><path aria-label="Time: Aug 14, 2025; Price: 999; identifier: fastroad-sl-3-2022" role="graphics-symbol" aria-roledescription="line mark" d="M0.001,33.5L0.266,33.5L0.475,33.5L6.356,33.5L11.029,33.5L16.271,33.5L27.028,33.5L32.31,33.5L38.142,33.5L42.926,33.5L48.143,33.5L58.818,33.5L64.162,33.5L69.823,33.5L74.757,33.5L80.036,33.5L90.832,33.5L96.043,33.5L101.731,33.5L106.672,33.5L111.92,33.5L122.815,33.5L128.052,33.5L133.928,33.5L135.99,33.5L138.667,33.5L143.781,33.5L154.466,33.5L159.864,33.5L165.528,33.5L170.476,33.5L175.662,33.5L186.369,33.5L191.715,33.5L197.611,33.5L199.996,33.5" stroke="#72b7b2" stroke-width="2"/></g></g><path class="foreground" aria-hidden="true" d="" display="none"/></g><g transform="translate(0,0)"><path class="background" aria-hidden="true" d="M0,0h200v200h-200Z"/><g><g class="mark-line role-mark marks" role="graphics-object" aria-roledescription="line mark container"><path aria-label="Time: Aug 14, 2025; Price: 1199; identifier: fastroad-ar-2" role="graphics-symbol" aria-roledescription="line mark" d="M0.002,0.167L0.267,0.167L0.476,0.167L6.356,0.167L11.03,0.167L16.272,0.167L27.029,0.167L32.311,0.167L38.143,0.167L42.927,0.167L48.144,0.167L58.819,0.167L64.163,0.167L69.824,0.167L74.758,0.167L80.062,0.167L90.833,0.167L96.044,0.167L101.731,0.167L106.673,0.167L111.921,0.167L122.816,0.167L128.053,0.167L133.928,0.167L135.99,0.167L138.668,0.167L143.782,0.167L154.467,0.167L159.864,0.167L165.529,0.167L170.477,0.167L175.663,0.167L186.37,0.167L191.716,0.167L197.612,0.167L199.997,0.167" stroke="#4c78a8" stroke-width="2"/></g></g><path class="foreground" aria-hidden="true" d="" display="none"/></g><g transform="translate(0,0)"><path class="background" aria-hidden="true" d="M0,0h200v200h-200Z"/><g><g class="mark-line role-mark marks" role="graphics-object" aria-roledescription="line mark container"><path aria-label="Time: Aug 18, 2025; Price: 899; identifier: sdrbike-escape-1-city-disc" role="graphics-symbol" aria-roledescription="line mark" d="M135.991,50.167L138.669,50.167L143.783,50.167L154.468,50.167L159.865,50.167L165.53,50.167L170.478,50.167L175.664,50.167L186.371,50.167L191.716,50.167L197.613,50.167L199.998,50.167" stroke="#b279a2" stroke-width="2"/></g></g><path class="foreground" aria-hidden="true" d="" display="none"/></g><g transform="translate(0,0)"><path class="background" aria-hidden="true" d="M0,0h200v200h-200Z"/><g><g class="mark-line role-mark marks" role="graphics-object" aria-roledescription="line mark container"><path aria-label="Time: Aug 20, 2025; Price: 899; identifier: roam-disc-2-2024" role="graphics-symbol" aria-roledescription="line mark" d="M199.995,50.167Z" stroke="#ff9da6" stroke-width="2"/></g></g><path class="foreground" aria-hidden="true" d="" display="none"/></g><g transform="translate(0,0)"><path class="background" aria-hidden="true" d="M0,0h200v200h-200Z"/><g><g class="mark-line role-mark marks" role="graphics-object" aria-roledescription="line mark container"><path aria-label="Time: Aug 20, 2025; Price: 1199; identifier: thrive-2" role="graphics-symbol" aria-roledescription="line mark" d="M199.999,0.167Z" stroke="#f58518" stroke-width="2"/></g></g><path class="foreground" aria-hidden="true" d="" display="none"/></g><g transform="translate(0,0)"><path class="background" aria-hidden="true" d="M0,0h200v200h-200Z"/><g><g class="mark-line role-mark marks" role="graphics-object" aria-roledescription="line mark container"><path aria-label="Time: Aug 20, 2025; Price: 999; identifier: rove-2" role="graphics-symbol" aria-roledescription="line mark" d="M200,33.5Z" stroke="#54a24b" stroke-width="2"/></g></g><path class="foreground" aria-hidden="true" d="" display="none"/></g></g><g class="mark-group role-legend" role="graphics-symbol" aria-roledescription="legend" aria-label="Symbol legend titled 'identifier' for stroke color with 8 values: fastroad-ar-2, thrive-2, roam-2, fastroad-sl-3-2022, rove-2, ending with roam-disc-2-2024"><g transform="translate(220,0)"><path class="background" aria-hidden="true" d="M0,0h224v118h-224Z" pointer-events="none"/><g><g class="mark-group role-legend-entry"><g transform="translate(0,16)"><path class="background" aria-hidden="true" d="M0,0h0v0h0Z" pointer-events="none"/><g><g class="mark-group role-scope" role="graphics-object" aria-roledescription="group mark container"><g transform="translate(0,0)"><path class="background" aria-hidden="true" d="M0,0h224v11h-224Z" pointer-events="none" opacity="1"/><g><g class="mark-symbol role-legend-symbol" pointer-events="none"><path transform="translate(6,6)" d="M-5,0L5,0" stroke="#4c78a8" stroke-width="1.5" opacity="1"/></g><g class="mark-text role-legend-label" pointer-events="none"><text text-anchor="start" transform="translate(16,9)" font-family="Liberation Mono" font-size="10px" fill="#000" opacity="1">fastroad-ar-2</text></g></g><path class="foreground" aria-hidden="true" d="" pointer-events="none" display="none"/></g><g transform="translate(0,13)"><path class="background" aria-hidden="true" d="M0,0h224v11h-224Z" pointer-events="none" opacity="1"/><g><g class="mark-symbol role-legend-symbol" pointer-events="none"><path transform="translate(6,6)" d="M-5,0L5,0" stroke="#f58518" stroke-width="1.5" opacity="1"/></g><g class="mark-text role-legend-label" pointer-events="none"><text text-anchor="start" transform="translate(16,9)" font-family="Liberation Mono" font-size="10px" fill="#000" opacity="1">thrive-2</text></g></g><path class="foreground" aria-hidden="true" d="" pointer-events="none" display="none"/></g><g transform="translate(0,26)"><path class="background" aria-hidden="true" d="M0,0h224v11h-224Z" pointer-events="none" opacity="1"/><g><g class="mark-symbol role-legend-symbol" pointer-events="none"><path transform="translate(6,6)" d="M-5,0L5,0" stroke="#e45756" stroke-width="1.5" opacity="1"/></g><g class="mark-text role-legend-label" pointer-events="none"><text text-anchor="start" transform="translate(16,9)" font-family="Liberation Mono" font-size="10px" fill="#000" opacity="1">roam-2</text></g></g><path class="foreground" aria-hidden="true" d="" pointer-events="none" display="none"/></g><g transform="translate(0,39)"><path class="background" aria-hidden="true" d="M0,0h224v11h-224Z" pointer-events="none" opacity="1"/><g><g class="mark-symbol role-legend-symbol" pointer-events="none"><path transform="translate(6,6)" d="M-5,0L5,0" stroke="#72b7b2" stroke-width="1.5" opacity="1"/></g><g class="mark-text role-legend-label" pointer-events="none"><text text-anchor="start" transform="translate(16,9)" font-family="Liberation Mono" font-size="10px" fill="#000" opacity="1">fastroad-sl-3-2022</text></g></g><path class="foreground" aria-hidden="true" d="" pointer-events="none" display="none"/></g><g transform="translate(0,52)"><path class="background" aria-hidden="true" d="M0,0h224v11h-224Z" pointer-events="none" opacity="1"/><g><g class="mark-symbol role-legend-symbol" pointer-events="none"><path transform="translate(6,6)" d="M-5,0L5,0" stroke="#54a24b" stroke-width="1.5" opacity="1"/></g><g class="mark-text role-legend-label" pointer-events="none"><text text-anchor="start" transform="translate(16,9)" font-family="Liberation Mono" font-size="10px" fill="#000" opacity="1">rove-2</text></g></g><path class="foreground" aria-hidden="true" d="" pointer-events="none" display="none"/></g><g transform="translate(0,65)"><path class="background" aria-hidden="true" d="M0,0h224v11h-224Z" pointer-events="none" opacity="1"/><g><g class="mark-symbol role-legend-symbol" pointer-events="none"><path transform="translate(6,6)" d="M-5,0L5,0" stroke="#eeca3b" stroke-width="1.5" opacity="1"/></g><g class="mark-text role-legend-label" pointer-events="none"><text text-anchor="start" transform="translate(16,9)" font-family="Liberation Mono" font-size="10px" fill="#000" opacity="1">escape-city-disc-1-2024</text></g></g><path class="foreground" aria-hidden="true" d="" pointer-events="none" display="none"/></g><g transform="translate(0,78)"><path class="background" aria-hidden="true" d="M0,0h224v11h-224Z" pointer-events="none" opacity="1"/><g><g class="mark-symbol role-legend-symbol" pointer-events="none"><path transform="translate(6,6)" d="M-5,0L5,0" stroke="#b279a2" stroke-width="1.5" opacity="1"/></g><g class="mark-text role-legend-label" pointer-events="none"><text text-anchor="start" transform="translate(16,9)" font-family="Liberation Mono" font-size="10px" fill="#000" opacity="1">sdrbike-escape-1-city-disc</text></g></g><path class="foreground" aria-hidden="true" d="" pointer-events="none" display="none"/></g><g transform="translate(0,91)"><path class="background" aria-hidden="true" d="M0,0h224v11h-224Z" pointer-events="none" opacity="1"/><g><g class="mark-symbol role-legend-symbol" pointer-events="none"><path transform="translate(6,6)" d="M-5,0L5,0" stroke="#ff9da6" stroke-width="1.5" opacity="1"/></g><g class="mark-text role-legend-label" pointer-events="none"><text text-anchor="start" transform="translate(16,9)" font-family="Liberation Mono" font-size="10px" fill="#000" opacity="1">roam-disc-2-2024</text></g></g><path class="foreground" aria-hidden="true" d="" pointer-events="none" display="none"/></g></g></g><path class="foreground" aria-hidden="true" d="" pointer-events="none" display="none"/></g></g><g class="mark-text role-legend-title" pointer-events="none"><text text-anchor="start" transform="translate(0,9)" font-family="Liberation Mono" font-size="11px" font-weight="bold" fill="#000" opacity="1">identifier</text></g></g><path class="foreground" aria-hidden="true" d="" pointer-events="none" display="none"/></g></g></g><path class="foreground" aria-hidden="true" d="" display="none"/></g></g></g></svg>