<svg xmlns="http://www.w3.org/2000/svg" xmlns:xlink="http://www.w3.org/1999/xlink" version="1.1" class="marks" width="548" height="244" viewBox="0 0 548 244"><rect width="548" height="244" fill="white"/><g fill="none" stroke-miterlimit="10" transform="translate(67,7)"><g class="mark-group role-frame root" role="graphics-object" aria-roledescription="group mark container"><g transform="translate(0,0)"><path class="background" aria-hidden="true" d="M0.5,0.5h200v200h-200Z" stroke="#ddd"/><g><g class="mark-group role-axis" aria-hidden="true"><g transform="translate(0.5,200.5)"><path class="background" aria-hidden="true" d="M0,0h0v0h0Z" pointer-events="none"/><g><g class="mark-rule role-axis-grid" pointer-events="none"><line transform="translate(7,-200)" x2="0" y2="200" stroke="#ddd" stroke-width="1" opacity="1"/><line transform="translate(27,-200)" x2="0" y2="200" stroke="#ddd" stroke-width="1" opacity="1"/><line transform="translate(46,-200)" x2="0" y2="200" stroke="#ddd" stroke-width="1" opacity="1"/><line transform="translate(66,-200)" x2="0" y2="200" stroke="#ddd" stroke-width="1" opacity="1"/><line transform="translate(85,-200)" x2="0" y2="200" stroke="#ddd" stroke-width="1" opacity="1"/><line transform="translate(104,-200)" x2="0" y2="200" stroke="#ddd" stroke-width="1" opacity="1"/><line transform="translate(124,-200)" x2="0" y2="200" stroke="#ddd" stroke-width="1" opacity="1"/><line transform="translate(143,-200)" x2="0" y2="200" stroke="#ddd" stroke-width="1" opacity="1"/><line transform="translate(162,-200)" x2="0" y2="200" stroke="#ddd" stroke-width="1" opacity="1"/><line transform="translate(182,-200)" x2="0" y2="200" stroke="#ddd" stroke-width="1" opacity="1"/></g></g><path class="foreground" aria-hidden="true" d="" pointer-events="none" display="none"/></g></g><g class="mark-group role-axis" aria-hidden="true"><g transform="translate(0.5,0.5)"><path class="background" aria-hidden="true" d="M0,0h0v0h0Z" pointer-events="none"/><g><g class="mark-rule role-axis-grid" pointer-events="none"><line transform="translate(0,200)" x2="200" y2="0" stroke="#ddd" stroke-width="1" opacity="1"/><line transform="translate(0,144)" x2="200" y2="0" stroke="#ddd" stroke-width="1" opacity="1"/><line transform="translate(0,89)" x2="200" y2="0" stroke="#ddd" stroke-width="1" opacity="1"/><line transform="translate(0,33)" x2="200" y2="0" stroke="#ddd" stroke-width="1" opacity="1"/></g></g><path class="foreground" aria-hidden="true" d="" pointer-events="none" display="none"/></g></g><g class="mark-group role-axis" role="graphics-symbol" aria-roledescription="axis" aria-label="X-axis titled 'Time' for a time scale with values from Thursday, 14 August 2025, 8:34:48 AM to Saturday, 25 October 2025, 1:02:50 PM"><g transform="translate(0.5,200.5)"><path class="background" aria-hidden="true" d="M0,0h0v0h0Z" pointer-events="none"/><g><g class="mark-rule role-axis-tick" pointer-events="none"><line transform="translate(7,0)" x2="0" y2="5" stroke="#888" stroke-width="1" opacity="1"/><line transform="translate(27,0)" x2="0" y2="5" stroke="#888" stroke-width="1" opacity="1"/><line transform="translate(46,0)" x2="0" y2="5" stroke="#888" stroke-width="1" opacity="1"/><line transform="translate(66,0)" x2="0" y2="5" stroke="#888" stroke-width="1" opacity="1"/><line transform="translate(85,0)" x2="0" y2="5" stroke="#888" stroke-width="1" opacity="1"/><line transform="translate(104,0)" x2="0" y2="5" stroke="#888" stroke-width="1" opacity="1"/><line transform="translate(124,0)" x2="0" y2="5" stroke="#888" stroke-width="1" opacity="1"/><line transform="translate(143,0)" x2="0" y2="5" stroke="#888" stroke-width="1" opacity="1"/><line transform="translate(162,0)" x2="0" y2="5" stroke="#888" stroke-width="1" opacity="1"/><line transform="translate(182,0)" x2="0" y2="5" stroke="#888" stroke-width="1" opacity="1"/></g><g class="mark-text role-axis-label" pointer-events="none"><text text-anchor="middle" transform="translate(7.32132696676508,15)" font-family="Liberation Mono" font-size="10px" fill="#000" opacity="1">Aug 17</text><text text-anchor="middle" transform="translate(26.715634721950426,15)" font-family="Liberation Mono" font-size="10px" fill="#000" opacity="0">Aug 24</text><text text-anchor="middle" transform="translate(46.10994247713577,15)" font-family="Liberation Mono" font-size="10px" fill="#000" opacity="0">Aug 31</text><text text-anchor="middle" transform="translate(65.50425023232111,15)" font-family="Liberation Mono" font-size="10px" fill="#000" opacity="0">Sep 07</text><text text-anchor="middle" transform="translate(84.89855798750645,15)" font-family="Liberation Mono" font-size="10px" fill="#000" opacity="1">Sep 14</text><text text-anchor="middle" transform="translate(104.29286574269179,15)" font-family="Liberation Mono" font-size="10px" fill="#000" opacity="0">Sep 21</text><text text-anchor="middle" transform="translate(123.68717349787714,15)" font-family="Liberation Mono" font-size="10px" fill="#000" opacity="0">Sep 28</text><text text-anchor="middle" transform="translate(143.0814812530625,15)" font-family="Liberation Mono" font-size="10px" fill="#000" opacity="0">Oct 05</text><text text-anchor="middle" transform="translate(162.47578900824783,15)" font-family="Liberation Mono" font-size="10px" fill="#000" opacity="1">Oct 12</text><text text-anchor="middle" transform="translate(181.87009676343317,15)" font-family="Liberation Mono" font-size="10px" fill="#000" opacity="0">Oct 19</text></g><g class="mark-rule role-axis-domain" pointer-events="none"><line transform="translate(0,0)" x2="200" y2="0" stroke="#888" stroke-width="1" opacity="1"/></g><g class="mark-text role-axis-title" pointer-events="none"><text text-anchor="middle" transform="translate(100,30)" font-family="Liberation Mono" font-size="11px" font-weight="bold" fill="#000" opacity="1">Time</text></g></g><path class="foreground" aria-hidden="true" d="" pointer-events="none" display="none"/></g></g><g class="mark-group role-axis" role="graphics-symbol" aria-roledescription="axis" aria-label="Y-axis titled 'Price' for a linear scale with values from 0 to 1,800"><g transform="translate(0.5,0.5)"><path class="background" aria-hidden="true" d="M0,0h0v0h0Z" pointer-events="none"/><g><g class="mark-rule role-axis-tick" pointer-events="none"><line transform="translate(0,200)" x2="-5" y2="0" stroke="#888" stroke-width="1" opacity="1"/><line transform="translate(0,144)" x2="-5" y2="0" stroke="#888" stroke-width="1" opacity="1"/><line transform="translate(0,89)" x2="-5" y2="0" stroke="#888" stroke-width="1" opacity="1"/><line transform="translate(0,33)" x2="-5" y2="0" stroke="#888" stroke-width="1" opacity="1"/></g><g class="mark-text role-axis-label" pointer-events="none"><text text-anchor="end" transform="translate(-7,203)" font-family="Liberation Mono" font-size="10px" fill="#000" opacity="1">0</text><text text-anchor="end" transform="translate(-7,147.44444444444443)" font-family="Liberation Mono" font-size="10px" fill="#000" opacity="1">500</text><text text-anchor="end" transform="translate(-7,91.88888888888889)" font-family="Liberation Mono" font-size="10px" fill="#000" opacity="1">1,000</text><text text-anchor="end" transform="translate(-7,36.33333333333333)" font-family="Liberation Mono" font-size="10px" fill="#000" opacity="1">1,500</text></g><g class="mark-rule role-axis-domain" pointer-events="none"><line transform="translate(0,200)" x2="0" y2="-200" stroke="#888" stroke-width="1" opacity="1"/></g><g class="mark-text role-axis-title" pointer-events="none"><text text-anchor="middle" transform="translate(-51,100) rotate(-90) translate(0,-2)" font-family="Liberation Mono" font-size="11px" font-weight="bold" fill="#000" opacity="1">Price</text></g></g><path class="foreground" aria-hidden="true" d="" pointer-events="none" display="none"/></g></g><g class="mark-group role-scope pathgroup" role="graphics-object" aria-roledescription="group mark container"><g transform="translate(0,0)"><path class="background" aria-hidden="true" d="M0,0h200v200h-200Z"/><g><g class="mark-line role-mark marks" role="graphics-object" aria-roledescription="line mark container"><path aria-label="Time: Aug 14, 2025; Price: 899; identifier: escape-city-disc-1-2024" role="graphics-symbol" aria-roledescription="line mark" d="M0,100.111L0.023,100.111L0.041,100.111L0.552,100.111L0.958,100.111L1.413,100.111L2.348,100.111L2.807,100.111L3.313,100.111L3.729,100.111L4.182,100.111L5.11,100.111L5.574,100.111L6.066,100.111L6.494,100.111L6.949,100.111L7.891,100.111L8.344,100.111L8.838,100.111L9.267,100.111L9.723,100.111L10.669,100.111L11.124,100.111L11.635,100.111L11.814,100.111L12.046,100.111L12.491,100.111L13.419,100.111L13.888,100.111L14.38,100.111L14.81,100.111L15.26,100.111L16.19,100.111L16.655,100.111L17.167,100.111L17.374,100.111L17.579,100.111L18.034,100.111L18.959,100.111L19.428,100.111L19.922,100.111L20.352,100.111L20.803,100.111L21.731,100.111L22.197,100.111L22.691,100.111L23.12,100.111L23.572,100.111L24.499,100.111L24.964,100.111L25.453,100.111L25.883,100.111L26.34,100.111L27.273,100.111L27.732,100.111L28.226,100.111L28.657,100.111L29.112,100.111L30.048,100.111L30.515,100.111L31.021,100.111L31.435,100.111L31.886,100.111L32.814,100.111L33.284,100.111L34.202,100.111L34.653,100.111L35.581,100.111L36.049,100.111L36.231,100.111L36.543,100.111L36.852,100.111L36.973,100.111L37.426,100.111L38.351,100.111L38.821,100.111L39.314,100.111L39.743,100.111L40.195,100.111L41.122,100.111L41.59,100.111L42.082,100.111L42.512,100.111L42.964,100.111L43.889,100.111L44.354,100.111L44.844,100.111L45.276,100.111L45.712,100.111L45.733,100.111L46.661,100.111L46.957,100.111L47.123,100.111L47.616,100.111L48.048,100.111L48.505,100.111L49.441,100.111L49.906,100.111L50.398,100.111L50.822,100.111L51.275,100.111L52.207,100.111L52.675,100.111L53.17,100.111L53.595,100.111L54.047,100.111L54.974,100.111L55.441,100.111L55.935,100.111L56.364,100.111L56.817,100.111L57.744,100.111L58.213,100.111L58.703,100.111L59.137,100.111L59.587,100.111L60.516,100.111L60.983,100.111L61.475,100.111L61.902,100.111L62.359,100.111L63.283,100.111L63.521,100.111L63.745,100.111L64.234,100.111L64.668,100.111L65.128,100.111L66.053,100.111L66.516,100.111L67.006,100.111L67.439,100.111L67.898,100.111L68.828,100.111L69.299,100.111L69.794,100.111L70.219,100.111L70.673,100.111L71.598,100.111L72.069,100.111L72.58,100.111L72.992,100.111L73.44,100.111L74.364,100.111L74.837,100.111L75.328,100.111L75.758,100.111L76.212,100.111L77.139,100.111L77.606,100.111L78.097,100.111L78.523,100.111L78.98,100.111L79.907,100.111L80.376,100.111L80.867,100.111L81.295,100.111L81.751,100.111L82.676,100.111L83.14,100.111L83.629,100.111L84.06,100.111L84.522,100.111L85.448,100.111L85.911,100.111L86.398,100.111L86.83,100.111L87.292,100.111L88.223,100.111L88.69,100.111L89.185,100.111L89.612,100.111L90.064,100.111L90.991,100.111L91.463,100.111L91.955,100.111L92.381,100.111L92.836,100.111L93.763,100.111L94.231,100.111L94.726,100.111L95.153,100.111L95.606,100.111L96.533,100.111L97.001,100.111L97.495,100.111L97.922,100.111L98.377,100.111L99.304,100.111L99.771,100.111L100.265,100.111L100.694,100.111L101.146,100.111L102.072,100.111L102.537,100.111L103.027,100.111L103.456,100.111L103.916,100.111L104.844,100.111L105.305,100.111L105.797,100.111L106.229,100.111L106.688,100.111L107.616,100.111L108.088,100.111L108.581,100.111L109.001,100.111L109.461,100.111L110.386,100.111L110.856,100.111L111.349,100.111L111.778,100.111L112.231,100.111L113.157,100.111L113.628,100.111L114.12,100.111L114.551,100.111L114.999,100.111L115.928,100.111L116.399,100.111L116.893,100.111L117.321,100.111L117.77,100.111L118.697,100.111L119.168,100.111L119.66,100.111L120.088,100.111L120.541,100.111L121.467,100.111L121.929,100.111L122.42,100.111L122.852,100.111L123.311,100.111L124.238,100.111L124.7,100.111L125.191,100.111L125.62,100.111L126.081,100.111L127.011,100.111L127.483,100.111L127.976,100.111L128.391,100.111L128.853,100.111L129.781,100.111L130.255,100.111L130.747,100.111L131.171,100.111L131.624,100.111L132.553,100.111L133.023,100.111L133.518,100.111L133.943,100.111L134.395,100.111L135.32,100.111L135.789,100.111L136.281,100.111L136.713,100.111L137.164,100.111L138.09,100.111L138.559,100.111L139.05,100.111L139.482,100.111L139.934,100.111L140.86,100.111L141.324,100.111L141.813,100.111L142.246,100.111L142.705,100.111L143.629,100.111L144.093,100.111L144.585,100.111L145.017,100.111L145.476,100.111L146.403,100.111L146.874,100.111L147.368,100.111L147.796,100.111L148.249,100.111L149.174,100.111L149.644,100.111L150.14,100.111L150.566,100.111L151.019,100.111L151.946,100.111L152.417,100.111L152.911,100.111L153.337,100.111L153.79,100.111L154.717,100.111L155.188,100.111L155.682,100.111L156.112,100.111L156.561,100.111L157.487,100.111L157.956,100.111L158.449,100.111L158.877,100.111L159.331,100.111L160.255,100.111L160.718,100.111L161.208,100.111L161.638,100.111L162.099,100.111L163.026,100.111L163.489,100.111L163.979,100.111L164.412,100.111L164.87,100.111L165.802,100.111L166.274,100.111L166.765,100.111L167.189,100.111L167.642,100.111L168.569,100.111L169.039,100.111L169.55,100.111L169.961,100.111L170.415,100.111L171.341,100.111L171.815,100.111L172.324,100.111L172.731,100.111L173.187,100.111L174.111,100.111L174.585,100.111L175.092,100.111L175.504,100.111L175.956,100.111L176.881,100.111L177.352,100.111L177.845,100.111L178.272,100.111L178.725,100.111L179.649,100.111L180.116,100.111L180.605,100.111L181.036,100.111L181.494,100.111L182.423,100.111L182.883,100.111L183.376,100.111L183.807,100.111L184.265,100.111L185.195,100.111L185.677,100.111L186.159,100.111L186.585,100.111L187.042,100.111L187.964,100.111L188.448,100.111L188.95,100.111L189.355,100.111L189.811,100.111L190.738,100.111L191.211,100.111L191.72,100.111L192.133,100.111L192.578,100.111L193.506,100.111L193.979,100.111L194.488,100.111L194.898,100.111L195.352,100.111L196.275,100.111L196.747,100.111L197.257,100.111L197.669,100.111L198.123,100.111L199.045,100.111L199.509,100.111L199.999,100.111" stroke="#4c78a8" stroke-width="2"/></g></g><path class="foreground" aria-hidden="true" d="" display="none"/></g><g transform="translate(0,0)"><path class="background" aria-hidden="true" d="M0,0h200v200h-200Z"/><g><g class="mark-line role-mark marks" role="graphics-object" aria-roledescription="line mark container"><path aria-label="Time: Aug 14, 2025; Price: 999; identifier: roam-2" role="graphics-symbol" aria-roledescription="line mark" d="M0,89L0.023,89L0.041,89L0.552,89L0.958,89L1.413,89L2.348,89L2.807,89L3.314,89L3.729,89L4.182,89L5.11,89L5.574,89L6.066,89L6.494,89L6.953,89L7.891,89L8.344,89L8.838,89L9.267,89L9.723,89L10.669,89L11.124,89L11.635,89L11.814,89L12.047,89L12.491,89L13.419,89L13.888,89L14.38,89L14.81,89L15.26,89L16.191,89L16.655,89L17.167,89L17.374,89L17.58,89L18.034,89L18.959,89L19.428,89L19.922,89L20.352,89L20.803,89L21.731,89L22.198,89L22.692,89L23.12,89L23.573,89L24.499,89L24.964,89L25.454,89L25.883,89L26.34,89L27.273,89L27.733,89L28.226,89L28.657,89L29.112,89L30.048,89L30.515,89L31.021,89L31.435,89L31.886,89L32.814,89L33.284,89L34.203,89L34.653,89L35.581,89L36.049,89L36.231,89L36.543,89L36.852,89L36.973,89L37.426,89L38.351,89L38.821,89L39.315,89L39.743,89L40.196,89L41.122,89L41.59,89L42.082,89L42.512,89L42.965,89L43.89,89L44.354,89L44.844,89L45.276,89L45.712,89L45.734,89L46.661,89L46.957,89L47.123,89L47.616,89L48.048,89L48.505,89L49.441,89L49.907,89L50.398,89L50.822,89L51.275,89L52.207,89L52.675,89L53.17,89L53.595,89L54.048,89L54.974,89L55.442,89L55.935,89L56.364,89L56.817,89L57.744,89L58.213,89L58.703,89L59.137,89L59.587,89L60.516,89L60.983,89L61.475,89L61.902,89L62.359,89L63.283,89L63.521,89L63.746,89L64.234,89L64.668,89L65.128,89L66.053,89L66.516,89L67.007,89L67.439,89L67.898,89L68.828,89L69.3,89L69.794,89L70.219,89L70.673,89L71.598,89L72.069,89L72.58,89L72.992,89L73.44,89L74.365,89L74.837,89L75.328,89L75.758,89L76.212,89L77.139,89L77.607,89L78.098,89L78.523,89L78.981,89L79.907,89L80.376,89L80.867,89L81.295,89L81.751,89L82.676,89L83.14,89L83.629,89L84.06,89L84.522,89L85.448,89L85.911,89L86.398,89L86.83,89L87.293,89L88.223,89L88.69,89L89.185,89L89.612,89L90.065,89L90.991,89L91.463,89L91.955,89L92.381,89L92.836,89L93.763,89L94.231,89L94.726,89L95.153,89L95.606,89L96.533,89L97.001,89L97.495,89L97.922,89L98.377,89L99.304,89L99.772,89L100.265,89L100.694,89L101.146,89L102.072,89L102.537,89L103.027,89L103.456,89L103.916,89L104.844,89L105.306,89L105.797,89L106.229,89L106.688,89L107.616,89L108.088,89L108.581,89L109.001,89L109.461,89L110.386,89L110.856,89L111.349,89L111.778,89L112.231,89L113.157,89L113.628,89L114.12,89L114.551,89L115,89L115.928,89L116.399,89L116.893,89L117.321,89L117.77,89L118.697,89L119.168,89L119.661,89L120.089,89L120.541,89L121.467,89L121.929,89L122.42,89L122.852,89L123.312,89L124.238,89L124.7,89L125.191,89L125.62,89L126.081,89L127.011,89L127.483,89L127.976,89L128.391,89L128.854,89L129.781,89L130.255,89L130.747,89L131.171,89L131.625,89L132.553,89L133.023,89L133.518,89L133.943,89L134.396,89L135.32,89L135.789,89L136.281,89L136.713,89L137.165,89L138.09,89L138.56,89L139.05,89L139.482,89L139.935,89L140.86,89L141.324,89L141.813,89L142.246,89L142.705,89L143.629,89L144.093,89L144.585,89L145.017,89L145.476,89L146.403,89L146.874,89L147.368,89L147.796,89L148.249,89L149.174,89L149.644,89L150.14,89L150.566,89L151.019,89L151.946,89L152.417,89L152.911,89L153.337,89L153.79,89L154.717,89L155.188,89L155.683,89L156.112,89L156.561,89L157.487,89L157.956,89L158.449,89L158.877,89L159.331,89L160.255,89L160.719,89L161.208,89L161.639,89L162.099,89L163.026,89L163.489,89L163.979,89L164.412,89L164.87,89L165.802,89L166.274,89L166.765,89L167.19,89L167.642,89L168.569,89L169.039,89L169.55,89L169.961,89L170.415,89L171.341,89L171.815,89L172.324,89L172.731,89L173.187,89L174.111,89L174.585,89L175.092,89L175.504,89L175.956,89L176.882,89L177.352,89L177.845,89L178.273,89L178.725,89L179.649,89L180.116,89L180.605,89L181.036,89L181.494,89L182.424,89L182.883,89L183.376,89L183.807,89L184.265,89L185.195,89L185.677,89L186.159,89L186.586,89L187.043,89L187.964,89L188.448,89L188.951,89L189.355,89L189.811,89L190.738,89L191.211,89L191.72,89L192.133,89L192.578,89L193.506,89L193.979,89L194.488,89L194.898,89L195.352,89L196.276,89L196.748,89L197.257,89L197.669,89L198.123,89L199.045,89L199.509,89L199.999,89" stroke="#ff9da6" stroke-width="2"/></g></g><path class="foreground" aria-hidden="true" d="" display="none"/></g><g transform="translate(0,0)"><path class="background" aria-hidden="true" d="M0,0h200v200h-200Z"/><g><g class="mark-line role-mark marks" role="graphics-object" aria-roledescription="line mark container"><path aria-label="Time: Aug 14, 2025; Price: 999; identifier: fastroad-sl-3-2022" role="graphics-symbol" aria-roledescription="line mark" d="M0,89L0.023,89L0.041,89L0.552,89L0.958,89L1.414,89L2.348,89L2.807,89L3.314,89L3.729,89L4.182,89L5.11,89L5.574,89L6.066,89L6.494,89L6.953,89L7.891,89L8.344,89L8.838,89L9.267,89L9.723,89L10.669,89L11.124,89L11.635,89L11.814,89L12.047,89L12.491,89L13.419,89L13.888,89L14.38,89L14.81,89L15.26,89L16.191,89L16.655,89L17.167,89L17.374,89L17.58,89L18.034,89L18.96,89L19.428,89L19.922,89L20.352,89L20.803,89L21.731,89L22.198,89L22.692,89L23.12,89L23.573,89L24.499,89L24.964,89L25.454,89L25.883,89L26.34,89L27.273,89L27.733,89L28.226,89L28.657,89L29.112,89L30.048,89L30.516,89L31.021,89L31.435,89L31.886,89L32.814,89L33.284,89L34.203,89L34.653,89L35.581,89L36.049,89L36.231,89L36.543,89L36.852,89L36.973,89L37.426,89L38.351,89L38.821,89L39.315,89L39.743,89L40.196,89L41.122,89L41.59,89L42.082,89L42.512,89L42.965,89L43.89,89L44.354,89L44.844,89L45.276,89L45.712,89L45.734,89L46.661,89L46.957,89L47.123,89L47.616,89L48.048,89L48.505,89L49.441,89L49.907,89L50.398,89L50.823,89L51.275,89L52.207,89L52.675,89L53.171,89L53.595,89L54.048,89L54.974,89L55.442,89L55.935,89L56.364,89L56.817,89L57.744,89L58.213,89L58.703,89L59.137,89L59.587,89L60.516,89L60.983,89L61.475,89L61.902,89L62.359,89L63.283,89L63.521,89L63.746,89L64.234,89L64.668,89L65.128,89L66.053,89L66.516,89L67.007,89L67.439,89L67.898,89L68.829,89L69.3,89L69.794,89L70.219,89L70.673,89L71.598,89L72.069,89L72.58,89L72.992,89L73.441,89L74.365,89L74.837,89L75.328,89L75.758,89L76.212,89L77.139,89L77.607,89L78.098,89L78.523,89L78.981,89L79.907,89L80.376,89L80.867,89L81.295,89L81.751,89L82.676,89L83.14,89L83.629,89L84.06,89L84.522,89L85.448,89L85.911,89L86.398,89L86.83,89L87.293,89L88.223,89L88.69,89L89.185,89L89.612,89L90.065,89L90.991,89L91.463,89L91.955,89L92.381,89L92.836,89L93.763,89L94.231,89L94.726,89L95.153,89L95.606,89L96.533,89L97.001,89L97.496,89L97.922,89L98.377,89L99.304,89L99.772,89L100.265,89L100.694,89L101.146,89L102.072,89L102.537,89L103.027,89L103.456,89L103.916,89L104.844,89L105.306,89L105.797,89L106.229,89L106.688,89L107.616,89L108.088,89L108.581,89L109.001,89L109.461,89L110.386,89L110.856,89L111.349,89L111.778,89L112.231,89L113.157,89L113.628,89L114.12,89L114.551,89L115,89L115.928,89L116.399,89L116.893,89L117.321,89L117.77,89L118.697,89L119.168,89L119.661,89L120.089,89L120.541,89L121.468,89L121.929,89L122.42,89L122.852,89L123.312,89L124.238,89L124.7,89L125.192,89L125.62,89L126.081,89L127.011,89L127.483,89L127.977,89L128.391,89L128.854,89L129.781,89L130.255,89L130.747,89L131.171,89L131.625,89L132.553,89L133.023,89L133.518,89L133.943,89L134.396,89L135.32,89L135.789,89L136.281,89L136.713,89L137.165,89L138.09,89L138.56,89L139.051,89L139.482,89L139.935,89L140.86,89L141.324,89L141.814,89L142.246,89L142.705,89L143.629,89L144.093,89L144.585,89L145.017,89L145.476,89L146.404,89L146.874,89L147.369,89L147.796,89L148.249,89L149.174,89L149.644,89L150.14,89L150.566,89L151.019,89L151.946,89L152.417,89L152.911,89L153.337,89L153.79,89L154.718,89L155.188,89L155.683,89L156.112,89L156.561,89L157.487,89L157.956,89L158.449,89L158.877,89L159.331,89L160.255,89L160.719,89L161.208,89L161.639,89L162.099,89L163.026,89L163.489,89L163.979,89L164.412,89L164.87,89L165.802,89L166.274,89L166.765,89L167.19,89L167.642,89L168.569,89L169.039,89L169.551,89L169.961,89L170.415,89L171.341,89L171.815,89L172.324,89L172.731,89L173.187,89L174.111,89L174.585,89L175.092,89L175.504,89L175.956,89L176.882,89L177.352,89L177.845,89L178.273,89L178.725,89L179.65,89L180.116,89L180.605,89L181.036,89L181.494,89L182.424,89L182.883,89L183.377,89L183.807,89L184.265,89L185.195,89L185.677,89L186.159,89L186.586,89L187.043,89L187.964,89L188.449,89L188.951,89L189.355,89L189.811,89L190.738,89L191.211,89L191.72,89L192.133,89L192.578,89L193.506,89L193.979,89L194.488,89L194.899,89L195.352,89L196.276,89L196.748,89L197.257,89L197.669,89L198.123,89L199.045,89L199.509,89L199.999,89" stroke="#9d755d" stroke-width="2"/></g></g><path class="foreground" aria-hidden="true" d="" display="none"/></g><g transform="translate(0,0)"><path class="background" aria-hidden="true" d="M0,0h200v200h-200Z"/><g><g class="mark-line role-mark marks" role="graphics-object" aria-roledescription="line mark container"><path aria-label="Time: Aug 14, 2025; Price: 1199; identifier: fastroad-ar-2" role="graphics-symbol" aria-roledescription="line mark" d="M0,66.778L0.023,66.778L0.041,66.778L0.552,66.778L0.958,66.778L1.414,66.778L2.348,66.778L2.807,66.778L3.314,66.778L3.729,66.778L4.182,66.778L5.11,66.778L5.574,66.778L6.066,66.778L6.494,66.778L6.955,66.778L7.891,66.778L8.344,66.778L8.838,66.778L9.267,66.778L9.723,66.778L10.67,66.778L11.124,66.778L11.635,66.778L11.814,66.778L12.047,66.778L12.491,66.778L13.419,66.778L13.888,66.778L14.38,66.778L14.81,66.778L15.261,66.778L16.191,66.778L16.655,66.778L17.167,66.778L17.375,66.778L17.58,66.778L18.034,66.778L18.96,66.778L19.428,66.778L19.922,66.778L20.352,66.778L20.804,66.778L21.731,66.778L22.198,66.778L22.692,66.778L23.12,66.778L23.573,66.778L24.5,66.778L24.964,66.778L25.454,66.778L25.883,66.778L26.34,66.778L27.274,66.778L27.733,66.778L28.226,66.778L28.657,66.778L29.112,66.778L30.048,66.778L30.516,66.778L31.021,66.778L31.435,66.778L31.886,66.778L32.814,66.778L33.284,66.778L34.203,66.778L34.654,66.778L35.581,66.778L36.049,66.778L36.231,66.778L36.543,66.778L36.852,66.778L36.973,66.778L37.426,66.778L38.351,66.778L38.821,66.778L39.315,66.778L39.743,66.778L40.196,66.778L41.122,66.778L41.59,66.778L42.082,66.778L42.513,66.778L42.965,66.778L43.89,66.778L44.354,66.778L44.844,66.778L45.276,66.778L45.712,66.778L45.734,66.778L46.661,66.778L46.957,66.778L47.123,66.778L47.616,66.778L48.048,66.778L48.505,66.778L49.441,66.778L49.907,66.778L50.398,66.778L50.823,66.778L51.275,66.778L52.207,66.778L52.676,66.778L53.171,66.778L53.595,66.778L54.048,66.778L54.974,66.778L55.442,66.778L55.935,66.778L56.364,66.778L56.817,66.778L57.744,66.778L58.213,66.778L58.703,66.778L59.137,66.778L59.587,66.778L60.516,66.778L60.983,66.778L61.475,66.778L61.902,66.778L62.359,66.778L63.283,66.778L63.521,66.778L63.746,66.778L64.234,66.778L64.668,66.778L65.128,66.778L66.053,66.778L66.516,66.778L67.007,66.778L67.439,66.778L67.898,66.778L68.829,66.778L69.3,66.778L69.794,66.778L70.219,66.778L70.673,66.778L71.598,66.778L72.069,66.778L72.58,66.778L72.992,66.778L73.441,66.778L74.365,66.778L74.837,66.778L75.328,66.778L75.758,66.778L76.212,66.778L77.139,66.778L77.607,66.778L78.098,66.778L78.523,66.778L78.981,66.778L79.907,66.778L80.376,66.778L80.867,66.778L81.295,66.778L81.751,66.778L82.676,66.778L83.14,66.778L83.629,66.778L84.06,66.778L84.522,66.778L85.448,66.778L85.911,66.778L86.398,66.778L86.83,66.778L87.293,66.778L88.223,66.778L88.69,66.778L89.185,66.778L89.612,66.778L90.065,66.778L90.991,66.778L91.463,66.778L91.955,66.778L92.382,66.778L92.836,66.778L93.763,66.778L94.231,66.778L94.726,66.778L95.153,66.778L95.606,66.778L96.533,66.778L97.001,66.778L97.496,66.778L97.922,66.778L98.377,66.778L99.304,66.778L99.772,66.778L100.265,66.778L100.694,66.778L101.146,66.778L102.072,66.778L102.537,66.778L103.027,66.778L103.456,66.778L103.916,66.778L104.844,66.778L105.306,66.778L105.797,66.778L106.229,66.778L106.688,66.778L107.616,66.778L108.088,66.778L108.581,66.778L109.002,66.778L109.461,66.778L110.386,66.778L110.856,66.778L111.349,66.778L111.778,66.778L112.231,66.778L113.157,66.778L113.628,66.778L114.12,66.778L114.551,66.778L115,66.778L115.928,66.778L116.399,66.778L116.893,66.778L117.321,66.778L117.77,66.778L118.698,66.778L119.168,66.778L119.661,66.778L120.089,66.778L120.541,66.778L121.468,66.778L121.93,66.778L122.42,66.778L122.852,66.778L123.312,66.778L124.238,66.778L124.7,66.778L125.192,66.778L125.621,66.778L126.081,66.778L127.011,66.778L127.483,66.778L127.977,66.778L128.391,66.778L128.854,66.778L129.781,66.778L130.255,66.778L130.747,66.778L131.171,66.778L131.625,66.778L132.553,66.778L133.023,66.778L133.518,66.778L133.943,66.778L134.396,66.778L135.32,66.778L135.789,66.778L136.281,66.778L136.713,66.778L137.165,66.778L138.09,66.778L138.56,66.778L139.051,66.778L139.482,66.778L139.935,66.778L140.86,66.778L141.325,66.778L141.814,66.778L142.247,66.778L142.705,66.778L143.629,66.778L144.093,66.778L144.585,66.778L145.017,66.778L145.476,66.778L146.404,66.778L146.874,66.778L147.369,66.778L147.796,66.778L148.249,66.778L149.174,66.778L149.644,66.778L150.14,66.778L150.566,66.778L151.019,66.778L151.946,66.778L152.417,66.778L152.911,66.778L153.337,66.778L153.79,66.778L154.718,66.778L155.188,66.778L155.683,66.778L156.112,66.778L156.561,66.778L157.487,66.778L157.956,66.778L158.449,66.778L158.877,66.778L159.331,66.778L160.255,66.778L160.719,66.778L161.208,66.778L161.639,66.778L162.1,66.778L163.026,66.778L163.489,66.778L163.98,66.778L164.412,66.778L164.87,66.778L165.802,66.778L166.274,66.778L166.765,66.778L167.191,66.778L167.642,66.778L168.569,66.778L169.039,66.778L169.551,66.778L169.961,66.778L170.415,66.778L171.341,66.778L171.815,66.778L172.324,66.778L172.731,66.778L173.187,66.778L174.111,66.778L174.585,66.778L175.092,66.778L175.504,66.778L175.956,66.778L176.882,66.778L177.352,66.778L177.845,66.778L178.273,66.778L178.725,66.778L179.65,66.778L180.116,66.778L180.605,66.778L181.037,66.778L181.494,66.778L182.424,66.778L182.884,66.778L183.377,66.778L183.807,66.778L184.265,66.778L185.195,66.778L185.677,66.778L186.159,66.778L186.586,66.778L187.043,66.778L187.965,66.778L188.449,66.778L188.951,66.778L189.355,66.778L189.811,66.778L190.738,66.778L191.211,66.778L191.72,66.778L192.133,66.778L192.579,66.778L193.506,66.778L193.979,66.778L194.488,66.778L194.899,66.778L195.352,66.778L196.276,66.778L196.748,66.778L197.257,66.778L197.669,66.778L198.123,66.778L199.045,66.778L199.509,66.778L199.999,66.778" stroke="#54a24b" stroke-width="2"/></g></g><path class="foreground" aria-hidden="true" d="" display="none"/></g><g transform="translate(0,0)"><path class="background" aria-hidden="true" d="M0,0h200v200h-200Z"/><g><g class="mark-line role-mark marks" role="graphics-object" aria-roledescription="line mark container"><path aria-label="Time: Aug 18, 2025; Price: 899; identifier: sdrbike-escape-1-city-disc" role="graphics-symbol" aria-roledescription="line mark" d="M11.814,100.111L12.047,100.111L12.491,100.111L13.419,100.111L13.888,100.111L14.38,100.111L14.81,100.111L15.261,100.111L16.191,100.111L16.655,100.111L17.167,100.111L17.375,100.111L17.58,100.111L18.035,100.111L18.96,100.111L19.428,100.111L19.922,100.111L20.352,100.111L20.804,100.111L21.731,100.111L22.198,100.111L22.692,100.111L23.12,100.111L23.573,100.111L24.5,100.111L24.964,100.111L25.454,100.111L25.883,100.111L26.341,100.111L27.274,100.111L27.733,100.111L28.226,100.111L28.657,100.111L29.112,100.111L30.048,100.111L30.516,100.111L31.021,100.111L31.435,100.111L31.886,100.111L32.814,100.111L33.285,100.111L34.203,100.111L34.654,100.111L35.581,100.111L36.05,100.111L36.231,100.111L36.543,100.111L36.852,100.111L36.973,100.111L37.426,100.111L38.352,100.111L38.821,100.111L39.315,100.111L39.743,100.111L40.196,100.111L41.122,100.111L41.59,100.111L42.082,100.111L42.513,100.111L42.965,100.111L43.89,100.111L44.354,100.111L44.844,100.111L45.276,100.111L45.712,100.111L45.734,100.111L46.662,100.111L46.957,100.111L47.123,100.111L47.616,100.111L48.049,100.111L48.505,100.111L49.441,100.111L49.907,100.111L50.398,100.111L50.823,100.111L51.275,100.111L52.207,100.111L52.676,100.111L53.171,100.111L53.595,100.111L54.048,100.111L54.974,100.111L55.442,100.111L55.935,100.111L56.364,100.111L56.817,100.111L57.744,100.111L58.213,100.111L58.703,100.111L59.137,100.111L59.587,100.111L60.516,100.111L60.983,100.111L61.475,100.111L61.902,100.111L62.359,100.111L63.283,100.111L63.521,100.111L63.746,100.111L64.234,100.111L64.668,100.111L65.128,100.111L66.053,100.111L66.516,100.111L67.007,100.111L67.439,100.111L67.899,100.111L68.829,100.111L69.3,100.111L69.794,100.111L70.22,100.111L70.673,100.111L71.598,100.111L72.069,100.111L72.58,100.111L72.992,100.111L73.441,100.111L74.365,100.111L74.837,100.111L75.328,100.111L75.758,100.111L76.212,100.111L77.139,100.111L77.607,100.111L78.098,100.111L78.523,100.111L78.981,100.111L79.907,100.111L80.376,100.111L80.867,100.111L81.295,100.111L81.751,100.111L82.676,100.111L83.14,100.111L83.629,100.111L84.06,100.111L84.522,100.111L85.448,100.111L85.911,100.111L86.398,100.111L86.83,100.111L87.293,100.111L88.223,100.111L88.69,100.111L89.185,100.111L89.612,100.111L90.065,100.111L90.991,100.111L91.463,100.111L91.955,100.111L92.382,100.111L92.836,100.111L93.763,100.111L94.231,100.111L94.726,100.111L95.153,100.111L95.606,100.111L96.533,100.111L97.001,100.111L97.496,100.111L97.922,100.111L98.377,100.111L99.304,100.111L99.772,100.111L100.265,100.111L100.694,100.111L101.146,100.111L102.072,100.111L102.538,100.111L103.027,100.111L103.456,100.111L103.916,100.111L104.844,100.111L105.306,100.111L105.797,100.111L106.229,100.111L106.688,100.111L107.616,100.111L108.088,100.111L108.581,100.111L109.002,100.111L109.461,100.111L110.386,100.111L110.856,100.111L111.349,100.111L111.779,100.111L112.231,100.111L113.157,100.111L113.628,100.111L114.121,100.111L114.551,100.111L115,100.111L115.928,100.111L116.399,100.111L116.893,100.111L117.321,100.111L117.77,100.111L118.698,100.111L119.168,100.111L119.661,100.111L120.089,100.111L120.541,100.111L121.468,100.111L121.93,100.111L122.42,100.111L122.852,100.111L123.312,100.111L124.238,100.111L124.7,100.111L125.192,100.111L125.621,100.111L126.081,100.111L127.011,100.111L127.483,100.111L127.977,100.111L128.391,100.111L128.854,100.111L129.781,100.111L130.255,100.111L130.747,100.111L131.171,100.111L131.625,100.111L132.553,100.111L133.023,100.111L133.518,100.111L133.943,100.111L134.396,100.111L135.32,100.111L135.789,100.111L136.281,100.111L136.713,100.111L137.165,100.111L138.09,100.111L138.56,100.111L139.051,100.111L139.482,100.111L139.935,100.111L140.86,100.111L141.325,100.111L141.814,100.111L142.247,100.111L142.705,100.111L143.629,100.111L144.094,100.111L144.585,100.111L145.017,100.111L145.476,100.111L146.404,100.111L146.874,100.111L147.369,100.111L147.796,100.111L148.249,100.111L149.174,100.111L149.644,100.111L150.14,100.111L150.566,100.111L151.019,100.111L151.946,100.111L152.417,100.111L152.911,100.111L153.337,100.111L153.79,100.111L154.718,100.111L155.188,100.111L155.683,100.111L156.112,100.111L156.561,100.111L157.487,100.111L157.956,100.111L158.449,100.111L158.877,100.111L159.331,100.111L160.255,100.111L160.719,100.111L161.208,100.111L161.639,100.111L162.1,100.111L163.026,100.111L163.489,100.111L163.98,100.111L164.412,100.111L164.87,100.111L165.802,100.111L166.274,100.111L166.765,100.111L167.191,100.111L167.642,100.111L168.569,100.111L169.039,100.111L169.551,100.111L169.962,100.111L170.415,100.111L171.341,100.111L171.815,100.111L172.324,100.111L172.731,100.111L173.187,100.111L174.111,100.111L174.585,100.111L175.092,100.111L175.504,100.111L175.956,100.111L176.882,100.111L177.352,100.111L177.845,100.111L178.273,100.111L178.726,100.111L179.65,100.111L180.116,100.111L180.605,100.111L181.037,100.111L181.494,100.111L182.424,100.111L182.884,100.111L183.377,100.111L183.808,100.111L184.265,100.111L185.195,100.111L185.677,100.111L186.159,100.111L186.586,100.111L187.043,100.111L187.965,100.111L188.449,100.111L188.951,100.111L189.355,100.111L189.812,100.111L190.738,100.111L191.211,100.111L191.72,100.111L192.133,100.111L192.579,100.111L193.506,100.111L193.979,100.111L194.488,100.111L194.899,100.111L195.352,100.111L196.276,100.111L196.748,100.111L197.257,100.111L197.669,100.111L198.123,100.111L199.045,100.111L199.51,100.111L199.999,100.111" stroke="#f58518" stroke-width="2"/></g></g><path class="foreground" aria-hidden="true" d="" display="none"/></g><g transform="translate(0,0)"><path class="background" aria-hidden="true" d="M0,0h200v200h-200Z"/><g><g class="mark-line role-mark marks" role="graphics-object" aria-roledescription="line mark container"><path aria-label="Time: Aug 20, 2025; Price: 899; identifier: roam-disc-2-2024" role="graphics-symbol" aria-roledescription="line mark" d="M17.374,100.111L17.579,100.111L18.034,100.111L18.959,100.111L19.428,100.111L19.922,100.111L20.352,100.111L20.803,100.111L21.731,100.111L22.198,100.111L22.692,100.111L23.12,100.111L23.572,100.111L24.499,100.111L24.964,100.111L25.454,100.111L25.883,100.111L26.34,100.111L27.273,100.111L27.732,100.111L28.226,100.111L28.657,100.111L29.112,100.111L30.048,100.111L30.515,100.111L31.021,100.111L31.435,100.111L31.886,100.111L32.814,100.111L33.284,100.111L34.202,100.111L34.653,100.111L35.581,100.111L36.049,100.111L36.231,100.111L36.543,100.111L36.852,100.111L36.973,100.111L37.426,100.111L38.351,100.111L38.821,100.111L39.315,100.111L39.743,100.111L40.196,100.111L41.122,100.111L41.59,100.111L42.082,100.111L42.512,100.111L42.965,100.111L43.89,100.111L44.354,100.111L44.844,100.111L45.276,100.111L45.712,100.111L45.733,100.111L46.661,100.111L46.957,100.111L47.123,100.111L47.616,100.111L48.048,100.111L48.505,100.111L49.441,100.111L49.906,100.111L50.398,100.111L50.822,100.111L51.275,100.111L52.207,100.111L52.675,100.111L53.17,100.111L53.595,100.111L54.047,100.111L54.974,100.111L55.442,100.111L55.935,100.111L56.364,100.111L56.817,100.111L57.744,100.111L58.213,100.111L58.703,100.111L59.137,100.111L59.587,100.111L60.516,100.111L60.983,100.111L61.475,100.111L61.902,100.111L62.359,100.111L63.283,100.111L63.521,100.111L63.745,100.111L64.234,100.111L64.668,100.111L65.128,100.111L66.053,100.111L66.516,100.111L67.007,100.111L67.439,100.111L67.898,100.111L68.828,100.111L69.299,100.111L69.794,100.111L70.219,100.111L70.673,100.111L71.598,100.111L72.069,100.111L72.58,100.111L72.992,100.111L73.44,100.111L74.365,100.111L74.837,100.111L75.328,100.111L75.758,100.111L76.212,100.111L77.139,100.111L77.607,100.111L78.098,100.111L78.523,100.111L78.981,100.111L79.907,100.111L80.376,100.111L80.867,100.111L81.295,100.111L81.751,100.111L82.676,100.111L83.14,100.111L83.629,100.111L84.06,100.111L84.522,100.111L85.448,100.111L85.911,100.111L86.398,100.111L86.83,100.111L87.292,100.111L88.223,100.111L88.69,100.111L89.185,100.111L89.612,100.111L90.065,100.111L90.991,100.111L91.463,100.111L91.955,100.111L92.381,100.111L92.836,100.111L93.763,100.111L94.231,100.111L94.726,100.111L95.153,100.111L95.606,100.111L96.533,100.111L97.001,100.111L97.495,100.111L97.922,100.111L98.377,100.111L99.304,100.111L99.772,100.111L100.265,100.111L100.694,100.111L101.146,100.111L102.072,100.111L102.537,100.111L103.027,100.111L103.456,100.111L103.916,100.111L104.844,100.111L105.306,100.111L105.797,100.111L106.229,100.111L106.688,100.111L107.616,100.111L108.088,100.111L108.581,100.111L109.001,100.111L109.461,100.111L110.386,100.111L110.856,100.111L111.349,100.111L111.778,100.111L112.231,100.111L113.157,100.111L113.628,100.111L114.12,100.111L114.551,100.111L115,100.111L115.928,100.111L116.399,100.111L116.893,100.111L117.321,100.111L117.77,100.111L118.697,100.111L119.168,100.111L119.66,100.111L120.089,100.111L120.541,100.111L121.467,100.111L121.929,100.111L122.42,100.111L122.852,100.111L123.311,100.111L124.238,100.111L124.7,100.111L125.191,100.111L125.62,100.111L126.081,100.111L127.011,100.111L127.483,100.111L127.976,100.111L128.391,100.111L128.854,100.111L129.781,100.111L130.255,100.111L130.747,100.111L131.171,100.111L131.624,100.111L132.553,100.111L133.023,100.111L133.518,100.111L133.943,100.111L134.395,100.111L135.32,100.111L135.789,100.111L136.281,100.111L136.713,100.111L137.164,100.111L138.09,100.111L138.56,100.111L139.05,100.111L139.482,100.111L139.935,100.111L140.86,100.111L141.324,100.111L141.813,100.111L142.246,100.111L142.705,100.111L143.629,100.111L144.093,100.111L144.585,100.111L145.017,100.111L145.476,100.111L146.403,100.111L146.874,100.111L147.368,100.111L147.796,100.111L148.249,100.111L149.174,100.111L149.644,100.111L150.14,100.111L150.566,100.111L151.019,100.111L151.946,100.111L152.417,100.111L152.911,100.111L153.337,100.111L153.79,100.111L154.717,100.111L155.188,100.111L155.683,100.111L156.112,100.111L156.561,100.111L157.487,100.111L157.956,100.111L158.449,100.111L158.877,100.111L159.331,100.111L160.255,100.111L160.718,100.111L161.208,100.111L161.638,100.111L162.099,100.111L163.026,100.111L163.489,100.111L163.979,100.111L164.412,100.111L164.87,100.111L165.802,100.111L166.274,100.111L166.765,100.111L167.189,100.111L167.642,100.111L168.569,100.111L169.039,100.111L169.55,100.111L169.961,100.111L170.415,100.111L171.341,100.111L171.815,100.111L172.324,100.111L172.731,100.111L173.187,100.111L174.111,100.111L174.585,100.111L175.092,100.111L175.504,100.111L175.956,100.111L176.882,100.111L177.352,100.111L177.845,100.111L178.272,100.111L178.725,100.111L179.649,100.111L180.116,100.111L180.605,100.111L181.036,100.111L181.494,100.111L182.424,100.111L182.883,100.111L183.376,100.111L183.807,100.111L184.265,100.111L185.195,100.111L185.677,100.111L186.159,100.111L186.586,100.111L187.042,100.111L187.964,100.111L188.448,100.111L188.951,100.111L189.355,100.111L189.811,100.111L190.738,100.111L191.211,100.111L191.72,100.111L192.133,100.111L192.578,100.111L193.506,100.111L193.979,100.111L194.488,100.111L194.898,100.111L195.352,100.111L196.276,100.111L196.748,100.111L197.257,100.111L197.669,100.111L198.123,100.111L199.045,100.111L199.509,100.111L199.999,100.111" stroke="#e45756" stroke-width="2"/></g></g><path class="foreground" aria-hidden="true" d="" display="none"/></g><g transform="translate(0,0)"><path class="background" aria-hidden="true" d="M0,0h200v200h-200Z"/><g><g class="mark-line role-mark marks" role="graphics-object" aria-roledescription="line mark container"><path aria-label="Time: Aug 20, 2025; Price: 1199; identifier: thrive-2" role="graphics-symbol" aria-roledescription="line mark" d="M17.375,66.778L17.58,66.778L18.035,66.778L18.96,66.778L19.428,66.778L19.922,66.778L20.352,66.778L20.804,66.778L21.731,66.778L22.198,66.778L22.692,66.778L23.12,66.778L23.573,66.778L24.5,66.778L24.964,66.778L25.454,66.778L25.883,66.778L26.341,66.778L27.274,66.778L27.733,66.778L28.226,66.778L28.657,66.778L29.112,66.778L30.048,66.778L30.516,66.778L31.021,66.778L31.435,66.778L31.886,66.778L32.815,66.778L33.285,66.778L34.203,66.778L34.654,66.778L35.581,66.778L36.05,66.778L36.232,66.778L36.543,66.778L36.852,66.778L36.973,66.778L37.426,66.778L38.352,66.778L38.821,66.778L39.315,66.778L39.743,66.778L40.196,66.778L41.122,66.778L41.59,66.778L42.082,66.778L42.513,66.778L42.965,66.778L43.89,66.778L44.354,66.778L44.844,66.778L45.277,66.778L45.712,66.778L45.734,66.778L46.662,66.778L46.958,66.778L47.124,66.778L47.616,66.778L48.049,66.778L48.505,66.778L49.441,66.778L49.907,66.778L50.398,66.778L50.823,66.778L51.275,66.778L52.207,66.778L52.676,66.778L53.171,66.778L53.595,66.778L54.048,66.778L54.974,66.778L55.442,66.778L55.935,66.778L56.364,66.778L56.817,66.778L57.744,66.778L58.214,66.778L58.703,66.778L59.137,66.778L59.588,66.778L60.516,66.778L60.983,66.778L61.476,66.778L61.902,66.778L62.359,66.778L63.284,66.778L63.521,66.778L63.746,66.778L64.235,66.778L64.668,66.778L65.128,66.778L66.053,66.778L66.516,66.778L67.007,66.778L67.439,66.778L67.899,66.778L68.829,66.778L69.3,66.778L69.794,66.778L70.22,66.778L70.673,66.778L71.598,66.778L72.069,66.778L72.58,66.778L72.992,66.778L73.441,66.778L74.365,66.778L74.837,66.778L75.328,66.778L75.758,66.778L76.213,66.778L77.139,66.778L77.607,66.778L78.098,66.778L78.523,66.778L78.981,66.778L79.908,66.778L80.376,66.778L80.867,66.778L81.295,66.778L81.751,66.778L82.676,66.778L83.14,66.778L83.63,66.778L84.061,66.778L84.522,66.778L85.448,66.778L85.911,66.778L86.398,66.778L86.83,66.778L87.293,66.778L88.223,66.778L88.69,66.778L89.186,66.778L89.612,66.778L90.065,66.778L90.991,66.778L91.463,66.778L91.955,66.778L92.382,66.778L92.836,66.778L93.763,66.778L94.232,66.778L94.726,66.778L95.153,66.778L95.606,66.778L96.533,66.778L97.001,66.778L97.496,66.778L97.922,66.778L98.377,66.778L99.304,66.778L99.772,66.778L100.265,66.778L100.694,66.778L101.146,66.778L102.073,66.778L102.538,66.778L103.028,66.778L103.456,66.778L103.916,66.778L104.844,66.778L105.306,66.778L105.797,66.778L106.229,66.778L106.688,66.778L107.616,66.778L108.088,66.778L108.581,66.778L109.002,66.778L109.461,66.778L110.386,66.778L110.856,66.778L111.349,66.778L111.779,66.778L112.231,66.778L113.158,66.778L113.628,66.778L114.121,66.778L114.551,66.778L115,66.778L115.928,66.778L116.399,66.778L116.893,66.778L117.321,66.778L117.77,66.778L118.698,66.778L119.168,66.778L119.661,66.778L120.089,66.778L120.541,66.778L121.468,66.778L121.93,66.778L122.42,66.778L122.852,66.778L123.312,66.778L124.238,66.778L124.701,66.778L125.192,66.778L125.621,66.778L126.082,66.778L127.012,66.778L127.483,66.778L127.977,66.778L128.391,66.778L128.854,66.778L129.781,66.778L130.255,66.778L130.747,66.778L131.171,66.778L131.625,66.778L132.553,66.778L133.023,66.778L133.518,66.778L133.943,66.778L134.396,66.778L135.32,66.778L135.789,66.778L136.281,66.778L136.713,66.778L137.165,66.778L138.09,66.778L138.56,66.778L139.051,66.778L139.482,66.778L139.935,66.778L140.86,66.778L141.325,66.778L141.814,66.778L142.247,66.778L142.705,66.778L143.629,66.778L144.094,66.778L144.585,66.778L145.017,66.778L145.476,66.778L146.404,66.778L146.875,66.778L147.369,66.778L147.796,66.778L148.25,66.778L149.174,66.778L149.644,66.778L150.14,66.778L150.567,66.778L151.019,66.778L151.946,66.778L152.417,66.778L152.911,66.778L153.337,66.778L153.79,66.778L154.718,66.778L155.188,66.778L155.683,66.778L156.112,66.778L156.561,66.778L157.487,66.778L157.956,66.778L158.449,66.778L158.877,66.778L159.331,66.778L160.255,66.778L160.719,66.778L161.208,66.778L161.639,66.778L162.1,66.778L163.026,66.778L163.489,66.778L163.98,66.778L164.412,66.778L164.87,66.778L165.803,66.778L166.274,66.778L166.766,66.778L167.192,66.778L167.642,66.778L168.569,66.778L169.039,66.778L169.551,66.778L169.962,66.778L170.416,66.778L171.341,66.778L171.815,66.778L172.324,66.778L172.731,66.778L173.187,66.778L174.111,66.778L174.585,66.778L175.092,66.778L175.504,66.778L175.956,66.778L176.882,66.778L177.352,66.778L177.846,66.778L178.273,66.778L178.726,66.778L179.65,66.778L180.117,66.778L180.605,66.778L181.037,66.778L181.494,66.778L182.424,66.778L182.884,66.778L183.377,66.778L183.808,66.778L184.265,66.778L185.196,66.778L185.677,66.778L186.159,66.778L186.586,66.778L187.043,66.778L187.965,66.778L188.449,66.778L188.951,66.778L189.356,66.778L189.812,66.778L190.738,66.778L191.211,66.778L191.721,66.778L192.133,66.778L192.579,66.778L193.506,66.778L193.979,66.778L194.488,66.778L194.899,66.778L195.352,66.778L196.276,66.778L196.748,66.778L197.257,66.778L197.669,66.778L198.123,66.778L199.045,66.778L199.51,66.778L199.999,66.778" stroke="#eeca3b" stroke-width="2"/></g></g><path class="foreground" aria-hidden="true" d="" display="none"/></g><g transform="translate(0,0)"><path class="background" aria-hidden="true" d="M0,0h200v200h-200Z"/><g><g class="mark-line role-mark marks" role="graphics-object" aria-roledescription="line mark container"><path aria-label="Time: Aug 20, 2025; Price: 999; identifier: rove-2" role="graphics-symbol" aria-roledescription="line mark" d="M17.375,89L17.58,89L18.035,89L18.96,89L19.428,89L19.922,89L20.352,89L20.804,89L21.731,89L22.198,89L22.692,89L23.12,89L23.573,89L24.5,89L24.964,89L25.454,89L25.883,89L26.341,89L27.274,89L27.733,89L28.226,89L28.657,89L29.112,89L30.048,89L30.516,89L31.021,89L31.435,89L31.886,89L32.815,89L33.285,89L34.203,89L34.654,89L35.582,89L36.05,89L36.232,89L36.543,89L36.852,89L36.973,89L37.426,89L38.352,89L38.821,89L39.315,89L39.743,89L40.196,89L41.122,89L41.59,89L42.082,89L42.513,89L42.965,89L45.712,111.222L45.734,111.222L46.662,111.222L46.958,111.222L47.124,111.222L47.616,111.222L48.049,111.222L48.505,111.222L49.441,111.222L49.907,111.222L50.398,111.222L50.823,111.222L51.275,111.222L52.207,111.222L52.676,111.222L53.171,111.222L53.595,111.222L54.048,111.222L54.974,111.222L55.442,111.222L55.935,111.222L56.364,111.222L56.818,111.222L57.744,111.222L58.214,111.222L58.703,111.222L59.137,111.222L59.588,111.222L60.516,111.222L60.983,111.222L61.476,111.222L61.902,111.222L62.359,111.222L63.284,111.222L63.521,111.222L63.746,111.222L64.235,111.222L64.668,111.222L65.128,111.222L66.053,111.222L66.516,111.222L67.007,111.222L67.439,111.222L67.899,111.222L68.829,111.222L69.3,111.222L69.794,111.222L70.22,111.222L70.673,111.222L71.598,111.222L72.069,111.222L72.58,111.222L72.992,111.222L73.441,111.222L74.365,111.222L74.837,111.222L75.328,111.222L75.758,111.222L76.213,111.222L77.139,111.222L77.607,111.222L78.098,111.222L78.523,111.222L78.981,111.222L79.908,111.222L80.377,111.222L80.867,111.222L81.295,111.222L81.751,111.222L82.677,111.222L83.14,111.222L83.63,111.222L84.061,111.222L84.522,111.222L85.448,111.222L85.911,111.222L86.398,111.222L86.83,111.222L87.293,111.222L88.223,111.222L88.69,111.222L89.186,111.222L89.612,111.222L90.065,111.222L90.992,111.222L91.463,111.222L91.955,111.222L92.382,111.222L92.836,111.222L93.763,111.222L94.232,111.222L94.726,111.222L95.153,111.222L95.606,111.222L96.533,111.222L97.001,111.222L97.496,111.222L97.922,111.222L98.377,111.222L99.304,111.222L99.772,111.222L100.265,111.222L100.694,111.222L101.146,111.222L102.073,111.222L102.538,111.222L103.028,111.222L103.456,111.222L103.916,111.222L104.844,111.222L105.306,111.222L105.797,111.222L106.229,111.222L106.688,111.222L107.616,111.222L108.088,111.222L108.581,111.222L109.002,111.222L109.461,111.222L110.386,111.222L110.856,111.222L111.349,111.222L111.779,111.222L112.231,111.222L113.158,111.222L113.628,111.222L114.121,111.222L114.551,111.222L115,111.222L115.928,111.222L116.399,111.222L116.893,111.222L117.321,111.222L117.77,111.222L118.698,111.222L119.169,111.222L119.661,111.222L120.089,111.222L120.541,111.222L121.468,111.222L121.93,111.222L122.42,111.222L122.852,111.222L123.312,111.222L124.238,111.222L124.701,111.222L125.192,111.222L125.621,111.222L126.082,111.222L127.012,111.222L127.483,111.222L127.977,111.222L128.391,111.222L128.854,111.222L129.781,111.222L130.255,111.222L130.747,111.222L131.171,111.222L131.625,111.222L132.553,111.222L133.024,111.222L133.518,111.222L133.943,111.222L134.396,111.222L135.32,111.222L135.789,111.222L136.281,111.222L136.713,111.222L137.165,111.222L138.09,111.222L138.56,111.222L139.051,111.222L139.482,111.222L139.935,111.222L140.86,111.222L141.325,111.222L141.814,111.222L142.247,111.222L142.705,111.222L143.629,111.222L144.094,111.222L144.585,111.222L145.017,111.222L145.476,111.222L146.404,111.222L146.875,111.222L147.369,111.222L147.796,111.222L148.25,111.222L149.174,111.222L149.644,111.222L150.14,111.222L150.567,111.222L151.02,111.222L151.946,111.222L152.417,111.222L152.911,111.222L153.337,111.222L153.79,111.222L154.718,111.222L155.188,111.222L155.683,111.222L156.112,111.222L156.561,111.222L157.487,111.222L157.956,111.222L158.449,111.222L158.878,111.222L159.332,111.222L160.255,111.222L160.719,111.222L161.208,111.222L161.639,111.222L162.1,111.222L163.026,111.222L163.49,111.222L163.98,111.222L164.412,111.222L164.87,111.222L165.803,111.222L166.274,111.222L166.766,111.222L167.192,111.222L167.643,111.222L168.569,111.222L169.039,111.222L169.551,111.222L169.962,111.222L170.416,111.222L171.341,111.222L171.815,111.222L172.324,111.222L172.731,111.222L173.187,111.222L174.112,111.222L174.585,111.222L175.092,111.222L175.504,111.222L175.956,111.222L176.882,111.222L177.352,111.222L177.846,111.222L178.273,111.222L178.726,111.222L179.65,111.222L180.117,111.222L180.605,111.222L181.037,111.222L181.494,111.222L182.424,111.222L182.884,111.222L183.377,111.222L183.808,111.222L184.265,111.222L185.196,111.222L185.677,111.222L186.159,111.222L186.586,111.222L187.043,111.222L187.965,111.222L188.449,111.222L188.951,111.222L189.356,111.222L189.812,111.222L190.738,111.222L191.212,111.222L191.721,111.222L192.133,111.222L192.579,111.222L193.506,111.222L193.979,111.222L194.488,111.222L194.899,111.222L195.352,111.222L196.276,111.222L196.748,111.222L197.257,111.222L197.669,111.222L198.123,111.222L199.046,111.222L199.51,111.222L199.999,111.222" stroke="#72b7b2" stroke-width="2"/></g></g><path class="foreground" aria-hidden="true" d="" display="none"/></g><g transform="translate(0,0)"><path class="background" aria-hidden="true" d="M0,0h200v200h-200Z"/><g><g class="mark-line role-mark marks" role="graphics-object" aria-roledescription="line mark container"><path aria-label="Time: Aug 27, 2025; Price: 1199; identifier: allure-rs-1-2023" role="graphics-symbol" aria-roledescription="line mark" d="M36.232,66.778L36.543,66.778L36.852,66.778L36.973,66.778L37.426,66.778L38.352,66.778L38.822,66.778L39.315,66.778L39.743,66.778L40.196,66.778L41.122,66.778L41.59,66.778L42.082,66.778L42.513,66.778L42.965,66.778L43.89,66.778L44.354,66.778L44.844,66.778L45.277,66.778L45.712,66.778L45.734,66.778L46.662,66.778L46.958,66.778L47.124,66.778L47.616,66.778L48.049,66.778L48.505,66.778L49.441,66.778L49.907,66.778L50.399,66.778L50.823,66.778L51.276,66.778L52.207,66.778L52.676,66.778L53.171,66.778L53.595,66.778L54.048,66.778L54.974,66.778L55.442,66.778L55.935,66.778L56.364,66.778L56.818,66.778L57.744,66.778L58.214,66.778L58.704,66.778L59.137,66.778L59.588,66.778L60.516,66.778L60.984,66.778L61.476,66.778L61.902,66.778L62.359,66.778L63.284,66.778L63.521,66.778L63.746,66.778L64.235,66.778L64.668,66.778L65.128,66.778L66.053,66.778L66.516,66.778L67.007,66.778L67.439,66.778L67.899,66.778L68.829,66.778L69.3,66.778L69.794,66.778L70.22,66.778L70.673,66.778L71.598,66.778L72.069,66.778L72.58,66.778L72.992,66.778L73.441,66.778L74.365,66.778L74.837,66.778L75.329,66.778L75.758,66.778L76.213,66.778L77.139,66.778L77.607,66.778L78.098,66.778L78.524,66.778L78.981,66.778L79.908,66.778L80.377,66.778L80.867,66.778L81.295,66.778L81.751,66.778L82.677,66.778L83.14,66.778L83.63,66.778L84.061,66.778L84.522,66.778L85.448,66.778L85.911,66.778L86.398,66.778L86.831,66.778L87.293,66.778L88.223,66.778L88.69,66.778L89.186,66.778L89.613,66.778L90.066,66.778L90.992,66.778L91.463,66.778L91.956,66.778L92.382,66.778L92.836,66.778L93.763,66.778L94.232,66.778L94.726,66.778L95.153,66.778L95.607,66.778L96.533,66.778L97.002,66.778L97.496,66.778L97.922,66.778L98.378,66.778L99.304,66.778L99.772,66.778L100.266,66.778L100.694,66.778L101.146,66.778L102.073,66.778L102.538,66.778L103.028,66.778L103.456,66.778L103.916,66.778L104.844,66.778L105.306,66.778L105.797,66.778L106.229,66.778L106.688,66.778L107.616,66.778L108.088,66.778L108.581,66.778L109.002,66.778L109.461,66.778L110.386,66.778L110.856,66.778L111.349,66.778L111.779,66.778L112.231,66.778L113.158,66.778L113.628,66.778L114.121,66.778L114.551,66.778L115,66.778L115.928,66.778L116.4,66.778L116.894,66.778L117.321,66.778L117.77,66.778L118.698,66.778L119.169,66.778L119.661,66.778L120.089,66.778L120.541,66.778L121.468,66.778L121.93,66.778L122.42,66.778L122.852,66.778L123.312,66.778L124.239,66.778L124.701,66.778L125.192,66.778L125.621,66.778L126.082,66.778L127.012,66.778L127.483,66.778L127.977,66.778L128.391,66.778L128.854,66.778L129.781,66.778L130.255,66.778L130.747,66.778L131.171,66.778L131.625,66.778L132.553,66.778L133.024,66.778L133.518,66.778L133.943,66.778L134.396,66.778L135.321,66.778L135.79,66.778L136.282,66.778L136.713,66.778L137.165,66.778L138.09,66.778L138.56,66.778L139.051,66.778L139.482,66.778L139.935,66.778L140.86,66.778L141.325,66.778L141.814,66.778L142.247,66.778L142.705,66.778L143.629,66.778L144.094,66.778L144.585,66.778L145.017,66.778L145.476,66.778L146.404,66.778L146.875,66.778L147.369,66.778L147.796,66.778L148.25,66.778L149.174,66.778L149.644,66.778L150.14,66.778L150.567,66.778L151.02,66.778L151.946,66.778L152.417,66.778L152.912,66.778L153.338,66.778L153.79,66.778L154.718,66.778L155.188,66.778L155.683,66.778L156.112,66.778L156.561,66.778L157.487,66.778L157.957,66.778L158.449,66.778L158.878,66.778L159.332,66.778L160.255,66.778L160.719,66.778L161.208,66.778L161.639,66.778L162.1,66.778L163.026,66.778L163.49,66.778L163.98,66.778L164.412,66.778L164.87,66.778L165.803,66.778L166.275,66.778L166.766,66.778L167.192,66.778L167.643,66.778L168.569,66.778L169.039,66.778L169.551,66.778L169.962,66.778L170.416,66.778L171.341,66.778L171.815,66.778L172.324,66.778L172.731,66.778L173.187,66.778L174.112,66.778L174.585,66.778L175.092,66.778L175.504,66.778L175.956,66.778L176.882,66.778L177.352,66.778L177.846,66.778L178.273,66.778L178.726,66.778L179.65,66.778L180.117,66.778L180.605,66.778L181.037,66.778L181.495,66.778L182.424,66.778L182.884,66.778L183.377,66.778L183.808,66.778L184.265,66.778L185.196,66.778L185.677,66.778L186.159,66.778L186.586,66.778L187.043,66.778L187.965,66.778L188.449,66.778L188.951,66.778L189.356,66.778L189.812,66.778L190.738,66.778L191.212,66.778L191.721,66.778L192.133,66.778L192.579,66.778L193.506,66.778L193.979,66.778L194.488,66.778L194.899,66.778L195.352,66.778L196.276,66.778L196.748,66.778L197.257,66.778L197.669,66.778L198.123,66.778L199.046,66.778L199.51,66.778L199.999,66.778" stroke="#b279a2" stroke-width="2"/></g></g><path class="foreground" aria-hidden="true" d="" display="none"/></g><g transform="translate(0,0)"><path class="background" aria-hidden="true" d="M0,0h200v200h-200Z"/><g><g class="mark-line role-mark marks" role="graphics-object" aria-roledescription="line mark container"><path aria-label="Time: Aug 27, 2025; Price: 999; identifier: allure-rs-2-2022" role="graphics-symbol" aria-roledescription="line mark" d="M36.232,89L36.543,89L36.852,89L36.973,89L37.427,89L38.352,89L38.822,89L39.315,89L39.743,89L40.196,89L41.123,89L41.59,89L42.082,89L42.513,89L42.965,89L45.712,111.222L45.734,111.222L46.662,111.222L46.958,111.222L47.124,111.222L47.616,111.222L48.049,111.222L48.506,111.222L49.441,111.222L49.907,111.222L50.399,111.222L50.823,111.222L51.276,111.222L52.207,111.222L52.676,111.222L53.171,111.222L53.595,111.222L54.048,111.222L54.974,111.222L55.442,111.222L55.935,111.222L56.365,111.222L56.818,111.222L57.744,111.222L58.214,111.222L58.704,111.222L59.137,111.222L59.588,111.222L60.516,111.222L60.984,111.222L61.476,111.222L61.903,111.222L62.359,111.222L63.284,111.222L63.521,111.222L63.746,111.222L64.235,111.222L64.669,111.222L65.128,111.222L66.053,111.222L66.516,111.222L67.007,111.222L67.439,111.222L67.899,111.222L68.829,111.222L69.3,111.222L69.794,111.222L70.22,111.222L70.674,111.222L71.598,111.222L72.07,111.222L72.58,111.222L72.992,111.222L73.441,111.222L74.365,111.222L74.837,111.222L75.329,111.222L75.758,111.222L76.213,111.222L77.139,111.222L77.607,111.222L78.098,111.222L78.524,111.222L78.981,111.222L79.908,111.222L80.377,111.222L80.867,111.222L81.295,111.222L81.751,111.222L82.677,111.222L83.141,111.222L83.63,111.222L84.061,111.222L84.522,111.222L85.448,111.222L85.911,111.222L86.398,111.222L86.831,111.222L87.293,111.222L88.223,111.222L88.69,111.222L89.186,111.222L89.613,111.222L90.066,111.222L90.992,111.222L91.463,111.222L91.956,111.222L92.382,111.222L92.837,111.222L93.763,111.222L94.232,111.222L94.726,111.222L95.153,111.222L95.607,111.222L96.533,111.222L97.002,111.222L97.496,111.222L97.922,111.222L98.378,111.222L99.304,111.222L99.772,111.222L100.266,111.222L100.694,111.222L101.146,111.222L102.073,111.222L102.538,111.222L103.028,111.222L103.456,111.222L103.916,111.222L104.844,111.222L105.306,111.222L105.798,111.222L106.229,111.222L106.688,111.222L107.616,111.222L108.088,111.222L108.581,111.222L109.002,111.222L109.461,111.222L110.386,111.222L110.856,111.222L111.349,111.222L111.779,111.222L112.231,111.222L113.158,111.222L113.628,111.222L114.121,111.222L114.551,111.222L115,111.222L115.928,111.222L116.4,111.222L116.894,111.222L117.321,111.222L117.77,111.222L118.698,111.222L119.169,111.222L119.661,111.222L120.089,111.222L120.541,111.222L121.468,111.222L121.93,111.222L122.42,111.222L122.852,111.222L123.312,111.222L124.239,111.222L124.701,111.222L125.192,111.222L125.621,111.222L126.082,111.222L127.012,111.222L127.484,111.222L127.977,111.222L128.392,111.222L128.854,111.222L129.781,111.222L130.255,111.222L130.747,111.222L131.172,111.222L131.625,111.222L132.554,111.222L133.024,111.222L133.518,111.222L133.943,111.222L134.396,111.222L135.321,111.222L135.79,111.222L136.282,111.222L136.713,111.222L137.165,111.222L138.09,111.222L138.56,111.222L139.051,111.222L139.482,111.222L139.935,111.222L140.86,111.222L141.325,111.222L141.814,111.222L142.247,111.222L142.705,111.222L143.63,111.222L144.094,111.222L144.585,111.222L145.017,111.222L145.477,111.222L146.404,111.222L146.875,111.222L147.369,111.222L147.796,111.222L148.25,111.222L149.174,111.222L149.644,111.222L150.14,111.222L150.567,111.222L151.02,111.222L151.946,111.222L152.417,111.222L152.912,111.222L153.338,111.222L153.79,111.222L154.718,111.222L155.188,111.222L155.683,111.222L156.113,111.222L156.562,111.222L157.487,111.222L157.957,111.222L158.449,111.222L158.878,111.222L159.332,111.222L160.256,111.222L160.719,111.222L161.209,111.222L161.639,111.222L162.1,111.222L163.026,111.222L163.49,111.222L163.98,111.222L164.412,111.222L164.87,111.222L165.803,111.222L166.275,111.222L166.766,111.222L167.192,111.222L167.643,111.222L168.57,111.222L169.039,111.222L169.551,111.222L169.962,111.222L170.416,111.222L171.341,111.222L171.815,111.222L172.325,111.222L172.731,111.222L173.187,111.222L174.112,111.222L174.585,111.222L175.092,111.222L175.504,111.222L175.956,111.222L176.882,111.222L177.352,111.222L177.846,111.222L178.273,111.222L178.726,111.222L179.65,111.222L180.117,111.222L180.606,111.222L181.037,111.222L181.495,111.222L182.424,111.222L182.884,111.222L183.377,111.222L183.808,111.222L184.265,111.222L185.196,111.222L185.677,111.222L186.16,111.222L186.586,111.222L187.043,111.222L187.965,111.222L188.449,111.222L188.951,111.222L189.356,111.222L189.812,111.222L190.738,111.222L191.212,111.222L191.721,111.222L192.134,111.222L192.579,111.222L193.506,111.222L193.979,111.222L194.488,111.222L194.899,111.222L195.352,111.222L196.276,111.222L196.748,111.222L197.257,111.222L197.67,111.222L198.123,111.222L199.046,111.222L199.51,111.222L200,111.222" stroke="#54a24b" stroke-width="2"/></g></g><path class="foreground" aria-hidden="true" d="" display="none"/></g><g transform="translate(0,0)"><path class="background" aria-hidden="true" d="M0,0h200v200h-200Z"/><g><g class="mark-line role-mark marks" role="graphics-object" aria-roledescription="line mark container"><path aria-label="Time: Aug 27, 2025; Price: 949; identifier: allure-rs-2-2023" role="graphics-symbol" aria-roledescription="line mark" d="M36.232,94.556L36.543,94.556L36.852,94.556L36.973,94.556L37.427,94.556L38.352,94.556L38.822,94.556L39.315,94.556L39.743,94.556L40.196,94.556L41.123,94.556L41.59,94.556L42.082,94.556L42.513,94.556L42.965,94.556L43.89,94.556L44.354,94.556L44.845,94.556L45.277,94.556L45.713,94.556L45.734,94.556L46.662,94.556L46.958,94.556L47.124,94.556L47.617,94.556L48.049,94.556L48.506,94.556L49.441,94.556L49.907,94.556L50.399,94.556L50.823,94.556L51.276,94.556L52.208,94.556L52.676,94.556L53.171,94.556L53.595,94.556L54.048,94.556L54.974,94.556L55.442,94.556L55.936,94.556L56.365,94.556L56.818,94.556L57.744,94.556L58.214,94.556L58.704,94.556L59.137,94.556L59.588,94.556L60.516,94.556L60.984,94.556L61.476,94.556L61.903,94.556L62.359,94.556L63.284,94.556L63.521,94.556L63.746,94.556L64.235,94.556L64.669,94.556L65.128,94.556L66.053,94.556L66.516,94.556L67.007,94.556L67.439,94.556L67.899,94.556L68.829,94.556L69.3,94.556L69.794,94.556L70.22,94.556L70.674,94.556L71.598,94.556L72.07,94.556L72.581,94.556L72.992,94.556L73.441,94.556L74.365,94.556L74.838,94.556L75.329,94.556L75.758,94.556L76.213,94.556L77.139,94.556L77.607,94.556L78.098,94.556L78.524,94.556L78.981,94.556L79.908,94.556L80.377,94.556L80.868,94.556L81.295,94.556L81.752,94.556L82.677,94.556L83.141,94.556L83.63,94.556L84.061,94.556L84.522,94.556L85.448,94.556L85.911,94.556L86.398,94.556L86.831,94.556L87.293,94.556L88.224,94.556L88.69,94.556L89.186,94.556L89.613,94.556L90.066,94.556L90.992,94.556L91.464,94.556L91.956,94.556L92.382,94.556L92.837,94.556L93.763,94.556L94.232,94.556L94.726,94.556L95.153,94.556L95.607,94.556L96.534,94.556L97.002,94.556L97.496,94.556L97.922,94.556L98.378,94.556L99.304,94.556L99.772,94.556L100.266,94.556L100.694,94.556L101.147,94.556L102.073,94.556L102.538,94.556L103.028,94.556L103.456,94.556L103.916,94.556L104.844,94.556L105.306,94.556L105.798,94.556L106.229,94.556L106.688,94.556L107.617,94.556L108.088,94.556L108.581,94.556L109.002,94.556L109.461,94.556L110.386,94.556L110.856,94.556L111.35,94.556L111.779,94.556L112.232,94.556L113.158,94.556L113.628,94.556L114.121,94.556L114.551,94.556L115,94.556L115.929,94.556L116.4,94.556L116.894,94.556L117.321,94.556L117.77,94.556L118.698,94.556L119.169,94.556L119.661,94.556L120.089,94.556L120.541,94.556L121.468,94.556L121.93,94.556L122.42,94.556L122.852,94.556L123.312,94.556L124.239,94.556L124.701,94.556L125.192,94.556L125.621,94.556L126.082,94.556L127.012,94.556L127.484,94.556L127.977,94.556L128.392,94.556L128.854,94.556L129.781,94.556L130.255,94.556L130.747,94.556L131.172,94.556L131.625,94.556L132.554,94.556L133.024,94.556L133.518,94.556L133.943,94.556L134.396,94.556L135.321,94.556L135.79,94.556L136.282,94.556L136.713,94.556L137.165,94.556L138.09,94.556L138.56,94.556L139.051,94.556L139.482,94.556L139.935,94.556L140.86,94.556L141.325,94.556L141.814,94.556L142.247,94.556L142.705,94.556L143.63,94.556L144.094,94.556L144.586,94.556L145.017,94.556L145.477,94.556L146.404,94.556L146.875,94.556L147.369,94.556L147.796,94.556L148.25,94.556L149.174,94.556L149.644,94.556L150.14,94.556L150.567,94.556L151.02,94.556L151.946,94.556L152.418,94.556L152.912,94.556L153.338,94.556L153.791,94.556L154.718,94.556L155.188,94.556L155.683,94.556L156.113,94.556L156.562,94.556L157.487,94.556L157.957,94.556L158.449,94.556L158.878,94.556L159.332,94.556L160.256,94.556L160.719,94.556L161.209,94.556L161.639,94.556L162.1,94.556L163.027,94.556L163.49,94.556L163.98,94.556L164.412,94.556L164.871,94.556L165.803,94.556L166.275,94.556L166.766,94.556L167.192,94.556L167.643,94.556L168.57,94.556L169.039,94.556L169.551,94.556L169.963,94.556L170.416,94.556L171.341,94.556L171.815,94.556L172.325,94.556L172.732,94.556L173.188,94.556L174.112,94.556L174.586,94.556L175.092,94.556L175.504,94.556L175.956,94.556L176.882,94.556L177.352,94.556L177.846,94.556L178.273,94.556L178.726,94.556L179.65,94.556L180.117,94.556L180.606,94.556L181.037,94.556L181.495,94.556L182.424,94.556L182.884,94.556L183.377,94.556L183.808,94.556L184.265,94.556L185.196,94.556L185.678,94.556L186.16,94.556L186.586,94.556L187.043,94.556L187.965,94.556L188.449,94.556L188.951,94.556L189.356,94.556L189.812,94.556L190.739,94.556L191.212,94.556L191.721,94.556L192.134,94.556L192.579,94.556L193.506,94.556L193.979,94.556L194.488,94.556L194.899,94.556L195.352,94.556L196.276,94.556L196.748,94.556L197.257,94.556L197.67,94.556L198.123,94.556L199.046,94.556L199.51,94.556L200,94.556" stroke="#bab0ac" stroke-width="2"/></g></g><path class="foreground" aria-hidden="true" d="" display="none"/></g><g transform="translate(0,0)"><path class="background" aria-hidden="true" d="M0,0h200v200h-200Z"/><g><g class="mark-line role-mark marks" role="graphics-object" aria-roledescription="line mark container"><path aria-label="Time: Aug 27, 2025; Price: 999; identifier: allure-rs-2-2024" role="graphics-symbol" aria-roledescription="line mark" d="M36.232,89L36.543,89L36.852,89L36.973,89L37.427,89L38.352,89L38.822,89L39.315,89L39.743,89L40.196,89L41.123,89L41.59,89L42.083,89L42.513,89L42.965,89L45.713,111.222L45.734,111.222L46.662,111.222L46.958,111.222L47.124,111.222L47.617,111.222L48.049,111.222L48.506,111.222L49.441,111.222L49.907,111.222L50.399,111.222L50.823,111.222L51.276,111.222L52.208,111.222L52.676,111.222L53.171,111.222L53.595,111.222L54.048,111.222L54.975,111.222L55.442,111.222L55.936,111.222L56.365,111.222L56.818,111.222L57.744,111.222L58.214,111.222L58.704,111.222L59.137,111.222L59.588,111.222L60.516,111.222L60.984,111.222L61.476,111.222L61.903,111.222L62.359,111.222L63.284,111.222L63.521,111.222L63.746,111.222L64.235,111.222L64.669,111.222L65.128,111.222L66.054,111.222L66.516,111.222L67.007,111.222L67.439,111.222L67.899,111.222L68.829,111.222L69.3,111.222L69.794,111.222L70.22,111.222L70.674,111.222L71.598,111.222L72.07,111.222L72.581,111.222L72.992,111.222L73.441,111.222L74.365,111.222L74.838,111.222L75.329,111.222L75.759,111.222L76.213,111.222L77.14,111.222L77.607,111.222L78.098,111.222L78.524,111.222L78.981,111.222L79.908,111.222L80.377,111.222L80.868,111.222L81.296,111.222L81.752,111.222L82.677,111.222L83.141,111.222L83.63,111.222L84.061,111.222L84.523,111.222L85.448,111.222L85.911,111.222L86.398,111.222L86.831,111.222L87.293,111.222L88.224,111.222L88.691,111.222L89.186,111.222L89.613,111.222L90.066,111.222L90.992,111.222L91.464,111.222L91.956,111.222L92.382,111.222L92.837,111.222L93.763,111.222L94.232,111.222L94.726,111.222L95.153,111.222L95.607,111.222L96.534,111.222L97.002,111.222L97.496,111.222L97.922,111.222L98.378,111.222L99.304,111.222L99.772,111.222L100.266,111.222L100.694,111.222L101.147,111.222L102.073,111.222L102.538,111.222L103.028,111.222L103.456,111.222L103.916,111.222L104.844,111.222L105.306,111.222L105.798,111.222L106.229,111.222L106.688,111.222L107.617,111.222L108.088,111.222L108.581,111.222L109.002,111.222L109.461,111.222L110.386,111.222L110.857,111.222L111.35,111.222L111.779,111.222L112.232,111.222L113.158,111.222L113.628,111.222L114.121,111.222L114.551,111.222L115,111.222L115.929,111.222L116.4,111.222L116.894,111.222L117.321,111.222L117.77,111.222L118.698,111.222L119.169,111.222L119.661,111.222L120.089,111.222L120.541,111.222L121.468,111.222L121.93,111.222L122.42,111.222L122.852,111.222L123.312,111.222L124.239,111.222L124.701,111.222L125.192,111.222L125.621,111.222L126.082,111.222L127.012,111.222L127.484,111.222L127.977,111.222L128.392,111.222L128.854,111.222L129.781,111.222L130.255,111.222L130.747,111.222L131.172,111.222L131.625,111.222L132.554,111.222L133.024,111.222L133.518,111.222L133.943,111.222L134.396,111.222L135.321,111.222L135.79,111.222L136.282,111.222L136.713,111.222L137.165,111.222L138.09,111.222L138.56,111.222L139.051,111.222L139.482,111.222L139.935,111.222L140.86,111.222L141.325,111.222L141.814,111.222L142.247,111.222L142.706,111.222L143.63,111.222L144.094,111.222L144.586,111.222L145.017,111.222L145.477,111.222L146.404,111.222L146.875,111.222L147.369,111.222L147.796,111.222L148.25,111.222L149.174,111.222L149.644,111.222L150.14,111.222L150.567,111.222L151.02,111.222L151.946,111.222L152.418,111.222L152.912,111.222L153.338,111.222L153.791,111.222L154.718,111.222L155.188,111.222L155.683,111.222L156.113,111.222L156.562,111.222L157.487,111.222L157.957,111.222L158.449,111.222L158.878,111.222L159.332,111.222L160.256,111.222L160.719,111.222L161.209,111.222L161.639,111.222L162.1,111.222L163.027,111.222L163.49,111.222L163.98,111.222L164.412,111.222L164.871,111.222L165.803,111.222L166.275,111.222L166.766,111.222L167.192,111.222L167.643,111.222L168.57,111.222L169.04,111.222L169.551,111.222L169.963,111.222L170.416,111.222L171.342,111.222L171.815,111.222L172.325,111.222L172.732,111.222L173.188,111.222L174.112,111.222L174.586,111.222L175.092,111.222L175.504,111.222L175.956,111.222L176.882,111.222L177.352,111.222L177.846,111.222L178.273,111.222L178.726,111.222L179.65,111.222L180.117,111.222L180.606,111.222L181.037,111.222L181.495,111.222L182.424,111.222L182.884,111.222L183.377,111.222L183.808,111.222L184.265,111.222L185.196,111.222L185.678,111.222L186.16,111.222L186.586,111.222L187.043,111.222L187.965,111.222L188.449,111.222L188.951,111.222L189.356,111.222L189.812,111.222L190.739,111.222L191.212,111.222L191.721,111.222L192.134,111.222L192.579,111.222L193.506,111.222L193.979,111.222L194.489,111.222L194.899,111.222L195.352,111.222L196.276,111.222L196.748,111.222L197.258,111.222L197.67,111.222L198.123,111.222L199.046,111.222L199.51,111.222L200,111.222" stroke="#eeca3b" stroke-width="2"/></g></g><path class="foreground" aria-hidden="true" d="" display="none"/></g><g transform="translate(0,0)"><path class="background" aria-hidden="true" d="M0,0h200v200h-200Z"/><g><g class="mark-line role-mark marks" role="graphics-object" aria-roledescription="line mark container"><path aria-label="Time: Aug 27, 2025; Price: 1799; identifier: devote-1-2024" role="graphics-symbol" aria-roledescription="line mark" d="M36.852,0.111L36.973,0.111L37.427,0.111L38.352,0.111L38.822,0.111L39.315,0.111L39.743,0.111L40.196,0.111L41.123,0.111L41.59,0.111L42.083,0.111L42.513,0.111L42.965,0.111L45.713,44.556L45.734,44.556L46.662,44.556L46.958,44.556L47.124,44.556L47.617,44.556L48.049,44.556L48.506,44.556L49.441,44.556L49.907,44.556L50.399,44.556L50.823,44.556L51.276,44.556L52.208,44.556L52.676,44.556L53.171,44.556L53.595,44.556L54.048,44.556L54.975,44.556L55.442,44.556L55.936,44.556L56.365,44.556L56.818,44.556L57.745,44.556L58.214,44.556L58.704,44.556L59.137,44.556L59.588,44.556L60.516,44.556L60.984,44.556L61.476,44.556L61.903,44.556L62.359,44.556L63.284,44.556L63.521,44.556L63.746,44.556L64.235,44.556L64.669,44.556L65.128,44.556L66.054,44.556L66.517,44.556L67.007,44.556L67.44,44.556L67.899,44.556L68.829,44.556L69.3,44.556L69.794,44.556L70.22,44.556L70.674,44.556L71.599,44.556L72.07,44.556L72.581,44.556L72.992,44.556L73.441,44.556L74.365,44.556L74.838,44.556L75.329,44.556L75.759,44.556L76.213,44.556L77.14,44.556L77.607,44.556L78.098,44.556L78.524,44.556L78.981,44.556L79.908,44.556L80.377,44.556L80.868,44.556L81.296,44.556L81.752,44.556L82.677,44.556L83.141,44.556L83.63,44.556L84.061,44.556L84.523,44.556L85.449,44.556L85.911,44.556L86.399,44.556L86.831,44.556L87.293,44.556L88.224,44.556L88.691,44.556L89.186,44.556L89.613,44.556L90.066,44.556L90.992,44.556L91.464,44.556L91.956,44.556L92.382,44.556L92.837,44.556L93.763,44.556L94.232,44.556L94.726,44.556L95.153,44.556L95.607,44.556L96.534,44.556L97.002,44.556L97.496,44.556L97.922,44.556L98.378,44.556L99.304,44.556L99.772,44.556L100.266,44.556L100.694,44.556L101.147,44.556L102.073,44.556L102.538,44.556L103.028,44.556L103.457,44.556L103.916,44.556L104.845,44.556L105.306,44.556L105.798,44.556L106.229,44.556L106.688,44.556L107.617,44.556L108.088,44.556L108.581,44.556L109.002,44.556L109.461,44.556L110.386,44.556L110.857,44.556L111.35,44.556L111.779,44.556L112.232,44.556L113.158,44.556L113.628,44.556L114.121,44.556L114.551,44.556L115,44.556L115.929,44.556L116.4,44.556L116.894,44.556L117.321,44.556L117.77,44.556L118.698,44.556L119.169,44.556L119.661,44.556L120.089,44.556L120.541,44.556L121.468,44.556L121.93,44.556L122.421,44.556L122.852,44.556L123.312,44.556L124.239,44.556L124.701,44.556L125.192,44.556L125.621,44.556L126.082,44.556L127.012,44.556L127.484,44.556L127.977,44.556L128.392,44.556L128.854,44.556L129.781,44.556L130.256,44.556L130.747,44.556L131.172,44.556L131.625,44.556L132.554,44.556L133.024,44.556L133.518,44.556L133.943,44.556L134.396,44.556L135.321,44.556L135.79,44.556L136.282,44.556L136.713,44.556L137.165,44.556L138.09,44.556L138.56,44.556L139.051,44.556L139.483,44.556L139.935,44.556L140.86,44.556L141.325,44.556L141.814,44.556L142.247,44.556L142.706,44.556L143.63,44.556L144.094,44.556L144.586,44.556L145.017,44.556L145.477,44.556L146.404,44.556L146.875,44.556L147.369,44.556L147.797,44.556L148.25,44.556L149.174,44.556L149.644,44.556L150.14,44.556L150.567,44.556L151.02,44.556L151.946,44.556L152.418,44.556L152.912,44.556L153.338,44.556L153.791,44.556L154.718,44.556L155.189,44.556L155.683,44.556L156.113,44.556L156.562,44.556L157.488,44.556L157.957,44.556L158.45,44.556L158.878,44.556L159.332,44.556L160.256,44.556L160.719,44.556L161.209,44.556L161.639,44.556L162.1,44.556L163.027,44.556L163.49,44.556L163.98,44.556L164.412,44.556L164.871,44.556L165.803,44.556L166.275,44.556L166.766,44.556L167.192,44.556L167.643,44.556L168.57,44.556L169.04,44.556L169.551,44.556L169.963,44.556L170.416,44.556L171.342,44.556L171.815,44.556L172.325,44.556L172.732,44.556L173.188,44.556L174.113,44.556L174.586,44.556L175.092,44.556L175.505,44.556L175.957,44.556L176.882,44.556L177.352,44.556L177.846,44.556L178.273,44.556L178.726,44.556L179.65,44.556L180.117,44.556L180.606,44.556L181.037,44.556L181.495,44.556L182.424,44.556L182.884,44.556L183.377,44.556L183.808,44.556L184.265,44.556L185.196,44.556L185.678,44.556L186.16,44.556L186.586,44.556L187.043,44.556L187.965,44.556L188.449,44.556L188.951,44.556L189.356,44.556L189.812,44.556L190.739,44.556L191.212,44.556L191.721,44.556L192.134,44.556L192.579,44.556L193.507,44.556L193.979,44.556L194.489,44.556L194.899,44.556L195.352,44.556L196.276,44.556L196.748,44.556L197.258,44.556L197.67,44.556L198.123,44.556L199.046,44.556L199.51,44.556L200,44.556" stroke="#72b7b2" stroke-width="2"/></g></g><path class="foreground" aria-hidden="true" d="" display="none"/></g><g transform="translate(0,0)"><path class="background" aria-hidden="true" d="M0,0h200v200h-200Z"/><g><g class="mark-line role-mark marks" role="graphics-object" aria-roledescription="line mark container"><path aria-label="Time: Aug 27, 2025; Price: 1699; identifier: devote-1-2022" role="graphics-symbol" aria-roledescription="line mark" d="M36.852,11.222L36.973,11.222L37.427,11.222L38.352,11.222L38.822,11.222L39.315,11.222L39.744,11.222L40.196,11.222L41.123,11.222L41.591,11.222L42.083,11.222L42.513,11.222L42.965,11.222L43.89,11.222L44.355,11.222L44.845,11.222L45.277,11.222L45.713,11.222L45.734,11.222L46.662,11.222L46.958,11.222L47.124,11.222L47.617,11.222L48.049,11.222L48.506,11.222L49.441,11.222L49.907,11.222L50.399,11.222L50.823,11.222L51.276,11.222L52.208,11.222L52.676,11.222L53.171,11.222L53.595,11.222L54.048,11.222L54.975,11.222L55.442,11.222L55.936,11.222L56.365,11.222L56.818,11.222L57.745,11.222L58.214,11.222L58.704,11.222L59.137,11.222L59.588,11.222L60.516,11.222L60.984,11.222L61.476,11.222L61.903,11.222L62.359,11.222L63.284,11.222L63.522,11.222L63.746,11.222L64.235,11.222L64.669,11.222L65.128,11.222L66.054,11.222L66.517,11.222L67.007,11.222L67.44,11.222L67.899,11.222L68.829,11.222L69.3,11.222L69.794,11.222L70.22,11.222L70.674,11.222L71.599,11.222L72.07,11.222L72.581,11.222L72.992,11.222L73.441,11.222L74.365,11.222L74.838,11.222L75.329,11.222L75.759,11.222L76.213,11.222L77.14,11.222L77.607,11.222L78.098,11.222L78.524,11.222L78.981,11.222L79.908,11.222L80.377,11.222L80.868,11.222L81.296,11.222L81.752,11.222L82.677,11.222L83.141,11.222L83.63,11.222L84.061,11.222L84.523,11.222L85.449,11.222L85.912,11.222L86.399,11.222L86.831,11.222L87.293,11.222L88.224,11.222L88.691,11.222L89.186,11.222L89.614,11.222L90.067,11.222L90.992,11.222L91.464,11.222L91.956,11.222L92.382,11.222L92.837,11.222L93.764,11.222L94.232,11.222L94.727,11.222L95.153,11.222L95.607,11.222L96.534,11.222L97.002,11.222L97.496,11.222L97.922,11.222L98.378,11.222L99.304,11.222L99.772,11.222L100.266,11.222L100.695,11.222L101.147,11.222L102.073,11.222L102.538,11.222L103.028,11.222L103.457,11.222L103.916,11.222L104.845,11.222L105.306,11.222L105.798,11.222L106.23,11.222L106.688,11.222L107.617,11.222L108.088,11.222L108.581,11.222L109.002,11.222L109.461,11.222L110.387,11.222L110.857,11.222L111.35,11.222L111.779,11.222L112.232,11.222L113.158,11.222L113.628,11.222L114.121,11.222L114.552,11.222L115,11.222L115.929,11.222L116.4,11.222L116.894,11.222L117.321,11.222L117.77,11.222L118.698,11.222L119.169,11.222L119.661,11.222L120.089,11.222L120.541,11.222L121.468,11.222L121.93,11.222L122.421,11.222L122.852,11.222L123.312,11.222L124.239,11.222L124.701,11.222L125.192,11.222L125.621,11.222L126.082,11.222L127.012,11.222L127.484,11.222L127.977,11.222L128.392,11.222L128.854,11.222L129.781,11.222L130.256,11.222L130.747,11.222L131.172,11.222L131.625,11.222L132.554,11.222L133.024,11.222L133.518,11.222L133.944,11.222L134.396,11.222L135.321,11.222L135.79,11.222L136.282,11.222L136.714,11.222L137.165,11.222L138.091,11.222L138.56,11.222L139.051,11.222L139.483,11.222L139.935,11.222L140.86,11.222L141.325,11.222L141.814,11.222L142.247,11.222L142.706,11.222L143.63,11.222L144.094,11.222L144.586,11.222L145.017,11.222L145.477,11.222L146.404,11.222L146.875,11.222L147.369,11.222L147.797,11.222L148.25,11.222L149.174,11.222L149.645,11.222L150.14,11.222L150.567,11.222L151.02,11.222L151.946,11.222L152.418,11.222L152.912,11.222L153.338,11.222L153.791,11.222L154.718,11.222L155.189,11.222L155.683,11.222L156.113,11.222L156.562,11.222L157.488,11.222L157.957,11.222L158.45,11.222L158.878,11.222L159.332,11.222L160.256,11.222L160.719,11.222L161.209,11.222L161.639,11.222L162.1,11.222L163.027,11.222L163.49,11.222L163.98,11.222L164.412,11.222L164.871,11.222L165.803,11.222L166.275,11.222L166.766,11.222L167.192,11.222L167.643,11.222L168.57,11.222L169.04,11.222L169.551,11.222L169.963,11.222L170.416,11.222L171.342,11.222L171.816,11.222L172.325,11.222L172.732,11.222L173.188,11.222L174.113,11.222L174.586,11.222L175.093,11.222L175.505,11.222L175.957,11.222L176.882,11.222L177.352,11.222L177.846,11.222L178.273,11.222L178.726,11.222L179.65,11.222L180.117,11.222L180.606,11.222L181.037,11.222L181.495,11.222L182.424,11.222L182.884,11.222L183.377,11.222L183.808,11.222L184.265,11.222L185.196,11.222L185.678,11.222L186.16,11.222L186.586,11.222L187.043,11.222L187.965,11.222L188.449,11.222L188.951,11.222L189.356,11.222L189.812,11.222L190.739,11.222L191.212,11.222L191.721,11.222L192.134,11.222L192.579,11.222L193.507,11.222L193.979,11.222L194.489,11.222L194.899,11.222L195.352,11.222L196.276,11.222L196.748,11.222L197.258,11.222L197.67,11.222L198.123,11.222L199.046,11.222L199.51,11.222L200,11.222" stroke="#4c78a8" stroke-width="2"/></g></g><path class="foreground" aria-hidden="true" d="" display="none"/></g><g transform="translate(0,0)"><path class="background" aria-hidden="true" d="M0,0h200v200h-200Z"/><g><g class="mark-line role-mark marks" role="graphics-object" aria-roledescription="line mark container"><path aria-label="Time: Aug 31, 2025; Price: 1599; identifier: silex-400-oak-bork-2026" role="graphics-symbol" aria-roledescription="line mark" d="M46.958,22.333L47.124,22.333L47.617,22.333L48.049,22.333L48.506,22.333L49.442,22.333L49.907,22.333L50.399,22.333L50.823,22.333L51.276,22.333L52.208,22.333L52.676,22.333L53.171,22.333L53.596,22.333L54.049,22.333L54.975,22.333L55.442,22.333L55.936,22.333L56.365,22.333L56.818,22.333L57.745,22.333L58.214,22.333L58.704,22.333L59.138,22.333L59.588,22.333L60.516,22.333L60.984,22.333L61.476,22.333L61.903,22.333L62.36,22.333L63.284,22.333L63.522,22.333L63.746,22.333L64.235,22.333L64.669,22.333L65.129,22.333L66.054,22.333L66.517,22.333L67.007,22.333L67.44,22.333L67.899,22.333L68.829,22.333L69.3,22.333L69.795,22.333L70.22,22.333L70.674,22.333L71.599,22.333L72.07,22.333L72.581,22.333L72.993,22.333L73.441,22.333L74.365,22.333L74.838,22.333L75.329,22.333L75.759,22.333L76.213,22.333L77.14,22.333L77.607,22.333L78.098,22.333L78.524,22.333L78.981,22.333L79.908,22.333L80.377,22.333L80.868,22.333L81.296,22.333L81.752,22.333L82.677,22.333L83.141,22.333L83.63,22.333L84.061,22.333L84.523,22.333L85.449,22.333L85.912,22.333L86.399,22.333L86.831,22.333L87.293,22.333L88.224,22.333L88.691,22.333L89.186,22.333L89.614,22.333L90.067,22.333L90.992,22.333L91.464,22.333L91.956,22.333L92.382,22.333L92.837,22.333L93.764,22.333L94.232,22.333L94.727,22.333L95.154,22.333L95.607,22.333L96.534,22.333L97.002,22.333L97.497,22.333L97.923,22.333L98.378,22.333L99.305,22.333L99.773,22.333L100.266,22.333L100.695,22.333L101.147,22.333L102.073,22.333L102.538,22.333L103.028,22.333L103.457,22.333L103.917,22.333L104.845,22.333L105.307,22.333L105.798,22.333L106.23,22.333L106.689,22.333L107.617,22.333L108.088,22.333L108.582,22.333L109.002,22.333L109.461,22.333L110.387,22.333L110.857,22.333L111.35,22.333L111.779,22.333L112.232,22.333L113.158,22.333L113.628,22.333L114.122,22.333L114.552,22.333L115,22.333L115.929,22.333L116.4,22.333L116.894,22.333L117.322,22.333L117.771,22.333L118.698,22.333L119.169,22.333L119.661,22.333L120.089,22.333L120.542,22.333L121.468,22.333L121.93,22.333L122.421,22.333L122.853,22.333L123.313,22.333L124.239,22.333L124.701,22.333L125.192,22.333L125.621,22.333L126.082,22.333L127.012,22.333L127.484,22.333L127.977,22.333L128.392,22.333L128.854,22.333L129.782,22.333L130.256,22.333L130.747,22.333L131.172,22.333L131.626,22.333L132.554,22.333L133.024,22.333L133.519,22.333L133.944,22.333L134.396,22.333L135.321,22.333L135.79,22.333L136.282,22.333L136.714,22.333L137.165,22.333L138.091,22.333L138.561,22.333L139.051,22.333L139.483,22.333L139.936,22.333L140.861,22.333L141.325,22.333L141.814,22.333L142.247,22.333L142.706,22.333L143.63,22.333L144.094,22.333L144.586,22.333L145.018,22.333L145.477,22.333L146.404,22.333L146.875,22.333L147.369,22.333L147.797,22.333L148.25,22.333L149.175,22.333L149.645,22.333L150.14,22.333L150.567,22.333L151.02,22.333L151.947,22.333L152.418,22.333L152.912,22.333L153.338,22.333L153.791,22.333L154.718,22.333L155.189,22.333L155.683,22.333L156.113,22.333L156.562,22.333L157.488,22.333L157.957,22.333L158.45,22.333L158.878,22.333L159.332,22.333L160.256,22.333L160.719,22.333L161.209,22.333L161.639,22.333L162.1,22.333L163.027,22.333L163.49,22.333L163.98,22.333L164.413,22.333L164.871,22.333L165.803,22.333L166.275,22.333L166.766,22.333L167.192,22.333L167.643,22.333L168.57,22.333L169.04,22.333L169.551,22.333L169.963,22.333L170.416,22.333L171.342,22.333L171.816,22.333L172.325,22.333L172.732,22.333L173.188,22.333L174.113,22.333L174.586,22.333L175.093,22.333L175.505,22.333L175.957,22.333L176.882,22.333L177.353,22.333L177.846,22.333L178.273,22.333L178.726,22.333L179.65,22.333L180.117,22.333L180.606,22.333L181.037,22.333L181.495,22.333L182.424,22.333L182.884,22.333L183.377,22.333L183.808,22.333L184.266,22.333L185.196,22.333L185.678,22.333L186.16,22.333L186.586,22.333L187.043,22.333L187.965,22.333L188.449,22.333L188.951,22.333L189.356,22.333L189.812,22.333L190.739,22.333L191.212,22.333L191.721,22.333L192.134,22.333L192.579,22.333L193.507,22.333L193.98,22.333L194.489,22.333L194.899,22.333L195.353,22.333L196.276,22.333L196.748,22.333L197.258,22.333L197.67,22.333L198.124,22.333L199.046,22.333L199.51,22.333L200,22.333" stroke="#f58518" stroke-width="2"/></g></g><path class="foreground" aria-hidden="true" d="" display="none"/></g><g transform="translate(0,0)"><path class="background" aria-hidden="true" d="M0,0h200v200h-200Z"/><g><g class="mark-line role-mark marks" role="graphics-object" aria-roledescription="line mark container"><path aria-label="Time: Aug 31, 2025; Price: 1599; identifier: silex-400-warm-slate-grey-2026" role="graphics-symbol" aria-roledescription="line mark" d="M46.958,22.333L47.124,22.333L47.617,22.333L48.049,22.333L48.506,22.333L49.442,22.333L49.907,22.333L50.399,22.333L50.823,22.333L51.276,22.333L52.208,22.333L52.676,22.333L53.172,22.333L53.596,22.333L54.049,22.333L54.975,22.333L55.442,22.333L55.936,22.333L56.365,22.333L56.818,22.333L57.745,22.333L58.214,22.333L58.704,22.333L59.138,22.333L59.588,22.333L60.517,22.333L60.984,22.333L61.476,22.333L61.903,22.333L62.36,22.333L63.284,22.333L63.522,22.333L63.747,22.333L64.235,22.333L64.669,22.333L65.129,22.333L66.054,22.333L66.517,22.333L67.008,22.333L67.44,22.333L67.899,22.333L68.829,22.333L69.301,22.333L69.795,22.333L70.22,22.333L70.674,22.333L71.599,22.333L72.07,22.333L72.581,22.333L72.993,22.333L73.442,22.333L74.366,22.333L74.838,22.333L75.329,22.333L75.759,22.333L76.213,22.333L77.14,22.333L77.608,22.333L78.099,22.333L78.524,22.333L78.982,22.333L79.908,22.333L80.377,22.333L80.868,22.333L81.296,22.333L81.752,22.333L82.677,22.333L83.141,22.333L83.63,22.333L84.061,22.333L84.523,22.333L85.449,22.333L85.912,22.333L86.399,22.333L86.831,22.333L87.294,22.333L88.224,22.333L88.691,22.333L89.186,22.333L89.614,22.333L90.067,22.333L90.992,22.333L91.464,22.333L91.956,22.333L92.382,22.333L92.837,22.333L93.764,22.333L94.232,22.333L94.727,22.333L95.154,22.333L95.607,22.333L96.534,22.333L97.002,22.333L97.497,22.333L97.923,22.333L98.378,22.333L99.305,22.333L99.773,22.333L100.266,22.333L100.695,22.333L101.147,22.333L102.073,22.333L102.538,22.333L103.028,22.333L103.457,22.333L103.917,22.333L104.845,22.333L105.307,22.333L105.798,22.333L106.23,22.333L106.689,22.333L107.617,22.333L108.089,22.333L108.582,22.333L109.002,22.333L109.462,22.333L110.387,22.333L110.857,22.333L111.35,22.333L111.779,22.333L112.232,22.333L113.158,22.333L113.629,22.333L114.122,22.333L114.552,22.333L115.001,22.333L115.929,22.333L116.4,22.333L116.894,22.333L117.322,22.333L117.771,22.333L118.698,22.333L119.169,22.333L119.661,22.333L120.09,22.333L120.542,22.333L121.468,22.333L121.93,22.333L122.421,22.333L122.853,22.333L123.313,22.333L124.239,22.333L124.701,22.333L125.193,22.333L125.621,22.333L126.082,22.333L127.012,22.333L127.484,22.333L127.977,22.333L128.392,22.333L128.855,22.333L129.782,22.333L130.256,22.333L130.748,22.333L131.172,22.333L131.626,22.333L132.554,22.333L133.024,22.333L133.519,22.333L133.944,22.333L134.397,22.333L135.321,22.333L135.79,22.333L136.282,22.333L136.714,22.333L137.166,22.333L138.091,22.333L138.561,22.333L139.052,22.333L139.483,22.333L139.936,22.333L140.861,22.333L141.325,22.333L141.814,22.333L142.247,22.333L142.706,22.333L143.63,22.333L144.094,22.333L144.586,22.333L145.018,22.333L145.477,22.333L146.405,22.333L146.875,22.333L147.369,22.333L147.797,22.333L148.25,22.333L149.175,22.333L149.645,22.333L150.141,22.333L150.567,22.333L151.02,22.333L151.947,22.333L152.418,22.333L152.912,22.333L153.338,22.333L153.791,22.333L154.719,22.333L155.189,22.333L155.683,22.333L156.113,22.333L156.562,22.333L157.488,22.333L157.957,22.333L158.45,22.333L158.878,22.333L159.332,22.333L160.256,22.333L160.719,22.333L161.209,22.333L161.64,22.333L162.1,22.333L163.027,22.333L163.49,22.333L163.98,22.333L164.413,22.333L164.871,22.333L165.803,22.333L166.275,22.333L166.766,22.333L167.193,22.333L167.643,22.333L168.57,22.333L169.04,22.333L169.552,22.333L169.963,22.333L170.416,22.333L171.342,22.333L171.816,22.333L172.325,22.333L172.732,22.333L173.188,22.333L174.113,22.333L174.586,22.333L175.093,22.333L175.505,22.333L175.957,22.333L176.883,22.333L177.353,22.333L177.846,22.333L178.274,22.333L178.726,22.333L179.651,22.333L180.117,22.333L180.606,22.333L181.037,22.333L181.495,22.333L182.424,22.333L182.884,22.333L183.377,22.333L183.808,22.333L184.266,22.333L185.196,22.333L185.678,22.333L186.16,22.333L186.587,22.333L187.043,22.333L187.965,22.333L188.449,22.333L188.951,22.333L189.356,22.333L189.813,22.333L190.739,22.333L191.212,22.333L191.721,22.333L192.134,22.333L192.579,22.333L193.507,22.333L193.98,22.333L194.489,22.333L194.9,22.333L195.353,22.333L196.276,22.333L196.749,22.333L197.258,22.333L197.67,22.333L198.124,22.333L199.046,22.333L199.51,22.333L200,22.333" stroke="#e45756" stroke-width="2"/></g></g><path class="foreground" aria-hidden="true" d="" display="none"/></g></g><g class="mark-group role-legend" role="graphics-symbol" aria-roledescription="legend" aria-label="Symbol legend titled 'identifier' for stroke color with 16 values: devote-1-2022, silex-400-oak-bork-2026, silex-400-warm-slate-grey-2026, devote-1-2024, fastroad-ar-2, ending with allure-rs-2-2024"><g transform="translate(220,0)"><path class="background" aria-hidden="true" d="M0,0h256v222h-256Z" pointer-events="none"/><g><g class="mark-group role-legend-entry"><g transform="translate(0,16)"><path class="background" aria-hidden="true" d="M0,0h0v0h0Z" pointer-events="none"/><g><g class="mark-group role-scope" role="graphics-object" aria-roledescription="group mark container"><g transform="translate(0,0)"><path class="background" aria-hidden="true" d="M0,0h256v11h-256Z" pointer-events="none" opacity="1"/><g><g class="mark-symbol role-legend-symbol" pointer-events="none"><path transform="translate(6,6)" d="M-5,0L5,0" stroke="#4c78a8" stroke-width="1.5" opacity="1"/></g><g class="mark-text role-legend-label" pointer-events="none"><text text-anchor="start" transform="translate(16,9)" font-family="Liberation Mono" font-size="10px" fill="#000" opacity="1">devote-1-2022</text></g></g><path class="foreground" aria-hidden="true" d="" pointer-events="none" display="none"/></g><g transform="translate(0,13)"><path class="background" aria-hidden="true" d="M0,0h256v11h-256Z" pointer-events="none" opacity="1"/><g><g class="mark-symbol role-legend-symbol" pointer-events="none"><path transform="translate(6,6)" d="M-5,0L5,0" stroke="#f58518" stroke-width="1.5" opacity="1"/></g><g class="mark-text role-legend-label" pointer-events="none"><text text-anchor="start" transform="translate(16,9)" font-family="Liberation Mono" font-size="10px" fill="#000" opacity="1">silex-400-oak-bork-2026</text></g></g><path class="foreground" aria-hidden="true" d="" pointer-events="none" display="none"/></g><g transform="translate(0,26)"><path class="background" aria-hidden="true" d="M0,0h256v11h-256Z" pointer-events="none" opacity="1"/><g><g class="mark-symbol role-legend-symbol" pointer-events="none"><path transform="translate(6,6)" d="M-5,0L5,0" stroke="#e45756" stroke-width="1.5" opacity="1"/></g><g class="mark-text role-legend-label" pointer-events="none"><text text-anchor="start" transform="translate(16,9)" font-family="Liberation Mono" font-size="10px" fill="#000" opacity="1">silex-400-warm-slate-grey-2026</text></g></g><path class="foreground" aria-hidden="true" d="" pointer-events="none" display="none"/></g><g transform="translate(0,39)"><path class="background" aria-hidden="true" d="M0,0h256v11h-256Z" pointer-events="none" opacity="1"/><g><g class="mark-symbol role-legend-symbol" pointer-events="none"><path transform="translate(6,6)" d="M-5,0L5,0" stroke="#72b7b2" stroke-width="1.5" opacity="1"/></g><g class="mark-text role-legend-label" pointer-events="none"><text text-anchor="start" transform="translate(16,9)" font-family="Liberation Mono" font-size="10px" fill="#000" opacity="1">devote-1-2024</text></g></g><path class="foreground" aria-hidden="true" d="" pointer-events="none" display="none"/></g><g transform="translate(0,52)"><path class="background" aria-hidden="true" d="M0,0h256v11h-256Z" pointer-events="none" opacity="1"/><g><g class="mark-symbol role-legend-symbol" pointer-events="none"><path transform="translate(6,6)" d="M-5,0L5,0" stroke="#54a24b" stroke-width="1.5" opacity="1"/></g><g class="mark-text role-legend-label" pointer-events="none"><text text-anchor="start" transform="translate(16,9)" font-family="Liberation Mono" font-size="10px" fill="#000" opacity="1">fastroad-ar-2</text></g></g><path class="foreground" aria-hidden="true" d="" pointer-events="none" display="none"/></g><g transform="translate(0,65)"><path class="background" aria-hidden="true" d="M0,0h256v11h-256Z" pointer-events="none" opacity="1"/><g><g class="mark-symbol role-legend-symbol" pointer-events="none"><path transform="translate(6,6)" d="M-5,0L5,0" stroke="#eeca3b" stroke-width="1.5" opacity="1"/></g><g class="mark-text role-legend-label" pointer-events="none"><text text-anchor="start" transform="translate(16,9)" font-family="Liberation Mono" font-size="10px" fill="#000" opacity="1">thrive-2</text></g></g><path class="foreground" aria-hidden="true" d="" pointer-events="none" display="none"/></g><g transform="translate(0,78)"><path class="background" aria-hidden="true" d="M0,0h256v11h-256Z" pointer-events="none" opacity="1"/><g><g class="mark-symbol role-legend-symbol" pointer-events="none"><path transform="translate(6,6)" d="M-5,0L5,0" stroke="#b279a2" stroke-width="1.5" opacity="1"/></g><g class="mark-text role-legend-label" pointer-events="none"><text text-anchor="start" transform="translate(16,9)" font-family="Liberation Mono" font-size="10px" fill="#000" opacity="1">allure-rs-1-2023</text></g></g><path class="foreground" aria-hidden="true" d="" pointer-events="none" display="none"/></g><g transform="translate(0,91)"><path class="background" aria-hidden="true" d="M0,0h256v11h-256Z" pointer-events="none" opacity="1"/><g><g class="mark-symbol role-legend-symbol" pointer-events="none"><path transform="translate(6,6)" d="M-5,0L5,0" stroke="#ff9da6" stroke-width="1.5" opacity="1"/></g><g class="mark-text role-legend-label" pointer-events="none"><text text-anchor="start" transform="translate(16,9)" font-family="Liberation Mono" font-size="10px" fill="#000" opacity="1">roam-2</text></g></g><path class="foreground" aria-hidden="true" d="" pointer-events="none" display="none"/></g><g transform="translate(0,104)"><path class="background" aria-hidden="true" d="M0,0h256v11h-256Z" pointer-events="none" opacity="1"/><g><g class="mark-symbol role-legend-symbol" pointer-events="none"><path transform="translate(6,6)" d="M-5,0L5,0" stroke="#9d755d" stroke-width="1.5" opacity="1"/></g><g class="mark-text role-legend-label" pointer-events="none"><text text-anchor="start" transform="translate(16,9)" font-family="Liberation Mono" font-size="10px" fill="#000" opacity="1">fastroad-sl-3-2022</text></g></g><path class="foreground" aria-hidden="true" d="" pointer-events="none" display="none"/></g><g transform="translate(0,117)"><path class="background" aria-hidden="true" d="M0,0h256v11h-256Z" pointer-events="none" opacity="1"/><g><g class="mark-symbol role-legend-symbol" pointer-events="none"><path transform="translate(6,6)" d="M-5,0L5,0" stroke="#bab0ac" stroke-width="1.5" opacity="1"/></g><g class="mark-text role-legend-label" pointer-events="none"><text text-anchor="start" transform="translate(16,9)" font-family="Liberation Mono" font-size="10px" fill="#000" opacity="1">allure-rs-2-2023</text></g></g><path class="foreground" aria-hidden="true" d="" pointer-events="none" display="none"/></g><g transform="translate(0,130)"><path class="background" aria-hidden="true" d="M0,0h256v11h-256Z" pointer-events="none" opacity="1"/><g><g class="mark-symbol role-legend-symbol" pointer-events="none"><path transform="translate(6,6)" d="M-5,0L5,0" stroke="#4c78a8" stroke-width="1.5" opacity="1"/></g><g class="mark-text role-legend-label" pointer-events="none"><text text-anchor="start" transform="translate(16,9)" font-family="Liberation Mono" font-size="10px" fill="#000" opacity="1">escape-city-disc-1-2024</text></g></g><path class="foreground" aria-hidden="true" d="" pointer-events="none" display="none"/></g><g transform="translate(0,143)"><path class="background" aria-hidden="true" d="M0,0h256v11h-256Z" pointer-events="none" opacity="1"/><g><g class="mark-symbol role-legend-symbol" pointer-events="none"><path transform="translate(6,6)" d="M-5,0L5,0" stroke="#f58518" stroke-width="1.5" opacity="1"/></g><g class="mark-text role-legend-label" pointer-events="none"><text text-anchor="start" transform="translate(16,9)" font-family="Liberation Mono" font-size="10px" fill="#000" opacity="1">sdrbike-escape-1-city-disc</text></g></g><path class="foreground" aria-hidden="true" d="" pointer-events="none" display="none"/></g><g transform="translate(0,156)"><path class="background" aria-hidden="true" d="M0,0h256v11h-256Z" pointer-events="none" opacity="1"/><g><g class="mark-symbol role-legend-symbol" pointer-events="none"><path transform="translate(6,6)" d="M-5,0L5,0" stroke="#e45756" stroke-width="1.5" opacity="1"/></g><g class="mark-text role-legend-label" pointer-events="none"><text text-anchor="start" transform="translate(16,9)" font-family="Liberation Mono" font-size="10px" fill="#000" opacity="1">roam-disc-2-2024</text></g></g><path class="foreground" aria-hidden="true" d="" pointer-events="none" display="none"/></g><g transform="translate(0,169)"><path class="background" aria-hidden="true" d="M0,0h256v11h-256Z" pointer-events="none" opacity="1"/><g><g class="mark-symbol role-legend-symbol" pointer-events="none"><path transform="translate(6,6)" d="M-5,0L5,0" stroke="#72b7b2" stroke-width="1.5" opacity="1"/></g><g class="mark-text role-legend-label" pointer-events="none"><text text-anchor="start" transform="translate(16,9)" font-family="Liberation Mono" font-size="10px" fill="#000" opacity="1">rove-2</text></g></g><path class="foreground" aria-hidden="true" d="" pointer-events="none" display="none"/></g><g transform="translate(0,182)"><path class="background" aria-hidden="true" d="M0,0h256v11h-256Z" pointer-events="none" opacity="1"/><g><g class="mark-symbol role-legend-symbol" pointer-events="none"><path transform="translate(6,6)" d="M-5,0L5,0" stroke="#54a24b" stroke-width="1.5" opacity="1"/></g><g class="mark-text role-legend-label" pointer-events="none"><text text-anchor="start" transform="translate(16,9)" font-family="Liberation Mono" font-size="10px" fill="#000" opacity="1">allure-rs-2-2022</text></g></g><path class="foreground" aria-hidden="true" d="" pointer-events="none" display="none"/></g><g transform="translate(0,195)"><path class="background" aria-hidden="true" d="M0,0h256v11h-256Z" pointer-events="none" opacity="1"/><g><g class="mark-symbol role-legend-symbol" pointer-events="none"><path transform="translate(6,6)" d="M-5,0L5,0" stroke="#eeca3b" stroke-width="1.5" opacity="1"/></g><g class="mark-text role-legend-label" pointer-events="none"><text text-anchor="start" transform="translate(16,9)" font-family="Liberation Mono" font-size="10px" fill="#000" opacity="1">allure-rs-2-2024</text></g></g><path class="foreground" aria-hidden="true" d="" pointer-events="none" display="none"/></g></g></g><path class="foreground" aria-hidden="true" d="" pointer-events="none" display="none"/></g></g><g class="mark-text role-legend-title" pointer-events="none"><text text-anchor="start" transform="translate(0,9)" font-family="Liberation Mono" font-size="11px" font-weight="bold" fill="#000" opacity="1">identifier</text></g></g><path class="foreground" aria-hidden="true" d="" pointer-events="none" display="none"/></g></g></g><path class="foreground" aria-hidden="true" d="" display="none"/></g></g></g></svg>