<svg xmlns="http://www.w3.org/2000/svg" xmlns:xlink="http://www.w3.org/1999/xlink" version="1.1" class="marks" width="548" height="244" viewBox="0 0 548 244"><rect width="548" height="244" fill="white"/><g fill="none" stroke-miterlimit="10" transform="translate(67,7)"><g class="mark-group role-frame root" role="graphics-object" aria-roledescription="group mark container"><g transform="translate(0,0)"><path class="background" aria-hidden="true" d="M0.5,0.5h200v200h-200Z" stroke="#ddd"/><g><g class="mark-group role-axis" aria-hidden="true"><g transform="translate(0.5,200.5)"><path class="background" aria-hidden="true" d="M0,0h0v0h0Z" pointer-events="none"/><g><g class="mark-rule role-axis-grid" pointer-events="none"><line transform="translate(7,-200)" x2="0" y2="200" stroke="#ddd" stroke-width="1" opacity="1"/><line transform="translate(27,-200)" x2="0" y2="200" stroke="#ddd" stroke-width="1" opacity="1"/><line transform="translate(46,-200)" x2="0" y2="200" stroke="#ddd" stroke-width="1" opacity="1"/><line transform="translate(65,-200)" x2="0" y2="200" stroke="#ddd" stroke-width="1" opacity="1"/><line transform="translate(85,-200)" x2="0" y2="200" stroke="#ddd" stroke-width="1" opacity="1"/><line transform="translate(104,-200)" x2="0" y2="200" stroke="#ddd" stroke-width="1" opacity="1"/><line transform="translate(123,-200)" x2="0" y2="200" stroke="#ddd" stroke-width="1" opacity="1"/><line transform="translate(143,-200)" x2="0" y2="200" stroke="#ddd" stroke-width="1" opacity="1"/><line transform="translate(162,-200)" x2="0" y2="200" stroke="#ddd" stroke-width="1" opacity="1"/><line transform="translate(181,-200)" x2="0" y2="200" stroke="#ddd" stroke-width="1" opacity="1"/></g></g><path class="foreground" aria-hidden="true" d="" pointer-events="none" display="none"/></g></g><g class="mark-group role-axis" aria-hidden="true"><g transform="translate(0.5,0.5)"><path class="background" aria-hidden="true" d="M0,0h0v0h0Z" pointer-events="none"/><g><g class="mark-rule role-axis-grid" pointer-events="none"><line transform="translate(0,200)" x2="200" y2="0" stroke="#ddd" stroke-width="1" opacity="1"/><line transform="translate(0,144)" x2="200" y2="0" stroke="#ddd" stroke-width="1" opacity="1"/><line transform="translate(0,89)" x2="200" y2="0" stroke="#ddd" stroke-width="1" opacity="1"/><line transform="translate(0,33)" x2="200" y2="0" stroke="#ddd" stroke-width="1" opacity="1"/></g></g><path class="foreground" aria-hidden="true" d="" pointer-events="none" display="none"/></g></g><g class="mark-group role-axis" role="graphics-symbol" aria-roledescription="axis" aria-label="X-axis titled 'Time' for a time scale with values from Thursday, 14 August 2025, 8:34:48 AM to Saturday, 25 October 2025, 4:48:06 PM"><g transform="translate(0.5,200.5)"><path class="background" aria-hidden="true" d="M0,0h0v0h0Z" pointer-events="none"/><g><g class="mark-rule role-axis-tick" pointer-events="none"><line transform="translate(7,0)" x2="0" y2="5" stroke="#888" stroke-width="1" opacity="1"/><line transform="translate(27,0)" x2="0" y2="5" stroke="#888" stroke-width="1" opacity="1"/><line transform="translate(46,0)" x2="0" y2="5" stroke="#888" stroke-width="1" opacity="1"/><line transform="translate(65,0)" x2="0" y2="5" stroke="#888" stroke-width="1" opacity="1"/><line transform="translate(85,0)" x2="0" y2="5" stroke="#888" stroke-width="1" opacity="1"/><line transform="translate(104,0)" x2="0" y2="5" stroke="#888" stroke-width="1" opacity="1"/><line transform="translate(123,0)" x2="0" y2="5" stroke="#888" stroke-width="1" opacity="1"/><line transform="translate(143,0)" x2="0" y2="5" stroke="#888" stroke-width="1" opacity="1"/><line transform="translate(162,0)" x2="0" y2="5" stroke="#888" stroke-width="1" opacity="1"/><line transform="translate(181,0)" x2="0" y2="5" stroke="#888" stroke-width="1" opacity="1"/></g><g class="mark-text role-axis-label" pointer-events="none"><text text-anchor="middle" transform="translate(7.305495374137301,15)" font-family="Liberation Mono" font-size="10px" fill="#000" opacity="1">Aug 17</text><text text-anchor="middle" transform="translate(26.65786499692237,15)" font-family="Liberation Mono" font-size="10px" fill="#000" opacity="0">Aug 24</text><text text-anchor="middle" transform="translate(46.01023461970744,15)" font-family="Liberation Mono" font-size="10px" fill="#000" opacity="0">Aug 31</text><text text-anchor="middle" transform="translate(65.36260424249252,15)" font-family="Liberation Mono" font-size="10px" fill="#000" opacity="0">Sep 07</text><text text-anchor="middle" transform="translate(84.71497386527759,15)" font-family="Liberation Mono" font-size="10px" fill="#000" opacity="1">Sep 14</text><text text-anchor="middle" transform="translate(104.06734348806266,15)" font-family="Liberation Mono" font-size="10px" fill="#000" opacity="0">Sep 21</text><text text-anchor="middle" transform="translate(123.41971311084772,15)" font-family="Liberation Mono" font-size="10px" fill="#000" opacity="0">Sep 28</text><text text-anchor="middle" transform="translate(142.7720827336328,15)" font-family="Liberation Mono" font-size="10px" fill="#000" opacity="0">Oct 05</text><text text-anchor="middle" transform="translate(162.12445235641786,15)" font-family="Liberation Mono" font-size="10px" fill="#000" opacity="1">Oct 12</text><text text-anchor="middle" transform="translate(181.47682197920295,15)" font-family="Liberation Mono" font-size="10px" fill="#000" opacity="0">Oct 19</text></g><g class="mark-rule role-axis-domain" pointer-events="none"><line transform="translate(0,0)" x2="200" y2="0" stroke="#888" stroke-width="1" opacity="1"/></g><g class="mark-text role-axis-title" pointer-events="none"><text text-anchor="middle" transform="translate(100,30)" font-family="Liberation Mono" font-size="11px" font-weight="bold" fill="#000" opacity="1">Time</text></g></g><path class="foreground" aria-hidden="true" d="" pointer-events="none" display="none"/></g></g><g class="mark-group role-axis" role="graphics-symbol" aria-roledescription="axis" aria-label="Y-axis titled 'Price' for a linear scale with values from 0 to 1,800"><g transform="translate(0.5,0.5)"><path class="background" aria-hidden="true" d="M0,0h0v0h0Z" pointer-events="none"/><g><g class="mark-rule role-axis-tick" pointer-events="none"><line transform="translate(0,200)" x2="-5" y2="0" stroke="#888" stroke-width="1" opacity="1"/><line transform="translate(0,144)" x2="-5" y2="0" stroke="#888" stroke-width="1" opacity="1"/><line transform="translate(0,89)" x2="-5" y2="0" stroke="#888" stroke-width="1" opacity="1"/><line transform="translate(0,33)" x2="-5" y2="0" stroke="#888" stroke-width="1" opacity="1"/></g><g class="mark-text role-axis-label" pointer-events="none"><text text-anchor="end" transform="translate(-7,203)" font-family="Liberation Mono" font-size="10px" fill="#000" opacity="1">0</text><text text-anchor="end" transform="translate(-7,147.44444444444443)" font-family="Liberation Mono" font-size="10px" fill="#000" opacity="1">500</text><text text-anchor="end" transform="translate(-7,91.88888888888889)" font-family="Liberation Mono" font-size="10px" fill="#000" opacity="1">1,000</text><text text-anchor="end" transform="translate(-7,36.33333333333333)" font-family="Liberation Mono" font-size="10px" fill="#000" opacity="1">1,500</text></g><g class="mark-rule role-axis-domain" pointer-events="none"><line transform="translate(0,200)" x2="0" y2="-200" stroke="#888" stroke-width="1" opacity="1"/></g><g class="mark-text role-axis-title" pointer-events="none"><text text-anchor="middle" transform="translate(-51,100) rotate(-90) translate(0,-2)" font-family="Liberation Mono" font-size="11px" font-weight="bold" fill="#000" opacity="1">Price</text></g></g><path class="foreground" aria-hidden="true" d="" pointer-events="none" display="none"/></g></g><g class="mark-group role-scope pathgroup" role="graphics-object" aria-roledescription="group mark container"><g transform="translate(0,0)"><path class="background" aria-hidden="true" d="M0,0h200v200h-200Z"/><g><g class="mark-line role-mark marks" role="graphics-object" aria-roledescription="line mark container"><path aria-label="Time: Aug 14, 2025; Price: 899; identifier: escape-city-disc-1-2024" role="graphics-symbol" aria-roledescription="line mark" d="M0,100.111L0.023,100.111L0.041,100.111L0.551,100.111L0.956,100.111L1.41,100.111L2.343,100.111L2.801,100.111L3.306,100.111L3.721,100.111L4.173,100.111L5.099,100.111L5.562,100.111L6.053,100.111L6.48,100.111L6.934,100.111L7.874,100.111L8.325,100.111L8.819,100.111L9.247,100.111L9.702,100.111L10.646,100.111L11.1,100.111L11.61,100.111L11.788,100.111L12.02,100.111L12.464,100.111L13.39,100.111L13.858,100.111L14.349,100.111L14.778,100.111L15.227,100.111L16.155,100.111L16.619,100.111L17.13,100.111L17.337,100.111L17.541,100.111L17.995,100.111L18.918,100.111L19.386,100.111L19.879,100.111L20.308,100.111L20.758,100.111L21.684,100.111L22.149,100.111L22.642,100.111L23.07,100.111L23.521,100.111L24.446,100.111L24.91,100.111L25.398,100.111L25.827,100.111L26.283,100.111L27.214,100.111L27.672,100.111L28.164,100.111L28.595,100.111L29.049,100.111L29.983,100.111L30.449,100.111L30.954,100.111L31.367,100.111L31.817,100.111L32.743,100.111L33.212,100.111L34.128,100.111L34.578,100.111L35.504,100.111L35.971,100.111L36.152,100.111L36.464,100.111L36.772,100.111L36.893,100.111L37.345,100.111L38.268,100.111L38.737,100.111L39.229,100.111L39.657,100.111L40.109,100.111L41.033,100.111L41.5,100.111L41.991,100.111L42.42,100.111L42.872,100.111L43.795,100.111L44.258,100.111L44.747,100.111L45.178,100.111L45.613,100.111L45.635,100.111L46.56,100.111L46.856,100.111L47.021,100.111L47.513,100.111L47.944,100.111L48.4,100.111L49.334,100.111L49.798,100.111L50.289,100.111L50.712,100.111L51.164,100.111L52.094,100.111L52.561,100.111L53.055,100.111L53.479,100.111L53.931,100.111L54.855,100.111L55.322,100.111L55.814,100.111L56.242,100.111L56.694,100.111L57.619,100.111L58.087,100.111L58.576,100.111L59.009,100.111L59.458,100.111L60.385,100.111L60.851,100.111L61.342,100.111L61.768,100.111L62.224,100.111L63.146,100.111L63.383,100.111L63.608,100.111L64.095,100.111L64.528,100.111L64.987,100.111L65.91,100.111L66.372,100.111L66.862,100.111L67.293,100.111L67.751,100.111L68.679,100.111L69.149,100.111L69.643,100.111L70.067,100.111L70.52,100.111L71.443,100.111L71.913,100.111L72.423,100.111L72.834,100.111L73.282,100.111L74.204,100.111L74.675,100.111L75.165,100.111L75.594,100.111L76.047,100.111L76.972,100.111L77.439,100.111L77.929,100.111L78.353,100.111L78.81,100.111L79.734,100.111L80.202,100.111L80.692,100.111L81.119,100.111L81.574,100.111L82.497,100.111L82.96,100.111L83.448,100.111L83.878,100.111L84.339,100.111L85.263,100.111L85.725,100.111L86.211,100.111L86.642,100.111L87.104,100.111L88.032,100.111L88.498,100.111L88.992,100.111L89.418,100.111L89.87,100.111L90.794,100.111L91.265,100.111L91.756,100.111L92.181,100.111L92.635,100.111L93.56,100.111L94.027,100.111L94.521,100.111L94.947,100.111L95.399,100.111L96.324,100.111L96.791,100.111L97.285,100.111L97.71,100.111L98.164,100.111L99.089,100.111L99.556,100.111L100.048,100.111L100.476,100.111L100.927,100.111L101.851,100.111L102.316,100.111L102.804,100.111L103.232,100.111L103.691,100.111L104.617,100.111L105.078,100.111L105.568,100.111L105.999,100.111L106.457,100.111L107.383,100.111L107.854,100.111L108.346,100.111L108.766,100.111L109.224,100.111L110.147,100.111L110.616,100.111L111.108,100.111L111.536,100.111L111.988,100.111L112.912,100.111L113.382,100.111L113.873,100.111L114.303,100.111L114.751,100.111L115.677,100.111L116.147,100.111L116.64,100.111L117.067,100.111L117.515,100.111L118.441,100.111L118.91,100.111L119.402,100.111L119.829,100.111L120.28,100.111L121.205,100.111L121.666,100.111L122.155,100.111L122.586,100.111L123.045,100.111L123.969,100.111L124.43,100.111L124.921,100.111L125.349,100.111L125.808,100.111L126.736,100.111L127.207,100.111L127.7,100.111L128.113,100.111L128.575,100.111L129.5,100.111L129.973,100.111L130.464,100.111L130.887,100.111L131.34,100.111L132.266,100.111L132.735,100.111L133.229,100.111L133.653,100.111L134.105,100.111L135.027,100.111L135.495,100.111L135.986,100.111L136.417,100.111L136.868,100.111L137.791,100.111L138.26,100.111L138.75,100.111L139.18,100.111L139.632,100.111L140.555,100.111L141.019,100.111L141.507,100.111L141.939,100.111L142.396,100.111L143.318,100.111L143.782,100.111L144.272,100.111L144.703,100.111L145.161,100.111L146.087,100.111L146.557,100.111L147.05,100.111L147.476,100.111L147.929,100.111L148.851,100.111L149.32,100.111L149.815,100.111L150.241,100.111L150.693,100.111L151.617,100.111L152.087,100.111L152.58,100.111L153.005,100.111L153.457,100.111L154.383,100.111L154.852,100.111L155.346,100.111L155.774,100.111L156.222,100.111L157.146,100.111L157.614,100.111L158.106,100.111L158.533,100.111L158.986,100.111L159.908,100.111L160.371,100.111L160.859,100.111L161.289,100.111L161.749,100.111L162.673,100.111L163.135,100.111L163.625,100.111L164.056,100.111L164.513,100.111L165.444,100.111L165.914,100.111L166.404,100.111L166.827,100.111L167.28,100.111L168.204,100.111L168.673,100.111L169.184,100.111L169.594,100.111L170.047,100.111L170.97,100.111L171.443,100.111L171.951,100.111L172.357,100.111L172.812,100.111L173.734,100.111L174.207,100.111L174.713,100.111L175.124,100.111L175.575,100.111L176.499,100.111L176.968,100.111L177.461,100.111L177.887,100.111L178.339,100.111L179.261,100.111L179.727,100.111L180.214,100.111L180.645,100.111L181.102,100.111L182.029,100.111L182.488,100.111L182.98,100.111L183.41,100.111L183.866,100.111L184.795,100.111L185.275,100.111L185.756,100.111L186.182,100.111L186.638,100.111L187.558,100.111L188.041,100.111L188.542,100.111L188.946,100.111L189.401,100.111L190.325,100.111L190.798,100.111L191.306,100.111L191.717,100.111L192.162,100.111L193.087,100.111L193.559,100.111L194.067,100.111L194.477,100.111L194.929,100.111L195.851,100.111L196.322,100.111L196.83,100.111L197.241,100.111L197.694,100.111L198.615,100.111L199.078,100.111L199.567,100.111L199.999,100.111" stroke="#4c78a8" stroke-width="2"/></g></g><path class="foreground" aria-hidden="true" d="" display="none"/></g><g transform="translate(0,0)"><path class="background" aria-hidden="true" d="M0,0h200v200h-200Z"/><g><g class="mark-line role-mark marks" role="graphics-object" aria-roledescription="line mark container"><path aria-label="Time: Aug 14, 2025; Price: 999; identifier: roam-2" role="graphics-symbol" aria-roledescription="line mark" d="M0,89L0.023,89L0.041,89L0.551,89L0.956,89L1.41,89L2.343,89L2.801,89L3.306,89L3.721,89L4.173,89L5.099,89L5.562,89L6.053,89L6.48,89L6.938,89L7.874,89L8.326,89L8.819,89L9.247,89L9.702,89L10.646,89L11.1,89L11.61,89L11.788,89L12.02,89L12.464,89L13.39,89L13.858,89L14.349,89L14.778,89L15.227,89L16.156,89L16.619,89L17.13,89L17.337,89L17.541,89L17.995,89L18.918,89L19.386,89L19.879,89L20.308,89L20.758,89L21.684,89L22.15,89L22.643,89L23.07,89L23.522,89L24.446,89L24.91,89L25.399,89L25.827,89L26.283,89L27.214,89L27.673,89L28.165,89L28.595,89L29.049,89L29.983,89L30.449,89L30.954,89L31.367,89L31.817,89L32.743,89L33.212,89L34.129,89L34.578,89L35.504,89L35.971,89L36.153,89L36.464,89L36.772,89L36.893,89L37.345,89L38.268,89L38.737,89L39.23,89L39.657,89L40.109,89L41.033,89L41.5,89L41.991,89L42.42,89L42.872,89L43.795,89L44.258,89L44.747,89L45.178,89L45.613,89L45.635,89L46.56,89L46.856,89L47.021,89L47.513,89L47.944,89L48.4,89L49.334,89L49.799,89L50.289,89L50.713,89L51.164,89L52.094,89L52.561,89L53.055,89L53.479,89L53.931,89L54.855,89L55.322,89L55.814,89L56.242,89L56.694,89L57.619,89L58.087,89L58.576,89L59.009,89L59.458,89L60.385,89L60.851,89L61.342,89L61.768,89L62.224,89L63.146,89L63.384,89L63.608,89L64.095,89L64.528,89L64.987,89L65.91,89L66.372,89L66.862,89L67.293,89L67.751,89L68.68,89L69.15,89L69.643,89L70.067,89L70.52,89L71.443,89L71.913,89L72.423,89L72.834,89L73.282,89L74.204,89L74.675,89L75.165,89L75.594,89L76.047,89L76.972,89L77.439,89L77.929,89L78.353,89L78.81,89L79.734,89L80.202,89L80.692,89L81.119,89L81.574,89L82.497,89L82.96,89L83.448,89L83.878,89L84.339,89L85.263,89L85.725,89L86.211,89L86.642,89L87.104,89L88.032,89L88.498,89L88.992,89L89.418,89L89.87,89L90.794,89L91.265,89L91.756,89L92.182,89L92.635,89L93.56,89L94.028,89L94.521,89L94.947,89L95.399,89L96.324,89L96.791,89L97.285,89L97.71,89L98.164,89L99.089,89L99.556,89L100.048,89L100.476,89L100.927,89L101.852,89L102.316,89L102.804,89L103.232,89L103.691,89L104.617,89L105.078,89L105.568,89L105.999,89L106.457,89L107.383,89L107.854,89L108.346,89L108.766,89L109.224,89L110.147,89L110.616,89L111.108,89L111.537,89L111.988,89L112.913,89L113.382,89L113.874,89L114.303,89L114.751,89L115.677,89L116.147,89L116.64,89L117.067,89L117.515,89L118.441,89L118.911,89L119.402,89L119.829,89L120.28,89L121.205,89L121.666,89L122.155,89L122.586,89L123.045,89L123.97,89L124.431,89L124.921,89L125.349,89L125.809,89L126.737,89L127.207,89L127.7,89L128.113,89L128.575,89L129.5,89L129.973,89L130.464,89L130.887,89L131.34,89L132.266,89L132.736,89L133.229,89L133.653,89L134.105,89L135.028,89L135.496,89L135.986,89L136.417,89L136.868,89L137.791,89L138.26,89L138.75,89L139.18,89L139.632,89L140.555,89L141.019,89L141.507,89L141.939,89L142.396,89L143.318,89L143.782,89L144.272,89L144.703,89L145.162,89L146.087,89L146.557,89L147.05,89L147.476,89L147.929,89L148.851,89L149.32,89L149.815,89L150.241,89L150.693,89L151.617,89L152.087,89L152.58,89L153.006,89L153.457,89L154.383,89L154.852,89L155.346,89L155.774,89L156.223,89L157.146,89L157.615,89L158.106,89L158.534,89L158.986,89L159.908,89L160.371,89L160.859,89L161.289,89L161.749,89L162.673,89L163.136,89L163.625,89L164.056,89L164.513,89L165.444,89L165.915,89L166.405,89L166.828,89L167.28,89L168.205,89L168.673,89L169.184,89L169.594,89L170.047,89L170.97,89L171.443,89L171.951,89L172.358,89L172.813,89L173.735,89L174.208,89L174.713,89L175.124,89L175.575,89L176.499,89L176.968,89L177.461,89L177.887,89L178.339,89L179.261,89L179.727,89L180.215,89L180.645,89L181.102,89L182.029,89L182.488,89L182.98,89L183.41,89L183.866,89L184.795,89L185.275,89L185.757,89L186.182,89L186.638,89L187.558,89L188.041,89L188.542,89L188.946,89L189.401,89L190.326,89L190.798,89L191.306,89L191.718,89L192.162,89L193.087,89L193.559,89L194.067,89L194.477,89L194.929,89L195.851,89L196.322,89L196.83,89L197.242,89L197.694,89L198.615,89L199.078,89L199.567,89L199.999,89" stroke="#ff9da6" stroke-width="2"/></g></g><path class="foreground" aria-hidden="true" d="" display="none"/></g><g transform="translate(0,0)"><path class="background" aria-hidden="true" d="M0,0h200v200h-200Z"/><g><g class="mark-line role-mark marks" role="graphics-object" aria-roledescription="line mark container"><path aria-label="Time: Aug 14, 2025; Price: 999; identifier: fastroad-sl-3-2022" role="graphics-symbol" aria-roledescription="line mark" d="M0,89L0.023,89L0.041,89L0.551,89L0.956,89L1.41,89L2.343,89L2.801,89L3.306,89L3.721,89L4.173,89L5.099,89L5.562,89L6.053,89L6.48,89L6.938,89L7.874,89L8.326,89L8.819,89L9.247,89L9.702,89L10.646,89L11.1,89L11.61,89L11.788,89L12.021,89L12.464,89L13.39,89L13.858,89L14.349,89L14.778,89L15.227,89L16.156,89L16.619,89L17.13,89L17.337,89L17.542,89L17.995,89L18.919,89L19.386,89L19.879,89L20.308,89L20.758,89L21.684,89L22.15,89L22.643,89L23.07,89L23.522,89L24.447,89L24.91,89L25.399,89L25.827,89L26.283,89L27.214,89L27.673,89L28.165,89L28.595,89L29.049,89L29.983,89L30.45,89L30.954,89L31.367,89L31.817,89L32.743,89L33.212,89L34.129,89L34.579,89L35.504,89L35.971,89L36.153,89L36.464,89L36.772,89L36.893,89L37.345,89L38.268,89L38.737,89L39.23,89L39.657,89L40.109,89L41.033,89L41.5,89L41.991,89L42.421,89L42.872,89L43.795,89L44.258,89L44.747,89L45.178,89L45.613,89L45.635,89L46.56,89L46.856,89L47.021,89L47.513,89L47.945,89L48.4,89L49.334,89L49.799,89L50.289,89L50.713,89L51.164,89L52.094,89L52.562,89L53.056,89L53.479,89L53.931,89L54.855,89L55.322,89L55.814,89L56.242,89L56.694,89L57.619,89L58.087,89L58.576,89L59.009,89L59.458,89L60.385,89L60.851,89L61.342,89L61.768,89L62.224,89L63.146,89L63.384,89L63.608,89L64.095,89L64.528,89L64.987,89L65.91,89L66.372,89L66.862,89L67.293,89L67.752,89L68.68,89L69.15,89L69.643,89L70.068,89L70.52,89L71.443,89L71.913,89L72.423,89L72.834,89L73.282,89L74.204,89L74.675,89L75.165,89L75.594,89L76.048,89L76.972,89L77.439,89L77.929,89L78.353,89L78.81,89L79.735,89L80.202,89L80.692,89L81.119,89L81.574,89L82.497,89L82.96,89L83.448,89L83.879,89L84.339,89L85.263,89L85.725,89L86.211,89L86.642,89L87.104,89L88.032,89L88.498,89L88.992,89L89.418,89L89.87,89L90.794,89L91.265,89L91.756,89L92.182,89L92.635,89L93.56,89L94.028,89L94.521,89L94.947,89L95.399,89L96.324,89L96.791,89L97.285,89L97.71,89L98.164,89L99.089,89L99.556,89L100.048,89L100.476,89L100.927,89L101.852,89L102.316,89L102.805,89L103.232,89L103.691,89L104.617,89L105.078,89L105.568,89L105.999,89L106.457,89L107.383,89L107.854,89L108.346,89L108.766,89L109.224,89L110.147,89L110.616,89L111.108,89L111.537,89L111.988,89L112.913,89L113.382,89L113.874,89L114.303,89L114.751,89L115.677,89L116.147,89L116.64,89L117.067,89L117.515,89L118.441,89L118.911,89L119.402,89L119.829,89L120.28,89L121.205,89L121.666,89L122.155,89L122.586,89L123.045,89L123.97,89L124.431,89L124.921,89L125.349,89L125.809,89L126.737,89L127.207,89L127.7,89L128.114,89L128.575,89L129.5,89L129.973,89L130.464,89L130.887,89L131.34,89L132.266,89L132.736,89L133.229,89L133.653,89L134.105,89L135.028,89L135.496,89L135.987,89L136.417,89L136.868,89L137.791,89L138.26,89L138.75,89L139.18,89L139.632,89L140.555,89L141.019,89L141.507,89L141.939,89L142.396,89L143.319,89L143.782,89L144.272,89L144.703,89L145.162,89L146.087,89L146.557,89L147.05,89L147.476,89L147.929,89L148.851,89L149.32,89L149.815,89L150.241,89L150.693,89L151.617,89L152.087,89L152.581,89L153.006,89L153.457,89L154.383,89L154.852,89L155.346,89L155.774,89L156.223,89L157.146,89L157.615,89L158.106,89L158.534,89L158.987,89L159.909,89L160.371,89L160.859,89L161.289,89L161.749,89L162.674,89L163.136,89L163.625,89L164.056,89L164.513,89L165.444,89L165.915,89L166.405,89L166.829,89L167.28,89L168.205,89L168.673,89L169.184,89L169.594,89L170.047,89L170.97,89L171.443,89L171.951,89L172.358,89L172.813,89L173.735,89L174.208,89L174.713,89L175.124,89L175.575,89L176.499,89L176.968,89L177.461,89L177.887,89L178.339,89L179.261,89L179.727,89L180.215,89L180.645,89L181.102,89L182.029,89L182.488,89L182.98,89L183.41,89L183.866,89L184.795,89L185.276,89L185.757,89L186.182,89L186.638,89L187.558,89L188.041,89L188.542,89L188.946,89L189.401,89L190.326,89L190.798,89L191.306,89L191.718,89L192.162,89L193.088,89L193.559,89L194.067,89L194.477,89L194.929,89L195.851,89L196.322,89L196.83,89L197.242,89L197.694,89L198.615,89L199.078,89L199.567,89L199.999,89" stroke="#9d755d" stroke-width="2"/></g></g><path class="foreground" aria-hidden="true" d="" display="none"/></g><g transform="translate(0,0)"><path class="background" aria-hidden="true" d="M0,0h200v200h-200Z"/><g><g class="mark-line role-mark marks" role="graphics-object" aria-roledescription="line mark container"><path aria-label="Time: Aug 14, 2025; Price: 1199; identifier: fastroad-ar-2" role="graphics-symbol" aria-roledescription="line mark" d="M0,66.778L0.023,66.778L0.041,66.778L0.551,66.778L0.956,66.778L1.411,66.778L2.343,66.778L2.801,66.778L3.306,66.778L3.721,66.778L4.173,66.778L5.099,66.778L5.562,66.778L6.053,66.778L6.48,66.778L6.94,66.778L7.874,66.778L8.326,66.778L8.819,66.778L9.247,66.778L9.702,66.778L10.646,66.778L11.1,66.778L11.61,66.778L11.788,66.778L12.021,66.778L12.464,66.778L13.39,66.778L13.858,66.778L14.349,66.778L14.778,66.778L15.228,66.778L16.156,66.778L16.619,66.778L17.13,66.778L17.337,66.778L17.542,66.778L17.995,66.778L18.919,66.778L19.386,66.778L19.879,66.778L20.308,66.778L20.759,66.778L21.684,66.778L22.15,66.778L22.643,66.778L23.07,66.778L23.522,66.778L24.447,66.778L24.91,66.778L25.399,66.778L25.827,66.778L26.284,66.778L27.215,66.778L27.673,66.778L28.165,66.778L28.595,66.778L29.049,66.778L29.983,66.778L30.45,66.778L30.954,66.778L31.367,66.778L31.817,66.778L32.743,66.778L33.212,66.778L34.129,66.778L34.579,66.778L35.504,66.778L35.971,66.778L36.153,66.778L36.464,66.778L36.772,66.778L36.893,66.778L37.345,66.778L38.268,66.778L38.737,66.778L39.23,66.778L39.657,66.778L40.109,66.778L41.033,66.778L41.5,66.778L41.991,66.778L42.421,66.778L42.872,66.778L43.795,66.778L44.258,66.778L44.747,66.778L45.178,66.778L45.613,66.778L45.635,66.778L46.561,66.778L46.856,66.778L47.021,66.778L47.513,66.778L47.945,66.778L48.4,66.778L49.334,66.778L49.799,66.778L50.289,66.778L50.713,66.778L51.164,66.778L52.094,66.778L52.562,66.778L53.056,66.778L53.479,66.778L53.931,66.778L54.855,66.778L55.322,66.778L55.814,66.778L56.242,66.778L56.695,66.778L57.619,66.778L58.087,66.778L58.576,66.778L59.009,66.778L59.458,66.778L60.385,66.778L60.851,66.778L61.342,66.778L61.768,66.778L62.224,66.778L63.147,66.778L63.384,66.778L63.608,66.778L64.095,66.778L64.528,66.778L64.987,66.778L65.91,66.778L66.372,66.778L66.862,66.778L67.293,66.778L67.752,66.778L68.68,66.778L69.15,66.778L69.643,66.778L70.068,66.778L70.52,66.778L71.443,66.778L71.913,66.778L72.423,66.778L72.834,66.778L73.282,66.778L74.204,66.778L74.675,66.778L75.165,66.778L75.594,66.778L76.048,66.778L76.972,66.778L77.439,66.778L77.929,66.778L78.353,66.778L78.81,66.778L79.735,66.778L80.202,66.778L80.692,66.778L81.119,66.778L81.574,66.778L82.498,66.778L82.96,66.778L83.449,66.778L83.879,66.778L84.339,66.778L85.263,66.778L85.725,66.778L86.211,66.778L86.643,66.778L87.104,66.778L88.032,66.778L88.498,66.778L88.993,66.778L89.419,66.778L89.871,66.778L90.795,66.778L91.265,66.778L91.756,66.778L92.182,66.778L92.635,66.778L93.56,66.778L94.028,66.778L94.521,66.778L94.947,66.778L95.4,66.778L96.324,66.778L96.792,66.778L97.285,66.778L97.71,66.778L98.165,66.778L99.089,66.778L99.556,66.778L100.048,66.778L100.476,66.778L100.927,66.778L101.852,66.778L102.316,66.778L102.805,66.778L103.232,66.778L103.691,66.778L104.617,66.778L105.078,66.778L105.568,66.778L105.999,66.778L106.457,66.778L107.383,66.778L107.854,66.778L108.346,66.778L108.766,66.778L109.224,66.778L110.147,66.778L110.616,66.778L111.108,66.778L111.537,66.778L111.988,66.778L112.913,66.778L113.382,66.778L113.874,66.778L114.303,66.778L114.751,66.778L115.677,66.778L116.148,66.778L116.64,66.778L117.067,66.778L117.515,66.778L118.441,66.778L118.911,66.778L119.402,66.778L119.829,66.778L120.28,66.778L121.205,66.778L121.666,66.778L122.155,66.778L122.586,66.778L123.045,66.778L123.97,66.778L124.431,66.778L124.921,66.778L125.349,66.778L125.809,66.778L126.737,66.778L127.207,66.778L127.7,66.778L128.114,66.778L128.575,66.778L129.5,66.778L129.973,66.778L130.464,66.778L130.888,66.778L131.34,66.778L132.266,66.778L132.736,66.778L133.229,66.778L133.653,66.778L134.105,66.778L135.028,66.778L135.496,66.778L135.987,66.778L136.417,66.778L136.868,66.778L137.791,66.778L138.26,66.778L138.75,66.778L139.18,66.778L139.632,66.778L140.555,66.778L141.019,66.778L141.507,66.778L141.939,66.778L142.396,66.778L143.319,66.778L143.782,66.778L144.272,66.778L144.703,66.778L145.162,66.778L146.087,66.778L146.557,66.778L147.05,66.778L147.476,66.778L147.929,66.778L148.851,66.778L149.32,66.778L149.815,66.778L150.241,66.778L150.693,66.778L151.617,66.778L152.088,66.778L152.581,66.778L153.006,66.778L153.458,66.778L154.383,66.778L154.852,66.778L155.346,66.778L155.775,66.778L156.223,66.778L157.146,66.778L157.615,66.778L158.106,66.778L158.534,66.778L158.987,66.778L159.909,66.778L160.371,66.778L160.86,66.778L161.289,66.778L161.749,66.778L162.674,66.778L163.136,66.778L163.625,66.778L164.056,66.778L164.513,66.778L165.444,66.778L165.915,66.778L166.405,66.778L166.829,66.778L167.28,66.778L168.205,66.778L168.674,66.778L169.184,66.778L169.594,66.778L170.047,66.778L170.971,66.778L171.443,66.778L171.951,66.778L172.358,66.778L172.813,66.778L173.735,66.778L174.208,66.778L174.713,66.778L175.125,66.778L175.575,66.778L176.499,66.778L176.968,66.778L177.461,66.778L177.887,66.778L178.339,66.778L179.261,66.778L179.727,66.778L180.215,66.778L180.645,66.778L181.102,66.778L182.029,66.778L182.488,66.778L182.98,66.778L183.41,66.778L183.866,66.778L184.795,66.778L185.276,66.778L185.757,66.778L186.182,66.778L186.638,66.778L187.558,66.778L188.041,66.778L188.542,66.778L188.946,66.778L189.401,66.778L190.326,66.778L190.798,66.778L191.306,66.778L191.718,66.778L192.162,66.778L193.088,66.778L193.559,66.778L194.068,66.778L194.477,66.778L194.929,66.778L195.851,66.778L196.322,66.778L196.83,66.778L197.242,66.778L197.694,66.778L198.615,66.778L199.078,66.778L199.567,66.778L199.999,66.778" stroke="#54a24b" stroke-width="2"/></g></g><path class="foreground" aria-hidden="true" d="" display="none"/></g><g transform="translate(0,0)"><path class="background" aria-hidden="true" d="M0,0h200v200h-200Z"/><g><g class="mark-line role-mark marks" role="graphics-object" aria-roledescription="line mark container"><path aria-label="Time: Aug 18, 2025; Price: 899; identifier: sdrbike-escape-1-city-disc" role="graphics-symbol" aria-roledescription="line mark" d="M11.789,100.111L12.021,100.111L12.464,100.111L13.39,100.111L13.858,100.111L14.349,100.111L14.778,100.111L15.228,100.111L16.156,100.111L16.619,100.111L17.13,100.111L17.337,100.111L17.542,100.111L17.996,100.111L18.919,100.111L19.386,100.111L19.879,100.111L20.308,100.111L20.759,100.111L21.684,100.111L22.15,100.111L22.643,100.111L23.07,100.111L23.522,100.111L24.447,100.111L24.91,100.111L25.399,100.111L25.827,100.111L26.284,100.111L27.215,100.111L27.673,100.111L28.165,100.111L28.595,100.111L29.049,100.111L29.983,100.111L30.45,100.111L30.954,100.111L31.367,100.111L31.817,100.111L32.743,100.111L33.213,100.111L34.129,100.111L34.579,100.111L35.504,100.111L35.972,100.111L36.153,100.111L36.464,100.111L36.772,100.111L36.893,100.111L37.345,100.111L38.269,100.111L38.737,100.111L39.23,100.111L39.657,100.111L40.109,100.111L41.033,100.111L41.5,100.111L41.991,100.111L42.421,100.111L42.872,100.111L43.795,100.111L44.258,100.111L44.747,100.111L45.179,100.111L45.613,100.111L45.635,100.111L46.561,100.111L46.856,100.111L47.022,100.111L47.513,100.111L47.945,100.111L48.4,100.111L49.334,100.111L49.799,100.111L50.289,100.111L50.713,100.111L51.164,100.111L52.094,100.111L52.562,100.111L53.056,100.111L53.479,100.111L53.931,100.111L54.855,100.111L55.322,100.111L55.814,100.111L56.242,100.111L56.695,100.111L57.619,100.111L58.088,100.111L58.576,100.111L59.009,100.111L59.459,100.111L60.385,100.111L60.852,100.111L61.343,100.111L61.768,100.111L62.224,100.111L63.147,100.111L63.384,100.111L63.608,100.111L64.096,100.111L64.528,100.111L64.987,100.111L65.91,100.111L66.372,100.111L66.862,100.111L67.293,100.111L67.752,100.111L68.68,100.111L69.15,100.111L69.643,100.111L70.068,100.111L70.52,100.111L71.443,100.111L71.913,100.111L72.423,100.111L72.834,100.111L73.282,100.111L74.204,100.111L74.675,100.111L75.165,100.111L75.594,100.111L76.048,100.111L76.972,100.111L77.439,100.111L77.929,100.111L78.354,100.111L78.81,100.111L79.735,100.111L80.203,100.111L80.692,100.111L81.119,100.111L81.574,100.111L82.498,100.111L82.96,100.111L83.449,100.111L83.879,100.111L84.339,100.111L85.263,100.111L85.725,100.111L86.211,100.111L86.643,100.111L87.104,100.111L88.032,100.111L88.498,100.111L88.993,100.111L89.419,100.111L89.871,100.111L90.795,100.111L91.265,100.111L91.756,100.111L92.182,100.111L92.636,100.111L93.56,100.111L94.028,100.111L94.521,100.111L94.947,100.111L95.4,100.111L96.324,100.111L96.792,100.111L97.285,100.111L97.71,100.111L98.165,100.111L99.089,100.111L99.556,100.111L100.049,100.111L100.476,100.111L100.927,100.111L101.852,100.111L102.316,100.111L102.805,100.111L103.232,100.111L103.691,100.111L104.617,100.111L105.078,100.111L105.569,100.111L105.999,100.111L106.457,100.111L107.383,100.111L107.854,100.111L108.346,100.111L108.766,100.111L109.224,100.111L110.147,100.111L110.616,100.111L111.108,100.111L111.537,100.111L111.988,100.111L112.913,100.111L113.382,100.111L113.874,100.111L114.303,100.111L114.751,100.111L115.678,100.111L116.148,100.111L116.641,100.111L117.067,100.111L117.515,100.111L118.441,100.111L118.911,100.111L119.402,100.111L119.829,100.111L120.28,100.111L121.205,100.111L121.666,100.111L122.155,100.111L122.586,100.111L123.045,100.111L123.97,100.111L124.431,100.111L124.921,100.111L125.349,100.111L125.809,100.111L126.737,100.111L127.208,100.111L127.7,100.111L128.114,100.111L128.575,100.111L129.5,100.111L129.973,100.111L130.464,100.111L130.888,100.111L131.34,100.111L132.267,100.111L132.736,100.111L133.229,100.111L133.653,100.111L134.105,100.111L135.028,100.111L135.496,100.111L135.987,100.111L136.417,100.111L136.868,100.111L137.791,100.111L138.26,100.111L138.75,100.111L139.181,100.111L139.632,100.111L140.555,100.111L141.019,100.111L141.507,100.111L141.939,100.111L142.397,100.111L143.319,100.111L143.782,100.111L144.272,100.111L144.703,100.111L145.162,100.111L146.087,100.111L146.557,100.111L147.05,100.111L147.477,100.111L147.929,100.111L148.851,100.111L149.32,100.111L149.815,100.111L150.241,100.111L150.693,100.111L151.617,100.111L152.088,100.111L152.581,100.111L153.006,100.111L153.458,100.111L154.383,100.111L154.852,100.111L155.346,100.111L155.775,100.111L156.223,100.111L157.146,100.111L157.615,100.111L158.106,100.111L158.534,100.111L158.987,100.111L159.909,100.111L160.371,100.111L160.86,100.111L161.289,100.111L161.749,100.111L162.674,100.111L163.136,100.111L163.625,100.111L164.056,100.111L164.513,100.111L165.444,100.111L165.915,100.111L166.405,100.111L166.829,100.111L167.28,100.111L168.205,100.111L168.674,100.111L169.184,100.111L169.594,100.111L170.047,100.111L170.971,100.111L171.443,100.111L171.952,100.111L172.358,100.111L172.813,100.111L173.735,100.111L174.208,100.111L174.713,100.111L175.125,100.111L175.576,100.111L176.499,100.111L176.968,100.111L177.461,100.111L177.887,100.111L178.339,100.111L179.261,100.111L179.727,100.111L180.215,100.111L180.645,100.111L181.102,100.111L182.029,100.111L182.488,100.111L182.98,100.111L183.41,100.111L183.866,100.111L184.795,100.111L185.276,100.111L185.757,100.111L186.182,100.111L186.638,100.111L187.558,100.111L188.041,100.111L188.542,100.111L188.946,100.111L189.401,100.111L190.326,100.111L190.798,100.111L191.306,100.111L191.718,100.111L192.162,100.111L193.088,100.111L193.56,100.111L194.068,100.111L194.477,100.111L194.93,100.111L195.851,100.111L196.322,100.111L196.831,100.111L197.242,100.111L197.695,100.111L198.615,100.111L199.078,100.111L199.567,100.111L199.999,100.111" stroke="#f58518" stroke-width="2"/></g></g><path class="foreground" aria-hidden="true" d="" display="none"/></g><g transform="translate(0,0)"><path class="background" aria-hidden="true" d="M0,0h200v200h-200Z"/><g><g class="mark-line role-mark marks" role="graphics-object" aria-roledescription="line mark container"><path aria-label="Time: Aug 20, 2025; Price: 899; identifier: roam-disc-2-2024" role="graphics-symbol" aria-roledescription="line mark" d="M17.337,100.111L17.541,100.111L17.995,100.111L18.918,100.111L19.386,100.111L19.879,100.111L20.308,100.111L20.758,100.111L21.684,100.111L22.15,100.111L22.642,100.111L23.07,100.111L23.521,100.111L24.446,100.111L24.91,100.111L25.398,100.111L25.827,100.111L26.283,100.111L27.214,100.111L27.673,100.111L28.165,100.111L28.595,100.111L29.049,100.111L29.983,100.111L30.449,100.111L30.954,100.111L31.367,100.111L31.817,100.111L32.743,100.111L33.212,100.111L34.129,100.111L34.578,100.111L35.504,100.111L35.971,100.111L36.153,100.111L36.464,100.111L36.772,100.111L36.893,100.111L37.345,100.111L38.268,100.111L38.737,100.111L39.23,100.111L39.657,100.111L40.109,100.111L41.033,100.111L41.5,100.111L41.991,100.111L42.42,100.111L42.872,100.111L43.795,100.111L44.258,100.111L44.747,100.111L45.178,100.111L45.613,100.111L45.635,100.111L46.56,100.111L46.856,100.111L47.021,100.111L47.513,100.111L47.944,100.111L48.4,100.111L49.334,100.111L49.799,100.111L50.289,100.111L50.713,100.111L51.164,100.111L52.094,100.111L52.561,100.111L53.055,100.111L53.479,100.111L53.931,100.111L54.855,100.111L55.322,100.111L55.814,100.111L56.242,100.111L56.694,100.111L57.619,100.111L58.087,100.111L58.576,100.111L59.009,100.111L59.458,100.111L60.385,100.111L60.851,100.111L61.342,100.111L61.768,100.111L62.224,100.111L63.146,100.111L63.384,100.111L63.608,100.111L64.095,100.111L64.528,100.111L64.987,100.111L65.91,100.111L66.372,100.111L66.862,100.111L67.293,100.111L67.751,100.111L68.68,100.111L69.15,100.111L69.643,100.111L70.067,100.111L70.52,100.111L71.443,100.111L71.913,100.111L72.423,100.111L72.834,100.111L73.282,100.111L74.204,100.111L74.675,100.111L75.165,100.111L75.594,100.111L76.047,100.111L76.972,100.111L77.439,100.111L77.929,100.111L78.353,100.111L78.81,100.111L79.734,100.111L80.202,100.111L80.692,100.111L81.119,100.111L81.574,100.111L82.497,100.111L82.96,100.111L83.448,100.111L83.878,100.111L84.339,100.111L85.263,100.111L85.725,100.111L86.211,100.111L86.642,100.111L87.104,100.111L88.032,100.111L88.498,100.111L88.992,100.111L89.418,100.111L89.87,100.111L90.794,100.111L91.265,100.111L91.756,100.111L92.182,100.111L92.635,100.111L93.56,100.111L94.027,100.111L94.521,100.111L94.947,100.111L95.399,100.111L96.324,100.111L96.791,100.111L97.285,100.111L97.71,100.111L98.164,100.111L99.089,100.111L99.556,100.111L100.048,100.111L100.476,100.111L100.927,100.111L101.851,100.111L102.316,100.111L102.804,100.111L103.232,100.111L103.691,100.111L104.617,100.111L105.078,100.111L105.568,100.111L105.999,100.111L106.457,100.111L107.383,100.111L107.854,100.111L108.346,100.111L108.766,100.111L109.224,100.111L110.147,100.111L110.616,100.111L111.108,100.111L111.536,100.111L111.988,100.111L112.912,100.111L113.382,100.111L113.873,100.111L114.303,100.111L114.751,100.111L115.677,100.111L116.147,100.111L116.64,100.111L117.067,100.111L117.515,100.111L118.441,100.111L118.91,100.111L119.402,100.111L119.829,100.111L120.28,100.111L121.205,100.111L121.666,100.111L122.155,100.111L122.586,100.111L123.045,100.111L123.969,100.111L124.431,100.111L124.921,100.111L125.349,100.111L125.809,100.111L126.737,100.111L127.207,100.111L127.7,100.111L128.113,100.111L128.575,100.111L129.5,100.111L129.973,100.111L130.464,100.111L130.887,100.111L131.34,100.111L132.266,100.111L132.735,100.111L133.229,100.111L133.653,100.111L134.105,100.111L135.028,100.111L135.495,100.111L135.986,100.111L136.417,100.111L136.868,100.111L137.791,100.111L138.26,100.111L138.75,100.111L139.18,100.111L139.632,100.111L140.555,100.111L141.019,100.111L141.507,100.111L141.939,100.111L142.396,100.111L143.318,100.111L143.782,100.111L144.272,100.111L144.703,100.111L145.161,100.111L146.087,100.111L146.557,100.111L147.05,100.111L147.476,100.111L147.929,100.111L148.851,100.111L149.32,100.111L149.815,100.111L150.241,100.111L150.693,100.111L151.617,100.111L152.087,100.111L152.58,100.111L153.005,100.111L153.457,100.111L154.383,100.111L154.852,100.111L155.346,100.111L155.774,100.111L156.223,100.111L157.146,100.111L157.615,100.111L158.106,100.111L158.534,100.111L158.986,100.111L159.908,100.111L160.371,100.111L160.859,100.111L161.289,100.111L161.749,100.111L162.673,100.111L163.135,100.111L163.625,100.111L164.056,100.111L164.513,100.111L165.444,100.111L165.914,100.111L166.405,100.111L166.827,100.111L167.28,100.111L168.205,100.111L168.673,100.111L169.184,100.111L169.594,100.111L170.047,100.111L170.97,100.111L171.443,100.111L171.951,100.111L172.357,100.111L172.812,100.111L173.734,100.111L174.207,100.111L174.713,100.111L175.124,100.111L175.575,100.111L176.499,100.111L176.968,100.111L177.461,100.111L177.887,100.111L178.339,100.111L179.261,100.111L179.727,100.111L180.214,100.111L180.645,100.111L181.102,100.111L182.029,100.111L182.488,100.111L182.98,100.111L183.41,100.111L183.866,100.111L184.795,100.111L185.275,100.111L185.757,100.111L186.182,100.111L186.638,100.111L187.558,100.111L188.041,100.111L188.542,100.111L188.946,100.111L189.401,100.111L190.326,100.111L190.798,100.111L191.306,100.111L191.718,100.111L192.162,100.111L193.087,100.111L193.559,100.111L194.067,100.111L194.477,100.111L194.929,100.111L195.851,100.111L196.322,100.111L196.83,100.111L197.242,100.111L197.694,100.111L198.615,100.111L199.078,100.111L199.567,100.111L199.999,100.111" stroke="#e45756" stroke-width="2"/></g></g><path class="foreground" aria-hidden="true" d="" display="none"/></g><g transform="translate(0,0)"><path class="background" aria-hidden="true" d="M0,0h200v200h-200Z"/><g><g class="mark-line role-mark marks" role="graphics-object" aria-roledescription="line mark container"><path aria-label="Time: Aug 20, 2025; Price: 1199; identifier: thrive-2" role="graphics-symbol" aria-roledescription="line mark" d="M17.337,66.778L17.542,66.778L17.996,66.778L18.919,66.778L19.386,66.778L19.879,66.778L20.308,66.778L20.759,66.778L21.684,66.778L22.15,66.778L22.643,66.778L23.07,66.778L23.522,66.778L24.447,66.778L24.91,66.778L25.399,66.778L25.827,66.778L26.284,66.778L27.215,66.778L27.673,66.778L28.165,66.778L28.595,66.778L29.049,66.778L29.983,66.778L30.45,66.778L30.954,66.778L31.367,66.778L31.817,66.778L32.744,66.778L33.213,66.778L34.129,66.778L34.579,66.778L35.505,66.778L35.972,66.778L36.153,66.778L36.464,66.778L36.772,66.778L36.893,66.778L37.345,66.778L38.269,66.778L38.737,66.778L39.23,66.778L39.657,66.778L40.109,66.778L41.033,66.778L41.5,66.778L41.991,66.778L42.421,66.778L42.872,66.778L43.795,66.778L44.258,66.778L44.747,66.778L45.179,66.778L45.613,66.778L45.635,66.778L46.561,66.778L46.856,66.778L47.022,66.778L47.513,66.778L47.945,66.778L48.4,66.778L49.334,66.778L49.799,66.778L50.289,66.778L50.713,66.778L51.165,66.778L52.094,66.778L52.562,66.778L53.056,66.778L53.479,66.778L53.931,66.778L54.855,66.778L55.322,66.778L55.814,66.778L56.243,66.778L56.695,66.778L57.619,66.778L58.088,66.778L58.576,66.778L59.009,66.778L59.459,66.778L60.385,66.778L60.852,66.778L61.343,66.778L61.768,66.778L62.224,66.778L63.147,66.778L63.384,66.778L63.608,66.778L64.096,66.778L64.528,66.778L64.987,66.778L65.91,66.778L66.372,66.778L66.862,66.778L67.293,66.778L67.752,66.778L68.68,66.778L69.15,66.778L69.643,66.778L70.068,66.778L70.521,66.778L71.443,66.778L71.914,66.778L72.423,66.778L72.834,66.778L73.282,66.778L74.204,66.778L74.675,66.778L75.166,66.778L75.594,66.778L76.048,66.778L76.972,66.778L77.439,66.778L77.929,66.778L78.354,66.778L78.81,66.778L79.735,66.778L80.203,66.778L80.692,66.778L81.119,66.778L81.575,66.778L82.498,66.778L82.961,66.778L83.449,66.778L83.879,66.778L84.339,66.778L85.263,66.778L85.725,66.778L86.211,66.778L86.643,66.778L87.104,66.778L88.032,66.778L88.498,66.778L88.993,66.778L89.419,66.778L89.871,66.778L90.795,66.778L91.266,66.778L91.757,66.778L92.182,66.778L92.636,66.778L93.56,66.778L94.028,66.778L94.521,66.778L94.947,66.778L95.4,66.778L96.325,66.778L96.792,66.778L97.285,66.778L97.71,66.778L98.165,66.778L99.089,66.778L99.556,66.778L100.049,66.778L100.476,66.778L100.927,66.778L101.852,66.778L102.316,66.778L102.805,66.778L103.232,66.778L103.691,66.778L104.617,66.778L105.078,66.778L105.569,66.778L105.999,66.778L106.457,66.778L107.384,66.778L107.854,66.778L108.346,66.778L108.766,66.778L109.224,66.778L110.147,66.778L110.617,66.778L111.108,66.778L111.537,66.778L111.989,66.778L112.913,66.778L113.382,66.778L113.874,66.778L114.303,66.778L114.751,66.778L115.678,66.778L116.148,66.778L116.641,66.778L117.067,66.778L117.515,66.778L118.441,66.778L118.911,66.778L119.402,66.778L119.829,66.778L120.28,66.778L121.205,66.778L121.666,66.778L122.155,66.778L122.586,66.778L123.045,66.778L123.97,66.778L124.431,66.778L124.921,66.778L125.349,66.778L125.809,66.778L126.737,66.778L127.208,66.778L127.7,66.778L128.114,66.778L128.575,66.778L129.5,66.778L129.973,66.778L130.464,66.778L130.888,66.778L131.34,66.778L132.267,66.778L132.736,66.778L133.229,66.778L133.653,66.778L134.105,66.778L135.028,66.778L135.496,66.778L135.987,66.778L136.417,66.778L136.868,66.778L137.791,66.778L138.26,66.778L138.75,66.778L139.181,66.778L139.632,66.778L140.555,66.778L141.019,66.778L141.507,66.778L141.939,66.778L142.397,66.778L143.319,66.778L143.782,66.778L144.273,66.778L144.703,66.778L145.162,66.778L146.087,66.778L146.557,66.778L147.05,66.778L147.477,66.778L147.929,66.778L148.852,66.778L149.321,66.778L149.815,66.778L150.241,66.778L150.693,66.778L151.617,66.778L152.088,66.778L152.581,66.778L153.006,66.778L153.458,66.778L154.383,66.778L154.853,66.778L155.346,66.778L155.775,66.778L156.223,66.778L157.146,66.778L157.615,66.778L158.107,66.778L158.534,66.778L158.987,66.778L159.909,66.778L160.371,66.778L160.86,66.778L161.289,66.778L161.749,66.778L162.674,66.778L163.136,66.778L163.625,66.778L164.056,66.778L164.513,66.778L165.444,66.778L165.915,66.778L166.405,66.778L166.83,66.778L167.28,66.778L168.205,66.778L168.674,66.778L169.184,66.778L169.594,66.778L170.047,66.778L170.971,66.778L171.444,66.778L171.952,66.778L172.358,66.778L172.813,66.778L173.735,66.778L174.208,66.778L174.713,66.778L175.125,66.778L175.576,66.778L176.499,66.778L176.968,66.778L177.461,66.778L177.887,66.778L178.339,66.778L179.261,66.778L179.727,66.778L180.215,66.778L180.645,66.778L181.102,66.778L182.029,66.778L182.488,66.778L182.98,66.778L183.41,66.778L183.866,66.778L184.795,66.778L185.276,66.778L185.757,66.778L186.182,66.778L186.638,66.778L187.558,66.778L188.041,66.778L188.542,66.778L188.946,66.778L189.401,66.778L190.326,66.778L190.798,66.778L191.306,66.778L191.718,66.778L192.162,66.778L193.088,66.778L193.56,66.778L194.068,66.778L194.477,66.778L194.93,66.778L195.851,66.778L196.322,66.778L196.831,66.778L197.242,66.778L197.695,66.778L198.615,66.778L199.078,66.778L199.567,66.778L199.999,66.778" stroke="#eeca3b" stroke-width="2"/></g></g><path class="foreground" aria-hidden="true" d="" display="none"/></g><g transform="translate(0,0)"><path class="background" aria-hidden="true" d="M0,0h200v200h-200Z"/><g><g class="mark-line role-mark marks" role="graphics-object" aria-roledescription="line mark container"><path aria-label="Time: Aug 20, 2025; Price: 999; identifier: rove-2" role="graphics-symbol" aria-roledescription="line mark" d="M17.337,89L17.542,89L17.996,89L18.919,89L19.386,89L19.879,89L20.308,89L20.759,89L21.684,89L22.15,89L22.643,89L23.07,89L23.522,89L24.447,89L24.91,89L25.399,89L25.827,89L26.284,89L27.215,89L27.673,89L28.165,89L28.595,89L29.049,89L29.983,89L30.45,89L30.954,89L31.367,89L31.817,89L32.744,89L33.213,89L34.129,89L34.579,89L35.505,89L35.972,89L36.153,89L36.464,89L36.772,89L36.893,89L37.345,89L38.269,89L38.738,89L39.23,89L39.657,89L40.109,89L41.033,89L41.5,89L41.991,89L42.421,89L42.872,89L45.613,111.222L45.635,111.222L46.561,111.222L46.856,111.222L47.022,111.222L47.513,111.222L47.945,111.222L48.401,111.222L49.334,111.222L49.799,111.222L50.29,111.222L50.713,111.222L51.165,111.222L52.094,111.222L52.562,111.222L53.056,111.222L53.479,111.222L53.931,111.222L54.855,111.222L55.322,111.222L55.814,111.222L56.243,111.222L56.695,111.222L57.619,111.222L58.088,111.222L58.577,111.222L59.009,111.222L59.459,111.222L60.385,111.222L60.852,111.222L61.343,111.222L61.769,111.222L62.224,111.222L63.147,111.222L63.384,111.222L63.608,111.222L64.096,111.222L64.529,111.222L64.987,111.222L65.91,111.222L66.372,111.222L66.862,111.222L67.293,111.222L67.752,111.222L68.68,111.222L69.15,111.222L69.643,111.222L70.068,111.222L70.521,111.222L71.443,111.222L71.914,111.222L72.423,111.222L72.834,111.222L73.282,111.222L74.204,111.222L74.675,111.222L75.166,111.222L75.594,111.222L76.048,111.222L76.972,111.222L77.439,111.222L77.929,111.222L78.354,111.222L78.81,111.222L79.735,111.222L80.203,111.222L80.692,111.222L81.12,111.222L81.575,111.222L82.498,111.222L82.961,111.222L83.449,111.222L83.879,111.222L84.34,111.222L85.263,111.222L85.725,111.222L86.211,111.222L86.643,111.222L87.104,111.222L88.033,111.222L88.499,111.222L88.993,111.222L89.419,111.222L89.871,111.222L90.795,111.222L91.266,111.222L91.757,111.222L92.182,111.222L92.636,111.222L93.56,111.222L94.028,111.222L94.521,111.222L94.947,111.222L95.4,111.222L96.325,111.222L96.792,111.222L97.285,111.222L97.71,111.222L98.165,111.222L99.089,111.222L99.556,111.222L100.049,111.222L100.476,111.222L100.928,111.222L101.852,111.222L102.316,111.222L102.805,111.222L103.233,111.222L103.691,111.222L104.617,111.222L105.078,111.222L105.569,111.222L106,111.222L106.457,111.222L107.384,111.222L107.854,111.222L108.346,111.222L108.766,111.222L109.224,111.222L110.147,111.222L110.617,111.222L111.109,111.222L111.537,111.222L111.989,111.222L112.913,111.222L113.382,111.222L113.874,111.222L114.304,111.222L114.751,111.222L115.678,111.222L116.148,111.222L116.641,111.222L117.067,111.222L117.515,111.222L118.441,111.222L118.911,111.222L119.402,111.222L119.829,111.222L120.28,111.222L121.205,111.222L121.666,111.222L122.156,111.222L122.587,111.222L123.045,111.222L123.97,111.222L124.431,111.222L124.921,111.222L125.349,111.222L125.809,111.222L126.737,111.222L127.208,111.222L127.7,111.222L128.114,111.222L128.575,111.222L129.501,111.222L129.974,111.222L130.464,111.222L130.888,111.222L131.34,111.222L132.267,111.222L132.736,111.222L133.229,111.222L133.654,111.222L134.105,111.222L135.028,111.222L135.496,111.222L135.987,111.222L136.418,111.222L136.868,111.222L137.792,111.222L138.26,111.222L138.75,111.222L139.181,111.222L139.632,111.222L140.555,111.222L141.019,111.222L141.507,111.222L141.939,111.222L142.397,111.222L143.319,111.222L143.782,111.222L144.273,111.222L144.704,111.222L145.162,111.222L146.087,111.222L146.557,111.222L147.05,111.222L147.477,111.222L147.929,111.222L148.852,111.222L149.321,111.222L149.815,111.222L150.241,111.222L150.693,111.222L151.617,111.222L152.088,111.222L152.581,111.222L153.006,111.222L153.458,111.222L154.383,111.222L154.853,111.222L155.346,111.222L155.775,111.222L156.223,111.222L157.147,111.222L157.615,111.222L158.107,111.222L158.534,111.222L158.987,111.222L159.909,111.222L160.371,111.222L160.86,111.222L161.289,111.222L161.749,111.222L162.674,111.222L163.136,111.222L163.625,111.222L164.057,111.222L164.514,111.222L165.444,111.222L165.915,111.222L166.405,111.222L166.83,111.222L167.28,111.222L168.205,111.222L168.674,111.222L169.184,111.222L169.594,111.222L170.047,111.222L170.971,111.222L171.444,111.222L171.952,111.222L172.358,111.222L172.813,111.222L173.735,111.222L174.208,111.222L174.714,111.222L175.125,111.222L175.576,111.222L176.499,111.222L176.969,111.222L177.461,111.222L177.887,111.222L178.339,111.222L179.261,111.222L179.727,111.222L180.215,111.222L180.645,111.222L181.102,111.222L182.029,111.222L182.488,111.222L182.98,111.222L183.41,111.222L183.867,111.222L184.795,111.222L185.276,111.222L185.757,111.222L186.182,111.222L186.638,111.222L187.558,111.222L188.041,111.222L188.542,111.222L188.946,111.222L189.401,111.222L190.326,111.222L190.798,111.222L191.306,111.222L191.718,111.222L192.162,111.222L193.088,111.222L193.56,111.222L194.068,111.222L194.477,111.222L194.93,111.222L195.851,111.222L196.322,111.222L196.831,111.222L197.242,111.222L197.695,111.222L198.615,111.222L199.078,111.222L199.567,111.222L199.999,111.222" stroke="#72b7b2" stroke-width="2"/></g></g><path class="foreground" aria-hidden="true" d="" display="none"/></g><g transform="translate(0,0)"><path class="background" aria-hidden="true" d="M0,0h200v200h-200Z"/><g><g class="mark-line role-mark marks" role="graphics-object" aria-roledescription="line mark container"><path aria-label="Time: Aug 27, 2025; Price: 1199; identifier: allure-rs-1-2023" role="graphics-symbol" aria-roledescription="line mark" d="M36.154,66.778L36.464,66.778L36.772,66.778L36.893,66.778L37.346,66.778L38.269,66.778L38.738,66.778L39.23,66.778L39.657,66.778L40.109,66.778L41.034,66.778L41.5,66.778L41.991,66.778L42.421,66.778L42.872,66.778L43.795,66.778L44.258,66.778L44.748,66.778L45.179,66.778L45.614,66.778L45.635,66.778L46.561,66.778L46.856,66.778L47.022,66.778L47.513,66.778L47.945,66.778L48.401,66.778L49.334,66.778L49.799,66.778L50.29,66.778L50.713,66.778L51.165,66.778L52.095,66.778L52.562,66.778L53.056,66.778L53.479,66.778L53.931,66.778L54.855,66.778L55.322,66.778L55.814,66.778L56.243,66.778L56.695,66.778L57.619,66.778L58.088,66.778L58.577,66.778L59.009,66.778L59.459,66.778L60.385,66.778L60.852,66.778L61.343,66.778L61.769,66.778L62.224,66.778L63.147,66.778L63.384,66.778L63.608,66.778L64.096,66.778L64.529,66.778L64.987,66.778L65.911,66.778L66.372,66.778L66.862,66.778L67.293,66.778L67.752,66.778L68.68,66.778L69.15,66.778L69.643,66.778L70.068,66.778L70.521,66.778L71.443,66.778L71.914,66.778L72.423,66.778L72.834,66.778L73.282,66.778L74.204,66.778L74.676,66.778L75.166,66.778L75.595,66.778L76.048,66.778L76.972,66.778L77.439,66.778L77.929,66.778L78.354,66.778L78.81,66.778L79.735,66.778L80.203,66.778L80.692,66.778L81.12,66.778L81.575,66.778L82.498,66.778L82.961,66.778L83.449,66.778L83.879,66.778L84.34,66.778L85.263,66.778L85.725,66.778L86.211,66.778L86.643,66.778L87.104,66.778L88.033,66.778L88.499,66.778L88.993,66.778L89.419,66.778L89.871,66.778L90.795,66.778L91.266,66.778L91.757,66.778L92.182,66.778L92.636,66.778L93.56,66.778L94.028,66.778L94.521,66.778L94.947,66.778L95.4,66.778L96.325,66.778L96.792,66.778L97.285,66.778L97.71,66.778L98.165,66.778L99.089,66.778L99.556,66.778L100.049,66.778L100.476,66.778L100.928,66.778L101.852,66.778L102.316,66.778L102.805,66.778L103.233,66.778L103.691,66.778L104.618,66.778L105.078,66.778L105.569,66.778L106,66.778L106.457,66.778L107.384,66.778L107.854,66.778L108.346,66.778L108.766,66.778L109.224,66.778L110.147,66.778L110.617,66.778L111.109,66.778L111.537,66.778L111.989,66.778L112.913,66.778L113.382,66.778L113.874,66.778L114.304,66.778L114.751,66.778L115.678,66.778L116.148,66.778L116.641,66.778L117.067,66.778L117.515,66.778L118.441,66.778L118.911,66.778L119.402,66.778L119.829,66.778L120.28,66.778L121.205,66.778L121.666,66.778L122.156,66.778L122.587,66.778L123.045,66.778L123.97,66.778L124.431,66.778L124.921,66.778L125.349,66.778L125.809,66.778L126.737,66.778L127.208,66.778L127.7,66.778L128.114,66.778L128.575,66.778L129.501,66.778L129.974,66.778L130.464,66.778L130.888,66.778L131.34,66.778L132.267,66.778L132.736,66.778L133.229,66.778L133.654,66.778L134.105,66.778L135.028,66.778L135.496,66.778L135.987,66.778L136.418,66.778L136.868,66.778L137.792,66.778L138.26,66.778L138.75,66.778L139.181,66.778L139.632,66.778L140.556,66.778L141.019,66.778L141.507,66.778L141.939,66.778L142.397,66.778L143.319,66.778L143.782,66.778L144.273,66.778L144.704,66.778L145.162,66.778L146.087,66.778L146.557,66.778L147.05,66.778L147.477,66.778L147.929,66.778L148.852,66.778L149.321,66.778L149.815,66.778L150.241,66.778L150.693,66.778L151.618,66.778L152.088,66.778L152.581,66.778L153.006,66.778L153.458,66.778L154.383,66.778L154.853,66.778L155.346,66.778L155.775,66.778L156.223,66.778L157.147,66.778L157.615,66.778L158.107,66.778L158.534,66.778L158.987,66.778L159.909,66.778L160.371,66.778L160.86,66.778L161.289,66.778L161.749,66.778L162.674,66.778L163.136,66.778L163.625,66.778L164.057,66.778L164.514,66.778L165.444,66.778L165.915,66.778L166.405,66.778L166.83,66.778L167.28,66.778L168.205,66.778L168.674,66.778L169.184,66.778L169.594,66.778L170.047,66.778L170.971,66.778L171.444,66.778L171.952,66.778L172.358,66.778L172.813,66.778L173.735,66.778L174.208,66.778L174.714,66.778L175.125,66.778L175.576,66.778L176.5,66.778L176.969,66.778L177.461,66.778L177.887,66.778L178.339,66.778L179.261,66.778L179.727,66.778L180.215,66.778L180.645,66.778L181.102,66.778L182.029,66.778L182.488,66.778L182.98,66.778L183.41,66.778L183.867,66.778L184.795,66.778L185.276,66.778L185.757,66.778L186.183,66.778L186.638,66.778L187.558,66.778L188.041,66.778L188.542,66.778L188.946,66.778L189.401,66.778L190.326,66.778L190.798,66.778L191.306,66.778L191.718,66.778L192.162,66.778L193.088,66.778L193.56,66.778L194.068,66.778L194.477,66.778L194.93,66.778L195.852,66.778L196.323,66.778L196.831,66.778L197.242,66.778L197.695,66.778L198.615,66.778L199.078,66.778L199.567,66.778L199.999,66.778" stroke="#b279a2" stroke-width="2"/></g></g><path class="foreground" aria-hidden="true" d="" display="none"/></g><g transform="translate(0,0)"><path class="background" aria-hidden="true" d="M0,0h200v200h-200Z"/><g><g class="mark-line role-mark marks" role="graphics-object" aria-roledescription="line mark container"><path aria-label="Time: Aug 27, 2025; Price: 999; identifier: allure-rs-2-2022" role="graphics-symbol" aria-roledescription="line mark" d="M36.154,89L36.464,89L36.772,89L36.893,89L37.346,89L38.269,89L38.738,89L39.23,89L39.657,89L40.109,89L41.034,89L41.5,89L41.991,89L42.421,89L42.872,89L45.614,111.222L45.635,111.222L46.561,111.222L46.856,111.222L47.022,111.222L47.513,111.222L47.945,111.222L48.401,111.222L49.334,111.222L49.799,111.222L50.29,111.222L50.713,111.222L51.165,111.222L52.095,111.222L52.562,111.222L53.056,111.222L53.479,111.222L53.931,111.222L54.856,111.222L55.322,111.222L55.815,111.222L56.243,111.222L56.695,111.222L57.62,111.222L58.088,111.222L58.577,111.222L59.009,111.222L59.459,111.222L60.385,111.222L60.852,111.222L61.343,111.222L61.769,111.222L62.224,111.222L63.147,111.222L63.384,111.222L63.608,111.222L64.096,111.222L64.529,111.222L64.987,111.222L65.911,111.222L66.373,111.222L66.862,111.222L67.294,111.222L67.752,111.222L68.68,111.222L69.15,111.222L69.643,111.222L70.068,111.222L70.521,111.222L71.444,111.222L71.914,111.222L72.423,111.222L72.834,111.222L73.282,111.222L74.204,111.222L74.676,111.222L75.166,111.222L75.595,111.222L76.048,111.222L76.973,111.222L77.439,111.222L77.929,111.222L78.354,111.222L78.81,111.222L79.735,111.222L80.203,111.222L80.693,111.222L81.12,111.222L81.575,111.222L82.498,111.222L82.961,111.222L83.449,111.222L83.879,111.222L84.34,111.222L85.264,111.222L85.725,111.222L86.212,111.222L86.643,111.222L87.104,111.222L88.033,111.222L88.499,111.222L88.993,111.222L89.419,111.222L89.871,111.222L90.795,111.222L91.266,111.222L91.757,111.222L92.182,111.222L92.636,111.222L93.561,111.222L94.028,111.222L94.521,111.222L94.947,111.222L95.4,111.222L96.325,111.222L96.792,111.222L97.285,111.222L97.71,111.222L98.165,111.222L99.089,111.222L99.556,111.222L100.049,111.222L100.477,111.222L100.928,111.222L101.852,111.222L102.316,111.222L102.805,111.222L103.233,111.222L103.692,111.222L104.618,111.222L105.078,111.222L105.569,111.222L106,111.222L106.457,111.222L107.384,111.222L107.854,111.222L108.346,111.222L108.766,111.222L109.224,111.222L110.148,111.222L110.617,111.222L111.109,111.222L111.537,111.222L111.989,111.222L112.913,111.222L113.382,111.222L113.874,111.222L114.304,111.222L114.751,111.222L115.678,111.222L116.148,111.222L116.641,111.222L117.067,111.222L117.515,111.222L118.441,111.222L118.911,111.222L119.402,111.222L119.829,111.222L120.28,111.222L121.205,111.222L121.666,111.222L122.156,111.222L122.587,111.222L123.045,111.222L123.97,111.222L124.431,111.222L124.921,111.222L125.349,111.222L125.809,111.222L126.737,111.222L127.208,111.222L127.7,111.222L128.114,111.222L128.575,111.222L129.501,111.222L129.974,111.222L130.464,111.222L130.888,111.222L131.34,111.222L132.267,111.222L132.736,111.222L133.23,111.222L133.654,111.222L134.105,111.222L135.028,111.222L135.496,111.222L135.987,111.222L136.418,111.222L136.868,111.222L137.792,111.222L138.261,111.222L138.75,111.222L139.181,111.222L139.632,111.222L140.556,111.222L141.019,111.222L141.507,111.222L141.939,111.222L142.397,111.222L143.319,111.222L143.782,111.222L144.273,111.222L144.704,111.222L145.162,111.222L146.087,111.222L146.557,111.222L147.05,111.222L147.477,111.222L147.929,111.222L148.852,111.222L149.321,111.222L149.815,111.222L150.241,111.222L150.693,111.222L151.618,111.222L152.088,111.222L152.581,111.222L153.006,111.222L153.458,111.222L154.383,111.222L154.853,111.222L155.346,111.222L155.775,111.222L156.223,111.222L157.147,111.222L157.615,111.222L158.107,111.222L158.534,111.222L158.987,111.222L159.909,111.222L160.371,111.222L160.86,111.222L161.289,111.222L161.749,111.222L162.674,111.222L163.136,111.222L163.625,111.222L164.057,111.222L164.514,111.222L165.444,111.222L165.915,111.222L166.405,111.222L166.83,111.222L167.28,111.222L168.205,111.222L168.674,111.222L169.184,111.222L169.595,111.222L170.047,111.222L170.971,111.222L171.444,111.222L171.952,111.222L172.358,111.222L172.813,111.222L173.735,111.222L174.208,111.222L174.714,111.222L175.125,111.222L175.576,111.222L176.5,111.222L176.969,111.222L177.461,111.222L177.887,111.222L178.339,111.222L179.262,111.222L179.727,111.222L180.215,111.222L180.645,111.222L181.102,111.222L182.029,111.222L182.488,111.222L182.98,111.222L183.41,111.222L183.867,111.222L184.795,111.222L185.276,111.222L185.757,111.222L186.183,111.222L186.639,111.222L187.558,111.222L188.041,111.222L188.542,111.222L188.946,111.222L189.401,111.222L190.326,111.222L190.798,111.222L191.306,111.222L191.718,111.222L192.162,111.222L193.088,111.222L193.56,111.222L194.068,111.222L194.478,111.222L194.93,111.222L195.852,111.222L196.323,111.222L196.831,111.222L197.242,111.222L197.695,111.222L198.615,111.222L199.078,111.222L199.567,111.222L199.999,111.222" stroke="#54a24b" stroke-width="2"/></g></g><path class="foreground" aria-hidden="true" d="" display="none"/></g><g transform="translate(0,0)"><path class="background" aria-hidden="true" d="M0,0h200v200h-200Z"/><g><g class="mark-line role-mark marks" role="graphics-object" aria-roledescription="line mark container"><path aria-label="Time: Aug 27, 2025; Price: 949; identifier: allure-rs-2-2023" role="graphics-symbol" aria-roledescription="line mark" d="M36.154,94.556L36.464,94.556L36.773,94.556L36.893,94.556L37.346,94.556L38.269,94.556L38.738,94.556L39.23,94.556L39.657,94.556L40.109,94.556L41.034,94.556L41.5,94.556L41.991,94.556L42.421,94.556L42.872,94.556L43.795,94.556L44.258,94.556L44.748,94.556L45.179,94.556L45.614,94.556L45.635,94.556L46.561,94.556L46.856,94.556L47.022,94.556L47.514,94.556L47.945,94.556L48.401,94.556L49.334,94.556L49.799,94.556L50.29,94.556L50.713,94.556L51.165,94.556L52.095,94.556L52.562,94.556L53.056,94.556L53.479,94.556L53.931,94.556L54.856,94.556L55.322,94.556L55.815,94.556L56.243,94.556L56.695,94.556L57.62,94.556L58.088,94.556L58.577,94.556L59.009,94.556L59.459,94.556L60.385,94.556L60.852,94.556L61.343,94.556L61.769,94.556L62.224,94.556L63.147,94.556L63.384,94.556L63.608,94.556L64.096,94.556L64.529,94.556L64.987,94.556L65.911,94.556L66.373,94.556L66.862,94.556L67.294,94.556L67.752,94.556L68.68,94.556L69.15,94.556L69.643,94.556L70.068,94.556L70.521,94.556L71.444,94.556L71.914,94.556L72.424,94.556L72.834,94.556L73.282,94.556L74.204,94.556L74.676,94.556L75.166,94.556L75.595,94.556L76.048,94.556L76.973,94.556L77.439,94.556L77.929,94.556L78.354,94.556L78.81,94.556L79.735,94.556L80.203,94.556L80.693,94.556L81.12,94.556L81.575,94.556L82.498,94.556L82.961,94.556L83.449,94.556L83.879,94.556L84.34,94.556L85.264,94.556L85.726,94.556L86.212,94.556L86.643,94.556L87.104,94.556L88.033,94.556L88.499,94.556L88.993,94.556L89.419,94.556L89.871,94.556L90.795,94.556L91.266,94.556L91.757,94.556L92.182,94.556L92.636,94.556L93.561,94.556L94.028,94.556L94.522,94.556L94.948,94.556L95.4,94.556L96.325,94.556L96.792,94.556L97.285,94.556L97.71,94.556L98.165,94.556L99.09,94.556L99.557,94.556L100.049,94.556L100.477,94.556L100.928,94.556L101.852,94.556L102.316,94.556L102.805,94.556L103.233,94.556L103.692,94.556L104.618,94.556L105.078,94.556L105.569,94.556L106,94.556L106.457,94.556L107.384,94.556L107.854,94.556L108.346,94.556L108.766,94.556L109.224,94.556L110.148,94.556L110.617,94.556L111.109,94.556L111.537,94.556L111.989,94.556L112.913,94.556L113.382,94.556L113.874,94.556L114.304,94.556L114.751,94.556L115.678,94.556L116.148,94.556L116.641,94.556L117.068,94.556L117.516,94.556L118.441,94.556L118.911,94.556L119.402,94.556L119.829,94.556L120.281,94.556L121.205,94.556L121.666,94.556L122.156,94.556L122.587,94.556L123.045,94.556L123.97,94.556L124.431,94.556L124.921,94.556L125.349,94.556L125.809,94.556L126.737,94.556L127.208,94.556L127.7,94.556L128.114,94.556L128.576,94.556L129.501,94.556L129.974,94.556L130.464,94.556L130.888,94.556L131.34,94.556L132.267,94.556L132.736,94.556L133.23,94.556L133.654,94.556L134.105,94.556L135.028,94.556L135.496,94.556L135.987,94.556L136.418,94.556L136.868,94.556L137.792,94.556L138.261,94.556L138.75,94.556L139.181,94.556L139.632,94.556L140.556,94.556L141.019,94.556L141.507,94.556L141.939,94.556L142.397,94.556L143.319,94.556L143.782,94.556L144.273,94.556L144.704,94.556L145.162,94.556L146.087,94.556L146.557,94.556L147.05,94.556L147.477,94.556L147.929,94.556L148.852,94.556L149.321,94.556L149.815,94.556L150.241,94.556L150.693,94.556L151.618,94.556L152.088,94.556L152.581,94.556L153.006,94.556L153.458,94.556L154.384,94.556L154.853,94.556L155.346,94.556L155.775,94.556L156.223,94.556L157.147,94.556L157.615,94.556L158.107,94.556L158.534,94.556L158.987,94.556L159.909,94.556L160.372,94.556L160.86,94.556L161.29,94.556L161.749,94.556L162.674,94.556L163.136,94.556L163.625,94.556L164.057,94.556L164.514,94.556L165.444,94.556L165.915,94.556L166.405,94.556L166.83,94.556L167.28,94.556L168.205,94.556L168.674,94.556L169.184,94.556L169.595,94.556L170.047,94.556L170.971,94.556L171.444,94.556L171.952,94.556L172.358,94.556L172.813,94.556L173.735,94.556L174.208,94.556L174.714,94.556L175.125,94.556L175.576,94.556L176.5,94.556L176.969,94.556L177.461,94.556L177.888,94.556L178.339,94.556L179.262,94.556L179.727,94.556L180.215,94.556L180.645,94.556L181.102,94.556L182.03,94.556L182.488,94.556L182.98,94.556L183.41,94.556L183.867,94.556L184.795,94.556L185.276,94.556L185.757,94.556L186.183,94.556L186.639,94.556L187.558,94.556L188.042,94.556L188.542,94.556L188.946,94.556L189.401,94.556L190.326,94.556L190.798,94.556L191.306,94.556L191.718,94.556L192.162,94.556L193.088,94.556L193.56,94.556L194.068,94.556L194.478,94.556L194.93,94.556L195.852,94.556L196.323,94.556L196.831,94.556L197.242,94.556L197.695,94.556L198.615,94.556L199.078,94.556L199.567,94.556L200,94.556" stroke="#bab0ac" stroke-width="2"/></g></g><path class="foreground" aria-hidden="true" d="" display="none"/></g><g transform="translate(0,0)"><path class="background" aria-hidden="true" d="M0,0h200v200h-200Z"/><g><g class="mark-line role-mark marks" role="graphics-object" aria-roledescription="line mark container"><path aria-label="Time: Aug 27, 2025; Price: 999; identifier: allure-rs-2-2024" role="graphics-symbol" aria-roledescription="line mark" d="M36.154,89L36.464,89L36.773,89L36.893,89L37.346,89L38.269,89L38.738,89L39.23,89L39.658,89L40.109,89L41.034,89L41.5,89L41.992,89L42.421,89L42.872,89L45.614,111.222L45.635,111.222L46.561,111.222L46.856,111.222L47.022,111.222L47.514,111.222L47.945,111.222L48.401,111.222L49.334,111.222L49.799,111.222L50.29,111.222L50.713,111.222L51.165,111.222L52.095,111.222L52.562,111.222L53.056,111.222L53.479,111.222L53.931,111.222L54.856,111.222L55.322,111.222L55.815,111.222L56.243,111.222L56.695,111.222L57.62,111.222L58.088,111.222L58.577,111.222L59.009,111.222L59.459,111.222L60.385,111.222L60.852,111.222L61.343,111.222L61.769,111.222L62.224,111.222L63.147,111.222L63.384,111.222L63.608,111.222L64.096,111.222L64.529,111.222L64.988,111.222L65.911,111.222L66.373,111.222L66.862,111.222L67.294,111.222L67.752,111.222L68.68,111.222L69.15,111.222L69.643,111.222L70.068,111.222L70.521,111.222L71.444,111.222L71.914,111.222L72.424,111.222L72.835,111.222L73.282,111.222L74.204,111.222L74.676,111.222L75.166,111.222L75.595,111.222L76.048,111.222L76.973,111.222L77.439,111.222L77.929,111.222L78.354,111.222L78.81,111.222L79.735,111.222L80.203,111.222L80.693,111.222L81.12,111.222L81.575,111.222L82.498,111.222L82.961,111.222L83.449,111.222L83.879,111.222L84.34,111.222L85.264,111.222L85.726,111.222L86.212,111.222L86.643,111.222L87.104,111.222L88.033,111.222L88.499,111.222L88.993,111.222L89.419,111.222L89.871,111.222L90.795,111.222L91.266,111.222L91.757,111.222L92.182,111.222L92.636,111.222L93.561,111.222L94.028,111.222L94.522,111.222L94.948,111.222L95.4,111.222L96.325,111.222L96.792,111.222L97.285,111.222L97.711,111.222L98.165,111.222L99.09,111.222L99.557,111.222L100.049,111.222L100.477,111.222L100.928,111.222L101.852,111.222L102.316,111.222L102.805,111.222L103.233,111.222L103.692,111.222L104.618,111.222L105.079,111.222L105.569,111.222L106,111.222L106.458,111.222L107.384,111.222L107.855,111.222L108.346,111.222L108.766,111.222L109.225,111.222L110.148,111.222L110.617,111.222L111.109,111.222L111.537,111.222L111.989,111.222L112.913,111.222L113.382,111.222L113.874,111.222L114.304,111.222L114.752,111.222L115.678,111.222L116.148,111.222L116.641,111.222L117.068,111.222L117.516,111.222L118.441,111.222L118.911,111.222L119.402,111.222L119.829,111.222L120.281,111.222L121.205,111.222L121.666,111.222L122.156,111.222L122.587,111.222L123.045,111.222L123.97,111.222L124.431,111.222L124.921,111.222L125.349,111.222L125.809,111.222L126.737,111.222L127.208,111.222L127.7,111.222L128.114,111.222L128.576,111.222L129.501,111.222L129.974,111.222L130.464,111.222L130.888,111.222L131.34,111.222L132.267,111.222L132.736,111.222L133.23,111.222L133.654,111.222L134.105,111.222L135.028,111.222L135.496,111.222L135.987,111.222L136.418,111.222L136.869,111.222L137.792,111.222L138.261,111.222L138.75,111.222L139.181,111.222L139.633,111.222L140.556,111.222L141.019,111.222L141.507,111.222L141.939,111.222L142.397,111.222L143.319,111.222L143.782,111.222L144.273,111.222L144.704,111.222L145.162,111.222L146.088,111.222L146.557,111.222L147.05,111.222L147.477,111.222L147.929,111.222L148.852,111.222L149.321,111.222L149.816,111.222L150.241,111.222L150.693,111.222L151.618,111.222L152.088,111.222L152.581,111.222L153.006,111.222L153.458,111.222L154.384,111.222L154.853,111.222L155.346,111.222L155.775,111.222L156.223,111.222L157.147,111.222L157.615,111.222L158.107,111.222L158.534,111.222L158.987,111.222L159.909,111.222L160.372,111.222L160.86,111.222L161.29,111.222L161.749,111.222L162.674,111.222L163.136,111.222L163.625,111.222L164.057,111.222L164.514,111.222L165.444,111.222L165.915,111.222L166.405,111.222L166.831,111.222L167.28,111.222L168.205,111.222L168.674,111.222L169.185,111.222L169.595,111.222L170.047,111.222L170.971,111.222L171.444,111.222L171.952,111.222L172.358,111.222L172.813,111.222L173.735,111.222L174.208,111.222L174.714,111.222L175.125,111.222L175.576,111.222L176.5,111.222L176.969,111.222L177.461,111.222L177.888,111.222L178.339,111.222L179.262,111.222L179.727,111.222L180.215,111.222L180.646,111.222L181.102,111.222L182.03,111.222L182.489,111.222L182.98,111.222L183.41,111.222L183.867,111.222L184.795,111.222L185.276,111.222L185.757,111.222L186.183,111.222L186.639,111.222L187.558,111.222L188.042,111.222L188.543,111.222L188.946,111.222L189.401,111.222L190.326,111.222L190.798,111.222L191.306,111.222L191.718,111.222L192.163,111.222L193.088,111.222L193.56,111.222L194.068,111.222L194.478,111.222L194.93,111.222L195.852,111.222L196.323,111.222L196.831,111.222L197.242,111.222L197.695,111.222L198.615,111.222L199.078,111.222L199.567,111.222L200,111.222" stroke="#eeca3b" stroke-width="2"/></g></g><path class="foreground" aria-hidden="true" d="" display="none"/></g><g transform="translate(0,0)"><path class="background" aria-hidden="true" d="M0,0h200v200h-200Z"/><g><g class="mark-line role-mark marks" role="graphics-object" aria-roledescription="line mark container"><path aria-label="Time: Aug 27, 2025; Price: 1799; identifier: devote-1-2024" role="graphics-symbol" aria-roledescription="line mark" d="M36.773,0.111L36.893,0.111L37.346,0.111L38.269,0.111L38.738,0.111L39.23,0.111L39.658,0.111L40.109,0.111L41.034,0.111L41.501,0.111L41.992,0.111L42.421,0.111L42.872,0.111L45.614,44.556L45.635,44.556L46.561,44.556L46.856,44.556L47.022,44.556L47.514,44.556L47.945,44.556L48.401,44.556L49.334,44.556L49.799,44.556L50.29,44.556L50.713,44.556L51.165,44.556L52.095,44.556L52.562,44.556L53.056,44.556L53.48,44.556L53.931,44.556L54.856,44.556L55.322,44.556L55.815,44.556L56.243,44.556L56.695,44.556L57.62,44.556L58.088,44.556L58.577,44.556L59.01,44.556L59.459,44.556L60.385,44.556L60.852,44.556L61.343,44.556L61.769,44.556L62.225,44.556L63.147,44.556L63.384,44.556L63.608,44.556L64.096,44.556L64.529,44.556L64.988,44.556L65.911,44.556L66.373,44.556L66.862,44.556L67.294,44.556L67.752,44.556L68.68,44.556L69.15,44.556L69.643,44.556L70.068,44.556L70.521,44.556L71.444,44.556L71.914,44.556L72.424,44.556L72.835,44.556L73.282,44.556L74.204,44.556L74.676,44.556L75.166,44.556L75.595,44.556L76.048,44.556L76.973,44.556L77.439,44.556L77.929,44.556L78.354,44.556L78.81,44.556L79.735,44.556L80.203,44.556L80.693,44.556L81.12,44.556L81.575,44.556L82.498,44.556L82.961,44.556L83.449,44.556L83.879,44.556L84.34,44.556L85.264,44.556L85.726,44.556L86.212,44.556L86.643,44.556L87.104,44.556L88.033,44.556L88.499,44.556L88.993,44.556L89.42,44.556L89.872,44.556L90.795,44.556L91.266,44.556L91.757,44.556L92.182,44.556L92.636,44.556L93.561,44.556L94.028,44.556L94.522,44.556L94.948,44.556L95.4,44.556L96.325,44.556L96.792,44.556L97.286,44.556L97.711,44.556L98.165,44.556L99.09,44.556L99.557,44.556L100.049,44.556L100.477,44.556L100.928,44.556L101.852,44.556L102.316,44.556L102.805,44.556L103.233,44.556L103.692,44.556L104.618,44.556L105.079,44.556L105.569,44.556L106,44.556L106.458,44.556L107.384,44.556L107.855,44.556L108.347,44.556L108.766,44.556L109.225,44.556L110.148,44.556L110.617,44.556L111.109,44.556L111.537,44.556L111.989,44.556L112.913,44.556L113.383,44.556L113.874,44.556L114.304,44.556L114.752,44.556L115.678,44.556L116.148,44.556L116.641,44.556L117.068,44.556L117.516,44.556L118.441,44.556L118.911,44.556L119.402,44.556L119.83,44.556L120.281,44.556L121.205,44.556L121.666,44.556L122.156,44.556L122.587,44.556L123.045,44.556L123.97,44.556L124.431,44.556L124.922,44.556L125.349,44.556L125.809,44.556L126.737,44.556L127.208,44.556L127.7,44.556L128.114,44.556L128.576,44.556L129.501,44.556L129.974,44.556L130.465,44.556L130.888,44.556L131.341,44.556L132.267,44.556L132.736,44.556L133.23,44.556L133.654,44.556L134.106,44.556L135.028,44.556L135.496,44.556L135.987,44.556L136.418,44.556L136.869,44.556L137.792,44.556L138.261,44.556L138.751,44.556L139.181,44.556L139.633,44.556L140.556,44.556L141.019,44.556L141.508,44.556L141.94,44.556L142.397,44.556L143.319,44.556L143.782,44.556L144.273,44.556L144.704,44.556L145.162,44.556L146.088,44.556L146.557,44.556L147.05,44.556L147.477,44.556L147.929,44.556L148.852,44.556L149.321,44.556L149.816,44.556L150.241,44.556L150.693,44.556L151.618,44.556L152.088,44.556L152.581,44.556L153.006,44.556L153.458,44.556L154.384,44.556L154.853,44.556L155.347,44.556L155.775,44.556L156.223,44.556L157.147,44.556L157.615,44.556L158.107,44.556L158.534,44.556L158.987,44.556L159.909,44.556L160.372,44.556L160.86,44.556L161.29,44.556L161.75,44.556L162.674,44.556L163.136,44.556L163.625,44.556L164.057,44.556L164.514,44.556L165.444,44.556L165.915,44.556L166.405,44.556L166.831,44.556L167.28,44.556L168.205,44.556L168.674,44.556L169.185,44.556L169.595,44.556L170.047,44.556L170.971,44.556L171.444,44.556L171.952,44.556L172.358,44.556L172.813,44.556L173.736,44.556L174.208,44.556L174.714,44.556L175.125,44.556L175.576,44.556L176.5,44.556L176.969,44.556L177.461,44.556L177.888,44.556L178.34,44.556L179.262,44.556L179.727,44.556L180.215,44.556L180.646,44.556L181.102,44.556L182.03,44.556L182.489,44.556L182.981,44.556L183.411,44.556L183.867,44.556L184.795,44.556L185.276,44.556L185.757,44.556L186.183,44.556L186.639,44.556L187.559,44.556L188.042,44.556L188.543,44.556L188.946,44.556L189.402,44.556L190.326,44.556L190.798,44.556L191.306,44.556L191.718,44.556L192.163,44.556L193.088,44.556L193.56,44.556L194.068,44.556L194.478,44.556L194.93,44.556L195.852,44.556L196.323,44.556L196.831,44.556L197.242,44.556L197.695,44.556L198.615,44.556L199.078,44.556L199.567,44.556L200,44.556" stroke="#72b7b2" stroke-width="2"/></g></g><path class="foreground" aria-hidden="true" d="" display="none"/></g><g transform="translate(0,0)"><path class="background" aria-hidden="true" d="M0,0h200v200h-200Z"/><g><g class="mark-line role-mark marks" role="graphics-object" aria-roledescription="line mark container"><path aria-label="Time: Aug 27, 2025; Price: 1699; identifier: devote-1-2022" role="graphics-symbol" aria-roledescription="line mark" d="M36.773,11.222L36.893,11.222L37.346,11.222L38.269,11.222L38.738,11.222L39.23,11.222L39.658,11.222L40.109,11.222L41.034,11.222L41.501,11.222L41.992,11.222L42.421,11.222L42.872,11.222L43.795,11.222L44.259,11.222L44.748,11.222L45.179,11.222L45.614,11.222L45.635,11.222L46.561,11.222L46.856,11.222L47.022,11.222L47.514,11.222L47.945,11.222L48.401,11.222L49.335,11.222L49.799,11.222L50.29,11.222L50.713,11.222L51.165,11.222L52.095,11.222L52.562,11.222L53.056,11.222L53.48,11.222L53.932,11.222L54.856,11.222L55.322,11.222L55.815,11.222L56.243,11.222L56.695,11.222L57.62,11.222L58.088,11.222L58.577,11.222L59.01,11.222L59.459,11.222L60.385,11.222L60.852,11.222L61.343,11.222L61.769,11.222L62.225,11.222L63.147,11.222L63.384,11.222L63.609,11.222L64.096,11.222L64.529,11.222L64.988,11.222L65.911,11.222L66.373,11.222L66.862,11.222L67.294,11.222L67.752,11.222L68.68,11.222L69.15,11.222L69.644,11.222L70.068,11.222L70.521,11.222L71.444,11.222L71.914,11.222L72.424,11.222L72.835,11.222L73.282,11.222L74.205,11.222L74.676,11.222L75.166,11.222L75.595,11.222L76.048,11.222L76.973,11.222L77.439,11.222L77.929,11.222L78.354,11.222L78.811,11.222L79.735,11.222L80.203,11.222L80.693,11.222L81.12,11.222L81.575,11.222L82.498,11.222L82.961,11.222L83.449,11.222L83.879,11.222L84.34,11.222L85.264,11.222L85.726,11.222L86.212,11.222L86.643,11.222L87.105,11.222L88.033,11.222L88.499,11.222L88.993,11.222L89.42,11.222L89.872,11.222L90.795,11.222L91.266,11.222L91.757,11.222L92.182,11.222L92.636,11.222L93.561,11.222L94.028,11.222L94.522,11.222L94.948,11.222L95.4,11.222L96.325,11.222L96.792,11.222L97.286,11.222L97.711,11.222L98.165,11.222L99.09,11.222L99.557,11.222L100.049,11.222L100.477,11.222L100.928,11.222L101.852,11.222L102.316,11.222L102.805,11.222L103.233,11.222L103.692,11.222L104.618,11.222L105.079,11.222L105.569,11.222L106,11.222L106.458,11.222L107.384,11.222L107.855,11.222L108.347,11.222L108.766,11.222L109.225,11.222L110.148,11.222L110.617,11.222L111.109,11.222L111.537,11.222L111.989,11.222L112.913,11.222L113.383,11.222L113.874,11.222L114.304,11.222L114.752,11.222L115.678,11.222L116.148,11.222L116.641,11.222L117.068,11.222L117.516,11.222L118.441,11.222L118.911,11.222L119.402,11.222L119.83,11.222L120.281,11.222L121.205,11.222L121.666,11.222L122.156,11.222L122.587,11.222L123.046,11.222L123.97,11.222L124.431,11.222L124.922,11.222L125.349,11.222L125.809,11.222L126.738,11.222L127.208,11.222L127.7,11.222L128.114,11.222L128.576,11.222L129.501,11.222L129.974,11.222L130.465,11.222L130.888,11.222L131.341,11.222L132.267,11.222L132.736,11.222L133.23,11.222L133.654,11.222L134.106,11.222L135.028,11.222L135.496,11.222L135.987,11.222L136.418,11.222L136.869,11.222L137.792,11.222L138.261,11.222L138.751,11.222L139.181,11.222L139.633,11.222L140.556,11.222L141.02,11.222L141.508,11.222L141.94,11.222L142.397,11.222L143.319,11.222L143.782,11.222L144.273,11.222L144.704,11.222L145.162,11.222L146.088,11.222L146.557,11.222L147.051,11.222L147.477,11.222L147.929,11.222L148.852,11.222L149.321,11.222L149.816,11.222L150.241,11.222L150.693,11.222L151.618,11.222L152.088,11.222L152.581,11.222L153.006,11.222L153.458,11.222L154.384,11.222L154.853,11.222L155.347,11.222L155.775,11.222L156.223,11.222L157.147,11.222L157.615,11.222L158.107,11.222L158.534,11.222L158.987,11.222L159.909,11.222L160.372,11.222L160.86,11.222L161.29,11.222L161.75,11.222L162.674,11.222L163.136,11.222L163.625,11.222L164.057,11.222L164.514,11.222L165.444,11.222L165.915,11.222L166.405,11.222L166.831,11.222L167.28,11.222L168.205,11.222L168.674,11.222L169.185,11.222L169.595,11.222L170.048,11.222L170.971,11.222L171.444,11.222L171.952,11.222L172.358,11.222L172.813,11.222L173.737,11.222L174.208,11.222L174.714,11.222L175.125,11.222L175.576,11.222L176.5,11.222L176.969,11.222L177.461,11.222L177.888,11.222L178.34,11.222L179.262,11.222L179.727,11.222L180.215,11.222L180.646,11.222L181.102,11.222L182.03,11.222L182.489,11.222L182.981,11.222L183.411,11.222L183.867,11.222L184.795,11.222L185.276,11.222L185.757,11.222L186.183,11.222L186.639,11.222L187.559,11.222L188.042,11.222L188.543,11.222L188.946,11.222L189.402,11.222L190.326,11.222L190.798,11.222L191.306,11.222L191.718,11.222L192.163,11.222L193.088,11.222L193.56,11.222L194.068,11.222L194.478,11.222L194.93,11.222L195.852,11.222L196.323,11.222L196.831,11.222L197.242,11.222L197.695,11.222L198.616,11.222L199.079,11.222L199.567,11.222L200,11.222" stroke="#4c78a8" stroke-width="2"/></g></g><path class="foreground" aria-hidden="true" d="" display="none"/></g><g transform="translate(0,0)"><path class="background" aria-hidden="true" d="M0,0h200v200h-200Z"/><g><g class="mark-line role-mark marks" role="graphics-object" aria-roledescription="line mark container"><path aria-label="Time: Aug 31, 2025; Price: 1599; identifier: silex-400-oak-bork-2026" role="graphics-symbol" aria-roledescription="line mark" d="M46.856,22.333L47.022,22.333L47.514,22.333L47.945,22.333L48.401,22.333L49.335,22.333L49.799,22.333L50.29,22.333L50.713,22.333L51.165,22.333L52.095,22.333L52.562,22.333L53.056,22.333L53.48,22.333L53.932,22.333L54.856,22.333L55.322,22.333L55.815,22.333L56.243,22.333L56.695,22.333L57.62,22.333L58.088,22.333L58.577,22.333L59.01,22.333L59.459,22.333L60.386,22.333L60.852,22.333L61.343,22.333L61.769,22.333L62.225,22.333L63.147,22.333L63.384,22.333L63.609,22.333L64.096,22.333L64.529,22.333L64.988,22.333L65.911,22.333L66.373,22.333L66.863,22.333L67.294,22.333L67.752,22.333L68.68,22.333L69.151,22.333L69.644,22.333L70.068,22.333L70.521,22.333L71.444,22.333L71.914,22.333L72.424,22.333L72.835,22.333L73.283,22.333L74.205,22.333L74.676,22.333L75.166,22.333L75.595,22.333L76.048,22.333L76.973,22.333L77.44,22.333L77.93,22.333L78.354,22.333L78.811,22.333L79.735,22.333L80.203,22.333L80.693,22.333L81.12,22.333L81.575,22.333L82.498,22.333L82.961,22.333L83.449,22.333L83.879,22.333L84.34,22.333L85.264,22.333L85.726,22.333L86.212,22.333L86.643,22.333L87.105,22.333L88.033,22.333L88.499,22.333L88.993,22.333L89.42,22.333L89.872,22.333L90.795,22.333L91.266,22.333L91.757,22.333L92.183,22.333L92.636,22.333L93.561,22.333L94.028,22.333L94.522,22.333L94.948,22.333L95.4,22.333L96.325,22.333L96.792,22.333L97.286,22.333L97.711,22.333L98.165,22.333L99.09,22.333L99.557,22.333L100.049,22.333L100.477,22.333L100.928,22.333L101.852,22.333L102.316,22.333L102.805,22.333L103.233,22.333L103.692,22.333L104.618,22.333L105.079,22.333L105.569,22.333L106,22.333L106.458,22.333L107.384,22.333L107.855,22.333L108.347,22.333L108.766,22.333L109.225,22.333L110.148,22.333L110.617,22.333L111.109,22.333L111.538,22.333L111.989,22.333L112.913,22.333L113.383,22.333L113.875,22.333L114.304,22.333L114.752,22.333L115.678,22.333L116.148,22.333L116.641,22.333L117.068,22.333L117.516,22.333L118.442,22.333L118.911,22.333L119.403,22.333L119.83,22.333L120.281,22.333L121.206,22.333L121.667,22.333L122.156,22.333L122.587,22.333L123.046,22.333L123.97,22.333L124.431,22.333L124.922,22.333L125.349,22.333L125.81,22.333L126.738,22.333L127.208,22.333L127.701,22.333L128.114,22.333L128.576,22.333L129.501,22.333L129.974,22.333L130.465,22.333L130.888,22.333L131.341,22.333L132.267,22.333L132.736,22.333L133.23,22.333L133.654,22.333L134.106,22.333L135.028,22.333L135.496,22.333L135.987,22.333L136.418,22.333L136.869,22.333L137.792,22.333L138.261,22.333L138.751,22.333L139.181,22.333L139.633,22.333L140.556,22.333L141.02,22.333L141.508,22.333L141.94,22.333L142.397,22.333L143.319,22.333L143.783,22.333L144.273,22.333L144.704,22.333L145.163,22.333L146.088,22.333L146.557,22.333L147.051,22.333L147.477,22.333L147.93,22.333L148.852,22.333L149.321,22.333L149.816,22.333L150.241,22.333L150.693,22.333L151.618,22.333L152.088,22.333L152.581,22.333L153.006,22.333L153.458,22.333L154.384,22.333L154.853,22.333L155.347,22.333L155.775,22.333L156.223,22.333L157.147,22.333L157.615,22.333L158.107,22.333L158.535,22.333L158.988,22.333L159.909,22.333L160.372,22.333L160.86,22.333L161.29,22.333L161.75,22.333L162.674,22.333L163.137,22.333L163.626,22.333L164.057,22.333L164.514,22.333L165.445,22.333L165.916,22.333L166.406,22.333L166.831,22.333L167.281,22.333L168.205,22.333L168.674,22.333L169.185,22.333L169.595,22.333L170.048,22.333L170.971,22.333L171.444,22.333L171.952,22.333L172.358,22.333L172.813,22.333L173.737,22.333L174.208,22.333L174.714,22.333L175.125,22.333L175.576,22.333L176.5,22.333L176.969,22.333L177.462,22.333L177.888,22.333L178.34,22.333L179.262,22.333L179.728,22.333L180.215,22.333L180.646,22.333L181.102,22.333L182.03,22.333L182.489,22.333L182.981,22.333L183.411,22.333L183.867,22.333L184.796,22.333L185.276,22.333L185.757,22.333L186.183,22.333L186.639,22.333L187.559,22.333L188.042,22.333L188.543,22.333L188.947,22.333L189.402,22.333L190.326,22.333L190.798,22.333L191.306,22.333L191.719,22.333L192.163,22.333L193.088,22.333L193.56,22.333L194.068,22.333L194.478,22.333L194.93,22.333L195.852,22.333L196.323,22.333L196.831,22.333L197.242,22.333L197.695,22.333L198.616,22.333L199.079,22.333L199.567,22.333L200,22.333" stroke="#f58518" stroke-width="2"/></g></g><path class="foreground" aria-hidden="true" d="" display="none"/></g><g transform="translate(0,0)"><path class="background" aria-hidden="true" d="M0,0h200v200h-200Z"/><g><g class="mark-line role-mark marks" role="graphics-object" aria-roledescription="line mark container"><path aria-label="Time: Aug 31, 2025; Price: 1599; identifier: silex-400-warm-slate-grey-2026" role="graphics-symbol" aria-roledescription="line mark" d="M46.856,22.333L47.022,22.333L47.514,22.333L47.945,22.333L48.401,22.333L49.335,22.333L49.799,22.333L50.29,22.333L50.714,22.333L51.165,22.333L52.095,22.333L52.562,22.333L53.057,22.333L53.48,22.333L53.932,22.333L54.856,22.333L55.323,22.333L55.815,22.333L56.243,22.333L56.695,22.333L57.62,22.333L58.088,22.333L58.577,22.333L59.01,22.333L59.459,22.333L60.386,22.333L60.852,22.333L61.343,22.333L61.769,22.333L62.225,22.333L63.147,22.333L63.384,22.333L63.609,22.333L64.097,22.333L64.529,22.333L64.988,22.333L65.911,22.333L66.373,22.333L66.863,22.333L67.294,22.333L67.752,22.333L68.681,22.333L69.151,22.333L69.644,22.333L70.068,22.333L70.521,22.333L71.444,22.333L71.914,22.333L72.424,22.333L72.835,22.333L73.283,22.333L74.205,22.333L74.676,22.333L75.166,22.333L75.595,22.333L76.049,22.333L76.973,22.333L77.44,22.333L77.93,22.333L78.354,22.333L78.811,22.333L79.735,22.333L80.203,22.333L80.693,22.333L81.12,22.333L81.575,22.333L82.498,22.333L82.961,22.333L83.449,22.333L83.88,22.333L84.34,22.333L85.264,22.333L85.726,22.333L86.212,22.333L86.643,22.333L87.105,22.333L88.033,22.333L88.499,22.333L88.993,22.333L89.42,22.333L89.872,22.333L90.795,22.333L91.266,22.333L91.757,22.333L92.183,22.333L92.636,22.333L93.561,22.333L94.028,22.333L94.522,22.333L94.948,22.333L95.4,22.333L96.325,22.333L96.792,22.333L97.286,22.333L97.711,22.333L98.165,22.333L99.09,22.333L99.557,22.333L100.049,22.333L100.477,22.333L100.928,22.333L101.853,22.333L102.317,22.333L102.806,22.333L103.233,22.333L103.692,22.333L104.618,22.333L105.079,22.333L105.569,22.333L106,22.333L106.458,22.333L107.384,22.333L107.855,22.333L108.347,22.333L108.767,22.333L109.225,22.333L110.148,22.333L110.617,22.333L111.109,22.333L111.538,22.333L111.989,22.333L112.914,22.333L113.383,22.333L113.875,22.333L114.304,22.333L114.752,22.333L115.678,22.333L116.148,22.333L116.641,22.333L117.068,22.333L117.516,22.333L118.442,22.333L118.911,22.333L119.403,22.333L119.83,22.333L120.281,22.333L121.206,22.333L121.667,22.333L122.156,22.333L122.587,22.333L123.046,22.333L123.97,22.333L124.432,22.333L124.922,22.333L125.35,22.333L125.81,22.333L126.738,22.333L127.208,22.333L127.701,22.333L128.114,22.333L128.576,22.333L129.501,22.333L129.974,22.333L130.465,22.333L130.888,22.333L131.341,22.333L132.267,22.333L132.737,22.333L133.23,22.333L133.654,22.333L134.106,22.333L135.028,22.333L135.496,22.333L135.987,22.333L136.418,22.333L136.869,22.333L137.792,22.333L138.261,22.333L138.751,22.333L139.181,22.333L139.633,22.333L140.556,22.333L141.02,22.333L141.508,22.333L141.94,22.333L142.397,22.333L143.319,22.333L143.783,22.333L144.273,22.333L144.704,22.333L145.163,22.333L146.088,22.333L146.558,22.333L147.051,22.333L147.477,22.333L147.93,22.333L148.852,22.333L149.321,22.333L149.816,22.333L150.242,22.333L150.694,22.333L151.618,22.333L152.088,22.333L152.581,22.333L153.007,22.333L153.458,22.333L154.384,22.333L154.853,22.333L155.347,22.333L155.775,22.333L156.223,22.333L157.147,22.333L157.615,22.333L158.107,22.333L158.535,22.333L158.988,22.333L159.91,22.333L160.372,22.333L160.86,22.333L161.29,22.333L161.75,22.333L162.674,22.333L163.137,22.333L163.626,22.333L164.057,22.333L164.514,22.333L165.445,22.333L165.916,22.333L166.406,22.333L166.831,22.333L167.281,22.333L168.205,22.333L168.674,22.333L169.185,22.333L169.595,22.333L170.048,22.333L170.971,22.333L171.444,22.333L171.953,22.333L172.358,22.333L172.813,22.333L173.737,22.333L174.208,22.333L174.714,22.333L175.125,22.333L175.576,22.333L176.5,22.333L176.969,22.333L177.462,22.333L177.888,22.333L178.34,22.333L179.262,22.333L179.728,22.333L180.215,22.333L180.646,22.333L181.103,22.333L182.03,22.333L182.489,22.333L182.981,22.333L183.411,22.333L183.867,22.333L184.796,22.333L185.276,22.333L185.758,22.333L186.183,22.333L186.639,22.333L187.559,22.333L188.042,22.333L188.543,22.333L188.947,22.333L189.402,22.333L190.326,22.333L190.799,22.333L191.307,22.333L191.719,22.333L192.163,22.333L193.088,22.333L193.56,22.333L194.068,22.333L194.478,22.333L194.93,22.333L195.852,22.333L196.323,22.333L196.831,22.333L197.243,22.333L197.695,22.333L198.616,22.333L199.079,22.333L199.568,22.333L200,22.333" stroke="#e45756" stroke-width="2"/></g></g><path class="foreground" aria-hidden="true" d="" display="none"/></g></g><g class="mark-group role-legend" role="graphics-symbol" aria-roledescription="legend" aria-label="Symbol legend titled 'identifier' for stroke color with 16 values: devote-1-2022, silex-400-oak-bork-2026, silex-400-warm-slate-grey-2026, devote-1-2024, fastroad-ar-2, ending with allure-rs-2-2024"><g transform="translate(220,0)"><path class="background" aria-hidden="true" d="M0,0h256v222h-256Z" pointer-events="none"/><g><g class="mark-group role-legend-entry"><g transform="translate(0,16)"><path class="background" aria-hidden="true" d="M0,0h0v0h0Z" pointer-events="none"/><g><g class="mark-group role-scope" role="graphics-object" aria-roledescription="group mark container"><g transform="translate(0,0)"><path class="background" aria-hidden="true" d="M0,0h256v11h-256Z" pointer-events="none" opacity="1"/><g><g class="mark-symbol role-legend-symbol" pointer-events="none"><path transform="translate(6,6)" d="M-5,0L5,0" stroke="#4c78a8" stroke-width="1.5" opacity="1"/></g><g class="mark-text role-legend-label" pointer-events="none"><text text-anchor="start" transform="translate(16,9)" font-family="Liberation Mono" font-size="10px" fill="#000" opacity="1">devote-1-2022</text></g></g><path class="foreground" aria-hidden="true" d="" pointer-events="none" display="none"/></g><g transform="translate(0,13)"><path class="background" aria-hidden="true" d="M0,0h256v11h-256Z" pointer-events="none" opacity="1"/><g><g class="mark-symbol role-legend-symbol" pointer-events="none"><path transform="translate(6,6)" d="M-5,0L5,0" stroke="#f58518" stroke-width="1.5" opacity="1"/></g><g class="mark-text role-legend-label" pointer-events="none"><text text-anchor="start" transform="translate(16,9)" font-family="Liberation Mono" font-size="10px" fill="#000" opacity="1">silex-400-oak-bork-2026</text></g></g><path class="foreground" aria-hidden="true" d="" pointer-events="none" display="none"/></g><g transform="translate(0,26)"><path class="background" aria-hidden="true" d="M0,0h256v11h-256Z" pointer-events="none" opacity="1"/><g><g class="mark-symbol role-legend-symbol" pointer-events="none"><path transform="translate(6,6)" d="M-5,0L5,0" stroke="#e45756" stroke-width="1.5" opacity="1"/></g><g class="mark-text role-legend-label" pointer-events="none"><text text-anchor="start" transform="translate(16,9)" font-family="Liberation Mono" font-size="10px" fill="#000" opacity="1">silex-400-warm-slate-grey-2026</text></g></g><path class="foreground" aria-hidden="true" d="" pointer-events="none" display="none"/></g><g transform="translate(0,39)"><path class="background" aria-hidden="true" d="M0,0h256v11h-256Z" pointer-events="none" opacity="1"/><g><g class="mark-symbol role-legend-symbol" pointer-events="none"><path transform="translate(6,6)" d="M-5,0L5,0" stroke="#72b7b2" stroke-width="1.5" opacity="1"/></g><g class="mark-text role-legend-label" pointer-events="none"><text text-anchor="start" transform="translate(16,9)" font-family="Liberation Mono" font-size="10px" fill="#000" opacity="1">devote-1-2024</text></g></g><path class="foreground" aria-hidden="true" d="" pointer-events="none" display="none"/></g><g transform="translate(0,52)"><path class="background" aria-hidden="true" d="M0,0h256v11h-256Z" pointer-events="none" opacity="1"/><g><g class="mark-symbol role-legend-symbol" pointer-events="none"><path transform="translate(6,6)" d="M-5,0L5,0" stroke="#54a24b" stroke-width="1.5" opacity="1"/></g><g class="mark-text role-legend-label" pointer-events="none"><text text-anchor="start" transform="translate(16,9)" font-family="Liberation Mono" font-size="10px" fill="#000" opacity="1">fastroad-ar-2</text></g></g><path class="foreground" aria-hidden="true" d="" pointer-events="none" display="none"/></g><g transform="translate(0,65)"><path class="background" aria-hidden="true" d="M0,0h256v11h-256Z" pointer-events="none" opacity="1"/><g><g class="mark-symbol role-legend-symbol" pointer-events="none"><path transform="translate(6,6)" d="M-5,0L5,0" stroke="#eeca3b" stroke-width="1.5" opacity="1"/></g><g class="mark-text role-legend-label" pointer-events="none"><text text-anchor="start" transform="translate(16,9)" font-family="Liberation Mono" font-size="10px" fill="#000" opacity="1">thrive-2</text></g></g><path class="foreground" aria-hidden="true" d="" pointer-events="none" display="none"/></g><g transform="translate(0,78)"><path class="background" aria-hidden="true" d="M0,0h256v11h-256Z" pointer-events="none" opacity="1"/><g><g class="mark-symbol role-legend-symbol" pointer-events="none"><path transform="translate(6,6)" d="M-5,0L5,0" stroke="#b279a2" stroke-width="1.5" opacity="1"/></g><g class="mark-text role-legend-label" pointer-events="none"><text text-anchor="start" transform="translate(16,9)" font-family="Liberation Mono" font-size="10px" fill="#000" opacity="1">allure-rs-1-2023</text></g></g><path class="foreground" aria-hidden="true" d="" pointer-events="none" display="none"/></g><g transform="translate(0,91)"><path class="background" aria-hidden="true" d="M0,0h256v11h-256Z" pointer-events="none" opacity="1"/><g><g class="mark-symbol role-legend-symbol" pointer-events="none"><path transform="translate(6,6)" d="M-5,0L5,0" stroke="#ff9da6" stroke-width="1.5" opacity="1"/></g><g class="mark-text role-legend-label" pointer-events="none"><text text-anchor="start" transform="translate(16,9)" font-family="Liberation Mono" font-size="10px" fill="#000" opacity="1">roam-2</text></g></g><path class="foreground" aria-hidden="true" d="" pointer-events="none" display="none"/></g><g transform="translate(0,104)"><path class="background" aria-hidden="true" d="M0,0h256v11h-256Z" pointer-events="none" opacity="1"/><g><g class="mark-symbol role-legend-symbol" pointer-events="none"><path transform="translate(6,6)" d="M-5,0L5,0" stroke="#9d755d" stroke-width="1.5" opacity="1"/></g><g class="mark-text role-legend-label" pointer-events="none"><text text-anchor="start" transform="translate(16,9)" font-family="Liberation Mono" font-size="10px" fill="#000" opacity="1">fastroad-sl-3-2022</text></g></g><path class="foreground" aria-hidden="true" d="" pointer-events="none" display="none"/></g><g transform="translate(0,117)"><path class="background" aria-hidden="true" d="M0,0h256v11h-256Z" pointer-events="none" opacity="1"/><g><g class="mark-symbol role-legend-symbol" pointer-events="none"><path transform="translate(6,6)" d="M-5,0L5,0" stroke="#bab0ac" stroke-width="1.5" opacity="1"/></g><g class="mark-text role-legend-label" pointer-events="none"><text text-anchor="start" transform="translate(16,9)" font-family="Liberation Mono" font-size="10px" fill="#000" opacity="1">allure-rs-2-2023</text></g></g><path class="foreground" aria-hidden="true" d="" pointer-events="none" display="none"/></g><g transform="translate(0,130)"><path class="background" aria-hidden="true" d="M0,0h256v11h-256Z" pointer-events="none" opacity="1"/><g><g class="mark-symbol role-legend-symbol" pointer-events="none"><path transform="translate(6,6)" d="M-5,0L5,0" stroke="#4c78a8" stroke-width="1.5" opacity="1"/></g><g class="mark-text role-legend-label" pointer-events="none"><text text-anchor="start" transform="translate(16,9)" font-family="Liberation Mono" font-size="10px" fill="#000" opacity="1">escape-city-disc-1-2024</text></g></g><path class="foreground" aria-hidden="true" d="" pointer-events="none" display="none"/></g><g transform="translate(0,143)"><path class="background" aria-hidden="true" d="M0,0h256v11h-256Z" pointer-events="none" opacity="1"/><g><g class="mark-symbol role-legend-symbol" pointer-events="none"><path transform="translate(6,6)" d="M-5,0L5,0" stroke="#f58518" stroke-width="1.5" opacity="1"/></g><g class="mark-text role-legend-label" pointer-events="none"><text text-anchor="start" transform="translate(16,9)" font-family="Liberation Mono" font-size="10px" fill="#000" opacity="1">sdrbike-escape-1-city-disc</text></g></g><path class="foreground" aria-hidden="true" d="" pointer-events="none" display="none"/></g><g transform="translate(0,156)"><path class="background" aria-hidden="true" d="M0,0h256v11h-256Z" pointer-events="none" opacity="1"/><g><g class="mark-symbol role-legend-symbol" pointer-events="none"><path transform="translate(6,6)" d="M-5,0L5,0" stroke="#e45756" stroke-width="1.5" opacity="1"/></g><g class="mark-text role-legend-label" pointer-events="none"><text text-anchor="start" transform="translate(16,9)" font-family="Liberation Mono" font-size="10px" fill="#000" opacity="1">roam-disc-2-2024</text></g></g><path class="foreground" aria-hidden="true" d="" pointer-events="none" display="none"/></g><g transform="translate(0,169)"><path class="background" aria-hidden="true" d="M0,0h256v11h-256Z" pointer-events="none" opacity="1"/><g><g class="mark-symbol role-legend-symbol" pointer-events="none"><path transform="translate(6,6)" d="M-5,0L5,0" stroke="#72b7b2" stroke-width="1.5" opacity="1"/></g><g class="mark-text role-legend-label" pointer-events="none"><text text-anchor="start" transform="translate(16,9)" font-family="Liberation Mono" font-size="10px" fill="#000" opacity="1">rove-2</text></g></g><path class="foreground" aria-hidden="true" d="" pointer-events="none" display="none"/></g><g transform="translate(0,182)"><path class="background" aria-hidden="true" d="M0,0h256v11h-256Z" pointer-events="none" opacity="1"/><g><g class="mark-symbol role-legend-symbol" pointer-events="none"><path transform="translate(6,6)" d="M-5,0L5,0" stroke="#54a24b" stroke-width="1.5" opacity="1"/></g><g class="mark-text role-legend-label" pointer-events="none"><text text-anchor="start" transform="translate(16,9)" font-family="Liberation Mono" font-size="10px" fill="#000" opacity="1">allure-rs-2-2022</text></g></g><path class="foreground" aria-hidden="true" d="" pointer-events="none" display="none"/></g><g transform="translate(0,195)"><path class="background" aria-hidden="true" d="M0,0h256v11h-256Z" pointer-events="none" opacity="1"/><g><g class="mark-symbol role-legend-symbol" pointer-events="none"><path transform="translate(6,6)" d="M-5,0L5,0" stroke="#eeca3b" stroke-width="1.5" opacity="1"/></g><g class="mark-text role-legend-label" pointer-events="none"><text text-anchor="start" transform="translate(16,9)" font-family="Liberation Mono" font-size="10px" fill="#000" opacity="1">allure-rs-2-2024</text></g></g><path class="foreground" aria-hidden="true" d="" pointer-events="none" display="none"/></g></g></g><path class="foreground" aria-hidden="true" d="" pointer-events="none" display="none"/></g></g><g class="mark-text role-legend-title" pointer-events="none"><text text-anchor="start" transform="translate(0,9)" font-family="Liberation Mono" font-size="11px" font-weight="bold" fill="#000" opacity="1">identifier</text></g></g><path class="foreground" aria-hidden="true" d="" pointer-events="none" display="none"/></g></g></g><path class="foreground" aria-hidden="true" d="" display="none"/></g></g></g></svg>