<svg xmlns="http://www.w3.org/2000/svg" xmlns:xlink="http://www.w3.org/1999/xlink" version="1.1" class="marks" width="548" height="244" viewBox="0 0 548 244"><rect width="548" height="244" fill="white"/><g fill="none" stroke-miterlimit="10" transform="translate(67,7)"><g class="mark-group role-frame root" role="graphics-object" aria-roledescription="group mark container"><g transform="translate(0,0)"><path class="background" aria-hidden="true" d="M0.5,0.5h200v200h-200Z" stroke="#ddd"/><g><g class="mark-group role-axis" aria-hidden="true"><g transform="translate(0.5,200.5)"><path class="background" aria-hidden="true" d="M0,0h0v0h0Z" pointer-events="none"/><g><g class="mark-rule role-axis-grid" pointer-events="none"><line transform="translate(17,-200)" x2="0" y2="200" stroke="#ddd" stroke-width="1" opacity="1"/><line transform="translate(62,-200)" x2="0" y2="200" stroke="#ddd" stroke-width="1" opacity="1"/><line transform="translate(107,-200)" x2="0" y2="200" stroke="#ddd" stroke-width="1" opacity="1"/><line transform="translate(152,-200)" x2="0" y2="200" stroke="#ddd" stroke-width="1" opacity="1"/><line transform="translate(198,-200)" x2="0" y2="200" stroke="#ddd" stroke-width="1" opacity="1"/></g></g><path class="foreground" aria-hidden="true" d="" pointer-events="none" display="none"/></g></g><g class="mark-group role-axis" aria-hidden="true"><g transform="translate(0.5,0.5)"><path class="background" aria-hidden="true" d="M0,0h0v0h0Z" pointer-events="none"/><g><g class="mark-rule role-axis-grid" pointer-events="none"><line transform="translate(0,200)" x2="200" y2="0" stroke="#ddd" stroke-width="1" opacity="1"/><line transform="translate(0,144)" x2="200" y2="0" stroke="#ddd" stroke-width="1" opacity="1"/><line transform="translate(0,89)" x2="200" y2="0" stroke="#ddd" stroke-width="1" opacity="1"/><line transform="translate(0,33)" x2="200" y2="0" stroke="#ddd" stroke-width="1" opacity="1"/></g></g><path class="foreground" aria-hidden="true" d="" pointer-events="none" display="none"/></g></g><g class="mark-group role-axis" role="graphics-symbol" aria-roledescription="axis" aria-label="X-axis titled 'Time' for a time scale with values from Thursday, 14 August 2025, 8:34:48 AM to Sunday, 14 September 2025, 8:46:36 AM"><g transform="translate(0.5,200.5)"><path class="background" aria-hidden="true" d="M0,0h0v0h0Z" pointer-events="none"/><g><g class="mark-rule role-axis-tick" pointer-events="none"><line transform="translate(17,0)" x2="0" y2="5" stroke="#888" stroke-width="1" opacity="1"/><line transform="translate(62,0)" x2="0" y2="5" stroke="#888" stroke-width="1" opacity="1"/><line transform="translate(107,0)" x2="0" y2="5" stroke="#888" stroke-width="1" opacity="1"/><line transform="translate(152,0)" x2="0" y2="5" stroke="#888" stroke-width="1" opacity="1"/><line transform="translate(198,0)" x2="0" y2="5" stroke="#888" stroke-width="1" opacity="1"/></g><g class="mark-text role-axis-label" pointer-events="none"><text text-anchor="middle" transform="translate(17.04382774868673,15)" font-family="Liberation Mono" font-size="10px" fill="#000" opacity="1">Aug 17</text><text text-anchor="middle" transform="translate(62.193189631434706,15)" font-family="Liberation Mono" font-size="10px" fill="#000" opacity="0">Aug 24</text><text text-anchor="middle" transform="translate(107.34255151418269,15)" font-family="Liberation Mono" font-size="10px" fill="#000" opacity="1">Aug 31</text><text text-anchor="middle" transform="translate(152.49191339693067,15)" font-family="Liberation Mono" font-size="10px" fill="#000" opacity="0">Sep 07</text><text text-anchor="middle" transform="translate(197.64127527967867,15)" font-family="Liberation Mono" font-size="10px" fill="#000" opacity="1">Sep 14</text></g><g class="mark-rule role-axis-domain" pointer-events="none"><line transform="translate(0,0)" x2="200" y2="0" stroke="#888" stroke-width="1" opacity="1"/></g><g class="mark-text role-axis-title" pointer-events="none"><text text-anchor="middle" transform="translate(100,30)" font-family="Liberation Mono" font-size="11px" font-weight="bold" fill="#000" opacity="1">Time</text></g></g><path class="foreground" aria-hidden="true" d="" pointer-events="none" display="none"/></g></g><g class="mark-group role-axis" role="graphics-symbol" aria-roledescription="axis" aria-label="Y-axis titled 'Price' for a linear scale with values from 0 to 1,800"><g transform="translate(0.5,0.5)"><path class="background" aria-hidden="true" d="M0,0h0v0h0Z" pointer-events="none"/><g><g class="mark-rule role-axis-tick" pointer-events="none"><line transform="translate(0,200)" x2="-5" y2="0" stroke="#888" stroke-width="1" opacity="1"/><line transform="translate(0,144)" x2="-5" y2="0" stroke="#888" stroke-width="1" opacity="1"/><line transform="translate(0,89)" x2="-5" y2="0" stroke="#888" stroke-width="1" opacity="1"/><line transform="translate(0,33)" x2="-5" y2="0" stroke="#888" stroke-width="1" opacity="1"/></g><g class="mark-text role-axis-label" pointer-events="none"><text text-anchor="end" transform="translate(-7,203)" font-family="Liberation Mono" font-size="10px" fill="#000" opacity="1">0</text><text text-anchor="end" transform="translate(-7,147.44444444444443)" font-family="Liberation Mono" font-size="10px" fill="#000" opacity="1">500</text><text text-anchor="end" transform="translate(-7,91.88888888888889)" font-family="Liberation Mono" font-size="10px" fill="#000" opacity="1">1,000</text><text text-anchor="end" transform="translate(-7,36.33333333333333)" font-family="Liberation Mono" font-size="10px" fill="#000" opacity="1">1,500</text></g><g class="mark-rule role-axis-domain" pointer-events="none"><line transform="translate(0,200)" x2="0" y2="-200" stroke="#888" stroke-width="1" opacity="1"/></g><g class="mark-text role-axis-title" pointer-events="none"><text text-anchor="middle" transform="translate(-51,100) rotate(-90) translate(0,-2)" font-family="Liberation Mono" font-size="11px" font-weight="bold" fill="#000" opacity="1">Price</text></g></g><path class="foreground" aria-hidden="true" d="" pointer-events="none" display="none"/></g></g><g class="mark-group role-scope pathgroup" role="graphics-object" aria-roledescription="group mark container"><g transform="translate(0,0)"><path class="background" aria-hidden="true" d="M0,0h200v200h-200Z"/><g><g class="mark-line role-mark marks" role="graphics-object" aria-roledescription="line mark container"><path aria-label="Time: Aug 14, 2025; Price: 899; identifier: escape-city-disc-1-2024" role="graphics-symbol" aria-roledescription="line mark" d="M0,100.111L0.054,100.111L0.096,100.111L1.285,100.111L2.23,100.111L3.29,100.111L5.466,100.111L6.534,100.111L7.714,100.111L8.681,100.111L9.736,100.111L11.895,100.111L12.976,100.111L14.121,100.111L15.119,100.111L16.176,100.111L18.37,100.111L19.423,100.111L20.574,100.111L21.573,100.111L22.634,100.111L24.838,100.111L25.897,100.111L27.085,100.111L27.502,100.111L28.044,100.111L29.078,100.111L31.239,100.111L32.33,100.111L33.476,100.111L34.477,100.111L35.526,100.111L37.691,100.111L38.772,100.111L39.964,100.111L40.447,100.111L40.924,100.111L41.983,100.111L44.137,100.111L45.227,100.111L46.378,100.111L47.378,100.111L48.429,100.111L50.588,100.111L51.675,100.111L52.825,100.111L53.822,100.111L54.876,100.111L57.034,100.111L58.115,100.111L59.255,100.111L60.255,100.111L61.319,100.111L63.491,100.111L64.56,100.111L65.708,100.111L66.713,100.111L67.771,100.111L69.95,100.111L71.039,100.111L72.215,100.111L73.179,100.111L74.229,100.111L76.39,100.111L77.485,100.111L79.622,100.111L80.672,100.111L82.831,100.111L83.921,100.111L84.344,100.111L85.07,100.111L85.79,100.111L86.071,100.111L87.126,100.111L89.28,100.111L90.374,100.111L91.523,100.111L92.52,100.111L93.574,100.111L95.731,100.111L96.819,100.111L97.965,100.111L98.967,100.111L100.02,100.111L102.173,100.111L103.254,100.111L104.395,100.111L105.402,100.111L106.415,100.111L106.466,100.111L108.626,100.111L109.315,100.111L109.701,100.111L110.848,100.111L111.855,100.111L112.918,100.111L115.096,100.111L116.181,100.111L117.325,100.111L118.313,100.111L119.367,100.111L121.536,100.111L122.626,100.111L123.779,100.111L124.767,100.111L125.821,100.111L127.978,100.111L129.066,100.111L130.215,100.111L131.214,100.111L132.269,100.111L134.426,100.111L135.518,100.111L136.659,100.111L137.668,100.111L138.717,100.111L140.878,100.111L141.967,100.111L143.112,100.111L144.106,100.111L145.169,100.111L147.321,100.111L147.875,100.111L148.397,100.111L149.535,100.111L150.545,100.111L151.615,100.111L153.769,100.111L154.846,100.111L155.989,100.111L156.996,100.111L158.065,100.111L160.229,100.111L161.327,100.111L162.477,100.111L163.468,100.111L164.525,100.111L166.677,100.111L167.774,100.111L168.963,100.111L169.922,100.111L170.967,100.111L173.118,100.111L174.218,100.111L175.361,100.111L176.362,100.111L177.42,100.111L179.576,100.111L180.665,100.111L181.809,100.111L182.799,100.111L183.864,100.111L186.021,100.111L187.113,100.111L188.255,100.111L189.252,100.111L190.314,100.111L192.467,100.111L193.547,100.111L194.686,100.111L195.689,100.111L196.764,100.111L198.92,100.111L199.997,100.111" stroke="#4c78a8" stroke-width="2"/></g></g><path class="foreground" aria-hidden="true" d="" display="none"/></g><g transform="translate(0,0)"><path class="background" aria-hidden="true" d="M0,0h200v200h-200Z"/><g><g class="mark-line role-mark marks" role="graphics-object" aria-roledescription="line mark container"><path aria-label="Time: Aug 14, 2025; Price: 999; identifier: roam-2" role="graphics-symbol" aria-roledescription="line mark" d="M0,89L0.054,89L0.096,89L1.285,89L2.23,89L3.291,89L5.466,89L6.534,89L7.714,89L8.681,89L9.736,89L11.895,89L12.976,89L14.121,89L15.119,89L16.186,89L18.37,89L19.424,89L20.574,89L21.573,89L22.634,89L24.838,89L25.897,89L27.085,89L27.502,89L28.044,89L29.078,89L31.239,89L32.331,89L33.476,89L34.477,89L35.526,89L37.691,89L38.772,89L39.965,89L40.447,89L40.925,89L41.983,89L44.137,89L45.227,89L46.378,89L47.379,89L48.43,89L50.589,89L51.675,89L52.825,89L53.822,89L54.876,89L57.034,89L58.115,89L59.255,89L60.255,89L61.32,89L63.492,89L64.561,89L65.708,89L66.713,89L67.772,89L69.951,89L71.039,89L72.216,89L73.179,89L74.229,89L76.39,89L77.485,89L79.623,89L80.672,89L82.832,89L83.922,89L84.345,89L85.071,89L85.79,89L86.071,89L87.127,89L89.281,89L90.374,89L91.523,89L92.52,89L93.574,89L95.731,89L96.82,89L97.965,89L98.968,89L100.02,89L102.174,89L103.254,89L104.395,89L105.402,89L106.416,89L106.466,89L108.626,89L109.315,89L109.701,89L110.848,89L111.855,89L112.918,89L115.097,89L116.181,89L117.325,89L118.313,89L119.367,89L121.536,89L122.627,89L123.779,89L124.767,89L125.821,89L127.978,89L129.066,89L130.215,89L131.214,89L132.269,89L134.426,89L135.519,89L136.659,89L137.668,89L138.717,89L140.879,89L141.967,89L143.113,89L144.106,89L145.169,89L147.322,89L147.875,89L148.398,89L149.535,89L150.545,89L151.616,89L153.769,89L154.847,89L155.989,89L156.996,89L158.065,89L160.231,89L161.327,89L162.478,89L163.468,89L164.525,89L166.678,89L167.775,89L168.964,89L169.922,89L170.967,89L173.119,89L174.218,89L175.362,89L176.362,89L177.42,89L179.577,89L180.666,89L181.809,89L182.799,89L183.864,89L186.022,89L187.113,89L188.256,89L189.252,89L190.314,89L192.468,89L193.548,89L194.686,89L195.69,89L196.764,89L198.92,89L199.998,89" stroke="#ff9da6" stroke-width="2"/></g></g><path class="foreground" aria-hidden="true" d="" display="none"/></g><g transform="translate(0,0)"><path class="background" aria-hidden="true" d="M0,0h200v200h-200Z"/><g><g class="mark-line role-mark marks" role="graphics-object" aria-roledescription="line mark container"><path aria-label="Time: Aug 14, 2025; Price: 999; identifier: fastroad-sl-3-2022" role="graphics-symbol" aria-roledescription="line mark" d="M0,89L0.054,89L0.096,89L1.285,89L2.231,89L3.291,89L5.466,89L6.534,89L7.714,89L8.681,89L9.736,89L11.895,89L12.976,89L14.121,89L15.119,89L16.186,89L18.37,89L19.424,89L20.574,89L21.573,89L22.635,89L24.838,89L25.897,89L27.085,89L27.502,89L28.044,89L29.078,89L31.239,89L32.331,89L33.476,89L34.477,89L35.526,89L37.691,89L38.772,89L39.965,89L40.447,89L40.925,89L41.983,89L44.137,89L45.227,89L46.378,89L47.379,89L48.43,89L50.589,89L51.675,89L52.825,89L53.822,89L54.876,89L57.034,89L58.115,89L59.255,89L60.255,89L61.32,89L63.492,89L64.561,89L65.709,89L66.713,89L67.772,89L69.951,89L71.039,89L72.216,89L73.179,89L74.229,89L76.39,89L77.485,89L79.623,89L80.672,89L82.832,89L83.922,89L84.345,89L85.071,89L85.79,89L86.072,89L87.127,89L89.281,89L90.374,89L91.523,89L92.52,89L93.574,89L95.731,89L96.82,89L97.966,89L98.968,89L100.02,89L102.174,89L103.255,89L104.396,89L105.402,89L106.416,89L106.466,89L108.626,89L109.315,89L109.702,89L110.849,89L111.855,89L112.919,89L115.097,89L116.181,89L117.325,89L118.313,89L119.367,89L121.536,89L122.627,89L123.779,89L124.767,89L125.821,89L127.978,89L129.066,89L130.215,89L131.214,89L132.269,89L134.426,89L135.519,89L136.659,89L137.669,89L138.717,89L140.879,89L141.967,89L143.113,89L144.106,89L145.169,89L147.322,89L147.875,89L148.398,89L149.536,89L150.545,89L151.616,89L153.769,89L154.847,89L155.989,89L156.996,89L158.065,89L160.231,89L161.327,89L162.478,89L163.469,89L164.525,89L166.678,89L167.775,89L168.964,89L169.923,89L170.967,89L173.119,89L174.218,89L175.362,89L176.362,89L177.42,89L179.577,89L180.666,89L181.809,89L182.8,89L183.865,89L186.022,89L187.113,89L188.256,89L189.252,89L190.314,89L192.468,89L193.548,89L194.686,89L195.69,89L196.765,89L198.92,89L199.998,89" stroke="#9d755d" stroke-width="2"/></g></g><path class="foreground" aria-hidden="true" d="" display="none"/></g><g transform="translate(0,0)"><path class="background" aria-hidden="true" d="M0,0h200v200h-200Z"/><g><g class="mark-line role-mark marks" role="graphics-object" aria-roledescription="line mark container"><path aria-label="Time: Aug 14, 2025; Price: 1199; identifier: fastroad-ar-2" role="graphics-symbol" aria-roledescription="line mark" d="M0,66.778L0.054,66.778L0.096,66.778L1.285,66.778L2.231,66.778L3.291,66.778L5.466,66.778L6.534,66.778L7.714,66.778L8.681,66.778L9.737,66.778L11.895,66.778L12.976,66.778L14.121,66.778L15.119,66.778L16.192,66.778L18.37,66.778L19.424,66.778L20.574,66.778L21.573,66.778L22.635,66.778L24.838,66.778L25.897,66.778L27.086,66.778L27.503,66.778L28.044,66.778L29.078,66.778L31.239,66.778L32.331,66.778L33.477,66.778L34.477,66.778L35.526,66.778L37.691,66.778L38.773,66.778L39.965,66.778L40.447,66.778L40.925,66.778L41.984,66.778L44.137,66.778L45.227,66.778L46.378,66.778L47.379,66.778L48.43,66.778L50.589,66.778L51.676,66.778L52.826,66.778L53.822,66.778L54.876,66.778L57.034,66.778L58.115,66.778L59.255,66.778L60.255,66.778L61.32,66.778L63.492,66.778L64.561,66.778L65.709,66.778L66.713,66.778L67.772,66.778L69.951,66.778L71.039,66.778L72.216,66.778L73.179,66.778L74.229,66.778L76.391,66.778L77.485,66.778L79.623,66.778L80.672,66.778L82.832,66.778L83.922,66.778L84.345,66.778L85.071,66.778L85.79,66.778L86.072,66.778L87.127,66.778L89.281,66.778L90.375,66.778L91.523,66.778L92.521,66.778L93.574,66.778L95.731,66.778L96.82,66.778L97.966,66.778L98.968,66.778L100.021,66.778L102.174,66.778L103.255,66.778L104.396,66.778L105.402,66.778L106.416,66.778L106.466,66.778L108.626,66.778L109.315,66.778L109.702,66.778L110.849,66.778L111.855,66.778L112.919,66.778L115.097,66.778L116.181,66.778L117.326,66.778L118.313,66.778L119.367,66.778L121.537,66.778L122.627,66.778L123.78,66.778L124.767,66.778L125.821,66.778L127.978,66.778L129.067,66.778L130.215,66.778L131.214,66.778L132.269,66.778L134.426,66.778L135.519,66.778L136.659,66.778L137.669,66.778L138.718,66.778L140.879,66.778L141.967,66.778L143.113,66.778L144.106,66.778L145.17,66.778L147.322,66.778L147.875,66.778L148.398,66.778L149.536,66.778L150.546,66.778L151.616,66.778L153.77,66.778L154.847,66.778L155.99,66.778L156.996,66.778L158.065,66.778L160.231,66.778L161.327,66.778L162.478,66.778L163.469,66.778L164.525,66.778L166.678,66.778L167.775,66.778L168.964,66.778L169.923,66.778L170.968,66.778L173.119,66.778L174.218,66.778L175.362,66.778L176.362,66.778L177.42,66.778L179.577,66.778L180.666,66.778L181.809,66.778L182.8,66.778L183.865,66.778L186.022,66.778L187.113,66.778L188.256,66.778L189.253,66.778L190.314,66.778L192.468,66.778L193.548,66.778L194.687,66.778L195.69,66.778L196.765,66.778L198.92,66.778L199.998,66.778" stroke="#54a24b" stroke-width="2"/></g></g><path class="foreground" aria-hidden="true" d="" display="none"/></g><g transform="translate(0,0)"><path class="background" aria-hidden="true" d="M0,0h200v200h-200Z"/><g><g class="mark-line role-mark marks" role="graphics-object" aria-roledescription="line mark container"><path aria-label="Time: Aug 18, 2025; Price: 899; identifier: sdrbike-escape-1-city-disc" role="graphics-symbol" aria-roledescription="line mark" d="M27.503,100.111L28.044,100.111L29.079,100.111L31.239,100.111L32.331,100.111L33.477,100.111L34.477,100.111L35.526,100.111L37.692,100.111L38.773,100.111L39.965,100.111L40.448,100.111L40.925,100.111L41.984,100.111L44.138,100.111L45.228,100.111L46.379,100.111L47.379,100.111L48.43,100.111L50.589,100.111L51.676,100.111L52.826,100.111L53.822,100.111L54.877,100.111L57.034,100.111L58.116,100.111L59.256,100.111L60.255,100.111L61.32,100.111L63.492,100.111L64.561,100.111L65.709,100.111L66.713,100.111L67.772,100.111L69.951,100.111L71.039,100.111L72.216,100.111L73.179,100.111L74.229,100.111L76.391,100.111L77.485,100.111L79.623,100.111L80.673,100.111L82.832,100.111L83.922,100.111L84.346,100.111L85.071,100.111L85.79,100.111L86.072,100.111L87.127,100.111L89.281,100.111L90.375,100.111L91.524,100.111L92.521,100.111L93.575,100.111L95.731,100.111L96.82,100.111L97.966,100.111L98.968,100.111L100.021,100.111L102.174,100.111L103.255,100.111L104.396,100.111L105.402,100.111L106.416,100.111L106.467,100.111L108.627,100.111L109.316,100.111L109.702,100.111L110.849,100.111L111.856,100.111L112.919,100.111L115.097,100.111L116.181,100.111L117.326,100.111L118.314,100.111L119.367,100.111L121.537,100.111L122.627,100.111L123.78,100.111L124.768,100.111L125.822,100.111L127.978,100.111L129.067,100.111L130.216,100.111L131.214,100.111L132.269,100.111L134.426,100.111L135.519,100.111L136.66,100.111L137.669,100.111L138.718,100.111L140.879,100.111L141.967,100.111L143.113,100.111L144.107,100.111L145.17,100.111L147.322,100.111L147.875,100.111L148.398,100.111L149.536,100.111L150.546,100.111L151.616,100.111L153.77,100.111L154.847,100.111L155.99,100.111L156.996,100.111L158.066,100.111L160.231,100.111L161.328,100.111L162.478,100.111L163.469,100.111L164.525,100.111L166.678,100.111L167.775,100.111L168.964,100.111L169.923,100.111L170.968,100.111L173.119,100.111L174.219,100.111L175.362,100.111L176.363,100.111L177.42,100.111L179.577,100.111L180.666,100.111L181.809,100.111L182.8,100.111L183.865,100.111L186.022,100.111L187.114,100.111L188.256,100.111L189.253,100.111L190.314,100.111L192.468,100.111L193.548,100.111L194.687,100.111L195.69,100.111L196.765,100.111L198.92,100.111L199.998,100.111" stroke="#f58518" stroke-width="2"/></g></g><path class="foreground" aria-hidden="true" d="" display="none"/></g><g transform="translate(0,0)"><path class="background" aria-hidden="true" d="M0,0h200v200h-200Z"/><g><g class="mark-line role-mark marks" role="graphics-object" aria-roledescription="line mark container"><path aria-label="Time: Aug 20, 2025; Price: 899; identifier: roam-disc-2-2024" role="graphics-symbol" aria-roledescription="line mark" d="M40.447,100.111L40.924,100.111L41.983,100.111L44.137,100.111L45.227,100.111L46.378,100.111L47.379,100.111L48.43,100.111L50.589,100.111L51.675,100.111L52.825,100.111L53.822,100.111L54.876,100.111L57.034,100.111L58.115,100.111L59.255,100.111L60.255,100.111L61.319,100.111L63.491,100.111L64.56,100.111L65.708,100.111L66.713,100.111L67.771,100.111L69.951,100.111L71.039,100.111L72.216,100.111L73.179,100.111L74.229,100.111L76.39,100.111L77.485,100.111L79.622,100.111L80.672,100.111L82.832,100.111L83.922,100.111L84.345,100.111L85.07,100.111L85.79,100.111L86.071,100.111L87.126,100.111L89.28,100.111L90.374,100.111L91.523,100.111L92.52,100.111L93.574,100.111L95.731,100.111L96.82,100.111L97.965,100.111L98.967,100.111L100.02,100.111L102.173,100.111L103.254,100.111L104.395,100.111L105.402,100.111L106.416,100.111L106.466,100.111L108.626,100.111L109.315,100.111L109.701,100.111L110.848,100.111L111.855,100.111L112.918,100.111L115.097,100.111L116.181,100.111L117.325,100.111L118.313,100.111L119.367,100.111L121.536,100.111L122.627,100.111L123.779,100.111L124.767,100.111L125.821,100.111L127.978,100.111L129.066,100.111L130.215,100.111L131.214,100.111L132.269,100.111L134.426,100.111L135.518,100.111L136.659,100.111L137.668,100.111L138.717,100.111L140.878,100.111L141.967,100.111L143.112,100.111L144.106,100.111L145.169,100.111L147.321,100.111L147.875,100.111L148.398,100.111L149.535,100.111L150.545,100.111L151.616,100.111L153.769,100.111L154.847,100.111L155.989,100.111L156.996,100.111L158.065,100.111L160.23,100.111L161.327,100.111L162.477,100.111L163.468,100.111L164.525,100.111L166.677,100.111L167.774,100.111L168.963,100.111L169.922,100.111L170.967,100.111L173.118,100.111L174.218,100.111L175.361,100.111L176.362,100.111L177.42,100.111L179.577,100.111L180.666,100.111L181.809,100.111L182.799,100.111L183.864,100.111L186.022,100.111L187.113,100.111L188.255,100.111L189.252,100.111L190.314,100.111L192.468,100.111L193.547,100.111L194.686,100.111L195.69,100.111L196.764,100.111L198.92,100.111L199.997,100.111" stroke="#e45756" stroke-width="2"/></g></g><path class="foreground" aria-hidden="true" d="" display="none"/></g><g transform="translate(0,0)"><path class="background" aria-hidden="true" d="M0,0h200v200h-200Z"/><g><g class="mark-line role-mark marks" role="graphics-object" aria-roledescription="line mark container"><path aria-label="Time: Aug 20, 2025; Price: 1199; identifier: thrive-2" role="graphics-symbol" aria-roledescription="line mark" d="M40.448,66.778L40.925,66.778L41.984,66.778L44.138,66.778L45.228,66.778L46.379,66.778L47.379,66.778L48.43,66.778L50.589,66.778L51.676,66.778L52.826,66.778L53.822,66.778L54.877,66.778L57.035,66.778L58.116,66.778L59.256,66.778L60.255,66.778L61.32,66.778L63.492,66.778L64.561,66.778L65.71,66.778L66.713,66.778L67.772,66.778L69.951,66.778L71.04,66.778L72.216,66.778L73.18,66.778L74.23,66.778L76.391,66.778L77.486,66.778L79.623,66.778L80.673,66.778L82.833,66.778L83.922,66.778L84.346,66.778L85.071,66.778L85.79,66.778L86.072,66.778L87.127,66.778L89.281,66.778L90.375,66.778L91.524,66.778L92.521,66.778L93.575,66.778L95.732,66.778L96.821,66.778L97.966,66.778L98.968,66.778L100.021,66.778L102.174,66.778L103.255,66.778L104.396,66.778L105.402,66.778L106.417,66.778L106.467,66.778L108.627,66.778L109.316,66.778L109.702,66.778L110.849,66.778L111.856,66.778L112.919,66.778L115.097,66.778L116.181,66.778L117.326,66.778L118.314,66.778L119.368,66.778L121.537,66.778L122.627,66.778L123.78,66.778L124.768,66.778L125.822,66.778L127.978,66.778L129.067,66.778L130.216,66.778L131.215,66.778L132.269,66.778L134.427,66.778L135.519,66.778L136.66,66.778L137.669,66.778L138.718,66.778L140.879,66.778L141.968,66.778L143.113,66.778L144.107,66.778L145.17,66.778L147.322,66.778L147.875,66.778L148.398,66.778L149.536,66.778L150.546,66.778L151.616,66.778L153.77,66.778L154.848,66.778L155.99,66.778L156.996,66.778L158.066,66.778L160.231,66.778L161.328,66.778L162.478,66.778L163.469,66.778L164.525,66.778L166.678,66.778L167.775,66.778L168.964,66.778L169.923,66.778L170.968,66.778L173.119,66.778L174.219,66.778L175.362,66.778L176.363,66.778L177.421,66.778L179.578,66.778L180.666,66.778L181.809,66.778L182.8,66.778L183.865,66.778L186.022,66.778L187.114,66.778L188.256,66.778L189.253,66.778L190.315,66.778L192.468,66.778L193.548,66.778L194.687,66.778L195.69,66.778L196.765,66.778L198.921,66.778L199.998,66.778" stroke="#eeca3b" stroke-width="2"/></g></g><path class="foreground" aria-hidden="true" d="" display="none"/></g><g transform="translate(0,0)"><path class="background" aria-hidden="true" d="M0,0h200v200h-200Z"/><g><g class="mark-line role-mark marks" role="graphics-object" aria-roledescription="line mark container"><path aria-label="Time: Aug 20, 2025; Price: 999; identifier: rove-2" role="graphics-symbol" aria-roledescription="line mark" d="M40.448,89L40.925,89L41.984,89L44.138,89L45.228,89L46.379,89L47.379,89L48.431,89L50.59,89L51.676,89L52.826,89L53.823,89L54.877,89L57.035,89L58.116,89L59.256,89L60.256,89L61.32,89L63.493,89L64.562,89L65.71,89L66.713,89L67.772,89L69.951,89L71.04,89L72.217,89L73.18,89L74.23,89L76.391,89L77.486,89L79.623,89L80.673,89L82.833,89L83.922,89L84.347,89L85.071,89L85.79,89L86.072,89L87.128,89L89.281,89L90.375,89L91.524,89L92.521,89L93.575,89L95.732,89L96.821,89L97.966,89L98.968,89L100.021,89L106.417,111.222L106.467,111.222L108.627,111.222L109.316,111.222L109.702,111.222L110.849,111.222L111.856,111.222L112.919,111.222L115.097,111.222L116.182,111.222L117.326,111.222L118.314,111.222L119.368,111.222L121.537,111.222L122.627,111.222L123.78,111.222L124.768,111.222L125.822,111.222L127.979,111.222L129.067,111.222L130.216,111.222L131.215,111.222L132.27,111.222L134.427,111.222L135.52,111.222L136.66,111.222L137.669,111.222L138.718,111.222L140.879,111.222L141.968,111.222L143.113,111.222L144.107,111.222L145.17,111.222L147.322,111.222L147.875,111.222L148.399,111.222L149.536,111.222L150.546,111.222L151.616,111.222L153.77,111.222L154.848,111.222L155.99,111.222L156.997,111.222L158.066,111.222L160.231,111.222L161.328,111.222L162.478,111.222L163.469,111.222L164.526,111.222L166.678,111.222L167.775,111.222L168.965,111.222L169.923,111.222L170.968,111.222L173.119,111.222L174.219,111.222L175.362,111.222L176.363,111.222L177.421,111.222L179.578,111.222L180.667,111.222L181.81,111.222L182.8,111.222L183.865,111.222L186.023,111.222L187.114,111.222L188.256,111.222L189.253,111.222L190.315,111.222L192.468,111.222L193.548,111.222L194.687,111.222L195.691,111.222L196.765,111.222L198.921,111.222L199.999,111.222" stroke="#72b7b2" stroke-width="2"/></g></g><path class="foreground" aria-hidden="true" d="" display="none"/></g><g transform="translate(0,0)"><path class="background" aria-hidden="true" d="M0,0h200v200h-200Z"/><g><g class="mark-line role-mark marks" role="graphics-object" aria-roledescription="line mark container"><path aria-label="Time: Aug 27, 2025; Price: 1199; identifier: allure-rs-1-2023" role="graphics-symbol" aria-roledescription="line mark" d="M84.347,66.778L85.071,66.778L85.791,66.778L86.072,66.778L87.128,66.778L89.282,66.778L90.375,66.778L91.524,66.778L92.521,66.778L93.575,66.778L95.732,66.778L96.821,66.778L97.966,66.778L98.968,66.778L100.021,66.778L102.174,66.778L103.255,66.778L104.397,66.778L105.403,66.778L106.417,66.778L106.467,66.778L108.627,66.778L109.316,66.778L109.703,66.778L110.85,66.778L111.856,66.778L112.919,66.778L115.098,66.778L116.182,66.778L117.326,66.778L118.314,66.778L119.368,66.778L121.537,66.778L122.628,66.778L123.78,66.778L124.768,66.778L125.822,66.778L127.979,66.778L129.067,66.778L130.216,66.778L131.215,66.778L132.27,66.778L134.427,66.778L135.52,66.778L136.66,66.778L137.669,66.778L138.718,66.778L140.879,66.778L141.968,66.778L143.113,66.778L144.107,66.778L145.17,66.778L147.322,66.778L147.876,66.778L148.399,66.778L149.536,66.778L150.546,66.778L151.616,66.778L153.77,66.778L154.848,66.778L155.99,66.778L156.997,66.778L158.066,66.778L160.231,66.778L161.328,66.778L162.479,66.778L163.469,66.778L164.526,66.778L166.679,66.778L167.775,66.778L168.965,66.778L169.924,66.778L170.968,66.778L173.119,66.778L174.219,66.778L175.363,66.778L176.363,66.778L177.421,66.778L179.578,66.778L180.667,66.778L181.81,66.778L182.8,66.778L183.865,66.778L186.023,66.778L187.114,66.778L188.257,66.778L189.253,66.778L190.315,66.778L192.469,66.778L193.548,66.778L194.687,66.778L195.691,66.778L196.765,66.778L198.921,66.778L199.999,66.778" stroke="#b279a2" stroke-width="2"/></g></g><path class="foreground" aria-hidden="true" d="" display="none"/></g><g transform="translate(0,0)"><path class="background" aria-hidden="true" d="M0,0h200v200h-200Z"/><g><g class="mark-line role-mark marks" role="graphics-object" aria-roledescription="line mark container"><path aria-label="Time: Aug 27, 2025; Price: 999; identifier: allure-rs-2-2022" role="graphics-symbol" aria-roledescription="line mark" d="M84.347,89L85.072,89L85.791,89L86.072,89L87.128,89L89.282,89L90.376,89L91.524,89L92.521,89L93.575,89L95.732,89L96.821,89L97.967,89L98.968,89L100.022,89L106.417,111.222L106.467,111.222L108.627,111.222L109.316,111.222L109.703,111.222L110.85,111.222L111.856,111.222L112.919,111.222L115.098,111.222L116.182,111.222L117.326,111.222L118.314,111.222L119.368,111.222L121.537,111.222L122.628,111.222L123.781,111.222L124.768,111.222L125.822,111.222L127.979,111.222L129.067,111.222L130.216,111.222L131.215,111.222L132.27,111.222L134.427,111.222L135.52,111.222L136.66,111.222L137.67,111.222L138.718,111.222L140.88,111.222L141.968,111.222L143.114,111.222L144.107,111.222L145.17,111.222L147.323,111.222L147.876,111.222L148.399,111.222L149.537,111.222L150.546,111.222L151.617,111.222L153.77,111.222L154.848,111.222L155.99,111.222L156.997,111.222L158.066,111.222L160.232,111.222L161.328,111.222L162.479,111.222L163.47,111.222L164.526,111.222L166.679,111.222L167.776,111.222L168.965,111.222L169.924,111.222L170.968,111.222L173.12,111.222L174.219,111.222L175.363,111.222L176.363,111.222L177.421,111.222L179.578,111.222L180.667,111.222L181.81,111.222L182.801,111.222L183.866,111.222L186.023,111.222L187.114,111.222L188.257,111.222L189.253,111.222L190.315,111.222L192.469,111.222L193.549,111.222L194.688,111.222L195.691,111.222L196.766,111.222L198.921,111.222L199.999,111.222" stroke="#54a24b" stroke-width="2"/></g></g><path class="foreground" aria-hidden="true" d="" display="none"/></g><g transform="translate(0,0)"><path class="background" aria-hidden="true" d="M0,0h200v200h-200Z"/><g><g class="mark-line role-mark marks" role="graphics-object" aria-roledescription="line mark container"><path aria-label="Time: Aug 27, 2025; Price: 949; identifier: allure-rs-2-2023" role="graphics-symbol" aria-roledescription="line mark" d="M84.348,94.556L85.072,94.556L85.791,94.556L86.073,94.556L87.128,94.556L89.282,94.556L90.376,94.556L91.525,94.556L92.521,94.556L93.575,94.556L95.732,94.556L96.821,94.556L97.967,94.556L98.969,94.556L100.022,94.556L102.175,94.556L103.256,94.556L104.397,94.556L105.403,94.556L106.417,94.556L106.467,94.556L108.627,94.556L109.316,94.556L109.703,94.556L110.85,94.556L111.856,94.556L112.919,94.556L115.098,94.556L116.182,94.556L117.327,94.556L118.315,94.556L119.368,94.556L121.538,94.556L122.628,94.556L123.781,94.556L124.768,94.556L125.822,94.556L127.979,94.556L129.067,94.556L130.216,94.556L131.215,94.556L132.27,94.556L134.427,94.556L135.52,94.556L136.66,94.556L137.67,94.556L138.719,94.556L140.88,94.556L141.968,94.556L143.114,94.556L144.107,94.556L145.17,94.556L147.323,94.556L147.876,94.556L148.399,94.556L149.537,94.556L150.546,94.556L151.617,94.556L153.771,94.556L154.848,94.556L155.991,94.556L156.997,94.556L158.066,94.556L160.232,94.556L161.329,94.556L162.479,94.556L163.47,94.556L164.526,94.556L166.679,94.556L167.776,94.556L168.965,94.556L169.924,94.556L170.968,94.556L173.12,94.556L174.22,94.556L175.363,94.556L176.363,94.556L177.421,94.556L179.578,94.556L180.667,94.556L181.81,94.556L182.801,94.556L183.866,94.556L186.023,94.556L187.115,94.556L188.257,94.556L189.253,94.556L190.315,94.556L192.469,94.556L193.549,94.556L194.688,94.556L195.691,94.556L196.766,94.556L198.921,94.556L199.999,94.556" stroke="#bab0ac" stroke-width="2"/></g></g><path class="foreground" aria-hidden="true" d="" display="none"/></g><g transform="translate(0,0)"><path class="background" aria-hidden="true" d="M0,0h200v200h-200Z"/><g><g class="mark-line role-mark marks" role="graphics-object" aria-roledescription="line mark container"><path aria-label="Time: Aug 27, 2025; Price: 999; identifier: allure-rs-2-2024" role="graphics-symbol" aria-roledescription="line mark" d="M84.348,89L85.072,89L85.791,89L86.073,89L87.128,89L89.282,89L90.376,89L91.525,89L92.522,89L93.575,89L95.732,89L96.821,89L97.967,89L98.969,89L100.022,89L106.418,111.222L106.467,111.222L108.627,111.222L109.316,111.222L109.703,111.222L110.85,111.222L111.856,111.222L112.92,111.222L115.098,111.222L116.182,111.222L117.327,111.222L118.315,111.222L119.368,111.222L121.538,111.222L122.628,111.222L123.781,111.222L124.768,111.222L125.823,111.222L127.979,111.222L129.068,111.222L130.216,111.222L131.215,111.222L132.27,111.222L134.427,111.222L135.52,111.222L136.66,111.222L137.67,111.222L138.719,111.222L140.88,111.222L141.968,111.222L143.114,111.222L144.108,111.222L145.171,111.222L147.323,111.222L147.876,111.222L148.399,111.222L149.537,111.222L150.547,111.222L151.617,111.222L153.771,111.222L154.848,111.222L155.991,111.222L156.997,111.222L158.066,111.222L160.232,111.222L161.329,111.222L162.479,111.222L163.47,111.222L164.526,111.222L166.679,111.222L167.776,111.222L168.965,111.222L169.924,111.222L170.969,111.222L173.12,111.222L174.22,111.222L175.363,111.222L176.364,111.222L177.422,111.222L179.578,111.222L180.667,111.222L181.81,111.222L182.801,111.222L183.866,111.222L186.023,111.222L187.115,111.222L188.257,111.222L189.254,111.222L190.315,111.222L192.469,111.222L193.549,111.222L194.688,111.222L195.691,111.222L196.766,111.222L198.921,111.222L199.999,111.222" stroke="#eeca3b" stroke-width="2"/></g></g><path class="foreground" aria-hidden="true" d="" display="none"/></g><g transform="translate(0,0)"><path class="background" aria-hidden="true" d="M0,0h200v200h-200Z"/><g><g class="mark-line role-mark marks" role="graphics-object" aria-roledescription="line mark container"><path aria-label="Time: Aug 27, 2025; Price: 1799; identifier: devote-1-2024" role="graphics-symbol" aria-roledescription="line mark" d="M85.791,0.111L86.073,0.111L87.128,0.111L89.282,0.111L90.376,0.111L91.525,0.111L92.522,0.111L93.575,0.111L95.732,0.111L96.821,0.111L97.967,0.111L98.969,0.111L100.022,0.111L106.418,44.556L106.467,44.556L108.628,44.556L109.316,44.556L109.703,44.556L110.85,44.556L111.856,44.556L112.92,44.556L115.098,44.556L116.182,44.556L117.327,44.556L118.315,44.556L119.369,44.556L121.538,44.556L122.628,44.556L123.781,44.556L124.769,44.556L125.823,44.556L127.979,44.556L129.068,44.556L130.217,44.556L131.215,44.556L132.27,44.556L134.428,44.556L135.52,44.556L136.661,44.556L137.67,44.556L138.719,44.556L140.88,44.556L141.968,44.556L143.114,44.556L144.108,44.556L145.171,44.556L147.323,44.556L147.876,44.556L148.399,44.556L149.537,44.556L150.547,44.556L151.617,44.556L153.771,44.556L154.848,44.556L155.991,44.556L156.997,44.556L158.067,44.556L160.232,44.556L161.329,44.556L162.479,44.556L163.47,44.556L164.526,44.556L166.679,44.556L167.776,44.556L168.966,44.556L169.924,44.556L170.969,44.556L173.12,44.556L174.22,44.556L175.363,44.556L176.364,44.556L177.422,44.556L179.579,44.556L180.667,44.556L181.81,44.556L182.801,44.556L183.866,44.556L186.023,44.556L187.115,44.556L188.258,44.556L189.254,44.556L190.315,44.556L192.469,44.556L193.549,44.556L194.688,44.556L195.691,44.556L196.766,44.556L198.922,44.556L199.999,44.556" stroke="#72b7b2" stroke-width="2"/></g></g><path class="foreground" aria-hidden="true" d="" display="none"/></g><g transform="translate(0,0)"><path class="background" aria-hidden="true" d="M0,0h200v200h-200Z"/><g><g class="mark-line role-mark marks" role="graphics-object" aria-roledescription="line mark container"><path aria-label="Time: Aug 27, 2025; Price: 1699; identifier: devote-1-2022" role="graphics-symbol" aria-roledescription="line mark" d="M85.791,11.222L86.073,11.222L87.128,11.222L89.282,11.222L90.376,11.222L91.525,11.222L92.522,11.222L93.575,11.222L95.733,11.222L96.821,11.222L97.967,11.222L98.969,11.222L100.022,11.222L102.175,11.222L103.256,11.222L104.397,11.222L105.403,11.222L106.418,11.222L106.468,11.222L108.628,11.222L109.316,11.222L109.703,11.222L110.85,11.222L111.857,11.222L112.92,11.222L115.098,11.222L116.182,11.222L117.327,11.222L118.315,11.222L119.369,11.222L121.538,11.222L122.628,11.222L123.781,11.222L124.769,11.222L125.823,11.222L127.979,11.222L129.068,11.222L130.217,11.222L131.215,11.222L132.27,11.222L134.428,11.222L135.52,11.222L136.661,11.222L137.67,11.222L138.719,11.222L140.88,11.222L141.968,11.222L143.114,11.222L144.108,11.222L145.171,11.222L147.323,11.222L147.876,11.222L148.4,11.222L149.537,11.222L150.547,11.222L151.617,11.222L153.771,11.222L154.849,11.222L155.991,11.222L156.997,11.222L158.067,11.222L160.232,11.222L161.329,11.222L162.479,11.222L163.47,11.222L164.526,11.222L166.679,11.222L167.776,11.222L168.966,11.222L169.924,11.222L170.969,11.222L173.12,11.222L174.22,11.222L175.363,11.222L176.364,11.222L177.422,11.222L179.579,11.222L180.667,11.222L181.81,11.222L182.801,11.222L183.866,11.222L186.023,11.222L187.115,11.222L188.258,11.222L189.254,11.222L190.316,11.222L192.469,11.222L193.549,11.222L194.688,11.222L195.692,11.222L196.766,11.222L198.922,11.222L199.999,11.222" stroke="#4c78a8" stroke-width="2"/></g></g><path class="foreground" aria-hidden="true" d="" display="none"/></g><g transform="translate(0,0)"><path class="background" aria-hidden="true" d="M0,0h200v200h-200Z"/><g><g class="mark-line role-mark marks" role="graphics-object" aria-roledescription="line mark container"><path aria-label="Time: Aug 31, 2025; Price: 1599; identifier: silex-400-oak-bork-2026" role="graphics-symbol" aria-roledescription="line mark" d="M109.317,22.333L109.704,22.333L110.851,22.333L111.857,22.333L112.92,22.333L115.098,22.333L116.183,22.333L117.327,22.333L118.315,22.333L119.369,22.333L121.538,22.333L122.629,22.333L123.782,22.333L124.769,22.333L125.823,22.333L127.98,22.333L129.068,22.333L130.217,22.333L131.216,22.333L132.271,22.333L134.428,22.333L135.521,22.333L136.661,22.333L137.671,22.333L138.719,22.333L140.88,22.333L141.969,22.333L143.114,22.333L144.108,22.333L145.171,22.333L147.323,22.333L147.876,22.333L148.4,22.333L149.538,22.333L150.547,22.333L151.617,22.333L153.771,22.333L154.849,22.333L155.991,22.333L156.998,22.333L158.067,22.333L160.232,22.333L161.329,22.333L162.48,22.333L163.47,22.333L164.527,22.333L166.68,22.333L167.776,22.333L168.966,22.333L169.925,22.333L170.969,22.333L173.121,22.333L174.22,22.333L175.364,22.333L176.364,22.333L177.422,22.333L179.579,22.333L180.668,22.333L181.811,22.333L182.802,22.333L183.866,22.333L186.024,22.333L187.115,22.333L188.258,22.333L189.254,22.333L190.316,22.333L192.47,22.333L193.549,22.333L194.688,22.333L195.692,22.333L196.767,22.333L198.922,22.333L200,22.333" stroke="#f58518" stroke-width="2"/></g></g><path class="foreground" aria-hidden="true" d="" display="none"/></g><g transform="translate(0,0)"><path class="background" aria-hidden="true" d="M0,0h200v200h-200Z"/><g><g class="mark-line role-mark marks" role="graphics-object" aria-roledescription="line mark container"><path aria-label="Time: Aug 31, 2025; Price: 1599; identifier: silex-400-warm-slate-grey-2026" role="graphics-symbol" aria-roledescription="line mark" d="M109.317,22.333L109.704,22.333L110.851,22.333L111.857,22.333L112.92,22.333L115.099,22.333L116.183,22.333L117.328,22.333L118.316,22.333L119.369,22.333L121.539,22.333L122.629,22.333L123.782,22.333L124.769,22.333L125.824,22.333L127.98,22.333L129.068,22.333L130.217,22.333L131.216,22.333L132.271,22.333L134.428,22.333L135.521,22.333L136.661,22.333L137.671,22.333L138.72,22.333L140.881,22.333L141.969,22.333L143.115,22.333L144.108,22.333L145.171,22.333L147.324,22.333L147.877,22.333L148.4,22.333L149.538,22.333L150.547,22.333L151.618,22.333L153.771,22.333L154.849,22.333L155.992,22.333L156.998,22.333L158.067,22.333L160.233,22.333L161.33,22.333L162.48,22.333L163.471,22.333L164.527,22.333L166.68,22.333L167.777,22.333L168.966,22.333L169.925,22.333L170.97,22.333L173.121,22.333L174.221,22.333L175.364,22.333L176.364,22.333L177.423,22.333L179.579,22.333L180.668,22.333L181.811,22.333L182.802,22.333L183.867,22.333L186.024,22.333L187.116,22.333L188.258,22.333L189.254,22.333L190.316,22.333L192.47,22.333L193.55,22.333L194.689,22.333L195.692,22.333L196.767,22.333L198.922,22.333L200,22.333" stroke="#e45756" stroke-width="2"/></g></g><path class="foreground" aria-hidden="true" d="" display="none"/></g></g><g class="mark-group role-legend" role="graphics-symbol" aria-roledescription="legend" aria-label="Symbol legend titled 'identifier' for stroke color with 16 values: devote-1-2022, silex-400-oak-bork-2026, silex-400-warm-slate-grey-2026, devote-1-2024, fastroad-ar-2, ending with allure-rs-2-2024"><g transform="translate(220,0)"><path class="background" aria-hidden="true" d="M0,0h256v222h-256Z" pointer-events="none"/><g><g class="mark-group role-legend-entry"><g transform="translate(0,16)"><path class="background" aria-hidden="true" d="M0,0h0v0h0Z" pointer-events="none"/><g><g class="mark-group role-scope" role="graphics-object" aria-roledescription="group mark container"><g transform="translate(0,0)"><path class="background" aria-hidden="true" d="M0,0h256v11h-256Z" pointer-events="none" opacity="1"/><g><g class="mark-symbol role-legend-symbol" pointer-events="none"><path transform="translate(6,6)" d="M-5,0L5,0" stroke="#4c78a8" stroke-width="1.5" opacity="1"/></g><g class="mark-text role-legend-label" pointer-events="none"><text text-anchor="start" transform="translate(16,9)" font-family="Liberation Mono" font-size="10px" fill="#000" opacity="1">devote-1-2022</text></g></g><path class="foreground" aria-hidden="true" d="" pointer-events="none" display="none"/></g><g transform="translate(0,13)"><path class="background" aria-hidden="true" d="M0,0h256v11h-256Z" pointer-events="none" opacity="1"/><g><g class="mark-symbol role-legend-symbol" pointer-events="none"><path transform="translate(6,6)" d="M-5,0L5,0" stroke="#f58518" stroke-width="1.5" opacity="1"/></g><g class="mark-text role-legend-label" pointer-events="none"><text text-anchor="start" transform="translate(16,9)" font-family="Liberation Mono" font-size="10px" fill="#000" opacity="1">silex-400-oak-bork-2026</text></g></g><path class="foreground" aria-hidden="true" d="" pointer-events="none" display="none"/></g><g transform="translate(0,26)"><path class="background" aria-hidden="true" d="M0,0h256v11h-256Z" pointer-events="none" opacity="1"/><g><g class="mark-symbol role-legend-symbol" pointer-events="none"><path transform="translate(6,6)" d="M-5,0L5,0" stroke="#e45756" stroke-width="1.5" opacity="1"/></g><g class="mark-text role-legend-label" pointer-events="none"><text text-anchor="start" transform="translate(16,9)" font-family="Liberation Mono" font-size="10px" fill="#000" opacity="1">silex-400-warm-slate-grey-2026</text></g></g><path class="foreground" aria-hidden="true" d="" pointer-events="none" display="none"/></g><g transform="translate(0,39)"><path class="background" aria-hidden="true" d="M0,0h256v11h-256Z" pointer-events="none" opacity="1"/><g><g class="mark-symbol role-legend-symbol" pointer-events="none"><path transform="translate(6,6)" d="M-5,0L5,0" stroke="#72b7b2" stroke-width="1.5" opacity="1"/></g><g class="mark-text role-legend-label" pointer-events="none"><text text-anchor="start" transform="translate(16,9)" font-family="Liberation Mono" font-size="10px" fill="#000" opacity="1">devote-1-2024</text></g></g><path class="foreground" aria-hidden="true" d="" pointer-events="none" display="none"/></g><g transform="translate(0,52)"><path class="background" aria-hidden="true" d="M0,0h256v11h-256Z" pointer-events="none" opacity="1"/><g><g class="mark-symbol role-legend-symbol" pointer-events="none"><path transform="translate(6,6)" d="M-5,0L5,0" stroke="#54a24b" stroke-width="1.5" opacity="1"/></g><g class="mark-text role-legend-label" pointer-events="none"><text text-anchor="start" transform="translate(16,9)" font-family="Liberation Mono" font-size="10px" fill="#000" opacity="1">fastroad-ar-2</text></g></g><path class="foreground" aria-hidden="true" d="" pointer-events="none" display="none"/></g><g transform="translate(0,65)"><path class="background" aria-hidden="true" d="M0,0h256v11h-256Z" pointer-events="none" opacity="1"/><g><g class="mark-symbol role-legend-symbol" pointer-events="none"><path transform="translate(6,6)" d="M-5,0L5,0" stroke="#eeca3b" stroke-width="1.5" opacity="1"/></g><g class="mark-text role-legend-label" pointer-events="none"><text text-anchor="start" transform="translate(16,9)" font-family="Liberation Mono" font-size="10px" fill="#000" opacity="1">thrive-2</text></g></g><path class="foreground" aria-hidden="true" d="" pointer-events="none" display="none"/></g><g transform="translate(0,78)"><path class="background" aria-hidden="true" d="M0,0h256v11h-256Z" pointer-events="none" opacity="1"/><g><g class="mark-symbol role-legend-symbol" pointer-events="none"><path transform="translate(6,6)" d="M-5,0L5,0" stroke="#b279a2" stroke-width="1.5" opacity="1"/></g><g class="mark-text role-legend-label" pointer-events="none"><text text-anchor="start" transform="translate(16,9)" font-family="Liberation Mono" font-size="10px" fill="#000" opacity="1">allure-rs-1-2023</text></g></g><path class="foreground" aria-hidden="true" d="" pointer-events="none" display="none"/></g><g transform="translate(0,91)"><path class="background" aria-hidden="true" d="M0,0h256v11h-256Z" pointer-events="none" opacity="1"/><g><g class="mark-symbol role-legend-symbol" pointer-events="none"><path transform="translate(6,6)" d="M-5,0L5,0" stroke="#ff9da6" stroke-width="1.5" opacity="1"/></g><g class="mark-text role-legend-label" pointer-events="none"><text text-anchor="start" transform="translate(16,9)" font-family="Liberation Mono" font-size="10px" fill="#000" opacity="1">roam-2</text></g></g><path class="foreground" aria-hidden="true" d="" pointer-events="none" display="none"/></g><g transform="translate(0,104)"><path class="background" aria-hidden="true" d="M0,0h256v11h-256Z" pointer-events="none" opacity="1"/><g><g class="mark-symbol role-legend-symbol" pointer-events="none"><path transform="translate(6,6)" d="M-5,0L5,0" stroke="#9d755d" stroke-width="1.5" opacity="1"/></g><g class="mark-text role-legend-label" pointer-events="none"><text text-anchor="start" transform="translate(16,9)" font-family="Liberation Mono" font-size="10px" fill="#000" opacity="1">fastroad-sl-3-2022</text></g></g><path class="foreground" aria-hidden="true" d="" pointer-events="none" display="none"/></g><g transform="translate(0,117)"><path class="background" aria-hidden="true" d="M0,0h256v11h-256Z" pointer-events="none" opacity="1"/><g><g class="mark-symbol role-legend-symbol" pointer-events="none"><path transform="translate(6,6)" d="M-5,0L5,0" stroke="#bab0ac" stroke-width="1.5" opacity="1"/></g><g class="mark-text role-legend-label" pointer-events="none"><text text-anchor="start" transform="translate(16,9)" font-family="Liberation Mono" font-size="10px" fill="#000" opacity="1">allure-rs-2-2023</text></g></g><path class="foreground" aria-hidden="true" d="" pointer-events="none" display="none"/></g><g transform="translate(0,130)"><path class="background" aria-hidden="true" d="M0,0h256v11h-256Z" pointer-events="none" opacity="1"/><g><g class="mark-symbol role-legend-symbol" pointer-events="none"><path transform="translate(6,6)" d="M-5,0L5,0" stroke="#4c78a8" stroke-width="1.5" opacity="1"/></g><g class="mark-text role-legend-label" pointer-events="none"><text text-anchor="start" transform="translate(16,9)" font-family="Liberation Mono" font-size="10px" fill="#000" opacity="1">escape-city-disc-1-2024</text></g></g><path class="foreground" aria-hidden="true" d="" pointer-events="none" display="none"/></g><g transform="translate(0,143)"><path class="background" aria-hidden="true" d="M0,0h256v11h-256Z" pointer-events="none" opacity="1"/><g><g class="mark-symbol role-legend-symbol" pointer-events="none"><path transform="translate(6,6)" d="M-5,0L5,0" stroke="#f58518" stroke-width="1.5" opacity="1"/></g><g class="mark-text role-legend-label" pointer-events="none"><text text-anchor="start" transform="translate(16,9)" font-family="Liberation Mono" font-size="10px" fill="#000" opacity="1">sdrbike-escape-1-city-disc</text></g></g><path class="foreground" aria-hidden="true" d="" pointer-events="none" display="none"/></g><g transform="translate(0,156)"><path class="background" aria-hidden="true" d="M0,0h256v11h-256Z" pointer-events="none" opacity="1"/><g><g class="mark-symbol role-legend-symbol" pointer-events="none"><path transform="translate(6,6)" d="M-5,0L5,0" stroke="#e45756" stroke-width="1.5" opacity="1"/></g><g class="mark-text role-legend-label" pointer-events="none"><text text-anchor="start" transform="translate(16,9)" font-family="Liberation Mono" font-size="10px" fill="#000" opacity="1">roam-disc-2-2024</text></g></g><path class="foreground" aria-hidden="true" d="" pointer-events="none" display="none"/></g><g transform="translate(0,169)"><path class="background" aria-hidden="true" d="M0,0h256v11h-256Z" pointer-events="none" opacity="1"/><g><g class="mark-symbol role-legend-symbol" pointer-events="none"><path transform="translate(6,6)" d="M-5,0L5,0" stroke="#72b7b2" stroke-width="1.5" opacity="1"/></g><g class="mark-text role-legend-label" pointer-events="none"><text text-anchor="start" transform="translate(16,9)" font-family="Liberation Mono" font-size="10px" fill="#000" opacity="1">rove-2</text></g></g><path class="foreground" aria-hidden="true" d="" pointer-events="none" display="none"/></g><g transform="translate(0,182)"><path class="background" aria-hidden="true" d="M0,0h256v11h-256Z" pointer-events="none" opacity="1"/><g><g class="mark-symbol role-legend-symbol" pointer-events="none"><path transform="translate(6,6)" d="M-5,0L5,0" stroke="#54a24b" stroke-width="1.5" opacity="1"/></g><g class="mark-text role-legend-label" pointer-events="none"><text text-anchor="start" transform="translate(16,9)" font-family="Liberation Mono" font-size="10px" fill="#000" opacity="1">allure-rs-2-2022</text></g></g><path class="foreground" aria-hidden="true" d="" pointer-events="none" display="none"/></g><g transform="translate(0,195)"><path class="background" aria-hidden="true" d="M0,0h256v11h-256Z" pointer-events="none" opacity="1"/><g><g class="mark-symbol role-legend-symbol" pointer-events="none"><path transform="translate(6,6)" d="M-5,0L5,0" stroke="#eeca3b" stroke-width="1.5" opacity="1"/></g><g class="mark-text role-legend-label" pointer-events="none"><text text-anchor="start" transform="translate(16,9)" font-family="Liberation Mono" font-size="10px" fill="#000" opacity="1">allure-rs-2-2024</text></g></g><path class="foreground" aria-hidden="true" d="" pointer-events="none" display="none"/></g></g></g><path class="foreground" aria-hidden="true" d="" pointer-events="none" display="none"/></g></g><g class="mark-text role-legend-title" pointer-events="none"><text text-anchor="start" transform="translate(0,9)" font-family="Liberation Mono" font-size="11px" font-weight="bold" fill="#000" opacity="1">identifier</text></g></g><path class="foreground" aria-hidden="true" d="" pointer-events="none" display="none"/></g></g></g><path class="foreground" aria-hidden="true" d="" display="none"/></g></g></g></svg>