<svg xmlns="http://www.w3.org/2000/svg" xmlns:xlink="http://www.w3.org/1999/xlink" version="1.1" class="marks" width="548" height="244" viewBox="0 0 548 244"><rect width="548" height="244" fill="white"/><g fill="none" stroke-miterlimit="10" transform="translate(67,7)"><g class="mark-group role-frame root" role="graphics-object" aria-roledescription="group mark container"><g transform="translate(0,0)"><path class="background" aria-hidden="true" d="M0.5,0.5h200v200h-200Z" stroke="#ddd"/><g><g class="mark-group role-axis" aria-hidden="true"><g transform="translate(0.5,200.5)"><path class="background" aria-hidden="true" d="M0,0h0v0h0Z" pointer-events="none"/><g><g class="mark-rule role-axis-grid" pointer-events="none"><line transform="translate(25,-200)" x2="0" y2="200" stroke="#ddd" stroke-width="1" opacity="1"/><line transform="translate(90,-200)" x2="0" y2="200" stroke="#ddd" stroke-width="1" opacity="1"/><line transform="translate(156,-200)" x2="0" y2="200" stroke="#ddd" stroke-width="1" opacity="1"/></g></g><path class="foreground" aria-hidden="true" d="" pointer-events="none" display="none"/></g></g><g class="mark-group role-axis" aria-hidden="true"><g transform="translate(0.5,0.5)"><path class="background" aria-hidden="true" d="M0,0h0v0h0Z" pointer-events="none"/><g><g class="mark-rule role-axis-grid" pointer-events="none"><line transform="translate(0,200)" x2="200" y2="0" stroke="#ddd" stroke-width="1" opacity="1"/><line transform="translate(0,144)" x2="200" y2="0" stroke="#ddd" stroke-width="1" opacity="1"/><line transform="translate(0,89)" x2="200" y2="0" stroke="#ddd" stroke-width="1" opacity="1"/><line transform="translate(0,33)" x2="200" y2="0" stroke="#ddd" stroke-width="1" opacity="1"/></g></g><path class="foreground" aria-hidden="true" d="" pointer-events="none" display="none"/></g></g><g class="mark-group role-axis" role="graphics-symbol" aria-roledescription="axis" aria-label="X-axis titled 'Time' for a time scale with values from Thursday, 14 August 2025, 8:34:48 AM to Thursday, 04 September 2025, 4:51:06 PM"><g transform="translate(0.5,200.5)"><path class="background" aria-hidden="true" d="M0,0h0v0h0Z" pointer-events="none"/><g><g class="mark-rule role-axis-tick" pointer-events="none"><line transform="translate(25,0)" x2="0" y2="5" stroke="#888" stroke-width="1" opacity="1"/><line transform="translate(90,0)" x2="0" y2="5" stroke="#888" stroke-width="1" opacity="1"/><line transform="translate(156,0)" x2="0" y2="5" stroke="#888" stroke-width="1" opacity="1"/></g><g class="mark-text role-axis-label" pointer-events="none"><text text-anchor="middle" transform="translate(24.760225162149716,15)" font-family="Liberation Mono" font-size="10px" fill="#000" opacity="1">Aug 17</text><text text-anchor="middle" transform="translate(90.35044249055221,15)" font-family="Liberation Mono" font-size="10px" fill="#000" opacity="1">Aug 24</text><text text-anchor="middle" transform="translate(155.9406598189547,15)" font-family="Liberation Mono" font-size="10px" fill="#000" opacity="1">Aug 31</text></g><g class="mark-rule role-axis-domain" pointer-events="none"><line transform="translate(0,0)" x2="200" y2="0" stroke="#888" stroke-width="1" opacity="1"/></g><g class="mark-text role-axis-title" pointer-events="none"><text text-anchor="middle" transform="translate(100,30)" font-family="Liberation Mono" font-size="11px" font-weight="bold" fill="#000" opacity="1">Time</text></g></g><path class="foreground" aria-hidden="true" d="" pointer-events="none" display="none"/></g></g><g class="mark-group role-axis" role="graphics-symbol" aria-roledescription="axis" aria-label="Y-axis titled 'Price' for a linear scale with values from 0 to 1,800"><g transform="translate(0.5,0.5)"><path class="background" aria-hidden="true" d="M0,0h0v0h0Z" pointer-events="none"/><g><g class="mark-rule role-axis-tick" pointer-events="none"><line transform="translate(0,200)" x2="-5" y2="0" stroke="#888" stroke-width="1" opacity="1"/><line transform="translate(0,144)" x2="-5" y2="0" stroke="#888" stroke-width="1" opacity="1"/><line transform="translate(0,89)" x2="-5" y2="0" stroke="#888" stroke-width="1" opacity="1"/><line transform="translate(0,33)" x2="-5" y2="0" stroke="#888" stroke-width="1" opacity="1"/></g><g class="mark-text role-axis-label" pointer-events="none"><text text-anchor="end" transform="translate(-7,203)" font-family="Liberation Mono" font-size="10px" fill="#000" opacity="1">0</text><text text-anchor="end" transform="translate(-7,147.44444444444443)" font-family="Liberation Mono" font-size="10px" fill="#000" opacity="1">500</text><text text-anchor="end" transform="translate(-7,91.88888888888889)" font-family="Liberation Mono" font-size="10px" fill="#000" opacity="1">1,000</text><text text-anchor="end" transform="translate(-7,36.33333333333333)" font-family="Liberation Mono" font-size="10px" fill="#000" opacity="1">1,500</text></g><g class="mark-rule role-axis-domain" pointer-events="none"><line transform="translate(0,200)" x2="0" y2="-200" stroke="#888" stroke-width="1" opacity="1"/></g><g class="mark-text role-axis-title" pointer-events="none"><text text-anchor="middle" transform="translate(-51,100) rotate(-90) translate(0,-2)" font-family="Liberation Mono" font-size="11px" font-weight="bold" fill="#000" opacity="1">Price</text></g></g><path class="foreground" aria-hidden="true" d="" pointer-events="none" display="none"/></g></g><g class="mark-group role-scope pathgroup" role="graphics-object" aria-roledescription="group mark container"><g transform="translate(0,0)"><path class="background" aria-hidden="true" d="M0,0h200v200h-200Z"/><g><g class="mark-line role-mark marks" role="graphics-object" aria-roledescription="line mark container"><path aria-label="Time: Aug 14, 2025; Price: 899; identifier: escape-city-disc-1-2024" role="graphics-symbol" aria-roledescription="line mark" d="M0,100.111L0.078,100.111L0.139,100.111L1.867,100.111L3.24,100.111L4.78,100.111L7.941,100.111L9.492,100.111L11.206,100.111L12.611,100.111L14.144,100.111L17.28,100.111L18.85,100.111L20.514,100.111L21.963,100.111L23.5,100.111L26.686,100.111L28.217,100.111L29.888,100.111L31.34,100.111L32.882,100.111L36.083,100.111L37.622,100.111L39.348,100.111L39.953,100.111L40.74,100.111L42.243,100.111L45.382,100.111L46.968,100.111L48.632,100.111L50.086,100.111L51.609,100.111L54.755,100.111L56.326,100.111L58.058,100.111L58.758,100.111L59.452,100.111L60.99,100.111L64.119,100.111L65.703,100.111L67.375,100.111L68.828,100.111L70.355,100.111L73.492,100.111L75.07,100.111L76.741,100.111L78.189,100.111L79.72,100.111L82.855,100.111L84.425,100.111L86.082,100.111L87.534,100.111L89.081,100.111L92.236,100.111L93.789,100.111L95.457,100.111L96.916,100.111L98.454,100.111L101.62,100.111L103.201,100.111L104.91,100.111L106.309,100.111L107.835,100.111L110.974,100.111L112.565,100.111L115.67,100.111L117.195,100.111L120.332,100.111L121.916,100.111L122.53,100.111L123.585,100.111L124.63,100.111L125.039,100.111L126.572,100.111L129.701,100.111L131.29,100.111L132.959,100.111L134.407,100.111L135.938,100.111L139.072,100.111L140.653,100.111L142.318,100.111L143.774,100.111L145.303,100.111L148.431,100.111L150.001,100.111L151.659,100.111L153.121,100.111L154.594,100.111L154.667,100.111L157.805,100.111L158.806,100.111L159.367,100.111L161.033,100.111L162.496,100.111L164.041,100.111L167.205,100.111L168.78,100.111L170.443,100.111L171.878,100.111L173.408,100.111L176.56,100.111L178.144,100.111L179.818,100.111L181.254,100.111L182.785,100.111L185.918,100.111L187.499,100.111L189.168,100.111L190.619,100.111L192.152,100.111L195.285,100.111L196.873,100.111L198.53,100.111L199.996,100.111" stroke="#f58518" stroke-width="2"/></g></g><path class="foreground" aria-hidden="true" d="" display="none"/></g><g transform="translate(0,0)"><path class="background" aria-hidden="true" d="M0,0h200v200h-200Z"/><g><g class="mark-line role-mark marks" role="graphics-object" aria-roledescription="line mark container"><path aria-label="Time: Aug 14, 2025; Price: 999; identifier: roam-2" role="graphics-symbol" aria-roledescription="line mark" d="M0,89L0.078,89L0.139,89L1.867,89L3.24,89L4.78,89L7.941,89L9.492,89L11.206,89L12.612,89L14.144,89L17.281,89L18.851,89L20.514,89L21.963,89L23.515,89L26.686,89L28.217,89L29.888,89L31.34,89L32.882,89L36.083,89L37.622,89L39.348,89L39.954,89L40.74,89L42.243,89L45.382,89L46.968,89L48.632,89L50.086,89L51.61,89L54.755,89L56.326,89L58.058,89L58.759,89L59.453,89L60.991,89L64.12,89L65.703,89L67.375,89L68.829,89L70.356,89L73.492,89L75.071,89L76.741,89L78.189,89L79.721,89L82.855,89L84.426,89L86.082,89L87.534,89L89.081,89L92.237,89L93.79,89L95.457,89L96.916,89L98.454,89L101.62,89L103.201,89L104.911,89L106.31,89L107.835,89L110.975,89L112.565,89L115.671,89L117.195,89L120.333,89L121.916,89L122.531,89L123.585,89L124.63,89L125.039,89L126.572,89L129.701,89L131.29,89L132.959,89L134.408,89L135.939,89L139.072,89L140.654,89L142.318,89L143.774,89L145.303,89L148.431,89L150.002,89L151.659,89L153.121,89L154.594,89L154.668,89L157.805,89L158.806,89L159.367,89L161.034,89L162.496,89L164.041,89L167.205,89L168.78,89L170.443,89L171.878,89L173.409,89L176.56,89L178.145,89L179.819,89L181.254,89L182.785,89L185.918,89L187.5,89L189.169,89L190.62,89L192.152,89L195.286,89L196.873,89L198.53,89L199.996,89" stroke="#ff9da6" stroke-width="2"/></g></g><path class="foreground" aria-hidden="true" d="" display="none"/></g><g transform="translate(0,0)"><path class="background" aria-hidden="true" d="M0,0h200v200h-200Z"/><g><g class="mark-line role-mark marks" role="graphics-object" aria-roledescription="line mark container"><path aria-label="Time: Aug 14, 2025; Price: 999; identifier: fastroad-sl-3-2022" role="graphics-symbol" aria-roledescription="line mark" d="M0,89L0.078,89L0.14,89L1.867,89L3.24,89L4.781,89L7.941,89L9.493,89L11.206,89L12.612,89L14.144,89L17.281,89L18.851,89L20.514,89L21.964,89L23.515,89L26.687,89L28.218,89L29.889,89L31.34,89L32.882,89L36.083,89L37.622,89L39.348,89L39.954,89L40.741,89L42.243,89L45.382,89L46.968,89L48.632,89L50.086,89L51.61,89L54.755,89L56.326,89L58.058,89L58.759,89L59.453,89L60.991,89L64.12,89L65.704,89L67.375,89L68.829,89L70.356,89L73.492,89L75.071,89L76.742,89L78.189,89L79.721,89L82.856,89L84.426,89L86.082,89L87.535,89L89.082,89L92.237,89L93.79,89L95.457,89L96.916,89L98.454,89L101.62,89L103.201,89L104.911,89L106.31,89L107.835,89L110.975,89L112.565,89L115.671,89L117.196,89L120.333,89L121.916,89L122.531,89L123.586,89L124.63,89L125.04,89L126.572,89L129.702,89L131.29,89L132.959,89L134.408,89L135.939,89L139.072,89L140.654,89L142.318,89L143.774,89L145.304,89L148.432,89L150.002,89L151.66,89L153.121,89L154.595,89L154.668,89L157.806,89L158.806,89L159.368,89L161.034,89L162.497,89L164.041,89L167.206,89L168.781,89L170.443,89L171.878,89L173.409,89L176.561,89L178.145,89L179.819,89L181.254,89L182.785,89L185.919,89L187.5,89L189.169,89L190.62,89L192.152,89L195.286,89L196.873,89L198.53,89L199.996,89" stroke="#9d755d" stroke-width="2"/></g></g><path class="foreground" aria-hidden="true" d="" display="none"/></g><g transform="translate(0,0)"><path class="background" aria-hidden="true" d="M0,0h200v200h-200Z"/><g><g class="mark-line role-mark marks" role="graphics-object" aria-roledescription="line mark container"><path aria-label="Time: Aug 14, 2025; Price: 1199; identifier: fastroad-ar-2" role="graphics-symbol" aria-roledescription="line mark" d="M0.001,66.778L0.078,66.778L0.14,66.778L1.867,66.778L3.241,66.778L4.781,66.778L7.941,66.778L9.493,66.778L11.206,66.778L12.612,66.778L14.145,66.778L17.281,66.778L18.851,66.778L20.514,66.778L21.964,66.778L23.522,66.778L26.687,66.778L28.218,66.778L29.889,66.778L31.341,66.778L32.882,66.778L36.084,66.778L37.622,66.778L39.348,66.778L39.954,66.778L40.741,66.778L42.243,66.778L45.382,66.778L46.968,66.778L48.633,66.778L50.086,66.778L51.61,66.778L54.756,66.778L56.326,66.778L58.059,66.778L58.759,66.778L59.453,66.778L60.991,66.778L64.12,66.778L65.704,66.778L67.376,66.778L68.829,66.778L70.356,66.778L73.493,66.778L75.071,66.778L76.742,66.778L78.19,66.778L79.721,66.778L82.856,66.778L84.426,66.778L86.083,66.778L87.535,66.778L89.082,66.778L92.237,66.778L93.79,66.778L95.458,66.778L96.917,66.778L98.455,66.778L101.62,66.778L103.202,66.778L104.911,66.778L106.31,66.778L107.836,66.778L110.976,66.778L112.566,66.778L115.671,66.778L117.196,66.778L120.334,66.778L121.917,66.778L122.532,66.778L123.586,66.778L124.63,66.778L125.04,66.778L126.573,66.778L129.702,66.778L131.291,66.778L132.96,66.778L134.408,66.778L135.939,66.778L139.072,66.778L140.654,66.778L142.319,66.778L143.774,66.778L145.304,66.778L148.432,66.778L150.002,66.778L151.66,66.778L153.122,66.778L154.595,66.778L154.668,66.778L157.806,66.778L158.807,66.778L159.368,66.778L161.034,66.778L162.497,66.778L164.041,66.778L167.206,66.778L168.781,66.778L170.444,66.778L171.879,66.778L173.409,66.778L176.561,66.778L178.145,66.778L179.819,66.778L181.255,66.778L182.786,66.778L185.919,66.778L187.5,66.778L189.169,66.778L190.62,66.778L192.152,66.778L195.286,66.778L196.874,66.778L198.53,66.778L199.997,66.778" stroke="#54a24b" stroke-width="2"/></g></g><path class="foreground" aria-hidden="true" d="" display="none"/></g><g transform="translate(0,0)"><path class="background" aria-hidden="true" d="M0,0h200v200h-200Z"/><g><g class="mark-line role-mark marks" role="graphics-object" aria-roledescription="line mark container"><path aria-label="Time: Aug 18, 2025; Price: 899; identifier: sdrbike-escape-1-city-disc" role="graphics-symbol" aria-roledescription="line mark" d="M39.954,100.111L40.741,100.111L42.244,100.111L45.383,100.111L46.969,100.111L48.633,100.111L50.087,100.111L51.61,100.111L54.756,100.111L56.327,100.111L58.059,100.111L58.76,100.111L59.454,100.111L60.992,100.111L64.12,100.111L65.704,100.111L67.376,100.111L68.829,100.111L70.357,100.111L73.493,100.111L75.071,100.111L76.742,100.111L78.19,100.111L79.721,100.111L82.856,100.111L84.427,100.111L86.083,100.111L87.535,100.111L89.082,100.111L92.238,100.111L93.791,100.111L95.459,100.111L96.917,100.111L98.455,100.111L101.621,100.111L103.202,100.111L104.911,100.111L106.311,100.111L107.836,100.111L110.976,100.111L112.566,100.111L115.672,100.111L117.196,100.111L120.334,100.111L121.917,100.111L122.532,100.111L123.586,100.111L124.631,100.111L125.04,100.111L126.573,100.111L129.702,100.111L131.291,100.111L132.96,100.111L134.408,100.111L135.939,100.111L139.073,100.111L140.655,100.111L142.319,100.111L143.775,100.111L145.304,100.111L148.432,100.111L150.002,100.111L151.66,100.111L153.122,100.111L154.595,100.111L154.668,100.111L157.806,100.111L158.807,100.111L159.368,100.111L161.035,100.111L162.497,100.111L164.042,100.111L167.206,100.111L168.781,100.111L170.444,100.111L171.879,100.111L173.41,100.111L176.561,100.111L178.145,100.111L179.82,100.111L181.255,100.111L182.786,100.111L185.919,100.111L187.5,100.111L189.169,100.111L190.62,100.111L192.153,100.111L195.286,100.111L196.874,100.111L198.531,100.111L199.997,100.111" stroke="#e45756" stroke-width="2"/></g></g><path class="foreground" aria-hidden="true" d="" display="none"/></g><g transform="translate(0,0)"><path class="background" aria-hidden="true" d="M0,0h200v200h-200Z"/><g><g class="mark-line role-mark marks" role="graphics-object" aria-roledescription="line mark container"><path aria-label="Time: Aug 20, 2025; Price: 899; identifier: roam-disc-2-2024" role="graphics-symbol" aria-roledescription="line mark" d="M58.759,100.111L59.452,100.111L60.99,100.111L64.12,100.111L65.703,100.111L67.375,100.111L68.829,100.111L70.355,100.111L73.492,100.111L75.07,100.111L76.741,100.111L78.189,100.111L79.72,100.111L82.855,100.111L84.426,100.111L86.082,100.111L87.534,100.111L89.081,100.111L92.237,100.111L93.789,100.111L95.457,100.111L96.916,100.111L98.454,100.111L101.62,100.111L103.201,100.111L104.91,100.111L106.31,100.111L107.835,100.111L110.974,100.111L112.565,100.111L115.67,100.111L117.195,100.111L120.333,100.111L121.916,100.111L122.531,100.111L123.585,100.111L124.63,100.111L125.039,100.111L126.572,100.111L129.701,100.111L131.29,100.111L132.959,100.111L134.408,100.111L135.938,100.111L139.072,100.111L140.654,100.111L142.318,100.111L143.774,100.111L145.303,100.111L148.431,100.111L150.001,100.111L151.659,100.111L153.121,100.111L154.594,100.111L154.667,100.111L157.805,100.111L158.806,100.111L159.367,100.111L161.034,100.111L162.496,100.111L164.041,100.111L167.205,100.111L168.78,100.111L170.443,100.111L171.878,100.111L173.409,100.111L176.56,100.111L178.144,100.111L179.819,100.111L181.254,100.111L182.785,100.111L185.918,100.111L187.499,100.111L189.168,100.111L190.619,100.111L192.152,100.111L195.285,100.111L196.873,100.111L198.53,100.111L199.996,100.111" stroke="#72b7b2" stroke-width="2"/></g></g><path class="foreground" aria-hidden="true" d="" display="none"/></g><g transform="translate(0,0)"><path class="background" aria-hidden="true" d="M0,0h200v200h-200Z"/><g><g class="mark-line role-mark marks" role="graphics-object" aria-roledescription="line mark container"><path aria-label="Time: Aug 20, 2025; Price: 1199; identifier: thrive-2" role="graphics-symbol" aria-roledescription="line mark" d="M58.76,66.778L59.454,66.778L60.992,66.778L64.12,66.778L65.704,66.778L67.376,66.778L68.83,66.778L70.357,66.778L73.493,66.778L75.072,66.778L76.742,66.778L78.19,66.778L79.722,66.778L82.856,66.778L84.427,66.778L86.083,66.778L87.535,66.778L89.082,66.778L92.238,66.778L93.791,66.778L95.459,66.778L96.917,66.778L98.455,66.778L101.621,66.778L103.202,66.778L104.912,66.778L106.311,66.778L107.836,66.778L110.976,66.778L112.566,66.778L115.672,66.778L117.196,66.778L120.334,66.778L121.917,66.778L122.533,66.778L123.586,66.778L124.631,66.778L125.04,66.778L126.573,66.778L129.702,66.778L131.291,66.778L132.96,66.778L134.409,66.778L135.94,66.778L139.073,66.778L140.655,66.778L142.319,66.778L143.775,66.778L145.304,66.778L148.432,66.778L150.003,66.778L151.66,66.778L153.122,66.778L154.596,66.778L154.668,66.778L157.806,66.778L158.807,66.778L159.369,66.778L161.035,66.778L162.497,66.778L164.042,66.778L167.206,66.778L168.781,66.778L170.444,66.778L171.879,66.778L173.41,66.778L176.561,66.778L178.146,66.778L179.82,66.778L181.255,66.778L182.786,66.778L185.919,66.778L187.5,66.778L189.169,66.778L190.62,66.778L192.153,66.778L195.287,66.778L196.874,66.778L198.531,66.778L199.997,66.778" stroke="#eeca3b" stroke-width="2"/></g></g><path class="foreground" aria-hidden="true" d="" display="none"/></g><g transform="translate(0,0)"><path class="background" aria-hidden="true" d="M0,0h200v200h-200Z"/><g><g class="mark-line role-mark marks" role="graphics-object" aria-roledescription="line mark container"><path aria-label="Time: Aug 20, 2025; Price: 999; identifier: rove-2" role="graphics-symbol" aria-roledescription="line mark" d="M58.76,89L59.454,89L60.992,89L64.121,89L65.705,89L67.376,89L68.83,89L70.357,89L73.493,89L75.072,89L76.743,89L78.19,89L79.722,89L82.857,89L84.427,89L86.083,89L87.536,89L89.082,89L92.238,89L93.791,89L95.459,89L96.917,89L98.455,89L101.621,89L103.202,89L104.912,89L106.311,89L107.836,89L110.977,89L112.566,89L115.672,89L117.196,89L120.334,89L121.917,89L122.533,89L123.586,89L124.631,89L125.04,89L126.573,89L129.703,89L131.292,89L132.961,89L134.409,89L135.94,89L139.073,89L140.655,89L142.319,89L143.775,89L145.305,89L154.596,111.222L154.669,111.222L157.806,111.222L158.807,111.222L159.369,111.222L161.035,111.222L162.497,111.222L164.042,111.222L167.206,111.222L168.781,111.222L170.444,111.222L171.879,111.222L173.41,111.222L176.562,111.222L178.146,111.222L179.82,111.222L181.255,111.222L182.786,111.222L185.919,111.222L187.501,111.222L189.17,111.222L190.621,111.222L192.153,111.222L195.287,111.222L196.874,111.222L198.531,111.222L199.997,111.222" stroke="#bab0ac" stroke-width="2"/></g></g><path class="foreground" aria-hidden="true" d="" display="none"/></g><g transform="translate(0,0)"><path class="background" aria-hidden="true" d="M0,0h200v200h-200Z"/><g><g class="mark-line role-mark marks" role="graphics-object" aria-roledescription="line mark container"><path aria-label="Time: Aug 27, 2025; Price: 1199; identifier: allure-rs-1-2023" role="graphics-symbol" aria-roledescription="line mark" d="M122.534,66.778L123.587,66.778L124.631,66.778L125.041,66.778L126.574,66.778L129.703,66.778L131.292,66.778L132.961,66.778L134.409,66.778L135.94,66.778L139.073,66.778L140.655,66.778L142.32,66.778L143.775,66.778L145.305,66.778L148.433,66.778L150.003,66.778L151.661,66.778L153.122,66.778L154.596,66.778L154.669,66.778L157.807,66.778L158.807,66.778L159.369,66.778L161.035,66.778L162.498,66.778L164.042,66.778L167.207,66.778L168.782,66.778L170.444,66.778L171.88,66.778L173.41,66.778L176.562,66.778L178.146,66.778L179.821,66.778L181.255,66.778L182.787,66.778L185.92,66.778L187.501,66.778L189.17,66.778L190.621,66.778L192.153,66.778L195.287,66.778L196.875,66.778L198.531,66.778L199.998,66.778" stroke="#b279a2" stroke-width="2"/></g></g><path class="foreground" aria-hidden="true" d="" display="none"/></g><g transform="translate(0,0)"><path class="background" aria-hidden="true" d="M0,0h200v200h-200Z"/><g><g class="mark-line role-mark marks" role="graphics-object" aria-roledescription="line mark container"><path aria-label="Time: Aug 27, 2025; Price: 999; identifier: allure-rs-2-2022" role="graphics-symbol" aria-roledescription="line mark" d="M122.535,89L123.587,89L124.631,89L125.041,89L126.574,89L129.703,89L131.292,89L132.961,89L134.409,89L135.94,89L139.074,89L140.656,89L142.32,89L143.775,89L145.305,89L154.596,111.222L154.669,111.222L157.807,111.222L158.808,111.222L159.369,111.222L161.036,111.222L162.498,111.222L164.042,111.222L167.207,111.222L168.782,111.222L170.445,111.222L171.88,111.222L173.411,111.222L176.562,111.222L178.146,111.222L179.821,111.222L181.256,111.222L182.787,111.222L185.92,111.222L187.501,111.222L189.17,111.222L190.621,111.222L192.153,111.222L195.287,111.222L196.875,111.222L198.532,111.222L199.998,111.222" stroke="#54a24b" stroke-width="2"/></g></g><path class="foreground" aria-hidden="true" d="" display="none"/></g><g transform="translate(0,0)"><path class="background" aria-hidden="true" d="M0,0h200v200h-200Z"/><g><g class="mark-line role-mark marks" role="graphics-object" aria-roledescription="line mark container"><path aria-label="Time: Aug 27, 2025; Price: 949; identifier: allure-rs-2-2023" role="graphics-symbol" aria-roledescription="line mark" d="M122.535,94.556L123.587,94.556L124.632,94.556L125.041,94.556L126.574,94.556L129.703,94.556L131.292,94.556L132.961,94.556L134.409,94.556L135.94,94.556L139.074,94.556L140.656,94.556L142.32,94.556L143.776,94.556L145.305,94.556L148.433,94.556L150.003,94.556L151.661,94.556L153.123,94.556L154.597,94.556L154.669,94.556L157.807,94.556L158.808,94.556L159.37,94.556L161.036,94.556L162.498,94.556L164.042,94.556L167.207,94.556L168.782,94.556L170.445,94.556L171.88,94.556L173.411,94.556L176.562,94.556L178.146,94.556L179.821,94.556L181.256,94.556L182.787,94.556L185.92,94.556L187.501,94.556L189.17,94.556L190.621,94.556L192.154,94.556L195.288,94.556L196.875,94.556L198.532,94.556L199.998,94.556" stroke="#4c78a8" stroke-width="2"/></g></g><path class="foreground" aria-hidden="true" d="" display="none"/></g><g transform="translate(0,0)"><path class="background" aria-hidden="true" d="M0,0h200v200h-200Z"/><g><g class="mark-line role-mark marks" role="graphics-object" aria-roledescription="line mark container"><path aria-label="Time: Aug 27, 2025; Price: 999; identifier: allure-rs-2-2024" role="graphics-symbol" aria-roledescription="line mark" d="M122.536,89L123.587,89L124.632,89L125.041,89L126.574,89L129.704,89L131.293,89L132.961,89L134.41,89L135.94,89L139.074,89L140.656,89L142.32,89L143.776,89L145.305,89L154.597,111.222L154.669,111.222L157.807,111.222L158.808,111.222L159.37,111.222L161.036,111.222L162.498,111.222L164.043,111.222L167.207,111.222L168.782,111.222L170.445,111.222L171.88,111.222L173.411,111.222L176.563,111.222L178.146,111.222L179.821,111.222L181.256,111.222L182.787,111.222L185.92,111.222L187.501,111.222L189.17,111.222L190.621,111.222L192.154,111.222L195.288,111.222L196.875,111.222L198.532,111.222L199.998,111.222" stroke="#eeca3b" stroke-width="2"/></g></g><path class="foreground" aria-hidden="true" d="" display="none"/></g><g transform="translate(0,0)"><path class="background" aria-hidden="true" d="M0,0h200v200h-200Z"/><g><g class="mark-line role-mark marks" role="graphics-object" aria-roledescription="line mark container"><path aria-label="Time: Aug 27, 2025; Price: 1799; identifier: devote-1-2024" role="graphics-symbol" aria-roledescription="line mark" d="M124.632,0.111L125.041,0.111L126.575,0.111L129.704,0.111L131.293,0.111L132.962,0.111L134.41,0.111L135.941,0.111L139.074,0.111L140.656,0.111L142.321,0.111L143.776,0.111L145.306,0.111L154.597,44.556L154.669,44.556L157.807,44.556L158.808,44.556L159.37,44.556L161.036,44.556L162.498,44.556L164.043,44.556L167.207,44.556L168.782,44.556L170.445,44.556L171.88,44.556L173.411,44.556L176.563,44.556L178.147,44.556L179.821,44.556L181.256,44.556L182.788,44.556L185.92,44.556L187.502,44.556L189.171,44.556L190.622,44.556L192.154,44.556L195.288,44.556L196.875,44.556L198.532,44.556L199.999,44.556" stroke="#72b7b2" stroke-width="2"/></g></g><path class="foreground" aria-hidden="true" d="" display="none"/></g><g transform="translate(0,0)"><path class="background" aria-hidden="true" d="M0,0h200v200h-200Z"/><g><g class="mark-line role-mark marks" role="graphics-object" aria-roledescription="line mark container"><path aria-label="Time: Aug 27, 2025; Price: 1699; identifier: devote-1-2022" role="graphics-symbol" aria-roledescription="line mark" d="M124.632,11.222L125.041,11.222L126.575,11.222L129.704,11.222L131.293,11.222L132.962,11.222L134.41,11.222L135.941,11.222L139.074,11.222L140.656,11.222L142.321,11.222L143.776,11.222L145.306,11.222L148.434,11.222L150.004,11.222L151.662,11.222L153.123,11.222L154.597,11.222L154.67,11.222L157.808,11.222L158.808,11.222L159.37,11.222L161.036,11.222L162.498,11.222L164.043,11.222L167.208,11.222L168.783,11.222L170.446,11.222L171.881,11.222L173.411,11.222L176.563,11.222L178.147,11.222L179.822,11.222L181.256,11.222L182.788,11.222L185.921,11.222L187.502,11.222L189.171,11.222L190.622,11.222L192.154,11.222L195.288,11.222L196.876,11.222L198.532,11.222L199.999,11.222" stroke="#4c78a8" stroke-width="2"/></g></g><path class="foreground" aria-hidden="true" d="" display="none"/></g><g transform="translate(0,0)"><path class="background" aria-hidden="true" d="M0,0h200v200h-200Z"/><g><g class="mark-line role-mark marks" role="graphics-object" aria-roledescription="line mark container"><path aria-label="Time: Aug 31, 2025; Price: 1599; identifier: silex-400-oak-bork-2026" role="graphics-symbol" aria-roledescription="line mark" d="M158.809,22.333L159.371,22.333L161.037,22.333L162.499,22.333L164.043,22.333L167.208,22.333L168.783,22.333L170.446,22.333L171.881,22.333L173.412,22.333L176.563,22.333L178.147,22.333L179.822,22.333L181.257,22.333L182.788,22.333L185.921,22.333L187.502,22.333L189.171,22.333L190.622,22.333L192.155,22.333L195.289,22.333L196.876,22.333L198.533,22.333L200,22.333" stroke="#f58518" stroke-width="2"/></g></g><path class="foreground" aria-hidden="true" d="" display="none"/></g><g transform="translate(0,0)"><path class="background" aria-hidden="true" d="M0,0h200v200h-200Z"/><g><g class="mark-line role-mark marks" role="graphics-object" aria-roledescription="line mark container"><path aria-label="Time: Aug 31, 2025; Price: 1599; identifier: silex-400-warm-slate-grey-2026" role="graphics-symbol" aria-roledescription="line mark" d="M158.809,22.333L159.371,22.333L161.037,22.333L162.499,22.333L164.044,22.333L167.208,22.333L168.783,22.333L170.446,22.333L171.882,22.333L173.412,22.333L176.564,22.333L178.148,22.333L179.823,22.333L181.257,22.333L182.789,22.333L185.921,22.333L187.502,22.333L189.172,22.333L190.622,22.333L192.155,22.333L195.289,22.333L196.876,22.333L198.533,22.333L200,22.333" stroke="#e45756" stroke-width="2"/></g></g><path class="foreground" aria-hidden="true" d="" display="none"/></g></g><g class="mark-group role-legend" role="graphics-symbol" aria-roledescription="legend" aria-label="Symbol legend titled 'identifier' for stroke color with 16 values: devote-1-2022, silex-400-oak-bork-2026, silex-400-warm-slate-grey-2026, devote-1-2024, fastroad-ar-2, ending with allure-rs-2-2024"><g transform="translate(220,0)"><path class="background" aria-hidden="true" d="M0,0h256v222h-256Z" pointer-events="none"/><g><g class="mark-group role-legend-entry"><g transform="translate(0,16)"><path class="background" aria-hidden="true" d="M0,0h0v0h0Z" pointer-events="none"/><g><g class="mark-group role-scope" role="graphics-object" aria-roledescription="group mark container"><g transform="translate(0,0)"><path class="background" aria-hidden="true" d="M0,0h256v11h-256Z" pointer-events="none" opacity="1"/><g><g class="mark-symbol role-legend-symbol" pointer-events="none"><path transform="translate(6,6)" d="M-5,0L5,0" stroke="#4c78a8" stroke-width="1.5" opacity="1"/></g><g class="mark-text role-legend-label" pointer-events="none"><text text-anchor="start" transform="translate(16,9)" font-family="Liberation Mono" font-size="10px" fill="#000" opacity="1">devote-1-2022</text></g></g><path class="foreground" aria-hidden="true" d="" pointer-events="none" display="none"/></g><g transform="translate(0,13)"><path class="background" aria-hidden="true" d="M0,0h256v11h-256Z" pointer-events="none" opacity="1"/><g><g class="mark-symbol role-legend-symbol" pointer-events="none"><path transform="translate(6,6)" d="M-5,0L5,0" stroke="#f58518" stroke-width="1.5" opacity="1"/></g><g class="mark-text role-legend-label" pointer-events="none"><text text-anchor="start" transform="translate(16,9)" font-family="Liberation Mono" font-size="10px" fill="#000" opacity="1">silex-400-oak-bork-2026</text></g></g><path class="foreground" aria-hidden="true" d="" pointer-events="none" display="none"/></g><g transform="translate(0,26)"><path class="background" aria-hidden="true" d="M0,0h256v11h-256Z" pointer-events="none" opacity="1"/><g><g class="mark-symbol role-legend-symbol" pointer-events="none"><path transform="translate(6,6)" d="M-5,0L5,0" stroke="#e45756" stroke-width="1.5" opacity="1"/></g><g class="mark-text role-legend-label" pointer-events="none"><text text-anchor="start" transform="translate(16,9)" font-family="Liberation Mono" font-size="10px" fill="#000" opacity="1">silex-400-warm-slate-grey-2026</text></g></g><path class="foreground" aria-hidden="true" d="" pointer-events="none" display="none"/></g><g transform="translate(0,39)"><path class="background" aria-hidden="true" d="M0,0h256v11h-256Z" pointer-events="none" opacity="1"/><g><g class="mark-symbol role-legend-symbol" pointer-events="none"><path transform="translate(6,6)" d="M-5,0L5,0" stroke="#72b7b2" stroke-width="1.5" opacity="1"/></g><g class="mark-text role-legend-label" pointer-events="none"><text text-anchor="start" transform="translate(16,9)" font-family="Liberation Mono" font-size="10px" fill="#000" opacity="1">devote-1-2024</text></g></g><path class="foreground" aria-hidden="true" d="" pointer-events="none" display="none"/></g><g transform="translate(0,52)"><path class="background" aria-hidden="true" d="M0,0h256v11h-256Z" pointer-events="none" opacity="1"/><g><g class="mark-symbol role-legend-symbol" pointer-events="none"><path transform="translate(6,6)" d="M-5,0L5,0" stroke="#54a24b" stroke-width="1.5" opacity="1"/></g><g class="mark-text role-legend-label" pointer-events="none"><text text-anchor="start" transform="translate(16,9)" font-family="Liberation Mono" font-size="10px" fill="#000" opacity="1">fastroad-ar-2</text></g></g><path class="foreground" aria-hidden="true" d="" pointer-events="none" display="none"/></g><g transform="translate(0,65)"><path class="background" aria-hidden="true" d="M0,0h256v11h-256Z" pointer-events="none" opacity="1"/><g><g class="mark-symbol role-legend-symbol" pointer-events="none"><path transform="translate(6,6)" d="M-5,0L5,0" stroke="#eeca3b" stroke-width="1.5" opacity="1"/></g><g class="mark-text role-legend-label" pointer-events="none"><text text-anchor="start" transform="translate(16,9)" font-family="Liberation Mono" font-size="10px" fill="#000" opacity="1">thrive-2</text></g></g><path class="foreground" aria-hidden="true" d="" pointer-events="none" display="none"/></g><g transform="translate(0,78)"><path class="background" aria-hidden="true" d="M0,0h256v11h-256Z" pointer-events="none" opacity="1"/><g><g class="mark-symbol role-legend-symbol" pointer-events="none"><path transform="translate(6,6)" d="M-5,0L5,0" stroke="#b279a2" stroke-width="1.5" opacity="1"/></g><g class="mark-text role-legend-label" pointer-events="none"><text text-anchor="start" transform="translate(16,9)" font-family="Liberation Mono" font-size="10px" fill="#000" opacity="1">allure-rs-1-2023</text></g></g><path class="foreground" aria-hidden="true" d="" pointer-events="none" display="none"/></g><g transform="translate(0,91)"><path class="background" aria-hidden="true" d="M0,0h256v11h-256Z" pointer-events="none" opacity="1"/><g><g class="mark-symbol role-legend-symbol" pointer-events="none"><path transform="translate(6,6)" d="M-5,0L5,0" stroke="#ff9da6" stroke-width="1.5" opacity="1"/></g><g class="mark-text role-legend-label" pointer-events="none"><text text-anchor="start" transform="translate(16,9)" font-family="Liberation Mono" font-size="10px" fill="#000" opacity="1">roam-2</text></g></g><path class="foreground" aria-hidden="true" d="" pointer-events="none" display="none"/></g><g transform="translate(0,104)"><path class="background" aria-hidden="true" d="M0,0h256v11h-256Z" pointer-events="none" opacity="1"/><g><g class="mark-symbol role-legend-symbol" pointer-events="none"><path transform="translate(6,6)" d="M-5,0L5,0" stroke="#9d755d" stroke-width="1.5" opacity="1"/></g><g class="mark-text role-legend-label" pointer-events="none"><text text-anchor="start" transform="translate(16,9)" font-family="Liberation Mono" font-size="10px" fill="#000" opacity="1">fastroad-sl-3-2022</text></g></g><path class="foreground" aria-hidden="true" d="" pointer-events="none" display="none"/></g><g transform="translate(0,117)"><path class="background" aria-hidden="true" d="M0,0h256v11h-256Z" pointer-events="none" opacity="1"/><g><g class="mark-symbol role-legend-symbol" pointer-events="none"><path transform="translate(6,6)" d="M-5,0L5,0" stroke="#bab0ac" stroke-width="1.5" opacity="1"/></g><g class="mark-text role-legend-label" pointer-events="none"><text text-anchor="start" transform="translate(16,9)" font-family="Liberation Mono" font-size="10px" fill="#000" opacity="1">rove-2</text></g></g><path class="foreground" aria-hidden="true" d="" pointer-events="none" display="none"/></g><g transform="translate(0,130)"><path class="background" aria-hidden="true" d="M0,0h256v11h-256Z" pointer-events="none" opacity="1"/><g><g class="mark-symbol role-legend-symbol" pointer-events="none"><path transform="translate(6,6)" d="M-5,0L5,0" stroke="#4c78a8" stroke-width="1.5" opacity="1"/></g><g class="mark-text role-legend-label" pointer-events="none"><text text-anchor="start" transform="translate(16,9)" font-family="Liberation Mono" font-size="10px" fill="#000" opacity="1">allure-rs-2-2023</text></g></g><path class="foreground" aria-hidden="true" d="" pointer-events="none" display="none"/></g><g transform="translate(0,143)"><path class="background" aria-hidden="true" d="M0,0h256v11h-256Z" pointer-events="none" opacity="1"/><g><g class="mark-symbol role-legend-symbol" pointer-events="none"><path transform="translate(6,6)" d="M-5,0L5,0" stroke="#f58518" stroke-width="1.5" opacity="1"/></g><g class="mark-text role-legend-label" pointer-events="none"><text text-anchor="start" transform="translate(16,9)" font-family="Liberation Mono" font-size="10px" fill="#000" opacity="1">escape-city-disc-1-2024</text></g></g><path class="foreground" aria-hidden="true" d="" pointer-events="none" display="none"/></g><g transform="translate(0,156)"><path class="background" aria-hidden="true" d="M0,0h256v11h-256Z" pointer-events="none" opacity="1"/><g><g class="mark-symbol role-legend-symbol" pointer-events="none"><path transform="translate(6,6)" d="M-5,0L5,0" stroke="#e45756" stroke-width="1.5" opacity="1"/></g><g class="mark-text role-legend-label" pointer-events="none"><text text-anchor="start" transform="translate(16,9)" font-family="Liberation Mono" font-size="10px" fill="#000" opacity="1">sdrbike-escape-1-city-disc</text></g></g><path class="foreground" aria-hidden="true" d="" pointer-events="none" display="none"/></g><g transform="translate(0,169)"><path class="background" aria-hidden="true" d="M0,0h256v11h-256Z" pointer-events="none" opacity="1"/><g><g class="mark-symbol role-legend-symbol" pointer-events="none"><path transform="translate(6,6)" d="M-5,0L5,0" stroke="#72b7b2" stroke-width="1.5" opacity="1"/></g><g class="mark-text role-legend-label" pointer-events="none"><text text-anchor="start" transform="translate(16,9)" font-family="Liberation Mono" font-size="10px" fill="#000" opacity="1">roam-disc-2-2024</text></g></g><path class="foreground" aria-hidden="true" d="" pointer-events="none" display="none"/></g><g transform="translate(0,182)"><path class="background" aria-hidden="true" d="M0,0h256v11h-256Z" pointer-events="none" opacity="1"/><g><g class="mark-symbol role-legend-symbol" pointer-events="none"><path transform="translate(6,6)" d="M-5,0L5,0" stroke="#54a24b" stroke-width="1.5" opacity="1"/></g><g class="mark-text role-legend-label" pointer-events="none"><text text-anchor="start" transform="translate(16,9)" font-family="Liberation Mono" font-size="10px" fill="#000" opacity="1">allure-rs-2-2022</text></g></g><path class="foreground" aria-hidden="true" d="" pointer-events="none" display="none"/></g><g transform="translate(0,195)"><path class="background" aria-hidden="true" d="M0,0h256v11h-256Z" pointer-events="none" opacity="1"/><g><g class="mark-symbol role-legend-symbol" pointer-events="none"><path transform="translate(6,6)" d="M-5,0L5,0" stroke="#eeca3b" stroke-width="1.5" opacity="1"/></g><g class="mark-text role-legend-label" pointer-events="none"><text text-anchor="start" transform="translate(16,9)" font-family="Liberation Mono" font-size="10px" fill="#000" opacity="1">allure-rs-2-2024</text></g></g><path class="foreground" aria-hidden="true" d="" pointer-events="none" display="none"/></g></g></g><path class="foreground" aria-hidden="true" d="" pointer-events="none" display="none"/></g></g><g class="mark-text role-legend-title" pointer-events="none"><text text-anchor="start" transform="translate(0,9)" font-family="Liberation Mono" font-size="11px" font-weight="bold" fill="#000" opacity="1">identifier</text></g></g><path class="foreground" aria-hidden="true" d="" pointer-events="none" display="none"/></g></g></g><path class="foreground" aria-hidden="true" d="" display="none"/></g></g></g></svg>