<svg xmlns="http://www.w3.org/2000/svg" xmlns:xlink="http://www.w3.org/1999/xlink" version="1.1" class="marks" width="548" height="244" viewBox="0 0 548 244"><rect width="548" height="244" fill="white"/><g fill="none" stroke-miterlimit="10" transform="translate(67,7)"><g class="mark-group role-frame root" role="graphics-object" aria-roledescription="group mark container"><g transform="translate(0,0)"><path class="background" aria-hidden="true" d="M0.5,0.5h200v200h-200Z" stroke="#ddd"/><g><g class="mark-group role-axis" aria-hidden="true"><g transform="translate(0.5,200.5)"><path class="background" aria-hidden="true" d="M0,0h0v0h0Z" pointer-events="none"/><g><g class="mark-rule role-axis-grid" pointer-events="none"><line transform="translate(20,-200)" x2="0" y2="200" stroke="#ddd" stroke-width="1" opacity="1"/><line transform="translate(74,-200)" x2="0" y2="200" stroke="#ddd" stroke-width="1" opacity="1"/><line transform="translate(127,-200)" x2="0" y2="200" stroke="#ddd" stroke-width="1" opacity="1"/><line transform="translate(180,-200)" x2="0" y2="200" stroke="#ddd" stroke-width="1" opacity="1"/></g></g><path class="foreground" aria-hidden="true" d="" pointer-events="none" display="none"/></g></g><g class="mark-group role-axis" aria-hidden="true"><g transform="translate(0.5,0.5)"><path class="background" aria-hidden="true" d="M0,0h0v0h0Z" pointer-events="none"/><g><g class="mark-rule role-axis-grid" pointer-events="none"><line transform="translate(0,200)" x2="200" y2="0" stroke="#ddd" stroke-width="1" opacity="1"/><line transform="translate(0,144)" x2="200" y2="0" stroke="#ddd" stroke-width="1" opacity="1"/><line transform="translate(0,89)" x2="200" y2="0" stroke="#ddd" stroke-width="1" opacity="1"/><line transform="translate(0,33)" x2="200" y2="0" stroke="#ddd" stroke-width="1" opacity="1"/></g></g><path class="foreground" aria-hidden="true" d="" pointer-events="none" display="none"/></g></g><g class="mark-group role-axis" role="graphics-symbol" aria-roledescription="axis" aria-label="X-axis titled 'Time' for a time scale with values from Thursday, 14 August 2025, 8:34:48 AM to Tuesday, 09 September 2025, 1:18:03 PM"><g transform="translate(0.5,200.5)"><path class="background" aria-hidden="true" d="M0,0h0v0h0Z" pointer-events="none"/><g><g class="mark-rule role-axis-tick" pointer-events="none"><line transform="translate(20,0)" x2="0" y2="5" stroke="#888" stroke-width="1" opacity="1"/><line transform="translate(74,0)" x2="0" y2="5" stroke="#888" stroke-width="1" opacity="1"/><line transform="translate(127,0)" x2="0" y2="5" stroke="#888" stroke-width="1" opacity="1"/><line transform="translate(180,0)" x2="0" y2="5" stroke="#888" stroke-width="1" opacity="1"/></g><g class="mark-text role-axis-label" pointer-events="none"><text text-anchor="middle" transform="translate(20.174231902583536,15)" font-family="Liberation Mono" font-size="10px" fill="#000" opacity="1">Aug 17</text><text text-anchor="middle" transform="translate(73.61608254240866,15)" font-family="Liberation Mono" font-size="10px" fill="#000" opacity="1">Aug 24</text><text text-anchor="middle" transform="translate(127.0579331822338,15)" font-family="Liberation Mono" font-size="10px" fill="#000" opacity="1">Aug 31</text><text text-anchor="middle" transform="translate(180.49978382205893,15)" font-family="Liberation Mono" font-size="10px" fill="#000" opacity="1">Sep 07</text></g><g class="mark-rule role-axis-domain" pointer-events="none"><line transform="translate(0,0)" x2="200" y2="0" stroke="#888" stroke-width="1" opacity="1"/></g><g class="mark-text role-axis-title" pointer-events="none"><text text-anchor="middle" transform="translate(100,30)" font-family="Liberation Mono" font-size="11px" font-weight="bold" fill="#000" opacity="1">Time</text></g></g><path class="foreground" aria-hidden="true" d="" pointer-events="none" display="none"/></g></g><g class="mark-group role-axis" role="graphics-symbol" aria-roledescription="axis" aria-label="Y-axis titled 'Price' for a linear scale with values from 0 to 1,800"><g transform="translate(0.5,0.5)"><path class="background" aria-hidden="true" d="M0,0h0v0h0Z" pointer-events="none"/><g><g class="mark-rule role-axis-tick" pointer-events="none"><line transform="translate(0,200)" x2="-5" y2="0" stroke="#888" stroke-width="1" opacity="1"/><line transform="translate(0,144)" x2="-5" y2="0" stroke="#888" stroke-width="1" opacity="1"/><line transform="translate(0,89)" x2="-5" y2="0" stroke="#888" stroke-width="1" opacity="1"/><line transform="translate(0,33)" x2="-5" y2="0" stroke="#888" stroke-width="1" opacity="1"/></g><g class="mark-text role-axis-label" pointer-events="none"><text text-anchor="end" transform="translate(-7,203)" font-family="Liberation Mono" font-size="10px" fill="#000" opacity="1">0</text><text text-anchor="end" transform="translate(-7,147.44444444444443)" font-family="Liberation Mono" font-size="10px" fill="#000" opacity="1">500</text><text text-anchor="end" transform="translate(-7,91.88888888888889)" font-family="Liberation Mono" font-size="10px" fill="#000" opacity="1">1,000</text><text text-anchor="end" transform="translate(-7,36.33333333333333)" font-family="Liberation Mono" font-size="10px" fill="#000" opacity="1">1,500</text></g><g class="mark-rule role-axis-domain" pointer-events="none"><line transform="translate(0,200)" x2="0" y2="-200" stroke="#888" stroke-width="1" opacity="1"/></g><g class="mark-text role-axis-title" pointer-events="none"><text text-anchor="middle" transform="translate(-51,100) rotate(-90) translate(0,-2)" font-family="Liberation Mono" font-size="11px" font-weight="bold" fill="#000" opacity="1">Price</text></g></g><path class="foreground" aria-hidden="true" d="" pointer-events="none" display="none"/></g></g><g class="mark-group role-scope pathgroup" role="graphics-object" aria-roledescription="group mark container"><g transform="translate(0,0)"><path class="background" aria-hidden="true" d="M0,0h200v200h-200Z"/><g><g class="mark-line role-mark marks" role="graphics-object" aria-roledescription="line mark container"><path aria-label="Time: Aug 14, 2025; Price: 899; identifier: escape-city-disc-1-2024" role="graphics-symbol" aria-roledescription="line mark" d="M0,100.111L0.063,100.111L0.113,100.111L1.521,100.111L2.64,100.111L3.895,100.111L6.47,100.111L7.734,100.111L9.13,100.111L10.276,100.111L11.524,100.111L14.08,100.111L15.359,100.111L16.714,100.111L17.895,100.111L19.147,100.111L21.744,100.111L22.991,100.111L24.352,100.111L25.535,100.111L26.791,100.111L29.4,100.111L30.653,100.111L32.06,100.111L32.553,100.111L33.194,100.111L34.419,100.111L36.976,100.111L38.269,100.111L39.625,100.111L40.809,100.111L42.05,100.111L44.614,100.111L45.893,100.111L47.305,100.111L47.875,100.111L48.441,100.111L49.694,100.111L52.243,100.111L53.534,100.111L54.896,100.111L56.08,100.111L57.324,100.111L59.88,100.111L61.166,100.111L62.527,100.111L63.707,100.111L64.955,100.111L67.509,100.111L68.788,100.111L70.138,100.111L71.321,100.111L72.582,100.111L75.153,100.111L76.418,100.111L77.777,100.111L78.965,100.111L80.219,100.111L82.798,100.111L84.086,100.111L85.479,100.111L86.619,100.111L87.862,100.111L90.42,100.111L91.716,100.111L94.246,100.111L95.489,100.111L98.045,100.111L99.335,100.111L99.836,100.111L100.695,100.111L101.546,100.111L101.88,100.111L103.129,100.111L105.678,100.111L106.973,100.111L108.333,100.111L109.513,100.111L110.76,100.111L113.313,100.111L114.602,100.111L115.958,100.111L117.144,100.111L118.39,100.111L120.939,100.111L122.219,100.111L123.569,100.111L124.76,100.111L125.961,100.111L126.02,100.111L128.577,100.111L129.392,100.111L129.85,100.111L131.207,100.111L132.399,100.111L133.658,100.111L136.236,100.111L137.519,100.111L138.874,100.111L140.043,100.111L141.29,100.111L143.858,100.111L145.149,100.111L146.513,100.111L147.683,100.111L148.93,100.111L151.483,100.111L152.771,100.111L154.131,100.111L155.314,100.111L156.562,100.111L159.115,100.111L160.409,100.111L161.759,100.111L162.953,100.111L164.195,100.111L166.753,100.111L168.041,100.111L169.397,100.111L170.573,100.111L171.832,100.111L174.379,100.111L175.034,100.111L175.653,100.111L177,100.111L178.195,100.111L179.462,100.111L182.012,100.111L183.287,100.111L184.639,100.111L185.831,100.111L187.096,100.111L189.658,100.111L190.957,100.111L192.319,100.111L193.492,100.111L194.742,100.111L197.291,100.111L198.589,100.111L199.996,100.111" stroke="#4c78a8" stroke-width="2"/></g></g><path class="foreground" aria-hidden="true" d="" display="none"/></g><g transform="translate(0,0)"><path class="background" aria-hidden="true" d="M0,0h200v200h-200Z"/><g><g class="mark-line role-mark marks" role="graphics-object" aria-roledescription="line mark container"><path aria-label="Time: Aug 14, 2025; Price: 999; identifier: roam-2" role="graphics-symbol" aria-roledescription="line mark" d="M0,89L0.064,89L0.114,89L1.521,89L2.64,89L3.895,89L6.47,89L7.734,89L9.13,89L10.276,89L11.525,89L14.08,89L15.359,89L16.714,89L17.895,89L19.159,89L21.744,89L22.991,89L24.353,89L25.535,89L26.792,89L29.4,89L30.654,89L32.06,89L32.554,89L33.195,89L34.419,89L36.977,89L38.269,89L39.625,89L40.809,89L42.051,89L44.614,89L45.893,89L47.305,89L47.876,89L48.441,89L49.694,89L52.244,89L53.534,89L54.896,89L56.081,89L57.325,89L59.88,89L61.166,89L62.528,89L63.707,89L64.955,89L67.509,89L68.789,89L70.138,89L71.322,89L72.582,89L75.153,89L76.418,89L77.777,89L78.966,89L80.219,89L82.798,89L84.087,89L85.48,89L86.619,89L87.862,89L90.42,89L91.716,89L94.247,89L95.489,89L98.045,89L99.335,89L99.836,89L100.695,89L101.547,89L101.88,89L103.129,89L105.679,89L106.973,89L108.333,89L109.513,89L110.761,89L113.314,89L114.603,89L115.959,89L117.145,89L118.391,89L120.94,89L122.219,89L123.57,89L124.761,89L125.961,89L126.021,89L128.577,89L129.393,89L129.85,89L131.208,89L132.399,89L133.658,89L136.236,89L137.52,89L138.874,89L140.043,89L141.291,89L143.858,89L145.149,89L146.513,89L147.683,89L148.93,89L151.483,89L152.772,89L154.132,89L155.314,89L156.562,89L159.116,89L160.409,89L161.759,89L162.954,89L164.195,89L166.753,89L168.042,89L169.398,89L170.574,89L171.832,89L174.38,89L175.035,89L175.654,89L177,89L178.196,89L179.463,89L182.012,89L183.287,89L184.64,89L185.831,89L187.097,89L189.66,89L190.958,89L192.319,89L193.492,89L194.743,89L197.291,89L198.589,89L199.997,89" stroke="#ff9da6" stroke-width="2"/></g></g><path class="foreground" aria-hidden="true" d="" display="none"/></g><g transform="translate(0,0)"><path class="background" aria-hidden="true" d="M0,0h200v200h-200Z"/><g><g class="mark-line role-mark marks" role="graphics-object" aria-roledescription="line mark container"><path aria-label="Time: Aug 14, 2025; Price: 999; identifier: fastroad-sl-3-2022" role="graphics-symbol" aria-roledescription="line mark" d="M0,89L0.064,89L0.114,89L1.521,89L2.64,89L3.895,89L6.47,89L7.735,89L9.131,89L10.276,89L11.525,89L14.08,89L15.359,89L16.715,89L17.896,89L19.159,89L21.744,89L22.991,89L24.353,89L25.536,89L26.792,89L29.4,89L30.654,89L32.06,89L32.554,89L33.195,89L34.419,89L36.977,89L38.269,89L39.625,89L40.809,89L42.051,89L44.614,89L45.894,89L47.305,89L47.876,89L48.441,89L49.694,89L52.244,89L53.534,89L54.896,89L56.081,89L57.325,89L59.88,89L61.167,89L62.528,89L63.707,89L64.955,89L67.509,89L68.789,89L70.139,89L71.322,89L72.582,89L75.153,89L76.418,89L77.777,89L78.966,89L80.219,89L82.799,89L84.087,89L85.48,89L86.62,89L87.862,89L90.42,89L91.717,89L94.247,89L95.489,89L98.046,89L99.336,89L99.837,89L100.695,89L101.547,89L101.88,89L103.129,89L105.679,89L106.973,89L108.333,89L109.513,89L110.761,89L113.314,89L114.603,89L115.959,89L117.145,89L118.391,89L120.94,89L122.219,89L123.57,89L124.761,89L125.961,89L126.021,89L128.577,89L129.393,89L129.85,89L131.208,89L132.4,89L133.658,89L136.236,89L137.52,89L138.874,89L140.044,89L141.291,89L143.859,89L145.149,89L146.514,89L147.683,89L148.931,89L151.483,89L152.772,89L154.132,89L155.314,89L156.563,89L159.116,89L160.409,89L161.759,89L162.954,89L164.195,89L166.754,89L168.042,89L169.398,89L170.574,89L171.832,89L174.38,89L175.035,89L175.654,89L177,89L178.196,89L179.463,89L182.012,89L183.287,89L184.64,89L185.831,89L187.097,89L189.66,89L190.958,89L192.32,89L193.493,89L194.743,89L197.291,89L198.59,89L199.997,89" stroke="#9d755d" stroke-width="2"/></g></g><path class="foreground" aria-hidden="true" d="" display="none"/></g><g transform="translate(0,0)"><path class="background" aria-hidden="true" d="M0,0h200v200h-200Z"/><g><g class="mark-line role-mark marks" role="graphics-object" aria-roledescription="line mark container"><path aria-label="Time: Aug 14, 2025; Price: 1199; identifier: fastroad-ar-2" role="graphics-symbol" aria-roledescription="line mark" d="M0.001,66.778L0.064,66.778L0.114,66.778L1.522,66.778L2.64,66.778L3.895,66.778L6.47,66.778L7.735,66.778L9.131,66.778L10.276,66.778L11.525,66.778L14.08,66.778L15.36,66.778L16.715,66.778L17.896,66.778L19.166,66.778L21.744,66.778L22.991,66.778L24.353,66.778L25.536,66.778L26.792,66.778L29.4,66.778L30.654,66.778L32.06,66.778L32.554,66.778L33.195,66.778L34.419,66.778L36.977,66.778L38.269,66.778L39.625,66.778L40.81,66.778L42.051,66.778L44.614,66.778L45.894,66.778L47.305,66.778L47.876,66.778L48.441,66.778L49.695,66.778L52.244,66.778L53.534,66.778L54.897,66.778L56.081,66.778L57.325,66.778L59.881,66.778L61.167,66.778L62.528,66.778L63.708,66.778L64.955,66.778L67.51,66.778L68.789,66.778L70.139,66.778L71.322,66.778L72.582,66.778L75.153,66.778L76.419,66.778L77.777,66.778L78.966,66.778L80.219,66.778L82.799,66.778L84.087,66.778L85.48,66.778L86.62,66.778L87.863,66.778L90.421,66.778L91.717,66.778L94.247,66.778L95.489,66.778L98.046,66.778L99.336,66.778L99.837,66.778L100.696,66.778L101.547,66.778L101.88,66.778L103.129,66.778L105.679,66.778L106.973,66.778L108.333,66.778L109.514,66.778L110.761,66.778L113.314,66.778L114.603,66.778L115.959,66.778L117.145,66.778L118.391,66.778L120.94,66.778L122.219,66.778L123.57,66.778L124.761,66.778L125.961,66.778L126.021,66.778L128.578,66.778L129.393,66.778L129.85,66.778L131.208,66.778L132.4,66.778L133.658,66.778L136.236,66.778L137.52,66.778L138.875,66.778L140.044,66.778L141.291,66.778L143.859,66.778L145.15,66.778L146.514,66.778L147.683,66.778L148.931,66.778L151.484,66.778L152.772,66.778L154.132,66.778L155.314,66.778L156.563,66.778L159.116,66.778L160.409,66.778L161.759,66.778L162.954,66.778L164.195,66.778L166.754,66.778L168.042,66.778L169.398,66.778L170.574,66.778L171.833,66.778L174.38,66.778L175.035,66.778L175.654,66.778L177.001,66.778L178.196,66.778L179.463,66.778L182.012,66.778L183.288,66.778L184.64,66.778L185.831,66.778L187.097,66.778L189.66,66.778L190.958,66.778L192.32,66.778L193.493,66.778L194.743,66.778L197.291,66.778L198.59,66.778L199.997,66.778" stroke="#54a24b" stroke-width="2"/></g></g><path class="foreground" aria-hidden="true" d="" display="none"/></g><g transform="translate(0,0)"><path class="background" aria-hidden="true" d="M0,0h200v200h-200Z"/><g><g class="mark-line role-mark marks" role="graphics-object" aria-roledescription="line mark container"><path aria-label="Time: Aug 18, 2025; Price: 899; identifier: sdrbike-escape-1-city-disc" role="graphics-symbol" aria-roledescription="line mark" d="M32.554,100.111L33.195,100.111L34.419,100.111L36.977,100.111L38.269,100.111L39.625,100.111L40.81,100.111L42.051,100.111L44.614,100.111L45.894,100.111L47.305,100.111L47.877,100.111L48.442,100.111L49.695,100.111L52.244,100.111L53.534,100.111L54.897,100.111L56.081,100.111L57.325,100.111L59.881,100.111L61.167,100.111L62.528,100.111L63.708,100.111L64.956,100.111L67.51,100.111L68.79,100.111L70.139,100.111L71.322,100.111L72.583,100.111L75.154,100.111L76.419,100.111L77.778,100.111L78.966,100.111L80.219,100.111L82.799,100.111L84.087,100.111L85.48,100.111L86.62,100.111L87.863,100.111L90.422,100.111L91.717,100.111L94.247,100.111L95.489,100.111L98.046,100.111L99.336,100.111L99.837,100.111L100.696,100.111L101.547,100.111L101.881,100.111L103.13,100.111L105.679,100.111L106.974,100.111L108.334,100.111L109.514,100.111L110.761,100.111L113.314,100.111L114.603,100.111L115.959,100.111L117.145,100.111L118.391,100.111L120.94,100.111L122.219,100.111L123.57,100.111L124.761,100.111L125.962,100.111L126.021,100.111L128.578,100.111L129.393,100.111L129.851,100.111L131.208,100.111L132.4,100.111L133.658,100.111L136.237,100.111L137.52,100.111L138.875,100.111L140.044,100.111L141.291,100.111L143.859,100.111L145.15,100.111L146.514,100.111L147.683,100.111L148.931,100.111L151.484,100.111L152.772,100.111L154.132,100.111L155.314,100.111L156.563,100.111L159.116,100.111L160.41,100.111L161.76,100.111L162.954,100.111L164.196,100.111L166.754,100.111L168.042,100.111L169.398,100.111L170.574,100.111L171.833,100.111L174.38,100.111L175.035,100.111L175.654,100.111L177.001,100.111L178.196,100.111L179.463,100.111L182.012,100.111L183.288,100.111L184.64,100.111L185.831,100.111L187.097,100.111L189.66,100.111L190.958,100.111L192.32,100.111L193.493,100.111L194.743,100.111L197.292,100.111L198.59,100.111L199.997,100.111" stroke="#f58518" stroke-width="2"/></g></g><path class="foreground" aria-hidden="true" d="" display="none"/></g><g transform="translate(0,0)"><path class="background" aria-hidden="true" d="M0,0h200v200h-200Z"/><g><g class="mark-line role-mark marks" role="graphics-object" aria-roledescription="line mark container"><path aria-label="Time: Aug 20, 2025; Price: 899; identifier: roam-disc-2-2024" role="graphics-symbol" aria-roledescription="line mark" d="M47.876,100.111L48.441,100.111L49.694,100.111L52.244,100.111L53.534,100.111L54.896,100.111L56.08,100.111L57.325,100.111L59.88,100.111L61.166,100.111L62.527,100.111L63.707,100.111L64.955,100.111L67.509,100.111L68.789,100.111L70.138,100.111L71.322,100.111L72.582,100.111L75.153,100.111L76.418,100.111L77.777,100.111L78.966,100.111L80.219,100.111L82.798,100.111L84.086,100.111L85.479,100.111L86.619,100.111L87.862,100.111L90.42,100.111L91.716,100.111L94.246,100.111L95.489,100.111L98.045,100.111L99.335,100.111L99.836,100.111L100.695,100.111L101.547,100.111L101.88,100.111L103.129,100.111L105.678,100.111L106.973,100.111L108.333,100.111L109.513,100.111L110.76,100.111L113.313,100.111L114.602,100.111L115.958,100.111L117.145,100.111L118.391,100.111L120.939,100.111L122.219,100.111L123.569,100.111L124.761,100.111L125.961,100.111L126.021,100.111L128.577,100.111L129.393,100.111L129.85,100.111L131.208,100.111L132.399,100.111L133.658,100.111L136.236,100.111L137.519,100.111L138.874,100.111L140.043,100.111L141.291,100.111L143.858,100.111L145.149,100.111L146.513,100.111L147.683,100.111L148.93,100.111L151.483,100.111L152.771,100.111L154.131,100.111L155.314,100.111L156.562,100.111L159.115,100.111L160.409,100.111L161.759,100.111L162.954,100.111L164.195,100.111L166.753,100.111L168.042,100.111L169.398,100.111L170.573,100.111L171.832,100.111L174.38,100.111L175.035,100.111L175.653,100.111L177,100.111L178.196,100.111L179.463,100.111L182.012,100.111L183.287,100.111L184.639,100.111L185.831,100.111L187.097,100.111L189.66,100.111L190.958,100.111L192.319,100.111L193.492,100.111L194.743,100.111L197.291,100.111L198.589,100.111L199.997,100.111" stroke="#e45756" stroke-width="2"/></g></g><path class="foreground" aria-hidden="true" d="" display="none"/></g><g transform="translate(0,0)"><path class="background" aria-hidden="true" d="M0,0h200v200h-200Z"/><g><g class="mark-line role-mark marks" role="graphics-object" aria-roledescription="line mark container"><path aria-label="Time: Aug 20, 2025; Price: 1199; identifier: thrive-2" role="graphics-symbol" aria-roledescription="line mark" d="M47.877,66.778L48.442,66.778L49.695,66.778L52.244,66.778L53.535,66.778L54.897,66.778L56.081,66.778L57.326,66.778L59.881,66.778L61.167,66.778L62.529,66.778L63.708,66.778L64.956,66.778L67.51,66.778L68.79,66.778L70.139,66.778L71.322,66.778L72.583,66.778L75.154,66.778L76.419,66.778L77.778,66.778L78.966,66.778L80.22,66.778L82.799,66.778L84.087,66.778L85.48,66.778L86.62,66.778L87.863,66.778L90.422,66.778L91.717,66.778L94.248,66.778L95.49,66.778L98.046,66.778L99.336,66.778L99.838,66.778L100.696,66.778L101.547,66.778L101.881,66.778L103.13,66.778L105.679,66.778L106.974,66.778L108.334,66.778L109.514,66.778L110.761,66.778L113.314,66.778L114.603,66.778L115.959,66.778L117.145,66.778L118.392,66.778L120.94,66.778L122.22,66.778L123.571,66.778L124.761,66.778L125.962,66.778L126.021,66.778L128.578,66.778L129.393,66.778L129.851,66.778L131.209,66.778L132.4,66.778L133.659,66.778L136.237,66.778L137.52,66.778L138.875,66.778L140.044,66.778L141.292,66.778L143.859,66.778L145.15,66.778L146.514,66.778L147.684,66.778L148.931,66.778L151.484,66.778L152.772,66.778L154.132,66.778L155.314,66.778L156.563,66.778L159.116,66.778L160.41,66.778L161.76,66.778L162.955,66.778L164.196,66.778L166.754,66.778L168.042,66.778L169.398,66.778L170.575,66.778L171.833,66.778L174.381,66.778L175.035,66.778L175.654,66.778L177.001,66.778L178.196,66.778L179.463,66.778L182.013,66.778L183.288,66.778L184.64,66.778L185.832,66.778L187.097,66.778L189.66,66.778L190.959,66.778L192.32,66.778L193.493,66.778L194.743,66.778L197.292,66.778L198.59,66.778L199.998,66.778" stroke="#eeca3b" stroke-width="2"/></g></g><path class="foreground" aria-hidden="true" d="" display="none"/></g><g transform="translate(0,0)"><path class="background" aria-hidden="true" d="M0,0h200v200h-200Z"/><g><g class="mark-line role-mark marks" role="graphics-object" aria-roledescription="line mark container"><path aria-label="Time: Aug 20, 2025; Price: 999; identifier: rove-2" role="graphics-symbol" aria-roledescription="line mark" d="M47.877,89L48.442,89L49.695,89L52.244,89L53.535,89L54.897,89L56.081,89L57.326,89L59.881,89L61.167,89L62.529,89L63.708,89L64.956,89L67.51,89L68.79,89L70.139,89L71.323,89L72.583,89L75.154,89L76.419,89L77.778,89L78.967,89L80.22,89L82.799,89L84.087,89L85.48,89L86.62,89L87.863,89L90.422,89L91.717,89L94.248,89L95.49,89L98.046,89L99.336,89L99.838,89L100.696,89L101.547,89L101.881,89L103.13,89L105.68,89L106.974,89L108.334,89L109.514,89L110.761,89L113.315,89L114.603,89L115.96,89L117.146,89L118.392,89L125.962,111.222L126.021,111.222L128.578,111.222L129.394,111.222L129.851,111.222L131.209,111.222L132.4,111.222L133.659,111.222L136.237,111.222L137.52,111.222L138.875,111.222L140.045,111.222L141.292,111.222L143.86,111.222L145.15,111.222L146.515,111.222L147.684,111.222L148.931,111.222L151.484,111.222L152.772,111.222L154.132,111.222L155.315,111.222L156.563,111.222L159.117,111.222L160.41,111.222L161.76,111.222L162.955,111.222L164.196,111.222L166.754,111.222L168.043,111.222L169.399,111.222L170.575,111.222L171.833,111.222L174.381,111.222L175.035,111.222L175.655,111.222L177.001,111.222L178.197,111.222L179.463,111.222L182.013,111.222L183.288,111.222L184.641,111.222L185.832,111.222L187.098,111.222L189.661,111.222L190.959,111.222L192.32,111.222L193.493,111.222L194.744,111.222L197.292,111.222L198.59,111.222L199.998,111.222" stroke="#72b7b2" stroke-width="2"/></g></g><path class="foreground" aria-hidden="true" d="" display="none"/></g><g transform="translate(0,0)"><path class="background" aria-hidden="true" d="M0,0h200v200h-200Z"/><g><g class="mark-line role-mark marks" role="graphics-object" aria-roledescription="line mark container"><path aria-label="Time: Aug 27, 2025; Price: 1199; identifier: allure-rs-1-2023" role="graphics-symbol" aria-roledescription="line mark" d="M99.839,66.778L100.696,66.778L101.548,66.778L101.881,66.778L103.13,66.778L105.68,66.778L106.974,66.778L108.334,66.778L109.514,66.778L110.762,66.778L113.315,66.778L114.604,66.778L115.96,66.778L117.146,66.778L118.392,66.778L120.941,66.778L122.22,66.778L123.571,66.778L124.762,66.778L125.962,66.778L126.022,66.778L128.578,66.778L129.394,66.778L129.851,66.778L131.209,66.778L132.4,66.778L133.659,66.778L136.237,66.778L137.521,66.778L138.875,66.778L140.045,66.778L141.292,66.778L143.86,66.778L145.15,66.778L146.515,66.778L147.684,66.778L148.932,66.778L151.484,66.778L152.773,66.778L154.133,66.778L155.315,66.778L156.563,66.778L159.117,66.778L160.41,66.778L161.76,66.778L162.955,66.778L164.196,66.778L166.754,66.778L168.043,66.778L169.399,66.778L170.575,66.778L171.833,66.778L174.381,66.778L175.036,66.778L175.655,66.778L177.001,66.778L178.197,66.778L179.464,66.778L182.013,66.778L183.288,66.778L184.641,66.778L185.832,66.778L187.098,66.778L189.661,66.778L190.959,66.778L192.321,66.778L193.493,66.778L194.744,66.778L197.292,66.778L198.59,66.778L199.998,66.778" stroke="#b279a2" stroke-width="2"/></g></g><path class="foreground" aria-hidden="true" d="" display="none"/></g><g transform="translate(0,0)"><path class="background" aria-hidden="true" d="M0,0h200v200h-200Z"/><g><g class="mark-line role-mark marks" role="graphics-object" aria-roledescription="line mark container"><path aria-label="Time: Aug 27, 2025; Price: 999; identifier: allure-rs-2-2022" role="graphics-symbol" aria-roledescription="line mark" d="M99.839,89L100.696,89L101.548,89L101.881,89L103.13,89L105.68,89L106.975,89L108.334,89L109.515,89L110.762,89L113.315,89L114.604,89L115.96,89L117.146,89L118.392,89L125.963,111.222L126.022,111.222L128.579,111.222L129.394,111.222L129.852,111.222L131.209,111.222L132.401,111.222L133.659,111.222L136.237,111.222L137.521,111.222L138.876,111.222L140.045,111.222L141.292,111.222L143.86,111.222L145.151,111.222L146.515,111.222L147.684,111.222L148.932,111.222L151.484,111.222L152.773,111.222L154.133,111.222L155.315,111.222L156.564,111.222L159.117,111.222L160.41,111.222L161.76,111.222L162.955,111.222L164.197,111.222L166.755,111.222L168.043,111.222L169.399,111.222L170.575,111.222L171.833,111.222L174.381,111.222L175.036,111.222L175.655,111.222L177.002,111.222L178.197,111.222L179.464,111.222L182.013,111.222L183.289,111.222L184.641,111.222L185.832,111.222L187.098,111.222L189.661,111.222L190.959,111.222L192.321,111.222L193.494,111.222L194.744,111.222L197.292,111.222L198.591,111.222L199.999,111.222" stroke="#54a24b" stroke-width="2"/></g></g><path class="foreground" aria-hidden="true" d="" display="none"/></g><g transform="translate(0,0)"><path class="background" aria-hidden="true" d="M0,0h200v200h-200Z"/><g><g class="mark-line role-mark marks" role="graphics-object" aria-roledescription="line mark container"><path aria-label="Time: Aug 27, 2025; Price: 949; identifier: allure-rs-2-2023" role="graphics-symbol" aria-roledescription="line mark" d="M99.84,94.556L100.697,94.556L101.548,94.556L101.881,94.556L103.131,94.556L105.68,94.556L106.975,94.556L108.335,94.556L109.515,94.556L110.762,94.556L113.315,94.556L114.604,94.556L115.96,94.556L117.146,94.556L118.392,94.556L120.941,94.556L122.22,94.556L123.571,94.556L124.762,94.556L125.963,94.556L126.022,94.556L128.579,94.556L129.394,94.556L129.852,94.556L131.209,94.556L132.401,94.556L133.659,94.556L136.238,94.556L137.521,94.556L138.876,94.556L140.045,94.556L141.292,94.556L143.86,94.556L145.151,94.556L146.515,94.556L147.684,94.556L148.932,94.556L151.485,94.556L152.773,94.556L154.133,94.556L155.315,94.556L156.564,94.556L159.117,94.556L160.411,94.556L161.76,94.556L162.955,94.556L164.197,94.556L166.755,94.556L168.043,94.556L169.399,94.556L170.575,94.556L171.834,94.556L174.381,94.556L175.036,94.556L175.655,94.556L177.002,94.556L178.197,94.556L179.464,94.556L182.013,94.556L183.289,94.556L184.641,94.556L185.832,94.556L187.098,94.556L189.661,94.556L190.959,94.556L192.321,94.556L193.494,94.556L194.744,94.556L197.292,94.556L198.591,94.556L199.999,94.556" stroke="#bab0ac" stroke-width="2"/></g></g><path class="foreground" aria-hidden="true" d="" display="none"/></g><g transform="translate(0,0)"><path class="background" aria-hidden="true" d="M0,0h200v200h-200Z"/><g><g class="mark-line role-mark marks" role="graphics-object" aria-roledescription="line mark container"><path aria-label="Time: Aug 27, 2025; Price: 999; identifier: allure-rs-2-2024" role="graphics-symbol" aria-roledescription="line mark" d="M99.84,89L100.697,89L101.548,89L101.881,89L103.131,89L105.68,89L106.975,89L108.335,89L109.515,89L110.762,89L113.315,89L114.604,89L115.96,89L117.146,89L118.393,89L125.963,111.222L126.022,111.222L128.579,111.222L129.394,111.222L129.852,111.222L131.21,111.222L132.401,111.222L133.659,111.222L136.238,111.222L137.521,111.222L138.876,111.222L140.045,111.222L141.293,111.222L143.86,111.222L145.151,111.222L146.515,111.222L147.684,111.222L148.932,111.222L151.485,111.222L152.773,111.222L154.133,111.222L155.315,111.222L156.564,111.222L159.117,111.222L160.411,111.222L161.761,111.222L162.956,111.222L164.197,111.222L166.755,111.222L168.043,111.222L169.399,111.222L170.575,111.222L171.834,111.222L174.381,111.222L175.036,111.222L175.655,111.222L177.002,111.222L178.197,111.222L179.464,111.222L182.013,111.222L183.289,111.222L184.641,111.222L185.832,111.222L187.098,111.222L189.661,111.222L190.96,111.222L192.321,111.222L193.494,111.222L194.744,111.222L197.293,111.222L198.591,111.222L199.999,111.222" stroke="#eeca3b" stroke-width="2"/></g></g><path class="foreground" aria-hidden="true" d="" display="none"/></g><g transform="translate(0,0)"><path class="background" aria-hidden="true" d="M0,0h200v200h-200Z"/><g><g class="mark-line role-mark marks" role="graphics-object" aria-roledescription="line mark container"><path aria-label="Time: Aug 27, 2025; Price: 1799; identifier: devote-1-2024" role="graphics-symbol" aria-roledescription="line mark" d="M101.548,0.111L101.882,0.111L103.131,0.111L105.681,0.111L106.975,0.111L108.335,0.111L109.515,0.111L110.762,0.111L113.315,0.111L114.604,0.111L115.96,0.111L117.146,0.111L118.393,0.111L125.963,44.556L126.022,44.556L128.579,44.556L129.394,44.556L129.852,44.556L131.21,44.556L132.401,44.556L133.659,44.556L136.238,44.556L137.521,44.556L138.876,44.556L140.045,44.556L141.293,44.556L143.861,44.556L145.151,44.556L146.516,44.556L147.685,44.556L148.932,44.556L151.485,44.556L152.773,44.556L154.133,44.556L155.315,44.556L156.564,44.556L159.118,44.556L160.411,44.556L161.761,44.556L162.956,44.556L164.197,44.556L166.755,44.556L168.043,44.556L169.399,44.556L170.576,44.556L171.834,44.556L174.381,44.556L175.036,44.556L175.656,44.556L177.002,44.556L178.197,44.556L179.464,44.556L182.014,44.556L183.289,44.556L184.641,44.556L185.832,44.556L187.098,44.556L189.661,44.556L190.96,44.556L192.321,44.556L193.494,44.556L194.744,44.556L197.293,44.556L198.591,44.556L199.999,44.556" stroke="#72b7b2" stroke-width="2"/></g></g><path class="foreground" aria-hidden="true" d="" display="none"/></g><g transform="translate(0,0)"><path class="background" aria-hidden="true" d="M0,0h200v200h-200Z"/><g><g class="mark-line role-mark marks" role="graphics-object" aria-roledescription="line mark container"><path aria-label="Time: Aug 27, 2025; Price: 1699; identifier: devote-1-2022" role="graphics-symbol" aria-roledescription="line mark" d="M101.548,11.222L101.882,11.222L103.131,11.222L105.681,11.222L106.975,11.222L108.335,11.222L109.515,11.222L110.762,11.222L113.316,11.222L114.604,11.222L115.961,11.222L117.146,11.222L118.393,11.222L120.941,11.222L122.221,11.222L123.572,11.222L124.762,11.222L125.963,11.222L126.022,11.222L128.579,11.222L129.394,11.222L129.852,11.222L131.21,11.222L132.401,11.222L133.66,11.222L136.238,11.222L137.521,11.222L138.876,11.222L140.046,11.222L141.293,11.222L143.861,11.222L145.151,11.222L146.516,11.222L147.685,11.222L148.933,11.222L151.485,11.222L152.773,11.222L154.133,11.222L155.316,11.222L156.564,11.222L159.118,11.222L160.411,11.222L161.761,11.222L162.956,11.222L164.197,11.222L166.755,11.222L168.044,11.222L169.4,11.222L170.576,11.222L171.834,11.222L174.382,11.222L175.036,11.222L175.656,11.222L177.002,11.222L178.197,11.222L179.464,11.222L182.014,11.222L183.289,11.222L184.642,11.222L185.833,11.222L187.098,11.222L189.662,11.222L190.96,11.222L192.322,11.222L193.494,11.222L194.745,11.222L197.293,11.222L198.591,11.222L199.999,11.222" stroke="#4c78a8" stroke-width="2"/></g></g><path class="foreground" aria-hidden="true" d="" display="none"/></g><g transform="translate(0,0)"><path class="background" aria-hidden="true" d="M0,0h200v200h-200Z"/><g><g class="mark-line role-mark marks" role="graphics-object" aria-roledescription="line mark container"><path aria-label="Time: Aug 31, 2025; Price: 1599; identifier: silex-400-oak-bork-2026" role="graphics-symbol" aria-roledescription="line mark" d="M129.395,22.333L129.853,22.333L131.21,22.333L132.401,22.333L133.66,22.333L136.238,22.333L137.522,22.333L138.877,22.333L140.046,22.333L141.293,22.333L143.861,22.333L145.151,22.333L146.516,22.333L147.685,22.333L148.933,22.333L151.485,22.333L152.774,22.333L154.134,22.333L155.316,22.333L156.564,22.333L159.118,22.333L160.411,22.333L161.761,22.333L162.956,22.333L164.198,22.333L166.755,22.333L168.044,22.333L169.4,22.333L170.576,22.333L171.834,22.333L174.382,22.333L175.037,22.333L175.656,22.333L177.003,22.333L178.198,22.333L179.465,22.333L182.014,22.333L183.29,22.333L184.642,22.333L185.833,22.333L187.099,22.333L189.662,22.333L190.96,22.333L192.322,22.333L193.495,22.333L194.745,22.333L197.293,22.333L198.592,22.333L200,22.333" stroke="#f58518" stroke-width="2"/></g></g><path class="foreground" aria-hidden="true" d="" display="none"/></g><g transform="translate(0,0)"><path class="background" aria-hidden="true" d="M0,0h200v200h-200Z"/><g><g class="mark-line role-mark marks" role="graphics-object" aria-roledescription="line mark container"><path aria-label="Time: Aug 31, 2025; Price: 1599; identifier: silex-400-warm-slate-grey-2026" role="graphics-symbol" aria-roledescription="line mark" d="M129.395,22.333L129.853,22.333L131.211,22.333L132.402,22.333L133.66,22.333L136.239,22.333L137.522,22.333L138.877,22.333L140.046,22.333L141.294,22.333L143.861,22.333L145.152,22.333L146.517,22.333L147.685,22.333L148.933,22.333L151.486,22.333L152.774,22.333L154.134,22.333L155.316,22.333L156.565,22.333L159.118,22.333L160.412,22.333L161.762,22.333L162.957,22.333L164.198,22.333L166.756,22.333L168.044,22.333L169.4,22.333L170.577,22.333L171.835,22.333L174.382,22.333L175.037,22.333L175.657,22.333L177.004,22.333L178.198,22.333L179.465,22.333L182.014,22.333L183.29,22.333L184.642,22.333L185.833,22.333L187.099,22.333L189.662,22.333L190.961,22.333L192.322,22.333L193.495,22.333L194.745,22.333L197.294,22.333L198.592,22.333L200,22.333" stroke="#e45756" stroke-width="2"/></g></g><path class="foreground" aria-hidden="true" d="" display="none"/></g></g><g class="mark-group role-legend" role="graphics-symbol" aria-roledescription="legend" aria-label="Symbol legend titled 'identifier' for stroke color with 16 values: devote-1-2022, silex-400-oak-bork-2026, silex-400-warm-slate-grey-2026, devote-1-2024, fastroad-ar-2, ending with allure-rs-2-2024"><g transform="translate(220,0)"><path class="background" aria-hidden="true" d="M0,0h256v222h-256Z" pointer-events="none"/><g><g class="mark-group role-legend-entry"><g transform="translate(0,16)"><path class="background" aria-hidden="true" d="M0,0h0v0h0Z" pointer-events="none"/><g><g class="mark-group role-scope" role="graphics-object" aria-roledescription="group mark container"><g transform="translate(0,0)"><path class="background" aria-hidden="true" d="M0,0h256v11h-256Z" pointer-events="none" opacity="1"/><g><g class="mark-symbol role-legend-symbol" pointer-events="none"><path transform="translate(6,6)" d="M-5,0L5,0" stroke="#4c78a8" stroke-width="1.5" opacity="1"/></g><g class="mark-text role-legend-label" pointer-events="none"><text text-anchor="start" transform="translate(16,9)" font-family="Liberation Mono" font-size="10px" fill="#000" opacity="1">devote-1-2022</text></g></g><path class="foreground" aria-hidden="true" d="" pointer-events="none" display="none"/></g><g transform="translate(0,13)"><path class="background" aria-hidden="true" d="M0,0h256v11h-256Z" pointer-events="none" opacity="1"/><g><g class="mark-symbol role-legend-symbol" pointer-events="none"><path transform="translate(6,6)" d="M-5,0L5,0" stroke="#f58518" stroke-width="1.5" opacity="1"/></g><g class="mark-text role-legend-label" pointer-events="none"><text text-anchor="start" transform="translate(16,9)" font-family="Liberation Mono" font-size="10px" fill="#000" opacity="1">silex-400-oak-bork-2026</text></g></g><path class="foreground" aria-hidden="true" d="" pointer-events="none" display="none"/></g><g transform="translate(0,26)"><path class="background" aria-hidden="true" d="M0,0h256v11h-256Z" pointer-events="none" opacity="1"/><g><g class="mark-symbol role-legend-symbol" pointer-events="none"><path transform="translate(6,6)" d="M-5,0L5,0" stroke="#e45756" stroke-width="1.5" opacity="1"/></g><g class="mark-text role-legend-label" pointer-events="none"><text text-anchor="start" transform="translate(16,9)" font-family="Liberation Mono" font-size="10px" fill="#000" opacity="1">silex-400-warm-slate-grey-2026</text></g></g><path class="foreground" aria-hidden="true" d="" pointer-events="none" display="none"/></g><g transform="translate(0,39)"><path class="background" aria-hidden="true" d="M0,0h256v11h-256Z" pointer-events="none" opacity="1"/><g><g class="mark-symbol role-legend-symbol" pointer-events="none"><path transform="translate(6,6)" d="M-5,0L5,0" stroke="#72b7b2" stroke-width="1.5" opacity="1"/></g><g class="mark-text role-legend-label" pointer-events="none"><text text-anchor="start" transform="translate(16,9)" font-family="Liberation Mono" font-size="10px" fill="#000" opacity="1">devote-1-2024</text></g></g><path class="foreground" aria-hidden="true" d="" pointer-events="none" display="none"/></g><g transform="translate(0,52)"><path class="background" aria-hidden="true" d="M0,0h256v11h-256Z" pointer-events="none" opacity="1"/><g><g class="mark-symbol role-legend-symbol" pointer-events="none"><path transform="translate(6,6)" d="M-5,0L5,0" stroke="#54a24b" stroke-width="1.5" opacity="1"/></g><g class="mark-text role-legend-label" pointer-events="none"><text text-anchor="start" transform="translate(16,9)" font-family="Liberation Mono" font-size="10px" fill="#000" opacity="1">fastroad-ar-2</text></g></g><path class="foreground" aria-hidden="true" d="" pointer-events="none" display="none"/></g><g transform="translate(0,65)"><path class="background" aria-hidden="true" d="M0,0h256v11h-256Z" pointer-events="none" opacity="1"/><g><g class="mark-symbol role-legend-symbol" pointer-events="none"><path transform="translate(6,6)" d="M-5,0L5,0" stroke="#eeca3b" stroke-width="1.5" opacity="1"/></g><g class="mark-text role-legend-label" pointer-events="none"><text text-anchor="start" transform="translate(16,9)" font-family="Liberation Mono" font-size="10px" fill="#000" opacity="1">thrive-2</text></g></g><path class="foreground" aria-hidden="true" d="" pointer-events="none" display="none"/></g><g transform="translate(0,78)"><path class="background" aria-hidden="true" d="M0,0h256v11h-256Z" pointer-events="none" opacity="1"/><g><g class="mark-symbol role-legend-symbol" pointer-events="none"><path transform="translate(6,6)" d="M-5,0L5,0" stroke="#b279a2" stroke-width="1.5" opacity="1"/></g><g class="mark-text role-legend-label" pointer-events="none"><text text-anchor="start" transform="translate(16,9)" font-family="Liberation Mono" font-size="10px" fill="#000" opacity="1">allure-rs-1-2023</text></g></g><path class="foreground" aria-hidden="true" d="" pointer-events="none" display="none"/></g><g transform="translate(0,91)"><path class="background" aria-hidden="true" d="M0,0h256v11h-256Z" pointer-events="none" opacity="1"/><g><g class="mark-symbol role-legend-symbol" pointer-events="none"><path transform="translate(6,6)" d="M-5,0L5,0" stroke="#ff9da6" stroke-width="1.5" opacity="1"/></g><g class="mark-text role-legend-label" pointer-events="none"><text text-anchor="start" transform="translate(16,9)" font-family="Liberation Mono" font-size="10px" fill="#000" opacity="1">roam-2</text></g></g><path class="foreground" aria-hidden="true" d="" pointer-events="none" display="none"/></g><g transform="translate(0,104)"><path class="background" aria-hidden="true" d="M0,0h256v11h-256Z" pointer-events="none" opacity="1"/><g><g class="mark-symbol role-legend-symbol" pointer-events="none"><path transform="translate(6,6)" d="M-5,0L5,0" stroke="#9d755d" stroke-width="1.5" opacity="1"/></g><g class="mark-text role-legend-label" pointer-events="none"><text text-anchor="start" transform="translate(16,9)" font-family="Liberation Mono" font-size="10px" fill="#000" opacity="1">fastroad-sl-3-2022</text></g></g><path class="foreground" aria-hidden="true" d="" pointer-events="none" display="none"/></g><g transform="translate(0,117)"><path class="background" aria-hidden="true" d="M0,0h256v11h-256Z" pointer-events="none" opacity="1"/><g><g class="mark-symbol role-legend-symbol" pointer-events="none"><path transform="translate(6,6)" d="M-5,0L5,0" stroke="#bab0ac" stroke-width="1.5" opacity="1"/></g><g class="mark-text role-legend-label" pointer-events="none"><text text-anchor="start" transform="translate(16,9)" font-family="Liberation Mono" font-size="10px" fill="#000" opacity="1">allure-rs-2-2023</text></g></g><path class="foreground" aria-hidden="true" d="" pointer-events="none" display="none"/></g><g transform="translate(0,130)"><path class="background" aria-hidden="true" d="M0,0h256v11h-256Z" pointer-events="none" opacity="1"/><g><g class="mark-symbol role-legend-symbol" pointer-events="none"><path transform="translate(6,6)" d="M-5,0L5,0" stroke="#4c78a8" stroke-width="1.5" opacity="1"/></g><g class="mark-text role-legend-label" pointer-events="none"><text text-anchor="start" transform="translate(16,9)" font-family="Liberation Mono" font-size="10px" fill="#000" opacity="1">escape-city-disc-1-2024</text></g></g><path class="foreground" aria-hidden="true" d="" pointer-events="none" display="none"/></g><g transform="translate(0,143)"><path class="background" aria-hidden="true" d="M0,0h256v11h-256Z" pointer-events="none" opacity="1"/><g><g class="mark-symbol role-legend-symbol" pointer-events="none"><path transform="translate(6,6)" d="M-5,0L5,0" stroke="#f58518" stroke-width="1.5" opacity="1"/></g><g class="mark-text role-legend-label" pointer-events="none"><text text-anchor="start" transform="translate(16,9)" font-family="Liberation Mono" font-size="10px" fill="#000" opacity="1">sdrbike-escape-1-city-disc</text></g></g><path class="foreground" aria-hidden="true" d="" pointer-events="none" display="none"/></g><g transform="translate(0,156)"><path class="background" aria-hidden="true" d="M0,0h256v11h-256Z" pointer-events="none" opacity="1"/><g><g class="mark-symbol role-legend-symbol" pointer-events="none"><path transform="translate(6,6)" d="M-5,0L5,0" stroke="#e45756" stroke-width="1.5" opacity="1"/></g><g class="mark-text role-legend-label" pointer-events="none"><text text-anchor="start" transform="translate(16,9)" font-family="Liberation Mono" font-size="10px" fill="#000" opacity="1">roam-disc-2-2024</text></g></g><path class="foreground" aria-hidden="true" d="" pointer-events="none" display="none"/></g><g transform="translate(0,169)"><path class="background" aria-hidden="true" d="M0,0h256v11h-256Z" pointer-events="none" opacity="1"/><g><g class="mark-symbol role-legend-symbol" pointer-events="none"><path transform="translate(6,6)" d="M-5,0L5,0" stroke="#72b7b2" stroke-width="1.5" opacity="1"/></g><g class="mark-text role-legend-label" pointer-events="none"><text text-anchor="start" transform="translate(16,9)" font-family="Liberation Mono" font-size="10px" fill="#000" opacity="1">rove-2</text></g></g><path class="foreground" aria-hidden="true" d="" pointer-events="none" display="none"/></g><g transform="translate(0,182)"><path class="background" aria-hidden="true" d="M0,0h256v11h-256Z" pointer-events="none" opacity="1"/><g><g class="mark-symbol role-legend-symbol" pointer-events="none"><path transform="translate(6,6)" d="M-5,0L5,0" stroke="#54a24b" stroke-width="1.5" opacity="1"/></g><g class="mark-text role-legend-label" pointer-events="none"><text text-anchor="start" transform="translate(16,9)" font-family="Liberation Mono" font-size="10px" fill="#000" opacity="1">allure-rs-2-2022</text></g></g><path class="foreground" aria-hidden="true" d="" pointer-events="none" display="none"/></g><g transform="translate(0,195)"><path class="background" aria-hidden="true" d="M0,0h256v11h-256Z" pointer-events="none" opacity="1"/><g><g class="mark-symbol role-legend-symbol" pointer-events="none"><path transform="translate(6,6)" d="M-5,0L5,0" stroke="#eeca3b" stroke-width="1.5" opacity="1"/></g><g class="mark-text role-legend-label" pointer-events="none"><text text-anchor="start" transform="translate(16,9)" font-family="Liberation Mono" font-size="10px" fill="#000" opacity="1">allure-rs-2-2024</text></g></g><path class="foreground" aria-hidden="true" d="" pointer-events="none" display="none"/></g></g></g><path class="foreground" aria-hidden="true" d="" pointer-events="none" display="none"/></g></g><g class="mark-text role-legend-title" pointer-events="none"><text text-anchor="start" transform="translate(0,9)" font-family="Liberation Mono" font-size="11px" font-weight="bold" fill="#000" opacity="1">identifier</text></g></g><path class="foreground" aria-hidden="true" d="" pointer-events="none" display="none"/></g></g></g><path class="foreground" aria-hidden="true" d="" display="none"/></g></g></g></svg>