<svg xmlns="http://www.w3.org/2000/svg" xmlns:xlink="http://www.w3.org/1999/xlink" version="1.1" class="marks" width="548" height="244" viewBox="0 0 548 244"><rect width="548" height="244" fill="white"/><g fill="none" stroke-miterlimit="10" transform="translate(67,7)"><g class="mark-group role-frame root" role="graphics-object" aria-roledescription="group mark container"><g transform="translate(0,0)"><path class="background" aria-hidden="true" d="M0.5,0.5h200v200h-200Z" stroke="#ddd"/><g><g class="mark-group role-axis" aria-hidden="true"><g transform="translate(0.5,200.5)"><path class="background" aria-hidden="true" d="M0,0h0v0h0Z" pointer-events="none"/><g><g class="mark-rule role-axis-grid" pointer-events="none"><line transform="translate(21,-200)" x2="0" y2="200" stroke="#ddd" stroke-width="1" opacity="1"/><line transform="translate(77,-200)" x2="0" y2="200" stroke="#ddd" stroke-width="1" opacity="1"/><line transform="translate(133,-200)" x2="0" y2="200" stroke="#ddd" stroke-width="1" opacity="1"/><line transform="translate(189,-200)" x2="0" y2="200" stroke="#ddd" stroke-width="1" opacity="1"/></g></g><path class="foreground" aria-hidden="true" d="" pointer-events="none" display="none"/></g></g><g class="mark-group role-axis" aria-hidden="true"><g transform="translate(0.5,0.5)"><path class="background" aria-hidden="true" d="M0,0h0v0h0Z" pointer-events="none"/><g><g class="mark-rule role-axis-grid" pointer-events="none"><line transform="translate(0,200)" x2="200" y2="0" stroke="#ddd" stroke-width="1" opacity="1"/><line transform="translate(0,144)" x2="200" y2="0" stroke="#ddd" stroke-width="1" opacity="1"/><line transform="translate(0,89)" x2="200" y2="0" stroke="#ddd" stroke-width="1" opacity="1"/><line transform="translate(0,33)" x2="200" y2="0" stroke="#ddd" stroke-width="1" opacity="1"/></g></g><path class="foreground" aria-hidden="true" d="" pointer-events="none" display="none"/></g></g><g class="mark-group role-axis" role="graphics-symbol" aria-roledescription="axis" aria-label="X-axis titled 'Time' for a time scale with values from Thursday, 14 August 2025, 8:34:48 AM to Monday, 08 September 2025, 8:53:07 AM"><g transform="translate(0.5,200.5)"><path class="background" aria-hidden="true" d="M0,0h0v0h0Z" pointer-events="none"/><g><g class="mark-rule role-axis-tick" pointer-events="none"><line transform="translate(21,0)" x2="0" y2="5" stroke="#888" stroke-width="1" opacity="1"/><line transform="translate(77,0)" x2="0" y2="5" stroke="#888" stroke-width="1" opacity="1"/><line transform="translate(133,0)" x2="0" y2="5" stroke="#888" stroke-width="1" opacity="1"/><line transform="translate(189,0)" x2="0" y2="5" stroke="#888" stroke-width="1" opacity="1"/></g><g class="mark-text role-axis-label" pointer-events="none"><text text-anchor="middle" transform="translate(21.129182812011496,15)" font-family="Liberation Mono" font-size="10px" fill="#000" opacity="1">Aug 17</text><text text-anchor="middle" transform="translate(77.10071310043224,15)" font-family="Liberation Mono" font-size="10px" fill="#000" opacity="1">Aug 24</text><text text-anchor="middle" transform="translate(133.07224338885302,15)" font-family="Liberation Mono" font-size="10px" fill="#000" opacity="1">Aug 31</text><text text-anchor="middle" transform="translate(189.04377367727378,15)" font-family="Liberation Mono" font-size="10px" fill="#000" opacity="1">Sep 07</text></g><g class="mark-rule role-axis-domain" pointer-events="none"><line transform="translate(0,0)" x2="200" y2="0" stroke="#888" stroke-width="1" opacity="1"/></g><g class="mark-text role-axis-title" pointer-events="none"><text text-anchor="middle" transform="translate(100,30)" font-family="Liberation Mono" font-size="11px" font-weight="bold" fill="#000" opacity="1">Time</text></g></g><path class="foreground" aria-hidden="true" d="" pointer-events="none" display="none"/></g></g><g class="mark-group role-axis" role="graphics-symbol" aria-roledescription="axis" aria-label="Y-axis titled 'Price' for a linear scale with values from 0 to 1,800"><g transform="translate(0.5,0.5)"><path class="background" aria-hidden="true" d="M0,0h0v0h0Z" pointer-events="none"/><g><g class="mark-rule role-axis-tick" pointer-events="none"><line transform="translate(0,200)" x2="-5" y2="0" stroke="#888" stroke-width="1" opacity="1"/><line transform="translate(0,144)" x2="-5" y2="0" stroke="#888" stroke-width="1" opacity="1"/><line transform="translate(0,89)" x2="-5" y2="0" stroke="#888" stroke-width="1" opacity="1"/><line transform="translate(0,33)" x2="-5" y2="0" stroke="#888" stroke-width="1" opacity="1"/></g><g class="mark-text role-axis-label" pointer-events="none"><text text-anchor="end" transform="translate(-7,203)" font-family="Liberation Mono" font-size="10px" fill="#000" opacity="1">0</text><text text-anchor="end" transform="translate(-7,147.44444444444443)" font-family="Liberation Mono" font-size="10px" fill="#000" opacity="1">500</text><text text-anchor="end" transform="translate(-7,91.88888888888889)" font-family="Liberation Mono" font-size="10px" fill="#000" opacity="1">1,000</text><text text-anchor="end" transform="translate(-7,36.33333333333333)" font-family="Liberation Mono" font-size="10px" fill="#000" opacity="1">1,500</text></g><g class="mark-rule role-axis-domain" pointer-events="none"><line transform="translate(0,200)" x2="0" y2="-200" stroke="#888" stroke-width="1" opacity="1"/></g><g class="mark-text role-axis-title" pointer-events="none"><text text-anchor="middle" transform="translate(-51,100) rotate(-90) translate(0,-2)" font-family="Liberation Mono" font-size="11px" font-weight="bold" fill="#000" opacity="1">Price</text></g></g><path class="foreground" aria-hidden="true" d="" pointer-events="none" display="none"/></g></g><g class="mark-group role-scope pathgroup" role="graphics-object" aria-roledescription="group mark container"><g transform="translate(0,0)"><path class="background" aria-hidden="true" d="M0,0h200v200h-200Z"/><g><g class="mark-line role-mark marks" role="graphics-object" aria-roledescription="line mark container"><path aria-label="Time: Aug 14, 2025; Price: 899; identifier: escape-city-disc-1-2024" role="graphics-symbol" aria-roledescription="line mark" d="M0,100.111L0.066,100.111L0.119,100.111L1.593,100.111L2.765,100.111L4.079,100.111L6.776,100.111L8.1,100.111L9.563,100.111L10.762,100.111L12.07,100.111L14.746,100.111L16.086,100.111L17.505,100.111L18.742,100.111L20.053,100.111L22.773,100.111L24.079,100.111L25.505,100.111L26.744,100.111L28.06,100.111L30.791,100.111L32.104,100.111L33.577,100.111L34.094,100.111L34.766,100.111L36.048,100.111L38.727,100.111L40.08,100.111L41.5,100.111L42.741,100.111L44.041,100.111L46.725,100.111L48.066,100.111L49.544,100.111L50.142,100.111L50.734,100.111L52.046,100.111L54.716,100.111L56.068,100.111L57.494,100.111L58.735,100.111L60.038,100.111L62.714,100.111L64.061,100.111L65.487,100.111L66.723,100.111L68.029,100.111L70.704,100.111L72.045,100.111L73.458,100.111L74.697,100.111L76.017,100.111L78.71,100.111L80.035,100.111L81.458,100.111L82.703,100.111L84.016,100.111L86.717,100.111L88.067,100.111L89.525,100.111L90.719,100.111L92.021,100.111L94.7,100.111L96.057,100.111L98.707,100.111L100.009,100.111L102.686,100.111L104.037,100.111L104.561,100.111L105.461,100.111L106.353,100.111L106.702,100.111L108.01,100.111L110.681,100.111L112.036,100.111L113.461,100.111L114.697,100.111L116.003,100.111L118.677,100.111L120.027,100.111L121.447,100.111L122.689,100.111L123.994,100.111L126.664,100.111L128.004,100.111L129.418,100.111L130.666,100.111L131.923,100.111L131.986,100.111L134.663,100.111L135.517,100.111L135.996,100.111L137.418,100.111L138.666,100.111L139.984,100.111L142.685,100.111L144.029,100.111L145.447,100.111L146.672,100.111L147.978,100.111L150.668,100.111L152.02,100.111L153.448,100.111L154.673,100.111L155.98,100.111L158.653,100.111L160.003,100.111L161.427,100.111L162.665,100.111L163.973,100.111L166.647,100.111L168.002,100.111L169.416,100.111L170.667,100.111L171.967,100.111L174.646,100.111L175.996,100.111L177.416,100.111L178.647,100.111L179.966,100.111L182.634,100.111L183.32,100.111L183.968,100.111L185.378,100.111L186.63,100.111L187.957,100.111L190.627,100.111L191.963,100.111L193.379,100.111L194.627,100.111L195.953,100.111L198.635,100.111L199.996,100.111" stroke="#f58518" stroke-width="2"/></g></g><path class="foreground" aria-hidden="true" d="" display="none"/></g><g transform="translate(0,0)"><path class="background" aria-hidden="true" d="M0,0h200v200h-200Z"/><g><g class="mark-line role-mark marks" role="graphics-object" aria-roledescription="line mark container"><path aria-label="Time: Aug 14, 2025; Price: 999; identifier: roam-2" role="graphics-symbol" aria-roledescription="line mark" d="M0,89L0.067,89L0.119,89L1.593,89L2.765,89L4.079,89L6.776,89L8.1,89L9.563,89L10.762,89L12.07,89L14.746,89L16.086,89L17.506,89L18.743,89L20.066,89L22.773,89L24.079,89L25.505,89L26.744,89L28.06,89L30.792,89L32.105,89L33.578,89L34.095,89L34.766,89L36.048,89L38.727,89L40.08,89L41.5,89L42.741,89L44.041,89L46.725,89L48.066,89L49.544,89L50.142,89L50.734,89L52.046,89L54.717,89L56.068,89L57.495,89L58.735,89L60.038,89L62.715,89L64.062,89L65.487,89L66.723,89L68.03,89L70.705,89L72.045,89L73.458,89L74.698,89L76.018,89L78.71,89L80.035,89L81.459,89L82.704,89L84.016,89L86.718,89L88.067,89L89.526,89L90.72,89L92.021,89L94.7,89L96.058,89L98.708,89L100.009,89L102.686,89L104.037,89L104.562,89L105.462,89L106.353,89L106.703,89L108.011,89L110.681,89L112.037,89L113.461,89L114.697,89L116.003,89L118.677,89L120.027,89L121.447,89L122.69,89L123.995,89L126.664,89L128.004,89L129.419,89L130.666,89L131.923,89L131.986,89L134.663,89L135.518,89L135.997,89L137.419,89L138.667,89L139.985,89L142.685,89L144.029,89L145.448,89L146.672,89L147.979,89L150.668,89L152.02,89L153.449,89L154.674,89L155.98,89L158.654,89L160.003,89L161.427,89L162.666,89L163.973,89L166.647,89L168.002,89L169.416,89L170.667,89L171.967,89L174.647,89L175.996,89L177.416,89L178.648,89L179.966,89L182.634,89L183.32,89L183.968,89L185.379,89L186.631,89L187.958,89L190.627,89L191.963,89L193.38,89L194.627,89L195.953,89L198.637,89L199.997,89" stroke="#ff9da6" stroke-width="2"/></g></g><path class="foreground" aria-hidden="true" d="" display="none"/></g><g transform="translate(0,0)"><path class="background" aria-hidden="true" d="M0,0h200v200h-200Z"/><g><g class="mark-line role-mark marks" role="graphics-object" aria-roledescription="line mark container"><path aria-label="Time: Aug 14, 2025; Price: 999; identifier: fastroad-sl-3-2022" role="graphics-symbol" aria-roledescription="line mark" d="M0,89L0.067,89L0.119,89L1.593,89L2.765,89L4.079,89L6.776,89L8.101,89L9.563,89L10.762,89L12.07,89L14.747,89L16.086,89L17.506,89L18.743,89L20.066,89L22.773,89L24.08,89L25.506,89L26.744,89L28.06,89L30.792,89L32.105,89L33.578,89L34.095,89L34.766,89L36.048,89L38.727,89L40.08,89L41.501,89L42.741,89L44.041,89L46.726,89L48.066,89L49.544,89L50.142,89L50.734,89L52.047,89L54.717,89L56.068,89L57.495,89L58.735,89L60.038,89L62.715,89L64.062,89L65.488,89L66.723,89L68.03,89L70.705,89L72.045,89L73.459,89L74.698,89L76.018,89L78.711,89L80.036,89L81.459,89L82.704,89L84.016,89L86.718,89L88.067,89L89.526,89L90.72,89L92.021,89L94.701,89L96.058,89L98.708,89L100.009,89L102.687,89L104.038,89L104.562,89L105.462,89L106.353,89L106.703,89L108.011,89L110.681,89L112.037,89L113.461,89L114.697,89L116.004,89L118.678,89L120.027,89L121.448,89L122.69,89L123.995,89L126.664,89L128.004,89L129.419,89L130.666,89L131.924,89L131.986,89L134.664,89L135.518,89L135.997,89L137.419,89L138.667,89L139.985,89L142.685,89L144.029,89L145.448,89L146.673,89L147.979,89L150.668,89L152.02,89L153.449,89L154.674,89L155.98,89L158.654,89L160.003,89L161.428,89L162.666,89L163.973,89L166.648,89L168.002,89L169.416,89L170.667,89L171.967,89L174.647,89L175.996,89L177.416,89L178.648,89L179.966,89L182.634,89L183.32,89L183.968,89L185.379,89L186.631,89L187.958,89L190.628,89L191.963,89L193.38,89L194.627,89L195.953,89L198.637,89L199.997,89" stroke="#9d755d" stroke-width="2"/></g></g><path class="foreground" aria-hidden="true" d="" display="none"/></g><g transform="translate(0,0)"><path class="background" aria-hidden="true" d="M0,0h200v200h-200Z"/><g><g class="mark-line role-mark marks" role="graphics-object" aria-roledescription="line mark container"><path aria-label="Time: Aug 14, 2025; Price: 1199; identifier: fastroad-ar-2" role="graphics-symbol" aria-roledescription="line mark" d="M0.001,66.778L0.067,66.778L0.119,66.778L1.594,66.778L2.765,66.778L4.08,66.778L6.777,66.778L8.101,66.778L9.563,66.778L10.762,66.778L12.07,66.778L14.747,66.778L16.087,66.778L17.506,66.778L18.743,66.778L20.073,66.778L22.773,66.778L24.08,66.778L25.506,66.778L26.745,66.778L28.06,66.778L30.792,66.778L32.105,66.778L33.578,66.778L34.095,66.778L34.766,66.778L36.048,66.778L38.727,66.778L40.081,66.778L41.501,66.778L42.741,66.778L44.042,66.778L46.726,66.778L48.066,66.778L49.544,66.778L50.142,66.778L50.734,66.778L52.047,66.778L54.717,66.778L56.068,66.778L57.495,66.778L58.735,66.778L60.039,66.778L62.715,66.778L64.062,66.778L65.488,66.778L66.723,66.778L68.03,66.778L70.705,66.778L72.045,66.778L73.459,66.778L74.698,66.778L76.018,66.778L78.711,66.778L80.036,66.778L81.459,66.778L82.704,66.778L84.016,66.778L86.718,66.778L88.067,66.778L89.526,66.778L90.72,66.778L92.022,66.778L94.701,66.778L96.058,66.778L98.708,66.778L100.009,66.778L102.687,66.778L104.038,66.778L104.563,66.778L105.462,66.778L106.354,66.778L106.703,66.778L108.011,66.778L110.681,66.778L112.037,66.778L113.461,66.778L114.697,66.778L116.004,66.778L118.678,66.778L120.028,66.778L121.448,66.778L122.69,66.778L123.995,66.778L126.665,66.778L128.005,66.778L129.419,66.778L130.667,66.778L131.924,66.778L131.986,66.778L134.664,66.778L135.518,66.778L135.997,66.778L137.419,66.778L138.667,66.778L139.985,66.778L142.685,66.778L144.029,66.778L145.448,66.778L146.673,66.778L147.979,66.778L150.668,66.778L152.02,66.778L153.449,66.778L154.674,66.778L155.98,66.778L158.654,66.778L160.003,66.778L161.428,66.778L162.666,66.778L163.974,66.778L166.648,66.778L168.002,66.778L169.416,66.778L170.668,66.778L171.968,66.778L174.647,66.778L175.996,66.778L177.417,66.778L178.648,66.778L179.966,66.778L182.634,66.778L183.32,66.778L183.969,66.778L185.379,66.778L186.631,66.778L187.958,66.778L190.628,66.778L191.963,66.778L193.38,66.778L194.628,66.778L195.953,66.778L198.638,66.778L199.997,66.778" stroke="#54a24b" stroke-width="2"/></g></g><path class="foreground" aria-hidden="true" d="" display="none"/></g><g transform="translate(0,0)"><path class="background" aria-hidden="true" d="M0,0h200v200h-200Z"/><g><g class="mark-line role-mark marks" role="graphics-object" aria-roledescription="line mark container"><path aria-label="Time: Aug 18, 2025; Price: 899; identifier: sdrbike-escape-1-city-disc" role="graphics-symbol" aria-roledescription="line mark" d="M34.095,100.111L34.767,100.111L36.049,100.111L38.727,100.111L40.081,100.111L41.501,100.111L42.742,100.111L44.042,100.111L46.726,100.111L48.066,100.111L49.545,100.111L50.143,100.111L50.735,100.111L52.047,100.111L54.717,100.111L56.069,100.111L57.495,100.111L58.736,100.111L60.039,100.111L62.715,100.111L64.062,100.111L65.488,100.111L66.723,100.111L68.03,100.111L70.705,100.111L72.046,100.111L73.459,100.111L74.698,100.111L76.018,100.111L78.711,100.111L80.036,100.111L81.46,100.111L82.704,100.111L84.017,100.111L86.718,100.111L88.067,100.111L89.526,100.111L90.72,100.111L92.022,100.111L94.702,100.111L96.058,100.111L98.709,100.111L100.01,100.111L102.687,100.111L104.038,100.111L104.563,100.111L105.462,100.111L106.354,100.111L106.703,100.111L108.011,100.111L110.682,100.111L112.037,100.111L113.462,100.111L114.698,100.111L116.004,100.111L118.678,100.111L120.028,100.111L121.448,100.111L122.69,100.111L123.996,100.111L126.665,100.111L128.005,100.111L129.42,100.111L130.667,100.111L131.924,100.111L131.986,100.111L134.664,100.111L135.518,100.111L135.997,100.111L137.419,100.111L138.667,100.111L139.985,100.111L142.686,100.111L144.03,100.111L145.449,100.111L146.673,100.111L147.979,100.111L150.669,100.111L152.021,100.111L153.45,100.111L154.674,100.111L155.981,100.111L158.654,100.111L160.004,100.111L161.428,100.111L162.666,100.111L163.974,100.111L166.648,100.111L168.003,100.111L169.417,100.111L170.668,100.111L171.968,100.111L174.647,100.111L175.997,100.111L177.417,100.111L178.649,100.111L179.967,100.111L182.635,100.111L183.32,100.111L183.969,100.111L185.379,100.111L186.631,100.111L187.958,100.111L190.628,100.111L191.964,100.111L193.38,100.111L194.628,100.111L195.954,100.111L198.638,100.111L199.997,100.111" stroke="#e45756" stroke-width="2"/></g></g><path class="foreground" aria-hidden="true" d="" display="none"/></g><g transform="translate(0,0)"><path class="background" aria-hidden="true" d="M0,0h200v200h-200Z"/><g><g class="mark-line role-mark marks" role="graphics-object" aria-roledescription="line mark container"><path aria-label="Time: Aug 20, 2025; Price: 899; identifier: roam-disc-2-2024" role="graphics-symbol" aria-roledescription="line mark" d="M50.142,100.111L50.734,100.111L52.046,100.111L54.717,100.111L56.068,100.111L57.495,100.111L58.735,100.111L60.038,100.111L62.715,100.111L64.062,100.111L65.487,100.111L66.723,100.111L68.03,100.111L70.705,100.111L72.045,100.111L73.458,100.111L74.698,100.111L76.018,100.111L78.71,100.111L80.035,100.111L81.458,100.111L82.703,100.111L84.016,100.111L86.717,100.111L88.067,100.111L89.526,100.111L90.719,100.111L92.021,100.111L94.7,100.111L96.058,100.111L98.708,100.111L100.009,100.111L102.686,100.111L104.037,100.111L104.562,100.111L105.462,100.111L106.353,100.111L106.702,100.111L108.01,100.111L110.681,100.111L112.036,100.111L113.461,100.111L114.697,100.111L116.003,100.111L118.677,100.111L120.027,100.111L121.447,100.111L122.69,100.111L123.995,100.111L126.664,100.111L128.004,100.111L129.419,100.111L130.666,100.111L131.923,100.111L131.986,100.111L134.663,100.111L135.517,100.111L135.996,100.111L137.418,100.111L138.666,100.111L139.984,100.111L142.685,100.111L144.029,100.111L145.448,100.111L146.672,100.111L147.979,100.111L150.668,100.111L152.02,100.111L153.449,100.111L154.673,100.111L155.98,100.111L158.654,100.111L160.003,100.111L161.427,100.111L162.665,100.111L163.973,100.111L166.647,100.111L168.002,100.111L169.416,100.111L170.667,100.111L171.967,100.111L174.647,100.111L175.996,100.111L177.416,100.111L178.648,100.111L179.966,100.111L182.634,100.111L183.32,100.111L183.968,100.111L185.378,100.111L186.63,100.111L187.957,100.111L190.627,100.111L191.963,100.111L193.379,100.111L194.627,100.111L195.953,100.111L198.637,100.111L199.997,100.111" stroke="#72b7b2" stroke-width="2"/></g></g><path class="foreground" aria-hidden="true" d="" display="none"/></g><g transform="translate(0,0)"><path class="background" aria-hidden="true" d="M0,0h200v200h-200Z"/><g><g class="mark-line role-mark marks" role="graphics-object" aria-roledescription="line mark container"><path aria-label="Time: Aug 20, 2025; Price: 1199; identifier: thrive-2" role="graphics-symbol" aria-roledescription="line mark" d="M50.143,66.778L50.735,66.778L52.048,66.778L54.717,66.778L56.069,66.778L57.496,66.778L58.736,66.778L60.039,66.778L62.716,66.778L64.063,66.778L65.488,66.778L66.724,66.778L68.031,66.778L70.706,66.778L72.046,66.778L73.459,66.778L74.699,66.778L76.018,66.778L78.711,66.778L80.037,66.778L81.46,66.778L82.704,66.778L84.017,66.778L86.718,66.778L88.068,66.778L89.526,66.778L90.72,66.778L92.022,66.778L94.702,66.778L96.059,66.778L98.709,66.778L100.01,66.778L102.687,66.778L104.038,66.778L104.564,66.778L105.462,66.778L106.354,66.778L106.703,66.778L108.011,66.778L110.682,66.778L112.038,66.778L113.462,66.778L114.698,66.778L116.004,66.778L118.678,66.778L120.028,66.778L121.448,66.778L122.69,66.778L123.996,66.778L126.665,66.778L128.005,66.778L129.42,66.778L130.667,66.778L131.924,66.778L131.987,66.778L134.664,66.778L135.518,66.778L135.997,66.778L137.419,66.778L138.667,66.778L139.985,66.778L142.686,66.778L144.03,66.778L145.449,66.778L146.673,66.778L147.98,66.778L150.669,66.778L152.021,66.778L153.45,66.778L154.674,66.778L155.981,66.778L158.654,66.778L160.004,66.778L161.428,66.778L162.666,66.778L163.974,66.778L166.648,66.778L168.003,66.778L169.417,66.778L170.668,66.778L171.968,66.778L174.648,66.778L175.997,66.778L177.417,66.778L178.649,66.778L179.967,66.778L182.635,66.778L183.321,66.778L183.969,66.778L185.379,66.778L186.631,66.778L187.958,66.778L190.628,66.778L191.964,66.778L193.38,66.778L194.628,66.778L195.954,66.778L198.638,66.778L199.998,66.778" stroke="#eeca3b" stroke-width="2"/></g></g><path class="foreground" aria-hidden="true" d="" display="none"/></g><g transform="translate(0,0)"><path class="background" aria-hidden="true" d="M0,0h200v200h-200Z"/><g><g class="mark-line role-mark marks" role="graphics-object" aria-roledescription="line mark container"><path aria-label="Time: Aug 20, 2025; Price: 999; identifier: rove-2" role="graphics-symbol" aria-roledescription="line mark" d="M50.143,89L50.735,89L52.048,89L54.717,89L56.069,89L57.496,89L58.736,89L60.039,89L62.716,89L64.063,89L65.488,89L66.724,89L68.031,89L70.706,89L72.046,89L73.459,89L74.699,89L76.019,89L78.712,89L80.037,89L81.46,89L82.704,89L84.017,89L86.719,89L88.068,89L89.527,89L90.721,89L92.022,89L94.702,89L96.059,89L98.709,89L100.01,89L102.688,89L104.038,89L104.564,89L105.463,89L106.354,89L106.703,89L108.012,89L110.682,89L112.038,89L113.462,89L114.698,89L116.004,89L118.678,89L120.028,89L121.449,89L122.691,89L123.996,89L131.925,111.222L131.987,111.222L134.664,111.222L135.518,111.222L135.998,111.222L137.42,111.222L138.667,111.222L139.985,111.222L142.686,111.222L144.03,111.222L145.449,111.222L146.674,111.222L147.98,111.222L150.669,111.222L152.021,111.222L153.45,111.222L154.674,111.222L155.981,111.222L158.655,111.222L160.004,111.222L161.428,111.222L162.666,111.222L163.974,111.222L166.648,111.222L168.003,111.222L169.417,111.222L170.668,111.222L171.968,111.222L174.648,111.222L175.997,111.222L177.417,111.222L178.649,111.222L179.967,111.222L182.635,111.222L183.321,111.222L183.969,111.222L185.38,111.222L186.631,111.222L187.958,111.222L190.628,111.222L191.964,111.222L193.381,111.222L194.628,111.222L195.954,111.222L198.638,111.222L199.998,111.222" stroke="#bab0ac" stroke-width="2"/></g></g><path class="foreground" aria-hidden="true" d="" display="none"/></g><g transform="translate(0,0)"><path class="background" aria-hidden="true" d="M0,0h200v200h-200Z"/><g><g class="mark-line role-mark marks" role="graphics-object" aria-roledescription="line mark container"><path aria-label="Time: Aug 27, 2025; Price: 1199; identifier: allure-rs-1-2023" role="graphics-symbol" aria-roledescription="line mark" d="M104.565,66.778L105.463,66.778L106.354,66.778L106.704,66.778L108.012,66.778L110.682,66.778L112.038,66.778L113.462,66.778L114.698,66.778L116.005,66.778L118.678,66.778L120.028,66.778L121.449,66.778L122.691,66.778L123.996,66.778L126.665,66.778L128.005,66.778L129.42,66.778L130.667,66.778L131.925,66.778L131.987,66.778L134.665,66.778L135.519,66.778L135.998,66.778L137.42,66.778L138.668,66.778L139.986,66.778L142.686,66.778L144.03,66.778L145.449,66.778L146.674,66.778L147.98,66.778L150.669,66.778L152.021,66.778L153.45,66.778L154.675,66.778L155.981,66.778L158.655,66.778L160.004,66.778L161.428,66.778L162.667,66.778L163.974,66.778L166.649,66.778L168.003,66.778L169.417,66.778L170.668,66.778L171.969,66.778L174.648,66.778L175.997,66.778L177.417,66.778L178.649,66.778L179.967,66.778L182.635,66.778L183.321,66.778L183.97,66.778L185.38,66.778L186.632,66.778L187.958,66.778L190.629,66.778L191.964,66.778L193.381,66.778L194.628,66.778L195.954,66.778L198.638,66.778L199.998,66.778" stroke="#b279a2" stroke-width="2"/></g></g><path class="foreground" aria-hidden="true" d="" display="none"/></g><g transform="translate(0,0)"><path class="background" aria-hidden="true" d="M0,0h200v200h-200Z"/><g><g class="mark-line role-mark marks" role="graphics-object" aria-roledescription="line mark container"><path aria-label="Time: Aug 27, 2025; Price: 999; identifier: allure-rs-2-2022" role="graphics-symbol" aria-roledescription="line mark" d="M104.565,89L105.463,89L106.354,89L106.704,89L108.012,89L110.682,89L112.038,89L113.462,89L114.698,89L116.005,89L118.679,89L120.029,89L121.449,89L122.691,89L123.996,89L131.925,111.222L131.987,111.222L134.665,111.222L135.519,111.222L135.998,111.222L137.42,111.222L138.668,111.222L139.986,111.222L142.686,111.222L144.03,111.222L145.449,111.222L146.674,111.222L147.98,111.222L150.67,111.222L152.021,111.222L153.45,111.222L154.675,111.222L155.982,111.222L158.655,111.222L160.004,111.222L161.429,111.222L162.667,111.222L163.974,111.222L166.649,111.222L168.003,111.222L169.417,111.222L170.669,111.222L171.969,111.222L174.648,111.222L175.997,111.222L177.418,111.222L178.649,111.222L179.967,111.222L182.635,111.222L183.321,111.222L183.97,111.222L185.38,111.222L186.632,111.222L187.959,111.222L190.629,111.222L191.965,111.222L193.381,111.222L194.628,111.222L195.954,111.222L198.639,111.222L199.998,111.222" stroke="#54a24b" stroke-width="2"/></g></g><path class="foreground" aria-hidden="true" d="" display="none"/></g><g transform="translate(0,0)"><path class="background" aria-hidden="true" d="M0,0h200v200h-200Z"/><g><g class="mark-line role-mark marks" role="graphics-object" aria-roledescription="line mark container"><path aria-label="Time: Aug 27, 2025; Price: 949; identifier: allure-rs-2-2023" role="graphics-symbol" aria-roledescription="line mark" d="M104.566,94.556L105.463,94.556L106.355,94.556L106.704,94.556L108.012,94.556L110.683,94.556L112.038,94.556L113.463,94.556L114.699,94.556L116.005,94.556L118.679,94.556L120.029,94.556L121.449,94.556L122.691,94.556L123.997,94.556L126.666,94.556L128.006,94.556L129.421,94.556L130.668,94.556L131.925,94.556L131.987,94.556L134.665,94.556L135.519,94.556L135.998,94.556L137.42,94.556L138.668,94.556L139.986,94.556L142.686,94.556L144.03,94.556L145.449,94.556L146.674,94.556L147.98,94.556L150.67,94.556L152.021,94.556L153.451,94.556L154.675,94.556L155.982,94.556L158.655,94.556L160.004,94.556L161.429,94.556L162.667,94.556L163.975,94.556L166.649,94.556L168.004,94.556L169.417,94.556L170.669,94.556L171.969,94.556L174.648,94.556L175.997,94.556L177.418,94.556L178.65,94.556L179.967,94.556L182.635,94.556L183.321,94.556L183.97,94.556L185.38,94.556L186.632,94.556L187.959,94.556L190.629,94.556L191.965,94.556L193.381,94.556L194.629,94.556L195.954,94.556L198.639,94.556L199.999,94.556" stroke="#4c78a8" stroke-width="2"/></g></g><path class="foreground" aria-hidden="true" d="" display="none"/></g><g transform="translate(0,0)"><path class="background" aria-hidden="true" d="M0,0h200v200h-200Z"/><g><g class="mark-line role-mark marks" role="graphics-object" aria-roledescription="line mark container"><path aria-label="Time: Aug 27, 2025; Price: 999; identifier: allure-rs-2-2024" role="graphics-symbol" aria-roledescription="line mark" d="M104.566,89L105.463,89L106.355,89L106.704,89L108.013,89L110.683,89L112.039,89L113.463,89L114.699,89L116.005,89L118.679,89L120.029,89L121.449,89L122.691,89L123.997,89L131.926,111.222L131.987,111.222L134.665,111.222L135.519,111.222L135.998,111.222L137.42,111.222L138.668,111.222L139.986,111.222L142.687,111.222L144.031,111.222L145.45,111.222L146.674,111.222L147.981,111.222L150.67,111.222L152.022,111.222L153.451,111.222L154.675,111.222L155.982,111.222L158.655,111.222L160.005,111.222L161.429,111.222L162.667,111.222L163.975,111.222L166.649,111.222L168.004,111.222L169.418,111.222L170.669,111.222L171.969,111.222L174.648,111.222L175.998,111.222L177.418,111.222L178.65,111.222L179.968,111.222L182.636,111.222L183.321,111.222L183.97,111.222L185.381,111.222L186.632,111.222L187.959,111.222L190.629,111.222L191.965,111.222L193.381,111.222L194.629,111.222L195.954,111.222L198.639,111.222L199.999,111.222" stroke="#eeca3b" stroke-width="2"/></g></g><path class="foreground" aria-hidden="true" d="" display="none"/></g><g transform="translate(0,0)"><path class="background" aria-hidden="true" d="M0,0h200v200h-200Z"/><g><g class="mark-line role-mark marks" role="graphics-object" aria-roledescription="line mark container"><path aria-label="Time: Aug 27, 2025; Price: 1799; identifier: devote-1-2024" role="graphics-symbol" aria-roledescription="line mark" d="M106.355,0.111L106.704,0.111L108.013,0.111L110.683,0.111L112.039,0.111L113.463,0.111L114.699,0.111L116.005,0.111L118.679,0.111L120.029,0.111L121.45,0.111L122.691,0.111L123.997,0.111L131.926,44.556L131.987,44.556L134.665,44.556L135.519,44.556L135.999,44.556L137.421,44.556L138.668,44.556L139.986,44.556L142.687,44.556L144.031,44.556L145.45,44.556L146.675,44.556L147.981,44.556L150.67,44.556L152.022,44.556L153.451,44.556L154.675,44.556L155.982,44.556L158.655,44.556L160.005,44.556L161.429,44.556L162.667,44.556L163.975,44.556L166.65,44.556L168.004,44.556L169.418,44.556L170.669,44.556L171.969,44.556L174.648,44.556L175.998,44.556L177.418,44.556L178.65,44.556L179.968,44.556L182.636,44.556L183.322,44.556L183.97,44.556L185.381,44.556L186.632,44.556L187.959,44.556L190.629,44.556L191.965,44.556L193.382,44.556L194.629,44.556L195.955,44.556L198.639,44.556L199.999,44.556" stroke="#72b7b2" stroke-width="2"/></g></g><path class="foreground" aria-hidden="true" d="" display="none"/></g><g transform="translate(0,0)"><path class="background" aria-hidden="true" d="M0,0h200v200h-200Z"/><g><g class="mark-line role-mark marks" role="graphics-object" aria-roledescription="line mark container"><path aria-label="Time: Aug 27, 2025; Price: 1699; identifier: devote-1-2022" role="graphics-symbol" aria-roledescription="line mark" d="M106.355,11.222L106.704,11.222L108.013,11.222L110.683,11.222L112.039,11.222L113.463,11.222L114.699,11.222L116.005,11.222L118.679,11.222L120.029,11.222L121.45,11.222L122.691,11.222L123.997,11.222L126.666,11.222L128.006,11.222L129.421,11.222L130.668,11.222L131.926,11.222L131.988,11.222L134.665,11.222L135.519,11.222L135.999,11.222L137.421,11.222L138.668,11.222L139.986,11.222L142.687,11.222L144.031,11.222L145.45,11.222L146.675,11.222L147.981,11.222L150.67,11.222L152.022,11.222L153.451,11.222L154.675,11.222L155.982,11.222L158.656,11.222L160.005,11.222L161.429,11.222L162.667,11.222L163.975,11.222L166.65,11.222L168.004,11.222L169.418,11.222L170.669,11.222L171.97,11.222L174.649,11.222L175.998,11.222L177.418,11.222L178.65,11.222L179.968,11.222L182.636,11.222L183.322,11.222L183.971,11.222L185.381,11.222L186.632,11.222L187.959,11.222L190.629,11.222L191.965,11.222L193.382,11.222L194.629,11.222L195.955,11.222L198.639,11.222L199.999,11.222" stroke="#4c78a8" stroke-width="2"/></g></g><path class="foreground" aria-hidden="true" d="" display="none"/></g><g transform="translate(0,0)"><path class="background" aria-hidden="true" d="M0,0h200v200h-200Z"/><g><g class="mark-line role-mark marks" role="graphics-object" aria-roledescription="line mark container"><path aria-label="Time: Aug 31, 2025; Price: 1599; identifier: silex-400-oak-bork-2026" role="graphics-symbol" aria-roledescription="line mark" d="M135.52,22.333L135.999,22.333L137.421,22.333L138.669,22.333L139.987,22.333L142.687,22.333L144.031,22.333L145.45,22.333L146.675,22.333L147.981,22.333L150.671,22.333L152.022,22.333L153.452,22.333L154.676,22.333L155.983,22.333L158.656,22.333L160.005,22.333L161.43,22.333L162.668,22.333L163.975,22.333L166.65,22.333L168.004,22.333L169.418,22.333L170.67,22.333L171.97,22.333L174.649,22.333L175.998,22.333L177.418,22.333L178.65,22.333L179.968,22.333L182.636,22.333L183.322,22.333L183.971,22.333L185.382,22.333L186.633,22.333L187.96,22.333L190.63,22.333L191.966,22.333L193.382,22.333L194.629,22.333L195.955,22.333L198.64,22.333L200,22.333" stroke="#f58518" stroke-width="2"/></g></g><path class="foreground" aria-hidden="true" d="" display="none"/></g><g transform="translate(0,0)"><path class="background" aria-hidden="true" d="M0,0h200v200h-200Z"/><g><g class="mark-line role-mark marks" role="graphics-object" aria-roledescription="line mark container"><path aria-label="Time: Aug 31, 2025; Price: 1599; identifier: silex-400-warm-slate-grey-2026" role="graphics-symbol" aria-roledescription="line mark" d="M135.52,22.333L136,22.333L137.422,22.333L138.669,22.333L139.987,22.333L142.688,22.333L144.032,22.333L145.451,22.333L146.675,22.333L147.982,22.333L150.671,22.333L152.023,22.333L153.452,22.333L154.676,22.333L155.983,22.333L158.656,22.333L160.006,22.333L161.43,22.333L162.668,22.333L163.976,22.333L166.65,22.333L168.005,22.333L169.419,22.333L170.67,22.333L171.97,22.333L174.649,22.333L175.998,22.333L177.419,22.333L178.651,22.333L179.969,22.333L182.637,22.333L183.322,22.333L183.971,22.333L185.382,22.333L186.633,22.333L187.96,22.333L190.63,22.333L191.966,22.333L193.382,22.333L194.63,22.333L195.955,22.333L198.64,22.333L200,22.333" stroke="#e45756" stroke-width="2"/></g></g><path class="foreground" aria-hidden="true" d="" display="none"/></g></g><g class="mark-group role-legend" role="graphics-symbol" aria-roledescription="legend" aria-label="Symbol legend titled 'identifier' for stroke color with 16 values: devote-1-2022, silex-400-oak-bork-2026, silex-400-warm-slate-grey-2026, devote-1-2024, fastroad-ar-2, ending with allure-rs-2-2024"><g transform="translate(220,0)"><path class="background" aria-hidden="true" d="M0,0h256v222h-256Z" pointer-events="none"/><g><g class="mark-group role-legend-entry"><g transform="translate(0,16)"><path class="background" aria-hidden="true" d="M0,0h0v0h0Z" pointer-events="none"/><g><g class="mark-group role-scope" role="graphics-object" aria-roledescription="group mark container"><g transform="translate(0,0)"><path class="background" aria-hidden="true" d="M0,0h256v11h-256Z" pointer-events="none" opacity="1"/><g><g class="mark-symbol role-legend-symbol" pointer-events="none"><path transform="translate(6,6)" d="M-5,0L5,0" stroke="#4c78a8" stroke-width="1.5" opacity="1"/></g><g class="mark-text role-legend-label" pointer-events="none"><text text-anchor="start" transform="translate(16,9)" font-family="Liberation Mono" font-size="10px" fill="#000" opacity="1">devote-1-2022</text></g></g><path class="foreground" aria-hidden="true" d="" pointer-events="none" display="none"/></g><g transform="translate(0,13)"><path class="background" aria-hidden="true" d="M0,0h256v11h-256Z" pointer-events="none" opacity="1"/><g><g class="mark-symbol role-legend-symbol" pointer-events="none"><path transform="translate(6,6)" d="M-5,0L5,0" stroke="#f58518" stroke-width="1.5" opacity="1"/></g><g class="mark-text role-legend-label" pointer-events="none"><text text-anchor="start" transform="translate(16,9)" font-family="Liberation Mono" font-size="10px" fill="#000" opacity="1">silex-400-oak-bork-2026</text></g></g><path class="foreground" aria-hidden="true" d="" pointer-events="none" display="none"/></g><g transform="translate(0,26)"><path class="background" aria-hidden="true" d="M0,0h256v11h-256Z" pointer-events="none" opacity="1"/><g><g class="mark-symbol role-legend-symbol" pointer-events="none"><path transform="translate(6,6)" d="M-5,0L5,0" stroke="#e45756" stroke-width="1.5" opacity="1"/></g><g class="mark-text role-legend-label" pointer-events="none"><text text-anchor="start" transform="translate(16,9)" font-family="Liberation Mono" font-size="10px" fill="#000" opacity="1">silex-400-warm-slate-grey-2026</text></g></g><path class="foreground" aria-hidden="true" d="" pointer-events="none" display="none"/></g><g transform="translate(0,39)"><path class="background" aria-hidden="true" d="M0,0h256v11h-256Z" pointer-events="none" opacity="1"/><g><g class="mark-symbol role-legend-symbol" pointer-events="none"><path transform="translate(6,6)" d="M-5,0L5,0" stroke="#72b7b2" stroke-width="1.5" opacity="1"/></g><g class="mark-text role-legend-label" pointer-events="none"><text text-anchor="start" transform="translate(16,9)" font-family="Liberation Mono" font-size="10px" fill="#000" opacity="1">devote-1-2024</text></g></g><path class="foreground" aria-hidden="true" d="" pointer-events="none" display="none"/></g><g transform="translate(0,52)"><path class="background" aria-hidden="true" d="M0,0h256v11h-256Z" pointer-events="none" opacity="1"/><g><g class="mark-symbol role-legend-symbol" pointer-events="none"><path transform="translate(6,6)" d="M-5,0L5,0" stroke="#54a24b" stroke-width="1.5" opacity="1"/></g><g class="mark-text role-legend-label" pointer-events="none"><text text-anchor="start" transform="translate(16,9)" font-family="Liberation Mono" font-size="10px" fill="#000" opacity="1">fastroad-ar-2</text></g></g><path class="foreground" aria-hidden="true" d="" pointer-events="none" display="none"/></g><g transform="translate(0,65)"><path class="background" aria-hidden="true" d="M0,0h256v11h-256Z" pointer-events="none" opacity="1"/><g><g class="mark-symbol role-legend-symbol" pointer-events="none"><path transform="translate(6,6)" d="M-5,0L5,0" stroke="#eeca3b" stroke-width="1.5" opacity="1"/></g><g class="mark-text role-legend-label" pointer-events="none"><text text-anchor="start" transform="translate(16,9)" font-family="Liberation Mono" font-size="10px" fill="#000" opacity="1">thrive-2</text></g></g><path class="foreground" aria-hidden="true" d="" pointer-events="none" display="none"/></g><g transform="translate(0,78)"><path class="background" aria-hidden="true" d="M0,0h256v11h-256Z" pointer-events="none" opacity="1"/><g><g class="mark-symbol role-legend-symbol" pointer-events="none"><path transform="translate(6,6)" d="M-5,0L5,0" stroke="#b279a2" stroke-width="1.5" opacity="1"/></g><g class="mark-text role-legend-label" pointer-events="none"><text text-anchor="start" transform="translate(16,9)" font-family="Liberation Mono" font-size="10px" fill="#000" opacity="1">allure-rs-1-2023</text></g></g><path class="foreground" aria-hidden="true" d="" pointer-events="none" display="none"/></g><g transform="translate(0,91)"><path class="background" aria-hidden="true" d="M0,0h256v11h-256Z" pointer-events="none" opacity="1"/><g><g class="mark-symbol role-legend-symbol" pointer-events="none"><path transform="translate(6,6)" d="M-5,0L5,0" stroke="#ff9da6" stroke-width="1.5" opacity="1"/></g><g class="mark-text role-legend-label" pointer-events="none"><text text-anchor="start" transform="translate(16,9)" font-family="Liberation Mono" font-size="10px" fill="#000" opacity="1">roam-2</text></g></g><path class="foreground" aria-hidden="true" d="" pointer-events="none" display="none"/></g><g transform="translate(0,104)"><path class="background" aria-hidden="true" d="M0,0h256v11h-256Z" pointer-events="none" opacity="1"/><g><g class="mark-symbol role-legend-symbol" pointer-events="none"><path transform="translate(6,6)" d="M-5,0L5,0" stroke="#9d755d" stroke-width="1.5" opacity="1"/></g><g class="mark-text role-legend-label" pointer-events="none"><text text-anchor="start" transform="translate(16,9)" font-family="Liberation Mono" font-size="10px" fill="#000" opacity="1">fastroad-sl-3-2022</text></g></g><path class="foreground" aria-hidden="true" d="" pointer-events="none" display="none"/></g><g transform="translate(0,117)"><path class="background" aria-hidden="true" d="M0,0h256v11h-256Z" pointer-events="none" opacity="1"/><g><g class="mark-symbol role-legend-symbol" pointer-events="none"><path transform="translate(6,6)" d="M-5,0L5,0" stroke="#bab0ac" stroke-width="1.5" opacity="1"/></g><g class="mark-text role-legend-label" pointer-events="none"><text text-anchor="start" transform="translate(16,9)" font-family="Liberation Mono" font-size="10px" fill="#000" opacity="1">rove-2</text></g></g><path class="foreground" aria-hidden="true" d="" pointer-events="none" display="none"/></g><g transform="translate(0,130)"><path class="background" aria-hidden="true" d="M0,0h256v11h-256Z" pointer-events="none" opacity="1"/><g><g class="mark-symbol role-legend-symbol" pointer-events="none"><path transform="translate(6,6)" d="M-5,0L5,0" stroke="#4c78a8" stroke-width="1.5" opacity="1"/></g><g class="mark-text role-legend-label" pointer-events="none"><text text-anchor="start" transform="translate(16,9)" font-family="Liberation Mono" font-size="10px" fill="#000" opacity="1">allure-rs-2-2023</text></g></g><path class="foreground" aria-hidden="true" d="" pointer-events="none" display="none"/></g><g transform="translate(0,143)"><path class="background" aria-hidden="true" d="M0,0h256v11h-256Z" pointer-events="none" opacity="1"/><g><g class="mark-symbol role-legend-symbol" pointer-events="none"><path transform="translate(6,6)" d="M-5,0L5,0" stroke="#f58518" stroke-width="1.5" opacity="1"/></g><g class="mark-text role-legend-label" pointer-events="none"><text text-anchor="start" transform="translate(16,9)" font-family="Liberation Mono" font-size="10px" fill="#000" opacity="1">escape-city-disc-1-2024</text></g></g><path class="foreground" aria-hidden="true" d="" pointer-events="none" display="none"/></g><g transform="translate(0,156)"><path class="background" aria-hidden="true" d="M0,0h256v11h-256Z" pointer-events="none" opacity="1"/><g><g class="mark-symbol role-legend-symbol" pointer-events="none"><path transform="translate(6,6)" d="M-5,0L5,0" stroke="#e45756" stroke-width="1.5" opacity="1"/></g><g class="mark-text role-legend-label" pointer-events="none"><text text-anchor="start" transform="translate(16,9)" font-family="Liberation Mono" font-size="10px" fill="#000" opacity="1">sdrbike-escape-1-city-disc</text></g></g><path class="foreground" aria-hidden="true" d="" pointer-events="none" display="none"/></g><g transform="translate(0,169)"><path class="background" aria-hidden="true" d="M0,0h256v11h-256Z" pointer-events="none" opacity="1"/><g><g class="mark-symbol role-legend-symbol" pointer-events="none"><path transform="translate(6,6)" d="M-5,0L5,0" stroke="#72b7b2" stroke-width="1.5" opacity="1"/></g><g class="mark-text role-legend-label" pointer-events="none"><text text-anchor="start" transform="translate(16,9)" font-family="Liberation Mono" font-size="10px" fill="#000" opacity="1">roam-disc-2-2024</text></g></g><path class="foreground" aria-hidden="true" d="" pointer-events="none" display="none"/></g><g transform="translate(0,182)"><path class="background" aria-hidden="true" d="M0,0h256v11h-256Z" pointer-events="none" opacity="1"/><g><g class="mark-symbol role-legend-symbol" pointer-events="none"><path transform="translate(6,6)" d="M-5,0L5,0" stroke="#54a24b" stroke-width="1.5" opacity="1"/></g><g class="mark-text role-legend-label" pointer-events="none"><text text-anchor="start" transform="translate(16,9)" font-family="Liberation Mono" font-size="10px" fill="#000" opacity="1">allure-rs-2-2022</text></g></g><path class="foreground" aria-hidden="true" d="" pointer-events="none" display="none"/></g><g transform="translate(0,195)"><path class="background" aria-hidden="true" d="M0,0h256v11h-256Z" pointer-events="none" opacity="1"/><g><g class="mark-symbol role-legend-symbol" pointer-events="none"><path transform="translate(6,6)" d="M-5,0L5,0" stroke="#eeca3b" stroke-width="1.5" opacity="1"/></g><g class="mark-text role-legend-label" pointer-events="none"><text text-anchor="start" transform="translate(16,9)" font-family="Liberation Mono" font-size="10px" fill="#000" opacity="1">allure-rs-2-2024</text></g></g><path class="foreground" aria-hidden="true" d="" pointer-events="none" display="none"/></g></g></g><path class="foreground" aria-hidden="true" d="" pointer-events="none" display="none"/></g></g><g class="mark-text role-legend-title" pointer-events="none"><text text-anchor="start" transform="translate(0,9)" font-family="Liberation Mono" font-size="11px" font-weight="bold" fill="#000" opacity="1">identifier</text></g></g><path class="foreground" aria-hidden="true" d="" pointer-events="none" display="none"/></g></g></g><path class="foreground" aria-hidden="true" d="" display="none"/></g></g></g></svg>