<svg xmlns="http://www.w3.org/2000/svg" xmlns:xlink="http://www.w3.org/1999/xlink" version="1.1" class="marks" width="548" height="244" viewBox="0 0 548 244"><rect width="548" height="244" fill="white"/><g fill="none" stroke-miterlimit="10" transform="translate(67,7)"><g class="mark-group role-frame root" role="graphics-object" aria-roledescription="group mark container"><g transform="translate(0,0)"><path class="background" aria-hidden="true" d="M0.5,0.5h200v200h-200Z" stroke="#ddd"/><g><g class="mark-group role-axis" aria-hidden="true"><g transform="translate(0.5,200.5)"><path class="background" aria-hidden="true" d="M0,0h0v0h0Z" pointer-events="none"/><g><g class="mark-rule role-axis-grid" pointer-events="none"><line transform="translate(22,-200)" x2="0" y2="200" stroke="#ddd" stroke-width="1" opacity="1"/><line transform="translate(80,-200)" x2="0" y2="200" stroke="#ddd" stroke-width="1" opacity="1"/><line transform="translate(139,-200)" x2="0" y2="200" stroke="#ddd" stroke-width="1" opacity="1"/><line transform="translate(197,-200)" x2="0" y2="200" stroke="#ddd" stroke-width="1" opacity="1"/></g></g><path class="foreground" aria-hidden="true" d="" pointer-events="none" display="none"/></g></g><g class="mark-group role-axis" aria-hidden="true"><g transform="translate(0.5,0.5)"><path class="background" aria-hidden="true" d="M0,0h0v0h0Z" pointer-events="none"/><g><g class="mark-rule role-axis-grid" pointer-events="none"><line transform="translate(0,200)" x2="200" y2="0" stroke="#ddd" stroke-width="1" opacity="1"/><line transform="translate(0,144)" x2="200" y2="0" stroke="#ddd" stroke-width="1" opacity="1"/><line transform="translate(0,89)" x2="200" y2="0" stroke="#ddd" stroke-width="1" opacity="1"/><line transform="translate(0,33)" x2="200" y2="0" stroke="#ddd" stroke-width="1" opacity="1"/></g></g><path class="foreground" aria-hidden="true" d="" pointer-events="none" display="none"/></g></g><g class="mark-group role-axis" role="graphics-symbol" aria-roledescription="axis" aria-label="X-axis titled 'Time' for a time scale with values from Thursday, 14 August 2025, 8:34:48 AM to Sunday, 07 September 2025, 8:46:16 AM"><g transform="translate(0.5,200.5)"><path class="background" aria-hidden="true" d="M0,0h0v0h0Z" pointer-events="none"/><g><g class="mark-rule role-axis-tick" pointer-events="none"><line transform="translate(22,0)" x2="0" y2="5" stroke="#888" stroke-width="1" opacity="1"/><line transform="translate(80,0)" x2="0" y2="5" stroke="#888" stroke-width="1" opacity="1"/><line transform="translate(139,0)" x2="0" y2="5" stroke="#888" stroke-width="1" opacity="1"/><line transform="translate(197,0)" x2="0" y2="5" stroke="#888" stroke-width="1" opacity="1"/></g><g class="mark-text role-axis-label" pointer-events="none"><text text-anchor="middle" transform="translate(22.01345734481483,15)" font-family="Liberation Mono" font-size="10px" fill="#000" opacity="1">Aug 17</text><text text-anchor="middle" transform="translate(80.32744447297408,15)" font-family="Liberation Mono" font-size="10px" fill="#000" opacity="1">Aug 24</text><text text-anchor="middle" transform="translate(138.64143160113332,15)" font-family="Liberation Mono" font-size="10px" fill="#000" opacity="1">Aug 31</text><text text-anchor="middle" transform="translate(196.95541872929257,15)" font-family="Liberation Mono" font-size="10px" fill="#000" opacity="1">Sep 07</text></g><g class="mark-rule role-axis-domain" pointer-events="none"><line transform="translate(0,0)" x2="200" y2="0" stroke="#888" stroke-width="1" opacity="1"/></g><g class="mark-text role-axis-title" pointer-events="none"><text text-anchor="middle" transform="translate(100,30)" font-family="Liberation Mono" font-size="11px" font-weight="bold" fill="#000" opacity="1">Time</text></g></g><path class="foreground" aria-hidden="true" d="" pointer-events="none" display="none"/></g></g><g class="mark-group role-axis" role="graphics-symbol" aria-roledescription="axis" aria-label="Y-axis titled 'Price' for a linear scale with values from 0 to 1,800"><g transform="translate(0.5,0.5)"><path class="background" aria-hidden="true" d="M0,0h0v0h0Z" pointer-events="none"/><g><g class="mark-rule role-axis-tick" pointer-events="none"><line transform="translate(0,200)" x2="-5" y2="0" stroke="#888" stroke-width="1" opacity="1"/><line transform="translate(0,144)" x2="-5" y2="0" stroke="#888" stroke-width="1" opacity="1"/><line transform="translate(0,89)" x2="-5" y2="0" stroke="#888" stroke-width="1" opacity="1"/><line transform="translate(0,33)" x2="-5" y2="0" stroke="#888" stroke-width="1" opacity="1"/></g><g class="mark-text role-axis-label" pointer-events="none"><text text-anchor="end" transform="translate(-7,203)" font-family="Liberation Mono" font-size="10px" fill="#000" opacity="1">0</text><text text-anchor="end" transform="translate(-7,147.44444444444443)" font-family="Liberation Mono" font-size="10px" fill="#000" opacity="1">500</text><text text-anchor="end" transform="translate(-7,91.88888888888889)" font-family="Liberation Mono" font-size="10px" fill="#000" opacity="1">1,000</text><text text-anchor="end" transform="translate(-7,36.33333333333333)" font-family="Liberation Mono" font-size="10px" fill="#000" opacity="1">1,500</text></g><g class="mark-rule role-axis-domain" pointer-events="none"><line transform="translate(0,200)" x2="0" y2="-200" stroke="#888" stroke-width="1" opacity="1"/></g><g class="mark-text role-axis-title" pointer-events="none"><text text-anchor="middle" transform="translate(-51,100) rotate(-90) translate(0,-2)" font-family="Liberation Mono" font-size="11px" font-weight="bold" fill="#000" opacity="1">Price</text></g></g><path class="foreground" aria-hidden="true" d="" pointer-events="none" display="none"/></g></g><g class="mark-group role-scope pathgroup" role="graphics-object" aria-roledescription="group mark container"><g transform="translate(0,0)"><path class="background" aria-hidden="true" d="M0,0h200v200h-200Z"/><g><g class="mark-line role-mark marks" role="graphics-object" aria-roledescription="line mark container"><path aria-label="Time: Aug 14, 2025; Price: 899; identifier: escape-city-disc-1-2024" role="graphics-symbol" aria-roledescription="line mark" d="M0,100.111L0.069,100.111L0.124,100.111L1.66,100.111L2.88,100.111L4.25,100.111L7.06,100.111L8.439,100.111L9.963,100.111L11.212,100.111L12.575,100.111L15.363,100.111L16.759,100.111L18.238,100.111L19.527,100.111L20.893,100.111L23.726,100.111L25.087,100.111L26.573,100.111L27.863,100.111L29.234,100.111L32.08,100.111L33.448,100.111L34.983,100.111L35.521,100.111L36.221,100.111L37.557,100.111L40.347,100.111L41.757,100.111L43.237,100.111L44.529,100.111L45.884,100.111L48.681,100.111L50.077,100.111L51.617,100.111L52.24,100.111L52.857,100.111L54.224,100.111L57.006,100.111L58.414,100.111L59.901,100.111L61.193,100.111L62.55,100.111L65.339,100.111L66.742,100.111L68.228,100.111L69.515,100.111L70.877,100.111L73.663,100.111L75.06,100.111L76.532,100.111L77.824,100.111L79.199,100.111L82.004,100.111L83.385,100.111L84.867,100.111L86.165,100.111L87.532,100.111L90.346,100.111L91.752,100.111L93.272,100.111L94.516,100.111L95.872,100.111L98.663,100.111L100.077,100.111L102.838,100.111L104.194,100.111L106.983,100.111L108.391,100.111L108.937,100.111L109.875,100.111L110.804,100.111L111.168,100.111L112.531,100.111L115.313,100.111L116.725,100.111L118.209,100.111L119.497,100.111L120.858,100.111L123.644,100.111L125.05,100.111L126.53,100.111L127.824,100.111L129.184,100.111L131.965,100.111L133.361,100.111L134.835,100.111L136.134,100.111L137.444,100.111L137.509,100.111L140.299,100.111L141.189,100.111L141.688,100.111L143.169,100.111L144.47,100.111L145.843,100.111L148.656,100.111L150.056,100.111L151.535,100.111L152.81,100.111L154.171,100.111L156.973,100.111L158.382,100.111L159.87,100.111L161.147,100.111L162.507,100.111L165.293,100.111L166.699,100.111L168.183,100.111L169.473,100.111L170.835,100.111L173.621,100.111L175.033,100.111L176.506,100.111L177.809,100.111L179.164,100.111L181.956,100.111L183.361,100.111L184.841,100.111L186.124,100.111L187.497,100.111L190.277,100.111L190.992,100.111L191.667,100.111L193.136,100.111L194.441,100.111L195.823,100.111L198.605,100.111L199.996,100.111" stroke="#f58518" stroke-width="2"/></g></g><path class="foreground" aria-hidden="true" d="" display="none"/></g><g transform="translate(0,0)"><path class="background" aria-hidden="true" d="M0,0h200v200h-200Z"/><g><g class="mark-line role-mark marks" role="graphics-object" aria-roledescription="line mark container"><path aria-label="Time: Aug 14, 2025; Price: 999; identifier: roam-2" role="graphics-symbol" aria-roledescription="line mark" d="M0,89L0.069,89L0.124,89L1.66,89L2.881,89L4.25,89L7.06,89L8.439,89L9.963,89L11.212,89L12.575,89L15.364,89L16.759,89L18.238,89L19.527,89L20.906,89L23.726,89L25.087,89L26.573,89L27.863,89L29.234,89L32.08,89L33.448,89L34.983,89L35.521,89L36.221,89L37.557,89L40.348,89L41.758,89L43.237,89L44.53,89L45.884,89L48.681,89L50.077,89L51.618,89L52.241,89L52.857,89L54.225,89L57.007,89L58.415,89L59.901,89L61.193,89L62.551,89L65.339,89L66.743,89L68.228,89L69.515,89L70.877,89L73.664,89L75.06,89L76.533,89L77.824,89L79.199,89L82.004,89L83.385,89L84.868,89L86.165,89L87.532,89L90.347,89L91.753,89L93.272,89L94.516,89L95.872,89L98.664,89L100.078,89L102.839,89L104.194,89L106.984,89L108.392,89L108.938,89L109.875,89L110.804,89L111.168,89L112.531,89L115.313,89L116.726,89L118.209,89L119.497,89L120.858,89L123.644,89L125.05,89L126.53,89L127.824,89L129.184,89L131.965,89L133.361,89L134.835,89L136.135,89L137.445,89L137.51,89L140.299,89L141.189,89L141.688,89L143.17,89L144.47,89L145.843,89L148.656,89L150.057,89L151.535,89L152.811,89L154.172,89L156.974,89L158.382,89L159.871,89L161.147,89L162.508,89L165.294,89L166.699,89L168.183,89L169.473,89L170.836,89L173.622,89L175.033,89L176.506,89L177.81,89L179.164,89L181.956,89L183.362,89L184.841,89L186.124,89L187.498,89L190.277,89L190.992,89L191.667,89L193.137,89L194.441,89L195.824,89L198.605,89L199.997,89" stroke="#ff9da6" stroke-width="2"/></g></g><path class="foreground" aria-hidden="true" d="" display="none"/></g><g transform="translate(0,0)"><path class="background" aria-hidden="true" d="M0,0h200v200h-200Z"/><g><g class="mark-line role-mark marks" role="graphics-object" aria-roledescription="line mark container"><path aria-label="Time: Aug 14, 2025; Price: 999; identifier: fastroad-sl-3-2022" role="graphics-symbol" aria-roledescription="line mark" d="M0,89L0.07,89L0.124,89L1.66,89L2.881,89L4.25,89L7.06,89L8.44,89L9.963,89L11.213,89L12.575,89L15.364,89L16.76,89L18.238,89L19.527,89L20.906,89L23.726,89L25.087,89L26.573,89L27.864,89L29.234,89L32.08,89L33.448,89L34.983,89L35.522,89L36.221,89L37.557,89L40.348,89L41.758,89L43.237,89L44.53,89L45.884,89L48.681,89L50.078,89L51.618,89L52.241,89L52.858,89L54.225,89L57.007,89L58.415,89L59.901,89L61.193,89L62.551,89L65.34,89L66.743,89L68.228,89L69.515,89L70.877,89L73.664,89L75.06,89L76.533,89L77.824,89L79.199,89L82.005,89L83.385,89L84.868,89L86.165,89L87.532,89L90.347,89L91.753,89L93.273,89L94.516,89L95.873,89L98.664,89L100.078,89L102.839,89L104.195,89L106.984,89L108.392,89L108.938,89L109.876,89L110.804,89L111.168,89L112.531,89L115.313,89L116.726,89L118.21,89L119.497,89L120.859,89L123.644,89L125.051,89L126.53,89L127.825,89L129.184,89L131.965,89L133.361,89L134.835,89L136.135,89L137.445,89L137.51,89L140.299,89L141.189,89L141.688,89L143.17,89L144.47,89L145.843,89L148.657,89L150.057,89L151.535,89L152.811,89L154.172,89L156.974,89L158.382,89L159.871,89L161.147,89L162.508,89L165.294,89L166.699,89L168.183,89L169.474,89L170.836,89L173.622,89L175.033,89L176.506,89L177.81,89L179.164,89L181.956,89L183.362,89L184.841,89L186.125,89L187.498,89L190.278,89L190.992,89L191.668,89L193.137,89L194.441,89L195.824,89L198.606,89L199.997,89" stroke="#9d755d" stroke-width="2"/></g></g><path class="foreground" aria-hidden="true" d="" display="none"/></g><g transform="translate(0,0)"><path class="background" aria-hidden="true" d="M0,0h200v200h-200Z"/><g><g class="mark-line role-mark marks" role="graphics-object" aria-roledescription="line mark container"><path aria-label="Time: Aug 14, 2025; Price: 1199; identifier: fastroad-ar-2" role="graphics-symbol" aria-roledescription="line mark" d="M0.001,66.778L0.07,66.778L0.124,66.778L1.66,66.778L2.881,66.778L4.25,66.778L7.06,66.778L8.44,66.778L9.963,66.778L11.213,66.778L12.576,66.778L15.364,66.778L16.76,66.778L18.239,66.778L19.527,66.778L20.913,66.778L23.726,66.778L25.087,66.778L26.573,66.778L27.864,66.778L29.235,66.778L32.081,66.778L33.449,66.778L34.983,66.778L35.522,66.778L36.221,66.778L37.557,66.778L40.348,66.778L41.758,66.778L43.238,66.778L44.53,66.778L45.885,66.778L48.681,66.778L50.078,66.778L51.618,66.778L52.241,66.778L52.858,66.778L54.225,66.778L57.007,66.778L58.415,66.778L59.901,66.778L61.194,66.778L62.551,66.778L65.34,66.778L66.743,66.778L68.228,66.778L69.516,66.778L70.877,66.778L73.664,66.778L75.061,66.778L76.533,66.778L77.824,66.778L79.199,66.778L82.005,66.778L83.386,66.778L84.868,66.778L86.165,66.778L87.533,66.778L90.347,66.778L91.753,66.778L93.273,66.778L94.517,66.778L95.873,66.778L98.665,66.778L100.078,66.778L102.839,66.778L104.195,66.778L106.984,66.778L108.392,66.778L108.939,66.778L109.876,66.778L110.805,66.778L111.169,66.778L112.531,66.778L115.313,66.778L116.726,66.778L118.21,66.778L119.498,66.778L120.859,66.778L123.644,66.778L125.051,66.778L126.531,66.778L127.825,66.778L129.185,66.778L131.966,66.778L133.362,66.778L134.836,66.778L136.135,66.778L137.445,66.778L137.51,66.778L140.3,66.778L141.189,66.778L141.689,66.778L143.17,66.778L144.47,66.778L145.843,66.778L148.657,66.778L150.057,66.778L151.535,66.778L152.811,66.778L154.172,66.778L156.974,66.778L158.383,66.778L159.871,66.778L161.147,66.778L162.508,66.778L165.294,66.778L166.7,66.778L168.184,66.778L169.474,66.778L170.836,66.778L173.622,66.778L175.033,66.778L176.507,66.778L177.81,66.778L179.165,66.778L181.956,66.778L183.362,66.778L184.842,66.778L186.125,66.778L187.498,66.778L190.278,66.778L190.992,66.778L191.668,66.778L193.137,66.778L194.442,66.778L195.824,66.778L198.606,66.778L199.997,66.778" stroke="#54a24b" stroke-width="2"/></g></g><path class="foreground" aria-hidden="true" d="" display="none"/></g><g transform="translate(0,0)"><path class="background" aria-hidden="true" d="M0,0h200v200h-200Z"/><g><g class="mark-line role-mark marks" role="graphics-object" aria-roledescription="line mark container"><path aria-label="Time: Aug 18, 2025; Price: 899; identifier: sdrbike-escape-1-city-disc" role="graphics-symbol" aria-roledescription="line mark" d="M35.522,100.111L36.222,100.111L37.557,100.111L40.348,100.111L41.758,100.111L43.238,100.111L44.53,100.111L45.885,100.111L48.682,100.111L50.078,100.111L51.618,100.111L52.241,100.111L52.858,100.111L54.225,100.111L57.007,100.111L58.415,100.111L59.902,100.111L61.194,100.111L62.552,100.111L65.34,100.111L66.743,100.111L68.229,100.111L69.516,100.111L70.878,100.111L73.665,100.111L75.061,100.111L76.533,100.111L77.825,100.111L79.2,100.111L82.005,100.111L83.386,100.111L84.869,100.111L86.165,100.111L87.533,100.111L90.347,100.111L91.753,100.111L93.273,100.111L94.517,100.111L95.873,100.111L98.665,100.111L100.078,100.111L102.84,100.111L104.195,100.111L106.985,100.111L108.392,100.111L108.939,100.111L109.876,100.111L110.805,100.111L111.169,100.111L112.532,100.111L115.314,100.111L116.726,100.111L118.21,100.111L119.498,100.111L120.859,100.111L123.645,100.111L125.051,100.111L126.531,100.111L127.825,100.111L129.185,100.111L131.966,100.111L133.362,100.111L134.836,100.111L136.135,100.111L137.445,100.111L137.51,100.111L140.3,100.111L141.19,100.111L141.689,100.111L143.17,100.111L144.47,100.111L145.844,100.111L148.657,100.111L150.057,100.111L151.536,100.111L152.812,100.111L154.172,100.111L156.974,100.111L158.383,100.111L159.871,100.111L161.147,100.111L162.509,100.111L165.294,100.111L166.7,100.111L168.184,100.111L169.474,100.111L170.836,100.111L173.622,100.111L175.034,100.111L176.507,100.111L177.81,100.111L179.165,100.111L181.956,100.111L183.362,100.111L184.842,100.111L186.125,100.111L187.498,100.111L190.278,100.111L190.993,100.111L191.668,100.111L193.138,100.111L194.442,100.111L195.824,100.111L198.606,100.111L199.998,100.111" stroke="#e45756" stroke-width="2"/></g></g><path class="foreground" aria-hidden="true" d="" display="none"/></g><g transform="translate(0,0)"><path class="background" aria-hidden="true" d="M0,0h200v200h-200Z"/><g><g class="mark-line role-mark marks" role="graphics-object" aria-roledescription="line mark container"><path aria-label="Time: Aug 20, 2025; Price: 899; identifier: roam-disc-2-2024" role="graphics-symbol" aria-roledescription="line mark" d="M52.24,100.111L52.857,100.111L54.224,100.111L57.006,100.111L58.414,100.111L59.901,100.111L61.193,100.111L62.551,100.111L65.339,100.111L66.743,100.111L68.228,100.111L69.515,100.111L70.877,100.111L73.664,100.111L75.06,100.111L76.533,100.111L77.824,100.111L79.199,100.111L82.004,100.111L83.385,100.111L84.868,100.111L86.165,100.111L87.532,100.111L90.347,100.111L91.752,100.111L93.272,100.111L94.516,100.111L95.872,100.111L98.663,100.111L100.078,100.111L102.839,100.111L104.194,100.111L106.984,100.111L108.391,100.111L108.938,100.111L109.875,100.111L110.804,100.111L111.168,100.111L112.531,100.111L115.313,100.111L116.725,100.111L118.209,100.111L119.497,100.111L120.858,100.111L123.644,100.111L125.05,100.111L126.53,100.111L127.824,100.111L129.184,100.111L131.965,100.111L133.361,100.111L134.835,100.111L136.135,100.111L137.444,100.111L137.509,100.111L140.299,100.111L141.189,100.111L141.688,100.111L143.169,100.111L144.47,100.111L145.843,100.111L148.656,100.111L150.057,100.111L151.535,100.111L152.811,100.111L154.172,100.111L156.973,100.111L158.382,100.111L159.87,100.111L161.147,100.111L162.508,100.111L165.293,100.111L166.699,100.111L168.183,100.111L169.473,100.111L170.836,100.111L173.621,100.111L175.033,100.111L176.506,100.111L177.81,100.111L179.164,100.111L181.956,100.111L183.361,100.111L184.841,100.111L186.124,100.111L187.497,100.111L190.277,100.111L190.992,100.111L191.667,100.111L193.137,100.111L194.441,100.111L195.824,100.111L198.605,100.111L199.997,100.111" stroke="#72b7b2" stroke-width="2"/></g></g><path class="foreground" aria-hidden="true" d="" display="none"/></g><g transform="translate(0,0)"><path class="background" aria-hidden="true" d="M0,0h200v200h-200Z"/><g><g class="mark-line role-mark marks" role="graphics-object" aria-roledescription="line mark container"><path aria-label="Time: Aug 20, 2025; Price: 1199; identifier: thrive-2" role="graphics-symbol" aria-roledescription="line mark" d="M52.242,66.778L52.858,66.778L54.226,66.778L57.007,66.778L58.415,66.778L59.902,66.778L61.194,66.778L62.552,66.778L65.34,66.778L66.744,66.778L68.229,66.778L69.516,66.778L70.878,66.778L73.665,66.778L75.061,66.778L76.534,66.778L77.825,66.778L79.2,66.778L82.005,66.778L83.386,66.778L84.869,66.778L86.165,66.778L87.533,66.778L90.348,66.778L91.753,66.778L93.273,66.778L94.517,66.778L95.873,66.778L98.665,66.778L100.079,66.778L102.84,66.778L104.195,66.778L106.985,66.778L108.392,66.778L108.94,66.778L109.876,66.778L110.805,66.778L111.169,66.778L112.532,66.778L115.314,66.778L116.727,66.778L118.21,66.778L119.498,66.778L120.859,66.778L123.645,66.778L125.051,66.778L126.531,66.778L127.825,66.778L129.185,66.778L131.966,66.778L133.362,66.778L134.836,66.778L136.136,66.778L137.446,66.778L137.51,66.778L140.3,66.778L141.19,66.778L141.689,66.778L143.171,66.778L144.471,66.778L145.844,66.778L148.657,66.778L150.058,66.778L151.536,66.778L152.812,66.778L154.173,66.778L156.975,66.778L158.383,66.778L159.872,66.778L161.148,66.778L162.509,66.778L165.294,66.778L166.7,66.778L168.184,66.778L169.474,66.778L170.836,66.778L173.623,66.778L175.034,66.778L176.507,66.778L177.811,66.778L179.165,66.778L181.957,66.778L183.362,66.778L184.842,66.778L186.125,66.778L187.498,66.778L190.278,66.778L190.993,66.778L191.668,66.778L193.138,66.778L194.442,66.778L195.824,66.778L198.606,66.778L199.998,66.778" stroke="#eeca3b" stroke-width="2"/></g></g><path class="foreground" aria-hidden="true" d="" display="none"/></g><g transform="translate(0,0)"><path class="background" aria-hidden="true" d="M0,0h200v200h-200Z"/><g><g class="mark-line role-mark marks" role="graphics-object" aria-roledescription="line mark container"><path aria-label="Time: Aug 20, 2025; Price: 999; identifier: rove-2" role="graphics-symbol" aria-roledescription="line mark" d="M52.242,89L52.858,89L54.226,89L57.007,89L58.416,89L59.902,89L61.194,89L62.552,89L65.34,89L66.744,89L68.229,89L69.516,89L70.878,89L73.665,89L75.061,89L76.534,89L77.825,89L79.2,89L82.006,89L83.386,89L84.869,89L86.166,89L87.533,89L90.348,89L91.753,89L93.273,89L94.517,89L95.873,89L98.665,89L100.079,89L102.84,89L104.195,89L106.985,89L108.393,89L108.94,89L109.876,89L110.805,89L111.169,89L112.532,89L115.314,89L116.727,89L118.211,89L119.498,89L120.859,89L123.645,89L125.052,89L126.531,89L127.825,89L129.185,89L137.446,111.222L137.51,111.222L140.3,111.222L141.19,111.222L141.689,111.222L143.171,111.222L144.471,111.222L145.844,111.222L148.657,111.222L150.058,111.222L151.536,111.222L152.812,111.222L154.173,111.222L156.975,111.222L158.383,111.222L159.872,111.222L161.148,111.222L162.509,111.222L165.294,111.222L166.7,111.222L168.184,111.222L169.474,111.222L170.837,111.222L173.623,111.222L175.034,111.222L176.507,111.222L177.811,111.222L179.165,111.222L181.957,111.222L183.363,111.222L184.842,111.222L186.126,111.222L187.499,111.222L190.278,111.222L190.993,111.222L191.669,111.222L193.138,111.222L194.442,111.222L195.825,111.222L198.606,111.222L199.998,111.222" stroke="#bab0ac" stroke-width="2"/></g></g><path class="foreground" aria-hidden="true" d="" display="none"/></g><g transform="translate(0,0)"><path class="background" aria-hidden="true" d="M0,0h200v200h-200Z"/><g><g class="mark-line role-mark marks" role="graphics-object" aria-roledescription="line mark container"><path aria-label="Time: Aug 27, 2025; Price: 1199; identifier: allure-rs-1-2023" role="graphics-symbol" aria-roledescription="line mark" d="M108.941,66.778L109.877,66.778L110.805,66.778L111.169,66.778L112.532,66.778L115.314,66.778L116.727,66.778L118.211,66.778L119.498,66.778L120.859,66.778L123.645,66.778L125.052,66.778L126.531,66.778L127.825,66.778L129.185,66.778L131.966,66.778L133.362,66.778L134.836,66.778L136.136,66.778L137.446,66.778L137.511,66.778L140.3,66.778L141.19,66.778L141.69,66.778L143.171,66.778L144.471,66.778L145.844,66.778L148.658,66.778L150.058,66.778L151.536,66.778L152.812,66.778L154.173,66.778L156.975,66.778L158.383,66.778L159.872,66.778L161.148,66.778L162.509,66.778L165.295,66.778L166.7,66.778L168.184,66.778L169.474,66.778L170.837,66.778L173.623,66.778L175.034,66.778L176.507,66.778L177.811,66.778L179.166,66.778L181.957,66.778L183.363,66.778L184.842,66.778L186.126,66.778L187.499,66.778L190.279,66.778L190.993,66.778L191.669,66.778L193.138,66.778L194.442,66.778L195.825,66.778L198.606,66.778L199.998,66.778" stroke="#b279a2" stroke-width="2"/></g></g><path class="foreground" aria-hidden="true" d="" display="none"/></g><g transform="translate(0,0)"><path class="background" aria-hidden="true" d="M0,0h200v200h-200Z"/><g><g class="mark-line role-mark marks" role="graphics-object" aria-roledescription="line mark container"><path aria-label="Time: Aug 27, 2025; Price: 999; identifier: allure-rs-2-2022" role="graphics-symbol" aria-roledescription="line mark" d="M108.941,89L109.877,89L110.805,89L111.169,89L112.533,89L115.315,89L116.727,89L118.211,89L119.499,89L120.86,89L123.645,89L125.052,89L126.532,89L127.826,89L129.186,89L137.446,111.222L137.511,111.222L140.301,111.222L141.19,111.222L141.69,111.222L143.171,111.222L144.471,111.222L145.844,111.222L148.658,111.222L150.058,111.222L151.536,111.222L152.812,111.222L154.173,111.222L156.975,111.222L158.384,111.222L159.872,111.222L161.148,111.222L162.51,111.222L165.295,111.222L166.701,111.222L168.185,111.222L169.475,111.222L170.837,111.222L173.623,111.222L175.035,111.222L176.508,111.222L177.811,111.222L179.166,111.222L181.957,111.222L183.363,111.222L184.843,111.222L186.126,111.222L187.499,111.222L190.279,111.222L190.993,111.222L191.669,111.222L193.138,111.222L194.443,111.222L195.825,111.222L198.607,111.222L199.999,111.222" stroke="#54a24b" stroke-width="2"/></g></g><path class="foreground" aria-hidden="true" d="" display="none"/></g><g transform="translate(0,0)"><path class="background" aria-hidden="true" d="M0,0h200v200h-200Z"/><g><g class="mark-line role-mark marks" role="graphics-object" aria-roledescription="line mark container"><path aria-label="Time: Aug 27, 2025; Price: 949; identifier: allure-rs-2-2023" role="graphics-symbol" aria-roledescription="line mark" d="M108.942,94.556L109.877,94.556L110.806,94.556L111.17,94.556L112.533,94.556L115.315,94.556L116.727,94.556L118.211,94.556L119.499,94.556L120.86,94.556L123.646,94.556L125.052,94.556L126.532,94.556L127.826,94.556L129.186,94.556L131.967,94.556L133.363,94.556L134.837,94.556L136.136,94.556L137.446,94.556L137.511,94.556L140.301,94.556L141.19,94.556L141.69,94.556L143.171,94.556L144.471,94.556L145.844,94.556L148.658,94.556L150.058,94.556L151.537,94.556L152.813,94.556L154.174,94.556L156.975,94.556L158.384,94.556L159.873,94.556L161.148,94.556L162.51,94.556L165.295,94.556L166.701,94.556L168.185,94.556L169.475,94.556L170.837,94.556L173.624,94.556L175.035,94.556L176.508,94.556L177.812,94.556L179.166,94.556L181.957,94.556L183.363,94.556L184.843,94.556L186.126,94.556L187.499,94.556L190.279,94.556L190.993,94.556L191.669,94.556L193.139,94.556L194.443,94.556L195.825,94.556L198.607,94.556L199.999,94.556" stroke="#4c78a8" stroke-width="2"/></g></g><path class="foreground" aria-hidden="true" d="" display="none"/></g><g transform="translate(0,0)"><path class="background" aria-hidden="true" d="M0,0h200v200h-200Z"/><g><g class="mark-line role-mark marks" role="graphics-object" aria-roledescription="line mark container"><path aria-label="Time: Aug 27, 2025; Price: 999; identifier: allure-rs-2-2024" role="graphics-symbol" aria-roledescription="line mark" d="M108.942,89L109.877,89L110.806,89L111.17,89L112.533,89L115.315,89L116.728,89L118.211,89L119.499,89L120.86,89L123.646,89L125.052,89L126.532,89L127.826,89L129.186,89L137.447,111.222L137.511,111.222L140.301,111.222L141.191,111.222L141.69,111.222L143.172,111.222L144.471,111.222L145.845,111.222L148.658,111.222L150.058,111.222L151.537,111.222L152.813,111.222L154.174,111.222L156.976,111.222L158.384,111.222L159.873,111.222L161.148,111.222L162.51,111.222L165.295,111.222L166.701,111.222L168.185,111.222L169.475,111.222L170.837,111.222L173.624,111.222L175.035,111.222L176.508,111.222L177.812,111.222L179.166,111.222L181.957,111.222L183.363,111.222L184.843,111.222L186.126,111.222L187.499,111.222L190.279,111.222L190.994,111.222L191.669,111.222L193.139,111.222L194.443,111.222L195.825,111.222L198.607,111.222L199.999,111.222" stroke="#eeca3b" stroke-width="2"/></g></g><path class="foreground" aria-hidden="true" d="" display="none"/></g><g transform="translate(0,0)"><path class="background" aria-hidden="true" d="M0,0h200v200h-200Z"/><g><g class="mark-line role-mark marks" role="graphics-object" aria-roledescription="line mark container"><path aria-label="Time: Aug 27, 2025; Price: 1799; identifier: devote-1-2024" role="graphics-symbol" aria-roledescription="line mark" d="M110.806,0.111L111.17,0.111L112.533,0.111L115.315,0.111L116.728,0.111L118.211,0.111L119.499,0.111L120.86,0.111L123.646,0.111L125.052,0.111L126.532,0.111L127.826,0.111L129.186,0.111L137.447,44.556L137.511,44.556L140.301,44.556L141.191,44.556L141.69,44.556L143.172,44.556L144.472,44.556L145.845,44.556L148.658,44.556L150.059,44.556L151.537,44.556L152.813,44.556L154.174,44.556L156.976,44.556L158.384,44.556L159.873,44.556L161.148,44.556L162.51,44.556L165.295,44.556L166.701,44.556L168.185,44.556L169.475,44.556L170.837,44.556L173.624,44.556L175.035,44.556L176.508,44.556L177.812,44.556L179.166,44.556L181.958,44.556L183.363,44.556L184.843,44.556L186.127,44.556L187.5,44.556L190.279,44.556L190.994,44.556L191.67,44.556L193.139,44.556L194.443,44.556L195.825,44.556L198.607,44.556L199.999,44.556" stroke="#72b7b2" stroke-width="2"/></g></g><path class="foreground" aria-hidden="true" d="" display="none"/></g><g transform="translate(0,0)"><path class="background" aria-hidden="true" d="M0,0h200v200h-200Z"/><g><g class="mark-line role-mark marks" role="graphics-object" aria-roledescription="line mark container"><path aria-label="Time: Aug 27, 2025; Price: 1699; identifier: devote-1-2022" role="graphics-symbol" aria-roledescription="line mark" d="M110.806,11.222L111.17,11.222L112.533,11.222L115.315,11.222L116.728,11.222L118.212,11.222L119.499,11.222L120.86,11.222L123.646,11.222L125.053,11.222L126.532,11.222L127.826,11.222L129.187,11.222L131.967,11.222L133.363,11.222L134.838,11.222L136.137,11.222L137.447,11.222L137.511,11.222L140.301,11.222L141.191,11.222L141.691,11.222L143.172,11.222L144.472,11.222L145.845,11.222L148.658,11.222L150.059,11.222L151.537,11.222L152.813,11.222L154.174,11.222L156.976,11.222L158.384,11.222L159.873,11.222L161.149,11.222L162.51,11.222L165.295,11.222L166.701,11.222L168.185,11.222L169.475,11.222L170.838,11.222L173.624,11.222L175.035,11.222L176.508,11.222L177.812,11.222L179.167,11.222L181.958,11.222L183.364,11.222L184.843,11.222L186.127,11.222L187.5,11.222L190.279,11.222L190.994,11.222L191.67,11.222L193.139,11.222L194.443,11.222L195.826,11.222L198.607,11.222L199.999,11.222" stroke="#4c78a8" stroke-width="2"/></g></g><path class="foreground" aria-hidden="true" d="" display="none"/></g><g transform="translate(0,0)"><path class="background" aria-hidden="true" d="M0,0h200v200h-200Z"/><g><g class="mark-line role-mark marks" role="graphics-object" aria-roledescription="line mark container"><path aria-label="Time: Aug 31, 2025; Price: 1599; identifier: silex-400-oak-bork-2026" role="graphics-symbol" aria-roledescription="line mark" d="M141.191,22.333L141.691,22.333L143.172,22.333L144.472,22.333L145.845,22.333L148.659,22.333L150.059,22.333L151.538,22.333L152.814,22.333L154.175,22.333L156.976,22.333L158.385,22.333L159.874,22.333L161.149,22.333L162.511,22.333L165.296,22.333L166.702,22.333L168.186,22.333L169.476,22.333L170.838,22.333L173.625,22.333L175.036,22.333L176.509,22.333L177.813,22.333L179.167,22.333L181.958,22.333L183.364,22.333L184.844,22.333L186.127,22.333L187.5,22.333L190.28,22.333L190.994,22.333L191.67,22.333L193.14,22.333L194.443,22.333L195.826,22.333L198.608,22.333L200,22.333" stroke="#f58518" stroke-width="2"/></g></g><path class="foreground" aria-hidden="true" d="" display="none"/></g><g transform="translate(0,0)"><path class="background" aria-hidden="true" d="M0,0h200v200h-200Z"/><g><g class="mark-line role-mark marks" role="graphics-object" aria-roledescription="line mark container"><path aria-label="Time: Aug 31, 2025; Price: 1599; identifier: silex-400-warm-slate-grey-2026" role="graphics-symbol" aria-roledescription="line mark" d="M141.191,22.333L141.691,22.333L143.173,22.333L144.472,22.333L145.846,22.333L148.659,22.333L150.059,22.333L151.538,22.333L152.814,22.333L154.175,22.333L156.977,22.333L158.385,22.333L159.874,22.333L161.149,22.333L162.511,22.333L165.296,22.333L166.702,22.333L168.186,22.333L169.476,22.333L170.838,22.333L173.625,22.333L175.036,22.333L176.509,22.333L177.813,22.333L179.167,22.333L181.958,22.333L183.364,22.333L184.844,22.333L186.128,22.333L187.5,22.333L190.28,22.333L190.994,22.333L191.671,22.333L193.14,22.333L194.444,22.333L195.826,22.333L198.608,22.333L200,22.333" stroke="#e45756" stroke-width="2"/></g></g><path class="foreground" aria-hidden="true" d="" display="none"/></g></g><g class="mark-group role-legend" role="graphics-symbol" aria-roledescription="legend" aria-label="Symbol legend titled 'identifier' for stroke color with 16 values: devote-1-2022, silex-400-oak-bork-2026, silex-400-warm-slate-grey-2026, devote-1-2024, fastroad-ar-2, ending with allure-rs-2-2024"><g transform="translate(220,0)"><path class="background" aria-hidden="true" d="M0,0h256v222h-256Z" pointer-events="none"/><g><g class="mark-group role-legend-entry"><g transform="translate(0,16)"><path class="background" aria-hidden="true" d="M0,0h0v0h0Z" pointer-events="none"/><g><g class="mark-group role-scope" role="graphics-object" aria-roledescription="group mark container"><g transform="translate(0,0)"><path class="background" aria-hidden="true" d="M0,0h256v11h-256Z" pointer-events="none" opacity="1"/><g><g class="mark-symbol role-legend-symbol" pointer-events="none"><path transform="translate(6,6)" d="M-5,0L5,0" stroke="#4c78a8" stroke-width="1.5" opacity="1"/></g><g class="mark-text role-legend-label" pointer-events="none"><text text-anchor="start" transform="translate(16,9)" font-family="Liberation Mono" font-size="10px" fill="#000" opacity="1">devote-1-2022</text></g></g><path class="foreground" aria-hidden="true" d="" pointer-events="none" display="none"/></g><g transform="translate(0,13)"><path class="background" aria-hidden="true" d="M0,0h256v11h-256Z" pointer-events="none" opacity="1"/><g><g class="mark-symbol role-legend-symbol" pointer-events="none"><path transform="translate(6,6)" d="M-5,0L5,0" stroke="#f58518" stroke-width="1.5" opacity="1"/></g><g class="mark-text role-legend-label" pointer-events="none"><text text-anchor="start" transform="translate(16,9)" font-family="Liberation Mono" font-size="10px" fill="#000" opacity="1">silex-400-oak-bork-2026</text></g></g><path class="foreground" aria-hidden="true" d="" pointer-events="none" display="none"/></g><g transform="translate(0,26)"><path class="background" aria-hidden="true" d="M0,0h256v11h-256Z" pointer-events="none" opacity="1"/><g><g class="mark-symbol role-legend-symbol" pointer-events="none"><path transform="translate(6,6)" d="M-5,0L5,0" stroke="#e45756" stroke-width="1.5" opacity="1"/></g><g class="mark-text role-legend-label" pointer-events="none"><text text-anchor="start" transform="translate(16,9)" font-family="Liberation Mono" font-size="10px" fill="#000" opacity="1">silex-400-warm-slate-grey-2026</text></g></g><path class="foreground" aria-hidden="true" d="" pointer-events="none" display="none"/></g><g transform="translate(0,39)"><path class="background" aria-hidden="true" d="M0,0h256v11h-256Z" pointer-events="none" opacity="1"/><g><g class="mark-symbol role-legend-symbol" pointer-events="none"><path transform="translate(6,6)" d="M-5,0L5,0" stroke="#72b7b2" stroke-width="1.5" opacity="1"/></g><g class="mark-text role-legend-label" pointer-events="none"><text text-anchor="start" transform="translate(16,9)" font-family="Liberation Mono" font-size="10px" fill="#000" opacity="1">devote-1-2024</text></g></g><path class="foreground" aria-hidden="true" d="" pointer-events="none" display="none"/></g><g transform="translate(0,52)"><path class="background" aria-hidden="true" d="M0,0h256v11h-256Z" pointer-events="none" opacity="1"/><g><g class="mark-symbol role-legend-symbol" pointer-events="none"><path transform="translate(6,6)" d="M-5,0L5,0" stroke="#54a24b" stroke-width="1.5" opacity="1"/></g><g class="mark-text role-legend-label" pointer-events="none"><text text-anchor="start" transform="translate(16,9)" font-family="Liberation Mono" font-size="10px" fill="#000" opacity="1">fastroad-ar-2</text></g></g><path class="foreground" aria-hidden="true" d="" pointer-events="none" display="none"/></g><g transform="translate(0,65)"><path class="background" aria-hidden="true" d="M0,0h256v11h-256Z" pointer-events="none" opacity="1"/><g><g class="mark-symbol role-legend-symbol" pointer-events="none"><path transform="translate(6,6)" d="M-5,0L5,0" stroke="#eeca3b" stroke-width="1.5" opacity="1"/></g><g class="mark-text role-legend-label" pointer-events="none"><text text-anchor="start" transform="translate(16,9)" font-family="Liberation Mono" font-size="10px" fill="#000" opacity="1">thrive-2</text></g></g><path class="foreground" aria-hidden="true" d="" pointer-events="none" display="none"/></g><g transform="translate(0,78)"><path class="background" aria-hidden="true" d="M0,0h256v11h-256Z" pointer-events="none" opacity="1"/><g><g class="mark-symbol role-legend-symbol" pointer-events="none"><path transform="translate(6,6)" d="M-5,0L5,0" stroke="#b279a2" stroke-width="1.5" opacity="1"/></g><g class="mark-text role-legend-label" pointer-events="none"><text text-anchor="start" transform="translate(16,9)" font-family="Liberation Mono" font-size="10px" fill="#000" opacity="1">allure-rs-1-2023</text></g></g><path class="foreground" aria-hidden="true" d="" pointer-events="none" display="none"/></g><g transform="translate(0,91)"><path class="background" aria-hidden="true" d="M0,0h256v11h-256Z" pointer-events="none" opacity="1"/><g><g class="mark-symbol role-legend-symbol" pointer-events="none"><path transform="translate(6,6)" d="M-5,0L5,0" stroke="#ff9da6" stroke-width="1.5" opacity="1"/></g><g class="mark-text role-legend-label" pointer-events="none"><text text-anchor="start" transform="translate(16,9)" font-family="Liberation Mono" font-size="10px" fill="#000" opacity="1">roam-2</text></g></g><path class="foreground" aria-hidden="true" d="" pointer-events="none" display="none"/></g><g transform="translate(0,104)"><path class="background" aria-hidden="true" d="M0,0h256v11h-256Z" pointer-events="none" opacity="1"/><g><g class="mark-symbol role-legend-symbol" pointer-events="none"><path transform="translate(6,6)" d="M-5,0L5,0" stroke="#9d755d" stroke-width="1.5" opacity="1"/></g><g class="mark-text role-legend-label" pointer-events="none"><text text-anchor="start" transform="translate(16,9)" font-family="Liberation Mono" font-size="10px" fill="#000" opacity="1">fastroad-sl-3-2022</text></g></g><path class="foreground" aria-hidden="true" d="" pointer-events="none" display="none"/></g><g transform="translate(0,117)"><path class="background" aria-hidden="true" d="M0,0h256v11h-256Z" pointer-events="none" opacity="1"/><g><g class="mark-symbol role-legend-symbol" pointer-events="none"><path transform="translate(6,6)" d="M-5,0L5,0" stroke="#bab0ac" stroke-width="1.5" opacity="1"/></g><g class="mark-text role-legend-label" pointer-events="none"><text text-anchor="start" transform="translate(16,9)" font-family="Liberation Mono" font-size="10px" fill="#000" opacity="1">rove-2</text></g></g><path class="foreground" aria-hidden="true" d="" pointer-events="none" display="none"/></g><g transform="translate(0,130)"><path class="background" aria-hidden="true" d="M0,0h256v11h-256Z" pointer-events="none" opacity="1"/><g><g class="mark-symbol role-legend-symbol" pointer-events="none"><path transform="translate(6,6)" d="M-5,0L5,0" stroke="#4c78a8" stroke-width="1.5" opacity="1"/></g><g class="mark-text role-legend-label" pointer-events="none"><text text-anchor="start" transform="translate(16,9)" font-family="Liberation Mono" font-size="10px" fill="#000" opacity="1">allure-rs-2-2023</text></g></g><path class="foreground" aria-hidden="true" d="" pointer-events="none" display="none"/></g><g transform="translate(0,143)"><path class="background" aria-hidden="true" d="M0,0h256v11h-256Z" pointer-events="none" opacity="1"/><g><g class="mark-symbol role-legend-symbol" pointer-events="none"><path transform="translate(6,6)" d="M-5,0L5,0" stroke="#f58518" stroke-width="1.5" opacity="1"/></g><g class="mark-text role-legend-label" pointer-events="none"><text text-anchor="start" transform="translate(16,9)" font-family="Liberation Mono" font-size="10px" fill="#000" opacity="1">escape-city-disc-1-2024</text></g></g><path class="foreground" aria-hidden="true" d="" pointer-events="none" display="none"/></g><g transform="translate(0,156)"><path class="background" aria-hidden="true" d="M0,0h256v11h-256Z" pointer-events="none" opacity="1"/><g><g class="mark-symbol role-legend-symbol" pointer-events="none"><path transform="translate(6,6)" d="M-5,0L5,0" stroke="#e45756" stroke-width="1.5" opacity="1"/></g><g class="mark-text role-legend-label" pointer-events="none"><text text-anchor="start" transform="translate(16,9)" font-family="Liberation Mono" font-size="10px" fill="#000" opacity="1">sdrbike-escape-1-city-disc</text></g></g><path class="foreground" aria-hidden="true" d="" pointer-events="none" display="none"/></g><g transform="translate(0,169)"><path class="background" aria-hidden="true" d="M0,0h256v11h-256Z" pointer-events="none" opacity="1"/><g><g class="mark-symbol role-legend-symbol" pointer-events="none"><path transform="translate(6,6)" d="M-5,0L5,0" stroke="#72b7b2" stroke-width="1.5" opacity="1"/></g><g class="mark-text role-legend-label" pointer-events="none"><text text-anchor="start" transform="translate(16,9)" font-family="Liberation Mono" font-size="10px" fill="#000" opacity="1">roam-disc-2-2024</text></g></g><path class="foreground" aria-hidden="true" d="" pointer-events="none" display="none"/></g><g transform="translate(0,182)"><path class="background" aria-hidden="true" d="M0,0h256v11h-256Z" pointer-events="none" opacity="1"/><g><g class="mark-symbol role-legend-symbol" pointer-events="none"><path transform="translate(6,6)" d="M-5,0L5,0" stroke="#54a24b" stroke-width="1.5" opacity="1"/></g><g class="mark-text role-legend-label" pointer-events="none"><text text-anchor="start" transform="translate(16,9)" font-family="Liberation Mono" font-size="10px" fill="#000" opacity="1">allure-rs-2-2022</text></g></g><path class="foreground" aria-hidden="true" d="" pointer-events="none" display="none"/></g><g transform="translate(0,195)"><path class="background" aria-hidden="true" d="M0,0h256v11h-256Z" pointer-events="none" opacity="1"/><g><g class="mark-symbol role-legend-symbol" pointer-events="none"><path transform="translate(6,6)" d="M-5,0L5,0" stroke="#eeca3b" stroke-width="1.5" opacity="1"/></g><g class="mark-text role-legend-label" pointer-events="none"><text text-anchor="start" transform="translate(16,9)" font-family="Liberation Mono" font-size="10px" fill="#000" opacity="1">allure-rs-2-2024</text></g></g><path class="foreground" aria-hidden="true" d="" pointer-events="none" display="none"/></g></g></g><path class="foreground" aria-hidden="true" d="" pointer-events="none" display="none"/></g></g><g class="mark-text role-legend-title" pointer-events="none"><text text-anchor="start" transform="translate(0,9)" font-family="Liberation Mono" font-size="11px" font-weight="bold" fill="#000" opacity="1">identifier</text></g></g><path class="foreground" aria-hidden="true" d="" pointer-events="none" display="none"/></g></g></g><path class="foreground" aria-hidden="true" d="" display="none"/></g></g></g></svg>