<svg xmlns="http://www.w3.org/2000/svg" xmlns:xlink="http://www.w3.org/1999/xlink" version="1.1" class="marks" width="548" height="244" viewBox="0 0 548 244"><rect width="548" height="244" fill="white"/><g fill="none" stroke-miterlimit="10" transform="translate(67,7)"><g class="mark-group role-frame root" role="graphics-object" aria-roledescription="group mark container"><g transform="translate(0,0)"><path class="background" aria-hidden="true" d="M0.5,0.5h200v200h-200Z" stroke="#ddd"/><g><g class="mark-group role-axis" aria-hidden="true"><g transform="translate(0.5,200.5)"><path class="background" aria-hidden="true" d="M0,0h0v0h0Z" pointer-events="none"/><g><g class="mark-rule role-axis-grid" pointer-events="none"><line transform="translate(15,-200)" x2="0" y2="200" stroke="#ddd" stroke-width="1" opacity="1"/><line transform="translate(55,-200)" x2="0" y2="200" stroke="#ddd" stroke-width="1" opacity="1"/><line transform="translate(95,-200)" x2="0" y2="200" stroke="#ddd" stroke-width="1" opacity="1"/><line transform="translate(134,-200)" x2="0" y2="200" stroke="#ddd" stroke-width="1" opacity="1"/><line transform="translate(174,-200)" x2="0" y2="200" stroke="#ddd" stroke-width="1" opacity="1"/></g></g><path class="foreground" aria-hidden="true" d="" pointer-events="none" display="none"/></g></g><g class="mark-group role-axis" aria-hidden="true"><g transform="translate(0.5,0.5)"><path class="background" aria-hidden="true" d="M0,0h0v0h0Z" pointer-events="none"/><g><g class="mark-rule role-axis-grid" pointer-events="none"><line transform="translate(0,200)" x2="200" y2="0" stroke="#ddd" stroke-width="1" opacity="1"/><line transform="translate(0,144)" x2="200" y2="0" stroke="#ddd" stroke-width="1" opacity="1"/><line transform="translate(0,89)" x2="200" y2="0" stroke="#ddd" stroke-width="1" opacity="1"/><line transform="translate(0,33)" x2="200" y2="0" stroke="#ddd" stroke-width="1" opacity="1"/></g></g><path class="foreground" aria-hidden="true" d="" pointer-events="none" display="none"/></g></g><g class="mark-group role-axis" role="graphics-symbol" aria-roledescription="axis" aria-label="X-axis titled 'Time' for a time scale with values from Thursday, 14 August 2025, 8:34:48 AM to Thursday, 18 September 2025, 1:07:45 PM"><g transform="translate(0.5,200.5)"><path class="background" aria-hidden="true" d="M0,0h0v0h0Z" pointer-events="none"/><g><g class="mark-rule role-axis-tick" pointer-events="none"><line transform="translate(15,0)" x2="0" y2="5" stroke="#888" stroke-width="1" opacity="1"/><line transform="translate(55,0)" x2="0" y2="5" stroke="#888" stroke-width="1" opacity="1"/><line transform="translate(95,0)" x2="0" y2="5" stroke="#888" stroke-width="1" opacity="1"/><line transform="translate(134,0)" x2="0" y2="5" stroke="#888" stroke-width="1" opacity="1"/><line transform="translate(174,0)" x2="0" y2="5" stroke="#888" stroke-width="1" opacity="1"/></g><g class="mark-text role-axis-label" pointer-events="none"><text text-anchor="middle" transform="translate(15.01861744858407,15)" font-family="Liberation Mono" font-size="10px" fill="#000" opacity="1">Aug 17</text><text text-anchor="middle" transform="translate(54.80316609358684,15)" font-family="Liberation Mono" font-size="10px" fill="#000" opacity="0">Aug 24</text><text text-anchor="middle" transform="translate(94.58771473858961,15)" font-family="Liberation Mono" font-size="10px" fill="#000" opacity="1">Aug 31</text><text text-anchor="middle" transform="translate(134.37226338359238,15)" font-family="Liberation Mono" font-size="10px" fill="#000" opacity="0">Sep 07</text><text text-anchor="middle" transform="translate(174.15681202859517,15)" font-family="Liberation Mono" font-size="10px" fill="#000" opacity="1">Sep 14</text></g><g class="mark-rule role-axis-domain" pointer-events="none"><line transform="translate(0,0)" x2="200" y2="0" stroke="#888" stroke-width="1" opacity="1"/></g><g class="mark-text role-axis-title" pointer-events="none"><text text-anchor="middle" transform="translate(100,30)" font-family="Liberation Mono" font-size="11px" font-weight="bold" fill="#000" opacity="1">Time</text></g></g><path class="foreground" aria-hidden="true" d="" pointer-events="none" display="none"/></g></g><g class="mark-group role-axis" role="graphics-symbol" aria-roledescription="axis" aria-label="Y-axis titled 'Price' for a linear scale with values from 0 to 1,800"><g transform="translate(0.5,0.5)"><path class="background" aria-hidden="true" d="M0,0h0v0h0Z" pointer-events="none"/><g><g class="mark-rule role-axis-tick" pointer-events="none"><line transform="translate(0,200)" x2="-5" y2="0" stroke="#888" stroke-width="1" opacity="1"/><line transform="translate(0,144)" x2="-5" y2="0" stroke="#888" stroke-width="1" opacity="1"/><line transform="translate(0,89)" x2="-5" y2="0" stroke="#888" stroke-width="1" opacity="1"/><line transform="translate(0,33)" x2="-5" y2="0" stroke="#888" stroke-width="1" opacity="1"/></g><g class="mark-text role-axis-label" pointer-events="none"><text text-anchor="end" transform="translate(-7,203)" font-family="Liberation Mono" font-size="10px" fill="#000" opacity="1">0</text><text text-anchor="end" transform="translate(-7,147.44444444444443)" font-family="Liberation Mono" font-size="10px" fill="#000" opacity="1">500</text><text text-anchor="end" transform="translate(-7,91.88888888888889)" font-family="Liberation Mono" font-size="10px" fill="#000" opacity="1">1,000</text><text text-anchor="end" transform="translate(-7,36.33333333333333)" font-family="Liberation Mono" font-size="10px" fill="#000" opacity="1">1,500</text></g><g class="mark-rule role-axis-domain" pointer-events="none"><line transform="translate(0,200)" x2="0" y2="-200" stroke="#888" stroke-width="1" opacity="1"/></g><g class="mark-text role-axis-title" pointer-events="none"><text text-anchor="middle" transform="translate(-51,100) rotate(-90) translate(0,-2)" font-family="Liberation Mono" font-size="11px" font-weight="bold" fill="#000" opacity="1">Price</text></g></g><path class="foreground" aria-hidden="true" d="" pointer-events="none" display="none"/></g></g><g class="mark-group role-scope pathgroup" role="graphics-object" aria-roledescription="group mark container"><g transform="translate(0,0)"><path class="background" aria-hidden="true" d="M0,0h200v200h-200Z"/><g><g class="mark-line role-mark marks" role="graphics-object" aria-roledescription="line mark container"><path aria-label="Time: Aug 14, 2025; Price: 899; identifier: escape-city-disc-1-2024" role="graphics-symbol" aria-roledescription="line mark" d="M0,100.111L0.047,100.111L0.084,100.111L1.132,100.111L1.965,100.111L2.899,100.111L4.816,100.111L5.758,100.111L6.797,100.111L7.65,100.111L8.579,100.111L10.482,100.111L11.434,100.111L12.443,100.111L13.322,100.111L14.254,100.111L16.187,100.111L17.115,100.111L18.129,100.111L19.01,100.111L19.945,100.111L21.886,100.111L22.82,100.111L23.867,100.111L24.234,100.111L24.711,100.111L25.623,100.111L27.527,100.111L28.489,100.111L29.498,100.111L30.38,100.111L31.304,100.111L33.212,100.111L34.165,100.111L35.216,100.111L35.641,100.111L36.061,100.111L36.994,100.111L38.892,100.111L39.853,100.111L40.867,100.111L41.749,100.111L42.675,100.111L44.577,100.111L45.535,100.111L46.548,100.111L47.426,100.111L48.355,100.111L50.257,100.111L51.209,100.111L52.214,100.111L53.095,100.111L54.033,100.111L55.947,100.111L56.889,100.111L57.9,100.111L58.785,100.111L59.718,100.111L61.639,100.111L62.598,100.111L63.635,100.111L64.483,100.111L65.408,100.111L67.313,100.111L68.278,100.111L70.161,100.111L71.086,100.111L72.989,100.111L73.95,100.111L74.322,100.111L74.962,100.111L75.596,100.111L75.844,100.111L76.774,100.111L78.672,100.111L79.635,100.111L80.648,100.111L81.526,100.111L82.455,100.111L84.356,100.111L85.315,100.111L86.325,100.111L87.208,100.111L88.135,100.111L90.033,100.111L90.985,100.111L91.99,100.111L92.877,100.111L93.771,100.111L93.815,100.111L95.719,100.111L96.326,100.111L96.666,100.111L97.677,100.111L98.564,100.111L99.501,100.111L101.42,100.111L102.376,100.111L103.384,100.111L104.254,100.111L105.183,100.111L107.095,100.111L108.055,100.111L109.071,100.111L109.942,100.111L110.87,100.111L112.771,100.111L113.73,100.111L114.742,100.111L115.622,100.111L116.552,100.111L118.453,100.111L119.416,100.111L120.421,100.111L121.31,100.111L122.234,100.111L124.139,100.111L125.098,100.111L126.107,100.111L126.983,100.111L127.919,100.111L129.816,100.111L130.304,100.111L130.764,100.111L131.767,100.111L132.657,100.111L133.6,100.111L135.498,100.111L136.447,100.111L137.454,100.111L138.341,100.111L139.283,100.111L141.19,100.111L142.157,100.111L143.171,100.111L144.044,100.111L144.975,100.111L146.872,100.111L147.839,100.111L148.886,100.111L149.731,100.111L150.652,100.111L152.548,100.111L153.517,100.111L154.524,100.111L155.406,100.111L156.338,100.111L158.238,100.111L159.198,100.111L160.205,100.111L161.078,100.111L162.017,100.111L163.918,100.111L164.879,100.111L165.886,100.111L166.764,100.111L167.7,100.111L169.598,100.111L170.549,100.111L171.553,100.111L172.437,100.111L173.384,100.111L175.283,100.111L176.233,100.111L177.232,100.111L178.119,100.111L179.067,100.111L180.976,100.111L181.934,100.111L182.949,100.111L183.825,100.111L184.754,100.111L186.655,100.111L187.623,100.111L188.632,100.111L189.506,100.111L190.439,100.111L192.34,100.111L193.301,100.111L194.316,100.111L195.191,100.111L196.121,100.111L198.023,100.111L198.983,100.111L199.997,100.111" stroke="#4c78a8" stroke-width="2"/></g></g><path class="foreground" aria-hidden="true" d="" display="none"/></g><g transform="translate(0,0)"><path class="background" aria-hidden="true" d="M0,0h200v200h-200Z"/><g><g class="mark-line role-mark marks" role="graphics-object" aria-roledescription="line mark container"><path aria-label="Time: Aug 14, 2025; Price: 999; identifier: roam-2" role="graphics-symbol" aria-roledescription="line mark" d="M0,89L0.047,89L0.085,89L1.133,89L1.965,89L2.9,89L4.817,89L5.758,89L6.797,89L7.65,89L8.579,89L10.482,89L11.434,89L12.443,89L13.322,89L14.263,89L16.187,89L17.116,89L18.129,89L19.01,89L19.945,89L21.887,89L22.82,89L23.867,89L24.234,89L24.712,89L25.623,89L27.527,89L28.489,89L29.498,89L30.38,89L31.304,89L33.212,89L34.165,89L35.216,89L35.641,89L36.062,89L36.995,89L38.893,89L39.853,89L40.867,89L41.749,89L42.675,89L44.578,89L45.535,89L46.548,89L47.427,89L48.356,89L50.257,89L51.21,89L52.214,89L53.095,89L54.033,89L55.947,89L56.889,89L57.901,89L58.786,89L59.719,89L61.639,89L62.598,89L63.635,89L64.483,89L65.409,89L67.313,89L68.278,89L70.162,89L71.086,89L72.989,89L73.95,89L74.323,89L74.962,89L75.596,89L75.844,89L76.774,89L78.672,89L79.636,89L80.648,89L81.527,89L82.455,89L84.356,89L85.315,89L86.325,89L87.208,89L88.135,89L90.033,89L90.985,89L91.991,89L92.878,89L93.771,89L93.816,89L95.719,89L96.326,89L96.666,89L97.677,89L98.564,89L99.501,89L101.42,89L102.376,89L103.384,89L104.255,89L105.183,89L107.095,89L108.056,89L109.071,89L109.942,89L110.871,89L112.771,89L113.73,89L114.743,89L115.623,89L116.552,89L118.453,89L119.416,89L120.421,89L121.31,89L122.234,89L124.139,89L125.098,89L126.107,89L126.983,89L127.92,89L129.816,89L130.304,89L130.765,89L131.767,89L132.657,89L133.6,89L135.498,89L136.447,89L137.454,89L138.341,89L139.283,89L141.191,89L142.158,89L143.171,89L144.045,89L144.975,89L146.872,89L147.839,89L148.887,89L149.732,89L150.652,89L152.548,89L153.517,89L154.524,89L155.406,89L156.338,89L158.239,89L159.198,89L160.206,89L161.078,89L162.017,89L163.918,89L164.88,89L165.886,89L166.765,89L167.7,89L169.598,89L170.55,89L171.553,89L172.437,89L173.384,89L175.283,89L176.233,89L177.232,89L178.119,89L179.068,89L180.976,89L181.934,89L182.95,89L183.826,89L184.755,89L186.655,89L187.623,89L188.632,89L189.507,89L190.439,89L192.341,89L193.302,89L194.316,89L195.192,89L196.122,89L198.023,89L198.984,89L199.998,89" stroke="#ff9da6" stroke-width="2"/></g></g><path class="foreground" aria-hidden="true" d="" display="none"/></g><g transform="translate(0,0)"><path class="background" aria-hidden="true" d="M0,0h200v200h-200Z"/><g><g class="mark-line role-mark marks" role="graphics-object" aria-roledescription="line mark container"><path aria-label="Time: Aug 14, 2025; Price: 999; identifier: fastroad-sl-3-2022" role="graphics-symbol" aria-roledescription="line mark" d="M0,89L0.047,89L0.085,89L1.133,89L1.966,89L2.9,89L4.817,89L5.758,89L6.797,89L7.65,89L8.58,89L10.482,89L11.434,89L12.443,89L13.322,89L14.263,89L16.187,89L17.116,89L18.129,89L19.01,89L19.945,89L21.887,89L22.82,89L23.867,89L24.235,89L24.712,89L25.623,89L27.527,89L28.489,89L29.499,89L30.38,89L31.305,89L33.213,89L34.165,89L35.216,89L35.641,89L36.062,89L36.995,89L38.893,89L39.853,89L40.867,89L41.749,89L42.675,89L44.578,89L45.535,89L46.549,89L47.427,89L48.356,89L50.257,89L51.21,89L52.214,89L53.095,89L54.033,89L55.947,89L56.889,89L57.901,89L58.786,89L59.719,89L61.639,89L62.598,89L63.635,89L64.484,89L65.409,89L67.313,89L68.278,89L70.162,89L71.086,89L72.99,89L73.95,89L74.323,89L74.962,89L75.596,89L75.844,89L76.774,89L78.672,89L79.636,89L80.648,89L81.527,89L82.455,89L84.356,89L85.315,89L86.325,89L87.208,89L88.136,89L90.033,89L90.985,89L91.991,89L92.878,89L93.771,89L93.816,89L95.719,89L96.326,89L96.666,89L97.677,89L98.564,89L99.501,89L101.421,89L102.376,89L103.384,89L104.255,89L105.183,89L107.095,89L108.056,89L109.071,89L109.942,89L110.871,89L112.771,89L113.73,89L114.743,89L115.623,89L116.552,89L118.453,89L119.416,89L120.421,89L121.31,89L122.234,89L124.139,89L125.098,89L126.108,89L126.983,89L127.92,89L129.816,89L130.304,89L130.765,89L131.767,89L132.657,89L133.6,89L135.498,89L136.447,89L137.454,89L138.341,89L139.283,89L141.191,89L142.158,89L143.171,89L144.045,89L144.975,89L146.872,89L147.839,89L148.887,89L149.732,89L150.652,89L152.548,89L153.517,89L154.525,89L155.406,89L156.338,89L158.239,89L159.199,89L160.206,89L161.079,89L162.017,89L163.918,89L164.88,89L165.886,89L166.765,89L167.7,89L169.598,89L170.55,89L171.553,89L172.437,89L173.384,89L175.284,89L176.233,89L177.233,89L178.119,89L179.068,89L180.976,89L181.935,89L182.95,89L183.826,89L184.755,89L186.655,89L187.623,89L188.632,89L189.507,89L190.44,89L192.341,89L193.302,89L194.316,89L195.192,89L196.122,89L198.023,89L198.984,89L199.998,89" stroke="#9d755d" stroke-width="2"/></g></g><path class="foreground" aria-hidden="true" d="" display="none"/></g><g transform="translate(0,0)"><path class="background" aria-hidden="true" d="M0,0h200v200h-200Z"/><g><g class="mark-line role-mark marks" role="graphics-object" aria-roledescription="line mark container"><path aria-label="Time: Aug 14, 2025; Price: 1199; identifier: fastroad-ar-2" role="graphics-symbol" aria-roledescription="line mark" d="M0,66.778L0.048,66.778L0.085,66.778L1.133,66.778L1.966,66.778L2.9,66.778L4.817,66.778L5.758,66.778L6.797,66.778L7.65,66.778L8.58,66.778L10.482,66.778L11.434,66.778L12.443,66.778L13.322,66.778L14.268,66.778L16.187,66.778L17.116,66.778L18.129,66.778L19.01,66.778L19.945,66.778L21.887,66.778L22.82,66.778L23.867,66.778L24.235,66.778L24.712,66.778L25.623,66.778L27.527,66.778L28.489,66.778L29.499,66.778L30.38,66.778L31.305,66.778L33.213,66.778L34.165,66.778L35.216,66.778L35.641,66.778L36.062,66.778L36.995,66.778L38.893,66.778L39.853,66.778L40.867,66.778L41.749,66.778L42.675,66.778L44.578,66.778L45.535,66.778L46.549,66.778L47.427,66.778L48.356,66.778L50.257,66.778L51.21,66.778L52.214,66.778L53.095,66.778L54.034,66.778L55.948,66.778L56.89,66.778L57.901,66.778L58.786,66.778L59.719,66.778L61.639,66.778L62.598,66.778L63.635,66.778L64.484,66.778L65.409,66.778L67.314,66.778L68.278,66.778L70.162,66.778L71.087,66.778L72.99,66.778L73.95,66.778L74.323,66.778L74.962,66.778L75.596,66.778L75.844,66.778L76.774,66.778L78.672,66.778L79.636,66.778L80.648,66.778L81.527,66.778L82.455,66.778L84.356,66.778L85.316,66.778L86.325,66.778L87.208,66.778L88.136,66.778L90.033,66.778L90.986,66.778L91.991,66.778L92.878,66.778L93.771,66.778L93.816,66.778L95.719,66.778L96.326,66.778L96.667,66.778L97.677,66.778L98.564,66.778L99.501,66.778L101.421,66.778L102.376,66.778L103.385,66.778L104.255,66.778L105.183,66.778L107.095,66.778L108.056,66.778L109.072,66.778L109.942,66.778L110.871,66.778L112.771,66.778L113.73,66.778L114.743,66.778L115.623,66.778L116.552,66.778L118.453,66.778L119.416,66.778L120.421,66.778L121.31,66.778L122.235,66.778L124.139,66.778L125.098,66.778L126.108,66.778L126.983,66.778L127.92,66.778L129.817,66.778L130.304,66.778L130.765,66.778L131.767,66.778L132.657,66.778L133.6,66.778L135.498,66.778L136.448,66.778L137.454,66.778L138.341,66.778L139.284,66.778L141.192,66.778L142.158,66.778L143.172,66.778L144.045,66.778L144.976,66.778L146.873,66.778L147.839,66.778L148.887,66.778L149.732,66.778L150.653,66.778L152.548,66.778L153.517,66.778L154.525,66.778L155.406,66.778L156.338,66.778L158.239,66.778L159.199,66.778L160.206,66.778L161.079,66.778L162.017,66.778L163.918,66.778L164.88,66.778L165.887,66.778L166.765,66.778L167.7,66.778L169.598,66.778L170.55,66.778L171.553,66.778L172.437,66.778L173.384,66.778L175.284,66.778L176.233,66.778L177.233,66.778L178.119,66.778L179.068,66.778L180.977,66.778L181.935,66.778L182.951,66.778L183.826,66.778L184.756,66.778L186.655,66.778L187.623,66.778L188.633,66.778L189.507,66.778L190.44,66.778L192.341,66.778L193.302,66.778L194.316,66.778L195.192,66.778L196.122,66.778L198.023,66.778L198.984,66.778L199.998,66.778" stroke="#54a24b" stroke-width="2"/></g></g><path class="foreground" aria-hidden="true" d="" display="none"/></g><g transform="translate(0,0)"><path class="background" aria-hidden="true" d="M0,0h200v200h-200Z"/><g><g class="mark-line role-mark marks" role="graphics-object" aria-roledescription="line mark container"><path aria-label="Time: Aug 18, 2025; Price: 899; identifier: sdrbike-escape-1-city-disc" role="graphics-symbol" aria-roledescription="line mark" d="M24.235,100.111L24.712,100.111L25.623,100.111L27.527,100.111L28.489,100.111L29.499,100.111L30.381,100.111L31.305,100.111L33.213,100.111L34.166,100.111L35.216,100.111L35.641,100.111L36.062,100.111L36.995,100.111L38.893,100.111L39.854,100.111L40.868,100.111L41.749,100.111L42.676,100.111L44.578,100.111L45.536,100.111L46.549,100.111L47.427,100.111L48.356,100.111L50.257,100.111L51.21,100.111L52.215,100.111L53.096,100.111L54.034,100.111L55.948,100.111L56.89,100.111L57.902,100.111L58.786,100.111L59.719,100.111L61.639,100.111L62.598,100.111L63.635,100.111L64.484,100.111L65.409,100.111L67.314,100.111L68.278,100.111L70.162,100.111L71.087,100.111L72.99,100.111L73.95,100.111L74.323,100.111L74.963,100.111L75.596,100.111L75.845,100.111L76.774,100.111L78.672,100.111L79.636,100.111L80.649,100.111L81.527,100.111L82.456,100.111L84.356,100.111L85.316,100.111L86.325,100.111L87.208,100.111L88.136,100.111L90.033,100.111L90.986,100.111L91.991,100.111L92.878,100.111L93.772,100.111L93.816,100.111L95.719,100.111L96.326,100.111L96.667,100.111L97.678,100.111L98.565,100.111L99.501,100.111L101.421,100.111L102.376,100.111L103.385,100.111L104.255,100.111L105.184,100.111L107.095,100.111L108.056,100.111L109.072,100.111L109.942,100.111L110.871,100.111L112.771,100.111L113.731,100.111L114.743,100.111L115.623,100.111L116.553,100.111L118.453,100.111L119.416,100.111L120.421,100.111L121.311,100.111L122.235,100.111L124.139,100.111L125.098,100.111L126.108,100.111L126.983,100.111L127.92,100.111L129.817,100.111L130.304,100.111L130.765,100.111L131.768,100.111L132.657,100.111L133.601,100.111L135.498,100.111L136.448,100.111L137.455,100.111L138.341,100.111L139.284,100.111L141.192,100.111L142.158,100.111L143.172,100.111L144.045,100.111L144.976,100.111L146.873,100.111L147.839,100.111L148.887,100.111L149.732,100.111L150.653,100.111L152.548,100.111L153.517,100.111L154.525,100.111L155.407,100.111L156.339,100.111L158.239,100.111L159.199,100.111L160.206,100.111L161.079,100.111L162.017,100.111L163.918,100.111L164.88,100.111L165.887,100.111L166.765,100.111L167.701,100.111L169.598,100.111L170.55,100.111L171.553,100.111L172.438,100.111L173.385,100.111L175.284,100.111L176.234,100.111L177.233,100.111L178.12,100.111L179.068,100.111L180.977,100.111L181.935,100.111L182.951,100.111L183.827,100.111L184.756,100.111L186.655,100.111L187.623,100.111L188.633,100.111L189.507,100.111L190.44,100.111L192.341,100.111L193.302,100.111L194.316,100.111L195.192,100.111L196.122,100.111L198.023,100.111L198.984,100.111L199.998,100.111" stroke="#f58518" stroke-width="2"/></g></g><path class="foreground" aria-hidden="true" d="" display="none"/></g><g transform="translate(0,0)"><path class="background" aria-hidden="true" d="M0,0h200v200h-200Z"/><g><g class="mark-line role-mark marks" role="graphics-object" aria-roledescription="line mark container"><path aria-label="Time: Aug 20, 2025; Price: 899; identifier: roam-disc-2-2024" role="graphics-symbol" aria-roledescription="line mark" d="M35.641,100.111L36.062,100.111L36.994,100.111L38.892,100.111L39.853,100.111L40.867,100.111L41.749,100.111L42.675,100.111L44.577,100.111L45.535,100.111L46.548,100.111L47.426,100.111L48.355,100.111L50.257,100.111L51.209,100.111L52.214,100.111L53.095,100.111L54.033,100.111L55.947,100.111L56.889,100.111L57.901,100.111L58.786,100.111L59.719,100.111L61.639,100.111L62.598,100.111L63.635,100.111L64.483,100.111L65.409,100.111L67.313,100.111L68.278,100.111L70.161,100.111L71.086,100.111L72.989,100.111L73.95,100.111L74.322,100.111L74.962,100.111L75.596,100.111L75.844,100.111L76.774,100.111L78.672,100.111L79.636,100.111L80.648,100.111L81.527,100.111L82.455,100.111L84.356,100.111L85.315,100.111L86.325,100.111L87.208,100.111L88.135,100.111L90.033,100.111L90.985,100.111L91.991,100.111L92.877,100.111L93.771,100.111L93.815,100.111L95.719,100.111L96.326,100.111L96.666,100.111L97.677,100.111L98.564,100.111L99.501,100.111L101.42,100.111L102.376,100.111L103.384,100.111L104.255,100.111L105.183,100.111L107.095,100.111L108.056,100.111L109.071,100.111L109.942,100.111L110.87,100.111L112.771,100.111L113.73,100.111L114.742,100.111L115.623,100.111L116.552,100.111L118.453,100.111L119.416,100.111L120.421,100.111L121.31,100.111L122.234,100.111L124.139,100.111L125.098,100.111L126.107,100.111L126.983,100.111L127.92,100.111L129.816,100.111L130.304,100.111L130.764,100.111L131.767,100.111L132.657,100.111L133.6,100.111L135.498,100.111L136.447,100.111L137.454,100.111L138.341,100.111L139.283,100.111L141.191,100.111L142.157,100.111L143.171,100.111L144.044,100.111L144.975,100.111L146.872,100.111L147.839,100.111L148.887,100.111L149.732,100.111L150.652,100.111L152.548,100.111L153.517,100.111L154.524,100.111L155.406,100.111L156.338,100.111L158.239,100.111L159.198,100.111L160.206,100.111L161.078,100.111L162.017,100.111L163.918,100.111L164.88,100.111L165.886,100.111L166.765,100.111L167.7,100.111L169.598,100.111L170.549,100.111L171.553,100.111L172.437,100.111L173.384,100.111L175.283,100.111L176.233,100.111L177.232,100.111L178.119,100.111L179.068,100.111L180.976,100.111L181.934,100.111L182.95,100.111L183.826,100.111L184.755,100.111L186.655,100.111L187.623,100.111L188.632,100.111L189.507,100.111L190.439,100.111L192.34,100.111L193.301,100.111L194.316,100.111L195.192,100.111L196.122,100.111L198.023,100.111L198.983,100.111L199.997,100.111" stroke="#e45756" stroke-width="2"/></g></g><path class="foreground" aria-hidden="true" d="" display="none"/></g><g transform="translate(0,0)"><path class="background" aria-hidden="true" d="M0,0h200v200h-200Z"/><g><g class="mark-line role-mark marks" role="graphics-object" aria-roledescription="line mark container"><path aria-label="Time: Aug 20, 2025; Price: 1199; identifier: thrive-2" role="graphics-symbol" aria-roledescription="line mark" d="M35.642,66.778L36.062,66.778L36.995,66.778L38.893,66.778L39.854,66.778L40.868,66.778L41.749,66.778L42.676,66.778L44.578,66.778L45.536,66.778L46.549,66.778L47.427,66.778L48.356,66.778L50.258,66.778L51.21,66.778L52.215,66.778L53.096,66.778L54.034,66.778L55.948,66.778L56.89,66.778L57.902,66.778L58.786,66.778L59.719,66.778L61.639,66.778L62.598,66.778L63.635,66.778L64.484,66.778L65.409,66.778L67.314,66.778L68.278,66.778L70.162,66.778L71.087,66.778L72.99,66.778L73.95,66.778L74.324,66.778L74.963,66.778L75.596,66.778L75.845,66.778L76.775,66.778L78.673,66.778L79.636,66.778L80.649,66.778L81.527,66.778L82.456,66.778L84.356,66.778L85.316,66.778L86.325,66.778L87.208,66.778L88.136,66.778L90.033,66.778L90.986,66.778L91.992,66.778L92.878,66.778L93.772,66.778L93.816,66.778L95.719,66.778L96.326,66.778L96.667,66.778L97.678,66.778L98.565,66.778L99.502,66.778L101.421,66.778L102.376,66.778L103.385,66.778L104.255,66.778L105.184,66.778L107.096,66.778L108.056,66.778L109.072,66.778L109.942,66.778L110.871,66.778L112.772,66.778L113.731,66.778L114.743,66.778L115.623,66.778L116.553,66.778L118.454,66.778L119.416,66.778L120.421,66.778L121.311,66.778L122.235,66.778L124.139,66.778L125.098,66.778L126.108,66.778L126.983,66.778L127.92,66.778L129.817,66.778L130.304,66.778L130.765,66.778L131.768,66.778L132.658,66.778L133.601,66.778L135.498,66.778L136.448,66.778L137.455,66.778L138.342,66.778L139.284,66.778L141.192,66.778L142.158,66.778L143.172,66.778L144.045,66.778L144.976,66.778L146.873,66.778L147.84,66.778L148.887,66.778L149.732,66.778L150.653,66.778L152.549,66.778L153.518,66.778L154.525,66.778L155.407,66.778L156.339,66.778L158.239,66.778L159.199,66.778L160.206,66.778L161.079,66.778L162.017,66.778L163.919,66.778L164.88,66.778L165.887,66.778L166.765,66.778L167.701,66.778L169.599,66.778L170.55,66.778L171.554,66.778L172.438,66.778L173.385,66.778L175.284,66.778L176.234,66.778L177.233,66.778L178.12,66.778L179.068,66.778L180.977,66.778L181.935,66.778L182.951,66.778L183.827,66.778L184.756,66.778L186.656,66.778L187.623,66.778L188.633,66.778L189.507,66.778L190.44,66.778L192.341,66.778L193.302,66.778L194.317,66.778L195.192,66.778L196.122,66.778L198.024,66.778L198.984,66.778L199.998,66.778" stroke="#eeca3b" stroke-width="2"/></g></g><path class="foreground" aria-hidden="true" d="" display="none"/></g><g transform="translate(0,0)"><path class="background" aria-hidden="true" d="M0,0h200v200h-200Z"/><g><g class="mark-line role-mark marks" role="graphics-object" aria-roledescription="line mark container"><path aria-label="Time: Aug 20, 2025; Price: 999; identifier: rove-2" role="graphics-symbol" aria-roledescription="line mark" d="M35.642,89L36.063,89L36.996,89L38.893,89L39.854,89L40.868,89L41.75,89L42.676,89L44.578,89L45.536,89L46.549,89L47.427,89L48.356,89L50.258,89L51.21,89L52.215,89L53.096,89L54.034,89L55.948,89L56.89,89L57.902,89L58.786,89L59.719,89L61.64,89L62.599,89L63.636,89L64.484,89L65.409,89L67.314,89L68.279,89L70.162,89L71.087,89L72.99,89L73.95,89L74.324,89L74.963,89L75.597,89L75.845,89L76.775,89L78.673,89L79.636,89L80.649,89L81.527,89L82.456,89L84.357,89L85.316,89L86.326,89L87.208,89L88.136,89L93.772,111.222L93.816,111.222L95.719,111.222L96.326,111.222L96.667,111.222L97.678,111.222L98.565,111.222L99.502,111.222L101.421,111.222L102.376,111.222L103.385,111.222L104.256,111.222L105.184,111.222L107.096,111.222L108.056,111.222L109.072,111.222L109.943,111.222L110.871,111.222L112.772,111.222L113.731,111.222L114.743,111.222L115.623,111.222L116.553,111.222L118.454,111.222L119.417,111.222L120.421,111.222L121.311,111.222L122.235,111.222L124.14,111.222L125.099,111.222L126.108,111.222L126.984,111.222L127.92,111.222L129.817,111.222L130.304,111.222L130.765,111.222L131.768,111.222L132.658,111.222L133.601,111.222L135.499,111.222L136.448,111.222L137.455,111.222L138.342,111.222L139.284,111.222L141.192,111.222L142.159,111.222L143.172,111.222L144.045,111.222L144.976,111.222L146.873,111.222L147.84,111.222L148.888,111.222L149.732,111.222L150.653,111.222L152.549,111.222L153.518,111.222L154.525,111.222L155.407,111.222L156.339,111.222L158.24,111.222L159.199,111.222L160.206,111.222L161.079,111.222L162.018,111.222L163.919,111.222L164.881,111.222L165.887,111.222L166.765,111.222L167.701,111.222L169.599,111.222L170.55,111.222L171.554,111.222L172.438,111.222L173.385,111.222L175.284,111.222L176.234,111.222L177.233,111.222L178.12,111.222L179.068,111.222L180.977,111.222L181.935,111.222L182.951,111.222L183.827,111.222L184.756,111.222L186.656,111.222L187.623,111.222L188.633,111.222L189.508,111.222L190.44,111.222L192.341,111.222L193.302,111.222L194.317,111.222L195.192,111.222L196.123,111.222L198.024,111.222L198.984,111.222L199.998,111.222" stroke="#72b7b2" stroke-width="2"/></g></g><path class="foreground" aria-hidden="true" d="" display="none"/></g><g transform="translate(0,0)"><path class="background" aria-hidden="true" d="M0,0h200v200h-200Z"/><g><g class="mark-line role-mark marks" role="graphics-object" aria-roledescription="line mark container"><path aria-label="Time: Aug 27, 2025; Price: 1199; identifier: allure-rs-1-2023" role="graphics-symbol" aria-roledescription="line mark" d="M74.325,66.778L74.963,66.778L75.597,66.778L75.845,66.778L76.775,66.778L78.673,66.778L79.637,66.778L80.649,66.778L81.527,66.778L82.456,66.778L84.357,66.778L85.316,66.778L86.326,66.778L87.209,66.778L88.136,66.778L90.034,66.778L90.986,66.778L91.992,66.778L92.878,66.778L93.772,66.778L93.816,66.778L95.72,66.778L96.327,66.778L96.667,66.778L97.678,66.778L98.565,66.778L99.502,66.778L101.421,66.778L102.377,66.778L103.385,66.778L104.256,66.778L105.184,66.778L107.096,66.778L108.057,66.778L109.072,66.778L109.943,66.778L110.871,66.778L112.772,66.778L113.731,66.778L114.743,66.778L115.623,66.778L116.553,66.778L118.454,66.778L119.417,66.778L120.422,66.778L121.311,66.778L122.235,66.778L124.14,66.778L125.099,66.778L126.108,66.778L126.984,66.778L127.921,66.778L129.817,66.778L130.304,66.778L130.765,66.778L131.768,66.778L132.658,66.778L133.601,66.778L135.499,66.778L136.448,66.778L137.455,66.778L138.342,66.778L139.284,66.778L141.192,66.778L142.159,66.778L143.172,66.778L144.045,66.778L144.976,66.778L146.873,66.778L147.84,66.778L148.888,66.778L149.733,66.778L150.653,66.778L152.549,66.778L153.518,66.778L154.525,66.778L155.407,66.778L156.339,66.778L158.24,66.778L159.199,66.778L160.206,66.778L161.079,66.778L162.018,66.778L163.919,66.778L164.881,66.778L165.887,66.778L166.765,66.778L167.701,66.778L169.599,66.778L170.55,66.778L171.554,66.778L172.438,66.778L173.385,66.778L175.284,66.778L176.234,66.778L177.233,66.778L178.12,66.778L179.069,66.778L180.977,66.778L181.935,66.778L182.951,66.778L183.827,66.778L184.756,66.778L186.656,66.778L187.624,66.778L188.633,66.778L189.508,66.778L190.44,66.778L192.341,66.778L193.302,66.778L194.317,66.778L195.193,66.778L196.123,66.778L198.024,66.778L198.984,66.778L199.999,66.778" stroke="#b279a2" stroke-width="2"/></g></g><path class="foreground" aria-hidden="true" d="" display="none"/></g><g transform="translate(0,0)"><path class="background" aria-hidden="true" d="M0,0h200v200h-200Z"/><g><g class="mark-line role-mark marks" role="graphics-object" aria-roledescription="line mark container"><path aria-label="Time: Aug 27, 2025; Price: 999; identifier: allure-rs-2-2022" role="graphics-symbol" aria-roledescription="line mark" d="M74.325,89L74.963,89L75.597,89L75.845,89L76.775,89L78.673,89L79.637,89L80.649,89L81.528,89L82.456,89L84.357,89L85.316,89L86.326,89L87.209,89L88.137,89L93.772,111.222L93.816,111.222L95.72,111.222L96.327,111.222L96.667,111.222L97.678,111.222L98.565,111.222L99.502,111.222L101.421,111.222L102.377,111.222L103.385,111.222L104.256,111.222L105.184,111.222L107.096,111.222L108.057,111.222L109.072,111.222L109.943,111.222L110.872,111.222L112.772,111.222L113.731,111.222L114.743,111.222L115.624,111.222L116.553,111.222L118.454,111.222L119.417,111.222L120.422,111.222L121.311,111.222L122.235,111.222L124.14,111.222L125.099,111.222L126.108,111.222L126.984,111.222L127.921,111.222L129.817,111.222L130.305,111.222L130.766,111.222L131.768,111.222L132.658,111.222L133.601,111.222L135.499,111.222L136.448,111.222L137.455,111.222L138.342,111.222L139.284,111.222L141.192,111.222L142.159,111.222L143.172,111.222L144.046,111.222L144.976,111.222L146.873,111.222L147.84,111.222L148.888,111.222L149.733,111.222L150.653,111.222L152.549,111.222L153.518,111.222L154.525,111.222L155.407,111.222L156.339,111.222L158.24,111.222L159.199,111.222L160.207,111.222L161.08,111.222L162.018,111.222L163.919,111.222L164.881,111.222L165.887,111.222L166.766,111.222L167.701,111.222L169.599,111.222L170.55,111.222L171.554,111.222L172.438,111.222L173.385,111.222L175.285,111.222L176.234,111.222L177.233,111.222L178.12,111.222L179.069,111.222L180.977,111.222L181.935,111.222L182.951,111.222L183.827,111.222L184.756,111.222L186.656,111.222L187.624,111.222L188.633,111.222L189.508,111.222L190.44,111.222L192.342,111.222L193.302,111.222L194.317,111.222L195.193,111.222L196.123,111.222L198.024,111.222L198.984,111.222L199.999,111.222" stroke="#54a24b" stroke-width="2"/></g></g><path class="foreground" aria-hidden="true" d="" display="none"/></g><g transform="translate(0,0)"><path class="background" aria-hidden="true" d="M0,0h200v200h-200Z"/><g><g class="mark-line role-mark marks" role="graphics-object" aria-roledescription="line mark container"><path aria-label="Time: Aug 27, 2025; Price: 949; identifier: allure-rs-2-2023" role="graphics-symbol" aria-roledescription="line mark" d="M74.325,94.556L74.963,94.556L75.597,94.556L75.845,94.556L76.775,94.556L78.673,94.556L79.637,94.556L80.649,94.556L81.528,94.556L82.456,94.556L84.357,94.556L85.316,94.556L86.326,94.556L87.209,94.556L88.137,94.556L90.034,94.556L90.986,94.556L91.992,94.556L92.879,94.556L93.772,94.556L93.816,94.556L95.72,94.556L96.327,94.556L96.668,94.556L97.678,94.556L98.565,94.556L99.502,94.556L101.421,94.556L102.377,94.556L103.385,94.556L104.256,94.556L105.184,94.556L107.096,94.556L108.057,94.556L109.073,94.556L109.943,94.556L110.872,94.556L112.772,94.556L113.731,94.556L114.744,94.556L115.624,94.556L116.553,94.556L118.454,94.556L119.417,94.556L120.422,94.556L121.311,94.556L122.236,94.556L124.14,94.556L125.099,94.556L126.108,94.556L126.984,94.556L127.921,94.556L129.817,94.556L130.305,94.556L130.766,94.556L131.768,94.556L132.658,94.556L133.601,94.556L135.499,94.556L136.449,94.556L137.455,94.556L138.342,94.556L139.284,94.556L141.192,94.556L142.159,94.556L143.173,94.556L144.046,94.556L144.976,94.556L146.873,94.556L147.84,94.556L148.888,94.556L149.733,94.556L150.653,94.556L152.549,94.556L153.518,94.556L154.526,94.556L155.407,94.556L156.34,94.556L158.24,94.556L159.199,94.556L160.207,94.556L161.08,94.556L162.018,94.556L163.919,94.556L164.881,94.556L165.888,94.556L166.766,94.556L167.701,94.556L169.599,94.556L170.551,94.556L171.554,94.556L172.438,94.556L173.385,94.556L175.285,94.556L176.234,94.556L177.234,94.556L178.12,94.556L179.069,94.556L180.977,94.556L181.935,94.556L182.951,94.556L183.828,94.556L184.757,94.556L186.656,94.556L187.624,94.556L188.633,94.556L189.508,94.556L190.441,94.556L192.342,94.556L193.303,94.556L194.317,94.556L195.193,94.556L196.123,94.556L198.024,94.556L198.985,94.556L199.999,94.556" stroke="#bab0ac" stroke-width="2"/></g></g><path class="foreground" aria-hidden="true" d="" display="none"/></g><g transform="translate(0,0)"><path class="background" aria-hidden="true" d="M0,0h200v200h-200Z"/><g><g class="mark-line role-mark marks" role="graphics-object" aria-roledescription="line mark container"><path aria-label="Time: Aug 27, 2025; Price: 999; identifier: allure-rs-2-2024" role="graphics-symbol" aria-roledescription="line mark" d="M74.325,89L74.963,89L75.597,89L75.845,89L76.775,89L78.673,89L79.637,89L80.649,89L81.528,89L82.456,89L84.357,89L85.317,89L86.326,89L87.209,89L88.137,89L93.773,111.222L93.817,111.222L95.72,111.222L96.327,111.222L96.668,111.222L97.678,111.222L98.565,111.222L99.502,111.222L101.422,111.222L102.377,111.222L103.386,111.222L104.256,111.222L105.185,111.222L107.096,111.222L108.057,111.222L109.073,111.222L109.943,111.222L110.872,111.222L112.772,111.222L113.731,111.222L114.744,111.222L115.624,111.222L116.553,111.222L118.454,111.222L119.417,111.222L120.422,111.222L121.312,111.222L122.236,111.222L124.14,111.222L125.099,111.222L126.109,111.222L126.984,111.222L127.921,111.222L129.817,111.222L130.305,111.222L130.766,111.222L131.768,111.222L132.658,111.222L133.601,111.222L135.499,111.222L136.449,111.222L137.455,111.222L138.342,111.222L139.284,111.222L141.193,111.222L142.159,111.222L143.173,111.222L144.046,111.222L144.976,111.222L146.874,111.222L147.84,111.222L148.888,111.222L149.733,111.222L150.653,111.222L152.549,111.222L153.518,111.222L154.526,111.222L155.407,111.222L156.34,111.222L158.24,111.222L159.2,111.222L160.207,111.222L161.08,111.222L162.018,111.222L163.919,111.222L164.881,111.222L165.888,111.222L166.766,111.222L167.701,111.222L169.599,111.222L170.551,111.222L171.554,111.222L172.438,111.222L173.385,111.222L175.285,111.222L176.234,111.222L177.234,111.222L178.12,111.222L179.069,111.222L180.978,111.222L181.936,111.222L182.952,111.222L183.828,111.222L184.757,111.222L186.656,111.222L187.624,111.222L188.633,111.222L189.508,111.222L190.441,111.222L192.342,111.222L193.303,111.222L194.317,111.222L195.193,111.222L196.123,111.222L198.024,111.222L198.985,111.222L199.999,111.222" stroke="#eeca3b" stroke-width="2"/></g></g><path class="foreground" aria-hidden="true" d="" display="none"/></g><g transform="translate(0,0)"><path class="background" aria-hidden="true" d="M0,0h200v200h-200Z"/><g><g class="mark-line role-mark marks" role="graphics-object" aria-roledescription="line mark container"><path aria-label="Time: Aug 27, 2025; Price: 1799; identifier: devote-1-2024" role="graphics-symbol" aria-roledescription="line mark" d="M75.597,0.111L75.845,0.111L76.775,0.111L78.673,0.111L79.637,0.111L80.649,0.111L81.528,0.111L82.456,0.111L84.357,0.111L85.317,0.111L86.326,0.111L87.209,0.111L88.137,0.111L93.773,44.556L93.817,44.556L95.72,44.556L96.327,44.556L96.668,44.556L97.679,44.556L98.565,44.556L99.502,44.556L101.422,44.556L102.377,44.556L103.386,44.556L104.256,44.556L105.185,44.556L107.096,44.556L108.057,44.556L109.073,44.556L109.943,44.556L110.872,44.556L112.772,44.556L113.731,44.556L114.744,44.556L115.624,44.556L116.553,44.556L118.454,44.556L119.417,44.556L120.422,44.556L121.312,44.556L122.236,44.556L124.14,44.556L125.099,44.556L126.109,44.556L126.984,44.556L127.921,44.556L129.818,44.556L130.305,44.556L130.766,44.556L131.769,44.556L132.658,44.556L133.601,44.556L135.499,44.556L136.449,44.556L137.456,44.556L138.342,44.556L139.285,44.556L141.193,44.556L142.159,44.556L143.173,44.556L144.046,44.556L144.977,44.556L146.874,44.556L147.84,44.556L148.888,44.556L149.733,44.556L150.654,44.556L152.549,44.556L153.518,44.556L154.526,44.556L155.408,44.556L156.34,44.556L158.24,44.556L159.2,44.556L160.207,44.556L161.08,44.556L162.018,44.556L163.919,44.556L164.881,44.556L165.888,44.556L166.766,44.556L167.701,44.556L169.599,44.556L170.551,44.556L171.554,44.556L172.439,44.556L173.386,44.556L175.285,44.556L176.235,44.556L177.234,44.556L178.12,44.556L179.069,44.556L180.978,44.556L181.936,44.556L182.952,44.556L183.829,44.556L184.758,44.556L186.656,44.556L187.624,44.556L188.634,44.556L189.508,44.556L190.441,44.556L192.342,44.556L193.303,44.556L194.317,44.556L195.193,44.556L196.123,44.556L198.024,44.556L198.985,44.556L199.999,44.556" stroke="#72b7b2" stroke-width="2"/></g></g><path class="foreground" aria-hidden="true" d="" display="none"/></g><g transform="translate(0,0)"><path class="background" aria-hidden="true" d="M0,0h200v200h-200Z"/><g><g class="mark-line role-mark marks" role="graphics-object" aria-roledescription="line mark container"><path aria-label="Time: Aug 27, 2025; Price: 1699; identifier: devote-1-2022" role="graphics-symbol" aria-roledescription="line mark" d="M75.597,11.222L75.845,11.222L76.776,11.222L78.674,11.222L79.637,11.222L80.65,11.222L81.528,11.222L82.456,11.222L84.357,11.222L85.317,11.222L86.326,11.222L87.209,11.222L88.137,11.222L90.034,11.222L90.987,11.222L91.993,11.222L92.879,11.222L93.773,11.222L93.817,11.222L95.72,11.222L96.327,11.222L96.668,11.222L97.679,11.222L98.565,11.222L99.502,11.222L101.422,11.222L102.377,11.222L103.386,11.222L104.256,11.222L105.185,11.222L107.096,11.222L108.057,11.222L109.073,11.222L109.943,11.222L110.872,11.222L112.772,11.222L113.731,11.222L114.744,11.222L115.624,11.222L116.553,11.222L118.455,11.222L119.417,11.222L120.422,11.222L121.312,11.222L122.236,11.222L124.14,11.222L125.099,11.222L126.109,11.222L126.984,11.222L127.921,11.222L129.818,11.222L130.305,11.222L130.766,11.222L131.769,11.222L132.658,11.222L133.601,11.222L135.499,11.222L136.449,11.222L137.456,11.222L138.342,11.222L139.285,11.222L141.193,11.222L142.159,11.222L143.173,11.222L144.046,11.222L144.977,11.222L146.874,11.222L147.84,11.222L148.889,11.222L149.733,11.222L150.654,11.222L152.549,11.222L153.519,11.222L154.526,11.222L155.408,11.222L156.34,11.222L158.241,11.222L159.2,11.222L160.207,11.222L161.08,11.222L162.018,11.222L163.919,11.222L164.881,11.222L165.888,11.222L166.766,11.222L167.702,11.222L169.599,11.222L170.551,11.222L171.555,11.222L172.439,11.222L173.386,11.222L175.285,11.222L176.235,11.222L177.234,11.222L178.12,11.222L179.069,11.222L180.978,11.222L181.936,11.222L182.952,11.222L183.829,11.222L184.759,11.222L186.657,11.222L187.624,11.222L188.634,11.222L189.508,11.222L190.441,11.222L192.342,11.222L193.303,11.222L194.317,11.222L195.193,11.222L196.123,11.222L198.025,11.222L198.985,11.222L199.999,11.222" stroke="#4c78a8" stroke-width="2"/></g></g><path class="foreground" aria-hidden="true" d="" display="none"/></g><g transform="translate(0,0)"><path class="background" aria-hidden="true" d="M0,0h200v200h-200Z"/><g><g class="mark-line role-mark marks" role="graphics-object" aria-roledescription="line mark container"><path aria-label="Time: Aug 31, 2025; Price: 1599; identifier: silex-400-oak-bork-2026" role="graphics-symbol" aria-roledescription="line mark" d="M96.327,22.333L96.668,22.333L97.679,22.333L98.566,22.333L99.503,22.333L101.422,22.333L102.377,22.333L103.386,22.333L104.257,22.333L105.185,22.333L107.097,22.333L108.057,22.333L109.073,22.333L109.943,22.333L110.873,22.333L112.773,22.333L113.732,22.333L114.744,22.333L115.624,22.333L116.554,22.333L118.455,22.333L119.418,22.333L120.422,22.333L121.312,22.333L122.236,22.333L124.14,22.333L125.099,22.333L126.109,22.333L126.985,22.333L127.921,22.333L129.818,22.333L130.305,22.333L130.766,22.333L131.769,22.333L132.659,22.333L133.602,22.333L135.5,22.333L136.449,22.333L137.456,22.333L138.343,22.333L139.285,22.333L141.193,22.333L142.16,22.333L143.173,22.333L144.046,22.333L144.977,22.333L146.874,22.333L147.841,22.333L148.889,22.333L149.734,22.333L150.654,22.333L152.55,22.333L153.519,22.333L154.526,22.333L155.408,22.333L156.34,22.333L158.241,22.333L159.2,22.333L160.207,22.333L161.08,22.333L162.019,22.333L163.92,22.333L164.882,22.333L165.889,22.333L166.766,22.333L167.702,22.333L169.6,22.333L170.551,22.333L171.555,22.333L172.439,22.333L173.386,22.333L175.285,22.333L176.235,22.333L177.234,22.333L178.121,22.333L179.069,22.333L180.978,22.333L181.936,22.333L182.952,22.333L183.829,22.333L184.759,22.333L186.657,22.333L187.624,22.333L188.634,22.333L189.509,22.333L190.441,22.333L192.342,22.333L193.303,22.333L194.318,22.333L195.194,22.333L196.124,22.333L198.025,22.333L198.985,22.333L200,22.333" stroke="#f58518" stroke-width="2"/></g></g><path class="foreground" aria-hidden="true" d="" display="none"/></g><g transform="translate(0,0)"><path class="background" aria-hidden="true" d="M0,0h200v200h-200Z"/><g><g class="mark-line role-mark marks" role="graphics-object" aria-roledescription="line mark container"><path aria-label="Time: Aug 31, 2025; Price: 1599; identifier: silex-400-warm-slate-grey-2026" role="graphics-symbol" aria-roledescription="line mark" d="M96.327,22.333L96.668,22.333L97.679,22.333L98.566,22.333L99.503,22.333L101.422,22.333L102.378,22.333L103.386,22.333L104.257,22.333L105.185,22.333L107.097,22.333L108.058,22.333L109.074,22.333L109.944,22.333L110.873,22.333L112.773,22.333L113.732,22.333L114.744,22.333L115.624,22.333L116.554,22.333L118.455,22.333L119.418,22.333L120.423,22.333L121.312,22.333L122.236,22.333L124.141,22.333L125.1,22.333L126.109,22.333L126.985,22.333L127.922,22.333L129.818,22.333L130.305,22.333L130.767,22.333L131.769,22.333L132.659,22.333L133.602,22.333L135.5,22.333L136.449,22.333L137.456,22.333L138.343,22.333L139.285,22.333L141.193,22.333L142.16,22.333L143.173,22.333L144.046,22.333L144.977,22.333L146.874,22.333L147.841,22.333L148.889,22.333L149.734,22.333L150.654,22.333L152.55,22.333L153.519,22.333L154.527,22.333L155.408,22.333L156.341,22.333L158.241,22.333L159.2,22.333L160.208,22.333L161.081,22.333L162.019,22.333L163.92,22.333L164.882,22.333L165.889,22.333L166.766,22.333L167.702,22.333L169.6,22.333L170.551,22.333L171.555,22.333L172.439,22.333L173.386,22.333L175.286,22.333L176.235,22.333L177.234,22.333L178.121,22.333L179.07,22.333L180.978,22.333L181.936,22.333L182.953,22.333L183.829,22.333L184.759,22.333L186.657,22.333L187.625,22.333L188.634,22.333L189.509,22.333L190.441,22.333L192.343,22.333L193.303,22.333L194.318,22.333L195.194,22.333L196.124,22.333L198.025,22.333L198.985,22.333L200,22.333" stroke="#e45756" stroke-width="2"/></g></g><path class="foreground" aria-hidden="true" d="" display="none"/></g></g><g class="mark-group role-legend" role="graphics-symbol" aria-roledescription="legend" aria-label="Symbol legend titled 'identifier' for stroke color with 16 values: devote-1-2022, silex-400-oak-bork-2026, silex-400-warm-slate-grey-2026, devote-1-2024, fastroad-ar-2, ending with allure-rs-2-2024"><g transform="translate(220,0)"><path class="background" aria-hidden="true" d="M0,0h256v222h-256Z" pointer-events="none"/><g><g class="mark-group role-legend-entry"><g transform="translate(0,16)"><path class="background" aria-hidden="true" d="M0,0h0v0h0Z" pointer-events="none"/><g><g class="mark-group role-scope" role="graphics-object" aria-roledescription="group mark container"><g transform="translate(0,0)"><path class="background" aria-hidden="true" d="M0,0h256v11h-256Z" pointer-events="none" opacity="1"/><g><g class="mark-symbol role-legend-symbol" pointer-events="none"><path transform="translate(6,6)" d="M-5,0L5,0" stroke="#4c78a8" stroke-width="1.5" opacity="1"/></g><g class="mark-text role-legend-label" pointer-events="none"><text text-anchor="start" transform="translate(16,9)" font-family="Liberation Mono" font-size="10px" fill="#000" opacity="1">devote-1-2022</text></g></g><path class="foreground" aria-hidden="true" d="" pointer-events="none" display="none"/></g><g transform="translate(0,13)"><path class="background" aria-hidden="true" d="M0,0h256v11h-256Z" pointer-events="none" opacity="1"/><g><g class="mark-symbol role-legend-symbol" pointer-events="none"><path transform="translate(6,6)" d="M-5,0L5,0" stroke="#f58518" stroke-width="1.5" opacity="1"/></g><g class="mark-text role-legend-label" pointer-events="none"><text text-anchor="start" transform="translate(16,9)" font-family="Liberation Mono" font-size="10px" fill="#000" opacity="1">silex-400-oak-bork-2026</text></g></g><path class="foreground" aria-hidden="true" d="" pointer-events="none" display="none"/></g><g transform="translate(0,26)"><path class="background" aria-hidden="true" d="M0,0h256v11h-256Z" pointer-events="none" opacity="1"/><g><g class="mark-symbol role-legend-symbol" pointer-events="none"><path transform="translate(6,6)" d="M-5,0L5,0" stroke="#e45756" stroke-width="1.5" opacity="1"/></g><g class="mark-text role-legend-label" pointer-events="none"><text text-anchor="start" transform="translate(16,9)" font-family="Liberation Mono" font-size="10px" fill="#000" opacity="1">silex-400-warm-slate-grey-2026</text></g></g><path class="foreground" aria-hidden="true" d="" pointer-events="none" display="none"/></g><g transform="translate(0,39)"><path class="background" aria-hidden="true" d="M0,0h256v11h-256Z" pointer-events="none" opacity="1"/><g><g class="mark-symbol role-legend-symbol" pointer-events="none"><path transform="translate(6,6)" d="M-5,0L5,0" stroke="#72b7b2" stroke-width="1.5" opacity="1"/></g><g class="mark-text role-legend-label" pointer-events="none"><text text-anchor="start" transform="translate(16,9)" font-family="Liberation Mono" font-size="10px" fill="#000" opacity="1">devote-1-2024</text></g></g><path class="foreground" aria-hidden="true" d="" pointer-events="none" display="none"/></g><g transform="translate(0,52)"><path class="background" aria-hidden="true" d="M0,0h256v11h-256Z" pointer-events="none" opacity="1"/><g><g class="mark-symbol role-legend-symbol" pointer-events="none"><path transform="translate(6,6)" d="M-5,0L5,0" stroke="#54a24b" stroke-width="1.5" opacity="1"/></g><g class="mark-text role-legend-label" pointer-events="none"><text text-anchor="start" transform="translate(16,9)" font-family="Liberation Mono" font-size="10px" fill="#000" opacity="1">fastroad-ar-2</text></g></g><path class="foreground" aria-hidden="true" d="" pointer-events="none" display="none"/></g><g transform="translate(0,65)"><path class="background" aria-hidden="true" d="M0,0h256v11h-256Z" pointer-events="none" opacity="1"/><g><g class="mark-symbol role-legend-symbol" pointer-events="none"><path transform="translate(6,6)" d="M-5,0L5,0" stroke="#eeca3b" stroke-width="1.5" opacity="1"/></g><g class="mark-text role-legend-label" pointer-events="none"><text text-anchor="start" transform="translate(16,9)" font-family="Liberation Mono" font-size="10px" fill="#000" opacity="1">thrive-2</text></g></g><path class="foreground" aria-hidden="true" d="" pointer-events="none" display="none"/></g><g transform="translate(0,78)"><path class="background" aria-hidden="true" d="M0,0h256v11h-256Z" pointer-events="none" opacity="1"/><g><g class="mark-symbol role-legend-symbol" pointer-events="none"><path transform="translate(6,6)" d="M-5,0L5,0" stroke="#b279a2" stroke-width="1.5" opacity="1"/></g><g class="mark-text role-legend-label" pointer-events="none"><text text-anchor="start" transform="translate(16,9)" font-family="Liberation Mono" font-size="10px" fill="#000" opacity="1">allure-rs-1-2023</text></g></g><path class="foreground" aria-hidden="true" d="" pointer-events="none" display="none"/></g><g transform="translate(0,91)"><path class="background" aria-hidden="true" d="M0,0h256v11h-256Z" pointer-events="none" opacity="1"/><g><g class="mark-symbol role-legend-symbol" pointer-events="none"><path transform="translate(6,6)" d="M-5,0L5,0" stroke="#ff9da6" stroke-width="1.5" opacity="1"/></g><g class="mark-text role-legend-label" pointer-events="none"><text text-anchor="start" transform="translate(16,9)" font-family="Liberation Mono" font-size="10px" fill="#000" opacity="1">roam-2</text></g></g><path class="foreground" aria-hidden="true" d="" pointer-events="none" display="none"/></g><g transform="translate(0,104)"><path class="background" aria-hidden="true" d="M0,0h256v11h-256Z" pointer-events="none" opacity="1"/><g><g class="mark-symbol role-legend-symbol" pointer-events="none"><path transform="translate(6,6)" d="M-5,0L5,0" stroke="#9d755d" stroke-width="1.5" opacity="1"/></g><g class="mark-text role-legend-label" pointer-events="none"><text text-anchor="start" transform="translate(16,9)" font-family="Liberation Mono" font-size="10px" fill="#000" opacity="1">fastroad-sl-3-2022</text></g></g><path class="foreground" aria-hidden="true" d="" pointer-events="none" display="none"/></g><g transform="translate(0,117)"><path class="background" aria-hidden="true" d="M0,0h256v11h-256Z" pointer-events="none" opacity="1"/><g><g class="mark-symbol role-legend-symbol" pointer-events="none"><path transform="translate(6,6)" d="M-5,0L5,0" stroke="#bab0ac" stroke-width="1.5" opacity="1"/></g><g class="mark-text role-legend-label" pointer-events="none"><text text-anchor="start" transform="translate(16,9)" font-family="Liberation Mono" font-size="10px" fill="#000" opacity="1">allure-rs-2-2023</text></g></g><path class="foreground" aria-hidden="true" d="" pointer-events="none" display="none"/></g><g transform="translate(0,130)"><path class="background" aria-hidden="true" d="M0,0h256v11h-256Z" pointer-events="none" opacity="1"/><g><g class="mark-symbol role-legend-symbol" pointer-events="none"><path transform="translate(6,6)" d="M-5,0L5,0" stroke="#4c78a8" stroke-width="1.5" opacity="1"/></g><g class="mark-text role-legend-label" pointer-events="none"><text text-anchor="start" transform="translate(16,9)" font-family="Liberation Mono" font-size="10px" fill="#000" opacity="1">escape-city-disc-1-2024</text></g></g><path class="foreground" aria-hidden="true" d="" pointer-events="none" display="none"/></g><g transform="translate(0,143)"><path class="background" aria-hidden="true" d="M0,0h256v11h-256Z" pointer-events="none" opacity="1"/><g><g class="mark-symbol role-legend-symbol" pointer-events="none"><path transform="translate(6,6)" d="M-5,0L5,0" stroke="#f58518" stroke-width="1.5" opacity="1"/></g><g class="mark-text role-legend-label" pointer-events="none"><text text-anchor="start" transform="translate(16,9)" font-family="Liberation Mono" font-size="10px" fill="#000" opacity="1">sdrbike-escape-1-city-disc</text></g></g><path class="foreground" aria-hidden="true" d="" pointer-events="none" display="none"/></g><g transform="translate(0,156)"><path class="background" aria-hidden="true" d="M0,0h256v11h-256Z" pointer-events="none" opacity="1"/><g><g class="mark-symbol role-legend-symbol" pointer-events="none"><path transform="translate(6,6)" d="M-5,0L5,0" stroke="#e45756" stroke-width="1.5" opacity="1"/></g><g class="mark-text role-legend-label" pointer-events="none"><text text-anchor="start" transform="translate(16,9)" font-family="Liberation Mono" font-size="10px" fill="#000" opacity="1">roam-disc-2-2024</text></g></g><path class="foreground" aria-hidden="true" d="" pointer-events="none" display="none"/></g><g transform="translate(0,169)"><path class="background" aria-hidden="true" d="M0,0h256v11h-256Z" pointer-events="none" opacity="1"/><g><g class="mark-symbol role-legend-symbol" pointer-events="none"><path transform="translate(6,6)" d="M-5,0L5,0" stroke="#72b7b2" stroke-width="1.5" opacity="1"/></g><g class="mark-text role-legend-label" pointer-events="none"><text text-anchor="start" transform="translate(16,9)" font-family="Liberation Mono" font-size="10px" fill="#000" opacity="1">rove-2</text></g></g><path class="foreground" aria-hidden="true" d="" pointer-events="none" display="none"/></g><g transform="translate(0,182)"><path class="background" aria-hidden="true" d="M0,0h256v11h-256Z" pointer-events="none" opacity="1"/><g><g class="mark-symbol role-legend-symbol" pointer-events="none"><path transform="translate(6,6)" d="M-5,0L5,0" stroke="#54a24b" stroke-width="1.5" opacity="1"/></g><g class="mark-text role-legend-label" pointer-events="none"><text text-anchor="start" transform="translate(16,9)" font-family="Liberation Mono" font-size="10px" fill="#000" opacity="1">allure-rs-2-2022</text></g></g><path class="foreground" aria-hidden="true" d="" pointer-events="none" display="none"/></g><g transform="translate(0,195)"><path class="background" aria-hidden="true" d="M0,0h256v11h-256Z" pointer-events="none" opacity="1"/><g><g class="mark-symbol role-legend-symbol" pointer-events="none"><path transform="translate(6,6)" d="M-5,0L5,0" stroke="#eeca3b" stroke-width="1.5" opacity="1"/></g><g class="mark-text role-legend-label" pointer-events="none"><text text-anchor="start" transform="translate(16,9)" font-family="Liberation Mono" font-size="10px" fill="#000" opacity="1">allure-rs-2-2024</text></g></g><path class="foreground" aria-hidden="true" d="" pointer-events="none" display="none"/></g></g></g><path class="foreground" aria-hidden="true" d="" pointer-events="none" display="none"/></g></g><g class="mark-text role-legend-title" pointer-events="none"><text text-anchor="start" transform="translate(0,9)" font-family="Liberation Mono" font-size="11px" font-weight="bold" fill="#000" opacity="1">identifier</text></g></g><path class="foreground" aria-hidden="true" d="" pointer-events="none" display="none"/></g></g></g><path class="foreground" aria-hidden="true" d="" display="none"/></g></g></g></svg>