<svg xmlns="http://www.w3.org/2000/svg" xmlns:xlink="http://www.w3.org/1999/xlink" version="1.1" class="marks" width="548" height="244" viewBox="0 0 548 244"><rect width="548" height="244" fill="white"/><g fill="none" stroke-miterlimit="10" transform="translate(67,7)"><g class="mark-group role-frame root" role="graphics-object" aria-roledescription="group mark container"><g transform="translate(0,0)"><path class="background" aria-hidden="true" d="M0.5,0.5h200v200h-200Z" stroke="#ddd"/><g><g class="mark-group role-axis" aria-hidden="true"><g transform="translate(0.5,200.5)"><path class="background" aria-hidden="true" d="M0,0h0v0h0Z" pointer-events="none"/><g><g class="mark-rule role-axis-grid" pointer-events="none"><line transform="translate(8,-200)" x2="0" y2="200" stroke="#ddd" stroke-width="1" opacity="1"/><line transform="translate(29,-200)" x2="0" y2="200" stroke="#ddd" stroke-width="1" opacity="1"/><line transform="translate(50,-200)" x2="0" y2="200" stroke="#ddd" stroke-width="1" opacity="1"/><line transform="translate(70,-200)" x2="0" y2="200" stroke="#ddd" stroke-width="1" opacity="1"/><line transform="translate(91,-200)" x2="0" y2="200" stroke="#ddd" stroke-width="1" opacity="1"/><line transform="translate(112,-200)" x2="0" y2="200" stroke="#ddd" stroke-width="1" opacity="1"/><line transform="translate(133,-200)" x2="0" y2="200" stroke="#ddd" stroke-width="1" opacity="1"/><line transform="translate(154,-200)" x2="0" y2="200" stroke="#ddd" stroke-width="1" opacity="1"/><line transform="translate(175,-200)" x2="0" y2="200" stroke="#ddd" stroke-width="1" opacity="1"/><line transform="translate(195,-200)" x2="0" y2="200" stroke="#ddd" stroke-width="1" opacity="1"/></g></g><path class="foreground" aria-hidden="true" d="" pointer-events="none" display="none"/></g></g><g class="mark-group role-axis" aria-hidden="true"><g transform="translate(0.5,0.5)"><path class="background" aria-hidden="true" d="M0,0h0v0h0Z" pointer-events="none"/><g><g class="mark-rule role-axis-grid" pointer-events="none"><line transform="translate(0,200)" x2="200" y2="0" stroke="#ddd" stroke-width="1" opacity="1"/><line transform="translate(0,144)" x2="200" y2="0" stroke="#ddd" stroke-width="1" opacity="1"/><line transform="translate(0,89)" x2="200" y2="0" stroke="#ddd" stroke-width="1" opacity="1"/><line transform="translate(0,33)" x2="200" y2="0" stroke="#ddd" stroke-width="1" opacity="1"/></g></g><path class="foreground" aria-hidden="true" d="" pointer-events="none" display="none"/></g></g><g class="mark-group role-axis" role="graphics-symbol" aria-roledescription="axis" aria-label="X-axis titled 'Time' for a time scale with values from Thursday, 14 August 2025, 8:34:48 AM to Monday, 20 October 2025, 1:09:39 PM"><g transform="translate(0.5,200.5)"><path class="background" aria-hidden="true" d="M0,0h0v0h0Z" pointer-events="none"/><g><g class="mark-rule role-axis-tick" pointer-events="none"><line transform="translate(8,0)" x2="0" y2="5" stroke="#888" stroke-width="1" opacity="1"/><line transform="translate(29,0)" x2="0" y2="5" stroke="#888" stroke-width="1" opacity="1"/><line transform="translate(50,0)" x2="0" y2="5" stroke="#888" stroke-width="1" opacity="1"/><line transform="translate(70,0)" x2="0" y2="5" stroke="#888" stroke-width="1" opacity="1"/><line transform="translate(91,0)" x2="0" y2="5" stroke="#888" stroke-width="1" opacity="1"/><line transform="translate(112,0)" x2="0" y2="5" stroke="#888" stroke-width="1" opacity="1"/><line transform="translate(133,0)" x2="0" y2="5" stroke="#888" stroke-width="1" opacity="1"/><line transform="translate(154,0)" x2="0" y2="5" stroke="#888" stroke-width="1" opacity="1"/><line transform="translate(175,0)" x2="0" y2="5" stroke="#888" stroke-width="1" opacity="1"/><line transform="translate(195,0)" x2="0" y2="5" stroke="#888" stroke-width="1" opacity="1"/></g><g class="mark-text role-axis-label" pointer-events="none"><text text-anchor="middle" transform="translate(7.865626123443886,15)" font-family="Liberation Mono" font-size="10px" fill="#000" opacity="1">Aug 17</text><text text-anchor="middle" transform="translate(28.701790717346665,15)" font-family="Liberation Mono" font-size="10px" fill="#000" opacity="0">Aug 24</text><text text-anchor="middle" transform="translate(49.53795531124944,15)" font-family="Liberation Mono" font-size="10px" fill="#000" opacity="0">Aug 31</text><text text-anchor="middle" transform="translate(70.37411990515223,15)" font-family="Liberation Mono" font-size="10px" fill="#000" opacity="0">Sep 07</text><text text-anchor="middle" transform="translate(91.21028449905499,15)" font-family="Liberation Mono" font-size="10px" fill="#000" opacity="1">Sep 14</text><text text-anchor="middle" transform="translate(112.04644909295777,15)" font-family="Liberation Mono" font-size="10px" fill="#000" opacity="0">Sep 21</text><text text-anchor="middle" transform="translate(132.88261368686057,15)" font-family="Liberation Mono" font-size="10px" fill="#000" opacity="0">Sep 28</text><text text-anchor="middle" transform="translate(153.71877828076333,15)" font-family="Liberation Mono" font-size="10px" fill="#000" opacity="0">Oct 05</text><text text-anchor="middle" transform="translate(174.5549428746661,15)" font-family="Liberation Mono" font-size="10px" fill="#000" opacity="1">Oct 12</text><text text-anchor="middle" transform="translate(195.3911074685689,15)" font-family="Liberation Mono" font-size="10px" fill="#000" opacity="0">Oct 19</text></g><g class="mark-rule role-axis-domain" pointer-events="none"><line transform="translate(0,0)" x2="200" y2="0" stroke="#888" stroke-width="1" opacity="1"/></g><g class="mark-text role-axis-title" pointer-events="none"><text text-anchor="middle" transform="translate(100,30)" font-family="Liberation Mono" font-size="11px" font-weight="bold" fill="#000" opacity="1">Time</text></g></g><path class="foreground" aria-hidden="true" d="" pointer-events="none" display="none"/></g></g><g class="mark-group role-axis" role="graphics-symbol" aria-roledescription="axis" aria-label="Y-axis titled 'Price' for a linear scale with values from 0 to 1,800"><g transform="translate(0.5,0.5)"><path class="background" aria-hidden="true" d="M0,0h0v0h0Z" pointer-events="none"/><g><g class="mark-rule role-axis-tick" pointer-events="none"><line transform="translate(0,200)" x2="-5" y2="0" stroke="#888" stroke-width="1" opacity="1"/><line transform="translate(0,144)" x2="-5" y2="0" stroke="#888" stroke-width="1" opacity="1"/><line transform="translate(0,89)" x2="-5" y2="0" stroke="#888" stroke-width="1" opacity="1"/><line transform="translate(0,33)" x2="-5" y2="0" stroke="#888" stroke-width="1" opacity="1"/></g><g class="mark-text role-axis-label" pointer-events="none"><text text-anchor="end" transform="translate(-7,203)" font-family="Liberation Mono" font-size="10px" fill="#000" opacity="1">0</text><text text-anchor="end" transform="translate(-7,147.44444444444443)" font-family="Liberation Mono" font-size="10px" fill="#000" opacity="1">500</text><text text-anchor="end" transform="translate(-7,91.88888888888889)" font-family="Liberation Mono" font-size="10px" fill="#000" opacity="1">1,000</text><text text-anchor="end" transform="translate(-7,36.33333333333333)" font-family="Liberation Mono" font-size="10px" fill="#000" opacity="1">1,500</text></g><g class="mark-rule role-axis-domain" pointer-events="none"><line transform="translate(0,200)" x2="0" y2="-200" stroke="#888" stroke-width="1" opacity="1"/></g><g class="mark-text role-axis-title" pointer-events="none"><text text-anchor="middle" transform="translate(-51,100) rotate(-90) translate(0,-2)" font-family="Liberation Mono" font-size="11px" font-weight="bold" fill="#000" opacity="1">Price</text></g></g><path class="foreground" aria-hidden="true" d="" pointer-events="none" display="none"/></g></g><g class="mark-group role-scope pathgroup" role="graphics-object" aria-roledescription="group mark container"><g transform="translate(0,0)"><path class="background" aria-hidden="true" d="M0,0h200v200h-200Z"/><g><g class="mark-line role-mark marks" role="graphics-object" aria-roledescription="line mark container"><path aria-label="Time: Aug 14, 2025; Price: 899; identifier: escape-city-disc-1-2024" role="graphics-symbol" aria-roledescription="line mark" d="M0,100.111L0.025,100.111L0.044,100.111L0.593,100.111L1.029,100.111L1.519,100.111L2.522,100.111L3.015,100.111L3.56,100.111L4.006,100.111L4.493,100.111L5.49,100.111L5.988,100.111L6.517,100.111L6.977,100.111L7.465,100.111L8.477,100.111L8.964,100.111L9.495,100.111L9.956,100.111L10.446,100.111L11.462,100.111L11.951,100.111L12.5,100.111L12.692,100.111L12.942,100.111L13.419,100.111L14.417,100.111L14.92,100.111L15.449,100.111L15.911,100.111L16.395,100.111L17.394,100.111L17.893,100.111L18.443,100.111L18.666,100.111L18.886,100.111L19.375,100.111L20.369,100.111L20.872,100.111L21.403,100.111L21.865,100.111L22.35,100.111L23.346,100.111L23.848,100.111L24.378,100.111L24.838,100.111L25.325,100.111L26.321,100.111L26.82,100.111L27.346,100.111L27.807,100.111L28.298,100.111L29.301,100.111L29.794,100.111L30.324,100.111L30.787,100.111L31.276,100.111L32.282,100.111L32.784,100.111L33.327,100.111L33.771,100.111L34.256,100.111L35.253,100.111L35.759,100.111L36.745,100.111L37.23,100.111L38.226,100.111L38.729,100.111L38.924,100.111L39.259,100.111L39.591,100.111L39.721,100.111L40.208,100.111L41.202,100.111L41.707,100.111L42.237,100.111L42.697,100.111L43.184,100.111L44.179,100.111L44.682,100.111L45.21,100.111L45.673,100.111L46.159,100.111L47.152,100.111L47.651,100.111L48.178,100.111L48.642,100.111L49.11,100.111L49.133,100.111L50.13,100.111L50.448,100.111L50.626,100.111L51.156,100.111L51.62,100.111L52.111,100.111L53.116,100.111L53.617,100.111L54.145,100.111L54.601,100.111L55.087,100.111L56.088,100.111L56.591,100.111L57.123,100.111L57.579,100.111L58.066,100.111L59.061,100.111L59.563,100.111L60.093,100.111L60.554,100.111L61.041,100.111L62.037,100.111L62.541,100.111L63.067,100.111L63.533,100.111L64.017,100.111L65.015,100.111L65.517,100.111L66.045,100.111L66.504,100.111L66.995,100.111L67.988,100.111L68.243,100.111L68.485,100.111L69.01,100.111L69.476,100.111L69.97,100.111L70.964,100.111L71.461,100.111L71.988,100.111L72.453,100.111L72.946,100.111L73.945,100.111L74.451,100.111L74.982,100.111L75.44,100.111L75.927,100.111L76.921,100.111L77.427,100.111L77.976,100.111L78.418,100.111L78.9,100.111L79.893,100.111L80.4,100.111L80.928,100.111L81.39,100.111L81.878,100.111L82.873,100.111L83.376,100.111L83.904,100.111L84.361,100.111L84.852,100.111L85.848,100.111L86.351,100.111L86.879,100.111L87.339,100.111L87.829,100.111L88.823,100.111L89.321,100.111L89.846,100.111L90.31,100.111L90.805,100.111L91.8,100.111L92.298,100.111L92.821,100.111L93.285,100.111L93.782,100.111L94.782,100.111L95.283,100.111L95.815,100.111L96.274,100.111L96.76,100.111L97.756,100.111L98.263,100.111L98.791,100.111L99.249,100.111L99.738,100.111L100.733,100.111L101.237,100.111L101.768,100.111L102.227,100.111L102.714,100.111L103.709,100.111L104.213,100.111L104.744,100.111L105.201,100.111L105.691,100.111L106.686,100.111L107.189,100.111L107.719,100.111L108.18,100.111L108.665,100.111L109.661,100.111L110.16,100.111L110.687,100.111L111.147,100.111L111.641,100.111L112.638,100.111L113.134,100.111L113.662,100.111L114.126,100.111L114.619,100.111L115.617,100.111L116.123,100.111L116.653,100.111L117.105,100.111L117.598,100.111L118.592,100.111L119.097,100.111L119.627,100.111L120.088,100.111L120.575,100.111L121.57,100.111L122.075,100.111L122.604,100.111L123.067,100.111L123.549,100.111L124.546,100.111L125.053,100.111L125.583,100.111L126.043,100.111L126.525,100.111L127.522,100.111L128.028,100.111L128.556,100.111L129.016,100.111L129.502,100.111L130.498,100.111L130.994,100.111L131.521,100.111L131.985,100.111L132.479,100.111L133.474,100.111L133.971,100.111L134.499,100.111L134.959,100.111L135.454,100.111L136.454,100.111L136.961,100.111L137.491,100.111L137.936,100.111L138.433,100.111L139.429,100.111L139.938,100.111L140.467,100.111L140.923,100.111L141.41,100.111L142.407,100.111L142.912,100.111L143.444,100.111L143.901,100.111L144.387,100.111L145.38,100.111L145.884,100.111L146.413,100.111L146.877,100.111L147.362,100.111L148.356,100.111L148.861,100.111L149.388,100.111L149.852,100.111L150.338,100.111L151.332,100.111L151.831,100.111L152.356,100.111L152.821,100.111L153.314,100.111L154.307,100.111L154.806,100.111L155.334,100.111L155.798,100.111L156.291,100.111L157.288,100.111L157.793,100.111L158.324,100.111L158.784,100.111L159.271,100.111L160.264,100.111L160.769,100.111L161.302,100.111L161.76,100.111L162.246,100.111L163.242,100.111L163.748,100.111L164.279,100.111L164.737,100.111L165.223,100.111L166.22,100.111L166.725,100.111L167.257,100.111L167.718,100.111L168.2,100.111L169.195,100.111L169.699,100.111L170.229,100.111L170.689,100.111L171.176,100.111L172.169,100.111L172.667,100.111L173.193,100.111L173.655,100.111L174.15,100.111L175.146,100.111L175.643,100.111L176.17,100.111L176.635,100.111L177.127,100.111L178.129,100.111L178.635,100.111L179.163,100.111L179.618,100.111L180.105,100.111L181.101,100.111L181.606,100.111L182.155,100.111L182.597,100.111L183.084,100.111L184.079,100.111L184.588,100.111L185.135,100.111L185.572,100.111L186.062,100.111L187.055,100.111L187.564,100.111L188.109,100.111L188.552,100.111L189.037,100.111L190.032,100.111L190.537,100.111L191.067,100.111L191.526,100.111L192.012,100.111L193.005,100.111L193.507,100.111L194.032,100.111L194.495,100.111L194.987,100.111L195.986,100.111L196.48,100.111L197.009,100.111L197.472,100.111L197.964,100.111L198.963,100.111L199.481,100.111L199.999,100.111" stroke="#4c78a8" stroke-width="2"/></g></g><path class="foreground" aria-hidden="true" d="" display="none"/></g><g transform="translate(0,0)"><path class="background" aria-hidden="true" d="M0,0h200v200h-200Z"/><g><g class="mark-line role-mark marks" role="graphics-object" aria-roledescription="line mark container"><path aria-label="Time: Aug 14, 2025; Price: 999; identifier: roam-2" role="graphics-symbol" aria-roledescription="line mark" d="M0,89L0.025,89L0.044,89L0.593,89L1.029,89L1.519,89L2.523,89L3.015,89L3.56,89L4.006,89L4.493,89L5.49,89L5.988,89L6.517,89L6.977,89L7.47,89L8.478,89L8.964,89L9.495,89L9.956,89L10.446,89L11.463,89L11.951,89L12.5,89L12.692,89L12.942,89L13.419,89L14.417,89L14.92,89L15.449,89L15.911,89L16.395,89L17.394,89L17.893,89L18.443,89L18.666,89L18.886,89L19.375,89L20.369,89L20.872,89L21.403,89L21.865,89L22.35,89L23.346,89L23.848,89L24.379,89L24.839,89L25.325,89L26.321,89L26.82,89L27.346,89L27.807,89L28.299,89L29.301,89L29.794,89L30.324,89L30.788,89L31.276,89L32.282,89L32.784,89L33.327,89L33.772,89L34.256,89L35.253,89L35.759,89L36.745,89L37.23,89L38.226,89L38.729,89L38.925,89L39.26,89L39.591,89L39.721,89L40.208,89L41.202,89L41.707,89L42.237,89L42.698,89L43.184,89L44.179,89L44.682,89L45.21,89L45.673,89L46.159,89L47.153,89L47.651,89L48.178,89L48.642,89L49.11,89L49.134,89L50.13,89L50.448,89L50.627,89L51.156,89L51.621,89L52.111,89L53.116,89L53.617,89L54.145,89L54.601,89L55.087,89L56.088,89L56.592,89L57.123,89L57.579,89L58.066,89L59.061,89L59.563,89L60.094,89L60.554,89L61.041,89L62.037,89L62.541,89L63.067,89L63.533,89L64.017,89L65.015,89L65.517,89L66.046,89L66.504,89L66.995,89L67.988,89L68.243,89L68.485,89L69.01,89L69.476,89L69.97,89L70.964,89L71.461,89L71.988,89L72.453,89L72.946,89L73.945,89L74.452,89L74.982,89L75.44,89L75.927,89L76.921,89L77.427,89L77.976,89L78.418,89L78.9,89L79.893,89L80.401,89L80.928,89L81.39,89L81.878,89L82.874,89L83.376,89L83.904,89L84.361,89L84.852,89L85.848,89L86.352,89L86.879,89L87.339,89L87.829,89L88.823,89L89.321,89L89.847,89L90.31,89L90.806,89L91.8,89L92.298,89L92.821,89L93.285,89L93.782,89L94.782,89L95.284,89L95.816,89L96.274,89L96.761,89L97.756,89L98.263,89L98.791,89L99.249,89L99.738,89L100.734,89L101.237,89L101.768,89L102.227,89L102.714,89L103.71,89L104.213,89L104.744,89L105.202,89L105.691,89L106.686,89L107.189,89L107.719,89L108.18,89L108.666,89L109.661,89L110.16,89L110.687,89L111.147,89L111.641,89L112.638,89L113.134,89L113.662,89L114.126,89L114.619,89L115.617,89L116.123,89L116.653,89L117.105,89L117.599,89L118.592,89L119.097,89L119.627,89L120.088,89L120.575,89L121.57,89L122.075,89L122.604,89L123.067,89L123.549,89L124.547,89L125.053,89L125.583,89L126.043,89L126.525,89L127.522,89L128.028,89L128.557,89L129.017,89L129.502,89L130.498,89L130.994,89L131.521,89L131.985,89L132.479,89L133.475,89L133.971,89L134.499,89L134.96,89L135.455,89L136.454,89L136.961,89L137.491,89L137.936,89L138.433,89L139.429,89L139.938,89L140.467,89L140.923,89L141.41,89L142.408,89L142.913,89L143.444,89L143.901,89L144.387,89L145.38,89L145.884,89L146.413,89L146.877,89L147.362,89L148.356,89L148.861,89L149.388,89L149.852,89L150.338,89L151.332,89L151.831,89L152.356,89L152.822,89L153.314,89L154.307,89L154.806,89L155.334,89L155.798,89L156.291,89L157.288,89L157.794,89L158.325,89L158.784,89L159.271,89L160.264,89L160.769,89L161.302,89L161.76,89L162.247,89L163.242,89L163.748,89L164.279,89L164.737,89L165.223,89L166.22,89L166.725,89L167.257,89L167.718,89L168.201,89L169.195,89L169.699,89L170.229,89L170.689,89L171.176,89L172.169,89L172.667,89L173.193,89L173.655,89L174.151,89L175.146,89L175.644,89L176.17,89L176.635,89L177.127,89L178.129,89L178.636,89L179.163,89L179.619,89L180.105,89L181.101,89L181.606,89L182.156,89L182.597,89L183.085,89L184.079,89L184.588,89L185.135,89L185.573,89L186.062,89L187.055,89L187.564,89L188.109,89L188.552,89L189.037,89L190.032,89L190.537,89L191.067,89L191.526,89L192.013,89L193.005,89L193.507,89L194.032,89L194.495,89L194.987,89L195.986,89L196.48,89L197.009,89L197.472,89L197.964,89L198.963,89L199.481,89L199.999,89" stroke="#ff9da6" stroke-width="2"/></g></g><path class="foreground" aria-hidden="true" d="" display="none"/></g><g transform="translate(0,0)"><path class="background" aria-hidden="true" d="M0,0h200v200h-200Z"/><g><g class="mark-line role-mark marks" role="graphics-object" aria-roledescription="line mark container"><path aria-label="Time: Aug 14, 2025; Price: 999; identifier: fastroad-sl-3-2022" role="graphics-symbol" aria-roledescription="line mark" d="M0,89L0.025,89L0.044,89L0.593,89L1.029,89L1.519,89L2.523,89L3.016,89L3.56,89L4.006,89L4.493,89L5.49,89L5.988,89L6.517,89L6.977,89L7.47,89L8.478,89L8.964,89L9.495,89L9.956,89L10.446,89L11.463,89L11.951,89L12.5,89L12.692,89L12.942,89L13.419,89L14.417,89L14.92,89L15.449,89L15.911,89L16.395,89L17.394,89L17.893,89L18.444,89L18.666,89L18.887,89L19.375,89L20.369,89L20.872,89L21.403,89L21.865,89L22.35,89L23.346,89L23.848,89L24.379,89L24.839,89L25.325,89L26.321,89L26.82,89L27.346,89L27.807,89L28.299,89L29.301,89L29.794,89L30.324,89L30.788,89L31.276,89L32.282,89L32.784,89L33.327,89L33.772,89L34.256,89L35.254,89L35.759,89L36.745,89L37.23,89L38.226,89L38.729,89L38.925,89L39.26,89L39.592,89L39.722,89L40.208,89L41.203,89L41.707,89L42.237,89L42.698,89L43.184,89L44.179,89L44.682,89L45.211,89L45.673,89L46.159,89L47.153,89L47.651,89L48.178,89L48.642,89L49.11,89L49.134,89L50.13,89L50.448,89L50.627,89L51.156,89L51.621,89L52.111,89L53.116,89L53.617,89L54.145,89L54.601,89L55.087,89L56.088,89L56.592,89L57.123,89L57.579,89L58.066,89L59.061,89L59.563,89L60.094,89L60.555,89L61.041,89L62.037,89L62.541,89L63.067,89L63.533,89L64.017,89L65.015,89L65.517,89L66.046,89L66.504,89L66.995,89L67.988,89L68.243,89L68.485,89L69.01,89L69.476,89L69.97,89L70.964,89L71.461,89L71.988,89L72.453,89L72.946,89L73.946,89L74.452,89L74.982,89L75.44,89L75.927,89L76.921,89L77.427,89L77.976,89L78.418,89L78.9,89L79.893,89L80.401,89L80.928,89L81.39,89L81.878,89L82.874,89L83.376,89L83.904,89L84.361,89L84.852,89L85.848,89L86.352,89L86.879,89L87.339,89L87.829,89L88.823,89L89.321,89L89.847,89L90.31,89L90.806,89L91.8,89L92.298,89L92.821,89L93.286,89L93.782,89L94.782,89L95.284,89L95.816,89L96.274,89L96.761,89L97.756,89L98.263,89L98.792,89L99.249,89L99.738,89L100.734,89L101.237,89L101.768,89L102.227,89L102.714,89L103.71,89L104.213,89L104.744,89L105.202,89L105.691,89L106.686,89L107.189,89L107.719,89L108.18,89L108.666,89L109.661,89L110.161,89L110.687,89L111.147,89L111.641,89L112.638,89L113.135,89L113.663,89L114.127,89L114.619,89L115.617,89L116.123,89L116.653,89L117.105,89L117.599,89L118.592,89L119.098,89L119.627,89L120.088,89L120.575,89L121.57,89L122.075,89L122.605,89L123.067,89L123.549,89L124.547,89L125.053,89L125.584,89L126.043,89L126.525,89L127.522,89L128.028,89L128.557,89L129.017,89L129.502,89L130.498,89L130.994,89L131.521,89L131.985,89L132.479,89L133.475,89L133.971,89L134.499,89L134.96,89L135.455,89L136.454,89L136.961,89L137.491,89L137.936,89L138.433,89L139.429,89L139.939,89L140.467,89L140.923,89L141.41,89L142.408,89L142.913,89L143.444,89L143.901,89L144.387,89L145.381,89L145.884,89L146.413,89L146.877,89L147.362,89L148.356,89L148.861,89L149.388,89L149.852,89L150.338,89L151.332,89L151.831,89L152.357,89L152.822,89L153.314,89L154.307,89L154.806,89L155.334,89L155.798,89L156.291,89L157.288,89L157.794,89L158.325,89L158.784,89L159.271,89L160.264,89L160.769,89L161.302,89L161.76,89L162.247,89L163.242,89L163.748,89L164.279,89L164.737,89L165.223,89L166.22,89L166.725,89L167.257,89L167.718,89L168.201,89L169.195,89L169.699,89L170.229,89L170.689,89L171.177,89L172.169,89L172.667,89L173.193,89L173.656,89L174.151,89L175.146,89L175.644,89L176.17,89L176.635,89L177.127,89L178.129,89L178.636,89L179.163,89L179.62,89L180.106,89L181.101,89L181.606,89L182.156,89L182.597,89L183.085,89L184.079,89L184.588,89L185.135,89L185.573,89L186.063,89L187.055,89L187.565,89L188.109,89L188.552,89L189.037,89L190.032,89L190.537,89L191.067,89L191.526,89L192.013,89L193.005,89L193.507,89L194.032,89L194.495,89L194.987,89L195.986,89L196.48,89L197.01,89L197.472,89L197.964,89L198.963,89L199.481,89L199.999,89" stroke="#9d755d" stroke-width="2"/></g></g><path class="foreground" aria-hidden="true" d="" display="none"/></g><g transform="translate(0,0)"><path class="background" aria-hidden="true" d="M0,0h200v200h-200Z"/><g><g class="mark-line role-mark marks" role="graphics-object" aria-roledescription="line mark container"><path aria-label="Time: Aug 14, 2025; Price: 1199; identifier: fastroad-ar-2" role="graphics-symbol" aria-roledescription="line mark" d="M0,66.778L0.025,66.778L0.044,66.778L0.593,66.778L1.029,66.778L1.519,66.778L2.523,66.778L3.016,66.778L3.56,66.778L4.006,66.778L4.493,66.778L5.49,66.778L5.988,66.778L6.517,66.778L6.977,66.778L7.472,66.778L8.478,66.778L8.964,66.778L9.495,66.778L9.956,66.778L10.446,66.778L11.463,66.778L11.952,66.778L12.5,66.778L12.692,66.778L12.942,66.778L13.42,66.778L14.417,66.778L14.921,66.778L15.449,66.778L15.911,66.778L16.395,66.778L17.394,66.778L17.893,66.778L18.444,66.778L18.666,66.778L18.887,66.778L19.375,66.778L20.369,66.778L20.872,66.778L21.403,66.778L21.865,66.778L22.35,66.778L23.347,66.778L23.848,66.778L24.379,66.778L24.839,66.778L25.325,66.778L26.321,66.778L26.82,66.778L27.346,66.778L27.807,66.778L28.299,66.778L29.301,66.778L29.795,66.778L30.324,66.778L30.788,66.778L31.276,66.778L32.282,66.778L32.784,66.778L33.327,66.778L33.772,66.778L34.256,66.778L35.254,66.778L35.759,66.778L36.745,66.778L37.23,66.778L38.227,66.778L38.73,66.778L38.925,66.778L39.26,66.778L39.592,66.778L39.722,66.778L40.209,66.778L41.203,66.778L41.707,66.778L42.238,66.778L42.698,66.778L43.184,66.778L44.179,66.778L44.682,66.778L45.211,66.778L45.673,66.778L46.159,66.778L47.153,66.778L47.651,66.778L48.178,66.778L48.642,66.778L49.11,66.778L49.134,66.778L50.13,66.778L50.448,66.778L50.627,66.778L51.156,66.778L51.621,66.778L52.111,66.778L53.117,66.778L53.617,66.778L54.145,66.778L54.601,66.778L55.087,66.778L56.088,66.778L56.592,66.778L57.124,66.778L57.579,66.778L58.066,66.778L59.061,66.778L59.563,66.778L60.094,66.778L60.555,66.778L61.041,66.778L62.037,66.778L62.541,66.778L63.068,66.778L63.533,66.778L64.017,66.778L65.015,66.778L65.517,66.778L66.046,66.778L66.504,66.778L66.995,66.778L67.988,66.778L68.243,66.778L68.485,66.778L69.01,66.778L69.476,66.778L69.97,66.778L70.964,66.778L71.461,66.778L71.988,66.778L72.453,66.778L72.946,66.778L73.946,66.778L74.452,66.778L74.983,66.778L75.44,66.778L75.927,66.778L76.921,66.778L77.427,66.778L77.976,66.778L78.418,66.778L78.9,66.778L79.893,66.778L80.401,66.778L80.928,66.778L81.39,66.778L81.878,66.778L82.874,66.778L83.376,66.778L83.904,66.778L84.361,66.778L84.852,66.778L85.848,66.778L86.352,66.778L86.879,66.778L87.339,66.778L87.829,66.778L88.823,66.778L89.321,66.778L89.847,66.778L90.31,66.778L90.806,66.778L91.8,66.778L92.298,66.778L92.821,66.778L93.286,66.778L93.782,66.778L94.782,66.778L95.284,66.778L95.816,66.778L96.274,66.778L96.761,66.778L97.756,66.778L98.263,66.778L98.792,66.778L99.25,66.778L99.738,66.778L100.734,66.778L101.237,66.778L101.768,66.778L102.227,66.778L102.714,66.778L103.71,66.778L104.213,66.778L104.744,66.778L105.202,66.778L105.691,66.778L106.687,66.778L107.189,66.778L107.719,66.778L108.18,66.778L108.666,66.778L109.661,66.778L110.161,66.778L110.687,66.778L111.147,66.778L111.641,66.778L112.638,66.778L113.135,66.778L113.663,66.778L114.127,66.778L114.619,66.778L115.617,66.778L116.124,66.778L116.653,66.778L117.105,66.778L117.599,66.778L118.592,66.778L119.098,66.778L119.627,66.778L120.089,66.778L120.575,66.778L121.57,66.778L122.075,66.778L122.605,66.778L123.067,66.778L123.549,66.778L124.547,66.778L125.053,66.778L125.584,66.778L126.043,66.778L126.525,66.778L127.522,66.778L128.028,66.778L128.557,66.778L129.017,66.778L129.502,66.778L130.498,66.778L130.994,66.778L131.521,66.778L131.985,66.778L132.479,66.778L133.475,66.778L133.971,66.778L134.499,66.778L134.96,66.778L135.455,66.778L136.454,66.778L136.961,66.778L137.491,66.778L137.936,66.778L138.433,66.778L139.429,66.778L139.939,66.778L140.467,66.778L140.923,66.778L141.41,66.778L142.408,66.778L142.913,66.778L143.444,66.778L143.901,66.778L144.387,66.778L145.381,66.778L145.884,66.778L146.413,66.778L146.877,66.778L147.362,66.778L148.356,66.778L148.861,66.778L149.388,66.778L149.852,66.778L150.338,66.778L151.332,66.778L151.831,66.778L152.357,66.778L152.822,66.778L153.314,66.778L154.307,66.778L154.806,66.778L155.334,66.778L155.798,66.778L156.292,66.778L157.288,66.778L157.794,66.778L158.325,66.778L158.784,66.778L159.271,66.778L160.264,66.778L160.769,66.778L161.302,66.778L161.76,66.778L162.247,66.778L163.242,66.778L163.748,66.778L164.279,66.778L164.737,66.778L165.224,66.778L166.22,66.778L166.725,66.778L167.257,66.778L167.718,66.778L168.201,66.778L169.195,66.778L169.699,66.778L170.229,66.778L170.689,66.778L171.177,66.778L172.169,66.778L172.667,66.778L173.193,66.778L173.656,66.778L174.151,66.778L175.146,66.778L175.644,66.778L176.17,66.778L176.635,66.778L177.127,66.778L178.129,66.778L178.636,66.778L179.163,66.778L179.62,66.778L180.106,66.778L181.101,66.778L181.606,66.778L182.156,66.778L182.597,66.778L183.085,66.778L184.079,66.778L184.588,66.778L185.135,66.778L185.573,66.778L186.063,66.778L187.055,66.778L187.565,66.778L188.109,66.778L188.552,66.778L189.037,66.778L190.032,66.778L190.537,66.778L191.067,66.778L191.526,66.778L192.013,66.778L193.006,66.778L193.507,66.778L194.032,66.778L194.496,66.778L194.987,66.778L195.986,66.778L196.48,66.778L197.01,66.778L197.473,66.778L197.964,66.778L198.964,66.778L199.481,66.778L199.999,66.778" stroke="#54a24b" stroke-width="2"/></g></g><path class="foreground" aria-hidden="true" d="" display="none"/></g><g transform="translate(0,0)"><path class="background" aria-hidden="true" d="M0,0h200v200h-200Z"/><g><g class="mark-line role-mark marks" role="graphics-object" aria-roledescription="line mark container"><path aria-label="Time: Aug 18, 2025; Price: 899; identifier: sdrbike-escape-1-city-disc" role="graphics-symbol" aria-roledescription="line mark" d="M12.692,100.111L12.942,100.111L13.42,100.111L14.417,100.111L14.921,100.111L15.449,100.111L15.911,100.111L16.395,100.111L17.394,100.111L17.893,100.111L18.444,100.111L18.666,100.111L18.887,100.111L19.375,100.111L20.369,100.111L20.872,100.111L21.403,100.111L21.865,100.111L22.35,100.111L23.347,100.111L23.848,100.111L24.379,100.111L24.839,100.111L25.325,100.111L26.321,100.111L26.82,100.111L27.346,100.111L27.807,100.111L28.299,100.111L29.301,100.111L29.795,100.111L30.324,100.111L30.788,100.111L31.276,100.111L32.282,100.111L32.784,100.111L33.327,100.111L33.772,100.111L34.256,100.111L35.254,100.111L35.759,100.111L36.746,100.111L37.23,100.111L38.227,100.111L38.73,100.111L38.925,100.111L39.26,100.111L39.592,100.111L39.722,100.111L40.209,100.111L41.203,100.111L41.707,100.111L42.238,100.111L42.698,100.111L43.184,100.111L44.179,100.111L44.682,100.111L45.211,100.111L45.673,100.111L46.159,100.111L47.153,100.111L47.652,100.111L48.178,100.111L48.643,100.111L49.111,100.111L49.134,100.111L50.131,100.111L50.448,100.111L50.627,100.111L51.156,100.111L51.621,100.111L52.111,100.111L53.117,100.111L53.617,100.111L54.145,100.111L54.601,100.111L55.087,100.111L56.089,100.111L56.592,100.111L57.124,100.111L57.58,100.111L58.066,100.111L59.061,100.111L59.564,100.111L60.094,100.111L60.555,100.111L61.041,100.111L62.037,100.111L62.541,100.111L63.068,100.111L63.533,100.111L64.017,100.111L65.015,100.111L65.517,100.111L66.046,100.111L66.504,100.111L66.995,100.111L67.988,100.111L68.244,100.111L68.485,100.111L69.01,100.111L69.476,100.111L69.97,100.111L70.964,100.111L71.461,100.111L71.988,100.111L72.453,100.111L72.946,100.111L73.946,100.111L74.452,100.111L74.983,100.111L75.44,100.111L75.927,100.111L76.921,100.111L77.427,100.111L77.976,100.111L78.418,100.111L78.901,100.111L79.893,100.111L80.401,100.111L80.929,100.111L81.39,100.111L81.878,100.111L82.874,100.111L83.376,100.111L83.904,100.111L84.361,100.111L84.853,100.111L85.848,100.111L86.352,100.111L86.879,100.111L87.339,100.111L87.829,100.111L88.823,100.111L89.321,100.111L89.847,100.111L90.31,100.111L90.806,100.111L91.801,100.111L92.298,100.111L92.821,100.111L93.286,100.111L93.782,100.111L94.782,100.111L95.284,100.111L95.816,100.111L96.275,100.111L96.761,100.111L97.756,100.111L98.263,100.111L98.792,100.111L99.25,100.111L99.738,100.111L100.734,100.111L101.237,100.111L101.768,100.111L102.227,100.111L102.714,100.111L103.71,100.111L104.213,100.111L104.744,100.111L105.202,100.111L105.691,100.111L106.687,100.111L107.189,100.111L107.719,100.111L108.18,100.111L108.666,100.111L109.661,100.111L110.161,100.111L110.687,100.111L111.148,100.111L111.642,100.111L112.639,100.111L113.135,100.111L113.663,100.111L114.127,100.111L114.62,100.111L115.617,100.111L116.124,100.111L116.653,100.111L117.105,100.111L117.599,100.111L118.593,100.111L119.098,100.111L119.627,100.111L120.089,100.111L120.575,100.111L121.57,100.111L122.075,100.111L122.605,100.111L123.067,100.111L123.549,100.111L124.547,100.111L125.053,100.111L125.584,100.111L126.043,100.111L126.525,100.111L127.522,100.111L128.028,100.111L128.557,100.111L129.017,100.111L129.502,100.111L130.498,100.111L130.994,100.111L131.521,100.111L131.985,100.111L132.479,100.111L133.475,100.111L133.971,100.111L134.499,100.111L134.96,100.111L135.455,100.111L136.454,100.111L136.961,100.111L137.491,100.111L137.936,100.111L138.433,100.111L139.43,100.111L139.939,100.111L140.467,100.111L140.923,100.111L141.41,100.111L142.408,100.111L142.913,100.111L143.444,100.111L143.901,100.111L144.387,100.111L145.381,100.111L145.885,100.111L146.413,100.111L146.877,100.111L147.362,100.111L148.356,100.111L148.861,100.111L149.388,100.111L149.852,100.111L150.338,100.111L151.332,100.111L151.831,100.111L152.357,100.111L152.822,100.111L153.314,100.111L154.307,100.111L154.806,100.111L155.334,100.111L155.798,100.111L156.292,100.111L157.288,100.111L157.794,100.111L158.325,100.111L158.784,100.111L159.271,100.111L160.264,100.111L160.769,100.111L161.302,100.111L161.76,100.111L162.247,100.111L163.242,100.111L163.749,100.111L164.279,100.111L164.737,100.111L165.224,100.111L166.22,100.111L166.725,100.111L167.257,100.111L167.718,100.111L168.201,100.111L169.195,100.111L169.7,100.111L170.229,100.111L170.689,100.111L171.177,100.111L172.169,100.111L172.667,100.111L173.193,100.111L173.656,100.111L174.151,100.111L175.146,100.111L175.644,100.111L176.171,100.111L176.635,100.111L177.127,100.111L178.129,100.111L178.636,100.111L179.164,100.111L179.621,100.111L180.106,100.111L181.101,100.111L181.606,100.111L182.156,100.111L182.597,100.111L183.085,100.111L184.079,100.111L184.588,100.111L185.136,100.111L185.573,100.111L186.063,100.111L187.056,100.111L187.565,100.111L188.109,100.111L188.552,100.111L189.037,100.111L190.032,100.111L190.537,100.111L191.067,100.111L191.526,100.111L192.013,100.111L193.006,100.111L193.507,100.111L194.032,100.111L194.496,100.111L194.987,100.111L195.986,100.111L196.48,100.111L197.01,100.111L197.473,100.111L197.964,100.111L198.964,100.111L199.481,100.111L199.999,100.111" stroke="#f58518" stroke-width="2"/></g></g><path class="foreground" aria-hidden="true" d="" display="none"/></g><g transform="translate(0,0)"><path class="background" aria-hidden="true" d="M0,0h200v200h-200Z"/><g><g class="mark-line role-mark marks" role="graphics-object" aria-roledescription="line mark container"><path aria-label="Time: Aug 20, 2025; Price: 899; identifier: roam-disc-2-2024" role="graphics-symbol" aria-roledescription="line mark" d="M18.666,100.111L18.886,100.111L19.375,100.111L20.369,100.111L20.872,100.111L21.403,100.111L21.865,100.111L22.35,100.111L23.346,100.111L23.848,100.111L24.379,100.111L24.838,100.111L25.325,100.111L26.321,100.111L26.82,100.111L27.346,100.111L27.807,100.111L28.299,100.111L29.301,100.111L29.794,100.111L30.324,100.111L30.787,100.111L31.276,100.111L32.282,100.111L32.784,100.111L33.327,100.111L33.772,100.111L34.256,100.111L35.253,100.111L35.759,100.111L36.745,100.111L37.23,100.111L38.226,100.111L38.729,100.111L38.925,100.111L39.26,100.111L39.591,100.111L39.721,100.111L40.208,100.111L41.202,100.111L41.707,100.111L42.237,100.111L42.698,100.111L43.184,100.111L44.179,100.111L44.682,100.111L45.21,100.111L45.673,100.111L46.159,100.111L47.152,100.111L47.651,100.111L48.178,100.111L48.642,100.111L49.11,100.111L49.133,100.111L50.13,100.111L50.448,100.111L50.626,100.111L51.156,100.111L51.62,100.111L52.111,100.111L53.116,100.111L53.617,100.111L54.145,100.111L54.601,100.111L55.087,100.111L56.088,100.111L56.591,100.111L57.123,100.111L57.579,100.111L58.066,100.111L59.061,100.111L59.563,100.111L60.093,100.111L60.554,100.111L61.041,100.111L62.037,100.111L62.541,100.111L63.067,100.111L63.533,100.111L64.017,100.111L65.015,100.111L65.517,100.111L66.046,100.111L66.504,100.111L66.995,100.111L67.988,100.111L68.243,100.111L68.485,100.111L69.01,100.111L69.476,100.111L69.97,100.111L70.964,100.111L71.461,100.111L71.988,100.111L72.453,100.111L72.946,100.111L73.945,100.111L74.451,100.111L74.982,100.111L75.44,100.111L75.927,100.111L76.921,100.111L77.427,100.111L77.976,100.111L78.418,100.111L78.9,100.111L79.893,100.111L80.401,100.111L80.928,100.111L81.39,100.111L81.878,100.111L82.874,100.111L83.376,100.111L83.904,100.111L84.361,100.111L84.852,100.111L85.848,100.111L86.352,100.111L86.879,100.111L87.339,100.111L87.829,100.111L88.823,100.111L89.321,100.111L89.847,100.111L90.31,100.111L90.806,100.111L91.8,100.111L92.298,100.111L92.821,100.111L93.285,100.111L93.782,100.111L94.782,100.111L95.284,100.111L95.816,100.111L96.274,100.111L96.761,100.111L97.756,100.111L98.263,100.111L98.791,100.111L99.249,100.111L99.738,100.111L100.734,100.111L101.237,100.111L101.768,100.111L102.227,100.111L102.714,100.111L103.71,100.111L104.213,100.111L104.744,100.111L105.202,100.111L105.691,100.111L106.686,100.111L107.189,100.111L107.719,100.111L108.18,100.111L108.666,100.111L109.661,100.111L110.16,100.111L110.687,100.111L111.147,100.111L111.641,100.111L112.638,100.111L113.134,100.111L113.662,100.111L114.126,100.111L114.619,100.111L115.617,100.111L116.123,100.111L116.653,100.111L117.105,100.111L117.598,100.111L118.592,100.111L119.097,100.111L119.627,100.111L120.088,100.111L120.575,100.111L121.57,100.111L122.075,100.111L122.604,100.111L123.067,100.111L123.549,100.111L124.547,100.111L125.053,100.111L125.583,100.111L126.043,100.111L126.525,100.111L127.522,100.111L128.028,100.111L128.557,100.111L129.016,100.111L129.502,100.111L130.498,100.111L130.994,100.111L131.521,100.111L131.985,100.111L132.479,100.111L133.475,100.111L133.971,100.111L134.499,100.111L134.96,100.111L135.455,100.111L136.454,100.111L136.961,100.111L137.491,100.111L137.936,100.111L138.433,100.111L139.429,100.111L139.938,100.111L140.467,100.111L140.923,100.111L141.41,100.111L142.407,100.111L142.913,100.111L143.444,100.111L143.901,100.111L144.387,100.111L145.38,100.111L145.884,100.111L146.413,100.111L146.877,100.111L147.362,100.111L148.356,100.111L148.861,100.111L149.388,100.111L149.852,100.111L150.338,100.111L151.332,100.111L151.831,100.111L152.356,100.111L152.822,100.111L153.314,100.111L154.307,100.111L154.806,100.111L155.334,100.111L155.798,100.111L156.291,100.111L157.288,100.111L157.793,100.111L158.324,100.111L158.784,100.111L159.271,100.111L160.264,100.111L160.769,100.111L161.302,100.111L161.76,100.111L162.247,100.111L163.242,100.111L163.748,100.111L164.279,100.111L164.737,100.111L165.223,100.111L166.22,100.111L166.725,100.111L167.257,100.111L167.718,100.111L168.2,100.111L169.195,100.111L169.699,100.111L170.229,100.111L170.689,100.111L171.176,100.111L172.169,100.111L172.667,100.111L173.193,100.111L173.655,100.111L174.151,100.111L175.146,100.111L175.643,100.111L176.17,100.111L176.635,100.111L177.127,100.111L178.129,100.111L178.636,100.111L179.163,100.111L179.618,100.111L180.105,100.111L181.101,100.111L181.606,100.111L182.155,100.111L182.597,100.111L183.085,100.111L184.079,100.111L184.588,100.111L185.135,100.111L185.573,100.111L186.062,100.111L187.055,100.111L187.564,100.111L188.109,100.111L188.552,100.111L189.037,100.111L190.032,100.111L190.537,100.111L191.067,100.111L191.526,100.111L192.012,100.111L193.005,100.111L193.507,100.111L194.032,100.111L194.495,100.111L194.987,100.111L195.986,100.111L196.48,100.111L197.009,100.111L197.472,100.111L197.964,100.111L198.963,100.111L199.481,100.111L199.999,100.111" stroke="#e45756" stroke-width="2"/></g></g><path class="foreground" aria-hidden="true" d="" display="none"/></g><g transform="translate(0,0)"><path class="background" aria-hidden="true" d="M0,0h200v200h-200Z"/><g><g class="mark-line role-mark marks" role="graphics-object" aria-roledescription="line mark container"><path aria-label="Time: Aug 20, 2025; Price: 1199; identifier: thrive-2" role="graphics-symbol" aria-roledescription="line mark" d="M18.666,66.778L18.887,66.778L19.375,66.778L20.369,66.778L20.872,66.778L21.404,66.778L21.865,66.778L22.35,66.778L23.347,66.778L23.848,66.778L24.379,66.778L24.839,66.778L25.325,66.778L26.321,66.778L26.82,66.778L27.346,66.778L27.808,66.778L28.299,66.778L29.301,66.778L29.795,66.778L30.325,66.778L30.788,66.778L31.276,66.778L32.282,66.778L32.784,66.778L33.327,66.778L33.772,66.778L34.256,66.778L35.254,66.778L35.759,66.778L36.746,66.778L37.23,66.778L38.227,66.778L38.73,66.778L38.925,66.778L39.26,66.778L39.592,66.778L39.722,66.778L40.209,66.778L41.203,66.778L41.708,66.778L42.238,66.778L42.698,66.778L43.184,66.778L44.18,66.778L44.682,66.778L45.211,66.778L45.673,66.778L46.159,66.778L47.153,66.778L47.652,66.778L48.178,66.778L48.643,66.778L49.111,66.778L49.134,66.778L50.131,66.778L50.449,66.778L50.627,66.778L51.156,66.778L51.621,66.778L52.111,66.778L53.117,66.778L53.617,66.778L54.145,66.778L54.601,66.778L55.087,66.778L56.089,66.778L56.592,66.778L57.124,66.778L57.58,66.778L58.066,66.778L59.061,66.778L59.564,66.778L60.094,66.778L60.555,66.778L61.042,66.778L62.037,66.778L62.541,66.778L63.068,66.778L63.534,66.778L64.018,66.778L65.015,66.778L65.517,66.778L66.046,66.778L66.504,66.778L66.995,66.778L67.988,66.778L68.244,66.778L68.485,66.778L69.01,66.778L69.476,66.778L69.97,66.778L70.964,66.778L71.461,66.778L71.988,66.778L72.453,66.778L72.946,66.778L73.946,66.778L74.452,66.778L74.983,66.778L75.44,66.778L75.927,66.778L76.921,66.778L77.427,66.778L77.976,66.778L78.419,66.778L78.901,66.778L79.893,66.778L80.401,66.778L80.929,66.778L81.39,66.778L81.879,66.778L82.874,66.778L83.376,66.778L83.904,66.778L84.361,66.778L84.853,66.778L85.848,66.778L86.352,66.778L86.879,66.778L87.339,66.778L87.829,66.778L88.823,66.778L89.321,66.778L89.847,66.778L90.31,66.778L90.806,66.778L91.801,66.778L92.298,66.778L92.821,66.778L93.286,66.778L93.783,66.778L94.782,66.778L95.284,66.778L95.816,66.778L96.275,66.778L96.761,66.778L97.756,66.778L98.263,66.778L98.792,66.778L99.25,66.778L99.738,66.778L100.734,66.778L101.237,66.778L101.768,66.778L102.227,66.778L102.714,66.778L103.71,66.778L104.213,66.778L104.744,66.778L105.202,66.778L105.691,66.778L106.687,66.778L107.189,66.778L107.72,66.778L108.18,66.778L108.666,66.778L109.661,66.778L110.161,66.778L110.687,66.778L111.148,66.778L111.642,66.778L112.639,66.778L113.135,66.778L113.663,66.778L114.127,66.778L114.62,66.778L115.617,66.778L116.124,66.778L116.653,66.778L117.105,66.778L117.599,66.778L118.593,66.778L119.098,66.778L119.627,66.778L120.089,66.778L120.575,66.778L121.57,66.778L122.075,66.778L122.605,66.778L123.067,66.778L123.549,66.778L124.547,66.778L125.053,66.778L125.584,66.778L126.043,66.778L126.525,66.778L127.522,66.778L128.028,66.778L128.557,66.778L129.017,66.778L129.502,66.778L130.498,66.778L130.994,66.778L131.521,66.778L131.985,66.778L132.479,66.778L133.475,66.778L133.971,66.778L134.499,66.778L134.96,66.778L135.455,66.778L136.454,66.778L136.961,66.778L137.491,66.778L137.937,66.778L138.433,66.778L139.43,66.778L139.939,66.778L140.467,66.778L140.923,66.778L141.41,66.778L142.408,66.778L142.913,66.778L143.444,66.778L143.901,66.778L144.387,66.778L145.381,66.778L145.885,66.778L146.413,66.778L146.877,66.778L147.362,66.778L148.356,66.778L148.861,66.778L149.388,66.778L149.852,66.778L150.338,66.778L151.332,66.778L151.831,66.778L152.357,66.778L152.822,66.778L153.315,66.778L154.307,66.778L154.806,66.778L155.334,66.778L155.798,66.778L156.292,66.778L157.288,66.778L157.794,66.778L158.325,66.778L158.784,66.778L159.271,66.778L160.264,66.778L160.769,66.778L161.302,66.778L161.76,66.778L162.247,66.778L163.242,66.778L163.749,66.778L164.279,66.778L164.737,66.778L165.224,66.778L166.22,66.778L166.725,66.778L167.257,66.778L167.718,66.778L168.201,66.778L169.195,66.778L169.7,66.778L170.229,66.778L170.689,66.778L171.177,66.778L172.169,66.778L172.667,66.778L173.193,66.778L173.656,66.778L174.151,66.778L175.146,66.778L175.644,66.778L176.171,66.778L176.635,66.778L177.127,66.778L178.129,66.778L178.636,66.778L179.164,66.778L179.621,66.778L180.106,66.778L181.102,66.778L181.606,66.778L182.156,66.778L182.597,66.778L183.085,66.778L184.079,66.778L184.589,66.778L185.136,66.778L185.573,66.778L186.063,66.778L187.056,66.778L187.565,66.778L188.109,66.778L188.552,66.778L189.037,66.778L190.032,66.778L190.537,66.778L191.067,66.778L191.526,66.778L192.013,66.778L193.006,66.778L193.507,66.778L194.032,66.778L194.496,66.778L194.987,66.778L195.986,66.778L196.48,66.778L197.01,66.778L197.473,66.778L197.964,66.778L198.964,66.778L199.481,66.778L199.999,66.778" stroke="#eeca3b" stroke-width="2"/></g></g><path class="foreground" aria-hidden="true" d="" display="none"/></g><g transform="translate(0,0)"><path class="background" aria-hidden="true" d="M0,0h200v200h-200Z"/><g><g class="mark-line role-mark marks" role="graphics-object" aria-roledescription="line mark container"><path aria-label="Time: Aug 20, 2025; Price: 999; identifier: rove-2" role="graphics-symbol" aria-roledescription="line mark" d="M18.666,89L18.887,89L19.375,89L20.369,89L20.872,89L21.404,89L21.865,89L22.35,89L23.347,89L23.848,89L24.379,89L24.839,89L25.325,89L26.321,89L26.82,89L27.346,89L27.808,89L28.299,89L29.301,89L29.795,89L30.325,89L30.788,89L31.276,89L32.282,89L32.784,89L33.328,89L33.772,89L34.257,89L35.254,89L35.759,89L36.746,89L37.23,89L38.227,89L38.73,89L38.925,89L39.26,89L39.592,89L39.722,89L40.209,89L41.203,89L41.708,89L42.238,89L42.698,89L43.184,89L44.18,89L44.682,89L45.211,89L45.673,89L46.159,89L49.111,111.222L49.134,111.222L50.131,111.222L50.449,111.222L50.627,111.222L51.156,111.222L51.621,111.222L52.111,111.222L53.117,111.222L53.617,111.222L54.145,111.222L54.601,111.222L55.087,111.222L56.089,111.222L56.592,111.222L57.124,111.222L57.58,111.222L58.066,111.222L59.061,111.222L59.564,111.222L60.094,111.222L60.555,111.222L61.042,111.222L62.037,111.222L62.541,111.222L63.068,111.222L63.534,111.222L64.018,111.222L65.015,111.222L65.517,111.222L66.046,111.222L66.504,111.222L66.995,111.222L67.988,111.222L68.244,111.222L68.485,111.222L69.01,111.222L69.476,111.222L69.97,111.222L70.964,111.222L71.461,111.222L71.989,111.222L72.453,111.222L72.946,111.222L73.946,111.222L74.452,111.222L74.983,111.222L75.44,111.222L75.928,111.222L76.921,111.222L77.427,111.222L77.976,111.222L78.419,111.222L78.901,111.222L79.894,111.222L80.401,111.222L80.929,111.222L81.39,111.222L81.879,111.222L82.874,111.222L83.377,111.222L83.904,111.222L84.361,111.222L84.853,111.222L85.848,111.222L86.352,111.222L86.879,111.222L87.339,111.222L87.829,111.222L88.823,111.222L89.321,111.222L89.847,111.222L90.31,111.222L90.806,111.222L91.801,111.222L92.298,111.222L92.821,111.222L93.286,111.222L93.783,111.222L94.782,111.222L95.284,111.222L95.816,111.222L96.275,111.222L96.761,111.222L97.756,111.222L98.263,111.222L98.792,111.222L99.25,111.222L99.738,111.222L100.734,111.222L101.237,111.222L101.769,111.222L102.227,111.222L102.714,111.222L103.71,111.222L104.213,111.222L104.744,111.222L105.202,111.222L105.691,111.222L106.687,111.222L107.19,111.222L107.72,111.222L108.18,111.222L108.666,111.222L109.661,111.222L110.161,111.222L110.687,111.222L111.148,111.222L111.642,111.222L112.639,111.222L113.135,111.222L113.663,111.222L114.127,111.222L114.62,111.222L115.617,111.222L116.124,111.222L116.653,111.222L117.105,111.222L117.599,111.222L118.593,111.222L119.098,111.222L119.628,111.222L120.089,111.222L120.575,111.222L121.57,111.222L122.076,111.222L122.605,111.222L123.067,111.222L123.55,111.222L124.547,111.222L125.053,111.222L125.584,111.222L126.043,111.222L126.526,111.222L127.522,111.222L128.028,111.222L128.557,111.222L129.017,111.222L129.503,111.222L130.498,111.222L130.994,111.222L131.521,111.222L131.986,111.222L132.479,111.222L133.475,111.222L133.971,111.222L134.499,111.222L134.96,111.222L135.455,111.222L136.454,111.222L136.961,111.222L137.491,111.222L137.937,111.222L138.434,111.222L139.43,111.222L139.939,111.222L140.467,111.222L140.923,111.222L141.41,111.222L142.408,111.222L142.913,111.222L143.444,111.222L143.901,111.222L144.387,111.222L145.381,111.222L145.885,111.222L146.413,111.222L146.877,111.222L147.362,111.222L148.356,111.222L148.861,111.222L149.388,111.222L149.852,111.222L150.338,111.222L151.332,111.222L151.831,111.222L152.357,111.222L152.822,111.222L153.315,111.222L154.307,111.222L154.806,111.222L155.334,111.222L155.798,111.222L156.292,111.222L157.288,111.222L157.794,111.222L158.325,111.222L158.784,111.222L159.271,111.222L160.264,111.222L160.769,111.222L161.302,111.222L161.76,111.222L162.247,111.222L163.242,111.222L163.749,111.222L164.28,111.222L164.737,111.222L165.224,111.222L166.22,111.222L166.726,111.222L167.257,111.222L167.718,111.222L168.201,111.222L169.195,111.222L169.7,111.222L170.229,111.222L170.689,111.222L171.177,111.222L172.169,111.222L172.667,111.222L173.193,111.222L173.656,111.222L174.151,111.222L175.146,111.222L175.644,111.222L176.171,111.222L176.635,111.222L177.127,111.222L178.129,111.222L178.636,111.222L179.164,111.222L179.622,111.222L180.106,111.222L181.102,111.222L181.606,111.222L182.156,111.222L182.598,111.222L183.085,111.222L184.079,111.222L184.589,111.222L185.136,111.222L185.573,111.222L186.063,111.222L187.056,111.222L187.565,111.222L188.109,111.222L188.552,111.222L189.038,111.222L190.032,111.222L190.537,111.222L191.067,111.222L191.526,111.222L192.013,111.222L193.006,111.222L193.507,111.222L194.032,111.222L194.496,111.222L194.988,111.222L195.986,111.222L196.48,111.222L197.01,111.222L197.473,111.222L197.964,111.222L198.964,111.222L199.481,111.222L199.999,111.222" stroke="#72b7b2" stroke-width="2"/></g></g><path class="foreground" aria-hidden="true" d="" display="none"/></g><g transform="translate(0,0)"><path class="background" aria-hidden="true" d="M0,0h200v200h-200Z"/><g><g class="mark-line role-mark marks" role="graphics-object" aria-roledescription="line mark container"><path aria-label="Time: Aug 27, 2025; Price: 1199; identifier: allure-rs-1-2023" role="graphics-symbol" aria-roledescription="line mark" d="M38.926,66.778L39.26,66.778L39.592,66.778L39.722,66.778L40.209,66.778L41.203,66.778L41.708,66.778L42.238,66.778L42.698,66.778L43.184,66.778L44.18,66.778L44.682,66.778L45.211,66.778L45.673,66.778L46.159,66.778L47.153,66.778L47.652,66.778L48.178,66.778L48.643,66.778L49.111,66.778L49.134,66.778L50.131,66.778L50.449,66.778L50.627,66.778L51.156,66.778L51.621,66.778L52.112,66.778L53.117,66.778L53.617,66.778L54.145,66.778L54.601,66.778L55.088,66.778L56.089,66.778L56.592,66.778L57.124,66.778L57.58,66.778L58.066,66.778L59.061,66.778L59.564,66.778L60.094,66.778L60.555,66.778L61.042,66.778L62.037,66.778L62.542,66.778L63.068,66.778L63.534,66.778L64.018,66.778L65.015,66.778L65.517,66.778L66.046,66.778L66.505,66.778L66.995,66.778L67.988,66.778L68.244,66.778L68.485,66.778L69.01,66.778L69.476,66.778L69.97,66.778L70.964,66.778L71.461,66.778L71.989,66.778L72.453,66.778L72.947,66.778L73.946,66.778L74.452,66.778L74.983,66.778L75.44,66.778L75.928,66.778L76.921,66.778L77.427,66.778L77.976,66.778L78.419,66.778L78.901,66.778L79.894,66.778L80.401,66.778L80.929,66.778L81.391,66.778L81.879,66.778L82.874,66.778L83.377,66.778L83.904,66.778L84.361,66.778L84.853,66.778L85.848,66.778L86.352,66.778L86.879,66.778L87.339,66.778L87.829,66.778L88.823,66.778L89.321,66.778L89.847,66.778L90.31,66.778L90.806,66.778L91.801,66.778L92.298,66.778L92.822,66.778L93.286,66.778L93.783,66.778L94.782,66.778L95.284,66.778L95.816,66.778L96.275,66.778L96.761,66.778L97.756,66.778L98.263,66.778L98.792,66.778L99.25,66.778L99.738,66.778L100.734,66.778L101.237,66.778L101.769,66.778L102.227,66.778L102.714,66.778L103.71,66.778L104.213,66.778L104.744,66.778L105.202,66.778L105.691,66.778L106.687,66.778L107.19,66.778L107.72,66.778L108.18,66.778L108.666,66.778L109.661,66.778L110.161,66.778L110.687,66.778L111.148,66.778L111.642,66.778L112.639,66.778L113.135,66.778L113.663,66.778L114.127,66.778L114.62,66.778L115.617,66.778L116.124,66.778L116.653,66.778L117.105,66.778L117.599,66.778L118.593,66.778L119.098,66.778L119.628,66.778L120.089,66.778L120.575,66.778L121.57,66.778L122.076,66.778L122.605,66.778L123.067,66.778L123.55,66.778L124.547,66.778L125.053,66.778L125.584,66.778L126.043,66.778L126.526,66.778L127.522,66.778L128.028,66.778L128.557,66.778L129.017,66.778L129.503,66.778L130.498,66.778L130.995,66.778L131.522,66.778L131.986,66.778L132.479,66.778L133.475,66.778L133.971,66.778L134.499,66.778L134.96,66.778L135.455,66.778L136.454,66.778L136.961,66.778L137.491,66.778L137.937,66.778L138.434,66.778L139.43,66.778L139.939,66.778L140.467,66.778L140.923,66.778L141.411,66.778L142.408,66.778L142.913,66.778L143.444,66.778L143.901,66.778L144.387,66.778L145.381,66.778L145.885,66.778L146.413,66.778L146.877,66.778L147.362,66.778L148.356,66.778L148.861,66.778L149.389,66.778L149.852,66.778L150.338,66.778L151.332,66.778L151.831,66.778L152.357,66.778L152.822,66.778L153.315,66.778L154.307,66.778L154.806,66.778L155.334,66.778L155.798,66.778L156.292,66.778L157.288,66.778L157.794,66.778L158.325,66.778L158.784,66.778L159.271,66.778L160.264,66.778L160.769,66.778L161.302,66.778L161.76,66.778L162.247,66.778L163.242,66.778L163.749,66.778L164.28,66.778L164.737,66.778L165.224,66.778L166.22,66.778L166.726,66.778L167.257,66.778L167.719,66.778L168.201,66.778L169.195,66.778L169.7,66.778L170.229,66.778L170.689,66.778L171.177,66.778L172.17,66.778L172.667,66.778L173.193,66.778L173.656,66.778L174.151,66.778L175.147,66.778L175.644,66.778L176.171,66.778L176.635,66.778L177.128,66.778L178.129,66.778L178.636,66.778L179.164,66.778L179.622,66.778L180.106,66.778L181.102,66.778L181.606,66.778L182.156,66.778L182.598,66.778L183.085,66.778L184.08,66.778L184.589,66.778L185.136,66.778L185.573,66.778L186.063,66.778L187.056,66.778L187.565,66.778L188.109,66.778L188.552,66.778L189.038,66.778L190.032,66.778L190.537,66.778L191.067,66.778L191.526,66.778L192.013,66.778L193.006,66.778L193.507,66.778L194.032,66.778L194.496,66.778L194.988,66.778L195.986,66.778L196.48,66.778L197.01,66.778L197.473,66.778L197.964,66.778L198.964,66.778L199.481,66.778L199.999,66.778" stroke="#b279a2" stroke-width="2"/></g></g><path class="foreground" aria-hidden="true" d="" display="none"/></g><g transform="translate(0,0)"><path class="background" aria-hidden="true" d="M0,0h200v200h-200Z"/><g><g class="mark-line role-mark marks" role="graphics-object" aria-roledescription="line mark container"><path aria-label="Time: Aug 27, 2025; Price: 999; identifier: allure-rs-2-2022" role="graphics-symbol" aria-roledescription="line mark" d="M38.926,89L39.26,89L39.592,89L39.722,89L40.209,89L41.203,89L41.708,89L42.238,89L42.698,89L43.184,89L44.18,89L44.682,89L45.211,89L45.673,89L46.159,89L49.111,111.222L49.134,111.222L50.131,111.222L50.449,111.222L50.627,111.222L51.156,111.222L51.621,111.222L52.112,111.222L53.117,111.222L53.617,111.222L54.145,111.222L54.601,111.222L55.088,111.222L56.089,111.222L56.592,111.222L57.124,111.222L57.58,111.222L58.066,111.222L59.061,111.222L59.564,111.222L60.094,111.222L60.555,111.222L61.042,111.222L62.037,111.222L62.542,111.222L63.068,111.222L63.534,111.222L64.018,111.222L65.015,111.222L65.517,111.222L66.046,111.222L66.505,111.222L66.995,111.222L67.988,111.222L68.244,111.222L68.485,111.222L69.01,111.222L69.476,111.222L69.97,111.222L70.964,111.222L71.461,111.222L71.989,111.222L72.453,111.222L72.947,111.222L73.946,111.222L74.452,111.222L74.983,111.222L75.44,111.222L75.928,111.222L76.921,111.222L77.427,111.222L77.976,111.222L78.419,111.222L78.901,111.222L79.894,111.222L80.401,111.222L80.929,111.222L81.391,111.222L81.879,111.222L82.874,111.222L83.377,111.222L83.904,111.222L84.361,111.222L84.853,111.222L85.848,111.222L86.352,111.222L86.879,111.222L87.339,111.222L87.829,111.222L88.823,111.222L89.322,111.222L89.847,111.222L90.31,111.222L90.806,111.222L91.801,111.222L92.298,111.222L92.822,111.222L93.286,111.222L93.783,111.222L94.782,111.222L95.284,111.222L95.816,111.222L96.275,111.222L96.762,111.222L97.756,111.222L98.263,111.222L98.792,111.222L99.25,111.222L99.738,111.222L100.734,111.222L101.237,111.222L101.769,111.222L102.227,111.222L102.714,111.222L103.71,111.222L104.213,111.222L104.744,111.222L105.202,111.222L105.691,111.222L106.687,111.222L107.19,111.222L107.72,111.222L108.18,111.222L108.666,111.222L109.661,111.222L110.161,111.222L110.687,111.222L111.148,111.222L111.642,111.222L112.639,111.222L113.135,111.222L113.663,111.222L114.127,111.222L114.62,111.222L115.617,111.222L116.124,111.222L116.654,111.222L117.105,111.222L117.599,111.222L118.593,111.222L119.098,111.222L119.628,111.222L120.089,111.222L120.575,111.222L121.57,111.222L122.076,111.222L122.605,111.222L123.068,111.222L123.55,111.222L124.547,111.222L125.053,111.222L125.584,111.222L126.043,111.222L126.526,111.222L127.522,111.222L128.028,111.222L128.557,111.222L129.017,111.222L129.503,111.222L130.498,111.222L130.995,111.222L131.522,111.222L131.986,111.222L132.479,111.222L133.475,111.222L133.972,111.222L134.499,111.222L134.96,111.222L135.455,111.222L136.454,111.222L136.961,111.222L137.491,111.222L137.937,111.222L138.434,111.222L139.43,111.222L139.939,111.222L140.467,111.222L140.923,111.222L141.411,111.222L142.408,111.222L142.913,111.222L143.445,111.222L143.901,111.222L144.388,111.222L145.381,111.222L145.885,111.222L146.413,111.222L146.877,111.222L147.362,111.222L148.357,111.222L148.861,111.222L149.389,111.222L149.852,111.222L150.338,111.222L151.332,111.222L151.832,111.222L152.357,111.222L152.822,111.222L153.315,111.222L154.308,111.222L154.806,111.222L155.335,111.222L155.798,111.222L156.292,111.222L157.288,111.222L157.794,111.222L158.325,111.222L158.784,111.222L159.271,111.222L160.265,111.222L160.77,111.222L161.302,111.222L161.76,111.222L162.247,111.222L163.243,111.222L163.749,111.222L164.28,111.222L164.737,111.222L165.224,111.222L166.22,111.222L166.726,111.222L167.257,111.222L167.719,111.222L168.201,111.222L169.196,111.222L169.7,111.222L170.229,111.222L170.689,111.222L171.177,111.222L172.17,111.222L172.668,111.222L173.193,111.222L173.656,111.222L174.151,111.222L175.147,111.222L175.644,111.222L176.171,111.222L176.635,111.222L177.128,111.222L178.129,111.222L178.636,111.222L179.164,111.222L179.622,111.222L180.106,111.222L181.102,111.222L181.607,111.222L182.156,111.222L182.598,111.222L183.085,111.222L184.08,111.222L184.589,111.222L185.136,111.222L185.573,111.222L186.063,111.222L187.056,111.222L187.565,111.222L188.109,111.222L188.552,111.222L189.038,111.222L190.032,111.222L190.537,111.222L191.068,111.222L191.527,111.222L192.013,111.222L193.006,111.222L193.507,111.222L194.033,111.222L194.496,111.222L194.988,111.222L195.986,111.222L196.48,111.222L197.01,111.222L197.473,111.222L197.964,111.222L198.964,111.222L199.482,111.222L199.999,111.222" stroke="#54a24b" stroke-width="2"/></g></g><path class="foreground" aria-hidden="true" d="" display="none"/></g><g transform="translate(0,0)"><path class="background" aria-hidden="true" d="M0,0h200v200h-200Z"/><g><g class="mark-line role-mark marks" role="graphics-object" aria-roledescription="line mark container"><path aria-label="Time: Aug 27, 2025; Price: 949; identifier: allure-rs-2-2023" role="graphics-symbol" aria-roledescription="line mark" d="M38.926,94.556L39.26,94.556L39.592,94.556L39.722,94.556L40.209,94.556L41.203,94.556L41.708,94.556L42.238,94.556L42.698,94.556L43.184,94.556L44.18,94.556L44.682,94.556L45.211,94.556L45.673,94.556L46.159,94.556L47.153,94.556L47.652,94.556L48.179,94.556L48.643,94.556L49.111,94.556L49.134,94.556L50.131,94.556L50.449,94.556L50.627,94.556L51.157,94.556L51.621,94.556L52.112,94.556L53.117,94.556L53.617,94.556L54.146,94.556L54.601,94.556L55.088,94.556L56.089,94.556L56.592,94.556L57.124,94.556L57.58,94.556L58.066,94.556L59.062,94.556L59.564,94.556L60.094,94.556L60.555,94.556L61.042,94.556L62.037,94.556L62.542,94.556L63.068,94.556L63.534,94.556L64.018,94.556L65.015,94.556L65.517,94.556L66.046,94.556L66.505,94.556L66.995,94.556L67.989,94.556L68.244,94.556L68.485,94.556L69.01,94.556L69.476,94.556L69.97,94.556L70.964,94.556L71.462,94.556L71.989,94.556L72.453,94.556L72.947,94.556L73.946,94.556L74.452,94.556L74.983,94.556L75.44,94.556L75.928,94.556L76.921,94.556L77.428,94.556L77.976,94.556L78.419,94.556L78.901,94.556L79.894,94.556L80.401,94.556L80.929,94.556L81.391,94.556L81.879,94.556L82.874,94.556L83.377,94.556L83.904,94.556L84.361,94.556L84.853,94.556L85.849,94.556L86.352,94.556L86.88,94.556L87.339,94.556L87.829,94.556L88.823,94.556L89.322,94.556L89.847,94.556L90.31,94.556L90.806,94.556L91.801,94.556L92.298,94.556L92.822,94.556L93.286,94.556L93.783,94.556L94.782,94.556L95.284,94.556L95.816,94.556L96.275,94.556L96.762,94.556L97.757,94.556L98.263,94.556L98.792,94.556L99.25,94.556L99.738,94.556L100.734,94.556L101.237,94.556L101.769,94.556L102.227,94.556L102.715,94.556L103.71,94.556L104.213,94.556L104.744,94.556L105.202,94.556L105.691,94.556L106.687,94.556L107.19,94.556L107.72,94.556L108.18,94.556L108.666,94.556L109.661,94.556L110.161,94.556L110.687,94.556L111.148,94.556L111.642,94.556L112.639,94.556L113.135,94.556L113.663,94.556L114.127,94.556L114.62,94.556L115.617,94.556L116.124,94.556L116.654,94.556L117.106,94.556L117.599,94.556L118.593,94.556L119.098,94.556L119.628,94.556L120.089,94.556L120.575,94.556L121.57,94.556L122.076,94.556L122.605,94.556L123.068,94.556L123.55,94.556L124.547,94.556L125.053,94.556L125.584,94.556L126.043,94.556L126.526,94.556L127.522,94.556L128.028,94.556L128.557,94.556L129.017,94.556L129.503,94.556L130.498,94.556L130.995,94.556L131.522,94.556L131.986,94.556L132.48,94.556L133.475,94.556L133.972,94.556L134.499,94.556L134.96,94.556L135.455,94.556L136.455,94.556L136.961,94.556L137.491,94.556L137.937,94.556L138.434,94.556L139.43,94.556L139.939,94.556L140.467,94.556L140.923,94.556L141.411,94.556L142.408,94.556L142.913,94.556L143.445,94.556L143.901,94.556L144.388,94.556L145.381,94.556L145.885,94.556L146.413,94.556L146.877,94.556L147.363,94.556L148.357,94.556L148.861,94.556L149.389,94.556L149.852,94.556L150.338,94.556L151.332,94.556L151.832,94.556L152.357,94.556L152.822,94.556L153.315,94.556L154.308,94.556L154.806,94.556L155.335,94.556L155.799,94.556L156.292,94.556L157.288,94.556L157.794,94.556L158.325,94.556L158.784,94.556L159.271,94.556L160.265,94.556L160.77,94.556L161.302,94.556L161.761,94.556L162.247,94.556L163.243,94.556L163.749,94.556L164.28,94.556L164.737,94.556L165.224,94.556L166.221,94.556L166.726,94.556L167.257,94.556L167.719,94.556L168.201,94.556L169.196,94.556L169.7,94.556L170.229,94.556L170.689,94.556L171.177,94.556L172.17,94.556L172.668,94.556L173.194,94.556L173.656,94.556L174.151,94.556L175.147,94.556L175.644,94.556L176.171,94.556L176.635,94.556L177.128,94.556L178.129,94.556L178.636,94.556L179.164,94.556L179.622,94.556L180.106,94.556L181.102,94.556L181.607,94.556L182.156,94.556L182.598,94.556L183.085,94.556L184.08,94.556L184.589,94.556L185.136,94.556L185.573,94.556L186.063,94.556L187.056,94.556L187.565,94.556L188.109,94.556L188.552,94.556L189.038,94.556L190.032,94.556L190.537,94.556L191.068,94.556L191.527,94.556L192.013,94.556L193.006,94.556L193.507,94.556L194.033,94.556L194.496,94.556L194.988,94.556L195.986,94.556L196.48,94.556L197.01,94.556L197.473,94.556L197.964,94.556L198.964,94.556L199.482,94.556L200,94.556" stroke="#bab0ac" stroke-width="2"/></g></g><path class="foreground" aria-hidden="true" d="" display="none"/></g><g transform="translate(0,0)"><path class="background" aria-hidden="true" d="M0,0h200v200h-200Z"/><g><g class="mark-line role-mark marks" role="graphics-object" aria-roledescription="line mark container"><path aria-label="Time: Aug 27, 2025; Price: 999; identifier: allure-rs-2-2024" role="graphics-symbol" aria-roledescription="line mark" d="M38.926,89L39.26,89L39.592,89L39.722,89L40.209,89L41.203,89L41.708,89L42.238,89L42.698,89L43.184,89L44.18,89L44.682,89L45.211,89L45.673,89L46.159,89L49.111,111.222L49.134,111.222L50.131,111.222L50.449,111.222L50.627,111.222L51.157,111.222L51.621,111.222L52.112,111.222L53.117,111.222L53.617,111.222L54.146,111.222L54.602,111.222L55.088,111.222L56.089,111.222L56.592,111.222L57.124,111.222L57.58,111.222L58.066,111.222L59.062,111.222L59.564,111.222L60.094,111.222L60.555,111.222L61.042,111.222L62.037,111.222L62.542,111.222L63.068,111.222L63.534,111.222L64.018,111.222L65.015,111.222L65.518,111.222L66.046,111.222L66.505,111.222L66.995,111.222L67.989,111.222L68.244,111.222L68.485,111.222L69.01,111.222L69.476,111.222L69.97,111.222L70.964,111.222L71.462,111.222L71.989,111.222L72.453,111.222L72.947,111.222L73.946,111.222L74.452,111.222L74.983,111.222L75.44,111.222L75.928,111.222L76.921,111.222L77.428,111.222L77.977,111.222L78.419,111.222L78.901,111.222L79.894,111.222L80.401,111.222L80.929,111.222L81.391,111.222L81.879,111.222L82.874,111.222L83.377,111.222L83.904,111.222L84.362,111.222L84.853,111.222L85.849,111.222L86.352,111.222L86.88,111.222L87.339,111.222L87.829,111.222L88.823,111.222L89.322,111.222L89.847,111.222L90.31,111.222L90.806,111.222L91.801,111.222L92.298,111.222L92.822,111.222L93.286,111.222L93.783,111.222L94.782,111.222L95.284,111.222L95.816,111.222L96.275,111.222L96.762,111.222L97.757,111.222L98.263,111.222L98.792,111.222L99.25,111.222L99.739,111.222L100.734,111.222L101.237,111.222L101.769,111.222L102.227,111.222L102.715,111.222L103.71,111.222L104.213,111.222L104.745,111.222L105.202,111.222L105.692,111.222L106.687,111.222L107.19,111.222L107.72,111.222L108.18,111.222L108.666,111.222L109.661,111.222L110.161,111.222L110.687,111.222L111.148,111.222L111.642,111.222L112.639,111.222L113.135,111.222L113.663,111.222L114.127,111.222L114.62,111.222L115.617,111.222L116.124,111.222L116.654,111.222L117.106,111.222L117.599,111.222L118.593,111.222L119.098,111.222L119.628,111.222L120.089,111.222L120.575,111.222L121.57,111.222L122.076,111.222L122.605,111.222L123.068,111.222L123.55,111.222L124.547,111.222L125.053,111.222L125.584,111.222L126.043,111.222L126.526,111.222L127.522,111.222L128.028,111.222L128.557,111.222L129.017,111.222L129.503,111.222L130.498,111.222L130.995,111.222L131.522,111.222L131.986,111.222L132.48,111.222L133.475,111.222L133.972,111.222L134.5,111.222L134.96,111.222L135.455,111.222L136.455,111.222L136.961,111.222L137.491,111.222L137.937,111.222L138.434,111.222L139.43,111.222L139.939,111.222L140.468,111.222L140.924,111.222L141.411,111.222L142.408,111.222L142.913,111.222L143.445,111.222L143.901,111.222L144.388,111.222L145.381,111.222L145.885,111.222L146.413,111.222L146.877,111.222L147.363,111.222L148.357,111.222L148.861,111.222L149.389,111.222L149.852,111.222L150.338,111.222L151.332,111.222L151.832,111.222L152.357,111.222L152.822,111.222L153.315,111.222L154.308,111.222L154.806,111.222L155.335,111.222L155.799,111.222L156.292,111.222L157.288,111.222L157.794,111.222L158.325,111.222L158.784,111.222L159.271,111.222L160.265,111.222L160.77,111.222L161.302,111.222L161.761,111.222L162.247,111.222L163.243,111.222L163.749,111.222L164.28,111.222L164.738,111.222L165.224,111.222L166.221,111.222L166.726,111.222L167.257,111.222L167.719,111.222L168.201,111.222L169.196,111.222L169.7,111.222L170.229,111.222L170.689,111.222L171.177,111.222L172.17,111.222L172.668,111.222L173.194,111.222L173.656,111.222L174.151,111.222L175.147,111.222L175.644,111.222L176.171,111.222L176.635,111.222L177.128,111.222L178.129,111.222L178.636,111.222L179.164,111.222L179.622,111.222L180.106,111.222L181.102,111.222L181.607,111.222L182.156,111.222L182.598,111.222L183.085,111.222L184.08,111.222L184.589,111.222L185.136,111.222L185.573,111.222L186.063,111.222L187.056,111.222L187.565,111.222L188.11,111.222L188.552,111.222L189.038,111.222L190.032,111.222L190.537,111.222L191.068,111.222L191.527,111.222L192.013,111.222L193.006,111.222L193.507,111.222L194.033,111.222L194.496,111.222L194.988,111.222L195.986,111.222L196.48,111.222L197.01,111.222L197.473,111.222L197.964,111.222L198.964,111.222L199.482,111.222L200,111.222" stroke="#eeca3b" stroke-width="2"/></g></g><path class="foreground" aria-hidden="true" d="" display="none"/></g><g transform="translate(0,0)"><path class="background" aria-hidden="true" d="M0,0h200v200h-200Z"/><g><g class="mark-line role-mark marks" role="graphics-object" aria-roledescription="line mark container"><path aria-label="Time: Aug 27, 2025; Price: 1799; identifier: devote-1-2024" role="graphics-symbol" aria-roledescription="line mark" d="M39.592,0.111L39.722,0.111L40.209,0.111L41.203,0.111L41.708,0.111L42.238,0.111L42.698,0.111L43.184,0.111L44.18,0.111L44.682,0.111L45.211,0.111L45.674,0.111L46.16,0.111L49.111,44.556L49.134,44.556L50.131,44.556L50.449,44.556L50.627,44.556L51.157,44.556L51.621,44.556L52.112,44.556L53.117,44.556L53.617,44.556L54.146,44.556L54.602,44.556L55.088,44.556L56.089,44.556L56.592,44.556L57.124,44.556L57.58,44.556L58.066,44.556L59.062,44.556L59.564,44.556L60.094,44.556L60.555,44.556L61.042,44.556L62.038,44.556L62.542,44.556L63.068,44.556L63.534,44.556L64.018,44.556L65.015,44.556L65.518,44.556L66.046,44.556L66.505,44.556L66.995,44.556L67.989,44.556L68.244,44.556L68.485,44.556L69.01,44.556L69.476,44.556L69.97,44.556L70.964,44.556L71.462,44.556L71.989,44.556L72.453,44.556L72.947,44.556L73.946,44.556L74.452,44.556L74.983,44.556L75.44,44.556L75.928,44.556L76.921,44.556L77.428,44.556L77.977,44.556L78.419,44.556L78.901,44.556L79.894,44.556L80.401,44.556L80.929,44.556L81.391,44.556L81.879,44.556L82.874,44.556L83.377,44.556L83.904,44.556L84.362,44.556L84.853,44.556L85.849,44.556L86.352,44.556L86.88,44.556L87.339,44.556L87.829,44.556L88.823,44.556L89.322,44.556L89.847,44.556L90.31,44.556L90.806,44.556L91.801,44.556L92.298,44.556L92.822,44.556L93.286,44.556L93.783,44.556L94.783,44.556L95.284,44.556L95.817,44.556L96.276,44.556L96.762,44.556L97.757,44.556L98.263,44.556L98.792,44.556L99.25,44.556L99.739,44.556L100.734,44.556L101.237,44.556L101.769,44.556L102.228,44.556L102.715,44.556L103.71,44.556L104.213,44.556L104.745,44.556L105.202,44.556L105.692,44.556L106.687,44.556L107.19,44.556L107.72,44.556L108.181,44.556L108.666,44.556L109.661,44.556L110.161,44.556L110.688,44.556L111.148,44.556L111.642,44.556L112.639,44.556L113.135,44.556L113.663,44.556L114.127,44.556L114.62,44.556L115.617,44.556L116.124,44.556L116.654,44.556L117.106,44.556L117.599,44.556L118.593,44.556L119.098,44.556L119.628,44.556L120.089,44.556L120.575,44.556L121.571,44.556L122.076,44.556L122.605,44.556L123.068,44.556L123.55,44.556L124.547,44.556L125.053,44.556L125.584,44.556L126.044,44.556L126.526,44.556L127.523,44.556L128.028,44.556L128.557,44.556L129.017,44.556L129.503,44.556L130.499,44.556L130.995,44.556L131.522,44.556L131.986,44.556L132.48,44.556L133.475,44.556L133.972,44.556L134.5,44.556L134.96,44.556L135.455,44.556L136.455,44.556L136.961,44.556L137.491,44.556L137.937,44.556L138.434,44.556L139.43,44.556L139.939,44.556L140.468,44.556L140.924,44.556L141.411,44.556L142.408,44.556L142.913,44.556L143.445,44.556L143.901,44.556L144.388,44.556L145.381,44.556L145.885,44.556L146.414,44.556L146.877,44.556L147.363,44.556L148.357,44.556L148.861,44.556L149.389,44.556L149.852,44.556L150.339,44.556L151.333,44.556L151.832,44.556L152.357,44.556L152.822,44.556L153.315,44.556L154.308,44.556L154.807,44.556L155.335,44.556L155.799,44.556L156.292,44.556L157.288,44.556L157.794,44.556L158.325,44.556L158.784,44.556L159.271,44.556L160.265,44.556L160.77,44.556L161.302,44.556L161.761,44.556L162.247,44.556L163.243,44.556L163.749,44.556L164.28,44.556L164.738,44.556L165.224,44.556L166.221,44.556L166.726,44.556L167.257,44.556L167.719,44.556L168.201,44.556L169.196,44.556L169.7,44.556L170.229,44.556L170.69,44.556L171.177,44.556L172.17,44.556L172.668,44.556L173.194,44.556L173.656,44.556L174.151,44.556L175.147,44.556L175.644,44.556L176.171,44.556L176.635,44.556L177.128,44.556L178.129,44.556L178.636,44.556L179.164,44.556L179.622,44.556L180.106,44.556L181.102,44.556L181.607,44.556L182.156,44.556L182.598,44.556L183.085,44.556L184.08,44.556L184.589,44.556L185.136,44.556L185.573,44.556L186.063,44.556L187.057,44.556L187.565,44.556L188.11,44.556L188.552,44.556L189.038,44.556L190.032,44.556L190.537,44.556L191.068,44.556L191.527,44.556L192.013,44.556L193.006,44.556L193.508,44.556L194.033,44.556L194.496,44.556L194.988,44.556L195.986,44.556L196.48,44.556L197.01,44.556L197.473,44.556L197.964,44.556L198.964,44.556L199.482,44.556L200,44.556" stroke="#72b7b2" stroke-width="2"/></g></g><path class="foreground" aria-hidden="true" d="" display="none"/></g><g transform="translate(0,0)"><path class="background" aria-hidden="true" d="M0,0h200v200h-200Z"/><g><g class="mark-line role-mark marks" role="graphics-object" aria-roledescription="line mark container"><path aria-label="Time: Aug 27, 2025; Price: 1699; identifier: devote-1-2022" role="graphics-symbol" aria-roledescription="line mark" d="M39.592,11.222L39.722,11.222L40.209,11.222L41.203,11.222L41.708,11.222L42.238,11.222L42.698,11.222L43.185,11.222L44.18,11.222L44.683,11.222L45.211,11.222L45.674,11.222L46.16,11.222L47.153,11.222L47.652,11.222L48.179,11.222L48.643,11.222L49.111,11.222L49.134,11.222L50.131,11.222L50.449,11.222L50.627,11.222L51.157,11.222L51.621,11.222L52.112,11.222L53.117,11.222L53.617,11.222L54.146,11.222L54.602,11.222L55.088,11.222L56.089,11.222L56.592,11.222L57.124,11.222L57.58,11.222L58.067,11.222L59.062,11.222L59.564,11.222L60.094,11.222L60.555,11.222L61.042,11.222L62.038,11.222L62.542,11.222L63.068,11.222L63.534,11.222L64.018,11.222L65.015,11.222L65.518,11.222L66.046,11.222L66.505,11.222L66.996,11.222L67.989,11.222L68.244,11.222L68.486,11.222L69.011,11.222L69.476,11.222L69.97,11.222L70.964,11.222L71.462,11.222L71.989,11.222L72.453,11.222L72.947,11.222L73.946,11.222L74.452,11.222L74.983,11.222L75.44,11.222L75.928,11.222L76.922,11.222L77.428,11.222L77.977,11.222L78.419,11.222L78.901,11.222L79.894,11.222L80.402,11.222L80.929,11.222L81.391,11.222L81.879,11.222L82.875,11.222L83.377,11.222L83.904,11.222L84.362,11.222L84.853,11.222L85.849,11.222L86.353,11.222L86.88,11.222L87.34,11.222L87.829,11.222L88.823,11.222L89.322,11.222L89.847,11.222L90.31,11.222L90.806,11.222L91.801,11.222L92.299,11.222L92.822,11.222L93.286,11.222L93.783,11.222L94.783,11.222L95.284,11.222L95.817,11.222L96.276,11.222L96.763,11.222L97.757,11.222L98.263,11.222L98.792,11.222L99.25,11.222L99.739,11.222L100.734,11.222L101.238,11.222L101.769,11.222L102.228,11.222L102.715,11.222L103.71,11.222L104.213,11.222L104.745,11.222L105.202,11.222L105.692,11.222L106.687,11.222L107.19,11.222L107.72,11.222L108.181,11.222L108.666,11.222L109.662,11.222L110.161,11.222L110.688,11.222L111.148,11.222L111.642,11.222L112.639,11.222L113.135,11.222L113.663,11.222L114.127,11.222L114.62,11.222L115.617,11.222L116.124,11.222L116.654,11.222L117.106,11.222L117.599,11.222L118.593,11.222L119.098,11.222L119.628,11.222L120.089,11.222L120.576,11.222L121.571,11.222L122.076,11.222L122.605,11.222L123.068,11.222L123.55,11.222L124.547,11.222L125.054,11.222L125.584,11.222L126.044,11.222L126.526,11.222L127.523,11.222L128.028,11.222L128.557,11.222L129.017,11.222L129.503,11.222L130.499,11.222L130.995,11.222L131.522,11.222L131.986,11.222L132.48,11.222L133.475,11.222L133.972,11.222L134.5,11.222L134.96,11.222L135.455,11.222L136.455,11.222L136.961,11.222L137.492,11.222L137.937,11.222L138.434,11.222L139.43,11.222L139.939,11.222L140.468,11.222L140.924,11.222L141.411,11.222L142.408,11.222L142.914,11.222L143.445,11.222L143.901,11.222L144.388,11.222L145.381,11.222L145.885,11.222L146.414,11.222L146.877,11.222L147.363,11.222L148.357,11.222L148.862,11.222L149.389,11.222L149.852,11.222L150.339,11.222L151.333,11.222L151.832,11.222L152.357,11.222L152.822,11.222L153.315,11.222L154.308,11.222L154.807,11.222L155.335,11.222L155.799,11.222L156.292,11.222L157.289,11.222L157.794,11.222L158.325,11.222L158.784,11.222L159.271,11.222L160.265,11.222L160.77,11.222L161.302,11.222L161.761,11.222L162.247,11.222L163.243,11.222L163.749,11.222L164.28,11.222L164.738,11.222L165.224,11.222L166.221,11.222L166.726,11.222L167.257,11.222L167.719,11.222L168.201,11.222L169.196,11.222L169.7,11.222L170.229,11.222L170.69,11.222L171.177,11.222L172.17,11.222L172.668,11.222L173.194,11.222L173.656,11.222L174.151,11.222L175.147,11.222L175.644,11.222L176.171,11.222L176.636,11.222L177.128,11.222L178.129,11.222L178.637,11.222L179.164,11.222L179.622,11.222L180.106,11.222L181.102,11.222L181.607,11.222L182.156,11.222L182.598,11.222L183.086,11.222L184.08,11.222L184.589,11.222L185.136,11.222L185.573,11.222L186.063,11.222L187.057,11.222L187.565,11.222L188.11,11.222L188.552,11.222L189.038,11.222L190.032,11.222L190.538,11.222L191.068,11.222L191.527,11.222L192.013,11.222L193.006,11.222L193.508,11.222L194.033,11.222L194.496,11.222L194.988,11.222L195.986,11.222L196.48,11.222L197.01,11.222L197.473,11.222L197.964,11.222L198.964,11.222L199.482,11.222L200,11.222" stroke="#4c78a8" stroke-width="2"/></g></g><path class="foreground" aria-hidden="true" d="" display="none"/></g><g transform="translate(0,0)"><path class="background" aria-hidden="true" d="M0,0h200v200h-200Z"/><g><g class="mark-line role-mark marks" role="graphics-object" aria-roledescription="line mark container"><path aria-label="Time: Aug 31, 2025; Price: 1599; identifier: silex-400-oak-bork-2026" role="graphics-symbol" aria-roledescription="line mark" d="M50.449,22.333L50.628,22.333L51.157,22.333L51.621,22.333L52.112,22.333L53.117,22.333L53.618,22.333L54.146,22.333L54.602,22.333L55.088,22.333L56.089,22.333L56.592,22.333L57.124,22.333L57.58,22.333L58.067,22.333L59.062,22.333L59.564,22.333L60.094,22.333L60.555,22.333L61.042,22.333L62.038,22.333L62.542,22.333L63.068,22.333L63.534,22.333L64.018,22.333L65.015,22.333L65.518,22.333L66.046,22.333L66.505,22.333L66.996,22.333L67.989,22.333L68.244,22.333L68.486,22.333L69.011,22.333L69.477,22.333L69.971,22.333L70.964,22.333L71.462,22.333L71.989,22.333L72.453,22.333L72.947,22.333L73.946,22.333L74.453,22.333L74.983,22.333L75.441,22.333L75.928,22.333L76.922,22.333L77.428,22.333L77.977,22.333L78.419,22.333L78.901,22.333L79.894,22.333L80.402,22.333L80.929,22.333L81.391,22.333L81.879,22.333L82.875,22.333L83.377,22.333L83.905,22.333L84.362,22.333L84.853,22.333L85.849,22.333L86.353,22.333L86.88,22.333L87.34,22.333L87.83,22.333L88.824,22.333L89.322,22.333L89.848,22.333L90.311,22.333L90.807,22.333L91.801,22.333L92.299,22.333L92.822,22.333L93.286,22.333L93.783,22.333L94.783,22.333L95.284,22.333L95.817,22.333L96.276,22.333L96.763,22.333L97.757,22.333L98.264,22.333L98.792,22.333L99.25,22.333L99.739,22.333L100.734,22.333L101.238,22.333L101.769,22.333L102.228,22.333L102.715,22.333L103.711,22.333L104.213,22.333L104.745,22.333L105.203,22.333L105.692,22.333L106.687,22.333L107.19,22.333L107.72,22.333L108.181,22.333L108.667,22.333L109.662,22.333L110.161,22.333L110.688,22.333L111.148,22.333L111.642,22.333L112.639,22.333L113.136,22.333L113.663,22.333L114.127,22.333L114.62,22.333L115.618,22.333L116.124,22.333L116.654,22.333L117.106,22.333L117.599,22.333L118.593,22.333L119.098,22.333L119.628,22.333L120.089,22.333L120.576,22.333L121.571,22.333L122.076,22.333L122.606,22.333L123.068,22.333L123.55,22.333L124.547,22.333L125.054,22.333L125.584,22.333L126.044,22.333L126.526,22.333L127.523,22.333L128.029,22.333L128.557,22.333L129.017,22.333L129.503,22.333L130.499,22.333L130.995,22.333L131.522,22.333L131.986,22.333L132.48,22.333L133.475,22.333L133.972,22.333L134.5,22.333L134.96,22.333L135.456,22.333L136.455,22.333L136.962,22.333L137.492,22.333L137.937,22.333L138.434,22.333L139.43,22.333L139.939,22.333L140.468,22.333L140.924,22.333L141.411,22.333L142.409,22.333L142.914,22.333L143.445,22.333L143.902,22.333L144.388,22.333L145.381,22.333L145.885,22.333L146.414,22.333L146.878,22.333L147.363,22.333L148.357,22.333L148.862,22.333L149.389,22.333L149.852,22.333L150.339,22.333L151.333,22.333L151.832,22.333L152.357,22.333L152.823,22.333L153.315,22.333L154.308,22.333L154.807,22.333L155.335,22.333L155.799,22.333L156.293,22.333L157.289,22.333L157.794,22.333L158.325,22.333L158.785,22.333L159.272,22.333L160.265,22.333L160.77,22.333L161.302,22.333L161.761,22.333L162.247,22.333L163.243,22.333L163.749,22.333L164.28,22.333L164.738,22.333L165.224,22.333L166.221,22.333L166.726,22.333L167.258,22.333L167.719,22.333L168.201,22.333L169.196,22.333L169.7,22.333L170.23,22.333L170.69,22.333L171.178,22.333L172.17,22.333L172.668,22.333L173.194,22.333L173.656,22.333L174.151,22.333L175.147,22.333L175.645,22.333L176.171,22.333L176.636,22.333L177.128,22.333L178.13,22.333L178.637,22.333L179.164,22.333L179.622,22.333L180.106,22.333L181.102,22.333L181.607,22.333L182.157,22.333L182.599,22.333L183.086,22.333L184.08,22.333L184.589,22.333L185.137,22.333L185.573,22.333L186.063,22.333L187.058,22.333L187.565,22.333L188.11,22.333L188.552,22.333L189.038,22.333L190.033,22.333L190.538,22.333L191.068,22.333L191.527,22.333L192.013,22.333L193.006,22.333L193.508,22.333L194.033,22.333L194.496,22.333L194.988,22.333L195.987,22.333L196.481,22.333L197.01,22.333L197.473,22.333L197.965,22.333L198.964,22.333L199.482,22.333L200,22.333" stroke="#f58518" stroke-width="2"/></g></g><path class="foreground" aria-hidden="true" d="" display="none"/></g><g transform="translate(0,0)"><path class="background" aria-hidden="true" d="M0,0h200v200h-200Z"/><g><g class="mark-line role-mark marks" role="graphics-object" aria-roledescription="line mark container"><path aria-label="Time: Aug 31, 2025; Price: 1599; identifier: silex-400-warm-slate-grey-2026" role="graphics-symbol" aria-roledescription="line mark" d="M50.449,22.333L50.628,22.333L51.157,22.333L51.621,22.333L52.112,22.333L53.117,22.333L53.618,22.333L54.146,22.333L54.602,22.333L55.088,22.333L56.089,22.333L56.592,22.333L57.125,22.333L57.58,22.333L58.067,22.333L59.062,22.333L59.564,22.333L60.095,22.333L60.555,22.333L61.042,22.333L62.038,22.333L62.542,22.333L63.068,22.333L63.534,22.333L64.018,22.333L65.016,22.333L65.518,22.333L66.047,22.333L66.505,22.333L66.996,22.333L67.989,22.333L68.244,22.333L68.486,22.333L69.011,22.333L69.477,22.333L69.971,22.333L70.965,22.333L71.462,22.333L71.989,22.333L72.454,22.333L72.947,22.333L73.946,22.333L74.453,22.333L74.984,22.333L75.441,22.333L75.928,22.333L76.922,22.333L77.428,22.333L77.977,22.333L78.419,22.333L78.901,22.333L79.894,22.333L80.402,22.333L80.929,22.333L81.391,22.333L81.879,22.333L82.875,22.333L83.377,22.333L83.905,22.333L84.362,22.333L84.853,22.333L85.849,22.333L86.353,22.333L86.88,22.333L87.34,22.333L87.83,22.333L88.824,22.333L89.322,22.333L89.848,22.333L90.311,22.333L90.807,22.333L91.801,22.333L92.299,22.333L92.822,22.333L93.286,22.333L93.783,22.333L94.783,22.333L95.285,22.333L95.817,22.333L96.276,22.333L96.763,22.333L97.757,22.333L98.264,22.333L98.792,22.333L99.251,22.333L99.739,22.333L100.735,22.333L101.238,22.333L101.769,22.333L102.228,22.333L102.715,22.333L103.711,22.333L104.214,22.333L104.745,22.333L105.203,22.333L105.692,22.333L106.687,22.333L107.19,22.333L107.72,22.333L108.181,22.333L108.667,22.333L109.662,22.333L110.161,22.333L110.688,22.333L111.148,22.333L111.642,22.333L112.639,22.333L113.136,22.333L113.664,22.333L114.127,22.333L114.62,22.333L115.618,22.333L116.124,22.333L116.654,22.333L117.106,22.333L117.599,22.333L118.593,22.333L119.099,22.333L119.628,22.333L120.09,22.333L120.576,22.333L121.571,22.333L122.076,22.333L122.606,22.333L123.068,22.333L123.55,22.333L124.548,22.333L125.054,22.333L125.585,22.333L126.044,22.333L126.526,22.333L127.523,22.333L128.029,22.333L128.558,22.333L129.018,22.333L129.503,22.333L130.499,22.333L130.995,22.333L131.522,22.333L131.986,22.333L132.48,22.333L133.476,22.333L133.972,22.333L134.5,22.333L134.96,22.333L135.456,22.333L136.455,22.333L136.962,22.333L137.492,22.333L137.937,22.333L138.434,22.333L139.43,22.333L139.94,22.333L140.468,22.333L140.924,22.333L141.412,22.333L142.409,22.333L142.914,22.333L143.445,22.333L143.902,22.333L144.388,22.333L145.381,22.333L145.885,22.333L146.414,22.333L146.878,22.333L147.363,22.333L148.357,22.333L148.862,22.333L149.389,22.333L149.853,22.333L150.339,22.333L151.333,22.333L151.832,22.333L152.358,22.333L152.823,22.333L153.315,22.333L154.308,22.333L154.807,22.333L155.335,22.333L155.799,22.333L156.293,22.333L157.289,22.333L157.795,22.333L158.325,22.333L158.785,22.333L159.272,22.333L160.265,22.333L160.77,22.333L161.303,22.333L161.761,22.333L162.248,22.333L163.243,22.333L163.749,22.333L164.28,22.333L164.738,22.333L165.224,22.333L166.221,22.333L166.726,22.333L167.258,22.333L167.719,22.333L168.202,22.333L169.196,22.333L169.7,22.333L170.23,22.333L170.69,22.333L171.178,22.333L172.17,22.333L172.668,22.333L173.194,22.333L173.657,22.333L174.152,22.333L175.147,22.333L175.645,22.333L176.171,22.333L176.636,22.333L177.128,22.333L178.13,22.333L178.637,22.333L179.164,22.333L179.622,22.333L180.107,22.333L181.102,22.333L181.607,22.333L182.157,22.333L182.599,22.333L183.086,22.333L184.08,22.333L184.589,22.333L185.137,22.333L185.574,22.333L186.064,22.333L187.058,22.333L187.565,22.333L188.11,22.333L188.553,22.333L189.038,22.333L190.033,22.333L190.538,22.333L191.068,22.333L191.527,22.333L192.014,22.333L193.007,22.333L193.508,22.333L194.033,22.333L194.497,22.333L194.988,22.333L195.987,22.333L196.481,22.333L197.01,22.333L197.473,22.333L197.965,22.333L198.965,22.333L199.482,22.333L200,22.333" stroke="#e45756" stroke-width="2"/></g></g><path class="foreground" aria-hidden="true" d="" display="none"/></g></g><g class="mark-group role-legend" role="graphics-symbol" aria-roledescription="legend" aria-label="Symbol legend titled 'identifier' for stroke color with 16 values: devote-1-2022, silex-400-oak-bork-2026, silex-400-warm-slate-grey-2026, devote-1-2024, fastroad-ar-2, ending with allure-rs-2-2024"><g transform="translate(220,0)"><path class="background" aria-hidden="true" d="M0,0h256v222h-256Z" pointer-events="none"/><g><g class="mark-group role-legend-entry"><g transform="translate(0,16)"><path class="background" aria-hidden="true" d="M0,0h0v0h0Z" pointer-events="none"/><g><g class="mark-group role-scope" role="graphics-object" aria-roledescription="group mark container"><g transform="translate(0,0)"><path class="background" aria-hidden="true" d="M0,0h256v11h-256Z" pointer-events="none" opacity="1"/><g><g class="mark-symbol role-legend-symbol" pointer-events="none"><path transform="translate(6,6)" d="M-5,0L5,0" stroke="#4c78a8" stroke-width="1.5" opacity="1"/></g><g class="mark-text role-legend-label" pointer-events="none"><text text-anchor="start" transform="translate(16,9)" font-family="Liberation Mono" font-size="10px" fill="#000" opacity="1">devote-1-2022</text></g></g><path class="foreground" aria-hidden="true" d="" pointer-events="none" display="none"/></g><g transform="translate(0,13)"><path class="background" aria-hidden="true" d="M0,0h256v11h-256Z" pointer-events="none" opacity="1"/><g><g class="mark-symbol role-legend-symbol" pointer-events="none"><path transform="translate(6,6)" d="M-5,0L5,0" stroke="#f58518" stroke-width="1.5" opacity="1"/></g><g class="mark-text role-legend-label" pointer-events="none"><text text-anchor="start" transform="translate(16,9)" font-family="Liberation Mono" font-size="10px" fill="#000" opacity="1">silex-400-oak-bork-2026</text></g></g><path class="foreground" aria-hidden="true" d="" pointer-events="none" display="none"/></g><g transform="translate(0,26)"><path class="background" aria-hidden="true" d="M0,0h256v11h-256Z" pointer-events="none" opacity="1"/><g><g class="mark-symbol role-legend-symbol" pointer-events="none"><path transform="translate(6,6)" d="M-5,0L5,0" stroke="#e45756" stroke-width="1.5" opacity="1"/></g><g class="mark-text role-legend-label" pointer-events="none"><text text-anchor="start" transform="translate(16,9)" font-family="Liberation Mono" font-size="10px" fill="#000" opacity="1">silex-400-warm-slate-grey-2026</text></g></g><path class="foreground" aria-hidden="true" d="" pointer-events="none" display="none"/></g><g transform="translate(0,39)"><path class="background" aria-hidden="true" d="M0,0h256v11h-256Z" pointer-events="none" opacity="1"/><g><g class="mark-symbol role-legend-symbol" pointer-events="none"><path transform="translate(6,6)" d="M-5,0L5,0" stroke="#72b7b2" stroke-width="1.5" opacity="1"/></g><g class="mark-text role-legend-label" pointer-events="none"><text text-anchor="start" transform="translate(16,9)" font-family="Liberation Mono" font-size="10px" fill="#000" opacity="1">devote-1-2024</text></g></g><path class="foreground" aria-hidden="true" d="" pointer-events="none" display="none"/></g><g transform="translate(0,52)"><path class="background" aria-hidden="true" d="M0,0h256v11h-256Z" pointer-events="none" opacity="1"/><g><g class="mark-symbol role-legend-symbol" pointer-events="none"><path transform="translate(6,6)" d="M-5,0L5,0" stroke="#54a24b" stroke-width="1.5" opacity="1"/></g><g class="mark-text role-legend-label" pointer-events="none"><text text-anchor="start" transform="translate(16,9)" font-family="Liberation Mono" font-size="10px" fill="#000" opacity="1">fastroad-ar-2</text></g></g><path class="foreground" aria-hidden="true" d="" pointer-events="none" display="none"/></g><g transform="translate(0,65)"><path class="background" aria-hidden="true" d="M0,0h256v11h-256Z" pointer-events="none" opacity="1"/><g><g class="mark-symbol role-legend-symbol" pointer-events="none"><path transform="translate(6,6)" d="M-5,0L5,0" stroke="#eeca3b" stroke-width="1.5" opacity="1"/></g><g class="mark-text role-legend-label" pointer-events="none"><text text-anchor="start" transform="translate(16,9)" font-family="Liberation Mono" font-size="10px" fill="#000" opacity="1">thrive-2</text></g></g><path class="foreground" aria-hidden="true" d="" pointer-events="none" display="none"/></g><g transform="translate(0,78)"><path class="background" aria-hidden="true" d="M0,0h256v11h-256Z" pointer-events="none" opacity="1"/><g><g class="mark-symbol role-legend-symbol" pointer-events="none"><path transform="translate(6,6)" d="M-5,0L5,0" stroke="#b279a2" stroke-width="1.5" opacity="1"/></g><g class="mark-text role-legend-label" pointer-events="none"><text text-anchor="start" transform="translate(16,9)" font-family="Liberation Mono" font-size="10px" fill="#000" opacity="1">allure-rs-1-2023</text></g></g><path class="foreground" aria-hidden="true" d="" pointer-events="none" display="none"/></g><g transform="translate(0,91)"><path class="background" aria-hidden="true" d="M0,0h256v11h-256Z" pointer-events="none" opacity="1"/><g><g class="mark-symbol role-legend-symbol" pointer-events="none"><path transform="translate(6,6)" d="M-5,0L5,0" stroke="#ff9da6" stroke-width="1.5" opacity="1"/></g><g class="mark-text role-legend-label" pointer-events="none"><text text-anchor="start" transform="translate(16,9)" font-family="Liberation Mono" font-size="10px" fill="#000" opacity="1">roam-2</text></g></g><path class="foreground" aria-hidden="true" d="" pointer-events="none" display="none"/></g><g transform="translate(0,104)"><path class="background" aria-hidden="true" d="M0,0h256v11h-256Z" pointer-events="none" opacity="1"/><g><g class="mark-symbol role-legend-symbol" pointer-events="none"><path transform="translate(6,6)" d="M-5,0L5,0" stroke="#9d755d" stroke-width="1.5" opacity="1"/></g><g class="mark-text role-legend-label" pointer-events="none"><text text-anchor="start" transform="translate(16,9)" font-family="Liberation Mono" font-size="10px" fill="#000" opacity="1">fastroad-sl-3-2022</text></g></g><path class="foreground" aria-hidden="true" d="" pointer-events="none" display="none"/></g><g transform="translate(0,117)"><path class="background" aria-hidden="true" d="M0,0h256v11h-256Z" pointer-events="none" opacity="1"/><g><g class="mark-symbol role-legend-symbol" pointer-events="none"><path transform="translate(6,6)" d="M-5,0L5,0" stroke="#bab0ac" stroke-width="1.5" opacity="1"/></g><g class="mark-text role-legend-label" pointer-events="none"><text text-anchor="start" transform="translate(16,9)" font-family="Liberation Mono" font-size="10px" fill="#000" opacity="1">allure-rs-2-2023</text></g></g><path class="foreground" aria-hidden="true" d="" pointer-events="none" display="none"/></g><g transform="translate(0,130)"><path class="background" aria-hidden="true" d="M0,0h256v11h-256Z" pointer-events="none" opacity="1"/><g><g class="mark-symbol role-legend-symbol" pointer-events="none"><path transform="translate(6,6)" d="M-5,0L5,0" stroke="#4c78a8" stroke-width="1.5" opacity="1"/></g><g class="mark-text role-legend-label" pointer-events="none"><text text-anchor="start" transform="translate(16,9)" font-family="Liberation Mono" font-size="10px" fill="#000" opacity="1">escape-city-disc-1-2024</text></g></g><path class="foreground" aria-hidden="true" d="" pointer-events="none" display="none"/></g><g transform="translate(0,143)"><path class="background" aria-hidden="true" d="M0,0h256v11h-256Z" pointer-events="none" opacity="1"/><g><g class="mark-symbol role-legend-symbol" pointer-events="none"><path transform="translate(6,6)" d="M-5,0L5,0" stroke="#f58518" stroke-width="1.5" opacity="1"/></g><g class="mark-text role-legend-label" pointer-events="none"><text text-anchor="start" transform="translate(16,9)" font-family="Liberation Mono" font-size="10px" fill="#000" opacity="1">sdrbike-escape-1-city-disc</text></g></g><path class="foreground" aria-hidden="true" d="" pointer-events="none" display="none"/></g><g transform="translate(0,156)"><path class="background" aria-hidden="true" d="M0,0h256v11h-256Z" pointer-events="none" opacity="1"/><g><g class="mark-symbol role-legend-symbol" pointer-events="none"><path transform="translate(6,6)" d="M-5,0L5,0" stroke="#e45756" stroke-width="1.5" opacity="1"/></g><g class="mark-text role-legend-label" pointer-events="none"><text text-anchor="start" transform="translate(16,9)" font-family="Liberation Mono" font-size="10px" fill="#000" opacity="1">roam-disc-2-2024</text></g></g><path class="foreground" aria-hidden="true" d="" pointer-events="none" display="none"/></g><g transform="translate(0,169)"><path class="background" aria-hidden="true" d="M0,0h256v11h-256Z" pointer-events="none" opacity="1"/><g><g class="mark-symbol role-legend-symbol" pointer-events="none"><path transform="translate(6,6)" d="M-5,0L5,0" stroke="#72b7b2" stroke-width="1.5" opacity="1"/></g><g class="mark-text role-legend-label" pointer-events="none"><text text-anchor="start" transform="translate(16,9)" font-family="Liberation Mono" font-size="10px" fill="#000" opacity="1">rove-2</text></g></g><path class="foreground" aria-hidden="true" d="" pointer-events="none" display="none"/></g><g transform="translate(0,182)"><path class="background" aria-hidden="true" d="M0,0h256v11h-256Z" pointer-events="none" opacity="1"/><g><g class="mark-symbol role-legend-symbol" pointer-events="none"><path transform="translate(6,6)" d="M-5,0L5,0" stroke="#54a24b" stroke-width="1.5" opacity="1"/></g><g class="mark-text role-legend-label" pointer-events="none"><text text-anchor="start" transform="translate(16,9)" font-family="Liberation Mono" font-size="10px" fill="#000" opacity="1">allure-rs-2-2022</text></g></g><path class="foreground" aria-hidden="true" d="" pointer-events="none" display="none"/></g><g transform="translate(0,195)"><path class="background" aria-hidden="true" d="M0,0h256v11h-256Z" pointer-events="none" opacity="1"/><g><g class="mark-symbol role-legend-symbol" pointer-events="none"><path transform="translate(6,6)" d="M-5,0L5,0" stroke="#eeca3b" stroke-width="1.5" opacity="1"/></g><g class="mark-text role-legend-label" pointer-events="none"><text text-anchor="start" transform="translate(16,9)" font-family="Liberation Mono" font-size="10px" fill="#000" opacity="1">allure-rs-2-2024</text></g></g><path class="foreground" aria-hidden="true" d="" pointer-events="none" display="none"/></g></g></g><path class="foreground" aria-hidden="true" d="" pointer-events="none" display="none"/></g></g><g class="mark-text role-legend-title" pointer-events="none"><text text-anchor="start" transform="translate(0,9)" font-family="Liberation Mono" font-size="11px" font-weight="bold" fill="#000" opacity="1">identifier</text></g></g><path class="foreground" aria-hidden="true" d="" pointer-events="none" display="none"/></g></g></g><path class="foreground" aria-hidden="true" d="" display="none"/></g></g></g></svg>