<svg xmlns="http://www.w3.org/2000/svg" xmlns:xlink="http://www.w3.org/1999/xlink" version="1.1" class="marks" width="548" height="244" viewBox="0 0 548 244"><rect width="548" height="244" fill="white"/><g fill="none" stroke-miterlimit="10" transform="translate(67,7)"><g class="mark-group role-frame root" role="graphics-object" aria-roledescription="group mark container"><g transform="translate(0,0)"><path class="background" aria-hidden="true" d="M0.5,0.5h200v200h-200Z" stroke="#ddd"/><g><g class="mark-group role-axis" aria-hidden="true"><g transform="translate(0.5,200.5)"><path class="background" aria-hidden="true" d="M0,0h0v0h0Z" pointer-events="none"/><g><g class="mark-rule role-axis-grid" pointer-events="none"><line transform="translate(20,-200)" x2="0" y2="200" stroke="#ddd" stroke-width="1" opacity="1"/><line transform="translate(74,-200)" x2="0" y2="200" stroke="#ddd" stroke-width="1" opacity="1"/><line transform="translate(128,-200)" x2="0" y2="200" stroke="#ddd" stroke-width="1" opacity="1"/><line transform="translate(182,-200)" x2="0" y2="200" stroke="#ddd" stroke-width="1" opacity="1"/></g></g><path class="foreground" aria-hidden="true" d="" pointer-events="none" display="none"/></g></g><g class="mark-group role-axis" aria-hidden="true"><g transform="translate(0.5,0.5)"><path class="background" aria-hidden="true" d="M0,0h0v0h0Z" pointer-events="none"/><g><g class="mark-rule role-axis-grid" pointer-events="none"><line transform="translate(0,200)" x2="200" y2="0" stroke="#ddd" stroke-width="1" opacity="1"/><line transform="translate(0,144)" x2="200" y2="0" stroke="#ddd" stroke-width="1" opacity="1"/><line transform="translate(0,89)" x2="200" y2="0" stroke="#ddd" stroke-width="1" opacity="1"/><line transform="translate(0,33)" x2="200" y2="0" stroke="#ddd" stroke-width="1" opacity="1"/></g></g><path class="foreground" aria-hidden="true" d="" pointer-events="none" display="none"/></g></g><g class="mark-group role-axis" role="graphics-symbol" aria-roledescription="axis" aria-label="X-axis titled 'Time' for a time scale with values from Thursday, 14 August 2025, 8:34:48 AM to Tuesday, 09 September 2025, 8:52:28 AM"><g transform="translate(0.5,200.5)"><path class="background" aria-hidden="true" d="M0,0h0v0h0Z" pointer-events="none"/><g><g class="mark-rule role-axis-tick" pointer-events="none"><line transform="translate(20,0)" x2="0" y2="5" stroke="#888" stroke-width="1" opacity="1"/><line transform="translate(74,0)" x2="0" y2="5" stroke="#888" stroke-width="1" opacity="1"/><line transform="translate(128,0)" x2="0" y2="5" stroke="#888" stroke-width="1" opacity="1"/><line transform="translate(182,0)" x2="0" y2="5" stroke="#888" stroke-width="1" opacity="1"/></g><g class="mark-text role-axis-label" pointer-events="none"><text text-anchor="middle" transform="translate(20.31727451414738,15)" font-family="Liberation Mono" font-size="10px" fill="#000" opacity="1">Aug 17</text><text text-anchor="middle" transform="translate(74.1380472323564,15)" font-family="Liberation Mono" font-size="10px" fill="#000" opacity="1">Aug 24</text><text text-anchor="middle" transform="translate(127.95881995056541,15)" font-family="Liberation Mono" font-size="10px" fill="#000" opacity="1">Aug 31</text><text text-anchor="middle" transform="translate(181.77959266877443,15)" font-family="Liberation Mono" font-size="10px" fill="#000" opacity="1">Sep 07</text></g><g class="mark-rule role-axis-domain" pointer-events="none"><line transform="translate(0,0)" x2="200" y2="0" stroke="#888" stroke-width="1" opacity="1"/></g><g class="mark-text role-axis-title" pointer-events="none"><text text-anchor="middle" transform="translate(100,30)" font-family="Liberation Mono" font-size="11px" font-weight="bold" fill="#000" opacity="1">Time</text></g></g><path class="foreground" aria-hidden="true" d="" pointer-events="none" display="none"/></g></g><g class="mark-group role-axis" role="graphics-symbol" aria-roledescription="axis" aria-label="Y-axis titled 'Price' for a linear scale with values from 0 to 1,800"><g transform="translate(0.5,0.5)"><path class="background" aria-hidden="true" d="M0,0h0v0h0Z" pointer-events="none"/><g><g class="mark-rule role-axis-tick" pointer-events="none"><line transform="translate(0,200)" x2="-5" y2="0" stroke="#888" stroke-width="1" opacity="1"/><line transform="translate(0,144)" x2="-5" y2="0" stroke="#888" stroke-width="1" opacity="1"/><line transform="translate(0,89)" x2="-5" y2="0" stroke="#888" stroke-width="1" opacity="1"/><line transform="translate(0,33)" x2="-5" y2="0" stroke="#888" stroke-width="1" opacity="1"/></g><g class="mark-text role-axis-label" pointer-events="none"><text text-anchor="end" transform="translate(-7,203)" font-family="Liberation Mono" font-size="10px" fill="#000" opacity="1">0</text><text text-anchor="end" transform="translate(-7,147.44444444444443)" font-family="Liberation Mono" font-size="10px" fill="#000" opacity="1">500</text><text text-anchor="end" transform="translate(-7,91.88888888888889)" font-family="Liberation Mono" font-size="10px" fill="#000" opacity="1">1,000</text><text text-anchor="end" transform="translate(-7,36.33333333333333)" font-family="Liberation Mono" font-size="10px" fill="#000" opacity="1">1,500</text></g><g class="mark-rule role-axis-domain" pointer-events="none"><line transform="translate(0,200)" x2="0" y2="-200" stroke="#888" stroke-width="1" opacity="1"/></g><g class="mark-text role-axis-title" pointer-events="none"><text text-anchor="middle" transform="translate(-51,100) rotate(-90) translate(0,-2)" font-family="Liberation Mono" font-size="11px" font-weight="bold" fill="#000" opacity="1">Price</text></g></g><path class="foreground" aria-hidden="true" d="" pointer-events="none" display="none"/></g></g><g class="mark-group role-scope pathgroup" role="graphics-object" aria-roledescription="group mark container"><g transform="translate(0,0)"><path class="background" aria-hidden="true" d="M0,0h200v200h-200Z"/><g><g class="mark-line role-mark marks" role="graphics-object" aria-roledescription="line mark container"><path aria-label="Time: Aug 14, 2025; Price: 899; identifier: escape-city-disc-1-2024" role="graphics-symbol" aria-roledescription="line mark" d="M0,100.111L0.064,100.111L0.114,100.111L1.532,100.111L2.658,100.111L3.922,100.111L6.516,100.111L7.789,100.111L9.195,100.111L10.348,100.111L11.606,100.111L14.18,100.111L15.468,100.111L16.833,100.111L18.022,100.111L19.283,100.111L21.898,100.111L23.154,100.111L24.525,100.111L25.716,100.111L26.981,100.111L29.608,100.111L30.871,100.111L32.287,100.111L32.784,100.111L33.43,100.111L34.663,100.111L37.239,100.111L38.54,100.111L39.905,100.111L41.098,100.111L42.349,100.111L44.93,100.111L46.219,100.111L47.64,100.111L48.215,100.111L48.784,100.111L50.046,100.111L52.614,100.111L53.913,100.111L55.285,100.111L56.478,100.111L57.731,100.111L60.305,100.111L61.6,100.111L62.971,100.111L64.159,100.111L65.415,100.111L67.987,100.111L69.276,100.111L70.635,100.111L71.827,100.111L73.096,100.111L75.685,100.111L76.96,100.111L78.328,100.111L79.525,100.111L80.787,100.111L83.385,100.111L84.683,100.111L86.085,100.111L87.233,100.111L88.485,100.111L91.061,100.111L92.366,100.111L94.914,100.111L96.166,100.111L98.74,100.111L100.039,100.111L100.543,100.111L101.409,100.111L102.266,100.111L102.602,100.111L103.86,100.111L106.428,100.111L107.731,100.111L109.101,100.111L110.289,100.111L111.546,100.111L114.117,100.111L115.415,100.111L116.78,100.111L117.975,100.111L119.23,100.111L121.797,100.111L123.085,100.111L124.445,100.111L125.645,100.111L126.854,100.111L126.914,100.111L129.489,100.111L130.31,100.111L130.77,100.111L132.138,100.111L133.338,100.111L134.605,100.111L137.202,100.111L138.494,100.111L139.858,100.111L141.036,100.111L142.292,100.111L144.878,100.111L146.178,100.111L147.552,100.111L148.73,100.111L149.986,100.111L152.557,100.111L153.855,100.111L155.224,100.111L156.415,100.111L157.672,100.111L160.243,100.111L161.546,100.111L162.906,100.111L164.109,100.111L165.359,100.111L167.935,100.111L169.233,100.111L170.598,100.111L171.783,100.111L173.05,100.111L175.616,100.111L176.275,100.111L176.899,100.111L178.255,100.111L179.459,100.111L180.735,100.111L183.302,100.111L184.586,100.111L185.948,100.111L187.148,100.111L188.423,100.111L191.003,100.111L192.311,100.111L193.683,100.111L194.864,100.111L196.123,100.111L198.689,100.111L199.997,100.111" stroke="#4c78a8" stroke-width="2"/></g></g><path class="foreground" aria-hidden="true" d="" display="none"/></g><g transform="translate(0,0)"><path class="background" aria-hidden="true" d="M0,0h200v200h-200Z"/><g><g class="mark-line role-mark marks" role="graphics-object" aria-roledescription="line mark container"><path aria-label="Time: Aug 14, 2025; Price: 999; identifier: roam-2" role="graphics-symbol" aria-roledescription="line mark" d="M0,89L0.064,89L0.114,89L1.532,89L2.659,89L3.923,89L6.516,89L7.789,89L9.195,89L10.349,89L11.606,89L14.18,89L15.468,89L16.833,89L18.022,89L19.295,89L21.898,89L23.154,89L24.525,89L25.717,89L26.982,89L29.608,89L30.871,89L32.287,89L32.784,89L33.43,89L34.663,89L37.239,89L38.54,89L39.906,89L41.098,89L42.349,89L44.93,89L46.219,89L47.64,89L48.215,89L48.785,89L50.047,89L52.614,89L53.914,89L55.285,89L56.478,89L57.731,89L60.305,89L61.6,89L62.971,89L64.159,89L65.416,89L67.988,89L69.277,89L70.636,89L71.827,89L73.097,89L75.686,89L76.96,89L78.328,89L79.526,89L80.788,89L83.385,89L84.683,89L86.086,89L87.234,89L88.485,89L91.061,89L92.367,89L94.915,89L96.166,89L98.741,89L100.04,89L100.544,89L101.409,89L102.267,89L102.602,89L103.86,89L106.428,89L107.732,89L109.101,89L110.29,89L111.546,89L114.117,89L115.415,89L116.781,89L117.975,89L119.23,89L121.797,89L123.086,89L124.446,89L125.645,89L126.854,89L126.914,89L129.489,89L130.31,89L130.771,89L132.138,89L133.338,89L134.606,89L137.202,89L138.495,89L139.859,89L141.036,89L142.292,89L144.879,89L146.178,89L147.552,89L148.73,89L149.986,89L152.557,89L153.855,89L155.224,89L156.415,89L157.672,89L160.244,89L161.546,89L162.906,89L164.109,89L165.359,89L167.936,89L169.233,89L170.599,89L171.783,89L173.051,89L175.616,89L176.276,89L176.899,89L178.255,89L179.459,89L180.735,89L183.302,89L184.587,89L185.949,89L187.149,89L188.423,89L191.004,89L192.312,89L193.683,89L194.864,89L196.124,89L198.69,89L199.998,89" stroke="#ff9da6" stroke-width="2"/></g></g><path class="foreground" aria-hidden="true" d="" display="none"/></g><g transform="translate(0,0)"><path class="background" aria-hidden="true" d="M0,0h200v200h-200Z"/><g><g class="mark-line role-mark marks" role="graphics-object" aria-roledescription="line mark container"><path aria-label="Time: Aug 14, 2025; Price: 999; identifier: fastroad-sl-3-2022" role="graphics-symbol" aria-roledescription="line mark" d="M0,89L0.064,89L0.115,89L1.532,89L2.659,89L3.923,89L6.516,89L7.789,89L9.195,89L10.349,89L11.606,89L14.18,89L15.468,89L16.833,89L18.023,89L19.295,89L21.898,89L23.154,89L24.525,89L25.717,89L26.982,89L29.609,89L30.871,89L32.288,89L32.785,89L33.43,89L34.663,89L37.239,89L38.54,89L39.906,89L41.099,89L42.349,89L44.93,89L46.219,89L47.64,89L48.216,89L48.785,89L50.047,89L52.614,89L53.914,89L55.286,89L56.478,89L57.731,89L60.305,89L61.6,89L62.971,89L64.159,89L65.416,89L67.988,89L69.277,89L70.636,89L71.828,89L73.097,89L75.686,89L76.96,89L78.329,89L79.526,89L80.788,89L83.386,89L84.683,89L86.086,89L87.234,89L88.485,89L91.062,89L92.367,89L94.915,89L96.166,89L98.741,89L100.04,89L100.545,89L101.409,89L102.267,89L102.603,89L103.86,89L106.428,89L107.732,89L109.101,89L110.29,89L111.546,89L114.117,89L115.415,89L116.781,89L117.975,89L119.23,89L121.797,89L123.086,89L124.446,89L125.645,89L126.854,89L126.914,89L129.489,89L130.31,89L130.771,89L132.138,89L133.338,89L134.606,89L137.202,89L138.495,89L139.859,89L141.037,89L142.293,89L144.879,89L146.179,89L147.553,89L148.73,89L149.987,89L152.557,89L153.855,89L155.225,89L156.415,89L157.673,89L160.244,89L161.547,89L162.906,89L164.109,89L165.359,89L167.936,89L169.233,89L170.599,89L171.783,89L173.051,89L175.616,89L176.276,89L176.899,89L178.255,89L179.459,89L180.735,89L183.303,89L184.587,89L185.949,89L187.149,89L188.423,89L191.005,89L192.312,89L193.683,89L194.864,89L196.124,89L198.69,89L199.998,89" stroke="#9d755d" stroke-width="2"/></g></g><path class="foreground" aria-hidden="true" d="" display="none"/></g><g transform="translate(0,0)"><path class="background" aria-hidden="true" d="M0,0h200v200h-200Z"/><g><g class="mark-line role-mark marks" role="graphics-object" aria-roledescription="line mark container"><path aria-label="Time: Aug 14, 2025; Price: 1199; identifier: fastroad-ar-2" role="graphics-symbol" aria-roledescription="line mark" d="M0.001,66.778L0.064,66.778L0.115,66.778L1.532,66.778L2.659,66.778L3.923,66.778L6.516,66.778L7.79,66.778L9.196,66.778L10.349,66.778L11.607,66.778L14.18,66.778L15.468,66.778L16.833,66.778L18.023,66.778L19.301,66.778L21.898,66.778L23.154,66.778L24.526,66.778L25.717,66.778L26.982,66.778L29.609,66.778L30.871,66.778L32.288,66.778L32.785,66.778L33.43,66.778L34.663,66.778L37.239,66.778L38.54,66.778L39.906,66.778L41.099,66.778L42.349,66.778L44.93,66.778L46.219,66.778L47.641,66.778L48.216,66.778L48.785,66.778L50.047,66.778L52.614,66.778L53.914,66.778L55.286,66.778L56.479,66.778L57.731,66.778L60.305,66.778L61.6,66.778L62.971,66.778L64.159,66.778L65.416,66.778L67.988,66.778L69.277,66.778L70.636,66.778L71.828,66.778L73.097,66.778L75.686,66.778L76.961,66.778L78.329,66.778L79.526,66.778L80.788,66.778L83.386,66.778L84.683,66.778L86.086,66.778L87.234,66.778L88.486,66.778L91.062,66.778L92.367,66.778L94.915,66.778L96.166,66.778L98.741,66.778L100.04,66.778L100.545,66.778L101.41,66.778L102.267,66.778L102.603,66.778L103.861,66.778L106.428,66.778L107.732,66.778L109.101,66.778L110.29,66.778L111.546,66.778L114.117,66.778L115.415,66.778L116.781,66.778L117.976,66.778L119.231,66.778L121.797,66.778L123.086,66.778L124.446,66.778L125.646,66.778L126.855,66.778L126.915,66.778L129.489,66.778L130.31,66.778L130.771,66.778L132.138,66.778L133.338,66.778L134.606,66.778L137.202,66.778L138.495,66.778L139.859,66.778L141.037,66.778L142.293,66.778L144.879,66.778L146.179,66.778L147.553,66.778L148.73,66.778L149.987,66.778L152.558,66.778L153.855,66.778L155.225,66.778L156.415,66.778L157.673,66.778L160.244,66.778L161.547,66.778L162.906,66.778L164.11,66.778L165.36,66.778L167.936,66.778L169.234,66.778L170.599,66.778L171.784,66.778L173.051,66.778L175.617,66.778L176.276,66.778L176.899,66.778L178.256,66.778L179.459,66.778L180.735,66.778L183.303,66.778L184.587,66.778L185.949,66.778L187.149,66.778L188.424,66.778L191.005,66.778L192.312,66.778L193.683,66.778L194.865,66.778L196.124,66.778L198.69,66.778L199.998,66.778" stroke="#54a24b" stroke-width="2"/></g></g><path class="foreground" aria-hidden="true" d="" display="none"/></g><g transform="translate(0,0)"><path class="background" aria-hidden="true" d="M0,0h200v200h-200Z"/><g><g class="mark-line role-mark marks" role="graphics-object" aria-roledescription="line mark container"><path aria-label="Time: Aug 18, 2025; Price: 899; identifier: sdrbike-escape-1-city-disc" role="graphics-symbol" aria-roledescription="line mark" d="M32.785,100.111L33.431,100.111L34.663,100.111L37.239,100.111L38.541,100.111L39.906,100.111L41.099,100.111L42.35,100.111L44.931,100.111L46.219,100.111L47.641,100.111L48.216,100.111L48.785,100.111L50.047,100.111L52.615,100.111L53.914,100.111L55.286,100.111L56.479,100.111L57.732,100.111L60.305,100.111L61.601,100.111L62.972,100.111L64.16,100.111L65.416,100.111L67.989,100.111L69.277,100.111L70.636,100.111L71.828,100.111L73.097,100.111L75.687,100.111L76.961,100.111L78.33,100.111L79.526,100.111L80.788,100.111L83.386,100.111L84.683,100.111L86.086,100.111L87.234,100.111L88.486,100.111L91.063,100.111L92.367,100.111L94.916,100.111L96.167,100.111L98.741,100.111L100.04,100.111L100.545,100.111L101.41,100.111L102.267,100.111L102.603,100.111L103.861,100.111L106.429,100.111L107.732,100.111L109.102,100.111L110.29,100.111L111.546,100.111L114.118,100.111L115.416,100.111L116.781,100.111L117.976,100.111L119.231,100.111L121.798,100.111L123.086,100.111L124.446,100.111L125.646,100.111L126.855,100.111L126.915,100.111L129.49,100.111L130.311,100.111L130.771,100.111L132.139,100.111L133.339,100.111L134.606,100.111L137.203,100.111L138.495,100.111L139.86,100.111L141.037,100.111L142.293,100.111L144.879,100.111L146.179,100.111L147.553,100.111L148.731,100.111L149.987,100.111L152.558,100.111L153.855,100.111L155.225,100.111L156.416,100.111L157.673,100.111L160.244,100.111L161.547,100.111L162.907,100.111L164.11,100.111L165.36,100.111L167.936,100.111L169.234,100.111L170.599,100.111L171.784,100.111L173.051,100.111L175.617,100.111L176.276,100.111L176.9,100.111L178.256,100.111L179.46,100.111L180.736,100.111L183.303,100.111L184.587,100.111L185.949,100.111L187.149,100.111L188.424,100.111L191.005,100.111L192.312,100.111L193.684,100.111L194.865,100.111L196.124,100.111L198.69,100.111L199.998,100.111" stroke="#f58518" stroke-width="2"/></g></g><path class="foreground" aria-hidden="true" d="" display="none"/></g><g transform="translate(0,0)"><path class="background" aria-hidden="true" d="M0,0h200v200h-200Z"/><g><g class="mark-line role-mark marks" role="graphics-object" aria-roledescription="line mark container"><path aria-label="Time: Aug 20, 2025; Price: 899; identifier: roam-disc-2-2024" role="graphics-symbol" aria-roledescription="line mark" d="M48.215,100.111L48.784,100.111L50.046,100.111L52.614,100.111L53.913,100.111L55.285,100.111L56.478,100.111L57.731,100.111L60.305,100.111L61.6,100.111L62.971,100.111L64.159,100.111L65.416,100.111L67.988,100.111L69.276,100.111L70.636,100.111L71.827,100.111L73.096,100.111L75.686,100.111L76.96,100.111L78.328,100.111L79.525,100.111L80.788,100.111L83.385,100.111L84.683,100.111L86.085,100.111L87.233,100.111L88.485,100.111L91.061,100.111L92.366,100.111L94.915,100.111L96.166,100.111L98.74,100.111L100.04,100.111L100.544,100.111L101.409,100.111L102.267,100.111L102.602,100.111L103.86,100.111L106.428,100.111L107.731,100.111L109.101,100.111L110.29,100.111L111.546,100.111L114.117,100.111L115.415,100.111L116.781,100.111L117.975,100.111L119.23,100.111L121.797,100.111L123.085,100.111L124.445,100.111L125.645,100.111L126.854,100.111L126.914,100.111L129.489,100.111L130.31,100.111L130.771,100.111L132.138,100.111L133.338,100.111L134.605,100.111L137.202,100.111L138.494,100.111L139.859,100.111L141.036,100.111L142.292,100.111L144.878,100.111L146.178,100.111L147.552,100.111L148.73,100.111L149.986,100.111L152.557,100.111L153.855,100.111L155.224,100.111L156.415,100.111L157.672,100.111L160.244,100.111L161.546,100.111L162.906,100.111L164.109,100.111L165.359,100.111L167.936,100.111L169.233,100.111L170.599,100.111L171.783,100.111L173.05,100.111L175.616,100.111L176.276,100.111L176.899,100.111L178.255,100.111L179.459,100.111L180.735,100.111L183.302,100.111L184.587,100.111L185.949,100.111L187.148,100.111L188.423,100.111L191.004,100.111L192.311,100.111L193.683,100.111L194.864,100.111L196.123,100.111L198.69,100.111L199.997,100.111" stroke="#e45756" stroke-width="2"/></g></g><path class="foreground" aria-hidden="true" d="" display="none"/></g><g transform="translate(0,0)"><path class="background" aria-hidden="true" d="M0,0h200v200h-200Z"/><g><g class="mark-line role-mark marks" role="graphics-object" aria-roledescription="line mark container"><path aria-label="Time: Aug 20, 2025; Price: 1199; identifier: thrive-2" role="graphics-symbol" aria-roledescription="line mark" d="M48.216,66.778L48.785,66.778L50.048,66.778L52.615,66.778L53.914,66.778L55.286,66.778L56.479,66.778L57.732,66.778L60.306,66.778L61.601,66.778L62.972,66.778L64.16,66.778L65.416,66.778L67.989,66.778L69.278,66.778L70.637,66.778L71.828,66.778L73.097,66.778L75.687,66.778L76.961,66.778L78.33,66.778L79.526,66.778L80.788,66.778L83.386,66.778L84.684,66.778L86.086,66.778L87.234,66.778L88.486,66.778L91.063,66.778L92.367,66.778L94.916,66.778L96.167,66.778L98.741,66.778L100.041,66.778L100.546,66.778L101.41,66.778L102.267,66.778L102.603,66.778L103.861,66.778L106.429,66.778L107.733,66.778L109.102,66.778L110.29,66.778L111.547,66.778L114.118,66.778L115.416,66.778L116.782,66.778L117.976,66.778L119.231,66.778L121.798,66.778L123.086,66.778L124.447,66.778L125.646,66.778L126.855,66.778L126.915,66.778L129.49,66.778L130.311,66.778L130.772,66.778L132.139,66.778L133.339,66.778L134.606,66.778L137.203,66.778L138.495,66.778L139.86,66.778L141.037,66.778L142.293,66.778L144.879,66.778L146.179,66.778L147.553,66.778L148.731,66.778L149.987,66.778L152.558,66.778L153.856,66.778L155.225,66.778L156.416,66.778L157.673,66.778L160.245,66.778L161.547,66.778L162.907,66.778L164.11,66.778L165.36,66.778L167.937,66.778L169.234,66.778L170.6,66.778L171.784,66.778L173.051,66.778L175.617,66.778L176.276,66.778L176.9,66.778L178.256,66.778L179.46,66.778L180.736,66.778L183.303,66.778L184.588,66.778L185.95,66.778L187.149,66.778L188.424,66.778L191.005,66.778L192.313,66.778L193.684,66.778L194.865,66.778L196.124,66.778L198.691,66.778L199.998,66.778" stroke="#eeca3b" stroke-width="2"/></g></g><path class="foreground" aria-hidden="true" d="" display="none"/></g><g transform="translate(0,0)"><path class="background" aria-hidden="true" d="M0,0h200v200h-200Z"/><g><g class="mark-line role-mark marks" role="graphics-object" aria-roledescription="line mark container"><path aria-label="Time: Aug 20, 2025; Price: 999; identifier: rove-2" role="graphics-symbol" aria-roledescription="line mark" d="M48.216,89L48.786,89L50.048,89L52.615,89L53.915,89L55.286,89L56.479,89L57.732,89L60.306,89L61.601,89L62.972,89L64.16,89L65.417,89L67.989,89L69.278,89L70.637,89L71.828,89L73.098,89L75.687,89L76.961,89L78.33,89L79.526,89L80.789,89L83.386,89L84.684,89L86.087,89L87.235,89L88.486,89L91.063,89L92.368,89L94.916,89L96.167,89L98.742,89L100.041,89L100.546,89L101.41,89L102.267,89L102.603,89L103.861,89L106.429,89L107.733,89L109.102,89L110.291,89L111.547,89L114.118,89L115.416,89L116.782,89L117.976,89L119.231,89L126.855,111.222L126.915,111.222L129.49,111.222L130.311,111.222L130.772,111.222L132.139,111.222L133.339,111.222L134.606,111.222L137.203,111.222L138.496,111.222L139.86,111.222L141.037,111.222L142.294,111.222L144.88,111.222L146.179,111.222L147.553,111.222L148.731,111.222L149.987,111.222L152.558,111.222L153.856,111.222L155.225,111.222L156.416,111.222L157.673,111.222L160.245,111.222L161.547,111.222L162.907,111.222L164.11,111.222L165.36,111.222L167.937,111.222L169.234,111.222L170.6,111.222L171.784,111.222L173.052,111.222L175.617,111.222L176.277,111.222L176.9,111.222L178.256,111.222L179.46,111.222L180.736,111.222L183.303,111.222L184.588,111.222L185.95,111.222L187.149,111.222L188.424,111.222L191.005,111.222L192.313,111.222L193.684,111.222L194.865,111.222L196.124,111.222L198.691,111.222L199.998,111.222" stroke="#72b7b2" stroke-width="2"/></g></g><path class="foreground" aria-hidden="true" d="" display="none"/></g><g transform="translate(0,0)"><path class="background" aria-hidden="true" d="M0,0h200v200h-200Z"/><g><g class="mark-line role-mark marks" role="graphics-object" aria-roledescription="line mark container"><path aria-label="Time: Aug 27, 2025; Price: 1199; identifier: allure-rs-1-2023" role="graphics-symbol" aria-roledescription="line mark" d="M100.547,66.778L101.41,66.778L102.268,66.778L102.603,66.778L103.861,66.778L106.429,66.778L107.733,66.778L109.102,66.778L110.291,66.778L111.547,66.778L114.118,66.778L115.416,66.778L116.782,66.778L117.976,66.778L119.231,66.778L121.798,66.778L123.087,66.778L124.447,66.778L125.646,66.778L126.856,66.778L126.915,66.778L129.49,66.778L130.311,66.778L130.772,66.778L132.139,66.778L133.339,66.778L134.607,66.778L137.203,66.778L138.496,66.778L139.86,66.778L141.038,66.778L142.294,66.778L144.88,66.778L146.18,66.778L147.554,66.778L148.731,66.778L149.988,66.778L152.558,66.778L153.856,66.778L155.225,66.778L156.416,66.778L157.673,66.778L160.245,66.778L161.548,66.778L162.907,66.778L164.11,66.778L165.361,66.778L167.937,66.778L169.234,66.778L170.6,66.778L171.784,66.778L173.052,66.778L175.617,66.778L176.277,66.778L176.9,66.778L178.256,66.778L179.46,66.778L180.736,66.778L183.303,66.778L184.588,66.778L185.95,66.778L187.15,66.778L188.424,66.778L191.006,66.778L192.313,66.778L193.684,66.778L194.865,66.778L196.125,66.778L198.691,66.778L199.999,66.778" stroke="#b279a2" stroke-width="2"/></g></g><path class="foreground" aria-hidden="true" d="" display="none"/></g><g transform="translate(0,0)"><path class="background" aria-hidden="true" d="M0,0h200v200h-200Z"/><g><g class="mark-line role-mark marks" role="graphics-object" aria-roledescription="line mark container"><path aria-label="Time: Aug 27, 2025; Price: 999; identifier: allure-rs-2-2022" role="graphics-symbol" aria-roledescription="line mark" d="M100.547,89L101.41,89L102.268,89L102.604,89L103.862,89L106.429,89L107.733,89L109.103,89L110.291,89L111.547,89L114.118,89L115.416,89L116.782,89L117.976,89L119.232,89L126.856,111.222L126.915,111.222L129.49,111.222L130.311,111.222L130.772,111.222L132.14,111.222L133.339,111.222L134.607,111.222L137.203,111.222L138.496,111.222L139.86,111.222L141.038,111.222L142.294,111.222L144.88,111.222L146.18,111.222L147.554,111.222L148.731,111.222L149.988,111.222L152.559,111.222L153.856,111.222L155.226,111.222L156.416,111.222L157.674,111.222L160.245,111.222L161.548,111.222L162.907,111.222L164.111,111.222L165.361,111.222L167.937,111.222L169.234,111.222L170.6,111.222L171.785,111.222L173.052,111.222L175.617,111.222L176.277,111.222L176.901,111.222L178.257,111.222L179.46,111.222L180.736,111.222L183.304,111.222L184.588,111.222L185.95,111.222L187.15,111.222L188.424,111.222L191.006,111.222L192.313,111.222L193.685,111.222L194.866,111.222L196.125,111.222L198.691,111.222L199.999,111.222" stroke="#54a24b" stroke-width="2"/></g></g><path class="foreground" aria-hidden="true" d="" display="none"/></g><g transform="translate(0,0)"><path class="background" aria-hidden="true" d="M0,0h200v200h-200Z"/><g><g class="mark-line role-mark marks" role="graphics-object" aria-roledescription="line mark container"><path aria-label="Time: Aug 27, 2025; Price: 949; identifier: allure-rs-2-2023" role="graphics-symbol" aria-roledescription="line mark" d="M100.548,94.556L101.411,94.556L102.268,94.556L102.604,94.556L103.862,94.556L106.429,94.556L107.733,94.556L109.103,94.556L110.291,94.556L111.547,94.556L114.119,94.556L115.417,94.556L116.782,94.556L117.977,94.556L119.232,94.556L121.798,94.556L123.087,94.556L124.447,94.556L125.647,94.556L126.856,94.556L126.915,94.556L129.49,94.556L130.311,94.556L130.772,94.556L132.14,94.556L133.339,94.556L134.607,94.556L137.204,94.556L138.496,94.556L139.86,94.556L141.038,94.556L142.294,94.556L144.88,94.556L146.18,94.556L147.554,94.556L148.731,94.556L149.988,94.556L152.559,94.556L153.856,94.556L155.226,94.556L156.416,94.556L157.674,94.556L160.245,94.556L161.548,94.556L162.907,94.556L164.111,94.556L165.361,94.556L167.937,94.556L169.235,94.556L170.6,94.556L171.785,94.556L173.052,94.556L175.618,94.556L176.277,94.556L176.901,94.556L178.257,94.556L179.46,94.556L180.736,94.556L183.304,94.556L184.588,94.556L185.95,94.556L187.15,94.556L188.425,94.556L191.006,94.556L192.313,94.556L193.685,94.556L194.866,94.556L196.125,94.556L198.691,94.556L199.999,94.556" stroke="#bab0ac" stroke-width="2"/></g></g><path class="foreground" aria-hidden="true" d="" display="none"/></g><g transform="translate(0,0)"><path class="background" aria-hidden="true" d="M0,0h200v200h-200Z"/><g><g class="mark-line role-mark marks" role="graphics-object" aria-roledescription="line mark container"><path aria-label="Time: Aug 27, 2025; Price: 999; identifier: allure-rs-2-2024" role="graphics-symbol" aria-roledescription="line mark" d="M100.548,89L101.411,89L102.268,89L102.604,89L103.862,89L106.43,89L107.734,89L109.103,89L110.291,89L111.547,89L114.119,89L115.417,89L116.783,89L117.977,89L119.232,89L126.856,111.222L126.916,111.222L129.49,111.222L130.312,111.222L130.773,111.222L132.14,111.222L133.34,111.222L134.607,111.222L137.204,111.222L138.496,111.222L139.861,111.222L141.038,111.222L142.294,111.222L144.88,111.222L146.18,111.222L147.554,111.222L148.732,111.222L149.988,111.222L152.559,111.222L153.856,111.222L155.226,111.222L156.416,111.222L157.674,111.222L160.246,111.222L161.548,111.222L162.908,111.222L164.111,111.222L165.361,111.222L167.937,111.222L169.235,111.222L170.6,111.222L171.785,111.222L173.052,111.222L175.618,111.222L176.277,111.222L176.901,111.222L178.257,111.222L179.461,111.222L180.736,111.222L183.304,111.222L184.589,111.222L185.95,111.222L187.15,111.222L188.425,111.222L191.006,111.222L192.314,111.222L193.685,111.222L194.866,111.222L196.125,111.222L198.691,111.222L199.999,111.222" stroke="#eeca3b" stroke-width="2"/></g></g><path class="foreground" aria-hidden="true" d="" display="none"/></g><g transform="translate(0,0)"><path class="background" aria-hidden="true" d="M0,0h200v200h-200Z"/><g><g class="mark-line role-mark marks" role="graphics-object" aria-roledescription="line mark container"><path aria-label="Time: Aug 27, 2025; Price: 1799; identifier: devote-1-2024" role="graphics-symbol" aria-roledescription="line mark" d="M102.268,0.111L102.604,0.111L103.862,0.111L106.43,0.111L107.734,0.111L109.103,0.111L110.291,0.111L111.548,0.111L114.119,0.111L115.417,0.111L116.783,0.111L117.977,0.111L119.232,0.111L126.856,44.556L126.916,44.556L129.491,44.556L130.312,44.556L130.773,44.556L132.14,44.556L133.34,44.556L134.607,44.556L137.204,44.556L138.496,44.556L139.861,44.556L141.038,44.556L142.295,44.556L144.881,44.556L146.18,44.556L147.554,44.556L148.732,44.556L149.988,44.556L152.559,44.556L153.856,44.556L155.226,44.556L156.417,44.556L157.674,44.556L160.246,44.556L161.548,44.556L162.908,44.556L164.111,44.556L165.361,44.556L167.937,44.556L169.235,44.556L170.601,44.556L171.785,44.556L173.052,44.556L175.618,44.556L176.277,44.556L176.901,44.556L178.257,44.556L179.461,44.556L180.737,44.556L183.304,44.556L184.589,44.556L185.951,44.556L187.15,44.556L188.425,44.556L191.006,44.556L192.314,44.556L193.685,44.556L194.866,44.556L196.125,44.556L198.692,44.556L199.999,44.556" stroke="#72b7b2" stroke-width="2"/></g></g><path class="foreground" aria-hidden="true" d="" display="none"/></g><g transform="translate(0,0)"><path class="background" aria-hidden="true" d="M0,0h200v200h-200Z"/><g><g class="mark-line role-mark marks" role="graphics-object" aria-roledescription="line mark container"><path aria-label="Time: Aug 27, 2025; Price: 1699; identifier: devote-1-2022" role="graphics-symbol" aria-roledescription="line mark" d="M102.268,11.222L102.604,11.222L103.862,11.222L106.43,11.222L107.734,11.222L109.103,11.222L110.292,11.222L111.548,11.222L114.119,11.222L115.417,11.222L116.783,11.222L117.977,11.222L119.232,11.222L121.799,11.222L123.087,11.222L124.448,11.222L125.647,11.222L126.857,11.222L126.916,11.222L129.491,11.222L130.312,11.222L130.773,11.222L132.14,11.222L133.34,11.222L134.607,11.222L137.204,11.222L138.496,11.222L139.861,11.222L141.039,11.222L142.295,11.222L144.881,11.222L146.18,11.222L147.555,11.222L148.732,11.222L149.989,11.222L152.559,11.222L153.857,11.222L155.226,11.222L156.417,11.222L157.674,11.222L160.246,11.222L161.548,11.222L162.908,11.222L164.111,11.222L165.362,11.222L167.938,11.222L169.235,11.222L170.601,11.222L171.785,11.222L173.052,11.222L175.618,11.222L176.277,11.222L176.901,11.222L178.258,11.222L179.461,11.222L180.737,11.222L183.304,11.222L184.589,11.222L185.951,11.222L187.15,11.222L188.425,11.222L191.006,11.222L192.314,11.222L193.685,11.222L194.866,11.222L196.125,11.222L198.692,11.222L199.999,11.222" stroke="#4c78a8" stroke-width="2"/></g></g><path class="foreground" aria-hidden="true" d="" display="none"/></g><g transform="translate(0,0)"><path class="background" aria-hidden="true" d="M0,0h200v200h-200Z"/><g><g class="mark-line role-mark marks" role="graphics-object" aria-roledescription="line mark container"><path aria-label="Time: Aug 31, 2025; Price: 1599; identifier: silex-400-oak-bork-2026" role="graphics-symbol" aria-roledescription="line mark" d="M130.312,22.333L130.773,22.333L132.141,22.333L133.34,22.333L134.608,22.333L137.204,22.333L138.497,22.333L139.861,22.333L141.039,22.333L142.295,22.333L144.881,22.333L146.181,22.333L147.555,22.333L148.732,22.333L149.989,22.333L152.559,22.333L153.857,22.333L155.227,22.333L156.417,22.333L157.675,22.333L160.246,22.333L161.549,22.333L162.908,22.333L164.112,22.333L165.362,22.333L167.938,22.333L169.235,22.333L170.601,22.333L171.786,22.333L173.053,22.333L175.618,22.333L176.278,22.333L176.902,22.333L178.258,22.333L179.461,22.333L180.737,22.333L183.305,22.333L184.589,22.333L185.951,22.333L187.151,22.333L188.425,22.333L191.007,22.333L192.314,22.333L193.686,22.333L194.867,22.333L196.126,22.333L198.692,22.333L200,22.333" stroke="#f58518" stroke-width="2"/></g></g><path class="foreground" aria-hidden="true" d="" display="none"/></g><g transform="translate(0,0)"><path class="background" aria-hidden="true" d="M0,0h200v200h-200Z"/><g><g class="mark-line role-mark marks" role="graphics-object" aria-roledescription="line mark container"><path aria-label="Time: Aug 31, 2025; Price: 1599; identifier: silex-400-warm-slate-grey-2026" role="graphics-symbol" aria-roledescription="line mark" d="M130.312,22.333L130.774,22.333L132.141,22.333L133.34,22.333L134.608,22.333L137.205,22.333L138.497,22.333L139.862,22.333L141.039,22.333L142.295,22.333L144.881,22.333L146.181,22.333L147.556,22.333L148.732,22.333L149.989,22.333L152.56,22.333L153.857,22.333L155.227,22.333L156.417,22.333L157.675,22.333L160.247,22.333L161.549,22.333L162.909,22.333L164.112,22.333L165.362,22.333L167.938,22.333L169.236,22.333L170.601,22.333L171.786,22.333L173.053,22.333L175.619,22.333L176.278,22.333L176.902,22.333L178.259,22.333L179.461,22.333L180.737,22.333L183.305,22.333L184.59,22.333L185.951,22.333L187.151,22.333L188.426,22.333L191.007,22.333L192.315,22.333L193.686,22.333L194.867,22.333L196.126,22.333L198.692,22.333L200,22.333" stroke="#e45756" stroke-width="2"/></g></g><path class="foreground" aria-hidden="true" d="" display="none"/></g></g><g class="mark-group role-legend" role="graphics-symbol" aria-roledescription="legend" aria-label="Symbol legend titled 'identifier' for stroke color with 16 values: devote-1-2022, silex-400-oak-bork-2026, silex-400-warm-slate-grey-2026, devote-1-2024, fastroad-ar-2, ending with allure-rs-2-2024"><g transform="translate(220,0)"><path class="background" aria-hidden="true" d="M0,0h256v222h-256Z" pointer-events="none"/><g><g class="mark-group role-legend-entry"><g transform="translate(0,16)"><path class="background" aria-hidden="true" d="M0,0h0v0h0Z" pointer-events="none"/><g><g class="mark-group role-scope" role="graphics-object" aria-roledescription="group mark container"><g transform="translate(0,0)"><path class="background" aria-hidden="true" d="M0,0h256v11h-256Z" pointer-events="none" opacity="1"/><g><g class="mark-symbol role-legend-symbol" pointer-events="none"><path transform="translate(6,6)" d="M-5,0L5,0" stroke="#4c78a8" stroke-width="1.5" opacity="1"/></g><g class="mark-text role-legend-label" pointer-events="none"><text text-anchor="start" transform="translate(16,9)" font-family="Liberation Mono" font-size="10px" fill="#000" opacity="1">devote-1-2022</text></g></g><path class="foreground" aria-hidden="true" d="" pointer-events="none" display="none"/></g><g transform="translate(0,13)"><path class="background" aria-hidden="true" d="M0,0h256v11h-256Z" pointer-events="none" opacity="1"/><g><g class="mark-symbol role-legend-symbol" pointer-events="none"><path transform="translate(6,6)" d="M-5,0L5,0" stroke="#f58518" stroke-width="1.5" opacity="1"/></g><g class="mark-text role-legend-label" pointer-events="none"><text text-anchor="start" transform="translate(16,9)" font-family="Liberation Mono" font-size="10px" fill="#000" opacity="1">silex-400-oak-bork-2026</text></g></g><path class="foreground" aria-hidden="true" d="" pointer-events="none" display="none"/></g><g transform="translate(0,26)"><path class="background" aria-hidden="true" d="M0,0h256v11h-256Z" pointer-events="none" opacity="1"/><g><g class="mark-symbol role-legend-symbol" pointer-events="none"><path transform="translate(6,6)" d="M-5,0L5,0" stroke="#e45756" stroke-width="1.5" opacity="1"/></g><g class="mark-text role-legend-label" pointer-events="none"><text text-anchor="start" transform="translate(16,9)" font-family="Liberation Mono" font-size="10px" fill="#000" opacity="1">silex-400-warm-slate-grey-2026</text></g></g><path class="foreground" aria-hidden="true" d="" pointer-events="none" display="none"/></g><g transform="translate(0,39)"><path class="background" aria-hidden="true" d="M0,0h256v11h-256Z" pointer-events="none" opacity="1"/><g><g class="mark-symbol role-legend-symbol" pointer-events="none"><path transform="translate(6,6)" d="M-5,0L5,0" stroke="#72b7b2" stroke-width="1.5" opacity="1"/></g><g class="mark-text role-legend-label" pointer-events="none"><text text-anchor="start" transform="translate(16,9)" font-family="Liberation Mono" font-size="10px" fill="#000" opacity="1">devote-1-2024</text></g></g><path class="foreground" aria-hidden="true" d="" pointer-events="none" display="none"/></g><g transform="translate(0,52)"><path class="background" aria-hidden="true" d="M0,0h256v11h-256Z" pointer-events="none" opacity="1"/><g><g class="mark-symbol role-legend-symbol" pointer-events="none"><path transform="translate(6,6)" d="M-5,0L5,0" stroke="#54a24b" stroke-width="1.5" opacity="1"/></g><g class="mark-text role-legend-label" pointer-events="none"><text text-anchor="start" transform="translate(16,9)" font-family="Liberation Mono" font-size="10px" fill="#000" opacity="1">fastroad-ar-2</text></g></g><path class="foreground" aria-hidden="true" d="" pointer-events="none" display="none"/></g><g transform="translate(0,65)"><path class="background" aria-hidden="true" d="M0,0h256v11h-256Z" pointer-events="none" opacity="1"/><g><g class="mark-symbol role-legend-symbol" pointer-events="none"><path transform="translate(6,6)" d="M-5,0L5,0" stroke="#eeca3b" stroke-width="1.5" opacity="1"/></g><g class="mark-text role-legend-label" pointer-events="none"><text text-anchor="start" transform="translate(16,9)" font-family="Liberation Mono" font-size="10px" fill="#000" opacity="1">thrive-2</text></g></g><path class="foreground" aria-hidden="true" d="" pointer-events="none" display="none"/></g><g transform="translate(0,78)"><path class="background" aria-hidden="true" d="M0,0h256v11h-256Z" pointer-events="none" opacity="1"/><g><g class="mark-symbol role-legend-symbol" pointer-events="none"><path transform="translate(6,6)" d="M-5,0L5,0" stroke="#b279a2" stroke-width="1.5" opacity="1"/></g><g class="mark-text role-legend-label" pointer-events="none"><text text-anchor="start" transform="translate(16,9)" font-family="Liberation Mono" font-size="10px" fill="#000" opacity="1">allure-rs-1-2023</text></g></g><path class="foreground" aria-hidden="true" d="" pointer-events="none" display="none"/></g><g transform="translate(0,91)"><path class="background" aria-hidden="true" d="M0,0h256v11h-256Z" pointer-events="none" opacity="1"/><g><g class="mark-symbol role-legend-symbol" pointer-events="none"><path transform="translate(6,6)" d="M-5,0L5,0" stroke="#ff9da6" stroke-width="1.5" opacity="1"/></g><g class="mark-text role-legend-label" pointer-events="none"><text text-anchor="start" transform="translate(16,9)" font-family="Liberation Mono" font-size="10px" fill="#000" opacity="1">roam-2</text></g></g><path class="foreground" aria-hidden="true" d="" pointer-events="none" display="none"/></g><g transform="translate(0,104)"><path class="background" aria-hidden="true" d="M0,0h256v11h-256Z" pointer-events="none" opacity="1"/><g><g class="mark-symbol role-legend-symbol" pointer-events="none"><path transform="translate(6,6)" d="M-5,0L5,0" stroke="#9d755d" stroke-width="1.5" opacity="1"/></g><g class="mark-text role-legend-label" pointer-events="none"><text text-anchor="start" transform="translate(16,9)" font-family="Liberation Mono" font-size="10px" fill="#000" opacity="1">fastroad-sl-3-2022</text></g></g><path class="foreground" aria-hidden="true" d="" pointer-events="none" display="none"/></g><g transform="translate(0,117)"><path class="background" aria-hidden="true" d="M0,0h256v11h-256Z" pointer-events="none" opacity="1"/><g><g class="mark-symbol role-legend-symbol" pointer-events="none"><path transform="translate(6,6)" d="M-5,0L5,0" stroke="#bab0ac" stroke-width="1.5" opacity="1"/></g><g class="mark-text role-legend-label" pointer-events="none"><text text-anchor="start" transform="translate(16,9)" font-family="Liberation Mono" font-size="10px" fill="#000" opacity="1">allure-rs-2-2023</text></g></g><path class="foreground" aria-hidden="true" d="" pointer-events="none" display="none"/></g><g transform="translate(0,130)"><path class="background" aria-hidden="true" d="M0,0h256v11h-256Z" pointer-events="none" opacity="1"/><g><g class="mark-symbol role-legend-symbol" pointer-events="none"><path transform="translate(6,6)" d="M-5,0L5,0" stroke="#4c78a8" stroke-width="1.5" opacity="1"/></g><g class="mark-text role-legend-label" pointer-events="none"><text text-anchor="start" transform="translate(16,9)" font-family="Liberation Mono" font-size="10px" fill="#000" opacity="1">escape-city-disc-1-2024</text></g></g><path class="foreground" aria-hidden="true" d="" pointer-events="none" display="none"/></g><g transform="translate(0,143)"><path class="background" aria-hidden="true" d="M0,0h256v11h-256Z" pointer-events="none" opacity="1"/><g><g class="mark-symbol role-legend-symbol" pointer-events="none"><path transform="translate(6,6)" d="M-5,0L5,0" stroke="#f58518" stroke-width="1.5" opacity="1"/></g><g class="mark-text role-legend-label" pointer-events="none"><text text-anchor="start" transform="translate(16,9)" font-family="Liberation Mono" font-size="10px" fill="#000" opacity="1">sdrbike-escape-1-city-disc</text></g></g><path class="foreground" aria-hidden="true" d="" pointer-events="none" display="none"/></g><g transform="translate(0,156)"><path class="background" aria-hidden="true" d="M0,0h256v11h-256Z" pointer-events="none" opacity="1"/><g><g class="mark-symbol role-legend-symbol" pointer-events="none"><path transform="translate(6,6)" d="M-5,0L5,0" stroke="#e45756" stroke-width="1.5" opacity="1"/></g><g class="mark-text role-legend-label" pointer-events="none"><text text-anchor="start" transform="translate(16,9)" font-family="Liberation Mono" font-size="10px" fill="#000" opacity="1">roam-disc-2-2024</text></g></g><path class="foreground" aria-hidden="true" d="" pointer-events="none" display="none"/></g><g transform="translate(0,169)"><path class="background" aria-hidden="true" d="M0,0h256v11h-256Z" pointer-events="none" opacity="1"/><g><g class="mark-symbol role-legend-symbol" pointer-events="none"><path transform="translate(6,6)" d="M-5,0L5,0" stroke="#72b7b2" stroke-width="1.5" opacity="1"/></g><g class="mark-text role-legend-label" pointer-events="none"><text text-anchor="start" transform="translate(16,9)" font-family="Liberation Mono" font-size="10px" fill="#000" opacity="1">rove-2</text></g></g><path class="foreground" aria-hidden="true" d="" pointer-events="none" display="none"/></g><g transform="translate(0,182)"><path class="background" aria-hidden="true" d="M0,0h256v11h-256Z" pointer-events="none" opacity="1"/><g><g class="mark-symbol role-legend-symbol" pointer-events="none"><path transform="translate(6,6)" d="M-5,0L5,0" stroke="#54a24b" stroke-width="1.5" opacity="1"/></g><g class="mark-text role-legend-label" pointer-events="none"><text text-anchor="start" transform="translate(16,9)" font-family="Liberation Mono" font-size="10px" fill="#000" opacity="1">allure-rs-2-2022</text></g></g><path class="foreground" aria-hidden="true" d="" pointer-events="none" display="none"/></g><g transform="translate(0,195)"><path class="background" aria-hidden="true" d="M0,0h256v11h-256Z" pointer-events="none" opacity="1"/><g><g class="mark-symbol role-legend-symbol" pointer-events="none"><path transform="translate(6,6)" d="M-5,0L5,0" stroke="#eeca3b" stroke-width="1.5" opacity="1"/></g><g class="mark-text role-legend-label" pointer-events="none"><text text-anchor="start" transform="translate(16,9)" font-family="Liberation Mono" font-size="10px" fill="#000" opacity="1">allure-rs-2-2024</text></g></g><path class="foreground" aria-hidden="true" d="" pointer-events="none" display="none"/></g></g></g><path class="foreground" aria-hidden="true" d="" pointer-events="none" display="none"/></g></g><g class="mark-text role-legend-title" pointer-events="none"><text text-anchor="start" transform="translate(0,9)" font-family="Liberation Mono" font-size="11px" font-weight="bold" fill="#000" opacity="1">identifier</text></g></g><path class="foreground" aria-hidden="true" d="" pointer-events="none" display="none"/></g></g></g><path class="foreground" aria-hidden="true" d="" display="none"/></g></g></g></svg>