<svg xmlns="http://www.w3.org/2000/svg" xmlns:xlink="http://www.w3.org/1999/xlink" version="1.1" class="marks" width="548" height="244" viewBox="0 0 548 244"><rect width="548" height="244" fill="white"/><g fill="none" stroke-miterlimit="10" transform="translate(67,7)"><g class="mark-group role-frame root" role="graphics-object" aria-roledescription="group mark container"><g transform="translate(0,0)"><path class="background" aria-hidden="true" d="M0.5,0.5h200v200h-200Z" stroke="#ddd"/><g><g class="mark-group role-axis" aria-hidden="true"><g transform="translate(0.5,200.5)"><path class="background" aria-hidden="true" d="M0,0h0v0h0Z" pointer-events="none"/><g><g class="mark-rule role-axis-grid" pointer-events="none"><line transform="translate(17,-200)" x2="0" y2="200" stroke="#ddd" stroke-width="1" opacity="1"/><line transform="translate(63,-200)" x2="0" y2="200" stroke="#ddd" stroke-width="1" opacity="1"/><line transform="translate(109,-200)" x2="0" y2="200" stroke="#ddd" stroke-width="1" opacity="1"/><line transform="translate(155,-200)" x2="0" y2="200" stroke="#ddd" stroke-width="1" opacity="1"/></g></g><path class="foreground" aria-hidden="true" d="" pointer-events="none" display="none"/></g></g><g class="mark-group role-axis" aria-hidden="true"><g transform="translate(0.5,0.5)"><path class="background" aria-hidden="true" d="M0,0h0v0h0Z" pointer-events="none"/><g><g class="mark-rule role-axis-grid" pointer-events="none"><line transform="translate(0,200)" x2="200" y2="0" stroke="#ddd" stroke-width="1" opacity="1"/><line transform="translate(0,144)" x2="200" y2="0" stroke="#ddd" stroke-width="1" opacity="1"/><line transform="translate(0,89)" x2="200" y2="0" stroke="#ddd" stroke-width="1" opacity="1"/><line transform="translate(0,33)" x2="200" y2="0" stroke="#ddd" stroke-width="1" opacity="1"/></g></g><path class="foreground" aria-hidden="true" d="" pointer-events="none" display="none"/></g></g><g class="mark-group role-axis" role="graphics-symbol" aria-roledescription="axis" aria-label="X-axis titled 'Time' for a time scale with values from Thursday, 14 August 2025, 8:34:48 AM to Saturday, 13 September 2025, 8:44:46 PM"><g transform="translate(0.5,200.5)"><path class="background" aria-hidden="true" d="M0,0h0v0h0Z" pointer-events="none"/><g><g class="mark-rule role-axis-tick" pointer-events="none"><line transform="translate(17,0)" x2="0" y2="5" stroke="#888" stroke-width="1" opacity="1"/><line transform="translate(63,0)" x2="0" y2="5" stroke="#888" stroke-width="1" opacity="1"/><line transform="translate(109,0)" x2="0" y2="5" stroke="#888" stroke-width="1" opacity="1"/><line transform="translate(155,0)" x2="0" y2="5" stroke="#888" stroke-width="1" opacity="1"/></g><g class="mark-text role-axis-label" pointer-events="none"><text text-anchor="middle" transform="translate(17.323880466207445,15)" font-family="Liberation Mono" font-size="10px" fill="#000" opacity="1">Aug 17</text><text text-anchor="middle" transform="translate(63.21510630557539,15)" font-family="Liberation Mono" font-size="10px" fill="#000" opacity="0">Aug 24</text><text text-anchor="middle" transform="translate(109.10633214494332,15)" font-family="Liberation Mono" font-size="10px" fill="#000" opacity="0">Aug 31</text><text text-anchor="middle" transform="translate(154.99755798431124,15)" font-family="Liberation Mono" font-size="10px" fill="#000" opacity="1">Sep 07</text></g><g class="mark-rule role-axis-domain" pointer-events="none"><line transform="translate(0,0)" x2="200" y2="0" stroke="#888" stroke-width="1" opacity="1"/></g><g class="mark-text role-axis-title" pointer-events="none"><text text-anchor="middle" transform="translate(100,30)" font-family="Liberation Mono" font-size="11px" font-weight="bold" fill="#000" opacity="1">Time</text></g></g><path class="foreground" aria-hidden="true" d="" pointer-events="none" display="none"/></g></g><g class="mark-group role-axis" role="graphics-symbol" aria-roledescription="axis" aria-label="Y-axis titled 'Price' for a linear scale with values from 0 to 1,800"><g transform="translate(0.5,0.5)"><path class="background" aria-hidden="true" d="M0,0h0v0h0Z" pointer-events="none"/><g><g class="mark-rule role-axis-tick" pointer-events="none"><line transform="translate(0,200)" x2="-5" y2="0" stroke="#888" stroke-width="1" opacity="1"/><line transform="translate(0,144)" x2="-5" y2="0" stroke="#888" stroke-width="1" opacity="1"/><line transform="translate(0,89)" x2="-5" y2="0" stroke="#888" stroke-width="1" opacity="1"/><line transform="translate(0,33)" x2="-5" y2="0" stroke="#888" stroke-width="1" opacity="1"/></g><g class="mark-text role-axis-label" pointer-events="none"><text text-anchor="end" transform="translate(-7,203)" font-family="Liberation Mono" font-size="10px" fill="#000" opacity="1">0</text><text text-anchor="end" transform="translate(-7,147.44444444444443)" font-family="Liberation Mono" font-size="10px" fill="#000" opacity="1">500</text><text text-anchor="end" transform="translate(-7,91.88888888888889)" font-family="Liberation Mono" font-size="10px" fill="#000" opacity="1">1,000</text><text text-anchor="end" transform="translate(-7,36.33333333333333)" font-family="Liberation Mono" font-size="10px" fill="#000" opacity="1">1,500</text></g><g class="mark-rule role-axis-domain" pointer-events="none"><line transform="translate(0,200)" x2="0" y2="-200" stroke="#888" stroke-width="1" opacity="1"/></g><g class="mark-text role-axis-title" pointer-events="none"><text text-anchor="middle" transform="translate(-51,100) rotate(-90) translate(0,-2)" font-family="Liberation Mono" font-size="11px" font-weight="bold" fill="#000" opacity="1">Price</text></g></g><path class="foreground" aria-hidden="true" d="" pointer-events="none" display="none"/></g></g><g class="mark-group role-scope pathgroup" role="graphics-object" aria-roledescription="group mark container"><g transform="translate(0,0)"><path class="background" aria-hidden="true" d="M0,0h200v200h-200Z"/><g><g class="mark-line role-mark marks" role="graphics-object" aria-roledescription="line mark container"><path aria-label="Time: Aug 14, 2025; Price: 899; identifier: escape-city-disc-1-2024" role="graphics-symbol" aria-roledescription="line mark" d="M0,100.111L0.054,100.111L0.097,100.111L1.306,100.111L2.267,100.111L3.345,100.111L5.556,100.111L6.641,100.111L7.84,100.111L8.824,100.111L9.896,100.111L12.091,100.111L13.189,100.111L14.353,100.111L15.367,100.111L16.442,100.111L18.671,100.111L19.743,100.111L20.912,100.111L21.928,100.111L23.006,100.111L25.246,100.111L26.323,100.111L27.53,100.111L27.954,100.111L28.505,100.111L29.556,100.111L31.752,100.111L32.862,100.111L34.026,100.111L35.043,100.111L36.109,100.111L38.31,100.111L39.409,100.111L40.621,100.111L41.111,100.111L41.597,100.111L42.673,100.111L44.862,100.111L45.97,100.111L47.14,100.111L48.157,100.111L49.225,100.111L51.42,100.111L52.524,100.111L53.693,100.111L54.706,100.111L55.778,100.111L57.971,100.111L59.07,100.111L60.229,100.111L61.245,100.111L62.327,100.111L64.535,100.111L65.621,100.111L66.788,100.111L67.809,100.111L68.885,100.111L71.1,100.111L72.206,100.111L73.402,100.111L74.381,100.111L75.448,100.111L77.645,100.111L78.758,100.111L80.93,100.111L81.997,100.111L84.193,100.111L85.3,100.111L85.73,100.111L86.468,100.111L87.199,100.111L87.485,100.111L88.558,100.111L90.747,100.111L91.859,100.111L93.027,100.111L94.04,100.111L95.111,100.111L97.304,100.111L98.41,100.111L99.575,100.111L100.593,100.111L101.663,100.111L103.852,100.111L104.951,100.111L106.11,100.111L107.133,100.111L108.164,100.111L108.215,100.111L110.411,100.111L111.111,100.111L111.504,100.111L112.67,100.111L113.693,100.111L114.774,100.111L116.988,100.111L118.09,100.111L119.253,100.111L120.257,100.111L121.328,100.111L123.533,100.111L124.641,100.111L125.813,100.111L126.817,100.111L127.888,100.111L130.08,100.111L131.187,100.111L132.354,100.111L133.37,100.111L134.442,100.111L136.634,100.111L137.745,100.111L138.904,100.111L139.93,100.111L140.996,100.111L143.193,100.111L144.299,100.111L145.464,100.111L146.474,100.111L147.554,100.111L149.742,100.111L150.304,100.111L150.836,100.111L151.992,100.111L153.019,100.111L154.107,100.111L156.296,100.111L157.391,100.111L158.552,100.111L159.575,100.111L160.662,100.111L162.862,100.111L163.978,100.111L165.147,100.111L166.154,100.111L167.228,100.111L169.416,100.111L170.531,100.111L171.74,100.111L172.714,100.111L173.776,100.111L175.963,100.111L177.08,100.111L178.243,100.111L179.26,100.111L180.335,100.111L182.527,100.111L183.634,100.111L184.796,100.111L185.803,100.111L186.885,100.111L189.078,100.111L190.187,100.111L191.349,100.111L192.362,100.111L193.441,100.111L195.63,100.111L196.728,100.111L197.885,100.111L198.905,100.111L199.997,100.111" stroke="#4c78a8" stroke-width="2"/></g></g><path class="foreground" aria-hidden="true" d="" display="none"/></g><g transform="translate(0,0)"><path class="background" aria-hidden="true" d="M0,0h200v200h-200Z"/><g><g class="mark-line role-mark marks" role="graphics-object" aria-roledescription="line mark container"><path aria-label="Time: Aug 14, 2025; Price: 999; identifier: roam-2" role="graphics-symbol" aria-roledescription="line mark" d="M0,89L0.055,89L0.098,89L1.306,89L2.267,89L3.345,89L5.556,89L6.642,89L7.84,89L8.824,89L9.896,89L12.091,89L13.189,89L14.353,89L15.367,89L16.452,89L18.672,89L19.743,89L20.912,89L21.928,89L23.006,89L25.246,89L26.323,89L27.53,89L27.954,89L28.505,89L29.556,89L31.752,89L32.862,89L34.026,89L35.043,89L36.109,89L38.31,89L39.409,89L40.621,89L41.112,89L41.597,89L42.673,89L44.862,89L45.97,89L47.14,89L48.157,89L49.226,89L51.42,89L52.524,89L53.693,89L54.706,89L55.778,89L57.971,89L59.07,89L60.229,89L61.245,89L62.327,89L64.535,89L65.621,89L66.788,89L67.809,89L68.885,89L71.1,89L72.206,89L73.402,89L74.381,89L75.449,89L77.645,89L78.758,89L80.931,89L81.998,89L84.193,89L85.301,89L85.731,89L86.468,89L87.199,89L87.486,89L88.558,89L90.748,89L91.859,89L93.027,89L94.041,89L95.112,89L97.304,89L98.411,89L99.575,89L100.594,89L101.664,89L103.852,89L104.951,89L106.111,89L107.134,89L108.164,89L108.216,89L110.411,89L111.111,89L111.504,89L112.67,89L113.693,89L114.774,89L116.988,89L118.09,89L119.253,89L120.257,89L121.328,89L123.533,89L124.642,89L125.813,89L126.817,89L127.888,89L130.081,89L131.187,89L132.355,89L133.37,89L134.442,89L136.635,89L137.745,89L138.905,89L139.931,89L140.996,89L143.193,89L144.3,89L145.464,89L146.474,89L147.555,89L149.742,89L150.305,89L150.836,89L151.992,89L153.019,89L154.107,89L156.296,89L157.391,89L158.552,89L159.575,89L160.662,89L162.863,89L163.978,89L165.147,89L166.154,89L167.228,89L169.416,89L170.531,89L171.74,89L172.715,89L173.776,89L175.963,89L177.081,89L178.243,89L179.26,89L180.335,89L182.527,89L183.634,89L184.796,89L185.803,89L186.886,89L189.078,89L190.188,89L191.349,89L192.362,89L193.441,89L195.63,89L196.728,89L197.885,89L198.905,89L199.998,89" stroke="#ff9da6" stroke-width="2"/></g></g><path class="foreground" aria-hidden="true" d="" display="none"/></g><g transform="translate(0,0)"><path class="background" aria-hidden="true" d="M0,0h200v200h-200Z"/><g><g class="mark-line role-mark marks" role="graphics-object" aria-roledescription="line mark container"><path aria-label="Time: Aug 14, 2025; Price: 999; identifier: fastroad-sl-3-2022" role="graphics-symbol" aria-roledescription="line mark" d="M0,89L0.055,89L0.098,89L1.306,89L2.267,89L3.345,89L5.556,89L6.642,89L7.841,89L8.824,89L9.896,89L12.091,89L13.189,89L14.353,89L15.367,89L16.452,89L18.672,89L19.743,89L20.912,89L21.928,89L23.007,89L25.246,89L26.323,89L27.531,89L27.954,89L28.505,89L29.556,89L31.752,89L32.862,89L34.026,89L35.043,89L36.11,89L38.311,89L39.409,89L40.621,89L41.112,89L41.597,89L42.673,89L44.862,89L45.97,89L47.14,89L48.157,89L49.226,89L51.42,89L52.525,89L53.693,89L54.706,89L55.778,89L57.971,89L59.07,89L60.229,89L61.245,89L62.327,89L64.535,89L65.621,89L66.788,89L67.809,89L68.885,89L71.1,89L72.206,89L73.403,89L74.381,89L75.449,89L77.645,89L78.758,89L80.931,89L81.998,89L84.193,89L85.301,89L85.731,89L86.469,89L87.2,89L87.486,89L88.558,89L90.748,89L91.859,89L93.027,89L94.041,89L95.112,89L97.304,89L98.411,89L99.575,89L100.594,89L101.664,89L103.853,89L104.951,89L106.111,89L107.134,89L108.165,89L108.216,89L110.411,89L111.111,89L111.504,89L112.67,89L113.693,89L114.774,89L116.988,89L118.09,89L119.253,89L120.257,89L121.328,89L123.533,89L124.642,89L125.813,89L126.817,89L127.889,89L130.081,89L131.187,89L132.355,89L133.37,89L134.442,89L136.635,89L137.746,89L138.905,89L139.931,89L140.997,89L143.194,89L144.3,89L145.464,89L146.474,89L147.555,89L149.742,89L150.305,89L150.836,89L151.993,89L153.019,89L154.107,89L156.296,89L157.391,89L158.553,89L159.576,89L160.663,89L162.863,89L163.978,89L165.147,89L166.155,89L167.228,89L169.416,89L170.532,89L171.74,89L172.715,89L173.777,89L175.963,89L177.081,89L178.243,89L179.26,89L180.335,89L182.528,89L183.634,89L184.796,89L185.803,89L186.886,89L189.078,89L190.188,89L191.349,89L192.362,89L193.441,89L195.63,89L196.728,89L197.885,89L198.905,89L199.998,89" stroke="#9d755d" stroke-width="2"/></g></g><path class="foreground" aria-hidden="true" d="" display="none"/></g><g transform="translate(0,0)"><path class="background" aria-hidden="true" d="M0,0h200v200h-200Z"/><g><g class="mark-line role-mark marks" role="graphics-object" aria-roledescription="line mark container"><path aria-label="Time: Aug 14, 2025; Price: 1199; identifier: fastroad-ar-2" role="graphics-symbol" aria-roledescription="line mark" d="M0,66.778L0.055,66.778L0.098,66.778L1.307,66.778L2.267,66.778L3.345,66.778L5.556,66.778L6.642,66.778L7.841,66.778L8.824,66.778L9.897,66.778L12.091,66.778L13.189,66.778L14.353,66.778L15.367,66.778L16.458,66.778L18.672,66.778L19.743,66.778L20.912,66.778L21.928,66.778L23.007,66.778L25.246,66.778L26.323,66.778L27.531,66.778L27.955,66.778L28.505,66.778L29.556,66.778L31.753,66.778L32.862,66.778L34.027,66.778L35.044,66.778L36.11,66.778L38.311,66.778L39.41,66.778L40.622,66.778L41.112,66.778L41.597,66.778L42.673,66.778L44.863,66.778L45.971,66.778L47.14,66.778L48.157,66.778L49.226,66.778L51.42,66.778L52.525,66.778L53.694,66.778L54.707,66.778L55.778,66.778L57.971,66.778L59.07,66.778L60.229,66.778L61.245,66.778L62.327,66.778L64.535,66.778L65.622,66.778L66.788,66.778L67.809,66.778L68.885,66.778L71.1,66.778L72.207,66.778L73.403,66.778L74.382,66.778L75.449,66.778L77.646,66.778L78.758,66.778L80.931,66.778L81.998,66.778L84.193,66.778L85.301,66.778L85.731,66.778L86.469,66.778L87.2,66.778L87.486,66.778L88.559,66.778L90.748,66.778L91.86,66.778L93.027,66.778L94.041,66.778L95.112,66.778L97.304,66.778L98.411,66.778L99.575,66.778L100.594,66.778L101.664,66.778L103.853,66.778L104.951,66.778L106.111,66.778L107.134,66.778L108.165,66.778L108.216,66.778L110.411,66.778L111.112,66.778L111.504,66.778L112.67,66.778L113.693,66.778L114.774,66.778L116.988,66.778L118.09,66.778L119.253,66.778L120.258,66.778L121.328,66.778L123.534,66.778L124.642,66.778L125.813,66.778L126.818,66.778L127.889,66.778L130.081,66.778L131.187,66.778L132.355,66.778L133.37,66.778L134.442,66.778L136.635,66.778L137.746,66.778L138.905,66.778L139.931,66.778L140.997,66.778L143.194,66.778L144.3,66.778L145.464,66.778L146.474,66.778L147.555,66.778L149.743,66.778L150.305,66.778L150.836,66.778L151.993,66.778L153.019,66.778L154.107,66.778L156.296,66.778L157.391,66.778L158.553,66.778L159.576,66.778L160.663,66.778L162.864,66.778L163.978,66.778L165.148,66.778L166.155,66.778L167.228,66.778L169.417,66.778L170.532,66.778L171.74,66.778L172.715,66.778L173.777,66.778L175.963,66.778L177.081,66.778L178.243,66.778L179.26,66.778L180.335,66.778L182.528,66.778L183.635,66.778L184.797,66.778L185.803,66.778L186.886,66.778L189.079,66.778L190.188,66.778L191.349,66.778L192.362,66.778L193.441,66.778L195.63,66.778L196.728,66.778L197.886,66.778L198.905,66.778L199.998,66.778" stroke="#54a24b" stroke-width="2"/></g></g><path class="foreground" aria-hidden="true" d="" display="none"/></g><g transform="translate(0,0)"><path class="background" aria-hidden="true" d="M0,0h200v200h-200Z"/><g><g class="mark-line role-mark marks" role="graphics-object" aria-roledescription="line mark container"><path aria-label="Time: Aug 18, 2025; Price: 899; identifier: sdrbike-escape-1-city-disc" role="graphics-symbol" aria-roledescription="line mark" d="M27.955,100.111L28.505,100.111L29.556,100.111L31.753,100.111L32.862,100.111L34.027,100.111L35.044,100.111L36.11,100.111L38.311,100.111L39.41,100.111L40.622,100.111L41.112,100.111L41.598,100.111L42.674,100.111L44.863,100.111L45.971,100.111L47.141,100.111L48.158,100.111L49.226,100.111L51.42,100.111L52.525,100.111L53.694,100.111L54.707,100.111L55.778,100.111L57.972,100.111L59.071,100.111L60.229,100.111L61.245,100.111L62.328,100.111L64.535,100.111L65.622,100.111L66.789,100.111L67.809,100.111L68.886,100.111L71.101,100.111L72.207,100.111L73.403,100.111L74.382,100.111L75.449,100.111L77.646,100.111L78.759,100.111L80.931,100.111L81.998,100.111L84.193,100.111L85.301,100.111L85.732,100.111L86.469,100.111L87.2,100.111L87.486,100.111L88.559,100.111L90.748,100.111L91.86,100.111L93.028,100.111L94.041,100.111L95.112,100.111L97.304,100.111L98.411,100.111L99.576,100.111L100.594,100.111L101.664,100.111L103.853,100.111L104.951,100.111L106.111,100.111L107.134,100.111L108.165,100.111L108.216,100.111L110.411,100.111L111.112,100.111L111.505,100.111L112.67,100.111L113.694,100.111L114.774,100.111L116.988,100.111L118.09,100.111L119.254,100.111L120.258,100.111L121.329,100.111L123.534,100.111L124.642,100.111L125.814,100.111L126.818,100.111L127.889,100.111L130.081,100.111L131.187,100.111L132.355,100.111L133.37,100.111L134.443,100.111L136.635,100.111L137.746,100.111L138.905,100.111L139.931,100.111L140.997,100.111L143.194,100.111L144.3,100.111L145.465,100.111L146.474,100.111L147.555,100.111L149.743,100.111L150.305,100.111L150.837,100.111L151.993,100.111L153.019,100.111L154.107,100.111L156.296,100.111L157.392,100.111L158.553,100.111L159.576,100.111L160.663,100.111L162.864,100.111L163.979,100.111L165.148,100.111L166.155,100.111L167.229,100.111L169.417,100.111L170.532,100.111L171.74,100.111L172.715,100.111L173.777,100.111L175.964,100.111L177.081,100.111L178.244,100.111L179.26,100.111L180.336,100.111L182.528,100.111L183.635,100.111L184.797,100.111L185.804,100.111L186.886,100.111L189.079,100.111L190.188,100.111L191.349,100.111L192.362,100.111L193.442,100.111L195.631,100.111L196.728,100.111L197.886,100.111L198.906,100.111L199.998,100.111" stroke="#f58518" stroke-width="2"/></g></g><path class="foreground" aria-hidden="true" d="" display="none"/></g><g transform="translate(0,0)"><path class="background" aria-hidden="true" d="M0,0h200v200h-200Z"/><g><g class="mark-line role-mark marks" role="graphics-object" aria-roledescription="line mark container"><path aria-label="Time: Aug 20, 2025; Price: 899; identifier: roam-disc-2-2024" role="graphics-symbol" aria-roledescription="line mark" d="M41.111,100.111L41.597,100.111L42.673,100.111L44.862,100.111L45.97,100.111L47.14,100.111L48.157,100.111L49.225,100.111L51.42,100.111L52.524,100.111L53.693,100.111L54.706,100.111L55.778,100.111L57.971,100.111L59.07,100.111L60.229,100.111L61.245,100.111L62.327,100.111L64.535,100.111L65.621,100.111L66.788,100.111L67.809,100.111L68.885,100.111L71.1,100.111L72.206,100.111L73.402,100.111L74.381,100.111L75.448,100.111L77.645,100.111L78.758,100.111L80.931,100.111L81.998,100.111L84.193,100.111L85.301,100.111L85.73,100.111L86.468,100.111L87.199,100.111L87.486,100.111L88.558,100.111L90.747,100.111L91.859,100.111L93.027,100.111L94.04,100.111L95.111,100.111L97.304,100.111L98.411,100.111L99.575,100.111L100.594,100.111L101.664,100.111L103.852,100.111L104.951,100.111L106.111,100.111L107.134,100.111L108.164,100.111L108.216,100.111L110.411,100.111L111.111,100.111L111.504,100.111L112.67,100.111L113.693,100.111L114.774,100.111L116.988,100.111L118.09,100.111L119.253,100.111L120.257,100.111L121.328,100.111L123.533,100.111L124.641,100.111L125.813,100.111L126.817,100.111L127.888,100.111L130.081,100.111L131.187,100.111L132.355,100.111L133.37,100.111L134.442,100.111L136.635,100.111L137.745,100.111L138.904,100.111L139.93,100.111L140.996,100.111L143.193,100.111L144.3,100.111L145.464,100.111L146.474,100.111L147.554,100.111L149.742,100.111L150.304,100.111L150.836,100.111L151.992,100.111L153.019,100.111L154.107,100.111L156.296,100.111L157.391,100.111L158.552,100.111L159.575,100.111L160.662,100.111L162.863,100.111L163.978,100.111L165.147,100.111L166.154,100.111L167.228,100.111L169.416,100.111L170.531,100.111L171.74,100.111L172.714,100.111L173.776,100.111L175.963,100.111L177.081,100.111L178.243,100.111L179.26,100.111L180.335,100.111L182.527,100.111L183.634,100.111L184.796,100.111L185.803,100.111L186.885,100.111L189.078,100.111L190.187,100.111L191.349,100.111L192.362,100.111L193.441,100.111L195.63,100.111L196.728,100.111L197.885,100.111L198.905,100.111L199.997,100.111" stroke="#e45756" stroke-width="2"/></g></g><path class="foreground" aria-hidden="true" d="" display="none"/></g><g transform="translate(0,0)"><path class="background" aria-hidden="true" d="M0,0h200v200h-200Z"/><g><g class="mark-line role-mark marks" role="graphics-object" aria-roledescription="line mark container"><path aria-label="Time: Aug 20, 2025; Price: 1199; identifier: thrive-2" role="graphics-symbol" aria-roledescription="line mark" d="M41.112,66.778L41.598,66.778L42.674,66.778L44.863,66.778L45.971,66.778L47.141,66.778L48.158,66.778L49.226,66.778L51.421,66.778L52.525,66.778L53.694,66.778L54.707,66.778L55.778,66.778L57.972,66.778L59.071,66.778L60.229,66.778L61.246,66.778L62.328,66.778L64.536,66.778L65.622,66.778L66.789,66.778L67.809,66.778L68.886,66.778L71.101,66.778L72.207,66.778L73.403,66.778L74.382,66.778L75.449,66.778L77.646,66.778L78.759,66.778L80.932,66.778L81.998,66.778L84.194,66.778L85.301,66.778L85.732,66.778L86.469,66.778L87.2,66.778L87.486,66.778L88.559,66.778L90.748,66.778L91.86,66.778L93.028,66.778L94.041,66.778L95.112,66.778L97.305,66.778L98.411,66.778L99.576,66.778L100.594,66.778L101.664,66.778L103.853,66.778L104.952,66.778L106.112,66.778L107.134,66.778L108.165,66.778L108.216,66.778L110.412,66.778L111.112,66.778L111.505,66.778L112.671,66.778L113.694,66.778L114.774,66.778L116.988,66.778L118.09,66.778L119.254,66.778L120.258,66.778L121.329,66.778L123.534,66.778L124.642,66.778L125.814,66.778L126.818,66.778L127.889,66.778L130.081,66.778L131.188,66.778L132.355,66.778L133.371,66.778L134.443,66.778L136.635,66.778L137.746,66.778L138.905,66.778L139.931,66.778L140.997,66.778L143.194,66.778L144.3,66.778L145.465,66.778L146.475,66.778L147.555,66.778L149.743,66.778L150.305,66.778L150.837,66.778L151.993,66.778L153.02,66.778L154.108,66.778L156.297,66.778L157.392,66.778L158.553,66.778L159.576,66.778L160.663,66.778L162.864,66.778L163.979,66.778L165.148,66.778L166.155,66.778L167.229,66.778L169.417,66.778L170.532,66.778L171.741,66.778L172.715,66.778L173.777,66.778L175.964,66.778L177.082,66.778L178.244,66.778L179.261,66.778L180.336,66.778L182.528,66.778L183.635,66.778L184.797,66.778L185.804,66.778L186.886,66.778L189.079,66.778L190.188,66.778L191.349,66.778L192.363,66.778L193.442,66.778L195.631,66.778L196.728,66.778L197.886,66.778L198.906,66.778L199.998,66.778" stroke="#eeca3b" stroke-width="2"/></g></g><path class="foreground" aria-hidden="true" d="" display="none"/></g><g transform="translate(0,0)"><path class="background" aria-hidden="true" d="M0,0h200v200h-200Z"/><g><g class="mark-line role-mark marks" role="graphics-object" aria-roledescription="line mark container"><path aria-label="Time: Aug 20, 2025; Price: 999; identifier: rove-2" role="graphics-symbol" aria-roledescription="line mark" d="M41.113,89L41.598,89L42.674,89L44.863,89L45.971,89L47.141,89L48.158,89L49.226,89L51.421,89L52.525,89L53.694,89L54.707,89L55.779,89L57.972,89L59.071,89L60.23,89L61.246,89L62.328,89L64.536,89L65.622,89L66.789,89L67.81,89L68.886,89L71.101,89L72.207,89L73.403,89L74.382,89L75.449,89L77.647,89L78.759,89L80.932,89L81.998,89L84.194,89L85.301,89L85.732,89L86.469,89L87.2,89L87.486,89L88.559,89L90.748,89L91.86,89L93.028,89L94.041,89L95.112,89L97.305,89L98.412,89L99.576,89L100.594,89L101.665,89L108.165,111.222L108.216,111.222L110.412,111.222L111.112,111.222L111.505,111.222L112.671,111.222L113.694,111.222L114.774,111.222L116.989,111.222L118.091,111.222L119.254,111.222L120.258,111.222L121.329,111.222L123.534,111.222L124.642,111.222L125.814,111.222L126.818,111.222L127.889,111.222L130.081,111.222L131.188,111.222L132.355,111.222L133.371,111.222L134.443,111.222L136.636,111.222L137.746,111.222L138.905,111.222L139.931,111.222L140.997,111.222L143.194,111.222L144.3,111.222L145.465,111.222L146.475,111.222L147.555,111.222L149.743,111.222L150.305,111.222L150.837,111.222L151.993,111.222L153.02,111.222L154.108,111.222L156.297,111.222L157.392,111.222L158.553,111.222L159.576,111.222L160.663,111.222L162.864,111.222L163.979,111.222L165.148,111.222L166.155,111.222L167.229,111.222L169.417,111.222L170.532,111.222L171.741,111.222L172.715,111.222L173.777,111.222L175.964,111.222L177.082,111.222L178.244,111.222L179.261,111.222L180.336,111.222L182.528,111.222L183.635,111.222L184.797,111.222L185.804,111.222L186.886,111.222L189.079,111.222L190.189,111.222L191.35,111.222L192.363,111.222L193.442,111.222L195.631,111.222L196.729,111.222L197.886,111.222L198.906,111.222L199.998,111.222" stroke="#72b7b2" stroke-width="2"/></g></g><path class="foreground" aria-hidden="true" d="" display="none"/></g><g transform="translate(0,0)"><path class="background" aria-hidden="true" d="M0,0h200v200h-200Z"/><g><g class="mark-line role-mark marks" role="graphics-object" aria-roledescription="line mark container"><path aria-label="Time: Aug 27, 2025; Price: 1199; identifier: allure-rs-1-2023" role="graphics-symbol" aria-roledescription="line mark" d="M85.733,66.778L86.469,66.778L87.2,66.778L87.487,66.778L88.559,66.778L90.749,66.778L91.86,66.778L93.028,66.778L94.041,66.778L95.112,66.778L97.305,66.778L98.412,66.778L99.576,66.778L100.595,66.778L101.665,66.778L103.853,66.778L104.952,66.778L106.112,66.778L107.135,66.778L108.166,66.778L108.216,66.778L110.412,66.778L111.112,66.778L111.505,66.778L112.671,66.778L113.694,66.778L114.775,66.778L116.989,66.778L118.091,66.778L119.254,66.778L120.258,66.778L121.329,66.778L123.534,66.778L124.643,66.778L125.814,66.778L126.818,66.778L127.89,66.778L130.082,66.778L131.188,66.778L132.356,66.778L133.371,66.778L134.443,66.778L136.636,66.778L137.746,66.778L138.906,66.778L139.932,66.778L140.998,66.778L143.194,66.778L144.301,66.778L145.465,66.778L146.475,66.778L147.556,66.778L149.743,66.778L150.305,66.778L150.837,66.778L151.994,66.778L153.02,66.778L154.108,66.778L156.297,66.778L157.392,66.778L158.553,66.778L159.576,66.778L160.663,66.778L162.864,66.778L163.979,66.778L165.148,66.778L166.155,66.778L167.229,66.778L169.417,66.778L170.532,66.778L171.741,66.778L172.716,66.778L173.777,66.778L175.964,66.778L177.082,66.778L178.244,66.778L179.261,66.778L180.336,66.778L182.529,66.778L183.635,66.778L184.797,66.778L185.804,66.778L186.887,66.778L189.079,66.778L190.189,66.778L191.35,66.778L192.363,66.778L193.442,66.778L195.631,66.778L196.729,66.778L197.886,66.778L198.906,66.778L199.999,66.778" stroke="#b279a2" stroke-width="2"/></g></g><path class="foreground" aria-hidden="true" d="" display="none"/></g><g transform="translate(0,0)"><path class="background" aria-hidden="true" d="M0,0h200v200h-200Z"/><g><g class="mark-line role-mark marks" role="graphics-object" aria-roledescription="line mark container"><path aria-label="Time: Aug 27, 2025; Price: 999; identifier: allure-rs-2-2022" role="graphics-symbol" aria-roledescription="line mark" d="M85.733,89L86.469,89L87.2,89L87.487,89L88.56,89L90.749,89L91.861,89L93.028,89L94.042,89L95.113,89L97.305,89L98.412,89L99.576,89L100.595,89L101.665,89L108.166,111.222L108.217,111.222L110.412,111.222L111.112,111.222L111.505,111.222L112.671,111.222L113.694,111.222L114.775,111.222L116.989,111.222L118.091,111.222L119.254,111.222L120.258,111.222L121.329,111.222L123.534,111.222L124.643,111.222L125.814,111.222L126.818,111.222L127.89,111.222L130.082,111.222L131.188,111.222L132.356,111.222L133.371,111.222L134.443,111.222L136.636,111.222L137.747,111.222L138.906,111.222L139.932,111.222L140.998,111.222L143.194,111.222L144.301,111.222L145.465,111.222L146.475,111.222L147.556,111.222L149.743,111.222L150.306,111.222L150.837,111.222L151.994,111.222L153.02,111.222L154.108,111.222L156.297,111.222L157.392,111.222L158.554,111.222L159.576,111.222L160.663,111.222L162.864,111.222L163.979,111.222L165.149,111.222L166.156,111.222L167.229,111.222L169.418,111.222L170.532,111.222L171.741,111.222L172.716,111.222L173.778,111.222L175.964,111.222L177.082,111.222L178.244,111.222L179.261,111.222L180.337,111.222L182.529,111.222L183.635,111.222L184.797,111.222L185.804,111.222L186.887,111.222L189.079,111.222L190.189,111.222L191.35,111.222L192.363,111.222L193.442,111.222L195.631,111.222L196.729,111.222L197.886,111.222L198.906,111.222L199.999,111.222" stroke="#54a24b" stroke-width="2"/></g></g><path class="foreground" aria-hidden="true" d="" display="none"/></g><g transform="translate(0,0)"><path class="background" aria-hidden="true" d="M0,0h200v200h-200Z"/><g><g class="mark-line role-mark marks" role="graphics-object" aria-roledescription="line mark container"><path aria-label="Time: Aug 27, 2025; Price: 949; identifier: allure-rs-2-2023" role="graphics-symbol" aria-roledescription="line mark" d="M85.734,94.556L86.47,94.556L87.2,94.556L87.487,94.556L88.56,94.556L90.749,94.556L91.861,94.556L93.028,94.556L94.042,94.556L95.113,94.556L97.305,94.556L98.412,94.556L99.577,94.556L100.595,94.556L101.665,94.556L103.854,94.556L104.952,94.556L106.112,94.556L107.135,94.556L108.166,94.556L108.217,94.556L110.412,94.556L111.112,94.556L111.505,94.556L112.671,94.556L113.694,94.556L114.775,94.556L116.989,94.556L118.091,94.556L119.254,94.556L120.259,94.556L121.33,94.556L123.535,94.556L124.643,94.556L125.815,94.556L126.818,94.556L127.89,94.556L130.082,94.556L131.188,94.556L132.356,94.556L133.371,94.556L134.443,94.556L136.636,94.556L137.747,94.556L138.906,94.556L139.932,94.556L140.998,94.556L143.195,94.556L144.301,94.556L145.465,94.556L146.475,94.556L147.556,94.556L149.743,94.556L150.306,94.556L150.838,94.556L151.994,94.556L153.02,94.556L154.108,94.556L156.297,94.556L157.393,94.556L158.554,94.556L159.577,94.556L160.664,94.556L162.865,94.556L163.979,94.556L165.149,94.556L166.156,94.556L167.229,94.556L169.418,94.556L170.533,94.556L171.742,94.556L172.716,94.556L173.778,94.556L175.964,94.556L177.082,94.556L178.244,94.556L179.261,94.556L180.337,94.556L182.529,94.556L183.636,94.556L184.797,94.556L185.804,94.556L186.887,94.556L189.08,94.556L190.189,94.556L191.351,94.556L192.363,94.556L193.442,94.556L195.631,94.556L196.729,94.556L197.887,94.556L198.907,94.556L199.999,94.556" stroke="#bab0ac" stroke-width="2"/></g></g><path class="foreground" aria-hidden="true" d="" display="none"/></g><g transform="translate(0,0)"><path class="background" aria-hidden="true" d="M0,0h200v200h-200Z"/><g><g class="mark-line role-mark marks" role="graphics-object" aria-roledescription="line mark container"><path aria-label="Time: Aug 27, 2025; Price: 999; identifier: allure-rs-2-2024" role="graphics-symbol" aria-roledescription="line mark" d="M85.734,89L86.47,89L87.201,89L87.487,89L88.56,89L90.749,89L91.861,89L93.028,89L94.042,89L95.113,89L97.305,89L98.412,89L99.577,89L100.595,89L101.665,89L108.166,111.222L108.217,111.222L110.412,111.222L111.112,111.222L111.506,111.222L112.671,111.222L113.694,111.222L114.775,111.222L116.989,111.222L118.091,111.222L119.255,111.222L120.259,111.222L121.33,111.222L123.535,111.222L124.643,111.222L125.815,111.222L126.819,111.222L127.89,111.222L130.082,111.222L131.188,111.222L132.356,111.222L133.371,111.222L134.443,111.222L136.636,111.222L137.747,111.222L138.906,111.222L139.932,111.222L140.998,111.222L143.195,111.222L144.301,111.222L145.465,111.222L146.475,111.222L147.556,111.222L149.744,111.222L150.306,111.222L150.838,111.222L151.994,111.222L153.02,111.222L154.108,111.222L156.297,111.222L157.393,111.222L158.554,111.222L159.577,111.222L160.664,111.222L162.865,111.222L163.98,111.222L165.149,111.222L166.156,111.222L167.229,111.222L169.418,111.222L170.533,111.222L171.742,111.222L172.716,111.222L173.778,111.222L175.965,111.222L177.082,111.222L178.244,111.222L179.261,111.222L180.337,111.222L182.529,111.222L183.636,111.222L184.798,111.222L185.805,111.222L186.887,111.222L189.08,111.222L190.189,111.222L191.351,111.222L192.363,111.222L193.442,111.222L195.632,111.222L196.729,111.222L197.887,111.222L198.907,111.222L199.999,111.222" stroke="#eeca3b" stroke-width="2"/></g></g><path class="foreground" aria-hidden="true" d="" display="none"/></g><g transform="translate(0,0)"><path class="background" aria-hidden="true" d="M0,0h200v200h-200Z"/><g><g class="mark-line role-mark marks" role="graphics-object" aria-roledescription="line mark container"><path aria-label="Time: Aug 27, 2025; Price: 1799; identifier: devote-1-2024" role="graphics-symbol" aria-roledescription="line mark" d="M87.201,0.111L87.487,0.111L88.56,0.111L90.749,0.111L91.861,0.111L93.029,0.111L94.042,0.111L95.113,0.111L97.305,0.111L98.412,0.111L99.577,0.111L100.595,0.111L101.665,0.111L108.166,44.556L108.217,44.556L110.412,44.556L111.113,44.556L111.506,44.556L112.672,44.556L113.694,44.556L114.775,44.556L116.989,44.556L118.091,44.556L119.255,44.556L120.259,44.556L121.33,44.556L123.535,44.556L124.643,44.556L125.815,44.556L126.819,44.556L127.89,44.556L130.082,44.556L131.188,44.556L132.356,44.556L133.371,44.556L134.444,44.556L136.636,44.556L137.747,44.556L138.906,44.556L139.932,44.556L140.998,44.556L143.195,44.556L144.301,44.556L145.466,44.556L146.476,44.556L147.556,44.556L149.744,44.556L150.306,44.556L150.838,44.556L151.994,44.556L153.02,44.556L154.108,44.556L156.297,44.556L157.393,44.556L158.554,44.556L159.577,44.556L160.664,44.556L162.865,44.556L163.98,44.556L165.149,44.556L166.156,44.556L167.23,44.556L169.418,44.556L170.533,44.556L171.742,44.556L172.716,44.556L173.778,44.556L175.965,44.556L177.083,44.556L178.245,44.556L179.262,44.556L180.337,44.556L182.529,44.556L183.636,44.556L184.798,44.556L185.805,44.556L186.887,44.556L189.08,44.556L190.19,44.556L191.351,44.556L192.363,44.556L193.442,44.556L195.632,44.556L196.729,44.556L197.887,44.556L198.907,44.556L199.999,44.556" stroke="#72b7b2" stroke-width="2"/></g></g><path class="foreground" aria-hidden="true" d="" display="none"/></g><g transform="translate(0,0)"><path class="background" aria-hidden="true" d="M0,0h200v200h-200Z"/><g><g class="mark-line role-mark marks" role="graphics-object" aria-roledescription="line mark container"><path aria-label="Time: Aug 27, 2025; Price: 1699; identifier: devote-1-2022" role="graphics-symbol" aria-roledescription="line mark" d="M87.201,11.222L87.487,11.222L88.56,11.222L90.749,11.222L91.861,11.222L93.029,11.222L94.042,11.222L95.113,11.222L97.306,11.222L98.412,11.222L99.577,11.222L100.595,11.222L101.666,11.222L103.854,11.222L104.953,11.222L106.113,11.222L107.135,11.222L108.166,11.222L108.217,11.222L110.413,11.222L111.113,11.222L111.506,11.222L112.672,11.222L113.695,11.222L114.775,11.222L116.989,11.222L118.091,11.222L119.255,11.222L120.259,11.222L121.33,11.222L123.535,11.222L124.643,11.222L125.815,11.222L126.819,11.222L127.89,11.222L130.082,11.222L131.189,11.222L132.356,11.222L133.371,11.222L134.444,11.222L136.637,11.222L137.747,11.222L138.906,11.222L139.932,11.222L140.998,11.222L143.195,11.222L144.301,11.222L145.466,11.222L146.476,11.222L147.556,11.222L149.744,11.222L150.306,11.222L150.838,11.222L151.994,11.222L153.02,11.222L154.108,11.222L156.298,11.222L157.393,11.222L158.554,11.222L159.577,11.222L160.664,11.222L162.865,11.222L163.98,11.222L165.149,11.222L166.156,11.222L167.23,11.222L169.418,11.222L170.533,11.222L171.742,11.222L172.716,11.222L173.778,11.222L175.965,11.222L177.083,11.222L178.245,11.222L179.262,11.222L180.337,11.222L182.53,11.222L183.636,11.222L184.798,11.222L185.805,11.222L186.887,11.222L189.08,11.222L190.19,11.222L191.351,11.222L192.363,11.222L193.443,11.222L195.632,11.222L196.729,11.222L197.887,11.222L198.907,11.222L199.999,11.222" stroke="#4c78a8" stroke-width="2"/></g></g><path class="foreground" aria-hidden="true" d="" display="none"/></g><g transform="translate(0,0)"><path class="background" aria-hidden="true" d="M0,0h200v200h-200Z"/><g><g class="mark-line role-mark marks" role="graphics-object" aria-roledescription="line mark container"><path aria-label="Time: Aug 31, 2025; Price: 1599; identifier: silex-400-oak-bork-2026" role="graphics-symbol" aria-roledescription="line mark" d="M111.113,22.333L111.506,22.333L112.672,22.333L113.695,22.333L114.776,22.333L116.99,22.333L118.092,22.333L119.255,22.333L120.259,22.333L121.33,22.333L123.535,22.333L124.643,22.333L125.815,22.333L126.819,22.333L127.891,22.333L130.082,22.333L131.189,22.333L132.357,22.333L133.372,22.333L134.444,22.333L136.637,22.333L137.747,22.333L138.906,22.333L139.933,22.333L140.999,22.333L143.195,22.333L144.301,22.333L145.466,22.333L146.476,22.333L147.557,22.333L149.744,22.333L150.306,22.333L150.838,22.333L151.995,22.333L153.021,22.333L154.109,22.333L156.298,22.333L157.393,22.333L158.555,22.333L159.577,22.333L160.664,22.333L162.865,22.333L163.98,22.333L165.149,22.333L166.156,22.333L167.23,22.333L169.418,22.333L170.533,22.333L171.742,22.333L172.717,22.333L173.779,22.333L175.965,22.333L177.083,22.333L178.245,22.333L179.262,22.333L180.338,22.333L182.53,22.333L183.636,22.333L184.798,22.333L185.805,22.333L186.888,22.333L189.08,22.333L190.19,22.333L191.351,22.333L192.364,22.333L193.443,22.333L195.632,22.333L196.73,22.333L197.887,22.333L198.907,22.333L200,22.333" stroke="#f58518" stroke-width="2"/></g></g><path class="foreground" aria-hidden="true" d="" display="none"/></g><g transform="translate(0,0)"><path class="background" aria-hidden="true" d="M0,0h200v200h-200Z"/><g><g class="mark-line role-mark marks" role="graphics-object" aria-roledescription="line mark container"><path aria-label="Time: Aug 31, 2025; Price: 1599; identifier: silex-400-warm-slate-grey-2026" role="graphics-symbol" aria-roledescription="line mark" d="M111.113,22.333L111.506,22.333L112.672,22.333L113.695,22.333L114.776,22.333L116.99,22.333L118.092,22.333L119.255,22.333L120.26,22.333L121.331,22.333L123.536,22.333L124.644,22.333L125.816,22.333L126.819,22.333L127.891,22.333L130.083,22.333L131.189,22.333L132.357,22.333L133.372,22.333L134.444,22.333L136.637,22.333L137.748,22.333L138.907,22.333L139.933,22.333L140.999,22.333L143.195,22.333L144.302,22.333L145.466,22.333L146.476,22.333L147.557,22.333L149.744,22.333L150.306,22.333L150.839,22.333L151.995,22.333L153.021,22.333L154.109,22.333L156.298,22.333L157.394,22.333L158.555,22.333L159.577,22.333L160.664,22.333L162.865,22.333L163.981,22.333L165.15,22.333L166.157,22.333L167.23,22.333L169.419,22.333L170.534,22.333L171.743,22.333L172.717,22.333L173.779,22.333L175.965,22.333L177.083,22.333L178.245,22.333L179.262,22.333L180.338,22.333L182.53,22.333L183.637,22.333L184.798,22.333L185.805,22.333L186.888,22.333L189.081,22.333L190.19,22.333L191.352,22.333L192.364,22.333L193.443,22.333L195.632,22.333L196.73,22.333L197.888,22.333L198.908,22.333L200,22.333" stroke="#e45756" stroke-width="2"/></g></g><path class="foreground" aria-hidden="true" d="" display="none"/></g></g><g class="mark-group role-legend" role="graphics-symbol" aria-roledescription="legend" aria-label="Symbol legend titled 'identifier' for stroke color with 16 values: devote-1-2022, silex-400-oak-bork-2026, silex-400-warm-slate-grey-2026, devote-1-2024, fastroad-ar-2, ending with allure-rs-2-2024"><g transform="translate(220,0)"><path class="background" aria-hidden="true" d="M0,0h256v222h-256Z" pointer-events="none"/><g><g class="mark-group role-legend-entry"><g transform="translate(0,16)"><path class="background" aria-hidden="true" d="M0,0h0v0h0Z" pointer-events="none"/><g><g class="mark-group role-scope" role="graphics-object" aria-roledescription="group mark container"><g transform="translate(0,0)"><path class="background" aria-hidden="true" d="M0,0h256v11h-256Z" pointer-events="none" opacity="1"/><g><g class="mark-symbol role-legend-symbol" pointer-events="none"><path transform="translate(6,6)" d="M-5,0L5,0" stroke="#4c78a8" stroke-width="1.5" opacity="1"/></g><g class="mark-text role-legend-label" pointer-events="none"><text text-anchor="start" transform="translate(16,9)" font-family="Liberation Mono" font-size="10px" fill="#000" opacity="1">devote-1-2022</text></g></g><path class="foreground" aria-hidden="true" d="" pointer-events="none" display="none"/></g><g transform="translate(0,13)"><path class="background" aria-hidden="true" d="M0,0h256v11h-256Z" pointer-events="none" opacity="1"/><g><g class="mark-symbol role-legend-symbol" pointer-events="none"><path transform="translate(6,6)" d="M-5,0L5,0" stroke="#f58518" stroke-width="1.5" opacity="1"/></g><g class="mark-text role-legend-label" pointer-events="none"><text text-anchor="start" transform="translate(16,9)" font-family="Liberation Mono" font-size="10px" fill="#000" opacity="1">silex-400-oak-bork-2026</text></g></g><path class="foreground" aria-hidden="true" d="" pointer-events="none" display="none"/></g><g transform="translate(0,26)"><path class="background" aria-hidden="true" d="M0,0h256v11h-256Z" pointer-events="none" opacity="1"/><g><g class="mark-symbol role-legend-symbol" pointer-events="none"><path transform="translate(6,6)" d="M-5,0L5,0" stroke="#e45756" stroke-width="1.5" opacity="1"/></g><g class="mark-text role-legend-label" pointer-events="none"><text text-anchor="start" transform="translate(16,9)" font-family="Liberation Mono" font-size="10px" fill="#000" opacity="1">silex-400-warm-slate-grey-2026</text></g></g><path class="foreground" aria-hidden="true" d="" pointer-events="none" display="none"/></g><g transform="translate(0,39)"><path class="background" aria-hidden="true" d="M0,0h256v11h-256Z" pointer-events="none" opacity="1"/><g><g class="mark-symbol role-legend-symbol" pointer-events="none"><path transform="translate(6,6)" d="M-5,0L5,0" stroke="#72b7b2" stroke-width="1.5" opacity="1"/></g><g class="mark-text role-legend-label" pointer-events="none"><text text-anchor="start" transform="translate(16,9)" font-family="Liberation Mono" font-size="10px" fill="#000" opacity="1">devote-1-2024</text></g></g><path class="foreground" aria-hidden="true" d="" pointer-events="none" display="none"/></g><g transform="translate(0,52)"><path class="background" aria-hidden="true" d="M0,0h256v11h-256Z" pointer-events="none" opacity="1"/><g><g class="mark-symbol role-legend-symbol" pointer-events="none"><path transform="translate(6,6)" d="M-5,0L5,0" stroke="#54a24b" stroke-width="1.5" opacity="1"/></g><g class="mark-text role-legend-label" pointer-events="none"><text text-anchor="start" transform="translate(16,9)" font-family="Liberation Mono" font-size="10px" fill="#000" opacity="1">fastroad-ar-2</text></g></g><path class="foreground" aria-hidden="true" d="" pointer-events="none" display="none"/></g><g transform="translate(0,65)"><path class="background" aria-hidden="true" d="M0,0h256v11h-256Z" pointer-events="none" opacity="1"/><g><g class="mark-symbol role-legend-symbol" pointer-events="none"><path transform="translate(6,6)" d="M-5,0L5,0" stroke="#eeca3b" stroke-width="1.5" opacity="1"/></g><g class="mark-text role-legend-label" pointer-events="none"><text text-anchor="start" transform="translate(16,9)" font-family="Liberation Mono" font-size="10px" fill="#000" opacity="1">thrive-2</text></g></g><path class="foreground" aria-hidden="true" d="" pointer-events="none" display="none"/></g><g transform="translate(0,78)"><path class="background" aria-hidden="true" d="M0,0h256v11h-256Z" pointer-events="none" opacity="1"/><g><g class="mark-symbol role-legend-symbol" pointer-events="none"><path transform="translate(6,6)" d="M-5,0L5,0" stroke="#b279a2" stroke-width="1.5" opacity="1"/></g><g class="mark-text role-legend-label" pointer-events="none"><text text-anchor="start" transform="translate(16,9)" font-family="Liberation Mono" font-size="10px" fill="#000" opacity="1">allure-rs-1-2023</text></g></g><path class="foreground" aria-hidden="true" d="" pointer-events="none" display="none"/></g><g transform="translate(0,91)"><path class="background" aria-hidden="true" d="M0,0h256v11h-256Z" pointer-events="none" opacity="1"/><g><g class="mark-symbol role-legend-symbol" pointer-events="none"><path transform="translate(6,6)" d="M-5,0L5,0" stroke="#ff9da6" stroke-width="1.5" opacity="1"/></g><g class="mark-text role-legend-label" pointer-events="none"><text text-anchor="start" transform="translate(16,9)" font-family="Liberation Mono" font-size="10px" fill="#000" opacity="1">roam-2</text></g></g><path class="foreground" aria-hidden="true" d="" pointer-events="none" display="none"/></g><g transform="translate(0,104)"><path class="background" aria-hidden="true" d="M0,0h256v11h-256Z" pointer-events="none" opacity="1"/><g><g class="mark-symbol role-legend-symbol" pointer-events="none"><path transform="translate(6,6)" d="M-5,0L5,0" stroke="#9d755d" stroke-width="1.5" opacity="1"/></g><g class="mark-text role-legend-label" pointer-events="none"><text text-anchor="start" transform="translate(16,9)" font-family="Liberation Mono" font-size="10px" fill="#000" opacity="1">fastroad-sl-3-2022</text></g></g><path class="foreground" aria-hidden="true" d="" pointer-events="none" display="none"/></g><g transform="translate(0,117)"><path class="background" aria-hidden="true" d="M0,0h256v11h-256Z" pointer-events="none" opacity="1"/><g><g class="mark-symbol role-legend-symbol" pointer-events="none"><path transform="translate(6,6)" d="M-5,0L5,0" stroke="#bab0ac" stroke-width="1.5" opacity="1"/></g><g class="mark-text role-legend-label" pointer-events="none"><text text-anchor="start" transform="translate(16,9)" font-family="Liberation Mono" font-size="10px" fill="#000" opacity="1">allure-rs-2-2023</text></g></g><path class="foreground" aria-hidden="true" d="" pointer-events="none" display="none"/></g><g transform="translate(0,130)"><path class="background" aria-hidden="true" d="M0,0h256v11h-256Z" pointer-events="none" opacity="1"/><g><g class="mark-symbol role-legend-symbol" pointer-events="none"><path transform="translate(6,6)" d="M-5,0L5,0" stroke="#4c78a8" stroke-width="1.5" opacity="1"/></g><g class="mark-text role-legend-label" pointer-events="none"><text text-anchor="start" transform="translate(16,9)" font-family="Liberation Mono" font-size="10px" fill="#000" opacity="1">escape-city-disc-1-2024</text></g></g><path class="foreground" aria-hidden="true" d="" pointer-events="none" display="none"/></g><g transform="translate(0,143)"><path class="background" aria-hidden="true" d="M0,0h256v11h-256Z" pointer-events="none" opacity="1"/><g><g class="mark-symbol role-legend-symbol" pointer-events="none"><path transform="translate(6,6)" d="M-5,0L5,0" stroke="#f58518" stroke-width="1.5" opacity="1"/></g><g class="mark-text role-legend-label" pointer-events="none"><text text-anchor="start" transform="translate(16,9)" font-family="Liberation Mono" font-size="10px" fill="#000" opacity="1">sdrbike-escape-1-city-disc</text></g></g><path class="foreground" aria-hidden="true" d="" pointer-events="none" display="none"/></g><g transform="translate(0,156)"><path class="background" aria-hidden="true" d="M0,0h256v11h-256Z" pointer-events="none" opacity="1"/><g><g class="mark-symbol role-legend-symbol" pointer-events="none"><path transform="translate(6,6)" d="M-5,0L5,0" stroke="#e45756" stroke-width="1.5" opacity="1"/></g><g class="mark-text role-legend-label" pointer-events="none"><text text-anchor="start" transform="translate(16,9)" font-family="Liberation Mono" font-size="10px" fill="#000" opacity="1">roam-disc-2-2024</text></g></g><path class="foreground" aria-hidden="true" d="" pointer-events="none" display="none"/></g><g transform="translate(0,169)"><path class="background" aria-hidden="true" d="M0,0h256v11h-256Z" pointer-events="none" opacity="1"/><g><g class="mark-symbol role-legend-symbol" pointer-events="none"><path transform="translate(6,6)" d="M-5,0L5,0" stroke="#72b7b2" stroke-width="1.5" opacity="1"/></g><g class="mark-text role-legend-label" pointer-events="none"><text text-anchor="start" transform="translate(16,9)" font-family="Liberation Mono" font-size="10px" fill="#000" opacity="1">rove-2</text></g></g><path class="foreground" aria-hidden="true" d="" pointer-events="none" display="none"/></g><g transform="translate(0,182)"><path class="background" aria-hidden="true" d="M0,0h256v11h-256Z" pointer-events="none" opacity="1"/><g><g class="mark-symbol role-legend-symbol" pointer-events="none"><path transform="translate(6,6)" d="M-5,0L5,0" stroke="#54a24b" stroke-width="1.5" opacity="1"/></g><g class="mark-text role-legend-label" pointer-events="none"><text text-anchor="start" transform="translate(16,9)" font-family="Liberation Mono" font-size="10px" fill="#000" opacity="1">allure-rs-2-2022</text></g></g><path class="foreground" aria-hidden="true" d="" pointer-events="none" display="none"/></g><g transform="translate(0,195)"><path class="background" aria-hidden="true" d="M0,0h256v11h-256Z" pointer-events="none" opacity="1"/><g><g class="mark-symbol role-legend-symbol" pointer-events="none"><path transform="translate(6,6)" d="M-5,0L5,0" stroke="#eeca3b" stroke-width="1.5" opacity="1"/></g><g class="mark-text role-legend-label" pointer-events="none"><text text-anchor="start" transform="translate(16,9)" font-family="Liberation Mono" font-size="10px" fill="#000" opacity="1">allure-rs-2-2024</text></g></g><path class="foreground" aria-hidden="true" d="" pointer-events="none" display="none"/></g></g></g><path class="foreground" aria-hidden="true" d="" pointer-events="none" display="none"/></g></g><g class="mark-text role-legend-title" pointer-events="none"><text text-anchor="start" transform="translate(0,9)" font-family="Liberation Mono" font-size="11px" font-weight="bold" fill="#000" opacity="1">identifier</text></g></g><path class="foreground" aria-hidden="true" d="" pointer-events="none" display="none"/></g></g></g><path class="foreground" aria-hidden="true" d="" display="none"/></g></g></g></svg>