<svg xmlns="http://www.w3.org/2000/svg" xmlns:xlink="http://www.w3.org/1999/xlink" version="1.1" class="marks" width="548" height="244" viewBox="0 0 548 244"><rect width="548" height="244" fill="white"/><g fill="none" stroke-miterlimit="10" transform="translate(67,7)"><g class="mark-group role-frame root" role="graphics-object" aria-roledescription="group mark container"><g transform="translate(0,0)"><path class="background" aria-hidden="true" d="M0.5,0.5h200v200h-200Z" stroke="#ddd"/><g><g class="mark-group role-axis" aria-hidden="true"><g transform="translate(0.5,200.5)"><path class="background" aria-hidden="true" d="M0,0h0v0h0Z" pointer-events="none"/><g><g class="mark-rule role-axis-grid" pointer-events="none"><line transform="translate(17,-200)" x2="0" y2="200" stroke="#ddd" stroke-width="1" opacity="1"/><line transform="translate(64,-200)" x2="0" y2="200" stroke="#ddd" stroke-width="1" opacity="1"/><line transform="translate(110,-200)" x2="0" y2="200" stroke="#ddd" stroke-width="1" opacity="1"/><line transform="translate(156,-200)" x2="0" y2="200" stroke="#ddd" stroke-width="1" opacity="1"/></g></g><path class="foreground" aria-hidden="true" d="" pointer-events="none" display="none"/></g></g><g class="mark-group role-axis" aria-hidden="true"><g transform="translate(0.5,0.5)"><path class="background" aria-hidden="true" d="M0,0h0v0h0Z" pointer-events="none"/><g><g class="mark-rule role-axis-grid" pointer-events="none"><line transform="translate(0,200)" x2="200" y2="0" stroke="#ddd" stroke-width="1" opacity="1"/><line transform="translate(0,144)" x2="200" y2="0" stroke="#ddd" stroke-width="1" opacity="1"/><line transform="translate(0,89)" x2="200" y2="0" stroke="#ddd" stroke-width="1" opacity="1"/><line transform="translate(0,33)" x2="200" y2="0" stroke="#ddd" stroke-width="1" opacity="1"/></g></g><path class="foreground" aria-hidden="true" d="" pointer-events="none" display="none"/></g></g><g class="mark-group role-axis" role="graphics-symbol" aria-roledescription="axis" aria-label="X-axis titled 'Time' for a time scale with values from Thursday, 14 August 2025, 8:34:48 AM to Saturday, 13 September 2025, 4:44:50 PM"><g transform="translate(0.5,200.5)"><path class="background" aria-hidden="true" d="M0,0h0v0h0Z" pointer-events="none"/><g><g class="mark-rule role-axis-tick" pointer-events="none"><line transform="translate(17,0)" x2="0" y2="5" stroke="#888" stroke-width="1" opacity="1"/><line transform="translate(64,0)" x2="0" y2="5" stroke="#888" stroke-width="1" opacity="1"/><line transform="translate(110,0)" x2="0" y2="5" stroke="#888" stroke-width="1" opacity="1"/><line transform="translate(156,0)" x2="0" y2="5" stroke="#888" stroke-width="1" opacity="1"/></g><g class="mark-text role-axis-label" pointer-events="none"><text text-anchor="middle" transform="translate(17.419021665536793,15)" font-family="Liberation Mono" font-size="10px" fill="#000" opacity="1">Aug 17</text><text text-anchor="middle" transform="translate(63.56227800543653,15)" font-family="Liberation Mono" font-size="10px" fill="#000" opacity="0">Aug 24</text><text text-anchor="middle" transform="translate(109.70553434533628,15)" font-family="Liberation Mono" font-size="10px" fill="#000" opacity="0">Aug 31</text><text text-anchor="middle" transform="translate(155.84879068523603,15)" font-family="Liberation Mono" font-size="10px" fill="#000" opacity="1">Sep 07</text></g><g class="mark-rule role-axis-domain" pointer-events="none"><line transform="translate(0,0)" x2="200" y2="0" stroke="#888" stroke-width="1" opacity="1"/></g><g class="mark-text role-axis-title" pointer-events="none"><text text-anchor="middle" transform="translate(100,30)" font-family="Liberation Mono" font-size="11px" font-weight="bold" fill="#000" opacity="1">Time</text></g></g><path class="foreground" aria-hidden="true" d="" pointer-events="none" display="none"/></g></g><g class="mark-group role-axis" role="graphics-symbol" aria-roledescription="axis" aria-label="Y-axis titled 'Price' for a linear scale with values from 0 to 1,800"><g transform="translate(0.5,0.5)"><path class="background" aria-hidden="true" d="M0,0h0v0h0Z" pointer-events="none"/><g><g class="mark-rule role-axis-tick" pointer-events="none"><line transform="translate(0,200)" x2="-5" y2="0" stroke="#888" stroke-width="1" opacity="1"/><line transform="translate(0,144)" x2="-5" y2="0" stroke="#888" stroke-width="1" opacity="1"/><line transform="translate(0,89)" x2="-5" y2="0" stroke="#888" stroke-width="1" opacity="1"/><line transform="translate(0,33)" x2="-5" y2="0" stroke="#888" stroke-width="1" opacity="1"/></g><g class="mark-text role-axis-label" pointer-events="none"><text text-anchor="end" transform="translate(-7,203)" font-family="Liberation Mono" font-size="10px" fill="#000" opacity="1">0</text><text text-anchor="end" transform="translate(-7,147.44444444444443)" font-family="Liberation Mono" font-size="10px" fill="#000" opacity="1">500</text><text text-anchor="end" transform="translate(-7,91.88888888888889)" font-family="Liberation Mono" font-size="10px" fill="#000" opacity="1">1,000</text><text text-anchor="end" transform="translate(-7,36.33333333333333)" font-family="Liberation Mono" font-size="10px" fill="#000" opacity="1">1,500</text></g><g class="mark-rule role-axis-domain" pointer-events="none"><line transform="translate(0,200)" x2="0" y2="-200" stroke="#888" stroke-width="1" opacity="1"/></g><g class="mark-text role-axis-title" pointer-events="none"><text text-anchor="middle" transform="translate(-51,100) rotate(-90) translate(0,-2)" font-family="Liberation Mono" font-size="11px" font-weight="bold" fill="#000" opacity="1">Price</text></g></g><path class="foreground" aria-hidden="true" d="" pointer-events="none" display="none"/></g></g><g class="mark-group role-scope pathgroup" role="graphics-object" aria-roledescription="group mark container"><g transform="translate(0,0)"><path class="background" aria-hidden="true" d="M0,0h200v200h-200Z"/><g><g class="mark-line role-mark marks" role="graphics-object" aria-roledescription="line mark container"><path aria-label="Time: Aug 14, 2025; Price: 899; identifier: escape-city-disc-1-2024" role="graphics-symbol" aria-roledescription="line mark" d="M0,100.111L0.055,100.111L0.098,100.111L1.313,100.111L2.279,100.111L3.363,100.111L5.586,100.111L6.678,100.111L7.883,100.111L8.872,100.111L9.95,100.111L12.157,100.111L13.261,100.111L14.432,100.111L15.451,100.111L16.532,100.111L18.774,100.111L19.851,100.111L21.027,100.111L22.048,100.111L23.133,100.111L25.385,100.111L26.467,100.111L27.681,100.111L28.108,100.111L28.661,100.111L29.718,100.111L31.926,100.111L33.042,100.111L34.213,100.111L35.236,100.111L36.308,100.111L38.521,100.111L39.626,100.111L40.844,100.111L41.337,100.111L41.825,100.111L42.907,100.111L45.108,100.111L46.223,100.111L47.399,100.111L48.421,100.111L49.495,100.111L51.702,100.111L52.813,100.111L53.988,100.111L55.006,100.111L56.084,100.111L58.289,100.111L59.394,100.111L60.559,100.111L61.581,100.111L62.669,100.111L64.889,100.111L65.981,100.111L67.155,100.111L68.181,100.111L69.263,100.111L71.49,100.111L72.603,100.111L73.805,100.111L74.789,100.111L75.863,100.111L78.071,100.111L79.19,100.111L81.375,100.111L82.448,100.111L84.655,100.111L85.769,100.111L86.201,100.111L86.943,100.111L87.678,100.111L87.966,100.111L89.044,100.111L91.246,100.111L92.363,100.111L93.538,100.111L94.557,100.111L95.634,100.111L97.838,100.111L98.951,100.111L100.122,100.111L101.146,100.111L102.222,100.111L104.422,100.111L105.527,100.111L106.693,100.111L107.722,100.111L108.758,100.111L108.81,100.111L111.017,100.111L111.721,100.111L112.116,100.111L113.288,100.111L114.317,100.111L115.404,100.111L117.63,100.111L118.738,100.111L119.908,100.111L120.917,100.111L121.994,100.111L124.211,100.111L125.326,100.111L126.504,100.111L127.514,100.111L128.59,100.111L130.795,100.111L131.907,100.111L133.081,100.111L134.102,100.111L135.18,100.111L137.385,100.111L138.502,100.111L139.667,100.111L140.699,100.111L141.77,100.111L143.98,100.111L145.092,100.111L146.263,100.111L147.278,100.111L148.365,100.111L150.564,100.111L151.13,100.111L151.664,100.111L152.827,100.111L153.859,100.111L154.953,100.111L157.154,100.111L158.255,100.111L159.423,100.111L160.452,100.111L161.544,100.111L163.756,100.111L164.878,100.111L166.054,100.111L167.067,100.111L168.146,100.111L170.346,100.111L171.468,100.111L172.683,100.111L173.663,100.111L174.73,100.111L176.929,100.111L178.053,100.111L179.222,100.111L180.244,100.111L181.325,100.111L183.53,100.111L184.643,100.111L185.811,100.111L186.823,100.111L187.912,100.111L190.116,100.111L191.232,100.111L192.399,100.111L193.418,100.111L194.503,100.111L196.704,100.111L197.808,100.111L198.972,100.111L199.997,100.111" stroke="#4c78a8" stroke-width="2"/></g></g><path class="foreground" aria-hidden="true" d="" display="none"/></g><g transform="translate(0,0)"><path class="background" aria-hidden="true" d="M0,0h200v200h-200Z"/><g><g class="mark-line role-mark marks" role="graphics-object" aria-roledescription="line mark container"><path aria-label="Time: Aug 14, 2025; Price: 999; identifier: roam-2" role="graphics-symbol" aria-roledescription="line mark" d="M0,89L0.055,89L0.098,89L1.314,89L2.279,89L3.363,89L5.586,89L6.678,89L7.884,89L8.872,89L9.951,89L12.157,89L13.262,89L14.432,89L15.451,89L16.543,89L18.774,89L19.851,89L21.027,89L22.048,89L23.133,89L25.385,89L26.467,89L27.682,89L28.108,89L28.661,89L29.718,89L31.927,89L33.042,89L34.213,89L35.236,89L36.308,89L38.521,89L39.626,89L40.844,89L41.337,89L41.825,89L42.907,89L45.109,89L46.223,89L47.399,89L48.422,89L49.496,89L51.702,89L52.813,89L53.988,89L55.007,89L56.084,89L58.289,89L59.394,89L60.56,89L61.581,89L62.669,89L64.889,89L65.982,89L67.155,89L68.181,89L69.263,89L71.49,89L72.603,89L73.806,89L74.79,89L75.863,89L78.072,89L79.191,89L81.375,89L82.448,89L84.655,89L85.769,89L86.202,89L86.943,89L87.678,89L87.966,89L89.045,89L91.246,89L92.364,89L93.538,89L94.557,89L95.634,89L97.838,89L98.951,89L100.122,89L101.146,89L102.222,89L104.423,89L105.527,89L106.694,89L107.722,89L108.758,89L108.81,89L111.017,89L111.722,89L112.116,89L113.289,89L114.318,89L115.404,89L117.63,89L118.738,89L119.908,89L120.918,89L121.995,89L124.212,89L125.326,89L126.504,89L127.514,89L128.591,89L130.795,89L131.907,89L133.082,89L134.102,89L135.181,89L137.385,89L138.502,89L139.667,89L140.699,89L141.771,89L143.98,89L145.092,89L146.263,89L147.278,89L148.365,89L150.565,89L151.13,89L151.664,89L152.827,89L153.859,89L154.953,89L157.154,89L158.255,89L159.423,89L160.452,89L161.545,89L163.758,89L164.879,89L166.054,89L167.067,89L168.147,89L170.347,89L171.468,89L172.683,89L173.663,89L174.731,89L176.929,89L178.053,89L179.222,89L180.244,89L181.325,89L183.53,89L184.643,89L185.811,89L186.823,89L187.912,89L190.117,89L191.232,89L192.4,89L193.418,89L194.503,89L196.705,89L197.808,89L198.972,89L199.998,89" stroke="#ff9da6" stroke-width="2"/></g></g><path class="foreground" aria-hidden="true" d="" display="none"/></g><g transform="translate(0,0)"><path class="background" aria-hidden="true" d="M0,0h200v200h-200Z"/><g><g class="mark-line role-mark marks" role="graphics-object" aria-roledescription="line mark container"><path aria-label="Time: Aug 14, 2025; Price: 999; identifier: fastroad-sl-3-2022" role="graphics-symbol" aria-roledescription="line mark" d="M0,89L0.055,89L0.098,89L1.314,89L2.28,89L3.363,89L5.587,89L6.678,89L7.884,89L8.872,89L9.951,89L12.157,89L13.262,89L14.432,89L15.452,89L16.543,89L18.774,89L19.851,89L21.027,89L22.048,89L23.133,89L25.385,89L26.467,89L27.682,89L28.108,89L28.661,89L29.718,89L31.927,89L33.043,89L34.213,89L35.236,89L36.308,89L38.521,89L39.626,89L40.845,89L41.338,89L41.826,89L42.908,89L45.109,89L46.223,89L47.399,89L48.422,89L49.496,89L51.703,89L52.813,89L53.988,89L55.007,89L56.084,89L58.29,89L59.394,89L60.56,89L61.581,89L62.67,89L64.889,89L65.982,89L67.155,89L68.181,89L69.264,89L71.491,89L72.603,89L73.806,89L74.79,89L75.863,89L78.072,89L79.191,89L81.376,89L82.448,89L84.655,89L85.769,89L86.202,89L86.943,89L87.678,89L87.966,89L89.045,89L91.246,89L92.364,89L93.538,89L94.557,89L95.634,89L97.838,89L98.951,89L100.122,89L101.146,89L102.222,89L104.423,89L105.528,89L106.694,89L107.722,89L108.759,89L108.81,89L111.018,89L111.722,89L112.117,89L113.289,89L114.318,89L115.404,89L117.63,89L118.739,89L119.908,89L120.918,89L121.995,89L124.212,89L125.326,89L126.504,89L127.514,89L128.591,89L130.795,89L131.908,89L133.082,89L134.103,89L135.181,89L137.385,89L138.502,89L139.668,89L140.699,89L141.771,89L143.98,89L145.092,89L146.263,89L147.279,89L148.365,89L150.565,89L151.13,89L151.665,89L152.827,89L153.859,89L154.953,89L157.154,89L158.256,89L159.423,89L160.452,89L161.545,89L163.758,89L164.879,89L166.054,89L167.067,89L168.147,89L170.347,89L171.468,89L172.683,89L173.663,89L174.731,89L176.93,89L178.053,89L179.222,89L180.245,89L181.326,89L183.53,89L184.643,89L185.811,89L186.824,89L187.912,89L190.117,89L191.232,89L192.4,89L193.419,89L194.504,89L196.705,89L197.808,89L198.972,89L199.998,89" stroke="#9d755d" stroke-width="2"/></g></g><path class="foreground" aria-hidden="true" d="" display="none"/></g><g transform="translate(0,0)"><path class="background" aria-hidden="true" d="M0,0h200v200h-200Z"/><g><g class="mark-line role-mark marks" role="graphics-object" aria-roledescription="line mark container"><path aria-label="Time: Aug 14, 2025; Price: 1199; identifier: fastroad-ar-2" role="graphics-symbol" aria-roledescription="line mark" d="M0,66.778L0.055,66.778L0.098,66.778L1.314,66.778L2.28,66.778L3.363,66.778L5.587,66.778L6.678,66.778L7.884,66.778L8.873,66.778L9.951,66.778L12.157,66.778L13.262,66.778L14.432,66.778L15.452,66.778L16.548,66.778L18.774,66.778L19.851,66.778L21.027,66.778L22.048,66.778L23.133,66.778L25.385,66.778L26.468,66.778L27.682,66.778L28.108,66.778L28.662,66.778L29.719,66.778L31.927,66.778L33.043,66.778L34.214,66.778L35.236,66.778L36.308,66.778L38.521,66.778L39.626,66.778L40.845,66.778L41.338,66.778L41.826,66.778L42.908,66.778L45.109,66.778L46.223,66.778L47.399,66.778L48.422,66.778L49.496,66.778L51.703,66.778L52.813,66.778L53.988,66.778L55.007,66.778L56.084,66.778L58.29,66.778L59.395,66.778L60.56,66.778L61.582,66.778L62.67,66.778L64.89,66.778L65.982,66.778L67.155,66.778L68.182,66.778L69.264,66.778L71.491,66.778L72.603,66.778L73.806,66.778L74.79,66.778L75.863,66.778L78.072,66.778L79.191,66.778L81.376,66.778L82.448,66.778L84.656,66.778L85.769,66.778L86.202,66.778L86.944,66.778L87.679,66.778L87.966,66.778L89.045,66.778L91.246,66.778L92.364,66.778L93.538,66.778L94.557,66.778L95.634,66.778L97.839,66.778L98.951,66.778L100.122,66.778L101.146,66.778L102.222,66.778L104.423,66.778L105.528,66.778L106.694,66.778L107.722,66.778L108.759,66.778L108.81,66.778L111.018,66.778L111.722,66.778L112.117,66.778L113.289,66.778L114.318,66.778L115.404,66.778L117.631,66.778L118.739,66.778L119.908,66.778L120.918,66.778L121.995,66.778L124.212,66.778L125.326,66.778L126.504,66.778L127.514,66.778L128.591,66.778L130.795,66.778L131.908,66.778L133.082,66.778L134.103,66.778L135.181,66.778L137.385,66.778L138.502,66.778L139.668,66.778L140.699,66.778L141.771,66.778L143.98,66.778L145.092,66.778L146.263,66.778L147.279,66.778L148.365,66.778L150.565,66.778L151.13,66.778L151.665,66.778L152.828,66.778L153.86,66.778L154.954,66.778L157.155,66.778L158.256,66.778L159.424,66.778L160.452,66.778L161.545,66.778L163.758,66.778L164.879,66.778L166.055,66.778L167.067,66.778L168.147,66.778L170.347,66.778L171.468,66.778L172.683,66.778L173.663,66.778L174.731,66.778L176.93,66.778L178.054,66.778L179.222,66.778L180.245,66.778L181.326,66.778L183.53,66.778L184.643,66.778L185.811,66.778L186.824,66.778L187.912,66.778L190.117,66.778L191.232,66.778L192.4,66.778L193.419,66.778L194.504,66.778L196.705,66.778L197.809,66.778L198.972,66.778L199.998,66.778" stroke="#54a24b" stroke-width="2"/></g></g><path class="foreground" aria-hidden="true" d="" display="none"/></g><g transform="translate(0,0)"><path class="background" aria-hidden="true" d="M0,0h200v200h-200Z"/><g><g class="mark-line role-mark marks" role="graphics-object" aria-roledescription="line mark container"><path aria-label="Time: Aug 18, 2025; Price: 899; identifier: sdrbike-escape-1-city-disc" role="graphics-symbol" aria-roledescription="line mark" d="M28.108,100.111L28.662,100.111L29.719,100.111L31.927,100.111L33.043,100.111L34.214,100.111L35.236,100.111L36.308,100.111L38.521,100.111L39.626,100.111L40.845,100.111L41.338,100.111L41.826,100.111L42.908,100.111L45.109,100.111L46.223,100.111L47.4,100.111L48.422,100.111L49.496,100.111L51.703,100.111L52.813,100.111L53.989,100.111L55.007,100.111L56.085,100.111L58.29,100.111L59.395,100.111L60.56,100.111L61.582,100.111L62.67,100.111L64.89,100.111L65.982,100.111L67.156,100.111L68.182,100.111L69.264,100.111L71.491,100.111L72.603,100.111L73.806,100.111L74.79,100.111L75.863,100.111L78.073,100.111L79.191,100.111L81.376,100.111L82.448,100.111L84.656,100.111L85.77,100.111L86.202,100.111L86.944,100.111L87.679,100.111L87.967,100.111L89.045,100.111L91.247,100.111L92.364,100.111L93.539,100.111L94.557,100.111L95.634,100.111L97.839,100.111L98.952,100.111L100.123,100.111L101.147,100.111L102.223,100.111L104.423,100.111L105.528,100.111L106.694,100.111L107.723,100.111L108.759,100.111L108.81,100.111L111.018,100.111L111.722,100.111L112.117,100.111L113.289,100.111L114.318,100.111L115.405,100.111L117.631,100.111L118.739,100.111L119.909,100.111L120.918,100.111L121.995,100.111L124.212,100.111L125.327,100.111L126.505,100.111L127.514,100.111L128.591,100.111L130.796,100.111L131.908,100.111L133.082,100.111L134.103,100.111L135.181,100.111L137.386,100.111L138.502,100.111L139.668,100.111L140.7,100.111L141.771,100.111L143.98,100.111L145.093,100.111L146.263,100.111L147.279,100.111L148.365,100.111L150.565,100.111L151.13,100.111L151.665,100.111L152.828,100.111L153.86,100.111L154.954,100.111L157.155,100.111L158.256,100.111L159.424,100.111L160.452,100.111L161.545,100.111L163.758,100.111L164.879,100.111L166.055,100.111L167.067,100.111L168.147,100.111L170.347,100.111L171.468,100.111L172.684,100.111L173.664,100.111L174.731,100.111L176.93,100.111L178.054,100.111L179.222,100.111L180.245,100.111L181.326,100.111L183.53,100.111L184.643,100.111L185.812,100.111L186.824,100.111L187.912,100.111L190.117,100.111L191.233,100.111L192.4,100.111L193.419,100.111L194.504,100.111L196.705,100.111L197.809,100.111L198.973,100.111L199.998,100.111" stroke="#f58518" stroke-width="2"/></g></g><path class="foreground" aria-hidden="true" d="" display="none"/></g><g transform="translate(0,0)"><path class="background" aria-hidden="true" d="M0,0h200v200h-200Z"/><g><g class="mark-line role-mark marks" role="graphics-object" aria-roledescription="line mark container"><path aria-label="Time: Aug 20, 2025; Price: 899; identifier: roam-disc-2-2024" role="graphics-symbol" aria-roledescription="line mark" d="M41.337,100.111L41.825,100.111L42.907,100.111L45.109,100.111L46.223,100.111L47.399,100.111L48.421,100.111L49.496,100.111L51.702,100.111L52.813,100.111L53.988,100.111L55.007,100.111L56.084,100.111L58.289,100.111L59.394,100.111L60.559,100.111L61.581,100.111L62.669,100.111L64.889,100.111L65.982,100.111L67.155,100.111L68.181,100.111L69.263,100.111L71.49,100.111L72.603,100.111L73.805,100.111L74.79,100.111L75.863,100.111L78.071,100.111L79.19,100.111L81.375,100.111L82.448,100.111L84.655,100.111L85.769,100.111L86.201,100.111L86.943,100.111L87.678,100.111L87.966,100.111L89.044,100.111L91.246,100.111L92.364,100.111L93.538,100.111L94.557,100.111L95.634,100.111L97.838,100.111L98.951,100.111L100.122,100.111L101.146,100.111L102.222,100.111L104.423,100.111L105.527,100.111L106.693,100.111L107.722,100.111L108.758,100.111L108.81,100.111L111.017,100.111L111.721,100.111L112.116,100.111L113.288,100.111L114.317,100.111L115.404,100.111L117.63,100.111L118.738,100.111L119.908,100.111L120.917,100.111L121.994,100.111L124.211,100.111L125.326,100.111L126.504,100.111L127.514,100.111L128.591,100.111L130.795,100.111L131.907,100.111L133.082,100.111L134.102,100.111L135.18,100.111L137.385,100.111L138.502,100.111L139.667,100.111L140.699,100.111L141.771,100.111L143.98,100.111L145.092,100.111L146.263,100.111L147.278,100.111L148.365,100.111L150.564,100.111L151.13,100.111L151.664,100.111L152.827,100.111L153.859,100.111L154.953,100.111L157.154,100.111L158.255,100.111L159.423,100.111L160.452,100.111L161.545,100.111L163.758,100.111L164.878,100.111L166.054,100.111L167.067,100.111L168.146,100.111L170.347,100.111L171.468,100.111L172.683,100.111L173.663,100.111L174.731,100.111L176.929,100.111L178.053,100.111L179.222,100.111L180.244,100.111L181.325,100.111L183.53,100.111L184.643,100.111L185.811,100.111L186.823,100.111L187.912,100.111L190.117,100.111L191.232,100.111L192.4,100.111L193.418,100.111L194.503,100.111L196.704,100.111L197.808,100.111L198.972,100.111L199.997,100.111" stroke="#e45756" stroke-width="2"/></g></g><path class="foreground" aria-hidden="true" d="" display="none"/></g><g transform="translate(0,0)"><path class="background" aria-hidden="true" d="M0,0h200v200h-200Z"/><g><g class="mark-line role-mark marks" role="graphics-object" aria-roledescription="line mark container"><path aria-label="Time: Aug 20, 2025; Price: 1199; identifier: thrive-2" role="graphics-symbol" aria-roledescription="line mark" d="M41.338,66.778L41.826,66.778L42.908,66.778L45.109,66.778L46.224,66.778L47.4,66.778L48.422,66.778L49.497,66.778L51.703,66.778L52.814,66.778L53.989,66.778L55.007,66.778L56.085,66.778L58.29,66.778L59.395,66.778L60.56,66.778L61.582,66.778L62.67,66.778L64.89,66.778L65.983,66.778L67.156,66.778L68.182,66.778L69.264,66.778L71.491,66.778L72.603,66.778L73.806,66.778L74.79,66.778L75.864,66.778L78.073,66.778L79.191,66.778L81.376,66.778L82.449,66.778L84.656,66.778L85.77,66.778L86.203,66.778L86.944,66.778L87.679,66.778L87.967,66.778L89.045,66.778L91.247,66.778L92.365,66.778L93.539,66.778L94.558,66.778L95.635,66.778L97.839,66.778L98.952,66.778L100.123,66.778L101.147,66.778L102.223,66.778L104.423,66.778L105.528,66.778L106.694,66.778L107.723,66.778L108.759,66.778L108.81,66.778L111.018,66.778L111.722,66.778L112.117,66.778L113.289,66.778L114.318,66.778L115.405,66.778L117.631,66.778L118.739,66.778L119.909,66.778L120.918,66.778L121.995,66.778L124.212,66.778L125.327,66.778L126.505,66.778L127.514,66.778L128.592,66.778L130.796,66.778L131.908,66.778L133.082,66.778L134.103,66.778L135.181,66.778L137.386,66.778L138.503,66.778L139.668,66.778L140.7,66.778L141.772,66.778L143.98,66.778L145.093,66.778L146.264,66.778L147.279,66.778L148.366,66.778L150.565,66.778L151.131,66.778L151.665,66.778L152.828,66.778L153.86,66.778L154.954,66.778L157.155,66.778L158.256,66.778L159.424,66.778L160.452,66.778L161.545,66.778L163.758,66.778L164.879,66.778L166.055,66.778L167.068,66.778L168.147,66.778L170.347,66.778L171.469,66.778L172.684,66.778L173.664,66.778L174.731,66.778L176.93,66.778L178.054,66.778L179.223,66.778L180.245,66.778L181.326,66.778L183.531,66.778L184.643,66.778L185.812,66.778L186.824,66.778L187.913,66.778L190.117,66.778L191.233,66.778L192.4,66.778L193.419,66.778L194.504,66.778L196.705,66.778L197.809,66.778L198.973,66.778L199.998,66.778" stroke="#eeca3b" stroke-width="2"/></g></g><path class="foreground" aria-hidden="true" d="" display="none"/></g><g transform="translate(0,0)"><path class="background" aria-hidden="true" d="M0,0h200v200h-200Z"/><g><g class="mark-line role-mark marks" role="graphics-object" aria-roledescription="line mark container"><path aria-label="Time: Aug 20, 2025; Price: 999; identifier: rove-2" role="graphics-symbol" aria-roledescription="line mark" d="M41.338,89L41.826,89L42.908,89L45.109,89L46.224,89L47.4,89L48.422,89L49.497,89L51.703,89L52.814,89L53.989,89L55.007,89L56.085,89L58.29,89L59.395,89L60.56,89L61.582,89L62.67,89L64.89,89L65.983,89L67.156,89L68.182,89L69.264,89L71.491,89L72.604,89L73.806,89L74.791,89L75.864,89L78.073,89L79.191,89L81.376,89L82.449,89L84.656,89L85.77,89L86.203,89L86.944,89L87.679,89L87.967,89L89.045,89L91.247,89L92.365,89L93.539,89L94.558,89L95.635,89L97.839,89L98.952,89L100.123,89L101.147,89L102.223,89L108.759,111.222L108.811,111.222L111.018,111.222L111.722,111.222L112.117,111.222L113.29,111.222L114.318,111.222L115.405,111.222L117.631,111.222L118.739,111.222L119.909,111.222L120.919,111.222L121.995,111.222L124.213,111.222L125.327,111.222L126.505,111.222L127.515,111.222L128.592,111.222L130.796,111.222L131.908,111.222L133.082,111.222L134.103,111.222L135.181,111.222L137.386,111.222L138.503,111.222L139.668,111.222L140.7,111.222L141.772,111.222L143.981,111.222L145.093,111.222L146.264,111.222L147.279,111.222L148.366,111.222L150.565,111.222L151.131,111.222L151.665,111.222L152.828,111.222L153.86,111.222L154.954,111.222L157.155,111.222L158.256,111.222L159.424,111.222L160.453,111.222L161.545,111.222L163.759,111.222L164.879,111.222L166.055,111.222L167.068,111.222L168.147,111.222L170.348,111.222L171.469,111.222L172.684,111.222L173.664,111.222L174.732,111.222L176.93,111.222L178.054,111.222L179.223,111.222L180.245,111.222L181.327,111.222L183.531,111.222L184.644,111.222L185.812,111.222L186.824,111.222L187.913,111.222L190.118,111.222L191.233,111.222L192.4,111.222L193.419,111.222L194.504,111.222L196.705,111.222L197.809,111.222L198.973,111.222L199.998,111.222" stroke="#72b7b2" stroke-width="2"/></g></g><path class="foreground" aria-hidden="true" d="" display="none"/></g><g transform="translate(0,0)"><path class="background" aria-hidden="true" d="M0,0h200v200h-200Z"/><g><g class="mark-line role-mark marks" role="graphics-object" aria-roledescription="line mark container"><path aria-label="Time: Aug 27, 2025; Price: 1199; identifier: allure-rs-1-2023" role="graphics-symbol" aria-roledescription="line mark" d="M86.204,66.778L86.944,66.778L87.679,66.778L87.967,66.778L89.046,66.778L91.247,66.778L92.365,66.778L93.539,66.778L94.558,66.778L95.635,66.778L97.839,66.778L98.952,66.778L100.123,66.778L101.147,66.778L102.223,66.778L104.424,66.778L105.528,66.778L106.695,66.778L107.723,66.778L108.76,66.778L108.811,66.778L111.018,66.778L111.722,66.778L112.117,66.778L113.29,66.778L114.318,66.778L115.405,66.778L117.631,66.778L118.739,66.778L119.909,66.778L120.919,66.778L121.996,66.778L124.213,66.778L125.327,66.778L126.505,66.778L127.515,66.778L128.592,66.778L130.796,66.778L131.908,66.778L133.083,66.778L134.103,66.778L135.181,66.778L137.386,66.778L138.503,66.778L139.668,66.778L140.7,66.778L141.772,66.778L143.981,66.778L145.093,66.778L146.264,66.778L147.279,66.778L148.366,66.778L150.565,66.778L151.131,66.778L151.666,66.778L152.828,66.778L153.86,66.778L154.954,66.778L157.155,66.778L158.257,66.778L159.424,66.778L160.453,66.778L161.546,66.778L163.759,66.778L164.88,66.778L166.055,66.778L167.068,66.778L168.147,66.778L170.348,66.778L171.469,66.778L172.684,66.778L173.664,66.778L174.732,66.778L176.93,66.778L178.054,66.778L179.223,66.778L180.245,66.778L181.327,66.778L183.531,66.778L184.644,66.778L185.812,66.778L186.824,66.778L187.913,66.778L190.118,66.778L191.233,66.778L192.401,66.778L193.419,66.778L194.504,66.778L196.705,66.778L197.809,66.778L198.973,66.778L199.999,66.778" stroke="#b279a2" stroke-width="2"/></g></g><path class="foreground" aria-hidden="true" d="" display="none"/></g><g transform="translate(0,0)"><path class="background" aria-hidden="true" d="M0,0h200v200h-200Z"/><g><g class="mark-line role-mark marks" role="graphics-object" aria-roledescription="line mark container"><path aria-label="Time: Aug 27, 2025; Price: 999; identifier: allure-rs-2-2022" role="graphics-symbol" aria-roledescription="line mark" d="M86.204,89L86.944,89L87.679,89L87.967,89L89.046,89L91.247,89L92.365,89L93.539,89L94.558,89L95.635,89L97.839,89L98.952,89L100.123,89L101.147,89L102.223,89L108.76,111.222L108.811,111.222L111.018,111.222L111.722,111.222L112.118,111.222L113.29,111.222L114.318,111.222L115.405,111.222L117.631,111.222L118.739,111.222L119.909,111.222L120.919,111.222L121.996,111.222L124.213,111.222L125.327,111.222L126.505,111.222L127.515,111.222L128.592,111.222L130.796,111.222L131.908,111.222L133.083,111.222L134.103,111.222L135.182,111.222L137.386,111.222L138.503,111.222L139.669,111.222L140.7,111.222L141.772,111.222L143.981,111.222L145.093,111.222L146.264,111.222L147.28,111.222L148.366,111.222L150.566,111.222L151.131,111.222L151.666,111.222L152.828,111.222L153.86,111.222L154.954,111.222L157.155,111.222L158.257,111.222L159.424,111.222L160.453,111.222L161.546,111.222L163.759,111.222L164.88,111.222L166.056,111.222L167.068,111.222L168.148,111.222L170.348,111.222L171.469,111.222L172.685,111.222L173.664,111.222L174.732,111.222L176.931,111.222L178.055,111.222L179.223,111.222L180.246,111.222L181.327,111.222L183.531,111.222L184.644,111.222L185.812,111.222L186.825,111.222L187.913,111.222L190.118,111.222L191.233,111.222L192.401,111.222L193.419,111.222L194.504,111.222L196.706,111.222L197.809,111.222L198.973,111.222L199.999,111.222" stroke="#54a24b" stroke-width="2"/></g></g><path class="foreground" aria-hidden="true" d="" display="none"/></g><g transform="translate(0,0)"><path class="background" aria-hidden="true" d="M0,0h200v200h-200Z"/><g><g class="mark-line role-mark marks" role="graphics-object" aria-roledescription="line mark container"><path aria-label="Time: Aug 27, 2025; Price: 949; identifier: allure-rs-2-2023" role="graphics-symbol" aria-roledescription="line mark" d="M86.205,94.556L86.944,94.556L87.679,94.556L87.967,94.556L89.046,94.556L91.247,94.556L92.365,94.556L93.539,94.556L94.558,94.556L95.635,94.556L97.84,94.556L98.952,94.556L100.123,94.556L101.147,94.556L102.223,94.556L104.424,94.556L105.529,94.556L106.695,94.556L107.723,94.556L108.76,94.556L108.811,94.556L111.019,94.556L111.723,94.556L112.118,94.556L113.29,94.556L114.319,94.556L115.405,94.556L117.632,94.556L118.74,94.556L119.909,94.556L120.919,94.556L121.996,94.556L124.213,94.556L125.327,94.556L126.506,94.556L127.515,94.556L128.592,94.556L130.796,94.556L131.909,94.556L133.083,94.556L134.104,94.556L135.182,94.556L137.387,94.556L138.503,94.556L139.669,94.556L140.7,94.556L141.772,94.556L143.981,94.556L145.093,94.556L146.264,94.556L147.28,94.556L148.366,94.556L150.566,94.556L151.131,94.556L151.666,94.556L152.829,94.556L153.86,94.556L154.954,94.556L157.156,94.556L158.257,94.556L159.425,94.556L160.453,94.556L161.546,94.556L163.759,94.556L164.88,94.556L166.056,94.556L167.068,94.556L168.148,94.556L170.348,94.556L171.469,94.556L172.685,94.556L173.664,94.556L174.732,94.556L176.931,94.556L178.055,94.556L179.223,94.556L180.246,94.556L181.327,94.556L183.531,94.556L184.644,94.556L185.812,94.556L186.825,94.556L187.913,94.556L190.118,94.556L191.234,94.556L192.401,94.556L193.42,94.556L194.505,94.556L196.706,94.556L197.809,94.556L198.973,94.556L199.999,94.556" stroke="#bab0ac" stroke-width="2"/></g></g><path class="foreground" aria-hidden="true" d="" display="none"/></g><g transform="translate(0,0)"><path class="background" aria-hidden="true" d="M0,0h200v200h-200Z"/><g><g class="mark-line role-mark marks" role="graphics-object" aria-roledescription="line mark container"><path aria-label="Time: Aug 27, 2025; Price: 999; identifier: allure-rs-2-2024" role="graphics-symbol" aria-roledescription="line mark" d="M86.205,89L86.945,89L87.679,89L87.967,89L89.046,89L91.248,89L92.365,89L93.539,89L94.558,89L95.635,89L97.84,89L98.953,89L100.124,89L101.147,89L102.224,89L108.76,111.222L108.811,111.222L111.019,111.222L111.723,111.222L112.118,111.222L113.29,111.222L114.319,111.222L115.405,111.222L117.632,111.222L118.74,111.222L119.91,111.222L120.919,111.222L121.996,111.222L124.213,111.222L125.327,111.222L126.506,111.222L127.515,111.222L128.592,111.222L130.796,111.222L131.909,111.222L133.083,111.222L134.104,111.222L135.182,111.222L137.387,111.222L138.503,111.222L139.669,111.222L140.701,111.222L141.772,111.222L143.981,111.222L145.093,111.222L146.264,111.222L147.28,111.222L148.366,111.222L150.566,111.222L151.131,111.222L151.666,111.222L152.829,111.222L153.861,111.222L154.954,111.222L157.156,111.222L158.257,111.222L159.425,111.222L160.453,111.222L161.546,111.222L163.759,111.222L164.88,111.222L166.056,111.222L167.068,111.222L168.148,111.222L170.348,111.222L171.469,111.222L172.685,111.222L173.665,111.222L174.732,111.222L176.931,111.222L178.055,111.222L179.223,111.222L180.246,111.222L181.327,111.222L183.532,111.222L184.644,111.222L185.812,111.222L186.825,111.222L187.913,111.222L190.118,111.222L191.234,111.222L192.402,111.222L193.42,111.222L194.505,111.222L196.706,111.222L197.81,111.222L198.974,111.222L199.999,111.222" stroke="#eeca3b" stroke-width="2"/></g></g><path class="foreground" aria-hidden="true" d="" display="none"/></g><g transform="translate(0,0)"><path class="background" aria-hidden="true" d="M0,0h200v200h-200Z"/><g><g class="mark-line role-mark marks" role="graphics-object" aria-roledescription="line mark container"><path aria-label="Time: Aug 27, 2025; Price: 1799; identifier: devote-1-2024" role="graphics-symbol" aria-roledescription="line mark" d="M87.68,0.111L87.968,0.111L89.046,0.111L91.248,0.111L92.366,0.111L93.54,0.111L94.558,0.111L95.635,0.111L97.84,0.111L98.953,0.111L100.124,0.111L101.147,0.111L102.224,0.111L108.76,44.556L108.811,44.556L111.019,44.556L111.723,44.556L112.118,44.556L113.29,44.556L114.319,44.556L115.405,44.556L117.632,44.556L118.74,44.556L119.91,44.556L120.919,44.556L121.996,44.556L124.213,44.556L125.328,44.556L126.506,44.556L127.515,44.556L128.593,44.556L130.796,44.556L131.909,44.556L133.083,44.556L134.104,44.556L135.182,44.556L137.387,44.556L138.503,44.556L139.669,44.556L140.701,44.556L141.773,44.556L143.981,44.556L145.094,44.556L146.264,44.556L147.28,44.556L148.366,44.556L150.566,44.556L151.131,44.556L151.666,44.556L152.829,44.556L153.861,44.556L154.955,44.556L157.156,44.556L158.257,44.556L159.425,44.556L160.453,44.556L161.546,44.556L163.759,44.556L164.88,44.556L166.056,44.556L167.069,44.556L168.148,44.556L170.348,44.556L171.469,44.556L172.685,44.556L173.665,44.556L174.732,44.556L176.931,44.556L178.055,44.556L179.224,44.556L180.246,44.556L181.327,44.556L183.532,44.556L184.644,44.556L185.813,44.556L186.825,44.556L187.914,44.556L190.118,44.556L191.234,44.556L192.402,44.556L193.42,44.556L194.505,44.556L196.706,44.556L197.81,44.556L198.974,44.556L199.999,44.556" stroke="#72b7b2" stroke-width="2"/></g></g><path class="foreground" aria-hidden="true" d="" display="none"/></g><g transform="translate(0,0)"><path class="background" aria-hidden="true" d="M0,0h200v200h-200Z"/><g><g class="mark-line role-mark marks" role="graphics-object" aria-roledescription="line mark container"><path aria-label="Time: Aug 27, 2025; Price: 1699; identifier: devote-1-2022" role="graphics-symbol" aria-roledescription="line mark" d="M87.68,11.222L87.968,11.222L89.046,11.222L91.248,11.222L92.366,11.222L93.54,11.222L94.559,11.222L95.635,11.222L97.84,11.222L98.953,11.222L100.124,11.222L101.148,11.222L102.224,11.222L104.424,11.222L105.529,11.222L106.696,11.222L107.724,11.222L108.761,11.222L108.811,11.222L111.019,11.222L111.723,11.222L112.118,11.222L113.29,11.222L114.319,11.222L115.406,11.222L117.632,11.222L118.74,11.222L119.91,11.222L120.919,11.222L121.996,11.222L124.214,11.222L125.328,11.222L126.506,11.222L127.515,11.222L128.593,11.222L130.797,11.222L131.909,11.222L133.083,11.222L134.104,11.222L135.182,11.222L137.387,11.222L138.504,11.222L139.669,11.222L140.701,11.222L141.773,11.222L143.981,11.222L145.094,11.222L146.265,11.222L147.28,11.222L148.367,11.222L150.566,11.222L151.131,11.222L151.666,11.222L152.829,11.222L153.861,11.222L154.955,11.222L157.156,11.222L158.257,11.222L159.425,11.222L160.453,11.222L161.546,11.222L163.759,11.222L164.881,11.222L166.056,11.222L167.069,11.222L168.148,11.222L170.349,11.222L171.47,11.222L172.685,11.222L173.665,11.222L174.732,11.222L176.931,11.222L178.055,11.222L179.224,11.222L180.246,11.222L181.328,11.222L183.532,11.222L184.644,11.222L185.813,11.222L186.825,11.222L187.914,11.222L190.119,11.222L191.234,11.222L192.402,11.222L193.42,11.222L194.505,11.222L196.706,11.222L197.81,11.222L198.974,11.222L199.999,11.222" stroke="#4c78a8" stroke-width="2"/></g></g><path class="foreground" aria-hidden="true" d="" display="none"/></g><g transform="translate(0,0)"><path class="background" aria-hidden="true" d="M0,0h200v200h-200Z"/><g><g class="mark-line role-mark marks" role="graphics-object" aria-roledescription="line mark container"><path aria-label="Time: Aug 31, 2025; Price: 1599; identifier: silex-400-oak-bork-2026" role="graphics-symbol" aria-roledescription="line mark" d="M111.723,22.333L112.119,22.333L113.291,22.333L114.319,22.333L115.406,22.333L117.632,22.333L118.74,22.333L119.91,22.333L120.92,22.333L121.997,22.333L124.214,22.333L125.328,22.333L126.506,22.333L127.516,22.333L128.593,22.333L130.797,22.333L131.909,22.333L133.084,22.333L134.104,22.333L135.182,22.333L137.387,22.333L138.504,22.333L139.669,22.333L140.701,22.333L141.773,22.333L143.982,22.333L145.094,22.333L146.265,22.333L147.281,22.333L148.367,22.333L150.566,22.333L151.132,22.333L151.667,22.333L152.83,22.333L153.861,22.333L154.955,22.333L157.156,22.333L158.258,22.333L159.425,22.333L160.454,22.333L161.547,22.333L163.76,22.333L164.881,22.333L166.056,22.333L167.069,22.333L168.148,22.333L170.349,22.333L171.47,22.333L172.686,22.333L173.665,22.333L174.733,22.333L176.932,22.333L178.056,22.333L179.224,22.333L180.247,22.333L181.328,22.333L183.532,22.333L184.645,22.333L185.813,22.333L186.826,22.333L187.914,22.333L190.119,22.333L191.235,22.333L192.402,22.333L193.42,22.333L194.505,22.333L196.707,22.333L197.81,22.333L198.974,22.333L200,22.333" stroke="#f58518" stroke-width="2"/></g></g><path class="foreground" aria-hidden="true" d="" display="none"/></g><g transform="translate(0,0)"><path class="background" aria-hidden="true" d="M0,0h200v200h-200Z"/><g><g class="mark-line role-mark marks" role="graphics-object" aria-roledescription="line mark container"><path aria-label="Time: Aug 31, 2025; Price: 1599; identifier: silex-400-warm-slate-grey-2026" role="graphics-symbol" aria-roledescription="line mark" d="M111.723,22.333L112.119,22.333L113.291,22.333L114.319,22.333L115.406,22.333L117.632,22.333L118.74,22.333L119.91,22.333L120.92,22.333L121.997,22.333L124.214,22.333L125.328,22.333L126.507,22.333L127.516,22.333L128.593,22.333L130.797,22.333L131.91,22.333L133.084,22.333L134.104,22.333L135.183,22.333L137.388,22.333L138.504,22.333L139.67,22.333L140.702,22.333L141.773,22.333L143.982,22.333L145.094,22.333L146.265,22.333L147.281,22.333L148.367,22.333L150.567,22.333L151.132,22.333L151.667,22.333L152.83,22.333L153.861,22.333L154.955,22.333L157.156,22.333L158.258,22.333L159.426,22.333L160.454,22.333L161.547,22.333L163.76,22.333L164.881,22.333L166.057,22.333L167.069,22.333L168.149,22.333L170.349,22.333L171.47,22.333L172.686,22.333L173.666,22.333L174.733,22.333L176.932,22.333L178.056,22.333L179.224,22.333L180.247,22.333L181.328,22.333L183.533,22.333L184.645,22.333L185.813,22.333L186.826,22.333L187.914,22.333L190.119,22.333L191.235,22.333L192.403,22.333L193.42,22.333L194.506,22.333L196.707,22.333L197.81,22.333L198.974,22.333L200,22.333" stroke="#e45756" stroke-width="2"/></g></g><path class="foreground" aria-hidden="true" d="" display="none"/></g></g><g class="mark-group role-legend" role="graphics-symbol" aria-roledescription="legend" aria-label="Symbol legend titled 'identifier' for stroke color with 16 values: devote-1-2022, silex-400-oak-bork-2026, silex-400-warm-slate-grey-2026, devote-1-2024, fastroad-ar-2, ending with allure-rs-2-2024"><g transform="translate(220,0)"><path class="background" aria-hidden="true" d="M0,0h256v222h-256Z" pointer-events="none"/><g><g class="mark-group role-legend-entry"><g transform="translate(0,16)"><path class="background" aria-hidden="true" d="M0,0h0v0h0Z" pointer-events="none"/><g><g class="mark-group role-scope" role="graphics-object" aria-roledescription="group mark container"><g transform="translate(0,0)"><path class="background" aria-hidden="true" d="M0,0h256v11h-256Z" pointer-events="none" opacity="1"/><g><g class="mark-symbol role-legend-symbol" pointer-events="none"><path transform="translate(6,6)" d="M-5,0L5,0" stroke="#4c78a8" stroke-width="1.5" opacity="1"/></g><g class="mark-text role-legend-label" pointer-events="none"><text text-anchor="start" transform="translate(16,9)" font-family="Liberation Mono" font-size="10px" fill="#000" opacity="1">devote-1-2022</text></g></g><path class="foreground" aria-hidden="true" d="" pointer-events="none" display="none"/></g><g transform="translate(0,13)"><path class="background" aria-hidden="true" d="M0,0h256v11h-256Z" pointer-events="none" opacity="1"/><g><g class="mark-symbol role-legend-symbol" pointer-events="none"><path transform="translate(6,6)" d="M-5,0L5,0" stroke="#f58518" stroke-width="1.5" opacity="1"/></g><g class="mark-text role-legend-label" pointer-events="none"><text text-anchor="start" transform="translate(16,9)" font-family="Liberation Mono" font-size="10px" fill="#000" opacity="1">silex-400-oak-bork-2026</text></g></g><path class="foreground" aria-hidden="true" d="" pointer-events="none" display="none"/></g><g transform="translate(0,26)"><path class="background" aria-hidden="true" d="M0,0h256v11h-256Z" pointer-events="none" opacity="1"/><g><g class="mark-symbol role-legend-symbol" pointer-events="none"><path transform="translate(6,6)" d="M-5,0L5,0" stroke="#e45756" stroke-width="1.5" opacity="1"/></g><g class="mark-text role-legend-label" pointer-events="none"><text text-anchor="start" transform="translate(16,9)" font-family="Liberation Mono" font-size="10px" fill="#000" opacity="1">silex-400-warm-slate-grey-2026</text></g></g><path class="foreground" aria-hidden="true" d="" pointer-events="none" display="none"/></g><g transform="translate(0,39)"><path class="background" aria-hidden="true" d="M0,0h256v11h-256Z" pointer-events="none" opacity="1"/><g><g class="mark-symbol role-legend-symbol" pointer-events="none"><path transform="translate(6,6)" d="M-5,0L5,0" stroke="#72b7b2" stroke-width="1.5" opacity="1"/></g><g class="mark-text role-legend-label" pointer-events="none"><text text-anchor="start" transform="translate(16,9)" font-family="Liberation Mono" font-size="10px" fill="#000" opacity="1">devote-1-2024</text></g></g><path class="foreground" aria-hidden="true" d="" pointer-events="none" display="none"/></g><g transform="translate(0,52)"><path class="background" aria-hidden="true" d="M0,0h256v11h-256Z" pointer-events="none" opacity="1"/><g><g class="mark-symbol role-legend-symbol" pointer-events="none"><path transform="translate(6,6)" d="M-5,0L5,0" stroke="#54a24b" stroke-width="1.5" opacity="1"/></g><g class="mark-text role-legend-label" pointer-events="none"><text text-anchor="start" transform="translate(16,9)" font-family="Liberation Mono" font-size="10px" fill="#000" opacity="1">fastroad-ar-2</text></g></g><path class="foreground" aria-hidden="true" d="" pointer-events="none" display="none"/></g><g transform="translate(0,65)"><path class="background" aria-hidden="true" d="M0,0h256v11h-256Z" pointer-events="none" opacity="1"/><g><g class="mark-symbol role-legend-symbol" pointer-events="none"><path transform="translate(6,6)" d="M-5,0L5,0" stroke="#eeca3b" stroke-width="1.5" opacity="1"/></g><g class="mark-text role-legend-label" pointer-events="none"><text text-anchor="start" transform="translate(16,9)" font-family="Liberation Mono" font-size="10px" fill="#000" opacity="1">thrive-2</text></g></g><path class="foreground" aria-hidden="true" d="" pointer-events="none" display="none"/></g><g transform="translate(0,78)"><path class="background" aria-hidden="true" d="M0,0h256v11h-256Z" pointer-events="none" opacity="1"/><g><g class="mark-symbol role-legend-symbol" pointer-events="none"><path transform="translate(6,6)" d="M-5,0L5,0" stroke="#b279a2" stroke-width="1.5" opacity="1"/></g><g class="mark-text role-legend-label" pointer-events="none"><text text-anchor="start" transform="translate(16,9)" font-family="Liberation Mono" font-size="10px" fill="#000" opacity="1">allure-rs-1-2023</text></g></g><path class="foreground" aria-hidden="true" d="" pointer-events="none" display="none"/></g><g transform="translate(0,91)"><path class="background" aria-hidden="true" d="M0,0h256v11h-256Z" pointer-events="none" opacity="1"/><g><g class="mark-symbol role-legend-symbol" pointer-events="none"><path transform="translate(6,6)" d="M-5,0L5,0" stroke="#ff9da6" stroke-width="1.5" opacity="1"/></g><g class="mark-text role-legend-label" pointer-events="none"><text text-anchor="start" transform="translate(16,9)" font-family="Liberation Mono" font-size="10px" fill="#000" opacity="1">roam-2</text></g></g><path class="foreground" aria-hidden="true" d="" pointer-events="none" display="none"/></g><g transform="translate(0,104)"><path class="background" aria-hidden="true" d="M0,0h256v11h-256Z" pointer-events="none" opacity="1"/><g><g class="mark-symbol role-legend-symbol" pointer-events="none"><path transform="translate(6,6)" d="M-5,0L5,0" stroke="#9d755d" stroke-width="1.5" opacity="1"/></g><g class="mark-text role-legend-label" pointer-events="none"><text text-anchor="start" transform="translate(16,9)" font-family="Liberation Mono" font-size="10px" fill="#000" opacity="1">fastroad-sl-3-2022</text></g></g><path class="foreground" aria-hidden="true" d="" pointer-events="none" display="none"/></g><g transform="translate(0,117)"><path class="background" aria-hidden="true" d="M0,0h256v11h-256Z" pointer-events="none" opacity="1"/><g><g class="mark-symbol role-legend-symbol" pointer-events="none"><path transform="translate(6,6)" d="M-5,0L5,0" stroke="#bab0ac" stroke-width="1.5" opacity="1"/></g><g class="mark-text role-legend-label" pointer-events="none"><text text-anchor="start" transform="translate(16,9)" font-family="Liberation Mono" font-size="10px" fill="#000" opacity="1">allure-rs-2-2023</text></g></g><path class="foreground" aria-hidden="true" d="" pointer-events="none" display="none"/></g><g transform="translate(0,130)"><path class="background" aria-hidden="true" d="M0,0h256v11h-256Z" pointer-events="none" opacity="1"/><g><g class="mark-symbol role-legend-symbol" pointer-events="none"><path transform="translate(6,6)" d="M-5,0L5,0" stroke="#4c78a8" stroke-width="1.5" opacity="1"/></g><g class="mark-text role-legend-label" pointer-events="none"><text text-anchor="start" transform="translate(16,9)" font-family="Liberation Mono" font-size="10px" fill="#000" opacity="1">escape-city-disc-1-2024</text></g></g><path class="foreground" aria-hidden="true" d="" pointer-events="none" display="none"/></g><g transform="translate(0,143)"><path class="background" aria-hidden="true" d="M0,0h256v11h-256Z" pointer-events="none" opacity="1"/><g><g class="mark-symbol role-legend-symbol" pointer-events="none"><path transform="translate(6,6)" d="M-5,0L5,0" stroke="#f58518" stroke-width="1.5" opacity="1"/></g><g class="mark-text role-legend-label" pointer-events="none"><text text-anchor="start" transform="translate(16,9)" font-family="Liberation Mono" font-size="10px" fill="#000" opacity="1">sdrbike-escape-1-city-disc</text></g></g><path class="foreground" aria-hidden="true" d="" pointer-events="none" display="none"/></g><g transform="translate(0,156)"><path class="background" aria-hidden="true" d="M0,0h256v11h-256Z" pointer-events="none" opacity="1"/><g><g class="mark-symbol role-legend-symbol" pointer-events="none"><path transform="translate(6,6)" d="M-5,0L5,0" stroke="#e45756" stroke-width="1.5" opacity="1"/></g><g class="mark-text role-legend-label" pointer-events="none"><text text-anchor="start" transform="translate(16,9)" font-family="Liberation Mono" font-size="10px" fill="#000" opacity="1">roam-disc-2-2024</text></g></g><path class="foreground" aria-hidden="true" d="" pointer-events="none" display="none"/></g><g transform="translate(0,169)"><path class="background" aria-hidden="true" d="M0,0h256v11h-256Z" pointer-events="none" opacity="1"/><g><g class="mark-symbol role-legend-symbol" pointer-events="none"><path transform="translate(6,6)" d="M-5,0L5,0" stroke="#72b7b2" stroke-width="1.5" opacity="1"/></g><g class="mark-text role-legend-label" pointer-events="none"><text text-anchor="start" transform="translate(16,9)" font-family="Liberation Mono" font-size="10px" fill="#000" opacity="1">rove-2</text></g></g><path class="foreground" aria-hidden="true" d="" pointer-events="none" display="none"/></g><g transform="translate(0,182)"><path class="background" aria-hidden="true" d="M0,0h256v11h-256Z" pointer-events="none" opacity="1"/><g><g class="mark-symbol role-legend-symbol" pointer-events="none"><path transform="translate(6,6)" d="M-5,0L5,0" stroke="#54a24b" stroke-width="1.5" opacity="1"/></g><g class="mark-text role-legend-label" pointer-events="none"><text text-anchor="start" transform="translate(16,9)" font-family="Liberation Mono" font-size="10px" fill="#000" opacity="1">allure-rs-2-2022</text></g></g><path class="foreground" aria-hidden="true" d="" pointer-events="none" display="none"/></g><g transform="translate(0,195)"><path class="background" aria-hidden="true" d="M0,0h256v11h-256Z" pointer-events="none" opacity="1"/><g><g class="mark-symbol role-legend-symbol" pointer-events="none"><path transform="translate(6,6)" d="M-5,0L5,0" stroke="#eeca3b" stroke-width="1.5" opacity="1"/></g><g class="mark-text role-legend-label" pointer-events="none"><text text-anchor="start" transform="translate(16,9)" font-family="Liberation Mono" font-size="10px" fill="#000" opacity="1">allure-rs-2-2024</text></g></g><path class="foreground" aria-hidden="true" d="" pointer-events="none" display="none"/></g></g></g><path class="foreground" aria-hidden="true" d="" pointer-events="none" display="none"/></g></g><g class="mark-text role-legend-title" pointer-events="none"><text text-anchor="start" transform="translate(0,9)" font-family="Liberation Mono" font-size="11px" font-weight="bold" fill="#000" opacity="1">identifier</text></g></g><path class="foreground" aria-hidden="true" d="" pointer-events="none" display="none"/></g></g></g><path class="foreground" aria-hidden="true" d="" display="none"/></g></g></g></svg>