<svg xmlns="http://www.w3.org/2000/svg" xmlns:xlink="http://www.w3.org/1999/xlink" version="1.1" class="marks" width="548" height="244" viewBox="0 0 548 244"><rect width="548" height="244" fill="white"/><g fill="none" stroke-miterlimit="10" transform="translate(67,7)"><g class="mark-group role-frame root" role="graphics-object" aria-roledescription="group mark container"><g transform="translate(0,0)"><path class="background" aria-hidden="true" d="M0.5,0.5h200v200h-200Z" stroke="#ddd"/><g><g class="mark-group role-axis" aria-hidden="true"><g transform="translate(0.5,200.5)"><path class="background" aria-hidden="true" d="M0,0h0v0h0Z" pointer-events="none"/><g><g class="mark-rule role-axis-grid" pointer-events="none"><line transform="translate(13,-200)" x2="0" y2="200" stroke="#ddd" stroke-width="1" opacity="1"/><line transform="translate(47,-200)" x2="0" y2="200" stroke="#ddd" stroke-width="1" opacity="1"/><line transform="translate(81,-200)" x2="0" y2="200" stroke="#ddd" stroke-width="1" opacity="1"/><line transform="translate(115,-200)" x2="0" y2="200" stroke="#ddd" stroke-width="1" opacity="1"/><line transform="translate(149,-200)" x2="0" y2="200" stroke="#ddd" stroke-width="1" opacity="1"/><line transform="translate(183,-200)" x2="0" y2="200" stroke="#ddd" stroke-width="1" opacity="1"/></g></g><path class="foreground" aria-hidden="true" d="" pointer-events="none" display="none"/></g></g><g class="mark-group role-axis" aria-hidden="true"><g transform="translate(0.5,0.5)"><path class="background" aria-hidden="true" d="M0,0h0v0h0Z" pointer-events="none"/><g><g class="mark-rule role-axis-grid" pointer-events="none"><line transform="translate(0,200)" x2="200" y2="0" stroke="#ddd" stroke-width="1" opacity="1"/><line transform="translate(0,144)" x2="200" y2="0" stroke="#ddd" stroke-width="1" opacity="1"/><line transform="translate(0,89)" x2="200" y2="0" stroke="#ddd" stroke-width="1" opacity="1"/><line transform="translate(0,33)" x2="200" y2="0" stroke="#ddd" stroke-width="1" opacity="1"/></g></g><path class="foreground" aria-hidden="true" d="" pointer-events="none" display="none"/></g></g><g class="mark-group role-axis" role="graphics-symbol" aria-roledescription="axis" aria-label="X-axis titled 'Time' for a time scale with values from Thursday, 14 August 2025, 8:34:48 AM to Wednesday, 24 September 2025, 1:08:36 PM"><g transform="translate(0.5,200.5)"><path class="background" aria-hidden="true" d="M0,0h0v0h0Z" pointer-events="none"/><g><g class="mark-rule role-axis-tick" pointer-events="none"><line transform="translate(13,0)" x2="0" y2="5" stroke="#888" stroke-width="1" opacity="1"/><line transform="translate(47,0)" x2="0" y2="5" stroke="#888" stroke-width="1" opacity="1"/><line transform="translate(81,0)" x2="0" y2="5" stroke="#888" stroke-width="1" opacity="1"/><line transform="translate(115,0)" x2="0" y2="5" stroke="#888" stroke-width="1" opacity="1"/><line transform="translate(149,0)" x2="0" y2="5" stroke="#888" stroke-width="1" opacity="1"/><line transform="translate(183,0)" x2="0" y2="5" stroke="#888" stroke-width="1" opacity="1"/></g><g class="mark-text role-axis-label" pointer-events="none"><text text-anchor="middle" transform="translate(12.830697957973664,15)" font-family="Liberation Mono" font-size="10px" fill="#000" opacity="1">Aug 17</text><text text-anchor="middle" transform="translate(46.819414216704025,15)" font-family="Liberation Mono" font-size="10px" fill="#000" opacity="0">Aug 24</text><text text-anchor="middle" transform="translate(80.8081304754344,15)" font-family="Liberation Mono" font-size="10px" fill="#000" opacity="1">Aug 31</text><text text-anchor="middle" transform="translate(114.79684673416475,15)" font-family="Liberation Mono" font-size="10px" fill="#000" opacity="0">Sep 07</text><text text-anchor="middle" transform="translate(148.7855629928951,15)" font-family="Liberation Mono" font-size="10px" fill="#000" opacity="1">Sep 14</text><text text-anchor="middle" transform="translate(182.77427925162547,15)" font-family="Liberation Mono" font-size="10px" fill="#000" opacity="0">Sep 21</text></g><g class="mark-rule role-axis-domain" pointer-events="none"><line transform="translate(0,0)" x2="200" y2="0" stroke="#888" stroke-width="1" opacity="1"/></g><g class="mark-text role-axis-title" pointer-events="none"><text text-anchor="middle" transform="translate(100,30)" font-family="Liberation Mono" font-size="11px" font-weight="bold" fill="#000" opacity="1">Time</text></g></g><path class="foreground" aria-hidden="true" d="" pointer-events="none" display="none"/></g></g><g class="mark-group role-axis" role="graphics-symbol" aria-roledescription="axis" aria-label="Y-axis titled 'Price' for a linear scale with values from 0 to 1,800"><g transform="translate(0.5,0.5)"><path class="background" aria-hidden="true" d="M0,0h0v0h0Z" pointer-events="none"/><g><g class="mark-rule role-axis-tick" pointer-events="none"><line transform="translate(0,200)" x2="-5" y2="0" stroke="#888" stroke-width="1" opacity="1"/><line transform="translate(0,144)" x2="-5" y2="0" stroke="#888" stroke-width="1" opacity="1"/><line transform="translate(0,89)" x2="-5" y2="0" stroke="#888" stroke-width="1" opacity="1"/><line transform="translate(0,33)" x2="-5" y2="0" stroke="#888" stroke-width="1" opacity="1"/></g><g class="mark-text role-axis-label" pointer-events="none"><text text-anchor="end" transform="translate(-7,203)" font-family="Liberation Mono" font-size="10px" fill="#000" opacity="1">0</text><text text-anchor="end" transform="translate(-7,147.44444444444443)" font-family="Liberation Mono" font-size="10px" fill="#000" opacity="1">500</text><text text-anchor="end" transform="translate(-7,91.88888888888889)" font-family="Liberation Mono" font-size="10px" fill="#000" opacity="1">1,000</text><text text-anchor="end" transform="translate(-7,36.33333333333333)" font-family="Liberation Mono" font-size="10px" fill="#000" opacity="1">1,500</text></g><g class="mark-rule role-axis-domain" pointer-events="none"><line transform="translate(0,200)" x2="0" y2="-200" stroke="#888" stroke-width="1" opacity="1"/></g><g class="mark-text role-axis-title" pointer-events="none"><text text-anchor="middle" transform="translate(-51,100) rotate(-90) translate(0,-2)" font-family="Liberation Mono" font-size="11px" font-weight="bold" fill="#000" opacity="1">Price</text></g></g><path class="foreground" aria-hidden="true" d="" pointer-events="none" display="none"/></g></g><g class="mark-group role-scope pathgroup" role="graphics-object" aria-roledescription="group mark container"><g transform="translate(0,0)"><path class="background" aria-hidden="true" d="M0,0h200v200h-200Z"/><g><g class="mark-line role-mark marks" role="graphics-object" aria-roledescription="line mark container"><path aria-label="Time: Aug 14, 2025; Price: 899; identifier: escape-city-disc-1-2024" role="graphics-symbol" aria-roledescription="line mark" d="M0,100.111L0.04,100.111L0.072,100.111L0.967,100.111L1.679,100.111L2.477,100.111L4.115,100.111L4.919,100.111L5.807,100.111L6.535,100.111L7.329,100.111L8.955,100.111L9.768,100.111L10.63,100.111L11.381,100.111L12.177,100.111L13.829,100.111L14.622,100.111L15.488,100.111L16.24,100.111L17.039,100.111L18.698,100.111L19.495,100.111L20.39,100.111L20.704,100.111L21.111,100.111L21.89,100.111L23.517,100.111L24.339,100.111L25.201,100.111L25.954,100.111L26.744,100.111L28.374,100.111L29.188,100.111L30.086,100.111L30.449,100.111L30.808,100.111L31.605,100.111L33.227,100.111L34.047,100.111L34.913,100.111L35.667,100.111L36.458,100.111L38.083,100.111L38.901,100.111L39.767,100.111L40.517,100.111L41.311,100.111L42.935,100.111L43.749,100.111L44.607,100.111L45.36,100.111L46.162,100.111L47.797,100.111L48.601,100.111L49.466,100.111L50.222,100.111L51.019,100.111L52.659,100.111L53.478,100.111L54.364,100.111L55.089,100.111L55.88,100.111L57.507,100.111L58.331,100.111L59.94,100.111L60.73,100.111L62.356,100.111L63.177,100.111L63.495,100.111L64.041,100.111L64.583,100.111L64.795,100.111L65.589,100.111L67.211,100.111L68.034,100.111L68.899,100.111L69.65,100.111L70.443,100.111L72.067,100.111L72.886,100.111L73.749,100.111L74.503,100.111L75.296,100.111L76.917,100.111L77.73,100.111L78.589,100.111L79.347,100.111L80.11,100.111L80.148,100.111L81.774,100.111L82.293,100.111L82.584,100.111L83.447,100.111L84.205,100.111L85.005,100.111L86.645,100.111L87.461,100.111L88.323,100.111L89.067,100.111L89.86,100.111L91.493,100.111L92.314,100.111L93.181,100.111L93.925,100.111L94.719,100.111L96.342,100.111L97.162,100.111L98.027,100.111L98.779,100.111L99.573,100.111L101.196,100.111L102.019,100.111L102.878,100.111L103.637,100.111L104.427,100.111L106.054,100.111L106.873,100.111L107.736,100.111L108.484,100.111L109.284,100.111L110.904,100.111L111.321,100.111L111.714,100.111L112.571,100.111L113.331,100.111L114.137,100.111L115.758,100.111L116.569,100.111L117.43,100.111L118.187,100.111L118.992,100.111L120.621,100.111L121.448,100.111L122.314,100.111L123.06,100.111L123.855,100.111L125.476,100.111L126.302,100.111L127.197,100.111L127.918,100.111L128.705,100.111L130.324,100.111L131.152,100.111L132.013,100.111L132.766,100.111L133.563,100.111L135.186,100.111L136.006,100.111L136.867,100.111L137.612,100.111L138.414,100.111L140.038,100.111L140.86,100.111L141.72,100.111L142.47,100.111L143.269,100.111L144.891,100.111L145.704,100.111L146.561,100.111L147.316,100.111L148.125,100.111L149.748,100.111L150.559,100.111L151.413,100.111L152.171,100.111L152.981,100.111L154.611,100.111L155.43,100.111L156.297,100.111L157.045,100.111L157.839,100.111L159.463,100.111L160.29,100.111L161.152,100.111L161.899,100.111L162.696,100.111L164.32,100.111L165.141,100.111L166.008,100.111L166.756,100.111L167.55,100.111L169.175,100.111L169.995,100.111L170.862,100.111L171.608,100.111L172.407,100.111L174.031,100.111L174.851,100.111L175.715,100.111L176.467,100.111L177.259,100.111L178.882,100.111L179.698,100.111L180.556,100.111L181.307,100.111L182.113,100.111L183.739,100.111L184.549,100.111L185.41,100.111L186.167,100.111L186.971,100.111L188.598,100.111L189.425,100.111L190.289,100.111L191.026,100.111L191.831,100.111L193.452,100.111L194.276,100.111L195.14,100.111L195.892,100.111L196.686,100.111L198.309,100.111L199.133,100.111L199.997,100.111" stroke="#4c78a8" stroke-width="2"/></g></g><path class="foreground" aria-hidden="true" d="" display="none"/></g><g transform="translate(0,0)"><path class="background" aria-hidden="true" d="M0,0h200v200h-200Z"/><g><g class="mark-line role-mark marks" role="graphics-object" aria-roledescription="line mark container"><path aria-label="Time: Aug 14, 2025; Price: 999; identifier: roam-2" role="graphics-symbol" aria-roledescription="line mark" d="M0,89L0.04,89L0.072,89L0.968,89L1.679,89L2.477,89L4.115,89L4.919,89L5.807,89L6.535,89L7.33,89L8.955,89L9.768,89L10.63,89L11.381,89L12.185,89L13.829,89L14.622,89L15.488,89L16.24,89L17.039,89L18.698,89L19.496,89L20.39,89L20.704,89L21.112,89L21.89,89L23.517,89L24.339,89L25.201,89L25.954,89L26.744,89L28.374,89L29.188,89L30.086,89L30.449,89L30.808,89L31.605,89L33.227,89L34.047,89L34.914,89L35.667,89L36.458,89L38.084,89L38.901,89L39.767,89L40.517,89L41.311,89L42.935,89L43.749,89L44.608,89L45.36,89L46.162,89L47.797,89L48.602,89L49.466,89L50.222,89L51.019,89L52.659,89L53.479,89L54.364,89L55.089,89L55.88,89L57.507,89L58.331,89L59.94,89L60.73,89L62.356,89L63.177,89L63.495,89L64.042,89L64.583,89L64.795,89L65.589,89L67.211,89L68.034,89L68.899,89L69.65,89L70.443,89L72.067,89L72.887,89L73.749,89L74.503,89L75.296,89L76.917,89L77.731,89L78.59,89L79.347,89L80.111,89L80.148,89L81.774,89L82.293,89L82.584,89L83.447,89L84.205,89L85.006,89L86.645,89L87.462,89L88.323,89L89.067,89L89.86,89L91.493,89L92.314,89L93.182,89L93.926,89L94.719,89L96.342,89L97.162,89L98.027,89L98.779,89L99.573,89L101.197,89L102.019,89L102.878,89L103.638,89L104.427,89L106.054,89L106.874,89L107.736,89L108.484,89L109.284,89L110.905,89L111.321,89L111.715,89L112.571,89L113.331,89L114.137,89L115.759,89L116.57,89L117.43,89L118.187,89L118.992,89L120.623,89L121.448,89L122.314,89L123.06,89L123.855,89L125.476,89L126.302,89L127.197,89L127.919,89L128.705,89L130.325,89L131.152,89L132.013,89L132.766,89L133.563,89L135.187,89L136.006,89L136.867,89L137.612,89L138.414,89L140.038,89L140.86,89L141.72,89L142.47,89L143.27,89L144.891,89L145.704,89L146.561,89L147.316,89L148.125,89L149.748,89L150.559,89L151.413,89L152.171,89L152.981,89L154.612,89L155.43,89L156.298,89L157.046,89L157.84,89L159.463,89L160.29,89L161.152,89L161.899,89L162.696,89L164.32,89L165.141,89L166.008,89L166.756,89L167.551,89L169.175,89L169.996,89L170.862,89L171.609,89L172.407,89L174.031,89L174.851,89L175.716,89L176.467,89L177.259,89L178.883,89L179.698,89L180.556,89L181.307,89L182.113,89L183.74,89L184.549,89L185.41,89L186.167,89L186.971,89L188.598,89L189.425,89L190.289,89L191.026,89L191.831,89L193.452,89L194.276,89L195.14,89L195.893,89L196.686,89L198.309,89L199.134,89L199.997,89" stroke="#ff9da6" stroke-width="2"/></g></g><path class="foreground" aria-hidden="true" d="" display="none"/></g><g transform="translate(0,0)"><path class="background" aria-hidden="true" d="M0,0h200v200h-200Z"/><g><g class="mark-line role-mark marks" role="graphics-object" aria-roledescription="line mark container"><path aria-label="Time: Aug 14, 2025; Price: 999; identifier: fastroad-sl-3-2022" role="graphics-symbol" aria-roledescription="line mark" d="M0,89L0.041,89L0.072,89L0.968,89L1.679,89L2.477,89L4.115,89L4.919,89L5.807,89L6.535,89L7.33,89L8.955,89L9.768,89L10.63,89L11.382,89L12.185,89L13.829,89L14.622,89L15.488,89L16.241,89L17.04,89L18.698,89L19.496,89L20.39,89L20.704,89L21.112,89L21.89,89L23.517,89L24.339,89L25.201,89L25.954,89L26.744,89L28.374,89L29.188,89L30.086,89L30.449,89L30.808,89L31.605,89L33.227,89L34.047,89L34.914,89L35.667,89L36.458,89L38.084,89L38.902,89L39.767,89L40.518,89L41.311,89L42.936,89L43.749,89L44.608,89L45.36,89L46.162,89L47.797,89L48.602,89L49.466,89L50.222,89L51.019,89L52.659,89L53.479,89L54.365,89L55.09,89L55.88,89L57.507,89L58.331,89L59.94,89L60.731,89L62.356,89L63.177,89L63.496,89L64.042,89L64.583,89L64.795,89L65.59,89L67.211,89L68.034,89L68.899,89L69.65,89L70.443,89L72.067,89L72.887,89L73.749,89L74.503,89L75.296,89L76.917,89L77.731,89L78.59,89L79.347,89L80.111,89L80.149,89L81.775,89L82.293,89L82.584,89L83.448,89L84.205,89L85.006,89L86.646,89L87.462,89L88.323,89L89.067,89L89.86,89L91.493,89L92.314,89L93.182,89L93.926,89L94.719,89L96.343,89L97.162,89L98.027,89L98.779,89L99.573,89L101.197,89L102.019,89L102.878,89L103.638,89L104.427,89L106.054,89L106.874,89L107.736,89L108.484,89L109.284,89L110.905,89L111.321,89L111.715,89L112.571,89L113.332,89L114.137,89L115.759,89L116.57,89L117.43,89L118.188,89L118.993,89L120.623,89L121.448,89L122.314,89L123.06,89L123.855,89L125.476,89L126.302,89L127.197,89L127.919,89L128.705,89L130.325,89L131.153,89L132.013,89L132.767,89L133.563,89L135.187,89L136.006,89L136.867,89L137.613,89L138.414,89L140.038,89L140.86,89L141.72,89L142.47,89L143.27,89L144.891,89L145.704,89L146.561,89L147.317,89L148.126,89L149.748,89L150.56,89L151.413,89L152.171,89L152.981,89L154.612,89L155.43,89L156.298,89L157.046,89L157.84,89L159.463,89L160.29,89L161.152,89L161.899,89L162.696,89L164.32,89L165.141,89L166.008,89L166.756,89L167.551,89L169.175,89L169.996,89L170.862,89L171.609,89L172.407,89L174.031,89L174.851,89L175.716,89L176.467,89L177.259,89L178.883,89L179.698,89L180.556,89L181.308,89L182.114,89L183.74,89L184.549,89L185.411,89L186.167,89L186.971,89L188.598,89L189.425,89L190.289,89L191.026,89L191.831,89L193.452,89L194.276,89L195.14,89L195.893,89L196.686,89L198.309,89L199.134,89L199.997,89" stroke="#9d755d" stroke-width="2"/></g></g><path class="foreground" aria-hidden="true" d="" display="none"/></g><g transform="translate(0,0)"><path class="background" aria-hidden="true" d="M0,0h200v200h-200Z"/><g><g class="mark-line role-mark marks" role="graphics-object" aria-roledescription="line mark container"><path aria-label="Time: Aug 14, 2025; Price: 1199; identifier: fastroad-ar-2" role="graphics-symbol" aria-roledescription="line mark" d="M0,66.778L0.041,66.778L0.072,66.778L0.968,66.778L1.679,66.778L2.477,66.778L4.115,66.778L4.919,66.778L5.807,66.778L6.535,66.778L7.33,66.778L8.955,66.778L9.769,66.778L10.63,66.778L11.382,66.778L12.189,66.778L13.829,66.778L14.622,66.778L15.488,66.778L16.241,66.778L17.04,66.778L18.698,66.778L19.496,66.778L20.39,66.778L20.704,66.778L21.112,66.778L21.89,66.778L23.517,66.778L24.339,66.778L25.201,66.778L25.955,66.778L26.744,66.778L28.374,66.778L29.188,66.778L30.086,66.778L30.449,66.778L30.809,66.778L31.606,66.778L33.227,66.778L34.048,66.778L34.914,66.778L35.667,66.778L36.458,66.778L38.084,66.778L38.902,66.778L39.767,66.778L40.518,66.778L41.311,66.778L42.936,66.778L43.75,66.778L44.608,66.778L45.36,66.778L46.162,66.778L47.797,66.778L48.602,66.778L49.466,66.778L50.222,66.778L51.019,66.778L52.659,66.778L53.479,66.778L54.365,66.778L55.09,66.778L55.88,66.778L57.507,66.778L58.331,66.778L59.941,66.778L60.731,66.778L62.357,66.778L63.177,66.778L63.496,66.778L64.042,66.778L64.583,66.778L64.795,66.778L65.59,66.778L67.211,66.778L68.035,66.778L68.899,66.778L69.65,66.778L70.443,66.778L72.067,66.778L72.887,66.778L73.749,66.778L74.504,66.778L75.296,66.778L76.917,66.778L77.731,66.778L78.59,66.778L79.347,66.778L80.111,66.778L80.149,66.778L81.775,66.778L82.293,66.778L82.584,66.778L83.448,66.778L84.205,66.778L85.006,66.778L86.646,66.778L87.462,66.778L88.323,66.778L89.067,66.778L89.86,66.778L91.493,66.778L92.314,66.778L93.182,66.778L93.926,66.778L94.719,66.778L96.343,66.778L97.162,66.778L98.027,66.778L98.779,66.778L99.573,66.778L101.197,66.778L102.019,66.778L102.878,66.778L103.638,66.778L104.427,66.778L106.054,66.778L106.874,66.778L107.736,66.778L108.484,66.778L109.285,66.778L110.905,66.778L111.321,66.778L111.715,66.778L112.571,66.778L113.332,66.778L114.137,66.778L115.759,66.778L116.57,66.778L117.43,66.778L118.188,66.778L118.993,66.778L120.623,66.778L121.448,66.778L122.314,66.778L123.06,66.778L123.855,66.778L125.476,66.778L126.302,66.778L127.197,66.778L127.919,66.778L128.705,66.778L130.325,66.778L131.153,66.778L132.014,66.778L132.767,66.778L133.563,66.778L135.187,66.778L136.007,66.778L136.867,66.778L137.613,66.778L138.414,66.778L140.039,66.778L140.86,66.778L141.72,66.778L142.47,66.778L143.27,66.778L144.891,66.778L145.704,66.778L146.561,66.778L147.317,66.778L148.126,66.778L149.748,66.778L150.56,66.778L151.413,66.778L152.171,66.778L152.981,66.778L154.612,66.778L155.43,66.778L156.298,66.778L157.046,66.778L157.84,66.778L159.463,66.778L160.29,66.778L161.152,66.778L161.9,66.778L162.696,66.778L164.321,66.778L165.141,66.778L166.008,66.778L166.756,66.778L167.551,66.778L169.175,66.778L169.996,66.778L170.862,66.778L171.609,66.778L172.407,66.778L174.031,66.778L174.851,66.778L175.716,66.778L176.467,66.778L177.259,66.778L178.883,66.778L179.698,66.778L180.557,66.778L181.308,66.778L182.114,66.778L183.74,66.778L184.549,66.778L185.411,66.778L186.167,66.778L186.971,66.778L188.598,66.778L189.425,66.778L190.289,66.778L191.026,66.778L191.831,66.778L193.452,66.778L194.276,66.778L195.14,66.778L195.893,66.778L196.686,66.778L198.309,66.778L199.134,66.778L199.997,66.778" stroke="#54a24b" stroke-width="2"/></g></g><path class="foreground" aria-hidden="true" d="" display="none"/></g><g transform="translate(0,0)"><path class="background" aria-hidden="true" d="M0,0h200v200h-200Z"/><g><g class="mark-line role-mark marks" role="graphics-object" aria-roledescription="line mark container"><path aria-label="Time: Aug 18, 2025; Price: 899; identifier: sdrbike-escape-1-city-disc" role="graphics-symbol" aria-roledescription="line mark" d="M20.704,100.111L21.112,100.111L21.891,100.111L23.517,100.111L24.339,100.111L25.202,100.111L25.955,100.111L26.744,100.111L28.374,100.111L29.188,100.111L30.086,100.111L30.449,100.111L30.809,100.111L31.606,100.111L33.227,100.111L34.048,100.111L34.914,100.111L35.667,100.111L36.459,100.111L38.084,100.111L38.902,100.111L39.768,100.111L40.518,100.111L41.311,100.111L42.936,100.111L43.75,100.111L44.608,100.111L45.361,100.111L46.162,100.111L47.797,100.111L48.602,100.111L49.466,100.111L50.222,100.111L51.019,100.111L52.66,100.111L53.479,100.111L54.365,100.111L55.09,100.111L55.88,100.111L57.508,100.111L58.331,100.111L59.941,100.111L60.731,100.111L62.357,100.111L63.177,100.111L63.496,100.111L64.042,100.111L64.583,100.111L64.795,100.111L65.59,100.111L67.211,100.111L68.035,100.111L68.9,100.111L69.65,100.111L70.443,100.111L72.067,100.111L72.887,100.111L73.749,100.111L74.504,100.111L75.296,100.111L76.917,100.111L77.731,100.111L78.59,100.111L79.347,100.111L80.111,100.111L80.149,100.111L81.775,100.111L82.293,100.111L82.584,100.111L83.448,100.111L84.206,100.111L85.006,100.111L86.646,100.111L87.462,100.111L88.324,100.111L89.067,100.111L89.86,100.111L91.494,100.111L92.314,100.111L93.182,100.111L93.926,100.111L94.719,100.111L96.343,100.111L97.162,100.111L98.027,100.111L98.779,100.111L99.573,100.111L101.197,100.111L102.02,100.111L102.878,100.111L103.638,100.111L104.428,100.111L106.055,100.111L106.874,100.111L107.736,100.111L108.484,100.111L109.285,100.111L110.905,100.111L111.321,100.111L111.715,100.111L112.572,100.111L113.332,100.111L114.138,100.111L115.759,100.111L116.57,100.111L117.43,100.111L118.188,100.111L118.993,100.111L120.623,100.111L121.448,100.111L122.314,100.111L123.06,100.111L123.856,100.111L125.476,100.111L126.302,100.111L127.197,100.111L127.919,100.111L128.706,100.111L130.325,100.111L131.153,100.111L132.014,100.111L132.767,100.111L133.563,100.111L135.187,100.111L136.007,100.111L136.867,100.111L137.613,100.111L138.415,100.111L140.039,100.111L140.86,100.111L141.72,100.111L142.471,100.111L143.27,100.111L144.891,100.111L145.704,100.111L146.561,100.111L147.317,100.111L148.126,100.111L149.748,100.111L150.56,100.111L151.414,100.111L152.171,100.111L152.981,100.111L154.612,100.111L155.43,100.111L156.298,100.111L157.047,100.111L157.84,100.111L159.463,100.111L160.29,100.111L161.153,100.111L161.9,100.111L162.697,100.111L164.321,100.111L165.142,100.111L166.008,100.111L166.756,100.111L167.551,100.111L169.175,100.111L169.996,100.111L170.862,100.111L171.609,100.111L172.407,100.111L174.031,100.111L174.851,100.111L175.716,100.111L176.467,100.111L177.26,100.111L178.883,100.111L179.698,100.111L180.557,100.111L181.308,100.111L182.114,100.111L183.74,100.111L184.55,100.111L185.411,100.111L186.168,100.111L186.972,100.111L188.598,100.111L189.425,100.111L190.289,100.111L191.026,100.111L191.831,100.111L193.452,100.111L194.277,100.111L195.141,100.111L195.893,100.111L196.686,100.111L198.31,100.111L199.134,100.111L199.997,100.111" stroke="#f58518" stroke-width="2"/></g></g><path class="foreground" aria-hidden="true" d="" display="none"/></g><g transform="translate(0,0)"><path class="background" aria-hidden="true" d="M0,0h200v200h-200Z"/><g><g class="mark-line role-mark marks" role="graphics-object" aria-roledescription="line mark container"><path aria-label="Time: Aug 20, 2025; Price: 899; identifier: roam-disc-2-2024" role="graphics-symbol" aria-roledescription="line mark" d="M30.449,100.111L30.808,100.111L31.605,100.111L33.227,100.111L34.047,100.111L34.914,100.111L35.667,100.111L36.458,100.111L38.083,100.111L38.901,100.111L39.767,100.111L40.517,100.111L41.311,100.111L42.935,100.111L43.749,100.111L44.608,100.111L45.36,100.111L46.162,100.111L47.797,100.111L48.601,100.111L49.466,100.111L50.222,100.111L51.019,100.111L52.659,100.111L53.479,100.111L54.364,100.111L55.089,100.111L55.88,100.111L57.507,100.111L58.331,100.111L59.94,100.111L60.73,100.111L62.356,100.111L63.177,100.111L63.495,100.111L64.042,100.111L64.583,100.111L64.795,100.111L65.589,100.111L67.211,100.111L68.034,100.111L68.899,100.111L69.65,100.111L70.443,100.111L72.067,100.111L72.886,100.111L73.749,100.111L74.503,100.111L75.296,100.111L76.917,100.111L77.73,100.111L78.589,100.111L79.347,100.111L80.11,100.111L80.148,100.111L81.774,100.111L82.293,100.111L82.584,100.111L83.447,100.111L84.205,100.111L85.006,100.111L86.645,100.111L87.462,100.111L88.323,100.111L89.067,100.111L89.86,100.111L91.493,100.111L92.314,100.111L93.182,100.111L93.925,100.111L94.719,100.111L96.342,100.111L97.162,100.111L98.027,100.111L98.779,100.111L99.573,100.111L101.197,100.111L102.019,100.111L102.878,100.111L103.638,100.111L104.427,100.111L106.054,100.111L106.874,100.111L107.736,100.111L108.484,100.111L109.284,100.111L110.904,100.111L111.321,100.111L111.715,100.111L112.571,100.111L113.331,100.111L114.137,100.111L115.758,100.111L116.569,100.111L117.43,100.111L118.187,100.111L118.992,100.111L120.622,100.111L121.448,100.111L122.314,100.111L123.06,100.111L123.855,100.111L125.476,100.111L126.302,100.111L127.197,100.111L127.919,100.111L128.705,100.111L130.325,100.111L131.152,100.111L132.013,100.111L132.766,100.111L133.563,100.111L135.186,100.111L136.006,100.111L136.867,100.111L137.612,100.111L138.414,100.111L140.038,100.111L140.86,100.111L141.72,100.111L142.47,100.111L143.269,100.111L144.891,100.111L145.704,100.111L146.561,100.111L147.316,100.111L148.125,100.111L149.748,100.111L150.559,100.111L151.413,100.111L152.171,100.111L152.981,100.111L154.611,100.111L155.43,100.111L156.298,100.111L157.046,100.111L157.84,100.111L159.463,100.111L160.29,100.111L161.152,100.111L161.899,100.111L162.696,100.111L164.32,100.111L165.141,100.111L166.008,100.111L166.756,100.111L167.551,100.111L169.175,100.111L169.995,100.111L170.862,100.111L171.609,100.111L172.407,100.111L174.031,100.111L174.851,100.111L175.716,100.111L176.467,100.111L177.259,100.111L178.883,100.111L179.698,100.111L180.556,100.111L181.307,100.111L182.113,100.111L183.74,100.111L184.549,100.111L185.41,100.111L186.167,100.111L186.971,100.111L188.598,100.111L189.425,100.111L190.289,100.111L191.026,100.111L191.831,100.111L193.452,100.111L194.276,100.111L195.14,100.111L195.892,100.111L196.686,100.111L198.309,100.111L199.133,100.111L199.997,100.111" stroke="#e45756" stroke-width="2"/></g></g><path class="foreground" aria-hidden="true" d="" display="none"/></g><g transform="translate(0,0)"><path class="background" aria-hidden="true" d="M0,0h200v200h-200Z"/><g><g class="mark-line role-mark marks" role="graphics-object" aria-roledescription="line mark container"><path aria-label="Time: Aug 20, 2025; Price: 1199; identifier: thrive-2" role="graphics-symbol" aria-roledescription="line mark" d="M30.449,66.778L30.809,66.778L31.606,66.778L33.227,66.778L34.048,66.778L34.914,66.778L35.667,66.778L36.459,66.778L38.084,66.778L38.902,66.778L39.768,66.778L40.518,66.778L41.312,66.778L42.936,66.778L43.75,66.778L44.608,66.778L45.361,66.778L46.162,66.778L47.797,66.778L48.602,66.778L49.467,66.778L50.222,66.778L51.019,66.778L52.66,66.778L53.479,66.778L54.365,66.778L55.09,66.778L55.88,66.778L57.508,66.778L58.332,66.778L59.941,66.778L60.731,66.778L62.357,66.778L63.177,66.778L63.496,66.778L64.042,66.778L64.584,66.778L64.796,66.778L65.59,66.778L67.212,66.778L68.035,66.778L68.9,66.778L69.65,66.778L70.444,66.778L72.067,66.778L72.887,66.778L73.75,66.778L74.504,66.778L75.296,66.778L76.917,66.778L77.731,66.778L78.59,66.778L79.348,66.778L80.111,66.778L80.149,66.778L81.775,66.778L82.293,66.778L82.584,66.778L83.448,66.778L84.206,66.778L85.006,66.778L86.646,66.778L87.462,66.778L88.324,66.778L89.067,66.778L89.861,66.778L91.494,66.778L92.315,66.778L93.182,66.778L93.926,66.778L94.719,66.778L96.343,66.778L97.162,66.778L98.027,66.778L98.779,66.778L99.573,66.778L101.197,66.778L102.02,66.778L102.878,66.778L103.638,66.778L104.428,66.778L106.055,66.778L106.874,66.778L107.736,66.778L108.484,66.778L109.285,66.778L110.905,66.778L111.321,66.778L111.715,66.778L112.572,66.778L113.332,66.778L114.138,66.778L115.759,66.778L116.57,66.778L117.43,66.778L118.188,66.778L118.993,66.778L120.623,66.778L121.449,66.778L122.315,66.778L123.061,66.778L123.856,66.778L125.476,66.778L126.302,66.778L127.197,66.778L127.919,66.778L128.706,66.778L130.325,66.778L131.153,66.778L132.014,66.778L132.767,66.778L133.563,66.778L135.187,66.778L136.007,66.778L136.867,66.778L137.613,66.778L138.415,66.778L140.039,66.778L140.86,66.778L141.72,66.778L142.471,66.778L143.27,66.778L144.891,66.778L145.704,66.778L146.562,66.778L147.317,66.778L148.126,66.778L149.749,66.778L150.56,66.778L151.414,66.778L152.171,66.778L152.982,66.778L154.612,66.778L155.431,66.778L156.299,66.778L157.047,66.778L157.841,66.778L159.463,66.778L160.29,66.778L161.153,66.778L161.9,66.778L162.697,66.778L164.321,66.778L165.142,66.778L166.008,66.778L166.757,66.778L167.551,66.778L169.175,66.778L169.996,66.778L170.862,66.778L171.609,66.778L172.407,66.778L174.031,66.778L174.851,66.778L175.716,66.778L176.467,66.778L177.26,66.778L178.883,66.778L179.698,66.778L180.557,66.778L181.308,66.778L182.114,66.778L183.74,66.778L184.55,66.778L185.411,66.778L186.168,66.778L186.972,66.778L188.599,66.778L189.425,66.778L190.289,66.778L191.027,66.778L191.831,66.778L193.453,66.778L194.277,66.778L195.141,66.778L195.893,66.778L196.686,66.778L198.31,66.778L199.134,66.778L199.997,66.778" stroke="#eeca3b" stroke-width="2"/></g></g><path class="foreground" aria-hidden="true" d="" display="none"/></g><g transform="translate(0,0)"><path class="background" aria-hidden="true" d="M0,0h200v200h-200Z"/><g><g class="mark-line role-mark marks" role="graphics-object" aria-roledescription="line mark container"><path aria-label="Time: Aug 20, 2025; Price: 999; identifier: rove-2" role="graphics-symbol" aria-roledescription="line mark" d="M30.449,89L30.809,89L31.606,89L33.227,89L34.048,89L34.914,89L35.667,89L36.459,89L38.084,89L38.902,89L39.768,89L40.518,89L41.312,89L42.936,89L43.75,89L44.608,89L45.361,89L46.162,89L47.798,89L48.602,89L49.467,89L50.222,89L51.019,89L52.66,89L53.479,89L54.365,89L55.09,89L55.881,89L57.508,89L58.332,89L59.941,89L60.731,89L62.357,89L63.177,89L63.497,89L64.042,89L64.584,89L64.796,89L65.59,89L67.212,89L68.035,89L68.9,89L69.65,89L70.444,89L72.067,89L72.887,89L73.75,89L74.504,89L75.297,89L80.111,111.222L80.149,111.222L81.775,111.222L82.294,111.222L82.585,111.222L83.448,111.222L84.206,111.222L85.006,111.222L86.646,111.222L87.462,111.222L88.324,111.222L89.068,111.222L89.861,111.222L91.494,111.222L92.315,111.222L93.182,111.222L93.926,111.222L94.72,111.222L96.343,111.222L97.162,111.222L98.027,111.222L98.779,111.222L99.573,111.222L101.197,111.222L102.02,111.222L102.878,111.222L103.638,111.222L104.428,111.222L106.055,111.222L106.874,111.222L107.737,111.222L108.485,111.222L109.285,111.222L110.905,111.222L111.322,111.222L111.715,111.222L112.572,111.222L113.332,111.222L114.138,111.222L115.759,111.222L116.57,111.222L117.43,111.222L118.188,111.222L118.993,111.222L120.623,111.222L121.449,111.222L122.315,111.222L123.061,111.222L123.856,111.222L125.477,111.222L126.302,111.222L127.198,111.222L127.919,111.222L128.706,111.222L130.325,111.222L131.153,111.222L132.014,111.222L132.767,111.222L133.564,111.222L135.187,111.222L136.007,111.222L136.867,111.222L137.613,111.222L138.415,111.222L140.039,111.222L140.861,111.222L141.721,111.222L142.471,111.222L143.27,111.222L144.891,111.222L145.704,111.222L146.562,111.222L147.317,111.222L148.126,111.222L149.749,111.222L150.56,111.222L151.414,111.222L152.171,111.222L152.982,111.222L154.612,111.222L155.431,111.222L156.299,111.222L157.047,111.222L157.841,111.222L159.464,111.222L160.29,111.222L161.153,111.222L161.9,111.222L162.697,111.222L164.321,111.222L165.142,111.222L166.009,111.222L166.757,111.222L167.551,111.222L169.176,111.222L169.996,111.222L170.863,111.222L171.609,111.222L172.407,111.222L174.031,111.222L174.851,111.222L175.716,111.222L176.468,111.222L177.26,111.222L178.883,111.222L179.698,111.222L180.557,111.222L181.308,111.222L182.114,111.222L183.74,111.222L184.55,111.222L185.411,111.222L186.168,111.222L186.972,111.222L188.599,111.222L189.425,111.222L190.289,111.222L191.027,111.222L191.832,111.222L193.453,111.222L194.277,111.222L195.141,111.222L195.893,111.222L196.687,111.222L198.31,111.222L199.134,111.222L199.998,111.222" stroke="#72b7b2" stroke-width="2"/></g></g><path class="foreground" aria-hidden="true" d="" display="none"/></g><g transform="translate(0,0)"><path class="background" aria-hidden="true" d="M0,0h200v200h-200Z"/><g><g class="mark-line role-mark marks" role="graphics-object" aria-roledescription="line mark container"><path aria-label="Time: Aug 27, 2025; Price: 1199; identifier: allure-rs-1-2023" role="graphics-symbol" aria-roledescription="line mark" d="M63.497,66.778L64.042,66.778L64.584,66.778L64.796,66.778L65.59,66.778L67.212,66.778L68.035,66.778L68.9,66.778L69.65,66.778L70.444,66.778L72.068,66.778L72.887,66.778L73.75,66.778L74.504,66.778L75.297,66.778L76.918,66.778L77.731,66.778L78.59,66.778L79.348,66.778L80.111,66.778L80.149,66.778L81.775,66.778L82.294,66.778L82.585,66.778L83.448,66.778L84.206,66.778L85.006,66.778L86.646,66.778L87.462,66.778L88.324,66.778L89.068,66.778L89.861,66.778L91.494,66.778L92.315,66.778L93.183,66.778L93.926,66.778L94.72,66.778L96.343,66.778L97.163,66.778L98.027,66.778L98.779,66.778L99.573,66.778L101.197,66.778L102.02,66.778L102.879,66.778L103.638,66.778L104.428,66.778L106.055,66.778L106.874,66.778L107.737,66.778L108.485,66.778L109.285,66.778L110.905,66.778L111.322,66.778L111.715,66.778L112.572,66.778L113.332,66.778L114.138,66.778L115.759,66.778L116.57,66.778L117.43,66.778L118.188,66.778L118.993,66.778L120.623,66.778L121.449,66.778L122.315,66.778L123.061,66.778L123.856,66.778L125.477,66.778L126.302,66.778L127.198,66.778L127.919,66.778L128.706,66.778L130.325,66.778L131.153,66.778L132.014,66.778L132.767,66.778L133.564,66.778L135.187,66.778L136.007,66.778L136.867,66.778L137.613,66.778L138.415,66.778L140.039,66.778L140.861,66.778L141.721,66.778L142.471,66.778L143.27,66.778L144.892,66.778L145.704,66.778L146.562,66.778L147.317,66.778L148.126,66.778L149.749,66.778L150.56,66.778L151.414,66.778L152.171,66.778L152.982,66.778L154.612,66.778L155.431,66.778L156.299,66.778L157.047,66.778L157.841,66.778L159.464,66.778L160.291,66.778L161.153,66.778L161.9,66.778L162.697,66.778L164.321,66.778L165.142,66.778L166.009,66.778L166.757,66.778L167.551,66.778L169.176,66.778L169.996,66.778L170.863,66.778L171.609,66.778L172.408,66.778L174.031,66.778L174.852,66.778L175.716,66.778L176.468,66.778L177.26,66.778L178.883,66.778L179.698,66.778L180.557,66.778L181.308,66.778L182.114,66.778L183.741,66.778L184.55,66.778L185.411,66.778L186.168,66.778L186.972,66.778L188.599,66.778L189.425,66.778L190.289,66.778L191.027,66.778L191.832,66.778L193.453,66.778L194.277,66.778L195.141,66.778L195.893,66.778L196.687,66.778L198.31,66.778L199.134,66.778L199.998,66.778" stroke="#b279a2" stroke-width="2"/></g></g><path class="foreground" aria-hidden="true" d="" display="none"/></g><g transform="translate(0,0)"><path class="background" aria-hidden="true" d="M0,0h200v200h-200Z"/><g><g class="mark-line role-mark marks" role="graphics-object" aria-roledescription="line mark container"><path aria-label="Time: Aug 27, 2025; Price: 999; identifier: allure-rs-2-2022" role="graphics-symbol" aria-roledescription="line mark" d="M63.497,89L64.042,89L64.584,89L64.796,89L65.59,89L67.212,89L68.035,89L68.9,89L69.651,89L70.444,89L72.068,89L72.887,89L73.75,89L74.504,89L75.297,89L80.112,111.222L80.149,111.222L81.775,111.222L82.294,111.222L82.585,111.222L83.448,111.222L84.206,111.222L85.006,111.222L86.646,111.222L87.462,111.222L88.324,111.222L89.068,111.222L89.861,111.222L91.494,111.222L92.315,111.222L93.183,111.222L93.926,111.222L94.72,111.222L96.343,111.222L97.163,111.222L98.028,111.222L98.779,111.222L99.574,111.222L101.198,111.222L102.02,111.222L102.879,111.222L103.639,111.222L104.428,111.222L106.055,111.222L106.874,111.222L107.737,111.222L108.485,111.222L109.285,111.222L110.905,111.222L111.322,111.222L111.716,111.222L112.572,111.222L113.332,111.222L114.138,111.222L115.759,111.222L116.571,111.222L117.431,111.222L118.188,111.222L118.993,111.222L120.623,111.222L121.449,111.222L122.315,111.222L123.061,111.222L123.856,111.222L125.477,111.222L126.303,111.222L127.198,111.222L127.92,111.222L128.706,111.222L130.326,111.222L131.153,111.222L132.014,111.222L132.767,111.222L133.564,111.222L135.187,111.222L136.007,111.222L136.868,111.222L137.613,111.222L138.415,111.222L140.039,111.222L140.861,111.222L141.721,111.222L142.471,111.222L143.27,111.222L144.892,111.222L145.705,111.222L146.562,111.222L147.317,111.222L148.126,111.222L149.749,111.222L150.56,111.222L151.414,111.222L152.171,111.222L152.982,111.222L154.612,111.222L155.431,111.222L156.299,111.222L157.047,111.222L157.841,111.222L159.464,111.222L160.291,111.222L161.153,111.222L161.9,111.222L162.697,111.222L164.321,111.222L165.142,111.222L166.009,111.222L166.757,111.222L167.552,111.222L169.176,111.222L169.996,111.222L170.863,111.222L171.61,111.222L172.408,111.222L174.032,111.222L174.852,111.222L175.716,111.222L176.468,111.222L177.26,111.222L178.884,111.222L179.699,111.222L180.557,111.222L181.308,111.222L182.114,111.222L183.741,111.222L184.55,111.222L185.411,111.222L186.168,111.222L186.972,111.222L188.599,111.222L189.426,111.222L190.29,111.222L191.027,111.222L191.832,111.222L193.453,111.222L194.277,111.222L195.141,111.222L195.893,111.222L196.687,111.222L198.31,111.222L199.134,111.222L199.998,111.222" stroke="#54a24b" stroke-width="2"/></g></g><path class="foreground" aria-hidden="true" d="" display="none"/></g><g transform="translate(0,0)"><path class="background" aria-hidden="true" d="M0,0h200v200h-200Z"/><g><g class="mark-line role-mark marks" role="graphics-object" aria-roledescription="line mark container"><path aria-label="Time: Aug 27, 2025; Price: 949; identifier: allure-rs-2-2023" role="graphics-symbol" aria-roledescription="line mark" d="M63.497,94.556L64.042,94.556L64.584,94.556L64.796,94.556L65.591,94.556L67.212,94.556L68.035,94.556L68.9,94.556L69.651,94.556L70.444,94.556L72.068,94.556L72.887,94.556L73.75,94.556L74.504,94.556L75.297,94.556L76.918,94.556L77.731,94.556L78.591,94.556L79.348,94.556L80.112,94.556L80.149,94.556L81.775,94.556L82.294,94.556L82.585,94.556L83.448,94.556L84.206,94.556L85.006,94.556L86.646,94.556L87.463,94.556L88.324,94.556L89.068,94.556L89.861,94.556L91.494,94.556L92.315,94.556L93.183,94.556L93.926,94.556L94.72,94.556L96.343,94.556L97.163,94.556L98.028,94.556L98.78,94.556L99.574,94.556L101.198,94.556L102.02,94.556L102.879,94.556L103.639,94.556L104.428,94.556L106.055,94.556L106.874,94.556L107.737,94.556L108.485,94.556L109.285,94.556L110.905,94.556L111.322,94.556L111.716,94.556L112.572,94.556L113.332,94.556L114.138,94.556L115.759,94.556L116.571,94.556L117.431,94.556L118.188,94.556L118.993,94.556L120.623,94.556L121.449,94.556L122.315,94.556L123.061,94.556L123.856,94.556L125.477,94.556L126.303,94.556L127.198,94.556L127.92,94.556L128.706,94.556L130.326,94.556L131.154,94.556L132.014,94.556L132.767,94.556L133.564,94.556L135.188,94.556L136.007,94.556L136.868,94.556L137.614,94.556L138.415,94.556L140.039,94.556L140.861,94.556L141.721,94.556L142.471,94.556L143.27,94.556L144.892,94.556L145.705,94.556L146.562,94.556L147.317,94.556L148.126,94.556L149.749,94.556L150.56,94.556L151.414,94.556L152.172,94.556L152.982,94.556L154.613,94.556L155.431,94.556L156.299,94.556L157.047,94.556L157.841,94.556L159.464,94.556L160.291,94.556L161.153,94.556L161.9,94.556L162.697,94.556L164.321,94.556L165.142,94.556L166.009,94.556L166.757,94.556L167.552,94.556L169.176,94.556L169.996,94.556L170.863,94.556L171.61,94.556L172.408,94.556L174.032,94.556L174.852,94.556L175.717,94.556L176.468,94.556L177.26,94.556L178.884,94.556L179.699,94.556L180.557,94.556L181.308,94.556L182.114,94.556L183.741,94.556L184.55,94.556L185.411,94.556L186.168,94.556L186.972,94.556L188.599,94.556L189.426,94.556L190.29,94.556L191.027,94.556L191.832,94.556L193.453,94.556L194.277,94.556L195.141,94.556L195.894,94.556L196.687,94.556L198.31,94.556L199.134,94.556L199.998,94.556" stroke="#bab0ac" stroke-width="2"/></g></g><path class="foreground" aria-hidden="true" d="" display="none"/></g><g transform="translate(0,0)"><path class="background" aria-hidden="true" d="M0,0h200v200h-200Z"/><g><g class="mark-line role-mark marks" role="graphics-object" aria-roledescription="line mark container"><path aria-label="Time: Aug 27, 2025; Price: 999; identifier: allure-rs-2-2024" role="graphics-symbol" aria-roledescription="line mark" d="M63.498,89L64.043,89L64.584,89L64.796,89L65.591,89L67.212,89L68.036,89L68.9,89L69.651,89L70.444,89L72.068,89L72.888,89L73.75,89L74.504,89L75.297,89L80.112,111.222L80.149,111.222L81.775,111.222L82.294,111.222L82.585,111.222L83.449,111.222L84.206,111.222L85.007,111.222L86.646,111.222L87.463,111.222L88.324,111.222L89.068,111.222L89.861,111.222L91.494,111.222L92.315,111.222L93.183,111.222L93.926,111.222L94.72,111.222L96.343,111.222L97.163,111.222L98.028,111.222L98.78,111.222L99.574,111.222L101.198,111.222L102.02,111.222L102.879,111.222L103.639,111.222L104.428,111.222L106.055,111.222L106.875,111.222L107.737,111.222L108.485,111.222L109.285,111.222L110.906,111.222L111.322,111.222L111.716,111.222L112.572,111.222L113.332,111.222L114.138,111.222L115.759,111.222L116.571,111.222L117.431,111.222L118.188,111.222L118.993,111.222L120.624,111.222L121.449,111.222L122.315,111.222L123.061,111.222L123.856,111.222L125.477,111.222L126.303,111.222L127.198,111.222L127.92,111.222L128.706,111.222L130.326,111.222L131.154,111.222L132.014,111.222L132.768,111.222L133.564,111.222L135.188,111.222L136.007,111.222L136.868,111.222L137.614,111.222L138.415,111.222L140.039,111.222L140.861,111.222L141.721,111.222L142.471,111.222L143.27,111.222L144.892,111.222L145.705,111.222L146.562,111.222L147.318,111.222L148.127,111.222L149.749,111.222L150.561,111.222L151.414,111.222L152.172,111.222L152.982,111.222L154.613,111.222L155.431,111.222L156.299,111.222L157.048,111.222L157.841,111.222L159.464,111.222L160.291,111.222L161.153,111.222L161.9,111.222L162.697,111.222L164.321,111.222L165.142,111.222L166.009,111.222L166.757,111.222L167.552,111.222L169.176,111.222L169.996,111.222L170.863,111.222L171.61,111.222L172.408,111.222L174.032,111.222L174.852,111.222L175.717,111.222L176.468,111.222L177.26,111.222L178.884,111.222L179.699,111.222L180.557,111.222L181.309,111.222L182.114,111.222L183.741,111.222L184.55,111.222L185.412,111.222L186.168,111.222L186.972,111.222L188.599,111.222L189.426,111.222L190.29,111.222L191.027,111.222L191.832,111.222L193.453,111.222L194.277,111.222L195.141,111.222L195.894,111.222L196.687,111.222L198.31,111.222L199.134,111.222L199.998,111.222" stroke="#eeca3b" stroke-width="2"/></g></g><path class="foreground" aria-hidden="true" d="" display="none"/></g><g transform="translate(0,0)"><path class="background" aria-hidden="true" d="M0,0h200v200h-200Z"/><g><g class="mark-line role-mark marks" role="graphics-object" aria-roledescription="line mark container"><path aria-label="Time: Aug 27, 2025; Price: 1799; identifier: devote-1-2024" role="graphics-symbol" aria-roledescription="line mark" d="M64.584,0.111L64.796,0.111L65.591,0.111L67.212,0.111L68.036,0.111L68.9,0.111L69.651,0.111L70.444,0.111L72.068,0.111L72.888,0.111L73.75,0.111L74.504,0.111L75.297,0.111L80.112,44.556L80.149,44.556L81.775,44.556L82.294,44.556L82.585,44.556L83.449,44.556L84.206,44.556L85.007,44.556L86.647,44.556L87.463,44.556L88.324,44.556L89.068,44.556L89.861,44.556L91.494,44.556L92.315,44.556L93.183,44.556L93.927,44.556L94.72,44.556L96.344,44.556L97.163,44.556L98.028,44.556L98.78,44.556L99.574,44.556L101.198,44.556L102.02,44.556L102.879,44.556L103.639,44.556L104.428,44.556L106.055,44.556L106.875,44.556L107.737,44.556L108.485,44.556L109.285,44.556L110.906,44.556L111.322,44.556L111.716,44.556L112.572,44.556L113.332,44.556L114.138,44.556L115.76,44.556L116.571,44.556L117.431,44.556L118.188,44.556L118.993,44.556L120.624,44.556L121.449,44.556L122.315,44.556L123.061,44.556L123.856,44.556L125.477,44.556L126.303,44.556L127.198,44.556L127.92,44.556L128.706,44.556L130.326,44.556L131.154,44.556L132.014,44.556L132.768,44.556L133.564,44.556L135.188,44.556L136.007,44.556L136.868,44.556L137.614,44.556L138.415,44.556L140.04,44.556L140.861,44.556L141.722,44.556L142.471,44.556L143.271,44.556L144.892,44.556L145.705,44.556L146.562,44.556L147.318,44.556L148.127,44.556L149.749,44.556L150.561,44.556L151.414,44.556L152.172,44.556L152.982,44.556L154.613,44.556L155.431,44.556L156.299,44.556L157.049,44.556L157.842,44.556L159.464,44.556L160.291,44.556L161.153,44.556L161.901,44.556L162.697,44.556L164.321,44.556L165.142,44.556L166.009,44.556L166.757,44.556L167.552,44.556L169.176,44.556L169.997,44.556L170.863,44.556L171.61,44.556L172.408,44.556L174.032,44.556L174.852,44.556L175.717,44.556L176.468,44.556L177.26,44.556L178.884,44.556L179.699,44.556L180.558,44.556L181.309,44.556L182.114,44.556L183.741,44.556L184.55,44.556L185.412,44.556L186.168,44.556L186.972,44.556L188.599,44.556L189.426,44.556L190.29,44.556L191.027,44.556L191.832,44.556L193.453,44.556L194.277,44.556L195.141,44.556L195.894,44.556L196.687,44.556L198.31,44.556L199.135,44.556L199.998,44.556" stroke="#72b7b2" stroke-width="2"/></g></g><path class="foreground" aria-hidden="true" d="" display="none"/></g><g transform="translate(0,0)"><path class="background" aria-hidden="true" d="M0,0h200v200h-200Z"/><g><g class="mark-line role-mark marks" role="graphics-object" aria-roledescription="line mark container"><path aria-label="Time: Aug 27, 2025; Price: 1699; identifier: devote-1-2022" role="graphics-symbol" aria-roledescription="line mark" d="M64.584,11.222L64.796,11.222L65.591,11.222L67.212,11.222L68.036,11.222L68.901,11.222L69.651,11.222L70.444,11.222L72.068,11.222L72.888,11.222L73.75,11.222L74.504,11.222L75.297,11.222L76.918,11.222L77.732,11.222L78.591,11.222L79.348,11.222L80.112,11.222L80.149,11.222L81.776,11.222L82.294,11.222L82.585,11.222L83.449,11.222L84.206,11.222L85.007,11.222L86.647,11.222L87.463,11.222L88.325,11.222L89.068,11.222L89.861,11.222L91.495,11.222L92.315,11.222L93.183,11.222L93.927,11.222L94.72,11.222L96.344,11.222L97.163,11.222L98.028,11.222L98.78,11.222L99.574,11.222L101.198,11.222L102.021,11.222L102.879,11.222L103.639,11.222L104.429,11.222L106.055,11.222L106.875,11.222L107.737,11.222L108.485,11.222L109.286,11.222L110.906,11.222L111.322,11.222L111.716,11.222L112.573,11.222L113.333,11.222L114.138,11.222L115.76,11.222L116.571,11.222L117.431,11.222L118.189,11.222L118.994,11.222L120.624,11.222L121.45,11.222L122.316,11.222L123.061,11.222L123.856,11.222L125.477,11.222L126.303,11.222L127.198,11.222L127.92,11.222L128.706,11.222L130.326,11.222L131.154,11.222L132.015,11.222L132.768,11.222L133.564,11.222L135.188,11.222L136.007,11.222L136.868,11.222L137.614,11.222L138.416,11.222L140.04,11.222L140.861,11.222L141.722,11.222L142.471,11.222L143.271,11.222L144.892,11.222L145.705,11.222L146.562,11.222L147.318,11.222L148.127,11.222L149.749,11.222L150.561,11.222L151.414,11.222L152.172,11.222L152.982,11.222L154.613,11.222L155.431,11.222L156.299,11.222L157.049,11.222L157.843,11.222L159.464,11.222L160.291,11.222L161.153,11.222L161.901,11.222L162.697,11.222L164.322,11.222L165.142,11.222L166.009,11.222L166.757,11.222L167.552,11.222L169.176,11.222L169.997,11.222L170.863,11.222L171.61,11.222L172.408,11.222L174.032,11.222L174.852,11.222L175.717,11.222L176.468,11.222L177.261,11.222L178.884,11.222L179.699,11.222L180.558,11.222L181.309,11.222L182.115,11.222L183.741,11.222L184.551,11.222L185.412,11.222L186.168,11.222L186.972,11.222L188.599,11.222L189.426,11.222L190.29,11.222L191.027,11.222L191.832,11.222L193.453,11.222L194.277,11.222L195.142,11.222L195.894,11.222L196.687,11.222L198.31,11.222L199.135,11.222L199.998,11.222" stroke="#4c78a8" stroke-width="2"/></g></g><path class="foreground" aria-hidden="true" d="" display="none"/></g><g transform="translate(0,0)"><path class="background" aria-hidden="true" d="M0,0h200v200h-200Z"/><g><g class="mark-line role-mark marks" role="graphics-object" aria-roledescription="line mark container"><path aria-label="Time: Aug 31, 2025; Price: 1599; identifier: silex-400-oak-bork-2026" role="graphics-symbol" aria-roledescription="line mark" d="M82.294,22.333L82.586,22.333L83.449,22.333L84.207,22.333L85.007,22.333L86.647,22.333L87.463,22.333L88.325,22.333L89.068,22.333L89.862,22.333L91.495,22.333L92.316,22.333L93.184,22.333L93.927,22.333L94.721,22.333L96.344,22.333L97.163,22.333L98.028,22.333L98.78,22.333L99.574,22.333L101.198,22.333L102.021,22.333L102.879,22.333L103.639,22.333L104.429,22.333L106.056,22.333L106.875,22.333L107.737,22.333L108.486,22.333L109.286,22.333L110.906,22.333L111.322,22.333L111.716,22.333L112.573,22.333L113.333,22.333L114.138,22.333L115.76,22.333L116.571,22.333L117.431,22.333L118.189,22.333L118.994,22.333L120.624,22.333L121.45,22.333L122.316,22.333L123.062,22.333L123.857,22.333L125.477,22.333L126.303,22.333L127.199,22.333L127.92,22.333L128.707,22.333L130.326,22.333L131.154,22.333L132.015,22.333L132.768,22.333L133.565,22.333L135.188,22.333L136.008,22.333L136.868,22.333L137.614,22.333L138.416,22.333L140.04,22.333L140.862,22.333L141.722,22.333L142.472,22.333L143.271,22.333L144.892,22.333L145.705,22.333L146.563,22.333L147.318,22.333L148.127,22.333L149.75,22.333L150.561,22.333L151.415,22.333L152.172,22.333L152.983,22.333L154.613,22.333L155.431,22.333L156.3,22.333L157.049,22.333L157.843,22.333L159.465,22.333L160.291,22.333L161.154,22.333L161.901,22.333L162.698,22.333L164.322,22.333L165.143,22.333L166.009,22.333L166.758,22.333L167.552,22.333L169.177,22.333L169.997,22.333L170.864,22.333L171.61,22.333L172.408,22.333L174.032,22.333L174.853,22.333L175.717,22.333L176.468,22.333L177.261,22.333L178.884,22.333L179.699,22.333L180.558,22.333L181.309,22.333L182.115,22.333L183.741,22.333L184.551,22.333L185.412,22.333L186.169,22.333L186.973,22.333L188.6,22.333L189.426,22.333L190.29,22.333L191.027,22.333L191.832,22.333L193.454,22.333L194.278,22.333L195.142,22.333L195.894,22.333L196.688,22.333L198.311,22.333L199.135,22.333L199.999,22.333" stroke="#f58518" stroke-width="2"/></g></g><path class="foreground" aria-hidden="true" d="" display="none"/></g><g transform="translate(0,0)"><path class="background" aria-hidden="true" d="M0,0h200v200h-200Z"/><g><g class="mark-line role-mark marks" role="graphics-object" aria-roledescription="line mark container"><path aria-label="Time: Aug 31, 2025; Price: 1599; identifier: silex-400-warm-slate-grey-2026" role="graphics-symbol" aria-roledescription="line mark" d="M82.294,22.333L82.586,22.333L83.449,22.333L84.207,22.333L85.007,22.333L86.647,22.333L87.463,22.333L88.325,22.333L89.069,22.333L89.862,22.333L91.495,22.333L92.316,22.333L93.184,22.333L93.927,22.333L94.721,22.333L96.344,22.333L97.163,22.333L98.028,22.333L98.78,22.333L99.574,22.333L101.198,22.333L102.021,22.333L102.879,22.333L103.64,22.333L104.429,22.333L106.056,22.333L106.875,22.333L107.738,22.333L108.486,22.333L109.286,22.333L110.906,22.333L111.322,22.333L111.717,22.333L112.573,22.333L113.333,22.333L114.139,22.333L115.76,22.333L116.571,22.333L117.431,22.333L118.189,22.333L118.994,22.333L120.624,22.333L121.45,22.333L122.316,22.333L123.062,22.333L123.857,22.333L125.478,22.333L126.303,22.333L127.199,22.333L127.92,22.333L128.707,22.333L130.326,22.333L131.154,22.333L132.015,22.333L132.768,22.333L133.565,22.333L135.189,22.333L136.008,22.333L136.868,22.333L137.614,22.333L138.416,22.333L140.04,22.333L140.862,22.333L141.722,22.333L142.472,22.333L143.271,22.333L144.893,22.333L145.705,22.333L146.563,22.333L147.318,22.333L148.127,22.333L149.75,22.333L150.561,22.333L151.415,22.333L152.172,22.333L152.983,22.333L154.613,22.333L155.432,22.333L156.3,22.333L157.049,22.333L157.844,22.333L159.465,22.333L160.291,22.333L161.154,22.333L161.901,22.333L162.698,22.333L164.322,22.333L165.143,22.333L166.01,22.333L166.758,22.333L167.552,22.333L169.177,22.333L169.997,22.333L170.864,22.333L171.611,22.333L172.408,22.333L174.032,22.333L174.853,22.333L175.717,22.333L176.469,22.333L177.261,22.333L178.884,22.333L179.699,22.333L180.558,22.333L181.309,22.333L182.115,22.333L183.742,22.333L184.551,22.333L185.412,22.333L186.169,22.333L186.973,22.333L188.6,22.333L189.426,22.333L190.29,22.333L191.028,22.333L191.833,22.333L193.454,22.333L194.278,22.333L195.142,22.333L195.894,22.333L196.688,22.333L198.311,22.333L199.135,22.333L200,22.333" stroke="#e45756" stroke-width="2"/></g></g><path class="foreground" aria-hidden="true" d="" display="none"/></g></g><g class="mark-group role-legend" role="graphics-symbol" aria-roledescription="legend" aria-label="Symbol legend titled 'identifier' for stroke color with 16 values: devote-1-2022, silex-400-oak-bork-2026, silex-400-warm-slate-grey-2026, devote-1-2024, fastroad-ar-2, ending with allure-rs-2-2024"><g transform="translate(220,0)"><path class="background" aria-hidden="true" d="M0,0h256v222h-256Z" pointer-events="none"/><g><g class="mark-group role-legend-entry"><g transform="translate(0,16)"><path class="background" aria-hidden="true" d="M0,0h0v0h0Z" pointer-events="none"/><g><g class="mark-group role-scope" role="graphics-object" aria-roledescription="group mark container"><g transform="translate(0,0)"><path class="background" aria-hidden="true" d="M0,0h256v11h-256Z" pointer-events="none" opacity="1"/><g><g class="mark-symbol role-legend-symbol" pointer-events="none"><path transform="translate(6,6)" d="M-5,0L5,0" stroke="#4c78a8" stroke-width="1.5" opacity="1"/></g><g class="mark-text role-legend-label" pointer-events="none"><text text-anchor="start" transform="translate(16,9)" font-family="Liberation Mono" font-size="10px" fill="#000" opacity="1">devote-1-2022</text></g></g><path class="foreground" aria-hidden="true" d="" pointer-events="none" display="none"/></g><g transform="translate(0,13)"><path class="background" aria-hidden="true" d="M0,0h256v11h-256Z" pointer-events="none" opacity="1"/><g><g class="mark-symbol role-legend-symbol" pointer-events="none"><path transform="translate(6,6)" d="M-5,0L5,0" stroke="#f58518" stroke-width="1.5" opacity="1"/></g><g class="mark-text role-legend-label" pointer-events="none"><text text-anchor="start" transform="translate(16,9)" font-family="Liberation Mono" font-size="10px" fill="#000" opacity="1">silex-400-oak-bork-2026</text></g></g><path class="foreground" aria-hidden="true" d="" pointer-events="none" display="none"/></g><g transform="translate(0,26)"><path class="background" aria-hidden="true" d="M0,0h256v11h-256Z" pointer-events="none" opacity="1"/><g><g class="mark-symbol role-legend-symbol" pointer-events="none"><path transform="translate(6,6)" d="M-5,0L5,0" stroke="#e45756" stroke-width="1.5" opacity="1"/></g><g class="mark-text role-legend-label" pointer-events="none"><text text-anchor="start" transform="translate(16,9)" font-family="Liberation Mono" font-size="10px" fill="#000" opacity="1">silex-400-warm-slate-grey-2026</text></g></g><path class="foreground" aria-hidden="true" d="" pointer-events="none" display="none"/></g><g transform="translate(0,39)"><path class="background" aria-hidden="true" d="M0,0h256v11h-256Z" pointer-events="none" opacity="1"/><g><g class="mark-symbol role-legend-symbol" pointer-events="none"><path transform="translate(6,6)" d="M-5,0L5,0" stroke="#72b7b2" stroke-width="1.5" opacity="1"/></g><g class="mark-text role-legend-label" pointer-events="none"><text text-anchor="start" transform="translate(16,9)" font-family="Liberation Mono" font-size="10px" fill="#000" opacity="1">devote-1-2024</text></g></g><path class="foreground" aria-hidden="true" d="" pointer-events="none" display="none"/></g><g transform="translate(0,52)"><path class="background" aria-hidden="true" d="M0,0h256v11h-256Z" pointer-events="none" opacity="1"/><g><g class="mark-symbol role-legend-symbol" pointer-events="none"><path transform="translate(6,6)" d="M-5,0L5,0" stroke="#54a24b" stroke-width="1.5" opacity="1"/></g><g class="mark-text role-legend-label" pointer-events="none"><text text-anchor="start" transform="translate(16,9)" font-family="Liberation Mono" font-size="10px" fill="#000" opacity="1">fastroad-ar-2</text></g></g><path class="foreground" aria-hidden="true" d="" pointer-events="none" display="none"/></g><g transform="translate(0,65)"><path class="background" aria-hidden="true" d="M0,0h256v11h-256Z" pointer-events="none" opacity="1"/><g><g class="mark-symbol role-legend-symbol" pointer-events="none"><path transform="translate(6,6)" d="M-5,0L5,0" stroke="#eeca3b" stroke-width="1.5" opacity="1"/></g><g class="mark-text role-legend-label" pointer-events="none"><text text-anchor="start" transform="translate(16,9)" font-family="Liberation Mono" font-size="10px" fill="#000" opacity="1">thrive-2</text></g></g><path class="foreground" aria-hidden="true" d="" pointer-events="none" display="none"/></g><g transform="translate(0,78)"><path class="background" aria-hidden="true" d="M0,0h256v11h-256Z" pointer-events="none" opacity="1"/><g><g class="mark-symbol role-legend-symbol" pointer-events="none"><path transform="translate(6,6)" d="M-5,0L5,0" stroke="#b279a2" stroke-width="1.5" opacity="1"/></g><g class="mark-text role-legend-label" pointer-events="none"><text text-anchor="start" transform="translate(16,9)" font-family="Liberation Mono" font-size="10px" fill="#000" opacity="1">allure-rs-1-2023</text></g></g><path class="foreground" aria-hidden="true" d="" pointer-events="none" display="none"/></g><g transform="translate(0,91)"><path class="background" aria-hidden="true" d="M0,0h256v11h-256Z" pointer-events="none" opacity="1"/><g><g class="mark-symbol role-legend-symbol" pointer-events="none"><path transform="translate(6,6)" d="M-5,0L5,0" stroke="#ff9da6" stroke-width="1.5" opacity="1"/></g><g class="mark-text role-legend-label" pointer-events="none"><text text-anchor="start" transform="translate(16,9)" font-family="Liberation Mono" font-size="10px" fill="#000" opacity="1">roam-2</text></g></g><path class="foreground" aria-hidden="true" d="" pointer-events="none" display="none"/></g><g transform="translate(0,104)"><path class="background" aria-hidden="true" d="M0,0h256v11h-256Z" pointer-events="none" opacity="1"/><g><g class="mark-symbol role-legend-symbol" pointer-events="none"><path transform="translate(6,6)" d="M-5,0L5,0" stroke="#9d755d" stroke-width="1.5" opacity="1"/></g><g class="mark-text role-legend-label" pointer-events="none"><text text-anchor="start" transform="translate(16,9)" font-family="Liberation Mono" font-size="10px" fill="#000" opacity="1">fastroad-sl-3-2022</text></g></g><path class="foreground" aria-hidden="true" d="" pointer-events="none" display="none"/></g><g transform="translate(0,117)"><path class="background" aria-hidden="true" d="M0,0h256v11h-256Z" pointer-events="none" opacity="1"/><g><g class="mark-symbol role-legend-symbol" pointer-events="none"><path transform="translate(6,6)" d="M-5,0L5,0" stroke="#bab0ac" stroke-width="1.5" opacity="1"/></g><g class="mark-text role-legend-label" pointer-events="none"><text text-anchor="start" transform="translate(16,9)" font-family="Liberation Mono" font-size="10px" fill="#000" opacity="1">allure-rs-2-2023</text></g></g><path class="foreground" aria-hidden="true" d="" pointer-events="none" display="none"/></g><g transform="translate(0,130)"><path class="background" aria-hidden="true" d="M0,0h256v11h-256Z" pointer-events="none" opacity="1"/><g><g class="mark-symbol role-legend-symbol" pointer-events="none"><path transform="translate(6,6)" d="M-5,0L5,0" stroke="#4c78a8" stroke-width="1.5" opacity="1"/></g><g class="mark-text role-legend-label" pointer-events="none"><text text-anchor="start" transform="translate(16,9)" font-family="Liberation Mono" font-size="10px" fill="#000" opacity="1">escape-city-disc-1-2024</text></g></g><path class="foreground" aria-hidden="true" d="" pointer-events="none" display="none"/></g><g transform="translate(0,143)"><path class="background" aria-hidden="true" d="M0,0h256v11h-256Z" pointer-events="none" opacity="1"/><g><g class="mark-symbol role-legend-symbol" pointer-events="none"><path transform="translate(6,6)" d="M-5,0L5,0" stroke="#f58518" stroke-width="1.5" opacity="1"/></g><g class="mark-text role-legend-label" pointer-events="none"><text text-anchor="start" transform="translate(16,9)" font-family="Liberation Mono" font-size="10px" fill="#000" opacity="1">sdrbike-escape-1-city-disc</text></g></g><path class="foreground" aria-hidden="true" d="" pointer-events="none" display="none"/></g><g transform="translate(0,156)"><path class="background" aria-hidden="true" d="M0,0h256v11h-256Z" pointer-events="none" opacity="1"/><g><g class="mark-symbol role-legend-symbol" pointer-events="none"><path transform="translate(6,6)" d="M-5,0L5,0" stroke="#e45756" stroke-width="1.5" opacity="1"/></g><g class="mark-text role-legend-label" pointer-events="none"><text text-anchor="start" transform="translate(16,9)" font-family="Liberation Mono" font-size="10px" fill="#000" opacity="1">roam-disc-2-2024</text></g></g><path class="foreground" aria-hidden="true" d="" pointer-events="none" display="none"/></g><g transform="translate(0,169)"><path class="background" aria-hidden="true" d="M0,0h256v11h-256Z" pointer-events="none" opacity="1"/><g><g class="mark-symbol role-legend-symbol" pointer-events="none"><path transform="translate(6,6)" d="M-5,0L5,0" stroke="#72b7b2" stroke-width="1.5" opacity="1"/></g><g class="mark-text role-legend-label" pointer-events="none"><text text-anchor="start" transform="translate(16,9)" font-family="Liberation Mono" font-size="10px" fill="#000" opacity="1">rove-2</text></g></g><path class="foreground" aria-hidden="true" d="" pointer-events="none" display="none"/></g><g transform="translate(0,182)"><path class="background" aria-hidden="true" d="M0,0h256v11h-256Z" pointer-events="none" opacity="1"/><g><g class="mark-symbol role-legend-symbol" pointer-events="none"><path transform="translate(6,6)" d="M-5,0L5,0" stroke="#54a24b" stroke-width="1.5" opacity="1"/></g><g class="mark-text role-legend-label" pointer-events="none"><text text-anchor="start" transform="translate(16,9)" font-family="Liberation Mono" font-size="10px" fill="#000" opacity="1">allure-rs-2-2022</text></g></g><path class="foreground" aria-hidden="true" d="" pointer-events="none" display="none"/></g><g transform="translate(0,195)"><path class="background" aria-hidden="true" d="M0,0h256v11h-256Z" pointer-events="none" opacity="1"/><g><g class="mark-symbol role-legend-symbol" pointer-events="none"><path transform="translate(6,6)" d="M-5,0L5,0" stroke="#eeca3b" stroke-width="1.5" opacity="1"/></g><g class="mark-text role-legend-label" pointer-events="none"><text text-anchor="start" transform="translate(16,9)" font-family="Liberation Mono" font-size="10px" fill="#000" opacity="1">allure-rs-2-2024</text></g></g><path class="foreground" aria-hidden="true" d="" pointer-events="none" display="none"/></g></g></g><path class="foreground" aria-hidden="true" d="" pointer-events="none" display="none"/></g></g><g class="mark-text role-legend-title" pointer-events="none"><text text-anchor="start" transform="translate(0,9)" font-family="Liberation Mono" font-size="11px" font-weight="bold" fill="#000" opacity="1">identifier</text></g></g><path class="foreground" aria-hidden="true" d="" pointer-events="none" display="none"/></g></g></g><path class="foreground" aria-hidden="true" d="" display="none"/></g></g></g></svg>