<svg xmlns="http://www.w3.org/2000/svg" xmlns:xlink="http://www.w3.org/1999/xlink" version="1.1" class="marks" width="548" height="244" viewBox="0 0 548 244"><rect width="548" height="244" fill="white"/><g fill="none" stroke-miterlimit="10" transform="translate(67,7)"><g class="mark-group role-frame root" role="graphics-object" aria-roledescription="group mark container"><g transform="translate(0,0)"><path class="background" aria-hidden="true" d="M0.5,0.5h200v200h-200Z" stroke="#ddd"/><g><g class="mark-group role-axis" aria-hidden="true"><g transform="translate(0.5,200.5)"><path class="background" aria-hidden="true" d="M0,0h0v0h0Z" pointer-events="none"/><g><g class="mark-rule role-axis-grid" pointer-events="none"><line transform="translate(11,-200)" x2="0" y2="200" stroke="#ddd" stroke-width="1" opacity="1"/><line transform="translate(40,-200)" x2="0" y2="200" stroke="#ddd" stroke-width="1" opacity="1"/><line transform="translate(69,-200)" x2="0" y2="200" stroke="#ddd" stroke-width="1" opacity="1"/><line transform="translate(98,-200)" x2="0" y2="200" stroke="#ddd" stroke-width="1" opacity="1"/><line transform="translate(127,-200)" x2="0" y2="200" stroke="#ddd" stroke-width="1" opacity="1"/><line transform="translate(156,-200)" x2="0" y2="200" stroke="#ddd" stroke-width="1" opacity="1"/><line transform="translate(185,-200)" x2="0" y2="200" stroke="#ddd" stroke-width="1" opacity="1"/></g></g><path class="foreground" aria-hidden="true" d="" pointer-events="none" display="none"/></g></g><g class="mark-group role-axis" aria-hidden="true"><g transform="translate(0.5,0.5)"><path class="background" aria-hidden="true" d="M0,0h0v0h0Z" pointer-events="none"/><g><g class="mark-rule role-axis-grid" pointer-events="none"><line transform="translate(0,200)" x2="200" y2="0" stroke="#ddd" stroke-width="1" opacity="1"/><line transform="translate(0,144)" x2="200" y2="0" stroke="#ddd" stroke-width="1" opacity="1"/><line transform="translate(0,89)" x2="200" y2="0" stroke="#ddd" stroke-width="1" opacity="1"/><line transform="translate(0,33)" x2="200" y2="0" stroke="#ddd" stroke-width="1" opacity="1"/></g></g><path class="foreground" aria-hidden="true" d="" pointer-events="none" display="none"/></g></g><g class="mark-group role-axis" role="graphics-symbol" aria-roledescription="axis" aria-label="X-axis titled 'Time' for a time scale with values from Thursday, 14 August 2025, 8:34:48 AM to Wednesday, 01 October 2025, 4:50:47 PM"><g transform="translate(0.5,200.5)"><path class="background" aria-hidden="true" d="M0,0h0v0h0Z" pointer-events="none"/><g><g class="mark-rule role-axis-tick" pointer-events="none"><line transform="translate(11,0)" x2="0" y2="5" stroke="#888" stroke-width="1" opacity="1"/><line transform="translate(40,0)" x2="0" y2="5" stroke="#888" stroke-width="1" opacity="1"/><line transform="translate(69,0)" x2="0" y2="5" stroke="#888" stroke-width="1" opacity="1"/><line transform="translate(98,0)" x2="0" y2="5" stroke="#888" stroke-width="1" opacity="1"/><line transform="translate(127,0)" x2="0" y2="5" stroke="#888" stroke-width="1" opacity="1"/><line transform="translate(156,0)" x2="0" y2="5" stroke="#888" stroke-width="1" opacity="1"/><line transform="translate(185,0)" x2="0" y2="5" stroke="#888" stroke-width="1" opacity="1"/></g><g class="mark-text role-axis-label" pointer-events="none"><text text-anchor="middle" transform="translate(10.931937777488551,15)" font-family="Liberation Mono" font-size="10px" fill="#000" opacity="1">Aug 17</text><text text-anchor="middle" transform="translate(39.89080911045805,15)" font-family="Liberation Mono" font-size="10px" fill="#000" opacity="0">Aug 24</text><text text-anchor="middle" transform="translate(68.84968044342754,15)" font-family="Liberation Mono" font-size="10px" fill="#000" opacity="1">Aug 31</text><text text-anchor="middle" transform="translate(97.80855177639705,15)" font-family="Liberation Mono" font-size="10px" fill="#000" opacity="0">Sep 07</text><text text-anchor="middle" transform="translate(126.76742310936655,15)" font-family="Liberation Mono" font-size="10px" fill="#000" opacity="1">Sep 14</text><text text-anchor="middle" transform="translate(155.72629444233604,15)" font-family="Liberation Mono" font-size="10px" fill="#000" opacity="0">Sep 21</text><text text-anchor="middle" transform="translate(184.68516577530553,15)" font-family="Liberation Mono" font-size="10px" fill="#000" opacity="1">Sep 28</text></g><g class="mark-rule role-axis-domain" pointer-events="none"><line transform="translate(0,0)" x2="200" y2="0" stroke="#888" stroke-width="1" opacity="1"/></g><g class="mark-text role-axis-title" pointer-events="none"><text text-anchor="middle" transform="translate(100,30)" font-family="Liberation Mono" font-size="11px" font-weight="bold" fill="#000" opacity="1">Time</text></g></g><path class="foreground" aria-hidden="true" d="" pointer-events="none" display="none"/></g></g><g class="mark-group role-axis" role="graphics-symbol" aria-roledescription="axis" aria-label="Y-axis titled 'Price' for a linear scale with values from 0 to 1,800"><g transform="translate(0.5,0.5)"><path class="background" aria-hidden="true" d="M0,0h0v0h0Z" pointer-events="none"/><g><g class="mark-rule role-axis-tick" pointer-events="none"><line transform="translate(0,200)" x2="-5" y2="0" stroke="#888" stroke-width="1" opacity="1"/><line transform="translate(0,144)" x2="-5" y2="0" stroke="#888" stroke-width="1" opacity="1"/><line transform="translate(0,89)" x2="-5" y2="0" stroke="#888" stroke-width="1" opacity="1"/><line transform="translate(0,33)" x2="-5" y2="0" stroke="#888" stroke-width="1" opacity="1"/></g><g class="mark-text role-axis-label" pointer-events="none"><text text-anchor="end" transform="translate(-7,203)" font-family="Liberation Mono" font-size="10px" fill="#000" opacity="1">0</text><text text-anchor="end" transform="translate(-7,147.44444444444443)" font-family="Liberation Mono" font-size="10px" fill="#000" opacity="1">500</text><text text-anchor="end" transform="translate(-7,91.88888888888889)" font-family="Liberation Mono" font-size="10px" fill="#000" opacity="1">1,000</text><text text-anchor="end" transform="translate(-7,36.33333333333333)" font-family="Liberation Mono" font-size="10px" fill="#000" opacity="1">1,500</text></g><g class="mark-rule role-axis-domain" pointer-events="none"><line transform="translate(0,200)" x2="0" y2="-200" stroke="#888" stroke-width="1" opacity="1"/></g><g class="mark-text role-axis-title" pointer-events="none"><text text-anchor="middle" transform="translate(-51,100) rotate(-90) translate(0,-2)" font-family="Liberation Mono" font-size="11px" font-weight="bold" fill="#000" opacity="1">Price</text></g></g><path class="foreground" aria-hidden="true" d="" pointer-events="none" display="none"/></g></g><g class="mark-group role-scope pathgroup" role="graphics-object" aria-roledescription="group mark container"><g transform="translate(0,0)"><path class="background" aria-hidden="true" d="M0,0h200v200h-200Z"/><g><g class="mark-line role-mark marks" role="graphics-object" aria-roledescription="line mark container"><path aria-label="Time: Aug 14, 2025; Price: 899; identifier: escape-city-disc-1-2024" role="graphics-symbol" aria-roledescription="line mark" d="M0,100.111L0.034,100.111L0.061,100.111L0.824,100.111L1.43,100.111L2.111,100.111L3.506,100.111L4.191,100.111L4.948,100.111L5.568,100.111L6.245,100.111L7.63,100.111L8.323,100.111L9.057,100.111L9.697,100.111L10.375,100.111L11.782,100.111L12.458,100.111L13.196,100.111L13.837,100.111L14.518,100.111L15.931,100.111L16.61,100.111L17.373,100.111L17.64,100.111L17.987,100.111L18.651,100.111L20.037,100.111L20.737,100.111L21.472,100.111L22.113,100.111L22.786,100.111L24.175,100.111L24.868,100.111L25.633,100.111L25.943,100.111L26.249,100.111L26.928,100.111L28.309,100.111L29.009,100.111L29.747,100.111L30.389,100.111L31.063,100.111L32.448,100.111L33.144,100.111L33.882,100.111L34.521,100.111L35.197,100.111L36.581,100.111L37.275,100.111L38.006,100.111L38.647,100.111L39.33,100.111L40.723,100.111L41.409,100.111L42.145,100.111L42.79,100.111L43.469,100.111L44.866,100.111L45.564,100.111L46.319,100.111L46.937,100.111L47.61,100.111L48.996,100.111L49.699,100.111L51.07,100.111L51.743,100.111L53.128,100.111L53.827,100.111L54.099,100.111L54.564,100.111L55.026,100.111L55.206,100.111L55.883,100.111L57.265,100.111L57.966,100.111L58.703,100.111L59.342,100.111L60.018,100.111L61.402,100.111L62.1,100.111L62.835,100.111L63.478,100.111L64.153,100.111L65.534,100.111L66.227,100.111L66.959,100.111L67.605,100.111L68.255,100.111L68.287,100.111L69.673,100.111L70.115,100.111L70.362,100.111L71.098,100.111L71.744,100.111L72.426,100.111L73.823,100.111L74.518,100.111L75.252,100.111L75.886,100.111L76.562,100.111L77.953,100.111L78.653,100.111L79.392,100.111L80.026,100.111L80.702,100.111L82.085,100.111L82.783,100.111L83.52,100.111L84.161,100.111L84.837,100.111L86.221,100.111L86.922,100.111L87.653,100.111L88.301,100.111L88.973,100.111L90.36,100.111L91.058,100.111L91.792,100.111L92.43,100.111L93.112,100.111L94.492,100.111L94.847,100.111L95.182,100.111L95.912,100.111L96.56,100.111L97.246,100.111L98.628,100.111L99.319,100.111L100.052,100.111L100.697,100.111L101.383,100.111L102.771,100.111L103.475,100.111L104.213,100.111L104.849,100.111L105.526,100.111L106.907,100.111L107.611,100.111L108.373,100.111L108.988,100.111L109.658,100.111L111.038,100.111L111.744,100.111L112.477,100.111L113.119,100.111L113.797,100.111L115.181,100.111L115.879,100.111L116.612,100.111L117.248,100.111L117.931,100.111L119.314,100.111L120.014,100.111L120.747,100.111L121.387,100.111L122.068,100.111L123.449,100.111L124.142,100.111L124.872,100.111L125.515,100.111L126.205,100.111L127.587,100.111L128.279,100.111L129.006,100.111L129.651,100.111L130.342,100.111L131.731,100.111L132.429,100.111L133.168,100.111L133.805,100.111L134.481,100.111L135.864,100.111L136.569,100.111L137.304,100.111L137.94,100.111L138.619,100.111L140.003,100.111L140.703,100.111L141.441,100.111L142.078,100.111L142.755,100.111L144.139,100.111L144.838,100.111L145.576,100.111L146.213,100.111L146.893,100.111L148.277,100.111L148.975,100.111L149.712,100.111L150.352,100.111L151.027,100.111L152.41,100.111L153.105,100.111L153.836,100.111L154.476,100.111L155.163,100.111L156.549,100.111L157.238,100.111L157.972,100.111L158.617,100.111L159.302,100.111L160.688,100.111L161.392,100.111L162.129,100.111L162.757,100.111L163.443,100.111L164.824,100.111L165.526,100.111L166.262,100.111L166.903,100.111L167.579,100.111L168.962,100.111L169.664,100.111L170.4,100.111L171.043,100.111L171.713,100.111L173.099,100.111L173.803,100.111L174.54,100.111L175.179,100.111L175.849,100.111L177.235,100.111L177.937,100.111L178.673,100.111L179.312,100.111L179.987,100.111L181.371,100.111L182.06,100.111L182.793,100.111L183.438,100.111L184.124,100.111L185.508,100.111L186.198,100.111L186.931,100.111L187.572,100.111L188.26,100.111L189.648,100.111L190.353,100.111L191.089,100.111L191.709,100.111L192.399,100.111L193.784,100.111L194.491,100.111L195.226,100.111L195.86,100.111L196.537,100.111L197.923,100.111L198.625,100.111L199.364,100.111L199.998,100.111" stroke="#4c78a8" stroke-width="2"/></g></g><path class="foreground" aria-hidden="true" d="" display="none"/></g><g transform="translate(0,0)"><path class="background" aria-hidden="true" d="M0,0h200v200h-200Z"/><g><g class="mark-line role-mark marks" role="graphics-object" aria-roledescription="line mark container"><path aria-label="Time: Aug 14, 2025; Price: 999; identifier: roam-2" role="graphics-symbol" aria-roledescription="line mark" d="M0,89L0.034,89L0.062,89L0.824,89L1.431,89L2.111,89L3.506,89L4.191,89L4.948,89L5.568,89L6.245,89L7.63,89L8.323,89L9.057,89L9.697,89L10.382,89L11.782,89L12.458,89L13.196,89L13.837,89L14.518,89L15.931,89L16.61,89L17.373,89L17.64,89L17.987,89L18.651,89L20.037,89L20.737,89L21.472,89L22.113,89L22.786,89L24.175,89L24.869,89L25.633,89L25.943,89L26.249,89L26.928,89L28.31,89L29.009,89L29.747,89L30.389,89L31.063,89L32.448,89L33.145,89L33.882,89L34.521,89L35.198,89L36.582,89L37.275,89L38.006,89L38.648,89L39.33,89L40.724,89L41.409,89L42.146,89L42.79,89L43.469,89L44.866,89L45.565,89L46.319,89L46.937,89L47.611,89L48.997,89L49.699,89L51.07,89L51.743,89L53.128,89L53.828,89L54.099,89L54.564,89L55.026,89L55.206,89L55.883,89L57.265,89L57.966,89L58.703,89L59.343,89L60.019,89L61.402,89L62.1,89L62.835,89L63.478,89L64.153,89L65.534,89L66.228,89L66.959,89L67.605,89L68.255,89L68.288,89L69.673,89L70.115,89L70.363,89L71.098,89L71.744,89L72.426,89L73.823,89L74.519,89L75.253,89L75.886,89L76.562,89L77.954,89L78.653,89L79.392,89L80.026,89L80.702,89L82.085,89L82.783,89L83.52,89L84.161,89L84.837,89L86.221,89L86.922,89L87.653,89L88.301,89L88.973,89L90.36,89L91.058,89L91.793,89L92.43,89L93.112,89L94.492,89L94.847,89L95.183,89L95.912,89L96.56,89L97.247,89L98.628,89L99.319,89L100.052,89L100.697,89L101.383,89L102.772,89L103.475,89L104.213,89L104.849,89L105.526,89L106.907,89L107.611,89L108.374,89L108.989,89L109.659,89L111.038,89L111.744,89L112.477,89L113.119,89L113.797,89L115.181,89L115.879,89L116.613,89L117.248,89L117.931,89L119.315,89L120.015,89L120.747,89L121.387,89L122.068,89L123.449,89L124.142,89L124.872,89L125.516,89L126.205,89L127.587,89L128.279,89L129.006,89L129.652,89L130.342,89L131.731,89L132.429,89L133.168,89L133.806,89L134.482,89L135.865,89L136.569,89L137.304,89L137.941,89L138.619,89L140.003,89L140.703,89L141.441,89L142.079,89L142.756,89L144.139,89L144.839,89L145.577,89L146.213,89L146.893,89L148.277,89L148.975,89L149.712,89L150.352,89L151.027,89L152.411,89L153.105,89L153.837,89L154.477,89L155.163,89L156.549,89L157.238,89L157.972,89L158.617,89L159.302,89L160.688,89L161.393,89L162.129,89L162.757,89L163.443,89L164.824,89L165.526,89L166.262,89L166.903,89L167.579,89L168.962,89L169.665,89L170.4,89L171.043,89L171.713,89L173.099,89L173.803,89L174.541,89L175.179,89L175.849,89L177.235,89L177.938,89L178.673,89L179.312,89L179.987,89L181.371,89L182.06,89L182.793,89L183.438,89L184.124,89L185.508,89L186.198,89L186.931,89L187.572,89L188.26,89L189.649,89L190.353,89L191.09,89L191.709,89L192.399,89L193.784,89L194.492,89L195.226,89L195.86,89L196.537,89L197.923,89L198.625,89L199.364,89L199.999,89" stroke="#ff9da6" stroke-width="2"/></g></g><path class="foreground" aria-hidden="true" d="" display="none"/></g><g transform="translate(0,0)"><path class="background" aria-hidden="true" d="M0,0h200v200h-200Z"/><g><g class="mark-line role-mark marks" role="graphics-object" aria-roledescription="line mark container"><path aria-label="Time: Aug 14, 2025; Price: 999; identifier: fastroad-sl-3-2022" role="graphics-symbol" aria-roledescription="line mark" d="M0,89L0.035,89L0.062,89L0.824,89L1.431,89L2.111,89L3.506,89L4.191,89L4.948,89L5.568,89L6.245,89L7.63,89L8.323,89L9.057,89L9.697,89L10.382,89L11.782,89L12.458,89L13.196,89L13.837,89L14.518,89L15.931,89L16.611,89L17.373,89L17.64,89L17.987,89L18.651,89L20.037,89L20.737,89L21.472,89L22.114,89L22.786,89L24.175,89L24.869,89L25.633,89L25.943,89L26.249,89L26.928,89L28.31,89L29.009,89L29.747,89L30.389,89L31.063,89L32.448,89L33.145,89L33.882,89L34.522,89L35.198,89L36.582,89L37.275,89L38.006,89L38.648,89L39.331,89L40.724,89L41.409,89L42.146,89L42.79,89L43.469,89L44.867,89L45.565,89L46.319,89L46.937,89L47.611,89L48.997,89L49.699,89L51.07,89L51.743,89L53.129,89L53.828,89L54.099,89L54.564,89L55.026,89L55.206,89L55.883,89L57.265,89L57.966,89L58.703,89L59.343,89L60.019,89L61.402,89L62.1,89L62.835,89L63.478,89L64.153,89L65.534,89L66.228,89L66.96,89L67.605,89L68.255,89L68.288,89L69.673,89L70.115,89L70.363,89L71.098,89L71.744,89L72.426,89L73.823,89L74.519,89L75.253,89L75.886,89L76.562,89L77.954,89L78.653,89L79.392,89L80.026,89L80.702,89L82.085,89L82.783,89L83.52,89L84.161,89L84.838,89L86.221,89L86.922,89L87.653,89L88.301,89L88.974,89L90.36,89L91.058,89L91.793,89L92.43,89L93.112,89L94.492,89L94.847,89L95.183,89L95.912,89L96.56,89L97.247,89L98.628,89L99.319,89L100.052,89L100.697,89L101.383,89L102.772,89L103.476,89L104.213,89L104.849,89L105.527,89L106.907,89L107.611,89L108.374,89L108.989,89L109.659,89L111.039,89L111.744,89L112.477,89L113.119,89L113.797,89L115.181,89L115.879,89L116.613,89L117.248,89L117.931,89L119.315,89L120.015,89L120.747,89L121.387,89L122.068,89L123.449,89L124.142,89L124.872,89L125.516,89L126.205,89L127.588,89L128.279,89L129.006,89L129.652,89L130.342,89L131.731,89L132.429,89L133.168,89L133.806,89L134.482,89L135.865,89L136.569,89L137.304,89L137.941,89L138.62,89L140.003,89L140.703,89L141.441,89L142.079,89L142.756,89L144.14,89L144.839,89L145.577,89L146.213,89L146.893,89L148.277,89L148.975,89L149.712,89L150.352,89L151.028,89L152.411,89L153.105,89L153.837,89L154.477,89L155.163,89L156.549,89L157.239,89L157.972,89L158.617,89L159.302,89L160.688,89L161.393,89L162.129,89L162.757,89L163.443,89L164.824,89L165.526,89L166.262,89L166.903,89L167.579,89L168.962,89L169.665,89L170.4,89L171.043,89L171.713,89L173.1,89L173.803,89L174.541,89L175.179,89L175.85,89L177.235,89L177.938,89L178.673,89L179.312,89L179.987,89L181.371,89L182.061,89L182.793,89L183.438,89L184.124,89L185.508,89L186.198,89L186.931,89L187.572,89L188.26,89L189.649,89L190.353,89L191.09,89L191.709,89L192.4,89L193.784,89L194.492,89L195.226,89L195.86,89L196.537,89L197.923,89L198.625,89L199.364,89L199.999,89" stroke="#9d755d" stroke-width="2"/></g></g><path class="foreground" aria-hidden="true" d="" display="none"/></g><g transform="translate(0,0)"><path class="background" aria-hidden="true" d="M0,0h200v200h-200Z"/><g><g class="mark-line role-mark marks" role="graphics-object" aria-roledescription="line mark container"><path aria-label="Time: Aug 14, 2025; Price: 1199; identifier: fastroad-ar-2" role="graphics-symbol" aria-roledescription="line mark" d="M0,66.778L0.035,66.778L0.062,66.778L0.825,66.778L1.431,66.778L2.111,66.778L3.506,66.778L4.191,66.778L4.948,66.778L5.568,66.778L6.245,66.778L7.63,66.778L8.323,66.778L9.057,66.778L9.697,66.778L10.385,66.778L11.783,66.778L12.459,66.778L13.196,66.778L13.837,66.778L14.518,66.778L15.931,66.778L16.611,66.778L17.373,66.778L17.64,66.778L17.988,66.778L18.651,66.778L20.037,66.778L20.737,66.778L21.472,66.778L22.114,66.778L22.786,66.778L24.175,66.778L24.869,66.778L25.634,66.778L25.943,66.778L26.249,66.778L26.928,66.778L28.31,66.778L29.009,66.778L29.747,66.778L30.389,66.778L31.063,66.778L32.448,66.778L33.145,66.778L33.882,66.778L34.522,66.778L35.198,66.778L36.582,66.778L37.275,66.778L38.007,66.778L38.648,66.778L39.331,66.778L40.724,66.778L41.41,66.778L42.146,66.778L42.79,66.778L43.469,66.778L44.867,66.778L45.565,66.778L46.32,66.778L46.937,66.778L47.611,66.778L48.997,66.778L49.699,66.778L51.07,66.778L51.743,66.778L53.129,66.778L53.828,66.778L54.099,66.778L54.565,66.778L55.026,66.778L55.207,66.778L55.883,66.778L57.265,66.778L57.966,66.778L58.703,66.778L59.343,66.778L60.019,66.778L61.402,66.778L62.101,66.778L62.835,66.778L63.478,66.778L64.153,66.778L65.534,66.778L66.228,66.778L66.96,66.778L67.605,66.778L68.256,66.778L68.288,66.778L69.673,66.778L70.115,66.778L70.363,66.778L71.099,66.778L71.744,66.778L72.426,66.778L73.823,66.778L74.519,66.778L75.253,66.778L75.886,66.778L76.562,66.778L77.954,66.778L78.653,66.778L79.392,66.778L80.026,66.778L80.702,66.778L82.085,66.778L82.783,66.778L83.52,66.778L84.161,66.778L84.838,66.778L86.221,66.778L86.922,66.778L87.654,66.778L88.301,66.778L88.974,66.778L90.36,66.778L91.058,66.778L91.793,66.778L92.43,66.778L93.112,66.778L94.492,66.778L94.847,66.778L95.183,66.778L95.912,66.778L96.56,66.778L97.247,66.778L98.628,66.778L99.319,66.778L100.052,66.778L100.698,66.778L101.383,66.778L102.772,66.778L103.476,66.778L104.214,66.778L104.849,66.778L105.527,66.778L106.907,66.778L107.611,66.778L108.374,66.778L108.989,66.778L109.659,66.778L111.039,66.778L111.744,66.778L112.477,66.778L113.119,66.778L113.798,66.778L115.181,66.778L115.88,66.778L116.613,66.778L117.248,66.778L117.931,66.778L119.315,66.778L120.015,66.778L120.748,66.778L121.387,66.778L122.068,66.778L123.449,66.778L124.142,66.778L124.872,66.778L125.516,66.778L126.205,66.778L127.588,66.778L128.279,66.778L129.006,66.778L129.652,66.778L130.342,66.778L131.731,66.778L132.429,66.778L133.168,66.778L133.806,66.778L134.482,66.778L135.865,66.778L136.569,66.778L137.304,66.778L137.941,66.778L138.62,66.778L140.003,66.778L140.703,66.778L141.441,66.778L142.079,66.778L142.756,66.778L144.14,66.778L144.839,66.778L145.577,66.778L146.213,66.778L146.893,66.778L148.277,66.778L148.976,66.778L149.712,66.778L150.353,66.778L151.028,66.778L152.411,66.778L153.105,66.778L153.837,66.778L154.477,66.778L155.163,66.778L156.549,66.778L157.239,66.778L157.973,66.778L158.617,66.778L159.302,66.778L160.688,66.778L161.393,66.778L162.129,66.778L162.757,66.778L163.443,66.778L164.824,66.778L165.526,66.778L166.262,66.778L166.903,66.778L167.579,66.778L168.962,66.778L169.665,66.778L170.4,66.778L171.043,66.778L171.713,66.778L173.1,66.778L173.803,66.778L174.541,66.778L175.179,66.778L175.85,66.778L177.235,66.778L177.938,66.778L178.673,66.778L179.312,66.778L179.987,66.778L181.371,66.778L182.061,66.778L182.793,66.778L183.438,66.778L184.124,66.778L185.508,66.778L186.198,66.778L186.931,66.778L187.572,66.778L188.26,66.778L189.649,66.778L190.353,66.778L191.09,66.778L191.709,66.778L192.4,66.778L193.784,66.778L194.492,66.778L195.226,66.778L195.86,66.778L196.537,66.778L197.923,66.778L198.626,66.778L199.364,66.778L199.999,66.778" stroke="#54a24b" stroke-width="2"/></g></g><path class="foreground" aria-hidden="true" d="" display="none"/></g><g transform="translate(0,0)"><path class="background" aria-hidden="true" d="M0,0h200v200h-200Z"/><g><g class="mark-line role-mark marks" role="graphics-object" aria-roledescription="line mark container"><path aria-label="Time: Aug 18, 2025; Price: 899; identifier: sdrbike-escape-1-city-disc" role="graphics-symbol" aria-roledescription="line mark" d="M17.64,100.111L17.988,100.111L18.651,100.111L20.037,100.111L20.737,100.111L21.472,100.111L22.114,100.111L22.787,100.111L24.175,100.111L24.869,100.111L25.634,100.111L25.943,100.111L26.249,100.111L26.928,100.111L28.31,100.111L29.009,100.111L29.747,100.111L30.389,100.111L31.063,100.111L32.448,100.111L33.145,100.111L33.883,100.111L34.522,100.111L35.198,100.111L36.582,100.111L37.275,100.111L38.007,100.111L38.648,100.111L39.331,100.111L40.724,100.111L41.41,100.111L42.146,100.111L42.79,100.111L43.469,100.111L44.867,100.111L45.565,100.111L46.32,100.111L46.937,100.111L47.611,100.111L48.997,100.111L49.699,100.111L51.07,100.111L51.743,100.111L53.129,100.111L53.828,100.111L54.099,100.111L54.565,100.111L55.026,100.111L55.207,100.111L55.883,100.111L57.265,100.111L57.967,100.111L58.704,100.111L59.343,100.111L60.019,100.111L61.402,100.111L62.101,100.111L62.836,100.111L63.478,100.111L64.154,100.111L65.535,100.111L66.228,100.111L66.96,100.111L67.605,100.111L68.256,100.111L68.288,100.111L69.673,100.111L70.115,100.111L70.363,100.111L71.099,100.111L71.744,100.111L72.426,100.111L73.823,100.111L74.519,100.111L75.253,100.111L75.887,100.111L76.562,100.111L77.954,100.111L78.653,100.111L79.393,100.111L80.026,100.111L80.702,100.111L82.085,100.111L82.784,100.111L83.52,100.111L84.161,100.111L84.838,100.111L86.221,100.111L86.922,100.111L87.654,100.111L88.301,100.111L88.974,100.111L90.36,100.111L91.058,100.111L91.793,100.111L92.43,100.111L93.112,100.111L94.493,100.111L94.847,100.111L95.183,100.111L95.913,100.111L96.56,100.111L97.247,100.111L98.628,100.111L99.319,100.111L100.052,100.111L100.698,100.111L101.384,100.111L102.772,100.111L103.476,100.111L104.214,100.111L104.849,100.111L105.527,100.111L106.908,100.111L107.611,100.111L108.374,100.111L108.989,100.111L109.659,100.111L111.039,100.111L111.744,100.111L112.478,100.111L113.119,100.111L113.798,100.111L115.181,100.111L115.88,100.111L116.613,100.111L117.248,100.111L117.931,100.111L119.315,100.111L120.015,100.111L120.748,100.111L121.387,100.111L122.068,100.111L123.449,100.111L124.142,100.111L124.872,100.111L125.516,100.111L126.205,100.111L127.588,100.111L128.279,100.111L129.007,100.111L129.652,100.111L130.342,100.111L131.732,100.111L132.429,100.111L133.169,100.111L133.806,100.111L134.482,100.111L135.865,100.111L136.57,100.111L137.304,100.111L137.941,100.111L138.62,100.111L140.004,100.111L140.703,100.111L141.441,100.111L142.079,100.111L142.756,100.111L144.14,100.111L144.839,100.111L145.577,100.111L146.213,100.111L146.893,100.111L148.277,100.111L148.976,100.111L149.713,100.111L150.353,100.111L151.028,100.111L152.411,100.111L153.105,100.111L153.837,100.111L154.477,100.111L155.164,100.111L156.549,100.111L157.239,100.111L157.973,100.111L158.617,100.111L159.302,100.111L160.689,100.111L161.393,100.111L162.129,100.111L162.757,100.111L163.443,100.111L164.824,100.111L165.526,100.111L166.263,100.111L166.904,100.111L167.579,100.111L168.963,100.111L169.665,100.111L170.401,100.111L171.044,100.111L171.714,100.111L173.1,100.111L173.803,100.111L174.541,100.111L175.179,100.111L175.85,100.111L177.235,100.111L177.938,100.111L178.673,100.111L179.312,100.111L179.987,100.111L181.371,100.111L182.061,100.111L182.793,100.111L183.438,100.111L184.125,100.111L185.508,100.111L186.198,100.111L186.932,100.111L187.572,100.111L188.26,100.111L189.649,100.111L190.353,100.111L191.09,100.111L191.709,100.111L192.4,100.111L193.784,100.111L194.492,100.111L195.226,100.111L195.86,100.111L196.537,100.111L197.924,100.111L198.626,100.111L199.364,100.111L199.999,100.111" stroke="#f58518" stroke-width="2"/></g></g><path class="foreground" aria-hidden="true" d="" display="none"/></g><g transform="translate(0,0)"><path class="background" aria-hidden="true" d="M0,0h200v200h-200Z"/><g><g class="mark-line role-mark marks" role="graphics-object" aria-roledescription="line mark container"><path aria-label="Time: Aug 20, 2025; Price: 899; identifier: roam-disc-2-2024" role="graphics-symbol" aria-roledescription="line mark" d="M25.943,100.111L26.249,100.111L26.928,100.111L28.31,100.111L29.009,100.111L29.747,100.111L30.389,100.111L31.063,100.111L32.448,100.111L33.145,100.111L33.882,100.111L34.521,100.111L35.198,100.111L36.582,100.111L37.275,100.111L38.006,100.111L38.647,100.111L39.33,100.111L40.724,100.111L41.409,100.111L42.145,100.111L42.79,100.111L43.469,100.111L44.866,100.111L45.564,100.111L46.319,100.111L46.937,100.111L47.61,100.111L48.997,100.111L49.699,100.111L51.07,100.111L51.743,100.111L53.128,100.111L53.827,100.111L54.099,100.111L54.564,100.111L55.026,100.111L55.206,100.111L55.883,100.111L57.265,100.111L57.966,100.111L58.703,100.111L59.343,100.111L60.018,100.111L61.402,100.111L62.1,100.111L62.835,100.111L63.478,100.111L64.153,100.111L65.534,100.111L66.227,100.111L66.959,100.111L67.605,100.111L68.255,100.111L68.288,100.111L69.673,100.111L70.115,100.111L70.363,100.111L71.098,100.111L71.744,100.111L72.426,100.111L73.823,100.111L74.519,100.111L75.253,100.111L75.886,100.111L76.562,100.111L77.953,100.111L78.653,100.111L79.392,100.111L80.026,100.111L80.702,100.111L82.085,100.111L82.783,100.111L83.52,100.111L84.161,100.111L84.837,100.111L86.221,100.111L86.922,100.111L87.653,100.111L88.301,100.111L88.973,100.111L90.36,100.111L91.058,100.111L91.793,100.111L92.43,100.111L93.112,100.111L94.492,100.111L94.847,100.111L95.182,100.111L95.912,100.111L96.56,100.111L97.246,100.111L98.628,100.111L99.319,100.111L100.052,100.111L100.697,100.111L101.383,100.111L102.772,100.111L103.475,100.111L104.213,100.111L104.849,100.111L105.526,100.111L106.907,100.111L107.611,100.111L108.373,100.111L108.988,100.111L109.659,100.111L111.038,100.111L111.744,100.111L112.477,100.111L113.119,100.111L113.797,100.111L115.181,100.111L115.879,100.111L116.612,100.111L117.248,100.111L117.931,100.111L119.315,100.111L120.015,100.111L120.747,100.111L121.387,100.111L122.068,100.111L123.449,100.111L124.142,100.111L124.872,100.111L125.516,100.111L126.205,100.111L127.587,100.111L128.279,100.111L129.006,100.111L129.652,100.111L130.342,100.111L131.731,100.111L132.429,100.111L133.168,100.111L133.806,100.111L134.482,100.111L135.865,100.111L136.569,100.111L137.304,100.111L137.94,100.111L138.619,100.111L140.003,100.111L140.703,100.111L141.441,100.111L142.078,100.111L142.755,100.111L144.139,100.111L144.839,100.111L145.577,100.111L146.213,100.111L146.893,100.111L148.277,100.111L148.975,100.111L149.712,100.111L150.352,100.111L151.027,100.111L152.41,100.111L153.105,100.111L153.836,100.111L154.476,100.111L155.163,100.111L156.549,100.111L157.238,100.111L157.972,100.111L158.617,100.111L159.302,100.111L160.688,100.111L161.392,100.111L162.129,100.111L162.757,100.111L163.443,100.111L164.824,100.111L165.526,100.111L166.262,100.111L166.903,100.111L167.579,100.111L168.962,100.111L169.665,100.111L170.4,100.111L171.043,100.111L171.713,100.111L173.099,100.111L173.803,100.111L174.54,100.111L175.179,100.111L175.849,100.111L177.235,100.111L177.938,100.111L178.673,100.111L179.312,100.111L179.987,100.111L181.371,100.111L182.06,100.111L182.793,100.111L183.438,100.111L184.124,100.111L185.508,100.111L186.198,100.111L186.931,100.111L187.572,100.111L188.26,100.111L189.648,100.111L190.353,100.111L191.09,100.111L191.709,100.111L192.399,100.111L193.784,100.111L194.492,100.111L195.226,100.111L195.86,100.111L196.537,100.111L197.923,100.111L198.625,100.111L199.364,100.111L199.999,100.111" stroke="#e45756" stroke-width="2"/></g></g><path class="foreground" aria-hidden="true" d="" display="none"/></g><g transform="translate(0,0)"><path class="background" aria-hidden="true" d="M0,0h200v200h-200Z"/><g><g class="mark-line role-mark marks" role="graphics-object" aria-roledescription="line mark container"><path aria-label="Time: Aug 20, 2025; Price: 1199; identifier: thrive-2" role="graphics-symbol" aria-roledescription="line mark" d="M25.943,66.778L26.25,66.778L26.929,66.778L28.31,66.778L29.009,66.778L29.747,66.778L30.389,66.778L31.063,66.778L32.448,66.778L33.145,66.778L33.883,66.778L34.522,66.778L35.198,66.778L36.582,66.778L37.276,66.778L38.007,66.778L38.648,66.778L39.331,66.778L40.724,66.778L41.41,66.778L42.146,66.778L42.79,66.778L43.469,66.778L44.867,66.778L45.565,66.778L46.32,66.778L46.937,66.778L47.611,66.778L48.997,66.778L49.699,66.778L51.07,66.778L51.744,66.778L53.129,66.778L53.828,66.778L54.1,66.778L54.565,66.778L55.026,66.778L55.207,66.778L55.884,66.778L57.265,66.778L57.967,66.778L58.704,66.778L59.343,66.778L60.019,66.778L61.402,66.778L62.101,66.778L62.836,66.778L63.478,66.778L64.154,66.778L65.535,66.778L66.228,66.778L66.96,66.778L67.605,66.778L68.256,66.778L68.288,66.778L69.673,66.778L70.115,66.778L70.363,66.778L71.099,66.778L71.744,66.778L72.426,66.778L73.824,66.778L74.519,66.778L75.253,66.778L75.887,66.778L76.563,66.778L77.954,66.778L78.653,66.778L79.393,66.778L80.026,66.778L80.702,66.778L82.086,66.778L82.784,66.778L83.521,66.778L84.161,66.778L84.838,66.778L86.221,66.778L86.922,66.778L87.654,66.778L88.301,66.778L88.974,66.778L90.36,66.778L91.058,66.778L91.793,66.778L92.43,66.778L93.112,66.778L94.493,66.778L94.847,66.778L95.183,66.778L95.913,66.778L96.56,66.778L97.247,66.778L98.628,66.778L99.319,66.778L100.052,66.778L100.698,66.778L101.384,66.778L102.772,66.778L103.476,66.778L104.214,66.778L104.849,66.778L105.527,66.778L106.908,66.778L107.611,66.778L108.374,66.778L108.989,66.778L109.659,66.778L111.039,66.778L111.744,66.778L112.478,66.778L113.119,66.778L113.798,66.778L115.181,66.778L115.88,66.778L116.613,66.778L117.248,66.778L117.931,66.778L119.315,66.778L120.015,66.778L120.748,66.778L121.387,66.778L122.068,66.778L123.449,66.778L124.142,66.778L124.873,66.778L125.516,66.778L126.205,66.778L127.588,66.778L128.279,66.778L129.007,66.778L129.652,66.778L130.342,66.778L131.732,66.778L132.429,66.778L133.169,66.778L133.806,66.778L134.482,66.778L135.865,66.778L136.57,66.778L137.304,66.778L137.941,66.778L138.62,66.778L140.004,66.778L140.703,66.778L141.442,66.778L142.079,66.778L142.756,66.778L144.14,66.778L144.839,66.778L145.577,66.778L146.214,66.778L146.894,66.778L148.277,66.778L148.976,66.778L149.713,66.778L150.353,66.778L151.028,66.778L152.411,66.778L153.105,66.778L153.837,66.778L154.477,66.778L155.164,66.778L156.549,66.778L157.239,66.778L157.973,66.778L158.618,66.778L159.303,66.778L160.689,66.778L161.393,66.778L162.129,66.778L162.757,66.778L163.443,66.778L164.824,66.778L165.526,66.778L166.263,66.778L166.904,66.778L167.58,66.778L168.963,66.778L169.665,66.778L170.401,66.778L171.044,66.778L171.714,66.778L173.1,66.778L173.803,66.778L174.541,66.778L175.179,66.778L175.85,66.778L177.235,66.778L177.938,66.778L178.673,66.778L179.312,66.778L179.987,66.778L181.371,66.778L182.061,66.778L182.793,66.778L183.438,66.778L184.125,66.778L185.508,66.778L186.198,66.778L186.932,66.778L187.572,66.778L188.26,66.778L189.649,66.778L190.353,66.778L191.09,66.778L191.709,66.778L192.4,66.778L193.784,66.778L194.492,66.778L195.226,66.778L195.86,66.778L196.537,66.778L197.924,66.778L198.626,66.778L199.364,66.778L199.999,66.778" stroke="#eeca3b" stroke-width="2"/></g></g><path class="foreground" aria-hidden="true" d="" display="none"/></g><g transform="translate(0,0)"><path class="background" aria-hidden="true" d="M0,0h200v200h-200Z"/><g><g class="mark-line role-mark marks" role="graphics-object" aria-roledescription="line mark container"><path aria-label="Time: Aug 20, 2025; Price: 999; identifier: rove-2" role="graphics-symbol" aria-roledescription="line mark" d="M25.943,89L26.25,89L26.929,89L28.31,89L29.009,89L29.747,89L30.389,89L31.063,89L32.448,89L33.145,89L33.883,89L34.522,89L35.198,89L36.582,89L37.276,89L38.007,89L38.648,89L39.331,89L40.724,89L41.41,89L42.146,89L42.79,89L43.469,89L44.867,89L45.565,89L46.32,89L46.938,89L47.611,89L48.997,89L49.699,89L51.071,89L51.744,89L53.129,89L53.828,89L54.1,89L54.565,89L55.026,89L55.207,89L55.884,89L57.265,89L57.967,89L58.704,89L59.343,89L60.019,89L61.402,89L62.101,89L62.836,89L63.478,89L64.154,89L68.256,111.222L68.288,111.222L69.673,111.222L70.115,111.222L70.363,111.222L71.099,111.222L71.745,111.222L72.426,111.222L73.824,111.222L74.519,111.222L75.253,111.222L75.887,111.222L76.563,111.222L77.954,111.222L78.653,111.222L79.393,111.222L80.026,111.222L80.702,111.222L82.086,111.222L82.784,111.222L83.521,111.222L84.161,111.222L84.838,111.222L86.222,111.222L86.922,111.222L87.654,111.222L88.301,111.222L88.974,111.222L90.36,111.222L91.058,111.222L91.793,111.222L92.43,111.222L93.112,111.222L94.493,111.222L94.848,111.222L95.183,111.222L95.913,111.222L96.56,111.222L97.247,111.222L98.628,111.222L99.32,111.222L100.052,111.222L100.698,111.222L101.384,111.222L102.773,111.222L103.476,111.222L104.214,111.222L104.849,111.222L105.527,111.222L106.908,111.222L107.611,111.222L108.374,111.222L108.989,111.222L109.659,111.222L111.039,111.222L111.744,111.222L112.478,111.222L113.119,111.222L113.798,111.222L115.181,111.222L115.88,111.222L116.613,111.222L117.248,111.222L117.931,111.222L119.315,111.222L120.015,111.222L120.748,111.222L121.387,111.222L122.068,111.222L123.45,111.222L124.142,111.222L124.873,111.222L125.516,111.222L126.206,111.222L127.588,111.222L128.279,111.222L129.007,111.222L129.652,111.222L130.343,111.222L131.732,111.222L132.429,111.222L133.169,111.222L133.806,111.222L134.482,111.222L135.865,111.222L136.57,111.222L137.305,111.222L137.941,111.222L138.62,111.222L140.004,111.222L140.703,111.222L141.442,111.222L142.079,111.222L142.756,111.222L144.14,111.222L144.839,111.222L145.577,111.222L146.214,111.222L146.894,111.222L148.277,111.222L148.976,111.222L149.713,111.222L150.353,111.222L151.028,111.222L152.411,111.222L153.106,111.222L153.837,111.222L154.477,111.222L155.164,111.222L156.549,111.222L157.239,111.222L157.973,111.222L158.618,111.222L159.303,111.222L160.689,111.222L161.393,111.222L162.129,111.222L162.757,111.222L163.443,111.222L164.824,111.222L165.527,111.222L166.263,111.222L166.904,111.222L167.58,111.222L168.963,111.222L169.665,111.222L170.401,111.222L171.044,111.222L171.714,111.222L173.1,111.222L173.803,111.222L174.541,111.222L175.179,111.222L175.85,111.222L177.235,111.222L177.938,111.222L178.673,111.222L179.312,111.222L179.987,111.222L181.371,111.222L182.061,111.222L182.793,111.222L183.438,111.222L184.125,111.222L185.508,111.222L186.198,111.222L186.932,111.222L187.572,111.222L188.26,111.222L189.649,111.222L190.354,111.222L191.09,111.222L191.709,111.222L192.4,111.222L193.785,111.222L194.492,111.222L195.227,111.222L195.86,111.222L196.537,111.222L197.924,111.222L198.626,111.222L199.364,111.222L199.999,111.222" stroke="#72b7b2" stroke-width="2"/></g></g><path class="foreground" aria-hidden="true" d="" display="none"/></g><g transform="translate(0,0)"><path class="background" aria-hidden="true" d="M0,0h200v200h-200Z"/><g><g class="mark-line role-mark marks" role="graphics-object" aria-roledescription="line mark container"><path aria-label="Time: Aug 27, 2025; Price: 1199; identifier: allure-rs-1-2023" role="graphics-symbol" aria-roledescription="line mark" d="M54.1,66.778L54.565,66.778L55.026,66.778L55.207,66.778L55.884,66.778L57.265,66.778L57.967,66.778L58.704,66.778L59.343,66.778L60.019,66.778L61.403,66.778L62.101,66.778L62.836,66.778L63.478,66.778L64.154,66.778L65.535,66.778L66.228,66.778L66.96,66.778L67.605,66.778L68.256,66.778L68.288,66.778L69.674,66.778L70.115,66.778L70.363,66.778L71.099,66.778L71.745,66.778L72.427,66.778L73.824,66.778L74.519,66.778L75.253,66.778L75.887,66.778L76.563,66.778L77.954,66.778L78.654,66.778L79.393,66.778L80.026,66.778L80.703,66.778L82.086,66.778L82.784,66.778L83.521,66.778L84.161,66.778L84.838,66.778L86.222,66.778L86.923,66.778L87.654,66.778L88.301,66.778L88.974,66.778L90.36,66.778L91.058,66.778L91.793,66.778L92.43,66.778L93.112,66.778L94.493,66.778L94.848,66.778L95.183,66.778L95.913,66.778L96.561,66.778L97.247,66.778L98.628,66.778L99.32,66.778L100.052,66.778L100.698,66.778L101.384,66.778L102.773,66.778L103.476,66.778L104.214,66.778L104.85,66.778L105.527,66.778L106.908,66.778L107.611,66.778L108.374,66.778L108.989,66.778L109.659,66.778L111.039,66.778L111.744,66.778L112.478,66.778L113.12,66.778L113.798,66.778L115.182,66.778L115.88,66.778L116.613,66.778L117.248,66.778L117.932,66.778L119.315,66.778L120.015,66.778L120.748,66.778L121.387,66.778L122.068,66.778L123.45,66.778L124.142,66.778L124.873,66.778L125.516,66.778L126.206,66.778L127.588,66.778L128.279,66.778L129.007,66.778L129.652,66.778L130.343,66.778L131.732,66.778L132.429,66.778L133.169,66.778L133.806,66.778L134.483,66.778L135.865,66.778L136.57,66.778L137.305,66.778L137.941,66.778L138.62,66.778L140.004,66.778L140.703,66.778L141.442,66.778L142.079,66.778L142.756,66.778L144.14,66.778L144.839,66.778L145.578,66.778L146.214,66.778L146.894,66.778L148.277,66.778L148.976,66.778L149.713,66.778L150.353,66.778L151.028,66.778L152.411,66.778L153.106,66.778L153.837,66.778L154.477,66.778L155.164,66.778L156.55,66.778L157.239,66.778L157.973,66.778L158.618,66.778L159.303,66.778L160.689,66.778L161.393,66.778L162.129,66.778L162.757,66.778L163.443,66.778L164.825,66.778L165.527,66.778L166.263,66.778L166.904,66.778L167.58,66.778L168.963,66.778L169.665,66.778L170.401,66.778L171.044,66.778L171.714,66.778L173.1,66.778L173.803,66.778L174.541,66.778L175.18,66.778L175.85,66.778L177.235,66.778L177.938,66.778L178.673,66.778L179.313,66.778L179.987,66.778L181.371,66.778L182.061,66.778L182.794,66.778L183.438,66.778L184.125,66.778L185.508,66.778L186.199,66.778L186.932,66.778L187.572,66.778L188.261,66.778L189.649,66.778L190.354,66.778L191.09,66.778L191.709,66.778L192.4,66.778L193.785,66.778L194.492,66.778L195.227,66.778L195.86,66.778L196.538,66.778L197.924,66.778L198.626,66.778L199.364,66.778L199.999,66.778" stroke="#b279a2" stroke-width="2"/></g></g><path class="foreground" aria-hidden="true" d="" display="none"/></g><g transform="translate(0,0)"><path class="background" aria-hidden="true" d="M0,0h200v200h-200Z"/><g><g class="mark-line role-mark marks" role="graphics-object" aria-roledescription="line mark container"><path aria-label="Time: Aug 27, 2025; Price: 999; identifier: allure-rs-2-2022" role="graphics-symbol" aria-roledescription="line mark" d="M54.101,89L54.565,89L55.026,89L55.207,89L55.884,89L57.265,89L57.967,89L58.704,89L59.343,89L60.019,89L61.403,89L62.101,89L62.836,89L63.479,89L64.154,89L68.256,111.222L68.288,111.222L69.674,111.222L70.115,111.222L70.363,111.222L71.099,111.222L71.745,111.222L72.427,111.222L73.824,111.222L74.519,111.222L75.253,111.222L75.887,111.222L76.563,111.222L77.954,111.222L78.654,111.222L79.393,111.222L80.027,111.222L80.703,111.222L82.086,111.222L82.784,111.222L83.521,111.222L84.161,111.222L84.838,111.222L86.222,111.222L86.923,111.222L87.654,111.222L88.302,111.222L88.974,111.222L90.36,111.222L91.059,111.222L91.793,111.222L92.431,111.222L93.112,111.222L94.493,111.222L94.848,111.222L95.183,111.222L95.913,111.222L96.561,111.222L97.247,111.222L98.629,111.222L99.32,111.222L100.053,111.222L100.698,111.222L101.384,111.222L102.773,111.222L103.476,111.222L104.214,111.222L104.85,111.222L105.527,111.222L106.908,111.222L107.612,111.222L108.374,111.222L108.989,111.222L109.659,111.222L111.039,111.222L111.745,111.222L112.478,111.222L113.12,111.222L113.798,111.222L115.182,111.222L115.88,111.222L116.613,111.222L117.249,111.222L117.932,111.222L119.315,111.222L120.016,111.222L120.748,111.222L121.387,111.222L122.068,111.222L123.45,111.222L124.142,111.222L124.873,111.222L125.516,111.222L126.206,111.222L127.588,111.222L128.28,111.222L129.007,111.222L129.652,111.222L130.343,111.222L131.732,111.222L132.429,111.222L133.169,111.222L133.806,111.222L134.483,111.222L135.866,111.222L136.57,111.222L137.305,111.222L137.941,111.222L138.62,111.222L140.004,111.222L140.703,111.222L141.442,111.222L142.079,111.222L142.756,111.222L144.14,111.222L144.839,111.222L145.578,111.222L146.214,111.222L146.894,111.222L148.277,111.222L148.976,111.222L149.713,111.222L150.353,111.222L151.028,111.222L152.411,111.222L153.106,111.222L153.837,111.222L154.477,111.222L155.164,111.222L156.55,111.222L157.239,111.222L157.973,111.222L158.618,111.222L159.303,111.222L160.689,111.222L161.393,111.222L162.129,111.222L162.758,111.222L163.443,111.222L164.825,111.222L165.527,111.222L166.263,111.222L166.904,111.222L167.58,111.222L168.963,111.222L169.665,111.222L170.401,111.222L171.044,111.222L171.714,111.222L173.1,111.222L173.804,111.222L174.541,111.222L175.18,111.222L175.85,111.222L177.235,111.222L177.938,111.222L178.673,111.222L179.313,111.222L179.988,111.222L181.371,111.222L182.061,111.222L182.794,111.222L183.439,111.222L184.125,111.222L185.509,111.222L186.199,111.222L186.932,111.222L187.572,111.222L188.261,111.222L189.649,111.222L190.354,111.222L191.09,111.222L191.71,111.222L192.4,111.222L193.785,111.222L194.492,111.222L195.227,111.222L195.861,111.222L196.538,111.222L197.924,111.222L198.626,111.222L199.365,111.222L199.999,111.222" stroke="#54a24b" stroke-width="2"/></g></g><path class="foreground" aria-hidden="true" d="" display="none"/></g><g transform="translate(0,0)"><path class="background" aria-hidden="true" d="M0,0h200v200h-200Z"/><g><g class="mark-line role-mark marks" role="graphics-object" aria-roledescription="line mark container"><path aria-label="Time: Aug 27, 2025; Price: 949; identifier: allure-rs-2-2023" role="graphics-symbol" aria-roledescription="line mark" d="M54.101,94.556L54.565,94.556L55.026,94.556L55.207,94.556L55.884,94.556L57.266,94.556L57.967,94.556L58.704,94.556L59.343,94.556L60.019,94.556L61.403,94.556L62.101,94.556L62.836,94.556L63.479,94.556L64.154,94.556L65.535,94.556L66.228,94.556L66.96,94.556L67.606,94.556L68.256,94.556L68.288,94.556L69.674,94.556L70.116,94.556L70.364,94.556L71.099,94.556L71.745,94.556L72.427,94.556L73.824,94.556L74.519,94.556L75.253,94.556L75.887,94.556L76.563,94.556L77.954,94.556L78.654,94.556L79.393,94.556L80.027,94.556L80.703,94.556L82.086,94.556L82.784,94.556L83.521,94.556L84.162,94.556L84.838,94.556L86.222,94.556L86.923,94.556L87.654,94.556L88.302,94.556L88.974,94.556L90.36,94.556L91.059,94.556L91.793,94.556L92.431,94.556L93.113,94.556L94.493,94.556L94.848,94.556L95.183,94.556L95.913,94.556L96.561,94.556L97.247,94.556L98.629,94.556L99.32,94.556L100.053,94.556L100.698,94.556L101.384,94.556L102.773,94.556L103.476,94.556L104.214,94.556L104.85,94.556L105.527,94.556L106.908,94.556L107.612,94.556L108.375,94.556L108.989,94.556L109.659,94.556L111.039,94.556L111.745,94.556L112.478,94.556L113.12,94.556L113.798,94.556L115.182,94.556L115.88,94.556L116.613,94.556L117.249,94.556L117.932,94.556L119.315,94.556L120.016,94.556L120.748,94.556L121.387,94.556L122.068,94.556L123.45,94.556L124.142,94.556L124.873,94.556L125.517,94.556L126.206,94.556L127.588,94.556L128.28,94.556L129.007,94.556L129.652,94.556L130.343,94.556L131.732,94.556L132.429,94.556L133.169,94.556L133.807,94.556L134.483,94.556L135.866,94.556L136.57,94.556L137.305,94.556L137.941,94.556L138.62,94.556L140.004,94.556L140.703,94.556L141.442,94.556L142.079,94.556L142.756,94.556L144.14,94.556L144.839,94.556L145.578,94.556L146.214,94.556L146.894,94.556L148.277,94.556L148.976,94.556L149.713,94.556L150.353,94.556L151.028,94.556L152.411,94.556L153.106,94.556L153.837,94.556L154.477,94.556L155.164,94.556L156.55,94.556L157.239,94.556L157.973,94.556L158.618,94.556L159.303,94.556L160.689,94.556L161.393,94.556L162.129,94.556L162.758,94.556L163.443,94.556L164.825,94.556L165.527,94.556L166.263,94.556L166.904,94.556L167.58,94.556L168.963,94.556L169.665,94.556L170.401,94.556L171.044,94.556L171.714,94.556L173.1,94.556L173.804,94.556L174.541,94.556L175.18,94.556L175.85,94.556L177.235,94.556L177.938,94.556L178.673,94.556L179.313,94.556L179.988,94.556L181.372,94.556L182.061,94.556L182.794,94.556L183.439,94.556L184.125,94.556L185.509,94.556L186.199,94.556L186.932,94.556L187.572,94.556L188.261,94.556L189.65,94.556L190.354,94.556L191.091,94.556L191.71,94.556L192.4,94.556L193.785,94.556L194.493,94.556L195.227,94.556L195.861,94.556L196.538,94.556L197.924,94.556L198.626,94.556L199.365,94.556L199.999,94.556" stroke="#bab0ac" stroke-width="2"/></g></g><path class="foreground" aria-hidden="true" d="" display="none"/></g><g transform="translate(0,0)"><path class="background" aria-hidden="true" d="M0,0h200v200h-200Z"/><g><g class="mark-line role-mark marks" role="graphics-object" aria-roledescription="line mark container"><path aria-label="Time: Aug 27, 2025; Price: 999; identifier: allure-rs-2-2024" role="graphics-symbol" aria-roledescription="line mark" d="M54.101,89L54.565,89L55.026,89L55.207,89L55.884,89L57.266,89L57.967,89L58.704,89L59.343,89L60.019,89L61.403,89L62.101,89L62.836,89L63.479,89L64.154,89L68.256,111.222L68.288,111.222L69.674,111.222L70.116,111.222L70.364,111.222L71.099,111.222L71.745,111.222L72.427,111.222L73.824,111.222L74.519,111.222L75.254,111.222L75.887,111.222L76.563,111.222L77.954,111.222L78.654,111.222L79.393,111.222L80.027,111.222L80.703,111.222L82.086,111.222L82.784,111.222L83.521,111.222L84.162,111.222L84.838,111.222L86.222,111.222L86.923,111.222L87.654,111.222L88.302,111.222L88.974,111.222L90.361,111.222L91.059,111.222L91.793,111.222L92.431,111.222L93.113,111.222L94.493,111.222L94.848,111.222L95.184,111.222L95.913,111.222L96.561,111.222L97.247,111.222L98.629,111.222L99.32,111.222L100.053,111.222L100.698,111.222L101.384,111.222L102.773,111.222L103.477,111.222L104.214,111.222L104.85,111.222L105.527,111.222L106.908,111.222L107.612,111.222L108.375,111.222L108.989,111.222L109.66,111.222L111.039,111.222L111.745,111.222L112.478,111.222L113.12,111.222L113.798,111.222L115.182,111.222L115.88,111.222L116.613,111.222L117.249,111.222L117.932,111.222L119.316,111.222L120.016,111.222L120.749,111.222L121.388,111.222L122.068,111.222L123.45,111.222L124.143,111.222L124.873,111.222L125.517,111.222L126.206,111.222L127.588,111.222L128.28,111.222L129.007,111.222L129.652,111.222L130.343,111.222L131.732,111.222L132.429,111.222L133.169,111.222L133.807,111.222L134.483,111.222L135.866,111.222L136.57,111.222L137.305,111.222L137.941,111.222L138.62,111.222L140.004,111.222L140.704,111.222L141.442,111.222L142.079,111.222L142.757,111.222L144.14,111.222L144.839,111.222L145.578,111.222L146.214,111.222L146.894,111.222L148.278,111.222L148.976,111.222L149.713,111.222L150.353,111.222L151.028,111.222L152.411,111.222L153.106,111.222L153.838,111.222L154.477,111.222L155.164,111.222L156.55,111.222L157.239,111.222L157.973,111.222L158.618,111.222L159.303,111.222L160.689,111.222L161.393,111.222L162.13,111.222L162.758,111.222L163.444,111.222L164.825,111.222L165.527,111.222L166.263,111.222L166.904,111.222L167.58,111.222L168.963,111.222L169.665,111.222L170.401,111.222L171.044,111.222L171.714,111.222L173.1,111.222L173.804,111.222L174.541,111.222L175.18,111.222L175.85,111.222L177.235,111.222L177.938,111.222L178.674,111.222L179.313,111.222L179.988,111.222L181.372,111.222L182.061,111.222L182.794,111.222L183.439,111.222L184.125,111.222L185.509,111.222L186.199,111.222L186.932,111.222L187.572,111.222L188.261,111.222L189.65,111.222L190.354,111.222L191.091,111.222L191.71,111.222L192.4,111.222L193.785,111.222L194.493,111.222L195.227,111.222L195.861,111.222L196.538,111.222L197.924,111.222L198.626,111.222L199.365,111.222L199.999,111.222" stroke="#eeca3b" stroke-width="2"/></g></g><path class="foreground" aria-hidden="true" d="" display="none"/></g><g transform="translate(0,0)"><path class="background" aria-hidden="true" d="M0,0h200v200h-200Z"/><g><g class="mark-line role-mark marks" role="graphics-object" aria-roledescription="line mark container"><path aria-label="Time: Aug 27, 2025; Price: 1799; identifier: devote-1-2024" role="graphics-symbol" aria-roledescription="line mark" d="M55.026,0.111L55.207,0.111L55.884,0.111L57.266,0.111L57.967,0.111L58.704,0.111L59.344,0.111L60.019,0.111L61.403,0.111L62.101,0.111L62.836,0.111L63.479,0.111L64.154,0.111L68.256,44.556L68.288,44.556L69.674,44.556L70.116,44.556L70.364,44.556L71.099,44.556L71.745,44.556L72.427,44.556L73.824,44.556L74.519,44.556L75.254,44.556L75.887,44.556L76.563,44.556L77.955,44.556L78.654,44.556L79.393,44.556L80.027,44.556L80.703,44.556L82.086,44.556L82.784,44.556L83.521,44.556L84.162,44.556L84.838,44.556L86.222,44.556L86.923,44.556L87.654,44.556L88.302,44.556L88.975,44.556L90.361,44.556L91.059,44.556L91.794,44.556L92.431,44.556L93.113,44.556L94.493,44.556L94.848,44.556L95.184,44.556L95.913,44.556L96.561,44.556L97.247,44.556L98.629,44.556L99.32,44.556L100.053,44.556L100.698,44.556L101.384,44.556L102.773,44.556L103.477,44.556L104.214,44.556L104.85,44.556L105.527,44.556L106.908,44.556L107.612,44.556L108.375,44.556L108.99,44.556L109.66,44.556L111.039,44.556L111.745,44.556L112.478,44.556L113.12,44.556L113.799,44.556L115.182,44.556L115.88,44.556L116.613,44.556L117.249,44.556L117.932,44.556L119.316,44.556L120.016,44.556L120.749,44.556L121.388,44.556L122.069,44.556L123.45,44.556L124.143,44.556L124.873,44.556L125.517,44.556L126.206,44.556L127.589,44.556L128.28,44.556L129.007,44.556L129.652,44.556L130.343,44.556L131.732,44.556L132.43,44.556L133.169,44.556L133.808,44.556L134.484,44.556L135.866,44.556L136.57,44.556L137.305,44.556L137.942,44.556L138.62,44.556L140.004,44.556L140.704,44.556L141.442,44.556L142.08,44.556L142.757,44.556L144.14,44.556L144.839,44.556L145.578,44.556L146.214,44.556L146.894,44.556L148.278,44.556L148.977,44.556L149.713,44.556L150.353,44.556L151.028,44.556L152.412,44.556L153.106,44.556L153.838,44.556L154.478,44.556L155.164,44.556L156.55,44.556L157.24,44.556L157.973,44.556L158.618,44.556L159.303,44.556L160.689,44.556L161.394,44.556L162.13,44.556L162.758,44.556L163.444,44.556L164.825,44.556L165.527,44.556L166.263,44.556L166.904,44.556L167.58,44.556L168.963,44.556L169.666,44.556L170.401,44.556L171.044,44.556L171.714,44.556L173.1,44.556L173.804,44.556L174.542,44.556L175.18,44.556L175.85,44.556L177.236,44.556L177.939,44.556L178.674,44.556L179.313,44.556L179.988,44.556L181.372,44.556L182.061,44.556L182.794,44.556L183.439,44.556L184.125,44.556L185.509,44.556L186.199,44.556L186.933,44.556L187.573,44.556L188.261,44.556L189.65,44.556L190.354,44.556L191.091,44.556L191.71,44.556L192.4,44.556L193.785,44.556L194.493,44.556L195.227,44.556L195.861,44.556L196.538,44.556L197.924,44.556L198.626,44.556L199.365,44.556L200,44.556" stroke="#72b7b2" stroke-width="2"/></g></g><path class="foreground" aria-hidden="true" d="" display="none"/></g><g transform="translate(0,0)"><path class="background" aria-hidden="true" d="M0,0h200v200h-200Z"/><g><g class="mark-line role-mark marks" role="graphics-object" aria-roledescription="line mark container"><path aria-label="Time: Aug 27, 2025; Price: 1699; identifier: devote-1-2022" role="graphics-symbol" aria-roledescription="line mark" d="M55.027,11.222L55.207,11.222L55.884,11.222L57.266,11.222L57.967,11.222L58.704,11.222L59.344,11.222L60.019,11.222L61.403,11.222L62.101,11.222L62.836,11.222L63.479,11.222L64.154,11.222L65.535,11.222L66.229,11.222L66.961,11.222L67.606,11.222L68.257,11.222L68.288,11.222L69.674,11.222L70.116,11.222L70.364,11.222L71.1,11.222L71.745,11.222L72.427,11.222L73.824,11.222L74.52,11.222L75.254,11.222L75.887,11.222L76.563,11.222L77.955,11.222L78.654,11.222L79.393,11.222L80.027,11.222L80.703,11.222L82.086,11.222L82.784,11.222L83.521,11.222L84.162,11.222L84.838,11.222L86.222,11.222L86.923,11.222L87.654,11.222L88.302,11.222L88.975,11.222L90.361,11.222L91.059,11.222L91.794,11.222L92.431,11.222L93.113,11.222L94.493,11.222L94.848,11.222L95.184,11.222L95.913,11.222L96.561,11.222L97.247,11.222L98.629,11.222L99.32,11.222L100.053,11.222L100.698,11.222L101.384,11.222L102.773,11.222L103.477,11.222L104.215,11.222L104.85,11.222L105.527,11.222L106.908,11.222L107.612,11.222L108.375,11.222L108.99,11.222L109.66,11.222L111.04,11.222L111.745,11.222L112.478,11.222L113.12,11.222L113.799,11.222L115.182,11.222L115.88,11.222L116.613,11.222L117.249,11.222L117.932,11.222L119.316,11.222L120.016,11.222L120.749,11.222L121.388,11.222L122.069,11.222L123.45,11.222L124.143,11.222L124.873,11.222L125.517,11.222L126.206,11.222L127.589,11.222L128.28,11.222L129.007,11.222L129.653,11.222L130.343,11.222L131.732,11.222L132.43,11.222L133.169,11.222L133.808,11.222L134.485,11.222L135.866,11.222L136.57,11.222L137.305,11.222L137.942,11.222L138.62,11.222L140.004,11.222L140.704,11.222L141.442,11.222L142.08,11.222L142.757,11.222L144.141,11.222L144.84,11.222L145.578,11.222L146.214,11.222L146.894,11.222L148.278,11.222L148.977,11.222L149.713,11.222L150.353,11.222L151.029,11.222L152.412,11.222L153.106,11.222L153.838,11.222L154.478,11.222L155.164,11.222L156.55,11.222L157.24,11.222L157.973,11.222L158.618,11.222L159.303,11.222L160.689,11.222L161.394,11.222L162.13,11.222L162.758,11.222L163.444,11.222L164.825,11.222L165.527,11.222L166.263,11.222L166.904,11.222L167.58,11.222L168.963,11.222L169.666,11.222L170.401,11.222L171.044,11.222L171.714,11.222L173.101,11.222L173.804,11.222L174.542,11.222L175.18,11.222L175.85,11.222L177.236,11.222L177.939,11.222L178.674,11.222L179.313,11.222L179.988,11.222L181.372,11.222L182.062,11.222L182.794,11.222L183.439,11.222L184.125,11.222L185.509,11.222L186.199,11.222L186.933,11.222L187.573,11.222L188.261,11.222L189.65,11.222L190.354,11.222L191.091,11.222L191.71,11.222L192.401,11.222L193.785,11.222L194.493,11.222L195.227,11.222L195.861,11.222L196.538,11.222L197.924,11.222L198.627,11.222L199.365,11.222L200,11.222" stroke="#4c78a8" stroke-width="2"/></g></g><path class="foreground" aria-hidden="true" d="" display="none"/></g><g transform="translate(0,0)"><path class="background" aria-hidden="true" d="M0,0h200v200h-200Z"/><g><g class="mark-line role-mark marks" role="graphics-object" aria-roledescription="line mark container"><path aria-label="Time: Aug 31, 2025; Price: 1599; identifier: silex-400-oak-bork-2026" role="graphics-symbol" aria-roledescription="line mark" d="M70.116,22.333L70.364,22.333L71.1,22.333L71.745,22.333L72.427,22.333L73.824,22.333L74.52,22.333L75.254,22.333L75.888,22.333L76.563,22.333L77.955,22.333L78.654,22.333L79.394,22.333L80.027,22.333L80.703,22.333L82.086,22.333L82.784,22.333L83.521,22.333L84.162,22.333L84.839,22.333L86.222,22.333L86.923,22.333L87.655,22.333L88.302,22.333L88.975,22.333L90.361,22.333L91.059,22.333L91.794,22.333L92.431,22.333L93.113,22.333L94.493,22.333L94.848,22.333L95.184,22.333L95.914,22.333L96.561,22.333L97.248,22.333L98.629,22.333L99.32,22.333L100.053,22.333L100.698,22.333L101.384,22.333L102.773,22.333L103.477,22.333L104.215,22.333L104.85,22.333L105.528,22.333L106.909,22.333L107.612,22.333L108.375,22.333L108.99,22.333L109.66,22.333L111.04,22.333L111.745,22.333L112.479,22.333L113.12,22.333L113.799,22.333L115.182,22.333L115.881,22.333L116.614,22.333L117.249,22.333L117.932,22.333L119.316,22.333L120.016,22.333L120.749,22.333L121.388,22.333L122.069,22.333L123.45,22.333L124.143,22.333L124.873,22.333L125.517,22.333L126.206,22.333L127.589,22.333L128.28,22.333L129.007,22.333L129.653,22.333L130.343,22.333L131.733,22.333L132.43,22.333L133.17,22.333L133.808,22.333L134.485,22.333L135.866,22.333L136.57,22.333L137.305,22.333L137.942,22.333L138.621,22.333L140.005,22.333L140.704,22.333L141.442,22.333L142.08,22.333L142.757,22.333L144.141,22.333L144.84,22.333L145.578,22.333L146.214,22.333L146.894,22.333L148.278,22.333L148.977,22.333L149.714,22.333L150.354,22.333L151.029,22.333L152.412,22.333L153.106,22.333L153.838,22.333L154.478,22.333L155.164,22.333L156.55,22.333L157.24,22.333L157.974,22.333L158.618,22.333L159.303,22.333L160.689,22.333L161.394,22.333L162.13,22.333L162.758,22.333L163.444,22.333L164.825,22.333L165.527,22.333L166.264,22.333L166.905,22.333L167.581,22.333L168.964,22.333L169.666,22.333L170.402,22.333L171.044,22.333L171.714,22.333L173.101,22.333L173.804,22.333L174.542,22.333L175.18,22.333L175.851,22.333L177.236,22.333L177.939,22.333L178.674,22.333L179.313,22.333L179.988,22.333L181.372,22.333L182.062,22.333L182.794,22.333L183.439,22.333L184.126,22.333L185.509,22.333L186.199,22.333L186.933,22.333L187.573,22.333L188.261,22.333L189.65,22.333L190.354,22.333L191.091,22.333L191.71,22.333L192.401,22.333L193.785,22.333L194.493,22.333L195.227,22.333L195.861,22.333L196.539,22.333L197.925,22.333L198.627,22.333L199.365,22.333L200,22.333" stroke="#f58518" stroke-width="2"/></g></g><path class="foreground" aria-hidden="true" d="" display="none"/></g><g transform="translate(0,0)"><path class="background" aria-hidden="true" d="M0,0h200v200h-200Z"/><g><g class="mark-line role-mark marks" role="graphics-object" aria-roledescription="line mark container"><path aria-label="Time: Aug 31, 2025; Price: 1599; identifier: silex-400-warm-slate-grey-2026" role="graphics-symbol" aria-roledescription="line mark" d="M70.116,22.333L70.364,22.333L71.1,22.333L71.745,22.333L72.427,22.333L73.824,22.333L74.52,22.333L75.254,22.333L75.888,22.333L76.564,22.333L77.955,22.333L78.654,22.333L79.394,22.333L80.027,22.333L80.703,22.333L82.086,22.333L82.785,22.333L83.522,22.333L84.162,22.333L84.839,22.333L86.223,22.333L86.923,22.333L87.655,22.333L88.302,22.333L88.975,22.333L90.361,22.333L91.059,22.333L91.794,22.333L92.431,22.333L93.113,22.333L94.494,22.333L94.848,22.333L95.184,22.333L95.914,22.333L96.561,22.333L97.248,22.333L98.629,22.333L99.32,22.333L100.053,22.333L100.699,22.333L101.385,22.333L102.773,22.333L103.477,22.333L104.215,22.333L104.85,22.333L105.528,22.333L106.909,22.333L107.612,22.333L108.375,22.333L108.99,22.333L109.66,22.333L111.04,22.333L111.745,22.333L112.479,22.333L113.12,22.333L113.799,22.333L115.183,22.333L115.881,22.333L116.614,22.333L117.249,22.333L117.932,22.333L119.316,22.333L120.016,22.333L120.749,22.333L121.388,22.333L122.069,22.333L123.45,22.333L124.143,22.333L124.874,22.333L125.517,22.333L126.207,22.333L127.589,22.333L128.28,22.333L129.008,22.333L129.653,22.333L130.343,22.333L131.733,22.333L132.43,22.333L133.17,22.333L133.808,22.333L134.485,22.333L135.866,22.333L136.571,22.333L137.305,22.333L137.942,22.333L138.621,22.333L140.005,22.333L140.704,22.333L141.443,22.333L142.08,22.333L142.757,22.333L144.141,22.333L144.84,22.333L145.578,22.333L146.215,22.333L146.895,22.333L148.278,22.333L148.977,22.333L149.714,22.333L150.354,22.333L151.029,22.333L152.412,22.333L153.106,22.333L153.838,22.333L154.478,22.333L155.165,22.333L156.55,22.333L157.24,22.333L157.974,22.333L158.618,22.333L159.304,22.333L160.69,22.333L161.394,22.333L162.13,22.333L162.758,22.333L163.444,22.333L164.826,22.333L165.528,22.333L166.264,22.333L166.905,22.333L167.581,22.333L168.964,22.333L169.666,22.333L170.403,22.333L171.045,22.333L171.715,22.333L173.101,22.333L173.804,22.333L174.542,22.333L175.18,22.333L175.851,22.333L177.236,22.333L177.939,22.333L178.674,22.333L179.313,22.333L179.989,22.333L181.372,22.333L182.062,22.333L182.794,22.333L183.439,22.333L184.126,22.333L185.509,22.333L186.199,22.333L186.933,22.333L187.573,22.333L188.261,22.333L189.65,22.333L190.354,22.333L191.091,22.333L191.71,22.333L192.401,22.333L193.785,22.333L194.493,22.333L195.227,22.333L195.861,22.333L196.539,22.333L197.925,22.333L198.627,22.333L199.365,22.333L200,22.333" stroke="#e45756" stroke-width="2"/></g></g><path class="foreground" aria-hidden="true" d="" display="none"/></g></g><g class="mark-group role-legend" role="graphics-symbol" aria-roledescription="legend" aria-label="Symbol legend titled 'identifier' for stroke color with 16 values: devote-1-2022, silex-400-oak-bork-2026, silex-400-warm-slate-grey-2026, devote-1-2024, fastroad-ar-2, ending with allure-rs-2-2024"><g transform="translate(220,0)"><path class="background" aria-hidden="true" d="M0,0h256v222h-256Z" pointer-events="none"/><g><g class="mark-group role-legend-entry"><g transform="translate(0,16)"><path class="background" aria-hidden="true" d="M0,0h0v0h0Z" pointer-events="none"/><g><g class="mark-group role-scope" role="graphics-object" aria-roledescription="group mark container"><g transform="translate(0,0)"><path class="background" aria-hidden="true" d="M0,0h256v11h-256Z" pointer-events="none" opacity="1"/><g><g class="mark-symbol role-legend-symbol" pointer-events="none"><path transform="translate(6,6)" d="M-5,0L5,0" stroke="#4c78a8" stroke-width="1.5" opacity="1"/></g><g class="mark-text role-legend-label" pointer-events="none"><text text-anchor="start" transform="translate(16,9)" font-family="Liberation Mono" font-size="10px" fill="#000" opacity="1">devote-1-2022</text></g></g><path class="foreground" aria-hidden="true" d="" pointer-events="none" display="none"/></g><g transform="translate(0,13)"><path class="background" aria-hidden="true" d="M0,0h256v11h-256Z" pointer-events="none" opacity="1"/><g><g class="mark-symbol role-legend-symbol" pointer-events="none"><path transform="translate(6,6)" d="M-5,0L5,0" stroke="#f58518" stroke-width="1.5" opacity="1"/></g><g class="mark-text role-legend-label" pointer-events="none"><text text-anchor="start" transform="translate(16,9)" font-family="Liberation Mono" font-size="10px" fill="#000" opacity="1">silex-400-oak-bork-2026</text></g></g><path class="foreground" aria-hidden="true" d="" pointer-events="none" display="none"/></g><g transform="translate(0,26)"><path class="background" aria-hidden="true" d="M0,0h256v11h-256Z" pointer-events="none" opacity="1"/><g><g class="mark-symbol role-legend-symbol" pointer-events="none"><path transform="translate(6,6)" d="M-5,0L5,0" stroke="#e45756" stroke-width="1.5" opacity="1"/></g><g class="mark-text role-legend-label" pointer-events="none"><text text-anchor="start" transform="translate(16,9)" font-family="Liberation Mono" font-size="10px" fill="#000" opacity="1">silex-400-warm-slate-grey-2026</text></g></g><path class="foreground" aria-hidden="true" d="" pointer-events="none" display="none"/></g><g transform="translate(0,39)"><path class="background" aria-hidden="true" d="M0,0h256v11h-256Z" pointer-events="none" opacity="1"/><g><g class="mark-symbol role-legend-symbol" pointer-events="none"><path transform="translate(6,6)" d="M-5,0L5,0" stroke="#72b7b2" stroke-width="1.5" opacity="1"/></g><g class="mark-text role-legend-label" pointer-events="none"><text text-anchor="start" transform="translate(16,9)" font-family="Liberation Mono" font-size="10px" fill="#000" opacity="1">devote-1-2024</text></g></g><path class="foreground" aria-hidden="true" d="" pointer-events="none" display="none"/></g><g transform="translate(0,52)"><path class="background" aria-hidden="true" d="M0,0h256v11h-256Z" pointer-events="none" opacity="1"/><g><g class="mark-symbol role-legend-symbol" pointer-events="none"><path transform="translate(6,6)" d="M-5,0L5,0" stroke="#54a24b" stroke-width="1.5" opacity="1"/></g><g class="mark-text role-legend-label" pointer-events="none"><text text-anchor="start" transform="translate(16,9)" font-family="Liberation Mono" font-size="10px" fill="#000" opacity="1">fastroad-ar-2</text></g></g><path class="foreground" aria-hidden="true" d="" pointer-events="none" display="none"/></g><g transform="translate(0,65)"><path class="background" aria-hidden="true" d="M0,0h256v11h-256Z" pointer-events="none" opacity="1"/><g><g class="mark-symbol role-legend-symbol" pointer-events="none"><path transform="translate(6,6)" d="M-5,0L5,0" stroke="#eeca3b" stroke-width="1.5" opacity="1"/></g><g class="mark-text role-legend-label" pointer-events="none"><text text-anchor="start" transform="translate(16,9)" font-family="Liberation Mono" font-size="10px" fill="#000" opacity="1">thrive-2</text></g></g><path class="foreground" aria-hidden="true" d="" pointer-events="none" display="none"/></g><g transform="translate(0,78)"><path class="background" aria-hidden="true" d="M0,0h256v11h-256Z" pointer-events="none" opacity="1"/><g><g class="mark-symbol role-legend-symbol" pointer-events="none"><path transform="translate(6,6)" d="M-5,0L5,0" stroke="#b279a2" stroke-width="1.5" opacity="1"/></g><g class="mark-text role-legend-label" pointer-events="none"><text text-anchor="start" transform="translate(16,9)" font-family="Liberation Mono" font-size="10px" fill="#000" opacity="1">allure-rs-1-2023</text></g></g><path class="foreground" aria-hidden="true" d="" pointer-events="none" display="none"/></g><g transform="translate(0,91)"><path class="background" aria-hidden="true" d="M0,0h256v11h-256Z" pointer-events="none" opacity="1"/><g><g class="mark-symbol role-legend-symbol" pointer-events="none"><path transform="translate(6,6)" d="M-5,0L5,0" stroke="#ff9da6" stroke-width="1.5" opacity="1"/></g><g class="mark-text role-legend-label" pointer-events="none"><text text-anchor="start" transform="translate(16,9)" font-family="Liberation Mono" font-size="10px" fill="#000" opacity="1">roam-2</text></g></g><path class="foreground" aria-hidden="true" d="" pointer-events="none" display="none"/></g><g transform="translate(0,104)"><path class="background" aria-hidden="true" d="M0,0h256v11h-256Z" pointer-events="none" opacity="1"/><g><g class="mark-symbol role-legend-symbol" pointer-events="none"><path transform="translate(6,6)" d="M-5,0L5,0" stroke="#9d755d" stroke-width="1.5" opacity="1"/></g><g class="mark-text role-legend-label" pointer-events="none"><text text-anchor="start" transform="translate(16,9)" font-family="Liberation Mono" font-size="10px" fill="#000" opacity="1">fastroad-sl-3-2022</text></g></g><path class="foreground" aria-hidden="true" d="" pointer-events="none" display="none"/></g><g transform="translate(0,117)"><path class="background" aria-hidden="true" d="M0,0h256v11h-256Z" pointer-events="none" opacity="1"/><g><g class="mark-symbol role-legend-symbol" pointer-events="none"><path transform="translate(6,6)" d="M-5,0L5,0" stroke="#bab0ac" stroke-width="1.5" opacity="1"/></g><g class="mark-text role-legend-label" pointer-events="none"><text text-anchor="start" transform="translate(16,9)" font-family="Liberation Mono" font-size="10px" fill="#000" opacity="1">allure-rs-2-2023</text></g></g><path class="foreground" aria-hidden="true" d="" pointer-events="none" display="none"/></g><g transform="translate(0,130)"><path class="background" aria-hidden="true" d="M0,0h256v11h-256Z" pointer-events="none" opacity="1"/><g><g class="mark-symbol role-legend-symbol" pointer-events="none"><path transform="translate(6,6)" d="M-5,0L5,0" stroke="#4c78a8" stroke-width="1.5" opacity="1"/></g><g class="mark-text role-legend-label" pointer-events="none"><text text-anchor="start" transform="translate(16,9)" font-family="Liberation Mono" font-size="10px" fill="#000" opacity="1">escape-city-disc-1-2024</text></g></g><path class="foreground" aria-hidden="true" d="" pointer-events="none" display="none"/></g><g transform="translate(0,143)"><path class="background" aria-hidden="true" d="M0,0h256v11h-256Z" pointer-events="none" opacity="1"/><g><g class="mark-symbol role-legend-symbol" pointer-events="none"><path transform="translate(6,6)" d="M-5,0L5,0" stroke="#f58518" stroke-width="1.5" opacity="1"/></g><g class="mark-text role-legend-label" pointer-events="none"><text text-anchor="start" transform="translate(16,9)" font-family="Liberation Mono" font-size="10px" fill="#000" opacity="1">sdrbike-escape-1-city-disc</text></g></g><path class="foreground" aria-hidden="true" d="" pointer-events="none" display="none"/></g><g transform="translate(0,156)"><path class="background" aria-hidden="true" d="M0,0h256v11h-256Z" pointer-events="none" opacity="1"/><g><g class="mark-symbol role-legend-symbol" pointer-events="none"><path transform="translate(6,6)" d="M-5,0L5,0" stroke="#e45756" stroke-width="1.5" opacity="1"/></g><g class="mark-text role-legend-label" pointer-events="none"><text text-anchor="start" transform="translate(16,9)" font-family="Liberation Mono" font-size="10px" fill="#000" opacity="1">roam-disc-2-2024</text></g></g><path class="foreground" aria-hidden="true" d="" pointer-events="none" display="none"/></g><g transform="translate(0,169)"><path class="background" aria-hidden="true" d="M0,0h256v11h-256Z" pointer-events="none" opacity="1"/><g><g class="mark-symbol role-legend-symbol" pointer-events="none"><path transform="translate(6,6)" d="M-5,0L5,0" stroke="#72b7b2" stroke-width="1.5" opacity="1"/></g><g class="mark-text role-legend-label" pointer-events="none"><text text-anchor="start" transform="translate(16,9)" font-family="Liberation Mono" font-size="10px" fill="#000" opacity="1">rove-2</text></g></g><path class="foreground" aria-hidden="true" d="" pointer-events="none" display="none"/></g><g transform="translate(0,182)"><path class="background" aria-hidden="true" d="M0,0h256v11h-256Z" pointer-events="none" opacity="1"/><g><g class="mark-symbol role-legend-symbol" pointer-events="none"><path transform="translate(6,6)" d="M-5,0L5,0" stroke="#54a24b" stroke-width="1.5" opacity="1"/></g><g class="mark-text role-legend-label" pointer-events="none"><text text-anchor="start" transform="translate(16,9)" font-family="Liberation Mono" font-size="10px" fill="#000" opacity="1">allure-rs-2-2022</text></g></g><path class="foreground" aria-hidden="true" d="" pointer-events="none" display="none"/></g><g transform="translate(0,195)"><path class="background" aria-hidden="true" d="M0,0h256v11h-256Z" pointer-events="none" opacity="1"/><g><g class="mark-symbol role-legend-symbol" pointer-events="none"><path transform="translate(6,6)" d="M-5,0L5,0" stroke="#eeca3b" stroke-width="1.5" opacity="1"/></g><g class="mark-text role-legend-label" pointer-events="none"><text text-anchor="start" transform="translate(16,9)" font-family="Liberation Mono" font-size="10px" fill="#000" opacity="1">allure-rs-2-2024</text></g></g><path class="foreground" aria-hidden="true" d="" pointer-events="none" display="none"/></g></g></g><path class="foreground" aria-hidden="true" d="" pointer-events="none" display="none"/></g></g><g class="mark-text role-legend-title" pointer-events="none"><text text-anchor="start" transform="translate(0,9)" font-family="Liberation Mono" font-size="11px" font-weight="bold" fill="#000" opacity="1">identifier</text></g></g><path class="foreground" aria-hidden="true" d="" pointer-events="none" display="none"/></g></g></g><path class="foreground" aria-hidden="true" d="" display="none"/></g></g></g></svg>