<svg xmlns="http://www.w3.org/2000/svg" xmlns:xlink="http://www.w3.org/1999/xlink" version="1.1" class="marks" width="548" height="244" viewBox="0 0 548 244"><rect width="548" height="244" fill="white"/><g fill="none" stroke-miterlimit="10" transform="translate(67,7)"><g class="mark-group role-frame root" role="graphics-object" aria-roledescription="group mark container"><g transform="translate(0,0)"><path class="background" aria-hidden="true" d="M0.5,0.5h200v200h-200Z" stroke="#ddd"/><g><g class="mark-group role-axis" aria-hidden="true"><g transform="translate(0.5,200.5)"><path class="background" aria-hidden="true" d="M0,0h0v0h0Z" pointer-events="none"/><g><g class="mark-rule role-axis-grid" pointer-events="none"><line transform="translate(8,-200)" x2="0" y2="200" stroke="#ddd" stroke-width="1" opacity="1"/><line transform="translate(31,-200)" x2="0" y2="200" stroke="#ddd" stroke-width="1" opacity="1"/><line transform="translate(54,-200)" x2="0" y2="200" stroke="#ddd" stroke-width="1" opacity="1"/><line transform="translate(76,-200)" x2="0" y2="200" stroke="#ddd" stroke-width="1" opacity="1"/><line transform="translate(99,-200)" x2="0" y2="200" stroke="#ddd" stroke-width="1" opacity="1"/><line transform="translate(121,-200)" x2="0" y2="200" stroke="#ddd" stroke-width="1" opacity="1"/><line transform="translate(144,-200)" x2="0" y2="200" stroke="#ddd" stroke-width="1" opacity="1"/><line transform="translate(166,-200)" x2="0" y2="200" stroke="#ddd" stroke-width="1" opacity="1"/><line transform="translate(189,-200)" x2="0" y2="200" stroke="#ddd" stroke-width="1" opacity="1"/></g></g><path class="foreground" aria-hidden="true" d="" pointer-events="none" display="none"/></g></g><g class="mark-group role-axis" aria-hidden="true"><g transform="translate(0.5,0.5)"><path class="background" aria-hidden="true" d="M0,0h0v0h0Z" pointer-events="none"/><g><g class="mark-rule role-axis-grid" pointer-events="none"><line transform="translate(0,200)" x2="200" y2="0" stroke="#ddd" stroke-width="1" opacity="1"/><line transform="translate(0,144)" x2="200" y2="0" stroke="#ddd" stroke-width="1" opacity="1"/><line transform="translate(0,89)" x2="200" y2="0" stroke="#ddd" stroke-width="1" opacity="1"/><line transform="translate(0,33)" x2="200" y2="0" stroke="#ddd" stroke-width="1" opacity="1"/></g></g><path class="foreground" aria-hidden="true" d="" pointer-events="none" display="none"/></g></g><g class="mark-group role-axis" role="graphics-symbol" aria-roledescription="axis" aria-label="X-axis titled 'Time' for a time scale with values from Thursday, 14 August 2025, 8:34:48 AM to Wednesday, 15 October 2025, 1:19:09 PM"><g transform="translate(0.5,200.5)"><path class="background" aria-hidden="true" d="M0,0h0v0h0Z" pointer-events="none"/><g><g class="mark-rule role-axis-tick" pointer-events="none"><line transform="translate(8,0)" x2="0" y2="5" stroke="#888" stroke-width="1" opacity="1"/><line transform="translate(31,0)" x2="0" y2="5" stroke="#888" stroke-width="1" opacity="1"/><line transform="translate(54,0)" x2="0" y2="5" stroke="#888" stroke-width="1" opacity="1"/><line transform="translate(76,0)" x2="0" y2="5" stroke="#888" stroke-width="1" opacity="1"/><line transform="translate(99,0)" x2="0" y2="5" stroke="#888" stroke-width="1" opacity="1"/><line transform="translate(121,0)" x2="0" y2="5" stroke="#888" stroke-width="1" opacity="1"/><line transform="translate(144,0)" x2="0" y2="5" stroke="#888" stroke-width="1" opacity="1"/><line transform="translate(166,0)" x2="0" y2="5" stroke="#888" stroke-width="1" opacity="1"/><line transform="translate(189,0)" x2="0" y2="5" stroke="#888" stroke-width="1" opacity="1"/></g><g class="mark-text role-axis-label" pointer-events="none"><text text-anchor="middle" transform="translate(8.497102592579296,15)" font-family="Liberation Mono" font-size="10px" fill="#000" opacity="1">Aug 17</text><text text-anchor="middle" transform="translate(31.00605806690102,15)" font-family="Liberation Mono" font-size="10px" fill="#000" opacity="0">Aug 24</text><text text-anchor="middle" transform="translate(53.51501354122274,15)" font-family="Liberation Mono" font-size="10px" fill="#000" opacity="0">Aug 31</text><text text-anchor="middle" transform="translate(76.02396901554447,15)" font-family="Liberation Mono" font-size="10px" fill="#000" opacity="0">Sep 07</text><text text-anchor="middle" transform="translate(98.53292448986619,15)" font-family="Liberation Mono" font-size="10px" fill="#000" opacity="1">Sep 14</text><text text-anchor="middle" transform="translate(121.04187996418791,15)" font-family="Liberation Mono" font-size="10px" fill="#000" opacity="0">Sep 21</text><text text-anchor="middle" transform="translate(143.55083543850964,15)" font-family="Liberation Mono" font-size="10px" fill="#000" opacity="0">Sep 28</text><text text-anchor="middle" transform="translate(166.05979091283137,15)" font-family="Liberation Mono" font-size="10px" fill="#000" opacity="0">Oct 05</text><text text-anchor="middle" transform="translate(188.56874638715308,15)" font-family="Liberation Mono" font-size="10px" fill="#000" opacity="1">Oct 12</text></g><g class="mark-rule role-axis-domain" pointer-events="none"><line transform="translate(0,0)" x2="200" y2="0" stroke="#888" stroke-width="1" opacity="1"/></g><g class="mark-text role-axis-title" pointer-events="none"><text text-anchor="middle" transform="translate(100,30)" font-family="Liberation Mono" font-size="11px" font-weight="bold" fill="#000" opacity="1">Time</text></g></g><path class="foreground" aria-hidden="true" d="" pointer-events="none" display="none"/></g></g><g class="mark-group role-axis" role="graphics-symbol" aria-roledescription="axis" aria-label="Y-axis titled 'Price' for a linear scale with values from 0 to 1,800"><g transform="translate(0.5,0.5)"><path class="background" aria-hidden="true" d="M0,0h0v0h0Z" pointer-events="none"/><g><g class="mark-rule role-axis-tick" pointer-events="none"><line transform="translate(0,200)" x2="-5" y2="0" stroke="#888" stroke-width="1" opacity="1"/><line transform="translate(0,144)" x2="-5" y2="0" stroke="#888" stroke-width="1" opacity="1"/><line transform="translate(0,89)" x2="-5" y2="0" stroke="#888" stroke-width="1" opacity="1"/><line transform="translate(0,33)" x2="-5" y2="0" stroke="#888" stroke-width="1" opacity="1"/></g><g class="mark-text role-axis-label" pointer-events="none"><text text-anchor="end" transform="translate(-7,203)" font-family="Liberation Mono" font-size="10px" fill="#000" opacity="1">0</text><text text-anchor="end" transform="translate(-7,147.44444444444443)" font-family="Liberation Mono" font-size="10px" fill="#000" opacity="1">500</text><text text-anchor="end" transform="translate(-7,91.88888888888889)" font-family="Liberation Mono" font-size="10px" fill="#000" opacity="1">1,000</text><text text-anchor="end" transform="translate(-7,36.33333333333333)" font-family="Liberation Mono" font-size="10px" fill="#000" opacity="1">1,500</text></g><g class="mark-rule role-axis-domain" pointer-events="none"><line transform="translate(0,200)" x2="0" y2="-200" stroke="#888" stroke-width="1" opacity="1"/></g><g class="mark-text role-axis-title" pointer-events="none"><text text-anchor="middle" transform="translate(-51,100) rotate(-90) translate(0,-2)" font-family="Liberation Mono" font-size="11px" font-weight="bold" fill="#000" opacity="1">Price</text></g></g><path class="foreground" aria-hidden="true" d="" pointer-events="none" display="none"/></g></g><g class="mark-group role-scope pathgroup" role="graphics-object" aria-roledescription="group mark container"><g transform="translate(0,0)"><path class="background" aria-hidden="true" d="M0,0h200v200h-200Z"/><g><g class="mark-line role-mark marks" role="graphics-object" aria-roledescription="line mark container"><path aria-label="Time: Aug 14, 2025; Price: 899; identifier: escape-city-disc-1-2024" role="graphics-symbol" aria-roledescription="line mark" d="M0,100.111L0.027,100.111L0.048,100.111L0.641,100.111L1.112,100.111L1.64,100.111L2.725,100.111L3.257,100.111L3.846,100.111L4.328,100.111L4.854,100.111L5.93,100.111L6.469,100.111L7.04,100.111L7.537,100.111L8.064,100.111L9.158,100.111L9.683,100.111L10.257,100.111L10.755,100.111L11.284,100.111L12.383,100.111L12.911,100.111L13.503,100.111L13.711,100.111L13.981,100.111L14.497,100.111L15.574,100.111L16.118,100.111L16.689,100.111L17.188,100.111L17.711,100.111L18.791,100.111L19.33,100.111L19.924,100.111L20.164,100.111L20.403,100.111L20.93,100.111L22.004,100.111L22.548,100.111L23.121,100.111L23.62,100.111L24.144,100.111L25.221,100.111L25.762,100.111L26.336,100.111L26.832,100.111L27.358,100.111L28.434,100.111L28.973,100.111L29.541,100.111L30.04,100.111L30.57,100.111L31.653,100.111L32.186,100.111L32.758,100.111L33.259,100.111L33.787,100.111L34.873,100.111L35.416,100.111L36.003,100.111L36.483,100.111L37.006,100.111L38.084,100.111L38.629,100.111L39.695,100.111L40.218,100.111L41.295,100.111L41.839,100.111L42.049,100.111L42.411,100.111L42.77,100.111L42.91,100.111L43.436,100.111L44.51,100.111L45.055,100.111L45.628,100.111L46.125,100.111L46.651,100.111L47.726,100.111L48.269,100.111L48.84,100.111L49.34,100.111L49.864,100.111L50.938,100.111L51.477,100.111L52.046,100.111L52.547,100.111L53.053,100.111L53.078,100.111L54.155,100.111L54.498,100.111L54.691,100.111L55.263,100.111L55.765,100.111L56.295,100.111L57.381,100.111L57.921,100.111L58.492,100.111L58.984,100.111L59.509,100.111L60.591,100.111L61.135,100.111L61.709,100.111L62.202,100.111L62.727,100.111L63.802,100.111L64.345,100.111L64.918,100.111L65.416,100.111L65.942,100.111L67.017,100.111L67.562,100.111L68.13,100.111L68.634,100.111L69.156,100.111L70.234,100.111L70.777,100.111L71.348,100.111L71.843,100.111L72.373,100.111L73.446,100.111L73.722,100.111L73.983,100.111L74.55,100.111L75.053,100.111L75.587,100.111L76.661,100.111L77.198,100.111L77.767,100.111L78.269,100.111L78.802,100.111L79.881,100.111L80.429,100.111L81.002,100.111L81.496,100.111L82.023,100.111L83.096,100.111L83.643,100.111L84.236,100.111L84.714,100.111L85.235,100.111L86.307,100.111L86.855,100.111L87.425,100.111L87.924,100.111L88.451,100.111L89.527,100.111L90.07,100.111L90.64,100.111L91.133,100.111L91.664,100.111L92.74,100.111L93.284,100.111L93.854,100.111L94.35,100.111L94.88,100.111L95.954,100.111L96.492,100.111L97.06,100.111L97.56,100.111L98.096,100.111L99.17,100.111L99.708,100.111L100.273,100.111L100.775,100.111L101.311,100.111L102.391,100.111L102.933,100.111L103.508,100.111L104.003,100.111L104.528,100.111L105.604,100.111L106.151,100.111L106.723,100.111L107.217,100.111L107.745,100.111L108.821,100.111L109.364,100.111L109.938,100.111L110.434,100.111L110.96,100.111L112.036,100.111L112.579,100.111L113.153,100.111L113.647,100.111L114.176,100.111L115.251,100.111L115.794,100.111L116.367,100.111L116.865,100.111L117.389,100.111L118.465,100.111L119.004,100.111L119.573,100.111L120.07,100.111L120.604,100.111L121.681,100.111L122.217,100.111L122.787,100.111L123.289,100.111L123.821,100.111L124.899,100.111L125.446,100.111L126.018,100.111L126.507,100.111L127.04,100.111L128.113,100.111L128.659,100.111L129.231,100.111L129.729,100.111L130.255,100.111L131.33,100.111L131.876,100.111L132.447,100.111L132.947,100.111L133.468,100.111L134.545,100.111L135.092,100.111L135.666,100.111L136.162,100.111L136.683,100.111L137.76,100.111L138.306,100.111L138.877,100.111L139.374,100.111L139.899,100.111L140.974,100.111L141.511,100.111L142.08,100.111L142.581,100.111L143.115,100.111L144.19,100.111L144.726,100.111L145.296,100.111L145.794,100.111L146.329,100.111L147.409,100.111L147.956,100.111L148.529,100.111L149.01,100.111L149.547,100.111L150.623,100.111L151.173,100.111L151.744,100.111L152.236,100.111L152.763,100.111L153.84,100.111L154.386,100.111L154.96,100.111L155.453,100.111L155.979,100.111L157.052,100.111L157.596,100.111L158.167,100.111L158.668,100.111L159.192,100.111L160.266,100.111L160.812,100.111L161.381,100.111L161.882,100.111L162.407,100.111L163.481,100.111L164.02,100.111L164.588,100.111L165.09,100.111L165.623,100.111L166.695,100.111L167.234,100.111L167.804,100.111L168.306,100.111L168.839,100.111L169.915,100.111L170.462,100.111L171.035,100.111L171.531,100.111L172.057,100.111L173.13,100.111L173.676,100.111L174.251,100.111L174.746,100.111L175.272,100.111L176.347,100.111L176.894,100.111L177.468,100.111L177.962,100.111L178.488,100.111L179.564,100.111L180.11,100.111L180.684,100.111L181.183,100.111L181.704,100.111L182.778,100.111L183.323,100.111L183.895,100.111L184.392,100.111L184.919,100.111L185.991,100.111L186.529,100.111L187.097,100.111L187.597,100.111L188.132,100.111L189.207,100.111L189.745,100.111L190.314,100.111L190.815,100.111L191.347,100.111L192.429,100.111L192.977,100.111L193.547,100.111L194.038,100.111L194.565,100.111L195.641,100.111L196.186,100.111L196.779,100.111L197.256,100.111L197.783,100.111L198.857,100.111L199.407,100.111L199.998,100.111" stroke="#4c78a8" stroke-width="2"/></g></g><path class="foreground" aria-hidden="true" d="" display="none"/></g><g transform="translate(0,0)"><path class="background" aria-hidden="true" d="M0,0h200v200h-200Z"/><g><g class="mark-line role-mark marks" role="graphics-object" aria-roledescription="line mark container"><path aria-label="Time: Aug 14, 2025; Price: 999; identifier: roam-2" role="graphics-symbol" aria-roledescription="line mark" d="M0,89L0.027,89L0.048,89L0.641,89L1.112,89L1.64,89L2.725,89L3.258,89L3.846,89L4.328,89L4.854,89L5.93,89L6.469,89L7.04,89L7.537,89L8.07,89L9.158,89L9.684,89L10.257,89L10.755,89L11.284,89L12.383,89L12.911,89L13.503,89L13.711,89L13.981,89L14.497,89L15.574,89L16.118,89L16.689,89L17.188,89L17.711,89L18.791,89L19.33,89L19.924,89L20.165,89L20.403,89L20.93,89L22.004,89L22.548,89L23.122,89L23.62,89L24.144,89L25.221,89L25.762,89L26.336,89L26.833,89L27.358,89L28.434,89L28.973,89L29.541,89L30.04,89L30.571,89L31.653,89L32.186,89L32.759,89L33.259,89L33.787,89L34.873,89L35.416,89L36.003,89L36.483,89L37.006,89L38.084,89L38.63,89L39.695,89L40.219,89L41.295,89L41.839,89L42.05,89L42.411,89L42.77,89L42.91,89L43.436,89L44.51,89L45.056,89L45.628,89L46.125,89L46.651,89L47.726,89L48.269,89L48.84,89L49.34,89L49.865,89L50.938,89L51.477,89L52.046,89L52.547,89L53.053,89L53.078,89L54.155,89L54.498,89L54.691,89L55.263,89L55.765,89L56.295,89L57.381,89L57.921,89L58.492,89L58.984,89L59.51,89L60.591,89L61.135,89L61.709,89L62.202,89L62.727,89L63.803,89L64.345,89L64.918,89L65.416,89L65.942,89L67.017,89L67.562,89L68.131,89L68.634,89L69.157,89L70.234,89L70.777,89L71.348,89L71.843,89L72.373,89L73.446,89L73.722,89L73.983,89L74.55,89L75.053,89L75.587,89L76.661,89L77.198,89L77.768,89L78.269,89L78.803,89L79.882,89L80.429,89L81.002,89L81.496,89L82.023,89L83.096,89L83.643,89L84.236,89L84.714,89L85.235,89L86.307,89L86.855,89L87.426,89L87.924,89L88.452,89L89.527,89L90.07,89L90.64,89L91.134,89L91.665,89L92.74,89L93.284,89L93.854,89L94.351,89L94.88,89L95.954,89L96.492,89L97.06,89L97.56,89L98.096,89L99.17,89L99.708,89L100.273,89L100.775,89L101.311,89L102.391,89L102.933,89L103.508,89L104.004,89L104.529,89L105.604,89L106.152,89L106.723,89L107.217,89L107.745,89L108.821,89L109.364,89L109.938,89L110.434,89L110.96,89L112.036,89L112.579,89L113.153,89L113.647,89L114.176,89L115.252,89L115.795,89L116.367,89L116.865,89L117.39,89L118.465,89L119.004,89L119.573,89L120.071,89L120.604,89L121.681,89L122.217,89L122.788,89L123.289,89L123.821,89L124.899,89L125.446,89L126.018,89L126.507,89L127.04,89L128.113,89L128.659,89L129.231,89L129.729,89L130.255,89L131.33,89L131.876,89L132.448,89L132.947,89L133.468,89L134.546,89L135.092,89L135.666,89L136.162,89L136.683,89L137.76,89L138.306,89L138.878,89L139.374,89L139.899,89L140.975,89L141.511,89L142.08,89L142.581,89L143.115,89L144.19,89L144.727,89L145.297,89L145.795,89L146.329,89L147.409,89L147.956,89L148.529,89L149.01,89L149.547,89L150.623,89L151.173,89L151.744,89L152.237,89L152.763,89L153.84,89L154.386,89L154.96,89L155.454,89L155.979,89L157.052,89L157.596,89L158.167,89L158.668,89L159.193,89L160.266,89L160.812,89L161.381,89L161.882,89L162.408,89L163.481,89L164.021,89L164.588,89L165.091,89L165.623,89L166.695,89L167.234,89L167.805,89L168.306,89L168.839,89L169.915,89L170.462,89L171.035,89L171.531,89L172.057,89L173.13,89L173.676,89L174.251,89L174.747,89L175.272,89L176.348,89L176.895,89L177.468,89L177.962,89L178.488,89L179.564,89L180.11,89L180.685,89L181.183,89L181.704,89L182.778,89L183.323,89L183.895,89L184.392,89L184.919,89L185.991,89L186.529,89L187.097,89L187.597,89L188.132,89L189.207,89L189.745,89L190.314,89L190.816,89L191.347,89L192.429,89L192.977,89L193.547,89L194.04,89L194.565,89L195.641,89L196.186,89L196.78,89L197.256,89L197.783,89L198.858,89L199.408,89L199.999,89" stroke="#ff9da6" stroke-width="2"/></g></g><path class="foreground" aria-hidden="true" d="" display="none"/></g><g transform="translate(0,0)"><path class="background" aria-hidden="true" d="M0,0h200v200h-200Z"/><g><g class="mark-line role-mark marks" role="graphics-object" aria-roledescription="line mark container"><path aria-label="Time: Aug 14, 2025; Price: 999; identifier: fastroad-sl-3-2022" role="graphics-symbol" aria-roledescription="line mark" d="M0,89L0.027,89L0.048,89L0.641,89L1.112,89L1.641,89L2.725,89L3.258,89L3.846,89L4.328,89L4.854,89L5.93,89L6.469,89L7.04,89L7.537,89L8.07,89L9.158,89L9.684,89L10.257,89L10.755,89L11.284,89L12.383,89L12.911,89L13.503,89L13.711,89L13.981,89L14.497,89L15.574,89L16.118,89L16.689,89L17.188,89L17.711,89L18.791,89L19.33,89L19.924,89L20.165,89L20.403,89L20.931,89L22.004,89L22.548,89L23.122,89L23.62,89L24.144,89L25.221,89L25.763,89L26.336,89L26.833,89L27.358,89L28.434,89L28.973,89L29.541,89L30.04,89L30.571,89L31.653,89L32.186,89L32.759,89L33.259,89L33.787,89L34.874,89L35.416,89L36.003,89L36.483,89L37.006,89L38.084,89L38.63,89L39.695,89L40.219,89L41.295,89L41.839,89L42.05,89L42.412,89L42.77,89L42.911,89L43.437,89L44.51,89L45.056,89L45.628,89L46.126,89L46.651,89L47.726,89L48.269,89L48.84,89L49.34,89L49.865,89L50.938,89L51.477,89L52.046,89L52.548,89L53.053,89L53.078,89L54.155,89L54.498,89L54.691,89L55.263,89L55.765,89L56.295,89L57.381,89L57.921,89L58.492,89L58.984,89L59.51,89L60.591,89L61.135,89L61.71,89L62.202,89L62.727,89L63.803,89L64.345,89L64.918,89L65.416,89L65.942,89L67.017,89L67.562,89L68.131,89L68.634,89L69.157,89L70.234,89L70.777,89L71.348,89L71.843,89L72.373,89L73.446,89L73.722,89L73.983,89L74.55,89L75.054,89L75.587,89L76.661,89L77.198,89L77.768,89L78.269,89L78.803,89L79.882,89L80.429,89L81.002,89L81.496,89L82.023,89L83.096,89L83.643,89L84.236,89L84.714,89L85.235,89L86.307,89L86.856,89L87.426,89L87.924,89L88.452,89L89.527,89L90.07,89L90.64,89L91.134,89L91.665,89L92.74,89L93.284,89L93.854,89L94.351,89L94.88,89L95.954,89L96.492,89L97.06,89L97.56,89L98.096,89L99.17,89L99.708,89L100.273,89L100.775,89L101.311,89L102.391,89L102.933,89L103.508,89L104.004,89L104.529,89L105.604,89L106.152,89L106.723,89L107.218,89L107.745,89L108.821,89L109.365,89L109.938,89L110.434,89L110.96,89L112.036,89L112.579,89L113.153,89L113.648,89L114.176,89L115.252,89L115.795,89L116.367,89L116.865,89L117.39,89L118.465,89L119.005,89L119.573,89L120.071,89L120.604,89L121.681,89L122.217,89L122.788,89L123.289,89L123.821,89L124.899,89L125.446,89L126.018,89L126.507,89L127.04,89L128.113,89L128.659,89L129.231,89L129.729,89L130.255,89L131.33,89L131.876,89L132.448,89L132.947,89L133.468,89L134.546,89L135.092,89L135.666,89L136.162,89L136.683,89L137.76,89L138.306,89L138.878,89L139.374,89L139.899,89L140.975,89L141.511,89L142.08,89L142.581,89L143.115,89L144.19,89L144.727,89L145.297,89L145.795,89L146.329,89L147.409,89L147.956,89L148.529,89L149.01,89L149.547,89L150.623,89L151.173,89L151.744,89L152.237,89L152.763,89L153.841,89L154.386,89L154.96,89L155.454,89L155.979,89L157.052,89L157.596,89L158.167,89L158.668,89L159.193,89L160.266,89L160.812,89L161.381,89L161.882,89L162.408,89L163.481,89L164.021,89L164.588,89L165.091,89L165.623,89L166.695,89L167.234,89L167.805,89L168.306,89L168.839,89L169.915,89L170.462,89L171.035,89L171.531,89L172.058,89L173.13,89L173.676,89L174.252,89L174.747,89L175.272,89L176.348,89L176.895,89L177.468,89L177.963,89L178.488,89L179.565,89L180.11,89L180.685,89L181.183,89L181.704,89L182.779,89L183.323,89L183.895,89L184.392,89L184.919,89L185.991,89L186.529,89L187.097,89L187.597,89L188.132,89L189.207,89L189.745,89L190.314,89L190.816,89L191.347,89L192.429,89L192.977,89L193.547,89L194.04,89L194.565,89L195.641,89L196.186,89L196.78,89L197.257,89L197.783,89L198.858,89L199.408,89L199.999,89" stroke="#9d755d" stroke-width="2"/></g></g><path class="foreground" aria-hidden="true" d="" display="none"/></g><g transform="translate(0,0)"><path class="background" aria-hidden="true" d="M0,0h200v200h-200Z"/><g><g class="mark-line role-mark marks" role="graphics-object" aria-roledescription="line mark container"><path aria-label="Time: Aug 14, 2025; Price: 1199; identifier: fastroad-ar-2" role="graphics-symbol" aria-roledescription="line mark" d="M0,66.778L0.027,66.778L0.048,66.778L0.641,66.778L1.112,66.778L1.641,66.778L2.725,66.778L3.258,66.778L3.846,66.778L4.328,66.778L4.854,66.778L5.93,66.778L6.469,66.778L7.04,66.778L7.537,66.778L8.072,66.778L9.158,66.778L9.684,66.778L10.257,66.778L10.755,66.778L11.284,66.778L12.383,66.778L12.911,66.778L13.503,66.778L13.711,66.778L13.981,66.778L14.497,66.778L15.574,66.778L16.118,66.778L16.69,66.778L17.188,66.778L17.711,66.778L18.791,66.778L19.33,66.778L19.924,66.778L20.165,66.778L20.403,66.778L20.931,66.778L22.004,66.778L22.548,66.778L23.122,66.778L23.62,66.778L24.145,66.778L25.221,66.778L25.763,66.778L26.336,66.778L26.833,66.778L27.358,66.778L28.434,66.778L28.973,66.778L29.541,66.778L30.04,66.778L30.571,66.778L31.654,66.778L32.187,66.778L32.759,66.778L33.259,66.778L33.787,66.778L34.874,66.778L35.416,66.778L36.003,66.778L36.483,66.778L37.007,66.778L38.084,66.778L38.63,66.778L39.696,66.778L40.219,66.778L41.296,66.778L41.839,66.778L42.05,66.778L42.412,66.778L42.77,66.778L42.911,66.778L43.437,66.778L44.51,66.778L45.056,66.778L45.628,66.778L46.126,66.778L46.651,66.778L47.726,66.778L48.269,66.778L48.84,66.778L49.34,66.778L49.865,66.778L50.938,66.778L51.477,66.778L52.046,66.778L52.548,66.778L53.053,66.778L53.078,66.778L54.155,66.778L54.499,66.778L54.691,66.778L55.263,66.778L55.765,66.778L56.295,66.778L57.381,66.778L57.921,66.778L58.492,66.778L58.984,66.778L59.51,66.778L60.591,66.778L61.135,66.778L61.71,66.778L62.202,66.778L62.728,66.778L63.803,66.778L64.345,66.778L64.918,66.778L65.416,66.778L65.942,66.778L67.017,66.778L67.562,66.778L68.131,66.778L68.634,66.778L69.157,66.778L70.234,66.778L70.777,66.778L71.348,66.778L71.843,66.778L72.373,66.778L73.446,66.778L73.722,66.778L73.983,66.778L74.55,66.778L75.054,66.778L75.587,66.778L76.661,66.778L77.198,66.778L77.768,66.778L78.27,66.778L78.803,66.778L79.882,66.778L80.429,66.778L81.002,66.778L81.496,66.778L82.023,66.778L83.096,66.778L83.643,66.778L84.236,66.778L84.714,66.778L85.235,66.778L86.307,66.778L86.856,66.778L87.426,66.778L87.924,66.778L88.452,66.778L89.527,66.778L90.07,66.778L90.64,66.778L91.134,66.778L91.665,66.778L92.74,66.778L93.284,66.778L93.854,66.778L94.351,66.778L94.88,66.778L95.954,66.778L96.492,66.778L97.06,66.778L97.56,66.778L98.096,66.778L99.171,66.778L99.708,66.778L100.273,66.778L100.775,66.778L101.312,66.778L102.391,66.778L102.933,66.778L103.508,66.778L104.004,66.778L104.529,66.778L105.604,66.778L106.152,66.778L106.723,66.778L107.218,66.778L107.745,66.778L108.821,66.778L109.365,66.778L109.938,66.778L110.434,66.778L110.96,66.778L112.036,66.778L112.579,66.778L113.153,66.778L113.648,66.778L114.176,66.778L115.252,66.778L115.795,66.778L116.367,66.778L116.865,66.778L117.39,66.778L118.465,66.778L119.005,66.778L119.573,66.778L120.071,66.778L120.604,66.778L121.681,66.778L122.217,66.778L122.788,66.778L123.289,66.778L123.821,66.778L124.899,66.778L125.446,66.778L126.018,66.778L126.507,66.778L127.04,66.778L128.113,66.778L128.659,66.778L129.231,66.778L129.73,66.778L130.255,66.778L131.33,66.778L131.876,66.778L132.448,66.778L132.947,66.778L133.468,66.778L134.546,66.778L135.092,66.778L135.666,66.778L136.162,66.778L136.683,66.778L137.76,66.778L138.306,66.778L138.878,66.778L139.374,66.778L139.899,66.778L140.975,66.778L141.511,66.778L142.08,66.778L142.582,66.778L143.115,66.778L144.19,66.778L144.727,66.778L145.297,66.778L145.795,66.778L146.33,66.778L147.409,66.778L147.956,66.778L148.529,66.778L149.01,66.778L149.547,66.778L150.623,66.778L151.173,66.778L151.744,66.778L152.237,66.778L152.763,66.778L153.841,66.778L154.386,66.778L154.96,66.778L155.454,66.778L155.979,66.778L157.052,66.778L157.596,66.778L158.168,66.778L158.668,66.778L159.193,66.778L160.267,66.778L160.812,66.778L161.382,66.778L161.882,66.778L162.408,66.778L163.481,66.778L164.021,66.778L164.588,66.778L165.091,66.778L165.623,66.778L166.695,66.778L167.234,66.778L167.805,66.778L168.306,66.778L168.839,66.778L169.915,66.778L170.462,66.778L171.035,66.778L171.531,66.778L172.058,66.778L173.131,66.778L173.676,66.778L174.252,66.778L174.747,66.778L175.272,66.778L176.348,66.778L176.895,66.778L177.468,66.778L177.963,66.778L178.488,66.778L179.565,66.778L180.111,66.778L180.685,66.778L181.183,66.778L181.704,66.778L182.779,66.778L183.323,66.778L183.895,66.778L184.392,66.778L184.919,66.778L185.991,66.778L186.529,66.778L187.097,66.778L187.597,66.778L188.132,66.778L189.207,66.778L189.745,66.778L190.314,66.778L190.816,66.778L191.347,66.778L192.43,66.778L192.977,66.778L193.547,66.778L194.041,66.778L194.565,66.778L195.641,66.778L196.186,66.778L196.78,66.778L197.257,66.778L197.783,66.778L198.858,66.778L199.408,66.778L199.999,66.778" stroke="#54a24b" stroke-width="2"/></g></g><path class="foreground" aria-hidden="true" d="" display="none"/></g><g transform="translate(0,0)"><path class="background" aria-hidden="true" d="M0,0h200v200h-200Z"/><g><g class="mark-line role-mark marks" role="graphics-object" aria-roledescription="line mark container"><path aria-label="Time: Aug 18, 2025; Price: 899; identifier: sdrbike-escape-1-city-disc" role="graphics-symbol" aria-roledescription="line mark" d="M13.711,100.111L13.981,100.111L14.497,100.111L15.574,100.111L16.118,100.111L16.69,100.111L17.189,100.111L17.711,100.111L18.791,100.111L19.33,100.111L19.924,100.111L20.165,100.111L20.403,100.111L20.931,100.111L22.005,100.111L22.548,100.111L23.122,100.111L23.621,100.111L24.145,100.111L25.221,100.111L25.763,100.111L26.336,100.111L26.833,100.111L27.358,100.111L28.434,100.111L28.973,100.111L29.542,100.111L30.04,100.111L30.571,100.111L31.654,100.111L32.187,100.111L32.759,100.111L33.259,100.111L33.787,100.111L34.874,100.111L35.416,100.111L36.003,100.111L36.483,100.111L37.007,100.111L38.084,100.111L38.63,100.111L39.696,100.111L40.219,100.111L41.296,100.111L41.839,100.111L42.05,100.111L42.412,100.111L42.77,100.111L42.911,100.111L43.437,100.111L44.511,100.111L45.056,100.111L45.629,100.111L46.126,100.111L46.651,100.111L47.726,100.111L48.269,100.111L48.84,100.111L49.34,100.111L49.865,100.111L50.938,100.111L51.477,100.111L52.046,100.111L52.548,100.111L53.053,100.111L53.078,100.111L54.155,100.111L54.499,100.111L54.691,100.111L55.263,100.111L55.765,100.111L56.295,100.111L57.381,100.111L57.922,100.111L58.492,100.111L58.985,100.111L59.51,100.111L60.591,100.111L61.135,100.111L61.71,100.111L62.202,100.111L62.728,100.111L63.803,100.111L64.345,100.111L64.918,100.111L65.416,100.111L65.942,100.111L67.018,100.111L67.562,100.111L68.131,100.111L68.634,100.111L69.157,100.111L70.234,100.111L70.777,100.111L71.348,100.111L71.844,100.111L72.374,100.111L73.447,100.111L73.722,100.111L73.983,100.111L74.55,100.111L75.054,100.111L75.587,100.111L76.661,100.111L77.198,100.111L77.768,100.111L78.27,100.111L78.803,100.111L79.882,100.111L80.429,100.111L81.002,100.111L81.497,100.111L82.023,100.111L83.096,100.111L83.643,100.111L84.236,100.111L84.714,100.111L85.235,100.111L86.307,100.111L86.856,100.111L87.426,100.111L87.925,100.111L88.452,100.111L89.527,100.111L90.07,100.111L90.64,100.111L91.134,100.111L91.665,100.111L92.74,100.111L93.284,100.111L93.854,100.111L94.351,100.111L94.88,100.111L95.954,100.111L96.492,100.111L97.06,100.111L97.56,100.111L98.096,100.111L99.171,100.111L99.708,100.111L100.273,100.111L100.775,100.111L101.312,100.111L102.391,100.111L102.933,100.111L103.508,100.111L104.004,100.111L104.529,100.111L105.604,100.111L106.152,100.111L106.723,100.111L107.218,100.111L107.745,100.111L108.821,100.111L109.365,100.111L109.939,100.111L110.434,100.111L110.96,100.111L112.036,100.111L112.579,100.111L113.153,100.111L113.648,100.111L114.176,100.111L115.252,100.111L115.795,100.111L116.368,100.111L116.865,100.111L117.39,100.111L118.465,100.111L119.005,100.111L119.573,100.111L120.071,100.111L120.604,100.111L121.682,100.111L122.218,100.111L122.788,100.111L123.289,100.111L123.822,100.111L124.899,100.111L125.446,100.111L126.019,100.111L126.507,100.111L127.04,100.111L128.113,100.111L128.659,100.111L129.231,100.111L129.73,100.111L130.255,100.111L131.33,100.111L131.876,100.111L132.448,100.111L132.948,100.111L133.468,100.111L134.546,100.111L135.093,100.111L135.666,100.111L136.162,100.111L136.683,100.111L137.76,100.111L138.306,100.111L138.878,100.111L139.375,100.111L139.899,100.111L140.975,100.111L141.511,100.111L142.08,100.111L142.582,100.111L143.115,100.111L144.191,100.111L144.727,100.111L145.297,100.111L145.795,100.111L146.33,100.111L147.409,100.111L147.957,100.111L148.529,100.111L149.01,100.111L149.547,100.111L150.623,100.111L151.173,100.111L151.744,100.111L152.237,100.111L152.763,100.111L153.841,100.111L154.386,100.111L154.96,100.111L155.454,100.111L155.979,100.111L157.052,100.111L157.597,100.111L158.168,100.111L158.669,100.111L159.193,100.111L160.267,100.111L160.812,100.111L161.382,100.111L161.882,100.111L162.408,100.111L163.482,100.111L164.021,100.111L164.588,100.111L165.091,100.111L165.623,100.111L166.696,100.111L167.234,100.111L167.805,100.111L168.306,100.111L168.839,100.111L169.916,100.111L170.462,100.111L171.036,100.111L171.532,100.111L172.058,100.111L173.131,100.111L173.676,100.111L174.252,100.111L174.747,100.111L175.273,100.111L176.348,100.111L176.895,100.111L177.468,100.111L177.963,100.111L178.488,100.111L179.565,100.111L180.111,100.111L180.685,100.111L181.183,100.111L181.704,100.111L182.779,100.111L183.324,100.111L183.895,100.111L184.392,100.111L184.919,100.111L185.992,100.111L186.53,100.111L187.098,100.111L187.597,100.111L188.132,100.111L189.208,100.111L189.745,100.111L190.314,100.111L190.816,100.111L191.347,100.111L192.43,100.111L192.977,100.111L193.547,100.111L194.041,100.111L194.565,100.111L195.641,100.111L196.186,100.111L196.78,100.111L197.257,100.111L197.784,100.111L198.858,100.111L199.408,100.111L199.999,100.111" stroke="#f58518" stroke-width="2"/></g></g><path class="foreground" aria-hidden="true" d="" display="none"/></g><g transform="translate(0,0)"><path class="background" aria-hidden="true" d="M0,0h200v200h-200Z"/><g><g class="mark-line role-mark marks" role="graphics-object" aria-roledescription="line mark container"><path aria-label="Time: Aug 20, 2025; Price: 899; identifier: roam-disc-2-2024" role="graphics-symbol" aria-roledescription="line mark" d="M20.165,100.111L20.403,100.111L20.93,100.111L22.004,100.111L22.548,100.111L23.121,100.111L23.62,100.111L24.144,100.111L25.221,100.111L25.762,100.111L26.336,100.111L26.833,100.111L27.358,100.111L28.434,100.111L28.973,100.111L29.541,100.111L30.04,100.111L30.57,100.111L31.653,100.111L32.186,100.111L32.759,100.111L33.259,100.111L33.787,100.111L34.873,100.111L35.416,100.111L36.003,100.111L36.483,100.111L37.006,100.111L38.084,100.111L38.63,100.111L39.695,100.111L40.219,100.111L41.295,100.111L41.839,100.111L42.05,100.111L42.411,100.111L42.77,100.111L42.91,100.111L43.436,100.111L44.51,100.111L45.055,100.111L45.628,100.111L46.125,100.111L46.651,100.111L47.726,100.111L48.269,100.111L48.84,100.111L49.34,100.111L49.864,100.111L50.938,100.111L51.477,100.111L52.046,100.111L52.547,100.111L53.053,100.111L53.078,100.111L54.155,100.111L54.498,100.111L54.691,100.111L55.263,100.111L55.765,100.111L56.295,100.111L57.381,100.111L57.921,100.111L58.492,100.111L58.984,100.111L59.51,100.111L60.591,100.111L61.135,100.111L61.709,100.111L62.202,100.111L62.727,100.111L63.803,100.111L64.345,100.111L64.918,100.111L65.416,100.111L65.942,100.111L67.017,100.111L67.562,100.111L68.131,100.111L68.634,100.111L69.157,100.111L70.234,100.111L70.777,100.111L71.348,100.111L71.843,100.111L72.373,100.111L73.446,100.111L73.722,100.111L73.983,100.111L74.55,100.111L75.053,100.111L75.587,100.111L76.661,100.111L77.198,100.111L77.768,100.111L78.269,100.111L78.802,100.111L79.882,100.111L80.429,100.111L81.002,100.111L81.496,100.111L82.023,100.111L83.096,100.111L83.643,100.111L84.236,100.111L84.714,100.111L85.235,100.111L86.307,100.111L86.855,100.111L87.425,100.111L87.924,100.111L88.452,100.111L89.527,100.111L90.07,100.111L90.64,100.111L91.134,100.111L91.665,100.111L92.74,100.111L93.284,100.111L93.854,100.111L94.351,100.111L94.88,100.111L95.954,100.111L96.492,100.111L97.06,100.111L97.56,100.111L98.096,100.111L99.17,100.111L99.708,100.111L100.273,100.111L100.775,100.111L101.311,100.111L102.391,100.111L102.933,100.111L103.508,100.111L104.003,100.111L104.529,100.111L105.604,100.111L106.152,100.111L106.723,100.111L107.217,100.111L107.745,100.111L108.821,100.111L109.364,100.111L109.938,100.111L110.434,100.111L110.96,100.111L112.036,100.111L112.579,100.111L113.153,100.111L113.647,100.111L114.176,100.111L115.251,100.111L115.794,100.111L116.367,100.111L116.865,100.111L117.39,100.111L118.465,100.111L119.004,100.111L119.573,100.111L120.07,100.111L120.604,100.111L121.681,100.111L122.217,100.111L122.788,100.111L123.289,100.111L123.821,100.111L124.899,100.111L125.446,100.111L126.018,100.111L126.507,100.111L127.04,100.111L128.113,100.111L128.659,100.111L129.231,100.111L129.729,100.111L130.255,100.111L131.33,100.111L131.876,100.111L132.447,100.111L132.947,100.111L133.468,100.111L134.546,100.111L135.092,100.111L135.666,100.111L136.162,100.111L136.683,100.111L137.76,100.111L138.306,100.111L138.877,100.111L139.374,100.111L139.899,100.111L140.975,100.111L141.511,100.111L142.08,100.111L142.581,100.111L143.115,100.111L144.19,100.111L144.727,100.111L145.297,100.111L145.794,100.111L146.329,100.111L147.409,100.111L147.956,100.111L148.529,100.111L149.01,100.111L149.547,100.111L150.623,100.111L151.173,100.111L151.744,100.111L152.237,100.111L152.763,100.111L153.84,100.111L154.386,100.111L154.96,100.111L155.453,100.111L155.979,100.111L157.052,100.111L157.596,100.111L158.167,100.111L158.668,100.111L159.193,100.111L160.266,100.111L160.812,100.111L161.381,100.111L161.882,100.111L162.407,100.111L163.481,100.111L164.02,100.111L164.588,100.111L165.09,100.111L165.623,100.111L166.695,100.111L167.234,100.111L167.804,100.111L168.306,100.111L168.839,100.111L169.915,100.111L170.462,100.111L171.035,100.111L171.531,100.111L172.057,100.111L173.13,100.111L173.676,100.111L174.251,100.111L174.747,100.111L175.272,100.111L176.347,100.111L176.895,100.111L177.468,100.111L177.962,100.111L178.488,100.111L179.564,100.111L180.11,100.111L180.685,100.111L181.183,100.111L181.704,100.111L182.778,100.111L183.323,100.111L183.895,100.111L184.392,100.111L184.919,100.111L185.991,100.111L186.529,100.111L187.097,100.111L187.597,100.111L188.132,100.111L189.207,100.111L189.745,100.111L190.314,100.111L190.816,100.111L191.347,100.111L192.429,100.111L192.977,100.111L193.547,100.111L194.039,100.111L194.565,100.111L195.641,100.111L196.186,100.111L196.779,100.111L197.256,100.111L197.783,100.111L198.857,100.111L199.407,100.111L199.998,100.111" stroke="#e45756" stroke-width="2"/></g></g><path class="foreground" aria-hidden="true" d="" display="none"/></g><g transform="translate(0,0)"><path class="background" aria-hidden="true" d="M0,0h200v200h-200Z"/><g><g class="mark-line role-mark marks" role="graphics-object" aria-roledescription="line mark container"><path aria-label="Time: Aug 20, 2025; Price: 1199; identifier: thrive-2" role="graphics-symbol" aria-roledescription="line mark" d="M20.165,66.778L20.403,66.778L20.931,66.778L22.005,66.778L22.548,66.778L23.122,66.778L23.621,66.778L24.145,66.778L25.221,66.778L25.763,66.778L26.336,66.778L26.833,66.778L27.359,66.778L28.434,66.778L28.973,66.778L29.542,66.778L30.04,66.778L30.571,66.778L31.654,66.778L32.187,66.778L32.759,66.778L33.26,66.778L33.787,66.778L34.874,66.778L35.416,66.778L36.003,66.778L36.483,66.778L37.007,66.778L38.084,66.778L38.63,66.778L39.696,66.778L40.219,66.778L41.296,66.778L41.839,66.778L42.05,66.778L42.412,66.778L42.77,66.778L42.911,66.778L43.437,66.778L44.511,66.778L45.056,66.778L45.629,66.778L46.126,66.778L46.651,66.778L47.726,66.778L48.269,66.778L48.84,66.778L49.34,66.778L49.865,66.778L50.938,66.778L51.477,66.778L52.046,66.778L52.548,66.778L53.053,66.778L53.078,66.778L54.155,66.778L54.499,66.778L54.691,66.778L55.263,66.778L55.765,66.778L56.295,66.778L57.381,66.778L57.922,66.778L58.492,66.778L58.985,66.778L59.51,66.778L60.592,66.778L61.135,66.778L61.71,66.778L62.202,66.778L62.728,66.778L63.803,66.778L64.346,66.778L64.918,66.778L65.416,66.778L65.942,66.778L67.018,66.778L67.562,66.778L68.131,66.778L68.634,66.778L69.157,66.778L70.235,66.778L70.777,66.778L71.348,66.778L71.844,66.778L72.374,66.778L73.447,66.778L73.722,66.778L73.983,66.778L74.55,66.778L75.054,66.778L75.587,66.778L76.661,66.778L77.198,66.778L77.768,66.778L78.27,66.778L78.803,66.778L79.882,66.778L80.429,66.778L81.003,66.778L81.497,66.778L82.023,66.778L83.096,66.778L83.643,66.778L84.236,66.778L84.714,66.778L85.235,66.778L86.308,66.778L86.856,66.778L87.426,66.778L87.925,66.778L88.452,66.778L89.527,66.778L90.07,66.778L90.64,66.778L91.134,66.778L91.665,66.778L92.74,66.778L93.285,66.778L93.854,66.778L94.351,66.778L94.88,66.778L95.954,66.778L96.492,66.778L97.06,66.778L97.56,66.778L98.096,66.778L99.171,66.778L99.708,66.778L100.273,66.778L100.775,66.778L101.312,66.778L102.392,66.778L102.934,66.778L103.508,66.778L104.004,66.778L104.53,66.778L105.604,66.778L106.152,66.778L106.723,66.778L107.218,66.778L107.745,66.778L108.821,66.778L109.365,66.778L109.939,66.778L110.434,66.778L110.96,66.778L112.036,66.778L112.579,66.778L113.153,66.778L113.648,66.778L114.176,66.778L115.252,66.778L115.795,66.778L116.368,66.778L116.865,66.778L117.39,66.778L118.465,66.778L119.005,66.778L119.573,66.778L120.071,66.778L120.605,66.778L121.682,66.778L122.218,66.778L122.788,66.778L123.289,66.778L123.822,66.778L124.899,66.778L125.446,66.778L126.019,66.778L126.507,66.778L127.04,66.778L128.114,66.778L128.659,66.778L129.232,66.778L129.73,66.778L130.255,66.778L131.33,66.778L131.876,66.778L132.448,66.778L132.948,66.778L133.468,66.778L134.546,66.778L135.093,66.778L135.666,66.778L136.162,66.778L136.683,66.778L137.76,66.778L138.306,66.778L138.878,66.778L139.375,66.778L139.899,66.778L140.975,66.778L141.511,66.778L142.08,66.778L142.582,66.778L143.115,66.778L144.191,66.778L144.727,66.778L145.297,66.778L145.795,66.778L146.33,66.778L147.409,66.778L147.957,66.778L148.529,66.778L149.01,66.778L149.547,66.778L150.623,66.778L151.174,66.778L151.744,66.778L152.237,66.778L152.763,66.778L153.841,66.778L154.387,66.778L154.961,66.778L155.454,66.778L155.979,66.778L157.052,66.778L157.597,66.778L158.168,66.778L158.669,66.778L159.193,66.778L160.267,66.778L160.812,66.778L161.382,66.778L161.882,66.778L162.408,66.778L163.482,66.778L164.021,66.778L164.588,66.778L165.091,66.778L165.623,66.778L166.696,66.778L167.234,66.778L167.805,66.778L168.306,66.778L168.839,66.778L169.916,66.778L170.462,66.778L171.036,66.778L171.532,66.778L172.058,66.778L173.131,66.778L173.676,66.778L174.252,66.778L174.747,66.778L175.273,66.778L176.348,66.778L176.895,66.778L177.468,66.778L177.963,66.778L178.488,66.778L179.565,66.778L180.111,66.778L180.685,66.778L181.183,66.778L181.704,66.778L182.779,66.778L183.324,66.778L183.895,66.778L184.393,66.778L184.919,66.778L185.992,66.778L186.53,66.778L187.098,66.778L187.597,66.778L188.132,66.778L189.208,66.778L189.745,66.778L190.314,66.778L190.816,66.778L191.347,66.778L192.43,66.778L192.977,66.778L193.547,66.778L194.042,66.778L194.565,66.778L195.641,66.778L196.186,66.778L196.78,66.778L197.257,66.778L197.784,66.778L198.858,66.778L199.408,66.778L199.999,66.778" stroke="#eeca3b" stroke-width="2"/></g></g><path class="foreground" aria-hidden="true" d="" display="none"/></g><g transform="translate(0,0)"><path class="background" aria-hidden="true" d="M0,0h200v200h-200Z"/><g><g class="mark-line role-mark marks" role="graphics-object" aria-roledescription="line mark container"><path aria-label="Time: Aug 20, 2025; Price: 999; identifier: rove-2" role="graphics-symbol" aria-roledescription="line mark" d="M20.165,89L20.403,89L20.931,89L22.005,89L22.548,89L23.122,89L23.621,89L24.145,89L25.221,89L25.763,89L26.336,89L26.833,89L27.359,89L28.434,89L28.973,89L29.542,89L30.04,89L30.571,89L31.654,89L32.187,89L32.759,89L33.26,89L33.787,89L34.874,89L35.416,89L36.003,89L36.483,89L37.007,89L38.084,89L38.63,89L39.696,89L40.219,89L41.296,89L41.839,89L42.05,89L42.412,89L42.77,89L42.911,89L43.437,89L44.511,89L45.056,89L45.629,89L46.126,89L46.651,89L47.727,89L48.269,89L48.841,89L49.34,89L49.865,89L53.053,111.222L53.078,111.222L54.155,111.222L54.499,111.222L54.691,111.222L55.263,111.222L55.765,111.222L56.295,111.222L57.381,111.222L57.922,111.222L58.492,111.222L58.985,111.222L59.51,111.222L60.592,111.222L61.135,111.222L61.71,111.222L62.202,111.222L62.728,111.222L63.803,111.222L64.346,111.222L64.918,111.222L65.416,111.222L65.942,111.222L67.018,111.222L67.562,111.222L68.131,111.222L68.634,111.222L69.157,111.222L70.235,111.222L70.777,111.222L71.348,111.222L71.844,111.222L72.374,111.222L73.447,111.222L73.722,111.222L73.983,111.222L74.55,111.222L75.054,111.222L75.587,111.222L76.661,111.222L77.198,111.222L77.768,111.222L78.27,111.222L78.803,111.222L79.882,111.222L80.429,111.222L81.003,111.222L81.497,111.222L82.023,111.222L83.097,111.222L83.643,111.222L84.236,111.222L84.714,111.222L85.235,111.222L86.308,111.222L86.856,111.222L87.426,111.222L87.925,111.222L88.452,111.222L89.527,111.222L90.07,111.222L90.64,111.222L91.134,111.222L91.665,111.222L92.74,111.222L93.285,111.222L93.854,111.222L94.351,111.222L94.88,111.222L95.954,111.222L96.492,111.222L97.06,111.222L97.56,111.222L98.096,111.222L99.171,111.222L99.708,111.222L100.273,111.222L100.775,111.222L101.312,111.222L102.392,111.222L102.934,111.222L103.508,111.222L104.004,111.222L104.53,111.222L105.604,111.222L106.152,111.222L106.723,111.222L107.218,111.222L107.746,111.222L108.821,111.222L109.365,111.222L109.939,111.222L110.434,111.222L110.961,111.222L112.036,111.222L112.58,111.222L113.153,111.222L113.648,111.222L114.176,111.222L115.252,111.222L115.795,111.222L116.368,111.222L116.865,111.222L117.39,111.222L118.465,111.222L119.005,111.222L119.573,111.222L120.071,111.222L120.605,111.222L121.682,111.222L122.218,111.222L122.788,111.222L123.289,111.222L123.822,111.222L124.899,111.222L125.447,111.222L126.019,111.222L126.507,111.222L127.04,111.222L128.114,111.222L128.659,111.222L129.232,111.222L129.73,111.222L130.255,111.222L131.33,111.222L131.876,111.222L132.448,111.222L132.948,111.222L133.468,111.222L134.546,111.222L135.093,111.222L135.666,111.222L136.162,111.222L136.683,111.222L137.76,111.222L138.307,111.222L138.878,111.222L139.375,111.222L139.899,111.222L140.975,111.222L141.511,111.222L142.08,111.222L142.582,111.222L143.115,111.222L144.191,111.222L144.727,111.222L145.297,111.222L145.795,111.222L146.33,111.222L147.409,111.222L147.957,111.222L148.529,111.222L149.011,111.222L149.547,111.222L150.624,111.222L151.174,111.222L151.744,111.222L152.237,111.222L152.763,111.222L153.841,111.222L154.387,111.222L154.961,111.222L155.454,111.222L155.979,111.222L157.052,111.222L157.597,111.222L158.168,111.222L158.669,111.222L159.193,111.222L160.267,111.222L160.812,111.222L161.382,111.222L161.883,111.222L162.408,111.222L163.482,111.222L164.021,111.222L164.589,111.222L165.091,111.222L165.623,111.222L166.696,111.222L167.235,111.222L167.805,111.222L168.306,111.222L168.839,111.222L169.916,111.222L170.462,111.222L171.036,111.222L171.532,111.222L172.058,111.222L173.131,111.222L173.676,111.222L174.252,111.222L174.747,111.222L175.273,111.222L176.348,111.222L176.895,111.222L177.468,111.222L177.963,111.222L178.488,111.222L179.565,111.222L180.111,111.222L180.685,111.222L181.183,111.222L181.705,111.222L182.779,111.222L183.324,111.222L183.896,111.222L184.393,111.222L184.92,111.222L185.992,111.222L186.53,111.222L187.098,111.222L187.597,111.222L188.132,111.222L189.208,111.222L189.745,111.222L190.314,111.222L190.816,111.222L191.348,111.222L192.43,111.222L192.977,111.222L193.547,111.222L194.042,111.222L194.565,111.222L195.641,111.222L196.186,111.222L196.78,111.222L197.257,111.222L197.784,111.222L198.858,111.222L199.408,111.222L199.999,111.222" stroke="#72b7b2" stroke-width="2"/></g></g><path class="foreground" aria-hidden="true" d="" display="none"/></g><g transform="translate(0,0)"><path class="background" aria-hidden="true" d="M0,0h200v200h-200Z"/><g><g class="mark-line role-mark marks" role="graphics-object" aria-roledescription="line mark container"><path aria-label="Time: Aug 27, 2025; Price: 1199; identifier: allure-rs-1-2023" role="graphics-symbol" aria-roledescription="line mark" d="M42.051,66.778L42.412,66.778L42.77,66.778L42.911,66.778L43.437,66.778L44.511,66.778L45.056,66.778L45.629,66.778L46.126,66.778L46.651,66.778L47.727,66.778L48.269,66.778L48.841,66.778L49.34,66.778L49.865,66.778L50.938,66.778L51.477,66.778L52.046,66.778L52.548,66.778L53.054,66.778L53.079,66.778L54.155,66.778L54.499,66.778L54.692,66.778L55.263,66.778L55.765,66.778L56.295,66.778L57.381,66.778L57.922,66.778L58.492,66.778L58.985,66.778L59.51,66.778L60.592,66.778L61.135,66.778L61.71,66.778L62.202,66.778L62.728,66.778L63.803,66.778L64.346,66.778L64.918,66.778L65.416,66.778L65.942,66.778L67.018,66.778L67.563,66.778L68.131,66.778L68.634,66.778L69.157,66.778L70.235,66.778L70.777,66.778L71.348,66.778L71.844,66.778L72.374,66.778L73.447,66.778L73.723,66.778L73.983,66.778L74.551,66.778L75.054,66.778L75.588,66.778L76.661,66.778L77.199,66.778L77.768,66.778L78.27,66.778L78.803,66.778L79.882,66.778L80.429,66.778L81.003,66.778L81.497,66.778L82.023,66.778L83.097,66.778L83.644,66.778L84.236,66.778L84.714,66.778L85.235,66.778L86.308,66.778L86.856,66.778L87.426,66.778L87.925,66.778L88.452,66.778L89.528,66.778L90.07,66.778L90.64,66.778L91.134,66.778L91.665,66.778L92.741,66.778L93.285,66.778L93.854,66.778L94.351,66.778L94.88,66.778L95.954,66.778L96.492,66.778L97.06,66.778L97.56,66.778L98.096,66.778L99.171,66.778L99.708,66.778L100.274,66.778L100.775,66.778L101.312,66.778L102.392,66.778L102.934,66.778L103.509,66.778L104.004,66.778L104.53,66.778L105.605,66.778L106.152,66.778L106.723,66.778L107.218,66.778L107.746,66.778L108.821,66.778L109.365,66.778L109.939,66.778L110.434,66.778L110.961,66.778L112.036,66.778L112.58,66.778L113.154,66.778L113.648,66.778L114.177,66.778L115.252,66.778L115.795,66.778L116.368,66.778L116.865,66.778L117.39,66.778L118.465,66.778L119.005,66.778L119.574,66.778L120.071,66.778L120.605,66.778L121.682,66.778L122.218,66.778L122.788,66.778L123.289,66.778L123.822,66.778L124.899,66.778L125.447,66.778L126.019,66.778L126.507,66.778L127.04,66.778L128.114,66.778L128.659,66.778L129.232,66.778L129.73,66.778L130.255,66.778L131.33,66.778L131.876,66.778L132.448,66.778L132.948,66.778L133.469,66.778L134.546,66.778L135.093,66.778L135.666,66.778L136.162,66.778L136.683,66.778L137.76,66.778L138.307,66.778L138.878,66.778L139.375,66.778L139.899,66.778L140.975,66.778L141.511,66.778L142.081,66.778L142.582,66.778L143.115,66.778L144.191,66.778L144.727,66.778L145.297,66.778L145.795,66.778L146.33,66.778L147.409,66.778L147.957,66.778L148.529,66.778L149.011,66.778L149.547,66.778L150.624,66.778L151.174,66.778L151.744,66.778L152.237,66.778L152.763,66.778L153.841,66.778L154.387,66.778L154.961,66.778L155.454,66.778L155.979,66.778L157.052,66.778L157.597,66.778L158.168,66.778L158.669,66.778L159.193,66.778L160.267,66.778L160.812,66.778L161.382,66.778L161.883,66.778L162.408,66.778L163.482,66.778L164.021,66.778L164.589,66.778L165.091,66.778L165.623,66.778L166.696,66.778L167.235,66.778L167.805,66.778L168.306,66.778L168.839,66.778L169.916,66.778L170.462,66.778L171.036,66.778L171.532,66.778L172.058,66.778L173.131,66.778L173.677,66.778L174.252,66.778L174.747,66.778L175.273,66.778L176.348,66.778L176.895,66.778L177.468,66.778L177.963,66.778L178.489,66.778L179.565,66.778L180.111,66.778L180.685,66.778L181.183,66.778L181.705,66.778L182.779,66.778L183.324,66.778L183.896,66.778L184.393,66.778L184.92,66.778L185.992,66.778L186.53,66.778L187.098,66.778L187.598,66.778L188.132,66.778L189.208,66.778L189.745,66.778L190.314,66.778L190.816,66.778L191.348,66.778L192.43,66.778L192.978,66.778L193.548,66.778L194.042,66.778L194.565,66.778L195.641,66.778L196.186,66.778L196.78,66.778L197.257,66.778L197.784,66.778L198.858,66.778L199.408,66.778L199.999,66.778" stroke="#b279a2" stroke-width="2"/></g></g><path class="foreground" aria-hidden="true" d="" display="none"/></g><g transform="translate(0,0)"><path class="background" aria-hidden="true" d="M0,0h200v200h-200Z"/><g><g class="mark-line role-mark marks" role="graphics-object" aria-roledescription="line mark container"><path aria-label="Time: Aug 27, 2025; Price: 999; identifier: allure-rs-2-2022" role="graphics-symbol" aria-roledescription="line mark" d="M42.051,89L42.412,89L42.77,89L42.911,89L43.437,89L44.511,89L45.056,89L45.629,89L46.126,89L46.651,89L47.727,89L48.27,89L48.841,89L49.34,89L49.865,89L53.054,111.222L53.079,111.222L54.155,111.222L54.499,111.222L54.692,111.222L55.263,111.222L55.765,111.222L56.295,111.222L57.381,111.222L57.922,111.222L58.492,111.222L58.985,111.222L59.51,111.222L60.592,111.222L61.135,111.222L61.71,111.222L62.202,111.222L62.728,111.222L63.803,111.222L64.346,111.222L64.919,111.222L65.416,111.222L65.942,111.222L67.018,111.222L67.563,111.222L68.131,111.222L68.634,111.222L69.157,111.222L70.235,111.222L70.777,111.222L71.348,111.222L71.844,111.222L72.374,111.222L73.447,111.222L73.723,111.222L73.983,111.222L74.551,111.222L75.054,111.222L75.588,111.222L76.661,111.222L77.199,111.222L77.768,111.222L78.27,111.222L78.803,111.222L79.883,111.222L80.429,111.222L81.003,111.222L81.497,111.222L82.023,111.222L83.097,111.222L83.644,111.222L84.237,111.222L84.714,111.222L85.235,111.222L86.308,111.222L86.856,111.222L87.426,111.222L87.925,111.222L88.452,111.222L89.528,111.222L90.07,111.222L90.64,111.222L91.134,111.222L91.665,111.222L92.741,111.222L93.285,111.222L93.854,111.222L94.351,111.222L94.88,111.222L95.954,111.222L96.493,111.222L97.06,111.222L97.561,111.222L98.096,111.222L99.171,111.222L99.708,111.222L100.274,111.222L100.775,111.222L101.312,111.222L102.392,111.222L102.934,111.222L103.509,111.222L104.004,111.222L104.53,111.222L105.605,111.222L106.152,111.222L106.723,111.222L107.218,111.222L107.746,111.222L108.821,111.222L109.365,111.222L109.939,111.222L110.434,111.222L110.961,111.222L112.036,111.222L112.58,111.222L113.154,111.222L113.648,111.222L114.177,111.222L115.252,111.222L115.795,111.222L116.368,111.222L116.865,111.222L117.39,111.222L118.465,111.222L119.005,111.222L119.574,111.222L120.071,111.222L120.605,111.222L121.682,111.222L122.218,111.222L122.788,111.222L123.289,111.222L123.822,111.222L124.899,111.222L125.447,111.222L126.019,111.222L126.507,111.222L127.04,111.222L128.114,111.222L128.66,111.222L129.232,111.222L129.73,111.222L130.255,111.222L131.33,111.222L131.876,111.222L132.448,111.222L132.948,111.222L133.469,111.222L134.546,111.222L135.093,111.222L135.666,111.222L136.162,111.222L136.684,111.222L137.76,111.222L138.307,111.222L138.878,111.222L139.375,111.222L139.9,111.222L140.975,111.222L141.511,111.222L142.081,111.222L142.582,111.222L143.115,111.222L144.191,111.222L144.727,111.222L145.297,111.222L145.795,111.222L146.33,111.222L147.409,111.222L147.957,111.222L148.53,111.222L149.011,111.222L149.548,111.222L150.624,111.222L151.174,111.222L151.745,111.222L152.237,111.222L152.763,111.222L153.841,111.222L154.387,111.222L154.961,111.222L155.454,111.222L155.979,111.222L157.053,111.222L157.597,111.222L158.168,111.222L158.669,111.222L159.193,111.222L160.267,111.222L160.812,111.222L161.382,111.222L161.883,111.222L162.408,111.222L163.482,111.222L164.021,111.222L164.589,111.222L165.091,111.222L165.623,111.222L166.696,111.222L167.235,111.222L167.805,111.222L168.306,111.222L168.839,111.222L169.916,111.222L170.462,111.222L171.036,111.222L171.532,111.222L172.058,111.222L173.131,111.222L173.677,111.222L174.252,111.222L174.747,111.222L175.273,111.222L176.348,111.222L176.895,111.222L177.469,111.222L177.963,111.222L178.489,111.222L179.565,111.222L180.111,111.222L180.685,111.222L181.184,111.222L181.705,111.222L182.779,111.222L183.324,111.222L183.896,111.222L184.393,111.222L184.92,111.222L185.992,111.222L186.53,111.222L187.098,111.222L187.598,111.222L188.132,111.222L189.208,111.222L189.745,111.222L190.314,111.222L190.816,111.222L191.348,111.222L192.43,111.222L192.978,111.222L193.548,111.222L194.042,111.222L194.565,111.222L195.641,111.222L196.186,111.222L196.78,111.222L197.258,111.222L197.784,111.222L198.858,111.222L199.408,111.222L199.999,111.222" stroke="#54a24b" stroke-width="2"/></g></g><path class="foreground" aria-hidden="true" d="" display="none"/></g><g transform="translate(0,0)"><path class="background" aria-hidden="true" d="M0,0h200v200h-200Z"/><g><g class="mark-line role-mark marks" role="graphics-object" aria-roledescription="line mark container"><path aria-label="Time: Aug 27, 2025; Price: 949; identifier: allure-rs-2-2023" role="graphics-symbol" aria-roledescription="line mark" d="M42.051,94.556L42.412,94.556L42.771,94.556L42.911,94.556L43.437,94.556L44.511,94.556L45.056,94.556L45.629,94.556L46.126,94.556L46.651,94.556L47.727,94.556L48.27,94.556L48.841,94.556L49.34,94.556L49.865,94.556L50.939,94.556L51.478,94.556L52.046,94.556L52.548,94.556L53.054,94.556L53.079,94.556L54.156,94.556L54.499,94.556L54.692,94.556L55.264,94.556L55.765,94.556L56.295,94.556L57.381,94.556L57.922,94.556L58.493,94.556L58.985,94.556L59.51,94.556L60.592,94.556L61.135,94.556L61.71,94.556L62.203,94.556L62.728,94.556L63.803,94.556L64.346,94.556L64.919,94.556L65.417,94.556L65.942,94.556L67.018,94.556L67.563,94.556L68.131,94.556L68.634,94.556L69.157,94.556L70.235,94.556L70.777,94.556L71.349,94.556L71.844,94.556L72.374,94.556L73.447,94.556L73.723,94.556L73.984,94.556L74.551,94.556L75.054,94.556L75.588,94.556L76.661,94.556L77.199,94.556L77.768,94.556L78.27,94.556L78.803,94.556L79.883,94.556L80.429,94.556L81.003,94.556L81.497,94.556L82.023,94.556L83.097,94.556L83.644,94.556L84.237,94.556L84.715,94.556L85.235,94.556L86.308,94.556L86.856,94.556L87.426,94.556L87.925,94.556L88.452,94.556L89.528,94.556L90.07,94.556L90.64,94.556L91.134,94.556L91.665,94.556L92.741,94.556L93.285,94.556L93.855,94.556L94.351,94.556L94.88,94.556L95.954,94.556L96.493,94.556L97.06,94.556L97.561,94.556L98.096,94.556L99.171,94.556L99.708,94.556L100.274,94.556L100.775,94.556L101.312,94.556L102.392,94.556L102.934,94.556L103.509,94.556L104.004,94.556L104.53,94.556L105.605,94.556L106.152,94.556L106.723,94.556L107.218,94.556L107.746,94.556L108.821,94.556L109.365,94.556L109.939,94.556L110.435,94.556L110.961,94.556L112.036,94.556L112.58,94.556L113.154,94.556L113.648,94.556L114.177,94.556L115.252,94.556L115.795,94.556L116.368,94.556L116.865,94.556L117.39,94.556L118.465,94.556L119.005,94.556L119.574,94.556L120.071,94.556L120.605,94.556L121.682,94.556L122.218,94.556L122.788,94.556L123.289,94.556L123.822,94.556L124.899,94.556L125.447,94.556L126.019,94.556L126.507,94.556L127.04,94.556L128.114,94.556L128.66,94.556L129.232,94.556L129.73,94.556L130.255,94.556L131.33,94.556L131.876,94.556L132.448,94.556L132.948,94.556L133.469,94.556L134.546,94.556L135.093,94.556L135.666,94.556L136.163,94.556L136.684,94.556L137.76,94.556L138.307,94.556L138.878,94.556L139.375,94.556L139.9,94.556L140.975,94.556L141.511,94.556L142.081,94.556L142.582,94.556L143.115,94.556L144.191,94.556L144.727,94.556L145.297,94.556L145.795,94.556L146.33,94.556L147.41,94.556L147.957,94.556L148.53,94.556L149.011,94.556L149.548,94.556L150.624,94.556L151.174,94.556L151.745,94.556L152.237,94.556L152.764,94.556L153.841,94.556L154.387,94.556L154.961,94.556L155.454,94.556L155.98,94.556L157.053,94.556L157.597,94.556L158.168,94.556L158.669,94.556L159.193,94.556L160.267,94.556L160.812,94.556L161.382,94.556L161.883,94.556L162.408,94.556L163.482,94.556L164.021,94.556L164.589,94.556L165.091,94.556L165.623,94.556L166.696,94.556L167.235,94.556L167.805,94.556L168.306,94.556L168.84,94.556L169.916,94.556L170.462,94.556L171.036,94.556L171.532,94.556L172.058,94.556L173.131,94.556L173.677,94.556L174.252,94.556L174.747,94.556L175.273,94.556L176.348,94.556L176.895,94.556L177.469,94.556L177.963,94.556L178.489,94.556L179.565,94.556L180.111,94.556L180.685,94.556L181.184,94.556L181.705,94.556L182.779,94.556L183.324,94.556L183.896,94.556L184.393,94.556L184.92,94.556L185.992,94.556L186.53,94.556L187.098,94.556L187.598,94.556L188.132,94.556L189.208,94.556L189.746,94.556L190.314,94.556L190.816,94.556L191.348,94.556L192.43,94.556L192.978,94.556L193.548,94.556L194.042,94.556L194.566,94.556L195.641,94.556L196.187,94.556L196.78,94.556L197.258,94.556L197.784,94.556L198.858,94.556L199.408,94.556L199.999,94.556" stroke="#bab0ac" stroke-width="2"/></g></g><path class="foreground" aria-hidden="true" d="" display="none"/></g><g transform="translate(0,0)"><path class="background" aria-hidden="true" d="M0,0h200v200h-200Z"/><g><g class="mark-line role-mark marks" role="graphics-object" aria-roledescription="line mark container"><path aria-label="Time: Aug 27, 2025; Price: 999; identifier: allure-rs-2-2024" role="graphics-symbol" aria-roledescription="line mark" d="M42.051,89L42.412,89L42.771,89L42.911,89L43.437,89L44.511,89L45.056,89L45.629,89L46.126,89L46.651,89L47.727,89L48.27,89L48.841,89L49.34,89L49.865,89L53.054,111.222L53.079,111.222L54.156,111.222L54.499,111.222L54.692,111.222L55.264,111.222L55.765,111.222L56.295,111.222L57.381,111.222L57.922,111.222L58.493,111.222L58.985,111.222L59.51,111.222L60.592,111.222L61.135,111.222L61.71,111.222L62.203,111.222L62.728,111.222L63.803,111.222L64.346,111.222L64.919,111.222L65.417,111.222L65.942,111.222L67.018,111.222L67.563,111.222L68.131,111.222L68.635,111.222L69.157,111.222L70.235,111.222L70.777,111.222L71.349,111.222L71.844,111.222L72.374,111.222L73.447,111.222L73.723,111.222L73.984,111.222L74.551,111.222L75.054,111.222L75.588,111.222L76.661,111.222L77.199,111.222L77.768,111.222L78.27,111.222L78.803,111.222L79.883,111.222L80.43,111.222L81.003,111.222L81.497,111.222L82.024,111.222L83.097,111.222L83.644,111.222L84.237,111.222L84.715,111.222L85.235,111.222L86.308,111.222L86.856,111.222L87.426,111.222L87.925,111.222L88.453,111.222L89.528,111.222L90.071,111.222L90.64,111.222L91.134,111.222L91.665,111.222L92.741,111.222L93.285,111.222L93.855,111.222L94.351,111.222L94.881,111.222L95.954,111.222L96.493,111.222L97.06,111.222L97.561,111.222L98.097,111.222L99.171,111.222L99.708,111.222L100.274,111.222L100.775,111.222L101.312,111.222L102.392,111.222L102.934,111.222L103.509,111.222L104.004,111.222L104.53,111.222L105.605,111.222L106.152,111.222L106.723,111.222L107.218,111.222L107.746,111.222L108.821,111.222L109.365,111.222L109.939,111.222L110.435,111.222L110.961,111.222L112.036,111.222L112.58,111.222L113.154,111.222L113.648,111.222L114.177,111.222L115.252,111.222L115.795,111.222L116.368,111.222L116.866,111.222L117.39,111.222L118.465,111.222L119.005,111.222L119.574,111.222L120.071,111.222L120.605,111.222L121.682,111.222L122.218,111.222L122.788,111.222L123.289,111.222L123.822,111.222L124.899,111.222L125.447,111.222L126.019,111.222L126.507,111.222L127.04,111.222L128.114,111.222L128.66,111.222L129.232,111.222L129.73,111.222L130.256,111.222L131.331,111.222L131.876,111.222L132.448,111.222L132.948,111.222L133.469,111.222L134.546,111.222L135.093,111.222L135.666,111.222L136.163,111.222L136.684,111.222L137.76,111.222L138.307,111.222L138.878,111.222L139.375,111.222L139.9,111.222L140.975,111.222L141.511,111.222L142.081,111.222L142.582,111.222L143.115,111.222L144.191,111.222L144.727,111.222L145.298,111.222L145.795,111.222L146.33,111.222L147.41,111.222L147.957,111.222L148.53,111.222L149.011,111.222L149.548,111.222L150.624,111.222L151.174,111.222L151.745,111.222L152.237,111.222L152.764,111.222L153.841,111.222L154.387,111.222L154.961,111.222L155.454,111.222L155.98,111.222L157.053,111.222L157.597,111.222L158.168,111.222L158.669,111.222L159.193,111.222L160.267,111.222L160.812,111.222L161.382,111.222L161.883,111.222L162.408,111.222L163.482,111.222L164.021,111.222L164.589,111.222L165.091,111.222L165.624,111.222L166.696,111.222L167.235,111.222L167.806,111.222L168.307,111.222L168.84,111.222L169.916,111.222L170.462,111.222L171.036,111.222L171.532,111.222L172.058,111.222L173.131,111.222L173.677,111.222L174.252,111.222L174.747,111.222L175.273,111.222L176.348,111.222L176.895,111.222L177.469,111.222L177.963,111.222L178.489,111.222L179.565,111.222L180.111,111.222L180.685,111.222L181.184,111.222L181.705,111.222L182.779,111.222L183.324,111.222L183.896,111.222L184.393,111.222L184.92,111.222L185.992,111.222L186.53,111.222L187.098,111.222L187.598,111.222L188.133,111.222L189.208,111.222L189.746,111.222L190.314,111.222L190.816,111.222L191.348,111.222L192.43,111.222L192.978,111.222L193.548,111.222L194.043,111.222L194.566,111.222L195.641,111.222L196.187,111.222L196.78,111.222L197.258,111.222L197.784,111.222L198.858,111.222L199.408,111.222L199.999,111.222" stroke="#eeca3b" stroke-width="2"/></g></g><path class="foreground" aria-hidden="true" d="" display="none"/></g><g transform="translate(0,0)"><path class="background" aria-hidden="true" d="M0,0h200v200h-200Z"/><g><g class="mark-line role-mark marks" role="graphics-object" aria-roledescription="line mark container"><path aria-label="Time: Aug 27, 2025; Price: 1799; identifier: devote-1-2024" role="graphics-symbol" aria-roledescription="line mark" d="M42.771,0.111L42.911,0.111L43.437,0.111L44.511,0.111L45.056,0.111L45.629,0.111L46.126,0.111L46.651,0.111L47.727,0.111L48.27,0.111L48.841,0.111L49.34,0.111L49.865,0.111L53.054,44.556L53.079,44.556L54.156,44.556L54.499,44.556L54.692,44.556L55.264,44.556L55.765,44.556L56.295,44.556L57.381,44.556L57.922,44.556L58.493,44.556L58.985,44.556L59.51,44.556L60.592,44.556L61.136,44.556L61.71,44.556L62.203,44.556L62.728,44.556L63.803,44.556L64.346,44.556L64.919,44.556L65.417,44.556L65.943,44.556L67.018,44.556L67.563,44.556L68.131,44.556L68.635,44.556L69.158,44.556L70.235,44.556L70.778,44.556L71.349,44.556L71.844,44.556L72.374,44.556L73.447,44.556L73.723,44.556L73.984,44.556L74.551,44.556L75.054,44.556L75.588,44.556L76.662,44.556L77.199,44.556L77.768,44.556L78.27,44.556L78.803,44.556L79.883,44.556L80.43,44.556L81.003,44.556L81.497,44.556L82.024,44.556L83.097,44.556L83.644,44.556L84.237,44.556L84.715,44.556L85.235,44.556L86.308,44.556L86.856,44.556L87.426,44.556L87.925,44.556L88.453,44.556L89.528,44.556L90.071,44.556L90.64,44.556L91.134,44.556L91.665,44.556L92.741,44.556L93.285,44.556L93.855,44.556L94.351,44.556L94.881,44.556L95.954,44.556L96.493,44.556L97.061,44.556L97.561,44.556L98.097,44.556L99.171,44.556L99.708,44.556L100.274,44.556L100.775,44.556L101.312,44.556L102.392,44.556L102.934,44.556L103.509,44.556L104.005,44.556L104.531,44.556L105.605,44.556L106.152,44.556L106.723,44.556L107.218,44.556L107.746,44.556L108.822,44.556L109.365,44.556L109.939,44.556L110.435,44.556L110.961,44.556L112.037,44.556L112.58,44.556L113.154,44.556L113.648,44.556L114.177,44.556L115.252,44.556L115.795,44.556L116.368,44.556L116.866,44.556L117.39,44.556L118.465,44.556L119.005,44.556L119.574,44.556L120.071,44.556L120.605,44.556L121.682,44.556L122.218,44.556L122.788,44.556L123.29,44.556L123.822,44.556L124.899,44.556L125.447,44.556L126.019,44.556L126.507,44.556L127.04,44.556L128.114,44.556L128.66,44.556L129.232,44.556L129.73,44.556L130.256,44.556L131.331,44.556L131.876,44.556L132.448,44.556L132.948,44.556L133.469,44.556L134.546,44.556L135.093,44.556L135.666,44.556L136.163,44.556L136.684,44.556L137.76,44.556L138.307,44.556L138.878,44.556L139.375,44.556L139.9,44.556L140.975,44.556L141.511,44.556L142.081,44.556L142.582,44.556L143.116,44.556L144.191,44.556L144.727,44.556L145.298,44.556L145.795,44.556L146.33,44.556L147.41,44.556L147.957,44.556L148.53,44.556L149.011,44.556L149.548,44.556L150.624,44.556L151.174,44.556L151.745,44.556L152.237,44.556L152.764,44.556L153.841,44.556L154.387,44.556L154.961,44.556L155.454,44.556L155.98,44.556L157.053,44.556L157.597,44.556L158.168,44.556L158.669,44.556L159.193,44.556L160.267,44.556L160.813,44.556L161.382,44.556L161.883,44.556L162.408,44.556L163.482,44.556L164.021,44.556L164.589,44.556L165.091,44.556L165.624,44.556L166.696,44.556L167.235,44.556L167.806,44.556L168.307,44.556L168.84,44.556L169.916,44.556L170.462,44.556L171.036,44.556L171.532,44.556L172.058,44.556L173.131,44.556L173.677,44.556L174.252,44.556L174.747,44.556L175.273,44.556L176.348,44.556L176.895,44.556L177.469,44.556L177.963,44.556L178.489,44.556L179.565,44.556L180.111,44.556L180.685,44.556L181.184,44.556L181.705,44.556L182.779,44.556L183.324,44.556L183.896,44.556L184.393,44.556L184.92,44.556L185.992,44.556L186.53,44.556L187.098,44.556L187.598,44.556L188.133,44.556L189.208,44.556L189.746,44.556L190.315,44.556L190.816,44.556L191.348,44.556L192.43,44.556L192.978,44.556L193.548,44.556L194.043,44.556L194.566,44.556L195.641,44.556L196.187,44.556L196.78,44.556L197.258,44.556L197.784,44.556L198.858,44.556L199.408,44.556L200,44.556" stroke="#72b7b2" stroke-width="2"/></g></g><path class="foreground" aria-hidden="true" d="" display="none"/></g><g transform="translate(0,0)"><path class="background" aria-hidden="true" d="M0,0h200v200h-200Z"/><g><g class="mark-line role-mark marks" role="graphics-object" aria-roledescription="line mark container"><path aria-label="Time: Aug 27, 2025; Price: 1699; identifier: devote-1-2022" role="graphics-symbol" aria-roledescription="line mark" d="M42.771,11.222L42.911,11.222L43.437,11.222L44.511,11.222L45.057,11.222L45.629,11.222L46.126,11.222L46.652,11.222L47.727,11.222L48.27,11.222L48.841,11.222L49.34,11.222L49.865,11.222L50.939,11.222L51.478,11.222L52.047,11.222L52.548,11.222L53.054,11.222L53.079,11.222L54.156,11.222L54.499,11.222L54.692,11.222L55.264,11.222L55.765,11.222L56.296,11.222L57.382,11.222L57.922,11.222L58.493,11.222L58.985,11.222L59.511,11.222L60.592,11.222L61.136,11.222L61.71,11.222L62.203,11.222L62.728,11.222L63.803,11.222L64.346,11.222L64.919,11.222L65.417,11.222L65.943,11.222L67.018,11.222L67.563,11.222L68.131,11.222L68.635,11.222L69.158,11.222L70.235,11.222L70.778,11.222L71.349,11.222L71.844,11.222L72.374,11.222L73.447,11.222L73.723,11.222L73.984,11.222L74.551,11.222L75.054,11.222L75.588,11.222L76.662,11.222L77.199,11.222L77.768,11.222L78.27,11.222L78.803,11.222L79.883,11.222L80.43,11.222L81.003,11.222L81.497,11.222L82.024,11.222L83.097,11.222L83.644,11.222L84.237,11.222L84.715,11.222L85.236,11.222L86.308,11.222L86.856,11.222L87.426,11.222L87.925,11.222L88.453,11.222L89.528,11.222L90.071,11.222L90.641,11.222L91.134,11.222L91.665,11.222L92.741,11.222L93.285,11.222L93.855,11.222L94.351,11.222L94.881,11.222L95.954,11.222L96.493,11.222L97.061,11.222L97.561,11.222L98.097,11.222L99.171,11.222L99.709,11.222L100.274,11.222L100.775,11.222L101.312,11.222L102.392,11.222L102.934,11.222L103.509,11.222L104.005,11.222L104.531,11.222L105.605,11.222L106.152,11.222L106.724,11.222L107.218,11.222L107.746,11.222L108.822,11.222L109.365,11.222L109.939,11.222L110.435,11.222L110.961,11.222L112.037,11.222L112.58,11.222L113.154,11.222L113.648,11.222L114.177,11.222L115.252,11.222L115.796,11.222L116.368,11.222L116.866,11.222L117.39,11.222L118.466,11.222L119.005,11.222L119.574,11.222L120.071,11.222L120.605,11.222L121.682,11.222L122.218,11.222L122.789,11.222L123.29,11.222L123.822,11.222L124.899,11.222L125.447,11.222L126.019,11.222L126.507,11.222L127.04,11.222L128.114,11.222L128.66,11.222L129.232,11.222L129.73,11.222L130.256,11.222L131.331,11.222L131.877,11.222L132.448,11.222L132.948,11.222L133.469,11.222L134.546,11.222L135.093,11.222L135.667,11.222L136.163,11.222L136.684,11.222L137.76,11.222L138.307,11.222L138.878,11.222L139.375,11.222L139.9,11.222L140.975,11.222L141.512,11.222L142.081,11.222L142.582,11.222L143.116,11.222L144.191,11.222L144.727,11.222L145.298,11.222L145.795,11.222L146.33,11.222L147.41,11.222L147.957,11.222L148.53,11.222L149.011,11.222L149.548,11.222L150.624,11.222L151.174,11.222L151.745,11.222L152.237,11.222L152.764,11.222L153.841,11.222L154.387,11.222L154.961,11.222L155.454,11.222L155.98,11.222L157.053,11.222L157.597,11.222L158.168,11.222L158.669,11.222L159.193,11.222L160.267,11.222L160.813,11.222L161.382,11.222L161.883,11.222L162.408,11.222L163.482,11.222L164.021,11.222L164.589,11.222L165.092,11.222L165.624,11.222L166.696,11.222L167.235,11.222L167.806,11.222L168.307,11.222L168.84,11.222L169.916,11.222L170.462,11.222L171.036,11.222L171.532,11.222L172.058,11.222L173.131,11.222L173.677,11.222L174.252,11.222L174.747,11.222L175.273,11.222L176.348,11.222L176.895,11.222L177.469,11.222L177.963,11.222L178.489,11.222L179.565,11.222L180.111,11.222L180.685,11.222L181.184,11.222L181.705,11.222L182.78,11.222L183.324,11.222L183.896,11.222L184.393,11.222L184.92,11.222L185.992,11.222L186.53,11.222L187.098,11.222L187.598,11.222L188.133,11.222L189.208,11.222L189.746,11.222L190.315,11.222L190.816,11.222L191.348,11.222L192.43,11.222L192.978,11.222L193.548,11.222L194.043,11.222L194.566,11.222L195.641,11.222L196.187,11.222L196.781,11.222L197.258,11.222L197.784,11.222L198.858,11.222L199.408,11.222L200,11.222" stroke="#4c78a8" stroke-width="2"/></g></g><path class="foreground" aria-hidden="true" d="" display="none"/></g><g transform="translate(0,0)"><path class="background" aria-hidden="true" d="M0,0h200v200h-200Z"/><g><g class="mark-line role-mark marks" role="graphics-object" aria-roledescription="line mark container"><path aria-label="Time: Aug 31, 2025; Price: 1599; identifier: silex-400-oak-bork-2026" role="graphics-symbol" aria-roledescription="line mark" d="M54.499,22.333L54.692,22.333L55.264,22.333L55.766,22.333L56.296,22.333L57.382,22.333L57.922,22.333L58.493,22.333L58.985,22.333L59.511,22.333L60.592,22.333L61.136,22.333L61.711,22.333L62.203,22.333L62.728,22.333L63.803,22.333L64.346,22.333L64.919,22.333L65.417,22.333L65.943,22.333L67.018,22.333L67.563,22.333L68.132,22.333L68.635,22.333L69.158,22.333L70.235,22.333L70.778,22.333L71.349,22.333L71.844,22.333L72.374,22.333L73.447,22.333L73.723,22.333L73.984,22.333L74.551,22.333L75.054,22.333L75.588,22.333L76.662,22.333L77.199,22.333L77.769,22.333L78.27,22.333L78.803,22.333L79.883,22.333L80.43,22.333L81.003,22.333L81.497,22.333L82.024,22.333L83.097,22.333L83.644,22.333L84.237,22.333L84.715,22.333L85.236,22.333L86.308,22.333L86.857,22.333L87.427,22.333L87.925,22.333L88.453,22.333L89.528,22.333L90.071,22.333L90.641,22.333L91.135,22.333L91.666,22.333L92.741,22.333L93.285,22.333L93.855,22.333L94.352,22.333L94.881,22.333L95.955,22.333L96.493,22.333L97.061,22.333L97.561,22.333L98.097,22.333L99.171,22.333L99.709,22.333L100.274,22.333L100.776,22.333L101.312,22.333L102.392,22.333L102.934,22.333L103.509,22.333L104.005,22.333L104.531,22.333L105.605,22.333L106.153,22.333L106.724,22.333L107.219,22.333L107.746,22.333L108.822,22.333L109.365,22.333L109.939,22.333L110.435,22.333L110.961,22.333L112.037,22.333L112.58,22.333L113.154,22.333L113.649,22.333L114.177,22.333L115.252,22.333L115.796,22.333L116.368,22.333L116.866,22.333L117.391,22.333L118.466,22.333L119.005,22.333L119.574,22.333L120.071,22.333L120.605,22.333L121.682,22.333L122.218,22.333L122.789,22.333L123.29,22.333L123.822,22.333L124.9,22.333L125.447,22.333L126.019,22.333L126.507,22.333L127.041,22.333L128.114,22.333L128.66,22.333L129.232,22.333L129.731,22.333L130.256,22.333L131.331,22.333L131.877,22.333L132.449,22.333L132.948,22.333L133.469,22.333L134.547,22.333L135.093,22.333L135.667,22.333L136.163,22.333L136.684,22.333L137.761,22.333L138.307,22.333L138.878,22.333L139.375,22.333L139.9,22.333L140.976,22.333L141.512,22.333L142.081,22.333L142.582,22.333L143.116,22.333L144.191,22.333L144.728,22.333L145.298,22.333L145.795,22.333L146.33,22.333L147.41,22.333L147.957,22.333L148.53,22.333L149.011,22.333L149.548,22.333L150.624,22.333L151.174,22.333L151.745,22.333L152.238,22.333L152.764,22.333L153.842,22.333L154.387,22.333L154.961,22.333L155.455,22.333L155.98,22.333L157.053,22.333L157.597,22.333L158.168,22.333L158.669,22.333L159.194,22.333L160.268,22.333L160.813,22.333L161.382,22.333L161.883,22.333L162.409,22.333L163.482,22.333L164.022,22.333L164.589,22.333L165.092,22.333L165.624,22.333L166.696,22.333L167.235,22.333L167.806,22.333L168.307,22.333L168.84,22.333L169.916,22.333L170.463,22.333L171.036,22.333L171.532,22.333L172.058,22.333L173.131,22.333L173.677,22.333L174.252,22.333L174.748,22.333L175.273,22.333L176.349,22.333L176.895,22.333L177.469,22.333L177.963,22.333L178.489,22.333L179.566,22.333L180.111,22.333L180.685,22.333L181.184,22.333L181.705,22.333L182.78,22.333L183.324,22.333L183.896,22.333L184.393,22.333L184.92,22.333L185.992,22.333L186.53,22.333L187.098,22.333L187.598,22.333L188.133,22.333L189.208,22.333L189.746,22.333L190.315,22.333L190.817,22.333L191.348,22.333L192.43,22.333L192.978,22.333L193.548,22.333L194.043,22.333L194.566,22.333L195.642,22.333L196.187,22.333L196.781,22.333L197.258,22.333L197.784,22.333L198.859,22.333L199.409,22.333L200,22.333" stroke="#f58518" stroke-width="2"/></g></g><path class="foreground" aria-hidden="true" d="" display="none"/></g><g transform="translate(0,0)"><path class="background" aria-hidden="true" d="M0,0h200v200h-200Z"/><g><g class="mark-line role-mark marks" role="graphics-object" aria-roledescription="line mark container"><path aria-label="Time: Aug 31, 2025; Price: 1599; identifier: silex-400-warm-slate-grey-2026" role="graphics-symbol" aria-roledescription="line mark" d="M54.499,22.333L54.692,22.333L55.264,22.333L55.766,22.333L56.296,22.333L57.382,22.333L57.922,22.333L58.493,22.333L58.986,22.333L59.511,22.333L60.592,22.333L61.136,22.333L61.711,22.333L62.203,22.333L62.729,22.333L63.804,22.333L64.346,22.333L64.919,22.333L65.417,22.333L65.943,22.333L67.018,22.333L67.563,22.333L68.132,22.333L68.635,22.333L69.158,22.333L70.235,22.333L70.778,22.333L71.349,22.333L71.844,22.333L72.374,22.333L73.447,22.333L73.723,22.333L73.984,22.333L74.551,22.333L75.054,22.333L75.588,22.333L76.662,22.333L77.199,22.333L77.769,22.333L78.27,22.333L78.804,22.333L79.883,22.333L80.43,22.333L81.003,22.333L81.497,22.333L82.024,22.333L83.097,22.333L83.644,22.333L84.237,22.333L84.715,22.333L85.236,22.333L86.308,22.333L86.857,22.333L87.427,22.333L87.926,22.333L88.453,22.333L89.528,22.333L90.071,22.333L90.641,22.333L91.135,22.333L91.666,22.333L92.741,22.333L93.286,22.333L93.855,22.333L94.352,22.333L94.881,22.333L95.955,22.333L96.493,22.333L97.061,22.333L97.561,22.333L98.097,22.333L99.172,22.333L99.709,22.333L100.274,22.333L100.776,22.333L101.313,22.333L102.392,22.333L102.934,22.333L103.509,22.333L104.005,22.333L104.532,22.333L105.605,22.333L106.153,22.333L106.724,22.333L107.219,22.333L107.746,22.333L108.822,22.333L109.365,22.333L109.94,22.333L110.435,22.333L110.961,22.333L112.037,22.333L112.58,22.333L113.154,22.333L113.649,22.333L114.177,22.333L115.253,22.333L115.796,22.333L116.368,22.333L116.866,22.333L117.391,22.333L118.466,22.333L119.006,22.333L119.574,22.333L120.072,22.333L120.605,22.333L121.682,22.333L122.219,22.333L122.789,22.333L123.29,22.333L123.822,22.333L124.9,22.333L125.447,22.333L126.019,22.333L126.508,22.333L127.041,22.333L128.114,22.333L128.66,22.333L129.232,22.333L129.731,22.333L130.256,22.333L131.331,22.333L131.877,22.333L132.45,22.333L132.948,22.333L133.469,22.333L134.547,22.333L135.094,22.333L135.667,22.333L136.163,22.333L136.684,22.333L137.761,22.333L138.307,22.333L138.879,22.333L139.375,22.333L139.9,22.333L140.976,22.333L141.512,22.333L142.081,22.333L142.582,22.333L143.116,22.333L144.191,22.333L144.728,22.333L145.298,22.333L145.795,22.333L146.331,22.333L147.41,22.333L147.957,22.333L148.53,22.333L149.011,22.333L149.548,22.333L150.624,22.333L151.174,22.333L151.745,22.333L152.238,22.333L152.764,22.333L153.842,22.333L154.387,22.333L154.961,22.333L155.455,22.333L155.98,22.333L157.053,22.333L157.597,22.333L158.168,22.333L158.669,22.333L159.194,22.333L160.268,22.333L160.813,22.333L161.383,22.333L161.883,22.333L162.409,22.333L163.482,22.333L164.022,22.333L164.589,22.333L165.092,22.333L165.624,22.333L166.696,22.333L167.235,22.333L167.806,22.333L168.307,22.333L168.84,22.333L169.917,22.333L170.463,22.333L171.036,22.333L171.532,22.333L172.059,22.333L173.132,22.333L173.677,22.333L174.252,22.333L174.748,22.333L175.273,22.333L176.349,22.333L176.896,22.333L177.469,22.333L177.964,22.333L178.489,22.333L179.566,22.333L180.112,22.333L180.686,22.333L181.184,22.333L181.705,22.333L182.78,22.333L183.324,22.333L183.896,22.333L184.393,22.333L184.921,22.333L185.993,22.333L186.53,22.333L187.099,22.333L187.598,22.333L188.133,22.333L189.208,22.333L189.746,22.333L190.315,22.333L190.817,22.333L191.349,22.333L192.431,22.333L192.978,22.333L193.548,22.333L194.043,22.333L194.566,22.333L195.642,22.333L196.187,22.333L196.781,22.333L197.258,22.333L197.784,22.333L198.859,22.333L199.409,22.333L200,22.333" stroke="#e45756" stroke-width="2"/></g></g><path class="foreground" aria-hidden="true" d="" display="none"/></g></g><g class="mark-group role-legend" role="graphics-symbol" aria-roledescription="legend" aria-label="Symbol legend titled 'identifier' for stroke color with 16 values: devote-1-2022, silex-400-oak-bork-2026, silex-400-warm-slate-grey-2026, devote-1-2024, fastroad-ar-2, ending with allure-rs-2-2024"><g transform="translate(220,0)"><path class="background" aria-hidden="true" d="M0,0h256v222h-256Z" pointer-events="none"/><g><g class="mark-group role-legend-entry"><g transform="translate(0,16)"><path class="background" aria-hidden="true" d="M0,0h0v0h0Z" pointer-events="none"/><g><g class="mark-group role-scope" role="graphics-object" aria-roledescription="group mark container"><g transform="translate(0,0)"><path class="background" aria-hidden="true" d="M0,0h256v11h-256Z" pointer-events="none" opacity="1"/><g><g class="mark-symbol role-legend-symbol" pointer-events="none"><path transform="translate(6,6)" d="M-5,0L5,0" stroke="#4c78a8" stroke-width="1.5" opacity="1"/></g><g class="mark-text role-legend-label" pointer-events="none"><text text-anchor="start" transform="translate(16,9)" font-family="Liberation Mono" font-size="10px" fill="#000" opacity="1">devote-1-2022</text></g></g><path class="foreground" aria-hidden="true" d="" pointer-events="none" display="none"/></g><g transform="translate(0,13)"><path class="background" aria-hidden="true" d="M0,0h256v11h-256Z" pointer-events="none" opacity="1"/><g><g class="mark-symbol role-legend-symbol" pointer-events="none"><path transform="translate(6,6)" d="M-5,0L5,0" stroke="#f58518" stroke-width="1.5" opacity="1"/></g><g class="mark-text role-legend-label" pointer-events="none"><text text-anchor="start" transform="translate(16,9)" font-family="Liberation Mono" font-size="10px" fill="#000" opacity="1">silex-400-oak-bork-2026</text></g></g><path class="foreground" aria-hidden="true" d="" pointer-events="none" display="none"/></g><g transform="translate(0,26)"><path class="background" aria-hidden="true" d="M0,0h256v11h-256Z" pointer-events="none" opacity="1"/><g><g class="mark-symbol role-legend-symbol" pointer-events="none"><path transform="translate(6,6)" d="M-5,0L5,0" stroke="#e45756" stroke-width="1.5" opacity="1"/></g><g class="mark-text role-legend-label" pointer-events="none"><text text-anchor="start" transform="translate(16,9)" font-family="Liberation Mono" font-size="10px" fill="#000" opacity="1">silex-400-warm-slate-grey-2026</text></g></g><path class="foreground" aria-hidden="true" d="" pointer-events="none" display="none"/></g><g transform="translate(0,39)"><path class="background" aria-hidden="true" d="M0,0h256v11h-256Z" pointer-events="none" opacity="1"/><g><g class="mark-symbol role-legend-symbol" pointer-events="none"><path transform="translate(6,6)" d="M-5,0L5,0" stroke="#72b7b2" stroke-width="1.5" opacity="1"/></g><g class="mark-text role-legend-label" pointer-events="none"><text text-anchor="start" transform="translate(16,9)" font-family="Liberation Mono" font-size="10px" fill="#000" opacity="1">devote-1-2024</text></g></g><path class="foreground" aria-hidden="true" d="" pointer-events="none" display="none"/></g><g transform="translate(0,52)"><path class="background" aria-hidden="true" d="M0,0h256v11h-256Z" pointer-events="none" opacity="1"/><g><g class="mark-symbol role-legend-symbol" pointer-events="none"><path transform="translate(6,6)" d="M-5,0L5,0" stroke="#54a24b" stroke-width="1.5" opacity="1"/></g><g class="mark-text role-legend-label" pointer-events="none"><text text-anchor="start" transform="translate(16,9)" font-family="Liberation Mono" font-size="10px" fill="#000" opacity="1">fastroad-ar-2</text></g></g><path class="foreground" aria-hidden="true" d="" pointer-events="none" display="none"/></g><g transform="translate(0,65)"><path class="background" aria-hidden="true" d="M0,0h256v11h-256Z" pointer-events="none" opacity="1"/><g><g class="mark-symbol role-legend-symbol" pointer-events="none"><path transform="translate(6,6)" d="M-5,0L5,0" stroke="#eeca3b" stroke-width="1.5" opacity="1"/></g><g class="mark-text role-legend-label" pointer-events="none"><text text-anchor="start" transform="translate(16,9)" font-family="Liberation Mono" font-size="10px" fill="#000" opacity="1">thrive-2</text></g></g><path class="foreground" aria-hidden="true" d="" pointer-events="none" display="none"/></g><g transform="translate(0,78)"><path class="background" aria-hidden="true" d="M0,0h256v11h-256Z" pointer-events="none" opacity="1"/><g><g class="mark-symbol role-legend-symbol" pointer-events="none"><path transform="translate(6,6)" d="M-5,0L5,0" stroke="#b279a2" stroke-width="1.5" opacity="1"/></g><g class="mark-text role-legend-label" pointer-events="none"><text text-anchor="start" transform="translate(16,9)" font-family="Liberation Mono" font-size="10px" fill="#000" opacity="1">allure-rs-1-2023</text></g></g><path class="foreground" aria-hidden="true" d="" pointer-events="none" display="none"/></g><g transform="translate(0,91)"><path class="background" aria-hidden="true" d="M0,0h256v11h-256Z" pointer-events="none" opacity="1"/><g><g class="mark-symbol role-legend-symbol" pointer-events="none"><path transform="translate(6,6)" d="M-5,0L5,0" stroke="#ff9da6" stroke-width="1.5" opacity="1"/></g><g class="mark-text role-legend-label" pointer-events="none"><text text-anchor="start" transform="translate(16,9)" font-family="Liberation Mono" font-size="10px" fill="#000" opacity="1">roam-2</text></g></g><path class="foreground" aria-hidden="true" d="" pointer-events="none" display="none"/></g><g transform="translate(0,104)"><path class="background" aria-hidden="true" d="M0,0h256v11h-256Z" pointer-events="none" opacity="1"/><g><g class="mark-symbol role-legend-symbol" pointer-events="none"><path transform="translate(6,6)" d="M-5,0L5,0" stroke="#9d755d" stroke-width="1.5" opacity="1"/></g><g class="mark-text role-legend-label" pointer-events="none"><text text-anchor="start" transform="translate(16,9)" font-family="Liberation Mono" font-size="10px" fill="#000" opacity="1">fastroad-sl-3-2022</text></g></g><path class="foreground" aria-hidden="true" d="" pointer-events="none" display="none"/></g><g transform="translate(0,117)"><path class="background" aria-hidden="true" d="M0,0h256v11h-256Z" pointer-events="none" opacity="1"/><g><g class="mark-symbol role-legend-symbol" pointer-events="none"><path transform="translate(6,6)" d="M-5,0L5,0" stroke="#bab0ac" stroke-width="1.5" opacity="1"/></g><g class="mark-text role-legend-label" pointer-events="none"><text text-anchor="start" transform="translate(16,9)" font-family="Liberation Mono" font-size="10px" fill="#000" opacity="1">allure-rs-2-2023</text></g></g><path class="foreground" aria-hidden="true" d="" pointer-events="none" display="none"/></g><g transform="translate(0,130)"><path class="background" aria-hidden="true" d="M0,0h256v11h-256Z" pointer-events="none" opacity="1"/><g><g class="mark-symbol role-legend-symbol" pointer-events="none"><path transform="translate(6,6)" d="M-5,0L5,0" stroke="#4c78a8" stroke-width="1.5" opacity="1"/></g><g class="mark-text role-legend-label" pointer-events="none"><text text-anchor="start" transform="translate(16,9)" font-family="Liberation Mono" font-size="10px" fill="#000" opacity="1">escape-city-disc-1-2024</text></g></g><path class="foreground" aria-hidden="true" d="" pointer-events="none" display="none"/></g><g transform="translate(0,143)"><path class="background" aria-hidden="true" d="M0,0h256v11h-256Z" pointer-events="none" opacity="1"/><g><g class="mark-symbol role-legend-symbol" pointer-events="none"><path transform="translate(6,6)" d="M-5,0L5,0" stroke="#f58518" stroke-width="1.5" opacity="1"/></g><g class="mark-text role-legend-label" pointer-events="none"><text text-anchor="start" transform="translate(16,9)" font-family="Liberation Mono" font-size="10px" fill="#000" opacity="1">sdrbike-escape-1-city-disc</text></g></g><path class="foreground" aria-hidden="true" d="" pointer-events="none" display="none"/></g><g transform="translate(0,156)"><path class="background" aria-hidden="true" d="M0,0h256v11h-256Z" pointer-events="none" opacity="1"/><g><g class="mark-symbol role-legend-symbol" pointer-events="none"><path transform="translate(6,6)" d="M-5,0L5,0" stroke="#e45756" stroke-width="1.5" opacity="1"/></g><g class="mark-text role-legend-label" pointer-events="none"><text text-anchor="start" transform="translate(16,9)" font-family="Liberation Mono" font-size="10px" fill="#000" opacity="1">roam-disc-2-2024</text></g></g><path class="foreground" aria-hidden="true" d="" pointer-events="none" display="none"/></g><g transform="translate(0,169)"><path class="background" aria-hidden="true" d="M0,0h256v11h-256Z" pointer-events="none" opacity="1"/><g><g class="mark-symbol role-legend-symbol" pointer-events="none"><path transform="translate(6,6)" d="M-5,0L5,0" stroke="#72b7b2" stroke-width="1.5" opacity="1"/></g><g class="mark-text role-legend-label" pointer-events="none"><text text-anchor="start" transform="translate(16,9)" font-family="Liberation Mono" font-size="10px" fill="#000" opacity="1">rove-2</text></g></g><path class="foreground" aria-hidden="true" d="" pointer-events="none" display="none"/></g><g transform="translate(0,182)"><path class="background" aria-hidden="true" d="M0,0h256v11h-256Z" pointer-events="none" opacity="1"/><g><g class="mark-symbol role-legend-symbol" pointer-events="none"><path transform="translate(6,6)" d="M-5,0L5,0" stroke="#54a24b" stroke-width="1.5" opacity="1"/></g><g class="mark-text role-legend-label" pointer-events="none"><text text-anchor="start" transform="translate(16,9)" font-family="Liberation Mono" font-size="10px" fill="#000" opacity="1">allure-rs-2-2022</text></g></g><path class="foreground" aria-hidden="true" d="" pointer-events="none" display="none"/></g><g transform="translate(0,195)"><path class="background" aria-hidden="true" d="M0,0h256v11h-256Z" pointer-events="none" opacity="1"/><g><g class="mark-symbol role-legend-symbol" pointer-events="none"><path transform="translate(6,6)" d="M-5,0L5,0" stroke="#eeca3b" stroke-width="1.5" opacity="1"/></g><g class="mark-text role-legend-label" pointer-events="none"><text text-anchor="start" transform="translate(16,9)" font-family="Liberation Mono" font-size="10px" fill="#000" opacity="1">allure-rs-2-2024</text></g></g><path class="foreground" aria-hidden="true" d="" pointer-events="none" display="none"/></g></g></g><path class="foreground" aria-hidden="true" d="" pointer-events="none" display="none"/></g></g><g class="mark-text role-legend-title" pointer-events="none"><text text-anchor="start" transform="translate(0,9)" font-family="Liberation Mono" font-size="11px" font-weight="bold" fill="#000" opacity="1">identifier</text></g></g><path class="foreground" aria-hidden="true" d="" pointer-events="none" display="none"/></g></g></g><path class="foreground" aria-hidden="true" d="" display="none"/></g></g></g></svg>