<svg xmlns="http://www.w3.org/2000/svg" xmlns:xlink="http://www.w3.org/1999/xlink" version="1.1" class="marks" width="548" height="244" viewBox="0 0 548 244"><rect width="548" height="244" fill="white"/><g fill="none" stroke-miterlimit="10" transform="translate(67,7)"><g class="mark-group role-frame root" role="graphics-object" aria-roledescription="group mark container"><g transform="translate(0,0)"><path class="background" aria-hidden="true" d="M0.5,0.5h200v200h-200Z" stroke="#ddd"/><g><g class="mark-group role-axis" aria-hidden="true"><g transform="translate(0.5,200.5)"><path class="background" aria-hidden="true" d="M0,0h0v0h0Z" pointer-events="none"/><g><g class="mark-rule role-axis-grid" pointer-events="none"><line transform="translate(8,-200)" x2="0" y2="200" stroke="#ddd" stroke-width="1" opacity="1"/><line transform="translate(29,-200)" x2="0" y2="200" stroke="#ddd" stroke-width="1" opacity="1"/><line transform="translate(50,-200)" x2="0" y2="200" stroke="#ddd" stroke-width="1" opacity="1"/><line transform="translate(72,-200)" x2="0" y2="200" stroke="#ddd" stroke-width="1" opacity="1"/><line transform="translate(93,-200)" x2="0" y2="200" stroke="#ddd" stroke-width="1" opacity="1"/><line transform="translate(114,-200)" x2="0" y2="200" stroke="#ddd" stroke-width="1" opacity="1"/><line transform="translate(135,-200)" x2="0" y2="200" stroke="#ddd" stroke-width="1" opacity="1"/><line transform="translate(156,-200)" x2="0" y2="200" stroke="#ddd" stroke-width="1" opacity="1"/><line transform="translate(178,-200)" x2="0" y2="200" stroke="#ddd" stroke-width="1" opacity="1"/><line transform="translate(199,-200)" x2="0" y2="200" stroke="#ddd" stroke-width="1" opacity="1"/></g></g><path class="foreground" aria-hidden="true" d="" pointer-events="none" display="none"/></g></g><g class="mark-group role-axis" aria-hidden="true"><g transform="translate(0.5,0.5)"><path class="background" aria-hidden="true" d="M0,0h0v0h0Z" pointer-events="none"/><g><g class="mark-rule role-axis-grid" pointer-events="none"><line transform="translate(0,200)" x2="200" y2="0" stroke="#ddd" stroke-width="1" opacity="1"/><line transform="translate(0,144)" x2="200" y2="0" stroke="#ddd" stroke-width="1" opacity="1"/><line transform="translate(0,89)" x2="200" y2="0" stroke="#ddd" stroke-width="1" opacity="1"/><line transform="translate(0,33)" x2="200" y2="0" stroke="#ddd" stroke-width="1" opacity="1"/></g></g><path class="foreground" aria-hidden="true" d="" pointer-events="none" display="none"/></g></g><g class="mark-group role-axis" role="graphics-symbol" aria-roledescription="axis" aria-label="X-axis titled 'Time' for a time scale with values from Thursday, 14 August 2025, 8:34:48 AM to Sunday, 19 October 2025, 8:47:08 AM"><g transform="translate(0.5,200.5)"><path class="background" aria-hidden="true" d="M0,0h0v0h0Z" pointer-events="none"/><g><g class="mark-rule role-axis-tick" pointer-events="none"><line transform="translate(8,0)" x2="0" y2="5" stroke="#888" stroke-width="1" opacity="1"/><line transform="translate(29,0)" x2="0" y2="5" stroke="#888" stroke-width="1" opacity="1"/><line transform="translate(50,0)" x2="0" y2="5" stroke="#888" stroke-width="1" opacity="1"/><line transform="translate(72,0)" x2="0" y2="5" stroke="#888" stroke-width="1" opacity="1"/><line transform="translate(93,0)" x2="0" y2="5" stroke="#888" stroke-width="1" opacity="1"/><line transform="translate(114,0)" x2="0" y2="5" stroke="#888" stroke-width="1" opacity="1"/><line transform="translate(135,0)" x2="0" y2="5" stroke="#888" stroke-width="1" opacity="1"/><line transform="translate(156,0)" x2="0" y2="5" stroke="#888" stroke-width="1" opacity="1"/><line transform="translate(178,0)" x2="0" y2="5" stroke="#888" stroke-width="1" opacity="1"/><line transform="translate(199,0)" x2="0" y2="5" stroke="#888" stroke-width="1" opacity="1"/></g><g class="mark-text role-axis-label" pointer-events="none"><text text-anchor="middle" transform="translate(8.006511062267316,15)" font-family="Liberation Mono" font-size="10px" fill="#000" opacity="1">Aug 17</text><text text-anchor="middle" transform="translate(29.215882026274244,15)" font-family="Liberation Mono" font-size="10px" fill="#000" opacity="0">Aug 24</text><text text-anchor="middle" transform="translate(50.42525299028118,15)" font-family="Liberation Mono" font-size="10px" fill="#000" opacity="0">Aug 31</text><text text-anchor="middle" transform="translate(71.6346239542881,15)" font-family="Liberation Mono" font-size="10px" fill="#000" opacity="0">Sep 07</text><text text-anchor="middle" transform="translate(92.84399491829504,15)" font-family="Liberation Mono" font-size="10px" fill="#000" opacity="1">Sep 14</text><text text-anchor="middle" transform="translate(114.05336588230197,15)" font-family="Liberation Mono" font-size="10px" fill="#000" opacity="0">Sep 21</text><text text-anchor="middle" transform="translate(135.26273684630888,15)" font-family="Liberation Mono" font-size="10px" fill="#000" opacity="0">Sep 28</text><text text-anchor="middle" transform="translate(156.47210781031583,15)" font-family="Liberation Mono" font-size="10px" fill="#000" opacity="0">Oct 05</text><text text-anchor="middle" transform="translate(177.68147877432276,15)" font-family="Liberation Mono" font-size="10px" fill="#000" opacity="1">Oct 12</text><text text-anchor="middle" transform="translate(198.89084973832968,15)" font-family="Liberation Mono" font-size="10px" fill="#000" opacity="0">Oct 19</text></g><g class="mark-rule role-axis-domain" pointer-events="none"><line transform="translate(0,0)" x2="200" y2="0" stroke="#888" stroke-width="1" opacity="1"/></g><g class="mark-text role-axis-title" pointer-events="none"><text text-anchor="middle" transform="translate(100,30)" font-family="Liberation Mono" font-size="11px" font-weight="bold" fill="#000" opacity="1">Time</text></g></g><path class="foreground" aria-hidden="true" d="" pointer-events="none" display="none"/></g></g><g class="mark-group role-axis" role="graphics-symbol" aria-roledescription="axis" aria-label="Y-axis titled 'Price' for a linear scale with values from 0 to 1,800"><g transform="translate(0.5,0.5)"><path class="background" aria-hidden="true" d="M0,0h0v0h0Z" pointer-events="none"/><g><g class="mark-rule role-axis-tick" pointer-events="none"><line transform="translate(0,200)" x2="-5" y2="0" stroke="#888" stroke-width="1" opacity="1"/><line transform="translate(0,144)" x2="-5" y2="0" stroke="#888" stroke-width="1" opacity="1"/><line transform="translate(0,89)" x2="-5" y2="0" stroke="#888" stroke-width="1" opacity="1"/><line transform="translate(0,33)" x2="-5" y2="0" stroke="#888" stroke-width="1" opacity="1"/></g><g class="mark-text role-axis-label" pointer-events="none"><text text-anchor="end" transform="translate(-7,203)" font-family="Liberation Mono" font-size="10px" fill="#000" opacity="1">0</text><text text-anchor="end" transform="translate(-7,147.44444444444443)" font-family="Liberation Mono" font-size="10px" fill="#000" opacity="1">500</text><text text-anchor="end" transform="translate(-7,91.88888888888889)" font-family="Liberation Mono" font-size="10px" fill="#000" opacity="1">1,000</text><text text-anchor="end" transform="translate(-7,36.33333333333333)" font-family="Liberation Mono" font-size="10px" fill="#000" opacity="1">1,500</text></g><g class="mark-rule role-axis-domain" pointer-events="none"><line transform="translate(0,200)" x2="0" y2="-200" stroke="#888" stroke-width="1" opacity="1"/></g><g class="mark-text role-axis-title" pointer-events="none"><text text-anchor="middle" transform="translate(-51,100) rotate(-90) translate(0,-2)" font-family="Liberation Mono" font-size="11px" font-weight="bold" fill="#000" opacity="1">Price</text></g></g><path class="foreground" aria-hidden="true" d="" pointer-events="none" display="none"/></g></g><g class="mark-group role-scope pathgroup" role="graphics-object" aria-roledescription="group mark container"><g transform="translate(0,0)"><path class="background" aria-hidden="true" d="M0,0h200v200h-200Z"/><g><g class="mark-line role-mark marks" role="graphics-object" aria-roledescription="line mark container"><path aria-label="Time: Aug 14, 2025; Price: 899; identifier: escape-city-disc-1-2024" role="graphics-symbol" aria-roledescription="line mark" d="M0,100.111L0.025,100.111L0.045,100.111L0.604,100.111L1.048,100.111L1.546,100.111L2.568,100.111L3.069,100.111L3.624,100.111L4.078,100.111L4.574,100.111L5.588,100.111L6.095,100.111L6.633,100.111L7.102,100.111L7.599,100.111L8.629,100.111L9.124,100.111L9.665,100.111L10.134,100.111L10.633,100.111L11.668,100.111L12.165,100.111L12.724,100.111L12.919,100.111L13.174,100.111L13.66,100.111L14.675,100.111L15.188,100.111L15.726,100.111L16.196,100.111L16.688,100.111L17.706,100.111L18.214,100.111L18.774,100.111L19,100.111L19.225,100.111L19.722,100.111L20.734,100.111L21.246,100.111L21.786,100.111L22.256,100.111L22.75,100.111L23.764,100.111L24.275,100.111L24.815,100.111L25.283,100.111L25.778,100.111L26.792,100.111L27.3,100.111L27.836,100.111L28.305,100.111L28.805,100.111L29.826,100.111L30.328,100.111L30.867,100.111L31.339,100.111L31.836,100.111L32.86,100.111L33.371,100.111L33.924,100.111L34.376,100.111L34.87,100.111L35.885,100.111L36.399,100.111L37.403,100.111L37.896,100.111L38.911,100.111L39.423,100.111L39.622,100.111L39.963,100.111L40.301,100.111L40.433,100.111L40.928,100.111L41.94,100.111L42.454,100.111L42.994,100.111L43.462,100.111L43.957,100.111L44.97,100.111L45.482,100.111L46.02,100.111L46.491,100.111L46.985,100.111L47.997,100.111L48.505,100.111L49.041,100.111L49.513,100.111L49.99,100.111L50.013,100.111L51.028,100.111L51.352,100.111L51.533,100.111L52.072,100.111L52.545,100.111L53.044,100.111L54.068,100.111L54.577,100.111L55.115,100.111L55.579,100.111L56.074,100.111L57.093,100.111L57.605,100.111L58.146,100.111L58.611,100.111L59.106,100.111L60.119,100.111L60.63,100.111L61.17,100.111L61.639,100.111L62.135,100.111L63.148,100.111L63.661,100.111L64.197,100.111L64.671,100.111L65.164,100.111L66.179,100.111L66.69,100.111L67.228,100.111L67.695,100.111L68.195,100.111L69.206,100.111L69.466,100.111L69.711,100.111L70.246,100.111L70.72,100.111L71.223,100.111L72.235,100.111L72.741,100.111L73.277,100.111L73.75,100.111L74.253,100.111L75.269,100.111L75.785,100.111L76.325,100.111L76.791,100.111L77.287,100.111L78.298,100.111L78.814,100.111L79.372,100.111L79.823,100.111L80.313,100.111L81.324,100.111L81.841,100.111L82.378,100.111L82.848,100.111L83.345,100.111L84.358,100.111L84.869,100.111L85.406,100.111L85.872,100.111L86.372,100.111L87.385,100.111L87.898,100.111L88.435,100.111L88.903,100.111L89.402,100.111L90.414,100.111L90.921,100.111L91.456,100.111L91.927,100.111L92.432,100.111L93.444,100.111L93.951,100.111L94.483,100.111L94.956,100.111L95.462,100.111L96.479,100.111L96.99,100.111L97.531,100.111L97.998,100.111L98.493,100.111L99.507,100.111L100.023,100.111L100.561,100.111L101.027,100.111L101.524,100.111L102.538,100.111L103.05,100.111L103.591,100.111L104.058,100.111L104.553,100.111L105.567,100.111L106.079,100.111L106.62,100.111L107.086,100.111L107.584,100.111L108.597,100.111L109.109,100.111L109.649,100.111L110.117,100.111L110.612,100.111L111.625,100.111L112.133,100.111L112.669,100.111L113.138,100.111L113.641,100.111L114.656,100.111L115.161,100.111L115.698,100.111L116.17,100.111L116.672,100.111L117.687,100.111L118.203,100.111L118.742,100.111L119.202,100.111L119.705,100.111L120.716,100.111L121.231,100.111L121.77,100.111L122.239,100.111L122.734,100.111L123.747,100.111L124.262,100.111L124.8,100.111L125.271,100.111L125.762,100.111L126.777,100.111L127.292,100.111L127.833,100.111L128.3,100.111L128.791,100.111L129.806,100.111L130.321,100.111L130.859,100.111L131.327,100.111L131.822,100.111L132.835,100.111L133.34,100.111L133.877,100.111L134.349,100.111L134.852,100.111L135.865,100.111L136.37,100.111L136.908,100.111L137.377,100.111L137.881,100.111L138.898,100.111L139.414,100.111L139.953,100.111L140.407,100.111L140.912,100.111L141.927,100.111L142.445,100.111L142.983,100.111L143.447,100.111L143.943,100.111L144.958,100.111L145.472,100.111L146.013,100.111L146.478,100.111L146.973,100.111L147.984,100.111L148.497,100.111L149.035,100.111L149.507,100.111L150.001,100.111L151.013,100.111L151.527,100.111L152.064,100.111L152.536,100.111L153.031,100.111L154.042,100.111L154.55,100.111L155.085,100.111L155.559,100.111L156.06,100.111L157.071,100.111L157.579,100.111L158.116,100.111L158.588,100.111L159.091,100.111L160.105,100.111L160.62,100.111L161.16,100.111L161.628,100.111L162.123,100.111L163.134,100.111L163.649,100.111L164.191,100.111L164.657,100.111L165.153,100.111L166.166,100.111L166.681,100.111L167.222,100.111L167.687,100.111L168.183,100.111L169.197,100.111L169.711,100.111L170.252,100.111L170.722,100.111L171.213,100.111L172.225,100.111L172.739,100.111L173.278,100.111L173.746,100.111L174.242,100.111L175.253,100.111L175.76,100.111L176.295,100.111L176.766,100.111L177.27,100.111L178.283,100.111L178.789,100.111L179.326,100.111L179.798,100.111L180.299,100.111L181.319,100.111L181.835,100.111L182.372,100.111L182.835,100.111L183.331,100.111L184.345,100.111L184.859,100.111L185.418,100.111L185.867,100.111L186.364,100.111L187.376,100.111L187.894,100.111L188.451,100.111L188.896,100.111L189.395,100.111L190.406,100.111L190.924,100.111L191.478,100.111L191.929,100.111L192.423,100.111L193.435,100.111L193.949,100.111L194.489,100.111L194.956,100.111L195.452,100.111L196.462,100.111L196.973,100.111L197.507,100.111L197.979,100.111L198.48,100.111L199.496,100.111L199.999,100.111" stroke="#4c78a8" stroke-width="2"/></g></g><path class="foreground" aria-hidden="true" d="" display="none"/></g><g transform="translate(0,0)"><path class="background" aria-hidden="true" d="M0,0h200v200h-200Z"/><g><g class="mark-line role-mark marks" role="graphics-object" aria-roledescription="line mark container"><path aria-label="Time: Aug 14, 2025; Price: 999; identifier: roam-2" role="graphics-symbol" aria-roledescription="line mark" d="M0,89L0.025,89L0.045,89L0.604,89L1.048,89L1.546,89L2.568,89L3.069,89L3.624,89L4.078,89L4.574,89L5.588,89L6.096,89L6.633,89L7.102,89L7.604,89L8.629,89L9.124,89L9.665,89L10.134,89L10.633,89L11.668,89L12.165,89L12.724,89L12.92,89L13.174,89L13.66,89L14.675,89L15.188,89L15.726,89L16.196,89L16.689,89L17.706,89L18.214,89L18.774,89L19,89L19.225,89L19.722,89L20.734,89L21.246,89L21.787,89L22.257,89L22.75,89L23.765,89L24.275,89L24.815,89L25.283,89L25.779,89L26.792,89L27.3,89L27.836,89L28.305,89L28.805,89L29.826,89L30.328,89L30.867,89L31.339,89L31.836,89L32.86,89L33.371,89L33.924,89L34.377,89L34.87,89L35.885,89L36.399,89L37.404,89L37.897,89L38.911,89L39.423,89L39.622,89L39.963,89L40.301,89L40.433,89L40.929,89L41.94,89L42.454,89L42.994,89L43.462,89L43.957,89L44.971,89L45.482,89L46.02,89L46.491,89L46.986,89L47.997,89L48.505,89L49.041,89L49.514,89L49.99,89L50.014,89L51.028,89L51.352,89L51.533,89L52.072,89L52.545,89L53.045,89L54.068,89L54.577,89L55.115,89L55.579,89L56.074,89L57.093,89L57.605,89L58.147,89L58.611,89L59.106,89L60.119,89L60.63,89L61.17,89L61.639,89L62.135,89L63.148,89L63.661,89L64.197,89L64.671,89L65.164,89L66.179,89L66.69,89L67.229,89L67.695,89L68.195,89L69.206,89L69.466,89L69.711,89L70.246,89L70.72,89L71.223,89L72.235,89L72.741,89L73.278,89L73.75,89L74.253,89L75.27,89L75.785,89L76.325,89L76.791,89L77.287,89L78.298,89L78.814,89L79.372,89L79.823,89L80.314,89L81.324,89L81.841,89L82.378,89L82.848,89L83.345,89L84.358,89L84.87,89L85.407,89L85.872,89L86.372,89L87.386,89L87.898,89L88.435,89L88.903,89L89.402,89L90.414,89L90.921,89L91.456,89L91.927,89L92.432,89L93.445,89L93.951,89L94.484,89L94.956,89L95.462,89L96.479,89L96.99,89L97.532,89L97.999,89L98.494,89L99.507,89L100.023,89L100.561,89L101.027,89L101.524,89L102.538,89L103.05,89L103.591,89L104.058,89L104.554,89L105.567,89L106.079,89L106.62,89L107.086,89L107.584,89L108.597,89L109.109,89L109.649,89L110.118,89L110.612,89L111.625,89L112.134,89L112.669,89L113.138,89L113.641,89L114.656,89L115.161,89L115.698,89L116.171,89L116.672,89L117.688,89L118.203,89L118.743,89L119.203,89L119.705,89L120.716,89L121.231,89L121.77,89L122.239,89L122.734,89L123.747,89L124.262,89L124.801,89L125.271,89L125.762,89L126.777,89L127.293,89L127.833,89L128.3,89L128.792,89L129.806,89L130.321,89L130.859,89L131.327,89L131.822,89L132.835,89L133.34,89L133.877,89L134.349,89L134.852,89L135.865,89L136.371,89L136.908,89L137.377,89L137.881,89L138.898,89L139.414,89L139.953,89L140.407,89L140.913,89L141.927,89L142.445,89L142.983,89L143.447,89L143.943,89L144.958,89L145.472,89L146.013,89L146.478,89L146.973,89L147.984,89L148.497,89L149.035,89L149.507,89L150.001,89L151.013,89L151.527,89L152.064,89L152.536,89L153.031,89L154.042,89L154.551,89L155.085,89L155.559,89L156.06,89L157.071,89L157.579,89L158.116,89L158.588,89L159.091,89L160.105,89L160.62,89L161.16,89L161.628,89L162.123,89L163.134,89L163.649,89L164.191,89L164.657,89L165.153,89L166.166,89L166.681,89L167.222,89L167.688,89L168.183,89L169.197,89L169.711,89L170.253,89L170.722,89L171.213,89L172.226,89L172.739,89L173.278,89L173.746,89L174.242,89L175.253,89L175.76,89L176.295,89L176.766,89L177.27,89L178.283,89L178.79,89L179.326,89L179.799,89L180.299,89L181.319,89L181.835,89L182.372,89L182.837,89L183.331,89L184.345,89L184.859,89L185.418,89L185.868,89L186.364,89L187.376,89L187.894,89L188.451,89L188.896,89L189.395,89L190.406,89L190.924,89L191.478,89L191.929,89L192.423,89L193.436,89L193.95,89L194.489,89L194.957,89L195.452,89L196.462,89L196.973,89L197.507,89L197.979,89L198.48,89L199.496,89L199.999,89" stroke="#ff9da6" stroke-width="2"/></g></g><path class="foreground" aria-hidden="true" d="" display="none"/></g><g transform="translate(0,0)"><path class="background" aria-hidden="true" d="M0,0h200v200h-200Z"/><g><g class="mark-line role-mark marks" role="graphics-object" aria-roledescription="line mark container"><path aria-label="Time: Aug 14, 2025; Price: 999; identifier: fastroad-sl-3-2022" role="graphics-symbol" aria-roledescription="line mark" d="M0,89L0.025,89L0.045,89L0.604,89L1.048,89L1.546,89L2.568,89L3.07,89L3.624,89L4.078,89L4.574,89L5.588,89L6.096,89L6.633,89L7.102,89L7.604,89L8.629,89L9.124,89L9.665,89L10.134,89L10.633,89L11.668,89L12.166,89L12.724,89L12.92,89L13.174,89L13.66,89L14.675,89L15.188,89L15.726,89L16.196,89L16.689,89L17.706,89L18.214,89L18.774,89L19,89L19.225,89L19.722,89L20.734,89L21.246,89L21.787,89L22.257,89L22.75,89L23.765,89L24.275,89L24.815,89L25.283,89L25.779,89L26.792,89L27.3,89L27.836,89L28.305,89L28.806,89L29.826,89L30.328,89L30.867,89L31.339,89L31.836,89L32.86,89L33.371,89L33.924,89L34.377,89L34.87,89L35.885,89L36.399,89L37.404,89L37.897,89L38.911,89L39.423,89L39.622,89L39.963,89L40.301,89L40.433,89L40.929,89L41.941,89L42.454,89L42.994,89L43.462,89L43.957,89L44.971,89L45.482,89L46.02,89L46.491,89L46.986,89L47.997,89L48.505,89L49.041,89L49.514,89L49.99,89L50.014,89L51.028,89L51.352,89L51.533,89L52.072,89L52.545,89L53.045,89L54.068,89L54.577,89L55.115,89L55.579,89L56.074,89L57.093,89L57.605,89L58.147,89L58.611,89L59.106,89L60.119,89L60.63,89L61.17,89L61.639,89L62.135,89L63.148,89L63.661,89L64.197,89L64.671,89L65.164,89L66.179,89L66.691,89L67.229,89L67.695,89L68.195,89L69.206,89L69.466,89L69.711,89L70.246,89L70.72,89L71.223,89L72.235,89L72.741,89L73.278,89L73.75,89L74.253,89L75.27,89L75.785,89L76.326,89L76.791,89L77.287,89L78.299,89L78.814,89L79.372,89L79.823,89L80.314,89L81.324,89L81.841,89L82.378,89L82.848,89L83.345,89L84.358,89L84.87,89L85.407,89L85.872,89L86.372,89L87.386,89L87.898,89L88.435,89L88.903,89L89.402,89L90.414,89L90.921,89L91.456,89L91.927,89L92.432,89L93.445,89L93.951,89L94.484,89L94.956,89L95.462,89L96.48,89L96.99,89L97.532,89L97.999,89L98.494,89L99.507,89L100.023,89L100.561,89L101.027,89L101.524,89L102.538,89L103.05,89L103.591,89L104.058,89L104.554,89L105.567,89L106.079,89L106.62,89L107.086,89L107.584,89L108.597,89L109.109,89L109.649,89L110.118,89L110.612,89L111.625,89L112.134,89L112.669,89L113.138,89L113.641,89L114.656,89L115.161,89L115.698,89L116.171,89L116.672,89L117.688,89L118.203,89L118.743,89L119.203,89L119.705,89L120.716,89L121.231,89L121.77,89L122.239,89L122.734,89L123.747,89L124.262,89L124.801,89L125.272,89L125.762,89L126.777,89L127.293,89L127.833,89L128.301,89L128.792,89L129.806,89L130.321,89L130.859,89L131.327,89L131.822,89L132.835,89L133.34,89L133.877,89L134.349,89L134.852,89L135.865,89L136.371,89L136.908,89L137.377,89L137.881,89L138.898,89L139.414,89L139.954,89L140.407,89L140.913,89L141.927,89L142.445,89L142.983,89L143.447,89L143.943,89L144.958,89L145.473,89L146.013,89L146.478,89L146.973,89L147.984,89L148.497,89L149.035,89L149.507,89L150.001,89L151.013,89L151.527,89L152.064,89L152.536,89L153.031,89L154.043,89L154.551,89L155.085,89L155.559,89L156.06,89L157.071,89L157.579,89L158.116,89L158.589,89L159.091,89L160.105,89L160.62,89L161.16,89L161.628,89L162.124,89L163.135,89L163.649,89L164.191,89L164.657,89L165.153,89L166.166,89L166.681,89L167.222,89L167.688,89L168.183,89L169.197,89L169.712,89L170.253,89L170.722,89L171.213,89L172.226,89L172.739,89L173.278,89L173.746,89L174.243,89L175.253,89L175.76,89L176.295,89L176.766,89L177.27,89L178.283,89L178.79,89L179.326,89L179.799,89L180.3,89L181.319,89L181.835,89L182.372,89L182.837,89L183.331,89L184.345,89L184.859,89L185.418,89L185.868,89L186.364,89L187.376,89L187.895,89L188.451,89L188.897,89L189.395,89L190.406,89L190.924,89L191.478,89L191.929,89L192.423,89L193.436,89L193.95,89L194.489,89L194.957,89L195.452,89L196.462,89L196.973,89L197.507,89L197.979,89L198.48,89L199.496,89L199.999,89" stroke="#9d755d" stroke-width="2"/></g></g><path class="foreground" aria-hidden="true" d="" display="none"/></g><g transform="translate(0,0)"><path class="background" aria-hidden="true" d="M0,0h200v200h-200Z"/><g><g class="mark-line role-mark marks" role="graphics-object" aria-roledescription="line mark container"><path aria-label="Time: Aug 14, 2025; Price: 1199; identifier: fastroad-ar-2" role="graphics-symbol" aria-roledescription="line mark" d="M0,66.778L0.025,66.778L0.045,66.778L0.604,66.778L1.048,66.778L1.546,66.778L2.568,66.778L3.07,66.778L3.624,66.778L4.078,66.778L4.574,66.778L5.588,66.778L6.096,66.778L6.634,66.778L7.102,66.778L7.606,66.778L8.63,66.778L9.125,66.778L9.665,66.778L10.134,66.778L10.633,66.778L11.668,66.778L12.166,66.778L12.724,66.778L12.92,66.778L13.174,66.778L13.66,66.778L14.675,66.778L15.188,66.778L15.726,66.778L16.196,66.778L16.689,66.778L17.706,66.778L18.214,66.778L18.774,66.778L19.001,66.778L19.225,66.778L19.722,66.778L20.734,66.778L21.246,66.778L21.787,66.778L22.257,66.778L22.75,66.778L23.765,66.778L24.275,66.778L24.815,66.778L25.284,66.778L25.779,66.778L26.792,66.778L27.3,66.778L27.836,66.778L28.305,66.778L28.806,66.778L29.826,66.778L30.328,66.778L30.867,66.778L31.339,66.778L31.836,66.778L32.86,66.778L33.371,66.778L33.924,66.778L34.377,66.778L34.87,66.778L35.885,66.778L36.399,66.778L37.404,66.778L37.897,66.778L38.911,66.778L39.423,66.778L39.622,66.778L39.963,66.778L40.301,66.778L40.433,66.778L40.929,66.778L41.941,66.778L42.454,66.778L42.994,66.778L43.462,66.778L43.957,66.778L44.971,66.778L45.482,66.778L46.02,66.778L46.491,66.778L46.986,66.778L47.997,66.778L48.505,66.778L49.041,66.778L49.514,66.778L49.99,66.778L50.014,66.778L51.028,66.778L51.352,66.778L51.534,66.778L52.072,66.778L52.545,66.778L53.045,66.778L54.068,66.778L54.577,66.778L55.115,66.778L55.579,66.778L56.074,66.778L57.093,66.778L57.605,66.778L58.147,66.778L58.611,66.778L59.106,66.778L60.119,66.778L60.63,66.778L61.17,66.778L61.639,66.778L62.135,66.778L63.148,66.778L63.661,66.778L64.197,66.778L64.671,66.778L65.164,66.778L66.179,66.778L66.691,66.778L67.229,66.778L67.695,66.778L68.195,66.778L69.206,66.778L69.466,66.778L69.711,66.778L70.246,66.778L70.72,66.778L71.223,66.778L72.235,66.778L72.741,66.778L73.278,66.778L73.751,66.778L74.253,66.778L75.27,66.778L75.785,66.778L76.326,66.778L76.791,66.778L77.287,66.778L78.299,66.778L78.814,66.778L79.373,66.778L79.823,66.778L80.314,66.778L81.324,66.778L81.841,66.778L82.378,66.778L82.848,66.778L83.345,66.778L84.358,66.778L84.87,66.778L85.407,66.778L85.872,66.778L86.372,66.778L87.386,66.778L87.898,66.778L88.435,66.778L88.903,66.778L89.402,66.778L90.414,66.778L90.921,66.778L91.456,66.778L91.927,66.778L92.432,66.778L93.445,66.778L93.951,66.778L94.484,66.778L94.956,66.778L95.462,66.778L96.48,66.778L96.99,66.778L97.532,66.778L97.999,66.778L98.494,66.778L99.507,66.778L100.023,66.778L100.561,66.778L101.027,66.778L101.525,66.778L102.538,66.778L103.05,66.778L103.591,66.778L104.058,66.778L104.554,66.778L105.567,66.778L106.079,66.778L106.62,66.778L107.086,66.778L107.584,66.778L108.597,66.778L109.109,66.778L109.649,66.778L110.118,66.778L110.612,66.778L111.625,66.778L112.134,66.778L112.669,66.778L113.138,66.778L113.641,66.778L114.656,66.778L115.161,66.778L115.698,66.778L116.171,66.778L116.672,66.778L117.688,66.778L118.203,66.778L118.743,66.778L119.203,66.778L119.705,66.778L120.717,66.778L121.231,66.778L121.77,66.778L122.239,66.778L122.734,66.778L123.747,66.778L124.262,66.778L124.801,66.778L125.272,66.778L125.762,66.778L126.778,66.778L127.293,66.778L127.833,66.778L128.301,66.778L128.792,66.778L129.806,66.778L130.321,66.778L130.859,66.778L131.328,66.778L131.822,66.778L132.835,66.778L133.341,66.778L133.877,66.778L134.349,66.778L134.852,66.778L135.865,66.778L136.371,66.778L136.908,66.778L137.377,66.778L137.881,66.778L138.898,66.778L139.414,66.778L139.954,66.778L140.407,66.778L140.913,66.778L141.927,66.778L142.445,66.778L142.983,66.778L143.447,66.778L143.943,66.778L144.958,66.778L145.473,66.778L146.013,66.778L146.478,66.778L146.973,66.778L147.985,66.778L148.497,66.778L149.036,66.778L149.508,66.778L150.002,66.778L151.013,66.778L151.527,66.778L152.064,66.778L152.536,66.778L153.031,66.778L154.043,66.778L154.551,66.778L155.086,66.778L155.559,66.778L156.06,66.778L157.071,66.778L157.579,66.778L158.116,66.778L158.589,66.778L159.091,66.778L160.105,66.778L160.62,66.778L161.16,66.778L161.628,66.778L162.124,66.778L163.135,66.778L163.649,66.778L164.191,66.778L164.658,66.778L165.153,66.778L166.166,66.778L166.681,66.778L167.222,66.778L167.688,66.778L168.183,66.778L169.197,66.778L169.712,66.778L170.253,66.778L170.722,66.778L171.213,66.778L172.226,66.778L172.739,66.778L173.278,66.778L173.746,66.778L174.243,66.778L175.253,66.778L175.76,66.778L176.295,66.778L176.766,66.778L177.27,66.778L178.283,66.778L178.79,66.778L179.326,66.778L179.799,66.778L180.3,66.778L181.319,66.778L181.835,66.778L182.373,66.778L182.838,66.778L183.332,66.778L184.345,66.778L184.859,66.778L185.418,66.778L185.868,66.778L186.364,66.778L187.376,66.778L187.895,66.778L188.451,66.778L188.897,66.778L189.395,66.778L190.406,66.778L190.924,66.778L191.478,66.778L191.929,66.778L192.423,66.778L193.436,66.778L193.95,66.778L194.49,66.778L194.957,66.778L195.452,66.778L196.463,66.778L196.973,66.778L197.508,66.778L197.979,66.778L198.48,66.778L199.496,66.778L199.999,66.778" stroke="#54a24b" stroke-width="2"/></g></g><path class="foreground" aria-hidden="true" d="" display="none"/></g><g transform="translate(0,0)"><path class="background" aria-hidden="true" d="M0,0h200v200h-200Z"/><g><g class="mark-line role-mark marks" role="graphics-object" aria-roledescription="line mark container"><path aria-label="Time: Aug 18, 2025; Price: 899; identifier: sdrbike-escape-1-city-disc" role="graphics-symbol" aria-roledescription="line mark" d="M12.92,100.111L13.174,100.111L13.66,100.111L14.675,100.111L15.188,100.111L15.726,100.111L16.196,100.111L16.689,100.111L17.706,100.111L18.214,100.111L18.774,100.111L19.001,100.111L19.225,100.111L19.722,100.111L20.734,100.111L21.246,100.111L21.787,100.111L22.257,100.111L22.751,100.111L23.765,100.111L24.275,100.111L24.815,100.111L25.284,100.111L25.779,100.111L26.793,100.111L27.3,100.111L27.836,100.111L28.306,100.111L28.806,100.111L29.826,100.111L30.328,100.111L30.868,100.111L31.339,100.111L31.837,100.111L32.86,100.111L33.372,100.111L33.924,100.111L34.377,100.111L34.87,100.111L35.885,100.111L36.4,100.111L37.404,100.111L37.897,100.111L38.911,100.111L39.423,100.111L39.622,100.111L39.963,100.111L40.301,100.111L40.433,100.111L40.929,100.111L41.941,100.111L42.455,100.111L42.994,100.111L43.463,100.111L43.958,100.111L44.971,100.111L45.482,100.111L46.021,100.111L46.491,100.111L46.986,100.111L47.997,100.111L48.505,100.111L49.041,100.111L49.514,100.111L49.99,100.111L50.014,100.111L51.028,100.111L51.352,100.111L51.534,100.111L52.072,100.111L52.545,100.111L53.045,100.111L54.068,100.111L54.577,100.111L55.115,100.111L55.579,100.111L56.074,100.111L57.093,100.111L57.605,100.111L58.147,100.111L58.611,100.111L59.106,100.111L60.119,100.111L60.63,100.111L61.17,100.111L61.639,100.111L62.135,100.111L63.148,100.111L63.661,100.111L64.197,100.111L64.671,100.111L65.164,100.111L66.179,100.111L66.691,100.111L67.229,100.111L67.696,100.111L68.195,100.111L69.206,100.111L69.466,100.111L69.712,100.111L70.246,100.111L70.72,100.111L71.223,100.111L72.235,100.111L72.741,100.111L73.278,100.111L73.751,100.111L74.253,100.111L75.27,100.111L75.785,100.111L76.326,100.111L76.791,100.111L77.287,100.111L78.299,100.111L78.814,100.111L79.373,100.111L79.823,100.111L80.314,100.111L81.324,100.111L81.841,100.111L82.378,100.111L82.848,100.111L83.345,100.111L84.358,100.111L84.87,100.111L85.407,100.111L85.872,100.111L86.372,100.111L87.386,100.111L87.899,100.111L88.435,100.111L88.903,100.111L89.402,100.111L90.414,100.111L90.921,100.111L91.456,100.111L91.927,100.111L92.432,100.111L93.445,100.111L93.951,100.111L94.484,100.111L94.957,100.111L95.462,100.111L96.48,100.111L96.99,100.111L97.532,100.111L97.999,100.111L98.494,100.111L99.507,100.111L100.023,100.111L100.561,100.111L101.027,100.111L101.525,100.111L102.538,100.111L103.05,100.111L103.591,100.111L104.058,100.111L104.554,100.111L105.567,100.111L106.079,100.111L106.62,100.111L107.086,100.111L107.584,100.111L108.598,100.111L109.109,100.111L109.649,100.111L110.118,100.111L110.612,100.111L111.625,100.111L112.134,100.111L112.67,100.111L113.138,100.111L113.641,100.111L114.656,100.111L115.161,100.111L115.699,100.111L116.171,100.111L116.673,100.111L117.688,100.111L118.204,100.111L118.743,100.111L119.203,100.111L119.705,100.111L120.717,100.111L121.231,100.111L121.77,100.111L122.24,100.111L122.735,100.111L123.748,100.111L124.262,100.111L124.801,100.111L125.272,100.111L125.762,100.111L126.778,100.111L127.293,100.111L127.833,100.111L128.301,100.111L128.792,100.111L129.806,100.111L130.321,100.111L130.859,100.111L131.328,100.111L131.822,100.111L132.836,100.111L133.341,100.111L133.877,100.111L134.349,100.111L134.852,100.111L135.865,100.111L136.371,100.111L136.908,100.111L137.377,100.111L137.881,100.111L138.898,100.111L139.414,100.111L139.954,100.111L140.407,100.111L140.913,100.111L141.927,100.111L142.445,100.111L142.983,100.111L143.447,100.111L143.943,100.111L144.959,100.111L145.473,100.111L146.014,100.111L146.478,100.111L146.973,100.111L147.985,100.111L148.498,100.111L149.036,100.111L149.508,100.111L150.002,100.111L151.013,100.111L151.527,100.111L152.064,100.111L152.536,100.111L153.031,100.111L154.043,100.111L154.551,100.111L155.086,100.111L155.559,100.111L156.061,100.111L157.071,100.111L157.579,100.111L158.116,100.111L158.589,100.111L159.091,100.111L160.105,100.111L160.62,100.111L161.161,100.111L161.628,100.111L162.124,100.111L163.135,100.111L163.649,100.111L164.191,100.111L164.658,100.111L165.153,100.111L166.166,100.111L166.682,100.111L167.222,100.111L167.688,100.111L168.183,100.111L169.197,100.111L169.712,100.111L170.253,100.111L170.722,100.111L171.213,100.111L172.226,100.111L172.739,100.111L173.278,100.111L173.746,100.111L174.243,100.111L175.253,100.111L175.76,100.111L176.295,100.111L176.766,100.111L177.27,100.111L178.283,100.111L178.79,100.111L179.326,100.111L179.799,100.111L180.3,100.111L181.319,100.111L181.836,100.111L182.373,100.111L182.838,100.111L183.332,100.111L184.345,100.111L184.859,100.111L185.418,100.111L185.868,100.111L186.364,100.111L187.377,100.111L187.895,100.111L188.452,100.111L188.897,100.111L189.395,100.111L190.406,100.111L190.924,100.111L191.478,100.111L191.929,100.111L192.423,100.111L193.436,100.111L193.95,100.111L194.49,100.111L194.957,100.111L195.452,100.111L196.463,100.111L196.973,100.111L197.508,100.111L197.979,100.111L198.48,100.111L199.496,100.111L199.999,100.111" stroke="#f58518" stroke-width="2"/></g></g><path class="foreground" aria-hidden="true" d="" display="none"/></g><g transform="translate(0,0)"><path class="background" aria-hidden="true" d="M0,0h200v200h-200Z"/><g><g class="mark-line role-mark marks" role="graphics-object" aria-roledescription="line mark container"><path aria-label="Time: Aug 20, 2025; Price: 899; identifier: roam-disc-2-2024" role="graphics-symbol" aria-roledescription="line mark" d="M19,100.111L19.225,100.111L19.722,100.111L20.734,100.111L21.246,100.111L21.786,100.111L22.257,100.111L22.75,100.111L23.765,100.111L24.275,100.111L24.815,100.111L25.283,100.111L25.779,100.111L26.792,100.111L27.3,100.111L27.836,100.111L28.305,100.111L28.805,100.111L29.826,100.111L30.328,100.111L30.867,100.111L31.339,100.111L31.836,100.111L32.86,100.111L33.371,100.111L33.924,100.111L34.376,100.111L34.87,100.111L35.885,100.111L36.399,100.111L37.403,100.111L37.896,100.111L38.911,100.111L39.423,100.111L39.622,100.111L39.963,100.111L40.301,100.111L40.433,100.111L40.929,100.111L41.94,100.111L42.454,100.111L42.994,100.111L43.462,100.111L43.957,100.111L44.971,100.111L45.482,100.111L46.02,100.111L46.491,100.111L46.985,100.111L47.997,100.111L48.505,100.111L49.041,100.111L49.514,100.111L49.99,100.111L50.014,100.111L51.028,100.111L51.352,100.111L51.533,100.111L52.072,100.111L52.545,100.111L53.045,100.111L54.068,100.111L54.577,100.111L55.115,100.111L55.579,100.111L56.074,100.111L57.093,100.111L57.605,100.111L58.146,100.111L58.611,100.111L59.106,100.111L60.119,100.111L60.63,100.111L61.17,100.111L61.639,100.111L62.135,100.111L63.148,100.111L63.661,100.111L64.197,100.111L64.671,100.111L65.164,100.111L66.179,100.111L66.69,100.111L67.229,100.111L67.695,100.111L68.195,100.111L69.206,100.111L69.466,100.111L69.711,100.111L70.246,100.111L70.72,100.111L71.223,100.111L72.235,100.111L72.741,100.111L73.278,100.111L73.75,100.111L74.253,100.111L75.27,100.111L75.785,100.111L76.325,100.111L76.791,100.111L77.287,100.111L78.298,100.111L78.814,100.111L79.372,100.111L79.823,100.111L80.314,100.111L81.324,100.111L81.841,100.111L82.378,100.111L82.848,100.111L83.345,100.111L84.358,100.111L84.87,100.111L85.407,100.111L85.872,100.111L86.372,100.111L87.386,100.111L87.898,100.111L88.435,100.111L88.903,100.111L89.402,100.111L90.414,100.111L90.921,100.111L91.456,100.111L91.927,100.111L92.432,100.111L93.445,100.111L93.951,100.111L94.484,100.111L94.956,100.111L95.462,100.111L96.479,100.111L96.99,100.111L97.532,100.111L97.999,100.111L98.494,100.111L99.507,100.111L100.023,100.111L100.561,100.111L101.027,100.111L101.524,100.111L102.538,100.111L103.05,100.111L103.591,100.111L104.058,100.111L104.554,100.111L105.567,100.111L106.079,100.111L106.62,100.111L107.086,100.111L107.584,100.111L108.597,100.111L109.109,100.111L109.649,100.111L110.117,100.111L110.612,100.111L111.625,100.111L112.134,100.111L112.669,100.111L113.138,100.111L113.641,100.111L114.656,100.111L115.161,100.111L115.698,100.111L116.171,100.111L116.672,100.111L117.687,100.111L118.203,100.111L118.742,100.111L119.203,100.111L119.705,100.111L120.716,100.111L121.231,100.111L121.77,100.111L122.239,100.111L122.734,100.111L123.747,100.111L124.262,100.111L124.8,100.111L125.271,100.111L125.762,100.111L126.777,100.111L127.292,100.111L127.833,100.111L128.3,100.111L128.791,100.111L129.806,100.111L130.321,100.111L130.859,100.111L131.327,100.111L131.822,100.111L132.835,100.111L133.34,100.111L133.877,100.111L134.349,100.111L134.852,100.111L135.865,100.111L136.371,100.111L136.908,100.111L137.377,100.111L137.881,100.111L138.898,100.111L139.414,100.111L139.953,100.111L140.407,100.111L140.913,100.111L141.927,100.111L142.445,100.111L142.983,100.111L143.447,100.111L143.943,100.111L144.958,100.111L145.472,100.111L146.013,100.111L146.478,100.111L146.973,100.111L147.984,100.111L148.497,100.111L149.035,100.111L149.507,100.111L150.001,100.111L151.013,100.111L151.527,100.111L152.064,100.111L152.536,100.111L153.031,100.111L154.042,100.111L154.551,100.111L155.085,100.111L155.559,100.111L156.06,100.111L157.071,100.111L157.579,100.111L158.116,100.111L158.588,100.111L159.091,100.111L160.105,100.111L160.62,100.111L161.16,100.111L161.628,100.111L162.123,100.111L163.134,100.111L163.649,100.111L164.191,100.111L164.657,100.111L165.153,100.111L166.166,100.111L166.681,100.111L167.222,100.111L167.687,100.111L168.183,100.111L169.197,100.111L169.711,100.111L170.252,100.111L170.722,100.111L171.213,100.111L172.225,100.111L172.739,100.111L173.278,100.111L173.746,100.111L174.242,100.111L175.253,100.111L175.76,100.111L176.295,100.111L176.766,100.111L177.27,100.111L178.283,100.111L178.79,100.111L179.326,100.111L179.799,100.111L180.299,100.111L181.319,100.111L181.835,100.111L182.372,100.111L182.835,100.111L183.331,100.111L184.345,100.111L184.859,100.111L185.418,100.111L185.868,100.111L186.364,100.111L187.376,100.111L187.894,100.111L188.451,100.111L188.896,100.111L189.395,100.111L190.406,100.111L190.924,100.111L191.478,100.111L191.929,100.111L192.423,100.111L193.436,100.111L193.95,100.111L194.489,100.111L194.957,100.111L195.452,100.111L196.462,100.111L196.973,100.111L197.507,100.111L197.979,100.111L198.48,100.111L199.496,100.111L199.999,100.111" stroke="#e45756" stroke-width="2"/></g></g><path class="foreground" aria-hidden="true" d="" display="none"/></g><g transform="translate(0,0)"><path class="background" aria-hidden="true" d="M0,0h200v200h-200Z"/><g><g class="mark-line role-mark marks" role="graphics-object" aria-roledescription="line mark container"><path aria-label="Time: Aug 20, 2025; Price: 1199; identifier: thrive-2" role="graphics-symbol" aria-roledescription="line mark" d="M19.001,66.778L19.225,66.778L19.722,66.778L20.734,66.778L21.246,66.778L21.787,66.778L22.257,66.778L22.751,66.778L23.765,66.778L24.275,66.778L24.816,66.778L25.284,66.778L25.779,66.778L26.793,66.778L27.301,66.778L27.836,66.778L28.306,66.778L28.806,66.778L29.826,66.778L30.328,66.778L30.868,66.778L31.339,66.778L31.837,66.778L32.86,66.778L33.372,66.778L33.924,66.778L34.377,66.778L34.87,66.778L35.886,66.778L36.4,66.778L37.404,66.778L37.897,66.778L38.911,66.778L39.423,66.778L39.622,66.778L39.963,66.778L40.301,66.778L40.433,66.778L40.929,66.778L41.941,66.778L42.455,66.778L42.994,66.778L43.463,66.778L43.958,66.778L44.971,66.778L45.482,66.778L46.021,66.778L46.491,66.778L46.986,66.778L47.997,66.778L48.505,66.778L49.041,66.778L49.514,66.778L49.99,66.778L50.014,66.778L51.029,66.778L51.352,66.778L51.534,66.778L52.073,66.778L52.545,66.778L53.045,66.778L54.068,66.778L54.577,66.778L55.115,66.778L55.579,66.778L56.074,66.778L57.093,66.778L57.605,66.778L58.147,66.778L58.611,66.778L59.106,66.778L60.119,66.778L60.63,66.778L61.17,66.778L61.639,66.778L62.135,66.778L63.148,66.778L63.662,66.778L64.197,66.778L64.671,66.778L65.164,66.778L66.179,66.778L66.691,66.778L67.229,66.778L67.696,66.778L68.195,66.778L69.206,66.778L69.466,66.778L69.712,66.778L70.246,66.778L70.72,66.778L71.223,66.778L72.235,66.778L72.741,66.778L73.278,66.778L73.751,66.778L74.253,66.778L75.27,66.778L75.785,66.778L76.326,66.778L76.791,66.778L77.287,66.778L78.299,66.778L78.814,66.778L79.373,66.778L79.823,66.778L80.314,66.778L81.324,66.778L81.841,66.778L82.378,66.778L82.848,66.778L83.345,66.778L84.358,66.778L84.87,66.778L85.407,66.778L85.872,66.778L86.372,66.778L87.386,66.778L87.899,66.778L88.435,66.778L88.903,66.778L89.402,66.778L90.414,66.778L90.921,66.778L91.456,66.778L91.928,66.778L92.432,66.778L93.445,66.778L93.951,66.778L94.484,66.778L94.957,66.778L95.462,66.778L96.48,66.778L96.991,66.778L97.532,66.778L97.999,66.778L98.494,66.778L99.507,66.778L100.023,66.778L100.561,66.778L101.027,66.778L101.525,66.778L102.538,66.778L103.05,66.778L103.591,66.778L104.058,66.778L104.554,66.778L105.568,66.778L106.08,66.778L106.62,66.778L107.086,66.778L107.584,66.778L108.598,66.778L109.109,66.778L109.649,66.778L110.118,66.778L110.612,66.778L111.625,66.778L112.134,66.778L112.67,66.778L113.138,66.778L113.641,66.778L114.656,66.778L115.161,66.778L115.699,66.778L116.171,66.778L116.673,66.778L117.688,66.778L118.204,66.778L118.743,66.778L119.203,66.778L119.705,66.778L120.717,66.778L121.231,66.778L121.77,66.778L122.24,66.778L122.735,66.778L123.748,66.778L124.262,66.778L124.801,66.778L125.272,66.778L125.762,66.778L126.778,66.778L127.293,66.778L127.833,66.778L128.301,66.778L128.792,66.778L129.806,66.778L130.321,66.778L130.86,66.778L131.328,66.778L131.822,66.778L132.836,66.778L133.341,66.778L133.877,66.778L134.35,66.778L134.852,66.778L135.866,66.778L136.371,66.778L136.908,66.778L137.377,66.778L137.881,66.778L138.898,66.778L139.414,66.778L139.954,66.778L140.407,66.778L140.913,66.778L141.927,66.778L142.445,66.778L142.983,66.778L143.447,66.778L143.943,66.778L144.959,66.778L145.473,66.778L146.014,66.778L146.479,66.778L146.974,66.778L147.985,66.778L148.498,66.778L149.036,66.778L149.508,66.778L150.002,66.778L151.014,66.778L151.527,66.778L152.064,66.778L152.536,66.778L153.031,66.778L154.043,66.778L154.551,66.778L155.086,66.778L155.559,66.778L156.061,66.778L157.071,66.778L157.579,66.778L158.117,66.778L158.589,66.778L159.091,66.778L160.105,66.778L160.62,66.778L161.161,66.778L161.628,66.778L162.124,66.778L163.135,66.778L163.649,66.778L164.191,66.778L164.658,66.778L165.153,66.778L166.166,66.778L166.682,66.778L167.222,66.778L167.688,66.778L168.183,66.778L169.197,66.778L169.712,66.778L170.253,66.778L170.722,66.778L171.214,66.778L172.226,66.778L172.739,66.778L173.278,66.778L173.746,66.778L174.243,66.778L175.253,66.778L175.76,66.778L176.295,66.778L176.766,66.778L177.27,66.778L178.284,66.778L178.79,66.778L179.326,66.778L179.799,66.778L180.3,66.778L181.32,66.778L181.836,66.778L182.373,66.778L182.839,66.778L183.332,66.778L184.345,66.778L184.859,66.778L185.419,66.778L185.868,66.778L186.364,66.778L187.377,66.778L187.895,66.778L188.452,66.778L188.897,66.778L189.395,66.778L190.406,66.778L190.924,66.778L191.479,66.778L191.929,66.778L192.423,66.778L193.436,66.778L193.95,66.778L194.49,66.778L194.957,66.778L195.452,66.778L196.463,66.778L196.973,66.778L197.508,66.778L197.979,66.778L198.48,66.778L199.496,66.778L199.999,66.778" stroke="#eeca3b" stroke-width="2"/></g></g><path class="foreground" aria-hidden="true" d="" display="none"/></g><g transform="translate(0,0)"><path class="background" aria-hidden="true" d="M0,0h200v200h-200Z"/><g><g class="mark-line role-mark marks" role="graphics-object" aria-roledescription="line mark container"><path aria-label="Time: Aug 20, 2025; Price: 999; identifier: rove-2" role="graphics-symbol" aria-roledescription="line mark" d="M19.001,89L19.225,89L19.723,89L20.734,89L21.246,89L21.787,89L22.257,89L22.751,89L23.765,89L24.275,89L24.816,89L25.284,89L25.779,89L26.793,89L27.301,89L27.836,89L28.306,89L28.806,89L29.826,89L30.328,89L30.868,89L31.339,89L31.837,89L32.86,89L33.372,89L33.924,89L34.377,89L34.87,89L35.886,89L36.4,89L37.404,89L37.897,89L38.912,89L39.423,89L39.623,89L39.963,89L40.301,89L40.433,89L40.929,89L41.941,89L42.455,89L42.994,89L43.463,89L43.958,89L44.971,89L45.482,89L46.021,89L46.491,89L46.986,89L49.99,111.222L50.014,111.222L51.029,111.222L51.352,111.222L51.534,111.222L52.073,111.222L52.545,111.222L53.045,111.222L54.068,111.222L54.577,111.222L55.115,111.222L55.579,111.222L56.074,111.222L57.093,111.222L57.606,111.222L58.147,111.222L58.611,111.222L59.106,111.222L60.119,111.222L60.631,111.222L61.17,111.222L61.639,111.222L62.135,111.222L63.148,111.222L63.662,111.222L64.197,111.222L64.672,111.222L65.164,111.222L66.179,111.222L66.691,111.222L67.229,111.222L67.696,111.222L68.195,111.222L69.206,111.222L69.466,111.222L69.712,111.222L70.246,111.222L70.721,111.222L71.223,111.222L72.235,111.222L72.741,111.222L73.278,111.222L73.751,111.222L74.253,111.222L75.27,111.222L75.786,111.222L76.326,111.222L76.791,111.222L77.288,111.222L78.299,111.222L78.814,111.222L79.373,111.222L79.823,111.222L80.314,111.222L81.325,111.222L81.841,111.222L82.378,111.222L82.848,111.222L83.345,111.222L84.358,111.222L84.87,111.222L85.407,111.222L85.872,111.222L86.373,111.222L87.386,111.222L87.899,111.222L88.435,111.222L88.904,111.222L89.402,111.222L90.414,111.222L90.921,111.222L91.456,111.222L91.928,111.222L92.433,111.222L93.445,111.222L93.951,111.222L94.484,111.222L94.957,111.222L95.462,111.222L96.48,111.222L96.991,111.222L97.532,111.222L97.999,111.222L98.494,111.222L99.507,111.222L100.023,111.222L100.561,111.222L101.028,111.222L101.525,111.222L102.538,111.222L103.05,111.222L103.591,111.222L104.058,111.222L104.554,111.222L105.568,111.222L106.08,111.222L106.62,111.222L107.086,111.222L107.584,111.222L108.598,111.222L109.109,111.222L109.649,111.222L110.118,111.222L110.612,111.222L111.625,111.222L112.134,111.222L112.67,111.222L113.138,111.222L113.641,111.222L114.656,111.222L115.161,111.222L115.699,111.222L116.171,111.222L116.673,111.222L117.688,111.222L118.204,111.222L118.743,111.222L119.203,111.222L119.705,111.222L120.717,111.222L121.231,111.222L121.77,111.222L122.24,111.222L122.735,111.222L123.748,111.222L124.262,111.222L124.801,111.222L125.272,111.222L125.763,111.222L126.778,111.222L127.293,111.222L127.833,111.222L128.301,111.222L128.792,111.222L129.806,111.222L130.321,111.222L130.86,111.222L131.328,111.222L131.822,111.222L132.836,111.222L133.341,111.222L133.877,111.222L134.35,111.222L134.852,111.222L135.866,111.222L136.371,111.222L136.908,111.222L137.377,111.222L137.881,111.222L138.898,111.222L139.414,111.222L139.954,111.222L140.407,111.222L140.913,111.222L141.927,111.222L142.445,111.222L142.983,111.222L143.447,111.222L143.943,111.222L144.959,111.222L145.473,111.222L146.014,111.222L146.479,111.222L146.974,111.222L147.985,111.222L148.498,111.222L149.036,111.222L149.508,111.222L150.002,111.222L151.014,111.222L151.527,111.222L152.064,111.222L152.536,111.222L153.031,111.222L154.043,111.222L154.551,111.222L155.086,111.222L155.559,111.222L156.061,111.222L157.071,111.222L157.579,111.222L158.117,111.222L158.589,111.222L159.091,111.222L160.105,111.222L160.62,111.222L161.161,111.222L161.628,111.222L162.124,111.222L163.135,111.222L163.649,111.222L164.191,111.222L164.658,111.222L165.153,111.222L166.166,111.222L166.682,111.222L167.222,111.222L167.688,111.222L168.183,111.222L169.198,111.222L169.712,111.222L170.253,111.222L170.722,111.222L171.214,111.222L172.226,111.222L172.739,111.222L173.278,111.222L173.746,111.222L174.243,111.222L175.253,111.222L175.76,111.222L176.295,111.222L176.766,111.222L177.27,111.222L178.284,111.222L178.79,111.222L179.326,111.222L179.799,111.222L180.3,111.222L181.32,111.222L181.836,111.222L182.373,111.222L182.839,111.222L183.332,111.222L184.345,111.222L184.859,111.222L185.419,111.222L185.868,111.222L186.364,111.222L187.377,111.222L187.895,111.222L188.452,111.222L188.897,111.222L189.396,111.222L190.406,111.222L190.924,111.222L191.479,111.222L191.929,111.222L192.423,111.222L193.436,111.222L193.95,111.222L194.49,111.222L194.957,111.222L195.452,111.222L196.463,111.222L196.973,111.222L197.508,111.222L197.979,111.222L198.48,111.222L199.496,111.222L199.999,111.222" stroke="#72b7b2" stroke-width="2"/></g></g><path class="foreground" aria-hidden="true" d="" display="none"/></g><g transform="translate(0,0)"><path class="background" aria-hidden="true" d="M0,0h200v200h-200Z"/><g><g class="mark-line role-mark marks" role="graphics-object" aria-roledescription="line mark container"><path aria-label="Time: Aug 27, 2025; Price: 1199; identifier: allure-rs-1-2023" role="graphics-symbol" aria-roledescription="line mark" d="M39.623,66.778L39.963,66.778L40.301,66.778L40.433,66.778L40.929,66.778L41.941,66.778L42.455,66.778L42.994,66.778L43.463,66.778L43.958,66.778L44.971,66.778L45.483,66.778L46.021,66.778L46.491,66.778L46.986,66.778L47.997,66.778L48.505,66.778L49.041,66.778L49.514,66.778L49.99,66.778L50.014,66.778L51.029,66.778L51.352,66.778L51.534,66.778L52.073,66.778L52.545,66.778L53.045,66.778L54.068,66.778L54.578,66.778L55.115,66.778L55.579,66.778L56.074,66.778L57.093,66.778L57.606,66.778L58.147,66.778L58.611,66.778L59.106,66.778L60.119,66.778L60.631,66.778L61.17,66.778L61.639,66.778L62.135,66.778L63.148,66.778L63.662,66.778L64.197,66.778L64.672,66.778L65.164,66.778L66.18,66.778L66.691,66.778L67.229,66.778L67.696,66.778L68.195,66.778L69.206,66.778L69.466,66.778L69.712,66.778L70.246,66.778L70.721,66.778L71.223,66.778L72.235,66.778L72.741,66.778L73.278,66.778L73.751,66.778L74.253,66.778L75.27,66.778L75.786,66.778L76.326,66.778L76.791,66.778L77.288,66.778L78.299,66.778L78.814,66.778L79.373,66.778L79.823,66.778L80.314,66.778L81.325,66.778L81.841,66.778L82.378,66.778L82.848,66.778L83.345,66.778L84.359,66.778L84.87,66.778L85.407,66.778L85.872,66.778L86.373,66.778L87.386,66.778L87.899,66.778L88.435,66.778L88.904,66.778L89.402,66.778L90.414,66.778L90.921,66.778L91.456,66.778L91.928,66.778L92.433,66.778L93.445,66.778L93.951,66.778L94.484,66.778L94.957,66.778L95.462,66.778L96.48,66.778L96.991,66.778L97.532,66.778L97.999,66.778L98.495,66.778L99.507,66.778L100.023,66.778L100.561,66.778L101.028,66.778L101.525,66.778L102.538,66.778L103.051,66.778L103.591,66.778L104.058,66.778L104.554,66.778L105.568,66.778L106.08,66.778L106.62,66.778L107.086,66.778L107.584,66.778L108.598,66.778L109.11,66.778L109.649,66.778L110.118,66.778L110.612,66.778L111.625,66.778L112.134,66.778L112.67,66.778L113.139,66.778L113.641,66.778L114.656,66.778L115.161,66.778L115.699,66.778L116.171,66.778L116.673,66.778L117.688,66.778L118.204,66.778L118.743,66.778L119.203,66.778L119.705,66.778L120.717,66.778L121.231,66.778L121.77,66.778L122.24,66.778L122.735,66.778L123.748,66.778L124.262,66.778L124.801,66.778L125.272,66.778L125.763,66.778L126.778,66.778L127.293,66.778L127.833,66.778L128.301,66.778L128.792,66.778L129.806,66.778L130.321,66.778L130.86,66.778L131.328,66.778L131.822,66.778L132.836,66.778L133.341,66.778L133.877,66.778L134.35,66.778L134.852,66.778L135.866,66.778L136.371,66.778L136.908,66.778L137.377,66.778L137.881,66.778L138.898,66.778L139.414,66.778L139.954,66.778L140.407,66.778L140.913,66.778L141.927,66.778L142.445,66.778L142.983,66.778L143.447,66.778L143.943,66.778L144.959,66.778L145.473,66.778L146.014,66.778L146.479,66.778L146.974,66.778L147.985,66.778L148.498,66.778L149.036,66.778L149.508,66.778L150.002,66.778L151.014,66.778L151.528,66.778L152.064,66.778L152.536,66.778L153.031,66.778L154.043,66.778L154.551,66.778L155.086,66.778L155.559,66.778L156.061,66.778L157.071,66.778L157.579,66.778L158.117,66.778L158.589,66.778L159.091,66.778L160.105,66.778L160.62,66.778L161.161,66.778L161.628,66.778L162.124,66.778L163.135,66.778L163.649,66.778L164.191,66.778L164.658,66.778L165.153,66.778L166.166,66.778L166.682,66.778L167.222,66.778L167.688,66.778L168.183,66.778L169.198,66.778L169.712,66.778L170.253,66.778L170.723,66.778L171.214,66.778L172.226,66.778L172.739,66.778L173.278,66.778L173.747,66.778L174.243,66.778L175.253,66.778L175.76,66.778L176.296,66.778L176.766,66.778L177.27,66.778L178.284,66.778L178.79,66.778L179.326,66.778L179.799,66.778L180.3,66.778L181.32,66.778L181.836,66.778L182.373,66.778L182.839,66.778L183.332,66.778L184.345,66.778L184.859,66.778L185.419,66.778L185.868,66.778L186.364,66.778L187.377,66.778L187.895,66.778L188.452,66.778L188.897,66.778L189.396,66.778L190.406,66.778L190.924,66.778L191.479,66.778L191.929,66.778L192.424,66.778L193.436,66.778L193.95,66.778L194.49,66.778L194.957,66.778L195.452,66.778L196.463,66.778L196.973,66.778L197.508,66.778L197.98,66.778L198.48,66.778L199.496,66.778L199.999,66.778" stroke="#b279a2" stroke-width="2"/></g></g><path class="foreground" aria-hidden="true" d="" display="none"/></g><g transform="translate(0,0)"><path class="background" aria-hidden="true" d="M0,0h200v200h-200Z"/><g><g class="mark-line role-mark marks" role="graphics-object" aria-roledescription="line mark container"><path aria-label="Time: Aug 27, 2025; Price: 999; identifier: allure-rs-2-2022" role="graphics-symbol" aria-roledescription="line mark" d="M39.623,89L39.963,89L40.301,89L40.433,89L40.929,89L41.941,89L42.455,89L42.994,89L43.463,89L43.958,89L44.971,89L45.483,89L46.021,89L46.491,89L46.986,89L49.991,111.222L50.014,111.222L51.029,111.222L51.352,111.222L51.534,111.222L52.073,111.222L52.546,111.222L53.045,111.222L54.068,111.222L54.578,111.222L55.115,111.222L55.579,111.222L56.074,111.222L57.093,111.222L57.606,111.222L58.147,111.222L58.611,111.222L59.106,111.222L60.119,111.222L60.631,111.222L61.17,111.222L61.64,111.222L62.135,111.222L63.149,111.222L63.662,111.222L64.198,111.222L64.672,111.222L65.164,111.222L66.18,111.222L66.691,111.222L67.229,111.222L67.696,111.222L68.195,111.222L69.206,111.222L69.466,111.222L69.712,111.222L70.246,111.222L70.721,111.222L71.223,111.222L72.235,111.222L72.741,111.222L73.278,111.222L73.751,111.222L74.253,111.222L75.27,111.222L75.786,111.222L76.326,111.222L76.791,111.222L77.288,111.222L78.299,111.222L78.814,111.222L79.373,111.222L79.823,111.222L80.314,111.222L81.325,111.222L81.841,111.222L82.378,111.222L82.848,111.222L83.345,111.222L84.359,111.222L84.87,111.222L85.407,111.222L85.872,111.222L86.373,111.222L87.386,111.222L87.899,111.222L88.436,111.222L88.904,111.222L89.402,111.222L90.414,111.222L90.921,111.222L91.456,111.222L91.928,111.222L92.433,111.222L93.445,111.222L93.951,111.222L94.484,111.222L94.957,111.222L95.463,111.222L96.48,111.222L96.991,111.222L97.532,111.222L97.999,111.222L98.495,111.222L99.507,111.222L100.023,111.222L100.561,111.222L101.028,111.222L101.525,111.222L102.538,111.222L103.051,111.222L103.591,111.222L104.058,111.222L104.554,111.222L105.568,111.222L106.08,111.222L106.621,111.222L107.086,111.222L107.584,111.222L108.598,111.222L109.11,111.222L109.649,111.222L110.118,111.222L110.612,111.222L111.625,111.222L112.134,111.222L112.67,111.222L113.139,111.222L113.641,111.222L114.656,111.222L115.161,111.222L115.699,111.222L116.171,111.222L116.673,111.222L117.688,111.222L118.204,111.222L118.743,111.222L119.203,111.222L119.705,111.222L120.717,111.222L121.231,111.222L121.77,111.222L122.24,111.222L122.735,111.222L123.748,111.222L124.262,111.222L124.801,111.222L125.272,111.222L125.763,111.222L126.778,111.222L127.293,111.222L127.833,111.222L128.301,111.222L128.792,111.222L129.806,111.222L130.321,111.222L130.86,111.222L131.328,111.222L131.822,111.222L132.836,111.222L133.341,111.222L133.877,111.222L134.35,111.222L134.852,111.222L135.866,111.222L136.371,111.222L136.908,111.222L137.377,111.222L137.881,111.222L138.899,111.222L139.414,111.222L139.954,111.222L140.407,111.222L140.913,111.222L141.927,111.222L142.446,111.222L142.983,111.222L143.448,111.222L143.943,111.222L144.959,111.222L145.473,111.222L146.014,111.222L146.479,111.222L146.974,111.222L147.985,111.222L148.498,111.222L149.036,111.222L149.508,111.222L150.002,111.222L151.014,111.222L151.528,111.222L152.064,111.222L152.536,111.222L153.031,111.222L154.043,111.222L154.551,111.222L155.086,111.222L155.559,111.222L156.061,111.222L157.071,111.222L157.579,111.222L158.117,111.222L158.589,111.222L159.091,111.222L160.106,111.222L160.62,111.222L161.161,111.222L161.628,111.222L162.124,111.222L163.135,111.222L163.649,111.222L164.191,111.222L164.658,111.222L165.153,111.222L166.166,111.222L166.682,111.222L167.222,111.222L167.688,111.222L168.183,111.222L169.198,111.222L169.712,111.222L170.253,111.222L170.723,111.222L171.214,111.222L172.226,111.222L172.739,111.222L173.278,111.222L173.747,111.222L174.243,111.222L175.253,111.222L175.76,111.222L176.296,111.222L176.766,111.222L177.27,111.222L178.284,111.222L178.79,111.222L179.326,111.222L179.799,111.222L180.3,111.222L181.32,111.222L181.836,111.222L182.373,111.222L182.839,111.222L183.332,111.222L184.346,111.222L184.859,111.222L185.419,111.222L185.869,111.222L186.365,111.222L187.377,111.222L187.895,111.222L188.452,111.222L188.897,111.222L189.396,111.222L190.406,111.222L190.924,111.222L191.479,111.222L191.929,111.222L192.424,111.222L193.436,111.222L193.95,111.222L194.49,111.222L194.957,111.222L195.452,111.222L196.463,111.222L196.973,111.222L197.508,111.222L197.98,111.222L198.48,111.222L199.497,111.222L199.999,111.222" stroke="#54a24b" stroke-width="2"/></g></g><path class="foreground" aria-hidden="true" d="" display="none"/></g><g transform="translate(0,0)"><path class="background" aria-hidden="true" d="M0,0h200v200h-200Z"/><g><g class="mark-line role-mark marks" role="graphics-object" aria-roledescription="line mark container"><path aria-label="Time: Aug 27, 2025; Price: 949; identifier: allure-rs-2-2023" role="graphics-symbol" aria-roledescription="line mark" d="M39.623,94.556L39.963,94.556L40.301,94.556L40.433,94.556L40.929,94.556L41.941,94.556L42.455,94.556L42.995,94.556L43.463,94.556L43.958,94.556L44.971,94.556L45.483,94.556L46.021,94.556L46.492,94.556L46.986,94.556L47.998,94.556L48.505,94.556L49.042,94.556L49.514,94.556L49.991,94.556L50.014,94.556L51.029,94.556L51.352,94.556L51.534,94.556L52.073,94.556L52.546,94.556L53.045,94.556L54.068,94.556L54.578,94.556L55.115,94.556L55.579,94.556L56.074,94.556L57.094,94.556L57.606,94.556L58.147,94.556L58.611,94.556L59.106,94.556L60.119,94.556L60.631,94.556L61.17,94.556L61.64,94.556L62.135,94.556L63.149,94.556L63.662,94.556L64.198,94.556L64.672,94.556L65.164,94.556L66.18,94.556L66.691,94.556L67.229,94.556L67.696,94.556L68.195,94.556L69.206,94.556L69.466,94.556L69.712,94.556L70.246,94.556L70.721,94.556L71.224,94.556L72.235,94.556L72.742,94.556L73.278,94.556L73.751,94.556L74.253,94.556L75.27,94.556L75.786,94.556L76.326,94.556L76.792,94.556L77.288,94.556L78.299,94.556L78.814,94.556L79.373,94.556L79.823,94.556L80.314,94.556L81.325,94.556L81.841,94.556L82.378,94.556L82.848,94.556L83.346,94.556L84.359,94.556L84.87,94.556L85.407,94.556L85.872,94.556L86.373,94.556L87.386,94.556L87.899,94.556L88.436,94.556L88.904,94.556L89.402,94.556L90.414,94.556L90.922,94.556L91.457,94.556L91.928,94.556L92.433,94.556L93.445,94.556L93.952,94.556L94.484,94.556L94.957,94.556L95.463,94.556L96.48,94.556L96.991,94.556L97.532,94.556L98,94.556L98.495,94.556L99.507,94.556L100.023,94.556L100.562,94.556L101.028,94.556L101.525,94.556L102.538,94.556L103.051,94.556L103.592,94.556L104.058,94.556L104.554,94.556L105.568,94.556L106.08,94.556L106.621,94.556L107.087,94.556L107.585,94.556L108.598,94.556L109.11,94.556L109.649,94.556L110.118,94.556L110.613,94.556L111.626,94.556L112.134,94.556L112.67,94.556L113.139,94.556L113.642,94.556L114.656,94.556L115.162,94.556L115.699,94.556L116.171,94.556L116.673,94.556L117.688,94.556L118.204,94.556L118.743,94.556L119.203,94.556L119.705,94.556L120.717,94.556L121.231,94.556L121.77,94.556L122.24,94.556L122.735,94.556L123.748,94.556L124.262,94.556L124.801,94.556L125.272,94.556L125.763,94.556L126.778,94.556L127.293,94.556L127.833,94.556L128.301,94.556L128.792,94.556L129.807,94.556L130.321,94.556L130.86,94.556L131.328,94.556L131.822,94.556L132.836,94.556L133.341,94.556L133.877,94.556L134.35,94.556L134.852,94.556L135.866,94.556L136.371,94.556L136.909,94.556L137.377,94.556L137.882,94.556L138.899,94.556L139.414,94.556L139.954,94.556L140.407,94.556L140.913,94.556L141.927,94.556L142.446,94.556L142.983,94.556L143.448,94.556L143.944,94.556L144.959,94.556L145.473,94.556L146.014,94.556L146.479,94.556L146.974,94.556L147.985,94.556L148.498,94.556L149.036,94.556L149.508,94.556L150.002,94.556L151.014,94.556L151.528,94.556L152.064,94.556L152.536,94.556L153.031,94.556L154.043,94.556L154.551,94.556L155.086,94.556L155.56,94.556L156.061,94.556L157.072,94.556L157.579,94.556L158.117,94.556L158.589,94.556L159.091,94.556L160.106,94.556L160.62,94.556L161.161,94.556L161.628,94.556L162.124,94.556L163.135,94.556L163.649,94.556L164.191,94.556L164.658,94.556L165.153,94.556L166.167,94.556L166.682,94.556L167.222,94.556L167.688,94.556L168.183,94.556L169.198,94.556L169.712,94.556L170.253,94.556L170.723,94.556L171.214,94.556L172.226,94.556L172.739,94.556L173.278,94.556L173.747,94.556L174.243,94.556L175.254,94.556L175.76,94.556L176.296,94.556L176.766,94.556L177.27,94.556L178.284,94.556L178.79,94.556L179.326,94.556L179.799,94.556L180.3,94.556L181.32,94.556L181.836,94.556L182.373,94.556L182.839,94.556L183.332,94.556L184.346,94.556L184.859,94.556L185.419,94.556L185.869,94.556L186.365,94.556L187.377,94.556L187.895,94.556L188.452,94.556L188.897,94.556L189.396,94.556L190.407,94.556L190.925,94.556L191.479,94.556L191.929,94.556L192.424,94.556L193.436,94.556L193.95,94.556L194.49,94.556L194.957,94.556L195.452,94.556L196.463,94.556L196.973,94.556L197.508,94.556L197.98,94.556L198.48,94.556L199.497,94.556L200,94.556" stroke="#bab0ac" stroke-width="2"/></g></g><path class="foreground" aria-hidden="true" d="" display="none"/></g><g transform="translate(0,0)"><path class="background" aria-hidden="true" d="M0,0h200v200h-200Z"/><g><g class="mark-line role-mark marks" role="graphics-object" aria-roledescription="line mark container"><path aria-label="Time: Aug 27, 2025; Price: 999; identifier: allure-rs-2-2024" role="graphics-symbol" aria-roledescription="line mark" d="M39.623,89L39.963,89L40.301,89L40.434,89L40.929,89L41.941,89L42.455,89L42.995,89L43.463,89L43.958,89L44.971,89L45.483,89L46.021,89L46.492,89L46.986,89L49.991,111.222L50.014,111.222L51.029,111.222L51.352,111.222L51.534,111.222L52.073,111.222L52.546,111.222L53.045,111.222L54.068,111.222L54.578,111.222L55.115,111.222L55.58,111.222L56.075,111.222L57.094,111.222L57.606,111.222L58.147,111.222L58.611,111.222L59.106,111.222L60.119,111.222L60.631,111.222L61.17,111.222L61.64,111.222L62.135,111.222L63.149,111.222L63.662,111.222L64.198,111.222L64.672,111.222L65.165,111.222L66.18,111.222L66.691,111.222L67.229,111.222L67.696,111.222L68.195,111.222L69.206,111.222L69.466,111.222L69.712,111.222L70.246,111.222L70.721,111.222L71.224,111.222L72.235,111.222L72.742,111.222L73.278,111.222L73.751,111.222L74.253,111.222L75.271,111.222L75.786,111.222L76.326,111.222L76.792,111.222L77.288,111.222L78.299,111.222L78.814,111.222L79.373,111.222L79.824,111.222L80.314,111.222L81.325,111.222L81.841,111.222L82.379,111.222L82.849,111.222L83.346,111.222L84.359,111.222L84.87,111.222L85.407,111.222L85.873,111.222L86.373,111.222L87.386,111.222L87.899,111.222L88.436,111.222L88.904,111.222L89.403,111.222L90.414,111.222L90.922,111.222L91.457,111.222L91.928,111.222L92.433,111.222L93.445,111.222L93.952,111.222L94.484,111.222L94.957,111.222L95.463,111.222L96.48,111.222L96.991,111.222L97.533,111.222L98,111.222L98.495,111.222L99.508,111.222L100.023,111.222L100.562,111.222L101.028,111.222L101.525,111.222L102.539,111.222L103.051,111.222L103.592,111.222L104.059,111.222L104.554,111.222L105.568,111.222L106.08,111.222L106.621,111.222L107.087,111.222L107.585,111.222L108.598,111.222L109.11,111.222L109.649,111.222L110.118,111.222L110.613,111.222L111.626,111.222L112.134,111.222L112.67,111.222L113.139,111.222L113.642,111.222L114.657,111.222L115.162,111.222L115.699,111.222L116.171,111.222L116.673,111.222L117.688,111.222L118.204,111.222L118.743,111.222L119.203,111.222L119.705,111.222L120.717,111.222L121.231,111.222L121.771,111.222L122.24,111.222L122.735,111.222L123.748,111.222L124.262,111.222L124.801,111.222L125.272,111.222L125.763,111.222L126.778,111.222L127.293,111.222L127.834,111.222L128.301,111.222L128.792,111.222L129.807,111.222L130.321,111.222L130.86,111.222L131.328,111.222L131.822,111.222L132.836,111.222L133.341,111.222L133.878,111.222L134.35,111.222L134.853,111.222L135.866,111.222L136.371,111.222L136.909,111.222L137.377,111.222L137.882,111.222L138.899,111.222L139.414,111.222L139.954,111.222L140.407,111.222L140.913,111.222L141.927,111.222L142.446,111.222L142.983,111.222L143.448,111.222L143.944,111.222L144.959,111.222L145.473,111.222L146.014,111.222L146.479,111.222L146.974,111.222L147.985,111.222L148.498,111.222L149.036,111.222L149.508,111.222L150.002,111.222L151.014,111.222L151.528,111.222L152.065,111.222L152.536,111.222L153.031,111.222L154.043,111.222L154.551,111.222L155.086,111.222L155.56,111.222L156.061,111.222L157.072,111.222L157.579,111.222L158.117,111.222L158.589,111.222L159.091,111.222L160.106,111.222L160.62,111.222L161.161,111.222L161.628,111.222L162.124,111.222L163.135,111.222L163.649,111.222L164.191,111.222L164.658,111.222L165.153,111.222L166.167,111.222L166.682,111.222L167.222,111.222L167.688,111.222L168.183,111.222L169.198,111.222L169.712,111.222L170.253,111.222L170.723,111.222L171.214,111.222L172.226,111.222L172.739,111.222L173.278,111.222L173.747,111.222L174.243,111.222L175.254,111.222L175.76,111.222L176.296,111.222L176.767,111.222L177.271,111.222L178.284,111.222L178.79,111.222L179.326,111.222L179.799,111.222L180.3,111.222L181.32,111.222L181.836,111.222L182.373,111.222L182.839,111.222L183.332,111.222L184.346,111.222L184.86,111.222L185.419,111.222L185.869,111.222L186.365,111.222L187.377,111.222L187.895,111.222L188.452,111.222L188.897,111.222L189.396,111.222L190.407,111.222L190.925,111.222L191.479,111.222L191.929,111.222L192.424,111.222L193.436,111.222L193.95,111.222L194.49,111.222L194.957,111.222L195.452,111.222L196.463,111.222L196.973,111.222L197.508,111.222L197.98,111.222L198.48,111.222L199.497,111.222L200,111.222" stroke="#eeca3b" stroke-width="2"/></g></g><path class="foreground" aria-hidden="true" d="" display="none"/></g><g transform="translate(0,0)"><path class="background" aria-hidden="true" d="M0,0h200v200h-200Z"/><g><g class="mark-line role-mark marks" role="graphics-object" aria-roledescription="line mark container"><path aria-label="Time: Aug 27, 2025; Price: 1799; identifier: devote-1-2024" role="graphics-symbol" aria-roledescription="line mark" d="M40.301,0.111L40.434,0.111L40.929,0.111L41.941,0.111L42.455,0.111L42.995,0.111L43.463,0.111L43.958,0.111L44.971,0.111L45.483,0.111L46.021,0.111L46.492,0.111L46.986,0.111L49.991,44.556L50.014,44.556L51.029,44.556L51.352,44.556L51.534,44.556L52.073,44.556L52.546,44.556L53.045,44.556L54.068,44.556L54.578,44.556L55.116,44.556L55.58,44.556L56.075,44.556L57.094,44.556L57.606,44.556L58.147,44.556L58.611,44.556L59.107,44.556L60.12,44.556L60.631,44.556L61.171,44.556L61.64,44.556L62.135,44.556L63.149,44.556L63.662,44.556L64.198,44.556L64.672,44.556L65.165,44.556L66.18,44.556L66.691,44.556L67.229,44.556L67.696,44.556L68.195,44.556L69.206,44.556L69.466,44.556L69.712,44.556L70.247,44.556L70.721,44.556L71.224,44.556L72.235,44.556L72.742,44.556L73.278,44.556L73.751,44.556L74.253,44.556L75.271,44.556L75.786,44.556L76.326,44.556L76.792,44.556L77.288,44.556L78.299,44.556L78.814,44.556L79.373,44.556L79.824,44.556L80.314,44.556L81.325,44.556L81.842,44.556L82.379,44.556L82.849,44.556L83.346,44.556L84.359,44.556L84.87,44.556L85.407,44.556L85.873,44.556L86.373,44.556L87.386,44.556L87.899,44.556L88.436,44.556L88.904,44.556L89.403,44.556L90.414,44.556L90.922,44.556L91.457,44.556L91.928,44.556L92.433,44.556L93.445,44.556L93.952,44.556L94.484,44.556L94.957,44.556L95.463,44.556L96.48,44.556L96.991,44.556L97.533,44.556L98,44.556L98.495,44.556L99.508,44.556L100.023,44.556L100.562,44.556L101.028,44.556L101.525,44.556L102.539,44.556L103.051,44.556L103.592,44.556L104.059,44.556L104.554,44.556L105.568,44.556L106.08,44.556L106.621,44.556L107.087,44.556L107.585,44.556L108.598,44.556L109.11,44.556L109.649,44.556L110.118,44.556L110.613,44.556L111.626,44.556L112.134,44.556L112.67,44.556L113.139,44.556L113.642,44.556L114.657,44.556L115.162,44.556L115.699,44.556L116.171,44.556L116.673,44.556L117.688,44.556L118.204,44.556L118.743,44.556L119.203,44.556L119.705,44.556L120.717,44.556L121.231,44.556L121.771,44.556L122.24,44.556L122.735,44.556L123.748,44.556L124.262,44.556L124.801,44.556L125.272,44.556L125.763,44.556L126.778,44.556L127.293,44.556L127.834,44.556L128.301,44.556L128.792,44.556L129.807,44.556L130.322,44.556L130.86,44.556L131.328,44.556L131.822,44.556L132.836,44.556L133.341,44.556L133.878,44.556L134.35,44.556L134.853,44.556L135.866,44.556L136.371,44.556L136.909,44.556L137.377,44.556L137.882,44.556L138.899,44.556L139.415,44.556L139.954,44.556L140.408,44.556L140.913,44.556L141.927,44.556L142.446,44.556L142.984,44.556L143.448,44.556L143.944,44.556L144.959,44.556L145.473,44.556L146.014,44.556L146.479,44.556L146.974,44.556L147.985,44.556L148.498,44.556L149.036,44.556L149.508,44.556L150.002,44.556L151.014,44.556L151.528,44.556L152.065,44.556L152.536,44.556L153.031,44.556L154.043,44.556L154.551,44.556L155.086,44.556L155.56,44.556L156.061,44.556L157.072,44.556L157.579,44.556L158.117,44.556L158.589,44.556L159.091,44.556L160.106,44.556L160.621,44.556L161.161,44.556L161.628,44.556L162.124,44.556L163.135,44.556L163.649,44.556L164.191,44.556L164.658,44.556L165.153,44.556L166.167,44.556L166.682,44.556L167.222,44.556L167.688,44.556L168.184,44.556L169.198,44.556L169.712,44.556L170.253,44.556L170.723,44.556L171.214,44.556L172.226,44.556L172.74,44.556L173.278,44.556L173.747,44.556L174.243,44.556L175.254,44.556L175.76,44.556L176.296,44.556L176.767,44.556L177.271,44.556L178.284,44.556L178.79,44.556L179.326,44.556L179.799,44.556L180.3,44.556L181.32,44.556L181.836,44.556L182.373,44.556L182.839,44.556L183.332,44.556L184.346,44.556L184.86,44.556L185.419,44.556L185.869,44.556L186.365,44.556L187.377,44.556L187.895,44.556L188.452,44.556L188.897,44.556L189.396,44.556L190.408,44.556L190.925,44.556L191.479,44.556L191.93,44.556L192.424,44.556L193.436,44.556L193.95,44.556L194.49,44.556L194.957,44.556L195.452,44.556L196.463,44.556L196.974,44.556L197.508,44.556L197.98,44.556L198.48,44.556L199.497,44.556L200,44.556" stroke="#72b7b2" stroke-width="2"/></g></g><path class="foreground" aria-hidden="true" d="" display="none"/></g><g transform="translate(0,0)"><path class="background" aria-hidden="true" d="M0,0h200v200h-200Z"/><g><g class="mark-line role-mark marks" role="graphics-object" aria-roledescription="line mark container"><path aria-label="Time: Aug 27, 2025; Price: 1699; identifier: devote-1-2022" role="graphics-symbol" aria-roledescription="line mark" d="M40.301,11.222L40.434,11.222L40.929,11.222L41.941,11.222L42.455,11.222L42.995,11.222L43.463,11.222L43.958,11.222L44.971,11.222L45.483,11.222L46.021,11.222L46.492,11.222L46.986,11.222L47.998,11.222L48.506,11.222L49.042,11.222L49.514,11.222L49.991,11.222L50.014,11.222L51.029,11.222L51.353,11.222L51.534,11.222L52.073,11.222L52.546,11.222L53.045,11.222L54.069,11.222L54.578,11.222L55.116,11.222L55.58,11.222L56.075,11.222L57.094,11.222L57.606,11.222L58.147,11.222L58.611,11.222L59.107,11.222L60.12,11.222L60.631,11.222L61.171,11.222L61.64,11.222L62.135,11.222L63.149,11.222L63.662,11.222L64.198,11.222L64.672,11.222L65.165,11.222L66.18,11.222L66.691,11.222L67.229,11.222L67.696,11.222L68.195,11.222L69.207,11.222L69.466,11.222L69.712,11.222L70.247,11.222L70.721,11.222L71.224,11.222L72.235,11.222L72.742,11.222L73.278,11.222L73.751,11.222L74.253,11.222L75.271,11.222L75.786,11.222L76.326,11.222L76.792,11.222L77.288,11.222L78.299,11.222L78.815,11.222L79.373,11.222L79.824,11.222L80.314,11.222L81.325,11.222L81.842,11.222L82.379,11.222L82.849,11.222L83.346,11.222L84.359,11.222L84.87,11.222L85.407,11.222L85.873,11.222L86.373,11.222L87.386,11.222L87.899,11.222L88.436,11.222L88.904,11.222L89.403,11.222L90.414,11.222L90.922,11.222L91.457,11.222L91.928,11.222L92.433,11.222L93.445,11.222L93.952,11.222L94.484,11.222L94.957,11.222L95.463,11.222L96.48,11.222L96.991,11.222L97.533,11.222L98,11.222L98.496,11.222L99.508,11.222L100.024,11.222L100.562,11.222L101.028,11.222L101.525,11.222L102.539,11.222L103.051,11.222L103.592,11.222L104.059,11.222L104.554,11.222L105.568,11.222L106.08,11.222L106.621,11.222L107.087,11.222L107.585,11.222L108.598,11.222L109.11,11.222L109.649,11.222L110.118,11.222L110.613,11.222L111.626,11.222L112.134,11.222L112.67,11.222L113.139,11.222L113.642,11.222L114.657,11.222L115.162,11.222L115.699,11.222L116.171,11.222L116.673,11.222L117.688,11.222L118.204,11.222L118.743,11.222L119.203,11.222L119.706,11.222L120.717,11.222L121.231,11.222L121.771,11.222L122.24,11.222L122.735,11.222L123.748,11.222L124.262,11.222L124.801,11.222L125.272,11.222L125.763,11.222L126.778,11.222L127.293,11.222L127.834,11.222L128.301,11.222L128.792,11.222L129.807,11.222L130.322,11.222L130.86,11.222L131.328,11.222L131.822,11.222L132.836,11.222L133.341,11.222L133.878,11.222L134.35,11.222L134.853,11.222L135.866,11.222L136.371,11.222L136.909,11.222L137.378,11.222L137.882,11.222L138.899,11.222L139.415,11.222L139.954,11.222L140.408,11.222L140.913,11.222L141.927,11.222L142.446,11.222L142.984,11.222L143.448,11.222L143.944,11.222L144.959,11.222L145.473,11.222L146.014,11.222L146.479,11.222L146.974,11.222L147.985,11.222L148.498,11.222L149.036,11.222L149.508,11.222L150.002,11.222L151.014,11.222L151.528,11.222L152.065,11.222L152.536,11.222L153.031,11.222L154.043,11.222L154.551,11.222L155.086,11.222L155.56,11.222L156.061,11.222L157.072,11.222L157.579,11.222L158.117,11.222L158.589,11.222L159.092,11.222L160.106,11.222L160.621,11.222L161.161,11.222L161.629,11.222L162.124,11.222L163.135,11.222L163.649,11.222L164.192,11.222L164.658,11.222L165.153,11.222L166.167,11.222L166.682,11.222L167.222,11.222L167.688,11.222L168.184,11.222L169.198,11.222L169.712,11.222L170.253,11.222L170.723,11.222L171.214,11.222L172.226,11.222L172.74,11.222L173.278,11.222L173.747,11.222L174.243,11.222L175.254,11.222L175.761,11.222L176.296,11.222L176.767,11.222L177.271,11.222L178.284,11.222L178.791,11.222L179.327,11.222L179.799,11.222L180.301,11.222L181.32,11.222L181.836,11.222L182.373,11.222L182.839,11.222L183.332,11.222L184.346,11.222L184.86,11.222L185.419,11.222L185.869,11.222L186.365,11.222L187.377,11.222L187.895,11.222L188.452,11.222L188.897,11.222L189.396,11.222L190.408,11.222L190.925,11.222L191.479,11.222L191.93,11.222L192.424,11.222L193.436,11.222L193.95,11.222L194.49,11.222L194.957,11.222L195.453,11.222L196.463,11.222L196.974,11.222L197.508,11.222L197.98,11.222L198.48,11.222L199.497,11.222L200,11.222" stroke="#4c78a8" stroke-width="2"/></g></g><path class="foreground" aria-hidden="true" d="" display="none"/></g><g transform="translate(0,0)"><path class="background" aria-hidden="true" d="M0,0h200v200h-200Z"/><g><g class="mark-line role-mark marks" role="graphics-object" aria-roledescription="line mark container"><path aria-label="Time: Aug 31, 2025; Price: 1599; identifier: silex-400-oak-bork-2026" role="graphics-symbol" aria-roledescription="line mark" d="M51.353,22.333L51.534,22.333L52.073,22.333L52.546,22.333L53.045,22.333L54.069,22.333L54.578,22.333L55.116,22.333L55.58,22.333L56.075,22.333L57.094,22.333L57.606,22.333L58.148,22.333L58.611,22.333L59.107,22.333L60.12,22.333L60.631,22.333L61.171,22.333L61.64,22.333L62.135,22.333L63.149,22.333L63.662,22.333L64.198,22.333L64.672,22.333L65.165,22.333L66.18,22.333L66.691,22.333L67.229,22.333L67.696,22.333L68.196,22.333L69.207,22.333L69.466,22.333L69.712,22.333L70.247,22.333L70.721,22.333L71.224,22.333L72.236,22.333L72.742,22.333L73.279,22.333L73.751,22.333L74.254,22.333L75.271,22.333L75.786,22.333L76.326,22.333L76.792,22.333L77.288,22.333L78.299,22.333L78.815,22.333L79.374,22.333L79.824,22.333L80.315,22.333L81.325,22.333L81.842,22.333L82.379,22.333L82.849,22.333L83.346,22.333L84.359,22.333L84.87,22.333L85.407,22.333L85.873,22.333L86.373,22.333L87.387,22.333L87.899,22.333L88.436,22.333L88.904,22.333L89.403,22.333L90.415,22.333L90.922,22.333L91.457,22.333L91.928,22.333L92.433,22.333L93.446,22.333L93.952,22.333L94.485,22.333L94.957,22.333L95.463,22.333L96.48,22.333L96.991,22.333L97.533,22.333L98,22.333L98.496,22.333L99.508,22.333L100.024,22.333L100.562,22.333L101.028,22.333L101.525,22.333L102.539,22.333L103.051,22.333L103.592,22.333L104.059,22.333L104.555,22.333L105.568,22.333L106.08,22.333L106.621,22.333L107.087,22.333L107.585,22.333L108.598,22.333L109.11,22.333L109.65,22.333L110.118,22.333L110.613,22.333L111.626,22.333L112.134,22.333L112.67,22.333L113.139,22.333L113.642,22.333L114.657,22.333L115.162,22.333L115.699,22.333L116.171,22.333L116.673,22.333L117.688,22.333L118.204,22.333L118.743,22.333L119.203,22.333L119.706,22.333L120.717,22.333L121.232,22.333L121.771,22.333L122.24,22.333L122.735,22.333L123.748,22.333L124.263,22.333L124.802,22.333L125.272,22.333L125.763,22.333L126.778,22.333L127.294,22.333L127.834,22.333L128.301,22.333L128.792,22.333L129.807,22.333L130.322,22.333L130.86,22.333L131.328,22.333L131.823,22.333L132.836,22.333L133.341,22.333L133.878,22.333L134.35,22.333L134.853,22.333L135.866,22.333L136.372,22.333L136.909,22.333L137.378,22.333L137.882,22.333L138.899,22.333L139.415,22.333L139.954,22.333L140.408,22.333L140.914,22.333L141.928,22.333L142.446,22.333L142.984,22.333L143.448,22.333L143.944,22.333L144.959,22.333L145.474,22.333L146.014,22.333L146.479,22.333L146.974,22.333L147.985,22.333L148.498,22.333L149.036,22.333L149.508,22.333L150.002,22.333L151.014,22.333L151.528,22.333L152.065,22.333L152.537,22.333L153.032,22.333L154.043,22.333L154.552,22.333L155.086,22.333L155.56,22.333L156.061,22.333L157.072,22.333L157.58,22.333L158.117,22.333L158.589,22.333L159.092,22.333L160.106,22.333L160.621,22.333L161.161,22.333L161.629,22.333L162.124,22.333L163.135,22.333L163.65,22.333L164.192,22.333L164.658,22.333L165.154,22.333L166.167,22.333L166.682,22.333L167.223,22.333L167.688,22.333L168.184,22.333L169.198,22.333L169.712,22.333L170.253,22.333L170.723,22.333L171.214,22.333L172.227,22.333L172.74,22.333L173.279,22.333L173.747,22.333L174.244,22.333L175.254,22.333L175.761,22.333L176.296,22.333L176.767,22.333L177.271,22.333L178.284,22.333L178.791,22.333L179.327,22.333L179.8,22.333L180.301,22.333L181.32,22.333L181.836,22.333L182.373,22.333L182.84,22.333L183.332,22.333L184.346,22.333L184.86,22.333L185.419,22.333L185.869,22.333L186.365,22.333L187.377,22.333L187.895,22.333L188.453,22.333L188.897,22.333L189.396,22.333L190.408,22.333L190.925,22.333L191.479,22.333L191.93,22.333L192.424,22.333L193.436,22.333L193.95,22.333L194.49,22.333L194.958,22.333L195.453,22.333L196.463,22.333L196.974,22.333L197.508,22.333L197.98,22.333L198.481,22.333L199.497,22.333L200,22.333" stroke="#f58518" stroke-width="2"/></g></g><path class="foreground" aria-hidden="true" d="" display="none"/></g><g transform="translate(0,0)"><path class="background" aria-hidden="true" d="M0,0h200v200h-200Z"/><g><g class="mark-line role-mark marks" role="graphics-object" aria-roledescription="line mark container"><path aria-label="Time: Aug 31, 2025; Price: 1599; identifier: silex-400-warm-slate-grey-2026" role="graphics-symbol" aria-roledescription="line mark" d="M51.353,22.333L51.535,22.333L52.073,22.333L52.546,22.333L53.045,22.333L54.069,22.333L54.578,22.333L55.116,22.333L55.58,22.333L56.075,22.333L57.094,22.333L57.606,22.333L58.148,22.333L58.612,22.333L59.107,22.333L60.12,22.333L60.631,22.333L61.171,22.333L61.64,22.333L62.136,22.333L63.149,22.333L63.662,22.333L64.198,22.333L64.672,22.333L65.165,22.333L66.18,22.333L66.691,22.333L67.23,22.333L67.696,22.333L68.196,22.333L69.207,22.333L69.467,22.333L69.712,22.333L70.247,22.333L70.721,22.333L71.224,22.333L72.236,22.333L72.742,22.333L73.279,22.333L73.751,22.333L74.254,22.333L75.271,22.333L75.786,22.333L76.327,22.333L76.792,22.333L77.288,22.333L78.3,22.333L78.815,22.333L79.374,22.333L79.824,22.333L80.315,22.333L81.325,22.333L81.842,22.333L82.379,22.333L82.849,22.333L83.346,22.333L84.359,22.333L84.871,22.333L85.408,22.333L85.873,22.333L86.373,22.333L87.387,22.333L87.9,22.333L88.436,22.333L88.904,22.333L89.403,22.333L90.415,22.333L90.922,22.333L91.457,22.333L91.928,22.333L92.433,22.333L93.446,22.333L93.952,22.333L94.485,22.333L94.957,22.333L95.463,22.333L96.481,22.333L96.991,22.333L97.533,22.333L98.001,22.333L98.496,22.333L99.508,22.333L100.024,22.333L100.562,22.333L101.028,22.333L101.525,22.333L102.539,22.333L103.051,22.333L103.592,22.333L104.059,22.333L104.555,22.333L105.568,22.333L106.08,22.333L106.621,22.333L107.087,22.333L107.585,22.333L108.598,22.333L109.11,22.333L109.65,22.333L110.119,22.333L110.613,22.333L111.626,22.333L112.135,22.333L112.671,22.333L113.139,22.333L113.642,22.333L114.657,22.333L115.162,22.333L115.7,22.333L116.172,22.333L116.673,22.333L117.689,22.333L118.204,22.333L118.744,22.333L119.204,22.333L119.706,22.333L120.718,22.333L121.232,22.333L121.771,22.333L122.24,22.333L122.736,22.333L123.748,22.333L124.263,22.333L124.802,22.333L125.272,22.333L125.763,22.333L126.778,22.333L127.294,22.333L127.834,22.333L128.302,22.333L128.792,22.333L129.807,22.333L130.322,22.333L130.86,22.333L131.328,22.333L131.823,22.333L132.836,22.333L133.341,22.333L133.878,22.333L134.35,22.333L134.853,22.333L135.866,22.333L136.372,22.333L136.909,22.333L137.378,22.333L137.882,22.333L138.899,22.333L139.415,22.333L139.954,22.333L140.408,22.333L140.914,22.333L141.928,22.333L142.446,22.333L142.984,22.333L143.448,22.333L143.944,22.333L144.959,22.333L145.474,22.333L146.014,22.333L146.479,22.333L146.974,22.333L147.985,22.333L148.498,22.333L149.036,22.333L149.508,22.333L150.003,22.333L151.014,22.333L151.528,22.333L152.065,22.333L152.537,22.333L153.032,22.333L154.043,22.333L154.552,22.333L155.087,22.333L155.56,22.333L156.061,22.333L157.072,22.333L157.58,22.333L158.118,22.333L158.59,22.333L159.092,22.333L160.106,22.333L160.621,22.333L161.161,22.333L161.629,22.333L162.125,22.333L163.136,22.333L163.65,22.333L164.192,22.333L164.658,22.333L165.154,22.333L166.167,22.333L166.682,22.333L167.223,22.333L167.689,22.333L168.184,22.333L169.198,22.333L169.713,22.333L170.253,22.333L170.723,22.333L171.214,22.333L172.227,22.333L172.74,22.333L173.279,22.333L173.747,22.333L174.244,22.333L175.254,22.333L175.761,22.333L176.296,22.333L176.767,22.333L177.271,22.333L178.284,22.333L178.791,22.333L179.327,22.333L179.8,22.333L180.301,22.333L181.32,22.333L181.836,22.333L182.374,22.333L182.84,22.333L183.333,22.333L184.346,22.333L184.86,22.333L185.419,22.333L185.869,22.333L186.365,22.333L187.377,22.333L187.896,22.333L188.453,22.333L188.897,22.333L189.396,22.333L190.408,22.333L190.925,22.333L191.479,22.333L191.93,22.333L192.424,22.333L193.437,22.333L193.951,22.333L194.49,22.333L194.958,22.333L195.453,22.333L196.464,22.333L196.974,22.333L197.508,22.333L197.98,22.333L198.481,22.333L199.497,22.333L200,22.333" stroke="#e45756" stroke-width="2"/></g></g><path class="foreground" aria-hidden="true" d="" display="none"/></g></g><g class="mark-group role-legend" role="graphics-symbol" aria-roledescription="legend" aria-label="Symbol legend titled 'identifier' for stroke color with 16 values: devote-1-2022, silex-400-oak-bork-2026, silex-400-warm-slate-grey-2026, devote-1-2024, fastroad-ar-2, ending with allure-rs-2-2024"><g transform="translate(220,0)"><path class="background" aria-hidden="true" d="M0,0h256v222h-256Z" pointer-events="none"/><g><g class="mark-group role-legend-entry"><g transform="translate(0,16)"><path class="background" aria-hidden="true" d="M0,0h0v0h0Z" pointer-events="none"/><g><g class="mark-group role-scope" role="graphics-object" aria-roledescription="group mark container"><g transform="translate(0,0)"><path class="background" aria-hidden="true" d="M0,0h256v11h-256Z" pointer-events="none" opacity="1"/><g><g class="mark-symbol role-legend-symbol" pointer-events="none"><path transform="translate(6,6)" d="M-5,0L5,0" stroke="#4c78a8" stroke-width="1.5" opacity="1"/></g><g class="mark-text role-legend-label" pointer-events="none"><text text-anchor="start" transform="translate(16,9)" font-family="Liberation Mono" font-size="10px" fill="#000" opacity="1">devote-1-2022</text></g></g><path class="foreground" aria-hidden="true" d="" pointer-events="none" display="none"/></g><g transform="translate(0,13)"><path class="background" aria-hidden="true" d="M0,0h256v11h-256Z" pointer-events="none" opacity="1"/><g><g class="mark-symbol role-legend-symbol" pointer-events="none"><path transform="translate(6,6)" d="M-5,0L5,0" stroke="#f58518" stroke-width="1.5" opacity="1"/></g><g class="mark-text role-legend-label" pointer-events="none"><text text-anchor="start" transform="translate(16,9)" font-family="Liberation Mono" font-size="10px" fill="#000" opacity="1">silex-400-oak-bork-2026</text></g></g><path class="foreground" aria-hidden="true" d="" pointer-events="none" display="none"/></g><g transform="translate(0,26)"><path class="background" aria-hidden="true" d="M0,0h256v11h-256Z" pointer-events="none" opacity="1"/><g><g class="mark-symbol role-legend-symbol" pointer-events="none"><path transform="translate(6,6)" d="M-5,0L5,0" stroke="#e45756" stroke-width="1.5" opacity="1"/></g><g class="mark-text role-legend-label" pointer-events="none"><text text-anchor="start" transform="translate(16,9)" font-family="Liberation Mono" font-size="10px" fill="#000" opacity="1">silex-400-warm-slate-grey-2026</text></g></g><path class="foreground" aria-hidden="true" d="" pointer-events="none" display="none"/></g><g transform="translate(0,39)"><path class="background" aria-hidden="true" d="M0,0h256v11h-256Z" pointer-events="none" opacity="1"/><g><g class="mark-symbol role-legend-symbol" pointer-events="none"><path transform="translate(6,6)" d="M-5,0L5,0" stroke="#72b7b2" stroke-width="1.5" opacity="1"/></g><g class="mark-text role-legend-label" pointer-events="none"><text text-anchor="start" transform="translate(16,9)" font-family="Liberation Mono" font-size="10px" fill="#000" opacity="1">devote-1-2024</text></g></g><path class="foreground" aria-hidden="true" d="" pointer-events="none" display="none"/></g><g transform="translate(0,52)"><path class="background" aria-hidden="true" d="M0,0h256v11h-256Z" pointer-events="none" opacity="1"/><g><g class="mark-symbol role-legend-symbol" pointer-events="none"><path transform="translate(6,6)" d="M-5,0L5,0" stroke="#54a24b" stroke-width="1.5" opacity="1"/></g><g class="mark-text role-legend-label" pointer-events="none"><text text-anchor="start" transform="translate(16,9)" font-family="Liberation Mono" font-size="10px" fill="#000" opacity="1">fastroad-ar-2</text></g></g><path class="foreground" aria-hidden="true" d="" pointer-events="none" display="none"/></g><g transform="translate(0,65)"><path class="background" aria-hidden="true" d="M0,0h256v11h-256Z" pointer-events="none" opacity="1"/><g><g class="mark-symbol role-legend-symbol" pointer-events="none"><path transform="translate(6,6)" d="M-5,0L5,0" stroke="#eeca3b" stroke-width="1.5" opacity="1"/></g><g class="mark-text role-legend-label" pointer-events="none"><text text-anchor="start" transform="translate(16,9)" font-family="Liberation Mono" font-size="10px" fill="#000" opacity="1">thrive-2</text></g></g><path class="foreground" aria-hidden="true" d="" pointer-events="none" display="none"/></g><g transform="translate(0,78)"><path class="background" aria-hidden="true" d="M0,0h256v11h-256Z" pointer-events="none" opacity="1"/><g><g class="mark-symbol role-legend-symbol" pointer-events="none"><path transform="translate(6,6)" d="M-5,0L5,0" stroke="#b279a2" stroke-width="1.5" opacity="1"/></g><g class="mark-text role-legend-label" pointer-events="none"><text text-anchor="start" transform="translate(16,9)" font-family="Liberation Mono" font-size="10px" fill="#000" opacity="1">allure-rs-1-2023</text></g></g><path class="foreground" aria-hidden="true" d="" pointer-events="none" display="none"/></g><g transform="translate(0,91)"><path class="background" aria-hidden="true" d="M0,0h256v11h-256Z" pointer-events="none" opacity="1"/><g><g class="mark-symbol role-legend-symbol" pointer-events="none"><path transform="translate(6,6)" d="M-5,0L5,0" stroke="#ff9da6" stroke-width="1.5" opacity="1"/></g><g class="mark-text role-legend-label" pointer-events="none"><text text-anchor="start" transform="translate(16,9)" font-family="Liberation Mono" font-size="10px" fill="#000" opacity="1">roam-2</text></g></g><path class="foreground" aria-hidden="true" d="" pointer-events="none" display="none"/></g><g transform="translate(0,104)"><path class="background" aria-hidden="true" d="M0,0h256v11h-256Z" pointer-events="none" opacity="1"/><g><g class="mark-symbol role-legend-symbol" pointer-events="none"><path transform="translate(6,6)" d="M-5,0L5,0" stroke="#9d755d" stroke-width="1.5" opacity="1"/></g><g class="mark-text role-legend-label" pointer-events="none"><text text-anchor="start" transform="translate(16,9)" font-family="Liberation Mono" font-size="10px" fill="#000" opacity="1">fastroad-sl-3-2022</text></g></g><path class="foreground" aria-hidden="true" d="" pointer-events="none" display="none"/></g><g transform="translate(0,117)"><path class="background" aria-hidden="true" d="M0,0h256v11h-256Z" pointer-events="none" opacity="1"/><g><g class="mark-symbol role-legend-symbol" pointer-events="none"><path transform="translate(6,6)" d="M-5,0L5,0" stroke="#bab0ac" stroke-width="1.5" opacity="1"/></g><g class="mark-text role-legend-label" pointer-events="none"><text text-anchor="start" transform="translate(16,9)" font-family="Liberation Mono" font-size="10px" fill="#000" opacity="1">allure-rs-2-2023</text></g></g><path class="foreground" aria-hidden="true" d="" pointer-events="none" display="none"/></g><g transform="translate(0,130)"><path class="background" aria-hidden="true" d="M0,0h256v11h-256Z" pointer-events="none" opacity="1"/><g><g class="mark-symbol role-legend-symbol" pointer-events="none"><path transform="translate(6,6)" d="M-5,0L5,0" stroke="#4c78a8" stroke-width="1.5" opacity="1"/></g><g class="mark-text role-legend-label" pointer-events="none"><text text-anchor="start" transform="translate(16,9)" font-family="Liberation Mono" font-size="10px" fill="#000" opacity="1">escape-city-disc-1-2024</text></g></g><path class="foreground" aria-hidden="true" d="" pointer-events="none" display="none"/></g><g transform="translate(0,143)"><path class="background" aria-hidden="true" d="M0,0h256v11h-256Z" pointer-events="none" opacity="1"/><g><g class="mark-symbol role-legend-symbol" pointer-events="none"><path transform="translate(6,6)" d="M-5,0L5,0" stroke="#f58518" stroke-width="1.5" opacity="1"/></g><g class="mark-text role-legend-label" pointer-events="none"><text text-anchor="start" transform="translate(16,9)" font-family="Liberation Mono" font-size="10px" fill="#000" opacity="1">sdrbike-escape-1-city-disc</text></g></g><path class="foreground" aria-hidden="true" d="" pointer-events="none" display="none"/></g><g transform="translate(0,156)"><path class="background" aria-hidden="true" d="M0,0h256v11h-256Z" pointer-events="none" opacity="1"/><g><g class="mark-symbol role-legend-symbol" pointer-events="none"><path transform="translate(6,6)" d="M-5,0L5,0" stroke="#e45756" stroke-width="1.5" opacity="1"/></g><g class="mark-text role-legend-label" pointer-events="none"><text text-anchor="start" transform="translate(16,9)" font-family="Liberation Mono" font-size="10px" fill="#000" opacity="1">roam-disc-2-2024</text></g></g><path class="foreground" aria-hidden="true" d="" pointer-events="none" display="none"/></g><g transform="translate(0,169)"><path class="background" aria-hidden="true" d="M0,0h256v11h-256Z" pointer-events="none" opacity="1"/><g><g class="mark-symbol role-legend-symbol" pointer-events="none"><path transform="translate(6,6)" d="M-5,0L5,0" stroke="#72b7b2" stroke-width="1.5" opacity="1"/></g><g class="mark-text role-legend-label" pointer-events="none"><text text-anchor="start" transform="translate(16,9)" font-family="Liberation Mono" font-size="10px" fill="#000" opacity="1">rove-2</text></g></g><path class="foreground" aria-hidden="true" d="" pointer-events="none" display="none"/></g><g transform="translate(0,182)"><path class="background" aria-hidden="true" d="M0,0h256v11h-256Z" pointer-events="none" opacity="1"/><g><g class="mark-symbol role-legend-symbol" pointer-events="none"><path transform="translate(6,6)" d="M-5,0L5,0" stroke="#54a24b" stroke-width="1.5" opacity="1"/></g><g class="mark-text role-legend-label" pointer-events="none"><text text-anchor="start" transform="translate(16,9)" font-family="Liberation Mono" font-size="10px" fill="#000" opacity="1">allure-rs-2-2022</text></g></g><path class="foreground" aria-hidden="true" d="" pointer-events="none" display="none"/></g><g transform="translate(0,195)"><path class="background" aria-hidden="true" d="M0,0h256v11h-256Z" pointer-events="none" opacity="1"/><g><g class="mark-symbol role-legend-symbol" pointer-events="none"><path transform="translate(6,6)" d="M-5,0L5,0" stroke="#eeca3b" stroke-width="1.5" opacity="1"/></g><g class="mark-text role-legend-label" pointer-events="none"><text text-anchor="start" transform="translate(16,9)" font-family="Liberation Mono" font-size="10px" fill="#000" opacity="1">allure-rs-2-2024</text></g></g><path class="foreground" aria-hidden="true" d="" pointer-events="none" display="none"/></g></g></g><path class="foreground" aria-hidden="true" d="" pointer-events="none" display="none"/></g></g><g class="mark-text role-legend-title" pointer-events="none"><text text-anchor="start" transform="translate(0,9)" font-family="Liberation Mono" font-size="11px" font-weight="bold" fill="#000" opacity="1">identifier</text></g></g><path class="foreground" aria-hidden="true" d="" pointer-events="none" display="none"/></g></g></g><path class="foreground" aria-hidden="true" d="" display="none"/></g></g></g></svg>