<svg xmlns="http://www.w3.org/2000/svg" xmlns:xlink="http://www.w3.org/1999/xlink" version="1.1" class="marks" width="460" height="242" viewBox="0 0 460 242"><rect width="460" height="242" fill="white"/><g fill="none" stroke-miterlimit="10" transform="translate(67,5)"><g class="mark-group role-frame root" role="graphics-object" aria-roledescription="group mark container"><g transform="translate(0,0)"><path class="background" aria-hidden="true" d="M0.5,0.5h200v200h-200Z" stroke="#ddd"/><g><g class="mark-group role-axis" aria-hidden="true"><g transform="translate(0.5,200.5)"><path class="background" aria-hidden="true" d="M0,0h0v0h0Z" pointer-events="none"/><g><g class="mark-rule role-axis-grid" pointer-events="none"><line transform="translate(64,-200)" x2="0" y2="200" stroke="#ddd" stroke-width="1" opacity="1"/><line transform="translate(129,-200)" x2="0" y2="200" stroke="#ddd" stroke-width="1" opacity="1"/><line transform="translate(194,-200)" x2="0" y2="200" stroke="#ddd" stroke-width="1" opacity="1"/></g></g><path class="foreground" aria-hidden="true" d="" pointer-events="none" display="none"/></g></g><g class="mark-group role-axis" aria-hidden="true"><g transform="translate(0.5,0.5)"><path class="background" aria-hidden="true" d="M0,0h0v0h0Z" pointer-events="none"/><g><g class="mark-rule role-axis-grid" pointer-events="none"><line transform="translate(0,200)" x2="200" y2="0" stroke="#ddd" stroke-width="1" opacity="1"/><line transform="translate(0,162)" x2="200" y2="0" stroke="#ddd" stroke-width="1" opacity="1"/><line transform="translate(0,123)" x2="200" y2="0" stroke="#ddd" stroke-width="1" opacity="1"/><line transform="translate(0,85)" x2="200" y2="0" stroke="#ddd" stroke-width="1" opacity="1"/><line transform="translate(0,46)" x2="200" y2="0" stroke="#ddd" stroke-width="1" opacity="1"/><line transform="translate(0,8)" x2="200" y2="0" stroke="#ddd" stroke-width="1" opacity="1"/></g></g><path class="foreground" aria-hidden="true" d="" pointer-events="none" display="none"/></g></g><g class="mark-group role-axis" role="graphics-symbol" aria-roledescription="axis" aria-label="X-axis titled 'Time' for a time scale with values from Monday, 01 January 2024, 2:19:43 PM to Wednesday, 09 October 2024, 8:40:48 PM"><g transform="translate(0.5,200.5)"><path class="background" aria-hidden="true" d="M0,0h0v0h0Z" pointer-events="none"/><g><g class="mark-rule role-axis-tick" pointer-events="none"><line transform="translate(64,0)" x2="0" y2="5" stroke="#888" stroke-width="1" opacity="1"/><line transform="translate(129,0)" x2="0" y2="5" stroke="#888" stroke-width="1" opacity="1"/><line transform="translate(194,0)" x2="0" y2="5" stroke="#888" stroke-width="1" opacity="1"/></g><g class="mark-text role-axis-label" pointer-events="none"><text text-anchor="middle" transform="translate(64.05546917799376,15)" font-family="Liberation Mono" font-size="10px" fill="#000" opacity="1">April</text><text text-anchor="middle" transform="translate(128.53396465452042,15)" font-family="Liberation Mono" font-size="10px" fill="#000" opacity="1">July</text><text text-anchor="middle" transform="translate(193.72101502639353,15)" font-family="Liberation Mono" font-size="10px" fill="#000" opacity="1">October</text></g><g class="mark-rule role-axis-domain" pointer-events="none"><line transform="translate(0,0)" x2="200" y2="0" stroke="#888" stroke-width="1" opacity="1"/></g><g class="mark-text role-axis-title" pointer-events="none"><text text-anchor="middle" transform="translate(100,30)" font-family="Liberation Mono" font-size="11px" font-weight="bold" fill="#000" opacity="1">Time</text></g></g><path class="foreground" aria-hidden="true" d="" pointer-events="none" display="none"/></g></g><g class="mark-group role-axis" role="graphics-symbol" aria-roledescription="axis" aria-label="Y-axis titled 'Price' for a linear scale with values from 0 to 2,600"><g transform="translate(0.5,0.5)"><path class="background" aria-hidden="true" d="M0,0h0v0h0Z" pointer-events="none"/><g><g class="mark-rule role-axis-tick" pointer-events="none"><line transform="translate(0,200)" x2="-5" y2="0" stroke="#888" stroke-width="1" opacity="1"/><line transform="translate(0,162)" x2="-5" y2="0" stroke="#888" stroke-width="1" opacity="1"/><line transform="translate(0,123)" x2="-5" y2="0" stroke="#888" stroke-width="1" opacity="1"/><line transform="translate(0,85)" x2="-5" y2="0" stroke="#888" stroke-width="1" opacity="1"/><line transform="translate(0,46)" x2="-5" y2="0" stroke="#888" stroke-width="1" opacity="1"/><line transform="translate(0,8)" x2="-5" y2="0" stroke="#888" stroke-width="1" opacity="1"/></g><g class="mark-text role-axis-label" pointer-events="none"><text text-anchor="end" transform="translate(-7,203)" font-family="Liberation Mono" font-size="10px" fill="#000" opacity="1">0</text><text text-anchor="end" transform="translate(-7,164.53846153846155)" font-family="Liberation Mono" font-size="10px" fill="#000" opacity="1">500</text><text text-anchor="end" transform="translate(-7,126.07692307692308)" font-family="Liberation Mono" font-size="10px" fill="#000" opacity="1">1,000</text><text text-anchor="end" transform="translate(-7,87.61538461538463)" font-family="Liberation Mono" font-size="10px" fill="#000" opacity="1">1,500</text><text text-anchor="end" transform="translate(-7,49.153846153846146)" font-family="Liberation Mono" font-size="10px" fill="#000" opacity="1">2,000</text><text text-anchor="end" transform="translate(-7,10.692307692307686)" font-family="Liberation Mono" font-size="10px" fill="#000" opacity="1">2,500</text></g><g class="mark-rule role-axis-domain" pointer-events="none"><line transform="translate(0,200)" x2="0" y2="-200" stroke="#888" stroke-width="1" opacity="1"/></g><g class="mark-text role-axis-title" pointer-events="none"><text text-anchor="middle" transform="translate(-51,100) rotate(-90) translate(0,-2)" font-family="Liberation Mono" font-size="11px" font-weight="bold" fill="#000" opacity="1">Price</text></g></g><path class="foreground" aria-hidden="true" d="" pointer-events="none" display="none"/></g></g><g class="mark-group role-scope pathgroup" role="graphics-object" aria-roledescription="group mark container"><g transform="translate(0,0)"><path class="background" aria-hidden="true" d="M0,0h200v200h-200Z"/><g><g class="mark-line role-mark marks" role="graphics-object" aria-roledescription="line mark container"><path aria-label="Time: Jan 01, 2024; Price: 2399; identifier: altex-LG-F2WR508SBW" role="graphics-symbol" aria-roledescription="line mark" d="M0,15.462L0.074,15.462L0.186,15.462L0.423,15.462L0.541,15.462L0.665,15.462L0.778,15.462L0.895,15.462L1.131,15.462L1.249,15.462L1.374,15.462L1.486,15.462L1.603,15.462L1.84,15.462L1.958,15.462L2.082,15.462L2.196,15.462L2.312,15.462L2.549,34.692L2.667,34.692L2.791,34.692L2.904,34.692L3.02,34.692L3.257,34.692L3.375,34.692L3.499,34.692L3.612,34.692L3.729,34.692L3.966,34.692L4.083,34.692L4.207,34.692L4.321,34.692L4.438,34.692L4.674,34.692L4.793,34.692L4.917,34.692L5.03,34.692L5.146,34.692L5.383,34.692L5.501,34.692L5.627,34.692L5.739,34.692L5.855,34.692L6.092,34.692L6.21,34.692L6.334,34.692L6.447,34.692L6.563,34.692L6.8,34.692L6.918,34.692L7.043,34.692L7.156,34.692L7.272,34.692L7.509,34.692L7.627,34.692L7.751,34.692L7.864,34.692L7.98,34.692L8.217,46.231L8.335,46.231L8.458,46.231L8.572,46.231L8.689,46.231L8.926,46.231L9.043,46.231L9.167,46.231L9.28,46.231L9.397,46.231L9.635,46.231L9.753,46.231L9.877,46.231L9.99,46.231L10.106,46.231L10.343,46.231L10.461,46.231L10.586,46.231L10.699,46.231L10.815,46.231L11.051,46.231L11.17,46.231L11.294,46.231L11.407,46.231L11.523,46.231L11.76,46.231L11.878,46.231L12.003,46.231L12.115,46.231L12.232,46.231L12.469,46.231L12.587,46.231L12.711,46.231L12.824,46.231L12.94,46.231L13.177,46.231L13.294,46.231L13.418,46.231L13.532,46.231L13.649,46.231L13.885,46.231L14.003,46.231L14.127,46.231L14.24,46.231L14.357,46.231L14.595,46.231L14.713,46.231L14.838,46.231L14.95,46.231L15.066,46.231L15.303,46.231L15.421,46.231L15.546,46.231L15.659,46.231L15.774,46.231L16.012,46.231L16.13,46.231L16.254,46.231L16.367,46.231L16.483,46.231L16.72,46.231L16.838,46.231L16.963,46.231L17.076,46.231L17.192,46.231L17.428,46.231L17.547,46.231L17.669,46.231L17.782,46.231L17.901,46.231L18.136,46.231L18.255,46.231L18.376,46.231L18.491,46.231L18.609,46.231L18.845,46.231L18.963,46.231L19.085,46.231L19.199,46.231L19.317,46.231L19.553,46.231L19.672,46.231L19.794,46.231L19.908,46.231L20.026,46.231L20.262,46.231L20.38,46.231L20.503,46.231L20.618,46.231L20.734,46.231L20.97,46.231L21.089,46.231L21.212,46.231L21.325,46.231L21.443,46.231L21.679,34.692L21.797,34.692L21.92,34.692L22.033,34.692L22.151,34.692L22.388,34.692L22.506,34.692L22.629,34.692L22.742,34.692L22.86,34.692L23.096,34.692L23.214,34.692L23.336,34.692L23.45,34.692L23.569,34.692L23.805,34.692L23.923,34.692L24.045,34.692L24.159,34.692L24.277,34.692L24.513,34.692L24.632,34.692L24.755,34.692L24.868,34.692L24.986,34.692L25.222,34.692L25.34,34.692L25.463,34.692L25.576,34.692L25.694,34.692L25.93,34.692L26.049,34.692L26.171,34.692L26.285,34.692L26.403,34.692L26.639,34.692L26.757,34.692L26.88,34.692L26.994,34.692L27.111,34.692L27.348,34.692L27.466,34.692L27.588,34.692L27.702,34.692L27.82,34.692L28.056,34.692L28.174,34.692L28.296,34.692L28.41,34.692L28.529,34.692L28.765,34.692L28.883,34.692L29.005,34.692L29.119,34.692L29.237,34.692L29.473,34.692L29.591,34.692L29.715,34.692L29.828,34.692L29.946,34.692L30.182,34.692L30.3,34.692L30.423,34.692L30.538,34.692L30.654,34.692L30.89,34.692L31.008,34.692L31.131,34.692L31.245,34.692L31.363,34.692L31.717,34.692L31.84,34.692L31.953,34.692L32.071,34.692L32.308,34.692L32.426,34.692L32.548,34.692L32.662,34.692L32.78,34.692L33.016,34.692L33.134,34.692L33.256,34.692L33.37,34.692L33.488,34.692L33.725,34.692L33.843,34.692L33.965,34.692L34.079,34.692L34.197,34.692L34.433,34.692L34.552,34.692L34.675,34.692L34.789,34.692L34.905,34.692L35.142,34.692L35.26,34.692L35.382,34.692L35.496,34.692L35.614,34.692L35.85,34.692L35.968,34.692L36.091,34.692L36.205,34.692L36.323,34.692L36.559,34.692L36.677,34.692L36.8,34.692L36.914,34.692L37.031,34.692L37.267,34.692L37.385,34.692L37.508,34.692L37.622,34.692L37.74,34.692L37.976,34.692L38.094,34.692L38.216,34.692L38.33,34.692L38.448,34.692L38.684,34.692L38.803,34.692L38.924,34.692L39.039,34.692L39.157,34.692L39.393,34.692L39.511,34.692L39.634,34.692L39.748,34.692L39.865,34.692L40.102,34.692L40.22,34.692L40.342,34.692L40.456,34.692L40.574,34.692L40.81,34.692L40.928,34.692L41.051,34.692L41.165,34.692L41.283,34.692L41.519,34.692L41.637,34.692L41.759,34.692L41.873,34.692L41.991,34.692L42.227,34.692L42.346,34.692L42.468,34.692L42.582,34.692L42.7,34.692L42.936,34.692L43.054,34.692L43.176,34.692L43.29,34.692L43.408,34.692L43.644,34.692L43.762,34.692L43.884,34.692L43.999,34.692L44.117,34.692L44.364,34.692L44.525,34.692L44.596,34.692L44.708,34.692L44.825,34.692L45.061,34.692L45.179,34.692L45.303,34.692L45.416,34.692L45.534,34.692L45.77,34.692L45.889,34.692L46.011,34.692L46.125,34.692L46.242,34.692L46.478,34.692L46.597,34.692L46.719,34.692L46.833,34.692L46.951,34.692L47.187,34.692L47.307,34.692L47.428,34.692L47.541,34.692L47.659,34.692L47.896,34.692L48.014,34.692L48.135,34.692L48.251,34.692L48.368,34.692L48.604,34.692L48.723,34.692L48.844,34.692L48.959,34.692L49.076,34.692L49.313,34.692L49.431,34.692L49.554,34.692L49.668,34.692L49.785,34.692L50.021,34.692L50.139,34.692L50.262,34.692L50.377,34.692L50.494,34.692L50.73,34.692L50.849,34.692L50.971,34.692L51.084,34.692L51.202,34.692L51.438,34.692L51.557,34.692L51.68,34.692L51.793,34.692L51.911,34.692L52.147,34.692L52.266,34.692L52.388,34.692L52.502,34.692L52.619,34.692L52.856,34.692L52.974,34.692L53.096,34.692L53.21,34.692L53.328,34.692L53.564,34.692L53.683,34.692L53.804,34.692L53.918,34.692L54.037,34.692L54.273,34.692L54.391,34.692L54.515,34.692L54.628,34.692L54.746,34.692L54.982,34.692L55.099,34.692L55.222,34.692L55.337,34.692L55.453,34.692L55.69,34.692L55.808,34.692L55.931,34.692L56.046,34.692L56.163,34.692L56.398,34.692L56.517,34.692L56.64,34.692L56.754,34.692L56.871,34.692L57.107,34.692L57.225,34.692L57.348,34.692L57.462,34.692L57.579,34.692L57.816,34.692L57.933,34.692L58.056,34.692L58.17,34.692L58.288,34.692L58.524,34.692L58.642,34.692L58.765,34.692L58.878,34.692L58.996,34.692L59.233,34.692L59.351,34.692L59.474,34.692L59.587,34.692L59.705,34.692L59.941,34.692L60.06,34.692L60.182,34.692L60.296,34.692L60.413,34.692L60.651,34.692L60.768,34.692L60.891,34.692L61.006,34.692L61.122,34.692L61.358,34.692L61.476,34.692L61.6,34.692L61.713,34.692L61.83,34.692L62.067,34.692L62.185,34.692L62.308,34.692L62.422,34.692L62.539,34.692L62.775,34.692L62.893,34.692L63.015,34.692L63.13,34.692L63.248,34.692L63.484,34.692L63.603,34.692L63.724,34.692L63.839,34.692L63.956,34.692L64.192,34.692L64.311,34.692L64.434,34.692L64.548,34.692L64.665,34.692L64.901,34.692L65.019,34.692L65.143,34.692L65.256,34.692L65.373,34.692L65.609,34.692L65.728,34.692L65.851,34.692L65.965,34.692L66.082,34.692L66.318,34.692L66.437,34.692L66.559,34.692L66.673,34.692L66.791,34.692L67.028,34.692L67.268,34.692L67.382,34.692L67.499,34.692L67.736,34.692L67.854,34.692L67.975,34.692L68.09,34.692L68.208,34.692L68.444,34.692L68.562,34.692L68.684,34.692L68.798,34.692L68.916,34.692L69.153,34.692L69.27,34.692L69.394,34.692L69.508,34.692L69.625,34.692L69.861,34.692L69.979,34.692L70.102,34.692L70.216,34.692L70.333,34.692L70.569,34.692L70.688,34.692L70.811,34.692L70.926,34.692L71.043,34.692L71.279,34.692L71.397,34.692L71.52,34.692L71.751,34.692L71.987,34.692L72.105,34.692L72.228,34.692L72.341,34.692L72.459,34.692L72.695,34.692L72.813,34.692L72.934,34.692L73.049,34.692L73.167,34.692L73.414,34.692L73.596,34.692L73.707,34.692L73.936,34.692L74.114,34.692L74.23,34.692L74.352,34.692L74.466,34.692L74.585,34.692L74.821,34.692L74.939,34.692L75.063,34.692L75.175,34.692L75.293,34.692L75.529,34.692L75.647,34.692L75.771,34.692L75.885,34.692L76.002,34.692L76.356,34.692L76.479,34.692L76.593,34.692L76.711,34.692L76.946,34.692L77.065,34.692L77.188,34.692L77.302,34.692L77.419,34.692L77.655,34.692L77.773,34.692L77.896,34.692L78.009,34.692L78.127,34.692L78.364,34.692L78.482,34.692L78.604,34.692L78.718,34.692L78.836,34.692L79.072,34.692L79.191,34.692L79.314,34.692L79.427,34.692L79.544,34.692L79.781,34.692L79.899,34.692L80.023,34.692L80.136,34.692L80.253,34.692L80.489,34.692L80.608,34.692L80.735,34.692L80.844,34.692L80.962,34.692L81.198,34.692L81.316,34.692L81.436,34.692L81.553,34.692L81.67,34.692L81.906,34.692L82.025,34.692L82.148,34.692L82.261,34.692L82.379,34.692L82.615,34.692L82.733,34.692L82.855,34.692L82.969,34.692L83.087,34.692L83.324,34.692L83.442,34.692L83.565,34.692L83.678,34.692L83.796,34.692L84.032,34.692L84.152,34.692L84.274,34.692L84.387,34.692L84.504,34.692L84.741,34.692L84.859,34.692L84.983,34.692L85.096,34.692L85.213,34.692L85.449,34.692L85.569,34.692L85.691,34.692L85.804,34.692L85.921,34.692L86.158,57.769L86.276,57.769L86.4,57.769L86.513,57.769L86.631,57.769L86.867,57.769L86.984,57.769L87.108,57.769L87.221,57.769L87.339,57.769L87.575,57.769L87.693,57.769L87.816,57.769L87.929,57.769L88.047,57.769L88.283,57.769L88.402,57.769L88.525,57.769L88.638,57.769L88.756,57.769L88.992,57.769L89.111,57.769L89.234,57.769L89.348,57.769L89.464,57.769L89.7,57.769L89.819,57.769L89.942,57.769L90.056,57.769L90.173,57.769L90.409,57.769L90.528,57.769L90.653,57.769L90.765,57.769L90.881,57.769L91.118,34.692L91.237,34.692L91.36,34.692L91.474,34.692L91.59,34.692L91.826,34.692L91.944,34.692L92.069,34.692L92.181,34.692L92.298,34.692L92.535,34.692L92.653,34.692L92.776,34.692L92.889,34.692L93.007,34.692L93.244,34.692L93.361,34.692L93.485,34.692L93.598,34.692L93.716,34.692L93.952,34.692L94.071,34.692L94.195,34.692L94.307,34.692L94.424,34.692L94.66,34.692L94.779,34.692L94.903,34.692L95.016,34.692L95.133,34.692L95.369,34.692L95.488,34.692L95.612,34.692L95.724,34.692L95.841,34.692L96.077,34.692L96.196,34.692L96.321,34.692L96.433,34.692L96.55,34.692L96.786,34.692L96.904,34.692L97.029,34.692L97.142,34.692L97.258,34.692L97.494,34.692L97.613,34.692L97.737,34.692L97.849,34.692L97.967,34.692L98.204,34.692L98.321,34.692L98.445,34.692L98.558,34.692L98.676,34.692L98.913,34.692L99.03,34.692L99.155,34.692L99.267,34.692L99.384,34.692L99.62,34.692L99.739,34.692L99.864,34.692L99.975,34.692L100.093,34.692L100.329,34.692L100.448,34.692L100.572,34.692L100.685,34.692L100.801,34.692L101.037,34.692L101.156,34.692L101.28,34.692L101.393,34.692L101.51,34.692L101.747,34.692L101.864,34.692L101.989,34.692L102.101,34.692L102.219,34.692L102.455,34.692L102.573,34.692L102.696,34.692L102.809,34.692L102.927,34.692L103.164,34.692L103.281,34.692L103.405,34.692L103.518,34.692L103.636,34.692L103.872,34.692L103.99,34.692L104.115,34.692L104.227,34.692L104.344,34.692L104.583,34.692L104.699,34.692L104.823,34.692L104.936,34.692L105.052,34.692L105.29,34.692L105.408,34.692L105.532,34.692L105.644,34.692L105.761,34.692L105.999,34.692L106.116,34.692L106.24,34.692L106.353,34.692L106.47,34.692L106.707,34.692L106.825,34.692L106.949,34.692L107.061,34.692L107.178,34.692L107.414,34.692L107.533,34.692L107.656,34.692L107.769,34.692L107.887,34.692L108.123,34.692L108.241,34.692L108.365,34.692L108.478,34.692L108.595,34.692L108.832,34.692L108.951,34.692L109.076,34.692L109.187,34.692L109.305,34.692L109.54,34.692L109.659,34.692L109.784,34.692L109.896,34.692L110.013,34.692L110.25,34.692L110.368,34.692L110.492,34.692L110.604,34.692L110.721,34.692L110.958,34.692L111.076,34.692L111.201,34.692L111.312,34.692L111.429,34.692L111.666,34.692L111.785,34.692L111.91,34.692L112.023,34.692L112.138,34.692L112.375,34.692L112.492,34.692L112.616,34.692L112.73,34.692L112.846,34.692L113.083,34.692L113.201,34.692L113.325,34.692L113.438,34.692L113.555,34.692L113.793,34.692L113.911,34.692L114.035,34.692L114.147,34.692L114.264,34.692L114.501,34.692L114.619,34.692L114.744,34.692L114.856,34.692L114.973,34.692L115.209,34.692L115.328,46.231L115.452,46.231L115.564,46.231L115.681,46.231L115.918,46.231L116.036,46.231L116.161,46.231L116.274,46.231L116.39,46.231L116.626,46.231L116.744,46.231L116.869,48.538L116.981,48.538L117.098,48.538L117.335,48.538L117.453,48.538L117.577,48.538L117.689,48.538L117.807,48.538L118.043,48.538L118.161,48.538L118.285,48.538L118.398,48.538L118.515,48.538L118.753,48.538L118.871,48.538L118.995,48.538L119.107,48.538L119.224,48.538L119.46,48.538L119.579,48.538L119.704,48.538L119.816,48.538L119.932,48.538L120.169,48.538L120.288,48.538L120.413,48.538L120.524,48.538L120.641,48.538L120.877,48.538L120.996,48.538L121.12,48.538L121.234,48.538L121.349,48.538L121.587,48.538L121.704,48.538L121.829,48.538L121.941,48.538L122.058,48.538L122.294,48.538L122.412,48.538L122.538,48.538L122.649,48.538L122.766,48.538L123.003,48.538L123.121,48.538L123.245,48.538L123.357,48.538L123.475,48.538L123.712,48.538L123.83,48.538L123.955,48.538L124.067,48.538L124.183,48.538L124.42,48.538L124.539,48.538L124.663,48.538L124.893,48.538L125.13,48.538L125.247,48.538L125.372,48.538L125.484,48.538L125.601,48.538L125.839,48.538L125.956,48.538L126.081,48.538L126.193,48.538L126.309,48.538L126.546,48.538L126.665,48.538L126.789,48.538L126.901,48.538L127.018,48.538L127.255,48.538L127.373,48.538L127.497,48.538L127.609,48.538L127.727,48.538L127.963,48.538L128.081,48.538L128.205,48.538L128.318,48.538L128.435,48.538L128.672,48.538L128.79,48.538L128.916,48.538L129.028,48.538L129.143,48.538L129.381,48.538L129.499,48.538L129.623,48.538L129.736,48.538L129.852,48.538L130.089,48.538L130.207,48.538L130.332,48.538L130.445,48.538L130.56,48.538L130.798,48.538L130.916,48.538L131.04,48.538L131.152,48.538L131.269,48.538L131.507,48.538L131.624,48.538L131.749,48.538L131.861,48.538L131.977,48.538L132.215,48.538L132.332,48.538L132.456,48.538L132.569,48.538L132.686,48.538L132.922,48.538L133.041,48.538L133.165,48.538L133.277,48.538L133.395,48.538L133.632,48.538L133.75,48.538L133.874,48.538L133.987,48.538L134.103,48.538L134.34,48.538L134.459,48.538L134.584,48.538L134.696,48.538L134.812,48.538L135.049,48.538L135.168,48.538L135.292,48.538L135.404,48.538L135.521,48.538L135.758,48.538L135.876,48.538L136.001,48.538L136.112,48.538L136.229,48.538L136.466,48.538L136.584,48.538L136.709,48.538L136.821,48.538L136.938,48.538L137.174,48.538L137.292,48.538L137.416,48.538L137.529,48.538L137.646,48.538L137.884,48.538L138.002,48.538L138.133,48.538L138.244,48.538L138.354,48.538L138.592,48.538L138.71,48.538L138.835,48.538L138.948,48.538L139.063,48.538L139.3,48.538L139.419,48.538L139.542,48.538L139.656,48.538L139.772,48.538L140.008,48.538L140.127,48.538L140.252,48.538L140.365,48.538L140.48,48.538L140.718,48.538L140.836,48.538L140.961,48.538L141.072,48.538L141.189,48.538L141.426,48.538L141.544,48.538L141.669,48.538L141.782,48.538L141.898,48.538L142.135,48.538L142.252,48.538L142.376,48.538L142.489,48.538L142.606,48.538L142.843,48.538L142.96,48.538L143.085,48.538L143.199,48.538L143.314,48.538L143.552,48.538L143.671,48.538L143.795,48.538L143.907,48.538L144.023,48.538L144.26,48.538L144.379,48.538L144.504,48.538L144.616,48.538L144.732,48.538L144.968,27L145.087,27L145.212,27L145.324,27L145.44,27L145.678,27L145.796,27L145.92,27L146.033,27L146.149,27L146.386,27L146.504,27L146.629,27L146.742,27L146.857,27L147.094,27L147.212,27L147.337,27L147.449,27L147.566,27L147.802,27L147.92,27L148.045,27L148.158,27L148.274,27L148.511,27L148.63,27L148.755,27L148.867,27L148.983,27L149.22,27L149.338,27L149.463,27L149.575,27L149.691,27L149.928,27L150.046,27L150.172,27L150.284,27L150.4,27L150.637,27L150.756,27L150.881,27L150.992,27L151.109,27L151.346,27L151.464,27L151.589,27L151.701,27L151.817,27L152.054,27L152.172,27L152.296,27L152.409,27L152.526,27L152.764,27L152.881,27L153.005,27L153.117,27L153.235,27L153.471,27L153.59,27L153.715,27L153.827,27L153.943,27L154.181,27L154.299,27L154.424,27L154.535,27L154.651,27L154.889,27L155.007,27L155.133,27L155.245,27L155.361,27L155.598,27L155.716,27L155.841,27L155.953,27L156.069,27L156.306,27L156.424,27L156.549,27L156.661,27L156.777,27L157.016,27L157.132,27L157.257,27L157.37,27L157.486,27L157.723,27L157.841,27L157.965,27L158.077,27L158.195,27L158.432,27L158.55,27L158.676,27L158.787,27L158.903,27L159.14,27L159.258,27L159.384,27L159.496,27L159.611,27L159.849,27L159.967,27L160.092,27L160.205,27L160.32,27L160.557,27L160.675,27L160.801,27L160.912,27L161.029,27L161.266,27L161.384,27L161.509,27L161.621,27L161.737,27L161.974,27L162.092,27L162.216,27L162.329,27L162.447,27L162.683,27L162.8,27L162.926,27L163.037,27L163.154,27L163.391,27L163.51,27L163.635,27L163.746,27L163.863,27L164.101,27L164.218,27L164.344,27L164.455,27L164.572,27L164.809,27L164.927,27L165.05,27L165.164,27L165.28,27L165.517,27L165.635,27L165.761,27L165.874,27L165.988,27L166.226,27L166.344,27L166.469,27L166.581,27L166.697,27L166.934,27L167.052,27L167.177,27L167.289,27L167.405,27L167.643,27L167.761,27L167.885,27L167.997,27L168.115,27L168.352,27L168.47,27L168.596,27L168.707,27L168.823,27L169.06,27L169.179,27L169.304,27L169.415,27L169.531,27L169.769,27L169.887,27L170.013,27L170.125,27L170.24,27L170.478,27L170.596,27L170.721,27L170.833,27L170.948,27L171.186,27L171.304,27L171.43,27L171.541,27L171.657,27L171.895,27L172.013,27L172.137,27L172.25,27L172.366,27L172.603,27L172.721,27L172.847,27L172.958,27L173.074,27L173.312,27L173.431,27L173.556,27L173.668,27L173.783,27L174.02,27L174.139,27L174.264,27L174.376,27L174.492,27L174.729,27L174.847,27L174.973,27L175.084,27L175.201,27L175.438,27L175.556,27L175.682,27L175.793,27L175.909,27L176.146,27L176.264,27L176.39,27L176.502,27L176.617,27L176.854,27L176.972,27L177.097,27L177.209,27L177.325,27L177.563,27L177.681,27L177.806,27L177.918,27L178.035,27L178.272,27L178.391,27L178.516,27L178.627,27L178.743,27L178.98,27L179.099,27L179.225,27L179.336,27L179.451,27L179.69,27L179.808,27L179.933,27L180.044,27L180.16,27L180.398,27L180.516,27L180.641,27L180.753,27L180.869,27L181.106,27L181.224,27L181.35,27L181.461,27L181.577,27L181.814,46.231L181.933,46.231L182.057,46.231L182.169,46.231L182.286,46.231L182.523,46.231L182.641,46.231L182.766,46.231L182.878,46.231L182.994,46.231L183.233,46.231L183.351,46.231L183.477,46.231L183.588,46.231L183.703,46.231L183.939,46.231L184.059,46.231L184.185,46.231L184.296,46.231L184.411,46.231L184.649,46.231L184.767,46.231L184.893,46.231L185.004,46.231L185.12,46.231L185.358,53.923L185.476,53.923L185.602,53.923L185.713,53.923L185.828,53.923L186.066,53.923L186.184,53.923L186.31,53.923L186.421,53.923L186.537,53.923L186.775,53.923L186.892,53.923L187.017,53.923L187.129,53.923L187.245,53.923L187.484,53.923L187.601,53.923L187.726,53.923L187.838,53.923L187.954,53.923L188.192,53.923L188.311,53.923L188.436,53.923L188.547,53.923L188.663,53.923L188.901,53.923L189.02,53.923L189.146,53.923L189.256,53.923L189.372,53.923L189.609,53.923L189.729,53.923L189.854,53.923L189.966,53.923L190.08,53.923L190.318,23.154L190.437,23.154L190.563,23.154L190.673,23.154L190.789,23.154L191.026,23.154L191.145,23.154L191.271,23.154L191.382,23.154L191.734,23.154L191.852,23.154L191.978,23.154L192.089,23.154L192.205,23.154L192.443,23.154L192.561,23.154L192.686,23.154L192.798,23.154L192.914,23.154L193.152,23.154L193.272,23.154L193.398,23.154L193.508,23.154L193.623,23.154L193.861,23.154L193.98,23.154L194.106,23.154L194.216,23.154L194.332,23.154L194.569,23.154L194.688,23.154L194.814,23.154L194.925,23.154L195.041,23.154L195.278,23.154L195.396,23.154L195.522,23.154L195.633,23.154L195.749,23.154L195.986,23.154L196.105,23.154L196.231,23.154L196.342,23.154L196.457,23.154L196.694,23.154L196.813,23.154L196.938,23.154L197.049,23.154L197.165,23.154L197.403,23.154L197.521,23.154L197.646,23.154L197.757,23.154L197.874,23.154L198.112,23.154L198.231,23.154L198.357,23.154L198.468,23.154L198.583,23.154L198.82,23.154L198.94,23.154L199.065,23.154L199.176,23.154L199.291,23.154L199.529,23.154L199.648,23.154L199.774,23.154L199.884,23.154L200,23.154" stroke="#4c78a8" stroke-width="2"/></g></g><path class="foreground" aria-hidden="true" d="" display="none"/></g><g transform="translate(0,0)"><path class="background" aria-hidden="true" d="M0,0h200v200h-200Z"/><g><g class="mark-line role-mark marks" role="graphics-object" aria-roledescription="line mark container"><path aria-label="Time: Jan 01, 2024; Price: 2499; identifier: altex-LG-F2WR508SBM" role="graphics-symbol" aria-roledescription="line mark" d="M0,7.769L0.074,7.769L0.186,7.769L0.423,7.769L0.541,7.769L0.665,7.769L0.778,7.769L0.895,7.769L1.131,7.769L1.249,7.769L1.374,7.769L1.487,7.769L1.603,7.769L1.84,7.769L1.958,7.769L2.082,7.769L2.196,7.769L2.312,7.769L2.549,27L2.667,27L2.791,27L2.904,27L3.02,27L3.257,27L3.375,27L3.499,27L3.612,27L3.729,27L3.966,27L4.083,27L4.207,27L4.321,27L4.438,27L4.674,27L4.793,27L4.917,27L5.03,27L5.146,27L5.383,27L5.501,27L5.627,27L5.739,27L5.855,27L6.092,27L6.21,27L6.334,27L6.447,27L6.563,27L6.8,27L6.918,27L7.043,27L7.156,27L7.272,27L7.509,27L7.627,27L7.751,27L7.864,27L7.981,27L8.217,38.538L8.335,38.538L8.458,38.538L8.572,38.538L8.689,38.538L8.926,38.538L9.043,38.538L9.167,38.538L9.28,38.538L9.398,38.538L9.635,38.538L9.753,38.538L9.877,38.538L9.99,38.538L10.106,38.538L10.343,38.538L10.461,38.538L10.586,38.538L10.699,38.538L10.815,38.538L11.051,38.538L11.17,38.538L11.294,38.538L11.407,38.538L11.523,38.538L11.76,38.538L11.878,38.538L12.003,38.538L12.115,38.538L12.232,38.538L12.469,38.538L12.587,38.538L12.711,38.538L12.824,38.538L12.94,38.538L13.177,38.538L13.294,38.538L13.418,38.538L13.532,38.538L13.649,38.538L13.885,38.538L14.003,38.538L14.127,38.538L14.24,38.538L14.357,38.538L14.595,38.538L14.713,38.538L14.838,38.538L14.95,38.538L15.066,38.538L15.303,38.538L15.421,38.538L15.546,38.538L15.659,38.538L15.775,38.538L16.012,38.538L16.13,38.538L16.255,38.538L16.367,38.538L16.483,38.538L16.72,38.538L16.838,38.538L16.963,38.538L17.076,38.538L17.192,38.538L17.428,38.538L17.547,38.538L17.669,38.538L17.782,38.538L17.901,38.538L18.136,38.538L18.255,38.538L18.376,38.538L18.491,38.538L18.609,38.538L18.845,38.538L18.963,38.538L19.085,38.538L19.199,38.538L19.317,38.538L19.554,38.538L19.672,38.538L19.794,38.538L19.908,38.538L20.026,38.538L20.262,38.538L20.38,38.538L20.503,38.538L20.618,38.538L20.734,38.538L20.97,38.538L21.089,38.538L21.212,38.538L21.325,38.538L21.443,38.538L21.679,27L21.797,27L21.92,27L22.033,27L22.151,27L22.388,27L22.506,27L22.629,27L22.742,27L22.86,27L23.096,27L23.214,27L23.336,27L23.451,27L23.569,27L23.805,27L23.923,27L24.045,27L24.159,27L24.277,27L24.513,27L24.632,27L24.755,27L24.868,27L24.986,27L25.222,27L25.34,27L25.463,27L25.576,27L25.694,27L25.93,27L26.049,27L26.171,27L26.286,27L26.403,27L26.639,27L26.757,27L26.88,27L26.994,27L27.111,27L27.348,27L27.466,27L27.588,27L27.702,27L27.82,27L28.056,27L28.174,27L28.296,27L28.41,27L28.529,27L28.765,27L28.883,27L29.005,27L29.119,27L29.237,27L29.473,27L29.591,27L29.715,27L29.828,27L29.946,27L30.182,27L30.3,27L30.423,27L30.538,27L30.654,27L30.89,27L31.009,27L31.131,27L31.245,27L31.363,27L31.717,27L31.84,27L31.953,27L32.071,27L32.308,27L32.426,27L32.548,27L32.662,27L32.78,27L33.016,27L33.134,27L33.256,27L33.37,27L33.488,27L33.725,27L33.843,27L33.965,27L34.079,27L34.197,27L34.433,27L34.552,27L34.675,27L34.789,27L34.905,27L35.142,27L35.26,27L35.382,27L35.496,27L35.614,27L35.85,27L35.968,27L36.091,27L36.205,27L36.323,27L36.559,27L36.677,27L36.8,27L36.914,27L37.031,27L37.267,27L37.385,27L37.508,27L37.622,27L37.74,27L37.976,27L38.094,27L38.216,27L38.33,27L38.448,27L38.684,27L38.803,27L38.924,27L39.039,27L39.157,27L39.393,27L39.512,27L39.634,27L39.748,27L39.865,27L40.102,27L40.22,27L40.342,27L40.456,27L40.574,27L40.81,27L40.928,27L41.051,27L41.165,27L41.283,27L41.519,27L41.637,27L41.759,27L41.873,27L41.991,27L42.227,27L42.346,27L42.468,27L42.582,27L42.7,27L42.936,27L43.054,27L43.176,27L43.29,27L43.408,27L43.644,27L43.762,27L43.884,27L43.999,27L44.117,27L44.364,27L44.525,27L44.596,27L44.708,27L44.825,27L45.061,27L45.179,27L45.303,27L45.416,27L45.534,27L45.77,27L45.889,27L46.011,27L46.125,27L46.242,27L46.478,27L46.597,27L46.719,38.538L46.833,38.538L46.951,38.538L47.187,38.538L47.307,38.538L47.428,38.538L47.541,38.538L47.659,38.538L47.896,38.538L48.014,38.538L48.135,38.538L48.251,38.538L48.368,38.538L48.604,38.538L48.723,38.538L48.844,38.538L48.959,38.538L49.076,38.538L49.313,38.538L49.431,38.538L49.554,38.538L49.668,38.538L49.785,38.538L50.021,38.538L50.139,38.538L50.262,38.538L50.377,38.538L50.494,38.538L50.73,38.538L50.849,38.538L50.971,38.538L51.084,38.538L51.202,38.538L51.438,38.538L51.557,38.538L51.68,38.538L51.793,38.538L51.911,38.538L52.147,38.538L52.266,38.538L52.388,38.538L52.502,38.538L52.619,38.538L52.856,38.538L52.974,38.538L53.096,38.538L53.21,38.538L53.328,38.538L53.564,38.538L53.683,38.538L53.804,38.538L53.918,38.538L54.037,38.538L54.273,38.538L54.391,38.538L54.515,38.538L54.628,38.538L54.746,38.538L54.982,38.538L55.099,38.538L55.222,38.538L55.337,38.538L55.453,38.538L55.69,38.538L55.808,38.538L55.931,38.538L56.046,38.538L56.163,38.538L56.398,38.538L56.517,38.538L56.64,38.538L56.754,38.538L56.871,38.538L57.107,38.538L57.225,38.538L57.348,38.538L57.462,38.538L57.579,38.538L57.816,38.538L57.933,38.538L58.056,38.538L58.17,38.538L58.288,38.538L58.524,38.538L58.642,38.538L58.765,38.538L58.878,38.538L58.996,38.538L59.233,38.538L59.351,38.538L59.474,38.538L59.587,38.538L59.705,38.538L59.941,38.538L60.06,38.538L60.182,38.538L60.296,38.538L60.413,38.538L60.651,38.538L60.768,38.538L60.891,38.538L61.006,38.538L61.122,38.538L61.358,38.538L61.476,38.538L61.6,38.538L61.713,38.538L61.83,38.538L62.067,38.538L62.185,38.538L62.308,38.538L62.422,38.538L62.539,38.538L62.775,38.538L62.893,38.538L63.015,38.538L63.13,38.538L63.248,38.538L63.484,38.538L63.603,38.538L63.724,38.538L63.839,38.538L63.956,38.538L64.192,38.538L64.311,38.538L64.435,38.538L64.549,38.538L64.665,38.538L64.902,38.538L65.019,38.538L65.143,38.538L65.257,38.538L65.373,38.538L65.609,38.538L65.728,38.538L65.851,38.538L65.965,38.538L66.082,38.538L66.319,38.538L66.437,38.538L66.559,38.538L66.673,38.538L66.791,38.538L67.028,38.538L67.268,38.538L67.382,38.538L67.499,38.538L67.736,38.538L67.854,38.538L67.975,38.538L68.09,38.538L68.208,38.538L68.444,38.538L68.562,38.538L68.684,38.538L68.798,38.538L68.916,38.538L69.153,38.538L69.27,38.538L69.394,38.538L69.508,38.538L69.625,38.538L69.861,38.538L69.979,38.538L70.102,38.538L70.216,38.538L70.333,38.538L70.569,38.538L70.688,38.538L70.811,38.538L70.926,38.538L71.043,38.538L71.279,38.538L71.397,38.538L71.52,38.538L71.751,38.538L71.987,38.538L72.105,38.538L72.228,38.538L72.341,38.538L72.459,38.538L72.695,38.538L72.813,38.538L72.934,38.538L73.049,38.538L73.167,38.538L73.414,38.538L73.596,38.538L73.707,38.538L73.936,38.538L74.114,38.538L74.23,38.538L74.352,38.538L74.466,38.538L74.585,38.538L74.821,38.538L74.939,38.538L75.063,38.538L75.175,38.538L75.293,38.538L75.529,38.538L75.647,38.538L75.771,38.538L75.885,38.538L76.002,38.538L76.356,38.538L76.479,38.538L76.593,38.538L76.711,38.538L76.946,38.538L77.065,38.538L77.188,38.538L77.302,38.538L77.419,38.538L77.655,38.538L77.773,38.538L77.896,38.538L78.01,38.538L78.127,38.538L78.364,38.538L78.482,38.538L78.604,38.538L78.718,38.538L78.836,38.538L79.072,38.538L79.191,38.538L79.314,38.538L79.427,38.538L79.544,38.538L79.781,38.538L79.899,38.538L80.023,38.538L80.136,38.538L80.253,38.538L80.489,38.538L80.608,38.538L80.735,38.538L80.844,38.538L80.962,38.538L81.198,38.538L81.316,38.538L81.436,38.538L81.553,38.538L81.67,38.538L81.906,38.538L82.025,38.538L82.148,38.538L82.261,38.538L82.379,38.538L82.615,38.538L82.733,38.538L82.855,38.538L82.969,38.538L83.087,38.538L83.324,38.538L83.442,38.538L83.565,38.538L83.678,38.538L83.796,38.538L84.032,38.538L84.152,38.538L84.274,38.538L84.387,38.538L84.505,38.538L84.741,38.538L84.859,38.538L84.983,38.538L85.096,38.538L85.213,38.538L85.449,38.538L85.569,38.538L85.691,38.538L85.804,38.538L85.921,38.538L86.158,38.538L86.276,38.538L86.4,38.538L86.513,38.538L86.631,38.538L86.867,38.538L86.984,38.538L87.108,38.538L87.221,38.538L87.339,38.538L87.575,38.538L87.693,38.538L87.816,38.538L87.929,38.538L88.047,38.538L88.283,38.538L88.402,38.538L88.525,38.538L88.638,38.538L88.756,38.538L88.992,38.538L89.111,38.538L89.234,38.538L89.348,38.538L89.464,38.538L89.7,38.538L89.819,38.538L89.942,30.846L90.056,30.846L90.173,30.846L90.409,30.846L90.528,30.846L90.653,30.846L90.765,30.846L90.881,30.846L91.118,30.846L91.237,30.846L91.36,30.846L91.475,30.846L91.59,30.846L91.826,30.846L91.944,30.846L92.069,30.846L92.181,30.846L92.298,30.846L92.535,30.846L92.653,30.846L92.776,30.846L92.889,30.846L93.007,30.846L93.244,30.846L93.361,30.846L93.485,30.846L93.598,30.846L93.716,30.846L93.952,30.846L94.071,30.846L94.195,30.846L94.307,30.846L94.425,30.846L94.66,30.846L94.779,30.846L94.903,30.846L95.016,30.846L95.133,30.846L95.369,30.846L95.488,30.846L95.612,30.846L95.724,30.846L95.841,30.846L96.077,30.846L96.196,30.846L96.321,30.846L96.433,30.846L96.55,30.846L96.786,30.846L96.904,30.846L97.029,30.846L97.142,30.846L97.258,30.846L97.495,30.846L97.613,30.846L97.737,30.846L97.849,30.846L97.967,30.846L98.204,30.846L98.321,30.846L98.445,30.846L98.558,30.846L98.676,30.846L98.913,30.846L99.03,30.846L99.155,30.846L99.267,30.846L99.384,30.846L99.62,30.846L99.739,30.846L99.864,30.846L99.975,30.846L100.093,30.846L100.329,30.846L100.448,30.846L100.572,38.538L100.685,38.538L100.801,38.538L101.037,38.538L101.156,38.538L101.28,38.538L101.393,38.538L101.51,38.538L101.747,38.538L101.864,38.538L101.989,38.538L102.101,38.538L102.219,38.538L102.455,38.538L102.573,38.538L102.696,38.538L102.809,38.538L102.927,38.538L103.164,38.538L103.281,38.538L103.405,38.538L103.518,38.538L103.636,38.538L103.872,38.538L103.99,38.538L104.115,38.538L104.228,38.538L104.344,38.538L104.583,38.538L104.699,38.538L104.823,38.538L104.936,38.538L105.052,38.538L105.29,38.538L105.408,38.538L105.532,38.538L105.644,38.538L105.761,38.538L105.999,38.538L106.116,38.538L106.24,38.538L106.353,38.538L106.47,38.538L106.707,30.846L106.825,30.846L106.949,30.846L107.061,30.846L107.178,30.846L107.414,30.846L107.533,30.846L107.656,30.846L107.769,30.846L107.887,30.846L108.123,30.846L108.241,30.846L108.365,30.846L108.478,30.846L108.595,30.846L108.832,30.846L108.951,30.846L109.076,30.846L109.187,30.846L109.305,30.846L109.54,30.846L109.659,30.846L109.784,30.846L109.896,30.846L110.013,30.846L110.25,30.846L110.368,30.846L110.492,30.846L110.605,30.846L110.721,30.846L110.958,30.846L111.076,30.846L111.201,30.846L111.313,30.846L111.429,30.846L111.666,30.846L111.785,30.846L111.91,30.846L112.023,30.846L112.138,30.846L112.375,30.846L112.492,30.846L112.616,30.846L112.73,30.846L112.846,30.846L113.083,30.846L113.201,30.846L113.325,30.846L113.438,30.846L113.555,30.846L113.793,30.846L113.911,30.846L114.036,30.846L114.148,30.846L114.264,30.846L114.501,30.846L114.619,30.846L114.744,30.846L114.856,30.846L114.973,30.846L115.209,30.846L115.328,34.692L115.452,34.692L115.564,34.692L115.681,34.692L115.918,34.692L116.036,34.692L116.161,34.692L116.274,34.692L116.39,34.692L116.626,34.692L116.744,34.692L116.869,40.077L116.981,40.077L117.098,40.077L117.335,40.077L117.453,40.077L117.577,40.077L117.689,40.077L117.807,40.077L118.043,40.077L118.161,40.077L118.285,40.077L118.398,40.077L118.515,40.077L118.753,40.077L118.871,40.077L118.995,40.077L119.107,40.077L119.224,40.077L119.46,40.077L119.579,40.077L119.704,40.077L119.816,40.077L119.932,40.077L120.169,40.077L120.288,40.077L120.413,40.077L120.524,40.077L120.641,40.077L120.877,40.077L120.996,40.077L121.12,40.077L121.234,40.077L121.349,40.077L121.587,40.077L121.705,40.077L121.829,40.077L121.941,40.077L122.058,40.077L122.294,40.077L122.412,40.077L122.538,40.077L122.649,40.077L122.766,40.077L123.003,40.077L123.121,40.077L123.245,40.077L123.357,40.077L123.475,40.077L123.712,40.077L123.83,40.077L123.955,40.077L124.067,40.077L124.183,40.077L124.42,40.077L124.539,40.077L124.663,40.077L124.893,40.077L125.13,40.077L125.248,40.077L125.372,40.077L125.484,40.077L125.601,40.077L125.839,40.077L125.956,40.077L126.081,40.077L126.193,40.077L126.31,40.077L126.546,40.077L126.665,40.077L126.789,40.077L126.901,40.077L127.018,40.077L127.255,40.077L127.373,40.077L127.497,40.077L127.609,40.077L127.727,40.077L127.963,40.077L128.081,40.077L128.205,40.077L128.318,40.077L128.435,40.077L128.672,40.077L128.791,40.077L128.916,40.077L129.028,40.077L129.143,40.077L129.381,40.077L129.499,40.077L129.623,40.077L129.736,40.077L129.852,40.077L130.089,40.077L130.207,40.077L130.332,40.077L130.445,40.077L130.56,40.077L130.798,40.077L130.916,40.077L131.04,40.077L131.152,40.077L131.269,40.077L131.507,40.077L131.624,40.077L131.749,40.077L131.861,40.077L131.977,40.077L132.215,40.077L132.332,40.077L132.456,40.077L132.569,40.077L132.686,40.077L132.922,40.077L133.041,40.077L133.165,40.077L133.277,40.077L133.395,40.077L133.632,40.077L133.75,40.077L133.874,40.077L133.987,40.077L134.103,40.077L134.34,40.077L134.459,40.077L134.584,40.077L134.696,40.077L134.812,40.077L135.049,40.077L135.168,40.077L135.292,40.077L135.404,40.077L135.521,40.077L135.758,40.077L135.876,40.077L136.001,40.077L136.112,40.077L136.229,40.077L136.466,40.077L136.584,40.077L136.709,40.077L136.821,40.077L136.938,40.077L137.174,40.077L137.292,40.077L137.416,40.077L137.529,40.077L137.646,40.077L137.884,40.077L138.002,40.077L138.133,40.077L138.244,40.077L138.355,40.077L138.592,40.077L138.71,40.077L138.835,40.077L138.948,40.077L139.063,40.077L139.3,40.077L139.419,40.077L139.542,40.077L139.656,40.077L139.772,40.077L140.008,40.077L140.127,40.077L140.252,40.077L140.365,40.077L140.48,40.077L140.718,40.077L140.836,40.077L140.961,40.077L141.072,40.077L141.189,40.077L141.426,40.077L141.544,40.077L141.669,40.077L141.782,40.077L141.898,40.077L142.135,40.077L142.252,40.077L142.376,40.077L142.489,40.077L142.606,40.077L142.843,40.077L142.96,40.077L143.085,40.077L143.199,40.077L143.315,40.077L143.552,40.077L143.671,40.077L143.795,40.077L143.907,40.077L144.023,40.077L144.26,40.077L144.379,40.077L144.504,40.077L144.616,40.077L144.732,40.077L144.968,40.077L145.087,40.077L145.212,40.077L145.324,40.077L145.44,40.077L145.678,40.077L145.796,40.077L145.92,40.077L146.033,40.077L146.149,40.077L146.386,40.077L146.504,40.077L146.629,40.077L146.742,40.077L146.857,40.077L147.094,40.077L147.212,40.077L147.337,40.077L147.449,40.077L147.566,40.077L147.802,40.077L147.92,40.077L148.045,40.077L148.158,40.077L148.274,40.077L148.511,40.077L148.63,40.077L148.755,40.077L148.867,40.077L148.984,40.077L149.22,40.077L149.338,40.077L149.464,40.077L149.575,40.077L149.691,40.077L149.928,40.077L150.046,40.077L150.173,40.077L150.284,40.077L150.4,40.077L150.637,40.077L150.756,40.077L150.881,40.077L150.992,40.077L151.109,40.077L151.346,40.077L151.464,40.077L151.589,40.077L151.701,40.077L151.817,40.077L152.054,40.077L152.172,40.077L152.296,40.077L152.409,40.077L152.526,40.077L152.764,40.077L152.881,40.077L153.005,40.077L153.117,40.077L153.235,40.077L153.471,40.077L153.59,40.077L153.715,40.077L153.827,40.077L153.943,40.077L154.181,40.077L154.299,40.077L154.424,40.077L154.535,40.077L154.651,40.077L154.889,40.077L155.007,40.077L155.133,40.077L155.245,40.077L155.361,40.077L155.598,40.077L155.716,40.077L155.841,40.077L155.953,40.077L156.069,40.077L156.306,40.077L156.424,40.077L156.549,40.077L156.661,40.077L156.777,40.077L157.016,40.077L157.132,40.077L157.257,40.077L157.371,40.077L157.486,40.077L157.723,40.077L157.841,40.077L157.965,40.077L158.077,40.077L158.195,40.077L158.432,40.077L158.55,40.077L158.676,40.077L158.787,40.077L158.903,40.077L159.14,40.077L159.258,40.077L159.384,40.077L159.496,40.077L159.611,40.077L159.849,40.077L159.967,40.077L160.092,40.077L160.205,40.077L160.32,40.077L160.557,40.077L160.676,40.077L160.801,40.077L160.912,40.077L161.029,40.077L161.266,40.077L161.384,40.077L161.509,40.077L161.622,40.077L161.737,40.077L161.974,40.077L162.092,40.077L162.216,40.077L162.329,40.077L162.447,40.077L162.683,40.077L162.8,40.077L162.926,40.077L163.037,40.077L163.154,40.077L163.391,40.077L163.51,40.077L163.635,40.077L163.746,40.077L163.863,40.077L164.101,40.077L164.218,40.077L164.344,40.077L164.455,40.077L164.572,40.077L164.809,40.077L164.927,40.077L165.05,40.077L165.164,40.077L165.28,40.077L165.517,40.077L165.636,40.077L165.761,40.077L165.874,40.077L165.988,40.077L166.226,40.077L166.344,40.077L166.469,40.077L166.581,40.077L166.697,40.077L166.934,40.077L167.052,40.077L167.177,40.077L167.289,40.077L167.405,40.077L167.643,40.077L167.761,40.077L167.885,40.077L167.997,40.077L168.115,40.077L168.352,40.077L168.47,40.077L168.596,40.077L168.707,40.077L168.823,40.077L169.06,40.077L169.179,40.077L169.304,40.077L169.415,40.077L169.531,40.077L169.769,40.077L169.887,40.077L170.013,40.077L170.125,40.077L170.24,40.077L170.478,40.077L170.596,40.077L170.721,40.077L170.833,40.077L170.948,40.077L171.186,40.077L171.304,40.077L171.43,40.077L171.541,40.077L171.657,40.077L171.895,40.077L172.013,40.077L172.137,40.077L172.25,40.077L172.366,40.077L172.603,40.077L172.721,40.077L172.847,40.077L172.958,40.077L173.074,40.077L173.312,40.077L173.431,40.077L173.556,40.077L173.668,40.077L173.783,40.077L174.02,40.077L174.139,40.077L174.264,40.077L174.376,40.077L174.492,40.077L174.729,40.077L174.847,40.077L174.973,40.077L175.084,40.077L175.201,40.077L175.438,40.077L175.556,40.077L175.682,40.077L175.793,40.077L175.909,40.077L176.146,40.077L176.264,40.077L176.39,40.077L176.502,40.077L176.617,40.077L176.854,40.077L176.972,40.077L177.097,40.077L177.209,40.077L177.325,40.077L177.563,40.077L177.681,40.077L177.806,40.077L177.918,40.077L178.035,40.077L178.272,40.077L178.391,40.077L178.516,40.077L178.627,40.077L178.743,40.077L178.98,40.077L179.099,40.077L179.225,40.077L179.336,40.077L179.452,40.077L179.69,40.077L179.808,40.077L179.933,40.077L180.044,40.077L180.16,40.077L180.398,40.077L180.516,40.077L180.641,40.077L180.753,40.077L180.869,40.077L181.106,40.077L181.225,40.077L181.35,40.077L181.461,40.077L181.577,40.077L181.814,40.077L181.933,40.077L182.057,40.077L182.169,40.077L182.286,40.077L182.523,40.077L182.641,40.077L182.766,40.077L182.878,40.077L182.994,40.077L183.233,40.077L183.351,40.077L183.477,40.077L183.588,40.077L183.703,40.077L183.939,40.077L184.059,40.077L184.185,40.077L184.296,40.077L184.411,40.077L184.649,40.077L184.768,40.077L184.893,40.077L185.004,40.077L185.12,40.077L185.358,40.077L185.476,40.077L185.602,40.077L185.713,40.077L185.828,40.077L186.066,40.077L186.184,40.077L186.31,40.077L186.421,40.077L186.537,40.077L186.775,40.077L186.892,40.077L187.017,40.077L187.129,40.077L187.245,40.077L187.484,40.077L187.601,40.077L187.726,40.077L187.838,40.077L187.954,40.077L188.192,40.077L188.311,40.077L188.437,40.077L188.547,40.077L188.663,40.077L188.901,40.077L189.02,40.077L189.146,40.077L189.256,40.077L189.372,40.077L189.609,40.077L189.729,40.077L189.854,40.077L189.966,40.077L190.08,40.077L190.318,40.077L190.437,40.077L190.563,40.077L190.673,40.077L190.789,40.077L191.026,40.077L191.145,40.077L191.271,40.077L191.382,40.077L191.734,40.077L191.853,40.077L191.978,40.077L192.089,40.077L192.205,40.077L192.443,40.077L192.561,40.077L192.686,40.077L192.798,40.077L192.914,40.077L193.152,40.077L193.272,40.077L193.398,40.077L193.508,40.077L193.623,40.077L193.861,40.077L193.98,40.077L194.106,40.077L194.216,40.077L194.332,40.077L194.569,40.077L194.688,40.077L194.814,40.077L194.925,40.077L195.041,40.077L195.278,40.077L195.396,50.077L195.522,50.077L195.633,50.077L195.749,50.077L195.986,50.077L196.105,50.077L196.231,50.077L196.342,50.077L196.457,50.077L196.694,50.077L196.813,50.077L196.938,50.077L197.049,50.077L197.165,50.077L197.403,50.077L197.521,50.077L197.646,50.077L197.757,50.077L197.874,50.077L198.112,50.077L198.231,50.077L198.357,50.077L198.468,50.077L198.583,50.077L198.82,50.077L198.94,30.846L199.065,30.846L199.176,30.846L199.291,30.846L199.529,30.846L199.648,30.846L199.774,50.077L199.884,50.077L200,50.077" stroke="#f58518" stroke-width="2"/></g></g><path class="foreground" aria-hidden="true" d="" display="none"/></g></g><g class="mark-group role-legend" role="graphics-symbol" aria-roledescription="legend" aria-label="Symbol legend titled 'identifier' for stroke color with 2 values: altex-LG-F2WR508SBW, altex-LG-F2WR508SBM"><g transform="translate(220,0)"><path class="background" aria-hidden="true" d="M0,0h168v40h-168Z" pointer-events="none"/><g><g class="mark-group role-legend-entry"><g transform="translate(0,16)"><path class="background" aria-hidden="true" d="M0,0h0v0h0Z" pointer-events="none"/><g><g class="mark-group role-scope" role="graphics-object" aria-roledescription="group mark container"><g transform="translate(0,0)"><path class="background" aria-hidden="true" d="M0,0h168v11h-168Z" pointer-events="none" opacity="1"/><g><g class="mark-symbol role-legend-symbol" pointer-events="none"><path transform="translate(6,6)" d="M-5,0L5,0" stroke="#4c78a8" stroke-width="1.5" opacity="1"/></g><g class="mark-text role-legend-label" pointer-events="none"><text text-anchor="start" transform="translate(16,9)" font-family="Liberation Mono" font-size="10px" fill="#000" opacity="1">altex-LG-F2WR508SBW</text></g></g><path class="foreground" aria-hidden="true" d="" pointer-events="none" display="none"/></g><g transform="translate(0,13)"><path class="background" aria-hidden="true" d="M0,0h168v11h-168Z" pointer-events="none" opacity="1"/><g><g class="mark-symbol role-legend-symbol" pointer-events="none"><path transform="translate(6,6)" d="M-5,0L5,0" stroke="#f58518" stroke-width="1.5" opacity="1"/></g><g class="mark-text role-legend-label" pointer-events="none"><text text-anchor="start" transform="translate(16,9)" font-family="Liberation Mono" font-size="10px" fill="#000" opacity="1">altex-LG-F2WR508SBM</text></g></g><path class="foreground" aria-hidden="true" d="" pointer-events="none" display="none"/></g></g></g><path class="foreground" aria-hidden="true" d="" pointer-events="none" display="none"/></g></g><g class="mark-text role-legend-title" pointer-events="none"><text text-anchor="start" transform="translate(0,9)" font-family="Liberation Mono" font-size="11px" font-weight="bold" fill="#000" opacity="1">identifier</text></g></g><path class="foreground" aria-hidden="true" d="" pointer-events="none" display="none"/></g></g></g><path class="foreground" aria-hidden="true" d="" display="none"/></g></g></g></svg>