<svg xmlns="http://www.w3.org/2000/svg" xmlns:xlink="http://www.w3.org/1999/xlink" version="1.1" class="marks" width="460" height="242" viewBox="0 0 460 242"><rect width="460" height="242" fill="white"/><g fill="none" stroke-miterlimit="10" transform="translate(67,5)"><g class="mark-group role-frame root" role="graphics-object" aria-roledescription="group mark container"><g transform="translate(0,0)"><path class="background" aria-hidden="true" d="M0.5,0.5h200v200h-200Z" stroke="#ddd"/><g><g class="mark-group role-axis" aria-hidden="true"><g transform="translate(0.5,200.5)"><path class="background" aria-hidden="true" d="M0,0h0v0h0Z" pointer-events="none"/><g><g class="mark-rule role-axis-grid" pointer-events="none"><line transform="translate(57,-200)" x2="0" y2="200" stroke="#ddd" stroke-width="1" opacity="1"/><line transform="translate(112,-200)" x2="0" y2="200" stroke="#ddd" stroke-width="1" opacity="1"/><line transform="translate(171,-200)" x2="0" y2="200" stroke="#ddd" stroke-width="1" opacity="1"/></g></g><path class="foreground" aria-hidden="true" d="" pointer-events="none" display="none"/></g></g><g class="mark-group role-axis" aria-hidden="true"><g transform="translate(0.5,0.5)"><path class="background" aria-hidden="true" d="M0,0h0v0h0Z" pointer-events="none"/><g><g class="mark-rule role-axis-grid" pointer-events="none"><line transform="translate(0,200)" x2="200" y2="0" stroke="#ddd" stroke-width="1" opacity="1"/><line transform="translate(0,162)" x2="200" y2="0" stroke="#ddd" stroke-width="1" opacity="1"/><line transform="translate(0,123)" x2="200" y2="0" stroke="#ddd" stroke-width="1" opacity="1"/><line transform="translate(0,85)" x2="200" y2="0" stroke="#ddd" stroke-width="1" opacity="1"/><line transform="translate(0,46)" x2="200" y2="0" stroke="#ddd" stroke-width="1" opacity="1"/><line transform="translate(0,8)" x2="200" y2="0" stroke="#ddd" stroke-width="1" opacity="1"/></g></g><path class="foreground" aria-hidden="true" d="" pointer-events="none" display="none"/></g></g><g class="mark-group role-axis" role="graphics-symbol" aria-roledescription="axis" aria-label="X-axis titled 'Time' for a time scale with values from Monday, 01 January 2024, 2:19:43 PM to Tuesday, 16 April 2024, 12:49:45 PM"><g transform="translate(0.5,200.5)"><path class="background" aria-hidden="true" d="M0,0h0v0h0Z" pointer-events="none"/><g><g class="mark-rule role-axis-tick" pointer-events="none"><line transform="translate(57,0)" x2="0" y2="5" stroke="#888" stroke-width="1" opacity="1"/><line transform="translate(112,0)" x2="0" y2="5" stroke="#888" stroke-width="1" opacity="1"/><line transform="translate(171,0)" x2="0" y2="5" stroke="#888" stroke-width="1" opacity="1"/></g><g class="mark-text role-axis-label" pointer-events="none"><text text-anchor="middle" transform="translate(57.39792772917958,15)" font-family="Liberation Mono" font-size="10px" fill="#000" opacity="1">February</text><text text-anchor="middle" transform="translate(112.14717531214484,15)" font-family="Liberation Mono" font-size="10px" fill="#000" opacity="1">March</text><text text-anchor="middle" transform="translate(170.67223307324565,15)" font-family="Liberation Mono" font-size="10px" fill="#000" opacity="1">April</text></g><g class="mark-rule role-axis-domain" pointer-events="none"><line transform="translate(0,0)" x2="200" y2="0" stroke="#888" stroke-width="1" opacity="1"/></g><g class="mark-text role-axis-title" pointer-events="none"><text text-anchor="middle" transform="translate(100,30)" font-family="Liberation Mono" font-size="11px" font-weight="bold" fill="#000" opacity="1">Time</text></g></g><path class="foreground" aria-hidden="true" d="" pointer-events="none" display="none"/></g></g><g class="mark-group role-axis" role="graphics-symbol" aria-roledescription="axis" aria-label="Y-axis titled 'Price' for a linear scale with values from 0 to 2,600"><g transform="translate(0.5,0.5)"><path class="background" aria-hidden="true" d="M0,0h0v0h0Z" pointer-events="none"/><g><g class="mark-rule role-axis-tick" pointer-events="none"><line transform="translate(0,200)" x2="-5" y2="0" stroke="#888" stroke-width="1" opacity="1"/><line transform="translate(0,162)" x2="-5" y2="0" stroke="#888" stroke-width="1" opacity="1"/><line transform="translate(0,123)" x2="-5" y2="0" stroke="#888" stroke-width="1" opacity="1"/><line transform="translate(0,85)" x2="-5" y2="0" stroke="#888" stroke-width="1" opacity="1"/><line transform="translate(0,46)" x2="-5" y2="0" stroke="#888" stroke-width="1" opacity="1"/><line transform="translate(0,8)" x2="-5" y2="0" stroke="#888" stroke-width="1" opacity="1"/></g><g class="mark-text role-axis-label" pointer-events="none"><text text-anchor="end" transform="translate(-7,203)" font-family="Liberation Mono" font-size="10px" fill="#000" opacity="1">0</text><text text-anchor="end" transform="translate(-7,164.53846153846155)" font-family="Liberation Mono" font-size="10px" fill="#000" opacity="1">500</text><text text-anchor="end" transform="translate(-7,126.07692307692308)" font-family="Liberation Mono" font-size="10px" fill="#000" opacity="1">1,000</text><text text-anchor="end" transform="translate(-7,87.61538461538463)" font-family="Liberation Mono" font-size="10px" fill="#000" opacity="1">1,500</text><text text-anchor="end" transform="translate(-7,49.153846153846146)" font-family="Liberation Mono" font-size="10px" fill="#000" opacity="1">2,000</text><text text-anchor="end" transform="translate(-7,10.692307692307686)" font-family="Liberation Mono" font-size="10px" fill="#000" opacity="1">2,500</text></g><g class="mark-rule role-axis-domain" pointer-events="none"><line transform="translate(0,200)" x2="0" y2="-200" stroke="#888" stroke-width="1" opacity="1"/></g><g class="mark-text role-axis-title" pointer-events="none"><text text-anchor="middle" transform="translate(-51,100) rotate(-90) translate(0,-2)" font-family="Liberation Mono" font-size="11px" font-weight="bold" fill="#000" opacity="1">Price</text></g></g><path class="foreground" aria-hidden="true" d="" pointer-events="none" display="none"/></g></g><g class="mark-group role-scope pathgroup" role="graphics-object" aria-roledescription="group mark container"><g transform="translate(0,0)"><path class="background" aria-hidden="true" d="M0,0h200v200h-200Z"/><g><g class="mark-line role-mark marks" role="graphics-object" aria-roledescription="line mark container"><path aria-label="Time: Jan 01, 2024; Price: 2399; identifier: altex-LG-F2WR508SBW" role="graphics-symbol" aria-roledescription="line mark" d="M0,15.462L0.198,15.462L0.497,15.462L1.126,15.462L1.441,15.462L1.772,15.462L2.072,15.462L2.384,15.462L3.014,15.462L3.329,15.462L3.66,15.462L3.961,15.462L4.272,15.462L4.902,15.462L5.217,15.462L5.547,15.462L5.851,15.462L6.16,15.462L6.791,34.692L7.105,34.692L7.435,34.692L7.738,34.692L8.048,34.692L8.678,34.692L8.992,34.692L9.322,34.692L9.624,34.692L9.936,34.692L10.567,34.692L10.88,34.692L11.21,34.692L11.512,34.692L11.824,34.692L12.455,34.692L12.77,34.692L13.101,34.692L13.402,34.692L13.711,34.692L14.343,34.692L14.658,34.692L14.993,34.692L15.291,34.692L15.6,34.692L16.231,34.692L16.546,34.692L16.877,34.692L17.177,34.692L17.488,34.692L18.118,34.692L18.433,34.692L18.765,34.692L19.066,34.692L19.376,34.692L20.006,34.692L20.321,34.692L20.652,34.692L20.954,34.692L21.264,34.692L21.893,46.231L22.207,46.231L22.537,46.231L22.839,46.231L23.151,46.231L23.782,46.231L24.095,46.231L24.425,46.231L24.727,46.231L25.039,46.231L25.671,46.231L25.986,46.231L26.318,46.231L26.618,46.231L26.927,46.231L27.558,46.231L27.874,46.231L28.205,46.231L28.507,46.231L28.815,46.231L29.446,46.231L29.762,46.231L30.093,46.231L30.394,46.231L30.703,46.231L31.333,46.231L31.648,46.231L31.98,46.231L32.281,46.231L32.592,46.231L33.222,46.231L33.537,46.231L33.868,46.231L34.17,46.231L34.479,46.231L35.11,46.231L35.422,46.231L35.753,46.231L36.056,46.231L36.367,46.231L36.996,46.231L37.311,46.231L37.64,46.231L37.943,46.231L38.255,46.231L38.887,46.231L39.202,46.231L39.534,46.231L39.833,46.231L40.143,46.231L40.774,46.231L41.09,46.231L41.421,46.231L41.722,46.231L42.03,46.231L42.662,46.231L42.977,46.231L43.309,46.231L43.609,46.231L43.918,46.231L44.55,46.231L44.864,46.231L45.197,46.231L45.499,46.231L45.806,46.231L46.436,46.231L46.752,46.231L47.078,46.231L47.38,46.231L47.695,46.231L48.323,46.231L48.639,46.231L48.962,46.231L49.267,46.231L49.581,46.231L50.211,46.231L50.526,46.231L50.851,46.231L51.155,46.231L51.47,46.231L52.099,46.231L52.415,46.231L52.741,46.231L53.044,46.231L53.358,46.231L53.987,46.231L54.302,46.231L54.629,46.231L54.935,46.231L55.245,46.231L55.875,46.231L56.19,46.231L56.517,46.231L56.819,46.231L57.133,46.231L57.763,34.692L58.078,34.692L58.405,34.692L58.707,34.692L59.021,34.692L59.651,34.692L59.965,34.692L60.292,34.692L60.594,34.692L60.909,34.692L61.539,34.692L61.854,34.692L62.178,34.692L62.482,34.692L62.798,34.692L63.428,34.692L63.742,34.692L64.066,34.692L64.37,34.692L64.685,34.692L65.314,34.692L65.63,34.692L65.958,34.692L66.259,34.692L66.573,34.692L67.202,34.692L67.517,34.692L67.845,34.692L68.147,34.692L68.461,34.692L69.09,34.692L69.405,34.692L69.732,34.692L70.036,34.692L70.349,34.692L70.978,34.692L71.294,34.692L71.62,34.692L71.924,34.692L72.237,34.692L72.866,34.692L73.181,34.692L73.507,34.692L73.811,34.692L74.126,34.692L74.754,34.692L75.068,34.692L75.394,34.692L75.698,34.692L76.013,34.692L76.643,34.692L76.957,34.692L77.281,34.692L77.586,34.692L77.9,34.692L78.53,34.692L78.844,34.692L79.173,34.692L79.474,34.692L79.788,34.692L80.417,34.692L80.732,34.692L81.059,34.692L81.366,34.692L81.676,34.692L82.306,34.692L82.62,34.692L82.948,34.692L83.251,34.692L83.564,34.692L84.508,34.692L84.835,34.692L85.138,34.692L85.452,34.692L86.082,34.692L86.396,34.692L86.723,34.692L87.027,34.692L87.34,34.692L87.97,34.692L88.284,34.692L88.608,34.692L88.913,34.692L89.228,34.692L89.857,34.692L90.173,34.692L90.497,34.692L90.801,34.692L91.116,34.692L91.745,34.692L92.061,34.692L92.389,34.692L92.693,34.692L93.003,34.692L93.634,34.692L93.948,34.692L94.274,34.692L94.578,34.692L94.892,34.692L95.521,34.692L95.836,34.692L96.163,34.692L96.466,34.692L96.78,34.692L97.409,34.692L97.723,34.692L98.051,34.692L98.354,34.692L98.668,34.692L99.297,34.692L99.611,34.692L99.937,34.692L100.241,34.692L100.557,34.692L101.185,34.692L101.499,34.692L101.823,34.692L102.128,34.692L102.443,34.692L103.072,34.692L103.388,34.692L103.711,34.692L104.018,34.692L104.331,34.692L104.96,34.692L105.276,34.692L105.603,34.692L105.905,34.692L106.219,34.692L106.848,34.692L107.163,34.692L107.49,34.692L107.794,34.692L108.107,34.692L108.736,34.692L109.051,34.692L109.378,34.692L109.682,34.692L109.995,34.692L110.624,34.692L110.939,34.692L111.265,34.692L111.568,34.692L111.882,34.692L112.512,34.692L112.828,34.692L113.154,34.692L113.457,34.692L113.771,34.692L114.4,34.692L114.715,34.692L115.041,34.692L115.344,34.692L115.659,34.692L116.288,34.692L116.602,34.692L116.927,34.692L117.232,34.692L117.547,34.692L118.205,34.692L118.635,34.692L118.823,34.692L119.122,34.692L119.435,34.692L120.063,34.692L120.378,34.692L120.707,34.692L121.008,34.692L121.322,34.692L121.951,34.692L122.269,34.692L122.595,34.692L122.898,34.692L123.21,34.692L123.839,34.692L124.155,34.692L124.481,34.692L124.784,34.692L125.098,34.692L125.727,34.692L126.047,34.692L126.369,34.692L126.671,34.692L126.986,34.692L127.616,34.692L127.93,34.692L128.253,34.692L128.561,34.692L128.873,34.692L129.503,34.692L129.82,34.692L130.142,34.692L130.448,34.692L130.762,34.692L131.393,34.692L131.706,34.692L132.034,34.692L132.337,34.692L132.65,34.692L133.279,34.692L133.594,34.692L133.922,34.692L134.226,34.692L134.537,34.692L135.167,34.692L135.484,34.692L135.81,34.692L136.111,34.692L136.425,34.692L137.055,34.692L137.37,34.692L137.698,34.692L138,34.692L138.313,34.692L138.942,34.692L139.26,34.692L139.585,34.692L139.888,34.692L140.201,34.692L140.831,34.692L141.147,34.692L141.471,34.692L141.775,34.692L142.09,34.692L142.718,34.692L143.035,34.692L143.359,34.692L143.662,34.692L143.977,34.692L144.606,34.692L144.921,34.692L145.251,34.692L145.554,34.692L145.867,34.692L146.495,34.692L146.809,34.692L147.136,34.692L147.442,34.692L147.753,34.692L148.382,34.692L148.698,34.692L149.025,34.692L149.33,34.692L149.642,34.692L150.27,34.692L150.586,34.692L150.914,34.692L151.219,34.692L151.529,34.692L152.158,34.692L152.473,34.692L152.8,34.692L153.103,34.692L153.417,34.692L154.046,34.692L154.36,34.692L154.687,34.692L154.99,34.692L155.304,34.692L155.934,34.692L156.249,34.692L156.577,34.692L156.878,34.692L157.192,34.692L157.822,34.692L158.137,34.692L158.464,34.692L158.767,34.692L159.08,34.692L159.71,34.692L160.027,34.692L160.353,34.692L160.657,34.692L160.968,34.692L161.6,34.692L161.914,34.692L162.242,34.692L162.546,34.692L162.856,34.692L163.485,34.692L163.8,34.692L164.129,34.692L164.431,34.692L164.744,34.692L165.374,34.692L165.688,34.692L166.017,34.692L166.319,34.692L166.632,34.692L167.261,34.692L167.576,34.692L167.901,34.692L168.206,34.692L168.521,34.692L169.15,34.692L169.466,34.692L169.79,34.692L170.095,34.692L170.408,34.692L171.037,34.692L171.354,34.692L171.682,34.692L171.986,34.692L172.296,34.692L172.926,34.692L173.241,34.692L173.569,34.692L173.872,34.692L174.183,34.692L174.813,34.692L175.128,34.692L175.456,34.692L175.76,34.692L176.071,34.692L176.702,34.692L177.017,34.692L177.344,34.692L177.647,34.692L177.96,34.692L178.592,34.692L179.231,34.692L179.535,34.692L179.849,34.692L180.478,34.692L180.792,34.692L181.116,34.692L181.421,34.692L181.735,34.692L182.364,34.692L182.679,34.692L183.005,34.692L183.309,34.692L183.623,34.692L184.253,34.692L184.567,34.692L184.896,34.692L185.199,34.692L185.511,34.692L186.141,34.692L186.455,34.692L186.784,34.692L187.087,34.692L187.399,34.692L188.028,34.692L188.345,34.692L188.672,34.692L188.977,34.692L189.289,34.692L189.918,34.692L190.234,34.692L190.56,34.692L191.176,34.692L191.805,34.692L192.121,34.692L192.447,34.692L192.748,34.692L193.063,34.692L193.692,34.692L194.006,34.692L194.328,34.692L194.636,34.692L194.95,34.692L195.609,34.692L196.093,34.692L196.388,34.692L196.999,34.692L197.473,34.692L197.783,34.692L198.107,34.692L198.412,34.692L198.726,34.692L199.356,34.692L199.671,34.692L200,34.692" stroke="#4c78a8" stroke-width="2"/></g></g><path class="foreground" aria-hidden="true" d="" display="none"/></g><g transform="translate(0,0)"><path class="background" aria-hidden="true" d="M0,0h200v200h-200Z"/><g><g class="mark-line role-mark marks" role="graphics-object" aria-roledescription="line mark container"><path aria-label="Time: Jan 01, 2024; Price: 2499; identifier: altex-LG-F2WR508SBM" role="graphics-symbol" aria-roledescription="line mark" d="M0,7.769L0.198,7.769L0.497,7.769L1.126,7.769L1.441,7.769L1.772,7.769L2.072,7.769L2.384,7.769L3.014,7.769L3.329,7.769L3.66,7.769L3.961,7.769L4.272,7.769L4.902,7.769L5.217,7.769L5.547,7.769L5.851,7.769L6.161,7.769L6.791,27L7.105,27L7.435,27L7.738,27L8.048,27L8.678,27L8.992,27L9.322,27L9.624,27L9.936,27L10.567,27L10.88,27L11.21,27L11.512,27L11.824,27L12.455,27L12.77,27L13.101,27L13.403,27L13.711,27L14.343,27L14.658,27L14.993,27L15.291,27L15.6,27L16.231,27L16.546,27L16.877,27L17.177,27L17.488,27L18.118,27L18.433,27L18.766,27L19.066,27L19.376,27L20.006,27L20.321,27L20.652,27L20.954,27L21.264,27L21.893,38.538L22.207,38.538L22.537,38.538L22.839,38.538L23.151,38.538L23.782,38.538L24.095,38.538L24.425,38.538L24.727,38.538L25.039,38.538L25.671,38.538L25.986,38.538L26.318,38.538L26.618,38.538L26.927,38.538L27.558,38.538L27.874,38.538L28.205,38.538L28.507,38.538L28.815,38.538L29.446,38.538L29.762,38.538L30.093,38.538L30.394,38.538L30.703,38.538L31.333,38.538L31.648,38.538L31.98,38.538L32.281,38.538L32.592,38.538L33.222,38.538L33.537,38.538L33.868,38.538L34.17,38.538L34.479,38.538L35.11,38.538L35.422,38.538L35.753,38.538L36.056,38.538L36.367,38.538L36.996,38.538L37.311,38.538L37.64,38.538L37.943,38.538L38.255,38.538L38.887,38.538L39.202,38.538L39.534,38.538L39.833,38.538L40.143,38.538L40.774,38.538L41.09,38.538L41.421,38.538L41.723,38.538L42.03,38.538L42.662,38.538L42.977,38.538L43.309,38.538L43.61,38.538L43.919,38.538L44.55,38.538L44.864,38.538L45.197,38.538L45.499,38.538L45.806,38.538L46.436,38.538L46.752,38.538L47.078,38.538L47.38,38.538L47.695,38.538L48.323,38.538L48.639,38.538L48.962,38.538L49.267,38.538L49.581,38.538L50.212,38.538L50.526,38.538L50.851,38.538L51.155,38.538L51.47,38.538L52.099,38.538L52.415,38.538L52.741,38.538L53.044,38.538L53.358,38.538L53.987,38.538L54.302,38.538L54.629,38.538L54.935,38.538L55.245,38.538L55.875,38.538L56.19,38.538L56.517,38.538L56.819,38.538L57.133,38.538L57.763,27L58.078,27L58.405,27L58.707,27L59.021,27L59.651,27L59.965,27L60.293,27L60.594,27L60.909,27L61.539,27L61.854,27L62.178,27L62.483,27L62.798,27L63.428,27L63.742,27L64.066,27L64.37,27L64.685,27L65.314,27L65.63,27L65.958,27L66.259,27L66.573,27L67.202,27L67.517,27L67.845,27L68.147,27L68.461,27L69.09,27L69.405,27L69.732,27L70.036,27L70.349,27L70.978,27L71.294,27L71.62,27L71.924,27L72.237,27L72.866,27L73.181,27L73.507,27L73.811,27L74.126,27L74.754,27L75.068,27L75.394,27L75.698,27L76.013,27L76.643,27L76.957,27L77.281,27L77.586,27L77.9,27L78.53,27L78.845,27L79.173,27L79.475,27L79.788,27L80.417,27L80.732,27L81.059,27L81.366,27L81.676,27L82.306,27L82.62,27L82.948,27L83.251,27L83.564,27L84.508,27L84.836,27L85.138,27L85.453,27L86.082,27L86.396,27L86.723,27L87.027,27L87.34,27L87.97,27L88.284,27L88.608,27L88.913,27L89.228,27L89.858,27L90.173,27L90.497,27L90.802,27L91.116,27L91.745,27L92.061,27L92.389,27L92.693,27L93.004,27L93.634,27L93.948,27L94.274,27L94.578,27L94.893,27L95.521,27L95.836,27L96.163,27L96.466,27L96.78,27L97.409,27L97.723,27L98.051,27L98.354,27L98.668,27L99.297,27L99.611,27L99.938,27L100.241,27L100.557,27L101.185,27L101.499,27L101.823,27L102.128,27L102.443,27L103.072,27L103.388,27L103.712,27L104.018,27L104.331,27L104.96,27L105.276,27L105.603,27L105.906,27L106.219,27L106.848,27L107.164,27L107.49,27L107.794,27L108.107,27L108.736,27L109.051,27L109.378,27L109.682,27L109.995,27L110.624,27L110.939,27L111.265,27L111.568,27L111.882,27L112.512,27L112.828,27L113.154,27L113.457,27L113.771,27L114.4,27L114.715,27L115.041,27L115.344,27L115.659,27L116.288,27L116.602,27L116.927,27L117.232,27L117.547,27L118.205,27L118.635,27L118.823,27L119.122,27L119.435,27L120.063,27L120.378,27L120.707,27L121.008,27L121.322,27L121.951,27L122.269,27L122.595,27L122.898,27L123.21,27L123.839,27L124.155,27L124.481,38.538L124.784,38.538L125.099,38.538L125.728,38.538L126.047,38.538L126.369,38.538L126.671,38.538L126.986,38.538L127.616,38.538L127.93,38.538L128.254,38.538L128.561,38.538L128.874,38.538L129.503,38.538L129.82,38.538L130.142,38.538L130.448,38.538L130.762,38.538L131.393,38.538L131.706,38.538L132.034,38.538L132.337,38.538L132.65,38.538L133.279,38.538L133.594,38.538L133.922,38.538L134.226,38.538L134.537,38.538L135.167,38.538L135.484,38.538L135.81,38.538L136.111,38.538L136.425,38.538L137.055,38.538L137.37,38.538L137.698,38.538L138,38.538L138.314,38.538L138.942,38.538L139.26,38.538L139.585,38.538L139.888,38.538L140.201,38.538L140.831,38.538L141.147,38.538L141.472,38.538L141.775,38.538L142.09,38.538L142.718,38.538L143.035,38.538L143.359,38.538L143.662,38.538L143.977,38.538L144.606,38.538L144.921,38.538L145.251,38.538L145.554,38.538L145.867,38.538L146.495,38.538L146.809,38.538L147.136,38.538L147.442,38.538L147.753,38.538L148.382,38.538L148.698,38.538L149.025,38.538L149.33,38.538L149.642,38.538L150.27,38.538L150.586,38.538L150.914,38.538L151.219,38.538L151.529,38.538L152.158,38.538L152.473,38.538L152.8,38.538L153.103,38.538L153.417,38.538L154.046,38.538L154.36,38.538L154.687,38.538L154.99,38.538L155.304,38.538L155.934,38.538L156.249,38.538L156.577,38.538L156.878,38.538L157.192,38.538L157.822,38.538L158.137,38.538L158.464,38.538L158.767,38.538L159.08,38.538L159.71,38.538L160.027,38.538L160.353,38.538L160.657,38.538L160.968,38.538L161.6,38.538L161.914,38.538L162.242,38.538L162.546,38.538L162.856,38.538L163.485,38.538L163.8,38.538L164.129,38.538L164.431,38.538L164.744,38.538L165.374,38.538L165.688,38.538L166.017,38.538L166.319,38.538L166.632,38.538L167.261,38.538L167.576,38.538L167.901,38.538L168.206,38.538L168.521,38.538L169.15,38.538L169.466,38.538L169.79,38.538L170.095,38.538L170.408,38.538L171.037,38.538L171.354,38.538L171.682,38.538L171.986,38.538L172.296,38.538L172.927,38.538L173.241,38.538L173.57,38.538L173.872,38.538L174.183,38.538L174.813,38.538L175.128,38.538L175.456,38.538L175.76,38.538L176.072,38.538L176.702,38.538L177.017,38.538L177.344,38.538L177.647,38.538L177.96,38.538L178.592,38.538L179.231,38.538L179.535,38.538L179.849,38.538L180.478,38.538L180.792,38.538L181.116,38.538L181.421,38.538L181.735,38.538L182.364,38.538L182.679,38.538L183.005,38.538L183.309,38.538L183.623,38.538L184.253,38.538L184.567,38.538L184.896,38.538L185.199,38.538L185.511,38.538L186.141,38.538L186.455,38.538L186.784,38.538L187.087,38.538L187.399,38.538L188.028,38.538L188.345,38.538L188.672,38.538L188.977,38.538L189.289,38.538L189.918,38.538L190.234,38.538L190.56,38.538L191.176,38.538L191.805,38.538L192.121,38.538L192.447,38.538L192.748,38.538L193.063,38.538L193.692,38.538L194.006,38.538L194.328,38.538L194.636,38.538L194.95,38.538L195.609,38.538L196.093,38.538L196.388,38.538L196.999,38.538L197.473,38.538L197.783,38.538L198.107,38.538L198.412,38.538L198.726,38.538L199.356,38.538L199.671,38.538L200,38.538" stroke="#f58518" stroke-width="2"/></g></g><path class="foreground" aria-hidden="true" d="" display="none"/></g></g><g class="mark-group role-legend" role="graphics-symbol" aria-roledescription="legend" aria-label="Symbol legend titled 'identifier' for stroke color with 2 values: altex-LG-F2WR508SBW, altex-LG-F2WR508SBM"><g transform="translate(220,0)"><path class="background" aria-hidden="true" d="M0,0h168v40h-168Z" pointer-events="none"/><g><g class="mark-group role-legend-entry"><g transform="translate(0,16)"><path class="background" aria-hidden="true" d="M0,0h0v0h0Z" pointer-events="none"/><g><g class="mark-group role-scope" role="graphics-object" aria-roledescription="group mark container"><g transform="translate(0,0)"><path class="background" aria-hidden="true" d="M0,0h168v11h-168Z" pointer-events="none" opacity="1"/><g><g class="mark-symbol role-legend-symbol" pointer-events="none"><path transform="translate(6,6)" d="M-5,0L5,0" stroke="#4c78a8" stroke-width="1.5" opacity="1"/></g><g class="mark-text role-legend-label" pointer-events="none"><text text-anchor="start" transform="translate(16,9)" font-family="Liberation Mono" font-size="10px" fill="#000" opacity="1">altex-LG-F2WR508SBW</text></g></g><path class="foreground" aria-hidden="true" d="" pointer-events="none" display="none"/></g><g transform="translate(0,13)"><path class="background" aria-hidden="true" d="M0,0h168v11h-168Z" pointer-events="none" opacity="1"/><g><g class="mark-symbol role-legend-symbol" pointer-events="none"><path transform="translate(6,6)" d="M-5,0L5,0" stroke="#f58518" stroke-width="1.5" opacity="1"/></g><g class="mark-text role-legend-label" pointer-events="none"><text text-anchor="start" transform="translate(16,9)" font-family="Liberation Mono" font-size="10px" fill="#000" opacity="1">altex-LG-F2WR508SBM</text></g></g><path class="foreground" aria-hidden="true" d="" pointer-events="none" display="none"/></g></g></g><path class="foreground" aria-hidden="true" d="" pointer-events="none" display="none"/></g></g><g class="mark-text role-legend-title" pointer-events="none"><text text-anchor="start" transform="translate(0,9)" font-family="Liberation Mono" font-size="11px" font-weight="bold" fill="#000" opacity="1">identifier</text></g></g><path class="foreground" aria-hidden="true" d="" pointer-events="none" display="none"/></g></g></g><path class="foreground" aria-hidden="true" d="" display="none"/></g></g></g></svg>