<svg xmlns="http://www.w3.org/2000/svg" xmlns:xlink="http://www.w3.org/1999/xlink" version="1.1" class="marks" width="460" height="242" viewBox="0 0 460 242"><rect width="460" height="242" fill="white"/><g fill="none" stroke-miterlimit="10" transform="translate(67,5)"><g class="mark-group role-frame root" role="graphics-object" aria-roledescription="group mark container"><g transform="translate(0,0)"><path class="background" aria-hidden="true" d="M0.5,0.5h200v200h-200Z" stroke="#ddd"/><g><g class="mark-group role-axis" aria-hidden="true"><g transform="translate(0.5,200.5)"><path class="background" aria-hidden="true" d="M0,0h0v0h0Z" pointer-events="none"/><g><g class="mark-rule role-axis-grid" pointer-events="none"><line transform="translate(74,-200)" x2="0" y2="200" stroke="#ddd" stroke-width="1" opacity="1"/><line transform="translate(144,-200)" x2="0" y2="200" stroke="#ddd" stroke-width="1" opacity="1"/></g></g><path class="foreground" aria-hidden="true" d="" pointer-events="none" display="none"/></g></g><g class="mark-group role-axis" aria-hidden="true"><g transform="translate(0.5,0.5)"><path class="background" aria-hidden="true" d="M0,0h0v0h0Z" pointer-events="none"/><g><g class="mark-rule role-axis-grid" pointer-events="none"><line transform="translate(0,200)" x2="200" y2="0" stroke="#ddd" stroke-width="1" opacity="1"/><line transform="translate(0,162)" x2="200" y2="0" stroke="#ddd" stroke-width="1" opacity="1"/><line transform="translate(0,123)" x2="200" y2="0" stroke="#ddd" stroke-width="1" opacity="1"/><line transform="translate(0,85)" x2="200" y2="0" stroke="#ddd" stroke-width="1" opacity="1"/><line transform="translate(0,46)" x2="200" y2="0" stroke="#ddd" stroke-width="1" opacity="1"/><line transform="translate(0,8)" x2="200" y2="0" stroke="#ddd" stroke-width="1" opacity="1"/></g></g><path class="foreground" aria-hidden="true" d="" pointer-events="none" display="none"/></g></g><g class="mark-group role-axis" role="graphics-symbol" aria-roledescription="axis" aria-label="X-axis titled 'Time' for a time scale with values from Monday, 01 January 2024, 2:19:43 PM to Sunday, 24 March 2024, 4:38:29 AM"><g transform="translate(0.5,200.5)"><path class="background" aria-hidden="true" d="M0,0h0v0h0Z" pointer-events="none"/><g><g class="mark-rule role-axis-tick" pointer-events="none"><line transform="translate(74,0)" x2="0" y2="5" stroke="#888" stroke-width="1" opacity="1"/><line transform="translate(144,0)" x2="0" y2="5" stroke="#888" stroke-width="1" opacity="1"/></g><g class="mark-text role-axis-label" pointer-events="none"><text text-anchor="middle" transform="translate(73.6181805218617,15)" font-family="Liberation Mono" font-size="10px" fill="#000" opacity="1">February</text><text text-anchor="middle" transform="translate(143.83918241963264,15)" font-family="Liberation Mono" font-size="10px" fill="#000" opacity="1">March</text></g><g class="mark-rule role-axis-domain" pointer-events="none"><line transform="translate(0,0)" x2="200" y2="0" stroke="#888" stroke-width="1" opacity="1"/></g><g class="mark-text role-axis-title" pointer-events="none"><text text-anchor="middle" transform="translate(100,30)" font-family="Liberation Mono" font-size="11px" font-weight="bold" fill="#000" opacity="1">Time</text></g></g><path class="foreground" aria-hidden="true" d="" pointer-events="none" display="none"/></g></g><g class="mark-group role-axis" role="graphics-symbol" aria-roledescription="axis" aria-label="Y-axis titled 'Price' for a linear scale with values from 0 to 2,600"><g transform="translate(0.5,0.5)"><path class="background" aria-hidden="true" d="M0,0h0v0h0Z" pointer-events="none"/><g><g class="mark-rule role-axis-tick" pointer-events="none"><line transform="translate(0,200)" x2="-5" y2="0" stroke="#888" stroke-width="1" opacity="1"/><line transform="translate(0,162)" x2="-5" y2="0" stroke="#888" stroke-width="1" opacity="1"/><line transform="translate(0,123)" x2="-5" y2="0" stroke="#888" stroke-width="1" opacity="1"/><line transform="translate(0,85)" x2="-5" y2="0" stroke="#888" stroke-width="1" opacity="1"/><line transform="translate(0,46)" x2="-5" y2="0" stroke="#888" stroke-width="1" opacity="1"/><line transform="translate(0,8)" x2="-5" y2="0" stroke="#888" stroke-width="1" opacity="1"/></g><g class="mark-text role-axis-label" pointer-events="none"><text text-anchor="end" transform="translate(-7,203)" font-family="Liberation Mono" font-size="10px" fill="#000" opacity="1">0</text><text text-anchor="end" transform="translate(-7,164.53846153846155)" font-family="Liberation Mono" font-size="10px" fill="#000" opacity="1">500</text><text text-anchor="end" transform="translate(-7,126.07692307692308)" font-family="Liberation Mono" font-size="10px" fill="#000" opacity="1">1,000</text><text text-anchor="end" transform="translate(-7,87.61538461538463)" font-family="Liberation Mono" font-size="10px" fill="#000" opacity="1">1,500</text><text text-anchor="end" transform="translate(-7,49.153846153846146)" font-family="Liberation Mono" font-size="10px" fill="#000" opacity="1">2,000</text><text text-anchor="end" transform="translate(-7,10.692307692307686)" font-family="Liberation Mono" font-size="10px" fill="#000" opacity="1">2,500</text></g><g class="mark-rule role-axis-domain" pointer-events="none"><line transform="translate(0,200)" x2="0" y2="-200" stroke="#888" stroke-width="1" opacity="1"/></g><g class="mark-text role-axis-title" pointer-events="none"><text text-anchor="middle" transform="translate(-51,100) rotate(-90) translate(0,-2)" font-family="Liberation Mono" font-size="11px" font-weight="bold" fill="#000" opacity="1">Price</text></g></g><path class="foreground" aria-hidden="true" d="" pointer-events="none" display="none"/></g></g><g class="mark-group role-scope pathgroup" role="graphics-object" aria-roledescription="group mark container"><g transform="translate(0,0)"><path class="background" aria-hidden="true" d="M0,0h200v200h-200Z"/><g><g class="mark-line role-mark marks" role="graphics-object" aria-roledescription="line mark container"><path aria-label="Time: Jan 01, 2024; Price: 2399; identifier: altex-LG-F2WR508SBW" role="graphics-symbol" aria-roledescription="line mark" d="M0,15.462L0.253,15.462L0.637,15.462L1.444,15.462L1.848,15.462L2.272,15.462L2.658,15.462L3.058,15.462L3.866,15.462L4.269,15.462L4.694,15.462L5.08,15.462L5.479,15.462L6.287,15.462L6.691,15.462L7.115,15.462L7.504,15.462L7.901,15.462L8.71,34.692L9.113,34.692L9.537,34.692L9.924,34.692L10.322,34.692L11.13,34.692L11.533,34.692L11.956,34.692L12.344,34.692L12.744,34.692L13.553,34.692L13.955,34.692L14.377,34.692L14.765,34.692L15.165,34.692L15.974,34.692L16.379,34.692L16.804,34.692L17.19,34.692L17.586,34.692L18.397,34.692L18.8,34.692L19.229,34.692L19.612,34.692L20.008,34.692L20.818,34.692L21.221,34.692L21.646,34.692L22.032,34.692L22.429,34.692L23.239,34.692L23.642,34.692L24.068,34.692L24.454,34.692L24.851,34.692L25.66,34.692L26.064,34.692L26.488,34.692L26.875,34.692L27.273,34.692L28.08,46.231L28.483,46.231L28.906,46.231L29.294,46.231L29.693,46.231L30.503,46.231L30.904,46.231L31.327,46.231L31.714,46.231L32.115,46.231L32.925,46.231L33.329,46.231L33.755,46.231L34.14,46.231L34.536,46.231L35.345,46.231L35.751,46.231L36.176,46.231L36.562,46.231L36.958,46.231L37.767,46.231L38.172,46.231L38.597,46.231L38.983,46.231L39.379,46.231L40.188,46.231L40.592,46.231L41.018,46.231L41.403,46.231L41.802,46.231L42.61,46.231L43.014,46.231L43.439,46.231L43.826,46.231L44.222,46.231L45.031,46.231L45.433,46.231L45.856,46.231L46.245,46.231L46.644,46.231L47.451,46.231L47.854,46.231L48.277,46.231L48.665,46.231L49.065,46.231L49.876,46.231L50.28,46.231L50.706,46.231L51.089,46.231L51.487,46.231L52.296,46.231L52.701,46.231L53.127,46.231L53.513,46.231L53.908,46.231L54.718,46.231L55.122,46.231L55.548,46.231L55.933,46.231L56.329,46.231L57.14,46.231L57.543,46.231L57.969,46.231L58.356,46.231L58.751,46.231L59.559,46.231L59.964,46.231L60.382,46.231L60.77,46.231L61.173,46.231L61.979,46.231L62.384,46.231L62.798,46.231L63.19,46.231L63.593,46.231L64.401,46.231L64.804,46.231L65.221,46.231L65.611,46.231L66.015,46.231L66.822,46.231L67.227,46.231L67.646,46.231L68.033,46.231L68.437,46.231L69.243,46.231L69.647,46.231L70.066,46.231L70.46,46.231L70.857,46.231L71.664,46.231L72.068,46.231L72.489,46.231L72.876,46.231L73.279,46.231L74.086,34.692L74.49,34.692L74.91,34.692L75.297,34.692L75.7,34.692L76.508,34.692L76.911,34.692L77.331,34.692L77.718,34.692L78.122,34.692L78.929,34.692L79.333,34.692L79.749,34.692L80.14,34.692L80.545,34.692L81.353,34.692L81.755,34.692L82.17,34.692L82.561,34.692L82.964,34.692L83.772,34.692L84.177,34.692L84.597,34.692L84.983,34.692L85.386,34.692L86.193,34.692L86.597,34.692L87.017,34.692L87.405,34.692L87.807,34.692L88.615,34.692L89.019,34.692L89.438,34.692L89.828,34.692L90.229,34.692L91.036,34.692L91.441,34.692L91.859,34.692L92.249,34.692L92.65,34.692L93.458,34.692L93.862,34.692L94.279,34.692L94.669,34.692L95.073,34.692L95.879,34.692L96.282,34.692L96.7,34.692L97.089,34.692L97.493,34.692L98.302,34.692L98.704,34.692L99.12,34.692L99.511,34.692L99.915,34.692L100.722,34.692L101.125,34.692L101.547,34.692L101.933,34.692L102.336,34.692L103.143,34.692L103.547,34.692L103.966,34.692L104.36,34.692L104.758,34.692L105.565,34.692L105.968,34.692L106.388,34.692L106.777,34.692L107.178,34.692L108.39,34.692L108.809,34.692L109.197,34.692L109.601,34.692L110.408,34.692L110.811,34.692L111.231,34.692L111.621,34.692L112.022,34.692L112.83,34.692L113.232,34.692L113.648,34.692L114.039,34.692L114.443,34.692L115.251,34.692L115.656,34.692L116.07,34.692L116.461,34.692L116.865,34.692L117.672,34.692L118.077,34.692L118.497,34.692L118.887,34.692L119.286,34.692L120.094,34.692L120.497,34.692L120.915,34.692L121.305,34.692L121.708,34.692L122.514,34.692L122.918,34.692L123.339,34.692L123.727,34.692L124.129,34.692L124.936,34.692L125.339,34.692L125.759,34.692L126.148,34.692L126.551,34.692L127.357,34.692L127.761,34.692L128.179,34.692L128.568,34.692L128.974,34.692L129.779,34.692L130.182,34.692L130.598,34.692L130.989,34.692L131.392,34.692L132.2,34.692L132.605,34.692L133.02,34.692L133.413,34.692L133.814,34.692L134.621,34.692L135.026,34.692L135.445,34.692L135.834,34.692L136.235,34.692L137.043,34.692L137.447,34.692L137.866,34.692L138.255,34.692L138.657,34.692L139.465,34.692L139.868,34.692L140.287,34.692L140.677,34.692L141.079,34.692L141.886,34.692L142.289,34.692L142.707,34.692L143.096,34.692L143.5,34.692L144.307,34.692L144.712,34.692L145.131,34.692L145.519,34.692L145.922,34.692L146.729,34.692L147.132,34.692L147.551,34.692L147.939,34.692L148.343,34.692L149.15,34.692L149.553,34.692L149.97,34.692L150.361,34.692L150.765,34.692L151.609,34.692L152.16,34.692L152.401,34.692L152.785,34.692L153.186,34.692L153.992,34.692L154.396,34.692L154.818,34.692L155.204,34.692L155.607,34.692L156.414,34.692L156.821,34.692L157.239,34.692L157.628,34.692L158.028,34.692L158.835,34.692L159.24,34.692L159.659,34.692L160.047,34.692L160.45,34.692L161.257,34.692L161.667,34.692L162.08,34.692L162.467,34.692L162.871,34.692L163.679,34.692L164.082,34.692L164.497,34.692L164.891,34.692L165.292,34.692L166.1,34.692L166.506,34.692L166.919,34.692L167.312,34.692L167.714,34.692L168.523,34.692L168.925,34.692L169.346,34.692L169.735,34.692L170.136,34.692L170.943,34.692L171.346,34.692L171.767,34.692L172.157,34.692L172.557,34.692L173.365,34.692L173.771,34.692L174.189,34.692L174.575,34.692L174.978,34.692L175.785,34.692L176.19,34.692L176.611,34.692L176.998,34.692L177.4,34.692L178.207,34.692L178.613,34.692L179.03,34.692L179.419,34.692L179.821,34.692L180.629,34.692L181.034,34.692L181.45,34.692L181.84,34.692L182.244,34.692L183.05,34.692L183.456,34.692L183.871,34.692L184.26,34.692L184.664,34.692L185.471,34.692L185.875,34.692L186.298,34.692L186.686,34.692L187.088,34.692L187.894,34.692L188.296,34.692L188.716,34.692L189.108,34.692L189.506,34.692L190.314,34.692L190.719,34.692L191.138,34.692L191.53,34.692L191.93,34.692L192.736,34.692L193.141,34.692L193.561,34.692L193.952,34.692L194.35,34.692L195.157,34.692L195.56,34.692L195.98,34.692L196.369,34.692L196.772,34.692L197.579,34.692L197.982,34.692L198.401,34.692L198.789,34.692L199.192,34.692L200,34.692" stroke="#f58518" stroke-width="2"/></g></g><path class="foreground" aria-hidden="true" d="" display="none"/></g><g transform="translate(0,0)"><path class="background" aria-hidden="true" d="M0,0h200v200h-200Z"/><g><g class="mark-line role-mark marks" role="graphics-object" aria-roledescription="line mark container"><path aria-label="Time: Jan 01, 2024; Price: 2499; identifier: altex-LG-F2WR508SBM" role="graphics-symbol" aria-roledescription="line mark" d="M0,7.769L0.254,7.769L0.637,7.769L1.444,7.769L1.848,7.769L2.272,7.769L2.658,7.769L3.058,7.769L3.866,7.769L4.27,7.769L4.694,7.769L5.08,7.769L5.479,7.769L6.287,7.769L6.691,7.769L7.115,7.769L7.504,7.769L7.902,7.769L8.71,27L9.113,27L9.537,27L9.924,27L10.322,27L11.13,27L11.533,27L11.956,27L12.344,27L12.744,27L13.553,27L13.955,27L14.377,27L14.765,27L15.165,27L15.975,27L16.379,27L16.804,27L17.19,27L17.586,27L18.397,27L18.8,27L19.229,27L19.612,27L20.008,27L20.818,27L21.221,27L21.646,27L22.032,27L22.43,27L23.239,27L23.642,27L24.069,27L24.455,27L24.851,27L25.66,27L26.064,27L26.488,27L26.875,27L27.273,27L28.08,38.538L28.483,38.538L28.906,38.538L29.294,38.538L29.693,38.538L30.503,38.538L30.904,38.538L31.327,38.538L31.714,38.538L32.115,38.538L32.925,38.538L33.329,38.538L33.755,38.538L34.14,38.538L34.536,38.538L35.345,38.538L35.751,38.538L36.176,38.538L36.563,38.538L36.958,38.538L37.767,38.538L38.172,38.538L38.598,38.538L38.983,38.538L39.379,38.538L40.188,38.538L40.592,38.538L41.018,38.538L41.403,38.538L41.802,38.538L42.61,38.538L43.014,38.538L43.439,38.538L43.826,38.538L44.222,38.538L45.031,38.538L45.433,38.538L45.856,38.538L46.245,38.538L46.644,38.538L47.451,38.538L47.855,38.538L48.277,38.538L48.665,38.538L49.065,38.538L49.876,38.538L50.281,38.538L50.706,38.538L51.09,38.538L51.487,38.538L52.296,38.538L52.701,38.538L53.127,38.538L53.513,38.538L53.908,38.538L54.718,38.538L55.122,38.538L55.548,38.538L55.933,38.538L56.33,38.538L57.14,38.538L57.543,38.538L57.969,38.538L58.356,38.538L58.751,38.538L59.559,38.538L59.964,38.538L60.382,38.538L60.77,38.538L61.173,38.538L61.979,38.538L62.384,38.538L62.798,38.538L63.19,38.538L63.593,38.538L64.401,38.538L64.804,38.538L65.221,38.538L65.611,38.538L66.015,38.538L66.822,38.538L67.227,38.538L67.646,38.538L68.034,38.538L68.437,38.538L69.243,38.538L69.647,38.538L70.067,38.538L70.46,38.538L70.857,38.538L71.664,38.538L72.068,38.538L72.489,38.538L72.876,38.538L73.279,38.538L74.086,27L74.49,27L74.91,27L75.297,27L75.7,27L76.508,27L76.911,27L77.331,27L77.718,27L78.122,27L78.929,27L79.333,27L79.749,27L80.14,27L80.545,27L81.353,27L81.755,27L82.17,27L82.561,27L82.964,27L83.772,27L84.177,27L84.597,27L84.983,27L85.386,27L86.193,27L86.597,27L87.018,27L87.405,27L87.808,27L88.615,27L89.019,27L89.438,27L89.828,27L90.229,27L91.036,27L91.441,27L91.859,27L92.249,27L92.65,27L93.458,27L93.862,27L94.279,27L94.669,27L95.073,27L95.879,27L96.282,27L96.7,27L97.09,27L97.494,27L98.302,27L98.704,27L99.12,27L99.511,27L99.915,27L100.722,27L101.125,27L101.547,27L101.933,27L102.336,27L103.143,27L103.547,27L103.966,27L104.36,27L104.758,27L105.565,27L105.968,27L106.388,27L106.777,27L107.178,27L108.39,27L108.809,27L109.197,27L109.601,27L110.408,27L110.811,27L111.231,27L111.621,27L112.022,27L112.83,27L113.232,27L113.648,27L114.039,27L114.443,27L115.251,27L115.656,27L116.07,27L116.461,27L116.865,27L117.672,27L118.077,27L118.497,27L118.887,27L119.286,27L120.094,27L120.497,27L120.915,27L121.305,27L121.709,27L122.514,27L122.919,27L123.339,27L123.727,27L124.13,27L124.936,27L125.339,27L125.76,27L126.148,27L126.551,27L127.358,27L127.761,27L128.179,27L128.568,27L128.974,27L129.779,27L130.182,27L130.598,27L130.989,27L131.392,27L132.2,27L132.605,27L133.02,27L133.413,27L133.814,27L134.621,27L135.027,27L135.445,27L135.834,27L136.236,27L137.043,27L137.447,27L137.866,27L138.255,27L138.657,27L139.465,27L139.868,27L140.287,27L140.677,27L141.079,27L141.886,27L142.289,27L142.707,27L143.096,27L143.5,27L144.307,27L144.712,27L145.131,27L145.519,27L145.922,27L146.729,27L147.133,27L147.551,27L147.939,27L148.343,27L149.15,27L149.553,27L149.97,27L150.361,27L150.765,27L151.609,27L152.16,27L152.401,27L152.785,27L153.186,27L153.992,27L154.396,27L154.818,27L155.204,27L155.607,27L156.414,27L156.821,27L157.239,27L157.628,27L158.028,27L158.835,27L159.24,27L159.659,38.538L160.047,38.538L160.451,38.538L161.257,38.538L161.667,38.538L162.08,38.538L162.467,38.538L162.871,38.538L163.679,38.538L164.082,38.538L164.497,38.538L164.891,38.538L165.292,38.538L166.1,38.538L166.506,38.538L166.919,38.538L167.312,38.538L167.714,38.538L168.523,38.538L168.925,38.538L169.346,38.538L169.735,38.538L170.136,38.538L170.943,38.538L171.346,38.538L171.767,38.538L172.157,38.538L172.557,38.538L173.365,38.538L173.771,38.538L174.189,38.538L174.575,38.538L174.978,38.538L175.786,38.538L176.19,38.538L176.611,38.538L176.998,38.538L177.4,38.538L178.207,38.538L178.613,38.538L179.03,38.538L179.419,38.538L179.821,38.538L180.629,38.538L181.034,38.538L181.45,38.538L181.84,38.538L182.244,38.538L183.05,38.538L183.456,38.538L183.871,38.538L184.26,38.538L184.664,38.538L185.471,38.538L185.875,38.538L186.298,38.538L186.686,38.538L187.088,38.538L187.894,38.538L188.297,38.538L188.716,38.538L189.108,38.538L189.507,38.538L190.314,38.538L190.719,38.538L191.138,38.538L191.53,38.538L191.93,38.538L192.736,38.538L193.141,38.538L193.561,38.538L193.952,38.538L194.35,38.538L195.157,38.538L195.561,38.538L195.981,38.538L196.369,38.538L196.772,38.538L197.579,38.538L197.982,38.538L198.401,38.538L198.789,38.538L199.192,38.538L200,38.538" stroke="#4c78a8" stroke-width="2"/></g></g><path class="foreground" aria-hidden="true" d="" display="none"/></g></g><g class="mark-group role-legend" role="graphics-symbol" aria-roledescription="legend" aria-label="Symbol legend titled 'identifier' for stroke color with 2 values: altex-LG-F2WR508SBM, altex-LG-F2WR508SBW"><g transform="translate(220,0)"><path class="background" aria-hidden="true" d="M0,0h168v40h-168Z" pointer-events="none"/><g><g class="mark-group role-legend-entry"><g transform="translate(0,16)"><path class="background" aria-hidden="true" d="M0,0h0v0h0Z" pointer-events="none"/><g><g class="mark-group role-scope" role="graphics-object" aria-roledescription="group mark container"><g transform="translate(0,0)"><path class="background" aria-hidden="true" d="M0,0h168v11h-168Z" pointer-events="none" opacity="1"/><g><g class="mark-symbol role-legend-symbol" pointer-events="none"><path transform="translate(6,6)" d="M-5,0L5,0" stroke="#4c78a8" stroke-width="1.5" opacity="1"/></g><g class="mark-text role-legend-label" pointer-events="none"><text text-anchor="start" transform="translate(16,9)" font-family="Liberation Mono" font-size="10px" fill="#000" opacity="1">altex-LG-F2WR508SBM</text></g></g><path class="foreground" aria-hidden="true" d="" pointer-events="none" display="none"/></g><g transform="translate(0,13)"><path class="background" aria-hidden="true" d="M0,0h168v11h-168Z" pointer-events="none" opacity="1"/><g><g class="mark-symbol role-legend-symbol" pointer-events="none"><path transform="translate(6,6)" d="M-5,0L5,0" stroke="#f58518" stroke-width="1.5" opacity="1"/></g><g class="mark-text role-legend-label" pointer-events="none"><text text-anchor="start" transform="translate(16,9)" font-family="Liberation Mono" font-size="10px" fill="#000" opacity="1">altex-LG-F2WR508SBW</text></g></g><path class="foreground" aria-hidden="true" d="" pointer-events="none" display="none"/></g></g></g><path class="foreground" aria-hidden="true" d="" pointer-events="none" display="none"/></g></g><g class="mark-text role-legend-title" pointer-events="none"><text text-anchor="start" transform="translate(0,9)" font-family="Liberation Mono" font-size="11px" font-weight="bold" fill="#000" opacity="1">identifier</text></g></g><path class="foreground" aria-hidden="true" d="" pointer-events="none" display="none"/></g></g></g><path class="foreground" aria-hidden="true" d="" display="none"/></g></g></g></svg>