<svg xmlns="http://www.w3.org/2000/svg" xmlns:xlink="http://www.w3.org/1999/xlink" version="1.1" class="marks" width="460" height="242" viewBox="0 0 460 242"><rect width="460" height="242" fill="white"/><g fill="none" stroke-miterlimit="10" transform="translate(67,5)"><g class="mark-group role-frame root" role="graphics-object" aria-roledescription="group mark container"><g transform="translate(0,0)"><path class="background" aria-hidden="true" d="M0.5,0.5h200v200h-200Z" stroke="#ddd"/><g><g class="mark-group role-axis" aria-hidden="true"><g transform="translate(0.5,200.5)"><path class="background" aria-hidden="true" d="M0,0h0v0h0Z" pointer-events="none"/><g><g class="mark-rule role-axis-grid" pointer-events="none"><line transform="translate(43,-200)" x2="0" y2="200" stroke="#ddd" stroke-width="1" opacity="1"/><line transform="translate(87,-200)" x2="0" y2="200" stroke="#ddd" stroke-width="1" opacity="1"/><line transform="translate(130,-200)" x2="0" y2="200" stroke="#ddd" stroke-width="1" opacity="1"/><line transform="translate(174,-200)" x2="0" y2="200" stroke="#ddd" stroke-width="1" opacity="1"/></g></g><path class="foreground" aria-hidden="true" d="" pointer-events="none" display="none"/></g></g><g class="mark-group role-axis" aria-hidden="true"><g transform="translate(0.5,0.5)"><path class="background" aria-hidden="true" d="M0,0h0v0h0Z" pointer-events="none"/><g><g class="mark-rule role-axis-grid" pointer-events="none"><line transform="translate(0,200)" x2="200" y2="0" stroke="#ddd" stroke-width="1" opacity="1"/><line transform="translate(0,162)" x2="200" y2="0" stroke="#ddd" stroke-width="1" opacity="1"/><line transform="translate(0,123)" x2="200" y2="0" stroke="#ddd" stroke-width="1" opacity="1"/><line transform="translate(0,85)" x2="200" y2="0" stroke="#ddd" stroke-width="1" opacity="1"/><line transform="translate(0,46)" x2="200" y2="0" stroke="#ddd" stroke-width="1" opacity="1"/><line transform="translate(0,8)" x2="200" y2="0" stroke="#ddd" stroke-width="1" opacity="1"/></g></g><path class="foreground" aria-hidden="true" d="" pointer-events="none" display="none"/></g></g><g class="mark-group role-axis" role="graphics-symbol" aria-roledescription="axis" aria-label="X-axis titled 'Time' for a time scale with values from Monday, 01 January 2024, 2:19:43 PM to Sunday, 23 February 2025, 4:42:11 PM"><g transform="translate(0.5,200.5)"><path class="background" aria-hidden="true" d="M0,0h0v0h0Z" pointer-events="none"/><g><g class="mark-rule role-axis-tick" pointer-events="none"><line transform="translate(43,0)" x2="0" y2="5" stroke="#888" stroke-width="1" opacity="1"/><line transform="translate(87,0)" x2="0" y2="5" stroke="#888" stroke-width="1" opacity="1"/><line transform="translate(130,0)" x2="0" y2="5" stroke="#888" stroke-width="1" opacity="1"/><line transform="translate(174,0)" x2="0" y2="5" stroke="#888" stroke-width="1" opacity="1"/></g><g class="mark-text role-axis-label" pointer-events="none"><text text-anchor="middle" transform="translate(43.14158956799602,15)" font-family="Liberation Mono" font-size="10px" fill="#000" opacity="1">April</text><text text-anchor="middle" transform="translate(86.5680888740983,15)" font-family="Liberation Mono" font-size="10px" fill="#000" opacity="0">July</text><text text-anchor="middle" transform="translate(130.4718024582896,15)" font-family="Liberation Mono" font-size="10px" fill="#000" opacity="0">October</text><text text-anchor="middle" transform="translate(174.37551604248088,15)" font-family="Liberation Mono" font-size="10px" fill="#000" opacity="1">2025</text></g><g class="mark-rule role-axis-domain" pointer-events="none"><line transform="translate(0,0)" x2="200" y2="0" stroke="#888" stroke-width="1" opacity="1"/></g><g class="mark-text role-axis-title" pointer-events="none"><text text-anchor="middle" transform="translate(100,30)" font-family="Liberation Mono" font-size="11px" font-weight="bold" fill="#000" opacity="1">Time</text></g></g><path class="foreground" aria-hidden="true" d="" pointer-events="none" display="none"/></g></g><g class="mark-group role-axis" role="graphics-symbol" aria-roledescription="axis" aria-label="Y-axis titled 'Price' for a linear scale with values from 0 to 2,600"><g transform="translate(0.5,0.5)"><path class="background" aria-hidden="true" d="M0,0h0v0h0Z" pointer-events="none"/><g><g class="mark-rule role-axis-tick" pointer-events="none"><line transform="translate(0,200)" x2="-5" y2="0" stroke="#888" stroke-width="1" opacity="1"/><line transform="translate(0,162)" x2="-5" y2="0" stroke="#888" stroke-width="1" opacity="1"/><line transform="translate(0,123)" x2="-5" y2="0" stroke="#888" stroke-width="1" opacity="1"/><line transform="translate(0,85)" x2="-5" y2="0" stroke="#888" stroke-width="1" opacity="1"/><line transform="translate(0,46)" x2="-5" y2="0" stroke="#888" stroke-width="1" opacity="1"/><line transform="translate(0,8)" x2="-5" y2="0" stroke="#888" stroke-width="1" opacity="1"/></g><g class="mark-text role-axis-label" pointer-events="none"><text text-anchor="end" transform="translate(-7,203)" font-family="Liberation Mono" font-size="10px" fill="#000" opacity="1">0</text><text text-anchor="end" transform="translate(-7,164.53846153846155)" font-family="Liberation Mono" font-size="10px" fill="#000" opacity="1">500</text><text text-anchor="end" transform="translate(-7,126.07692307692308)" font-family="Liberation Mono" font-size="10px" fill="#000" opacity="1">1,000</text><text text-anchor="end" transform="translate(-7,87.61538461538463)" font-family="Liberation Mono" font-size="10px" fill="#000" opacity="1">1,500</text><text text-anchor="end" transform="translate(-7,49.153846153846146)" font-family="Liberation Mono" font-size="10px" fill="#000" opacity="1">2,000</text><text text-anchor="end" transform="translate(-7,10.692307692307686)" font-family="Liberation Mono" font-size="10px" fill="#000" opacity="1">2,500</text></g><g class="mark-rule role-axis-domain" pointer-events="none"><line transform="translate(0,200)" x2="0" y2="-200" stroke="#888" stroke-width="1" opacity="1"/></g><g class="mark-text role-axis-title" pointer-events="none"><text text-anchor="middle" transform="translate(-51,100) rotate(-90) translate(0,-2)" font-family="Liberation Mono" font-size="11px" font-weight="bold" fill="#000" opacity="1">Price</text></g></g><path class="foreground" aria-hidden="true" d="" pointer-events="none" display="none"/></g></g><g class="mark-group role-scope pathgroup" role="graphics-object" aria-roledescription="group mark container"><g transform="translate(0,0)"><path class="background" aria-hidden="true" d="M0,0h200v200h-200Z"/><g><g class="mark-line role-mark marks" role="graphics-object" aria-roledescription="line mark container"><path aria-label="Time: Jan 01, 2024; Price: 2399; identifier: altex-LG-F2WR508SBW" role="graphics-symbol" aria-roledescription="line mark" d="M0,15.462L0.05,15.462L0.126,15.462L0.285,15.462L0.364,15.462L0.448,15.462L0.524,15.462L0.603,15.462L0.762,15.462L0.841,15.462L0.925,15.462L1.001,15.462L1.08,15.462L1.239,15.462L1.319,15.462L1.402,15.462L1.479,15.462L1.557,15.462L1.717,34.692L1.796,34.692L1.879,34.692L1.956,34.692L2.034,34.692L2.194,34.692L2.273,34.692L2.356,34.692L2.433,34.692L2.512,34.692L2.671,34.692L2.75,34.692L2.834,34.692L2.91,34.692L2.989,34.692L3.148,34.692L3.228,34.692L3.312,34.692L3.388,34.692L3.466,34.692L3.626,34.692L3.705,34.692L3.79,34.692L3.865,34.692L3.943,34.692L4.103,34.692L4.182,34.692L4.266,34.692L4.342,34.692L4.42,34.692L4.58,34.692L4.659,34.692L4.743,34.692L4.82,34.692L4.898,34.692L5.057,34.692L5.137,34.692L5.22,34.692L5.297,34.692L5.375,34.692L5.534,46.231L5.613,46.231L5.697,46.231L5.773,46.231L5.852,46.231L6.012,46.231L6.091,46.231L6.174,46.231L6.25,46.231L6.329,46.231L6.489,46.231L6.569,46.231L6.653,46.231L6.728,46.231L6.806,46.231L6.966,46.231L7.046,46.231L7.13,46.231L7.206,46.231L7.284,46.231L7.443,46.231L7.523,46.231L7.607,46.231L7.683,46.231L7.761,46.231L7.92,46.231L8,46.231L8.084,46.231L8.16,46.231L8.238,46.231L8.398,46.231L8.477,46.231L8.561,46.231L8.637,46.231L8.715,46.231L8.875,46.231L8.954,46.231L9.037,46.231L9.114,46.231L9.193,46.231L9.352,46.231L9.431,46.231L9.515,46.231L9.591,46.231L9.67,46.231L9.83,46.231L9.909,46.231L9.993,46.231L10.069,46.231L10.147,46.231L10.307,46.231L10.386,46.231L10.47,46.231L10.546,46.231L10.624,46.231L10.784,46.231L10.864,46.231L10.947,46.231L11.023,46.231L11.101,46.231L11.261,46.231L11.341,46.231L11.425,46.231L11.501,46.231L11.579,46.231L11.738,46.231L11.818,46.231L11.9,46.231L11.977,46.231L12.056,46.231L12.215,46.231L12.295,46.231L12.376,46.231L12.453,46.231L12.533,46.231L12.692,46.231L12.772,46.231L12.854,46.231L12.931,46.231L13.01,46.231L13.169,46.231L13.249,46.231L13.332,46.231L13.408,46.231L13.488,46.231L13.646,46.231L13.726,46.231L13.809,46.231L13.886,46.231L13.965,46.231L14.124,46.231L14.203,46.231L14.286,46.231L14.362,46.231L14.442,46.231L14.601,34.692L14.681,34.692L14.763,34.692L14.84,34.692L14.919,34.692L15.078,34.692L15.158,34.692L15.24,34.692L15.317,34.692L15.396,34.692L15.555,34.692L15.635,34.692L15.717,34.692L15.794,34.692L15.874,34.692L16.033,34.692L16.112,34.692L16.194,34.692L16.271,34.692L16.351,34.692L16.51,34.692L16.59,34.692L16.672,34.692L16.749,34.692L16.828,34.692L16.987,34.692L17.067,34.692L17.149,34.692L17.226,34.692L17.305,34.692L17.464,34.692L17.544,34.692L17.626,34.692L17.703,34.692L17.782,34.692L17.941,34.692L18.021,34.692L18.104,34.692L18.18,34.692L18.26,34.692L18.419,34.692L18.498,34.692L18.581,34.692L18.657,34.692L18.737,34.692L18.896,34.692L18.975,34.692L19.058,34.692L19.134,34.692L19.214,34.692L19.373,34.692L19.453,34.692L19.535,34.692L19.612,34.692L19.691,34.692L19.85,34.692L19.93,34.692L20.013,34.692L20.089,34.692L20.168,34.692L20.327,34.692L20.407,34.692L20.49,34.692L20.567,34.692L20.646,34.692L20.805,34.692L20.884,34.692L20.967,34.692L21.044,34.692L21.123,34.692L21.362,34.692L21.444,34.692L21.521,34.692L21.6,34.692L21.759,34.692L21.839,34.692L21.921,34.692L21.998,34.692L22.077,34.692L22.237,34.692L22.316,34.692L22.398,34.692L22.475,34.692L22.554,34.692L22.714,34.692L22.794,34.692L22.875,34.692L22.952,34.692L23.032,34.692L23.191,34.692L23.271,34.692L23.353,34.692L23.43,34.692L23.509,34.692L23.668,34.692L23.748,34.692L23.83,34.692L23.907,34.692L23.986,34.692L24.145,34.692L24.225,34.692L24.308,34.692L24.384,34.692L24.464,34.692L24.623,34.692L24.702,34.692L24.785,34.692L24.861,34.692L24.941,34.692L25.1,34.692L25.179,34.692L25.262,34.692L25.338,34.692L25.418,34.692L25.577,34.692L25.656,34.692L25.738,34.692L25.815,34.692L25.895,34.692L26.054,34.692L26.134,34.692L26.216,34.692L26.293,34.692L26.372,34.692L26.531,34.692L26.611,34.692L26.694,34.692L26.77,34.692L26.849,34.692L27.009,34.692L27.088,34.692L27.171,34.692L27.247,34.692L27.327,34.692L27.486,34.692L27.565,34.692L27.648,34.692L27.725,34.692L27.804,34.692L27.963,34.692L28.042,34.692L28.125,34.692L28.201,34.692L28.281,34.692L28.44,34.692L28.52,34.692L28.602,34.692L28.679,34.692L28.758,34.692L28.917,34.692L28.997,34.692L29.079,34.692L29.156,34.692L29.236,34.692L29.395,34.692L29.474,34.692L29.556,34.692L29.633,34.692L29.713,34.692L29.879,34.692L29.988,34.692L30.035,34.692L30.111,34.692L30.19,34.692L30.349,34.692L30.429,34.692L30.512,34.692L30.588,34.692L30.667,34.692L30.826,34.692L30.906,34.692L30.989,34.692L31.065,34.692L31.144,34.692L31.303,34.692L31.383,34.692L31.466,34.692L31.542,34.692L31.622,34.692L31.781,34.692L31.861,34.692L31.943,34.692L32.019,34.692L32.099,34.692L32.258,34.692L32.338,34.692L32.419,34.692L32.497,34.692L32.576,34.692L32.735,34.692L32.815,34.692L32.897,34.692L32.974,34.692L33.053,34.692L33.213,34.692L33.292,34.692L33.375,34.692L33.452,34.692L33.531,34.692L33.69,34.692L33.769,34.692L33.852,34.692L33.929,34.692L34.008,34.692L34.167,34.692L34.247,34.692L34.329,34.692L34.405,34.692L34.485,34.692L34.644,34.692L34.724,34.692L34.807,34.692L34.883,34.692L34.962,34.692L35.121,34.692L35.201,34.692L35.283,34.692L35.36,34.692L35.439,34.692L35.598,34.692L35.678,34.692L35.76,34.692L35.837,34.692L35.917,34.692L36.076,34.692L36.156,34.692L36.237,34.692L36.314,34.692L36.394,34.692L36.553,34.692L36.632,34.692L36.716,34.692L36.792,34.692L36.871,34.692L37.03,34.692L37.11,34.692L37.192,34.692L37.27,34.692L37.348,34.692L37.507,34.692L37.587,34.692L37.67,34.692L37.747,34.692L37.826,34.692L37.984,34.692L38.064,34.692L38.147,34.692L38.224,34.692L38.303,34.692L38.462,34.692L38.541,34.692L38.624,34.692L38.701,34.692L38.78,34.692L38.939,34.692L39.018,34.692L39.101,34.692L39.177,34.692L39.257,34.692L39.416,34.692L39.496,34.692L39.579,34.692L39.655,34.692L39.734,34.692L39.893,34.692L39.973,34.692L40.056,34.692L40.132,34.692L40.211,34.692L40.371,34.692L40.451,34.692L40.533,34.692L40.61,34.692L40.689,34.692L40.848,34.692L40.928,34.692L41.011,34.692L41.087,34.692L41.166,34.692L41.325,34.692L41.405,34.692L41.488,34.692L41.564,34.692L41.643,34.692L41.802,34.692L41.882,34.692L41.965,34.692L42.041,34.692L42.12,34.692L42.279,34.692L42.359,34.692L42.441,34.692L42.518,34.692L42.598,34.692L42.757,34.692L42.837,34.692L42.919,34.692L42.996,34.692L43.075,34.692L43.234,34.692L43.314,34.692L43.397,34.692L43.474,34.692L43.552,34.692L43.711,34.692L43.791,34.692L43.874,34.692L43.95,34.692L44.029,34.692L44.188,34.692L44.268,34.692L44.351,34.692L44.428,34.692L44.506,34.692L44.666,34.692L44.745,34.692L44.828,34.692L44.905,34.692L44.984,34.692L45.143,34.692L45.305,34.692L45.382,34.692L45.461,34.692L45.62,34.692L45.7,34.692L45.782,34.692L45.859,34.692L45.938,34.692L46.097,34.692L46.177,34.692L46.259,34.692L46.336,34.692L46.415,34.692L46.575,34.692L46.654,34.692L46.737,34.692L46.814,34.692L46.892,34.692L47.052,34.692L47.131,34.692L47.214,34.692L47.291,34.692L47.37,34.692L47.529,34.692L47.609,34.692L47.692,34.692L47.769,34.692L47.847,34.692L48.006,34.692L48.086,34.692L48.169,34.692L48.324,34.692L48.483,34.692L48.563,34.692L48.646,34.692L48.722,34.692L48.801,34.692L48.96,34.692L49.04,34.692L49.121,34.692L49.199,34.692L49.278,34.692L49.445,34.692L49.567,34.692L49.642,34.692L49.796,34.692L49.916,34.692L49.994,34.692L50.076,34.692L50.153,34.692L50.233,34.692L50.392,34.692L50.472,34.692L50.555,34.692L50.631,34.692L50.71,34.692L50.869,34.692L50.949,34.692L51.032,34.692L51.109,34.692L51.188,34.692L51.426,34.692L51.509,34.692L51.586,34.692L51.665,34.692L51.824,34.692L51.903,34.692L51.986,34.692L52.063,34.692L52.142,34.692L52.301,34.692L52.38,34.692L52.463,34.692L52.54,34.692L52.619,34.692L52.778,34.692L52.858,34.692L52.94,34.692L53.017,34.692L53.096,34.692L53.255,34.692L53.335,34.692L53.419,34.692L53.494,34.692L53.573,34.692L53.733,34.692L53.812,34.692L53.896,34.692L53.972,34.692L54.051,34.692L54.21,34.692L54.29,34.692L54.375,34.692L54.449,34.692L54.528,34.692L54.687,34.692L54.767,34.692L54.848,34.692L54.926,34.692L55.005,34.692L55.164,34.692L55.244,34.692L55.327,34.692L55.403,34.692L55.483,34.692L55.641,34.692L55.721,34.692L55.803,34.692L55.88,34.692L55.959,34.692L56.119,34.692L56.198,34.692L56.281,34.692L56.357,34.692L56.437,34.692L56.596,34.692L56.676,34.692L56.759,34.692L56.835,34.692L56.914,34.692L57.073,34.692L57.153,34.692L57.236,34.692L57.312,34.692L57.391,34.692L57.55,34.692L57.631,34.692L57.714,34.692L57.789,34.692L57.868,34.692L58.028,57.769L58.107,57.769L58.191,57.769L58.267,57.769L58.346,57.769L58.505,57.769L58.584,57.769L58.668,57.769L58.744,57.769L58.823,57.769L58.982,57.769L59.061,57.769L59.144,57.769L59.221,57.769L59.3,57.769L59.459,57.769L59.539,57.769L59.622,57.769L59.698,57.769L59.777,57.769L59.936,57.769L60.016,57.769L60.1,57.769L60.176,57.769L60.254,57.769L60.414,57.769L60.493,57.769L60.576,57.769L60.653,57.769L60.732,57.769L60.891,57.769L60.971,57.769L61.055,57.769L61.131,57.769L61.209,57.769L61.369,34.692L61.448,34.692L61.531,34.692L61.608,34.692L61.686,34.692L61.845,34.692L61.925,34.692L62.009,34.692L62.084,34.692L62.163,34.692L62.322,34.692L62.402,34.692L62.485,34.692L62.561,34.692L62.641,34.692L62.8,34.692L62.879,34.692L62.962,34.692L63.038,34.692L63.118,34.692L63.277,34.692L63.357,34.692L63.441,34.692L63.516,34.692L63.595,34.692L63.754,34.692L63.834,34.692L63.918,34.692L63.994,34.692L64.072,34.692L64.232,34.692L64.311,34.692L64.395,34.692L64.471,34.692L64.55,34.692L64.708,34.692L64.789,34.692L64.872,34.692L64.948,34.692L65.027,34.692L65.186,34.692L65.265,34.692L65.349,34.692L65.425,34.692L65.504,34.692L65.663,34.692L65.743,34.692L65.826,34.692L65.902,34.692L65.981,34.692L66.141,34.692L66.22,34.692L66.303,34.692L66.379,34.692L66.458,34.692L66.618,34.692L66.697,34.692L66.781,34.692L66.857,34.692L66.936,34.692L67.095,34.692L67.175,34.692L67.258,34.692L67.334,34.692L67.413,34.692L67.572,34.692L67.652,34.692L67.736,34.692L67.812,34.692L67.89,34.692L68.049,34.692L68.129,34.692L68.212,34.692L68.289,34.692L68.367,34.692L68.527,34.692L68.606,34.692L68.69,34.692L68.765,34.692L68.845,34.692L69.004,34.692L69.083,34.692L69.166,34.692L69.242,34.692L69.322,34.692L69.481,34.692L69.56,34.692L69.643,34.692L69.72,34.692L69.799,34.692L69.958,34.692L70.038,34.692L70.122,34.692L70.198,34.692L70.276,34.692L70.437,34.692L70.515,34.692L70.599,34.692L70.675,34.692L70.753,34.692L70.913,34.692L70.993,34.692L71.076,34.692L71.152,34.692L71.23,34.692L71.391,34.692L71.47,34.692L71.553,34.692L71.629,34.692L71.708,34.692L71.868,34.692L71.947,34.692L72.03,34.692L72.106,34.692L72.185,34.692L72.344,34.692L72.424,34.692L72.507,34.692L72.583,34.692L72.662,34.692L72.821,34.692L72.901,34.692L72.984,34.692L73.06,34.692L73.139,34.692L73.299,34.692L73.379,34.692L73.463,34.692L73.538,34.692L73.617,34.692L73.776,34.692L73.856,34.692L73.94,34.692L74.016,34.692L74.094,34.692L74.254,34.692L74.333,34.692L74.417,34.692L74.493,34.692L74.571,34.692L74.73,34.692L74.81,34.692L74.894,34.692L74.969,34.692L75.048,34.692L75.208,34.692L75.288,34.692L75.372,34.692L75.448,34.692L75.526,34.692L75.685,34.692L75.764,34.692L75.847,34.692L75.924,34.692L76.003,34.692L76.162,34.692L76.241,34.692L76.325,34.692L76.401,34.692L76.48,34.692L76.64,34.692L76.719,34.692L76.803,34.692L76.879,34.692L76.957,34.692L77.117,34.692L77.196,34.692L77.28,34.692L77.356,34.692L77.435,34.692L77.594,34.692L77.674,46.231L77.758,46.231L77.833,46.231L77.911,46.231L78.071,46.231L78.151,46.231L78.235,46.231L78.311,46.231L78.389,46.231L78.548,46.231L78.628,46.231L78.712,48.538L78.787,48.538L78.866,48.538L79.026,48.538L79.105,48.538L79.188,48.538L79.264,48.538L79.343,48.538L79.502,48.538L79.582,48.538L79.666,48.538L79.742,48.538L79.82,48.538L79.98,48.538L80.06,48.538L80.144,48.538L80.219,48.538L80.298,48.538L80.457,48.538L80.537,48.538L80.621,48.538L80.696,48.538L80.775,48.538L80.934,48.538L81.014,48.538L81.098,48.538L81.174,48.538L81.252,48.538L81.411,48.538L81.491,48.538L81.575,48.538L81.652,48.538L81.729,48.538L81.889,48.538L81.968,48.538L82.052,48.538L82.128,48.538L82.206,48.538L82.365,48.538L82.445,48.538L82.53,48.538L82.605,48.538L82.684,48.538L82.843,48.538L82.922,48.538L83.006,48.538L83.082,48.538L83.161,48.538L83.32,48.538L83.4,48.538L83.484,48.538L83.559,48.538L83.638,48.538L83.797,48.538L83.877,48.538L83.961,48.538L84.116,48.538L84.275,48.538L84.355,48.538L84.439,48.538L84.514,48.538L84.593,48.538L84.753,48.538L84.832,48.538L84.916,48.538L84.991,48.538L85.07,48.538L85.229,48.538L85.309,48.538L85.393,48.538L85.468,48.538L85.547,48.538L85.707,48.538L85.786,48.538L85.869,48.538L85.945,48.538L86.024,48.538L86.183,48.538L86.263,48.538L86.347,48.538L86.423,48.538L86.501,48.538L86.661,48.538L86.741,48.538L86.825,48.538L86.901,48.538L86.978,48.538L87.138,48.538L87.218,48.538L87.302,48.538L87.378,48.538L87.456,48.538L87.615,48.538L87.695,48.538L87.779,48.538L87.855,48.538L87.933,48.538L88.093,48.538L88.172,48.538L88.256,48.538L88.331,48.538L88.41,48.538L88.57,48.538L88.649,48.538L88.733,48.538L88.809,48.538L88.887,48.538L89.047,48.538L89.126,48.538L89.21,48.538L89.286,48.538L89.365,48.538L89.524,48.538L89.603,48.538L89.687,48.538L89.763,48.538L89.842,48.538L90.002,48.538L90.081,48.538L90.165,48.538L90.241,48.538L90.319,48.538L90.478,48.538L90.559,48.538L90.643,48.538L90.718,48.538L90.796,48.538L90.956,48.538L91.036,48.538L91.12,48.538L91.195,48.538L91.274,48.538L91.433,48.538L91.513,48.538L91.597,48.538L91.672,48.538L91.751,48.538L91.91,48.538L91.99,48.538L92.074,48.538L92.149,48.538L92.228,48.538L92.387,48.538L92.467,48.538L92.55,48.538L92.626,48.538L92.705,48.538L92.865,48.538L92.945,48.538L93.033,48.538L93.108,48.538L93.182,48.538L93.342,48.538L93.422,48.538L93.506,48.538L93.582,48.538L93.66,48.538L93.819,48.538L93.899,48.538L93.982,48.538L94.059,48.538L94.137,48.538L94.296,48.538L94.376,48.538L94.46,48.538L94.536,48.538L94.614,48.538L94.774,48.538L94.853,48.538L94.938,48.538L95.013,48.538L95.091,48.538L95.251,48.538L95.33,48.538L95.415,48.538L95.49,48.538L95.569,48.538L95.728,48.538L95.807,48.538L95.891,48.538L95.967,48.538L96.046,48.538L96.205,48.538L96.284,48.538L96.368,48.538L96.445,48.538L96.523,48.538L96.683,48.538L96.763,48.538L96.847,48.538L96.922,48.538L97,48.538L97.16,48.538L97.24,48.538L97.324,48.538L97.399,48.538L97.477,48.538L97.637,27L97.717,27L97.801,27L97.876,27L97.955,27L98.115,27L98.194,27L98.278,27L98.354,27L98.432,27L98.592,27L98.671,27L98.755,27L98.831,27L98.909,27L99.068,27L99.148,27L99.232,27L99.307,27L99.386,27L99.545,27L99.625,27L99.709,27L99.785,27L99.863,27L100.023,27L100.103,27L100.187,27L100.262,27L100.341,27L100.5,27L100.58,27L100.664,27L100.74,27L100.818,27L100.977,27L101.056,27L101.141,27L101.217,27L101.295,27L101.455,27L101.535,27L101.619,27L101.694,27L101.773,27L101.932,27L102.012,27L102.096,27L102.171,27L102.249,27L102.409,27L102.489,27L102.572,27L102.648,27L102.727,27L102.887,27L102.966,27L103.049,27L103.125,27L103.204,27L103.364,27L103.443,27L103.528,27L103.603,27L103.681,27L103.841,27L103.921,27L104.005,27L104.08,27L104.158,27L104.318,27L104.398,27L104.482,27L104.558,27L104.636,27L104.796,27L104.875,27L104.959,27L105.035,27L105.113,27L105.273,27L105.352,27L105.437,27L105.512,27L105.59,27L105.751,27L105.829,27L105.913,27L105.99,27L106.067,27L106.227,27L106.306,27L106.39,27L106.466,27L106.545,27L106.704,27L106.784,27L106.869,27L106.944,27L107.022,27L107.181,27L107.261,27L107.346,27L107.421,27L107.499,27L107.659,27L107.739,27L107.823,27L107.899,27L107.976,27L108.136,27L108.216,27L108.3,27L108.375,27L108.453,27L108.613,27L108.693,27L108.777,27L108.853,27L108.93,27L109.09,27L109.169,27L109.253,27L109.329,27L109.409,27L109.567,27L109.647,27L109.731,27L109.806,27L109.885,27L110.045,27L110.125,27L110.209,27L110.284,27L110.362,27L110.523,27L110.602,27L110.686,27L110.761,27L110.84,27L110.999,27L111.079,27L111.162,27L111.239,27L111.317,27L111.476,27L111.556,27L111.64,27L111.716,27L111.794,27L111.954,27L112.033,27L112.117,27L112.193,27L112.271,27L112.431,27L112.51,27L112.594,27L112.67,27L112.748,27L112.908,27L112.988,27L113.071,27L113.147,27L113.226,27L113.386,27L113.465,27L113.55,27L113.625,27L113.703,27L113.863,27L113.942,27L114.027,27L114.102,27L114.18,27L114.34,27L114.42,27L114.504,27L114.58,27L114.657,27L114.817,27L114.897,27L114.981,27L115.056,27L115.134,27L115.295,27L115.374,27L115.459,27L115.534,27L115.612,27L115.772,27L115.851,27L115.935,27L116.011,27L116.089,27L116.249,27L116.328,27L116.413,27L116.488,27L116.566,27L116.726,27L116.806,27L116.891,27L116.966,27L117.044,27L117.203,27L117.283,27L117.368,27L117.443,27L117.521,27L117.681,27L117.76,27L117.845,27L117.92,27L117.998,27L118.158,27L118.238,27L118.322,27L118.397,27L118.475,27L118.635,27L118.715,27L118.799,27L118.875,27L118.952,27L119.112,27L119.191,27L119.275,27L119.351,27L119.429,27L119.589,27L119.669,27L119.753,27L119.829,27L119.907,27L120.067,27L120.147,27L120.231,27L120.306,27L120.384,27L120.544,27L120.624,27L120.709,27L120.783,27L120.861,27L121.022,27L121.101,27L121.186,27L121.26,27L121.338,27L121.499,27L121.578,27L121.663,27L121.738,27L121.816,27L121.976,27L122.055,27L122.14,27L122.215,27L122.293,27L122.453,46.231L122.532,46.231L122.616,46.231L122.691,46.231L122.77,46.231L122.93,46.231L123.01,46.231L123.094,46.231L123.169,46.231L123.247,46.231L123.408,46.231L123.487,46.231L123.572,46.231L123.647,46.231L123.725,46.231L123.883,46.231L123.965,46.231L124.049,46.231L124.124,46.231L124.202,46.231L124.362,46.231L124.442,46.231L124.526,46.231L124.601,46.231L124.679,46.231L124.839,53.923L124.919,53.923L125.004,53.923L125.078,53.923L125.156,53.923L125.316,53.923L125.396,53.923L125.481,53.923L125.555,53.923L125.634,53.923L125.793,53.923L125.873,53.923L125.957,53.923L126.032,53.923L126.11,53.923L126.271,53.923L126.35,53.923L126.434,53.923L126.509,53.923L126.588,53.923L126.748,53.923L126.828,53.923L126.913,53.923L126.987,53.923L127.065,53.923L127.225,53.923L127.305,53.923L127.39,53.923L127.465,53.923L127.543,53.923L127.702,53.923L127.783,53.923L127.867,53.923L127.943,53.923L128.02,53.923L128.18,23.154L128.26,23.154L128.345,23.154L128.419,23.154L128.497,23.154L128.657,23.154L128.737,23.154L128.822,23.154L128.896,23.154L129.134,23.154L129.213,23.154L129.298,23.154L129.373,23.154L129.451,23.154L129.611,23.154L129.691,23.154L129.775,23.154L129.85,23.154L129.928,23.154L130.089,23.154L130.169,23.154L130.254,23.154L130.329,23.154L130.406,23.154L130.566,23.154L130.646,23.154L130.731,23.154L130.805,23.154L130.883,23.154L131.043,23.154L131.123,23.154L131.208,23.154L131.282,23.154L131.361,23.154L131.52,23.154L131.6,23.154L131.685,23.154L131.76,23.154L131.837,23.154L131.997,23.154L132.077,23.154L132.162,23.154L132.237,23.154L132.315,23.154L132.474,23.154L132.554,23.154L132.638,23.154L132.713,23.154L132.791,23.154L132.952,23.154L133.031,23.154L133.115,23.154L133.19,23.154L133.269,23.154L133.429,23.154L133.509,23.154L133.594,23.154L133.669,23.154L133.747,23.154L133.906,23.154L133.986,23.154L134.071,23.154L134.146,23.154L134.223,23.154L134.383,23.154L134.464,23.154L134.548,23.154L134.623,23.154L134.701,23.154L134.861,23.154L134.941,23.154L135.025,23.154L135.1,23.154L135.178,23.154L135.338,23.154L135.418,23.154L135.502,23.154L135.577,23.154L135.656,23.154L135.815,23.154L135.894,23.154L135.979,23.154L136.054,23.154L136.132,23.154L136.292,23.154L136.372,23.154L136.456,23.154L136.531,23.154L136.609,23.154L136.77,23.154L136.85,23.154L136.935,23.154L137.009,23.154L137.087,23.154L137.247,23.154L137.327,23.154L137.412,23.154L137.486,23.154L137.564,23.154L137.724,23.154L137.804,23.154L137.889,23.154L137.963,23.154L138.041,23.154L138.202,23.154L138.281,23.154L138.366,23.154L138.441,23.154L138.519,23.154L138.679,23.154L138.758,23.154L138.843,23.154L138.918,23.154L138.996,23.154L139.155,23.154L139.235,23.154L139.319,23.154L139.394,23.154L139.473,23.154L139.633,23.154L139.713,23.154L139.797,23.154L139.871,23.154L139.95,23.154L140.11,23.154L140.19,23.154L140.275,23.154L140.35,23.154L140.427,23.154L140.588,23.154L140.667,23.154L140.752,23.154L140.827,23.154L140.904,23.154L141.064,23.154L141.145,23.154L141.229,23.154L141.305,23.154L141.382,23.154L141.542,23.154L141.622,23.154L141.707,23.154L141.781,23.154L141.859,23.154L142.019,23.154L142.099,23.154L142.184,23.154L142.258,23.154L142.336,23.154L142.496,23.154L142.575,23.154L142.66,23.154L142.735,23.154L142.813,23.154L142.973,23.154L143.053,23.154L143.137,23.154L143.212,23.154L143.291,23.154L143.451,23.154L143.531,23.154L143.616,23.154L143.691,23.154L143.768,23.154L143.928,23.154L144.008,23.154L144.093,23.154L144.168,23.154L144.245,23.154L144.405,23.154L144.486,23.154L144.57,23.154L144.645,23.154L144.722,23.154L145.047,23.154L145.122,23.154L145.2,23.154L145.359,23.154L145.439,23.154L145.524,23.154L145.598,23.154L145.677,23.154L145.837,23.154L145.916,23.154L146,23.154L146.076,23.154L146.153,23.154L146.314,23.154L146.393,23.154L146.477,23.154L146.552,23.154L146.631,23.154L146.791,23.154L146.871,23.154L146.956,23.154L147.03,23.154L147.108,23.154L147.268,23.154L147.348,23.154L147.432,23.154L147.507,23.154L147.585,23.154L147.746,23.154L147.825,23.154L147.91,23.154L147.985,23.154L148.063,23.154L148.222,58.538L148.303,58.538L148.387,58.538L148.462,58.538L148.54,58.538L148.7,58.538L148.779,58.538L148.864,58.538L148.939,58.538L149.017,58.538L149.177,58.538L149.256,58.538L149.34,58.538L149.416,58.538L149.494,58.538L149.654,58.538L149.733,58.538L149.817,58.538L149.893,58.538L149.971,58.538L150.131,58.538L150.212,58.538L150.296,58.538L150.371,58.538L150.449,58.538L150.608,58.538L150.689,58.538L150.774,58.538L150.848,58.538L150.926,58.538L151.086,58.538L151.166,58.538L151.251,58.538L151.325,58.538L151.403,58.538L151.563,23.154L151.643,23.154L151.728,23.154L151.803,23.154L151.881,23.154L152.041,23.154L152.12,23.154L152.206,23.154L152.28,23.154L152.358,23.154L152.518,23.154L152.597,23.154L152.682,23.154L152.757,23.154L152.835,23.154L152.995,23.154L153.074,23.154L153.159,23.154L153.234,23.154L153.312,23.154L153.473,23.154L153.553,23.154L153.638,23.154L153.713,23.154L153.79,23.154L153.95,23.154L154.03,23.154L154.115,23.154L154.189,23.154L154.267,23.154L154.427,23.154L154.507,23.154L154.592,23.154L154.667,23.154L154.744,23.154L154.904,23.154L154.984,23.154L155.069,23.154L155.144,23.154L155.221,23.154L155.381,23.154L155.461,23.154L155.546,23.154L155.621,23.154L155.699,23.154L155.858,23.154L155.938,23.154L156.023,23.154L156.098,23.154L156.175,23.154L156.335,23.154L156.415,23.154L156.5,23.154L156.575,23.154L156.652,23.154L156.813,23.154L156.894,23.154L156.978,23.154L157.053,23.154L157.13,23.154L157.29,23.154L157.371,23.154L157.456,23.154L157.53,23.154L157.608,23.154L157.768,23.154L157.848,23.154L157.933,23.154L158.007,23.154L158.085,23.154L158.245,23.154L158.325,23.154L158.41,23.154L158.484,23.154L158.562,23.154L158.722,23.154L158.802,23.154L158.887,23.154L158.961,23.154L159.039,23.154L159.199,23.154L159.278,23.154L159.363,23.154L159.438,23.154L159.516,23.154L159.676,23.154L159.756,23.154L159.841,23.154L159.915,23.154L159.993,23.154L160.154,23.154L160.234,23.154L160.319,23.154L160.393,23.154L160.471,23.154L160.631,23.154L160.711,23.154L160.796,23.154L160.871,23.154L160.948,23.154L161.108,23.154L161.189,23.154L161.274,23.154L161.348,23.154L161.425,23.154L161.585,23.154L161.666,23.154L161.751,23.154L161.825,23.154L161.903,23.154L162.063,23.154L162.143,23.154L162.228,23.154L162.302,23.154L162.38,23.154L162.54,23.154L162.619,23.154L162.704,23.154L162.778,23.154L162.856,23.154L163.017,23.154L163.096,23.154L163.181,23.154L163.255,23.154L163.334,23.154L163.494,23.154L163.575,23.154L163.66,23.154L163.734,23.154L163.812,23.154L163.972,23.154L164.052,23.154L164.137,23.154L164.211,23.154L164.289,23.154L164.449,23.154L164.529,23.154L164.614,23.154L164.689,23.154L164.766,23.154L164.926,23.154L165.006,23.154L165.091,23.154L165.166,23.154L165.243,23.154L165.403,23.154L165.483,23.154L165.568,23.154L165.642,23.154L165.72,23.154L165.88,23.154L165.96,23.154L166.044,23.154L166.119,23.154L166.197,23.154L166.357,23.154L166.437,23.154L166.522,23.154L166.596,23.154L166.674,23.154L166.835,23.154L166.915,23.154L167,23.154L167.075,23.154L167.152,23.154L167.312,23.154L167.392,23.154L167.477,23.154L167.552,23.154L167.629,23.154L167.789,23.154L167.869,23.154L167.954,23.154L168.028,23.154L168.106,23.154L168.266,23.154L168.346,23.154L168.431,23.154L168.505,23.154L168.583,23.154L168.743,23.154L168.823,23.154L168.907,23.154L168.982,23.154L169.06,23.154L169.219,23.154L169.299,23.154L169.383,23.154L169.458,23.154L169.537,23.154L169.697,23.154L169.776,23.154L169.86,23.154L169.935,23.154L170.014,23.154L170.175,23.154L170.254,23.154L170.339,23.154L170.413,23.154L170.491,23.154L170.651,23.154L170.731,23.154L170.816,23.154L170.89,23.154L170.969,23.154L171.129,23.154L171.209,23.154L171.293,23.154L171.368,23.154L171.446,23.154L171.606,23.154L171.686,23.154L171.771,23.154L171.845,23.154L171.923,23.154L172.083,23.154L172.163,23.154L172.247,23.154L172.322,23.154L172.4,23.154L172.56,23.154L172.64,23.154L172.724,23.154L172.799,23.154L172.877,23.154L173.037,23.154L173.117,23.154L173.201,23.154L173.276,23.154L173.354,23.154L173.515,23.154L173.595,23.154L173.679,23.154L173.754,23.154L173.832,23.154L173.992,23.154L174.072,23.154L174.156,23.154L174.231,23.154L174.309,23.154L174.469,23.154L174.549,23.154L174.633,23.154L174.708,23.154L174.786,23.154L174.946,23.154L175.026,23.154L175.111,23.154L175.186,23.154L175.264,23.154L175.424,23.154L175.503,23.154L175.588,23.154L175.663,23.154L175.741,23.154L175.901,23.154L175.98,23.154L176.065,23.154L176.139,23.154L176.218,23.154L176.378,23.154L176.457,23.154L176.542,23.154L176.617,23.154L176.695,23.154L176.855,23.154L176.935,23.154L177.021,23.154L177.095,23.154L177.172,23.154L177.332,23.154L177.413,23.154L177.498,23.154L177.575,23.154L177.65,23.154L177.81,23.154L177.89,23.154L177.975,23.154L178.049,23.154L178.127,23.154L178.287,23.154L178.367,23.154L178.452,23.154L178.526,23.154L178.604,23.154L178.764,23.154L178.844,23.154L178.929,23.154L179.004,23.154L179.082,23.154L179.241,23.154L179.321,23.154L179.405,23.154L179.48,23.154L179.558,23.154L179.718,23.154L179.798,23.154L179.882,23.154L179.957,23.154L180.035,23.154L180.196,23.154L180.276,23.154L180.361,23.154L180.436,23.154L180.513,23.154L180.672,23.154L180.753,23.154L180.837,23.154L180.912,23.154L180.99,23.154L181.15,23.154L181.23,23.154L181.315,23.154L181.389,23.154L181.467,23.154L181.627,23.154L181.707,23.154L181.792,23.154L181.945,23.154L182.105,23.154L182.184,23.154L182.269,23.154L182.343,23.154L182.661,23.154L182.745,23.154L182.82,23.154L182.899,23.154L183.058,23.154L183.138,23.154L183.222,23.154L183.297,23.154L183.376,23.154L183.536,23.154L183.616,23.154L183.701,23.154L183.775,23.154L183.853,23.154L184.013,23.154L184.093,23.154L184.178,23.154L184.253,23.154L184.331,23.154L184.491,23.154L184.571,23.154L184.655,23.154L184.73,23.154L184.807,23.154L184.968,23.154L185.048,23.154L185.132,23.154L185.207,23.154L185.285,23.154L185.445,23.154L185.525,23.154L185.609,23.154L185.684,23.154L185.762,23.154L185.922,23.154L186.001,23.154L186.085,23.154L186.161,23.154L186.239,23.154L186.399,23.154L186.478,23.154L186.562,23.154L186.638,23.154L186.716,23.154L186.877,23.154L186.957,23.154L187.041,23.154L187.116,23.154L187.194,23.154L187.354,23.154L187.434,23.154L187.518,23.154L187.593,23.154L187.671,23.154L187.831,23.154L187.911,23.154L187.995,23.154L188.07,23.154L188.148,23.154L188.308,23.154L188.388,23.154L188.473,23.154L188.549,23.154L188.626,23.154L188.785,23.154L188.865,23.154L188.95,23.154L189.025,23.154L189.102,23.154L189.263,23.154L189.342,23.154L189.426,23.154L189.501,23.154L189.58,23.154L189.739,23.154L189.819,23.154L189.903,23.154L189.978,23.154L190.057,23.154L190.217,23.154L190.297,23.154L190.382,23.154L190.456,23.154L190.534,23.154L190.694,23.154L190.774,23.154L190.859,23.154L190.934,23.154L191.012,23.154L191.172,23.154L191.252,23.154L191.336,23.154L191.412,23.154L191.489,23.154L191.649,23.154L191.729,23.154L191.814,23.154L191.888,23.154L191.966,23.154L192.126,23.154L192.206,23.154L192.29,23.154L192.366,23.154L192.443,23.154L192.603,23.154L192.683,23.154L192.766,23.154L192.841,23.154L192.92,23.154L193.08,23.154L193.159,23.154L193.243,23.154L193.319,23.154L193.398,23.154L193.558,23.154L193.638,23.154L193.722,23.154L193.797,23.154L193.876,23.154L194.035,23.154L194.115,23.154L194.2,23.154L194.275,23.154L194.352,23.154L194.512,23.154L194.592,23.154L194.677,23.154L194.752,23.154L194.83,23.154L195.069,40.846L195.154,40.846L195.229,40.846L195.309,40.846L195.467,40.846L195.546,40.846L195.631,40.846L195.706,40.846L195.784,40.846L195.944,40.846L196.023,40.846L196.107,40.846L196.182,40.846L196.261,40.846L196.421,40.846L196.5,40.846L196.585,40.846L196.66,40.846L196.738,40.846L196.898,40.846L196.979,40.846L197.063,40.846L197.137,40.846L197.215,40.846L197.375,40.846L197.456,40.846L197.54,40.846L197.615,40.846L197.693,40.846L197.853,40.846L197.933,40.846L198.017,40.846L198.092,40.846L198.17,40.846L198.33,23.154L198.41,23.154L198.495,23.154L198.57,23.154L198.648,23.154L198.808,23.154L198.887,23.154L198.972,23.154L199.046,23.154L199.124,23.154L199.285,23.154L199.364,23.154L199.448,23.154L199.523,23.154L199.601,23.154L199.762,23.154L199.841,23.154L199.925,23.154L200,23.154" stroke="#4c78a8" stroke-width="2"/></g></g><path class="foreground" aria-hidden="true" d="" display="none"/></g><g transform="translate(0,0)"><path class="background" aria-hidden="true" d="M0,0h200v200h-200Z"/><g><g class="mark-line role-mark marks" role="graphics-object" aria-roledescription="line mark container"><path aria-label="Time: Jan 01, 2024; Price: 2499; identifier: altex-LG-F2WR508SBM" role="graphics-symbol" aria-roledescription="line mark" d="M0,7.769L0.05,7.769L0.126,7.769L0.285,7.769L0.364,7.769L0.448,7.769L0.524,7.769L0.603,7.769L0.762,7.769L0.841,7.769L0.925,7.769L1.001,7.769L1.08,7.769L1.239,7.769L1.319,7.769L1.402,7.769L1.479,7.769L1.557,7.769L1.717,27L1.796,27L1.88,27L1.956,27L2.034,27L2.194,27L2.273,27L2.356,27L2.433,27L2.512,27L2.671,27L2.75,27L2.834,27L2.91,27L2.989,27L3.148,27L3.228,27L3.312,27L3.388,27L3.466,27L3.626,27L3.705,27L3.79,27L3.865,27L3.943,27L4.103,27L4.182,27L4.266,27L4.342,27L4.42,27L4.58,27L4.659,27L4.743,27L4.82,27L4.898,27L5.057,27L5.137,27L5.22,27L5.297,27L5.375,27L5.534,38.538L5.613,38.538L5.697,38.538L5.773,38.538L5.852,38.538L6.012,38.538L6.091,38.538L6.174,38.538L6.25,38.538L6.329,38.538L6.489,38.538L6.569,38.538L6.653,38.538L6.728,38.538L6.806,38.538L6.966,38.538L7.046,38.538L7.13,38.538L7.206,38.538L7.284,38.538L7.443,38.538L7.523,38.538L7.607,38.538L7.683,38.538L7.761,38.538L7.92,38.538L8,38.538L8.084,38.538L8.16,38.538L8.238,38.538L8.398,38.538L8.477,38.538L8.561,38.538L8.637,38.538L8.715,38.538L8.875,38.538L8.954,38.538L9.037,38.538L9.114,38.538L9.193,38.538L9.352,38.538L9.431,38.538L9.515,38.538L9.591,38.538L9.67,38.538L9.83,38.538L9.909,38.538L9.993,38.538L10.069,38.538L10.147,38.538L10.307,38.538L10.386,38.538L10.47,38.538L10.546,38.538L10.624,38.538L10.784,38.538L10.864,38.538L10.947,38.538L11.023,38.538L11.101,38.538L11.261,38.538L11.341,38.538L11.425,38.538L11.501,38.538L11.579,38.538L11.738,38.538L11.818,38.538L11.9,38.538L11.977,38.538L12.056,38.538L12.215,38.538L12.295,38.538L12.376,38.538L12.454,38.538L12.533,38.538L12.692,38.538L12.772,38.538L12.854,38.538L12.931,38.538L13.01,38.538L13.169,38.538L13.249,38.538L13.332,38.538L13.408,38.538L13.488,38.538L13.646,38.538L13.726,38.538L13.809,38.538L13.886,38.538L13.965,38.538L14.124,38.538L14.203,38.538L14.286,38.538L14.362,38.538L14.442,38.538L14.601,27L14.681,27L14.763,27L14.84,27L14.919,27L15.078,27L15.158,27L15.24,27L15.317,27L15.396,27L15.555,27L15.635,27L15.717,27L15.794,27L15.874,27L16.033,27L16.112,27L16.194,27L16.271,27L16.351,27L16.51,27L16.59,27L16.672,27L16.749,27L16.828,27L16.987,27L17.067,27L17.149,27L17.226,27L17.305,27L17.464,27L17.544,27L17.626,27L17.703,27L17.782,27L17.941,27L18.021,27L18.104,27L18.18,27L18.26,27L18.419,27L18.498,27L18.581,27L18.657,27L18.737,27L18.896,27L18.975,27L19.058,27L19.134,27L19.214,27L19.373,27L19.453,27L19.535,27L19.612,27L19.691,27L19.85,27L19.93,27L20.013,27L20.089,27L20.168,27L20.327,27L20.407,27L20.49,27L20.567,27L20.646,27L20.805,27L20.884,27L20.967,27L21.044,27L21.123,27L21.362,27L21.444,27L21.521,27L21.6,27L21.759,27L21.839,27L21.921,27L21.998,27L22.077,27L22.237,27L22.316,27L22.398,27L22.475,27L22.555,27L22.714,27L22.794,27L22.875,27L22.952,27L23.032,27L23.191,27L23.271,27L23.354,27L23.43,27L23.509,27L23.668,27L23.748,27L23.83,27L23.907,27L23.986,27L24.145,27L24.225,27L24.308,27L24.384,27L24.464,27L24.623,27L24.702,27L24.785,27L24.861,27L24.941,27L25.1,27L25.179,27L25.262,27L25.338,27L25.418,27L25.577,27L25.656,27L25.738,27L25.815,27L25.895,27L26.054,27L26.134,27L26.216,27L26.293,27L26.372,27L26.531,27L26.611,27L26.694,27L26.77,27L26.849,27L27.009,27L27.088,27L27.171,27L27.247,27L27.327,27L27.486,27L27.565,27L27.648,27L27.725,27L27.804,27L27.963,27L28.042,27L28.125,27L28.202,27L28.281,27L28.44,27L28.52,27L28.602,27L28.679,27L28.758,27L28.917,27L28.997,27L29.08,27L29.156,27L29.236,27L29.395,27L29.474,27L29.556,27L29.633,27L29.713,27L29.879,27L29.988,27L30.035,27L30.111,27L30.19,27L30.349,27L30.429,27L30.512,27L30.588,27L30.667,27L30.826,27L30.906,27L30.989,27L31.066,27L31.144,27L31.303,27L31.383,27L31.466,38.538L31.542,38.538L31.622,38.538L31.781,38.538L31.861,38.538L31.943,38.538L32.019,38.538L32.099,38.538L32.258,38.538L32.338,38.538L32.419,38.538L32.497,38.538L32.576,38.538L32.735,38.538L32.815,38.538L32.897,38.538L32.974,38.538L33.053,38.538L33.213,38.538L33.292,38.538L33.375,38.538L33.452,38.538L33.531,38.538L33.69,38.538L33.769,38.538L33.852,38.538L33.929,38.538L34.008,38.538L34.167,38.538L34.247,38.538L34.329,38.538L34.405,38.538L34.485,38.538L34.644,38.538L34.724,38.538L34.807,38.538L34.883,38.538L34.962,38.538L35.121,38.538L35.201,38.538L35.283,38.538L35.36,38.538L35.439,38.538L35.598,38.538L35.678,38.538L35.76,38.538L35.837,38.538L35.917,38.538L36.076,38.538L36.156,38.538L36.237,38.538L36.314,38.538L36.394,38.538L36.553,38.538L36.632,38.538L36.716,38.538L36.792,38.538L36.871,38.538L37.03,38.538L37.11,38.538L37.192,38.538L37.27,38.538L37.348,38.538L37.507,38.538L37.587,38.538L37.67,38.538L37.747,38.538L37.826,38.538L37.985,38.538L38.064,38.538L38.147,38.538L38.224,38.538L38.303,38.538L38.462,38.538L38.541,38.538L38.624,38.538L38.701,38.538L38.78,38.538L38.939,38.538L39.018,38.538L39.101,38.538L39.177,38.538L39.257,38.538L39.416,38.538L39.496,38.538L39.579,38.538L39.655,38.538L39.734,38.538L39.893,38.538L39.973,38.538L40.056,38.538L40.132,38.538L40.211,38.538L40.371,38.538L40.451,38.538L40.533,38.538L40.61,38.538L40.689,38.538L40.848,38.538L40.928,38.538L41.011,38.538L41.087,38.538L41.166,38.538L41.325,38.538L41.405,38.538L41.488,38.538L41.564,38.538L41.643,38.538L41.802,38.538L41.882,38.538L41.965,38.538L42.041,38.538L42.12,38.538L42.279,38.538L42.359,38.538L42.441,38.538L42.518,38.538L42.598,38.538L42.757,38.538L42.837,38.538L42.919,38.538L42.996,38.538L43.075,38.538L43.234,38.538L43.314,38.538L43.397,38.538L43.474,38.538L43.552,38.538L43.711,38.538L43.791,38.538L43.874,38.538L43.951,38.538L44.029,38.538L44.188,38.538L44.268,38.538L44.351,38.538L44.428,38.538L44.506,38.538L44.666,38.538L44.745,38.538L44.828,38.538L44.905,38.538L44.984,38.538L45.143,38.538L45.305,38.538L45.382,38.538L45.461,38.538L45.62,38.538L45.7,38.538L45.782,38.538L45.859,38.538L45.938,38.538L46.097,38.538L46.177,38.538L46.259,38.538L46.336,38.538L46.415,38.538L46.575,38.538L46.654,38.538L46.737,38.538L46.814,38.538L46.892,38.538L47.052,38.538L47.131,38.538L47.214,38.538L47.291,38.538L47.37,38.538L47.529,38.538L47.609,38.538L47.692,38.538L47.769,38.538L47.847,38.538L48.006,38.538L48.086,38.538L48.169,38.538L48.324,38.538L48.483,38.538L48.563,38.538L48.646,38.538L48.722,38.538L48.801,38.538L48.96,38.538L49.04,38.538L49.121,38.538L49.199,38.538L49.278,38.538L49.445,38.538L49.567,38.538L49.642,38.538L49.796,38.538L49.916,38.538L49.994,38.538L50.076,38.538L50.153,38.538L50.233,38.538L50.392,38.538L50.472,38.538L50.555,38.538L50.631,38.538L50.71,38.538L50.869,38.538L50.949,38.538L51.032,38.538L51.109,38.538L51.188,38.538L51.426,38.538L51.509,38.538L51.586,38.538L51.665,38.538L51.824,38.538L51.903,38.538L51.986,38.538L52.063,38.538L52.142,38.538L52.301,38.538L52.381,38.538L52.463,38.538L52.54,38.538L52.619,38.538L52.778,38.538L52.858,38.538L52.94,38.538L53.017,38.538L53.096,38.538L53.255,38.538L53.335,38.538L53.419,38.538L53.494,38.538L53.573,38.538L53.733,38.538L53.812,38.538L53.896,38.538L53.972,38.538L54.051,38.538L54.21,38.538L54.29,38.538L54.375,38.538L54.449,38.538L54.528,38.538L54.687,38.538L54.767,38.538L54.848,38.538L54.926,38.538L55.005,38.538L55.164,38.538L55.244,38.538L55.327,38.538L55.403,38.538L55.483,38.538L55.642,38.538L55.721,38.538L55.803,38.538L55.88,38.538L55.959,38.538L56.119,38.538L56.198,38.538L56.281,38.538L56.357,38.538L56.437,38.538L56.596,38.538L56.677,38.538L56.759,38.538L56.835,38.538L56.914,38.538L57.073,38.538L57.153,38.538L57.236,38.538L57.312,38.538L57.391,38.538L57.55,38.538L57.631,38.538L57.714,38.538L57.789,38.538L57.868,38.538L58.028,38.538L58.107,38.538L58.191,38.538L58.267,38.538L58.346,38.538L58.505,38.538L58.584,38.538L58.668,38.538L58.744,38.538L58.823,38.538L58.982,38.538L59.061,38.538L59.144,38.538L59.221,38.538L59.3,38.538L59.459,38.538L59.539,38.538L59.622,38.538L59.698,38.538L59.777,38.538L59.936,38.538L60.016,38.538L60.1,38.538L60.176,38.538L60.254,38.538L60.414,38.538L60.493,38.538L60.576,30.846L60.653,30.846L60.732,30.846L60.891,30.846L60.971,30.846L61.055,30.846L61.131,30.846L61.209,30.846L61.369,30.846L61.448,30.846L61.531,30.846L61.608,30.846L61.686,30.846L61.845,30.846L61.925,30.846L62.009,30.846L62.084,30.846L62.163,30.846L62.322,30.846L62.402,30.846L62.485,30.846L62.561,30.846L62.641,30.846L62.8,30.846L62.879,30.846L62.963,30.846L63.038,30.846L63.118,30.846L63.277,30.846L63.357,30.846L63.441,30.846L63.516,30.846L63.595,30.846L63.754,30.846L63.834,30.846L63.918,30.846L63.994,30.846L64.072,30.846L64.232,30.846L64.311,30.846L64.395,30.846L64.471,30.846L64.55,30.846L64.708,30.846L64.789,30.846L64.872,30.846L64.948,30.846L65.027,30.846L65.186,30.846L65.265,30.846L65.349,30.846L65.425,30.846L65.504,30.846L65.663,30.846L65.743,30.846L65.826,30.846L65.902,30.846L65.981,30.846L66.141,30.846L66.22,30.846L66.303,30.846L66.379,30.846L66.458,30.846L66.618,30.846L66.697,30.846L66.781,30.846L66.857,30.846L66.936,30.846L67.095,30.846L67.175,30.846L67.258,30.846L67.334,30.846L67.413,30.846L67.572,30.846L67.652,30.846L67.736,38.538L67.812,38.538L67.89,38.538L68.049,38.538L68.129,38.538L68.212,38.538L68.289,38.538L68.367,38.538L68.527,38.538L68.606,38.538L68.69,38.538L68.765,38.538L68.845,38.538L69.004,38.538L69.083,38.538L69.166,38.538L69.242,38.538L69.322,38.538L69.481,38.538L69.56,38.538L69.643,38.538L69.72,38.538L69.799,38.538L69.958,38.538L70.038,38.538L70.122,38.538L70.198,38.538L70.276,38.538L70.437,38.538L70.515,38.538L70.599,38.538L70.675,38.538L70.753,38.538L70.913,38.538L70.993,38.538L71.076,38.538L71.152,38.538L71.23,38.538L71.391,38.538L71.47,38.538L71.553,38.538L71.629,38.538L71.708,38.538L71.868,30.846L71.947,30.846L72.031,30.846L72.106,30.846L72.185,30.846L72.344,30.846L72.424,30.846L72.507,30.846L72.583,30.846L72.662,30.846L72.821,30.846L72.901,30.846L72.984,30.846L73.06,30.846L73.139,30.846L73.299,30.846L73.379,30.846L73.463,30.846L73.538,30.846L73.617,30.846L73.776,30.846L73.856,30.846L73.94,30.846L74.016,30.846L74.094,30.846L74.254,30.846L74.333,30.846L74.417,30.846L74.493,30.846L74.571,30.846L74.73,30.846L74.81,30.846L74.894,30.846L74.969,30.846L75.048,30.846L75.208,30.846L75.288,30.846L75.372,30.846L75.448,30.846L75.526,30.846L75.685,30.846L75.764,30.846L75.848,30.846L75.924,30.846L76.003,30.846L76.162,30.846L76.241,30.846L76.325,30.846L76.401,30.846L76.48,30.846L76.64,30.846L76.719,30.846L76.803,30.846L76.879,30.846L76.957,30.846L77.117,30.846L77.197,30.846L77.28,30.846L77.356,30.846L77.435,30.846L77.594,30.846L77.674,34.692L77.758,34.692L77.833,34.692L77.911,34.692L78.071,34.692L78.151,34.692L78.235,34.692L78.311,34.692L78.389,34.692L78.548,34.692L78.628,34.692L78.712,40.077L78.787,40.077L78.866,40.077L79.026,40.077L79.105,40.077L79.188,40.077L79.264,40.077L79.343,40.077L79.502,40.077L79.582,40.077L79.666,40.077L79.742,40.077L79.82,40.077L79.98,40.077L80.06,40.077L80.144,40.077L80.219,40.077L80.298,40.077L80.457,40.077L80.537,40.077L80.621,40.077L80.696,40.077L80.775,40.077L80.934,40.077L81.014,40.077L81.098,40.077L81.174,40.077L81.252,40.077L81.411,40.077L81.491,40.077L81.575,40.077L81.652,40.077L81.729,40.077L81.889,40.077L81.968,40.077L82.052,40.077L82.128,40.077L82.206,40.077L82.365,40.077L82.445,40.077L82.53,40.077L82.605,40.077L82.684,40.077L82.843,40.077L82.922,40.077L83.006,40.077L83.082,40.077L83.161,40.077L83.32,40.077L83.4,40.077L83.484,40.077L83.56,40.077L83.638,40.077L83.797,40.077L83.877,40.077L83.961,40.077L84.116,40.077L84.275,40.077L84.355,40.077L84.439,40.077L84.514,40.077L84.593,40.077L84.753,40.077L84.832,40.077L84.916,40.077L84.991,40.077L85.07,40.077L85.229,40.077L85.309,40.077L85.393,40.077L85.468,40.077L85.547,40.077L85.707,40.077L85.786,40.077L85.869,40.077L85.945,40.077L86.024,40.077L86.183,40.077L86.263,40.077L86.347,40.077L86.423,40.077L86.501,40.077L86.661,40.077L86.741,40.077L86.825,40.077L86.901,40.077L86.978,40.077L87.138,40.077L87.218,40.077L87.302,40.077L87.378,40.077L87.456,40.077L87.615,40.077L87.695,40.077L87.779,40.077L87.855,40.077L87.933,40.077L88.093,40.077L88.172,40.077L88.256,40.077L88.332,40.077L88.41,40.077L88.57,40.077L88.649,40.077L88.733,40.077L88.809,40.077L88.887,40.077L89.047,40.077L89.126,40.077L89.21,40.077L89.286,40.077L89.365,40.077L89.524,40.077L89.603,40.077L89.687,40.077L89.763,40.077L89.842,40.077L90.002,40.077L90.081,40.077L90.165,40.077L90.241,40.077L90.319,40.077L90.478,40.077L90.559,40.077L90.643,40.077L90.718,40.077L90.796,40.077L90.956,40.077L91.036,40.077L91.12,40.077L91.195,40.077L91.274,40.077L91.433,40.077L91.513,40.077L91.597,40.077L91.672,40.077L91.751,40.077L91.91,40.077L91.99,40.077L92.074,40.077L92.149,40.077L92.228,40.077L92.387,40.077L92.467,40.077L92.55,40.077L92.626,40.077L92.705,40.077L92.865,40.077L92.945,40.077L93.033,40.077L93.108,40.077L93.182,40.077L93.342,40.077L93.422,40.077L93.506,40.077L93.582,40.077L93.66,40.077L93.819,40.077L93.899,40.077L93.982,40.077L94.059,40.077L94.137,40.077L94.296,40.077L94.376,40.077L94.46,40.077L94.536,40.077L94.614,40.077L94.774,40.077L94.853,40.077L94.938,40.077L95.013,40.077L95.091,40.077L95.251,40.077L95.33,40.077L95.415,40.077L95.49,40.077L95.569,40.077L95.728,40.077L95.807,40.077L95.891,40.077L95.967,40.077L96.046,40.077L96.205,40.077L96.284,40.077L96.368,40.077L96.445,40.077L96.523,40.077L96.683,40.077L96.763,40.077L96.847,40.077L96.922,40.077L97,40.077L97.16,40.077L97.24,40.077L97.324,40.077L97.399,40.077L97.477,40.077L97.637,40.077L97.717,40.077L97.801,40.077L97.876,40.077L97.955,40.077L98.115,40.077L98.194,40.077L98.278,40.077L98.354,40.077L98.432,40.077L98.592,40.077L98.671,40.077L98.755,40.077L98.831,40.077L98.909,40.077L99.069,40.077L99.148,40.077L99.232,40.077L99.307,40.077L99.386,40.077L99.545,40.077L99.625,40.077L99.709,40.077L99.785,40.077L99.863,40.077L100.023,40.077L100.103,40.077L100.187,40.077L100.263,40.077L100.341,40.077L100.5,40.077L100.58,40.077L100.664,40.077L100.74,40.077L100.818,40.077L100.977,40.077L101.056,40.077L101.142,40.077L101.217,40.077L101.295,40.077L101.455,40.077L101.535,40.077L101.619,40.077L101.694,40.077L101.773,40.077L101.932,40.077L102.012,40.077L102.096,40.077L102.172,40.077L102.249,40.077L102.409,40.077L102.489,40.077L102.572,40.077L102.648,40.077L102.727,40.077L102.887,40.077L102.966,40.077L103.049,40.077L103.125,40.077L103.204,40.077L103.364,40.077L103.444,40.077L103.528,40.077L103.603,40.077L103.681,40.077L103.841,40.077L103.921,40.077L104.005,40.077L104.08,40.077L104.158,40.077L104.318,40.077L104.398,40.077L104.482,40.077L104.558,40.077L104.636,40.077L104.796,40.077L104.875,40.077L104.959,40.077L105.035,40.077L105.113,40.077L105.273,40.077L105.352,40.077L105.437,40.077L105.512,40.077L105.59,40.077L105.751,40.077L105.829,40.077L105.913,40.077L105.99,40.077L106.067,40.077L106.227,40.077L106.306,40.077L106.39,40.077L106.466,40.077L106.545,40.077L106.704,40.077L106.784,40.077L106.869,40.077L106.944,40.077L107.022,40.077L107.181,40.077L107.261,40.077L107.346,40.077L107.421,40.077L107.499,40.077L107.659,40.077L107.739,40.077L107.823,40.077L107.899,40.077L107.976,40.077L108.136,40.077L108.216,40.077L108.3,40.077L108.375,40.077L108.453,40.077L108.613,40.077L108.693,40.077L108.777,40.077L108.853,40.077L108.93,40.077L109.09,40.077L109.169,40.077L109.253,40.077L109.329,40.077L109.409,40.077L109.567,40.077L109.647,40.077L109.731,40.077L109.806,40.077L109.885,40.077L110.045,40.077L110.125,40.077L110.209,40.077L110.284,40.077L110.362,40.077L110.523,40.077L110.602,40.077L110.686,40.077L110.761,40.077L110.84,40.077L110.999,40.077L111.079,40.077L111.162,40.077L111.239,40.077L111.317,40.077L111.476,40.077L111.556,40.077L111.641,40.077L111.717,40.077L111.794,40.077L111.954,40.077L112.033,40.077L112.117,40.077L112.193,40.077L112.271,40.077L112.431,40.077L112.51,40.077L112.594,40.077L112.67,40.077L112.748,40.077L112.908,40.077L112.988,40.077L113.071,40.077L113.147,40.077L113.226,40.077L113.386,40.077L113.465,40.077L113.55,40.077L113.625,40.077L113.703,40.077L113.863,40.077L113.942,40.077L114.027,40.077L114.102,40.077L114.18,40.077L114.34,40.077L114.42,40.077L114.504,40.077L114.58,40.077L114.657,40.077L114.817,40.077L114.897,40.077L114.981,40.077L115.056,40.077L115.134,40.077L115.295,40.077L115.374,40.077L115.459,40.077L115.534,40.077L115.612,40.077L115.772,40.077L115.851,40.077L115.935,40.077L116.011,40.077L116.089,40.077L116.249,40.077L116.328,40.077L116.413,40.077L116.488,40.077L116.566,40.077L116.726,40.077L116.806,40.077L116.891,40.077L116.966,40.077L117.044,40.077L117.203,40.077L117.283,40.077L117.368,40.077L117.443,40.077L117.521,40.077L117.681,40.077L117.76,40.077L117.845,40.077L117.92,40.077L117.998,40.077L118.158,40.077L118.238,40.077L118.322,40.077L118.397,40.077L118.475,40.077L118.635,40.077L118.715,40.077L118.799,40.077L118.875,40.077L118.952,40.077L119.112,40.077L119.191,40.077L119.275,40.077L119.351,40.077L119.429,40.077L119.589,40.077L119.669,40.077L119.753,40.077L119.829,40.077L119.907,40.077L120.067,40.077L120.147,40.077L120.231,40.077L120.306,40.077L120.384,40.077L120.544,40.077L120.624,40.077L120.709,40.077L120.783,40.077L120.861,40.077L121.022,40.077L121.101,40.077L121.186,40.077L121.261,40.077L121.338,40.077L121.499,40.077L121.578,40.077L121.663,40.077L121.738,40.077L121.816,40.077L121.976,40.077L122.055,40.077L122.14,40.077L122.215,40.077L122.293,40.077L122.453,40.077L122.532,40.077L122.616,40.077L122.692,40.077L122.77,40.077L122.93,40.077L123.01,40.077L123.094,40.077L123.169,40.077L123.247,40.077L123.408,40.077L123.487,40.077L123.572,40.077L123.647,40.077L123.725,40.077L123.883,40.077L123.965,40.077L124.049,40.077L124.124,40.077L124.202,40.077L124.362,40.077L124.442,40.077L124.526,40.077L124.601,40.077L124.679,40.077L124.839,40.077L124.919,40.077L125.004,40.077L125.078,40.077L125.156,40.077L125.316,40.077L125.396,40.077L125.481,40.077L125.555,40.077L125.634,40.077L125.793,40.077L125.873,40.077L125.957,40.077L126.032,40.077L126.11,40.077L126.271,40.077L126.35,40.077L126.434,40.077L126.509,40.077L126.588,40.077L126.748,40.077L126.828,40.077L126.913,40.077L126.987,40.077L127.065,40.077L127.225,40.077L127.306,40.077L127.39,40.077L127.465,40.077L127.543,40.077L127.703,40.077L127.783,40.077L127.868,40.077L127.943,40.077L128.02,40.077L128.18,40.077L128.26,40.077L128.345,40.077L128.419,40.077L128.497,40.077L128.657,40.077L128.737,40.077L128.822,40.077L128.896,40.077L129.134,40.077L129.213,40.077L129.298,40.077L129.373,40.077L129.451,40.077L129.611,40.077L129.691,40.077L129.775,40.077L129.85,40.077L129.928,40.077L130.089,40.077L130.169,40.077L130.254,40.077L130.329,40.077L130.406,40.077L130.566,40.077L130.646,40.077L130.731,40.077L130.806,40.077L130.883,40.077L131.043,40.077L131.123,40.077L131.208,40.077L131.283,40.077L131.361,40.077L131.52,40.077L131.6,50.077L131.685,50.077L131.76,50.077L131.838,50.077L131.997,50.077L132.077,50.077L132.162,50.077L132.237,50.077L132.315,50.077L132.474,50.077L132.554,50.077L132.638,50.077L132.713,50.077L132.791,50.077L132.952,50.077L133.031,50.077L133.116,50.077L133.19,50.077L133.269,50.077L133.429,50.077L133.509,50.077L133.594,50.077L133.669,50.077L133.747,50.077L133.906,50.077L133.987,30.846L134.071,30.846L134.146,30.846L134.223,30.846L134.383,30.846L134.464,30.846L134.548,50.077L134.623,50.077L134.701,50.077L134.861,50.077L134.941,50.077L135.025,50.077L135.1,50.077L135.178,50.077L135.338,50.077L135.418,50.077L135.502,50.077L135.577,50.077L135.656,50.077L135.815,50.077L135.894,50.077L135.979,50.077L136.054,50.077L136.132,50.077L136.292,50.077L136.372,50.077L136.456,50.077L136.531,50.077L136.609,50.077L136.77,50.077L136.85,50.077L136.935,50.077L137.009,50.077L137.087,50.077L137.247,50.077L137.327,50.077L137.412,50.077L137.486,50.077L137.564,50.077L137.724,50.077L137.804,50.077L137.889,50.077L137.963,50.077L138.041,50.077L138.202,50.077L138.281,50.077L138.366,50.077L138.441,50.077L138.519,50.077L138.679,50.077L138.759,50.077L138.843,50.077L138.918,50.077L138.996,50.077L139.155,50.077L139.235,50.077L139.319,50.077L139.394,50.077L139.473,50.077L139.633,50.077L139.713,50.077L139.797,50.077L139.871,50.077L139.95,50.077L140.11,50.077L140.19,50.077L140.275,50.077L140.35,50.077L140.427,50.077L140.588,50.077L140.667,50.077L140.752,50.077L140.827,50.077L140.904,50.077L141.064,50.077L141.145,50.077L141.229,50.077L141.305,50.077L141.382,50.077L141.542,50.077L141.622,50.077L141.707,50.077L141.781,50.077L141.859,50.077L142.019,50.077L142.099,50.077L142.184,50.077L142.258,50.077L142.336,50.077L142.496,50.077L142.576,50.077L142.66,50.077L142.735,50.077L142.813,50.077L142.973,50.077L143.053,50.077L143.137,50.077L143.212,50.077L143.291,50.077L143.451,50.077L143.531,50.077L143.616,50.077L143.691,50.077L143.768,50.077L143.928,50.077L144.008,50.077L144.093,50.077L144.168,50.077L144.245,50.077L144.405,50.077L144.486,50.077L144.57,50.077L144.645,50.077L144.722,50.077L145.047,50.077L145.122,50.077L145.2,50.077L145.359,50.077L145.439,50.077L145.524,50.077L145.598,50.077L145.677,50.077L145.837,50.077L145.916,50.077L146,50.077L146.076,50.077L146.153,50.077L146.314,50.077L146.393,50.077L146.477,50.077L146.552,50.077L146.631,50.077L146.791,50.077L146.871,50.077L146.956,50.077L147.03,50.077L147.108,50.077L147.268,50.077L147.348,50.077L147.432,50.077L147.507,50.077L147.585,50.077L147.746,50.077L147.825,50.077L147.91,50.077L147.985,50.077L148.063,50.077L148.223,50.077L148.303,50.077L148.387,50.077L148.462,50.077L148.54,50.077L148.7,50.077L148.779,50.077L148.864,50.077L148.939,50.077L149.017,50.077L149.177,50.077L149.256,50.077L149.34,50.077L149.416,50.077L149.494,50.077L149.654,50.077L149.733,50.077L149.817,50.077L149.893,50.077L149.971,50.077L150.131,50.077L150.212,50.077L150.296,50.077L150.371,50.077L150.449,50.077L150.608,50.077L150.689,50.077L150.774,50.077L150.848,50.077L150.926,50.077L151.086,50.077L151.166,50.077L151.251,58.538L151.325,58.538L151.403,58.538L151.563,58.538L151.643,58.538L151.728,58.538L151.803,58.538L151.881,58.538L152.041,58.538L152.12,58.538L152.206,58.538L152.28,58.538L152.358,58.538L152.518,58.538L152.597,58.538L152.682,58.538L152.757,58.538L152.835,58.538L152.995,58.538L153.074,58.538L153.159,58.538L153.234,58.538L153.312,58.538L153.473,58.538L153.553,58.538L153.638,58.538L153.713,58.538L153.79,58.538L153.95,58.538L154.03,58.538L154.115,58.538L154.189,58.538L154.267,58.538L154.427,58.538L154.507,58.538L154.592,58.538L154.667,58.538L154.744,58.538L154.904,46.231L154.984,46.231L155.069,58.538L155.144,58.538L155.221,58.538L155.381,58.538L155.461,58.538L155.546,46.231L155.621,46.231L155.699,46.231L155.858,46.231L155.938,46.231L156.023,46.231L156.098,46.231L156.175,46.231L156.335,46.231L156.415,46.231L156.5,46.231L156.575,46.231L156.652,46.231L156.813,46.231L156.894,46.231L156.978,46.231L157.053,46.231L157.13,46.231L157.29,46.231L157.371,46.231L157.456,46.231L157.53,46.231L157.608,46.231L157.768,46.231L157.848,46.231L157.933,58.538L158.007,58.538L158.085,58.538L158.245,58.538L158.325,58.538L158.41,58.538L158.484,58.538L158.562,58.538L158.722,58.538L158.802,58.538L158.887,58.538L158.961,58.538L159.039,58.538L159.199,58.538L159.278,58.538L159.363,58.538L159.438,58.538L159.516,58.538L159.677,58.538L159.756,58.538L159.841,58.538L159.915,58.538L159.993,58.538L160.154,58.538L160.234,58.538L160.319,58.538L160.393,58.538L160.471,58.538L160.631,30.846L160.711,30.846L160.796,58.538L160.871,58.538L160.948,58.538L161.108,58.538L161.189,58.538L161.274,58.538L161.348,58.538L161.425,58.538L161.585,30.846L161.666,30.846L161.751,46.231L161.825,46.231L161.903,46.231L162.063,30.846L162.143,30.846L162.228,46.231L162.302,46.231L162.38,46.231L162.54,46.231L162.619,46.231L162.704,46.231L162.778,46.231L162.856,46.231L163.017,46.231L163.096,46.231L163.181,46.231L163.255,46.231L163.334,46.231L163.494,46.231L163.575,46.231L163.66,46.231L163.734,46.231L163.812,46.231L163.972,46.231L164.052,46.231L164.137,46.231L164.211,46.231L164.289,46.231L164.449,46.231L164.529,46.231L164.614,46.231L164.689,46.231L164.766,46.231L164.926,46.231L165.006,46.231L165.091,46.231L165.166,46.231L165.243,46.231L165.403,46.231L165.483,46.231L165.568,46.231L165.642,46.231L165.72,46.231L165.88,46.231L165.96,46.231L166.044,46.231L166.119,46.231L166.197,46.231L166.357,46.231L166.437,46.231L166.522,46.231L166.596,46.231L166.674,46.231L166.835,46.231L166.915,46.231L167,46.231L167.075,46.231L167.152,46.231L167.312,46.231L167.392,46.231L167.477,46.231L167.552,46.231L167.629,46.231L167.789,46.231L167.869,46.231L167.954,46.231L168.028,46.231L168.106,46.231L168.266,46.231L168.346,46.231L168.431,46.231L168.505,46.231L168.583,46.231L168.743,46.231L168.823,46.231L168.907,46.231L168.982,46.231L169.06,46.231L169.22,46.231L169.299,46.231L169.383,46.231L169.458,46.231L169.537,46.231L169.697,46.231L169.776,46.231L169.86,46.231L169.935,46.231L170.014,46.231L170.175,46.231L170.254,46.231L170.339,46.231L170.413,46.231L170.491,46.231L170.651,46.231L170.732,46.231L170.816,46.231L170.89,46.231L170.969,46.231L171.129,46.231L171.209,46.231L171.293,46.231L171.368,46.231L171.446,46.231L171.606,46.231L171.686,46.231L171.771,46.231L171.845,46.231L171.923,46.231L172.083,46.231L172.163,46.231L172.247,46.231L172.322,46.231L172.4,46.231L172.56,46.231L172.64,46.231L172.724,46.231L172.799,46.231L172.877,46.231L173.037,46.231L173.117,46.231L173.201,46.231L173.276,46.231L173.354,46.231L173.515,46.231L173.595,46.231L173.679,46.231L173.754,46.231L173.832,46.231L173.992,46.231L174.072,46.231L174.156,46.231L174.231,46.231L174.309,46.231L174.469,46.231L174.549,46.231L174.633,46.231L174.708,46.231L174.786,46.231L174.946,46.231L175.026,46.231L175.111,46.231L175.186,46.231L175.264,46.231L175.424,46.231L175.503,46.231L175.588,46.231L175.663,46.231L175.741,46.231L175.901,46.231L175.98,46.231L176.065,46.231L176.139,46.231L176.218,46.231L176.378,46.231L176.457,46.231L176.542,46.231L176.617,46.231L176.695,46.231L176.855,46.231L176.935,46.231L177.021,46.231L177.095,46.231L177.172,46.231L177.332,46.231L177.413,46.231L177.498,46.231L177.575,46.231L177.65,46.231L177.81,46.231L177.89,46.231L177.975,46.231L178.049,46.231L178.127,46.231L178.287,46.231L178.367,46.231L178.452,46.231L178.526,46.231L178.604,46.231L178.764,46.231L178.844,46.231L178.929,46.231L179.004,46.231L179.082,46.231L179.241,46.231L179.321,46.231L179.405,46.231L179.48,46.231L179.558,46.231L179.718,46.231L179.798,46.231L179.882,46.231L179.957,46.231L180.035,46.231L180.196,46.231L180.276,46.231L180.361,46.231L180.436,46.231L180.513,46.231L180.673,46.231L180.753,46.231L180.837,46.231L180.912,46.231L180.99,46.231L181.15,46.231L181.23,46.231L181.315,46.231L181.389,46.231L181.467,46.231L181.627,46.231L181.707,46.231L181.792,46.231L181.945,46.231L182.105,46.231L182.184,46.231L182.269,46.231L182.343,46.231L182.661,34.692L182.745,46.231L182.82,46.231L182.899,46.231L183.058,46.231L183.138,46.231L183.222,46.231L183.297,46.231L183.376,46.231L183.536,46.231L183.616,46.231L183.701,46.231L183.775,46.231L183.853,46.231L184.013,46.231L184.093,46.231L184.178,46.231L184.253,46.231L184.331,46.231L184.491,46.231L184.571,46.231L184.655,46.231L184.73,46.231L184.807,46.231L184.968,46.231L185.048,46.231L185.132,46.231L185.207,46.231L185.285,46.231L185.445,46.231L185.525,46.231L185.609,46.231L185.684,46.231L185.762,46.231L185.922,46.231L186.001,46.231L186.085,46.231L186.161,46.231L186.239,46.231L186.399,46.231L186.478,46.231L186.562,46.231L186.638,46.231L186.716,46.231L186.877,46.231L186.957,46.231L187.041,23.154L187.116,23.154L187.194,23.154L187.354,23.154L187.434,23.154L187.518,30.846L187.593,30.846L187.671,30.846L187.831,30.846L187.911,30.846L187.995,30.846L188.07,30.846L188.148,30.846L188.308,30.846L188.388,30.846L188.473,30.846L188.549,30.846L188.626,30.846L188.785,30.846L188.865,30.846L188.95,30.846L189.025,30.846L189.103,30.846L189.263,30.846L189.342,30.846L189.426,30.846L189.501,30.846L189.58,30.846L189.739,30.846L189.819,30.846L189.903,30.846L189.978,30.846L190.057,30.846L190.217,30.846L190.297,30.846L190.382,30.846L190.456,30.846L190.534,30.846L190.694,30.846L190.774,30.846L190.859,30.846L190.934,30.846L191.012,30.846L191.172,30.846L191.252,30.846L191.336,30.846L191.412,30.846L191.489,30.846L191.649,30.846L191.729,30.846L191.814,30.846L191.888,30.846L191.966,30.846L192.126,30.846L192.206,30.846L192.29,30.846L192.366,30.846L192.443,30.846L192.603,30.846L192.683,30.846L192.767,30.846L192.841,30.846L192.92,30.846L193.08,30.846L193.159,30.846L193.244,30.846L193.319,30.846L193.398,30.846L193.558,30.846L193.638,30.846L193.723,30.846L193.797,30.846L193.876,30.846L194.035,30.846L194.115,30.846L194.2,30.846L194.275,30.846L194.352,30.846L194.512,30.846L194.592,30.846L194.677,30.846L194.752,30.846L194.83,30.846L195.069,30.846L195.154,30.846L195.229,30.846L195.309,30.846L195.467,30.846L195.546,30.846L195.631,30.846L195.706,30.846L195.784,30.846L195.944,30.846L196.023,30.846L196.107,30.846L196.182,30.846L196.261,30.846L196.421,30.846L196.5,30.846L196.585,30.846L196.66,30.846L196.738,30.846L196.898,30.846L196.979,30.846L197.063,30.846L197.137,30.846L197.215,30.846L197.375,30.846L197.456,30.846L197.54,30.846L197.615,30.846L197.693,30.846L197.853,30.846L197.933,30.846L198.017,30.846L198.092,30.846L198.17,30.846L198.33,30.846L198.41,30.846L198.495,30.846L198.57,30.846L198.648,30.846L198.808,30.846L198.887,30.846L198.972,30.846L199.046,30.846L199.125,30.846L199.285,30.846L199.364,30.846L199.448,30.846L199.523,30.846L199.602,30.846L199.762,30.846L199.841,30.846L199.925,30.846L200,30.846" stroke="#f58518" stroke-width="2"/></g></g><path class="foreground" aria-hidden="true" d="" display="none"/></g></g><g class="mark-group role-legend" role="graphics-symbol" aria-roledescription="legend" aria-label="Symbol legend titled 'identifier' for stroke color with 2 values: altex-LG-F2WR508SBW, altex-LG-F2WR508SBM"><g transform="translate(220,0)"><path class="background" aria-hidden="true" d="M0,0h168v40h-168Z" pointer-events="none"/><g><g class="mark-group role-legend-entry"><g transform="translate(0,16)"><path class="background" aria-hidden="true" d="M0,0h0v0h0Z" pointer-events="none"/><g><g class="mark-group role-scope" role="graphics-object" aria-roledescription="group mark container"><g transform="translate(0,0)"><path class="background" aria-hidden="true" d="M0,0h168v11h-168Z" pointer-events="none" opacity="1"/><g><g class="mark-symbol role-legend-symbol" pointer-events="none"><path transform="translate(6,6)" d="M-5,0L5,0" stroke="#4c78a8" stroke-width="1.5" opacity="1"/></g><g class="mark-text role-legend-label" pointer-events="none"><text text-anchor="start" transform="translate(16,9)" font-family="Liberation Mono" font-size="10px" fill="#000" opacity="1">altex-LG-F2WR508SBW</text></g></g><path class="foreground" aria-hidden="true" d="" pointer-events="none" display="none"/></g><g transform="translate(0,13)"><path class="background" aria-hidden="true" d="M0,0h168v11h-168Z" pointer-events="none" opacity="1"/><g><g class="mark-symbol role-legend-symbol" pointer-events="none"><path transform="translate(6,6)" d="M-5,0L5,0" stroke="#f58518" stroke-width="1.5" opacity="1"/></g><g class="mark-text role-legend-label" pointer-events="none"><text text-anchor="start" transform="translate(16,9)" font-family="Liberation Mono" font-size="10px" fill="#000" opacity="1">altex-LG-F2WR508SBM</text></g></g><path class="foreground" aria-hidden="true" d="" pointer-events="none" display="none"/></g></g></g><path class="foreground" aria-hidden="true" d="" pointer-events="none" display="none"/></g></g><g class="mark-text role-legend-title" pointer-events="none"><text text-anchor="start" transform="translate(0,9)" font-family="Liberation Mono" font-size="11px" font-weight="bold" fill="#000" opacity="1">identifier</text></g></g><path class="foreground" aria-hidden="true" d="" pointer-events="none" display="none"/></g></g></g><path class="foreground" aria-hidden="true" d="" display="none"/></g></g></g></svg>