<svg xmlns="http://www.w3.org/2000/svg" xmlns:xlink="http://www.w3.org/1999/xlink" version="1.1" class="marks" width="460" height="242" viewBox="0 0 460 242"><rect width="460" height="242" fill="white"/><g fill="none" stroke-miterlimit="10" transform="translate(67,5)"><g class="mark-group role-frame root" role="graphics-object" aria-roledescription="group mark container"><g transform="translate(0,0)"><path class="background" aria-hidden="true" d="M0.5,0.5h200v200h-200Z" stroke="#ddd"/><g><g class="mark-group role-axis" aria-hidden="true"><g transform="translate(0.5,200.5)"><path class="background" aria-hidden="true" d="M0,0h0v0h0Z" pointer-events="none"/><g><g class="mark-rule role-axis-grid" pointer-events="none"><line transform="translate(63,-200)" x2="0" y2="200" stroke="#ddd" stroke-width="1" opacity="1"/><line transform="translate(122,-200)" x2="0" y2="200" stroke="#ddd" stroke-width="1" opacity="1"/><line transform="translate(186,-200)" x2="0" y2="200" stroke="#ddd" stroke-width="1" opacity="1"/></g></g><path class="foreground" aria-hidden="true" d="" pointer-events="none" display="none"/></g></g><g class="mark-group role-axis" aria-hidden="true"><g transform="translate(0.5,0.5)"><path class="background" aria-hidden="true" d="M0,0h0v0h0Z" pointer-events="none"/><g><g class="mark-rule role-axis-grid" pointer-events="none"><line transform="translate(0,200)" x2="200" y2="0" stroke="#ddd" stroke-width="1" opacity="1"/><line transform="translate(0,162)" x2="200" y2="0" stroke="#ddd" stroke-width="1" opacity="1"/><line transform="translate(0,123)" x2="200" y2="0" stroke="#ddd" stroke-width="1" opacity="1"/><line transform="translate(0,85)" x2="200" y2="0" stroke="#ddd" stroke-width="1" opacity="1"/><line transform="translate(0,46)" x2="200" y2="0" stroke="#ddd" stroke-width="1" opacity="1"/><line transform="translate(0,8)" x2="200" y2="0" stroke="#ddd" stroke-width="1" opacity="1"/></g></g><path class="foreground" aria-hidden="true" d="" pointer-events="none" display="none"/></g></g><g class="mark-group role-axis" role="graphics-symbol" aria-roledescription="axis" aria-label="X-axis titled 'Time' for a time scale with values from Monday, 01 January 2024, 2:19:43 PM to Sunday, 07 April 2024, 8:38:20 PM"><g transform="translate(0.5,200.5)"><path class="background" aria-hidden="true" d="M0,0h0v0h0Z" pointer-events="none"/><g><g class="mark-rule role-axis-tick" pointer-events="none"><line transform="translate(63,0)" x2="0" y2="5" stroke="#888" stroke-width="1" opacity="1"/><line transform="translate(122,0)" x2="0" y2="5" stroke="#888" stroke-width="1" opacity="1"/><line transform="translate(186,0)" x2="0" y2="5" stroke="#888" stroke-width="1" opacity="1"/></g><g class="mark-text role-axis-label" pointer-events="none"><text text-anchor="middle" transform="translate(62.51708279525471,15)" font-family="Liberation Mono" font-size="10px" fill="#000" opacity="1">February</text><text text-anchor="middle" transform="translate(122.1492573272648,15)" font-family="Liberation Mono" font-size="10px" fill="#000" opacity="1">March</text><text text-anchor="middle" transform="translate(185.89399562010317,15)" font-family="Liberation Mono" font-size="10px" fill="#000" opacity="1">April</text></g><g class="mark-rule role-axis-domain" pointer-events="none"><line transform="translate(0,0)" x2="200" y2="0" stroke="#888" stroke-width="1" opacity="1"/></g><g class="mark-text role-axis-title" pointer-events="none"><text text-anchor="middle" transform="translate(100,30)" font-family="Liberation Mono" font-size="11px" font-weight="bold" fill="#000" opacity="1">Time</text></g></g><path class="foreground" aria-hidden="true" d="" pointer-events="none" display="none"/></g></g><g class="mark-group role-axis" role="graphics-symbol" aria-roledescription="axis" aria-label="Y-axis titled 'Price' for a linear scale with values from 0 to 2,600"><g transform="translate(0.5,0.5)"><path class="background" aria-hidden="true" d="M0,0h0v0h0Z" pointer-events="none"/><g><g class="mark-rule role-axis-tick" pointer-events="none"><line transform="translate(0,200)" x2="-5" y2="0" stroke="#888" stroke-width="1" opacity="1"/><line transform="translate(0,162)" x2="-5" y2="0" stroke="#888" stroke-width="1" opacity="1"/><line transform="translate(0,123)" x2="-5" y2="0" stroke="#888" stroke-width="1" opacity="1"/><line transform="translate(0,85)" x2="-5" y2="0" stroke="#888" stroke-width="1" opacity="1"/><line transform="translate(0,46)" x2="-5" y2="0" stroke="#888" stroke-width="1" opacity="1"/><line transform="translate(0,8)" x2="-5" y2="0" stroke="#888" stroke-width="1" opacity="1"/></g><g class="mark-text role-axis-label" pointer-events="none"><text text-anchor="end" transform="translate(-7,203)" font-family="Liberation Mono" font-size="10px" fill="#000" opacity="1">0</text><text text-anchor="end" transform="translate(-7,164.53846153846155)" font-family="Liberation Mono" font-size="10px" fill="#000" opacity="1">500</text><text text-anchor="end" transform="translate(-7,126.07692307692308)" font-family="Liberation Mono" font-size="10px" fill="#000" opacity="1">1,000</text><text text-anchor="end" transform="translate(-7,87.61538461538463)" font-family="Liberation Mono" font-size="10px" fill="#000" opacity="1">1,500</text><text text-anchor="end" transform="translate(-7,49.153846153846146)" font-family="Liberation Mono" font-size="10px" fill="#000" opacity="1">2,000</text><text text-anchor="end" transform="translate(-7,10.692307692307686)" font-family="Liberation Mono" font-size="10px" fill="#000" opacity="1">2,500</text></g><g class="mark-rule role-axis-domain" pointer-events="none"><line transform="translate(0,200)" x2="0" y2="-200" stroke="#888" stroke-width="1" opacity="1"/></g><g class="mark-text role-axis-title" pointer-events="none"><text text-anchor="middle" transform="translate(-51,100) rotate(-90) translate(0,-2)" font-family="Liberation Mono" font-size="11px" font-weight="bold" fill="#000" opacity="1">Price</text></g></g><path class="foreground" aria-hidden="true" d="" pointer-events="none" display="none"/></g></g><g class="mark-group role-scope pathgroup" role="graphics-object" aria-roledescription="group mark container"><g transform="translate(0,0)"><path class="background" aria-hidden="true" d="M0,0h200v200h-200Z"/><g><g class="mark-line role-mark marks" role="graphics-object" aria-roledescription="line mark container"><path aria-label="Time: Jan 01, 2024; Price: 2399; identifier: altex-LG-F2WR508SBW" role="graphics-symbol" aria-roledescription="line mark" d="M0,15.462L0.215,15.462L0.541,15.462L1.226,15.462L1.569,15.462L1.93,15.462L2.257,15.462L2.597,15.462L3.283,15.462L3.626,15.462L3.986,15.462L4.314,15.462L4.653,15.462L5.339,15.462L5.682,15.462L6.042,15.462L6.372,15.462L6.71,15.462L7.396,34.692L7.739,34.692L8.099,34.692L8.428,34.692L8.766,34.692L9.452,34.692L9.794,34.692L10.153,34.692L10.482,34.692L10.822,34.692L11.51,34.692L11.85,34.692L12.209,34.692L12.539,34.692L12.878,34.692L13.566,34.692L13.909,34.692L14.27,34.692L14.598,34.692L14.934,34.692L15.623,34.692L15.965,34.692L16.33,34.692L16.655,34.692L16.991,34.692L17.679,34.692L18.021,34.692L18.382,34.692L18.709,34.692L19.047,34.692L19.734,34.692L20.077,34.692L20.439,34.692L20.767,34.692L21.104,34.692L21.79,34.692L22.134,34.692L22.494,34.692L22.822,34.692L23.16,34.692L23.846,46.231L24.188,46.231L24.547,46.231L24.876,46.231L25.216,46.231L25.903,46.231L26.244,46.231L26.603,46.231L26.932,46.231L27.272,46.231L27.96,46.231L28.303,46.231L28.665,46.231L28.992,46.231L29.328,46.231L30.015,46.231L30.36,46.231L30.721,46.231L31.049,46.231L31.385,46.231L32.072,46.231L32.416,46.231L32.777,46.231L33.105,46.231L33.441,46.231L34.128,46.231L34.471,46.231L34.832,46.231L35.16,46.231L35.498,46.231L36.185,46.231L36.528,46.231L36.889,46.231L37.217,46.231L37.554,46.231L38.241,46.231L38.582,46.231L38.941,46.231L39.272,46.231L39.61,46.231L40.296,46.231L40.638,46.231L40.997,46.231L41.327,46.231L41.666,46.231L42.355,46.231L42.698,46.231L43.06,46.231L43.386,46.231L43.723,46.231L44.41,46.231L44.754,46.231L45.116,46.231L45.444,46.231L45.779,46.231L46.467,46.231L46.81,46.231L47.172,46.231L47.499,46.231L47.835,46.231L48.524,46.231L48.866,46.231L49.228,46.231L49.557,46.231L49.891,46.231L50.578,46.231L50.922,46.231L51.277,46.231L51.606,46.231L51.949,46.231L52.633,46.231L52.977,46.231L53.329,46.231L53.661,46.231L54.003,46.231L54.69,46.231L55.032,46.231L55.386,46.231L55.718,46.231L56.06,46.231L56.746,46.231L57.089,46.231L57.445,46.231L57.774,46.231L58.117,46.231L58.801,46.231L59.145,46.231L59.501,46.231L59.835,46.231L60.173,46.231L60.858,46.231L61.201,46.231L61.558,46.231L61.886,46.231L62.229,46.231L62.914,34.692L63.257,34.692L63.614,34.692L63.942,34.692L64.285,34.692L64.971,34.692L65.313,34.692L65.67,34.692L65.998,34.692L66.342,34.692L67.027,34.692L67.37,34.692L67.723,34.692L68.055,34.692L68.399,34.692L69.085,34.692L69.427,34.692L69.779,34.692L70.111,34.692L70.454,34.692L71.14,34.692L71.484,34.692L71.84,34.692L72.168,34.692L72.51,34.692L73.196,34.692L73.539,34.692L73.896,34.692L74.225,34.692L74.567,34.692L75.252,34.692L75.595,34.692L75.951,34.692L76.283,34.692L76.623,34.692L77.308,34.692L77.652,34.692L78.007,34.692L78.338,34.692L78.679,34.692L79.365,34.692L79.708,34.692L80.063,34.692L80.394,34.692L80.737,34.692L81.421,34.692L81.763,34.692L82.118,34.692L82.449,34.692L82.792,34.692L83.479,34.692L83.82,34.692L84.174,34.692L84.506,34.692L84.848,34.692L85.534,34.692L85.876,34.692L86.235,34.692L86.563,34.692L86.904,34.692L87.589,34.692L87.933,34.692L88.288,34.692L88.623,34.692L88.961,34.692L89.646,34.692L89.989,34.692L90.346,34.692L90.675,34.692L91.017,34.692L92.045,34.692L92.402,34.692L92.731,34.692L93.074,34.692L93.759,34.692L94.102,34.692L94.458,34.692L94.789,34.692L95.13,34.692L95.816,34.692L96.157,34.692L96.511,34.692L96.843,34.692L97.186,34.692L97.872,34.692L98.216,34.692L98.568,34.692L98.9,34.692L99.242,34.692L99.928,34.692L100.272,34.692L100.628,34.692L100.96,34.692L101.298,34.692L101.985,34.692L102.327,34.692L102.682,34.692L103.013,34.692L103.356,34.692L104.04,34.692L104.383,34.692L104.74,34.692L105.07,34.692L105.412,34.692L106.097,34.692L106.439,34.692L106.796,34.692L107.126,34.692L107.468,34.692L108.153,34.692L108.495,34.692L108.851,34.692L109.181,34.692L109.525,34.692L110.209,34.692L110.552,34.692L110.905,34.692L111.237,34.692L111.579,34.692L112.265,34.692L112.609,34.692L112.961,34.692L113.295,34.692L113.636,34.692L114.321,34.692L114.665,34.692L115.021,34.692L115.351,34.692L115.692,34.692L116.378,34.692L116.721,34.692L117.076,34.692L117.407,34.692L117.749,34.692L118.434,34.692L118.777,34.692L119.133,34.692L119.464,34.692L119.805,34.692L120.49,34.692L120.833,34.692L121.188,34.692L121.518,34.692L121.861,34.692L122.546,34.692L122.891,34.692L123.246,34.692L123.576,34.692L123.918,34.692L124.603,34.692L124.946,34.692L125.301,34.692L125.631,34.692L125.974,34.692L126.659,34.692L127.002,34.692L127.355,34.692L127.687,34.692L128.03,34.692L128.747,34.692L129.215,34.692L129.42,34.692L129.746,34.692L130.087,34.692L130.771,34.692L131.114,34.692L131.473,34.692L131.8,34.692L132.142,34.692L132.828,34.692L133.174,34.692L133.529,34.692L133.859,34.692L134.199,34.692L134.884,34.692L135.228,34.692L135.583,34.692L135.913,34.692L136.256,34.692L136.941,34.692L137.288,34.692L137.64,34.692L137.968,34.692L138.311,34.692L138.997,34.692L139.34,34.692L139.692,34.692L140.027,34.692L140.367,34.692L141.053,34.692L141.398,34.692L141.749,34.692L142.082,34.692L142.424,34.692L143.111,34.692L143.452,34.692L143.81,34.692L144.14,34.692L144.481,34.692L145.166,34.692L145.508,34.692L145.866,34.692L146.197,34.692L146.536,34.692L147.223,34.692L147.567,34.692L147.923,34.692L148.251,34.692L148.593,34.692L149.278,34.692L149.621,34.692L149.979,34.692L150.308,34.692L150.649,34.692L151.334,34.692L151.68,34.692L152.034,34.692L152.364,34.692L152.705,34.692L153.391,34.692L153.735,34.692L154.089,34.692L154.419,34.692L154.763,34.692L155.447,34.692L155.792,34.692L156.144,34.692L156.475,34.692L156.818,34.692L157.503,34.692L157.846,34.692L158.206,34.692L158.535,34.692L158.876,34.692L159.561,34.692L159.903,34.692L160.259,34.692L160.592,34.692L160.93,34.692L161.616,34.692L161.96,34.692L162.316,34.692L162.648,34.692L162.988,34.692L163.672,34.692L164.016,34.692L164.373,34.692L164.705,34.692L165.043,34.692L165.729,34.692L166.071,34.692L166.428,34.692L166.758,34.692L167.1,34.692L167.785,34.692L168.127,34.692L168.483,34.692L168.813,34.692L169.155,34.692L169.841,34.692L170.184,34.692L170.541,34.692L170.869,34.692L171.212,34.692L171.898,34.692L172.24,34.692L172.597,34.692L172.927,34.692L173.268,34.692L173.954,34.692L174.299,34.692L174.654,34.692L174.985,34.692L175.324,34.692L176.013,34.692L176.354,34.692L176.711,34.692L177.043,34.692L177.381,34.692L178.066,34.692L178.409,34.692L178.767,34.692L179.096,34.692L179.437,34.692L180.123,34.692L180.465,34.692L180.824,34.692L181.152,34.692L181.493,34.692L182.179,34.692L182.521,34.692L182.875,34.692L183.208,34.692L183.551,34.692L184.236,34.692L184.58,34.692L184.933,34.692L185.265,34.692L185.606,34.692L186.291,34.692L186.637,34.692L186.994,34.692L187.325,34.692L187.662,34.692L188.349,34.692L188.691,34.692L189.05,34.692L189.379,34.692L189.718,34.692L190.404,34.692L190.747,34.692L191.104,34.692L191.436,34.692L191.775,34.692L192.461,34.692L192.804,34.692L193.161,34.692L193.49,34.692L193.832,34.692L194.52,34.692L195.216,34.692L195.547,34.692L195.889,34.692L196.574,34.692L196.917,34.692L197.27,34.692L197.601,34.692L197.944,34.692L198.629,34.692L198.972,34.692L199.327,34.692L199.657,34.692L200,34.692" stroke="#4c78a8" stroke-width="2"/></g></g><path class="foreground" aria-hidden="true" d="" display="none"/></g><g transform="translate(0,0)"><path class="background" aria-hidden="true" d="M0,0h200v200h-200Z"/><g><g class="mark-line role-mark marks" role="graphics-object" aria-roledescription="line mark container"><path aria-label="Time: Jan 01, 2024; Price: 2499; identifier: altex-LG-F2WR508SBM" role="graphics-symbol" aria-roledescription="line mark" d="M0,7.769L0.215,7.769L0.541,7.769L1.226,7.769L1.569,7.769L1.93,7.769L2.257,7.769L2.597,7.769L3.283,7.769L3.626,7.769L3.986,7.769L4.314,7.769L4.653,7.769L5.339,7.769L5.682,7.769L6.042,7.769L6.373,7.769L6.71,7.769L7.396,27L7.739,27L8.099,27L8.428,27L8.766,27L9.452,27L9.794,27L10.153,27L10.482,27L10.822,27L11.51,27L11.85,27L12.209,27L12.539,27L12.878,27L13.566,27L13.909,27L14.27,27L14.598,27L14.934,27L15.623,27L15.965,27L16.33,27L16.655,27L16.991,27L17.679,27L18.021,27L18.382,27L18.709,27L19.047,27L19.734,27L20.077,27L20.439,27L20.767,27L21.104,27L21.79,27L22.134,27L22.494,27L22.822,27L23.16,27L23.846,38.538L24.188,38.538L24.547,38.538L24.876,38.538L25.216,38.538L25.904,38.538L26.244,38.538L26.603,38.538L26.932,38.538L27.272,38.538L27.96,38.538L28.303,38.538L28.665,38.538L28.992,38.538L29.329,38.538L30.015,38.538L30.36,38.538L30.721,38.538L31.05,38.538L31.385,38.538L32.072,38.538L32.416,38.538L32.777,38.538L33.105,38.538L33.441,38.538L34.128,38.538L34.471,38.538L34.832,38.538L35.16,38.538L35.498,38.538L36.185,38.538L36.528,38.538L36.889,38.538L37.218,38.538L37.554,38.538L38.241,38.538L38.582,38.538L38.941,38.538L39.272,38.538L39.611,38.538L40.296,38.538L40.638,38.538L40.997,38.538L41.327,38.538L41.667,38.538L42.355,38.538L42.699,38.538L43.06,38.538L43.386,38.538L43.723,38.538L44.41,38.538L44.754,38.538L45.116,38.538L45.444,38.538L45.779,38.538L46.467,38.538L46.81,38.538L47.172,38.538L47.499,38.538L47.835,38.538L48.524,38.538L48.866,38.538L49.228,38.538L49.557,38.538L49.892,38.538L50.578,38.538L50.922,38.538L51.277,38.538L51.606,38.538L51.949,38.538L52.633,38.538L52.977,38.538L53.329,38.538L53.661,38.538L54.003,38.538L54.69,38.538L55.032,38.538L55.386,38.538L55.718,38.538L56.06,38.538L56.746,38.538L57.09,38.538L57.445,38.538L57.775,38.538L58.117,38.538L58.802,38.538L59.145,38.538L59.501,38.538L59.835,38.538L60.173,38.538L60.858,38.538L61.201,38.538L61.558,38.538L61.887,38.538L62.229,38.538L62.914,27L63.257,27L63.614,27L63.942,27L64.285,27L64.971,27L65.313,27L65.67,27L65.999,27L66.342,27L67.027,27L67.37,27L67.723,27L68.055,27L68.399,27L69.085,27L69.427,27L69.779,27L70.111,27L70.454,27L71.14,27L71.484,27L71.84,27L72.169,27L72.51,27L73.196,27L73.539,27L73.896,27L74.225,27L74.567,27L75.252,27L75.595,27L75.951,27L76.283,27L76.623,27L77.309,27L77.652,27L78.008,27L78.338,27L78.679,27L79.365,27L79.708,27L80.063,27L80.394,27L80.737,27L81.421,27L81.764,27L82.118,27L82.449,27L82.792,27L83.479,27L83.821,27L84.174,27L84.506,27L84.848,27L85.534,27L85.876,27L86.235,27L86.563,27L86.904,27L87.589,27L87.933,27L88.289,27L88.623,27L88.961,27L89.646,27L89.989,27L90.346,27L90.675,27L91.017,27L92.045,27L92.402,27L92.731,27L93.074,27L93.759,27L94.102,27L94.458,27L94.789,27L95.13,27L95.816,27L96.157,27L96.511,27L96.843,27L97.186,27L97.872,27L98.216,27L98.568,27L98.9,27L99.242,27L99.928,27L100.272,27L100.629,27L100.96,27L101.298,27L101.985,27L102.327,27L102.682,27L103.013,27L103.356,27L104.04,27L104.383,27L104.74,27L105.07,27L105.412,27L106.097,27L106.439,27L106.796,27L107.126,27L107.468,27L108.153,27L108.496,27L108.851,27L109.181,27L109.526,27L110.209,27L110.552,27L110.905,27L111.237,27L111.579,27L112.265,27L112.609,27L112.961,27L113.295,27L113.636,27L114.321,27L114.666,27L115.021,27L115.351,27L115.692,27L116.378,27L116.721,27L117.076,27L117.407,27L117.749,27L118.434,27L118.777,27L119.133,27L119.464,27L119.805,27L120.491,27L120.833,27L121.188,27L121.518,27L121.861,27L122.546,27L122.891,27L123.246,27L123.576,27L123.918,27L124.603,27L124.946,27L125.302,27L125.631,27L125.974,27L126.66,27L127.002,27L127.355,27L127.687,27L128.03,27L128.747,27L129.215,27L129.42,27L129.746,27L130.087,27L130.771,27L131.114,27L131.473,27L131.801,27L132.142,27L132.828,27L133.174,27L133.529,27L133.859,27L134.199,27L134.884,27L135.228,27L135.583,38.538L135.913,38.538L136.256,38.538L136.941,38.538L137.288,38.538L137.64,38.538L137.968,38.538L138.311,38.538L138.998,38.538L139.34,38.538L139.692,38.538L140.027,38.538L140.367,38.538L141.053,38.538L141.398,38.538L141.749,38.538L142.082,38.538L142.424,38.538L143.111,38.538L143.452,38.538L143.81,38.538L144.14,38.538L144.481,38.538L145.166,38.538L145.508,38.538L145.866,38.538L146.197,38.538L146.536,38.538L147.223,38.538L147.567,38.538L147.923,38.538L148.251,38.538L148.593,38.538L149.278,38.538L149.621,38.538L149.979,38.538L150.308,38.538L150.649,38.538L151.334,38.538L151.68,38.538L152.034,38.538L152.364,38.538L152.705,38.538L153.391,38.538L153.735,38.538L154.089,38.538L154.419,38.538L154.763,38.538L155.447,38.538L155.792,38.538L156.144,38.538L156.475,38.538L156.818,38.538L157.503,38.538L157.846,38.538L158.206,38.538L158.535,38.538L158.876,38.538L159.561,38.538L159.903,38.538L160.259,38.538L160.592,38.538L160.93,38.538L161.616,38.538L161.96,38.538L162.316,38.538L162.649,38.538L162.988,38.538L163.672,38.538L164.016,38.538L164.373,38.538L164.706,38.538L165.044,38.538L165.729,38.538L166.071,38.538L166.428,38.538L166.758,38.538L167.1,38.538L167.785,38.538L168.127,38.538L168.483,38.538L168.813,38.538L169.155,38.538L169.841,38.538L170.184,38.538L170.541,38.538L170.869,38.538L171.212,38.538L171.898,38.538L172.24,38.538L172.597,38.538L172.927,38.538L173.268,38.538L173.954,38.538L174.299,38.538L174.654,38.538L174.985,38.538L175.325,38.538L176.013,38.538L176.354,38.538L176.711,38.538L177.043,38.538L177.381,38.538L178.066,38.538L178.409,38.538L178.767,38.538L179.096,38.538L179.437,38.538L180.123,38.538L180.465,38.538L180.824,38.538L181.152,38.538L181.493,38.538L182.179,38.538L182.521,38.538L182.875,38.538L183.208,38.538L183.551,38.538L184.236,38.538L184.58,38.538L184.933,38.538L185.265,38.538L185.606,38.538L186.291,38.538L186.637,38.538L186.994,38.538L187.325,38.538L187.662,38.538L188.349,38.538L188.692,38.538L189.05,38.538L189.38,38.538L189.718,38.538L190.404,38.538L190.747,38.538L191.104,38.538L191.436,38.538L191.775,38.538L192.462,38.538L192.804,38.538L193.161,38.538L193.49,38.538L193.832,38.538L194.52,38.538L195.216,38.538L195.547,38.538L195.889,38.538L196.574,38.538L196.917,38.538L197.27,38.538L197.601,38.538L197.944,38.538L198.629,38.538L198.972,38.538L199.327,38.538L199.657,38.538L200,38.538" stroke="#f58518" stroke-width="2"/></g></g><path class="foreground" aria-hidden="true" d="" display="none"/></g></g><g class="mark-group role-legend" role="graphics-symbol" aria-roledescription="legend" aria-label="Symbol legend titled 'identifier' for stroke color with 2 values: altex-LG-F2WR508SBW, altex-LG-F2WR508SBM"><g transform="translate(220,0)"><path class="background" aria-hidden="true" d="M0,0h168v40h-168Z" pointer-events="none"/><g><g class="mark-group role-legend-entry"><g transform="translate(0,16)"><path class="background" aria-hidden="true" d="M0,0h0v0h0Z" pointer-events="none"/><g><g class="mark-group role-scope" role="graphics-object" aria-roledescription="group mark container"><g transform="translate(0,0)"><path class="background" aria-hidden="true" d="M0,0h168v11h-168Z" pointer-events="none" opacity="1"/><g><g class="mark-symbol role-legend-symbol" pointer-events="none"><path transform="translate(6,6)" d="M-5,0L5,0" stroke="#4c78a8" stroke-width="1.5" opacity="1"/></g><g class="mark-text role-legend-label" pointer-events="none"><text text-anchor="start" transform="translate(16,9)" font-family="Liberation Mono" font-size="10px" fill="#000" opacity="1">altex-LG-F2WR508SBW</text></g></g><path class="foreground" aria-hidden="true" d="" pointer-events="none" display="none"/></g><g transform="translate(0,13)"><path class="background" aria-hidden="true" d="M0,0h168v11h-168Z" pointer-events="none" opacity="1"/><g><g class="mark-symbol role-legend-symbol" pointer-events="none"><path transform="translate(6,6)" d="M-5,0L5,0" stroke="#f58518" stroke-width="1.5" opacity="1"/></g><g class="mark-text role-legend-label" pointer-events="none"><text text-anchor="start" transform="translate(16,9)" font-family="Liberation Mono" font-size="10px" fill="#000" opacity="1">altex-LG-F2WR508SBM</text></g></g><path class="foreground" aria-hidden="true" d="" pointer-events="none" display="none"/></g></g></g><path class="foreground" aria-hidden="true" d="" pointer-events="none" display="none"/></g></g><g class="mark-text role-legend-title" pointer-events="none"><text text-anchor="start" transform="translate(0,9)" font-family="Liberation Mono" font-size="11px" font-weight="bold" fill="#000" opacity="1">identifier</text></g></g><path class="foreground" aria-hidden="true" d="" pointer-events="none" display="none"/></g></g></g><path class="foreground" aria-hidden="true" d="" display="none"/></g></g></g></svg>