<svg xmlns="http://www.w3.org/2000/svg" xmlns:xlink="http://www.w3.org/1999/xlink" version="1.1" class="marks" width="460" height="242" viewBox="0 0 460 242"><rect width="460" height="242" fill="white"/><g fill="none" stroke-miterlimit="10" transform="translate(67,5)"><g class="mark-group role-frame root" role="graphics-object" aria-roledescription="group mark container"><g transform="translate(0,0)"><path class="background" aria-hidden="true" d="M0.5,0.5h200v200h-200Z" stroke="#ddd"/><g><g class="mark-group role-axis" aria-hidden="true"><g transform="translate(0.5,200.5)"><path class="background" aria-hidden="true" d="M0,0h0v0h0Z" pointer-events="none"/><g><g class="mark-rule role-axis-grid" pointer-events="none"><line transform="translate(24,-200)" x2="0" y2="200" stroke="#ddd" stroke-width="1" opacity="1"/><line transform="translate(47,-200)" x2="0" y2="200" stroke="#ddd" stroke-width="1" opacity="1"/><line transform="translate(72,-200)" x2="0" y2="200" stroke="#ddd" stroke-width="1" opacity="1"/><line transform="translate(96,-200)" x2="0" y2="200" stroke="#ddd" stroke-width="1" opacity="1"/><line transform="translate(120,-200)" x2="0" y2="200" stroke="#ddd" stroke-width="1" opacity="1"/><line transform="translate(144,-200)" x2="0" y2="200" stroke="#ddd" stroke-width="1" opacity="1"/><line transform="translate(169,-200)" x2="0" y2="200" stroke="#ddd" stroke-width="1" opacity="1"/><line transform="translate(193,-200)" x2="0" y2="200" stroke="#ddd" stroke-width="1" opacity="1"/></g></g><path class="foreground" aria-hidden="true" d="" pointer-events="none" display="none"/></g></g><g class="mark-group role-axis" aria-hidden="true"><g transform="translate(0.5,0.5)"><path class="background" aria-hidden="true" d="M0,0h0v0h0Z" pointer-events="none"/><g><g class="mark-rule role-axis-grid" pointer-events="none"><line transform="translate(0,200)" x2="200" y2="0" stroke="#ddd" stroke-width="1" opacity="1"/><line transform="translate(0,162)" x2="200" y2="0" stroke="#ddd" stroke-width="1" opacity="1"/><line transform="translate(0,123)" x2="200" y2="0" stroke="#ddd" stroke-width="1" opacity="1"/><line transform="translate(0,85)" x2="200" y2="0" stroke="#ddd" stroke-width="1" opacity="1"/><line transform="translate(0,46)" x2="200" y2="0" stroke="#ddd" stroke-width="1" opacity="1"/><line transform="translate(0,8)" x2="200" y2="0" stroke="#ddd" stroke-width="1" opacity="1"/></g></g><path class="foreground" aria-hidden="true" d="" pointer-events="none" display="none"/></g></g><g class="mark-group role-axis" role="graphics-symbol" aria-roledescription="axis" aria-label="X-axis titled 'Time' for a time scale with values from Monday, 01 January 2024, 2:19:43 PM to Monday, 09 September 2024, 4:42:21 AM"><g transform="translate(0.5,200.5)"><path class="background" aria-hidden="true" d="M0,0h0v0h0Z" pointer-events="none"/><g><g class="mark-rule role-axis-tick" pointer-events="none"><line transform="translate(24,0)" x2="0" y2="5" stroke="#888" stroke-width="1" opacity="1"/><line transform="translate(47,0)" x2="0" y2="5" stroke="#888" stroke-width="1" opacity="1"/><line transform="translate(72,0)" x2="0" y2="5" stroke="#888" stroke-width="1" opacity="1"/><line transform="translate(96,0)" x2="0" y2="5" stroke="#888" stroke-width="1" opacity="1"/><line transform="translate(120,0)" x2="0" y2="5" stroke="#888" stroke-width="1" opacity="1"/><line transform="translate(144,0)" x2="0" y2="5" stroke="#888" stroke-width="1" opacity="1"/><line transform="translate(169,0)" x2="0" y2="5" stroke="#888" stroke-width="1" opacity="1"/><line transform="translate(193,0)" x2="0" y2="5" stroke="#888" stroke-width="1" opacity="1"/></g><g class="mark-text role-axis-label" pointer-events="none"><text text-anchor="middle" transform="translate(24.16779628092575,15)" font-family="Liberation Mono" font-size="10px" fill="#000" opacity="1">February</text><text text-anchor="middle" transform="translate(47.22034738280825,15)" font-family="Liberation Mono" font-size="10px" fill="#000" opacity="0">March</text><text text-anchor="middle" transform="translate(71.8627295951654,15)" font-family="Liberation Mono" font-size="10px" fill="#000" opacity="0">April</text><text text-anchor="middle" transform="translate(95.71019625228524,15)" font-family="Liberation Mono" font-size="10px" fill="#000" opacity="0">May</text><text text-anchor="middle" transform="translate(120.3525784646424,15)" font-family="Liberation Mono" font-size="10px" fill="#000" opacity="0">June</text><text text-anchor="middle" transform="translate(144.2000451217622,15)" font-family="Liberation Mono" font-size="10px" fill="#000" opacity="0">July</text><text text-anchor="middle" transform="translate(168.84242733411938,15)" font-family="Liberation Mono" font-size="10px" fill="#000" opacity="0">August</text><text text-anchor="middle" transform="translate(193.48480954647653,15)" font-family="Liberation Mono" font-size="10px" fill="#000" opacity="1">September</text></g><g class="mark-rule role-axis-domain" pointer-events="none"><line transform="translate(0,0)" x2="200" y2="0" stroke="#888" stroke-width="1" opacity="1"/></g><g class="mark-text role-axis-title" pointer-events="none"><text text-anchor="middle" transform="translate(100,30)" font-family="Liberation Mono" font-size="11px" font-weight="bold" fill="#000" opacity="1">Time</text></g></g><path class="foreground" aria-hidden="true" d="" pointer-events="none" display="none"/></g></g><g class="mark-group role-axis" role="graphics-symbol" aria-roledescription="axis" aria-label="Y-axis titled 'Price' for a linear scale with values from 0 to 2,600"><g transform="translate(0.5,0.5)"><path class="background" aria-hidden="true" d="M0,0h0v0h0Z" pointer-events="none"/><g><g class="mark-rule role-axis-tick" pointer-events="none"><line transform="translate(0,200)" x2="-5" y2="0" stroke="#888" stroke-width="1" opacity="1"/><line transform="translate(0,162)" x2="-5" y2="0" stroke="#888" stroke-width="1" opacity="1"/><line transform="translate(0,123)" x2="-5" y2="0" stroke="#888" stroke-width="1" opacity="1"/><line transform="translate(0,85)" x2="-5" y2="0" stroke="#888" stroke-width="1" opacity="1"/><line transform="translate(0,46)" x2="-5" y2="0" stroke="#888" stroke-width="1" opacity="1"/><line transform="translate(0,8)" x2="-5" y2="0" stroke="#888" stroke-width="1" opacity="1"/></g><g class="mark-text role-axis-label" pointer-events="none"><text text-anchor="end" transform="translate(-7,203)" font-family="Liberation Mono" font-size="10px" fill="#000" opacity="1">0</text><text text-anchor="end" transform="translate(-7,164.53846153846155)" font-family="Liberation Mono" font-size="10px" fill="#000" opacity="1">500</text><text text-anchor="end" transform="translate(-7,126.07692307692308)" font-family="Liberation Mono" font-size="10px" fill="#000" opacity="1">1,000</text><text text-anchor="end" transform="translate(-7,87.61538461538463)" font-family="Liberation Mono" font-size="10px" fill="#000" opacity="1">1,500</text><text text-anchor="end" transform="translate(-7,49.153846153846146)" font-family="Liberation Mono" font-size="10px" fill="#000" opacity="1">2,000</text><text text-anchor="end" transform="translate(-7,10.692307692307686)" font-family="Liberation Mono" font-size="10px" fill="#000" opacity="1">2,500</text></g><g class="mark-rule role-axis-domain" pointer-events="none"><line transform="translate(0,200)" x2="0" y2="-200" stroke="#888" stroke-width="1" opacity="1"/></g><g class="mark-text role-axis-title" pointer-events="none"><text text-anchor="middle" transform="translate(-51,100) rotate(-90) translate(0,-2)" font-family="Liberation Mono" font-size="11px" font-weight="bold" fill="#000" opacity="1">Price</text></g></g><path class="foreground" aria-hidden="true" d="" pointer-events="none" display="none"/></g></g><g class="mark-group role-scope pathgroup" role="graphics-object" aria-roledescription="group mark container"><g transform="translate(0,0)"><path class="background" aria-hidden="true" d="M0,0h200v200h-200Z"/><g><g class="mark-line role-mark marks" role="graphics-object" aria-roledescription="line mark container"><path aria-label="Time: Jan 01, 2024; Price: 2399; identifier: altex-LG-F2WR508SBW" role="graphics-symbol" aria-roledescription="line mark" d="M0,15.462L0.083,15.462L0.209,15.462L0.474,15.462L0.607,15.462L0.746,15.462L0.873,15.462L1.004,15.462L1.269,15.462L1.402,15.462L1.541,15.462L1.668,15.462L1.799,15.462L2.064,15.462L2.197,15.462L2.336,15.462L2.463,15.462L2.594,15.462L2.859,34.692L2.992,34.692L3.131,34.692L3.258,34.692L3.389,34.692L3.654,34.692L3.786,34.692L3.925,34.692L4.052,34.692L4.184,34.692L4.449,34.692L4.581,34.692L4.72,34.692L4.847,34.692L4.978,34.692L5.244,34.692L5.377,34.692L5.516,34.692L5.643,34.692L5.773,34.692L6.039,34.692L6.172,34.692L6.313,34.692L6.438,34.692L6.568,34.692L6.834,34.692L6.967,34.692L7.106,34.692L7.233,34.692L7.363,34.692L7.629,34.692L7.761,34.692L7.901,34.692L8.028,34.692L8.158,34.692L8.424,34.692L8.556,34.692L8.696,34.692L8.823,34.692L8.953,34.692L9.218,46.231L9.351,46.231L9.489,46.231L9.617,46.231L9.748,46.231L10.014,46.231L10.145,46.231L10.284,46.231L10.411,46.231L10.543,46.231L10.809,46.231L10.941,46.231L11.081,46.231L11.208,46.231L11.338,46.231L11.603,46.231L11.736,46.231L11.876,46.231L12.003,46.231L12.133,46.231L12.398,46.231L12.531,46.231L12.671,46.231L12.798,46.231L12.928,46.231L13.193,46.231L13.326,46.231L13.465,46.231L13.592,46.231L13.723,46.231L13.988,46.231L14.121,46.231L14.26,46.231L14.388,46.231L14.517,46.231L14.783,46.231L14.915,46.231L15.054,46.231L15.182,46.231L15.313,46.231L15.577,46.231L15.71,46.231L15.849,46.231L15.976,46.231L16.107,46.231L16.374,46.231L16.506,46.231L16.646,46.231L16.772,46.231L16.902,46.231L17.168,46.231L17.301,46.231L17.441,46.231L17.568,46.231L17.697,46.231L17.963,46.231L18.096,46.231L18.236,46.231L18.362,46.231L18.492,46.231L18.758,46.231L18.89,46.231L19.031,46.231L19.158,46.231L19.287,46.231L19.552,46.231L19.685,46.231L19.823,46.231L19.95,46.231L20.082,46.231L20.347,46.231L20.48,46.231L20.616,46.231L20.744,46.231L20.877,46.231L21.142,46.231L21.274,46.231L21.411,46.231L21.539,46.231L21.672,46.231L21.937,46.231L22.07,46.231L22.207,46.231L22.334,46.231L22.467,46.231L22.731,46.231L22.864,46.231L23.002,46.231L23.131,46.231L23.261,46.231L23.526,46.231L23.659,46.231L23.797,46.231L23.924,46.231L24.056,46.231L24.321,34.692L24.454,34.692L24.592,34.692L24.719,34.692L24.851,34.692L25.117,34.692L25.249,34.692L25.387,34.692L25.514,34.692L25.646,34.692L25.911,34.692L26.044,34.692L26.18,34.692L26.309,34.692L26.442,34.692L26.707,34.692L26.839,34.692L26.975,34.692L27.104,34.692L27.236,34.692L27.501,34.692L27.634,34.692L27.772,34.692L27.899,34.692L28.031,34.692L28.296,34.692L28.428,34.692L28.567,34.692L28.694,34.692L28.826,34.692L29.091,34.692L29.224,34.692L29.361,34.692L29.489,34.692L29.621,34.692L29.886,34.692L30.019,34.692L30.156,34.692L30.284,34.692L30.416,34.692L30.681,34.692L30.814,34.692L30.951,34.692L31.078,34.692L31.211,34.692L31.476,34.692L31.608,34.692L31.745,34.692L31.873,34.692L32.006,34.692L32.271,34.692L32.403,34.692L32.54,34.692L32.668,34.692L32.801,34.692L33.066,34.692L33.198,34.692L33.336,34.692L33.463,34.692L33.595,34.692L33.86,34.692L33.993,34.692L34.13,34.692L34.26,34.692L34.39,34.692L34.655,34.692L34.788,34.692L34.926,34.692L35.053,34.692L35.185,34.692L35.583,34.692L35.721,34.692L35.848,34.692L35.98,34.692L36.245,34.692L36.378,34.692L36.515,34.692L36.643,34.692L36.775,34.692L37.04,34.692L37.172,34.692L37.309,34.692L37.438,34.692L37.57,34.692L37.835,34.692L37.968,34.692L38.104,34.692L38.233,34.692L38.365,34.692L38.63,34.692L38.763,34.692L38.901,34.692L39.029,34.692L39.16,34.692L39.425,34.692L39.557,34.692L39.695,34.692L39.823,34.692L39.955,34.692L40.22,34.692L40.352,34.692L40.49,34.692L40.618,34.692L40.75,34.692L41.015,34.692L41.147,34.692L41.285,34.692L41.413,34.692L41.545,34.692L41.81,34.692L41.942,34.692L42.079,34.692L42.207,34.692L42.34,34.692L42.605,34.692L42.737,34.692L42.873,34.692L43.002,34.692L43.134,34.692L43.399,34.692L43.532,34.692L43.668,34.692L43.798,34.692L43.929,34.692L44.194,34.692L44.327,34.692L44.465,34.692L44.592,34.692L44.724,34.692L44.989,34.692L45.122,34.692L45.259,34.692L45.387,34.692L45.519,34.692L45.784,34.692L45.917,34.692L46.054,34.692L46.182,34.692L46.314,34.692L46.579,34.692L46.711,34.692L46.849,34.692L46.976,34.692L47.109,34.692L47.374,34.692L47.507,34.692L47.644,34.692L47.772,34.692L47.904,34.692L48.169,34.692L48.301,34.692L48.439,34.692L48.566,34.692L48.699,34.692L48.964,34.692L49.096,34.692L49.233,34.692L49.361,34.692L49.494,34.692L49.771,34.692L49.952,34.692L50.031,34.692L50.157,34.692L50.289,34.692L50.553,34.692L50.686,34.692L50.825,34.692L50.951,34.692L51.083,34.692L51.348,34.692L51.482,34.692L51.619,34.692L51.747,34.692L51.878,34.692L52.143,34.692L52.276,34.692L52.414,34.692L52.541,34.692L52.674,34.692L52.938,34.692L53.073,34.692L53.209,34.692L53.336,34.692L53.468,34.692L53.733,34.692L53.866,34.692L54.002,34.692L54.131,34.692L54.263,34.692L54.528,34.692L54.662,34.692L54.797,34.692L54.926,34.692L55.058,34.692L55.324,34.692L55.456,34.692L55.594,34.692L55.722,34.692L55.853,34.692L56.118,34.692L56.251,34.692L56.389,34.692L56.517,34.692L56.648,34.692L56.913,34.692L57.046,34.692L57.184,34.692L57.311,34.692L57.443,34.692L57.708,34.692L57.841,34.692L57.979,34.692L58.106,34.692L58.238,34.692L58.503,34.692L58.636,34.692L58.773,34.692L58.901,34.692L59.033,34.692L59.298,34.692L59.431,34.692L59.568,34.692L59.695,34.692L59.828,34.692L60.093,34.692L60.226,34.692L60.362,34.692L60.49,34.692L60.623,34.692L60.887,34.692L61.02,34.692L61.159,34.692L61.286,34.692L61.418,34.692L61.683,34.692L61.815,34.692L61.953,34.692L62.082,34.692L62.212,34.692L62.477,34.692L62.61,34.692L62.748,34.692L62.877,34.692L63.008,34.692L63.272,34.692L63.405,34.692L63.543,34.692L63.672,34.692L63.802,34.692L64.067,34.692L64.2,34.692L64.338,34.692L64.465,34.692L64.597,34.692L64.862,34.692L64.995,34.692L65.132,34.692L65.26,34.692L65.392,34.692L65.657,34.692L65.79,34.692L65.928,34.692L66.054,34.692L66.187,34.692L66.452,34.692L66.585,34.692L66.723,34.692L66.85,34.692L66.982,34.692L67.247,34.692L67.38,34.692L67.518,34.692L67.646,34.692L67.777,34.692L68.043,34.692L68.175,34.692L68.313,34.692L68.441,34.692L68.572,34.692L68.837,34.692L68.969,34.692L69.108,34.692L69.235,34.692L69.366,34.692L69.632,34.692L69.764,34.692L69.903,34.692L70.03,34.692L70.162,34.692L70.426,34.692L70.559,34.692L70.696,34.692L70.824,34.692L70.957,34.692L71.222,34.692L71.355,34.692L71.491,34.692L71.62,34.692L71.751,34.692L72.016,34.692L72.15,34.692L72.288,34.692L72.416,34.692L72.546,34.692L72.812,34.692L72.944,34.692L73.083,34.692L73.21,34.692L73.341,34.692L73.606,34.692L73.739,34.692L73.877,34.692L74.005,34.692L74.136,34.692L74.402,34.692L74.534,34.692L74.672,34.692L74.799,34.692L74.931,34.692L75.197,34.692L75.466,34.692L75.594,34.692L75.726,34.692L75.991,34.692L76.124,34.692L76.26,34.692L76.388,34.692L76.521,34.692L76.786,34.692L76.918,34.692L77.055,34.692L77.183,34.692L77.316,34.692L77.581,34.692L77.713,34.692L77.852,34.692L77.979,34.692L78.111,34.692L78.376,34.692L78.508,34.692L78.647,34.692L78.774,34.692L78.906,34.692L79.171,34.692L79.304,34.692L79.442,34.692L79.57,34.692L79.701,34.692L79.966,34.692L80.099,34.692L80.237,34.692L80.496,34.692L80.761,34.692L80.894,34.692L81.031,34.692L81.158,34.692L81.29,34.692L81.555,34.692L81.688,34.692L81.823,34.692L81.953,34.692L82.085,34.692L82.362,34.692L82.566,34.692L82.691,34.692L82.948,34.692L83.147,34.692L83.278,34.692L83.414,34.692L83.543,34.692L83.675,34.692L83.94,34.692L84.073,34.692L84.211,34.692L84.338,34.692L84.47,34.692L84.735,34.692L84.867,34.692L85.006,34.692L85.134,34.692L85.265,34.692L85.663,34.692L85.801,34.692L85.928,34.692L86.06,34.692L86.325,34.692L86.458,34.692L86.596,34.692L86.724,34.692L86.855,34.692L87.12,34.692L87.252,34.692L87.39,34.692L87.518,34.692L87.65,34.692L87.915,34.692L88.048,34.692L88.185,34.692L88.312,34.692L88.445,34.692L88.709,34.692L88.843,34.692L88.981,34.692L89.108,34.692L89.239,34.692L89.504,34.692L89.637,34.692L89.776,34.692L89.903,34.692L90.035,34.692L90.299,34.692L90.433,34.692L90.575,34.692L90.698,34.692L90.83,34.692L91.094,34.692L91.227,34.692L91.362,34.692L91.492,34.692L91.625,34.692L91.889,34.692L92.022,34.692L92.16,34.692L92.288,34.692L92.42,34.692L92.684,34.692L92.817,34.692L92.954,34.692L93.082,34.692L93.214,34.692L93.479,34.692L93.612,34.692L93.75,34.692L93.877,34.692L94.009,34.692L94.274,34.692L94.408,34.692L94.546,34.692L94.672,34.692L94.804,34.692L95.069,34.692L95.202,34.692L95.341,34.692L95.468,34.692L95.599,34.692L95.864,34.692L95.999,34.692L96.136,34.692L96.262,34.692L96.394,34.692L96.659,57.769L96.791,57.769L96.931,57.769L97.057,57.769L97.189,57.769L97.454,57.769L97.586,57.769L97.725,57.769L97.852,57.769L97.984,57.769L98.249,57.769L98.381,57.769L98.519,57.769L98.646,57.769L98.779,57.769L99.044,57.769L99.177,57.769L99.314,57.769L99.441,57.769L99.573,57.769L99.839,57.769L99.972,57.769L100.111,57.769L100.238,57.769L100.368,57.769L100.633,57.769L100.766,57.769L100.905,57.769L101.032,57.769L101.164,57.769L101.428,57.769L101.561,57.769L101.702,57.769L101.828,57.769L101.958,57.769L102.224,34.692L102.357,34.692L102.495,34.692L102.624,34.692L102.754,34.692L103.018,34.692L103.151,34.692L103.291,34.692L103.417,34.692L103.548,34.692L103.813,34.692L103.946,34.692L104.084,34.692L104.21,34.692L104.343,34.692L104.608,34.692L104.74,34.692L104.879,34.692L105.006,34.692L105.138,34.692L105.403,34.692L105.536,34.692L105.676,34.692L105.802,34.692L105.933,34.692L106.198,34.692L106.331,34.692L106.471,34.692L106.597,34.692L106.728,34.692L106.993,34.692L107.126,34.692L107.266,34.692L107.391,34.692L107.523,34.692L107.788,34.692L107.921,34.692L108.06,34.692L108.186,34.692L108.317,34.692L108.583,34.692L108.715,34.692L108.855,34.692L108.981,34.692L109.112,34.692L109.377,34.692L109.51,34.692L109.649,34.692L109.775,34.692L109.907,34.692L110.173,34.692L110.305,34.692L110.444,34.692L110.571,34.692L110.703,34.692L110.969,34.692L111.1,34.692L111.24,34.692L111.366,34.692L111.498,34.692L111.762,34.692L111.895,34.692L112.035,34.692L112.161,34.692L112.293,34.692L112.558,34.692L112.691,34.692L112.83,34.692L112.957,34.692L113.087,34.692L113.352,34.692L113.485,34.692L113.624,34.692L113.751,34.692L113.882,34.692L114.148,34.692L114.28,34.692L114.42,34.692L114.545,34.692L114.677,34.692L114.942,34.692L115.075,34.692L115.213,34.692L115.34,34.692L115.472,34.692L115.737,34.692L115.869,34.692L116.008,34.692L116.135,34.692L116.268,34.692L116.532,34.692L116.665,34.692L116.805,34.692L116.931,34.692L117.061,34.692L117.329,34.692L117.46,34.692L117.599,34.692L117.725,34.692L117.856,34.692L118.123,34.692L118.255,34.692L118.394,34.692L118.521,34.692L118.651,34.692L118.918,34.692L119.05,34.692L119.189,34.692L119.315,34.692L119.446,34.692L119.713,34.692L119.845,34.692L119.984,34.692L120.11,34.692L120.241,34.692L120.506,34.692L120.639,34.692L120.778,34.692L120.905,34.692L121.036,34.692L121.302,34.692L121.434,34.692L121.572,34.692L121.699,34.692L121.831,34.692L122.097,34.692L122.23,34.692L122.37,34.692L122.495,34.692L122.627,34.692L122.891,34.692L123.025,34.692L123.164,34.692L123.291,34.692L123.421,34.692L123.687,34.692L123.819,34.692L123.959,34.692L124.085,34.692L124.216,34.692L124.481,34.692L124.614,34.692L124.754,34.692L124.88,34.692L125.011,34.692L125.277,34.692L125.41,34.692L125.549,34.692L125.676,34.692L125.806,34.692L126.071,34.692L126.203,34.692L126.342,34.692L126.47,34.692L126.601,34.692L126.866,34.692L126.998,34.692L127.138,34.692L127.264,34.692L127.396,34.692L127.662,34.692L127.795,34.692L127.934,34.692L128.06,34.692L128.19,34.692L128.457,34.692L128.589,34.692L128.729,34.692L128.855,34.692L128.986,34.692L129.251,34.692L129.384,46.231L129.524,46.231L129.65,46.231L129.78,46.231L130.046,46.231L130.179,46.231L130.319,46.231L130.446,46.231L130.576,46.231L130.841,46.231L130.973,46.231L131.114,48.538L131.239,48.538L131.371,48.538L131.637,48.538L131.769,48.538L131.907,48.538L132.034,48.538L132.165,48.538L132.43,48.538L132.563,48.538L132.702,48.538L132.829,48.538L132.96,48.538L133.226,48.538L133.359,48.538L133.499,48.538L133.624,48.538L133.755,48.538L134.02,48.538L134.154,48.538L134.293,48.538L134.419,48.538L134.55,48.538L134.816,48.538L134.949,48.538L135.089,48.538L135.214,48.538L135.345,48.538L135.61,48.538L135.743,48.538L135.883,48.538L136.011,48.538L136.14,48.538L136.406,48.538L136.538,48.538L136.678,48.538L136.803,48.538L136.935,48.538L137.2,48.538L137.332,48.538L137.473,48.538L137.598,48.538L137.729,48.538L137.995,48.538L138.127,48.538L138.266,48.538L138.392,48.538L138.524,48.538L138.79,48.538L138.923,48.538L139.063,48.538L139.188,48.538L139.319,48.538L139.585,48.538L139.718,48.538L139.858,48.538L140.115,48.538L140.381,48.538L140.513,48.538L140.653,48.538L140.779,48.538L140.909,48.538L141.176,48.538L141.308,48.538L141.448,48.538L141.574,48.538L141.704,48.538L141.97,48.538L142.103,48.538L142.243,48.538L142.368,48.538L142.5,48.538L142.765,48.538L142.897,48.538L143.036,48.538L143.163,48.538L143.294,48.538L143.559,48.538L143.692,48.538L143.831,48.538L143.958,48.538L144.089,48.538L144.355,48.538L144.488,48.538L144.628,48.538L144.754,48.538L144.884,48.538L145.15,48.538L145.282,48.538L145.422,48.538L145.548,48.538L145.679,48.538L145.944,48.538L146.077,48.538L146.217,48.538L146.344,48.538L146.473,48.538L146.74,48.538L146.872,48.538L147.012,48.538L147.137,48.538L147.269,48.538L147.535,48.538L147.667,48.538L147.806,48.538L147.932,48.538L148.063,48.538L148.329,48.538L148.461,48.538L148.6,48.538L148.727,48.538L148.859,48.538L149.123,48.538L149.256,48.538L149.395,48.538L149.521,48.538L149.654,48.538L149.92,48.538L150.052,48.538L150.191,48.538L150.318,48.538L150.448,48.538L150.714,48.538L150.847,48.538L150.988,48.538L151.113,48.538L151.243,48.538L151.509,48.538L151.642,48.538L151.782,48.538L151.908,48.538L152.038,48.538L152.304,48.538L152.437,48.538L152.577,48.538L152.702,48.538L152.833,48.538L153.099,48.538L153.232,48.538L153.372,48.538L153.497,48.538L153.628,48.538L153.893,48.538L154.025,48.538L154.165,48.538L154.291,48.538L154.423,48.538L154.689,48.538L154.822,48.538L154.969,48.538L155.093,48.538L155.218,48.538L155.484,48.538L155.616,48.538L155.757,48.538L155.883,48.538L156.013,48.538L156.279,48.538L156.412,48.538L156.549,48.538L156.678,48.538L156.807,48.538L157.073,48.538L157.206,48.538L157.346,48.538L157.473,48.538L157.602,48.538L157.869,48.538L158.001,48.538L158.142,48.538L158.267,48.538L158.397,48.538L158.664,48.538L158.796,48.538L158.936,48.538L159.062,48.538L159.193,48.538L159.458,48.538L159.59,48.538L159.729,48.538L159.856,48.538L159.988,48.538L160.253,48.538L160.385,48.538L160.525,48.538L160.652,48.538L160.782,48.538L161.048,48.538L161.182,48.538L161.321,48.538L161.447,48.538L161.577,48.538L161.843,48.538L161.976,48.538L162.116,48.538L162.242,48.538L162.372,48.538L162.637,27L162.771,27L162.911,27L163.037,27L163.167,27L163.434,27L163.566,27L163.706,27L163.832,27L163.962,27L164.228,27L164.36,27L164.5,27L164.627,27L164.757,27L165.022,27L165.155,27L165.295,27L165.42,27L165.552,27L165.817,27L165.949,27L166.089,27L166.216,27L166.346,27L166.612,27L166.745,27L166.886,27L167.011,27L167.142,27L167.407,27L167.54,27L167.681,27L167.806,27L167.936,27L168.201,27L168.334,27L168.476,27L168.601,27L168.731,27L168.997,27L169.13,27L169.27,27L169.396,27L169.527,27L169.793,27L169.925,27L170.065,27L170.191,27L170.321,27L170.587,27L170.719,27L170.858,27L170.985,27L171.116,27L171.383,27L171.514,27L171.654,27L171.779,27L171.912,27L172.177,27L172.31,27L172.451,27L172.575,27L172.706,27L172.973,27L173.105,27L173.245,27L173.37,27L173.501,27L173.767,27L173.9,27L174.041,27L174.166,27L174.296,27L174.562,27L174.695,27L174.835,27L174.961,27L175.091,27L175.357,27L175.49,27L175.63,27L175.755,27L175.886,27L176.153,27L176.284,27L176.424,27L176.551,27L176.68,27L176.946,27L177.079,27L177.219,27L177.344,27L177.476,27L177.742,27L177.875,27L178.016,27L178.14,27L178.271,27L178.536,27L178.669,27L178.81,27L178.936,27L179.065,27L179.331,27L179.465,27L179.605,27L179.731,27L179.86,27L180.126,27L180.259,27L180.399,27L180.525,27L180.655,27L180.921,27L181.054,27L181.194,27L181.32,27L181.45,27L181.716,27L181.848,27L181.987,27L182.115,27L182.246,27L182.511,27L182.643,27L182.783,27L182.909,27L183.039,27L183.306,27L183.439,27L183.579,27L183.704,27L183.835,27L184.102,27L184.234,27L184.374,27L184.499,27L184.63,27L184.896,27L185.029,27L185.166,27L185.295,27L185.425,27L185.691,27L185.824,27L185.964,27L186.091,27L186.219,27L186.486,27L186.619,27L186.759,27L186.884,27L187.014,27L187.281,27L187.412,27L187.553,27L187.678,27L187.809,27L188.076,27L188.208,27L188.347,27L188.473,27L188.605,27L188.872,27L189.004,27L189.144,27L189.269,27L189.4,27L189.666,27L189.799,27L189.939,27L190.064,27L190.194,27L190.461,27L190.594,27L190.734,27L190.86,27L190.989,27L191.256,27L191.389,27L191.529,27L191.654,27L191.784,27L192.051,27L192.184,27L192.324,27L192.449,27L192.579,27L192.846,27L192.978,27L193.118,27L193.244,27L193.374,27L193.641,27L193.773,27L193.914,27L194.039,27L194.169,27L194.436,27L194.569,27L194.71,27L194.835,27L194.964,27L195.23,27L195.363,27L195.504,27L195.629,27L195.759,27L196.025,27L196.158,27L196.299,27L196.424,27L196.555,27L196.821,27L196.953,27L197.094,27L197.219,27L197.349,27L197.615,27L197.748,27L197.888,27L198.015,27L198.143,27L198.41,27L198.542,27L198.682,27L198.808,27L198.938,27L199.204,27L199.337,27L199.477,27L199.603,27L199.734,27L200,27" stroke="#4c78a8" stroke-width="2"/></g></g><path class="foreground" aria-hidden="true" d="" display="none"/></g><g transform="translate(0,0)"><path class="background" aria-hidden="true" d="M0,0h200v200h-200Z"/><g><g class="mark-line role-mark marks" role="graphics-object" aria-roledescription="line mark container"><path aria-label="Time: Jan 01, 2024; Price: 2499; identifier: altex-LG-F2WR508SBM" role="graphics-symbol" aria-roledescription="line mark" d="M0,7.769L0.083,7.769L0.209,7.769L0.474,7.769L0.607,7.769L0.746,7.769L0.873,7.769L1.004,7.769L1.269,7.769L1.402,7.769L1.541,7.769L1.668,7.769L1.799,7.769L2.064,7.769L2.197,7.769L2.336,7.769L2.463,7.769L2.594,7.769L2.859,27L2.992,27L3.131,27L3.258,27L3.389,27L3.654,27L3.786,27L3.925,27L4.052,27L4.184,27L4.449,27L4.581,27L4.72,27L4.847,27L4.979,27L5.244,27L5.377,27L5.516,27L5.643,27L5.773,27L6.039,27L6.172,27L6.313,27L6.438,27L6.568,27L6.834,27L6.967,27L7.106,27L7.233,27L7.363,27L7.629,27L7.761,27L7.901,27L8.028,27L8.158,27L8.424,27L8.556,27L8.696,27L8.823,27L8.953,27L9.218,38.538L9.351,38.538L9.489,38.538L9.617,38.538L9.748,38.538L10.014,38.538L10.145,38.538L10.284,38.538L10.411,38.538L10.543,38.538L10.809,38.538L10.941,38.538L11.081,38.538L11.208,38.538L11.338,38.538L11.603,38.538L11.736,38.538L11.876,38.538L12.003,38.538L12.133,38.538L12.398,38.538L12.531,38.538L12.671,38.538L12.798,38.538L12.928,38.538L13.193,38.538L13.326,38.538L13.466,38.538L13.592,38.538L13.723,38.538L13.988,38.538L14.121,38.538L14.261,38.538L14.388,38.538L14.517,38.538L14.783,38.538L14.915,38.538L15.054,38.538L15.182,38.538L15.313,38.538L15.578,38.538L15.71,38.538L15.849,38.538L15.976,38.538L16.107,38.538L16.374,38.538L16.506,38.538L16.646,38.538L16.772,38.538L16.902,38.538L17.168,38.538L17.301,38.538L17.441,38.538L17.568,38.538L17.697,38.538L17.963,38.538L18.096,38.538L18.236,38.538L18.362,38.538L18.492,38.538L18.758,38.538L18.89,38.538L19.031,38.538L19.158,38.538L19.287,38.538L19.552,38.538L19.685,38.538L19.823,38.538L19.95,38.538L20.082,38.538L20.347,38.538L20.48,38.538L20.616,38.538L20.744,38.538L20.877,38.538L21.142,38.538L21.274,38.538L21.411,38.538L21.539,38.538L21.672,38.538L21.937,38.538L22.07,38.538L22.207,38.538L22.334,38.538L22.467,38.538L22.731,38.538L22.864,38.538L23.002,38.538L23.131,38.538L23.261,38.538L23.526,38.538L23.659,38.538L23.797,38.538L23.924,38.538L24.056,38.538L24.321,27L24.454,27L24.592,27L24.719,27L24.851,27L25.117,27L25.249,27L25.387,27L25.514,27L25.646,27L25.911,27L26.044,27L26.18,27L26.309,27L26.442,27L26.707,27L26.839,27L26.975,27L27.104,27L27.236,27L27.501,27L27.634,27L27.772,27L27.899,27L28.031,27L28.296,27L28.429,27L28.567,27L28.694,27L28.826,27L29.091,27L29.224,27L29.361,27L29.489,27L29.621,27L29.886,27L30.019,27L30.156,27L30.284,27L30.416,27L30.681,27L30.814,27L30.951,27L31.079,27L31.211,27L31.476,27L31.608,27L31.745,27L31.873,27L32.006,27L32.271,27L32.403,27L32.54,27L32.668,27L32.801,27L33.066,27L33.198,27L33.337,27L33.463,27L33.595,27L33.86,27L33.993,27L34.131,27L34.26,27L34.39,27L34.655,27L34.788,27L34.926,27L35.053,27L35.185,27L35.583,27L35.721,27L35.848,27L35.98,27L36.245,27L36.378,27L36.516,27L36.643,27L36.775,27L37.04,27L37.172,27L37.309,27L37.438,27L37.57,27L37.835,27L37.968,27L38.104,27L38.233,27L38.365,27L38.63,27L38.763,27L38.901,27L39.029,27L39.16,27L39.425,27L39.557,27L39.695,27L39.823,27L39.955,27L40.22,27L40.352,27L40.49,27L40.618,27L40.75,27L41.015,27L41.147,27L41.285,27L41.413,27L41.545,27L41.81,27L41.942,27L42.079,27L42.207,27L42.34,27L42.605,27L42.737,27L42.873,27L43.002,27L43.134,27L43.399,27L43.532,27L43.668,27L43.798,27L43.929,27L44.194,27L44.327,27L44.465,27L44.592,27L44.724,27L44.989,27L45.122,27L45.259,27L45.387,27L45.519,27L45.784,27L45.917,27L46.054,27L46.182,27L46.314,27L46.579,27L46.711,27L46.849,27L46.976,27L47.109,27L47.374,27L47.507,27L47.644,27L47.772,27L47.904,27L48.169,27L48.302,27L48.439,27L48.566,27L48.699,27L48.964,27L49.096,27L49.233,27L49.361,27L49.494,27L49.771,27L49.952,27L50.031,27L50.157,27L50.289,27L50.554,27L50.686,27L50.825,27L50.951,27L51.084,27L51.348,27L51.482,27L51.619,27L51.747,27L51.878,27L52.143,27L52.276,27L52.414,38.538L52.541,38.538L52.674,38.538L52.938,38.538L53.073,38.538L53.209,38.538L53.336,38.538L53.468,38.538L53.734,38.538L53.866,38.538L54.002,38.538L54.131,38.538L54.263,38.538L54.528,38.538L54.662,38.538L54.797,38.538L54.926,38.538L55.058,38.538L55.324,38.538L55.456,38.538L55.594,38.538L55.722,38.538L55.853,38.538L56.118,38.538L56.251,38.538L56.389,38.538L56.517,38.538L56.648,38.538L56.913,38.538L57.046,38.538L57.184,38.538L57.311,38.538L57.443,38.538L57.708,38.538L57.841,38.538L57.979,38.538L58.106,38.538L58.238,38.538L58.503,38.538L58.636,38.538L58.773,38.538L58.901,38.538L59.033,38.538L59.298,38.538L59.431,38.538L59.568,38.538L59.695,38.538L59.828,38.538L60.093,38.538L60.226,38.538L60.362,38.538L60.49,38.538L60.623,38.538L60.887,38.538L61.02,38.538L61.159,38.538L61.286,38.538L61.418,38.538L61.683,38.538L61.815,38.538L61.953,38.538L62.082,38.538L62.212,38.538L62.477,38.538L62.61,38.538L62.748,38.538L62.877,38.538L63.008,38.538L63.272,38.538L63.405,38.538L63.543,38.538L63.672,38.538L63.802,38.538L64.067,38.538L64.2,38.538L64.338,38.538L64.465,38.538L64.597,38.538L64.862,38.538L64.995,38.538L65.132,38.538L65.26,38.538L65.392,38.538L65.657,38.538L65.79,38.538L65.928,38.538L66.054,38.538L66.187,38.538L66.452,38.538L66.585,38.538L66.723,38.538L66.85,38.538L66.982,38.538L67.247,38.538L67.38,38.538L67.518,38.538L67.646,38.538L67.777,38.538L68.043,38.538L68.175,38.538L68.313,38.538L68.441,38.538L68.572,38.538L68.837,38.538L68.969,38.538L69.108,38.538L69.235,38.538L69.367,38.538L69.632,38.538L69.764,38.538L69.903,38.538L70.03,38.538L70.162,38.538L70.426,38.538L70.559,38.538L70.696,38.538L70.824,38.538L70.957,38.538L71.222,38.538L71.355,38.538L71.491,38.538L71.62,38.538L71.751,38.538L72.016,38.538L72.15,38.538L72.288,38.538L72.416,38.538L72.546,38.538L72.812,38.538L72.944,38.538L73.083,38.538L73.21,38.538L73.341,38.538L73.606,38.538L73.739,38.538L73.877,38.538L74.005,38.538L74.136,38.538L74.402,38.538L74.534,38.538L74.672,38.538L74.799,38.538L74.931,38.538L75.197,38.538L75.466,38.538L75.594,38.538L75.727,38.538L75.991,38.538L76.124,38.538L76.26,38.538L76.389,38.538L76.521,38.538L76.786,38.538L76.918,38.538L77.056,38.538L77.183,38.538L77.316,38.538L77.581,38.538L77.713,38.538L77.852,38.538L77.98,38.538L78.111,38.538L78.376,38.538L78.508,38.538L78.647,38.538L78.774,38.538L78.906,38.538L79.171,38.538L79.304,38.538L79.442,38.538L79.57,38.538L79.701,38.538L79.966,38.538L80.099,38.538L80.237,38.538L80.496,38.538L80.761,38.538L80.894,38.538L81.031,38.538L81.158,38.538L81.291,38.538L81.555,38.538L81.688,38.538L81.823,38.538L81.953,38.538L82.085,38.538L82.362,38.538L82.566,38.538L82.691,38.538L82.948,38.538L83.147,38.538L83.278,38.538L83.414,38.538L83.543,38.538L83.675,38.538L83.94,38.538L84.073,38.538L84.211,38.538L84.338,38.538L84.47,38.538L84.735,38.538L84.867,38.538L85.006,38.538L85.134,38.538L85.265,38.538L85.663,38.538L85.801,38.538L85.928,38.538L86.06,38.538L86.325,38.538L86.458,38.538L86.596,38.538L86.724,38.538L86.855,38.538L87.12,38.538L87.252,38.538L87.39,38.538L87.518,38.538L87.65,38.538L87.915,38.538L88.048,38.538L88.185,38.538L88.312,38.538L88.445,38.538L88.71,38.538L88.843,38.538L88.981,38.538L89.108,38.538L89.24,38.538L89.505,38.538L89.637,38.538L89.776,38.538L89.903,38.538L90.035,38.538L90.299,38.538L90.433,38.538L90.575,38.538L90.698,38.538L90.83,38.538L91.094,38.538L91.228,38.538L91.362,38.538L91.492,38.538L91.625,38.538L91.889,38.538L92.022,38.538L92.16,38.538L92.288,38.538L92.42,38.538L92.684,38.538L92.817,38.538L92.954,38.538L93.082,38.538L93.214,38.538L93.479,38.538L93.612,38.538L93.75,38.538L93.877,38.538L94.009,38.538L94.274,38.538L94.408,38.538L94.546,38.538L94.672,38.538L94.804,38.538L95.069,38.538L95.202,38.538L95.341,38.538L95.468,38.538L95.599,38.538L95.864,38.538L95.999,38.538L96.136,38.538L96.262,38.538L96.394,38.538L96.659,38.538L96.791,38.538L96.931,38.538L97.057,38.538L97.189,38.538L97.454,38.538L97.586,38.538L97.725,38.538L97.852,38.538L97.984,38.538L98.249,38.538L98.381,38.538L98.519,38.538L98.646,38.538L98.779,38.538L99.044,38.538L99.177,38.538L99.314,38.538L99.441,38.538L99.573,38.538L99.839,38.538L99.972,38.538L100.111,38.538L100.238,38.538L100.368,38.538L100.633,38.538L100.766,38.538L100.905,30.846L101.032,30.846L101.164,30.846L101.428,30.846L101.561,30.846L101.702,30.846L101.828,30.846L101.958,30.846L102.224,30.846L102.357,30.846L102.495,30.846L102.624,30.846L102.754,30.846L103.018,30.846L103.151,30.846L103.291,30.846L103.417,30.846L103.548,30.846L103.813,30.846L103.946,30.846L104.084,30.846L104.21,30.846L104.343,30.846L104.608,30.846L104.74,30.846L104.879,30.846L105.006,30.846L105.138,30.846L105.403,30.846L105.536,30.846L105.676,30.846L105.802,30.846L105.933,30.846L106.198,30.846L106.331,30.846L106.471,30.846L106.597,30.846L106.728,30.846L106.993,30.846L107.126,30.846L107.266,30.846L107.392,30.846L107.523,30.846L107.788,30.846L107.921,30.846L108.06,30.846L108.186,30.846L108.317,30.846L108.583,30.846L108.715,30.846L108.855,30.846L108.981,30.846L109.112,30.846L109.377,30.846L109.51,30.846L109.649,30.846L109.775,30.846L109.907,30.846L110.173,30.846L110.305,30.846L110.444,30.846L110.571,30.846L110.703,30.846L110.969,30.846L111.1,30.846L111.24,30.846L111.366,30.846L111.498,30.846L111.762,30.846L111.895,30.846L112.035,30.846L112.161,30.846L112.293,30.846L112.558,30.846L112.691,30.846L112.83,38.538L112.957,38.538L113.087,38.538L113.352,38.538L113.485,38.538L113.624,38.538L113.751,38.538L113.882,38.538L114.148,38.538L114.28,38.538L114.42,38.538L114.545,38.538L114.677,38.538L114.943,38.538L115.075,38.538L115.213,38.538L115.34,38.538L115.472,38.538L115.738,38.538L115.869,38.538L116.008,38.538L116.135,38.538L116.268,38.538L116.532,38.538L116.665,38.538L116.805,38.538L116.931,38.538L117.062,38.538L117.329,38.538L117.46,38.538L117.599,38.538L117.725,38.538L117.856,38.538L118.123,38.538L118.255,38.538L118.394,38.538L118.521,38.538L118.651,38.538L118.918,38.538L119.05,38.538L119.189,38.538L119.315,38.538L119.446,38.538L119.713,30.846L119.845,30.846L119.984,30.846L120.11,30.846L120.241,30.846L120.506,30.846L120.639,30.846L120.778,30.846L120.905,30.846L121.036,30.846L121.302,30.846L121.434,30.846L121.572,30.846L121.699,30.846L121.831,30.846L122.097,30.846L122.23,30.846L122.37,30.846L122.495,30.846L122.627,30.846L122.891,30.846L123.025,30.846L123.164,30.846L123.291,30.846L123.421,30.846L123.687,30.846L123.819,30.846L123.959,30.846L124.085,30.846L124.216,30.846L124.481,30.846L124.614,30.846L124.754,30.846L124.88,30.846L125.011,30.846L125.277,30.846L125.41,30.846L125.55,30.846L125.676,30.846L125.806,30.846L126.071,30.846L126.203,30.846L126.342,30.846L126.47,30.846L126.601,30.846L126.866,30.846L126.998,30.846L127.138,30.846L127.264,30.846L127.396,30.846L127.662,30.846L127.795,30.846L127.934,30.846L128.06,30.846L128.19,30.846L128.457,30.846L128.589,30.846L128.729,30.846L128.855,30.846L128.986,30.846L129.251,30.846L129.384,34.692L129.524,34.692L129.65,34.692L129.78,34.692L130.046,34.692L130.179,34.692L130.319,34.692L130.446,34.692L130.576,34.692L130.841,34.692L130.974,34.692L131.114,40.077L131.239,40.077L131.371,40.077L131.637,40.077L131.769,40.077L131.907,40.077L132.034,40.077L132.165,40.077L132.43,40.077L132.563,40.077L132.702,40.077L132.829,40.077L132.96,40.077L133.227,40.077L133.359,40.077L133.499,40.077L133.624,40.077L133.755,40.077L134.02,40.077L134.154,40.077L134.293,40.077L134.419,40.077L134.55,40.077L134.816,40.077L134.949,40.077L135.089,40.077L135.214,40.077L135.345,40.077L135.61,40.077L135.743,40.077L135.883,40.077L136.011,40.077L136.14,40.077L136.406,40.077L136.538,40.077L136.678,40.077L136.804,40.077L136.935,40.077L137.2,40.077L137.332,40.077L137.473,40.077L137.598,40.077L137.729,40.077L137.995,40.077L138.127,40.077L138.266,40.077L138.392,40.077L138.524,40.077L138.79,40.077L138.923,40.077L139.063,40.077L139.189,40.077L139.319,40.077L139.585,40.077L139.718,40.077L139.858,40.077L140.115,40.077L140.381,40.077L140.513,40.077L140.653,40.077L140.779,40.077L140.909,40.077L141.176,40.077L141.308,40.077L141.448,40.077L141.574,40.077L141.704,40.077L141.97,40.077L142.103,40.077L142.243,40.077L142.368,40.077L142.5,40.077L142.765,40.077L142.897,40.077L143.036,40.077L143.163,40.077L143.294,40.077L143.559,40.077L143.692,40.077L143.831,40.077L143.958,40.077L144.089,40.077L144.355,40.077L144.488,40.077L144.628,40.077L144.754,40.077L144.884,40.077L145.15,40.077L145.282,40.077L145.422,40.077L145.548,40.077L145.679,40.077L145.944,40.077L146.077,40.077L146.217,40.077L146.344,40.077L146.473,40.077L146.74,40.077L146.872,40.077L147.012,40.077L147.137,40.077L147.269,40.077L147.535,40.077L147.667,40.077L147.806,40.077L147.933,40.077L148.063,40.077L148.329,40.077L148.461,40.077L148.6,40.077L148.727,40.077L148.859,40.077L149.123,40.077L149.256,40.077L149.395,40.077L149.521,40.077L149.654,40.077L149.92,40.077L150.052,40.077L150.191,40.077L150.318,40.077L150.448,40.077L150.714,40.077L150.847,40.077L150.988,40.077L151.113,40.077L151.243,40.077L151.509,40.077L151.642,40.077L151.782,40.077L151.908,40.077L152.038,40.077L152.304,40.077L152.437,40.077L152.577,40.077L152.702,40.077L152.833,40.077L153.099,40.077L153.232,40.077L153.372,40.077L153.497,40.077L153.628,40.077L153.893,40.077L154.025,40.077L154.165,40.077L154.291,40.077L154.423,40.077L154.689,40.077L154.822,40.077L154.969,40.077L155.093,40.077L155.218,40.077L155.484,40.077L155.616,40.077L155.757,40.077L155.883,40.077L156.013,40.077L156.279,40.077L156.412,40.077L156.549,40.077L156.678,40.077L156.807,40.077L157.073,40.077L157.206,40.077L157.347,40.077L157.473,40.077L157.602,40.077L157.869,40.077L158.001,40.077L158.142,40.077L158.267,40.077L158.397,40.077L158.664,40.077L158.796,40.077L158.936,40.077L159.062,40.077L159.193,40.077L159.458,40.077L159.59,40.077L159.73,40.077L159.856,40.077L159.988,40.077L160.253,40.077L160.385,40.077L160.525,40.077L160.652,40.077L160.782,40.077L161.048,40.077L161.182,40.077L161.322,40.077L161.447,40.077L161.577,40.077L161.843,40.077L161.976,40.077L162.116,40.077L162.242,40.077L162.372,40.077L162.637,40.077L162.771,40.077L162.911,40.077L163.037,40.077L163.167,40.077L163.434,40.077L163.566,40.077L163.706,40.077L163.832,40.077L163.962,40.077L164.228,40.077L164.36,40.077L164.5,40.077L164.627,40.077L164.757,40.077L165.023,40.077L165.155,40.077L165.295,40.077L165.42,40.077L165.552,40.077L165.817,40.077L165.949,40.077L166.089,40.077L166.216,40.077L166.346,40.077L166.612,40.077L166.745,40.077L166.886,40.077L167.011,40.077L167.142,40.077L167.407,40.077L167.54,40.077L167.681,40.077L167.806,40.077L167.936,40.077L168.201,40.077L168.334,40.077L168.476,40.077L168.601,40.077L168.731,40.077L168.997,40.077L169.13,40.077L169.271,40.077L169.396,40.077L169.527,40.077L169.793,40.077L169.925,40.077L170.065,40.077L170.191,40.077L170.321,40.077L170.587,40.077L170.719,40.077L170.858,40.077L170.985,40.077L171.116,40.077L171.383,40.077L171.514,40.077L171.654,40.077L171.779,40.077L171.912,40.077L172.177,40.077L172.31,40.077L172.451,40.077L172.575,40.077L172.706,40.077L172.973,40.077L173.105,40.077L173.245,40.077L173.37,40.077L173.501,40.077L173.767,40.077L173.9,40.077L174.041,40.077L174.166,40.077L174.296,40.077L174.562,40.077L174.695,40.077L174.835,40.077L174.961,40.077L175.091,40.077L175.357,40.077L175.49,40.077L175.63,40.077L175.755,40.077L175.886,40.077L176.153,40.077L176.284,40.077L176.424,40.077L176.551,40.077L176.68,40.077L176.947,40.077L177.079,40.077L177.219,40.077L177.344,40.077L177.476,40.077L177.742,40.077L177.875,40.077L178.016,40.077L178.141,40.077L178.271,40.077L178.536,40.077L178.669,40.077L178.81,40.077L178.936,40.077L179.065,40.077L179.331,40.077L179.465,40.077L179.605,40.077L179.731,40.077L179.86,40.077L180.126,40.077L180.259,40.077L180.399,40.077L180.525,40.077L180.655,40.077L180.921,40.077L181.054,40.077L181.194,40.077L181.32,40.077L181.45,40.077L181.716,40.077L181.848,40.077L181.987,40.077L182.115,40.077L182.246,40.077L182.511,40.077L182.643,40.077L182.783,40.077L182.909,40.077L183.04,40.077L183.306,40.077L183.439,40.077L183.579,40.077L183.704,40.077L183.835,40.077L184.102,40.077L184.234,40.077L184.374,40.077L184.499,40.077L184.63,40.077L184.896,40.077L185.029,40.077L185.167,40.077L185.295,40.077L185.425,40.077L185.691,40.077L185.824,40.077L185.964,40.077L186.091,40.077L186.22,40.077L186.486,40.077L186.619,40.077L186.759,40.077L186.884,40.077L187.014,40.077L187.281,40.077L187.412,40.077L187.553,40.077L187.678,40.077L187.809,40.077L188.076,40.077L188.208,40.077L188.347,40.077L188.473,40.077L188.605,40.077L188.872,40.077L189.004,40.077L189.144,40.077L189.269,40.077L189.4,40.077L189.666,40.077L189.799,40.077L189.939,40.077L190.064,40.077L190.194,40.077L190.461,40.077L190.594,40.077L190.734,40.077L190.86,40.077L190.989,40.077L191.256,40.077L191.389,40.077L191.529,40.077L191.654,40.077L191.784,40.077L192.051,40.077L192.184,40.077L192.324,40.077L192.449,40.077L192.579,40.077L192.846,40.077L192.978,40.077L193.118,40.077L193.244,40.077L193.374,40.077L193.641,40.077L193.773,40.077L193.914,40.077L194.039,40.077L194.169,40.077L194.436,40.077L194.569,40.077L194.71,40.077L194.835,40.077L194.964,40.077L195.23,40.077L195.364,40.077L195.504,40.077L195.629,40.077L195.759,40.077L196.026,40.077L196.158,40.077L196.3,40.077L196.424,40.077L196.555,40.077L196.821,40.077L196.953,40.077L197.094,40.077L197.219,40.077L197.349,40.077L197.615,40.077L197.748,40.077L197.888,40.077L198.015,40.077L198.144,40.077L198.41,40.077L198.542,40.077L198.682,40.077L198.808,40.077L198.938,40.077L199.204,40.077L199.337,40.077L199.477,40.077L199.603,40.077L199.734,40.077L200,40.077" stroke="#f58518" stroke-width="2"/></g></g><path class="foreground" aria-hidden="true" d="" display="none"/></g></g><g class="mark-group role-legend" role="graphics-symbol" aria-roledescription="legend" aria-label="Symbol legend titled 'identifier' for stroke color with 2 values: altex-LG-F2WR508SBW, altex-LG-F2WR508SBM"><g transform="translate(220,0)"><path class="background" aria-hidden="true" d="M0,0h168v40h-168Z" pointer-events="none"/><g><g class="mark-group role-legend-entry"><g transform="translate(0,16)"><path class="background" aria-hidden="true" d="M0,0h0v0h0Z" pointer-events="none"/><g><g class="mark-group role-scope" role="graphics-object" aria-roledescription="group mark container"><g transform="translate(0,0)"><path class="background" aria-hidden="true" d="M0,0h168v11h-168Z" pointer-events="none" opacity="1"/><g><g class="mark-symbol role-legend-symbol" pointer-events="none"><path transform="translate(6,6)" d="M-5,0L5,0" stroke="#4c78a8" stroke-width="1.5" opacity="1"/></g><g class="mark-text role-legend-label" pointer-events="none"><text text-anchor="start" transform="translate(16,9)" font-family="Liberation Mono" font-size="10px" fill="#000" opacity="1">altex-LG-F2WR508SBW</text></g></g><path class="foreground" aria-hidden="true" d="" pointer-events="none" display="none"/></g><g transform="translate(0,13)"><path class="background" aria-hidden="true" d="M0,0h168v11h-168Z" pointer-events="none" opacity="1"/><g><g class="mark-symbol role-legend-symbol" pointer-events="none"><path transform="translate(6,6)" d="M-5,0L5,0" stroke="#f58518" stroke-width="1.5" opacity="1"/></g><g class="mark-text role-legend-label" pointer-events="none"><text text-anchor="start" transform="translate(16,9)" font-family="Liberation Mono" font-size="10px" fill="#000" opacity="1">altex-LG-F2WR508SBM</text></g></g><path class="foreground" aria-hidden="true" d="" pointer-events="none" display="none"/></g></g></g><path class="foreground" aria-hidden="true" d="" pointer-events="none" display="none"/></g></g><g class="mark-text role-legend-title" pointer-events="none"><text text-anchor="start" transform="translate(0,9)" font-family="Liberation Mono" font-size="11px" font-weight="bold" fill="#000" opacity="1">identifier</text></g></g><path class="foreground" aria-hidden="true" d="" pointer-events="none" display="none"/></g></g></g><path class="foreground" aria-hidden="true" d="" display="none"/></g></g></g></svg>