<svg xmlns="http://www.w3.org/2000/svg" xmlns:xlink="http://www.w3.org/1999/xlink" version="1.1" class="marks" width="460" height="242" viewBox="0 0 460 242"><rect width="460" height="242" fill="white"/><g fill="none" stroke-miterlimit="10" transform="translate(67,5)"><g class="mark-group role-frame root" role="graphics-object" aria-roledescription="group mark container"><g transform="translate(0,0)"><path class="background" aria-hidden="true" d="M0.5,0.5h200v200h-200Z" stroke="#ddd"/><g><g class="mark-group role-axis" aria-hidden="true"><g transform="translate(0.5,200.5)"><path class="background" aria-hidden="true" d="M0,0h0v0h0Z" pointer-events="none"/><g><g class="mark-rule role-axis-grid" pointer-events="none"><line transform="translate(48,-200)" x2="0" y2="200" stroke="#ddd" stroke-width="1" opacity="1"/><line transform="translate(96,-200)" x2="0" y2="200" stroke="#ddd" stroke-width="1" opacity="1"/><line transform="translate(144,-200)" x2="0" y2="200" stroke="#ddd" stroke-width="1" opacity="1"/><line transform="translate(193,-200)" x2="0" y2="200" stroke="#ddd" stroke-width="1" opacity="1"/></g></g><path class="foreground" aria-hidden="true" d="" pointer-events="none" display="none"/></g></g><g class="mark-group role-axis" aria-hidden="true"><g transform="translate(0.5,0.5)"><path class="background" aria-hidden="true" d="M0,0h0v0h0Z" pointer-events="none"/><g><g class="mark-rule role-axis-grid" pointer-events="none"><line transform="translate(0,200)" x2="200" y2="0" stroke="#ddd" stroke-width="1" opacity="1"/><line transform="translate(0,162)" x2="200" y2="0" stroke="#ddd" stroke-width="1" opacity="1"/><line transform="translate(0,123)" x2="200" y2="0" stroke="#ddd" stroke-width="1" opacity="1"/><line transform="translate(0,85)" x2="200" y2="0" stroke="#ddd" stroke-width="1" opacity="1"/><line transform="translate(0,46)" x2="200" y2="0" stroke="#ddd" stroke-width="1" opacity="1"/><line transform="translate(0,8)" x2="200" y2="0" stroke="#ddd" stroke-width="1" opacity="1"/></g></g><path class="foreground" aria-hidden="true" d="" pointer-events="none" display="none"/></g></g><g class="mark-group role-axis" role="graphics-symbol" aria-roledescription="axis" aria-label="X-axis titled 'Time' for a time scale with values from Monday, 01 January 2024, 2:19:43 PM to Tuesday, 14 January 2025, 8:43:11 AM"><g transform="translate(0.5,200.5)"><path class="background" aria-hidden="true" d="M0,0h0v0h0Z" pointer-events="none"/><g><g class="mark-rule role-axis-tick" pointer-events="none"><line transform="translate(48,0)" x2="0" y2="5" stroke="#888" stroke-width="1" opacity="1"/><line transform="translate(96,0)" x2="0" y2="5" stroke="#888" stroke-width="1" opacity="1"/><line transform="translate(144,0)" x2="0" y2="5" stroke="#888" stroke-width="1" opacity="1"/><line transform="translate(193,0)" x2="0" y2="5" stroke="#888" stroke-width="1" opacity="1"/></g><g class="mark-text role-axis-label" pointer-events="none"><text text-anchor="middle" transform="translate(47.73548935322805,15)" font-family="Liberation Mono" font-size="10px" fill="#000" opacity="1">April</text><text text-anchor="middle" transform="translate(95.7862268441856,15)" font-family="Liberation Mono" font-size="10px" fill="#000" opacity="1">July</text><text text-anchor="middle" transform="translate(144.3649944174614,15)" font-family="Liberation Mono" font-size="10px" fill="#000" opacity="1">October</text><text text-anchor="middle" transform="translate(192.9437619907372,15)" font-family="Liberation Mono" font-size="10px" fill="#000" opacity="1">2025</text></g><g class="mark-rule role-axis-domain" pointer-events="none"><line transform="translate(0,0)" x2="200" y2="0" stroke="#888" stroke-width="1" opacity="1"/></g><g class="mark-text role-axis-title" pointer-events="none"><text text-anchor="middle" transform="translate(100,30)" font-family="Liberation Mono" font-size="11px" font-weight="bold" fill="#000" opacity="1">Time</text></g></g><path class="foreground" aria-hidden="true" d="" pointer-events="none" display="none"/></g></g><g class="mark-group role-axis" role="graphics-symbol" aria-roledescription="axis" aria-label="Y-axis titled 'Price' for a linear scale with values from 0 to 2,600"><g transform="translate(0.5,0.5)"><path class="background" aria-hidden="true" d="M0,0h0v0h0Z" pointer-events="none"/><g><g class="mark-rule role-axis-tick" pointer-events="none"><line transform="translate(0,200)" x2="-5" y2="0" stroke="#888" stroke-width="1" opacity="1"/><line transform="translate(0,162)" x2="-5" y2="0" stroke="#888" stroke-width="1" opacity="1"/><line transform="translate(0,123)" x2="-5" y2="0" stroke="#888" stroke-width="1" opacity="1"/><line transform="translate(0,85)" x2="-5" y2="0" stroke="#888" stroke-width="1" opacity="1"/><line transform="translate(0,46)" x2="-5" y2="0" stroke="#888" stroke-width="1" opacity="1"/><line transform="translate(0,8)" x2="-5" y2="0" stroke="#888" stroke-width="1" opacity="1"/></g><g class="mark-text role-axis-label" pointer-events="none"><text text-anchor="end" transform="translate(-7,203)" font-family="Liberation Mono" font-size="10px" fill="#000" opacity="1">0</text><text text-anchor="end" transform="translate(-7,164.53846153846155)" font-family="Liberation Mono" font-size="10px" fill="#000" opacity="1">500</text><text text-anchor="end" transform="translate(-7,126.07692307692308)" font-family="Liberation Mono" font-size="10px" fill="#000" opacity="1">1,000</text><text text-anchor="end" transform="translate(-7,87.61538461538463)" font-family="Liberation Mono" font-size="10px" fill="#000" opacity="1">1,500</text><text text-anchor="end" transform="translate(-7,49.153846153846146)" font-family="Liberation Mono" font-size="10px" fill="#000" opacity="1">2,000</text><text text-anchor="end" transform="translate(-7,10.692307692307686)" font-family="Liberation Mono" font-size="10px" fill="#000" opacity="1">2,500</text></g><g class="mark-rule role-axis-domain" pointer-events="none"><line transform="translate(0,200)" x2="0" y2="-200" stroke="#888" stroke-width="1" opacity="1"/></g><g class="mark-text role-axis-title" pointer-events="none"><text text-anchor="middle" transform="translate(-51,100) rotate(-90) translate(0,-2)" font-family="Liberation Mono" font-size="11px" font-weight="bold" fill="#000" opacity="1">Price</text></g></g><path class="foreground" aria-hidden="true" d="" pointer-events="none" display="none"/></g></g><g class="mark-group role-scope pathgroup" role="graphics-object" aria-roledescription="group mark container"><g transform="translate(0,0)"><path class="background" aria-hidden="true" d="M0,0h200v200h-200Z"/><g><g class="mark-line role-mark marks" role="graphics-object" aria-roledescription="line mark container"><path aria-label="Time: Jan 01, 2024; Price: 2399; identifier: altex-LG-F2WR508SBW" role="graphics-symbol" aria-roledescription="line mark" d="M0,15.462L0.055,15.462L0.139,15.462L0.315,15.462L0.403,15.462L0.496,15.462L0.58,15.462L0.667,15.462L0.843,15.462L0.931,15.462L1.024,15.462L1.108,15.462L1.195,15.462L1.371,15.462L1.459,15.462L1.552,15.462L1.636,15.462L1.723,15.462L1.899,34.692L1.987,34.692L2.08,34.692L2.164,34.692L2.251,34.692L2.427,34.692L2.515,34.692L2.607,34.692L2.692,34.692L2.779,34.692L2.956,34.692L3.043,34.692L3.135,34.692L3.22,34.692L3.307,34.692L3.483,34.692L3.572,34.692L3.664,34.692L3.749,34.692L3.835,34.692L4.012,34.692L4.1,34.692L4.193,34.692L4.277,34.692L4.363,34.692L4.54,34.692L4.628,34.692L4.72,34.692L4.804,34.692L4.891,34.692L5.068,34.692L5.156,34.692L5.249,34.692L5.333,34.692L5.419,34.692L5.596,34.692L5.684,34.692L5.776,34.692L5.861,34.692L5.947,34.692L6.123,46.231L6.211,46.231L6.303,46.231L6.388,46.231L6.475,46.231L6.652,46.231L6.739,46.231L6.831,46.231L6.916,46.231L7.003,46.231L7.18,46.231L7.268,46.231L7.361,46.231L7.445,46.231L7.531,46.231L7.708,46.231L7.796,46.231L7.889,46.231L7.973,46.231L8.059,46.231L8.236,46.231L8.324,46.231L8.417,46.231L8.501,46.231L8.587,46.231L8.764,46.231L8.852,46.231L8.945,46.231L9.029,46.231L9.116,46.231L9.292,46.231L9.38,46.231L9.473,46.231L9.557,46.231L9.643,46.231L9.82,46.231L9.907,46.231L10,46.231L10.085,46.231L10.172,46.231L10.347,46.231L10.435,46.231L10.528,46.231L10.612,46.231L10.699,46.231L10.876,46.231L10.964,46.231L11.057,46.231L11.141,46.231L11.228,46.231L11.404,46.231L11.492,46.231L11.585,46.231L11.669,46.231L11.755,46.231L11.932,46.231L12.02,46.231L12.113,46.231L12.197,46.231L12.284,46.231L12.46,46.231L12.548,46.231L12.641,46.231L12.726,46.231L12.812,46.231L12.988,46.231L13.076,46.231L13.167,46.231L13.252,46.231L13.34,46.231L13.516,46.231L13.604,46.231L13.694,46.231L13.78,46.231L13.867,46.231L14.044,46.231L14.132,46.231L14.222,46.231L14.308,46.231L14.396,46.231L14.572,46.231L14.66,46.231L14.751,46.231L14.836,46.231L14.924,46.231L15.1,46.231L15.188,46.231L15.279,46.231L15.365,46.231L15.452,46.231L15.628,46.231L15.716,46.231L15.807,46.231L15.892,46.231L15.98,46.231L16.156,34.692L16.244,34.692L16.335,34.692L16.42,34.692L16.508,34.692L16.684,34.692L16.772,34.692L16.863,34.692L16.948,34.692L17.036,34.692L17.212,34.692L17.3,34.692L17.391,34.692L17.476,34.692L17.564,34.692L17.74,34.692L17.828,34.692L17.919,34.692L18.004,34.692L18.092,34.692L18.268,34.692L18.356,34.692L18.448,34.692L18.532,34.692L18.62,34.692L18.796,34.692L18.884,34.692L18.976,34.692L19.06,34.692L19.148,34.692L19.324,34.692L19.412,34.692L19.503,34.692L19.589,34.692L19.676,34.692L19.852,34.692L19.94,34.692L20.031,34.692L20.116,34.692L20.204,34.692L20.38,34.692L20.468,34.692L20.559,34.692L20.644,34.692L20.732,34.692L20.908,34.692L20.996,34.692L21.087,34.692L21.172,34.692L21.26,34.692L21.436,34.692L21.524,34.692L21.615,34.692L21.7,34.692L21.788,34.692L21.964,34.692L22.052,34.692L22.144,34.692L22.228,34.692L22.316,34.692L22.492,34.692L22.58,34.692L22.671,34.692L22.757,34.692L22.844,34.692L23.02,34.692L23.108,34.692L23.2,34.692L23.284,34.692L23.372,34.692L23.636,34.692L23.728,34.692L23.812,34.692L23.9,34.692L24.076,34.692L24.164,34.692L24.256,34.692L24.341,34.692L24.428,34.692L24.604,34.692L24.692,34.692L24.783,34.692L24.868,34.692L24.956,34.692L25.132,34.692L25.221,34.692L25.311,34.692L25.396,34.692L25.484,34.692L25.66,34.692L25.749,34.692L25.84,34.692L25.925,34.692L26.012,34.692L26.189,34.692L26.276,34.692L26.368,34.692L26.453,34.692L26.541,34.692L26.716,34.692L26.804,34.692L26.896,34.692L26.981,34.692L27.069,34.692L27.244,34.692L27.332,34.692L27.424,34.692L27.509,34.692L27.597,34.692L27.772,34.692L27.86,34.692L27.952,34.692L28.036,34.692L28.125,34.692L28.3,34.692L28.388,34.692L28.479,34.692L28.564,34.692L28.652,34.692L28.828,34.692L28.917,34.692L29.007,34.692L29.093,34.692L29.18,34.692L29.356,34.692L29.445,34.692L29.536,34.692L29.621,34.692L29.708,34.692L29.885,34.692L29.973,34.692L30.064,34.692L30.149,34.692L30.237,34.692L30.413,34.692L30.501,34.692L30.592,34.692L30.677,34.692L30.765,34.692L30.941,34.692L31.029,34.692L31.12,34.692L31.204,34.692L31.293,34.692L31.469,34.692L31.557,34.692L31.648,34.692L31.733,34.692L31.821,34.692L31.997,34.692L32.085,34.692L32.176,34.692L32.261,34.692L32.349,34.692L32.525,34.692L32.613,34.692L32.703,34.692L32.789,34.692L32.877,34.692L33.061,34.692L33.181,34.692L33.234,34.692L33.317,34.692L33.405,34.692L33.581,34.692L33.669,34.692L33.761,34.692L33.845,34.692L33.933,34.692L34.109,34.692L34.197,34.692L34.289,34.692L34.373,34.692L34.461,34.692L34.637,34.692L34.725,34.692L34.816,34.692L34.901,34.692L34.989,34.692L35.165,34.692L35.254,34.692L35.344,34.692L35.429,34.692L35.517,34.692L35.693,34.692L35.781,34.692L35.871,34.692L35.957,34.692L36.045,34.692L36.221,34.692L36.309,34.692L36.399,34.692L36.485,34.692L36.573,34.692L36.749,34.692L36.837,34.692L36.929,34.692L37.014,34.692L37.101,34.692L37.277,34.692L37.365,34.692L37.457,34.692L37.542,34.692L37.629,34.692L37.805,34.692L37.894,34.692L37.985,34.692L38.069,34.692L38.157,34.692L38.333,34.692L38.421,34.692L38.513,34.692L38.597,34.692L38.685,34.692L38.861,34.692L38.95,34.692L39.041,34.692L39.125,34.692L39.213,34.692L39.389,34.692L39.477,34.692L39.568,34.692L39.653,34.692L39.741,34.692L39.917,34.692L40.006,34.692L40.096,34.692L40.181,34.692L40.269,34.692L40.445,34.692L40.533,34.692L40.625,34.692L40.71,34.692L40.798,34.692L40.973,34.692L41.061,34.692L41.153,34.692L41.238,34.692L41.325,34.692L41.501,34.692L41.589,34.692L41.681,34.692L41.766,34.692L41.854,34.692L42.029,34.692L42.118,34.692L42.209,34.692L42.294,34.692L42.381,34.692L42.557,34.692L42.645,34.692L42.737,34.692L42.822,34.692L42.909,34.692L43.085,34.692L43.173,34.692L43.265,34.692L43.349,34.692L43.437,34.692L43.613,34.692L43.701,34.692L43.793,34.692L43.877,34.692L43.965,34.692L44.141,34.692L44.229,34.692L44.321,34.692L44.406,34.692L44.493,34.692L44.669,34.692L44.758,34.692L44.849,34.692L44.934,34.692L45.021,34.692L45.198,34.692L45.286,34.692L45.378,34.692L45.463,34.692L45.549,34.692L45.725,34.692L45.813,34.692L45.905,34.692L45.99,34.692L46.077,34.692L46.254,34.692L46.341,34.692L46.433,34.692L46.518,34.692L46.605,34.692L46.781,34.692L46.869,34.692L46.96,34.692L47.046,34.692L47.134,34.692L47.31,34.692L47.398,34.692L47.489,34.692L47.574,34.692L47.662,34.692L47.837,34.692L47.926,34.692L48.018,34.692L48.103,34.692L48.19,34.692L48.366,34.692L48.454,34.692L48.546,34.692L48.631,34.692L48.717,34.692L48.894,34.692L48.982,34.692L49.073,34.692L49.159,34.692L49.246,34.692L49.422,34.692L49.51,34.692L49.601,34.692L49.686,34.692L49.774,34.692L49.95,34.692L50.129,34.692L50.214,34.692L50.302,34.692L50.478,34.692L50.566,34.692L50.657,34.692L50.742,34.692L50.83,34.692L51.006,34.692L51.094,34.692L51.185,34.692L51.27,34.692L51.358,34.692L51.534,34.692L51.622,34.692L51.714,34.692L51.799,34.692L51.886,34.692L52.062,34.692L52.15,34.692L52.242,34.692L52.326,34.692L52.414,34.692L52.59,34.692L52.678,34.692L52.77,34.692L52.855,34.692L52.942,34.692L53.118,34.692L53.207,34.692L53.298,34.692L53.47,34.692L53.646,34.692L53.734,34.692L53.826,34.692L53.91,34.692L53.998,34.692L54.174,34.692L54.262,34.692L54.352,34.692L54.438,34.692L54.526,34.692L54.71,34.692L54.845,34.692L54.928,34.692L55.099,34.692L55.231,34.692L55.318,34.692L55.409,34.692L55.494,34.692L55.582,34.692L55.758,34.692L55.846,34.692L55.938,34.692L56.022,34.692L56.11,34.692L56.286,34.692L56.374,34.692L56.466,34.692L56.551,34.692L56.638,34.692L56.902,34.692L56.994,34.692L57.079,34.692L57.166,34.692L57.342,34.692L57.43,34.692L57.522,34.692L57.607,34.692L57.694,34.692L57.87,34.692L57.958,34.692L58.049,34.692L58.134,34.692L58.222,34.692L58.398,34.692L58.486,34.692L58.578,34.692L58.662,34.692L58.75,34.692L58.926,34.692L59.015,34.692L59.107,34.692L59.191,34.692L59.278,34.692L59.454,34.692L59.542,34.692L59.635,34.692L59.719,34.692L59.807,34.692L59.982,34.692L60.071,34.692L60.165,34.692L60.247,34.692L60.335,34.692L60.51,34.692L60.599,34.692L60.688,34.692L60.775,34.692L60.863,34.692L61.038,34.692L61.127,34.692L61.218,34.692L61.303,34.692L61.391,34.692L61.566,34.692L61.654,34.692L61.745,34.692L61.83,34.692L61.918,34.692L62.094,34.692L62.182,34.692L62.274,34.692L62.358,34.692L62.446,34.692L62.622,34.692L62.712,34.692L62.803,34.692L62.887,34.692L62.975,34.692L63.15,34.692L63.239,34.692L63.331,34.692L63.415,34.692L63.503,34.692L63.678,34.692L63.768,34.692L63.859,34.692L63.943,34.692L64.03,34.692L64.207,57.769L64.295,57.769L64.387,57.769L64.471,57.769L64.559,57.769L64.735,57.769L64.823,57.769L64.915,57.769L64.999,57.769L65.087,57.769L65.263,57.769L65.351,57.769L65.442,57.769L65.527,57.769L65.615,57.769L65.791,57.769L65.879,57.769L65.97,57.769L66.055,57.769L66.142,57.769L66.319,57.769L66.407,57.769L66.499,57.769L66.584,57.769L66.671,57.769L66.847,57.769L66.935,57.769L67.027,57.769L67.111,57.769L67.199,57.769L67.375,57.769L67.463,57.769L67.556,57.769L67.64,57.769L67.727,57.769L67.903,34.692L67.992,34.692L68.083,34.692L68.169,34.692L68.255,34.692L68.431,34.692L68.519,34.692L68.612,34.692L68.695,34.692L68.783,34.692L68.959,34.692L69.047,34.692L69.138,34.692L69.223,34.692L69.311,34.692L69.487,34.692L69.575,34.692L69.667,34.692L69.751,34.692L69.839,34.692L70.015,34.692L70.103,34.692L70.196,34.692L70.28,34.692L70.367,34.692L70.543,34.692L70.632,34.692L70.724,34.692L70.808,34.692L70.895,34.692L71.071,34.692L71.159,34.692L71.252,34.692L71.336,34.692L71.423,34.692L71.599,34.692L71.687,34.692L71.78,34.692L71.864,34.692L71.951,34.692L72.127,34.692L72.215,34.692L72.308,34.692L72.392,34.692L72.479,34.692L72.655,34.692L72.743,34.692L72.835,34.692L72.919,34.692L73.007,34.692L73.184,34.692L73.271,34.692L73.363,34.692L73.448,34.692L73.535,34.692L73.712,34.692L73.799,34.692L73.892,34.692L73.976,34.692L74.063,34.692L74.239,34.692L74.328,34.692L74.42,34.692L74.504,34.692L74.591,34.692L74.768,34.692L74.856,34.692L74.948,34.692L75.032,34.692L75.119,34.692L75.295,34.692L75.383,34.692L75.476,34.692L75.56,34.692L75.647,34.692L75.824,34.692L75.912,34.692L76.004,34.692L76.088,34.692L76.176,34.692L76.352,34.692L76.439,34.692L76.531,34.692L76.616,34.692L76.703,34.692L76.88,34.692L76.967,34.692L77.059,34.692L77.144,34.692L77.232,34.692L77.408,34.692L77.496,34.692L77.589,34.692L77.673,34.692L77.759,34.692L77.937,34.692L78.024,34.692L78.117,34.692L78.2,34.692L78.287,34.692L78.464,34.692L78.552,34.692L78.645,34.692L78.728,34.692L78.815,34.692L78.993,34.692L79.08,34.692L79.173,34.692L79.256,34.692L79.343,34.692L79.52,34.692L79.608,34.692L79.701,34.692L79.784,34.692L79.871,34.692L80.047,34.692L80.136,34.692L80.228,34.692L80.312,34.692L80.399,34.692L80.576,34.692L80.664,34.692L80.756,34.692L80.84,34.692L80.927,34.692L81.104,34.692L81.192,34.692L81.285,34.692L81.369,34.692L81.456,34.692L81.632,34.692L81.72,34.692L81.813,34.692L81.897,34.692L81.984,34.692L82.161,34.692L82.248,34.692L82.341,34.692L82.425,34.692L82.512,34.692L82.688,34.692L82.776,34.692L82.869,34.692L82.952,34.692L83.04,34.692L83.216,34.692L83.304,34.692L83.397,34.692L83.482,34.692L83.568,34.692L83.744,34.692L83.832,34.692L83.924,34.692L84.009,34.692L84.096,34.692L84.272,34.692L84.36,34.692L84.452,34.692L84.536,34.692L84.624,34.692L84.801,34.692L84.889,34.692L84.982,34.692L85.065,34.692L85.152,34.692L85.329,34.692L85.417,34.692L85.509,34.692L85.593,34.692L85.68,34.692L85.856,34.692L85.945,46.231L86.038,46.231L86.121,46.231L86.208,46.231L86.384,46.231L86.472,46.231L86.565,46.231L86.65,46.231L86.736,46.231L86.912,46.231L87,46.231L87.093,48.538L87.177,48.538L87.264,48.538L87.441,48.538L87.529,48.538L87.621,48.538L87.705,48.538L87.792,48.538L87.968,48.538L88.056,48.538L88.149,48.538L88.233,48.538L88.32,48.538L88.497,48.538L88.585,48.538L88.678,48.538L88.761,48.538L88.848,48.538L89.024,48.538L89.113,48.538L89.206,48.538L89.289,48.538L89.376,48.538L89.552,48.538L89.641,48.538L89.734,48.538L89.817,48.538L89.904,48.538L90.08,48.538L90.169,48.538L90.261,48.538L90.346,48.538L90.432,48.538L90.609,48.538L90.697,48.538L90.789,48.538L90.873,48.538L90.96,48.538L91.136,48.538L91.224,48.538L91.318,48.538L91.401,48.538L91.488,48.538L91.664,48.538L91.752,48.538L91.845,48.538L91.928,48.538L92.016,48.538L92.193,48.538L92.281,48.538L92.374,48.538L92.457,48.538L92.544,48.538L92.721,48.538L92.809,48.538L92.902,48.538L93.073,48.538L93.249,48.538L93.337,48.538L93.43,48.538L93.513,48.538L93.6,48.538L93.778,48.538L93.865,48.538L93.958,48.538L94.042,48.538L94.128,48.538L94.305,48.538L94.393,48.538L94.486,48.538L94.569,48.538L94.657,48.538L94.833,48.538L94.921,48.538L95.013,48.538L95.097,48.538L95.185,48.538L95.361,48.538L95.448,48.538L95.541,48.538L95.625,48.538L95.712,48.538L95.889,48.538L95.977,48.538L96.071,48.538L96.154,48.538L96.24,48.538L96.417,48.538L96.505,48.538L96.598,48.538L96.682,48.538L96.769,48.538L96.945,48.538L97.033,48.538L97.126,48.538L97.21,48.538L97.296,48.538L97.473,48.538L97.561,48.538L97.654,48.538L97.737,48.538L97.825,48.538L98.002,48.538L98.089,48.538L98.182,48.538L98.266,48.538L98.352,48.538L98.529,48.538L98.617,48.538L98.709,48.538L98.794,48.538L98.881,48.538L99.057,48.538L99.145,48.538L99.237,48.538L99.321,48.538L99.409,48.538L99.585,48.538L99.674,48.538L99.766,48.538L99.85,48.538L99.937,48.538L100.113,48.538L100.202,48.538L100.295,48.538L100.378,48.538L100.465,48.538L100.641,48.538L100.73,48.538L100.823,48.538L100.906,48.538L100.993,48.538L101.17,48.538L101.257,48.538L101.351,48.538L101.434,48.538L101.521,48.538L101.697,48.538L101.786,48.538L101.879,48.538L101.962,48.538L102.049,48.538L102.225,48.538L102.313,48.538L102.405,48.538L102.489,48.538L102.577,48.538L102.754,48.538L102.842,48.538L102.94,48.538L103.022,48.538L103.105,48.538L103.282,48.538L103.37,48.538L103.463,48.538L103.547,48.538L103.633,48.538L103.81,48.538L103.898,48.538L103.989,48.538L104.075,48.538L104.161,48.538L104.337,48.538L104.426,48.538L104.519,48.538L104.603,48.538L104.689,48.538L104.866,48.538L104.954,48.538L105.047,48.538L105.13,48.538L105.217,48.538L105.394,48.538L105.482,48.538L105.575,48.538L105.659,48.538L105.745,48.538L105.922,48.538L106.009,48.538L106.102,48.538L106.186,48.538L106.273,48.538L106.449,48.538L106.537,48.538L106.63,48.538L106.715,48.538L106.801,48.538L106.978,48.538L107.067,48.538L107.159,48.538L107.243,48.538L107.329,48.538L107.505,48.538L107.594,48.538L107.687,48.538L107.771,48.538L107.857,48.538L108.033,27L108.122,27L108.215,27L108.299,27L108.385,27L108.562,27L108.65,27L108.743,27L108.827,27L108.913,27L109.09,27L109.178,27L109.271,27L109.355,27L109.441,27L109.618,27L109.705,27L109.799,27L109.882,27L109.969,27L110.145,27L110.233,27L110.326,27L110.41,27L110.497,27L110.674,27L110.762,27L110.856,27L110.939,27L111.026,27L111.202,27L111.29,27L111.383,27L111.467,27L111.553,27L111.729,27L111.817,27L111.911,27L111.995,27L112.081,27L112.258,27L112.346,27L112.439,27L112.523,27L112.61,27L112.786,27L112.874,27L112.967,27L113.051,27L113.137,27L113.314,27L113.402,27L113.494,27L113.578,27L113.665,27L113.843,27L113.93,27L114.022,27L114.106,27L114.194,27L114.37,27L114.459,27L114.552,27L114.635,27L114.722,27L114.899,27L114.987,27L115.08,27L115.163,27L115.25,27L115.427,27L115.514,27L115.608,27L115.692,27L115.778,27L115.955,27L116.043,27L116.136,27L116.219,27L116.306,27L116.482,27L116.571,27L116.664,27L116.747,27L116.834,27L117.011,27L117.098,27L117.191,27L117.276,27L117.362,27L117.538,27L117.626,27L117.719,27L117.803,27L117.89,27L118.067,27L118.155,27L118.249,27L118.331,27L118.418,27L118.594,27L118.683,27L118.776,27L118.86,27L118.946,27L119.123,27L119.211,27L119.304,27L119.388,27L119.474,27L119.651,27L119.739,27L119.832,27L119.915,27L120.002,27L120.178,27L120.267,27L120.36,27L120.444,27L120.53,27L120.707,27L120.794,27L120.887,27L120.971,27L121.059,27L121.235,27L121.322,27L121.416,27L121.499,27L121.586,27L121.763,27L121.851,27L121.944,27L122.027,27L122.114,27L122.291,27L122.379,27L122.472,27L122.555,27L122.642,27L122.819,27L122.907,27L122.999,27L123.084,27L123.17,27L123.347,27L123.435,27L123.528,27L123.613,27L123.698,27L123.875,27L123.963,27L124.056,27L124.14,27L124.226,27L124.403,27L124.49,27L124.584,27L124.667,27L124.754,27L124.931,27L125.019,27L125.112,27L125.195,27L125.283,27L125.46,27L125.548,27L125.641,27L125.724,27L125.81,27L125.987,27L126.075,27L126.169,27L126.252,27L126.338,27L126.515,27L126.604,27L126.697,27L126.781,27L126.866,27L127.043,27L127.132,27L127.225,27L127.308,27L127.394,27L127.572,27L127.66,27L127.753,27L127.836,27L127.923,27L128.1,27L128.187,27L128.28,27L128.364,27L128.451,27L128.628,27L128.715,27L128.809,27L128.892,27L128.979,27L129.156,27L129.244,27L129.338,27L129.421,27L129.507,27L129.683,27L129.772,27L129.865,27L129.949,27L130.035,27L130.212,27L130.3,27L130.394,27L130.476,27L130.563,27L130.74,27L130.828,27L130.922,27L131.004,27L131.091,27L131.268,27L131.356,27L131.449,27L131.533,27L131.619,27L131.795,27L131.883,27L131.976,27L132.06,27L132.146,27L132.323,27L132.411,27L132.505,27L132.588,27L132.675,27L132.852,27L132.941,27L133.034,27L133.117,27L133.203,27L133.38,27L133.468,27L133.562,27L133.645,27L133.731,27L133.909,27L133.997,27L134.09,27L134.173,27L134.259,27L134.436,27L134.525,27L134.618,27L134.701,27L134.787,27L134.964,27L135.052,27L135.146,27L135.229,27L135.315,27L135.492,46.231L135.58,46.231L135.673,46.231L135.756,46.231L135.843,46.231L136.02,46.231L136.108,46.231L136.201,46.231L136.285,46.231L136.371,46.231L136.549,46.231L136.637,46.231L136.731,46.231L136.814,46.231L136.899,46.231L137.075,46.231L137.165,46.231L137.258,46.231L137.341,46.231L137.427,46.231L137.604,46.231L137.693,46.231L137.786,46.231L137.869,46.231L137.955,46.231L138.133,53.923L138.221,53.923L138.315,53.923L138.397,53.923L138.483,53.923L138.66,53.923L138.749,53.923L138.842,53.923L138.925,53.923L139.012,53.923L139.188,53.923L139.276,53.923L139.369,53.923L139.453,53.923L139.539,53.923L139.717,53.923L139.804,53.923L139.897,53.923L139.981,53.923L140.067,53.923L140.244,53.923L140.334,53.923L140.427,53.923L140.509,53.923L140.596,53.923L140.773,53.923L140.862,53.923L140.955,53.923L141.038,53.923L141.124,53.923L141.301,53.923L141.39,53.923L141.483,53.923L141.567,53.923L141.652,53.923L141.829,23.154L141.917,23.154L142.011,23.154L142.094,23.154L142.18,23.154L142.357,23.154L142.445,23.154L142.539,23.154L142.622,23.154L142.884,23.154L142.973,23.154L143.066,23.154L143.149,23.154L143.235,23.154L143.413,23.154L143.501,23.154L143.594,23.154L143.677,23.154L143.763,23.154L143.941,23.154L144.03,23.154L144.124,23.154L144.207,23.154L144.292,23.154L144.469,23.154L144.558,23.154L144.652,23.154L144.734,23.154L144.82,23.154L144.997,23.154L145.086,23.154L145.179,23.154L145.262,23.154L145.349,23.154L145.525,23.154L145.614,23.154L145.707,23.154L145.79,23.154L145.876,23.154L146.053,23.154L146.141,23.154L146.235,23.154L146.318,23.154L146.404,23.154L146.581,23.154L146.669,23.154L146.762,23.154L146.845,23.154L146.932,23.154L147.109,23.154L147.197,23.154L147.29,23.154L147.373,23.154L147.46,23.154L147.637,23.154L147.726,23.154L147.82,23.154L147.902,23.154L147.989,23.154L148.165,23.154L148.254,23.154L148.347,23.154L148.43,23.154L148.516,23.154L148.693,23.154L148.782,23.154L148.876,23.154L148.958,23.154L149.044,23.154L149.221,23.154L149.31,23.154L149.403,23.154L149.485,23.154L149.572,23.154L149.749,23.154L149.838,23.154L149.931,23.154L150.014,23.154L150.101,23.154L150.277,23.154L150.365,23.154L150.458,23.154L150.542,23.154L150.628,23.154L150.805,23.154L150.893,23.154L150.987,23.154L151.069,23.154L151.156,23.154L151.333,23.154L151.422,23.154L151.516,23.154L151.598,23.154L151.684,23.154L151.861,23.154L151.95,23.154L152.044,23.154L152.126,23.154L152.212,23.154L152.389,23.154L152.478,23.154L152.572,23.154L152.654,23.154L152.741,23.154L152.918,23.154L153.006,23.154L153.1,23.154L153.183,23.154L153.269,23.154L153.446,23.154L153.534,23.154L153.628,23.154L153.71,23.154L153.796,23.154L153.973,23.154L154.061,23.154L154.155,23.154L154.238,23.154L154.325,23.154L154.502,23.154L154.59,23.154L154.683,23.154L154.765,23.154L154.852,23.154L155.03,23.154L155.118,23.154L155.212,23.154L155.295,23.154L155.381,23.154L155.558,23.154L155.646,23.154L155.74,23.154L155.823,23.154L155.909,23.154L156.086,23.154L156.174,23.154L156.268,23.154L156.351,23.154L156.437,23.154L156.614,23.154L156.702,23.154L156.796,23.154L156.879,23.154L156.965,23.154L157.142,23.154L157.23,23.154L157.324,23.154L157.406,23.154L157.493,23.154L157.67,23.154L157.758,23.154L157.851,23.154L157.934,23.154L158.02,23.154L158.198,23.154L158.286,23.154L158.379,23.154L158.462,23.154L158.549,23.154L158.726,23.154L158.815,23.154L158.909,23.154L158.992,23.154L159.077,23.154L159.254,23.154L159.342,23.154L159.437,23.154L159.519,23.154L159.605,23.154L159.782,23.154L159.871,23.154L159.964,23.154L160.048,23.154L160.133,23.154L160.492,23.154L160.575,23.154L160.661,23.154L160.838,23.154L160.926,23.154L161.02,23.154L161.102,23.154L161.189,23.154L161.366,23.154L161.454,23.154L161.547,23.154L161.631,23.154L161.717,23.154L161.894,23.154L161.981,23.154L162.075,23.154L162.158,23.154L162.244,23.154L162.422,23.154L162.511,23.154L162.605,23.154L162.687,23.154L162.773,23.154L162.95,23.154L163.038,23.154L163.132,23.154L163.214,23.154L163.301,23.154L163.478,23.154L163.566,23.154L163.66,23.154L163.743,23.154L163.829,23.154L164.006,58.538L164.094,58.538L164.188,58.538L164.271,58.538L164.357,58.538L164.534,58.538L164.622,58.538L164.716,58.538L164.799,58.538L164.885,58.538L165.062,58.538L165.149,58.538L165.243,58.538L165.326,58.538L165.412,58.538L165.589,58.538L165.677,58.538L165.771,58.538L165.854,58.538L165.94,58.538L166.118,58.538L166.207,58.538L166.3,58.538L166.383,58.538L166.469,58.538L166.646,58.538L166.735,58.538L166.829,58.538L166.911,58.538L166.997,58.538L167.174,58.538L167.263,58.538L167.356,58.538L167.439,58.538L167.525,58.538L167.702,23.154L167.791,23.154L167.885,23.154L167.968,23.154L168.054,23.154L168.231,23.154L168.319,23.154L168.413,23.154L168.496,23.154L168.582,23.154L168.759,23.154L168.846,23.154L168.94,23.154L169.023,23.154L169.109,23.154L169.286,23.154L169.374,23.154L169.468,23.154L169.551,23.154L169.637,23.154L169.815,23.154L169.904,23.154L169.998,23.154L170.08,23.154L170.166,23.154L170.343,23.154L170.432,23.154L170.526,23.154L170.608,23.154L170.694,23.154L170.871,23.154L170.96,23.154L171.054,23.154L171.136,23.154L171.222,23.154L171.399,23.154L171.488,23.154L171.582,23.154L171.664,23.154L171.75,23.154L171.927,23.154L172.016,23.154L172.109,23.154L172.192,23.154L172.278,23.154L172.455,23.154L172.543,23.154L172.636,23.154L172.719,23.154L172.805,23.154L172.983,23.154L173.071,23.154L173.164,23.154L173.247,23.154L173.333,23.154L173.511,23.154L173.6,23.154L173.694,23.154L173.776,23.154L173.862,23.154L174.039,23.154L174.128,23.154L174.222,23.154L174.305,23.154L174.39,23.154L174.568,23.154L174.657,23.154L174.75,23.154L174.833,23.154L174.919,23.154L175.096,23.154L175.184,23.154L175.278,23.154L175.36,23.154L175.446,23.154L175.623,23.154L175.712,23.154L175.806,23.154L175.888,23.154L175.974,23.154L176.151,23.154L176.239,23.154L176.333,23.154L176.416,23.154L176.502,23.154L176.68,23.154L176.767,23.154L176.861,23.154L176.943,23.154L177.03,23.154L177.208,23.154L177.297,23.154L177.391,23.154L177.473,23.154L177.558,23.154L177.736,23.154L177.824,23.154L177.919,23.154L178.001,23.154L178.087,23.154L178.263,23.154L178.353,23.154L178.447,23.154L178.529,23.154L178.615,23.154L178.792,23.154L178.881,23.154L178.975,23.154L179.057,23.154L179.143,23.154L179.32,23.154L179.408,23.154L179.502,23.154L179.584,23.154L179.671,23.154L179.847,23.154L179.935,23.154L180.029,23.154L180.112,23.154L180.198,23.154L180.376,23.154L180.463,23.154L180.557,23.154L180.639,23.154L180.726,23.154L180.904,23.154L180.993,23.154L181.087,23.154L181.169,23.154L181.255,23.154L181.432,23.154L181.521,23.154L181.615,23.154L181.697,23.154L181.783,23.154L181.96,23.154L182.049,23.154L182.143,23.154L182.225,23.154L182.311,23.154L182.488,23.154L182.577,23.154L182.671,23.154L182.753,23.154L182.839,23.154L183.016,23.154L183.105,23.154L183.199,23.154L183.281,23.154L183.367,23.154L183.543,23.154L183.632,23.154L183.725,23.154L183.808,23.154L183.894,23.154L184.071,23.154L184.16,23.154L184.254,23.154L184.336,23.154L184.422,23.154L184.6,23.154L184.689,23.154L184.783,23.154L184.865,23.154L184.951,23.154L185.128,23.154L185.217,23.154L185.311,23.154L185.394,23.154L185.479,23.154L185.655,23.154L185.745,23.154L185.838,23.154L185.921,23.154L186.007,23.154L186.184,23.154L186.272,23.154L186.367,23.154L186.448,23.154L186.534,23.154L186.711,23.154L186.8,23.154L186.893,23.154L186.976,23.154L187.062,23.154L187.239,23.154L187.327,23.154L187.42,23.154L187.503,23.154L187.59,23.154L187.767,23.154L187.855,23.154L187.948,23.154L188.031,23.154L188.118,23.154L188.296,23.154L188.384,23.154L188.477,23.154L188.56,23.154L188.646,23.154L188.823,23.154L188.912,23.154L189.005,23.154L189.088,23.154L189.174,23.154L189.351,23.154L189.44,23.154L189.533,23.154L189.616,23.154L189.702,23.154L189.879,23.154L189.968,23.154L190.061,23.154L190.144,23.154L190.23,23.154L190.407,23.154L190.495,23.154L190.589,23.154L190.672,23.154L190.758,23.154L190.935,23.154L191.023,23.154L191.116,23.154L191.199,23.154L191.286,23.154L191.463,23.154L191.551,23.154L191.644,23.154L191.727,23.154L191.814,23.154L191.991,23.154L192.08,23.154L192.173,23.154L192.256,23.154L192.342,23.154L192.519,23.154L192.608,23.154L192.701,23.154L192.784,23.154L192.87,23.154L193.047,23.154L193.136,23.154L193.229,23.154L193.312,23.154L193.398,23.154L193.575,23.154L193.664,23.154L193.757,23.154L193.84,23.154L193.927,23.154L194.103,23.154L194.192,23.154L194.286,23.154L194.368,23.154L194.454,23.154L194.631,23.154L194.72,23.154L194.813,23.154L194.896,23.154L194.982,23.154L195.159,23.154L195.247,23.154L195.341,23.154L195.424,23.154L195.51,23.154L195.688,23.154L195.776,23.154L195.87,23.154L195.953,23.154L196.038,23.154L196.215,23.154L196.304,23.154L196.398,23.154L196.484,23.154L196.567,23.154L196.744,23.154L196.832,23.154L196.926,23.154L197.009,23.154L197.095,23.154L197.272,23.154L197.36,23.154L197.454,23.154L197.537,23.154L197.623,23.154L197.8,23.154L197.888,23.154L197.982,23.154L198.065,23.154L198.151,23.154L198.327,23.154L198.415,23.154L198.509,23.154L198.592,23.154L198.678,23.154L198.856,23.154L198.943,23.154L199.037,23.154L199.12,23.154L199.206,23.154L199.384,23.154L199.473,23.154L199.567,23.154L199.649,23.154L199.735,23.154L199.911,23.154L200,23.154" stroke="#4c78a8" stroke-width="2"/></g></g><path class="foreground" aria-hidden="true" d="" display="none"/></g><g transform="translate(0,0)"><path class="background" aria-hidden="true" d="M0,0h200v200h-200Z"/><g><g class="mark-line role-mark marks" role="graphics-object" aria-roledescription="line mark container"><path aria-label="Time: Jan 01, 2024; Price: 2499; identifier: altex-LG-F2WR508SBM" role="graphics-symbol" aria-roledescription="line mark" d="M0,7.769L0.055,7.769L0.139,7.769L0.315,7.769L0.403,7.769L0.496,7.769L0.58,7.769L0.667,7.769L0.843,7.769L0.931,7.769L1.024,7.769L1.108,7.769L1.195,7.769L1.371,7.769L1.459,7.769L1.552,7.769L1.636,7.769L1.723,7.769L1.899,27L1.987,27L2.08,27L2.164,27L2.251,27L2.427,27L2.515,27L2.607,27L2.692,27L2.779,27L2.956,27L3.043,27L3.135,27L3.22,27L3.307,27L3.484,27L3.572,27L3.664,27L3.749,27L3.835,27L4.012,27L4.1,27L4.193,27L4.277,27L4.363,27L4.54,27L4.628,27L4.72,27L4.804,27L4.891,27L5.068,27L5.156,27L5.249,27L5.333,27L5.419,27L5.596,27L5.684,27L5.776,27L5.861,27L5.947,27L6.123,38.538L6.211,38.538L6.303,38.538L6.388,38.538L6.475,38.538L6.652,38.538L6.739,38.538L6.831,38.538L6.916,38.538L7.003,38.538L7.18,38.538L7.268,38.538L7.361,38.538L7.445,38.538L7.531,38.538L7.708,38.538L7.796,38.538L7.889,38.538L7.973,38.538L8.059,38.538L8.236,38.538L8.324,38.538L8.417,38.538L8.501,38.538L8.587,38.538L8.764,38.538L8.852,38.538L8.945,38.538L9.029,38.538L9.116,38.538L9.292,38.538L9.38,38.538L9.473,38.538L9.557,38.538L9.643,38.538L9.82,38.538L9.907,38.538L10,38.538L10.085,38.538L10.172,38.538L10.348,38.538L10.435,38.538L10.528,38.538L10.612,38.538L10.699,38.538L10.876,38.538L10.965,38.538L11.057,38.538L11.141,38.538L11.228,38.538L11.404,38.538L11.492,38.538L11.585,38.538L11.669,38.538L11.756,38.538L11.932,38.538L12.02,38.538L12.113,38.538L12.197,38.538L12.284,38.538L12.46,38.538L12.548,38.538L12.641,38.538L12.726,38.538L12.812,38.538L12.988,38.538L13.076,38.538L13.167,38.538L13.252,38.538L13.34,38.538L13.516,38.538L13.604,38.538L13.694,38.538L13.78,38.538L13.867,38.538L14.044,38.538L14.132,38.538L14.222,38.538L14.308,38.538L14.396,38.538L14.572,38.538L14.66,38.538L14.751,38.538L14.836,38.538L14.924,38.538L15.1,38.538L15.188,38.538L15.279,38.538L15.365,38.538L15.452,38.538L15.628,38.538L15.716,38.538L15.807,38.538L15.892,38.538L15.98,38.538L16.156,27L16.244,27L16.335,27L16.42,27L16.508,27L16.684,27L16.772,27L16.863,27L16.948,27L17.036,27L17.212,27L17.3,27L17.391,27L17.476,27L17.564,27L17.74,27L17.828,27L17.919,27L18.004,27L18.092,27L18.268,27L18.356,27L18.448,27L18.532,27L18.62,27L18.796,27L18.884,27L18.976,27L19.06,27L19.148,27L19.324,27L19.412,27L19.503,27L19.589,27L19.676,27L19.852,27L19.94,27L20.031,27L20.116,27L20.204,27L20.38,27L20.468,27L20.559,27L20.644,27L20.732,27L20.908,27L20.996,27L21.087,27L21.172,27L21.26,27L21.436,27L21.524,27L21.615,27L21.7,27L21.788,27L21.964,27L22.052,27L22.144,27L22.228,27L22.316,27L22.492,27L22.58,27L22.672,27L22.757,27L22.844,27L23.02,27L23.108,27L23.2,27L23.284,27L23.372,27L23.636,27L23.728,27L23.812,27L23.9,27L24.076,27L24.164,27L24.256,27L24.341,27L24.428,27L24.604,27L24.692,27L24.783,27L24.868,27L24.956,27L25.132,27L25.221,27L25.311,27L25.396,27L25.484,27L25.66,27L25.749,27L25.84,27L25.925,27L26.012,27L26.189,27L26.276,27L26.368,27L26.453,27L26.541,27L26.716,27L26.804,27L26.896,27L26.981,27L27.069,27L27.244,27L27.332,27L27.424,27L27.509,27L27.597,27L27.772,27L27.86,27L27.952,27L28.036,27L28.125,27L28.3,27L28.388,27L28.479,27L28.564,27L28.652,27L28.828,27L28.917,27L29.007,27L29.093,27L29.18,27L29.356,27L29.445,27L29.536,27L29.621,27L29.708,27L29.885,27L29.973,27L30.064,27L30.149,27L30.237,27L30.413,27L30.501,27L30.592,27L30.677,27L30.765,27L30.941,27L31.029,27L31.12,27L31.205,27L31.293,27L31.469,27L31.557,27L31.648,27L31.733,27L31.821,27L31.997,27L32.085,27L32.176,27L32.261,27L32.349,27L32.525,27L32.613,27L32.703,27L32.789,27L32.877,27L33.061,27L33.181,27L33.234,27L33.317,27L33.405,27L33.581,27L33.669,27L33.761,27L33.845,27L33.933,27L34.109,27L34.197,27L34.289,27L34.373,27L34.461,27L34.637,27L34.725,27L34.816,38.538L34.901,38.538L34.989,38.538L35.165,38.538L35.254,38.538L35.344,38.538L35.429,38.538L35.517,38.538L35.693,38.538L35.781,38.538L35.871,38.538L35.957,38.538L36.045,38.538L36.221,38.538L36.309,38.538L36.399,38.538L36.485,38.538L36.573,38.538L36.749,38.538L36.837,38.538L36.929,38.538L37.014,38.538L37.101,38.538L37.277,38.538L37.365,38.538L37.457,38.538L37.542,38.538L37.629,38.538L37.805,38.538L37.894,38.538L37.985,38.538L38.069,38.538L38.157,38.538L38.333,38.538L38.421,38.538L38.513,38.538L38.597,38.538L38.685,38.538L38.861,38.538L38.95,38.538L39.041,38.538L39.125,38.538L39.213,38.538L39.389,38.538L39.477,38.538L39.568,38.538L39.653,38.538L39.741,38.538L39.917,38.538L40.006,38.538L40.096,38.538L40.181,38.538L40.269,38.538L40.445,38.538L40.533,38.538L40.626,38.538L40.71,38.538L40.798,38.538L40.973,38.538L41.061,38.538L41.153,38.538L41.238,38.538L41.325,38.538L41.501,38.538L41.589,38.538L41.681,38.538L41.766,38.538L41.854,38.538L42.029,38.538L42.118,38.538L42.209,38.538L42.295,38.538L42.381,38.538L42.557,38.538L42.645,38.538L42.737,38.538L42.822,38.538L42.909,38.538L43.085,38.538L43.173,38.538L43.265,38.538L43.349,38.538L43.437,38.538L43.613,38.538L43.701,38.538L43.793,38.538L43.877,38.538L43.965,38.538L44.141,38.538L44.229,38.538L44.321,38.538L44.406,38.538L44.493,38.538L44.669,38.538L44.758,38.538L44.849,38.538L44.934,38.538L45.021,38.538L45.198,38.538L45.286,38.538L45.378,38.538L45.463,38.538L45.549,38.538L45.725,38.538L45.813,38.538L45.905,38.538L45.99,38.538L46.077,38.538L46.254,38.538L46.341,38.538L46.433,38.538L46.518,38.538L46.605,38.538L46.781,38.538L46.869,38.538L46.96,38.538L47.046,38.538L47.134,38.538L47.31,38.538L47.398,38.538L47.489,38.538L47.574,38.538L47.662,38.538L47.837,38.538L47.926,38.538L48.018,38.538L48.103,38.538L48.19,38.538L48.366,38.538L48.454,38.538L48.546,38.538L48.631,38.538L48.718,38.538L48.894,38.538L48.982,38.538L49.073,38.538L49.159,38.538L49.246,38.538L49.422,38.538L49.51,38.538L49.602,38.538L49.686,38.538L49.774,38.538L49.95,38.538L50.129,38.538L50.214,38.538L50.302,38.538L50.478,38.538L50.566,38.538L50.657,38.538L50.742,38.538L50.83,38.538L51.006,38.538L51.094,38.538L51.185,38.538L51.27,38.538L51.358,38.538L51.534,38.538L51.622,38.538L51.714,38.538L51.799,38.538L51.886,38.538L52.062,38.538L52.15,38.538L52.242,38.538L52.326,38.538L52.414,38.538L52.59,38.538L52.678,38.538L52.77,38.538L52.855,38.538L52.942,38.538L53.118,38.538L53.207,38.538L53.298,38.538L53.47,38.538L53.646,38.538L53.735,38.538L53.826,38.538L53.91,38.538L53.998,38.538L54.174,38.538L54.262,38.538L54.352,38.538L54.438,38.538L54.526,38.538L54.71,38.538L54.845,38.538L54.928,38.538L55.099,38.538L55.231,38.538L55.318,38.538L55.409,38.538L55.494,38.538L55.582,38.538L55.758,38.538L55.846,38.538L55.938,38.538L56.022,38.538L56.11,38.538L56.286,38.538L56.374,38.538L56.466,38.538L56.551,38.538L56.638,38.538L56.902,38.538L56.994,38.538L57.079,38.538L57.166,38.538L57.342,38.538L57.43,38.538L57.522,38.538L57.607,38.538L57.694,38.538L57.87,38.538L57.958,38.538L58.049,38.538L58.134,38.538L58.222,38.538L58.398,38.538L58.486,38.538L58.578,38.538L58.662,38.538L58.75,38.538L58.926,38.538L59.015,38.538L59.107,38.538L59.191,38.538L59.278,38.538L59.454,38.538L59.542,38.538L59.635,38.538L59.719,38.538L59.807,38.538L59.982,38.538L60.071,38.538L60.165,38.538L60.247,38.538L60.335,38.538L60.51,38.538L60.599,38.538L60.688,38.538L60.775,38.538L60.863,38.538L61.038,38.538L61.127,38.538L61.218,38.538L61.303,38.538L61.391,38.538L61.566,38.538L61.654,38.538L61.745,38.538L61.83,38.538L61.918,38.538L62.095,38.538L62.182,38.538L62.274,38.538L62.358,38.538L62.446,38.538L62.622,38.538L62.712,38.538L62.803,38.538L62.887,38.538L62.975,38.538L63.15,38.538L63.239,38.538L63.331,38.538L63.415,38.538L63.503,38.538L63.678,38.538L63.768,38.538L63.859,38.538L63.943,38.538L64.03,38.538L64.207,38.538L64.295,38.538L64.387,38.538L64.471,38.538L64.559,38.538L64.735,38.538L64.823,38.538L64.915,38.538L64.999,38.538L65.087,38.538L65.263,38.538L65.351,38.538L65.442,38.538L65.527,38.538L65.615,38.538L65.791,38.538L65.879,38.538L65.97,38.538L66.055,38.538L66.143,38.538L66.319,38.538L66.407,38.538L66.499,38.538L66.584,38.538L66.671,38.538L66.847,38.538L66.935,38.538L67.027,30.846L67.111,30.846L67.199,30.846L67.375,30.846L67.463,30.846L67.556,30.846L67.64,30.846L67.727,30.846L67.903,30.846L67.992,30.846L68.083,30.846L68.169,30.846L68.255,30.846L68.431,30.846L68.519,30.846L68.612,30.846L68.695,30.846L68.783,30.846L68.959,30.846L69.047,30.846L69.139,30.846L69.223,30.846L69.311,30.846L69.487,30.846L69.575,30.846L69.667,30.846L69.751,30.846L69.839,30.846L70.015,30.846L70.103,30.846L70.196,30.846L70.28,30.846L70.367,30.846L70.543,30.846L70.632,30.846L70.724,30.846L70.808,30.846L70.895,30.846L71.071,30.846L71.159,30.846L71.252,30.846L71.336,30.846L71.423,30.846L71.599,30.846L71.688,30.846L71.78,30.846L71.864,30.846L71.951,30.846L72.127,30.846L72.215,30.846L72.308,30.846L72.392,30.846L72.479,30.846L72.655,30.846L72.743,30.846L72.835,30.846L72.919,30.846L73.007,30.846L73.184,30.846L73.271,30.846L73.363,30.846L73.448,30.846L73.535,30.846L73.712,30.846L73.799,30.846L73.892,30.846L73.976,30.846L74.063,30.846L74.239,30.846L74.328,30.846L74.42,30.846L74.504,30.846L74.591,30.846L74.768,30.846L74.856,30.846L74.948,38.538L75.032,38.538L75.119,38.538L75.295,38.538L75.383,38.538L75.476,38.538L75.56,38.538L75.647,38.538L75.824,38.538L75.912,38.538L76.004,38.538L76.088,38.538L76.176,38.538L76.352,38.538L76.439,38.538L76.531,38.538L76.616,38.538L76.703,38.538L76.88,38.538L76.967,38.538L77.059,38.538L77.144,38.538L77.232,38.538L77.408,38.538L77.496,38.538L77.589,38.538L77.673,38.538L77.759,38.538L77.937,38.538L78.024,38.538L78.117,38.538L78.2,38.538L78.287,38.538L78.464,38.538L78.552,38.538L78.645,38.538L78.728,38.538L78.815,38.538L78.993,38.538L79.08,38.538L79.173,38.538L79.256,38.538L79.343,38.538L79.52,30.846L79.608,30.846L79.701,30.846L79.784,30.846L79.871,30.846L80.047,30.846L80.136,30.846L80.228,30.846L80.312,30.846L80.399,30.846L80.576,30.846L80.664,30.846L80.756,30.846L80.84,30.846L80.927,30.846L81.104,30.846L81.192,30.846L81.285,30.846L81.369,30.846L81.456,30.846L81.632,30.846L81.72,30.846L81.813,30.846L81.897,30.846L81.984,30.846L82.161,30.846L82.248,30.846L82.341,30.846L82.425,30.846L82.512,30.846L82.688,30.846L82.776,30.846L82.869,30.846L82.952,30.846L83.04,30.846L83.216,30.846L83.304,30.846L83.397,30.846L83.482,30.846L83.568,30.846L83.744,30.846L83.832,30.846L83.924,30.846L84.009,30.846L84.096,30.846L84.272,30.846L84.36,30.846L84.452,30.846L84.536,30.846L84.624,30.846L84.801,30.846L84.889,30.846L84.982,30.846L85.065,30.846L85.152,30.846L85.329,30.846L85.417,30.846L85.51,30.846L85.593,30.846L85.68,30.846L85.856,30.846L85.945,34.692L86.038,34.692L86.121,34.692L86.208,34.692L86.384,34.692L86.472,34.692L86.565,34.692L86.65,34.692L86.736,34.692L86.912,34.692L87,34.692L87.093,40.077L87.177,40.077L87.264,40.077L87.441,40.077L87.529,40.077L87.621,40.077L87.705,40.077L87.792,40.077L87.968,40.077L88.056,40.077L88.149,40.077L88.233,40.077L88.32,40.077L88.497,40.077L88.585,40.077L88.678,40.077L88.761,40.077L88.848,40.077L89.024,40.077L89.113,40.077L89.206,40.077L89.289,40.077L89.376,40.077L89.552,40.077L89.641,40.077L89.734,40.077L89.817,40.077L89.904,40.077L90.08,40.077L90.169,40.077L90.261,40.077L90.346,40.077L90.432,40.077L90.609,40.077L90.697,40.077L90.789,40.077L90.873,40.077L90.96,40.077L91.136,40.077L91.224,40.077L91.318,40.077L91.401,40.077L91.488,40.077L91.664,40.077L91.752,40.077L91.845,40.077L91.928,40.077L92.016,40.077L92.193,40.077L92.281,40.077L92.374,40.077L92.457,40.077L92.544,40.077L92.721,40.077L92.809,40.077L92.902,40.077L93.073,40.077L93.249,40.077L93.337,40.077L93.43,40.077L93.513,40.077L93.6,40.077L93.778,40.077L93.865,40.077L93.958,40.077L94.042,40.077L94.129,40.077L94.305,40.077L94.393,40.077L94.486,40.077L94.569,40.077L94.657,40.077L94.833,40.077L94.921,40.077L95.013,40.077L95.097,40.077L95.185,40.077L95.361,40.077L95.448,40.077L95.541,40.077L95.625,40.077L95.712,40.077L95.889,40.077L95.977,40.077L96.071,40.077L96.154,40.077L96.24,40.077L96.417,40.077L96.505,40.077L96.598,40.077L96.682,40.077L96.769,40.077L96.945,40.077L97.033,40.077L97.126,40.077L97.21,40.077L97.296,40.077L97.473,40.077L97.561,40.077L97.654,40.077L97.737,40.077L97.825,40.077L98.002,40.077L98.089,40.077L98.182,40.077L98.266,40.077L98.352,40.077L98.529,40.077L98.617,40.077L98.709,40.077L98.794,40.077L98.881,40.077L99.057,40.077L99.145,40.077L99.237,40.077L99.321,40.077L99.409,40.077L99.585,40.077L99.674,40.077L99.766,40.077L99.85,40.077L99.937,40.077L100.113,40.077L100.202,40.077L100.295,40.077L100.378,40.077L100.465,40.077L100.641,40.077L100.73,40.077L100.823,40.077L100.906,40.077L100.993,40.077L101.17,40.077L101.257,40.077L101.351,40.077L101.434,40.077L101.521,40.077L101.697,40.077L101.786,40.077L101.879,40.077L101.962,40.077L102.049,40.077L102.225,40.077L102.313,40.077L102.405,40.077L102.489,40.077L102.577,40.077L102.754,40.077L102.842,40.077L102.94,40.077L103.022,40.077L103.105,40.077L103.282,40.077L103.37,40.077L103.463,40.077L103.547,40.077L103.633,40.077L103.81,40.077L103.898,40.077L103.989,40.077L104.075,40.077L104.161,40.077L104.337,40.077L104.426,40.077L104.519,40.077L104.603,40.077L104.689,40.077L104.866,40.077L104.954,40.077L105.047,40.077L105.13,40.077L105.217,40.077L105.394,40.077L105.482,40.077L105.575,40.077L105.659,40.077L105.745,40.077L105.922,40.077L106.009,40.077L106.102,40.077L106.186,40.077L106.273,40.077L106.449,40.077L106.537,40.077L106.63,40.077L106.715,40.077L106.801,40.077L106.978,40.077L107.067,40.077L107.159,40.077L107.243,40.077L107.329,40.077L107.505,40.077L107.594,40.077L107.687,40.077L107.771,40.077L107.857,40.077L108.033,40.077L108.122,40.077L108.215,40.077L108.299,40.077L108.385,40.077L108.562,40.077L108.65,40.077L108.743,40.077L108.827,40.077L108.914,40.077L109.09,40.077L109.178,40.077L109.271,40.077L109.355,40.077L109.441,40.077L109.618,40.077L109.706,40.077L109.799,40.077L109.882,40.077L109.97,40.077L110.145,40.077L110.233,40.077L110.326,40.077L110.41,40.077L110.497,40.077L110.674,40.077L110.762,40.077L110.856,40.077L110.939,40.077L111.026,40.077L111.202,40.077L111.29,40.077L111.383,40.077L111.467,40.077L111.553,40.077L111.729,40.077L111.817,40.077L111.912,40.077L111.995,40.077L112.081,40.077L112.258,40.077L112.346,40.077L112.44,40.077L112.523,40.077L112.61,40.077L112.786,40.077L112.874,40.077L112.967,40.077L113.051,40.077L113.137,40.077L113.314,40.077L113.402,40.077L113.494,40.077L113.578,40.077L113.665,40.077L113.843,40.077L113.93,40.077L114.022,40.077L114.106,40.077L114.194,40.077L114.37,40.077L114.459,40.077L114.552,40.077L114.635,40.077L114.722,40.077L114.899,40.077L114.987,40.077L115.08,40.077L115.163,40.077L115.25,40.077L115.427,40.077L115.514,40.077L115.608,40.077L115.692,40.077L115.778,40.077L115.955,40.077L116.043,40.077L116.136,40.077L116.219,40.077L116.306,40.077L116.483,40.077L116.571,40.077L116.664,40.077L116.747,40.077L116.834,40.077L117.011,40.077L117.098,40.077L117.191,40.077L117.276,40.077L117.362,40.077L117.538,40.077L117.626,40.077L117.719,40.077L117.803,40.077L117.89,40.077L118.067,40.077L118.155,40.077L118.249,40.077L118.331,40.077L118.418,40.077L118.594,40.077L118.683,40.077L118.776,40.077L118.86,40.077L118.946,40.077L119.123,40.077L119.211,40.077L119.304,40.077L119.388,40.077L119.474,40.077L119.651,40.077L119.739,40.077L119.832,40.077L119.915,40.077L120.002,40.077L120.179,40.077L120.267,40.077L120.36,40.077L120.444,40.077L120.53,40.077L120.707,40.077L120.794,40.077L120.887,40.077L120.971,40.077L121.059,40.077L121.235,40.077L121.322,40.077L121.416,40.077L121.499,40.077L121.586,40.077L121.763,40.077L121.851,40.077L121.944,40.077L122.027,40.077L122.114,40.077L122.292,40.077L122.379,40.077L122.472,40.077L122.555,40.077L122.642,40.077L122.819,40.077L122.907,40.077L122.999,40.077L123.084,40.077L123.17,40.077L123.347,40.077L123.435,40.077L123.528,40.077L123.613,40.077L123.698,40.077L123.875,40.077L123.963,40.077L124.056,40.077L124.14,40.077L124.226,40.077L124.403,40.077L124.49,40.077L124.584,40.077L124.667,40.077L124.754,40.077L124.931,40.077L125.019,40.077L125.112,40.077L125.195,40.077L125.283,40.077L125.46,40.077L125.548,40.077L125.641,40.077L125.724,40.077L125.81,40.077L125.987,40.077L126.075,40.077L126.169,40.077L126.252,40.077L126.338,40.077L126.515,40.077L126.604,40.077L126.697,40.077L126.781,40.077L126.866,40.077L127.043,40.077L127.132,40.077L127.225,40.077L127.308,40.077L127.394,40.077L127.572,40.077L127.66,40.077L127.753,40.077L127.836,40.077L127.923,40.077L128.1,40.077L128.188,40.077L128.28,40.077L128.364,40.077L128.451,40.077L128.628,40.077L128.715,40.077L128.809,40.077L128.892,40.077L128.979,40.077L129.156,40.077L129.244,40.077L129.338,40.077L129.421,40.077L129.507,40.077L129.683,40.077L129.772,40.077L129.865,40.077L129.949,40.077L130.035,40.077L130.212,40.077L130.3,40.077L130.394,40.077L130.476,40.077L130.563,40.077L130.74,40.077L130.828,40.077L130.922,40.077L131.004,40.077L131.091,40.077L131.268,40.077L131.356,40.077L131.449,40.077L131.533,40.077L131.619,40.077L131.795,40.077L131.883,40.077L131.976,40.077L132.06,40.077L132.147,40.077L132.323,40.077L132.411,40.077L132.505,40.077L132.588,40.077L132.675,40.077L132.852,40.077L132.941,40.077L133.034,40.077L133.117,40.077L133.203,40.077L133.38,40.077L133.468,40.077L133.562,40.077L133.645,40.077L133.731,40.077L133.909,40.077L133.997,40.077L134.09,40.077L134.173,40.077L134.259,40.077L134.436,40.077L134.525,40.077L134.618,40.077L134.701,40.077L134.787,40.077L134.964,40.077L135.052,40.077L135.146,40.077L135.229,40.077L135.315,40.077L135.492,40.077L135.58,40.077L135.673,40.077L135.756,40.077L135.843,40.077L136.02,40.077L136.108,40.077L136.201,40.077L136.285,40.077L136.371,40.077L136.549,40.077L136.637,40.077L136.731,40.077L136.814,40.077L136.899,40.077L137.075,40.077L137.165,40.077L137.258,40.077L137.341,40.077L137.427,40.077L137.604,40.077L137.693,40.077L137.786,40.077L137.869,40.077L137.955,40.077L138.133,40.077L138.221,40.077L138.315,40.077L138.397,40.077L138.483,40.077L138.66,40.077L138.749,40.077L138.842,40.077L138.925,40.077L139.012,40.077L139.188,40.077L139.276,40.077L139.369,40.077L139.453,40.077L139.539,40.077L139.717,40.077L139.804,40.077L139.898,40.077L139.981,40.077L140.067,40.077L140.244,40.077L140.334,40.077L140.427,40.077L140.509,40.077L140.596,40.077L140.773,40.077L140.862,40.077L140.955,40.077L141.038,40.077L141.124,40.077L141.301,40.077L141.39,40.077L141.483,40.077L141.567,40.077L141.652,40.077L141.829,40.077L141.917,40.077L142.012,40.077L142.094,40.077L142.18,40.077L142.357,40.077L142.445,40.077L142.539,40.077L142.622,40.077L142.885,40.077L142.973,40.077L143.066,40.077L143.149,40.077L143.235,40.077L143.413,40.077L143.501,40.077L143.594,40.077L143.677,40.077L143.763,40.077L143.941,40.077L144.03,40.077L144.124,40.077L144.207,40.077L144.292,40.077L144.469,40.077L144.558,40.077L144.652,40.077L144.734,40.077L144.82,40.077L144.997,40.077L145.086,40.077L145.179,40.077L145.262,40.077L145.349,40.077L145.525,40.077L145.614,50.077L145.707,50.077L145.79,50.077L145.876,50.077L146.053,50.077L146.141,50.077L146.235,50.077L146.318,50.077L146.404,50.077L146.581,50.077L146.669,50.077L146.762,50.077L146.845,50.077L146.932,50.077L147.109,50.077L147.197,50.077L147.29,50.077L147.373,50.077L147.46,50.077L147.637,50.077L147.726,50.077L147.82,50.077L147.902,50.077L147.989,50.077L148.165,50.077L148.254,30.846L148.347,30.846L148.43,30.846L148.516,30.846L148.693,30.846L148.782,30.846L148.876,50.077L148.958,50.077L149.044,50.077L149.221,50.077L149.31,50.077L149.403,50.077L149.486,50.077L149.572,50.077L149.75,50.077L149.838,50.077L149.931,50.077L150.014,50.077L150.101,50.077L150.277,50.077L150.365,50.077L150.458,50.077L150.542,50.077L150.628,50.077L150.805,50.077L150.893,50.077L150.987,50.077L151.069,50.077L151.156,50.077L151.333,50.077L151.422,50.077L151.516,50.077L151.598,50.077L151.684,50.077L151.861,50.077L151.95,50.077L152.044,50.077L152.126,50.077L152.212,50.077L152.389,50.077L152.478,50.077L152.572,50.077L152.654,50.077L152.741,50.077L152.918,50.077L153.006,50.077L153.1,50.077L153.183,50.077L153.269,50.077L153.446,50.077L153.534,50.077L153.628,50.077L153.71,50.077L153.796,50.077L153.973,50.077L154.061,50.077L154.155,50.077L154.238,50.077L154.325,50.077L154.502,50.077L154.59,50.077L154.683,50.077L154.766,50.077L154.852,50.077L155.03,50.077L155.118,50.077L155.212,50.077L155.295,50.077L155.381,50.077L155.558,50.077L155.646,50.077L155.74,50.077L155.823,50.077L155.909,50.077L156.086,50.077L156.174,50.077L156.268,50.077L156.351,50.077L156.437,50.077L156.614,50.077L156.702,50.077L156.796,50.077L156.879,50.077L156.965,50.077L157.142,50.077L157.23,50.077L157.324,50.077L157.406,50.077L157.493,50.077L157.67,50.077L157.758,50.077L157.851,50.077L157.934,50.077L158.02,50.077L158.198,50.077L158.286,50.077L158.379,50.077L158.462,50.077L158.549,50.077L158.726,50.077L158.815,50.077L158.909,50.077L158.992,50.077L159.077,50.077L159.254,50.077L159.343,50.077L159.437,50.077L159.519,50.077L159.605,50.077L159.782,50.077L159.871,50.077L159.964,50.077L160.048,50.077L160.133,50.077L160.492,50.077L160.575,50.077L160.661,50.077L160.838,50.077L160.926,50.077L161.02,50.077L161.102,50.077L161.189,50.077L161.366,50.077L161.454,50.077L161.547,50.077L161.631,50.077L161.717,50.077L161.894,50.077L161.981,50.077L162.075,50.077L162.158,50.077L162.244,50.077L162.422,50.077L162.511,50.077L162.605,50.077L162.687,50.077L162.773,50.077L162.95,50.077L163.038,50.077L163.132,50.077L163.214,50.077L163.301,50.077L163.478,50.077L163.567,50.077L163.66,50.077L163.743,50.077L163.829,50.077L164.006,50.077L164.094,50.077L164.188,50.077L164.271,50.077L164.357,50.077L164.534,50.077L164.622,50.077L164.716,50.077L164.799,50.077L164.885,50.077L165.062,50.077L165.149,50.077L165.243,50.077L165.326,50.077L165.412,50.077L165.589,50.077L165.677,50.077L165.771,50.077L165.854,50.077L165.94,50.077L166.118,50.077L166.207,50.077L166.3,50.077L166.383,50.077L166.469,50.077L166.646,50.077L166.735,50.077L166.829,50.077L166.911,50.077L166.997,50.077L167.174,50.077L167.263,50.077L167.356,58.538L167.439,58.538L167.525,58.538L167.702,58.538L167.791,58.538L167.885,58.538L167.968,58.538L168.054,58.538L168.231,58.538L168.319,58.538L168.413,58.538L168.496,58.538L168.582,58.538L168.759,58.538L168.846,58.538L168.94,58.538L169.023,58.538L169.109,58.538L169.286,58.538L169.374,58.538L169.468,58.538L169.551,58.538L169.637,58.538L169.815,58.538L169.904,58.538L169.998,58.538L170.08,58.538L170.166,58.538L170.343,58.538L170.432,58.538L170.526,58.538L170.608,58.538L170.694,58.538L170.871,58.538L170.96,58.538L171.054,58.538L171.136,58.538L171.222,58.538L171.399,46.231L171.488,46.231L171.582,58.538L171.664,58.538L171.75,58.538L171.927,58.538L172.016,58.538L172.109,46.231L172.192,46.231L172.278,46.231L172.455,46.231L172.543,46.231L172.636,46.231L172.719,46.231L172.805,46.231L172.983,46.231L173.071,46.231L173.164,46.231L173.247,46.231L173.333,46.231L173.511,46.231L173.6,46.231L173.694,46.231L173.776,46.231L173.862,46.231L174.039,46.231L174.128,46.231L174.222,46.231L174.305,46.231L174.39,46.231L174.568,46.231L174.657,46.231L174.75,58.538L174.833,58.538L174.919,58.538L175.096,58.538L175.184,58.538L175.278,58.538L175.36,58.538L175.446,58.538L175.623,58.538L175.712,58.538L175.806,58.538L175.888,58.538L175.974,58.538L176.151,58.538L176.239,58.538L176.333,58.538L176.416,58.538L176.502,58.538L176.68,58.538L176.767,58.538L176.861,58.538L176.943,58.538L177.03,58.538L177.208,58.538L177.297,58.538L177.391,58.538L177.473,58.538L177.558,58.538L177.736,30.846L177.824,30.846L177.919,58.538L178.001,58.538L178.087,58.538L178.264,58.538L178.353,58.538L178.447,58.538L178.529,58.538L178.615,58.538L178.792,30.846L178.881,30.846L178.975,46.231L179.057,46.231L179.143,46.231L179.32,30.846L179.408,30.846L179.502,46.231L179.585,46.231L179.671,46.231L179.847,46.231L179.935,46.231L180.029,46.231L180.112,46.231L180.198,46.231L180.376,46.231L180.463,46.231L180.557,46.231L180.639,46.231L180.726,46.231L180.904,46.231L180.993,46.231L181.087,46.231L181.169,46.231L181.255,46.231L181.432,46.231L181.521,46.231L181.615,46.231L181.697,46.231L181.783,46.231L181.96,46.231L182.049,46.231L182.143,46.231L182.225,46.231L182.311,46.231L182.488,46.231L182.577,46.231L182.671,46.231L182.753,46.231L182.839,46.231L183.016,46.231L183.105,46.231L183.199,46.231L183.281,46.231L183.367,46.231L183.543,46.231L183.632,46.231L183.725,46.231L183.808,46.231L183.894,46.231L184.071,46.231L184.16,46.231L184.254,46.231L184.336,46.231L184.422,46.231L184.6,46.231L184.689,46.231L184.783,46.231L184.865,46.231L184.951,46.231L185.128,46.231L185.217,46.231L185.311,46.231L185.394,46.231L185.479,46.231L185.655,46.231L185.745,46.231L185.838,46.231L185.921,46.231L186.007,46.231L186.184,46.231L186.272,46.231L186.367,46.231L186.448,46.231L186.534,46.231L186.711,46.231L186.8,46.231L186.893,46.231L186.976,46.231L187.062,46.231L187.239,46.231L187.327,46.231L187.42,46.231L187.503,46.231L187.59,46.231L187.767,46.231L187.855,46.231L187.948,46.231L188.031,46.231L188.118,46.231L188.296,46.231L188.384,46.231L188.478,46.231L188.56,46.231L188.646,46.231L188.823,46.231L188.912,46.231L189.005,46.231L189.088,46.231L189.174,46.231L189.351,46.231L189.44,46.231L189.533,46.231L189.616,46.231L189.702,46.231L189.879,46.231L189.968,46.231L190.061,46.231L190.144,46.231L190.23,46.231L190.407,46.231L190.495,46.231L190.589,46.231L190.672,46.231L190.758,46.231L190.935,46.231L191.023,46.231L191.116,46.231L191.199,46.231L191.286,46.231L191.463,46.231L191.551,46.231L191.644,46.231L191.727,46.231L191.814,46.231L191.991,46.231L192.08,46.231L192.173,46.231L192.256,46.231L192.342,46.231L192.519,46.231L192.608,46.231L192.701,46.231L192.784,46.231L192.87,46.231L193.047,46.231L193.136,46.231L193.229,46.231L193.312,46.231L193.398,46.231L193.576,46.231L193.664,46.231L193.757,46.231L193.84,46.231L193.927,46.231L194.103,46.231L194.192,46.231L194.286,46.231L194.368,46.231L194.454,46.231L194.631,46.231L194.72,46.231L194.813,46.231L194.896,46.231L194.982,46.231L195.159,46.231L195.247,46.231L195.341,46.231L195.424,46.231L195.51,46.231L195.688,46.231L195.776,46.231L195.87,46.231L195.953,46.231L196.039,46.231L196.215,46.231L196.304,46.231L196.398,46.231L196.484,46.231L196.567,46.231L196.744,46.231L196.832,46.231L196.926,46.231L197.009,46.231L197.095,46.231L197.272,46.231L197.36,46.231L197.454,46.231L197.537,46.231L197.623,46.231L197.8,46.231L197.888,46.231L197.982,46.231L198.065,46.231L198.151,46.231L198.327,46.231L198.415,46.231L198.509,46.231L198.592,46.231L198.678,46.231L198.856,46.231L198.943,46.231L199.037,46.231L199.12,46.231L199.206,46.231L199.384,46.231L199.473,46.231L199.567,46.231L199.65,46.231L199.735,46.231L199.911,46.231L200,46.231" stroke="#f58518" stroke-width="2"/></g></g><path class="foreground" aria-hidden="true" d="" display="none"/></g></g><g class="mark-group role-legend" role="graphics-symbol" aria-roledescription="legend" aria-label="Symbol legend titled 'identifier' for stroke color with 2 values: altex-LG-F2WR508SBW, altex-LG-F2WR508SBM"><g transform="translate(220,0)"><path class="background" aria-hidden="true" d="M0,0h168v40h-168Z" pointer-events="none"/><g><g class="mark-group role-legend-entry"><g transform="translate(0,16)"><path class="background" aria-hidden="true" d="M0,0h0v0h0Z" pointer-events="none"/><g><g class="mark-group role-scope" role="graphics-object" aria-roledescription="group mark container"><g transform="translate(0,0)"><path class="background" aria-hidden="true" d="M0,0h168v11h-168Z" pointer-events="none" opacity="1"/><g><g class="mark-symbol role-legend-symbol" pointer-events="none"><path transform="translate(6,6)" d="M-5,0L5,0" stroke="#4c78a8" stroke-width="1.5" opacity="1"/></g><g class="mark-text role-legend-label" pointer-events="none"><text text-anchor="start" transform="translate(16,9)" font-family="Liberation Mono" font-size="10px" fill="#000" opacity="1">altex-LG-F2WR508SBW</text></g></g><path class="foreground" aria-hidden="true" d="" pointer-events="none" display="none"/></g><g transform="translate(0,13)"><path class="background" aria-hidden="true" d="M0,0h168v11h-168Z" pointer-events="none" opacity="1"/><g><g class="mark-symbol role-legend-symbol" pointer-events="none"><path transform="translate(6,6)" d="M-5,0L5,0" stroke="#f58518" stroke-width="1.5" opacity="1"/></g><g class="mark-text role-legend-label" pointer-events="none"><text text-anchor="start" transform="translate(16,9)" font-family="Liberation Mono" font-size="10px" fill="#000" opacity="1">altex-LG-F2WR508SBM</text></g></g><path class="foreground" aria-hidden="true" d="" pointer-events="none" display="none"/></g></g></g><path class="foreground" aria-hidden="true" d="" pointer-events="none" display="none"/></g></g><g class="mark-text role-legend-title" pointer-events="none"><text text-anchor="start" transform="translate(0,9)" font-family="Liberation Mono" font-size="11px" font-weight="bold" fill="#000" opacity="1">identifier</text></g></g><path class="foreground" aria-hidden="true" d="" pointer-events="none" display="none"/></g></g></g><path class="foreground" aria-hidden="true" d="" display="none"/></g></g></g></svg>