<svg xmlns="http://www.w3.org/2000/svg" xmlns:xlink="http://www.w3.org/1999/xlink" version="1.1" class="marks" width="460" height="242" viewBox="0 0 460 242"><rect width="460" height="242" fill="white"/><g fill="none" stroke-miterlimit="10" transform="translate(67,5)"><g class="mark-group role-frame root" role="graphics-object" aria-roledescription="group mark container"><g transform="translate(0,0)"><path class="background" aria-hidden="true" d="M0.5,0.5h200v200h-200Z" stroke="#ddd"/><g><g class="mark-group role-axis" aria-hidden="true"><g transform="translate(0.5,200.5)"><path class="background" aria-hidden="true" d="M0,0h0v0h0Z" pointer-events="none"/><g><g class="mark-rule role-axis-grid" pointer-events="none"><line transform="translate(73,-200)" x2="0" y2="200" stroke="#ddd" stroke-width="1" opacity="1"/><line transform="translate(143,-200)" x2="0" y2="200" stroke="#ddd" stroke-width="1" opacity="1"/></g></g><path class="foreground" aria-hidden="true" d="" pointer-events="none" display="none"/></g></g><g class="mark-group role-axis" aria-hidden="true"><g transform="translate(0.5,0.5)"><path class="background" aria-hidden="true" d="M0,0h0v0h0Z" pointer-events="none"/><g><g class="mark-rule role-axis-grid" pointer-events="none"><line transform="translate(0,200)" x2="200" y2="0" stroke="#ddd" stroke-width="1" opacity="1"/><line transform="translate(0,162)" x2="200" y2="0" stroke="#ddd" stroke-width="1" opacity="1"/><line transform="translate(0,123)" x2="200" y2="0" stroke="#ddd" stroke-width="1" opacity="1"/><line transform="translate(0,85)" x2="200" y2="0" stroke="#ddd" stroke-width="1" opacity="1"/><line transform="translate(0,46)" x2="200" y2="0" stroke="#ddd" stroke-width="1" opacity="1"/><line transform="translate(0,8)" x2="200" y2="0" stroke="#ddd" stroke-width="1" opacity="1"/></g></g><path class="foreground" aria-hidden="true" d="" pointer-events="none" display="none"/></g></g><g class="mark-group role-axis" role="graphics-symbol" aria-roledescription="axis" aria-label="X-axis titled 'Time' for a time scale with values from Monday, 01 January 2024, 2:19:43 PM to Sunday, 24 March 2024, 8:38:14 PM"><g transform="translate(0.5,200.5)"><path class="background" aria-hidden="true" d="M0,0h0v0h0Z" pointer-events="none"/><g><g class="mark-rule role-axis-tick" pointer-events="none"><line transform="translate(73,0)" x2="0" y2="5" stroke="#888" stroke-width="1" opacity="1"/><line transform="translate(143,0)" x2="0" y2="5" stroke="#888" stroke-width="1" opacity="1"/></g><g class="mark-text role-axis-label" pointer-events="none"><text text-anchor="middle" transform="translate(73.02889177859953,15)" font-family="Liberation Mono" font-size="10px" fill="#000" opacity="1">February</text><text text-anchor="middle" transform="translate(142.68779820395298,15)" font-family="Liberation Mono" font-size="10px" fill="#000" opacity="1">March</text></g><g class="mark-rule role-axis-domain" pointer-events="none"><line transform="translate(0,0)" x2="200" y2="0" stroke="#888" stroke-width="1" opacity="1"/></g><g class="mark-text role-axis-title" pointer-events="none"><text text-anchor="middle" transform="translate(100,30)" font-family="Liberation Mono" font-size="11px" font-weight="bold" fill="#000" opacity="1">Time</text></g></g><path class="foreground" aria-hidden="true" d="" pointer-events="none" display="none"/></g></g><g class="mark-group role-axis" role="graphics-symbol" aria-roledescription="axis" aria-label="Y-axis titled 'Price' for a linear scale with values from 0 to 2,600"><g transform="translate(0.5,0.5)"><path class="background" aria-hidden="true" d="M0,0h0v0h0Z" pointer-events="none"/><g><g class="mark-rule role-axis-tick" pointer-events="none"><line transform="translate(0,200)" x2="-5" y2="0" stroke="#888" stroke-width="1" opacity="1"/><line transform="translate(0,162)" x2="-5" y2="0" stroke="#888" stroke-width="1" opacity="1"/><line transform="translate(0,123)" x2="-5" y2="0" stroke="#888" stroke-width="1" opacity="1"/><line transform="translate(0,85)" x2="-5" y2="0" stroke="#888" stroke-width="1" opacity="1"/><line transform="translate(0,46)" x2="-5" y2="0" stroke="#888" stroke-width="1" opacity="1"/><line transform="translate(0,8)" x2="-5" y2="0" stroke="#888" stroke-width="1" opacity="1"/></g><g class="mark-text role-axis-label" pointer-events="none"><text text-anchor="end" transform="translate(-7,203)" font-family="Liberation Mono" font-size="10px" fill="#000" opacity="1">0</text><text text-anchor="end" transform="translate(-7,164.53846153846155)" font-family="Liberation Mono" font-size="10px" fill="#000" opacity="1">500</text><text text-anchor="end" transform="translate(-7,126.07692307692308)" font-family="Liberation Mono" font-size="10px" fill="#000" opacity="1">1,000</text><text text-anchor="end" transform="translate(-7,87.61538461538463)" font-family="Liberation Mono" font-size="10px" fill="#000" opacity="1">1,500</text><text text-anchor="end" transform="translate(-7,49.153846153846146)" font-family="Liberation Mono" font-size="10px" fill="#000" opacity="1">2,000</text><text text-anchor="end" transform="translate(-7,10.692307692307686)" font-family="Liberation Mono" font-size="10px" fill="#000" opacity="1">2,500</text></g><g class="mark-rule role-axis-domain" pointer-events="none"><line transform="translate(0,200)" x2="0" y2="-200" stroke="#888" stroke-width="1" opacity="1"/></g><g class="mark-text role-axis-title" pointer-events="none"><text text-anchor="middle" transform="translate(-51,100) rotate(-90) translate(0,-2)" font-family="Liberation Mono" font-size="11px" font-weight="bold" fill="#000" opacity="1">Price</text></g></g><path class="foreground" aria-hidden="true" d="" pointer-events="none" display="none"/></g></g><g class="mark-group role-scope pathgroup" role="graphics-object" aria-roledescription="group mark container"><g transform="translate(0,0)"><path class="background" aria-hidden="true" d="M0,0h200v200h-200Z"/><g><g class="mark-line role-mark marks" role="graphics-object" aria-roledescription="line mark container"><path aria-label="Time: Jan 01, 2024; Price: 2399; identifier: altex-LG-F2WR508SBW" role="graphics-symbol" aria-roledescription="line mark" d="M0,15.462L0.251,15.462L0.632,15.462L1.433,15.462L1.833,15.462L2.254,15.462L2.637,15.462L3.034,15.462L3.835,15.462L4.235,15.462L4.657,15.462L5.039,15.462L5.435,15.462L6.237,15.462L6.638,15.462L7.058,15.462L7.444,15.462L7.838,15.462L8.64,34.692L9.04,34.692L9.46,34.692L9.845,34.692L10.24,34.692L11.041,34.692L11.441,34.692L11.861,34.692L12.245,34.692L12.642,34.692L13.445,34.692L13.843,34.692L14.262,34.692L14.647,34.692L15.044,34.692L15.847,34.692L16.248,34.692L16.669,34.692L17.052,34.692L17.445,34.692L18.249,34.692L18.649,34.692L19.075,34.692L19.455,34.692L19.848,34.692L20.651,34.692L21.052,34.692L21.473,34.692L21.855,34.692L22.25,34.692L23.053,34.692L23.453,34.692L23.876,34.692L24.259,34.692L24.652,34.692L25.454,34.692L25.855,34.692L26.276,34.692L26.66,34.692L27.054,34.692L27.855,46.231L28.255,46.231L28.674,46.231L29.059,46.231L29.456,46.231L30.259,46.231L30.657,46.231L31.076,46.231L31.46,46.231L31.858,46.231L32.661,46.231L33.062,46.231L33.485,46.231L33.867,46.231L34.26,46.231L35.062,46.231L35.465,46.231L35.886,46.231L36.27,46.231L36.662,46.231L37.465,46.231L37.867,46.231L38.288,46.231L38.671,46.231L39.064,46.231L39.866,46.231L40.267,46.231L40.689,46.231L41.071,46.231L41.467,46.231L42.269,46.231L42.67,46.231L43.092,46.231L43.475,46.231L43.868,46.231L44.671,46.231L45.069,46.231L45.489,46.231L45.875,46.231L46.271,46.231L47.071,46.231L47.471,46.231L47.891,46.231L48.276,46.231L48.672,46.231L49.477,46.231L49.878,46.231L50.3,46.231L50.681,46.231L51.074,46.231L51.877,46.231L52.279,46.231L52.702,46.231L53.085,46.231L53.476,46.231L54.28,46.231L54.681,46.231L55.103,46.231L55.486,46.231L55.879,46.231L56.683,46.231L57.082,46.231L57.505,46.231L57.889,46.231L58.28,46.231L59.082,46.231L59.484,46.231L59.899,46.231L60.283,46.231L60.684,46.231L61.483,46.231L61.884,46.231L62.295,46.231L62.684,46.231L63.084,46.231L63.885,46.231L64.286,46.231L64.699,46.231L65.086,46.231L65.487,46.231L66.287,46.231L66.689,46.231L67.104,46.231L67.489,46.231L67.889,46.231L68.689,46.231L69.089,46.231L69.506,46.231L69.896,46.231L70.29,46.231L71.091,46.231L71.492,46.231L71.908,46.231L72.292,46.231L72.692,46.231L73.493,34.692L73.894,34.692L74.311,34.692L74.694,34.692L75.094,34.692L75.896,34.692L76.295,34.692L76.712,34.692L77.096,34.692L77.497,34.692L78.297,34.692L78.698,34.692L79.11,34.692L79.498,34.692L79.9,34.692L80.701,34.692L81.1,34.692L81.512,34.692L81.9,34.692L82.3,34.692L83.101,34.692L83.503,34.692L83.919,34.692L84.303,34.692L84.702,34.692L85.503,34.692L85.904,34.692L86.321,34.692L86.705,34.692L87.105,34.692L87.905,34.692L88.306,34.692L88.722,34.692L89.109,34.692L89.507,34.692L90.307,34.692L90.709,34.692L91.124,34.692L91.51,34.692L91.909,34.692L92.71,34.692L93.111,34.692L93.524,34.692L93.911,34.692L94.312,34.692L95.111,34.692L95.511,34.692L95.926,34.692L96.312,34.692L96.713,34.692L97.515,34.692L97.914,34.692L98.327,34.692L98.715,34.692L99.115,34.692L99.916,34.692L100.316,34.692L100.734,34.692L101.117,34.692L101.517,34.692L102.317,34.692L102.718,34.692L103.134,34.692L103.524,34.692L103.919,34.692L104.72,34.692L105.12,34.692L105.537,34.692L105.922,34.692L106.32,34.692L107.522,34.692L107.938,34.692L108.323,34.692L108.723,34.692L109.524,34.692L109.924,34.692L110.34,34.692L110.727,34.692L111.125,34.692L111.927,34.692L112.326,34.692L112.739,34.692L113.127,34.692L113.527,34.692L114.328,34.692L114.73,34.692L115.141,34.692L115.529,34.692L115.929,34.692L116.73,34.692L117.132,34.692L117.548,34.692L117.936,34.692L118.331,34.692L119.133,34.692L119.533,34.692L119.948,34.692L120.334,34.692L120.734,34.692L121.534,34.692L121.935,34.692L122.351,34.692L122.737,34.692L123.136,34.692L123.936,34.692L124.336,34.692L124.753,34.692L125.139,34.692L125.538,34.692L126.338,34.692L126.738,34.692L127.153,34.692L127.539,34.692L127.941,34.692L128.74,34.692L129.14,34.692L129.553,34.692L129.941,34.692L130.341,34.692L131.142,34.692L131.543,34.692L131.955,34.692L132.345,34.692L132.743,34.692L133.544,34.692L133.946,34.692L134.361,34.692L134.746,34.692L135.145,34.692L135.946,34.692L136.347,34.692L136.762,34.692L137.149,34.692L137.547,34.692L138.348,34.692L138.748,34.692L139.164,34.692L139.551,34.692L139.95,34.692L140.75,34.692L141.15,34.692L141.565,34.692L141.951,34.692L142.351,34.692L143.152,34.692L143.554,34.692L143.969,34.692L144.354,34.692L144.754,34.692L145.554,34.692L145.955,34.692L146.37,34.692L146.755,34.692L147.156,34.692L147.956,34.692L148.356,34.692L148.769,34.692L149.157,34.692L149.558,34.692L150.395,34.692L150.942,34.692L151.181,34.692L151.562,34.692L151.96,34.692L152.76,34.692L153.16,34.692L153.579,34.692L153.962,34.692L154.361,34.692L155.162,34.692L155.566,34.692L155.98,34.692L156.366,34.692L156.763,34.692L157.564,34.692L157.966,34.692L158.381,34.692L158.765,34.692L159.166,34.692L159.966,34.692L160.372,34.692L160.783,34.692L161.167,34.692L161.567,34.692L162.369,34.692L162.769,34.692L163.18,34.692L163.571,34.692L163.969,34.692L164.77,34.692L165.173,34.692L165.583,34.692L165.973,34.692L166.371,34.692L167.174,34.692L167.573,34.692L167.99,34.692L168.376,34.692L168.774,34.692L169.575,34.692L169.975,34.692L170.392,34.692L170.779,34.692L171.175,34.692L171.977,34.692L172.38,34.692L172.795,34.692L173.178,34.692L173.578,34.692L174.378,34.692L174.779,34.692L175.197,34.692L175.581,34.692L175.98,34.692L176.78,34.692L177.184,34.692L177.597,34.692L177.983,34.692L178.382,34.692L179.183,34.692L179.585,34.692L179.998,34.692L180.384,34.692L180.785,34.692L181.584,34.692L181.987,34.692L182.399,34.692L182.785,34.692L183.186,34.692L183.986,34.692L184.387,34.692L184.807,34.692L185.192,34.692L185.59,34.692L186.39,34.692L186.789,34.692L187.205,34.692L187.595,34.692L187.989,34.692L188.791,34.692L189.192,34.692L189.608,34.692L189.997,34.692L190.394,34.692L191.193,34.692L191.594,34.692L192.012,34.692L192.399,34.692L192.794,34.692L193.595,34.692L193.995,34.692L194.412,34.692L194.797,34.692L195.197,34.692L195.997,34.692L196.397,34.692L196.813,34.692L197.198,34.692L197.598,34.692L198.399,34.692L198.799,34.692L199.216,34.692L199.6,34.692L200,34.692" stroke="#f58518" stroke-width="2"/></g></g><path class="foreground" aria-hidden="true" d="" display="none"/></g><g transform="translate(0,0)"><path class="background" aria-hidden="true" d="M0,0h200v200h-200Z"/><g><g class="mark-line role-mark marks" role="graphics-object" aria-roledescription="line mark container"><path aria-label="Time: Jan 01, 2024; Price: 2499; identifier: altex-LG-F2WR508SBM" role="graphics-symbol" aria-roledescription="line mark" d="M0,7.769L0.252,7.769L0.632,7.769L1.433,7.769L1.833,7.769L2.254,7.769L2.637,7.769L3.034,7.769L3.835,7.769L4.235,7.769L4.657,7.769L5.039,7.769L5.435,7.769L6.237,7.769L6.638,7.769L7.058,7.769L7.444,7.769L7.839,7.769L8.64,27L9.04,27L9.46,27L9.845,27L10.24,27L11.041,27L11.441,27L11.861,27L12.245,27L12.642,27L13.445,27L13.843,27L14.262,27L14.647,27L15.044,27L15.847,27L16.248,27L16.669,27L17.052,27L17.445,27L18.249,27L18.649,27L19.076,27L19.455,27L19.848,27L20.651,27L21.052,27L21.473,27L21.855,27L22.25,27L23.053,27L23.453,27L23.876,27L24.259,27L24.652,27L25.454,27L25.855,27L26.276,27L26.66,27L27.054,27L27.855,38.538L28.255,38.538L28.674,38.538L29.059,38.538L29.456,38.538L30.259,38.538L30.657,38.538L31.076,38.538L31.46,38.538L31.858,38.538L32.661,38.538L33.062,38.538L33.485,38.538L33.867,38.538L34.26,38.538L35.062,38.538L35.465,38.538L35.886,38.538L36.27,38.538L36.662,38.538L37.465,38.538L37.867,38.538L38.289,38.538L38.671,38.538L39.064,38.538L39.866,38.538L40.267,38.538L40.689,38.538L41.071,38.538L41.467,38.538L42.269,38.538L42.67,38.538L43.092,38.538L43.475,38.538L43.868,38.538L44.671,38.538L45.069,38.538L45.489,38.538L45.875,38.538L46.271,38.538L47.071,38.538L47.471,38.538L47.891,38.538L48.276,38.538L48.672,38.538L49.477,38.538L49.878,38.538L50.3,38.538L50.681,38.538L51.074,38.538L51.877,38.538L52.28,38.538L52.702,38.538L53.085,38.538L53.476,38.538L54.28,38.538L54.681,38.538L55.103,38.538L55.486,38.538L55.879,38.538L56.683,38.538L57.082,38.538L57.505,38.538L57.889,38.538L58.28,38.538L59.082,38.538L59.484,38.538L59.899,38.538L60.283,38.538L60.684,38.538L61.483,38.538L61.884,38.538L62.295,38.538L62.684,38.538L63.084,38.538L63.885,38.538L64.286,38.538L64.699,38.538L65.086,38.538L65.487,38.538L66.287,38.538L66.689,38.538L67.104,38.538L67.489,38.538L67.889,38.538L68.689,38.538L69.089,38.538L69.506,38.538L69.896,38.538L70.29,38.538L71.091,38.538L71.492,38.538L71.908,38.538L72.292,38.538L72.692,38.538L73.493,27L73.894,27L74.311,27L74.694,27L75.094,27L75.896,27L76.295,27L76.712,27L77.096,27L77.497,27L78.297,27L78.698,27L79.111,27L79.498,27L79.9,27L80.701,27L81.1,27L81.512,27L81.9,27L82.3,27L83.101,27L83.503,27L83.92,27L84.303,27L84.702,27L85.503,27L85.904,27L86.321,27L86.705,27L87.105,27L87.905,27L88.306,27L88.722,27L89.109,27L89.507,27L90.307,27L90.709,27L91.124,27L91.51,27L91.909,27L92.71,27L93.111,27L93.525,27L93.911,27L94.312,27L95.111,27L95.512,27L95.926,27L96.312,27L96.713,27L97.515,27L97.914,27L98.327,27L98.715,27L99.115,27L99.916,27L100.316,27L100.734,27L101.118,27L101.517,27L102.317,27L102.718,27L103.134,27L103.525,27L103.919,27L104.72,27L105.12,27L105.537,27L105.922,27L106.321,27L107.522,27L107.938,27L108.323,27L108.724,27L109.524,27L109.924,27L110.341,27L110.727,27L111.125,27L111.927,27L112.326,27L112.739,27L113.127,27L113.527,27L114.328,27L114.73,27L115.141,27L115.529,27L115.929,27L116.73,27L117.132,27L117.549,27L117.936,27L118.331,27L119.133,27L119.533,27L119.948,27L120.334,27L120.734,27L121.534,27L121.935,27L122.351,27L122.737,27L123.136,27L123.936,27L124.336,27L124.753,27L125.139,27L125.538,27L126.338,27L126.738,27L127.153,27L127.539,27L127.942,27L128.74,27L129.14,27L129.553,27L129.941,27L130.341,27L131.142,27L131.543,27L131.955,27L132.345,27L132.743,27L133.544,27L133.946,27L134.361,27L134.746,27L135.145,27L135.946,27L136.347,27L136.762,27L137.149,27L137.547,27L138.348,27L138.748,27L139.164,27L139.551,27L139.95,27L140.75,27L141.15,27L141.565,27L141.951,27L142.351,27L143.152,27L143.554,27L143.969,27L144.354,27L144.754,27L145.554,27L145.955,27L146.37,27L146.755,27L147.156,27L147.956,27L148.356,27L148.769,27L149.157,27L149.558,27L150.395,27L150.942,27L151.181,27L151.562,27L151.96,27L152.76,27L153.16,27L153.579,27L153.962,27L154.361,27L155.162,27L155.566,27L155.981,27L156.366,27L156.763,27L157.564,27L157.966,27L158.381,38.538L158.766,38.538L159.166,38.538L159.966,38.538L160.373,38.538L160.783,38.538L161.167,38.538L161.567,38.538L162.369,38.538L162.769,38.538L163.18,38.538L163.571,38.538L163.969,38.538L164.77,38.538L165.173,38.538L165.583,38.538L165.973,38.538L166.371,38.538L167.174,38.538L167.573,38.538L167.991,38.538L168.376,38.538L168.774,38.538L169.575,38.538L169.975,38.538L170.392,38.538L170.779,38.538L171.176,38.538L171.977,38.538L172.38,38.538L172.795,38.538L173.178,38.538L173.578,38.538L174.378,38.538L174.779,38.538L175.197,38.538L175.581,38.538L175.98,38.538L176.78,38.538L177.184,38.538L177.597,38.538L177.983,38.538L178.382,38.538L179.183,38.538L179.585,38.538L179.998,38.538L180.384,38.538L180.785,38.538L181.584,38.538L181.988,38.538L182.399,38.538L182.785,38.538L183.186,38.538L183.986,38.538L184.387,38.538L184.807,38.538L185.192,38.538L185.59,38.538L186.39,38.538L186.789,38.538L187.205,38.538L187.595,38.538L187.99,38.538L188.791,38.538L189.192,38.538L189.608,38.538L189.997,38.538L190.394,38.538L191.193,38.538L191.595,38.538L192.012,38.538L192.4,38.538L192.794,38.538L193.595,38.538L193.995,38.538L194.412,38.538L194.797,38.538L195.197,38.538L195.997,38.538L196.397,38.538L196.813,38.538L197.198,38.538L197.598,38.538L198.399,38.538L198.799,38.538L199.217,38.538L199.6,38.538L200,38.538" stroke="#4c78a8" stroke-width="2"/></g></g><path class="foreground" aria-hidden="true" d="" display="none"/></g></g><g class="mark-group role-legend" role="graphics-symbol" aria-roledescription="legend" aria-label="Symbol legend titled 'identifier' for stroke color with 2 values: altex-LG-F2WR508SBM, altex-LG-F2WR508SBW"><g transform="translate(220,0)"><path class="background" aria-hidden="true" d="M0,0h168v40h-168Z" pointer-events="none"/><g><g class="mark-group role-legend-entry"><g transform="translate(0,16)"><path class="background" aria-hidden="true" d="M0,0h0v0h0Z" pointer-events="none"/><g><g class="mark-group role-scope" role="graphics-object" aria-roledescription="group mark container"><g transform="translate(0,0)"><path class="background" aria-hidden="true" d="M0,0h168v11h-168Z" pointer-events="none" opacity="1"/><g><g class="mark-symbol role-legend-symbol" pointer-events="none"><path transform="translate(6,6)" d="M-5,0L5,0" stroke="#4c78a8" stroke-width="1.5" opacity="1"/></g><g class="mark-text role-legend-label" pointer-events="none"><text text-anchor="start" transform="translate(16,9)" font-family="Liberation Mono" font-size="10px" fill="#000" opacity="1">altex-LG-F2WR508SBM</text></g></g><path class="foreground" aria-hidden="true" d="" pointer-events="none" display="none"/></g><g transform="translate(0,13)"><path class="background" aria-hidden="true" d="M0,0h168v11h-168Z" pointer-events="none" opacity="1"/><g><g class="mark-symbol role-legend-symbol" pointer-events="none"><path transform="translate(6,6)" d="M-5,0L5,0" stroke="#f58518" stroke-width="1.5" opacity="1"/></g><g class="mark-text role-legend-label" pointer-events="none"><text text-anchor="start" transform="translate(16,9)" font-family="Liberation Mono" font-size="10px" fill="#000" opacity="1">altex-LG-F2WR508SBW</text></g></g><path class="foreground" aria-hidden="true" d="" pointer-events="none" display="none"/></g></g></g><path class="foreground" aria-hidden="true" d="" pointer-events="none" display="none"/></g></g><g class="mark-text role-legend-title" pointer-events="none"><text text-anchor="start" transform="translate(0,9)" font-family="Liberation Mono" font-size="11px" font-weight="bold" fill="#000" opacity="1">identifier</text></g></g><path class="foreground" aria-hidden="true" d="" pointer-events="none" display="none"/></g></g></g><path class="foreground" aria-hidden="true" d="" display="none"/></g></g></g></svg>