<svg xmlns="http://www.w3.org/2000/svg" xmlns:xlink="http://www.w3.org/1999/xlink" version="1.1" class="marks" width="460" height="242" viewBox="0 0 460 242"><rect width="460" height="242" fill="white"/><g fill="none" stroke-miterlimit="10" transform="translate(67,5)"><g class="mark-group role-frame root" role="graphics-object" aria-roledescription="group mark container"><g transform="translate(0,0)"><path class="background" aria-hidden="true" d="M0.5,0.5h200v200h-200Z" stroke="#ddd"/><g><g class="mark-group role-axis" aria-hidden="true"><g transform="translate(0.5,200.5)"><path class="background" aria-hidden="true" d="M0,0h0v0h0Z" pointer-events="none"/><g><g class="mark-rule role-axis-grid" pointer-events="none"><line transform="translate(41,-200)" x2="0" y2="200" stroke="#ddd" stroke-width="1" opacity="1"/><line transform="translate(82,-200)" x2="0" y2="200" stroke="#ddd" stroke-width="1" opacity="1"/><line transform="translate(124,-200)" x2="0" y2="200" stroke="#ddd" stroke-width="1" opacity="1"/><line transform="translate(166,-200)" x2="0" y2="200" stroke="#ddd" stroke-width="1" opacity="1"/></g></g><path class="foreground" aria-hidden="true" d="" pointer-events="none" display="none"/></g></g><g class="mark-group role-axis" aria-hidden="true"><g transform="translate(0.5,0.5)"><path class="background" aria-hidden="true" d="M0,0h0v0h0Z" pointer-events="none"/><g><g class="mark-rule role-axis-grid" pointer-events="none"><line transform="translate(0,200)" x2="200" y2="0" stroke="#ddd" stroke-width="1" opacity="1"/><line transform="translate(0,162)" x2="200" y2="0" stroke="#ddd" stroke-width="1" opacity="1"/><line transform="translate(0,123)" x2="200" y2="0" stroke="#ddd" stroke-width="1" opacity="1"/><line transform="translate(0,85)" x2="200" y2="0" stroke="#ddd" stroke-width="1" opacity="1"/><line transform="translate(0,46)" x2="200" y2="0" stroke="#ddd" stroke-width="1" opacity="1"/><line transform="translate(0,8)" x2="200" y2="0" stroke="#ddd" stroke-width="1" opacity="1"/></g></g><path class="foreground" aria-hidden="true" d="" pointer-events="none" display="none"/></g></g><g class="mark-group role-axis" role="graphics-symbol" aria-roledescription="axis" aria-label="X-axis titled 'Time' for a time scale with values from Monday, 01 January 2024, 2:19:43 PM to Sunday, 16 March 2025, 12:58:14 PM"><g transform="translate(0.5,200.5)"><path class="background" aria-hidden="true" d="M0,0h0v0h0Z" pointer-events="none"/><g><g class="mark-rule role-axis-tick" pointer-events="none"><line transform="translate(41,0)" x2="0" y2="5" stroke="#888" stroke-width="1" opacity="1"/><line transform="translate(82,0)" x2="0" y2="5" stroke="#888" stroke-width="1" opacity="1"/><line transform="translate(124,0)" x2="0" y2="5" stroke="#888" stroke-width="1" opacity="1"/><line transform="translate(166,0)" x2="0" y2="5" stroke="#888" stroke-width="1" opacity="1"/></g><g class="mark-text role-axis-label" pointer-events="none"><text text-anchor="middle" transform="translate(41.09754508068126,15)" font-family="Liberation Mono" font-size="10px" fill="#000" opacity="1">April</text><text text-anchor="middle" transform="translate(82.46650090266799,15)" font-family="Liberation Mono" font-size="10px" fill="#000" opacity="0">July</text><text text-anchor="middle" transform="translate(124.29006063478644,15)" font-family="Liberation Mono" font-size="10px" fill="#000" opacity="0">October</text><text text-anchor="middle" transform="translate(166.1136203669049,15)" font-family="Liberation Mono" font-size="10px" fill="#000" opacity="1">2025</text></g><g class="mark-rule role-axis-domain" pointer-events="none"><line transform="translate(0,0)" x2="200" y2="0" stroke="#888" stroke-width="1" opacity="1"/></g><g class="mark-text role-axis-title" pointer-events="none"><text text-anchor="middle" transform="translate(100,30)" font-family="Liberation Mono" font-size="11px" font-weight="bold" fill="#000" opacity="1">Time</text></g></g><path class="foreground" aria-hidden="true" d="" pointer-events="none" display="none"/></g></g><g class="mark-group role-axis" role="graphics-symbol" aria-roledescription="axis" aria-label="Y-axis titled 'Price' for a linear scale with values from 0 to 2,600"><g transform="translate(0.5,0.5)"><path class="background" aria-hidden="true" d="M0,0h0v0h0Z" pointer-events="none"/><g><g class="mark-rule role-axis-tick" pointer-events="none"><line transform="translate(0,200)" x2="-5" y2="0" stroke="#888" stroke-width="1" opacity="1"/><line transform="translate(0,162)" x2="-5" y2="0" stroke="#888" stroke-width="1" opacity="1"/><line transform="translate(0,123)" x2="-5" y2="0" stroke="#888" stroke-width="1" opacity="1"/><line transform="translate(0,85)" x2="-5" y2="0" stroke="#888" stroke-width="1" opacity="1"/><line transform="translate(0,46)" x2="-5" y2="0" stroke="#888" stroke-width="1" opacity="1"/><line transform="translate(0,8)" x2="-5" y2="0" stroke="#888" stroke-width="1" opacity="1"/></g><g class="mark-text role-axis-label" pointer-events="none"><text text-anchor="end" transform="translate(-7,203)" font-family="Liberation Mono" font-size="10px" fill="#000" opacity="1">0</text><text text-anchor="end" transform="translate(-7,164.53846153846155)" font-family="Liberation Mono" font-size="10px" fill="#000" opacity="1">500</text><text text-anchor="end" transform="translate(-7,126.07692307692308)" font-family="Liberation Mono" font-size="10px" fill="#000" opacity="1">1,000</text><text text-anchor="end" transform="translate(-7,87.61538461538463)" font-family="Liberation Mono" font-size="10px" fill="#000" opacity="1">1,500</text><text text-anchor="end" transform="translate(-7,49.153846153846146)" font-family="Liberation Mono" font-size="10px" fill="#000" opacity="1">2,000</text><text text-anchor="end" transform="translate(-7,10.692307692307686)" font-family="Liberation Mono" font-size="10px" fill="#000" opacity="1">2,500</text></g><g class="mark-rule role-axis-domain" pointer-events="none"><line transform="translate(0,200)" x2="0" y2="-200" stroke="#888" stroke-width="1" opacity="1"/></g><g class="mark-text role-axis-title" pointer-events="none"><text text-anchor="middle" transform="translate(-51,100) rotate(-90) translate(0,-2)" font-family="Liberation Mono" font-size="11px" font-weight="bold" fill="#000" opacity="1">Price</text></g></g><path class="foreground" aria-hidden="true" d="" pointer-events="none" display="none"/></g></g><g class="mark-group role-scope pathgroup" role="graphics-object" aria-roledescription="group mark container"><g transform="translate(0,0)"><path class="background" aria-hidden="true" d="M0,0h200v200h-200Z"/><g><g class="mark-line role-mark marks" role="graphics-object" aria-roledescription="line mark container"><path aria-label="Time: Jan 01, 2024; Price: 2399; identifier: altex-LG-F2WR508SBW" role="graphics-symbol" aria-roledescription="line mark" d="M0,15.462L0.048,15.462L0.12,15.462L0.271,15.462L0.347,15.462L0.427,15.462L0.499,15.462L0.574,15.462L0.726,15.462L0.802,15.462L0.881,15.462L0.954,15.462L1.029,15.462L1.18,15.462L1.256,15.462L1.336,15.462L1.409,15.462L1.483,15.462L1.635,34.692L1.711,34.692L1.79,34.692L1.863,34.692L1.938,34.692L2.09,34.692L2.165,34.692L2.245,34.692L2.317,34.692L2.393,34.692L2.545,34.692L2.62,34.692L2.699,34.692L2.772,34.692L2.847,34.692L2.999,34.692L3.075,34.692L3.155,34.692L3.227,34.692L3.302,34.692L3.454,34.692L3.53,34.692L3.61,34.692L3.682,34.692L3.756,34.692L3.908,34.692L3.984,34.692L4.064,34.692L4.136,34.692L4.211,34.692L4.363,34.692L4.439,34.692L4.519,34.692L4.591,34.692L4.666,34.692L4.817,34.692L4.893,34.692L4.973,34.692L5.046,34.692L5.12,34.692L5.272,46.231L5.347,46.231L5.427,46.231L5.5,46.231L5.575,46.231L5.727,46.231L5.802,46.231L5.881,46.231L5.954,46.231L6.029,46.231L6.181,46.231L6.257,46.231L6.337,46.231L6.41,46.231L6.484,46.231L6.636,46.231L6.712,46.231L6.792,46.231L6.864,46.231L6.939,46.231L7.09,46.231L7.167,46.231L7.246,46.231L7.319,46.231L7.393,46.231L7.545,46.231L7.621,46.231L7.701,46.231L7.773,46.231L7.848,46.231L8,46.231L8.076,46.231L8.155,46.231L8.228,46.231L8.302,46.231L8.454,46.231L8.53,46.231L8.609,46.231L8.682,46.231L8.757,46.231L8.909,46.231L8.984,46.231L9.064,46.231L9.137,46.231L9.212,46.231L9.364,46.231L9.44,46.231L9.52,46.231L9.592,46.231L9.666,46.231L9.818,46.231L9.894,46.231L9.974,46.231L10.047,46.231L10.121,46.231L10.273,46.231L10.349,46.231L10.429,46.231L10.501,46.231L10.575,46.231L10.728,46.231L10.803,46.231L10.883,46.231L10.956,46.231L11.03,46.231L11.182,46.231L11.258,46.231L11.336,46.231L11.409,46.231L11.485,46.231L11.636,46.231L11.712,46.231L11.79,46.231L11.863,46.231L11.939,46.231L12.091,46.231L12.167,46.231L12.245,46.231L12.318,46.231L12.394,46.231L12.545,46.231L12.621,46.231L12.7,46.231L12.773,46.231L12.849,46.231L13,46.231L13.076,46.231L13.155,46.231L13.228,46.231L13.303,46.231L13.454,46.231L13.53,46.231L13.609,46.231L13.682,46.231L13.758,46.231L13.909,34.692L13.985,34.692L14.064,34.692L14.136,34.692L14.212,34.692L14.364,34.692L14.44,34.692L14.518,34.692L14.591,34.692L14.667,34.692L14.818,34.692L14.894,34.692L14.972,34.692L15.046,34.692L15.122,34.692L15.273,34.692L15.349,34.692L15.427,34.692L15.5,34.692L15.576,34.692L15.728,34.692L15.804,34.692L15.882,34.692L15.955,34.692L16.031,34.692L16.182,34.692L16.258,34.692L16.337,34.692L16.41,34.692L16.485,34.692L16.637,34.692L16.713,34.692L16.791,34.692L16.865,34.692L16.94,34.692L17.091,34.692L17.167,34.692L17.246,34.692L17.319,34.692L17.394,34.692L17.546,34.692L17.622,34.692L17.7,34.692L17.773,34.692L17.849,34.692L18.001,34.692L18.076,34.692L18.155,34.692L18.228,34.692L18.304,34.692L18.456,34.692L18.531,34.692L18.609,34.692L18.683,34.692L18.758,34.692L18.91,34.692L18.986,34.692L19.065,34.692L19.137,34.692L19.213,34.692L19.364,34.692L19.44,34.692L19.519,34.692L19.593,34.692L19.668,34.692L19.819,34.692L19.895,34.692L19.974,34.692L20.047,34.692L20.122,34.692L20.349,34.692L20.428,34.692L20.501,34.692L20.577,34.692L20.728,34.692L20.804,34.692L20.883,34.692L20.956,34.692L21.031,34.692L21.183,34.692L21.259,34.692L21.337,34.692L21.41,34.692L21.486,34.692L21.638,34.692L21.714,34.692L21.791,34.692L21.865,34.692L21.941,34.692L22.092,34.692L22.168,34.692L22.247,34.692L22.32,34.692L22.395,34.692L22.547,34.692L22.623,34.692L22.701,34.692L22.774,34.692L22.85,34.692L23.001,34.692L23.077,34.692L23.156,34.692L23.229,34.692L23.304,34.692L23.456,34.692L23.532,34.692L23.61,34.692L23.683,34.692L23.759,34.692L23.91,34.692L23.986,34.692L24.065,34.692L24.138,34.692L24.214,34.692L24.365,34.692L24.441,34.692L24.519,34.692L24.592,34.692L24.668,34.692L24.82,34.692L24.896,34.692L24.974,34.692L25.047,34.692L25.123,34.692L25.274,34.692L25.35,34.692L25.429,34.692L25.502,34.692L25.577,34.692L25.729,34.692L25.805,34.692L25.883,34.692L25.956,34.692L26.032,34.692L26.184,34.692L26.259,34.692L26.338,34.692L26.411,34.692L26.487,34.692L26.638,34.692L26.714,34.692L26.792,34.692L26.865,34.692L26.941,34.692L27.093,34.692L27.169,34.692L27.247,34.692L27.32,34.692L27.396,34.692L27.547,34.692L27.623,34.692L27.702,34.692L27.775,34.692L27.85,34.692L28.002,34.692L28.078,34.692L28.156,34.692L28.229,34.692L28.305,34.692L28.463,34.692L28.567,34.692L28.612,34.692L28.684,34.692L28.76,34.692L28.911,34.692L28.987,34.692L29.066,34.692L29.139,34.692L29.214,34.692L29.366,34.692L29.442,34.692L29.521,34.692L29.594,34.692L29.669,34.692L29.82,34.692L29.896,34.692L29.975,34.692L30.048,34.692L30.123,34.692L30.275,34.692L30.352,34.692L30.429,34.692L30.502,34.692L30.578,34.692L30.73,34.692L30.805,34.692L30.883,34.692L30.957,34.692L31.032,34.692L31.184,34.692L31.26,34.692L31.338,34.692L31.412,34.692L31.487,34.692L31.639,34.692L31.714,34.692L31.794,34.692L31.867,34.692L31.942,34.692L32.093,34.692L32.169,34.692L32.248,34.692L32.321,34.692L32.396,34.692L32.548,34.692L32.624,34.692L32.703,34.692L32.775,34.692L32.851,34.692L33.003,34.692L33.078,34.692L33.157,34.692L33.23,34.692L33.306,34.692L33.457,34.692L33.533,34.692L33.612,34.692L33.685,34.692L33.76,34.692L33.912,34.692L33.988,34.692L34.066,34.692L34.139,34.692L34.215,34.692L34.366,34.692L34.443,34.692L34.52,34.692L34.594,34.692L34.669,34.692L34.821,34.692L34.897,34.692L34.976,34.692L35.049,34.692L35.124,34.692L35.276,34.692L35.351,34.692L35.43,34.692L35.504,34.692L35.579,34.692L35.73,34.692L35.806,34.692L35.885,34.692L35.958,34.692L36.034,34.692L36.185,34.692L36.261,34.692L36.34,34.692L36.413,34.692L36.488,34.692L36.639,34.692L36.715,34.692L36.794,34.692L36.867,34.692L36.943,34.692L37.094,34.692L37.17,34.692L37.248,34.692L37.321,34.692L37.397,34.692L37.549,34.692L37.624,34.692L37.703,34.692L37.776,34.692L37.852,34.692L38.003,34.692L38.079,34.692L38.158,34.692L38.231,34.692L38.306,34.692L38.458,34.692L38.534,34.692L38.613,34.692L38.686,34.692L38.761,34.692L38.913,34.692L38.988,34.692L39.067,34.692L39.141,34.692L39.216,34.692L39.367,34.692L39.443,34.692L39.522,34.692L39.595,34.692L39.67,34.692L39.822,34.692L39.897,34.692L39.977,34.692L40.049,34.692L40.125,34.692L40.276,34.692L40.352,34.692L40.43,34.692L40.504,34.692L40.58,34.692L40.731,34.692L40.807,34.692L40.885,34.692L40.958,34.692L41.034,34.692L41.185,34.692L41.262,34.692L41.341,34.692L41.414,34.692L41.488,34.692L41.64,34.692L41.716,34.692L41.795,34.692L41.868,34.692L41.943,34.692L42.095,34.692L42.17,34.692L42.249,34.692L42.323,34.692L42.398,34.692L42.549,34.692L42.625,34.692L42.704,34.692L42.777,34.692L42.852,34.692L43.004,34.692L43.158,34.692L43.232,34.692L43.307,34.692L43.459,34.692L43.534,34.692L43.612,34.692L43.686,34.692L43.761,34.692L43.913,34.692L43.989,34.692L44.067,34.692L44.14,34.692L44.216,34.692L44.368,34.692L44.443,34.692L44.523,34.692L44.596,34.692L44.671,34.692L44.822,34.692L44.898,34.692L44.977,34.692L45.05,34.692L45.125,34.692L45.277,34.692L45.353,34.692L45.432,34.692L45.505,34.692L45.58,34.692L45.732,34.692L45.808,34.692L45.886,34.692L46.035,34.692L46.186,34.692L46.262,34.692L46.341,34.692L46.413,34.692L46.489,34.692L46.641,34.692L46.716,34.692L46.794,34.692L46.868,34.692L46.944,34.692L47.102,34.692L47.219,34.692L47.29,34.692L47.437,34.692L47.551,34.692L47.626,34.692L47.704,34.692L47.777,34.692L47.853,34.692L48.005,34.692L48.08,34.692L48.16,34.692L48.232,34.692L48.308,34.692L48.459,34.692L48.535,34.692L48.614,34.692L48.687,34.692L48.762,34.692L48.99,34.692L49.069,34.692L49.141,34.692L49.217,34.692L49.368,34.692L49.444,34.692L49.523,34.692L49.596,34.692L49.671,34.692L49.823,34.692L49.899,34.692L49.977,34.692L50.05,34.692L50.126,34.692L50.278,34.692L50.353,34.692L50.432,34.692L50.505,34.692L50.581,34.692L50.732,34.692L50.808,34.692L50.888,34.692L50.96,34.692L51.035,34.692L51.187,34.692L51.263,34.692L51.342,34.692L51.415,34.692L51.49,34.692L51.641,34.692L51.718,34.692L51.799,34.692L51.869,34.692L51.945,34.692L52.096,34.692L52.172,34.692L52.249,34.692L52.324,34.692L52.399,34.692L52.551,34.692L52.627,34.692L52.706,34.692L52.778,34.692L52.854,34.692L53.005,34.692L53.081,34.692L53.159,34.692L53.232,34.692L53.308,34.692L53.46,34.692L53.536,34.692L53.615,34.692L53.687,34.692L53.763,34.692L53.914,34.692L53.991,34.692L54.07,34.692L54.142,34.692L54.217,34.692L54.369,34.692L54.445,34.692L54.524,34.692L54.597,34.692L54.672,34.692L54.824,34.692L54.901,34.692L54.979,34.692L55.051,34.692L55.127,34.692L55.279,57.769L55.354,57.769L55.434,57.769L55.506,57.769L55.582,57.769L55.733,57.769L55.809,57.769L55.888,57.769L55.961,57.769L56.036,57.769L56.187,57.769L56.263,57.769L56.342,57.769L56.415,57.769L56.49,57.769L56.642,57.769L56.718,57.769L56.797,57.769L56.87,57.769L56.945,57.769L57.097,57.769L57.173,57.769L57.252,57.769L57.325,57.769L57.4,57.769L57.551,57.769L57.627,57.769L57.706,57.769L57.779,57.769L57.854,57.769L58.006,57.769L58.082,57.769L58.162,57.769L58.234,57.769L58.309,57.769L58.461,34.692L58.537,34.692L58.616,34.692L58.689,34.692L58.764,34.692L58.915,34.692L58.991,34.692L59.071,34.692L59.143,34.692L59.218,34.692L59.37,34.692L59.445,34.692L59.524,34.692L59.597,34.692L59.673,34.692L59.824,34.692L59.9,34.692L59.979,34.692L60.052,34.692L60.127,34.692L60.279,34.692L60.355,34.692L60.435,34.692L60.507,34.692L60.582,34.692L60.733,34.692L60.81,34.692L60.889,34.692L60.962,34.692L61.036,34.692L61.188,34.692L61.264,34.692L61.344,34.692L61.416,34.692L61.491,34.692L61.643,34.692L61.719,34.692L61.799,34.692L61.87,34.692L61.946,34.692L62.097,34.692L62.173,34.692L62.253,34.692L62.325,34.692L62.4,34.692L62.552,34.692L62.628,34.692L62.707,34.692L62.779,34.692L62.855,34.692L63.007,34.692L63.082,34.692L63.162,34.692L63.234,34.692L63.31,34.692L63.462,34.692L63.537,34.692L63.617,34.692L63.689,34.692L63.764,34.692L63.916,34.692L63.992,34.692L64.072,34.692L64.144,34.692L64.219,34.692L64.371,34.692L64.447,34.692L64.526,34.692L64.599,34.692L64.673,34.692L64.825,34.692L64.901,34.692L64.981,34.692L65.053,34.692L65.128,34.692L65.28,34.692L65.356,34.692L65.435,34.692L65.507,34.692L65.583,34.692L65.734,34.692L65.81,34.692L65.889,34.692L65.962,34.692L66.037,34.692L66.189,34.692L66.264,34.692L66.344,34.692L66.416,34.692L66.492,34.692L66.643,34.692L66.72,34.692L66.799,34.692L66.872,34.692L66.946,34.692L67.099,34.692L67.174,34.692L67.254,34.692L67.326,34.692L67.401,34.692L67.553,34.692L67.629,34.692L67.709,34.692L67.781,34.692L67.855,34.692L68.008,34.692L68.083,34.692L68.163,34.692L68.235,34.692L68.31,34.692L68.462,34.692L68.538,34.692L68.618,34.692L68.69,34.692L68.765,34.692L68.916,34.692L68.992,34.692L69.071,34.692L69.144,34.692L69.219,34.692L69.371,34.692L69.447,34.692L69.526,34.692L69.599,34.692L69.674,34.692L69.826,34.692L69.902,34.692L69.982,34.692L70.054,34.692L70.129,34.692L70.28,34.692L70.357,34.692L70.436,34.692L70.509,34.692L70.583,34.692L70.736,34.692L70.811,34.692L70.891,34.692L70.963,34.692L71.038,34.692L71.19,34.692L71.266,34.692L71.346,34.692L71.417,34.692L71.492,34.692L71.644,34.692L71.72,34.692L71.8,34.692L71.873,34.692L71.947,34.692L72.099,34.692L72.174,34.692L72.254,34.692L72.327,34.692L72.402,34.692L72.553,34.692L72.629,34.692L72.709,34.692L72.781,34.692L72.856,34.692L73.009,34.692L73.084,34.692L73.164,34.692L73.236,34.692L73.311,34.692L73.463,34.692L73.539,34.692L73.619,34.692L73.691,34.692L73.766,34.692L73.917,34.692L73.993,46.231L74.073,46.231L74.145,46.231L74.22,46.231L74.372,46.231L74.448,46.231L74.528,46.231L74.601,46.231L74.675,46.231L74.826,46.231L74.902,46.231L74.982,48.538L75.054,48.538L75.13,48.538L75.282,48.538L75.357,48.538L75.436,48.538L75.509,48.538L75.584,48.538L75.735,48.538L75.812,48.538L75.891,48.538L75.963,48.538L76.038,48.538L76.191,48.538L76.267,48.538L76.347,48.538L76.418,48.538L76.493,48.538L76.645,48.538L76.721,48.538L76.801,48.538L76.873,48.538L76.948,48.538L77.1,48.538L77.176,48.538L77.256,48.538L77.328,48.538L77.402,48.538L77.554,48.538L77.63,48.538L77.71,48.538L77.783,48.538L77.857,48.538L78.009,48.538L78.085,48.538L78.164,48.538L78.236,48.538L78.312,48.538L78.463,48.538L78.539,48.538L78.619,48.538L78.691,48.538L78.766,48.538L78.918,48.538L78.993,48.538L79.073,48.538L79.145,48.538L79.221,48.538L79.373,48.538L79.449,48.538L79.529,48.538L79.6,48.538L79.675,48.538L79.827,48.538L79.903,48.538L79.983,48.538L80.13,48.538L80.282,48.538L80.358,48.538L80.438,48.538L80.51,48.538L80.585,48.538L80.737,48.538L80.813,48.538L80.892,48.538L80.965,48.538L81.039,48.538L81.191,48.538L81.267,48.538L81.347,48.538L81.419,48.538L81.494,48.538L81.646,48.538L81.721,48.538L81.801,48.538L81.873,48.538L81.948,48.538L82.1,48.538L82.176,48.538L82.256,48.538L82.328,48.538L82.403,48.538L82.555,48.538L82.631,48.538L82.711,48.538L82.783,48.538L82.857,48.538L83.01,48.538L83.086,48.538L83.165,48.538L83.238,48.538L83.312,48.538L83.464,48.538L83.54,48.538L83.62,48.538L83.693,48.538L83.767,48.538L83.919,48.538L83.995,48.538L84.075,48.538L84.146,48.538L84.222,48.538L84.374,48.538L84.449,48.538L84.529,48.538L84.601,48.538L84.676,48.538L84.828,48.538L84.904,48.538L84.983,48.538L85.056,48.538L85.131,48.538L85.282,48.538L85.358,48.538L85.438,48.538L85.51,48.538L85.585,48.538L85.737,48.538L85.813,48.538L85.893,48.538L85.965,48.538L86.04,48.538L86.192,48.538L86.268,48.538L86.348,48.538L86.42,48.538L86.495,48.538L86.647,48.538L86.723,48.538L86.803,48.538L86.874,48.538L86.949,48.538L87.101,48.538L87.177,48.538L87.257,48.538L87.329,48.538L87.404,48.538L87.555,48.538L87.632,48.538L87.712,48.538L87.783,48.538L87.858,48.538L88.01,48.538L88.085,48.538L88.165,48.538L88.237,48.538L88.313,48.538L88.465,48.538L88.541,48.538L88.625,48.538L88.696,48.538L88.767,48.538L88.92,48.538L88.995,48.538L89.076,48.538L89.148,48.538L89.222,48.538L89.374,48.538L89.45,48.538L89.529,48.538L89.602,48.538L89.676,48.538L89.828,48.538L89.905,48.538L89.985,48.538L90.057,48.538L90.131,48.538L90.284,48.538L90.359,48.538L90.44,48.538L90.511,48.538L90.586,48.538L90.738,48.538L90.814,48.538L90.894,48.538L90.966,48.538L91.041,48.538L91.193,48.538L91.268,48.538L91.348,48.538L91.42,48.538L91.495,48.538L91.647,48.538L91.722,48.538L91.802,48.538L91.875,48.538L91.95,48.538L92.102,48.538L92.178,48.538L92.258,48.538L92.33,48.538L92.404,48.538L92.556,48.538L92.633,48.538L92.712,48.538L92.784,48.538L92.859,48.538L93.011,27L93.087,27L93.167,27L93.239,27L93.314,27L93.466,27L93.542,27L93.622,27L93.694,27L93.768,27L93.921,27L93.996,27L94.076,27L94.149,27L94.223,27L94.375,27L94.45,27L94.531,27L94.602,27L94.677,27L94.829,27L94.905,27L94.984,27L95.057,27L95.132,27L95.284,27L95.36,27L95.44,27L95.512,27L95.587,27L95.739,27L95.814,27L95.895,27L95.967,27L96.041,27L96.193,27L96.268,27L96.349,27L96.421,27L96.496,27L96.648,27L96.724,27L96.804,27L96.876,27L96.951,27L97.103,27L97.178,27L97.258,27L97.331,27L97.405,27L97.557,27L97.633,27L97.712,27L97.785,27L97.859,27L98.012,27L98.087,27L98.167,27L98.239,27L98.315,27L98.466,27L98.542,27L98.623,27L98.694,27L98.769,27L98.921,27L98.997,27L99.077,27L99.149,27L99.223,27L99.376,27L99.451,27L99.532,27L99.604,27L99.678,27L99.83,27L99.906,27L99.986,27L100.058,27L100.133,27L100.285,27L100.361,27L100.441,27L100.513,27L100.587,27L100.74,27L100.815,27L100.895,27L100.968,27L101.042,27L101.194,27L101.269,27L101.349,27L101.421,27L101.497,27L101.649,27L101.725,27L101.805,27L101.877,27L101.951,27L102.103,27L102.179,27L102.26,27L102.332,27L102.406,27L102.558,27L102.634,27L102.714,27L102.786,27L102.86,27L103.012,27L103.088,27L103.169,27L103.24,27L103.315,27L103.467,27L103.543,27L103.623,27L103.695,27L103.769,27L103.922,27L103.997,27L104.077,27L104.149,27L104.225,27L104.376,27L104.452,27L104.532,27L104.604,27L104.678,27L104.831,27L104.907,27L104.987,27L105.059,27L105.133,27L105.286,27L105.361,27L105.442,27L105.513,27L105.588,27L105.74,27L105.816,27L105.895,27L105.968,27L106.043,27L106.194,27L106.271,27L106.351,27L106.423,27L106.497,27L106.649,27L106.725,27L106.805,27L106.877,27L106.951,27L107.104,27L107.179,27L107.26,27L107.331,27L107.406,27L107.558,27L107.634,27L107.714,27L107.786,27L107.861,27L108.014,27L108.089,27L108.17,27L108.241,27L108.316,27L108.468,27L108.544,27L108.624,27L108.696,27L108.77,27L108.923,27L108.999,27L109.079,27L109.151,27L109.225,27L109.377,27L109.453,27L109.534,27L109.605,27L109.679,27L109.832,27L109.908,27L109.988,27L110.06,27L110.134,27L110.286,27L110.362,27L110.442,27L110.514,27L110.589,27L110.741,27L110.817,27L110.897,27L110.969,27L111.043,27L111.196,27L111.272,27L111.352,27L111.424,27L111.498,27L111.65,27L111.726,27L111.807,27L111.878,27L111.953,27L112.105,27L112.181,27L112.262,27L112.333,27L112.408,27L112.56,27L112.636,27L112.716,27L112.787,27L112.862,27L113.014,27L113.09,27L113.17,27L113.243,27L113.316,27L113.468,27L113.544,27L113.624,27L113.696,27L113.771,27L113.923,27L113.999,27L114.079,27L114.151,27L114.226,27L114.378,27L114.455,27L114.535,27L114.606,27L114.68,27L114.832,27L114.909,27L114.99,27L115.06,27L115.135,27L115.288,27L115.363,27L115.444,27L115.515,27L115.589,27L115.742,27L115.818,27L115.898,27L115.97,27L116.044,27L116.196,27L116.272,27L116.353,27L116.424,27L116.499,27L116.651,46.231L116.727,46.231L116.807,46.231L116.878,46.231L116.953,46.231L117.106,46.231L117.181,46.231L117.261,46.231L117.333,46.231L117.408,46.231L117.561,46.231L117.637,46.231L117.717,46.231L117.789,46.231L117.863,46.231L118.014,46.231L118.091,46.231L118.172,46.231L118.243,46.231L118.317,46.231L118.47,46.231L118.546,46.231L118.626,46.231L118.697,46.231L118.772,46.231L118.924,53.923L119,53.923L119.081,53.923L119.152,53.923L119.226,53.923L119.379,53.923L119.455,53.923L119.535,53.923L119.607,53.923L119.681,53.923L119.833,53.923L119.909,53.923L119.989,53.923L120.061,53.923L120.135,53.923L120.289,53.923L120.363,53.923L120.444,53.923L120.515,53.923L120.59,53.923L120.743,53.923L120.819,53.923L120.9,53.923L120.971,53.923L121.045,53.923L121.197,53.923L121.274,53.923L121.354,53.923L121.425,53.923L121.5,53.923L121.652,53.923L121.729,53.923L121.809,53.923L121.881,53.923L121.954,53.923L122.107,23.154L122.183,23.154L122.264,23.154L122.335,23.154L122.409,23.154L122.561,23.154L122.637,23.154L122.718,23.154L122.789,23.154L123.015,23.154L123.091,23.154L123.172,23.154L123.243,23.154L123.318,23.154L123.47,23.154L123.546,23.154L123.626,23.154L123.698,23.154L123.772,23.154L123.925,23.154L124.002,23.154L124.083,23.154L124.154,23.154L124.227,23.154L124.38,23.154L124.456,23.154L124.537,23.154L124.608,23.154L124.682,23.154L124.834,23.154L124.91,23.154L124.991,23.154L125.062,23.154L125.137,23.154L125.289,23.154L125.365,23.154L125.446,23.154L125.517,23.154L125.591,23.154L125.743,23.154L125.819,23.154L125.9,23.154L125.971,23.154L126.046,23.154L126.198,23.154L126.274,23.154L126.354,23.154L126.425,23.154L126.5,23.154L126.652,23.154L126.728,23.154L126.808,23.154L126.88,23.154L126.954,23.154L127.107,23.154L127.184,23.154L127.264,23.154L127.335,23.154L127.41,23.154L127.562,23.154L127.638,23.154L127.718,23.154L127.79,23.154L127.864,23.154L128.016,23.154L128.093,23.154L128.173,23.154L128.244,23.154L128.319,23.154L128.471,23.154L128.547,23.154L128.628,23.154L128.699,23.154L128.773,23.154L128.926,23.154L129.002,23.154L129.082,23.154L129.153,23.154L129.228,23.154L129.38,23.154L129.456,23.154L129.536,23.154L129.608,23.154L129.682,23.154L129.835,23.154L129.91,23.154L129.991,23.154L130.062,23.154L130.137,23.154L130.29,23.154L130.366,23.154L130.447,23.154L130.518,23.154L130.592,23.154L130.744,23.154L130.82,23.154L130.901,23.154L130.972,23.154L131.046,23.154L131.199,23.154L131.275,23.154L131.356,23.154L131.426,23.154L131.501,23.154L131.654,23.154L131.729,23.154L131.81,23.154L131.882,23.154L131.956,23.154L132.108,23.154L132.184,23.154L132.265,23.154L132.336,23.154L132.41,23.154L132.562,23.154L132.638,23.154L132.718,23.154L132.79,23.154L132.865,23.154L133.017,23.154L133.093,23.154L133.173,23.154L133.244,23.154L133.319,23.154L133.472,23.154L133.548,23.154L133.629,23.154L133.7,23.154L133.774,23.154L133.927,23.154L134.003,23.154L134.083,23.154L134.155,23.154L134.228,23.154L134.381,23.154L134.457,23.154L134.538,23.154L134.61,23.154L134.684,23.154L134.836,23.154L134.912,23.154L134.993,23.154L135.064,23.154L135.138,23.154L135.29,23.154L135.366,23.154L135.447,23.154L135.518,23.154L135.592,23.154L135.745,23.154L135.82,23.154L135.9,23.154L135.972,23.154L136.047,23.154L136.199,23.154L136.275,23.154L136.355,23.154L136.427,23.154L136.502,23.154L136.654,23.154L136.73,23.154L136.811,23.154L136.883,23.154L136.956,23.154L137.109,23.154L137.185,23.154L137.266,23.154L137.337,23.154L137.411,23.154L137.563,23.154L137.64,23.154L137.72,23.154L137.792,23.154L137.865,23.154L138.175,23.154L138.246,23.154L138.32,23.154L138.472,23.154L138.548,23.154L138.629,23.154L138.7,23.154L138.774,23.154L138.927,23.154L139.002,23.154L139.083,23.154L139.155,23.154L139.229,23.154L139.381,23.154L139.457,23.154L139.537,23.154L139.609,23.154L139.683,23.154L139.836,23.154L139.912,23.154L139.993,23.154L140.064,23.154L140.138,23.154L140.29,23.154L140.367,23.154L140.447,23.154L140.518,23.154L140.593,23.154L140.746,23.154L140.821,23.154L140.902,23.154L140.973,23.154L141.047,23.154L141.2,58.538L141.276,58.538L141.356,58.538L141.428,58.538L141.502,58.538L141.654,58.538L141.73,58.538L141.811,58.538L141.882,58.538L141.956,58.538L142.109,58.538L142.184,58.538L142.264,58.538L142.336,58.538L142.411,58.538L142.563,58.538L142.639,58.538L142.719,58.538L142.791,58.538L142.865,58.538L143.018,58.538L143.095,58.538L143.175,58.538L143.246,58.538L143.32,58.538L143.473,58.538L143.549,58.538L143.63,58.538L143.701,58.538L143.775,58.538L143.927,58.538L144.004,58.538L144.084,58.538L144.156,58.538L144.23,58.538L144.382,23.154L144.458,23.154L144.539,23.154L144.61,23.154L144.685,23.154L144.837,23.154L144.913,23.154L144.994,23.154L145.065,23.154L145.139,23.154L145.292,23.154L145.367,23.154L145.448,23.154L145.519,23.154L145.593,23.154L145.746,23.154L145.822,23.154L145.902,23.154L145.973,23.154L146.048,23.154L146.201,23.154L146.278,23.154L146.359,23.154L146.43,23.154L146.503,23.154L146.655,23.154L146.732,23.154L146.813,23.154L146.884,23.154L146.958,23.154L147.11,23.154L147.187,23.154L147.267,23.154L147.339,23.154L147.412,23.154L147.565,23.154L147.641,23.154L147.722,23.154L147.793,23.154L147.867,23.154L148.019,23.154L148.096,23.154L148.176,23.154L148.248,23.154L148.322,23.154L148.474,23.154L148.549,23.154L148.63,23.154L148.702,23.154L148.776,23.154L148.928,23.154L149.004,23.154L149.085,23.154L149.156,23.154L149.23,23.154L149.383,23.154L149.46,23.154L149.541,23.154L149.612,23.154L149.685,23.154L149.838,23.154L149.914,23.154L149.995,23.154L150.066,23.154L150.14,23.154L150.293,23.154L150.369,23.154L150.45,23.154L150.521,23.154L150.595,23.154L150.747,23.154L150.824,23.154L150.905,23.154L150.975,23.154L151.049,23.154L151.202,23.154L151.278,23.154L151.359,23.154L151.43,23.154L151.504,23.154L151.656,23.154L151.732,23.154L151.812,23.154L151.884,23.154L151.958,23.154L152.111,23.154L152.186,23.154L152.267,23.154L152.338,23.154L152.413,23.154L152.566,23.154L152.642,23.154L152.723,23.154L152.794,23.154L152.868,23.154L153.02,23.154L153.097,23.154L153.178,23.154L153.249,23.154L153.322,23.154L153.475,23.154L153.552,23.154L153.632,23.154L153.704,23.154L153.777,23.154L153.929,23.154L154.006,23.154L154.087,23.154L154.158,23.154L154.232,23.154L154.384,23.154L154.46,23.154L154.541,23.154L154.612,23.154L154.686,23.154L154.838,23.154L154.914,23.154L154.995,23.154L155.066,23.154L155.14,23.154L155.293,23.154L155.369,23.154L155.45,23.154L155.52,23.154L155.595,23.154L155.748,23.154L155.825,23.154L155.906,23.154L155.976,23.154L156.05,23.154L156.203,23.154L156.279,23.154L156.36,23.154L156.431,23.154L156.505,23.154L156.657,23.154L156.734,23.154L156.815,23.154L156.886,23.154L156.959,23.154L157.112,23.154L157.188,23.154L157.269,23.154L157.34,23.154L157.414,23.154L157.566,23.154L157.643,23.154L157.724,23.154L157.794,23.154L157.868,23.154L158.02,23.154L158.096,23.154L158.177,23.154L158.248,23.154L158.322,23.154L158.475,23.154L158.551,23.154L158.632,23.154L158.703,23.154L158.777,23.154L158.93,23.154L159.007,23.154L159.088,23.154L159.159,23.154L159.232,23.154L159.385,23.154L159.461,23.154L159.542,23.154L159.613,23.154L159.687,23.154L159.839,23.154L159.916,23.154L159.996,23.154L160.067,23.154L160.141,23.154L160.293,23.154L160.37,23.154L160.451,23.154L160.521,23.154L160.596,23.154L160.748,23.154L160.824,23.154L160.904,23.154L160.975,23.154L161.05,23.154L161.202,23.154L161.278,23.154L161.358,23.154L161.429,23.154L161.504,23.154L161.657,23.154L161.732,23.154L161.812,23.154L161.884,23.154L161.959,23.154L162.112,23.154L162.188,23.154L162.268,23.154L162.339,23.154L162.414,23.154L162.566,23.154L162.642,23.154L162.723,23.154L162.794,23.154L162.868,23.154L163.021,23.154L163.097,23.154L163.177,23.154L163.248,23.154L163.323,23.154L163.475,23.154L163.551,23.154L163.632,23.154L163.703,23.154L163.777,23.154L163.93,23.154L164.006,23.154L164.086,23.154L164.157,23.154L164.232,23.154L164.384,23.154L164.46,23.154L164.54,23.154L164.612,23.154L164.686,23.154L164.839,23.154L164.915,23.154L164.995,23.154L165.066,23.154L165.141,23.154L165.294,23.154L165.37,23.154L165.45,23.154L165.521,23.154L165.596,23.154L165.748,23.154L165.824,23.154L165.905,23.154L165.976,23.154L166.05,23.154L166.203,23.154L166.279,23.154L166.359,23.154L166.431,23.154L166.505,23.154L166.657,23.154L166.733,23.154L166.814,23.154L166.885,23.154L166.96,23.154L167.112,23.154L167.188,23.154L167.269,23.154L167.34,23.154L167.414,23.154L167.566,23.154L167.642,23.154L167.723,23.154L167.794,23.154L167.869,23.154L168.021,23.154L168.097,23.154L168.177,23.154L168.249,23.154L168.323,23.154L168.476,23.154L168.552,23.154L168.633,23.154L168.704,23.154L168.778,23.154L168.93,23.154L169.007,23.154L169.088,23.154L169.162,23.154L169.233,23.154L169.385,23.154L169.461,23.154L169.542,23.154L169.613,23.154L169.687,23.154L169.84,23.154L169.916,23.154L169.997,23.154L170.068,23.154L170.142,23.154L170.294,23.154L170.371,23.154L170.451,23.154L170.522,23.154L170.597,23.154L170.749,23.154L170.824,23.154L170.905,23.154L170.976,23.154L171.051,23.154L171.203,23.154L171.279,23.154L171.359,23.154L171.431,23.154L171.505,23.154L171.658,23.154L171.735,23.154L171.816,23.154L171.887,23.154L171.96,23.154L172.112,23.154L172.189,23.154L172.269,23.154L172.341,23.154L172.415,23.154L172.567,23.154L172.643,23.154L172.724,23.154L172.795,23.154L172.869,23.154L173.022,23.154L173.098,23.154L173.178,23.154L173.324,23.154L173.477,23.154L173.552,23.154L173.633,23.154L173.704,23.154L174.006,23.154L174.086,23.154L174.158,23.154L174.233,23.154L174.385,23.154L174.461,23.154L174.541,23.154L174.613,23.154L174.687,23.154L174.84,23.154L174.917,23.154L174.997,23.154L175.068,23.154L175.142,23.154L175.295,23.154L175.371,23.154L175.452,23.154L175.523,23.154L175.597,23.154L175.749,23.154L175.826,23.154L175.906,23.154L175.977,23.154L176.051,23.154L176.204,23.154L176.28,23.154L176.361,23.154L176.432,23.154L176.506,23.154L176.659,23.154L176.735,23.154L176.815,23.154L176.886,23.154L176.961,23.154L177.113,23.154L177.189,23.154L177.269,23.154L177.341,23.154L177.415,23.154L177.567,23.154L177.643,23.154L177.723,23.154L177.795,23.154L177.87,23.154L178.023,23.154L178.099,23.154L178.179,23.154L178.25,23.154L178.325,23.154L178.477,23.154L178.553,23.154L178.634,23.154L178.705,23.154L178.779,23.154L178.932,23.154L179.008,23.154L179.088,23.154L179.159,23.154L179.234,23.154L179.386,23.154L179.462,23.154L179.543,23.154L179.616,23.154L179.689,23.154L179.841,23.154L179.917,23.154L179.997,23.154L180.069,23.154L180.143,23.154L180.295,23.154L180.371,23.154L180.451,23.154L180.522,23.154L180.598,23.154L180.749,23.154L180.825,23.154L180.905,23.154L180.977,23.154L181.052,23.154L181.205,23.154L181.281,23.154L181.361,23.154L181.433,23.154L181.507,23.154L181.659,23.154L181.735,23.154L181.816,23.154L181.888,23.154L181.962,23.154L182.114,23.154L182.19,23.154L182.271,23.154L182.343,23.154L182.416,23.154L182.569,23.154L182.645,23.154L182.725,23.154L182.796,23.154L182.871,23.154L183.023,23.154L183.099,23.154L183.18,23.154L183.251,23.154L183.325,23.154L183.477,23.154L183.553,23.154L183.633,23.154L183.705,23.154L183.78,23.154L183.932,23.154L184.008,23.154L184.088,23.154L184.159,23.154L184.235,23.154L184.387,23.154L184.463,23.154L184.544,23.154L184.615,23.154L184.69,23.154L184.841,23.154L184.918,23.154L184.999,23.154L185.07,23.154L185.144,23.154L185.296,23.154L185.372,23.154L185.453,23.154L185.524,23.154L185.599,23.154L185.827,40.846L185.908,40.846L185.979,40.846L186.055,40.846L186.205,40.846L186.281,40.846L186.362,40.846L186.433,40.846L186.508,40.846L186.66,40.846L186.735,40.846L186.815,40.846L186.887,40.846L186.962,40.846L187.114,40.846L187.19,40.846L187.271,40.846L187.342,40.846L187.416,40.846L187.569,40.846L187.646,40.846L187.727,40.846L187.797,40.846L187.871,40.846L188.024,40.846L188.1,40.846L188.181,40.846L188.252,40.846L188.326,40.846L188.479,40.846L188.555,40.846L188.635,40.846L188.707,40.846L188.781,40.846L188.933,23.154L189.009,23.154L189.09,23.154L189.162,23.154L189.236,23.154L189.388,23.154L189.464,23.154L189.545,23.154L189.615,23.154L189.69,23.154L189.842,23.154L189.918,23.154L189.998,23.154L190.069,23.154L190.144,23.154L190.297,23.154L190.372,23.154L190.453,23.154L190.524,23.154L190.599,23.154L190.751,23.154L190.828,23.154L190.909,23.154L190.98,23.154L191.054,23.154L191.206,23.154L191.283,23.154L191.363,23.154L191.435,23.154L191.509,23.154L191.661,23.154L191.737,23.154L191.818,30.846L191.889,30.846L191.963,30.846L192.116,30.846L192.192,30.846L192.273,46.231L192.344,46.231L192.418,46.231L192.57,46.231L192.646,46.231L192.727,46.231L192.798,46.231L192.873,46.231L193.024,46.231L193.1,46.231L193.18,46.231L193.252,46.231L193.327,46.231L193.479,46.231L193.555,46.231L193.635,46.231L193.706,46.231L193.781,46.231L193.934,46.231L194.011,46.231L194.091,46.231L194.162,46.231L194.237,46.231L194.389,46.231L194.465,46.231L194.546,46.231L194.617,46.231L194.691,46.231L194.843,46.231L194.92,46.231L195.001,46.231L195.073,46.231L195.146,46.231L195.298,46.231L195.374,46.231L195.455,46.231L195.526,46.231L195.6,46.231L195.752,46.231L195.829,46.231L195.909,46.231L195.98,46.231L196.054,46.231L196.205,46.231L196.281,46.231L196.36,46.231L196.433,46.231L196.509,46.231L196.66,46.231L196.736,46.231L196.815,46.231L196.888,46.231L196.963,46.231L197.115,46.231L197.191,46.231L197.274,46.231L197.345,46.231L197.419,46.231L197.571,46.231L197.647,46.231L197.728,46.231L197.8,46.231L197.873,46.231L198.026,46.231L198.102,46.231L198.183,46.231L198.254,46.231L198.328,46.231L198.481,30.846L198.557,30.846L198.638,30.846L198.709,30.846L198.782,30.846L198.935,30.846L199.011,30.846L199.091,30.846L199.163,30.846L199.237,30.846L199.389,30.846L199.465,30.846L199.545,35.846L199.616,35.846L199.691,35.846L199.844,35.846L199.919,35.846L200,53.923" stroke="#4c78a8" stroke-width="2"/></g></g><path class="foreground" aria-hidden="true" d="" display="none"/></g><g transform="translate(0,0)"><path class="background" aria-hidden="true" d="M0,0h200v200h-200Z"/><g><g class="mark-line role-mark marks" role="graphics-object" aria-roledescription="line mark container"><path aria-label="Time: Jan 01, 2024; Price: 2499; identifier: altex-LG-F2WR508SBM" role="graphics-symbol" aria-roledescription="line mark" d="M0,7.769L0.048,7.769L0.12,7.769L0.271,7.769L0.347,7.769L0.427,7.769L0.499,7.769L0.574,7.769L0.726,7.769L0.802,7.769L0.881,7.769L0.954,7.769L1.029,7.769L1.18,7.769L1.256,7.769L1.336,7.769L1.409,7.769L1.484,7.769L1.635,27L1.711,27L1.79,27L1.863,27L1.938,27L2.09,27L2.165,27L2.245,27L2.317,27L2.393,27L2.545,27L2.62,27L2.699,27L2.772,27L2.847,27L2.999,27L3.075,27L3.155,27L3.227,27L3.302,27L3.454,27L3.53,27L3.61,27L3.682,27L3.756,27L3.908,27L3.984,27L4.064,27L4.136,27L4.211,27L4.363,27L4.439,27L4.519,27L4.591,27L4.666,27L4.817,27L4.893,27L4.973,27L5.046,27L5.12,27L5.272,38.538L5.347,38.538L5.427,38.538L5.5,38.538L5.575,38.538L5.727,38.538L5.802,38.538L5.881,38.538L5.954,38.538L6.029,38.538L6.181,38.538L6.257,38.538L6.337,38.538L6.41,38.538L6.484,38.538L6.636,38.538L6.712,38.538L6.792,38.538L6.864,38.538L6.939,38.538L7.09,38.538L7.167,38.538L7.246,38.538L7.319,38.538L7.393,38.538L7.545,38.538L7.621,38.538L7.701,38.538L7.773,38.538L7.848,38.538L8,38.538L8.076,38.538L8.155,38.538L8.228,38.538L8.302,38.538L8.454,38.538L8.53,38.538L8.609,38.538L8.682,38.538L8.757,38.538L8.909,38.538L8.984,38.538L9.064,38.538L9.137,38.538L9.212,38.538L9.364,38.538L9.44,38.538L9.52,38.538L9.592,38.538L9.666,38.538L9.818,38.538L9.894,38.538L9.974,38.538L10.047,38.538L10.121,38.538L10.273,38.538L10.349,38.538L10.429,38.538L10.501,38.538L10.575,38.538L10.728,38.538L10.803,38.538L10.883,38.538L10.956,38.538L11.03,38.538L11.182,38.538L11.258,38.538L11.336,38.538L11.409,38.538L11.485,38.538L11.636,38.538L11.712,38.538L11.79,38.538L11.863,38.538L11.939,38.538L12.091,38.538L12.167,38.538L12.245,38.538L12.318,38.538L12.394,38.538L12.545,38.538L12.621,38.538L12.7,38.538L12.773,38.538L12.849,38.538L13,38.538L13.076,38.538L13.155,38.538L13.228,38.538L13.303,38.538L13.455,38.538L13.53,38.538L13.609,38.538L13.682,38.538L13.758,38.538L13.909,27L13.985,27L14.064,27L14.136,27L14.212,27L14.364,27L14.44,27L14.518,27L14.591,27L14.667,27L14.818,27L14.894,27L14.972,27L15.046,27L15.122,27L15.273,27L15.349,27L15.427,27L15.5,27L15.576,27L15.728,27L15.804,27L15.882,27L15.955,27L16.031,27L16.182,27L16.258,27L16.337,27L16.41,27L16.485,27L16.637,27L16.713,27L16.791,27L16.865,27L16.94,27L17.091,27L17.167,27L17.246,27L17.319,27L17.394,27L17.546,27L17.622,27L17.7,27L17.773,27L17.849,27L18.001,27L18.076,27L18.155,27L18.228,27L18.304,27L18.456,27L18.531,27L18.609,27L18.683,27L18.758,27L18.91,27L18.986,27L19.065,27L19.137,27L19.213,27L19.364,27L19.44,27L19.519,27L19.593,27L19.668,27L19.819,27L19.895,27L19.974,27L20.047,27L20.122,27L20.349,27L20.428,27L20.501,27L20.577,27L20.728,27L20.804,27L20.883,27L20.956,27L21.031,27L21.183,27L21.259,27L21.337,27L21.41,27L21.486,27L21.638,27L21.714,27L21.791,27L21.865,27L21.941,27L22.092,27L22.168,27L22.247,27L22.32,27L22.395,27L22.547,27L22.623,27L22.701,27L22.774,27L22.85,27L23.001,27L23.077,27L23.156,27L23.229,27L23.304,27L23.456,27L23.532,27L23.61,27L23.684,27L23.759,27L23.911,27L23.986,27L24.065,27L24.138,27L24.214,27L24.365,27L24.441,27L24.519,27L24.592,27L24.668,27L24.82,27L24.896,27L24.974,27L25.047,27L25.123,27L25.274,27L25.35,27L25.429,27L25.502,27L25.577,27L25.729,27L25.805,27L25.883,27L25.956,27L26.032,27L26.184,27L26.259,27L26.338,27L26.411,27L26.487,27L26.638,27L26.714,27L26.792,27L26.865,27L26.941,27L27.093,27L27.169,27L27.247,27L27.32,27L27.396,27L27.547,27L27.623,27L27.702,27L27.775,27L27.85,27L28.002,27L28.078,27L28.156,27L28.229,27L28.305,27L28.463,27L28.567,27L28.612,27L28.684,27L28.76,27L28.911,27L28.987,27L29.066,27L29.139,27L29.214,27L29.366,27L29.442,27L29.521,27L29.594,27L29.669,27L29.82,27L29.896,27L29.975,38.538L30.048,38.538L30.123,38.538L30.275,38.538L30.352,38.538L30.429,38.538L30.502,38.538L30.578,38.538L30.73,38.538L30.805,38.538L30.883,38.538L30.957,38.538L31.033,38.538L31.184,38.538L31.26,38.538L31.338,38.538L31.412,38.538L31.487,38.538L31.639,38.538L31.714,38.538L31.794,38.538L31.867,38.538L31.942,38.538L32.093,38.538L32.169,38.538L32.248,38.538L32.321,38.538L32.396,38.538L32.548,38.538L32.624,38.538L32.703,38.538L32.775,38.538L32.851,38.538L33.003,38.538L33.078,38.538L33.157,38.538L33.23,38.538L33.306,38.538L33.457,38.538L33.533,38.538L33.612,38.538L33.685,38.538L33.76,38.538L33.912,38.538L33.988,38.538L34.066,38.538L34.139,38.538L34.215,38.538L34.366,38.538L34.443,38.538L34.52,38.538L34.594,38.538L34.669,38.538L34.821,38.538L34.897,38.538L34.976,38.538L35.049,38.538L35.124,38.538L35.276,38.538L35.351,38.538L35.43,38.538L35.504,38.538L35.579,38.538L35.73,38.538L35.806,38.538L35.885,38.538L35.958,38.538L36.034,38.538L36.185,38.538L36.261,38.538L36.34,38.538L36.413,38.538L36.488,38.538L36.639,38.538L36.715,38.538L36.794,38.538L36.867,38.538L36.943,38.538L37.094,38.538L37.17,38.538L37.248,38.538L37.321,38.538L37.397,38.538L37.549,38.538L37.624,38.538L37.703,38.538L37.776,38.538L37.852,38.538L38.003,38.538L38.079,38.538L38.158,38.538L38.231,38.538L38.306,38.538L38.458,38.538L38.534,38.538L38.613,38.538L38.686,38.538L38.761,38.538L38.913,38.538L38.989,38.538L39.067,38.538L39.141,38.538L39.216,38.538L39.367,38.538L39.443,38.538L39.522,38.538L39.595,38.538L39.67,38.538L39.822,38.538L39.897,38.538L39.977,38.538L40.049,38.538L40.125,38.538L40.276,38.538L40.352,38.538L40.43,38.538L40.504,38.538L40.58,38.538L40.731,38.538L40.807,38.538L40.885,38.538L40.959,38.538L41.034,38.538L41.185,38.538L41.262,38.538L41.341,38.538L41.414,38.538L41.488,38.538L41.64,38.538L41.716,38.538L41.795,38.538L41.868,38.538L41.943,38.538L42.095,38.538L42.17,38.538L42.249,38.538L42.323,38.538L42.398,38.538L42.55,38.538L42.625,38.538L42.704,38.538L42.777,38.538L42.852,38.538L43.005,38.538L43.158,38.538L43.232,38.538L43.307,38.538L43.459,38.538L43.534,38.538L43.612,38.538L43.686,38.538L43.762,38.538L43.913,38.538L43.989,38.538L44.067,38.538L44.14,38.538L44.216,38.538L44.368,38.538L44.443,38.538L44.523,38.538L44.596,38.538L44.671,38.538L44.822,38.538L44.898,38.538L44.977,38.538L45.05,38.538L45.125,38.538L45.277,38.538L45.353,38.538L45.432,38.538L45.505,38.538L45.58,38.538L45.732,38.538L45.808,38.538L45.887,38.538L46.035,38.538L46.186,38.538L46.262,38.538L46.341,38.538L46.413,38.538L46.489,38.538L46.641,38.538L46.716,38.538L46.794,38.538L46.868,38.538L46.944,38.538L47.102,38.538L47.219,38.538L47.29,38.538L47.437,38.538L47.551,38.538L47.626,38.538L47.704,38.538L47.777,38.538L47.853,38.538L48.005,38.538L48.08,38.538L48.16,38.538L48.232,38.538L48.308,38.538L48.459,38.538L48.535,38.538L48.614,38.538L48.687,38.538L48.762,38.538L48.99,38.538L49.069,38.538L49.141,38.538L49.217,38.538L49.368,38.538L49.444,38.538L49.523,38.538L49.596,38.538L49.671,38.538L49.823,38.538L49.899,38.538L49.977,38.538L50.05,38.538L50.126,38.538L50.278,38.538L50.353,38.538L50.432,38.538L50.505,38.538L50.581,38.538L50.732,38.538L50.808,38.538L50.888,38.538L50.96,38.538L51.035,38.538L51.187,38.538L51.263,38.538L51.342,38.538L51.415,38.538L51.49,38.538L51.641,38.538L51.718,38.538L51.799,38.538L51.869,38.538L51.945,38.538L52.096,38.538L52.172,38.538L52.249,38.538L52.324,38.538L52.399,38.538L52.551,38.538L52.627,38.538L52.706,38.538L52.778,38.538L52.854,38.538L53.005,38.538L53.081,38.538L53.159,38.538L53.232,38.538L53.308,38.538L53.46,38.538L53.536,38.538L53.615,38.538L53.687,38.538L53.763,38.538L53.914,38.538L53.991,38.538L54.07,38.538L54.142,38.538L54.218,38.538L54.369,38.538L54.445,38.538L54.524,38.538L54.597,38.538L54.672,38.538L54.824,38.538L54.901,38.538L54.979,38.538L55.051,38.538L55.127,38.538L55.279,38.538L55.354,38.538L55.434,38.538L55.506,38.538L55.582,38.538L55.733,38.538L55.809,38.538L55.888,38.538L55.961,38.538L56.036,38.538L56.187,38.538L56.263,38.538L56.342,38.538L56.415,38.538L56.49,38.538L56.642,38.538L56.718,38.538L56.797,38.538L56.87,38.538L56.945,38.538L57.097,38.538L57.173,38.538L57.252,38.538L57.325,38.538L57.4,38.538L57.551,38.538L57.627,38.538L57.706,30.846L57.779,30.846L57.854,30.846L58.006,30.846L58.082,30.846L58.162,30.846L58.234,30.846L58.309,30.846L58.461,30.846L58.537,30.846L58.616,30.846L58.689,30.846L58.764,30.846L58.915,30.846L58.991,30.846L59.071,30.846L59.143,30.846L59.218,30.846L59.37,30.846L59.445,30.846L59.524,30.846L59.597,30.846L59.673,30.846L59.824,30.846L59.9,30.846L59.979,30.846L60.052,30.846L60.127,30.846L60.279,30.846L60.355,30.846L60.435,30.846L60.507,30.846L60.582,30.846L60.733,30.846L60.81,30.846L60.889,30.846L60.962,30.846L61.036,30.846L61.188,30.846L61.264,30.846L61.344,30.846L61.416,30.846L61.491,30.846L61.643,30.846L61.719,30.846L61.799,30.846L61.871,30.846L61.946,30.846L62.097,30.846L62.173,30.846L62.253,30.846L62.325,30.846L62.4,30.846L62.552,30.846L62.628,30.846L62.707,30.846L62.779,30.846L62.855,30.846L63.007,30.846L63.082,30.846L63.162,30.846L63.234,30.846L63.31,30.846L63.462,30.846L63.537,30.846L63.617,30.846L63.689,30.846L63.764,30.846L63.916,30.846L63.992,30.846L64.072,30.846L64.144,30.846L64.219,30.846L64.371,30.846L64.447,30.846L64.526,38.538L64.599,38.538L64.673,38.538L64.825,38.538L64.901,38.538L64.981,38.538L65.053,38.538L65.128,38.538L65.28,38.538L65.356,38.538L65.435,38.538L65.507,38.538L65.583,38.538L65.734,38.538L65.81,38.538L65.889,38.538L65.962,38.538L66.037,38.538L66.189,38.538L66.264,38.538L66.344,38.538L66.416,38.538L66.492,38.538L66.644,38.538L66.72,38.538L66.799,38.538L66.872,38.538L66.946,38.538L67.099,38.538L67.174,38.538L67.254,38.538L67.326,38.538L67.401,38.538L67.553,38.538L67.629,38.538L67.709,38.538L67.781,38.538L67.856,38.538L68.008,38.538L68.083,38.538L68.163,38.538L68.235,38.538L68.31,38.538L68.462,30.846L68.538,30.846L68.618,30.846L68.69,30.846L68.765,30.846L68.916,30.846L68.992,30.846L69.072,30.846L69.144,30.846L69.219,30.846L69.371,30.846L69.447,30.846L69.526,30.846L69.599,30.846L69.674,30.846L69.826,30.846L69.902,30.846L69.982,30.846L70.054,30.846L70.129,30.846L70.28,30.846L70.357,30.846L70.436,30.846L70.509,30.846L70.583,30.846L70.736,30.846L70.811,30.846L70.891,30.846L70.963,30.846L71.038,30.846L71.19,30.846L71.266,30.846L71.346,30.846L71.417,30.846L71.492,30.846L71.644,30.846L71.72,30.846L71.8,30.846L71.873,30.846L71.947,30.846L72.099,30.846L72.174,30.846L72.254,30.846L72.327,30.846L72.402,30.846L72.553,30.846L72.629,30.846L72.709,30.846L72.781,30.846L72.856,30.846L73.009,30.846L73.084,30.846L73.164,30.846L73.236,30.846L73.311,30.846L73.463,30.846L73.539,30.846L73.619,30.846L73.691,30.846L73.766,30.846L73.917,30.846L73.993,34.692L74.074,34.692L74.145,34.692L74.22,34.692L74.372,34.692L74.448,34.692L74.528,34.692L74.601,34.692L74.675,34.692L74.827,34.692L74.902,34.692L74.982,40.077L75.054,40.077L75.13,40.077L75.282,40.077L75.357,40.077L75.436,40.077L75.509,40.077L75.584,40.077L75.735,40.077L75.812,40.077L75.891,40.077L75.963,40.077L76.038,40.077L76.191,40.077L76.267,40.077L76.347,40.077L76.418,40.077L76.493,40.077L76.645,40.077L76.721,40.077L76.801,40.077L76.873,40.077L76.948,40.077L77.1,40.077L77.176,40.077L77.256,40.077L77.328,40.077L77.402,40.077L77.554,40.077L77.63,40.077L77.71,40.077L77.783,40.077L77.857,40.077L78.009,40.077L78.085,40.077L78.164,40.077L78.237,40.077L78.312,40.077L78.463,40.077L78.539,40.077L78.619,40.077L78.691,40.077L78.766,40.077L78.918,40.077L78.993,40.077L79.073,40.077L79.145,40.077L79.221,40.077L79.373,40.077L79.449,40.077L79.529,40.077L79.6,40.077L79.675,40.077L79.827,40.077L79.903,40.077L79.983,40.077L80.13,40.077L80.282,40.077L80.358,40.077L80.438,40.077L80.51,40.077L80.585,40.077L80.737,40.077L80.813,40.077L80.893,40.077L80.965,40.077L81.039,40.077L81.191,40.077L81.267,40.077L81.347,40.077L81.419,40.077L81.494,40.077L81.646,40.077L81.721,40.077L81.801,40.077L81.873,40.077L81.948,40.077L82.1,40.077L82.176,40.077L82.256,40.077L82.328,40.077L82.403,40.077L82.555,40.077L82.631,40.077L82.711,40.077L82.783,40.077L82.857,40.077L83.01,40.077L83.086,40.077L83.165,40.077L83.238,40.077L83.312,40.077L83.464,40.077L83.54,40.077L83.62,40.077L83.693,40.077L83.767,40.077L83.919,40.077L83.995,40.077L84.075,40.077L84.146,40.077L84.222,40.077L84.374,40.077L84.449,40.077L84.529,40.077L84.601,40.077L84.676,40.077L84.828,40.077L84.904,40.077L84.983,40.077L85.056,40.077L85.131,40.077L85.282,40.077L85.358,40.077L85.438,40.077L85.51,40.077L85.585,40.077L85.737,40.077L85.813,40.077L85.893,40.077L85.965,40.077L86.04,40.077L86.192,40.077L86.268,40.077L86.348,40.077L86.42,40.077L86.495,40.077L86.647,40.077L86.723,40.077L86.803,40.077L86.874,40.077L86.949,40.077L87.101,40.077L87.177,40.077L87.257,40.077L87.329,40.077L87.404,40.077L87.555,40.077L87.632,40.077L87.712,40.077L87.783,40.077L87.858,40.077L88.01,40.077L88.086,40.077L88.165,40.077L88.237,40.077L88.313,40.077L88.465,40.077L88.541,40.077L88.625,40.077L88.696,40.077L88.767,40.077L88.92,40.077L88.995,40.077L89.076,40.077L89.148,40.077L89.222,40.077L89.374,40.077L89.45,40.077L89.529,40.077L89.602,40.077L89.677,40.077L89.828,40.077L89.905,40.077L89.985,40.077L90.057,40.077L90.131,40.077L90.284,40.077L90.359,40.077L90.44,40.077L90.511,40.077L90.586,40.077L90.738,40.077L90.814,40.077L90.894,40.077L90.966,40.077L91.041,40.077L91.193,40.077L91.268,40.077L91.348,40.077L91.42,40.077L91.495,40.077L91.647,40.077L91.722,40.077L91.802,40.077L91.875,40.077L91.95,40.077L92.102,40.077L92.178,40.077L92.258,40.077L92.33,40.077L92.404,40.077L92.556,40.077L92.633,40.077L92.712,40.077L92.784,40.077L92.859,40.077L93.011,40.077L93.087,40.077L93.167,40.077L93.239,40.077L93.314,40.077L93.466,40.077L93.542,40.077L93.622,40.077L93.694,40.077L93.768,40.077L93.921,40.077L93.996,40.077L94.076,40.077L94.149,40.077L94.223,40.077L94.375,40.077L94.45,40.077L94.531,40.077L94.602,40.077L94.678,40.077L94.829,40.077L94.905,40.077L94.984,40.077L95.057,40.077L95.132,40.077L95.284,40.077L95.36,40.077L95.44,40.077L95.512,40.077L95.587,40.077L95.739,40.077L95.814,40.077L95.895,40.077L95.967,40.077L96.041,40.077L96.193,40.077L96.268,40.077L96.35,40.077L96.421,40.077L96.496,40.077L96.648,40.077L96.724,40.077L96.804,40.077L96.876,40.077L96.951,40.077L97.103,40.077L97.179,40.077L97.258,40.077L97.331,40.077L97.405,40.077L97.557,40.077L97.633,40.077L97.712,40.077L97.785,40.077L97.859,40.077L98.012,40.077L98.087,40.077L98.167,40.077L98.239,40.077L98.315,40.077L98.466,40.077L98.542,40.077L98.623,40.077L98.694,40.077L98.769,40.077L98.921,40.077L98.997,40.077L99.077,40.077L99.149,40.077L99.223,40.077L99.376,40.077L99.451,40.077L99.532,40.077L99.604,40.077L99.678,40.077L99.83,40.077L99.906,40.077L99.986,40.077L100.058,40.077L100.133,40.077L100.285,40.077L100.361,40.077L100.441,40.077L100.513,40.077L100.587,40.077L100.74,40.077L100.815,40.077L100.895,40.077L100.968,40.077L101.042,40.077L101.194,40.077L101.269,40.077L101.349,40.077L101.421,40.077L101.497,40.077L101.649,40.077L101.725,40.077L101.805,40.077L101.877,40.077L101.951,40.077L102.103,40.077L102.179,40.077L102.26,40.077L102.332,40.077L102.406,40.077L102.558,40.077L102.634,40.077L102.714,40.077L102.786,40.077L102.86,40.077L103.012,40.077L103.088,40.077L103.169,40.077L103.24,40.077L103.315,40.077L103.467,40.077L103.543,40.077L103.623,40.077L103.695,40.077L103.769,40.077L103.922,40.077L103.997,40.077L104.077,40.077L104.149,40.077L104.225,40.077L104.376,40.077L104.452,40.077L104.532,40.077L104.604,40.077L104.678,40.077L104.831,40.077L104.907,40.077L104.987,40.077L105.059,40.077L105.133,40.077L105.286,40.077L105.361,40.077L105.442,40.077L105.513,40.077L105.588,40.077L105.74,40.077L105.816,40.077L105.895,40.077L105.968,40.077L106.043,40.077L106.194,40.077L106.271,40.077L106.351,40.077L106.423,40.077L106.497,40.077L106.649,40.077L106.725,40.077L106.805,40.077L106.877,40.077L106.952,40.077L107.104,40.077L107.179,40.077L107.26,40.077L107.331,40.077L107.406,40.077L107.558,40.077L107.634,40.077L107.714,40.077L107.786,40.077L107.861,40.077L108.014,40.077L108.089,40.077L108.17,40.077L108.241,40.077L108.316,40.077L108.468,40.077L108.544,40.077L108.624,40.077L108.696,40.077L108.77,40.077L108.923,40.077L108.999,40.077L109.079,40.077L109.151,40.077L109.225,40.077L109.377,40.077L109.453,40.077L109.534,40.077L109.605,40.077L109.679,40.077L109.832,40.077L109.908,40.077L109.988,40.077L110.06,40.077L110.134,40.077L110.286,40.077L110.362,40.077L110.442,40.077L110.514,40.077L110.589,40.077L110.741,40.077L110.817,40.077L110.897,40.077L110.969,40.077L111.043,40.077L111.196,40.077L111.272,40.077L111.352,40.077L111.424,40.077L111.498,40.077L111.65,40.077L111.726,40.077L111.807,40.077L111.878,40.077L111.953,40.077L112.105,40.077L112.181,40.077L112.262,40.077L112.333,40.077L112.408,40.077L112.56,40.077L112.636,40.077L112.716,40.077L112.787,40.077L112.862,40.077L113.014,40.077L113.09,40.077L113.17,40.077L113.243,40.077L113.316,40.077L113.468,40.077L113.544,40.077L113.624,40.077L113.696,40.077L113.771,40.077L113.923,40.077L113.999,40.077L114.079,40.077L114.151,40.077L114.226,40.077L114.378,40.077L114.455,40.077L114.535,40.077L114.606,40.077L114.68,40.077L114.833,40.077L114.909,40.077L114.99,40.077L115.06,40.077L115.135,40.077L115.288,40.077L115.363,40.077L115.444,40.077L115.515,40.077L115.589,40.077L115.742,40.077L115.818,40.077L115.898,40.077L115.97,40.077L116.044,40.077L116.196,40.077L116.272,40.077L116.353,40.077L116.424,40.077L116.499,40.077L116.651,40.077L116.727,40.077L116.807,40.077L116.878,40.077L116.953,40.077L117.106,40.077L117.181,40.077L117.262,40.077L117.333,40.077L117.408,40.077L117.561,40.077L117.637,40.077L117.717,40.077L117.789,40.077L117.863,40.077L118.014,40.077L118.091,40.077L118.172,40.077L118.243,40.077L118.317,40.077L118.47,40.077L118.546,40.077L118.626,40.077L118.697,40.077L118.772,40.077L118.924,40.077L119,40.077L119.081,40.077L119.152,40.077L119.226,40.077L119.379,40.077L119.455,40.077L119.535,40.077L119.607,40.077L119.681,40.077L119.833,40.077L119.909,40.077L119.989,40.077L120.061,40.077L120.135,40.077L120.289,40.077L120.363,40.077L120.444,40.077L120.515,40.077L120.59,40.077L120.743,40.077L120.819,40.077L120.9,40.077L120.971,40.077L121.045,40.077L121.197,40.077L121.274,40.077L121.354,40.077L121.425,40.077L121.5,40.077L121.652,40.077L121.729,40.077L121.809,40.077L121.881,40.077L121.954,40.077L122.107,40.077L122.183,40.077L122.264,40.077L122.335,40.077L122.409,40.077L122.561,40.077L122.637,40.077L122.718,40.077L122.789,40.077L123.015,40.077L123.091,40.077L123.172,40.077L123.243,40.077L123.318,40.077L123.47,40.077L123.546,40.077L123.626,40.077L123.698,40.077L123.772,40.077L123.925,40.077L124.002,40.077L124.083,40.077L124.154,40.077L124.227,40.077L124.38,40.077L124.456,40.077L124.537,40.077L124.608,40.077L124.682,40.077L124.834,40.077L124.911,40.077L124.991,40.077L125.062,40.077L125.137,40.077L125.289,40.077L125.365,50.077L125.446,50.077L125.517,50.077L125.591,50.077L125.743,50.077L125.819,50.077L125.9,50.077L125.971,50.077L126.046,50.077L126.198,50.077L126.274,50.077L126.354,50.077L126.425,50.077L126.5,50.077L126.652,50.077L126.728,50.077L126.809,50.077L126.88,50.077L126.954,50.077L127.107,50.077L127.184,50.077L127.264,50.077L127.335,50.077L127.41,50.077L127.562,50.077L127.638,30.846L127.718,30.846L127.79,30.846L127.864,30.846L128.016,30.846L128.093,30.846L128.173,50.077L128.244,50.077L128.319,50.077L128.471,50.077L128.547,50.077L128.628,50.077L128.699,50.077L128.773,50.077L128.926,50.077L129.002,50.077L129.082,50.077L129.153,50.077L129.228,50.077L129.38,50.077L129.456,50.077L129.536,50.077L129.608,50.077L129.682,50.077L129.835,50.077L129.91,50.077L129.991,50.077L130.062,50.077L130.137,50.077L130.29,50.077L130.366,50.077L130.447,50.077L130.518,50.077L130.592,50.077L130.744,50.077L130.82,50.077L130.901,50.077L130.972,50.077L131.046,50.077L131.199,50.077L131.275,50.077L131.356,50.077L131.426,50.077L131.501,50.077L131.654,50.077L131.729,50.077L131.81,50.077L131.882,50.077L131.956,50.077L132.108,50.077L132.184,50.077L132.265,50.077L132.336,50.077L132.41,50.077L132.562,50.077L132.638,50.077L132.718,50.077L132.79,50.077L132.865,50.077L133.017,50.077L133.093,50.077L133.173,50.077L133.244,50.077L133.319,50.077L133.472,50.077L133.548,50.077L133.629,50.077L133.7,50.077L133.774,50.077L133.927,50.077L134.003,50.077L134.083,50.077L134.155,50.077L134.228,50.077L134.381,50.077L134.457,50.077L134.538,50.077L134.61,50.077L134.684,50.077L134.836,50.077L134.912,50.077L134.993,50.077L135.064,50.077L135.138,50.077L135.29,50.077L135.366,50.077L135.447,50.077L135.518,50.077L135.592,50.077L135.745,50.077L135.82,50.077L135.9,50.077L135.972,50.077L136.047,50.077L136.199,50.077L136.275,50.077L136.355,50.077L136.427,50.077L136.502,50.077L136.654,50.077L136.73,50.077L136.811,50.077L136.883,50.077L136.956,50.077L137.109,50.077L137.185,50.077L137.266,50.077L137.337,50.077L137.411,50.077L137.563,50.077L137.64,50.077L137.72,50.077L137.792,50.077L137.865,50.077L138.175,50.077L138.246,50.077L138.32,50.077L138.472,50.077L138.548,50.077L138.629,50.077L138.7,50.077L138.774,50.077L138.927,50.077L139.002,50.077L139.083,50.077L139.155,50.077L139.229,50.077L139.381,50.077L139.457,50.077L139.537,50.077L139.609,50.077L139.683,50.077L139.836,50.077L139.912,50.077L139.993,50.077L140.064,50.077L140.138,50.077L140.29,50.077L140.367,50.077L140.447,50.077L140.518,50.077L140.593,50.077L140.746,50.077L140.821,50.077L140.902,50.077L140.973,50.077L141.047,50.077L141.2,50.077L141.276,50.077L141.356,50.077L141.428,50.077L141.502,50.077L141.654,50.077L141.73,50.077L141.811,50.077L141.882,50.077L141.956,50.077L142.109,50.077L142.184,50.077L142.264,50.077L142.336,50.077L142.411,50.077L142.563,50.077L142.639,50.077L142.719,50.077L142.791,50.077L142.865,50.077L143.018,50.077L143.095,50.077L143.175,50.077L143.246,50.077L143.32,50.077L143.473,50.077L143.549,50.077L143.63,50.077L143.701,50.077L143.775,50.077L143.927,50.077L144.004,50.077L144.084,58.538L144.156,58.538L144.23,58.538L144.382,58.538L144.458,58.538L144.539,58.538L144.611,58.538L144.685,58.538L144.837,58.538L144.913,58.538L144.994,58.538L145.065,58.538L145.139,58.538L145.292,58.538L145.367,58.538L145.448,58.538L145.519,58.538L145.594,58.538L145.746,58.538L145.822,58.538L145.902,58.538L145.973,58.538L146.048,58.538L146.201,58.538L146.278,58.538L146.359,58.538L146.43,58.538L146.503,58.538L146.655,58.538L146.732,58.538L146.813,58.538L146.884,58.538L146.958,58.538L147.11,58.538L147.187,58.538L147.267,58.538L147.339,58.538L147.412,58.538L147.565,46.231L147.641,46.231L147.722,58.538L147.793,58.538L147.867,58.538L148.019,58.538L148.096,58.538L148.176,46.231L148.248,46.231L148.322,46.231L148.474,46.231L148.549,46.231L148.63,46.231L148.702,46.231L148.776,46.231L148.928,46.231L149.004,46.231L149.085,46.231L149.156,46.231L149.23,46.231L149.383,46.231L149.46,46.231L149.541,46.231L149.612,46.231L149.686,46.231L149.838,46.231L149.914,46.231L149.995,46.231L150.067,46.231L150.14,46.231L150.293,46.231L150.369,46.231L150.45,58.538L150.521,58.538L150.595,58.538L150.747,58.538L150.824,58.538L150.905,58.538L150.975,58.538L151.049,58.538L151.202,58.538L151.278,58.538L151.359,58.538L151.43,58.538L151.504,58.538L151.656,58.538L151.732,58.538L151.812,58.538L151.884,58.538L151.958,58.538L152.111,58.538L152.186,58.538L152.267,58.538L152.338,58.538L152.413,58.538L152.566,58.538L152.642,58.538L152.724,58.538L152.794,58.538L152.868,58.538L153.02,30.846L153.097,30.846L153.178,58.538L153.249,58.538L153.322,58.538L153.475,58.538L153.552,58.538L153.632,58.538L153.704,58.538L153.777,58.538L153.929,30.846L154.006,30.846L154.087,46.231L154.158,46.231L154.232,46.231L154.384,30.846L154.46,30.846L154.541,46.231L154.612,46.231L154.686,46.231L154.838,46.231L154.914,46.231L154.995,46.231L155.066,46.231L155.14,46.231L155.293,46.231L155.369,46.231L155.45,46.231L155.52,46.231L155.595,46.231L155.748,46.231L155.825,46.231L155.906,46.231L155.976,46.231L156.05,46.231L156.203,46.231L156.279,46.231L156.36,46.231L156.431,46.231L156.505,46.231L156.657,46.231L156.734,46.231L156.815,46.231L156.886,46.231L156.959,46.231L157.112,46.231L157.188,46.231L157.269,46.231L157.34,46.231L157.414,46.231L157.566,46.231L157.643,46.231L157.724,46.231L157.794,46.231L157.868,46.231L158.02,46.231L158.096,46.231L158.177,46.231L158.248,46.231L158.323,46.231L158.475,46.231L158.551,46.231L158.632,46.231L158.703,46.231L158.777,46.231L158.93,46.231L159.007,46.231L159.088,46.231L159.159,46.231L159.232,46.231L159.385,46.231L159.461,46.231L159.542,46.231L159.613,46.231L159.687,46.231L159.839,46.231L159.916,46.231L159.996,46.231L160.067,46.231L160.141,46.231L160.293,46.231L160.37,46.231L160.451,46.231L160.521,46.231L160.596,46.231L160.748,46.231L160.824,46.231L160.904,46.231L160.975,46.231L161.05,46.231L161.202,46.231L161.278,46.231L161.358,46.231L161.429,46.231L161.504,46.231L161.657,46.231L161.732,46.231L161.812,46.231L161.884,46.231L161.959,46.231L162.112,46.231L162.188,46.231L162.268,46.231L162.339,46.231L162.414,46.231L162.566,46.231L162.642,46.231L162.723,46.231L162.794,46.231L162.868,46.231L163.021,46.231L163.097,46.231L163.177,46.231L163.248,46.231L163.323,46.231L163.475,46.231L163.551,46.231L163.632,46.231L163.703,46.231L163.777,46.231L163.93,46.231L164.006,46.231L164.086,46.231L164.157,46.231L164.232,46.231L164.384,46.231L164.46,46.231L164.54,46.231L164.612,46.231L164.686,46.231L164.839,46.231L164.915,46.231L164.995,46.231L165.066,46.231L165.141,46.231L165.294,46.231L165.37,46.231L165.45,46.231L165.521,46.231L165.596,46.231L165.748,46.231L165.824,46.231L165.905,46.231L165.976,46.231L166.05,46.231L166.203,46.231L166.279,46.231L166.359,46.231L166.431,46.231L166.505,46.231L166.658,46.231L166.734,46.231L166.814,46.231L166.885,46.231L166.96,46.231L167.112,46.231L167.188,46.231L167.269,46.231L167.34,46.231L167.414,46.231L167.566,46.231L167.642,46.231L167.723,46.231L167.794,46.231L167.869,46.231L168.021,46.231L168.097,46.231L168.177,46.231L168.249,46.231L168.323,46.231L168.476,46.231L168.552,46.231L168.633,46.231L168.704,46.231L168.778,46.231L168.93,46.231L169.007,46.231L169.088,46.231L169.162,46.231L169.233,46.231L169.385,46.231L169.461,46.231L169.542,46.231L169.613,46.231L169.688,46.231L169.84,46.231L169.916,46.231L169.997,46.231L170.068,46.231L170.142,46.231L170.294,46.231L170.371,46.231L170.451,46.231L170.522,46.231L170.597,46.231L170.749,46.231L170.824,46.231L170.905,46.231L170.976,46.231L171.051,46.231L171.203,46.231L171.279,46.231L171.359,46.231L171.431,46.231L171.505,46.231L171.658,46.231L171.735,46.231L171.816,46.231L171.887,46.231L171.96,46.231L172.112,46.231L172.189,46.231L172.269,46.231L172.341,46.231L172.415,46.231L172.567,46.231L172.643,46.231L172.724,46.231L172.795,46.231L172.869,46.231L173.022,46.231L173.098,46.231L173.178,46.231L173.324,46.231L173.477,46.231L173.552,46.231L173.633,46.231L173.704,46.231L174.006,34.692L174.086,46.231L174.158,46.231L174.233,46.231L174.385,46.231L174.461,46.231L174.541,46.231L174.613,46.231L174.687,46.231L174.84,46.231L174.917,46.231L174.997,46.231L175.068,46.231L175.142,46.231L175.295,46.231L175.371,46.231L175.452,46.231L175.523,46.231L175.597,46.231L175.749,46.231L175.826,46.231L175.906,46.231L175.977,46.231L176.051,46.231L176.204,46.231L176.28,46.231L176.361,46.231L176.432,46.231L176.506,46.231L176.659,46.231L176.735,46.231L176.815,46.231L176.886,46.231L176.961,46.231L177.113,46.231L177.189,46.231L177.269,46.231L177.341,46.231L177.415,46.231L177.567,46.231L177.643,46.231L177.723,46.231L177.795,46.231L177.87,46.231L178.023,46.231L178.099,46.231L178.179,23.154L178.25,23.154L178.325,23.154L178.477,23.154L178.553,23.154L178.634,30.846L178.705,30.846L178.779,30.846L178.932,30.846L179.008,30.846L179.088,30.846L179.159,30.846L179.234,30.846L179.386,30.846L179.462,30.846L179.543,30.846L179.616,30.846L179.689,30.846L179.841,30.846L179.917,30.846L179.997,30.846L180.069,30.846L180.143,30.846L180.295,30.846L180.371,30.846L180.451,30.846L180.522,30.846L180.598,30.846L180.749,30.846L180.825,30.846L180.905,30.846L180.977,30.846L181.052,30.846L181.205,30.846L181.281,30.846L181.361,30.846L181.433,30.846L181.507,30.846L181.659,30.846L181.735,30.846L181.816,30.846L181.888,30.846L181.962,30.846L182.114,30.846L182.19,30.846L182.271,30.846L182.343,30.846L182.416,30.846L182.569,30.846L182.645,30.846L182.726,30.846L182.796,30.846L182.871,30.846L183.023,30.846L183.099,30.846L183.18,30.846L183.251,30.846L183.325,30.846L183.477,30.846L183.553,30.846L183.633,30.846L183.705,30.846L183.78,30.846L183.932,30.846L184.008,30.846L184.088,30.846L184.159,30.846L184.235,30.846L184.387,30.846L184.463,30.846L184.544,30.846L184.615,30.846L184.69,30.846L184.841,30.846L184.918,30.846L184.999,30.846L185.07,30.846L185.144,30.846L185.296,30.846L185.372,30.846L185.453,30.846L185.524,30.846L185.599,30.846L185.827,30.846L185.908,30.846L185.979,30.846L186.055,30.846L186.205,30.846L186.281,30.846L186.362,30.846L186.433,30.846L186.508,30.846L186.66,30.846L186.735,30.846L186.815,30.846L186.887,30.846L186.962,30.846L187.114,30.846L187.19,30.846L187.271,30.846L187.342,30.846L187.416,30.846L187.569,30.846L187.646,30.846L187.727,30.846L187.797,30.846L187.871,30.846L188.024,30.846L188.1,30.846L188.181,30.846L188.252,30.846L188.326,30.846L188.479,30.846L188.555,30.846L188.635,30.846L188.707,30.846L188.781,30.846L188.933,30.846L189.009,30.846L189.09,30.846L189.162,30.846L189.236,30.846L189.388,30.846L189.464,30.846L189.545,30.846L189.615,30.846L189.69,30.846L189.842,30.846L189.918,30.846L189.998,30.846L190.069,30.846L190.144,30.846L190.297,30.846L190.372,30.846L190.453,30.846L190.524,30.846L190.599,30.846L190.751,30.846L190.828,30.846L190.909,30.846L190.98,30.846L191.054,30.846L191.206,30.846L191.283,30.846L191.363,30.846L191.435,30.846L191.509,30.846L191.661,30.846L191.737,30.846L191.818,30.846L191.889,30.846L191.963,30.846L192.116,30.846L192.192,30.846L192.273,30.846L192.344,30.846L192.418,30.846L192.57,30.846L192.646,30.846L192.727,30.846L192.798,30.846L192.873,30.846L193.024,30.846L193.1,30.846L193.18,30.846L193.252,30.846L193.327,30.846L193.479,30.846L193.555,30.846L193.635,30.846L193.706,30.846L193.781,30.846L193.934,30.846L194.011,30.846L194.091,30.846L194.162,30.846L194.237,30.846L194.389,30.846L194.465,30.846L194.546,30.846L194.617,30.846L194.691,30.846L194.843,30.846L194.92,30.846L195.001,30.846L195.073,30.846L195.146,30.846L195.298,30.846L195.374,30.846L195.455,30.846L195.526,30.846L195.6,30.846L195.752,30.846L195.829,30.846L195.909,30.846L195.98,30.846L196.054,30.846L196.205,30.846L196.281,30.846L196.36,30.846L196.433,30.846L196.509,30.846L196.66,30.846L196.736,30.846L196.815,30.846L196.888,30.846L196.963,30.846L197.115,30.846L197.191,30.846L197.274,30.846L197.345,30.846L197.419,30.846L197.571,30.846L197.647,30.846L197.729,34.692L197.8,34.692L197.873,34.692L198.026,34.692L198.102,34.692L198.183,34.692L198.254,34.692L198.328,34.692L198.481,23.154L198.557,23.154L198.638,23.154L198.709,23.154L198.782,23.154L198.935,23.154L199.011,23.154L199.091,23.154L199.163,23.154L199.237,23.154L199.389,23.154L199.465,23.154L199.545,34.692L199.616,34.692L199.691,34.692L199.844,34.692L199.919,34.692L200,34.692" stroke="#f58518" stroke-width="2"/></g></g><path class="foreground" aria-hidden="true" d="" display="none"/></g></g><g class="mark-group role-legend" role="graphics-symbol" aria-roledescription="legend" aria-label="Symbol legend titled 'identifier' for stroke color with 2 values: altex-LG-F2WR508SBW, altex-LG-F2WR508SBM"><g transform="translate(220,0)"><path class="background" aria-hidden="true" d="M0,0h168v40h-168Z" pointer-events="none"/><g><g class="mark-group role-legend-entry"><g transform="translate(0,16)"><path class="background" aria-hidden="true" d="M0,0h0v0h0Z" pointer-events="none"/><g><g class="mark-group role-scope" role="graphics-object" aria-roledescription="group mark container"><g transform="translate(0,0)"><path class="background" aria-hidden="true" d="M0,0h168v11h-168Z" pointer-events="none" opacity="1"/><g><g class="mark-symbol role-legend-symbol" pointer-events="none"><path transform="translate(6,6)" d="M-5,0L5,0" stroke="#4c78a8" stroke-width="1.5" opacity="1"/></g><g class="mark-text role-legend-label" pointer-events="none"><text text-anchor="start" transform="translate(16,9)" font-family="Liberation Mono" font-size="10px" fill="#000" opacity="1">altex-LG-F2WR508SBW</text></g></g><path class="foreground" aria-hidden="true" d="" pointer-events="none" display="none"/></g><g transform="translate(0,13)"><path class="background" aria-hidden="true" d="M0,0h168v11h-168Z" pointer-events="none" opacity="1"/><g><g class="mark-symbol role-legend-symbol" pointer-events="none"><path transform="translate(6,6)" d="M-5,0L5,0" stroke="#f58518" stroke-width="1.5" opacity="1"/></g><g class="mark-text role-legend-label" pointer-events="none"><text text-anchor="start" transform="translate(16,9)" font-family="Liberation Mono" font-size="10px" fill="#000" opacity="1">altex-LG-F2WR508SBM</text></g></g><path class="foreground" aria-hidden="true" d="" pointer-events="none" display="none"/></g></g></g><path class="foreground" aria-hidden="true" d="" pointer-events="none" display="none"/></g></g><g class="mark-text role-legend-title" pointer-events="none"><text text-anchor="start" transform="translate(0,9)" font-family="Liberation Mono" font-size="11px" font-weight="bold" fill="#000" opacity="1">identifier</text></g></g><path class="foreground" aria-hidden="true" d="" pointer-events="none" display="none"/></g></g></g><path class="foreground" aria-hidden="true" d="" display="none"/></g></g></g></svg>