<svg xmlns="http://www.w3.org/2000/svg" xmlns:xlink="http://www.w3.org/1999/xlink" version="1.1" class="marks" width="460" height="242" viewBox="0 0 460 242"><rect width="460" height="242" fill="white"/><g fill="none" stroke-miterlimit="10" transform="translate(67,5)"><g class="mark-group role-frame root" role="graphics-object" aria-roledescription="group mark container"><g transform="translate(0,0)"><path class="background" aria-hidden="true" d="M0.5,0.5h200v200h-200Z" stroke="#ddd"/><g><g class="mark-group role-axis" aria-hidden="true"><g transform="translate(0.5,200.5)"><path class="background" aria-hidden="true" d="M0,0h0v0h0Z" pointer-events="none"/><g><g class="mark-rule role-axis-grid" pointer-events="none"><line transform="translate(70,-200)" x2="0" y2="200" stroke="#ddd" stroke-width="1" opacity="1"/><line transform="translate(139,-200)" x2="0" y2="200" stroke="#ddd" stroke-width="1" opacity="1"/></g></g><path class="foreground" aria-hidden="true" d="" pointer-events="none" display="none"/></g></g><g class="mark-group role-axis" aria-hidden="true"><g transform="translate(0.5,0.5)"><path class="background" aria-hidden="true" d="M0,0h0v0h0Z" pointer-events="none"/><g><g class="mark-rule role-axis-grid" pointer-events="none"><line transform="translate(0,200)" x2="200" y2="0" stroke="#ddd" stroke-width="1" opacity="1"/><line transform="translate(0,162)" x2="200" y2="0" stroke="#ddd" stroke-width="1" opacity="1"/><line transform="translate(0,123)" x2="200" y2="0" stroke="#ddd" stroke-width="1" opacity="1"/><line transform="translate(0,85)" x2="200" y2="0" stroke="#ddd" stroke-width="1" opacity="1"/><line transform="translate(0,46)" x2="200" y2="0" stroke="#ddd" stroke-width="1" opacity="1"/><line transform="translate(0,8)" x2="200" y2="0" stroke="#ddd" stroke-width="1" opacity="1"/></g></g><path class="foreground" aria-hidden="true" d="" pointer-events="none" display="none"/></g></g><g class="mark-group role-axis" role="graphics-symbol" aria-roledescription="axis" aria-label="X-axis titled 'Time' for a time scale with values from Monday, 01 January 2024, 2:19:43 PM to Tuesday, 17 September 2024, 4:44:52 PM"><g transform="translate(0.5,200.5)"><path class="background" aria-hidden="true" d="M0,0h0v0h0Z" pointer-events="none"/><g><g class="mark-rule role-axis-tick" pointer-events="none"><line transform="translate(70,0)" x2="0" y2="5" stroke="#888" stroke-width="1" opacity="1"/><line transform="translate(139,0)" x2="0" y2="5" stroke="#888" stroke-width="1" opacity="1"/></g><g class="mark-text role-axis-label" pointer-events="none"><text text-anchor="middle" transform="translate(69.51379659369724,15)" font-family="Liberation Mono" font-size="10px" fill="#000" opacity="1">April</text><text text-anchor="middle" transform="translate(139.4866666193334,15)" font-family="Liberation Mono" font-size="10px" fill="#000" opacity="1">July</text></g><g class="mark-rule role-axis-domain" pointer-events="none"><line transform="translate(0,0)" x2="200" y2="0" stroke="#888" stroke-width="1" opacity="1"/></g><g class="mark-text role-axis-title" pointer-events="none"><text text-anchor="middle" transform="translate(100,30)" font-family="Liberation Mono" font-size="11px" font-weight="bold" fill="#000" opacity="1">Time</text></g></g><path class="foreground" aria-hidden="true" d="" pointer-events="none" display="none"/></g></g><g class="mark-group role-axis" role="graphics-symbol" aria-roledescription="axis" aria-label="Y-axis titled 'Price' for a linear scale with values from 0 to 2,600"><g transform="translate(0.5,0.5)"><path class="background" aria-hidden="true" d="M0,0h0v0h0Z" pointer-events="none"/><g><g class="mark-rule role-axis-tick" pointer-events="none"><line transform="translate(0,200)" x2="-5" y2="0" stroke="#888" stroke-width="1" opacity="1"/><line transform="translate(0,162)" x2="-5" y2="0" stroke="#888" stroke-width="1" opacity="1"/><line transform="translate(0,123)" x2="-5" y2="0" stroke="#888" stroke-width="1" opacity="1"/><line transform="translate(0,85)" x2="-5" y2="0" stroke="#888" stroke-width="1" opacity="1"/><line transform="translate(0,46)" x2="-5" y2="0" stroke="#888" stroke-width="1" opacity="1"/><line transform="translate(0,8)" x2="-5" y2="0" stroke="#888" stroke-width="1" opacity="1"/></g><g class="mark-text role-axis-label" pointer-events="none"><text text-anchor="end" transform="translate(-7,203)" font-family="Liberation Mono" font-size="10px" fill="#000" opacity="1">0</text><text text-anchor="end" transform="translate(-7,164.53846153846155)" font-family="Liberation Mono" font-size="10px" fill="#000" opacity="1">500</text><text text-anchor="end" transform="translate(-7,126.07692307692308)" font-family="Liberation Mono" font-size="10px" fill="#000" opacity="1">1,000</text><text text-anchor="end" transform="translate(-7,87.61538461538463)" font-family="Liberation Mono" font-size="10px" fill="#000" opacity="1">1,500</text><text text-anchor="end" transform="translate(-7,49.153846153846146)" font-family="Liberation Mono" font-size="10px" fill="#000" opacity="1">2,000</text><text text-anchor="end" transform="translate(-7,10.692307692307686)" font-family="Liberation Mono" font-size="10px" fill="#000" opacity="1">2,500</text></g><g class="mark-rule role-axis-domain" pointer-events="none"><line transform="translate(0,200)" x2="0" y2="-200" stroke="#888" stroke-width="1" opacity="1"/></g><g class="mark-text role-axis-title" pointer-events="none"><text text-anchor="middle" transform="translate(-51,100) rotate(-90) translate(0,-2)" font-family="Liberation Mono" font-size="11px" font-weight="bold" fill="#000" opacity="1">Price</text></g></g><path class="foreground" aria-hidden="true" d="" pointer-events="none" display="none"/></g></g><g class="mark-group role-scope pathgroup" role="graphics-object" aria-roledescription="group mark container"><g transform="translate(0,0)"><path class="background" aria-hidden="true" d="M0,0h200v200h-200Z"/><g><g class="mark-line role-mark marks" role="graphics-object" aria-roledescription="line mark container"><path aria-label="Time: Jan 01, 2024; Price: 2399; identifier: altex-LG-F2WR508SBW" role="graphics-symbol" aria-roledescription="line mark" d="M0,15.462L0.08,15.462L0.202,15.462L0.459,15.462L0.587,15.462L0.722,15.462L0.844,15.462L0.971,15.462L1.228,15.462L1.356,15.462L1.491,15.462L1.613,15.462L1.74,15.462L1.997,15.462L2.125,15.462L2.259,15.462L2.383,15.462L2.509,15.462L2.766,34.692L2.894,34.692L3.028,34.692L3.152,34.692L3.278,34.692L3.535,34.692L3.662,34.692L3.797,34.692L3.92,34.692L4.047,34.692L4.304,34.692L4.431,34.692L4.566,34.692L4.689,34.692L4.816,34.692L5.073,34.692L5.201,34.692L5.336,34.692L5.459,34.692L5.585,34.692L5.842,34.692L5.97,34.692L6.106,34.692L6.228,34.692L6.354,34.692L6.611,34.692L6.739,34.692L6.874,34.692L6.996,34.692L7.123,34.692L7.38,34.692L7.508,34.692L7.643,34.692L7.766,34.692L7.892,34.692L8.148,34.692L8.277,34.692L8.411,34.692L8.534,34.692L8.661,34.692L8.917,46.231L9.045,46.231L9.179,46.231L9.302,46.231L9.429,46.231L9.686,46.231L9.814,46.231L9.948,46.231L10.071,46.231L10.198,46.231L10.455,46.231L10.584,46.231L10.719,46.231L10.841,46.231L10.967,46.231L11.224,46.231L11.353,46.231L11.488,46.231L11.611,46.231L11.736,46.231L11.993,46.231L12.122,46.231L12.257,46.231L12.379,46.231L12.505,46.231L12.762,46.231L12.89,46.231L13.025,46.231L13.148,46.231L13.274,46.231L13.531,46.231L13.659,46.231L13.794,46.231L13.917,46.231L14.043,46.231L14.3,46.231L14.427,46.231L14.562,46.231L14.685,46.231L14.812,46.231L15.068,46.231L15.196,46.231L15.331,46.231L15.454,46.231L15.581,46.231L15.838,46.231L15.967,46.231L16.102,46.231L16.224,46.231L16.35,46.231L16.607,46.231L16.736,46.231L16.871,46.231L16.993,46.231L17.119,46.231L17.376,46.231L17.504,46.231L17.64,46.231L17.762,46.231L17.888,46.231L18.145,46.231L18.273,46.231L18.408,46.231L18.531,46.231L18.657,46.231L18.913,46.231L19.042,46.231L19.175,46.231L19.298,46.231L19.426,46.231L19.682,46.231L19.81,46.231L19.942,46.231L20.066,46.231L20.194,46.231L20.451,46.231L20.579,46.231L20.711,46.231L20.835,46.231L20.963,46.231L21.22,46.231L21.348,46.231L21.481,46.231L21.604,46.231L21.732,46.231L21.988,46.231L22.117,46.231L22.25,46.231L22.375,46.231L22.501,46.231L22.757,46.231L22.886,46.231L23.019,46.231L23.142,46.231L23.27,46.231L23.526,34.692L23.655,34.692L23.788,34.692L23.911,34.692L24.039,34.692L24.296,34.692L24.424,34.692L24.557,34.692L24.68,34.692L24.808,34.692L25.064,34.692L25.193,34.692L25.325,34.692L25.449,34.692L25.577,34.692L25.834,34.692L25.962,34.692L26.094,34.692L26.218,34.692L26.346,34.692L26.602,34.692L26.731,34.692L26.864,34.692L26.987,34.692L27.115,34.692L27.371,34.692L27.499,34.692L27.633,34.692L27.756,34.692L27.884,34.692L28.14,34.692L28.268,34.692L28.401,34.692L28.525,34.692L28.653,34.692L28.909,34.692L29.037,34.692L29.17,34.692L29.294,34.692L29.422,34.692L29.678,34.692L29.806,34.692L29.939,34.692L30.063,34.692L30.191,34.692L30.447,34.692L30.575,34.692L30.707,34.692L30.831,34.692L30.96,34.692L31.216,34.692L31.344,34.692L31.476,34.692L31.6,34.692L31.728,34.692L31.985,34.692L32.113,34.692L32.247,34.692L32.369,34.692L32.497,34.692L32.753,34.692L32.882,34.692L33.015,34.692L33.14,34.692L33.266,34.692L33.523,34.692L33.651,34.692L33.784,34.692L33.907,34.692L34.035,34.692L34.42,34.692L34.553,34.692L34.676,34.692L34.804,34.692L35.061,34.692L35.189,34.692L35.322,34.692L35.446,34.692L35.573,34.692L35.83,34.692L35.957,34.692L36.09,34.692L36.214,34.692L36.342,34.692L36.598,34.692L36.727,34.692L36.859,34.692L36.983,34.692L37.111,34.692L37.367,34.692L37.496,34.692L37.629,34.692L37.753,34.692L37.88,34.692L38.137,34.692L38.264,34.692L38.397,34.692L38.521,34.692L38.649,34.692L38.905,34.692L39.033,34.692L39.167,34.692L39.29,34.692L39.418,34.692L39.674,34.692L39.802,34.692L39.936,34.692L40.059,34.692L40.187,34.692L40.443,34.692L40.571,34.692L40.704,34.692L40.827,34.692L40.956,34.692L41.212,34.692L41.34,34.692L41.472,34.692L41.596,34.692L41.724,34.692L41.981,34.692L42.109,34.692L42.241,34.692L42.366,34.692L42.493,34.692L42.75,34.692L42.878,34.692L43.011,34.692L43.135,34.692L43.262,34.692L43.519,34.692L43.647,34.692L43.78,34.692L43.904,34.692L44.031,34.692L44.288,34.692L44.416,34.692L44.549,34.692L44.673,34.692L44.8,34.692L45.057,34.692L45.185,34.692L45.317,34.692L45.441,34.692L45.569,34.692L45.825,34.692L45.954,34.692L46.087,34.692L46.21,34.692L46.338,34.692L46.594,34.692L46.723,34.692L46.856,34.692L46.979,34.692L47.107,34.692L47.363,34.692L47.491,34.692L47.624,34.692L47.748,34.692L47.876,34.692L48.144,34.692L48.319,34.692L48.396,34.692L48.518,34.692L48.645,34.692L48.901,34.692L49.029,34.692L49.163,34.692L49.286,34.692L49.414,34.692L49.67,34.692L49.799,34.692L49.932,34.692L50.056,34.692L50.183,34.692L50.439,34.692L50.568,34.692L50.7,34.692L50.824,34.692L50.952,34.692L51.208,34.692L51.338,34.692L51.469,34.692L51.592,34.692L51.721,34.692L51.977,34.692L52.105,34.692L52.237,34.692L52.362,34.692L52.489,34.692L52.746,34.692L52.875,34.692L53.006,34.692L53.131,34.692L53.258,34.692L53.515,34.692L53.643,34.692L53.777,34.692L53.9,34.692L54.028,34.692L54.284,34.692L54.412,34.692L54.545,34.692L54.669,34.692L54.796,34.692L55.053,34.692L55.182,34.692L55.315,34.692L55.437,34.692L55.565,34.692L55.822,34.692L55.95,34.692L56.084,34.692L56.207,34.692L56.334,34.692L56.59,34.692L56.72,34.692L56.852,34.692L56.975,34.692L57.103,34.692L57.36,34.692L57.488,34.692L57.62,34.692L57.744,34.692L57.873,34.692L58.128,34.692L58.257,34.692L58.389,34.692L58.513,34.692L58.641,34.692L58.897,34.692L59.025,34.692L59.16,34.692L59.283,34.692L59.411,34.692L59.667,34.692L59.795,34.692L59.928,34.692L60.052,34.692L60.179,34.692L60.435,34.692L60.564,34.692L60.697,34.692L60.821,34.692L60.948,34.692L61.204,34.692L61.333,34.692L61.466,34.692L61.59,34.692L61.717,34.692L61.973,34.692L62.101,34.692L62.235,34.692L62.358,34.692L62.486,34.692L62.742,34.692L62.87,34.692L63.003,34.692L63.126,34.692L63.254,34.692L63.511,34.692L63.639,34.692L63.773,34.692L63.895,34.692L64.024,34.692L64.28,34.692L64.408,34.692L64.542,34.692L64.665,34.692L64.792,34.692L65.049,34.692L65.178,34.692L65.311,34.692L65.434,34.692L65.561,34.692L65.819,34.692L65.946,34.692L66.08,34.692L66.204,34.692L66.33,34.692L66.587,34.692L66.715,34.692L66.849,34.692L66.972,34.692L67.099,34.692L67.356,34.692L67.484,34.692L67.618,34.692L67.741,34.692L67.868,34.692L68.124,34.692L68.253,34.692L68.385,34.692L68.509,34.692L68.638,34.692L68.894,34.692L69.022,34.692L69.155,34.692L69.279,34.692L69.406,34.692L69.662,34.692L69.792,34.692L69.925,34.692L70.049,34.692L70.175,34.692L70.432,34.692L70.56,34.692L70.694,34.692L70.817,34.692L70.944,34.692L71.2,34.692L71.328,34.692L71.462,34.692L71.586,34.692L71.713,34.692L71.97,34.692L72.098,34.692L72.231,34.692L72.354,34.692L72.482,34.692L72.739,34.692L73,34.692L73.123,34.692L73.251,34.692L73.507,34.692L73.636,34.692L73.768,34.692L73.892,34.692L74.02,34.692L74.276,34.692L74.404,34.692L74.537,34.692L74.66,34.692L74.789,34.692L75.045,34.692L75.173,34.692L75.307,34.692L75.431,34.692L75.558,34.692L75.814,34.692L75.942,34.692L76.076,34.692L76.199,34.692L76.327,34.692L76.583,34.692L76.712,34.692L76.845,34.692L76.969,34.692L77.096,34.692L77.352,34.692L77.481,34.692L77.614,34.692L77.865,34.692L78.121,34.692L78.25,34.692L78.383,34.692L78.505,34.692L78.633,34.692L78.89,34.692L79.018,34.692L79.149,34.692L79.274,34.692L79.402,34.692L79.67,34.692L79.867,34.692L79.988,34.692L80.237,34.692L80.429,34.692L80.556,34.692L80.688,34.692L80.812,34.692L80.94,34.692L81.197,34.692L81.325,34.692L81.459,34.692L81.581,34.692L81.709,34.692L81.965,34.692L82.093,34.692L82.228,34.692L82.351,34.692L82.478,34.692L82.863,34.692L82.996,34.692L83.119,34.692L83.247,34.692L83.503,34.692L83.632,34.692L83.765,34.692L83.889,34.692L84.016,34.692L84.272,34.692L84.4,34.692L84.533,34.692L84.657,34.692L84.785,34.692L85.042,34.692L85.17,34.692L85.303,34.692L85.426,34.692L85.554,34.692L85.81,34.692L85.939,34.692L86.073,34.692L86.195,34.692L86.323,34.692L86.579,34.692L86.707,34.692L86.842,34.692L86.964,34.692L87.092,34.692L87.348,34.692L87.477,34.692L87.614,34.692L87.733,34.692L87.861,34.692L88.117,34.692L88.246,34.692L88.376,34.692L88.502,34.692L88.63,34.692L88.886,34.692L89.014,34.692L89.148,34.692L89.271,34.692L89.399,34.692L89.655,34.692L89.783,34.692L89.915,34.692L90.039,34.692L90.167,34.692L90.424,34.692L90.552,34.692L90.685,34.692L90.808,34.692L90.936,34.692L91.192,34.692L91.322,34.692L91.455,34.692L91.578,34.692L91.705,34.692L91.962,34.692L92.09,34.692L92.224,34.692L92.347,34.692L92.474,34.692L92.73,34.692L92.861,34.692L92.993,34.692L93.115,34.692L93.243,34.692L93.5,57.769L93.628,57.769L93.763,57.769L93.885,57.769L94.013,57.769L94.269,57.769L94.396,57.769L94.531,57.769L94.654,57.769L94.781,57.769L95.037,57.769L95.165,57.769L95.299,57.769L95.422,57.769L95.55,57.769L95.806,57.769L95.935,57.769L96.068,57.769L96.191,57.769L96.319,57.769L96.575,57.769L96.704,57.769L96.838,57.769L96.961,57.769L97.088,57.769L97.344,57.769L97.473,57.769L97.606,57.769L97.73,57.769L97.857,57.769L98.113,57.769L98.242,57.769L98.377,57.769L98.5,57.769L98.625,57.769L98.883,34.692L99.012,34.692L99.145,34.692L99.269,34.692L99.395,34.692L99.651,34.692L99.779,34.692L99.914,34.692L100.036,34.692L100.163,34.692L100.42,34.692L100.548,34.692L100.681,34.692L100.804,34.692L100.932,34.692L101.189,34.692L101.317,34.692L101.451,34.692L101.573,34.692L101.702,34.692L101.958,34.692L102.087,34.692L102.221,34.692L102.344,34.692L102.471,34.692L102.726,34.692L102.856,34.692L102.99,34.692L103.113,34.692L103.239,34.692L103.496,34.692L103.624,34.692L103.759,34.692L103.881,34.692L104.008,34.692L104.264,34.692L104.393,34.692L104.528,34.692L104.65,34.692L104.777,34.692L105.033,34.692L105.162,34.692L105.297,34.692L105.419,34.692L105.546,34.692L105.802,34.692L105.931,34.692L106.065,34.692L106.187,34.692L106.315,34.692L106.572,34.692L106.7,34.692L106.834,34.692L106.957,34.692L107.084,34.692L107.342,34.692L107.469,34.692L107.604,34.692L107.726,34.692L107.853,34.692L108.109,34.692L108.238,34.692L108.373,34.692L108.495,34.692L108.622,34.692L108.879,34.692L109.007,34.692L109.142,34.692L109.264,34.692L109.391,34.692L109.647,34.692L109.775,34.692L109.91,34.692L110.033,34.692L110.159,34.692L110.417,34.692L110.545,34.692L110.68,34.692L110.801,34.692L110.929,34.692L111.185,34.692L111.313,34.692L111.447,34.692L111.57,34.692L111.697,34.692L111.954,34.692L112.082,34.692L112.216,34.692L112.339,34.692L112.467,34.692L112.723,34.692L112.852,34.692L112.987,34.692L113.109,34.692L113.235,34.692L113.494,34.692L113.621,34.692L113.756,34.692L113.877,34.692L114.004,34.692L114.262,34.692L114.39,34.692L114.524,34.692L114.647,34.692L114.773,34.692L115.031,34.692L115.158,34.692L115.293,34.692L115.415,34.692L115.542,34.692L115.8,34.692L115.927,34.692L116.062,34.692L116.184,34.692L116.311,34.692L116.567,34.692L116.696,34.692L116.83,34.692L116.953,34.692L117.08,34.692L117.337,34.692L117.465,34.692L117.599,34.692L117.721,34.692L117.849,34.692L118.106,34.692L118.235,34.692L118.37,34.692L118.491,34.692L118.619,34.692L118.874,34.692L119.004,34.692L119.138,34.692L119.261,34.692L119.387,34.692L119.645,34.692L119.772,34.692L119.907,34.692L120.029,34.692L120.156,34.692L120.413,34.692L120.541,34.692L120.677,34.692L120.798,34.692L120.925,34.692L121.182,34.692L121.31,34.692L121.446,34.692L121.568,34.692L121.694,34.692L121.95,34.692L122.078,34.692L122.213,34.692L122.336,34.692L122.462,34.692L122.719,34.692L122.847,34.692L122.982,34.692L123.104,34.692L123.231,34.692L123.489,34.692L123.617,34.692L123.753,34.692L123.874,34.692L124,34.692L124.258,34.692L124.386,34.692L124.521,34.692L124.643,34.692L124.77,34.692L125.026,34.692L125.155,46.231L125.29,46.231L125.412,46.231L125.538,46.231L125.795,46.231L125.924,46.231L126.059,46.231L126.182,46.231L126.308,46.231L126.564,46.231L126.692,46.231L126.828,48.538L126.949,48.538L127.077,48.538L127.334,48.538L127.462,48.538L127.596,48.538L127.718,48.538L127.845,48.538L128.102,48.538L128.23,48.538L128.365,48.538L128.487,48.538L128.614,48.538L128.872,48.538L129,48.538L129.135,48.538L129.257,48.538L129.383,48.538L129.64,48.538L129.769,48.538L129.904,48.538L130.026,48.538L130.152,48.538L130.409,48.538L130.538,48.538L130.673,48.538L130.795,48.538L130.921,48.538L131.177,48.538L131.306,48.538L131.441,48.538L131.565,48.538L131.69,48.538L131.947,48.538L132.075,48.538L132.21,48.538L132.332,48.538L132.459,48.538L132.715,48.538L132.843,48.538L132.979,48.538L133.101,48.538L133.227,48.538L133.484,48.538L133.612,48.538L133.747,48.538L133.869,48.538L133.996,48.538L134.254,48.538L134.382,48.538L134.518,48.538L134.639,48.538L134.765,48.538L135.022,48.538L135.151,48.538L135.286,48.538L135.535,48.538L135.792,48.538L135.92,48.538L136.056,48.538L136.177,48.538L136.304,48.538L136.562,48.538L136.689,48.538L136.824,48.538L136.946,48.538L137.073,48.538L137.329,48.538L137.458,48.538L137.593,48.538L137.714,48.538L137.842,48.538L138.099,48.538L138.226,48.538L138.361,48.538L138.483,48.538L138.61,48.538L138.867,48.538L138.995,48.538L139.13,48.538L139.253,48.538L139.379,48.538L139.636,48.538L139.765,48.538L139.901,48.538L140.023,48.538L140.148,48.538L140.405,48.538L140.534,48.538L140.668,48.538L140.791,48.538L140.917,48.538L141.174,48.538L141.303,48.538L141.438,48.538L141.56,48.538L141.686,48.538L141.943,48.538L142.071,48.538L142.207,48.538L142.328,48.538L142.455,48.538L142.713,48.538L142.84,48.538L142.975,48.538L143.097,48.538L143.224,48.538L143.481,48.538L143.609,48.538L143.743,48.538L143.866,48.538L143.993,48.538L144.249,48.538L144.377,48.538L144.512,48.538L144.634,48.538L144.762,48.538L145.019,48.538L145.148,48.538L145.282,48.538L145.404,48.538L145.531,48.538L145.787,48.538L145.917,48.538L146.052,48.538L146.174,48.538L146.3,48.538L146.557,48.538L146.686,48.538L146.821,48.538L146.942,48.538L147.069,48.538L147.326,48.538L147.454,48.538L147.59,48.538L147.711,48.538L147.837,48.538L148.094,48.538L148.223,48.538L148.359,48.538L148.48,48.538L148.607,48.538L148.863,48.538L148.991,48.538L149.125,48.538L149.248,48.538L149.375,48.538L149.633,48.538L149.762,48.538L149.904,48.538L150.024,48.538L150.144,48.538L150.402,48.538L150.53,48.538L150.666,48.538L150.788,48.538L150.913,48.538L151.171,48.538L151.299,48.538L151.432,48.538L151.557,48.538L151.682,48.538L151.939,48.538L152.068,48.538L152.203,48.538L152.325,48.538L152.451,48.538L152.709,48.538L152.837,48.538L152.973,48.538L153.093,48.538L153.22,48.538L153.478,48.538L153.605,48.538L153.741,48.538L153.863,48.538L153.989,48.538L154.246,48.538L154.374,48.538L154.508,48.538L154.631,48.538L154.758,48.538L155.015,48.538L155.142,48.538L155.278,48.538L155.401,48.538L155.527,48.538L155.784,48.538L155.914,48.538L156.048,48.538L156.17,48.538L156.295,48.538L156.553,48.538L156.682,48.538L156.817,48.538L156.939,48.538L157.065,48.538L157.321,27L157.451,27L157.586,27L157.708,27L157.834,27L158.091,27L158.22,27L158.355,27L158.477,27L158.603,27L158.86,27L158.988,27L159.123,27L159.246,27L159.371,27L159.629,27L159.756,27L159.892,27L160.013,27L160.141,27L160.397,27L160.525,27L160.66,27L160.783,27L160.909,27L161.166,27L161.295,27L161.431,27L161.552,27L161.679,27L161.935,27L162.064,27L162.2,27L162.321,27L162.447,27L162.703,27L162.831,27L162.969,27L163.09,27L163.216,27L163.473,27L163.602,27L163.738,27L163.859,27L163.986,27L164.243,27L164.371,27L164.506,27L164.628,27L164.754,27L165.011,27L165.139,27L165.274,27L165.396,27L165.523,27L165.781,27L165.908,27L166.043,27L166.164,27L166.293,27L166.549,27L166.678,27L166.814,27L166.935,27L167.061,27L167.319,27L167.447,27L167.582,27L167.704,27L167.83,27L168.087,27L168.215,27L168.352,27L168.473,27L168.599,27L168.857,27L168.985,27L169.12,27L169.242,27L169.368,27L169.625,27L169.754,27L169.889,27L170.01,27L170.137,27L170.395,27L170.522,27L170.657,27L170.78,27L170.905,27L171.163,27L171.291,27L171.426,27L171.548,27L171.675,27L171.932,27L172.061,27L172.197,27L172.318,27L172.444,27L172.701,27L172.829,27L172.965,27L173.087,27L173.212,27L173.47,27L173.599,27L173.734,27L173.856,27L173.981,27L174.239,27L174.367,27L174.503,27L174.624,27L174.75,27L175.007,27L175.136,27L175.271,27L175.394,27L175.519,27L175.776,27L175.904,27L176.039,27L176.162,27L176.289,27L176.545,27L176.673,27L176.809,27L176.93,27L177.057,27L177.314,27L177.443,27L177.579,27L177.7,27L177.826,27L178.084,27L178.212,27L178.348,27L178.468,27L178.595,27L178.852,27L178.981,27L179.114,27L179.238,27L179.364,27L179.621,27L179.75,27L179.886,27L180.008,27L180.133,27L180.39,27L180.519,27L180.654,27L180.776,27L180.901,27L181.159,27L181.287,27L181.422,27L181.544,27L181.67,27L181.928,27L182.056,27L182.191,27L182.313,27L182.44,27L182.698,27L182.826,27L182.962,27L183.083,27L183.209,27L183.466,27L183.595,27L183.731,27L183.851,27L183.978,27L184.235,27L184.364,27L184.5,27L184.622,27L184.746,27L185.004,27L185.133,27L185.269,27L185.39,27L185.515,27L185.774,27L185.902,27L186.038,27L186.159,27L186.285,27L186.542,27L186.67,27L186.805,27L186.928,27L187.053,27L187.311,27L187.439,27L187.576,27L187.696,27L187.822,27L188.08,27L188.209,27L188.345,27L188.466,27L188.592,27L188.849,27L188.978,27L189.114,27L189.235,27L189.36,27L189.618,27L189.747,27L189.883,27L190.003,27L190.13,27L190.387,27L190.516,27L190.652,27L190.772,27L190.898,27L191.156,27L191.284,27L191.42,27L191.543,27L191.667,27L191.924,27L192.052,27L192.188,27L192.309,27L192.436,27L192.693,27L192.821,27L192.957,27L193.079,27L193.205,27L193.463,27L193.592,27L193.728,27L193.848,27L193.974,27L194.232,27L194.36,27L194.497,27L194.617,27L194.743,27L195.001,27L195.13,27L195.266,27L195.386,27L195.511,27L195.77,27L195.899,27L196.034,27L196.156,27L196.281,27L196.538,27L196.667,27L196.803,27L196.924,27L197.05,27L197.307,46.231L197.436,46.231L197.571,46.231L197.692,46.231L197.819,46.231L198.076,46.231L198.205,46.231L198.34,46.231L198.462,46.231L198.587,46.231L198.846,46.231L198.975,46.231L199.111,46.231L199.232,46.231L199.357,46.231L199.612,46.231L199.743,46.231L199.88,46.231L200,46.231" stroke="#4c78a8" stroke-width="2"/></g></g><path class="foreground" aria-hidden="true" d="" display="none"/></g><g transform="translate(0,0)"><path class="background" aria-hidden="true" d="M0,0h200v200h-200Z"/><g><g class="mark-line role-mark marks" role="graphics-object" aria-roledescription="line mark container"><path aria-label="Time: Jan 01, 2024; Price: 2499; identifier: altex-LG-F2WR508SBM" role="graphics-symbol" aria-roledescription="line mark" d="M0,7.769L0.081,7.769L0.202,7.769L0.459,7.769L0.587,7.769L0.722,7.769L0.844,7.769L0.971,7.769L1.228,7.769L1.356,7.769L1.491,7.769L1.613,7.769L1.74,7.769L1.997,7.769L2.125,7.769L2.259,7.769L2.383,7.769L2.509,7.769L2.766,27L2.894,27L3.028,27L3.152,27L3.278,27L3.535,27L3.663,27L3.797,27L3.92,27L4.047,27L4.304,27L4.431,27L4.566,27L4.689,27L4.816,27L5.073,27L5.201,27L5.336,27L5.459,27L5.585,27L5.842,27L5.97,27L6.106,27L6.228,27L6.354,27L6.611,27L6.739,27L6.874,27L6.996,27L7.123,27L7.38,27L7.508,27L7.643,27L7.766,27L7.892,27L8.148,27L8.277,27L8.411,27L8.534,27L8.661,27L8.917,38.538L9.045,38.538L9.179,38.538L9.302,38.538L9.429,38.538L9.686,38.538L9.814,38.538L9.948,38.538L10.071,38.538L10.198,38.538L10.456,38.538L10.584,38.538L10.719,38.538L10.841,38.538L10.967,38.538L11.224,38.538L11.353,38.538L11.488,38.538L11.611,38.538L11.736,38.538L11.993,38.538L12.122,38.538L12.257,38.538L12.379,38.538L12.505,38.538L12.762,38.538L12.89,38.538L13.025,38.538L13.148,38.538L13.274,38.538L13.531,38.538L13.659,38.538L13.794,38.538L13.917,38.538L14.043,38.538L14.3,38.538L14.427,38.538L14.562,38.538L14.685,38.538L14.812,38.538L15.068,38.538L15.196,38.538L15.331,38.538L15.454,38.538L15.581,38.538L15.838,38.538L15.967,38.538L16.102,38.538L16.224,38.538L16.35,38.538L16.607,38.538L16.736,38.538L16.871,38.538L16.993,38.538L17.119,38.538L17.376,38.538L17.504,38.538L17.64,38.538L17.762,38.538L17.888,38.538L18.145,38.538L18.273,38.538L18.409,38.538L18.531,38.538L18.657,38.538L18.913,38.538L19.042,38.538L19.175,38.538L19.298,38.538L19.426,38.538L19.682,38.538L19.81,38.538L19.942,38.538L20.066,38.538L20.194,38.538L20.451,38.538L20.579,38.538L20.711,38.538L20.835,38.538L20.963,38.538L21.22,38.538L21.348,38.538L21.481,38.538L21.604,38.538L21.732,38.538L21.988,38.538L22.117,38.538L22.25,38.538L22.375,38.538L22.501,38.538L22.757,38.538L22.886,38.538L23.019,38.538L23.142,38.538L23.27,38.538L23.526,27L23.655,27L23.788,27L23.911,27L24.039,27L24.296,27L24.424,27L24.557,27L24.68,27L24.808,27L25.064,27L25.193,27L25.325,27L25.449,27L25.577,27L25.834,27L25.962,27L26.094,27L26.218,27L26.346,27L26.602,27L26.731,27L26.864,27L26.987,27L27.115,27L27.371,27L27.499,27L27.633,27L27.756,27L27.884,27L28.14,27L28.268,27L28.401,27L28.525,27L28.653,27L28.909,27L29.038,27L29.17,27L29.294,27L29.422,27L29.678,27L29.806,27L29.939,27L30.063,27L30.191,27L30.447,27L30.575,27L30.708,27L30.831,27L30.96,27L31.216,27L31.344,27L31.476,27L31.6,27L31.728,27L31.985,27L32.113,27L32.247,27L32.37,27L32.497,27L32.753,27L32.882,27L33.015,27L33.14,27L33.266,27L33.523,27L33.651,27L33.784,27L33.907,27L34.035,27L34.42,27L34.553,27L34.676,27L34.804,27L35.061,27L35.189,27L35.322,27L35.446,27L35.573,27L35.83,27L35.957,27L36.09,27L36.214,27L36.342,27L36.598,27L36.727,27L36.859,27L36.983,27L37.111,27L37.367,27L37.496,27L37.629,27L37.753,27L37.88,27L38.137,27L38.264,27L38.397,27L38.521,27L38.649,27L38.905,27L39.033,27L39.167,27L39.29,27L39.418,27L39.674,27L39.802,27L39.936,27L40.059,27L40.187,27L40.443,27L40.571,27L40.704,27L40.827,27L40.956,27L41.212,27L41.34,27L41.472,27L41.596,27L41.724,27L41.981,27L42.109,27L42.241,27L42.366,27L42.493,27L42.75,27L42.878,27L43.011,27L43.135,27L43.262,27L43.519,27L43.647,27L43.78,27L43.904,27L44.031,27L44.288,27L44.416,27L44.549,27L44.673,27L44.8,27L45.057,27L45.185,27L45.317,27L45.441,27L45.569,27L45.825,27L45.954,27L46.087,27L46.21,27L46.338,27L46.595,27L46.723,27L46.856,27L46.979,27L47.107,27L47.363,27L47.491,27L47.624,27L47.748,27L47.876,27L48.144,27L48.319,27L48.396,27L48.518,27L48.645,27L48.901,27L49.029,27L49.163,27L49.286,27L49.414,27L49.67,27L49.799,27L49.932,27L50.056,27L50.183,27L50.439,27L50.568,27L50.7,38.538L50.824,38.538L50.952,38.538L51.208,38.538L51.338,38.538L51.469,38.538L51.592,38.538L51.721,38.538L51.977,38.538L52.105,38.538L52.237,38.538L52.362,38.538L52.489,38.538L52.746,38.538L52.875,38.538L53.006,38.538L53.131,38.538L53.258,38.538L53.515,38.538L53.643,38.538L53.777,38.538L53.9,38.538L54.028,38.538L54.284,38.538L54.412,38.538L54.545,38.538L54.669,38.538L54.796,38.538L55.053,38.538L55.182,38.538L55.315,38.538L55.437,38.538L55.565,38.538L55.822,38.538L55.95,38.538L56.084,38.538L56.207,38.538L56.334,38.538L56.59,38.538L56.72,38.538L56.852,38.538L56.975,38.538L57.103,38.538L57.36,38.538L57.488,38.538L57.621,38.538L57.744,38.538L57.873,38.538L58.128,38.538L58.257,38.538L58.389,38.538L58.513,38.538L58.641,38.538L58.897,38.538L59.026,38.538L59.16,38.538L59.283,38.538L59.411,38.538L59.667,38.538L59.795,38.538L59.928,38.538L60.052,38.538L60.179,38.538L60.435,38.538L60.564,38.538L60.697,38.538L60.821,38.538L60.948,38.538L61.204,38.538L61.333,38.538L61.466,38.538L61.591,38.538L61.717,38.538L61.973,38.538L62.101,38.538L62.235,38.538L62.358,38.538L62.486,38.538L62.742,38.538L62.87,38.538L63.003,38.538L63.126,38.538L63.255,38.538L63.511,38.538L63.639,38.538L63.773,38.538L63.895,38.538L64.024,38.538L64.28,38.538L64.408,38.538L64.542,38.538L64.665,38.538L64.792,38.538L65.049,38.538L65.178,38.538L65.311,38.538L65.435,38.538L65.561,38.538L65.819,38.538L65.947,38.538L66.08,38.538L66.204,38.538L66.33,38.538L66.587,38.538L66.715,38.538L66.849,38.538L66.972,38.538L67.099,38.538L67.356,38.538L67.484,38.538L67.618,38.538L67.741,38.538L67.868,38.538L68.124,38.538L68.253,38.538L68.385,38.538L68.509,38.538L68.638,38.538L68.894,38.538L69.022,38.538L69.155,38.538L69.279,38.538L69.406,38.538L69.662,38.538L69.792,38.538L69.925,38.538L70.049,38.538L70.175,38.538L70.432,38.538L70.56,38.538L70.694,38.538L70.817,38.538L70.944,38.538L71.2,38.538L71.329,38.538L71.462,38.538L71.586,38.538L71.713,38.538L71.97,38.538L72.098,38.538L72.231,38.538L72.354,38.538L72.482,38.538L72.739,38.538L73,38.538L73.123,38.538L73.251,38.538L73.507,38.538L73.636,38.538L73.768,38.538L73.892,38.538L74.02,38.538L74.276,38.538L74.404,38.538L74.537,38.538L74.661,38.538L74.789,38.538L75.045,38.538L75.173,38.538L75.307,38.538L75.431,38.538L75.558,38.538L75.814,38.538L75.942,38.538L76.076,38.538L76.199,38.538L76.327,38.538L76.583,38.538L76.712,38.538L76.845,38.538L76.969,38.538L77.096,38.538L77.352,38.538L77.481,38.538L77.614,38.538L77.865,38.538L78.121,38.538L78.25,38.538L78.383,38.538L78.505,38.538L78.633,38.538L78.89,38.538L79.018,38.538L79.149,38.538L79.274,38.538L79.402,38.538L79.67,38.538L79.867,38.538L79.988,38.538L80.237,38.538L80.429,38.538L80.556,38.538L80.688,38.538L80.812,38.538L80.94,38.538L81.197,38.538L81.325,38.538L81.459,38.538L81.581,38.538L81.709,38.538L81.965,38.538L82.093,38.538L82.228,38.538L82.351,38.538L82.478,38.538L82.863,38.538L82.996,38.538L83.119,38.538L83.247,38.538L83.503,38.538L83.632,38.538L83.765,38.538L83.889,38.538L84.016,38.538L84.272,38.538L84.4,38.538L84.533,38.538L84.657,38.538L84.785,38.538L85.042,38.538L85.17,38.538L85.303,38.538L85.426,38.538L85.554,38.538L85.81,38.538L85.939,38.538L86.073,38.538L86.195,38.538L86.323,38.538L86.579,38.538L86.707,38.538L86.842,38.538L86.964,38.538L87.092,38.538L87.348,38.538L87.477,38.538L87.614,38.538L87.733,38.538L87.861,38.538L88.117,38.538L88.246,38.538L88.376,38.538L88.502,38.538L88.63,38.538L88.886,38.538L89.014,38.538L89.148,38.538L89.271,38.538L89.399,38.538L89.655,38.538L89.783,38.538L89.915,38.538L90.039,38.538L90.167,38.538L90.424,38.538L90.552,38.538L90.686,38.538L90.808,38.538L90.936,38.538L91.192,38.538L91.323,38.538L91.456,38.538L91.578,38.538L91.705,38.538L91.962,38.538L92.09,38.538L92.224,38.538L92.347,38.538L92.474,38.538L92.73,38.538L92.861,38.538L92.993,38.538L93.116,38.538L93.243,38.538L93.5,38.538L93.628,38.538L93.763,38.538L93.885,38.538L94.013,38.538L94.269,38.538L94.396,38.538L94.531,38.538L94.654,38.538L94.781,38.538L95.037,38.538L95.165,38.538L95.299,38.538L95.422,38.538L95.55,38.538L95.806,38.538L95.935,38.538L96.068,38.538L96.191,38.538L96.319,38.538L96.575,38.538L96.704,38.538L96.838,38.538L96.961,38.538L97.088,38.538L97.344,38.538L97.473,38.538L97.606,30.846L97.73,30.846L97.857,30.846L98.113,30.846L98.242,30.846L98.377,30.846L98.5,30.846L98.625,30.846L98.883,30.846L99.012,30.846L99.145,30.846L99.269,30.846L99.395,30.846L99.651,30.846L99.779,30.846L99.914,30.846L100.036,30.846L100.163,30.846L100.42,30.846L100.548,30.846L100.681,30.846L100.804,30.846L100.932,30.846L101.189,30.846L101.317,30.846L101.451,30.846L101.573,30.846L101.702,30.846L101.958,30.846L102.087,30.846L102.221,30.846L102.344,30.846L102.471,30.846L102.726,30.846L102.856,30.846L102.99,30.846L103.113,30.846L103.239,30.846L103.496,30.846L103.624,30.846L103.76,30.846L103.881,30.846L104.008,30.846L104.264,30.846L104.393,30.846L104.528,30.846L104.65,30.846L104.777,30.846L105.034,30.846L105.162,30.846L105.297,30.846L105.419,30.846L105.546,30.846L105.802,30.846L105.931,30.846L106.065,30.846L106.187,30.846L106.315,30.846L106.572,30.846L106.7,30.846L106.834,30.846L106.957,30.846L107.084,30.846L107.342,30.846L107.469,30.846L107.604,30.846L107.726,30.846L107.853,30.846L108.109,30.846L108.238,30.846L108.373,30.846L108.495,30.846L108.622,30.846L108.879,30.846L109.007,30.846L109.142,38.538L109.264,38.538L109.391,38.538L109.647,38.538L109.776,38.538L109.91,38.538L110.033,38.538L110.16,38.538L110.417,38.538L110.545,38.538L110.68,38.538L110.801,38.538L110.929,38.538L111.185,38.538L111.313,38.538L111.447,38.538L111.57,38.538L111.697,38.538L111.954,38.538L112.082,38.538L112.216,38.538L112.339,38.538L112.467,38.538L112.723,38.538L112.852,38.538L112.987,38.538L113.109,38.538L113.235,38.538L113.494,38.538L113.621,38.538L113.756,38.538L113.877,38.538L114.004,38.538L114.262,38.538L114.39,38.538L114.525,38.538L114.647,38.538L114.773,38.538L115.031,38.538L115.159,38.538L115.293,38.538L115.415,38.538L115.542,38.538L115.8,30.846L115.927,30.846L116.062,30.846L116.184,30.846L116.311,30.846L116.567,30.846L116.696,30.846L116.83,30.846L116.953,30.846L117.08,30.846L117.337,30.846L117.465,30.846L117.599,30.846L117.721,30.846L117.849,30.846L118.106,30.846L118.235,30.846L118.37,30.846L118.491,30.846L118.619,30.846L118.875,30.846L119.004,30.846L119.138,30.846L119.261,30.846L119.387,30.846L119.645,30.846L119.772,30.846L119.908,30.846L120.029,30.846L120.156,30.846L120.413,30.846L120.541,30.846L120.677,30.846L120.798,30.846L120.925,30.846L121.182,30.846L121.31,30.846L121.446,30.846L121.568,30.846L121.694,30.846L121.95,30.846L122.078,30.846L122.213,30.846L122.336,30.846L122.462,30.846L122.719,30.846L122.847,30.846L122.982,30.846L123.104,30.846L123.231,30.846L123.489,30.846L123.618,30.846L123.753,30.846L123.874,30.846L124,30.846L124.258,30.846L124.386,30.846L124.521,30.846L124.643,30.846L124.77,30.846L125.026,30.846L125.155,34.692L125.29,34.692L125.412,34.692L125.538,34.692L125.795,34.692L125.924,34.692L126.059,34.692L126.182,34.692L126.308,34.692L126.564,34.692L126.692,34.692L126.828,40.077L126.949,40.077L127.077,40.077L127.334,40.077L127.462,40.077L127.596,40.077L127.718,40.077L127.845,40.077L128.102,40.077L128.23,40.077L128.365,40.077L128.487,40.077L128.614,40.077L128.872,40.077L129,40.077L129.135,40.077L129.257,40.077L129.383,40.077L129.64,40.077L129.769,40.077L129.904,40.077L130.026,40.077L130.152,40.077L130.409,40.077L130.538,40.077L130.673,40.077L130.795,40.077L130.921,40.077L131.177,40.077L131.306,40.077L131.441,40.077L131.565,40.077L131.69,40.077L131.947,40.077L132.075,40.077L132.21,40.077L132.332,40.077L132.459,40.077L132.715,40.077L132.843,40.077L132.979,40.077L133.101,40.077L133.228,40.077L133.484,40.077L133.612,40.077L133.747,40.077L133.869,40.077L133.996,40.077L134.254,40.077L134.382,40.077L134.518,40.077L134.639,40.077L134.765,40.077L135.022,40.077L135.151,40.077L135.286,40.077L135.535,40.077L135.792,40.077L135.92,40.077L136.056,40.077L136.177,40.077L136.304,40.077L136.562,40.077L136.689,40.077L136.824,40.077L136.946,40.077L137.073,40.077L137.329,40.077L137.458,40.077L137.593,40.077L137.714,40.077L137.842,40.077L138.099,40.077L138.226,40.077L138.361,40.077L138.483,40.077L138.61,40.077L138.867,40.077L138.995,40.077L139.13,40.077L139.253,40.077L139.379,40.077L139.636,40.077L139.765,40.077L139.901,40.077L140.023,40.077L140.148,40.077L140.405,40.077L140.534,40.077L140.669,40.077L140.791,40.077L140.917,40.077L141.174,40.077L141.303,40.077L141.438,40.077L141.56,40.077L141.686,40.077L141.943,40.077L142.071,40.077L142.207,40.077L142.328,40.077L142.455,40.077L142.713,40.077L142.84,40.077L142.975,40.077L143.097,40.077L143.224,40.077L143.481,40.077L143.609,40.077L143.743,40.077L143.866,40.077L143.993,40.077L144.249,40.077L144.377,40.077L144.512,40.077L144.634,40.077L144.762,40.077L145.019,40.077L145.148,40.077L145.282,40.077L145.405,40.077L145.531,40.077L145.787,40.077L145.917,40.077L146.052,40.077L146.174,40.077L146.3,40.077L146.557,40.077L146.686,40.077L146.821,40.077L146.942,40.077L147.069,40.077L147.326,40.077L147.454,40.077L147.59,40.077L147.711,40.077L147.837,40.077L148.094,40.077L148.223,40.077L148.359,40.077L148.48,40.077L148.607,40.077L148.863,40.077L148.991,40.077L149.126,40.077L149.248,40.077L149.375,40.077L149.633,40.077L149.762,40.077L149.904,40.077L150.024,40.077L150.144,40.077L150.402,40.077L150.53,40.077L150.666,40.077L150.788,40.077L150.913,40.077L151.171,40.077L151.299,40.077L151.432,40.077L151.557,40.077L151.682,40.077L151.939,40.077L152.068,40.077L152.203,40.077L152.325,40.077L152.451,40.077L152.709,40.077L152.837,40.077L152.973,40.077L153.093,40.077L153.22,40.077L153.478,40.077L153.605,40.077L153.741,40.077L153.863,40.077L153.989,40.077L154.246,40.077L154.374,40.077L154.509,40.077L154.631,40.077L154.758,40.077L155.015,40.077L155.142,40.077L155.278,40.077L155.401,40.077L155.527,40.077L155.784,40.077L155.914,40.077L156.049,40.077L156.17,40.077L156.296,40.077L156.553,40.077L156.682,40.077L156.817,40.077L156.939,40.077L157.065,40.077L157.321,40.077L157.451,40.077L157.586,40.077L157.708,40.077L157.834,40.077L158.092,40.077L158.22,40.077L158.355,40.077L158.477,40.077L158.603,40.077L158.86,40.077L158.988,40.077L159.123,40.077L159.246,40.077L159.371,40.077L159.629,40.077L159.756,40.077L159.892,40.077L160.013,40.077L160.141,40.077L160.397,40.077L160.525,40.077L160.66,40.077L160.783,40.077L160.909,40.077L161.166,40.077L161.295,40.077L161.431,40.077L161.552,40.077L161.679,40.077L161.935,40.077L162.064,40.077L162.2,40.077L162.321,40.077L162.447,40.077L162.703,40.077L162.831,40.077L162.969,40.077L163.09,40.077L163.216,40.077L163.473,40.077L163.602,40.077L163.738,40.077L163.859,40.077L163.986,40.077L164.243,40.077L164.371,40.077L164.506,40.077L164.628,40.077L164.754,40.077L165.011,40.077L165.139,40.077L165.274,40.077L165.396,40.077L165.523,40.077L165.781,40.077L165.908,40.077L166.043,40.077L166.164,40.077L166.293,40.077L166.549,40.077L166.678,40.077L166.814,40.077L166.935,40.077L167.061,40.077L167.319,40.077L167.447,40.077L167.582,40.077L167.704,40.077L167.83,40.077L168.088,40.077L168.215,40.077L168.352,40.077L168.474,40.077L168.599,40.077L168.857,40.077L168.985,40.077L169.12,40.077L169.242,40.077L169.368,40.077L169.625,40.077L169.754,40.077L169.889,40.077L170.01,40.077L170.137,40.077L170.395,40.077L170.522,40.077L170.657,40.077L170.78,40.077L170.905,40.077L171.163,40.077L171.291,40.077L171.426,40.077L171.548,40.077L171.675,40.077L171.932,40.077L172.061,40.077L172.197,40.077L172.318,40.077L172.444,40.077L172.701,40.077L172.829,40.077L172.965,40.077L173.087,40.077L173.212,40.077L173.47,40.077L173.599,40.077L173.734,40.077L173.856,40.077L173.981,40.077L174.239,40.077L174.367,40.077L174.503,40.077L174.624,40.077L174.75,40.077L175.007,40.077L175.136,40.077L175.271,40.077L175.394,40.077L175.519,40.077L175.776,40.077L175.904,40.077L176.039,40.077L176.162,40.077L176.289,40.077L176.545,40.077L176.673,40.077L176.809,40.077L176.93,40.077L177.057,40.077L177.314,40.077L177.443,40.077L177.579,40.077L177.7,40.077L177.826,40.077L178.084,40.077L178.212,40.077L178.348,40.077L178.468,40.077L178.595,40.077L178.853,40.077L178.981,40.077L179.114,40.077L179.238,40.077L179.364,40.077L179.621,40.077L179.75,40.077L179.886,40.077L180.008,40.077L180.133,40.077L180.39,40.077L180.519,40.077L180.654,40.077L180.776,40.077L180.901,40.077L181.159,40.077L181.287,40.077L181.422,40.077L181.544,40.077L181.671,40.077L181.928,40.077L182.056,40.077L182.191,40.077L182.313,40.077L182.441,40.077L182.698,40.077L182.826,40.077L182.962,40.077L183.083,40.077L183.209,40.077L183.467,40.077L183.595,40.077L183.731,40.077L183.851,40.077L183.978,40.077L184.235,40.077L184.364,40.077L184.5,40.077L184.622,40.077L184.746,40.077L185.004,40.077L185.133,40.077L185.269,40.077L185.39,40.077L185.515,40.077L185.774,40.077L185.902,40.077L186.038,40.077L186.159,40.077L186.285,40.077L186.542,40.077L186.67,40.077L186.805,40.077L186.928,40.077L187.053,40.077L187.311,40.077L187.439,40.077L187.576,40.077L187.696,40.077L187.822,40.077L188.08,40.077L188.209,40.077L188.345,40.077L188.466,40.077L188.592,40.077L188.849,40.077L188.978,40.077L189.114,40.077L189.235,40.077L189.36,40.077L189.618,40.077L189.747,40.077L189.883,40.077L190.003,40.077L190.13,40.077L190.387,40.077L190.516,40.077L190.652,40.077L190.772,40.077L190.898,40.077L191.156,40.077L191.284,40.077L191.42,40.077L191.543,40.077L191.667,40.077L191.924,40.077L192.052,40.077L192.188,40.077L192.309,40.077L192.436,40.077L192.693,40.077L192.821,40.077L192.957,40.077L193.079,40.077L193.205,40.077L193.463,40.077L193.592,40.077L193.728,40.077L193.848,40.077L193.974,40.077L194.232,40.077L194.36,40.077L194.497,40.077L194.617,40.077L194.743,40.077L195.002,40.077L195.13,40.077L195.266,40.077L195.386,40.077L195.512,40.077L195.77,40.077L195.899,40.077L196.034,40.077L196.156,40.077L196.281,40.077L196.538,40.077L196.667,40.077L196.803,40.077L196.924,40.077L197.05,40.077L197.307,40.077L197.436,40.077L197.571,40.077L197.692,40.077L197.819,40.077L198.076,40.077L198.205,40.077L198.34,40.077L198.462,40.077L198.587,40.077L198.846,40.077L198.975,40.077L199.111,40.077L199.232,40.077L199.357,40.077L199.612,40.077L199.743,40.077L199.88,40.077L200,40.077" stroke="#f58518" stroke-width="2"/></g></g><path class="foreground" aria-hidden="true" d="" display="none"/></g></g><g class="mark-group role-legend" role="graphics-symbol" aria-roledescription="legend" aria-label="Symbol legend titled 'identifier' for stroke color with 2 values: altex-LG-F2WR508SBW, altex-LG-F2WR508SBM"><g transform="translate(220,0)"><path class="background" aria-hidden="true" d="M0,0h168v40h-168Z" pointer-events="none"/><g><g class="mark-group role-legend-entry"><g transform="translate(0,16)"><path class="background" aria-hidden="true" d="M0,0h0v0h0Z" pointer-events="none"/><g><g class="mark-group role-scope" role="graphics-object" aria-roledescription="group mark container"><g transform="translate(0,0)"><path class="background" aria-hidden="true" d="M0,0h168v11h-168Z" pointer-events="none" opacity="1"/><g><g class="mark-symbol role-legend-symbol" pointer-events="none"><path transform="translate(6,6)" d="M-5,0L5,0" stroke="#4c78a8" stroke-width="1.5" opacity="1"/></g><g class="mark-text role-legend-label" pointer-events="none"><text text-anchor="start" transform="translate(16,9)" font-family="Liberation Mono" font-size="10px" fill="#000" opacity="1">altex-LG-F2WR508SBW</text></g></g><path class="foreground" aria-hidden="true" d="" pointer-events="none" display="none"/></g><g transform="translate(0,13)"><path class="background" aria-hidden="true" d="M0,0h168v11h-168Z" pointer-events="none" opacity="1"/><g><g class="mark-symbol role-legend-symbol" pointer-events="none"><path transform="translate(6,6)" d="M-5,0L5,0" stroke="#f58518" stroke-width="1.5" opacity="1"/></g><g class="mark-text role-legend-label" pointer-events="none"><text text-anchor="start" transform="translate(16,9)" font-family="Liberation Mono" font-size="10px" fill="#000" opacity="1">altex-LG-F2WR508SBM</text></g></g><path class="foreground" aria-hidden="true" d="" pointer-events="none" display="none"/></g></g></g><path class="foreground" aria-hidden="true" d="" pointer-events="none" display="none"/></g></g><g class="mark-text role-legend-title" pointer-events="none"><text text-anchor="start" transform="translate(0,9)" font-family="Liberation Mono" font-size="11px" font-weight="bold" fill="#000" opacity="1">identifier</text></g></g><path class="foreground" aria-hidden="true" d="" pointer-events="none" display="none"/></g></g></g><path class="foreground" aria-hidden="true" d="" display="none"/></g></g></g></svg>