<svg xmlns="http://www.w3.org/2000/svg" xmlns:xlink="http://www.w3.org/1999/xlink" version="1.1" class="marks" width="460" height="242" viewBox="0 0 460 242"><rect width="460" height="242" fill="white"/><g fill="none" stroke-miterlimit="10" transform="translate(67,5)"><g class="mark-group role-frame root" role="graphics-object" aria-roledescription="group mark container"><g transform="translate(0,0)"><path class="background" aria-hidden="true" d="M0.5,0.5h200v200h-200Z" stroke="#ddd"/><g><g class="mark-group role-axis" aria-hidden="true"><g transform="translate(0.5,200.5)"><path class="background" aria-hidden="true" d="M0,0h0v0h0Z" pointer-events="none"/><g><g class="mark-rule role-axis-grid" pointer-events="none"><line transform="translate(29,-200)" x2="0" y2="200" stroke="#ddd" stroke-width="1" opacity="1"/><line transform="translate(56,-200)" x2="0" y2="200" stroke="#ddd" stroke-width="1" opacity="1"/><line transform="translate(85,-200)" x2="0" y2="200" stroke="#ddd" stroke-width="1" opacity="1"/><line transform="translate(114,-200)" x2="0" y2="200" stroke="#ddd" stroke-width="1" opacity="1"/><line transform="translate(143,-200)" x2="0" y2="200" stroke="#ddd" stroke-width="1" opacity="1"/><line transform="translate(171,-200)" x2="0" y2="200" stroke="#ddd" stroke-width="1" opacity="1"/></g></g><path class="foreground" aria-hidden="true" d="" pointer-events="none" display="none"/></g></g><g class="mark-group role-axis" aria-hidden="true"><g transform="translate(0.5,0.5)"><path class="background" aria-hidden="true" d="M0,0h0v0h0Z" pointer-events="none"/><g><g class="mark-rule role-axis-grid" pointer-events="none"><line transform="translate(0,200)" x2="200" y2="0" stroke="#ddd" stroke-width="1" opacity="1"/><line transform="translate(0,162)" x2="200" y2="0" stroke="#ddd" stroke-width="1" opacity="1"/><line transform="translate(0,123)" x2="200" y2="0" stroke="#ddd" stroke-width="1" opacity="1"/><line transform="translate(0,85)" x2="200" y2="0" stroke="#ddd" stroke-width="1" opacity="1"/><line transform="translate(0,46)" x2="200" y2="0" stroke="#ddd" stroke-width="1" opacity="1"/><line transform="translate(0,8)" x2="200" y2="0" stroke="#ddd" stroke-width="1" opacity="1"/></g></g><path class="foreground" aria-hidden="true" d="" pointer-events="none" display="none"/></g></g><g class="mark-group role-axis" role="graphics-symbol" aria-roledescription="axis" aria-label="X-axis titled 'Time' for a time scale with values from Monday, 01 January 2024, 2:19:43 PM to Wednesday, 31 July 2024, 12:56:16 PM"><g transform="translate(0.5,200.5)"><path class="background" aria-hidden="true" d="M0,0h0v0h0Z" pointer-events="none"/><g><g class="mark-rule role-axis-tick" pointer-events="none"><line transform="translate(29,0)" x2="0" y2="5" stroke="#888" stroke-width="1" opacity="1"/><line transform="translate(56,0)" x2="0" y2="5" stroke="#888" stroke-width="1" opacity="1"/><line transform="translate(85,0)" x2="0" y2="5" stroke="#888" stroke-width="1" opacity="1"/><line transform="translate(114,0)" x2="0" y2="5" stroke="#888" stroke-width="1" opacity="1"/><line transform="translate(143,0)" x2="0" y2="5" stroke="#888" stroke-width="1" opacity="1"/><line transform="translate(171,0)" x2="0" y2="5" stroke="#888" stroke-width="1" opacity="1"/></g><g class="mark-text role-axis-label" pointer-events="none"><text text-anchor="middle" transform="translate(28.689892400805284,15)" font-family="Liberation Mono" font-size="10px" fill="#000" opacity="1">February</text><text text-anchor="middle" transform="translate(56.05586333953997,15)" font-family="Liberation Mono" font-size="10px" fill="#000" opacity="0">March</text><text text-anchor="middle" transform="translate(85.30914261887705,15)" font-family="Liberation Mono" font-size="10px" fill="#000" opacity="1">April</text><text text-anchor="middle" transform="translate(113.61876772791292,15)" font-family="Liberation Mono" font-size="10px" fill="#000" opacity="0">May</text><text text-anchor="middle" transform="translate(142.87204700725,15)" font-family="Liberation Mono" font-size="10px" fill="#000" opacity="1">June</text><text text-anchor="middle" transform="translate(171.18167211628588,15)" font-family="Liberation Mono" font-size="10px" fill="#000" opacity="0">July</text></g><g class="mark-rule role-axis-domain" pointer-events="none"><line transform="translate(0,0)" x2="200" y2="0" stroke="#888" stroke-width="1" opacity="1"/></g><g class="mark-text role-axis-title" pointer-events="none"><text text-anchor="middle" transform="translate(100,30)" font-family="Liberation Mono" font-size="11px" font-weight="bold" fill="#000" opacity="1">Time</text></g></g><path class="foreground" aria-hidden="true" d="" pointer-events="none" display="none"/></g></g><g class="mark-group role-axis" role="graphics-symbol" aria-roledescription="axis" aria-label="Y-axis titled 'Price' for a linear scale with values from 0 to 2,600"><g transform="translate(0.5,0.5)"><path class="background" aria-hidden="true" d="M0,0h0v0h0Z" pointer-events="none"/><g><g class="mark-rule role-axis-tick" pointer-events="none"><line transform="translate(0,200)" x2="-5" y2="0" stroke="#888" stroke-width="1" opacity="1"/><line transform="translate(0,162)" x2="-5" y2="0" stroke="#888" stroke-width="1" opacity="1"/><line transform="translate(0,123)" x2="-5" y2="0" stroke="#888" stroke-width="1" opacity="1"/><line transform="translate(0,85)" x2="-5" y2="0" stroke="#888" stroke-width="1" opacity="1"/><line transform="translate(0,46)" x2="-5" y2="0" stroke="#888" stroke-width="1" opacity="1"/><line transform="translate(0,8)" x2="-5" y2="0" stroke="#888" stroke-width="1" opacity="1"/></g><g class="mark-text role-axis-label" pointer-events="none"><text text-anchor="end" transform="translate(-7,203)" font-family="Liberation Mono" font-size="10px" fill="#000" opacity="1">0</text><text text-anchor="end" transform="translate(-7,164.53846153846155)" font-family="Liberation Mono" font-size="10px" fill="#000" opacity="1">500</text><text text-anchor="end" transform="translate(-7,126.07692307692308)" font-family="Liberation Mono" font-size="10px" fill="#000" opacity="1">1,000</text><text text-anchor="end" transform="translate(-7,87.61538461538463)" font-family="Liberation Mono" font-size="10px" fill="#000" opacity="1">1,500</text><text text-anchor="end" transform="translate(-7,49.153846153846146)" font-family="Liberation Mono" font-size="10px" fill="#000" opacity="1">2,000</text><text text-anchor="end" transform="translate(-7,10.692307692307686)" font-family="Liberation Mono" font-size="10px" fill="#000" opacity="1">2,500</text></g><g class="mark-rule role-axis-domain" pointer-events="none"><line transform="translate(0,200)" x2="0" y2="-200" stroke="#888" stroke-width="1" opacity="1"/></g><g class="mark-text role-axis-title" pointer-events="none"><text text-anchor="middle" transform="translate(-51,100) rotate(-90) translate(0,-2)" font-family="Liberation Mono" font-size="11px" font-weight="bold" fill="#000" opacity="1">Price</text></g></g><path class="foreground" aria-hidden="true" d="" pointer-events="none" display="none"/></g></g><g class="mark-group role-scope pathgroup" role="graphics-object" aria-roledescription="group mark container"><g transform="translate(0,0)"><path class="background" aria-hidden="true" d="M0,0h200v200h-200Z"/><g><g class="mark-line role-mark marks" role="graphics-object" aria-roledescription="line mark container"><path aria-label="Time: Jan 01, 2024; Price: 2399; identifier: altex-LG-F2WR508SBW" role="graphics-symbol" aria-roledescription="line mark" d="M0,15.462L0.099,15.462L0.248,15.462L0.563,15.462L0.72,15.462L0.886,15.462L1.036,15.462L1.192,15.462L1.506,15.462L1.664,15.462L1.829,15.462L1.98,15.462L2.135,15.462L2.45,15.462L2.608,15.462L2.773,15.462L2.924,15.462L3.079,15.462L3.394,34.692L3.551,34.692L3.717,34.692L3.868,34.692L4.023,34.692L4.338,34.692L4.495,34.692L4.659,34.692L4.81,34.692L4.966,34.692L5.282,34.692L5.438,34.692L5.603,34.692L5.754,34.692L5.91,34.692L6.225,34.692L6.383,34.692L6.549,34.692L6.699,34.692L6.854,34.692L7.169,34.692L7.326,34.692L7.494,34.692L7.643,34.692L7.797,34.692L8.113,34.692L8.27,34.692L8.436,34.692L8.586,34.692L8.741,34.692L9.056,34.692L9.214,34.692L9.38,34.692L9.53,34.692L9.685,34.692L10,34.692L10.157,34.692L10.323,34.692L10.473,34.692L10.628,34.692L10.943,46.231L11.1,46.231L11.265,46.231L11.416,46.231L11.572,46.231L11.887,46.231L12.044,46.231L12.208,46.231L12.359,46.231L12.516,46.231L12.831,46.231L12.989,46.231L13.155,46.231L13.305,46.231L13.459,46.231L13.774,46.231L13.932,46.231L14.098,46.231L14.249,46.231L14.403,46.231L14.718,46.231L14.876,46.231L15.042,46.231L15.192,46.231L15.347,46.231L15.662,46.231L15.819,46.231L15.985,46.231L16.135,46.231L16.291,46.231L16.606,46.231L16.763,46.231L16.929,46.231L17.08,46.231L17.234,46.231L17.549,46.231L17.706,46.231L17.871,46.231L18.022,46.231L18.178,46.231L18.492,46.231L18.649,46.231L18.814,46.231L18.965,46.231L19.121,46.231L19.437,46.231L19.595,46.231L19.761,46.231L19.91,46.231L20.065,46.231L20.38,46.231L20.538,46.231L20.704,46.231L20.855,46.231L21.008,46.231L21.324,46.231L21.482,46.231L21.648,46.231L21.798,46.231L21.952,46.231L22.268,46.231L22.425,46.231L22.591,46.231L22.742,46.231L22.896,46.231L23.211,46.231L23.369,46.231L23.532,46.231L23.683,46.231L23.84,46.231L24.154,46.231L24.312,46.231L24.473,46.231L24.626,46.231L24.783,46.231L25.098,46.231L25.255,46.231L25.417,46.231L25.57,46.231L25.727,46.231L26.041,46.231L26.199,46.231L26.362,46.231L26.513,46.231L26.671,46.231L26.985,46.231L27.142,46.231L27.306,46.231L27.459,46.231L27.614,46.231L27.928,46.231L28.086,46.231L28.25,46.231L28.4,46.231L28.558,46.231L28.872,34.692L29.03,34.692L29.193,34.692L29.344,34.692L29.501,34.692L29.816,34.692L29.973,34.692L30.137,34.692L30.288,34.692L30.445,34.692L30.76,34.692L30.917,34.692L31.079,34.692L31.231,34.692L31.389,34.692L31.704,34.692L31.861,34.692L32.023,34.692L32.175,34.692L32.332,34.692L32.647,34.692L32.805,34.692L32.968,34.692L33.119,34.692L33.276,34.692L33.59,34.692L33.748,34.692L33.912,34.692L34.063,34.692L34.22,34.692L34.534,34.692L34.692,34.692L34.855,34.692L35.007,34.692L35.163,34.692L35.478,34.692L35.636,34.692L35.799,34.692L35.95,34.692L36.107,34.692L36.422,34.692L36.579,34.692L36.742,34.692L36.894,34.692L37.051,34.692L37.365,34.692L37.522,34.692L37.685,34.692L37.837,34.692L37.994,34.692L38.31,34.692L38.466,34.692L38.628,34.692L38.781,34.692L38.938,34.692L39.253,34.692L39.41,34.692L39.574,34.692L39.725,34.692L39.881,34.692L40.196,34.692L40.353,34.692L40.517,34.692L40.67,34.692L40.825,34.692L41.14,34.692L41.297,34.692L41.461,34.692L41.612,34.692L41.769,34.692L42.241,34.692L42.404,34.692L42.556,34.692L42.713,34.692L43.027,34.692L43.185,34.692L43.348,34.692L43.5,34.692L43.656,34.692L43.971,34.692L44.128,34.692L44.29,34.692L44.443,34.692L44.6,34.692L44.915,34.692L45.072,34.692L45.234,34.692L45.386,34.692L45.544,34.692L45.858,34.692L46.016,34.692L46.18,34.692L46.332,34.692L46.487,34.692L46.802,34.692L46.959,34.692L47.122,34.692L47.274,34.692L47.431,34.692L47.745,34.692L47.903,34.692L48.067,34.692L48.218,34.692L48.375,34.692L48.689,34.692L48.846,34.692L49.01,34.692L49.162,34.692L49.318,34.692L49.633,34.692L49.79,34.692L49.953,34.692L50.104,34.692L50.263,34.692L50.576,34.692L50.734,34.692L50.896,34.692L51.048,34.692L51.205,34.692L51.52,34.692L51.678,34.692L51.839,34.692L51.993,34.692L52.149,34.692L52.464,34.692L52.621,34.692L52.785,34.692L52.936,34.692L53.093,34.692L53.407,34.692L53.565,34.692L53.728,34.692L53.88,34.692L54.036,34.692L54.351,34.692L54.508,34.692L54.672,34.692L54.824,34.692L54.98,34.692L55.295,34.692L55.452,34.692L55.615,34.692L55.766,34.692L55.924,34.692L56.238,34.692L56.396,34.692L56.559,34.692L56.71,34.692L56.867,34.692L57.182,34.692L57.339,34.692L57.502,34.692L57.654,34.692L57.811,34.692L58.126,34.692L58.283,34.692L58.445,34.692L58.597,34.692L58.755,34.692L59.084,34.692L59.299,34.692L59.392,34.692L59.542,34.692L59.698,34.692L60.013,34.692L60.17,34.692L60.334,34.692L60.485,34.692L60.642,34.692L60.956,34.692L61.115,34.692L61.278,34.692L61.43,34.692L61.586,34.692L61.9,34.692L62.058,34.692L62.221,34.692L62.372,34.692L62.529,34.692L62.844,34.692L63.003,34.692L63.165,34.692L63.315,34.692L63.473,34.692L63.788,34.692L63.945,34.692L64.106,34.692L64.26,34.692L64.416,34.692L64.731,34.692L64.889,34.692L65.05,34.692L65.203,34.692L65.36,34.692L65.676,34.692L65.832,34.692L65.996,34.692L66.148,34.692L66.304,34.692L66.619,34.692L66.776,34.692L66.94,34.692L67.092,34.692L67.247,34.692L67.562,34.692L67.72,34.692L67.884,34.692L68.034,34.692L68.191,34.692L68.506,34.692L68.663,34.692L68.827,34.692L68.978,34.692L69.135,34.692L69.449,34.692L69.608,34.692L69.77,34.692L69.922,34.692L70.078,34.692L70.393,34.692L70.551,34.692L70.713,34.692L70.865,34.692L71.023,34.692L71.337,34.692L71.495,34.692L71.657,34.692L71.808,34.692L71.966,34.692L72.28,34.692L72.438,34.692L72.603,34.692L72.754,34.692L72.91,34.692L73.225,34.692L73.381,34.692L73.545,34.692L73.698,34.692L73.853,34.692L74.168,34.692L74.325,34.692L74.489,34.692L74.641,34.692L74.797,34.692L75.111,34.692L75.269,34.692L75.433,34.692L75.585,34.692L75.741,34.692L76.055,34.692L76.212,34.692L76.376,34.692L76.527,34.692L76.684,34.692L76.999,34.692L77.156,34.692L77.319,34.692L77.47,34.692L77.628,34.692L77.942,34.692L78.1,34.692L78.264,34.692L78.414,34.692L78.571,34.692L78.886,34.692L79.043,34.692L79.207,34.692L79.358,34.692L79.515,34.692L79.83,34.692L79.988,34.692L80.151,34.692L80.303,34.692L80.459,34.692L80.775,34.692L80.931,34.692L81.095,34.692L81.247,34.692L81.402,34.692L81.717,34.692L81.874,34.692L82.039,34.692L82.19,34.692L82.346,34.692L82.661,34.692L82.818,34.692L82.982,34.692L83.133,34.692L83.29,34.692L83.604,34.692L83.761,34.692L83.924,34.692L84.077,34.692L84.234,34.692L84.548,34.692L84.706,34.692L84.868,34.692L85.021,34.692L85.177,34.692L85.491,34.692L85.65,34.692L85.814,34.692L85.966,34.692L86.121,34.692L86.436,34.692L86.593,34.692L86.757,34.692L86.909,34.692L87.064,34.692L87.379,34.692L87.536,34.692L87.7,34.692L87.852,34.692L88.008,34.692L88.323,34.692L88.48,34.692L88.644,34.692L88.795,34.692L88.952,34.692L89.268,34.692L89.587,34.692L89.739,34.692L89.896,34.692L90.21,34.692L90.368,34.692L90.53,34.692L90.682,34.692L90.839,34.692L91.153,34.692L91.311,34.692L91.474,34.692L91.625,34.692L91.783,34.692L92.097,34.692L92.254,34.692L92.419,34.692L92.57,34.692L92.726,34.692L93.041,34.692L93.198,34.692L93.362,34.692L93.514,34.692L93.67,34.692L93.984,34.692L94.143,34.692L94.306,34.692L94.459,34.692L94.615,34.692L94.929,34.692L95.087,34.692L95.25,34.692L95.558,34.692L95.872,34.692L96.03,34.692L96.193,34.692L96.344,34.692L96.501,34.692L96.815,34.692L96.972,34.692L97.133,34.692L97.287,34.692L97.444,34.692L97.773,34.692L98.015,34.692L98.163,34.692L98.468,34.692L98.705,34.692L98.86,34.692L99.022,34.692L99.174,34.692L99.332,34.692L99.647,34.692L99.804,34.692L99.968,34.692L100.118,34.692L100.275,34.692L100.59,34.692L100.747,34.692L100.912,34.692L101.064,34.692L101.219,34.692L101.691,34.692L101.855,34.692L102.006,34.692L102.163,34.692L102.477,34.692L102.635,34.692L102.799,34.692L102.951,34.692L103.106,34.692L103.421,34.692L103.578,34.692L103.741,34.692L103.893,34.692L104.05,34.692L104.365,34.692L104.522,34.692L104.685,34.692L104.837,34.692L104.994,34.692L105.308,34.692L105.466,34.692L105.631,34.692L105.781,34.692L105.937,34.692L106.252,34.692L106.409,34.692L106.574,34.692L106.725,34.692L106.882,34.692L107.195,34.692L107.354,34.692L107.522,34.692L107.668,34.692L107.825,34.692L108.139,34.692L108.297,34.692L108.457,34.692L108.612,34.692L108.769,34.692L109.083,34.692L109.241,34.692L109.405,34.692L109.556,34.692L109.713,34.692L110.027,34.692L110.184,34.692L110.347,34.692L110.498,34.692L110.655,34.692L110.97,34.692L111.128,34.692L111.292,34.692L111.442,34.692L111.599,34.692L111.914,34.692L112.073,34.692L112.237,34.692L112.387,34.692L112.543,34.692L112.858,34.692L113.016,34.692L113.18,34.692L113.331,34.692L113.487,34.692L113.801,34.692L113.962,34.692L114.124,34.692L114.274,34.692L114.43,34.692L114.746,57.769L114.902,57.769L115.068,57.769L115.218,57.769L115.375,57.769L115.689,57.769L115.846,57.769L116.01,57.769L116.161,57.769L116.318,57.769L116.632,57.769L116.789,57.769L116.953,57.769L117.104,57.769L117.261,57.769L117.576,57.769L117.734,57.769L117.897,57.769L118.048,57.769L118.205,57.769L118.52,57.769L118.678,57.769L118.843,57.769L118.994,57.769L119.148,57.769L119.463,57.769L119.621,57.769L119.785,57.769L119.936,57.769L120.093,57.769L120.407,57.769L120.565,57.769L120.731,57.769L120.881,57.769L121.036,57.769L121.352,34.692L121.51,34.692L121.673,34.692L121.826,34.692L121.98,34.692L122.294,34.692L122.451,34.692L122.618,34.692L122.767,34.692L122.923,34.692L123.238,34.692L123.395,34.692L123.559,34.692L123.71,34.692L123.867,34.692L124.182,34.692L124.339,34.692L124.503,34.692L124.654,34.692L124.811,34.692L125.126,34.692L125.283,34.692L125.449,34.692L125.599,34.692L125.755,34.692L126.068,34.692L126.227,34.692L126.392,34.692L126.543,34.692L126.698,34.692L127.013,34.692L127.171,34.692L127.336,34.692L127.486,34.692L127.642,34.692L127.956,34.692L128.114,34.692L128.28,34.692L128.429,34.692L128.585,34.692L128.9,34.692L129.057,34.692L129.223,34.692L129.373,34.692L129.528,34.692L129.843,34.692L130.001,34.692L130.166,34.692L130.315,34.692L130.472,34.692L130.788,34.692L130.945,34.692L131.109,34.692L131.26,34.692L131.416,34.692L131.732,34.692L131.889,34.692L132.055,34.692L132.204,34.692L132.36,34.692L132.674,34.692L132.832,34.692L132.998,34.692L133.147,34.692L133.304,34.692L133.619,34.692L133.777,34.692L133.942,34.692L134.092,34.692L134.247,34.692L134.562,34.692L134.719,34.692L134.885,34.692L135.036,34.692L135.191,34.692L135.507,34.692L135.663,34.692L135.829,34.692L135.978,34.692L136.135,34.692L136.45,34.692L136.607,34.692L136.771,34.692L136.922,34.692L137.078,34.692L137.393,34.692L137.55,34.692L137.714,34.692L137.865,34.692L138.023,34.692L138.337,34.692L138.495,34.692L138.66,34.692L138.81,34.692L138.965,34.692L139.283,34.692L139.439,34.692L139.604,34.692L139.753,34.692L139.909,34.692L140.225,34.692L140.382,34.692L140.547,34.692L140.697,34.692L140.853,34.692L141.169,34.692L141.325,34.692L141.491,34.692L141.641,34.692L141.796,34.692L142.112,34.692L142.269,34.692L142.435,34.692L142.584,34.692L142.74,34.692L143.055,34.692L143.212,34.692L143.377,34.692L143.527,34.692L143.683,34.692L143.999,34.692L144.156,34.692L144.32,34.692L144.471,34.692L144.627,34.692L144.943,34.692L145.1,34.692L145.267,34.692L145.416,34.692L145.572,34.692L145.886,34.692L146.044,34.692L146.21,34.692L146.36,34.692L146.515,34.692L146.831,34.692L146.988,34.692L147.154,34.692L147.303,34.692L147.458,34.692L147.773,34.692L147.931,34.692L148.097,34.692L148.246,34.692L148.402,34.692L148.718,34.692L148.875,34.692L149.041,34.692L149.192,34.692L149.346,34.692L149.661,34.692L149.817,34.692L149.983,34.692L150.134,34.692L150.289,34.692L150.604,34.692L150.761,34.692L150.927,34.692L151.077,34.692L151.233,34.692L151.549,34.692L151.706,34.692L151.873,34.692L152.022,34.692L152.176,34.692L152.493,34.692L152.65,34.692L152.816,34.692L152.965,34.692L153.121,34.692L153.436,34.692L153.593,46.231L153.76,46.231L153.909,46.231L154.064,46.231L154.379,46.231L154.537,46.231L154.703,46.231L154.854,46.231L155.008,46.231L155.323,46.231L155.48,46.231L155.647,48.538L155.795,48.538L155.952,48.538L156.267,48.538L156.425,48.538L156.589,48.538L156.739,48.538L156.895,48.538L157.21,48.538L157.368,48.538L157.533,48.538L157.683,48.538L157.839,48.538L158.155,48.538L158.312,48.538L158.478,48.538L158.627,48.538L158.782,48.538L159.097,48.538L159.256,48.538L159.421,48.538L159.571,48.538L159.726,48.538L160.041,48.538L160.199,48.538L160.366,48.538L160.515,48.538L160.67,48.538L160.984,48.538L161.142,48.538L161.308,48.538L161.46,48.538L161.613,48.538L161.929,48.538L162.086,48.538L162.252,48.538L162.401,48.538L162.557,48.538L162.871,48.538L163.029,48.538L163.196,48.538L163.345,48.538L163.5,48.538L163.815,48.538L163.972,48.538L164.138,48.538L164.287,48.538L164.444,48.538L164.76,48.538L164.917,48.538L165.084,48.538L165.232,48.538L165.388,48.538L165.703,48.538L165.861,48.538L166.027,48.538L166.332,48.538L166.648,48.538L166.805,48.538L166.971,48.538L167.12,48.538L167.275,48.538L167.592,48.538L167.749,48.538L167.914,48.538L168.064,48.538L168.219,48.538L168.534,48.538L168.692,48.538L168.858,48.538L169.007,48.538L169.163,48.538L169.478,48.538L169.635,48.538L169.8,48.538L169.95,48.538L170.106,48.538L170.421,48.538L170.578,48.538L170.744,48.538L170.894,48.538L171.05,48.538L171.365,48.538L171.523,48.538L171.69,48.538L171.839,48.538L171.993,48.538L172.309,48.538L172.467,48.538L172.632,48.538L172.782,48.538L172.937,48.538L173.252,48.538L173.41,48.538L173.576,48.538L173.727,48.538L173.88,48.538L174.197,48.538L174.354,48.538L174.52,48.538L174.669,48.538L174.825,48.538L175.141,48.538L175.297,48.538L175.463,48.538L175.612,48.538L175.768,48.538L176.084,48.538L176.24,48.538L176.405,48.538L176.556,48.538L176.712,48.538L177.026,48.538L177.184,48.538L177.349,48.538L177.499,48.538L177.656,48.538L177.971,48.538L178.129,48.538L178.294,48.538L178.444,48.538L178.599,48.538L178.914,48.538L179.073,48.538L179.239,48.538L179.388,48.538L179.543,48.538L179.858,48.538L180.017,48.538L180.182,48.538L180.331,48.538L180.486,48.538L180.802,48.538L180.959,48.538L181.126,48.538L181.274,48.538L181.43,48.538L181.745,48.538L181.903,48.538L182.07,48.538L182.218,48.538L182.374,48.538L182.688,48.538L182.845,48.538L183.011,48.538L183.161,48.538L183.317,48.538L183.634,48.538L183.791,48.538L183.966,48.538L184.113,48.538L184.261,48.538L184.577,48.538L184.734,48.538L184.901,48.538L185.051,48.538L185.204,48.538L185.52,48.538L185.678,48.538L185.842,48.538L185.994,48.538L186.148,48.538L186.463,48.538L186.622,48.538L186.788,48.538L186.938,48.538L187.092,48.538L187.408,48.538L187.565,48.538L187.732,48.538L187.88,48.538L188.035,48.538L188.352,48.538L188.509,48.538L188.675,48.538L188.825,48.538L188.98,48.538L189.295,48.538L189.451,48.538L189.617,48.538L189.767,48.538L189.923,48.538L190.238,48.538L190.395,48.538L190.561,48.538L190.712,48.538L190.866,48.538L191.182,48.538L191.341,48.538L191.507,48.538L191.656,48.538L191.81,48.538L192.125,48.538L192.284,48.538L192.45,48.538L192.599,48.538L192.754,48.538L193.069,27L193.227,27L193.394,27L193.543,27L193.698,27L194.014,27L194.171,27L194.337,27L194.487,27L194.642,27L194.958,27L195.114,27L195.28,27L195.431,27L195.585,27L195.9,27L196.057,27L196.224,27L196.372,27L196.529,27L196.843,27L197,27L197.166,27L197.317,27L197.472,27L197.788,27L197.946,27L198.112,27L198.261,27L198.416,27L198.731,27L198.889,27L199.056,27L199.205,27L199.359,27L199.674,27L199.831,27L199.999,27" stroke="#4c78a8" stroke-width="2"/></g></g><path class="foreground" aria-hidden="true" d="" display="none"/></g><g transform="translate(0,0)"><path class="background" aria-hidden="true" d="M0,0h200v200h-200Z"/><g><g class="mark-line role-mark marks" role="graphics-object" aria-roledescription="line mark container"><path aria-label="Time: Jan 01, 2024; Price: 2499; identifier: altex-LG-F2WR508SBM" role="graphics-symbol" aria-roledescription="line mark" d="M0,7.769L0.099,7.769L0.248,7.769L0.563,7.769L0.72,7.769L0.886,7.769L1.036,7.769L1.192,7.769L1.507,7.769L1.664,7.769L1.829,7.769L1.98,7.769L2.135,7.769L2.45,7.769L2.608,7.769L2.773,7.769L2.924,7.769L3.079,7.769L3.394,27L3.551,27L3.717,27L3.868,27L4.023,27L4.338,27L4.495,27L4.66,27L4.811,27L4.966,27L5.282,27L5.438,27L5.603,27L5.754,27L5.91,27L6.226,27L6.383,27L6.549,27L6.699,27L6.854,27L7.169,27L7.327,27L7.494,27L7.643,27L7.797,27L8.113,27L8.27,27L8.436,27L8.586,27L8.741,27L9.056,27L9.214,27L9.38,27L9.53,27L9.685,27L10,27L10.157,27L10.323,27L10.473,27L10.628,27L10.943,38.538L11.1,38.538L11.265,38.538L11.416,38.538L11.572,38.538L11.887,38.538L12.044,38.538L12.208,38.538L12.359,38.538L12.516,38.538L12.831,38.538L12.989,38.538L13.155,38.538L13.305,38.538L13.459,38.538L13.774,38.538L13.933,38.538L14.098,38.538L14.249,38.538L14.403,38.538L14.718,38.538L14.876,38.538L15.042,38.538L15.192,38.538L15.347,38.538L15.662,38.538L15.819,38.538L15.985,38.538L16.135,38.538L16.291,38.538L16.606,38.538L16.763,38.538L16.929,38.538L17.08,38.538L17.234,38.538L17.549,38.538L17.706,38.538L17.871,38.538L18.022,38.538L18.178,38.538L18.492,38.538L18.649,38.538L18.814,38.538L18.965,38.538L19.121,38.538L19.437,38.538L19.595,38.538L19.761,38.538L19.91,38.538L20.065,38.538L20.38,38.538L20.538,38.538L20.704,38.538L20.855,38.538L21.009,38.538L21.324,38.538L21.482,38.538L21.648,38.538L21.798,38.538L21.952,38.538L22.268,38.538L22.425,38.538L22.591,38.538L22.742,38.538L22.896,38.538L23.211,38.538L23.369,38.538L23.532,38.538L23.683,38.538L23.84,38.538L24.154,38.538L24.312,38.538L24.473,38.538L24.626,38.538L24.783,38.538L25.098,38.538L25.255,38.538L25.417,38.538L25.57,38.538L25.727,38.538L26.041,38.538L26.199,38.538L26.362,38.538L26.514,38.538L26.671,38.538L26.985,38.538L27.142,38.538L27.306,38.538L27.459,38.538L27.614,38.538L27.929,38.538L28.086,38.538L28.25,38.538L28.401,38.538L28.558,38.538L28.872,27L29.03,27L29.193,27L29.344,27L29.501,27L29.816,27L29.973,27L30.137,27L30.288,27L30.445,27L30.76,27L30.917,27L31.079,27L31.231,27L31.389,27L31.704,27L31.861,27L32.023,27L32.175,27L32.332,27L32.647,27L32.805,27L32.968,27L33.119,27L33.276,27L33.591,27L33.748,27L33.912,27L34.063,27L34.22,27L34.534,27L34.692,27L34.855,27L35.007,27L35.163,27L35.478,27L35.636,27L35.799,27L35.95,27L36.107,27L36.422,27L36.579,27L36.742,27L36.894,27L37.051,27L37.365,27L37.522,27L37.685,27L37.837,27L37.994,27L38.31,27L38.466,27L38.628,27L38.781,27L38.938,27L39.253,27L39.41,27L39.574,27L39.725,27L39.882,27L40.196,27L40.353,27L40.517,27L40.67,27L40.825,27L41.14,27L41.297,27L41.461,27L41.612,27L41.769,27L42.241,27L42.404,27L42.556,27L42.713,27L43.027,27L43.185,27L43.348,27L43.5,27L43.656,27L43.971,27L44.128,27L44.29,27L44.443,27L44.6,27L44.915,27L45.072,27L45.234,27L45.386,27L45.544,27L45.858,27L46.016,27L46.18,27L46.332,27L46.487,27L46.802,27L46.959,27L47.122,27L47.274,27L47.431,27L47.745,27L47.903,27L48.067,27L48.218,27L48.375,27L48.689,27L48.846,27L49.01,27L49.162,27L49.318,27L49.633,27L49.79,27L49.953,27L50.105,27L50.263,27L50.576,27L50.734,27L50.896,27L51.048,27L51.205,27L51.52,27L51.678,27L51.839,27L51.993,27L52.149,27L52.464,27L52.621,27L52.785,27L52.936,27L53.093,27L53.407,27L53.565,27L53.728,27L53.88,27L54.036,27L54.351,27L54.508,27L54.672,27L54.824,27L54.98,27L55.295,27L55.452,27L55.615,27L55.766,27L55.924,27L56.238,27L56.396,27L56.559,27L56.71,27L56.867,27L57.182,27L57.339,27L57.502,27L57.654,27L57.811,27L58.126,27L58.283,27L58.445,27L58.597,27L58.755,27L59.084,27L59.299,27L59.392,27L59.542,27L59.698,27L60.013,27L60.17,27L60.335,27L60.485,27L60.642,27L60.956,27L61.115,27L61.278,27L61.43,27L61.586,27L61.9,27L62.058,27L62.221,38.538L62.372,38.538L62.53,38.538L62.844,38.538L63.003,38.538L63.165,38.538L63.315,38.538L63.473,38.538L63.788,38.538L63.945,38.538L64.107,38.538L64.26,38.538L64.416,38.538L64.731,38.538L64.889,38.538L65.05,38.538L65.203,38.538L65.36,38.538L65.676,38.538L65.832,38.538L65.996,38.538L66.148,38.538L66.304,38.538L66.619,38.538L66.776,38.538L66.94,38.538L67.092,38.538L67.247,38.538L67.562,38.538L67.721,38.538L67.884,38.538L68.034,38.538L68.191,38.538L68.506,38.538L68.663,38.538L68.827,38.538L68.978,38.538L69.135,38.538L69.449,38.538L69.608,38.538L69.77,38.538L69.922,38.538L70.078,38.538L70.393,38.538L70.551,38.538L70.713,38.538L70.865,38.538L71.023,38.538L71.337,38.538L71.495,38.538L71.657,38.538L71.808,38.538L71.966,38.538L72.28,38.538L72.438,38.538L72.603,38.538L72.754,38.538L72.91,38.538L73.225,38.538L73.381,38.538L73.545,38.538L73.698,38.538L73.853,38.538L74.168,38.538L74.325,38.538L74.489,38.538L74.641,38.538L74.798,38.538L75.111,38.538L75.269,38.538L75.433,38.538L75.586,38.538L75.741,38.538L76.055,38.538L76.212,38.538L76.376,38.538L76.527,38.538L76.684,38.538L76.999,38.538L77.156,38.538L77.319,38.538L77.47,38.538L77.628,38.538L77.942,38.538L78.1,38.538L78.264,38.538L78.414,38.538L78.571,38.538L78.886,38.538L79.043,38.538L79.207,38.538L79.358,38.538L79.515,38.538L79.83,38.538L79.988,38.538L80.151,38.538L80.303,38.538L80.459,38.538L80.775,38.538L80.931,38.538L81.095,38.538L81.247,38.538L81.403,38.538L81.717,38.538L81.874,38.538L82.039,38.538L82.19,38.538L82.346,38.538L82.661,38.538L82.818,38.538L82.982,38.538L83.133,38.538L83.29,38.538L83.604,38.538L83.761,38.538L83.924,38.538L84.077,38.538L84.234,38.538L84.548,38.538L84.706,38.538L84.868,38.538L85.021,38.538L85.177,38.538L85.491,38.538L85.65,38.538L85.814,38.538L85.966,38.538L86.121,38.538L86.436,38.538L86.593,38.538L86.757,38.538L86.909,38.538L87.064,38.538L87.379,38.538L87.536,38.538L87.7,38.538L87.852,38.538L88.008,38.538L88.323,38.538L88.48,38.538L88.644,38.538L88.795,38.538L88.952,38.538L89.268,38.538L89.587,38.538L89.739,38.538L89.896,38.538L90.21,38.538L90.368,38.538L90.53,38.538L90.682,38.538L90.839,38.538L91.153,38.538L91.311,38.538L91.474,38.538L91.625,38.538L91.783,38.538L92.098,38.538L92.254,38.538L92.419,38.538L92.57,38.538L92.726,38.538L93.041,38.538L93.198,38.538L93.362,38.538L93.514,38.538L93.67,38.538L93.984,38.538L94.143,38.538L94.306,38.538L94.459,38.538L94.615,38.538L94.929,38.538L95.087,38.538L95.25,38.538L95.558,38.538L95.872,38.538L96.03,38.538L96.193,38.538L96.344,38.538L96.501,38.538L96.815,38.538L96.972,38.538L97.133,38.538L97.287,38.538L97.444,38.538L97.773,38.538L98.015,38.538L98.163,38.538L98.468,38.538L98.705,38.538L98.86,38.538L99.022,38.538L99.175,38.538L99.332,38.538L99.647,38.538L99.804,38.538L99.968,38.538L100.118,38.538L100.275,38.538L100.59,38.538L100.747,38.538L100.912,38.538L101.064,38.538L101.22,38.538L101.691,38.538L101.855,38.538L102.006,38.538L102.163,38.538L102.477,38.538L102.635,38.538L102.799,38.538L102.951,38.538L103.106,38.538L103.421,38.538L103.578,38.538L103.741,38.538L103.893,38.538L104.05,38.538L104.365,38.538L104.522,38.538L104.685,38.538L104.837,38.538L104.994,38.538L105.308,38.538L105.466,38.538L105.631,38.538L105.781,38.538L105.937,38.538L106.252,38.538L106.409,38.538L106.574,38.538L106.725,38.538L106.882,38.538L107.195,38.538L107.354,38.538L107.522,38.538L107.668,38.538L107.825,38.538L108.139,38.538L108.297,38.538L108.457,38.538L108.612,38.538L108.769,38.538L109.083,38.538L109.241,38.538L109.405,38.538L109.556,38.538L109.713,38.538L110.027,38.538L110.184,38.538L110.347,38.538L110.498,38.538L110.656,38.538L110.97,38.538L111.128,38.538L111.292,38.538L111.442,38.538L111.599,38.538L111.914,38.538L112.073,38.538L112.237,38.538L112.387,38.538L112.543,38.538L112.858,38.538L113.016,38.538L113.18,38.538L113.331,38.538L113.487,38.538L113.801,38.538L113.962,38.538L114.124,38.538L114.274,38.538L114.43,38.538L114.746,38.538L114.902,38.538L115.068,38.538L115.218,38.538L115.375,38.538L115.689,38.538L115.846,38.538L116.011,38.538L116.162,38.538L116.318,38.538L116.632,38.538L116.79,38.538L116.953,38.538L117.104,38.538L117.261,38.538L117.576,38.538L117.734,38.538L117.897,38.538L118.048,38.538L118.205,38.538L118.52,38.538L118.678,38.538L118.843,38.538L118.994,38.538L119.148,38.538L119.463,38.538L119.621,38.538L119.785,30.846L119.936,30.846L120.093,30.846L120.407,30.846L120.565,30.846L120.731,30.846L120.881,30.846L121.036,30.846L121.352,30.846L121.51,30.846L121.673,30.846L121.826,30.846L121.98,30.846L122.294,30.846L122.452,30.846L122.618,30.846L122.767,30.846L122.923,30.846L123.238,30.846L123.395,30.846L123.559,30.846L123.71,30.846L123.867,30.846L124.182,30.846L124.339,30.846L124.503,30.846L124.654,30.846L124.811,30.846L125.126,30.846L125.283,30.846L125.449,30.846L125.599,30.846L125.755,30.846L126.069,30.846L126.227,30.846L126.393,30.846L126.543,30.846L126.698,30.846L127.013,30.846L127.171,30.846L127.336,30.846L127.486,30.846L127.642,30.846L127.956,30.846L128.114,30.846L128.28,30.846L128.429,30.846L128.585,30.846L128.9,30.846L129.057,30.846L129.223,30.846L129.373,30.846L129.529,30.846L129.843,30.846L130.001,30.846L130.166,30.846L130.315,30.846L130.472,30.846L130.788,30.846L130.945,30.846L131.109,30.846L131.26,30.846L131.416,30.846L131.732,30.846L131.889,30.846L132.055,30.846L132.204,30.846L132.36,30.846L132.674,30.846L132.832,30.846L132.998,30.846L133.147,30.846L133.304,30.846L133.619,30.846L133.777,30.846L133.942,38.538L134.092,38.538L134.247,38.538L134.562,38.538L134.719,38.538L134.885,38.538L135.036,38.538L135.191,38.538L135.507,38.538L135.663,38.538L135.829,38.538L135.978,38.538L136.135,38.538L136.45,38.538L136.607,38.538L136.771,38.538L136.922,38.538L137.078,38.538L137.393,38.538L137.55,38.538L137.714,38.538L137.865,38.538L138.023,38.538L138.337,38.538L138.495,38.538L138.66,38.538L138.81,38.538L138.965,38.538L139.283,38.538L139.439,38.538L139.604,38.538L139.753,38.538L139.909,38.538L140.225,38.538L140.382,38.538L140.547,38.538L140.697,38.538L140.853,38.538L141.169,38.538L141.326,38.538L141.491,38.538L141.641,38.538L141.796,38.538L142.112,30.846L142.269,30.846L142.435,30.846L142.584,30.846L142.74,30.846L143.055,30.846L143.212,30.846L143.377,30.846L143.527,30.846L143.683,30.846L143.999,30.846L144.156,30.846L144.32,30.846L144.471,30.846L144.627,30.846L144.943,30.846L145.101,30.846L145.267,30.846L145.416,30.846L145.572,30.846L145.886,30.846L146.044,30.846L146.21,30.846L146.36,30.846L146.515,30.846L146.831,30.846L146.988,30.846L147.154,30.846L147.303,30.846L147.458,30.846L147.773,30.846L147.931,30.846L148.097,30.846L148.246,30.846L148.402,30.846L148.718,30.846L148.875,30.846L149.041,30.846L149.192,30.846L149.346,30.846L149.661,30.846L149.817,30.846L149.983,30.846L150.134,30.846L150.289,30.846L150.604,30.846L150.761,30.846L150.927,30.846L151.077,30.846L151.233,30.846L151.549,30.846L151.707,30.846L151.873,30.846L152.022,30.846L152.176,30.846L152.493,30.846L152.65,30.846L152.816,30.846L152.965,30.846L153.121,30.846L153.436,30.846L153.593,34.692L153.76,34.692L153.909,34.692L154.064,34.692L154.379,34.692L154.537,34.692L154.703,34.692L154.854,34.692L155.008,34.692L155.323,34.692L155.48,34.692L155.647,40.077L155.796,40.077L155.952,40.077L156.267,40.077L156.425,40.077L156.589,40.077L156.739,40.077L156.895,40.077L157.21,40.077L157.368,40.077L157.533,40.077L157.683,40.077L157.839,40.077L158.155,40.077L158.312,40.077L158.478,40.077L158.627,40.077L158.782,40.077L159.097,40.077L159.256,40.077L159.421,40.077L159.571,40.077L159.726,40.077L160.041,40.077L160.199,40.077L160.366,40.077L160.515,40.077L160.67,40.077L160.984,40.077L161.142,40.077L161.308,40.077L161.46,40.077L161.613,40.077L161.929,40.077L162.086,40.077L162.252,40.077L162.401,40.077L162.557,40.077L162.871,40.077L163.029,40.077L163.196,40.077L163.345,40.077L163.5,40.077L163.815,40.077L163.972,40.077L164.138,40.077L164.287,40.077L164.444,40.077L164.76,40.077L164.917,40.077L165.084,40.077L165.232,40.077L165.388,40.077L165.703,40.077L165.861,40.077L166.027,40.077L166.332,40.077L166.648,40.077L166.805,40.077L166.971,40.077L167.12,40.077L167.275,40.077L167.592,40.077L167.749,40.077L167.914,40.077L168.064,40.077L168.219,40.077L168.534,40.077L168.692,40.077L168.858,40.077L169.007,40.077L169.163,40.077L169.478,40.077L169.635,40.077L169.8,40.077L169.95,40.077L170.106,40.077L170.421,40.077L170.578,40.077L170.744,40.077L170.894,40.077L171.05,40.077L171.365,40.077L171.523,40.077L171.69,40.077L171.839,40.077L171.993,40.077L172.309,40.077L172.467,40.077L172.632,40.077L172.782,40.077L172.937,40.077L173.252,40.077L173.41,40.077L173.576,40.077L173.727,40.077L173.88,40.077L174.197,40.077L174.354,40.077L174.52,40.077L174.669,40.077L174.825,40.077L175.141,40.077L175.297,40.077L175.463,40.077L175.613,40.077L175.768,40.077L176.084,40.077L176.24,40.077L176.405,40.077L176.556,40.077L176.712,40.077L177.026,40.077L177.184,40.077L177.349,40.077L177.499,40.077L177.656,40.077L177.971,40.077L178.129,40.077L178.294,40.077L178.444,40.077L178.599,40.077L178.914,40.077L179.073,40.077L179.239,40.077L179.388,40.077L179.543,40.077L179.858,40.077L180.017,40.077L180.182,40.077L180.331,40.077L180.486,40.077L180.802,40.077L180.959,40.077L181.126,40.077L181.274,40.077L181.43,40.077L181.745,40.077L181.903,40.077L182.07,40.077L182.218,40.077L182.374,40.077L182.688,40.077L182.845,40.077L183.011,40.077L183.161,40.077L183.317,40.077L183.634,40.077L183.791,40.077L183.966,40.077L184.113,40.077L184.261,40.077L184.577,40.077L184.734,40.077L184.901,40.077L185.051,40.077L185.204,40.077L185.521,40.077L185.678,40.077L185.842,40.077L185.994,40.077L186.148,40.077L186.463,40.077L186.622,40.077L186.788,40.077L186.938,40.077L187.092,40.077L187.408,40.077L187.565,40.077L187.732,40.077L187.88,40.077L188.035,40.077L188.352,40.077L188.509,40.077L188.675,40.077L188.825,40.077L188.98,40.077L189.295,40.077L189.451,40.077L189.617,40.077L189.767,40.077L189.923,40.077L190.238,40.077L190.395,40.077L190.561,40.077L190.712,40.077L190.866,40.077L191.182,40.077L191.341,40.077L191.507,40.077L191.656,40.077L191.81,40.077L192.125,40.077L192.284,40.077L192.45,40.077L192.599,40.077L192.754,40.077L193.069,40.077L193.227,40.077L193.394,40.077L193.543,40.077L193.698,40.077L194.014,40.077L194.171,40.077L194.337,40.077L194.487,40.077L194.642,40.077L194.958,40.077L195.114,40.077L195.28,40.077L195.431,40.077L195.585,40.077L195.9,40.077L196.057,40.077L196.224,40.077L196.372,40.077L196.529,40.077L196.843,40.077L197,40.077L197.166,40.077L197.317,40.077L197.472,40.077L197.788,40.077L197.946,40.077L198.112,40.077L198.261,40.077L198.416,40.077L198.731,40.077L198.889,40.077L199.056,40.077L199.205,40.077L199.359,40.077L199.674,40.077L199.831,40.077L200,40.077" stroke="#f58518" stroke-width="2"/></g></g><path class="foreground" aria-hidden="true" d="" display="none"/></g></g><g class="mark-group role-legend" role="graphics-symbol" aria-roledescription="legend" aria-label="Symbol legend titled 'identifier' for stroke color with 2 values: altex-LG-F2WR508SBW, altex-LG-F2WR508SBM"><g transform="translate(220,0)"><path class="background" aria-hidden="true" d="M0,0h168v40h-168Z" pointer-events="none"/><g><g class="mark-group role-legend-entry"><g transform="translate(0,16)"><path class="background" aria-hidden="true" d="M0,0h0v0h0Z" pointer-events="none"/><g><g class="mark-group role-scope" role="graphics-object" aria-roledescription="group mark container"><g transform="translate(0,0)"><path class="background" aria-hidden="true" d="M0,0h168v11h-168Z" pointer-events="none" opacity="1"/><g><g class="mark-symbol role-legend-symbol" pointer-events="none"><path transform="translate(6,6)" d="M-5,0L5,0" stroke="#4c78a8" stroke-width="1.5" opacity="1"/></g><g class="mark-text role-legend-label" pointer-events="none"><text text-anchor="start" transform="translate(16,9)" font-family="Liberation Mono" font-size="10px" fill="#000" opacity="1">altex-LG-F2WR508SBW</text></g></g><path class="foreground" aria-hidden="true" d="" pointer-events="none" display="none"/></g><g transform="translate(0,13)"><path class="background" aria-hidden="true" d="M0,0h168v11h-168Z" pointer-events="none" opacity="1"/><g><g class="mark-symbol role-legend-symbol" pointer-events="none"><path transform="translate(6,6)" d="M-5,0L5,0" stroke="#f58518" stroke-width="1.5" opacity="1"/></g><g class="mark-text role-legend-label" pointer-events="none"><text text-anchor="start" transform="translate(16,9)" font-family="Liberation Mono" font-size="10px" fill="#000" opacity="1">altex-LG-F2WR508SBM</text></g></g><path class="foreground" aria-hidden="true" d="" pointer-events="none" display="none"/></g></g></g><path class="foreground" aria-hidden="true" d="" pointer-events="none" display="none"/></g></g><g class="mark-text role-legend-title" pointer-events="none"><text text-anchor="start" transform="translate(0,9)" font-family="Liberation Mono" font-size="11px" font-weight="bold" fill="#000" opacity="1">identifier</text></g></g><path class="foreground" aria-hidden="true" d="" pointer-events="none" display="none"/></g></g></g><path class="foreground" aria-hidden="true" d="" display="none"/></g></g></g></svg>