<svg xmlns="http://www.w3.org/2000/svg" xmlns:xlink="http://www.w3.org/1999/xlink" version="1.1" class="marks" width="460" height="242" viewBox="0 0 460 242"><rect width="460" height="242" fill="white"/><g fill="none" stroke-miterlimit="10" transform="translate(67,5)"><g class="mark-group role-frame root" role="graphics-object" aria-roledescription="group mark container"><g transform="translate(0,0)"><path class="background" aria-hidden="true" d="M0.5,0.5h200v200h-200Z" stroke="#ddd"/><g><g class="mark-group role-axis" aria-hidden="true"><g transform="translate(0.5,200.5)"><path class="background" aria-hidden="true" d="M0,0h0v0h0Z" pointer-events="none"/><g><g class="mark-rule role-axis-grid" pointer-events="none"><line transform="translate(65,-200)" x2="0" y2="200" stroke="#ddd" stroke-width="1" opacity="1"/><line transform="translate(128,-200)" x2="0" y2="200" stroke="#ddd" stroke-width="1" opacity="1"/><line transform="translate(194,-200)" x2="0" y2="200" stroke="#ddd" stroke-width="1" opacity="1"/></g></g><path class="foreground" aria-hidden="true" d="" pointer-events="none" display="none"/></g></g><g class="mark-group role-axis" aria-hidden="true"><g transform="translate(0.5,0.5)"><path class="background" aria-hidden="true" d="M0,0h0v0h0Z" pointer-events="none"/><g><g class="mark-rule role-axis-grid" pointer-events="none"><line transform="translate(0,200)" x2="200" y2="0" stroke="#ddd" stroke-width="1" opacity="1"/><line transform="translate(0,162)" x2="200" y2="0" stroke="#ddd" stroke-width="1" opacity="1"/><line transform="translate(0,123)" x2="200" y2="0" stroke="#ddd" stroke-width="1" opacity="1"/><line transform="translate(0,85)" x2="200" y2="0" stroke="#ddd" stroke-width="1" opacity="1"/><line transform="translate(0,46)" x2="200" y2="0" stroke="#ddd" stroke-width="1" opacity="1"/><line transform="translate(0,8)" x2="200" y2="0" stroke="#ddd" stroke-width="1" opacity="1"/></g></g><path class="foreground" aria-hidden="true" d="" pointer-events="none" display="none"/></g></g><g class="mark-group role-axis" role="graphics-symbol" aria-roledescription="axis" aria-label="X-axis titled 'Time' for a time scale with values from Monday, 01 January 2024, 2:19:43 PM to Wednesday, 03 April 2024, 4:40:54 PM"><g transform="translate(0.5,200.5)"><path class="background" aria-hidden="true" d="M0,0h0v0h0Z" pointer-events="none"/><g><g class="mark-rule role-axis-tick" pointer-events="none"><line transform="translate(65,0)" x2="0" y2="5" stroke="#888" stroke-width="1" opacity="1"/><line transform="translate(128,0)" x2="0" y2="5" stroke="#888" stroke-width="1" opacity="1"/><line transform="translate(194,0)" x2="0" y2="5" stroke="#888" stroke-width="1" opacity="1"/></g><g class="mark-text role-axis-label" pointer-events="none"><text text-anchor="middle" transform="translate(65.31388114008764,15)" font-family="Liberation Mono" font-size="10px" fill="#000" opacity="1">February</text><text text-anchor="middle" transform="translate(127.6137931859565,15)" font-family="Liberation Mono" font-size="10px" fill="#000" opacity="1">March</text><text text-anchor="middle" transform="translate(194.21025089016112,15)" font-family="Liberation Mono" font-size="10px" fill="#000" opacity="1">April</text></g><g class="mark-rule role-axis-domain" pointer-events="none"><line transform="translate(0,0)" x2="200" y2="0" stroke="#888" stroke-width="1" opacity="1"/></g><g class="mark-text role-axis-title" pointer-events="none"><text text-anchor="middle" transform="translate(100,30)" font-family="Liberation Mono" font-size="11px" font-weight="bold" fill="#000" opacity="1">Time</text></g></g><path class="foreground" aria-hidden="true" d="" pointer-events="none" display="none"/></g></g><g class="mark-group role-axis" role="graphics-symbol" aria-roledescription="axis" aria-label="Y-axis titled 'Price' for a linear scale with values from 0 to 2,600"><g transform="translate(0.5,0.5)"><path class="background" aria-hidden="true" d="M0,0h0v0h0Z" pointer-events="none"/><g><g class="mark-rule role-axis-tick" pointer-events="none"><line transform="translate(0,200)" x2="-5" y2="0" stroke="#888" stroke-width="1" opacity="1"/><line transform="translate(0,162)" x2="-5" y2="0" stroke="#888" stroke-width="1" opacity="1"/><line transform="translate(0,123)" x2="-5" y2="0" stroke="#888" stroke-width="1" opacity="1"/><line transform="translate(0,85)" x2="-5" y2="0" stroke="#888" stroke-width="1" opacity="1"/><line transform="translate(0,46)" x2="-5" y2="0" stroke="#888" stroke-width="1" opacity="1"/><line transform="translate(0,8)" x2="-5" y2="0" stroke="#888" stroke-width="1" opacity="1"/></g><g class="mark-text role-axis-label" pointer-events="none"><text text-anchor="end" transform="translate(-7,203)" font-family="Liberation Mono" font-size="10px" fill="#000" opacity="1">0</text><text text-anchor="end" transform="translate(-7,164.53846153846155)" font-family="Liberation Mono" font-size="10px" fill="#000" opacity="1">500</text><text text-anchor="end" transform="translate(-7,126.07692307692308)" font-family="Liberation Mono" font-size="10px" fill="#000" opacity="1">1,000</text><text text-anchor="end" transform="translate(-7,87.61538461538463)" font-family="Liberation Mono" font-size="10px" fill="#000" opacity="1">1,500</text><text text-anchor="end" transform="translate(-7,49.153846153846146)" font-family="Liberation Mono" font-size="10px" fill="#000" opacity="1">2,000</text><text text-anchor="end" transform="translate(-7,10.692307692307686)" font-family="Liberation Mono" font-size="10px" fill="#000" opacity="1">2,500</text></g><g class="mark-rule role-axis-domain" pointer-events="none"><line transform="translate(0,200)" x2="0" y2="-200" stroke="#888" stroke-width="1" opacity="1"/></g><g class="mark-text role-axis-title" pointer-events="none"><text text-anchor="middle" transform="translate(-51,100) rotate(-90) translate(0,-2)" font-family="Liberation Mono" font-size="11px" font-weight="bold" fill="#000" opacity="1">Price</text></g></g><path class="foreground" aria-hidden="true" d="" pointer-events="none" display="none"/></g></g><g class="mark-group role-scope pathgroup" role="graphics-object" aria-roledescription="group mark container"><g transform="translate(0,0)"><path class="background" aria-hidden="true" d="M0,0h200v200h-200Z"/><g><g class="mark-line role-mark marks" role="graphics-object" aria-roledescription="line mark container"><path aria-label="Time: Jan 01, 2024; Price: 2399; identifier: altex-LG-F2WR508SBW" role="graphics-symbol" aria-roledescription="line mark" d="M0,15.462L0.225,15.462L0.565,15.462L1.281,15.462L1.64,15.462L2.016,15.462L2.358,15.462L2.713,15.462L3.43,15.462L3.788,15.462L4.165,15.462L4.507,15.462L4.861,15.462L5.578,15.462L5.936,15.462L6.312,15.462L6.658,15.462L7.01,15.462L7.727,34.692L8.085,34.692L8.461,34.692L8.805,34.692L9.158,34.692L9.875,34.692L10.232,34.692L10.608,34.692L10.951,34.692L11.306,34.692L12.025,34.692L12.381,34.692L12.756,34.692L13.1,34.692L13.454,34.692L14.172,34.692L14.532,34.692L14.908,34.692L15.251,34.692L15.602,34.692L16.321,34.692L16.679,34.692L17.06,34.692L17.4,34.692L17.751,34.692L18.469,34.692L18.828,34.692L19.205,34.692L19.546,34.692L19.899,34.692L20.617,34.692L20.976,34.692L21.353,34.692L21.696,34.692L22.048,34.692L22.765,34.692L23.124,34.692L23.5,34.692L23.843,34.692L24.196,34.692L24.913,46.231L25.27,46.231L25.645,46.231L25.989,46.231L26.344,46.231L27.062,46.231L27.418,46.231L27.793,46.231L28.137,46.231L28.492,46.231L29.211,46.231L29.569,46.231L29.948,46.231L30.289,46.231L30.641,46.231L31.358,46.231L31.718,46.231L32.095,46.231L32.438,46.231L32.789,46.231L33.507,46.231L33.866,46.231L34.244,46.231L34.586,46.231L34.937,46.231L35.655,46.231L36.013,46.231L36.391,46.231L36.732,46.231L37.086,46.231L37.803,46.231L38.162,46.231L38.539,46.231L38.882,46.231L39.234,46.231L39.952,46.231L40.308,46.231L40.683,46.231L41.029,46.231L41.383,46.231L42.098,46.231L42.456,46.231L42.832,46.231L43.176,46.231L43.53,46.231L44.25,46.231L44.609,46.231L44.986,46.231L45.326,46.231L45.679,46.231L46.397,46.231L46.756,46.231L47.134,46.231L47.477,46.231L47.827,46.231L48.546,46.231L48.904,46.231L49.282,46.231L49.624,46.231L49.975,46.231L50.694,46.231L51.052,46.231L51.43,46.231L51.774,46.231L52.123,46.231L52.841,46.231L53.2,46.231L53.571,46.231L53.915,46.231L54.273,46.231L54.988,46.231L55.347,46.231L55.714,46.231L56.062,46.231L56.419,46.231L57.136,46.231L57.494,46.231L57.864,46.231L58.21,46.231L58.568,46.231L59.284,46.231L59.643,46.231L60.015,46.231L60.359,46.231L60.717,46.231L61.432,46.231L61.79,46.231L62.163,46.231L62.512,46.231L62.864,46.231L63.58,46.231L63.939,46.231L64.312,46.231L64.655,46.231L65.013,46.231L65.729,34.692L66.087,34.692L66.46,34.692L66.803,34.692L67.161,34.692L67.878,34.692L68.235,34.692L68.608,34.692L68.951,34.692L69.31,34.692L70.026,34.692L70.384,34.692L70.753,34.692L71.1,34.692L71.459,34.692L72.176,34.692L72.533,34.692L72.901,34.692L73.248,34.692L73.606,34.692L74.322,34.692L74.681,34.692L75.054,34.692L75.397,34.692L75.754,34.692L76.47,34.692L76.828,34.692L77.202,34.692L77.545,34.692L77.903,34.692L78.619,34.692L78.977,34.692L79.349,34.692L79.695,34.692L80.051,34.692L80.767,34.692L81.126,34.692L81.497,34.692L81.843,34.692L82.199,34.692L82.916,34.692L83.274,34.692L83.644,34.692L83.99,34.692L84.349,34.692L85.063,34.692L85.421,34.692L85.792,34.692L86.138,34.692L86.496,34.692L87.213,34.692L87.57,34.692L87.939,34.692L88.286,34.692L88.644,34.692L89.36,34.692L89.718,34.692L90.092,34.692L90.435,34.692L90.792,34.692L91.508,34.692L91.866,34.692L92.238,34.692L92.588,34.692L92.941,34.692L93.657,34.692L94.015,34.692L94.388,34.692L94.732,34.692L95.088,34.692L96.163,34.692L96.535,34.692L96.88,34.692L97.238,34.692L97.954,34.692L98.312,34.692L98.684,34.692L99.029,34.692L99.385,34.692L100.102,34.692L100.459,34.692L100.829,34.692L101.176,34.692L101.533,34.692L102.25,34.692L102.61,34.692L102.977,34.692L103.324,34.692L103.682,34.692L104.398,34.692L104.757,34.692L105.13,34.692L105.477,34.692L105.83,34.692L106.547,34.692L106.905,34.692L107.276,34.692L107.622,34.692L107.979,34.692L108.694,34.692L109.053,34.692L109.426,34.692L109.77,34.692L110.127,34.692L110.843,34.692L111.201,34.692L111.573,34.692L111.918,34.692L112.275,34.692L112.991,34.692L113.349,34.692L113.72,34.692L114.065,34.692L114.425,34.692L115.139,34.692L115.497,34.692L115.866,34.692L116.213,34.692L116.571,34.692L117.287,34.692L117.646,34.692L118.015,34.692L118.364,34.692L118.719,34.692L119.436,34.692L119.795,34.692L120.167,34.692L120.511,34.692L120.868,34.692L121.584,34.692L121.943,34.692L122.314,34.692L122.66,34.692L123.016,34.692L123.733,34.692L124.091,34.692L124.462,34.692L124.809,34.692L125.165,34.692L125.881,34.692L126.238,34.692L126.61,34.692L126.954,34.692L127.313,34.692L128.029,34.692L128.388,34.692L128.76,34.692L129.104,34.692L129.461,34.692L130.177,34.692L130.536,34.692L130.907,34.692L131.251,34.692L131.61,34.692L132.326,34.692L132.683,34.692L133.053,34.692L133.4,34.692L133.758,34.692L134.507,34.692L134.996,34.692L135.21,34.692L135.55,34.692L135.906,34.692L136.622,34.692L136.98,34.692L137.354,34.692L137.697,34.692L138.054,34.692L138.77,34.692L139.131,34.692L139.502,34.692L139.847,34.692L140.202,34.692L140.918,34.692L141.278,34.692L141.649,34.692L141.993,34.692L142.351,34.692L143.067,34.692L143.43,34.692L143.797,34.692L144.141,34.692L144.499,34.692L145.216,34.692L145.574,34.692L145.941,34.692L146.291,34.692L146.647,34.692L147.363,34.692L147.724,34.692L148.09,34.692L148.439,34.692L148.795,34.692L149.513,34.692L149.87,34.692L150.243,34.692L150.589,34.692L150.944,34.692L151.66,34.692L152.018,34.692L152.391,34.692L152.737,34.692L153.092,34.692L153.809,34.692L154.169,34.692L154.54,34.692L154.883,34.692L155.24,34.692L155.956,34.692L156.315,34.692L156.689,34.692L157.032,34.692L157.389,34.692L158.104,34.692L158.465,34.692L158.835,34.692L159.18,34.692L159.537,34.692L160.253,34.692L160.613,34.692L160.982,34.692L161.328,34.692L161.687,34.692L162.401,34.692L162.762,34.692L163.13,34.692L163.475,34.692L163.834,34.692L164.549,34.692L164.908,34.692L165.283,34.692L165.627,34.692L165.984,34.692L166.699,34.692L167.056,34.692L167.428,34.692L167.776,34.692L168.13,34.692L168.846,34.692L169.205,34.692L169.577,34.692L169.925,34.692L170.28,34.692L170.995,34.692L171.354,34.692L171.727,34.692L172.074,34.692L172.427,34.692L173.143,34.692L173.501,34.692L173.873,34.692L174.218,34.692L174.575,34.692L175.291,34.692L175.649,34.692L176.021,34.692L176.365,34.692L176.723,34.692L177.439,34.692L177.798,34.692L178.171,34.692L178.513,34.692L178.871,34.692L179.588,34.692L179.946,34.692L180.319,34.692L180.663,34.692L181.019,34.692L181.736,34.692L182.097,34.692L182.467,34.692L182.813,34.692L183.168,34.692L183.887,34.692L184.244,34.692L184.617,34.692L184.963,34.692L185.317,34.692L186.032,34.692L186.39,34.692L186.765,34.692L187.109,34.692L187.464,34.692L188.181,34.692L188.539,34.692L188.913,34.692L189.257,34.692L189.613,34.692L190.329,34.692L190.687,34.692L191.056,34.692L191.404,34.692L191.763,34.692L192.478,34.692L192.837,34.692L193.207,34.692L193.553,34.692L193.91,34.692L194.625,34.692L194.986,34.692L195.359,34.692L195.705,34.692L196.057,34.692L196.775,34.692L197.133,34.692L197.507,34.692L197.852,34.692L198.205,34.692L198.922,34.692L199.28,34.692L199.653,34.692L200,34.692" stroke="#f58518" stroke-width="2"/></g></g><path class="foreground" aria-hidden="true" d="" display="none"/></g><g transform="translate(0,0)"><path class="background" aria-hidden="true" d="M0,0h200v200h-200Z"/><g><g class="mark-line role-mark marks" role="graphics-object" aria-roledescription="line mark container"><path aria-label="Time: Jan 01, 2024; Price: 2499; identifier: altex-LG-F2WR508SBM" role="graphics-symbol" aria-roledescription="line mark" d="M0,7.769L0.225,7.769L0.565,7.769L1.281,7.769L1.64,7.769L2.016,7.769L2.358,7.769L2.713,7.769L3.43,7.769L3.788,7.769L4.165,7.769L4.507,7.769L4.861,7.769L5.578,7.769L5.937,7.769L6.312,7.769L6.658,7.769L7.01,7.769L7.727,27L8.085,27L8.461,27L8.805,27L9.158,27L9.875,27L10.232,27L10.608,27L10.951,27L11.306,27L12.025,27L12.381,27L12.756,27L13.1,27L13.455,27L14.173,27L14.532,27L14.908,27L15.251,27L15.602,27L16.322,27L16.679,27L17.06,27L17.4,27L17.751,27L18.47,27L18.828,27L19.205,27L19.546,27L19.899,27L20.617,27L20.976,27L21.354,27L21.696,27L22.048,27L22.765,27L23.124,27L23.5,27L23.843,27L24.196,27L24.913,38.538L25.27,38.538L25.645,38.538L25.989,38.538L26.344,38.538L27.062,38.538L27.418,38.538L27.793,38.538L28.137,38.538L28.492,38.538L29.211,38.538L29.57,38.538L29.948,38.538L30.289,38.538L30.641,38.538L31.358,38.538L31.718,38.538L32.095,38.538L32.439,38.538L32.789,38.538L33.507,38.538L33.866,38.538L34.244,38.538L34.586,38.538L34.937,38.538L35.655,38.538L36.013,38.538L36.391,38.538L36.732,38.538L37.086,38.538L37.804,38.538L38.162,38.538L38.539,38.538L38.883,38.538L39.234,38.538L39.952,38.538L40.308,38.538L40.683,38.538L41.029,38.538L41.383,38.538L42.098,38.538L42.456,38.538L42.832,38.538L43.176,38.538L43.531,38.538L44.25,38.538L44.609,38.538L44.987,38.538L45.327,38.538L45.679,38.538L46.397,38.538L46.757,38.538L47.134,38.538L47.477,38.538L47.827,38.538L48.546,38.538L48.904,38.538L49.282,38.538L49.624,38.538L49.975,38.538L50.695,38.538L51.052,38.538L51.43,38.538L51.774,38.538L52.124,38.538L52.841,38.538L53.2,38.538L53.571,38.538L53.915,38.538L54.273,38.538L54.988,38.538L55.347,38.538L55.714,38.538L56.062,38.538L56.419,38.538L57.136,38.538L57.494,38.538L57.864,38.538L58.21,38.538L58.568,38.538L59.285,38.538L59.644,38.538L60.015,38.538L60.359,38.538L60.717,38.538L61.432,38.538L61.791,38.538L62.163,38.538L62.512,38.538L62.864,38.538L63.581,38.538L63.939,38.538L64.312,38.538L64.655,38.538L65.013,38.538L65.729,27L66.087,27L66.46,27L66.803,27L67.161,27L67.878,27L68.235,27L68.608,27L68.951,27L69.31,27L70.026,27L70.384,27L70.753,27L71.1,27L71.459,27L72.176,27L72.533,27L72.901,27L73.248,27L73.606,27L74.322,27L74.682,27L75.054,27L75.397,27L75.754,27L76.47,27L76.829,27L77.202,27L77.545,27L77.903,27L78.619,27L78.977,27L79.349,27L79.695,27L80.051,27L80.767,27L81.126,27L81.497,27L81.843,27L82.199,27L82.916,27L83.274,27L83.644,27L83.99,27L84.349,27L85.063,27L85.421,27L85.792,27L86.138,27L86.496,27L87.214,27L87.57,27L87.939,27L88.286,27L88.644,27L89.361,27L89.718,27L90.093,27L90.435,27L90.792,27L91.508,27L91.866,27L92.238,27L92.588,27L92.941,27L93.657,27L94.015,27L94.388,27L94.732,27L95.088,27L96.163,27L96.535,27L96.88,27L97.238,27L97.954,27L98.312,27L98.684,27L99.03,27L99.386,27L100.102,27L100.459,27L100.829,27L101.176,27L101.534,27L102.25,27L102.61,27L102.977,27L103.324,27L103.682,27L104.398,27L104.758,27L105.13,27L105.477,27L105.83,27L106.548,27L106.905,27L107.276,27L107.622,27L107.98,27L108.694,27L109.053,27L109.426,27L109.77,27L110.128,27L110.843,27L111.201,27L111.574,27L111.919,27L112.276,27L112.991,27L113.349,27L113.72,27L114.065,27L114.425,27L115.14,27L115.497,27L115.866,27L116.213,27L116.571,27L117.287,27L117.646,27L118.015,27L118.364,27L118.719,27L119.436,27L119.795,27L120.167,27L120.511,27L120.868,27L121.584,27L121.943,27L122.314,27L122.66,27L123.016,27L123.733,27L124.091,27L124.462,27L124.809,27L125.165,27L125.881,27L126.239,27L126.61,27L126.955,27L127.313,27L128.029,27L128.388,27L128.76,27L129.104,27L129.461,27L130.178,27L130.536,27L130.907,27L131.251,27L131.61,27L132.326,27L132.683,27L133.053,27L133.4,27L133.758,27L134.507,27L134.996,27L135.21,27L135.55,27L135.906,27L136.622,27L136.98,27L137.354,27L137.697,27L138.054,27L138.77,27L139.131,27L139.502,27L139.847,27L140.202,27L140.918,27L141.278,27L141.649,38.538L141.993,38.538L142.351,38.538L143.067,38.538L143.43,38.538L143.797,38.538L144.141,38.538L144.499,38.538L145.216,38.538L145.574,38.538L145.941,38.538L146.291,38.538L146.647,38.538L147.364,38.538L147.724,38.538L148.09,38.538L148.439,38.538L148.795,38.538L149.513,38.538L149.87,38.538L150.243,38.538L150.589,38.538L150.944,38.538L151.66,38.538L152.018,38.538L152.391,38.538L152.737,38.538L153.092,38.538L153.809,38.538L154.169,38.538L154.54,38.538L154.883,38.538L155.24,38.538L155.957,38.538L156.315,38.538L156.689,38.538L157.032,38.538L157.389,38.538L158.105,38.538L158.465,38.538L158.835,38.538L159.18,38.538L159.537,38.538L160.253,38.538L160.613,38.538L160.982,38.538L161.328,38.538L161.687,38.538L162.401,38.538L162.762,38.538L163.13,38.538L163.475,38.538L163.834,38.538L164.549,38.538L164.908,38.538L165.284,38.538L165.628,38.538L165.984,38.538L166.699,38.538L167.056,38.538L167.428,38.538L167.777,38.538L168.13,38.538L168.846,38.538L169.205,38.538L169.577,38.538L169.925,38.538L170.28,38.538L170.995,38.538L171.354,38.538L171.727,38.538L172.074,38.538L172.427,38.538L173.143,38.538L173.501,38.538L173.873,38.538L174.218,38.538L174.575,38.538L175.291,38.538L175.649,38.538L176.021,38.538L176.365,38.538L176.723,38.538L177.44,38.538L177.798,38.538L178.171,38.538L178.513,38.538L178.871,38.538L179.588,38.538L179.946,38.538L180.319,38.538L180.663,38.538L181.02,38.538L181.736,38.538L182.097,38.538L182.467,38.538L182.813,38.538L183.168,38.538L183.887,38.538L184.244,38.538L184.617,38.538L184.963,38.538L185.317,38.538L186.032,38.538L186.391,38.538L186.765,38.538L187.109,38.538L187.464,38.538L188.182,38.538L188.539,38.538L188.913,38.538L189.257,38.538L189.613,38.538L190.329,38.538L190.687,38.538L191.057,38.538L191.404,38.538L191.763,38.538L192.478,38.538L192.837,38.538L193.207,38.538L193.553,38.538L193.91,38.538L194.625,38.538L194.986,38.538L195.36,38.538L195.705,38.538L196.057,38.538L196.775,38.538L197.133,38.538L197.507,38.538L197.852,38.538L198.206,38.538L198.922,38.538L199.28,38.538L199.654,38.538L200,38.538" stroke="#4c78a8" stroke-width="2"/></g></g><path class="foreground" aria-hidden="true" d="" display="none"/></g></g><g class="mark-group role-legend" role="graphics-symbol" aria-roledescription="legend" aria-label="Symbol legend titled 'identifier' for stroke color with 2 values: altex-LG-F2WR508SBM, altex-LG-F2WR508SBW"><g transform="translate(220,0)"><path class="background" aria-hidden="true" d="M0,0h168v40h-168Z" pointer-events="none"/><g><g class="mark-group role-legend-entry"><g transform="translate(0,16)"><path class="background" aria-hidden="true" d="M0,0h0v0h0Z" pointer-events="none"/><g><g class="mark-group role-scope" role="graphics-object" aria-roledescription="group mark container"><g transform="translate(0,0)"><path class="background" aria-hidden="true" d="M0,0h168v11h-168Z" pointer-events="none" opacity="1"/><g><g class="mark-symbol role-legend-symbol" pointer-events="none"><path transform="translate(6,6)" d="M-5,0L5,0" stroke="#4c78a8" stroke-width="1.5" opacity="1"/></g><g class="mark-text role-legend-label" pointer-events="none"><text text-anchor="start" transform="translate(16,9)" font-family="Liberation Mono" font-size="10px" fill="#000" opacity="1">altex-LG-F2WR508SBM</text></g></g><path class="foreground" aria-hidden="true" d="" pointer-events="none" display="none"/></g><g transform="translate(0,13)"><path class="background" aria-hidden="true" d="M0,0h168v11h-168Z" pointer-events="none" opacity="1"/><g><g class="mark-symbol role-legend-symbol" pointer-events="none"><path transform="translate(6,6)" d="M-5,0L5,0" stroke="#f58518" stroke-width="1.5" opacity="1"/></g><g class="mark-text role-legend-label" pointer-events="none"><text text-anchor="start" transform="translate(16,9)" font-family="Liberation Mono" font-size="10px" fill="#000" opacity="1">altex-LG-F2WR508SBW</text></g></g><path class="foreground" aria-hidden="true" d="" pointer-events="none" display="none"/></g></g></g><path class="foreground" aria-hidden="true" d="" pointer-events="none" display="none"/></g></g><g class="mark-text role-legend-title" pointer-events="none"><text text-anchor="start" transform="translate(0,9)" font-family="Liberation Mono" font-size="11px" font-weight="bold" fill="#000" opacity="1">identifier</text></g></g><path class="foreground" aria-hidden="true" d="" pointer-events="none" display="none"/></g></g></g><path class="foreground" aria-hidden="true" d="" display="none"/></g></g></g></svg>