<svg xmlns="http://www.w3.org/2000/svg" xmlns:xlink="http://www.w3.org/1999/xlink" version="1.1" class="marks" width="460" height="242" viewBox="0 0 460 242"><rect width="460" height="242" fill="white"/><g fill="none" stroke-miterlimit="10" transform="translate(67,5)"><g class="mark-group role-frame root" role="graphics-object" aria-roledescription="group mark container"><g transform="translate(0,0)"><path class="background" aria-hidden="true" d="M0.5,0.5h200v200h-200Z" stroke="#ddd"/><g><g class="mark-group role-axis" aria-hidden="true"><g transform="translate(0.5,200.5)"><path class="background" aria-hidden="true" d="M0,0h0v0h0Z" pointer-events="none"/><g><g class="mark-rule role-axis-grid" pointer-events="none"><line transform="translate(47,-200)" x2="0" y2="200" stroke="#ddd" stroke-width="1" opacity="1"/><line transform="translate(94,-200)" x2="0" y2="200" stroke="#ddd" stroke-width="1" opacity="1"/><line transform="translate(141,-200)" x2="0" y2="200" stroke="#ddd" stroke-width="1" opacity="1"/><line transform="translate(188,-200)" x2="0" y2="200" stroke="#ddd" stroke-width="1" opacity="1"/></g></g><path class="foreground" aria-hidden="true" d="" pointer-events="none" display="none"/></g></g><g class="mark-group role-axis" aria-hidden="true"><g transform="translate(0.5,0.5)"><path class="background" aria-hidden="true" d="M0,0h0v0h0Z" pointer-events="none"/><g><g class="mark-rule role-axis-grid" pointer-events="none"><line transform="translate(0,200)" x2="200" y2="0" stroke="#ddd" stroke-width="1" opacity="1"/><line transform="translate(0,162)" x2="200" y2="0" stroke="#ddd" stroke-width="1" opacity="1"/><line transform="translate(0,123)" x2="200" y2="0" stroke="#ddd" stroke-width="1" opacity="1"/><line transform="translate(0,85)" x2="200" y2="0" stroke="#ddd" stroke-width="1" opacity="1"/><line transform="translate(0,46)" x2="200" y2="0" stroke="#ddd" stroke-width="1" opacity="1"/><line transform="translate(0,8)" x2="200" y2="0" stroke="#ddd" stroke-width="1" opacity="1"/></g></g><path class="foreground" aria-hidden="true" d="" pointer-events="none" display="none"/></g></g><g class="mark-group role-axis" role="graphics-symbol" aria-roledescription="axis" aria-label="X-axis titled 'Time' for a time scale with values from Monday, 01 January 2024, 2:19:43 PM to Thursday, 23 January 2025, 8:43:04 AM"><g transform="translate(0.5,200.5)"><path class="background" aria-hidden="true" d="M0,0h0v0h0Z" pointer-events="none"/><g><g class="mark-rule role-axis-tick" pointer-events="none"><line transform="translate(47,0)" x2="0" y2="5" stroke="#888" stroke-width="1" opacity="1"/><line transform="translate(94,0)" x2="0" y2="5" stroke="#888" stroke-width="1" opacity="1"/><line transform="translate(141,0)" x2="0" y2="5" stroke="#888" stroke-width="1" opacity="1"/><line transform="translate(188,0)" x2="0" y2="5" stroke="#888" stroke-width="1" opacity="1"/></g><g class="mark-text role-axis-label" pointer-events="none"><text text-anchor="middle" transform="translate(46.62756469282794,15)" font-family="Liberation Mono" font-size="10px" fill="#000" opacity="1">April</text><text text-anchor="middle" transform="translate(93.5630607200873,15)" font-family="Liberation Mono" font-size="10px" fill="#000" opacity="1">July</text><text text-anchor="middle" transform="translate(141.0143314289649,15)" font-family="Liberation Mono" font-size="10px" fill="#000" opacity="1">October</text><text text-anchor="middle" transform="translate(188.4656021378425,15)" font-family="Liberation Mono" font-size="10px" fill="#000" opacity="1">2025</text></g><g class="mark-rule role-axis-domain" pointer-events="none"><line transform="translate(0,0)" x2="200" y2="0" stroke="#888" stroke-width="1" opacity="1"/></g><g class="mark-text role-axis-title" pointer-events="none"><text text-anchor="middle" transform="translate(100,30)" font-family="Liberation Mono" font-size="11px" font-weight="bold" fill="#000" opacity="1">Time</text></g></g><path class="foreground" aria-hidden="true" d="" pointer-events="none" display="none"/></g></g><g class="mark-group role-axis" role="graphics-symbol" aria-roledescription="axis" aria-label="Y-axis titled 'Price' for a linear scale with values from 0 to 2,600"><g transform="translate(0.5,0.5)"><path class="background" aria-hidden="true" d="M0,0h0v0h0Z" pointer-events="none"/><g><g class="mark-rule role-axis-tick" pointer-events="none"><line transform="translate(0,200)" x2="-5" y2="0" stroke="#888" stroke-width="1" opacity="1"/><line transform="translate(0,162)" x2="-5" y2="0" stroke="#888" stroke-width="1" opacity="1"/><line transform="translate(0,123)" x2="-5" y2="0" stroke="#888" stroke-width="1" opacity="1"/><line transform="translate(0,85)" x2="-5" y2="0" stroke="#888" stroke-width="1" opacity="1"/><line transform="translate(0,46)" x2="-5" y2="0" stroke="#888" stroke-width="1" opacity="1"/><line transform="translate(0,8)" x2="-5" y2="0" stroke="#888" stroke-width="1" opacity="1"/></g><g class="mark-text role-axis-label" pointer-events="none"><text text-anchor="end" transform="translate(-7,203)" font-family="Liberation Mono" font-size="10px" fill="#000" opacity="1">0</text><text text-anchor="end" transform="translate(-7,164.53846153846155)" font-family="Liberation Mono" font-size="10px" fill="#000" opacity="1">500</text><text text-anchor="end" transform="translate(-7,126.07692307692308)" font-family="Liberation Mono" font-size="10px" fill="#000" opacity="1">1,000</text><text text-anchor="end" transform="translate(-7,87.61538461538463)" font-family="Liberation Mono" font-size="10px" fill="#000" opacity="1">1,500</text><text text-anchor="end" transform="translate(-7,49.153846153846146)" font-family="Liberation Mono" font-size="10px" fill="#000" opacity="1">2,000</text><text text-anchor="end" transform="translate(-7,10.692307692307686)" font-family="Liberation Mono" font-size="10px" fill="#000" opacity="1">2,500</text></g><g class="mark-rule role-axis-domain" pointer-events="none"><line transform="translate(0,200)" x2="0" y2="-200" stroke="#888" stroke-width="1" opacity="1"/></g><g class="mark-text role-axis-title" pointer-events="none"><text text-anchor="middle" transform="translate(-51,100) rotate(-90) translate(0,-2)" font-family="Liberation Mono" font-size="11px" font-weight="bold" fill="#000" opacity="1">Price</text></g></g><path class="foreground" aria-hidden="true" d="" pointer-events="none" display="none"/></g></g><g class="mark-group role-scope pathgroup" role="graphics-object" aria-roledescription="group mark container"><g transform="translate(0,0)"><path class="background" aria-hidden="true" d="M0,0h200v200h-200Z"/><g><g class="mark-line role-mark marks" role="graphics-object" aria-roledescription="line mark container"><path aria-label="Time: Jan 01, 2024; Price: 2399; identifier: altex-LG-F2WR508SBW" role="graphics-symbol" aria-roledescription="line mark" d="M0,15.462L0.054,15.462L0.136,15.462L0.308,15.462L0.394,15.462L0.484,15.462L0.566,15.462L0.651,15.462L0.823,15.462L0.909,15.462L1,15.462L1.082,15.462L1.167,15.462L1.339,15.462L1.425,15.462L1.516,15.462L1.598,15.462L1.683,15.462L1.855,34.692L1.941,34.692L2.031,34.692L2.114,34.692L2.199,34.692L2.371,34.692L2.457,34.692L2.547,34.692L2.629,34.692L2.714,34.692L2.887,34.692L2.972,34.692L3.062,34.692L3.145,34.692L3.23,34.692L3.403,34.692L3.489,34.692L3.579,34.692L3.662,34.692L3.746,34.692L3.919,34.692L4.004,34.692L4.096,34.692L4.177,34.692L4.262,34.692L4.434,34.692L4.52,34.692L4.611,34.692L4.693,34.692L4.778,34.692L4.95,34.692L5.036,34.692L5.127,34.692L5.209,34.692L5.293,34.692L5.466,34.692L5.552,34.692L5.642,34.692L5.724,34.692L5.809,34.692L5.981,46.231L6.067,46.231L6.157,46.231L6.24,46.231L6.325,46.231L6.497,46.231L6.583,46.231L6.673,46.231L6.755,46.231L6.841,46.231L7.013,46.231L7.099,46.231L7.19,46.231L7.272,46.231L7.356,46.231L7.529,46.231L7.615,46.231L7.706,46.231L7.788,46.231L7.872,46.231L8.045,46.231L8.131,46.231L8.221,46.231L8.304,46.231L8.388,46.231L8.56,46.231L8.646,46.231L8.737,46.231L8.819,46.231L8.904,46.231L9.076,46.231L9.162,46.231L9.253,46.231L9.335,46.231L9.42,46.231L9.592,46.231L9.677,46.231L9.768,46.231L9.851,46.231L9.935,46.231L10.107,46.231L10.193,46.231L10.283,46.231L10.366,46.231L10.451,46.231L10.624,46.231L10.71,46.231L10.801,46.231L10.882,46.231L10.967,46.231L11.139,46.231L11.226,46.231L11.316,46.231L11.399,46.231L11.483,46.231L11.655,46.231L11.741,46.231L11.832,46.231L11.914,46.231L11.998,46.231L12.171,46.231L12.257,46.231L12.348,46.231L12.43,46.231L12.514,46.231L12.686,46.231L12.773,46.231L12.862,46.231L12.944,46.231L13.03,46.231L13.202,46.231L13.288,46.231L13.376,46.231L13.46,46.231L13.546,46.231L13.718,46.231L13.804,46.231L13.892,46.231L13.976,46.231L14.062,46.231L14.233,46.231L14.32,46.231L14.409,46.231L14.491,46.231L14.577,46.231L14.749,46.231L14.835,46.231L14.925,46.231L15.008,46.231L15.093,46.231L15.265,46.231L15.351,46.231L15.44,46.231L15.523,46.231L15.609,46.231L15.781,34.692L15.867,34.692L15.956,34.692L16.039,34.692L16.125,34.692L16.297,34.692L16.382,34.692L16.472,34.692L16.554,34.692L16.64,34.692L16.812,34.692L16.898,34.692L16.987,34.692L17.07,34.692L17.156,34.692L17.329,34.692L17.414,34.692L17.503,34.692L17.586,34.692L17.672,34.692L17.844,34.692L17.93,34.692L18.02,34.692L18.102,34.692L18.188,34.692L18.36,34.692L18.446,34.692L18.535,34.692L18.618,34.692L18.703,34.692L18.875,34.692L18.961,34.692L19.051,34.692L19.134,34.692L19.219,34.692L19.391,34.692L19.477,34.692L19.567,34.692L19.649,34.692L19.735,34.692L19.907,34.692L19.993,34.692L20.082,34.692L20.165,34.692L20.251,34.692L20.423,34.692L20.509,34.692L20.598,34.692L20.681,34.692L20.767,34.692L20.939,34.692L21.025,34.692L21.113,34.692L21.196,34.692L21.282,34.692L21.454,34.692L21.54,34.692L21.63,34.692L21.712,34.692L21.798,34.692L21.97,34.692L22.056,34.692L22.145,34.692L22.229,34.692L22.314,34.692L22.486,34.692L22.572,34.692L22.661,34.692L22.744,34.692L22.83,34.692L23.088,34.692L23.177,34.692L23.26,34.692L23.346,34.692L23.517,34.692L23.603,34.692L23.693,34.692L23.776,34.692L23.861,34.692L24.033,34.692L24.119,34.692L24.208,34.692L24.291,34.692L24.377,34.692L24.549,34.692L24.635,34.692L24.724,34.692L24.807,34.692L24.893,34.692L25.065,34.692L25.151,34.692L25.241,34.692L25.324,34.692L25.409,34.692L25.581,34.692L25.667,34.692L25.756,34.692L25.839,34.692L25.925,34.692L26.096,34.692L26.182,34.692L26.272,34.692L26.355,34.692L26.44,34.692L26.612,34.692L26.698,34.692L26.787,34.692L26.87,34.692L26.956,34.692L27.128,34.692L27.214,34.692L27.303,34.692L27.386,34.692L27.472,34.692L27.644,34.692L27.73,34.692L27.818,34.692L27.901,34.692L27.987,34.692L28.159,34.692L28.246,34.692L28.334,34.692L28.418,34.692L28.503,34.692L28.675,34.692L28.761,34.692L28.851,34.692L28.933,34.692L29.019,34.692L29.191,34.692L29.277,34.692L29.366,34.692L29.449,34.692L29.535,34.692L29.707,34.692L29.793,34.692L29.882,34.692L29.965,34.692L30.051,34.692L30.222,34.692L30.308,34.692L30.397,34.692L30.48,34.692L30.566,34.692L30.738,34.692L30.825,34.692L30.914,34.692L30.996,34.692L31.082,34.692L31.254,34.692L31.34,34.692L31.429,34.692L31.512,34.692L31.598,34.692L31.77,34.692L31.856,34.692L31.944,34.692L32.028,34.692L32.114,34.692L32.293,34.692L32.411,34.692L32.462,34.692L32.544,34.692L32.629,34.692L32.801,34.692L32.887,34.692L32.977,34.692L33.059,34.692L33.145,34.692L33.317,34.692L33.404,34.692L33.493,34.692L33.576,34.692L33.661,34.692L33.833,34.692L33.919,34.692L34.008,34.692L34.091,34.692L34.177,34.692L34.349,34.692L34.436,34.692L34.524,34.692L34.606,34.692L34.692,34.692L34.865,34.692L34.95,34.692L35.039,34.692L35.123,34.692L35.208,34.692L35.38,34.692L35.467,34.692L35.555,34.692L35.638,34.692L35.724,34.692L35.896,34.692L35.982,34.692L36.072,34.692L36.155,34.692L36.24,34.692L36.412,34.692L36.498,34.692L36.587,34.692L36.67,34.692L36.756,34.692L36.928,34.692L37.014,34.692L37.103,34.692L37.186,34.692L37.271,34.692L37.443,34.692L37.529,34.692L37.619,34.692L37.702,34.692L37.787,34.692L37.959,34.692L38.046,34.692L38.134,34.692L38.217,34.692L38.303,34.692L38.475,34.692L38.561,34.692L38.65,34.692L38.733,34.692L38.819,34.692L38.991,34.692L39.077,34.692L39.166,34.692L39.248,34.692L39.335,34.692L39.506,34.692L39.592,34.692L39.683,34.692L39.765,34.692L39.851,34.692L40.022,34.692L40.108,34.692L40.198,34.692L40.281,34.692L40.366,34.692L40.538,34.692L40.624,34.692L40.713,34.692L40.797,34.692L40.882,34.692L41.054,34.692L41.14,34.692L41.23,34.692L41.313,34.692L41.398,34.692L41.57,34.692L41.655,34.692L41.745,34.692L41.828,34.692L41.913,34.692L42.085,34.692L42.171,34.692L42.26,34.692L42.343,34.692L42.429,34.692L42.601,34.692L42.687,34.692L42.777,34.692L42.859,34.692L42.945,34.692L43.117,34.692L43.203,34.692L43.292,34.692L43.375,34.692L43.461,34.692L43.633,34.692L43.719,34.692L43.808,34.692L43.891,34.692L43.976,34.692L44.149,34.692L44.235,34.692L44.324,34.692L44.407,34.692L44.492,34.692L44.664,34.692L44.75,34.692L44.84,34.692L44.923,34.692L45.008,34.692L45.18,34.692L45.266,34.692L45.356,34.692L45.438,34.692L45.524,34.692L45.696,34.692L45.782,34.692L45.87,34.692L45.954,34.692L46.04,34.692L46.212,34.692L46.298,34.692L46.387,34.692L46.47,34.692L46.555,34.692L46.727,34.692L46.814,34.692L46.903,34.692L46.986,34.692L47.071,34.692L47.243,34.692L47.329,34.692L47.419,34.692L47.502,34.692L47.587,34.692L47.759,34.692L47.845,34.692L47.934,34.692L48.018,34.692L48.103,34.692L48.275,34.692L48.361,34.692L48.45,34.692L48.533,34.692L48.619,34.692L48.791,34.692L48.966,34.692L49.049,34.692L49.135,34.692L49.306,34.692L49.392,34.692L49.481,34.692L49.564,34.692L49.65,34.692L49.822,34.692L49.908,34.692L49.997,34.692L50.08,34.692L50.166,34.692L50.338,34.692L50.424,34.692L50.514,34.692L50.596,34.692L50.682,34.692L50.854,34.692L50.939,34.692L51.029,34.692L51.112,34.692L51.197,34.692L51.369,34.692L51.456,34.692L51.545,34.692L51.628,34.692L51.714,34.692L51.885,34.692L51.972,34.692L52.061,34.692L52.229,34.692L52.401,34.692L52.487,34.692L52.576,34.692L52.659,34.692L52.745,34.692L52.916,34.692L53.002,34.692L53.09,34.692L53.174,34.692L53.26,34.692L53.44,34.692L53.572,34.692L53.653,34.692L53.82,34.692L53.949,34.692L54.034,34.692L54.123,34.692L54.206,34.692L54.292,34.692L54.464,34.692L54.55,34.692L54.64,34.692L54.722,34.692L54.808,34.692L54.98,34.692L55.066,34.692L55.156,34.692L55.239,34.692L55.324,34.692L55.582,34.692L55.671,34.692L55.754,34.692L55.839,34.692L56.011,34.692L56.097,34.692L56.187,34.692L56.27,34.692L56.355,34.692L56.527,34.692L56.613,34.692L56.702,34.692L56.785,34.692L56.871,34.692L57.043,34.692L57.129,34.692L57.218,34.692L57.301,34.692L57.387,34.692L57.558,34.692L57.645,34.692L57.735,34.692L57.817,34.692L57.902,34.692L58.074,34.692L58.16,34.692L58.251,34.692L58.333,34.692L58.418,34.692L58.59,34.692L58.677,34.692L58.769,34.692L58.848,34.692L58.934,34.692L59.106,34.692L59.192,34.692L59.28,34.692L59.364,34.692L59.45,34.692L59.622,34.692L59.708,34.692L59.798,34.692L59.88,34.692L59.966,34.692L60.137,34.692L60.223,34.692L60.312,34.692L60.395,34.692L60.481,34.692L60.653,34.692L60.739,34.692L60.829,34.692L60.911,34.692L60.997,34.692L61.169,34.692L61.256,34.692L61.345,34.692L61.427,34.692L61.513,34.692L61.685,34.692L61.771,34.692L61.861,34.692L61.943,34.692L62.029,34.692L62.2,34.692L62.288,34.692L62.377,34.692L62.459,34.692L62.544,34.692L62.717,57.769L62.802,57.769L62.893,57.769L62.975,57.769L63.061,57.769L63.232,57.769L63.318,57.769L63.408,57.769L63.491,57.769L63.576,57.769L63.748,57.769L63.834,57.769L63.923,57.769L64.006,57.769L64.092,57.769L64.264,57.769L64.35,57.769L64.439,57.769L64.522,57.769L64.607,57.769L64.779,57.769L64.866,57.769L64.956,57.769L65.038,57.769L65.123,57.769L65.295,57.769L65.381,57.769L65.471,57.769L65.554,57.769L65.639,57.769L65.811,57.769L65.897,57.769L65.988,57.769L66.07,57.769L66.155,57.769L66.327,34.692L66.414,34.692L66.503,34.692L66.587,34.692L66.671,34.692L66.842,34.692L66.929,34.692L67.019,34.692L67.101,34.692L67.186,34.692L67.358,34.692L67.444,34.692L67.534,34.692L67.616,34.692L67.702,34.692L67.874,34.692L67.96,34.692L68.05,34.692L68.132,34.692L68.218,34.692L68.39,34.692L68.476,34.692L68.567,34.692L68.649,34.692L68.734,34.692L68.905,34.692L68.992,34.692L69.083,34.692L69.165,34.692L69.249,34.692L69.422,34.692L69.508,34.692L69.598,34.692L69.68,34.692L69.765,34.692L69.937,34.692L70.024,34.692L70.114,34.692L70.196,34.692L70.281,34.692L70.453,34.692L70.539,34.692L70.63,34.692L70.712,34.692L70.797,34.692L70.969,34.692L71.055,34.692L71.145,34.692L71.227,34.692L71.312,34.692L71.485,34.692L71.571,34.692L71.66,34.692L71.743,34.692L71.828,34.692L72.001,34.692L72.087,34.692L72.177,34.692L72.259,34.692L72.344,34.692L72.516,34.692L72.602,34.692L72.693,34.692L72.775,34.692L72.86,34.692L73.032,34.692L73.118,34.692L73.209,34.692L73.291,34.692L73.376,34.692L73.548,34.692L73.634,34.692L73.724,34.692L73.807,34.692L73.891,34.692L74.064,34.692L74.15,34.692L74.24,34.692L74.322,34.692L74.408,34.692L74.58,34.692L74.665,34.692L74.755,34.692L74.837,34.692L74.923,34.692L75.095,34.692L75.181,34.692L75.271,34.692L75.353,34.692L75.439,34.692L75.611,34.692L75.697,34.692L75.788,34.692L75.87,34.692L75.954,34.692L76.128,34.692L76.213,34.692L76.303,34.692L76.385,34.692L76.47,34.692L76.643,34.692L76.729,34.692L76.819,34.692L76.901,34.692L76.986,34.692L77.159,34.692L77.245,34.692L77.335,34.692L77.417,34.692L77.502,34.692L77.675,34.692L77.76,34.692L77.851,34.692L77.933,34.692L78.018,34.692L78.19,34.692L78.276,34.692L78.366,34.692L78.448,34.692L78.533,34.692L78.706,34.692L78.791,34.692L78.881,34.692L78.964,34.692L79.049,34.692L79.222,34.692L79.308,34.692L79.399,34.692L79.48,34.692L79.566,34.692L79.737,34.692L79.824,34.692L79.914,34.692L79.996,34.692L80.081,34.692L80.254,34.692L80.339,34.692L80.43,34.692L80.512,34.692L80.597,34.692L80.769,34.692L80.855,34.692L80.946,34.692L81.027,34.692L81.112,34.692L81.285,34.692L81.371,34.692L81.462,34.692L81.544,34.692L81.628,34.692L81.8,34.692L81.886,34.692L81.976,34.692L82.059,34.692L82.144,34.692L82.316,34.692L82.402,34.692L82.492,34.692L82.574,34.692L82.66,34.692L82.833,34.692L82.918,34.692L83.009,34.692L83.091,34.692L83.175,34.692L83.348,34.692L83.434,34.692L83.525,34.692L83.607,34.692L83.692,34.692L83.864,34.692L83.95,46.231L84.041,46.231L84.122,46.231L84.207,46.231L84.379,46.231L84.465,46.231L84.556,46.231L84.639,46.231L84.723,46.231L84.895,46.231L84.981,46.231L85.072,48.538L85.153,48.538L85.239,48.538L85.411,48.538L85.497,48.538L85.587,48.538L85.669,48.538L85.754,48.538L85.926,48.538L86.013,48.538L86.103,48.538L86.185,48.538L86.27,48.538L86.443,48.538L86.529,48.538L86.62,48.538L86.701,48.538L86.786,48.538L86.958,48.538L87.045,48.538L87.135,48.538L87.217,48.538L87.301,48.538L87.474,48.538L87.56,48.538L87.651,48.538L87.733,48.538L87.817,48.538L87.989,48.538L88.076,48.538L88.166,48.538L88.249,48.538L88.333,48.538L88.506,48.538L88.592,48.538L88.682,48.538L88.764,48.538L88.849,48.538L89.021,48.538L89.107,48.538L89.198,48.538L89.28,48.538L89.365,48.538L89.537,48.538L89.623,48.538L89.713,48.538L89.795,48.538L89.88,48.538L90.053,48.538L90.139,48.538L90.23,48.538L90.311,48.538L90.396,48.538L90.569,48.538L90.655,48.538L90.745,48.538L90.912,48.538L91.085,48.538L91.171,48.538L91.262,48.538L91.343,48.538L91.428,48.538L91.601,48.538L91.687,48.538L91.777,48.538L91.859,48.538L91.944,48.538L92.116,48.538L92.202,48.538L92.293,48.538L92.374,48.538L92.46,48.538L92.632,48.538L92.718,48.538L92.808,48.538L92.89,48.538L92.975,48.538L93.147,48.538L93.233,48.538L93.324,48.538L93.406,48.538L93.491,48.538L93.663,48.538L93.75,48.538L93.841,48.538L93.922,48.538L94.007,48.538L94.179,48.538L94.265,48.538L94.356,48.538L94.438,48.538L94.523,48.538L94.695,48.538L94.781,48.538L94.872,48.538L94.954,48.538L95.038,48.538L95.211,48.538L95.297,48.538L95.388,48.538L95.469,48.538L95.554,48.538L95.727,48.538L95.812,48.538L95.903,48.538L95.985,48.538L96.07,48.538L96.242,48.538L96.328,48.538L96.418,48.538L96.501,48.538L96.586,48.538L96.758,48.538L96.843,48.538L96.934,48.538L97.016,48.538L97.102,48.538L97.274,48.538L97.36,48.538L97.45,48.538L97.533,48.538L97.617,48.538L97.789,48.538L97.876,48.538L97.967,48.538L98.048,48.538L98.133,48.538L98.306,48.538L98.392,48.538L98.483,48.538L98.564,48.538L98.649,48.538L98.821,48.538L98.907,48.538L98.998,48.538L99.079,48.538L99.164,48.538L99.337,48.538L99.423,48.538L99.514,48.538L99.595,48.538L99.681,48.538L99.852,48.538L99.938,48.538L100.028,48.538L100.111,48.538L100.196,48.538L100.369,48.538L100.455,48.538L100.55,48.538L100.631,48.538L100.712,48.538L100.885,48.538L100.97,48.538L101.062,48.538L101.143,48.538L101.228,48.538L101.4,48.538L101.486,48.538L101.576,48.538L101.659,48.538L101.743,48.538L101.916,48.538L102.002,48.538L102.093,48.538L102.175,48.538L102.259,48.538L102.432,48.538L102.518,48.538L102.609,48.538L102.69,48.538L102.775,48.538L102.948,48.538L103.033,48.538L103.124,48.538L103.206,48.538L103.291,48.538L103.463,48.538L103.549,48.538L103.639,48.538L103.721,48.538L103.807,48.538L103.979,48.538L104.064,48.538L104.155,48.538L104.238,48.538L104.322,48.538L104.495,48.538L104.582,48.538L104.672,48.538L104.754,48.538L104.838,48.538L105.01,48.538L105.097,48.538L105.188,48.538L105.269,48.538L105.354,48.538L105.526,27L105.613,27L105.704,27L105.785,27L105.87,27L106.043,27L106.129,27L106.219,27L106.301,27L106.386,27L106.558,27L106.644,27L106.735,27L106.817,27L106.901,27L107.074,27L107.159,27L107.251,27L107.332,27L107.417,27L107.589,27L107.675,27L107.765,27L107.848,27L107.932,27L108.105,27L108.191,27L108.283,27L108.364,27L108.449,27L108.621,27L108.707,27L108.798,27L108.88,27L108.964,27L109.136,27L109.222,27L109.314,27L109.395,27L109.48,27L109.652,27L109.739,27L109.83,27L109.911,27L109.996,27L110.169,27L110.255,27L110.345,27L110.427,27L110.511,27L110.684,27L110.77,27L110.86,27L110.942,27L111.027,27L111.201,27L111.286,27L111.376,27L111.458,27L111.544,27L111.716,27L111.802,27L111.893,27L111.974,27L112.059,27L112.232,27L112.318,27L112.409,27L112.49,27L112.575,27L112.748,27L112.833,27L112.925,27L113.006,27L113.091,27L113.263,27L113.349,27L113.44,27L113.522,27L113.606,27L113.779,27L113.865,27L113.956,27L114.037,27L114.122,27L114.295,27L114.38,27L114.471,27L114.554,27L114.638,27L114.81,27L114.896,27L114.987,27L115.068,27L115.154,27L115.326,27L115.413,27L115.504,27L115.585,27L115.67,27L115.842,27L115.928,27L116.019,27L116.101,27L116.185,27L116.358,27L116.444,27L116.535,27L116.617,27L116.701,27L116.873,27L116.96,27L117.051,27L117.132,27L117.217,27L117.389,27L117.475,27L117.566,27L117.648,27L117.732,27L117.905,27L117.991,27L118.081,27L118.164,27L118.249,27L118.421,27L118.506,27L118.598,27L118.679,27L118.764,27L118.937,27L119.023,27L119.114,27L119.195,27L119.28,27L119.453,27L119.539,27L119.63,27L119.711,27L119.796,27L119.968,27L120.055,27L120.144,27L120.227,27L120.312,27L120.484,27L120.57,27L120.661,27L120.744,27L120.827,27L121,27L121.086,27L121.177,27L121.258,27L121.343,27L121.516,27L121.601,27L121.692,27L121.774,27L121.859,27L122.031,27L122.117,27L122.208,27L122.289,27L122.375,27L122.548,27L122.634,27L122.725,27L122.806,27L122.89,27L123.063,27L123.149,27L123.24,27L123.321,27L123.406,27L123.579,27L123.665,27L123.757,27L123.838,27L123.922,27L124.095,27L124.181,27L124.272,27L124.353,27L124.438,27L124.611,27L124.697,27L124.788,27L124.869,27L124.954,27L125.126,27L125.212,27L125.303,27L125.385,27L125.469,27L125.642,27L125.728,27L125.82,27L125.9,27L125.985,27L126.158,27L126.244,27L126.336,27L126.417,27L126.501,27L126.673,27L126.76,27L126.851,27L126.933,27L127.017,27L127.19,27L127.276,27L127.367,27L127.448,27L127.533,27L127.705,27L127.792,27L127.883,27L127.964,27L128.048,27L128.221,27L128.307,27L128.398,27L128.48,27L128.564,27L128.737,27L128.822,27L128.913,27L128.995,27L129.079,27L129.252,27L129.338,27L129.429,27L129.511,27L129.596,27L129.768,27L129.855,27L129.946,27L130.027,27L130.111,27L130.284,27L130.37,27L130.462,27L130.543,27L130.627,27L130.801,27L130.887,27L130.978,27L131.059,27L131.143,27L131.316,27L131.402,27L131.493,27L131.575,27L131.659,27L131.832,27L131.918,27L132.009,27L132.09,27L132.175,27L132.347,46.231L132.433,46.231L132.524,46.231L132.605,46.231L132.69,46.231L132.863,46.231L132.949,46.231L133.04,46.231L133.122,46.231L133.206,46.231L133.38,46.231L133.466,46.231L133.557,46.231L133.638,46.231L133.722,46.231L133.893,46.231L133.981,46.231L134.073,46.231L134.153,46.231L134.238,46.231L134.411,46.231L134.497,46.231L134.588,46.231L134.669,46.231L134.754,46.231L134.927,53.923L135.013,53.923L135.104,53.923L135.185,53.923L135.269,53.923L135.442,53.923L135.528,53.923L135.62,53.923L135.701,53.923L135.785,53.923L135.958,53.923L136.043,53.923L136.134,53.923L136.216,53.923L136.3,53.923L136.474,53.923L136.559,53.923L136.651,53.923L136.732,53.923L136.816,53.923L136.989,53.923L137.076,53.923L137.168,53.923L137.248,53.923L137.333,53.923L137.505,53.923L137.592,53.923L137.684,53.923L137.764,53.923L137.848,53.923L138.021,53.923L138.108,53.923L138.2,53.923L138.281,53.923L138.364,53.923L138.537,23.154L138.624,23.154L138.715,23.154L138.796,23.154L138.88,23.154L139.053,23.154L139.139,23.154L139.231,23.154L139.311,23.154L139.568,23.154L139.654,23.154L139.745,23.154L139.826,23.154L139.911,23.154L140.084,23.154L140.17,23.154L140.261,23.154L140.342,23.154L140.427,23.154L140.6,23.154L140.687,23.154L140.779,23.154L140.86,23.154L140.943,23.154L141.116,23.154L141.203,23.154L141.294,23.154L141.375,23.154L141.459,23.154L141.632,23.154L141.718,23.154L141.81,23.154L141.891,23.154L141.975,23.154L142.148,23.154L142.234,23.154L142.326,23.154L142.406,23.154L142.49,23.154L142.663,23.154L142.749,23.154L142.841,23.154L142.922,23.154L143.006,23.154L143.179,23.154L143.265,23.154L143.356,23.154L143.437,23.154L143.521,23.154L143.694,23.154L143.78,23.154L143.872,23.154L143.953,23.154L144.037,23.154L144.211,23.154L144.297,23.154L144.389,23.154L144.47,23.154L144.554,23.154L144.726,23.154L144.813,23.154L144.904,23.154L144.985,23.154L145.069,23.154L145.242,23.154L145.329,23.154L145.42,23.154L145.501,23.154L145.585,23.154L145.758,23.154L145.844,23.154L145.936,23.154L146.016,23.154L146.101,23.154L146.274,23.154L146.36,23.154L146.451,23.154L146.532,23.154L146.617,23.154L146.79,23.154L146.875,23.154L146.966,23.154L147.048,23.154L147.132,23.154L147.305,23.154L147.391,23.154L147.483,23.154L147.563,23.154L147.648,23.154L147.821,23.154L147.908,23.154L147.999,23.154L148.08,23.154L148.164,23.154L148.337,23.154L148.423,23.154L148.515,23.154L148.596,23.154L148.68,23.154L148.853,23.154L148.939,23.154L149.031,23.154L149.111,23.154L149.195,23.154L149.369,23.154L149.455,23.154L149.546,23.154L149.628,23.154L149.711,23.154L149.884,23.154L149.971,23.154L150.062,23.154L150.143,23.154L150.227,23.154L150.4,23.154L150.486,23.154L150.577,23.154L150.658,23.154L150.743,23.154L150.916,23.154L151.002,23.154L151.093,23.154L151.173,23.154L151.258,23.154L151.431,23.154L151.518,23.154L151.61,23.154L151.691,23.154L151.774,23.154L151.948,23.154L152.034,23.154L152.125,23.154L152.206,23.154L152.29,23.154L152.463,23.154L152.549,23.154L152.641,23.154L152.722,23.154L152.807,23.154L152.979,23.154L153.065,23.154L153.157,23.154L153.238,23.154L153.322,23.154L153.495,23.154L153.581,23.154L153.673,23.154L153.753,23.154L153.837,23.154L154.01,23.154L154.096,23.154L154.187,23.154L154.268,23.154L154.353,23.154L154.526,23.154L154.612,23.154L154.703,23.154L154.784,23.154L154.87,23.154L155.042,23.154L155.129,23.154L155.22,23.154L155.302,23.154L155.385,23.154L155.558,23.154L155.644,23.154L155.736,23.154L155.817,23.154L155.901,23.154L156.074,23.154L156.161,23.154L156.252,23.154L156.333,23.154L156.416,23.154L156.767,23.154L156.848,23.154L156.932,23.154L157.105,23.154L157.191,23.154L157.282,23.154L157.363,23.154L157.448,23.154L157.621,23.154L157.706,23.154L157.798,23.154L157.879,23.154L157.963,23.154L158.136,23.154L158.222,23.154L158.313,23.154L158.394,23.154L158.479,23.154L158.652,23.154L158.739,23.154L158.831,23.154L158.911,23.154L158.995,23.154L159.168,23.154L159.254,23.154L159.345,23.154L159.426,23.154L159.511,23.154L159.684,23.154L159.77,23.154L159.862,23.154L159.942,23.154L160.026,23.154L160.199,58.538L160.286,58.538L160.377,58.538L160.458,58.538L160.542,58.538L160.715,58.538L160.801,58.538L160.893,58.538L160.974,58.538L161.058,58.538L161.231,58.538L161.316,58.538L161.407,58.538L161.489,58.538L161.573,58.538L161.746,58.538L161.832,58.538L161.923,58.538L162.004,58.538L162.089,58.538L162.262,58.538L162.349,58.538L162.44,58.538L162.521,58.538L162.605,58.538L162.778,58.538L162.865,58.538L162.957,58.538L163.037,58.538L163.121,58.538L163.294,58.538L163.381,58.538L163.472,58.538L163.553,58.538L163.637,58.538L163.81,23.154L163.897,23.154L163.988,23.154L164.069,23.154L164.153,23.154L164.327,23.154L164.412,23.154L164.504,23.154L164.585,23.154L164.669,23.154L164.842,23.154L164.928,23.154L165.019,23.154L165.1,23.154L165.184,23.154L165.357,23.154L165.443,23.154L165.535,23.154L165.615,23.154L165.7,23.154L165.874,23.154L165.96,23.154L166.052,23.154L166.133,23.154L166.217,23.154L166.389,23.154L166.476,23.154L166.568,23.154L166.648,23.154L166.732,23.154L166.905,23.154L166.992,23.154L167.084,23.154L167.164,23.154L167.248,23.154L167.421,23.154L167.507,23.154L167.599,23.154L167.68,23.154L167.764,23.154L167.937,23.154L168.023,23.154L168.115,23.154L168.196,23.154L168.28,23.154L168.452,23.154L168.538,23.154L168.63,23.154L168.711,23.154L168.795,23.154L168.968,23.154L169.054,23.154L169.145,23.154L169.226,23.154L169.31,23.154L169.484,23.154L169.571,23.154L169.663,23.154L169.743,23.154L169.827,23.154L170,23.154L170.087,23.154L170.179,23.154L170.259,23.154L170.343,23.154L170.516,23.154L170.603,23.154L170.694,23.154L170.775,23.154L170.859,23.154L171.032,23.154L171.118,23.154L171.21,23.154L171.29,23.154L171.374,23.154L171.547,23.154L171.634,23.154L171.726,23.154L171.806,23.154L171.89,23.154L172.063,23.154L172.148,23.154L172.24,23.154L172.321,23.154L172.405,23.154L172.579,23.154L172.664,23.154L172.756,23.154L172.837,23.154L172.921,23.154L173.095,23.154L173.182,23.154L173.274,23.154L173.354,23.154L173.437,23.154L173.61,23.154L173.697,23.154L173.789,23.154L173.87,23.154L173.953,23.154L174.126,23.154L174.213,23.154L174.305,23.154L174.386,23.154L174.469,23.154L174.642,23.154L174.729,23.154L174.821,23.154L174.901,23.154L174.985,23.154L175.158,23.154L175.244,23.154L175.336,23.154L175.416,23.154L175.5,23.154L175.673,23.154L175.759,23.154L175.851,23.154L175.931,23.154L176.016,23.154L176.189,23.154L176.275,23.154L176.367,23.154L176.447,23.154L176.532,23.154L176.705,23.154L176.792,23.154L176.884,23.154L176.964,23.154L177.048,23.154L177.221,23.154L177.308,23.154L177.4,23.154L177.48,23.154L177.564,23.154L177.737,23.154L177.824,23.154L177.916,23.154L177.996,23.154L178.079,23.154L178.253,23.154L178.339,23.154L178.431,23.154L178.512,23.154L178.595,23.154L178.768,23.154L178.855,23.154L178.947,23.154L179.027,23.154L179.111,23.154L179.283,23.154L179.37,23.154L179.461,23.154L179.541,23.154L179.626,23.154L179.799,23.154L179.885,23.154L179.977,23.154L180.057,23.154L180.142,23.154L180.316,23.154L180.402,23.154L180.495,23.154L180.575,23.154L180.658,23.154L180.831,23.154L180.918,23.154L181.01,23.154L181.091,23.154L181.174,23.154L181.346,23.154L181.434,23.154L181.525,23.154L181.606,23.154L181.69,23.154L181.862,23.154L181.949,23.154L182.041,23.154L182.121,23.154L182.205,23.154L182.378,23.154L182.464,23.154L182.555,23.154L182.636,23.154L182.72,23.154L182.893,23.154L182.979,23.154L183.07,23.154L183.151,23.154L183.236,23.154L183.409,23.154L183.495,23.154L183.586,23.154L183.667,23.154L183.751,23.154L183.925,23.154L184.011,23.154L184.103,23.154L184.183,23.154L184.268,23.154L184.441,23.154L184.527,23.154L184.618,23.154L184.699,23.154L184.783,23.154L184.957,23.154L185.043,23.154L185.134,23.154L185.215,23.154L185.299,23.154L185.472,23.154L185.558,23.154L185.65,23.154L185.73,23.154L185.815,23.154L185.988,23.154L186.074,23.154L186.166,23.154L186.246,23.154L186.331,23.154L186.504,23.154L186.589,23.154L186.681,23.154L186.761,23.154L186.846,23.154L187.019,23.154L187.105,23.154L187.196,23.154L187.277,23.154L187.362,23.154L187.535,23.154L187.622,23.154L187.713,23.154L187.794,23.154L187.878,23.154L188.051,23.154L188.137,23.154L188.229,23.154L188.31,23.154L188.394,23.154L188.567,23.154L188.653,23.154L188.744,23.154L188.825,23.154L188.909,23.154L189.083,23.154L189.169,23.154L189.26,23.154L189.341,23.154L189.426,23.154L189.598,23.154L189.685,23.154L189.776,23.154L189.857,23.154L189.941,23.154L190.114,23.154L190.2,23.154L190.291,23.154L190.372,23.154L190.457,23.154L190.63,23.154L190.716,23.154L190.807,23.154L190.888,23.154L190.972,23.154L191.146,23.154L191.232,23.154L191.324,23.154L191.405,23.154L191.489,23.154L191.661,23.154L191.748,23.154L191.84,23.154L191.924,23.154L192.004,23.154L192.177,23.154L192.264,23.154L192.356,23.154L192.436,23.154L192.52,23.154L192.693,23.154L192.779,23.154L192.871,23.154L192.952,23.154L193.036,23.154L193.209,23.154L193.295,23.154L193.387,23.154L193.468,23.154L193.552,23.154L193.724,23.154L193.81,23.154L193.902,23.154L193.982,23.154L194.067,23.154L194.24,23.154L194.326,23.154L194.417,23.154L194.498,23.154L194.583,23.154L194.756,23.154L194.843,23.154L194.935,23.154L195.016,23.154L195.099,23.154L195.271,23.154L195.358,23.154L195.449,23.154L195.53,23.154L195.615,23.154L195.787,23.154L195.874,23.154L195.965,23.154L196.046,23.154L196.13,23.154L196.303,23.154L196.389,23.154L196.481,23.154L196.646,23.154L196.819,23.154L196.905,23.154L196.997,23.154L197.077,23.154L197.42,23.154L197.511,23.154L197.592,23.154L197.678,23.154L197.85,23.154L197.936,23.154L198.027,23.154L198.108,23.154L198.193,23.154L198.366,23.154L198.453,23.154L198.544,23.154L198.625,23.154L198.709,23.154L198.882,23.154L198.968,23.154L199.06,23.154L199.141,23.154L199.225,23.154L199.398,23.154L199.485,23.154L199.576,23.154L199.657,23.154L199.74,23.154L199.914,23.154L200,23.154" stroke="#4c78a8" stroke-width="2"/></g></g><path class="foreground" aria-hidden="true" d="" display="none"/></g><g transform="translate(0,0)"><path class="background" aria-hidden="true" d="M0,0h200v200h-200Z"/><g><g class="mark-line role-mark marks" role="graphics-object" aria-roledescription="line mark container"><path aria-label="Time: Jan 01, 2024; Price: 2499; identifier: altex-LG-F2WR508SBM" role="graphics-symbol" aria-roledescription="line mark" d="M0,7.769L0.054,7.769L0.136,7.769L0.308,7.769L0.394,7.769L0.484,7.769L0.566,7.769L0.651,7.769L0.823,7.769L0.909,7.769L1,7.769L1.082,7.769L1.167,7.769L1.339,7.769L1.425,7.769L1.516,7.769L1.598,7.769L1.683,7.769L1.855,27L1.941,27L2.031,27L2.114,27L2.199,27L2.371,27L2.457,27L2.547,27L2.629,27L2.714,27L2.887,27L2.972,27L3.062,27L3.145,27L3.23,27L3.403,27L3.489,27L3.579,27L3.662,27L3.746,27L3.919,27L4.004,27L4.096,27L4.177,27L4.262,27L4.434,27L4.52,27L4.611,27L4.693,27L4.778,27L4.95,27L5.036,27L5.127,27L5.209,27L5.293,27L5.466,27L5.552,27L5.642,27L5.724,27L5.809,27L5.981,38.538L6.067,38.538L6.157,38.538L6.24,38.538L6.325,38.538L6.497,38.538L6.583,38.538L6.673,38.538L6.755,38.538L6.841,38.538L7.013,38.538L7.099,38.538L7.19,38.538L7.272,38.538L7.356,38.538L7.529,38.538L7.615,38.538L7.706,38.538L7.788,38.538L7.872,38.538L8.045,38.538L8.131,38.538L8.221,38.538L8.304,38.538L8.388,38.538L8.56,38.538L8.646,38.538L8.737,38.538L8.819,38.538L8.904,38.538L9.076,38.538L9.162,38.538L9.253,38.538L9.335,38.538L9.42,38.538L9.592,38.538L9.677,38.538L9.768,38.538L9.851,38.538L9.935,38.538L10.107,38.538L10.193,38.538L10.283,38.538L10.366,38.538L10.451,38.538L10.624,38.538L10.71,38.538L10.801,38.538L10.882,38.538L10.967,38.538L11.139,38.538L11.226,38.538L11.316,38.538L11.399,38.538L11.483,38.538L11.655,38.538L11.741,38.538L11.832,38.538L11.914,38.538L11.999,38.538L12.171,38.538L12.257,38.538L12.348,38.538L12.43,38.538L12.514,38.538L12.686,38.538L12.773,38.538L12.862,38.538L12.944,38.538L13.03,38.538L13.202,38.538L13.288,38.538L13.376,38.538L13.46,38.538L13.546,38.538L13.718,38.538L13.804,38.538L13.892,38.538L13.976,38.538L14.062,38.538L14.234,38.538L14.32,38.538L14.409,38.538L14.492,38.538L14.577,38.538L14.749,38.538L14.835,38.538L14.925,38.538L15.008,38.538L15.093,38.538L15.265,38.538L15.351,38.538L15.441,38.538L15.523,38.538L15.609,38.538L15.781,27L15.867,27L15.956,27L16.039,27L16.125,27L16.297,27L16.383,27L16.472,27L16.554,27L16.64,27L16.812,27L16.898,27L16.987,27L17.07,27L17.156,27L17.329,27L17.414,27L17.503,27L17.586,27L17.672,27L17.844,27L17.93,27L18.02,27L18.102,27L18.188,27L18.36,27L18.446,27L18.535,27L18.618,27L18.704,27L18.875,27L18.962,27L19.051,27L19.134,27L19.219,27L19.391,27L19.477,27L19.567,27L19.649,27L19.735,27L19.907,27L19.993,27L20.082,27L20.165,27L20.251,27L20.423,27L20.509,27L20.598,27L20.681,27L20.767,27L20.939,27L21.025,27L21.113,27L21.196,27L21.282,27L21.454,27L21.54,27L21.63,27L21.712,27L21.798,27L21.97,27L22.056,27L22.145,27L22.229,27L22.314,27L22.486,27L22.572,27L22.661,27L22.744,27L22.83,27L23.088,27L23.177,27L23.26,27L23.346,27L23.518,27L23.603,27L23.693,27L23.776,27L23.861,27L24.033,27L24.119,27L24.208,27L24.291,27L24.377,27L24.549,27L24.635,27L24.724,27L24.807,27L24.893,27L25.065,27L25.151,27L25.241,27L25.324,27L25.409,27L25.581,27L25.667,27L25.756,27L25.839,27L25.925,27L26.096,27L26.182,27L26.272,27L26.355,27L26.44,27L26.612,27L26.698,27L26.787,27L26.87,27L26.956,27L27.128,27L27.214,27L27.303,27L27.386,27L27.472,27L27.644,27L27.73,27L27.818,27L27.901,27L27.987,27L28.159,27L28.246,27L28.334,27L28.418,27L28.503,27L28.675,27L28.761,27L28.851,27L28.933,27L29.019,27L29.191,27L29.277,27L29.366,27L29.449,27L29.535,27L29.707,27L29.793,27L29.882,27L29.965,27L30.051,27L30.223,27L30.308,27L30.397,27L30.48,27L30.566,27L30.738,27L30.825,27L30.914,27L30.996,27L31.082,27L31.254,27L31.34,27L31.429,27L31.512,27L31.598,27L31.77,27L31.856,27L31.944,27L32.028,27L32.114,27L32.293,27L32.411,27L32.462,27L32.544,27L32.63,27L32.801,27L32.887,27L32.977,27L33.059,27L33.145,27L33.317,27L33.404,27L33.493,27L33.576,27L33.661,27L33.833,27L33.919,27L34.008,38.538L34.091,38.538L34.177,38.538L34.349,38.538L34.436,38.538L34.524,38.538L34.606,38.538L34.692,38.538L34.865,38.538L34.95,38.538L35.039,38.538L35.123,38.538L35.208,38.538L35.38,38.538L35.467,38.538L35.555,38.538L35.638,38.538L35.724,38.538L35.896,38.538L35.982,38.538L36.072,38.538L36.155,38.538L36.24,38.538L36.412,38.538L36.498,38.538L36.587,38.538L36.67,38.538L36.756,38.538L36.928,38.538L37.014,38.538L37.103,38.538L37.186,38.538L37.271,38.538L37.443,38.538L37.529,38.538L37.619,38.538L37.702,38.538L37.787,38.538L37.959,38.538L38.046,38.538L38.134,38.538L38.217,38.538L38.303,38.538L38.475,38.538L38.561,38.538L38.65,38.538L38.733,38.538L38.819,38.538L38.991,38.538L39.077,38.538L39.166,38.538L39.248,38.538L39.335,38.538L39.506,38.538L39.592,38.538L39.683,38.538L39.765,38.538L39.851,38.538L40.022,38.538L40.108,38.538L40.198,38.538L40.281,38.538L40.366,38.538L40.538,38.538L40.624,38.538L40.713,38.538L40.797,38.538L40.882,38.538L41.054,38.538L41.14,38.538L41.23,38.538L41.313,38.538L41.398,38.538L41.57,38.538L41.655,38.538L41.745,38.538L41.828,38.538L41.913,38.538L42.085,38.538L42.171,38.538L42.26,38.538L42.343,38.538L42.429,38.538L42.601,38.538L42.687,38.538L42.777,38.538L42.859,38.538L42.945,38.538L43.117,38.538L43.203,38.538L43.292,38.538L43.375,38.538L43.461,38.538L43.633,38.538L43.719,38.538L43.808,38.538L43.891,38.538L43.976,38.538L44.149,38.538L44.235,38.538L44.324,38.538L44.407,38.538L44.492,38.538L44.664,38.538L44.75,38.538L44.84,38.538L44.923,38.538L45.008,38.538L45.18,38.538L45.266,38.538L45.356,38.538L45.438,38.538L45.524,38.538L45.696,38.538L45.782,38.538L45.87,38.538L45.954,38.538L46.04,38.538L46.212,38.538L46.298,38.538L46.387,38.538L46.47,38.538L46.555,38.538L46.727,38.538L46.814,38.538L46.904,38.538L46.986,38.538L47.071,38.538L47.243,38.538L47.329,38.538L47.419,38.538L47.502,38.538L47.587,38.538L47.759,38.538L47.845,38.538L47.934,38.538L48.018,38.538L48.103,38.538L48.275,38.538L48.361,38.538L48.45,38.538L48.533,38.538L48.619,38.538L48.791,38.538L48.966,38.538L49.049,38.538L49.135,38.538L49.306,38.538L49.392,38.538L49.481,38.538L49.564,38.538L49.65,38.538L49.822,38.538L49.908,38.538L49.997,38.538L50.08,38.538L50.166,38.538L50.338,38.538L50.424,38.538L50.514,38.538L50.596,38.538L50.682,38.538L50.854,38.538L50.939,38.538L51.029,38.538L51.112,38.538L51.197,38.538L51.369,38.538L51.456,38.538L51.545,38.538L51.628,38.538L51.714,38.538L51.885,38.538L51.972,38.538L52.061,38.538L52.229,38.538L52.401,38.538L52.487,38.538L52.576,38.538L52.659,38.538L52.745,38.538L52.917,38.538L53.002,38.538L53.09,38.538L53.174,38.538L53.26,38.538L53.44,38.538L53.572,38.538L53.653,38.538L53.82,38.538L53.949,38.538L54.034,38.538L54.123,38.538L54.206,38.538L54.292,38.538L54.464,38.538L54.55,38.538L54.64,38.538L54.722,38.538L54.808,38.538L54.98,38.538L55.066,38.538L55.156,38.538L55.239,38.538L55.324,38.538L55.582,38.538L55.671,38.538L55.754,38.538L55.84,38.538L56.011,38.538L56.097,38.538L56.187,38.538L56.27,38.538L56.355,38.538L56.527,38.538L56.613,38.538L56.702,38.538L56.785,38.538L56.871,38.538L57.043,38.538L57.129,38.538L57.218,38.538L57.301,38.538L57.387,38.538L57.558,38.538L57.645,38.538L57.735,38.538L57.817,38.538L57.902,38.538L58.074,38.538L58.16,38.538L58.251,38.538L58.333,38.538L58.418,38.538L58.59,38.538L58.677,38.538L58.769,38.538L58.848,38.538L58.934,38.538L59.106,38.538L59.192,38.538L59.28,38.538L59.364,38.538L59.45,38.538L59.622,38.538L59.708,38.538L59.798,38.538L59.88,38.538L59.966,38.538L60.138,38.538L60.223,38.538L60.312,38.538L60.395,38.538L60.481,38.538L60.653,38.538L60.739,38.538L60.829,38.538L60.911,38.538L60.997,38.538L61.169,38.538L61.256,38.538L61.345,38.538L61.427,38.538L61.513,38.538L61.685,38.538L61.771,38.538L61.861,38.538L61.943,38.538L62.029,38.538L62.201,38.538L62.288,38.538L62.377,38.538L62.459,38.538L62.544,38.538L62.717,38.538L62.802,38.538L62.893,38.538L62.975,38.538L63.061,38.538L63.232,38.538L63.318,38.538L63.408,38.538L63.491,38.538L63.576,38.538L63.748,38.538L63.834,38.538L63.923,38.538L64.006,38.538L64.092,38.538L64.264,38.538L64.35,38.538L64.439,38.538L64.522,38.538L64.607,38.538L64.779,38.538L64.866,38.538L64.956,38.538L65.039,38.538L65.123,38.538L65.295,38.538L65.382,38.538L65.471,30.846L65.554,30.846L65.639,30.846L65.811,30.846L65.897,30.846L65.988,30.846L66.07,30.846L66.155,30.846L66.327,30.846L66.414,30.846L66.503,30.846L66.587,30.846L66.671,30.846L66.842,30.846L66.929,30.846L67.019,30.846L67.101,30.846L67.186,30.846L67.358,30.846L67.444,30.846L67.534,30.846L67.616,30.846L67.702,30.846L67.874,30.846L67.96,30.846L68.05,30.846L68.132,30.846L68.218,30.846L68.39,30.846L68.476,30.846L68.567,30.846L68.649,30.846L68.734,30.846L68.905,30.846L68.992,30.846L69.083,30.846L69.165,30.846L69.249,30.846L69.422,30.846L69.508,30.846L69.598,30.846L69.68,30.846L69.765,30.846L69.937,30.846L70.024,30.846L70.114,30.846L70.196,30.846L70.281,30.846L70.453,30.846L70.539,30.846L70.63,30.846L70.712,30.846L70.797,30.846L70.969,30.846L71.055,30.846L71.145,30.846L71.227,30.846L71.312,30.846L71.485,30.846L71.571,30.846L71.66,30.846L71.743,30.846L71.829,30.846L72.001,30.846L72.087,30.846L72.177,30.846L72.259,30.846L72.344,30.846L72.516,30.846L72.602,30.846L72.693,30.846L72.775,30.846L72.86,30.846L73.032,30.846L73.118,30.846L73.209,38.538L73.291,38.538L73.376,38.538L73.548,38.538L73.634,38.538L73.724,38.538L73.807,38.538L73.891,38.538L74.064,38.538L74.15,38.538L74.24,38.538L74.322,38.538L74.408,38.538L74.58,38.538L74.665,38.538L74.755,38.538L74.837,38.538L74.923,38.538L75.095,38.538L75.181,38.538L75.271,38.538L75.353,38.538L75.439,38.538L75.611,38.538L75.697,38.538L75.788,38.538L75.87,38.538L75.954,38.538L76.128,38.538L76.213,38.538L76.303,38.538L76.385,38.538L76.47,38.538L76.643,38.538L76.729,38.538L76.819,38.538L76.901,38.538L76.986,38.538L77.159,38.538L77.245,38.538L77.335,38.538L77.417,38.538L77.502,38.538L77.675,30.846L77.76,30.846L77.851,30.846L77.933,30.846L78.018,30.846L78.19,30.846L78.276,30.846L78.366,30.846L78.448,30.846L78.533,30.846L78.706,30.846L78.791,30.846L78.881,30.846L78.964,30.846L79.049,30.846L79.222,30.846L79.308,30.846L79.399,30.846L79.48,30.846L79.566,30.846L79.737,30.846L79.824,30.846L79.914,30.846L79.996,30.846L80.081,30.846L80.254,30.846L80.339,30.846L80.43,30.846L80.512,30.846L80.597,30.846L80.769,30.846L80.855,30.846L80.946,30.846L81.027,30.846L81.112,30.846L81.285,30.846L81.371,30.846L81.462,30.846L81.544,30.846L81.628,30.846L81.8,30.846L81.886,30.846L81.976,30.846L82.059,30.846L82.144,30.846L82.316,30.846L82.402,30.846L82.492,30.846L82.574,30.846L82.66,30.846L82.833,30.846L82.919,30.846L83.009,30.846L83.091,30.846L83.175,30.846L83.348,30.846L83.434,30.846L83.525,30.846L83.607,30.846L83.692,30.846L83.864,30.846L83.95,34.692L84.041,34.692L84.122,34.692L84.207,34.692L84.379,34.692L84.465,34.692L84.556,34.692L84.639,34.692L84.723,34.692L84.895,34.692L84.981,34.692L85.072,40.077L85.153,40.077L85.239,40.077L85.411,40.077L85.497,40.077L85.587,40.077L85.669,40.077L85.754,40.077L85.926,40.077L86.013,40.077L86.103,40.077L86.185,40.077L86.27,40.077L86.443,40.077L86.529,40.077L86.62,40.077L86.701,40.077L86.786,40.077L86.958,40.077L87.045,40.077L87.135,40.077L87.217,40.077L87.302,40.077L87.474,40.077L87.56,40.077L87.651,40.077L87.733,40.077L87.817,40.077L87.989,40.077L88.076,40.077L88.166,40.077L88.249,40.077L88.333,40.077L88.506,40.077L88.592,40.077L88.682,40.077L88.764,40.077L88.849,40.077L89.021,40.077L89.107,40.077L89.198,40.077L89.28,40.077L89.365,40.077L89.537,40.077L89.623,40.077L89.713,40.077L89.795,40.077L89.88,40.077L90.053,40.077L90.139,40.077L90.23,40.077L90.311,40.077L90.396,40.077L90.569,40.077L90.655,40.077L90.746,40.077L90.912,40.077L91.085,40.077L91.171,40.077L91.262,40.077L91.343,40.077L91.428,40.077L91.601,40.077L91.687,40.077L91.777,40.077L91.859,40.077L91.944,40.077L92.116,40.077L92.202,40.077L92.293,40.077L92.374,40.077L92.46,40.077L92.632,40.077L92.718,40.077L92.808,40.077L92.89,40.077L92.975,40.077L93.147,40.077L93.233,40.077L93.324,40.077L93.406,40.077L93.491,40.077L93.663,40.077L93.75,40.077L93.841,40.077L93.923,40.077L94.007,40.077L94.179,40.077L94.265,40.077L94.356,40.077L94.438,40.077L94.523,40.077L94.695,40.077L94.781,40.077L94.872,40.077L94.954,40.077L95.038,40.077L95.211,40.077L95.297,40.077L95.388,40.077L95.469,40.077L95.554,40.077L95.727,40.077L95.812,40.077L95.903,40.077L95.985,40.077L96.07,40.077L96.242,40.077L96.328,40.077L96.418,40.077L96.501,40.077L96.586,40.077L96.758,40.077L96.844,40.077L96.934,40.077L97.016,40.077L97.102,40.077L97.274,40.077L97.36,40.077L97.45,40.077L97.533,40.077L97.617,40.077L97.789,40.077L97.876,40.077L97.967,40.077L98.048,40.077L98.133,40.077L98.306,40.077L98.392,40.077L98.483,40.077L98.564,40.077L98.649,40.077L98.821,40.077L98.907,40.077L98.998,40.077L99.08,40.077L99.164,40.077L99.337,40.077L99.423,40.077L99.514,40.077L99.595,40.077L99.681,40.077L99.852,40.077L99.938,40.077L100.029,40.077L100.111,40.077L100.196,40.077L100.369,40.077L100.455,40.077L100.55,40.077L100.631,40.077L100.712,40.077L100.885,40.077L100.971,40.077L101.062,40.077L101.144,40.077L101.228,40.077L101.4,40.077L101.486,40.077L101.576,40.077L101.659,40.077L101.743,40.077L101.916,40.077L102.002,40.077L102.093,40.077L102.175,40.077L102.259,40.077L102.432,40.077L102.518,40.077L102.609,40.077L102.69,40.077L102.775,40.077L102.948,40.077L103.034,40.077L103.124,40.077L103.206,40.077L103.291,40.077L103.463,40.077L103.549,40.077L103.639,40.077L103.721,40.077L103.807,40.077L103.979,40.077L104.064,40.077L104.155,40.077L104.238,40.077L104.322,40.077L104.495,40.077L104.582,40.077L104.672,40.077L104.754,40.077L104.838,40.077L105.01,40.077L105.097,40.077L105.188,40.077L105.269,40.077L105.354,40.077L105.526,40.077L105.613,40.077L105.704,40.077L105.785,40.077L105.87,40.077L106.043,40.077L106.129,40.077L106.219,40.077L106.301,40.077L106.386,40.077L106.558,40.077L106.644,40.077L106.735,40.077L106.817,40.077L106.901,40.077L107.074,40.077L107.159,40.077L107.251,40.077L107.332,40.077L107.417,40.077L107.589,40.077L107.675,40.077L107.765,40.077L107.848,40.077L107.932,40.077L108.105,40.077L108.191,40.077L108.283,40.077L108.364,40.077L108.449,40.077L108.621,40.077L108.707,40.077L108.798,40.077L108.88,40.077L108.964,40.077L109.136,40.077L109.222,40.077L109.314,40.077L109.395,40.077L109.48,40.077L109.652,40.077L109.739,40.077L109.83,40.077L109.911,40.077L109.996,40.077L110.169,40.077L110.255,40.077L110.345,40.077L110.427,40.077L110.511,40.077L110.684,40.077L110.77,40.077L110.86,40.077L110.942,40.077L111.027,40.077L111.201,40.077L111.286,40.077L111.376,40.077L111.458,40.077L111.544,40.077L111.716,40.077L111.802,40.077L111.893,40.077L111.974,40.077L112.059,40.077L112.232,40.077L112.318,40.077L112.409,40.077L112.49,40.077L112.575,40.077L112.748,40.077L112.833,40.077L112.925,40.077L113.006,40.077L113.091,40.077L113.263,40.077L113.349,40.077L113.44,40.077L113.522,40.077L113.606,40.077L113.779,40.077L113.865,40.077L113.956,40.077L114.037,40.077L114.122,40.077L114.296,40.077L114.38,40.077L114.471,40.077L114.554,40.077L114.638,40.077L114.81,40.077L114.896,40.077L114.987,40.077L115.069,40.077L115.154,40.077L115.326,40.077L115.413,40.077L115.504,40.077L115.585,40.077L115.67,40.077L115.842,40.077L115.928,40.077L116.02,40.077L116.101,40.077L116.185,40.077L116.358,40.077L116.444,40.077L116.535,40.077L116.617,40.077L116.701,40.077L116.874,40.077L116.96,40.077L117.051,40.077L117.132,40.077L117.217,40.077L117.389,40.077L117.475,40.077L117.566,40.077L117.648,40.077L117.732,40.077L117.905,40.077L117.991,40.077L118.081,40.077L118.164,40.077L118.249,40.077L118.421,40.077L118.506,40.077L118.598,40.077L118.679,40.077L118.764,40.077L118.937,40.077L119.023,40.077L119.114,40.077L119.195,40.077L119.28,40.077L119.453,40.077L119.539,40.077L119.63,40.077L119.711,40.077L119.796,40.077L119.968,40.077L120.055,40.077L120.144,40.077L120.227,40.077L120.312,40.077L120.484,40.077L120.57,40.077L120.661,40.077L120.744,40.077L120.827,40.077L121,40.077L121.086,40.077L121.177,40.077L121.258,40.077L121.343,40.077L121.516,40.077L121.601,40.077L121.692,40.077L121.774,40.077L121.859,40.077L122.031,40.077L122.117,40.077L122.208,40.077L122.289,40.077L122.375,40.077L122.548,40.077L122.634,40.077L122.725,40.077L122.806,40.077L122.89,40.077L123.063,40.077L123.149,40.077L123.24,40.077L123.321,40.077L123.406,40.077L123.579,40.077L123.665,40.077L123.757,40.077L123.838,40.077L123.922,40.077L124.095,40.077L124.181,40.077L124.272,40.077L124.353,40.077L124.438,40.077L124.611,40.077L124.697,40.077L124.788,40.077L124.869,40.077L124.954,40.077L125.126,40.077L125.212,40.077L125.303,40.077L125.385,40.077L125.469,40.077L125.642,40.077L125.728,40.077L125.82,40.077L125.9,40.077L125.985,40.077L126.158,40.077L126.244,40.077L126.336,40.077L126.417,40.077L126.501,40.077L126.673,40.077L126.76,40.077L126.851,40.077L126.933,40.077L127.017,40.077L127.19,40.077L127.276,40.077L127.367,40.077L127.448,40.077L127.533,40.077L127.705,40.077L127.792,40.077L127.883,40.077L127.964,40.077L128.048,40.077L128.221,40.077L128.307,40.077L128.398,40.077L128.48,40.077L128.564,40.077L128.737,40.077L128.822,40.077L128.913,40.077L128.995,40.077L129.079,40.077L129.252,40.077L129.338,40.077L129.429,40.077L129.511,40.077L129.596,40.077L129.768,40.077L129.855,40.077L129.946,40.077L130.027,40.077L130.111,40.077L130.284,40.077L130.37,40.077L130.462,40.077L130.543,40.077L130.627,40.077L130.801,40.077L130.887,40.077L130.978,40.077L131.059,40.077L131.143,40.077L131.316,40.077L131.402,40.077L131.493,40.077L131.575,40.077L131.659,40.077L131.832,40.077L131.918,40.077L132.009,40.077L132.09,40.077L132.175,40.077L132.347,40.077L132.433,40.077L132.524,40.077L132.605,40.077L132.69,40.077L132.863,40.077L132.949,40.077L133.04,40.077L133.122,40.077L133.206,40.077L133.38,40.077L133.466,40.077L133.557,40.077L133.638,40.077L133.722,40.077L133.893,40.077L133.981,40.077L134.073,40.077L134.153,40.077L134.238,40.077L134.411,40.077L134.497,40.077L134.588,40.077L134.669,40.077L134.754,40.077L134.927,40.077L135.013,40.077L135.104,40.077L135.185,40.077L135.269,40.077L135.442,40.077L135.528,40.077L135.62,40.077L135.701,40.077L135.785,40.077L135.958,40.077L136.043,40.077L136.135,40.077L136.216,40.077L136.3,40.077L136.474,40.077L136.559,40.077L136.651,40.077L136.732,40.077L136.816,40.077L136.989,40.077L137.077,40.077L137.168,40.077L137.248,40.077L137.333,40.077L137.505,40.077L137.592,40.077L137.684,40.077L137.764,40.077L137.848,40.077L138.021,40.077L138.108,40.077L138.2,40.077L138.281,40.077L138.364,40.077L138.537,40.077L138.624,40.077L138.715,40.077L138.796,40.077L138.88,40.077L139.053,40.077L139.139,40.077L139.231,40.077L139.311,40.077L139.568,40.077L139.654,40.077L139.745,40.077L139.826,40.077L139.911,40.077L140.084,40.077L140.17,40.077L140.261,40.077L140.342,40.077L140.427,40.077L140.6,40.077L140.687,40.077L140.779,40.077L140.86,40.077L140.943,40.077L141.116,40.077L141.203,40.077L141.294,40.077L141.375,40.077L141.459,40.077L141.632,40.077L141.718,40.077L141.81,40.077L141.891,40.077L141.975,40.077L142.148,40.077L142.234,50.077L142.326,50.077L142.406,50.077L142.49,50.077L142.663,50.077L142.749,50.077L142.841,50.077L142.922,50.077L143.006,50.077L143.179,50.077L143.265,50.077L143.356,50.077L143.437,50.077L143.521,50.077L143.694,50.077L143.78,50.077L143.872,50.077L143.953,50.077L144.037,50.077L144.211,50.077L144.297,50.077L144.389,50.077L144.47,50.077L144.554,50.077L144.726,50.077L144.813,30.846L144.904,30.846L144.985,30.846L145.069,30.846L145.242,30.846L145.329,30.846L145.42,50.077L145.501,50.077L145.585,50.077L145.758,50.077L145.844,50.077L145.936,50.077L146.016,50.077L146.101,50.077L146.274,50.077L146.36,50.077L146.451,50.077L146.532,50.077L146.617,50.077L146.79,50.077L146.875,50.077L146.966,50.077L147.048,50.077L147.132,50.077L147.305,50.077L147.391,50.077L147.483,50.077L147.563,50.077L147.648,50.077L147.821,50.077L147.908,50.077L147.999,50.077L148.08,50.077L148.164,50.077L148.337,50.077L148.423,50.077L148.515,50.077L148.596,50.077L148.68,50.077L148.853,50.077L148.939,50.077L149.031,50.077L149.111,50.077L149.195,50.077L149.369,50.077L149.455,50.077L149.546,50.077L149.628,50.077L149.711,50.077L149.884,50.077L149.971,50.077L150.062,50.077L150.143,50.077L150.227,50.077L150.4,50.077L150.486,50.077L150.577,50.077L150.658,50.077L150.743,50.077L150.916,50.077L151.002,50.077L151.093,50.077L151.173,50.077L151.258,50.077L151.431,50.077L151.518,50.077L151.61,50.077L151.691,50.077L151.774,50.077L151.948,50.077L152.034,50.077L152.125,50.077L152.206,50.077L152.29,50.077L152.463,50.077L152.549,50.077L152.641,50.077L152.722,50.077L152.807,50.077L152.979,50.077L153.065,50.077L153.157,50.077L153.238,50.077L153.322,50.077L153.495,50.077L153.581,50.077L153.673,50.077L153.753,50.077L153.837,50.077L154.01,50.077L154.096,50.077L154.187,50.077L154.268,50.077L154.353,50.077L154.526,50.077L154.612,50.077L154.703,50.077L154.784,50.077L154.87,50.077L155.042,50.077L155.129,50.077L155.22,50.077L155.302,50.077L155.385,50.077L155.558,50.077L155.644,50.077L155.736,50.077L155.817,50.077L155.901,50.077L156.074,50.077L156.161,50.077L156.252,50.077L156.333,50.077L156.416,50.077L156.767,50.077L156.848,50.077L156.932,50.077L157.105,50.077L157.191,50.077L157.282,50.077L157.363,50.077L157.448,50.077L157.621,50.077L157.706,50.077L157.798,50.077L157.879,50.077L157.963,50.077L158.136,50.077L158.222,50.077L158.313,50.077L158.394,50.077L158.479,50.077L158.652,50.077L158.739,50.077L158.831,50.077L158.911,50.077L158.995,50.077L159.168,50.077L159.254,50.077L159.345,50.077L159.426,50.077L159.511,50.077L159.684,50.077L159.77,50.077L159.862,50.077L159.942,50.077L160.026,50.077L160.199,50.077L160.286,50.077L160.377,50.077L160.458,50.077L160.542,50.077L160.715,50.077L160.801,50.077L160.893,50.077L160.974,50.077L161.058,50.077L161.231,50.077L161.316,50.077L161.407,50.077L161.489,50.077L161.573,50.077L161.746,50.077L161.832,50.077L161.923,50.077L162.004,50.077L162.089,50.077L162.262,50.077L162.349,50.077L162.44,50.077L162.521,50.077L162.605,50.077L162.778,50.077L162.865,50.077L162.957,50.077L163.037,50.077L163.121,50.077L163.294,50.077L163.381,50.077L163.472,58.538L163.553,58.538L163.637,58.538L163.81,58.538L163.897,58.538L163.988,58.538L164.069,58.538L164.153,58.538L164.327,58.538L164.412,58.538L164.504,58.538L164.585,58.538L164.669,58.538L164.842,58.538L164.928,58.538L165.019,58.538L165.1,58.538L165.184,58.538L165.357,58.538L165.443,58.538L165.535,58.538L165.615,58.538L165.7,58.538L165.874,58.538L165.96,58.538L166.052,58.538L166.133,58.538L166.217,58.538L166.389,58.538L166.476,58.538L166.568,58.538L166.648,58.538L166.732,58.538L166.905,58.538L166.992,58.538L167.084,58.538L167.164,58.538L167.248,58.538L167.421,46.231L167.507,46.231L167.599,58.538L167.68,58.538L167.764,58.538L167.937,58.538L168.023,58.538L168.115,46.231L168.196,46.231L168.28,46.231L168.452,46.231L168.538,46.231L168.63,46.231L168.711,46.231L168.795,46.231L168.968,46.231L169.054,46.231L169.145,46.231L169.226,46.231L169.31,46.231L169.484,46.231L169.571,46.231L169.663,46.231L169.743,46.231L169.827,46.231L170,46.231L170.087,46.231L170.179,46.231L170.259,46.231L170.343,46.231L170.516,46.231L170.603,46.231L170.694,58.538L170.775,58.538L170.859,58.538L171.032,58.538L171.118,58.538L171.21,58.538L171.29,58.538L171.374,58.538L171.547,58.538L171.634,58.538L171.726,58.538L171.806,58.538L171.89,58.538L172.063,58.538L172.149,58.538L172.24,58.538L172.321,58.538L172.405,58.538L172.579,58.538L172.664,58.538L172.756,58.538L172.837,58.538L172.921,58.538L173.095,58.538L173.182,58.538L173.274,58.538L173.354,58.538L173.437,58.538L173.61,30.846L173.697,30.846L173.789,58.538L173.87,58.538L173.953,58.538L174.126,58.538L174.213,58.538L174.305,58.538L174.386,58.538L174.469,58.538L174.642,30.846L174.729,30.846L174.821,46.231L174.901,46.231L174.985,46.231L175.158,30.846L175.244,30.846L175.336,46.231L175.416,46.231L175.5,46.231L175.673,46.231L175.759,46.231L175.851,46.231L175.931,46.231L176.016,46.231L176.189,46.231L176.275,46.231L176.367,46.231L176.447,46.231L176.532,46.231L176.705,46.231L176.792,46.231L176.884,46.231L176.964,46.231L177.048,46.231L177.221,46.231L177.308,46.231L177.4,46.231L177.48,46.231L177.564,46.231L177.737,46.231L177.824,46.231L177.916,46.231L177.996,46.231L178.079,46.231L178.253,46.231L178.339,46.231L178.431,46.231L178.512,46.231L178.595,46.231L178.768,46.231L178.855,46.231L178.947,46.231L179.027,46.231L179.111,46.231L179.283,46.231L179.37,46.231L179.461,46.231L179.541,46.231L179.626,46.231L179.799,46.231L179.885,46.231L179.977,46.231L180.057,46.231L180.142,46.231L180.316,46.231L180.402,46.231L180.495,46.231L180.575,46.231L180.658,46.231L180.831,46.231L180.918,46.231L181.01,46.231L181.091,46.231L181.174,46.231L181.346,46.231L181.434,46.231L181.525,46.231L181.606,46.231L181.69,46.231L181.862,46.231L181.949,46.231L182.041,46.231L182.121,46.231L182.205,46.231L182.378,46.231L182.464,46.231L182.555,46.231L182.636,46.231L182.721,46.231L182.893,46.231L182.979,46.231L183.07,46.231L183.151,46.231L183.236,46.231L183.409,46.231L183.495,46.231L183.586,46.231L183.667,46.231L183.751,46.231L183.925,46.231L184.011,46.231L184.103,46.231L184.183,46.231L184.268,46.231L184.441,46.231L184.527,46.231L184.618,46.231L184.699,46.231L184.783,46.231L184.957,46.231L185.043,46.231L185.134,46.231L185.215,46.231L185.299,46.231L185.472,46.231L185.558,46.231L185.65,46.231L185.73,46.231L185.815,46.231L185.988,46.231L186.074,46.231L186.166,46.231L186.246,46.231L186.331,46.231L186.504,46.231L186.589,46.231L186.681,46.231L186.762,46.231L186.846,46.231L187.019,46.231L187.105,46.231L187.196,46.231L187.277,46.231L187.362,46.231L187.535,46.231L187.622,46.231L187.713,46.231L187.794,46.231L187.878,46.231L188.051,46.231L188.137,46.231L188.229,46.231L188.31,46.231L188.394,46.231L188.567,46.231L188.653,46.231L188.744,46.231L188.825,46.231L188.909,46.231L189.083,46.231L189.169,46.231L189.26,46.231L189.341,46.231L189.426,46.231L189.598,46.231L189.685,46.231L189.776,46.231L189.857,46.231L189.941,46.231L190.114,46.231L190.2,46.231L190.291,46.231L190.372,46.231L190.457,46.231L190.63,46.231L190.716,46.231L190.807,46.231L190.888,46.231L190.972,46.231L191.146,46.231L191.232,46.231L191.324,46.231L191.405,46.231L191.489,46.231L191.661,46.231L191.748,46.231L191.84,46.231L191.924,46.231L192.004,46.231L192.177,46.231L192.264,46.231L192.356,46.231L192.436,46.231L192.52,46.231L192.693,46.231L192.779,46.231L192.871,46.231L192.952,46.231L193.036,46.231L193.209,46.231L193.295,46.231L193.387,46.231L193.468,46.231L193.552,46.231L193.724,46.231L193.81,46.231L193.902,46.231L193.983,46.231L194.067,46.231L194.24,46.231L194.326,46.231L194.417,46.231L194.498,46.231L194.583,46.231L194.757,46.231L194.843,46.231L194.935,46.231L195.016,46.231L195.099,46.231L195.271,46.231L195.358,46.231L195.449,46.231L195.53,46.231L195.615,46.231L195.787,46.231L195.874,46.231L195.965,46.231L196.046,46.231L196.13,46.231L196.303,46.231L196.389,46.231L196.481,46.231L196.646,46.231L196.82,46.231L196.905,46.231L196.997,46.231L197.077,46.231L197.42,34.692L197.511,46.231L197.592,46.231L197.678,46.231L197.85,46.231L197.936,46.231L198.027,46.231L198.108,46.231L198.193,46.231L198.366,46.231L198.453,46.231L198.545,46.231L198.625,46.231L198.709,46.231L198.882,46.231L198.968,46.231L199.06,46.231L199.141,46.231L199.225,46.231L199.398,46.231L199.485,46.231L199.576,46.231L199.657,46.231L199.74,46.231L199.914,46.231L200,46.231" stroke="#f58518" stroke-width="2"/></g></g><path class="foreground" aria-hidden="true" d="" display="none"/></g></g><g class="mark-group role-legend" role="graphics-symbol" aria-roledescription="legend" aria-label="Symbol legend titled 'identifier' for stroke color with 2 values: altex-LG-F2WR508SBW, altex-LG-F2WR508SBM"><g transform="translate(220,0)"><path class="background" aria-hidden="true" d="M0,0h168v40h-168Z" pointer-events="none"/><g><g class="mark-group role-legend-entry"><g transform="translate(0,16)"><path class="background" aria-hidden="true" d="M0,0h0v0h0Z" pointer-events="none"/><g><g class="mark-group role-scope" role="graphics-object" aria-roledescription="group mark container"><g transform="translate(0,0)"><path class="background" aria-hidden="true" d="M0,0h168v11h-168Z" pointer-events="none" opacity="1"/><g><g class="mark-symbol role-legend-symbol" pointer-events="none"><path transform="translate(6,6)" d="M-5,0L5,0" stroke="#4c78a8" stroke-width="1.5" opacity="1"/></g><g class="mark-text role-legend-label" pointer-events="none"><text text-anchor="start" transform="translate(16,9)" font-family="Liberation Mono" font-size="10px" fill="#000" opacity="1">altex-LG-F2WR508SBW</text></g></g><path class="foreground" aria-hidden="true" d="" pointer-events="none" display="none"/></g><g transform="translate(0,13)"><path class="background" aria-hidden="true" d="M0,0h168v11h-168Z" pointer-events="none" opacity="1"/><g><g class="mark-symbol role-legend-symbol" pointer-events="none"><path transform="translate(6,6)" d="M-5,0L5,0" stroke="#f58518" stroke-width="1.5" opacity="1"/></g><g class="mark-text role-legend-label" pointer-events="none"><text text-anchor="start" transform="translate(16,9)" font-family="Liberation Mono" font-size="10px" fill="#000" opacity="1">altex-LG-F2WR508SBM</text></g></g><path class="foreground" aria-hidden="true" d="" pointer-events="none" display="none"/></g></g></g><path class="foreground" aria-hidden="true" d="" pointer-events="none" display="none"/></g></g><g class="mark-text role-legend-title" pointer-events="none"><text text-anchor="start" transform="translate(0,9)" font-family="Liberation Mono" font-size="11px" font-weight="bold" fill="#000" opacity="1">identifier</text></g></g><path class="foreground" aria-hidden="true" d="" pointer-events="none" display="none"/></g></g></g><path class="foreground" aria-hidden="true" d="" display="none"/></g></g></g></svg>