<svg xmlns="http://www.w3.org/2000/svg" xmlns:xlink="http://www.w3.org/1999/xlink" version="1.1" class="marks" width="460" height="242" viewBox="0 0 460 242"><rect width="460" height="242" fill="white"/><g fill="none" stroke-miterlimit="10" transform="translate(67,5)"><g class="mark-group role-frame root" role="graphics-object" aria-roledescription="group mark container"><g transform="translate(0,0)"><path class="background" aria-hidden="true" d="M0.5,0.5h200v200h-200Z" stroke="#ddd"/><g><g class="mark-group role-axis" aria-hidden="true"><g transform="translate(0.5,200.5)"><path class="background" aria-hidden="true" d="M0,0h0v0h0Z" pointer-events="none"/><g><g class="mark-rule role-axis-grid" pointer-events="none"><line transform="translate(31,-200)" x2="0" y2="200" stroke="#ddd" stroke-width="1" opacity="1"/><line transform="translate(61,-200)" x2="0" y2="200" stroke="#ddd" stroke-width="1" opacity="1"/><line transform="translate(92,-200)" x2="0" y2="200" stroke="#ddd" stroke-width="1" opacity="1"/><line transform="translate(123,-200)" x2="0" y2="200" stroke="#ddd" stroke-width="1" opacity="1"/><line transform="translate(154,-200)" x2="0" y2="200" stroke="#ddd" stroke-width="1" opacity="1"/><line transform="translate(185,-200)" x2="0" y2="200" stroke="#ddd" stroke-width="1" opacity="1"/></g></g><path class="foreground" aria-hidden="true" d="" pointer-events="none" display="none"/></g></g><g class="mark-group role-axis" aria-hidden="true"><g transform="translate(0.5,0.5)"><path class="background" aria-hidden="true" d="M0,0h0v0h0Z" pointer-events="none"/><g><g class="mark-rule role-axis-grid" pointer-events="none"><line transform="translate(0,200)" x2="200" y2="0" stroke="#ddd" stroke-width="1" opacity="1"/><line transform="translate(0,162)" x2="200" y2="0" stroke="#ddd" stroke-width="1" opacity="1"/><line transform="translate(0,123)" x2="200" y2="0" stroke="#ddd" stroke-width="1" opacity="1"/><line transform="translate(0,85)" x2="200" y2="0" stroke="#ddd" stroke-width="1" opacity="1"/><line transform="translate(0,46)" x2="200" y2="0" stroke="#ddd" stroke-width="1" opacity="1"/><line transform="translate(0,8)" x2="200" y2="0" stroke="#ddd" stroke-width="1" opacity="1"/></g></g><path class="foreground" aria-hidden="true" d="" pointer-events="none" display="none"/></g></g><g class="mark-group role-axis" role="graphics-symbol" aria-roledescription="axis" aria-label="X-axis titled 'Time' for a time scale with values from Monday, 01 January 2024, 2:19:43 PM to Monday, 15 July 2024, 4:44:01 PM"><g transform="translate(0.5,200.5)"><path class="background" aria-hidden="true" d="M0,0h0v0h0Z" pointer-events="none"/><g><g class="mark-rule role-axis-tick" pointer-events="none"><line transform="translate(31,0)" x2="0" y2="5" stroke="#888" stroke-width="1" opacity="1"/><line transform="translate(61,0)" x2="0" y2="5" stroke="#888" stroke-width="1" opacity="1"/><line transform="translate(92,0)" x2="0" y2="5" stroke="#888" stroke-width="1" opacity="1"/><line transform="translate(123,0)" x2="0" y2="5" stroke="#888" stroke-width="1" opacity="1"/><line transform="translate(154,0)" x2="0" y2="5" stroke="#888" stroke-width="1" opacity="1"/><line transform="translate(185,0)" x2="0" y2="5" stroke="#888" stroke-width="1" opacity="1"/></g><g class="mark-text role-axis-label" pointer-events="none"><text text-anchor="middle" transform="translate(31.00758841900279,15)" font-family="Liberation Mono" font-size="10px" fill="#000" opacity="1">February</text><text text-anchor="middle" transform="translate(60.58430316230587,15)" font-family="Liberation Mono" font-size="10px" fill="#000" opacity="0">March</text><text text-anchor="middle" transform="translate(92.20079133618158,15)" font-family="Liberation Mono" font-size="10px" fill="#000" opacity="1">April</text><text text-anchor="middle" transform="translate(122.79739279477097,15)" font-family="Liberation Mono" font-size="10px" fill="#000" opacity="0">May</text><text text-anchor="middle" transform="translate(154.41388096864668,15)" font-family="Liberation Mono" font-size="10px" fill="#000" opacity="1">June</text><text text-anchor="middle" transform="translate(185.01048242723607,15)" font-family="Liberation Mono" font-size="10px" fill="#000" opacity="0">July</text></g><g class="mark-rule role-axis-domain" pointer-events="none"><line transform="translate(0,0)" x2="200" y2="0" stroke="#888" stroke-width="1" opacity="1"/></g><g class="mark-text role-axis-title" pointer-events="none"><text text-anchor="middle" transform="translate(100,30)" font-family="Liberation Mono" font-size="11px" font-weight="bold" fill="#000" opacity="1">Time</text></g></g><path class="foreground" aria-hidden="true" d="" pointer-events="none" display="none"/></g></g><g class="mark-group role-axis" role="graphics-symbol" aria-roledescription="axis" aria-label="Y-axis titled 'Price' for a linear scale with values from 0 to 2,600"><g transform="translate(0.5,0.5)"><path class="background" aria-hidden="true" d="M0,0h0v0h0Z" pointer-events="none"/><g><g class="mark-rule role-axis-tick" pointer-events="none"><line transform="translate(0,200)" x2="-5" y2="0" stroke="#888" stroke-width="1" opacity="1"/><line transform="translate(0,162)" x2="-5" y2="0" stroke="#888" stroke-width="1" opacity="1"/><line transform="translate(0,123)" x2="-5" y2="0" stroke="#888" stroke-width="1" opacity="1"/><line transform="translate(0,85)" x2="-5" y2="0" stroke="#888" stroke-width="1" opacity="1"/><line transform="translate(0,46)" x2="-5" y2="0" stroke="#888" stroke-width="1" opacity="1"/><line transform="translate(0,8)" x2="-5" y2="0" stroke="#888" stroke-width="1" opacity="1"/></g><g class="mark-text role-axis-label" pointer-events="none"><text text-anchor="end" transform="translate(-7,203)" font-family="Liberation Mono" font-size="10px" fill="#000" opacity="1">0</text><text text-anchor="end" transform="translate(-7,164.53846153846155)" font-family="Liberation Mono" font-size="10px" fill="#000" opacity="1">500</text><text text-anchor="end" transform="translate(-7,126.07692307692308)" font-family="Liberation Mono" font-size="10px" fill="#000" opacity="1">1,000</text><text text-anchor="end" transform="translate(-7,87.61538461538463)" font-family="Liberation Mono" font-size="10px" fill="#000" opacity="1">1,500</text><text text-anchor="end" transform="translate(-7,49.153846153846146)" font-family="Liberation Mono" font-size="10px" fill="#000" opacity="1">2,000</text><text text-anchor="end" transform="translate(-7,10.692307692307686)" font-family="Liberation Mono" font-size="10px" fill="#000" opacity="1">2,500</text></g><g class="mark-rule role-axis-domain" pointer-events="none"><line transform="translate(0,200)" x2="0" y2="-200" stroke="#888" stroke-width="1" opacity="1"/></g><g class="mark-text role-axis-title" pointer-events="none"><text text-anchor="middle" transform="translate(-51,100) rotate(-90) translate(0,-2)" font-family="Liberation Mono" font-size="11px" font-weight="bold" fill="#000" opacity="1">Price</text></g></g><path class="foreground" aria-hidden="true" d="" pointer-events="none" display="none"/></g></g><g class="mark-group role-scope pathgroup" role="graphics-object" aria-roledescription="group mark container"><g transform="translate(0,0)"><path class="background" aria-hidden="true" d="M0,0h200v200h-200Z"/><g><g class="mark-line role-mark marks" role="graphics-object" aria-roledescription="line mark container"><path aria-label="Time: Jan 01, 2024; Price: 2399; identifier: altex-LG-F2WR508SBW" role="graphics-symbol" aria-roledescription="line mark" d="M0,15.462L0.107,15.462L0.268,15.462L0.608,15.462L0.778,15.462L0.957,15.462L1.119,15.462L1.288,15.462L1.628,15.462L1.798,15.462L1.977,15.462L2.14,15.462L2.308,15.462L2.648,15.462L2.818,15.462L2.997,15.462L3.161,15.462L3.328,15.462L3.668,34.692L3.838,34.692L4.017,34.692L4.18,34.692L4.348,34.692L4.688,34.692L4.858,34.692L5.036,34.692L5.199,34.692L5.368,34.692L5.709,34.692L5.878,34.692L6.056,34.692L6.219,34.692L6.387,34.692L6.728,34.692L6.899,34.692L7.078,34.692L7.24,34.692L7.407,34.692L7.749,34.692L7.918,34.692L8.099,34.692L8.26,34.692L8.427,34.692L8.768,34.692L8.938,34.692L9.117,34.692L9.28,34.692L9.447,34.692L9.788,34.692L9.958,34.692L10.137,34.692L10.3,34.692L10.467,34.692L10.808,34.692L10.978,34.692L11.157,34.692L11.32,34.692L11.487,34.692L11.827,46.231L11.997,46.231L12.175,46.231L12.338,46.231L12.507,46.231L12.848,46.231L13.017,46.231L13.195,46.231L13.358,46.231L13.527,46.231L13.868,46.231L14.038,46.231L14.218,46.231L14.38,46.231L14.547,46.231L14.887,46.231L15.058,46.231L15.237,46.231L15.4,46.231L15.566,46.231L15.907,46.231L16.078,46.231L16.257,46.231L16.419,46.231L16.586,46.231L16.927,46.231L17.097,46.231L17.276,46.231L17.439,46.231L17.607,46.231L17.947,46.231L18.117,46.231L18.296,46.231L18.459,46.231L18.626,46.231L18.967,46.231L19.136,46.231L19.314,46.231L19.478,46.231L19.646,46.231L19.986,46.231L20.156,46.231L20.334,46.231L20.498,46.231L20.666,46.231L21.008,46.231L21.178,46.231L21.357,46.231L21.519,46.231L21.686,46.231L22.027,46.231L22.198,46.231L22.377,46.231L22.539,46.231L22.706,46.231L23.047,46.231L23.217,46.231L23.397,46.231L23.559,46.231L23.726,46.231L24.067,46.231L24.237,46.231L24.416,46.231L24.579,46.231L24.745,46.231L25.086,46.231L25.256,46.231L25.433,46.231L25.596,46.231L25.766,46.231L26.105,46.231L26.276,46.231L26.45,46.231L26.615,46.231L26.785,46.231L27.125,46.231L27.295,46.231L27.471,46.231L27.635,46.231L27.805,46.231L28.145,46.231L28.316,46.231L28.492,46.231L28.655,46.231L28.825,46.231L29.165,46.231L29.335,46.231L29.512,46.231L29.677,46.231L29.845,46.231L30.185,46.231L30.355,46.231L30.532,46.231L30.695,46.231L30.865,46.231L31.205,34.692L31.375,34.692L31.552,34.692L31.715,34.692L31.884,34.692L32.225,34.692L32.395,34.692L32.571,34.692L32.734,34.692L32.905,34.692L33.245,34.692L33.415,34.692L33.59,34.692L33.754,34.692L33.925,34.692L34.265,34.692L34.435,34.692L34.61,34.692L34.774,34.692L34.944,34.692L35.284,34.692L35.455,34.692L35.632,34.692L35.795,34.692L35.964,34.692L36.304,34.692L36.474,34.692L36.651,34.692L36.814,34.692L36.984,34.692L37.324,34.692L37.494,34.692L37.671,34.692L37.835,34.692L38.004,34.692L38.344,34.692L38.514,34.692L38.691,34.692L38.855,34.692L39.024,34.692L39.364,34.692L39.534,34.692L39.71,34.692L39.874,34.692L40.044,34.692L40.384,34.692L40.554,34.692L40.729,34.692L40.894,34.692L41.064,34.692L41.404,34.692L41.574,34.692L41.749,34.692L41.914,34.692L42.083,34.692L42.424,34.692L42.593,34.692L42.771,34.692L42.934,34.692L43.103,34.692L43.443,34.692L43.613,34.692L43.79,34.692L43.956,34.692L44.123,34.692L44.463,34.692L44.633,34.692L44.81,34.692L44.974,34.692L45.143,34.692L45.653,34.692L45.83,34.692L45.993,34.692L46.163,34.692L46.503,34.692L46.673,34.692L46.85,34.692L47.014,34.692L47.183,34.692L47.523,34.692L47.693,34.692L47.868,34.692L48.033,34.692L48.203,34.692L48.543,34.692L48.714,34.692L48.888,34.692L49.053,34.692L49.223,34.692L49.563,34.692L49.733,34.692L49.91,34.692L50.075,34.692L50.242,34.692L50.583,34.692L50.753,34.692L50.929,34.692L51.093,34.692L51.263,34.692L51.602,34.692L51.773,34.692L51.95,34.692L52.113,34.692L52.283,34.692L52.622,34.692L52.792,34.692L52.969,34.692L53.133,34.692L53.302,34.692L53.642,34.692L53.812,34.692L53.988,34.692L54.152,34.692L54.323,34.692L54.662,34.692L54.832,34.692L55.007,34.692L55.172,34.692L55.342,34.692L55.682,34.692L55.852,34.692L56.027,34.692L56.193,34.692L56.362,34.692L56.702,34.692L56.872,34.692L57.049,34.692L57.212,34.692L57.382,34.692L57.722,34.692L57.892,34.692L58.068,34.692L58.232,34.692L58.402,34.692L58.742,34.692L58.912,34.692L59.088,34.692L59.253,34.692L59.422,34.692L59.762,34.692L59.931,34.692L60.108,34.692L60.271,34.692L60.441,34.692L60.781,34.692L60.952,34.692L61.128,34.692L61.292,34.692L61.461,34.692L61.801,34.692L61.971,34.692L62.148,34.692L62.311,34.692L62.481,34.692L62.821,34.692L62.991,34.692L63.166,34.692L63.331,34.692L63.501,34.692L63.857,34.692L64.089,34.692L64.19,34.692L64.352,34.692L64.521,34.692L64.861,34.692L65.031,34.692L65.209,34.692L65.371,34.692L65.541,34.692L65.881,34.692L66.052,34.692L66.228,34.692L66.392,34.692L66.561,34.692L66.901,34.692L67.071,34.692L67.247,34.692L67.411,34.692L67.581,34.692L67.921,34.692L68.093,34.692L68.267,34.692L68.43,34.692L68.6,34.692L68.941,34.692L69.111,34.692L69.285,34.692L69.451,34.692L69.62,34.692L69.96,34.692L70.131,34.692L70.305,34.692L70.471,34.692L70.64,34.692L70.981,34.692L71.15,34.692L71.328,34.692L71.491,34.692L71.66,34.692L72,34.692L72.17,34.692L72.347,34.692L72.512,34.692L72.68,34.692L73.02,34.692L73.191,34.692L73.368,34.692L73.53,34.692L73.7,34.692L74.04,34.692L74.21,34.692L74.387,34.692L74.551,34.692L74.72,34.692L75.06,34.692L75.231,34.692L75.407,34.692L75.57,34.692L75.74,34.692L76.08,34.692L76.25,34.692L76.426,34.692L76.59,34.692L76.76,34.692L77.1,34.692L77.271,34.692L77.445,34.692L77.609,34.692L77.78,34.692L78.119,34.692L78.289,34.692L78.468,34.692L78.631,34.692L78.8,34.692L79.14,34.692L79.309,34.692L79.486,34.692L79.651,34.692L79.819,34.692L80.159,34.692L80.33,34.692L80.506,34.692L80.671,34.692L80.84,34.692L81.179,34.692L81.35,34.692L81.527,34.692L81.692,34.692L81.859,34.692L82.199,34.692L82.369,34.692L82.546,34.692L82.71,34.692L82.879,34.692L83.219,34.692L83.389,34.692L83.565,34.692L83.729,34.692L83.899,34.692L84.239,34.692L84.409,34.692L84.586,34.692L84.749,34.692L84.919,34.692L85.259,34.692L85.429,34.692L85.606,34.692L85.769,34.692L85.939,34.692L86.279,34.692L86.45,34.692L86.626,34.692L86.79,34.692L86.958,34.692L87.3,34.692L87.469,34.692L87.646,34.692L87.811,34.692L87.979,34.692L88.318,34.692L88.488,34.692L88.666,34.692L88.829,34.692L88.998,34.692L89.339,34.692L89.508,34.692L89.686,34.692L89.849,34.692L90.018,34.692L90.358,34.692L90.528,34.692L90.704,34.692L90.869,34.692L91.039,34.692L91.378,34.692L91.549,34.692L91.724,34.692L91.889,34.692L92.058,34.692L92.398,34.692L92.569,34.692L92.746,34.692L92.91,34.692L93.078,34.692L93.419,34.692L93.588,34.692L93.766,34.692L93.93,34.692L94.098,34.692L94.438,34.692L94.608,34.692L94.785,34.692L94.949,34.692L95.118,34.692L95.458,34.692L95.628,34.692L95.805,34.692L95.969,34.692L96.138,34.692L96.479,34.692L96.824,34.692L96.988,34.692L97.158,34.692L97.498,34.692L97.668,34.692L97.843,34.692L98.007,34.692L98.177,34.692L98.517,34.692L98.687,34.692L98.863,34.692L99.027,34.692L99.197,34.692L99.538,34.692L99.707,34.692L99.885,34.692L100.049,34.692L100.217,34.692L100.557,34.692L100.727,34.692L100.905,34.692L101.068,34.692L101.237,34.692L101.577,34.692L101.748,34.692L101.925,34.692L102.089,34.692L102.258,34.692L102.598,34.692L102.768,34.692L102.945,34.692L103.277,34.692L103.617,34.692L103.788,34.692L103.964,34.692L104.127,34.692L104.297,34.692L104.636,34.692L104.806,34.692L104.98,34.692L105.146,34.692L105.316,34.692L105.672,34.692L105.933,34.692L106.093,34.692L106.423,34.692L106.679,34.692L106.846,34.692L107.021,34.692L107.186,34.692L107.356,34.692L107.696,34.692L107.866,34.692L108.044,34.692L108.206,34.692L108.376,34.692L108.716,34.692L108.886,34.692L109.064,34.692L109.228,34.692L109.396,34.692L109.906,34.692L110.084,34.692L110.247,34.692L110.416,34.692L110.756,34.692L110.926,34.692L111.103,34.692L111.267,34.692L111.436,34.692L111.776,34.692L111.946,34.692L112.122,34.692L112.286,34.692L112.456,34.692L112.796,34.692L112.966,34.692L113.142,34.692L113.306,34.692L113.476,34.692L113.815,34.692L113.986,34.692L114.164,34.692L114.327,34.692L114.495,34.692L114.835,34.692L115.006,34.692L115.184,34.692L115.347,34.692L115.516,34.692L115.855,34.692L116.027,34.692L116.209,34.692L116.366,34.692L116.536,34.692L116.875,34.692L117.046,34.692L117.219,34.692L117.386,34.692L117.556,34.692L117.895,34.692L118.066,34.692L118.243,34.692L118.406,34.692L118.576,34.692L118.915,34.692L119.085,34.692L119.261,34.692L119.425,34.692L119.595,34.692L119.935,34.692L120.105,34.692L120.282,34.692L120.445,34.692L120.615,34.692L120.955,34.692L121.127,34.692L121.304,34.692L121.466,34.692L121.635,34.692L121.975,34.692L122.146,34.692L122.323,34.692L122.486,34.692L122.655,34.692L122.995,34.692L123.168,34.692L123.343,34.692L123.505,34.692L123.674,34.692L124.015,57.769L124.185,57.769L124.364,57.769L124.525,57.769L124.695,57.769L125.035,57.769L125.204,57.769L125.382,57.769L125.546,57.769L125.714,57.769L126.054,57.769L126.224,57.769L126.401,57.769L126.564,57.769L126.734,57.769L127.074,57.769L127.245,57.769L127.421,57.769L127.585,57.769L127.754,57.769L128.094,57.769L128.265,57.769L128.443,57.769L128.606,57.769L128.774,57.769L129.114,57.769L129.285,57.769L129.462,57.769L129.625,57.769L129.794,57.769L130.134,57.769L130.304,57.769L130.484,57.769L130.647,57.769L130.813,57.769L131.155,34.692L131.326,34.692L131.502,34.692L131.667,34.692L131.834,34.692L132.173,34.692L132.344,34.692L132.523,34.692L132.685,34.692L132.853,34.692L133.193,34.692L133.363,34.692L133.541,34.692L133.703,34.692L133.873,34.692L134.214,34.692L134.383,34.692L134.561,34.692L134.724,34.692L134.894,34.692L135.234,34.692L135.404,34.692L135.583,34.692L135.745,34.692L135.914,34.692L136.253,34.692L136.424,34.692L136.603,34.692L136.766,34.692L136.933,34.692L137.274,34.692L137.444,34.692L137.623,34.692L137.785,34.692L137.953,34.692L138.293,34.692L138.464,34.692L138.643,34.692L138.804,34.692L138.973,34.692L139.313,34.692L139.483,34.692L139.662,34.692L139.825,34.692L139.992,34.692L140.333,34.692L140.503,34.692L140.681,34.692L140.843,34.692L141.012,34.692L141.353,34.692L141.523,34.692L141.7,34.692L141.864,34.692L142.033,34.692L142.374,34.692L142.543,34.692L142.723,34.692L142.884,34.692L143.053,34.692L143.392,34.692L143.563,34.692L143.743,34.692L143.904,34.692L144.073,34.692L144.413,34.692L144.584,34.692L144.762,34.692L144.925,34.692L145.092,34.692L145.432,34.692L145.603,34.692L145.781,34.692L145.945,34.692L146.112,34.692L146.454,34.692L146.623,34.692L146.802,34.692L146.963,34.692L147.133,34.692L147.473,34.692L147.642,34.692L147.82,34.692L147.983,34.692L148.152,34.692L148.493,34.692L148.662,34.692L148.84,34.692L149.002,34.692L149.173,34.692L149.512,34.692L149.683,34.692L149.862,34.692L150.024,34.692L150.191,34.692L150.535,34.692L150.703,34.692L150.882,34.692L151.043,34.692L151.211,34.692L151.553,34.692L151.723,34.692L151.901,34.692L152.063,34.692L152.231,34.692L152.574,34.692L152.742,34.692L152.921,34.692L153.083,34.692L153.251,34.692L153.593,34.692L153.762,34.692L153.941,34.692L154.103,34.692L154.271,34.692L154.611,34.692L154.781,34.692L154.959,34.692L155.122,34.692L155.291,34.692L155.632,34.692L155.801,34.692L155.979,34.692L156.142,34.692L156.311,34.692L156.652,34.692L156.822,34.692L157.002,34.692L157.163,34.692L157.332,34.692L157.671,34.692L157.842,34.692L158.021,34.692L158.184,34.692L158.351,34.692L158.693,34.692L158.862,34.692L159.041,34.692L159.203,34.692L159.371,34.692L159.711,34.692L159.882,34.692L160.061,34.692L160.222,34.692L160.39,34.692L160.732,34.692L160.902,34.692L161.082,34.692L161.244,34.692L161.411,34.692L161.751,34.692L161.92,34.692L162.099,34.692L162.262,34.692L162.43,34.692L162.771,34.692L162.94,34.692L163.119,34.692L163.281,34.692L163.45,34.692L163.792,34.692L163.962,34.692L164.142,34.692L164.303,34.692L164.47,34.692L164.812,34.692L164.982,34.692L165.161,34.692L165.323,34.692L165.491,34.692L165.831,34.692L166.001,46.231L166.181,46.231L166.342,46.231L166.51,46.231L166.851,46.231L167.021,46.231L167.2,46.231L167.364,46.231L167.53,46.231L167.87,46.231L168.041,46.231L168.22,48.538L168.381,48.538L168.55,48.538L168.891,48.538L169.061,48.538L169.239,48.538L169.401,48.538L169.57,48.538L169.91,48.538L170.08,48.538L170.259,48.538L170.421,48.538L170.589,48.538L170.931,48.538L171.101,48.538L171.281,48.538L171.442,48.538L171.609,48.538L171.95,48.538L172.121,48.538L172.3,48.538L172.462,48.538L172.629,48.538L172.97,48.538L173.141,48.538L173.321,48.538L173.482,48.538L173.649,48.538L173.989,48.538L174.16,48.538L174.339,48.538L174.503,48.538L174.669,48.538L175.011,48.538L175.18,48.538L175.359,48.538L175.521,48.538L175.689,48.538L176.029,48.538L176.199,48.538L176.38,48.538L176.54,48.538L176.709,48.538L177.049,48.538L177.219,48.538L177.397,48.538L177.559,48.538L177.728,48.538L178.07,48.538L178.24,48.538L178.42,48.538L178.581,48.538L178.748,48.538L179.089,48.538L179.26,48.538L179.439,48.538L179.769,48.538L180.11,48.538L180.28,48.538L180.46,48.538L180.621,48.538L180.788,48.538L181.131,48.538L181.3,48.538L181.479,48.538L181.641,48.538L181.809,48.538L182.149,48.538L182.32,48.538L182.499,48.538L182.66,48.538L182.829,48.538L183.169,48.538L183.339,48.538L183.517,48.538L183.68,48.538L183.848,48.538L184.188,48.538L184.358,48.538L184.537,48.538L184.7,48.538L184.868,48.538L185.209,48.538L185.38,48.538L185.56,48.538L185.721,48.538L185.888,48.538L186.229,48.538L186.399,48.538L186.578,48.538L186.74,48.538L186.908,48.538L187.248,48.538L187.419,48.538L187.599,48.538L187.761,48.538L187.927,48.538L188.269,48.538L188.439,48.538L188.618,48.538L188.779,48.538L188.948,48.538L189.29,48.538L189.458,48.538L189.638,48.538L189.799,48.538L189.967,48.538L190.308,48.538L190.478,48.538L190.656,48.538L190.819,48.538L190.988,48.538L191.327,48.538L191.497,48.538L191.676,48.538L191.838,48.538L192.008,48.538L192.349,48.538L192.519,48.538L192.697,48.538L192.86,48.538L193.027,48.538L193.368,48.538L193.539,48.538L193.719,48.538L193.88,48.538L194.047,48.538L194.388,48.538L194.559,48.538L194.738,48.538L194.899,48.538L195.067,48.538L195.408,48.538L195.578,48.538L195.758,48.538L195.919,48.538L196.087,48.538L196.427,48.538L196.598,48.538L196.778,48.538L196.939,48.538L197.107,48.538L197.447,48.538L197.616,48.538L197.795,48.538L197.957,48.538L198.126,48.538L198.469,48.538L198.639,48.538L198.827,48.538L198.987,48.538L199.146,48.538L199.488,48.538L199.658,48.538L199.838,48.538L200,48.538" stroke="#4c78a8" stroke-width="2"/></g></g><path class="foreground" aria-hidden="true" d="" display="none"/></g><g transform="translate(0,0)"><path class="background" aria-hidden="true" d="M0,0h200v200h-200Z"/><g><g class="mark-line role-mark marks" role="graphics-object" aria-roledescription="line mark container"><path aria-label="Time: Jan 01, 2024; Price: 2499; identifier: altex-LG-F2WR508SBM" role="graphics-symbol" aria-roledescription="line mark" d="M0,7.769L0.107,7.769L0.268,7.769L0.608,7.769L0.778,7.769L0.957,7.769L1.12,7.769L1.288,7.769L1.628,7.769L1.798,7.769L1.977,7.769L2.14,7.769L2.308,7.769L2.648,7.769L2.818,7.769L2.997,7.769L3.161,7.769L3.328,7.769L3.669,27L3.838,27L4.017,27L4.18,27L4.348,27L4.688,27L4.858,27L5.036,27L5.199,27L5.368,27L5.709,27L5.878,27L6.056,27L6.219,27L6.387,27L6.728,27L6.899,27L7.078,27L7.24,27L7.407,27L7.749,27L7.918,27L8.099,27L8.26,27L8.427,27L8.768,27L8.938,27L9.117,27L9.28,27L9.447,27L9.788,27L9.958,27L10.138,27L10.3,27L10.467,27L10.808,27L10.978,27L11.157,27L11.32,27L11.487,27L11.827,38.538L11.997,38.538L12.175,38.538L12.338,38.538L12.507,38.538L12.848,38.538L13.017,38.538L13.195,38.538L13.358,38.538L13.527,38.538L13.868,38.538L14.038,38.538L14.218,38.538L14.38,38.538L14.547,38.538L14.887,38.538L15.058,38.538L15.237,38.538L15.4,38.538L15.566,38.538L15.907,38.538L16.078,38.538L16.257,38.538L16.419,38.538L16.586,38.538L16.927,38.538L17.097,38.538L17.276,38.538L17.439,38.538L17.607,38.538L17.947,38.538L18.117,38.538L18.296,38.538L18.459,38.538L18.626,38.538L18.967,38.538L19.136,38.538L19.314,38.538L19.478,38.538L19.646,38.538L19.986,38.538L20.156,38.538L20.334,38.538L20.498,38.538L20.666,38.538L21.008,38.538L21.178,38.538L21.357,38.538L21.519,38.538L21.686,38.538L22.027,38.538L22.198,38.538L22.377,38.538L22.539,38.538L22.706,38.538L23.047,38.538L23.217,38.538L23.397,38.538L23.559,38.538L23.726,38.538L24.067,38.538L24.237,38.538L24.416,38.538L24.579,38.538L24.745,38.538L25.086,38.538L25.256,38.538L25.433,38.538L25.596,38.538L25.766,38.538L26.105,38.538L26.276,38.538L26.45,38.538L26.615,38.538L26.785,38.538L27.125,38.538L27.295,38.538L27.471,38.538L27.635,38.538L27.805,38.538L28.145,38.538L28.316,38.538L28.492,38.538L28.655,38.538L28.825,38.538L29.165,38.538L29.335,38.538L29.512,38.538L29.677,38.538L29.845,38.538L30.185,38.538L30.355,38.538L30.532,38.538L30.695,38.538L30.865,38.538L31.205,27L31.375,27L31.552,27L31.715,27L31.884,27L32.225,27L32.395,27L32.571,27L32.734,27L32.905,27L33.245,27L33.415,27L33.59,27L33.754,27L33.925,27L34.265,27L34.435,27L34.61,27L34.774,27L34.944,27L35.284,27L35.455,27L35.632,27L35.795,27L35.964,27L36.304,27L36.474,27L36.651,27L36.814,27L36.984,27L37.324,27L37.494,27L37.671,27L37.835,27L38.004,27L38.344,27L38.514,27L38.691,27L38.855,27L39.024,27L39.364,27L39.534,27L39.71,27L39.874,27L40.044,27L40.384,27L40.554,27L40.729,27L40.894,27L41.064,27L41.404,27L41.574,27L41.749,27L41.914,27L42.084,27L42.424,27L42.593,27L42.771,27L42.934,27L43.103,27L43.443,27L43.613,27L43.79,27L43.956,27L44.123,27L44.463,27L44.633,27L44.81,27L44.974,27L45.143,27L45.653,27L45.83,27L45.993,27L46.163,27L46.503,27L46.673,27L46.85,27L47.014,27L47.183,27L47.523,27L47.693,27L47.868,27L48.033,27L48.203,27L48.543,27L48.714,27L48.888,27L49.053,27L49.223,27L49.563,27L49.733,27L49.91,27L50.075,27L50.243,27L50.583,27L50.753,27L50.929,27L51.093,27L51.263,27L51.602,27L51.773,27L51.95,27L52.113,27L52.283,27L52.622,27L52.792,27L52.969,27L53.133,27L53.303,27L53.642,27L53.812,27L53.988,27L54.152,27L54.323,27L54.662,27L54.832,27L55.007,27L55.172,27L55.342,27L55.682,27L55.852,27L56.027,27L56.193,27L56.362,27L56.702,27L56.872,27L57.049,27L57.212,27L57.382,27L57.722,27L57.892,27L58.068,27L58.232,27L58.402,27L58.742,27L58.912,27L59.088,27L59.253,27L59.422,27L59.762,27L59.931,27L60.108,27L60.271,27L60.441,27L60.781,27L60.952,27L61.128,27L61.292,27L61.461,27L61.801,27L61.971,27L62.148,27L62.311,27L62.481,27L62.821,27L62.991,27L63.166,27L63.331,27L63.501,27L63.857,27L64.089,27L64.19,27L64.352,27L64.521,27L64.861,27L65.031,27L65.209,27L65.371,27L65.541,27L65.881,27L66.052,27L66.228,27L66.392,27L66.561,27L66.901,27L67.071,27L67.247,38.538L67.411,38.538L67.581,38.538L67.921,38.538L68.093,38.538L68.267,38.538L68.43,38.538L68.6,38.538L68.941,38.538L69.111,38.538L69.285,38.538L69.451,38.538L69.62,38.538L69.96,38.538L70.131,38.538L70.305,38.538L70.471,38.538L70.64,38.538L70.981,38.538L71.15,38.538L71.328,38.538L71.492,38.538L71.66,38.538L72,38.538L72.17,38.538L72.347,38.538L72.512,38.538L72.68,38.538L73.02,38.538L73.191,38.538L73.368,38.538L73.53,38.538L73.7,38.538L74.04,38.538L74.21,38.538L74.387,38.538L74.551,38.538L74.72,38.538L75.06,38.538L75.231,38.538L75.407,38.538L75.57,38.538L75.74,38.538L76.08,38.538L76.25,38.538L76.426,38.538L76.59,38.538L76.76,38.538L77.1,38.538L77.271,38.538L77.445,38.538L77.609,38.538L77.78,38.538L78.119,38.538L78.289,38.538L78.468,38.538L78.631,38.538L78.8,38.538L79.14,38.538L79.309,38.538L79.486,38.538L79.651,38.538L79.819,38.538L80.159,38.538L80.33,38.538L80.506,38.538L80.671,38.538L80.84,38.538L81.179,38.538L81.35,38.538L81.527,38.538L81.692,38.538L81.859,38.538L82.199,38.538L82.369,38.538L82.546,38.538L82.71,38.538L82.879,38.538L83.219,38.538L83.389,38.538L83.565,38.538L83.729,38.538L83.899,38.538L84.239,38.538L84.409,38.538L84.586,38.538L84.749,38.538L84.919,38.538L85.259,38.538L85.429,38.538L85.606,38.538L85.769,38.538L85.939,38.538L86.279,38.538L86.45,38.538L86.626,38.538L86.79,38.538L86.958,38.538L87.3,38.538L87.469,38.538L87.646,38.538L87.811,38.538L87.979,38.538L88.318,38.538L88.488,38.538L88.666,38.538L88.829,38.538L88.998,38.538L89.339,38.538L89.508,38.538L89.686,38.538L89.849,38.538L90.018,38.538L90.358,38.538L90.528,38.538L90.704,38.538L90.869,38.538L91.039,38.538L91.378,38.538L91.549,38.538L91.724,38.538L91.889,38.538L92.058,38.538L92.398,38.538L92.569,38.538L92.746,38.538L92.91,38.538L93.078,38.538L93.419,38.538L93.588,38.538L93.766,38.538L93.93,38.538L94.098,38.538L94.438,38.538L94.608,38.538L94.785,38.538L94.949,38.538L95.118,38.538L95.458,38.538L95.628,38.538L95.805,38.538L95.969,38.538L96.138,38.538L96.479,38.538L96.824,38.538L96.989,38.538L97.158,38.538L97.498,38.538L97.668,38.538L97.843,38.538L98.007,38.538L98.177,38.538L98.517,38.538L98.687,38.538L98.863,38.538L99.027,38.538L99.197,38.538L99.538,38.538L99.707,38.538L99.885,38.538L100.049,38.538L100.217,38.538L100.557,38.538L100.727,38.538L100.905,38.538L101.068,38.538L101.237,38.538L101.577,38.538L101.748,38.538L101.925,38.538L102.09,38.538L102.258,38.538L102.598,38.538L102.768,38.538L102.945,38.538L103.277,38.538L103.617,38.538L103.788,38.538L103.964,38.538L104.127,38.538L104.297,38.538L104.636,38.538L104.806,38.538L104.98,38.538L105.146,38.538L105.316,38.538L105.672,38.538L105.933,38.538L106.093,38.538L106.423,38.538L106.679,38.538L106.846,38.538L107.021,38.538L107.186,38.538L107.356,38.538L107.696,38.538L107.866,38.538L108.044,38.538L108.206,38.538L108.376,38.538L108.716,38.538L108.886,38.538L109.064,38.538L109.228,38.538L109.396,38.538L109.906,38.538L110.084,38.538L110.247,38.538L110.416,38.538L110.756,38.538L110.926,38.538L111.103,38.538L111.267,38.538L111.436,38.538L111.776,38.538L111.946,38.538L112.122,38.538L112.286,38.538L112.456,38.538L112.796,38.538L112.966,38.538L113.142,38.538L113.306,38.538L113.476,38.538L113.815,38.538L113.986,38.538L114.164,38.538L114.327,38.538L114.495,38.538L114.835,38.538L115.006,38.538L115.184,38.538L115.347,38.538L115.516,38.538L115.855,38.538L116.027,38.538L116.209,38.538L116.366,38.538L116.536,38.538L116.875,38.538L117.046,38.538L117.219,38.538L117.386,38.538L117.556,38.538L117.895,38.538L118.066,38.538L118.243,38.538L118.406,38.538L118.576,38.538L118.915,38.538L119.085,38.538L119.261,38.538L119.425,38.538L119.595,38.538L119.935,38.538L120.105,38.538L120.282,38.538L120.445,38.538L120.615,38.538L120.955,38.538L121.127,38.538L121.304,38.538L121.466,38.538L121.635,38.538L121.975,38.538L122.146,38.538L122.323,38.538L122.486,38.538L122.655,38.538L122.995,38.538L123.168,38.538L123.343,38.538L123.505,38.538L123.674,38.538L124.015,38.538L124.185,38.538L124.364,38.538L124.525,38.538L124.695,38.538L125.035,38.538L125.204,38.538L125.382,38.538L125.546,38.538L125.714,38.538L126.054,38.538L126.224,38.538L126.401,38.538L126.564,38.538L126.734,38.538L127.074,38.538L127.245,38.538L127.421,38.538L127.585,38.538L127.754,38.538L128.094,38.538L128.265,38.538L128.443,38.538L128.606,38.538L128.774,38.538L129.114,38.538L129.285,38.538L129.462,30.846L129.625,30.846L129.794,30.846L130.134,30.846L130.305,30.846L130.485,30.846L130.647,30.846L130.813,30.846L131.155,30.846L131.326,30.846L131.502,30.846L131.667,30.846L131.834,30.846L132.173,30.846L132.344,30.846L132.523,30.846L132.685,30.846L132.853,30.846L133.194,30.846L133.364,30.846L133.541,30.846L133.703,30.846L133.873,30.846L134.214,30.846L134.383,30.846L134.561,30.846L134.724,30.846L134.894,30.846L135.234,30.846L135.404,30.846L135.583,30.846L135.745,30.846L135.914,30.846L136.253,30.846L136.424,30.846L136.603,30.846L136.766,30.846L136.933,30.846L137.274,30.846L137.444,30.846L137.623,30.846L137.785,30.846L137.953,30.846L138.293,30.846L138.464,30.846L138.643,30.846L138.804,30.846L138.973,30.846L139.313,30.846L139.483,30.846L139.662,30.846L139.825,30.846L139.992,30.846L140.333,30.846L140.503,30.846L140.681,30.846L140.843,30.846L141.012,30.846L141.354,30.846L141.523,30.846L141.7,30.846L141.864,30.846L142.033,30.846L142.374,30.846L142.543,30.846L142.723,30.846L142.884,30.846L143.053,30.846L143.392,30.846L143.563,30.846L143.743,30.846L143.904,30.846L144.073,30.846L144.413,30.846L144.584,30.846L144.762,38.538L144.925,38.538L145.092,38.538L145.432,38.538L145.603,38.538L145.781,38.538L145.945,38.538L146.112,38.538L146.454,38.538L146.623,38.538L146.802,38.538L146.963,38.538L147.133,38.538L147.473,38.538L147.642,38.538L147.82,38.538L147.983,38.538L148.152,38.538L148.493,38.538L148.662,38.538L148.84,38.538L149.002,38.538L149.173,38.538L149.512,38.538L149.683,38.538L149.862,38.538L150.024,38.538L150.191,38.538L150.535,38.538L150.703,38.538L150.882,38.538L151.043,38.538L151.211,38.538L151.553,38.538L151.723,38.538L151.902,38.538L152.063,38.538L152.231,38.538L152.574,38.538L152.742,38.538L152.921,38.538L153.083,38.538L153.251,38.538L153.593,30.846L153.762,30.846L153.941,30.846L154.103,30.846L154.271,30.846L154.611,30.846L154.781,30.846L154.959,30.846L155.122,30.846L155.291,30.846L155.632,30.846L155.801,30.846L155.979,30.846L156.142,30.846L156.311,30.846L156.652,30.846L156.822,30.846L157.002,30.846L157.163,30.846L157.332,30.846L157.671,30.846L157.842,30.846L158.021,30.846L158.184,30.846L158.351,30.846L158.693,30.846L158.862,30.846L159.041,30.846L159.203,30.846L159.371,30.846L159.711,30.846L159.882,30.846L160.061,30.846L160.222,30.846L160.39,30.846L160.732,30.846L160.902,30.846L161.082,30.846L161.244,30.846L161.411,30.846L161.751,30.846L161.92,30.846L162.099,30.846L162.262,30.846L162.43,30.846L162.771,30.846L162.94,30.846L163.119,30.846L163.281,30.846L163.45,30.846L163.792,30.846L163.962,30.846L164.142,30.846L164.303,30.846L164.47,30.846L164.812,30.846L164.982,30.846L165.161,30.846L165.323,30.846L165.491,30.846L165.831,30.846L166.001,34.692L166.181,34.692L166.342,34.692L166.51,34.692L166.851,34.692L167.021,34.692L167.2,34.692L167.364,34.692L167.53,34.692L167.87,34.692L168.041,34.692L168.22,40.077L168.381,40.077L168.55,40.077L168.891,40.077L169.061,40.077L169.239,40.077L169.401,40.077L169.57,40.077L169.91,40.077L170.08,40.077L170.259,40.077L170.421,40.077L170.589,40.077L170.931,40.077L171.101,40.077L171.281,40.077L171.442,40.077L171.609,40.077L171.95,40.077L172.121,40.077L172.3,40.077L172.462,40.077L172.629,40.077L172.97,40.077L173.141,40.077L173.321,40.077L173.482,40.077L173.649,40.077L173.989,40.077L174.16,40.077L174.339,40.077L174.503,40.077L174.669,40.077L175.011,40.077L175.18,40.077L175.359,40.077L175.521,40.077L175.689,40.077L176.029,40.077L176.199,40.077L176.38,40.077L176.54,40.077L176.709,40.077L177.049,40.077L177.219,40.077L177.397,40.077L177.559,40.077L177.728,40.077L178.07,40.077L178.24,40.077L178.42,40.077L178.581,40.077L178.748,40.077L179.089,40.077L179.26,40.077L179.439,40.077L179.769,40.077L180.11,40.077L180.28,40.077L180.46,40.077L180.621,40.077L180.788,40.077L181.131,40.077L181.3,40.077L181.479,40.077L181.641,40.077L181.809,40.077L182.149,40.077L182.32,40.077L182.499,40.077L182.66,40.077L182.829,40.077L183.169,40.077L183.339,40.077L183.517,40.077L183.68,40.077L183.848,40.077L184.188,40.077L184.358,40.077L184.537,40.077L184.7,40.077L184.868,40.077L185.209,40.077L185.38,40.077L185.56,40.077L185.721,40.077L185.888,40.077L186.229,40.077L186.399,40.077L186.578,40.077L186.741,40.077L186.908,40.077L187.248,40.077L187.419,40.077L187.599,40.077L187.761,40.077L187.927,40.077L188.269,40.077L188.439,40.077L188.618,40.077L188.779,40.077L188.948,40.077L189.29,40.077L189.458,40.077L189.638,40.077L189.799,40.077L189.967,40.077L190.309,40.077L190.478,40.077L190.656,40.077L190.819,40.077L190.988,40.077L191.327,40.077L191.497,40.077L191.676,40.077L191.838,40.077L192.008,40.077L192.349,40.077L192.519,40.077L192.697,40.077L192.86,40.077L193.027,40.077L193.368,40.077L193.539,40.077L193.719,40.077L193.88,40.077L194.047,40.077L194.388,40.077L194.559,40.077L194.738,40.077L194.899,40.077L195.067,40.077L195.408,40.077L195.578,40.077L195.758,40.077L195.919,40.077L196.087,40.077L196.427,40.077L196.598,40.077L196.778,40.077L196.939,40.077L197.107,40.077L197.447,40.077L197.617,40.077L197.795,40.077L197.957,40.077L198.126,40.077L198.469,40.077L198.639,40.077L198.827,40.077L198.987,40.077L199.146,40.077L199.488,40.077L199.658,40.077L199.838,40.077L200,40.077" stroke="#f58518" stroke-width="2"/></g></g><path class="foreground" aria-hidden="true" d="" display="none"/></g></g><g class="mark-group role-legend" role="graphics-symbol" aria-roledescription="legend" aria-label="Symbol legend titled 'identifier' for stroke color with 2 values: altex-LG-F2WR508SBW, altex-LG-F2WR508SBM"><g transform="translate(220,0)"><path class="background" aria-hidden="true" d="M0,0h168v40h-168Z" pointer-events="none"/><g><g class="mark-group role-legend-entry"><g transform="translate(0,16)"><path class="background" aria-hidden="true" d="M0,0h0v0h0Z" pointer-events="none"/><g><g class="mark-group role-scope" role="graphics-object" aria-roledescription="group mark container"><g transform="translate(0,0)"><path class="background" aria-hidden="true" d="M0,0h168v11h-168Z" pointer-events="none" opacity="1"/><g><g class="mark-symbol role-legend-symbol" pointer-events="none"><path transform="translate(6,6)" d="M-5,0L5,0" stroke="#4c78a8" stroke-width="1.5" opacity="1"/></g><g class="mark-text role-legend-label" pointer-events="none"><text text-anchor="start" transform="translate(16,9)" font-family="Liberation Mono" font-size="10px" fill="#000" opacity="1">altex-LG-F2WR508SBW</text></g></g><path class="foreground" aria-hidden="true" d="" pointer-events="none" display="none"/></g><g transform="translate(0,13)"><path class="background" aria-hidden="true" d="M0,0h168v11h-168Z" pointer-events="none" opacity="1"/><g><g class="mark-symbol role-legend-symbol" pointer-events="none"><path transform="translate(6,6)" d="M-5,0L5,0" stroke="#f58518" stroke-width="1.5" opacity="1"/></g><g class="mark-text role-legend-label" pointer-events="none"><text text-anchor="start" transform="translate(16,9)" font-family="Liberation Mono" font-size="10px" fill="#000" opacity="1">altex-LG-F2WR508SBM</text></g></g><path class="foreground" aria-hidden="true" d="" pointer-events="none" display="none"/></g></g></g><path class="foreground" aria-hidden="true" d="" pointer-events="none" display="none"/></g></g><g class="mark-text role-legend-title" pointer-events="none"><text text-anchor="start" transform="translate(0,9)" font-family="Liberation Mono" font-size="11px" font-weight="bold" fill="#000" opacity="1">identifier</text></g></g><path class="foreground" aria-hidden="true" d="" pointer-events="none" display="none"/></g></g></g><path class="foreground" aria-hidden="true" d="" display="none"/></g></g></g></svg>