<svg xmlns="http://www.w3.org/2000/svg" xmlns:xlink="http://www.w3.org/1999/xlink" version="1.1" class="marks" width="460" height="242" viewBox="0 0 460 242"><rect width="460" height="242" fill="white"/><g fill="none" stroke-miterlimit="10" transform="translate(67,5)"><g class="mark-group role-frame root" role="graphics-object" aria-roledescription="group mark container"><g transform="translate(0,0)"><path class="background" aria-hidden="true" d="M0.5,0.5h200v200h-200Z" stroke="#ddd"/><g><g class="mark-group role-axis" aria-hidden="true"><g transform="translate(0.5,200.5)"><path class="background" aria-hidden="true" d="M0,0h0v0h0Z" pointer-events="none"/><g><g class="mark-rule role-axis-grid" pointer-events="none"><line transform="translate(64,-200)" x2="0" y2="200" stroke="#ddd" stroke-width="1" opacity="1"/><line transform="translate(126,-200)" x2="0" y2="200" stroke="#ddd" stroke-width="1" opacity="1"/><line transform="translate(191,-200)" x2="0" y2="200" stroke="#ddd" stroke-width="1" opacity="1"/></g></g><path class="foreground" aria-hidden="true" d="" pointer-events="none" display="none"/></g></g><g class="mark-group role-axis" aria-hidden="true"><g transform="translate(0.5,0.5)"><path class="background" aria-hidden="true" d="M0,0h0v0h0Z" pointer-events="none"/><g><g class="mark-rule role-axis-grid" pointer-events="none"><line transform="translate(0,200)" x2="200" y2="0" stroke="#ddd" stroke-width="1" opacity="1"/><line transform="translate(0,162)" x2="200" y2="0" stroke="#ddd" stroke-width="1" opacity="1"/><line transform="translate(0,123)" x2="200" y2="0" stroke="#ddd" stroke-width="1" opacity="1"/><line transform="translate(0,85)" x2="200" y2="0" stroke="#ddd" stroke-width="1" opacity="1"/><line transform="translate(0,46)" x2="200" y2="0" stroke="#ddd" stroke-width="1" opacity="1"/><line transform="translate(0,8)" x2="200" y2="0" stroke="#ddd" stroke-width="1" opacity="1"/></g></g><path class="foreground" aria-hidden="true" d="" pointer-events="none" display="none"/></g></g><g class="mark-group role-axis" role="graphics-symbol" aria-roledescription="axis" aria-label="X-axis titled 'Time' for a time scale with values from Monday, 01 January 2024, 2:19:43 PM to Friday, 05 April 2024, 4:40:28 AM"><g transform="translate(0.5,200.5)"><path class="background" aria-hidden="true" d="M0,0h0v0h0Z" pointer-events="none"/><g><g class="mark-rule role-axis-tick" pointer-events="none"><line transform="translate(64,0)" x2="0" y2="5" stroke="#888" stroke-width="1" opacity="1"/><line transform="translate(126,0)" x2="0" y2="5" stroke="#888" stroke-width="1" opacity="1"/><line transform="translate(191,0)" x2="0" y2="5" stroke="#888" stroke-width="1" opacity="1"/></g><g class="mark-text role-axis-label" pointer-events="none"><text text-anchor="middle" transform="translate(64.2784277564863,15)" font-family="Liberation Mono" font-size="10px" fill="#000" opacity="1">February</text><text text-anchor="middle" transform="translate(125.59066836712685,15)" font-family="Liberation Mono" font-size="10px" fill="#000" opacity="1">March</text><text text-anchor="middle" transform="translate(191.1313393647081,15)" font-family="Liberation Mono" font-size="10px" fill="#000" opacity="1">April</text></g><g class="mark-rule role-axis-domain" pointer-events="none"><line transform="translate(0,0)" x2="200" y2="0" stroke="#888" stroke-width="1" opacity="1"/></g><g class="mark-text role-axis-title" pointer-events="none"><text text-anchor="middle" transform="translate(100,30)" font-family="Liberation Mono" font-size="11px" font-weight="bold" fill="#000" opacity="1">Time</text></g></g><path class="foreground" aria-hidden="true" d="" pointer-events="none" display="none"/></g></g><g class="mark-group role-axis" role="graphics-symbol" aria-roledescription="axis" aria-label="Y-axis titled 'Price' for a linear scale with values from 0 to 2,600"><g transform="translate(0.5,0.5)"><path class="background" aria-hidden="true" d="M0,0h0v0h0Z" pointer-events="none"/><g><g class="mark-rule role-axis-tick" pointer-events="none"><line transform="translate(0,200)" x2="-5" y2="0" stroke="#888" stroke-width="1" opacity="1"/><line transform="translate(0,162)" x2="-5" y2="0" stroke="#888" stroke-width="1" opacity="1"/><line transform="translate(0,123)" x2="-5" y2="0" stroke="#888" stroke-width="1" opacity="1"/><line transform="translate(0,85)" x2="-5" y2="0" stroke="#888" stroke-width="1" opacity="1"/><line transform="translate(0,46)" x2="-5" y2="0" stroke="#888" stroke-width="1" opacity="1"/><line transform="translate(0,8)" x2="-5" y2="0" stroke="#888" stroke-width="1" opacity="1"/></g><g class="mark-text role-axis-label" pointer-events="none"><text text-anchor="end" transform="translate(-7,203)" font-family="Liberation Mono" font-size="10px" fill="#000" opacity="1">0</text><text text-anchor="end" transform="translate(-7,164.53846153846155)" font-family="Liberation Mono" font-size="10px" fill="#000" opacity="1">500</text><text text-anchor="end" transform="translate(-7,126.07692307692308)" font-family="Liberation Mono" font-size="10px" fill="#000" opacity="1">1,000</text><text text-anchor="end" transform="translate(-7,87.61538461538463)" font-family="Liberation Mono" font-size="10px" fill="#000" opacity="1">1,500</text><text text-anchor="end" transform="translate(-7,49.153846153846146)" font-family="Liberation Mono" font-size="10px" fill="#000" opacity="1">2,000</text><text text-anchor="end" transform="translate(-7,10.692307692307686)" font-family="Liberation Mono" font-size="10px" fill="#000" opacity="1">2,500</text></g><g class="mark-rule role-axis-domain" pointer-events="none"><line transform="translate(0,200)" x2="0" y2="-200" stroke="#888" stroke-width="1" opacity="1"/></g><g class="mark-text role-axis-title" pointer-events="none"><text text-anchor="middle" transform="translate(-51,100) rotate(-90) translate(0,-2)" font-family="Liberation Mono" font-size="11px" font-weight="bold" fill="#000" opacity="1">Price</text></g></g><path class="foreground" aria-hidden="true" d="" pointer-events="none" display="none"/></g></g><g class="mark-group role-scope pathgroup" role="graphics-object" aria-roledescription="group mark container"><g transform="translate(0,0)"><path class="background" aria-hidden="true" d="M0,0h200v200h-200Z"/><g><g class="mark-line role-mark marks" role="graphics-object" aria-roledescription="line mark container"><path aria-label="Time: Jan 01, 2024; Price: 2399; identifier: altex-LG-F2WR508SBW" role="graphics-symbol" aria-roledescription="line mark" d="M0,15.462L0.221,15.462L0.556,15.462L1.261,15.462L1.614,15.462L1.984,15.462L2.321,15.462L2.67,15.462L3.375,15.462L3.728,15.462L4.099,15.462L4.435,15.462L4.784,15.462L5.49,15.462L5.842,15.462L6.212,15.462L6.552,15.462L6.899,15.462L7.605,34.692L7.957,34.692L8.327,34.692L8.665,34.692L9.013,34.692L9.718,34.692L10.07,34.692L10.439,34.692L10.778,34.692L11.127,34.692L11.834,34.692L12.184,34.692L12.553,34.692L12.892,34.692L13.241,34.692L13.948,34.692L14.301,34.692L14.672,34.692L15.009,34.692L15.355,34.692L16.063,34.692L16.415,34.692L16.79,34.692L17.124,34.692L17.47,34.692L18.177,34.692L18.529,34.692L18.9,34.692L19.236,34.692L19.584,34.692L20.29,34.692L20.643,34.692L21.015,34.692L21.352,34.692L21.698,34.692L22.404,34.692L22.757,34.692L23.127,34.692L23.465,34.692L23.813,34.692L24.518,46.231L24.869,46.231L25.239,46.231L25.577,46.231L25.926,46.231L26.633,46.231L26.983,46.231L27.353,46.231L27.691,46.231L28.041,46.231L28.748,46.231L29.101,46.231L29.473,46.231L29.809,46.231L30.155,46.231L30.861,46.231L31.215,46.231L31.586,46.231L31.924,46.231L32.269,46.231L32.976,46.231L33.329,46.231L33.701,46.231L34.037,46.231L34.383,46.231L35.089,46.231L35.442,46.231L35.814,46.231L36.15,46.231L36.498,46.231L37.204,46.231L37.557,46.231L37.928,46.231L38.266,46.231L38.612,46.231L39.318,46.231L39.669,46.231L40.038,46.231L40.378,46.231L40.726,46.231L41.431,46.231L41.783,46.231L42.152,46.231L42.491,46.231L42.84,46.231L43.548,46.231L43.901,46.231L44.273,46.231L44.608,46.231L44.955,46.231L45.661,46.231L46.015,46.231L46.387,46.231L46.724,46.231L47.069,46.231L47.776,46.231L48.129,46.231L48.501,46.231L48.837,46.231L49.183,46.231L49.891,46.231L50.242,46.231L50.615,46.231L50.953,46.231L51.297,46.231L52.003,46.231L52.356,46.231L52.722,46.231L53.06,46.231L53.412,46.231L54.116,46.231L54.469,46.231L54.831,46.231L55.173,46.231L55.525,46.231L56.23,46.231L56.583,46.231L56.946,46.231L57.287,46.231L57.64,46.231L58.345,46.231L58.698,46.231L59.064,46.231L59.402,46.231L59.754,46.231L60.458,46.231L60.811,46.231L61.177,46.231L61.521,46.231L61.868,46.231L62.572,46.231L62.925,46.231L63.292,46.231L63.63,46.231L63.982,46.231L64.687,34.692L65.04,34.692L65.407,34.692L65.744,34.692L66.096,34.692L66.802,34.692L67.154,34.692L67.52,34.692L67.858,34.692L68.211,34.692L68.916,34.692L69.268,34.692L69.631,34.692L69.972,34.692L70.326,34.692L71.032,34.692L71.383,34.692L71.745,34.692L72.086,34.692L72.439,34.692L73.144,34.692L73.498,34.692L73.864,34.692L74.202,34.692L74.553,34.692L75.258,34.692L75.61,34.692L75.978,34.692L76.316,34.692L76.668,34.692L77.372,34.692L77.725,34.692L78.091,34.692L78.432,34.692L78.782,34.692L79.487,34.692L79.84,34.692L80.205,34.692L80.545,34.692L80.896,34.692L81.601,34.692L81.954,34.692L82.318,34.692L82.659,34.692L83.011,34.692L83.715,34.692L84.067,34.692L84.432,34.692L84.772,34.692L85.125,34.692L85.831,34.692L86.182,34.692L86.545,34.692L86.886,34.692L87.239,34.692L87.944,34.692L88.296,34.692L88.664,34.692L89.001,34.692L89.353,34.692L90.057,34.692L90.41,34.692L90.776,34.692L91.12,34.692L91.467,34.692L92.172,34.692L92.524,34.692L92.891,34.692L93.23,34.692L93.581,34.692L94.638,34.692L95.005,34.692L95.344,34.692L95.696,34.692L96.401,34.692L96.753,34.692L97.119,34.692L97.46,34.692L97.81,34.692L98.515,34.692L98.867,34.692L99.23,34.692L99.572,34.692L99.924,34.692L100.629,34.692L100.983,34.692L101.345,34.692L101.686,34.692L102.038,34.692L102.743,34.692L103.097,34.692L103.464,34.692L103.804,34.692L104.152,34.692L104.858,34.692L105.21,34.692L105.575,34.692L105.916,34.692L106.268,34.692L106.971,34.692L107.324,34.692L107.691,34.692L108.03,34.692L108.381,34.692L109.086,34.692L109.438,34.692L109.805,34.692L110.144,34.692L110.495,34.692L111.2,34.692L111.552,34.692L111.917,34.692L112.257,34.692L112.611,34.692L113.314,34.692L113.666,34.692L114.029,34.692L114.371,34.692L114.723,34.692L115.428,34.692L115.781,34.692L116.144,34.692L116.487,34.692L116.837,34.692L117.542,34.692L117.896,34.692L118.262,34.692L118.601,34.692L118.952,34.692L119.657,34.692L120.01,34.692L120.375,34.692L120.715,34.692L121.066,34.692L121.771,34.692L122.123,34.692L122.489,34.692L122.83,34.692L123.181,34.692L123.885,34.692L124.237,34.692L124.602,34.692L124.942,34.692L125.294,34.692L125.999,34.692L126.353,34.692L126.718,34.692L127.057,34.692L127.409,34.692L128.114,34.692L128.466,34.692L128.832,34.692L129.17,34.692L129.523,34.692L130.228,34.692L130.58,34.692L130.943,34.692L131.285,34.692L131.637,34.692L132.374,34.692L132.856,34.692L133.066,34.692L133.401,34.692L133.752,34.692L134.456,34.692L134.808,34.692L135.177,34.692L135.514,34.692L135.865,34.692L136.57,34.692L136.926,34.692L137.291,34.692L137.63,34.692L137.98,34.692L138.684,34.692L139.038,34.692L139.403,34.692L139.742,34.692L140.095,34.692L140.799,34.692L141.156,34.692L141.518,34.692L141.855,34.692L142.208,34.692L142.913,34.692L143.266,34.692L143.628,34.692L143.972,34.692L144.322,34.692L145.027,34.692L145.382,34.692L145.742,34.692L146.085,34.692L146.436,34.692L147.143,34.692L147.494,34.692L147.862,34.692L148.201,34.692L148.551,34.692L149.256,34.692L149.608,34.692L149.975,34.692L150.316,34.692L150.665,34.692L151.37,34.692L151.725,34.692L152.09,34.692L152.427,34.692L152.779,34.692L153.484,34.692L153.837,34.692L154.204,34.692L154.543,34.692L154.894,34.692L155.598,34.692L155.953,34.692L156.317,34.692L156.656,34.692L157.008,34.692L157.713,34.692L158.066,34.692L158.43,34.692L158.77,34.692L159.123,34.692L159.827,34.692L160.181,34.692L160.544,34.692L160.884,34.692L161.236,34.692L161.941,34.692L162.293,34.692L162.663,34.692L163.002,34.692L163.352,34.692L164.056,34.692L164.408,34.692L164.774,34.692L165.117,34.692L165.464,34.692L166.169,34.692L166.523,34.692L166.889,34.692L167.231,34.692L167.58,34.692L168.284,34.692L168.637,34.692L169.004,34.692L169.346,34.692L169.693,34.692L170.398,34.692L170.75,34.692L171.117,34.692L171.456,34.692L171.808,34.692L172.512,34.692L172.864,34.692L173.23,34.692L173.569,34.692L173.921,34.692L174.626,34.692L174.979,34.692L175.346,34.692L175.683,34.692L176.036,34.692L176.741,34.692L177.093,34.692L177.46,34.692L177.799,34.692L178.15,34.692L178.855,34.692L179.21,34.692L179.575,34.692L179.915,34.692L180.264,34.692L180.972,34.692L181.323,34.692L181.69,34.692L182.031,34.692L182.379,34.692L183.083,34.692L183.436,34.692L183.804,34.692L184.142,34.692L184.492,34.692L185.198,34.692L185.55,34.692L185.918,34.692L186.256,34.692L186.607,34.692L187.311,34.692L187.664,34.692L188.028,34.692L188.37,34.692L188.723,34.692L189.426,34.692L189.78,34.692L190.144,34.692L190.485,34.692L190.835,34.692L191.539,34.692L191.895,34.692L192.262,34.692L192.602,34.692L192.949,34.692L193.656,34.692L194.008,34.692L194.376,34.692L194.715,34.692L195.063,34.692L195.768,34.692L196.121,34.692L196.488,34.692L196.829,34.692L197.178,34.692L197.884,34.692L198.236,34.692L198.603,34.692L198.942,34.692L199.293,34.692L200,34.692" stroke="#4c78a8" stroke-width="2"/></g></g><path class="foreground" aria-hidden="true" d="" display="none"/></g><g transform="translate(0,0)"><path class="background" aria-hidden="true" d="M0,0h200v200h-200Z"/><g><g class="mark-line role-mark marks" role="graphics-object" aria-roledescription="line mark container"><path aria-label="Time: Jan 01, 2024; Price: 2499; identifier: altex-LG-F2WR508SBM" role="graphics-symbol" aria-roledescription="line mark" d="M0,7.769L0.221,7.769L0.556,7.769L1.261,7.769L1.614,7.769L1.984,7.769L2.321,7.769L2.67,7.769L3.375,7.769L3.728,7.769L4.099,7.769L4.435,7.769L4.784,7.769L5.49,7.769L5.842,7.769L6.212,7.769L6.552,7.769L6.899,7.769L7.605,27L7.957,27L8.327,27L8.665,27L9.013,27L9.718,27L10.07,27L10.439,27L10.778,27L11.127,27L11.834,27L12.184,27L12.553,27L12.892,27L13.241,27L13.948,27L14.301,27L14.672,27L15.009,27L15.355,27L16.063,27L16.415,27L16.79,27L17.124,27L17.47,27L18.177,27L18.529,27L18.9,27L19.236,27L19.584,27L20.29,27L20.643,27L21.015,27L21.352,27L21.698,27L22.404,27L22.757,27L23.128,27L23.465,27L23.813,27L24.518,38.538L24.869,38.538L25.239,38.538L25.577,38.538L25.926,38.538L26.633,38.538L26.984,38.538L27.353,38.538L27.691,38.538L28.041,38.538L28.748,38.538L29.101,38.538L29.473,38.538L29.809,38.538L30.155,38.538L30.861,38.538L31.215,38.538L31.586,38.538L31.924,38.538L32.269,38.538L32.976,38.538L33.329,38.538L33.701,38.538L34.037,38.538L34.383,38.538L35.089,38.538L35.442,38.538L35.814,38.538L36.15,38.538L36.499,38.538L37.204,38.538L37.557,38.538L37.928,38.538L38.266,38.538L38.612,38.538L39.318,38.538L39.669,38.538L40.038,38.538L40.378,38.538L40.727,38.538L41.431,38.538L41.783,38.538L42.153,38.538L42.491,38.538L42.84,38.538L43.549,38.538L43.902,38.538L44.273,38.538L44.608,38.538L44.955,38.538L45.661,38.538L46.015,38.538L46.387,38.538L46.724,38.538L47.069,38.538L47.776,38.538L48.129,38.538L48.501,38.538L48.837,38.538L49.183,38.538L49.891,38.538L50.243,38.538L50.615,38.538L50.953,38.538L51.297,38.538L52.003,38.538L52.356,38.538L52.722,38.538L53.06,38.538L53.412,38.538L54.116,38.538L54.469,38.538L54.831,38.538L55.173,38.538L55.525,38.538L56.231,38.538L56.583,38.538L56.946,38.538L57.288,38.538L57.64,38.538L58.345,38.538L58.698,38.538L59.064,38.538L59.402,38.538L59.754,38.538L60.458,38.538L60.811,38.538L61.177,38.538L61.521,38.538L61.868,38.538L62.573,38.538L62.925,38.538L63.292,38.538L63.63,38.538L63.982,38.538L64.687,27L65.04,27L65.407,27L65.744,27L66.096,27L66.802,27L67.154,27L67.52,27L67.858,27L68.211,27L68.916,27L69.268,27L69.631,27L69.973,27L70.326,27L71.032,27L71.383,27L71.745,27L72.087,27L72.439,27L73.144,27L73.498,27L73.864,27L74.202,27L74.553,27L75.258,27L75.611,27L75.978,27L76.316,27L76.668,27L77.372,27L77.725,27L78.091,27L78.432,27L78.782,27L79.487,27L79.84,27L80.205,27L80.545,27L80.896,27L81.601,27L81.954,27L82.318,27L82.659,27L83.011,27L83.715,27L84.067,27L84.432,27L84.772,27L85.125,27L85.831,27L86.182,27L86.545,27L86.887,27L87.239,27L87.944,27L88.296,27L88.664,27L89.001,27L89.353,27L90.057,27L90.41,27L90.776,27L91.12,27L91.467,27L92.172,27L92.525,27L92.891,27L93.23,27L93.581,27L94.638,27L95.005,27L95.344,27L95.696,27L96.401,27L96.753,27L97.119,27L97.46,27L97.81,27L98.516,27L98.867,27L99.23,27L99.572,27L99.924,27L100.629,27L100.983,27L101.345,27L101.686,27L102.038,27L102.743,27L103.097,27L103.464,27L103.804,27L104.152,27L104.858,27L105.21,27L105.575,27L105.916,27L106.268,27L106.971,27L107.324,27L107.691,27L108.03,27L108.382,27L109.086,27L109.438,27L109.805,27L110.144,27L110.496,27L111.2,27L111.552,27L111.918,27L112.257,27L112.611,27L113.314,27L113.666,27L114.029,27L114.371,27L114.723,27L115.428,27L115.781,27L116.144,27L116.487,27L116.837,27L117.542,27L117.896,27L118.262,27L118.601,27L118.952,27L119.657,27L120.01,27L120.375,27L120.715,27L121.066,27L121.771,27L122.123,27L122.489,27L122.83,27L123.181,27L123.885,27L124.237,27L124.602,27L124.942,27L125.294,27L125.999,27L126.353,27L126.718,27L127.057,27L127.409,27L128.114,27L128.466,27L128.832,27L129.171,27L129.523,27L130.228,27L130.58,27L130.943,27L131.285,27L131.637,27L132.374,27L132.856,27L133.066,27L133.401,27L133.752,27L134.456,27L134.808,27L135.177,27L135.514,27L135.865,27L136.57,27L136.926,27L137.291,27L137.63,27L137.98,27L138.684,27L139.038,27L139.403,38.538L139.742,38.538L140.095,38.538L140.799,38.538L141.156,38.538L141.518,38.538L141.855,38.538L142.208,38.538L142.914,38.538L143.266,38.538L143.628,38.538L143.972,38.538L144.322,38.538L145.027,38.538L145.382,38.538L145.742,38.538L146.085,38.538L146.436,38.538L147.143,38.538L147.494,38.538L147.862,38.538L148.201,38.538L148.551,38.538L149.256,38.538L149.608,38.538L149.975,38.538L150.316,38.538L150.665,38.538L151.37,38.538L151.725,38.538L152.09,38.538L152.427,38.538L152.779,38.538L153.484,38.538L153.837,38.538L154.205,38.538L154.543,38.538L154.894,38.538L155.598,38.538L155.953,38.538L156.317,38.538L156.657,38.538L157.008,38.538L157.713,38.538L158.067,38.538L158.43,38.538L158.77,38.538L159.123,38.538L159.827,38.538L160.181,38.538L160.544,38.538L160.884,38.538L161.237,38.538L161.941,38.538L162.293,38.538L162.663,38.538L163.002,38.538L163.352,38.538L164.056,38.538L164.408,38.538L164.774,38.538L165.117,38.538L165.464,38.538L166.169,38.538L166.523,38.538L166.889,38.538L167.231,38.538L167.58,38.538L168.284,38.538L168.637,38.538L169.004,38.538L169.346,38.538L169.693,38.538L170.398,38.538L170.75,38.538L171.117,38.538L171.456,38.538L171.808,38.538L172.512,38.538L172.864,38.538L173.23,38.538L173.569,38.538L173.921,38.538L174.627,38.538L174.979,38.538L175.346,38.538L175.683,38.538L176.036,38.538L176.741,38.538L177.093,38.538L177.46,38.538L177.799,38.538L178.15,38.538L178.855,38.538L179.21,38.538L179.575,38.538L179.915,38.538L180.264,38.538L180.972,38.538L181.323,38.538L181.69,38.538L182.031,38.538L182.379,38.538L183.083,38.538L183.436,38.538L183.804,38.538L184.142,38.538L184.492,38.538L185.198,38.538L185.55,38.538L185.918,38.538L186.256,38.538L186.607,38.538L187.311,38.538L187.664,38.538L188.028,38.538L188.37,38.538L188.723,38.538L189.426,38.538L189.78,38.538L190.144,38.538L190.485,38.538L190.835,38.538L191.54,38.538L191.895,38.538L192.262,38.538L192.602,38.538L192.949,38.538L193.656,38.538L194.008,38.538L194.376,38.538L194.715,38.538L195.063,38.538L195.768,38.538L196.121,38.538L196.488,38.538L196.829,38.538L197.178,38.538L197.884,38.538L198.236,38.538L198.603,38.538L198.942,38.538L199.293,38.538L200,38.538" stroke="#f58518" stroke-width="2"/></g></g><path class="foreground" aria-hidden="true" d="" display="none"/></g></g><g class="mark-group role-legend" role="graphics-symbol" aria-roledescription="legend" aria-label="Symbol legend titled 'identifier' for stroke color with 2 values: altex-LG-F2WR508SBW, altex-LG-F2WR508SBM"><g transform="translate(220,0)"><path class="background" aria-hidden="true" d="M0,0h168v40h-168Z" pointer-events="none"/><g><g class="mark-group role-legend-entry"><g transform="translate(0,16)"><path class="background" aria-hidden="true" d="M0,0h0v0h0Z" pointer-events="none"/><g><g class="mark-group role-scope" role="graphics-object" aria-roledescription="group mark container"><g transform="translate(0,0)"><path class="background" aria-hidden="true" d="M0,0h168v11h-168Z" pointer-events="none" opacity="1"/><g><g class="mark-symbol role-legend-symbol" pointer-events="none"><path transform="translate(6,6)" d="M-5,0L5,0" stroke="#4c78a8" stroke-width="1.5" opacity="1"/></g><g class="mark-text role-legend-label" pointer-events="none"><text text-anchor="start" transform="translate(16,9)" font-family="Liberation Mono" font-size="10px" fill="#000" opacity="1">altex-LG-F2WR508SBW</text></g></g><path class="foreground" aria-hidden="true" d="" pointer-events="none" display="none"/></g><g transform="translate(0,13)"><path class="background" aria-hidden="true" d="M0,0h168v11h-168Z" pointer-events="none" opacity="1"/><g><g class="mark-symbol role-legend-symbol" pointer-events="none"><path transform="translate(6,6)" d="M-5,0L5,0" stroke="#f58518" stroke-width="1.5" opacity="1"/></g><g class="mark-text role-legend-label" pointer-events="none"><text text-anchor="start" transform="translate(16,9)" font-family="Liberation Mono" font-size="10px" fill="#000" opacity="1">altex-LG-F2WR508SBM</text></g></g><path class="foreground" aria-hidden="true" d="" pointer-events="none" display="none"/></g></g></g><path class="foreground" aria-hidden="true" d="" pointer-events="none" display="none"/></g></g><g class="mark-text role-legend-title" pointer-events="none"><text text-anchor="start" transform="translate(0,9)" font-family="Liberation Mono" font-size="11px" font-weight="bold" fill="#000" opacity="1">identifier</text></g></g><path class="foreground" aria-hidden="true" d="" pointer-events="none" display="none"/></g></g></g><path class="foreground" aria-hidden="true" d="" display="none"/></g></g></g></svg>