<svg xmlns="http://www.w3.org/2000/svg" xmlns:xlink="http://www.w3.org/1999/xlink" version="1.1" class="marks" width="460" height="242" viewBox="0 0 460 242"><rect width="460" height="242" fill="white"/><g fill="none" stroke-miterlimit="10" transform="translate(67,5)"><g class="mark-group role-frame root" role="graphics-object" aria-roledescription="group mark container"><g transform="translate(0,0)"><path class="background" aria-hidden="true" d="M0.5,0.5h200v200h-200Z" stroke="#ddd"/><g><g class="mark-group role-axis" aria-hidden="true"><g transform="translate(0.5,200.5)"><path class="background" aria-hidden="true" d="M0,0h0v0h0Z" pointer-events="none"/><g><g class="mark-rule role-axis-grid" pointer-events="none"><line transform="translate(25,-200)" x2="0" y2="200" stroke="#ddd" stroke-width="1" opacity="1"/><line transform="translate(50,-200)" x2="0" y2="200" stroke="#ddd" stroke-width="1" opacity="1"/><line transform="translate(76,-200)" x2="0" y2="200" stroke="#ddd" stroke-width="1" opacity="1"/><line transform="translate(101,-200)" x2="0" y2="200" stroke="#ddd" stroke-width="1" opacity="1"/><line transform="translate(127,-200)" x2="0" y2="200" stroke="#ddd" stroke-width="1" opacity="1"/><line transform="translate(152,-200)" x2="0" y2="200" stroke="#ddd" stroke-width="1" opacity="1"/><line transform="translate(178,-200)" x2="0" y2="200" stroke="#ddd" stroke-width="1" opacity="1"/></g></g><path class="foreground" aria-hidden="true" d="" pointer-events="none" display="none"/></g></g><g class="mark-group role-axis" aria-hidden="true"><g transform="translate(0.5,0.5)"><path class="background" aria-hidden="true" d="M0,0h0v0h0Z" pointer-events="none"/><g><g class="mark-rule role-axis-grid" pointer-events="none"><line transform="translate(0,200)" x2="200" y2="0" stroke="#ddd" stroke-width="1" opacity="1"/><line transform="translate(0,162)" x2="200" y2="0" stroke="#ddd" stroke-width="1" opacity="1"/><line transform="translate(0,123)" x2="200" y2="0" stroke="#ddd" stroke-width="1" opacity="1"/><line transform="translate(0,85)" x2="200" y2="0" stroke="#ddd" stroke-width="1" opacity="1"/><line transform="translate(0,46)" x2="200" y2="0" stroke="#ddd" stroke-width="1" opacity="1"/><line transform="translate(0,8)" x2="200" y2="0" stroke="#ddd" stroke-width="1" opacity="1"/></g></g><path class="foreground" aria-hidden="true" d="" pointer-events="none" display="none"/></g></g><g class="mark-group role-axis" role="graphics-symbol" aria-roledescription="axis" aria-label="X-axis titled 'Time' for a time scale with values from Monday, 01 January 2024, 2:19:43 PM to Tuesday, 27 August 2024, 12:56:46 PM"><g transform="translate(0.5,200.5)"><path class="background" aria-hidden="true" d="M0,0h0v0h0Z" pointer-events="none"/><g><g class="mark-rule role-axis-tick" pointer-events="none"><line transform="translate(25,0)" x2="0" y2="5" stroke="#888" stroke-width="1" opacity="1"/><line transform="translate(50,0)" x2="0" y2="5" stroke="#888" stroke-width="1" opacity="1"/><line transform="translate(76,0)" x2="0" y2="5" stroke="#888" stroke-width="1" opacity="1"/><line transform="translate(101,0)" x2="0" y2="5" stroke="#888" stroke-width="1" opacity="1"/><line transform="translate(127,0)" x2="0" y2="5" stroke="#888" stroke-width="1" opacity="1"/><line transform="translate(152,0)" x2="0" y2="5" stroke="#888" stroke-width="1" opacity="1"/><line transform="translate(178,0)" x2="0" y2="5" stroke="#888" stroke-width="1" opacity="1"/></g><g class="mark-text role-axis-label" pointer-events="none"><text text-anchor="middle" transform="translate(25.44795143534739,15)" font-family="Liberation Mono" font-size="10px" fill="#000" opacity="1">February</text><text text-anchor="middle" transform="translate(49.72158375508734,15)" font-family="Liberation Mono" font-size="10px" fill="#000" opacity="0">March</text><text text-anchor="middle" transform="translate(75.6692596830852,15)" font-family="Liberation Mono" font-size="10px" fill="#000" opacity="0">April</text><text text-anchor="middle" transform="translate(100.7799138069541,15)" font-family="Liberation Mono" font-size="10px" fill="#000" opacity="0">May</text><text text-anchor="middle" transform="translate(126.72758973495198,15)" font-family="Liberation Mono" font-size="10px" fill="#000" opacity="0">June</text><text text-anchor="middle" transform="translate(151.83824385882087,15)" font-family="Liberation Mono" font-size="10px" fill="#000" opacity="0">July</text><text text-anchor="middle" transform="translate(177.78591978681874,15)" font-family="Liberation Mono" font-size="10px" fill="#000" opacity="1">August</text></g><g class="mark-rule role-axis-domain" pointer-events="none"><line transform="translate(0,0)" x2="200" y2="0" stroke="#888" stroke-width="1" opacity="1"/></g><g class="mark-text role-axis-title" pointer-events="none"><text text-anchor="middle" transform="translate(100,30)" font-family="Liberation Mono" font-size="11px" font-weight="bold" fill="#000" opacity="1">Time</text></g></g><path class="foreground" aria-hidden="true" d="" pointer-events="none" display="none"/></g></g><g class="mark-group role-axis" role="graphics-symbol" aria-roledescription="axis" aria-label="Y-axis titled 'Price' for a linear scale with values from 0 to 2,600"><g transform="translate(0.5,0.5)"><path class="background" aria-hidden="true" d="M0,0h0v0h0Z" pointer-events="none"/><g><g class="mark-rule role-axis-tick" pointer-events="none"><line transform="translate(0,200)" x2="-5" y2="0" stroke="#888" stroke-width="1" opacity="1"/><line transform="translate(0,162)" x2="-5" y2="0" stroke="#888" stroke-width="1" opacity="1"/><line transform="translate(0,123)" x2="-5" y2="0" stroke="#888" stroke-width="1" opacity="1"/><line transform="translate(0,85)" x2="-5" y2="0" stroke="#888" stroke-width="1" opacity="1"/><line transform="translate(0,46)" x2="-5" y2="0" stroke="#888" stroke-width="1" opacity="1"/><line transform="translate(0,8)" x2="-5" y2="0" stroke="#888" stroke-width="1" opacity="1"/></g><g class="mark-text role-axis-label" pointer-events="none"><text text-anchor="end" transform="translate(-7,203)" font-family="Liberation Mono" font-size="10px" fill="#000" opacity="1">0</text><text text-anchor="end" transform="translate(-7,164.53846153846155)" font-family="Liberation Mono" font-size="10px" fill="#000" opacity="1">500</text><text text-anchor="end" transform="translate(-7,126.07692307692308)" font-family="Liberation Mono" font-size="10px" fill="#000" opacity="1">1,000</text><text text-anchor="end" transform="translate(-7,87.61538461538463)" font-family="Liberation Mono" font-size="10px" fill="#000" opacity="1">1,500</text><text text-anchor="end" transform="translate(-7,49.153846153846146)" font-family="Liberation Mono" font-size="10px" fill="#000" opacity="1">2,000</text><text text-anchor="end" transform="translate(-7,10.692307692307686)" font-family="Liberation Mono" font-size="10px" fill="#000" opacity="1">2,500</text></g><g class="mark-rule role-axis-domain" pointer-events="none"><line transform="translate(0,200)" x2="0" y2="-200" stroke="#888" stroke-width="1" opacity="1"/></g><g class="mark-text role-axis-title" pointer-events="none"><text text-anchor="middle" transform="translate(-51,100) rotate(-90) translate(0,-2)" font-family="Liberation Mono" font-size="11px" font-weight="bold" fill="#000" opacity="1">Price</text></g></g><path class="foreground" aria-hidden="true" d="" pointer-events="none" display="none"/></g></g><g class="mark-group role-scope pathgroup" role="graphics-object" aria-roledescription="group mark container"><g transform="translate(0,0)"><path class="background" aria-hidden="true" d="M0,0h200v200h-200Z"/><g><g class="mark-line role-mark marks" role="graphics-object" aria-roledescription="line mark container"><path aria-label="Time: Jan 01, 2024; Price: 2399; identifier: altex-LG-F2WR508SBW" role="graphics-symbol" aria-roledescription="line mark" d="M0,15.462L0.088,15.462L0.22,15.462L0.499,15.462L0.639,15.462L0.785,15.462L0.919,15.462L1.057,15.462L1.336,15.462L1.476,15.462L1.623,15.462L1.756,15.462L1.894,15.462L2.173,15.462L2.313,15.462L2.459,15.462L2.594,15.462L2.731,15.462L3.011,34.692L3.15,34.692L3.297,34.692L3.431,34.692L3.568,34.692L3.847,34.692L3.987,34.692L4.133,34.692L4.267,34.692L4.405,34.692L4.685,34.692L4.824,34.692L4.97,34.692L5.104,34.692L5.242,34.692L5.522,34.692L5.662,34.692L5.809,34.692L5.942,34.692L6.079,34.692L6.359,34.692L6.499,34.692L6.647,34.692L6.779,34.692L6.916,34.692L7.196,34.692L7.336,34.692L7.483,34.692L7.616,34.692L7.753,34.692L8.033,34.692L8.173,34.692L8.32,34.692L8.453,34.692L8.59,34.692L8.87,34.692L9.01,34.692L9.156,34.692L9.29,34.692L9.427,34.692L9.707,46.231L9.846,46.231L9.992,46.231L10.126,46.231L10.264,46.231L10.544,46.231L10.683,46.231L10.829,46.231L10.963,46.231L11.101,46.231L11.381,46.231L11.521,46.231L11.668,46.231L11.801,46.231L11.938,46.231L12.218,46.231L12.358,46.231L12.505,46.231L12.639,46.231L12.775,46.231L13.055,46.231L13.195,46.231L13.342,46.231L13.475,46.231L13.612,46.231L13.892,46.231L14.032,46.231L14.179,46.231L14.312,46.231L14.45,46.231L14.729,46.231L14.869,46.231L15.016,46.231L15.15,46.231L15.286,46.231L15.566,46.231L15.705,46.231L15.851,46.231L15.986,46.231L16.124,46.231L16.403,46.231L16.542,46.231L16.688,46.231L16.822,46.231L16.961,46.231L17.241,46.231L17.381,46.231L17.528,46.231L17.66,46.231L17.798,46.231L18.077,46.231L18.218,46.231L18.365,46.231L18.498,46.231L18.635,46.231L18.915,46.231L19.054,46.231L19.202,46.231L19.335,46.231L19.472,46.231L19.752,46.231L19.891,46.231L20.039,46.231L20.172,46.231L20.309,46.231L20.588,46.231L20.728,46.231L20.873,46.231L21.006,46.231L21.146,46.231L21.425,46.231L21.564,46.231L21.708,46.231L21.843,46.231L21.982,46.231L22.262,46.231L22.401,46.231L22.545,46.231L22.68,46.231L22.82,46.231L23.099,46.231L23.239,46.231L23.383,46.231L23.517,46.231L23.657,46.231L23.935,46.231L24.075,46.231L24.22,46.231L24.356,46.231L24.494,46.231L24.773,46.231L24.912,46.231L25.057,46.231L25.191,46.231L25.331,46.231L25.61,34.692L25.749,34.692L25.895,34.692L26.028,34.692L26.168,34.692L26.447,34.692L26.586,34.692L26.731,34.692L26.865,34.692L27.005,34.692L27.284,34.692L27.423,34.692L27.567,34.692L27.702,34.692L27.842,34.692L28.122,34.692L28.261,34.692L28.404,34.692L28.539,34.692L28.679,34.692L28.958,34.692L29.098,34.692L29.243,34.692L29.377,34.692L29.516,34.692L29.795,34.692L29.934,34.692L30.08,34.692L30.214,34.692L30.353,34.692L30.632,34.692L30.772,34.692L30.916,34.692L31.051,34.692L31.19,34.692L31.469,34.692L31.609,34.692L31.753,34.692L31.888,34.692L32.027,34.692L32.306,34.692L32.446,34.692L32.59,34.692L32.725,34.692L32.864,34.692L33.143,34.692L33.282,34.692L33.427,34.692L33.561,34.692L33.701,34.692L33.981,34.692L34.12,34.692L34.263,34.692L34.399,34.692L34.538,34.692L34.817,34.692L34.956,34.692L35.102,34.692L35.236,34.692L35.375,34.692L35.654,34.692L35.793,34.692L35.938,34.692L36.075,34.692L36.212,34.692L36.491,34.692L36.631,34.692L36.776,34.692L36.91,34.692L37.049,34.692L37.468,34.692L37.613,34.692L37.747,34.692L37.886,34.692L38.165,34.692L38.305,34.692L38.45,34.692L38.584,34.692L38.723,34.692L39.002,34.692L39.141,34.692L39.285,34.692L39.421,34.692L39.56,34.692L39.839,34.692L39.979,34.692L40.123,34.692L40.258,34.692L40.397,34.692L40.676,34.692L40.816,34.692L40.961,34.692L41.096,34.692L41.234,34.692L41.514,34.692L41.653,34.692L41.797,34.692L41.932,34.692L42.072,34.692L42.35,34.692L42.49,34.692L42.635,34.692L42.769,34.692L42.908,34.692L43.187,34.692L43.327,34.692L43.472,34.692L43.606,34.692L43.745,34.692L44.024,34.692L44.164,34.692L44.308,34.692L44.443,34.692L44.583,34.692L44.861,34.692L45.001,34.692L45.144,34.692L45.28,34.692L45.419,34.692L45.698,34.692L45.838,34.692L45.982,34.692L46.118,34.692L46.256,34.692L46.535,34.692L46.675,34.692L46.82,34.692L46.954,34.692L47.093,34.692L47.372,34.692L47.512,34.692L47.657,34.692L47.791,34.692L47.93,34.692L48.209,34.692L48.349,34.692L48.494,34.692L48.629,34.692L48.767,34.692L49.046,34.692L49.186,34.692L49.33,34.692L49.465,34.692L49.604,34.692L49.883,34.692L50.023,34.692L50.168,34.692L50.302,34.692L50.441,34.692L50.72,34.692L50.86,34.692L51.005,34.692L51.139,34.692L51.278,34.692L51.557,34.692L51.697,34.692L51.841,34.692L51.976,34.692L52.116,34.692L52.407,34.692L52.598,34.692L52.681,34.692L52.814,34.692L52.953,34.692L53.231,34.692L53.371,34.692L53.517,34.692L53.65,34.692L53.789,34.692L54.068,34.692L54.209,34.692L54.354,34.692L54.488,34.692L54.626,34.692L54.905,34.692L55.045,34.692L55.19,34.692L55.324,34.692L55.464,34.692L55.743,34.692L55.884,34.692L56.027,34.692L56.161,34.692L56.3,34.692L56.58,34.692L56.719,34.692L56.862,34.692L56.999,34.692L57.137,34.692L57.417,34.692L57.557,34.692L57.7,34.692L57.835,34.692L57.974,34.692L58.254,34.692L58.393,34.692L58.539,34.692L58.673,34.692L58.812,34.692L59.091,34.692L59.23,34.692L59.375,34.692L59.51,34.692L59.648,34.692L59.928,34.692L60.068,34.692L60.213,34.692L60.346,34.692L60.486,34.692L60.765,34.692L60.904,34.692L61.05,34.692L61.184,34.692L61.323,34.692L61.602,34.692L61.742,34.692L61.886,34.692L62.021,34.692L62.16,34.692L62.439,34.692L62.579,34.692L62.723,34.692L62.857,34.692L62.997,34.692L63.276,34.692L63.416,34.692L63.559,34.692L63.694,34.692L63.834,34.692L64.113,34.692L64.252,34.692L64.399,34.692L64.533,34.692L64.672,34.692L64.95,34.692L65.089,34.692L65.234,34.692L65.37,34.692L65.508,34.692L65.787,34.692L65.927,34.692L66.072,34.692L66.207,34.692L66.345,34.692L66.624,34.692L66.764,34.692L66.909,34.692L67.044,34.692L67.182,34.692L67.461,34.692L67.6,34.692L67.746,34.692L67.88,34.692L68.019,34.692L68.298,34.692L68.437,34.692L68.582,34.692L68.716,34.692L68.856,34.692L69.135,34.692L69.274,34.692L69.42,34.692L69.553,34.692L69.693,34.692L69.972,34.692L70.111,34.692L70.257,34.692L70.391,34.692L70.53,34.692L70.809,34.692L70.949,34.692L71.094,34.692L71.229,34.692L71.367,34.692L71.647,34.692L71.786,34.692L71.931,34.692L72.066,34.692L72.204,34.692L72.483,34.692L72.622,34.692L72.768,34.692L72.902,34.692L73.041,34.692L73.32,34.692L73.46,34.692L73.605,34.692L73.739,34.692L73.878,34.692L74.157,34.692L74.296,34.692L74.44,34.692L74.576,34.692L74.716,34.692L74.994,34.692L75.134,34.692L75.278,34.692L75.413,34.692L75.552,34.692L75.831,34.692L75.972,34.692L76.117,34.692L76.252,34.692L76.389,34.692L76.669,34.692L76.808,34.692L76.954,34.692L77.088,34.692L77.226,34.692L77.505,34.692L77.645,34.692L77.79,34.692L77.925,34.692L78.063,34.692L78.343,34.692L78.482,34.692L78.627,34.692L78.761,34.692L78.9,34.692L79.18,34.692L79.464,34.692L79.599,34.692L79.738,34.692L80.017,34.692L80.156,34.692L80.3,34.692L80.435,34.692L80.574,34.692L80.853,34.692L80.993,34.692L81.137,34.692L81.272,34.692L81.411,34.692L81.691,34.692L81.83,34.692L81.976,34.692L82.11,34.692L82.248,34.692L82.527,34.692L82.667,34.692L82.812,34.692L82.947,34.692L83.085,34.692L83.364,34.692L83.505,34.692L83.65,34.692L83.785,34.692L83.923,34.692L84.202,34.692L84.342,34.692L84.487,34.692L84.76,34.692L85.039,34.692L85.179,34.692L85.323,34.692L85.457,34.692L85.596,34.692L85.875,34.692L86.015,34.692L86.157,34.692L86.294,34.692L86.433,34.692L86.725,34.692L86.94,34.692L87.071,34.692L87.341,34.692L87.552,34.692L87.689,34.692L87.833,34.692L87.968,34.692L88.107,34.692L88.387,34.692L88.526,34.692L88.672,34.692L88.805,34.692L88.944,34.692L89.223,34.692L89.363,34.692L89.509,34.692L89.644,34.692L89.782,34.692L90.2,34.692L90.346,34.692L90.48,34.692L90.619,34.692L90.897,34.692L91.037,34.692L91.183,34.692L91.317,34.692L91.455,34.692L91.735,34.692L91.874,34.692L92.019,34.692L92.153,34.692L92.292,34.692L92.572,34.692L92.711,34.692L92.856,34.692L92.99,34.692L93.13,34.692L93.408,34.692L93.549,34.692L93.695,34.692L93.828,34.692L93.966,34.692L94.245,34.692L94.385,34.692L94.532,34.692L94.665,34.692L94.804,34.692L95.082,34.692L95.223,34.692L95.372,34.692L95.502,34.692L95.641,34.692L95.92,34.692L96.06,34.692L96.201,34.692L96.339,34.692L96.478,34.692L96.757,34.692L96.897,34.692L97.042,34.692L97.176,34.692L97.315,34.692L97.594,34.692L97.733,34.692L97.878,34.692L98.012,34.692L98.151,34.692L98.431,34.692L98.57,34.692L98.716,34.692L98.849,34.692L98.989,34.692L99.268,34.692L99.409,34.692L99.554,34.692L99.687,34.692L99.826,34.692L100.105,34.692L100.245,34.692L100.391,34.692L100.525,34.692L100.663,34.692L100.942,34.692L101.084,34.692L101.228,34.692L101.361,34.692L101.5,34.692L101.779,57.769L101.918,57.769L102.065,57.769L102.198,57.769L102.337,57.769L102.616,57.769L102.755,57.769L102.901,57.769L103.035,57.769L103.174,57.769L103.453,57.769L103.592,57.769L103.737,57.769L103.871,57.769L104.011,57.769L104.29,57.769L104.43,57.769L104.575,57.769L104.709,57.769L104.848,57.769L105.127,57.769L105.267,57.769L105.413,57.769L105.547,57.769L105.685,57.769L105.964,57.769L106.104,57.769L106.249,57.769L106.384,57.769L106.522,57.769L106.801,57.769L106.941,57.769L107.089,57.769L107.222,57.769L107.359,57.769L107.639,34.692L107.779,34.692L107.924,34.692L108.06,34.692L108.196,34.692L108.475,34.692L108.615,34.692L108.762,34.692L108.895,34.692L109.033,34.692L109.312,34.692L109.452,34.692L109.597,34.692L109.73,34.692L109.87,34.692L110.149,34.692L110.288,34.692L110.435,34.692L110.568,34.692L110.707,34.692L110.987,34.692L111.126,34.692L111.273,34.692L111.406,34.692L111.544,34.692L111.823,34.692L111.964,34.692L112.11,34.692L112.244,34.692L112.381,34.692L112.661,34.692L112.8,34.692L112.947,34.692L113.08,34.692L113.218,34.692L113.497,34.692L113.637,34.692L113.784,34.692L113.917,34.692L114.055,34.692L114.334,34.692L114.474,34.692L114.621,34.692L114.754,34.692L114.892,34.692L115.171,34.692L115.311,34.692L115.457,34.692L115.59,34.692L115.729,34.692L116.009,34.692L116.148,34.692L116.294,34.692L116.428,34.692L116.566,34.692L116.847,34.692L116.985,34.692L117.133,34.692L117.265,34.692L117.404,34.692L117.682,34.692L117.822,34.692L117.97,34.692L118.102,34.692L118.241,34.692L118.52,34.692L118.66,34.692L118.807,34.692L118.94,34.692L119.077,34.692L119.356,34.692L119.496,34.692L119.643,34.692L119.777,34.692L119.914,34.692L120.195,34.692L120.333,34.692L120.48,34.692L120.612,34.692L120.752,34.692L121.031,34.692L121.17,34.692L121.316,34.692L121.45,34.692L121.588,34.692L121.868,34.692L122.007,34.692L122.153,34.692L122.286,34.692L122.426,34.692L122.705,34.692L122.845,34.692L122.992,34.692L123.125,34.692L123.262,34.692L123.544,34.692L123.682,34.692L123.829,34.692L123.961,34.692L124.099,34.692L124.38,34.692L124.519,34.692L124.666,34.692L124.799,34.692L124.936,34.692L125.217,34.692L125.356,34.692L125.503,34.692L125.635,34.692L125.773,34.692L126.054,34.692L126.193,34.692L126.34,34.692L126.472,34.692L126.61,34.692L126.889,34.692L127.029,34.692L127.175,34.692L127.309,34.692L127.447,34.692L127.727,34.692L127.866,34.692L128.012,34.692L128.146,34.692L128.284,34.692L128.564,34.692L128.704,34.692L128.852,34.692L128.984,34.692L129.122,34.692L129.401,34.692L129.541,34.692L129.688,34.692L129.821,34.692L129.959,34.692L130.239,34.692L130.378,34.692L130.525,34.692L130.658,34.692L130.796,34.692L131.075,34.692L131.215,34.692L131.362,34.692L131.494,34.692L131.633,34.692L131.913,34.692L132.052,34.692L132.2,34.692L132.333,34.692L132.47,34.692L132.749,34.692L132.888,34.692L133.035,34.692L133.169,34.692L133.306,34.692L133.586,34.692L133.725,34.692L133.872,34.692L134.005,34.692L134.144,34.692L134.424,34.692L134.564,34.692L134.711,34.692L134.843,34.692L134.981,34.692L135.261,34.692L135.401,34.692L135.548,34.692L135.68,34.692L135.819,34.692L136.097,34.692L136.237,46.231L136.385,46.231L136.517,46.231L136.655,46.231L136.935,46.231L137.074,46.231L137.221,46.231L137.355,46.231L137.492,46.231L137.771,46.231L137.911,46.231L138.059,48.538L138.191,48.538L138.329,48.538L138.609,48.538L138.749,48.538L138.894,48.538L139.027,48.538L139.166,48.538L139.445,48.538L139.585,48.538L139.732,48.538L139.865,48.538L140.003,48.538L140.283,48.538L140.423,48.538L140.57,48.538L140.702,48.538L140.84,48.538L141.119,48.538L141.26,48.538L141.407,48.538L141.539,48.538L141.677,48.538L141.957,48.538L142.097,48.538L142.244,48.538L142.376,48.538L142.514,48.538L142.793,48.538L142.933,48.538L143.08,48.538L143.215,48.538L143.351,48.538L143.631,48.538L143.771,48.538L143.917,48.538L144.05,48.538L144.188,48.538L144.467,48.538L144.607,48.538L144.755,48.538L144.887,48.538L145.025,48.538L145.304,48.538L145.443,48.538L145.59,48.538L145.723,48.538L145.862,48.538L146.142,48.538L146.282,48.538L146.429,48.538L146.561,48.538L146.699,48.538L146.979,48.538L147.119,48.538L147.266,48.538L147.537,48.538L147.817,48.538L147.956,48.538L148.103,48.538L148.236,48.538L148.373,48.538L148.654,48.538L148.793,48.538L148.94,48.538L149.073,48.538L149.21,48.538L149.49,48.538L149.63,48.538L149.777,48.538L149.909,48.538L150.048,48.538L150.327,48.538L150.466,48.538L150.613,48.538L150.746,48.538L150.884,48.538L151.163,48.538L151.303,48.538L151.45,48.538L151.583,48.538L151.721,48.538L152.001,48.538L152.141,48.538L152.289,48.538L152.422,48.538L152.558,48.538L152.838,48.538L152.978,48.538L153.125,48.538L153.258,48.538L153.396,48.538L153.675,48.538L153.815,48.538L153.962,48.538L154.096,48.538L154.232,48.538L154.512,48.538L154.652,48.538L154.799,48.538L154.931,48.538L155.07,48.538L155.35,48.538L155.489,48.538L155.636,48.538L155.768,48.538L155.906,48.538L156.186,48.538L156.325,48.538L156.471,48.538L156.605,48.538L156.744,48.538L157.022,48.538L157.162,48.538L157.309,48.538L157.441,48.538L157.581,48.538L157.861,48.538L158,48.538L158.147,48.538L158.28,48.538L158.417,48.538L158.697,48.538L158.838,48.538L158.985,48.538L159.117,48.538L159.255,48.538L159.535,48.538L159.675,48.538L159.822,48.538L159.954,48.538L160.092,48.538L160.372,48.538L160.511,48.538L160.659,48.538L160.791,48.538L160.928,48.538L161.208,48.538L161.348,48.538L161.496,48.538L161.628,48.538L161.766,48.538L162.045,48.538L162.184,48.538L162.331,48.538L162.464,48.538L162.602,48.538L162.883,48.538L163.023,48.538L163.178,48.538L163.309,48.538L163.439,48.538L163.72,48.538L163.859,48.538L164.007,48.538L164.14,48.538L164.276,48.538L164.557,48.538L164.697,48.538L164.842,48.538L164.977,48.538L165.113,48.538L165.393,48.538L165.534,48.538L165.681,48.538L165.814,48.538L165.95,48.538L166.231,48.538L166.371,48.538L166.518,48.538L166.65,48.538L166.787,48.538L167.068,48.538L167.207,48.538L167.355,48.538L167.488,48.538L167.625,48.538L167.905,48.538L168.043,48.538L168.19,48.538L168.324,48.538L168.462,48.538L168.741,48.538L168.88,48.538L169.028,48.538L169.162,48.538L169.299,48.538L169.579,48.538L169.72,48.538L169.867,48.538L169.999,48.538L170.135,48.538L170.415,48.538L170.556,48.538L170.703,48.538L170.836,48.538L170.973,48.538L171.252,27L171.393,27L171.541,27L171.673,27L171.81,27L172.091,27L172.23,27L172.377,27L172.51,27L172.647,27L172.928,27L173.066,27L173.213,27L173.348,27L173.484,27L173.764,27L173.903,27L174.051,27L174.182,27L174.321,27L174.6,27L174.739,27L174.886,27L175.02,27L175.158,27L175.438,27L175.578,27L175.726,27L175.858,27L175.995,27L176.275,27L176.414,27L176.562,27L176.695,27L176.831,27L177.111,27L177.25,27L177.4,27L177.531,27L177.669,27L177.949,27L178.089,27L178.237,27L178.369,27L178.507,27L178.786,27L178.926,27L179.073,27L179.206,27L179.343,27L179.623,27L179.762,27L179.909,27L180.042,27L180.18,27L180.461,27L180.599,27L180.746,27L180.878,27L181.018,27L181.297,27L181.437,27L181.585,27L181.717,27L181.855,27L182.135,27L182.274,27L182.422,27L182.554,27L182.691,27L182.972,27L183.111,27L183.26,27L183.392,27L183.529,27L183.809,27L183.948,27L184.096,27L184.228,27L184.365,27L184.645,27L184.785,27L184.933,27L185.065,27L185.202,27L185.484,27L185.621,27L185.769,27L185.903,27L186.039,27L186.319,27L186.458,27L186.606,27L186.738,27L186.877,27L187.157,27L187.297,27L187.445,27L187.576,27L187.714,27L187.993,27L188.133,27L188.281,27L188.414,27L188.55,27L188.83,27L188.971,27L189.118,27L189.251,27L189.387,27L189.667,27L189.807,27L189.955,27L190.087,27L190.224,27L190.504,27L190.644,27L190.792,27L190.925,27L191.061,27L191.341,27L191.48,27L191.627,27L191.761,27L191.9,27L192.178,27L192.317,27L192.465,27L192.597,27L192.735,27L193.015,27L193.156,27L193.303,27L193.435,27L193.573,27L193.854,27L193.993,27L194.14,27L194.272,27L194.41,27L194.69,27L194.83,27L194.975,27L195.11,27L195.247,27L195.526,27L195.667,27L195.815,27L195.948,27L196.083,27L196.364,27L196.504,27L196.651,27L196.783,27L196.92,27L197.201,27L197.34,27L197.487,27L197.62,27L197.757,27L198.038,27L198.177,27L198.324,27L198.457,27L198.596,27L198.876,27L199.015,27L199.163,27L199.295,27L199.432,27L199.712,27L199.852,27L200,27" stroke="#4c78a8" stroke-width="2"/></g></g><path class="foreground" aria-hidden="true" d="" display="none"/></g><g transform="translate(0,0)"><path class="background" aria-hidden="true" d="M0,0h200v200h-200Z"/><g><g class="mark-line role-mark marks" role="graphics-object" aria-roledescription="line mark container"><path aria-label="Time: Jan 01, 2024; Price: 2499; identifier: altex-LG-F2WR508SBM" role="graphics-symbol" aria-roledescription="line mark" d="M0,7.769L0.088,7.769L0.22,7.769L0.499,7.769L0.639,7.769L0.786,7.769L0.919,7.769L1.057,7.769L1.336,7.769L1.476,7.769L1.623,7.769L1.756,7.769L1.894,7.769L2.173,7.769L2.313,7.769L2.459,7.769L2.594,7.769L2.731,7.769L3.011,27L3.15,27L3.297,27L3.431,27L3.568,27L3.848,27L3.987,27L4.133,27L4.267,27L4.405,27L4.685,27L4.824,27L4.97,27L5.104,27L5.242,27L5.522,27L5.662,27L5.809,27L5.942,27L6.079,27L6.359,27L6.499,27L6.647,27L6.779,27L6.916,27L7.196,27L7.336,27L7.483,27L7.616,27L7.753,27L8.033,27L8.173,27L8.32,27L8.453,27L8.59,27L8.87,27L9.01,27L9.156,27L9.29,27L9.427,27L9.707,38.538L9.846,38.538L9.992,38.538L10.126,38.538L10.264,38.538L10.544,38.538L10.683,38.538L10.829,38.538L10.963,38.538L11.101,38.538L11.381,38.538L11.521,38.538L11.668,38.538L11.802,38.538L11.938,38.538L12.218,38.538L12.358,38.538L12.505,38.538L12.639,38.538L12.775,38.538L13.055,38.538L13.195,38.538L13.342,38.538L13.475,38.538L13.612,38.538L13.892,38.538L14.032,38.538L14.179,38.538L14.312,38.538L14.45,38.538L14.729,38.538L14.869,38.538L15.016,38.538L15.15,38.538L15.286,38.538L15.566,38.538L15.705,38.538L15.851,38.538L15.986,38.538L16.124,38.538L16.403,38.538L16.542,38.538L16.688,38.538L16.822,38.538L16.961,38.538L17.241,38.538L17.381,38.538L17.528,38.538L17.66,38.538L17.798,38.538L18.077,38.538L18.218,38.538L18.365,38.538L18.498,38.538L18.635,38.538L18.915,38.538L19.054,38.538L19.202,38.538L19.335,38.538L19.472,38.538L19.752,38.538L19.891,38.538L20.039,38.538L20.172,38.538L20.309,38.538L20.588,38.538L20.728,38.538L20.873,38.538L21.007,38.538L21.146,38.538L21.425,38.538L21.565,38.538L21.708,38.538L21.843,38.538L21.982,38.538L22.262,38.538L22.401,38.538L22.545,38.538L22.68,38.538L22.82,38.538L23.099,38.538L23.239,38.538L23.383,38.538L23.517,38.538L23.657,38.538L23.936,38.538L24.075,38.538L24.22,38.538L24.356,38.538L24.494,38.538L24.773,38.538L24.912,38.538L25.058,38.538L25.191,38.538L25.331,38.538L25.61,27L25.749,27L25.895,27L26.028,27L26.168,27L26.447,27L26.586,27L26.731,27L26.865,27L27.005,27L27.284,27L27.423,27L27.567,27L27.702,27L27.842,27L28.122,27L28.261,27L28.404,27L28.539,27L28.679,27L28.958,27L29.098,27L29.243,27L29.377,27L29.516,27L29.795,27L29.934,27L30.08,27L30.214,27L30.353,27L30.632,27L30.772,27L30.916,27L31.051,27L31.19,27L31.469,27L31.609,27L31.753,27L31.888,27L32.027,27L32.306,27L32.446,27L32.59,27L32.725,27L32.864,27L33.143,27L33.282,27L33.427,27L33.561,27L33.701,27L33.981,27L34.12,27L34.263,27L34.399,27L34.538,27L34.817,27L34.957,27L35.102,27L35.236,27L35.375,27L35.654,27L35.794,27L35.938,27L36.075,27L36.212,27L36.491,27L36.631,27L36.776,27L36.91,27L37.049,27L37.468,27L37.613,27L37.747,27L37.886,27L38.165,27L38.305,27L38.45,27L38.584,27L38.723,27L39.002,27L39.141,27L39.285,27L39.421,27L39.56,27L39.839,27L39.979,27L40.123,27L40.258,27L40.397,27L40.676,27L40.816,27L40.961,27L41.096,27L41.234,27L41.514,27L41.653,27L41.797,27L41.932,27L42.072,27L42.35,27L42.49,27L42.635,27L42.769,27L42.908,27L43.187,27L43.327,27L43.472,27L43.606,27L43.745,27L44.024,27L44.164,27L44.308,27L44.443,27L44.583,27L44.861,27L45.001,27L45.144,27L45.28,27L45.419,27L45.698,27L45.838,27L45.982,27L46.118,27L46.256,27L46.535,27L46.675,27L46.82,27L46.954,27L47.093,27L47.372,27L47.512,27L47.657,27L47.791,27L47.93,27L48.209,27L48.349,27L48.494,27L48.629,27L48.767,27L49.046,27L49.186,27L49.33,27L49.465,27L49.604,27L49.883,27L50.023,27L50.168,27L50.302,27L50.441,27L50.72,27L50.86,27L51.005,27L51.139,27L51.278,27L51.558,27L51.697,27L51.841,27L51.976,27L52.116,27L52.407,27L52.598,27L52.681,27L52.814,27L52.953,27L53.231,27L53.371,27L53.517,27L53.65,27L53.789,27L54.068,27L54.209,27L54.354,27L54.488,27L54.626,27L54.905,27L55.045,27L55.19,38.538L55.324,38.538L55.464,38.538L55.743,38.538L55.884,38.538L56.027,38.538L56.161,38.538L56.3,38.538L56.58,38.538L56.719,38.538L56.863,38.538L56.999,38.538L57.137,38.538L57.417,38.538L57.557,38.538L57.7,38.538L57.836,38.538L57.974,38.538L58.254,38.538L58.393,38.538L58.539,38.538L58.673,38.538L58.812,38.538L59.091,38.538L59.23,38.538L59.375,38.538L59.51,38.538L59.649,38.538L59.928,38.538L60.068,38.538L60.213,38.538L60.346,38.538L60.486,38.538L60.765,38.538L60.904,38.538L61.05,38.538L61.184,38.538L61.323,38.538L61.602,38.538L61.742,38.538L61.886,38.538L62.021,38.538L62.16,38.538L62.439,38.538L62.579,38.538L62.723,38.538L62.857,38.538L62.997,38.538L63.276,38.538L63.416,38.538L63.56,38.538L63.694,38.538L63.834,38.538L64.113,38.538L64.252,38.538L64.399,38.538L64.533,38.538L64.672,38.538L64.95,38.538L65.089,38.538L65.234,38.538L65.37,38.538L65.508,38.538L65.787,38.538L65.927,38.538L66.072,38.538L66.207,38.538L66.345,38.538L66.624,38.538L66.764,38.538L66.909,38.538L67.044,38.538L67.182,38.538L67.461,38.538L67.6,38.538L67.746,38.538L67.88,38.538L68.019,38.538L68.298,38.538L68.437,38.538L68.582,38.538L68.716,38.538L68.856,38.538L69.135,38.538L69.274,38.538L69.42,38.538L69.553,38.538L69.693,38.538L69.972,38.538L70.112,38.538L70.257,38.538L70.391,38.538L70.53,38.538L70.809,38.538L70.949,38.538L71.094,38.538L71.229,38.538L71.367,38.538L71.647,38.538L71.786,38.538L71.931,38.538L72.066,38.538L72.204,38.538L72.483,38.538L72.623,38.538L72.768,38.538L72.902,38.538L73.041,38.538L73.32,38.538L73.46,38.538L73.605,38.538L73.739,38.538L73.878,38.538L74.157,38.538L74.296,38.538L74.441,38.538L74.576,38.538L74.716,38.538L74.994,38.538L75.134,38.538L75.278,38.538L75.413,38.538L75.552,38.538L75.831,38.538L75.972,38.538L76.117,38.538L76.252,38.538L76.389,38.538L76.669,38.538L76.808,38.538L76.954,38.538L77.088,38.538L77.226,38.538L77.505,38.538L77.645,38.538L77.79,38.538L77.925,38.538L78.063,38.538L78.343,38.538L78.482,38.538L78.627,38.538L78.761,38.538L78.9,38.538L79.18,38.538L79.464,38.538L79.599,38.538L79.738,38.538L80.017,38.538L80.156,38.538L80.3,38.538L80.435,38.538L80.574,38.538L80.853,38.538L80.993,38.538L81.137,38.538L81.272,38.538L81.411,38.538L81.691,38.538L81.83,38.538L81.976,38.538L82.11,38.538L82.248,38.538L82.527,38.538L82.667,38.538L82.812,38.538L82.947,38.538L83.085,38.538L83.364,38.538L83.505,38.538L83.65,38.538L83.785,38.538L83.923,38.538L84.202,38.538L84.342,38.538L84.487,38.538L84.76,38.538L85.039,38.538L85.179,38.538L85.323,38.538L85.457,38.538L85.596,38.538L85.875,38.538L86.015,38.538L86.157,38.538L86.294,38.538L86.433,38.538L86.725,38.538L86.94,38.538L87.071,38.538L87.342,38.538L87.552,38.538L87.689,38.538L87.833,38.538L87.968,38.538L88.107,38.538L88.387,38.538L88.526,38.538L88.672,38.538L88.805,38.538L88.944,38.538L89.223,38.538L89.363,38.538L89.509,38.538L89.644,38.538L89.782,38.538L90.2,38.538L90.346,38.538L90.48,38.538L90.619,38.538L90.897,38.538L91.037,38.538L91.183,38.538L91.317,38.538L91.455,38.538L91.735,38.538L91.874,38.538L92.019,38.538L92.153,38.538L92.292,38.538L92.572,38.538L92.711,38.538L92.856,38.538L92.99,38.538L93.13,38.538L93.408,38.538L93.549,38.538L93.695,38.538L93.828,38.538L93.966,38.538L94.246,38.538L94.385,38.538L94.532,38.538L94.665,38.538L94.804,38.538L95.082,38.538L95.223,38.538L95.373,38.538L95.502,38.538L95.641,38.538L95.92,38.538L96.06,38.538L96.201,38.538L96.339,38.538L96.478,38.538L96.757,38.538L96.897,38.538L97.042,38.538L97.176,38.538L97.315,38.538L97.594,38.538L97.733,38.538L97.878,38.538L98.012,38.538L98.152,38.538L98.431,38.538L98.57,38.538L98.716,38.538L98.849,38.538L98.989,38.538L99.268,38.538L99.409,38.538L99.554,38.538L99.687,38.538L99.826,38.538L100.105,38.538L100.245,38.538L100.391,38.538L100.525,38.538L100.663,38.538L100.942,38.538L101.084,38.538L101.228,38.538L101.361,38.538L101.5,38.538L101.779,38.538L101.918,38.538L102.065,38.538L102.198,38.538L102.338,38.538L102.616,38.538L102.755,38.538L102.901,38.538L103.035,38.538L103.174,38.538L103.453,38.538L103.592,38.538L103.738,38.538L103.871,38.538L104.011,38.538L104.29,38.538L104.43,38.538L104.575,38.538L104.709,38.538L104.848,38.538L105.127,38.538L105.267,38.538L105.413,38.538L105.547,38.538L105.685,38.538L105.964,38.538L106.104,38.538L106.249,30.846L106.384,30.846L106.522,30.846L106.801,30.846L106.941,30.846L107.089,30.846L107.222,30.846L107.359,30.846L107.639,30.846L107.779,30.846L107.924,30.846L108.06,30.846L108.196,30.846L108.475,30.846L108.615,30.846L108.762,30.846L108.895,30.846L109.033,30.846L109.312,30.846L109.452,30.846L109.597,30.846L109.73,30.846L109.87,30.846L110.149,30.846L110.289,30.846L110.435,30.846L110.568,30.846L110.707,30.846L110.987,30.846L111.126,30.846L111.273,30.846L111.406,30.846L111.544,30.846L111.823,30.846L111.964,30.846L112.11,30.846L112.244,30.846L112.381,30.846L112.661,30.846L112.8,30.846L112.947,30.846L113.08,30.846L113.218,30.846L113.497,30.846L113.637,30.846L113.784,30.846L113.917,30.846L114.055,30.846L114.334,30.846L114.474,30.846L114.621,30.846L114.754,30.846L114.892,30.846L115.171,30.846L115.311,30.846L115.457,30.846L115.59,30.846L115.729,30.846L116.009,30.846L116.148,30.846L116.294,30.846L116.428,30.846L116.566,30.846L116.847,30.846L116.985,30.846L117.133,30.846L117.265,30.846L117.404,30.846L117.682,30.846L117.822,30.846L117.97,30.846L118.102,30.846L118.241,30.846L118.52,30.846L118.66,30.846L118.807,38.538L118.94,38.538L119.077,38.538L119.356,38.538L119.496,38.538L119.643,38.538L119.777,38.538L119.914,38.538L120.195,38.538L120.333,38.538L120.48,38.538L120.613,38.538L120.752,38.538L121.031,38.538L121.17,38.538L121.316,38.538L121.45,38.538L121.588,38.538L121.868,38.538L122.007,38.538L122.153,38.538L122.286,38.538L122.426,38.538L122.705,38.538L122.845,38.538L122.992,38.538L123.125,38.538L123.262,38.538L123.544,38.538L123.682,38.538L123.829,38.538L123.961,38.538L124.099,38.538L124.38,38.538L124.519,38.538L124.666,38.538L124.799,38.538L124.936,38.538L125.217,38.538L125.356,38.538L125.503,38.538L125.635,38.538L125.773,38.538L126.054,30.846L126.193,30.846L126.34,30.846L126.472,30.846L126.61,30.846L126.89,30.846L127.029,30.846L127.175,30.846L127.309,30.846L127.447,30.846L127.727,30.846L127.866,30.846L128.012,30.846L128.146,30.846L128.284,30.846L128.565,30.846L128.704,30.846L128.852,30.846L128.984,30.846L129.122,30.846L129.401,30.846L129.541,30.846L129.688,30.846L129.822,30.846L129.959,30.846L130.239,30.846L130.378,30.846L130.525,30.846L130.658,30.846L130.796,30.846L131.075,30.846L131.215,30.846L131.362,30.846L131.494,30.846L131.633,30.846L131.913,30.846L132.052,30.846L132.2,30.846L132.333,30.846L132.47,30.846L132.749,30.846L132.888,30.846L133.035,30.846L133.169,30.846L133.306,30.846L133.586,30.846L133.725,30.846L133.872,30.846L134.005,30.846L134.144,30.846L134.424,30.846L134.564,30.846L134.711,30.846L134.843,30.846L134.981,30.846L135.261,30.846L135.401,30.846L135.548,30.846L135.68,30.846L135.819,30.846L136.097,30.846L136.237,34.692L136.385,34.692L136.517,34.692L136.655,34.692L136.935,34.692L137.074,34.692L137.221,34.692L137.356,34.692L137.492,34.692L137.771,34.692L137.911,34.692L138.059,40.077L138.191,40.077L138.329,40.077L138.609,40.077L138.749,40.077L138.894,40.077L139.028,40.077L139.166,40.077L139.445,40.077L139.585,40.077L139.732,40.077L139.865,40.077L140.003,40.077L140.283,40.077L140.423,40.077L140.57,40.077L140.702,40.077L140.84,40.077L141.119,40.077L141.26,40.077L141.407,40.077L141.539,40.077L141.677,40.077L141.957,40.077L142.097,40.077L142.244,40.077L142.377,40.077L142.514,40.077L142.793,40.077L142.933,40.077L143.08,40.077L143.215,40.077L143.351,40.077L143.631,40.077L143.771,40.077L143.917,40.077L144.05,40.077L144.188,40.077L144.467,40.077L144.607,40.077L144.755,40.077L144.887,40.077L145.025,40.077L145.304,40.077L145.443,40.077L145.59,40.077L145.723,40.077L145.862,40.077L146.142,40.077L146.282,40.077L146.429,40.077L146.561,40.077L146.699,40.077L146.979,40.077L147.119,40.077L147.266,40.077L147.537,40.077L147.817,40.077L147.956,40.077L148.103,40.077L148.236,40.077L148.373,40.077L148.654,40.077L148.793,40.077L148.94,40.077L149.073,40.077L149.21,40.077L149.49,40.077L149.63,40.077L149.777,40.077L149.909,40.077L150.048,40.077L150.327,40.077L150.466,40.077L150.613,40.077L150.746,40.077L150.884,40.077L151.163,40.077L151.303,40.077L151.45,40.077L151.583,40.077L151.721,40.077L152.001,40.077L152.141,40.077L152.289,40.077L152.422,40.077L152.558,40.077L152.838,40.077L152.978,40.077L153.125,40.077L153.258,40.077L153.396,40.077L153.675,40.077L153.815,40.077L153.962,40.077L154.096,40.077L154.232,40.077L154.512,40.077L154.652,40.077L154.799,40.077L154.931,40.077L155.07,40.077L155.35,40.077L155.489,40.077L155.636,40.077L155.768,40.077L155.906,40.077L156.186,40.077L156.325,40.077L156.471,40.077L156.605,40.077L156.744,40.077L157.022,40.077L157.162,40.077L157.309,40.077L157.441,40.077L157.581,40.077L157.861,40.077L158,40.077L158.147,40.077L158.28,40.077L158.417,40.077L158.697,40.077L158.838,40.077L158.985,40.077L159.117,40.077L159.255,40.077L159.535,40.077L159.675,40.077L159.822,40.077L159.954,40.077L160.092,40.077L160.372,40.077L160.511,40.077L160.659,40.077L160.791,40.077L160.928,40.077L161.208,40.077L161.348,40.077L161.496,40.077L161.628,40.077L161.766,40.077L162.045,40.077L162.184,40.077L162.331,40.077L162.464,40.077L162.602,40.077L162.883,40.077L163.023,40.077L163.178,40.077L163.309,40.077L163.439,40.077L163.72,40.077L163.859,40.077L164.007,40.077L164.14,40.077L164.276,40.077L164.557,40.077L164.697,40.077L164.842,40.077L164.977,40.077L165.113,40.077L165.393,40.077L165.534,40.077L165.681,40.077L165.814,40.077L165.95,40.077L166.231,40.077L166.371,40.077L166.519,40.077L166.65,40.077L166.787,40.077L167.068,40.077L167.207,40.077L167.355,40.077L167.488,40.077L167.625,40.077L167.905,40.077L168.044,40.077L168.19,40.077L168.324,40.077L168.462,40.077L168.741,40.077L168.88,40.077L169.028,40.077L169.162,40.077L169.299,40.077L169.579,40.077L169.72,40.077L169.867,40.077L169.999,40.077L170.136,40.077L170.415,40.077L170.556,40.077L170.703,40.077L170.836,40.077L170.973,40.077L171.252,40.077L171.393,40.077L171.541,40.077L171.673,40.077L171.81,40.077L172.091,40.077L172.23,40.077L172.377,40.077L172.51,40.077L172.647,40.077L172.928,40.077L173.066,40.077L173.214,40.077L173.348,40.077L173.484,40.077L173.764,40.077L173.903,40.077L174.051,40.077L174.182,40.077L174.321,40.077L174.6,40.077L174.739,40.077L174.886,40.077L175.02,40.077L175.158,40.077L175.438,40.077L175.578,40.077L175.726,40.077L175.858,40.077L175.995,40.077L176.275,40.077L176.414,40.077L176.563,40.077L176.695,40.077L176.832,40.077L177.111,40.077L177.25,40.077L177.4,40.077L177.531,40.077L177.669,40.077L177.949,40.077L178.089,40.077L178.237,40.077L178.369,40.077L178.507,40.077L178.786,40.077L178.926,40.077L179.073,40.077L179.206,40.077L179.343,40.077L179.623,40.077L179.762,40.077L179.909,40.077L180.042,40.077L180.18,40.077L180.461,40.077L180.599,40.077L180.746,40.077L180.878,40.077L181.018,40.077L181.297,40.077L181.437,40.077L181.585,40.077L181.717,40.077L181.855,40.077L182.135,40.077L182.274,40.077L182.422,40.077L182.554,40.077L182.691,40.077L182.972,40.077L183.111,40.077L183.26,40.077L183.392,40.077L183.529,40.077L183.809,40.077L183.948,40.077L184.096,40.077L184.228,40.077L184.365,40.077L184.646,40.077L184.785,40.077L184.933,40.077L185.065,40.077L185.202,40.077L185.484,40.077L185.621,40.077L185.769,40.077L185.903,40.077L186.039,40.077L186.319,40.077L186.458,40.077L186.606,40.077L186.738,40.077L186.877,40.077L187.157,40.077L187.297,40.077L187.445,40.077L187.577,40.077L187.714,40.077L187.993,40.077L188.133,40.077L188.282,40.077L188.414,40.077L188.55,40.077L188.831,40.077L188.971,40.077L189.118,40.077L189.251,40.077L189.387,40.077L189.667,40.077L189.807,40.077L189.955,40.077L190.087,40.077L190.224,40.077L190.504,40.077L190.644,40.077L190.792,40.077L190.925,40.077L191.061,40.077L191.342,40.077L191.48,40.077L191.627,40.077L191.761,40.077L191.9,40.077L192.178,40.077L192.317,40.077L192.465,40.077L192.597,40.077L192.735,40.077L193.015,40.077L193.156,40.077L193.303,40.077L193.435,40.077L193.573,40.077L193.854,40.077L193.993,40.077L194.14,40.077L194.272,40.077L194.41,40.077L194.69,40.077L194.83,40.077L194.975,40.077L195.11,40.077L195.247,40.077L195.526,40.077L195.667,40.077L195.815,40.077L195.948,40.077L196.083,40.077L196.364,40.077L196.504,40.077L196.651,40.077L196.783,40.077L196.92,40.077L197.201,40.077L197.34,40.077L197.487,40.077L197.62,40.077L197.758,40.077L198.038,40.077L198.178,40.077L198.324,40.077L198.457,40.077L198.596,40.077L198.876,40.077L199.015,40.077L199.163,40.077L199.295,40.077L199.432,40.077L199.713,40.077L199.852,40.077L200,40.077" stroke="#f58518" stroke-width="2"/></g></g><path class="foreground" aria-hidden="true" d="" display="none"/></g></g><g class="mark-group role-legend" role="graphics-symbol" aria-roledescription="legend" aria-label="Symbol legend titled 'identifier' for stroke color with 2 values: altex-LG-F2WR508SBW, altex-LG-F2WR508SBM"><g transform="translate(220,0)"><path class="background" aria-hidden="true" d="M0,0h168v40h-168Z" pointer-events="none"/><g><g class="mark-group role-legend-entry"><g transform="translate(0,16)"><path class="background" aria-hidden="true" d="M0,0h0v0h0Z" pointer-events="none"/><g><g class="mark-group role-scope" role="graphics-object" aria-roledescription="group mark container"><g transform="translate(0,0)"><path class="background" aria-hidden="true" d="M0,0h168v11h-168Z" pointer-events="none" opacity="1"/><g><g class="mark-symbol role-legend-symbol" pointer-events="none"><path transform="translate(6,6)" d="M-5,0L5,0" stroke="#4c78a8" stroke-width="1.5" opacity="1"/></g><g class="mark-text role-legend-label" pointer-events="none"><text text-anchor="start" transform="translate(16,9)" font-family="Liberation Mono" font-size="10px" fill="#000" opacity="1">altex-LG-F2WR508SBW</text></g></g><path class="foreground" aria-hidden="true" d="" pointer-events="none" display="none"/></g><g transform="translate(0,13)"><path class="background" aria-hidden="true" d="M0,0h168v11h-168Z" pointer-events="none" opacity="1"/><g><g class="mark-symbol role-legend-symbol" pointer-events="none"><path transform="translate(6,6)" d="M-5,0L5,0" stroke="#f58518" stroke-width="1.5" opacity="1"/></g><g class="mark-text role-legend-label" pointer-events="none"><text text-anchor="start" transform="translate(16,9)" font-family="Liberation Mono" font-size="10px" fill="#000" opacity="1">altex-LG-F2WR508SBM</text></g></g><path class="foreground" aria-hidden="true" d="" pointer-events="none" display="none"/></g></g></g><path class="foreground" aria-hidden="true" d="" pointer-events="none" display="none"/></g></g><g class="mark-text role-legend-title" pointer-events="none"><text text-anchor="start" transform="translate(0,9)" font-family="Liberation Mono" font-size="11px" font-weight="bold" fill="#000" opacity="1">identifier</text></g></g><path class="foreground" aria-hidden="true" d="" pointer-events="none" display="none"/></g></g></g><path class="foreground" aria-hidden="true" d="" display="none"/></g></g></g></svg>