<svg xmlns="http://www.w3.org/2000/svg" xmlns:xlink="http://www.w3.org/1999/xlink" version="1.1" class="marks" width="460" height="242" viewBox="0 0 460 242"><rect width="460" height="242" fill="white"/><g fill="none" stroke-miterlimit="10" transform="translate(67,5)"><g class="mark-group role-frame root" role="graphics-object" aria-roledescription="group mark container"><g transform="translate(0,0)"><path class="background" aria-hidden="true" d="M0.5,0.5h200v200h-200Z" stroke="#ddd"/><g><g class="mark-group role-axis" aria-hidden="true"><g transform="translate(0.5,200.5)"><path class="background" aria-hidden="true" d="M0,0h0v0h0Z" pointer-events="none"/><g><g class="mark-rule role-axis-grid" pointer-events="none"><line transform="translate(46,-200)" x2="0" y2="200" stroke="#ddd" stroke-width="1" opacity="1"/><line transform="translate(92,-200)" x2="0" y2="200" stroke="#ddd" stroke-width="1" opacity="1"/><line transform="translate(138,-200)" x2="0" y2="200" stroke="#ddd" stroke-width="1" opacity="1"/><line transform="translate(185,-200)" x2="0" y2="200" stroke="#ddd" stroke-width="1" opacity="1"/></g></g><path class="foreground" aria-hidden="true" d="" pointer-events="none" display="none"/></g></g><g class="mark-group role-axis" aria-hidden="true"><g transform="translate(0.5,0.5)"><path class="background" aria-hidden="true" d="M0,0h0v0h0Z" pointer-events="none"/><g><g class="mark-rule role-axis-grid" pointer-events="none"><line transform="translate(0,200)" x2="200" y2="0" stroke="#ddd" stroke-width="1" opacity="1"/><line transform="translate(0,162)" x2="200" y2="0" stroke="#ddd" stroke-width="1" opacity="1"/><line transform="translate(0,123)" x2="200" y2="0" stroke="#ddd" stroke-width="1" opacity="1"/><line transform="translate(0,85)" x2="200" y2="0" stroke="#ddd" stroke-width="1" opacity="1"/><line transform="translate(0,46)" x2="200" y2="0" stroke="#ddd" stroke-width="1" opacity="1"/><line transform="translate(0,8)" x2="200" y2="0" stroke="#ddd" stroke-width="1" opacity="1"/></g></g><path class="foreground" aria-hidden="true" d="" pointer-events="none" display="none"/></g></g><g class="mark-group role-axis" role="graphics-symbol" aria-roledescription="axis" aria-label="X-axis titled 'Time' for a time scale with values from Monday, 01 January 2024, 2:19:43 PM to Friday, 31 January 2025, 8:42:17 AM"><g transform="translate(0.5,200.5)"><path class="background" aria-hidden="true" d="M0,0h0v0h0Z" pointer-events="none"/><g><g class="mark-rule role-axis-tick" pointer-events="none"><line transform="translate(46,0)" x2="0" y2="5" stroke="#888" stroke-width="1" opacity="1"/><line transform="translate(92,0)" x2="0" y2="5" stroke="#888" stroke-width="1" opacity="1"/><line transform="translate(138,0)" x2="0" y2="5" stroke="#888" stroke-width="1" opacity="1"/><line transform="translate(185,0)" x2="0" y2="5" stroke="#888" stroke-width="1" opacity="1"/></g><g class="mark-text role-axis-label" pointer-events="none"><text text-anchor="middle" transform="translate(45.685099801768814,15)" font-family="Liberation Mono" font-size="10px" fill="#000" opacity="1">April</text><text text-anchor="middle" transform="translate(91.67190684126851,15)" font-family="Liberation Mono" font-size="10px" fill="#000" opacity="1">July</text><text text-anchor="middle" transform="translate(138.16406340867482,15)" font-family="Liberation Mono" font-size="10px" fill="#000" opacity="1">October</text><text text-anchor="middle" transform="translate(184.6562199760811,15)" font-family="Liberation Mono" font-size="10px" fill="#000" opacity="1">2025</text></g><g class="mark-rule role-axis-domain" pointer-events="none"><line transform="translate(0,0)" x2="200" y2="0" stroke="#888" stroke-width="1" opacity="1"/></g><g class="mark-text role-axis-title" pointer-events="none"><text text-anchor="middle" transform="translate(100,30)" font-family="Liberation Mono" font-size="11px" font-weight="bold" fill="#000" opacity="1">Time</text></g></g><path class="foreground" aria-hidden="true" d="" pointer-events="none" display="none"/></g></g><g class="mark-group role-axis" role="graphics-symbol" aria-roledescription="axis" aria-label="Y-axis titled 'Price' for a linear scale with values from 0 to 2,600"><g transform="translate(0.5,0.5)"><path class="background" aria-hidden="true" d="M0,0h0v0h0Z" pointer-events="none"/><g><g class="mark-rule role-axis-tick" pointer-events="none"><line transform="translate(0,200)" x2="-5" y2="0" stroke="#888" stroke-width="1" opacity="1"/><line transform="translate(0,162)" x2="-5" y2="0" stroke="#888" stroke-width="1" opacity="1"/><line transform="translate(0,123)" x2="-5" y2="0" stroke="#888" stroke-width="1" opacity="1"/><line transform="translate(0,85)" x2="-5" y2="0" stroke="#888" stroke-width="1" opacity="1"/><line transform="translate(0,46)" x2="-5" y2="0" stroke="#888" stroke-width="1" opacity="1"/><line transform="translate(0,8)" x2="-5" y2="0" stroke="#888" stroke-width="1" opacity="1"/></g><g class="mark-text role-axis-label" pointer-events="none"><text text-anchor="end" transform="translate(-7,203)" font-family="Liberation Mono" font-size="10px" fill="#000" opacity="1">0</text><text text-anchor="end" transform="translate(-7,164.53846153846155)" font-family="Liberation Mono" font-size="10px" fill="#000" opacity="1">500</text><text text-anchor="end" transform="translate(-7,126.07692307692308)" font-family="Liberation Mono" font-size="10px" fill="#000" opacity="1">1,000</text><text text-anchor="end" transform="translate(-7,87.61538461538463)" font-family="Liberation Mono" font-size="10px" fill="#000" opacity="1">1,500</text><text text-anchor="end" transform="translate(-7,49.153846153846146)" font-family="Liberation Mono" font-size="10px" fill="#000" opacity="1">2,000</text><text text-anchor="end" transform="translate(-7,10.692307692307686)" font-family="Liberation Mono" font-size="10px" fill="#000" opacity="1">2,500</text></g><g class="mark-rule role-axis-domain" pointer-events="none"><line transform="translate(0,200)" x2="0" y2="-200" stroke="#888" stroke-width="1" opacity="1"/></g><g class="mark-text role-axis-title" pointer-events="none"><text text-anchor="middle" transform="translate(-51,100) rotate(-90) translate(0,-2)" font-family="Liberation Mono" font-size="11px" font-weight="bold" fill="#000" opacity="1">Price</text></g></g><path class="foreground" aria-hidden="true" d="" pointer-events="none" display="none"/></g></g><g class="mark-group role-scope pathgroup" role="graphics-object" aria-roledescription="group mark container"><g transform="translate(0,0)"><path class="background" aria-hidden="true" d="M0,0h200v200h-200Z"/><g><g class="mark-line role-mark marks" role="graphics-object" aria-roledescription="line mark container"><path aria-label="Time: Jan 01, 2024; Price: 2399; identifier: altex-LG-F2WR508SBW" role="graphics-symbol" aria-roledescription="line mark" d="M0,15.462L0.053,15.462L0.133,15.462L0.301,15.462L0.386,15.462L0.474,15.462L0.555,15.462L0.638,15.462L0.807,15.462L0.891,15.462L0.98,15.462L1.06,15.462L1.143,15.462L1.312,15.462L1.396,15.462L1.485,15.462L1.566,15.462L1.649,15.462L1.818,34.692L1.902,34.692L1.99,34.692L2.071,34.692L2.154,34.692L2.323,34.692L2.407,34.692L2.495,34.692L2.576,34.692L2.66,34.692L2.829,34.692L2.912,34.692L3.001,34.692L3.082,34.692L3.165,34.692L3.334,34.692L3.418,34.692L3.507,34.692L3.588,34.692L3.67,34.692L3.839,34.692L3.923,34.692L4.013,34.692L4.093,34.692L4.176,34.692L4.345,34.692L4.429,34.692L4.518,34.692L4.598,34.692L4.681,34.692L4.85,34.692L4.934,34.692L5.023,34.692L5.104,34.692L5.186,34.692L5.355,34.692L5.44,34.692L5.528,34.692L5.609,34.692L5.692,34.692L5.86,46.231L5.944,46.231L6.033,46.231L6.114,46.231L6.197,46.231L6.366,46.231L6.45,46.231L6.538,46.231L6.619,46.231L6.702,46.231L6.871,46.231L6.956,46.231L7.045,46.231L7.125,46.231L7.208,46.231L7.377,46.231L7.461,46.231L7.55,46.231L7.631,46.231L7.713,46.231L7.882,46.231L7.967,46.231L8.055,46.231L8.136,46.231L8.218,46.231L8.387,46.231L8.472,46.231L8.56,46.231L8.641,46.231L8.724,46.231L8.893,46.231L8.977,46.231L9.066,46.231L9.147,46.231L9.229,46.231L9.398,46.231L9.482,46.231L9.57,46.231L9.651,46.231L9.735,46.231L9.903,46.231L9.987,46.231L10.075,46.231L10.156,46.231L10.24,46.231L10.409,46.231L10.494,46.231L10.582,46.231L10.662,46.231L10.745,46.231L10.914,46.231L10.999,46.231L11.088,46.231L11.168,46.231L11.251,46.231L11.42,46.231L11.504,46.231L11.593,46.231L11.673,46.231L11.756,46.231L11.925,46.231L12.009,46.231L12.098,46.231L12.179,46.231L12.261,46.231L12.43,46.231L12.514,46.231L12.602,46.231L12.683,46.231L12.767,46.231L12.935,46.231L13.019,46.231L13.106,46.231L13.188,46.231L13.272,46.231L13.44,46.231L13.525,46.231L13.612,46.231L13.693,46.231L13.777,46.231L13.946,46.231L14.03,46.231L14.118,46.231L14.199,46.231L14.283,46.231L14.451,46.231L14.535,46.231L14.623,46.231L14.705,46.231L14.788,46.231L14.956,46.231L15.041,46.231L15.128,46.231L15.209,46.231L15.293,46.231L15.462,34.692L15.546,34.692L15.634,34.692L15.714,34.692L15.799,34.692L15.967,34.692L16.051,34.692L16.139,34.692L16.22,34.692L16.304,34.692L16.473,34.692L16.557,34.692L16.644,34.692L16.725,34.692L16.81,34.692L16.978,34.692L17.062,34.692L17.149,34.692L17.23,34.692L17.315,34.692L17.483,34.692L17.568,34.692L17.655,34.692L17.736,34.692L17.82,34.692L17.989,34.692L18.073,34.692L18.161,34.692L18.241,34.692L18.325,34.692L18.494,34.692L18.578,34.692L18.666,34.692L18.747,34.692L18.831,34.692L18.999,34.692L19.084,34.692L19.171,34.692L19.252,34.692L19.336,34.692L19.505,34.692L19.589,34.692L19.676,34.692L19.757,34.692L19.842,34.692L20.01,34.692L20.094,34.692L20.181,34.692L20.263,34.692L20.347,34.692L20.516,34.692L20.6,34.692L20.686,34.692L20.768,34.692L20.852,34.692L21.021,34.692L21.105,34.692L21.193,34.692L21.274,34.692L21.357,34.692L21.526,34.692L21.61,34.692L21.698,34.692L21.78,34.692L21.863,34.692L22.031,34.692L22.116,34.692L22.203,34.692L22.284,34.692L22.368,34.692L22.621,34.692L22.709,34.692L22.789,34.692L22.874,34.692L23.042,34.692L23.126,34.692L23.214,34.692L23.295,34.692L23.379,34.692L23.548,34.692L23.632,34.692L23.718,34.692L23.8,34.692L23.884,34.692L24.053,34.692L24.137,34.692L24.224,34.692L24.306,34.692L24.39,34.692L24.558,34.692L24.643,34.692L24.73,34.692L24.812,34.692L24.895,34.692L25.064,34.692L25.148,34.692L25.235,34.692L25.316,34.692L25.401,34.692L25.569,34.692L25.653,34.692L25.741,34.692L25.822,34.692L25.906,34.692L26.074,34.692L26.158,34.692L26.246,34.692L26.327,34.692L26.411,34.692L26.58,34.692L26.664,34.692L26.751,34.692L26.832,34.692L26.917,34.692L27.085,34.692L27.169,34.692L27.256,34.692L27.337,34.692L27.422,34.692L27.59,34.692L27.675,34.692L27.761,34.692L27.843,34.692L27.927,34.692L28.096,34.692L28.18,34.692L28.267,34.692L28.348,34.692L28.432,34.692L28.601,34.692L28.685,34.692L28.773,34.692L28.854,34.692L28.938,34.692L29.106,34.692L29.19,34.692L29.278,34.692L29.359,34.692L29.443,34.692L29.612,34.692L29.696,34.692L29.783,34.692L29.864,34.692L29.948,34.692L30.117,34.692L30.201,34.692L30.289,34.692L30.37,34.692L30.454,34.692L30.622,34.692L30.707,34.692L30.794,34.692L30.875,34.692L30.959,34.692L31.128,34.692L31.212,34.692L31.299,34.692L31.38,34.692L31.465,34.692L31.641,34.692L31.756,34.692L31.806,34.692L31.886,34.692L31.97,34.692L32.138,34.692L32.222,34.692L32.311,34.692L32.391,34.692L32.475,34.692L32.644,34.692L32.729,34.692L32.816,34.692L32.897,34.692L32.981,34.692L33.149,34.692L33.233,34.692L33.321,34.692L33.402,34.692L33.486,34.692L33.654,34.692L33.74,34.692L33.826,34.692L33.907,34.692L33.991,34.692L34.16,34.692L34.244,34.692L34.331,34.692L34.413,34.692L34.497,34.692L34.665,34.692L34.75,34.692L34.836,34.692L34.918,34.692L35.002,34.692L35.171,34.692L35.255,34.692L35.343,34.692L35.424,34.692L35.507,34.692L35.676,34.692L35.76,34.692L35.848,34.692L35.929,34.692L36.013,34.692L36.181,34.692L36.266,34.692L36.353,34.692L36.434,34.692L36.518,34.692L36.686,34.692L36.771,34.692L36.859,34.692L36.939,34.692L37.023,34.692L37.192,34.692L37.277,34.692L37.364,34.692L37.445,34.692L37.529,34.692L37.697,34.692L37.782,34.692L37.869,34.692L37.95,34.692L38.034,34.692L38.202,34.692L38.287,34.692L38.374,34.692L38.455,34.692L38.539,34.692L38.708,34.692L38.792,34.692L38.88,34.692L38.961,34.692L39.045,34.692L39.213,34.692L39.298,34.692L39.385,34.692L39.467,34.692L39.55,34.692L39.719,34.692L39.803,34.692L39.891,34.692L39.972,34.692L40.056,34.692L40.224,34.692L40.308,34.692L40.396,34.692L40.478,34.692L40.561,34.692L40.729,34.692L40.814,34.692L40.901,34.692L40.982,34.692L41.066,34.692L41.235,34.692L41.319,34.692L41.406,34.692L41.487,34.692L41.571,34.692L41.74,34.692L41.824,34.692L41.912,34.692L41.993,34.692L42.077,34.692L42.245,34.692L42.33,34.692L42.417,34.692L42.498,34.692L42.582,34.692L42.751,34.692L42.836,34.692L42.923,34.692L43.004,34.692L43.088,34.692L43.257,34.692L43.341,34.692L43.428,34.692L43.51,34.692L43.593,34.692L43.761,34.692L43.846,34.692L43.934,34.692L44.015,34.692L44.098,34.692L44.267,34.692L44.351,34.692L44.439,34.692L44.52,34.692L44.604,34.692L44.772,34.692L44.856,34.692L44.943,34.692L45.025,34.692L45.109,34.692L45.278,34.692L45.362,34.692L45.449,34.692L45.531,34.692L45.614,34.692L45.783,34.692L45.868,34.692L45.955,34.692L46.037,34.692L46.12,34.692L46.288,34.692L46.373,34.692L46.461,34.692L46.542,34.692L46.625,34.692L46.793,34.692L46.878,34.692L46.966,34.692L47.047,34.692L47.13,34.692L47.299,34.692L47.383,34.692L47.471,34.692L47.552,34.692L47.636,34.692L47.805,34.692L47.976,34.692L48.057,34.692L48.141,34.692L48.31,34.692L48.394,34.692L48.481,34.692L48.562,34.692L48.646,34.692L48.815,34.692L48.899,34.692L48.986,34.692L49.068,34.692L49.152,34.692L49.32,34.692L49.404,34.692L49.493,34.692L49.574,34.692L49.657,34.692L49.826,34.692L49.91,34.692L49.998,34.692L50.079,34.692L50.162,34.692L50.331,34.692L50.416,34.692L50.503,34.692L50.585,34.692L50.668,34.692L50.837,34.692L50.921,34.692L51.009,34.692L51.173,34.692L51.342,34.692L51.426,34.692L51.514,34.692L51.594,34.692L51.679,34.692L51.847,34.692L51.931,34.692L52.017,34.692L52.1,34.692L52.184,34.692L52.36,34.692L52.49,34.692L52.569,34.692L52.732,34.692L52.859,34.692L52.942,34.692L53.029,34.692L53.11,34.692L53.195,34.692L53.363,34.692L53.447,34.692L53.535,34.692L53.616,34.692L53.7,34.692L53.868,34.692L53.953,34.692L54.041,34.692L54.122,34.692L54.205,34.692L54.458,34.692L54.546,34.692L54.627,34.692L54.711,34.692L54.879,34.692L54.963,34.692L55.051,34.692L55.133,34.692L55.216,34.692L55.385,34.692L55.469,34.692L55.556,34.692L55.637,34.692L55.721,34.692L55.89,34.692L55.974,34.692L56.062,34.692L56.143,34.692L56.227,34.692L56.395,34.692L56.48,34.692L56.568,34.692L56.648,34.692L56.732,34.692L56.9,34.692L56.985,34.692L57.073,34.692L57.154,34.692L57.238,34.692L57.406,34.692L57.491,34.692L57.581,34.692L57.659,34.692L57.743,34.692L57.911,34.692L57.996,34.692L58.081,34.692L58.164,34.692L58.248,34.692L58.417,34.692L58.501,34.692L58.589,34.692L58.67,34.692L58.754,34.692L58.922,34.692L59.006,34.692L59.093,34.692L59.174,34.692L59.259,34.692L59.427,34.692L59.511,34.692L59.599,34.692L59.68,34.692L59.764,34.692L59.932,34.692L60.018,34.692L60.105,34.692L60.186,34.692L60.27,34.692L60.438,34.692L60.523,34.692L60.611,34.692L60.691,34.692L60.775,34.692L60.943,34.692L61.029,34.692L61.116,34.692L61.196,34.692L61.28,34.692L61.449,57.769L61.533,57.769L61.622,57.769L61.702,57.769L61.786,57.769L61.954,57.769L62.038,57.769L62.126,57.769L62.207,57.769L62.291,57.769L62.459,57.769L62.544,57.769L62.631,57.769L62.712,57.769L62.796,57.769L62.965,57.769L63.049,57.769L63.137,57.769L63.218,57.769L63.301,57.769L63.47,57.769L63.555,57.769L63.643,57.769L63.724,57.769L63.807,57.769L63.975,57.769L64.06,57.769L64.148,57.769L64.229,57.769L64.312,57.769L64.481,57.769L64.565,57.769L64.654,57.769L64.735,57.769L64.817,57.769L64.987,34.692L65.071,34.692L65.159,34.692L65.241,34.692L65.323,34.692L65.491,34.692L65.576,34.692L65.665,34.692L65.745,34.692L65.828,34.692L65.997,34.692L66.081,34.692L66.169,34.692L66.249,34.692L66.334,34.692L66.502,34.692L66.586,34.692L66.675,34.692L66.755,34.692L66.839,34.692L67.008,34.692L67.092,34.692L67.181,34.692L67.261,34.692L67.345,34.692L67.513,34.692L67.598,34.692L67.686,34.692L67.767,34.692L67.85,34.692L68.018,34.692L68.103,34.692L68.192,34.692L68.272,34.692L68.355,34.692L68.524,34.692L68.608,34.692L68.697,34.692L68.777,34.692L68.86,34.692L69.029,34.692L69.113,34.692L69.202,34.692L69.282,34.692L69.366,34.692L69.534,34.692L69.619,34.692L69.707,34.692L69.787,34.692L69.871,34.692L70.04,34.692L70.124,34.692L70.212,34.692L70.293,34.692L70.377,34.692L70.546,34.692L70.629,34.692L70.718,34.692L70.799,34.692L70.882,34.692L71.05,34.692L71.135,34.692L71.224,34.692L71.304,34.692L71.387,34.692L71.556,34.692L71.641,34.692L71.729,34.692L71.81,34.692L71.892,34.692L72.061,34.692L72.145,34.692L72.234,34.692L72.315,34.692L72.398,34.692L72.567,34.692L72.651,34.692L72.74,34.692L72.819,34.692L72.904,34.692L73.072,34.692L73.156,34.692L73.244,34.692L73.325,34.692L73.409,34.692L73.577,34.692L73.661,34.692L73.749,34.692L73.83,34.692L73.915,34.692L74.083,34.692L74.167,34.692L74.256,34.692L74.336,34.692L74.419,34.692L74.589,34.692L74.673,34.692L74.761,34.692L74.841,34.692L74.925,34.692L75.094,34.692L75.178,34.692L75.267,34.692L75.347,34.692L75.43,34.692L75.6,34.692L75.683,34.692L75.772,34.692L75.852,34.692L75.935,34.692L76.105,34.692L76.189,34.692L76.277,34.692L76.357,34.692L76.441,34.692L76.609,34.692L76.693,34.692L76.782,34.692L76.862,34.692L76.946,34.692L77.115,34.692L77.199,34.692L77.287,34.692L77.368,34.692L77.451,34.692L77.62,34.692L77.705,34.692L77.794,34.692L77.874,34.692L77.957,34.692L78.125,34.692L78.21,34.692L78.299,34.692L78.379,34.692L78.462,34.692L78.631,34.692L78.715,34.692L78.804,34.692L78.884,34.692L78.967,34.692L79.136,34.692L79.221,34.692L79.31,34.692L79.389,34.692L79.473,34.692L79.642,34.692L79.726,34.692L79.815,34.692L79.896,34.692L79.978,34.692L80.147,34.692L80.231,34.692L80.319,34.692L80.4,34.692L80.483,34.692L80.652,34.692L80.736,34.692L80.825,34.692L80.905,34.692L80.989,34.692L81.158,34.692L81.242,34.692L81.331,34.692L81.411,34.692L81.494,34.692L81.663,34.692L81.748,34.692L81.837,34.692L81.917,34.692L82,34.692L82.168,34.692L82.253,46.231L82.342,46.231L82.422,46.231L82.505,46.231L82.674,46.231L82.758,46.231L82.847,46.231L82.928,46.231L83.011,46.231L83.179,46.231L83.263,46.231L83.352,48.538L83.432,48.538L83.516,48.538L83.685,48.538L83.769,48.538L83.857,48.538L83.937,48.538L84.021,48.538L84.19,48.538L84.274,48.538L84.363,48.538L84.443,48.538L84.526,48.538L84.696,48.538L84.78,48.538L84.869,48.538L84.949,48.538L85.032,48.538L85.2,48.538L85.285,48.538L85.374,48.538L85.454,48.538L85.537,48.538L85.706,48.538L85.79,48.538L85.88,48.538L85.959,48.538L86.042,48.538L86.211,48.538L86.296,48.538L86.384,48.538L86.466,48.538L86.548,48.538L86.717,48.538L86.801,48.538L86.89,48.538L86.97,48.538L87.053,48.538L87.221,48.538L87.306,48.538L87.395,48.538L87.475,48.538L87.558,48.538L87.727,48.538L87.811,48.538L87.9,48.538L87.98,48.538L88.064,48.538L88.233,48.538L88.317,48.538L88.406,48.538L88.486,48.538L88.569,48.538L88.738,48.538L88.823,48.538L88.911,48.538L89.075,48.538L89.244,48.538L89.328,48.538L89.417,48.538L89.497,48.538L89.58,48.538L89.75,48.538L89.833,48.538L89.922,48.538L90.002,48.538L90.085,48.538L90.254,48.538L90.339,48.538L90.428,48.538L90.507,48.538L90.591,48.538L90.76,48.538L90.844,48.538L90.932,48.538L91.012,48.538L91.096,48.538L91.264,48.538L91.349,48.538L91.437,48.538L91.518,48.538L91.601,48.538L91.77,48.538L91.855,48.538L91.944,48.538L92.024,48.538L92.106,48.538L92.276,48.538L92.36,48.538L92.449,48.538L92.529,48.538L92.612,48.538L92.781,48.538L92.865,48.538L92.954,48.538L93.035,48.538L93.117,48.538L93.286,48.538L93.371,48.538L93.46,48.538L93.539,48.538L93.623,48.538L93.792,48.538L93.876,48.538L93.965,48.538L94.045,48.538L94.128,48.538L94.297,48.538L94.381,48.538L94.469,48.538L94.55,48.538L94.633,48.538L94.802,48.538L94.886,48.538L94.975,48.538L95.055,48.538L95.139,48.538L95.308,48.538L95.392,48.538L95.481,48.538L95.561,48.538L95.644,48.538L95.813,48.538L95.898,48.538L95.987,48.538L96.067,48.538L96.15,48.538L96.319,48.538L96.403,48.538L96.492,48.538L96.572,48.538L96.655,48.538L96.824,48.538L96.908,48.538L96.997,48.538L97.077,48.538L97.16,48.538L97.329,48.538L97.414,48.538L97.503,48.538L97.582,48.538L97.666,48.538L97.834,48.538L97.918,48.538L98.007,48.538L98.087,48.538L98.171,48.538L98.34,48.538L98.425,48.538L98.518,48.538L98.597,48.538L98.676,48.538L98.846,48.538L98.93,48.538L99.019,48.538L99.099,48.538L99.181,48.538L99.351,48.538L99.435,48.538L99.523,48.538L99.604,48.538L99.687,48.538L99.856,48.538L99.94,48.538L100.029,48.538L100.11,48.538L100.192,48.538L100.362,48.538L100.446,48.538L100.535,48.538L100.614,48.538L100.697,48.538L100.867,48.538L100.951,48.538L101.04,48.538L101.12,48.538L101.203,48.538L101.372,48.538L101.456,48.538L101.544,48.538L101.625,48.538L101.709,48.538L101.877,48.538L101.961,48.538L102.05,48.538L102.131,48.538L102.214,48.538L102.383,48.538L102.468,48.538L102.556,48.538L102.636,48.538L102.719,48.538L102.888,48.538L102.973,48.538L103.062,48.538L103.142,48.538L103.224,48.538L103.393,27L103.478,27L103.567,27L103.647,27L103.73,27L103.899,27L103.983,27L104.072,27L104.152,27L104.235,27L104.405,27L104.488,27L104.577,27L104.658,27L104.74,27L104.909,27L104.993,27L105.083,27L105.162,27L105.246,27L105.414,27L105.498,27L105.587,27L105.668,27L105.751,27L105.92,27L106.005,27L106.094,27L106.174,27L106.257,27L106.425,27L106.51,27L106.599,27L106.679,27L106.762,27L106.93,27L107.014,27L107.105,27L107.184,27L107.267,27L107.436,27L107.521,27L107.61,27L107.69,27L107.773,27L107.942,27L108.026,27L108.115,27L108.195,27L108.278,27L108.447,27L108.531,27L108.619,27L108.7,27L108.783,27L108.953,27L109.036,27L109.125,27L109.205,27L109.289,27L109.458,27L109.542,27L109.632,27L109.711,27L109.794,27L109.963,27L110.048,27L110.137,27L110.216,27L110.299,27L110.469,27L110.553,27L110.642,27L110.722,27L110.805,27L110.974,27L111.058,27L111.148,27L111.227,27L111.31,27L111.479,27L111.564,27L111.653,27L111.732,27L111.815,27L111.985,27L112.068,27L112.157,27L112.238,27L112.32,27L112.49,27L112.574,27L112.663,27L112.743,27L112.826,27L112.995,27L113.08,27L113.17,27L113.249,27L113.332,27L113.5,27L113.585,27L113.674,27L113.754,27L113.837,27L114.006,27L114.091,27L114.18,27L114.26,27L114.342,27L114.511,27L114.596,27L114.685,27L114.765,27L114.847,27L115.016,27L115.101,27L115.19,27L115.27,27L115.353,27L115.522,27L115.606,27L115.694,27L115.775,27L115.859,27L116.027,27L116.111,27L116.2,27L116.28,27L116.363,27L116.532,27L116.617,27L116.706,27L116.786,27L116.869,27L117.039,27L117.122,27L117.212,27L117.291,27L117.374,27L117.543,27L117.628,27L117.715,27L117.797,27L117.88,27L118.049,27L118.133,27L118.223,27L118.303,27L118.385,27L118.554,27L118.639,27L118.728,27L118.807,27L118.89,27L119.059,27L119.143,27L119.232,27L119.312,27L119.396,27L119.565,27L119.649,27L119.738,27L119.818,27L119.902,27L120.071,27L120.155,27L120.244,27L120.324,27L120.406,27L120.576,27L120.66,27L120.749,27L120.829,27L120.912,27L121.081,27L121.166,27L121.255,27L121.335,27L121.417,27L121.587,27L121.671,27L121.76,27L121.84,27L121.922,27L122.092,27L122.176,27L122.266,27L122.345,27L122.428,27L122.597,27L122.681,27L122.77,27L122.85,27L122.933,27L123.103,27L123.187,27L123.276,27L123.356,27L123.439,27L123.608,27L123.693,27L123.782,27L123.862,27L123.944,27L124.113,27L124.198,27L124.287,27L124.367,27L124.449,27L124.619,27L124.703,27L124.793,27L124.872,27L124.955,27L125.124,27L125.209,27L125.298,27L125.377,27L125.46,27L125.629,27L125.714,27L125.803,27L125.883,27L125.965,27L126.134,27L126.218,27L126.307,27L126.387,27L126.47,27L126.64,27L126.724,27L126.813,27L126.893,27L126.976,27L127.145,27L127.231,27L127.32,27L127.399,27L127.481,27L127.651,27L127.735,27L127.825,27L127.904,27L127.987,27L128.157,27L128.241,27L128.33,27L128.41,27L128.492,27L128.662,27L128.746,27L128.836,27L128.915,27L128.998,27L129.167,27L129.251,27L129.341,27L129.42,27L129.503,27L129.672,46.231L129.757,46.231L129.845,46.231L129.925,46.231L130.008,46.231L130.178,46.231L130.262,46.231L130.351,46.231L130.431,46.231L130.513,46.231L130.684,46.231L130.768,46.231L130.858,46.231L130.937,46.231L131.019,46.231L131.187,46.231L131.273,46.231L131.363,46.231L131.442,46.231L131.524,46.231L131.694,46.231L131.778,46.231L131.868,46.231L131.947,46.231L132.03,46.231L132.199,53.923L132.284,53.923L132.374,53.923L132.453,53.923L132.535,53.923L132.705,53.923L132.789,53.923L132.879,53.923L132.958,53.923L133.041,53.923L133.21,53.923L133.294,53.923L133.383,53.923L133.463,53.923L133.545,53.923L133.716,53.923L133.799,53.923L133.888,53.923L133.968,53.923L134.051,53.923L134.221,53.923L134.306,53.923L134.395,53.923L134.474,53.923L134.557,53.923L134.726,53.923L134.811,53.923L134.901,53.923L134.98,53.923L135.062,53.923L135.231,53.923L135.317,53.923L135.406,53.923L135.486,53.923L135.567,53.923L135.737,23.154L135.822,23.154L135.912,23.154L135.99,23.154L136.073,23.154L136.242,23.154L136.327,23.154L136.417,23.154L136.496,23.154L136.747,23.154L136.831,23.154L136.921,23.154L137,23.154L137.083,23.154L137.253,23.154L137.337,23.154L137.426,23.154L137.506,23.154L137.588,23.154L137.759,23.154L137.844,23.154L137.933,23.154L138.012,23.154L138.094,23.154L138.264,23.154L138.349,23.154L138.439,23.154L138.517,23.154L138.6,23.154L138.769,23.154L138.854,23.154L138.943,23.154L139.023,23.154L139.105,23.154L139.275,23.154L139.359,23.154L139.449,23.154L139.528,23.154L139.61,23.154L139.78,23.154L139.864,23.154L139.954,23.154L140.033,23.154L140.115,23.154L140.285,23.154L140.369,23.154L140.458,23.154L140.538,23.154L140.62,23.154L140.79,23.154L140.874,23.154L140.964,23.154L141.043,23.154L141.126,23.154L141.296,23.154L141.381,23.154L141.47,23.154L141.549,23.154L141.632,23.154L141.801,23.154L141.886,23.154L141.975,23.154L142.055,23.154L142.137,23.154L142.306,23.154L142.391,23.154L142.481,23.154L142.56,23.154L142.642,23.154L142.812,23.154L142.896,23.154L142.986,23.154L143.065,23.154L143.148,23.154L143.317,23.154L143.402,23.154L143.491,23.154L143.57,23.154L143.654,23.154L143.823,23.154L143.906,23.154L143.995,23.154L144.076,23.154L144.158,23.154L144.328,23.154L144.412,23.154L144.502,23.154L144.581,23.154L144.663,23.154L144.833,23.154L144.918,23.154L145.008,23.154L145.087,23.154L145.169,23.154L145.338,23.154L145.423,23.154L145.513,23.154L145.592,23.154L145.674,23.154L145.844,23.154L145.929,23.154L146.018,23.154L146.097,23.154L146.18,23.154L146.35,23.154L146.434,23.154L146.524,23.154L146.603,23.154L146.685,23.154L146.855,23.154L146.939,23.154L147.029,23.154L147.108,23.154L147.19,23.154L147.36,23.154L147.444,23.154L147.533,23.154L147.613,23.154L147.696,23.154L147.865,23.154L147.95,23.154L148.039,23.154L148.118,23.154L148.201,23.154L148.371,23.154L148.455,23.154L148.545,23.154L148.625,23.154L148.706,23.154L148.876,23.154L148.961,23.154L149.051,23.154L149.13,23.154L149.212,23.154L149.381,23.154L149.466,23.154L149.556,23.154L149.635,23.154L149.718,23.154L149.887,23.154L149.971,23.154L150.061,23.154L150.14,23.154L150.223,23.154L150.392,23.154L150.477,23.154L150.566,23.154L150.645,23.154L150.728,23.154L150.897,23.154L150.981,23.154L151.071,23.154L151.15,23.154L151.233,23.154L151.403,23.154L151.487,23.154L151.576,23.154L151.656,23.154L151.739,23.154L151.908,23.154L151.993,23.154L152.083,23.154L152.163,23.154L152.244,23.154L152.413,23.154L152.498,23.154L152.588,23.154L152.667,23.154L152.749,23.154L152.919,23.154L153.004,23.154L153.093,23.154L153.173,23.154L153.255,23.154L153.598,23.154L153.678,23.154L153.76,23.154L153.929,23.154L154.014,23.154L154.103,23.154L154.182,23.154L154.265,23.154L154.435,23.154L154.519,23.154L154.608,23.154L154.688,23.154L154.77,23.154L154.94,23.154L155.024,23.154L155.113,23.154L155.193,23.154L155.275,23.154L155.446,23.154L155.53,23.154L155.62,23.154L155.699,23.154L155.781,23.154L155.951,23.154L156.035,23.154L156.125,23.154L156.204,23.154L156.287,23.154L156.456,23.154L156.541,23.154L156.63,23.154L156.709,23.154L156.792,23.154L156.961,58.538L157.046,58.538L157.135,58.538L157.215,58.538L157.297,58.538L157.466,58.538L157.551,58.538L157.641,58.538L157.72,58.538L157.802,58.538L157.972,58.538L158.056,58.538L158.145,58.538L158.225,58.538L158.307,58.538L158.477,58.538L158.561,58.538L158.65,58.538L158.73,58.538L158.813,58.538L158.983,58.538L159.068,58.538L159.157,58.538L159.236,58.538L159.319,58.538L159.488,58.538L159.573,58.538L159.663,58.538L159.742,58.538L159.824,58.538L159.993,58.538L160.078,58.538L160.168,58.538L160.247,58.538L160.329,58.538L160.499,23.154L160.584,23.154L160.674,23.154L160.753,23.154L160.835,23.154L161.005,23.154L161.089,23.154L161.179,23.154L161.258,23.154L161.341,23.154L161.51,23.154L161.594,23.154L161.684,23.154L161.763,23.154L161.846,23.154L162.015,23.154L162.099,23.154L162.189,23.154L162.268,23.154L162.351,23.154L162.521,23.154L162.606,23.154L162.696,23.154L162.775,23.154L162.857,23.154L163.026,23.154L163.111,23.154L163.201,23.154L163.28,23.154L163.362,23.154L163.531,23.154L163.617,23.154L163.706,23.154L163.785,23.154L163.867,23.154L164.037,23.154L164.122,23.154L164.212,23.154L164.291,23.154L164.373,23.154L164.542,23.154L164.627,23.154L164.717,23.154L164.796,23.154L164.878,23.154L165.047,23.154L165.131,23.154L165.221,23.154L165.301,23.154L165.383,23.154L165.552,23.154L165.637,23.154L165.726,23.154L165.806,23.154L165.888,23.154L166.059,23.154L166.144,23.154L166.233,23.154L166.312,23.154L166.394,23.154L166.564,23.154L166.649,23.154L166.739,23.154L166.818,23.154L166.9,23.154L167.07,23.154L167.154,23.154L167.244,23.154L167.323,23.154L167.405,23.154L167.575,23.154L167.66,23.154L167.75,23.154L167.828,23.154L167.91,23.154L168.08,23.154L168.165,23.154L168.255,23.154L168.333,23.154L168.415,23.154L168.585,23.154L168.669,23.154L168.759,23.154L168.838,23.154L168.92,23.154L169.091,23.154L169.174,23.154L169.264,23.154L169.343,23.154L169.426,23.154L169.596,23.154L169.681,23.154L169.771,23.154L169.85,23.154L169.932,23.154L170.101,23.154L170.186,23.154L170.276,23.154L170.356,23.154L170.437,23.154L170.607,23.154L170.692,23.154L170.782,23.154L170.861,23.154L170.943,23.154L171.112,23.154L171.197,23.154L171.287,23.154L171.366,23.154L171.448,23.154L171.617,23.154L171.702,23.154L171.792,23.154L171.871,23.154L171.953,23.154L172.122,23.154L172.207,23.154L172.296,23.154L172.375,23.154L172.458,23.154L172.628,23.154L172.712,23.154L172.802,23.154L172.88,23.154L172.964,23.154L173.133,23.154L173.219,23.154L173.309,23.154L173.387,23.154L173.47,23.154L173.639,23.154L173.724,23.154L173.814,23.154L173.893,23.154L173.975,23.154L174.144,23.154L174.229,23.154L174.32,23.154L174.398,23.154L174.48,23.154L174.65,23.154L174.735,23.154L174.825,23.154L174.903,23.154L174.985,23.154L175.155,23.154L175.24,23.154L175.33,23.154L175.408,23.154L175.491,23.154L175.66,23.154L175.744,23.154L175.834,23.154L175.912,23.154L175.995,23.154L176.165,23.154L176.249,23.154L176.339,23.154L176.418,23.154L176.501,23.154L176.671,23.154L176.756,23.154L176.846,23.154L176.925,23.154L177.007,23.154L177.176,23.154L177.261,23.154L177.351,23.154L177.43,23.154L177.512,23.154L177.681,23.154L177.766,23.154L177.856,23.154L177.935,23.154L178.017,23.154L178.186,23.154L178.271,23.154L178.361,23.154L178.439,23.154L178.522,23.154L178.691,23.154L178.776,23.154L178.865,23.154L178.944,23.154L179.027,23.154L179.196,23.154L179.281,23.154L179.37,23.154L179.449,23.154L179.532,23.154L179.702,23.154L179.786,23.154L179.875,23.154L179.954,23.154L180.037,23.154L180.208,23.154L180.292,23.154L180.382,23.154L180.46,23.154L180.543,23.154L180.713,23.154L180.797,23.154L180.887,23.154L180.966,23.154L181.048,23.154L181.218,23.154L181.303,23.154L181.392,23.154L181.471,23.154L181.554,23.154L181.723,23.154L181.808,23.154L181.898,23.154L181.976,23.154L182.059,23.154L182.229,23.154L182.313,23.154L182.403,23.154L182.482,23.154L182.564,23.154L182.734,23.154L182.818,23.154L182.907,23.154L182.987,23.154L183.07,23.154L183.239,23.154L183.323,23.154L183.412,23.154L183.492,23.154L183.575,23.154L183.745,23.154L183.829,23.154L183.919,23.154L183.998,23.154L184.08,23.154L184.25,23.154L184.335,23.154L184.424,23.154L184.503,23.154L184.586,23.154L184.755,23.154L184.84,23.154L184.929,23.154L185.009,23.154L185.091,23.154L185.261,23.154L185.345,23.154L185.435,23.154L185.514,23.154L185.597,23.154L185.766,23.154L185.851,23.154L185.94,23.154L186.02,23.154L186.102,23.154L186.271,23.154L186.356,23.154L186.445,23.154L186.524,23.154L186.607,23.154L186.776,23.154L186.861,23.154L186.95,23.154L187.03,23.154L187.112,23.154L187.282,23.154L187.367,23.154L187.457,23.154L187.536,23.154L187.618,23.154L187.787,23.154L187.872,23.154L187.962,23.154L188.045,23.154L188.123,23.154L188.293,23.154L188.378,23.154L188.468,23.154L188.547,23.154L188.629,23.154L188.798,23.154L188.883,23.154L188.973,23.154L189.052,23.154L189.134,23.154L189.304,23.154L189.388,23.154L189.478,23.154L189.557,23.154L189.64,23.154L189.809,23.154L189.893,23.154L189.982,23.154L190.062,23.154L190.144,23.154L190.314,23.154L190.398,23.154L190.488,23.154L190.567,23.154L190.65,23.154L190.82,23.154L190.905,23.154L190.995,23.154L191.074,23.154L191.155,23.154L191.324,23.154L191.409,23.154L191.499,23.154L191.578,23.154L191.661,23.154L191.83,23.154L191.915,23.154L192.004,23.154L192.083,23.154L192.166,23.154L192.335,23.154L192.42,23.154L192.51,23.154L192.672,23.154L192.841,23.154L192.925,23.154L193.015,23.154L193.094,23.154L193.43,23.154L193.519,23.154L193.598,23.154L193.682,23.154L193.851,23.154L193.935,23.154L194.024,23.154L194.104,23.154L194.187,23.154L194.357,23.154L194.442,23.154L194.531,23.154L194.61,23.154L194.693,23.154L194.862,23.154L194.947,23.154L195.037,23.154L195.116,23.154L195.198,23.154L195.368,23.154L195.452,23.154L195.542,23.154L195.621,23.154L195.703,23.154L195.873,23.154L195.957,23.154L196.047,23.154L196.127,23.154L196.209,23.154L196.378,23.154L196.463,23.154L196.552,23.154L196.632,23.154L196.714,23.154L196.884,23.154L196.967,23.154L197.056,23.154L197.137,23.154L197.219,23.154L197.388,23.154L197.472,23.154L197.562,23.154L197.641,23.154L197.725,23.154L197.895,23.154L197.979,23.154L198.069,23.154L198.148,23.154L198.23,23.154L198.4,23.154L198.484,23.154L198.574,23.154L198.653,23.154L198.736,23.154L198.905,23.154L198.99,23.154L199.079,23.154L199.158,23.154L199.241,23.154L199.411,23.154L199.495,23.154L199.584,23.154L199.666,23.154L199.746,23.154L199.916,23.154L200,23.154" stroke="#4c78a8" stroke-width="2"/></g></g><path class="foreground" aria-hidden="true" d="" display="none"/></g><g transform="translate(0,0)"><path class="background" aria-hidden="true" d="M0,0h200v200h-200Z"/><g><g class="mark-line role-mark marks" role="graphics-object" aria-roledescription="line mark container"><path aria-label="Time: Jan 01, 2024; Price: 2499; identifier: altex-LG-F2WR508SBM" role="graphics-symbol" aria-roledescription="line mark" d="M0,7.769L0.053,7.769L0.133,7.769L0.301,7.769L0.386,7.769L0.474,7.769L0.555,7.769L0.638,7.769L0.807,7.769L0.891,7.769L0.98,7.769L1.06,7.769L1.143,7.769L1.312,7.769L1.396,7.769L1.485,7.769L1.566,7.769L1.649,7.769L1.818,27L1.902,27L1.99,27L2.071,27L2.154,27L2.323,27L2.407,27L2.495,27L2.576,27L2.66,27L2.829,27L2.912,27L3.001,27L3.082,27L3.165,27L3.334,27L3.418,27L3.507,27L3.588,27L3.67,27L3.839,27L3.924,27L4.013,27L4.093,27L4.176,27L4.345,27L4.429,27L4.518,27L4.598,27L4.681,27L4.85,27L4.934,27L5.023,27L5.104,27L5.186,27L5.355,27L5.44,27L5.528,27L5.609,27L5.692,27L5.86,38.538L5.944,38.538L6.033,38.538L6.114,38.538L6.197,38.538L6.366,38.538L6.45,38.538L6.538,38.538L6.619,38.538L6.702,38.538L6.871,38.538L6.956,38.538L7.045,38.538L7.125,38.538L7.208,38.538L7.377,38.538L7.461,38.538L7.55,38.538L7.631,38.538L7.713,38.538L7.882,38.538L7.967,38.538L8.055,38.538L8.136,38.538L8.218,38.538L8.387,38.538L8.472,38.538L8.56,38.538L8.641,38.538L8.724,38.538L8.893,38.538L8.977,38.538L9.066,38.538L9.147,38.538L9.229,38.538L9.398,38.538L9.482,38.538L9.57,38.538L9.651,38.538L9.735,38.538L9.903,38.538L9.987,38.538L10.075,38.538L10.156,38.538L10.24,38.538L10.409,38.538L10.494,38.538L10.582,38.538L10.662,38.538L10.745,38.538L10.914,38.538L10.999,38.538L11.088,38.538L11.168,38.538L11.251,38.538L11.42,38.538L11.504,38.538L11.593,38.538L11.673,38.538L11.756,38.538L11.925,38.538L12.009,38.538L12.098,38.538L12.179,38.538L12.261,38.538L12.43,38.538L12.514,38.538L12.602,38.538L12.683,38.538L12.767,38.538L12.935,38.538L13.02,38.538L13.106,38.538L13.188,38.538L13.272,38.538L13.44,38.538L13.525,38.538L13.612,38.538L13.693,38.538L13.777,38.538L13.946,38.538L14.03,38.538L14.118,38.538L14.199,38.538L14.283,38.538L14.451,38.538L14.535,38.538L14.623,38.538L14.705,38.538L14.788,38.538L14.956,38.538L15.041,38.538L15.128,38.538L15.209,38.538L15.293,38.538L15.462,27L15.546,27L15.634,27L15.714,27L15.799,27L15.967,27L16.051,27L16.139,27L16.22,27L16.304,27L16.473,27L16.557,27L16.644,27L16.725,27L16.81,27L16.978,27L17.062,27L17.149,27L17.23,27L17.315,27L17.483,27L17.568,27L17.655,27L17.736,27L17.82,27L17.989,27L18.073,27L18.161,27L18.241,27L18.325,27L18.494,27L18.578,27L18.666,27L18.747,27L18.831,27L18.999,27L19.084,27L19.171,27L19.252,27L19.336,27L19.505,27L19.589,27L19.676,27L19.757,27L19.842,27L20.01,27L20.094,27L20.181,27L20.263,27L20.347,27L20.516,27L20.6,27L20.686,27L20.768,27L20.852,27L21.021,27L21.105,27L21.193,27L21.274,27L21.358,27L21.526,27L21.61,27L21.698,27L21.78,27L21.863,27L22.031,27L22.116,27L22.203,27L22.284,27L22.368,27L22.621,27L22.709,27L22.79,27L22.874,27L23.042,27L23.126,27L23.214,27L23.295,27L23.379,27L23.548,27L23.632,27L23.718,27L23.8,27L23.884,27L24.053,27L24.137,27L24.224,27L24.306,27L24.39,27L24.558,27L24.643,27L24.73,27L24.812,27L24.895,27L25.064,27L25.148,27L25.235,27L25.316,27L25.401,27L25.569,27L25.653,27L25.741,27L25.822,27L25.906,27L26.074,27L26.158,27L26.246,27L26.327,27L26.411,27L26.58,27L26.664,27L26.751,27L26.832,27L26.917,27L27.085,27L27.169,27L27.256,27L27.337,27L27.422,27L27.59,27L27.675,27L27.761,27L27.843,27L27.927,27L28.096,27L28.18,27L28.267,27L28.349,27L28.432,27L28.601,27L28.685,27L28.773,27L28.854,27L28.938,27L29.106,27L29.19,27L29.278,27L29.359,27L29.443,27L29.612,27L29.696,27L29.783,27L29.864,27L29.948,27L30.117,27L30.201,27L30.289,27L30.37,27L30.454,27L30.622,27L30.707,27L30.794,27L30.875,27L30.959,27L31.128,27L31.212,27L31.299,27L31.38,27L31.465,27L31.641,27L31.756,27L31.806,27L31.886,27L31.97,27L32.138,27L32.223,27L32.311,27L32.391,27L32.475,27L32.644,27L32.729,27L32.816,27L32.897,27L32.981,27L33.149,27L33.233,27L33.321,38.538L33.402,38.538L33.486,38.538L33.654,38.538L33.74,38.538L33.826,38.538L33.907,38.538L33.991,38.538L34.16,38.538L34.244,38.538L34.331,38.538L34.413,38.538L34.497,38.538L34.665,38.538L34.75,38.538L34.836,38.538L34.918,38.538L35.002,38.538L35.171,38.538L35.255,38.538L35.343,38.538L35.424,38.538L35.507,38.538L35.676,38.538L35.76,38.538L35.848,38.538L35.929,38.538L36.013,38.538L36.181,38.538L36.266,38.538L36.353,38.538L36.434,38.538L36.518,38.538L36.686,38.538L36.771,38.538L36.859,38.538L36.939,38.538L37.023,38.538L37.192,38.538L37.277,38.538L37.364,38.538L37.445,38.538L37.529,38.538L37.697,38.538L37.782,38.538L37.869,38.538L37.95,38.538L38.034,38.538L38.203,38.538L38.287,38.538L38.374,38.538L38.455,38.538L38.54,38.538L38.708,38.538L38.792,38.538L38.881,38.538L38.961,38.538L39.045,38.538L39.214,38.538L39.298,38.538L39.385,38.538L39.467,38.538L39.55,38.538L39.719,38.538L39.803,38.538L39.891,38.538L39.972,38.538L40.056,38.538L40.224,38.538L40.308,38.538L40.396,38.538L40.478,38.538L40.561,38.538L40.729,38.538L40.814,38.538L40.901,38.538L40.982,38.538L41.066,38.538L41.235,38.538L41.319,38.538L41.406,38.538L41.487,38.538L41.571,38.538L41.74,38.538L41.824,38.538L41.912,38.538L41.993,38.538L42.077,38.538L42.245,38.538L42.33,38.538L42.417,38.538L42.498,38.538L42.582,38.538L42.751,38.538L42.836,38.538L42.923,38.538L43.004,38.538L43.088,38.538L43.257,38.538L43.341,38.538L43.428,38.538L43.51,38.538L43.593,38.538L43.761,38.538L43.846,38.538L43.934,38.538L44.015,38.538L44.098,38.538L44.267,38.538L44.351,38.538L44.439,38.538L44.52,38.538L44.604,38.538L44.772,38.538L44.856,38.538L44.943,38.538L45.025,38.538L45.109,38.538L45.278,38.538L45.362,38.538L45.449,38.538L45.531,38.538L45.614,38.538L45.783,38.538L45.868,38.538L45.955,38.538L46.037,38.538L46.12,38.538L46.289,38.538L46.373,38.538L46.461,38.538L46.542,38.538L46.625,38.538L46.793,38.538L46.878,38.538L46.966,38.538L47.047,38.538L47.13,38.538L47.299,38.538L47.383,38.538L47.471,38.538L47.552,38.538L47.636,38.538L47.805,38.538L47.976,38.538L48.057,38.538L48.141,38.538L48.31,38.538L48.394,38.538L48.481,38.538L48.562,38.538L48.646,38.538L48.815,38.538L48.899,38.538L48.986,38.538L49.068,38.538L49.152,38.538L49.32,38.538L49.404,38.538L49.493,38.538L49.574,38.538L49.657,38.538L49.826,38.538L49.91,38.538L49.998,38.538L50.079,38.538L50.163,38.538L50.331,38.538L50.416,38.538L50.503,38.538L50.585,38.538L50.668,38.538L50.837,38.538L50.921,38.538L51.009,38.538L51.173,38.538L51.342,38.538L51.426,38.538L51.514,38.538L51.594,38.538L51.679,38.538L51.847,38.538L51.931,38.538L52.017,38.538L52.1,38.538L52.184,38.538L52.36,38.538L52.49,38.538L52.569,38.538L52.732,38.538L52.859,38.538L52.942,38.538L53.029,38.538L53.11,38.538L53.195,38.538L53.363,38.538L53.447,38.538L53.535,38.538L53.616,38.538L53.7,38.538L53.868,38.538L53.953,38.538L54.041,38.538L54.122,38.538L54.205,38.538L54.458,38.538L54.546,38.538L54.627,38.538L54.711,38.538L54.879,38.538L54.963,38.538L55.051,38.538L55.133,38.538L55.216,38.538L55.385,38.538L55.469,38.538L55.556,38.538L55.637,38.538L55.721,38.538L55.89,38.538L55.974,38.538L56.062,38.538L56.143,38.538L56.227,38.538L56.395,38.538L56.48,38.538L56.568,38.538L56.648,38.538L56.732,38.538L56.9,38.538L56.985,38.538L57.073,38.538L57.154,38.538L57.238,38.538L57.406,38.538L57.491,38.538L57.581,38.538L57.659,38.538L57.743,38.538L57.911,38.538L57.996,38.538L58.081,38.538L58.164,38.538L58.248,38.538L58.417,38.538L58.501,38.538L58.589,38.538L58.67,38.538L58.754,38.538L58.922,38.538L59.006,38.538L59.093,38.538L59.174,38.538L59.259,38.538L59.427,38.538L59.512,38.538L59.599,38.538L59.68,38.538L59.764,38.538L59.932,38.538L60.018,38.538L60.105,38.538L60.186,38.538L60.27,38.538L60.438,38.538L60.523,38.538L60.611,38.538L60.691,38.538L60.775,38.538L60.943,38.538L61.029,38.538L61.116,38.538L61.196,38.538L61.28,38.538L61.449,38.538L61.533,38.538L61.622,38.538L61.702,38.538L61.786,38.538L61.954,38.538L62.038,38.538L62.126,38.538L62.207,38.538L62.291,38.538L62.459,38.538L62.544,38.538L62.631,38.538L62.712,38.538L62.796,38.538L62.965,38.538L63.049,38.538L63.137,38.538L63.218,38.538L63.301,38.538L63.47,38.538L63.555,38.538L63.643,38.538L63.724,38.538L63.807,38.538L63.975,38.538L64.06,38.538L64.148,30.846L64.229,30.846L64.312,30.846L64.481,30.846L64.565,30.846L64.655,30.846L64.735,30.846L64.818,30.846L64.987,30.846L65.071,30.846L65.159,30.846L65.241,30.846L65.323,30.846L65.491,30.846L65.576,30.846L65.665,30.846L65.745,30.846L65.828,30.846L65.997,30.846L66.081,30.846L66.169,30.846L66.249,30.846L66.334,30.846L66.502,30.846L66.586,30.846L66.675,30.846L66.755,30.846L66.839,30.846L67.008,30.846L67.092,30.846L67.181,30.846L67.261,30.846L67.345,30.846L67.513,30.846L67.598,30.846L67.686,30.846L67.767,30.846L67.85,30.846L68.018,30.846L68.103,30.846L68.192,30.846L68.272,30.846L68.355,30.846L68.524,30.846L68.608,30.846L68.697,30.846L68.777,30.846L68.86,30.846L69.029,30.846L69.113,30.846L69.202,30.846L69.282,30.846L69.366,30.846L69.534,30.846L69.619,30.846L69.707,30.846L69.787,30.846L69.871,30.846L70.04,30.846L70.124,30.846L70.212,30.846L70.293,30.846L70.377,30.846L70.546,30.846L70.629,30.846L70.718,30.846L70.799,30.846L70.882,30.846L71.05,30.846L71.135,30.846L71.224,30.846L71.304,30.846L71.387,30.846L71.556,30.846L71.641,30.846L71.729,38.538L71.81,38.538L71.892,38.538L72.061,38.538L72.145,38.538L72.234,38.538L72.315,38.538L72.398,38.538L72.567,38.538L72.651,38.538L72.74,38.538L72.819,38.538L72.904,38.538L73.072,38.538L73.156,38.538L73.244,38.538L73.325,38.538L73.409,38.538L73.577,38.538L73.661,38.538L73.749,38.538L73.83,38.538L73.915,38.538L74.083,38.538L74.167,38.538L74.256,38.538L74.336,38.538L74.419,38.538L74.589,38.538L74.673,38.538L74.761,38.538L74.841,38.538L74.925,38.538L75.094,38.538L75.178,38.538L75.267,38.538L75.347,38.538L75.43,38.538L75.6,38.538L75.683,38.538L75.772,38.538L75.852,38.538L75.935,38.538L76.105,30.846L76.189,30.846L76.277,30.846L76.357,30.846L76.441,30.846L76.609,30.846L76.693,30.846L76.782,30.846L76.862,30.846L76.946,30.846L77.115,30.846L77.199,30.846L77.287,30.846L77.368,30.846L77.451,30.846L77.62,30.846L77.705,30.846L77.794,30.846L77.874,30.846L77.957,30.846L78.125,30.846L78.21,30.846L78.299,30.846L78.379,30.846L78.462,30.846L78.631,30.846L78.715,30.846L78.804,30.846L78.884,30.846L78.967,30.846L79.136,30.846L79.221,30.846L79.31,30.846L79.389,30.846L79.473,30.846L79.642,30.846L79.726,30.846L79.815,30.846L79.896,30.846L79.978,30.846L80.147,30.846L80.231,30.846L80.319,30.846L80.4,30.846L80.483,30.846L80.652,30.846L80.736,30.846L80.825,30.846L80.905,30.846L80.989,30.846L81.158,30.846L81.243,30.846L81.331,30.846L81.411,30.846L81.494,30.846L81.664,30.846L81.748,30.846L81.837,30.846L81.917,30.846L82,30.846L82.168,30.846L82.253,34.692L82.342,34.692L82.422,34.692L82.505,34.692L82.674,34.692L82.758,34.692L82.847,34.692L82.928,34.692L83.011,34.692L83.179,34.692L83.263,34.692L83.352,40.077L83.432,40.077L83.516,40.077L83.685,40.077L83.769,40.077L83.857,40.077L83.937,40.077L84.021,40.077L84.19,40.077L84.274,40.077L84.363,40.077L84.443,40.077L84.526,40.077L84.696,40.077L84.78,40.077L84.869,40.077L84.949,40.077L85.032,40.077L85.2,40.077L85.285,40.077L85.374,40.077L85.454,40.077L85.537,40.077L85.706,40.077L85.79,40.077L85.88,40.077L85.959,40.077L86.042,40.077L86.211,40.077L86.296,40.077L86.384,40.077L86.466,40.077L86.548,40.077L86.717,40.077L86.801,40.077L86.89,40.077L86.97,40.077L87.053,40.077L87.222,40.077L87.306,40.077L87.395,40.077L87.475,40.077L87.558,40.077L87.727,40.077L87.811,40.077L87.9,40.077L87.98,40.077L88.064,40.077L88.233,40.077L88.317,40.077L88.406,40.077L88.486,40.077L88.569,40.077L88.738,40.077L88.823,40.077L88.911,40.077L89.075,40.077L89.244,40.077L89.328,40.077L89.417,40.077L89.497,40.077L89.58,40.077L89.75,40.077L89.833,40.077L89.922,40.077L90.002,40.077L90.085,40.077L90.254,40.077L90.339,40.077L90.428,40.077L90.507,40.077L90.591,40.077L90.76,40.077L90.844,40.077L90.932,40.077L91.013,40.077L91.096,40.077L91.265,40.077L91.349,40.077L91.437,40.077L91.518,40.077L91.601,40.077L91.77,40.077L91.855,40.077L91.944,40.077L92.024,40.077L92.107,40.077L92.276,40.077L92.36,40.077L92.449,40.077L92.529,40.077L92.612,40.077L92.781,40.077L92.865,40.077L92.954,40.077L93.035,40.077L93.117,40.077L93.286,40.077L93.371,40.077L93.46,40.077L93.539,40.077L93.623,40.077L93.792,40.077L93.876,40.077L93.965,40.077L94.045,40.077L94.128,40.077L94.297,40.077L94.381,40.077L94.469,40.077L94.55,40.077L94.634,40.077L94.802,40.077L94.886,40.077L94.975,40.077L95.055,40.077L95.139,40.077L95.308,40.077L95.392,40.077L95.481,40.077L95.561,40.077L95.644,40.077L95.813,40.077L95.898,40.077L95.987,40.077L96.067,40.077L96.15,40.077L96.319,40.077L96.403,40.077L96.492,40.077L96.572,40.077L96.655,40.077L96.824,40.077L96.908,40.077L96.997,40.077L97.077,40.077L97.16,40.077L97.329,40.077L97.414,40.077L97.503,40.077L97.582,40.077L97.666,40.077L97.834,40.077L97.918,40.077L98.007,40.077L98.087,40.077L98.171,40.077L98.34,40.077L98.425,40.077L98.518,40.077L98.597,40.077L98.676,40.077L98.846,40.077L98.93,40.077L99.019,40.077L99.099,40.077L99.181,40.077L99.351,40.077L99.435,40.077L99.523,40.077L99.604,40.077L99.687,40.077L99.856,40.077L99.94,40.077L100.029,40.077L100.11,40.077L100.192,40.077L100.362,40.077L100.446,40.077L100.535,40.077L100.614,40.077L100.697,40.077L100.867,40.077L100.951,40.077L101.04,40.077L101.12,40.077L101.203,40.077L101.372,40.077L101.456,40.077L101.544,40.077L101.625,40.077L101.709,40.077L101.877,40.077L101.961,40.077L102.05,40.077L102.131,40.077L102.214,40.077L102.383,40.077L102.468,40.077L102.556,40.077L102.636,40.077L102.719,40.077L102.888,40.077L102.973,40.077L103.062,40.077L103.142,40.077L103.224,40.077L103.393,40.077L103.478,40.077L103.567,40.077L103.647,40.077L103.73,40.077L103.899,40.077L103.983,40.077L104.072,40.077L104.152,40.077L104.235,40.077L104.405,40.077L104.488,40.077L104.577,40.077L104.658,40.077L104.74,40.077L104.909,40.077L104.993,40.077L105.083,40.077L105.162,40.077L105.246,40.077L105.414,40.077L105.498,40.077L105.587,40.077L105.668,40.077L105.751,40.077L105.92,40.077L106.005,40.077L106.094,40.077L106.174,40.077L106.257,40.077L106.425,40.077L106.51,40.077L106.599,40.077L106.679,40.077L106.762,40.077L106.93,40.077L107.014,40.077L107.105,40.077L107.184,40.077L107.267,40.077L107.436,40.077L107.521,40.077L107.61,40.077L107.69,40.077L107.773,40.077L107.942,40.077L108.026,40.077L108.115,40.077L108.195,40.077L108.278,40.077L108.447,40.077L108.531,40.077L108.619,40.077L108.7,40.077L108.783,40.077L108.953,40.077L109.036,40.077L109.125,40.077L109.205,40.077L109.289,40.077L109.458,40.077L109.542,40.077L109.632,40.077L109.711,40.077L109.794,40.077L109.963,40.077L110.048,40.077L110.137,40.077L110.216,40.077L110.299,40.077L110.469,40.077L110.553,40.077L110.642,40.077L110.722,40.077L110.805,40.077L110.974,40.077L111.058,40.077L111.148,40.077L111.227,40.077L111.31,40.077L111.479,40.077L111.564,40.077L111.653,40.077L111.732,40.077L111.815,40.077L111.985,40.077L112.068,40.077L112.157,40.077L112.238,40.077L112.32,40.077L112.49,40.077L112.574,40.077L112.663,40.077L112.743,40.077L112.826,40.077L112.995,40.077L113.08,40.077L113.17,40.077L113.249,40.077L113.332,40.077L113.5,40.077L113.585,40.077L113.674,40.077L113.754,40.077L113.837,40.077L114.006,40.077L114.091,40.077L114.18,40.077L114.26,40.077L114.342,40.077L114.511,40.077L114.596,40.077L114.685,40.077L114.765,40.077L114.847,40.077L115.017,40.077L115.101,40.077L115.19,40.077L115.27,40.077L115.353,40.077L115.522,40.077L115.606,40.077L115.694,40.077L115.775,40.077L115.859,40.077L116.027,40.077L116.111,40.077L116.2,40.077L116.28,40.077L116.363,40.077L116.533,40.077L116.617,40.077L116.706,40.077L116.786,40.077L116.869,40.077L117.039,40.077L117.122,40.077L117.212,40.077L117.291,40.077L117.374,40.077L117.543,40.077L117.628,40.077L117.715,40.077L117.797,40.077L117.88,40.077L118.049,40.077L118.133,40.077L118.223,40.077L118.303,40.077L118.385,40.077L118.554,40.077L118.639,40.077L118.728,40.077L118.807,40.077L118.89,40.077L119.06,40.077L119.143,40.077L119.233,40.077L119.312,40.077L119.396,40.077L119.565,40.077L119.649,40.077L119.738,40.077L119.818,40.077L119.902,40.077L120.071,40.077L120.155,40.077L120.244,40.077L120.324,40.077L120.406,40.077L120.576,40.077L120.66,40.077L120.749,40.077L120.829,40.077L120.912,40.077L121.081,40.077L121.166,40.077L121.255,40.077L121.335,40.077L121.417,40.077L121.587,40.077L121.671,40.077L121.76,40.077L121.84,40.077L121.922,40.077L122.092,40.077L122.176,40.077L122.266,40.077L122.345,40.077L122.428,40.077L122.597,40.077L122.681,40.077L122.77,40.077L122.851,40.077L122.933,40.077L123.103,40.077L123.187,40.077L123.276,40.077L123.356,40.077L123.439,40.077L123.608,40.077L123.693,40.077L123.782,40.077L123.862,40.077L123.944,40.077L124.113,40.077L124.198,40.077L124.287,40.077L124.367,40.077L124.449,40.077L124.619,40.077L124.703,40.077L124.793,40.077L124.872,40.077L124.955,40.077L125.124,40.077L125.209,40.077L125.298,40.077L125.377,40.077L125.46,40.077L125.629,40.077L125.714,40.077L125.803,40.077L125.884,40.077L125.965,40.077L126.134,40.077L126.218,40.077L126.307,40.077L126.387,40.077L126.47,40.077L126.64,40.077L126.724,40.077L126.813,40.077L126.893,40.077L126.976,40.077L127.145,40.077L127.231,40.077L127.32,40.077L127.399,40.077L127.481,40.077L127.651,40.077L127.735,40.077L127.825,40.077L127.904,40.077L127.987,40.077L128.157,40.077L128.241,40.077L128.33,40.077L128.41,40.077L128.492,40.077L128.662,40.077L128.746,40.077L128.836,40.077L128.915,40.077L128.998,40.077L129.167,40.077L129.251,40.077L129.341,40.077L129.42,40.077L129.503,40.077L129.672,40.077L129.757,40.077L129.845,40.077L129.925,40.077L130.008,40.077L130.178,40.077L130.262,40.077L130.351,40.077L130.431,40.077L130.513,40.077L130.684,40.077L130.768,40.077L130.858,40.077L130.937,40.077L131.019,40.077L131.187,40.077L131.273,40.077L131.363,40.077L131.442,40.077L131.524,40.077L131.694,40.077L131.778,40.077L131.868,40.077L131.947,40.077L132.03,40.077L132.199,40.077L132.284,40.077L132.374,40.077L132.453,40.077L132.535,40.077L132.705,40.077L132.789,40.077L132.879,40.077L132.958,40.077L133.041,40.077L133.21,40.077L133.294,40.077L133.383,40.077L133.463,40.077L133.545,40.077L133.716,40.077L133.799,40.077L133.888,40.077L133.968,40.077L134.051,40.077L134.221,40.077L134.306,40.077L134.395,40.077L134.474,40.077L134.557,40.077L134.726,40.077L134.811,40.077L134.901,40.077L134.98,40.077L135.062,40.077L135.232,40.077L135.317,40.077L135.406,40.077L135.486,40.077L135.567,40.077L135.737,40.077L135.822,40.077L135.912,40.077L135.99,40.077L136.073,40.077L136.242,40.077L136.327,40.077L136.417,40.077L136.496,40.077L136.747,40.077L136.831,40.077L136.921,40.077L137,40.077L137.083,40.077L137.253,40.077L137.337,40.077L137.426,40.077L137.506,40.077L137.588,40.077L137.759,40.077L137.844,40.077L137.933,40.077L138.012,40.077L138.094,40.077L138.264,40.077L138.349,40.077L138.439,40.077L138.517,40.077L138.6,40.077L138.769,40.077L138.854,40.077L138.943,40.077L139.023,40.077L139.106,40.077L139.275,40.077L139.359,50.077L139.449,50.077L139.528,50.077L139.61,50.077L139.78,50.077L139.864,50.077L139.954,50.077L140.033,50.077L140.115,50.077L140.285,50.077L140.369,50.077L140.458,50.077L140.538,50.077L140.62,50.077L140.79,50.077L140.874,50.077L140.964,50.077L141.043,50.077L141.126,50.077L141.296,50.077L141.381,50.077L141.47,50.077L141.549,50.077L141.632,50.077L141.801,50.077L141.886,30.846L141.975,30.846L142.055,30.846L142.137,30.846L142.306,30.846L142.391,30.846L142.481,50.077L142.56,50.077L142.642,50.077L142.812,50.077L142.896,50.077L142.986,50.077L143.065,50.077L143.148,50.077L143.317,50.077L143.402,50.077L143.491,50.077L143.57,50.077L143.654,50.077L143.823,50.077L143.906,50.077L143.995,50.077L144.076,50.077L144.158,50.077L144.328,50.077L144.412,50.077L144.502,50.077L144.581,50.077L144.663,50.077L144.833,50.077L144.918,50.077L145.008,50.077L145.087,50.077L145.169,50.077L145.338,50.077L145.423,50.077L145.513,50.077L145.592,50.077L145.674,50.077L145.844,50.077L145.929,50.077L146.018,50.077L146.097,50.077L146.18,50.077L146.35,50.077L146.434,50.077L146.524,50.077L146.603,50.077L146.685,50.077L146.855,50.077L146.939,50.077L147.029,50.077L147.108,50.077L147.19,50.077L147.36,50.077L147.444,50.077L147.533,50.077L147.613,50.077L147.696,50.077L147.865,50.077L147.95,50.077L148.039,50.077L148.118,50.077L148.201,50.077L148.371,50.077L148.455,50.077L148.545,50.077L148.625,50.077L148.706,50.077L148.876,50.077L148.961,50.077L149.051,50.077L149.13,50.077L149.212,50.077L149.381,50.077L149.466,50.077L149.556,50.077L149.635,50.077L149.718,50.077L149.887,50.077L149.971,50.077L150.061,50.077L150.14,50.077L150.223,50.077L150.392,50.077L150.477,50.077L150.566,50.077L150.645,50.077L150.728,50.077L150.897,50.077L150.981,50.077L151.071,50.077L151.15,50.077L151.233,50.077L151.403,50.077L151.487,50.077L151.576,50.077L151.656,50.077L151.739,50.077L151.908,50.077L151.993,50.077L152.083,50.077L152.163,50.077L152.244,50.077L152.413,50.077L152.498,50.077L152.588,50.077L152.667,50.077L152.749,50.077L152.919,50.077L153.004,50.077L153.094,50.077L153.173,50.077L153.255,50.077L153.598,50.077L153.678,50.077L153.76,50.077L153.929,50.077L154.014,50.077L154.103,50.077L154.183,50.077L154.265,50.077L154.435,50.077L154.519,50.077L154.608,50.077L154.688,50.077L154.77,50.077L154.94,50.077L155.024,50.077L155.113,50.077L155.193,50.077L155.275,50.077L155.446,50.077L155.53,50.077L155.62,50.077L155.699,50.077L155.781,50.077L155.951,50.077L156.035,50.077L156.125,50.077L156.204,50.077L156.287,50.077L156.456,50.077L156.541,50.077L156.63,50.077L156.709,50.077L156.792,50.077L156.961,50.077L157.046,50.077L157.135,50.077L157.215,50.077L157.297,50.077L157.466,50.077L157.551,50.077L157.641,50.077L157.72,50.077L157.802,50.077L157.972,50.077L158.056,50.077L158.145,50.077L158.225,50.077L158.307,50.077L158.477,50.077L158.561,50.077L158.65,50.077L158.73,50.077L158.813,50.077L158.983,50.077L159.068,50.077L159.157,50.077L159.236,50.077L159.319,50.077L159.488,50.077L159.573,50.077L159.663,50.077L159.742,50.077L159.824,50.077L159.993,50.077L160.078,50.077L160.168,58.538L160.247,58.538L160.329,58.538L160.499,58.538L160.584,58.538L160.674,58.538L160.753,58.538L160.835,58.538L161.005,58.538L161.089,58.538L161.179,58.538L161.258,58.538L161.341,58.538L161.51,58.538L161.594,58.538L161.684,58.538L161.763,58.538L161.846,58.538L162.015,58.538L162.099,58.538L162.189,58.538L162.268,58.538L162.351,58.538L162.521,58.538L162.606,58.538L162.696,58.538L162.775,58.538L162.857,58.538L163.026,58.538L163.111,58.538L163.201,58.538L163.28,58.538L163.362,58.538L163.531,58.538L163.617,58.538L163.706,58.538L163.785,58.538L163.867,58.538L164.037,46.231L164.122,46.231L164.212,58.538L164.291,58.538L164.373,58.538L164.542,58.538L164.627,58.538L164.717,46.231L164.796,46.231L164.878,46.231L165.047,46.231L165.131,46.231L165.221,46.231L165.301,46.231L165.383,46.231L165.552,46.231L165.637,46.231L165.726,46.231L165.806,46.231L165.888,46.231L166.059,46.231L166.144,46.231L166.233,46.231L166.312,46.231L166.394,46.231L166.564,46.231L166.649,46.231L166.739,46.231L166.818,46.231L166.9,46.231L167.07,46.231L167.154,46.231L167.244,58.538L167.323,58.538L167.405,58.538L167.575,58.538L167.66,58.538L167.75,58.538L167.828,58.538L167.91,58.538L168.08,58.538L168.165,58.538L168.255,58.538L168.333,58.538L168.415,58.538L168.585,58.538L168.669,58.538L168.759,58.538L168.838,58.538L168.92,58.538L169.091,58.538L169.174,58.538L169.264,58.538L169.343,58.538L169.426,58.538L169.596,58.538L169.681,58.538L169.771,58.538L169.85,58.538L169.932,58.538L170.101,30.846L170.186,30.846L170.276,58.538L170.356,58.538L170.437,58.538L170.607,58.538L170.692,58.538L170.782,58.538L170.861,58.538L170.943,58.538L171.112,30.846L171.197,30.846L171.287,46.231L171.366,46.231L171.448,46.231L171.617,30.846L171.702,30.846L171.792,46.231L171.871,46.231L171.953,46.231L172.122,46.231L172.207,46.231L172.296,46.231L172.375,46.231L172.458,46.231L172.628,46.231L172.712,46.231L172.802,46.231L172.88,46.231L172.964,46.231L173.133,46.231L173.219,46.231L173.309,46.231L173.387,46.231L173.47,46.231L173.639,46.231L173.724,46.231L173.814,46.231L173.893,46.231L173.975,46.231L174.144,46.231L174.229,46.231L174.32,46.231L174.398,46.231L174.48,46.231L174.65,46.231L174.735,46.231L174.825,46.231L174.903,46.231L174.985,46.231L175.155,46.231L175.24,46.231L175.33,46.231L175.408,46.231L175.491,46.231L175.66,46.231L175.744,46.231L175.834,46.231L175.912,46.231L175.995,46.231L176.165,46.231L176.249,46.231L176.339,46.231L176.418,46.231L176.501,46.231L176.671,46.231L176.756,46.231L176.846,46.231L176.925,46.231L177.007,46.231L177.176,46.231L177.261,46.231L177.351,46.231L177.43,46.231L177.512,46.231L177.681,46.231L177.766,46.231L177.856,46.231L177.935,46.231L178.017,46.231L178.186,46.231L178.271,46.231L178.362,46.231L178.439,46.231L178.522,46.231L178.691,46.231L178.776,46.231L178.866,46.231L178.944,46.231L179.027,46.231L179.196,46.231L179.281,46.231L179.37,46.231L179.449,46.231L179.532,46.231L179.702,46.231L179.786,46.231L179.875,46.231L179.954,46.231L180.037,46.231L180.208,46.231L180.292,46.231L180.382,46.231L180.46,46.231L180.543,46.231L180.713,46.231L180.797,46.231L180.887,46.231L180.966,46.231L181.048,46.231L181.218,46.231L181.303,46.231L181.392,46.231L181.471,46.231L181.554,46.231L181.723,46.231L181.808,46.231L181.898,46.231L181.976,46.231L182.059,46.231L182.229,46.231L182.313,46.231L182.403,46.231L182.482,46.231L182.564,46.231L182.734,46.231L182.818,46.231L182.907,46.231L182.987,46.231L183.07,46.231L183.239,46.231L183.323,46.231L183.412,46.231L183.492,46.231L183.575,46.231L183.745,46.231L183.829,46.231L183.919,46.231L183.998,46.231L184.08,46.231L184.25,46.231L184.335,46.231L184.424,46.231L184.503,46.231L184.586,46.231L184.755,46.231L184.84,46.231L184.929,46.231L185.009,46.231L185.091,46.231L185.261,46.231L185.345,46.231L185.435,46.231L185.514,46.231L185.597,46.231L185.766,46.231L185.851,46.231L185.94,46.231L186.02,46.231L186.102,46.231L186.271,46.231L186.356,46.231L186.445,46.231L186.524,46.231L186.607,46.231L186.776,46.231L186.861,46.231L186.95,46.231L187.03,46.231L187.112,46.231L187.282,46.231L187.367,46.231L187.457,46.231L187.536,46.231L187.618,46.231L187.787,46.231L187.872,46.231L187.962,46.231L188.045,46.231L188.123,46.231L188.293,46.231L188.378,46.231L188.468,46.231L188.547,46.231L188.629,46.231L188.798,46.231L188.883,46.231L188.973,46.231L189.052,46.231L189.134,46.231L189.304,46.231L189.388,46.231L189.478,46.231L189.557,46.231L189.64,46.231L189.809,46.231L189.893,46.231L189.982,46.231L190.062,46.231L190.144,46.231L190.314,46.231L190.398,46.231L190.488,46.231L190.567,46.231L190.65,46.231L190.82,46.231L190.905,46.231L190.995,46.231L191.074,46.231L191.155,46.231L191.324,46.231L191.409,46.231L191.499,46.231L191.578,46.231L191.661,46.231L191.83,46.231L191.915,46.231L192.004,46.231L192.083,46.231L192.166,46.231L192.335,46.231L192.42,46.231L192.51,46.231L192.672,46.231L192.841,46.231L192.925,46.231L193.015,46.231L193.094,46.231L193.43,34.692L193.519,46.231L193.599,46.231L193.682,46.231L193.851,46.231L193.935,46.231L194.024,46.231L194.104,46.231L194.187,46.231L194.357,46.231L194.442,46.231L194.531,46.231L194.61,46.231L194.693,46.231L194.862,46.231L194.947,46.231L195.037,46.231L195.116,46.231L195.198,46.231L195.368,46.231L195.452,46.231L195.542,46.231L195.621,46.231L195.703,46.231L195.873,46.231L195.957,46.231L196.047,46.231L196.127,46.231L196.209,46.231L196.378,46.231L196.463,46.231L196.552,46.231L196.632,46.231L196.714,46.231L196.884,46.231L196.967,46.231L197.056,46.231L197.137,46.231L197.219,46.231L197.389,46.231L197.473,46.231L197.562,46.231L197.641,46.231L197.725,46.231L197.895,46.231L197.979,46.231L198.069,23.154L198.148,23.154L198.23,23.154L198.4,23.154L198.484,23.154L198.574,30.846L198.653,30.846L198.736,30.846L198.905,30.846L198.99,30.846L199.079,30.846L199.158,30.846L199.241,30.846L199.411,30.846L199.495,30.846L199.584,30.846L199.666,30.846L199.747,30.846L199.916,30.846L200,30.846" stroke="#f58518" stroke-width="2"/></g></g><path class="foreground" aria-hidden="true" d="" display="none"/></g></g><g class="mark-group role-legend" role="graphics-symbol" aria-roledescription="legend" aria-label="Symbol legend titled 'identifier' for stroke color with 2 values: altex-LG-F2WR508SBW, altex-LG-F2WR508SBM"><g transform="translate(220,0)"><path class="background" aria-hidden="true" d="M0,0h168v40h-168Z" pointer-events="none"/><g><g class="mark-group role-legend-entry"><g transform="translate(0,16)"><path class="background" aria-hidden="true" d="M0,0h0v0h0Z" pointer-events="none"/><g><g class="mark-group role-scope" role="graphics-object" aria-roledescription="group mark container"><g transform="translate(0,0)"><path class="background" aria-hidden="true" d="M0,0h168v11h-168Z" pointer-events="none" opacity="1"/><g><g class="mark-symbol role-legend-symbol" pointer-events="none"><path transform="translate(6,6)" d="M-5,0L5,0" stroke="#4c78a8" stroke-width="1.5" opacity="1"/></g><g class="mark-text role-legend-label" pointer-events="none"><text text-anchor="start" transform="translate(16,9)" font-family="Liberation Mono" font-size="10px" fill="#000" opacity="1">altex-LG-F2WR508SBW</text></g></g><path class="foreground" aria-hidden="true" d="" pointer-events="none" display="none"/></g><g transform="translate(0,13)"><path class="background" aria-hidden="true" d="M0,0h168v11h-168Z" pointer-events="none" opacity="1"/><g><g class="mark-symbol role-legend-symbol" pointer-events="none"><path transform="translate(6,6)" d="M-5,0L5,0" stroke="#f58518" stroke-width="1.5" opacity="1"/></g><g class="mark-text role-legend-label" pointer-events="none"><text text-anchor="start" transform="translate(16,9)" font-family="Liberation Mono" font-size="10px" fill="#000" opacity="1">altex-LG-F2WR508SBM</text></g></g><path class="foreground" aria-hidden="true" d="" pointer-events="none" display="none"/></g></g></g><path class="foreground" aria-hidden="true" d="" pointer-events="none" display="none"/></g></g><g class="mark-text role-legend-title" pointer-events="none"><text text-anchor="start" transform="translate(0,9)" font-family="Liberation Mono" font-size="11px" font-weight="bold" fill="#000" opacity="1">identifier</text></g></g><path class="foreground" aria-hidden="true" d="" pointer-events="none" display="none"/></g></g></g><path class="foreground" aria-hidden="true" d="" display="none"/></g></g></g></svg>