<svg xmlns="http://www.w3.org/2000/svg" xmlns:xlink="http://www.w3.org/1999/xlink" version="1.1" class="marks" width="460" height="242" viewBox="0 0 460 242"><rect width="460" height="242" fill="white"/><g fill="none" stroke-miterlimit="10" transform="translate(67,5)"><g class="mark-group role-frame root" role="graphics-object" aria-roledescription="group mark container"><g transform="translate(0,0)"><path class="background" aria-hidden="true" d="M0.5,0.5h200v200h-200Z" stroke="#ddd"/><g><g class="mark-group role-axis" aria-hidden="true"><g transform="translate(0.5,200.5)"><path class="background" aria-hidden="true" d="M0,0h0v0h0Z" pointer-events="none"/><g><g class="mark-rule role-axis-grid" pointer-events="none"><line transform="translate(65,-200)" x2="0" y2="200" stroke="#ddd" stroke-width="1" opacity="1"/><line transform="translate(126,-200)" x2="0" y2="200" stroke="#ddd" stroke-width="1" opacity="1"/><line transform="translate(192,-200)" x2="0" y2="200" stroke="#ddd" stroke-width="1" opacity="1"/></g></g><path class="foreground" aria-hidden="true" d="" pointer-events="none" display="none"/></g></g><g class="mark-group role-axis" aria-hidden="true"><g transform="translate(0.5,0.5)"><path class="background" aria-hidden="true" d="M0,0h0v0h0Z" pointer-events="none"/><g><g class="mark-rule role-axis-grid" pointer-events="none"><line transform="translate(0,200)" x2="200" y2="0" stroke="#ddd" stroke-width="1" opacity="1"/><line transform="translate(0,162)" x2="200" y2="0" stroke="#ddd" stroke-width="1" opacity="1"/><line transform="translate(0,123)" x2="200" y2="0" stroke="#ddd" stroke-width="1" opacity="1"/><line transform="translate(0,85)" x2="200" y2="0" stroke="#ddd" stroke-width="1" opacity="1"/><line transform="translate(0,46)" x2="200" y2="0" stroke="#ddd" stroke-width="1" opacity="1"/><line transform="translate(0,8)" x2="200" y2="0" stroke="#ddd" stroke-width="1" opacity="1"/></g></g><path class="foreground" aria-hidden="true" d="" pointer-events="none" display="none"/></g></g><g class="mark-group role-axis" role="graphics-symbol" aria-roledescription="axis" aria-label="X-axis titled 'Time' for a time scale with values from Monday, 01 January 2024, 2:19:43 PM to Thursday, 04 April 2024, 12:48:52 PM"><g transform="translate(0.5,200.5)"><path class="background" aria-hidden="true" d="M0,0h0v0h0Z" pointer-events="none"/><g><g class="mark-rule role-axis-tick" pointer-events="none"><line transform="translate(65,0)" x2="0" y2="5" stroke="#888" stroke-width="1" opacity="1"/><line transform="translate(126,0)" x2="0" y2="5" stroke="#888" stroke-width="1" opacity="1"/><line transform="translate(192,0)" x2="0" y2="5" stroke="#888" stroke-width="1" opacity="1"/></g><g class="mark-text role-axis-label" pointer-events="none"><text text-anchor="middle" transform="translate(64.73062202487698,15)" font-family="Liberation Mono" font-size="10px" fill="#000" opacity="1">February</text><text text-anchor="middle" transform="translate(126.47418998364985,15)" font-family="Liberation Mono" font-size="10px" fill="#000" opacity="1">March</text><text text-anchor="middle" transform="translate(192.4759350430278,15)" font-family="Liberation Mono" font-size="10px" fill="#000" opacity="1">April</text></g><g class="mark-rule role-axis-domain" pointer-events="none"><line transform="translate(0,0)" x2="200" y2="0" stroke="#888" stroke-width="1" opacity="1"/></g><g class="mark-text role-axis-title" pointer-events="none"><text text-anchor="middle" transform="translate(100,30)" font-family="Liberation Mono" font-size="11px" font-weight="bold" fill="#000" opacity="1">Time</text></g></g><path class="foreground" aria-hidden="true" d="" pointer-events="none" display="none"/></g></g><g class="mark-group role-axis" role="graphics-symbol" aria-roledescription="axis" aria-label="Y-axis titled 'Price' for a linear scale with values from 0 to 2,600"><g transform="translate(0.5,0.5)"><path class="background" aria-hidden="true" d="M0,0h0v0h0Z" pointer-events="none"/><g><g class="mark-rule role-axis-tick" pointer-events="none"><line transform="translate(0,200)" x2="-5" y2="0" stroke="#888" stroke-width="1" opacity="1"/><line transform="translate(0,162)" x2="-5" y2="0" stroke="#888" stroke-width="1" opacity="1"/><line transform="translate(0,123)" x2="-5" y2="0" stroke="#888" stroke-width="1" opacity="1"/><line transform="translate(0,85)" x2="-5" y2="0" stroke="#888" stroke-width="1" opacity="1"/><line transform="translate(0,46)" x2="-5" y2="0" stroke="#888" stroke-width="1" opacity="1"/><line transform="translate(0,8)" x2="-5" y2="0" stroke="#888" stroke-width="1" opacity="1"/></g><g class="mark-text role-axis-label" pointer-events="none"><text text-anchor="end" transform="translate(-7,203)" font-family="Liberation Mono" font-size="10px" fill="#000" opacity="1">0</text><text text-anchor="end" transform="translate(-7,164.53846153846155)" font-family="Liberation Mono" font-size="10px" fill="#000" opacity="1">500</text><text text-anchor="end" transform="translate(-7,126.07692307692308)" font-family="Liberation Mono" font-size="10px" fill="#000" opacity="1">1,000</text><text text-anchor="end" transform="translate(-7,87.61538461538463)" font-family="Liberation Mono" font-size="10px" fill="#000" opacity="1">1,500</text><text text-anchor="end" transform="translate(-7,49.153846153846146)" font-family="Liberation Mono" font-size="10px" fill="#000" opacity="1">2,000</text><text text-anchor="end" transform="translate(-7,10.692307692307686)" font-family="Liberation Mono" font-size="10px" fill="#000" opacity="1">2,500</text></g><g class="mark-rule role-axis-domain" pointer-events="none"><line transform="translate(0,200)" x2="0" y2="-200" stroke="#888" stroke-width="1" opacity="1"/></g><g class="mark-text role-axis-title" pointer-events="none"><text text-anchor="middle" transform="translate(-51,100) rotate(-90) translate(0,-2)" font-family="Liberation Mono" font-size="11px" font-weight="bold" fill="#000" opacity="1">Price</text></g></g><path class="foreground" aria-hidden="true" d="" pointer-events="none" display="none"/></g></g><g class="mark-group role-scope pathgroup" role="graphics-object" aria-roledescription="group mark container"><g transform="translate(0,0)"><path class="background" aria-hidden="true" d="M0,0h200v200h-200Z"/><g><g class="mark-line role-mark marks" role="graphics-object" aria-roledescription="line mark container"><path aria-label="Time: Jan 01, 2024; Price: 2399; identifier: altex-LG-F2WR508SBW" role="graphics-symbol" aria-roledescription="line mark" d="M0,15.462L0.223,15.462L0.56,15.462L1.27,15.462L1.625,15.462L1.998,15.462L2.337,15.462L2.689,15.462L3.399,15.462L3.754,15.462L4.127,15.462L4.467,15.462L4.817,15.462L5.528,15.462L5.883,15.462L6.256,15.462L6.598,15.462L6.948,15.462L7.658,34.692L8.013,34.692L8.385,34.692L8.726,34.692L9.076,34.692L9.787,34.692L10.141,34.692L10.513,34.692L10.854,34.692L11.205,34.692L11.917,34.692L12.27,34.692L12.642,34.692L12.983,34.692L13.334,34.692L14.046,34.692L14.402,34.692L14.775,34.692L15.115,34.692L15.463,34.692L16.176,34.692L16.53,34.692L16.908,34.692L17.244,34.692L17.593,34.692L18.305,34.692L18.659,34.692L19.033,34.692L19.372,34.692L19.722,34.692L20.433,34.692L20.788,34.692L21.163,34.692L21.502,34.692L21.851,34.692L22.562,34.692L22.917,34.692L23.29,34.692L23.63,34.692L23.98,34.692L24.69,46.231L25.044,46.231L25.416,46.231L25.757,46.231L26.109,46.231L26.821,46.231L27.173,46.231L27.545,46.231L27.886,46.231L28.238,46.231L28.95,46.231L29.305,46.231L29.68,46.231L30.019,46.231L30.367,46.231L31.078,46.231L31.435,46.231L31.808,46.231L32.148,46.231L32.496,46.231L33.207,46.231L33.564,46.231L33.938,46.231L34.277,46.231L34.625,46.231L35.336,46.231L35.691,46.231L36.066,46.231L36.404,46.231L36.755,46.231L37.466,46.231L37.821,46.231L38.195,46.231L38.535,46.231L38.883,46.231L39.595,46.231L39.948,46.231L40.32,46.231L40.662,46.231L41.013,46.231L41.722,46.231L42.077,46.231L42.449,46.231L42.79,46.231L43.142,46.231L43.855,46.231L44.21,46.231L44.585,46.231L44.922,46.231L45.271,46.231L45.982,46.231L46.339,46.231L46.713,46.231L47.053,46.231L47.4,46.231L48.112,46.231L48.468,46.231L48.842,46.231L49.181,46.231L49.529,46.231L50.242,46.231L50.596,46.231L50.971,46.231L51.311,46.231L51.658,46.231L52.369,46.231L52.725,46.231L53.093,46.231L53.433,46.231L53.788,46.231L54.497,46.231L54.852,46.231L55.217,46.231L55.561,46.231L55.916,46.231L56.626,46.231L56.981,46.231L57.347,46.231L57.69,46.231L58.045,46.231L58.755,46.231L59.111,46.231L59.479,46.231L59.82,46.231L60.175,46.231L60.883,46.231L61.239,46.231L61.608,46.231L61.953,46.231L62.303,46.231L63.013,46.231L63.368,46.231L63.737,46.231L64.078,46.231L64.432,46.231L65.142,34.692L65.497,34.692L65.867,34.692L66.206,34.692L66.561,34.692L67.272,34.692L67.626,34.692L67.995,34.692L68.335,34.692L68.691,34.692L69.4,34.692L69.755,34.692L70.121,34.692L70.465,34.692L70.821,34.692L71.531,34.692L71.885,34.692L72.25,34.692L72.594,34.692L72.948,34.692L73.658,34.692L74.015,34.692L74.384,34.692L74.724,34.692L75.078,34.692L75.787,34.692L76.142,34.692L76.512,34.692L76.853,34.692L77.207,34.692L77.917,34.692L78.272,34.692L78.64,34.692L78.983,34.692L79.336,34.692L80.046,34.692L80.402,34.692L80.769,34.692L81.112,34.692L81.465,34.692L82.175,34.692L82.53,34.692L82.897,34.692L83.24,34.692L83.595,34.692L84.304,34.692L84.658,34.692L85.026,34.692L85.368,34.692L85.724,34.692L86.435,34.692L86.788,34.692L87.154,34.692L87.498,34.692L87.852,34.692L88.562,34.692L88.917,34.692L89.288,34.692L89.627,34.692L89.981,34.692L90.691,34.692L91.046,34.692L91.415,34.692L91.761,34.692L92.111,34.692L92.82,34.692L93.175,34.692L93.545,34.692L93.886,34.692L94.239,34.692L95.304,34.692L95.673,34.692L96.014,34.692L96.369,34.692L97.079,34.692L97.434,34.692L97.803,34.692L98.145,34.692L98.498,34.692L99.208,34.692L99.562,34.692L99.928,34.692L100.272,34.692L100.627,34.692L101.337,34.692L101.693,34.692L102.058,34.692L102.402,34.692L102.756,34.692L103.466,34.692L103.822,34.692L104.191,34.692L104.535,34.692L104.885,34.692L105.596,34.692L105.95,34.692L106.318,34.692L106.661,34.692L107.015,34.692L107.724,34.692L108.079,34.692L108.448,34.692L108.79,34.692L109.144,34.692L109.853,34.692L110.208,34.692L110.577,34.692L110.919,34.692L111.273,34.692L111.982,34.692L112.337,34.692L112.705,34.692L113.047,34.692L113.403,34.692L114.111,34.692L114.466,34.692L114.831,34.692L115.176,34.692L115.53,34.692L116.24,34.692L116.596,34.692L116.961,34.692L117.307,34.692L117.659,34.692L118.369,34.692L118.725,34.692L119.094,34.692L119.435,34.692L119.788,34.692L120.498,34.692L120.854,34.692L121.222,34.692L121.564,34.692L121.918,34.692L122.628,34.692L122.982,34.692L123.351,34.692L123.694,34.692L124.047,34.692L124.757,34.692L125.111,34.692L125.479,34.692L125.821,34.692L126.176,34.692L126.885,34.692L127.242,34.692L127.61,34.692L127.951,34.692L128.305,34.692L129.015,34.692L129.37,34.692L129.738,34.692L130.079,34.692L130.434,34.692L131.144,34.692L131.498,34.692L131.865,34.692L132.208,34.692L132.563,34.692L133.306,34.692L133.79,34.692L134.002,34.692L134.34,34.692L134.693,34.692L135.402,34.692L135.757,34.692L136.128,34.692L136.467,34.692L136.821,34.692L137.531,34.692L137.889,34.692L138.256,34.692L138.599,34.692L138.95,34.692L139.66,34.692L140.016,34.692L140.384,34.692L140.725,34.692L141.08,34.692L141.789,34.692L142.149,34.692L142.513,34.692L142.853,34.692L143.208,34.692L143.919,34.692L144.274,34.692L144.638,34.692L144.985,34.692L145.337,34.692L146.047,34.692L146.405,34.692L146.768,34.692L147.113,34.692L147.467,34.692L148.178,34.692L148.531,34.692L148.902,34.692L149.244,34.692L149.596,34.692L150.306,34.692L150.66,34.692L151.03,34.692L151.373,34.692L151.725,34.692L152.435,34.692L152.792,34.692L153.16,34.692L153.5,34.692L153.854,34.692L154.564,34.692L154.919,34.692L155.289,34.692L155.63,34.692L155.983,34.692L156.693,34.692L157.05,34.692L157.417,34.692L157.759,34.692L158.112,34.692L158.822,34.692L159.178,34.692L159.545,34.692L159.887,34.692L160.243,34.692L160.951,34.692L161.308,34.692L161.673,34.692L162.015,34.692L162.371,34.692L163.08,34.692L163.435,34.692L163.807,34.692L164.148,34.692L164.502,34.692L165.21,34.692L165.564,34.692L165.933,34.692L166.278,34.692L166.628,34.692L167.338,34.692L167.694,34.692L168.063,34.692L168.407,34.692L168.759,34.692L169.468,34.692L169.824,34.692L170.193,34.692L170.537,34.692L170.887,34.692L171.597,34.692L171.951,34.692L172.321,34.692L172.662,34.692L173.016,34.692L173.726,34.692L174.08,34.692L174.449,34.692L174.79,34.692L175.145,34.692L175.855,34.692L176.21,34.692L176.58,34.692L176.919,34.692L177.274,34.692L177.984,34.692L178.339,34.692L178.709,34.692L179.05,34.692L179.403,34.692L180.113,34.692L180.47,34.692L180.838,34.692L181.181,34.692L181.532,34.692L182.245,34.692L182.598,34.692L182.968,34.692L183.311,34.692L183.662,34.692L184.371,34.692L184.726,34.692L185.097,34.692L185.438,34.692L185.79,34.692L186.501,34.692L186.855,34.692L187.226,34.692L187.566,34.692L187.919,34.692L188.629,34.692L188.984,34.692L189.35,34.692L189.695,34.692L190.05,34.692L190.759,34.692L191.115,34.692L191.481,34.692L191.825,34.692L192.178,34.692L192.887,34.692L193.245,34.692L193.615,34.692L193.957,34.692L194.307,34.692L195.018,34.692L195.372,34.692L195.743,34.692L196.085,34.692L196.435,34.692L197.145,34.692L197.501,34.692L197.871,34.692L198.214,34.692L198.565,34.692L199.276,34.692L199.631,34.692L200,34.692" stroke="#4c78a8" stroke-width="2"/></g></g><path class="foreground" aria-hidden="true" d="" display="none"/></g><g transform="translate(0,0)"><path class="background" aria-hidden="true" d="M0,0h200v200h-200Z"/><g><g class="mark-line role-mark marks" role="graphics-object" aria-roledescription="line mark container"><path aria-label="Time: Jan 01, 2024; Price: 2499; identifier: altex-LG-F2WR508SBM" role="graphics-symbol" aria-roledescription="line mark" d="M0,7.769L0.223,7.769L0.56,7.769L1.27,7.769L1.625,7.769L1.998,7.769L2.337,7.769L2.689,7.769L3.399,7.769L3.754,7.769L4.128,7.769L4.467,7.769L4.818,7.769L5.528,7.769L5.884,7.769L6.256,7.769L6.598,7.769L6.948,7.769L7.658,27L8.013,27L8.385,27L8.726,27L9.076,27L9.787,27L10.141,27L10.513,27L10.854,27L11.205,27L11.917,27L12.27,27L12.642,27L12.983,27L13.334,27L14.046,27L14.402,27L14.775,27L15.115,27L15.463,27L16.176,27L16.53,27L16.908,27L17.244,27L17.593,27L18.305,27L18.66,27L19.033,27L19.372,27L19.722,27L20.433,27L20.788,27L21.163,27L21.502,27L21.851,27L22.562,27L22.917,27L23.29,27L23.63,27L23.98,27L24.69,38.538L25.044,38.538L25.416,38.538L25.757,38.538L26.109,38.538L26.821,38.538L27.173,38.538L27.545,38.538L27.886,38.538L28.238,38.538L28.95,38.538L29.305,38.538L29.68,38.538L30.019,38.538L30.367,38.538L31.078,38.538L31.435,38.538L31.808,38.538L32.149,38.538L32.496,38.538L33.208,38.538L33.564,38.538L33.938,38.538L34.277,38.538L34.625,38.538L35.336,38.538L35.692,38.538L36.066,38.538L36.404,38.538L36.755,38.538L37.466,38.538L37.821,38.538L38.195,38.538L38.535,38.538L38.883,38.538L39.595,38.538L39.948,38.538L40.32,38.538L40.662,38.538L41.013,38.538L41.723,38.538L42.077,38.538L42.449,38.538L42.79,38.538L43.142,38.538L43.855,38.538L44.21,38.538L44.585,38.538L44.922,38.538L45.271,38.538L45.983,38.538L46.339,38.538L46.713,38.538L47.053,38.538L47.4,38.538L48.112,38.538L48.468,38.538L48.842,38.538L49.181,38.538L49.529,38.538L50.242,38.538L50.596,38.538L50.971,38.538L51.311,38.538L51.658,38.538L52.369,38.538L52.725,38.538L53.093,38.538L53.433,38.538L53.788,38.538L54.497,38.538L54.852,38.538L55.217,38.538L55.561,38.538L55.916,38.538L56.626,38.538L56.981,38.538L57.347,38.538L57.691,38.538L58.045,38.538L58.755,38.538L59.111,38.538L59.479,38.538L59.82,38.538L60.175,38.538L60.884,38.538L61.239,38.538L61.608,38.538L61.954,38.538L62.303,38.538L63.013,38.538L63.368,38.538L63.738,38.538L64.078,38.538L64.432,38.538L65.142,27L65.497,27L65.867,27L66.207,27L66.561,27L67.272,27L67.626,27L67.995,27L68.335,27L68.691,27L69.4,27L69.755,27L70.121,27L70.465,27L70.821,27L71.531,27L71.885,27L72.25,27L72.594,27L72.949,27L73.659,27L74.015,27L74.384,27L74.724,27L75.078,27L75.788,27L76.143,27L76.512,27L76.853,27L77.207,27L77.917,27L78.272,27L78.64,27L78.984,27L79.336,27L80.046,27L80.402,27L80.77,27L81.112,27L81.465,27L82.175,27L82.531,27L82.897,27L83.24,27L83.595,27L84.304,27L84.659,27L85.026,27L85.368,27L85.724,27L86.435,27L86.788,27L87.154,27L87.498,27L87.852,27L88.563,27L88.917,27L89.288,27L89.628,27L89.981,27L90.691,27L91.046,27L91.415,27L91.761,27L92.111,27L92.82,27L93.175,27L93.545,27L93.886,27L94.239,27L95.304,27L95.673,27L96.015,27L96.369,27L97.079,27L97.434,27L97.803,27L98.145,27L98.498,27L99.209,27L99.562,27L99.928,27L100.272,27L100.627,27L101.337,27L101.693,27L102.058,27L102.402,27L102.756,27L103.466,27L103.822,27L104.191,27L104.535,27L104.885,27L105.596,27L105.95,27L106.318,27L106.661,27L107.015,27L107.724,27L108.079,27L108.449,27L108.79,27L109.144,27L109.853,27L110.208,27L110.577,27L110.919,27L111.273,27L111.982,27L112.337,27L112.705,27L113.047,27L113.404,27L114.111,27L114.466,27L114.832,27L115.176,27L115.53,27L116.24,27L116.596,27L116.961,27L117.307,27L117.659,27L118.369,27L118.725,27L119.094,27L119.435,27L119.789,27L120.498,27L120.854,27L121.222,27L121.564,27L121.918,27L122.628,27L122.982,27L123.351,27L123.694,27L124.047,27L124.757,27L125.111,27L125.479,27L125.821,27L126.176,27L126.885,27L127.242,27L127.61,27L127.951,27L128.305,27L129.015,27L129.37,27L129.738,27L130.079,27L130.434,27L131.144,27L131.499,27L131.865,27L132.208,27L132.564,27L133.306,27L133.79,27L134.002,27L134.34,27L134.693,27L135.402,27L135.757,27L136.128,27L136.467,27L136.821,27L137.531,27L137.889,27L138.256,27L138.599,27L138.95,27L139.66,27L140.016,27L140.384,38.538L140.725,38.538L141.08,38.538L141.79,38.538L142.149,38.538L142.513,38.538L142.853,38.538L143.208,38.538L143.919,38.538L144.274,38.538L144.638,38.538L144.985,38.538L145.337,38.538L146.048,38.538L146.405,38.538L146.768,38.538L147.113,38.538L147.467,38.538L148.178,38.538L148.531,38.538L148.902,38.538L149.244,38.538L149.596,38.538L150.306,38.538L150.66,38.538L151.03,38.538L151.373,38.538L151.725,38.538L152.435,38.538L152.792,38.538L153.16,38.538L153.5,38.538L153.854,38.538L154.564,38.538L154.919,38.538L155.289,38.538L155.63,38.538L155.983,38.538L156.693,38.538L157.05,38.538L157.417,38.538L157.759,38.538L158.112,38.538L158.822,38.538L159.178,38.538L159.545,38.538L159.887,38.538L160.243,38.538L160.951,38.538L161.308,38.538L161.673,38.538L162.015,38.538L162.371,38.538L163.08,38.538L163.435,38.538L163.808,38.538L164.149,38.538L164.502,38.538L165.21,38.538L165.564,38.538L165.933,38.538L166.278,38.538L166.628,38.538L167.338,38.538L167.694,38.538L168.063,38.538L168.407,38.538L168.759,38.538L169.468,38.538L169.824,38.538L170.193,38.538L170.537,38.538L170.887,38.538L171.597,38.538L171.952,38.538L172.321,38.538L172.663,38.538L173.017,38.538L173.726,38.538L174.08,38.538L174.449,38.538L174.79,38.538L175.145,38.538L175.855,38.538L176.21,38.538L176.58,38.538L176.919,38.538L177.274,38.538L177.984,38.538L178.339,38.538L178.709,38.538L179.05,38.538L179.403,38.538L180.113,38.538L180.47,38.538L180.838,38.538L181.181,38.538L181.532,38.538L182.245,38.538L182.599,38.538L182.968,38.538L183.312,38.538L183.662,38.538L184.371,38.538L184.726,38.538L185.097,38.538L185.438,38.538L185.79,38.538L186.501,38.538L186.855,38.538L187.226,38.538L187.567,38.538L187.92,38.538L188.629,38.538L188.984,38.538L189.35,38.538L189.695,38.538L190.05,38.538L190.759,38.538L191.115,38.538L191.481,38.538L191.825,38.538L192.178,38.538L192.887,38.538L193.245,38.538L193.615,38.538L193.957,38.538L194.307,38.538L195.018,38.538L195.373,38.538L195.744,38.538L196.085,38.538L196.436,38.538L197.145,38.538L197.501,38.538L197.871,38.538L198.214,38.538L198.565,38.538L199.276,38.538L199.631,38.538L200,38.538" stroke="#f58518" stroke-width="2"/></g></g><path class="foreground" aria-hidden="true" d="" display="none"/></g></g><g class="mark-group role-legend" role="graphics-symbol" aria-roledescription="legend" aria-label="Symbol legend titled 'identifier' for stroke color with 2 values: altex-LG-F2WR508SBW, altex-LG-F2WR508SBM"><g transform="translate(220,0)"><path class="background" aria-hidden="true" d="M0,0h168v40h-168Z" pointer-events="none"/><g><g class="mark-group role-legend-entry"><g transform="translate(0,16)"><path class="background" aria-hidden="true" d="M0,0h0v0h0Z" pointer-events="none"/><g><g class="mark-group role-scope" role="graphics-object" aria-roledescription="group mark container"><g transform="translate(0,0)"><path class="background" aria-hidden="true" d="M0,0h168v11h-168Z" pointer-events="none" opacity="1"/><g><g class="mark-symbol role-legend-symbol" pointer-events="none"><path transform="translate(6,6)" d="M-5,0L5,0" stroke="#4c78a8" stroke-width="1.5" opacity="1"/></g><g class="mark-text role-legend-label" pointer-events="none"><text text-anchor="start" transform="translate(16,9)" font-family="Liberation Mono" font-size="10px" fill="#000" opacity="1">altex-LG-F2WR508SBW</text></g></g><path class="foreground" aria-hidden="true" d="" pointer-events="none" display="none"/></g><g transform="translate(0,13)"><path class="background" aria-hidden="true" d="M0,0h168v11h-168Z" pointer-events="none" opacity="1"/><g><g class="mark-symbol role-legend-symbol" pointer-events="none"><path transform="translate(6,6)" d="M-5,0L5,0" stroke="#f58518" stroke-width="1.5" opacity="1"/></g><g class="mark-text role-legend-label" pointer-events="none"><text text-anchor="start" transform="translate(16,9)" font-family="Liberation Mono" font-size="10px" fill="#000" opacity="1">altex-LG-F2WR508SBM</text></g></g><path class="foreground" aria-hidden="true" d="" pointer-events="none" display="none"/></g></g></g><path class="foreground" aria-hidden="true" d="" pointer-events="none" display="none"/></g></g><g class="mark-text role-legend-title" pointer-events="none"><text text-anchor="start" transform="translate(0,9)" font-family="Liberation Mono" font-size="11px" font-weight="bold" fill="#000" opacity="1">identifier</text></g></g><path class="foreground" aria-hidden="true" d="" pointer-events="none" display="none"/></g></g></g><path class="foreground" aria-hidden="true" d="" display="none"/></g></g></g></svg>