<svg xmlns="http://www.w3.org/2000/svg" xmlns:xlink="http://www.w3.org/1999/xlink" version="1.1" class="marks" width="460" height="242" viewBox="0 0 460 242"><rect width="460" height="242" fill="white"/><g fill="none" stroke-miterlimit="10" transform="translate(67,5)"><g class="mark-group role-frame root" role="graphics-object" aria-roledescription="group mark container"><g transform="translate(0,0)"><path class="background" aria-hidden="true" d="M0.5,0.5h200v200h-200Z" stroke="#ddd"/><g><g class="mark-group role-axis" aria-hidden="true"><g transform="translate(0.5,200.5)"><path class="background" aria-hidden="true" d="M0,0h0v0h0Z" pointer-events="none"/><g><g class="mark-rule role-axis-grid" pointer-events="none"><line transform="translate(30,-200)" x2="0" y2="200" stroke="#ddd" stroke-width="1" opacity="1"/><line transform="translate(59,-200)" x2="0" y2="200" stroke="#ddd" stroke-width="1" opacity="1"/><line transform="translate(90,-200)" x2="0" y2="200" stroke="#ddd" stroke-width="1" opacity="1"/><line transform="translate(119,-200)" x2="0" y2="200" stroke="#ddd" stroke-width="1" opacity="1"/><line transform="translate(150,-200)" x2="0" y2="200" stroke="#ddd" stroke-width="1" opacity="1"/><line transform="translate(180,-200)" x2="0" y2="200" stroke="#ddd" stroke-width="1" opacity="1"/></g></g><path class="foreground" aria-hidden="true" d="" pointer-events="none" display="none"/></g></g><g class="mark-group role-axis" aria-hidden="true"><g transform="translate(0.5,0.5)"><path class="background" aria-hidden="true" d="M0,0h0v0h0Z" pointer-events="none"/><g><g class="mark-rule role-axis-grid" pointer-events="none"><line transform="translate(0,200)" x2="200" y2="0" stroke="#ddd" stroke-width="1" opacity="1"/><line transform="translate(0,162)" x2="200" y2="0" stroke="#ddd" stroke-width="1" opacity="1"/><line transform="translate(0,123)" x2="200" y2="0" stroke="#ddd" stroke-width="1" opacity="1"/><line transform="translate(0,85)" x2="200" y2="0" stroke="#ddd" stroke-width="1" opacity="1"/><line transform="translate(0,46)" x2="200" y2="0" stroke="#ddd" stroke-width="1" opacity="1"/><line transform="translate(0,8)" x2="200" y2="0" stroke="#ddd" stroke-width="1" opacity="1"/></g></g><path class="foreground" aria-hidden="true" d="" pointer-events="none" display="none"/></g></g><g class="mark-group role-axis" role="graphics-symbol" aria-roledescription="axis" aria-label="X-axis titled 'Time' for a time scale with values from Monday, 01 January 2024, 2:19:43 PM to Sunday, 21 July 2024, 4:39:30 AM"><g transform="translate(0.5,200.5)"><path class="background" aria-hidden="true" d="M0,0h0v0h0Z" pointer-events="none"/><g><g class="mark-rule role-axis-tick" pointer-events="none"><line transform="translate(30,0)" x2="0" y2="5" stroke="#888" stroke-width="1" opacity="1"/><line transform="translate(59,0)" x2="0" y2="5" stroke="#888" stroke-width="1" opacity="1"/><line transform="translate(90,0)" x2="0" y2="5" stroke="#888" stroke-width="1" opacity="1"/><line transform="translate(119,0)" x2="0" y2="5" stroke="#888" stroke-width="1" opacity="1"/><line transform="translate(150,0)" x2="0" y2="5" stroke="#888" stroke-width="1" opacity="1"/><line transform="translate(180,0)" x2="0" y2="5" stroke="#888" stroke-width="1" opacity="1"/></g><g class="mark-text role-axis-label" pointer-events="none"><text text-anchor="middle" transform="translate(30.162117896724777,15)" font-family="Liberation Mono" font-size="10px" fill="#000" opacity="1">February</text><text text-anchor="middle" transform="translate(58.93237713231855,15)" font-family="Liberation Mono" font-size="10px" fill="#000" opacity="0">March</text><text text-anchor="middle" transform="translate(89.68679217726361,15)" font-family="Liberation Mono" font-size="10px" fill="#000" opacity="1">April</text><text text-anchor="middle" transform="translate(119.44912931753302,15)" font-family="Liberation Mono" font-size="10px" fill="#000" opacity="0">May</text><text text-anchor="middle" transform="translate(150.20354436247808,15)" font-family="Liberation Mono" font-size="10px" fill="#000" opacity="1">June</text><text text-anchor="middle" transform="translate(179.9658815027475,15)" font-family="Liberation Mono" font-size="10px" fill="#000" opacity="0">July</text></g><g class="mark-rule role-axis-domain" pointer-events="none"><line transform="translate(0,0)" x2="200" y2="0" stroke="#888" stroke-width="1" opacity="1"/></g><g class="mark-text role-axis-title" pointer-events="none"><text text-anchor="middle" transform="translate(100,30)" font-family="Liberation Mono" font-size="11px" font-weight="bold" fill="#000" opacity="1">Time</text></g></g><path class="foreground" aria-hidden="true" d="" pointer-events="none" display="none"/></g></g><g class="mark-group role-axis" role="graphics-symbol" aria-roledescription="axis" aria-label="Y-axis titled 'Price' for a linear scale with values from 0 to 2,600"><g transform="translate(0.5,0.5)"><path class="background" aria-hidden="true" d="M0,0h0v0h0Z" pointer-events="none"/><g><g class="mark-rule role-axis-tick" pointer-events="none"><line transform="translate(0,200)" x2="-5" y2="0" stroke="#888" stroke-width="1" opacity="1"/><line transform="translate(0,162)" x2="-5" y2="0" stroke="#888" stroke-width="1" opacity="1"/><line transform="translate(0,123)" x2="-5" y2="0" stroke="#888" stroke-width="1" opacity="1"/><line transform="translate(0,85)" x2="-5" y2="0" stroke="#888" stroke-width="1" opacity="1"/><line transform="translate(0,46)" x2="-5" y2="0" stroke="#888" stroke-width="1" opacity="1"/><line transform="translate(0,8)" x2="-5" y2="0" stroke="#888" stroke-width="1" opacity="1"/></g><g class="mark-text role-axis-label" pointer-events="none"><text text-anchor="end" transform="translate(-7,203)" font-family="Liberation Mono" font-size="10px" fill="#000" opacity="1">0</text><text text-anchor="end" transform="translate(-7,164.53846153846155)" font-family="Liberation Mono" font-size="10px" fill="#000" opacity="1">500</text><text text-anchor="end" transform="translate(-7,126.07692307692308)" font-family="Liberation Mono" font-size="10px" fill="#000" opacity="1">1,000</text><text text-anchor="end" transform="translate(-7,87.61538461538463)" font-family="Liberation Mono" font-size="10px" fill="#000" opacity="1">1,500</text><text text-anchor="end" transform="translate(-7,49.153846153846146)" font-family="Liberation Mono" font-size="10px" fill="#000" opacity="1">2,000</text><text text-anchor="end" transform="translate(-7,10.692307692307686)" font-family="Liberation Mono" font-size="10px" fill="#000" opacity="1">2,500</text></g><g class="mark-rule role-axis-domain" pointer-events="none"><line transform="translate(0,200)" x2="0" y2="-200" stroke="#888" stroke-width="1" opacity="1"/></g><g class="mark-text role-axis-title" pointer-events="none"><text text-anchor="middle" transform="translate(-51,100) rotate(-90) translate(0,-2)" font-family="Liberation Mono" font-size="11px" font-weight="bold" fill="#000" opacity="1">Price</text></g></g><path class="foreground" aria-hidden="true" d="" pointer-events="none" display="none"/></g></g><g class="mark-group role-scope pathgroup" role="graphics-object" aria-roledescription="group mark container"><g transform="translate(0,0)"><path class="background" aria-hidden="true" d="M0,0h200v200h-200Z"/><g><g class="mark-line role-mark marks" role="graphics-object" aria-roledescription="line mark container"><path aria-label="Time: Jan 01, 2024; Price: 2399; identifier: altex-LG-F2WR508SBW" role="graphics-symbol" aria-roledescription="line mark" d="M0,15.462L0.104,15.462L0.261,15.462L0.592,15.462L0.757,15.462L0.931,15.462L1.089,15.462L1.253,15.462L1.584,15.462L1.749,15.462L1.923,15.462L2.081,15.462L2.245,15.462L2.576,15.462L2.741,15.462L2.915,15.462L3.074,15.462L3.237,15.462L3.568,34.692L3.734,34.692L3.907,34.692L4.066,34.692L4.229,34.692L4.56,34.692L4.725,34.692L4.899,34.692L5.057,34.692L5.221,34.692L5.553,34.692L5.717,34.692L5.891,34.692L6.05,34.692L6.213,34.692L6.545,34.692L6.711,34.692L6.885,34.692L7.043,34.692L7.205,34.692L7.537,34.692L7.702,34.692L7.878,34.692L8.035,34.692L8.197,34.692L8.529,34.692L8.695,34.692L8.869,34.692L9.027,34.692L9.19,34.692L9.521,34.692L9.687,34.692L9.861,34.692L10.019,34.692L10.182,34.692L10.513,34.692L10.679,34.692L10.852,34.692L11.011,34.692L11.174,34.692L11.505,46.231L11.67,46.231L11.843,46.231L12.002,46.231L12.166,46.231L12.497,46.231L12.662,46.231L12.835,46.231L12.994,46.231L13.158,46.231L13.49,46.231L13.655,46.231L13.83,46.231L13.988,46.231L14.15,46.231L14.481,46.231L14.647,46.231L14.822,46.231L14.98,46.231L15.142,46.231L15.473,46.231L15.64,46.231L15.814,46.231L15.972,46.231L16.134,46.231L16.465,46.231L16.631,46.231L16.805,46.231L16.963,46.231L17.127,46.231L17.458,46.231L17.623,46.231L17.798,46.231L17.956,46.231L18.118,46.231L18.45,46.231L18.614,46.231L18.788,46.231L18.947,46.231L19.111,46.231L19.441,46.231L19.606,46.231L19.78,46.231L19.939,46.231L20.102,46.231L20.435,46.231L20.6,46.231L20.775,46.231L20.932,46.231L21.095,46.231L21.426,46.231L21.592,46.231L21.767,46.231L21.925,46.231L22.087,46.231L22.418,46.231L22.584,46.231L22.759,46.231L22.916,46.231L23.079,46.231L23.411,46.231L23.576,46.231L23.751,46.231L23.909,46.231L24.071,46.231L24.402,46.231L24.568,46.231L24.739,46.231L24.898,46.231L25.063,46.231L25.393,46.231L25.559,46.231L25.729,46.231L25.889,46.231L26.055,46.231L26.386,46.231L26.551,46.231L26.722,46.231L26.882,46.231L27.047,46.231L27.378,46.231L27.543,46.231L27.715,46.231L27.874,46.231L28.039,46.231L28.369,46.231L28.535,46.231L28.707,46.231L28.868,46.231L29.031,46.231L29.362,46.231L29.527,46.231L29.699,46.231L29.858,46.231L30.023,46.231L30.354,34.692L30.519,34.692L30.691,34.692L30.85,34.692L31.015,34.692L31.346,34.692L31.511,34.692L31.683,34.692L31.842,34.692L32.007,34.692L32.338,34.692L32.503,34.692L32.674,34.692L32.834,34.692L33,34.692L33.331,34.692L33.496,34.692L33.666,34.692L33.826,34.692L33.991,34.692L34.322,34.692L34.488,34.692L34.66,34.692L34.819,34.692L34.983,34.692L35.314,34.692L35.48,34.692L35.652,34.692L35.811,34.692L35.976,34.692L36.306,34.692L36.472,34.692L36.644,34.692L36.803,34.692L36.968,34.692L37.298,34.692L37.464,34.692L37.636,34.692L37.795,34.692L37.96,34.692L38.291,34.692L38.456,34.692L38.627,34.692L38.787,34.692L38.952,34.692L39.282,34.692L39.448,34.692L39.619,34.692L39.779,34.692L39.944,34.692L40.275,34.692L40.44,34.692L40.611,34.692L40.771,34.692L40.936,34.692L41.267,34.692L41.432,34.692L41.605,34.692L41.763,34.692L41.928,34.692L42.259,34.692L42.424,34.692L42.596,34.692L42.757,34.692L42.92,34.692L43.251,34.692L43.416,34.692L43.588,34.692L43.747,34.692L43.912,34.692L44.408,34.692L44.58,34.692L44.739,34.692L44.905,34.692L45.235,34.692L45.401,34.692L45.572,34.692L45.732,34.692L45.896,34.692L46.228,34.692L46.392,34.692L46.563,34.692L46.723,34.692L46.888,34.692L47.219,34.692L47.385,34.692L47.555,34.692L47.715,34.692L47.881,34.692L48.211,34.692L48.377,34.692L48.549,34.692L48.709,34.692L48.873,34.692L49.204,34.692L49.369,34.692L49.54,34.692L49.7,34.692L49.865,34.692L50.195,34.692L50.361,34.692L50.533,34.692L50.692,34.692L50.857,34.692L51.188,34.692L51.353,34.692L51.525,34.692L51.684,34.692L51.849,34.692L52.18,34.692L52.345,34.692L52.516,34.692L52.676,34.692L52.842,34.692L53.172,34.692L53.337,34.692L53.507,34.692L53.668,34.692L53.833,34.692L54.164,34.692L54.329,34.692L54.499,34.692L54.661,34.692L54.825,34.692L55.156,34.692L55.322,34.692L55.493,34.692L55.652,34.692L55.817,34.692L56.148,34.692L56.313,34.692L56.485,34.692L56.645,34.692L56.809,34.692L57.14,34.692L57.305,34.692L57.477,34.692L57.637,34.692L57.801,34.692L58.132,34.692L58.297,34.692L58.469,34.692L58.628,34.692L58.793,34.692L59.124,34.692L59.29,34.692L59.461,34.692L59.621,34.692L59.786,34.692L60.116,34.692L60.282,34.692L60.453,34.692L60.612,34.692L60.778,34.692L61.108,34.692L61.273,34.692L61.444,34.692L61.604,34.692L61.77,34.692L62.116,34.692L62.341,34.692L62.44,34.692L62.597,34.692L62.762,34.692L63.092,34.692L63.258,34.692L63.431,34.692L63.589,34.692L63.754,34.692L64.084,34.692L64.251,34.692L64.422,34.692L64.582,34.692L64.746,34.692L65.076,34.692L65.242,34.692L65.414,34.692L65.573,34.692L65.738,34.692L66.069,34.692L66.236,34.692L66.406,34.692L66.564,34.692L66.73,34.692L67.061,34.692L67.226,34.692L67.396,34.692L67.558,34.692L67.722,34.692L68.053,34.692L68.219,34.692L68.388,34.692L68.549,34.692L68.714,34.692L69.046,34.692L69.21,34.692L69.383,34.692L69.542,34.692L69.706,34.692L70.037,34.692L70.202,34.692L70.375,34.692L70.534,34.692L70.698,34.692L71.029,34.692L71.196,34.692L71.367,34.692L71.525,34.692L71.69,34.692L72.021,34.692L72.187,34.692L72.359,34.692L72.518,34.692L72.683,34.692L73.013,34.692L73.18,34.692L73.35,34.692L73.51,34.692L73.675,34.692L74.005,34.692L74.171,34.692L74.342,34.692L74.502,34.692L74.667,34.692L74.997,34.692L75.164,34.692L75.334,34.692L75.493,34.692L75.659,34.692L75.989,34.692L76.155,34.692L76.328,34.692L76.487,34.692L76.652,34.692L76.982,34.692L77.147,34.692L77.319,34.692L77.48,34.692L77.643,34.692L77.974,34.692L78.139,34.692L78.311,34.692L78.472,34.692L78.636,34.692L78.966,34.692L79.132,34.692L79.304,34.692L79.464,34.692L79.627,34.692L79.958,34.692L80.123,34.692L80.295,34.692L80.454,34.692L80.619,34.692L80.95,34.692L81.115,34.692L81.287,34.692L81.446,34.692L81.611,34.692L81.942,34.692L82.107,34.692L82.28,34.692L82.438,34.692L82.603,34.692L82.934,34.692L83.099,34.692L83.272,34.692L83.431,34.692L83.595,34.692L83.926,34.692L84.093,34.692L84.264,34.692L84.424,34.692L84.587,34.692L84.919,34.692L85.084,34.692L85.257,34.692L85.416,34.692L85.58,34.692L85.91,34.692L86.076,34.692L86.248,34.692L86.407,34.692L86.571,34.692L86.903,34.692L87.068,34.692L87.24,34.692L87.399,34.692L87.564,34.692L87.894,34.692L88.06,34.692L88.23,34.692L88.391,34.692L88.556,34.692L88.887,34.692L89.053,34.692L89.223,34.692L89.383,34.692L89.548,34.692L89.878,34.692L90.045,34.692L90.217,34.692L90.377,34.692L90.54,34.692L90.871,34.692L91.036,34.692L91.209,34.692L91.368,34.692L91.532,34.692L91.863,34.692L92.028,34.692L92.2,34.692L92.36,34.692L92.524,34.692L92.855,34.692L93.021,34.692L93.193,34.692L93.352,34.692L93.516,34.692L93.848,34.692L94.184,34.692L94.344,34.692L94.509,34.692L94.839,34.692L95.005,34.692L95.175,34.692L95.335,34.692L95.5,34.692L95.831,34.692L95.996,34.692L96.168,34.692L96.327,34.692L96.492,34.692L96.823,34.692L96.988,34.692L97.161,34.692L97.321,34.692L97.484,34.692L97.815,34.692L97.98,34.692L98.153,34.692L98.312,34.692L98.477,34.692L98.807,34.692L98.974,34.692L99.146,34.692L99.306,34.692L99.47,34.692L99.8,34.692L99.966,34.692L100.138,34.692L100.461,34.692L100.792,34.692L100.958,34.692L101.129,34.692L101.288,34.692L101.453,34.692L101.783,34.692L101.949,34.692L102.118,34.692L102.279,34.692L102.445,34.692L102.791,34.692L103.045,34.692L103.2,34.692L103.521,34.692L103.77,34.692L103.933,34.692L104.103,34.692L104.264,34.692L104.429,34.692L104.76,34.692L104.925,34.692L105.098,34.692L105.256,34.692L105.421,34.692L105.752,34.692L105.917,34.692L106.09,34.692L106.25,34.692L106.414,34.692L106.909,34.692L107.082,34.692L107.241,34.692L107.406,34.692L107.736,34.692L107.902,34.692L108.074,34.692L108.234,34.692L108.397,34.692L108.728,34.692L108.893,34.692L109.065,34.692L109.224,34.692L109.389,34.692L109.721,34.692L109.886,34.692L110.057,34.692L110.216,34.692L110.382,34.692L110.712,34.692L110.878,34.692L111.051,34.692L111.209,34.692L111.373,34.692L111.704,34.692L111.87,34.692L112.043,34.692L112.202,34.692L112.366,34.692L112.696,34.692L112.863,34.692L113.04,34.692L113.193,34.692L113.358,34.692L113.689,34.692L113.855,34.692L114.022,34.692L114.185,34.692L114.35,34.692L114.68,34.692L114.847,34.692L115.019,34.692L115.178,34.692L115.343,34.692L115.673,34.692L115.838,34.692L116.009,34.692L116.168,34.692L116.334,34.692L116.665,34.692L116.83,34.692L117.003,34.692L117.161,34.692L117.326,34.692L117.657,34.692L117.824,34.692L117.996,34.692L118.154,34.692L118.318,34.692L118.649,34.692L118.815,34.692L118.988,34.692L119.146,34.692L119.311,34.692L119.641,34.692L119.809,34.692L119.98,34.692L120.138,34.692L120.302,34.692L120.634,57.769L120.799,57.769L120.973,57.769L121.13,57.769L121.295,57.769L121.626,57.769L121.79,57.769L121.964,57.769L122.122,57.769L122.287,57.769L122.617,57.769L122.783,57.769L122.955,57.769L123.113,57.769L123.279,57.769L123.609,57.769L123.775,57.769L123.947,57.769L124.106,57.769L124.27,57.769L124.601,57.769L124.768,57.769L124.941,57.769L125.1,57.769L125.263,57.769L125.593,57.769L125.759,57.769L125.932,57.769L126.091,57.769L126.255,57.769L126.585,57.769L126.752,57.769L126.927,57.769L127.084,57.769L127.247,57.769L127.579,34.692L127.745,34.692L127.917,34.692L128.077,34.692L128.239,34.692L128.569,34.692L128.735,34.692L128.91,34.692L129.067,34.692L129.231,34.692L129.562,34.692L129.727,34.692L129.899,34.692L130.058,34.692L130.223,34.692L130.554,34.692L130.719,34.692L130.892,34.692L131.05,34.692L131.216,34.692L131.546,34.692L131.712,34.692L131.886,34.692L132.044,34.692L132.208,34.692L132.538,34.692L132.705,34.692L132.878,34.692L133.037,34.692L133.199,34.692L133.531,34.692L133.696,34.692L133.871,34.692L134.028,34.692L134.192,34.692L134.522,34.692L134.688,34.692L134.863,34.692L135.019,34.692L135.183,34.692L135.514,34.692L135.68,34.692L135.854,34.692L136.012,34.692L136.175,34.692L136.506,34.692L136.672,34.692L136.845,34.692L137.003,34.692L137.167,34.692L137.499,34.692L137.664,34.692L137.837,34.692L137.996,34.692L138.16,34.692L138.492,34.692L138.656,34.692L138.831,34.692L138.988,34.692L139.152,34.692L139.483,34.692L139.649,34.692L139.823,34.692L139.98,34.692L140.144,34.692L140.475,34.692L140.641,34.692L140.815,34.692L140.973,34.692L141.136,34.692L141.467,34.692L141.632,34.692L141.806,34.692L141.965,34.692L142.128,34.692L142.46,34.692L142.625,34.692L142.799,34.692L142.956,34.692L143.121,34.692L143.452,34.692L143.617,34.692L143.789,34.692L143.948,34.692L144.112,34.692L144.444,34.692L144.608,34.692L144.781,34.692L144.94,34.692L145.106,34.692L145.435,34.692L145.601,34.692L145.776,34.692L145.933,34.692L146.096,34.692L146.43,34.692L146.594,34.692L146.768,34.692L146.925,34.692L147.088,34.692L147.421,34.692L147.586,34.692L147.76,34.692L147.917,34.692L148.08,34.692L148.413,34.692L148.578,34.692L148.752,34.692L148.909,34.692L149.073,34.692L149.405,34.692L149.57,34.692L149.744,34.692L149.901,34.692L150.065,34.692L150.395,34.692L150.561,34.692L150.734,34.692L150.892,34.692L151.057,34.692L151.388,34.692L151.553,34.692L151.726,34.692L151.884,34.692L152.049,34.692L152.381,34.692L152.546,34.692L152.721,34.692L152.878,34.692L153.042,34.692L153.372,34.692L153.539,34.692L153.713,34.692L153.871,34.692L154.033,34.692L154.366,34.692L154.53,34.692L154.705,34.692L154.862,34.692L155.025,34.692L155.356,34.692L155.522,34.692L155.697,34.692L155.853,34.692L156.017,34.692L156.349,34.692L156.515,34.692L156.689,34.692L156.848,34.692L157.01,34.692L157.34,34.692L157.505,34.692L157.679,34.692L157.838,34.692L158.001,34.692L158.332,34.692L158.497,34.692L158.671,34.692L158.829,34.692L158.993,34.692L159.326,34.692L159.491,34.692L159.666,34.692L159.823,34.692L159.985,34.692L160.318,34.692L160.483,34.692L160.658,34.692L160.815,34.692L160.979,34.692L161.309,34.692L161.475,46.231L161.65,46.231L161.807,46.231L161.969,46.231L162.301,46.231L162.467,46.231L162.641,46.231L162.8,46.231L162.962,46.231L163.293,46.231L163.459,46.231L163.634,48.538L163.79,48.538L163.954,48.538L164.286,48.538L164.452,48.538L164.624,48.538L164.782,48.538L164.946,48.538L165.277,48.538L165.443,48.538L165.617,48.538L165.774,48.538L165.938,48.538L166.271,48.538L166.436,48.538L166.611,48.538L166.767,48.538L166.93,48.538L167.261,48.538L167.428,48.538L167.602,48.538L167.759,48.538L167.922,48.538L168.254,48.538L168.42,48.538L168.595,48.538L168.751,48.538L168.914,48.538L169.245,48.538L169.411,48.538L169.586,48.538L169.745,48.538L169.906,48.538L170.239,48.538L170.404,48.538L170.578,48.538L170.735,48.538L170.899,48.538L171.229,48.538L171.395,48.538L171.57,48.538L171.727,48.538L171.89,48.538L172.222,48.538L172.386,48.538L172.56,48.538L172.718,48.538L172.882,48.538L173.214,48.538L173.38,48.538L173.555,48.538L173.711,48.538L173.874,48.538L174.206,48.538L174.372,48.538L174.546,48.538L174.868,48.538L175.199,48.538L175.364,48.538L175.539,48.538L175.696,48.538L175.859,48.538L176.192,48.538L176.357,48.538L176.531,48.538L176.688,48.538L176.851,48.538L177.182,48.538L177.349,48.538L177.523,48.538L177.679,48.538L177.844,48.538L178.175,48.538L178.34,48.538L178.513,48.538L178.671,48.538L178.835,48.538L179.166,48.538L179.331,48.538L179.505,48.538L179.664,48.538L179.827,48.538L180.159,48.538L180.325,48.538L180.5,48.538L180.657,48.538L180.819,48.538L181.151,48.538L181.317,48.538L181.491,48.538L181.649,48.538L181.812,48.538L182.143,48.538L182.309,48.538L182.483,48.538L182.641,48.538L182.803,48.538L183.135,48.538L183.301,48.538L183.475,48.538L183.632,48.538L183.796,48.538L184.128,48.538L184.293,48.538L184.467,48.538L184.624,48.538L184.787,48.538L185.119,48.538L185.284,48.538L185.457,48.538L185.616,48.538L185.78,48.538L186.11,48.538L186.276,48.538L186.45,48.538L186.607,48.538L186.772,48.538L187.104,48.538L187.27,48.538L187.443,48.538L187.601,48.538L187.764,48.538L188.095,48.538L188.262,48.538L188.437,48.538L188.593,48.538L188.756,48.538L189.088,48.538L189.254,48.538L189.428,48.538L189.585,48.538L189.748,48.538L190.08,48.538L190.245,48.538L190.421,48.538L190.577,48.538L190.74,48.538L191.071,48.538L191.238,48.538L191.413,48.538L191.569,48.538L191.733,48.538L192.063,48.538L192.228,48.538L192.402,48.538L192.56,48.538L192.724,48.538L193.057,48.538L193.223,48.538L193.406,48.538L193.561,48.538L193.716,48.538L194.049,48.538L194.214,48.538L194.389,48.538L194.547,48.538L194.708,48.538L195.04,48.538L195.206,48.538L195.378,48.538L195.539,48.538L195.7,48.538L196.032,48.538L196.198,48.538L196.373,48.538L196.53,48.538L196.692,48.538L197.025,48.538L197.19,48.538L197.366,48.538L197.521,48.538L197.684,48.538L198.017,48.538L198.182,48.538L198.357,48.538L198.515,48.538L198.677,48.538L199.009,48.538L199.173,48.538L199.347,48.538L199.505,48.538L199.669,48.538L200,48.538" stroke="#4c78a8" stroke-width="2"/></g></g><path class="foreground" aria-hidden="true" d="" display="none"/></g><g transform="translate(0,0)"><path class="background" aria-hidden="true" d="M0,0h200v200h-200Z"/><g><g class="mark-line role-mark marks" role="graphics-object" aria-roledescription="line mark container"><path aria-label="Time: Jan 01, 2024; Price: 2499; identifier: altex-LG-F2WR508SBM" role="graphics-symbol" aria-roledescription="line mark" d="M0,7.769L0.104,7.769L0.261,7.769L0.592,7.769L0.757,7.769L0.931,7.769L1.089,7.769L1.253,7.769L1.584,7.769L1.749,7.769L1.923,7.769L2.081,7.769L2.245,7.769L2.576,7.769L2.742,7.769L2.915,7.769L3.075,7.769L3.237,7.769L3.569,27L3.734,27L3.907,27L4.066,27L4.229,27L4.56,27L4.725,27L4.899,27L5.057,27L5.221,27L5.553,27L5.717,27L5.891,27L6.05,27L6.213,27L6.545,27L6.711,27L6.885,27L7.043,27L7.205,27L7.537,27L7.702,27L7.879,27L8.035,27L8.197,27L8.529,27L8.695,27L8.869,27L9.027,27L9.19,27L9.521,27L9.687,27L9.861,27L10.019,27L10.182,27L10.513,27L10.679,27L10.852,27L11.011,27L11.174,27L11.505,38.538L11.67,38.538L11.843,38.538L12.002,38.538L12.166,38.538L12.497,38.538L12.662,38.538L12.835,38.538L12.994,38.538L13.158,38.538L13.49,38.538L13.655,38.538L13.83,38.538L13.988,38.538L14.15,38.538L14.481,38.538L14.647,38.538L14.822,38.538L14.98,38.538L15.142,38.538L15.474,38.538L15.64,38.538L15.814,38.538L15.972,38.538L16.134,38.538L16.465,38.538L16.631,38.538L16.805,38.538L16.963,38.538L17.127,38.538L17.458,38.538L17.623,38.538L17.798,38.538L17.956,38.538L18.118,38.538L18.45,38.538L18.614,38.538L18.788,38.538L18.947,38.538L19.111,38.538L19.441,38.538L19.606,38.538L19.78,38.538L19.939,38.538L20.103,38.538L20.435,38.538L20.6,38.538L20.775,38.538L20.932,38.538L21.095,38.538L21.426,38.538L21.592,38.538L21.767,38.538L21.925,38.538L22.087,38.538L22.419,38.538L22.584,38.538L22.759,38.538L22.916,38.538L23.079,38.538L23.411,38.538L23.576,38.538L23.751,38.538L23.909,38.538L24.071,38.538L24.402,38.538L24.568,38.538L24.739,38.538L24.898,38.538L25.063,38.538L25.393,38.538L25.559,38.538L25.729,38.538L25.89,38.538L26.055,38.538L26.386,38.538L26.551,38.538L26.722,38.538L26.882,38.538L27.047,38.538L27.378,38.538L27.544,38.538L27.715,38.538L27.874,38.538L28.039,38.538L28.37,38.538L28.535,38.538L28.707,38.538L28.868,38.538L29.031,38.538L29.362,38.538L29.527,38.538L29.699,38.538L29.858,38.538L30.023,38.538L30.354,27L30.519,27L30.691,27L30.85,27L31.015,27L31.346,27L31.511,27L31.683,27L31.842,27L32.007,27L32.338,27L32.504,27L32.674,27L32.834,27L33,27L33.331,27L33.496,27L33.666,27L33.826,27L33.991,27L34.322,27L34.488,27L34.66,27L34.819,27L34.983,27L35.314,27L35.48,27L35.652,27L35.811,27L35.976,27L36.306,27L36.472,27L36.644,27L36.804,27L36.968,27L37.298,27L37.464,27L37.636,27L37.795,27L37.96,27L38.291,27L38.456,27L38.627,27L38.787,27L38.952,27L39.283,27L39.448,27L39.619,27L39.779,27L39.944,27L40.275,27L40.44,27L40.611,27L40.771,27L40.936,27L41.267,27L41.432,27L41.605,27L41.763,27L41.928,27L42.259,27L42.424,27L42.596,27L42.757,27L42.92,27L43.251,27L43.416,27L43.588,27L43.747,27L43.912,27L44.408,27L44.58,27L44.739,27L44.905,27L45.235,27L45.401,27L45.572,27L45.732,27L45.896,27L46.228,27L46.392,27L46.563,27L46.723,27L46.888,27L47.219,27L47.385,27L47.555,27L47.715,27L47.881,27L48.211,27L48.377,27L48.549,27L48.709,27L48.873,27L49.204,27L49.369,27L49.54,27L49.7,27L49.865,27L50.195,27L50.361,27L50.533,27L50.692,27L50.857,27L51.188,27L51.353,27L51.525,27L51.684,27L51.849,27L52.18,27L52.345,27L52.516,27L52.676,27L52.842,27L53.172,27L53.337,27L53.507,27L53.668,27L53.833,27L54.164,27L54.329,27L54.5,27L54.661,27L54.825,27L55.156,27L55.322,27L55.493,27L55.652,27L55.817,27L56.148,27L56.314,27L56.485,27L56.645,27L56.809,27L57.14,27L57.305,27L57.477,27L57.637,27L57.802,27L58.132,27L58.297,27L58.469,27L58.628,27L58.793,27L59.124,27L59.29,27L59.462,27L59.621,27L59.786,27L60.116,27L60.282,27L60.453,27L60.612,27L60.778,27L61.108,27L61.274,27L61.444,27L61.604,27L61.77,27L62.116,27L62.342,27L62.44,27L62.597,27L62.762,27L63.092,27L63.258,27L63.431,27L63.589,27L63.754,27L64.084,27L64.251,27L64.422,27L64.582,27L64.746,27L65.077,27L65.242,27L65.414,38.538L65.573,38.538L65.738,38.538L66.069,38.538L66.236,38.538L66.406,38.538L66.565,38.538L66.73,38.538L67.061,38.538L67.226,38.538L67.396,38.538L67.558,38.538L67.722,38.538L68.053,38.538L68.219,38.538L68.388,38.538L68.549,38.538L68.714,38.538L69.046,38.538L69.21,38.538L69.383,38.538L69.542,38.538L69.706,38.538L70.037,38.538L70.202,38.538L70.375,38.538L70.535,38.538L70.698,38.538L71.029,38.538L71.196,38.538L71.367,38.538L71.525,38.538L71.69,38.538L72.021,38.538L72.187,38.538L72.359,38.538L72.518,38.538L72.683,38.538L73.013,38.538L73.18,38.538L73.351,38.538L73.51,38.538L73.675,38.538L74.005,38.538L74.171,38.538L74.342,38.538L74.502,38.538L74.667,38.538L74.997,38.538L75.164,38.538L75.334,38.538L75.493,38.538L75.659,38.538L75.989,38.538L76.155,38.538L76.328,38.538L76.487,38.538L76.652,38.538L76.982,38.538L77.147,38.538L77.319,38.538L77.48,38.538L77.643,38.538L77.974,38.538L78.139,38.538L78.311,38.538L78.472,38.538L78.636,38.538L78.966,38.538L79.132,38.538L79.304,38.538L79.464,38.538L79.627,38.538L79.958,38.538L80.123,38.538L80.295,38.538L80.454,38.538L80.619,38.538L80.95,38.538L81.115,38.538L81.287,38.538L81.446,38.538L81.611,38.538L81.942,38.538L82.107,38.538L82.28,38.538L82.438,38.538L82.603,38.538L82.934,38.538L83.099,38.538L83.272,38.538L83.431,38.538L83.595,38.538L83.926,38.538L84.093,38.538L84.264,38.538L84.424,38.538L84.587,38.538L84.92,38.538L85.084,38.538L85.257,38.538L85.417,38.538L85.58,38.538L85.91,38.538L86.076,38.538L86.248,38.538L86.407,38.538L86.571,38.538L86.903,38.538L87.068,38.538L87.241,38.538L87.399,38.538L87.564,38.538L87.894,38.538L88.06,38.538L88.23,38.538L88.391,38.538L88.557,38.538L88.887,38.538L89.053,38.538L89.223,38.538L89.383,38.538L89.548,38.538L89.878,38.538L90.045,38.538L90.218,38.538L90.377,38.538L90.54,38.538L90.871,38.538L91.036,38.538L91.209,38.538L91.368,38.538L91.532,38.538L91.863,38.538L92.028,38.538L92.201,38.538L92.361,38.538L92.524,38.538L92.855,38.538L93.021,38.538L93.193,38.538L93.352,38.538L93.516,38.538L93.848,38.538L94.184,38.538L94.344,38.538L94.509,38.538L94.839,38.538L95.005,38.538L95.175,38.538L95.335,38.538L95.5,38.538L95.831,38.538L95.996,38.538L96.168,38.538L96.327,38.538L96.492,38.538L96.824,38.538L96.988,38.538L97.161,38.538L97.321,38.538L97.485,38.538L97.815,38.538L97.98,38.538L98.153,38.538L98.312,38.538L98.477,38.538L98.807,38.538L98.974,38.538L99.146,38.538L99.306,38.538L99.47,38.538L99.8,38.538L99.966,38.538L100.138,38.538L100.461,38.538L100.792,38.538L100.958,38.538L101.129,38.538L101.288,38.538L101.453,38.538L101.783,38.538L101.949,38.538L102.118,38.538L102.279,38.538L102.445,38.538L102.791,38.538L103.045,38.538L103.2,38.538L103.521,38.538L103.77,38.538L103.933,38.538L104.103,38.538L104.264,38.538L104.429,38.538L104.76,38.538L104.925,38.538L105.098,38.538L105.256,38.538L105.421,38.538L105.752,38.538L105.917,38.538L106.091,38.538L106.25,38.538L106.414,38.538L106.91,38.538L107.082,38.538L107.241,38.538L107.406,38.538L107.736,38.538L107.902,38.538L108.074,38.538L108.234,38.538L108.397,38.538L108.728,38.538L108.894,38.538L109.065,38.538L109.224,38.538L109.389,38.538L109.721,38.538L109.886,38.538L110.057,38.538L110.216,38.538L110.382,38.538L110.712,38.538L110.878,38.538L111.051,38.538L111.209,38.538L111.374,38.538L111.704,38.538L111.87,38.538L112.043,38.538L112.202,38.538L112.366,38.538L112.696,38.538L112.863,38.538L113.04,38.538L113.193,38.538L113.358,38.538L113.689,38.538L113.855,38.538L114.022,38.538L114.185,38.538L114.35,38.538L114.681,38.538L114.847,38.538L115.019,38.538L115.178,38.538L115.343,38.538L115.673,38.538L115.838,38.538L116.009,38.538L116.169,38.538L116.334,38.538L116.665,38.538L116.83,38.538L117.003,38.538L117.161,38.538L117.326,38.538L117.657,38.538L117.824,38.538L117.996,38.538L118.154,38.538L118.318,38.538L118.649,38.538L118.815,38.538L118.988,38.538L119.146,38.538L119.311,38.538L119.641,38.538L119.809,38.538L119.98,38.538L120.138,38.538L120.302,38.538L120.634,38.538L120.799,38.538L120.973,38.538L121.13,38.538L121.295,38.538L121.626,38.538L121.79,38.538L121.964,38.538L122.122,38.538L122.287,38.538L122.617,38.538L122.783,38.538L122.955,38.538L123.113,38.538L123.279,38.538L123.609,38.538L123.775,38.538L123.947,38.538L124.106,38.538L124.27,38.538L124.601,38.538L124.768,38.538L124.941,38.538L125.1,38.538L125.263,38.538L125.593,38.538L125.759,38.538L125.932,30.846L126.091,30.846L126.255,30.846L126.585,30.846L126.752,30.846L126.927,30.846L127.084,30.846L127.247,30.846L127.579,30.846L127.745,30.846L127.917,30.846L128.077,30.846L128.24,30.846L128.57,30.846L128.735,30.846L128.91,30.846L129.067,30.846L129.231,30.846L129.562,30.846L129.727,30.846L129.899,30.846L130.058,30.846L130.223,30.846L130.554,30.846L130.719,30.846L130.892,30.846L131.05,30.846L131.216,30.846L131.547,30.846L131.712,30.846L131.886,30.846L132.044,30.846L132.208,30.846L132.538,30.846L132.705,30.846L132.878,30.846L133.037,30.846L133.199,30.846L133.531,30.846L133.696,30.846L133.871,30.846L134.028,30.846L134.192,30.846L134.522,30.846L134.689,30.846L134.863,30.846L135.019,30.846L135.183,30.846L135.514,30.846L135.68,30.846L135.854,30.846L136.012,30.846L136.175,30.846L136.506,30.846L136.672,30.846L136.845,30.846L137.003,30.846L137.167,30.846L137.499,30.846L137.664,30.846L137.837,30.846L137.996,30.846L138.16,30.846L138.492,30.846L138.656,30.846L138.831,30.846L138.988,30.846L139.152,30.846L139.483,30.846L139.649,30.846L139.823,30.846L139.98,30.846L140.144,30.846L140.476,30.846L140.641,30.846L140.815,38.538L140.973,38.538L141.136,38.538L141.467,38.538L141.633,38.538L141.806,38.538L141.965,38.538L142.128,38.538L142.461,38.538L142.625,38.538L142.799,38.538L142.956,38.538L143.121,38.538L143.452,38.538L143.617,38.538L143.789,38.538L143.948,38.538L144.112,38.538L144.444,38.538L144.608,38.538L144.781,38.538L144.94,38.538L145.106,38.538L145.436,38.538L145.602,38.538L145.776,38.538L145.933,38.538L146.096,38.538L146.43,38.538L146.594,38.538L146.768,38.538L146.925,38.538L147.088,38.538L147.421,38.538L147.586,38.538L147.76,38.538L147.917,38.538L148.08,38.538L148.413,38.538L148.578,38.538L148.752,38.538L148.909,38.538L149.073,38.538L149.405,30.846L149.57,30.846L149.744,30.846L149.901,30.846L150.065,30.846L150.395,30.846L150.561,30.846L150.734,30.846L150.892,30.846L151.057,30.846L151.388,30.846L151.553,30.846L151.726,30.846L151.884,30.846L152.049,30.846L152.381,30.846L152.546,30.846L152.721,30.846L152.878,30.846L153.042,30.846L153.372,30.846L153.539,30.846L153.713,30.846L153.871,30.846L154.033,30.846L154.366,30.846L154.53,30.846L154.705,30.846L154.862,30.846L155.025,30.846L155.356,30.846L155.522,30.846L155.697,30.846L155.853,30.846L156.017,30.846L156.349,30.846L156.515,30.846L156.689,30.846L156.848,30.846L157.01,30.846L157.34,30.846L157.505,30.846L157.679,30.846L157.838,30.846L158.001,30.846L158.332,30.846L158.497,30.846L158.671,30.846L158.829,30.846L158.993,30.846L159.326,30.846L159.492,30.846L159.666,30.846L159.823,30.846L159.985,30.846L160.318,30.846L160.483,30.846L160.658,30.846L160.815,30.846L160.979,30.846L161.309,30.846L161.475,34.692L161.65,34.692L161.807,34.692L161.97,34.692L162.301,34.692L162.467,34.692L162.641,34.692L162.8,34.692L162.962,34.692L163.293,34.692L163.459,34.692L163.634,40.077L163.79,40.077L163.954,40.077L164.286,40.077L164.452,40.077L164.624,40.077L164.782,40.077L164.946,40.077L165.277,40.077L165.443,40.077L165.617,40.077L165.774,40.077L165.938,40.077L166.271,40.077L166.436,40.077L166.611,40.077L166.767,40.077L166.93,40.077L167.261,40.077L167.428,40.077L167.602,40.077L167.759,40.077L167.922,40.077L168.254,40.077L168.42,40.077L168.595,40.077L168.751,40.077L168.914,40.077L169.245,40.077L169.411,40.077L169.586,40.077L169.745,40.077L169.906,40.077L170.239,40.077L170.404,40.077L170.578,40.077L170.735,40.077L170.899,40.077L171.229,40.077L171.395,40.077L171.57,40.077L171.727,40.077L171.89,40.077L172.222,40.077L172.386,40.077L172.56,40.077L172.718,40.077L172.882,40.077L173.214,40.077L173.38,40.077L173.555,40.077L173.711,40.077L173.875,40.077L174.206,40.077L174.372,40.077L174.546,40.077L174.868,40.077L175.199,40.077L175.364,40.077L175.539,40.077L175.696,40.077L175.859,40.077L176.192,40.077L176.357,40.077L176.531,40.077L176.688,40.077L176.851,40.077L177.182,40.077L177.349,40.077L177.523,40.077L177.679,40.077L177.844,40.077L178.175,40.077L178.34,40.077L178.513,40.077L178.671,40.077L178.835,40.077L179.166,40.077L179.331,40.077L179.505,40.077L179.664,40.077L179.827,40.077L180.159,40.077L180.325,40.077L180.5,40.077L180.657,40.077L180.819,40.077L181.151,40.077L181.317,40.077L181.491,40.077L181.649,40.077L181.812,40.077L182.143,40.077L182.309,40.077L182.483,40.077L182.641,40.077L182.803,40.077L183.135,40.077L183.301,40.077L183.475,40.077L183.632,40.077L183.796,40.077L184.128,40.077L184.293,40.077L184.467,40.077L184.624,40.077L184.787,40.077L185.119,40.077L185.284,40.077L185.457,40.077L185.616,40.077L185.78,40.077L186.11,40.077L186.276,40.077L186.45,40.077L186.607,40.077L186.772,40.077L187.104,40.077L187.27,40.077L187.443,40.077L187.601,40.077L187.764,40.077L188.095,40.077L188.262,40.077L188.437,40.077L188.593,40.077L188.756,40.077L189.088,40.077L189.254,40.077L189.429,40.077L189.585,40.077L189.748,40.077L190.08,40.077L190.245,40.077L190.421,40.077L190.577,40.077L190.74,40.077L191.071,40.077L191.238,40.077L191.413,40.077L191.569,40.077L191.733,40.077L192.063,40.077L192.228,40.077L192.402,40.077L192.56,40.077L192.724,40.077L193.057,40.077L193.223,40.077L193.406,40.077L193.561,40.077L193.716,40.077L194.049,40.077L194.214,40.077L194.389,40.077L194.547,40.077L194.708,40.077L195.041,40.077L195.206,40.077L195.378,40.077L195.539,40.077L195.7,40.077L196.032,40.077L196.198,40.077L196.373,40.077L196.531,40.077L196.692,40.077L197.025,40.077L197.19,40.077L197.366,40.077L197.521,40.077L197.684,40.077L198.017,40.077L198.182,40.077L198.357,40.077L198.515,40.077L198.677,40.077L199.009,40.077L199.173,40.077L199.347,40.077L199.505,40.077L199.669,40.077L200,40.077" stroke="#f58518" stroke-width="2"/></g></g><path class="foreground" aria-hidden="true" d="" display="none"/></g></g><g class="mark-group role-legend" role="graphics-symbol" aria-roledescription="legend" aria-label="Symbol legend titled 'identifier' for stroke color with 2 values: altex-LG-F2WR508SBW, altex-LG-F2WR508SBM"><g transform="translate(220,0)"><path class="background" aria-hidden="true" d="M0,0h168v40h-168Z" pointer-events="none"/><g><g class="mark-group role-legend-entry"><g transform="translate(0,16)"><path class="background" aria-hidden="true" d="M0,0h0v0h0Z" pointer-events="none"/><g><g class="mark-group role-scope" role="graphics-object" aria-roledescription="group mark container"><g transform="translate(0,0)"><path class="background" aria-hidden="true" d="M0,0h168v11h-168Z" pointer-events="none" opacity="1"/><g><g class="mark-symbol role-legend-symbol" pointer-events="none"><path transform="translate(6,6)" d="M-5,0L5,0" stroke="#4c78a8" stroke-width="1.5" opacity="1"/></g><g class="mark-text role-legend-label" pointer-events="none"><text text-anchor="start" transform="translate(16,9)" font-family="Liberation Mono" font-size="10px" fill="#000" opacity="1">altex-LG-F2WR508SBW</text></g></g><path class="foreground" aria-hidden="true" d="" pointer-events="none" display="none"/></g><g transform="translate(0,13)"><path class="background" aria-hidden="true" d="M0,0h168v11h-168Z" pointer-events="none" opacity="1"/><g><g class="mark-symbol role-legend-symbol" pointer-events="none"><path transform="translate(6,6)" d="M-5,0L5,0" stroke="#f58518" stroke-width="1.5" opacity="1"/></g><g class="mark-text role-legend-label" pointer-events="none"><text text-anchor="start" transform="translate(16,9)" font-family="Liberation Mono" font-size="10px" fill="#000" opacity="1">altex-LG-F2WR508SBM</text></g></g><path class="foreground" aria-hidden="true" d="" pointer-events="none" display="none"/></g></g></g><path class="foreground" aria-hidden="true" d="" pointer-events="none" display="none"/></g></g><g class="mark-text role-legend-title" pointer-events="none"><text text-anchor="start" transform="translate(0,9)" font-family="Liberation Mono" font-size="11px" font-weight="bold" fill="#000" opacity="1">identifier</text></g></g><path class="foreground" aria-hidden="true" d="" pointer-events="none" display="none"/></g></g></g><path class="foreground" aria-hidden="true" d="" display="none"/></g></g></g></svg>