<svg xmlns="http://www.w3.org/2000/svg" xmlns:xlink="http://www.w3.org/1999/xlink" version="1.1" class="marks" width="460" height="242" viewBox="0 0 460 242"><rect width="460" height="242" fill="white"/><g fill="none" stroke-miterlimit="10" transform="translate(67,5)"><g class="mark-group role-frame root" role="graphics-object" aria-roledescription="group mark container"><g transform="translate(0,0)"><path class="background" aria-hidden="true" d="M0.5,0.5h200v200h-200Z" stroke="#ddd"/><g><g class="mark-group role-axis" aria-hidden="true"><g transform="translate(0.5,200.5)"><path class="background" aria-hidden="true" d="M0,0h0v0h0Z" pointer-events="none"/><g><g class="mark-rule role-axis-grid" pointer-events="none"><line transform="translate(62,-200)" x2="0" y2="200" stroke="#ddd" stroke-width="1" opacity="1"/><line transform="translate(124,-200)" x2="0" y2="200" stroke="#ddd" stroke-width="1" opacity="1"/><line transform="translate(186,-200)" x2="0" y2="200" stroke="#ddd" stroke-width="1" opacity="1"/></g></g><path class="foreground" aria-hidden="true" d="" pointer-events="none" display="none"/></g></g><g class="mark-group role-axis" aria-hidden="true"><g transform="translate(0.5,0.5)"><path class="background" aria-hidden="true" d="M0,0h0v0h0Z" pointer-events="none"/><g><g class="mark-rule role-axis-grid" pointer-events="none"><line transform="translate(0,200)" x2="200" y2="0" stroke="#ddd" stroke-width="1" opacity="1"/><line transform="translate(0,162)" x2="200" y2="0" stroke="#ddd" stroke-width="1" opacity="1"/><line transform="translate(0,123)" x2="200" y2="0" stroke="#ddd" stroke-width="1" opacity="1"/><line transform="translate(0,85)" x2="200" y2="0" stroke="#ddd" stroke-width="1" opacity="1"/><line transform="translate(0,46)" x2="200" y2="0" stroke="#ddd" stroke-width="1" opacity="1"/><line transform="translate(0,8)" x2="200" y2="0" stroke="#ddd" stroke-width="1" opacity="1"/></g></g><path class="foreground" aria-hidden="true" d="" pointer-events="none" display="none"/></g></g><g class="mark-group role-axis" role="graphics-symbol" aria-roledescription="axis" aria-label="X-axis titled 'Time' for a time scale with values from Monday, 01 January 2024, 2:19:43 PM to Monday, 21 October 2024, 8:45:18 AM"><g transform="translate(0.5,200.5)"><path class="background" aria-hidden="true" d="M0,0h0v0h0Z" pointer-events="none"/><g><g class="mark-rule role-axis-tick" pointer-events="none"><line transform="translate(62,0)" x2="0" y2="5" stroke="#888" stroke-width="1" opacity="1"/><line transform="translate(124,0)" x2="0" y2="5" stroke="#888" stroke-width="1" opacity="1"/><line transform="translate(186,0)" x2="0" y2="5" stroke="#888" stroke-width="1" opacity="1"/></g><g class="mark-text role-axis-label" pointer-events="none"><text text-anchor="middle" transform="translate(61.547236467306696,15)" font-family="Liberation Mono" font-size="10px" fill="#000" opacity="1">April</text><text text-anchor="middle" transform="translate(123.5009347084761,15)" font-family="Liberation Mono" font-size="10px" fill="#000" opacity="1">July</text><text text-anchor="middle" transform="translate(186.13544282042758,15)" font-family="Liberation Mono" font-size="10px" fill="#000" opacity="1">October</text></g><g class="mark-rule role-axis-domain" pointer-events="none"><line transform="translate(0,0)" x2="200" y2="0" stroke="#888" stroke-width="1" opacity="1"/></g><g class="mark-text role-axis-title" pointer-events="none"><text text-anchor="middle" transform="translate(100,30)" font-family="Liberation Mono" font-size="11px" font-weight="bold" fill="#000" opacity="1">Time</text></g></g><path class="foreground" aria-hidden="true" d="" pointer-events="none" display="none"/></g></g><g class="mark-group role-axis" role="graphics-symbol" aria-roledescription="axis" aria-label="Y-axis titled 'Price' for a linear scale with values from 0 to 2,600"><g transform="translate(0.5,0.5)"><path class="background" aria-hidden="true" d="M0,0h0v0h0Z" pointer-events="none"/><g><g class="mark-rule role-axis-tick" pointer-events="none"><line transform="translate(0,200)" x2="-5" y2="0" stroke="#888" stroke-width="1" opacity="1"/><line transform="translate(0,162)" x2="-5" y2="0" stroke="#888" stroke-width="1" opacity="1"/><line transform="translate(0,123)" x2="-5" y2="0" stroke="#888" stroke-width="1" opacity="1"/><line transform="translate(0,85)" x2="-5" y2="0" stroke="#888" stroke-width="1" opacity="1"/><line transform="translate(0,46)" x2="-5" y2="0" stroke="#888" stroke-width="1" opacity="1"/><line transform="translate(0,8)" x2="-5" y2="0" stroke="#888" stroke-width="1" opacity="1"/></g><g class="mark-text role-axis-label" pointer-events="none"><text text-anchor="end" transform="translate(-7,203)" font-family="Liberation Mono" font-size="10px" fill="#000" opacity="1">0</text><text text-anchor="end" transform="translate(-7,164.53846153846155)" font-family="Liberation Mono" font-size="10px" fill="#000" opacity="1">500</text><text text-anchor="end" transform="translate(-7,126.07692307692308)" font-family="Liberation Mono" font-size="10px" fill="#000" opacity="1">1,000</text><text text-anchor="end" transform="translate(-7,87.61538461538463)" font-family="Liberation Mono" font-size="10px" fill="#000" opacity="1">1,500</text><text text-anchor="end" transform="translate(-7,49.153846153846146)" font-family="Liberation Mono" font-size="10px" fill="#000" opacity="1">2,000</text><text text-anchor="end" transform="translate(-7,10.692307692307686)" font-family="Liberation Mono" font-size="10px" fill="#000" opacity="1">2,500</text></g><g class="mark-rule role-axis-domain" pointer-events="none"><line transform="translate(0,200)" x2="0" y2="-200" stroke="#888" stroke-width="1" opacity="1"/></g><g class="mark-text role-axis-title" pointer-events="none"><text text-anchor="middle" transform="translate(-51,100) rotate(-90) translate(0,-2)" font-family="Liberation Mono" font-size="11px" font-weight="bold" fill="#000" opacity="1">Price</text></g></g><path class="foreground" aria-hidden="true" d="" pointer-events="none" display="none"/></g></g><g class="mark-group role-scope pathgroup" role="graphics-object" aria-roledescription="group mark container"><g transform="translate(0,0)"><path class="background" aria-hidden="true" d="M0,0h200v200h-200Z"/><g><g class="mark-line role-mark marks" role="graphics-object" aria-roledescription="line mark container"><path aria-label="Time: Jan 01, 2024; Price: 2399; identifier: altex-LG-F2WR508SBW" role="graphics-symbol" aria-roledescription="line mark" d="M0,15.462L0.071,15.462L0.179,15.462L0.406,15.462L0.52,15.462L0.639,15.462L0.747,15.462L0.86,15.462L1.087,15.462L1.2,15.462L1.32,15.462L1.428,15.462L1.54,15.462L1.768,15.462L1.881,15.462L2,15.462L2.11,15.462L2.222,15.462L2.449,34.692L2.562,34.692L2.681,34.692L2.79,34.692L2.902,34.692L3.129,34.692L3.243,34.692L3.362,34.692L3.471,34.692L3.583,34.692L3.811,34.692L3.924,34.692L4.042,34.692L4.151,34.692L4.264,34.692L4.491,34.692L4.605,34.692L4.725,34.692L4.833,34.692L4.945,34.692L5.172,34.692L5.286,34.692L5.407,34.692L5.514,34.692L5.625,34.692L5.853,34.692L5.967,34.692L6.086,34.692L6.194,34.692L6.306,34.692L6.534,34.692L6.647,34.692L6.767,34.692L6.876,34.692L6.987,34.692L7.215,34.692L7.328,34.692L7.447,34.692L7.556,34.692L7.668,34.692L7.895,46.231L8.008,46.231L8.127,46.231L8.236,46.231L8.349,46.231L8.576,46.231L8.689,46.231L8.808,46.231L8.917,46.231L9.029,46.231L9.257,46.231L9.371,46.231L9.491,46.231L9.599,46.231L9.71,46.231L9.938,46.231L10.052,46.231L10.171,46.231L10.28,46.231L10.391,46.231L10.619,46.231L10.733,46.231L10.852,46.231L10.961,46.231L11.072,46.231L11.299,46.231L11.413,46.231L11.533,46.231L11.641,46.231L11.753,46.231L11.98,46.231L12.094,46.231L12.213,46.231L12.322,46.231L12.434,46.231L12.661,46.231L12.774,46.231L12.893,46.231L13.002,46.231L13.115,46.231L13.341,46.231L13.455,46.231L13.574,46.231L13.683,46.231L13.795,46.231L14.023,46.231L14.137,46.231L14.257,46.231L14.364,46.231L14.476,46.231L14.704,46.231L14.818,46.231L14.937,46.231L15.046,46.231L15.157,46.231L15.385,46.231L15.498,46.231L15.618,46.231L15.726,46.231L15.838,46.231L16.066,46.231L16.179,46.231L16.299,46.231L16.408,46.231L16.518,46.231L16.746,46.231L16.86,46.231L16.977,46.231L17.086,46.231L17.2,46.231L17.426,46.231L17.54,46.231L17.656,46.231L17.767,46.231L17.88,46.231L18.107,46.231L18.221,46.231L18.338,46.231L18.447,46.231L18.561,46.231L18.788,46.231L18.902,46.231L19.019,46.231L19.128,46.231L19.242,46.231L19.468,46.231L19.582,46.231L19.7,46.231L19.811,46.231L19.922,46.231L20.149,46.231L20.263,46.231L20.381,46.231L20.49,46.231L20.603,46.231L20.83,34.692L20.944,34.692L21.062,34.692L21.171,34.692L21.284,34.692L21.511,34.692L21.624,34.692L21.742,34.692L21.851,34.692L21.965,34.692L22.192,34.692L22.305,34.692L22.422,34.692L22.532,34.692L22.646,34.692L22.873,34.692L22.986,34.692L23.103,34.692L23.213,34.692L23.326,34.692L23.553,34.692L23.667,34.692L23.785,34.692L23.894,34.692L24.007,34.692L24.234,34.692L24.348,34.692L24.466,34.692L24.575,34.692L24.688,34.692L24.915,34.692L25.029,34.692L25.147,34.692L25.256,34.692L25.369,34.692L25.596,34.692L25.71,34.692L25.827,34.692L25.937,34.692L26.05,34.692L26.277,34.692L26.39,34.692L26.508,34.692L26.617,34.692L26.731,34.692L26.957,34.692L27.071,34.692L27.188,34.692L27.298,34.692L27.411,34.692L27.639,34.692L27.752,34.692L27.869,34.692L27.979,34.692L28.092,34.692L28.319,34.692L28.433,34.692L28.551,34.692L28.66,34.692L28.773,34.692L29,34.692L29.113,34.692L29.231,34.692L29.342,34.692L29.454,34.692L29.681,34.692L29.794,34.692L29.912,34.692L30.022,34.692L30.134,34.692L30.475,34.692L30.593,34.692L30.702,34.692L30.816,34.692L31.042,34.692L31.156,34.692L31.274,34.692L31.383,34.692L31.496,34.692L31.723,34.692L31.837,34.692L31.954,34.692L32.064,34.692L32.177,34.692L32.404,34.692L32.518,34.692L32.635,34.692L32.745,34.692L32.858,34.692L33.085,34.692L33.199,34.692L33.317,34.692L33.427,34.692L33.539,34.692L33.766,34.692L33.879,34.692L33.997,34.692L34.106,34.692L34.22,34.692L34.446,34.692L34.56,34.692L34.678,34.692L34.787,34.692L34.9,34.692L35.127,34.692L35.241,34.692L35.359,34.692L35.468,34.692L35.581,34.692L35.808,34.692L35.922,34.692L36.039,34.692L36.148,34.692L36.263,34.692L36.489,34.692L36.602,34.692L36.719,34.692L36.829,34.692L36.943,34.692L37.17,34.692L37.283,34.692L37.4,34.692L37.511,34.692L37.623,34.692L37.85,34.692L37.964,34.692L38.082,34.692L38.191,34.692L38.304,34.692L38.531,34.692L38.645,34.692L38.763,34.692L38.872,34.692L38.985,34.692L39.212,34.692L39.326,34.692L39.443,34.692L39.553,34.692L39.666,34.692L39.893,34.692L40.006,34.692L40.124,34.692L40.233,34.692L40.347,34.692L40.574,34.692L40.688,34.692L40.805,34.692L40.914,34.692L41.028,34.692L41.255,34.692L41.368,34.692L41.486,34.692L41.595,34.692L41.708,34.692L41.935,34.692L42.049,34.692L42.166,34.692L42.276,34.692L42.389,34.692L42.627,34.692L42.782,34.692L42.849,34.692L42.957,34.692L43.07,34.692L43.297,34.692L43.41,34.692L43.529,34.692L43.638,34.692L43.751,34.692L43.978,34.692L44.092,34.692L44.21,34.692L44.319,34.692L44.432,34.692L44.658,34.692L44.772,34.692L44.89,34.692L44.999,34.692L45.113,34.692L45.339,34.692L45.455,34.692L45.571,34.692L45.68,34.692L45.793,34.692L46.02,34.692L46.134,34.692L46.25,34.692L46.361,34.692L46.474,34.692L46.701,34.692L46.815,34.692L46.931,34.692L47.042,34.692L47.155,34.692L47.382,34.692L47.495,34.692L47.614,34.692L47.723,34.692L47.836,34.692L48.063,34.692L48.176,34.692L48.294,34.692L48.404,34.692L48.516,34.692L48.744,34.692L48.858,34.692L48.975,34.692L49.084,34.692L49.197,34.692L49.424,34.692L49.538,34.692L49.656,34.692L49.765,34.692L49.878,34.692L50.105,34.692L50.219,34.692L50.337,34.692L50.446,34.692L50.559,34.692L50.786,34.692L50.9,34.692L51.017,34.692L51.126,34.692L51.24,34.692L51.467,34.692L51.581,34.692L51.697,34.692L51.807,34.692L51.921,34.692L52.147,34.692L52.261,34.692L52.38,34.692L52.489,34.692L52.602,34.692L52.829,34.692L52.942,34.692L53.06,34.692L53.17,34.692L53.282,34.692L53.509,34.692L53.623,34.692L53.741,34.692L53.851,34.692L53.963,34.692L54.19,34.692L54.304,34.692L54.422,34.692L54.532,34.692L54.644,34.692L54.871,34.692L54.984,34.692L55.102,34.692L55.212,34.692L55.325,34.692L55.552,34.692L55.665,34.692L55.783,34.692L55.892,34.692L56.005,34.692L56.232,34.692L56.346,34.692L56.464,34.692L56.573,34.692L56.686,34.692L56.913,34.692L57.027,34.692L57.145,34.692L57.254,34.692L57.367,34.692L57.594,34.692L57.708,34.692L57.826,34.692L57.935,34.692L58.048,34.692L58.276,34.692L58.389,34.692L58.507,34.692L58.617,34.692L58.729,34.692L58.955,34.692L59.069,34.692L59.188,34.692L59.297,34.692L59.409,34.692L59.637,34.692L59.75,34.692L59.868,34.692L59.977,34.692L60.09,34.692L60.317,34.692L60.431,34.692L60.548,34.692L60.658,34.692L60.772,34.692L60.998,34.692L61.112,34.692L61.229,34.692L61.339,34.692L61.452,34.692L61.679,34.692L61.793,34.692L61.911,34.692L62.021,34.692L62.133,34.692L62.36,34.692L62.473,34.692L62.592,34.692L62.701,34.692L62.813,34.692L63.04,34.692L63.154,34.692L63.272,34.692L63.382,34.692L63.494,34.692L63.722,34.692L63.835,34.692L63.953,34.692L64.062,34.692L64.175,34.692L64.403,34.692L64.634,34.692L64.743,34.692L64.856,34.692L65.083,34.692L65.197,34.692L65.314,34.692L65.423,34.692L65.537,34.692L65.764,34.692L65.877,34.692L65.995,34.692L66.104,34.692L66.218,34.692L66.445,34.692L66.558,34.692L66.677,34.692L66.786,34.692L66.898,34.692L67.125,34.692L67.239,34.692L67.357,34.692L67.467,34.692L67.579,34.692L67.806,34.692L67.92,34.692L68.038,34.692L68.148,34.692L68.261,34.692L68.487,34.692L68.601,34.692L68.719,34.692L68.941,34.692L69.168,34.692L69.282,34.692L69.4,34.692L69.508,34.692L69.622,34.692L69.848,34.692L69.962,34.692L70.078,34.692L70.189,34.692L70.302,34.692L70.54,34.692L70.714,34.692L70.821,34.692L71.041,34.692L71.212,34.692L71.324,34.692L71.441,34.692L71.551,34.692L71.664,34.692L71.891,34.692L72.005,34.692L72.123,34.692L72.231,34.692L72.345,34.692L72.572,34.692L72.685,34.692L72.804,34.692L72.914,34.692L73.026,34.692L73.366,34.692L73.485,34.692L73.594,34.692L73.707,34.692L73.933,34.692L74.047,34.692L74.165,34.692L74.275,34.692L74.387,34.692L74.614,34.692L74.728,34.692L74.845,34.692L74.955,34.692L75.068,34.692L75.295,34.692L75.409,34.692L75.527,34.692L75.636,34.692L75.749,34.692L75.976,34.692L76.09,34.692L76.209,34.692L76.317,34.692L76.43,34.692L76.657,34.692L76.77,34.692L76.889,34.692L76.998,34.692L77.111,34.692L77.337,34.692L77.452,34.692L77.573,34.692L77.679,34.692L77.792,34.692L78.018,34.692L78.132,34.692L78.247,34.692L78.359,34.692L78.472,34.692L78.699,34.692L78.813,34.692L78.931,34.692L79.04,34.692L79.153,34.692L79.38,34.692L79.493,34.692L79.611,34.692L79.72,34.692L79.834,34.692L80.061,34.692L80.174,34.692L80.293,34.692L80.401,34.692L80.514,34.692L80.741,34.692L80.857,34.692L80.974,34.692L81.083,34.692L81.196,34.692L81.422,34.692L81.536,34.692L81.655,34.692L81.764,34.692L81.876,34.692L82.103,34.692L82.219,34.692L82.336,34.692L82.444,34.692L82.557,34.692L82.784,57.769L82.898,57.769L83.017,57.769L83.125,57.769L83.238,57.769L83.465,57.769L83.578,57.769L83.697,57.769L83.806,57.769L83.919,57.769L84.146,57.769L84.259,57.769L84.377,57.769L84.486,57.769L84.599,57.769L84.826,57.769L84.94,57.769L85.058,57.769L85.167,57.769L85.28,57.769L85.507,57.769L85.621,57.769L85.74,57.769L85.849,57.769L85.961,57.769L86.188,57.769L86.302,57.769L86.42,57.769L86.529,57.769L86.642,57.769L86.869,57.769L86.983,57.769L87.103,57.769L87.211,57.769L87.323,57.769L87.55,34.692L87.664,34.692L87.782,34.692L87.893,34.692L88.004,34.692L88.23,34.692L88.344,34.692L88.464,34.692L88.572,34.692L88.684,34.692L88.911,34.692L89.025,34.692L89.143,34.692L89.252,34.692L89.365,34.692L89.592,34.692L89.706,34.692L89.824,34.692L89.933,34.692L90.046,34.692L90.273,34.692L90.387,34.692L90.506,34.692L90.615,34.692L90.727,34.692L90.954,34.692L91.068,34.692L91.187,34.692L91.296,34.692L91.407,34.692L91.635,34.692L91.749,34.692L91.868,34.692L91.976,34.692L92.089,34.692L92.315,34.692L92.429,34.692L92.549,34.692L92.657,34.692L92.769,34.692L92.996,34.692L93.11,34.692L93.229,34.692L93.338,34.692L93.45,34.692L93.677,34.692L93.791,34.692L93.909,34.692L94.017,34.692L94.131,34.692L94.358,34.692L94.471,34.692L94.59,34.692L94.699,34.692L94.812,34.692L95.04,34.692L95.152,34.692L95.272,34.692L95.38,34.692L95.493,34.692L95.719,34.692L95.833,34.692L95.953,34.692L96.061,34.692L96.174,34.692L96.401,34.692L96.515,34.692L96.634,34.692L96.742,34.692L96.854,34.692L97.081,34.692L97.195,34.692L97.314,34.692L97.423,34.692L97.535,34.692L97.763,34.692L97.876,34.692L97.995,34.692L98.103,34.692L98.216,34.692L98.443,34.692L98.556,34.692L98.675,34.692L98.784,34.692L98.896,34.692L99.124,34.692L99.237,34.692L99.356,34.692L99.464,34.692L99.578,34.692L99.805,34.692L99.918,34.692L100.038,34.692L100.146,34.692L100.258,34.692L100.487,34.692L100.6,34.692L100.719,34.692L100.827,34.692L100.939,34.692L101.167,34.692L101.28,34.692L101.4,34.692L101.508,34.692L101.62,34.692L101.848,34.692L101.961,34.692L102.08,34.692L102.188,34.692L102.3,34.692L102.529,34.692L102.642,34.692L102.761,34.692L102.869,34.692L102.981,34.692L103.208,34.692L103.322,34.692L103.441,34.692L103.549,34.692L103.662,34.692L103.89,34.692L104.003,34.692L104.121,34.692L104.23,34.692L104.343,34.692L104.571,34.692L104.684,34.692L104.805,34.692L104.912,34.692L105.025,34.692L105.251,34.692L105.365,34.692L105.485,34.692L105.593,34.692L105.705,34.692L105.933,34.692L106.046,34.692L106.166,34.692L106.274,34.692L106.385,34.692L106.613,34.692L106.727,34.692L106.846,34.692L106.954,34.692L107.066,34.692L107.294,34.692L107.408,34.692L107.528,34.692L107.636,34.692L107.747,34.692L107.974,34.692L108.087,34.692L108.207,34.692L108.316,34.692L108.428,34.692L108.655,34.692L108.768,34.692L108.888,34.692L108.996,34.692L109.109,34.692L109.337,34.692L109.45,34.692L109.57,34.692L109.678,34.692L109.789,34.692L110.018,34.692L110.131,34.692L110.251,34.692L110.359,34.692L110.471,34.692L110.698,34.692L110.812,46.231L110.932,46.231L111.039,46.231L111.151,46.231L111.379,46.231L111.492,46.231L111.612,46.231L111.721,46.231L111.832,46.231L112.059,46.231L112.173,46.231L112.293,48.538L112.4,48.538L112.513,48.538L112.741,48.538L112.854,48.538L112.973,48.538L113.081,48.538L113.194,48.538L113.421,48.538L113.535,48.538L113.654,48.538L113.762,48.538L113.874,48.538L114.103,48.538L114.216,48.538L114.336,48.538L114.443,48.538L114.555,48.538L114.782,48.538L114.897,48.538L115.016,48.538L115.124,48.538L115.236,48.538L115.463,48.538L115.577,48.538L115.698,48.538L115.805,48.538L115.917,48.538L116.144,48.538L116.258,48.538L116.377,48.538L116.487,48.538L116.598,48.538L116.826,48.538L116.939,48.538L117.058,48.538L117.166,48.538L117.279,48.538L117.505,48.538L117.619,48.538L117.739,48.538L117.847,48.538L117.959,48.538L118.186,48.538L118.3,48.538L118.419,48.538L118.527,48.538L118.64,48.538L118.868,48.538L118.981,48.538L119.101,48.538L119.209,48.538L119.321,48.538L119.548,48.538L119.662,48.538L119.782,48.538L120.002,48.538L120.23,48.538L120.343,48.538L120.463,48.538L120.571,48.538L120.683,48.538L120.911,48.538L121.024,48.538L121.144,48.538L121.252,48.538L121.364,48.538L121.591,48.538L121.705,48.538L121.825,48.538L121.932,48.538L122.045,48.538L122.272,48.538L122.385,48.538L122.504,48.538L122.613,48.538L122.725,48.538L122.952,48.538L123.065,48.538L123.185,48.538L123.294,48.538L123.406,48.538L123.633,48.538L123.747,48.538L123.868,48.538L123.975,48.538L124.086,48.538L124.314,48.538L124.428,48.538L124.547,48.538L124.656,48.538L124.768,48.538L124.995,48.538L125.109,48.538L125.229,48.538L125.337,48.538L125.448,48.538L125.676,48.538L125.789,48.538L125.909,48.538L126.017,48.538L126.129,48.538L126.357,48.538L126.47,48.538L126.59,48.538L126.698,48.538L126.81,48.538L127.038,48.538L127.151,48.538L127.269,48.538L127.378,48.538L127.491,48.538L127.718,48.538L127.831,48.538L127.95,48.538L128.058,48.538L128.172,48.538L128.399,48.538L128.513,48.538L128.632,48.538L128.741,48.538L128.852,48.538L129.08,48.538L129.194,48.538L129.314,48.538L129.421,48.538L129.533,48.538L129.761,48.538L129.875,48.538L129.995,48.538L130.102,48.538L130.214,48.538L130.442,48.538L130.555,48.538L130.675,48.538L130.782,48.538L130.895,48.538L131.122,48.538L131.236,48.538L131.356,48.538L131.463,48.538L131.576,48.538L131.803,48.538L131.916,48.538L132.035,48.538L132.143,48.538L132.256,48.538L132.485,48.538L132.598,48.538L132.724,48.538L132.831,48.538L132.937,48.538L133.165,48.538L133.279,48.538L133.399,48.538L133.507,48.538L133.618,48.538L133.846,48.538L133.96,48.538L134.077,48.538L134.188,48.538L134.299,48.538L134.526,48.538L134.64,48.538L134.76,48.538L134.868,48.538L134.979,48.538L135.208,48.538L135.321,48.538L135.441,48.538L135.548,48.538L135.66,48.538L135.888,48.538L136.002,48.538L136.122,48.538L136.23,48.538L136.341,48.538L136.569,48.538L136.682,48.538L136.801,48.538L136.91,48.538L137.022,48.538L137.249,48.538L137.362,48.538L137.482,48.538L137.591,48.538L137.703,48.538L137.931,48.538L138.045,48.538L138.165,48.538L138.272,48.538L138.383,48.538L138.611,48.538L138.725,48.538L138.845,48.538L138.953,48.538L139.064,48.538L139.292,27L139.406,27L139.526,27L139.634,27L139.745,27L139.974,27L140.087,27L140.207,27L140.315,27L140.426,27L140.654,27L140.767,27L140.887,27L140.996,27L141.107,27L141.334,27L141.448,27L141.568,27L141.675,27L141.788,27L142.015,27L142.128,27L142.248,27L142.357,27L142.468,27L142.696,27L142.81,27L142.93,27L143.038,27L143.15,27L143.377,27L143.49,27L143.611,27L143.718,27L143.83,27L144.057,27L144.17,27L144.292,27L144.399,27L144.511,27L144.739,27L144.853,27L144.973,27L145.08,27L145.192,27L145.42,27L145.533,27L145.653,27L145.761,27L145.872,27L146.1,27L146.214,27L146.333,27L146.441,27L146.553,27L146.782,27L146.894,27L147.014,27L147.121,27L147.235,27L147.462,27L147.576,27L147.696,27L147.803,27L147.915,27L148.143,27L148.257,27L148.377,27L148.484,27L148.596,27L148.824,27L148.937,27L149.058,27L149.166,27L149.277,27L149.505,27L149.618,27L149.739,27L149.846,27L149.958,27L150.185,27L150.299,27L150.419,27L150.527,27L150.638,27L150.867,27L150.979,27L151.099,27L151.208,27L151.319,27L151.547,27L151.66,27L151.78,27L151.888,27L152,27L152.228,27L152.342,27L152.463,27L152.569,27L152.681,27L152.908,27L153.022,27L153.143,27L153.251,27L153.362,27L153.589,27L153.703,27L153.823,27L153.932,27L154.042,27L154.27,27L154.384,27L154.504,27L154.611,27L154.723,27L154.951,27L155.065,27L155.185,27L155.293,27L155.404,27L155.632,27L155.745,27L155.864,27L155.973,27L156.086,27L156.312,27L156.426,27L156.546,27L156.653,27L156.765,27L156.993,27L157.107,27L157.227,27L157.334,27L157.447,27L157.675,27L157.788,27L157.908,27L158.015,27L158.127,27L158.355,27L158.469,27L158.587,27L158.697,27L158.808,27L159.036,27L159.15,27L159.27,27L159.378,27L159.489,27L159.717,27L159.831,27L159.95,27L160.058,27L160.169,27L160.398,27L160.51,27L160.631,27L160.738,27L160.85,27L161.078,27L161.192,27L161.311,27L161.419,27L161.532,27L161.76,27L161.873,27L161.994,27L162.101,27L162.212,27L162.44,27L162.554,27L162.674,27L162.781,27L162.893,27L163.121,27L163.235,27L163.356,27L163.463,27L163.574,27L163.802,27L163.916,27L164.036,27L164.143,27L164.254,27L164.483,27L164.597,27L164.717,27L164.824,27L164.936,27L165.164,27L165.277,27L165.397,27L165.505,27L165.616,27L165.845,27L165.958,27L166.079,27L166.185,27L166.297,27L166.525,27L166.639,27L166.76,27L166.867,27L166.978,27L167.206,27L167.32,27L167.441,27L167.548,27L167.659,27L167.887,27L168.001,27L168.122,27L168.228,27L168.34,27L168.568,27L168.682,27L168.803,27L168.909,27L169.02,27L169.248,27L169.362,27L169.483,27L169.591,27L169.701,27L169.929,27L170.042,27L170.162,27L170.27,27L170.382,27L170.61,27L170.723,27L170.843,27L170.951,27L171.063,27L171.291,27L171.406,27L171.526,27L171.632,27L171.744,27L171.972,27L172.086,27L172.207,27L172.313,27L172.425,27L172.654,27L172.767,27L172.887,27L172.994,27L173.105,27L173.334,27L173.448,27L173.568,27L173.675,27L173.786,27L174.014,27L174.128,27L174.249,27L174.355,27L174.467,27L174.695,46.231L174.809,46.231L174.928,46.231L175.036,46.231L175.148,46.231L175.376,46.231L175.489,46.231L175.61,46.231L175.717,46.231L175.828,46.231L176.058,46.231L176.171,46.231L176.292,46.231L176.399,46.231L176.51,46.231L176.736,46.231L176.852,46.231L176.973,46.231L177.079,46.231L177.19,46.231L177.419,46.231L177.533,46.231L177.653,46.231L177.76,46.231L177.871,46.231L178.1,53.923L178.213,53.923L178.334,53.923L178.441,53.923L178.552,53.923L178.78,53.923L178.894,53.923L179.015,53.923L179.122,53.923L179.233,53.923L179.461,53.923L179.574,53.923L179.694,53.923L179.802,53.923L179.913,53.923L180.143,53.923L180.255,53.923L180.375,53.923L180.482,53.923L180.594,53.923L180.823,53.923L180.938,53.923L181.058,53.923L181.164,53.923L181.276,53.923L181.504,53.923L181.618,53.923L181.739,53.923L181.845,53.923L181.957,53.923L182.185,53.923L182.3,53.923L182.42,53.923L182.527,53.923L182.637,53.923L182.866,23.154L182.98,23.154L183.101,23.154L183.207,23.154L183.318,23.154L183.546,23.154L183.66,23.154L183.781,23.154L183.888,23.154L184.227,23.154L184.34,23.154L184.46,23.154L184.567,23.154L184.679,23.154L184.907,23.154L185.021,23.154L185.141,23.154L185.249,23.154L185.36,23.154L185.589,23.154L185.704,23.154L185.825,23.154L185.931,23.154L186.041,23.154L186.27,23.154L186.384,23.154L186.505,23.154L186.612,23.154L186.722,23.154L186.95,23.154L187.065,23.154L187.185,23.154L187.292,23.154L187.404,23.154L187.631,23.154L187.745,23.154L187.866,23.154L187.973,23.154L188.084,23.154L188.312,23.154L188.426,23.154L188.547,23.154L188.653,23.154L188.764,23.154L188.992,23.154L189.106,23.154L189.226,23.154L189.333,23.154L189.445,23.154L189.673,23.154L189.787,23.154L189.907,23.154L190.014,23.154L190.125,23.154L190.354,23.154L190.469,23.154L190.59,23.154L190.696,23.154L190.807,23.154L191.035,23.154L191.15,23.154L191.27,23.154L191.377,23.154L191.487,23.154L191.716,23.154L191.83,23.154L191.951,23.154L192.057,23.154L192.169,23.154L192.397,23.154L192.511,23.154L192.632,23.154L192.737,23.154L192.85,23.154L193.078,23.154L193.191,23.154L193.312,23.154L193.419,23.154L193.531,23.154L193.759,23.154L193.872,23.154L193.992,23.154L194.1,23.154L194.211,23.154L194.439,23.154L194.552,23.154L194.673,23.154L194.78,23.154L194.891,23.154L195.12,23.154L195.235,23.154L195.355,23.154L195.462,23.154L195.573,23.154L195.801,23.154L195.915,23.154L196.036,23.154L196.143,23.154L196.253,23.154L196.482,23.154L196.596,23.154L196.717,23.154L196.823,23.154L196.934,23.154L197.163,23.154L197.277,23.154L197.398,23.154L197.505,23.154L197.615,23.154L197.844,23.154L197.958,23.154L198.078,23.154L198.185,23.154L198.296,23.154L198.524,23.154L198.637,23.154L198.758,23.154L198.865,23.154L198.977,23.154L199.205,23.154L199.319,23.154L199.439,23.154L199.545,23.154L199.657,23.154L199.886,23.154L200,23.154" stroke="#4c78a8" stroke-width="2"/></g></g><path class="foreground" aria-hidden="true" d="" display="none"/></g><g transform="translate(0,0)"><path class="background" aria-hidden="true" d="M0,0h200v200h-200Z"/><g><g class="mark-line role-mark marks" role="graphics-object" aria-roledescription="line mark container"><path aria-label="Time: Jan 01, 2024; Price: 2499; identifier: altex-LG-F2WR508SBM" role="graphics-symbol" aria-roledescription="line mark" d="M0,7.769L0.071,7.769L0.179,7.769L0.406,7.769L0.52,7.769L0.639,7.769L0.747,7.769L0.86,7.769L1.087,7.769L1.2,7.769L1.32,7.769L1.428,7.769L1.541,7.769L1.768,7.769L1.881,7.769L2,7.769L2.11,7.769L2.222,7.769L2.449,27L2.562,27L2.681,27L2.79,27L2.902,27L3.129,27L3.243,27L3.362,27L3.471,27L3.583,27L3.811,27L3.924,27L4.042,27L4.151,27L4.264,27L4.491,27L4.605,27L4.725,27L4.833,27L4.945,27L5.172,27L5.286,27L5.407,27L5.514,27L5.626,27L5.853,27L5.967,27L6.086,27L6.194,27L6.306,27L6.534,27L6.647,27L6.767,27L6.876,27L6.987,27L7.215,27L7.328,27L7.447,27L7.556,27L7.668,27L7.895,38.538L8.008,38.538L8.127,38.538L8.236,38.538L8.349,38.538L8.576,38.538L8.689,38.538L8.808,38.538L8.917,38.538L9.03,38.538L9.257,38.538L9.371,38.538L9.491,38.538L9.599,38.538L9.71,38.538L9.938,38.538L10.052,38.538L10.171,38.538L10.28,38.538L10.391,38.538L10.619,38.538L10.733,38.538L10.852,38.538L10.961,38.538L11.072,38.538L11.299,38.538L11.413,38.538L11.533,38.538L11.641,38.538L11.753,38.538L11.98,38.538L12.094,38.538L12.213,38.538L12.322,38.538L12.434,38.538L12.661,38.538L12.774,38.538L12.893,38.538L13.002,38.538L13.115,38.538L13.341,38.538L13.455,38.538L13.574,38.538L13.683,38.538L13.795,38.538L14.023,38.538L14.137,38.538L14.257,38.538L14.364,38.538L14.476,38.538L14.704,38.538L14.818,38.538L14.937,38.538L15.046,38.538L15.157,38.538L15.385,38.538L15.498,38.538L15.618,38.538L15.726,38.538L15.838,38.538L16.066,38.538L16.179,38.538L16.299,38.538L16.408,38.538L16.518,38.538L16.746,38.538L16.86,38.538L16.977,38.538L17.086,38.538L17.2,38.538L17.426,38.538L17.54,38.538L17.656,38.538L17.767,38.538L17.88,38.538L18.107,38.538L18.221,38.538L18.338,38.538L18.447,38.538L18.561,38.538L18.788,38.538L18.902,38.538L19.019,38.538L19.128,38.538L19.242,38.538L19.469,38.538L19.582,38.538L19.7,38.538L19.811,38.538L19.922,38.538L20.149,38.538L20.263,38.538L20.381,38.538L20.49,38.538L20.603,38.538L20.83,27L20.944,27L21.062,27L21.171,27L21.284,27L21.511,27L21.625,27L21.742,27L21.851,27L21.965,27L22.192,27L22.305,27L22.422,27L22.532,27L22.646,27L22.873,27L22.986,27L23.103,27L23.213,27L23.326,27L23.553,27L23.667,27L23.785,27L23.894,27L24.007,27L24.234,27L24.348,27L24.466,27L24.575,27L24.688,27L24.915,27L25.029,27L25.147,27L25.256,27L25.369,27L25.596,27L25.71,27L25.827,27L25.937,27L26.05,27L26.277,27L26.39,27L26.508,27L26.617,27L26.731,27L26.957,27L27.071,27L27.188,27L27.298,27L27.411,27L27.639,27L27.752,27L27.869,27L27.979,27L28.092,27L28.319,27L28.433,27L28.551,27L28.66,27L28.773,27L29,27L29.113,27L29.231,27L29.342,27L29.454,27L29.681,27L29.794,27L29.912,27L30.022,27L30.135,27L30.475,27L30.593,27L30.702,27L30.816,27L31.043,27L31.156,27L31.274,27L31.383,27L31.496,27L31.724,27L31.837,27L31.954,27L32.064,27L32.177,27L32.404,27L32.518,27L32.635,27L32.745,27L32.858,27L33.085,27L33.199,27L33.317,27L33.427,27L33.539,27L33.766,27L33.879,27L33.997,27L34.106,27L34.22,27L34.446,27L34.56,27L34.678,27L34.787,27L34.901,27L35.127,27L35.241,27L35.359,27L35.468,27L35.581,27L35.808,27L35.922,27L36.039,27L36.148,27L36.263,27L36.489,27L36.602,27L36.719,27L36.829,27L36.943,27L37.17,27L37.283,27L37.4,27L37.511,27L37.623,27L37.85,27L37.964,27L38.082,27L38.191,27L38.304,27L38.531,27L38.645,27L38.763,27L38.872,27L38.985,27L39.212,27L39.326,27L39.443,27L39.553,27L39.666,27L39.893,27L40.006,27L40.124,27L40.233,27L40.347,27L40.574,27L40.688,27L40.805,27L40.914,27L41.028,27L41.255,27L41.368,27L41.486,27L41.595,27L41.708,27L41.935,27L42.049,27L42.166,27L42.276,27L42.389,27L42.627,27L42.782,27L42.849,27L42.957,27L43.07,27L43.297,27L43.41,27L43.529,27L43.638,27L43.751,27L43.978,27L44.092,27L44.21,27L44.319,27L44.432,27L44.659,27L44.772,27L44.89,38.538L44.999,38.538L45.113,38.538L45.339,38.538L45.455,38.538L45.571,38.538L45.68,38.538L45.793,38.538L46.02,38.538L46.134,38.538L46.25,38.538L46.361,38.538L46.474,38.538L46.701,38.538L46.815,38.538L46.931,38.538L47.042,38.538L47.155,38.538L47.382,38.538L47.495,38.538L47.614,38.538L47.723,38.538L47.836,38.538L48.063,38.538L48.176,38.538L48.294,38.538L48.404,38.538L48.516,38.538L48.744,38.538L48.858,38.538L48.975,38.538L49.084,38.538L49.197,38.538L49.424,38.538L49.538,38.538L49.656,38.538L49.765,38.538L49.878,38.538L50.105,38.538L50.219,38.538L50.337,38.538L50.446,38.538L50.559,38.538L50.786,38.538L50.9,38.538L51.017,38.538L51.126,38.538L51.24,38.538L51.467,38.538L51.581,38.538L51.698,38.538L51.807,38.538L51.921,38.538L52.147,38.538L52.261,38.538L52.38,38.538L52.489,38.538L52.602,38.538L52.829,38.538L52.942,38.538L53.06,38.538L53.17,38.538L53.282,38.538L53.509,38.538L53.623,38.538L53.741,38.538L53.851,38.538L53.963,38.538L54.19,38.538L54.304,38.538L54.422,38.538L54.532,38.538L54.644,38.538L54.871,38.538L54.984,38.538L55.102,38.538L55.212,38.538L55.325,38.538L55.552,38.538L55.665,38.538L55.783,38.538L55.892,38.538L56.005,38.538L56.232,38.538L56.346,38.538L56.464,38.538L56.573,38.538L56.686,38.538L56.913,38.538L57.027,38.538L57.145,38.538L57.254,38.538L57.367,38.538L57.594,38.538L57.708,38.538L57.826,38.538L57.935,38.538L58.048,38.538L58.276,38.538L58.389,38.538L58.507,38.538L58.617,38.538L58.729,38.538L58.956,38.538L59.069,38.538L59.188,38.538L59.297,38.538L59.409,38.538L59.637,38.538L59.75,38.538L59.868,38.538L59.977,38.538L60.09,38.538L60.317,38.538L60.431,38.538L60.548,38.538L60.658,38.538L60.772,38.538L60.998,38.538L61.112,38.538L61.229,38.538L61.339,38.538L61.452,38.538L61.679,38.538L61.793,38.538L61.911,38.538L62.021,38.538L62.133,38.538L62.36,38.538L62.473,38.538L62.592,38.538L62.701,38.538L62.813,38.538L63.04,38.538L63.154,38.538L63.272,38.538L63.382,38.538L63.494,38.538L63.722,38.538L63.835,38.538L63.953,38.538L64.062,38.538L64.175,38.538L64.403,38.538L64.634,38.538L64.743,38.538L64.856,38.538L65.083,38.538L65.197,38.538L65.314,38.538L65.423,38.538L65.537,38.538L65.764,38.538L65.877,38.538L65.995,38.538L66.104,38.538L66.218,38.538L66.445,38.538L66.558,38.538L66.677,38.538L66.786,38.538L66.898,38.538L67.125,38.538L67.239,38.538L67.357,38.538L67.467,38.538L67.579,38.538L67.806,38.538L67.92,38.538L68.038,38.538L68.148,38.538L68.261,38.538L68.488,38.538L68.601,38.538L68.719,38.538L68.941,38.538L69.168,38.538L69.282,38.538L69.4,38.538L69.508,38.538L69.622,38.538L69.848,38.538L69.962,38.538L70.078,38.538L70.189,38.538L70.302,38.538L70.54,38.538L70.714,38.538L70.821,38.538L71.041,38.538L71.212,38.538L71.324,38.538L71.441,38.538L71.551,38.538L71.664,38.538L71.891,38.538L72.005,38.538L72.123,38.538L72.231,38.538L72.345,38.538L72.572,38.538L72.685,38.538L72.804,38.538L72.914,38.538L73.026,38.538L73.366,38.538L73.485,38.538L73.594,38.538L73.707,38.538L73.933,38.538L74.047,38.538L74.165,38.538L74.275,38.538L74.387,38.538L74.614,38.538L74.728,38.538L74.845,38.538L74.955,38.538L75.068,38.538L75.295,38.538L75.409,38.538L75.527,38.538L75.636,38.538L75.749,38.538L75.976,38.538L76.09,38.538L76.209,38.538L76.317,38.538L76.43,38.538L76.657,38.538L76.77,38.538L76.889,38.538L76.998,38.538L77.111,38.538L77.337,38.538L77.452,38.538L77.573,38.538L77.679,38.538L77.792,38.538L78.018,38.538L78.132,38.538L78.248,38.538L78.359,38.538L78.472,38.538L78.699,38.538L78.813,38.538L78.931,38.538L79.04,38.538L79.154,38.538L79.38,38.538L79.493,38.538L79.611,38.538L79.72,38.538L79.834,38.538L80.061,38.538L80.174,38.538L80.293,38.538L80.401,38.538L80.514,38.538L80.741,38.538L80.857,38.538L80.974,38.538L81.083,38.538L81.196,38.538L81.422,38.538L81.536,38.538L81.655,38.538L81.764,38.538L81.877,38.538L82.103,38.538L82.219,38.538L82.336,38.538L82.444,38.538L82.557,38.538L82.785,38.538L82.898,38.538L83.017,38.538L83.125,38.538L83.238,38.538L83.465,38.538L83.578,38.538L83.697,38.538L83.806,38.538L83.919,38.538L84.146,38.538L84.259,38.538L84.377,38.538L84.486,38.538L84.599,38.538L84.827,38.538L84.94,38.538L85.058,38.538L85.167,38.538L85.28,38.538L85.507,38.538L85.621,38.538L85.74,38.538L85.849,38.538L85.961,38.538L86.188,38.538L86.302,38.538L86.42,30.846L86.529,30.846L86.642,30.846L86.869,30.846L86.983,30.846L87.103,30.846L87.211,30.846L87.323,30.846L87.55,30.846L87.664,30.846L87.782,30.846L87.893,30.846L88.004,30.846L88.23,30.846L88.344,30.846L88.464,30.846L88.572,30.846L88.684,30.846L88.911,30.846L89.025,30.846L89.143,30.846L89.252,30.846L89.365,30.846L89.592,30.846L89.706,30.846L89.824,30.846L89.933,30.846L90.046,30.846L90.273,30.846L90.387,30.846L90.506,30.846L90.615,30.846L90.727,30.846L90.954,30.846L91.068,30.846L91.187,30.846L91.296,30.846L91.408,30.846L91.635,30.846L91.749,30.846L91.868,30.846L91.976,30.846L92.089,30.846L92.315,30.846L92.43,30.846L92.549,30.846L92.657,30.846L92.769,30.846L92.996,30.846L93.11,30.846L93.229,30.846L93.338,30.846L93.45,30.846L93.677,30.846L93.791,30.846L93.91,30.846L94.017,30.846L94.131,30.846L94.358,30.846L94.471,30.846L94.59,30.846L94.699,30.846L94.812,30.846L95.04,30.846L95.152,30.846L95.272,30.846L95.38,30.846L95.493,30.846L95.719,30.846L95.833,30.846L95.953,30.846L96.061,30.846L96.174,30.846L96.401,30.846L96.515,30.846L96.634,38.538L96.742,38.538L96.854,38.538L97.081,38.538L97.195,38.538L97.314,38.538L97.423,38.538L97.535,38.538L97.763,38.538L97.876,38.538L97.995,38.538L98.103,38.538L98.216,38.538L98.443,38.538L98.556,38.538L98.675,38.538L98.784,38.538L98.896,38.538L99.124,38.538L99.237,38.538L99.356,38.538L99.464,38.538L99.578,38.538L99.805,38.538L99.919,38.538L100.038,38.538L100.146,38.538L100.258,38.538L100.487,38.538L100.6,38.538L100.719,38.538L100.827,38.538L100.939,38.538L101.167,38.538L101.28,38.538L101.4,38.538L101.508,38.538L101.62,38.538L101.848,38.538L101.961,38.538L102.08,38.538L102.188,38.538L102.301,38.538L102.529,30.846L102.642,30.846L102.761,30.846L102.869,30.846L102.981,30.846L103.208,30.846L103.322,30.846L103.441,30.846L103.549,30.846L103.662,30.846L103.89,30.846L104.003,30.846L104.121,30.846L104.23,30.846L104.343,30.846L104.571,30.846L104.684,30.846L104.805,30.846L104.912,30.846L105.025,30.846L105.251,30.846L105.365,30.846L105.485,30.846L105.593,30.846L105.705,30.846L105.933,30.846L106.046,30.846L106.166,30.846L106.274,30.846L106.385,30.846L106.613,30.846L106.727,30.846L106.847,30.846L106.954,30.846L107.066,30.846L107.294,30.846L107.408,30.846L107.528,30.846L107.636,30.846L107.747,30.846L107.974,30.846L108.087,30.846L108.207,30.846L108.316,30.846L108.428,30.846L108.655,30.846L108.768,30.846L108.888,30.846L108.996,30.846L109.109,30.846L109.337,30.846L109.451,30.846L109.57,30.846L109.678,30.846L109.789,30.846L110.018,30.846L110.131,30.846L110.251,30.846L110.359,30.846L110.471,30.846L110.698,30.846L110.812,34.692L110.932,34.692L111.039,34.692L111.151,34.692L111.379,34.692L111.492,34.692L111.612,34.692L111.721,34.692L111.832,34.692L112.059,34.692L112.173,34.692L112.293,40.077L112.4,40.077L112.513,40.077L112.741,40.077L112.854,40.077L112.973,40.077L113.081,40.077L113.194,40.077L113.421,40.077L113.535,40.077L113.654,40.077L113.762,40.077L113.874,40.077L114.103,40.077L114.216,40.077L114.336,40.077L114.443,40.077L114.555,40.077L114.783,40.077L114.897,40.077L115.016,40.077L115.124,40.077L115.236,40.077L115.464,40.077L115.577,40.077L115.698,40.077L115.805,40.077L115.917,40.077L116.144,40.077L116.258,40.077L116.378,40.077L116.487,40.077L116.598,40.077L116.826,40.077L116.939,40.077L117.058,40.077L117.166,40.077L117.279,40.077L117.505,40.077L117.619,40.077L117.74,40.077L117.847,40.077L117.959,40.077L118.186,40.077L118.3,40.077L118.419,40.077L118.527,40.077L118.64,40.077L118.868,40.077L118.982,40.077L119.101,40.077L119.209,40.077L119.321,40.077L119.548,40.077L119.662,40.077L119.782,40.077L120.002,40.077L120.23,40.077L120.343,40.077L120.463,40.077L120.571,40.077L120.683,40.077L120.911,40.077L121.024,40.077L121.144,40.077L121.252,40.077L121.364,40.077L121.591,40.077L121.705,40.077L121.825,40.077L121.932,40.077L122.045,40.077L122.272,40.077L122.385,40.077L122.504,40.077L122.613,40.077L122.725,40.077L122.952,40.077L123.065,40.077L123.185,40.077L123.294,40.077L123.406,40.077L123.633,40.077L123.747,40.077L123.868,40.077L123.975,40.077L124.086,40.077L124.314,40.077L124.428,40.077L124.547,40.077L124.656,40.077L124.768,40.077L124.995,40.077L125.109,40.077L125.229,40.077L125.337,40.077L125.448,40.077L125.676,40.077L125.79,40.077L125.909,40.077L126.017,40.077L126.129,40.077L126.357,40.077L126.47,40.077L126.59,40.077L126.698,40.077L126.81,40.077L127.038,40.077L127.151,40.077L127.269,40.077L127.378,40.077L127.491,40.077L127.718,40.077L127.831,40.077L127.95,40.077L128.058,40.077L128.172,40.077L128.399,40.077L128.513,40.077L128.632,40.077L128.741,40.077L128.852,40.077L129.08,40.077L129.194,40.077L129.314,40.077L129.421,40.077L129.533,40.077L129.761,40.077L129.875,40.077L129.995,40.077L130.102,40.077L130.214,40.077L130.442,40.077L130.555,40.077L130.675,40.077L130.783,40.077L130.895,40.077L131.122,40.077L131.236,40.077L131.356,40.077L131.463,40.077L131.576,40.077L131.803,40.077L131.916,40.077L132.035,40.077L132.143,40.077L132.256,40.077L132.485,40.077L132.598,40.077L132.724,40.077L132.831,40.077L132.937,40.077L133.165,40.077L133.279,40.077L133.399,40.077L133.507,40.077L133.618,40.077L133.846,40.077L133.96,40.077L134.078,40.077L134.188,40.077L134.299,40.077L134.526,40.077L134.64,40.077L134.76,40.077L134.868,40.077L134.979,40.077L135.208,40.077L135.321,40.077L135.441,40.077L135.548,40.077L135.66,40.077L135.888,40.077L136.002,40.077L136.122,40.077L136.23,40.077L136.341,40.077L136.569,40.077L136.682,40.077L136.801,40.077L136.91,40.077L137.022,40.077L137.249,40.077L137.363,40.077L137.482,40.077L137.592,40.077L137.703,40.077L137.931,40.077L138.045,40.077L138.165,40.077L138.272,40.077L138.383,40.077L138.611,40.077L138.725,40.077L138.845,40.077L138.953,40.077L139.064,40.077L139.292,40.077L139.406,40.077L139.526,40.077L139.634,40.077L139.745,40.077L139.974,40.077L140.087,40.077L140.207,40.077L140.315,40.077L140.426,40.077L140.654,40.077L140.767,40.077L140.887,40.077L140.996,40.077L141.107,40.077L141.334,40.077L141.448,40.077L141.568,40.077L141.675,40.077L141.788,40.077L142.015,40.077L142.128,40.077L142.248,40.077L142.357,40.077L142.468,40.077L142.696,40.077L142.81,40.077L142.93,40.077L143.038,40.077L143.15,40.077L143.377,40.077L143.49,40.077L143.611,40.077L143.718,40.077L143.83,40.077L144.057,40.077L144.17,40.077L144.292,40.077L144.399,40.077L144.511,40.077L144.739,40.077L144.853,40.077L144.973,40.077L145.08,40.077L145.192,40.077L145.42,40.077L145.533,40.077L145.653,40.077L145.761,40.077L145.872,40.077L146.1,40.077L146.214,40.077L146.333,40.077L146.441,40.077L146.553,40.077L146.782,40.077L146.894,40.077L147.014,40.077L147.121,40.077L147.235,40.077L147.462,40.077L147.576,40.077L147.696,40.077L147.803,40.077L147.915,40.077L148.143,40.077L148.257,40.077L148.377,40.077L148.484,40.077L148.596,40.077L148.824,40.077L148.937,40.077L149.058,40.077L149.166,40.077L149.277,40.077L149.505,40.077L149.618,40.077L149.739,40.077L149.846,40.077L149.958,40.077L150.185,40.077L150.299,40.077L150.419,40.077L150.527,40.077L150.638,40.077L150.867,40.077L150.979,40.077L151.099,40.077L151.208,40.077L151.319,40.077L151.547,40.077L151.66,40.077L151.78,40.077L151.888,40.077L152,40.077L152.228,40.077L152.342,40.077L152.463,40.077L152.569,40.077L152.681,40.077L152.908,40.077L153.022,40.077L153.143,40.077L153.251,40.077L153.362,40.077L153.589,40.077L153.704,40.077L153.824,40.077L153.932,40.077L154.042,40.077L154.27,40.077L154.384,40.077L154.504,40.077L154.611,40.077L154.723,40.077L154.951,40.077L155.065,40.077L155.185,40.077L155.293,40.077L155.404,40.077L155.632,40.077L155.745,40.077L155.864,40.077L155.973,40.077L156.086,40.077L156.312,40.077L156.426,40.077L156.546,40.077L156.653,40.077L156.765,40.077L156.993,40.077L157.107,40.077L157.227,40.077L157.335,40.077L157.447,40.077L157.675,40.077L157.788,40.077L157.908,40.077L158.015,40.077L158.127,40.077L158.355,40.077L158.469,40.077L158.587,40.077L158.697,40.077L158.808,40.077L159.036,40.077L159.15,40.077L159.27,40.077L159.379,40.077L159.489,40.077L159.717,40.077L159.831,40.077L159.951,40.077L160.058,40.077L160.169,40.077L160.398,40.077L160.51,40.077L160.631,40.077L160.738,40.077L160.85,40.077L161.078,40.077L161.192,40.077L161.311,40.077L161.419,40.077L161.532,40.077L161.76,40.077L161.873,40.077L161.994,40.077L162.101,40.077L162.212,40.077L162.441,40.077L162.554,40.077L162.674,40.077L162.781,40.077L162.893,40.077L163.121,40.077L163.235,40.077L163.356,40.077L163.463,40.077L163.574,40.077L163.802,40.077L163.916,40.077L164.036,40.077L164.143,40.077L164.254,40.077L164.483,40.077L164.597,40.077L164.717,40.077L164.824,40.077L164.936,40.077L165.164,40.077L165.277,40.077L165.397,40.077L165.505,40.077L165.616,40.077L165.845,40.077L165.958,40.077L166.079,40.077L166.185,40.077L166.297,40.077L166.525,40.077L166.639,40.077L166.76,40.077L166.867,40.077L166.978,40.077L167.206,40.077L167.32,40.077L167.441,40.077L167.548,40.077L167.659,40.077L167.887,40.077L168.001,40.077L168.122,40.077L168.228,40.077L168.34,40.077L168.568,40.077L168.682,40.077L168.803,40.077L168.909,40.077L169.02,40.077L169.248,40.077L169.362,40.077L169.483,40.077L169.591,40.077L169.701,40.077L169.929,40.077L170.042,40.077L170.162,40.077L170.27,40.077L170.382,40.077L170.61,40.077L170.723,40.077L170.843,40.077L170.951,40.077L171.063,40.077L171.291,40.077L171.406,40.077L171.526,40.077L171.632,40.077L171.744,40.077L171.972,40.077L172.086,40.077L172.207,40.077L172.313,40.077L172.425,40.077L172.654,40.077L172.767,40.077L172.888,40.077L172.994,40.077L173.105,40.077L173.334,40.077L173.448,40.077L173.568,40.077L173.675,40.077L173.786,40.077L174.014,40.077L174.128,40.077L174.249,40.077L174.355,40.077L174.467,40.077L174.695,40.077L174.809,40.077L174.928,40.077L175.036,40.077L175.148,40.077L175.376,40.077L175.489,40.077L175.61,40.077L175.717,40.077L175.828,40.077L176.058,40.077L176.171,40.077L176.292,40.077L176.399,40.077L176.51,40.077L176.736,40.077L176.852,40.077L176.973,40.077L177.079,40.077L177.19,40.077L177.419,40.077L177.533,40.077L177.653,40.077L177.76,40.077L177.871,40.077L178.1,40.077L178.213,40.077L178.334,40.077L178.441,40.077L178.552,40.077L178.78,40.077L178.894,40.077L179.015,40.077L179.122,40.077L179.233,40.077L179.461,40.077L179.574,40.077L179.694,40.077L179.802,40.077L179.913,40.077L180.143,40.077L180.255,40.077L180.375,40.077L180.482,40.077L180.594,40.077L180.823,40.077L180.938,40.077L181.058,40.077L181.164,40.077L181.276,40.077L181.504,40.077L181.618,40.077L181.739,40.077L181.845,40.077L181.957,40.077L182.185,40.077L182.3,40.077L182.42,40.077L182.528,40.077L182.637,40.077L182.866,40.077L182.98,40.077L183.101,40.077L183.207,40.077L183.318,40.077L183.546,40.077L183.66,40.077L183.781,40.077L183.888,40.077L184.227,40.077L184.34,40.077L184.46,40.077L184.567,40.077L184.679,40.077L184.907,40.077L185.021,40.077L185.141,40.077L185.249,40.077L185.36,40.077L185.589,40.077L185.704,40.077L185.825,40.077L185.931,40.077L186.041,40.077L186.27,40.077L186.384,40.077L186.505,40.077L186.612,40.077L186.722,40.077L186.95,40.077L187.065,40.077L187.185,40.077L187.292,40.077L187.404,40.077L187.632,40.077L187.745,50.077L187.866,50.077L187.973,50.077L188.084,50.077L188.312,50.077L188.426,50.077L188.547,50.077L188.653,50.077L188.764,50.077L188.992,50.077L189.106,50.077L189.226,50.077L189.333,50.077L189.445,50.077L189.673,50.077L189.787,50.077L189.907,50.077L190.014,50.077L190.125,50.077L190.355,50.077L190.469,50.077L190.59,50.077L190.696,50.077L190.807,50.077L191.035,50.077L191.15,30.846L191.27,30.846L191.377,30.846L191.487,30.846L191.716,30.846L191.83,30.846L191.951,50.077L192.057,50.077L192.169,50.077L192.397,50.077L192.511,50.077L192.632,50.077L192.738,50.077L192.85,50.077L193.078,50.077L193.191,50.077L193.312,50.077L193.419,50.077L193.531,50.077L193.759,50.077L193.872,50.077L193.992,50.077L194.1,50.077L194.211,50.077L194.439,50.077L194.552,50.077L194.673,50.077L194.78,50.077L194.891,50.077L195.12,50.077L195.235,50.077L195.355,50.077L195.462,50.077L195.573,50.077L195.801,50.077L195.915,50.077L196.036,50.077L196.143,50.077L196.254,50.077L196.482,50.077L196.596,50.077L196.717,50.077L196.823,50.077L196.934,50.077L197.163,50.077L197.277,50.077L197.398,50.077L197.505,50.077L197.615,50.077L197.844,50.077L197.958,50.077L198.078,50.077L198.185,50.077L198.296,50.077L198.524,50.077L198.637,50.077L198.758,50.077L198.865,50.077L198.977,50.077L199.205,50.077L199.319,50.077L199.439,50.077L199.545,50.077L199.657,50.077L199.886,50.077L200,50.077" stroke="#f58518" stroke-width="2"/></g></g><path class="foreground" aria-hidden="true" d="" display="none"/></g></g><g class="mark-group role-legend" role="graphics-symbol" aria-roledescription="legend" aria-label="Symbol legend titled 'identifier' for stroke color with 2 values: altex-LG-F2WR508SBW, altex-LG-F2WR508SBM"><g transform="translate(220,0)"><path class="background" aria-hidden="true" d="M0,0h168v40h-168Z" pointer-events="none"/><g><g class="mark-group role-legend-entry"><g transform="translate(0,16)"><path class="background" aria-hidden="true" d="M0,0h0v0h0Z" pointer-events="none"/><g><g class="mark-group role-scope" role="graphics-object" aria-roledescription="group mark container"><g transform="translate(0,0)"><path class="background" aria-hidden="true" d="M0,0h168v11h-168Z" pointer-events="none" opacity="1"/><g><g class="mark-symbol role-legend-symbol" pointer-events="none"><path transform="translate(6,6)" d="M-5,0L5,0" stroke="#4c78a8" stroke-width="1.5" opacity="1"/></g><g class="mark-text role-legend-label" pointer-events="none"><text text-anchor="start" transform="translate(16,9)" font-family="Liberation Mono" font-size="10px" fill="#000" opacity="1">altex-LG-F2WR508SBW</text></g></g><path class="foreground" aria-hidden="true" d="" pointer-events="none" display="none"/></g><g transform="translate(0,13)"><path class="background" aria-hidden="true" d="M0,0h168v11h-168Z" pointer-events="none" opacity="1"/><g><g class="mark-symbol role-legend-symbol" pointer-events="none"><path transform="translate(6,6)" d="M-5,0L5,0" stroke="#f58518" stroke-width="1.5" opacity="1"/></g><g class="mark-text role-legend-label" pointer-events="none"><text text-anchor="start" transform="translate(16,9)" font-family="Liberation Mono" font-size="10px" fill="#000" opacity="1">altex-LG-F2WR508SBM</text></g></g><path class="foreground" aria-hidden="true" d="" pointer-events="none" display="none"/></g></g></g><path class="foreground" aria-hidden="true" d="" pointer-events="none" display="none"/></g></g><g class="mark-text role-legend-title" pointer-events="none"><text text-anchor="start" transform="translate(0,9)" font-family="Liberation Mono" font-size="11px" font-weight="bold" fill="#000" opacity="1">identifier</text></g></g><path class="foreground" aria-hidden="true" d="" pointer-events="none" display="none"/></g></g></g><path class="foreground" aria-hidden="true" d="" display="none"/></g></g></g></svg>