<svg xmlns="http://www.w3.org/2000/svg" xmlns:xlink="http://www.w3.org/1999/xlink" version="1.1" class="marks" width="460" height="242" viewBox="0 0 460 242"><rect width="460" height="242" fill="white"/><g fill="none" stroke-miterlimit="10" transform="translate(67,5)"><g class="mark-group role-frame root" role="graphics-object" aria-roledescription="group mark container"><g transform="translate(0,0)"><path class="background" aria-hidden="true" d="M0.5,0.5h200v200h-200Z" stroke="#ddd"/><g><g class="mark-group role-axis" aria-hidden="true"><g transform="translate(0.5,200.5)"><path class="background" aria-hidden="true" d="M0,0h0v0h0Z" pointer-events="none"/><g><g class="mark-rule role-axis-grid" pointer-events="none"><line transform="translate(43,-200)" x2="0" y2="200" stroke="#ddd" stroke-width="1" opacity="1"/><line transform="translate(99,-200)" x2="0" y2="200" stroke="#ddd" stroke-width="1" opacity="1"/><line transform="translate(155,-200)" x2="0" y2="200" stroke="#ddd" stroke-width="1" opacity="1"/></g></g><path class="foreground" aria-hidden="true" d="" pointer-events="none" display="none"/></g></g><g class="mark-group role-axis" aria-hidden="true"><g transform="translate(0.5,0.5)"><path class="background" aria-hidden="true" d="M0,0h0v0h0Z" pointer-events="none"/><g><g class="mark-rule role-axis-grid" pointer-events="none"><line transform="translate(0,200)" x2="200" y2="0" stroke="#ddd" stroke-width="1" opacity="1"/><line transform="translate(0,162)" x2="200" y2="0" stroke="#ddd" stroke-width="1" opacity="1"/><line transform="translate(0,123)" x2="200" y2="0" stroke="#ddd" stroke-width="1" opacity="1"/><line transform="translate(0,85)" x2="200" y2="0" stroke="#ddd" stroke-width="1" opacity="1"/><line transform="translate(0,46)" x2="200" y2="0" stroke="#ddd" stroke-width="1" opacity="1"/><line transform="translate(0,8)" x2="200" y2="0" stroke="#ddd" stroke-width="1" opacity="1"/></g></g><path class="foreground" aria-hidden="true" d="" pointer-events="none" display="none"/></g></g><g class="mark-group role-axis" role="graphics-symbol" aria-roledescription="axis" aria-label="X-axis titled 'Time' for a time scale with values from Monday, 01 January 2024, 2:19:43 PM to Friday, 26 January 2024, 4:39:00 PM"><g transform="translate(0.5,200.5)"><path class="background" aria-hidden="true" d="M0,0h0v0h0Z" pointer-events="none"/><g><g class="mark-rule role-axis-tick" pointer-events="none"><line transform="translate(43,0)" x2="0" y2="5" stroke="#888" stroke-width="1" opacity="1"/><line transform="translate(99,0)" x2="0" y2="5" stroke="#888" stroke-width="1" opacity="1"/><line transform="translate(155,0)" x2="0" y2="5" stroke="#888" stroke-width="1" opacity="1"/></g><g class="mark-text role-axis-label" pointer-events="none"><text text-anchor="middle" transform="translate(43.057199253406495,15)" font-family="Liberation Mono" font-size="10px" fill="#000" opacity="1">Jan 07</text><text text-anchor="middle" transform="translate(98.8413733570941,15)" font-family="Liberation Mono" font-size="10px" fill="#000" opacity="1">Jan 14</text><text text-anchor="middle" transform="translate(154.62554746078172,15)" font-family="Liberation Mono" font-size="10px" fill="#000" opacity="1">Jan 21</text></g><g class="mark-rule role-axis-domain" pointer-events="none"><line transform="translate(0,0)" x2="200" y2="0" stroke="#888" stroke-width="1" opacity="1"/></g><g class="mark-text role-axis-title" pointer-events="none"><text text-anchor="middle" transform="translate(100,30)" font-family="Liberation Mono" font-size="11px" font-weight="bold" fill="#000" opacity="1">Time</text></g></g><path class="foreground" aria-hidden="true" d="" pointer-events="none" display="none"/></g></g><g class="mark-group role-axis" role="graphics-symbol" aria-roledescription="axis" aria-label="Y-axis titled 'Price' for a linear scale with values from 0 to 2,600"><g transform="translate(0.5,0.5)"><path class="background" aria-hidden="true" d="M0,0h0v0h0Z" pointer-events="none"/><g><g class="mark-rule role-axis-tick" pointer-events="none"><line transform="translate(0,200)" x2="-5" y2="0" stroke="#888" stroke-width="1" opacity="1"/><line transform="translate(0,162)" x2="-5" y2="0" stroke="#888" stroke-width="1" opacity="1"/><line transform="translate(0,123)" x2="-5" y2="0" stroke="#888" stroke-width="1" opacity="1"/><line transform="translate(0,85)" x2="-5" y2="0" stroke="#888" stroke-width="1" opacity="1"/><line transform="translate(0,46)" x2="-5" y2="0" stroke="#888" stroke-width="1" opacity="1"/><line transform="translate(0,8)" x2="-5" y2="0" stroke="#888" stroke-width="1" opacity="1"/></g><g class="mark-text role-axis-label" pointer-events="none"><text text-anchor="end" transform="translate(-7,203)" font-family="Liberation Mono" font-size="10px" fill="#000" opacity="1">0</text><text text-anchor="end" transform="translate(-7,164.53846153846155)" font-family="Liberation Mono" font-size="10px" fill="#000" opacity="1">500</text><text text-anchor="end" transform="translate(-7,126.07692307692308)" font-family="Liberation Mono" font-size="10px" fill="#000" opacity="1">1,000</text><text text-anchor="end" transform="translate(-7,87.61538461538463)" font-family="Liberation Mono" font-size="10px" fill="#000" opacity="1">1,500</text><text text-anchor="end" transform="translate(-7,49.153846153846146)" font-family="Liberation Mono" font-size="10px" fill="#000" opacity="1">2,000</text><text text-anchor="end" transform="translate(-7,10.692307692307686)" font-family="Liberation Mono" font-size="10px" fill="#000" opacity="1">2,500</text></g><g class="mark-rule role-axis-domain" pointer-events="none"><line transform="translate(0,200)" x2="0" y2="-200" stroke="#888" stroke-width="1" opacity="1"/></g><g class="mark-text role-axis-title" pointer-events="none"><text text-anchor="middle" transform="translate(-51,100) rotate(-90) translate(0,-2)" font-family="Liberation Mono" font-size="11px" font-weight="bold" fill="#000" opacity="1">Price</text></g></g><path class="foreground" aria-hidden="true" d="" pointer-events="none" display="none"/></g></g><g class="mark-group role-scope pathgroup" role="graphics-object" aria-roledescription="group mark container"><g transform="translate(0,0)"><path class="background" aria-hidden="true" d="M0,0h200v200h-200Z"/><g><g class="mark-line role-mark marks" role="graphics-object" aria-roledescription="line mark container"><path aria-label="Time: Jan 01, 2024; Price: 2399; identifier: altex-LG-F2WR508SBW" role="graphics-symbol" aria-roledescription="line mark" d="M0,15.462L0.834,15.462L2.096,15.462L4.753,15.462L6.082,15.462L7.478,15.462L8.747,15.462L10.064,15.462L12.722,15.462L14.051,15.462L15.449,15.462L16.719,15.462L18.032,15.462L20.692,15.462L22.022,15.462L23.416,15.462L24.697,15.462L26.004,15.462L28.664,34.692L29.991,34.692L31.386,34.692L32.662,34.692L33.972,34.692L36.631,34.692L37.958,34.692L39.349,34.692L40.625,34.692L41.941,34.692L44.606,34.692L45.926,34.692L47.318,34.692L48.595,34.692L49.91,34.692L52.574,34.692L53.906,34.692L55.303,34.692L56.574,34.692L57.878,34.692L60.546,34.692L61.872,34.692L63.286,34.692L64.545,34.692L65.849,34.692L68.514,34.692L69.842,34.692L71.241,34.692L72.508,34.692L73.818,34.692L76.481,34.692L77.81,34.692L79.212,34.692L80.483,34.692L81.787,34.692L84.449,34.692L85.78,34.692L87.175,34.692L88.448,34.692L89.757,34.692L92.415,46.231L93.741,46.231L95.132,46.231L96.409,46.231L97.724,46.231L100.39,46.231L101.709,46.231L103.101,46.231L104.376,46.231L105.694,46.231L108.36,46.231L109.69,46.231L111.093,46.231L112.36,46.231L113.663,46.231L116.325,46.231L117.66,46.231L119.058,46.231L120.331,46.231L121.633,46.231L124.295,46.231L125.629,46.231L127.029,46.231L128.298,46.231L129.602,46.231L132.263,46.231L133.593,46.231L134.994,46.231L136.262,46.231L137.574,46.231L140.235,46.231L141.564,46.231L142.964,46.231L144.237,46.231L145.54,46.231L148.203,46.231L149.524,46.231L150.918,46.231L152.199,46.231L153.511,46.231L156.167,46.231L157.495,46.231L158.886,46.231L160.163,46.231L161.479,46.231L164.148,46.231L165.479,46.231L166.88,46.231L168.142,46.231L169.448,46.231L172.112,46.231L173.446,46.231L174.847,46.231L176.117,46.231L177.417,46.231L180.083,46.231L181.414,46.231L182.815,46.231L184.083,46.231L185.387,46.231L188.055,46.231L189.38,46.231L190.784,46.231L192.058,46.231L193.355,46.231L196.016,46.231L197.348,46.231L198.725,46.231L200,46.231" stroke="#f58518" stroke-width="2"/></g></g><path class="foreground" aria-hidden="true" d="" display="none"/></g><g transform="translate(0,0)"><path class="background" aria-hidden="true" d="M0,0h200v200h-200Z"/><g><g class="mark-line role-mark marks" role="graphics-object" aria-roledescription="line mark container"><path aria-label="Time: Jan 01, 2024; Price: 2499; identifier: altex-LG-F2WR508SBM" role="graphics-symbol" aria-roledescription="line mark" d="M0.001,7.769L0.834,7.769L2.097,7.769L4.753,7.769L6.083,7.769L7.479,7.769L8.748,7.769L10.065,7.769L12.723,7.769L14.052,7.769L15.449,7.769L16.719,7.769L18.032,7.769L20.692,7.769L22.022,7.769L23.416,7.769L24.697,7.769L26.006,7.769L28.665,27L29.992,27L31.386,27L32.662,27L33.972,27L36.632,27L37.958,27L39.35,27L40.625,27L41.941,27L44.606,27L45.927,27L47.318,27L48.595,27L49.91,27L52.574,27L53.906,27L55.303,27L56.574,27L57.878,27L60.546,27L61.872,27L63.287,27L64.545,27L65.849,27L68.514,27L69.843,27L71.241,27L72.509,27L73.818,27L76.481,27L77.81,27L79.212,27L80.483,27L81.788,27L84.449,27L85.78,27L87.175,27L88.449,27L89.757,27L92.415,38.538L93.741,38.538L95.133,38.538L96.409,38.538L97.725,38.538L100.39,38.538L101.71,38.538L103.101,38.538L104.376,38.538L105.694,38.538L108.36,38.538L109.69,38.538L111.093,38.538L112.36,38.538L113.664,38.538L116.326,38.538L117.66,38.538L119.059,38.538L120.333,38.538L121.633,38.538L124.296,38.538L125.629,38.538L127.029,38.538L128.298,38.538L129.602,38.538L132.264,38.538L133.593,38.538L134.994,38.538L136.262,38.538L137.575,38.538L140.235,38.538L141.564,38.538L142.964,38.538L144.238,38.538L145.54,38.538L148.204,38.538L149.524,38.538L150.918,38.538L152.199,38.538L153.512,38.538L156.167,38.538L157.495,38.538L158.887,38.538L160.164,38.538L161.479,38.538L164.149,38.538L165.479,38.538L166.881,38.538L168.142,38.538L169.449,38.538L172.113,38.538L173.447,38.538L174.847,38.538L176.118,38.538L177.417,38.538L180.083,38.538L181.414,38.538L182.816,38.538L184.083,38.538L185.387,38.538L188.055,38.538L189.38,38.538L190.785,38.538L192.058,38.538L193.356,38.538L196.016,38.538L197.348,38.538L198.725,38.538L200,38.538" stroke="#4c78a8" stroke-width="2"/></g></g><path class="foreground" aria-hidden="true" d="" display="none"/></g></g><g class="mark-group role-legend" role="graphics-symbol" aria-roledescription="legend" aria-label="Symbol legend titled 'identifier' for stroke color with 2 values: altex-LG-F2WR508SBM, altex-LG-F2WR508SBW"><g transform="translate(220,0)"><path class="background" aria-hidden="true" d="M0,0h168v40h-168Z" pointer-events="none"/><g><g class="mark-group role-legend-entry"><g transform="translate(0,16)"><path class="background" aria-hidden="true" d="M0,0h0v0h0Z" pointer-events="none"/><g><g class="mark-group role-scope" role="graphics-object" aria-roledescription="group mark container"><g transform="translate(0,0)"><path class="background" aria-hidden="true" d="M0,0h168v11h-168Z" pointer-events="none" opacity="1"/><g><g class="mark-symbol role-legend-symbol" pointer-events="none"><path transform="translate(6,6)" d="M-5,0L5,0" stroke="#4c78a8" stroke-width="1.5" opacity="1"/></g><g class="mark-text role-legend-label" pointer-events="none"><text text-anchor="start" transform="translate(16,9)" font-family="Liberation Mono" font-size="10px" fill="#000" opacity="1">altex-LG-F2WR508SBM</text></g></g><path class="foreground" aria-hidden="true" d="" pointer-events="none" display="none"/></g><g transform="translate(0,13)"><path class="background" aria-hidden="true" d="M0,0h168v11h-168Z" pointer-events="none" opacity="1"/><g><g class="mark-symbol role-legend-symbol" pointer-events="none"><path transform="translate(6,6)" d="M-5,0L5,0" stroke="#f58518" stroke-width="1.5" opacity="1"/></g><g class="mark-text role-legend-label" pointer-events="none"><text text-anchor="start" transform="translate(16,9)" font-family="Liberation Mono" font-size="10px" fill="#000" opacity="1">altex-LG-F2WR508SBW</text></g></g><path class="foreground" aria-hidden="true" d="" pointer-events="none" display="none"/></g></g></g><path class="foreground" aria-hidden="true" d="" pointer-events="none" display="none"/></g></g><g class="mark-text role-legend-title" pointer-events="none"><text text-anchor="start" transform="translate(0,9)" font-family="Liberation Mono" font-size="11px" font-weight="bold" fill="#000" opacity="1">identifier</text></g></g><path class="foreground" aria-hidden="true" d="" pointer-events="none" display="none"/></g></g></g><path class="foreground" aria-hidden="true" d="" display="none"/></g></g></g></svg>