<svg xmlns="http://www.w3.org/2000/svg" xmlns:xlink="http://www.w3.org/1999/xlink" version="1.1" class="marks" width="460" height="242" viewBox="0 0 460 242"><rect width="460" height="242" fill="white"/><g fill="none" stroke-miterlimit="10" transform="translate(67,5)"><g class="mark-group role-frame root" role="graphics-object" aria-roledescription="group mark container"><g transform="translate(0,0)"><path class="background" aria-hidden="true" d="M0.5,0.5h200v200h-200Z" stroke="#ddd"/><g><g class="mark-group role-axis" aria-hidden="true"><g transform="translate(0.5,200.5)"><path class="background" aria-hidden="true" d="M0,0h0v0h0Z" pointer-events="none"/><g><g class="mark-rule role-axis-grid" pointer-events="none"><line transform="translate(45,-200)" x2="0" y2="200" stroke="#ddd" stroke-width="1" opacity="1"/><line transform="translate(90,-200)" x2="0" y2="200" stroke="#ddd" stroke-width="1" opacity="1"/><line transform="translate(136,-200)" x2="0" y2="200" stroke="#ddd" stroke-width="1" opacity="1"/><line transform="translate(182,-200)" x2="0" y2="200" stroke="#ddd" stroke-width="1" opacity="1"/></g></g><path class="foreground" aria-hidden="true" d="" pointer-events="none" display="none"/></g></g><g class="mark-group role-axis" aria-hidden="true"><g transform="translate(0.5,0.5)"><path class="background" aria-hidden="true" d="M0,0h0v0h0Z" pointer-events="none"/><g><g class="mark-rule role-axis-grid" pointer-events="none"><line transform="translate(0,200)" x2="200" y2="0" stroke="#ddd" stroke-width="1" opacity="1"/><line transform="translate(0,162)" x2="200" y2="0" stroke="#ddd" stroke-width="1" opacity="1"/><line transform="translate(0,123)" x2="200" y2="0" stroke="#ddd" stroke-width="1" opacity="1"/><line transform="translate(0,85)" x2="200" y2="0" stroke="#ddd" stroke-width="1" opacity="1"/><line transform="translate(0,46)" x2="200" y2="0" stroke="#ddd" stroke-width="1" opacity="1"/><line transform="translate(0,8)" x2="200" y2="0" stroke="#ddd" stroke-width="1" opacity="1"/></g></g><path class="foreground" aria-hidden="true" d="" pointer-events="none" display="none"/></g></g><g class="mark-group role-axis" role="graphics-symbol" aria-roledescription="axis" aria-label="X-axis titled 'Time' for a time scale with values from Monday, 01 January 2024, 2:19:43 PM to Wednesday, 05 February 2025, 8:40:41 PM"><g transform="translate(0.5,200.5)"><path class="background" aria-hidden="true" d="M0,0h0v0h0Z" pointer-events="none"/><g><g class="mark-rule role-axis-tick" pointer-events="none"><line transform="translate(45,0)" x2="0" y2="5" stroke="#888" stroke-width="1" opacity="1"/><line transform="translate(90,0)" x2="0" y2="5" stroke="#888" stroke-width="1" opacity="1"/><line transform="translate(136,0)" x2="0" y2="5" stroke="#888" stroke-width="1" opacity="1"/><line transform="translate(182,0)" x2="0" y2="5" stroke="#888" stroke-width="1" opacity="1"/></g><g class="mark-text role-axis-label" pointer-events="none"><text text-anchor="middle" transform="translate(45.05903618739111,15)" font-family="Liberation Mono" font-size="10px" fill="#000" opacity="1">April</text><text text-anchor="middle" transform="translate(90.41564504950334,15)" font-family="Liberation Mono" font-size="10px" fill="#000" opacity="1">July</text><text text-anchor="middle" transform="translate(136.2706781848256,15)" font-family="Liberation Mono" font-size="10px" fill="#000" opacity="1">October</text><text text-anchor="middle" transform="translate(182.12571132014787,15)" font-family="Liberation Mono" font-size="10px" fill="#000" opacity="1">2025</text></g><g class="mark-rule role-axis-domain" pointer-events="none"><line transform="translate(0,0)" x2="200" y2="0" stroke="#888" stroke-width="1" opacity="1"/></g><g class="mark-text role-axis-title" pointer-events="none"><text text-anchor="middle" transform="translate(100,30)" font-family="Liberation Mono" font-size="11px" font-weight="bold" fill="#000" opacity="1">Time</text></g></g><path class="foreground" aria-hidden="true" d="" pointer-events="none" display="none"/></g></g><g class="mark-group role-axis" role="graphics-symbol" aria-roledescription="axis" aria-label="Y-axis titled 'Price' for a linear scale with values from 0 to 2,600"><g transform="translate(0.5,0.5)"><path class="background" aria-hidden="true" d="M0,0h0v0h0Z" pointer-events="none"/><g><g class="mark-rule role-axis-tick" pointer-events="none"><line transform="translate(0,200)" x2="-5" y2="0" stroke="#888" stroke-width="1" opacity="1"/><line transform="translate(0,162)" x2="-5" y2="0" stroke="#888" stroke-width="1" opacity="1"/><line transform="translate(0,123)" x2="-5" y2="0" stroke="#888" stroke-width="1" opacity="1"/><line transform="translate(0,85)" x2="-5" y2="0" stroke="#888" stroke-width="1" opacity="1"/><line transform="translate(0,46)" x2="-5" y2="0" stroke="#888" stroke-width="1" opacity="1"/><line transform="translate(0,8)" x2="-5" y2="0" stroke="#888" stroke-width="1" opacity="1"/></g><g class="mark-text role-axis-label" pointer-events="none"><text text-anchor="end" transform="translate(-7,203)" font-family="Liberation Mono" font-size="10px" fill="#000" opacity="1">0</text><text text-anchor="end" transform="translate(-7,164.53846153846155)" font-family="Liberation Mono" font-size="10px" fill="#000" opacity="1">500</text><text text-anchor="end" transform="translate(-7,126.07692307692308)" font-family="Liberation Mono" font-size="10px" fill="#000" opacity="1">1,000</text><text text-anchor="end" transform="translate(-7,87.61538461538463)" font-family="Liberation Mono" font-size="10px" fill="#000" opacity="1">1,500</text><text text-anchor="end" transform="translate(-7,49.153846153846146)" font-family="Liberation Mono" font-size="10px" fill="#000" opacity="1">2,000</text><text text-anchor="end" transform="translate(-7,10.692307692307686)" font-family="Liberation Mono" font-size="10px" fill="#000" opacity="1">2,500</text></g><g class="mark-rule role-axis-domain" pointer-events="none"><line transform="translate(0,200)" x2="0" y2="-200" stroke="#888" stroke-width="1" opacity="1"/></g><g class="mark-text role-axis-title" pointer-events="none"><text text-anchor="middle" transform="translate(-51,100) rotate(-90) translate(0,-2)" font-family="Liberation Mono" font-size="11px" font-weight="bold" fill="#000" opacity="1">Price</text></g></g><path class="foreground" aria-hidden="true" d="" pointer-events="none" display="none"/></g></g><g class="mark-group role-scope pathgroup" role="graphics-object" aria-roledescription="group mark container"><g transform="translate(0,0)"><path class="background" aria-hidden="true" d="M0,0h200v200h-200Z"/><g><g class="mark-line role-mark marks" role="graphics-object" aria-roledescription="line mark container"><path aria-label="Time: Jan 01, 2024; Price: 2399; identifier: altex-LG-F2WR508SBW" role="graphics-symbol" aria-roledescription="line mark" d="M0,15.462L0.052,15.462L0.131,15.462L0.297,15.462L0.38,15.462L0.468,15.462L0.547,15.462L0.629,15.462L0.796,15.462L0.879,15.462L0.966,15.462L1.046,15.462L1.128,15.462L1.294,15.462L1.377,15.462L1.465,15.462L1.545,15.462L1.626,15.462L1.793,34.692L1.876,34.692L1.963,34.692L2.043,34.692L2.125,34.692L2.291,34.692L2.374,34.692L2.461,34.692L2.541,34.692L2.623,34.692L2.79,34.692L2.872,34.692L2.959,34.692L3.039,34.692L3.122,34.692L3.288,34.692L3.371,34.692L3.459,34.692L3.538,34.692L3.62,34.692L3.787,34.692L3.87,34.692L3.958,34.692L4.037,34.692L4.118,34.692L4.285,34.692L4.368,34.692L4.456,34.692L4.535,34.692L4.617,34.692L4.783,34.692L4.867,34.692L4.954,34.692L5.034,34.692L5.115,34.692L5.282,34.692L5.365,34.692L5.452,34.692L5.532,34.692L5.614,34.692L5.78,46.231L5.863,46.231L5.95,46.231L6.03,46.231L6.112,46.231L6.279,46.231L6.361,46.231L6.448,46.231L6.528,46.231L6.611,46.231L6.777,46.231L6.86,46.231L6.948,46.231L7.027,46.231L7.109,46.231L7.275,46.231L7.359,46.231L7.446,46.231L7.526,46.231L7.607,46.231L7.774,46.231L7.857,46.231L7.945,46.231L8.024,46.231L8.106,46.231L8.272,46.231L8.355,46.231L8.443,46.231L8.522,46.231L8.604,46.231L8.771,46.231L8.854,46.231L8.942,46.231L9.021,46.231L9.103,46.231L9.269,46.231L9.352,46.231L9.439,46.231L9.519,46.231L9.601,46.231L9.767,46.231L9.85,46.231L9.937,46.231L10.017,46.231L10.1,46.231L10.266,46.231L10.35,46.231L10.437,46.231L10.516,46.231L10.598,46.231L10.765,46.231L10.848,46.231L10.936,46.231L11.015,46.231L11.096,46.231L11.263,46.231L11.346,46.231L11.434,46.231L11.513,46.231L11.595,46.231L11.762,46.231L11.845,46.231L11.932,46.231L12.012,46.231L12.093,46.231L12.26,46.231L12.343,46.231L12.429,46.231L12.509,46.231L12.592,46.231L12.758,46.231L12.841,46.231L12.926,46.231L13.007,46.231L13.09,46.231L13.256,46.231L13.339,46.231L13.425,46.231L13.505,46.231L13.589,46.231L13.755,46.231L13.838,46.231L13.924,46.231L14.004,46.231L14.087,46.231L14.253,46.231L14.336,46.231L14.422,46.231L14.503,46.231L14.585,46.231L14.751,46.231L14.835,46.231L14.921,46.231L15.001,46.231L15.084,46.231L15.25,34.692L15.333,34.692L15.42,34.692L15.499,34.692L15.582,34.692L15.748,34.692L15.831,34.692L15.918,34.692L15.997,34.692L16.081,34.692L16.247,34.692L16.33,34.692L16.416,34.692L16.496,34.692L16.579,34.692L16.746,34.692L16.828,34.692L16.914,34.692L16.994,34.692L17.077,34.692L17.244,34.692L17.327,34.692L17.413,34.692L17.493,34.692L17.576,34.692L17.742,34.692L17.825,34.692L17.912,34.692L17.991,34.692L18.074,34.692L18.24,34.692L18.324,34.692L18.41,34.692L18.49,34.692L18.573,34.692L18.739,34.692L18.822,34.692L18.908,34.692L18.988,34.692L19.071,34.692L19.237,34.692L19.321,34.692L19.406,34.692L19.487,34.692L19.57,34.692L19.736,34.692L19.819,34.692L19.905,34.692L19.985,34.692L20.068,34.692L20.235,34.692L20.317,34.692L20.403,34.692L20.483,34.692L20.566,34.692L20.733,34.692L20.816,34.692L20.902,34.692L20.982,34.692L21.065,34.692L21.231,34.692L21.314,34.692L21.4,34.692L21.481,34.692L21.563,34.692L21.729,34.692L21.813,34.692L21.899,34.692L21.979,34.692L22.062,34.692L22.311,34.692L22.397,34.692L22.477,34.692L22.56,34.692L22.726,34.692L22.809,34.692L22.896,34.692L22.976,34.692L23.059,34.692L23.225,34.692L23.308,34.692L23.393,34.692L23.474,34.692L23.557,34.692L23.723,34.692L23.807,34.692L23.892,34.692L23.972,34.692L24.055,34.692L24.222,34.692L24.305,34.692L24.391,34.692L24.472,34.692L24.554,34.692L24.72,34.692L24.803,34.692L24.889,34.692L24.97,34.692L25.052,34.692L25.218,34.692L25.302,34.692L25.388,34.692L25.468,34.692L25.551,34.692L25.717,34.692L25.8,34.692L25.886,34.692L25.966,34.692L26.049,34.692L26.215,34.692L26.298,34.692L26.384,34.692L26.464,34.692L26.548,34.692L26.714,34.692L26.797,34.692L26.882,34.692L26.963,34.692L27.046,34.692L27.212,34.692L27.295,34.692L27.381,34.692L27.462,34.692L27.544,34.692L27.71,34.692L27.794,34.692L27.88,34.692L27.96,34.692L28.043,34.692L28.209,34.692L28.292,34.692L28.378,34.692L28.458,34.692L28.541,34.692L28.707,34.692L28.79,34.692L28.877,34.692L28.957,34.692L29.04,34.692L29.206,34.692L29.289,34.692L29.375,34.692L29.455,34.692L29.538,34.692L29.704,34.692L29.788,34.692L29.874,34.692L29.954,34.692L30.037,34.692L30.203,34.692L30.286,34.692L30.372,34.692L30.452,34.692L30.535,34.692L30.701,34.692L30.784,34.692L30.87,34.692L30.95,34.692L31.033,34.692L31.207,34.692L31.321,34.692L31.37,34.692L31.449,34.692L31.532,34.692L31.698,34.692L31.781,34.692L31.868,34.692L31.947,34.692L32.03,34.692L32.196,34.692L32.28,34.692L32.366,34.692L32.446,34.692L32.529,34.692L32.695,34.692L32.778,34.692L32.864,34.692L32.944,34.692L33.027,34.692L33.193,34.692L33.277,34.692L33.363,34.692L33.442,34.692L33.525,34.692L33.692,34.692L33.775,34.692L33.86,34.692L33.941,34.692L34.024,34.692L34.19,34.692L34.274,34.692L34.359,34.692L34.439,34.692L34.522,34.692L34.689,34.692L34.771,34.692L34.858,34.692L34.938,34.692L35.021,34.692L35.187,34.692L35.27,34.692L35.357,34.692L35.437,34.692L35.519,34.692L35.685,34.692L35.769,34.692L35.855,34.692L35.935,34.692L36.018,34.692L36.184,34.692L36.267,34.692L36.354,34.692L36.433,34.692L36.516,34.692L36.682,34.692L36.766,34.692L36.852,34.692L36.932,34.692L37.014,34.692L37.181,34.692L37.264,34.692L37.35,34.692L37.43,34.692L37.513,34.692L37.679,34.692L37.763,34.692L37.848,34.692L37.928,34.692L38.011,34.692L38.177,34.692L38.26,34.692L38.348,34.692L38.427,34.692L38.51,34.692L38.676,34.692L38.759,34.692L38.845,34.692L38.926,34.692L39.008,34.692L39.174,34.692L39.258,34.692L39.344,34.692L39.425,34.692L39.507,34.692L39.673,34.692L39.756,34.692L39.843,34.692L39.923,34.692L40.005,34.692L40.171,34.692L40.254,34.692L40.341,34.692L40.421,34.692L40.504,34.692L40.67,34.692L40.753,34.692L40.839,34.692L40.919,34.692L41.002,34.692L41.168,34.692L41.251,34.692L41.338,34.692L41.417,34.692L41.5,34.692L41.666,34.692L41.75,34.692L41.836,34.692L41.916,34.692L41.999,34.692L42.165,34.692L42.249,34.692L42.335,34.692L42.415,34.692L42.497,34.692L42.664,34.692L42.747,34.692L42.833,34.692L42.914,34.692L42.996,34.692L43.162,34.692L43.245,34.692L43.332,34.692L43.411,34.692L43.494,34.692L43.66,34.692L43.743,34.692L43.83,34.692L43.91,34.692L43.992,34.692L44.158,34.692L44.242,34.692L44.327,34.692L44.408,34.692L44.491,34.692L44.657,34.692L44.74,34.692L44.826,34.692L44.907,34.692L44.989,34.692L45.155,34.692L45.239,34.692L45.326,34.692L45.406,34.692L45.488,34.692L45.654,34.692L45.737,34.692L45.824,34.692L45.904,34.692L45.986,34.692L46.152,34.692L46.235,34.692L46.322,34.692L46.402,34.692L46.484,34.692L46.651,34.692L46.734,34.692L46.82,34.692L46.9,34.692L46.983,34.692L47.15,34.692L47.319,34.692L47.399,34.692L47.482,34.692L47.648,34.692L47.731,34.692L47.816,34.692L47.897,34.692L47.98,34.692L48.146,34.692L48.229,34.692L48.315,34.692L48.395,34.692L48.478,34.692L48.645,34.692L48.727,34.692L48.814,34.692L48.894,34.692L48.977,34.692L49.143,34.692L49.226,34.692L49.313,34.692L49.393,34.692L49.475,34.692L49.641,34.692L49.725,34.692L49.811,34.692L49.892,34.692L49.974,34.692L50.14,34.692L50.223,34.692L50.31,34.692L50.472,34.692L50.638,34.692L50.722,34.692L50.808,34.692L50.887,34.692L50.97,34.692L51.136,34.692L51.219,34.692L51.304,34.692L51.386,34.692L51.469,34.692L51.642,34.692L51.77,34.692L51.848,34.692L52.01,34.692L52.135,34.692L52.216,34.692L52.302,34.692L52.382,34.692L52.466,34.692L52.632,34.692L52.715,34.692L52.802,34.692L52.881,34.692L52.964,34.692L53.13,34.692L53.213,34.692L53.3,34.692L53.38,34.692L53.463,34.692L53.712,34.692L53.798,34.692L53.878,34.692L53.961,34.692L54.127,34.692L54.21,34.692L54.297,34.692L54.377,34.692L54.459,34.692L54.626,34.692L54.709,34.692L54.795,34.692L54.875,34.692L54.958,34.692L55.124,34.692L55.207,34.692L55.293,34.692L55.373,34.692L55.456,34.692L55.622,34.692L55.706,34.692L55.793,34.692L55.872,34.692L55.955,34.692L56.121,34.692L56.204,34.692L56.291,34.692L56.371,34.692L56.453,34.692L56.619,34.692L56.703,34.692L56.792,34.692L56.869,34.692L56.952,34.692L57.118,34.692L57.201,34.692L57.285,34.692L57.367,34.692L57.45,34.692L57.616,34.692L57.699,34.692L57.786,34.692L57.866,34.692L57.949,34.692L58.114,34.692L58.197,34.692L58.283,34.692L58.364,34.692L58.447,34.692L58.613,34.692L58.696,34.692L58.783,34.692L58.862,34.692L58.945,34.692L59.111,34.692L59.195,34.692L59.282,34.692L59.361,34.692L59.444,34.692L59.61,34.692L59.693,34.692L59.78,34.692L59.86,34.692L59.942,34.692L60.108,34.692L60.193,34.692L60.279,34.692L60.358,34.692L60.44,34.692L60.607,57.769L60.69,57.769L60.777,57.769L60.856,57.769L60.939,57.769L61.105,57.769L61.188,57.769L61.275,57.769L61.355,57.769L61.437,57.769L61.603,57.769L61.686,57.769L61.773,57.769L61.853,57.769L61.936,57.769L62.102,57.769L62.185,57.769L62.272,57.769L62.351,57.769L62.434,57.769L62.6,57.769L62.684,57.769L62.771,57.769L62.851,57.769L62.932,57.769L63.099,57.769L63.182,57.769L63.269,57.769L63.349,57.769L63.431,57.769L63.597,57.769L63.681,57.769L63.768,57.769L63.848,57.769L63.929,57.769L64.096,34.692L64.18,34.692L64.266,34.692L64.347,34.692L64.428,34.692L64.594,34.692L64.677,34.692L64.765,34.692L64.844,34.692L64.926,34.692L65.092,34.692L65.175,34.692L65.262,34.692L65.342,34.692L65.425,34.692L65.591,34.692L65.674,34.692L65.761,34.692L65.84,34.692L65.923,34.692L66.09,34.692L66.173,34.692L66.26,34.692L66.339,34.692L66.422,34.692L66.588,34.692L66.671,34.692L66.759,34.692L66.838,34.692L66.92,34.692L67.086,34.692L67.17,34.692L67.257,34.692L67.336,34.692L67.419,34.692L67.584,34.692L67.668,34.692L67.756,34.692L67.834,34.692L67.917,34.692L68.083,34.692L68.166,34.692L68.254,34.692L68.333,34.692L68.415,34.692L68.581,34.692L68.665,34.692L68.752,34.692L68.831,34.692L68.914,34.692L69.08,34.692L69.163,34.692L69.25,34.692L69.33,34.692L69.412,34.692L69.579,34.692L69.662,34.692L69.749,34.692L69.828,34.692L69.911,34.692L70.077,34.692L70.16,34.692L70.248,34.692L70.326,34.692L70.409,34.692L70.575,34.692L70.659,34.692L70.746,34.692L70.826,34.692L70.907,34.692L71.073,34.692L71.157,34.692L71.244,34.692L71.324,34.692L71.406,34.692L71.573,34.692L71.655,34.692L71.743,34.692L71.822,34.692L71.905,34.692L72.071,34.692L72.154,34.692L72.24,34.692L72.32,34.692L72.403,34.692L72.569,34.692L72.652,34.692L72.739,34.692L72.818,34.692L72.902,34.692L73.067,34.692L73.151,34.692L73.238,34.692L73.318,34.692L73.399,34.692L73.567,34.692L73.649,34.692L73.737,34.692L73.816,34.692L73.898,34.692L74.065,34.692L74.148,34.692L74.235,34.692L74.314,34.692L74.396,34.692L74.564,34.692L74.646,34.692L74.733,34.692L74.813,34.692L74.895,34.692L75.062,34.692L75.144,34.692L75.232,34.692L75.311,34.692L75.393,34.692L75.559,34.692L75.642,34.692L75.729,34.692L75.809,34.692L75.891,34.692L76.058,34.692L76.141,34.692L76.228,34.692L76.307,34.692L76.39,34.692L76.557,34.692L76.64,34.692L76.728,34.692L76.806,34.692L76.889,34.692L77.055,34.692L77.138,34.692L77.226,34.692L77.305,34.692L77.387,34.692L77.554,34.692L77.637,34.692L77.724,34.692L77.803,34.692L77.885,34.692L78.052,34.692L78.135,34.692L78.223,34.692L78.301,34.692L78.384,34.692L78.55,34.692L78.634,34.692L78.721,34.692L78.801,34.692L78.882,34.692L79.049,34.692L79.131,34.692L79.219,34.692L79.299,34.692L79.38,34.692L79.547,34.692L79.63,34.692L79.717,34.692L79.796,34.692L79.879,34.692L80.046,34.692L80.129,34.692L80.217,34.692L80.296,34.692L80.377,34.692L80.544,34.692L80.628,34.692L80.715,34.692L80.794,34.692L80.876,34.692L81.042,34.692L81.126,46.231L81.214,46.231L81.292,46.231L81.374,46.231L81.541,46.231L81.624,46.231L81.712,46.231L81.792,46.231L81.873,46.231L82.039,46.231L82.122,46.231L82.21,48.538L82.289,48.538L82.371,48.538L82.538,48.538L82.621,48.538L82.708,48.538L82.787,48.538L82.87,48.538L83.036,48.538L83.119,48.538L83.206,48.538L83.286,48.538L83.368,48.538L83.535,48.538L83.618,48.538L83.706,48.538L83.784,48.538L83.866,48.538L84.033,48.538L84.117,48.538L84.204,48.538L84.283,48.538L84.365,48.538L84.531,48.538L84.615,48.538L84.703,48.538L84.781,48.538L84.863,48.538L85.03,48.538L85.113,48.538L85.201,48.538L85.281,48.538L85.362,48.538L85.529,48.538L85.612,48.538L85.699,48.538L85.778,48.538L85.86,48.538L86.026,48.538L86.11,48.538L86.198,48.538L86.276,48.538L86.358,48.538L86.525,48.538L86.608,48.538L86.695,48.538L86.774,48.538L86.857,48.538L87.024,48.538L87.107,48.538L87.195,48.538L87.273,48.538L87.355,48.538L87.522,48.538L87.605,48.538L87.693,48.538L87.854,48.538L88.021,48.538L88.104,48.538L88.192,48.538L88.27,48.538L88.352,48.538L88.52,48.538L88.602,48.538L88.69,48.538L88.769,48.538L88.851,48.538L89.017,48.538L89.101,48.538L89.188,48.538L89.267,48.538L89.349,48.538L89.516,48.538L89.599,48.538L89.686,48.538L89.765,48.538L89.848,48.538L90.014,48.538L90.097,48.538L90.184,48.538L90.264,48.538L90.346,48.538L90.513,48.538L90.596,48.538L90.684,48.538L90.763,48.538L90.844,48.538L91.011,48.538L91.094,48.538L91.182,48.538L91.261,48.538L91.343,48.538L91.509,48.538L91.593,48.538L91.68,48.538L91.76,48.538L91.841,48.538L92.008,48.538L92.091,48.538L92.179,48.538L92.257,48.538L92.34,48.538L92.507,48.538L92.589,48.538L92.677,48.538L92.756,48.538L92.838,48.538L93.005,48.538L93.088,48.538L93.175,48.538L93.254,48.538L93.337,48.538L93.503,48.538L93.586,48.538L93.673,48.538L93.752,48.538L93.835,48.538L94.002,48.538L94.085,48.538L94.172,48.538L94.252,48.538L94.333,48.538L94.5,48.538L94.584,48.538L94.672,48.538L94.75,48.538L94.832,48.538L94.999,48.538L95.082,48.538L95.17,48.538L95.248,48.538L95.33,48.538L95.497,48.538L95.58,48.538L95.668,48.538L95.747,48.538L95.829,48.538L95.995,48.538L96.079,48.538L96.166,48.538L96.245,48.538L96.327,48.538L96.493,48.538L96.576,48.538L96.664,48.538L96.743,48.538L96.825,48.538L96.993,48.538L97.076,48.538L97.168,48.538L97.246,48.538L97.324,48.538L97.491,48.538L97.574,48.538L97.662,48.538L97.741,48.538L97.822,48.538L97.989,48.538L98.072,48.538L98.159,48.538L98.239,48.538L98.321,48.538L98.487,48.538L98.571,48.538L98.659,48.538L98.738,48.538L98.819,48.538L98.986,48.538L99.069,48.538L99.157,48.538L99.236,48.538L99.317,48.538L99.485,48.538L99.567,48.538L99.655,48.538L99.735,48.538L99.816,48.538L99.983,48.538L100.065,48.538L100.153,48.538L100.232,48.538L100.315,48.538L100.481,48.538L100.564,48.538L100.651,48.538L100.731,48.538L100.813,48.538L100.98,48.538L101.064,48.538L101.151,48.538L101.23,48.538L101.311,48.538L101.478,48.538L101.562,48.538L101.649,48.538L101.728,48.538L101.81,48.538L101.976,27L102.06,27L102.148,27L102.226,27L102.308,27L102.475,27L102.558,27L102.646,27L102.725,27L102.807,27L102.974,27L103.056,27L103.144,27L103.224,27L103.305,27L103.472,27L103.554,27L103.643,27L103.721,27L103.804,27L103.97,27L104.053,27L104.14,27L104.22,27L104.302,27L104.469,27L104.552,27L104.64,27L104.719,27L104.801,27L104.967,27L105.05,27L105.138,27L105.217,27L105.298,27L105.465,27L105.548,27L105.637,27L105.715,27L105.797,27L105.964,27L106.047,27L106.135,27L106.214,27L106.296,27L106.463,27L106.546,27L106.633,27L106.713,27L106.794,27L106.961,27L107.044,27L107.131,27L107.21,27L107.292,27L107.46,27L107.542,27L107.629,27L107.708,27L107.791,27L107.958,27L108.041,27L108.129,27L108.207,27L108.29,27L108.456,27L108.539,27L108.627,27L108.706,27L108.788,27L108.955,27L109.038,27L109.126,27L109.205,27L109.287,27L109.453,27L109.536,27L109.624,27L109.703,27L109.785,27L109.951,27L110.035,27L110.123,27L110.201,27L110.283,27L110.451,27L110.533,27L110.62,27L110.7,27L110.781,27L110.948,27L111.031,27L111.119,27L111.198,27L111.28,27L111.447,27L111.53,27L111.619,27L111.697,27L111.779,27L111.945,27L112.028,27L112.117,27L112.196,27L112.277,27L112.444,27L112.527,27L112.615,27L112.694,27L112.775,27L112.942,27L113.025,27L113.113,27L113.192,27L113.274,27L113.44,27L113.524,27L113.611,27L113.691,27L113.772,27L113.939,27L114.021,27L114.109,27L114.189,27L114.271,27L114.437,27L114.52,27L114.608,27L114.687,27L114.769,27L114.936,27L115.019,27L115.107,27L115.185,27L115.268,27L115.435,27L115.517,27L115.605,27L115.684,27L115.766,27L115.933,27L116.016,27L116.102,27L116.183,27L116.264,27L116.431,27L116.514,27L116.602,27L116.682,27L116.762,27L116.929,27L117.013,27L117.101,27L117.179,27L117.261,27L117.428,27L117.51,27L117.599,27L117.677,27L117.759,27L117.926,27L118.009,27L118.097,27L118.176,27L118.258,27L118.425,27L118.508,27L118.596,27L118.675,27L118.756,27L118.923,27L119.007,27L119.095,27L119.173,27L119.255,27L119.422,27L119.505,27L119.593,27L119.672,27L119.753,27L119.92,27L120.004,27L120.092,27L120.17,27L120.251,27L120.419,27L120.502,27L120.59,27L120.668,27L120.75,27L120.917,27L121,27L121.088,27L121.167,27L121.249,27L121.416,27L121.498,27L121.587,27L121.665,27L121.747,27L121.914,27L121.998,27L122.086,27L122.164,27L122.246,27L122.412,27L122.496,27L122.584,27L122.663,27L122.744,27L122.911,27L122.994,27L123.083,27L123.161,27L123.243,27L123.41,27L123.493,27L123.581,27L123.659,27L123.741,27L123.908,27L123.991,27L124.079,27L124.158,27L124.239,27L124.406,27L124.489,27L124.576,27L124.655,27L124.737,27L124.904,27L124.987,27L125.075,27L125.154,27L125.236,27L125.403,27L125.487,27L125.575,27L125.653,27L125.734,27L125.901,27L125.985,27L126.074,27L126.151,27L126.233,27L126.401,27L126.484,27L126.572,27L126.65,27L126.731,27L126.899,27L126.982,27L127.07,27L127.149,27L127.23,27L127.397,27L127.48,27L127.568,27L127.646,27L127.728,27L127.895,46.231L127.978,46.231L128.066,46.231L128.145,46.231L128.227,46.231L128.394,46.231L128.477,46.231L128.565,46.231L128.643,46.231L128.725,46.231L128.893,46.231L128.976,46.231L129.065,46.231L129.143,46.231L129.224,46.231L129.389,46.231L129.474,46.231L129.563,46.231L129.641,46.231L129.722,46.231L129.889,46.231L129.972,46.231L130.061,46.231L130.139,46.231L130.221,46.231L130.388,53.923L130.471,53.923L130.559,53.923L130.638,53.923L130.719,53.923L130.886,53.923L130.969,53.923L131.058,53.923L131.136,53.923L131.217,53.923L131.384,53.923L131.467,53.923L131.555,53.923L131.634,53.923L131.715,53.923L131.883,53.923L131.965,53.923L132.054,53.923L132.132,53.923L132.214,53.923L132.381,53.923L132.465,53.923L132.553,53.923L132.631,53.923L132.713,53.923L132.88,53.923L132.964,53.923L133.052,53.923L133.13,53.923L133.211,53.923L133.378,53.923L133.462,53.923L133.551,53.923L133.629,53.923L133.71,53.923L133.877,23.154L133.96,23.154L134.049,23.154L134.127,23.154L134.208,23.154L134.375,23.154L134.459,23.154L134.547,23.154L134.625,23.154L134.873,23.154L134.956,23.154L135.044,23.154L135.123,23.154L135.204,23.154L135.372,23.154L135.455,23.154L135.543,23.154L135.621,23.154L135.703,23.154L135.871,23.154L135.955,23.154L136.043,23.154L136.121,23.154L136.202,23.154L136.369,23.154L136.453,23.154L136.541,23.154L136.619,23.154L136.7,23.154L136.867,23.154L136.951,23.154L137.039,23.154L137.117,23.154L137.199,23.154L137.366,23.154L137.449,23.154L137.538,23.154L137.616,23.154L137.697,23.154L137.864,23.154L137.947,23.154L138.036,23.154L138.114,23.154L138.195,23.154L138.362,23.154L138.445,23.154L138.533,23.154L138.612,23.154L138.693,23.154L138.861,23.154L138.944,23.154L139.032,23.154L139.11,23.154L139.192,23.154L139.359,23.154L139.443,23.154L139.532,23.154L139.61,23.154L139.691,23.154L139.858,23.154L139.942,23.154L140.03,23.154L140.108,23.154L140.189,23.154L140.356,23.154L140.44,23.154L140.528,23.154L140.606,23.154L140.688,23.154L140.854,23.154L140.938,23.154L141.027,23.154L141.104,23.154L141.186,23.154L141.353,23.154L141.436,23.154L141.525,23.154L141.603,23.154L141.685,23.154L141.852,23.154L141.934,23.154L142.022,23.154L142.101,23.154L142.183,23.154L142.35,23.154L142.433,23.154L142.521,23.154L142.599,23.154L142.681,23.154L142.848,23.154L142.932,23.154L143.021,23.154L143.099,23.154L143.18,23.154L143.347,23.154L143.43,23.154L143.519,23.154L143.597,23.154L143.678,23.154L143.845,23.154L143.929,23.154L144.017,23.154L144.095,23.154L144.177,23.154L144.344,23.154L144.427,23.154L144.516,23.154L144.594,23.154L144.675,23.154L144.842,23.154L144.926,23.154L145.014,23.154L145.092,23.154L145.173,23.154L145.34,23.154L145.423,23.154L145.511,23.154L145.59,23.154L145.672,23.154L145.839,23.154L145.922,23.154L146.01,23.154L146.088,23.154L146.17,23.154L146.337,23.154L146.421,23.154L146.51,23.154L146.588,23.154L146.669,23.154L146.836,23.154L146.919,23.154L147.008,23.154L147.086,23.154L147.167,23.154L147.334,23.154L147.418,23.154L147.506,23.154L147.585,23.154L147.666,23.154L147.833,23.154L147.916,23.154L148.005,23.154L148.083,23.154L148.164,23.154L148.331,23.154L148.414,23.154L148.503,23.154L148.581,23.154L148.662,23.154L148.829,23.154L148.912,23.154L149,23.154L149.079,23.154L149.16,23.154L149.328,23.154L149.411,23.154L149.499,23.154L149.577,23.154L149.66,23.154L149.827,23.154L149.91,23.154L149.999,23.154L150.077,23.154L150.158,23.154L150.325,23.154L150.408,23.154L150.497,23.154L150.575,23.154L150.656,23.154L150.823,23.154L150.908,23.154L150.996,23.154L151.074,23.154L151.155,23.154L151.494,23.154L151.572,23.154L151.653,23.154L151.82,23.154L151.903,23.154L151.991,23.154L152.07,23.154L152.151,23.154L152.318,23.154L152.401,23.154L152.489,23.154L152.568,23.154L152.649,23.154L152.816,23.154L152.899,23.154L152.988,23.154L153.066,23.154L153.148,23.154L153.315,23.154L153.399,23.154L153.488,23.154L153.565,23.154L153.646,23.154L153.813,23.154L153.897,23.154L153.985,23.154L154.063,23.154L154.145,23.154L154.312,23.154L154.396,23.154L154.484,23.154L154.562,23.154L154.643,23.154L154.81,58.538L154.894,58.538L154.982,58.538L155.06,58.538L155.142,58.538L155.309,58.538L155.392,58.538L155.48,58.538L155.559,58.538L155.64,58.538L155.807,58.538L155.89,58.538L155.978,58.538L156.057,58.538L156.138,58.538L156.305,58.538L156.388,58.538L156.476,58.538L156.555,58.538L156.636,58.538L156.804,58.538L156.888,58.538L156.976,58.538L157.054,58.538L157.135,58.538L157.302,58.538L157.386,58.538L157.475,58.538L157.553,58.538L157.634,58.538L157.801,58.538L157.884,58.538L157.973,58.538L158.051,58.538L158.132,58.538L158.3,23.154L158.383,23.154L158.472,23.154L158.55,23.154L158.631,23.154L158.799,23.154L158.881,23.154L158.97,23.154L159.048,23.154L159.13,23.154L159.297,23.154L159.379,23.154L159.468,23.154L159.546,23.154L159.628,23.154L159.795,23.154L159.878,23.154L159.966,23.154L160.044,23.154L160.126,23.154L160.294,23.154L160.378,23.154L160.466,23.154L160.544,23.154L160.625,23.154L160.792,23.154L160.876,23.154L160.965,23.154L161.042,23.154L161.123,23.154L161.29,23.154L161.375,23.154L161.463,23.154L161.541,23.154L161.622,23.154L161.789,23.154L161.873,23.154L161.961,23.154L162.039,23.154L162.12,23.154L162.287,23.154L162.371,23.154L162.46,23.154L162.538,23.154L162.619,23.154L162.785,23.154L162.868,23.154L162.957,23.154L163.035,23.154L163.116,23.154L163.284,23.154L163.367,23.154L163.455,23.154L163.534,23.154L163.615,23.154L163.783,23.154L163.867,23.154L163.955,23.154L164.033,23.154L164.114,23.154L164.281,23.154L164.365,23.154L164.454,23.154L164.532,23.154L164.612,23.154L164.78,23.154L164.864,23.154L164.952,23.154L165.03,23.154L165.111,23.154L165.278,23.154L165.362,23.154L165.451,23.154L165.528,23.154L165.609,23.154L165.777,23.154L165.86,23.154L165.949,23.154L166.026,23.154L166.107,23.154L166.274,23.154L166.357,23.154L166.446,23.154L166.524,23.154L166.606,23.154L166.773,23.154L166.856,23.154L166.945,23.154L167.022,23.154L167.104,23.154L167.272,23.154L167.356,23.154L167.445,23.154L167.522,23.154L167.603,23.154L167.77,23.154L167.854,23.154L167.943,23.154L168.021,23.154L168.101,23.154L168.269,23.154L168.353,23.154L168.441,23.154L168.519,23.154L168.6,23.154L168.767,23.154L168.851,23.154L168.94,23.154L169.018,23.154L169.098,23.154L169.266,23.154L169.349,23.154L169.438,23.154L169.515,23.154L169.597,23.154L169.764,23.154L169.847,23.154L169.935,23.154L170.013,23.154L170.095,23.154L170.262,23.154L170.345,23.154L170.434,23.154L170.511,23.154L170.593,23.154L170.761,23.154L170.845,23.154L170.934,23.154L171.011,23.154L171.092,23.154L171.259,23.154L171.343,23.154L171.432,23.154L171.51,23.154L171.59,23.154L171.758,23.154L171.842,23.154L171.931,23.154L172.008,23.154L172.089,23.154L172.256,23.154L172.34,23.154L172.429,23.154L172.507,23.154L172.587,23.154L172.754,23.154L172.838,23.154L172.927,23.154L173.004,23.154L173.086,23.154L173.252,23.154L173.336,23.154L173.424,23.154L173.502,23.154L173.584,23.154L173.751,23.154L173.834,23.154L173.923,23.154L174,23.154L174.082,23.154L174.25,23.154L174.334,23.154L174.423,23.154L174.5,23.154L174.581,23.154L174.748,23.154L174.832,23.154L174.921,23.154L174.999,23.154L175.079,23.154L175.246,23.154L175.33,23.154L175.419,23.154L175.497,23.154L175.578,23.154L175.745,23.154L175.828,23.154L175.917,23.154L175.994,23.154L176.076,23.154L176.243,23.154L176.326,23.154L176.414,23.154L176.492,23.154L176.574,23.154L176.741,23.154L176.824,23.154L176.912,23.154L176.99,23.154L177.072,23.154L177.239,23.154L177.322,23.154L177.41,23.154L177.488,23.154L177.57,23.154L177.738,23.154L177.821,23.154L177.91,23.154L177.987,23.154L178.069,23.154L178.236,23.154L178.32,23.154L178.408,23.154L178.486,23.154L178.567,23.154L178.735,23.154L178.818,23.154L178.906,23.154L178.984,23.154L179.066,23.154L179.233,23.154L179.316,23.154L179.405,23.154L179.483,23.154L179.564,23.154L179.731,23.154L179.815,23.154L179.903,23.154L179.981,23.154L180.063,23.154L180.23,23.154L180.313,23.154L180.401,23.154L180.479,23.154L180.561,23.154L180.728,23.154L180.811,23.154L180.899,23.154L180.977,23.154L181.059,23.154L181.227,23.154L181.31,23.154L181.398,23.154L181.476,23.154L181.558,23.154L181.725,23.154L181.809,23.154L181.897,23.154L181.975,23.154L182.056,23.154L182.224,23.154L182.307,23.154L182.395,23.154L182.473,23.154L182.555,23.154L182.722,23.154L182.805,23.154L182.894,23.154L182.972,23.154L183.053,23.154L183.22,23.154L183.304,23.154L183.392,23.154L183.47,23.154L183.552,23.154L183.719,23.154L183.802,23.154L183.89,23.154L183.968,23.154L184.05,23.154L184.217,23.154L184.3,23.154L184.388,23.154L184.467,23.154L184.548,23.154L184.716,23.154L184.799,23.154L184.888,23.154L184.966,23.154L185.047,23.154L185.214,23.154L185.298,23.154L185.387,23.154L185.468,23.154L185.545,23.154L185.712,23.154L185.796,23.154L185.885,23.154L185.963,23.154L186.044,23.154L186.211,23.154L186.294,23.154L186.383,23.154L186.461,23.154L186.543,23.154L186.709,23.154L186.793,23.154L186.881,23.154L186.96,23.154L187.041,23.154L187.207,23.154L187.291,23.154L187.379,23.154L187.457,23.154L187.539,23.154L187.706,23.154L187.789,23.154L187.877,23.154L187.955,23.154L188.037,23.154L188.205,23.154L188.289,23.154L188.378,23.154L188.455,23.154L188.536,23.154L188.703,23.154L188.786,23.154L188.874,23.154L188.953,23.154L189.034,23.154L189.201,23.154L189.285,23.154L189.373,23.154L189.451,23.154L189.532,23.154L189.7,23.154L189.783,23.154L189.872,23.154L190.031,23.154L190.199,23.154L190.281,23.154L190.37,23.154L190.448,23.154L190.779,23.154L190.867,23.154L190.945,23.154L191.028,23.154L191.195,23.154L191.277,23.154L191.365,23.154L191.444,23.154L191.526,23.154L191.693,23.154L191.777,23.154L191.866,23.154L191.943,23.154L192.024,23.154L192.192,23.154L192.275,23.154L192.364,23.154L192.442,23.154L192.523,23.154L192.69,23.154L192.774,23.154L192.862,23.154L192.94,23.154L193.021,23.154L193.189,23.154L193.272,23.154L193.361,23.154L193.439,23.154L193.52,23.154L193.687,23.154L193.77,23.154L193.859,23.154L193.937,23.154L194.018,23.154L194.186,23.154L194.268,23.154L194.356,23.154L194.435,23.154L194.517,23.154L194.683,23.154L194.766,23.154L194.854,23.154L194.933,23.154L195.015,23.154L195.183,23.154L195.266,23.154L195.354,23.154L195.432,23.154L195.514,23.154L195.681,23.154L195.764,23.154L195.853,23.154L195.931,23.154L196.012,23.154L196.179,23.154L196.263,23.154L196.351,23.154L196.429,23.154L196.511,23.154L196.678,23.154L196.761,23.154L196.849,23.154L196.93,23.154L197.009,23.154L197.176,23.154L197.259,23.154L197.348,23.154L197.426,23.154L197.507,23.154L197.674,23.154L197.757,23.154L197.845,23.154L197.923,23.154L198.006,23.154L198.172,23.154L198.256,23.154L198.343,23.154L198.422,23.154L198.504,23.154L198.672,23.154L198.755,23.154L198.843,23.154L198.921,23.154L199.003,23.154L199.17,23.154L199.253,23.154L199.342,23.154L199.42,23.154L199.501,23.154L199.669,23.154L199.752,23.154L199.84,23.154L199.919,23.154L200,23.154" stroke="#4c78a8" stroke-width="2"/></g></g><path class="foreground" aria-hidden="true" d="" display="none"/></g><g transform="translate(0,0)"><path class="background" aria-hidden="true" d="M0,0h200v200h-200Z"/><g><g class="mark-line role-mark marks" role="graphics-object" aria-roledescription="line mark container"><path aria-label="Time: Jan 01, 2024; Price: 2499; identifier: altex-LG-F2WR508SBM" role="graphics-symbol" aria-roledescription="line mark" d="M0,7.769L0.052,7.769L0.131,7.769L0.297,7.769L0.38,7.769L0.468,7.769L0.547,7.769L0.629,7.769L0.796,7.769L0.879,7.769L0.966,7.769L1.046,7.769L1.128,7.769L1.294,7.769L1.377,7.769L1.465,7.769L1.545,7.769L1.627,7.769L1.793,27L1.876,27L1.963,27L2.043,27L2.125,27L2.291,27L2.374,27L2.461,27L2.541,27L2.623,27L2.79,27L2.872,27L2.959,27L3.039,27L3.122,27L3.288,27L3.371,27L3.459,27L3.538,27L3.62,27L3.787,27L3.87,27L3.958,27L4.037,27L4.118,27L4.285,27L4.368,27L4.456,27L4.535,27L4.617,27L4.783,27L4.867,27L4.954,27L5.034,27L5.115,27L5.282,27L5.365,27L5.452,27L5.532,27L5.614,27L5.78,38.538L5.863,38.538L5.95,38.538L6.03,38.538L6.112,38.538L6.279,38.538L6.361,38.538L6.448,38.538L6.528,38.538L6.611,38.538L6.777,38.538L6.86,38.538L6.948,38.538L7.027,38.538L7.109,38.538L7.275,38.538L7.359,38.538L7.446,38.538L7.526,38.538L7.607,38.538L7.774,38.538L7.857,38.538L7.945,38.538L8.024,38.538L8.106,38.538L8.272,38.538L8.355,38.538L8.443,38.538L8.522,38.538L8.604,38.538L8.771,38.538L8.854,38.538L8.942,38.538L9.021,38.538L9.103,38.538L9.269,38.538L9.352,38.538L9.439,38.538L9.519,38.538L9.601,38.538L9.767,38.538L9.85,38.538L9.937,38.538L10.017,38.538L10.1,38.538L10.267,38.538L10.35,38.538L10.437,38.538L10.516,38.538L10.598,38.538L10.765,38.538L10.848,38.538L10.936,38.538L11.015,38.538L11.096,38.538L11.263,38.538L11.346,38.538L11.434,38.538L11.513,38.538L11.595,38.538L11.762,38.538L11.845,38.538L11.932,38.538L12.012,38.538L12.093,38.538L12.26,38.538L12.343,38.538L12.429,38.538L12.509,38.538L12.592,38.538L12.758,38.538L12.841,38.538L12.926,38.538L13.007,38.538L13.09,38.538L13.256,38.538L13.339,38.538L13.425,38.538L13.505,38.538L13.589,38.538L13.755,38.538L13.838,38.538L13.924,38.538L14.004,38.538L14.087,38.538L14.253,38.538L14.336,38.538L14.423,38.538L14.503,38.538L14.585,38.538L14.751,38.538L14.835,38.538L14.921,38.538L15.001,38.538L15.084,38.538L15.25,27L15.333,27L15.42,27L15.499,27L15.582,27L15.748,27L15.831,27L15.918,27L15.997,27L16.081,27L16.247,27L16.33,27L16.416,27L16.496,27L16.579,27L16.746,27L16.828,27L16.914,27L16.994,27L17.077,27L17.244,27L17.327,27L17.413,27L17.493,27L17.576,27L17.742,27L17.825,27L17.912,27L17.991,27L18.074,27L18.24,27L18.324,27L18.41,27L18.49,27L18.573,27L18.739,27L18.822,27L18.908,27L18.988,27L19.071,27L19.237,27L19.321,27L19.406,27L19.487,27L19.57,27L19.736,27L19.819,27L19.905,27L19.985,27L20.068,27L20.235,27L20.317,27L20.403,27L20.483,27L20.566,27L20.733,27L20.816,27L20.903,27L20.982,27L21.065,27L21.231,27L21.314,27L21.4,27L21.481,27L21.563,27L21.729,27L21.813,27L21.899,27L21.979,27L22.062,27L22.311,27L22.397,27L22.477,27L22.56,27L22.726,27L22.809,27L22.896,27L22.976,27L23.059,27L23.225,27L23.308,27L23.393,27L23.474,27L23.557,27L23.723,27L23.807,27L23.892,27L23.972,27L24.055,27L24.222,27L24.305,27L24.391,27L24.472,27L24.554,27L24.72,27L24.803,27L24.889,27L24.97,27L25.053,27L25.218,27L25.302,27L25.388,27L25.468,27L25.551,27L25.717,27L25.8,27L25.886,27L25.966,27L26.049,27L26.215,27L26.298,27L26.384,27L26.464,27L26.548,27L26.714,27L26.797,27L26.882,27L26.963,27L27.046,27L27.212,27L27.295,27L27.381,27L27.462,27L27.544,27L27.711,27L27.794,27L27.88,27L27.96,27L28.043,27L28.209,27L28.292,27L28.378,27L28.459,27L28.541,27L28.707,27L28.79,27L28.877,27L28.957,27L29.04,27L29.206,27L29.289,27L29.375,27L29.455,27L29.538,27L29.704,27L29.788,27L29.874,27L29.954,27L30.037,27L30.203,27L30.286,27L30.372,27L30.452,27L30.535,27L30.701,27L30.784,27L30.87,27L30.95,27L31.033,27L31.207,27L31.321,27L31.37,27L31.449,27L31.532,27L31.698,27L31.781,27L31.868,27L31.947,27L32.03,27L32.196,27L32.28,27L32.366,27L32.446,27L32.529,27L32.695,27L32.778,27L32.864,38.538L32.944,38.538L33.027,38.538L33.193,38.538L33.277,38.538L33.363,38.538L33.442,38.538L33.525,38.538L33.692,38.538L33.775,38.538L33.86,38.538L33.941,38.538L34.024,38.538L34.19,38.538L34.274,38.538L34.359,38.538L34.44,38.538L34.522,38.538L34.689,38.538L34.772,38.538L34.858,38.538L34.938,38.538L35.021,38.538L35.187,38.538L35.27,38.538L35.357,38.538L35.437,38.538L35.519,38.538L35.685,38.538L35.769,38.538L35.855,38.538L35.935,38.538L36.018,38.538L36.184,38.538L36.267,38.538L36.354,38.538L36.433,38.538L36.516,38.538L36.682,38.538L36.766,38.538L36.852,38.538L36.932,38.538L37.014,38.538L37.181,38.538L37.264,38.538L37.35,38.538L37.43,38.538L37.513,38.538L37.679,38.538L37.763,38.538L37.848,38.538L37.928,38.538L38.011,38.538L38.177,38.538L38.261,38.538L38.348,38.538L38.428,38.538L38.51,38.538L38.676,38.538L38.759,38.538L38.845,38.538L38.926,38.538L39.008,38.538L39.174,38.538L39.258,38.538L39.344,38.538L39.425,38.538L39.507,38.538L39.673,38.538L39.756,38.538L39.843,38.538L39.923,38.538L40.005,38.538L40.171,38.538L40.254,38.538L40.341,38.538L40.421,38.538L40.504,38.538L40.67,38.538L40.753,38.538L40.839,38.538L40.919,38.538L41.002,38.538L41.168,38.538L41.251,38.538L41.338,38.538L41.417,38.538L41.5,38.538L41.666,38.538L41.75,38.538L41.836,38.538L41.916,38.538L41.999,38.538L42.165,38.538L42.249,38.538L42.335,38.538L42.415,38.538L42.497,38.538L42.664,38.538L42.747,38.538L42.833,38.538L42.914,38.538L42.996,38.538L43.162,38.538L43.245,38.538L43.332,38.538L43.411,38.538L43.494,38.538L43.66,38.538L43.743,38.538L43.83,38.538L43.91,38.538L43.992,38.538L44.158,38.538L44.242,38.538L44.327,38.538L44.408,38.538L44.491,38.538L44.657,38.538L44.741,38.538L44.826,38.538L44.907,38.538L44.989,38.538L45.155,38.538L45.239,38.538L45.326,38.538L45.406,38.538L45.488,38.538L45.654,38.538L45.737,38.538L45.824,38.538L45.904,38.538L45.986,38.538L46.152,38.538L46.235,38.538L46.322,38.538L46.402,38.538L46.485,38.538L46.651,38.538L46.734,38.538L46.82,38.538L46.9,38.538L46.983,38.538L47.15,38.538L47.319,38.538L47.399,38.538L47.482,38.538L47.648,38.538L47.731,38.538L47.816,38.538L47.897,38.538L47.98,38.538L48.146,38.538L48.229,38.538L48.315,38.538L48.395,38.538L48.478,38.538L48.645,38.538L48.727,38.538L48.814,38.538L48.894,38.538L48.977,38.538L49.143,38.538L49.226,38.538L49.313,38.538L49.393,38.538L49.475,38.538L49.641,38.538L49.725,38.538L49.811,38.538L49.892,38.538L49.974,38.538L50.14,38.538L50.223,38.538L50.31,38.538L50.472,38.538L50.638,38.538L50.722,38.538L50.808,38.538L50.887,38.538L50.97,38.538L51.136,38.538L51.219,38.538L51.304,38.538L51.386,38.538L51.469,38.538L51.643,38.538L51.77,38.538L51.848,38.538L52.01,38.538L52.135,38.538L52.216,38.538L52.302,38.538L52.383,38.538L52.466,38.538L52.632,38.538L52.715,38.538L52.802,38.538L52.881,38.538L52.964,38.538L53.13,38.538L53.213,38.538L53.3,38.538L53.38,38.538L53.463,38.538L53.712,38.538L53.798,38.538L53.878,38.538L53.961,38.538L54.127,38.538L54.21,38.538L54.297,38.538L54.377,38.538L54.459,38.538L54.626,38.538L54.709,38.538L54.795,38.538L54.875,38.538L54.958,38.538L55.124,38.538L55.207,38.538L55.293,38.538L55.373,38.538L55.456,38.538L55.622,38.538L55.706,38.538L55.793,38.538L55.872,38.538L55.955,38.538L56.121,38.538L56.204,38.538L56.291,38.538L56.371,38.538L56.453,38.538L56.619,38.538L56.703,38.538L56.792,38.538L56.869,38.538L56.952,38.538L57.118,38.538L57.201,38.538L57.285,38.538L57.367,38.538L57.45,38.538L57.616,38.538L57.699,38.538L57.786,38.538L57.866,38.538L57.949,38.538L58.115,38.538L58.197,38.538L58.283,38.538L58.364,38.538L58.447,38.538L58.613,38.538L58.696,38.538L58.783,38.538L58.862,38.538L58.945,38.538L59.111,38.538L59.196,38.538L59.282,38.538L59.361,38.538L59.444,38.538L59.61,38.538L59.693,38.538L59.78,38.538L59.86,38.538L59.942,38.538L60.108,38.538L60.193,38.538L60.279,38.538L60.358,38.538L60.44,38.538L60.607,38.538L60.69,38.538L60.777,38.538L60.856,38.538L60.939,38.538L61.105,38.538L61.188,38.538L61.275,38.538L61.355,38.538L61.437,38.538L61.603,38.538L61.687,38.538L61.773,38.538L61.853,38.538L61.936,38.538L62.102,38.538L62.185,38.538L62.272,38.538L62.351,38.538L62.434,38.538L62.6,38.538L62.684,38.538L62.771,38.538L62.851,38.538L62.932,38.538L63.099,38.538L63.182,38.538L63.269,30.846L63.349,30.846L63.431,30.846L63.597,30.846L63.681,30.846L63.769,30.846L63.848,30.846L63.929,30.846L64.096,30.846L64.18,30.846L64.266,30.846L64.347,30.846L64.428,30.846L64.594,30.846L64.677,30.846L64.765,30.846L64.844,30.846L64.926,30.846L65.092,30.846L65.175,30.846L65.262,30.846L65.342,30.846L65.425,30.846L65.591,30.846L65.674,30.846L65.761,30.846L65.84,30.846L65.923,30.846L66.09,30.846L66.173,30.846L66.26,30.846L66.339,30.846L66.422,30.846L66.588,30.846L66.671,30.846L66.759,30.846L66.838,30.846L66.92,30.846L67.086,30.846L67.17,30.846L67.257,30.846L67.336,30.846L67.419,30.846L67.584,30.846L67.668,30.846L67.756,30.846L67.834,30.846L67.917,30.846L68.083,30.846L68.166,30.846L68.254,30.846L68.333,30.846L68.415,30.846L68.581,30.846L68.665,30.846L68.752,30.846L68.831,30.846L68.914,30.846L69.08,30.846L69.163,30.846L69.25,30.846L69.33,30.846L69.412,30.846L69.579,30.846L69.662,30.846L69.749,30.846L69.828,30.846L69.911,30.846L70.077,30.846L70.16,30.846L70.248,30.846L70.327,30.846L70.409,30.846L70.576,30.846L70.659,30.846L70.746,38.538L70.826,38.538L70.907,38.538L71.074,38.538L71.157,38.538L71.244,38.538L71.324,38.538L71.406,38.538L71.573,38.538L71.655,38.538L71.743,38.538L71.822,38.538L71.905,38.538L72.071,38.538L72.154,38.538L72.24,38.538L72.32,38.538L72.403,38.538L72.569,38.538L72.652,38.538L72.739,38.538L72.818,38.538L72.902,38.538L73.067,38.538L73.151,38.538L73.238,38.538L73.318,38.538L73.399,38.538L73.567,38.538L73.649,38.538L73.737,38.538L73.816,38.538L73.898,38.538L74.065,38.538L74.148,38.538L74.235,38.538L74.314,38.538L74.396,38.538L74.564,38.538L74.646,38.538L74.734,38.538L74.813,38.538L74.895,38.538L75.062,30.846L75.144,30.846L75.232,30.846L75.311,30.846L75.393,30.846L75.559,30.846L75.642,30.846L75.729,30.846L75.809,30.846L75.891,30.846L76.058,30.846L76.141,30.846L76.228,30.846L76.307,30.846L76.39,30.846L76.557,30.846L76.64,30.846L76.728,30.846L76.806,30.846L76.889,30.846L77.055,30.846L77.138,30.846L77.226,30.846L77.305,30.846L77.387,30.846L77.554,30.846L77.637,30.846L77.724,30.846L77.803,30.846L77.885,30.846L78.052,30.846L78.135,30.846L78.223,30.846L78.301,30.846L78.384,30.846L78.55,30.846L78.634,30.846L78.721,30.846L78.801,30.846L78.882,30.846L79.049,30.846L79.131,30.846L79.219,30.846L79.299,30.846L79.38,30.846L79.547,30.846L79.63,30.846L79.717,30.846L79.796,30.846L79.879,30.846L80.046,30.846L80.129,30.846L80.217,30.846L80.296,30.846L80.377,30.846L80.544,30.846L80.628,30.846L80.715,30.846L80.794,30.846L80.876,30.846L81.042,30.846L81.126,34.692L81.214,34.692L81.292,34.692L81.374,34.692L81.541,34.692L81.624,34.692L81.712,34.692L81.792,34.692L81.873,34.692L82.039,34.692L82.122,34.692L82.21,40.077L82.289,40.077L82.371,40.077L82.538,40.077L82.621,40.077L82.708,40.077L82.787,40.077L82.87,40.077L83.036,40.077L83.119,40.077L83.206,40.077L83.286,40.077L83.368,40.077L83.535,40.077L83.618,40.077L83.706,40.077L83.784,40.077L83.866,40.077L84.033,40.077L84.117,40.077L84.204,40.077L84.283,40.077L84.365,40.077L84.531,40.077L84.615,40.077L84.703,40.077L84.781,40.077L84.863,40.077L85.03,40.077L85.113,40.077L85.201,40.077L85.281,40.077L85.362,40.077L85.529,40.077L85.612,40.077L85.699,40.077L85.778,40.077L85.86,40.077L86.026,40.077L86.11,40.077L86.198,40.077L86.276,40.077L86.358,40.077L86.525,40.077L86.608,40.077L86.695,40.077L86.774,40.077L86.857,40.077L87.024,40.077L87.107,40.077L87.195,40.077L87.273,40.077L87.355,40.077L87.522,40.077L87.605,40.077L87.693,40.077L87.854,40.077L88.021,40.077L88.104,40.077L88.192,40.077L88.27,40.077L88.352,40.077L88.52,40.077L88.602,40.077L88.69,40.077L88.769,40.077L88.851,40.077L89.017,40.077L89.101,40.077L89.188,40.077L89.267,40.077L89.349,40.077L89.516,40.077L89.599,40.077L89.686,40.077L89.765,40.077L89.848,40.077L90.014,40.077L90.097,40.077L90.184,40.077L90.264,40.077L90.346,40.077L90.513,40.077L90.596,40.077L90.684,40.077L90.763,40.077L90.844,40.077L91.011,40.077L91.094,40.077L91.182,40.077L91.261,40.077L91.343,40.077L91.509,40.077L91.593,40.077L91.68,40.077L91.76,40.077L91.841,40.077L92.008,40.077L92.091,40.077L92.179,40.077L92.257,40.077L92.34,40.077L92.507,40.077L92.589,40.077L92.677,40.077L92.756,40.077L92.838,40.077L93.005,40.077L93.088,40.077L93.175,40.077L93.254,40.077L93.337,40.077L93.503,40.077L93.586,40.077L93.673,40.077L93.752,40.077L93.835,40.077L94.002,40.077L94.085,40.077L94.172,40.077L94.252,40.077L94.333,40.077L94.5,40.077L94.584,40.077L94.672,40.077L94.75,40.077L94.832,40.077L94.999,40.077L95.082,40.077L95.17,40.077L95.248,40.077L95.33,40.077L95.497,40.077L95.58,40.077L95.668,40.077L95.747,40.077L95.829,40.077L95.995,40.077L96.079,40.077L96.166,40.077L96.245,40.077L96.327,40.077L96.493,40.077L96.576,40.077L96.664,40.077L96.743,40.077L96.825,40.077L96.993,40.077L97.076,40.077L97.168,40.077L97.246,40.077L97.324,40.077L97.491,40.077L97.574,40.077L97.662,40.077L97.741,40.077L97.822,40.077L97.989,40.077L98.072,40.077L98.159,40.077L98.239,40.077L98.321,40.077L98.487,40.077L98.571,40.077L98.659,40.077L98.738,40.077L98.819,40.077L98.986,40.077L99.069,40.077L99.157,40.077L99.236,40.077L99.318,40.077L99.485,40.077L99.568,40.077L99.655,40.077L99.735,40.077L99.816,40.077L99.983,40.077L100.065,40.077L100.153,40.077L100.232,40.077L100.315,40.077L100.481,40.077L100.564,40.077L100.651,40.077L100.731,40.077L100.813,40.077L100.98,40.077L101.064,40.077L101.151,40.077L101.23,40.077L101.311,40.077L101.478,40.077L101.562,40.077L101.649,40.077L101.728,40.077L101.81,40.077L101.976,40.077L102.06,40.077L102.148,40.077L102.226,40.077L102.308,40.077L102.475,40.077L102.558,40.077L102.646,40.077L102.725,40.077L102.807,40.077L102.974,40.077L103.056,40.077L103.144,40.077L103.224,40.077L103.305,40.077L103.472,40.077L103.554,40.077L103.643,40.077L103.721,40.077L103.804,40.077L103.97,40.077L104.053,40.077L104.14,40.077L104.22,40.077L104.302,40.077L104.469,40.077L104.552,40.077L104.64,40.077L104.719,40.077L104.801,40.077L104.967,40.077L105.05,40.077L105.138,40.077L105.217,40.077L105.299,40.077L105.465,40.077L105.548,40.077L105.637,40.077L105.715,40.077L105.797,40.077L105.964,40.077L106.047,40.077L106.135,40.077L106.214,40.077L106.296,40.077L106.463,40.077L106.546,40.077L106.633,40.077L106.713,40.077L106.794,40.077L106.961,40.077L107.044,40.077L107.131,40.077L107.21,40.077L107.292,40.077L107.46,40.077L107.542,40.077L107.629,40.077L107.708,40.077L107.791,40.077L107.958,40.077L108.041,40.077L108.129,40.077L108.207,40.077L108.29,40.077L108.456,40.077L108.539,40.077L108.627,40.077L108.706,40.077L108.788,40.077L108.955,40.077L109.038,40.077L109.126,40.077L109.205,40.077L109.287,40.077L109.453,40.077L109.536,40.077L109.624,40.077L109.703,40.077L109.785,40.077L109.952,40.077L110.035,40.077L110.123,40.077L110.201,40.077L110.283,40.077L110.451,40.077L110.533,40.077L110.62,40.077L110.7,40.077L110.781,40.077L110.948,40.077L111.031,40.077L111.119,40.077L111.198,40.077L111.28,40.077L111.447,40.077L111.53,40.077L111.619,40.077L111.697,40.077L111.779,40.077L111.945,40.077L112.028,40.077L112.117,40.077L112.196,40.077L112.277,40.077L112.444,40.077L112.527,40.077L112.615,40.077L112.694,40.077L112.775,40.077L112.942,40.077L113.025,40.077L113.113,40.077L113.192,40.077L113.274,40.077L113.44,40.077L113.524,40.077L113.611,40.077L113.691,40.077L113.772,40.077L113.939,40.077L114.021,40.077L114.109,40.077L114.189,40.077L114.271,40.077L114.437,40.077L114.52,40.077L114.608,40.077L114.687,40.077L114.769,40.077L114.936,40.077L115.019,40.077L115.107,40.077L115.185,40.077L115.268,40.077L115.435,40.077L115.517,40.077L115.605,40.077L115.684,40.077L115.766,40.077L115.933,40.077L116.016,40.077L116.102,40.077L116.183,40.077L116.264,40.077L116.431,40.077L116.514,40.077L116.602,40.077L116.682,40.077L116.762,40.077L116.929,40.077L117.013,40.077L117.101,40.077L117.179,40.077L117.261,40.077L117.428,40.077L117.51,40.077L117.599,40.077L117.677,40.077L117.759,40.077L117.926,40.077L118.009,40.077L118.097,40.077L118.176,40.077L118.258,40.077L118.426,40.077L118.508,40.077L118.596,40.077L118.675,40.077L118.756,40.077L118.923,40.077L119.007,40.077L119.095,40.077L119.173,40.077L119.255,40.077L119.422,40.077L119.505,40.077L119.593,40.077L119.672,40.077L119.753,40.077L119.92,40.077L120.004,40.077L120.092,40.077L120.17,40.077L120.252,40.077L120.419,40.077L120.502,40.077L120.59,40.077L120.668,40.077L120.75,40.077L120.917,40.077L121,40.077L121.088,40.077L121.167,40.077L121.249,40.077L121.416,40.077L121.498,40.077L121.587,40.077L121.665,40.077L121.747,40.077L121.914,40.077L121.998,40.077L122.086,40.077L122.164,40.077L122.246,40.077L122.412,40.077L122.496,40.077L122.584,40.077L122.663,40.077L122.744,40.077L122.911,40.077L122.994,40.077L123.083,40.077L123.161,40.077L123.243,40.077L123.41,40.077L123.493,40.077L123.581,40.077L123.659,40.077L123.741,40.077L123.908,40.077L123.991,40.077L124.079,40.077L124.158,40.077L124.239,40.077L124.406,40.077L124.489,40.077L124.577,40.077L124.655,40.077L124.737,40.077L124.904,40.077L124.987,40.077L125.075,40.077L125.154,40.077L125.236,40.077L125.403,40.077L125.487,40.077L125.575,40.077L125.653,40.077L125.734,40.077L125.902,40.077L125.985,40.077L126.074,40.077L126.151,40.077L126.233,40.077L126.401,40.077L126.484,40.077L126.572,40.077L126.65,40.077L126.731,40.077L126.899,40.077L126.982,40.077L127.07,40.077L127.149,40.077L127.23,40.077L127.397,40.077L127.48,40.077L127.568,40.077L127.646,40.077L127.728,40.077L127.895,40.077L127.978,40.077L128.066,40.077L128.145,40.077L128.227,40.077L128.394,40.077L128.477,40.077L128.565,40.077L128.643,40.077L128.725,40.077L128.893,40.077L128.976,40.077L129.065,40.077L129.143,40.077L129.224,40.077L129.389,40.077L129.474,40.077L129.563,40.077L129.641,40.077L129.722,40.077L129.889,40.077L129.972,40.077L130.061,40.077L130.139,40.077L130.221,40.077L130.388,40.077L130.471,40.077L130.56,40.077L130.638,40.077L130.719,40.077L130.886,40.077L130.969,40.077L131.058,40.077L131.136,40.077L131.217,40.077L131.384,40.077L131.467,40.077L131.555,40.077L131.634,40.077L131.715,40.077L131.883,40.077L131.965,40.077L132.054,40.077L132.132,40.077L132.214,40.077L132.381,40.077L132.465,40.077L132.553,40.077L132.631,40.077L132.713,40.077L132.88,40.077L132.964,40.077L133.052,40.077L133.13,40.077L133.211,40.077L133.378,40.077L133.462,40.077L133.551,40.077L133.629,40.077L133.71,40.077L133.877,40.077L133.96,40.077L134.049,40.077L134.127,40.077L134.208,40.077L134.375,40.077L134.459,40.077L134.547,40.077L134.625,40.077L134.873,40.077L134.956,40.077L135.044,40.077L135.123,40.077L135.204,40.077L135.372,40.077L135.455,40.077L135.543,40.077L135.621,40.077L135.703,40.077L135.871,40.077L135.955,40.077L136.043,40.077L136.121,40.077L136.202,40.077L136.369,40.077L136.453,40.077L136.541,40.077L136.619,40.077L136.7,40.077L136.867,40.077L136.951,40.077L137.039,40.077L137.117,40.077L137.199,40.077L137.366,40.077L137.449,50.077L137.538,50.077L137.616,50.077L137.697,50.077L137.864,50.077L137.947,50.077L138.036,50.077L138.114,50.077L138.195,50.077L138.362,50.077L138.445,50.077L138.533,50.077L138.612,50.077L138.693,50.077L138.861,50.077L138.944,50.077L139.032,50.077L139.11,50.077L139.192,50.077L139.359,50.077L139.443,50.077L139.532,50.077L139.61,50.077L139.691,50.077L139.858,50.077L139.942,30.846L140.03,30.846L140.108,30.846L140.189,30.846L140.356,30.846L140.44,30.846L140.528,50.077L140.606,50.077L140.688,50.077L140.854,50.077L140.938,50.077L141.027,50.077L141.104,50.077L141.186,50.077L141.353,50.077L141.436,50.077L141.525,50.077L141.603,50.077L141.685,50.077L141.852,50.077L141.934,50.077L142.022,50.077L142.101,50.077L142.183,50.077L142.35,50.077L142.433,50.077L142.521,50.077L142.599,50.077L142.681,50.077L142.848,50.077L142.932,50.077L143.021,50.077L143.099,50.077L143.18,50.077L143.347,50.077L143.431,50.077L143.519,50.077L143.597,50.077L143.678,50.077L143.845,50.077L143.929,50.077L144.017,50.077L144.095,50.077L144.177,50.077L144.344,50.077L144.427,50.077L144.516,50.077L144.594,50.077L144.675,50.077L144.842,50.077L144.926,50.077L145.014,50.077L145.092,50.077L145.173,50.077L145.34,50.077L145.423,50.077L145.511,50.077L145.59,50.077L145.672,50.077L145.839,50.077L145.922,50.077L146.01,50.077L146.088,50.077L146.17,50.077L146.337,50.077L146.421,50.077L146.51,50.077L146.588,50.077L146.669,50.077L146.836,50.077L146.919,50.077L147.008,50.077L147.086,50.077L147.167,50.077L147.334,50.077L147.418,50.077L147.506,50.077L147.585,50.077L147.666,50.077L147.833,50.077L147.916,50.077L148.005,50.077L148.083,50.077L148.164,50.077L148.331,50.077L148.414,50.077L148.503,50.077L148.581,50.077L148.662,50.077L148.829,50.077L148.912,50.077L149,50.077L149.079,50.077L149.16,50.077L149.328,50.077L149.411,50.077L149.499,50.077L149.577,50.077L149.66,50.077L149.827,50.077L149.91,50.077L149.999,50.077L150.077,50.077L150.158,50.077L150.325,50.077L150.408,50.077L150.497,50.077L150.575,50.077L150.656,50.077L150.823,50.077L150.908,50.077L150.996,50.077L151.074,50.077L151.155,50.077L151.494,50.077L151.572,50.077L151.653,50.077L151.82,50.077L151.903,50.077L151.991,50.077L152.07,50.077L152.151,50.077L152.318,50.077L152.401,50.077L152.489,50.077L152.568,50.077L152.649,50.077L152.816,50.077L152.899,50.077L152.988,50.077L153.066,50.077L153.148,50.077L153.315,50.077L153.399,50.077L153.488,50.077L153.565,50.077L153.646,50.077L153.813,50.077L153.897,50.077L153.985,50.077L154.063,50.077L154.145,50.077L154.312,50.077L154.396,50.077L154.484,50.077L154.562,50.077L154.643,50.077L154.81,50.077L154.894,50.077L154.982,50.077L155.06,50.077L155.142,50.077L155.309,50.077L155.392,50.077L155.48,50.077L155.559,50.077L155.64,50.077L155.807,50.077L155.89,50.077L155.978,50.077L156.057,50.077L156.138,50.077L156.305,50.077L156.388,50.077L156.476,50.077L156.555,50.077L156.636,50.077L156.804,50.077L156.888,50.077L156.976,50.077L157.054,50.077L157.135,50.077L157.302,50.077L157.386,50.077L157.475,50.077L157.553,50.077L157.634,50.077L157.801,50.077L157.885,50.077L157.973,58.538L158.051,58.538L158.132,58.538L158.3,58.538L158.383,58.538L158.472,58.538L158.55,58.538L158.631,58.538L158.799,58.538L158.882,58.538L158.97,58.538L159.048,58.538L159.13,58.538L159.297,58.538L159.379,58.538L159.468,58.538L159.546,58.538L159.628,58.538L159.795,58.538L159.878,58.538L159.966,58.538L160.044,58.538L160.126,58.538L160.294,58.538L160.378,58.538L160.466,58.538L160.544,58.538L160.625,58.538L160.792,58.538L160.876,58.538L160.965,58.538L161.042,58.538L161.123,58.538L161.29,58.538L161.375,58.538L161.463,58.538L161.541,58.538L161.622,58.538L161.789,46.231L161.873,46.231L161.961,58.538L162.039,58.538L162.12,58.538L162.287,58.538L162.371,58.538L162.46,46.231L162.538,46.231L162.619,46.231L162.785,46.231L162.868,46.231L162.957,46.231L163.035,46.231L163.116,46.231L163.284,46.231L163.367,46.231L163.455,46.231L163.534,46.231L163.615,46.231L163.783,46.231L163.867,46.231L163.955,46.231L164.033,46.231L164.114,46.231L164.281,46.231L164.365,46.231L164.454,46.231L164.532,46.231L164.613,46.231L164.78,46.231L164.864,46.231L164.952,58.538L165.03,58.538L165.111,58.538L165.278,58.538L165.362,58.538L165.451,58.538L165.528,58.538L165.609,58.538L165.777,58.538L165.86,58.538L165.949,58.538L166.026,58.538L166.107,58.538L166.274,58.538L166.358,58.538L166.446,58.538L166.524,58.538L166.606,58.538L166.773,58.538L166.856,58.538L166.945,58.538L167.022,58.538L167.104,58.538L167.272,58.538L167.356,58.538L167.445,58.538L167.522,58.538L167.603,58.538L167.77,30.846L167.854,30.846L167.943,58.538L168.021,58.538L168.102,58.538L168.269,58.538L168.353,58.538L168.441,58.538L168.52,58.538L168.6,58.538L168.767,30.846L168.851,30.846L168.94,46.231L169.018,46.231L169.098,46.231L169.266,30.846L169.349,30.846L169.438,46.231L169.515,46.231L169.597,46.231L169.764,46.231L169.847,46.231L169.935,46.231L170.013,46.231L170.095,46.231L170.262,46.231L170.345,46.231L170.434,46.231L170.511,46.231L170.593,46.231L170.761,46.231L170.845,46.231L170.934,46.231L171.011,46.231L171.092,46.231L171.259,46.231L171.343,46.231L171.432,46.231L171.51,46.231L171.59,46.231L171.758,46.231L171.842,46.231L171.931,46.231L172.008,46.231L172.089,46.231L172.256,46.231L172.34,46.231L172.429,46.231L172.507,46.231L172.587,46.231L172.754,46.231L172.838,46.231L172.927,46.231L173.004,46.231L173.086,46.231L173.252,46.231L173.336,46.231L173.424,46.231L173.502,46.231L173.584,46.231L173.751,46.231L173.834,46.231L173.923,46.231L174,46.231L174.082,46.231L174.25,46.231L174.334,46.231L174.423,46.231L174.5,46.231L174.581,46.231L174.748,46.231L174.832,46.231L174.921,46.231L174.999,46.231L175.079,46.231L175.246,46.231L175.33,46.231L175.419,46.231L175.497,46.231L175.578,46.231L175.745,46.231L175.828,46.231L175.917,46.231L175.994,46.231L176.076,46.231L176.243,46.231L176.326,46.231L176.414,46.231L176.492,46.231L176.574,46.231L176.741,46.231L176.824,46.231L176.912,46.231L176.99,46.231L177.072,46.231L177.239,46.231L177.322,46.231L177.41,46.231L177.488,46.231L177.57,46.231L177.738,46.231L177.821,46.231L177.91,46.231L177.987,46.231L178.069,46.231L178.236,46.231L178.32,46.231L178.408,46.231L178.486,46.231L178.567,46.231L178.735,46.231L178.818,46.231L178.906,46.231L178.984,46.231L179.066,46.231L179.233,46.231L179.316,46.231L179.405,46.231L179.483,46.231L179.564,46.231L179.731,46.231L179.815,46.231L179.903,46.231L179.981,46.231L180.063,46.231L180.23,46.231L180.313,46.231L180.401,46.231L180.479,46.231L180.561,46.231L180.728,46.231L180.811,46.231L180.899,46.231L180.977,46.231L181.059,46.231L181.227,46.231L181.31,46.231L181.399,46.231L181.476,46.231L181.558,46.231L181.725,46.231L181.809,46.231L181.897,46.231L181.975,46.231L182.056,46.231L182.224,46.231L182.307,46.231L182.395,46.231L182.473,46.231L182.555,46.231L182.722,46.231L182.805,46.231L182.894,46.231L182.972,46.231L183.053,46.231L183.22,46.231L183.304,46.231L183.392,46.231L183.47,46.231L183.552,46.231L183.719,46.231L183.802,46.231L183.89,46.231L183.968,46.231L184.05,46.231L184.217,46.231L184.3,46.231L184.388,46.231L184.467,46.231L184.548,46.231L184.716,46.231L184.799,46.231L184.888,46.231L184.966,46.231L185.047,46.231L185.214,46.231L185.298,46.231L185.387,46.231L185.468,46.231L185.545,46.231L185.712,46.231L185.796,46.231L185.885,46.231L185.963,46.231L186.044,46.231L186.211,46.231L186.294,46.231L186.383,46.231L186.461,46.231L186.543,46.231L186.709,46.231L186.793,46.231L186.881,46.231L186.96,46.231L187.041,46.231L187.207,46.231L187.291,46.231L187.379,46.231L187.457,46.231L187.539,46.231L187.706,46.231L187.789,46.231L187.877,46.231L187.955,46.231L188.037,46.231L188.205,46.231L188.289,46.231L188.378,46.231L188.455,46.231L188.536,46.231L188.703,46.231L188.786,46.231L188.874,46.231L188.953,46.231L189.034,46.231L189.201,46.231L189.285,46.231L189.373,46.231L189.451,46.231L189.532,46.231L189.7,46.231L189.783,46.231L189.872,46.231L190.031,46.231L190.199,46.231L190.281,46.231L190.37,46.231L190.448,46.231L190.779,34.692L190.867,46.231L190.945,46.231L191.028,46.231L191.195,46.231L191.277,46.231L191.365,46.231L191.444,46.231L191.526,46.231L191.693,46.231L191.777,46.231L191.866,46.231L191.943,46.231L192.025,46.231L192.192,46.231L192.275,46.231L192.364,46.231L192.442,46.231L192.523,46.231L192.69,46.231L192.774,46.231L192.862,46.231L192.94,46.231L193.021,46.231L193.189,46.231L193.272,46.231L193.361,46.231L193.439,46.231L193.52,46.231L193.687,46.231L193.77,46.231L193.859,46.231L193.937,46.231L194.018,46.231L194.186,46.231L194.268,46.231L194.356,46.231L194.435,46.231L194.517,46.231L194.684,46.231L194.766,46.231L194.854,46.231L194.933,46.231L195.015,46.231L195.183,46.231L195.266,46.231L195.354,23.154L195.432,23.154L195.514,23.154L195.681,23.154L195.764,23.154L195.853,30.846L195.931,30.846L196.012,30.846L196.179,30.846L196.263,30.846L196.351,30.846L196.429,30.846L196.511,30.846L196.678,30.846L196.761,30.846L196.849,30.846L196.93,30.846L197.009,30.846L197.176,30.846L197.259,30.846L197.348,30.846L197.426,30.846L197.507,30.846L197.674,30.846L197.757,30.846L197.845,30.846L197.923,30.846L198.006,30.846L198.172,30.846L198.256,30.846L198.343,30.846L198.422,30.846L198.504,30.846L198.672,30.846L198.755,30.846L198.843,30.846L198.921,30.846L199.003,30.846L199.17,30.846L199.253,30.846L199.342,30.846L199.42,30.846L199.501,30.846L199.669,30.846L199.752,30.846L199.84,30.846L199.919,30.846L200,30.846" stroke="#f58518" stroke-width="2"/></g></g><path class="foreground" aria-hidden="true" d="" display="none"/></g></g><g class="mark-group role-legend" role="graphics-symbol" aria-roledescription="legend" aria-label="Symbol legend titled 'identifier' for stroke color with 2 values: altex-LG-F2WR508SBW, altex-LG-F2WR508SBM"><g transform="translate(220,0)"><path class="background" aria-hidden="true" d="M0,0h168v40h-168Z" pointer-events="none"/><g><g class="mark-group role-legend-entry"><g transform="translate(0,16)"><path class="background" aria-hidden="true" d="M0,0h0v0h0Z" pointer-events="none"/><g><g class="mark-group role-scope" role="graphics-object" aria-roledescription="group mark container"><g transform="translate(0,0)"><path class="background" aria-hidden="true" d="M0,0h168v11h-168Z" pointer-events="none" opacity="1"/><g><g class="mark-symbol role-legend-symbol" pointer-events="none"><path transform="translate(6,6)" d="M-5,0L5,0" stroke="#4c78a8" stroke-width="1.5" opacity="1"/></g><g class="mark-text role-legend-label" pointer-events="none"><text text-anchor="start" transform="translate(16,9)" font-family="Liberation Mono" font-size="10px" fill="#000" opacity="1">altex-LG-F2WR508SBW</text></g></g><path class="foreground" aria-hidden="true" d="" pointer-events="none" display="none"/></g><g transform="translate(0,13)"><path class="background" aria-hidden="true" d="M0,0h168v11h-168Z" pointer-events="none" opacity="1"/><g><g class="mark-symbol role-legend-symbol" pointer-events="none"><path transform="translate(6,6)" d="M-5,0L5,0" stroke="#f58518" stroke-width="1.5" opacity="1"/></g><g class="mark-text role-legend-label" pointer-events="none"><text text-anchor="start" transform="translate(16,9)" font-family="Liberation Mono" font-size="10px" fill="#000" opacity="1">altex-LG-F2WR508SBM</text></g></g><path class="foreground" aria-hidden="true" d="" pointer-events="none" display="none"/></g></g></g><path class="foreground" aria-hidden="true" d="" pointer-events="none" display="none"/></g></g><g class="mark-text role-legend-title" pointer-events="none"><text text-anchor="start" transform="translate(0,9)" font-family="Liberation Mono" font-size="11px" font-weight="bold" fill="#000" opacity="1">identifier</text></g></g><path class="foreground" aria-hidden="true" d="" pointer-events="none" display="none"/></g></g></g><path class="foreground" aria-hidden="true" d="" display="none"/></g></g></g></svg>