<svg xmlns="http://www.w3.org/2000/svg" xmlns:xlink="http://www.w3.org/1999/xlink" version="1.1" class="marks" width="460" height="242" viewBox="0 0 460 242"><rect width="460" height="242" fill="white"/><g fill="none" stroke-miterlimit="10" transform="translate(67,5)"><g class="mark-group role-frame root" role="graphics-object" aria-roledescription="group mark container"><g transform="translate(0,0)"><path class="background" aria-hidden="true" d="M0.5,0.5h200v200h-200Z" stroke="#ddd"/><g><g class="mark-group role-axis" aria-hidden="true"><g transform="translate(0.5,200.5)"><path class="background" aria-hidden="true" d="M0,0h0v0h0Z" pointer-events="none"/><g><g class="mark-rule role-axis-grid" pointer-events="none"><line transform="translate(41,-200)" x2="0" y2="200" stroke="#ddd" stroke-width="1" opacity="1"/><line transform="translate(83,-200)" x2="0" y2="200" stroke="#ddd" stroke-width="1" opacity="1"/><line transform="translate(125,-200)" x2="0" y2="200" stroke="#ddd" stroke-width="1" opacity="1"/><line transform="translate(167,-200)" x2="0" y2="200" stroke="#ddd" stroke-width="1" opacity="1"/></g></g><path class="foreground" aria-hidden="true" d="" pointer-events="none" display="none"/></g></g><g class="mark-group role-axis" aria-hidden="true"><g transform="translate(0.5,0.5)"><path class="background" aria-hidden="true" d="M0,0h0v0h0Z" pointer-events="none"/><g><g class="mark-rule role-axis-grid" pointer-events="none"><line transform="translate(0,200)" x2="200" y2="0" stroke="#ddd" stroke-width="1" opacity="1"/><line transform="translate(0,162)" x2="200" y2="0" stroke="#ddd" stroke-width="1" opacity="1"/><line transform="translate(0,123)" x2="200" y2="0" stroke="#ddd" stroke-width="1" opacity="1"/><line transform="translate(0,85)" x2="200" y2="0" stroke="#ddd" stroke-width="1" opacity="1"/><line transform="translate(0,46)" x2="200" y2="0" stroke="#ddd" stroke-width="1" opacity="1"/><line transform="translate(0,8)" x2="200" y2="0" stroke="#ddd" stroke-width="1" opacity="1"/></g></g><path class="foreground" aria-hidden="true" d="" pointer-events="none" display="none"/></g></g><g class="mark-group role-axis" role="graphics-symbol" aria-roledescription="axis" aria-label="X-axis titled 'Time' for a time scale with values from Monday, 01 January 2024, 2:19:43 PM to Saturday, 15 March 2025, 8:42:59 AM"><g transform="translate(0.5,200.5)"><path class="background" aria-hidden="true" d="M0,0h0v0h0Z" pointer-events="none"/><g><g class="mark-rule role-axis-tick" pointer-events="none"><line transform="translate(41,0)" x2="0" y2="5" stroke="#888" stroke-width="1" opacity="1"/><line transform="translate(83,0)" x2="0" y2="5" stroke="#888" stroke-width="1" opacity="1"/><line transform="translate(125,0)" x2="0" y2="5" stroke="#888" stroke-width="1" opacity="1"/><line transform="translate(167,0)" x2="0" y2="5" stroke="#888" stroke-width="1" opacity="1"/></g><g class="mark-text role-axis-label" pointer-events="none"><text text-anchor="middle" transform="translate(41.20781494411075,15)" font-family="Liberation Mono" font-size="10px" fill="#000" opacity="1">April</text><text text-anchor="middle" transform="translate(82.6877688585567,15)" font-family="Liberation Mono" font-size="10px" fill="#000" opacity="0">July</text><text text-anchor="middle" transform="translate(124.62354644239215,15)" font-family="Liberation Mono" font-size="10px" fill="#000" opacity="0">October</text><text text-anchor="middle" transform="translate(166.55932402622759,15)" font-family="Liberation Mono" font-size="10px" fill="#000" opacity="1">2025</text></g><g class="mark-rule role-axis-domain" pointer-events="none"><line transform="translate(0,0)" x2="200" y2="0" stroke="#888" stroke-width="1" opacity="1"/></g><g class="mark-text role-axis-title" pointer-events="none"><text text-anchor="middle" transform="translate(100,30)" font-family="Liberation Mono" font-size="11px" font-weight="bold" fill="#000" opacity="1">Time</text></g></g><path class="foreground" aria-hidden="true" d="" pointer-events="none" display="none"/></g></g><g class="mark-group role-axis" role="graphics-symbol" aria-roledescription="axis" aria-label="Y-axis titled 'Price' for a linear scale with values from 0 to 2,600"><g transform="translate(0.5,0.5)"><path class="background" aria-hidden="true" d="M0,0h0v0h0Z" pointer-events="none"/><g><g class="mark-rule role-axis-tick" pointer-events="none"><line transform="translate(0,200)" x2="-5" y2="0" stroke="#888" stroke-width="1" opacity="1"/><line transform="translate(0,162)" x2="-5" y2="0" stroke="#888" stroke-width="1" opacity="1"/><line transform="translate(0,123)" x2="-5" y2="0" stroke="#888" stroke-width="1" opacity="1"/><line transform="translate(0,85)" x2="-5" y2="0" stroke="#888" stroke-width="1" opacity="1"/><line transform="translate(0,46)" x2="-5" y2="0" stroke="#888" stroke-width="1" opacity="1"/><line transform="translate(0,8)" x2="-5" y2="0" stroke="#888" stroke-width="1" opacity="1"/></g><g class="mark-text role-axis-label" pointer-events="none"><text text-anchor="end" transform="translate(-7,203)" font-family="Liberation Mono" font-size="10px" fill="#000" opacity="1">0</text><text text-anchor="end" transform="translate(-7,164.53846153846155)" font-family="Liberation Mono" font-size="10px" fill="#000" opacity="1">500</text><text text-anchor="end" transform="translate(-7,126.07692307692308)" font-family="Liberation Mono" font-size="10px" fill="#000" opacity="1">1,000</text><text text-anchor="end" transform="translate(-7,87.61538461538463)" font-family="Liberation Mono" font-size="10px" fill="#000" opacity="1">1,500</text><text text-anchor="end" transform="translate(-7,49.153846153846146)" font-family="Liberation Mono" font-size="10px" fill="#000" opacity="1">2,000</text><text text-anchor="end" transform="translate(-7,10.692307692307686)" font-family="Liberation Mono" font-size="10px" fill="#000" opacity="1">2,500</text></g><g class="mark-rule role-axis-domain" pointer-events="none"><line transform="translate(0,200)" x2="0" y2="-200" stroke="#888" stroke-width="1" opacity="1"/></g><g class="mark-text role-axis-title" pointer-events="none"><text text-anchor="middle" transform="translate(-51,100) rotate(-90) translate(0,-2)" font-family="Liberation Mono" font-size="11px" font-weight="bold" fill="#000" opacity="1">Price</text></g></g><path class="foreground" aria-hidden="true" d="" pointer-events="none" display="none"/></g></g><g class="mark-group role-scope pathgroup" role="graphics-object" aria-roledescription="group mark container"><g transform="translate(0,0)"><path class="background" aria-hidden="true" d="M0,0h200v200h-200Z"/><g><g class="mark-line role-mark marks" role="graphics-object" aria-roledescription="line mark container"><path aria-label="Time: Jan 01, 2024; Price: 2399; identifier: altex-LG-F2WR508SBW" role="graphics-symbol" aria-roledescription="line mark" d="M0,15.462L0.048,15.462L0.12,15.462L0.272,15.462L0.348,15.462L0.428,15.462L0.5,15.462L0.576,15.462L0.728,15.462L0.804,15.462L0.884,15.462L0.956,15.462L1.031,15.462L1.184,15.462L1.26,15.462L1.339,15.462L1.413,15.462L1.487,15.462L1.64,34.692L1.715,34.692L1.795,34.692L1.868,34.692L1.943,34.692L2.095,34.692L2.171,34.692L2.251,34.692L2.324,34.692L2.399,34.692L2.551,34.692L2.627,34.692L2.707,34.692L2.78,34.692L2.855,34.692L3.007,34.692L3.083,34.692L3.163,34.692L3.236,34.692L3.311,34.692L3.463,34.692L3.539,34.692L3.62,34.692L3.692,34.692L3.766,34.692L3.919,34.692L3.995,34.692L4.075,34.692L4.147,34.692L4.222,34.692L4.375,34.692L4.451,34.692L4.531,34.692L4.603,34.692L4.678,34.692L4.83,34.692L4.906,34.692L4.986,34.692L5.059,34.692L5.134,34.692L5.286,46.231L5.362,46.231L5.441,46.231L5.514,46.231L5.59,46.231L5.742,46.231L5.818,46.231L5.897,46.231L5.97,46.231L6.046,46.231L6.198,46.231L6.274,46.231L6.354,46.231L6.427,46.231L6.501,46.231L6.654,46.231L6.73,46.231L6.81,46.231L6.883,46.231L6.957,46.231L7.11,46.231L7.186,46.231L7.266,46.231L7.338,46.231L7.413,46.231L7.565,46.231L7.641,46.231L7.721,46.231L7.794,46.231L7.869,46.231L8.021,46.231L8.097,46.231L8.177,46.231L8.25,46.231L8.325,46.231L8.477,46.231L8.553,46.231L8.632,46.231L8.706,46.231L8.781,46.231L8.932,46.231L9.008,46.231L9.088,46.231L9.161,46.231L9.236,46.231L9.389,46.231L9.465,46.231L9.545,46.231L9.617,46.231L9.692,46.231L9.845,46.231L9.921,46.231L10.001,46.231L10.074,46.231L10.148,46.231L10.3,46.231L10.377,46.231L10.457,46.231L10.529,46.231L10.604,46.231L10.756,46.231L10.832,46.231L10.913,46.231L10.985,46.231L11.06,46.231L11.212,46.231L11.288,46.231L11.367,46.231L11.44,46.231L11.516,46.231L11.667,46.231L11.744,46.231L11.822,46.231L11.895,46.231L11.971,46.231L12.123,46.231L12.199,46.231L12.278,46.231L12.351,46.231L12.427,46.231L12.579,46.231L12.655,46.231L12.734,46.231L12.807,46.231L12.883,46.231L13.035,46.231L13.111,46.231L13.19,46.231L13.264,46.231L13.339,46.231L13.491,46.231L13.567,46.231L13.646,46.231L13.719,46.231L13.795,46.231L13.946,34.692L14.023,34.692L14.102,34.692L14.174,34.692L14.25,34.692L14.402,34.692L14.478,34.692L14.557,34.692L14.63,34.692L14.706,34.692L14.858,34.692L14.934,34.692L15.012,34.692L15.086,34.692L15.162,34.692L15.314,34.692L15.39,34.692L15.468,34.692L15.542,34.692L15.618,34.692L15.77,34.692L15.846,34.692L15.925,34.692L15.998,34.692L16.074,34.692L16.226,34.692L16.302,34.692L16.381,34.692L16.454,34.692L16.529,34.692L16.681,34.692L16.757,34.692L16.836,34.692L16.91,34.692L16.985,34.692L17.137,34.692L17.213,34.692L17.292,34.692L17.366,34.692L17.441,34.692L17.593,34.692L17.669,34.692L17.748,34.692L17.821,34.692L17.897,34.692L18.049,34.692L18.125,34.692L18.203,34.692L18.277,34.692L18.353,34.692L18.505,34.692L18.581,34.692L18.659,34.692L18.733,34.692L18.809,34.692L18.961,34.692L19.037,34.692L19.116,34.692L19.189,34.692L19.264,34.692L19.416,34.692L19.492,34.692L19.571,34.692L19.645,34.692L19.72,34.692L19.872,34.692L19.948,34.692L20.027,34.692L20.1,34.692L20.176,34.692L20.404,34.692L20.483,34.692L20.556,34.692L20.632,34.692L20.784,34.692L20.86,34.692L20.939,34.692L21.012,34.692L21.088,34.692L21.24,34.692L21.316,34.692L21.394,34.692L21.468,34.692L21.543,34.692L21.696,34.692L21.772,34.692L21.85,34.692L21.923,34.692L21.999,34.692L22.151,34.692L22.228,34.692L22.307,34.692L22.38,34.692L22.455,34.692L22.607,34.692L22.683,34.692L22.762,34.692L22.835,34.692L22.911,34.692L23.063,34.692L23.139,34.692L23.218,34.692L23.291,34.692L23.367,34.692L23.519,34.692L23.595,34.692L23.674,34.692L23.747,34.692L23.823,34.692L23.975,34.692L24.051,34.692L24.129,34.692L24.203,34.692L24.279,34.692L24.43,34.692L24.506,34.692L24.585,34.692L24.658,34.692L24.734,34.692L24.886,34.692L24.962,34.692L25.041,34.692L25.115,34.692L25.19,34.692L25.342,34.692L25.418,34.692L25.497,34.692L25.57,34.692L25.646,34.692L25.798,34.692L25.874,34.692L25.953,34.692L26.026,34.692L26.102,34.692L26.254,34.692L26.33,34.692L26.409,34.692L26.482,34.692L26.558,34.692L26.71,34.692L26.785,34.692L26.864,34.692L26.937,34.692L27.013,34.692L27.165,34.692L27.242,34.692L27.32,34.692L27.393,34.692L27.469,34.692L27.621,34.692L27.697,34.692L27.776,34.692L27.849,34.692L27.925,34.692L28.077,34.692L28.153,34.692L28.231,34.692L28.305,34.692L28.381,34.692L28.54,34.692L28.644,34.692L28.689,34.692L28.761,34.692L28.837,34.692L28.989,34.692L29.065,34.692L29.144,34.692L29.217,34.692L29.292,34.692L29.444,34.692L29.521,34.692L29.6,34.692L29.673,34.692L29.748,34.692L29.9,34.692L29.976,34.692L30.055,34.692L30.128,34.692L30.204,34.692L30.356,34.692L30.433,34.692L30.511,34.692L30.584,34.692L30.66,34.692L30.812,34.692L30.888,34.692L30.966,34.692L31.04,34.692L31.116,34.692L31.268,34.692L31.344,34.692L31.422,34.692L31.496,34.692L31.572,34.692L31.724,34.692L31.8,34.692L31.879,34.692L31.952,34.692L32.028,34.692L32.18,34.692L32.255,34.692L32.335,34.692L32.408,34.692L32.483,34.692L32.635,34.692L32.712,34.692L32.791,34.692L32.863,34.692L32.939,34.692L33.091,34.692L33.167,34.692L33.246,34.692L33.319,34.692L33.395,34.692L33.547,34.692L33.623,34.692L33.702,34.692L33.775,34.692L33.851,34.692L34.003,34.692L34.079,34.692L34.157,34.692L34.231,34.692L34.307,34.692L34.459,34.692L34.535,34.692L34.613,34.692L34.686,34.692L34.762,34.692L34.914,34.692L34.99,34.692L35.07,34.692L35.143,34.692L35.219,34.692L35.37,34.692L35.446,34.692L35.525,34.692L35.599,34.692L35.674,34.692L35.826,34.692L35.902,34.692L35.981,34.692L36.055,34.692L36.13,34.692L36.282,34.692L36.358,34.692L36.437,34.692L36.511,34.692L36.586,34.692L36.738,34.692L36.814,34.692L36.893,34.692L36.966,34.692L37.042,34.692L37.194,34.692L37.269,34.692L37.348,34.692L37.421,34.692L37.497,34.692L37.649,34.692L37.725,34.692L37.805,34.692L37.877,34.692L37.953,34.692L38.105,34.692L38.181,34.692L38.26,34.692L38.333,34.692L38.409,34.692L38.561,34.692L38.638,34.692L38.716,34.692L38.79,34.692L38.865,34.692L39.017,34.692L39.093,34.692L39.172,34.692L39.246,34.692L39.321,34.692L39.473,34.692L39.549,34.692L39.628,34.692L39.701,34.692L39.776,34.692L39.929,34.692L40.004,34.692L40.084,34.692L40.157,34.692L40.232,34.692L40.384,34.692L40.46,34.692L40.539,34.692L40.612,34.692L40.688,34.692L40.84,34.692L40.916,34.692L40.995,34.692L41.068,34.692L41.144,34.692L41.296,34.692L41.372,34.692L41.452,34.692L41.525,34.692L41.6,34.692L41.752,34.692L41.828,34.692L41.907,34.692L41.98,34.692L42.056,34.692L42.207,34.692L42.284,34.692L42.363,34.692L42.436,34.692L42.511,34.692L42.664,34.692L42.74,34.692L42.819,34.692L42.892,34.692L42.967,34.692L43.12,34.692L43.274,34.692L43.348,34.692L43.423,34.692L43.575,34.692L43.651,34.692L43.729,34.692L43.803,34.692L43.879,34.692L44.031,34.692L44.107,34.692L44.185,34.692L44.259,34.692L44.335,34.692L44.487,34.692L44.563,34.692L44.642,34.692L44.715,34.692L44.791,34.692L44.943,34.692L45.018,34.692L45.098,34.692L45.171,34.692L45.246,34.692L45.398,34.692L45.475,34.692L45.554,34.692L45.627,34.692L45.703,34.692L45.855,34.692L45.931,34.692L46.01,34.692L46.158,34.692L46.31,34.692L46.386,34.692L46.465,34.692L46.538,34.692L46.614,34.692L46.766,34.692L46.842,34.692L46.919,34.692L46.994,34.692L47.07,34.692L47.229,34.692L47.345,34.692L47.417,34.692L47.564,34.692L47.679,34.692L47.753,34.692L47.832,34.692L47.905,34.692L47.981,34.692L48.133,34.692L48.209,34.692L48.289,34.692L48.361,34.692L48.437,34.692L48.589,34.692L48.665,34.692L48.745,34.692L48.818,34.692L48.893,34.692L49.121,34.692L49.2,34.692L49.273,34.692L49.349,34.692L49.501,34.692L49.577,34.692L49.656,34.692L49.729,34.692L49.805,34.692L49.957,34.692L50.033,34.692L50.111,34.692L50.185,34.692L50.26,34.692L50.413,34.692L50.489,34.692L50.567,34.692L50.64,34.692L50.716,34.692L50.868,34.692L50.945,34.692L51.024,34.692L51.097,34.692L51.172,34.692L51.324,34.692L51.4,34.692L51.48,34.692L51.553,34.692L51.628,34.692L51.78,34.692L51.856,34.692L51.938,34.692L52.008,34.692L52.084,34.692L52.236,34.692L52.312,34.692L52.389,34.692L52.464,34.692L52.54,34.692L52.692,34.692L52.768,34.692L52.847,34.692L52.92,34.692L52.996,34.692L53.147,34.692L53.223,34.692L53.302,34.692L53.375,34.692L53.451,34.692L53.603,34.692L53.679,34.692L53.758,34.692L53.831,34.692L53.907,34.692L54.059,34.692L54.136,34.692L54.215,34.692L54.287,34.692L54.363,34.692L54.515,34.692L54.591,34.692L54.671,34.692L54.743,34.692L54.819,34.692L54.971,34.692L55.048,34.692L55.127,34.692L55.199,34.692L55.274,34.692L55.427,57.769L55.503,57.769L55.583,57.769L55.655,57.769L55.731,57.769L55.883,57.769L55.958,57.769L56.038,57.769L56.111,57.769L56.186,57.769L56.338,57.769L56.414,57.769L56.493,57.769L56.566,57.769L56.642,57.769L56.794,57.769L56.87,57.769L56.949,57.769L57.022,57.769L57.098,57.769L57.25,57.769L57.326,57.769L57.406,57.769L57.479,57.769L57.554,57.769L57.706,57.769L57.782,57.769L57.861,57.769L57.934,57.769L58.01,57.769L58.161,57.769L58.238,57.769L58.318,57.769L58.391,57.769L58.465,57.769L58.618,34.692L58.694,34.692L58.773,34.692L58.847,34.692L58.921,34.692L59.073,34.692L59.149,34.692L59.229,34.692L59.302,34.692L59.377,34.692L59.529,34.692L59.605,34.692L59.684,34.692L59.757,34.692L59.833,34.692L59.985,34.692L60.061,34.692L60.14,34.692L60.213,34.692L60.289,34.692L60.441,34.692L60.517,34.692L60.597,34.692L60.669,34.692L60.745,34.692L60.896,34.692L60.973,34.692L61.053,34.692L61.125,34.692L61.2,34.692L61.352,34.692L61.429,34.692L61.509,34.692L61.581,34.692L61.656,34.692L61.808,34.692L61.884,34.692L61.964,34.692L62.037,34.692L62.112,34.692L62.264,34.692L62.34,34.692L62.42,34.692L62.493,34.692L62.568,34.692L62.72,34.692L62.796,34.692L62.875,34.692L62.948,34.692L63.023,34.692L63.176,34.692L63.252,34.692L63.331,34.692L63.404,34.692L63.48,34.692L63.632,34.692L63.708,34.692L63.788,34.692L63.86,34.692L63.935,34.692L64.087,34.692L64.163,34.692L64.244,34.692L64.316,34.692L64.391,34.692L64.543,34.692L64.62,34.692L64.699,34.692L64.772,34.692L64.847,34.692L64.999,34.692L65.075,34.692L65.155,34.692L65.228,34.692L65.303,34.692L65.455,34.692L65.531,34.692L65.611,34.692L65.683,34.692L65.759,34.692L65.911,34.692L65.987,34.692L66.066,34.692L66.139,34.692L66.214,34.692L66.367,34.692L66.442,34.692L66.522,34.692L66.594,34.692L66.671,34.692L66.822,34.692L66.899,34.692L66.979,34.692L67.051,34.692L67.126,34.692L67.279,34.692L67.355,34.692L67.434,34.692L67.507,34.692L67.582,34.692L67.735,34.692L67.81,34.692L67.89,34.692L67.963,34.692L68.038,34.692L68.191,34.692L68.266,34.692L68.346,34.692L68.418,34.692L68.493,34.692L68.646,34.692L68.722,34.692L68.802,34.692L68.874,34.692L68.949,34.692L69.101,34.692L69.177,34.692L69.257,34.692L69.33,34.692L69.405,34.692L69.557,34.692L69.633,34.692L69.713,34.692L69.785,34.692L69.861,34.692L70.013,34.692L70.089,34.692L70.17,34.692L70.242,34.692L70.317,34.692L70.469,34.692L70.545,34.692L70.625,34.692L70.698,34.692L70.773,34.692L70.925,34.692L71.001,34.692L71.081,34.692L71.153,34.692L71.228,34.692L71.381,34.692L71.457,34.692L71.537,34.692L71.609,34.692L71.684,34.692L71.837,34.692L71.913,34.692L71.993,34.692L72.066,34.692L72.14,34.692L72.292,34.692L72.368,34.692L72.448,34.692L72.521,34.692L72.596,34.692L72.748,34.692L72.824,34.692L72.904,34.692L72.976,34.692L73.052,34.692L73.204,34.692L73.28,34.692L73.361,34.692L73.433,34.692L73.507,34.692L73.66,34.692L73.736,34.692L73.816,34.692L73.889,34.692L73.964,34.692L74.116,34.692L74.192,46.231L74.272,46.231L74.344,46.231L74.419,46.231L74.572,46.231L74.648,46.231L74.728,46.231L74.801,46.231L74.875,46.231L75.027,46.231L75.103,46.231L75.184,48.538L75.256,48.538L75.331,48.538L75.484,48.538L75.56,48.538L75.639,48.538L75.711,48.538L75.787,48.538L75.939,48.538L76.015,48.538L76.095,48.538L76.167,48.538L76.242,48.538L76.395,48.538L76.471,48.538L76.551,48.538L76.623,48.538L76.698,48.538L76.85,48.538L76.927,48.538L77.007,48.538L77.079,48.538L77.154,48.538L77.306,48.538L77.383,48.538L77.463,48.538L77.535,48.538L77.61,48.538L77.762,48.538L77.838,48.538L77.918,48.538L77.992,48.538L78.066,48.538L78.218,48.538L78.294,48.538L78.374,48.538L78.446,48.538L78.522,48.538L78.674,48.538L78.75,48.538L78.83,48.538L78.902,48.538L78.977,48.538L79.13,48.538L79.205,48.538L79.285,48.538L79.358,48.538L79.433,48.538L79.586,48.538L79.662,48.538L79.742,48.538L79.814,48.538L79.889,48.538L80.041,48.538L80.118,48.538L80.198,48.538L80.345,48.538L80.498,48.538L80.574,48.538L80.654,48.538L80.726,48.538L80.801,48.538L80.954,48.538L81.03,48.538L81.11,48.538L81.182,48.538L81.257,48.538L81.409,48.538L81.485,48.538L81.565,48.538L81.637,48.538L81.713,48.538L81.865,48.538L81.941,48.538L82.02,48.538L82.093,48.538L82.168,48.538L82.32,48.538L82.396,48.538L82.476,48.538L82.549,48.538L82.624,48.538L82.776,48.538L82.853,48.538L82.933,48.538L83.005,48.538L83.08,48.538L83.232,48.538L83.308,48.538L83.388,48.538L83.461,48.538L83.536,48.538L83.688,48.538L83.764,48.538L83.844,48.538L83.917,48.538L83.991,48.538L84.144,48.538L84.22,48.538L84.3,48.538L84.372,48.538L84.448,48.538L84.6,48.538L84.676,48.538L84.756,48.538L84.828,48.538L84.903,48.538L85.056,48.538L85.131,48.538L85.211,48.538L85.284,48.538L85.359,48.538L85.511,48.538L85.587,48.538L85.667,48.538L85.739,48.538L85.815,48.538L85.967,48.538L86.044,48.538L86.123,48.538L86.196,48.538L86.271,48.538L86.423,48.538L86.499,48.538L86.58,48.538L86.652,48.538L86.727,48.538L86.879,48.538L86.955,48.538L87.035,48.538L87.107,48.538L87.182,48.538L87.335,48.538L87.411,48.538L87.491,48.538L87.563,48.538L87.638,48.538L87.79,48.538L87.867,48.538L87.947,48.538L88.019,48.538L88.094,48.538L88.246,48.538L88.322,48.538L88.402,48.538L88.474,48.538L88.55,48.538L88.703,48.538L88.779,48.538L88.863,48.538L88.934,48.538L89.005,48.538L89.158,48.538L89.234,48.538L89.315,48.538L89.387,48.538L89.461,48.538L89.614,48.538L89.69,48.538L89.769,48.538L89.843,48.538L89.917,48.538L90.069,48.538L90.146,48.538L90.226,48.538L90.299,48.538L90.373,48.538L90.526,48.538L90.602,48.538L90.682,48.538L90.754,48.538L90.829,48.538L90.982,48.538L91.057,48.538L91.138,48.538L91.21,48.538L91.285,48.538L91.437,48.538L91.513,48.538L91.593,48.538L91.665,48.538L91.741,48.538L91.893,48.538L91.969,48.538L92.049,48.538L92.122,48.538L92.196,48.538L92.349,48.538L92.426,48.538L92.506,48.538L92.578,48.538L92.652,48.538L92.804,48.538L92.881,48.538L92.961,48.538L93.033,48.538L93.108,48.538L93.26,27L93.337,27L93.417,27L93.489,27L93.564,27L93.717,27L93.793,27L93.873,27L93.945,27L94.02,27L94.173,27L94.248,27L94.328,27L94.401,27L94.475,27L94.628,27L94.704,27L94.784,27L94.856,27L94.932,27L95.083,27L95.159,27L95.239,27L95.312,27L95.387,27L95.54,27L95.616,27L95.696,27L95.768,27L95.843,27L95.995,27L96.071,27L96.152,27L96.224,27L96.299,27L96.451,27L96.527,27L96.608,27L96.68,27L96.755,27L96.907,27L96.983,27L97.064,27L97.136,27L97.211,27L97.363,27L97.439,27L97.519,27L97.592,27L97.666,27L97.819,27L97.895,27L97.974,27L98.047,27L98.122,27L98.275,27L98.35,27L98.43,27L98.502,27L98.578,27L98.73,27L98.807,27L98.887,27L98.959,27L99.034,27L99.187,27L99.263,27L99.343,27L99.415,27L99.49,27L99.642,27L99.718,27L99.799,27L99.871,27L99.946,27L100.098,27L100.174,27L100.255,27L100.327,27L100.401,27L100.554,27L100.63,27L100.71,27L100.782,27L100.857,27L101.01,27L101.085,27L101.166,27L101.239,27L101.313,27L101.465,27L101.541,27L101.621,27L101.694,27L101.769,27L101.921,27L101.998,27L102.079,27L102.15,27L102.225,27L102.377,27L102.453,27L102.534,27L102.606,27L102.68,27L102.833,27L102.909,27L102.99,27L103.062,27L103.136,27L103.289,27L103.365,27L103.445,27L103.517,27L103.592,27L103.744,27L103.821,27L103.901,27L103.973,27L104.048,27L104.2,27L104.276,27L104.356,27L104.429,27L104.504,27L104.656,27L104.732,27L104.812,27L104.884,27L104.959,27L105.112,27L105.188,27L105.269,27L105.34,27L105.416,27L105.569,27L105.644,27L105.725,27L105.796,27L105.871,27L106.024,27L106.1,27L106.179,27L106.252,27L106.327,27L106.479,27L106.556,27L106.636,27L106.709,27L106.783,27L106.935,27L107.012,27L107.092,27L107.164,27L107.238,27L107.391,27L107.467,27L107.547,27L107.619,27L107.694,27L107.847,27L107.923,27L108.003,27L108.075,27L108.151,27L108.304,27L108.379,27L108.46,27L108.532,27L108.606,27L108.759,27L108.835,27L108.916,27L108.987,27L109.062,27L109.215,27L109.291,27L109.372,27L109.444,27L109.518,27L109.671,27L109.747,27L109.828,27L109.899,27L109.974,27L110.127,27L110.203,27L110.283,27L110.355,27L110.43,27L110.582,27L110.658,27L110.738,27L110.811,27L110.885,27L111.038,27L111.114,27L111.195,27L111.266,27L111.341,27L111.494,27L111.57,27L111.651,27L111.723,27L111.797,27L111.95,27L112.026,27L112.107,27L112.179,27L112.253,27L112.406,27L112.482,27L112.563,27L112.634,27L112.709,27L112.862,27L112.938,27L113.019,27L113.09,27L113.165,27L113.317,27L113.393,27L113.474,27L113.547,27L113.62,27L113.773,27L113.849,27L113.929,27L114.001,27L114.076,27L114.229,27L114.305,27L114.385,27L114.457,27L114.532,27L114.685,27L114.762,27L114.842,27L114.913,27L114.988,27L115.141,27L115.217,27L115.298,27L115.369,27L115.444,27L115.597,27L115.673,27L115.754,27L115.825,27L115.899,27L116.053,27L116.129,27L116.209,27L116.281,27L116.355,27L116.508,27L116.584,27L116.665,27L116.736,27L116.811,27L116.964,46.231L117.04,46.231L117.12,46.231L117.192,46.231L117.267,46.231L117.42,46.231L117.496,46.231L117.576,46.231L117.648,46.231L117.723,46.231L117.876,46.231L117.952,46.231L118.033,46.231L118.105,46.231L118.179,46.231L118.33,46.231L118.408,46.231L118.489,46.231L118.56,46.231L118.634,46.231L118.787,46.231L118.864,46.231L118.944,46.231L119.016,46.231L119.091,46.231L119.243,53.923L119.32,53.923L119.4,53.923L119.472,53.923L119.546,53.923L119.699,53.923L119.775,53.923L119.856,53.923L119.928,53.923L120.002,53.923L120.155,53.923L120.23,53.923L120.311,53.923L120.383,53.923L120.457,53.923L120.611,53.923L120.686,53.923L120.767,53.923L120.839,53.923L120.913,53.923L121.066,53.923L121.143,53.923L121.224,53.923L121.295,53.923L121.37,53.923L121.522,53.923L121.599,53.923L121.68,53.923L121.751,53.923L121.826,53.923L121.978,53.923L122.055,53.923L122.136,53.923L122.208,53.923L122.281,53.923L122.434,23.154L122.511,23.154L122.592,23.154L122.663,23.154L122.737,23.154L122.89,23.154L122.966,23.154L123.047,23.154L123.119,23.154L123.345,23.154L123.421,23.154L123.502,23.154L123.574,23.154L123.648,23.154L123.801,23.154L123.877,23.154L123.958,23.154L124.03,23.154L124.104,23.154L124.258,23.154L124.335,23.154L124.415,23.154L124.487,23.154L124.561,23.154L124.714,23.154L124.79,23.154L124.871,23.154L124.942,23.154L125.016,23.154L125.169,23.154L125.246,23.154L125.327,23.154L125.398,23.154L125.473,23.154L125.625,23.154L125.701,23.154L125.782,23.154L125.854,23.154L125.928,23.154L126.081,23.154L126.157,23.154L126.238,23.154L126.309,23.154L126.384,23.154L126.536,23.154L126.612,23.154L126.693,23.154L126.765,23.154L126.839,23.154L126.992,23.154L127.068,23.154L127.149,23.154L127.22,23.154L127.295,23.154L127.448,23.154L127.525,23.154L127.606,23.154L127.677,23.154L127.752,23.154L127.904,23.154L127.981,23.154L128.061,23.154L128.133,23.154L128.207,23.154L128.36,23.154L128.436,23.154L128.517,23.154L128.588,23.154L128.663,23.154L128.816,23.154L128.892,23.154L128.973,23.154L129.044,23.154L129.119,23.154L129.272,23.154L129.348,23.154L129.429,23.154L129.5,23.154L129.575,23.154L129.727,23.154L129.803,23.154L129.883,23.154L129.956,23.154L130.03,23.154L130.183,23.154L130.259,23.154L130.34,23.154L130.411,23.154L130.486,23.154L130.639,23.154L130.716,23.154L130.797,23.154L130.868,23.154L130.942,23.154L131.095,23.154L131.171,23.154L131.252,23.154L131.324,23.154L131.398,23.154L131.551,23.154L131.627,23.154L131.708,23.154L131.779,23.154L131.854,23.154L132.007,23.154L132.083,23.154L132.164,23.154L132.236,23.154L132.31,23.154L132.463,23.154L132.539,23.154L132.62,23.154L132.691,23.154L132.765,23.154L132.918,23.154L132.994,23.154L133.075,23.154L133.146,23.154L133.221,23.154L133.374,23.154L133.45,23.154L133.531,23.154L133.602,23.154L133.677,23.154L133.83,23.154L133.906,23.154L133.987,23.154L134.059,23.154L134.133,23.154L134.286,23.154L134.362,23.154L134.443,23.154L134.515,23.154L134.589,23.154L134.741,23.154L134.818,23.154L134.899,23.154L134.971,23.154L135.045,23.154L135.197,23.154L135.274,23.154L135.355,23.154L135.426,23.154L135.5,23.154L135.653,23.154L135.729,23.154L135.81,23.154L135.882,23.154L135.956,23.154L136.109,23.154L136.185,23.154L136.265,23.154L136.337,23.154L136.412,23.154L136.565,23.154L136.641,23.154L136.721,23.154L136.793,23.154L136.868,23.154L137.021,23.154L137.097,23.154L137.178,23.154L137.25,23.154L137.324,23.154L137.476,23.154L137.553,23.154L137.634,23.154L137.705,23.154L137.779,23.154L137.932,23.154L138.009,23.154L138.09,23.154L138.162,23.154L138.235,23.154L138.545,23.154L138.617,23.154L138.691,23.154L138.844,23.154L138.92,23.154L139.001,23.154L139.072,23.154L139.147,23.154L139.3,23.154L139.375,23.154L139.456,23.154L139.528,23.154L139.602,23.154L139.755,23.154L139.831,23.154L139.912,23.154L139.983,23.154L140.058,23.154L140.211,23.154L140.288,23.154L140.369,23.154L140.44,23.154L140.514,23.154L140.667,23.154L140.743,23.154L140.824,23.154L140.895,23.154L140.97,23.154L141.123,23.154L141.199,23.154L141.28,23.154L141.351,23.154L141.426,23.154L141.579,58.538L141.655,58.538L141.735,58.538L141.807,58.538L141.881,58.538L142.034,58.538L142.11,58.538L142.191,58.538L142.263,58.538L142.337,58.538L142.49,58.538L142.566,58.538L142.646,58.538L142.718,58.538L142.793,58.538L142.946,58.538L143.022,58.538L143.102,58.538L143.174,58.538L143.249,58.538L143.402,58.538L143.479,58.538L143.559,58.538L143.631,58.538L143.705,58.538L143.858,58.538L143.934,58.538L144.015,58.538L144.087,58.538L144.161,58.538L144.313,58.538L144.39,58.538L144.471,58.538L144.542,58.538L144.617,58.538L144.77,23.154L144.846,23.154L144.927,23.154L144.998,23.154L145.073,23.154L145.226,23.154L145.302,23.154L145.383,23.154L145.454,23.154L145.529,23.154L145.682,23.154L145.757,23.154L145.838,23.154L145.91,23.154L145.984,23.154L146.137,23.154L146.213,23.154L146.294,23.154L146.365,23.154L146.44,23.154L146.594,23.154L146.67,23.154L146.751,23.154L146.823,23.154L146.896,23.154L147.049,23.154L147.126,23.154L147.207,23.154L147.278,23.154L147.352,23.154L147.505,23.154L147.582,23.154L147.663,23.154L147.734,23.154L147.808,23.154L147.961,23.154L148.037,23.154L148.118,23.154L148.19,23.154L148.264,23.154L148.416,23.154L148.493,23.154L148.574,23.154L148.645,23.154L148.72,23.154L148.872,23.154L148.948,23.154L149.029,23.154L149.101,23.154L149.175,23.154L149.328,23.154L149.404,23.154L149.485,23.154L149.556,23.154L149.631,23.154L149.784,23.154L149.861,23.154L149.942,23.154L150.013,23.154L150.087,23.154L150.24,23.154L150.317,23.154L150.398,23.154L150.469,23.154L150.543,23.154L150.696,23.154L150.773,23.154L150.854,23.154L150.925,23.154L150.999,23.154L151.152,23.154L151.228,23.154L151.31,23.154L151.38,23.154L151.454,23.154L151.608,23.154L151.684,23.154L151.765,23.154L151.836,23.154L151.91,23.154L152.063,23.154L152.139,23.154L152.22,23.154L152.291,23.154L152.366,23.154L152.519,23.154L152.595,23.154L152.676,23.154L152.747,23.154L152.822,23.154L152.975,23.154L153.052,23.154L153.133,23.154L153.204,23.154L153.278,23.154L153.431,23.154L153.507,23.154L153.589,23.154L153.66,23.154L153.734,23.154L153.887,23.154L153.964,23.154L154.045,23.154L154.116,23.154L154.19,23.154L154.342,23.154L154.419,23.154L154.501,23.154L154.571,23.154L154.646,23.154L154.798,23.154L154.875,23.154L154.956,23.154L155.027,23.154L155.101,23.154L155.254,23.154L155.33,23.154L155.411,23.154L155.482,23.154L155.557,23.154L155.71,23.154L155.786,23.154L155.867,23.154L155.938,23.154L156.013,23.154L156.166,23.154L156.243,23.154L156.324,23.154L156.395,23.154L156.469,23.154L156.622,23.154L156.698,23.154L156.78,23.154L156.851,23.154L156.925,23.154L157.078,23.154L157.154,23.154L157.236,23.154L157.307,23.154L157.38,23.154L157.534,23.154L157.61,23.154L157.691,23.154L157.762,23.154L157.836,23.154L157.989,23.154L158.066,23.154L158.147,23.154L158.218,23.154L158.292,23.154L158.444,23.154L158.521,23.154L158.601,23.154L158.673,23.154L158.747,23.154L158.9,23.154L158.976,23.154L159.057,23.154L159.128,23.154L159.203,23.154L159.357,23.154L159.433,23.154L159.515,23.154L159.586,23.154L159.66,23.154L159.812,23.154L159.889,23.154L159.97,23.154L160.042,23.154L160.115,23.154L160.268,23.154L160.345,23.154L160.425,23.154L160.497,23.154L160.571,23.154L160.724,23.154L160.8,23.154L160.882,23.154L160.952,23.154L161.026,23.154L161.179,23.154L161.255,23.154L161.336,23.154L161.407,23.154L161.482,23.154L161.634,23.154L161.711,23.154L161.791,23.154L161.863,23.154L161.937,23.154L162.09,23.154L162.166,23.154L162.247,23.154L162.318,23.154L162.393,23.154L162.547,23.154L162.623,23.154L162.704,23.154L162.775,23.154L162.849,23.154L163.002,23.154L163.079,23.154L163.159,23.154L163.23,23.154L163.305,23.154L163.458,23.154L163.534,23.154L163.615,23.154L163.686,23.154L163.761,23.154L163.914,23.154L163.99,23.154L164.071,23.154L164.142,23.154L164.217,23.154L164.37,23.154L164.446,23.154L164.527,23.154L164.598,23.154L164.672,23.154L164.825,23.154L164.901,23.154L164.982,23.154L165.053,23.154L165.128,23.154L165.281,23.154L165.357,23.154L165.437,23.154L165.509,23.154L165.584,23.154L165.737,23.154L165.814,23.154L165.894,23.154L165.966,23.154L166.04,23.154L166.193,23.154L166.269,23.154L166.35,23.154L166.421,23.154L166.496,23.154L166.649,23.154L166.725,23.154L166.806,23.154L166.877,23.154L166.952,23.154L167.105,23.154L167.181,23.154L167.262,23.154L167.333,23.154L167.408,23.154L167.56,23.154L167.637,23.154L167.718,23.154L167.789,23.154L167.863,23.154L168.016,23.154L168.092,23.154L168.173,23.154L168.244,23.154L168.319,23.154L168.472,23.154L168.548,23.154L168.629,23.154L168.7,23.154L168.775,23.154L168.928,23.154L169.004,23.154L169.086,23.154L169.157,23.154L169.231,23.154L169.384,23.154L169.46,23.154L169.541,23.154L169.616,23.154L169.687,23.154L169.84,23.154L169.916,23.154L169.997,23.154L170.068,23.154L170.143,23.154L170.295,23.154L170.372,23.154L170.453,23.154L170.524,23.154L170.599,23.154L170.751,23.154L170.828,23.154L170.909,23.154L170.98,23.154L171.054,23.154L171.207,23.154L171.283,23.154L171.363,23.154L171.435,23.154L171.51,23.154L171.663,23.154L171.738,23.154L171.819,23.154L171.891,23.154L171.966,23.154L172.119,23.154L172.196,23.154L172.277,23.154L172.348,23.154L172.422,23.154L172.574,23.154L172.651,23.154L172.731,23.154L172.803,23.154L172.877,23.154L173.03,23.154L173.107,23.154L173.187,23.154L173.258,23.154L173.333,23.154L173.486,23.154L173.562,23.154L173.643,23.154L173.789,23.154L173.942,23.154L174.018,23.154L174.099,23.154L174.17,23.154L174.473,23.154L174.553,23.154L174.625,23.154L174.701,23.154L174.853,23.154L174.929,23.154L175.009,23.154L175.081,23.154L175.156,23.154L175.309,23.154L175.386,23.154L175.467,23.154L175.538,23.154L175.612,23.154L175.765,23.154L175.841,23.154L175.922,23.154L175.994,23.154L176.068,23.154L176.221,23.154L176.297,23.154L176.378,23.154L176.45,23.154L176.524,23.154L176.677,23.154L176.753,23.154L176.834,23.154L176.906,23.154L176.98,23.154L177.133,23.154L177.209,23.154L177.29,23.154L177.361,23.154L177.435,23.154L177.588,23.154L177.664,23.154L177.744,23.154L177.817,23.154L177.891,23.154L178.044,23.154L178.12,23.154L178.2,23.154L178.272,23.154L178.347,23.154L178.5,23.154L178.577,23.154L178.657,23.154L178.729,23.154L178.803,23.154L178.956,23.154L179.032,23.154L179.113,23.154L179.184,23.154L179.259,23.154L179.412,23.154L179.488,23.154L179.569,23.154L179.64,23.154L179.715,23.154L179.868,23.154L179.943,23.154L180.025,23.154L180.098,23.154L180.171,23.154L180.323,23.154L180.399,23.154L180.48,23.154L180.552,23.154L180.626,23.154L180.779,23.154L180.855,23.154L180.935,23.154L181.007,23.154L181.082,23.154L181.234,23.154L181.311,23.154L181.391,23.154L181.463,23.154L181.538,23.154L181.691,23.154L181.767,23.154L181.848,23.154L181.919,23.154L181.994,23.154L182.146,23.154L182.223,23.154L182.304,23.154L182.376,23.154L182.45,23.154L182.603,23.154L182.679,23.154L182.76,23.154L182.832,23.154L182.906,23.154L183.059,23.154L183.135,23.154L183.216,23.154L183.287,23.154L183.362,23.154L183.514,23.154L183.59,23.154L183.671,23.154L183.743,23.154L183.817,23.154L183.97,23.154L184.046,23.154L184.126,23.154L184.198,23.154L184.273,23.154L184.425,23.154L184.501,23.154L184.582,23.154L184.653,23.154L184.729,23.154L184.882,23.154L184.958,23.154L185.039,23.154L185.11,23.154L185.185,23.154L185.337,23.154L185.414,23.154L185.495,23.154L185.567,23.154L185.641,23.154L185.794,23.154L185.87,23.154L185.951,23.154L186.022,23.154L186.097,23.154L186.326,40.846L186.407,40.846L186.478,40.846L186.554,40.846L186.705,40.846L186.781,40.846L186.862,40.846L186.933,40.846L187.008,40.846L187.161,40.846L187.236,40.846L187.317,40.846L187.389,40.846L187.463,40.846L187.616,40.846L187.692,40.846L187.773,40.846L187.844,40.846L187.919,40.846L188.073,40.846L188.149,40.846L188.23,40.846L188.301,40.846L188.375,40.846L188.528,40.846L188.605,40.846L188.685,40.846L188.757,40.846L188.832,40.846L188.985,40.846L189.061,40.846L189.141,40.846L189.213,40.846L189.287,40.846L189.44,23.154L189.517,23.154L189.598,23.154L189.669,23.154L189.743,23.154L189.897,23.154L189.972,23.154L190.053,23.154L190.124,23.154L190.199,23.154L190.352,23.154L190.427,23.154L190.508,23.154L190.579,23.154L190.655,23.154L190.808,23.154L190.883,23.154L190.964,23.154L191.035,23.154L191.11,23.154L191.263,23.154L191.34,23.154L191.421,23.154L191.493,23.154L191.567,23.154L191.719,23.154L191.796,23.154L191.877,23.154L191.948,23.154L192.022,23.154L192.176,23.154L192.252,23.154L192.333,30.846L192.404,30.846L192.478,30.846L192.631,30.846L192.707,30.846L192.789,46.231L192.86,46.231L192.934,46.231L193.087,46.231L193.163,46.231L193.244,46.231L193.315,46.231L193.39,46.231L193.542,46.231L193.619,46.231L193.699,46.231L193.77,46.231L193.845,46.231L193.998,46.231L194.074,46.231L194.154,46.231L194.226,46.231L194.301,46.231L194.455,46.231L194.531,46.231L194.612,46.231L194.683,46.231L194.758,46.231L194.91,46.231L194.987,46.231L195.068,46.231L195.139,46.231L195.213,46.231L195.366,46.231L195.443,46.231L195.524,46.231L195.596,46.231L195.669,46.231L195.822,46.231L195.898,46.231L195.98,46.231L196.051,46.231L196.125,46.231L196.278,46.231L196.354,46.231L196.435,46.231L196.506,46.231L196.58,46.231L196.732,46.231L196.808,46.231L196.887,46.231L196.96,46.231L197.036,46.231L197.188,46.231L197.264,46.231L197.343,46.231L197.416,46.231L197.491,46.231L197.644,46.231L197.72,46.231L197.803,46.231L197.874,46.231L197.948,46.231L198.101,46.231L198.178,46.231L198.259,46.231L198.33,46.231L198.404,46.231L198.557,46.231L198.634,46.231L198.715,46.231L198.786,46.231L198.86,46.231L199.013,30.846L199.09,30.846L199.171,30.846L199.242,30.846L199.316,30.846L199.468,30.846L199.545,30.846L199.626,30.846L199.697,30.846L199.772,30.846L199.924,30.846L200,30.846" stroke="#4c78a8" stroke-width="2"/></g></g><path class="foreground" aria-hidden="true" d="" display="none"/></g><g transform="translate(0,0)"><path class="background" aria-hidden="true" d="M0,0h200v200h-200Z"/><g><g class="mark-line role-mark marks" role="graphics-object" aria-roledescription="line mark container"><path aria-label="Time: Jan 01, 2024; Price: 2499; identifier: altex-LG-F2WR508SBM" role="graphics-symbol" aria-roledescription="line mark" d="M0,7.769L0.048,7.769L0.12,7.769L0.272,7.769L0.348,7.769L0.428,7.769L0.5,7.769L0.576,7.769L0.728,7.769L0.804,7.769L0.884,7.769L0.956,7.769L1.031,7.769L1.184,7.769L1.26,7.769L1.339,7.769L1.413,7.769L1.487,7.769L1.64,27L1.715,27L1.795,27L1.868,27L1.943,27L2.095,27L2.171,27L2.251,27L2.324,27L2.399,27L2.551,27L2.627,27L2.707,27L2.78,27L2.855,27L3.007,27L3.083,27L3.163,27L3.236,27L3.311,27L3.463,27L3.539,27L3.62,27L3.692,27L3.766,27L3.919,27L3.995,27L4.075,27L4.147,27L4.222,27L4.375,27L4.451,27L4.531,27L4.603,27L4.678,27L4.83,27L4.906,27L4.986,27L5.059,27L5.134,27L5.286,38.538L5.362,38.538L5.441,38.538L5.514,38.538L5.59,38.538L5.742,38.538L5.818,38.538L5.897,38.538L5.97,38.538L6.046,38.538L6.198,38.538L6.274,38.538L6.354,38.538L6.427,38.538L6.501,38.538L6.654,38.538L6.73,38.538L6.81,38.538L6.883,38.538L6.957,38.538L7.11,38.538L7.186,38.538L7.266,38.538L7.338,38.538L7.413,38.538L7.565,38.538L7.641,38.538L7.721,38.538L7.794,38.538L7.869,38.538L8.021,38.538L8.097,38.538L8.177,38.538L8.25,38.538L8.325,38.538L8.477,38.538L8.553,38.538L8.632,38.538L8.706,38.538L8.781,38.538L8.933,38.538L9.008,38.538L9.088,38.538L9.161,38.538L9.236,38.538L9.389,38.538L9.465,38.538L9.545,38.538L9.617,38.538L9.692,38.538L9.845,38.538L9.921,38.538L10.001,38.538L10.074,38.538L10.148,38.538L10.3,38.538L10.377,38.538L10.457,38.538L10.529,38.538L10.604,38.538L10.756,38.538L10.832,38.538L10.913,38.538L10.985,38.538L11.06,38.538L11.212,38.538L11.288,38.538L11.367,38.538L11.44,38.538L11.516,38.538L11.667,38.538L11.744,38.538L11.822,38.538L11.895,38.538L11.971,38.538L12.123,38.538L12.199,38.538L12.278,38.538L12.351,38.538L12.427,38.538L12.579,38.538L12.655,38.538L12.734,38.538L12.807,38.538L12.883,38.538L13.035,38.538L13.111,38.538L13.19,38.538L13.264,38.538L13.339,38.538L13.491,38.538L13.567,38.538L13.646,38.538L13.719,38.538L13.795,38.538L13.946,27L14.023,27L14.102,27L14.174,27L14.25,27L14.402,27L14.478,27L14.557,27L14.63,27L14.706,27L14.858,27L14.934,27L15.012,27L15.086,27L15.162,27L15.314,27L15.39,27L15.468,27L15.542,27L15.618,27L15.77,27L15.846,27L15.925,27L15.998,27L16.074,27L16.226,27L16.302,27L16.381,27L16.454,27L16.53,27L16.681,27L16.758,27L16.836,27L16.91,27L16.985,27L17.137,27L17.213,27L17.292,27L17.366,27L17.441,27L17.593,27L17.669,27L17.748,27L17.821,27L17.897,27L18.049,27L18.125,27L18.203,27L18.277,27L18.353,27L18.505,27L18.581,27L18.659,27L18.733,27L18.809,27L18.961,27L19.037,27L19.116,27L19.189,27L19.264,27L19.416,27L19.492,27L19.571,27L19.645,27L19.72,27L19.872,27L19.948,27L20.027,27L20.1,27L20.176,27L20.404,27L20.483,27L20.556,27L20.632,27L20.784,27L20.86,27L20.939,27L21.012,27L21.088,27L21.24,27L21.316,27L21.394,27L21.468,27L21.544,27L21.696,27L21.772,27L21.85,27L21.924,27L21.999,27L22.151,27L22.228,27L22.307,27L22.38,27L22.455,27L22.607,27L22.683,27L22.762,27L22.835,27L22.911,27L23.063,27L23.139,27L23.218,27L23.291,27L23.367,27L23.519,27L23.595,27L23.674,27L23.747,27L23.823,27L23.975,27L24.051,27L24.129,27L24.203,27L24.279,27L24.43,27L24.506,27L24.585,27L24.658,27L24.734,27L24.886,27L24.962,27L25.041,27L25.115,27L25.19,27L25.342,27L25.418,27L25.497,27L25.57,27L25.646,27L25.798,27L25.874,27L25.953,27L26.026,27L26.102,27L26.254,27L26.33,27L26.409,27L26.482,27L26.558,27L26.71,27L26.785,27L26.864,27L26.937,27L27.013,27L27.165,27L27.242,27L27.32,27L27.393,27L27.469,27L27.621,27L27.697,27L27.776,27L27.849,27L27.925,27L28.077,27L28.153,27L28.231,27L28.305,27L28.381,27L28.54,27L28.644,27L28.689,27L28.761,27L28.837,27L28.989,27L29.065,27L29.144,27L29.217,27L29.293,27L29.444,27L29.521,27L29.6,27L29.673,27L29.748,27L29.9,27L29.976,27L30.055,38.538L30.128,38.538L30.204,38.538L30.356,38.538L30.433,38.538L30.511,38.538L30.584,38.538L30.66,38.538L30.812,38.538L30.888,38.538L30.966,38.538L31.04,38.538L31.116,38.538L31.268,38.538L31.344,38.538L31.422,38.538L31.496,38.538L31.572,38.538L31.724,38.538L31.8,38.538L31.879,38.538L31.952,38.538L32.028,38.538L32.18,38.538L32.255,38.538L32.335,38.538L32.408,38.538L32.483,38.538L32.635,38.538L32.712,38.538L32.791,38.538L32.863,38.538L32.939,38.538L33.091,38.538L33.167,38.538L33.246,38.538L33.319,38.538L33.395,38.538L33.547,38.538L33.623,38.538L33.702,38.538L33.775,38.538L33.851,38.538L34.003,38.538L34.079,38.538L34.157,38.538L34.231,38.538L34.307,38.538L34.459,38.538L34.535,38.538L34.613,38.538L34.686,38.538L34.763,38.538L34.914,38.538L34.99,38.538L35.07,38.538L35.143,38.538L35.219,38.538L35.37,38.538L35.446,38.538L35.525,38.538L35.599,38.538L35.674,38.538L35.826,38.538L35.902,38.538L35.981,38.538L36.055,38.538L36.13,38.538L36.282,38.538L36.358,38.538L36.437,38.538L36.511,38.538L36.586,38.538L36.738,38.538L36.814,38.538L36.893,38.538L36.966,38.538L37.042,38.538L37.194,38.538L37.269,38.538L37.348,38.538L37.421,38.538L37.497,38.538L37.649,38.538L37.725,38.538L37.805,38.538L37.877,38.538L37.953,38.538L38.105,38.538L38.181,38.538L38.26,38.538L38.333,38.538L38.409,38.538L38.561,38.538L38.638,38.538L38.716,38.538L38.79,38.538L38.865,38.538L39.017,38.538L39.093,38.538L39.172,38.538L39.246,38.538L39.321,38.538L39.473,38.538L39.549,38.538L39.628,38.538L39.701,38.538L39.776,38.538L39.929,38.538L40.004,38.538L40.084,38.538L40.157,38.538L40.232,38.538L40.384,38.538L40.46,38.538L40.539,38.538L40.612,38.538L40.688,38.538L40.84,38.538L40.917,38.538L40.995,38.538L41.068,38.538L41.144,38.538L41.296,38.538L41.372,38.538L41.452,38.538L41.525,38.538L41.6,38.538L41.752,38.538L41.828,38.538L41.907,38.538L41.98,38.538L42.056,38.538L42.208,38.538L42.284,38.538L42.363,38.538L42.436,38.538L42.511,38.538L42.664,38.538L42.74,38.538L42.819,38.538L42.892,38.538L42.967,38.538L43.12,38.538L43.274,38.538L43.348,38.538L43.423,38.538L43.575,38.538L43.651,38.538L43.729,38.538L43.803,38.538L43.879,38.538L44.031,38.538L44.107,38.538L44.185,38.538L44.259,38.538L44.335,38.538L44.487,38.538L44.563,38.538L44.642,38.538L44.715,38.538L44.791,38.538L44.943,38.538L45.018,38.538L45.098,38.538L45.171,38.538L45.246,38.538L45.398,38.538L45.475,38.538L45.554,38.538L45.627,38.538L45.703,38.538L45.855,38.538L45.931,38.538L46.01,38.538L46.158,38.538L46.31,38.538L46.386,38.538L46.465,38.538L46.538,38.538L46.614,38.538L46.766,38.538L46.842,38.538L46.919,38.538L46.994,38.538L47.07,38.538L47.229,38.538L47.345,38.538L47.417,38.538L47.564,38.538L47.679,38.538L47.753,38.538L47.832,38.538L47.905,38.538L47.981,38.538L48.133,38.538L48.209,38.538L48.289,38.538L48.361,38.538L48.437,38.538L48.589,38.538L48.665,38.538L48.745,38.538L48.818,38.538L48.893,38.538L49.121,38.538L49.2,38.538L49.273,38.538L49.349,38.538L49.501,38.538L49.577,38.538L49.656,38.538L49.729,38.538L49.805,38.538L49.957,38.538L50.033,38.538L50.111,38.538L50.185,38.538L50.26,38.538L50.413,38.538L50.489,38.538L50.567,38.538L50.64,38.538L50.716,38.538L50.868,38.538L50.945,38.538L51.024,38.538L51.097,38.538L51.172,38.538L51.324,38.538L51.4,38.538L51.48,38.538L51.553,38.538L51.628,38.538L51.78,38.538L51.856,38.538L51.938,38.538L52.008,38.538L52.084,38.538L52.236,38.538L52.312,38.538L52.389,38.538L52.464,38.538L52.54,38.538L52.692,38.538L52.768,38.538L52.847,38.538L52.92,38.538L52.996,38.538L53.147,38.538L53.223,38.538L53.302,38.538L53.375,38.538L53.451,38.538L53.603,38.538L53.679,38.538L53.758,38.538L53.831,38.538L53.907,38.538L54.059,38.538L54.136,38.538L54.215,38.538L54.287,38.538L54.363,38.538L54.515,38.538L54.591,38.538L54.671,38.538L54.743,38.538L54.819,38.538L54.971,38.538L55.048,38.538L55.127,38.538L55.199,38.538L55.274,38.538L55.427,38.538L55.503,38.538L55.583,38.538L55.655,38.538L55.731,38.538L55.883,38.538L55.958,38.538L56.038,38.538L56.111,38.538L56.186,38.538L56.338,38.538L56.414,38.538L56.493,38.538L56.566,38.538L56.642,38.538L56.794,38.538L56.87,38.538L56.949,38.538L57.022,38.538L57.098,38.538L57.25,38.538L57.326,38.538L57.406,38.538L57.479,38.538L57.554,38.538L57.706,38.538L57.782,38.538L57.861,30.846L57.934,30.846L58.01,30.846L58.161,30.846L58.238,30.846L58.318,30.846L58.391,30.846L58.465,30.846L58.618,30.846L58.694,30.846L58.773,30.846L58.847,30.846L58.921,30.846L59.073,30.846L59.149,30.846L59.229,30.846L59.302,30.846L59.377,30.846L59.529,30.846L59.605,30.846L59.684,30.846L59.757,30.846L59.833,30.846L59.985,30.846L60.061,30.846L60.14,30.846L60.213,30.846L60.289,30.846L60.441,30.846L60.517,30.846L60.597,30.846L60.669,30.846L60.745,30.846L60.896,30.846L60.973,30.846L61.053,30.846L61.125,30.846L61.2,30.846L61.352,30.846L61.429,30.846L61.509,30.846L61.581,30.846L61.656,30.846L61.808,30.846L61.884,30.846L61.964,30.846L62.037,30.846L62.112,30.846L62.264,30.846L62.34,30.846L62.42,30.846L62.493,30.846L62.568,30.846L62.72,30.846L62.796,30.846L62.875,30.846L62.948,30.846L63.023,30.846L63.176,30.846L63.252,30.846L63.331,30.846L63.404,30.846L63.48,30.846L63.632,30.846L63.708,30.846L63.788,30.846L63.86,30.846L63.935,30.846L64.087,30.846L64.164,30.846L64.244,30.846L64.316,30.846L64.391,30.846L64.543,30.846L64.62,30.846L64.7,38.538L64.772,38.538L64.847,38.538L64.999,38.538L65.075,38.538L65.155,38.538L65.228,38.538L65.303,38.538L65.455,38.538L65.531,38.538L65.611,38.538L65.683,38.538L65.759,38.538L65.911,38.538L65.987,38.538L66.066,38.538L66.139,38.538L66.214,38.538L66.367,38.538L66.442,38.538L66.522,38.538L66.594,38.538L66.671,38.538L66.822,38.538L66.899,38.538L66.979,38.538L67.051,38.538L67.126,38.538L67.279,38.538L67.355,38.538L67.434,38.538L67.507,38.538L67.582,38.538L67.735,38.538L67.81,38.538L67.89,38.538L67.963,38.538L68.038,38.538L68.191,38.538L68.266,38.538L68.346,38.538L68.418,38.538L68.493,38.538L68.646,30.846L68.722,30.846L68.802,30.846L68.874,30.846L68.949,30.846L69.101,30.846L69.177,30.846L69.257,30.846L69.33,30.846L69.405,30.846L69.557,30.846L69.633,30.846L69.713,30.846L69.785,30.846L69.861,30.846L70.013,30.846L70.09,30.846L70.17,30.846L70.242,30.846L70.317,30.846L70.469,30.846L70.545,30.846L70.625,30.846L70.698,30.846L70.773,30.846L70.925,30.846L71.001,30.846L71.081,30.846L71.153,30.846L71.228,30.846L71.381,30.846L71.457,30.846L71.537,30.846L71.609,30.846L71.684,30.846L71.837,30.846L71.913,30.846L71.993,30.846L72.066,30.846L72.14,30.846L72.292,30.846L72.368,30.846L72.448,30.846L72.521,30.846L72.596,30.846L72.748,30.846L72.824,30.846L72.904,30.846L72.976,30.846L73.052,30.846L73.205,30.846L73.281,30.846L73.361,30.846L73.433,30.846L73.507,30.846L73.66,30.846L73.736,30.846L73.816,30.846L73.889,30.846L73.964,30.846L74.116,30.846L74.192,34.692L74.272,34.692L74.344,34.692L74.419,34.692L74.572,34.692L74.648,34.692L74.728,34.692L74.801,34.692L74.875,34.692L75.027,34.692L75.103,34.692L75.184,40.077L75.256,40.077L75.331,40.077L75.484,40.077L75.56,40.077L75.639,40.077L75.711,40.077L75.787,40.077L75.939,40.077L76.015,40.077L76.095,40.077L76.167,40.077L76.243,40.077L76.395,40.077L76.471,40.077L76.552,40.077L76.623,40.077L76.698,40.077L76.851,40.077L76.927,40.077L77.007,40.077L77.079,40.077L77.154,40.077L77.306,40.077L77.383,40.077L77.463,40.077L77.535,40.077L77.61,40.077L77.762,40.077L77.838,40.077L77.918,40.077L77.992,40.077L78.066,40.077L78.218,40.077L78.294,40.077L78.374,40.077L78.446,40.077L78.522,40.077L78.674,40.077L78.75,40.077L78.83,40.077L78.902,40.077L78.977,40.077L79.13,40.077L79.205,40.077L79.285,40.077L79.358,40.077L79.433,40.077L79.586,40.077L79.662,40.077L79.742,40.077L79.814,40.077L79.889,40.077L80.041,40.077L80.118,40.077L80.198,40.077L80.345,40.077L80.498,40.077L80.574,40.077L80.654,40.077L80.726,40.077L80.801,40.077L80.954,40.077L81.03,40.077L81.11,40.077L81.182,40.077L81.257,40.077L81.409,40.077L81.485,40.077L81.565,40.077L81.637,40.077L81.713,40.077L81.865,40.077L81.941,40.077L82.02,40.077L82.093,40.077L82.168,40.077L82.32,40.077L82.396,40.077L82.476,40.077L82.549,40.077L82.624,40.077L82.776,40.077L82.853,40.077L82.933,40.077L83.005,40.077L83.08,40.077L83.232,40.077L83.308,40.077L83.388,40.077L83.461,40.077L83.536,40.077L83.688,40.077L83.764,40.077L83.844,40.077L83.917,40.077L83.991,40.077L84.144,40.077L84.22,40.077L84.3,40.077L84.372,40.077L84.448,40.077L84.6,40.077L84.676,40.077L84.756,40.077L84.828,40.077L84.903,40.077L85.056,40.077L85.131,40.077L85.211,40.077L85.284,40.077L85.359,40.077L85.511,40.077L85.587,40.077L85.667,40.077L85.739,40.077L85.815,40.077L85.967,40.077L86.044,40.077L86.123,40.077L86.196,40.077L86.271,40.077L86.423,40.077L86.499,40.077L86.58,40.077L86.652,40.077L86.727,40.077L86.879,40.077L86.955,40.077L87.036,40.077L87.107,40.077L87.182,40.077L87.335,40.077L87.411,40.077L87.491,40.077L87.563,40.077L87.638,40.077L87.79,40.077L87.867,40.077L87.947,40.077L88.019,40.077L88.094,40.077L88.246,40.077L88.322,40.077L88.402,40.077L88.474,40.077L88.55,40.077L88.703,40.077L88.779,40.077L88.863,40.077L88.934,40.077L89.005,40.077L89.158,40.077L89.234,40.077L89.315,40.077L89.387,40.077L89.461,40.077L89.614,40.077L89.69,40.077L89.769,40.077L89.843,40.077L89.917,40.077L90.069,40.077L90.146,40.077L90.226,40.077L90.299,40.077L90.373,40.077L90.526,40.077L90.602,40.077L90.682,40.077L90.754,40.077L90.829,40.077L90.982,40.077L91.057,40.077L91.138,40.077L91.21,40.077L91.285,40.077L91.437,40.077L91.513,40.077L91.593,40.077L91.665,40.077L91.741,40.077L91.893,40.077L91.969,40.077L92.049,40.077L92.122,40.077L92.196,40.077L92.349,40.077L92.426,40.077L92.506,40.077L92.578,40.077L92.652,40.077L92.804,40.077L92.881,40.077L92.961,40.077L93.033,40.077L93.108,40.077L93.26,40.077L93.337,40.077L93.417,40.077L93.489,40.077L93.564,40.077L93.717,40.077L93.793,40.077L93.873,40.077L93.945,40.077L94.02,40.077L94.173,40.077L94.248,40.077L94.328,40.077L94.401,40.077L94.475,40.077L94.628,40.077L94.704,40.077L94.784,40.077L94.856,40.077L94.932,40.077L95.083,40.077L95.159,40.077L95.239,40.077L95.312,40.077L95.387,40.077L95.54,40.077L95.616,40.077L95.696,40.077L95.768,40.077L95.843,40.077L95.995,40.077L96.071,40.077L96.152,40.077L96.224,40.077L96.299,40.077L96.451,40.077L96.527,40.077L96.608,40.077L96.68,40.077L96.755,40.077L96.907,40.077L96.983,40.077L97.064,40.077L97.136,40.077L97.211,40.077L97.363,40.077L97.439,40.077L97.519,40.077L97.592,40.077L97.666,40.077L97.819,40.077L97.895,40.077L97.974,40.077L98.047,40.077L98.122,40.077L98.275,40.077L98.35,40.077L98.43,40.077L98.502,40.077L98.578,40.077L98.73,40.077L98.807,40.077L98.887,40.077L98.959,40.077L99.034,40.077L99.187,40.077L99.263,40.077L99.343,40.077L99.415,40.077L99.49,40.077L99.642,40.077L99.718,40.077L99.799,40.077L99.871,40.077L99.946,40.077L100.098,40.077L100.174,40.077L100.255,40.077L100.327,40.077L100.401,40.077L100.554,40.077L100.63,40.077L100.71,40.077L100.782,40.077L100.857,40.077L101.01,40.077L101.085,40.077L101.166,40.077L101.239,40.077L101.313,40.077L101.465,40.077L101.541,40.077L101.621,40.077L101.694,40.077L101.769,40.077L101.921,40.077L101.998,40.077L102.079,40.077L102.15,40.077L102.225,40.077L102.377,40.077L102.453,40.077L102.534,40.077L102.606,40.077L102.68,40.077L102.833,40.077L102.909,40.077L102.99,40.077L103.062,40.077L103.136,40.077L103.289,40.077L103.365,40.077L103.445,40.077L103.517,40.077L103.592,40.077L103.745,40.077L103.821,40.077L103.901,40.077L103.973,40.077L104.048,40.077L104.2,40.077L104.276,40.077L104.356,40.077L104.429,40.077L104.504,40.077L104.656,40.077L104.732,40.077L104.812,40.077L104.884,40.077L104.959,40.077L105.112,40.077L105.188,40.077L105.269,40.077L105.34,40.077L105.416,40.077L105.569,40.077L105.644,40.077L105.725,40.077L105.796,40.077L105.871,40.077L106.024,40.077L106.1,40.077L106.179,40.077L106.253,40.077L106.327,40.077L106.479,40.077L106.556,40.077L106.636,40.077L106.709,40.077L106.783,40.077L106.935,40.077L107.012,40.077L107.092,40.077L107.164,40.077L107.238,40.077L107.391,40.077L107.467,40.077L107.547,40.077L107.619,40.077L107.694,40.077L107.847,40.077L107.923,40.077L108.003,40.077L108.075,40.077L108.151,40.077L108.304,40.077L108.379,40.077L108.46,40.077L108.532,40.077L108.606,40.077L108.759,40.077L108.835,40.077L108.916,40.077L108.987,40.077L109.062,40.077L109.215,40.077L109.291,40.077L109.372,40.077L109.444,40.077L109.518,40.077L109.671,40.077L109.747,40.077L109.828,40.077L109.899,40.077L109.974,40.077L110.127,40.077L110.203,40.077L110.283,40.077L110.355,40.077L110.43,40.077L110.582,40.077L110.658,40.077L110.738,40.077L110.811,40.077L110.885,40.077L111.038,40.077L111.114,40.077L111.195,40.077L111.266,40.077L111.341,40.077L111.494,40.077L111.57,40.077L111.651,40.077L111.723,40.077L111.797,40.077L111.95,40.077L112.026,40.077L112.107,40.077L112.179,40.077L112.253,40.077L112.406,40.077L112.482,40.077L112.563,40.077L112.634,40.077L112.709,40.077L112.862,40.077L112.938,40.077L113.019,40.077L113.09,40.077L113.165,40.077L113.317,40.077L113.393,40.077L113.474,40.077L113.547,40.077L113.62,40.077L113.773,40.077L113.849,40.077L113.929,40.077L114.001,40.077L114.076,40.077L114.229,40.077L114.305,40.077L114.385,40.077L114.457,40.077L114.532,40.077L114.685,40.077L114.762,40.077L114.842,40.077L114.913,40.077L114.988,40.077L115.141,40.077L115.217,40.077L115.298,40.077L115.369,40.077L115.444,40.077L115.597,40.077L115.673,40.077L115.754,40.077L115.825,40.077L115.899,40.077L116.053,40.077L116.129,40.077L116.209,40.077L116.281,40.077L116.355,40.077L116.508,40.077L116.584,40.077L116.665,40.077L116.736,40.077L116.811,40.077L116.964,40.077L117.04,40.077L117.12,40.077L117.192,40.077L117.267,40.077L117.42,40.077L117.496,40.077L117.576,40.077L117.648,40.077L117.723,40.077L117.876,40.077L117.952,40.077L118.033,40.077L118.105,40.077L118.179,40.077L118.33,40.077L118.408,40.077L118.489,40.077L118.56,40.077L118.634,40.077L118.787,40.077L118.864,40.077L118.944,40.077L119.016,40.077L119.091,40.077L119.243,40.077L119.32,40.077L119.401,40.077L119.472,40.077L119.546,40.077L119.699,40.077L119.775,40.077L119.856,40.077L119.928,40.077L120.002,40.077L120.155,40.077L120.23,40.077L120.311,40.077L120.383,40.077L120.457,40.077L120.611,40.077L120.686,40.077L120.767,40.077L120.839,40.077L120.913,40.077L121.066,40.077L121.143,40.077L121.224,40.077L121.295,40.077L121.37,40.077L121.522,40.077L121.599,40.077L121.68,40.077L121.751,40.077L121.826,40.077L121.978,40.077L122.055,40.077L122.136,40.077L122.208,40.077L122.281,40.077L122.434,40.077L122.511,40.077L122.592,40.077L122.663,40.077L122.737,40.077L122.89,40.077L122.966,40.077L123.047,40.077L123.119,40.077L123.346,40.077L123.422,40.077L123.502,40.077L123.574,40.077L123.648,40.077L123.801,40.077L123.877,40.077L123.958,40.077L124.03,40.077L124.104,40.077L124.258,40.077L124.335,40.077L124.415,40.077L124.487,40.077L124.561,40.077L124.714,40.077L124.79,40.077L124.871,40.077L124.942,40.077L125.016,40.077L125.169,40.077L125.246,40.077L125.327,40.077L125.398,40.077L125.473,40.077L125.625,40.077L125.701,50.077L125.782,50.077L125.854,50.077L125.928,50.077L126.081,50.077L126.157,50.077L126.238,50.077L126.309,50.077L126.384,50.077L126.536,50.077L126.612,50.077L126.693,50.077L126.765,50.077L126.839,50.077L126.992,50.077L127.068,50.077L127.149,50.077L127.22,50.077L127.295,50.077L127.448,50.077L127.525,50.077L127.606,50.077L127.677,50.077L127.752,50.077L127.904,50.077L127.981,30.846L128.061,30.846L128.133,30.846L128.207,30.846L128.36,30.846L128.436,30.846L128.517,50.077L128.588,50.077L128.663,50.077L128.816,50.077L128.892,50.077L128.973,50.077L129.044,50.077L129.119,50.077L129.272,50.077L129.348,50.077L129.429,50.077L129.5,50.077L129.575,50.077L129.727,50.077L129.803,50.077L129.883,50.077L129.956,50.077L130.03,50.077L130.183,50.077L130.259,50.077L130.34,50.077L130.411,50.077L130.486,50.077L130.639,50.077L130.716,50.077L130.797,50.077L130.868,50.077L130.942,50.077L131.095,50.077L131.171,50.077L131.252,50.077L131.324,50.077L131.398,50.077L131.551,50.077L131.627,50.077L131.708,50.077L131.779,50.077L131.854,50.077L132.007,50.077L132.083,50.077L132.164,50.077L132.236,50.077L132.31,50.077L132.463,50.077L132.539,50.077L132.62,50.077L132.691,50.077L132.765,50.077L132.918,50.077L132.994,50.077L133.075,50.077L133.146,50.077L133.221,50.077L133.374,50.077L133.45,50.077L133.531,50.077L133.602,50.077L133.677,50.077L133.83,50.077L133.906,50.077L133.987,50.077L134.059,50.077L134.133,50.077L134.286,50.077L134.362,50.077L134.443,50.077L134.515,50.077L134.589,50.077L134.741,50.077L134.818,50.077L134.899,50.077L134.971,50.077L135.045,50.077L135.197,50.077L135.274,50.077L135.355,50.077L135.426,50.077L135.5,50.077L135.653,50.077L135.729,50.077L135.81,50.077L135.882,50.077L135.956,50.077L136.109,50.077L136.185,50.077L136.265,50.077L136.337,50.077L136.412,50.077L136.565,50.077L136.641,50.077L136.721,50.077L136.793,50.077L136.868,50.077L137.021,50.077L137.097,50.077L137.178,50.077L137.25,50.077L137.324,50.077L137.476,50.077L137.553,50.077L137.634,50.077L137.705,50.077L137.779,50.077L137.932,50.077L138.009,50.077L138.09,50.077L138.162,50.077L138.235,50.077L138.545,50.077L138.617,50.077L138.691,50.077L138.844,50.077L138.92,50.077L139.001,50.077L139.072,50.077L139.147,50.077L139.3,50.077L139.375,50.077L139.456,50.077L139.528,50.077L139.602,50.077L139.755,50.077L139.831,50.077L139.912,50.077L139.983,50.077L140.058,50.077L140.211,50.077L140.288,50.077L140.369,50.077L140.44,50.077L140.514,50.077L140.667,50.077L140.743,50.077L140.824,50.077L140.895,50.077L140.97,50.077L141.123,50.077L141.199,50.077L141.28,50.077L141.351,50.077L141.426,50.077L141.579,50.077L141.655,50.077L141.735,50.077L141.807,50.077L141.881,50.077L142.034,50.077L142.11,50.077L142.191,50.077L142.263,50.077L142.337,50.077L142.49,50.077L142.566,50.077L142.646,50.077L142.718,50.077L142.793,50.077L142.946,50.077L143.022,50.077L143.102,50.077L143.174,50.077L143.249,50.077L143.402,50.077L143.479,50.077L143.559,50.077L143.631,50.077L143.705,50.077L143.858,50.077L143.934,50.077L144.015,50.077L144.087,50.077L144.161,50.077L144.313,50.077L144.39,50.077L144.471,58.538L144.542,58.538L144.617,58.538L144.77,58.538L144.846,58.538L144.927,58.538L144.999,58.538L145.073,58.538L145.226,58.538L145.302,58.538L145.383,58.538L145.454,58.538L145.529,58.538L145.682,58.538L145.757,58.538L145.838,58.538L145.91,58.538L145.984,58.538L146.137,58.538L146.213,58.538L146.294,58.538L146.365,58.538L146.44,58.538L146.594,58.538L146.67,58.538L146.751,58.538L146.823,58.538L146.896,58.538L147.049,58.538L147.126,58.538L147.207,58.538L147.278,58.538L147.352,58.538L147.505,58.538L147.582,58.538L147.663,58.538L147.734,58.538L147.808,58.538L147.961,46.231L148.037,46.231L148.118,58.538L148.19,58.538L148.264,58.538L148.416,58.538L148.493,58.538L148.574,46.231L148.646,46.231L148.72,46.231L148.872,46.231L148.948,46.231L149.029,46.231L149.101,46.231L149.175,46.231L149.328,46.231L149.404,46.231L149.485,46.231L149.556,46.231L149.631,46.231L149.784,46.231L149.861,46.231L149.942,46.231L150.013,46.231L150.087,46.231L150.24,46.231L150.317,46.231L150.398,46.231L150.469,46.231L150.543,46.231L150.696,46.231L150.773,46.231L150.854,58.538L150.925,58.538L150.999,58.538L151.152,58.538L151.228,58.538L151.31,58.538L151.38,58.538L151.454,58.538L151.608,58.538L151.684,58.538L151.765,58.538L151.836,58.538L151.91,58.538L152.063,58.538L152.139,58.538L152.22,58.538L152.291,58.538L152.366,58.538L152.519,58.538L152.595,58.538L152.676,58.538L152.747,58.538L152.822,58.538L152.975,58.538L153.052,58.538L153.133,58.538L153.204,58.538L153.278,58.538L153.431,30.846L153.507,30.846L153.589,58.538L153.66,58.538L153.734,58.538L153.887,58.538L153.964,58.538L154.045,58.538L154.116,58.538L154.19,58.538L154.343,30.846L154.419,30.846L154.501,46.231L154.571,46.231L154.646,46.231L154.798,30.846L154.875,30.846L154.956,46.231L155.027,46.231L155.101,46.231L155.254,46.231L155.33,46.231L155.411,46.231L155.482,46.231L155.557,46.231L155.71,46.231L155.786,46.231L155.867,46.231L155.938,46.231L156.013,46.231L156.166,46.231L156.243,46.231L156.324,46.231L156.395,46.231L156.469,46.231L156.622,46.231L156.698,46.231L156.78,46.231L156.851,46.231L156.925,46.231L157.078,46.231L157.154,46.231L157.236,46.231L157.307,46.231L157.38,46.231L157.534,46.231L157.61,46.231L157.691,46.231L157.762,46.231L157.836,46.231L157.989,46.231L158.066,46.231L158.147,46.231L158.218,46.231L158.292,46.231L158.444,46.231L158.521,46.231L158.601,46.231L158.673,46.231L158.747,46.231L158.9,46.231L158.976,46.231L159.057,46.231L159.128,46.231L159.203,46.231L159.357,46.231L159.433,46.231L159.515,46.231L159.586,46.231L159.66,46.231L159.812,46.231L159.889,46.231L159.97,46.231L160.042,46.231L160.115,46.231L160.268,46.231L160.345,46.231L160.425,46.231L160.497,46.231L160.571,46.231L160.724,46.231L160.8,46.231L160.882,46.231L160.952,46.231L161.026,46.231L161.179,46.231L161.255,46.231L161.336,46.231L161.407,46.231L161.482,46.231L161.634,46.231L161.711,46.231L161.791,46.231L161.863,46.231L161.937,46.231L162.09,46.231L162.166,46.231L162.247,46.231L162.318,46.231L162.393,46.231L162.547,46.231L162.623,46.231L162.704,46.231L162.775,46.231L162.849,46.231L163.002,46.231L163.079,46.231L163.159,46.231L163.23,46.231L163.305,46.231L163.458,46.231L163.534,46.231L163.615,46.231L163.686,46.231L163.761,46.231L163.914,46.231L163.99,46.231L164.071,46.231L164.142,46.231L164.217,46.231L164.37,46.231L164.446,46.231L164.527,46.231L164.598,46.231L164.673,46.231L164.825,46.231L164.901,46.231L164.982,46.231L165.053,46.231L165.128,46.231L165.281,46.231L165.357,46.231L165.437,46.231L165.509,46.231L165.584,46.231L165.737,46.231L165.814,46.231L165.894,46.231L165.966,46.231L166.04,46.231L166.193,46.231L166.269,46.231L166.35,46.231L166.421,46.231L166.496,46.231L166.649,46.231L166.725,46.231L166.806,46.231L166.877,46.231L166.952,46.231L167.105,46.231L167.181,46.231L167.262,46.231L167.333,46.231L167.408,46.231L167.56,46.231L167.637,46.231L167.718,46.231L167.789,46.231L167.863,46.231L168.016,46.231L168.092,46.231L168.173,46.231L168.244,46.231L168.319,46.231L168.472,46.231L168.548,46.231L168.629,46.231L168.7,46.231L168.775,46.231L168.928,46.231L169.004,46.231L169.086,46.231L169.157,46.231L169.231,46.231L169.384,46.231L169.46,46.231L169.541,46.231L169.616,46.231L169.687,46.231L169.84,46.231L169.916,46.231L169.997,46.231L170.068,46.231L170.143,46.231L170.295,46.231L170.372,46.231L170.453,46.231L170.524,46.231L170.599,46.231L170.751,46.231L170.828,46.231L170.909,46.231L170.98,46.231L171.054,46.231L171.207,46.231L171.283,46.231L171.364,46.231L171.435,46.231L171.51,46.231L171.663,46.231L171.738,46.231L171.819,46.231L171.891,46.231L171.966,46.231L172.119,46.231L172.196,46.231L172.277,46.231L172.348,46.231L172.422,46.231L172.574,46.231L172.651,46.231L172.731,46.231L172.803,46.231L172.877,46.231L173.03,46.231L173.107,46.231L173.187,46.231L173.258,46.231L173.333,46.231L173.486,46.231L173.562,46.231L173.643,46.231L173.789,46.231L173.942,46.231L174.018,46.231L174.099,46.231L174.17,46.231L174.473,34.692L174.553,46.231L174.625,46.231L174.701,46.231L174.853,46.231L174.929,46.231L175.009,46.231L175.081,46.231L175.156,46.231L175.309,46.231L175.386,46.231L175.467,46.231L175.538,46.231L175.612,46.231L175.765,46.231L175.841,46.231L175.922,46.231L175.994,46.231L176.068,46.231L176.221,46.231L176.298,46.231L176.378,46.231L176.45,46.231L176.524,46.231L176.677,46.231L176.753,46.231L176.834,46.231L176.906,46.231L176.98,46.231L177.133,46.231L177.209,46.231L177.29,46.231L177.361,46.231L177.435,46.231L177.588,46.231L177.664,46.231L177.744,46.231L177.817,46.231L177.891,46.231L178.044,46.231L178.12,46.231L178.2,46.231L178.272,46.231L178.347,46.231L178.5,46.231L178.577,46.231L178.657,23.154L178.729,23.154L178.803,23.154L178.956,23.154L179.032,23.154L179.113,30.846L179.184,30.846L179.259,30.846L179.412,30.846L179.488,30.846L179.569,30.846L179.64,30.846L179.715,30.846L179.868,30.846L179.943,30.846L180.025,30.846L180.098,30.846L180.171,30.846L180.323,30.846L180.399,30.846L180.48,30.846L180.552,30.846L180.626,30.846L180.779,30.846L180.855,30.846L180.935,30.846L181.007,30.846L181.082,30.846L181.234,30.846L181.311,30.846L181.391,30.846L181.463,30.846L181.538,30.846L181.691,30.846L181.767,30.846L181.848,30.846L181.919,30.846L181.994,30.846L182.146,30.846L182.223,30.846L182.304,30.846L182.376,30.846L182.45,30.846L182.603,30.846L182.679,30.846L182.76,30.846L182.832,30.846L182.906,30.846L183.059,30.846L183.135,30.846L183.216,30.846L183.287,30.846L183.362,30.846L183.514,30.846L183.59,30.846L183.671,30.846L183.743,30.846L183.817,30.846L183.97,30.846L184.046,30.846L184.126,30.846L184.198,30.846L184.273,30.846L184.425,30.846L184.501,30.846L184.582,30.846L184.653,30.846L184.729,30.846L184.882,30.846L184.958,30.846L185.039,30.846L185.11,30.846L185.185,30.846L185.337,30.846L185.414,30.846L185.495,30.846L185.567,30.846L185.641,30.846L185.794,30.846L185.87,30.846L185.951,30.846L186.022,30.846L186.097,30.846L186.326,30.846L186.407,30.846L186.478,30.846L186.554,30.846L186.705,30.846L186.781,30.846L186.862,30.846L186.933,30.846L187.008,30.846L187.161,30.846L187.236,30.846L187.317,30.846L187.389,30.846L187.463,30.846L187.616,30.846L187.692,30.846L187.773,30.846L187.844,30.846L187.919,30.846L188.073,30.846L188.149,30.846L188.23,30.846L188.301,30.846L188.375,30.846L188.528,30.846L188.605,30.846L188.685,30.846L188.757,30.846L188.832,30.846L188.985,30.846L189.061,30.846L189.141,30.846L189.213,30.846L189.287,30.846L189.44,30.846L189.517,30.846L189.598,30.846L189.669,30.846L189.743,30.846L189.897,30.846L189.972,30.846L190.053,30.846L190.124,30.846L190.199,30.846L190.352,30.846L190.427,30.846L190.508,30.846L190.579,30.846L190.655,30.846L190.808,30.846L190.883,30.846L190.964,30.846L191.035,30.846L191.111,30.846L191.263,30.846L191.34,30.846L191.421,30.846L191.493,30.846L191.567,30.846L191.719,30.846L191.796,30.846L191.877,30.846L191.948,30.846L192.022,30.846L192.176,30.846L192.252,30.846L192.333,30.846L192.404,30.846L192.478,30.846L192.631,30.846L192.707,30.846L192.789,30.846L192.86,30.846L192.934,30.846L193.087,30.846L193.163,30.846L193.244,30.846L193.315,30.846L193.39,30.846L193.542,30.846L193.619,30.846L193.699,30.846L193.77,30.846L193.845,30.846L193.998,30.846L194.074,30.846L194.155,30.846L194.226,30.846L194.301,30.846L194.455,30.846L194.531,30.846L194.612,30.846L194.683,30.846L194.758,30.846L194.91,30.846L194.987,30.846L195.068,30.846L195.139,30.846L195.213,30.846L195.366,30.846L195.443,30.846L195.524,30.846L195.597,30.846L195.669,30.846L195.822,30.846L195.899,30.846L195.98,30.846L196.051,30.846L196.125,30.846L196.278,30.846L196.354,30.846L196.435,30.846L196.506,30.846L196.58,30.846L196.732,30.846L196.808,30.846L196.887,30.846L196.96,30.846L197.036,30.846L197.188,30.846L197.264,30.846L197.343,30.846L197.416,30.846L197.491,30.846L197.644,30.846L197.72,30.846L197.803,30.846L197.874,30.846L197.948,30.846L198.101,30.846L198.178,30.846L198.259,34.692L198.33,34.692L198.404,34.692L198.557,34.692L198.634,34.692L198.715,34.692L198.786,34.692L198.86,34.692L199.013,23.154L199.09,23.154L199.171,23.154L199.242,23.154L199.316,23.154L199.468,23.154L199.545,23.154L199.626,23.154L199.697,23.154L199.772,23.154L199.924,23.154L200,23.154" stroke="#f58518" stroke-width="2"/></g></g><path class="foreground" aria-hidden="true" d="" display="none"/></g></g><g class="mark-group role-legend" role="graphics-symbol" aria-roledescription="legend" aria-label="Symbol legend titled 'identifier' for stroke color with 2 values: altex-LG-F2WR508SBW, altex-LG-F2WR508SBM"><g transform="translate(220,0)"><path class="background" aria-hidden="true" d="M0,0h168v40h-168Z" pointer-events="none"/><g><g class="mark-group role-legend-entry"><g transform="translate(0,16)"><path class="background" aria-hidden="true" d="M0,0h0v0h0Z" pointer-events="none"/><g><g class="mark-group role-scope" role="graphics-object" aria-roledescription="group mark container"><g transform="translate(0,0)"><path class="background" aria-hidden="true" d="M0,0h168v11h-168Z" pointer-events="none" opacity="1"/><g><g class="mark-symbol role-legend-symbol" pointer-events="none"><path transform="translate(6,6)" d="M-5,0L5,0" stroke="#4c78a8" stroke-width="1.5" opacity="1"/></g><g class="mark-text role-legend-label" pointer-events="none"><text text-anchor="start" transform="translate(16,9)" font-family="Liberation Mono" font-size="10px" fill="#000" opacity="1">altex-LG-F2WR508SBW</text></g></g><path class="foreground" aria-hidden="true" d="" pointer-events="none" display="none"/></g><g transform="translate(0,13)"><path class="background" aria-hidden="true" d="M0,0h168v11h-168Z" pointer-events="none" opacity="1"/><g><g class="mark-symbol role-legend-symbol" pointer-events="none"><path transform="translate(6,6)" d="M-5,0L5,0" stroke="#f58518" stroke-width="1.5" opacity="1"/></g><g class="mark-text role-legend-label" pointer-events="none"><text text-anchor="start" transform="translate(16,9)" font-family="Liberation Mono" font-size="10px" fill="#000" opacity="1">altex-LG-F2WR508SBM</text></g></g><path class="foreground" aria-hidden="true" d="" pointer-events="none" display="none"/></g></g></g><path class="foreground" aria-hidden="true" d="" pointer-events="none" display="none"/></g></g><g class="mark-text role-legend-title" pointer-events="none"><text text-anchor="start" transform="translate(0,9)" font-family="Liberation Mono" font-size="11px" font-weight="bold" fill="#000" opacity="1">identifier</text></g></g><path class="foreground" aria-hidden="true" d="" pointer-events="none" display="none"/></g></g></g><path class="foreground" aria-hidden="true" d="" display="none"/></g></g></g></svg>