<svg xmlns="http://www.w3.org/2000/svg" xmlns:xlink="http://www.w3.org/1999/xlink" version="1.1" class="marks" width="460" height="242" viewBox="0 0 460 242"><rect width="460" height="242" fill="white"/><g fill="none" stroke-miterlimit="10" transform="translate(67,5)"><g class="mark-group role-frame root" role="graphics-object" aria-roledescription="group mark container"><g transform="translate(0,0)"><path class="background" aria-hidden="true" d="M0.5,0.5h200v200h-200Z" stroke="#ddd"/><g><g class="mark-group role-axis" aria-hidden="true"><g transform="translate(0.5,200.5)"><path class="background" aria-hidden="true" d="M0,0h0v0h0Z" pointer-events="none"/><g><g class="mark-rule role-axis-grid" pointer-events="none"><line transform="translate(58,-200)" x2="0" y2="200" stroke="#ddd" stroke-width="1" opacity="1"/><line transform="translate(116,-200)" x2="0" y2="200" stroke="#ddd" stroke-width="1" opacity="1"/><line transform="translate(175,-200)" x2="0" y2="200" stroke="#ddd" stroke-width="1" opacity="1"/></g></g><path class="foreground" aria-hidden="true" d="" pointer-events="none" display="none"/></g></g><g class="mark-group role-axis" aria-hidden="true"><g transform="translate(0.5,0.5)"><path class="background" aria-hidden="true" d="M0,0h0v0h0Z" pointer-events="none"/><g><g class="mark-rule role-axis-grid" pointer-events="none"><line transform="translate(0,200)" x2="200" y2="0" stroke="#ddd" stroke-width="1" opacity="1"/><line transform="translate(0,162)" x2="200" y2="0" stroke="#ddd" stroke-width="1" opacity="1"/><line transform="translate(0,123)" x2="200" y2="0" stroke="#ddd" stroke-width="1" opacity="1"/><line transform="translate(0,85)" x2="200" y2="0" stroke="#ddd" stroke-width="1" opacity="1"/><line transform="translate(0,46)" x2="200" y2="0" stroke="#ddd" stroke-width="1" opacity="1"/><line transform="translate(0,8)" x2="200" y2="0" stroke="#ddd" stroke-width="1" opacity="1"/></g></g><path class="foreground" aria-hidden="true" d="" pointer-events="none" display="none"/></g></g><g class="mark-group role-axis" role="graphics-symbol" aria-roledescription="axis" aria-label="X-axis titled 'Time' for a time scale with values from Monday, 01 January 2024, 2:19:43 PM to Saturday, 09 November 2024, 8:38:43 PM"><g transform="translate(0.5,200.5)"><path class="background" aria-hidden="true" d="M0,0h0v0h0Z" pointer-events="none"/><g><g class="mark-rule role-axis-tick" pointer-events="none"><line transform="translate(58,0)" x2="0" y2="5" stroke="#888" stroke-width="1" opacity="1"/><line transform="translate(116,0)" x2="0" y2="5" stroke="#888" stroke-width="1" opacity="1"/><line transform="translate(175,0)" x2="0" y2="5" stroke="#888" stroke-width="1" opacity="1"/></g><g class="mark-text role-axis-label" pointer-events="none"><text text-anchor="middle" transform="translate(57.71694401445179,15)" font-family="Liberation Mono" font-size="10px" fill="#000" opacity="1">April</text><text text-anchor="middle" transform="translate(115.8150543134127,15)" font-family="Liberation Mono" font-size="10px" fill="#000" opacity="1">July</text><text text-anchor="middle" transform="translate(174.55160538488968,15)" font-family="Liberation Mono" font-size="10px" fill="#000" opacity="1">October</text></g><g class="mark-rule role-axis-domain" pointer-events="none"><line transform="translate(0,0)" x2="200" y2="0" stroke="#888" stroke-width="1" opacity="1"/></g><g class="mark-text role-axis-title" pointer-events="none"><text text-anchor="middle" transform="translate(100,30)" font-family="Liberation Mono" font-size="11px" font-weight="bold" fill="#000" opacity="1">Time</text></g></g><path class="foreground" aria-hidden="true" d="" pointer-events="none" display="none"/></g></g><g class="mark-group role-axis" role="graphics-symbol" aria-roledescription="axis" aria-label="Y-axis titled 'Price' for a linear scale with values from 0 to 2,600"><g transform="translate(0.5,0.5)"><path class="background" aria-hidden="true" d="M0,0h0v0h0Z" pointer-events="none"/><g><g class="mark-rule role-axis-tick" pointer-events="none"><line transform="translate(0,200)" x2="-5" y2="0" stroke="#888" stroke-width="1" opacity="1"/><line transform="translate(0,162)" x2="-5" y2="0" stroke="#888" stroke-width="1" opacity="1"/><line transform="translate(0,123)" x2="-5" y2="0" stroke="#888" stroke-width="1" opacity="1"/><line transform="translate(0,85)" x2="-5" y2="0" stroke="#888" stroke-width="1" opacity="1"/><line transform="translate(0,46)" x2="-5" y2="0" stroke="#888" stroke-width="1" opacity="1"/><line transform="translate(0,8)" x2="-5" y2="0" stroke="#888" stroke-width="1" opacity="1"/></g><g class="mark-text role-axis-label" pointer-events="none"><text text-anchor="end" transform="translate(-7,203)" font-family="Liberation Mono" font-size="10px" fill="#000" opacity="1">0</text><text text-anchor="end" transform="translate(-7,164.53846153846155)" font-family="Liberation Mono" font-size="10px" fill="#000" opacity="1">500</text><text text-anchor="end" transform="translate(-7,126.07692307692308)" font-family="Liberation Mono" font-size="10px" fill="#000" opacity="1">1,000</text><text text-anchor="end" transform="translate(-7,87.61538461538463)" font-family="Liberation Mono" font-size="10px" fill="#000" opacity="1">1,500</text><text text-anchor="end" transform="translate(-7,49.153846153846146)" font-family="Liberation Mono" font-size="10px" fill="#000" opacity="1">2,000</text><text text-anchor="end" transform="translate(-7,10.692307692307686)" font-family="Liberation Mono" font-size="10px" fill="#000" opacity="1">2,500</text></g><g class="mark-rule role-axis-domain" pointer-events="none"><line transform="translate(0,200)" x2="0" y2="-200" stroke="#888" stroke-width="1" opacity="1"/></g><g class="mark-text role-axis-title" pointer-events="none"><text text-anchor="middle" transform="translate(-51,100) rotate(-90) translate(0,-2)" font-family="Liberation Mono" font-size="11px" font-weight="bold" fill="#000" opacity="1">Price</text></g></g><path class="foreground" aria-hidden="true" d="" pointer-events="none" display="none"/></g></g><g class="mark-group role-scope pathgroup" role="graphics-object" aria-roledescription="group mark container"><g transform="translate(0,0)"><path class="background" aria-hidden="true" d="M0,0h200v200h-200Z"/><g><g class="mark-line role-mark marks" role="graphics-object" aria-roledescription="line mark container"><path aria-label="Time: Jan 01, 2024; Price: 2399; identifier: altex-LG-F2WR508SBW" role="graphics-symbol" aria-roledescription="line mark" d="M0,15.462L0.067,15.462L0.168,15.462L0.381,15.462L0.487,15.462L0.599,15.462L0.701,15.462L0.806,15.462L1.019,15.462L1.126,15.462L1.238,15.462L1.339,15.462L1.445,15.462L1.658,15.462L1.764,15.462L1.876,15.462L1.979,15.462L2.083,15.462L2.296,34.692L2.403,34.692L2.514,34.692L2.617,34.692L2.722,34.692L2.935,34.692L3.041,34.692L3.152,34.692L3.255,34.692L3.36,34.692L3.574,34.692L3.679,34.692L3.791,34.692L3.893,34.692L3.999,34.692L4.212,34.692L4.319,34.692L4.431,34.692L4.532,34.692L4.637,34.692L4.851,34.692L4.957,34.692L5.07,34.692L5.171,34.692L5.275,34.692L5.489,34.692L5.595,34.692L5.707,34.692L5.809,34.692L5.914,34.692L6.127,34.692L6.234,34.692L6.346,34.692L6.448,34.692L6.552,34.692L6.766,34.692L6.872,34.692L6.984,34.692L7.086,34.692L7.191,34.692L7.404,46.231L7.51,46.231L7.621,46.231L7.724,46.231L7.829,46.231L8.043,46.231L8.148,46.231L8.26,46.231L8.362,46.231L8.468,46.231L8.681,46.231L8.788,46.231L8.9,46.231L9.002,46.231L9.106,46.231L9.319,46.231L9.426,46.231L9.538,46.231L9.64,46.231L9.744,46.231L9.958,46.231L10.065,46.231L10.177,46.231L10.278,46.231L10.383,46.231L10.596,46.231L10.703,46.231L10.815,46.231L10.916,46.231L11.022,46.231L11.235,46.231L11.341,46.231L11.453,46.231L11.555,46.231L11.66,46.231L11.873,46.231L11.979,46.231L12.091,46.231L12.193,46.231L12.298,46.231L12.511,46.231L12.618,46.231L12.729,46.231L12.831,46.231L12.937,46.231L13.151,46.231L13.257,46.231L13.369,46.231L13.47,46.231L13.575,46.231L13.789,46.231L13.895,46.231L14.008,46.231L14.109,46.231L14.214,46.231L14.427,46.231L14.534,46.231L14.646,46.231L14.748,46.231L14.852,46.231L15.066,46.231L15.172,46.231L15.284,46.231L15.386,46.231L15.49,46.231L15.704,46.231L15.81,46.231L15.921,46.231L16.023,46.231L16.129,46.231L16.342,46.231L16.448,46.231L16.558,46.231L16.661,46.231L16.767,46.231L16.98,46.231L17.087,46.231L17.196,46.231L17.299,46.231L17.406,46.231L17.619,46.231L17.725,46.231L17.836,46.231L17.938,46.231L18.044,46.231L18.257,46.231L18.363,46.231L18.474,46.231L18.578,46.231L18.683,46.231L18.895,46.231L19.002,46.231L19.113,46.231L19.215,46.231L19.321,46.231L19.534,34.692L19.64,34.692L19.751,34.692L19.853,34.692L19.959,34.692L20.173,34.692L20.279,34.692L20.389,34.692L20.491,34.692L20.598,34.692L20.811,34.692L20.917,34.692L21.027,34.692L21.13,34.692L21.237,34.692L21.45,34.692L21.556,34.692L21.665,34.692L21.768,34.692L21.875,34.692L22.088,34.692L22.194,34.692L22.305,34.692L22.407,34.692L22.513,34.692L22.726,34.692L22.832,34.692L22.943,34.692L23.046,34.692L23.152,34.692L23.364,34.692L23.471,34.692L23.582,34.692L23.684,34.692L23.79,34.692L24.003,34.692L24.11,34.692L24.22,34.692L24.323,34.692L24.429,34.692L24.642,34.692L24.748,34.692L24.858,34.692L24.961,34.692L25.067,34.692L25.28,34.692L25.386,34.692L25.496,34.692L25.599,34.692L25.706,34.692L25.919,34.692L26.025,34.692L26.134,34.692L26.238,34.692L26.344,34.692L26.557,34.692L26.663,34.692L26.774,34.692L26.876,34.692L26.982,34.692L27.195,34.692L27.302,34.692L27.412,34.692L27.516,34.692L27.621,34.692L27.834,34.692L27.94,34.692L28.051,34.692L28.153,34.692L28.259,34.692L28.578,34.692L28.689,34.692L28.791,34.692L28.898,34.692L29.111,34.692L29.217,34.692L29.328,34.692L29.43,34.692L29.536,34.692L29.749,34.692L29.855,34.692L29.965,34.692L30.068,34.692L30.174,34.692L30.387,34.692L30.494,34.692L30.604,34.692L30.707,34.692L30.813,34.692L31.026,34.692L31.133,34.692L31.243,34.692L31.346,34.692L31.451,34.692L31.665,34.692L31.771,34.692L31.881,34.692L31.984,34.692L32.09,34.692L32.303,34.692L32.409,34.692L32.52,34.692L32.622,34.692L32.729,34.692L32.941,34.692L33.047,34.692L33.158,34.692L33.261,34.692L33.367,34.692L33.58,34.692L33.686,34.692L33.796,34.692L33.899,34.692L34.006,34.692L34.218,34.692L34.324,34.692L34.434,34.692L34.537,34.692L34.643,34.692L34.856,34.692L34.963,34.692L35.073,34.692L35.176,34.692L35.282,34.692L35.495,34.692L35.602,34.692L35.712,34.692L35.814,34.692L35.92,34.692L36.133,34.692L36.24,34.692L36.35,34.692L36.453,34.692L36.559,34.692L36.772,34.692L36.878,34.692L36.989,34.692L37.092,34.692L37.198,34.692L37.41,34.692L37.517,34.692L37.627,34.692L37.729,34.692L37.836,34.692L38.049,34.692L38.155,34.692L38.266,34.692L38.368,34.692L38.474,34.692L38.687,34.692L38.794,34.692L38.904,34.692L39.006,34.692L39.113,34.692L39.326,34.692L39.432,34.692L39.542,34.692L39.645,34.692L39.751,34.692L39.974,34.692L40.119,34.692L40.183,34.692L40.284,34.692L40.39,34.692L40.602,34.692L40.709,34.692L40.82,34.692L40.922,34.692L41.028,34.692L41.241,34.692L41.348,34.692L41.458,34.692L41.561,34.692L41.666,34.692L41.879,34.692L41.986,34.692L42.096,34.692L42.199,34.692L42.305,34.692L42.518,34.692L42.626,34.692L42.735,34.692L42.837,34.692L42.943,34.692L43.156,34.692L43.263,34.692L43.372,34.692L43.476,34.692L43.582,34.692L43.795,34.692L43.902,34.692L44.011,34.692L44.114,34.692L44.22,34.692L44.434,34.692L44.539,34.692L44.651,34.692L44.753,34.692L44.859,34.692L45.072,34.692L45.178,34.692L45.289,34.692L45.392,34.692L45.497,34.692L45.71,34.692L45.817,34.692L45.928,34.692L46.029,34.692L46.136,34.692L46.348,34.692L46.455,34.692L46.566,34.692L46.668,34.692L46.774,34.692L46.987,34.692L47.094,34.692L47.204,34.692L47.306,34.692L47.412,34.692L47.625,34.692L47.732,34.692L47.842,34.692L47.945,34.692L48.051,34.692L48.264,34.692L48.371,34.692L48.48,34.692L48.583,34.692L48.689,34.692L48.902,34.692L49.009,34.692L49.12,34.692L49.222,34.692L49.328,34.692L49.541,34.692L49.647,34.692L49.758,34.692L49.861,34.692L49.966,34.692L50.179,34.692L50.286,34.692L50.396,34.692L50.5,34.692L50.605,34.692L50.818,34.692L50.924,34.692L51.035,34.692L51.138,34.692L51.243,34.692L51.456,34.692L51.562,34.692L51.673,34.692L51.776,34.692L51.882,34.692L52.094,34.692L52.201,34.692L52.311,34.692L52.414,34.692L52.52,34.692L52.733,34.692L52.839,34.692L52.95,34.692L53.052,34.692L53.158,34.692L53.371,34.692L53.478,34.692L53.589,34.692L53.691,34.692L53.797,34.692L54.01,34.692L54.117,34.692L54.227,34.692L54.33,34.692L54.435,34.692L54.649,34.692L54.755,34.692L54.866,34.692L54.969,34.692L55.074,34.692L55.286,34.692L55.393,34.692L55.504,34.692L55.606,34.692L55.712,34.692L55.925,34.692L56.031,34.692L56.143,34.692L56.245,34.692L56.351,34.692L56.563,34.692L56.67,34.692L56.78,34.692L56.883,34.692L56.99,34.692L57.202,34.692L57.309,34.692L57.419,34.692L57.522,34.692L57.628,34.692L57.84,34.692L57.948,34.692L58.058,34.692L58.161,34.692L58.266,34.692L58.479,34.692L58.586,34.692L58.697,34.692L58.799,34.692L58.904,34.692L59.117,34.692L59.224,34.692L59.335,34.692L59.438,34.692L59.543,34.692L59.756,34.692L59.862,34.692L59.973,34.692L60.075,34.692L60.181,34.692L60.395,34.692L60.611,34.692L60.714,34.692L60.82,34.692L61.033,34.692L61.139,34.692L61.249,34.692L61.352,34.692L61.458,34.692L61.671,34.692L61.777,34.692L61.888,34.692L61.99,34.692L62.097,34.692L62.31,34.692L62.416,34.692L62.527,34.692L62.63,34.692L62.735,34.692L62.948,34.692L63.054,34.692L63.165,34.692L63.268,34.692L63.374,34.692L63.586,34.692L63.693,34.692L63.804,34.692L63.907,34.692L64.013,34.692L64.225,34.692L64.332,34.692L64.442,34.692L64.651,34.692L64.864,34.692L64.97,34.692L65.081,34.692L65.182,34.692L65.289,34.692L65.502,34.692L65.608,34.692L65.717,34.692L65.821,34.692L65.927,34.692L66.15,34.692L66.313,34.692L66.413,34.692L66.62,34.692L66.78,34.692L66.885,34.692L66.995,34.692L67.098,34.692L67.204,34.692L67.417,34.692L67.523,34.692L67.635,34.692L67.736,34.692L67.843,34.692L68.055,34.692L68.162,34.692L68.273,34.692L68.376,34.692L68.481,34.692L68.8,34.692L68.911,34.692L69.014,34.692L69.12,34.692L69.332,34.692L69.439,34.692L69.55,34.692L69.652,34.692L69.758,34.692L69.971,34.692L70.077,34.692L70.187,34.692L70.29,34.692L70.396,34.692L70.61,34.692L70.716,34.692L70.826,34.692L70.929,34.692L71.035,34.692L71.248,34.692L71.355,34.692L71.466,34.692L71.568,34.692L71.673,34.692L71.886,34.692L71.993,34.692L72.104,34.692L72.206,34.692L72.312,34.692L72.524,34.692L72.632,34.692L72.746,34.692L72.844,34.692L72.95,34.692L73.163,34.692L73.27,34.692L73.378,34.692L73.483,34.692L73.589,34.692L73.801,34.692L73.908,34.692L74.019,34.692L74.121,34.692L74.228,34.692L74.44,34.692L74.546,34.692L74.656,34.692L74.759,34.692L74.865,34.692L75.078,34.692L75.185,34.692L75.296,34.692L75.397,34.692L75.504,34.692L75.717,34.692L75.825,34.692L75.935,34.692L76.036,34.692L76.142,34.692L76.355,34.692L76.462,34.692L76.573,34.692L76.675,34.692L76.781,34.692L76.994,34.692L77.102,34.692L77.212,34.692L77.313,34.692L77.419,34.692L77.633,57.769L77.739,57.769L77.851,57.769L77.952,57.769L78.058,57.769L78.271,57.769L78.377,57.769L78.488,57.769L78.59,57.769L78.696,57.769L78.909,57.769L79.015,57.769L79.126,57.769L79.228,57.769L79.335,57.769L79.547,57.769L79.654,57.769L79.765,57.769L79.867,57.769L79.973,57.769L80.186,57.769L80.293,57.769L80.404,57.769L80.507,57.769L80.611,57.769L80.824,57.769L80.931,57.769L81.042,57.769L81.144,57.769L81.25,57.769L81.463,57.769L81.57,57.769L81.682,57.769L81.784,57.769L81.888,57.769L82.102,34.692L82.209,34.692L82.319,34.692L82.423,34.692L82.527,34.692L82.739,34.692L82.846,34.692L82.958,34.692L83.06,34.692L83.165,34.692L83.378,34.692L83.484,34.692L83.595,34.692L83.697,34.692L83.804,34.692L84.017,34.692L84.123,34.692L84.234,34.692L84.336,34.692L84.442,34.692L84.655,34.692L84.762,34.692L84.874,34.692L84.975,34.692L85.081,34.692L85.293,34.692L85.401,34.692L85.512,34.692L85.614,34.692L85.719,34.692L85.932,34.692L86.039,34.692L86.151,34.692L86.252,34.692L86.358,34.692L86.57,34.692L86.677,34.692L86.789,34.692L86.89,34.692L86.996,34.692L87.209,34.692L87.315,34.692L87.427,34.692L87.529,34.692L87.634,34.692L87.847,34.692L87.954,34.692L88.065,34.692L88.166,34.692L88.273,34.692L88.486,34.692L88.592,34.692L88.703,34.692L88.806,34.692L88.911,34.692L89.125,34.692L89.231,34.692L89.343,34.692L89.444,34.692L89.55,34.692L89.762,34.692L89.869,34.692L89.982,34.692L90.082,34.692L90.188,34.692L90.401,34.692L90.508,34.692L90.62,34.692L90.722,34.692L90.826,34.692L91.039,34.692L91.146,34.692L91.258,34.692L91.36,34.692L91.465,34.692L91.679,34.692L91.785,34.692L91.897,34.692L91.998,34.692L92.104,34.692L92.317,34.692L92.423,34.692L92.534,34.692L92.636,34.692L92.742,34.692L92.955,34.692L93.061,34.692L93.172,34.692L93.274,34.692L93.381,34.692L93.593,34.692L93.7,34.692L93.812,34.692L93.914,34.692L94.019,34.692L94.234,34.692L94.339,34.692L94.451,34.692L94.552,34.692L94.657,34.692L94.871,34.692L94.977,34.692L95.089,34.692L95.19,34.692L95.296,34.692L95.51,34.692L95.615,34.692L95.727,34.692L95.829,34.692L95.934,34.692L96.148,34.692L96.254,34.692L96.366,34.692L96.467,34.692L96.572,34.692L96.785,34.692L96.892,34.692L97.003,34.692L97.105,34.692L97.211,34.692L97.424,34.692L97.53,34.692L97.642,34.692L97.743,34.692L97.849,34.692L98.063,34.692L98.17,34.692L98.282,34.692L98.383,34.692L98.488,34.692L98.701,34.692L98.808,34.692L98.92,34.692L99.022,34.692L99.126,34.692L99.34,34.692L99.446,34.692L99.559,34.692L99.66,34.692L99.765,34.692L99.978,34.692L100.085,34.692L100.197,34.692L100.298,34.692L100.403,34.692L100.617,34.692L100.723,34.692L100.836,34.692L100.938,34.692L101.042,34.692L101.255,34.692L101.361,34.692L101.473,34.692L101.575,34.692L101.68,34.692L101.893,34.692L101.999,34.692L102.111,34.692L102.213,34.692L102.318,34.692L102.532,34.692L102.639,34.692L102.751,34.692L102.852,34.692L102.957,34.692L103.171,34.692L103.277,34.692L103.389,34.692L103.491,34.692L103.596,34.692L103.809,34.692L103.915,46.231L104.028,46.231L104.129,46.231L104.234,46.231L104.447,46.231L104.554,46.231L104.666,46.231L104.768,46.231L104.873,46.231L105.086,46.231L105.192,46.231L105.305,48.538L105.405,48.538L105.511,48.538L105.725,48.538L105.831,48.538L105.942,48.538L106.044,48.538L106.149,48.538L106.362,48.538L106.469,48.538L106.581,48.538L106.682,48.538L106.788,48.538L107.002,48.538L107.108,48.538L107.22,48.538L107.321,48.538L107.426,48.538L107.639,48.538L107.746,48.538L107.859,48.538L107.96,48.538L108.064,48.538L108.278,48.538L108.385,48.538L108.497,48.538L108.598,48.538L108.703,48.538L108.916,48.538L109.023,48.538L109.135,48.538L109.238,48.538L109.341,48.538L109.555,48.538L109.661,48.538L109.773,48.538L109.874,48.538L109.98,48.538L110.193,48.538L110.299,48.538L110.412,48.538L110.513,48.538L110.618,48.538L110.831,48.538L110.937,48.538L111.049,48.538L111.151,48.538L111.256,48.538L111.47,48.538L111.577,48.538L111.689,48.538L111.79,48.538L111.895,48.538L112.108,48.538L112.215,48.538L112.327,48.538L112.534,48.538L112.748,48.538L112.854,48.538L112.966,48.538L113.067,48.538L113.172,48.538L113.386,48.538L113.492,48.538L113.605,48.538L113.706,48.538L113.811,48.538L114.024,48.538L114.131,48.538L114.243,48.538L114.343,48.538L114.449,48.538L114.663,48.538L114.769,48.538L114.88,48.538L114.982,48.538L115.088,48.538L115.3,48.538L115.407,48.538L115.519,48.538L115.621,48.538L115.726,48.538L115.939,48.538L116.046,48.538L116.159,48.538L116.26,48.538L116.364,48.538L116.578,48.538L116.684,48.538L116.796,48.538L116.898,48.538L117.003,48.538L117.216,48.538L117.323,48.538L117.435,48.538L117.537,48.538L117.641,48.538L117.855,48.538L117.961,48.538L118.074,48.538L118.174,48.538L118.28,48.538L118.494,48.538L118.599,48.538L118.712,48.538L118.813,48.538L118.918,48.538L119.132,48.538L119.238,48.538L119.349,48.538L119.451,48.538L119.557,48.538L119.769,48.538L119.876,48.538L119.988,48.538L120.089,48.538L120.195,48.538L120.409,48.538L120.515,48.538L120.627,48.538L120.729,48.538L120.833,48.538L121.047,48.538L121.154,48.538L121.266,48.538L121.367,48.538L121.472,48.538L121.685,48.538L121.792,48.538L121.905,48.538L122.005,48.538L122.11,48.538L122.324,48.538L122.43,48.538L122.543,48.538L122.643,48.538L122.749,48.538L122.962,48.538L123.069,48.538L123.181,48.538L123.282,48.538L123.387,48.538L123.6,48.538L123.706,48.538L123.818,48.538L123.92,48.538L124.025,48.538L124.24,48.538L124.346,48.538L124.464,48.538L124.564,48.538L124.664,48.538L124.878,48.538L124.984,48.538L125.097,48.538L125.198,48.538L125.302,48.538L125.516,48.538L125.623,48.538L125.733,48.538L125.837,48.538L125.941,48.538L126.154,48.538L126.261,48.538L126.374,48.538L126.475,48.538L126.579,48.538L126.793,48.538L126.9,48.538L127.012,48.538L127.113,48.538L127.218,48.538L127.432,48.538L127.538,48.538L127.65,48.538L127.752,48.538L127.856,48.538L128.07,48.538L128.176,48.538L128.288,48.538L128.389,48.538L128.495,48.538L128.708,48.538L128.814,48.538L128.926,48.538L129.029,48.538L129.133,48.538L129.347,48.538L129.454,48.538L129.566,48.538L129.667,48.538L129.771,48.538L129.985,48.538L130.092,48.538L130.204,48.538L130.305,48.538L130.41,48.538L130.623,27L130.73,27L130.843,27L130.944,27L131.048,27L131.263,27L131.369,27L131.481,27L131.582,27L131.687,27L131.901,27L132.007,27L132.119,27L132.221,27L132.325,27L132.539,27L132.645,27L132.758,27L132.858,27L132.964,27L133.177,27L133.283,27L133.395,27L133.497,27L133.602,27L133.816,27L133.922,27L134.035,27L134.136,27L134.241,27L134.454,27L134.561,27L134.674,27L134.774,27L134.879,27L135.092,27L135.198,27L135.312,27L135.413,27L135.517,27L135.731,27L135.838,27L135.95,27L136.051,27L136.156,27L136.37,27L136.476,27L136.589,27L136.69,27L136.794,27L137.008,27L137.114,27L137.226,27L137.328,27L137.433,27L137.647,27L137.752,27L137.865,27L137.965,27L138.072,27L138.285,27L138.392,27L138.505,27L138.605,27L138.71,27L138.924,27L139.03,27L139.143,27L139.243,27L139.348,27L139.562,27L139.668,27L139.782,27L139.883,27L139.987,27L140.201,27L140.307,27L140.42,27L140.521,27L140.625,27L140.839,27L140.945,27L141.058,27L141.159,27L141.263,27L141.478,27L141.583,27L141.696,27L141.798,27L141.902,27L142.116,27L142.222,27L142.334,27L142.435,27L142.541,27L142.754,27L142.861,27L142.974,27L143.075,27L143.179,27L143.392,27L143.499,27L143.612,27L143.713,27L143.817,27L144.031,27L144.138,27L144.251,27L144.352,27L144.456,27L144.669,27L144.776,27L144.889,27L144.989,27L145.094,27L145.308,27L145.415,27L145.527,27L145.628,27L145.733,27L145.946,27L146.052,27L146.164,27L146.266,27L146.372,27L146.585,27L146.691,27L146.803,27L146.904,27L147.009,27L147.223,27L147.33,27L147.443,27L147.543,27L147.648,27L147.863,27L147.968,27L148.081,27L148.181,27L148.287,27L148.5,27L148.607,27L148.717,27L148.821,27L148.925,27L149.138,27L149.245,27L149.358,27L149.46,27L149.563,27L149.777,27L149.884,27L149.996,27L150.097,27L150.201,27L150.416,27L150.521,27L150.634,27L150.735,27L150.84,27L151.054,27L151.16,27L151.272,27L151.373,27L151.479,27L151.693,27L151.8,27L151.912,27L152.013,27L152.117,27L152.331,27L152.438,27L152.551,27L152.651,27L152.756,27L152.97,27L153.076,27L153.189,27L153.291,27L153.394,27L153.608,27L153.715,27L153.828,27L153.928,27L154.032,27L154.247,27L154.353,27L154.466,27L154.566,27L154.671,27L154.885,27L154.991,27L155.103,27L155.205,27L155.309,27L155.524,27L155.63,27L155.743,27L155.843,27L155.948,27L156.162,27L156.269,27L156.382,27L156.482,27L156.587,27L156.8,27L156.907,27L157.02,27L157.121,27L157.225,27L157.439,27L157.546,27L157.659,27L157.759,27L157.864,27L158.078,27L158.184,27L158.297,27L158.397,27L158.502,27L158.715,27L158.822,27L158.935,27L159.037,27L159.14,27L159.354,27L159.46,27L159.572,27L159.673,27L159.778,27L159.992,27L160.099,27L160.211,27L160.313,27L160.417,27L160.631,27L160.739,27L160.851,27L160.951,27L161.056,27L161.269,27L161.376,27L161.49,27L161.59,27L161.694,27L161.909,27L162.015,27L162.128,27L162.228,27L162.332,27L162.547,27L162.654,27L162.766,27L162.867,27L162.971,27L163.185,27L163.292,27L163.405,27L163.505,27L163.609,27L163.823,46.231L163.93,46.231L164.042,46.231L164.143,46.231L164.248,46.231L164.462,46.231L164.568,46.231L164.681,46.231L164.782,46.231L164.886,46.231L165.101,46.231L165.208,46.231L165.321,46.231L165.421,46.231L165.525,46.231L165.737,46.231L165.846,46.231L165.959,46.231L166.059,46.231L166.163,46.231L166.377,46.231L166.484,46.231L166.597,46.231L166.697,46.231L166.802,46.231L167.016,53.923L167.123,53.923L167.236,53.923L167.336,53.923L167.44,53.923L167.654,53.923L167.761,53.923L167.874,53.923L167.974,53.923L168.079,53.923L168.293,53.923L168.398,53.923L168.511,53.923L168.612,53.923L168.716,53.923L168.932,53.923L169.037,53.923L169.15,53.923L169.25,53.923L169.355,53.923L169.569,53.923L169.677,53.923L169.79,53.923L169.89,53.923L169.994,53.923L170.208,53.923L170.316,53.923L170.429,53.923L170.529,53.923L170.633,53.923L170.847,53.923L170.954,53.923L171.067,53.923L171.168,53.923L171.271,53.923L171.485,23.154L171.592,23.154L171.706,23.154L171.805,23.154L171.909,23.154L172.123,23.154L172.23,23.154L172.344,23.154L172.444,23.154L172.762,23.154L172.868,23.154L172.981,23.154L173.081,23.154L173.186,23.154L173.4,23.154L173.507,23.154L173.619,23.154L173.72,23.154L173.824,23.154L174.039,23.154L174.147,23.154L174.26,23.154L174.36,23.154L174.463,23.154L174.678,23.154L174.785,23.154L174.898,23.154L174.998,23.154L175.102,23.154L175.316,23.154L175.423,23.154L175.536,23.154L175.636,23.154L175.741,23.154L175.955,23.154L176.061,23.154L176.175,23.154L176.275,23.154L176.379,23.154L176.593,23.154L176.699,23.154L176.813,23.154L176.913,23.154L177.017,23.154L177.231,23.154L177.337,23.154L177.45,23.154L177.55,23.154L177.655,23.154L177.869,23.154L177.976,23.154L178.088,23.154L178.189,23.154L178.293,23.154L178.508,23.154L178.615,23.154L178.729,23.154L178.829,23.154L178.933,23.154L179.146,23.154L179.254,23.154L179.366,23.154L179.467,23.154L179.57,23.154L179.785,23.154L179.892,23.154L180.005,23.154L180.105,23.154L180.209,23.154L180.423,23.154L180.53,23.154L180.644,23.154L180.743,23.154L180.848,23.154L181.062,23.154L181.168,23.154L181.282,23.154L181.381,23.154L181.487,23.154L181.7,23.154L181.806,23.154L181.919,23.154L182.02,23.154L182.124,23.154L182.339,23.154L182.445,23.154L182.558,23.154L182.658,23.154L182.763,23.154L182.977,23.154L183.084,23.154L183.198,23.154L183.298,23.154L183.401,23.154L183.615,23.154L183.723,23.154L183.836,23.154L183.936,23.154L184.04,23.154L184.254,23.154L184.361,23.154L184.474,23.154L184.574,23.154L184.678,23.154L184.893,23.154L184.999,23.154L185.113,23.154L185.213,23.154L185.317,23.154L185.531,23.154L185.638,23.154L185.751,23.154L185.851,23.154L185.955,23.154L186.169,23.154L186.275,23.154L186.388,23.154L186.489,23.154L186.594,23.154L186.808,23.154L186.914,23.154L187.027,23.154L187.127,23.154L187.232,23.154L187.446,23.154L187.553,23.154L187.667,23.154L187.767,23.154L187.871,23.154L188.085,23.154L188.192,23.154L188.305,23.154L188.405,23.154L188.509,23.154L188.723,23.154L188.83,23.154L188.943,23.154L189.044,23.154L189.148,23.154L189.362,23.154L189.469,23.154L189.582,23.154L189.682,23.154L189.786,23.154L190,23.154L190.107,23.154L190.22,23.154L190.32,23.154L190.424,23.154L190.638,23.154L190.745,23.154L190.857,23.154L190.957,23.154L191.062,23.154L191.277,23.154L191.384,23.154L191.496,23.154L191.596,23.154L191.702,23.154L191.916,23.154L192.023,23.154L192.136,23.154L192.237,23.154L192.34,23.154L192.554,23.154L192.661,23.154L192.775,23.154L192.875,23.154L192.978,23.154L193.192,23.154L193.3,23.154L193.413,23.154L193.513,23.154L193.617,23.154L194.051,23.154L194.151,23.154L194.255,23.154L194.469,23.154L194.575,23.154L194.689,23.154L194.789,23.154L194.893,23.154L195.107,23.154L195.213,23.154L195.326,23.154L195.428,23.154L195.531,23.154L195.745,23.154L195.851,23.154L195.965,23.154L196.065,23.154L196.17,23.154L196.384,23.154L196.491,23.154L196.605,23.154L196.704,23.154L196.808,23.154L197.022,23.154L197.13,23.154L197.242,23.154L197.342,23.154L197.447,23.154L197.661,23.154L197.768,23.154L197.881,23.154L197.981,23.154L198.085,23.154L198.299,58.538L198.406,58.538L198.519,58.538L198.62,58.538L198.724,58.538L198.938,58.538L199.044,58.538L199.158,58.538L199.258,58.538L199.362,58.538L199.576,58.538L199.682,58.538L199.795,58.538L199.896,58.538L200,58.538" stroke="#4c78a8" stroke-width="2"/></g></g><path class="foreground" aria-hidden="true" d="" display="none"/></g><g transform="translate(0,0)"><path class="background" aria-hidden="true" d="M0,0h200v200h-200Z"/><g><g class="mark-line role-mark marks" role="graphics-object" aria-roledescription="line mark container"><path aria-label="Time: Jan 01, 2024; Price: 2499; identifier: altex-LG-F2WR508SBM" role="graphics-symbol" aria-roledescription="line mark" d="M0,7.769L0.067,7.769L0.168,7.769L0.381,7.769L0.487,7.769L0.599,7.769L0.701,7.769L0.806,7.769L1.019,7.769L1.126,7.769L1.238,7.769L1.339,7.769L1.445,7.769L1.658,7.769L1.764,7.769L1.876,7.769L1.979,7.769L2.083,7.769L2.296,27L2.403,27L2.514,27L2.617,27L2.722,27L2.935,27L3.041,27L3.152,27L3.255,27L3.36,27L3.574,27L3.679,27L3.791,27L3.893,27L3.999,27L4.212,27L4.319,27L4.431,27L4.532,27L4.637,27L4.851,27L4.957,27L5.07,27L5.171,27L5.275,27L5.489,27L5.595,27L5.707,27L5.809,27L5.914,27L6.127,27L6.234,27L6.346,27L6.448,27L6.552,27L6.766,27L6.872,27L6.984,27L7.086,27L7.191,27L7.404,38.538L7.51,38.538L7.621,38.538L7.724,38.538L7.829,38.538L8.043,38.538L8.148,38.538L8.26,38.538L8.362,38.538L8.468,38.538L8.681,38.538L8.788,38.538L8.9,38.538L9.002,38.538L9.106,38.538L9.319,38.538L9.426,38.538L9.538,38.538L9.64,38.538L9.744,38.538L9.958,38.538L10.065,38.538L10.177,38.538L10.278,38.538L10.383,38.538L10.596,38.538L10.703,38.538L10.815,38.538L10.916,38.538L11.022,38.538L11.235,38.538L11.341,38.538L11.453,38.538L11.555,38.538L11.66,38.538L11.873,38.538L11.979,38.538L12.091,38.538L12.193,38.538L12.298,38.538L12.511,38.538L12.618,38.538L12.729,38.538L12.831,38.538L12.937,38.538L13.151,38.538L13.257,38.538L13.369,38.538L13.471,38.538L13.575,38.538L13.789,38.538L13.895,38.538L14.008,38.538L14.11,38.538L14.214,38.538L14.427,38.538L14.534,38.538L14.646,38.538L14.748,38.538L14.852,38.538L15.066,38.538L15.172,38.538L15.284,38.538L15.387,38.538L15.49,38.538L15.704,38.538L15.81,38.538L15.921,38.538L16.023,38.538L16.129,38.538L16.342,38.538L16.448,38.538L16.558,38.538L16.661,38.538L16.767,38.538L16.98,38.538L17.087,38.538L17.196,38.538L17.299,38.538L17.406,38.538L17.619,38.538L17.725,38.538L17.836,38.538L17.938,38.538L18.044,38.538L18.257,38.538L18.363,38.538L18.474,38.538L18.578,38.538L18.683,38.538L18.895,38.538L19.002,38.538L19.113,38.538L19.215,38.538L19.321,38.538L19.534,27L19.64,27L19.751,27L19.853,27L19.959,27L20.173,27L20.279,27L20.389,27L20.491,27L20.598,27L20.811,27L20.917,27L21.027,27L21.13,27L21.237,27L21.45,27L21.556,27L21.665,27L21.768,27L21.875,27L22.088,27L22.194,27L22.305,27L22.407,27L22.513,27L22.726,27L22.833,27L22.943,27L23.046,27L23.152,27L23.365,27L23.471,27L23.582,27L23.684,27L23.79,27L24.003,27L24.11,27L24.22,27L24.323,27L24.429,27L24.642,27L24.748,27L24.858,27L24.961,27L25.067,27L25.28,27L25.386,27L25.496,27L25.599,27L25.706,27L25.919,27L26.025,27L26.135,27L26.238,27L26.344,27L26.557,27L26.663,27L26.774,27L26.876,27L26.982,27L27.195,27L27.302,27L27.412,27L27.516,27L27.621,27L27.834,27L27.94,27L28.051,27L28.153,27L28.259,27L28.578,27L28.689,27L28.791,27L28.898,27L29.111,27L29.217,27L29.328,27L29.43,27L29.536,27L29.749,27L29.855,27L29.965,27L30.068,27L30.175,27L30.387,27L30.494,27L30.604,27L30.707,27L30.813,27L31.026,27L31.133,27L31.243,27L31.346,27L31.451,27L31.665,27L31.771,27L31.881,27L31.984,27L32.09,27L32.303,27L32.409,27L32.52,27L32.622,27L32.729,27L32.941,27L33.048,27L33.158,27L33.261,27L33.367,27L33.58,27L33.686,27L33.796,27L33.899,27L34.006,27L34.218,27L34.324,27L34.434,27L34.537,27L34.643,27L34.856,27L34.963,27L35.073,27L35.176,27L35.282,27L35.495,27L35.602,27L35.712,27L35.815,27L35.92,27L36.133,27L36.24,27L36.35,27L36.453,27L36.559,27L36.772,27L36.878,27L36.989,27L37.092,27L37.198,27L37.41,27L37.517,27L37.627,27L37.729,27L37.836,27L38.049,27L38.155,27L38.266,27L38.368,27L38.474,27L38.687,27L38.794,27L38.904,27L39.006,27L39.113,27L39.326,27L39.432,27L39.542,27L39.645,27L39.751,27L39.974,27L40.119,27L40.183,27L40.284,27L40.39,27L40.602,27L40.709,27L40.82,27L40.922,27L41.028,27L41.241,27L41.348,27L41.458,27L41.561,27L41.666,27L41.879,27L41.986,27L42.096,38.538L42.199,38.538L42.305,38.538L42.518,38.538L42.626,38.538L42.735,38.538L42.837,38.538L42.943,38.538L43.156,38.538L43.263,38.538L43.372,38.538L43.476,38.538L43.582,38.538L43.795,38.538L43.902,38.538L44.011,38.538L44.114,38.538L44.22,38.538L44.434,38.538L44.539,38.538L44.651,38.538L44.753,38.538L44.859,38.538L45.072,38.538L45.178,38.538L45.289,38.538L45.392,38.538L45.497,38.538L45.71,38.538L45.817,38.538L45.928,38.538L46.029,38.538L46.136,38.538L46.348,38.538L46.455,38.538L46.566,38.538L46.668,38.538L46.774,38.538L46.987,38.538L47.094,38.538L47.204,38.538L47.306,38.538L47.412,38.538L47.625,38.538L47.732,38.538L47.842,38.538L47.945,38.538L48.051,38.538L48.264,38.538L48.371,38.538L48.48,38.538L48.583,38.538L48.689,38.538L48.902,38.538L49.009,38.538L49.12,38.538L49.223,38.538L49.328,38.538L49.541,38.538L49.647,38.538L49.758,38.538L49.861,38.538L49.966,38.538L50.179,38.538L50.286,38.538L50.396,38.538L50.5,38.538L50.605,38.538L50.818,38.538L50.924,38.538L51.035,38.538L51.138,38.538L51.243,38.538L51.456,38.538L51.562,38.538L51.673,38.538L51.776,38.538L51.882,38.538L52.095,38.538L52.201,38.538L52.311,38.538L52.414,38.538L52.52,38.538L52.733,38.538L52.839,38.538L52.95,38.538L53.052,38.538L53.158,38.538L53.371,38.538L53.478,38.538L53.589,38.538L53.691,38.538L53.797,38.538L54.01,38.538L54.117,38.538L54.227,38.538L54.33,38.538L54.435,38.538L54.649,38.538L54.755,38.538L54.866,38.538L54.969,38.538L55.074,38.538L55.287,38.538L55.393,38.538L55.504,38.538L55.606,38.538L55.712,38.538L55.925,38.538L56.031,38.538L56.143,38.538L56.245,38.538L56.351,38.538L56.563,38.538L56.67,38.538L56.78,38.538L56.883,38.538L56.99,38.538L57.202,38.538L57.309,38.538L57.419,38.538L57.522,38.538L57.628,38.538L57.84,38.538L57.948,38.538L58.059,38.538L58.161,38.538L58.266,38.538L58.479,38.538L58.586,38.538L58.697,38.538L58.799,38.538L58.904,38.538L59.117,38.538L59.224,38.538L59.335,38.538L59.438,38.538L59.543,38.538L59.756,38.538L59.862,38.538L59.973,38.538L60.076,38.538L60.181,38.538L60.395,38.538L60.611,38.538L60.714,38.538L60.82,38.538L61.033,38.538L61.139,38.538L61.249,38.538L61.352,38.538L61.458,38.538L61.671,38.538L61.777,38.538L61.888,38.538L61.99,38.538L62.097,38.538L62.31,38.538L62.416,38.538L62.527,38.538L62.63,38.538L62.735,38.538L62.948,38.538L63.054,38.538L63.165,38.538L63.268,38.538L63.374,38.538L63.586,38.538L63.693,38.538L63.804,38.538L63.907,38.538L64.013,38.538L64.225,38.538L64.332,38.538L64.443,38.538L64.651,38.538L64.864,38.538L64.97,38.538L65.081,38.538L65.182,38.538L65.289,38.538L65.502,38.538L65.608,38.538L65.717,38.538L65.821,38.538L65.927,38.538L66.15,38.538L66.313,38.538L66.413,38.538L66.62,38.538L66.78,38.538L66.885,38.538L66.995,38.538L67.098,38.538L67.204,38.538L67.417,38.538L67.523,38.538L67.635,38.538L67.736,38.538L67.843,38.538L68.055,38.538L68.162,38.538L68.273,38.538L68.376,38.538L68.481,38.538L68.8,38.538L68.911,38.538L69.014,38.538L69.12,38.538L69.332,38.538L69.439,38.538L69.55,38.538L69.653,38.538L69.758,38.538L69.971,38.538L70.077,38.538L70.188,38.538L70.29,38.538L70.396,38.538L70.61,38.538L70.716,38.538L70.826,38.538L70.929,38.538L71.035,38.538L71.248,38.538L71.355,38.538L71.466,38.538L71.568,38.538L71.673,38.538L71.886,38.538L71.993,38.538L72.104,38.538L72.206,38.538L72.312,38.538L72.524,38.538L72.632,38.538L72.746,38.538L72.844,38.538L72.95,38.538L73.163,38.538L73.27,38.538L73.378,38.538L73.483,38.538L73.589,38.538L73.801,38.538L73.908,38.538L74.019,38.538L74.121,38.538L74.228,38.538L74.44,38.538L74.546,38.538L74.656,38.538L74.759,38.538L74.865,38.538L75.078,38.538L75.185,38.538L75.296,38.538L75.398,38.538L75.504,38.538L75.717,38.538L75.825,38.538L75.935,38.538L76.037,38.538L76.142,38.538L76.355,38.538L76.462,38.538L76.573,38.538L76.675,38.538L76.781,38.538L76.994,38.538L77.102,38.538L77.212,38.538L77.313,38.538L77.419,38.538L77.633,38.538L77.739,38.538L77.851,38.538L77.952,38.538L78.058,38.538L78.271,38.538L78.377,38.538L78.488,38.538L78.59,38.538L78.696,38.538L78.909,38.538L79.015,38.538L79.126,38.538L79.228,38.538L79.335,38.538L79.547,38.538L79.654,38.538L79.765,38.538L79.867,38.538L79.973,38.538L80.186,38.538L80.293,38.538L80.404,38.538L80.507,38.538L80.611,38.538L80.824,38.538L80.931,38.538L81.042,30.846L81.144,30.846L81.25,30.846L81.463,30.846L81.57,30.846L81.682,30.846L81.784,30.846L81.888,30.846L82.102,30.846L82.209,30.846L82.319,30.846L82.423,30.846L82.527,30.846L82.74,30.846L82.846,30.846L82.958,30.846L83.06,30.846L83.165,30.846L83.378,30.846L83.484,30.846L83.595,30.846L83.697,30.846L83.804,30.846L84.017,30.846L84.123,30.846L84.234,30.846L84.336,30.846L84.442,30.846L84.655,30.846L84.762,30.846L84.874,30.846L84.975,30.846L85.081,30.846L85.293,30.846L85.401,30.846L85.512,30.846L85.614,30.846L85.719,30.846L85.932,30.846L86.039,30.846L86.151,30.846L86.252,30.846L86.358,30.846L86.57,30.846L86.677,30.846L86.789,30.846L86.89,30.846L86.996,30.846L87.209,30.846L87.315,30.846L87.427,30.846L87.529,30.846L87.634,30.846L87.847,30.846L87.954,30.846L88.065,30.846L88.166,30.846L88.273,30.846L88.486,30.846L88.592,30.846L88.703,30.846L88.806,30.846L88.911,30.846L89.125,30.846L89.231,30.846L89.343,30.846L89.444,30.846L89.55,30.846L89.762,30.846L89.869,30.846L89.982,30.846L90.083,30.846L90.188,30.846L90.401,30.846L90.508,30.846L90.62,38.538L90.722,38.538L90.826,38.538L91.039,38.538L91.146,38.538L91.258,38.538L91.36,38.538L91.465,38.538L91.679,38.538L91.785,38.538L91.897,38.538L91.998,38.538L92.104,38.538L92.317,38.538L92.423,38.538L92.534,38.538L92.636,38.538L92.742,38.538L92.955,38.538L93.061,38.538L93.172,38.538L93.274,38.538L93.381,38.538L93.593,38.538L93.7,38.538L93.812,38.538L93.914,38.538L94.019,38.538L94.234,38.538L94.339,38.538L94.451,38.538L94.552,38.538L94.657,38.538L94.871,38.538L94.977,38.538L95.089,38.538L95.19,38.538L95.296,38.538L95.51,38.538L95.616,38.538L95.728,38.538L95.829,38.538L95.934,38.538L96.148,30.846L96.254,30.846L96.366,30.846L96.467,30.846L96.572,30.846L96.785,30.846L96.892,30.846L97.003,30.846L97.105,30.846L97.211,30.846L97.424,30.846L97.53,30.846L97.642,30.846L97.743,30.846L97.849,30.846L98.063,30.846L98.17,30.846L98.282,30.846L98.383,30.846L98.488,30.846L98.701,30.846L98.808,30.846L98.92,30.846L99.022,30.846L99.126,30.846L99.34,30.846L99.446,30.846L99.559,30.846L99.66,30.846L99.765,30.846L99.978,30.846L100.085,30.846L100.197,30.846L100.298,30.846L100.403,30.846L100.617,30.846L100.723,30.846L100.836,30.846L100.938,30.846L101.042,30.846L101.255,30.846L101.361,30.846L101.473,30.846L101.575,30.846L101.68,30.846L101.893,30.846L101.999,30.846L102.111,30.846L102.213,30.846L102.318,30.846L102.532,30.846L102.639,30.846L102.751,30.846L102.852,30.846L102.957,30.846L103.171,30.846L103.277,30.846L103.389,30.846L103.491,30.846L103.596,30.846L103.809,30.846L103.916,34.692L104.028,34.692L104.129,34.692L104.234,34.692L104.447,34.692L104.554,34.692L104.666,34.692L104.768,34.692L104.873,34.692L105.086,34.692L105.192,34.692L105.305,40.077L105.405,40.077L105.511,40.077L105.725,40.077L105.831,40.077L105.942,40.077L106.044,40.077L106.149,40.077L106.362,40.077L106.469,40.077L106.581,40.077L106.682,40.077L106.788,40.077L107.002,40.077L107.108,40.077L107.22,40.077L107.321,40.077L107.426,40.077L107.639,40.077L107.746,40.077L107.859,40.077L107.96,40.077L108.064,40.077L108.278,40.077L108.385,40.077L108.497,40.077L108.598,40.077L108.703,40.077L108.916,40.077L109.023,40.077L109.135,40.077L109.238,40.077L109.341,40.077L109.555,40.077L109.661,40.077L109.773,40.077L109.875,40.077L109.98,40.077L110.193,40.077L110.299,40.077L110.412,40.077L110.513,40.077L110.618,40.077L110.831,40.077L110.937,40.077L111.049,40.077L111.151,40.077L111.256,40.077L111.47,40.077L111.577,40.077L111.689,40.077L111.79,40.077L111.895,40.077L112.108,40.077L112.215,40.077L112.327,40.077L112.534,40.077L112.748,40.077L112.854,40.077L112.966,40.077L113.067,40.077L113.172,40.077L113.386,40.077L113.492,40.077L113.605,40.077L113.706,40.077L113.811,40.077L114.024,40.077L114.131,40.077L114.243,40.077L114.344,40.077L114.449,40.077L114.663,40.077L114.769,40.077L114.88,40.077L114.982,40.077L115.088,40.077L115.3,40.077L115.407,40.077L115.519,40.077L115.621,40.077L115.726,40.077L115.939,40.077L116.046,40.077L116.159,40.077L116.26,40.077L116.364,40.077L116.578,40.077L116.684,40.077L116.796,40.077L116.898,40.077L117.003,40.077L117.216,40.077L117.323,40.077L117.435,40.077L117.537,40.077L117.641,40.077L117.855,40.077L117.961,40.077L118.074,40.077L118.174,40.077L118.28,40.077L118.494,40.077L118.599,40.077L118.712,40.077L118.813,40.077L118.918,40.077L119.132,40.077L119.238,40.077L119.349,40.077L119.451,40.077L119.557,40.077L119.769,40.077L119.876,40.077L119.988,40.077L120.089,40.077L120.195,40.077L120.409,40.077L120.515,40.077L120.627,40.077L120.729,40.077L120.833,40.077L121.047,40.077L121.154,40.077L121.267,40.077L121.367,40.077L121.472,40.077L121.685,40.077L121.792,40.077L121.905,40.077L122.005,40.077L122.11,40.077L122.324,40.077L122.43,40.077L122.543,40.077L122.643,40.077L122.749,40.077L122.962,40.077L123.069,40.077L123.181,40.077L123.282,40.077L123.387,40.077L123.6,40.077L123.706,40.077L123.818,40.077L123.92,40.077L124.025,40.077L124.24,40.077L124.346,40.077L124.464,40.077L124.564,40.077L124.664,40.077L124.878,40.077L124.984,40.077L125.097,40.077L125.198,40.077L125.302,40.077L125.516,40.077L125.623,40.077L125.733,40.077L125.837,40.077L125.941,40.077L126.154,40.077L126.261,40.077L126.374,40.077L126.475,40.077L126.579,40.077L126.793,40.077L126.9,40.077L127.013,40.077L127.113,40.077L127.218,40.077L127.432,40.077L127.538,40.077L127.65,40.077L127.752,40.077L127.856,40.077L128.07,40.077L128.176,40.077L128.288,40.077L128.389,40.077L128.495,40.077L128.708,40.077L128.814,40.077L128.926,40.077L129.029,40.077L129.133,40.077L129.347,40.077L129.454,40.077L129.566,40.077L129.667,40.077L129.771,40.077L129.985,40.077L130.092,40.077L130.204,40.077L130.306,40.077L130.41,40.077L130.623,40.077L130.73,40.077L130.843,40.077L130.944,40.077L131.048,40.077L131.263,40.077L131.369,40.077L131.481,40.077L131.582,40.077L131.687,40.077L131.901,40.077L132.007,40.077L132.119,40.077L132.221,40.077L132.325,40.077L132.539,40.077L132.645,40.077L132.758,40.077L132.858,40.077L132.964,40.077L133.177,40.077L133.283,40.077L133.395,40.077L133.497,40.077L133.602,40.077L133.816,40.077L133.923,40.077L134.035,40.077L134.136,40.077L134.241,40.077L134.454,40.077L134.561,40.077L134.674,40.077L134.774,40.077L134.879,40.077L135.092,40.077L135.198,40.077L135.312,40.077L135.413,40.077L135.517,40.077L135.731,40.077L135.838,40.077L135.951,40.077L136.051,40.077L136.156,40.077L136.37,40.077L136.476,40.077L136.589,40.077L136.69,40.077L136.794,40.077L137.008,40.077L137.114,40.077L137.226,40.077L137.328,40.077L137.433,40.077L137.647,40.077L137.752,40.077L137.865,40.077L137.965,40.077L138.072,40.077L138.285,40.077L138.392,40.077L138.505,40.077L138.605,40.077L138.71,40.077L138.924,40.077L139.03,40.077L139.143,40.077L139.243,40.077L139.348,40.077L139.562,40.077L139.668,40.077L139.782,40.077L139.883,40.077L139.987,40.077L140.201,40.077L140.307,40.077L140.42,40.077L140.521,40.077L140.625,40.077L140.839,40.077L140.946,40.077L141.058,40.077L141.159,40.077L141.264,40.077L141.478,40.077L141.583,40.077L141.696,40.077L141.798,40.077L141.902,40.077L142.116,40.077L142.222,40.077L142.334,40.077L142.435,40.077L142.541,40.077L142.754,40.077L142.861,40.077L142.974,40.077L143.075,40.077L143.179,40.077L143.392,40.077L143.499,40.077L143.612,40.077L143.713,40.077L143.817,40.077L144.031,40.077L144.138,40.077L144.251,40.077L144.352,40.077L144.456,40.077L144.669,40.077L144.776,40.077L144.889,40.077L144.989,40.077L145.094,40.077L145.308,40.077L145.415,40.077L145.527,40.077L145.628,40.077L145.733,40.077L145.946,40.077L146.052,40.077L146.164,40.077L146.266,40.077L146.372,40.077L146.585,40.077L146.691,40.077L146.803,40.077L146.904,40.077L147.009,40.077L147.223,40.077L147.33,40.077L147.443,40.077L147.543,40.077L147.648,40.077L147.863,40.077L147.968,40.077L148.081,40.077L148.181,40.077L148.287,40.077L148.5,40.077L148.607,40.077L148.718,40.077L148.821,40.077L148.925,40.077L149.138,40.077L149.245,40.077L149.358,40.077L149.46,40.077L149.563,40.077L149.777,40.077L149.884,40.077L149.996,40.077L150.097,40.077L150.202,40.077L150.416,40.077L150.521,40.077L150.634,40.077L150.735,40.077L150.84,40.077L151.054,40.077L151.16,40.077L151.272,40.077L151.373,40.077L151.479,40.077L151.693,40.077L151.8,40.077L151.912,40.077L152.013,40.077L152.117,40.077L152.331,40.077L152.438,40.077L152.551,40.077L152.651,40.077L152.756,40.077L152.97,40.077L153.076,40.077L153.189,40.077L153.291,40.077L153.394,40.077L153.608,40.077L153.715,40.077L153.828,40.077L153.928,40.077L154.032,40.077L154.247,40.077L154.353,40.077L154.466,40.077L154.566,40.077L154.671,40.077L154.885,40.077L154.991,40.077L155.104,40.077L155.205,40.077L155.31,40.077L155.524,40.077L155.63,40.077L155.743,40.077L155.843,40.077L155.948,40.077L156.162,40.077L156.269,40.077L156.382,40.077L156.483,40.077L156.587,40.077L156.8,40.077L156.907,40.077L157.02,40.077L157.121,40.077L157.225,40.077L157.439,40.077L157.546,40.077L157.659,40.077L157.759,40.077L157.864,40.077L158.078,40.077L158.184,40.077L158.297,40.077L158.397,40.077L158.502,40.077L158.716,40.077L158.822,40.077L158.935,40.077L159.037,40.077L159.14,40.077L159.354,40.077L159.46,40.077L159.572,40.077L159.673,40.077L159.778,40.077L159.992,40.077L160.099,40.077L160.211,40.077L160.313,40.077L160.417,40.077L160.631,40.077L160.739,40.077L160.851,40.077L160.951,40.077L161.056,40.077L161.27,40.077L161.376,40.077L161.49,40.077L161.59,40.077L161.694,40.077L161.909,40.077L162.015,40.077L162.128,40.077L162.228,40.077L162.332,40.077L162.547,40.077L162.654,40.077L162.766,40.077L162.867,40.077L162.971,40.077L163.185,40.077L163.292,40.077L163.405,40.077L163.505,40.077L163.609,40.077L163.823,40.077L163.93,40.077L164.042,40.077L164.143,40.077L164.248,40.077L164.462,40.077L164.568,40.077L164.681,40.077L164.782,40.077L164.886,40.077L165.101,40.077L165.208,40.077L165.321,40.077L165.421,40.077L165.525,40.077L165.737,40.077L165.846,40.077L165.959,40.077L166.059,40.077L166.163,40.077L166.377,40.077L166.484,40.077L166.597,40.077L166.697,40.077L166.802,40.077L167.016,40.077L167.123,40.077L167.236,40.077L167.336,40.077L167.44,40.077L167.654,40.077L167.761,40.077L167.874,40.077L167.974,40.077L168.079,40.077L168.293,40.077L168.398,40.077L168.511,40.077L168.612,40.077L168.716,40.077L168.932,40.077L169.037,40.077L169.15,40.077L169.25,40.077L169.355,40.077L169.569,40.077L169.677,40.077L169.79,40.077L169.89,40.077L169.994,40.077L170.208,40.077L170.316,40.077L170.429,40.077L170.529,40.077L170.633,40.077L170.847,40.077L170.954,40.077L171.067,40.077L171.168,40.077L171.271,40.077L171.485,40.077L171.592,40.077L171.706,40.077L171.805,40.077L171.909,40.077L172.123,40.077L172.23,40.077L172.344,40.077L172.444,40.077L172.762,40.077L172.868,40.077L172.981,40.077L173.081,40.077L173.186,40.077L173.4,40.077L173.507,40.077L173.619,40.077L173.72,40.077L173.824,40.077L174.039,40.077L174.147,40.077L174.26,40.077L174.36,40.077L174.463,40.077L174.678,40.077L174.785,40.077L174.898,40.077L174.998,40.077L175.102,40.077L175.316,40.077L175.423,40.077L175.536,40.077L175.636,40.077L175.741,40.077L175.955,40.077L176.061,50.077L176.175,50.077L176.275,50.077L176.379,50.077L176.593,50.077L176.699,50.077L176.813,50.077L176.913,50.077L177.017,50.077L177.231,50.077L177.337,50.077L177.45,50.077L177.55,50.077L177.655,50.077L177.869,50.077L177.976,50.077L178.088,50.077L178.189,50.077L178.293,50.077L178.508,50.077L178.615,50.077L178.729,50.077L178.829,50.077L178.933,50.077L179.146,50.077L179.254,30.846L179.366,30.846L179.467,30.846L179.57,30.846L179.785,30.846L179.892,30.846L180.005,50.077L180.105,50.077L180.209,50.077L180.423,50.077L180.53,50.077L180.644,50.077L180.743,50.077L180.848,50.077L181.062,50.077L181.168,50.077L181.282,50.077L181.382,50.077L181.487,50.077L181.7,50.077L181.806,50.077L181.919,50.077L182.02,50.077L182.124,50.077L182.339,50.077L182.445,50.077L182.558,50.077L182.658,50.077L182.763,50.077L182.977,50.077L183.084,50.077L183.198,50.077L183.298,50.077L183.401,50.077L183.616,50.077L183.723,50.077L183.836,50.077L183.936,50.077L184.04,50.077L184.254,50.077L184.361,50.077L184.474,50.077L184.574,50.077L184.678,50.077L184.893,50.077L184.999,50.077L185.113,50.077L185.213,50.077L185.317,50.077L185.531,50.077L185.638,50.077L185.751,50.077L185.851,50.077L185.955,50.077L186.169,50.077L186.275,50.077L186.388,50.077L186.489,50.077L186.594,50.077L186.808,50.077L186.914,50.077L187.027,50.077L187.127,50.077L187.232,50.077L187.446,50.077L187.553,50.077L187.667,50.077L187.767,50.077L187.871,50.077L188.085,50.077L188.192,50.077L188.305,50.077L188.405,50.077L188.509,50.077L188.723,50.077L188.83,50.077L188.943,50.077L189.044,50.077L189.148,50.077L189.362,50.077L189.469,50.077L189.582,50.077L189.682,50.077L189.786,50.077L190,50.077L190.107,50.077L190.22,50.077L190.32,50.077L190.424,50.077L190.638,50.077L190.745,50.077L190.857,50.077L190.958,50.077L191.062,50.077L191.277,50.077L191.384,50.077L191.496,50.077L191.596,50.077L191.702,50.077L191.916,50.077L192.023,50.077L192.136,50.077L192.237,50.077L192.34,50.077L192.554,50.077L192.661,50.077L192.775,50.077L192.875,50.077L192.978,50.077L193.192,50.077L193.3,50.077L193.413,50.077L193.513,50.077L193.617,50.077L194.051,50.077L194.151,50.077L194.255,50.077L194.469,50.077L194.575,50.077L194.689,50.077L194.789,50.077L194.893,50.077L195.107,50.077L195.214,50.077L195.326,50.077L195.428,50.077L195.531,50.077L195.745,50.077L195.852,50.077L195.965,50.077L196.065,50.077L196.17,50.077L196.384,50.077L196.491,50.077L196.605,50.077L196.704,50.077L196.808,50.077L197.022,50.077L197.13,50.077L197.242,50.077L197.342,50.077L197.447,50.077L197.661,50.077L197.768,50.077L197.881,50.077L197.981,50.077L198.085,50.077L198.299,50.077L198.406,50.077L198.519,50.077L198.62,50.077L198.724,50.077L198.938,50.077L199.044,50.077L199.158,50.077L199.258,50.077L199.362,50.077L199.576,50.077L199.682,50.077L199.795,50.077L199.896,50.077L200,50.077" stroke="#f58518" stroke-width="2"/></g></g><path class="foreground" aria-hidden="true" d="" display="none"/></g></g><g class="mark-group role-legend" role="graphics-symbol" aria-roledescription="legend" aria-label="Symbol legend titled 'identifier' for stroke color with 2 values: altex-LG-F2WR508SBW, altex-LG-F2WR508SBM"><g transform="translate(220,0)"><path class="background" aria-hidden="true" d="M0,0h168v40h-168Z" pointer-events="none"/><g><g class="mark-group role-legend-entry"><g transform="translate(0,16)"><path class="background" aria-hidden="true" d="M0,0h0v0h0Z" pointer-events="none"/><g><g class="mark-group role-scope" role="graphics-object" aria-roledescription="group mark container"><g transform="translate(0,0)"><path class="background" aria-hidden="true" d="M0,0h168v11h-168Z" pointer-events="none" opacity="1"/><g><g class="mark-symbol role-legend-symbol" pointer-events="none"><path transform="translate(6,6)" d="M-5,0L5,0" stroke="#4c78a8" stroke-width="1.5" opacity="1"/></g><g class="mark-text role-legend-label" pointer-events="none"><text text-anchor="start" transform="translate(16,9)" font-family="Liberation Mono" font-size="10px" fill="#000" opacity="1">altex-LG-F2WR508SBW</text></g></g><path class="foreground" aria-hidden="true" d="" pointer-events="none" display="none"/></g><g transform="translate(0,13)"><path class="background" aria-hidden="true" d="M0,0h168v11h-168Z" pointer-events="none" opacity="1"/><g><g class="mark-symbol role-legend-symbol" pointer-events="none"><path transform="translate(6,6)" d="M-5,0L5,0" stroke="#f58518" stroke-width="1.5" opacity="1"/></g><g class="mark-text role-legend-label" pointer-events="none"><text text-anchor="start" transform="translate(16,9)" font-family="Liberation Mono" font-size="10px" fill="#000" opacity="1">altex-LG-F2WR508SBM</text></g></g><path class="foreground" aria-hidden="true" d="" pointer-events="none" display="none"/></g></g></g><path class="foreground" aria-hidden="true" d="" pointer-events="none" display="none"/></g></g><g class="mark-text role-legend-title" pointer-events="none"><text text-anchor="start" transform="translate(0,9)" font-family="Liberation Mono" font-size="11px" font-weight="bold" fill="#000" opacity="1">identifier</text></g></g><path class="foreground" aria-hidden="true" d="" pointer-events="none" display="none"/></g></g></g><path class="foreground" aria-hidden="true" d="" display="none"/></g></g></g></svg>