<svg xmlns="http://www.w3.org/2000/svg" xmlns:xlink="http://www.w3.org/1999/xlink" version="1.1" class="marks" width="460" height="242" viewBox="0 0 460 242"><rect width="460" height="242" fill="white"/><g fill="none" stroke-miterlimit="10" transform="translate(67,5)"><g class="mark-group role-frame root" role="graphics-object" aria-roledescription="group mark container"><g transform="translate(0,0)"><path class="background" aria-hidden="true" d="M0.5,0.5h200v200h-200Z" stroke="#ddd"/><g><g class="mark-group role-axis" aria-hidden="true"><g transform="translate(0.5,200.5)"><path class="background" aria-hidden="true" d="M0,0h0v0h0Z" pointer-events="none"/><g><g class="mark-rule role-axis-grid" pointer-events="none"><line transform="translate(31,-200)" x2="0" y2="200" stroke="#ddd" stroke-width="1" opacity="1"/><line transform="translate(60,-200)" x2="0" y2="200" stroke="#ddd" stroke-width="1" opacity="1"/><line transform="translate(91,-200)" x2="0" y2="200" stroke="#ddd" stroke-width="1" opacity="1"/><line transform="translate(122,-200)" x2="0" y2="200" stroke="#ddd" stroke-width="1" opacity="1"/><line transform="translate(153,-200)" x2="0" y2="200" stroke="#ddd" stroke-width="1" opacity="1"/><line transform="translate(183,-200)" x2="0" y2="200" stroke="#ddd" stroke-width="1" opacity="1"/></g></g><path class="foreground" aria-hidden="true" d="" pointer-events="none" display="none"/></g></g><g class="mark-group role-axis" aria-hidden="true"><g transform="translate(0.5,0.5)"><path class="background" aria-hidden="true" d="M0,0h0v0h0Z" pointer-events="none"/><g><g class="mark-rule role-axis-grid" pointer-events="none"><line transform="translate(0,200)" x2="200" y2="0" stroke="#ddd" stroke-width="1" opacity="1"/><line transform="translate(0,162)" x2="200" y2="0" stroke="#ddd" stroke-width="1" opacity="1"/><line transform="translate(0,123)" x2="200" y2="0" stroke="#ddd" stroke-width="1" opacity="1"/><line transform="translate(0,85)" x2="200" y2="0" stroke="#ddd" stroke-width="1" opacity="1"/><line transform="translate(0,46)" x2="200" y2="0" stroke="#ddd" stroke-width="1" opacity="1"/><line transform="translate(0,8)" x2="200" y2="0" stroke="#ddd" stroke-width="1" opacity="1"/></g></g><path class="foreground" aria-hidden="true" d="" pointer-events="none" display="none"/></g></g><g class="mark-group role-axis" role="graphics-symbol" aria-roledescription="axis" aria-label="X-axis titled 'Time' for a time scale with values from Monday, 01 January 2024, 2:19:43 PM to Wednesday, 17 July 2024, 8:41:18 AM"><g transform="translate(0.5,200.5)"><path class="background" aria-hidden="true" d="M0,0h0v0h0Z" pointer-events="none"/><g><g class="mark-rule role-axis-tick" pointer-events="none"><line transform="translate(31,0)" x2="0" y2="5" stroke="#888" stroke-width="1" opacity="1"/><line transform="translate(60,0)" x2="0" y2="5" stroke="#888" stroke-width="1" opacity="1"/><line transform="translate(91,0)" x2="0" y2="5" stroke="#888" stroke-width="1" opacity="1"/><line transform="translate(122,0)" x2="0" y2="5" stroke="#888" stroke-width="1" opacity="1"/><line transform="translate(153,0)" x2="0" y2="5" stroke="#888" stroke-width="1" opacity="1"/><line transform="translate(183,0)" x2="0" y2="5" stroke="#888" stroke-width="1" opacity="1"/></g><g class="mark-text role-axis-label" pointer-events="none"><text text-anchor="middle" transform="translate(30.746567385624136,15)" font-family="Liberation Mono" font-size="10px" fill="#000" opacity="1">February</text><text text-anchor="middle" transform="translate(60.074306151114264,15)" font-family="Liberation Mono" font-size="10px" fill="#000" opacity="0">March</text><text text-anchor="middle" transform="translate(91.42464759008647,15)" font-family="Liberation Mono" font-size="10px" fill="#000" opacity="1">April</text><text text-anchor="middle" transform="translate(121.76368769231765,15)" font-family="Liberation Mono" font-size="10px" fill="#000" opacity="0">May</text><text text-anchor="middle" transform="translate(153.11402913128984,15)" font-family="Liberation Mono" font-size="10px" fill="#000" opacity="1">June</text><text text-anchor="middle" transform="translate(183.45306923352103,15)" font-family="Liberation Mono" font-size="10px" fill="#000" opacity="0">July</text></g><g class="mark-rule role-axis-domain" pointer-events="none"><line transform="translate(0,0)" x2="200" y2="0" stroke="#888" stroke-width="1" opacity="1"/></g><g class="mark-text role-axis-title" pointer-events="none"><text text-anchor="middle" transform="translate(100,30)" font-family="Liberation Mono" font-size="11px" font-weight="bold" fill="#000" opacity="1">Time</text></g></g><path class="foreground" aria-hidden="true" d="" pointer-events="none" display="none"/></g></g><g class="mark-group role-axis" role="graphics-symbol" aria-roledescription="axis" aria-label="Y-axis titled 'Price' for a linear scale with values from 0 to 2,600"><g transform="translate(0.5,0.5)"><path class="background" aria-hidden="true" d="M0,0h0v0h0Z" pointer-events="none"/><g><g class="mark-rule role-axis-tick" pointer-events="none"><line transform="translate(0,200)" x2="-5" y2="0" stroke="#888" stroke-width="1" opacity="1"/><line transform="translate(0,162)" x2="-5" y2="0" stroke="#888" stroke-width="1" opacity="1"/><line transform="translate(0,123)" x2="-5" y2="0" stroke="#888" stroke-width="1" opacity="1"/><line transform="translate(0,85)" x2="-5" y2="0" stroke="#888" stroke-width="1" opacity="1"/><line transform="translate(0,46)" x2="-5" y2="0" stroke="#888" stroke-width="1" opacity="1"/><line transform="translate(0,8)" x2="-5" y2="0" stroke="#888" stroke-width="1" opacity="1"/></g><g class="mark-text role-axis-label" pointer-events="none"><text text-anchor="end" transform="translate(-7,203)" font-family="Liberation Mono" font-size="10px" fill="#000" opacity="1">0</text><text text-anchor="end" transform="translate(-7,164.53846153846155)" font-family="Liberation Mono" font-size="10px" fill="#000" opacity="1">500</text><text text-anchor="end" transform="translate(-7,126.07692307692308)" font-family="Liberation Mono" font-size="10px" fill="#000" opacity="1">1,000</text><text text-anchor="end" transform="translate(-7,87.61538461538463)" font-family="Liberation Mono" font-size="10px" fill="#000" opacity="1">1,500</text><text text-anchor="end" transform="translate(-7,49.153846153846146)" font-family="Liberation Mono" font-size="10px" fill="#000" opacity="1">2,000</text><text text-anchor="end" transform="translate(-7,10.692307692307686)" font-family="Liberation Mono" font-size="10px" fill="#000" opacity="1">2,500</text></g><g class="mark-rule role-axis-domain" pointer-events="none"><line transform="translate(0,200)" x2="0" y2="-200" stroke="#888" stroke-width="1" opacity="1"/></g><g class="mark-text role-axis-title" pointer-events="none"><text text-anchor="middle" transform="translate(-51,100) rotate(-90) translate(0,-2)" font-family="Liberation Mono" font-size="11px" font-weight="bold" fill="#000" opacity="1">Price</text></g></g><path class="foreground" aria-hidden="true" d="" pointer-events="none" display="none"/></g></g><g class="mark-group role-scope pathgroup" role="graphics-object" aria-roledescription="group mark container"><g transform="translate(0,0)"><path class="background" aria-hidden="true" d="M0,0h200v200h-200Z"/><g><g class="mark-line role-mark marks" role="graphics-object" aria-roledescription="line mark container"><path aria-label="Time: Jan 01, 2024; Price: 2399; identifier: altex-LG-F2WR508SBW" role="graphics-symbol" aria-roledescription="line mark" d="M0,15.462L0.106,15.462L0.266,15.462L0.603,15.462L0.772,15.462L0.949,15.462L1.11,15.462L1.277,15.462L1.614,15.462L1.783,15.462L1.961,15.462L2.122,15.462L2.288,15.462L2.626,15.462L2.795,15.462L2.972,15.462L3.134,15.462L3.3,15.462L3.638,34.692L3.806,34.692L3.983,34.692L4.145,34.692L4.311,34.692L4.649,34.692L4.817,34.692L4.994,34.692L5.155,34.692L5.322,34.692L5.661,34.692L5.828,34.692L6.005,34.692L6.167,34.692L6.334,34.692L6.672,34.692L6.841,34.692L7.018,34.692L7.179,34.692L7.345,34.692L7.683,34.692L7.852,34.692L8.031,34.692L8.191,34.692L8.356,34.692L8.695,34.692L8.863,34.692L9.041,34.692L9.201,34.692L9.368,34.692L9.706,34.692L9.874,34.692L10.052,34.692L10.213,34.692L10.379,34.692L10.717,34.692L10.886,34.692L11.063,34.692L11.224,34.692L11.39,34.692L11.728,46.231L11.896,46.231L12.072,46.231L12.235,46.231L12.401,46.231L12.74,46.231L12.907,46.231L13.084,46.231L13.245,46.231L13.413,46.231L13.751,46.231L13.92,46.231L14.098,46.231L14.259,46.231L14.424,46.231L14.762,46.231L14.931,46.231L15.109,46.231L15.27,46.231L15.435,46.231L15.773,46.231L15.943,46.231L16.12,46.231L16.281,46.231L16.447,46.231L16.784,46.231L16.953,46.231L17.131,46.231L17.292,46.231L17.458,46.231L17.796,46.231L17.965,46.231L18.142,46.231L18.304,46.231L18.469,46.231L18.807,46.231L18.975,46.231L19.152,46.231L19.314,46.231L19.481,46.231L19.818,46.231L19.986,46.231L20.163,46.231L20.325,46.231L20.492,46.231L20.831,46.231L21,46.231L21.177,46.231L21.337,46.231L21.503,46.231L21.841,46.231L22.011,46.231L22.188,46.231L22.35,46.231L22.515,46.231L22.853,46.231L23.022,46.231L23.2,46.231L23.36,46.231L23.526,46.231L23.864,46.231L24.033,46.231L24.211,46.231L24.372,46.231L24.537,46.231L24.875,46.231L25.044,46.231L25.219,46.231L25.38,46.231L25.549,46.231L25.885,46.231L26.055,46.231L26.228,46.231L26.391,46.231L26.559,46.231L26.897,46.231L27.065,46.231L27.239,46.231L27.403,46.231L27.571,46.231L27.908,46.231L28.077,46.231L28.252,46.231L28.414,46.231L28.583,46.231L28.919,46.231L29.088,46.231L29.263,46.231L29.427,46.231L29.593,46.231L29.931,46.231L30.099,46.231L30.275,46.231L30.436,46.231L30.605,46.231L30.942,34.692L31.111,34.692L31.286,34.692L31.448,34.692L31.616,34.692L31.954,34.692L32.122,34.692L32.297,34.692L32.459,34.692L32.628,34.692L32.965,34.692L33.133,34.692L33.307,34.692L33.47,34.692L33.639,34.692L33.977,34.692L34.145,34.692L34.318,34.692L34.481,34.692L34.65,34.692L34.987,34.692L35.156,34.692L35.332,34.692L35.493,34.692L35.661,34.692L35.998,34.692L36.167,34.692L36.343,34.692L36.505,34.692L36.673,34.692L37.01,34.692L37.179,34.692L37.354,34.692L37.517,34.692L37.684,34.692L38.021,34.692L38.19,34.692L38.365,34.692L38.528,34.692L38.695,34.692L39.033,34.692L39.201,34.692L39.376,34.692L39.538,34.692L39.707,34.692L40.044,34.692L40.212,34.692L40.387,34.692L40.549,34.692L40.718,34.692L41.056,34.692L41.224,34.692L41.397,34.692L41.561,34.692L41.729,34.692L42.067,34.692L42.235,34.692L42.411,34.692L42.572,34.692L42.74,34.692L43.077,34.692L43.246,34.692L43.421,34.692L43.586,34.692L43.752,34.692L44.089,34.692L44.258,34.692L44.433,34.692L44.595,34.692L44.763,34.692L45.269,34.692L45.444,34.692L45.606,34.692L45.775,34.692L46.112,34.692L46.28,34.692L46.455,34.692L46.618,34.692L46.786,34.692L47.123,34.692L47.291,34.692L47.465,34.692L47.628,34.692L47.797,34.692L48.134,34.692L48.304,34.692L48.477,34.692L48.64,34.692L48.808,34.692L49.145,34.692L49.315,34.692L49.49,34.692L49.653,34.692L49.82,34.692L50.157,34.692L50.325,34.692L50.5,34.692L50.663,34.692L50.831,34.692L51.168,34.692L51.337,34.692L51.512,34.692L51.675,34.692L51.843,34.692L52.179,34.692L52.348,34.692L52.523,34.692L52.686,34.692L52.854,34.692L53.191,34.692L53.359,34.692L53.534,34.692L53.696,34.692L53.866,34.692L54.202,34.692L54.371,34.692L54.544,34.692L54.708,34.692L54.876,34.692L55.213,34.692L55.382,34.692L55.556,34.692L55.72,34.692L55.887,34.692L56.224,34.692L56.394,34.692L56.569,34.692L56.731,34.692L56.899,34.692L57.236,34.692L57.405,34.692L57.579,34.692L57.742,34.692L57.91,34.692L58.247,34.692L58.416,34.692L58.591,34.692L58.754,34.692L58.921,34.692L59.258,34.692L59.427,34.692L59.602,34.692L59.764,34.692L59.932,34.692L60.27,34.692L60.439,34.692L60.614,34.692L60.776,34.692L60.944,34.692L61.281,34.692L61.45,34.692L61.625,34.692L61.787,34.692L61.955,34.692L62.292,34.692L62.461,34.692L62.635,34.692L62.798,34.692L62.967,34.692L63.319,34.692L63.549,34.692L63.65,34.692L63.81,34.692L63.978,34.692L64.315,34.692L64.483,34.692L64.66,34.692L64.821,34.692L64.989,34.692L65.326,34.692L65.496,34.692L65.671,34.692L65.833,34.692L66,34.692L66.337,34.692L66.507,34.692L66.681,34.692L66.843,34.692L67.012,34.692L67.349,34.692L67.52,34.692L67.693,34.692L67.854,34.692L68.023,34.692L68.36,34.692L68.529,34.692L68.702,34.692L68.867,34.692L69.034,34.692L69.371,34.692L69.541,34.692L69.714,34.692L69.878,34.692L70.046,34.692L70.384,34.692L70.551,34.692L70.727,34.692L70.89,34.692L71.057,34.692L71.394,34.692L71.563,34.692L71.738,34.692L71.901,34.692L72.068,34.692L72.406,34.692L72.575,34.692L72.75,34.692L72.911,34.692L73.08,34.692L73.417,34.692L73.585,34.692L73.761,34.692L73.923,34.692L74.091,34.692L74.428,34.692L74.598,34.692L74.772,34.692L74.934,34.692L75.102,34.692L75.439,34.692L75.609,34.692L75.783,34.692L75.945,34.692L76.114,34.692L76.451,34.692L76.62,34.692L76.793,34.692L76.956,34.692L77.125,34.692L77.462,34.692L77.63,34.692L77.807,34.692L77.969,34.692L78.137,34.692L78.474,34.692L78.642,34.692L78.817,34.692L78.981,34.692L79.147,34.692L79.484,34.692L79.653,34.692L79.829,34.692L79.992,34.692L80.159,34.692L80.496,34.692L80.665,34.692L80.841,34.692L81.004,34.692L81.17,34.692L81.507,34.692L81.676,34.692L81.851,34.692L82.013,34.692L82.182,34.692L82.519,34.692L82.687,34.692L82.862,34.692L83.024,34.692L83.192,34.692L83.53,34.692L83.698,34.692L83.874,34.692L84.035,34.692L84.204,34.692L84.541,34.692L84.71,34.692L84.885,34.692L85.047,34.692L85.215,34.692L85.552,34.692L85.722,34.692L85.897,34.692L86.06,34.692L86.226,34.692L86.565,34.692L86.733,34.692L86.909,34.692L87.072,34.692L87.238,34.692L87.575,34.692L87.743,34.692L87.92,34.692L88.082,34.692L88.249,34.692L88.587,34.692L88.755,34.692L88.931,34.692L89.093,34.692L89.26,34.692L89.597,34.692L89.766,34.692L89.94,34.692L90.104,34.692L90.272,34.692L90.609,34.692L90.778,34.692L90.952,34.692L91.115,34.692L91.283,34.692L91.62,34.692L91.79,34.692L91.966,34.692L92.128,34.692L92.294,34.692L92.632,34.692L92.8,34.692L92.977,34.692L93.139,34.692L93.305,34.692L93.643,34.692L93.811,34.692L93.987,34.692L94.15,34.692L94.317,34.692L94.655,34.692L94.823,34.692L94.998,34.692L95.161,34.692L95.328,34.692L95.667,34.692L96.009,34.692L96.172,34.692L96.34,34.692L96.677,34.692L96.846,34.692L97.019,34.692L97.182,34.692L97.351,34.692L97.688,34.692L97.856,34.692L98.031,34.692L98.194,34.692L98.362,34.692L98.7,34.692L98.868,34.692L99.044,34.692L99.206,34.692L99.373,34.692L99.711,34.692L99.879,34.692L100.055,34.692L100.217,34.692L100.385,34.692L100.722,34.692L100.891,34.692L101.067,34.692L101.23,34.692L101.397,34.692L101.734,34.692L101.903,34.692L102.078,34.692L102.408,34.692L102.745,34.692L102.914,34.692L103.089,34.692L103.25,34.692L103.419,34.692L103.756,34.692L103.924,34.692L104.096,34.692L104.261,34.692L104.43,34.692L104.782,34.692L105.042,34.692L105.2,34.692L105.527,34.692L105.781,34.692L105.947,34.692L106.121,34.692L106.284,34.692L106.453,34.692L106.79,34.692L106.958,34.692L107.135,34.692L107.295,34.692L107.464,34.692L107.801,34.692L107.969,34.692L108.146,34.692L108.309,34.692L108.476,34.692L108.981,34.692L109.157,34.692L109.319,34.692L109.487,34.692L109.823,34.692L109.992,34.692L110.168,34.692L110.331,34.692L110.498,34.692L110.835,34.692L111.003,34.692L111.178,34.692L111.341,34.692L111.509,34.692L111.847,34.692L112.015,34.692L112.19,34.692L112.352,34.692L112.521,34.692L112.857,34.692L113.027,34.692L113.203,34.692L113.364,34.692L113.532,34.692L113.869,34.692L114.037,34.692L114.214,34.692L114.376,34.692L114.544,34.692L114.88,34.692L115.05,34.692L115.23,34.692L115.387,34.692L115.555,34.692L115.891,34.692L116.061,34.692L116.232,34.692L116.398,34.692L116.566,34.692L116.903,34.692L117.072,34.692L117.248,34.692L117.409,34.692L117.578,34.692L117.914,34.692L118.082,34.692L118.257,34.692L118.419,34.692L118.588,34.692L118.925,34.692L119.094,34.692L119.27,34.692L119.431,34.692L119.599,34.692L119.936,34.692L120.107,34.692L120.282,34.692L120.443,34.692L120.611,34.692L120.948,34.692L121.117,34.692L121.294,34.692L121.455,34.692L121.622,34.692L121.959,34.692L122.131,34.692L122.305,34.692L122.466,34.692L122.633,34.692L122.971,57.769L123.139,57.769L123.317,57.769L123.477,57.769L123.646,57.769L123.983,57.769L124.15,57.769L124.327,57.769L124.489,57.769L124.656,57.769L124.993,57.769L125.162,57.769L125.337,57.769L125.499,57.769L125.667,57.769L126.004,57.769L126.174,57.769L126.349,57.769L126.511,57.769L126.678,57.769L127.016,57.769L127.185,57.769L127.362,57.769L127.524,57.769L127.69,57.769L128.027,57.769L128.196,57.769L128.372,57.769L128.534,57.769L128.702,57.769L129.038,57.769L129.208,57.769L129.386,57.769L129.547,57.769L129.712,57.769L130.051,34.692L130.22,34.692L130.395,34.692L130.559,34.692L130.724,34.692L131.061,34.692L131.23,34.692L131.408,34.692L131.568,34.692L131.735,34.692L132.072,34.692L132.241,34.692L132.416,34.692L132.578,34.692L132.746,34.692L133.084,34.692L133.252,34.692L133.429,34.692L133.59,34.692L133.758,34.692L134.095,34.692L134.264,34.692L134.442,34.692L134.602,34.692L134.77,34.692L135.106,34.692L135.276,34.692L135.453,34.692L135.614,34.692L135.78,34.692L136.118,34.692L136.287,34.692L136.465,34.692L136.625,34.692L136.792,34.692L137.129,34.692L137.298,34.692L137.476,34.692L137.636,34.692L137.803,34.692L138.14,34.692L138.309,34.692L138.486,34.692L138.647,34.692L138.814,34.692L139.151,34.692L139.32,34.692L139.497,34.692L139.657,34.692L139.825,34.692L140.164,34.692L140.332,34.692L140.508,34.692L140.67,34.692L140.837,34.692L141.176,34.692L141.343,34.692L141.521,34.692L141.682,34.692L141.849,34.692L142.185,34.692L142.355,34.692L142.533,34.692L142.692,34.692L142.86,34.692L143.197,34.692L143.366,34.692L143.544,34.692L143.705,34.692L143.871,34.692L144.208,34.692L144.377,34.692L144.554,34.692L144.716,34.692L144.882,34.692L145.221,34.692L145.388,34.692L145.566,34.692L145.726,34.692L145.894,34.692L146.231,34.692L146.4,34.692L146.575,34.692L146.737,34.692L146.905,34.692L147.243,34.692L147.41,34.692L147.587,34.692L147.748,34.692L147.917,34.692L148.254,34.692L148.423,34.692L148.6,34.692L148.761,34.692L148.927,34.692L149.268,34.692L149.434,34.692L149.611,34.692L149.772,34.692L149.938,34.692L150.278,34.692L150.446,34.692L150.623,34.692L150.783,34.692L150.95,34.692L151.289,34.692L151.457,34.692L151.634,34.692L151.794,34.692L151.961,34.692L152.3,34.692L152.468,34.692L152.645,34.692L152.806,34.692L152.972,34.692L153.31,34.692L153.478,34.692L153.655,34.692L153.816,34.692L153.984,34.692L154.322,34.692L154.49,34.692L154.666,34.692L154.827,34.692L154.995,34.692L155.333,34.692L155.502,34.692L155.681,34.692L155.84,34.692L156.007,34.692L156.344,34.692L156.514,34.692L156.691,34.692L156.852,34.692L157.018,34.692L157.357,34.692L157.525,34.692L157.702,34.692L157.863,34.692L158.029,34.692L158.367,34.692L158.536,34.692L158.714,34.692L158.873,34.692L159.04,34.692L159.379,34.692L159.548,34.692L159.726,34.692L159.887,34.692L160.052,34.692L160.389,34.692L160.557,34.692L160.734,34.692L160.896,34.692L161.063,34.692L161.4,34.692L161.568,34.692L161.746,34.692L161.907,34.692L162.074,34.692L162.413,34.692L162.582,34.692L162.76,34.692L162.92,34.692L163.085,34.692L163.424,34.692L163.593,34.692L163.771,34.692L163.931,34.692L164.098,34.692L164.435,34.692L164.604,46.231L164.782,46.231L164.942,46.231L165.108,46.231L165.446,46.231L165.615,46.231L165.793,46.231L165.955,46.231L166.12,46.231L166.457,46.231L166.626,46.231L166.804,48.538L166.964,48.538L167.131,48.538L167.47,48.538L167.638,48.538L167.814,48.538L167.975,48.538L168.142,48.538L168.479,48.538L168.649,48.538L168.826,48.538L168.986,48.538L169.153,48.538L169.492,48.538L169.661,48.538L169.839,48.538L169.998,48.538L170.165,48.538L170.502,48.538L170.672,48.538L170.85,48.538L171.01,48.538L171.176,48.538L171.514,48.538L171.683,48.538L171.862,48.538L172.021,48.538L172.187,48.538L172.525,48.538L172.694,48.538L172.872,48.538L173.034,48.538L173.199,48.538L173.537,48.538L173.706,48.538L173.883,48.538L174.043,48.538L174.21,48.538L174.547,48.538L174.716,48.538L174.895,48.538L175.054,48.538L175.221,48.538L175.559,48.538L175.727,48.538L175.904,48.538L176.065,48.538L176.232,48.538L176.571,48.538L176.74,48.538L176.918,48.538L177.077,48.538L177.244,48.538L177.582,48.538L177.751,48.538L177.929,48.538L178.256,48.538L178.594,48.538L178.762,48.538L178.941,48.538L179.1,48.538L179.267,48.538L179.606,48.538L179.774,48.538L179.952,48.538L180.112,48.538L180.278,48.538L180.616,48.538L180.785,48.538L180.963,48.538L181.122,48.538L181.29,48.538L181.627,48.538L181.796,48.538L181.973,48.538L182.133,48.538L182.301,48.538L182.638,48.538L182.806,48.538L182.984,48.538L183.145,48.538L183.312,48.538L183.65,48.538L183.819,48.538L183.998,48.538L184.158,48.538L184.323,48.538L184.661,48.538L184.83,48.538L185.007,48.538L185.169,48.538L185.335,48.538L185.672,48.538L185.842,48.538L186.019,48.538L186.18,48.538L186.345,48.538L186.684,48.538L186.853,48.538L187.031,48.538L187.19,48.538L187.357,48.538L187.696,48.538L187.864,48.538L188.041,48.538L188.202,48.538L188.368,48.538L188.706,48.538L188.874,48.538L189.051,48.538L189.213,48.538L189.38,48.538L189.717,48.538L189.885,48.538L190.062,48.538L190.223,48.538L190.391,48.538L190.729,48.538L190.898,48.538L191.075,48.538L191.236,48.538L191.402,48.538L191.74,48.538L191.91,48.538L192.088,48.538L192.248,48.538L192.414,48.538L192.752,48.538L192.921,48.538L193.099,48.538L193.259,48.538L193.425,48.538L193.763,48.538L193.932,48.538L194.11,48.538L194.269,48.538L194.436,48.538L194.774,48.538L194.943,48.538L195.121,48.538L195.281,48.538L195.448,48.538L195.785,48.538L195.953,48.538L196.13,48.538L196.291,48.538L196.458,48.538L196.798,48.538L196.967,48.538L197.153,48.538L197.312,48.538L197.47,48.538L197.809,48.538L197.977,48.538L198.156,48.538L198.316,48.538L198.481,48.538L198.82,48.538L198.989,48.538L199.164,48.538L199.328,48.538L199.492,48.538L199.83,48.538L200,48.538" stroke="#4c78a8" stroke-width="2"/></g></g><path class="foreground" aria-hidden="true" d="" display="none"/></g><g transform="translate(0,0)"><path class="background" aria-hidden="true" d="M0,0h200v200h-200Z"/><g><g class="mark-line role-mark marks" role="graphics-object" aria-roledescription="line mark container"><path aria-label="Time: Jan 01, 2024; Price: 2499; identifier: altex-LG-F2WR508SBM" role="graphics-symbol" aria-roledescription="line mark" d="M0,7.769L0.106,7.769L0.266,7.769L0.603,7.769L0.772,7.769L0.949,7.769L1.11,7.769L1.277,7.769L1.615,7.769L1.783,7.769L1.961,7.769L2.122,7.769L2.288,7.769L2.626,7.769L2.795,7.769L2.972,7.769L3.134,7.769L3.3,7.769L3.638,27L3.806,27L3.983,27L4.145,27L4.311,27L4.649,27L4.817,27L4.994,27L5.155,27L5.322,27L5.661,27L5.828,27L6.005,27L6.167,27L6.334,27L6.672,27L6.841,27L7.018,27L7.179,27L7.345,27L7.683,27L7.852,27L8.031,27L8.191,27L8.356,27L8.695,27L8.863,27L9.041,27L9.201,27L9.368,27L9.706,27L9.874,27L10.052,27L10.213,27L10.379,27L10.717,27L10.886,27L11.063,27L11.224,27L11.39,27L11.728,38.538L11.896,38.538L12.072,38.538L12.235,38.538L12.401,38.538L12.74,38.538L12.907,38.538L13.084,38.538L13.245,38.538L13.413,38.538L13.751,38.538L13.92,38.538L14.098,38.538L14.259,38.538L14.424,38.538L14.762,38.538L14.931,38.538L15.109,38.538L15.271,38.538L15.435,38.538L15.773,38.538L15.943,38.538L16.12,38.538L16.281,38.538L16.447,38.538L16.785,38.538L16.953,38.538L17.131,38.538L17.292,38.538L17.459,38.538L17.796,38.538L17.965,38.538L18.142,38.538L18.304,38.538L18.469,38.538L18.807,38.538L18.975,38.538L19.152,38.538L19.314,38.538L19.481,38.538L19.818,38.538L19.986,38.538L20.163,38.538L20.325,38.538L20.492,38.538L20.831,38.538L21,38.538L21.177,38.538L21.338,38.538L21.503,38.538L21.841,38.538L22.011,38.538L22.188,38.538L22.35,38.538L22.515,38.538L22.853,38.538L23.022,38.538L23.2,38.538L23.361,38.538L23.526,38.538L23.865,38.538L24.033,38.538L24.211,38.538L24.372,38.538L24.537,38.538L24.875,38.538L25.044,38.538L25.219,38.538L25.38,38.538L25.549,38.538L25.886,38.538L26.055,38.538L26.228,38.538L26.391,38.538L26.559,38.538L26.897,38.538L27.066,38.538L27.239,38.538L27.403,38.538L27.571,38.538L27.908,38.538L28.077,38.538L28.252,38.538L28.414,38.538L28.583,38.538L28.919,38.538L29.088,38.538L29.263,38.538L29.427,38.538L29.594,38.538L29.931,38.538L30.099,38.538L30.275,38.538L30.436,38.538L30.605,38.538L30.942,27L31.111,27L31.286,27L31.448,27L31.616,27L31.954,27L32.122,27L32.297,27L32.459,27L32.628,27L32.965,27L33.133,27L33.307,27L33.47,27L33.639,27L33.977,27L34.145,27L34.318,27L34.481,27L34.65,27L34.987,27L35.156,27L35.332,27L35.493,27L35.661,27L35.999,27L36.167,27L36.343,27L36.505,27L36.673,27L37.01,27L37.179,27L37.354,27L37.517,27L37.684,27L38.021,27L38.19,27L38.365,27L38.528,27L38.695,27L39.033,27L39.201,27L39.376,27L39.538,27L39.707,27L40.044,27L40.212,27L40.387,27L40.549,27L40.718,27L41.056,27L41.224,27L41.398,27L41.561,27L41.729,27L42.067,27L42.235,27L42.411,27L42.572,27L42.74,27L43.077,27L43.246,27L43.421,27L43.586,27L43.752,27L44.089,27L44.258,27L44.433,27L44.595,27L44.763,27L45.269,27L45.444,27L45.606,27L45.775,27L46.112,27L46.28,27L46.455,27L46.618,27L46.786,27L47.123,27L47.291,27L47.465,27L47.628,27L47.797,27L48.134,27L48.304,27L48.477,27L48.64,27L48.808,27L49.145,27L49.315,27L49.49,27L49.653,27L49.82,27L50.157,27L50.326,27L50.5,27L50.663,27L50.831,27L51.168,27L51.337,27L51.512,27L51.675,27L51.843,27L52.179,27L52.348,27L52.523,27L52.686,27L52.854,27L53.191,27L53.359,27L53.534,27L53.696,27L53.866,27L54.202,27L54.371,27L54.544,27L54.708,27L54.876,27L55.213,27L55.382,27L55.556,27L55.72,27L55.887,27L56.225,27L56.394,27L56.569,27L56.731,27L56.899,27L57.236,27L57.405,27L57.579,27L57.742,27L57.91,27L58.247,27L58.416,27L58.591,27L58.754,27L58.922,27L59.259,27L59.427,27L59.602,27L59.764,27L59.933,27L60.27,27L60.439,27L60.614,27L60.776,27L60.944,27L61.281,27L61.45,27L61.625,27L61.787,27L61.955,27L62.293,27L62.461,27L62.635,27L62.798,27L62.967,27L63.319,27L63.549,27L63.65,27L63.81,27L63.978,27L64.315,27L64.483,27L64.66,27L64.821,27L64.989,27L65.326,27L65.496,27L65.671,27L65.833,27L66,27L66.337,27L66.507,27L66.681,38.538L66.843,38.538L67.012,38.538L67.349,38.538L67.52,38.538L67.693,38.538L67.854,38.538L68.023,38.538L68.36,38.538L68.529,38.538L68.702,38.538L68.867,38.538L69.034,38.538L69.372,38.538L69.541,38.538L69.714,38.538L69.878,38.538L70.046,38.538L70.384,38.538L70.551,38.538L70.727,38.538L70.89,38.538L71.057,38.538L71.394,38.538L71.563,38.538L71.738,38.538L71.901,38.538L72.068,38.538L72.406,38.538L72.575,38.538L72.75,38.538L72.911,38.538L73.08,38.538L73.417,38.538L73.585,38.538L73.761,38.538L73.923,38.538L74.091,38.538L74.428,38.538L74.598,38.538L74.772,38.538L74.934,38.538L75.102,38.538L75.439,38.538L75.609,38.538L75.783,38.538L75.945,38.538L76.114,38.538L76.451,38.538L76.62,38.538L76.793,38.538L76.956,38.538L77.125,38.538L77.462,38.538L77.63,38.538L77.807,38.538L77.969,38.538L78.137,38.538L78.474,38.538L78.642,38.538L78.817,38.538L78.981,38.538L79.147,38.538L79.484,38.538L79.654,38.538L79.829,38.538L79.992,38.538L80.159,38.538L80.496,38.538L80.665,38.538L80.841,38.538L81.004,38.538L81.17,38.538L81.507,38.538L81.676,38.538L81.851,38.538L82.013,38.538L82.182,38.538L82.519,38.538L82.687,38.538L82.862,38.538L83.024,38.538L83.192,38.538L83.53,38.538L83.698,38.538L83.874,38.538L84.035,38.538L84.204,38.538L84.541,38.538L84.71,38.538L84.885,38.538L85.047,38.538L85.215,38.538L85.552,38.538L85.722,38.538L85.897,38.538L86.06,38.538L86.226,38.538L86.565,38.538L86.733,38.538L86.909,38.538L87.072,38.538L87.238,38.538L87.575,38.538L87.744,38.538L87.92,38.538L88.082,38.538L88.249,38.538L88.587,38.538L88.755,38.538L88.931,38.538L89.093,38.538L89.26,38.538L89.597,38.538L89.766,38.538L89.94,38.538L90.104,38.538L90.272,38.538L90.609,38.538L90.778,38.538L90.952,38.538L91.115,38.538L91.283,38.538L91.62,38.538L91.79,38.538L91.966,38.538L92.128,38.538L92.294,38.538L92.632,38.538L92.801,38.538L92.977,38.538L93.139,38.538L93.305,38.538L93.643,38.538L93.811,38.538L93.987,38.538L94.15,38.538L94.317,38.538L94.655,38.538L94.823,38.538L94.999,38.538L95.161,38.538L95.328,38.538L95.667,38.538L96.009,38.538L96.172,38.538L96.34,38.538L96.677,38.538L96.846,38.538L97.019,38.538L97.182,38.538L97.351,38.538L97.688,38.538L97.856,38.538L98.031,38.538L98.194,38.538L98.362,38.538L98.7,38.538L98.868,38.538L99.044,38.538L99.207,38.538L99.373,38.538L99.711,38.538L99.879,38.538L100.055,38.538L100.217,38.538L100.385,38.538L100.722,38.538L100.892,38.538L101.067,38.538L101.23,38.538L101.397,38.538L101.734,38.538L101.903,38.538L102.078,38.538L102.408,38.538L102.745,38.538L102.914,38.538L103.089,38.538L103.25,38.538L103.419,38.538L103.756,38.538L103.924,38.538L104.096,38.538L104.261,38.538L104.43,38.538L104.782,38.538L105.042,38.538L105.2,38.538L105.527,38.538L105.781,38.538L105.947,38.538L106.121,38.538L106.284,38.538L106.453,38.538L106.79,38.538L106.958,38.538L107.135,38.538L107.295,38.538L107.464,38.538L107.801,38.538L107.969,38.538L108.146,38.538L108.309,38.538L108.476,38.538L108.981,38.538L109.157,38.538L109.319,38.538L109.487,38.538L109.824,38.538L109.992,38.538L110.168,38.538L110.331,38.538L110.498,38.538L110.835,38.538L111.004,38.538L111.178,38.538L111.341,38.538L111.509,38.538L111.847,38.538L112.015,38.538L112.19,38.538L112.352,38.538L112.521,38.538L112.857,38.538L113.027,38.538L113.203,38.538L113.364,38.538L113.532,38.538L113.869,38.538L114.038,38.538L114.214,38.538L114.376,38.538L114.544,38.538L114.88,38.538L115.05,38.538L115.23,38.538L115.387,38.538L115.555,38.538L115.892,38.538L116.061,38.538L116.232,38.538L116.398,38.538L116.566,38.538L116.903,38.538L117.072,38.538L117.248,38.538L117.409,38.538L117.578,38.538L117.914,38.538L118.082,38.538L118.257,38.538L118.42,38.538L118.588,38.538L118.926,38.538L119.094,38.538L119.27,38.538L119.431,38.538L119.599,38.538L119.936,38.538L120.108,38.538L120.282,38.538L120.443,38.538L120.611,38.538L120.948,38.538L121.117,38.538L121.294,38.538L121.455,38.538L121.623,38.538L121.959,38.538L122.131,38.538L122.305,38.538L122.466,38.538L122.633,38.538L122.971,38.538L123.139,38.538L123.317,38.538L123.477,38.538L123.646,38.538L123.983,38.538L124.15,38.538L124.327,38.538L124.489,38.538L124.656,38.538L124.993,38.538L125.162,38.538L125.337,38.538L125.499,38.538L125.667,38.538L126.005,38.538L126.174,38.538L126.349,38.538L126.511,38.538L126.678,38.538L127.016,38.538L127.185,38.538L127.362,38.538L127.524,38.538L127.69,38.538L128.027,38.538L128.196,38.538L128.372,30.846L128.534,30.846L128.702,30.846L129.038,30.846L129.208,30.846L129.386,30.846L129.547,30.846L129.712,30.846L130.051,30.846L130.22,30.846L130.395,30.846L130.559,30.846L130.724,30.846L131.061,30.846L131.23,30.846L131.408,30.846L131.568,30.846L131.735,30.846L132.072,30.846L132.241,30.846L132.416,30.846L132.578,30.846L132.746,30.846L133.084,30.846L133.252,30.846L133.429,30.846L133.59,30.846L133.758,30.846L134.095,30.846L134.264,30.846L134.442,30.846L134.602,30.846L134.77,30.846L135.106,30.846L135.276,30.846L135.453,30.846L135.614,30.846L135.78,30.846L136.118,30.846L136.287,30.846L136.465,30.846L136.625,30.846L136.792,30.846L137.129,30.846L137.298,30.846L137.476,30.846L137.636,30.846L137.803,30.846L138.14,30.846L138.309,30.846L138.486,30.846L138.648,30.846L138.814,30.846L139.151,30.846L139.32,30.846L139.497,30.846L139.657,30.846L139.825,30.846L140.164,30.846L140.332,30.846L140.508,30.846L140.67,30.846L140.837,30.846L141.176,30.846L141.343,30.846L141.521,30.846L141.682,30.846L141.849,30.846L142.185,30.846L142.355,30.846L142.533,30.846L142.692,30.846L142.86,30.846L143.198,30.846L143.367,30.846L143.544,38.538L143.705,38.538L143.871,38.538L144.208,38.538L144.377,38.538L144.554,38.538L144.716,38.538L144.882,38.538L145.221,38.538L145.388,38.538L145.566,38.538L145.726,38.538L145.894,38.538L146.231,38.538L146.4,38.538L146.576,38.538L146.737,38.538L146.905,38.538L147.243,38.538L147.41,38.538L147.587,38.538L147.748,38.538L147.917,38.538L148.254,38.538L148.423,38.538L148.6,38.538L148.761,38.538L148.927,38.538L149.268,38.538L149.434,38.538L149.611,38.538L149.772,38.538L149.938,38.538L150.278,38.538L150.446,38.538L150.623,38.538L150.783,38.538L150.95,38.538L151.289,38.538L151.457,38.538L151.634,38.538L151.794,38.538L151.961,38.538L152.3,30.846L152.468,30.846L152.645,30.846L152.806,30.846L152.973,30.846L153.31,30.846L153.478,30.846L153.655,30.846L153.816,30.846L153.984,30.846L154.322,30.846L154.49,30.846L154.666,30.846L154.827,30.846L154.995,30.846L155.333,30.846L155.502,30.846L155.681,30.846L155.84,30.846L156.007,30.846L156.344,30.846L156.514,30.846L156.691,30.846L156.852,30.846L157.018,30.846L157.357,30.846L157.525,30.846L157.703,30.846L157.863,30.846L158.029,30.846L158.367,30.846L158.536,30.846L158.714,30.846L158.873,30.846L159.04,30.846L159.379,30.846L159.548,30.846L159.726,30.846L159.887,30.846L160.052,30.846L160.389,30.846L160.557,30.846L160.734,30.846L160.896,30.846L161.063,30.846L161.4,30.846L161.568,30.846L161.746,30.846L161.907,30.846L162.074,30.846L162.413,30.846L162.582,30.846L162.76,30.846L162.92,30.846L163.085,30.846L163.424,30.846L163.593,30.846L163.771,30.846L163.931,30.846L164.098,30.846L164.435,30.846L164.604,34.692L164.782,34.692L164.942,34.692L165.108,34.692L165.446,34.692L165.615,34.692L165.793,34.692L165.955,34.692L166.12,34.692L166.457,34.692L166.626,34.692L166.804,40.077L166.964,40.077L167.131,40.077L167.47,40.077L167.638,40.077L167.814,40.077L167.975,40.077L168.142,40.077L168.479,40.077L168.649,40.077L168.826,40.077L168.987,40.077L169.153,40.077L169.492,40.077L169.661,40.077L169.839,40.077L169.998,40.077L170.165,40.077L170.502,40.077L170.672,40.077L170.85,40.077L171.01,40.077L171.176,40.077L171.514,40.077L171.683,40.077L171.862,40.077L172.021,40.077L172.187,40.077L172.525,40.077L172.694,40.077L172.872,40.077L173.034,40.077L173.199,40.077L173.537,40.077L173.706,40.077L173.883,40.077L174.043,40.077L174.21,40.077L174.547,40.077L174.716,40.077L174.895,40.077L175.054,40.077L175.221,40.077L175.559,40.077L175.727,40.077L175.904,40.077L176.065,40.077L176.232,40.077L176.571,40.077L176.74,40.077L176.918,40.077L177.077,40.077L177.244,40.077L177.582,40.077L177.751,40.077L177.929,40.077L178.256,40.077L178.594,40.077L178.762,40.077L178.941,40.077L179.1,40.077L179.267,40.077L179.606,40.077L179.774,40.077L179.952,40.077L180.112,40.077L180.278,40.077L180.616,40.077L180.785,40.077L180.963,40.077L181.122,40.077L181.29,40.077L181.628,40.077L181.796,40.077L181.973,40.077L182.134,40.077L182.301,40.077L182.638,40.077L182.806,40.077L182.984,40.077L183.145,40.077L183.312,40.077L183.65,40.077L183.819,40.077L183.998,40.077L184.158,40.077L184.323,40.077L184.661,40.077L184.83,40.077L185.007,40.077L185.169,40.077L185.335,40.077L185.672,40.077L185.842,40.077L186.019,40.077L186.18,40.077L186.345,40.077L186.684,40.077L186.853,40.077L187.031,40.077L187.19,40.077L187.357,40.077L187.696,40.077L187.864,40.077L188.041,40.077L188.202,40.077L188.368,40.077L188.706,40.077L188.874,40.077L189.051,40.077L189.213,40.077L189.38,40.077L189.717,40.077L189.885,40.077L190.063,40.077L190.223,40.077L190.391,40.077L190.73,40.077L190.898,40.077L191.075,40.077L191.236,40.077L191.402,40.077L191.74,40.077L191.91,40.077L192.088,40.077L192.248,40.077L192.414,40.077L192.752,40.077L192.921,40.077L193.099,40.077L193.259,40.077L193.425,40.077L193.763,40.077L193.932,40.077L194.11,40.077L194.269,40.077L194.436,40.077L194.774,40.077L194.943,40.077L195.122,40.077L195.281,40.077L195.448,40.077L195.785,40.077L195.953,40.077L196.13,40.077L196.291,40.077L196.458,40.077L196.798,40.077L196.967,40.077L197.154,40.077L197.312,40.077L197.47,40.077L197.809,40.077L197.977,40.077L198.156,40.077L198.316,40.077L198.481,40.077L198.82,40.077L198.989,40.077L199.164,40.077L199.328,40.077L199.492,40.077L199.83,40.077L200,40.077" stroke="#f58518" stroke-width="2"/></g></g><path class="foreground" aria-hidden="true" d="" display="none"/></g></g><g class="mark-group role-legend" role="graphics-symbol" aria-roledescription="legend" aria-label="Symbol legend titled 'identifier' for stroke color with 2 values: altex-LG-F2WR508SBW, altex-LG-F2WR508SBM"><g transform="translate(220,0)"><path class="background" aria-hidden="true" d="M0,0h168v40h-168Z" pointer-events="none"/><g><g class="mark-group role-legend-entry"><g transform="translate(0,16)"><path class="background" aria-hidden="true" d="M0,0h0v0h0Z" pointer-events="none"/><g><g class="mark-group role-scope" role="graphics-object" aria-roledescription="group mark container"><g transform="translate(0,0)"><path class="background" aria-hidden="true" d="M0,0h168v11h-168Z" pointer-events="none" opacity="1"/><g><g class="mark-symbol role-legend-symbol" pointer-events="none"><path transform="translate(6,6)" d="M-5,0L5,0" stroke="#4c78a8" stroke-width="1.5" opacity="1"/></g><g class="mark-text role-legend-label" pointer-events="none"><text text-anchor="start" transform="translate(16,9)" font-family="Liberation Mono" font-size="10px" fill="#000" opacity="1">altex-LG-F2WR508SBW</text></g></g><path class="foreground" aria-hidden="true" d="" pointer-events="none" display="none"/></g><g transform="translate(0,13)"><path class="background" aria-hidden="true" d="M0,0h168v11h-168Z" pointer-events="none" opacity="1"/><g><g class="mark-symbol role-legend-symbol" pointer-events="none"><path transform="translate(6,6)" d="M-5,0L5,0" stroke="#f58518" stroke-width="1.5" opacity="1"/></g><g class="mark-text role-legend-label" pointer-events="none"><text text-anchor="start" transform="translate(16,9)" font-family="Liberation Mono" font-size="10px" fill="#000" opacity="1">altex-LG-F2WR508SBM</text></g></g><path class="foreground" aria-hidden="true" d="" pointer-events="none" display="none"/></g></g></g><path class="foreground" aria-hidden="true" d="" pointer-events="none" display="none"/></g></g><g class="mark-text role-legend-title" pointer-events="none"><text text-anchor="start" transform="translate(0,9)" font-family="Liberation Mono" font-size="11px" font-weight="bold" fill="#000" opacity="1">identifier</text></g></g><path class="foreground" aria-hidden="true" d="" pointer-events="none" display="none"/></g></g></g><path class="foreground" aria-hidden="true" d="" display="none"/></g></g></g></svg>