<svg xmlns="http://www.w3.org/2000/svg" xmlns:xlink="http://www.w3.org/1999/xlink" version="1.1" class="marks" width="460" height="242" viewBox="0 0 460 242"><rect width="460" height="242" fill="white"/><g fill="none" stroke-miterlimit="10" transform="translate(67,5)"><g class="mark-group role-frame root" role="graphics-object" aria-roledescription="group mark container"><g transform="translate(0,0)"><path class="background" aria-hidden="true" d="M0.5,0.5h200v200h-200Z" stroke="#ddd"/><g><g class="mark-group role-axis" aria-hidden="true"><g transform="translate(0.5,200.5)"><path class="background" aria-hidden="true" d="M0,0h0v0h0Z" pointer-events="none"/><g><g class="mark-rule role-axis-grid" pointer-events="none"><line transform="translate(68,-200)" x2="0" y2="200" stroke="#ddd" stroke-width="1" opacity="1"/><line transform="translate(137,-200)" x2="0" y2="200" stroke="#ddd" stroke-width="1" opacity="1"/></g></g><path class="foreground" aria-hidden="true" d="" pointer-events="none" display="none"/></g></g><g class="mark-group role-axis" aria-hidden="true"><g transform="translate(0.5,0.5)"><path class="background" aria-hidden="true" d="M0,0h0v0h0Z" pointer-events="none"/><g><g class="mark-rule role-axis-grid" pointer-events="none"><line transform="translate(0,200)" x2="200" y2="0" stroke="#ddd" stroke-width="1" opacity="1"/><line transform="translate(0,162)" x2="200" y2="0" stroke="#ddd" stroke-width="1" opacity="1"/><line transform="translate(0,123)" x2="200" y2="0" stroke="#ddd" stroke-width="1" opacity="1"/><line transform="translate(0,85)" x2="200" y2="0" stroke="#ddd" stroke-width="1" opacity="1"/><line transform="translate(0,46)" x2="200" y2="0" stroke="#ddd" stroke-width="1" opacity="1"/><line transform="translate(0,8)" x2="200" y2="0" stroke="#ddd" stroke-width="1" opacity="1"/></g></g><path class="foreground" aria-hidden="true" d="" pointer-events="none" display="none"/></g></g><g class="mark-group role-axis" role="graphics-symbol" aria-roledescription="axis" aria-label="X-axis titled 'Time' for a time scale with values from Monday, 01 January 2024, 2:19:43 PM to Sunday, 22 September 2024, 12:56:39 PM"><g transform="translate(0.5,200.5)"><path class="background" aria-hidden="true" d="M0,0h0v0h0Z" pointer-events="none"/><g><g class="mark-rule role-axis-tick" pointer-events="none"><line transform="translate(68,0)" x2="0" y2="5" stroke="#888" stroke-width="1" opacity="1"/><line transform="translate(137,0)" x2="0" y2="5" stroke="#888" stroke-width="1" opacity="1"/></g><g class="mark-text role-axis-label" pointer-events="none"><text text-anchor="middle" transform="translate(68.24351196431901,15)" font-family="Liberation Mono" font-size="10px" fill="#000" opacity="1">April</text><text text-anchor="middle" transform="translate(136.93770832195554,15)" font-family="Liberation Mono" font-size="10px" fill="#000" opacity="1">July</text></g><g class="mark-rule role-axis-domain" pointer-events="none"><line transform="translate(0,0)" x2="200" y2="0" stroke="#888" stroke-width="1" opacity="1"/></g><g class="mark-text role-axis-title" pointer-events="none"><text text-anchor="middle" transform="translate(100,30)" font-family="Liberation Mono" font-size="11px" font-weight="bold" fill="#000" opacity="1">Time</text></g></g><path class="foreground" aria-hidden="true" d="" pointer-events="none" display="none"/></g></g><g class="mark-group role-axis" role="graphics-symbol" aria-roledescription="axis" aria-label="Y-axis titled 'Price' for a linear scale with values from 0 to 2,600"><g transform="translate(0.5,0.5)"><path class="background" aria-hidden="true" d="M0,0h0v0h0Z" pointer-events="none"/><g><g class="mark-rule role-axis-tick" pointer-events="none"><line transform="translate(0,200)" x2="-5" y2="0" stroke="#888" stroke-width="1" opacity="1"/><line transform="translate(0,162)" x2="-5" y2="0" stroke="#888" stroke-width="1" opacity="1"/><line transform="translate(0,123)" x2="-5" y2="0" stroke="#888" stroke-width="1" opacity="1"/><line transform="translate(0,85)" x2="-5" y2="0" stroke="#888" stroke-width="1" opacity="1"/><line transform="translate(0,46)" x2="-5" y2="0" stroke="#888" stroke-width="1" opacity="1"/><line transform="translate(0,8)" x2="-5" y2="0" stroke="#888" stroke-width="1" opacity="1"/></g><g class="mark-text role-axis-label" pointer-events="none"><text text-anchor="end" transform="translate(-7,203)" font-family="Liberation Mono" font-size="10px" fill="#000" opacity="1">0</text><text text-anchor="end" transform="translate(-7,164.53846153846155)" font-family="Liberation Mono" font-size="10px" fill="#000" opacity="1">500</text><text text-anchor="end" transform="translate(-7,126.07692307692308)" font-family="Liberation Mono" font-size="10px" fill="#000" opacity="1">1,000</text><text text-anchor="end" transform="translate(-7,87.61538461538463)" font-family="Liberation Mono" font-size="10px" fill="#000" opacity="1">1,500</text><text text-anchor="end" transform="translate(-7,49.153846153846146)" font-family="Liberation Mono" font-size="10px" fill="#000" opacity="1">2,000</text><text text-anchor="end" transform="translate(-7,10.692307692307686)" font-family="Liberation Mono" font-size="10px" fill="#000" opacity="1">2,500</text></g><g class="mark-rule role-axis-domain" pointer-events="none"><line transform="translate(0,200)" x2="0" y2="-200" stroke="#888" stroke-width="1" opacity="1"/></g><g class="mark-text role-axis-title" pointer-events="none"><text text-anchor="middle" transform="translate(-51,100) rotate(-90) translate(0,-2)" font-family="Liberation Mono" font-size="11px" font-weight="bold" fill="#000" opacity="1">Price</text></g></g><path class="foreground" aria-hidden="true" d="" pointer-events="none" display="none"/></g></g><g class="mark-group role-scope pathgroup" role="graphics-object" aria-roledescription="group mark container"><g transform="translate(0,0)"><path class="background" aria-hidden="true" d="M0,0h200v200h-200Z"/><g><g class="mark-line role-mark marks" role="graphics-object" aria-roledescription="line mark container"><path aria-label="Time: Jan 01, 2024; Price: 2399; identifier: altex-LG-F2WR508SBW" role="graphics-symbol" aria-roledescription="line mark" d="M0,15.462L0.079,15.462L0.199,15.462L0.45,15.462L0.576,15.462L0.708,15.462L0.829,15.462L0.953,15.462L1.205,15.462L1.331,15.462L1.463,15.462L1.584,15.462L1.708,15.462L1.96,15.462L2.086,15.462L2.218,15.462L2.339,15.462L2.463,15.462L2.715,34.692L2.841,34.692L2.973,34.692L3.094,34.692L3.218,34.692L3.47,34.692L3.596,34.692L3.727,34.692L3.848,34.692L3.973,34.692L4.225,34.692L4.35,34.692L4.482,34.692L4.603,34.692L4.728,34.692L4.98,34.692L5.106,34.692L5.239,34.692L5.359,34.692L5.483,34.692L5.735,34.692L5.861,34.692L5.995,34.692L6.114,34.692L6.238,34.692L6.49,34.692L6.616,34.692L6.748,34.692L6.868,34.692L6.992,34.692L7.245,34.692L7.371,34.692L7.503,34.692L7.624,34.692L7.747,34.692L7.999,34.692L8.125,34.692L8.258,34.692L8.378,34.692L8.502,34.692L8.754,46.231L8.88,46.231L9.011,46.231L9.132,46.231L9.257,46.231L9.509,46.231L9.634,46.231L9.766,46.231L9.887,46.231L10.012,46.231L10.264,46.231L10.39,46.231L10.523,46.231L10.643,46.231L10.767,46.231L11.019,46.231L11.145,46.231L11.278,46.231L11.398,46.231L11.522,46.231L11.774,46.231L11.9,46.231L12.033,46.231L12.153,46.231L12.277,46.231L12.529,46.231L12.655,46.231L12.787,46.231L12.907,46.231L13.032,46.231L13.284,46.231L13.41,46.231L13.542,46.231L13.663,46.231L13.786,46.231L14.039,46.231L14.164,46.231L14.296,46.231L14.417,46.231L14.541,46.231L14.793,46.231L14.919,46.231L15.051,46.231L15.172,46.231L15.296,46.231L15.549,46.231L15.675,46.231L15.808,46.231L15.927,46.231L16.051,46.231L16.303,46.231L16.43,46.231L16.562,46.231L16.683,46.231L16.806,46.231L17.058,46.231L17.184,46.231L17.317,46.231L17.437,46.231L17.561,46.231L17.814,46.231L17.939,46.231L18.072,46.231L18.193,46.231L18.316,46.231L18.568,46.231L18.694,46.231L18.824,46.231L18.945,46.231L19.071,46.231L19.322,46.231L19.448,46.231L19.577,46.231L19.7,46.231L19.825,46.231L20.077,46.231L20.203,46.231L20.333,46.231L20.454,46.231L20.58,46.231L20.832,46.231L20.958,46.231L21.089,46.231L21.21,46.231L21.335,46.231L21.587,46.231L21.713,46.231L21.843,46.231L21.966,46.231L22.09,46.231L22.342,46.231L22.467,46.231L22.598,46.231L22.719,46.231L22.845,46.231L23.096,34.692L23.222,34.692L23.353,34.692L23.474,34.692L23.6,34.692L23.852,34.692L23.977,34.692L24.108,34.692L24.229,34.692L24.355,34.692L24.606,34.692L24.732,34.692L24.862,34.692L24.984,34.692L25.11,34.692L25.362,34.692L25.487,34.692L25.617,34.692L25.739,34.692L25.864,34.692L26.116,34.692L26.242,34.692L26.373,34.692L26.494,34.692L26.619,34.692L26.871,34.692L26.997,34.692L27.128,34.692L27.249,34.692L27.374,34.692L27.626,34.692L27.752,34.692L27.882,34.692L28.004,34.692L28.129,34.692L28.381,34.692L28.507,34.692L28.637,34.692L28.759,34.692L28.884,34.692L29.136,34.692L29.262,34.692L29.392,34.692L29.513,34.692L29.639,34.692L29.89,34.692L30.016,34.692L30.146,34.692L30.268,34.692L30.394,34.692L30.646,34.692L30.771,34.692L30.901,34.692L31.023,34.692L31.149,34.692L31.4,34.692L31.526,34.692L31.658,34.692L31.778,34.692L31.903,34.692L32.155,34.692L32.281,34.692L32.412,34.692L32.534,34.692L32.658,34.692L32.91,34.692L33.036,34.692L33.167,34.692L33.288,34.692L33.413,34.692L33.791,34.692L33.922,34.692L34.043,34.692L34.168,34.692L34.42,34.692L34.546,34.692L34.676,34.692L34.798,34.692L34.923,34.692L35.175,34.692L35.3,34.692L35.43,34.692L35.552,34.692L35.678,34.692L35.93,34.692L36.056,34.692L36.185,34.692L36.307,34.692L36.433,34.692L36.684,34.692L36.811,34.692L36.942,34.692L37.063,34.692L37.188,34.692L37.44,34.692L37.565,34.692L37.696,34.692L37.817,34.692L37.943,34.692L38.194,34.692L38.32,34.692L38.451,34.692L38.572,34.692L38.698,34.692L38.949,34.692L39.075,34.692L39.206,34.692L39.327,34.692L39.452,34.692L39.704,34.692L39.83,34.692L39.96,34.692L40.081,34.692L40.208,34.692L40.459,34.692L40.585,34.692L40.714,34.692L40.836,34.692L40.962,34.692L41.214,34.692L41.34,34.692L41.469,34.692L41.592,34.692L41.717,34.692L41.969,34.692L42.095,34.692L42.225,34.692L42.346,34.692L42.472,34.692L42.723,34.692L42.849,34.692L42.98,34.692L43.101,34.692L43.227,34.692L43.478,34.692L43.604,34.692L43.735,34.692L43.856,34.692L43.982,34.692L44.233,34.692L44.359,34.692L44.489,34.692L44.611,34.692L44.736,34.692L44.988,34.692L45.114,34.692L45.245,34.692L45.366,34.692L45.491,34.692L45.743,34.692L45.869,34.692L45.999,34.692L46.12,34.692L46.246,34.692L46.498,34.692L46.624,34.692L46.753,34.692L46.875,34.692L47.001,34.692L47.264,34.692L47.436,34.692L47.511,34.692L47.631,34.692L47.756,34.692L48.007,34.692L48.133,34.692L48.265,34.692L48.385,34.692L48.511,34.692L48.762,34.692L48.889,34.692L49.02,34.692L49.141,34.692L49.266,34.692L49.517,34.692L49.643,34.692L49.774,34.692L49.895,34.692L50.021,34.692L50.272,34.692L50.4,34.692L50.529,34.692L50.65,34.692L50.775,34.692L51.027,34.692L51.153,34.692L51.282,34.692L51.405,34.692L51.53,34.692L51.782,34.692L51.909,34.692L52.037,34.692L52.16,34.692L52.285,34.692L52.537,34.692L52.663,34.692L52.794,34.692L52.915,34.692L53.04,34.692L53.292,34.692L53.418,34.692L53.549,34.692L53.67,34.692L53.795,34.692L54.047,34.692L54.173,34.692L54.304,34.692L54.424,34.692L54.55,34.692L54.802,34.692L54.927,34.692L55.059,34.692L55.179,34.692L55.305,34.692L55.556,34.692L55.683,34.692L55.813,34.692L55.934,34.692L56.06,34.692L56.311,34.692L56.438,34.692L56.568,34.692L56.689,34.692L56.815,34.692L57.066,34.692L57.193,34.692L57.322,34.692L57.444,34.692L57.57,34.692L57.821,34.692L57.947,34.692L58.079,34.692L58.2,34.692L58.325,34.692L58.576,34.692L58.702,34.692L58.833,34.692L58.955,34.692L59.079,34.692L59.331,34.692L59.457,34.692L59.588,34.692L59.71,34.692L59.835,34.692L60.086,34.692L60.212,34.692L60.343,34.692L60.465,34.692L60.589,34.692L60.841,34.692L60.966,34.692L61.097,34.692L61.219,34.692L61.344,34.692L61.596,34.692L61.721,34.692L61.852,34.692L61.973,34.692L62.099,34.692L62.35,34.692L62.476,34.692L62.607,34.692L62.728,34.692L62.854,34.692L63.105,34.692L63.231,34.692L63.362,34.692L63.483,34.692L63.608,34.692L63.86,34.692L63.987,34.692L64.117,34.692L64.239,34.692L64.363,34.692L64.616,34.692L64.741,34.692L64.872,34.692L64.994,34.692L65.118,34.692L65.37,34.692L65.496,34.692L65.627,34.692L65.748,34.692L65.873,34.692L66.125,34.692L66.251,34.692L66.382,34.692L66.503,34.692L66.628,34.692L66.88,34.692L67.005,34.692L67.135,34.692L67.257,34.692L67.383,34.692L67.635,34.692L67.761,34.692L67.891,34.692L68.013,34.692L68.138,34.692L68.389,34.692L68.516,34.692L68.647,34.692L68.769,34.692L68.893,34.692L69.145,34.692L69.27,34.692L69.402,34.692L69.523,34.692L69.647,34.692L69.899,34.692L70.025,34.692L70.156,34.692L70.278,34.692L70.402,34.692L70.654,34.692L70.78,34.692L70.911,34.692L71.032,34.692L71.157,34.692L71.41,34.692L71.666,34.692L71.787,34.692L71.913,34.692L72.164,34.692L72.29,34.692L72.42,34.692L72.541,34.692L72.667,34.692L72.919,34.692L73.044,34.692L73.175,34.692L73.296,34.692L73.422,34.692L73.674,34.692L73.799,34.692L73.931,34.692L74.052,34.692L74.177,34.692L74.429,34.692L74.554,34.692L74.686,34.692L74.807,34.692L74.932,34.692L75.183,34.692L75.31,34.692L75.441,34.692L75.563,34.692L75.687,34.692L75.939,34.692L76.065,34.692L76.196,34.692L76.442,34.692L76.694,34.692L76.82,34.692L76.95,34.692L77.071,34.692L77.196,34.692L77.448,34.692L77.574,34.692L77.702,34.692L77.825,34.692L77.951,34.692L78.214,34.692L78.408,34.692L78.526,34.692L78.77,34.692L78.96,34.692L79.084,34.692L79.213,34.692L79.335,34.692L79.461,34.692L79.713,34.692L79.839,34.692L79.97,34.692L80.09,34.692L80.216,34.692L80.467,34.692L80.593,34.692L80.725,34.692L80.847,34.692L80.971,34.692L81.348,34.692L81.48,34.692L81.601,34.692L81.726,34.692L81.977,34.692L82.103,34.692L82.234,34.692L82.356,34.692L82.48,34.692L82.732,34.692L82.858,34.692L82.988,34.692L83.11,34.692L83.235,34.692L83.487,34.692L83.613,34.692L83.744,34.692L83.865,34.692L83.99,34.692L84.242,34.692L84.368,34.692L84.5,34.692L84.62,34.692L84.745,34.692L84.997,34.692L85.123,34.692L85.255,34.692L85.375,34.692L85.501,34.692L85.752,34.692L85.879,34.692L86.013,34.692L86.13,34.692L86.255,34.692L86.507,34.692L86.633,34.692L86.761,34.692L86.885,34.692L87.01,34.692L87.261,34.692L87.388,34.692L87.519,34.692L87.64,34.692L87.765,34.692L88.016,34.692L88.142,34.692L88.272,34.692L88.394,34.692L88.519,34.692L88.771,34.692L88.897,34.692L89.028,34.692L89.149,34.692L89.274,34.692L89.526,34.692L89.654,34.692L89.784,34.692L89.904,34.692L90.03,34.692L90.281,34.692L90.407,34.692L90.539,34.692L90.66,34.692L90.785,34.692L91.036,34.692L91.164,34.692L91.294,34.692L91.414,34.692L91.539,34.692L91.791,57.769L91.917,57.769L92.049,57.769L92.169,57.769L92.295,57.769L92.546,57.769L92.671,57.769L92.803,57.769L92.924,57.769L93.049,57.769L93.301,57.769L93.426,57.769L93.557,57.769L93.678,57.769L93.804,57.769L94.055,57.769L94.182,57.769L94.312,57.769L94.433,57.769L94.558,57.769L94.81,57.769L94.937,57.769L95.069,57.769L95.19,57.769L95.313,57.769L95.565,57.769L95.692,57.769L95.823,57.769L95.944,57.769L96.069,57.769L96.32,57.769L96.446,57.769L96.58,57.769L96.7,57.769L96.823,57.769L97.076,34.692L97.202,34.692L97.333,34.692L97.455,34.692L97.579,34.692L97.83,34.692L97.956,34.692L98.089,34.692L98.208,34.692L98.333,34.692L98.585,34.692L98.711,34.692L98.842,34.692L98.962,34.692L99.088,34.692L99.34,34.692L99.465,34.692L99.597,34.692L99.717,34.692L99.843,34.692L100.095,34.692L100.221,34.692L100.353,34.692L100.473,34.692L100.598,34.692L100.849,34.692L100.976,34.692L101.108,34.692L101.229,34.692L101.353,34.692L101.605,34.692L101.731,34.692L101.863,34.692L101.983,34.692L102.108,34.692L102.359,34.692L102.486,34.692L102.618,34.692L102.738,34.692L102.862,34.692L103.114,34.692L103.24,34.692L103.372,34.692L103.493,34.692L103.617,34.692L103.869,34.692L103.995,34.692L104.127,34.692L104.246,34.692L104.372,34.692L104.624,34.692L104.75,34.692L104.881,34.692L105.002,34.692L105.127,34.692L105.38,34.692L105.505,34.692L105.638,34.692L105.758,34.692L105.882,34.692L106.134,34.692L106.26,34.692L106.393,34.692L106.512,34.692L106.637,34.692L106.889,34.692L107.015,34.692L107.148,34.692L107.268,34.692L107.392,34.692L107.643,34.692L107.769,34.692L107.902,34.692L108.023,34.692L108.146,34.692L108.4,34.692L108.525,34.692L108.657,34.692L108.776,34.692L108.902,34.692L109.154,34.692L109.279,34.692L109.411,34.692L109.531,34.692L109.656,34.692L109.909,34.692L110.034,34.692L110.165,34.692L110.286,34.692L110.412,34.692L110.663,34.692L110.79,34.692L110.922,34.692L111.042,34.692L111.166,34.692L111.42,34.692L111.545,34.692L111.677,34.692L111.796,34.692L111.921,34.692L112.174,34.692L112.3,34.692L112.432,34.692L112.552,34.692L112.676,34.692L112.929,34.692L113.054,34.692L113.187,34.692L113.306,34.692L113.431,34.692L113.684,34.692L113.809,34.692L113.941,34.692L114.061,34.692L114.186,34.692L114.437,34.692L114.563,34.692L114.695,34.692L114.815,34.692L114.94,34.692L115.193,34.692L115.318,34.692L115.45,34.692L115.57,34.692L115.695,34.692L115.948,34.692L116.074,34.692L116.207,34.692L116.326,34.692L116.451,34.692L116.702,34.692L116.829,34.692L116.961,34.692L117.082,34.692L117.205,34.692L117.458,34.692L117.584,34.692L117.716,34.692L117.836,34.692L117.96,34.692L118.212,34.692L118.338,34.692L118.471,34.692L118.59,34.692L118.715,34.692L118.967,34.692L119.094,34.692L119.226,34.692L119.347,34.692L119.47,34.692L119.722,34.692L119.847,34.692L119.979,34.692L120.1,34.692L120.225,34.692L120.477,34.692L120.602,34.692L120.735,34.692L120.855,34.692L120.98,34.692L121.233,34.692L121.358,34.692L121.491,34.692L121.611,34.692L121.734,34.692L121.987,34.692L122.113,34.692L122.246,34.692L122.365,34.692L122.49,34.692L122.742,34.692L122.868,46.231L123.001,46.231L123.12,46.231L123.244,46.231L123.497,46.231L123.623,46.231L123.755,46.231L123.876,46.231L124,46.231L124.251,46.231L124.377,46.231L124.51,48.538L124.629,48.538L124.754,48.538L125.007,48.538L125.133,48.538L125.264,48.538L125.384,48.538L125.509,48.538L125.761,48.538L125.887,48.538L126.019,48.538L126.139,48.538L126.264,48.538L126.517,48.538L126.643,48.538L126.776,48.538L126.895,48.538L127.019,48.538L127.271,48.538L127.398,48.538L127.53,48.538L127.65,48.538L127.773,48.538L128.026,48.538L128.152,48.538L128.285,48.538L128.404,48.538L128.529,48.538L128.78,48.538L128.907,48.538L129.039,48.538L129.161,48.538L129.283,48.538L129.536,48.538L129.662,48.538L129.794,48.538L129.914,48.538L130.038,48.538L130.29,48.538L130.416,48.538L130.549,48.538L130.668,48.538L130.793,48.538L131.045,48.538L131.17,48.538L131.303,48.538L131.423,48.538L131.548,48.538L131.8,48.538L131.927,48.538L132.059,48.538L132.179,48.538L132.303,48.538L132.555,48.538L132.681,48.538L132.814,48.538L133.058,48.538L133.311,48.538L133.436,48.538L133.569,48.538L133.689,48.538L133.813,48.538L134.066,48.538L134.191,48.538L134.324,48.538L134.444,48.538L134.568,48.538L134.82,48.538L134.946,48.538L135.079,48.538L135.198,48.538L135.323,48.538L135.575,48.538L135.7,48.538L135.833,48.538L135.953,48.538L136.077,48.538L136.329,48.538L136.455,48.538L136.587,48.538L136.708,48.538L136.832,48.538L137.084,48.538L137.211,48.538L137.344,48.538L137.464,48.538L137.587,48.538L137.84,48.538L137.966,48.538L138.098,48.538L138.218,48.538L138.342,48.538L138.594,48.538L138.721,48.538L138.853,48.538L138.974,48.538L139.097,48.538L139.349,48.538L139.475,48.538L139.608,48.538L139.727,48.538L139.852,48.538L140.105,48.538L140.23,48.538L140.362,48.538L140.482,48.538L140.606,48.538L140.859,48.538L140.984,48.538L141.116,48.538L141.237,48.538L141.362,48.538L141.613,48.538L141.739,48.538L141.871,48.538L141.991,48.538L142.117,48.538L142.369,48.538L142.495,48.538L142.627,48.538L142.747,48.538L142.871,48.538L143.123,48.538L143.25,48.538L143.383,48.538L143.502,48.538L143.626,48.538L143.879,48.538L144.005,48.538L144.138,48.538L144.257,48.538L144.381,48.538L144.634,48.538L144.759,48.538L144.893,48.538L145.011,48.538L145.136,48.538L145.388,48.538L145.514,48.538L145.648,48.538L145.766,48.538L145.891,48.538L146.143,48.538L146.268,48.538L146.4,48.538L146.521,48.538L146.645,48.538L146.899,48.538L147.025,48.538L147.164,48.538L147.283,48.538L147.4,48.538L147.653,48.538L147.779,48.538L147.913,48.538L148.032,48.538L148.155,48.538L148.408,48.538L148.534,48.538L148.665,48.538L148.787,48.538L148.91,48.538L149.162,48.538L149.289,48.538L149.422,48.538L149.542,48.538L149.665,48.538L149.918,48.538L150.044,48.538L150.177,48.538L150.296,48.538L150.42,48.538L150.673,48.538L150.799,48.538L150.932,48.538L151.052,48.538L151.175,48.538L151.428,48.538L151.553,48.538L151.685,48.538L151.805,48.538L151.93,48.538L152.182,48.538L152.307,48.538L152.44,48.538L152.561,48.538L152.685,48.538L152.937,48.538L153.064,48.538L153.197,48.538L153.316,48.538L153.439,48.538L153.692,48.538L153.819,48.538L153.951,48.538L154.071,48.538L154.195,48.538L154.447,27L154.573,27L154.707,27L154.826,27L154.949,27L155.203,27L155.328,27L155.461,27L155.581,27L155.705,27L155.957,27L156.083,27L156.215,27L156.336,27L156.459,27L156.711,27L156.837,27L156.971,27L157.089,27L157.214,27L157.466,27L157.592,27L157.724,27L157.845,27L157.969,27L158.221,27L158.348,27L158.481,27L158.6,27L158.724,27L158.976,27L159.102,27L159.236,27L159.355,27L159.478,27L159.73,27L159.856,27L159.991,27L160.109,27L160.233,27L160.486,27L160.612,27L160.745,27L160.865,27L160.989,27L161.241,27L161.367,27L161.5,27L161.62,27L161.743,27L161.996,27L162.122,27L162.253,27L162.374,27L162.498,27L162.752,27L162.876,27L163.009,27L163.128,27L163.254,27L163.506,27L163.632,27L163.766,27L163.884,27L164.008,27L164.261,27L164.387,27L164.52,27L164.639,27L164.763,27L165.016,27L165.141,27L165.275,27L165.395,27L165.518,27L165.771,27L165.897,27L166.03,27L166.149,27L166.273,27L166.525,27L166.651,27L166.785,27L166.904,27L167.027,27L167.281,27L167.406,27L167.538,27L167.66,27L167.782,27L168.035,27L168.16,27L168.293,27L168.413,27L168.538,27L168.79,27L168.917,27L169.05,27L169.169,27L169.293,27L169.545,27L169.671,27L169.805,27L169.924,27L170.047,27L170.3,27L170.426,27L170.559,27L170.679,27L170.802,27L171.055,27L171.181,27L171.314,27L171.433,27L171.557,27L171.809,27L171.936,27L172.069,27L172.189,27L172.312,27L172.564,27L172.69,27L172.822,27L172.943,27L173.068,27L173.319,27L173.444,27L173.578,27L173.697,27L173.821,27L174.074,27L174.201,27L174.334,27L174.452,27L174.577,27L174.83,27L174.955,27L175.089,27L175.207,27L175.331,27L175.584,27L175.71,27L175.841,27L175.963,27L176.087,27L176.339,27L176.465,27L176.598,27L176.719,27L176.841,27L177.094,27L177.22,27L177.353,27L177.472,27L177.596,27L177.849,27L177.974,27L178.107,27L178.226,27L178.351,27L178.604,27L178.729,27L178.862,27L178.981,27L179.107,27L179.36,27L179.485,27L179.619,27L179.737,27L179.861,27L180.114,27L180.24,27L180.373,27L180.492,27L180.616,27L180.869,27L180.995,27L181.128,27L181.248,27L181.37,27L181.624,27L181.75,27L181.883,27L182.002,27L182.125,27L182.379,27L182.505,27L182.638,27L182.757,27L182.88,27L183.133,27L183.259,27L183.392,27L183.512,27L183.635,27L183.888,27L184.014,27L184.148,27L184.266,27L184.39,27L184.643,27L184.77,27L184.903,27L185.022,27L185.145,27L185.398,27L185.524,27L185.658,27L185.777,27L185.9,27L186.153,27L186.279,27L186.413,27L186.531,27L186.656,27L186.908,27L187.034,27L187.168,27L187.286,27L187.41,27L187.662,27L187.789,27L187.922,27L188.042,27L188.164,27L188.417,27L188.543,27L188.676,27L188.795,27L188.919,27L189.172,27L189.298,27L189.431,27L189.551,27L189.675,27L189.927,27L190.055,27L190.188,27L190.306,27L190.429,27L190.682,27L190.809,27L190.943,27L191.061,27L191.184,27L191.438,27L191.564,27L191.697,27L191.816,27L191.939,27L192.193,27L192.319,27L192.452,27L192.571,27L192.694,27L192.947,27L193.073,27L193.207,27L193.325,27L193.449,27L193.702,46.231L193.828,46.231L193.96,46.231L194.08,46.231L194.204,46.231L194.457,46.231L194.583,46.231L194.716,46.231L194.835,46.231L194.958,46.231L195.213,46.231L195.339,46.231L195.473,46.231L195.591,46.231L195.714,46.231L195.965,46.231L196.093,46.231L196.227,46.231L196.345,46.231L196.468,46.231L196.722,46.231L196.848,46.231L196.982,46.231L197.1,46.231L197.224,46.231L197.477,53.923L197.603,53.923L197.737,53.923L197.855,53.923L197.978,53.923L198.231,53.923L198.357,53.923L198.492,53.923L198.61,53.923L198.733,53.923L198.986,53.923L199.111,53.923L199.245,53.923L199.364,53.923L199.487,53.923L199.742,53.923L199.866,53.923L200,53.923" stroke="#4c78a8" stroke-width="2"/></g></g><path class="foreground" aria-hidden="true" d="" display="none"/></g><g transform="translate(0,0)"><path class="background" aria-hidden="true" d="M0,0h200v200h-200Z"/><g><g class="mark-line role-mark marks" role="graphics-object" aria-roledescription="line mark container"><path aria-label="Time: Jan 01, 2024; Price: 2499; identifier: altex-LG-F2WR508SBM" role="graphics-symbol" aria-roledescription="line mark" d="M0,7.769L0.079,7.769L0.199,7.769L0.45,7.769L0.576,7.769L0.708,7.769L0.829,7.769L0.953,7.769L1.205,7.769L1.331,7.769L1.463,7.769L1.584,7.769L1.708,7.769L1.96,7.769L2.086,7.769L2.218,7.769L2.339,7.769L2.463,7.769L2.715,27L2.841,27L2.973,27L3.094,27L3.218,27L3.47,27L3.596,27L3.727,27L3.848,27L3.973,27L4.225,27L4.35,27L4.482,27L4.603,27L4.728,27L4.98,27L5.106,27L5.239,27L5.359,27L5.483,27L5.735,27L5.861,27L5.995,27L6.114,27L6.238,27L6.49,27L6.616,27L6.748,27L6.868,27L6.992,27L7.245,27L7.371,27L7.503,27L7.624,27L7.747,27L7.999,27L8.126,27L8.258,27L8.378,27L8.502,27L8.754,38.538L8.88,38.538L9.011,38.538L9.132,38.538L9.257,38.538L9.509,38.538L9.634,38.538L9.766,38.538L9.887,38.538L10.012,38.538L10.264,38.538L10.39,38.538L10.523,38.538L10.643,38.538L10.767,38.538L11.019,38.538L11.145,38.538L11.278,38.538L11.399,38.538L11.522,38.538L11.774,38.538L11.9,38.538L12.033,38.538L12.153,38.538L12.277,38.538L12.529,38.538L12.655,38.538L12.787,38.538L12.907,38.538L13.032,38.538L13.284,38.538L13.41,38.538L13.542,38.538L13.663,38.538L13.786,38.538L14.039,38.538L14.164,38.538L14.296,38.538L14.417,38.538L14.541,38.538L14.793,38.538L14.919,38.538L15.051,38.538L15.172,38.538L15.296,38.538L15.549,38.538L15.675,38.538L15.808,38.538L15.927,38.538L16.051,38.538L16.303,38.538L16.43,38.538L16.562,38.538L16.683,38.538L16.806,38.538L17.058,38.538L17.185,38.538L17.317,38.538L17.437,38.538L17.561,38.538L17.814,38.538L17.939,38.538L18.072,38.538L18.193,38.538L18.316,38.538L18.568,38.538L18.694,38.538L18.824,38.538L18.945,38.538L19.071,38.538L19.322,38.538L19.448,38.538L19.577,38.538L19.7,38.538L19.825,38.538L20.077,38.538L20.203,38.538L20.333,38.538L20.455,38.538L20.58,38.538L20.832,38.538L20.958,38.538L21.089,38.538L21.21,38.538L21.335,38.538L21.587,38.538L21.713,38.538L21.843,38.538L21.966,38.538L22.09,38.538L22.342,38.538L22.468,38.538L22.599,38.538L22.719,38.538L22.845,38.538L23.097,27L23.222,27L23.353,27L23.474,27L23.6,27L23.852,27L23.977,27L24.108,27L24.229,27L24.355,27L24.606,27L24.732,27L24.862,27L24.984,27L25.11,27L25.362,27L25.487,27L25.617,27L25.739,27L25.864,27L26.116,27L26.242,27L26.373,27L26.494,27L26.619,27L26.871,27L26.997,27L27.128,27L27.249,27L27.374,27L27.626,27L27.752,27L27.882,27L28.004,27L28.129,27L28.381,27L28.507,27L28.637,27L28.759,27L28.884,27L29.136,27L29.262,27L29.392,27L29.513,27L29.639,27L29.89,27L30.016,27L30.146,27L30.268,27L30.394,27L30.646,27L30.771,27L30.901,27L31.023,27L31.149,27L31.4,27L31.526,27L31.658,27L31.778,27L31.903,27L32.155,27L32.281,27L32.412,27L32.534,27L32.658,27L32.91,27L33.036,27L33.167,27L33.288,27L33.413,27L33.791,27L33.922,27L34.043,27L34.168,27L34.42,27L34.546,27L34.676,27L34.798,27L34.923,27L35.175,27L35.3,27L35.43,27L35.552,27L35.678,27L35.93,27L36.056,27L36.185,27L36.307,27L36.433,27L36.684,27L36.811,27L36.942,27L37.063,27L37.188,27L37.44,27L37.565,27L37.696,27L37.817,27L37.943,27L38.194,27L38.32,27L38.451,27L38.572,27L38.698,27L38.949,27L39.075,27L39.206,27L39.327,27L39.453,27L39.704,27L39.83,27L39.96,27L40.081,27L40.208,27L40.459,27L40.585,27L40.714,27L40.836,27L40.962,27L41.214,27L41.34,27L41.469,27L41.592,27L41.717,27L41.969,27L42.095,27L42.225,27L42.346,27L42.472,27L42.723,27L42.849,27L42.98,27L43.101,27L43.227,27L43.478,27L43.604,27L43.735,27L43.857,27L43.982,27L44.233,27L44.359,27L44.489,27L44.611,27L44.736,27L44.988,27L45.114,27L45.245,27L45.366,27L45.491,27L45.743,27L45.869,27L45.999,27L46.12,27L46.246,27L46.498,27L46.624,27L46.753,27L46.875,27L47.001,27L47.264,27L47.436,27L47.511,27L47.631,27L47.756,27L48.007,27L48.133,27L48.265,27L48.385,27L48.511,27L48.762,27L48.889,27L49.02,27L49.141,27L49.266,27L49.517,27L49.644,27L49.774,38.538L49.895,38.538L50.021,38.538L50.272,38.538L50.4,38.538L50.529,38.538L50.65,38.538L50.775,38.538L51.027,38.538L51.153,38.538L51.282,38.538L51.405,38.538L51.53,38.538L51.782,38.538L51.909,38.538L52.037,38.538L52.16,38.538L52.285,38.538L52.538,38.538L52.663,38.538L52.794,38.538L52.915,38.538L53.04,38.538L53.292,38.538L53.418,38.538L53.549,38.538L53.67,38.538L53.795,38.538L54.047,38.538L54.173,38.538L54.304,38.538L54.424,38.538L54.55,38.538L54.802,38.538L54.928,38.538L55.059,38.538L55.18,38.538L55.305,38.538L55.556,38.538L55.683,38.538L55.813,38.538L55.934,38.538L56.06,38.538L56.311,38.538L56.438,38.538L56.568,38.538L56.689,38.538L56.815,38.538L57.066,38.538L57.193,38.538L57.322,38.538L57.444,38.538L57.57,38.538L57.821,38.538L57.947,38.538L58.079,38.538L58.2,38.538L58.325,38.538L58.576,38.538L58.702,38.538L58.833,38.538L58.955,38.538L59.079,38.538L59.331,38.538L59.457,38.538L59.588,38.538L59.71,38.538L59.835,38.538L60.086,38.538L60.212,38.538L60.343,38.538L60.465,38.538L60.589,38.538L60.841,38.538L60.966,38.538L61.097,38.538L61.219,38.538L61.344,38.538L61.596,38.538L61.721,38.538L61.852,38.538L61.973,38.538L62.099,38.538L62.35,38.538L62.476,38.538L62.607,38.538L62.728,38.538L62.854,38.538L63.105,38.538L63.231,38.538L63.362,38.538L63.483,38.538L63.608,38.538L63.86,38.538L63.987,38.538L64.117,38.538L64.239,38.538L64.363,38.538L64.616,38.538L64.741,38.538L64.873,38.538L64.994,38.538L65.118,38.538L65.37,38.538L65.496,38.538L65.627,38.538L65.748,38.538L65.873,38.538L66.125,38.538L66.251,38.538L66.382,38.538L66.503,38.538L66.628,38.538L66.88,38.538L67.005,38.538L67.135,38.538L67.258,38.538L67.383,38.538L67.635,38.538L67.761,38.538L67.891,38.538L68.013,38.538L68.138,38.538L68.389,38.538L68.516,38.538L68.647,38.538L68.769,38.538L68.893,38.538L69.145,38.538L69.271,38.538L69.402,38.538L69.523,38.538L69.647,38.538L69.899,38.538L70.025,38.538L70.156,38.538L70.278,38.538L70.402,38.538L70.655,38.538L70.78,38.538L70.911,38.538L71.032,38.538L71.158,38.538L71.41,38.538L71.666,38.538L71.787,38.538L71.913,38.538L72.164,38.538L72.29,38.538L72.42,38.538L72.541,38.538L72.667,38.538L72.919,38.538L73.044,38.538L73.175,38.538L73.296,38.538L73.422,38.538L73.674,38.538L73.799,38.538L73.931,38.538L74.052,38.538L74.177,38.538L74.429,38.538L74.554,38.538L74.686,38.538L74.807,38.538L74.932,38.538L75.183,38.538L75.31,38.538L75.441,38.538L75.563,38.538L75.687,38.538L75.939,38.538L76.065,38.538L76.196,38.538L76.442,38.538L76.694,38.538L76.82,38.538L76.95,38.538L77.071,38.538L77.196,38.538L77.448,38.538L77.574,38.538L77.702,38.538L77.825,38.538L77.951,38.538L78.214,38.538L78.408,38.538L78.526,38.538L78.77,38.538L78.96,38.538L79.084,38.538L79.213,38.538L79.335,38.538L79.461,38.538L79.713,38.538L79.839,38.538L79.97,38.538L80.09,38.538L80.216,38.538L80.467,38.538L80.593,38.538L80.725,38.538L80.847,38.538L80.971,38.538L81.348,38.538L81.48,38.538L81.601,38.538L81.726,38.538L81.977,38.538L82.103,38.538L82.234,38.538L82.356,38.538L82.48,38.538L82.732,38.538L82.858,38.538L82.988,38.538L83.11,38.538L83.235,38.538L83.488,38.538L83.613,38.538L83.744,38.538L83.865,38.538L83.99,38.538L84.242,38.538L84.368,38.538L84.5,38.538L84.62,38.538L84.745,38.538L84.997,38.538L85.123,38.538L85.255,38.538L85.375,38.538L85.501,38.538L85.752,38.538L85.879,38.538L86.013,38.538L86.13,38.538L86.255,38.538L86.507,38.538L86.633,38.538L86.761,38.538L86.885,38.538L87.01,38.538L87.261,38.538L87.388,38.538L87.519,38.538L87.64,38.538L87.765,38.538L88.017,38.538L88.142,38.538L88.272,38.538L88.394,38.538L88.519,38.538L88.771,38.538L88.897,38.538L89.028,38.538L89.149,38.538L89.274,38.538L89.526,38.538L89.654,38.538L89.784,38.538L89.904,38.538L90.03,38.538L90.281,38.538L90.408,38.538L90.539,38.538L90.66,38.538L90.785,38.538L91.036,38.538L91.164,38.538L91.294,38.538L91.414,38.538L91.539,38.538L91.791,38.538L91.917,38.538L92.049,38.538L92.169,38.538L92.295,38.538L92.546,38.538L92.671,38.538L92.803,38.538L92.924,38.538L93.049,38.538L93.301,38.538L93.426,38.538L93.557,38.538L93.678,38.538L93.804,38.538L94.056,38.538L94.182,38.538L94.312,38.538L94.433,38.538L94.559,38.538L94.81,38.538L94.937,38.538L95.069,38.538L95.19,38.538L95.313,38.538L95.565,38.538L95.692,38.538L95.823,30.846L95.944,30.846L96.069,30.846L96.32,30.846L96.446,30.846L96.58,30.846L96.7,30.846L96.823,30.846L97.076,30.846L97.202,30.846L97.333,30.846L97.455,30.846L97.579,30.846L97.83,30.846L97.956,30.846L98.089,30.846L98.208,30.846L98.333,30.846L98.585,30.846L98.711,30.846L98.842,30.846L98.962,30.846L99.088,30.846L99.34,30.846L99.465,30.846L99.597,30.846L99.717,30.846L99.843,30.846L100.095,30.846L100.221,30.846L100.353,30.846L100.473,30.846L100.598,30.846L100.849,30.846L100.976,30.846L101.108,30.846L101.229,30.846L101.353,30.846L101.605,30.846L101.731,30.846L101.863,30.846L101.983,30.846L102.108,30.846L102.359,30.846L102.486,30.846L102.618,30.846L102.738,30.846L102.862,30.846L103.114,30.846L103.24,30.846L103.373,30.846L103.493,30.846L103.617,30.846L103.869,30.846L103.995,30.846L104.127,30.846L104.247,30.846L104.372,30.846L104.624,30.846L104.75,30.846L104.881,30.846L105.002,30.846L105.127,30.846L105.38,30.846L105.505,30.846L105.638,30.846L105.758,30.846L105.882,30.846L106.134,30.846L106.26,30.846L106.393,30.846L106.512,30.846L106.637,30.846L106.889,30.846L107.015,30.846L107.148,38.538L107.268,38.538L107.392,38.538L107.643,38.538L107.77,38.538L107.902,38.538L108.023,38.538L108.146,38.538L108.4,38.538L108.525,38.538L108.657,38.538L108.776,38.538L108.902,38.538L109.154,38.538L109.279,38.538L109.411,38.538L109.531,38.538L109.656,38.538L109.909,38.538L110.034,38.538L110.165,38.538L110.286,38.538L110.412,38.538L110.663,38.538L110.79,38.538L110.922,38.538L111.042,38.538L111.166,38.538L111.42,38.538L111.545,38.538L111.677,38.538L111.796,38.538L111.921,38.538L112.174,38.538L112.3,38.538L112.432,38.538L112.552,38.538L112.676,38.538L112.929,38.538L113.054,38.538L113.187,38.538L113.306,38.538L113.431,38.538L113.684,30.846L113.809,30.846L113.941,30.846L114.061,30.846L114.186,30.846L114.437,30.846L114.563,30.846L114.695,30.846L114.815,30.846L114.94,30.846L115.193,30.846L115.318,30.846L115.45,30.846L115.57,30.846L115.695,30.846L115.948,30.846L116.074,30.846L116.207,30.846L116.326,30.846L116.451,30.846L116.702,30.846L116.829,30.846L116.961,30.846L117.082,30.846L117.205,30.846L117.458,30.846L117.584,30.846L117.716,30.846L117.836,30.846L117.96,30.846L118.212,30.846L118.338,30.846L118.471,30.846L118.59,30.846L118.715,30.846L118.967,30.846L119.094,30.846L119.226,30.846L119.347,30.846L119.47,30.846L119.722,30.846L119.847,30.846L119.979,30.846L120.1,30.846L120.225,30.846L120.477,30.846L120.602,30.846L120.735,30.846L120.855,30.846L120.98,30.846L121.233,30.846L121.359,30.846L121.491,30.846L121.611,30.846L121.734,30.846L121.987,30.846L122.113,30.846L122.246,30.846L122.366,30.846L122.49,30.846L122.742,30.846L122.868,34.692L123.001,34.692L123.12,34.692L123.244,34.692L123.497,34.692L123.623,34.692L123.755,34.692L123.876,34.692L124,34.692L124.251,34.692L124.377,34.692L124.51,40.077L124.629,40.077L124.754,40.077L125.007,40.077L125.133,40.077L125.264,40.077L125.384,40.077L125.509,40.077L125.761,40.077L125.887,40.077L126.019,40.077L126.139,40.077L126.264,40.077L126.517,40.077L126.643,40.077L126.776,40.077L126.895,40.077L127.019,40.077L127.271,40.077L127.398,40.077L127.53,40.077L127.65,40.077L127.773,40.077L128.026,40.077L128.152,40.077L128.285,40.077L128.405,40.077L128.529,40.077L128.78,40.077L128.907,40.077L129.039,40.077L129.161,40.077L129.283,40.077L129.536,40.077L129.662,40.077L129.794,40.077L129.914,40.077L130.038,40.077L130.29,40.077L130.416,40.077L130.549,40.077L130.668,40.077L130.793,40.077L131.045,40.077L131.17,40.077L131.303,40.077L131.423,40.077L131.548,40.077L131.8,40.077L131.927,40.077L132.059,40.077L132.179,40.077L132.303,40.077L132.555,40.077L132.681,40.077L132.814,40.077L133.058,40.077L133.311,40.077L133.436,40.077L133.569,40.077L133.689,40.077L133.813,40.077L134.066,40.077L134.192,40.077L134.324,40.077L134.444,40.077L134.568,40.077L134.82,40.077L134.946,40.077L135.079,40.077L135.198,40.077L135.323,40.077L135.575,40.077L135.7,40.077L135.833,40.077L135.953,40.077L136.078,40.077L136.329,40.077L136.455,40.077L136.587,40.077L136.708,40.077L136.832,40.077L137.084,40.077L137.211,40.077L137.344,40.077L137.464,40.077L137.587,40.077L137.84,40.077L137.966,40.077L138.098,40.077L138.218,40.077L138.342,40.077L138.594,40.077L138.721,40.077L138.853,40.077L138.974,40.077L139.097,40.077L139.349,40.077L139.475,40.077L139.608,40.077L139.727,40.077L139.852,40.077L140.105,40.077L140.23,40.077L140.362,40.077L140.482,40.077L140.606,40.077L140.859,40.077L140.984,40.077L141.116,40.077L141.237,40.077L141.362,40.077L141.613,40.077L141.739,40.077L141.871,40.077L141.991,40.077L142.117,40.077L142.369,40.077L142.495,40.077L142.627,40.077L142.747,40.077L142.871,40.077L143.123,40.077L143.25,40.077L143.383,40.077L143.502,40.077L143.626,40.077L143.879,40.077L144.005,40.077L144.138,40.077L144.257,40.077L144.381,40.077L144.634,40.077L144.759,40.077L144.893,40.077L145.012,40.077L145.136,40.077L145.388,40.077L145.514,40.077L145.648,40.077L145.766,40.077L145.891,40.077L146.143,40.077L146.268,40.077L146.4,40.077L146.521,40.077L146.645,40.077L146.899,40.077L147.025,40.077L147.164,40.077L147.283,40.077L147.4,40.077L147.654,40.077L147.779,40.077L147.913,40.077L148.032,40.077L148.155,40.077L148.408,40.077L148.534,40.077L148.665,40.077L148.787,40.077L148.91,40.077L149.162,40.077L149.289,40.077L149.422,40.077L149.542,40.077L149.665,40.077L149.918,40.077L150.044,40.077L150.177,40.077L150.296,40.077L150.42,40.077L150.673,40.077L150.799,40.077L150.932,40.077L151.052,40.077L151.175,40.077L151.428,40.077L151.553,40.077L151.685,40.077L151.805,40.077L151.93,40.077L152.182,40.077L152.307,40.077L152.44,40.077L152.561,40.077L152.685,40.077L152.937,40.077L153.064,40.077L153.197,40.077L153.316,40.077L153.439,40.077L153.692,40.077L153.819,40.077L153.951,40.077L154.071,40.077L154.195,40.077L154.447,40.077L154.573,40.077L154.707,40.077L154.826,40.077L154.949,40.077L155.203,40.077L155.328,40.077L155.461,40.077L155.581,40.077L155.705,40.077L155.957,40.077L156.083,40.077L156.215,40.077L156.336,40.077L156.459,40.077L156.711,40.077L156.837,40.077L156.971,40.077L157.089,40.077L157.214,40.077L157.466,40.077L157.592,40.077L157.724,40.077L157.845,40.077L157.969,40.077L158.221,40.077L158.348,40.077L158.481,40.077L158.6,40.077L158.724,40.077L158.976,40.077L159.102,40.077L159.236,40.077L159.355,40.077L159.478,40.077L159.73,40.077L159.856,40.077L159.991,40.077L160.11,40.077L160.233,40.077L160.486,40.077L160.612,40.077L160.746,40.077L160.865,40.077L160.989,40.077L161.241,40.077L161.367,40.077L161.5,40.077L161.62,40.077L161.743,40.077L161.996,40.077L162.122,40.077L162.254,40.077L162.374,40.077L162.498,40.077L162.752,40.077L162.876,40.077L163.009,40.077L163.128,40.077L163.254,40.077L163.506,40.077L163.632,40.077L163.766,40.077L163.884,40.077L164.008,40.077L164.261,40.077L164.387,40.077L164.52,40.077L164.639,40.077L164.763,40.077L165.016,40.077L165.142,40.077L165.275,40.077L165.395,40.077L165.518,40.077L165.771,40.077L165.897,40.077L166.03,40.077L166.149,40.077L166.273,40.077L166.525,40.077L166.652,40.077L166.785,40.077L166.904,40.077L167.028,40.077L167.281,40.077L167.406,40.077L167.538,40.077L167.66,40.077L167.782,40.077L168.035,40.077L168.16,40.077L168.293,40.077L168.413,40.077L168.538,40.077L168.79,40.077L168.917,40.077L169.051,40.077L169.169,40.077L169.293,40.077L169.545,40.077L169.671,40.077L169.805,40.077L169.924,40.077L170.047,40.077L170.3,40.077L170.426,40.077L170.559,40.077L170.679,40.077L170.802,40.077L171.055,40.077L171.181,40.077L171.314,40.077L171.433,40.077L171.557,40.077L171.809,40.077L171.936,40.077L172.069,40.077L172.189,40.077L172.312,40.077L172.564,40.077L172.69,40.077L172.822,40.077L172.943,40.077L173.068,40.077L173.319,40.077L173.445,40.077L173.578,40.077L173.697,40.077L173.821,40.077L174.074,40.077L174.201,40.077L174.334,40.077L174.452,40.077L174.577,40.077L174.83,40.077L174.955,40.077L175.089,40.077L175.207,40.077L175.332,40.077L175.584,40.077L175.71,40.077L175.841,40.077L175.963,40.077L176.087,40.077L176.339,40.077L176.465,40.077L176.599,40.077L176.719,40.077L176.841,40.077L177.094,40.077L177.22,40.077L177.353,40.077L177.472,40.077L177.596,40.077L177.849,40.077L177.974,40.077L178.107,40.077L178.226,40.077L178.351,40.077L178.604,40.077L178.73,40.077L178.862,40.077L178.981,40.077L179.107,40.077L179.36,40.077L179.485,40.077L179.619,40.077L179.737,40.077L179.861,40.077L180.114,40.077L180.24,40.077L180.373,40.077L180.492,40.077L180.616,40.077L180.869,40.077L180.995,40.077L181.128,40.077L181.248,40.077L181.37,40.077L181.624,40.077L181.75,40.077L181.883,40.077L182.002,40.077L182.125,40.077L182.379,40.077L182.505,40.077L182.638,40.077L182.757,40.077L182.88,40.077L183.133,40.077L183.259,40.077L183.392,40.077L183.512,40.077L183.635,40.077L183.888,40.077L184.014,40.077L184.148,40.077L184.266,40.077L184.39,40.077L184.643,40.077L184.77,40.077L184.903,40.077L185.022,40.077L185.145,40.077L185.398,40.077L185.524,40.077L185.658,40.077L185.777,40.077L185.9,40.077L186.153,40.077L186.279,40.077L186.413,40.077L186.531,40.077L186.656,40.077L186.908,40.077L187.034,40.077L187.168,40.077L187.286,40.077L187.41,40.077L187.662,40.077L187.789,40.077L187.922,40.077L188.042,40.077L188.164,40.077L188.417,40.077L188.543,40.077L188.676,40.077L188.795,40.077L188.919,40.077L189.172,40.077L189.298,40.077L189.431,40.077L189.551,40.077L189.675,40.077L189.927,40.077L190.055,40.077L190.188,40.077L190.306,40.077L190.429,40.077L190.682,40.077L190.809,40.077L190.943,40.077L191.061,40.077L191.184,40.077L191.438,40.077L191.564,40.077L191.697,40.077L191.816,40.077L191.939,40.077L192.193,40.077L192.319,40.077L192.452,40.077L192.571,40.077L192.694,40.077L192.947,40.077L193.073,40.077L193.207,40.077L193.325,40.077L193.449,40.077L193.702,40.077L193.828,40.077L193.96,40.077L194.08,40.077L194.204,40.077L194.457,40.077L194.583,40.077L194.716,40.077L194.835,40.077L194.958,40.077L195.213,40.077L195.339,40.077L195.473,40.077L195.591,40.077L195.714,40.077L195.965,40.077L196.093,40.077L196.227,40.077L196.345,40.077L196.468,40.077L196.722,40.077L196.848,40.077L196.982,40.077L197.1,40.077L197.224,40.077L197.477,40.077L197.603,40.077L197.737,40.077L197.855,40.077L197.978,40.077L198.232,40.077L198.358,40.077L198.492,40.077L198.61,40.077L198.733,40.077L198.986,40.077L199.111,40.077L199.245,40.077L199.364,40.077L199.487,40.077L199.742,40.077L199.866,40.077L200,40.077" stroke="#f58518" stroke-width="2"/></g></g><path class="foreground" aria-hidden="true" d="" display="none"/></g></g><g class="mark-group role-legend" role="graphics-symbol" aria-roledescription="legend" aria-label="Symbol legend titled 'identifier' for stroke color with 2 values: altex-LG-F2WR508SBW, altex-LG-F2WR508SBM"><g transform="translate(220,0)"><path class="background" aria-hidden="true" d="M0,0h168v40h-168Z" pointer-events="none"/><g><g class="mark-group role-legend-entry"><g transform="translate(0,16)"><path class="background" aria-hidden="true" d="M0,0h0v0h0Z" pointer-events="none"/><g><g class="mark-group role-scope" role="graphics-object" aria-roledescription="group mark container"><g transform="translate(0,0)"><path class="background" aria-hidden="true" d="M0,0h168v11h-168Z" pointer-events="none" opacity="1"/><g><g class="mark-symbol role-legend-symbol" pointer-events="none"><path transform="translate(6,6)" d="M-5,0L5,0" stroke="#4c78a8" stroke-width="1.5" opacity="1"/></g><g class="mark-text role-legend-label" pointer-events="none"><text text-anchor="start" transform="translate(16,9)" font-family="Liberation Mono" font-size="10px" fill="#000" opacity="1">altex-LG-F2WR508SBW</text></g></g><path class="foreground" aria-hidden="true" d="" pointer-events="none" display="none"/></g><g transform="translate(0,13)"><path class="background" aria-hidden="true" d="M0,0h168v11h-168Z" pointer-events="none" opacity="1"/><g><g class="mark-symbol role-legend-symbol" pointer-events="none"><path transform="translate(6,6)" d="M-5,0L5,0" stroke="#f58518" stroke-width="1.5" opacity="1"/></g><g class="mark-text role-legend-label" pointer-events="none"><text text-anchor="start" transform="translate(16,9)" font-family="Liberation Mono" font-size="10px" fill="#000" opacity="1">altex-LG-F2WR508SBM</text></g></g><path class="foreground" aria-hidden="true" d="" pointer-events="none" display="none"/></g></g></g><path class="foreground" aria-hidden="true" d="" pointer-events="none" display="none"/></g></g><g class="mark-text role-legend-title" pointer-events="none"><text text-anchor="start" transform="translate(0,9)" font-family="Liberation Mono" font-size="11px" font-weight="bold" fill="#000" opacity="1">identifier</text></g></g><path class="foreground" aria-hidden="true" d="" pointer-events="none" display="none"/></g></g></g><path class="foreground" aria-hidden="true" d="" display="none"/></g></g></g></svg>