<svg xmlns="http://www.w3.org/2000/svg" xmlns:xlink="http://www.w3.org/1999/xlink" version="1.1" class="marks" width="460" height="242" viewBox="0 0 460 242"><rect width="460" height="242" fill="white"/><g fill="none" stroke-miterlimit="10" transform="translate(67,5)"><g class="mark-group role-frame root" role="graphics-object" aria-roledescription="group mark container"><g transform="translate(0,0)"><path class="background" aria-hidden="true" d="M0.5,0.5h200v200h-200Z" stroke="#ddd"/><g><g class="mark-group role-axis" aria-hidden="true"><g transform="translate(0.5,200.5)"><path class="background" aria-hidden="true" d="M0,0h0v0h0Z" pointer-events="none"/><g><g class="mark-rule role-axis-grid" pointer-events="none"><line transform="translate(49,-200)" x2="0" y2="200" stroke="#ddd" stroke-width="1" opacity="1"/><line transform="translate(97,-200)" x2="0" y2="200" stroke="#ddd" stroke-width="1" opacity="1"/><line transform="translate(147,-200)" x2="0" y2="200" stroke="#ddd" stroke-width="1" opacity="1"/><line transform="translate(196,-200)" x2="0" y2="200" stroke="#ddd" stroke-width="1" opacity="1"/></g></g><path class="foreground" aria-hidden="true" d="" pointer-events="none" display="none"/></g></g><g class="mark-group role-axis" aria-hidden="true"><g transform="translate(0.5,0.5)"><path class="background" aria-hidden="true" d="M0,0h0v0h0Z" pointer-events="none"/><g><g class="mark-rule role-axis-grid" pointer-events="none"><line transform="translate(0,200)" x2="200" y2="0" stroke="#ddd" stroke-width="1" opacity="1"/><line transform="translate(0,162)" x2="200" y2="0" stroke="#ddd" stroke-width="1" opacity="1"/><line transform="translate(0,123)" x2="200" y2="0" stroke="#ddd" stroke-width="1" opacity="1"/><line transform="translate(0,85)" x2="200" y2="0" stroke="#ddd" stroke-width="1" opacity="1"/><line transform="translate(0,46)" x2="200" y2="0" stroke="#ddd" stroke-width="1" opacity="1"/><line transform="translate(0,8)" x2="200" y2="0" stroke="#ddd" stroke-width="1" opacity="1"/></g></g><path class="foreground" aria-hidden="true" d="" pointer-events="none" display="none"/></g></g><g class="mark-group role-axis" role="graphics-symbol" aria-roledescription="axis" aria-label="X-axis titled 'Time' for a time scale with values from Monday, 01 January 2024, 2:19:43 PM to Wednesday, 08 January 2025, 8:44:41 AM"><g transform="translate(0.5,200.5)"><path class="background" aria-hidden="true" d="M0,0h0v0h0Z" pointer-events="none"/><g><g class="mark-rule role-axis-tick" pointer-events="none"><line transform="translate(49,0)" x2="0" y2="5" stroke="#888" stroke-width="1" opacity="1"/><line transform="translate(97,0)" x2="0" y2="5" stroke="#888" stroke-width="1" opacity="1"/><line transform="translate(147,0)" x2="0" y2="5" stroke="#888" stroke-width="1" opacity="1"/><line transform="translate(196,0)" x2="0" y2="5" stroke="#888" stroke-width="1" opacity="1"/></g><g class="mark-text role-axis-label" pointer-events="none"><text text-anchor="middle" transform="translate(48.50369835553828,15)" font-family="Liberation Mono" font-size="10px" fill="#000" opacity="1">April</text><text text-anchor="middle" transform="translate(97.32771814878994,15)" font-family="Liberation Mono" font-size="10px" fill="#000" opacity="1">July</text><text text-anchor="middle" transform="translate(146.68826563207733,15)" font-family="Liberation Mono" font-size="10px" fill="#000" opacity="1">October</text><text text-anchor="middle" transform="translate(196.04881311536474,15)" font-family="Liberation Mono" font-size="10px" fill="#000" opacity="1">2025</text></g><g class="mark-rule role-axis-domain" pointer-events="none"><line transform="translate(0,0)" x2="200" y2="0" stroke="#888" stroke-width="1" opacity="1"/></g><g class="mark-text role-axis-title" pointer-events="none"><text text-anchor="middle" transform="translate(100,30)" font-family="Liberation Mono" font-size="11px" font-weight="bold" fill="#000" opacity="1">Time</text></g></g><path class="foreground" aria-hidden="true" d="" pointer-events="none" display="none"/></g></g><g class="mark-group role-axis" role="graphics-symbol" aria-roledescription="axis" aria-label="Y-axis titled 'Price' for a linear scale with values from 0 to 2,600"><g transform="translate(0.5,0.5)"><path class="background" aria-hidden="true" d="M0,0h0v0h0Z" pointer-events="none"/><g><g class="mark-rule role-axis-tick" pointer-events="none"><line transform="translate(0,200)" x2="-5" y2="0" stroke="#888" stroke-width="1" opacity="1"/><line transform="translate(0,162)" x2="-5" y2="0" stroke="#888" stroke-width="1" opacity="1"/><line transform="translate(0,123)" x2="-5" y2="0" stroke="#888" stroke-width="1" opacity="1"/><line transform="translate(0,85)" x2="-5" y2="0" stroke="#888" stroke-width="1" opacity="1"/><line transform="translate(0,46)" x2="-5" y2="0" stroke="#888" stroke-width="1" opacity="1"/><line transform="translate(0,8)" x2="-5" y2="0" stroke="#888" stroke-width="1" opacity="1"/></g><g class="mark-text role-axis-label" pointer-events="none"><text text-anchor="end" transform="translate(-7,203)" font-family="Liberation Mono" font-size="10px" fill="#000" opacity="1">0</text><text text-anchor="end" transform="translate(-7,164.53846153846155)" font-family="Liberation Mono" font-size="10px" fill="#000" opacity="1">500</text><text text-anchor="end" transform="translate(-7,126.07692307692308)" font-family="Liberation Mono" font-size="10px" fill="#000" opacity="1">1,000</text><text text-anchor="end" transform="translate(-7,87.61538461538463)" font-family="Liberation Mono" font-size="10px" fill="#000" opacity="1">1,500</text><text text-anchor="end" transform="translate(-7,49.153846153846146)" font-family="Liberation Mono" font-size="10px" fill="#000" opacity="1">2,000</text><text text-anchor="end" transform="translate(-7,10.692307692307686)" font-family="Liberation Mono" font-size="10px" fill="#000" opacity="1">2,500</text></g><g class="mark-rule role-axis-domain" pointer-events="none"><line transform="translate(0,200)" x2="0" y2="-200" stroke="#888" stroke-width="1" opacity="1"/></g><g class="mark-text role-axis-title" pointer-events="none"><text text-anchor="middle" transform="translate(-51,100) rotate(-90) translate(0,-2)" font-family="Liberation Mono" font-size="11px" font-weight="bold" fill="#000" opacity="1">Price</text></g></g><path class="foreground" aria-hidden="true" d="" pointer-events="none" display="none"/></g></g><g class="mark-group role-scope pathgroup" role="graphics-object" aria-roledescription="group mark container"><g transform="translate(0,0)"><path class="background" aria-hidden="true" d="M0,0h200v200h-200Z"/><g><g class="mark-line role-mark marks" role="graphics-object" aria-roledescription="line mark container"><path aria-label="Time: Jan 01, 2024; Price: 2399; identifier: altex-LG-F2WR508SBW" role="graphics-symbol" aria-roledescription="line mark" d="M0,15.462L0.056,15.462L0.141,15.462L0.32,15.462L0.41,15.462L0.503,15.462L0.589,15.462L0.678,15.462L0.857,15.462L0.946,15.462L1.04,15.462L1.126,15.462L1.214,15.462L1.393,15.462L1.483,15.462L1.576,15.462L1.663,15.462L1.751,15.462L1.93,34.692L2.019,34.692L2.113,34.692L2.199,34.692L2.287,34.692L2.466,34.692L2.556,34.692L2.649,34.692L2.735,34.692L2.824,34.692L3.003,34.692L3.092,34.692L3.186,34.692L3.272,34.692L3.36,34.692L3.54,34.692L3.629,34.692L3.723,34.692L3.809,34.692L3.897,34.692L4.076,34.692L4.166,34.692L4.261,34.692L4.346,34.692L4.433,34.692L4.613,34.692L4.702,34.692L4.796,34.692L4.882,34.692L4.97,34.692L5.149,34.692L5.239,34.692L5.333,34.692L5.419,34.692L5.506,34.692L5.686,34.692L5.775,34.692L5.869,34.692L5.955,34.692L6.043,34.692L6.222,46.231L6.311,46.231L6.405,46.231L6.491,46.231L6.579,46.231L6.759,46.231L6.848,46.231L6.941,46.231L7.027,46.231L7.116,46.231L7.295,46.231L7.385,46.231L7.479,46.231L7.565,46.231L7.652,46.231L7.832,46.231L7.922,46.231L8.016,46.231L8.101,46.231L8.189,46.231L8.368,46.231L8.458,46.231L8.552,46.231L8.638,46.231L8.726,46.231L8.905,46.231L8.994,46.231L9.089,46.231L9.174,46.231L9.262,46.231L9.441,46.231L9.531,46.231L9.625,46.231L9.711,46.231L9.799,46.231L9.978,46.231L10.067,46.231L10.161,46.231L10.247,46.231L10.335,46.231L10.514,46.231L10.603,46.231L10.697,46.231L10.783,46.231L10.872,46.231L11.051,46.231L11.141,46.231L11.235,46.231L11.32,46.231L11.408,46.231L11.588,46.231L11.677,46.231L11.772,46.231L11.857,46.231L11.945,46.231L12.124,46.231L12.214,46.231L12.308,46.231L12.393,46.231L12.481,46.231L12.661,46.231L12.75,46.231L12.845,46.231L12.93,46.231L13.018,46.231L13.197,46.231L13.287,46.231L13.379,46.231L13.465,46.231L13.555,46.231L13.733,46.231L13.823,46.231L13.915,46.231L14.001,46.231L14.091,46.231L14.27,46.231L14.359,46.231L14.451,46.231L14.538,46.231L14.627,46.231L14.806,46.231L14.896,46.231L14.989,46.231L15.075,46.231L15.164,46.231L15.343,46.231L15.432,46.231L15.525,46.231L15.612,46.231L15.7,46.231L15.879,46.231L15.969,46.231L16.062,46.231L16.147,46.231L16.237,46.231L16.416,34.692L16.505,34.692L16.598,34.692L16.684,34.692L16.773,34.692L16.952,34.692L17.042,34.692L17.135,34.692L17.22,34.692L17.31,34.692L17.489,34.692L17.578,34.692L17.67,34.692L17.757,34.692L17.847,34.692L18.026,34.692L18.115,34.692L18.207,34.692L18.293,34.692L18.383,34.692L18.562,34.692L18.652,34.692L18.745,34.692L18.83,34.692L18.919,34.692L19.098,34.692L19.188,34.692L19.281,34.692L19.367,34.692L19.456,34.692L19.635,34.692L19.724,34.692L19.817,34.692L19.904,34.692L19.993,34.692L20.171,34.692L20.261,34.692L20.354,34.692L20.44,34.692L20.529,34.692L20.708,34.692L20.798,34.692L20.89,34.692L20.976,34.692L21.066,34.692L21.244,34.692L21.334,34.692L21.426,34.692L21.513,34.692L21.602,34.692L21.781,34.692L21.871,34.692L21.963,34.692L22.049,34.692L22.139,34.692L22.318,34.692L22.407,34.692L22.5,34.692L22.586,34.692L22.675,34.692L22.854,34.692L22.943,34.692L23.036,34.692L23.124,34.692L23.212,34.692L23.391,34.692L23.48,34.692L23.573,34.692L23.659,34.692L23.748,34.692L24.017,34.692L24.11,34.692L24.196,34.692L24.285,34.692L24.464,34.692L24.553,34.692L24.646,34.692L24.732,34.692L24.821,34.692L25,34.692L25.09,34.692L25.182,34.692L25.268,34.692L25.358,34.692L25.537,34.692L25.627,34.692L25.718,34.692L25.805,34.692L25.894,34.692L26.073,34.692L26.163,34.692L26.256,34.692L26.343,34.692L26.431,34.692L26.61,34.692L26.699,34.692L26.792,34.692L26.878,34.692L26.968,34.692L27.146,34.692L27.236,34.692L27.329,34.692L27.415,34.692L27.504,34.692L27.683,34.692L27.772,34.692L27.865,34.692L27.951,34.692L28.041,34.692L28.219,34.692L28.309,34.692L28.401,34.692L28.488,34.692L28.578,34.692L28.756,34.692L28.845,34.692L28.937,34.692L29.024,34.692L29.113,34.692L29.292,34.692L29.382,34.692L29.474,34.692L29.561,34.692L29.65,34.692L29.829,34.692L29.919,34.692L30.011,34.692L30.097,34.692L30.187,34.692L30.365,34.692L30.455,34.692L30.548,34.692L30.634,34.692L30.723,34.692L30.902,34.692L30.991,34.692L31.084,34.692L31.171,34.692L31.26,34.692L31.439,34.692L31.528,34.692L31.621,34.692L31.707,34.692L31.796,34.692L31.975,34.692L32.065,34.692L32.157,34.692L32.243,34.692L32.333,34.692L32.512,34.692L32.601,34.692L32.694,34.692L32.78,34.692L32.869,34.692L33.048,34.692L33.137,34.692L33.23,34.692L33.316,34.692L33.406,34.692L33.593,34.692L33.715,34.692L33.768,34.692L33.853,34.692L33.942,34.692L34.121,34.692L34.21,34.692L34.304,34.692L34.39,34.692L34.479,34.692L34.658,34.692L34.748,34.692L34.84,34.692L34.927,34.692L35.015,34.692L35.194,34.692L35.284,34.692L35.377,34.692L35.463,34.692L35.552,34.692L35.731,34.692L35.821,34.692L35.913,34.692L35.999,34.692L36.088,34.692L36.267,34.692L36.357,34.692L36.449,34.692L36.536,34.692L36.625,34.692L36.804,34.692L36.894,34.692L36.985,34.692L37.072,34.692L37.161,34.692L37.341,34.692L37.43,34.692L37.523,34.692L37.609,34.692L37.698,34.692L37.877,34.692L37.966,34.692L38.059,34.692L38.146,34.692L38.234,34.692L38.413,34.692L38.503,34.692L38.596,34.692L38.682,34.692L38.771,34.692L38.95,34.692L39.039,34.692L39.133,34.692L39.218,34.692L39.308,34.692L39.486,34.692L39.576,34.692L39.669,34.692L39.755,34.692L39.844,34.692L40.023,34.692L40.113,34.692L40.205,34.692L40.291,34.692L40.381,34.692L40.559,34.692L40.649,34.692L40.741,34.692L40.828,34.692L40.917,34.692L41.096,34.692L41.185,34.692L41.279,34.692L41.365,34.692L41.454,34.692L41.633,34.692L41.722,34.692L41.815,34.692L41.902,34.692L41.99,34.692L42.169,34.692L42.259,34.692L42.352,34.692L42.438,34.692L42.527,34.692L42.706,34.692L42.795,34.692L42.889,34.692L42.975,34.692L43.063,34.692L43.242,34.692L43.332,34.692L43.425,34.692L43.511,34.692L43.6,34.692L43.779,34.692L43.868,34.692L43.961,34.692L44.047,34.692L44.136,34.692L44.315,34.692L44.405,34.692L44.498,34.692L44.583,34.692L44.673,34.692L44.852,34.692L44.941,34.692L45.034,34.692L45.12,34.692L45.209,34.692L45.388,34.692L45.478,34.692L45.571,34.692L45.657,34.692L45.746,34.692L45.925,34.692L46.015,34.692L46.108,34.692L46.194,34.692L46.283,34.692L46.461,34.692L46.551,34.692L46.644,34.692L46.73,34.692L46.819,34.692L46.998,34.692L47.087,34.692L47.181,34.692L47.267,34.692L47.355,34.692L47.534,34.692L47.624,34.692L47.716,34.692L47.803,34.692L47.892,34.692L48.071,34.692L48.161,34.692L48.253,34.692L48.34,34.692L48.429,34.692L48.607,34.692L48.697,34.692L48.791,34.692L48.877,34.692L48.965,34.692L49.144,34.692L49.234,34.692L49.327,34.692L49.413,34.692L49.502,34.692L49.68,34.692L49.77,34.692L49.863,34.692L49.95,34.692L50.038,34.692L50.217,34.692L50.307,34.692L50.4,34.692L50.486,34.692L50.575,34.692L50.754,34.692L50.936,34.692L51.022,34.692L51.112,34.692L51.29,34.692L51.38,34.692L51.472,34.692L51.558,34.692L51.648,34.692L51.826,34.692L51.916,34.692L52.009,34.692L52.095,34.692L52.184,34.692L52.363,34.692L52.452,34.692L52.546,34.692L52.632,34.692L52.721,34.692L52.9,34.692L52.989,34.692L53.082,34.692L53.169,34.692L53.257,34.692L53.436,34.692L53.526,34.692L53.619,34.692L53.706,34.692L53.794,34.692L53.973,34.692L54.063,34.692L54.156,34.692L54.331,34.692L54.51,34.692L54.599,34.692L54.692,34.692L54.778,34.692L54.867,34.692L55.046,34.692L55.135,34.692L55.226,34.692L55.314,34.692L55.403,34.692L55.59,34.692L55.728,34.692L55.812,34.692L55.986,34.692L56.12,34.692L56.208,34.692L56.3,34.692L56.387,34.692L56.476,34.692L56.655,34.692L56.745,34.692L56.838,34.692L56.924,34.692L57.013,34.692L57.192,34.692L57.281,34.692L57.375,34.692L57.461,34.692L57.55,34.692L57.818,34.692L57.911,34.692L57.997,34.692L58.086,34.692L58.265,34.692L58.354,34.692L58.448,34.692L58.534,34.692L58.623,34.692L58.802,34.692L58.891,34.692L58.984,34.692L59.07,34.692L59.159,34.692L59.338,34.692L59.428,34.692L59.52,34.692L59.606,34.692L59.696,34.692L59.874,34.692L59.964,34.692L60.058,34.692L60.143,34.692L60.232,34.692L60.411,34.692L60.501,34.692L60.594,34.692L60.68,34.692L60.769,34.692L60.947,34.692L61.038,34.692L61.133,34.692L61.216,34.692L61.305,34.692L61.484,34.692L61.574,34.692L61.665,34.692L61.753,34.692L61.842,34.692L62.021,34.692L62.11,34.692L62.204,34.692L62.289,34.692L62.379,34.692L62.557,34.692L62.646,34.692L62.739,34.692L62.825,34.692L62.915,34.692L63.094,34.692L63.183,34.692L63.276,34.692L63.362,34.692L63.451,34.692L63.63,34.692L63.721,34.692L63.814,34.692L63.899,34.692L63.988,34.692L64.167,34.692L64.257,34.692L64.35,34.692L64.436,34.692L64.525,34.692L64.703,34.692L64.794,34.692L64.887,34.692L64.972,34.692L65.061,34.692L65.24,57.769L65.329,57.769L65.423,57.769L65.509,57.769L65.598,57.769L65.777,57.769L65.866,57.769L65.959,57.769L66.045,57.769L66.134,57.769L66.313,57.769L66.402,57.769L66.495,57.769L66.581,57.769L66.671,57.769L66.849,57.769L66.939,57.769L67.032,57.769L67.118,57.769L67.207,57.769L67.386,57.769L67.476,57.769L67.57,57.769L67.655,57.769L67.743,57.769L67.922,57.769L68.012,57.769L68.105,57.769L68.191,57.769L68.28,57.769L68.459,57.769L68.549,57.769L68.643,57.769L68.729,57.769L68.816,57.769L68.996,34.692L69.086,34.692L69.179,34.692L69.266,34.692L69.353,34.692L69.532,34.692L69.621,34.692L69.716,34.692L69.801,34.692L69.89,34.692L70.069,34.692L70.158,34.692L70.251,34.692L70.337,34.692L70.426,34.692L70.605,34.692L70.694,34.692L70.788,34.692L70.874,34.692L70.963,34.692L71.142,34.692L71.232,34.692L71.326,34.692L71.411,34.692L71.5,34.692L71.678,34.692L71.768,34.692L71.862,34.692L71.948,34.692L72.036,34.692L72.215,34.692L72.305,34.692L72.399,34.692L72.484,34.692L72.573,34.692L72.751,34.692L72.841,34.692L72.935,34.692L73.02,34.692L73.109,34.692L73.288,34.692L73.377,34.692L73.471,34.692L73.557,34.692L73.645,34.692L73.824,34.692L73.914,34.692L74.008,34.692L74.093,34.692L74.182,34.692L74.361,34.692L74.45,34.692L74.544,34.692L74.63,34.692L74.719,34.692L74.898,34.692L74.987,34.692L75.082,34.692L75.167,34.692L75.255,34.692L75.434,34.692L75.524,34.692L75.618,34.692L75.703,34.692L75.792,34.692L75.971,34.692L76.061,34.692L76.155,34.692L76.24,34.692L76.328,34.692L76.507,34.692L76.597,34.692L76.691,34.692L76.776,34.692L76.864,34.692L77.044,34.692L77.133,34.692L77.227,34.692L77.312,34.692L77.401,34.692L77.58,34.692L77.67,34.692L77.763,34.692L77.849,34.692L77.938,34.692L78.117,34.692L78.206,34.692L78.299,34.692L78.385,34.692L78.475,34.692L78.653,34.692L78.743,34.692L78.837,34.692L78.923,34.692L79.011,34.692L79.191,34.692L79.28,34.692L79.374,34.692L79.459,34.692L79.547,34.692L79.727,34.692L79.816,34.692L79.91,34.692L79.995,34.692L80.084,34.692L80.264,34.692L80.353,34.692L80.447,34.692L80.532,34.692L80.62,34.692L80.8,34.692L80.889,34.692L80.983,34.692L81.068,34.692L81.157,34.692L81.336,34.692L81.425,34.692L81.519,34.692L81.604,34.692L81.693,34.692L81.872,34.692L81.962,34.692L82.055,34.692L82.141,34.692L82.23,34.692L82.409,34.692L82.499,34.692L82.594,34.692L82.678,34.692L82.767,34.692L82.945,34.692L83.035,34.692L83.13,34.692L83.215,34.692L83.303,34.692L83.483,34.692L83.572,34.692L83.666,34.692L83.751,34.692L83.839,34.692L84.019,34.692L84.108,34.692L84.203,34.692L84.287,34.692L84.376,34.692L84.555,34.692L84.645,34.692L84.74,34.692L84.825,34.692L84.913,34.692L85.092,34.692L85.181,34.692L85.275,34.692L85.361,34.692L85.449,34.692L85.628,34.692L85.717,34.692L85.811,34.692L85.897,34.692L85.986,34.692L86.165,34.692L86.255,34.692L86.349,34.692L86.434,34.692L86.522,34.692L86.702,34.692L86.791,34.692L86.886,34.692L86.971,34.692L87.059,34.692L87.238,34.692L87.328,46.231L87.422,46.231L87.507,46.231L87.595,46.231L87.775,46.231L87.864,46.231L87.958,46.231L88.044,46.231L88.132,46.231L88.311,46.231L88.4,46.231L88.495,48.538L88.58,48.538L88.669,48.538L88.848,48.538L88.937,48.538L89.031,48.538L89.116,48.538L89.205,48.538L89.384,48.538L89.474,48.538L89.567,48.538L89.653,48.538L89.741,48.538L89.921,48.538L90.011,48.538L90.105,48.538L90.19,48.538L90.278,48.538L90.457,48.538L90.547,48.538L90.641,48.538L90.726,48.538L90.814,48.538L90.994,48.538L91.083,48.538L91.178,48.538L91.263,48.538L91.351,48.538L91.53,48.538L91.62,48.538L91.714,48.538L91.8,48.538L91.887,48.538L92.067,48.538L92.156,48.538L92.25,48.538L92.335,48.538L92.424,48.538L92.603,48.538L92.692,48.538L92.787,48.538L92.872,48.538L92.96,48.538L93.14,48.538L93.229,48.538L93.323,48.538L93.408,48.538L93.497,48.538L93.676,48.538L93.766,48.538L93.861,48.538L93.945,48.538L94.033,48.538L94.213,48.538L94.303,48.538L94.397,48.538L94.57,48.538L94.75,48.538L94.839,48.538L94.934,48.538L95.018,48.538L95.107,48.538L95.287,48.538L95.376,48.538L95.47,48.538L95.555,48.538L95.643,48.538L95.822,48.538L95.912,48.538L96.007,48.538L96.091,48.538L96.18,48.538L96.359,48.538L96.448,48.538L96.542,48.538L96.628,48.538L96.716,48.538L96.895,48.538L96.985,48.538L97.079,48.538L97.164,48.538L97.253,48.538L97.432,48.538L97.522,48.538L97.617,48.538L97.702,48.538L97.789,48.538L97.969,48.538L98.058,48.538L98.152,48.538L98.238,48.538L98.326,48.538L98.505,48.538L98.595,48.538L98.689,48.538L98.775,48.538L98.862,48.538L99.042,48.538L99.131,48.538L99.226,48.538L99.31,48.538L99.399,48.538L99.579,48.538L99.668,48.538L99.762,48.538L99.847,48.538L99.935,48.538L100.115,48.538L100.204,48.538L100.297,48.538L100.383,48.538L100.472,48.538L100.651,48.538L100.74,48.538L100.834,48.538L100.919,48.538L101.009,48.538L101.188,48.538L101.278,48.538L101.372,48.538L101.457,48.538L101.545,48.538L101.724,48.538L101.814,48.538L101.909,48.538L101.994,48.538L102.082,48.538L102.261,48.538L102.351,48.538L102.445,48.538L102.53,48.538L102.618,48.538L102.798,48.538L102.887,48.538L102.982,48.538L103.066,48.538L103.154,48.538L103.334,48.538L103.424,48.538L103.518,48.538L103.603,48.538L103.691,48.538L103.87,48.538L103.959,48.538L104.053,48.538L104.139,48.538L104.227,48.538L104.408,48.538L104.497,48.538L104.596,48.538L104.68,48.538L104.764,48.538L104.944,48.538L105.033,48.538L105.128,48.538L105.213,48.538L105.301,48.538L105.48,48.538L105.57,48.538L105.663,48.538L105.75,48.538L105.837,48.538L106.016,48.538L106.106,48.538L106.201,48.538L106.286,48.538L106.374,48.538L106.553,48.538L106.643,48.538L106.738,48.538L106.822,48.538L106.91,48.538L107.09,48.538L107.179,48.538L107.274,48.538L107.359,48.538L107.447,48.538L107.626,48.538L107.715,48.538L107.809,48.538L107.895,48.538L107.984,48.538L108.162,48.538L108.252,48.538L108.346,48.538L108.432,48.538L108.52,48.538L108.699,48.538L108.79,48.538L108.884,48.538L108.969,48.538L109.056,48.538L109.236,48.538L109.326,48.538L109.42,48.538L109.505,48.538L109.593,48.538L109.772,27L109.862,27L109.957,27L110.041,27L110.129,27L110.309,27L110.399,27L110.493,27L110.578,27L110.666,27L110.846,27L110.935,27L111.029,27L111.115,27L111.202,27L111.382,27L111.471,27L111.566,27L111.65,27L111.739,27L111.918,27L112.007,27L112.101,27L112.187,27L112.275,27L112.455,27L112.545,27L112.64,27L112.724,27L112.812,27L112.991,27L113.081,27L113.176,27L113.261,27L113.348,27L113.527,27L113.617,27L113.712,27L113.797,27L113.885,27L114.064,27L114.154,27L114.249,27L114.334,27L114.422,27L114.601,27L114.691,27L114.785,27L114.87,27L114.958,27L115.137,27L115.227,27L115.321,27L115.406,27L115.495,27L115.675,27L115.763,27L115.857,27L115.942,27L116.032,27L116.211,27L116.301,27L116.395,27L116.48,27L116.568,27L116.748,27L116.837,27L116.932,27L117.016,27L117.104,27L117.284,27L117.373,27L117.469,27L117.553,27L117.641,27L117.821,27L117.91,27L118.005,27L118.089,27L118.177,27L118.357,27L118.447,27L118.541,27L118.626,27L118.714,27L118.894,27L118.983,27L119.077,27L119.163,27L119.25,27L119.43,27L119.519,27L119.614,27L119.698,27L119.787,27L119.967,27L120.057,27L120.152,27L120.236,27L120.324,27L120.503,27L120.593,27L120.688,27L120.773,27L120.86,27L121.04,27L121.13,27L121.224,27L121.309,27L121.396,27L121.576,27L121.666,27L121.76,27L121.845,27L121.933,27L122.113,27L122.202,27L122.297,27L122.382,27L122.47,27L122.649,27L122.738,27L122.832,27L122.918,27L123.007,27L123.186,27L123.275,27L123.369,27L123.454,27L123.542,27L123.722,27L123.812,27L123.907,27L123.991,27L124.079,27L124.26,27L124.348,27L124.443,27L124.527,27L124.616,27L124.795,27L124.885,27L124.978,27L125.065,27L125.153,27L125.332,27L125.422,27L125.516,27L125.602,27L125.689,27L125.868,27L125.958,27L126.053,27L126.137,27L126.225,27L126.405,27L126.494,27L126.589,27L126.673,27L126.762,27L126.941,27L127.031,27L127.125,27L127.21,27L127.299,27L127.479,27L127.568,27L127.663,27L127.747,27L127.835,27L128.015,27L128.104,27L128.199,27L128.283,27L128.372,27L128.551,27L128.641,27L128.736,27L128.821,27L128.908,27L129.088,27L129.178,27L129.273,27L129.357,27L129.444,27L129.625,27L129.714,27L129.809,27L129.893,27L129.981,27L130.161,27L130.25,27L130.345,27L130.43,27L130.518,27L130.698,27L130.787,27L130.882,27L130.966,27L131.054,27L131.234,27L131.324,27L131.419,27L131.503,27L131.591,27L131.77,27L131.86,27L131.955,27L132.04,27L132.127,27L132.307,27L132.397,27L132.492,27L132.576,27L132.664,27L132.844,27L132.933,27L133.029,27L133.113,27L133.2,27L133.38,27L133.47,27L133.565,27L133.65,27L133.737,27L133.916,27L134.006,27L134.1,27L134.185,27L134.273,27L134.453,27L134.542,27L134.637,27L134.722,27L134.81,27L134.99,27L135.08,27L135.175,27L135.259,27L135.347,27L135.526,27L135.616,27L135.712,27L135.795,27L135.883,27L136.064,27L136.153,27L136.248,27L136.332,27L136.419,27L136.6,27L136.69,27L136.784,27L136.869,27L136.956,27L137.136,27L137.226,27L137.321,27L137.405,27L137.493,27L137.672,46.231L137.762,46.231L137.856,46.231L137.941,46.231L138.029,46.231L138.209,46.231L138.298,46.231L138.393,46.231L138.478,46.231L138.565,46.231L138.746,46.231L138.836,46.231L138.931,46.231L139.015,46.231L139.103,46.231L139.281,46.231L139.372,46.231L139.467,46.231L139.551,46.231L139.639,46.231L139.819,46.231L139.909,46.231L140.004,46.231L140.088,46.231L140.176,46.231L140.356,53.923L140.445,53.923L140.54,53.923L140.624,53.923L140.712,53.923L140.892,53.923L140.981,53.923L141.077,53.923L141.161,53.923L141.249,53.923L141.428,53.923L141.517,53.923L141.612,53.923L141.697,53.923L141.785,53.923L141.966,53.923L142.054,53.923L142.149,53.923L142.233,53.923L142.321,53.923L142.501,53.923L142.592,53.923L142.687,53.923L142.771,53.923L142.858,53.923L143.038,53.923L143.128,53.923L143.224,53.923L143.307,53.923L143.395,53.923L143.575,53.923L143.665,53.923L143.76,53.923L143.845,53.923L143.931,53.923L144.111,23.154L144.201,23.154L144.297,23.154L144.38,23.154L144.468,23.154L144.648,23.154L144.738,23.154L144.833,23.154L144.917,23.154L145.184,23.154L145.273,23.154L145.368,23.154L145.452,23.154L145.54,23.154L145.721,23.154L145.81,23.154L145.905,23.154L145.989,23.154L146.077,23.154L146.258,23.154L146.348,23.154L146.443,23.154L146.527,23.154L146.614,23.154L146.794,23.154L146.884,23.154L146.98,23.154L147.063,23.154L147.151,23.154L147.33,23.154L147.421,23.154L147.516,23.154L147.6,23.154L147.688,23.154L147.867,23.154L147.957,23.154L148.052,23.154L148.136,23.154L148.224,23.154L148.403,23.154L148.493,23.154L148.589,23.154L148.673,23.154L148.76,23.154L148.94,23.154L149.029,23.154L149.124,23.154L149.208,23.154L149.296,23.154L149.476,23.154L149.566,23.154L149.661,23.154L149.745,23.154L149.833,23.154L150.013,23.154L150.103,23.154L150.199,23.154L150.282,23.154L150.37,23.154L150.549,23.154L150.64,23.154L150.735,23.154L150.819,23.154L150.906,23.154L151.086,23.154L151.176,23.154L151.271,23.154L151.355,23.154L151.443,23.154L151.622,23.154L151.713,23.154L151.808,23.154L151.891,23.154L151.979,23.154L152.159,23.154L152.249,23.154L152.344,23.154L152.428,23.154L152.516,23.154L152.696,23.154L152.785,23.154L152.879,23.154L152.965,23.154L153.052,23.154L153.232,23.154L153.321,23.154L153.417,23.154L153.501,23.154L153.589,23.154L153.769,23.154L153.859,23.154L153.954,23.154L154.038,23.154L154.125,23.154L154.305,23.154L154.395,23.154L154.491,23.154L154.575,23.154L154.662,23.154L154.842,23.154L154.932,23.154L155.027,23.154L155.111,23.154L155.199,23.154L155.379,23.154L155.468,23.154L155.564,23.154L155.648,23.154L155.735,23.154L155.915,23.154L156.005,23.154L156.1,23.154L156.184,23.154L156.271,23.154L156.451,23.154L156.541,23.154L156.635,23.154L156.72,23.154L156.808,23.154L156.988,23.154L157.078,23.154L157.172,23.154L157.256,23.154L157.344,23.154L157.525,23.154L157.615,23.154L157.71,23.154L157.794,23.154L157.881,23.154L158.061,23.154L158.151,23.154L158.246,23.154L158.33,23.154L158.418,23.154L158.597,23.154L158.688,23.154L158.783,23.154L158.867,23.154L158.955,23.154L159.134,23.154L159.224,23.154L159.319,23.154L159.403,23.154L159.491,23.154L159.671,23.154L159.76,23.154L159.856,23.154L159.94,23.154L160.027,23.154L160.207,23.154L160.296,23.154L160.391,23.154L160.475,23.154L160.563,23.154L160.744,23.154L160.834,23.154L160.928,23.154L161.012,23.154L161.101,23.154L161.28,23.154L161.37,23.154L161.466,23.154L161.55,23.154L161.637,23.154L161.817,23.154L161.907,23.154L162.002,23.154L162.086,23.154L162.173,23.154L162.353,23.154L162.444,23.154L162.539,23.154L162.623,23.154L162.71,23.154L163.075,23.154L163.159,23.154L163.247,23.154L163.426,23.154L163.516,23.154L163.611,23.154L163.695,23.154L163.783,23.154L163.963,23.154L164.052,23.154L164.147,23.154L164.232,23.154L164.319,23.154L164.499,23.154L164.588,23.154L164.683,23.154L164.767,23.154L164.855,23.154L165.036,23.154L165.126,23.154L165.221,23.154L165.305,23.154L165.392,23.154L165.572,23.154L165.662,23.154L165.757,23.154L165.841,23.154L165.929,23.154L166.109,23.154L166.199,23.154L166.294,23.154L166.378,23.154L166.465,23.154L166.645,58.538L166.735,58.538L166.83,58.538L166.914,58.538L167.002,58.538L167.182,58.538L167.271,58.538L167.366,58.538L167.451,58.538L167.538,58.538L167.718,58.538L167.807,58.538L167.902,58.538L167.987,58.538L168.074,58.538L168.254,58.538L168.344,58.538L168.438,58.538L168.523,58.538L168.611,58.538L168.791,58.538L168.882,58.538L168.977,58.538L169.06,58.538L169.148,58.538L169.328,58.538L169.418,58.538L169.513,58.538L169.597,58.538L169.685,58.538L169.864,58.538L169.954,58.538L170.05,58.538L170.134,58.538L170.221,58.538L170.401,23.154L170.491,23.154L170.587,23.154L170.671,23.154L170.758,23.154L170.938,23.154L171.028,23.154L171.123,23.154L171.207,23.154L171.295,23.154L171.475,23.154L171.564,23.154L171.659,23.154L171.743,23.154L171.831,23.154L172.011,23.154L172.1,23.154L172.195,23.154L172.279,23.154L172.367,23.154L172.548,23.154L172.638,23.154L172.734,23.154L172.818,23.154L172.905,23.154L173.084,23.154L173.174,23.154L173.27,23.154L173.354,23.154L173.441,23.154L173.621,23.154L173.711,23.154L173.806,23.154L173.89,23.154L173.977,23.154L174.157,23.154L174.247,23.154L174.343,23.154L174.427,23.154L174.514,23.154L174.694,23.154L174.784,23.154L174.879,23.154L174.963,23.154L175.051,23.154L175.23,23.154L175.319,23.154L175.415,23.154L175.499,23.154L175.586,23.154L175.766,23.154L175.856,23.154L175.951,23.154L176.035,23.154L176.123,23.154L176.304,23.154L176.394,23.154L176.489,23.154L176.573,23.154L176.66,23.154L176.84,23.154L176.93,23.154L177.026,23.154L177.11,23.154L177.197,23.154L177.377,23.154L177.467,23.154L177.562,23.154L177.646,23.154L177.733,23.154L177.913,23.154L178.004,23.154L178.099,23.154L178.182,23.154L178.27,23.154L178.45,23.154L178.54,23.154L178.635,23.154L178.719,23.154L178.806,23.154L178.986,23.154L179.075,23.154L179.17,23.154L179.255,23.154L179.342,23.154L179.523,23.154L179.612,23.154L179.707,23.154L179.791,23.154L179.879,23.154L180.059,23.154L180.15,23.154L180.246,23.154L180.329,23.154L180.416,23.154L180.596,23.154L180.686,23.154L180.782,23.154L180.866,23.154L180.952,23.154L181.132,23.154L181.223,23.154L181.318,23.154L181.402,23.154L181.489,23.154L181.669,23.154L181.759,23.154L181.855,23.154L181.939,23.154L182.026,23.154L182.205,23.154L182.295,23.154L182.391,23.154L182.475,23.154L182.562,23.154L182.742,23.154L182.831,23.154L182.926,23.154L183.01,23.154L183.098,23.154L183.278,23.154L183.368,23.154L183.463,23.154L183.546,23.154L183.635,23.154L183.815,23.154L183.906,23.154L184.002,23.154L184.085,23.154L184.172,23.154L184.352,23.154L184.442,23.154L184.538,23.154L184.621,23.154L184.708,23.154L184.888,23.154L184.979,23.154L185.074,23.154L185.158,23.154L185.245,23.154L185.425,23.154L185.515,23.154L185.611,23.154L185.694,23.154L185.781,23.154L185.961,23.154L186.051,23.154L186.147,23.154L186.23,23.154L186.318,23.154L186.497,23.154L186.587,23.154L186.682,23.154L186.766,23.154L186.854,23.154L187.034,23.154L187.123,23.154L187.219,23.154L187.302,23.154L187.39,23.154L187.571,23.154L187.661,23.154L187.757,23.154L187.84,23.154L187.927,23.154L188.107,23.154L188.198,23.154L188.293,23.154L188.377,23.154L188.464,23.154L188.643,23.154L188.734,23.154L188.829,23.154L188.913,23.154L189,23.154L189.18,23.154L189.27,23.154L189.366,23.154L189.448,23.154L189.536,23.154L189.716,23.154L189.806,23.154L189.901,23.154L189.985,23.154L190.073,23.154L190.252,23.154L190.342,23.154L190.436,23.154L190.521,23.154L190.608,23.154L190.789,23.154L190.878,23.154L190.973,23.154L191.057,23.154L191.145,23.154L191.326,23.154L191.415,23.154L191.511,23.154L191.594,23.154L191.682,23.154L191.862,23.154L191.952,23.154L192.047,23.154L192.131,23.154L192.218,23.154L192.399,23.154L192.488,23.154L192.583,23.154L192.667,23.154L192.755,23.154L192.935,23.154L193.025,23.154L193.12,23.154L193.204,23.154L193.292,23.154L193.471,23.154L193.561,23.154L193.656,23.154L193.74,23.154L193.828,23.154L194.008,23.154L194.097,23.154L194.192,23.154L194.276,23.154L194.364,23.154L194.544,23.154L194.634,23.154L194.728,23.154L194.813,23.154L194.901,23.154L195.081,23.154L195.171,23.154L195.266,23.154L195.35,23.154L195.438,23.154L195.617,23.154L195.707,23.154L195.802,23.154L195.886,23.154L195.974,23.154L196.154,23.154L196.244,23.154L196.339,23.154L196.423,23.154L196.511,23.154L196.691,23.154L196.78,23.154L196.876,23.154L196.96,23.154L197.047,23.154L197.227,23.154L197.317,23.154L197.412,23.154L197.496,23.154L197.584,23.154L197.763,23.154L197.853,23.154L197.948,23.154L198.032,23.154L198.12,23.154L198.3,23.154L198.389,23.154L198.484,23.154L198.569,23.154L198.656,23.154L198.837,23.154L198.927,23.154L199.023,23.154L199.106,23.154L199.193,23.154L199.373,23.154L199.463,23.154L199.559,23.154L199.646,23.154L199.73,23.154L199.91,23.154L200,23.154" stroke="#4c78a8" stroke-width="2"/></g></g><path class="foreground" aria-hidden="true" d="" display="none"/></g><g transform="translate(0,0)"><path class="background" aria-hidden="true" d="M0,0h200v200h-200Z"/><g><g class="mark-line role-mark marks" role="graphics-object" aria-roledescription="line mark container"><path aria-label="Time: Jan 01, 2024; Price: 2499; identifier: altex-LG-F2WR508SBM" role="graphics-symbol" aria-roledescription="line mark" d="M0,7.769L0.056,7.769L0.141,7.769L0.32,7.769L0.41,7.769L0.504,7.769L0.589,7.769L0.678,7.769L0.857,7.769L0.946,7.769L1.04,7.769L1.126,7.769L1.214,7.769L1.393,7.769L1.483,7.769L1.576,7.769L1.663,7.769L1.751,7.769L1.93,27L2.019,27L2.113,27L2.199,27L2.287,27L2.466,27L2.556,27L2.649,27L2.735,27L2.824,27L3.003,27L3.092,27L3.186,27L3.272,27L3.36,27L3.54,27L3.629,27L3.723,27L3.809,27L3.897,27L4.076,27L4.166,27L4.261,27L4.346,27L4.433,27L4.613,27L4.702,27L4.796,27L4.882,27L4.97,27L5.149,27L5.239,27L5.333,27L5.419,27L5.506,27L5.686,27L5.775,27L5.869,27L5.955,27L6.043,27L6.222,38.538L6.311,38.538L6.405,38.538L6.491,38.538L6.579,38.538L6.759,38.538L6.848,38.538L6.941,38.538L7.027,38.538L7.116,38.538L7.295,38.538L7.385,38.538L7.479,38.538L7.565,38.538L7.652,38.538L7.832,38.538L7.922,38.538L8.016,38.538L8.101,38.538L8.189,38.538L8.368,38.538L8.458,38.538L8.552,38.538L8.638,38.538L8.726,38.538L8.905,38.538L8.994,38.538L9.089,38.538L9.174,38.538L9.262,38.538L9.441,38.538L9.531,38.538L9.625,38.538L9.711,38.538L9.799,38.538L9.978,38.538L10.067,38.538L10.161,38.538L10.247,38.538L10.335,38.538L10.514,38.538L10.603,38.538L10.697,38.538L10.783,38.538L10.872,38.538L11.051,38.538L11.141,38.538L11.235,38.538L11.32,38.538L11.408,38.538L11.588,38.538L11.677,38.538L11.772,38.538L11.857,38.538L11.945,38.538L12.124,38.538L12.214,38.538L12.308,38.538L12.393,38.538L12.481,38.538L12.661,38.538L12.75,38.538L12.845,38.538L12.93,38.538L13.018,38.538L13.197,38.538L13.287,38.538L13.379,38.538L13.465,38.538L13.555,38.538L13.733,38.538L13.823,38.538L13.915,38.538L14.001,38.538L14.091,38.538L14.27,38.538L14.359,38.538L14.451,38.538L14.538,38.538L14.627,38.538L14.806,38.538L14.896,38.538L14.989,38.538L15.075,38.538L15.164,38.538L15.343,38.538L15.432,38.538L15.525,38.538L15.612,38.538L15.7,38.538L15.879,38.538L15.969,38.538L16.062,38.538L16.148,38.538L16.237,38.538L16.416,27L16.505,27L16.598,27L16.684,27L16.773,27L16.952,27L17.042,27L17.135,27L17.22,27L17.31,27L17.489,27L17.578,27L17.67,27L17.757,27L17.847,27L18.026,27L18.115,27L18.207,27L18.294,27L18.383,27L18.562,27L18.652,27L18.745,27L18.83,27L18.919,27L19.098,27L19.188,27L19.281,27L19.367,27L19.456,27L19.635,27L19.724,27L19.817,27L19.904,27L19.993,27L20.171,27L20.261,27L20.354,27L20.44,27L20.529,27L20.708,27L20.798,27L20.89,27L20.976,27L21.066,27L21.244,27L21.334,27L21.426,27L21.513,27L21.602,27L21.781,27L21.871,27L21.963,27L22.049,27L22.139,27L22.318,27L22.407,27L22.5,27L22.586,27L22.675,27L22.854,27L22.944,27L23.036,27L23.124,27L23.212,27L23.391,27L23.48,27L23.573,27L23.659,27L23.748,27L24.017,27L24.11,27L24.196,27L24.285,27L24.464,27L24.553,27L24.646,27L24.732,27L24.821,27L25,27L25.09,27L25.182,27L25.268,27L25.358,27L25.537,27L25.627,27L25.718,27L25.805,27L25.894,27L26.073,27L26.163,27L26.256,27L26.343,27L26.431,27L26.61,27L26.699,27L26.792,27L26.878,27L26.968,27L27.146,27L27.236,27L27.329,27L27.415,27L27.504,27L27.683,27L27.772,27L27.865,27L27.951,27L28.041,27L28.219,27L28.309,27L28.401,27L28.488,27L28.578,27L28.756,27L28.845,27L28.937,27L29.024,27L29.113,27L29.292,27L29.382,27L29.474,27L29.561,27L29.65,27L29.829,27L29.919,27L30.011,27L30.098,27L30.187,27L30.365,27L30.455,27L30.548,27L30.634,27L30.723,27L30.902,27L30.991,27L31.084,27L31.171,27L31.26,27L31.439,27L31.528,27L31.621,27L31.707,27L31.796,27L31.975,27L32.065,27L32.158,27L32.244,27L32.333,27L32.512,27L32.601,27L32.694,27L32.78,27L32.869,27L33.048,27L33.137,27L33.23,27L33.316,27L33.406,27L33.593,27L33.715,27L33.768,27L33.853,27L33.942,27L34.121,27L34.211,27L34.304,27L34.39,27L34.479,27L34.658,27L34.748,27L34.84,27L34.927,27L35.015,27L35.194,27L35.284,27L35.377,38.538L35.463,38.538L35.552,38.538L35.731,38.538L35.821,38.538L35.913,38.538L35.999,38.538L36.088,38.538L36.267,38.538L36.357,38.538L36.449,38.538L36.536,38.538L36.625,38.538L36.804,38.538L36.894,38.538L36.985,38.538L37.072,38.538L37.161,38.538L37.341,38.538L37.43,38.538L37.523,38.538L37.609,38.538L37.698,38.538L37.877,38.538L37.966,38.538L38.059,38.538L38.146,38.538L38.234,38.538L38.414,38.538L38.503,38.538L38.596,38.538L38.682,38.538L38.771,38.538L38.95,38.538L39.039,38.538L39.133,38.538L39.219,38.538L39.308,38.538L39.486,38.538L39.576,38.538L39.669,38.538L39.755,38.538L39.844,38.538L40.023,38.538L40.113,38.538L40.205,38.538L40.291,38.538L40.381,38.538L40.559,38.538L40.649,38.538L40.741,38.538L40.828,38.538L40.917,38.538L41.096,38.538L41.185,38.538L41.279,38.538L41.365,38.538L41.454,38.538L41.633,38.538L41.722,38.538L41.815,38.538L41.902,38.538L41.99,38.538L42.169,38.538L42.259,38.538L42.352,38.538L42.438,38.538L42.527,38.538L42.706,38.538L42.795,38.538L42.889,38.538L42.975,38.538L43.063,38.538L43.242,38.538L43.332,38.538L43.425,38.538L43.511,38.538L43.6,38.538L43.779,38.538L43.868,38.538L43.961,38.538L44.047,38.538L44.136,38.538L44.315,38.538L44.405,38.538L44.498,38.538L44.583,38.538L44.673,38.538L44.852,38.538L44.941,38.538L45.034,38.538L45.12,38.538L45.209,38.538L45.388,38.538L45.478,38.538L45.571,38.538L45.657,38.538L45.746,38.538L45.925,38.538L46.015,38.538L46.108,38.538L46.194,38.538L46.283,38.538L46.461,38.538L46.551,38.538L46.644,38.538L46.73,38.538L46.819,38.538L46.998,38.538L47.087,38.538L47.181,38.538L47.267,38.538L47.355,38.538L47.534,38.538L47.624,38.538L47.716,38.538L47.803,38.538L47.892,38.538L48.071,38.538L48.161,38.538L48.253,38.538L48.34,38.538L48.429,38.538L48.607,38.538L48.698,38.538L48.791,38.538L48.877,38.538L48.965,38.538L49.144,38.538L49.234,38.538L49.327,38.538L49.413,38.538L49.502,38.538L49.68,38.538L49.77,38.538L49.863,38.538L49.95,38.538L50.038,38.538L50.217,38.538L50.307,38.538L50.4,38.538L50.486,38.538L50.575,38.538L50.754,38.538L50.936,38.538L51.022,38.538L51.112,38.538L51.29,38.538L51.38,38.538L51.472,38.538L51.558,38.538L51.648,38.538L51.827,38.538L51.916,38.538L52.009,38.538L52.095,38.538L52.184,38.538L52.363,38.538L52.452,38.538L52.546,38.538L52.632,38.538L52.721,38.538L52.9,38.538L52.989,38.538L53.082,38.538L53.169,38.538L53.257,38.538L53.436,38.538L53.526,38.538L53.619,38.538L53.706,38.538L53.794,38.538L53.973,38.538L54.063,38.538L54.156,38.538L54.331,38.538L54.51,38.538L54.599,38.538L54.692,38.538L54.778,38.538L54.867,38.538L55.046,38.538L55.135,38.538L55.226,38.538L55.314,38.538L55.403,38.538L55.59,38.538L55.728,38.538L55.812,38.538L55.986,38.538L56.12,38.538L56.208,38.538L56.3,38.538L56.387,38.538L56.476,38.538L56.655,38.538L56.745,38.538L56.838,38.538L56.924,38.538L57.013,38.538L57.192,38.538L57.281,38.538L57.375,38.538L57.461,38.538L57.55,38.538L57.818,38.538L57.911,38.538L57.997,38.538L58.086,38.538L58.265,38.538L58.354,38.538L58.448,38.538L58.534,38.538L58.623,38.538L58.802,38.538L58.891,38.538L58.984,38.538L59.07,38.538L59.159,38.538L59.338,38.538L59.428,38.538L59.52,38.538L59.606,38.538L59.696,38.538L59.874,38.538L59.964,38.538L60.058,38.538L60.143,38.538L60.232,38.538L60.411,38.538L60.501,38.538L60.594,38.538L60.68,38.538L60.769,38.538L60.947,38.538L61.038,38.538L61.133,38.538L61.216,38.538L61.306,38.538L61.484,38.538L61.574,38.538L61.665,38.538L61.753,38.538L61.842,38.538L62.021,38.538L62.11,38.538L62.204,38.538L62.289,38.538L62.379,38.538L62.557,38.538L62.646,38.538L62.739,38.538L62.825,38.538L62.915,38.538L63.094,38.538L63.183,38.538L63.276,38.538L63.362,38.538L63.451,38.538L63.63,38.538L63.721,38.538L63.814,38.538L63.899,38.538L63.988,38.538L64.167,38.538L64.257,38.538L64.35,38.538L64.436,38.538L64.525,38.538L64.703,38.538L64.794,38.538L64.887,38.538L64.972,38.538L65.061,38.538L65.24,38.538L65.329,38.538L65.423,38.538L65.509,38.538L65.598,38.538L65.777,38.538L65.866,38.538L65.959,38.538L66.045,38.538L66.134,38.538L66.313,38.538L66.402,38.538L66.495,38.538L66.581,38.538L66.671,38.538L66.849,38.538L66.939,38.538L67.032,38.538L67.118,38.538L67.207,38.538L67.386,38.538L67.476,38.538L67.57,38.538L67.655,38.538L67.744,38.538L67.922,38.538L68.012,38.538L68.106,30.846L68.191,30.846L68.28,30.846L68.459,30.846L68.549,30.846L68.643,30.846L68.729,30.846L68.817,30.846L68.996,30.846L69.086,30.846L69.179,30.846L69.266,30.846L69.353,30.846L69.532,30.846L69.622,30.846L69.716,30.846L69.801,30.846L69.89,30.846L70.069,30.846L70.158,30.846L70.251,30.846L70.337,30.846L70.426,30.846L70.605,30.846L70.694,30.846L70.788,30.846L70.874,30.846L70.963,30.846L71.142,30.846L71.232,30.846L71.326,30.846L71.411,30.846L71.5,30.846L71.678,30.846L71.768,30.846L71.862,30.846L71.948,30.846L72.036,30.846L72.215,30.846L72.305,30.846L72.399,30.846L72.484,30.846L72.573,30.846L72.751,30.846L72.841,30.846L72.935,30.846L73.02,30.846L73.109,30.846L73.288,30.846L73.377,30.846L73.471,30.846L73.557,30.846L73.645,30.846L73.824,30.846L73.914,30.846L74.008,30.846L74.093,30.846L74.182,30.846L74.361,30.846L74.45,30.846L74.544,30.846L74.63,30.846L74.719,30.846L74.898,30.846L74.987,30.846L75.082,30.846L75.167,30.846L75.255,30.846L75.434,30.846L75.524,30.846L75.618,30.846L75.703,30.846L75.792,30.846L75.971,30.846L76.061,30.846L76.155,38.538L76.24,38.538L76.328,38.538L76.507,38.538L76.597,38.538L76.691,38.538L76.776,38.538L76.865,38.538L77.044,38.538L77.133,38.538L77.227,38.538L77.312,38.538L77.401,38.538L77.58,38.538L77.67,38.538L77.763,38.538L77.849,38.538L77.938,38.538L78.117,38.538L78.206,38.538L78.299,38.538L78.385,38.538L78.475,38.538L78.653,38.538L78.743,38.538L78.837,38.538L78.923,38.538L79.011,38.538L79.191,38.538L79.28,38.538L79.374,38.538L79.459,38.538L79.547,38.538L79.727,38.538L79.816,38.538L79.91,38.538L79.995,38.538L80.084,38.538L80.264,38.538L80.353,38.538L80.447,38.538L80.532,38.538L80.62,38.538L80.8,30.846L80.889,30.846L80.983,30.846L81.068,30.846L81.157,30.846L81.336,30.846L81.425,30.846L81.519,30.846L81.604,30.846L81.693,30.846L81.873,30.846L81.962,30.846L82.055,30.846L82.141,30.846L82.23,30.846L82.409,30.846L82.499,30.846L82.594,30.846L82.678,30.846L82.767,30.846L82.945,30.846L83.036,30.846L83.13,30.846L83.215,30.846L83.303,30.846L83.483,30.846L83.572,30.846L83.666,30.846L83.751,30.846L83.839,30.846L84.019,30.846L84.108,30.846L84.203,30.846L84.287,30.846L84.376,30.846L84.555,30.846L84.645,30.846L84.74,30.846L84.825,30.846L84.913,30.846L85.092,30.846L85.181,30.846L85.275,30.846L85.361,30.846L85.449,30.846L85.628,30.846L85.717,30.846L85.811,30.846L85.897,30.846L85.986,30.846L86.165,30.846L86.255,30.846L86.349,30.846L86.434,30.846L86.522,30.846L86.702,30.846L86.791,30.846L86.886,30.846L86.971,30.846L87.059,30.846L87.238,30.846L87.328,34.692L87.422,34.692L87.507,34.692L87.595,34.692L87.775,34.692L87.864,34.692L87.958,34.692L88.044,34.692L88.132,34.692L88.311,34.692L88.4,34.692L88.495,40.077L88.58,40.077L88.669,40.077L88.848,40.077L88.937,40.077L89.031,40.077L89.116,40.077L89.205,40.077L89.384,40.077L89.474,40.077L89.567,40.077L89.653,40.077L89.741,40.077L89.921,40.077L90.011,40.077L90.105,40.077L90.19,40.077L90.278,40.077L90.457,40.077L90.547,40.077L90.641,40.077L90.726,40.077L90.814,40.077L90.994,40.077L91.083,40.077L91.178,40.077L91.263,40.077L91.351,40.077L91.53,40.077L91.62,40.077L91.714,40.077L91.8,40.077L91.887,40.077L92.067,40.077L92.156,40.077L92.25,40.077L92.335,40.077L92.424,40.077L92.603,40.077L92.692,40.077L92.787,40.077L92.872,40.077L92.96,40.077L93.14,40.077L93.229,40.077L93.323,40.077L93.408,40.077L93.497,40.077L93.676,40.077L93.766,40.077L93.861,40.077L93.945,40.077L94.033,40.077L94.213,40.077L94.303,40.077L94.397,40.077L94.57,40.077L94.75,40.077L94.839,40.077L94.934,40.077L95.018,40.077L95.107,40.077L95.287,40.077L95.376,40.077L95.47,40.077L95.555,40.077L95.643,40.077L95.822,40.077L95.912,40.077L96.007,40.077L96.091,40.077L96.18,40.077L96.359,40.077L96.448,40.077L96.542,40.077L96.628,40.077L96.716,40.077L96.895,40.077L96.985,40.077L97.079,40.077L97.164,40.077L97.253,40.077L97.432,40.077L97.522,40.077L97.617,40.077L97.702,40.077L97.789,40.077L97.969,40.077L98.058,40.077L98.152,40.077L98.238,40.077L98.326,40.077L98.505,40.077L98.595,40.077L98.689,40.077L98.775,40.077L98.862,40.077L99.042,40.077L99.131,40.077L99.226,40.077L99.31,40.077L99.399,40.077L99.579,40.077L99.668,40.077L99.762,40.077L99.847,40.077L99.935,40.077L100.115,40.077L100.204,40.077L100.298,40.077L100.383,40.077L100.472,40.077L100.651,40.077L100.74,40.077L100.834,40.077L100.919,40.077L101.009,40.077L101.188,40.077L101.278,40.077L101.372,40.077L101.457,40.077L101.545,40.077L101.724,40.077L101.814,40.077L101.909,40.077L101.994,40.077L102.082,40.077L102.261,40.077L102.351,40.077L102.445,40.077L102.53,40.077L102.618,40.077L102.798,40.077L102.887,40.077L102.982,40.077L103.066,40.077L103.154,40.077L103.334,40.077L103.424,40.077L103.518,40.077L103.603,40.077L103.691,40.077L103.87,40.077L103.959,40.077L104.053,40.077L104.139,40.077L104.227,40.077L104.408,40.077L104.497,40.077L104.596,40.077L104.68,40.077L104.764,40.077L104.944,40.077L105.033,40.077L105.128,40.077L105.213,40.077L105.301,40.077L105.48,40.077L105.57,40.077L105.663,40.077L105.75,40.077L105.837,40.077L106.016,40.077L106.106,40.077L106.201,40.077L106.286,40.077L106.374,40.077L106.553,40.077L106.643,40.077L106.738,40.077L106.822,40.077L106.91,40.077L107.09,40.077L107.179,40.077L107.274,40.077L107.359,40.077L107.447,40.077L107.626,40.077L107.715,40.077L107.809,40.077L107.895,40.077L107.984,40.077L108.162,40.077L108.252,40.077L108.346,40.077L108.432,40.077L108.52,40.077L108.699,40.077L108.79,40.077L108.884,40.077L108.969,40.077L109.056,40.077L109.236,40.077L109.326,40.077L109.42,40.077L109.505,40.077L109.593,40.077L109.772,40.077L109.862,40.077L109.957,40.077L110.041,40.077L110.129,40.077L110.309,40.077L110.399,40.077L110.493,40.077L110.578,40.077L110.666,40.077L110.846,40.077L110.935,40.077L111.029,40.077L111.115,40.077L111.202,40.077L111.382,40.077L111.471,40.077L111.566,40.077L111.65,40.077L111.739,40.077L111.918,40.077L112.007,40.077L112.102,40.077L112.187,40.077L112.275,40.077L112.455,40.077L112.545,40.077L112.64,40.077L112.724,40.077L112.812,40.077L112.991,40.077L113.081,40.077L113.176,40.077L113.261,40.077L113.348,40.077L113.527,40.077L113.617,40.077L113.713,40.077L113.797,40.077L113.885,40.077L114.065,40.077L114.154,40.077L114.249,40.077L114.334,40.077L114.422,40.077L114.601,40.077L114.691,40.077L114.785,40.077L114.87,40.077L114.958,40.077L115.137,40.077L115.227,40.077L115.321,40.077L115.406,40.077L115.495,40.077L115.675,40.077L115.763,40.077L115.857,40.077L115.942,40.077L116.032,40.077L116.211,40.077L116.301,40.077L116.395,40.077L116.48,40.077L116.568,40.077L116.748,40.077L116.837,40.077L116.932,40.077L117.016,40.077L117.104,40.077L117.284,40.077L117.373,40.077L117.469,40.077L117.553,40.077L117.641,40.077L117.821,40.077L117.91,40.077L118.005,40.077L118.09,40.077L118.178,40.077L118.357,40.077L118.447,40.077L118.541,40.077L118.626,40.077L118.714,40.077L118.894,40.077L118.983,40.077L119.077,40.077L119.163,40.077L119.25,40.077L119.43,40.077L119.519,40.077L119.614,40.077L119.698,40.077L119.787,40.077L119.967,40.077L120.057,40.077L120.152,40.077L120.236,40.077L120.324,40.077L120.503,40.077L120.593,40.077L120.688,40.077L120.773,40.077L120.86,40.077L121.04,40.077L121.13,40.077L121.224,40.077L121.309,40.077L121.397,40.077L121.576,40.077L121.666,40.077L121.76,40.077L121.845,40.077L121.933,40.077L122.113,40.077L122.202,40.077L122.297,40.077L122.382,40.077L122.47,40.077L122.649,40.077L122.738,40.077L122.832,40.077L122.918,40.077L123.007,40.077L123.186,40.077L123.275,40.077L123.369,40.077L123.454,40.077L123.542,40.077L123.722,40.077L123.812,40.077L123.907,40.077L123.991,40.077L124.079,40.077L124.26,40.077L124.349,40.077L124.443,40.077L124.527,40.077L124.616,40.077L124.795,40.077L124.885,40.077L124.978,40.077L125.065,40.077L125.153,40.077L125.332,40.077L125.422,40.077L125.516,40.077L125.602,40.077L125.689,40.077L125.868,40.077L125.958,40.077L126.053,40.077L126.137,40.077L126.225,40.077L126.405,40.077L126.494,40.077L126.589,40.077L126.673,40.077L126.762,40.077L126.942,40.077L127.031,40.077L127.125,40.077L127.21,40.077L127.299,40.077L127.479,40.077L127.568,40.077L127.663,40.077L127.747,40.077L127.835,40.077L128.015,40.077L128.104,40.077L128.199,40.077L128.284,40.077L128.372,40.077L128.551,40.077L128.641,40.077L128.736,40.077L128.821,40.077L128.908,40.077L129.088,40.077L129.178,40.077L129.273,40.077L129.357,40.077L129.444,40.077L129.625,40.077L129.714,40.077L129.809,40.077L129.893,40.077L129.981,40.077L130.161,40.077L130.25,40.077L130.345,40.077L130.43,40.077L130.518,40.077L130.698,40.077L130.787,40.077L130.882,40.077L130.966,40.077L131.054,40.077L131.234,40.077L131.324,40.077L131.419,40.077L131.504,40.077L131.591,40.077L131.77,40.077L131.86,40.077L131.955,40.077L132.04,40.077L132.127,40.077L132.307,40.077L132.397,40.077L132.492,40.077L132.576,40.077L132.664,40.077L132.844,40.077L132.933,40.077L133.029,40.077L133.113,40.077L133.2,40.077L133.38,40.077L133.47,40.077L133.565,40.077L133.65,40.077L133.737,40.077L133.916,40.077L134.006,40.077L134.1,40.077L134.185,40.077L134.273,40.077L134.453,40.077L134.542,40.077L134.637,40.077L134.722,40.077L134.81,40.077L134.99,40.077L135.08,40.077L135.175,40.077L135.259,40.077L135.347,40.077L135.526,40.077L135.616,40.077L135.712,40.077L135.795,40.077L135.883,40.077L136.064,40.077L136.153,40.077L136.248,40.077L136.332,40.077L136.419,40.077L136.6,40.077L136.69,40.077L136.784,40.077L136.869,40.077L136.956,40.077L137.136,40.077L137.226,40.077L137.321,40.077L137.405,40.077L137.493,40.077L137.672,40.077L137.762,40.077L137.856,40.077L137.941,40.077L138.029,40.077L138.209,40.077L138.298,40.077L138.393,40.077L138.478,40.077L138.565,40.077L138.746,40.077L138.836,40.077L138.931,40.077L139.015,40.077L139.103,40.077L139.281,40.077L139.372,40.077L139.467,40.077L139.551,40.077L139.639,40.077L139.819,40.077L139.909,40.077L140.004,40.077L140.088,40.077L140.176,40.077L140.356,40.077L140.445,40.077L140.54,40.077L140.624,40.077L140.712,40.077L140.892,40.077L140.982,40.077L141.077,40.077L141.161,40.077L141.249,40.077L141.428,40.077L141.517,40.077L141.612,40.077L141.697,40.077L141.785,40.077L141.966,40.077L142.054,40.077L142.149,40.077L142.233,40.077L142.321,40.077L142.501,40.077L142.592,40.077L142.687,40.077L142.771,40.077L142.858,40.077L143.038,40.077L143.128,40.077L143.224,40.077L143.307,40.077L143.395,40.077L143.575,40.077L143.665,40.077L143.76,40.077L143.845,40.077L143.931,40.077L144.111,40.077L144.201,40.077L144.297,40.077L144.38,40.077L144.468,40.077L144.648,40.077L144.738,40.077L144.833,40.077L144.917,40.077L145.184,40.077L145.273,40.077L145.368,40.077L145.452,40.077L145.54,40.077L145.721,40.077L145.81,40.077L145.905,40.077L145.989,40.077L146.077,40.077L146.258,40.077L146.348,40.077L146.443,40.077L146.527,40.077L146.614,40.077L146.794,40.077L146.884,40.077L146.98,40.077L147.063,40.077L147.151,40.077L147.33,40.077L147.421,40.077L147.516,40.077L147.6,40.077L147.688,40.077L147.867,40.077L147.957,50.077L148.052,50.077L148.136,50.077L148.224,50.077L148.403,50.077L148.493,50.077L148.589,50.077L148.673,50.077L148.76,50.077L148.94,50.077L149.029,50.077L149.124,50.077L149.208,50.077L149.296,50.077L149.476,50.077L149.566,50.077L149.661,50.077L149.745,50.077L149.833,50.077L150.013,50.077L150.103,50.077L150.199,50.077L150.283,50.077L150.37,50.077L150.55,50.077L150.64,30.846L150.735,30.846L150.819,30.846L150.906,30.846L151.086,30.846L151.176,30.846L151.271,50.077L151.355,50.077L151.443,50.077L151.623,50.077L151.713,50.077L151.808,50.077L151.891,50.077L151.979,50.077L152.159,50.077L152.249,50.077L152.344,50.077L152.428,50.077L152.516,50.077L152.696,50.077L152.785,50.077L152.879,50.077L152.965,50.077L153.052,50.077L153.232,50.077L153.321,50.077L153.417,50.077L153.501,50.077L153.589,50.077L153.769,50.077L153.859,50.077L153.954,50.077L154.038,50.077L154.125,50.077L154.305,50.077L154.395,50.077L154.491,50.077L154.575,50.077L154.662,50.077L154.842,50.077L154.932,50.077L155.027,50.077L155.111,50.077L155.199,50.077L155.379,50.077L155.468,50.077L155.564,50.077L155.648,50.077L155.735,50.077L155.915,50.077L156.005,50.077L156.1,50.077L156.184,50.077L156.271,50.077L156.451,50.077L156.541,50.077L156.636,50.077L156.72,50.077L156.808,50.077L156.988,50.077L157.078,50.077L157.172,50.077L157.256,50.077L157.344,50.077L157.525,50.077L157.615,50.077L157.71,50.077L157.794,50.077L157.881,50.077L158.061,50.077L158.151,50.077L158.246,50.077L158.33,50.077L158.418,50.077L158.597,50.077L158.688,50.077L158.783,50.077L158.867,50.077L158.955,50.077L159.134,50.077L159.224,50.077L159.32,50.077L159.403,50.077L159.491,50.077L159.671,50.077L159.76,50.077L159.856,50.077L159.94,50.077L160.027,50.077L160.207,50.077L160.296,50.077L160.391,50.077L160.475,50.077L160.563,50.077L160.744,50.077L160.834,50.077L160.928,50.077L161.012,50.077L161.101,50.077L161.28,50.077L161.37,50.077L161.466,50.077L161.55,50.077L161.637,50.077L161.817,50.077L161.907,50.077L162.002,50.077L162.086,50.077L162.173,50.077L162.353,50.077L162.444,50.077L162.539,50.077L162.623,50.077L162.71,50.077L163.075,50.077L163.159,50.077L163.247,50.077L163.426,50.077L163.516,50.077L163.611,50.077L163.695,50.077L163.783,50.077L163.963,50.077L164.052,50.077L164.147,50.077L164.232,50.077L164.319,50.077L164.499,50.077L164.588,50.077L164.683,50.077L164.767,50.077L164.855,50.077L165.036,50.077L165.126,50.077L165.221,50.077L165.305,50.077L165.392,50.077L165.572,50.077L165.662,50.077L165.757,50.077L165.841,50.077L165.929,50.077L166.109,50.077L166.199,50.077L166.294,50.077L166.378,50.077L166.465,50.077L166.645,50.077L166.735,50.077L166.83,50.077L166.914,50.077L167.002,50.077L167.182,50.077L167.271,50.077L167.366,50.077L167.451,50.077L167.538,50.077L167.718,50.077L167.807,50.077L167.902,50.077L167.987,50.077L168.074,50.077L168.254,50.077L168.344,50.077L168.438,50.077L168.523,50.077L168.611,50.077L168.791,50.077L168.882,50.077L168.977,50.077L169.06,50.077L169.148,50.077L169.328,50.077L169.418,50.077L169.513,50.077L169.597,50.077L169.685,50.077L169.864,50.077L169.954,50.077L170.05,58.538L170.134,58.538L170.221,58.538L170.401,58.538L170.491,58.538L170.587,58.538L170.671,58.538L170.758,58.538L170.939,58.538L171.028,58.538L171.123,58.538L171.207,58.538L171.295,58.538L171.475,58.538L171.564,58.538L171.659,58.538L171.743,58.538L171.831,58.538L172.011,58.538L172.1,58.538L172.195,58.538L172.279,58.538L172.367,58.538L172.548,58.538L172.638,58.538L172.734,58.538L172.818,58.538L172.905,58.538L173.084,58.538L173.174,58.538L173.27,58.538L173.354,58.538L173.441,58.538L173.621,58.538L173.711,58.538L173.806,58.538L173.89,58.538L173.977,58.538L174.157,46.231L174.247,46.231L174.343,58.538L174.427,58.538L174.514,58.538L174.694,58.538L174.784,58.538L174.879,46.231L174.963,46.231L175.051,46.231L175.23,46.231L175.319,46.231L175.415,46.231L175.499,46.231L175.586,46.231L175.766,46.231L175.856,46.231L175.951,46.231L176.035,46.231L176.123,46.231L176.304,46.231L176.394,46.231L176.489,46.231L176.573,46.231L176.66,46.231L176.84,46.231L176.93,46.231L177.026,46.231L177.11,46.231L177.197,46.231L177.377,46.231L177.467,46.231L177.563,58.538L177.646,58.538L177.734,58.538L177.913,58.538L178.004,58.538L178.099,58.538L178.182,58.538L178.27,58.538L178.45,58.538L178.54,58.538L178.635,58.538L178.719,58.538L178.806,58.538L178.986,58.538L179.075,58.538L179.17,58.538L179.255,58.538L179.342,58.538L179.523,58.538L179.612,58.538L179.707,58.538L179.791,58.538L179.879,58.538L180.059,58.538L180.15,58.538L180.246,58.538L180.329,58.538L180.416,58.538L180.596,30.846L180.686,30.846L180.782,58.538L180.866,58.538L180.953,58.538L181.132,58.538L181.223,58.538L181.318,58.538L181.402,58.538L181.489,58.538L181.669,30.846L181.759,30.846L181.855,46.231L181.939,46.231L182.026,46.231L182.205,30.846L182.295,30.846L182.391,46.231L182.475,46.231L182.562,46.231L182.742,46.231L182.831,46.231L182.926,46.231L183.01,46.231L183.098,46.231L183.278,46.231L183.368,46.231L183.463,46.231L183.546,46.231L183.635,46.231L183.815,46.231L183.906,46.231L184.002,46.231L184.085,46.231L184.172,46.231L184.352,46.231L184.442,46.231L184.538,46.231L184.621,46.231L184.708,46.231L184.888,46.231L184.979,46.231L185.074,46.231L185.158,46.231L185.245,46.231L185.425,46.231L185.515,46.231L185.611,46.231L185.694,46.231L185.781,46.231L185.961,46.231L186.051,46.231L186.147,46.231L186.23,46.231L186.318,46.231L186.497,46.231L186.587,46.231L186.682,46.231L186.766,46.231L186.854,46.231L187.034,46.231L187.123,46.231L187.219,46.231L187.302,46.231L187.39,46.231L187.571,46.231L187.661,46.231L187.757,46.231L187.84,46.231L187.927,46.231L188.107,46.231L188.198,46.231L188.293,46.231L188.377,46.231L188.464,46.231L188.643,46.231L188.734,46.231L188.829,46.231L188.913,46.231L189,46.231L189.18,46.231L189.27,46.231L189.366,46.231L189.449,46.231L189.536,46.231L189.716,46.231L189.806,46.231L189.901,46.231L189.985,46.231L190.073,46.231L190.252,46.231L190.342,46.231L190.436,46.231L190.521,46.231L190.609,46.231L190.789,46.231L190.878,46.231L190.973,46.231L191.057,46.231L191.145,46.231L191.326,46.231L191.415,46.231L191.511,46.231L191.594,46.231L191.682,46.231L191.862,46.231L191.952,46.231L192.047,46.231L192.131,46.231L192.218,46.231L192.399,46.231L192.488,46.231L192.583,46.231L192.667,46.231L192.755,46.231L192.935,46.231L193.025,46.231L193.12,46.231L193.204,46.231L193.292,46.231L193.471,46.231L193.561,46.231L193.656,46.231L193.74,46.231L193.828,46.231L194.008,46.231L194.097,46.231L194.192,46.231L194.276,46.231L194.364,46.231L194.544,46.231L194.634,46.231L194.728,46.231L194.813,46.231L194.901,46.231L195.081,46.231L195.171,46.231L195.266,46.231L195.35,46.231L195.438,46.231L195.617,46.231L195.707,46.231L195.802,46.231L195.887,46.231L195.974,46.231L196.154,46.231L196.244,46.231L196.339,46.231L196.423,46.231L196.511,46.231L196.691,46.231L196.78,46.231L196.876,46.231L196.96,46.231L197.047,46.231L197.227,46.231L197.317,46.231L197.412,46.231L197.496,46.231L197.584,46.231L197.763,46.231L197.853,46.231L197.948,46.231L198.032,46.231L198.12,46.231L198.3,46.231L198.389,46.231L198.484,46.231L198.569,46.231L198.656,46.231L198.837,46.231L198.927,46.231L199.023,46.231L199.106,46.231L199.193,46.231L199.373,46.231L199.463,46.231L199.559,46.231L199.646,46.231L199.73,46.231L199.91,46.231L200,46.231" stroke="#f58518" stroke-width="2"/></g></g><path class="foreground" aria-hidden="true" d="" display="none"/></g></g><g class="mark-group role-legend" role="graphics-symbol" aria-roledescription="legend" aria-label="Symbol legend titled 'identifier' for stroke color with 2 values: altex-LG-F2WR508SBW, altex-LG-F2WR508SBM"><g transform="translate(220,0)"><path class="background" aria-hidden="true" d="M0,0h168v40h-168Z" pointer-events="none"/><g><g class="mark-group role-legend-entry"><g transform="translate(0,16)"><path class="background" aria-hidden="true" d="M0,0h0v0h0Z" pointer-events="none"/><g><g class="mark-group role-scope" role="graphics-object" aria-roledescription="group mark container"><g transform="translate(0,0)"><path class="background" aria-hidden="true" d="M0,0h168v11h-168Z" pointer-events="none" opacity="1"/><g><g class="mark-symbol role-legend-symbol" pointer-events="none"><path transform="translate(6,6)" d="M-5,0L5,0" stroke="#4c78a8" stroke-width="1.5" opacity="1"/></g><g class="mark-text role-legend-label" pointer-events="none"><text text-anchor="start" transform="translate(16,9)" font-family="Liberation Mono" font-size="10px" fill="#000" opacity="1">altex-LG-F2WR508SBW</text></g></g><path class="foreground" aria-hidden="true" d="" pointer-events="none" display="none"/></g><g transform="translate(0,13)"><path class="background" aria-hidden="true" d="M0,0h168v11h-168Z" pointer-events="none" opacity="1"/><g><g class="mark-symbol role-legend-symbol" pointer-events="none"><path transform="translate(6,6)" d="M-5,0L5,0" stroke="#f58518" stroke-width="1.5" opacity="1"/></g><g class="mark-text role-legend-label" pointer-events="none"><text text-anchor="start" transform="translate(16,9)" font-family="Liberation Mono" font-size="10px" fill="#000" opacity="1">altex-LG-F2WR508SBM</text></g></g><path class="foreground" aria-hidden="true" d="" pointer-events="none" display="none"/></g></g></g><path class="foreground" aria-hidden="true" d="" pointer-events="none" display="none"/></g></g><g class="mark-text role-legend-title" pointer-events="none"><text text-anchor="start" transform="translate(0,9)" font-family="Liberation Mono" font-size="11px" font-weight="bold" fill="#000" opacity="1">identifier</text></g></g><path class="foreground" aria-hidden="true" d="" pointer-events="none" display="none"/></g></g></g><path class="foreground" aria-hidden="true" d="" display="none"/></g></g></g></svg>