<svg xmlns="http://www.w3.org/2000/svg" xmlns:xlink="http://www.w3.org/1999/xlink" version="1.1" class="marks" width="460" height="242" viewBox="0 0 460 242"><rect width="460" height="242" fill="white"/><g fill="none" stroke-miterlimit="10" transform="translate(67,5)"><g class="mark-group role-frame root" role="graphics-object" aria-roledescription="group mark container"><g transform="translate(0,0)"><path class="background" aria-hidden="true" d="M0.5,0.5h200v200h-200Z" stroke="#ddd"/><g><g class="mark-group role-axis" aria-hidden="true"><g transform="translate(0.5,200.5)"><path class="background" aria-hidden="true" d="M0,0h0v0h0Z" pointer-events="none"/><g><g class="mark-rule role-axis-grid" pointer-events="none"><line transform="translate(16,-200)" x2="0" y2="200" stroke="#ddd" stroke-width="1" opacity="1"/><line transform="translate(38,-200)" x2="0" y2="200" stroke="#ddd" stroke-width="1" opacity="1"/><line transform="translate(59,-200)" x2="0" y2="200" stroke="#ddd" stroke-width="1" opacity="1"/><line transform="translate(80,-200)" x2="0" y2="200" stroke="#ddd" stroke-width="1" opacity="1"/><line transform="translate(101,-200)" x2="0" y2="200" stroke="#ddd" stroke-width="1" opacity="1"/><line transform="translate(123,-200)" x2="0" y2="200" stroke="#ddd" stroke-width="1" opacity="1"/><line transform="translate(144,-200)" x2="0" y2="200" stroke="#ddd" stroke-width="1" opacity="1"/><line transform="translate(165,-200)" x2="0" y2="200" stroke="#ddd" stroke-width="1" opacity="1"/><line transform="translate(186,-200)" x2="0" y2="200" stroke="#ddd" stroke-width="1" opacity="1"/></g></g><path class="foreground" aria-hidden="true" d="" pointer-events="none" display="none"/></g></g><g class="mark-group role-axis" aria-hidden="true"><g transform="translate(0.5,0.5)"><path class="background" aria-hidden="true" d="M0,0h0v0h0Z" pointer-events="none"/><g><g class="mark-rule role-axis-grid" pointer-events="none"><line transform="translate(0,200)" x2="200" y2="0" stroke="#ddd" stroke-width="1" opacity="1"/><line transform="translate(0,162)" x2="200" y2="0" stroke="#ddd" stroke-width="1" opacity="1"/><line transform="translate(0,123)" x2="200" y2="0" stroke="#ddd" stroke-width="1" opacity="1"/><line transform="translate(0,85)" x2="200" y2="0" stroke="#ddd" stroke-width="1" opacity="1"/><line transform="translate(0,46)" x2="200" y2="0" stroke="#ddd" stroke-width="1" opacity="1"/><line transform="translate(0,8)" x2="200" y2="0" stroke="#ddd" stroke-width="1" opacity="1"/></g></g><path class="foreground" aria-hidden="true" d="" pointer-events="none" display="none"/></g></g><g class="mark-group role-axis" role="graphics-symbol" aria-roledescription="axis" aria-label="X-axis titled 'Time' for a time scale with values from Monday, 01 January 2024, 2:19:43 PM to Thursday, 07 March 2024, 12:47:48 PM"><g transform="translate(0.5,200.5)"><path class="background" aria-hidden="true" d="M0,0h0v0h0Z" pointer-events="none"/><g><g class="mark-rule role-axis-tick" pointer-events="none"><line transform="translate(16,0)" x2="0" y2="5" stroke="#888" stroke-width="1" opacity="1"/><line transform="translate(38,0)" x2="0" y2="5" stroke="#888" stroke-width="1" opacity="1"/><line transform="translate(59,0)" x2="0" y2="5" stroke="#888" stroke-width="1" opacity="1"/><line transform="translate(80,0)" x2="0" y2="5" stroke="#888" stroke-width="1" opacity="1"/><line transform="translate(101,0)" x2="0" y2="5" stroke="#888" stroke-width="1" opacity="1"/><line transform="translate(123,0)" x2="0" y2="5" stroke="#888" stroke-width="1" opacity="1"/><line transform="translate(144,0)" x2="0" y2="5" stroke="#888" stroke-width="1" opacity="1"/><line transform="translate(165,0)" x2="0" y2="5" stroke="#888" stroke-width="1" opacity="1"/><line transform="translate(186,0)" x2="0" y2="5" stroke="#888" stroke-width="1" opacity="1"/></g><g class="mark-text role-axis-label" pointer-events="none"><text text-anchor="middle" transform="translate(16.388495401200508,15)" font-family="Liberation Mono" font-size="10px" fill="#000" opacity="1">Jan 07</text><text text-anchor="middle" transform="translate(37.621150952658006,15)" font-family="Liberation Mono" font-size="10px" fill="#000" opacity="0">Jan 14</text><text text-anchor="middle" transform="translate(58.853806504115504,15)" font-family="Liberation Mono" font-size="10px" fill="#000" opacity="0">Jan 21</text><text text-anchor="middle" transform="translate(80.08646205557301,15)" font-family="Liberation Mono" font-size="10px" fill="#000" opacity="0">Jan 28</text><text text-anchor="middle" transform="translate(101.31911760703049,15)" font-family="Liberation Mono" font-size="10px" fill="#000" opacity="1">Feb 04</text><text text-anchor="middle" transform="translate(122.551773158488,15)" font-family="Liberation Mono" font-size="10px" fill="#000" opacity="0">Feb 11</text><text text-anchor="middle" transform="translate(143.7844287099455,15)" font-family="Liberation Mono" font-size="10px" fill="#000" opacity="0">Feb 18</text><text text-anchor="middle" transform="translate(165.017084261403,15)" font-family="Liberation Mono" font-size="10px" fill="#000" opacity="0">Feb 25</text><text text-anchor="middle" transform="translate(186.24973981286047,15)" font-family="Liberation Mono" font-size="10px" fill="#000" opacity="1">Mar 03</text></g><g class="mark-rule role-axis-domain" pointer-events="none"><line transform="translate(0,0)" x2="200" y2="0" stroke="#888" stroke-width="1" opacity="1"/></g><g class="mark-text role-axis-title" pointer-events="none"><text text-anchor="middle" transform="translate(100,30)" font-family="Liberation Mono" font-size="11px" font-weight="bold" fill="#000" opacity="1">Time</text></g></g><path class="foreground" aria-hidden="true" d="" pointer-events="none" display="none"/></g></g><g class="mark-group role-axis" role="graphics-symbol" aria-roledescription="axis" aria-label="Y-axis titled 'Price' for a linear scale with values from 0 to 2,600"><g transform="translate(0.5,0.5)"><path class="background" aria-hidden="true" d="M0,0h0v0h0Z" pointer-events="none"/><g><g class="mark-rule role-axis-tick" pointer-events="none"><line transform="translate(0,200)" x2="-5" y2="0" stroke="#888" stroke-width="1" opacity="1"/><line transform="translate(0,162)" x2="-5" y2="0" stroke="#888" stroke-width="1" opacity="1"/><line transform="translate(0,123)" x2="-5" y2="0" stroke="#888" stroke-width="1" opacity="1"/><line transform="translate(0,85)" x2="-5" y2="0" stroke="#888" stroke-width="1" opacity="1"/><line transform="translate(0,46)" x2="-5" y2="0" stroke="#888" stroke-width="1" opacity="1"/><line transform="translate(0,8)" x2="-5" y2="0" stroke="#888" stroke-width="1" opacity="1"/></g><g class="mark-text role-axis-label" pointer-events="none"><text text-anchor="end" transform="translate(-7,203)" font-family="Liberation Mono" font-size="10px" fill="#000" opacity="1">0</text><text text-anchor="end" transform="translate(-7,164.53846153846155)" font-family="Liberation Mono" font-size="10px" fill="#000" opacity="1">500</text><text text-anchor="end" transform="translate(-7,126.07692307692308)" font-family="Liberation Mono" font-size="10px" fill="#000" opacity="1">1,000</text><text text-anchor="end" transform="translate(-7,87.61538461538463)" font-family="Liberation Mono" font-size="10px" fill="#000" opacity="1">1,500</text><text text-anchor="end" transform="translate(-7,49.153846153846146)" font-family="Liberation Mono" font-size="10px" fill="#000" opacity="1">2,000</text><text text-anchor="end" transform="translate(-7,10.692307692307686)" font-family="Liberation Mono" font-size="10px" fill="#000" opacity="1">2,500</text></g><g class="mark-rule role-axis-domain" pointer-events="none"><line transform="translate(0,200)" x2="0" y2="-200" stroke="#888" stroke-width="1" opacity="1"/></g><g class="mark-text role-axis-title" pointer-events="none"><text text-anchor="middle" transform="translate(-51,100) rotate(-90) translate(0,-2)" font-family="Liberation Mono" font-size="11px" font-weight="bold" fill="#000" opacity="1">Price</text></g></g><path class="foreground" aria-hidden="true" d="" pointer-events="none" display="none"/></g></g><g class="mark-group role-scope pathgroup" role="graphics-object" aria-roledescription="group mark container"><g transform="translate(0,0)"><path class="background" aria-hidden="true" d="M0,0h200v200h-200Z"/><g><g class="mark-line role-mark marks" role="graphics-object" aria-roledescription="line mark container"><path aria-label="Time: Jan 01, 2024; Price: 2399; identifier: altex-LG-F2WR508SBW" role="graphics-symbol" aria-roledescription="line mark" d="M0,15.462L0.318,15.462L0.798,15.462L1.809,15.462L2.315,15.462L2.846,15.462L3.329,15.462L3.831,15.462L4.842,15.462L5.348,15.462L5.88,15.462L6.363,15.462L6.863,15.462L7.876,15.462L8.382,15.462L8.913,15.462L9.4,15.462L9.898,15.462L10.91,34.692L11.415,34.692L11.946,34.692L12.432,34.692L12.93,34.692L13.943,34.692L14.448,34.692L14.977,34.692L15.463,34.692L15.964,34.692L16.978,34.692L17.481,34.692L18.01,34.692L18.496,34.692L18.997,34.692L20.011,34.692L20.518,34.692L21.05,34.692L21.533,34.692L22.03,34.692L23.045,34.692L23.55,34.692L24.088,34.692L24.567,34.692L25.063,34.692L26.078,34.692L26.584,34.692L27.116,34.692L27.598,34.692L28.097,34.692L29.11,34.692L29.616,34.692L30.15,34.692L30.633,34.692L31.13,34.692L32.143,34.692L32.65,34.692L33.181,34.692L33.665,34.692L34.164,34.692L35.175,46.231L35.68,46.231L36.209,46.231L36.695,46.231L37.196,46.231L38.21,46.231L38.713,46.231L39.242,46.231L39.728,46.231L40.229,46.231L41.244,46.231L41.75,46.231L42.284,46.231L42.767,46.231L43.263,46.231L44.276,46.231L44.784,46.231L45.316,46.231L45.801,46.231L46.296,46.231L47.31,46.231L47.817,46.231L48.35,46.231L48.833,46.231L49.329,46.231L50.342,46.231L50.848,46.231L51.382,46.231L51.864,46.231L52.364,46.231L53.376,46.231L53.882,46.231L54.415,46.231L54.9,46.231L55.396,46.231L56.409,46.231L56.912,46.231L57.443,46.231L57.93,46.231L58.43,46.231L59.44,46.231L59.946,46.231L60.476,46.231L60.962,46.231L61.462,46.231L62.478,46.231L62.985,46.231L63.518,46.231L63.998,46.231L64.496,46.231L65.51,46.231L66.017,46.231L66.55,46.231L67.034,46.231L67.529,46.231L68.543,46.231L69.05,46.231L69.583,46.231L70.066,46.231L70.562,46.231L71.578,46.231L72.082,46.231L72.617,46.231L73.101,46.231L73.595,46.231L74.608,46.231L75.115,46.231L75.639,46.231L76.124,46.231L76.63,46.231L77.639,46.231L78.146,46.231L78.665,46.231L79.156,46.231L79.661,46.231L80.673,46.231L81.179,46.231L81.7,46.231L82.19,46.231L82.695,46.231L83.706,46.231L84.213,46.231L84.738,46.231L85.223,46.231L85.729,46.231L86.739,46.231L87.245,46.231L87.77,46.231L88.263,46.231L88.761,46.231L89.772,46.231L90.278,46.231L90.804,46.231L91.289,46.231L91.794,46.231L92.805,34.692L93.311,34.692L93.838,34.692L94.322,34.692L94.827,34.692L95.84,34.692L96.344,34.692L96.87,34.692L97.355,34.692L97.861,34.692L98.872,34.692L99.378,34.692L99.899,34.692L100.389,34.692L100.896,34.692L101.908,34.692L102.412,34.692L102.932,34.692L103.422,34.692L103.927,34.692L104.938,34.692L105.446,34.692L105.972,34.692L106.456,34.692L106.96,34.692L107.972,34.692L108.477,34.692L109.004,34.692L109.489,34.692L109.994,34.692L111.005,34.692L111.511,34.692L112.036,34.692L112.525,34.692L113.027,34.692L114.038,34.692L114.545,34.692L115.069,34.692L115.557,34.692L116.06,34.692L117.072,34.692L117.578,34.692L118.101,34.692L118.589,34.692L119.095,34.692L120.105,34.692L120.61,34.692L121.133,34.692L121.621,34.692L122.127,34.692L123.14,34.692L123.644,34.692L124.165,34.692L124.655,34.692L125.16,34.692L126.172,34.692L126.677,34.692L127.205,34.692L127.689,34.692L128.193,34.692L129.204,34.692L129.71,34.692L130.235,34.692L130.729,34.692L131.227,34.692L132.238,34.692L132.744,34.692L133.27,34.692L133.756,34.692L134.259,34.692L135.777,34.692L136.302,34.692L136.788,34.692L137.294,34.692L138.305,34.692L138.81,34.692L139.336,34.692L139.824,34.692L140.326,34.692L141.339,34.692L141.842,34.692L142.364,34.692L142.854,34.692L143.359,34.692L144.371,34.692L144.879,34.692L145.398,34.692L145.888,34.692L146.393,34.692L147.404,34.692L147.911,34.692L148.438,34.692L148.927,34.692L149.426,34.692L150.439,34.692L150.943,34.692L151.467,34.692L151.956,34.692L152.461,34.692L153.47,34.692L153.976,34.692L154.503,34.692L154.989,34.692L155.493,34.692L156.504,34.692L157.009,34.692L157.535,34.692L158.022,34.692L158.526,34.692L159.537,34.692L160.042,34.692L160.566,34.692L161.053,34.692L161.562,34.692L162.57,34.692L163.076,34.692L163.596,34.692L164.086,34.692L164.591,34.692L165.603,34.692L166.11,34.692L166.63,34.692L167.123,34.692L167.625,34.692L168.636,34.692L169.144,34.692L169.669,34.692L170.155,34.692L170.658,34.692L171.67,34.692L172.176,34.692L172.7,34.692L173.188,34.692L173.692,34.692L174.703,34.692L175.209,34.692L175.734,34.692L176.223,34.692L176.726,34.692L177.736,34.692L178.241,34.692L178.765,34.692L179.252,34.692L179.758,34.692L180.769,34.692L181.277,34.692L181.801,34.692L182.287,34.692L182.792,34.692L183.803,34.692L184.309,34.692L184.833,34.692L185.319,34.692L185.825,34.692L186.836,34.692L187.341,34.692L187.863,34.692L188.352,34.692L188.858,34.692L189.916,34.692L190.606,34.692L190.908,34.692L191.389,34.692L191.892,34.692L192.902,34.692L193.408,34.692L193.936,34.692L194.42,34.692L194.924,34.692L195.935,34.692L196.445,34.692L196.969,34.692L197.456,34.692L197.958,34.692L198.969,34.692L199.476,34.692L200,34.692" stroke="#f58518" stroke-width="2"/></g></g><path class="foreground" aria-hidden="true" d="" display="none"/></g><g transform="translate(0,0)"><path class="background" aria-hidden="true" d="M0,0h200v200h-200Z"/><g><g class="mark-line role-mark marks" role="graphics-object" aria-roledescription="line mark container"><path aria-label="Time: Jan 01, 2024; Price: 2499; identifier: altex-LG-F2WR508SBM" role="graphics-symbol" aria-roledescription="line mark" d="M0,7.769L0.318,7.769L0.798,7.769L1.809,7.769L2.315,7.769L2.847,7.769L3.33,7.769L3.831,7.769L4.842,7.769L5.348,7.769L5.88,7.769L6.364,7.769L6.864,7.769L7.876,7.769L8.382,7.769L8.913,7.769L9.4,7.769L9.898,7.769L10.911,27L11.415,27L11.946,27L12.432,27L12.93,27L13.943,27L14.448,27L14.977,27L15.463,27L15.964,27L16.978,27L17.481,27L18.01,27L18.496,27L18.997,27L20.011,27L20.518,27L21.05,27L21.533,27L22.03,27L23.045,27L23.55,27L24.088,27L24.567,27L25.064,27L26.078,27L26.584,27L27.116,27L27.598,27L28.097,27L29.11,27L29.616,27L30.15,27L30.633,27L31.13,27L32.143,27L32.65,27L33.181,27L33.665,27L34.164,27L35.175,38.538L35.68,38.538L36.21,38.538L36.695,38.538L37.196,38.538L38.21,38.538L38.713,38.538L39.242,38.538L39.728,38.538L40.23,38.538L41.244,38.538L41.75,38.538L42.284,38.538L42.767,38.538L43.263,38.538L44.276,38.538L44.784,38.538L45.316,38.538L45.801,38.538L46.296,38.538L47.31,38.538L47.817,38.538L48.35,38.538L48.833,38.538L49.329,38.538L50.342,38.538L50.848,38.538L51.382,38.538L51.864,38.538L52.364,38.538L53.377,38.538L53.882,38.538L54.415,38.538L54.9,38.538L55.396,38.538L56.409,38.538L56.912,38.538L57.443,38.538L57.93,38.538L58.43,38.538L59.441,38.538L59.946,38.538L60.476,38.538L60.962,38.538L61.463,38.538L62.478,38.538L62.985,38.538L63.518,38.538L63.999,38.538L64.496,38.538L65.51,38.538L66.018,38.538L66.551,38.538L67.034,38.538L67.529,38.538L68.544,38.538L69.05,38.538L69.584,38.538L70.066,38.538L70.562,38.538L71.578,38.538L72.082,38.538L72.617,38.538L73.101,38.538L73.595,38.538L74.608,38.538L75.115,38.538L75.639,38.538L76.124,38.538L76.63,38.538L77.639,38.538L78.146,38.538L78.665,38.538L79.156,38.538L79.661,38.538L80.673,38.538L81.179,38.538L81.7,38.538L82.19,38.538L82.695,38.538L83.706,38.538L84.213,38.538L84.738,38.538L85.224,38.538L85.729,38.538L86.739,38.538L87.245,38.538L87.77,38.538L88.263,38.538L88.761,38.538L89.772,38.538L90.278,38.538L90.805,38.538L91.289,38.538L91.794,38.538L92.806,27L93.312,27L93.838,27L94.322,27L94.827,27L95.84,27L96.344,27L96.87,27L97.355,27L97.861,27L98.872,27L99.378,27L99.899,27L100.389,27L100.896,27L101.908,27L102.412,27L102.932,27L103.422,27L103.927,27L104.939,27L105.446,27L105.972,27L106.456,27L106.961,27L107.972,27L108.478,27L109.004,27L109.489,27L109.994,27L111.005,27L111.511,27L112.036,27L112.525,27L113.028,27L114.038,27L114.545,27L115.069,27L115.557,27L116.06,27L117.072,27L117.578,27L118.101,27L118.589,27L119.095,27L120.105,27L120.61,27L121.133,27L121.621,27L122.127,27L123.14,27L123.644,27L124.165,27L124.655,27L125.16,27L126.172,27L126.677,27L127.205,27L127.689,27L128.193,27L129.204,27L129.71,27L130.235,27L130.729,27L131.227,27L132.238,27L132.744,27L133.27,27L133.756,27L134.259,27L135.777,27L136.302,27L136.789,27L137.294,27L138.305,27L138.81,27L139.336,27L139.824,27L140.327,27L141.339,27L141.843,27L142.364,27L142.854,27L143.359,27L144.371,27L144.879,27L145.398,27L145.888,27L146.393,27L147.404,27L147.912,27L148.438,27L148.927,27L149.426,27L150.439,27L150.943,27L151.467,27L151.956,27L152.461,27L153.47,27L153.977,27L154.503,27L154.99,27L155.494,27L156.504,27L157.009,27L157.535,27L158.023,27L158.527,27L159.537,27L160.043,27L160.567,27L161.054,27L161.562,27L162.57,27L163.076,27L163.596,27L164.087,27L164.591,27L165.603,27L166.11,27L166.63,27L167.123,27L167.625,27L168.636,27L169.144,27L169.669,27L170.155,27L170.658,27L171.67,27L172.176,27L172.7,27L173.189,27L173.692,27L174.703,27L175.209,27L175.734,27L176.223,27L176.726,27L177.737,27L178.242,27L178.765,27L179.252,27L179.758,27L180.769,27L181.277,27L181.801,27L182.287,27L182.792,27L183.803,27L184.309,27L184.833,27L185.319,27L185.825,27L186.836,27L187.341,27L187.863,27L188.353,27L188.859,27L189.916,27L190.607,27L190.908,27L191.389,27L191.892,27L192.902,27L193.408,27L193.936,27L194.42,27L194.924,27L195.935,27L196.445,27L196.969,27L197.456,27L197.958,27L198.969,27L199.476,27L200,38.538" stroke="#4c78a8" stroke-width="2"/></g></g><path class="foreground" aria-hidden="true" d="" display="none"/></g></g><g class="mark-group role-legend" role="graphics-symbol" aria-roledescription="legend" aria-label="Symbol legend titled 'identifier' for stroke color with 2 values: altex-LG-F2WR508SBM, altex-LG-F2WR508SBW"><g transform="translate(220,0)"><path class="background" aria-hidden="true" d="M0,0h168v40h-168Z" pointer-events="none"/><g><g class="mark-group role-legend-entry"><g transform="translate(0,16)"><path class="background" aria-hidden="true" d="M0,0h0v0h0Z" pointer-events="none"/><g><g class="mark-group role-scope" role="graphics-object" aria-roledescription="group mark container"><g transform="translate(0,0)"><path class="background" aria-hidden="true" d="M0,0h168v11h-168Z" pointer-events="none" opacity="1"/><g><g class="mark-symbol role-legend-symbol" pointer-events="none"><path transform="translate(6,6)" d="M-5,0L5,0" stroke="#4c78a8" stroke-width="1.5" opacity="1"/></g><g class="mark-text role-legend-label" pointer-events="none"><text text-anchor="start" transform="translate(16,9)" font-family="Liberation Mono" font-size="10px" fill="#000" opacity="1">altex-LG-F2WR508SBM</text></g></g><path class="foreground" aria-hidden="true" d="" pointer-events="none" display="none"/></g><g transform="translate(0,13)"><path class="background" aria-hidden="true" d="M0,0h168v11h-168Z" pointer-events="none" opacity="1"/><g><g class="mark-symbol role-legend-symbol" pointer-events="none"><path transform="translate(6,6)" d="M-5,0L5,0" stroke="#f58518" stroke-width="1.5" opacity="1"/></g><g class="mark-text role-legend-label" pointer-events="none"><text text-anchor="start" transform="translate(16,9)" font-family="Liberation Mono" font-size="10px" fill="#000" opacity="1">altex-LG-F2WR508SBW</text></g></g><path class="foreground" aria-hidden="true" d="" pointer-events="none" display="none"/></g></g></g><path class="foreground" aria-hidden="true" d="" pointer-events="none" display="none"/></g></g><g class="mark-text role-legend-title" pointer-events="none"><text text-anchor="start" transform="translate(0,9)" font-family="Liberation Mono" font-size="11px" font-weight="bold" fill="#000" opacity="1">identifier</text></g></g><path class="foreground" aria-hidden="true" d="" pointer-events="none" display="none"/></g></g></g><path class="foreground" aria-hidden="true" d="" display="none"/></g></g></g></svg>