<svg xmlns="http://www.w3.org/2000/svg" xmlns:xlink="http://www.w3.org/1999/xlink" version="1.1" class="marks" width="460" height="242" viewBox="0 0 460 242"><rect width="460" height="242" fill="white"/><g fill="none" stroke-miterlimit="10" transform="translate(67,5)"><g class="mark-group role-frame root" role="graphics-object" aria-roledescription="group mark container"><g transform="translate(0,0)"><path class="background" aria-hidden="true" d="M0.5,0.5h200v200h-200Z" stroke="#ddd"/><g><g class="mark-group role-axis" aria-hidden="true"><g transform="translate(0.5,200.5)"><path class="background" aria-hidden="true" d="M0,0h0v0h0Z" pointer-events="none"/><g><g class="mark-rule role-axis-grid" pointer-events="none"><line transform="translate(66,-200)" x2="0" y2="200" stroke="#ddd" stroke-width="1" opacity="1"/><line transform="translate(133,-200)" x2="0" y2="200" stroke="#ddd" stroke-width="1" opacity="1"/></g></g><path class="foreground" aria-hidden="true" d="" pointer-events="none" display="none"/></g></g><g class="mark-group role-axis" aria-hidden="true"><g transform="translate(0.5,0.5)"><path class="background" aria-hidden="true" d="M0,0h0v0h0Z" pointer-events="none"/><g><g class="mark-rule role-axis-grid" pointer-events="none"><line transform="translate(0,200)" x2="200" y2="0" stroke="#ddd" stroke-width="1" opacity="1"/><line transform="translate(0,162)" x2="200" y2="0" stroke="#ddd" stroke-width="1" opacity="1"/><line transform="translate(0,123)" x2="200" y2="0" stroke="#ddd" stroke-width="1" opacity="1"/><line transform="translate(0,85)" x2="200" y2="0" stroke="#ddd" stroke-width="1" opacity="1"/><line transform="translate(0,46)" x2="200" y2="0" stroke="#ddd" stroke-width="1" opacity="1"/><line transform="translate(0,8)" x2="200" y2="0" stroke="#ddd" stroke-width="1" opacity="1"/></g></g><path class="foreground" aria-hidden="true" d="" pointer-events="none" display="none"/></g></g><g class="mark-group role-axis" role="graphics-symbol" aria-roledescription="axis" aria-label="X-axis titled 'Time' for a time scale with values from Monday, 01 January 2024, 2:19:43 PM to Sunday, 29 September 2024, 8:39:20 PM"><g transform="translate(0.5,200.5)"><path class="background" aria-hidden="true" d="M0,0h0v0h0Z" pointer-events="none"/><g><g class="mark-rule role-axis-tick" pointer-events="none"><line transform="translate(66,0)" x2="0" y2="5" stroke="#888" stroke-width="1" opacity="1"/><line transform="translate(133,0)" x2="0" y2="5" stroke="#888" stroke-width="1" opacity="1"/></g><g class="mark-text role-axis-label" pointer-events="none"><text text-anchor="middle" transform="translate(66.40841124639863,15)" font-family="Liberation Mono" font-size="10px" fill="#000" opacity="1">April</text><text text-anchor="middle" transform="translate(133.25538776694978,15)" font-family="Liberation Mono" font-size="10px" fill="#000" opacity="1">July</text></g><g class="mark-rule role-axis-domain" pointer-events="none"><line transform="translate(0,0)" x2="200" y2="0" stroke="#888" stroke-width="1" opacity="1"/></g><g class="mark-text role-axis-title" pointer-events="none"><text text-anchor="middle" transform="translate(100,30)" font-family="Liberation Mono" font-size="11px" font-weight="bold" fill="#000" opacity="1">Time</text></g></g><path class="foreground" aria-hidden="true" d="" pointer-events="none" display="none"/></g></g><g class="mark-group role-axis" role="graphics-symbol" aria-roledescription="axis" aria-label="Y-axis titled 'Price' for a linear scale with values from 0 to 2,600"><g transform="translate(0.5,0.5)"><path class="background" aria-hidden="true" d="M0,0h0v0h0Z" pointer-events="none"/><g><g class="mark-rule role-axis-tick" pointer-events="none"><line transform="translate(0,200)" x2="-5" y2="0" stroke="#888" stroke-width="1" opacity="1"/><line transform="translate(0,162)" x2="-5" y2="0" stroke="#888" stroke-width="1" opacity="1"/><line transform="translate(0,123)" x2="-5" y2="0" stroke="#888" stroke-width="1" opacity="1"/><line transform="translate(0,85)" x2="-5" y2="0" stroke="#888" stroke-width="1" opacity="1"/><line transform="translate(0,46)" x2="-5" y2="0" stroke="#888" stroke-width="1" opacity="1"/><line transform="translate(0,8)" x2="-5" y2="0" stroke="#888" stroke-width="1" opacity="1"/></g><g class="mark-text role-axis-label" pointer-events="none"><text text-anchor="end" transform="translate(-7,203)" font-family="Liberation Mono" font-size="10px" fill="#000" opacity="1">0</text><text text-anchor="end" transform="translate(-7,164.53846153846155)" font-family="Liberation Mono" font-size="10px" fill="#000" opacity="1">500</text><text text-anchor="end" transform="translate(-7,126.07692307692308)" font-family="Liberation Mono" font-size="10px" fill="#000" opacity="1">1,000</text><text text-anchor="end" transform="translate(-7,87.61538461538463)" font-family="Liberation Mono" font-size="10px" fill="#000" opacity="1">1,500</text><text text-anchor="end" transform="translate(-7,49.153846153846146)" font-family="Liberation Mono" font-size="10px" fill="#000" opacity="1">2,000</text><text text-anchor="end" transform="translate(-7,10.692307692307686)" font-family="Liberation Mono" font-size="10px" fill="#000" opacity="1">2,500</text></g><g class="mark-rule role-axis-domain" pointer-events="none"><line transform="translate(0,200)" x2="0" y2="-200" stroke="#888" stroke-width="1" opacity="1"/></g><g class="mark-text role-axis-title" pointer-events="none"><text text-anchor="middle" transform="translate(-51,100) rotate(-90) translate(0,-2)" font-family="Liberation Mono" font-size="11px" font-weight="bold" fill="#000" opacity="1">Price</text></g></g><path class="foreground" aria-hidden="true" d="" pointer-events="none" display="none"/></g></g><g class="mark-group role-scope pathgroup" role="graphics-object" aria-roledescription="group mark container"><g transform="translate(0,0)"><path class="background" aria-hidden="true" d="M0,0h200v200h-200Z"/><g><g class="mark-line role-mark marks" role="graphics-object" aria-roledescription="line mark container"><path aria-label="Time: Jan 01, 2024; Price: 2399; identifier: altex-LG-F2WR508SBW" role="graphics-symbol" aria-roledescription="line mark" d="M0,15.462L0.077,15.462L0.193,15.462L0.438,15.462L0.561,15.462L0.689,15.462L0.806,15.462L0.928,15.462L1.173,15.462L1.295,15.462L1.424,15.462L1.541,15.462L1.662,15.462L1.907,15.462L2.03,15.462L2.158,15.462L2.276,15.462L2.397,15.462L2.642,34.692L2.765,34.692L2.893,34.692L3.011,34.692L3.131,34.692L3.377,34.692L3.499,34.692L3.627,34.692L3.745,34.692L3.866,34.692L4.112,34.692L4.233,34.692L4.362,34.692L4.479,34.692L4.601,34.692L4.846,34.692L4.969,34.692L5.098,34.692L5.215,34.692L5.335,34.692L5.581,34.692L5.703,34.692L5.834,34.692L5.95,34.692L6.07,34.692L6.315,34.692L6.438,34.692L6.567,34.692L6.684,34.692L6.804,34.692L7.05,34.692L7.172,34.692L7.302,34.692L7.419,34.692L7.539,34.692L7.784,34.692L7.907,34.692L8.036,34.692L8.153,34.692L8.274,34.692L8.519,46.231L8.641,46.231L8.769,46.231L8.887,46.231L9.008,46.231L9.254,46.231L9.375,46.231L9.504,46.231L9.621,46.231L9.743,46.231L9.988,46.231L10.111,46.231L10.24,46.231L10.357,46.231L10.477,46.231L10.723,46.231L10.846,46.231L10.975,46.231L11.092,46.231L11.212,46.231L11.457,46.231L11.58,46.231L11.709,46.231L11.826,46.231L11.946,46.231L12.192,46.231L12.314,46.231L12.443,46.231L12.56,46.231L12.681,46.231L12.927,46.231L13.049,46.231L13.178,46.231L13.296,46.231L13.416,46.231L13.661,46.231L13.783,46.231L13.911,46.231L14.029,46.231L14.15,46.231L14.395,46.231L14.518,46.231L14.646,46.231L14.764,46.231L14.885,46.231L15.131,46.231L15.254,46.231L15.383,46.231L15.499,46.231L15.619,46.231L15.865,46.231L15.988,46.231L16.117,46.231L16.234,46.231L16.354,46.231L16.6,46.231L16.722,46.231L16.852,46.231L16.968,46.231L17.089,46.231L17.335,46.231L17.457,46.231L17.586,46.231L17.704,46.231L17.823,46.231L18.068,46.231L18.191,46.231L18.318,46.231L18.436,46.231L18.558,46.231L18.803,46.231L18.925,46.231L19.051,46.231L19.17,46.231L19.292,46.231L19.537,46.231L19.66,46.231L19.786,46.231L19.904,46.231L20.027,46.231L20.272,46.231L20.395,46.231L20.522,46.231L20.639,46.231L20.762,46.231L21.006,46.231L21.129,46.231L21.256,46.231L21.375,46.231L21.496,46.231L21.741,46.231L21.863,46.231L21.991,46.231L22.108,46.231L22.231,46.231L22.475,34.692L22.598,34.692L22.725,34.692L22.843,34.692L22.965,34.692L23.21,34.692L23.332,34.692L23.46,34.692L23.577,34.692L23.7,34.692L23.945,34.692L24.067,34.692L24.193,34.692L24.312,34.692L24.435,34.692L24.68,34.692L24.802,34.692L24.928,34.692L25.046,34.692L25.169,34.692L25.414,34.692L25.537,34.692L25.664,34.692L25.781,34.692L25.903,34.692L26.148,34.692L26.271,34.692L26.398,34.692L26.516,34.692L26.638,34.692L26.883,34.692L27.006,34.692L27.133,34.692L27.251,34.692L27.373,34.692L27.618,34.692L27.74,34.692L27.867,34.692L27.985,34.692L28.107,34.692L28.352,34.692L28.475,34.692L28.601,34.692L28.72,34.692L28.842,34.692L29.087,34.692L29.209,34.692L29.336,34.692L29.454,34.692L29.576,34.692L29.822,34.692L29.944,34.692L30.07,34.692L30.189,34.692L30.311,34.692L30.556,34.692L30.678,34.692L30.806,34.692L30.923,34.692L31.046,34.692L31.29,34.692L31.413,34.692L31.54,34.692L31.66,34.692L31.78,34.692L32.025,34.692L32.148,34.692L32.275,34.692L32.393,34.692L32.515,34.692L32.882,34.692L33.009,34.692L33.127,34.692L33.249,34.692L33.494,34.692L33.617,34.692L33.744,34.692L33.862,34.692L33.984,34.692L34.229,34.692L34.351,34.692L34.477,34.692L34.596,34.692L34.718,34.692L34.963,34.692L35.086,34.692L35.212,34.692L35.331,34.692L35.453,34.692L35.698,34.692L35.821,34.692L35.948,34.692L36.067,34.692L36.188,34.692L36.433,34.692L36.555,34.692L36.682,34.692L36.8,34.692L36.923,34.692L37.167,34.692L37.29,34.692L37.417,34.692L37.535,34.692L37.657,34.692L37.902,34.692L38.024,34.692L38.152,34.692L38.269,34.692L38.392,34.692L38.636,34.692L38.759,34.692L38.886,34.692L39.004,34.692L39.127,34.692L39.371,34.692L39.493,34.692L39.619,34.692L39.738,34.692L39.86,34.692L40.105,34.692L40.228,34.692L40.354,34.692L40.473,34.692L40.595,34.692L40.84,34.692L40.963,34.692L41.09,34.692L41.208,34.692L41.33,34.692L41.575,34.692L41.697,34.692L41.824,34.692L41.942,34.692L42.064,34.692L42.309,34.692L42.432,34.692L42.559,34.692L42.677,34.692L42.799,34.692L43.044,34.692L43.166,34.692L43.293,34.692L43.411,34.692L43.533,34.692L43.778,34.692L43.901,34.692L44.028,34.692L44.146,34.692L44.268,34.692L44.513,34.692L44.635,34.692L44.762,34.692L44.88,34.692L45.003,34.692L45.248,34.692L45.37,34.692L45.496,34.692L45.615,34.692L45.737,34.692L45.993,34.692L46.161,34.692L46.234,34.692L46.35,34.692L46.472,34.692L46.717,34.692L46.839,34.692L46.967,34.692L47.084,34.692L47.206,34.692L47.451,34.692L47.575,34.692L47.701,34.692L47.82,34.692L47.941,34.692L48.186,34.692L48.309,34.692L48.436,34.692L48.553,34.692L48.676,34.692L48.92,34.692L49.045,34.692L49.17,34.692L49.288,34.692L49.41,34.692L49.655,34.692L49.778,34.692L49.903,34.692L50.023,34.692L50.145,34.692L50.39,34.692L50.513,34.692L50.638,34.692L50.757,34.692L50.879,34.692L51.125,34.692L51.247,34.692L51.374,34.692L51.492,34.692L51.614,34.692L51.859,34.692L51.981,34.692L52.109,34.692L52.227,34.692L52.348,34.692L52.593,34.692L52.717,34.692L52.844,34.692L52.961,34.692L53.083,34.692L53.328,34.692L53.45,34.692L53.578,34.692L53.696,34.692L53.818,34.692L54.062,34.692L54.186,34.692L54.312,34.692L54.43,34.692L54.552,34.692L54.797,34.692L54.92,34.692L55.046,34.692L55.164,34.692L55.287,34.692L55.532,34.692L55.655,34.692L55.781,34.692L55.899,34.692L56.021,34.692L56.266,34.692L56.389,34.692L56.517,34.692L56.635,34.692L56.757,34.692L57.001,34.692L57.123,34.692L57.251,34.692L57.37,34.692L57.49,34.692L57.735,34.692L57.858,34.692L57.985,34.692L58.104,34.692L58.226,34.692L58.47,34.692L58.593,34.692L58.72,34.692L58.839,34.692L58.96,34.692L59.205,34.692L59.327,34.692L59.454,34.692L59.572,34.692L59.694,34.692L59.939,34.692L60.061,34.692L60.189,34.692L60.306,34.692L60.429,34.692L60.674,34.692L60.796,34.692L60.924,34.692L61.041,34.692L61.163,34.692L61.408,34.692L61.531,34.692L61.658,34.692L61.776,34.692L61.898,34.692L62.143,34.692L62.266,34.692L62.393,34.692L62.511,34.692L62.633,34.692L62.878,34.692L63,34.692L63.128,34.692L63.246,34.692L63.367,34.692L63.612,34.692L63.735,34.692L63.862,34.692L63.98,34.692L64.102,34.692L64.347,34.692L64.469,34.692L64.597,34.692L64.715,34.692L64.836,34.692L65.081,34.692L65.204,34.692L65.33,34.692L65.449,34.692L65.571,34.692L65.816,34.692L65.939,34.692L66.065,34.692L66.184,34.692L66.306,34.692L66.55,34.692L66.674,34.692L66.801,34.692L66.92,34.692L67.04,34.692L67.285,34.692L67.408,34.692L67.536,34.692L67.654,34.692L67.775,34.692L68.019,34.692L68.142,34.692L68.27,34.692L68.388,34.692L68.509,34.692L68.755,34.692L68.877,34.692L69.004,34.692L69.122,34.692L69.244,34.692L69.49,34.692L69.739,34.692L69.857,34.692L69.979,34.692L70.224,34.692L70.346,34.692L70.472,34.692L70.591,34.692L70.713,34.692L70.958,34.692L71.08,34.692L71.207,34.692L71.325,34.692L71.448,34.692L71.693,34.692L71.815,34.692L71.943,34.692L72.061,34.692L72.182,34.692L72.427,34.692L72.549,34.692L72.677,34.692L72.795,34.692L72.917,34.692L73.162,34.692L73.285,34.692L73.412,34.692L73.531,34.692L73.652,34.692L73.897,34.692L74.02,34.692L74.147,34.692L74.386,34.692L74.631,34.692L74.754,34.692L74.881,34.692L74.998,34.692L75.121,34.692L75.365,34.692L75.488,34.692L75.613,34.692L75.733,34.692L75.855,34.692L76.111,34.692L76.299,34.692L76.414,34.692L76.652,34.692L76.836,34.692L76.957,34.692L77.083,34.692L77.202,34.692L77.324,34.692L77.569,34.692L77.692,34.692L77.82,34.692L77.936,34.692L78.059,34.692L78.304,34.692L78.426,34.692L78.554,34.692L78.673,34.692L78.794,34.692L79.161,34.692L79.289,34.692L79.406,34.692L79.528,34.692L79.773,34.692L79.895,34.692L80.023,34.692L80.141,34.692L80.263,34.692L80.508,34.692L80.63,34.692L80.757,34.692L80.875,34.692L80.997,34.692L81.242,34.692L81.365,34.692L81.492,34.692L81.61,34.692L81.732,34.692L81.977,34.692L82.1,34.692L82.228,34.692L82.345,34.692L82.466,34.692L82.711,34.692L82.834,34.692L82.962,34.692L83.079,34.692L83.201,34.692L83.446,34.692L83.569,34.692L83.7,34.692L83.814,34.692L83.936,34.692L84.18,34.692L84.303,34.692L84.428,34.692L84.548,34.692L84.67,34.692L84.915,34.692L85.038,34.692L85.166,34.692L85.283,34.692L85.405,34.692L85.65,34.692L85.772,34.692L85.899,34.692L86.017,34.692L86.139,34.692L86.384,34.692L86.507,34.692L86.634,34.692L86.751,34.692L86.874,34.692L87.119,34.692L87.243,34.692L87.37,34.692L87.487,34.692L87.609,34.692L87.853,34.692L87.976,34.692L88.104,34.692L88.222,34.692L88.343,34.692L88.588,34.692L88.713,34.692L88.839,34.692L88.956,34.692L89.077,34.692L89.323,57.769L89.445,57.769L89.574,57.769L89.691,57.769L89.813,57.769L90.058,57.769L90.179,57.769L90.308,57.769L90.425,57.769L90.547,57.769L90.792,57.769L90.914,57.769L91.041,57.769L91.159,57.769L91.281,57.769L91.526,57.769L91.649,57.769L91.776,57.769L91.894,57.769L92.016,57.769L92.261,57.769L92.384,57.769L92.512,57.769L92.63,57.769L92.75,57.769L92.995,57.769L93.118,57.769L93.246,57.769L93.364,57.769L93.485,57.769L93.73,57.769L93.853,57.769L93.983,57.769L94.099,57.769L94.219,57.769L94.465,34.692L94.588,34.692L94.716,34.692L94.835,34.692L94.955,34.692L95.199,34.692L95.322,34.692L95.451,34.692L95.567,34.692L95.689,34.692L95.934,34.692L96.056,34.692L96.184,34.692L96.301,34.692L96.423,34.692L96.669,34.692L96.791,34.692L96.919,34.692L97.036,34.692L97.158,34.692L97.403,34.692L97.526,34.692L97.655,34.692L97.772,34.692L97.893,34.692L98.137,34.692L98.261,34.692L98.389,34.692L98.507,34.692L98.627,34.692L98.872,34.692L98.995,34.692L99.124,34.692L99.241,34.692L99.362,34.692L99.607,34.692L99.73,34.692L99.859,34.692L99.975,34.692L100.096,34.692L100.341,34.692L100.464,34.692L100.593,34.692L100.71,34.692L100.831,34.692L101.076,34.692L101.199,34.692L101.327,34.692L101.443,34.692L101.565,34.692L101.811,34.692L101.933,34.692L102.061,34.692L102.179,34.692L102.3,34.692L102.546,34.692L102.668,34.692L102.797,34.692L102.914,34.692L103.035,34.692L103.28,34.692L103.403,34.692L103.532,34.692L103.648,34.692L103.77,34.692L104.015,34.692L104.138,34.692L104.266,34.692L104.383,34.692L104.504,34.692L104.749,34.692L104.871,34.692L105,34.692L105.118,34.692L105.238,34.692L105.485,34.692L105.606,34.692L105.735,34.692L105.851,34.692L105.973,34.692L106.218,34.692L106.341,34.692L106.469,34.692L106.586,34.692L106.708,34.692L106.953,34.692L107.075,34.692L107.203,34.692L107.32,34.692L107.443,34.692L107.687,34.692L107.81,34.692L107.939,34.692L108.056,34.692L108.177,34.692L108.424,34.692L108.545,34.692L108.674,34.692L108.79,34.692L108.911,34.692L109.158,34.692L109.28,34.692L109.408,34.692L109.525,34.692L109.646,34.692L109.892,34.692L110.014,34.692L110.143,34.692L110.259,34.692L110.38,34.692L110.627,34.692L110.749,34.692L110.877,34.692L110.994,34.692L111.115,34.692L111.36,34.692L111.483,34.692L111.611,34.692L111.728,34.692L111.85,34.692L112.095,34.692L112.217,34.692L112.345,34.692L112.462,34.692L112.584,34.692L112.83,34.692L112.953,34.692L113.082,34.692L113.198,34.692L113.32,34.692L113.564,34.692L113.687,34.692L113.816,34.692L113.933,34.692L114.054,34.692L114.3,34.692L114.422,34.692L114.551,34.692L114.667,34.692L114.788,34.692L115.033,34.692L115.156,34.692L115.286,34.692L115.401,34.692L115.523,34.692L115.768,34.692L115.891,34.692L116.02,34.692L116.137,34.692L116.257,34.692L116.502,34.692L116.624,34.692L116.753,34.692L116.871,34.692L116.992,34.692L117.237,34.692L117.359,34.692L117.488,34.692L117.605,34.692L117.726,34.692L117.973,34.692L118.095,34.692L118.224,34.692L118.34,34.692L118.461,34.692L118.707,34.692L118.83,34.692L118.959,34.692L119.075,34.692L119.196,34.692L119.441,34.692L119.564,46.231L119.693,46.231L119.809,46.231L119.93,46.231L120.176,46.231L120.298,46.231L120.427,46.231L120.545,46.231L120.665,46.231L120.91,46.231L121.033,46.231L121.162,48.538L121.278,48.538L121.4,48.538L121.645,48.538L121.768,48.538L121.896,48.538L122.012,48.538L122.134,48.538L122.379,48.538L122.502,48.538L122.63,48.538L122.747,48.538L122.869,48.538L123.115,48.538L123.237,48.538L123.366,48.538L123.482,48.538L123.603,48.538L123.848,48.538L123.972,48.538L124.101,48.538L124.217,48.538L124.337,48.538L124.583,48.538L124.706,48.538L124.836,48.538L124.952,48.538L125.072,48.538L125.317,48.538L125.44,48.538L125.569,48.538L125.687,48.538L125.807,48.538L126.053,48.538L126.175,48.538L126.304,48.538L126.42,48.538L126.542,48.538L126.786,48.538L126.909,48.538L127.039,48.538L127.155,48.538L127.276,48.538L127.521,48.538L127.643,48.538L127.772,48.538L127.889,48.538L128.01,48.538L128.256,48.538L128.379,48.538L128.508,48.538L128.624,48.538L128.745,48.538L128.99,48.538L129.114,48.538L129.242,48.538L129.48,48.538L129.726,48.538L129.848,48.538L129.978,48.538L130.094,48.538L130.214,48.538L130.461,48.538L130.583,48.538L130.712,48.538L130.828,48.538L130.949,48.538L131.194,48.538L131.318,48.538L131.447,48.538L131.562,48.538L131.684,48.538L131.929,48.538L132.051,48.538L132.18,48.538L132.297,48.538L132.418,48.538L132.663,48.538L132.786,48.538L132.914,48.538L133.032,48.538L133.153,48.538L133.398,48.538L133.521,48.538L133.651,48.538L133.767,48.538L133.887,48.538L134.133,48.538L134.256,48.538L134.384,48.538L134.501,48.538L134.622,48.538L134.867,48.538L134.99,48.538L135.119,48.538L135.236,48.538L135.356,48.538L135.602,48.538L135.725,48.538L135.854,48.538L135.97,48.538L136.091,48.538L136.337,48.538L136.459,48.538L136.588,48.538L136.705,48.538L136.825,48.538L137.071,48.538L137.193,48.538L137.321,48.538L137.439,48.538L137.56,48.538L137.805,48.538L137.927,48.538L138.056,48.538L138.173,48.538L138.295,48.538L138.541,48.538L138.663,48.538L138.792,48.538L138.909,48.538L139.029,48.538L139.275,48.538L139.398,48.538L139.528,48.538L139.644,48.538L139.764,48.538L140.01,48.538L140.133,48.538L140.262,48.538L140.378,48.538L140.499,48.538L140.744,48.538L140.867,48.538L140.997,48.538L141.112,48.538L141.233,48.538L141.478,48.538L141.601,48.538L141.731,48.538L141.847,48.538L141.968,48.538L142.213,48.538L142.335,48.538L142.464,48.538L142.581,48.538L142.702,48.538L142.949,48.538L143.071,48.538L143.207,48.538L143.322,48.538L143.437,48.538L143.683,48.538L143.805,48.538L143.935,48.538L144.052,48.538L144.171,48.538L144.417,48.538L144.54,48.538L144.667,48.538L144.786,48.538L144.906,48.538L145.151,48.538L145.275,48.538L145.404,48.538L145.521,48.538L145.64,48.538L145.887,48.538L146.009,48.538L146.139,48.538L146.254,48.538L146.375,48.538L146.621,48.538L146.743,48.538L146.873,48.538L146.99,48.538L147.11,48.538L147.356,48.538L147.477,48.538L147.606,48.538L147.723,48.538L147.845,48.538L148.09,48.538L148.212,48.538L148.341,48.538L148.459,48.538L148.579,48.538L148.825,48.538L148.949,48.538L149.077,48.538L149.193,48.538L149.313,48.538L149.559,48.538L149.682,48.538L149.812,48.538L149.928,48.538L150.048,48.538L150.293,27L150.417,27L150.546,27L150.662,27L150.783,27L151.029,27L151.151,27L151.28,27L151.397,27L151.518,27L151.764,27L151.885,27L152.015,27L152.132,27L152.252,27L152.497,27L152.62,27L152.75,27L152.865,27L152.987,27L153.231,27L153.354,27L153.483,27L153.6,27L153.721,27L153.967,27L154.09,27L154.219,27L154.335,27L154.456,27L154.701,27L154.824,27L154.954,27L155.07,27L155.19,27L155.435,27L155.557,27L155.688,27L155.804,27L155.925,27L156.17,27L156.293,27L156.423,27L156.539,27L156.66,27L156.906,27L157.028,27L157.157,27L157.274,27L157.394,27L157.639,27L157.762,27L157.89,27L158.007,27L158.128,27L158.375,27L158.496,27L158.625,27L158.741,27L158.864,27L159.109,27L159.232,27L159.362,27L159.477,27L159.598,27L159.844,27L159.966,27L160.096,27L160.212,27L160.332,27L160.578,27L160.701,27L160.831,27L160.947,27L161.067,27L161.313,27L161.436,27L161.565,27L161.681,27L161.802,27L162.047,27L162.17,27L162.3,27L162.416,27L162.536,27L162.783,27L162.904,27L163.033,27L163.151,27L163.27,27L163.516,27L163.638,27L163.768,27L163.884,27L164.006,27L164.251,27L164.374,27L164.505,27L164.62,27L164.74,27L164.986,27L165.108,27L165.238,27L165.355,27L165.474,27L165.72,27L165.843,27L165.973,27L166.09,27L166.209,27L166.455,27L166.578,27L166.707,27L166.823,27L166.944,27L167.189,27L167.312,27L167.442,27L167.558,27L167.678,27L167.924,27L168.046,27L168.174,27L168.292,27L168.414,27L168.658,27L168.78,27L168.91,27L169.026,27L169.147,27L169.393,27L169.516,27L169.646,27L169.761,27L169.882,27L170.129,27L170.251,27L170.38,27L170.496,27L170.617,27L170.863,27L170.985,27L171.112,27L171.231,27L171.352,27L171.597,27L171.72,27L171.85,27L171.967,27L172.086,27L172.332,27L172.454,27L172.584,27L172.7,27L172.82,27L173.066,27L173.188,27L173.318,27L173.434,27L173.555,27L173.801,27L173.923,27L174.052,27L174.168,27L174.29,27L174.537,27L174.659,27L174.789,27L174.904,27L175.024,27L175.27,27L175.393,27L175.523,27L175.638,27L175.759,27L176.005,27L176.128,27L176.258,27L176.374,27L176.493,27L176.74,27L176.862,27L176.992,27L177.108,27L177.228,27L177.474,27L177.597,27L177.727,27L177.842,27L177.963,27L178.209,27L178.331,27L178.46,27L178.577,27L178.697,27L178.944,27L179.065,27L179.196,27L179.311,27L179.432,27L179.678,27L179.801,27L179.931,27L180.047,27L180.167,27L180.412,27L180.536,27L180.666,27L180.781,27L180.901,27L181.147,27L181.27,27L181.401,27L181.515,27L181.636,27L181.882,27L182.005,27L182.135,27L182.25,27L182.37,27L182.616,27L182.739,27L182.869,27L182.986,27L183.105,27L183.351,27L183.473,27L183.602,27L183.718,27L183.839,27L184.085,27L184.207,27L184.337,27L184.454,27L184.574,27L184.82,27L184.944,27L185.074,27L185.188,27L185.309,27L185.555,27L185.678,27L185.808,27L185.923,27L186.043,27L186.29,27L186.413,27L186.543,27L186.658,27L186.777,27L187.024,27L187.147,27L187.277,27L187.393,27L187.513,27L187.758,27L187.881,27L188.011,27L188.126,27L188.247,27L188.493,46.231L188.616,46.231L188.745,46.231L188.861,46.231L188.981,46.231L189.228,46.231L189.35,46.231L189.48,46.231L189.596,46.231L189.716,46.231L189.963,46.231L190.086,46.231L190.216,46.231L190.332,46.231L190.451,46.231L190.695,46.231L190.82,46.231L190.95,46.231L191.065,46.231L191.185,46.231L191.432,46.231L191.555,46.231L191.685,46.231L191.8,46.231L191.92,46.231L192.167,53.923L192.289,53.923L192.42,53.923L192.535,53.923L192.654,53.923L192.901,53.923L193.024,53.923L193.154,53.923L193.269,53.923L193.389,53.923L193.635,53.923L193.757,53.923L193.887,53.923L194.003,53.923L194.123,53.923L194.371,53.923L194.492,53.923L194.622,53.923L194.737,53.923L194.858,53.923L195.105,53.923L195.229,53.923L195.358,53.923L195.473,53.923L195.593,53.923L195.839,53.923L195.963,53.923L196.093,53.923L196.208,53.923L196.328,53.923L196.574,53.923L196.698,53.923L196.828,53.923L196.944,53.923L197.062,53.923L197.309,23.154L197.432,23.154L197.563,23.154L197.677,23.154L197.797,23.154L198.043,23.154L198.166,23.154L198.297,23.154L198.412,23.154L198.777,23.154L198.9,23.154L199.03,23.154L199.145,23.154L199.265,23.154L199.512,23.154L199.635,23.154L199.764,23.154L199.88,23.154L200,23.154" stroke="#4c78a8" stroke-width="2"/></g></g><path class="foreground" aria-hidden="true" d="" display="none"/></g><g transform="translate(0,0)"><path class="background" aria-hidden="true" d="M0,0h200v200h-200Z"/><g><g class="mark-line role-mark marks" role="graphics-object" aria-roledescription="line mark container"><path aria-label="Time: Jan 01, 2024; Price: 2499; identifier: altex-LG-F2WR508SBM" role="graphics-symbol" aria-roledescription="line mark" d="M0,7.769L0.077,7.769L0.193,7.769L0.438,7.769L0.561,7.769L0.689,7.769L0.806,7.769L0.928,7.769L1.173,7.769L1.295,7.769L1.424,7.769L1.541,7.769L1.662,7.769L1.907,7.769L2.03,7.769L2.158,7.769L2.277,7.769L2.397,7.769L2.642,27L2.765,27L2.893,27L3.011,27L3.131,27L3.377,27L3.499,27L3.627,27L3.745,27L3.866,27L4.112,27L4.233,27L4.362,27L4.479,27L4.601,27L4.846,27L4.969,27L5.098,27L5.215,27L5.335,27L5.581,27L5.703,27L5.834,27L5.95,27L6.07,27L6.315,27L6.438,27L6.567,27L6.684,27L6.804,27L7.05,27L7.172,27L7.302,27L7.419,27L7.539,27L7.784,27L7.907,27L8.036,27L8.153,27L8.274,27L8.519,38.538L8.641,38.538L8.769,38.538L8.887,38.538L9.008,38.538L9.254,38.538L9.375,38.538L9.504,38.538L9.621,38.538L9.743,38.538L9.988,38.538L10.111,38.538L10.24,38.538L10.357,38.538L10.477,38.538L10.723,38.538L10.846,38.538L10.975,38.538L11.092,38.538L11.212,38.538L11.457,38.538L11.58,38.538L11.709,38.538L11.826,38.538L11.946,38.538L12.192,38.538L12.314,38.538L12.443,38.538L12.56,38.538L12.681,38.538L12.927,38.538L13.049,38.538L13.178,38.538L13.296,38.538L13.416,38.538L13.661,38.538L13.783,38.538L13.911,38.538L14.029,38.538L14.15,38.538L14.395,38.538L14.518,38.538L14.646,38.538L14.764,38.538L14.885,38.538L15.131,38.538L15.254,38.538L15.383,38.538L15.499,38.538L15.619,38.538L15.865,38.538L15.988,38.538L16.117,38.538L16.234,38.538L16.354,38.538L16.6,38.538L16.722,38.538L16.852,38.538L16.968,38.538L17.089,38.538L17.335,38.538L17.457,38.538L17.586,38.538L17.704,38.538L17.823,38.538L18.068,38.538L18.191,38.538L18.318,38.538L18.436,38.538L18.558,38.538L18.803,38.538L18.925,38.538L19.051,38.538L19.17,38.538L19.292,38.538L19.537,38.538L19.66,38.538L19.786,38.538L19.904,38.538L20.027,38.538L20.272,38.538L20.395,38.538L20.522,38.538L20.639,38.538L20.762,38.538L21.006,38.538L21.129,38.538L21.256,38.538L21.375,38.538L21.496,38.538L21.741,38.538L21.863,38.538L21.991,38.538L22.108,38.538L22.231,38.538L22.475,27L22.598,27L22.725,27L22.843,27L22.965,27L23.21,27L23.332,27L23.46,27L23.577,27L23.7,27L23.945,27L24.067,27L24.193,27L24.312,27L24.435,27L24.68,27L24.802,27L24.928,27L25.046,27L25.169,27L25.414,27L25.537,27L25.664,27L25.781,27L25.903,27L26.148,27L26.271,27L26.398,27L26.516,27L26.638,27L26.883,27L27.006,27L27.133,27L27.251,27L27.373,27L27.618,27L27.74,27L27.867,27L27.985,27L28.107,27L28.352,27L28.475,27L28.601,27L28.72,27L28.842,27L29.087,27L29.209,27L29.336,27L29.454,27L29.577,27L29.822,27L29.944,27L30.07,27L30.189,27L30.311,27L30.556,27L30.678,27L30.806,27L30.923,27L31.046,27L31.29,27L31.413,27L31.54,27L31.66,27L31.78,27L32.025,27L32.148,27L32.275,27L32.393,27L32.515,27L32.882,27L33.009,27L33.127,27L33.25,27L33.494,27L33.617,27L33.744,27L33.862,27L33.984,27L34.229,27L34.351,27L34.477,27L34.596,27L34.718,27L34.963,27L35.086,27L35.212,27L35.331,27L35.453,27L35.698,27L35.821,27L35.948,27L36.067,27L36.188,27L36.433,27L36.555,27L36.682,27L36.8,27L36.923,27L37.167,27L37.29,27L37.417,27L37.535,27L37.657,27L37.902,27L38.024,27L38.152,27L38.27,27L38.392,27L38.636,27L38.759,27L38.886,27L39.004,27L39.127,27L39.371,27L39.493,27L39.619,27L39.738,27L39.86,27L40.105,27L40.228,27L40.354,27L40.473,27L40.595,27L40.84,27L40.963,27L41.09,27L41.208,27L41.33,27L41.575,27L41.697,27L41.824,27L41.942,27L42.064,27L42.309,27L42.432,27L42.559,27L42.677,27L42.799,27L43.044,27L43.166,27L43.293,27L43.411,27L43.533,27L43.778,27L43.901,27L44.028,27L44.146,27L44.268,27L44.513,27L44.635,27L44.762,27L44.88,27L45.003,27L45.248,27L45.37,27L45.496,27L45.615,27L45.737,27L45.993,27L46.161,27L46.234,27L46.35,27L46.472,27L46.717,27L46.839,27L46.967,27L47.084,27L47.206,27L47.451,27L47.575,27L47.702,27L47.82,27L47.941,27L48.186,27L48.309,27L48.436,38.538L48.553,38.538L48.676,38.538L48.92,38.538L49.045,38.538L49.17,38.538L49.288,38.538L49.41,38.538L49.655,38.538L49.778,38.538L49.903,38.538L50.023,38.538L50.145,38.538L50.39,38.538L50.513,38.538L50.638,38.538L50.757,38.538L50.879,38.538L51.125,38.538L51.247,38.538L51.374,38.538L51.492,38.538L51.614,38.538L51.859,38.538L51.981,38.538L52.109,38.538L52.227,38.538L52.348,38.538L52.594,38.538L52.717,38.538L52.844,38.538L52.961,38.538L53.083,38.538L53.328,38.538L53.45,38.538L53.578,38.538L53.696,38.538L53.818,38.538L54.062,38.538L54.186,38.538L54.312,38.538L54.43,38.538L54.552,38.538L54.797,38.538L54.92,38.538L55.046,38.538L55.165,38.538L55.287,38.538L55.532,38.538L55.655,38.538L55.781,38.538L55.899,38.538L56.021,38.538L56.266,38.538L56.389,38.538L56.517,38.538L56.635,38.538L56.757,38.538L57.001,38.538L57.123,38.538L57.251,38.538L57.37,38.538L57.49,38.538L57.735,38.538L57.858,38.538L57.985,38.538L58.104,38.538L58.226,38.538L58.47,38.538L58.593,38.538L58.72,38.538L58.839,38.538L58.96,38.538L59.205,38.538L59.327,38.538L59.454,38.538L59.572,38.538L59.694,38.538L59.939,38.538L60.062,38.538L60.189,38.538L60.306,38.538L60.429,38.538L60.674,38.538L60.796,38.538L60.924,38.538L61.041,38.538L61.163,38.538L61.408,38.538L61.531,38.538L61.658,38.538L61.776,38.538L61.898,38.538L62.143,38.538L62.266,38.538L62.393,38.538L62.511,38.538L62.633,38.538L62.878,38.538L63.001,38.538L63.128,38.538L63.246,38.538L63.367,38.538L63.612,38.538L63.735,38.538L63.862,38.538L63.98,38.538L64.102,38.538L64.347,38.538L64.469,38.538L64.597,38.538L64.715,38.538L64.836,38.538L65.081,38.538L65.204,38.538L65.33,38.538L65.449,38.538L65.572,38.538L65.816,38.538L65.939,38.538L66.065,38.538L66.184,38.538L66.306,38.538L66.55,38.538L66.674,38.538L66.801,38.538L66.92,38.538L67.04,38.538L67.286,38.538L67.408,38.538L67.536,38.538L67.654,38.538L67.775,38.538L68.019,38.538L68.142,38.538L68.27,38.538L68.388,38.538L68.509,38.538L68.755,38.538L68.877,38.538L69.004,38.538L69.122,38.538L69.244,38.538L69.49,38.538L69.739,38.538L69.857,38.538L69.979,38.538L70.224,38.538L70.346,38.538L70.472,38.538L70.591,38.538L70.713,38.538L70.958,38.538L71.08,38.538L71.207,38.538L71.325,38.538L71.448,38.538L71.693,38.538L71.815,38.538L71.943,38.538L72.061,38.538L72.182,38.538L72.427,38.538L72.549,38.538L72.677,38.538L72.795,38.538L72.917,38.538L73.162,38.538L73.285,38.538L73.412,38.538L73.531,38.538L73.652,38.538L73.897,38.538L74.02,38.538L74.147,38.538L74.386,38.538L74.631,38.538L74.754,38.538L74.881,38.538L74.998,38.538L75.121,38.538L75.365,38.538L75.488,38.538L75.613,38.538L75.733,38.538L75.855,38.538L76.111,38.538L76.299,38.538L76.415,38.538L76.652,38.538L76.836,38.538L76.957,38.538L77.083,38.538L77.202,38.538L77.324,38.538L77.569,38.538L77.692,38.538L77.82,38.538L77.936,38.538L78.059,38.538L78.304,38.538L78.426,38.538L78.555,38.538L78.673,38.538L78.794,38.538L79.161,38.538L79.289,38.538L79.406,38.538L79.528,38.538L79.773,38.538L79.896,38.538L80.023,38.538L80.141,38.538L80.263,38.538L80.508,38.538L80.63,38.538L80.757,38.538L80.875,38.538L80.997,38.538L81.242,38.538L81.365,38.538L81.492,38.538L81.61,38.538L81.732,38.538L81.977,38.538L82.1,38.538L82.228,38.538L82.345,38.538L82.466,38.538L82.711,38.538L82.834,38.538L82.962,38.538L83.079,38.538L83.201,38.538L83.446,38.538L83.569,38.538L83.7,38.538L83.814,38.538L83.936,38.538L84.18,38.538L84.303,38.538L84.428,38.538L84.548,38.538L84.67,38.538L84.915,38.538L85.038,38.538L85.166,38.538L85.283,38.538L85.405,38.538L85.65,38.538L85.772,38.538L85.899,38.538L86.017,38.538L86.139,38.538L86.384,38.538L86.507,38.538L86.634,38.538L86.751,38.538L86.874,38.538L87.119,38.538L87.243,38.538L87.37,38.538L87.487,38.538L87.609,38.538L87.853,38.538L87.976,38.538L88.104,38.538L88.222,38.538L88.343,38.538L88.588,38.538L88.713,38.538L88.839,38.538L88.956,38.538L89.078,38.538L89.323,38.538L89.445,38.538L89.574,38.538L89.691,38.538L89.813,38.538L90.058,38.538L90.179,38.538L90.308,38.538L90.425,38.538L90.547,38.538L90.792,38.538L90.914,38.538L91.041,38.538L91.159,38.538L91.281,38.538L91.526,38.538L91.649,38.538L91.776,38.538L91.894,38.538L92.016,38.538L92.261,38.538L92.384,38.538L92.512,38.538L92.63,38.538L92.75,38.538L92.995,38.538L93.118,38.538L93.246,30.846L93.364,30.846L93.485,30.846L93.73,30.846L93.853,30.846L93.983,30.846L94.099,30.846L94.22,30.846L94.465,30.846L94.588,30.846L94.716,30.846L94.835,30.846L94.955,30.846L95.199,30.846L95.322,30.846L95.451,30.846L95.567,30.846L95.689,30.846L95.934,30.846L96.056,30.846L96.184,30.846L96.301,30.846L96.423,30.846L96.669,30.846L96.791,30.846L96.919,30.846L97.036,30.846L97.158,30.846L97.403,30.846L97.526,30.846L97.655,30.846L97.772,30.846L97.893,30.846L98.137,30.846L98.261,30.846L98.39,30.846L98.507,30.846L98.627,30.846L98.872,30.846L98.995,30.846L99.124,30.846L99.241,30.846L99.362,30.846L99.607,30.846L99.73,30.846L99.859,30.846L99.975,30.846L100.096,30.846L100.341,30.846L100.464,30.846L100.593,30.846L100.71,30.846L100.831,30.846L101.076,30.846L101.199,30.846L101.327,30.846L101.443,30.846L101.565,30.846L101.811,30.846L101.933,30.846L102.061,30.846L102.179,30.846L102.3,30.846L102.546,30.846L102.668,30.846L102.797,30.846L102.914,30.846L103.035,30.846L103.28,30.846L103.403,30.846L103.532,30.846L103.648,30.846L103.77,30.846L104.015,30.846L104.138,30.846L104.266,38.538L104.383,38.538L104.504,38.538L104.749,38.538L104.872,38.538L105,38.538L105.118,38.538L105.238,38.538L105.485,38.538L105.606,38.538L105.735,38.538L105.851,38.538L105.974,38.538L106.218,38.538L106.341,38.538L106.469,38.538L106.586,38.538L106.708,38.538L106.953,38.538L107.075,38.538L107.203,38.538L107.32,38.538L107.443,38.538L107.687,38.538L107.81,38.538L107.939,38.538L108.056,38.538L108.177,38.538L108.424,38.538L108.545,38.538L108.674,38.538L108.79,38.538L108.911,38.538L109.158,38.538L109.28,38.538L109.408,38.538L109.525,38.538L109.646,38.538L109.892,38.538L110.014,38.538L110.143,38.538L110.259,38.538L110.381,38.538L110.627,30.846L110.749,30.846L110.878,30.846L110.994,30.846L111.115,30.846L111.36,30.846L111.483,30.846L111.611,30.846L111.728,30.846L111.85,30.846L112.095,30.846L112.217,30.846L112.345,30.846L112.462,30.846L112.584,30.846L112.83,30.846L112.953,30.846L113.082,30.846L113.198,30.846L113.32,30.846L113.564,30.846L113.687,30.846L113.816,30.846L113.933,30.846L114.054,30.846L114.3,30.846L114.422,30.846L114.551,30.846L114.667,30.846L114.788,30.846L115.033,30.846L115.156,30.846L115.286,30.846L115.401,30.846L115.523,30.846L115.768,30.846L115.891,30.846L116.02,30.846L116.138,30.846L116.257,30.846L116.502,30.846L116.624,30.846L116.753,30.846L116.871,30.846L116.992,30.846L117.237,30.846L117.359,30.846L117.488,30.846L117.605,30.846L117.726,30.846L117.973,30.846L118.095,30.846L118.224,30.846L118.34,30.846L118.461,30.846L118.707,30.846L118.83,30.846L118.959,30.846L119.075,30.846L119.196,30.846L119.441,30.846L119.564,34.692L119.693,34.692L119.809,34.692L119.93,34.692L120.176,34.692L120.298,34.692L120.428,34.692L120.545,34.692L120.665,34.692L120.91,34.692L121.033,34.692L121.162,40.077L121.278,40.077L121.4,40.077L121.645,40.077L121.768,40.077L121.896,40.077L122.013,40.077L122.134,40.077L122.379,40.077L122.502,40.077L122.63,40.077L122.747,40.077L122.869,40.077L123.115,40.077L123.237,40.077L123.367,40.077L123.482,40.077L123.603,40.077L123.848,40.077L123.972,40.077L124.101,40.077L124.217,40.077L124.338,40.077L124.583,40.077L124.706,40.077L124.836,40.077L124.952,40.077L125.072,40.077L125.317,40.077L125.44,40.077L125.569,40.077L125.688,40.077L125.807,40.077L126.053,40.077L126.175,40.077L126.304,40.077L126.42,40.077L126.542,40.077L126.786,40.077L126.909,40.077L127.039,40.077L127.155,40.077L127.276,40.077L127.521,40.077L127.643,40.077L127.772,40.077L127.889,40.077L128.01,40.077L128.256,40.077L128.379,40.077L128.508,40.077L128.624,40.077L128.745,40.077L128.991,40.077L129.114,40.077L129.243,40.077L129.48,40.077L129.726,40.077L129.848,40.077L129.978,40.077L130.094,40.077L130.214,40.077L130.461,40.077L130.583,40.077L130.712,40.077L130.828,40.077L130.949,40.077L131.194,40.077L131.318,40.077L131.447,40.077L131.562,40.077L131.684,40.077L131.929,40.077L132.051,40.077L132.18,40.077L132.297,40.077L132.418,40.077L132.663,40.077L132.786,40.077L132.914,40.077L133.032,40.077L133.153,40.077L133.398,40.077L133.521,40.077L133.651,40.077L133.767,40.077L133.887,40.077L134.133,40.077L134.256,40.077L134.384,40.077L134.501,40.077L134.622,40.077L134.867,40.077L134.99,40.077L135.119,40.077L135.237,40.077L135.356,40.077L135.602,40.077L135.725,40.077L135.854,40.077L135.97,40.077L136.091,40.077L136.337,40.077L136.459,40.077L136.588,40.077L136.705,40.077L136.825,40.077L137.071,40.077L137.193,40.077L137.321,40.077L137.439,40.077L137.56,40.077L137.805,40.077L137.928,40.077L138.056,40.077L138.173,40.077L138.295,40.077L138.541,40.077L138.663,40.077L138.792,40.077L138.909,40.077L139.029,40.077L139.275,40.077L139.398,40.077L139.528,40.077L139.644,40.077L139.764,40.077L140.01,40.077L140.133,40.077L140.262,40.077L140.378,40.077L140.499,40.077L140.745,40.077L140.867,40.077L140.997,40.077L141.112,40.077L141.233,40.077L141.479,40.077L141.601,40.077L141.731,40.077L141.847,40.077L141.968,40.077L142.213,40.077L142.335,40.077L142.464,40.077L142.581,40.077L142.702,40.077L142.949,40.077L143.071,40.077L143.207,40.077L143.322,40.077L143.437,40.077L143.683,40.077L143.805,40.077L143.935,40.077L144.052,40.077L144.171,40.077L144.417,40.077L144.54,40.077L144.667,40.077L144.786,40.077L144.906,40.077L145.151,40.077L145.275,40.077L145.404,40.077L145.521,40.077L145.64,40.077L145.887,40.077L146.009,40.077L146.139,40.077L146.254,40.077L146.375,40.077L146.621,40.077L146.743,40.077L146.873,40.077L146.99,40.077L147.11,40.077L147.356,40.077L147.477,40.077L147.606,40.077L147.723,40.077L147.845,40.077L148.09,40.077L148.212,40.077L148.341,40.077L148.459,40.077L148.579,40.077L148.825,40.077L148.949,40.077L149.077,40.077L149.193,40.077L149.313,40.077L149.559,40.077L149.682,40.077L149.812,40.077L149.928,40.077L150.048,40.077L150.293,40.077L150.417,40.077L150.546,40.077L150.662,40.077L150.783,40.077L151.029,40.077L151.152,40.077L151.281,40.077L151.397,40.077L151.518,40.077L151.764,40.077L151.885,40.077L152.015,40.077L152.132,40.077L152.252,40.077L152.497,40.077L152.62,40.077L152.75,40.077L152.865,40.077L152.987,40.077L153.231,40.077L153.354,40.077L153.483,40.077L153.6,40.077L153.721,40.077L153.967,40.077L154.09,40.077L154.219,40.077L154.335,40.077L154.456,40.077L154.701,40.077L154.824,40.077L154.954,40.077L155.07,40.077L155.19,40.077L155.435,40.077L155.557,40.077L155.689,40.077L155.804,40.077L155.925,40.077L156.17,40.077L156.294,40.077L156.423,40.077L156.539,40.077L156.66,40.077L156.906,40.077L157.028,40.077L157.157,40.077L157.274,40.077L157.394,40.077L157.639,40.077L157.762,40.077L157.89,40.077L158.007,40.077L158.128,40.077L158.375,40.077L158.496,40.077L158.625,40.077L158.741,40.077L158.864,40.077L159.109,40.077L159.232,40.077L159.362,40.077L159.477,40.077L159.598,40.077L159.844,40.077L159.966,40.077L160.096,40.077L160.212,40.077L160.332,40.077L160.579,40.077L160.701,40.077L160.831,40.077L160.947,40.077L161.067,40.077L161.313,40.077L161.436,40.077L161.565,40.077L161.681,40.077L161.802,40.077L162.048,40.077L162.17,40.077L162.3,40.077L162.416,40.077L162.536,40.077L162.783,40.077L162.904,40.077L163.033,40.077L163.151,40.077L163.27,40.077L163.516,40.077L163.639,40.077L163.768,40.077L163.884,40.077L164.006,40.077L164.251,40.077L164.374,40.077L164.505,40.077L164.62,40.077L164.74,40.077L164.986,40.077L165.109,40.077L165.239,40.077L165.355,40.077L165.474,40.077L165.72,40.077L165.843,40.077L165.973,40.077L166.09,40.077L166.209,40.077L166.455,40.077L166.578,40.077L166.707,40.077L166.823,40.077L166.944,40.077L167.189,40.077L167.312,40.077L167.442,40.077L167.558,40.077L167.678,40.077L167.924,40.077L168.046,40.077L168.175,40.077L168.292,40.077L168.414,40.077L168.658,40.077L168.781,40.077L168.91,40.077L169.026,40.077L169.147,40.077L169.393,40.077L169.516,40.077L169.646,40.077L169.761,40.077L169.882,40.077L170.129,40.077L170.251,40.077L170.38,40.077L170.496,40.077L170.617,40.077L170.863,40.077L170.985,40.077L171.113,40.077L171.231,40.077L171.352,40.077L171.597,40.077L171.72,40.077L171.85,40.077L171.967,40.077L172.086,40.077L172.332,40.077L172.455,40.077L172.584,40.077L172.7,40.077L172.82,40.077L173.066,40.077L173.188,40.077L173.318,40.077L173.434,40.077L173.555,40.077L173.801,40.077L173.923,40.077L174.052,40.077L174.168,40.077L174.29,40.077L174.537,40.077L174.659,40.077L174.789,40.077L174.904,40.077L175.024,40.077L175.271,40.077L175.393,40.077L175.523,40.077L175.638,40.077L175.759,40.077L176.005,40.077L176.128,40.077L176.258,40.077L176.374,40.077L176.493,40.077L176.74,40.077L176.862,40.077L176.992,40.077L177.108,40.077L177.228,40.077L177.475,40.077L177.597,40.077L177.727,40.077L177.842,40.077L177.963,40.077L178.209,40.077L178.331,40.077L178.46,40.077L178.577,40.077L178.697,40.077L178.944,40.077L179.065,40.077L179.196,40.077L179.311,40.077L179.432,40.077L179.678,40.077L179.801,40.077L179.931,40.077L180.047,40.077L180.167,40.077L180.412,40.077L180.536,40.077L180.666,40.077L180.781,40.077L180.901,40.077L181.147,40.077L181.27,40.077L181.401,40.077L181.515,40.077L181.636,40.077L181.882,40.077L182.005,40.077L182.135,40.077L182.25,40.077L182.37,40.077L182.616,40.077L182.739,40.077L182.869,40.077L182.986,40.077L183.105,40.077L183.351,40.077L183.473,40.077L183.602,40.077L183.718,40.077L183.839,40.077L184.085,40.077L184.207,40.077L184.337,40.077L184.454,40.077L184.574,40.077L184.82,40.077L184.944,40.077L185.074,40.077L185.188,40.077L185.309,40.077L185.555,40.077L185.678,40.077L185.809,40.077L185.923,40.077L186.043,40.077L186.29,40.077L186.413,40.077L186.543,40.077L186.658,40.077L186.777,40.077L187.024,40.077L187.147,40.077L187.277,40.077L187.393,40.077L187.513,40.077L187.759,40.077L187.881,40.077L188.011,40.077L188.127,40.077L188.247,40.077L188.493,40.077L188.616,40.077L188.745,40.077L188.861,40.077L188.981,40.077L189.228,40.077L189.35,40.077L189.48,40.077L189.596,40.077L189.716,40.077L189.963,40.077L190.086,40.077L190.216,40.077L190.332,40.077L190.451,40.077L190.695,40.077L190.82,40.077L190.95,40.077L191.065,40.077L191.185,40.077L191.432,40.077L191.555,40.077L191.685,40.077L191.8,40.077L191.92,40.077L192.167,40.077L192.289,40.077L192.42,40.077L192.535,40.077L192.654,40.077L192.901,40.077L193.024,40.077L193.154,40.077L193.269,40.077L193.389,40.077L193.635,40.077L193.757,40.077L193.887,40.077L194.003,40.077L194.123,40.077L194.371,40.077L194.492,40.077L194.622,40.077L194.737,40.077L194.858,40.077L195.105,40.077L195.229,40.077L195.358,40.077L195.473,40.077L195.593,40.077L195.839,40.077L195.963,40.077L196.093,40.077L196.208,40.077L196.328,40.077L196.574,40.077L196.698,40.077L196.828,40.077L196.944,40.077L197.062,40.077L197.309,40.077L197.432,40.077L197.563,40.077L197.677,40.077L197.797,40.077L198.043,40.077L198.166,40.077L198.297,40.077L198.412,40.077L198.777,40.077L198.9,40.077L199.03,40.077L199.145,40.077L199.265,40.077L199.512,40.077L199.635,40.077L199.764,40.077L199.88,40.077L200,40.077" stroke="#f58518" stroke-width="2"/></g></g><path class="foreground" aria-hidden="true" d="" display="none"/></g></g><g class="mark-group role-legend" role="graphics-symbol" aria-roledescription="legend" aria-label="Symbol legend titled 'identifier' for stroke color with 2 values: altex-LG-F2WR508SBW, altex-LG-F2WR508SBM"><g transform="translate(220,0)"><path class="background" aria-hidden="true" d="M0,0h168v40h-168Z" pointer-events="none"/><g><g class="mark-group role-legend-entry"><g transform="translate(0,16)"><path class="background" aria-hidden="true" d="M0,0h0v0h0Z" pointer-events="none"/><g><g class="mark-group role-scope" role="graphics-object" aria-roledescription="group mark container"><g transform="translate(0,0)"><path class="background" aria-hidden="true" d="M0,0h168v11h-168Z" pointer-events="none" opacity="1"/><g><g class="mark-symbol role-legend-symbol" pointer-events="none"><path transform="translate(6,6)" d="M-5,0L5,0" stroke="#4c78a8" stroke-width="1.5" opacity="1"/></g><g class="mark-text role-legend-label" pointer-events="none"><text text-anchor="start" transform="translate(16,9)" font-family="Liberation Mono" font-size="10px" fill="#000" opacity="1">altex-LG-F2WR508SBW</text></g></g><path class="foreground" aria-hidden="true" d="" pointer-events="none" display="none"/></g><g transform="translate(0,13)"><path class="background" aria-hidden="true" d="M0,0h168v11h-168Z" pointer-events="none" opacity="1"/><g><g class="mark-symbol role-legend-symbol" pointer-events="none"><path transform="translate(6,6)" d="M-5,0L5,0" stroke="#f58518" stroke-width="1.5" opacity="1"/></g><g class="mark-text role-legend-label" pointer-events="none"><text text-anchor="start" transform="translate(16,9)" font-family="Liberation Mono" font-size="10px" fill="#000" opacity="1">altex-LG-F2WR508SBM</text></g></g><path class="foreground" aria-hidden="true" d="" pointer-events="none" display="none"/></g></g></g><path class="foreground" aria-hidden="true" d="" pointer-events="none" display="none"/></g></g><g class="mark-text role-legend-title" pointer-events="none"><text text-anchor="start" transform="translate(0,9)" font-family="Liberation Mono" font-size="11px" font-weight="bold" fill="#000" opacity="1">identifier</text></g></g><path class="foreground" aria-hidden="true" d="" pointer-events="none" display="none"/></g></g></g><path class="foreground" aria-hidden="true" d="" display="none"/></g></g></g></svg>