<svg xmlns="http://www.w3.org/2000/svg" xmlns:xlink="http://www.w3.org/1999/xlink" version="1.1" class="marks" width="460" height="242" viewBox="0 0 460 242"><rect width="460" height="242" fill="white"/><g fill="none" stroke-miterlimit="10" transform="translate(67,5)"><g class="mark-group role-frame root" role="graphics-object" aria-roledescription="group mark container"><g transform="translate(0,0)"><path class="background" aria-hidden="true" d="M0.5,0.5h200v200h-200Z" stroke="#ddd"/><g><g class="mark-group role-axis" aria-hidden="true"><g transform="translate(0.5,200.5)"><path class="background" aria-hidden="true" d="M0,0h0v0h0Z" pointer-events="none"/><g><g class="mark-rule role-axis-grid" pointer-events="none"><line transform="translate(49,-200)" x2="0" y2="200" stroke="#ddd" stroke-width="1" opacity="1"/><line transform="translate(97,-200)" x2="0" y2="200" stroke="#ddd" stroke-width="1" opacity="1"/><line transform="translate(147,-200)" x2="0" y2="200" stroke="#ddd" stroke-width="1" opacity="1"/><line transform="translate(196,-200)" x2="0" y2="200" stroke="#ddd" stroke-width="1" opacity="1"/></g></g><path class="foreground" aria-hidden="true" d="" pointer-events="none" display="none"/></g></g><g class="mark-group role-axis" aria-hidden="true"><g transform="translate(0.5,0.5)"><path class="background" aria-hidden="true" d="M0,0h0v0h0Z" pointer-events="none"/><g><g class="mark-rule role-axis-grid" pointer-events="none"><line transform="translate(0,200)" x2="200" y2="0" stroke="#ddd" stroke-width="1" opacity="1"/><line transform="translate(0,162)" x2="200" y2="0" stroke="#ddd" stroke-width="1" opacity="1"/><line transform="translate(0,123)" x2="200" y2="0" stroke="#ddd" stroke-width="1" opacity="1"/><line transform="translate(0,85)" x2="200" y2="0" stroke="#ddd" stroke-width="1" opacity="1"/><line transform="translate(0,46)" x2="200" y2="0" stroke="#ddd" stroke-width="1" opacity="1"/><line transform="translate(0,8)" x2="200" y2="0" stroke="#ddd" stroke-width="1" opacity="1"/></g></g><path class="foreground" aria-hidden="true" d="" pointer-events="none" display="none"/></g></g><g class="mark-group role-axis" role="graphics-symbol" aria-roledescription="axis" aria-label="X-axis titled 'Time' for a time scale with values from Monday, 01 January 2024, 2:19:43 PM to Friday, 03 May 2024, 4:40:11 PM"><g transform="translate(0.5,200.5)"><path class="background" aria-hidden="true" d="M0,0h0v0h0Z" pointer-events="none"/><g><g class="mark-rule role-axis-tick" pointer-events="none"><line transform="translate(49,0)" x2="0" y2="5" stroke="#888" stroke-width="1" opacity="1"/><line transform="translate(97,0)" x2="0" y2="5" stroke="#888" stroke-width="1" opacity="1"/><line transform="translate(147,0)" x2="0" y2="5" stroke="#888" stroke-width="1" opacity="1"/><line transform="translate(196,0)" x2="0" y2="5" stroke="#888" stroke-width="1" opacity="1"/></g><g class="mark-text role-axis-label" pointer-events="none"><text text-anchor="middle" transform="translate(49.39655433559471,15)" font-family="Liberation Mono" font-size="10px" fill="#000" opacity="1">February</text><text text-anchor="middle" transform="translate(96.51365925661459,15)" font-family="Liberation Mono" font-size="10px" fill="#000" opacity="0">March</text><text text-anchor="middle" transform="translate(146.88021968942894,15)" font-family="Liberation Mono" font-size="10px" fill="#000" opacity="0">April</text><text text-anchor="middle" transform="translate(195.62205236634605,15)" font-family="Liberation Mono" font-size="10px" fill="#000" opacity="1">May</text></g><g class="mark-rule role-axis-domain" pointer-events="none"><line transform="translate(0,0)" x2="200" y2="0" stroke="#888" stroke-width="1" opacity="1"/></g><g class="mark-text role-axis-title" pointer-events="none"><text text-anchor="middle" transform="translate(100,30)" font-family="Liberation Mono" font-size="11px" font-weight="bold" fill="#000" opacity="1">Time</text></g></g><path class="foreground" aria-hidden="true" d="" pointer-events="none" display="none"/></g></g><g class="mark-group role-axis" role="graphics-symbol" aria-roledescription="axis" aria-label="Y-axis titled 'Price' for a linear scale with values from 0 to 2,600"><g transform="translate(0.5,0.5)"><path class="background" aria-hidden="true" d="M0,0h0v0h0Z" pointer-events="none"/><g><g class="mark-rule role-axis-tick" pointer-events="none"><line transform="translate(0,200)" x2="-5" y2="0" stroke="#888" stroke-width="1" opacity="1"/><line transform="translate(0,162)" x2="-5" y2="0" stroke="#888" stroke-width="1" opacity="1"/><line transform="translate(0,123)" x2="-5" y2="0" stroke="#888" stroke-width="1" opacity="1"/><line transform="translate(0,85)" x2="-5" y2="0" stroke="#888" stroke-width="1" opacity="1"/><line transform="translate(0,46)" x2="-5" y2="0" stroke="#888" stroke-width="1" opacity="1"/><line transform="translate(0,8)" x2="-5" y2="0" stroke="#888" stroke-width="1" opacity="1"/></g><g class="mark-text role-axis-label" pointer-events="none"><text text-anchor="end" transform="translate(-7,203)" font-family="Liberation Mono" font-size="10px" fill="#000" opacity="1">0</text><text text-anchor="end" transform="translate(-7,164.53846153846155)" font-family="Liberation Mono" font-size="10px" fill="#000" opacity="1">500</text><text text-anchor="end" transform="translate(-7,126.07692307692308)" font-family="Liberation Mono" font-size="10px" fill="#000" opacity="1">1,000</text><text text-anchor="end" transform="translate(-7,87.61538461538463)" font-family="Liberation Mono" font-size="10px" fill="#000" opacity="1">1,500</text><text text-anchor="end" transform="translate(-7,49.153846153846146)" font-family="Liberation Mono" font-size="10px" fill="#000" opacity="1">2,000</text><text text-anchor="end" transform="translate(-7,10.692307692307686)" font-family="Liberation Mono" font-size="10px" fill="#000" opacity="1">2,500</text></g><g class="mark-rule role-axis-domain" pointer-events="none"><line transform="translate(0,200)" x2="0" y2="-200" stroke="#888" stroke-width="1" opacity="1"/></g><g class="mark-text role-axis-title" pointer-events="none"><text text-anchor="middle" transform="translate(-51,100) rotate(-90) translate(0,-2)" font-family="Liberation Mono" font-size="11px" font-weight="bold" fill="#000" opacity="1">Price</text></g></g><path class="foreground" aria-hidden="true" d="" pointer-events="none" display="none"/></g></g><g class="mark-group role-scope pathgroup" role="graphics-object" aria-roledescription="group mark container"><g transform="translate(0,0)"><path class="background" aria-hidden="true" d="M0,0h200v200h-200Z"/><g><g class="mark-line role-mark marks" role="graphics-object" aria-roledescription="line mark container"><path aria-label="Time: Jan 01, 2024; Price: 2399; identifier: altex-LG-F2WR508SBW" role="graphics-symbol" aria-roledescription="line mark" d="M0,15.462L0.17,15.462L0.427,15.462L0.969,15.462L1.24,15.462L1.525,15.462L1.783,15.462L2.052,15.462L2.594,15.462L2.865,15.462L3.15,15.462L3.409,15.462L3.676,15.462L4.219,15.462L4.49,15.462L4.774,15.462L5.035,15.462L5.302,15.462L5.844,34.692L6.115,34.692L6.399,34.692L6.659,34.692L6.926,34.692L7.468,34.692L7.739,34.692L8.022,34.692L8.282,34.692L8.551,34.692L9.094,34.692L9.363,34.692L9.647,34.692L9.907,34.692L10.176,34.692L10.719,34.692L10.99,34.692L11.275,34.692L11.534,34.692L11.8,34.692L12.344,34.692L12.614,34.692L12.903,34.692L13.159,34.692L13.425,34.692L13.968,34.692L14.239,34.692L14.524,34.692L14.783,34.692L15.05,34.692L15.593,34.692L15.864,34.692L16.149,34.692L16.409,34.692L16.675,34.692L17.217,34.692L17.488,34.692L17.773,34.692L18.033,34.692L18.299,34.692L18.841,46.231L19.112,46.231L19.395,46.231L19.656,46.231L19.924,46.231L20.467,46.231L20.736,46.231L21.02,46.231L21.28,46.231L21.549,46.231L22.092,46.231L22.363,46.231L22.649,46.231L22.908,46.231L23.173,46.231L23.716,46.231L23.988,46.231L24.273,46.231L24.533,46.231L24.798,46.231L25.341,46.231L25.613,46.231L25.898,46.231L26.157,46.231L26.423,46.231L26.965,46.231L27.236,46.231L27.522,46.231L27.781,46.231L28.048,46.231L28.591,46.231L28.862,46.231L29.147,46.231L29.407,46.231L29.672,46.231L30.215,46.231L30.484,46.231L30.769,46.231L31.03,46.231L31.297,46.231L31.839,46.231L32.109,46.231L32.393,46.231L32.654,46.231L32.922,46.231L33.466,46.231L33.737,46.231L34.023,46.231L34.28,46.231L34.547,46.231L35.09,46.231L35.362,46.231L35.647,46.231L35.906,46.231L36.171,46.231L36.715,46.231L36.986,46.231L37.272,46.231L37.53,46.231L37.796,46.231L38.34,46.231L38.61,46.231L38.896,46.231L39.156,46.231L39.421,46.231L39.963,46.231L40.235,46.231L40.515,46.231L40.775,46.231L41.046,46.231L41.587,46.231L41.858,46.231L42.136,46.231L42.399,46.231L42.67,46.231L43.212,46.231L43.483,46.231L43.762,46.231L44.024,46.231L44.295,46.231L44.836,46.231L45.108,46.231L45.389,46.231L45.649,46.231L45.92,46.231L46.461,46.231L46.732,46.231L47.013,46.231L47.277,46.231L47.544,46.231L48.086,46.231L48.357,46.231L48.639,46.231L48.898,46.231L49.169,46.231L49.71,34.692L49.982,34.692L50.263,34.692L50.523,34.692L50.793,34.692L51.336,34.692L51.606,34.692L51.888,34.692L52.147,34.692L52.418,34.692L52.96,34.692L53.231,34.692L53.51,34.692L53.772,34.692L54.044,34.692L54.586,34.692L54.856,34.692L55.135,34.692L55.397,34.692L55.668,34.692L56.209,34.692L56.481,34.692L56.763,34.692L57.022,34.692L57.292,34.692L57.834,34.692L58.105,34.692L58.387,34.692L58.647,34.692L58.917,34.692L59.459,34.692L59.73,34.692L60.011,34.692L60.273,34.692L60.542,34.692L61.084,34.692L61.355,34.692L61.636,34.692L61.897,34.692L62.167,34.692L62.709,34.692L62.98,34.692L63.26,34.692L63.521,34.692L63.792,34.692L64.333,34.692L64.604,34.692L64.884,34.692L65.145,34.692L65.416,34.692L65.959,34.692L66.229,34.692L66.508,34.692L66.77,34.692L67.041,34.692L67.583,34.692L67.853,34.692L68.136,34.692L68.396,34.692L68.666,34.692L69.207,34.692L69.478,34.692L69.759,34.692L70.024,34.692L70.291,34.692L70.832,34.692L71.103,34.692L71.385,34.692L71.645,34.692L71.915,34.692L72.728,34.692L73.009,34.692L73.27,34.692L73.54,34.692L74.082,34.692L74.353,34.692L74.634,34.692L74.895,34.692L75.165,34.692L75.707,34.692L75.977,34.692L76.256,34.692L76.519,34.692L76.789,34.692L77.331,34.692L77.603,34.692L77.881,34.692L78.144,34.692L78.414,34.692L78.956,34.692L79.228,34.692L79.509,34.692L79.771,34.692L80.039,34.692L80.581,34.692L80.851,34.692L81.132,34.692L81.394,34.692L81.664,34.692L82.205,34.692L82.476,34.692L82.758,34.692L83.019,34.692L83.289,34.692L83.83,34.692L84.1,34.692L84.382,34.692L84.643,34.692L84.913,34.692L85.455,34.692L85.725,34.692L86.006,34.692L86.267,34.692L86.539,34.692L87.079,34.692L87.35,34.692L87.629,34.692L87.892,34.692L88.162,34.692L88.704,34.692L88.975,34.692L89.254,34.692L89.518,34.692L89.787,34.692L90.329,34.692L90.6,34.692L90.882,34.692L91.142,34.692L91.412,34.692L91.953,34.692L92.225,34.692L92.505,34.692L92.767,34.692L93.037,34.692L93.578,34.692L93.849,34.692L94.13,34.692L94.392,34.692L94.662,34.692L95.203,34.692L95.474,34.692L95.754,34.692L96.015,34.692L96.286,34.692L96.827,34.692L97.099,34.692L97.38,34.692L97.641,34.692L97.911,34.692L98.453,34.692L98.723,34.692L99.004,34.692L99.265,34.692L99.536,34.692L100.077,34.692L100.348,34.692L100.627,34.692L100.889,34.692L101.16,34.692L101.727,34.692L102.097,34.692L102.258,34.692L102.516,34.692L102.785,34.692L103.326,34.692L103.597,34.692L103.88,34.692L104.139,34.692L104.41,34.692L104.951,34.692L105.224,34.692L105.505,34.692L105.766,34.692L106.034,34.692L106.576,34.692L106.847,34.692L107.128,34.692L107.389,34.692L107.66,34.692L108.201,34.692L108.476,34.692L108.753,34.692L109.013,34.692L109.284,34.692L109.826,34.692L110.097,34.692L110.375,34.692L110.639,34.692L110.908,34.692L111.45,34.692L111.723,34.692L112,34.692L112.263,34.692L112.533,34.692L113.076,34.692L113.346,34.692L113.628,34.692L113.889,34.692L114.158,34.692L114.7,34.692L114.97,34.692L115.253,34.692L115.514,34.692L115.783,34.692L116.325,34.692L116.597,34.692L116.878,34.692L117.137,34.692L117.407,34.692L117.949,34.692L118.22,34.692L118.503,34.692L118.763,34.692L119.032,34.692L119.574,34.692L119.846,34.692L120.126,34.692L120.387,34.692L120.657,34.692L121.199,34.692L121.471,34.692L121.75,34.692L122.011,34.692L122.283,34.692L122.823,34.692L123.096,34.692L123.374,34.692L123.635,34.692L123.907,34.692L124.448,34.692L124.719,34.692L125.003,34.692L125.263,34.692L125.533,34.692L126.074,34.692L126.344,34.692L126.625,34.692L126.888,34.692L127.156,34.692L127.697,34.692L127.969,34.692L128.25,34.692L128.513,34.692L128.782,34.692L129.322,34.692L129.594,34.692L129.876,34.692L130.138,34.692L130.406,34.692L130.947,34.692L131.218,34.692L131.5,34.692L131.76,34.692L132.03,34.692L132.572,34.692L132.842,34.692L133.124,34.692L133.384,34.692L133.655,34.692L134.197,34.692L134.467,34.692L134.75,34.692L135.009,34.692L135.279,34.692L135.821,34.692L136.092,34.692L136.374,34.692L136.635,34.692L136.904,34.692L137.446,34.692L137.719,34.692L137.999,34.692L138.261,34.692L138.529,34.692L139.073,34.692L139.343,34.692L139.625,34.692L139.887,34.692L140.154,34.692L140.695,34.692L140.966,34.692L141.249,34.692L141.509,34.692L141.778,34.692L142.321,34.692L142.591,34.692L142.874,34.692L143.134,34.692L143.403,34.692L143.945,34.692L144.215,34.692L144.495,34.692L144.758,34.692L145.029,34.692L145.57,34.692L145.842,34.692L146.121,34.692L146.383,34.692L146.653,34.692L147.194,34.692L147.467,34.692L147.749,34.692L148.011,34.692L148.277,34.692L148.82,34.692L149.091,34.692L149.374,34.692L149.634,34.692L149.902,34.692L150.443,34.692L150.715,34.692L150.997,34.692L151.259,34.692L151.527,34.692L152.069,34.692L152.34,34.692L152.622,34.692L152.882,34.692L153.152,34.692L153.696,34.692L154.246,34.692L154.507,34.692L154.777,34.692L155.319,34.692L155.589,34.692L155.868,34.692L156.13,34.692L156.401,34.692L156.942,34.692L157.213,34.692L157.494,34.692L157.755,34.692L158.026,34.692L158.568,34.692L158.838,34.692L159.121,34.692L159.382,34.692L159.651,34.692L160.192,34.692L160.463,34.692L160.746,34.692L161.006,34.692L161.275,34.692L161.817,34.692L162.089,34.692L162.371,34.692L162.633,34.692L162.902,34.692L163.443,34.692L163.715,34.692L163.996,34.692L164.526,34.692L165.067,34.692L165.339,34.692L165.62,34.692L165.879,34.692L166.15,34.692L166.691,34.692L166.961,34.692L167.238,34.692L167.503,34.692L167.774,34.692L168.341,34.692L168.757,34.692L169.011,34.692L169.537,34.692L169.945,34.692L170.211,34.692L170.49,34.692L170.753,34.692L171.024,34.692L171.566,34.692L171.836,34.692L172.12,34.692L172.377,34.692L172.648,34.692L173.19,34.692L173.461,34.692L173.744,34.692L174.006,34.692L174.274,34.692L175.086,34.692L175.368,34.692L175.628,34.692L175.898,34.692L176.439,34.692L176.71,34.692L176.993,34.692L177.254,34.692L177.522,34.692L178.064,34.692L178.335,34.692L178.616,34.692L178.877,34.692L179.147,34.692L179.69,34.692L179.96,34.692L180.241,34.692L180.502,34.692L180.772,34.692L181.313,34.692L181.586,34.692L181.869,34.692L182.128,34.692L182.397,34.692L182.938,34.692L183.209,34.692L183.494,34.692L183.753,34.692L184.022,34.692L184.563,34.692L184.836,34.692L185.126,34.692L185.377,34.692L185.647,34.692L186.188,34.692L186.46,34.692L186.735,34.692L187.001,34.692L187.272,34.692L187.812,34.692L188.084,34.692L188.367,34.692L188.627,34.692L188.897,34.692L189.437,34.692L189.708,34.692L189.988,34.692L190.249,34.692L190.52,34.692L191.062,34.692L191.333,34.692L191.615,34.692L191.874,34.692L192.145,34.692L192.686,34.692L192.961,34.692L193.242,34.692L193.5,34.692L193.77,34.692L194.311,34.692L194.584,34.692L194.867,34.692L195.126,34.692L195.395,34.692L195.936,34.692L196.212,34.692L196.492,34.692L196.75,34.692L197.019,34.692L197.562,57.769L197.832,57.769L198.117,57.769L198.375,57.769L198.645,57.769L199.187,57.769L199.456,57.769L199.74,57.769L200,57.769" stroke="#4c78a8" stroke-width="2"/></g></g><path class="foreground" aria-hidden="true" d="" display="none"/></g><g transform="translate(0,0)"><path class="background" aria-hidden="true" d="M0,0h200v200h-200Z"/><g><g class="mark-line role-mark marks" role="graphics-object" aria-roledescription="line mark container"><path aria-label="Time: Jan 01, 2024; Price: 2499; identifier: altex-LG-F2WR508SBM" role="graphics-symbol" aria-roledescription="line mark" d="M0,7.769L0.17,7.769L0.427,7.769L0.969,7.769L1.24,7.769L1.525,7.769L1.783,7.769L2.052,7.769L2.594,7.769L2.865,7.769L3.15,7.769L3.409,7.769L3.676,7.769L4.219,7.769L4.49,7.769L4.774,7.769L5.035,7.769L5.302,7.769L5.844,27L6.115,27L6.399,27L6.659,27L6.926,27L7.468,27L7.739,27L8.022,27L8.282,27L8.551,27L9.094,27L9.363,27L9.647,27L9.907,27L10.176,27L10.719,27L10.99,27L11.275,27L11.534,27L11.8,27L12.344,27L12.614,27L12.903,27L13.159,27L13.425,27L13.968,27L14.239,27L14.524,27L14.783,27L15.05,27L15.593,27L15.864,27L16.15,27L16.409,27L16.675,27L17.217,27L17.489,27L17.773,27L18.033,27L18.299,27L18.841,38.538L19.112,38.538L19.395,38.538L19.656,38.538L19.924,38.538L20.467,38.538L20.736,38.538L21.02,38.538L21.28,38.538L21.549,38.538L22.092,38.538L22.363,38.538L22.649,38.538L22.908,38.538L23.173,38.538L23.716,38.538L23.988,38.538L24.273,38.538L24.533,38.538L24.798,38.538L25.341,38.538L25.613,38.538L25.898,38.538L26.157,38.538L26.423,38.538L26.965,38.538L27.237,38.538L27.522,38.538L27.781,38.538L28.048,38.538L28.591,38.538L28.862,38.538L29.147,38.538L29.407,38.538L29.672,38.538L30.215,38.538L30.484,38.538L30.769,38.538L31.03,38.538L31.297,38.538L31.839,38.538L32.11,38.538L32.393,38.538L32.654,38.538L32.922,38.538L33.466,38.538L33.737,38.538L34.023,38.538L34.28,38.538L34.547,38.538L35.09,38.538L35.362,38.538L35.647,38.538L35.906,38.538L36.171,38.538L36.715,38.538L36.986,38.538L37.272,38.538L37.53,38.538L37.796,38.538L38.34,38.538L38.61,38.538L38.897,38.538L39.156,38.538L39.421,38.538L39.963,38.538L40.235,38.538L40.515,38.538L40.775,38.538L41.046,38.538L41.587,38.538L41.858,38.538L42.137,38.538L42.399,38.538L42.67,38.538L43.212,38.538L43.483,38.538L43.762,38.538L44.024,38.538L44.295,38.538L44.837,38.538L45.108,38.538L45.389,38.538L45.649,38.538L45.92,38.538L46.461,38.538L46.732,38.538L47.013,38.538L47.277,38.538L47.544,38.538L48.086,38.538L48.357,38.538L48.639,38.538L48.898,38.538L49.169,38.538L49.711,27L49.982,27L50.264,27L50.523,27L50.794,27L51.336,27L51.606,27L51.888,27L52.147,27L52.419,27L52.96,27L53.231,27L53.51,27L53.772,27L54.044,27L54.586,27L54.856,27L55.135,27L55.397,27L55.668,27L56.21,27L56.481,27L56.763,27L57.022,27L57.293,27L57.834,27L58.105,27L58.387,27L58.647,27L58.917,27L59.459,27L59.73,27L60.011,27L60.273,27L60.542,27L61.084,27L61.355,27L61.636,27L61.897,27L62.167,27L62.709,27L62.98,27L63.26,27L63.521,27L63.792,27L64.333,27L64.604,27L64.884,27L65.145,27L65.417,27L65.959,27L66.229,27L66.508,27L66.77,27L67.041,27L67.583,27L67.853,27L68.137,27L68.396,27L68.666,27L69.207,27L69.478,27L69.759,27L70.024,27L70.291,27L70.832,27L71.103,27L71.385,27L71.645,27L71.915,27L72.728,27L73.009,27L73.27,27L73.54,27L74.082,27L74.353,27L74.634,27L74.896,27L75.165,27L75.707,27L75.977,27L76.256,27L76.519,27L76.789,27L77.331,27L77.603,27L77.881,27L78.144,27L78.414,27L78.956,27L79.228,27L79.51,27L79.771,27L80.039,27L80.581,27L80.852,27L81.132,27L81.394,27L81.664,27L82.205,27L82.476,27L82.758,27L83.019,27L83.289,27L83.83,27L84.101,27L84.383,27L84.643,27L84.913,27L85.455,27L85.725,27L86.006,27L86.267,27L86.539,27L87.079,27L87.35,27L87.629,27L87.892,27L88.162,27L88.704,27L88.975,27L89.254,27L89.518,27L89.787,27L90.329,27L90.601,27L90.882,27L91.142,27L91.412,27L91.954,27L92.225,27L92.506,27L92.767,27L93.037,27L93.578,27L93.849,27L94.13,27L94.392,27L94.662,27L95.203,27L95.474,27L95.754,27L96.015,27L96.286,27L96.828,27L97.1,27L97.38,27L97.641,27L97.911,27L98.453,27L98.723,27L99.004,27L99.265,27L99.536,27L100.077,27L100.348,27L100.627,27L100.889,27L101.161,27L101.727,27L102.097,27L102.258,27L102.516,27L102.785,27L103.326,27L103.597,27L103.88,27L104.139,27L104.41,27L104.951,27L105.224,27L105.505,27L105.766,27L106.034,27L106.576,27L106.848,27L107.128,38.538L107.389,38.538L107.66,38.538L108.201,38.538L108.476,38.538L108.753,38.538L109.013,38.538L109.284,38.538L109.826,38.538L110.097,38.538L110.375,38.538L110.639,38.538L110.908,38.538L111.45,38.538L111.723,38.538L112,38.538L112.263,38.538L112.533,38.538L113.076,38.538L113.346,38.538L113.628,38.538L113.889,38.538L114.158,38.538L114.7,38.538L114.97,38.538L115.253,38.538L115.515,38.538L115.783,38.538L116.325,38.538L116.597,38.538L116.878,38.538L117.137,38.538L117.407,38.538L117.949,38.538L118.22,38.538L118.503,38.538L118.763,38.538L119.032,38.538L119.574,38.538L119.847,38.538L120.126,38.538L120.387,38.538L120.657,38.538L121.199,38.538L121.471,38.538L121.75,38.538L122.011,38.538L122.283,38.538L122.823,38.538L123.096,38.538L123.374,38.538L123.636,38.538L123.907,38.538L124.448,38.538L124.719,38.538L125.003,38.538L125.263,38.538L125.533,38.538L126.074,38.538L126.344,38.538L126.625,38.538L126.889,38.538L127.156,38.538L127.698,38.538L127.969,38.538L128.25,38.538L128.513,38.538L128.782,38.538L129.322,38.538L129.594,38.538L129.876,38.538L130.139,38.538L130.406,38.538L130.947,38.538L131.218,38.538L131.5,38.538L131.76,38.538L132.031,38.538L132.572,38.538L132.842,38.538L133.124,38.538L133.384,38.538L133.655,38.538L134.197,38.538L134.467,38.538L134.75,38.538L135.009,38.538L135.279,38.538L135.821,38.538L136.092,38.538L136.374,38.538L136.635,38.538L136.904,38.538L137.446,38.538L137.719,38.538L137.999,38.538L138.261,38.538L138.529,38.538L139.073,38.538L139.343,38.538L139.625,38.538L139.887,38.538L140.154,38.538L140.695,38.538L140.966,38.538L141.249,38.538L141.509,38.538L141.778,38.538L142.321,38.538L142.591,38.538L142.874,38.538L143.134,38.538L143.403,38.538L143.945,38.538L144.215,38.538L144.495,38.538L144.758,38.538L145.029,38.538L145.57,38.538L145.842,38.538L146.121,38.538L146.383,38.538L146.653,38.538L147.194,38.538L147.467,38.538L147.749,38.538L148.011,38.538L148.277,38.538L148.82,38.538L149.091,38.538L149.374,38.538L149.634,38.538L149.902,38.538L150.444,38.538L150.715,38.538L150.997,38.538L151.259,38.538L151.527,38.538L152.069,38.538L152.34,38.538L152.622,38.538L152.882,38.538L153.152,38.538L153.696,38.538L154.246,38.538L154.507,38.538L154.777,38.538L155.319,38.538L155.59,38.538L155.868,38.538L156.13,38.538L156.401,38.538L156.942,38.538L157.213,38.538L157.494,38.538L157.755,38.538L158.026,38.538L158.568,38.538L158.838,38.538L159.121,38.538L159.382,38.538L159.651,38.538L160.192,38.538L160.463,38.538L160.746,38.538L161.006,38.538L161.275,38.538L161.817,38.538L162.089,38.538L162.371,38.538L162.633,38.538L162.902,38.538L163.443,38.538L163.715,38.538L163.996,38.538L164.526,38.538L165.067,38.538L165.339,38.538L165.62,38.538L165.879,38.538L166.15,38.538L166.691,38.538L166.961,38.538L167.238,38.538L167.503,38.538L167.774,38.538L168.341,38.538L168.757,38.538L169.011,38.538L169.537,38.538L169.945,38.538L170.211,38.538L170.49,38.538L170.753,38.538L171.024,38.538L171.566,38.538L171.836,38.538L172.12,38.538L172.378,38.538L172.648,38.538L173.19,38.538L173.461,38.538L173.745,38.538L174.006,38.538L174.274,38.538L175.086,38.538L175.368,38.538L175.629,38.538L175.899,38.538L176.439,38.538L176.711,38.538L176.993,38.538L177.254,38.538L177.522,38.538L178.065,38.538L178.335,38.538L178.616,38.538L178.877,38.538L179.147,38.538L179.69,38.538L179.96,38.538L180.241,38.538L180.502,38.538L180.772,38.538L181.313,38.538L181.586,38.538L181.869,38.538L182.128,38.538L182.397,38.538L182.938,38.538L183.209,38.538L183.494,38.538L183.753,38.538L184.022,38.538L184.563,38.538L184.836,38.538L185.126,38.538L185.377,38.538L185.647,38.538L186.188,38.538L186.46,38.538L186.735,38.538L187.001,38.538L187.272,38.538L187.812,38.538L188.084,38.538L188.367,38.538L188.627,38.538L188.897,38.538L189.438,38.538L189.708,38.538L189.988,38.538L190.249,38.538L190.52,38.538L191.062,38.538L191.333,38.538L191.615,38.538L191.874,38.538L192.145,38.538L192.686,38.538L192.961,38.538L193.242,38.538L193.501,38.538L193.77,38.538L194.312,38.538L194.584,38.538L194.867,38.538L195.126,38.538L195.395,38.538L195.936,38.538L196.212,38.538L196.492,38.538L196.75,38.538L197.019,38.538L197.562,38.538L197.832,38.538L198.117,38.538L198.375,38.538L198.646,38.538L199.187,38.538L199.456,38.538L199.74,38.538L200,38.538" stroke="#f58518" stroke-width="2"/></g></g><path class="foreground" aria-hidden="true" d="" display="none"/></g></g><g class="mark-group role-legend" role="graphics-symbol" aria-roledescription="legend" aria-label="Symbol legend titled 'identifier' for stroke color with 2 values: altex-LG-F2WR508SBW, altex-LG-F2WR508SBM"><g transform="translate(220,0)"><path class="background" aria-hidden="true" d="M0,0h168v40h-168Z" pointer-events="none"/><g><g class="mark-group role-legend-entry"><g transform="translate(0,16)"><path class="background" aria-hidden="true" d="M0,0h0v0h0Z" pointer-events="none"/><g><g class="mark-group role-scope" role="graphics-object" aria-roledescription="group mark container"><g transform="translate(0,0)"><path class="background" aria-hidden="true" d="M0,0h168v11h-168Z" pointer-events="none" opacity="1"/><g><g class="mark-symbol role-legend-symbol" pointer-events="none"><path transform="translate(6,6)" d="M-5,0L5,0" stroke="#4c78a8" stroke-width="1.5" opacity="1"/></g><g class="mark-text role-legend-label" pointer-events="none"><text text-anchor="start" transform="translate(16,9)" font-family="Liberation Mono" font-size="10px" fill="#000" opacity="1">altex-LG-F2WR508SBW</text></g></g><path class="foreground" aria-hidden="true" d="" pointer-events="none" display="none"/></g><g transform="translate(0,13)"><path class="background" aria-hidden="true" d="M0,0h168v11h-168Z" pointer-events="none" opacity="1"/><g><g class="mark-symbol role-legend-symbol" pointer-events="none"><path transform="translate(6,6)" d="M-5,0L5,0" stroke="#f58518" stroke-width="1.5" opacity="1"/></g><g class="mark-text role-legend-label" pointer-events="none"><text text-anchor="start" transform="translate(16,9)" font-family="Liberation Mono" font-size="10px" fill="#000" opacity="1">altex-LG-F2WR508SBM</text></g></g><path class="foreground" aria-hidden="true" d="" pointer-events="none" display="none"/></g></g></g><path class="foreground" aria-hidden="true" d="" pointer-events="none" display="none"/></g></g><g class="mark-text role-legend-title" pointer-events="none"><text text-anchor="start" transform="translate(0,9)" font-family="Liberation Mono" font-size="11px" font-weight="bold" fill="#000" opacity="1">identifier</text></g></g><path class="foreground" aria-hidden="true" d="" pointer-events="none" display="none"/></g></g></g><path class="foreground" aria-hidden="true" d="" display="none"/></g></g></g></svg>