<svg xmlns="http://www.w3.org/2000/svg" xmlns:xlink="http://www.w3.org/1999/xlink" version="1.1" class="marks" width="460" height="242" viewBox="0 0 460 242"><rect width="460" height="242" fill="white"/><g fill="none" stroke-miterlimit="10" transform="translate(67,5)"><g class="mark-group role-frame root" role="graphics-object" aria-roledescription="group mark container"><g transform="translate(0,0)"><path class="background" aria-hidden="true" d="M0.5,0.5h200v200h-200Z" stroke="#ddd"/><g><g class="mark-group role-axis" aria-hidden="true"><g transform="translate(0.5,200.5)"><path class="background" aria-hidden="true" d="M0,0h0v0h0Z" pointer-events="none"/><g><g class="mark-rule role-axis-grid" pointer-events="none"><line transform="translate(46,-200)" x2="0" y2="200" stroke="#ddd" stroke-width="1" opacity="1"/><line transform="translate(92,-200)" x2="0" y2="200" stroke="#ddd" stroke-width="1" opacity="1"/><line transform="translate(139,-200)" x2="0" y2="200" stroke="#ddd" stroke-width="1" opacity="1"/><line transform="translate(186,-200)" x2="0" y2="200" stroke="#ddd" stroke-width="1" opacity="1"/></g></g><path class="foreground" aria-hidden="true" d="" pointer-events="none" display="none"/></g></g><g class="mark-group role-axis" aria-hidden="true"><g transform="translate(0.5,0.5)"><path class="background" aria-hidden="true" d="M0,0h0v0h0Z" pointer-events="none"/><g><g class="mark-rule role-axis-grid" pointer-events="none"><line transform="translate(0,200)" x2="200" y2="0" stroke="#ddd" stroke-width="1" opacity="1"/><line transform="translate(0,162)" x2="200" y2="0" stroke="#ddd" stroke-width="1" opacity="1"/><line transform="translate(0,123)" x2="200" y2="0" stroke="#ddd" stroke-width="1" opacity="1"/><line transform="translate(0,85)" x2="200" y2="0" stroke="#ddd" stroke-width="1" opacity="1"/><line transform="translate(0,46)" x2="200" y2="0" stroke="#ddd" stroke-width="1" opacity="1"/><line transform="translate(0,8)" x2="200" y2="0" stroke="#ddd" stroke-width="1" opacity="1"/></g></g><path class="foreground" aria-hidden="true" d="" pointer-events="none" display="none"/></g></g><g class="mark-group role-axis" role="graphics-symbol" aria-roledescription="axis" aria-label="X-axis titled 'Time' for a time scale with values from Monday, 01 January 2024, 2:19:43 PM to Tuesday, 28 January 2025, 12:58:35 PM"><g transform="translate(0.5,200.5)"><path class="background" aria-hidden="true" d="M0,0h0v0h0Z" pointer-events="none"/><g><g class="mark-rule role-axis-tick" pointer-events="none"><line transform="translate(46,0)" x2="0" y2="5" stroke="#888" stroke-width="1" opacity="1"/><line transform="translate(92,0)" x2="0" y2="5" stroke="#888" stroke-width="1" opacity="1"/><line transform="translate(139,0)" x2="0" y2="5" stroke="#888" stroke-width="1" opacity="1"/><line transform="translate(186,0)" x2="0" y2="5" stroke="#888" stroke-width="1" opacity="1"/></g><g class="mark-text role-axis-label" pointer-events="none"><text text-anchor="middle" transform="translate(46.01319775069296,15)" font-family="Liberation Mono" font-size="10px" fill="#000" opacity="1">April</text><text text-anchor="middle" transform="translate(92.33026951835785,15)" font-family="Liberation Mono" font-size="10px" fill="#000" opacity="1">July</text><text text-anchor="middle" transform="translate(139.15632009665643,15)" font-family="Liberation Mono" font-size="10px" fill="#000" opacity="1">October</text><text text-anchor="middle" transform="translate(185.982370674955,15)" font-family="Liberation Mono" font-size="10px" fill="#000" opacity="1">2025</text></g><g class="mark-rule role-axis-domain" pointer-events="none"><line transform="translate(0,0)" x2="200" y2="0" stroke="#888" stroke-width="1" opacity="1"/></g><g class="mark-text role-axis-title" pointer-events="none"><text text-anchor="middle" transform="translate(100,30)" font-family="Liberation Mono" font-size="11px" font-weight="bold" fill="#000" opacity="1">Time</text></g></g><path class="foreground" aria-hidden="true" d="" pointer-events="none" display="none"/></g></g><g class="mark-group role-axis" role="graphics-symbol" aria-roledescription="axis" aria-label="Y-axis titled 'Price' for a linear scale with values from 0 to 2,600"><g transform="translate(0.5,0.5)"><path class="background" aria-hidden="true" d="M0,0h0v0h0Z" pointer-events="none"/><g><g class="mark-rule role-axis-tick" pointer-events="none"><line transform="translate(0,200)" x2="-5" y2="0" stroke="#888" stroke-width="1" opacity="1"/><line transform="translate(0,162)" x2="-5" y2="0" stroke="#888" stroke-width="1" opacity="1"/><line transform="translate(0,123)" x2="-5" y2="0" stroke="#888" stroke-width="1" opacity="1"/><line transform="translate(0,85)" x2="-5" y2="0" stroke="#888" stroke-width="1" opacity="1"/><line transform="translate(0,46)" x2="-5" y2="0" stroke="#888" stroke-width="1" opacity="1"/><line transform="translate(0,8)" x2="-5" y2="0" stroke="#888" stroke-width="1" opacity="1"/></g><g class="mark-text role-axis-label" pointer-events="none"><text text-anchor="end" transform="translate(-7,203)" font-family="Liberation Mono" font-size="10px" fill="#000" opacity="1">0</text><text text-anchor="end" transform="translate(-7,164.53846153846155)" font-family="Liberation Mono" font-size="10px" fill="#000" opacity="1">500</text><text text-anchor="end" transform="translate(-7,126.07692307692308)" font-family="Liberation Mono" font-size="10px" fill="#000" opacity="1">1,000</text><text text-anchor="end" transform="translate(-7,87.61538461538463)" font-family="Liberation Mono" font-size="10px" fill="#000" opacity="1">1,500</text><text text-anchor="end" transform="translate(-7,49.153846153846146)" font-family="Liberation Mono" font-size="10px" fill="#000" opacity="1">2,000</text><text text-anchor="end" transform="translate(-7,10.692307692307686)" font-family="Liberation Mono" font-size="10px" fill="#000" opacity="1">2,500</text></g><g class="mark-rule role-axis-domain" pointer-events="none"><line transform="translate(0,200)" x2="0" y2="-200" stroke="#888" stroke-width="1" opacity="1"/></g><g class="mark-text role-axis-title" pointer-events="none"><text text-anchor="middle" transform="translate(-51,100) rotate(-90) translate(0,-2)" font-family="Liberation Mono" font-size="11px" font-weight="bold" fill="#000" opacity="1">Price</text></g></g><path class="foreground" aria-hidden="true" d="" pointer-events="none" display="none"/></g></g><g class="mark-group role-scope pathgroup" role="graphics-object" aria-roledescription="group mark container"><g transform="translate(0,0)"><path class="background" aria-hidden="true" d="M0,0h200v200h-200Z"/><g><g class="mark-line role-mark marks" role="graphics-object" aria-roledescription="line mark container"><path aria-label="Time: Jan 01, 2024; Price: 2399; identifier: altex-LG-F2WR508SBW" role="graphics-symbol" aria-roledescription="line mark" d="M0,15.462L0.053,15.462L0.134,15.462L0.304,15.462L0.388,15.462L0.478,15.462L0.559,15.462L0.643,15.462L0.813,15.462L0.897,15.462L0.987,15.462L1.068,15.462L1.152,15.462L1.322,15.462L1.406,15.462L1.496,15.462L1.577,15.462L1.661,15.462L1.831,34.692L1.916,34.692L2.005,34.692L2.086,34.692L2.17,34.692L2.34,34.692L2.424,34.692L2.513,34.692L2.595,34.692L2.679,34.692L2.849,34.692L2.933,34.692L3.022,34.692L3.104,34.692L3.188,34.692L3.358,34.692L3.443,34.692L3.532,34.692L3.613,34.692L3.697,34.692L3.867,34.692L3.952,34.692L4.042,34.692L4.122,34.692L4.206,34.692L4.376,34.692L4.461,34.692L4.55,34.692L4.631,34.692L4.715,34.692L4.885,34.692L4.97,34.692L5.059,34.692L5.14,34.692L5.224,34.692L5.394,34.692L5.479,34.692L5.568,34.692L5.649,34.692L5.733,34.692L5.902,46.231L5.987,46.231L6.076,46.231L6.158,46.231L6.242,46.231L6.412,46.231L6.496,46.231L6.585,46.231L6.666,46.231L6.751,46.231L6.921,46.231L7.006,46.231L7.095,46.231L7.176,46.231L7.26,46.231L7.43,46.231L7.515,46.231L7.604,46.231L7.685,46.231L7.768,46.231L7.939,46.231L8.024,46.231L8.113,46.231L8.194,46.231L8.277,46.231L8.447,46.231L8.532,46.231L8.622,46.231L8.703,46.231L8.787,46.231L8.957,46.231L9.041,46.231L9.131,46.231L9.212,46.231L9.295,46.231L9.466,46.231L9.55,46.231L9.639,46.231L9.721,46.231L9.805,46.231L9.974,46.231L10.059,46.231L10.148,46.231L10.229,46.231L10.313,46.231L10.484,46.231L10.569,46.231L10.658,46.231L10.739,46.231L10.822,46.231L10.993,46.231L11.078,46.231L11.167,46.231L11.248,46.231L11.331,46.231L11.502,46.231L11.587,46.231L11.676,46.231L11.757,46.231L11.84,46.231L12.011,46.231L12.095,46.231L12.185,46.231L12.266,46.231L12.349,46.231L12.519,46.231L12.604,46.231L12.692,46.231L12.774,46.231L12.859,46.231L13.028,46.231L13.113,46.231L13.2,46.231L13.282,46.231L13.367,46.231L13.537,46.231L13.622,46.231L13.709,46.231L13.791,46.231L13.876,46.231L14.046,46.231L14.131,46.231L14.219,46.231L14.301,46.231L14.385,46.231L14.555,46.231L14.64,46.231L14.728,46.231L14.811,46.231L14.894,46.231L15.064,46.231L15.149,46.231L15.237,46.231L15.318,46.231L15.403,46.231L15.573,34.692L15.658,34.692L15.746,34.692L15.827,34.692L15.912,34.692L16.082,34.692L16.167,34.692L16.255,34.692L16.336,34.692L16.421,34.692L16.591,34.692L16.676,34.692L16.763,34.692L16.845,34.692L16.93,34.692L17.1,34.692L17.185,34.692L17.272,34.692L17.354,34.692L17.439,34.692L17.609,34.692L17.694,34.692L17.782,34.692L17.863,34.692L17.948,34.692L18.118,34.692L18.203,34.692L18.291,34.692L18.372,34.692L18.457,34.692L18.627,34.692L18.712,34.692L18.8,34.692L18.882,34.692L18.966,34.692L19.136,34.692L19.221,34.692L19.309,34.692L19.391,34.692L19.475,34.692L19.645,34.692L19.73,34.692L19.817,34.692L19.899,34.692L19.984,34.692L20.154,34.692L20.238,34.692L20.326,34.692L20.408,34.692L20.493,34.692L20.663,34.692L20.748,34.692L20.835,34.692L20.917,34.692L21.002,34.692L21.172,34.692L21.256,34.692L21.345,34.692L21.426,34.692L21.511,34.692L21.68,34.692L21.765,34.692L21.854,34.692L21.936,34.692L22.02,34.692L22.19,34.692L22.274,34.692L22.363,34.692L22.444,34.692L22.529,34.692L22.783,34.692L22.872,34.692L22.953,34.692L23.038,34.692L23.208,34.692L23.292,34.692L23.381,34.692L23.463,34.692L23.547,34.692L23.717,34.692L23.801,34.692L23.889,34.692L23.971,34.692L24.056,34.692L24.226,34.692L24.311,34.692L24.398,34.692L24.48,34.692L24.565,34.692L24.734,34.692L24.82,34.692L24.908,34.692L24.99,34.692L25.074,34.692L25.244,34.692L25.328,34.692L25.416,34.692L25.498,34.692L25.583,34.692L25.752,34.692L25.837,34.692L25.926,34.692L26.007,34.692L26.092,34.692L26.261,34.692L26.346,34.692L26.435,34.692L26.516,34.692L26.601,34.692L26.77,34.692L26.855,34.692L26.943,34.692L27.025,34.692L27.11,34.692L27.279,34.692L27.364,34.692L27.452,34.692L27.534,34.692L27.619,34.692L27.788,34.692L27.873,34.692L27.961,34.692L28.043,34.692L28.128,34.692L28.297,34.692L28.382,34.692L28.47,34.692L28.552,34.692L28.637,34.692L28.806,34.692L28.891,34.692L28.979,34.692L29.061,34.692L29.146,34.692L29.315,34.692L29.4,34.692L29.488,34.692L29.57,34.692L29.655,34.692L29.824,34.692L29.909,34.692L29.997,34.692L30.079,34.692L30.163,34.692L30.333,34.692L30.418,34.692L30.506,34.692L30.588,34.692L30.673,34.692L30.842,34.692L30.927,34.692L31.015,34.692L31.097,34.692L31.182,34.692L31.351,34.692L31.436,34.692L31.523,34.692L31.606,34.692L31.691,34.692L31.868,34.692L31.984,34.692L32.035,34.692L32.115,34.692L32.2,34.692L32.369,34.692L32.454,34.692L32.543,34.692L32.624,34.692L32.708,34.692L32.878,34.692L32.964,34.692L33.052,34.692L33.133,34.692L33.217,34.692L33.387,34.692L33.472,34.692L33.56,34.692L33.642,34.692L33.727,34.692L33.896,34.692L33.982,34.692L34.069,34.692L34.15,34.692L34.235,34.692L34.405,34.692L34.49,34.692L34.577,34.692L34.66,34.692L34.744,34.692L34.914,34.692L34.999,34.692L35.086,34.692L35.169,34.692L35.253,34.692L35.423,34.692L35.508,34.692L35.596,34.692L35.678,34.692L35.762,34.692L35.932,34.692L36.017,34.692L36.105,34.692L36.187,34.692L36.271,34.692L36.441,34.692L36.526,34.692L36.614,34.692L36.696,34.692L36.78,34.692L36.95,34.692L37.035,34.692L37.123,34.692L37.205,34.692L37.289,34.692L37.459,34.692L37.544,34.692L37.632,34.692L37.714,34.692L37.798,34.692L37.968,34.692L38.053,34.692L38.141,34.692L38.222,34.692L38.308,34.692L38.477,34.692L38.562,34.692L38.649,34.692L38.731,34.692L38.816,34.692L38.986,34.692L39.071,34.692L39.16,34.692L39.241,34.692L39.326,34.692L39.495,34.692L39.58,34.692L39.668,34.692L39.75,34.692L39.834,34.692L40.004,34.692L40.089,34.692L40.177,34.692L40.259,34.692L40.344,34.692L40.513,34.692L40.598,34.692L40.686,34.692L40.769,34.692L40.852,34.692L41.022,34.692L41.107,34.692L41.195,34.692L41.277,34.692L41.361,34.692L41.531,34.692L41.616,34.692L41.704,34.692L41.785,34.692L41.87,34.692L42.04,34.692L42.125,34.692L42.213,34.692L42.294,34.692L42.379,34.692L42.549,34.692L42.634,34.692L42.722,34.692L42.804,34.692L42.888,34.692L43.058,34.692L43.143,34.692L43.231,34.692L43.313,34.692L43.397,34.692L43.567,34.692L43.652,34.692L43.74,34.692L43.822,34.692L43.906,34.692L44.076,34.692L44.161,34.692L44.249,34.692L44.331,34.692L44.415,34.692L44.585,34.692L44.669,34.692L44.758,34.692L44.84,34.692L44.924,34.692L45.094,34.692L45.178,34.692L45.266,34.692L45.348,34.692L45.433,34.692L45.603,34.692L45.688,34.692L45.775,34.692L45.858,34.692L45.942,34.692L46.111,34.692L46.197,34.692L46.285,34.692L46.367,34.692L46.451,34.692L46.621,34.692L46.706,34.692L46.794,34.692L46.876,34.692L46.96,34.692L47.129,34.692L47.214,34.692L47.303,34.692L47.385,34.692L47.469,34.692L47.639,34.692L47.724,34.692L47.812,34.692L47.893,34.692L47.978,34.692L48.148,34.692L48.321,34.692L48.403,34.692L48.487,34.692L48.657,34.692L48.742,34.692L48.829,34.692L48.911,34.692L48.996,34.692L49.165,34.692L49.25,34.692L49.338,34.692L49.42,34.692L49.505,34.692L49.675,34.692L49.759,34.692L49.848,34.692L49.93,34.692L50.014,34.692L50.183,34.692L50.268,34.692L50.357,34.692L50.439,34.692L50.523,34.692L50.692,34.692L50.778,34.692L50.866,34.692L50.948,34.692L51.032,34.692L51.202,34.692L51.287,34.692L51.375,34.692L51.541,34.692L51.711,34.692L51.796,34.692L51.884,34.692L51.965,34.692L52.05,34.692L52.219,34.692L52.304,34.692L52.391,34.692L52.474,34.692L52.559,34.692L52.736,34.692L52.867,34.692L52.946,34.692L53.111,34.692L53.239,34.692L53.322,34.692L53.41,34.692L53.492,34.692L53.577,34.692L53.746,34.692L53.831,34.692L53.92,34.692L54.001,34.692L54.086,34.692L54.255,34.692L54.34,34.692L54.429,34.692L54.511,34.692L54.595,34.692L54.849,34.692L54.938,34.692L55.019,34.692L55.104,34.692L55.273,34.692L55.358,34.692L55.447,34.692L55.528,34.692L55.612,34.692L55.782,34.692L55.867,34.692L55.955,34.692L56.037,34.692L56.121,34.692L56.291,34.692L56.376,34.692L56.464,34.692L56.546,34.692L56.631,34.692L56.8,34.692L56.885,34.692L56.974,34.692L57.055,34.692L57.139,34.692L57.309,34.692L57.394,34.692L57.483,34.692L57.564,34.692L57.649,34.692L57.818,34.692L57.904,34.692L57.994,34.692L58.073,34.692L58.158,34.692L58.327,34.692L58.412,34.692L58.498,34.692L58.582,34.692L58.667,34.692L58.836,34.692L58.921,34.692L59.01,34.692L59.091,34.692L59.176,34.692L59.345,34.692L59.43,34.692L59.518,34.692L59.599,34.692L59.684,34.692L59.854,34.692L59.939,34.692L60.027,34.692L60.109,34.692L60.193,34.692L60.363,34.692L60.449,34.692L60.537,34.692L60.618,34.692L60.702,34.692L60.872,34.692L60.957,34.692L61.046,34.692L61.127,34.692L61.211,34.692L61.381,34.692L61.467,34.692L61.555,34.692L61.636,34.692L61.72,34.692L61.89,57.769L61.975,57.769L62.064,57.769L62.145,57.769L62.23,57.769L62.399,57.769L62.484,57.769L62.573,57.769L62.654,57.769L62.738,57.769L62.908,57.769L62.993,57.769L63.081,57.769L63.162,57.769L63.247,57.769L63.417,57.769L63.502,57.769L63.59,57.769L63.672,57.769L63.756,57.769L63.926,57.769L64.011,57.769L64.1,57.769L64.182,57.769L64.265,57.769L64.435,57.769L64.52,57.769L64.609,57.769L64.69,57.769L64.774,57.769L64.944,57.769L65.029,57.769L65.119,57.769L65.2,57.769L65.283,57.769L65.453,34.692L65.539,34.692L65.627,34.692L65.709,34.692L65.792,34.692L65.962,34.692L66.047,34.692L66.136,34.692L66.217,34.692L66.301,34.692L66.471,34.692L66.556,34.692L66.644,34.692L66.725,34.692L66.81,34.692L66.98,34.692L67.065,34.692L67.153,34.692L67.234,34.692L67.319,34.692L67.489,34.692L67.574,34.692L67.663,34.692L67.744,34.692L67.828,34.692L67.998,34.692L68.083,34.692L68.172,34.692L68.253,34.692L68.337,34.692L68.507,34.692L68.592,34.692L68.681,34.692L68.762,34.692L68.846,34.692L69.016,34.692L69.101,34.692L69.19,34.692L69.271,34.692L69.355,34.692L69.525,34.692L69.61,34.692L69.699,34.692L69.78,34.692L69.864,34.692L70.034,34.692L70.119,34.692L70.207,34.692L70.288,34.692L70.373,34.692L70.543,34.692L70.628,34.692L70.716,34.692L70.798,34.692L70.882,34.692L71.052,34.692L71.137,34.692L71.226,34.692L71.307,34.692L71.391,34.692L71.561,34.692L71.646,34.692L71.735,34.692L71.816,34.692L71.9,34.692L72.07,34.692L72.155,34.692L72.244,34.692L72.325,34.692L72.409,34.692L72.579,34.692L72.664,34.692L72.753,34.692L72.834,34.692L72.918,34.692L73.088,34.692L73.173,34.692L73.262,34.692L73.342,34.692L73.427,34.692L73.597,34.692L73.682,34.692L73.77,34.692L73.851,34.692L73.936,34.692L74.106,34.692L74.19,34.692L74.279,34.692L74.36,34.692L74.445,34.692L74.615,34.692L74.7,34.692L74.789,34.692L74.87,34.692L74.954,34.692L75.125,34.692L75.209,34.692L75.298,34.692L75.379,34.692L75.463,34.692L75.633,34.692L75.718,34.692L75.807,34.692L75.888,34.692L75.972,34.692L76.142,34.692L76.227,34.692L76.316,34.692L76.397,34.692L76.481,34.692L76.651,34.692L76.736,34.692L76.825,34.692L76.906,34.692L76.99,34.692L77.159,34.692L77.244,34.692L77.333,34.692L77.414,34.692L77.499,34.692L77.669,34.692L77.753,34.692L77.842,34.692L77.923,34.692L78.008,34.692L78.178,34.692L78.263,34.692L78.353,34.692L78.433,34.692L78.517,34.692L78.686,34.692L78.772,34.692L78.861,34.692L78.942,34.692L79.026,34.692L79.196,34.692L79.281,34.692L79.37,34.692L79.451,34.692L79.535,34.692L79.705,34.692L79.79,34.692L79.879,34.692L79.959,34.692L80.044,34.692L80.214,34.692L80.299,34.692L80.388,34.692L80.47,34.692L80.553,34.692L80.722,34.692L80.807,34.692L80.896,34.692L80.978,34.692L81.061,34.692L81.231,34.692L81.316,34.692L81.405,34.692L81.486,34.692L81.57,34.692L81.741,34.692L81.826,34.692L81.916,34.692L81.996,34.692L82.079,34.692L82.25,34.692L82.335,34.692L82.424,34.692L82.505,34.692L82.589,34.692L82.759,34.692L82.844,46.231L82.933,46.231L83.014,46.231L83.097,46.231L83.268,46.231L83.353,46.231L83.442,46.231L83.524,46.231L83.607,46.231L83.776,46.231L83.861,46.231L83.951,48.538L84.031,48.538L84.116,48.538L84.286,48.538L84.371,48.538L84.459,48.538L84.54,48.538L84.625,48.538L84.794,48.538L84.879,48.538L84.968,48.538L85.049,48.538L85.133,48.538L85.304,48.538L85.389,48.538L85.478,48.538L85.559,48.538L85.642,48.538L85.812,48.538L85.898,48.538L85.987,48.538L86.068,48.538L86.151,48.538L86.321,48.538L86.407,48.538L86.496,48.538L86.577,48.538L86.66,48.538L86.83,48.538L86.915,48.538L87.005,48.538L87.087,48.538L87.169,48.538L87.34,48.538L87.424,48.538L87.514,48.538L87.594,48.538L87.678,48.538L87.848,48.538L87.933,48.538L88.023,48.538L88.103,48.538L88.187,48.538L88.357,48.538L88.442,48.538L88.531,48.538L88.612,48.538L88.696,48.538L88.866,48.538L88.951,48.538L89.041,48.538L89.121,48.538L89.205,48.538L89.375,48.538L89.46,48.538L89.55,48.538L89.715,48.538L89.885,48.538L89.969,48.538L90.059,48.538L90.14,48.538L90.223,48.538L90.394,48.538L90.479,48.538L90.568,48.538L90.649,48.538L90.732,48.538L90.902,48.538L90.988,48.538L91.077,48.538L91.157,48.538L91.241,48.538L91.411,48.538L91.496,48.538L91.585,48.538L91.666,48.538L91.75,48.538L91.92,48.538L92.005,48.538L92.094,48.538L92.175,48.538L92.259,48.538L92.429,48.538L92.515,48.538L92.604,48.538L92.685,48.538L92.768,48.538L92.938,48.538L93.023,48.538L93.113,48.538L93.194,48.538L93.277,48.538L93.447,48.538L93.532,48.538L93.622,48.538L93.703,48.538L93.786,48.538L93.956,48.538L94.041,48.538L94.131,48.538L94.211,48.538L94.295,48.538L94.466,48.538L94.55,48.538L94.639,48.538L94.72,48.538L94.804,48.538L94.974,48.538L95.059,48.538L95.148,48.538L95.229,48.538L95.313,48.538L95.483,48.538L95.567,48.538L95.657,48.538L95.737,48.538L95.822,48.538L95.992,48.538L96.077,48.538L96.166,48.538L96.247,48.538L96.331,48.538L96.501,48.538L96.586,48.538L96.676,48.538L96.757,48.538L96.84,48.538L97.01,48.538L97.096,48.538L97.185,48.538L97.265,48.538L97.349,48.538L97.519,48.538L97.604,48.538L97.694,48.538L97.774,48.538L97.858,48.538L98.028,48.538L98.113,48.538L98.203,48.538L98.283,48.538L98.367,48.538L98.537,48.538L98.621,48.538L98.71,48.538L98.791,48.538L98.876,48.538L99.047,48.538L99.132,48.538L99.226,48.538L99.305,48.538L99.385,48.538L99.555,48.538L99.64,48.538L99.73,48.538L99.811,48.538L99.894,48.538L100.064,48.538L100.149,48.538L100.237,48.538L100.32,48.538L100.403,48.538L100.573,48.538L100.658,48.538L100.748,48.538L100.829,48.538L100.912,48.538L101.082,48.538L101.167,48.538L101.257,48.538L101.337,48.538L101.421,48.538L101.591,48.538L101.676,48.538L101.766,48.538L101.847,48.538L101.93,48.538L102.1,48.538L102.184,48.538L102.274,48.538L102.355,48.538L102.439,48.538L102.609,48.538L102.693,48.538L102.783,48.538L102.864,48.538L102.948,48.538L103.118,48.538L103.204,48.538L103.293,48.538L103.373,48.538L103.457,48.538L103.627,48.538L103.712,48.538L103.802,48.538L103.882,48.538L103.966,48.538L104.136,27L104.221,27L104.311,27L104.391,27L104.475,27L104.645,27L104.73,27L104.82,27L104.9,27L104.984,27L105.154,27L105.239,27L105.328,27L105.41,27L105.493,27L105.663,27L105.747,27L105.837,27L105.917,27L106.002,27L106.171,27L106.256,27L106.345,27L106.427,27L106.51,27L106.681,27L106.766,27L106.856,27L106.936,27L107.02,27L107.19,27L107.275,27L107.365,27L107.445,27L107.528,27L107.698,27L107.783,27L107.874,27L107.954,27L108.037,27L108.208,27L108.293,27L108.383,27L108.463,27L108.547,27L108.717,27L108.802,27L108.891,27L108.972,27L109.055,27L109.226,27L109.31,27L109.399,27L109.481,27L109.564,27L109.735,27L109.819,27L109.909,27L109.989,27L110.074,27L110.244,27L110.329,27L110.419,27L110.499,27L110.583,27L110.753,27L110.838,27L110.928,27L111.008,27L111.091,27L111.262,27L111.347,27L111.437,27L111.517,27L111.601,27L111.771,27L111.856,27L111.946,27L112.026,27L112.109,27L112.28,27L112.365,27L112.455,27L112.535,27L112.618,27L112.79,27L112.873,27L112.963,27L113.045,27L113.127,27L113.298,27L113.382,27L113.472,27L113.552,27L113.637,27L113.807,27L113.892,27L113.982,27L114.062,27L114.146,27L114.315,27L114.401,27L114.491,27L114.571,27L114.654,27L114.825,27L114.91,27L115,27L115.081,27L115.163,27L115.334,27L115.419,27L115.508,27L115.589,27L115.672,27L115.842,27L115.928,27L116.017,27L116.098,27L116.181,27L116.352,27L116.436,27L116.525,27L116.607,27L116.691,27L116.86,27L116.945,27L117.035,27L117.115,27L117.199,27L117.369,27L117.455,27L117.544,27L117.624,27L117.708,27L117.879,27L117.964,27L118.053,27L118.133,27L118.217,27L118.388,27L118.473,27L118.561,27L118.643,27L118.726,27L118.896,27L118.982,27L119.072,27L119.153,27L119.235,27L119.405,27L119.491,27L119.58,27L119.661,27L119.744,27L119.915,27L119.999,27L120.089,27L120.169,27L120.253,27L120.423,27L120.508,27L120.598,27L120.678,27L120.763,27L120.933,27L121.018,27L121.108,27L121.188,27L121.271,27L121.442,27L121.527,27L121.617,27L121.697,27L121.78,27L121.951,27L122.036,27L122.126,27L122.207,27L122.289,27L122.46,27L122.545,27L122.635,27L122.715,27L122.798,27L122.969,27L123.054,27L123.144,27L123.224,27L123.307,27L123.478,27L123.563,27L123.652,27L123.733,27L123.816,27L123.987,27L124.071,27L124.162,27L124.242,27L124.325,27L124.496,27L124.581,27L124.671,27L124.751,27L124.834,27L125.004,27L125.09,27L125.18,27L125.26,27L125.343,27L125.514,27L125.599,27L125.689,27L125.769,27L125.853,27L126.023,27L126.108,27L126.198,27L126.278,27L126.361,27L126.531,27L126.617,27L126.707,27L126.788,27L126.87,27L127.04,27L127.125,27L127.215,27L127.295,27L127.379,27L127.549,27L127.634,27L127.724,27L127.805,27L127.888,27L128.059,27L128.144,27L128.234,27L128.314,27L128.397,27L128.568,27L128.653,27L128.743,27L128.823,27L128.906,27L129.077,27L129.162,27L129.252,27L129.332,27L129.415,27L129.586,27L129.671,27L129.761,27L129.841,27L129.924,27L130.094,27L130.18,27L130.27,27L130.349,27L130.433,27L130.603,46.231L130.688,46.231L130.778,46.231L130.858,46.231L130.942,46.231L131.112,46.231L131.197,46.231L131.287,46.231L131.368,46.231L131.451,46.231L131.622,46.231L131.707,46.231L131.798,46.231L131.877,46.231L131.96,46.231L132.129,46.231L132.216,46.231L132.306,46.231L132.386,46.231L132.469,46.231L132.64,46.231L132.725,46.231L132.815,46.231L132.895,46.231L132.978,46.231L133.149,53.923L133.234,53.923L133.324,53.923L133.404,53.923L133.487,53.923L133.658,53.923L133.743,53.923L133.833,53.923L133.913,53.923L133.996,53.923L134.166,53.923L134.251,53.923L134.341,53.923L134.421,53.923L134.504,53.923L134.676,53.923L134.76,53.923L134.85,53.923L134.93,53.923L135.013,53.923L135.184,53.923L135.27,53.923L135.36,53.923L135.44,53.923L135.523,53.923L135.694,53.923L135.779,53.923L135.87,53.923L135.949,53.923L136.032,53.923L136.203,53.923L136.289,53.923L136.379,53.923L136.459,53.923L136.541,53.923L136.712,23.154L136.797,23.154L136.888,23.154L136.967,23.154L137.05,23.154L137.22,23.154L137.306,23.154L137.396,23.154L137.476,23.154L137.729,23.154L137.814,23.154L137.904,23.154L137.984,23.154L138.067,23.154L138.238,23.154L138.323,23.154L138.413,23.154L138.493,23.154L138.576,23.154L138.748,23.154L138.834,23.154L138.924,23.154L139.004,23.154L139.086,23.154L139.257,23.154L139.342,23.154L139.433,23.154L139.512,23.154L139.595,23.154L139.765,23.154L139.851,23.154L139.941,23.154L140.021,23.154L140.105,23.154L140.275,23.154L140.36,23.154L140.45,23.154L140.53,23.154L140.613,23.154L140.783,23.154L140.869,23.154L140.959,23.154L141.039,23.154L141.122,23.154L141.292,23.154L141.377,23.154L141.467,23.154L141.547,23.154L141.63,23.154L141.801,23.154L141.886,23.154L141.976,23.154L142.056,23.154L142.139,23.154L142.31,23.154L142.396,23.154L142.486,23.154L142.566,23.154L142.649,23.154L142.819,23.154L142.905,23.154L142.995,23.154L143.075,23.154L143.157,23.154L143.328,23.154L143.414,23.154L143.504,23.154L143.583,23.154L143.667,23.154L143.837,23.154L143.923,23.154L144.013,23.154L144.092,23.154L144.176,23.154L144.347,23.154L144.431,23.154L144.522,23.154L144.601,23.154L144.685,23.154L144.855,23.154L144.94,23.154L145.03,23.154L145.11,23.154L145.193,23.154L145.364,23.154L145.449,23.154L145.539,23.154L145.619,23.154L145.702,23.154L145.873,23.154L145.959,23.154L146.049,23.154L146.129,23.154L146.212,23.154L146.382,23.154L146.468,23.154L146.558,23.154L146.638,23.154L146.721,23.154L146.891,23.154L146.977,23.154L147.067,23.154L147.146,23.154L147.23,23.154L147.401,23.154L147.486,23.154L147.576,23.154L147.656,23.154L147.739,23.154L147.91,23.154L147.995,23.154L148.085,23.154L148.165,23.154L148.247,23.154L148.418,23.154L148.503,23.154L148.593,23.154L148.673,23.154L148.757,23.154L148.927,23.154L149.012,23.154L149.102,23.154L149.182,23.154L149.265,23.154L149.436,23.154L149.522,23.154L149.612,23.154L149.692,23.154L149.774,23.154L149.946,23.154L150.031,23.154L150.121,23.154L150.201,23.154L150.283,23.154L150.454,23.154L150.539,23.154L150.63,23.154L150.71,23.154L150.793,23.154L150.963,23.154L151.048,23.154L151.139,23.154L151.219,23.154L151.301,23.154L151.472,23.154L151.557,23.154L151.648,23.154L151.727,23.154L151.81,23.154L151.981,23.154L152.066,23.154L152.155,23.154L152.235,23.154L152.319,23.154L152.49,23.154L152.575,23.154L152.665,23.154L152.745,23.154L152.829,23.154L152.999,23.154L153.085,23.154L153.175,23.154L153.255,23.154L153.337,23.154L153.508,23.154L153.593,23.154L153.684,23.154L153.764,23.154L153.846,23.154L154.017,23.154L154.103,23.154L154.193,23.154L154.273,23.154L154.355,23.154L154.702,23.154L154.781,23.154L154.864,23.154L155.035,23.154L155.12,23.154L155.21,23.154L155.29,23.154L155.373,23.154L155.544,23.154L155.628,23.154L155.718,23.154L155.799,23.154L155.882,23.154L156.052,23.154L156.137,23.154L156.227,23.154L156.307,23.154L156.391,23.154L156.562,23.154L156.647,23.154L156.738,23.154L156.817,23.154L156.9,23.154L157.071,23.154L157.156,23.154L157.246,23.154L157.325,23.154L157.409,23.154L157.58,23.154L157.665,23.154L157.755,23.154L157.835,23.154L157.918,23.154L158.089,58.538L158.174,58.538L158.264,58.538L158.344,58.538L158.427,58.538L158.597,58.538L158.682,58.538L158.773,58.538L158.853,58.538L158.936,58.538L159.106,58.538L159.191,58.538L159.281,58.538L159.361,58.538L159.444,58.538L159.615,58.538L159.7,58.538L159.79,58.538L159.87,58.538L159.953,58.538L160.124,58.538L160.21,58.538L160.3,58.538L160.38,58.538L160.463,58.538L160.633,58.538L160.719,58.538L160.809,58.538L160.889,58.538L160.972,58.538L161.142,58.538L161.228,58.538L161.318,58.538L161.398,58.538L161.481,58.538L161.652,23.154L161.737,23.154L161.828,23.154L161.907,23.154L161.99,23.154L162.161,23.154L162.246,23.154L162.337,23.154L162.416,23.154L162.499,23.154L162.67,23.154L162.754,23.154L162.845,23.154L162.925,23.154L163.008,23.154L163.178,23.154L163.263,23.154L163.353,23.154L163.433,23.154L163.517,23.154L163.688,23.154L163.774,23.154L163.864,23.154L163.944,23.154L164.027,23.154L164.197,23.154L164.283,23.154L164.373,23.154L164.452,23.154L164.535,23.154L164.706,23.154L164.792,23.154L164.882,23.154L164.962,23.154L165.044,23.154L165.215,23.154L165.3,23.154L165.391,23.154L165.471,23.154L165.553,23.154L165.724,23.154L165.809,23.154L165.9,23.154L165.98,23.154L166.062,23.154L166.232,23.154L166.317,23.154L166.408,23.154L166.488,23.154L166.571,23.154L166.741,23.154L166.826,23.154L166.917,23.154L166.997,23.154L167.08,23.154L167.251,23.154L167.337,23.154L167.427,23.154L167.507,23.154L167.589,23.154L167.76,23.154L167.846,23.154L167.936,23.154L168.016,23.154L168.098,23.154L168.269,23.154L168.355,23.154L168.445,23.154L168.525,23.154L168.607,23.154L168.778,23.154L168.864,23.154L168.954,23.154L169.033,23.154L169.116,23.154L169.287,23.154L169.372,23.154L169.463,23.154L169.542,23.154L169.625,23.154L169.795,23.154L169.88,23.154L169.971,23.154L170.051,23.154L170.134,23.154L170.305,23.154L170.389,23.154L170.48,23.154L170.559,23.154L170.643,23.154L170.814,23.154L170.9,23.154L170.991,23.154L171.07,23.154L171.152,23.154L171.323,23.154L171.408,23.154L171.499,23.154L171.579,23.154L171.661,23.154L171.832,23.154L171.918,23.154L172.008,23.154L172.088,23.154L172.17,23.154L172.341,23.154L172.427,23.154L172.517,23.154L172.597,23.154L172.679,23.154L172.85,23.154L172.935,23.154L173.026,23.154L173.105,23.154L173.188,23.154L173.359,23.154L173.443,23.154L173.534,23.154L173.613,23.154L173.697,23.154L173.868,23.154L173.952,23.154L174.043,23.154L174.122,23.154L174.206,23.154L174.377,23.154L174.463,23.154L174.554,23.154L174.633,23.154L174.715,23.154L174.886,23.154L174.972,23.154L175.063,23.154L175.142,23.154L175.224,23.154L175.395,23.154L175.481,23.154L175.571,23.154L175.651,23.154L175.733,23.154L175.904,23.154L175.989,23.154L176.08,23.154L176.16,23.154L176.242,23.154L176.413,23.154L176.498,23.154L176.589,23.154L176.668,23.154L176.751,23.154L176.921,23.154L177.006,23.154L177.096,23.154L177.176,23.154L177.259,23.154L177.43,23.154L177.515,23.154L177.606,23.154L177.685,23.154L177.768,23.154L177.94,23.154L178.025,23.154L178.116,23.154L178.195,23.154L178.278,23.154L178.448,23.154L178.534,23.154L178.625,23.154L178.705,23.154L178.787,23.154L178.957,23.154L179.043,23.154L179.133,23.154L179.213,23.154L179.296,23.154L179.466,23.154L179.552,23.154L179.642,23.154L179.721,23.154L179.804,23.154L179.975,23.154L180.06,23.154L180.15,23.154L180.229,23.154L180.313,23.154L180.483,23.154L180.568,23.154L180.658,23.154L180.738,23.154L180.821,23.154L180.992,23.154L181.077,23.154L181.167,23.154L181.247,23.154L181.33,23.154L181.502,23.154L181.587,23.154L181.677,23.154L181.756,23.154L181.84,23.154L182.01,23.154L182.096,23.154L182.186,23.154L182.265,23.154L182.349,23.154L182.52,23.154L182.605,23.154L182.694,23.154L182.774,23.154L182.858,23.154L183.028,23.154L183.114,23.154L183.204,23.154L183.283,23.154L183.367,23.154L183.537,23.154L183.622,23.154L183.713,23.154L183.792,23.154L183.876,23.154L184.046,23.154L184.131,23.154L184.221,23.154L184.301,23.154L184.384,23.154L184.555,23.154L184.64,23.154L184.73,23.154L184.81,23.154L184.893,23.154L185.064,23.154L185.15,23.154L185.24,23.154L185.319,23.154L185.402,23.154L185.573,23.154L185.658,23.154L185.748,23.154L185.828,23.154L185.912,23.154L186.082,23.154L186.168,23.154L186.257,23.154L186.337,23.154L186.42,23.154L186.591,23.154L186.676,23.154L186.767,23.154L186.846,23.154L186.93,23.154L187.1,23.154L187.185,23.154L187.276,23.154L187.355,23.154L187.438,23.154L187.609,23.154L187.694,23.154L187.784,23.154L187.864,23.154L187.947,23.154L188.118,23.154L188.203,23.154L188.293,23.154L188.373,23.154L188.456,23.154L188.627,23.154L188.713,23.154L188.803,23.154L188.883,23.154L188.965,23.154L189.136,23.154L189.222,23.154L189.312,23.154L189.395,23.154L189.475,23.154L189.645,23.154L189.731,23.154L189.821,23.154L189.901,23.154L189.984,23.154L190.154,23.154L190.239,23.154L190.33,23.154L190.41,23.154L190.493,23.154L190.663,23.154L190.748,23.154L190.839,23.154L190.919,23.154L191.002,23.154L191.172,23.154L191.257,23.154L191.347,23.154L191.427,23.154L191.51,23.154L191.681,23.154L191.765,23.154L191.856,23.154L191.935,23.154L192.019,23.154L192.19,23.154L192.276,23.154L192.367,23.154L192.446,23.154L192.528,23.154L192.698,23.154L192.784,23.154L192.874,23.154L192.954,23.154L193.037,23.154L193.208,23.154L193.293,23.154L193.383,23.154L193.463,23.154L193.546,23.154L193.717,23.154L193.802,23.154L193.892,23.154L194.055,23.154L194.226,23.154L194.311,23.154L194.401,23.154L194.481,23.154L194.819,23.154L194.909,23.154L194.989,23.154L195.073,23.154L195.243,23.154L195.328,23.154L195.418,23.154L195.498,23.154L195.582,23.154L195.753,23.154L195.838,23.154L195.928,23.154L196.008,23.154L196.091,23.154L196.261,23.154L196.347,23.154L196.437,23.154L196.517,23.154L196.6,23.154L196.771,23.154L196.856,23.154L196.946,23.154L197.026,23.154L197.109,23.154L197.28,23.154L197.365,23.154L197.455,23.154L197.535,23.154L197.618,23.154L197.789,23.154L197.874,23.154L197.964,23.154L198.044,23.154L198.127,23.154L198.298,23.154L198.382,23.154L198.472,23.154L198.553,23.154L198.636,23.154L198.806,23.154L198.891,23.154L198.98,23.154L199.061,23.154L199.145,23.154L199.316,23.154L199.401,23.154L199.491,23.154L199.571,23.154L199.654,23.154L199.824,23.154L199.91,23.154L200,23.154" stroke="#4c78a8" stroke-width="2"/></g></g><path class="foreground" aria-hidden="true" d="" display="none"/></g><g transform="translate(0,0)"><path class="background" aria-hidden="true" d="M0,0h200v200h-200Z"/><g><g class="mark-line role-mark marks" role="graphics-object" aria-roledescription="line mark container"><path aria-label="Time: Jan 01, 2024; Price: 2499; identifier: altex-LG-F2WR508SBM" role="graphics-symbol" aria-roledescription="line mark" d="M0,7.769L0.053,7.769L0.134,7.769L0.304,7.769L0.388,7.769L0.478,7.769L0.559,7.769L0.643,7.769L0.813,7.769L0.897,7.769L0.987,7.769L1.068,7.769L1.152,7.769L1.322,7.769L1.407,7.769L1.496,7.769L1.577,7.769L1.661,7.769L1.831,27L1.916,27L2.005,27L2.086,27L2.17,27L2.34,27L2.424,27L2.513,27L2.595,27L2.679,27L2.849,27L2.933,27L3.022,27L3.104,27L3.188,27L3.358,27L3.443,27L3.532,27L3.613,27L3.697,27L3.867,27L3.952,27L4.042,27L4.122,27L4.206,27L4.376,27L4.461,27L4.55,27L4.631,27L4.715,27L4.885,27L4.97,27L5.059,27L5.14,27L5.224,27L5.394,27L5.479,27L5.568,27L5.649,27L5.733,27L5.902,38.538L5.987,38.538L6.076,38.538L6.158,38.538L6.242,38.538L6.412,38.538L6.496,38.538L6.585,38.538L6.666,38.538L6.751,38.538L6.921,38.538L7.006,38.538L7.095,38.538L7.176,38.538L7.26,38.538L7.43,38.538L7.515,38.538L7.604,38.538L7.686,38.538L7.769,38.538L7.939,38.538L8.024,38.538L8.113,38.538L8.194,38.538L8.277,38.538L8.447,38.538L8.532,38.538L8.622,38.538L8.703,38.538L8.787,38.538L8.957,38.538L9.041,38.538L9.131,38.538L9.212,38.538L9.295,38.538L9.466,38.538L9.55,38.538L9.639,38.538L9.721,38.538L9.805,38.538L9.974,38.538L10.059,38.538L10.148,38.538L10.229,38.538L10.313,38.538L10.484,38.538L10.569,38.538L10.658,38.538L10.739,38.538L10.822,38.538L10.993,38.538L11.078,38.538L11.167,38.538L11.248,38.538L11.331,38.538L11.502,38.538L11.587,38.538L11.676,38.538L11.757,38.538L11.84,38.538L12.011,38.538L12.095,38.538L12.185,38.538L12.266,38.538L12.349,38.538L12.519,38.538L12.604,38.538L12.692,38.538L12.774,38.538L12.859,38.538L13.028,38.538L13.113,38.538L13.2,38.538L13.282,38.538L13.367,38.538L13.537,38.538L13.622,38.538L13.709,38.538L13.791,38.538L13.876,38.538L14.046,38.538L14.131,38.538L14.219,38.538L14.301,38.538L14.385,38.538L14.555,38.538L14.64,38.538L14.728,38.538L14.811,38.538L14.894,38.538L15.064,38.538L15.149,38.538L15.237,38.538L15.318,38.538L15.403,38.538L15.573,27L15.658,27L15.746,27L15.827,27L15.912,27L16.082,27L16.167,27L16.255,27L16.336,27L16.421,27L16.591,27L16.676,27L16.763,27L16.845,27L16.93,27L17.1,27L17.185,27L17.272,27L17.354,27L17.439,27L17.609,27L17.694,27L17.782,27L17.863,27L17.948,27L18.118,27L18.203,27L18.291,27L18.372,27L18.457,27L18.627,27L18.712,27L18.8,27L18.882,27L18.966,27L19.136,27L19.221,27L19.309,27L19.391,27L19.475,27L19.645,27L19.73,27L19.817,27L19.899,27L19.984,27L20.154,27L20.238,27L20.326,27L20.408,27L20.493,27L20.663,27L20.748,27L20.835,27L20.917,27L21.002,27L21.172,27L21.256,27L21.345,27L21.426,27L21.511,27L21.68,27L21.765,27L21.854,27L21.936,27L22.02,27L22.19,27L22.274,27L22.363,27L22.444,27L22.529,27L22.783,27L22.872,27L22.953,27L23.038,27L23.208,27L23.292,27L23.381,27L23.463,27L23.547,27L23.717,27L23.801,27L23.889,27L23.971,27L24.056,27L24.226,27L24.311,27L24.398,27L24.48,27L24.565,27L24.734,27L24.82,27L24.908,27L24.99,27L25.074,27L25.244,27L25.328,27L25.416,27L25.498,27L25.583,27L25.752,27L25.837,27L25.926,27L26.007,27L26.092,27L26.261,27L26.346,27L26.435,27L26.516,27L26.601,27L26.77,27L26.855,27L26.943,27L27.025,27L27.11,27L27.279,27L27.364,27L27.452,27L27.534,27L27.619,27L27.788,27L27.873,27L27.961,27L28.043,27L28.128,27L28.297,27L28.382,27L28.47,27L28.552,27L28.637,27L28.806,27L28.891,27L28.979,27L29.061,27L29.146,27L29.315,27L29.4,27L29.488,27L29.57,27L29.655,27L29.824,27L29.909,27L29.997,27L30.079,27L30.163,27L30.333,27L30.418,27L30.506,27L30.588,27L30.673,27L30.842,27L30.927,27L31.015,27L31.097,27L31.182,27L31.351,27L31.436,27L31.523,27L31.606,27L31.691,27L31.868,27L31.984,27L32.035,27L32.115,27L32.2,27L32.369,27L32.454,27L32.543,27L32.624,27L32.708,27L32.878,27L32.964,27L33.052,27L33.133,27L33.217,27L33.387,27L33.472,27L33.56,38.538L33.642,38.538L33.727,38.538L33.896,38.538L33.982,38.538L34.069,38.538L34.15,38.538L34.235,38.538L34.405,38.538L34.49,38.538L34.577,38.538L34.66,38.538L34.744,38.538L34.914,38.538L34.999,38.538L35.086,38.538L35.169,38.538L35.253,38.538L35.423,38.538L35.508,38.538L35.596,38.538L35.678,38.538L35.762,38.538L35.932,38.538L36.017,38.538L36.105,38.538L36.187,38.538L36.271,38.538L36.441,38.538L36.526,38.538L36.614,38.538L36.696,38.538L36.78,38.538L36.95,38.538L37.035,38.538L37.123,38.538L37.205,38.538L37.289,38.538L37.459,38.538L37.544,38.538L37.632,38.538L37.714,38.538L37.798,38.538L37.968,38.538L38.053,38.538L38.141,38.538L38.223,38.538L38.308,38.538L38.477,38.538L38.562,38.538L38.649,38.538L38.731,38.538L38.816,38.538L38.986,38.538L39.071,38.538L39.16,38.538L39.241,38.538L39.326,38.538L39.495,38.538L39.58,38.538L39.668,38.538L39.75,38.538L39.834,38.538L40.004,38.538L40.089,38.538L40.177,38.538L40.259,38.538L40.344,38.538L40.513,38.538L40.598,38.538L40.686,38.538L40.769,38.538L40.852,38.538L41.022,38.538L41.107,38.538L41.195,38.538L41.277,38.538L41.361,38.538L41.531,38.538L41.616,38.538L41.704,38.538L41.785,38.538L41.87,38.538L42.04,38.538L42.125,38.538L42.213,38.538L42.294,38.538L42.379,38.538L42.549,38.538L42.634,38.538L42.722,38.538L42.804,38.538L42.888,38.538L43.058,38.538L43.143,38.538L43.231,38.538L43.313,38.538L43.397,38.538L43.567,38.538L43.652,38.538L43.74,38.538L43.822,38.538L43.906,38.538L44.076,38.538L44.161,38.538L44.249,38.538L44.331,38.538L44.415,38.538L44.585,38.538L44.669,38.538L44.758,38.538L44.84,38.538L44.924,38.538L45.094,38.538L45.178,38.538L45.266,38.538L45.348,38.538L45.433,38.538L45.603,38.538L45.688,38.538L45.775,38.538L45.858,38.538L45.942,38.538L46.111,38.538L46.197,38.538L46.285,38.538L46.367,38.538L46.451,38.538L46.621,38.538L46.706,38.538L46.794,38.538L46.876,38.538L46.96,38.538L47.129,38.538L47.214,38.538L47.303,38.538L47.385,38.538L47.469,38.538L47.639,38.538L47.724,38.538L47.812,38.538L47.894,38.538L47.978,38.538L48.148,38.538L48.321,38.538L48.403,38.538L48.487,38.538L48.657,38.538L48.742,38.538L48.829,38.538L48.911,38.538L48.996,38.538L49.165,38.538L49.25,38.538L49.338,38.538L49.42,38.538L49.505,38.538L49.675,38.538L49.759,38.538L49.848,38.538L49.93,38.538L50.014,38.538L50.183,38.538L50.268,38.538L50.357,38.538L50.439,38.538L50.523,38.538L50.692,38.538L50.778,38.538L50.866,38.538L50.948,38.538L51.032,38.538L51.202,38.538L51.287,38.538L51.375,38.538L51.541,38.538L51.711,38.538L51.796,38.538L51.884,38.538L51.965,38.538L52.05,38.538L52.219,38.538L52.304,38.538L52.391,38.538L52.474,38.538L52.559,38.538L52.736,38.538L52.867,38.538L52.946,38.538L53.111,38.538L53.239,38.538L53.322,38.538L53.41,38.538L53.492,38.538L53.577,38.538L53.746,38.538L53.831,38.538L53.92,38.538L54.001,38.538L54.086,38.538L54.255,38.538L54.34,38.538L54.429,38.538L54.511,38.538L54.595,38.538L54.849,38.538L54.938,38.538L55.019,38.538L55.104,38.538L55.273,38.538L55.358,38.538L55.447,38.538L55.529,38.538L55.612,38.538L55.782,38.538L55.867,38.538L55.955,38.538L56.037,38.538L56.121,38.538L56.291,38.538L56.376,38.538L56.464,38.538L56.546,38.538L56.631,38.538L56.8,38.538L56.885,38.538L56.974,38.538L57.055,38.538L57.139,38.538L57.309,38.538L57.394,38.538L57.483,38.538L57.564,38.538L57.649,38.538L57.818,38.538L57.904,38.538L57.994,38.538L58.073,38.538L58.158,38.538L58.327,38.538L58.412,38.538L58.498,38.538L58.582,38.538L58.667,38.538L58.836,38.538L58.921,38.538L59.01,38.538L59.091,38.538L59.176,38.538L59.345,38.538L59.43,38.538L59.518,38.538L59.599,38.538L59.684,38.538L59.854,38.538L59.939,38.538L60.027,38.538L60.109,38.538L60.193,38.538L60.363,38.538L60.449,38.538L60.537,38.538L60.618,38.538L60.702,38.538L60.872,38.538L60.957,38.538L61.046,38.538L61.127,38.538L61.212,38.538L61.381,38.538L61.467,38.538L61.555,38.538L61.636,38.538L61.72,38.538L61.89,38.538L61.975,38.538L62.064,38.538L62.145,38.538L62.23,38.538L62.399,38.538L62.484,38.538L62.573,38.538L62.654,38.538L62.738,38.538L62.908,38.538L62.993,38.538L63.081,38.538L63.162,38.538L63.247,38.538L63.417,38.538L63.502,38.538L63.59,38.538L63.672,38.538L63.756,38.538L63.926,38.538L64.011,38.538L64.1,38.538L64.182,38.538L64.265,38.538L64.435,38.538L64.52,38.538L64.609,30.846L64.69,30.846L64.774,30.846L64.944,30.846L65.029,30.846L65.119,30.846L65.2,30.846L65.283,30.846L65.453,30.846L65.539,30.846L65.627,30.846L65.709,30.846L65.792,30.846L65.962,30.846L66.047,30.846L66.136,30.846L66.217,30.846L66.301,30.846L66.471,30.846L66.556,30.846L66.644,30.846L66.725,30.846L66.81,30.846L66.98,30.846L67.065,30.846L67.153,30.846L67.234,30.846L67.319,30.846L67.489,30.846L67.574,30.846L67.663,30.846L67.744,30.846L67.828,30.846L67.998,30.846L68.083,30.846L68.172,30.846L68.253,30.846L68.337,30.846L68.507,30.846L68.592,30.846L68.681,30.846L68.762,30.846L68.846,30.846L69.016,30.846L69.101,30.846L69.19,30.846L69.271,30.846L69.355,30.846L69.525,30.846L69.61,30.846L69.699,30.846L69.78,30.846L69.864,30.846L70.034,30.846L70.119,30.846L70.208,30.846L70.288,30.846L70.373,30.846L70.543,30.846L70.628,30.846L70.716,30.846L70.798,30.846L70.882,30.846L71.053,30.846L71.137,30.846L71.226,30.846L71.307,30.846L71.391,30.846L71.561,30.846L71.646,30.846L71.735,30.846L71.816,30.846L71.9,30.846L72.07,30.846L72.155,30.846L72.244,38.538L72.325,38.538L72.409,38.538L72.579,38.538L72.664,38.538L72.753,38.538L72.834,38.538L72.918,38.538L73.088,38.538L73.173,38.538L73.262,38.538L73.342,38.538L73.427,38.538L73.597,38.538L73.682,38.538L73.77,38.538L73.851,38.538L73.936,38.538L74.106,38.538L74.19,38.538L74.279,38.538L74.36,38.538L74.445,38.538L74.615,38.538L74.7,38.538L74.789,38.538L74.87,38.538L74.954,38.538L75.125,38.538L75.209,38.538L75.298,38.538L75.379,38.538L75.463,38.538L75.633,38.538L75.718,38.538L75.807,38.538L75.888,38.538L75.972,38.538L76.143,38.538L76.227,38.538L76.316,38.538L76.397,38.538L76.481,38.538L76.651,30.846L76.736,30.846L76.825,30.846L76.906,30.846L76.99,30.846L77.159,30.846L77.244,30.846L77.333,30.846L77.414,30.846L77.499,30.846L77.669,30.846L77.753,30.846L77.842,30.846L77.923,30.846L78.008,30.846L78.178,30.846L78.263,30.846L78.353,30.846L78.433,30.846L78.517,30.846L78.686,30.846L78.772,30.846L78.861,30.846L78.942,30.846L79.026,30.846L79.196,30.846L79.281,30.846L79.37,30.846L79.451,30.846L79.535,30.846L79.705,30.846L79.79,30.846L79.879,30.846L79.96,30.846L80.044,30.846L80.214,30.846L80.299,30.846L80.388,30.846L80.47,30.846L80.553,30.846L80.722,30.846L80.807,30.846L80.896,30.846L80.978,30.846L81.061,30.846L81.231,30.846L81.316,30.846L81.405,30.846L81.486,30.846L81.57,30.846L81.741,30.846L81.826,30.846L81.916,30.846L81.996,30.846L82.079,30.846L82.25,30.846L82.335,30.846L82.424,30.846L82.505,30.846L82.589,30.846L82.759,30.846L82.844,34.692L82.933,34.692L83.014,34.692L83.097,34.692L83.268,34.692L83.353,34.692L83.442,34.692L83.524,34.692L83.607,34.692L83.776,34.692L83.861,34.692L83.951,40.077L84.031,40.077L84.116,40.077L84.286,40.077L84.371,40.077L84.459,40.077L84.54,40.077L84.625,40.077L84.794,40.077L84.879,40.077L84.968,40.077L85.049,40.077L85.133,40.077L85.304,40.077L85.389,40.077L85.478,40.077L85.559,40.077L85.642,40.077L85.812,40.077L85.898,40.077L85.987,40.077L86.068,40.077L86.151,40.077L86.321,40.077L86.407,40.077L86.496,40.077L86.577,40.077L86.66,40.077L86.83,40.077L86.915,40.077L87.005,40.077L87.087,40.077L87.169,40.077L87.34,40.077L87.424,40.077L87.514,40.077L87.594,40.077L87.678,40.077L87.848,40.077L87.933,40.077L88.023,40.077L88.103,40.077L88.187,40.077L88.357,40.077L88.442,40.077L88.531,40.077L88.612,40.077L88.696,40.077L88.866,40.077L88.952,40.077L89.041,40.077L89.121,40.077L89.205,40.077L89.375,40.077L89.461,40.077L89.55,40.077L89.715,40.077L89.885,40.077L89.97,40.077L90.059,40.077L90.14,40.077L90.223,40.077L90.394,40.077L90.479,40.077L90.568,40.077L90.649,40.077L90.732,40.077L90.902,40.077L90.988,40.077L91.077,40.077L91.157,40.077L91.241,40.077L91.411,40.077L91.496,40.077L91.585,40.077L91.666,40.077L91.75,40.077L91.92,40.077L92.005,40.077L92.094,40.077L92.175,40.077L92.259,40.077L92.429,40.077L92.515,40.077L92.604,40.077L92.685,40.077L92.768,40.077L92.938,40.077L93.023,40.077L93.113,40.077L93.194,40.077L93.277,40.077L93.447,40.077L93.532,40.077L93.622,40.077L93.703,40.077L93.786,40.077L93.956,40.077L94.041,40.077L94.131,40.077L94.211,40.077L94.295,40.077L94.466,40.077L94.55,40.077L94.639,40.077L94.72,40.077L94.804,40.077L94.974,40.077L95.059,40.077L95.148,40.077L95.229,40.077L95.313,40.077L95.483,40.077L95.568,40.077L95.657,40.077L95.737,40.077L95.822,40.077L95.992,40.077L96.077,40.077L96.166,40.077L96.247,40.077L96.331,40.077L96.501,40.077L96.586,40.077L96.676,40.077L96.757,40.077L96.84,40.077L97.01,40.077L97.096,40.077L97.185,40.077L97.265,40.077L97.349,40.077L97.519,40.077L97.604,40.077L97.694,40.077L97.774,40.077L97.858,40.077L98.028,40.077L98.113,40.077L98.203,40.077L98.283,40.077L98.367,40.077L98.537,40.077L98.621,40.077L98.711,40.077L98.792,40.077L98.876,40.077L99.047,40.077L99.132,40.077L99.226,40.077L99.305,40.077L99.385,40.077L99.555,40.077L99.64,40.077L99.73,40.077L99.811,40.077L99.894,40.077L100.064,40.077L100.149,40.077L100.237,40.077L100.32,40.077L100.403,40.077L100.573,40.077L100.658,40.077L100.748,40.077L100.829,40.077L100.912,40.077L101.082,40.077L101.167,40.077L101.257,40.077L101.337,40.077L101.421,40.077L101.591,40.077L101.676,40.077L101.766,40.077L101.847,40.077L101.93,40.077L102.1,40.077L102.184,40.077L102.274,40.077L102.355,40.077L102.439,40.077L102.609,40.077L102.693,40.077L102.783,40.077L102.865,40.077L102.948,40.077L103.118,40.077L103.204,40.077L103.293,40.077L103.373,40.077L103.457,40.077L103.627,40.077L103.712,40.077L103.802,40.077L103.882,40.077L103.966,40.077L104.136,40.077L104.221,40.077L104.311,40.077L104.391,40.077L104.475,40.077L104.645,40.077L104.73,40.077L104.82,40.077L104.9,40.077L104.984,40.077L105.154,40.077L105.239,40.077L105.328,40.077L105.41,40.077L105.493,40.077L105.663,40.077L105.747,40.077L105.837,40.077L105.917,40.077L106.002,40.077L106.171,40.077L106.256,40.077L106.345,40.077L106.427,40.077L106.51,40.077L106.681,40.077L106.766,40.077L106.856,40.077L106.936,40.077L107.02,40.077L107.19,40.077L107.275,40.077L107.365,40.077L107.445,40.077L107.528,40.077L107.698,40.077L107.783,40.077L107.874,40.077L107.954,40.077L108.037,40.077L108.208,40.077L108.293,40.077L108.383,40.077L108.463,40.077L108.547,40.077L108.717,40.077L108.802,40.077L108.891,40.077L108.972,40.077L109.055,40.077L109.226,40.077L109.31,40.077L109.399,40.077L109.481,40.077L109.564,40.077L109.735,40.077L109.819,40.077L109.909,40.077L109.989,40.077L110.074,40.077L110.244,40.077L110.329,40.077L110.419,40.077L110.499,40.077L110.583,40.077L110.753,40.077L110.838,40.077L110.928,40.077L111.008,40.077L111.091,40.077L111.262,40.077L111.347,40.077L111.437,40.077L111.518,40.077L111.601,40.077L111.771,40.077L111.856,40.077L111.946,40.077L112.026,40.077L112.109,40.077L112.28,40.077L112.365,40.077L112.455,40.077L112.535,40.077L112.618,40.077L112.79,40.077L112.873,40.077L112.963,40.077L113.045,40.077L113.127,40.077L113.298,40.077L113.382,40.077L113.472,40.077L113.552,40.077L113.637,40.077L113.807,40.077L113.892,40.077L113.982,40.077L114.062,40.077L114.146,40.077L114.316,40.077L114.401,40.077L114.491,40.077L114.571,40.077L114.654,40.077L114.825,40.077L114.91,40.077L115,40.077L115.081,40.077L115.163,40.077L115.334,40.077L115.419,40.077L115.508,40.077L115.589,40.077L115.672,40.077L115.843,40.077L115.928,40.077L116.017,40.077L116.098,40.077L116.181,40.077L116.352,40.077L116.436,40.077L116.525,40.077L116.607,40.077L116.691,40.077L116.86,40.077L116.945,40.077L117.035,40.077L117.115,40.077L117.199,40.077L117.369,40.077L117.455,40.077L117.544,40.077L117.625,40.077L117.708,40.077L117.879,40.077L117.964,40.077L118.053,40.077L118.133,40.077L118.217,40.077L118.388,40.077L118.473,40.077L118.561,40.077L118.643,40.077L118.726,40.077L118.896,40.077L118.982,40.077L119.072,40.077L119.153,40.077L119.235,40.077L119.405,40.077L119.491,40.077L119.58,40.077L119.661,40.077L119.744,40.077L119.915,40.077L119.999,40.077L120.089,40.077L120.169,40.077L120.253,40.077L120.423,40.077L120.508,40.077L120.598,40.077L120.678,40.077L120.763,40.077L120.933,40.077L121.018,40.077L121.108,40.077L121.188,40.077L121.271,40.077L121.442,40.077L121.527,40.077L121.617,40.077L121.697,40.077L121.78,40.077L121.951,40.077L122.036,40.077L122.126,40.077L122.207,40.077L122.289,40.077L122.46,40.077L122.545,40.077L122.635,40.077L122.715,40.077L122.798,40.077L122.969,40.077L123.054,40.077L123.144,40.077L123.224,40.077L123.307,40.077L123.478,40.077L123.563,40.077L123.652,40.077L123.733,40.077L123.816,40.077L123.987,40.077L124.071,40.077L124.162,40.077L124.242,40.077L124.325,40.077L124.496,40.077L124.581,40.077L124.671,40.077L124.751,40.077L124.834,40.077L125.004,40.077L125.09,40.077L125.18,40.077L125.26,40.077L125.343,40.077L125.514,40.077L125.599,40.077L125.689,40.077L125.769,40.077L125.853,40.077L126.023,40.077L126.108,40.077L126.198,40.077L126.278,40.077L126.361,40.077L126.531,40.077L126.617,40.077L126.707,40.077L126.788,40.077L126.87,40.077L127.04,40.077L127.125,40.077L127.215,40.077L127.295,40.077L127.379,40.077L127.549,40.077L127.634,40.077L127.724,40.077L127.805,40.077L127.888,40.077L128.059,40.077L128.144,40.077L128.234,40.077L128.314,40.077L128.397,40.077L128.568,40.077L128.653,40.077L128.743,40.077L128.823,40.077L128.906,40.077L129.077,40.077L129.162,40.077L129.252,40.077L129.332,40.077L129.415,40.077L129.586,40.077L129.671,40.077L129.761,40.077L129.841,40.077L129.924,40.077L130.095,40.077L130.18,40.077L130.27,40.077L130.349,40.077L130.433,40.077L130.603,40.077L130.688,40.077L130.778,40.077L130.858,40.077L130.942,40.077L131.112,40.077L131.197,40.077L131.287,40.077L131.368,40.077L131.451,40.077L131.622,40.077L131.707,40.077L131.798,40.077L131.877,40.077L131.96,40.077L132.129,40.077L132.216,40.077L132.306,40.077L132.386,40.077L132.469,40.077L132.64,40.077L132.725,40.077L132.815,40.077L132.895,40.077L132.978,40.077L133.149,40.077L133.234,40.077L133.324,40.077L133.404,40.077L133.487,40.077L133.658,40.077L133.743,40.077L133.833,40.077L133.913,40.077L133.996,40.077L134.166,40.077L134.251,40.077L134.341,40.077L134.421,40.077L134.504,40.077L134.676,40.077L134.76,40.077L134.85,40.077L134.93,40.077L135.014,40.077L135.184,40.077L135.27,40.077L135.36,40.077L135.44,40.077L135.523,40.077L135.694,40.077L135.779,40.077L135.87,40.077L135.949,40.077L136.032,40.077L136.203,40.077L136.289,40.077L136.379,40.077L136.459,40.077L136.541,40.077L136.712,40.077L136.797,40.077L136.888,40.077L136.967,40.077L137.05,40.077L137.22,40.077L137.306,40.077L137.396,40.077L137.476,40.077L137.729,40.077L137.814,40.077L137.904,40.077L137.984,40.077L138.067,40.077L138.238,40.077L138.323,40.077L138.413,40.077L138.493,40.077L138.576,40.077L138.748,40.077L138.834,40.077L138.924,40.077L139.004,40.077L139.086,40.077L139.257,40.077L139.342,40.077L139.433,40.077L139.512,40.077L139.595,40.077L139.765,40.077L139.851,40.077L139.941,40.077L140.021,40.077L140.105,40.077L140.275,40.077L140.36,50.077L140.45,50.077L140.53,50.077L140.613,50.077L140.783,50.077L140.869,50.077L140.959,50.077L141.039,50.077L141.122,50.077L141.292,50.077L141.377,50.077L141.467,50.077L141.547,50.077L141.63,50.077L141.801,50.077L141.886,50.077L141.976,50.077L142.056,50.077L142.139,50.077L142.311,50.077L142.396,50.077L142.486,50.077L142.566,50.077L142.649,50.077L142.819,50.077L142.905,30.846L142.995,30.846L143.075,30.846L143.157,30.846L143.328,30.846L143.414,30.846L143.504,50.077L143.583,50.077L143.667,50.077L143.837,50.077L143.923,50.077L144.013,50.077L144.092,50.077L144.176,50.077L144.347,50.077L144.431,50.077L144.522,50.077L144.601,50.077L144.685,50.077L144.855,50.077L144.94,50.077L145.03,50.077L145.11,50.077L145.193,50.077L145.364,50.077L145.449,50.077L145.539,50.077L145.619,50.077L145.702,50.077L145.873,50.077L145.959,50.077L146.049,50.077L146.129,50.077L146.212,50.077L146.382,50.077L146.468,50.077L146.558,50.077L146.638,50.077L146.721,50.077L146.891,50.077L146.977,50.077L147.067,50.077L147.146,50.077L147.23,50.077L147.401,50.077L147.486,50.077L147.576,50.077L147.656,50.077L147.739,50.077L147.91,50.077L147.995,50.077L148.085,50.077L148.165,50.077L148.247,50.077L148.418,50.077L148.503,50.077L148.593,50.077L148.673,50.077L148.757,50.077L148.927,50.077L149.012,50.077L149.102,50.077L149.182,50.077L149.265,50.077L149.436,50.077L149.522,50.077L149.612,50.077L149.692,50.077L149.774,50.077L149.946,50.077L150.031,50.077L150.121,50.077L150.201,50.077L150.283,50.077L150.454,50.077L150.539,50.077L150.63,50.077L150.71,50.077L150.793,50.077L150.963,50.077L151.048,50.077L151.139,50.077L151.219,50.077L151.301,50.077L151.472,50.077L151.557,50.077L151.648,50.077L151.727,50.077L151.81,50.077L151.981,50.077L152.066,50.077L152.155,50.077L152.235,50.077L152.319,50.077L152.49,50.077L152.575,50.077L152.665,50.077L152.745,50.077L152.829,50.077L152.999,50.077L153.085,50.077L153.175,50.077L153.255,50.077L153.337,50.077L153.508,50.077L153.593,50.077L153.684,50.077L153.764,50.077L153.846,50.077L154.017,50.077L154.103,50.077L154.193,50.077L154.273,50.077L154.355,50.077L154.702,50.077L154.781,50.077L154.864,50.077L155.035,50.077L155.12,50.077L155.21,50.077L155.29,50.077L155.373,50.077L155.544,50.077L155.628,50.077L155.718,50.077L155.799,50.077L155.882,50.077L156.053,50.077L156.137,50.077L156.227,50.077L156.307,50.077L156.391,50.077L156.562,50.077L156.647,50.077L156.738,50.077L156.817,50.077L156.9,50.077L157.071,50.077L157.156,50.077L157.246,50.077L157.325,50.077L157.409,50.077L157.58,50.077L157.665,50.077L157.755,50.077L157.835,50.077L157.918,50.077L158.089,50.077L158.174,50.077L158.264,50.077L158.344,50.077L158.427,50.077L158.597,50.077L158.682,50.077L158.773,50.077L158.853,50.077L158.936,50.077L159.106,50.077L159.191,50.077L159.281,50.077L159.361,50.077L159.444,50.077L159.615,50.077L159.7,50.077L159.79,50.077L159.87,50.077L159.953,50.077L160.124,50.077L160.21,50.077L160.3,50.077L160.38,50.077L160.463,50.077L160.633,50.077L160.719,50.077L160.809,50.077L160.889,50.077L160.972,50.077L161.142,50.077L161.228,50.077L161.318,58.538L161.398,58.538L161.481,58.538L161.652,58.538L161.737,58.538L161.828,58.538L161.907,58.538L161.99,58.538L162.161,58.538L162.246,58.538L162.337,58.538L162.416,58.538L162.499,58.538L162.67,58.538L162.754,58.538L162.845,58.538L162.925,58.538L163.008,58.538L163.179,58.538L163.263,58.538L163.353,58.538L163.433,58.538L163.517,58.538L163.688,58.538L163.774,58.538L163.865,58.538L163.944,58.538L164.027,58.538L164.197,58.538L164.283,58.538L164.373,58.538L164.452,58.538L164.535,58.538L164.706,58.538L164.792,58.538L164.882,58.538L164.962,58.538L165.044,58.538L165.215,46.231L165.3,46.231L165.391,58.538L165.471,58.538L165.553,58.538L165.724,58.538L165.809,58.538L165.9,46.231L165.98,46.231L166.062,46.231L166.232,46.231L166.317,46.231L166.408,46.231L166.488,46.231L166.571,46.231L166.741,46.231L166.826,46.231L166.917,46.231L166.997,46.231L167.08,46.231L167.251,46.231L167.337,46.231L167.427,46.231L167.507,46.231L167.589,46.231L167.76,46.231L167.846,46.231L167.936,46.231L168.016,46.231L168.098,46.231L168.269,46.231L168.355,46.231L168.445,58.538L168.525,58.538L168.607,58.538L168.778,58.538L168.864,58.538L168.954,58.538L169.033,58.538L169.116,58.538L169.287,58.538L169.372,58.538L169.463,58.538L169.542,58.538L169.625,58.538L169.795,58.538L169.88,58.538L169.971,58.538L170.051,58.538L170.134,58.538L170.305,58.538L170.389,58.538L170.48,58.538L170.559,58.538L170.643,58.538L170.814,58.538L170.9,58.538L170.991,58.538L171.07,58.538L171.152,58.538L171.323,30.846L171.408,30.846L171.499,58.538L171.579,58.538L171.661,58.538L171.832,58.538L171.918,58.538L172.008,58.538L172.088,58.538L172.17,58.538L172.341,30.846L172.427,30.846L172.517,46.231L172.597,46.231L172.679,46.231L172.85,30.846L172.935,30.846L173.026,46.231L173.105,46.231L173.188,46.231L173.359,46.231L173.443,46.231L173.534,46.231L173.613,46.231L173.697,46.231L173.868,46.231L173.952,46.231L174.043,46.231L174.122,46.231L174.206,46.231L174.377,46.231L174.463,46.231L174.554,46.231L174.633,46.231L174.715,46.231L174.886,46.231L174.972,46.231L175.063,46.231L175.142,46.231L175.224,46.231L175.395,46.231L175.481,46.231L175.571,46.231L175.651,46.231L175.733,46.231L175.904,46.231L175.989,46.231L176.08,46.231L176.16,46.231L176.242,46.231L176.413,46.231L176.498,46.231L176.589,46.231L176.668,46.231L176.751,46.231L176.921,46.231L177.006,46.231L177.096,46.231L177.176,46.231L177.259,46.231L177.43,46.231L177.515,46.231L177.606,46.231L177.685,46.231L177.768,46.231L177.94,46.231L178.025,46.231L178.116,46.231L178.195,46.231L178.278,46.231L178.448,46.231L178.534,46.231L178.625,46.231L178.705,46.231L178.787,46.231L178.957,46.231L179.043,46.231L179.133,46.231L179.213,46.231L179.296,46.231L179.466,46.231L179.552,46.231L179.642,46.231L179.721,46.231L179.804,46.231L179.975,46.231L180.06,46.231L180.15,46.231L180.23,46.231L180.313,46.231L180.483,46.231L180.568,46.231L180.658,46.231L180.738,46.231L180.821,46.231L180.992,46.231L181.077,46.231L181.167,46.231L181.247,46.231L181.33,46.231L181.502,46.231L181.587,46.231L181.677,46.231L181.756,46.231L181.84,46.231L182.01,46.231L182.096,46.231L182.186,46.231L182.265,46.231L182.349,46.231L182.52,46.231L182.605,46.231L182.694,46.231L182.774,46.231L182.858,46.231L183.028,46.231L183.114,46.231L183.204,46.231L183.283,46.231L183.367,46.231L183.537,46.231L183.622,46.231L183.713,46.231L183.792,46.231L183.876,46.231L184.046,46.231L184.131,46.231L184.221,46.231L184.301,46.231L184.384,46.231L184.555,46.231L184.64,46.231L184.73,46.231L184.81,46.231L184.893,46.231L185.064,46.231L185.15,46.231L185.24,46.231L185.319,46.231L185.402,46.231L185.573,46.231L185.658,46.231L185.748,46.231L185.828,46.231L185.912,46.231L186.082,46.231L186.168,46.231L186.257,46.231L186.337,46.231L186.42,46.231L186.591,46.231L186.676,46.231L186.767,46.231L186.846,46.231L186.93,46.231L187.1,46.231L187.185,46.231L187.276,46.231L187.355,46.231L187.438,46.231L187.609,46.231L187.694,46.231L187.784,46.231L187.864,46.231L187.947,46.231L188.118,46.231L188.203,46.231L188.293,46.231L188.373,46.231L188.456,46.231L188.627,46.231L188.713,46.231L188.803,46.231L188.883,46.231L188.965,46.231L189.136,46.231L189.222,46.231L189.312,46.231L189.395,46.231L189.475,46.231L189.645,46.231L189.731,46.231L189.821,46.231L189.901,46.231L189.984,46.231L190.154,46.231L190.239,46.231L190.33,46.231L190.41,46.231L190.493,46.231L190.663,46.231L190.748,46.231L190.839,46.231L190.919,46.231L191.002,46.231L191.172,46.231L191.257,46.231L191.347,46.231L191.427,46.231L191.51,46.231L191.681,46.231L191.765,46.231L191.856,46.231L191.935,46.231L192.019,46.231L192.19,46.231L192.276,46.231L192.367,46.231L192.446,46.231L192.528,46.231L192.699,46.231L192.784,46.231L192.874,46.231L192.954,46.231L193.037,46.231L193.208,46.231L193.293,46.231L193.383,46.231L193.463,46.231L193.546,46.231L193.717,46.231L193.802,46.231L193.892,46.231L194.055,46.231L194.226,46.231L194.311,46.231L194.401,46.231L194.481,46.231L194.819,34.692L194.909,46.231L194.989,46.231L195.073,46.231L195.243,46.231L195.328,46.231L195.418,46.231L195.498,46.231L195.582,46.231L195.753,46.231L195.838,46.231L195.928,46.231L196.008,46.231L196.091,46.231L196.261,46.231L196.347,46.231L196.437,46.231L196.517,46.231L196.6,46.231L196.771,46.231L196.856,46.231L196.946,46.231L197.026,46.231L197.109,46.231L197.28,46.231L197.365,46.231L197.455,46.231L197.535,46.231L197.618,46.231L197.789,46.231L197.874,46.231L197.964,46.231L198.044,46.231L198.127,46.231L198.298,46.231L198.382,46.231L198.472,46.231L198.553,46.231L198.636,46.231L198.806,46.231L198.891,46.231L198.98,46.231L199.061,46.231L199.145,46.231L199.316,46.231L199.401,46.231L199.491,23.154L199.571,23.154L199.654,23.154L199.824,23.154L199.91,23.154L200,30.846" stroke="#f58518" stroke-width="2"/></g></g><path class="foreground" aria-hidden="true" d="" display="none"/></g></g><g class="mark-group role-legend" role="graphics-symbol" aria-roledescription="legend" aria-label="Symbol legend titled 'identifier' for stroke color with 2 values: altex-LG-F2WR508SBW, altex-LG-F2WR508SBM"><g transform="translate(220,0)"><path class="background" aria-hidden="true" d="M0,0h168v40h-168Z" pointer-events="none"/><g><g class="mark-group role-legend-entry"><g transform="translate(0,16)"><path class="background" aria-hidden="true" d="M0,0h0v0h0Z" pointer-events="none"/><g><g class="mark-group role-scope" role="graphics-object" aria-roledescription="group mark container"><g transform="translate(0,0)"><path class="background" aria-hidden="true" d="M0,0h168v11h-168Z" pointer-events="none" opacity="1"/><g><g class="mark-symbol role-legend-symbol" pointer-events="none"><path transform="translate(6,6)" d="M-5,0L5,0" stroke="#4c78a8" stroke-width="1.5" opacity="1"/></g><g class="mark-text role-legend-label" pointer-events="none"><text text-anchor="start" transform="translate(16,9)" font-family="Liberation Mono" font-size="10px" fill="#000" opacity="1">altex-LG-F2WR508SBW</text></g></g><path class="foreground" aria-hidden="true" d="" pointer-events="none" display="none"/></g><g transform="translate(0,13)"><path class="background" aria-hidden="true" d="M0,0h168v11h-168Z" pointer-events="none" opacity="1"/><g><g class="mark-symbol role-legend-symbol" pointer-events="none"><path transform="translate(6,6)" d="M-5,0L5,0" stroke="#f58518" stroke-width="1.5" opacity="1"/></g><g class="mark-text role-legend-label" pointer-events="none"><text text-anchor="start" transform="translate(16,9)" font-family="Liberation Mono" font-size="10px" fill="#000" opacity="1">altex-LG-F2WR508SBM</text></g></g><path class="foreground" aria-hidden="true" d="" pointer-events="none" display="none"/></g></g></g><path class="foreground" aria-hidden="true" d="" pointer-events="none" display="none"/></g></g><g class="mark-text role-legend-title" pointer-events="none"><text text-anchor="start" transform="translate(0,9)" font-family="Liberation Mono" font-size="11px" font-weight="bold" fill="#000" opacity="1">identifier</text></g></g><path class="foreground" aria-hidden="true" d="" pointer-events="none" display="none"/></g></g></g><path class="foreground" aria-hidden="true" d="" display="none"/></g></g></g></svg>