<svg xmlns="http://www.w3.org/2000/svg" xmlns:xlink="http://www.w3.org/1999/xlink" version="1.1" class="marks" width="460" height="242" viewBox="0 0 460 242"><rect width="460" height="242" fill="white"/><g fill="none" stroke-miterlimit="10" transform="translate(67,5)"><g class="mark-group role-frame root" role="graphics-object" aria-roledescription="group mark container"><g transform="translate(0,0)"><path class="background" aria-hidden="true" d="M0.5,0.5h200v200h-200Z" stroke="#ddd"/><g><g class="mark-group role-axis" aria-hidden="true"><g transform="translate(0.5,200.5)"><path class="background" aria-hidden="true" d="M0,0h0v0h0Z" pointer-events="none"/><g><g class="mark-rule role-axis-grid" pointer-events="none"><line transform="translate(54,-200)" x2="0" y2="200" stroke="#ddd" stroke-width="1" opacity="1"/><line transform="translate(105,-200)" x2="0" y2="200" stroke="#ddd" stroke-width="1" opacity="1"/><line transform="translate(160,-200)" x2="0" y2="200" stroke="#ddd" stroke-width="1" opacity="1"/></g></g><path class="foreground" aria-hidden="true" d="" pointer-events="none" display="none"/></g></g><g class="mark-group role-axis" aria-hidden="true"><g transform="translate(0.5,0.5)"><path class="background" aria-hidden="true" d="M0,0h0v0h0Z" pointer-events="none"/><g><g class="mark-rule role-axis-grid" pointer-events="none"><line transform="translate(0,200)" x2="200" y2="0" stroke="#ddd" stroke-width="1" opacity="1"/><line transform="translate(0,162)" x2="200" y2="0" stroke="#ddd" stroke-width="1" opacity="1"/><line transform="translate(0,123)" x2="200" y2="0" stroke="#ddd" stroke-width="1" opacity="1"/><line transform="translate(0,85)" x2="200" y2="0" stroke="#ddd" stroke-width="1" opacity="1"/><line transform="translate(0,46)" x2="200" y2="0" stroke="#ddd" stroke-width="1" opacity="1"/><line transform="translate(0,8)" x2="200" y2="0" stroke="#ddd" stroke-width="1" opacity="1"/></g></g><path class="foreground" aria-hidden="true" d="" pointer-events="none" display="none"/></g></g><g class="mark-group role-axis" role="graphics-symbol" aria-roledescription="axis" aria-label="X-axis titled 'Time' for a time scale with values from Monday, 01 January 2024, 2:19:43 PM to Tuesday, 23 April 2024, 12:50:33 PM"><g transform="translate(0.5,200.5)"><path class="background" aria-hidden="true" d="M0,0h0v0h0Z" pointer-events="none"/><g><g class="mark-rule role-axis-tick" pointer-events="none"><line transform="translate(54,0)" x2="0" y2="5" stroke="#888" stroke-width="1" opacity="1"/><line transform="translate(105,0)" x2="0" y2="5" stroke="#888" stroke-width="1" opacity="1"/><line transform="translate(160,0)" x2="0" y2="5" stroke="#888" stroke-width="1" opacity="1"/></g><g class="mark-text role-axis-label" pointer-events="none"><text text-anchor="middle" transform="translate(53.84007289224285,15)" font-family="Liberation Mono" font-size="10px" fill="#000" opacity="1">February</text><text text-anchor="middle" transform="translate(105.19564612078236,15)" font-family="Liberation Mono" font-size="10px" fill="#000" opacity="0">March</text><text text-anchor="middle" transform="translate(160.09298302025564,15)" font-family="Liberation Mono" font-size="10px" fill="#000" opacity="1">April</text></g><g class="mark-rule role-axis-domain" pointer-events="none"><line transform="translate(0,0)" x2="200" y2="0" stroke="#888" stroke-width="1" opacity="1"/></g><g class="mark-text role-axis-title" pointer-events="none"><text text-anchor="middle" transform="translate(100,30)" font-family="Liberation Mono" font-size="11px" font-weight="bold" fill="#000" opacity="1">Time</text></g></g><path class="foreground" aria-hidden="true" d="" pointer-events="none" display="none"/></g></g><g class="mark-group role-axis" role="graphics-symbol" aria-roledescription="axis" aria-label="Y-axis titled 'Price' for a linear scale with values from 0 to 2,600"><g transform="translate(0.5,0.5)"><path class="background" aria-hidden="true" d="M0,0h0v0h0Z" pointer-events="none"/><g><g class="mark-rule role-axis-tick" pointer-events="none"><line transform="translate(0,200)" x2="-5" y2="0" stroke="#888" stroke-width="1" opacity="1"/><line transform="translate(0,162)" x2="-5" y2="0" stroke="#888" stroke-width="1" opacity="1"/><line transform="translate(0,123)" x2="-5" y2="0" stroke="#888" stroke-width="1" opacity="1"/><line transform="translate(0,85)" x2="-5" y2="0" stroke="#888" stroke-width="1" opacity="1"/><line transform="translate(0,46)" x2="-5" y2="0" stroke="#888" stroke-width="1" opacity="1"/><line transform="translate(0,8)" x2="-5" y2="0" stroke="#888" stroke-width="1" opacity="1"/></g><g class="mark-text role-axis-label" pointer-events="none"><text text-anchor="end" transform="translate(-7,203)" font-family="Liberation Mono" font-size="10px" fill="#000" opacity="1">0</text><text text-anchor="end" transform="translate(-7,164.53846153846155)" font-family="Liberation Mono" font-size="10px" fill="#000" opacity="1">500</text><text text-anchor="end" transform="translate(-7,126.07692307692308)" font-family="Liberation Mono" font-size="10px" fill="#000" opacity="1">1,000</text><text text-anchor="end" transform="translate(-7,87.61538461538463)" font-family="Liberation Mono" font-size="10px" fill="#000" opacity="1">1,500</text><text text-anchor="end" transform="translate(-7,49.153846153846146)" font-family="Liberation Mono" font-size="10px" fill="#000" opacity="1">2,000</text><text text-anchor="end" transform="translate(-7,10.692307692307686)" font-family="Liberation Mono" font-size="10px" fill="#000" opacity="1">2,500</text></g><g class="mark-rule role-axis-domain" pointer-events="none"><line transform="translate(0,200)" x2="0" y2="-200" stroke="#888" stroke-width="1" opacity="1"/></g><g class="mark-text role-axis-title" pointer-events="none"><text text-anchor="middle" transform="translate(-51,100) rotate(-90) translate(0,-2)" font-family="Liberation Mono" font-size="11px" font-weight="bold" fill="#000" opacity="1">Price</text></g></g><path class="foreground" aria-hidden="true" d="" pointer-events="none" display="none"/></g></g><g class="mark-group role-scope pathgroup" role="graphics-object" aria-roledescription="group mark container"><g transform="translate(0,0)"><path class="background" aria-hidden="true" d="M0,0h200v200h-200Z"/><g><g class="mark-line role-mark marks" role="graphics-object" aria-roledescription="line mark container"><path aria-label="Time: Jan 01, 2024; Price: 2399; identifier: altex-LG-F2WR508SBW" role="graphics-symbol" aria-roledescription="line mark" d="M0,15.462L0.185,15.462L0.466,15.462L1.056,15.462L1.352,15.462L1.662,15.462L1.944,15.462L2.236,15.462L2.827,15.462L3.122,15.462L3.433,15.462L3.715,15.462L4.007,15.462L4.598,15.462L4.894,15.462L5.203,15.462L5.488,15.462L5.779,15.462L6.37,34.692L6.665,34.692L6.975,34.692L7.258,34.692L7.549,34.692L8.14,34.692L8.435,34.692L8.744,34.692L9.027,34.692L9.32,34.692L9.912,34.692L10.206,34.692L10.515,34.692L10.799,34.692L11.091,34.692L11.683,34.692L11.979,34.692L12.289,34.692L12.572,34.692L12.861,34.692L13.454,34.692L13.749,34.692L14.063,34.692L14.343,34.692L14.633,34.692L15.225,34.692L15.52,34.692L15.831,34.692L16.113,34.692L16.404,34.692L16.995,34.692L17.291,34.692L17.602,34.692L17.885,34.692L18.175,34.692L18.766,34.692L19.062,34.692L19.372,34.692L19.655,34.692L19.946,34.692L20.536,46.231L20.831,46.231L21.14,46.231L21.424,46.231L21.716,46.231L22.308,46.231L22.602,46.231L22.911,46.231L23.194,46.231L23.487,46.231L24.079,46.231L24.375,46.231L24.687,46.231L24.968,46.231L25.258,46.231L25.849,46.231L26.146,46.231L26.457,46.231L26.74,46.231L27.029,46.231L27.621,46.231L27.917,46.231L28.228,46.231L28.51,46.231L28.8,46.231L29.391,46.231L29.687,46.231L29.998,46.231L30.28,46.231L30.571,46.231L31.162,46.231L31.458,46.231L31.769,46.231L32.052,46.231L32.341,46.231L32.933,46.231L33.227,46.231L33.536,46.231L33.821,46.231L34.113,46.231L34.703,46.231L34.998,46.231L35.307,46.231L35.591,46.231L35.883,46.231L36.476,46.231L36.772,46.231L37.084,46.231L37.364,46.231L37.654,46.231L38.246,46.231L38.543,46.231L38.854,46.231L39.136,46.231L39.425,46.231L40.017,46.231L40.313,46.231L40.625,46.231L40.906,46.231L41.196,46.231L41.789,46.231L42.083,46.231L42.395,46.231L42.678,46.231L42.967,46.231L43.558,46.231L43.854,46.231L44.16,46.231L44.443,46.231L44.739,46.231L45.328,46.231L45.624,46.231L45.927,46.231L46.213,46.231L46.508,46.231L47.099,46.231L47.394,46.231L47.699,46.231L47.984,46.231L48.28,46.231L48.87,46.231L49.166,46.231L49.472,46.231L49.756,46.231L50.051,46.231L50.64,46.231L50.936,46.231L51.243,46.231L51.53,46.231L51.821,46.231L52.411,46.231L52.707,46.231L53.014,46.231L53.297,46.231L53.592,46.231L54.182,34.692L54.478,34.692L54.785,34.692L55.068,34.692L55.363,34.692L55.954,34.692L56.248,34.692L56.555,34.692L56.838,34.692L57.134,34.692L57.724,34.692L58.019,34.692L58.324,34.692L58.609,34.692L58.906,34.692L59.497,34.692L59.791,34.692L60.094,34.692L60.38,34.692L60.675,34.692L61.266,34.692L61.562,34.692L61.869,34.692L62.152,34.692L62.446,34.692L63.037,34.692L63.332,34.692L63.64,34.692L63.923,34.692L64.217,34.692L64.808,34.692L65.103,34.692L65.41,34.692L65.695,34.692L65.988,34.692L66.579,34.692L66.874,34.692L67.18,34.692L67.465,34.692L67.759,34.692L68.35,34.692L68.645,34.692L68.95,34.692L69.235,34.692L69.531,34.692L70.12,34.692L70.415,34.692L70.721,34.692L71.006,34.692L71.301,34.692L71.893,34.692L72.187,34.692L72.491,34.692L72.777,34.692L73.072,34.692L73.662,34.692L73.957,34.692L74.266,34.692L74.548,34.692L74.842,34.692L75.432,34.692L75.728,34.692L76.035,34.692L76.323,34.692L76.614,34.692L77.204,34.692L77.499,34.692L77.806,34.692L78.09,34.692L78.384,34.692L79.27,34.692L79.577,34.692L79.861,34.692L80.156,34.692L80.746,34.692L81.041,34.692L81.348,34.692L81.633,34.692L81.926,34.692L82.517,34.692L82.811,34.692L83.116,34.692L83.402,34.692L83.697,34.692L84.288,34.692L84.584,34.692L84.887,34.692L85.173,34.692L85.468,34.692L86.058,34.692L86.355,34.692L86.662,34.692L86.947,34.692L87.239,34.692L87.83,34.692L88.125,34.692L88.431,34.692L88.716,34.692L89.01,34.692L89.6,34.692L89.895,34.692L90.203,34.692L90.487,34.692L90.781,34.692L91.371,34.692L91.666,34.692L91.973,34.692L92.258,34.692L92.552,34.692L93.142,34.692L93.437,34.692L93.743,34.692L94.027,34.692L94.324,34.692L94.913,34.692L95.208,34.692L95.512,34.692L95.798,34.692L96.093,34.692L96.683,34.692L96.979,34.692L97.283,34.692L97.571,34.692L97.864,34.692L98.454,34.692L98.751,34.692L99.057,34.692L99.341,34.692L99.635,34.692L100.225,34.692L100.521,34.692L100.827,34.692L101.112,34.692L101.406,34.692L101.996,34.692L102.291,34.692L102.598,34.692L102.883,34.692L103.177,34.692L103.767,34.692L104.062,34.692L104.368,34.692L104.652,34.692L104.947,34.692L105.538,34.692L105.834,34.692L106.14,34.692L106.424,34.692L106.719,34.692L107.309,34.692L107.604,34.692L107.91,34.692L108.194,34.692L108.49,34.692L109.08,34.692L109.375,34.692L109.679,34.692L109.965,34.692L110.26,34.692L110.878,34.692L111.281,34.692L111.457,34.692L111.738,34.692L112.031,34.692L112.621,34.692L112.916,34.692L113.225,34.692L113.507,34.692L113.802,34.692L114.392,34.692L114.69,34.692L114.996,34.692L115.28,34.692L115.573,34.692L116.163,34.692L116.459,34.692L116.765,34.692L117.049,34.692L117.344,34.692L117.934,34.692L118.234,34.692L118.536,34.692L118.819,34.692L119.114,34.692L119.705,34.692L120,34.692L120.304,34.692L120.592,34.692L120.885,34.692L121.476,34.692L121.773,34.692L122.075,34.692L122.362,34.692L122.656,34.692L123.248,34.692L123.542,34.692L123.85,34.692L124.134,34.692L124.428,34.692L125.018,34.692L125.313,34.692L125.62,34.692L125.906,34.692L126.198,34.692L126.789,34.692L127.086,34.692L127.392,34.692L127.674,34.692L127.969,34.692L128.559,34.692L128.855,34.692L129.163,34.692L129.446,34.692L129.74,34.692L130.33,34.692L130.627,34.692L130.932,34.692L131.217,34.692L131.511,34.692L132.101,34.692L132.398,34.692L132.702,34.692L132.987,34.692L133.283,34.692L133.872,34.692L134.169,34.692L134.472,34.692L134.757,34.692L135.053,34.692L135.643,34.692L135.938,34.692L136.248,34.692L136.531,34.692L136.825,34.692L137.415,34.692L137.709,34.692L138.016,34.692L138.303,34.692L138.594,34.692L139.185,34.692L139.481,34.692L139.787,34.692L140.074,34.692L140.367,34.692L140.956,34.692L141.252,34.692L141.559,34.692L141.845,34.692L142.136,34.692L142.727,34.692L143.022,34.692L143.329,34.692L143.613,34.692L143.907,34.692L144.498,34.692L144.792,34.692L145.099,34.692L145.383,34.692L145.678,34.692L146.268,34.692L146.564,34.692L146.871,34.692L147.154,34.692L147.449,34.692L148.039,34.692L148.334,34.692L148.642,34.692L148.926,34.692L149.219,34.692L149.81,34.692L150.107,34.692L150.413,34.692L150.698,34.692L150.99,34.692L151.583,34.692L151.877,34.692L152.185,34.692L152.47,34.692L152.762,34.692L153.351,34.692L153.647,34.692L153.955,34.692L154.239,34.692L154.532,34.692L155.123,34.692L155.418,34.692L155.726,34.692L156.01,34.692L156.303,34.692L156.893,34.692L157.188,34.692L157.493,34.692L157.78,34.692L158.075,34.692L158.665,34.692L158.961,34.692L159.266,34.692L159.551,34.692L159.845,34.692L160.435,34.692L160.733,34.692L161.04,34.692L161.325,34.692L161.616,34.692L162.207,34.692L162.502,34.692L162.811,34.692L163.095,34.692L163.386,34.692L163.977,34.692L164.272,34.692L164.58,34.692L164.866,34.692L165.158,34.692L165.749,34.692L166.044,34.692L166.351,34.692L166.635,34.692L166.929,34.692L167.521,34.692L168.121,34.692L168.406,34.692L168.701,34.692L169.291,34.692L169.586,34.692L169.89,34.692L170.175,34.692L170.47,34.692L171.06,34.692L171.356,34.692L171.661,34.692L171.946,34.692L172.241,34.692L172.832,34.692L173.126,34.692L173.435,34.692L173.72,34.692L174.012,34.692L174.603,34.692L174.897,34.692L175.206,34.692L175.49,34.692L175.783,34.692L176.373,34.692L176.67,34.692L176.977,34.692L177.263,34.692L177.556,34.692L178.146,34.692L178.442,34.692L178.748,34.692L179.326,34.692L179.916,34.692L180.212,34.692L180.518,34.692L180.801,34.692L181.096,34.692L181.686,34.692L181.981,34.692L182.282,34.692L182.571,34.692L182.866,34.692L183.484,34.692L183.938,34.692L184.215,34.692L184.788,34.692L185.232,34.692L185.523,34.692L185.827,34.692L186.113,34.692L186.408,34.692L186.999,34.692L187.294,34.692L187.603,34.692L187.884,34.692L188.179,34.692L188.769,34.692L189.064,34.692L189.374,34.692L189.659,34.692L189.951,34.692L190.836,34.692L191.144,34.692L191.427,34.692L191.722,34.692L192.311,34.692L192.607,34.692L192.914,34.692L193.199,34.692L193.492,34.692L194.082,34.692L194.377,34.692L194.683,34.692L194.968,34.692L195.262,34.692L195.854,34.692L196.149,34.692L196.455,34.692L196.739,34.692L197.034,34.692L197.624,34.692L197.921,34.692L198.229,34.692L198.511,34.692L198.804,34.692L199.395,34.692L199.69,34.692L200,34.692" stroke="#4c78a8" stroke-width="2"/></g></g><path class="foreground" aria-hidden="true" d="" display="none"/></g><g transform="translate(0,0)"><path class="background" aria-hidden="true" d="M0,0h200v200h-200Z"/><g><g class="mark-line role-mark marks" role="graphics-object" aria-roledescription="line mark container"><path aria-label="Time: Jan 01, 2024; Price: 2499; identifier: altex-LG-F2WR508SBM" role="graphics-symbol" aria-roledescription="line mark" d="M0,7.769L0.185,7.769L0.466,7.769L1.056,7.769L1.352,7.769L1.662,7.769L1.944,7.769L2.237,7.769L2.827,7.769L3.123,7.769L3.433,7.769L3.715,7.769L4.007,7.769L4.598,7.769L4.894,7.769L5.203,7.769L5.488,7.769L5.779,7.769L6.37,27L6.665,27L6.975,27L7.258,27L7.549,27L8.14,27L8.435,27L8.744,27L9.028,27L9.32,27L9.912,27L10.206,27L10.515,27L10.799,27L11.091,27L11.683,27L11.979,27L12.289,27L12.572,27L12.862,27L13.454,27L13.749,27L14.063,27L14.343,27L14.633,27L15.225,27L15.52,27L15.831,27L16.113,27L16.404,27L16.995,27L17.291,27L17.602,27L17.885,27L18.175,27L18.766,27L19.062,27L19.372,27L19.655,27L19.946,27L20.536,38.538L20.831,38.538L21.14,38.538L21.424,38.538L21.716,38.538L22.308,38.538L22.602,38.538L22.911,38.538L23.194,38.538L23.487,38.538L24.079,38.538L24.375,38.538L24.687,38.538L24.968,38.538L25.258,38.538L25.85,38.538L26.146,38.538L26.457,38.538L26.74,38.538L27.029,38.538L27.621,38.538L27.917,38.538L28.228,38.538L28.51,38.538L28.8,38.538L29.391,38.538L29.687,38.538L29.998,38.538L30.28,38.538L30.571,38.538L31.163,38.538L31.458,38.538L31.769,38.538L32.052,38.538L32.341,38.538L32.933,38.538L33.227,38.538L33.537,38.538L33.821,38.538L34.113,38.538L34.703,38.538L34.998,38.538L35.307,38.538L35.591,38.538L35.883,38.538L36.477,38.538L36.772,38.538L37.084,38.538L37.364,38.538L37.654,38.538L38.246,38.538L38.543,38.538L38.854,38.538L39.136,38.538L39.425,38.538L40.018,38.538L40.313,38.538L40.625,38.538L40.906,38.538L41.196,38.538L41.789,38.538L42.083,38.538L42.396,38.538L42.678,38.538L42.967,38.538L43.558,38.538L43.854,38.538L44.16,38.538L44.443,38.538L44.739,38.538L45.328,38.538L45.624,38.538L45.927,38.538L46.213,38.538L46.508,38.538L47.099,38.538L47.394,38.538L47.699,38.538L47.984,38.538L48.28,38.538L48.87,38.538L49.166,38.538L49.472,38.538L49.756,38.538L50.051,38.538L50.64,38.538L50.936,38.538L51.243,38.538L51.53,38.538L51.821,38.538L52.411,38.538L52.707,38.538L53.014,38.538L53.297,38.538L53.592,38.538L54.182,27L54.478,27L54.785,27L55.068,27L55.363,27L55.954,27L56.248,27L56.555,27L56.838,27L57.134,27L57.724,27L58.02,27L58.324,27L58.61,27L58.906,27L59.497,27L59.791,27L60.094,27L60.38,27L60.675,27L61.266,27L61.562,27L61.869,27L62.152,27L62.446,27L63.037,27L63.332,27L63.64,27L63.923,27L64.217,27L64.808,27L65.103,27L65.41,27L65.695,27L65.988,27L66.579,27L66.875,27L67.181,27L67.465,27L67.759,27L68.35,27L68.645,27L68.95,27L69.236,27L69.531,27L70.12,27L70.415,27L70.721,27L71.006,27L71.301,27L71.893,27L72.187,27L72.491,27L72.777,27L73.072,27L73.662,27L73.957,27L74.266,27L74.548,27L74.843,27L75.432,27L75.728,27L76.035,27L76.323,27L76.614,27L77.204,27L77.499,27L77.806,27L78.09,27L78.384,27L79.27,27L79.577,27L79.861,27L80.156,27L80.746,27L81.041,27L81.348,27L81.633,27L81.926,27L82.517,27L82.811,27L83.116,27L83.402,27L83.697,27L84.288,27L84.584,27L84.887,27L85.173,27L85.468,27L86.058,27L86.355,27L86.662,27L86.947,27L87.239,27L87.83,27L88.125,27L88.431,27L88.716,27L89.011,27L89.6,27L89.896,27L90.203,27L90.487,27L90.781,27L91.371,27L91.666,27L91.973,27L92.258,27L92.552,27L93.142,27L93.437,27L93.743,27L94.027,27L94.324,27L94.913,27L95.208,27L95.512,27L95.798,27L96.093,27L96.683,27L96.979,27L97.283,27L97.571,27L97.864,27L98.454,27L98.751,27L99.057,27L99.341,27L99.635,27L100.225,27L100.521,27L100.827,27L101.112,27L101.406,27L101.996,27L102.291,27L102.598,27L102.883,27L103.177,27L103.767,27L104.062,27L104.368,27L104.652,27L104.947,27L105.538,27L105.834,27L106.14,27L106.424,27L106.719,27L107.309,27L107.604,27L107.91,27L108.194,27L108.49,27L109.08,27L109.375,27L109.679,27L109.965,27L110.261,27L110.878,27L111.281,27L111.457,27L111.738,27L112.031,27L112.621,27L112.916,27L113.225,27L113.507,27L113.802,27L114.392,27L114.69,27L114.996,27L115.28,27L115.573,27L116.163,27L116.459,27L116.765,38.538L117.049,38.538L117.344,38.538L117.934,38.538L118.234,38.538L118.536,38.538L118.819,38.538L119.114,38.538L119.705,38.538L120,38.538L120.304,38.538L120.592,38.538L120.885,38.538L121.476,38.538L121.773,38.538L122.075,38.538L122.362,38.538L122.656,38.538L123.248,38.538L123.542,38.538L123.85,38.538L124.134,38.538L124.428,38.538L125.018,38.538L125.313,38.538L125.62,38.538L125.906,38.538L126.198,38.538L126.789,38.538L127.086,38.538L127.392,38.538L127.674,38.538L127.969,38.538L128.559,38.538L128.855,38.538L129.163,38.538L129.446,38.538L129.74,38.538L130.33,38.538L130.627,38.538L130.932,38.538L131.217,38.538L131.511,38.538L132.101,38.538L132.398,38.538L132.702,38.538L132.987,38.538L133.283,38.538L133.872,38.538L134.169,38.538L134.472,38.538L134.757,38.538L135.053,38.538L135.643,38.538L135.938,38.538L136.248,38.538L136.532,38.538L136.825,38.538L137.415,38.538L137.709,38.538L138.016,38.538L138.303,38.538L138.594,38.538L139.185,38.538L139.481,38.538L139.787,38.538L140.074,38.538L140.367,38.538L140.956,38.538L141.252,38.538L141.559,38.538L141.845,38.538L142.136,38.538L142.727,38.538L143.022,38.538L143.329,38.538L143.613,38.538L143.907,38.538L144.498,38.538L144.792,38.538L145.099,38.538L145.383,38.538L145.678,38.538L146.268,38.538L146.564,38.538L146.871,38.538L147.154,38.538L147.449,38.538L148.039,38.538L148.334,38.538L148.642,38.538L148.926,38.538L149.22,38.538L149.81,38.538L150.107,38.538L150.413,38.538L150.698,38.538L150.99,38.538L151.583,38.538L151.877,38.538L152.185,38.538L152.47,38.538L152.762,38.538L153.352,38.538L153.647,38.538L153.955,38.538L154.239,38.538L154.532,38.538L155.123,38.538L155.418,38.538L155.726,38.538L156.01,38.538L156.303,38.538L156.893,38.538L157.188,38.538L157.493,38.538L157.78,38.538L158.075,38.538L158.665,38.538L158.961,38.538L159.266,38.538L159.551,38.538L159.845,38.538L160.435,38.538L160.733,38.538L161.04,38.538L161.325,38.538L161.616,38.538L162.208,38.538L162.502,38.538L162.811,38.538L163.095,38.538L163.386,38.538L163.977,38.538L164.272,38.538L164.58,38.538L164.866,38.538L165.158,38.538L165.749,38.538L166.044,38.538L166.351,38.538L166.635,38.538L166.929,38.538L167.521,38.538L168.121,38.538L168.406,38.538L168.701,38.538L169.291,38.538L169.586,38.538L169.89,38.538L170.175,38.538L170.47,38.538L171.06,38.538L171.356,38.538L171.661,38.538L171.946,38.538L172.241,38.538L172.832,38.538L173.127,38.538L173.435,38.538L173.72,38.538L174.012,38.538L174.603,38.538L174.897,38.538L175.206,38.538L175.49,38.538L175.783,38.538L176.373,38.538L176.67,38.538L176.977,38.538L177.263,38.538L177.556,38.538L178.146,38.538L178.442,38.538L178.748,38.538L179.326,38.538L179.916,38.538L180.212,38.538L180.518,38.538L180.801,38.538L181.096,38.538L181.686,38.538L181.981,38.538L182.282,38.538L182.571,38.538L182.866,38.538L183.484,38.538L183.938,38.538L184.215,38.538L184.788,38.538L185.232,38.538L185.523,38.538L185.827,38.538L186.113,38.538L186.408,38.538L186.999,38.538L187.294,38.538L187.603,38.538L187.884,38.538L188.179,38.538L188.769,38.538L189.064,38.538L189.374,38.538L189.659,38.538L189.951,38.538L190.836,38.538L191.144,38.538L191.427,38.538L191.722,38.538L192.311,38.538L192.607,38.538L192.914,38.538L193.199,38.538L193.492,38.538L194.083,38.538L194.377,38.538L194.683,38.538L194.968,38.538L195.263,38.538L195.854,38.538L196.149,38.538L196.455,38.538L196.739,38.538L197.034,38.538L197.624,38.538L197.921,38.538L198.229,38.538L198.511,38.538L198.804,38.538L199.395,38.538L199.69,38.538L200,38.538" stroke="#f58518" stroke-width="2"/></g></g><path class="foreground" aria-hidden="true" d="" display="none"/></g></g><g class="mark-group role-legend" role="graphics-symbol" aria-roledescription="legend" aria-label="Symbol legend titled 'identifier' for stroke color with 2 values: altex-LG-F2WR508SBW, altex-LG-F2WR508SBM"><g transform="translate(220,0)"><path class="background" aria-hidden="true" d="M0,0h168v40h-168Z" pointer-events="none"/><g><g class="mark-group role-legend-entry"><g transform="translate(0,16)"><path class="background" aria-hidden="true" d="M0,0h0v0h0Z" pointer-events="none"/><g><g class="mark-group role-scope" role="graphics-object" aria-roledescription="group mark container"><g transform="translate(0,0)"><path class="background" aria-hidden="true" d="M0,0h168v11h-168Z" pointer-events="none" opacity="1"/><g><g class="mark-symbol role-legend-symbol" pointer-events="none"><path transform="translate(6,6)" d="M-5,0L5,0" stroke="#4c78a8" stroke-width="1.5" opacity="1"/></g><g class="mark-text role-legend-label" pointer-events="none"><text text-anchor="start" transform="translate(16,9)" font-family="Liberation Mono" font-size="10px" fill="#000" opacity="1">altex-LG-F2WR508SBW</text></g></g><path class="foreground" aria-hidden="true" d="" pointer-events="none" display="none"/></g><g transform="translate(0,13)"><path class="background" aria-hidden="true" d="M0,0h168v11h-168Z" pointer-events="none" opacity="1"/><g><g class="mark-symbol role-legend-symbol" pointer-events="none"><path transform="translate(6,6)" d="M-5,0L5,0" stroke="#f58518" stroke-width="1.5" opacity="1"/></g><g class="mark-text role-legend-label" pointer-events="none"><text text-anchor="start" transform="translate(16,9)" font-family="Liberation Mono" font-size="10px" fill="#000" opacity="1">altex-LG-F2WR508SBM</text></g></g><path class="foreground" aria-hidden="true" d="" pointer-events="none" display="none"/></g></g></g><path class="foreground" aria-hidden="true" d="" pointer-events="none" display="none"/></g></g><g class="mark-text role-legend-title" pointer-events="none"><text text-anchor="start" transform="translate(0,9)" font-family="Liberation Mono" font-size="11px" font-weight="bold" fill="#000" opacity="1">identifier</text></g></g><path class="foreground" aria-hidden="true" d="" pointer-events="none" display="none"/></g></g></g><path class="foreground" aria-hidden="true" d="" display="none"/></g></g></g></svg>