<svg xmlns="http://www.w3.org/2000/svg" xmlns:xlink="http://www.w3.org/1999/xlink" version="1.1" class="marks" width="460" height="242" viewBox="0 0 460 242"><rect width="460" height="242" fill="white"/><g fill="none" stroke-miterlimit="10" transform="translate(67,5)"><g class="mark-group role-frame root" role="graphics-object" aria-roledescription="group mark container"><g transform="translate(0,0)"><path class="background" aria-hidden="true" d="M0.5,0.5h200v200h-200Z" stroke="#ddd"/><g><g class="mark-group role-axis" aria-hidden="true"><g transform="translate(0.5,200.5)"><path class="background" aria-hidden="true" d="M0,0h0v0h0Z" pointer-events="none"/><g><g class="mark-rule role-axis-grid" pointer-events="none"><line transform="translate(27,-200)" x2="0" y2="200" stroke="#ddd" stroke-width="1" opacity="1"/><line transform="translate(53,-200)" x2="0" y2="200" stroke="#ddd" stroke-width="1" opacity="1"/><line transform="translate(81,-200)" x2="0" y2="200" stroke="#ddd" stroke-width="1" opacity="1"/><line transform="translate(108,-200)" x2="0" y2="200" stroke="#ddd" stroke-width="1" opacity="1"/><line transform="translate(135,-200)" x2="0" y2="200" stroke="#ddd" stroke-width="1" opacity="1"/><line transform="translate(162,-200)" x2="0" y2="200" stroke="#ddd" stroke-width="1" opacity="1"/><line transform="translate(190,-200)" x2="0" y2="200" stroke="#ddd" stroke-width="1" opacity="1"/></g></g><path class="foreground" aria-hidden="true" d="" pointer-events="none" display="none"/></g></g><g class="mark-group role-axis" aria-hidden="true"><g transform="translate(0.5,0.5)"><path class="background" aria-hidden="true" d="M0,0h0v0h0Z" pointer-events="none"/><g><g class="mark-rule role-axis-grid" pointer-events="none"><line transform="translate(0,200)" x2="200" y2="0" stroke="#ddd" stroke-width="1" opacity="1"/><line transform="translate(0,162)" x2="200" y2="0" stroke="#ddd" stroke-width="1" opacity="1"/><line transform="translate(0,123)" x2="200" y2="0" stroke="#ddd" stroke-width="1" opacity="1"/><line transform="translate(0,85)" x2="200" y2="0" stroke="#ddd" stroke-width="1" opacity="1"/><line transform="translate(0,46)" x2="200" y2="0" stroke="#ddd" stroke-width="1" opacity="1"/><line transform="translate(0,8)" x2="200" y2="0" stroke="#ddd" stroke-width="1" opacity="1"/></g></g><path class="foreground" aria-hidden="true" d="" pointer-events="none" display="none"/></g></g><g class="mark-group role-axis" role="graphics-symbol" aria-roledescription="axis" aria-label="X-axis titled 'Time' for a time scale with values from Monday, 01 January 2024, 2:19:43 PM to Monday, 12 August 2024, 8:42:34 AM"><g transform="translate(0.5,200.5)"><path class="background" aria-hidden="true" d="M0,0h0v0h0Z" pointer-events="none"/><g><g class="mark-rule role-axis-tick" pointer-events="none"><line transform="translate(27,0)" x2="0" y2="5" stroke="#888" stroke-width="1" opacity="1"/><line transform="translate(53,0)" x2="0" y2="5" stroke="#888" stroke-width="1" opacity="1"/><line transform="translate(81,0)" x2="0" y2="5" stroke="#888" stroke-width="1" opacity="1"/><line transform="translate(108,0)" x2="0" y2="5" stroke="#888" stroke-width="1" opacity="1"/><line transform="translate(135,0)" x2="0" y2="5" stroke="#888" stroke-width="1" opacity="1"/><line transform="translate(162,0)" x2="0" y2="5" stroke="#888" stroke-width="1" opacity="1"/><line transform="translate(190,0)" x2="0" y2="5" stroke="#888" stroke-width="1" opacity="1"/></g><g class="mark-text role-axis-label" pointer-events="none"><text text-anchor="middle" transform="translate(27.17391364195908,15)" font-family="Liberation Mono" font-size="10px" fill="#000" opacity="1">February</text><text text-anchor="middle" transform="translate(53.09386205545209,15)" font-family="Liberation Mono" font-size="10px" fill="#000" opacity="0">March</text><text text-anchor="middle" transform="translate(80.80139311815152,15)" font-family="Liberation Mono" font-size="10px" fill="#000" opacity="1">April</text><text text-anchor="middle" transform="translate(107.61513285624773,15)" font-family="Liberation Mono" font-size="10px" fill="#000" opacity="0">May</text><text text-anchor="middle" transform="translate(135.32266391894717,15)" font-family="Liberation Mono" font-size="10px" fill="#000" opacity="1">June</text><text text-anchor="middle" transform="translate(162.1364036570434,15)" font-family="Liberation Mono" font-size="10px" fill="#000" opacity="0">July</text><text text-anchor="middle" transform="translate(189.8439347197428,15)" font-family="Liberation Mono" font-size="10px" fill="#000" opacity="1">August</text></g><g class="mark-rule role-axis-domain" pointer-events="none"><line transform="translate(0,0)" x2="200" y2="0" stroke="#888" stroke-width="1" opacity="1"/></g><g class="mark-text role-axis-title" pointer-events="none"><text text-anchor="middle" transform="translate(100,30)" font-family="Liberation Mono" font-size="11px" font-weight="bold" fill="#000" opacity="1">Time</text></g></g><path class="foreground" aria-hidden="true" d="" pointer-events="none" display="none"/></g></g><g class="mark-group role-axis" role="graphics-symbol" aria-roledescription="axis" aria-label="Y-axis titled 'Price' for a linear scale with values from 0 to 2,600"><g transform="translate(0.5,0.5)"><path class="background" aria-hidden="true" d="M0,0h0v0h0Z" pointer-events="none"/><g><g class="mark-rule role-axis-tick" pointer-events="none"><line transform="translate(0,200)" x2="-5" y2="0" stroke="#888" stroke-width="1" opacity="1"/><line transform="translate(0,162)" x2="-5" y2="0" stroke="#888" stroke-width="1" opacity="1"/><line transform="translate(0,123)" x2="-5" y2="0" stroke="#888" stroke-width="1" opacity="1"/><line transform="translate(0,85)" x2="-5" y2="0" stroke="#888" stroke-width="1" opacity="1"/><line transform="translate(0,46)" x2="-5" y2="0" stroke="#888" stroke-width="1" opacity="1"/><line transform="translate(0,8)" x2="-5" y2="0" stroke="#888" stroke-width="1" opacity="1"/></g><g class="mark-text role-axis-label" pointer-events="none"><text text-anchor="end" transform="translate(-7,203)" font-family="Liberation Mono" font-size="10px" fill="#000" opacity="1">0</text><text text-anchor="end" transform="translate(-7,164.53846153846155)" font-family="Liberation Mono" font-size="10px" fill="#000" opacity="1">500</text><text text-anchor="end" transform="translate(-7,126.07692307692308)" font-family="Liberation Mono" font-size="10px" fill="#000" opacity="1">1,000</text><text text-anchor="end" transform="translate(-7,87.61538461538463)" font-family="Liberation Mono" font-size="10px" fill="#000" opacity="1">1,500</text><text text-anchor="end" transform="translate(-7,49.153846153846146)" font-family="Liberation Mono" font-size="10px" fill="#000" opacity="1">2,000</text><text text-anchor="end" transform="translate(-7,10.692307692307686)" font-family="Liberation Mono" font-size="10px" fill="#000" opacity="1">2,500</text></g><g class="mark-rule role-axis-domain" pointer-events="none"><line transform="translate(0,200)" x2="0" y2="-200" stroke="#888" stroke-width="1" opacity="1"/></g><g class="mark-text role-axis-title" pointer-events="none"><text text-anchor="middle" transform="translate(-51,100) rotate(-90) translate(0,-2)" font-family="Liberation Mono" font-size="11px" font-weight="bold" fill="#000" opacity="1">Price</text></g></g><path class="foreground" aria-hidden="true" d="" pointer-events="none" display="none"/></g></g><g class="mark-group role-scope pathgroup" role="graphics-object" aria-roledescription="group mark container"><g transform="translate(0,0)"><path class="background" aria-hidden="true" d="M0,0h200v200h-200Z"/><g><g class="mark-line role-mark marks" role="graphics-object" aria-roledescription="line mark container"><path aria-label="Time: Jan 01, 2024; Price: 2399; identifier: altex-LG-F2WR508SBW" role="graphics-symbol" aria-roledescription="line mark" d="M0,15.462L0.094,15.462L0.235,15.462L0.533,15.462L0.682,15.462L0.839,15.462L0.981,15.462L1.129,15.462L1.427,15.462L1.576,15.462L1.733,15.462L1.875,15.462L2.022,15.462L2.321,15.462L2.47,15.462L2.626,15.462L2.77,15.462L2.917,15.462L3.215,34.692L3.364,34.692L3.52,34.692L3.663,34.692L3.81,34.692L4.108,34.692L4.257,34.692L4.413,34.692L4.556,34.692L4.704,34.692L5.003,34.692L5.151,34.692L5.307,34.692L5.45,34.692L5.598,34.692L5.896,34.692L6.046,34.692L6.203,34.692L6.345,34.692L6.491,34.692L6.791,34.692L6.939,34.692L7.098,34.692L7.239,34.692L7.385,34.692L7.684,34.692L7.833,34.692L7.99,34.692L8.132,34.692L8.279,34.692L8.578,34.692L8.727,34.692L8.884,34.692L9.027,34.692L9.173,34.692L9.472,34.692L9.621,34.692L9.777,34.692L9.92,34.692L10.067,34.692L10.365,46.231L10.514,46.231L10.67,46.231L10.813,46.231L10.96,46.231L11.259,46.231L11.407,46.231L11.563,46.231L11.706,46.231L11.854,46.231L12.153,46.231L12.302,46.231L12.46,46.231L12.602,46.231L12.748,46.231L13.047,46.231L13.196,46.231L13.353,46.231L13.496,46.231L13.642,46.231L13.941,46.231L14.09,46.231L14.247,46.231L14.389,46.231L14.536,46.231L14.834,46.231L14.983,46.231L15.14,46.231L15.283,46.231L15.43,46.231L15.728,46.231L15.877,46.231L16.034,46.231L16.177,46.231L16.323,46.231L16.622,46.231L16.77,46.231L16.926,46.231L17.07,46.231L17.217,46.231L17.515,46.231L17.664,46.231L17.82,46.231L17.963,46.231L18.111,46.231L18.41,46.231L18.559,46.231L18.717,46.231L18.858,46.231L19.005,46.231L19.303,46.231L19.453,46.231L19.61,46.231L19.753,46.231L19.898,46.231L20.197,46.231L20.347,46.231L20.504,46.231L20.646,46.231L20.792,46.231L21.091,46.231L21.24,46.231L21.398,46.231L21.54,46.231L21.686,46.231L21.984,46.231L22.134,46.231L22.288,46.231L22.431,46.231L22.58,46.231L22.878,46.231L23.027,46.231L23.18,46.231L23.325,46.231L23.473,46.231L23.772,46.231L23.921,46.231L24.074,46.231L24.218,46.231L24.367,46.231L24.665,46.231L24.815,46.231L24.969,46.231L25.112,46.231L25.261,46.231L25.559,46.231L25.708,46.231L25.863,46.231L26.008,46.231L26.155,46.231L26.453,46.231L26.602,46.231L26.757,46.231L26.9,46.231L27.049,46.231L27.347,34.692L27.496,34.692L27.651,34.692L27.793,34.692L27.942,34.692L28.241,34.692L28.389,34.692L28.544,34.692L28.687,34.692L28.836,34.692L29.134,34.692L29.283,34.692L29.437,34.692L29.581,34.692L29.731,34.692L30.029,34.692L30.177,34.692L30.331,34.692L30.475,34.692L30.624,34.692L30.922,34.692L31.071,34.692L31.226,34.692L31.369,34.692L31.518,34.692L31.816,34.692L31.965,34.692L32.12,34.692L32.263,34.692L32.411,34.692L32.709,34.692L32.859,34.692L33.013,34.692L33.157,34.692L33.305,34.692L33.603,34.692L33.753,34.692L33.907,34.692L34.051,34.692L34.199,34.692L34.497,34.692L34.646,34.692L34.8,34.692L34.944,34.692L35.093,34.692L35.391,34.692L35.54,34.692L35.694,34.692L35.838,34.692L35.987,34.692L36.285,34.692L36.434,34.692L36.587,34.692L36.732,34.692L36.88,34.692L37.179,34.692L37.327,34.692L37.483,34.692L37.626,34.692L37.774,34.692L38.072,34.692L38.221,34.692L38.376,34.692L38.521,34.692L38.668,34.692L38.966,34.692L39.115,34.692L39.27,34.692L39.413,34.692L39.562,34.692L40.009,34.692L40.164,34.692L40.307,34.692L40.456,34.692L40.754,34.692L40.903,34.692L41.057,34.692L41.201,34.692L41.349,34.692L41.648,34.692L41.796,34.692L41.95,34.692L42.094,34.692L42.243,34.692L42.541,34.692L42.691,34.692L42.844,34.692L42.988,34.692L43.137,34.692L43.435,34.692L43.584,34.692L43.74,34.692L43.884,34.692L44.031,34.692L44.329,34.692L44.478,34.692L44.632,34.692L44.776,34.692L44.925,34.692L45.222,34.692L45.372,34.692L45.527,34.692L45.67,34.692L45.819,34.692L46.116,34.692L46.265,34.692L46.42,34.692L46.564,34.692L46.712,34.692L47.01,34.692L47.159,34.692L47.313,34.692L47.457,34.692L47.607,34.692L47.904,34.692L48.053,34.692L48.206,34.692L48.351,34.692L48.499,34.692L48.798,34.692L48.947,34.692L49.1,34.692L49.245,34.692L49.393,34.692L49.691,34.692L49.841,34.692L49.996,34.692L50.139,34.692L50.287,34.692L50.585,34.692L50.734,34.692L50.889,34.692L51.033,34.692L51.181,34.692L51.479,34.692L51.628,34.692L51.783,34.692L51.927,34.692L52.075,34.692L52.373,34.692L52.522,34.692L52.676,34.692L52.82,34.692L52.969,34.692L53.266,34.692L53.416,34.692L53.571,34.692L53.714,34.692L53.863,34.692L54.16,34.692L54.309,34.692L54.464,34.692L54.607,34.692L54.756,34.692L55.054,34.692L55.203,34.692L55.357,34.692L55.501,34.692L55.65,34.692L55.962,34.692L56.165,34.692L56.254,34.692L56.396,34.692L56.544,34.692L56.842,34.692L56.991,34.692L57.146,34.692L57.289,34.692L57.438,34.692L57.735,34.692L57.886,34.692L58.04,34.692L58.184,34.692L58.331,34.692L58.629,34.692L58.779,34.692L58.933,34.692L59.076,34.692L59.225,34.692L59.523,34.692L59.674,34.692L59.827,34.692L59.97,34.692L60.119,34.692L60.417,34.692L60.566,34.692L60.719,34.692L60.865,34.692L61.013,34.692L61.311,34.692L61.461,34.692L61.613,34.692L61.758,34.692L61.906,34.692L62.205,34.692L62.353,34.692L62.509,34.692L62.653,34.692L62.801,34.692L63.098,34.692L63.247,34.692L63.403,34.692L63.547,34.692L63.694,34.692L63.992,34.692L64.142,34.692L64.297,34.692L64.439,34.692L64.588,34.692L64.886,34.692L65.035,34.692L65.19,34.692L65.333,34.692L65.482,34.692L65.78,34.692L65.93,34.692L66.084,34.692L66.227,34.692L66.375,34.692L66.674,34.692L66.823,34.692L66.977,34.692L67.121,34.692L67.27,34.692L67.567,34.692L67.717,34.692L67.87,34.692L68.014,34.692L68.163,34.692L68.461,34.692L68.61,34.692L68.766,34.692L68.909,34.692L69.058,34.692L69.355,34.692L69.504,34.692L69.659,34.692L69.804,34.692L69.951,34.692L70.249,34.692L70.398,34.692L70.553,34.692L70.697,34.692L70.845,34.692L71.142,34.692L71.292,34.692L71.447,34.692L71.591,34.692L71.738,34.692L72.036,34.692L72.185,34.692L72.34,34.692L72.484,34.692L72.632,34.692L72.93,34.692L73.079,34.692L73.234,34.692L73.377,34.692L73.526,34.692L73.824,34.692L73.973,34.692L74.128,34.692L74.271,34.692L74.42,34.692L74.718,34.692L74.867,34.692L75.022,34.692L75.165,34.692L75.313,34.692L75.611,34.692L75.761,34.692L75.916,34.692L76.06,34.692L76.207,34.692L76.506,34.692L76.655,34.692L76.81,34.692L76.954,34.692L77.101,34.692L77.399,34.692L77.548,34.692L77.704,34.692L77.847,34.692L77.995,34.692L78.293,34.692L78.442,34.692L78.597,34.692L78.74,34.692L78.889,34.692L79.186,34.692L79.335,34.692L79.489,34.692L79.634,34.692L79.783,34.692L80.081,34.692L80.23,34.692L80.384,34.692L80.528,34.692L80.676,34.692L80.974,34.692L81.124,34.692L81.28,34.692L81.423,34.692L81.57,34.692L81.869,34.692L82.017,34.692L82.173,34.692L82.316,34.692L82.464,34.692L82.762,34.692L82.911,34.692L83.066,34.692L83.21,34.692L83.358,34.692L83.656,34.692L83.805,34.692L83.96,34.692L84.103,34.692L84.252,34.692L84.551,34.692L84.853,34.692L84.997,34.692L85.146,34.692L85.444,34.692L85.593,34.692L85.746,34.692L85.89,34.692L86.039,34.692L86.337,34.692L86.486,34.692L86.64,34.692L86.784,34.692L86.933,34.692L87.231,34.692L87.38,34.692L87.535,34.692L87.679,34.692L87.827,34.692L88.125,34.692L88.273,34.692L88.429,34.692L88.572,34.692L88.72,34.692L89.018,34.692L89.168,34.692L89.323,34.692L89.467,34.692L89.615,34.692L89.913,34.692L90.062,34.692L90.217,34.692L90.508,34.692L90.806,34.692L90.956,34.692L91.11,34.692L91.253,34.692L91.402,34.692L91.7,34.692L91.848,34.692L92.001,34.692L92.146,34.692L92.295,34.692L92.607,34.692L92.836,34.692L92.976,34.692L93.265,34.692L93.49,34.692L93.636,34.692L93.79,34.692L93.934,34.692L94.083,34.692L94.381,34.692L94.53,34.692L94.686,34.692L94.828,34.692L94.977,34.692L95.275,34.692L95.424,34.692L95.58,34.692L95.724,34.692L95.871,34.692L96.318,34.692L96.473,34.692L96.616,34.692L96.765,34.692L97.062,34.692L97.212,34.692L97.367,34.692L97.511,34.692L97.658,34.692L97.956,34.692L98.105,34.692L98.26,34.692L98.403,34.692L98.552,34.692L98.85,34.692L98.999,34.692L99.154,34.692L99.297,34.692L99.446,34.692L99.744,34.692L99.894,34.692L100.049,34.692L100.192,34.692L100.34,34.692L100.638,34.692L100.787,34.692L100.943,34.692L101.086,34.692L101.234,34.692L101.531,34.692L101.682,34.692L101.841,34.692L101.979,34.692L102.128,34.692L102.425,34.692L102.575,34.692L102.726,34.692L102.873,34.692L103.021,34.692L103.319,34.692L103.469,34.692L103.624,34.692L103.767,34.692L103.916,34.692L104.213,34.692L104.362,34.692L104.516,34.692L104.66,34.692L104.808,34.692L105.107,34.692L105.256,34.692L105.411,34.692L105.553,34.692L105.702,34.692L106,34.692L106.151,34.692L106.306,34.692L106.448,34.692L106.596,34.692L106.894,34.692L107.044,34.692L107.2,34.692L107.342,34.692L107.49,34.692L107.788,34.692L107.94,34.692L108.094,34.692L108.236,34.692L108.384,34.692L108.682,57.769L108.831,57.769L108.988,57.769L109.13,57.769L109.278,57.769L109.576,57.769L109.724,57.769L109.88,57.769L110.023,57.769L110.171,57.769L110.469,57.769L110.618,57.769L110.773,57.769L110.916,57.769L111.065,57.769L111.363,57.769L111.513,57.769L111.667,57.769L111.81,57.769L111.959,57.769L112.257,57.769L112.407,57.769L112.563,57.769L112.706,57.769L112.853,57.769L113.151,57.769L113.3,57.769L113.456,57.769L113.599,57.769L113.747,57.769L114.044,57.769L114.194,57.769L114.352,57.769L114.494,57.769L114.64,57.769L114.939,34.692L115.089,34.692L115.244,34.692L115.389,34.692L115.535,34.692L115.832,34.692L115.981,34.692L116.138,34.692L116.28,34.692L116.428,34.692L116.726,34.692L116.875,34.692L117.03,34.692L117.173,34.692L117.322,34.692L117.62,34.692L117.769,34.692L117.925,34.692L118.067,34.692L118.216,34.692L118.514,34.692L118.663,34.692L118.82,34.692L118.962,34.692L119.11,34.692L119.407,34.692L119.557,34.692L119.714,34.692L119.856,34.692L120.003,34.692L120.302,34.692L120.451,34.692L120.608,34.692L120.749,34.692L120.897,34.692L121.195,34.692L121.345,34.692L121.502,34.692L121.643,34.692L121.79,34.692L122.089,34.692L122.238,34.692L122.395,34.692L122.537,34.692L122.684,34.692L122.982,34.692L123.132,34.692L123.288,34.692L123.429,34.692L123.578,34.692L123.877,34.692L124.025,34.692L124.181,34.692L124.324,34.692L124.472,34.692L124.772,34.692L124.92,34.692L125.077,34.692L125.219,34.692L125.366,34.692L125.664,34.692L125.814,34.692L125.971,34.692L126.112,34.692L126.26,34.692L126.558,34.692L126.708,34.692L126.864,34.692L127.007,34.692L127.153,34.692L127.451,34.692L127.601,34.692L127.758,34.692L127.9,34.692L128.047,34.692L128.347,34.692L128.495,34.692L128.652,34.692L128.793,34.692L128.942,34.692L129.24,34.692L129.388,34.692L129.544,34.692L129.687,34.692L129.835,34.692L130.134,34.692L130.282,34.692L130.437,34.692L130.58,34.692L130.73,34.692L131.027,34.692L131.177,34.692L131.334,34.692L131.476,34.692L131.622,34.692L131.923,34.692L132.071,34.692L132.227,34.692L132.369,34.692L132.516,34.692L132.816,34.692L132.965,34.692L133.121,34.692L133.263,34.692L133.41,34.692L133.71,34.692L133.858,34.692L134.015,34.692L134.156,34.692L134.304,34.692L134.603,34.692L134.752,34.692L134.908,34.692L135.05,34.692L135.198,34.692L135.496,34.692L135.645,34.692L135.801,34.692L135.943,34.692L136.091,34.692L136.39,34.692L136.539,34.692L136.694,34.692L136.837,34.692L136.985,34.692L137.284,34.692L137.433,34.692L137.591,34.692L137.732,34.692L137.88,34.692L138.177,34.692L138.327,34.692L138.484,34.692L138.626,34.692L138.773,34.692L139.072,34.692L139.221,34.692L139.378,34.692L139.52,34.692L139.667,34.692L139.965,34.692L140.115,34.692L140.272,34.692L140.413,34.692L140.56,34.692L140.859,34.692L141.009,34.692L141.166,34.692L141.308,34.692L141.454,34.692L141.752,34.692L141.901,34.692L142.057,34.692L142.201,34.692L142.348,34.692L142.646,34.692L142.795,34.692L142.952,34.692L143.094,34.692L143.242,34.692L143.541,34.692L143.69,34.692L143.848,34.692L143.989,34.692L144.135,34.692L144.435,34.692L144.584,34.692L144.741,34.692L144.883,34.692L145.03,34.692L145.328,34.692L145.477,46.231L145.635,46.231L145.776,46.231L145.923,46.231L146.222,46.231L146.371,46.231L146.528,46.231L146.671,46.231L146.817,46.231L147.115,46.231L147.265,46.231L147.422,48.538L147.563,48.538L147.711,48.538L148.01,48.538L148.159,48.538L148.315,48.538L148.457,48.538L148.605,48.538L148.903,48.538L149.052,48.538L149.209,48.538L149.351,48.538L149.498,48.538L149.798,48.538L149.947,48.538L150.104,48.538L150.245,48.538L150.392,48.538L150.691,48.538L150.841,48.538L150.998,48.538L151.139,48.538L151.286,48.538L151.585,48.538L151.734,48.538L151.892,48.538L152.033,48.538L152.18,48.538L152.478,48.538L152.628,48.538L152.785,48.538L152.928,48.538L153.073,48.538L153.373,48.538L153.522,48.538L153.678,48.538L153.82,48.538L153.967,48.538L154.265,48.538L154.414,48.538L154.573,48.538L154.713,48.538L154.861,48.538L155.159,48.538L155.308,48.538L155.465,48.538L155.606,48.538L155.755,48.538L156.054,48.538L156.203,48.538L156.36,48.538L156.501,48.538L156.648,48.538L156.947,48.538L157.097,48.538L157.254,48.538L157.543,48.538L157.842,48.538L157.991,48.538L158.148,48.538L158.289,48.538L158.436,48.538L158.736,48.538L158.885,48.538L159.042,48.538L159.183,48.538L159.33,48.538L159.629,48.538L159.779,48.538L159.936,48.538L160.076,48.538L160.224,48.538L160.523,48.538L160.671,48.538L160.828,48.538L160.97,48.538L161.118,48.538L161.416,48.538L161.565,48.538L161.722,48.538L161.864,48.538L162.011,48.538L162.31,48.538L162.46,48.538L162.618,48.538L162.759,48.538L162.905,48.538L163.204,48.538L163.353,48.538L163.51,48.538L163.653,48.538L163.799,48.538L164.098,48.538L164.247,48.538L164.404,48.538L164.547,48.538L164.693,48.538L164.992,48.538L165.141,48.538L165.298,48.538L165.439,48.538L165.587,48.538L165.886,48.538L166.034,48.538L166.191,48.538L166.333,48.538L166.48,48.538L166.779,48.538L166.928,48.538L167.084,48.538L167.227,48.538L167.374,48.538L167.672,48.538L167.821,48.538L167.978,48.538L168.12,48.538L168.268,48.538L168.567,48.538L168.716,48.538L168.873,48.538L169.015,48.538L169.162,48.538L169.46,48.538L169.61,48.538L169.768,48.538L169.909,48.538L170.056,48.538L170.355,48.538L170.504,48.538L170.662,48.538L170.803,48.538L170.95,48.538L171.249,48.538L171.397,48.538L171.555,48.538L171.696,48.538L171.843,48.538L172.142,48.538L172.291,48.538L172.449,48.538L172.59,48.538L172.737,48.538L173.035,48.538L173.184,48.538L173.34,48.538L173.483,48.538L173.63,48.538L173.931,48.538L174.08,48.538L174.245,48.538L174.385,48.538L174.524,48.538L174.824,48.538L174.973,48.538L175.131,48.538L175.273,48.538L175.418,48.538L175.718,48.538L175.867,48.538L176.022,48.538L176.166,48.538L176.312,48.538L176.611,48.538L176.761,48.538L176.918,48.538L177.06,48.538L177.206,48.538L177.505,48.538L177.654,48.538L177.812,48.538L177.953,48.538L178.099,48.538L178.399,48.538L178.548,48.538L178.705,48.538L178.847,48.538L178.994,48.538L179.293,48.538L179.441,48.538L179.597,48.538L179.74,48.538L179.888,48.538L180.186,48.538L180.334,48.538L180.492,48.538L180.635,48.538L180.781,48.538L181.08,48.538L181.231,48.538L181.388,48.538L181.529,48.538L181.675,48.538L181.973,48.538L182.124,48.538L182.281,48.538L182.422,48.538L182.569,48.538L182.867,27L183.017,27L183.175,27L183.316,27L183.463,27L183.762,27L183.911,27L184.068,27L184.21,27L184.357,27L184.656,27L184.804,27L184.961,27L185.105,27L185.25,27L185.549,27L185.697,27L185.856,27L185.996,27L186.144,27L186.442,27L186.591,27L186.748,27L186.891,27L187.037,27L187.337,27L187.486,27L187.644,27L187.785,27L187.932,27L188.23,27L188.379,27L188.538,27L188.679,27L188.825,27L189.123,27L189.272,27L189.431,27L189.572,27L189.719,27L190.018,27L190.168,27L190.325,27L190.466,27L190.614,27L190.912,27L191.061,27L191.219,27L191.361,27L191.506,27L191.805,27L191.954,27L192.111,27L192.253,27L192.4,27L192.701,27L192.848,27L193.005,27L193.146,27L193.295,27L193.593,27L193.743,27L193.901,27L194.041,27L194.189,27L194.488,27L194.637,27L194.794,27L194.935,27L195.082,27L195.381,27L195.53,27L195.689,27L195.83,27L195.976,27L196.275,27L196.424,27L196.582,27L196.723,27L196.87,27L197.169,27L197.318,27L197.476,27L197.617,27L197.763,27L198.064,27L198.211,27L198.368,27L198.512,27L198.657,27L198.956,27L199.105,27L199.262,27L199.403,27L199.551,27L199.85,27L200,27" stroke="#4c78a8" stroke-width="2"/></g></g><path class="foreground" aria-hidden="true" d="" display="none"/></g><g transform="translate(0,0)"><path class="background" aria-hidden="true" d="M0,0h200v200h-200Z"/><g><g class="mark-line role-mark marks" role="graphics-object" aria-roledescription="line mark container"><path aria-label="Time: Jan 01, 2024; Price: 2499; identifier: altex-LG-F2WR508SBM" role="graphics-symbol" aria-roledescription="line mark" d="M0,7.769L0.094,7.769L0.235,7.769L0.533,7.769L0.682,7.769L0.839,7.769L0.981,7.769L1.129,7.769L1.427,7.769L1.576,7.769L1.733,7.769L1.875,7.769L2.022,7.769L2.321,7.769L2.47,7.769L2.626,7.769L2.77,7.769L2.917,7.769L3.215,27L3.364,27L3.52,27L3.663,27L3.81,27L4.108,27L4.257,27L4.413,27L4.556,27L4.704,27L5.003,27L5.151,27L5.307,27L5.45,27L5.598,27L5.897,27L6.046,27L6.203,27L6.345,27L6.491,27L6.791,27L6.939,27L7.098,27L7.239,27L7.385,27L7.684,27L7.833,27L7.99,27L8.132,27L8.279,27L8.578,27L8.727,27L8.884,27L9.027,27L9.173,27L9.472,27L9.621,27L9.777,27L9.92,27L10.067,27L10.365,38.538L10.514,38.538L10.67,38.538L10.813,38.538L10.96,38.538L11.259,38.538L11.407,38.538L11.563,38.538L11.706,38.538L11.854,38.538L12.153,38.538L12.302,38.538L12.46,38.538L12.602,38.538L12.748,38.538L13.047,38.538L13.196,38.538L13.353,38.538L13.496,38.538L13.642,38.538L13.941,38.538L14.09,38.538L14.247,38.538L14.389,38.538L14.536,38.538L14.834,38.538L14.983,38.538L15.14,38.538L15.283,38.538L15.43,38.538L15.728,38.538L15.877,38.538L16.034,38.538L16.177,38.538L16.323,38.538L16.622,38.538L16.77,38.538L16.926,38.538L17.07,38.538L17.217,38.538L17.515,38.538L17.664,38.538L17.82,38.538L17.963,38.538L18.111,38.538L18.41,38.538L18.56,38.538L18.717,38.538L18.858,38.538L19.005,38.538L19.303,38.538L19.453,38.538L19.61,38.538L19.753,38.538L19.898,38.538L20.197,38.538L20.347,38.538L20.504,38.538L20.646,38.538L20.792,38.538L21.092,38.538L21.24,38.538L21.398,38.538L21.54,38.538L21.686,38.538L21.984,38.538L22.134,38.538L22.288,38.538L22.431,38.538L22.58,38.538L22.878,38.538L23.027,38.538L23.18,38.538L23.325,38.538L23.473,38.538L23.772,38.538L23.921,38.538L24.074,38.538L24.218,38.538L24.367,38.538L24.665,38.538L24.815,38.538L24.969,38.538L25.113,38.538L25.261,38.538L25.559,38.538L25.708,38.538L25.863,38.538L26.008,38.538L26.155,38.538L26.453,38.538L26.602,38.538L26.757,38.538L26.9,38.538L27.049,38.538L27.347,27L27.496,27L27.651,27L27.793,27L27.942,27L28.241,27L28.389,27L28.544,27L28.687,27L28.836,27L29.134,27L29.283,27L29.437,27L29.581,27L29.731,27L30.029,27L30.177,27L30.331,27L30.475,27L30.624,27L30.922,27L31.071,27L31.226,27L31.369,27L31.518,27L31.816,27L31.965,27L32.12,27L32.263,27L32.412,27L32.709,27L32.859,27L33.013,27L33.157,27L33.305,27L33.603,27L33.753,27L33.907,27L34.051,27L34.199,27L34.497,27L34.646,27L34.8,27L34.944,27L35.093,27L35.391,27L35.54,27L35.694,27L35.838,27L35.987,27L36.285,27L36.434,27L36.587,27L36.732,27L36.88,27L37.179,27L37.327,27L37.483,27L37.626,27L37.774,27L38.072,27L38.221,27L38.376,27L38.521,27L38.668,27L38.966,27L39.115,27L39.27,27L39.413,27L39.562,27L40.009,27L40.164,27L40.307,27L40.456,27L40.754,27L40.903,27L41.058,27L41.201,27L41.349,27L41.648,27L41.796,27L41.95,27L42.094,27L42.243,27L42.541,27L42.691,27L42.844,27L42.988,27L43.137,27L43.435,27L43.584,27L43.74,27L43.884,27L44.031,27L44.329,27L44.478,27L44.632,27L44.776,27L44.925,27L45.222,27L45.372,27L45.527,27L45.67,27L45.819,27L46.116,27L46.265,27L46.42,27L46.564,27L46.712,27L47.01,27L47.159,27L47.313,27L47.457,27L47.607,27L47.904,27L48.053,27L48.206,27L48.351,27L48.499,27L48.798,27L48.947,27L49.1,27L49.245,27L49.393,27L49.691,27L49.841,27L49.996,27L50.139,27L50.287,27L50.585,27L50.734,27L50.889,27L51.033,27L51.181,27L51.479,27L51.628,27L51.783,27L51.927,27L52.075,27L52.373,27L52.522,27L52.676,27L52.82,27L52.969,27L53.267,27L53.416,27L53.571,27L53.714,27L53.863,27L54.16,27L54.309,27L54.464,27L54.607,27L54.756,27L55.054,27L55.203,27L55.357,27L55.501,27L55.65,27L55.962,27L56.165,27L56.254,27L56.396,27L56.544,27L56.842,27L56.991,27L57.146,27L57.289,27L57.438,27L57.735,27L57.886,27L58.04,27L58.184,27L58.331,27L58.629,27L58.779,27L58.933,38.538L59.076,38.538L59.225,38.538L59.523,38.538L59.674,38.538L59.827,38.538L59.97,38.538L60.119,38.538L60.417,38.538L60.566,38.538L60.719,38.538L60.865,38.538L61.013,38.538L61.311,38.538L61.461,38.538L61.613,38.538L61.758,38.538L61.906,38.538L62.205,38.538L62.353,38.538L62.509,38.538L62.653,38.538L62.801,38.538L63.098,38.538L63.247,38.538L63.403,38.538L63.547,38.538L63.694,38.538L63.992,38.538L64.142,38.538L64.297,38.538L64.439,38.538L64.588,38.538L64.886,38.538L65.035,38.538L65.19,38.538L65.333,38.538L65.482,38.538L65.78,38.538L65.93,38.538L66.084,38.538L66.227,38.538L66.375,38.538L66.674,38.538L66.823,38.538L66.977,38.538L67.121,38.538L67.27,38.538L67.567,38.538L67.717,38.538L67.87,38.538L68.014,38.538L68.163,38.538L68.461,38.538L68.61,38.538L68.766,38.538L68.91,38.538L69.058,38.538L69.355,38.538L69.504,38.538L69.659,38.538L69.804,38.538L69.951,38.538L70.249,38.538L70.398,38.538L70.553,38.538L70.697,38.538L70.845,38.538L71.143,38.538L71.292,38.538L71.447,38.538L71.592,38.538L71.738,38.538L72.036,38.538L72.185,38.538L72.34,38.538L72.484,38.538L72.632,38.538L72.93,38.538L73.079,38.538L73.234,38.538L73.377,38.538L73.526,38.538L73.824,38.538L73.973,38.538L74.128,38.538L74.271,38.538L74.42,38.538L74.718,38.538L74.867,38.538L75.022,38.538L75.165,38.538L75.313,38.538L75.611,38.538L75.761,38.538L75.916,38.538L76.06,38.538L76.207,38.538L76.506,38.538L76.655,38.538L76.81,38.538L76.954,38.538L77.101,38.538L77.399,38.538L77.548,38.538L77.704,38.538L77.847,38.538L77.995,38.538L78.293,38.538L78.442,38.538L78.597,38.538L78.74,38.538L78.889,38.538L79.186,38.538L79.335,38.538L79.489,38.538L79.634,38.538L79.783,38.538L80.081,38.538L80.23,38.538L80.384,38.538L80.528,38.538L80.676,38.538L80.974,38.538L81.124,38.538L81.28,38.538L81.423,38.538L81.57,38.538L81.869,38.538L82.017,38.538L82.173,38.538L82.316,38.538L82.464,38.538L82.762,38.538L82.911,38.538L83.066,38.538L83.21,38.538L83.358,38.538L83.656,38.538L83.805,38.538L83.96,38.538L84.103,38.538L84.252,38.538L84.551,38.538L84.853,38.538L84.997,38.538L85.146,38.538L85.444,38.538L85.593,38.538L85.746,38.538L85.89,38.538L86.039,38.538L86.337,38.538L86.486,38.538L86.64,38.538L86.784,38.538L86.933,38.538L87.231,38.538L87.38,38.538L87.535,38.538L87.679,38.538L87.827,38.538L88.125,38.538L88.273,38.538L88.429,38.538L88.572,38.538L88.72,38.538L89.018,38.538L89.168,38.538L89.323,38.538L89.468,38.538L89.615,38.538L89.913,38.538L90.062,38.538L90.217,38.538L90.508,38.538L90.806,38.538L90.956,38.538L91.11,38.538L91.253,38.538L91.402,38.538L91.7,38.538L91.848,38.538L92.001,38.538L92.146,38.538L92.295,38.538L92.607,38.538L92.836,38.538L92.976,38.538L93.265,38.538L93.49,38.538L93.636,38.538L93.79,38.538L93.934,38.538L94.083,38.538L94.381,38.538L94.53,38.538L94.686,38.538L94.828,38.538L94.977,38.538L95.275,38.538L95.424,38.538L95.58,38.538L95.724,38.538L95.871,38.538L96.318,38.538L96.473,38.538L96.616,38.538L96.765,38.538L97.062,38.538L97.212,38.538L97.367,38.538L97.511,38.538L97.658,38.538L97.956,38.538L98.105,38.538L98.26,38.538L98.403,38.538L98.552,38.538L98.851,38.538L98.999,38.538L99.154,38.538L99.297,38.538L99.446,38.538L99.744,38.538L99.894,38.538L100.049,38.538L100.192,38.538L100.34,38.538L100.638,38.538L100.787,38.538L100.943,38.538L101.086,38.538L101.234,38.538L101.531,38.538L101.682,38.538L101.841,38.538L101.979,38.538L102.128,38.538L102.425,38.538L102.575,38.538L102.726,38.538L102.873,38.538L103.021,38.538L103.319,38.538L103.469,38.538L103.624,38.538L103.767,38.538L103.916,38.538L104.213,38.538L104.362,38.538L104.516,38.538L104.66,38.538L104.808,38.538L105.107,38.538L105.256,38.538L105.411,38.538L105.553,38.538L105.702,38.538L106,38.538L106.151,38.538L106.306,38.538L106.448,38.538L106.596,38.538L106.894,38.538L107.044,38.538L107.2,38.538L107.342,38.538L107.49,38.538L107.788,38.538L107.94,38.538L108.094,38.538L108.236,38.538L108.384,38.538L108.682,38.538L108.831,38.538L108.988,38.538L109.13,38.538L109.278,38.538L109.576,38.538L109.724,38.538L109.88,38.538L110.024,38.538L110.171,38.538L110.469,38.538L110.618,38.538L110.773,38.538L110.916,38.538L111.065,38.538L111.363,38.538L111.513,38.538L111.667,38.538L111.81,38.538L111.959,38.538L112.257,38.538L112.407,38.538L112.563,38.538L112.706,38.538L112.853,38.538L113.151,38.538L113.3,38.538L113.456,30.846L113.599,30.846L113.747,30.846L114.044,30.846L114.194,30.846L114.352,30.846L114.494,30.846L114.64,30.846L114.939,30.846L115.089,30.846L115.244,30.846L115.389,30.846L115.535,30.846L115.832,30.846L115.981,30.846L116.138,30.846L116.28,30.846L116.428,30.846L116.726,30.846L116.875,30.846L117.03,30.846L117.173,30.846L117.322,30.846L117.62,30.846L117.769,30.846L117.925,30.846L118.067,30.846L118.216,30.846L118.514,30.846L118.663,30.846L118.82,30.846L118.962,30.846L119.11,30.846L119.407,30.846L119.557,30.846L119.714,30.846L119.856,30.846L120.003,30.846L120.302,30.846L120.451,30.846L120.608,30.846L120.749,30.846L120.897,30.846L121.195,30.846L121.345,30.846L121.502,30.846L121.643,30.846L121.791,30.846L122.089,30.846L122.238,30.846L122.395,30.846L122.537,30.846L122.684,30.846L122.982,30.846L123.132,30.846L123.288,30.846L123.43,30.846L123.578,30.846L123.877,30.846L124.025,30.846L124.181,30.846L124.324,30.846L124.472,30.846L124.772,30.846L124.92,30.846L125.077,30.846L125.219,30.846L125.366,30.846L125.664,30.846L125.814,30.846L125.971,30.846L126.112,30.846L126.26,30.846L126.558,30.846L126.708,30.846L126.865,38.538L127.007,38.538L127.153,38.538L127.451,38.538L127.601,38.538L127.758,38.538L127.9,38.538L128.047,38.538L128.347,38.538L128.495,38.538L128.652,38.538L128.793,38.538L128.942,38.538L129.24,38.538L129.388,38.538L129.544,38.538L129.687,38.538L129.835,38.538L130.134,38.538L130.282,38.538L130.438,38.538L130.58,38.538L130.73,38.538L131.027,38.538L131.177,38.538L131.334,38.538L131.476,38.538L131.622,38.538L131.923,38.538L132.071,38.538L132.227,38.538L132.369,38.538L132.516,38.538L132.816,38.538L132.965,38.538L133.121,38.538L133.263,38.538L133.41,38.538L133.71,38.538L133.858,38.538L134.015,38.538L134.156,38.538L134.304,38.538L134.603,30.846L134.752,30.846L134.908,30.846L135.05,30.846L135.198,30.846L135.496,30.846L135.645,30.846L135.801,30.846L135.943,30.846L136.091,30.846L136.39,30.846L136.539,30.846L136.694,30.846L136.837,30.846L136.985,30.846L137.284,30.846L137.433,30.846L137.591,30.846L137.732,30.846L137.88,30.846L138.177,30.846L138.327,30.846L138.484,30.846L138.626,30.846L138.773,30.846L139.072,30.846L139.221,30.846L139.378,30.846L139.52,30.846L139.667,30.846L139.965,30.846L140.115,30.846L140.272,30.846L140.413,30.846L140.56,30.846L140.859,30.846L141.009,30.846L141.166,30.846L141.308,30.846L141.454,30.846L141.752,30.846L141.901,30.846L142.057,30.846L142.201,30.846L142.348,30.846L142.646,30.846L142.795,30.846L142.952,30.846L143.094,30.846L143.242,30.846L143.541,30.846L143.691,30.846L143.848,30.846L143.989,30.846L144.135,30.846L144.435,30.846L144.584,30.846L144.741,30.846L144.883,30.846L145.03,30.846L145.328,30.846L145.478,34.692L145.635,34.692L145.776,34.692L145.923,34.692L146.222,34.692L146.371,34.692L146.528,34.692L146.671,34.692L146.817,34.692L147.116,34.692L147.265,34.692L147.422,40.077L147.563,40.077L147.711,40.077L148.01,40.077L148.159,40.077L148.315,40.077L148.457,40.077L148.605,40.077L148.903,40.077L149.052,40.077L149.209,40.077L149.351,40.077L149.498,40.077L149.798,40.077L149.947,40.077L150.104,40.077L150.245,40.077L150.392,40.077L150.691,40.077L150.841,40.077L150.998,40.077L151.139,40.077L151.286,40.077L151.585,40.077L151.734,40.077L151.892,40.077L152.033,40.077L152.18,40.077L152.478,40.077L152.628,40.077L152.785,40.077L152.928,40.077L153.073,40.077L153.373,40.077L153.522,40.077L153.678,40.077L153.82,40.077L153.967,40.077L154.265,40.077L154.415,40.077L154.573,40.077L154.713,40.077L154.861,40.077L155.159,40.077L155.308,40.077L155.465,40.077L155.606,40.077L155.755,40.077L156.054,40.077L156.203,40.077L156.36,40.077L156.502,40.077L156.649,40.077L156.947,40.077L157.097,40.077L157.254,40.077L157.543,40.077L157.842,40.077L157.991,40.077L158.148,40.077L158.289,40.077L158.436,40.077L158.737,40.077L158.885,40.077L159.042,40.077L159.184,40.077L159.33,40.077L159.629,40.077L159.779,40.077L159.936,40.077L160.076,40.077L160.224,40.077L160.523,40.077L160.672,40.077L160.828,40.077L160.97,40.077L161.118,40.077L161.416,40.077L161.565,40.077L161.722,40.077L161.864,40.077L162.011,40.077L162.31,40.077L162.46,40.077L162.618,40.077L162.759,40.077L162.905,40.077L163.204,40.077L163.353,40.077L163.51,40.077L163.653,40.077L163.799,40.077L164.098,40.077L164.247,40.077L164.405,40.077L164.547,40.077L164.693,40.077L164.992,40.077L165.141,40.077L165.298,40.077L165.439,40.077L165.587,40.077L165.886,40.077L166.034,40.077L166.191,40.077L166.333,40.077L166.48,40.077L166.779,40.077L166.928,40.077L167.084,40.077L167.227,40.077L167.374,40.077L167.672,40.077L167.821,40.077L167.978,40.077L168.12,40.077L168.268,40.077L168.567,40.077L168.717,40.077L168.873,40.077L169.015,40.077L169.162,40.077L169.46,40.077L169.61,40.077L169.768,40.077L169.909,40.077L170.056,40.077L170.355,40.077L170.504,40.077L170.662,40.077L170.803,40.077L170.95,40.077L171.249,40.077L171.397,40.077L171.555,40.077L171.696,40.077L171.843,40.077L172.142,40.077L172.291,40.077L172.449,40.077L172.59,40.077L172.737,40.077L173.035,40.077L173.184,40.077L173.34,40.077L173.483,40.077L173.63,40.077L173.931,40.077L174.08,40.077L174.245,40.077L174.385,40.077L174.524,40.077L174.824,40.077L174.973,40.077L175.131,40.077L175.273,40.077L175.418,40.077L175.718,40.077L175.867,40.077L176.022,40.077L176.166,40.077L176.312,40.077L176.611,40.077L176.761,40.077L176.918,40.077L177.06,40.077L177.206,40.077L177.505,40.077L177.654,40.077L177.812,40.077L177.953,40.077L178.1,40.077L178.399,40.077L178.548,40.077L178.705,40.077L178.847,40.077L178.994,40.077L179.293,40.077L179.441,40.077L179.598,40.077L179.74,40.077L179.888,40.077L180.186,40.077L180.334,40.077L180.492,40.077L180.635,40.077L180.781,40.077L181.08,40.077L181.231,40.077L181.388,40.077L181.529,40.077L181.675,40.077L181.973,40.077L182.124,40.077L182.281,40.077L182.422,40.077L182.569,40.077L182.867,40.077L183.017,40.077L183.175,40.077L183.316,40.077L183.463,40.077L183.762,40.077L183.911,40.077L184.068,40.077L184.21,40.077L184.357,40.077L184.656,40.077L184.804,40.077L184.961,40.077L185.105,40.077L185.25,40.077L185.549,40.077L185.697,40.077L185.856,40.077L185.996,40.077L186.144,40.077L186.442,40.077L186.591,40.077L186.748,40.077L186.891,40.077L187.037,40.077L187.337,40.077L187.486,40.077L187.644,40.077L187.785,40.077L187.932,40.077L188.23,40.077L188.379,40.077L188.538,40.077L188.679,40.077L188.825,40.077L189.123,40.077L189.272,40.077L189.432,40.077L189.572,40.077L189.719,40.077L190.018,40.077L190.168,40.077L190.325,40.077L190.466,40.077L190.614,40.077L190.912,40.077L191.062,40.077L191.219,40.077L191.361,40.077L191.506,40.077L191.805,40.077L191.954,40.077L192.111,40.077L192.253,40.077L192.4,40.077L192.701,40.077L192.848,40.077L193.005,40.077L193.146,40.077L193.295,40.077L193.593,40.077L193.743,40.077L193.901,40.077L194.041,40.077L194.189,40.077L194.488,40.077L194.637,40.077L194.794,40.077L194.935,40.077L195.082,40.077L195.381,40.077L195.53,40.077L195.689,40.077L195.83,40.077L195.976,40.077L196.275,40.077L196.424,40.077L196.582,40.077L196.723,40.077L196.87,40.077L197.169,40.077L197.318,40.077L197.476,40.077L197.617,40.077L197.763,40.077L198.064,40.077L198.211,40.077L198.368,40.077L198.512,40.077L198.657,40.077L198.956,40.077L199.105,40.077L199.262,40.077L199.403,40.077L199.551,40.077L199.85,40.077L200,40.077" stroke="#f58518" stroke-width="2"/></g></g><path class="foreground" aria-hidden="true" d="" display="none"/></g></g><g class="mark-group role-legend" role="graphics-symbol" aria-roledescription="legend" aria-label="Symbol legend titled 'identifier' for stroke color with 2 values: altex-LG-F2WR508SBW, altex-LG-F2WR508SBM"><g transform="translate(220,0)"><path class="background" aria-hidden="true" d="M0,0h168v40h-168Z" pointer-events="none"/><g><g class="mark-group role-legend-entry"><g transform="translate(0,16)"><path class="background" aria-hidden="true" d="M0,0h0v0h0Z" pointer-events="none"/><g><g class="mark-group role-scope" role="graphics-object" aria-roledescription="group mark container"><g transform="translate(0,0)"><path class="background" aria-hidden="true" d="M0,0h168v11h-168Z" pointer-events="none" opacity="1"/><g><g class="mark-symbol role-legend-symbol" pointer-events="none"><path transform="translate(6,6)" d="M-5,0L5,0" stroke="#4c78a8" stroke-width="1.5" opacity="1"/></g><g class="mark-text role-legend-label" pointer-events="none"><text text-anchor="start" transform="translate(16,9)" font-family="Liberation Mono" font-size="10px" fill="#000" opacity="1">altex-LG-F2WR508SBW</text></g></g><path class="foreground" aria-hidden="true" d="" pointer-events="none" display="none"/></g><g transform="translate(0,13)"><path class="background" aria-hidden="true" d="M0,0h168v11h-168Z" pointer-events="none" opacity="1"/><g><g class="mark-symbol role-legend-symbol" pointer-events="none"><path transform="translate(6,6)" d="M-5,0L5,0" stroke="#f58518" stroke-width="1.5" opacity="1"/></g><g class="mark-text role-legend-label" pointer-events="none"><text text-anchor="start" transform="translate(16,9)" font-family="Liberation Mono" font-size="10px" fill="#000" opacity="1">altex-LG-F2WR508SBM</text></g></g><path class="foreground" aria-hidden="true" d="" pointer-events="none" display="none"/></g></g></g><path class="foreground" aria-hidden="true" d="" pointer-events="none" display="none"/></g></g><g class="mark-text role-legend-title" pointer-events="none"><text text-anchor="start" transform="translate(0,9)" font-family="Liberation Mono" font-size="11px" font-weight="bold" fill="#000" opacity="1">identifier</text></g></g><path class="foreground" aria-hidden="true" d="" pointer-events="none" display="none"/></g></g></g><path class="foreground" aria-hidden="true" d="" display="none"/></g></g></g></svg>