<svg xmlns="http://www.w3.org/2000/svg" xmlns:xlink="http://www.w3.org/1999/xlink" version="1.1" class="marks" width="460" height="242" viewBox="0 0 460 242"><rect width="460" height="242" fill="white"/><g fill="none" stroke-miterlimit="10" transform="translate(67,5)"><g class="mark-group role-frame root" role="graphics-object" aria-roledescription="group mark container"><g transform="translate(0,0)"><path class="background" aria-hidden="true" d="M0.5,0.5h200v200h-200Z" stroke="#ddd"/><g><g class="mark-group role-axis" aria-hidden="true"><g transform="translate(0.5,200.5)"><path class="background" aria-hidden="true" d="M0,0h0v0h0Z" pointer-events="none"/><g><g class="mark-rule role-axis-grid" pointer-events="none"><line transform="translate(61,-200)" x2="0" y2="200" stroke="#ddd" stroke-width="1" opacity="1"/><line transform="translate(120,-200)" x2="0" y2="200" stroke="#ddd" stroke-width="1" opacity="1"/><line transform="translate(182,-200)" x2="0" y2="200" stroke="#ddd" stroke-width="1" opacity="1"/></g></g><path class="foreground" aria-hidden="true" d="" pointer-events="none" display="none"/></g></g><g class="mark-group role-axis" aria-hidden="true"><g transform="translate(0.5,0.5)"><path class="background" aria-hidden="true" d="M0,0h0v0h0Z" pointer-events="none"/><g><g class="mark-rule role-axis-grid" pointer-events="none"><line transform="translate(0,200)" x2="200" y2="0" stroke="#ddd" stroke-width="1" opacity="1"/><line transform="translate(0,162)" x2="200" y2="0" stroke="#ddd" stroke-width="1" opacity="1"/><line transform="translate(0,123)" x2="200" y2="0" stroke="#ddd" stroke-width="1" opacity="1"/><line transform="translate(0,85)" x2="200" y2="0" stroke="#ddd" stroke-width="1" opacity="1"/><line transform="translate(0,46)" x2="200" y2="0" stroke="#ddd" stroke-width="1" opacity="1"/><line transform="translate(0,8)" x2="200" y2="0" stroke="#ddd" stroke-width="1" opacity="1"/></g></g><path class="foreground" aria-hidden="true" d="" pointer-events="none" display="none"/></g></g><g class="mark-group role-axis" role="graphics-symbol" aria-roledescription="axis" aria-label="X-axis titled 'Time' for a time scale with values from Monday, 01 January 2024, 2:19:43 PM to Tuesday, 09 April 2024, 8:38:27 PM"><g transform="translate(0.5,200.5)"><path class="background" aria-hidden="true" d="M0,0h0v0h0Z" pointer-events="none"/><g><g class="mark-rule role-axis-tick" pointer-events="none"><line transform="translate(61,0)" x2="0" y2="5" stroke="#888" stroke-width="1" opacity="1"/><line transform="translate(120,0)" x2="0" y2="5" stroke="#888" stroke-width="1" opacity="1"/><line transform="translate(182,0)" x2="0" y2="5" stroke="#888" stroke-width="1" opacity="1"/></g><g class="mark-text role-axis-label" pointer-events="none"><text text-anchor="middle" transform="translate(61.25740848346479,15)" font-family="Liberation Mono" font-size="10px" fill="#000" opacity="1">February</text><text text-anchor="middle" transform="translate(119.68803753293602,15)" font-family="Liberation Mono" font-size="10px" fill="#000" opacity="1">March</text><text text-anchor="middle" transform="translate(182.1483651375432,15)" font-family="Liberation Mono" font-size="10px" fill="#000" opacity="1">April</text></g><g class="mark-rule role-axis-domain" pointer-events="none"><line transform="translate(0,0)" x2="200" y2="0" stroke="#888" stroke-width="1" opacity="1"/></g><g class="mark-text role-axis-title" pointer-events="none"><text text-anchor="middle" transform="translate(100,30)" font-family="Liberation Mono" font-size="11px" font-weight="bold" fill="#000" opacity="1">Time</text></g></g><path class="foreground" aria-hidden="true" d="" pointer-events="none" display="none"/></g></g><g class="mark-group role-axis" role="graphics-symbol" aria-roledescription="axis" aria-label="Y-axis titled 'Price' for a linear scale with values from 0 to 2,600"><g transform="translate(0.5,0.5)"><path class="background" aria-hidden="true" d="M0,0h0v0h0Z" pointer-events="none"/><g><g class="mark-rule role-axis-tick" pointer-events="none"><line transform="translate(0,200)" x2="-5" y2="0" stroke="#888" stroke-width="1" opacity="1"/><line transform="translate(0,162)" x2="-5" y2="0" stroke="#888" stroke-width="1" opacity="1"/><line transform="translate(0,123)" x2="-5" y2="0" stroke="#888" stroke-width="1" opacity="1"/><line transform="translate(0,85)" x2="-5" y2="0" stroke="#888" stroke-width="1" opacity="1"/><line transform="translate(0,46)" x2="-5" y2="0" stroke="#888" stroke-width="1" opacity="1"/><line transform="translate(0,8)" x2="-5" y2="0" stroke="#888" stroke-width="1" opacity="1"/></g><g class="mark-text role-axis-label" pointer-events="none"><text text-anchor="end" transform="translate(-7,203)" font-family="Liberation Mono" font-size="10px" fill="#000" opacity="1">0</text><text text-anchor="end" transform="translate(-7,164.53846153846155)" font-family="Liberation Mono" font-size="10px" fill="#000" opacity="1">500</text><text text-anchor="end" transform="translate(-7,126.07692307692308)" font-family="Liberation Mono" font-size="10px" fill="#000" opacity="1">1,000</text><text text-anchor="end" transform="translate(-7,87.61538461538463)" font-family="Liberation Mono" font-size="10px" fill="#000" opacity="1">1,500</text><text text-anchor="end" transform="translate(-7,49.153846153846146)" font-family="Liberation Mono" font-size="10px" fill="#000" opacity="1">2,000</text><text text-anchor="end" transform="translate(-7,10.692307692307686)" font-family="Liberation Mono" font-size="10px" fill="#000" opacity="1">2,500</text></g><g class="mark-rule role-axis-domain" pointer-events="none"><line transform="translate(0,200)" x2="0" y2="-200" stroke="#888" stroke-width="1" opacity="1"/></g><g class="mark-text role-axis-title" pointer-events="none"><text text-anchor="middle" transform="translate(-51,100) rotate(-90) translate(0,-2)" font-family="Liberation Mono" font-size="11px" font-weight="bold" fill="#000" opacity="1">Price</text></g></g><path class="foreground" aria-hidden="true" d="" pointer-events="none" display="none"/></g></g><g class="mark-group role-scope pathgroup" role="graphics-object" aria-roledescription="group mark container"><g transform="translate(0,0)"><path class="background" aria-hidden="true" d="M0,0h200v200h-200Z"/><g><g class="mark-line role-mark marks" role="graphics-object" aria-roledescription="line mark container"><path aria-label="Time: Jan 01, 2024; Price: 2399; identifier: altex-LG-F2WR508SBW" role="graphics-symbol" aria-roledescription="line mark" d="M0,15.462L0.211,15.462L0.53,15.462L1.202,15.462L1.538,15.462L1.891,15.462L2.212,15.462L2.545,15.462L3.217,15.462L3.553,15.462L3.906,15.462L4.227,15.462L4.559,15.462L5.232,15.462L5.568,15.462L5.92,15.462L6.244,15.462L6.575,15.462L7.247,34.692L7.583,34.692L7.935,34.692L8.258,34.692L8.589,34.692L9.262,34.692L9.597,34.692L9.949,34.692L10.271,34.692L10.604,34.692L11.278,34.692L11.612,34.692L11.963,34.692L12.286,34.692L12.619,34.692L13.292,34.692L13.629,34.692L13.982,34.692L14.304,34.692L14.633,34.692L15.308,34.692L15.643,34.692L16.001,34.692L16.319,34.692L16.649,34.692L17.322,34.692L17.658,34.692L18.012,34.692L18.332,34.692L18.663,34.692L19.337,34.692L19.673,34.692L20.027,34.692L20.348,34.692L20.678,34.692L21.351,34.692L21.688,34.692L22.04,34.692L22.362,34.692L22.693,34.692L23.365,46.231L23.701,46.231L24.052,46.231L24.375,46.231L24.708,46.231L25.382,46.231L25.715,46.231L26.067,46.231L26.389,46.231L26.723,46.231L27.397,46.231L27.733,46.231L28.088,46.231L28.408,46.231L28.738,46.231L29.411,46.231L29.748,46.231L30.102,46.231L30.423,46.231L30.752,46.231L31.426,46.231L31.763,46.231L32.117,46.231L32.438,46.231L32.767,46.231L33.44,46.231L33.776,46.231L34.131,46.231L34.451,46.231L34.783,46.231L35.456,46.231L35.792,46.231L36.146,46.231L36.468,46.231L36.797,46.231L37.47,46.231L37.804,46.231L38.157,46.231L38.481,46.231L38.812,46.231L39.484,46.231L39.819,46.231L40.171,46.231L40.494,46.231L40.827,46.231L41.502,46.231L41.838,46.231L42.192,46.231L42.511,46.231L42.842,46.231L43.515,46.231L43.853,46.231L44.207,46.231L44.528,46.231L44.856,46.231L45.531,46.231L45.867,46.231L46.221,46.231L46.542,46.231L46.872,46.231L47.546,46.231L47.881,46.231L48.236,46.231L48.558,46.231L48.886,46.231L49.559,46.231L49.896,46.231L50.244,46.231L50.566,46.231L50.902,46.231L51.572,46.231L51.909,46.231L52.254,46.231L52.58,46.231L52.915,46.231L53.588,46.231L53.923,46.231L54.27,46.231L54.595,46.231L54.931,46.231L55.602,46.231L55.939,46.231L56.288,46.231L56.61,46.231L56.946,46.231L57.617,46.231L57.953,46.231L58.302,46.231L58.629,46.231L58.96,46.231L59.632,46.231L59.968,46.231L60.317,46.231L60.639,46.231L60.975,46.231L61.647,34.692L61.983,34.692L62.333,34.692L62.654,34.692L62.99,34.692L63.662,34.692L63.997,34.692L64.347,34.692L64.669,34.692L65.005,34.692L65.677,34.692L66.013,34.692L66.359,34.692L66.684,34.692L67.021,34.692L67.693,34.692L68.028,34.692L68.373,34.692L68.698,34.692L69.034,34.692L69.706,34.692L70.043,34.692L70.393,34.692L70.714,34.692L71.049,34.692L71.721,34.692L72.057,34.692L72.407,34.692L72.729,34.692L73.064,34.692L73.736,34.692L74.072,34.692L74.421,34.692L74.746,34.692L75.079,34.692L75.751,34.692L76.088,34.692L76.436,34.692L76.76,34.692L77.094,34.692L77.766,34.692L78.102,34.692L78.449,34.692L78.774,34.692L79.11,34.692L79.78,34.692L80.116,34.692L80.463,34.692L80.788,34.692L81.124,34.692L81.797,34.692L82.132,34.692L82.478,34.692L82.803,34.692L83.139,34.692L83.811,34.692L84.146,34.692L84.497,34.692L84.818,34.692L85.153,34.692L85.825,34.692L86.161,34.692L86.51,34.692L86.837,34.692L87.168,34.692L87.84,34.692L88.176,34.692L88.525,34.692L88.848,34.692L89.183,34.692L90.191,34.692L90.54,34.692L90.863,34.692L91.198,34.692L91.87,34.692L92.206,34.692L92.555,34.692L92.879,34.692L93.213,34.692L93.885,34.692L94.22,34.692L94.566,34.692L94.892,34.692L95.227,34.692L95.9,34.692L96.237,34.692L96.582,34.692L96.907,34.692L97.243,34.692L97.914,34.692L98.251,34.692L98.601,34.692L98.926,34.692L99.257,34.692L99.93,34.692L100.265,34.692L100.613,34.692L100.938,34.692L101.273,34.692L101.944,34.692L102.28,34.692L102.63,34.692L102.953,34.692L103.288,34.692L103.959,34.692L104.294,34.692L104.644,34.692L104.968,34.692L105.302,34.692L105.974,34.692L106.309,34.692L106.657,34.692L106.981,34.692L107.319,34.692L107.988,34.692L108.324,34.692L108.67,34.692L108.996,34.692L109.331,34.692L110.003,34.692L110.34,34.692L110.685,34.692L111.013,34.692L111.346,34.692L112.018,34.692L112.355,34.692L112.704,34.692L113.027,34.692L113.361,34.692L114.033,34.692L114.369,34.692L114.717,34.692L115.042,34.692L115.376,34.692L116.048,34.692L116.384,34.692L116.732,34.692L117.057,34.692L117.391,34.692L118.063,34.692L118.398,34.692L118.746,34.692L119.07,34.692L119.405,34.692L120.077,34.692L120.415,34.692L120.763,34.692L121.086,34.692L121.421,34.692L122.092,34.692L122.428,34.692L122.777,34.692L123.1,34.692L123.436,34.692L124.107,34.692L124.443,34.692L124.789,34.692L125.114,34.692L125.451,34.692L126.153,34.692L126.612,34.692L126.812,34.692L127.132,34.692L127.465,34.692L128.136,34.692L128.472,34.692L128.824,34.692L129.145,34.692L129.48,34.692L130.151,34.692L130.49,34.692L130.838,34.692L131.162,34.692L131.495,34.692L132.166,34.692L132.503,34.692L132.851,34.692L133.174,34.692L133.51,34.692L134.182,34.692L134.522,34.692L134.866,34.692L135.188,34.692L135.524,34.692L136.197,34.692L136.532,34.692L136.877,34.692L137.205,34.692L137.539,34.692L138.211,34.692L138.549,34.692L138.893,34.692L139.22,34.692L139.554,34.692L140.227,34.692L140.562,34.692L140.912,34.692L141.236,34.692L141.57,34.692L142.241,34.692L142.577,34.692L142.927,34.692L143.251,34.692L143.584,34.692L144.256,34.692L144.594,34.692L144.942,34.692L145.263,34.692L145.599,34.692L146.27,34.692L146.607,34.692L146.957,34.692L147.279,34.692L147.614,34.692L148.285,34.692L148.623,34.692L148.97,34.692L149.294,34.692L149.628,34.692L150.3,34.692L150.637,34.692L150.984,34.692L151.308,34.692L151.645,34.692L152.315,34.692L152.653,34.692L152.998,34.692L153.322,34.692L153.659,34.692L154.33,34.692L154.666,34.692L155.018,34.692L155.341,34.692L155.675,34.692L156.346,34.692L156.681,34.692L157.03,34.692L157.356,34.692L157.688,34.692L158.36,34.692L158.696,34.692L159.045,34.692L159.371,34.692L159.704,34.692L160.375,34.692L160.711,34.692L161.061,34.692L161.387,34.692L161.718,34.692L162.389,34.692L162.725,34.692L163.075,34.692L163.398,34.692L163.733,34.692L164.404,34.692L164.74,34.692L165.088,34.692L165.411,34.692L165.747,34.692L166.419,34.692L166.755,34.692L167.105,34.692L167.426,34.692L167.762,34.692L168.434,34.692L168.77,34.692L169.12,34.692L169.443,34.692L169.777,34.692L170.449,34.692L170.787,34.692L171.135,34.692L171.459,34.692L171.792,34.692L172.466,34.692L172.801,34.692L173.151,34.692L173.476,34.692L173.807,34.692L174.478,34.692L174.814,34.692L175.165,34.692L175.488,34.692L175.821,34.692L176.494,34.692L176.829,34.692L177.18,34.692L177.502,34.692L177.836,34.692L178.508,34.692L178.844,34.692L179.19,34.692L179.517,34.692L179.853,34.692L180.524,34.692L180.861,34.692L181.207,34.692L181.532,34.692L181.866,34.692L182.537,34.692L182.876,34.692L183.226,34.692L183.55,34.692L183.881,34.692L184.554,34.692L184.889,34.692L185.24,34.692L185.564,34.692L185.895,34.692L186.567,34.692L186.903,34.692L187.253,34.692L187.578,34.692L187.911,34.692L188.584,34.692L188.919,34.692L189.269,34.692L189.592,34.692L189.926,34.692L190.6,34.692L191.282,34.692L191.607,34.692L191.942,34.692L192.613,34.692L192.949,34.692L193.295,34.692L193.62,34.692L193.955,34.692L194.627,34.692L194.963,34.692L195.31,34.692L195.634,34.692L195.97,34.692L196.643,34.692L196.977,34.692L197.329,34.692L197.652,34.692L197.985,34.692L198.657,34.692L198.992,34.692L199.343,34.692L199.666,34.692L200,34.692" stroke="#4c78a8" stroke-width="2"/></g></g><path class="foreground" aria-hidden="true" d="" display="none"/></g><g transform="translate(0,0)"><path class="background" aria-hidden="true" d="M0,0h200v200h-200Z"/><g><g class="mark-line role-mark marks" role="graphics-object" aria-roledescription="line mark container"><path aria-label="Time: Jan 01, 2024; Price: 2499; identifier: altex-LG-F2WR508SBM" role="graphics-symbol" aria-roledescription="line mark" d="M0,7.769L0.211,7.769L0.53,7.769L1.202,7.769L1.538,7.769L1.891,7.769L2.212,7.769L2.545,7.769L3.217,7.769L3.553,7.769L3.906,7.769L4.227,7.769L4.559,7.769L5.232,7.769L5.568,7.769L5.92,7.769L6.244,7.769L6.575,7.769L7.247,27L7.583,27L7.935,27L8.258,27L8.589,27L9.262,27L9.597,27L9.949,27L10.271,27L10.604,27L11.278,27L11.612,27L11.963,27L12.286,27L12.619,27L13.292,27L13.629,27L13.982,27L14.304,27L14.633,27L15.308,27L15.643,27L16.001,27L16.319,27L16.649,27L17.322,27L17.658,27L18.012,27L18.332,27L18.664,27L19.337,27L19.673,27L20.027,27L20.349,27L20.678,27L21.351,27L21.688,27L22.041,27L22.362,27L22.693,27L23.365,38.538L23.701,38.538L24.052,38.538L24.375,38.538L24.708,38.538L25.382,38.538L25.715,38.538L26.067,38.538L26.389,38.538L26.723,38.538L27.397,38.538L27.733,38.538L28.088,38.538L28.408,38.538L28.738,38.538L29.411,38.538L29.748,38.538L30.102,38.538L30.424,38.538L30.753,38.538L31.426,38.538L31.763,38.538L32.117,38.538L32.438,38.538L32.767,38.538L33.44,38.538L33.776,38.538L34.131,38.538L34.451,38.538L34.783,38.538L35.456,38.538L35.792,38.538L36.146,38.538L36.468,38.538L36.797,38.538L37.47,38.538L37.804,38.538L38.157,38.538L38.481,38.538L38.812,38.538L39.484,38.538L39.82,38.538L40.171,38.538L40.494,38.538L40.827,38.538L41.502,38.538L41.838,38.538L42.193,38.538L42.512,38.538L42.842,38.538L43.515,38.538L43.853,38.538L44.207,38.538L44.528,38.538L44.856,38.538L45.531,38.538L45.867,38.538L46.221,38.538L46.542,38.538L46.872,38.538L47.546,38.538L47.881,38.538L48.236,38.538L48.558,38.538L48.886,38.538L49.559,38.538L49.896,38.538L50.244,38.538L50.566,38.538L50.902,38.538L51.573,38.538L51.909,38.538L52.254,38.538L52.58,38.538L52.915,38.538L53.588,38.538L53.924,38.538L54.27,38.538L54.595,38.538L54.931,38.538L55.603,38.538L55.939,38.538L56.288,38.538L56.61,38.538L56.946,38.538L57.617,38.538L57.953,38.538L58.302,38.538L58.629,38.538L58.96,38.538L59.632,38.538L59.968,38.538L60.318,38.538L60.64,38.538L60.975,38.538L61.647,27L61.983,27L62.333,27L62.654,27L62.99,27L63.662,27L63.997,27L64.347,27L64.669,27L65.005,27L65.677,27L66.013,27L66.359,27L66.684,27L67.021,27L67.693,27L68.028,27L68.373,27L68.699,27L69.034,27L69.706,27L70.043,27L70.393,27L70.714,27L71.049,27L71.721,27L72.057,27L72.407,27L72.729,27L73.064,27L73.736,27L74.072,27L74.421,27L74.746,27L75.079,27L75.751,27L76.088,27L76.436,27L76.76,27L77.094,27L77.766,27L78.102,27L78.449,27L78.774,27L79.11,27L79.78,27L80.116,27L80.463,27L80.788,27L81.124,27L81.797,27L82.132,27L82.478,27L82.803,27L83.139,27L83.811,27L84.146,27L84.497,27L84.818,27L85.153,27L85.825,27L86.161,27L86.51,27L86.837,27L87.168,27L87.84,27L88.176,27L88.525,27L88.848,27L89.183,27L90.191,27L90.54,27L90.863,27L91.198,27L91.87,27L92.206,27L92.555,27L92.879,27L93.213,27L93.885,27L94.22,27L94.566,27L94.892,27L95.228,27L95.9,27L96.237,27L96.582,27L96.907,27L97.243,27L97.914,27L98.251,27L98.601,27L98.926,27L99.257,27L99.93,27L100.265,27L100.613,27L100.938,27L101.273,27L101.944,27L102.28,27L102.63,27L102.953,27L103.288,27L103.959,27L104.294,27L104.644,27L104.968,27L105.302,27L105.974,27L106.309,27L106.658,27L106.981,27L107.319,27L107.989,27L108.324,27L108.67,27L108.996,27L109.331,27L110.003,27L110.34,27L110.685,27L111.013,27L111.346,27L112.018,27L112.355,27L112.704,27L113.027,27L113.361,27L114.033,27L114.369,27L114.717,27L115.042,27L115.376,27L116.048,27L116.384,27L116.732,27L117.057,27L117.391,27L118.063,27L118.398,27L118.746,27L119.07,27L119.406,27L120.077,27L120.415,27L120.763,27L121.086,27L121.421,27L122.093,27L122.428,27L122.777,27L123.1,27L123.436,27L124.107,27L124.443,27L124.789,27L125.115,27L125.451,27L126.153,27L126.612,27L126.812,27L127.132,27L127.466,27L128.137,27L128.472,27L128.824,27L129.145,27L129.48,27L130.152,27L130.49,27L130.838,27L131.162,27L131.495,27L132.166,27L132.503,27L132.851,38.538L133.174,38.538L133.51,38.538L134.182,38.538L134.522,38.538L134.866,38.538L135.188,38.538L135.524,38.538L136.197,38.538L136.532,38.538L136.877,38.538L137.205,38.538L137.539,38.538L138.211,38.538L138.549,38.538L138.893,38.538L139.22,38.538L139.554,38.538L140.228,38.538L140.562,38.538L140.912,38.538L141.236,38.538L141.57,38.538L142.241,38.538L142.577,38.538L142.927,38.538L143.251,38.538L143.584,38.538L144.256,38.538L144.594,38.538L144.942,38.538L145.263,38.538L145.599,38.538L146.271,38.538L146.607,38.538L146.957,38.538L147.279,38.538L147.614,38.538L148.285,38.538L148.623,38.538L148.97,38.538L149.294,38.538L149.628,38.538L150.3,38.538L150.638,38.538L150.984,38.538L151.308,38.538L151.645,38.538L152.315,38.538L152.653,38.538L152.998,38.538L153.322,38.538L153.659,38.538L154.33,38.538L154.666,38.538L155.018,38.538L155.341,38.538L155.675,38.538L156.346,38.538L156.681,38.538L157.03,38.538L157.356,38.538L157.688,38.538L158.36,38.538L158.696,38.538L159.045,38.538L159.371,38.538L159.704,38.538L160.375,38.538L160.712,38.538L161.061,38.538L161.387,38.538L161.718,38.538L162.39,38.538L162.725,38.538L163.075,38.538L163.398,38.538L163.733,38.538L164.405,38.538L164.74,38.538L165.089,38.538L165.411,38.538L165.747,38.538L166.419,38.538L166.755,38.538L167.105,38.538L167.426,38.538L167.762,38.538L168.434,38.538L168.77,38.538L169.12,38.538L169.443,38.538L169.777,38.538L170.449,38.538L170.787,38.538L171.135,38.538L171.459,38.538L171.792,38.538L172.466,38.538L172.801,38.538L173.151,38.538L173.476,38.538L173.807,38.538L174.478,38.538L174.814,38.538L175.165,38.538L175.488,38.538L175.821,38.538L176.494,38.538L176.829,38.538L177.18,38.538L177.502,38.538L177.836,38.538L178.508,38.538L178.844,38.538L179.191,38.538L179.517,38.538L179.853,38.538L180.524,38.538L180.861,38.538L181.207,38.538L181.532,38.538L181.866,38.538L182.537,38.538L182.876,38.538L183.226,38.538L183.55,38.538L183.881,38.538L184.554,38.538L184.89,38.538L185.241,38.538L185.564,38.538L185.896,38.538L186.567,38.538L186.904,38.538L187.254,38.538L187.579,38.538L187.911,38.538L188.584,38.538L188.919,38.538L189.269,38.538L189.592,38.538L189.926,38.538L190.6,38.538L191.283,38.538L191.607,38.538L191.942,38.538L192.613,38.538L192.949,38.538L193.295,38.538L193.62,38.538L193.955,38.538L194.627,38.538L194.963,38.538L195.31,38.538L195.634,38.538L195.97,38.538L196.643,38.538L196.977,38.538L197.329,38.538L197.652,38.538L197.985,38.538L198.657,38.538L198.992,38.538L199.343,38.538L199.667,38.538L200,38.538" stroke="#f58518" stroke-width="2"/></g></g><path class="foreground" aria-hidden="true" d="" display="none"/></g></g><g class="mark-group role-legend" role="graphics-symbol" aria-roledescription="legend" aria-label="Symbol legend titled 'identifier' for stroke color with 2 values: altex-LG-F2WR508SBW, altex-LG-F2WR508SBM"><g transform="translate(220,0)"><path class="background" aria-hidden="true" d="M0,0h168v40h-168Z" pointer-events="none"/><g><g class="mark-group role-legend-entry"><g transform="translate(0,16)"><path class="background" aria-hidden="true" d="M0,0h0v0h0Z" pointer-events="none"/><g><g class="mark-group role-scope" role="graphics-object" aria-roledescription="group mark container"><g transform="translate(0,0)"><path class="background" aria-hidden="true" d="M0,0h168v11h-168Z" pointer-events="none" opacity="1"/><g><g class="mark-symbol role-legend-symbol" pointer-events="none"><path transform="translate(6,6)" d="M-5,0L5,0" stroke="#4c78a8" stroke-width="1.5" opacity="1"/></g><g class="mark-text role-legend-label" pointer-events="none"><text text-anchor="start" transform="translate(16,9)" font-family="Liberation Mono" font-size="10px" fill="#000" opacity="1">altex-LG-F2WR508SBW</text></g></g><path class="foreground" aria-hidden="true" d="" pointer-events="none" display="none"/></g><g transform="translate(0,13)"><path class="background" aria-hidden="true" d="M0,0h168v11h-168Z" pointer-events="none" opacity="1"/><g><g class="mark-symbol role-legend-symbol" pointer-events="none"><path transform="translate(6,6)" d="M-5,0L5,0" stroke="#f58518" stroke-width="1.5" opacity="1"/></g><g class="mark-text role-legend-label" pointer-events="none"><text text-anchor="start" transform="translate(16,9)" font-family="Liberation Mono" font-size="10px" fill="#000" opacity="1">altex-LG-F2WR508SBM</text></g></g><path class="foreground" aria-hidden="true" d="" pointer-events="none" display="none"/></g></g></g><path class="foreground" aria-hidden="true" d="" pointer-events="none" display="none"/></g></g><g class="mark-text role-legend-title" pointer-events="none"><text text-anchor="start" transform="translate(0,9)" font-family="Liberation Mono" font-size="11px" font-weight="bold" fill="#000" opacity="1">identifier</text></g></g><path class="foreground" aria-hidden="true" d="" pointer-events="none" display="none"/></g></g></g><path class="foreground" aria-hidden="true" d="" display="none"/></g></g></g></svg>