<svg xmlns="http://www.w3.org/2000/svg" xmlns:xlink="http://www.w3.org/1999/xlink" version="1.1" class="marks" width="460" height="242" viewBox="0 0 460 242"><rect width="460" height="242" fill="white"/><g fill="none" stroke-miterlimit="10" transform="translate(67,5)"><g class="mark-group role-frame root" role="graphics-object" aria-roledescription="group mark container"><g transform="translate(0,0)"><path class="background" aria-hidden="true" d="M0.5,0.5h200v200h-200Z" stroke="#ddd"/><g><g class="mark-group role-axis" aria-hidden="true"><g transform="translate(0.5,200.5)"><path class="background" aria-hidden="true" d="M0,0h0v0h0Z" pointer-events="none"/><g><g class="mark-rule role-axis-grid" pointer-events="none"><line transform="translate(52,-200)" x2="0" y2="200" stroke="#ddd" stroke-width="1" opacity="1"/><line transform="translate(101,-200)" x2="0" y2="200" stroke="#ddd" stroke-width="1" opacity="1"/><line transform="translate(154,-200)" x2="0" y2="200" stroke="#ddd" stroke-width="1" opacity="1"/></g></g><path class="foreground" aria-hidden="true" d="" pointer-events="none" display="none"/></g></g><g class="mark-group role-axis" aria-hidden="true"><g transform="translate(0.5,0.5)"><path class="background" aria-hidden="true" d="M0,0h0v0h0Z" pointer-events="none"/><g><g class="mark-rule role-axis-grid" pointer-events="none"><line transform="translate(0,200)" x2="200" y2="0" stroke="#ddd" stroke-width="1" opacity="1"/><line transform="translate(0,162)" x2="200" y2="0" stroke="#ddd" stroke-width="1" opacity="1"/><line transform="translate(0,123)" x2="200" y2="0" stroke="#ddd" stroke-width="1" opacity="1"/><line transform="translate(0,85)" x2="200" y2="0" stroke="#ddd" stroke-width="1" opacity="1"/><line transform="translate(0,46)" x2="200" y2="0" stroke="#ddd" stroke-width="1" opacity="1"/><line transform="translate(0,8)" x2="200" y2="0" stroke="#ddd" stroke-width="1" opacity="1"/></g></g><path class="foreground" aria-hidden="true" d="" pointer-events="none" display="none"/></g></g><g class="mark-group role-axis" role="graphics-symbol" aria-roledescription="axis" aria-label="X-axis titled 'Time' for a time scale with values from Monday, 01 January 2024, 2:19:43 PM to Sunday, 28 April 2024, 4:38:44 AM"><g transform="translate(0.5,200.5)"><path class="background" aria-hidden="true" d="M0,0h0v0h0Z" pointer-events="none"/><g><g class="mark-rule role-axis-tick" pointer-events="none"><line transform="translate(52,0)" x2="0" y2="5" stroke="#888" stroke-width="1" opacity="1"/><line transform="translate(101,0)" x2="0" y2="5" stroke="#888" stroke-width="1" opacity="1"/><line transform="translate(154,0)" x2="0" y2="5" stroke="#888" stroke-width="1" opacity="1"/></g><g class="mark-text role-axis-label" pointer-events="none"><text text-anchor="middle" transform="translate(51.707258571100844,15)" font-family="Liberation Mono" font-size="10px" fill="#000" opacity="1">February</text><text text-anchor="middle" transform="translate(101.02843815623824,15)" font-family="Liberation Mono" font-size="10px" fill="#000" opacity="0">March</text><text text-anchor="middle" transform="translate(153.75107840241955,15)" font-family="Liberation Mono" font-size="10px" fill="#000" opacity="1">April</text></g><g class="mark-rule role-axis-domain" pointer-events="none"><line transform="translate(0,0)" x2="200" y2="0" stroke="#888" stroke-width="1" opacity="1"/></g><g class="mark-text role-axis-title" pointer-events="none"><text text-anchor="middle" transform="translate(100,30)" font-family="Liberation Mono" font-size="11px" font-weight="bold" fill="#000" opacity="1">Time</text></g></g><path class="foreground" aria-hidden="true" d="" pointer-events="none" display="none"/></g></g><g class="mark-group role-axis" role="graphics-symbol" aria-roledescription="axis" aria-label="Y-axis titled 'Price' for a linear scale with values from 0 to 2,600"><g transform="translate(0.5,0.5)"><path class="background" aria-hidden="true" d="M0,0h0v0h0Z" pointer-events="none"/><g><g class="mark-rule role-axis-tick" pointer-events="none"><line transform="translate(0,200)" x2="-5" y2="0" stroke="#888" stroke-width="1" opacity="1"/><line transform="translate(0,162)" x2="-5" y2="0" stroke="#888" stroke-width="1" opacity="1"/><line transform="translate(0,123)" x2="-5" y2="0" stroke="#888" stroke-width="1" opacity="1"/><line transform="translate(0,85)" x2="-5" y2="0" stroke="#888" stroke-width="1" opacity="1"/><line transform="translate(0,46)" x2="-5" y2="0" stroke="#888" stroke-width="1" opacity="1"/><line transform="translate(0,8)" x2="-5" y2="0" stroke="#888" stroke-width="1" opacity="1"/></g><g class="mark-text role-axis-label" pointer-events="none"><text text-anchor="end" transform="translate(-7,203)" font-family="Liberation Mono" font-size="10px" fill="#000" opacity="1">0</text><text text-anchor="end" transform="translate(-7,164.53846153846155)" font-family="Liberation Mono" font-size="10px" fill="#000" opacity="1">500</text><text text-anchor="end" transform="translate(-7,126.07692307692308)" font-family="Liberation Mono" font-size="10px" fill="#000" opacity="1">1,000</text><text text-anchor="end" transform="translate(-7,87.61538461538463)" font-family="Liberation Mono" font-size="10px" fill="#000" opacity="1">1,500</text><text text-anchor="end" transform="translate(-7,49.153846153846146)" font-family="Liberation Mono" font-size="10px" fill="#000" opacity="1">2,000</text><text text-anchor="end" transform="translate(-7,10.692307692307686)" font-family="Liberation Mono" font-size="10px" fill="#000" opacity="1">2,500</text></g><g class="mark-rule role-axis-domain" pointer-events="none"><line transform="translate(0,200)" x2="0" y2="-200" stroke="#888" stroke-width="1" opacity="1"/></g><g class="mark-text role-axis-title" pointer-events="none"><text text-anchor="middle" transform="translate(-51,100) rotate(-90) translate(0,-2)" font-family="Liberation Mono" font-size="11px" font-weight="bold" fill="#000" opacity="1">Price</text></g></g><path class="foreground" aria-hidden="true" d="" pointer-events="none" display="none"/></g></g><g class="mark-group role-scope pathgroup" role="graphics-object" aria-roledescription="group mark container"><g transform="translate(0,0)"><path class="background" aria-hidden="true" d="M0,0h200v200h-200Z"/><g><g class="mark-line role-mark marks" role="graphics-object" aria-roledescription="line mark container"><path aria-label="Time: Jan 01, 2024; Price: 2399; identifier: altex-LG-F2WR508SBW" role="graphics-symbol" aria-roledescription="line mark" d="M0,15.462L0.178,15.462L0.447,15.462L1.014,15.462L1.298,15.462L1.596,15.462L1.867,15.462L2.148,15.462L2.715,15.462L2.999,15.462L3.297,15.462L3.568,15.462L3.848,15.462L4.416,15.462L4.7,15.462L4.997,15.462L5.271,15.462L5.55,15.462L6.117,34.692L6.401,34.692L6.698,34.692L6.971,34.692L7.25,34.692L7.818,34.692L8.101,34.692L8.398,34.692L8.67,34.692L8.951,34.692L9.52,34.692L9.801,34.692L10.098,34.692L10.371,34.692L10.652,34.692L11.22,34.692L11.504,34.692L11.802,34.692L12.074,34.692L12.352,34.692L12.921,34.692L13.204,34.692L13.506,34.692L13.775,34.692L14.053,34.692L14.622,34.692L14.905,34.692L15.204,34.692L15.474,34.692L15.754,34.692L16.322,34.692L16.606,34.692L16.905,34.692L17.176,34.692L17.455,34.692L18.023,34.692L18.307,34.692L18.604,34.692L18.876,34.692L19.155,34.692L19.723,46.231L20.006,46.231L20.303,46.231L20.575,46.231L20.856,46.231L21.425,46.231L21.706,46.231L22.003,46.231L22.275,46.231L22.557,46.231L23.126,46.231L23.409,46.231L23.709,46.231L23.979,46.231L24.257,46.231L24.825,46.231L25.11,46.231L25.409,46.231L25.68,46.231L25.958,46.231L26.526,46.231L26.811,46.231L27.11,46.231L27.38,46.231L27.659,46.231L28.227,46.231L28.511,46.231L28.81,46.231L29.08,46.231L29.36,46.231L29.928,46.231L30.212,46.231L30.51,46.231L30.782,46.231L31.06,46.231L31.629,46.231L31.91,46.231L32.208,46.231L32.481,46.231L32.761,46.231L33.328,46.231L33.612,46.231L33.909,46.231L34.181,46.231L34.462,46.231L35.031,46.231L35.315,46.231L35.615,46.231L35.884,46.231L36.163,46.231L36.731,46.231L37.016,46.231L37.315,46.231L37.586,46.231L37.863,46.231L38.432,46.231L38.716,46.231L39.015,46.231L39.286,46.231L39.564,46.231L40.133,46.231L40.416,46.231L40.716,46.231L40.988,46.231L41.265,46.231L41.832,46.231L42.117,46.231L42.411,46.231L42.683,46.231L42.966,46.231L43.532,46.231L43.816,46.231L44.108,46.231L44.383,46.231L44.666,46.231L45.233,46.231L45.517,46.231L45.809,46.231L46.084,46.231L46.367,46.231L46.934,46.231L47.218,46.231L47.512,46.231L47.785,46.231L48.068,46.231L48.634,46.231L48.918,46.231L49.213,46.231L49.489,46.231L49.768,46.231L50.335,46.231L50.619,46.231L50.914,46.231L51.186,46.231L51.469,46.231L52.036,34.692L52.32,34.692L52.615,34.692L52.886,34.692L53.17,34.692L53.737,34.692L54.02,34.692L54.315,34.692L54.587,34.692L54.87,34.692L55.437,34.692L55.721,34.692L56.013,34.692L56.288,34.692L56.572,34.692L57.14,34.692L57.422,34.692L57.714,34.692L57.988,34.692L58.272,34.692L58.839,34.692L59.123,34.692L59.418,34.692L59.69,34.692L59.973,34.692L60.539,34.692L60.823,34.692L61.119,34.692L61.391,34.692L61.673,34.692L62.24,34.692L62.524,34.692L62.818,34.692L63.093,34.692L63.374,34.692L63.941,34.692L64.225,34.692L64.519,34.692L64.793,34.692L65.075,34.692L65.642,34.692L65.926,34.692L66.219,34.692L66.493,34.692L66.776,34.692L67.342,34.692L67.626,34.692L67.919,34.692L68.193,34.692L68.477,34.692L69.045,34.692L69.327,34.692L69.619,34.692L69.894,34.692L70.177,34.692L70.744,34.692L71.027,34.692L71.324,34.692L71.595,34.692L71.878,34.692L72.444,34.692L72.728,34.692L73.023,34.692L73.299,34.692L73.579,34.692L74.145,34.692L74.429,34.692L74.724,34.692L74.997,34.692L75.279,34.692L76.13,34.692L76.424,34.692L76.697,34.692L76.98,34.692L77.547,34.692L77.831,34.692L78.125,34.692L78.399,34.692L78.681,34.692L79.248,34.692L79.531,34.692L79.823,34.692L80.098,34.692L80.381,34.692L80.949,34.692L81.233,34.692L81.524,34.692L81.799,34.692L82.082,34.692L82.649,34.692L82.934,34.692L83.229,34.692L83.503,34.692L83.783,34.692L84.351,34.692L84.634,34.692L84.927,34.692L85.201,34.692L85.484,34.692L86.05,34.692L86.334,34.692L86.629,34.692L86.902,34.692L87.185,34.692L87.751,34.692L88.035,34.692L88.33,34.692L88.603,34.692L88.885,34.692L89.452,34.692L89.736,34.692L90.029,34.692L90.302,34.692L90.587,34.692L91.153,34.692L91.436,34.692L91.728,34.692L92.003,34.692L92.286,34.692L92.853,34.692L93.138,34.692L93.429,34.692L93.705,34.692L93.987,34.692L94.554,34.692L94.839,34.692L95.133,34.692L95.406,34.692L95.688,34.692L96.255,34.692L96.539,34.692L96.833,34.692L97.106,34.692L97.389,34.692L97.956,34.692L98.239,34.692L98.534,34.692L98.808,34.692L99.09,34.692L99.656,34.692L99.94,34.692L100.233,34.692L100.506,34.692L100.79,34.692L101.357,34.692L101.642,34.692L101.935,34.692L102.208,34.692L102.491,34.692L103.058,34.692L103.342,34.692L103.636,34.692L103.908,34.692L104.192,34.692L104.759,34.692L105.042,34.692L105.334,34.692L105.609,34.692L105.893,34.692L106.485,34.692L106.873,34.692L107.042,34.692L107.311,34.692L107.593,34.692L108.16,34.692L108.443,34.692L108.74,34.692L109.011,34.692L109.294,34.692L109.861,34.692L110.147,34.692L110.44,34.692L110.713,34.692L110.994,34.692L111.561,34.692L111.846,34.692L112.14,34.692L112.412,34.692L112.696,34.692L113.262,34.692L113.55,34.692L113.84,34.692L114.112,34.692L114.396,34.692L114.963,34.692L115.247,34.692L115.538,34.692L115.815,34.692L116.096,34.692L116.664,34.692L116.949,34.692L117.239,34.692L117.515,34.692L117.797,34.692L118.366,34.692L118.648,34.692L118.944,34.692L119.217,34.692L119.499,34.692L120.065,34.692L120.349,34.692L120.644,34.692L120.918,34.692L121.199,34.692L121.766,34.692L122.051,34.692L122.345,34.692L122.617,34.692L122.9,34.692L123.467,34.692L123.75,34.692L124.046,34.692L124.318,34.692L124.6,34.692L125.167,34.692L125.453,34.692L125.746,34.692L126.019,34.692L126.301,34.692L126.868,34.692L127.153,34.692L127.445,34.692L127.719,34.692L128.003,34.692L128.569,34.692L128.854,34.692L129.145,34.692L129.419,34.692L129.703,34.692L130.269,34.692L130.553,34.692L130.851,34.692L131.123,34.692L131.405,34.692L131.971,34.692L132.254,34.692L132.549,34.692L132.824,34.692L133.104,34.692L133.671,34.692L133.955,34.692L134.25,34.692L134.525,34.692L134.806,34.692L135.372,34.692L135.656,34.692L135.952,34.692L136.226,34.692L136.506,34.692L137.073,34.692L137.356,34.692L137.651,34.692L137.924,34.692L138.207,34.692L138.774,34.692L139.056,34.692L139.351,34.692L139.623,34.692L139.907,34.692L140.474,34.692L140.758,34.692L141.053,34.692L141.324,34.692L141.608,34.692L142.175,34.692L142.458,34.692L142.754,34.692L143.026,34.692L143.308,34.692L143.875,34.692L144.161,34.692L144.455,34.692L144.728,34.692L145.009,34.692L145.578,34.692L145.861,34.692L146.156,34.692L146.43,34.692L146.71,34.692L147.277,34.692L147.56,34.692L147.857,34.692L148.129,34.692L148.41,34.692L148.978,34.692L149.261,34.692L149.557,34.692L149.829,34.692L150.111,34.692L150.678,34.692L150.962,34.692L151.254,34.692L151.53,34.692L151.813,34.692L152.38,34.692L152.664,34.692L152.956,34.692L153.231,34.692L153.513,34.692L154.079,34.692L154.365,34.692L154.661,34.692L154.934,34.692L155.213,34.692L155.782,34.692L156.065,34.692L156.361,34.692L156.634,34.692L156.914,34.692L157.481,34.692L157.765,34.692L158.06,34.692L158.335,34.692L158.615,34.692L159.183,34.692L159.466,34.692L159.761,34.692L160.034,34.692L160.316,34.692L160.885,34.692L161.461,34.692L161.735,34.692L162.018,34.692L162.584,34.692L162.868,34.692L163.16,34.692L163.434,34.692L163.717,34.692L164.284,34.692L164.567,34.692L164.861,34.692L165.135,34.692L165.418,34.692L165.986,34.692L166.268,34.692L166.565,34.692L166.838,34.692L167.119,34.692L167.686,34.692L167.969,34.692L168.265,34.692L168.538,34.692L168.82,34.692L169.386,34.692L169.672,34.692L169.966,34.692L170.241,34.692L170.522,34.692L171.089,34.692L171.373,34.692L171.667,34.692L172.222,34.692L172.789,34.692L173.073,34.692L173.367,34.692L173.638,34.692L173.922,34.692L174.488,34.692L174.772,34.692L175.061,34.692L175.339,34.692L175.622,34.692L176.215,34.692L176.651,34.692L176.917,34.692L177.468,34.692L177.894,34.692L178.174,34.692L178.466,34.692L178.74,34.692L179.024,34.692L179.591,34.692L179.874,34.692L180.171,34.692L180.441,34.692L180.724,34.692L181.291,34.692L181.575,34.692L181.872,34.692L182.145,34.692L182.426,34.692L183.276,34.692L183.572,34.692L183.844,34.692L184.127,34.692L184.693,34.692L184.977,34.692L185.272,34.692L185.546,34.692L185.827,34.692L186.394,34.692L186.677,34.692L186.971,34.692L187.245,34.692L187.527,34.692L188.095,34.692L188.379,34.692L188.673,34.692L188.945,34.692L189.229,34.692L189.795,34.692L190.08,34.692L190.377,34.692L190.647,34.692L190.929,34.692L191.496,34.692L191.78,34.692L192.077,34.692L192.348,34.692L192.631,34.692L193.196,34.692L193.482,34.692L193.786,34.692L194.049,34.692L194.331,34.692L194.897,34.692L195.182,34.692L195.47,34.692L195.749,34.692L196.032,34.692L196.598,34.692L196.883,34.692L197.178,34.692L197.45,34.692L197.733,34.692L198.299,34.692L198.582,34.692L198.876,34.692L199.149,34.692L199.432,34.692L200,34.692" stroke="#4c78a8" stroke-width="2"/></g></g><path class="foreground" aria-hidden="true" d="" display="none"/></g><g transform="translate(0,0)"><path class="background" aria-hidden="true" d="M0,0h200v200h-200Z"/><g><g class="mark-line role-mark marks" role="graphics-object" aria-roledescription="line mark container"><path aria-label="Time: Jan 01, 2024; Price: 2499; identifier: altex-LG-F2WR508SBM" role="graphics-symbol" aria-roledescription="line mark" d="M0,7.769L0.178,7.769L0.447,7.769L1.014,7.769L1.298,7.769L1.596,7.769L1.867,7.769L2.148,7.769L2.715,7.769L2.999,7.769L3.297,7.769L3.568,7.769L3.848,7.769L4.416,7.769L4.7,7.769L4.997,7.769L5.271,7.769L5.55,7.769L6.118,27L6.401,27L6.698,27L6.971,27L7.25,27L7.818,27L8.101,27L8.398,27L8.67,27L8.951,27L9.52,27L9.801,27L10.098,27L10.371,27L10.652,27L11.22,27L11.504,27L11.802,27L12.074,27L12.352,27L12.921,27L13.204,27L13.506,27L13.775,27L14.053,27L14.622,27L14.905,27L15.204,27L15.474,27L15.754,27L16.322,27L16.606,27L16.905,27L17.176,27L17.455,27L18.023,27L18.307,27L18.604,27L18.876,27L19.155,27L19.723,38.538L20.006,38.538L20.303,38.538L20.575,38.538L20.856,38.538L21.425,38.538L21.706,38.538L22.003,38.538L22.275,38.538L22.557,38.538L23.126,38.538L23.409,38.538L23.709,38.538L23.979,38.538L24.257,38.538L24.826,38.538L25.11,38.538L25.409,38.538L25.681,38.538L25.958,38.538L26.526,38.538L26.811,38.538L27.11,38.538L27.381,38.538L27.659,38.538L28.227,38.538L28.511,38.538L28.81,38.538L29.08,38.538L29.36,38.538L29.928,38.538L30.212,38.538L30.511,38.538L30.782,38.538L31.06,38.538L31.629,38.538L31.911,38.538L32.208,38.538L32.481,38.538L32.762,38.538L33.328,38.538L33.612,38.538L33.909,38.538L34.181,38.538L34.462,38.538L35.032,38.538L35.316,38.538L35.615,38.538L35.884,38.538L36.163,38.538L36.731,38.538L37.016,38.538L37.315,38.538L37.586,38.538L37.863,38.538L38.432,38.538L38.716,38.538L39.015,38.538L39.286,38.538L39.564,38.538L40.134,38.538L40.416,38.538L40.716,38.538L40.988,38.538L41.265,38.538L41.832,38.538L42.117,38.538L42.411,38.538L42.683,38.538L42.966,38.538L43.532,38.538L43.817,38.538L44.108,38.538L44.383,38.538L44.666,38.538L45.233,38.538L45.517,38.538L45.809,38.538L46.084,38.538L46.367,38.538L46.934,38.538L47.218,38.538L47.512,38.538L47.785,38.538L48.068,38.538L48.634,38.538L48.918,38.538L49.213,38.538L49.489,38.538L49.768,38.538L50.335,38.538L50.619,38.538L50.914,38.538L51.186,38.538L51.469,38.538L52.036,27L52.32,27L52.615,27L52.886,27L53.17,27L53.737,27L54.02,27L54.315,27L54.587,27L54.871,27L55.438,27L55.721,27L56.013,27L56.288,27L56.572,27L57.14,27L57.422,27L57.714,27L57.988,27L58.272,27L58.839,27L59.123,27L59.418,27L59.69,27L59.973,27L60.54,27L60.823,27L61.119,27L61.391,27L61.673,27L62.24,27L62.524,27L62.819,27L63.093,27L63.374,27L63.941,27L64.225,27L64.519,27L64.793,27L65.075,27L65.642,27L65.926,27L66.219,27L66.493,27L66.777,27L67.342,27L67.626,27L67.919,27L68.193,27L68.477,27L69.045,27L69.327,27L69.619,27L69.894,27L70.177,27L70.744,27L71.028,27L71.324,27L71.595,27L71.878,27L72.444,27L72.728,27L73.023,27L73.299,27L73.579,27L74.145,27L74.429,27L74.724,27L74.997,27L75.279,27L76.13,27L76.425,27L76.697,27L76.98,27L77.547,27L77.831,27L78.125,27L78.399,27L78.681,27L79.248,27L79.531,27L79.823,27L80.098,27L80.381,27L80.949,27L81.233,27L81.524,27L81.799,27L82.082,27L82.649,27L82.934,27L83.229,27L83.503,27L83.783,27L84.351,27L84.634,27L84.927,27L85.201,27L85.485,27L86.051,27L86.334,27L86.629,27L86.902,27L87.185,27L87.752,27L88.035,27L88.33,27L88.603,27L88.886,27L89.452,27L89.736,27L90.029,27L90.302,27L90.588,27L91.153,27L91.436,27L91.728,27L92.003,27L92.286,27L92.853,27L93.138,27L93.429,27L93.705,27L93.987,27L94.554,27L94.839,27L95.133,27L95.406,27L95.688,27L96.255,27L96.539,27L96.833,27L97.106,27L97.389,27L97.956,27L98.239,27L98.534,27L98.808,27L99.09,27L99.657,27L99.94,27L100.233,27L100.507,27L100.79,27L101.357,27L101.642,27L101.936,27L102.208,27L102.491,27L103.058,27L103.342,27L103.636,27L103.908,27L104.192,27L104.759,27L105.042,27L105.334,27L105.609,27L105.893,27L106.485,27L106.873,27L107.042,27L107.312,27L107.593,27L108.16,27L108.443,27L108.74,27L109.011,27L109.294,27L109.861,27L110.147,27L110.44,27L110.713,27L110.995,27L111.561,27L111.846,27L112.14,38.538L112.412,38.538L112.696,38.538L113.262,38.538L113.55,38.538L113.841,38.538L114.112,38.538L114.396,38.538L114.963,38.538L115.247,38.538L115.538,38.538L115.815,38.538L116.097,38.538L116.664,38.538L116.949,38.538L117.239,38.538L117.515,38.538L117.797,38.538L118.366,38.538L118.648,38.538L118.944,38.538L119.217,38.538L119.499,38.538L120.065,38.538L120.349,38.538L120.644,38.538L120.918,38.538L121.199,38.538L121.766,38.538L122.051,38.538L122.346,38.538L122.617,38.538L122.9,38.538L123.467,38.538L123.75,38.538L124.046,38.538L124.318,38.538L124.601,38.538L125.167,38.538L125.453,38.538L125.746,38.538L126.019,38.538L126.301,38.538L126.868,38.538L127.153,38.538L127.445,38.538L127.719,38.538L128.003,38.538L128.569,38.538L128.854,38.538L129.146,38.538L129.419,38.538L129.703,38.538L130.269,38.538L130.553,38.538L130.851,38.538L131.123,38.538L131.405,38.538L131.971,38.538L132.254,38.538L132.549,38.538L132.824,38.538L133.104,38.538L133.671,38.538L133.955,38.538L134.25,38.538L134.525,38.538L134.806,38.538L135.372,38.538L135.656,38.538L135.952,38.538L136.226,38.538L136.506,38.538L137.073,38.538L137.356,38.538L137.651,38.538L137.924,38.538L138.207,38.538L138.774,38.538L139.057,38.538L139.351,38.538L139.624,38.538L139.907,38.538L140.474,38.538L140.758,38.538L141.053,38.538L141.324,38.538L141.608,38.538L142.175,38.538L142.458,38.538L142.754,38.538L143.026,38.538L143.308,38.538L143.875,38.538L144.161,38.538L144.455,38.538L144.728,38.538L145.009,38.538L145.578,38.538L145.861,38.538L146.156,38.538L146.43,38.538L146.71,38.538L147.277,38.538L147.56,38.538L147.857,38.538L148.129,38.538L148.41,38.538L148.978,38.538L149.261,38.538L149.557,38.538L149.829,38.538L150.111,38.538L150.678,38.538L150.962,38.538L151.254,38.538L151.53,38.538L151.813,38.538L152.38,38.538L152.664,38.538L152.957,38.538L153.231,38.538L153.513,38.538L154.079,38.538L154.365,38.538L154.661,38.538L154.935,38.538L155.213,38.538L155.782,38.538L156.065,38.538L156.361,38.538L156.634,38.538L156.914,38.538L157.481,38.538L157.765,38.538L158.06,38.538L158.335,38.538L158.615,38.538L159.183,38.538L159.466,38.538L159.761,38.538L160.034,38.538L160.316,38.538L160.885,38.538L161.461,38.538L161.735,38.538L162.018,38.538L162.584,38.538L162.868,38.538L163.16,38.538L163.434,38.538L163.717,38.538L164.284,38.538L164.568,38.538L164.861,38.538L165.135,38.538L165.418,38.538L165.986,38.538L166.268,38.538L166.565,38.538L166.838,38.538L167.119,38.538L167.686,38.538L167.969,38.538L168.265,38.538L168.538,38.538L168.82,38.538L169.386,38.538L169.672,38.538L169.966,38.538L170.241,38.538L170.522,38.538L171.089,38.538L171.373,38.538L171.667,38.538L172.222,38.538L172.789,38.538L173.073,38.538L173.367,38.538L173.638,38.538L173.922,38.538L174.488,38.538L174.772,38.538L175.061,38.538L175.339,38.538L175.622,38.538L176.215,38.538L176.651,38.538L176.918,38.538L177.468,38.538L177.895,38.538L178.174,38.538L178.466,38.538L178.74,38.538L179.024,38.538L179.591,38.538L179.875,38.538L180.171,38.538L180.441,38.538L180.725,38.538L181.291,38.538L181.575,38.538L181.872,38.538L182.146,38.538L182.426,38.538L183.276,38.538L183.572,38.538L183.844,38.538L184.127,38.538L184.693,38.538L184.977,38.538L185.272,38.538L185.546,38.538L185.827,38.538L186.394,38.538L186.677,38.538L186.971,38.538L187.245,38.538L187.527,38.538L188.095,38.538L188.379,38.538L188.673,38.538L188.945,38.538L189.229,38.538L189.795,38.538L190.08,38.538L190.377,38.538L190.648,38.538L190.929,38.538L191.496,38.538L191.78,38.538L192.077,38.538L192.348,38.538L192.631,38.538L193.196,38.538L193.482,38.538L193.786,38.538L194.049,38.538L194.331,38.538L194.898,38.538L195.182,38.538L195.47,38.538L195.749,38.538L196.032,38.538L196.598,38.538L196.883,38.538L197.178,38.538L197.45,38.538L197.733,38.538L198.299,38.538L198.582,38.538L198.876,38.538L199.149,38.538L199.432,38.538L200,38.538" stroke="#f58518" stroke-width="2"/></g></g><path class="foreground" aria-hidden="true" d="" display="none"/></g></g><g class="mark-group role-legend" role="graphics-symbol" aria-roledescription="legend" aria-label="Symbol legend titled 'identifier' for stroke color with 2 values: altex-LG-F2WR508SBW, altex-LG-F2WR508SBM"><g transform="translate(220,0)"><path class="background" aria-hidden="true" d="M0,0h168v40h-168Z" pointer-events="none"/><g><g class="mark-group role-legend-entry"><g transform="translate(0,16)"><path class="background" aria-hidden="true" d="M0,0h0v0h0Z" pointer-events="none"/><g><g class="mark-group role-scope" role="graphics-object" aria-roledescription="group mark container"><g transform="translate(0,0)"><path class="background" aria-hidden="true" d="M0,0h168v11h-168Z" pointer-events="none" opacity="1"/><g><g class="mark-symbol role-legend-symbol" pointer-events="none"><path transform="translate(6,6)" d="M-5,0L5,0" stroke="#4c78a8" stroke-width="1.5" opacity="1"/></g><g class="mark-text role-legend-label" pointer-events="none"><text text-anchor="start" transform="translate(16,9)" font-family="Liberation Mono" font-size="10px" fill="#000" opacity="1">altex-LG-F2WR508SBW</text></g></g><path class="foreground" aria-hidden="true" d="" pointer-events="none" display="none"/></g><g transform="translate(0,13)"><path class="background" aria-hidden="true" d="M0,0h168v11h-168Z" pointer-events="none" opacity="1"/><g><g class="mark-symbol role-legend-symbol" pointer-events="none"><path transform="translate(6,6)" d="M-5,0L5,0" stroke="#f58518" stroke-width="1.5" opacity="1"/></g><g class="mark-text role-legend-label" pointer-events="none"><text text-anchor="start" transform="translate(16,9)" font-family="Liberation Mono" font-size="10px" fill="#000" opacity="1">altex-LG-F2WR508SBM</text></g></g><path class="foreground" aria-hidden="true" d="" pointer-events="none" display="none"/></g></g></g><path class="foreground" aria-hidden="true" d="" pointer-events="none" display="none"/></g></g><g class="mark-text role-legend-title" pointer-events="none"><text text-anchor="start" transform="translate(0,9)" font-family="Liberation Mono" font-size="11px" font-weight="bold" fill="#000" opacity="1">identifier</text></g></g><path class="foreground" aria-hidden="true" d="" pointer-events="none" display="none"/></g></g></g><path class="foreground" aria-hidden="true" d="" display="none"/></g></g></g></svg>