<svg xmlns="http://www.w3.org/2000/svg" xmlns:xlink="http://www.w3.org/1999/xlink" version="1.1" class="marks" width="460" height="242" viewBox="0 0 460 242"><rect width="460" height="242" fill="white"/><g fill="none" stroke-miterlimit="10" transform="translate(67,5)"><g class="mark-group role-frame root" role="graphics-object" aria-roledescription="group mark container"><g transform="translate(0,0)"><path class="background" aria-hidden="true" d="M0.5,0.5h200v200h-200Z" stroke="#ddd"/><g><g class="mark-group role-axis" aria-hidden="true"><g transform="translate(0.5,200.5)"><path class="background" aria-hidden="true" d="M0,0h0v0h0Z" pointer-events="none"/><g><g class="mark-rule role-axis-grid" pointer-events="none"><line transform="translate(58,-200)" x2="0" y2="200" stroke="#ddd" stroke-width="1" opacity="1"/><line transform="translate(116,-200)" x2="0" y2="200" stroke="#ddd" stroke-width="1" opacity="1"/><line transform="translate(175,-200)" x2="0" y2="200" stroke="#ddd" stroke-width="1" opacity="1"/></g></g><path class="foreground" aria-hidden="true" d="" pointer-events="none" display="none"/></g></g><g class="mark-group role-axis" aria-hidden="true"><g transform="translate(0.5,0.5)"><path class="background" aria-hidden="true" d="M0,0h0v0h0Z" pointer-events="none"/><g><g class="mark-rule role-axis-grid" pointer-events="none"><line transform="translate(0,200)" x2="200" y2="0" stroke="#ddd" stroke-width="1" opacity="1"/><line transform="translate(0,162)" x2="200" y2="0" stroke="#ddd" stroke-width="1" opacity="1"/><line transform="translate(0,123)" x2="200" y2="0" stroke="#ddd" stroke-width="1" opacity="1"/><line transform="translate(0,85)" x2="200" y2="0" stroke="#ddd" stroke-width="1" opacity="1"/><line transform="translate(0,46)" x2="200" y2="0" stroke="#ddd" stroke-width="1" opacity="1"/><line transform="translate(0,8)" x2="200" y2="0" stroke="#ddd" stroke-width="1" opacity="1"/></g></g><path class="foreground" aria-hidden="true" d="" pointer-events="none" display="none"/></g></g><g class="mark-group role-axis" role="graphics-symbol" aria-roledescription="axis" aria-label="X-axis titled 'Time' for a time scale with values from Monday, 01 January 2024, 2:19:43 PM to Saturday, 09 November 2024, 12:55:27 PM"><g transform="translate(0.5,200.5)"><path class="background" aria-hidden="true" d="M0,0h0v0h0Z" pointer-events="none"/><g><g class="mark-rule role-axis-tick" pointer-events="none"><line transform="translate(58,0)" x2="0" y2="5" stroke="#888" stroke-width="1" opacity="1"/><line transform="translate(116,0)" x2="0" y2="5" stroke="#888" stroke-width="1" opacity="1"/><line transform="translate(175,0)" x2="0" y2="5" stroke="#888" stroke-width="1" opacity="1"/></g><g class="mark-text role-axis-label" pointer-events="none"><text text-anchor="middle" transform="translate(57.776279049189164,15)" font-family="Liberation Mono" font-size="10px" fill="#000" opacity="1">April</text><text text-anchor="middle" transform="translate(115.93411623514362,15)" font-family="Liberation Mono" font-size="10px" fill="#000" opacity="1">July</text><text text-anchor="middle" transform="translate(174.73105053303166,15)" font-family="Liberation Mono" font-size="10px" fill="#000" opacity="1">October</text></g><g class="mark-rule role-axis-domain" pointer-events="none"><line transform="translate(0,0)" x2="200" y2="0" stroke="#888" stroke-width="1" opacity="1"/></g><g class="mark-text role-axis-title" pointer-events="none"><text text-anchor="middle" transform="translate(100,30)" font-family="Liberation Mono" font-size="11px" font-weight="bold" fill="#000" opacity="1">Time</text></g></g><path class="foreground" aria-hidden="true" d="" pointer-events="none" display="none"/></g></g><g class="mark-group role-axis" role="graphics-symbol" aria-roledescription="axis" aria-label="Y-axis titled 'Price' for a linear scale with values from 0 to 2,600"><g transform="translate(0.5,0.5)"><path class="background" aria-hidden="true" d="M0,0h0v0h0Z" pointer-events="none"/><g><g class="mark-rule role-axis-tick" pointer-events="none"><line transform="translate(0,200)" x2="-5" y2="0" stroke="#888" stroke-width="1" opacity="1"/><line transform="translate(0,162)" x2="-5" y2="0" stroke="#888" stroke-width="1" opacity="1"/><line transform="translate(0,123)" x2="-5" y2="0" stroke="#888" stroke-width="1" opacity="1"/><line transform="translate(0,85)" x2="-5" y2="0" stroke="#888" stroke-width="1" opacity="1"/><line transform="translate(0,46)" x2="-5" y2="0" stroke="#888" stroke-width="1" opacity="1"/><line transform="translate(0,8)" x2="-5" y2="0" stroke="#888" stroke-width="1" opacity="1"/></g><g class="mark-text role-axis-label" pointer-events="none"><text text-anchor="end" transform="translate(-7,203)" font-family="Liberation Mono" font-size="10px" fill="#000" opacity="1">0</text><text text-anchor="end" transform="translate(-7,164.53846153846155)" font-family="Liberation Mono" font-size="10px" fill="#000" opacity="1">500</text><text text-anchor="end" transform="translate(-7,126.07692307692308)" font-family="Liberation Mono" font-size="10px" fill="#000" opacity="1">1,000</text><text text-anchor="end" transform="translate(-7,87.61538461538463)" font-family="Liberation Mono" font-size="10px" fill="#000" opacity="1">1,500</text><text text-anchor="end" transform="translate(-7,49.153846153846146)" font-family="Liberation Mono" font-size="10px" fill="#000" opacity="1">2,000</text><text text-anchor="end" transform="translate(-7,10.692307692307686)" font-family="Liberation Mono" font-size="10px" fill="#000" opacity="1">2,500</text></g><g class="mark-rule role-axis-domain" pointer-events="none"><line transform="translate(0,200)" x2="0" y2="-200" stroke="#888" stroke-width="1" opacity="1"/></g><g class="mark-text role-axis-title" pointer-events="none"><text text-anchor="middle" transform="translate(-51,100) rotate(-90) translate(0,-2)" font-family="Liberation Mono" font-size="11px" font-weight="bold" fill="#000" opacity="1">Price</text></g></g><path class="foreground" aria-hidden="true" d="" pointer-events="none" display="none"/></g></g><g class="mark-group role-scope pathgroup" role="graphics-object" aria-roledescription="group mark container"><g transform="translate(0,0)"><path class="background" aria-hidden="true" d="M0,0h200v200h-200Z"/><g><g class="mark-line role-mark marks" role="graphics-object" aria-roledescription="line mark container"><path aria-label="Time: Jan 01, 2024; Price: 2399; identifier: altex-LG-F2WR508SBW" role="graphics-symbol" aria-roledescription="line mark" d="M0,15.462L0.067,15.462L0.168,15.462L0.381,15.462L0.488,15.462L0.6,15.462L0.702,15.462L0.807,15.462L1.02,15.462L1.127,15.462L1.239,15.462L1.341,15.462L1.446,15.462L1.659,15.462L1.766,15.462L1.878,15.462L1.981,15.462L2.085,15.462L2.299,34.692L2.405,34.692L2.517,34.692L2.619,34.692L2.724,34.692L2.938,34.692L3.044,34.692L3.156,34.692L3.258,34.692L3.363,34.692L3.577,34.692L3.683,34.692L3.795,34.692L3.897,34.692L4.003,34.692L4.216,34.692L4.323,34.692L4.435,34.692L4.537,34.692L4.642,34.692L4.856,34.692L4.962,34.692L5.075,34.692L5.176,34.692L5.281,34.692L5.495,34.692L5.601,34.692L5.713,34.692L5.815,34.692L5.92,34.692L6.133,34.692L6.24,34.692L6.352,34.692L6.454,34.692L6.559,34.692L6.773,34.692L6.879,34.692L6.991,34.692L7.093,34.692L7.198,34.692L7.411,46.231L7.518,46.231L7.629,46.231L7.732,46.231L7.837,46.231L8.051,46.231L8.157,46.231L8.268,46.231L8.371,46.231L8.476,46.231L8.69,46.231L8.797,46.231L8.909,46.231L9.011,46.231L9.115,46.231L9.329,46.231L9.436,46.231L9.548,46.231L9.65,46.231L9.754,46.231L9.968,46.231L10.075,46.231L10.187,46.231L10.289,46.231L10.394,46.231L10.607,46.231L10.714,46.231L10.826,46.231L10.928,46.231L11.033,46.231L11.246,46.231L11.353,46.231L11.465,46.231L11.567,46.231L11.672,46.231L11.885,46.231L11.991,46.231L12.103,46.231L12.206,46.231L12.311,46.231L12.524,46.231L12.63,46.231L12.742,46.231L12.844,46.231L12.95,46.231L13.164,46.231L13.271,46.231L13.383,46.231L13.484,46.231L13.589,46.231L13.803,46.231L13.91,46.231L14.022,46.231L14.124,46.231L14.228,46.231L14.442,46.231L14.549,46.231L14.661,46.231L14.763,46.231L14.867,46.231L15.081,46.231L15.188,46.231L15.3,46.231L15.402,46.231L15.506,46.231L15.72,46.231L15.827,46.231L15.937,46.231L16.039,46.231L16.146,46.231L16.358,46.231L16.465,46.231L16.575,46.231L16.678,46.231L16.784,46.231L16.998,46.231L17.104,46.231L17.214,46.231L17.317,46.231L17.424,46.231L17.637,46.231L17.744,46.231L17.854,46.231L17.956,46.231L18.063,46.231L18.276,46.231L18.382,46.231L18.493,46.231L18.597,46.231L18.702,46.231L18.915,46.231L19.021,46.231L19.132,46.231L19.234,46.231L19.341,46.231L19.554,34.692L19.661,34.692L19.771,34.692L19.873,34.692L19.98,34.692L20.193,34.692L20.3,34.692L20.41,34.692L20.512,34.692L20.619,34.692L20.832,34.692L20.939,34.692L21.049,34.692L21.152,34.692L21.259,34.692L21.472,34.692L21.578,34.692L21.688,34.692L21.791,34.692L21.897,34.692L22.11,34.692L22.217,34.692L22.328,34.692L22.43,34.692L22.536,34.692L22.749,34.692L22.856,34.692L22.967,34.692L23.069,34.692L23.176,34.692L23.389,34.692L23.495,34.692L23.606,34.692L23.709,34.692L23.815,34.692L24.028,34.692L24.134,34.692L24.245,34.692L24.348,34.692L24.454,34.692L24.667,34.692L24.773,34.692L24.884,34.692L24.987,34.692L25.093,34.692L25.306,34.692L25.412,34.692L25.522,34.692L25.625,34.692L25.732,34.692L25.945,34.692L26.052,34.692L26.161,34.692L26.265,34.692L26.371,34.692L26.584,34.692L26.691,34.692L26.802,34.692L26.904,34.692L27.01,34.692L27.223,34.692L27.33,34.692L27.44,34.692L27.544,34.692L27.649,34.692L27.862,34.692L27.969,34.692L28.08,34.692L28.182,34.692L28.288,34.692L28.608,34.692L28.719,34.692L28.821,34.692L28.928,34.692L29.141,34.692L29.247,34.692L29.358,34.692L29.461,34.692L29.567,34.692L29.78,34.692L29.886,34.692L29.996,34.692L30.099,34.692L30.206,34.692L30.419,34.692L30.526,34.692L30.635,34.692L30.738,34.692L30.845,34.692L31.058,34.692L31.165,34.692L31.276,34.692L31.379,34.692L31.484,34.692L31.697,34.692L31.803,34.692L31.914,34.692L32.017,34.692L32.123,34.692L32.336,34.692L32.443,34.692L32.553,34.692L32.656,34.692L32.762,34.692L32.975,34.692L33.081,34.692L33.192,34.692L33.295,34.692L33.401,34.692L33.614,34.692L33.721,34.692L33.831,34.692L33.934,34.692L34.041,34.692L34.253,34.692L34.36,34.692L34.469,34.692L34.573,34.692L34.679,34.692L34.892,34.692L34.999,34.692L35.109,34.692L35.212,34.692L35.318,34.692L35.531,34.692L35.638,34.692L35.749,34.692L35.851,34.692L35.957,34.692L36.17,34.692L36.277,34.692L36.388,34.692L36.49,34.692L36.597,34.692L36.81,34.692L36.916,34.692L37.027,34.692L37.13,34.692L37.236,34.692L37.449,34.692L37.555,34.692L37.665,34.692L37.768,34.692L37.875,34.692L38.088,34.692L38.195,34.692L38.305,34.692L38.408,34.692L38.514,34.692L38.727,34.692L38.833,34.692L38.944,34.692L39.046,34.692L39.153,34.692L39.366,34.692L39.472,34.692L39.582,34.692L39.685,34.692L39.792,34.692L40.015,34.692L40.16,34.692L40.224,34.692L40.325,34.692L40.431,34.692L40.644,34.692L40.751,34.692L40.862,34.692L40.964,34.692L41.07,34.692L41.283,34.692L41.391,34.692L41.501,34.692L41.604,34.692L41.709,34.692L41.922,34.692L42.029,34.692L42.14,34.692L42.242,34.692L42.349,34.692L42.562,34.692L42.67,34.692L42.779,34.692L42.881,34.692L42.987,34.692L43.201,34.692L43.307,34.692L43.417,34.692L43.521,34.692L43.626,34.692L43.84,34.692L43.947,34.692L44.056,34.692L44.16,34.692L44.266,34.692L44.479,34.692L44.585,34.692L44.696,34.692L44.799,34.692L44.905,34.692L45.118,34.692L45.224,34.692L45.335,34.692L45.438,34.692L45.544,34.692L45.757,34.692L45.864,34.692L45.975,34.692L46.077,34.692L46.183,34.692L46.396,34.692L46.503,34.692L46.614,34.692L46.716,34.692L46.822,34.692L47.035,34.692L47.142,34.692L47.252,34.692L47.355,34.692L47.461,34.692L47.674,34.692L47.781,34.692L47.891,34.692L47.994,34.692L48.101,34.692L48.313,34.692L48.421,34.692L48.53,34.692L48.633,34.692L48.739,34.692L48.952,34.692L49.059,34.692L49.171,34.692L49.273,34.692L49.379,34.692L49.592,34.692L49.698,34.692L49.809,34.692L49.912,34.692L50.017,34.692L50.231,34.692L50.337,34.692L50.448,34.692L50.552,34.692L50.657,34.692L50.87,34.692L50.977,34.692L51.088,34.692L51.191,34.692L51.296,34.692L51.509,34.692L51.615,34.692L51.726,34.692L51.829,34.692L51.935,34.692L52.148,34.692L52.254,34.692L52.365,34.692L52.467,34.692L52.574,34.692L52.787,34.692L52.894,34.692L53.005,34.692L53.107,34.692L53.213,34.692L53.426,34.692L53.533,34.692L53.644,34.692L53.746,34.692L53.852,34.692L54.065,34.692L54.173,34.692L54.283,34.692L54.386,34.692L54.491,34.692L54.705,34.692L54.811,34.692L54.922,34.692L55.025,34.692L55.13,34.692L55.343,34.692L55.45,34.692L55.561,34.692L55.664,34.692L55.769,34.692L55.983,34.692L56.089,34.692L56.2,34.692L56.303,34.692L56.409,34.692L56.622,34.692L56.728,34.692L56.838,34.692L56.941,34.692L57.048,34.692L57.261,34.692L57.368,34.692L57.478,34.692L57.581,34.692L57.687,34.692L57.9,34.692L58.007,34.692L58.118,34.692L58.221,34.692L58.326,34.692L58.539,34.692L58.646,34.692L58.757,34.692L58.86,34.692L58.965,34.692L59.178,34.692L59.285,34.692L59.396,34.692L59.499,34.692L59.604,34.692L59.817,34.692L59.924,34.692L60.035,34.692L60.137,34.692L60.243,34.692L60.457,34.692L60.674,34.692L60.776,34.692L60.883,34.692L61.096,34.692L61.202,34.692L61.312,34.692L61.415,34.692L61.521,34.692L61.734,34.692L61.841,34.692L61.951,34.692L62.054,34.692L62.16,34.692L62.374,34.692L62.48,34.692L62.591,34.692L62.694,34.692L62.8,34.692L63.013,34.692L63.119,34.692L63.23,34.692L63.333,34.692L63.439,34.692L63.652,34.692L63.759,34.692L63.87,34.692L63.973,34.692L64.078,34.692L64.291,34.692L64.398,34.692L64.509,34.692L64.717,34.692L64.93,34.692L65.037,34.692L65.148,34.692L65.249,34.692L65.356,34.692L65.569,34.692L65.675,34.692L65.784,34.692L65.888,34.692L65.995,34.692L66.218,34.692L66.382,34.692L66.482,34.692L66.688,34.692L66.849,34.692L66.954,34.692L67.063,34.692L67.167,34.692L67.273,34.692L67.486,34.692L67.593,34.692L67.704,34.692L67.806,34.692L67.912,34.692L68.125,34.692L68.232,34.692L68.344,34.692L68.446,34.692L68.552,34.692L68.871,34.692L68.982,34.692L69.085,34.692L69.191,34.692L69.404,34.692L69.51,34.692L69.621,34.692L69.724,34.692L69.83,34.692L70.043,34.692L70.149,34.692L70.26,34.692L70.362,34.692L70.469,34.692L70.682,34.692L70.789,34.692L70.899,34.692L71.001,34.692L71.108,34.692L71.321,34.692L71.428,34.692L71.539,34.692L71.641,34.692L71.747,34.692L71.96,34.692L72.067,34.692L72.178,34.692L72.28,34.692L72.386,34.692L72.599,34.692L72.706,34.692L72.82,34.692L72.919,34.692L73.025,34.692L73.238,34.692L73.345,34.692L73.453,34.692L73.558,34.692L73.664,34.692L73.877,34.692L73.984,34.692L74.095,34.692L74.198,34.692L74.304,34.692L74.516,34.692L74.623,34.692L74.733,34.692L74.836,34.692L74.942,34.692L75.156,34.692L75.262,34.692L75.373,34.692L75.475,34.692L75.581,34.692L75.794,34.692L75.903,34.692L76.013,34.692L76.115,34.692L76.221,34.692L76.434,34.692L76.541,34.692L76.652,34.692L76.754,34.692L76.86,34.692L77.073,34.692L77.181,34.692L77.291,34.692L77.393,34.692L77.499,34.692L77.712,57.769L77.819,57.769L77.931,57.769L78.032,57.769L78.138,57.769L78.351,57.769L78.457,57.769L78.569,57.769L78.671,57.769L78.777,57.769L78.99,57.769L79.097,57.769L79.207,57.769L79.31,57.769L79.416,57.769L79.629,57.769L79.736,57.769L79.847,57.769L79.949,57.769L80.055,57.769L80.268,57.769L80.375,57.769L80.487,57.769L80.589,57.769L80.694,57.769L80.907,57.769L81.014,57.769L81.125,57.769L81.228,57.769L81.334,57.769L81.546,57.769L81.653,57.769L81.766,57.769L81.868,57.769L81.972,57.769L82.186,34.692L82.293,34.692L82.404,34.692L82.507,34.692L82.612,34.692L82.825,34.692L82.931,34.692L83.044,34.692L83.145,34.692L83.251,34.692L83.464,34.692L83.57,34.692L83.681,34.692L83.783,34.692L83.89,34.692L84.103,34.692L84.209,34.692L84.321,34.692L84.423,34.692L84.529,34.692L84.742,34.692L84.849,34.692L84.961,34.692L85.063,34.692L85.168,34.692L85.381,34.692L85.488,34.692L85.6,34.692L85.702,34.692L85.807,34.692L86.02,34.692L86.127,34.692L86.24,34.692L86.341,34.692L86.446,34.692L86.659,34.692L86.766,34.692L86.879,34.692L86.98,34.692L87.085,34.692L87.298,34.692L87.405,34.692L87.517,34.692L87.619,34.692L87.724,34.692L87.937,34.692L88.044,34.692L88.156,34.692L88.257,34.692L88.363,34.692L88.577,34.692L88.683,34.692L88.795,34.692L88.897,34.692L89.003,34.692L89.217,34.692L89.323,34.692L89.435,34.692L89.536,34.692L89.642,34.692L89.855,34.692L89.962,34.692L90.074,34.692L90.175,34.692L90.281,34.692L90.494,34.692L90.601,34.692L90.713,34.692L90.815,34.692L90.92,34.692L91.133,34.692L91.24,34.692L91.352,34.692L91.454,34.692L91.559,34.692L91.773,34.692L91.879,34.692L91.991,34.692L92.092,34.692L92.198,34.692L92.412,34.692L92.518,34.692L92.629,34.692L92.731,34.692L92.837,34.692L93.051,34.692L93.157,34.692L93.268,34.692L93.37,34.692L93.477,34.692L93.69,34.692L93.797,34.692L93.909,34.692L94.01,34.692L94.115,34.692L94.331,34.692L94.436,34.692L94.548,34.692L94.649,34.692L94.754,34.692L94.969,34.692L95.075,34.692L95.187,34.692L95.288,34.692L95.393,34.692L95.608,34.692L95.714,34.692L95.826,34.692L95.927,34.692L96.033,34.692L96.247,34.692L96.353,34.692L96.465,34.692L96.566,34.692L96.672,34.692L96.885,34.692L96.991,34.692L97.103,34.692L97.205,34.692L97.311,34.692L97.524,34.692L97.631,34.692L97.742,34.692L97.844,34.692L97.95,34.692L98.164,34.692L98.27,34.692L98.383,34.692L98.484,34.692L98.59,34.692L98.802,34.692L98.91,34.692L99.022,34.692L99.124,34.692L99.228,34.692L99.442,34.692L99.549,34.692L99.661,34.692L99.762,34.692L99.867,34.692L100.081,34.692L100.188,34.692L100.3,34.692L100.401,34.692L100.506,34.692L100.72,34.692L100.827,34.692L100.939,34.692L101.041,34.692L101.146,34.692L101.359,34.692L101.465,34.692L101.577,34.692L101.679,34.692L101.784,34.692L101.998,34.692L102.104,34.692L102.216,34.692L102.318,34.692L102.424,34.692L102.638,34.692L102.744,34.692L102.857,34.692L102.958,34.692L103.063,34.692L103.277,34.692L103.383,34.692L103.496,34.692L103.597,34.692L103.703,34.692L103.915,34.692L104.022,46.231L104.135,46.231L104.236,46.231L104.341,46.231L104.555,46.231L104.661,46.231L104.774,46.231L104.876,46.231L104.98,46.231L105.194,46.231L105.3,46.231L105.413,48.538L105.514,48.538L105.62,48.538L105.833,48.538L105.94,48.538L106.051,48.538L106.153,48.538L106.258,48.538L106.471,48.538L106.578,48.538L106.69,48.538L106.792,48.538L106.897,48.538L107.112,48.538L107.218,48.538L107.331,48.538L107.431,48.538L107.536,48.538L107.75,48.538L107.857,48.538L107.969,48.538L108.071,48.538L108.175,48.538L108.389,48.538L108.496,48.538L108.609,48.538L108.71,48.538L108.815,48.538L109.028,48.538L109.135,48.538L109.247,48.538L109.35,48.538L109.454,48.538L109.668,48.538L109.774,48.538L109.886,48.538L109.987,48.538L110.093,48.538L110.306,48.538L110.413,48.538L110.526,48.538L110.626,48.538L110.732,48.538L110.945,48.538L111.051,48.538L111.163,48.538L111.265,48.538L111.371,48.538L111.585,48.538L111.692,48.538L111.804,48.538L111.905,48.538L112.01,48.538L112.224,48.538L112.331,48.538L112.443,48.538L112.65,48.538L112.863,48.538L112.97,48.538L113.082,48.538L113.183,48.538L113.288,48.538L113.503,48.538L113.609,48.538L113.721,48.538L113.823,48.538L113.928,48.538L114.141,48.538L114.248,48.538L114.36,48.538L114.461,48.538L114.567,48.538L114.78,48.538L114.887,48.538L114.998,48.538L115.1,48.538L115.206,48.538L115.419,48.538L115.525,48.538L115.638,48.538L115.74,48.538L115.845,48.538L116.058,48.538L116.165,48.538L116.278,48.538L116.379,48.538L116.484,48.538L116.698,48.538L116.804,48.538L116.916,48.538L117.018,48.538L117.123,48.538L117.336,48.538L117.444,48.538L117.556,48.538L117.658,48.538L117.762,48.538L117.976,48.538L118.082,48.538L118.195,48.538L118.296,48.538L118.401,48.538L118.616,48.538L118.721,48.538L118.834,48.538L118.935,48.538L119.04,48.538L119.254,48.538L119.36,48.538L119.472,48.538L119.574,48.538L119.68,48.538L119.892,48.538L119.999,48.538L120.111,48.538L120.212,48.538L120.319,48.538L120.532,48.538L120.639,48.538L120.751,48.538L120.853,48.538L120.957,48.538L121.171,48.538L121.278,48.538L121.391,48.538L121.492,48.538L121.597,48.538L121.811,48.538L121.918,48.538L122.03,48.538L122.131,48.538L122.236,48.538L122.45,48.538L122.556,48.538L122.669,48.538L122.77,48.538L122.875,48.538L123.088,48.538L123.195,48.538L123.308,48.538L123.409,48.538L123.514,48.538L123.727,48.538L123.833,48.538L123.945,48.538L124.047,48.538L124.153,48.538L124.367,48.538L124.474,48.538L124.592,48.538L124.692,48.538L124.792,48.538L125.006,48.538L125.113,48.538L125.226,48.538L125.327,48.538L125.431,48.538L125.645,48.538L125.752,48.538L125.863,48.538L125.966,48.538L126.07,48.538L126.284,48.538L126.391,48.538L126.504,48.538L126.605,48.538L126.709,48.538L126.924,48.538L127.03,48.538L127.143,48.538L127.243,48.538L127.348,48.538L127.563,48.538L127.669,48.538L127.782,48.538L127.883,48.538L127.988,48.538L128.202,48.538L128.307,48.538L128.419,48.538L128.521,48.538L128.627,48.538L128.84,48.538L128.946,48.538L129.059,48.538L129.161,48.538L129.266,48.538L129.48,48.538L129.587,48.538L129.699,48.538L129.8,48.538L129.905,48.538L130.118,48.538L130.226,48.538L130.338,48.538L130.439,48.538L130.544,48.538L130.757,27L130.865,27L130.978,27L131.078,27L131.183,27L131.397,27L131.504,27L131.616,27L131.718,27L131.823,27L132.037,27L132.143,27L132.255,27L132.357,27L132.461,27L132.675,27L132.781,27L132.894,27L132.995,27L133.101,27L133.314,27L133.42,27L133.532,27L133.634,27L133.739,27L133.953,27L134.06,27L134.173,27L134.274,27L134.379,27L134.592,27L134.699,27L134.812,27L134.913,27L135.017,27L135.231,27L135.337,27L135.451,27L135.552,27L135.657,27L135.87,27L135.978,27L136.09,27L136.191,27L136.296,27L136.51,27L136.617,27L136.729,27L136.831,27L136.935,27L137.149,27L137.255,27L137.367,27L137.469,27L137.574,27L137.789,27L137.894,27L138.006,27L138.107,27L138.214,27L138.427,27L138.534,27L138.647,27L138.747,27L138.853,27L139.067,27L139.173,27L139.286,27L139.387,27L139.491,27L139.706,27L139.812,27L139.925,27L140.026,27L140.131,27L140.345,27L140.451,27L140.564,27L140.665,27L140.77,27L140.984,27L141.09,27L141.203,27L141.304,27L141.409,27L141.624,27L141.729,27L141.841,27L141.944,27L142.048,27L142.262,27L142.368,27L142.48,27L142.582,27L142.687,27L142.901,27L143.008,27L143.121,27L143.222,27L143.326,27L143.54,27L143.647,27L143.76,27L143.861,27L143.965,27L144.179,27L144.286,27L144.399,27L144.5,27L144.604,27L144.818,27L144.925,27L145.038,27L145.139,27L145.243,27L145.457,27L145.564,27L145.677,27L145.778,27L145.882,27L146.096,27L146.202,27L146.314,27L146.417,27L146.523,27L146.735,27L146.841,27L146.954,27L147.055,27L147.16,27L147.374,27L147.482,27L147.594,27L147.695,27L147.8,27L148.015,27L148.121,27L148.233,27L148.334,27L148.439,27L148.653,27L148.76,27L148.87,27L148.974,27L149.078,27L149.292,27L149.399,27L149.512,27L149.613,27L149.717,27L149.931,27L150.038,27L150.15,27L150.251,27L150.356,27L150.57,27L150.676,27L150.789,27L150.89,27L150.995,27L151.209,27L151.316,27L151.428,27L151.529,27L151.635,27L151.849,27L151.956,27L152.069,27L152.169,27L152.274,27L152.488,27L152.594,27L152.707,27L152.808,27L152.913,27L153.127,27L153.234,27L153.347,27L153.448,27L153.552,27L153.766,27L153.873,27L153.986,27L154.086,27L154.191,27L154.405,27L154.512,27L154.625,27L154.725,27L154.83,27L155.044,27L155.151,27L155.263,27L155.365,27L155.469,27L155.683,27L155.789,27L155.903,27L156.003,27L156.108,27L156.323,27L156.43,27L156.543,27L156.643,27L156.748,27L156.961,27L157.069,27L157.182,27L157.282,27L157.387,27L157.601,27L157.708,27L157.821,27L157.921,27L158.026,27L158.24,27L158.347,27L158.46,27L158.56,27L158.665,27L158.879,27L158.986,27L159.099,27L159.2,27L159.304,27L159.518,27L159.624,27L159.736,27L159.838,27L159.942,27L160.157,27L160.263,27L160.376,27L160.477,27L160.582,27L160.796,27L160.904,27L161.017,27L161.117,27L161.221,27L161.435,27L161.542,27L161.656,27L161.756,27L161.86,27L162.075,27L162.182,27L162.295,27L162.395,27L162.499,27L162.714,27L162.821,27L162.934,27L163.034,27L163.139,27L163.353,27L163.46,27L163.573,27L163.673,27L163.778,27L163.992,46.231L164.098,46.231L164.211,46.231L164.311,46.231L164.417,46.231L164.631,46.231L164.737,46.231L164.85,46.231L164.951,46.231L165.055,46.231L165.271,46.231L165.377,46.231L165.491,46.231L165.591,46.231L165.695,46.231L165.908,46.231L166.016,46.231L166.13,46.231L166.23,46.231L166.334,46.231L166.548,46.231L166.655,46.231L166.768,46.231L166.869,46.231L166.973,46.231L167.188,53.923L167.294,53.923L167.408,53.923L167.508,53.923L167.612,53.923L167.827,53.923L167.933,53.923L168.047,53.923L168.147,53.923L168.252,53.923L168.466,53.923L168.572,53.923L168.684,53.923L168.786,53.923L168.89,53.923L169.106,53.923L169.211,53.923L169.324,53.923L169.424,53.923L169.529,53.923L169.744,53.923L169.852,53.923L169.965,53.923L170.064,53.923L170.169,53.923L170.383,53.923L170.491,53.923L170.604,53.923L170.704,53.923L170.808,53.923L171.022,53.923L171.13,53.923L171.243,53.923L171.344,53.923L171.447,53.923L171.661,23.154L171.769,23.154L171.882,23.154L171.982,23.154L172.086,23.154L172.3,23.154L172.407,23.154L172.521,23.154L172.621,23.154L172.939,23.154L173.046,23.154L173.159,23.154L173.259,23.154L173.364,23.154L173.578,23.154L173.685,23.154L173.798,23.154L173.898,23.154L174.003,23.154L174.218,23.154L174.326,23.154L174.439,23.154L174.539,23.154L174.643,23.154L174.857,23.154L174.965,23.154L175.078,23.154L175.178,23.154L175.282,23.154L175.496,23.154L175.603,23.154L175.717,23.154L175.817,23.154L175.922,23.154L176.135,23.154L176.242,23.154L176.356,23.154L176.456,23.154L176.56,23.154L176.774,23.154L176.881,23.154L176.995,23.154L177.095,23.154L177.199,23.154L177.413,23.154L177.52,23.154L177.632,23.154L177.733,23.154L177.837,23.154L178.052,23.154L178.159,23.154L178.272,23.154L178.372,23.154L178.477,23.154L178.692,23.154L178.799,23.154L178.913,23.154L179.012,23.154L179.117,23.154L179.33,23.154L179.438,23.154L179.551,23.154L179.651,23.154L179.755,23.154L179.97,23.154L180.077,23.154L180.19,23.154L180.29,23.154L180.394,23.154L180.609,23.154L180.716,23.154L180.829,23.154L180.929,23.154L181.034,23.154L181.248,23.154L181.355,23.154L181.468,23.154L181.568,23.154L181.673,23.154L181.887,23.154L181.993,23.154L182.106,23.154L182.207,23.154L182.311,23.154L182.526,23.154L182.632,23.154L182.746,23.154L182.846,23.154L182.95,23.154L183.165,23.154L183.273,23.154L183.386,23.154L183.486,23.154L183.59,23.154L183.804,23.154L183.912,23.154L184.025,23.154L184.125,23.154L184.229,23.154L184.443,23.154L184.551,23.154L184.664,23.154L184.764,23.154L184.868,23.154L185.083,23.154L185.19,23.154L185.303,23.154L185.404,23.154L185.507,23.154L185.722,23.154L185.829,23.154L185.942,23.154L186.042,23.154L186.146,23.154L186.36,23.154L186.467,23.154L186.58,23.154L186.68,23.154L186.786,23.154L187,23.154L187.107,23.154L187.219,23.154L187.319,23.154L187.424,23.154L187.639,23.154L187.746,23.154L187.86,23.154L187.96,23.154L188.064,23.154L188.278,23.154L188.385,23.154L188.499,23.154L188.599,23.154L188.703,23.154L188.917,23.154L189.024,23.154L189.138,23.154L189.238,23.154L189.343,23.154L189.556,23.154L189.663,23.154L189.777,23.154L189.877,23.154L189.981,23.154L190.196,23.154L190.302,23.154L190.416,23.154L190.516,23.154L190.62,23.154L190.834,23.154L190.941,23.154L191.053,23.154L191.154,23.154L191.259,23.154L191.473,23.154L191.58,23.154L191.693,23.154L191.793,23.154L191.899,23.154L192.113,23.154L192.22,23.154L192.334,23.154L192.435,23.154L192.537,23.154L192.752,23.154L192.859,23.154L192.973,23.154L193.073,23.154L193.177,23.154L193.391,23.154L193.499,23.154L193.612,23.154L193.712,23.154L193.816,23.154L194.25,23.154L194.35,23.154L194.455,23.154L194.669,23.154L194.775,23.154L194.889,23.154L194.989,23.154L195.094,23.154L195.308,23.154L195.414,23.154L195.527,23.154L195.629,23.154L195.732,23.154L195.947,23.154L196.053,23.154L196.166,23.154L196.266,23.154L196.371,23.154L196.586,23.154L196.693,23.154L196.807,23.154L196.906,23.154L197.011,23.154L197.225,23.154L197.332,23.154L197.445,23.154L197.545,23.154L197.65,23.154L197.865,23.154L197.971,23.154L198.085,23.154L198.185,23.154L198.289,23.154L198.503,58.538L198.61,58.538L198.723,58.538L198.824,58.538L198.928,58.538L199.142,58.538L199.249,58.538L199.362,58.538L199.463,58.538L199.567,58.538L199.781,58.538L199.887,58.538L200,58.538" stroke="#4c78a8" stroke-width="2"/></g></g><path class="foreground" aria-hidden="true" d="" display="none"/></g><g transform="translate(0,0)"><path class="background" aria-hidden="true" d="M0,0h200v200h-200Z"/><g><g class="mark-line role-mark marks" role="graphics-object" aria-roledescription="line mark container"><path aria-label="Time: Jan 01, 2024; Price: 2499; identifier: altex-LG-F2WR508SBM" role="graphics-symbol" aria-roledescription="line mark" d="M0,7.769L0.067,7.769L0.168,7.769L0.381,7.769L0.488,7.769L0.6,7.769L0.702,7.769L0.807,7.769L1.02,7.769L1.127,7.769L1.239,7.769L1.341,7.769L1.446,7.769L1.659,7.769L1.766,7.769L1.878,7.769L1.981,7.769L2.086,7.769L2.299,27L2.405,27L2.517,27L2.619,27L2.724,27L2.938,27L3.044,27L3.156,27L3.258,27L3.363,27L3.577,27L3.683,27L3.795,27L3.897,27L4.003,27L4.216,27L4.323,27L4.435,27L4.537,27L4.642,27L4.856,27L4.962,27L5.075,27L5.176,27L5.281,27L5.495,27L5.601,27L5.713,27L5.815,27L5.92,27L6.134,27L6.24,27L6.353,27L6.454,27L6.559,27L6.773,27L6.879,27L6.991,27L7.093,27L7.198,27L7.411,38.538L7.518,38.538L7.629,38.538L7.732,38.538L7.837,38.538L8.051,38.538L8.157,38.538L8.268,38.538L8.371,38.538L8.476,38.538L8.69,38.538L8.797,38.538L8.909,38.538L9.011,38.538L9.115,38.538L9.329,38.538L9.436,38.538L9.548,38.538L9.65,38.538L9.754,38.538L9.968,38.538L10.075,38.538L10.187,38.538L10.289,38.538L10.394,38.538L10.607,38.538L10.714,38.538L10.826,38.538L10.928,38.538L11.033,38.538L11.246,38.538L11.353,38.538L11.465,38.538L11.567,38.538L11.672,38.538L11.885,38.538L11.991,38.538L12.103,38.538L12.206,38.538L12.311,38.538L12.524,38.538L12.631,38.538L12.742,38.538L12.845,38.538L12.95,38.538L13.164,38.538L13.271,38.538L13.383,38.538L13.484,38.538L13.589,38.538L13.803,38.538L13.91,38.538L14.022,38.538L14.124,38.538L14.228,38.538L14.442,38.538L14.549,38.538L14.661,38.538L14.763,38.538L14.867,38.538L15.081,38.538L15.188,38.538L15.3,38.538L15.402,38.538L15.506,38.538L15.72,38.538L15.827,38.538L15.937,38.538L16.039,38.538L16.146,38.538L16.358,38.538L16.465,38.538L16.575,38.538L16.678,38.538L16.784,38.538L16.998,38.538L17.104,38.538L17.214,38.538L17.317,38.538L17.424,38.538L17.637,38.538L17.744,38.538L17.854,38.538L17.956,38.538L18.063,38.538L18.276,38.538L18.382,38.538L18.493,38.538L18.597,38.538L18.702,38.538L18.915,38.538L19.021,38.538L19.132,38.538L19.234,38.538L19.341,38.538L19.554,27L19.661,27L19.771,27L19.873,27L19.98,27L20.193,27L20.3,27L20.41,27L20.512,27L20.619,27L20.832,27L20.939,27L21.049,27L21.152,27L21.259,27L21.472,27L21.578,27L21.688,27L21.791,27L21.897,27L22.11,27L22.217,27L22.328,27L22.43,27L22.536,27L22.749,27L22.856,27L22.967,27L23.069,27L23.176,27L23.389,27L23.495,27L23.606,27L23.709,27L23.815,27L24.028,27L24.134,27L24.245,27L24.348,27L24.454,27L24.667,27L24.774,27L24.884,27L24.987,27L25.093,27L25.306,27L25.412,27L25.522,27L25.625,27L25.732,27L25.945,27L26.052,27L26.161,27L26.265,27L26.371,27L26.584,27L26.691,27L26.802,27L26.904,27L27.01,27L27.223,27L27.33,27L27.44,27L27.544,27L27.649,27L27.862,27L27.969,27L28.08,27L28.182,27L28.288,27L28.608,27L28.719,27L28.821,27L28.928,27L29.141,27L29.247,27L29.358,27L29.461,27L29.567,27L29.78,27L29.886,27L29.996,27L30.099,27L30.206,27L30.419,27L30.526,27L30.635,27L30.738,27L30.845,27L31.058,27L31.165,27L31.276,27L31.379,27L31.484,27L31.697,27L31.803,27L31.914,27L32.017,27L32.123,27L32.336,27L32.443,27L32.553,27L32.656,27L32.762,27L32.975,27L33.082,27L33.192,27L33.295,27L33.401,27L33.614,27L33.721,27L33.831,27L33.934,27L34.041,27L34.253,27L34.36,27L34.469,27L34.573,27L34.679,27L34.892,27L34.999,27L35.109,27L35.212,27L35.318,27L35.531,27L35.638,27L35.749,27L35.851,27L35.957,27L36.171,27L36.277,27L36.388,27L36.49,27L36.597,27L36.81,27L36.916,27L37.027,27L37.13,27L37.236,27L37.449,27L37.555,27L37.666,27L37.768,27L37.875,27L38.088,27L38.195,27L38.305,27L38.408,27L38.514,27L38.727,27L38.833,27L38.944,27L39.046,27L39.153,27L39.366,27L39.472,27L39.582,27L39.686,27L39.792,27L40.015,27L40.16,27L40.224,27L40.325,27L40.431,27L40.644,27L40.751,27L40.862,27L40.964,27L41.07,27L41.283,27L41.391,27L41.501,27L41.604,27L41.709,27L41.922,27L42.029,27L42.14,38.538L42.242,38.538L42.349,38.538L42.562,38.538L42.67,38.538L42.779,38.538L42.881,38.538L42.987,38.538L43.201,38.538L43.307,38.538L43.417,38.538L43.521,38.538L43.627,38.538L43.84,38.538L43.947,38.538L44.056,38.538L44.16,38.538L44.266,38.538L44.479,38.538L44.585,38.538L44.696,38.538L44.799,38.538L44.905,38.538L45.118,38.538L45.224,38.538L45.335,38.538L45.438,38.538L45.544,38.538L45.757,38.538L45.864,38.538L45.975,38.538L46.077,38.538L46.183,38.538L46.396,38.538L46.503,38.538L46.614,38.538L46.716,38.538L46.822,38.538L47.035,38.538L47.142,38.538L47.252,38.538L47.355,38.538L47.461,38.538L47.674,38.538L47.781,38.538L47.891,38.538L47.994,38.538L48.101,38.538L48.313,38.538L48.421,38.538L48.53,38.538L48.633,38.538L48.74,38.538L48.952,38.538L49.059,38.538L49.171,38.538L49.273,38.538L49.379,38.538L49.592,38.538L49.698,38.538L49.809,38.538L49.912,38.538L50.018,38.538L50.231,38.538L50.337,38.538L50.448,38.538L50.552,38.538L50.657,38.538L50.87,38.538L50.977,38.538L51.088,38.538L51.191,38.538L51.296,38.538L51.509,38.538L51.615,38.538L51.726,38.538L51.829,38.538L51.935,38.538L52.148,38.538L52.254,38.538L52.365,38.538L52.467,38.538L52.574,38.538L52.787,38.538L52.894,38.538L53.005,38.538L53.107,38.538L53.213,38.538L53.426,38.538L53.533,38.538L53.644,38.538L53.746,38.538L53.852,38.538L54.065,38.538L54.173,38.538L54.283,38.538L54.386,38.538L54.491,38.538L54.705,38.538L54.811,38.538L54.922,38.538L55.025,38.538L55.13,38.538L55.343,38.538L55.45,38.538L55.561,38.538L55.664,38.538L55.769,38.538L55.983,38.538L56.089,38.538L56.2,38.538L56.303,38.538L56.409,38.538L56.622,38.538L56.728,38.538L56.838,38.538L56.942,38.538L57.048,38.538L57.261,38.538L57.368,38.538L57.478,38.538L57.581,38.538L57.687,38.538L57.9,38.538L58.007,38.538L58.118,38.538L58.221,38.538L58.326,38.538L58.539,38.538L58.646,38.538L58.757,38.538L58.86,38.538L58.965,38.538L59.178,38.538L59.285,38.538L59.396,38.538L59.499,38.538L59.604,38.538L59.817,38.538L59.924,38.538L60.035,38.538L60.137,38.538L60.243,38.538L60.457,38.538L60.674,38.538L60.776,38.538L60.883,38.538L61.096,38.538L61.202,38.538L61.312,38.538L61.415,38.538L61.521,38.538L61.734,38.538L61.841,38.538L61.951,38.538L62.054,38.538L62.16,38.538L62.374,38.538L62.48,38.538L62.591,38.538L62.694,38.538L62.8,38.538L63.013,38.538L63.119,38.538L63.23,38.538L63.333,38.538L63.439,38.538L63.652,38.538L63.759,38.538L63.87,38.538L63.973,38.538L64.078,38.538L64.291,38.538L64.398,38.538L64.509,38.538L64.717,38.538L64.93,38.538L65.037,38.538L65.148,38.538L65.25,38.538L65.356,38.538L65.569,38.538L65.675,38.538L65.784,38.538L65.888,38.538L65.995,38.538L66.218,38.538L66.382,38.538L66.482,38.538L66.688,38.538L66.849,38.538L66.954,38.538L67.063,38.538L67.167,38.538L67.273,38.538L67.486,38.538L67.593,38.538L67.704,38.538L67.806,38.538L67.912,38.538L68.125,38.538L68.232,38.538L68.344,38.538L68.446,38.538L68.552,38.538L68.871,38.538L68.982,38.538L69.085,38.538L69.191,38.538L69.404,38.538L69.51,38.538L69.621,38.538L69.724,38.538L69.83,38.538L70.043,38.538L70.149,38.538L70.26,38.538L70.362,38.538L70.469,38.538L70.682,38.538L70.789,38.538L70.899,38.538L71.001,38.538L71.108,38.538L71.321,38.538L71.428,38.538L71.539,38.538L71.641,38.538L71.747,38.538L71.96,38.538L72.067,38.538L72.178,38.538L72.28,38.538L72.386,38.538L72.599,38.538L72.706,38.538L72.82,38.538L72.919,38.538L73.025,38.538L73.238,38.538L73.345,38.538L73.453,38.538L73.558,38.538L73.664,38.538L73.877,38.538L73.984,38.538L74.095,38.538L74.198,38.538L74.304,38.538L74.516,38.538L74.623,38.538L74.733,38.538L74.836,38.538L74.942,38.538L75.156,38.538L75.262,38.538L75.373,38.538L75.475,38.538L75.581,38.538L75.794,38.538L75.903,38.538L76.013,38.538L76.115,38.538L76.221,38.538L76.434,38.538L76.541,38.538L76.652,38.538L76.754,38.538L76.86,38.538L77.073,38.538L77.181,38.538L77.291,38.538L77.393,38.538L77.499,38.538L77.712,38.538L77.819,38.538L77.931,38.538L78.032,38.538L78.138,38.538L78.351,38.538L78.457,38.538L78.569,38.538L78.671,38.538L78.777,38.538L78.99,38.538L79.097,38.538L79.207,38.538L79.31,38.538L79.416,38.538L79.629,38.538L79.736,38.538L79.847,38.538L79.949,38.538L80.055,38.538L80.268,38.538L80.375,38.538L80.487,38.538L80.589,38.538L80.694,38.538L80.907,38.538L81.014,38.538L81.125,30.846L81.228,30.846L81.334,30.846L81.546,30.846L81.653,30.846L81.766,30.846L81.868,30.846L81.972,30.846L82.186,30.846L82.293,30.846L82.404,30.846L82.508,30.846L82.612,30.846L82.825,30.846L82.931,30.846L83.044,30.846L83.145,30.846L83.251,30.846L83.464,30.846L83.57,30.846L83.681,30.846L83.783,30.846L83.89,30.846L84.103,30.846L84.209,30.846L84.321,30.846L84.423,30.846L84.529,30.846L84.742,30.846L84.849,30.846L84.961,30.846L85.063,30.846L85.168,30.846L85.381,30.846L85.488,30.846L85.6,30.846L85.702,30.846L85.807,30.846L86.02,30.846L86.127,30.846L86.24,30.846L86.341,30.846L86.446,30.846L86.659,30.846L86.766,30.846L86.879,30.846L86.98,30.846L87.085,30.846L87.298,30.846L87.405,30.846L87.517,30.846L87.619,30.846L87.724,30.846L87.937,30.846L88.044,30.846L88.156,30.846L88.257,30.846L88.363,30.846L88.577,30.846L88.683,30.846L88.795,30.846L88.897,30.846L89.003,30.846L89.217,30.846L89.323,30.846L89.435,30.846L89.536,30.846L89.642,30.846L89.855,30.846L89.962,30.846L90.074,30.846L90.175,30.846L90.281,30.846L90.494,30.846L90.601,30.846L90.713,38.538L90.815,38.538L90.92,38.538L91.133,38.538L91.24,38.538L91.352,38.538L91.454,38.538L91.559,38.538L91.773,38.538L91.879,38.538L91.991,38.538L92.092,38.538L92.199,38.538L92.412,38.538L92.518,38.538L92.629,38.538L92.731,38.538L92.837,38.538L93.051,38.538L93.157,38.538L93.268,38.538L93.37,38.538L93.477,38.538L93.69,38.538L93.797,38.538L93.909,38.538L94.01,38.538L94.115,38.538L94.331,38.538L94.436,38.538L94.548,38.538L94.649,38.538L94.754,38.538L94.969,38.538L95.075,38.538L95.187,38.538L95.288,38.538L95.394,38.538L95.608,38.538L95.714,38.538L95.826,38.538L95.927,38.538L96.033,38.538L96.247,30.846L96.353,30.846L96.465,30.846L96.566,30.846L96.672,30.846L96.885,30.846L96.991,30.846L97.103,30.846L97.205,30.846L97.311,30.846L97.524,30.846L97.631,30.846L97.742,30.846L97.844,30.846L97.95,30.846L98.164,30.846L98.27,30.846L98.383,30.846L98.484,30.846L98.59,30.846L98.802,30.846L98.91,30.846L99.022,30.846L99.124,30.846L99.228,30.846L99.442,30.846L99.549,30.846L99.661,30.846L99.762,30.846L99.867,30.846L100.081,30.846L100.188,30.846L100.3,30.846L100.401,30.846L100.506,30.846L100.72,30.846L100.827,30.846L100.939,30.846L101.041,30.846L101.146,30.846L101.359,30.846L101.465,30.846L101.577,30.846L101.679,30.846L101.784,30.846L101.998,30.846L102.104,30.846L102.216,30.846L102.318,30.846L102.424,30.846L102.638,30.846L102.745,30.846L102.857,30.846L102.958,30.846L103.063,30.846L103.277,30.846L103.383,30.846L103.496,30.846L103.597,30.846L103.703,30.846L103.915,30.846L104.022,34.692L104.135,34.692L104.236,34.692L104.341,34.692L104.555,34.692L104.661,34.692L104.774,34.692L104.876,34.692L104.98,34.692L105.194,34.692L105.3,34.692L105.413,40.077L105.514,40.077L105.62,40.077L105.833,40.077L105.94,40.077L106.051,40.077L106.153,40.077L106.258,40.077L106.471,40.077L106.578,40.077L106.69,40.077L106.792,40.077L106.897,40.077L107.112,40.077L107.218,40.077L107.331,40.077L107.431,40.077L107.537,40.077L107.75,40.077L107.857,40.077L107.969,40.077L108.071,40.077L108.175,40.077L108.389,40.077L108.496,40.077L108.609,40.077L108.71,40.077L108.815,40.077L109.028,40.077L109.135,40.077L109.247,40.077L109.35,40.077L109.454,40.077L109.668,40.077L109.774,40.077L109.886,40.077L109.987,40.077L110.093,40.077L110.306,40.077L110.413,40.077L110.526,40.077L110.626,40.077L110.732,40.077L110.945,40.077L111.051,40.077L111.163,40.077L111.265,40.077L111.371,40.077L111.585,40.077L111.692,40.077L111.804,40.077L111.905,40.077L112.01,40.077L112.224,40.077L112.331,40.077L112.443,40.077L112.65,40.077L112.863,40.077L112.97,40.077L113.082,40.077L113.183,40.077L113.288,40.077L113.503,40.077L113.609,40.077L113.721,40.077L113.823,40.077L113.928,40.077L114.141,40.077L114.248,40.077L114.361,40.077L114.461,40.077L114.567,40.077L114.78,40.077L114.887,40.077L114.998,40.077L115.1,40.077L115.206,40.077L115.419,40.077L115.525,40.077L115.638,40.077L115.74,40.077L115.845,40.077L116.058,40.077L116.166,40.077L116.278,40.077L116.38,40.077L116.484,40.077L116.698,40.077L116.804,40.077L116.916,40.077L117.018,40.077L117.123,40.077L117.336,40.077L117.444,40.077L117.556,40.077L117.658,40.077L117.762,40.077L117.976,40.077L118.082,40.077L118.195,40.077L118.296,40.077L118.401,40.077L118.616,40.077L118.721,40.077L118.834,40.077L118.935,40.077L119.04,40.077L119.254,40.077L119.36,40.077L119.472,40.077L119.574,40.077L119.68,40.077L119.892,40.077L119.999,40.077L120.111,40.077L120.212,40.077L120.319,40.077L120.533,40.077L120.639,40.077L120.751,40.077L120.853,40.077L120.957,40.077L121.171,40.077L121.278,40.077L121.391,40.077L121.492,40.077L121.597,40.077L121.811,40.077L121.918,40.077L122.03,40.077L122.131,40.077L122.236,40.077L122.45,40.077L122.556,40.077L122.669,40.077L122.77,40.077L122.875,40.077L123.088,40.077L123.195,40.077L123.308,40.077L123.409,40.077L123.514,40.077L123.727,40.077L123.833,40.077L123.945,40.077L124.047,40.077L124.153,40.077L124.367,40.077L124.474,40.077L124.592,40.077L124.692,40.077L124.792,40.077L125.006,40.077L125.113,40.077L125.226,40.077L125.327,40.077L125.431,40.077L125.645,40.077L125.752,40.077L125.863,40.077L125.966,40.077L126.07,40.077L126.284,40.077L126.391,40.077L126.504,40.077L126.605,40.077L126.709,40.077L126.924,40.077L127.03,40.077L127.143,40.077L127.243,40.077L127.348,40.077L127.563,40.077L127.669,40.077L127.782,40.077L127.883,40.077L127.988,40.077L128.202,40.077L128.307,40.077L128.42,40.077L128.521,40.077L128.627,40.077L128.84,40.077L128.946,40.077L129.059,40.077L129.161,40.077L129.266,40.077L129.48,40.077L129.587,40.077L129.699,40.077L129.8,40.077L129.905,40.077L130.118,40.077L130.226,40.077L130.338,40.077L130.439,40.077L130.544,40.077L130.757,40.077L130.865,40.077L130.978,40.077L131.078,40.077L131.183,40.077L131.398,40.077L131.504,40.077L131.616,40.077L131.718,40.077L131.823,40.077L132.037,40.077L132.143,40.077L132.255,40.077L132.357,40.077L132.461,40.077L132.675,40.077L132.781,40.077L132.894,40.077L132.995,40.077L133.101,40.077L133.314,40.077L133.42,40.077L133.532,40.077L133.634,40.077L133.739,40.077L133.953,40.077L134.06,40.077L134.173,40.077L134.274,40.077L134.379,40.077L134.592,40.077L134.699,40.077L134.812,40.077L134.913,40.077L135.017,40.077L135.231,40.077L135.337,40.077L135.452,40.077L135.552,40.077L135.657,40.077L135.871,40.077L135.978,40.077L136.09,40.077L136.191,40.077L136.296,40.077L136.51,40.077L136.617,40.077L136.729,40.077L136.831,40.077L136.935,40.077L137.149,40.077L137.255,40.077L137.367,40.077L137.469,40.077L137.574,40.077L137.789,40.077L137.894,40.077L138.006,40.077L138.107,40.077L138.214,40.077L138.427,40.077L138.534,40.077L138.647,40.077L138.747,40.077L138.853,40.077L139.067,40.077L139.173,40.077L139.286,40.077L139.387,40.077L139.491,40.077L139.706,40.077L139.812,40.077L139.925,40.077L140.026,40.077L140.131,40.077L140.345,40.077L140.451,40.077L140.564,40.077L140.665,40.077L140.77,40.077L140.984,40.077L141.09,40.077L141.203,40.077L141.304,40.077L141.409,40.077L141.624,40.077L141.729,40.077L141.841,40.077L141.944,40.077L142.048,40.077L142.262,40.077L142.368,40.077L142.48,40.077L142.582,40.077L142.687,40.077L142.901,40.077L143.008,40.077L143.121,40.077L143.222,40.077L143.326,40.077L143.54,40.077L143.647,40.077L143.76,40.077L143.861,40.077L143.965,40.077L144.179,40.077L144.286,40.077L144.399,40.077L144.5,40.077L144.604,40.077L144.818,40.077L144.925,40.077L145.038,40.077L145.139,40.077L145.243,40.077L145.457,40.077L145.564,40.077L145.677,40.077L145.778,40.077L145.882,40.077L146.096,40.077L146.202,40.077L146.314,40.077L146.417,40.077L146.523,40.077L146.735,40.077L146.841,40.077L146.954,40.077L147.055,40.077L147.16,40.077L147.374,40.077L147.482,40.077L147.594,40.077L147.695,40.077L147.8,40.077L148.015,40.077L148.121,40.077L148.233,40.077L148.334,40.077L148.439,40.077L148.653,40.077L148.76,40.077L148.87,40.077L148.974,40.077L149.078,40.077L149.292,40.077L149.399,40.077L149.512,40.077L149.614,40.077L149.717,40.077L149.931,40.077L150.038,40.077L150.15,40.077L150.251,40.077L150.356,40.077L150.57,40.077L150.676,40.077L150.789,40.077L150.89,40.077L150.995,40.077L151.209,40.077L151.316,40.077L151.428,40.077L151.529,40.077L151.635,40.077L151.849,40.077L151.956,40.077L152.069,40.077L152.169,40.077L152.274,40.077L152.488,40.077L152.594,40.077L152.707,40.077L152.808,40.077L152.913,40.077L153.127,40.077L153.234,40.077L153.347,40.077L153.448,40.077L153.552,40.077L153.766,40.077L153.873,40.077L153.986,40.077L154.086,40.077L154.191,40.077L154.405,40.077L154.512,40.077L154.625,40.077L154.725,40.077L154.83,40.077L155.044,40.077L155.151,40.077L155.263,40.077L155.365,40.077L155.469,40.077L155.684,40.077L155.79,40.077L155.903,40.077L156.003,40.077L156.108,40.077L156.323,40.077L156.43,40.077L156.543,40.077L156.643,40.077L156.748,40.077L156.961,40.077L157.069,40.077L157.182,40.077L157.282,40.077L157.387,40.077L157.601,40.077L157.708,40.077L157.821,40.077L157.921,40.077L158.026,40.077L158.24,40.077L158.347,40.077L158.46,40.077L158.56,40.077L158.665,40.077L158.879,40.077L158.986,40.077L159.099,40.077L159.2,40.077L159.304,40.077L159.518,40.077L159.624,40.077L159.736,40.077L159.838,40.077L159.942,40.077L160.157,40.077L160.263,40.077L160.376,40.077L160.477,40.077L160.582,40.077L160.796,40.077L160.904,40.077L161.017,40.077L161.117,40.077L161.221,40.077L161.435,40.077L161.542,40.077L161.656,40.077L161.756,40.077L161.86,40.077L162.075,40.077L162.182,40.077L162.295,40.077L162.395,40.077L162.499,40.077L162.714,40.077L162.821,40.077L162.934,40.077L163.034,40.077L163.139,40.077L163.353,40.077L163.46,40.077L163.573,40.077L163.673,40.077L163.778,40.077L163.992,40.077L164.098,40.077L164.211,40.077L164.311,40.077L164.417,40.077L164.631,40.077L164.737,40.077L164.85,40.077L164.951,40.077L165.055,40.077L165.271,40.077L165.377,40.077L165.491,40.077L165.591,40.077L165.695,40.077L165.908,40.077L166.016,40.077L166.13,40.077L166.23,40.077L166.334,40.077L166.548,40.077L166.655,40.077L166.768,40.077L166.869,40.077L166.973,40.077L167.188,40.077L167.294,40.077L167.408,40.077L167.508,40.077L167.612,40.077L167.827,40.077L167.933,40.077L168.047,40.077L168.147,40.077L168.252,40.077L168.466,40.077L168.572,40.077L168.684,40.077L168.786,40.077L168.89,40.077L169.106,40.077L169.211,40.077L169.324,40.077L169.424,40.077L169.529,40.077L169.744,40.077L169.852,40.077L169.965,40.077L170.064,40.077L170.169,40.077L170.383,40.077L170.491,40.077L170.604,40.077L170.704,40.077L170.808,40.077L171.022,40.077L171.13,40.077L171.243,40.077L171.344,40.077L171.447,40.077L171.661,40.077L171.769,40.077L171.883,40.077L171.982,40.077L172.086,40.077L172.3,40.077L172.408,40.077L172.521,40.077L172.621,40.077L172.939,40.077L173.046,40.077L173.159,40.077L173.259,40.077L173.364,40.077L173.578,40.077L173.685,40.077L173.798,40.077L173.899,40.077L174.003,40.077L174.218,40.077L174.326,40.077L174.439,40.077L174.539,40.077L174.643,40.077L174.857,40.077L174.965,40.077L175.078,40.077L175.178,40.077L175.282,40.077L175.496,40.077L175.603,40.077L175.717,40.077L175.817,40.077L175.922,40.077L176.135,40.077L176.242,50.077L176.356,50.077L176.456,50.077L176.56,50.077L176.774,50.077L176.881,50.077L176.995,50.077L177.095,50.077L177.199,50.077L177.413,50.077L177.52,50.077L177.632,50.077L177.733,50.077L177.837,50.077L178.052,50.077L178.159,50.077L178.272,50.077L178.372,50.077L178.477,50.077L178.692,50.077L178.799,50.077L178.913,50.077L179.012,50.077L179.117,50.077L179.33,50.077L179.438,30.846L179.551,30.846L179.652,30.846L179.755,30.846L179.97,30.846L180.077,30.846L180.19,50.077L180.29,50.077L180.395,50.077L180.609,50.077L180.716,50.077L180.829,50.077L180.929,50.077L181.034,50.077L181.248,50.077L181.355,50.077L181.468,50.077L181.568,50.077L181.673,50.077L181.887,50.077L181.993,50.077L182.106,50.077L182.207,50.077L182.311,50.077L182.526,50.077L182.632,50.077L182.746,50.077L182.846,50.077L182.95,50.077L183.165,50.077L183.273,50.077L183.386,50.077L183.486,50.077L183.59,50.077L183.804,50.077L183.912,50.077L184.025,50.077L184.125,50.077L184.229,50.077L184.443,50.077L184.551,50.077L184.664,50.077L184.764,50.077L184.868,50.077L185.083,50.077L185.19,50.077L185.303,50.077L185.404,50.077L185.507,50.077L185.722,50.077L185.829,50.077L185.942,50.077L186.042,50.077L186.146,50.077L186.36,50.077L186.467,50.077L186.58,50.077L186.68,50.077L186.786,50.077L187,50.077L187.107,50.077L187.219,50.077L187.319,50.077L187.424,50.077L187.639,50.077L187.746,50.077L187.86,50.077L187.96,50.077L188.064,50.077L188.278,50.077L188.385,50.077L188.499,50.077L188.599,50.077L188.703,50.077L188.917,50.077L189.024,50.077L189.138,50.077L189.239,50.077L189.343,50.077L189.556,50.077L189.663,50.077L189.777,50.077L189.877,50.077L189.981,50.077L190.196,50.077L190.302,50.077L190.416,50.077L190.516,50.077L190.62,50.077L190.834,50.077L190.941,50.077L191.053,50.077L191.154,50.077L191.259,50.077L191.473,50.077L191.58,50.077L191.693,50.077L191.793,50.077L191.899,50.077L192.113,50.077L192.22,50.077L192.334,50.077L192.435,50.077L192.537,50.077L192.752,50.077L192.859,50.077L192.973,50.077L193.073,50.077L193.177,50.077L193.391,50.077L193.499,50.077L193.612,50.077L193.712,50.077L193.816,50.077L194.25,50.077L194.35,50.077L194.455,50.077L194.669,50.077L194.775,50.077L194.889,50.077L194.989,50.077L195.094,50.077L195.308,50.077L195.414,50.077L195.527,50.077L195.629,50.077L195.732,50.077L195.947,50.077L196.053,50.077L196.166,50.077L196.266,50.077L196.371,50.077L196.586,50.077L196.693,50.077L196.807,50.077L196.906,50.077L197.011,50.077L197.225,50.077L197.332,50.077L197.445,50.077L197.545,50.077L197.65,50.077L197.865,50.077L197.971,50.077L198.085,50.077L198.185,50.077L198.289,50.077L198.503,50.077L198.61,50.077L198.723,50.077L198.824,50.077L198.928,50.077L199.142,50.077L199.249,50.077L199.362,50.077L199.463,50.077L199.567,50.077L199.781,50.077L199.887,50.077L200,50.077" stroke="#f58518" stroke-width="2"/></g></g><path class="foreground" aria-hidden="true" d="" display="none"/></g></g><g class="mark-group role-legend" role="graphics-symbol" aria-roledescription="legend" aria-label="Symbol legend titled 'identifier' for stroke color with 2 values: altex-LG-F2WR508SBW, altex-LG-F2WR508SBM"><g transform="translate(220,0)"><path class="background" aria-hidden="true" d="M0,0h168v40h-168Z" pointer-events="none"/><g><g class="mark-group role-legend-entry"><g transform="translate(0,16)"><path class="background" aria-hidden="true" d="M0,0h0v0h0Z" pointer-events="none"/><g><g class="mark-group role-scope" role="graphics-object" aria-roledescription="group mark container"><g transform="translate(0,0)"><path class="background" aria-hidden="true" d="M0,0h168v11h-168Z" pointer-events="none" opacity="1"/><g><g class="mark-symbol role-legend-symbol" pointer-events="none"><path transform="translate(6,6)" d="M-5,0L5,0" stroke="#4c78a8" stroke-width="1.5" opacity="1"/></g><g class="mark-text role-legend-label" pointer-events="none"><text text-anchor="start" transform="translate(16,9)" font-family="Liberation Mono" font-size="10px" fill="#000" opacity="1">altex-LG-F2WR508SBW</text></g></g><path class="foreground" aria-hidden="true" d="" pointer-events="none" display="none"/></g><g transform="translate(0,13)"><path class="background" aria-hidden="true" d="M0,0h168v11h-168Z" pointer-events="none" opacity="1"/><g><g class="mark-symbol role-legend-symbol" pointer-events="none"><path transform="translate(6,6)" d="M-5,0L5,0" stroke="#f58518" stroke-width="1.5" opacity="1"/></g><g class="mark-text role-legend-label" pointer-events="none"><text text-anchor="start" transform="translate(16,9)" font-family="Liberation Mono" font-size="10px" fill="#000" opacity="1">altex-LG-F2WR508SBM</text></g></g><path class="foreground" aria-hidden="true" d="" pointer-events="none" display="none"/></g></g></g><path class="foreground" aria-hidden="true" d="" pointer-events="none" display="none"/></g></g><g class="mark-text role-legend-title" pointer-events="none"><text text-anchor="start" transform="translate(0,9)" font-family="Liberation Mono" font-size="11px" font-weight="bold" fill="#000" opacity="1">identifier</text></g></g><path class="foreground" aria-hidden="true" d="" pointer-events="none" display="none"/></g></g></g><path class="foreground" aria-hidden="true" d="" display="none"/></g></g></g></svg>