<svg xmlns="http://www.w3.org/2000/svg" xmlns:xlink="http://www.w3.org/1999/xlink" version="1.1" class="marks" width="460" height="242" viewBox="0 0 460 242"><rect width="460" height="242" fill="white"/><g fill="none" stroke-miterlimit="10" transform="translate(67,5)"><g class="mark-group role-frame root" role="graphics-object" aria-roledescription="group mark container"><g transform="translate(0,0)"><path class="background" aria-hidden="true" d="M0.5,0.5h200v200h-200Z" stroke="#ddd"/><g><g class="mark-group role-axis" aria-hidden="true"><g transform="translate(0.5,200.5)"><path class="background" aria-hidden="true" d="M0,0h0v0h0Z" pointer-events="none"/><g><g class="mark-rule role-axis-grid" pointer-events="none"><line transform="translate(42,-200)" x2="0" y2="200" stroke="#ddd" stroke-width="1" opacity="1"/><line transform="translate(82,-200)" x2="0" y2="200" stroke="#ddd" stroke-width="1" opacity="1"/><line transform="translate(125,-200)" x2="0" y2="200" stroke="#ddd" stroke-width="1" opacity="1"/><line transform="translate(167,-200)" x2="0" y2="200" stroke="#ddd" stroke-width="1" opacity="1"/></g></g><path class="foreground" aria-hidden="true" d="" pointer-events="none" display="none"/></g></g><g class="mark-group role-axis" aria-hidden="true"><g transform="translate(0.5,0.5)"><path class="background" aria-hidden="true" d="M0,0h0v0h0Z" pointer-events="none"/><g><g class="mark-rule role-axis-grid" pointer-events="none"><line transform="translate(0,200)" x2="200" y2="0" stroke="#ddd" stroke-width="1" opacity="1"/><line transform="translate(0,162)" x2="200" y2="0" stroke="#ddd" stroke-width="1" opacity="1"/><line transform="translate(0,123)" x2="200" y2="0" stroke="#ddd" stroke-width="1" opacity="1"/><line transform="translate(0,85)" x2="200" y2="0" stroke="#ddd" stroke-width="1" opacity="1"/><line transform="translate(0,46)" x2="200" y2="0" stroke="#ddd" stroke-width="1" opacity="1"/><line transform="translate(0,8)" x2="200" y2="0" stroke="#ddd" stroke-width="1" opacity="1"/></g></g><path class="foreground" aria-hidden="true" d="" pointer-events="none" display="none"/></g></g><g class="mark-group role-axis" role="graphics-symbol" aria-roledescription="axis" aria-label="X-axis titled 'Time' for a time scale with values from Monday, 01 January 2024, 2:19:43 PM to Friday, 24 May 2024, 8:39:25 PM"><g transform="translate(0.5,200.5)"><path class="background" aria-hidden="true" d="M0,0h0v0h0Z" pointer-events="none"/><g><g class="mark-rule role-axis-tick" pointer-events="none"><line transform="translate(42,0)" x2="0" y2="5" stroke="#888" stroke-width="1" opacity="1"/><line transform="translate(82,0)" x2="0" y2="5" stroke="#888" stroke-width="1" opacity="1"/><line transform="translate(125,0)" x2="0" y2="5" stroke="#888" stroke-width="1" opacity="1"/><line transform="translate(167,0)" x2="0" y2="5" stroke="#888" stroke-width="1" opacity="1"/></g><g class="mark-text role-axis-label" pointer-events="none"><text text-anchor="middle" transform="translate(42.14917096630697,15)" font-family="Liberation Mono" font-size="10px" fill="#000" opacity="1">February</text><text text-anchor="middle" transform="translate(82.35332968679559,15)" font-family="Liberation Mono" font-size="10px" fill="#000" opacity="0">March</text><text text-anchor="middle" transform="translate(125.33018900869723,15)" font-family="Liberation Mono" font-size="10px" fill="#000" opacity="0">April</text><text text-anchor="middle" transform="translate(166.92069802989238,15)" font-family="Liberation Mono" font-size="10px" fill="#000" opacity="1">May</text></g><g class="mark-rule role-axis-domain" pointer-events="none"><line transform="translate(0,0)" x2="200" y2="0" stroke="#888" stroke-width="1" opacity="1"/></g><g class="mark-text role-axis-title" pointer-events="none"><text text-anchor="middle" transform="translate(100,30)" font-family="Liberation Mono" font-size="11px" font-weight="bold" fill="#000" opacity="1">Time</text></g></g><path class="foreground" aria-hidden="true" d="" pointer-events="none" display="none"/></g></g><g class="mark-group role-axis" role="graphics-symbol" aria-roledescription="axis" aria-label="Y-axis titled 'Price' for a linear scale with values from 0 to 2,600"><g transform="translate(0.5,0.5)"><path class="background" aria-hidden="true" d="M0,0h0v0h0Z" pointer-events="none"/><g><g class="mark-rule role-axis-tick" pointer-events="none"><line transform="translate(0,200)" x2="-5" y2="0" stroke="#888" stroke-width="1" opacity="1"/><line transform="translate(0,162)" x2="-5" y2="0" stroke="#888" stroke-width="1" opacity="1"/><line transform="translate(0,123)" x2="-5" y2="0" stroke="#888" stroke-width="1" opacity="1"/><line transform="translate(0,85)" x2="-5" y2="0" stroke="#888" stroke-width="1" opacity="1"/><line transform="translate(0,46)" x2="-5" y2="0" stroke="#888" stroke-width="1" opacity="1"/><line transform="translate(0,8)" x2="-5" y2="0" stroke="#888" stroke-width="1" opacity="1"/></g><g class="mark-text role-axis-label" pointer-events="none"><text text-anchor="end" transform="translate(-7,203)" font-family="Liberation Mono" font-size="10px" fill="#000" opacity="1">0</text><text text-anchor="end" transform="translate(-7,164.53846153846155)" font-family="Liberation Mono" font-size="10px" fill="#000" opacity="1">500</text><text text-anchor="end" transform="translate(-7,126.07692307692308)" font-family="Liberation Mono" font-size="10px" fill="#000" opacity="1">1,000</text><text text-anchor="end" transform="translate(-7,87.61538461538463)" font-family="Liberation Mono" font-size="10px" fill="#000" opacity="1">1,500</text><text text-anchor="end" transform="translate(-7,49.153846153846146)" font-family="Liberation Mono" font-size="10px" fill="#000" opacity="1">2,000</text><text text-anchor="end" transform="translate(-7,10.692307692307686)" font-family="Liberation Mono" font-size="10px" fill="#000" opacity="1">2,500</text></g><g class="mark-rule role-axis-domain" pointer-events="none"><line transform="translate(0,200)" x2="0" y2="-200" stroke="#888" stroke-width="1" opacity="1"/></g><g class="mark-text role-axis-title" pointer-events="none"><text text-anchor="middle" transform="translate(-51,100) rotate(-90) translate(0,-2)" font-family="Liberation Mono" font-size="11px" font-weight="bold" fill="#000" opacity="1">Price</text></g></g><path class="foreground" aria-hidden="true" d="" pointer-events="none" display="none"/></g></g><g class="mark-group role-scope pathgroup" role="graphics-object" aria-roledescription="group mark container"><g transform="translate(0,0)"><path class="background" aria-hidden="true" d="M0,0h200v200h-200Z"/><g><g class="mark-line role-mark marks" role="graphics-object" aria-roledescription="line mark container"><path aria-label="Time: Jan 01, 2024; Price: 2399; identifier: altex-LG-F2WR508SBW" role="graphics-symbol" aria-roledescription="line mark" d="M0,15.462L0.145,15.462L0.365,15.462L0.827,15.462L1.058,15.462L1.301,15.462L1.522,15.462L1.751,15.462L2.213,15.462L2.444,15.462L2.688,15.462L2.908,15.462L3.137,15.462L3.6,15.462L3.831,15.462L4.074,15.462L4.296,15.462L4.524,15.462L4.987,34.692L5.217,34.692L5.46,34.692L5.682,34.692L5.91,34.692L6.373,34.692L6.603,34.692L6.845,34.692L7.067,34.692L7.296,34.692L7.76,34.692L7.99,34.692L8.232,34.692L8.454,34.692L8.683,34.692L9.146,34.692L9.378,34.692L9.621,34.692L9.842,34.692L10.069,34.692L10.533,34.692L10.764,34.692L11.01,34.692L11.229,34.692L11.455,34.692L11.919,34.692L12.15,34.692L12.393,34.692L12.614,34.692L12.842,34.692L13.305,34.692L13.536,34.692L13.78,34.692L14.001,34.692L14.228,34.692L14.691,34.692L14.923,34.692L15.165,34.692L15.387,34.692L15.615,34.692L16.077,46.231L16.308,46.231L16.55,46.231L16.772,46.231L17.001,46.231L17.464,46.231L17.694,46.231L17.936,46.231L18.158,46.231L18.387,46.231L18.851,46.231L19.082,46.231L19.326,46.231L19.547,46.231L19.773,46.231L20.236,46.231L20.469,46.231L20.712,46.231L20.933,46.231L21.16,46.231L21.623,46.231L21.855,46.231L22.098,46.231L22.319,46.231L22.546,46.231L23.009,46.231L23.24,46.231L23.484,46.231L23.705,46.231L23.933,46.231L24.396,46.231L24.627,46.231L24.871,46.231L25.092,46.231L25.319,46.231L25.782,46.231L26.012,46.231L26.254,46.231L26.477,46.231L26.705,46.231L27.167,46.231L27.398,46.231L27.641,46.231L27.863,46.231L28.092,46.231L28.556,46.231L28.787,46.231L29.031,46.231L29.251,46.231L29.478,46.231L29.941,46.231L30.173,46.231L30.417,46.231L30.638,46.231L30.864,46.231L31.328,46.231L31.56,46.231L31.803,46.231L32.024,46.231L32.251,46.231L32.715,46.231L32.945,46.231L33.19,46.231L33.411,46.231L33.637,46.231L34.1,46.231L34.331,46.231L34.571,46.231L34.793,46.231L35.024,46.231L35.485,46.231L35.717,46.231L35.954,46.231L36.179,46.231L36.409,46.231L36.872,46.231L37.103,46.231L37.341,46.231L37.565,46.231L37.796,46.231L38.258,46.231L38.49,46.231L38.73,46.231L38.952,46.231L39.183,46.231L39.644,46.231L39.875,46.231L40.116,46.231L40.341,46.231L40.568,46.231L41.031,46.231L41.262,46.231L41.502,46.231L41.724,46.231L41.955,46.231L42.417,34.692L42.648,34.692L42.889,34.692L43.11,34.692L43.341,34.692L43.804,34.692L44.034,34.692L44.275,34.692L44.496,34.692L44.728,34.692L45.19,34.692L45.421,34.692L45.659,34.692L45.883,34.692L46.115,34.692L46.577,34.692L46.808,34.692L47.045,34.692L47.269,34.692L47.5,34.692L47.962,34.692L48.194,34.692L48.435,34.692L48.656,34.692L48.887,34.692L49.349,34.692L49.58,34.692L49.821,34.692L50.042,34.692L50.273,34.692L50.735,34.692L50.967,34.692L51.206,34.692L51.43,34.692L51.66,34.692L52.122,34.692L52.353,34.692L52.593,34.692L52.816,34.692L53.046,34.692L53.508,34.692L53.739,34.692L53.978,34.692L54.202,34.692L54.433,34.692L54.894,34.692L55.125,34.692L55.364,34.692L55.587,34.692L55.819,34.692L56.282,34.692L56.512,34.692L56.75,34.692L56.974,34.692L57.205,34.692L57.667,34.692L57.898,34.692L58.14,34.692L58.361,34.692L58.591,34.692L59.053,34.692L59.284,34.692L59.524,34.692L59.75,34.692L59.978,34.692L60.44,34.692L60.671,34.692L60.911,34.692L61.134,34.692L61.364,34.692L62.057,34.692L62.297,34.692L62.52,34.692L62.751,34.692L63.213,34.692L63.444,34.692L63.684,34.692L63.907,34.692L64.137,34.692L64.599,34.692L64.83,34.692L65.068,34.692L65.292,34.692L65.523,34.692L65.985,34.692L66.217,34.692L66.455,34.692L66.678,34.692L66.909,34.692L67.371,34.692L67.603,34.692L67.844,34.692L68.067,34.692L68.295,34.692L68.759,34.692L68.989,34.692L69.229,34.692L69.452,34.692L69.683,34.692L70.144,34.692L70.375,34.692L70.616,34.692L70.838,34.692L71.069,34.692L71.531,34.692L71.761,34.692L72.002,34.692L72.225,34.692L72.455,34.692L72.917,34.692L73.148,34.692L73.387,34.692L73.61,34.692L73.842,34.692L74.303,34.692L74.534,34.692L74.772,34.692L74.996,34.692L75.227,34.692L75.689,34.692L75.921,34.692L76.159,34.692L76.384,34.692L76.613,34.692L77.076,34.692L77.308,34.692L77.548,34.692L77.77,34.692L78,34.692L78.462,34.692L78.694,34.692L78.933,34.692L79.156,34.692L79.386,34.692L79.849,34.692L80.08,34.692L80.32,34.692L80.543,34.692L80.773,34.692L81.235,34.692L81.466,34.692L81.705,34.692L81.928,34.692L82.159,34.692L82.621,34.692L82.853,34.692L83.093,34.692L83.315,34.692L83.546,34.692L84.008,34.692L84.239,34.692L84.479,34.692L84.701,34.692L84.932,34.692L85.394,34.692L85.625,34.692L85.863,34.692L86.087,34.692L86.318,34.692L86.802,34.692L87.117,34.692L87.255,34.692L87.475,34.692L87.705,34.692L88.166,34.692L88.398,34.692L88.639,34.692L88.86,34.692L89.091,34.692L89.553,34.692L89.786,34.692L90.025,34.692L90.248,34.692L90.477,34.692L90.939,34.692L91.171,34.692L91.411,34.692L91.633,34.692L91.864,34.692L92.326,34.692L92.56,34.692L92.797,34.692L93.019,34.692L93.25,34.692L93.712,34.692L93.943,34.692L94.181,34.692L94.406,34.692L94.636,34.692L95.098,34.692L95.331,34.692L95.567,34.692L95.792,34.692L96.022,34.692L96.486,34.692L96.716,34.692L96.957,34.692L97.18,34.692L97.409,34.692L97.871,34.692L98.102,34.692L98.343,34.692L98.566,34.692L98.795,34.692L99.258,34.692L99.49,34.692L99.73,34.692L99.951,34.692L100.182,34.692L100.644,34.692L100.875,34.692L101.116,34.692L101.338,34.692L101.568,34.692L102.03,34.692L102.263,34.692L102.502,34.692L102.724,34.692L102.954,34.692L103.417,34.692L103.649,34.692L103.887,34.692L104.11,34.692L104.342,34.692L104.803,34.692L105.035,34.692L105.273,34.692L105.496,34.692L105.727,34.692L106.189,34.692L106.42,34.692L106.663,34.692L106.885,34.692L107.115,34.692L107.576,34.692L107.807,34.692L108.047,34.692L108.272,34.692L108.5,34.692L108.962,34.692L109.194,34.692L109.434,34.692L109.658,34.692L109.887,34.692L110.348,34.692L110.58,34.692L110.821,34.692L111.045,34.692L111.273,34.692L111.735,34.692L111.966,34.692L112.206,34.692L112.429,34.692L112.659,34.692L113.121,34.692L113.352,34.692L113.592,34.692L113.814,34.692L114.045,34.692L114.507,34.692L114.739,34.692L114.979,34.692L115.2,34.692L115.431,34.692L115.894,34.692L116.125,34.692L116.366,34.692L116.588,34.692L116.818,34.692L117.28,34.692L117.513,34.692L117.752,34.692L117.975,34.692L118.204,34.692L118.668,34.692L118.898,34.692L119.139,34.692L119.363,34.692L119.591,34.692L120.053,34.692L120.284,34.692L120.525,34.692L120.747,34.692L120.977,34.692L121.44,34.692L121.67,34.692L121.912,34.692L122.133,34.692L122.363,34.692L122.825,34.692L123.056,34.692L123.295,34.692L123.519,34.692L123.751,34.692L124.212,34.692L124.444,34.692L124.682,34.692L124.906,34.692L125.136,34.692L125.598,34.692L125.831,34.692L126.072,34.692L126.295,34.692L126.522,34.692L126.985,34.692L127.216,34.692L127.458,34.692L127.68,34.692L127.908,34.692L128.371,34.692L128.602,34.692L128.843,34.692L129.066,34.692L129.295,34.692L129.758,34.692L129.989,34.692L130.229,34.692L130.452,34.692L130.682,34.692L131.146,34.692L131.615,34.692L131.838,34.692L132.069,34.692L132.531,34.692L132.762,34.692L133,34.692L133.223,34.692L133.454,34.692L133.916,34.692L134.147,34.692L134.386,34.692L134.609,34.692L134.84,34.692L135.303,34.692L135.533,34.692L135.775,34.692L135.998,34.692L136.227,34.692L136.689,34.692L136.92,34.692L137.161,34.692L137.384,34.692L137.613,34.692L138.075,34.692L138.308,34.692L138.548,34.692L138.772,34.692L139.001,34.692L139.463,34.692L139.695,34.692L139.934,34.692L140.387,34.692L140.849,34.692L141.081,34.692L141.32,34.692L141.541,34.692L141.772,34.692L142.234,34.692L142.465,34.692L142.701,34.692L142.927,34.692L143.158,34.692L143.642,34.692L143.997,34.692L144.214,34.692L144.663,34.692L145.011,34.692L145.238,34.692L145.476,34.692L145.7,34.692L145.931,34.692L146.394,34.692L146.625,34.692L146.866,34.692L147.086,34.692L147.318,34.692L147.78,34.692L148.011,34.692L148.253,34.692L148.476,34.692L148.705,34.692L149.398,34.692L149.639,34.692L149.861,34.692L150.091,34.692L150.552,34.692L150.784,34.692L151.025,34.692L151.248,34.692L151.477,34.692L151.939,34.692L152.17,34.692L152.409,34.692L152.632,34.692L152.863,34.692L153.326,34.692L153.557,34.692L153.797,34.692L154.019,34.692L154.25,34.692L154.711,34.692L154.944,34.692L155.186,34.692L155.406,34.692L155.636,34.692L156.098,34.692L156.329,34.692L156.572,34.692L156.793,34.692L157.023,34.692L157.484,34.692L157.717,34.692L157.964,34.692L158.179,34.692L158.409,34.692L158.871,34.692L159.103,34.692L159.337,34.692L159.565,34.692L159.795,34.692L160.257,34.692L160.489,34.692L160.73,34.692L160.952,34.692L161.182,34.692L161.643,34.692L161.874,34.692L162.113,34.692L162.336,34.692L162.567,34.692L163.03,34.692L163.261,34.692L163.502,34.692L163.723,34.692L163.954,34.692L164.416,34.692L164.65,34.692L164.89,34.692L165.11,34.692L165.34,34.692L165.802,34.692L166.035,34.692L166.276,34.692L166.498,34.692L166.727,34.692L167.189,34.692L167.424,34.692L167.663,34.692L167.883,34.692L168.113,34.692L168.576,57.769L168.806,57.769L169.05,57.769L169.27,57.769L169.501,57.769L169.962,57.769L170.192,57.769L170.434,57.769L170.656,57.769L170.886,57.769L171.348,57.769L171.579,57.769L171.819,57.769L172.041,57.769L172.272,57.769L172.734,57.769L172.966,57.769L173.206,57.769L173.428,57.769L173.658,57.769L174.121,57.769L174.353,57.769L174.595,57.769L174.817,57.769L175.044,57.769L175.507,57.769L175.739,57.769L175.98,57.769L176.202,57.769L176.432,57.769L176.893,57.769L177.125,57.769L177.37,57.769L177.59,57.769L177.817,57.769L178.281,34.692L178.513,34.692L178.753,34.692L178.978,34.692L179.205,34.692L179.666,34.692L179.897,34.692L180.141,34.692L180.361,34.692L180.59,34.692L181.052,34.692L181.283,34.692L181.524,34.692L181.745,34.692L181.976,34.692L182.439,34.692L182.67,34.692L182.912,34.692L183.132,34.692L183.363,34.692L183.826,34.692L184.057,34.692L184.3,34.692L184.521,34.692L184.75,34.692L185.211,34.692L185.444,34.692L185.687,34.692L185.908,34.692L186.135,34.692L186.598,34.692L186.83,34.692L187.074,34.692L187.293,34.692L187.522,34.692L187.984,34.692L188.216,34.692L188.46,34.692L188.679,34.692L188.908,34.692L189.371,34.692L189.602,34.692L189.845,34.692L190.066,34.692L190.294,34.692L190.757,34.692L190.988,34.692L191.23,34.692L191.45,34.692L191.681,34.692L192.144,34.692L192.375,34.692L192.616,34.692L192.838,34.692L193.068,34.692L193.532,34.692L193.761,34.692L194.005,34.692L194.225,34.692L194.454,34.692L194.916,34.692L195.148,34.692L195.392,34.692L195.611,34.692L195.841,34.692L196.303,34.692L196.535,34.692L196.778,34.692L196.999,34.692L197.226,34.692L197.689,34.692L197.92,34.692L198.163,34.692L198.385,34.692L198.612,34.692L199.077,34.692L199.307,34.692L199.55,34.692L199.769,34.692L200,34.692" stroke="#4c78a8" stroke-width="2"/></g></g><path class="foreground" aria-hidden="true" d="" display="none"/></g><g transform="translate(0,0)"><path class="background" aria-hidden="true" d="M0,0h200v200h-200Z"/><g><g class="mark-line role-mark marks" role="graphics-object" aria-roledescription="line mark container"><path aria-label="Time: Jan 01, 2024; Price: 2499; identifier: altex-LG-F2WR508SBM" role="graphics-symbol" aria-roledescription="line mark" d="M0,7.769L0.145,7.769L0.365,7.769L0.827,7.769L1.058,7.769L1.301,7.769L1.522,7.769L1.751,7.769L2.213,7.769L2.444,7.769L2.688,7.769L2.908,7.769L3.137,7.769L3.6,7.769L3.831,7.769L4.074,7.769L4.296,7.769L4.524,7.769L4.987,27L5.217,27L5.46,27L5.682,27L5.91,27L6.373,27L6.603,27L6.845,27L7.067,27L7.296,27L7.76,27L7.99,27L8.232,27L8.454,27L8.683,27L9.146,27L9.378,27L9.621,27L9.842,27L10.069,27L10.533,27L10.764,27L11.01,27L11.229,27L11.455,27L11.919,27L12.15,27L12.393,27L12.614,27L12.842,27L13.305,27L13.536,27L13.78,27L14.001,27L14.228,27L14.691,27L14.923,27L15.165,27L15.387,27L15.615,27L16.077,38.538L16.308,38.538L16.55,38.538L16.772,38.538L17.001,38.538L17.464,38.538L17.694,38.538L17.936,38.538L18.158,38.538L18.387,38.538L18.851,38.538L19.082,38.538L19.326,38.538L19.547,38.538L19.773,38.538L20.237,38.538L20.469,38.538L20.712,38.538L20.934,38.538L21.16,38.538L21.623,38.538L21.855,38.538L22.099,38.538L22.319,38.538L22.546,38.538L23.009,38.538L23.24,38.538L23.484,38.538L23.705,38.538L23.933,38.538L24.396,38.538L24.627,38.538L24.871,38.538L25.092,38.538L25.319,38.538L25.782,38.538L26.012,38.538L26.254,38.538L26.477,38.538L26.706,38.538L27.168,38.538L27.399,38.538L27.641,38.538L27.863,38.538L28.092,38.538L28.556,38.538L28.787,38.538L29.031,38.538L29.251,38.538L29.478,38.538L29.941,38.538L30.174,38.538L30.417,38.538L30.638,38.538L30.864,38.538L31.328,38.538L31.56,38.538L31.803,38.538L32.024,38.538L32.251,38.538L32.715,38.538L32.945,38.538L33.19,38.538L33.411,38.538L33.637,38.538L34.1,38.538L34.332,38.538L34.571,38.538L34.793,38.538L35.024,38.538L35.485,38.538L35.717,38.538L35.954,38.538L36.179,38.538L36.409,38.538L36.872,38.538L37.103,38.538L37.341,38.538L37.565,38.538L37.796,38.538L38.258,38.538L38.49,38.538L38.73,38.538L38.952,38.538L39.183,38.538L39.644,38.538L39.875,38.538L40.116,38.538L40.341,38.538L40.568,38.538L41.031,38.538L41.262,38.538L41.503,38.538L41.724,38.538L41.955,38.538L42.417,27L42.648,27L42.889,27L43.11,27L43.341,27L43.804,27L44.035,27L44.275,27L44.496,27L44.728,27L45.19,27L45.421,27L45.659,27L45.883,27L46.115,27L46.577,27L46.808,27L47.045,27L47.269,27L47.5,27L47.963,27L48.194,27L48.435,27L48.656,27L48.887,27L49.349,27L49.58,27L49.821,27L50.043,27L50.273,27L50.735,27L50.967,27L51.207,27L51.43,27L51.66,27L52.122,27L52.353,27L52.593,27L52.816,27L53.046,27L53.508,27L53.74,27L53.978,27L54.202,27L54.433,27L54.894,27L55.125,27L55.364,27L55.587,27L55.819,27L56.282,27L56.512,27L56.75,27L56.974,27L57.205,27L57.667,27L57.898,27L58.14,27L58.361,27L58.591,27L59.053,27L59.284,27L59.524,27L59.75,27L59.978,27L60.44,27L60.671,27L60.911,27L61.134,27L61.364,27L62.057,27L62.297,27L62.52,27L62.751,27L63.213,27L63.444,27L63.684,27L63.907,27L64.137,27L64.599,27L64.83,27L65.068,27L65.292,27L65.523,27L65.985,27L66.217,27L66.455,27L66.679,27L66.91,27L67.371,27L67.603,27L67.844,27L68.067,27L68.296,27L68.759,27L68.989,27L69.229,27L69.452,27L69.683,27L70.144,27L70.376,27L70.616,27L70.838,27L71.069,27L71.531,27L71.761,27L72.002,27L72.225,27L72.455,27L72.917,27L73.148,27L73.387,27L73.61,27L73.842,27L74.303,27L74.534,27L74.772,27L74.996,27L75.227,27L75.689,27L75.921,27L76.159,27L76.384,27L76.613,27L77.076,27L77.308,27L77.548,27L77.77,27L78,27L78.462,27L78.694,27L78.933,27L79.156,27L79.386,27L79.849,27L80.08,27L80.32,27L80.543,27L80.773,27L81.235,27L81.466,27L81.705,27L81.928,27L82.159,27L82.621,27L82.853,27L83.093,27L83.315,27L83.546,27L84.008,27L84.239,27L84.479,27L84.701,27L84.932,27L85.394,27L85.625,27L85.863,27L86.087,27L86.318,27L86.802,27L87.117,27L87.255,27L87.475,27L87.705,27L88.166,27L88.398,27L88.639,27L88.86,27L89.091,27L89.553,27L89.786,27L90.025,27L90.248,27L90.477,27L90.939,27L91.171,27L91.411,38.538L91.633,38.538L91.864,38.538L92.326,38.538L92.56,38.538L92.797,38.538L93.019,38.538L93.25,38.538L93.712,38.538L93.943,38.538L94.181,38.538L94.406,38.538L94.636,38.538L95.098,38.538L95.331,38.538L95.567,38.538L95.792,38.538L96.023,38.538L96.486,38.538L96.716,38.538L96.957,38.538L97.18,38.538L97.409,38.538L97.871,38.538L98.102,38.538L98.343,38.538L98.566,38.538L98.795,38.538L99.258,38.538L99.49,38.538L99.73,38.538L99.951,38.538L100.182,38.538L100.644,38.538L100.875,38.538L101.116,38.538L101.338,38.538L101.568,38.538L102.03,38.538L102.263,38.538L102.502,38.538L102.724,38.538L102.954,38.538L103.417,38.538L103.649,38.538L103.887,38.538L104.11,38.538L104.342,38.538L104.803,38.538L105.035,38.538L105.273,38.538L105.496,38.538L105.727,38.538L106.189,38.538L106.42,38.538L106.663,38.538L106.885,38.538L107.115,38.538L107.576,38.538L107.807,38.538L108.047,38.538L108.272,38.538L108.5,38.538L108.962,38.538L109.194,38.538L109.434,38.538L109.658,38.538L109.887,38.538L110.348,38.538L110.58,38.538L110.821,38.538L111.045,38.538L111.273,38.538L111.735,38.538L111.966,38.538L112.206,38.538L112.429,38.538L112.659,38.538L113.121,38.538L113.352,38.538L113.592,38.538L113.814,38.538L114.045,38.538L114.508,38.538L114.739,38.538L114.979,38.538L115.201,38.538L115.431,38.538L115.894,38.538L116.125,38.538L116.366,38.538L116.588,38.538L116.818,38.538L117.28,38.538L117.513,38.538L117.752,38.538L117.975,38.538L118.204,38.538L118.668,38.538L118.899,38.538L119.139,38.538L119.363,38.538L119.591,38.538L120.053,38.538L120.284,38.538L120.525,38.538L120.747,38.538L120.977,38.538L121.44,38.538L121.67,38.538L121.912,38.538L122.133,38.538L122.363,38.538L122.825,38.538L123.056,38.538L123.295,38.538L123.519,38.538L123.751,38.538L124.212,38.538L124.444,38.538L124.683,38.538L124.906,38.538L125.136,38.538L125.598,38.538L125.831,38.538L126.072,38.538L126.295,38.538L126.522,38.538L126.986,38.538L127.216,38.538L127.458,38.538L127.68,38.538L127.909,38.538L128.371,38.538L128.602,38.538L128.843,38.538L129.067,38.538L129.295,38.538L129.758,38.538L129.989,38.538L130.229,38.538L130.452,38.538L130.682,38.538L131.146,38.538L131.615,38.538L131.838,38.538L132.069,38.538L132.531,38.538L132.762,38.538L133,38.538L133.223,38.538L133.454,38.538L133.916,38.538L134.147,38.538L134.387,38.538L134.609,38.538L134.84,38.538L135.303,38.538L135.534,38.538L135.775,38.538L135.998,38.538L136.227,38.538L136.689,38.538L136.92,38.538L137.161,38.538L137.384,38.538L137.613,38.538L138.075,38.538L138.308,38.538L138.548,38.538L138.772,38.538L139.001,38.538L139.463,38.538L139.695,38.538L139.935,38.538L140.387,38.538L140.849,38.538L141.081,38.538L141.32,38.538L141.541,38.538L141.772,38.538L142.234,38.538L142.465,38.538L142.701,38.538L142.927,38.538L143.158,38.538L143.642,38.538L143.997,38.538L144.214,38.538L144.663,38.538L145.011,38.538L145.238,38.538L145.476,38.538L145.7,38.538L145.931,38.538L146.394,38.538L146.625,38.538L146.867,38.538L147.087,38.538L147.318,38.538L147.78,38.538L148.011,38.538L148.253,38.538L148.476,38.538L148.705,38.538L149.398,38.538L149.639,38.538L149.861,38.538L150.091,38.538L150.552,38.538L150.784,38.538L151.025,38.538L151.248,38.538L151.477,38.538L151.939,38.538L152.17,38.538L152.41,38.538L152.633,38.538L152.863,38.538L153.326,38.538L153.557,38.538L153.797,38.538L154.019,38.538L154.25,38.538L154.711,38.538L154.944,38.538L155.186,38.538L155.406,38.538L155.636,38.538L156.098,38.538L156.329,38.538L156.572,38.538L156.793,38.538L157.023,38.538L157.484,38.538L157.717,38.538L157.964,38.538L158.179,38.538L158.409,38.538L158.871,38.538L159.103,38.538L159.337,38.538L159.565,38.538L159.795,38.538L160.257,38.538L160.489,38.538L160.73,38.538L160.952,38.538L161.182,38.538L161.644,38.538L161.874,38.538L162.114,38.538L162.336,38.538L162.567,38.538L163.03,38.538L163.261,38.538L163.502,38.538L163.723,38.538L163.954,38.538L164.416,38.538L164.65,38.538L164.89,38.538L165.11,38.538L165.341,38.538L165.802,38.538L166.035,38.538L166.276,38.538L166.498,38.538L166.727,38.538L167.189,38.538L167.424,38.538L167.663,38.538L167.883,38.538L168.113,38.538L168.576,38.538L168.806,38.538L169.05,38.538L169.27,38.538L169.501,38.538L169.962,38.538L170.192,38.538L170.434,38.538L170.656,38.538L170.886,38.538L171.348,38.538L171.579,38.538L171.819,38.538L172.041,38.538L172.272,38.538L172.734,38.538L172.966,38.538L173.206,38.538L173.428,38.538L173.658,38.538L174.121,38.538L174.353,38.538L174.595,38.538L174.817,38.538L175.045,38.538L175.507,38.538L175.739,38.538L175.98,30.846L176.202,30.846L176.432,30.846L176.893,30.846L177.125,30.846L177.37,30.846L177.59,30.846L177.817,30.846L178.281,30.846L178.513,30.846L178.753,30.846L178.978,30.846L179.205,30.846L179.666,30.846L179.897,30.846L180.141,30.846L180.361,30.846L180.59,30.846L181.052,30.846L181.283,30.846L181.524,30.846L181.745,30.846L181.976,30.846L182.439,30.846L182.67,30.846L182.912,30.846L183.132,30.846L183.363,30.846L183.826,30.846L184.057,30.846L184.301,30.846L184.521,30.846L184.75,30.846L185.211,30.846L185.444,30.846L185.687,30.846L185.908,30.846L186.135,30.846L186.598,30.846L186.83,30.846L187.074,30.846L187.293,30.846L187.522,30.846L187.984,30.846L188.217,30.846L188.46,30.846L188.679,30.846L188.908,30.846L189.371,30.846L189.602,30.846L189.845,30.846L190.066,30.846L190.294,30.846L190.757,30.846L190.988,30.846L191.23,30.846L191.45,30.846L191.681,30.846L192.144,30.846L192.375,30.846L192.616,30.846L192.838,30.846L193.068,30.846L193.532,30.846L193.761,30.846L194.006,30.846L194.225,30.846L194.454,30.846L194.916,30.846L195.148,30.846L195.392,30.846L195.611,30.846L195.841,30.846L196.303,30.846L196.535,30.846L196.778,38.538L196.999,38.538L197.226,38.538L197.689,38.538L197.92,38.538L198.163,38.538L198.385,38.538L198.613,38.538L199.077,38.538L199.307,38.538L199.55,38.538L199.769,38.538L200,38.538" stroke="#f58518" stroke-width="2"/></g></g><path class="foreground" aria-hidden="true" d="" display="none"/></g></g><g class="mark-group role-legend" role="graphics-symbol" aria-roledescription="legend" aria-label="Symbol legend titled 'identifier' for stroke color with 2 values: altex-LG-F2WR508SBW, altex-LG-F2WR508SBM"><g transform="translate(220,0)"><path class="background" aria-hidden="true" d="M0,0h168v40h-168Z" pointer-events="none"/><g><g class="mark-group role-legend-entry"><g transform="translate(0,16)"><path class="background" aria-hidden="true" d="M0,0h0v0h0Z" pointer-events="none"/><g><g class="mark-group role-scope" role="graphics-object" aria-roledescription="group mark container"><g transform="translate(0,0)"><path class="background" aria-hidden="true" d="M0,0h168v11h-168Z" pointer-events="none" opacity="1"/><g><g class="mark-symbol role-legend-symbol" pointer-events="none"><path transform="translate(6,6)" d="M-5,0L5,0" stroke="#4c78a8" stroke-width="1.5" opacity="1"/></g><g class="mark-text role-legend-label" pointer-events="none"><text text-anchor="start" transform="translate(16,9)" font-family="Liberation Mono" font-size="10px" fill="#000" opacity="1">altex-LG-F2WR508SBW</text></g></g><path class="foreground" aria-hidden="true" d="" pointer-events="none" display="none"/></g><g transform="translate(0,13)"><path class="background" aria-hidden="true" d="M0,0h168v11h-168Z" pointer-events="none" opacity="1"/><g><g class="mark-symbol role-legend-symbol" pointer-events="none"><path transform="translate(6,6)" d="M-5,0L5,0" stroke="#f58518" stroke-width="1.5" opacity="1"/></g><g class="mark-text role-legend-label" pointer-events="none"><text text-anchor="start" transform="translate(16,9)" font-family="Liberation Mono" font-size="10px" fill="#000" opacity="1">altex-LG-F2WR508SBM</text></g></g><path class="foreground" aria-hidden="true" d="" pointer-events="none" display="none"/></g></g></g><path class="foreground" aria-hidden="true" d="" pointer-events="none" display="none"/></g></g><g class="mark-text role-legend-title" pointer-events="none"><text text-anchor="start" transform="translate(0,9)" font-family="Liberation Mono" font-size="11px" font-weight="bold" fill="#000" opacity="1">identifier</text></g></g><path class="foreground" aria-hidden="true" d="" pointer-events="none" display="none"/></g></g></g><path class="foreground" aria-hidden="true" d="" display="none"/></g></g></g></svg>