<svg xmlns="http://www.w3.org/2000/svg" xmlns:xlink="http://www.w3.org/1999/xlink" version="1.1" class="marks" width="460" height="242" viewBox="0 0 460 242"><rect width="460" height="242" fill="white"/><g fill="none" stroke-miterlimit="10" transform="translate(67,5)"><g class="mark-group role-frame root" role="graphics-object" aria-roledescription="group mark container"><g transform="translate(0,0)"><path class="background" aria-hidden="true" d="M0.5,0.5h200v200h-200Z" stroke="#ddd"/><g><g class="mark-group role-axis" aria-hidden="true"><g transform="translate(0.5,200.5)"><path class="background" aria-hidden="true" d="M0,0h0v0h0Z" pointer-events="none"/><g><g class="mark-rule role-axis-grid" pointer-events="none"><line transform="translate(37,-200)" x2="0" y2="200" stroke="#ddd" stroke-width="1" opacity="1"/><line transform="translate(73,-200)" x2="0" y2="200" stroke="#ddd" stroke-width="1" opacity="1"/><line transform="translate(111,-200)" x2="0" y2="200" stroke="#ddd" stroke-width="1" opacity="1"/><line transform="translate(148,-200)" x2="0" y2="200" stroke="#ddd" stroke-width="1" opacity="1"/><line transform="translate(186,-200)" x2="0" y2="200" stroke="#ddd" stroke-width="1" opacity="1"/></g></g><path class="foreground" aria-hidden="true" d="" pointer-events="none" display="none"/></g></g><g class="mark-group role-axis" aria-hidden="true"><g transform="translate(0.5,0.5)"><path class="background" aria-hidden="true" d="M0,0h0v0h0Z" pointer-events="none"/><g><g class="mark-rule role-axis-grid" pointer-events="none"><line transform="translate(0,200)" x2="200" y2="0" stroke="#ddd" stroke-width="1" opacity="1"/><line transform="translate(0,162)" x2="200" y2="0" stroke="#ddd" stroke-width="1" opacity="1"/><line transform="translate(0,123)" x2="200" y2="0" stroke="#ddd" stroke-width="1" opacity="1"/><line transform="translate(0,85)" x2="200" y2="0" stroke="#ddd" stroke-width="1" opacity="1"/><line transform="translate(0,46)" x2="200" y2="0" stroke="#ddd" stroke-width="1" opacity="1"/><line transform="translate(0,8)" x2="200" y2="0" stroke="#ddd" stroke-width="1" opacity="1"/></g></g><path class="foreground" aria-hidden="true" d="" pointer-events="none" display="none"/></g></g><g class="mark-group role-axis" role="graphics-symbol" aria-roledescription="axis" aria-label="X-axis titled 'Time' for a time scale with values from Monday, 01 January 2024, 2:19:43 PM to Wednesday, 12 June 2024, 4:39:45 AM"><g transform="translate(0.5,200.5)"><path class="background" aria-hidden="true" d="M0,0h0v0h0Z" pointer-events="none"/><g><g class="mark-rule role-axis-tick" pointer-events="none"><line transform="translate(37,0)" x2="0" y2="5" stroke="#888" stroke-width="1" opacity="1"/><line transform="translate(73,0)" x2="0" y2="5" stroke="#888" stroke-width="1" opacity="1"/><line transform="translate(111,0)" x2="0" y2="5" stroke="#888" stroke-width="1" opacity="1"/><line transform="translate(148,0)" x2="0" y2="5" stroke="#888" stroke-width="1" opacity="1"/><line transform="translate(186,0)" x2="0" y2="5" stroke="#888" stroke-width="1" opacity="1"/></g><g class="mark-text role-axis-label" pointer-events="none"><text text-anchor="middle" transform="translate(37.39666472228584,15)" font-family="Liberation Mono" font-size="10px" fill="#000" opacity="1">February</text><text text-anchor="middle" transform="translate(73.06762596879625,15)" font-family="Liberation Mono" font-size="10px" fill="#000" opacity="0">March</text><text text-anchor="middle" transform="translate(111.19865350816947,15)" font-family="Liberation Mono" font-size="10px" fill="#000" opacity="1">April</text><text text-anchor="middle" transform="translate(148.09964790111124,15)" font-family="Liberation Mono" font-size="10px" fill="#000" opacity="0">May</text><text text-anchor="middle" transform="translate(186.23067544048445,15)" font-family="Liberation Mono" font-size="10px" fill="#000" opacity="1">June</text></g><g class="mark-rule role-axis-domain" pointer-events="none"><line transform="translate(0,0)" x2="200" y2="0" stroke="#888" stroke-width="1" opacity="1"/></g><g class="mark-text role-axis-title" pointer-events="none"><text text-anchor="middle" transform="translate(100,30)" font-family="Liberation Mono" font-size="11px" font-weight="bold" fill="#000" opacity="1">Time</text></g></g><path class="foreground" aria-hidden="true" d="" pointer-events="none" display="none"/></g></g><g class="mark-group role-axis" role="graphics-symbol" aria-roledescription="axis" aria-label="Y-axis titled 'Price' for a linear scale with values from 0 to 2,600"><g transform="translate(0.5,0.5)"><path class="background" aria-hidden="true" d="M0,0h0v0h0Z" pointer-events="none"/><g><g class="mark-rule role-axis-tick" pointer-events="none"><line transform="translate(0,200)" x2="-5" y2="0" stroke="#888" stroke-width="1" opacity="1"/><line transform="translate(0,162)" x2="-5" y2="0" stroke="#888" stroke-width="1" opacity="1"/><line transform="translate(0,123)" x2="-5" y2="0" stroke="#888" stroke-width="1" opacity="1"/><line transform="translate(0,85)" x2="-5" y2="0" stroke="#888" stroke-width="1" opacity="1"/><line transform="translate(0,46)" x2="-5" y2="0" stroke="#888" stroke-width="1" opacity="1"/><line transform="translate(0,8)" x2="-5" y2="0" stroke="#888" stroke-width="1" opacity="1"/></g><g class="mark-text role-axis-label" pointer-events="none"><text text-anchor="end" transform="translate(-7,203)" font-family="Liberation Mono" font-size="10px" fill="#000" opacity="1">0</text><text text-anchor="end" transform="translate(-7,164.53846153846155)" font-family="Liberation Mono" font-size="10px" fill="#000" opacity="1">500</text><text text-anchor="end" transform="translate(-7,126.07692307692308)" font-family="Liberation Mono" font-size="10px" fill="#000" opacity="1">1,000</text><text text-anchor="end" transform="translate(-7,87.61538461538463)" font-family="Liberation Mono" font-size="10px" fill="#000" opacity="1">1,500</text><text text-anchor="end" transform="translate(-7,49.153846153846146)" font-family="Liberation Mono" font-size="10px" fill="#000" opacity="1">2,000</text><text text-anchor="end" transform="translate(-7,10.692307692307686)" font-family="Liberation Mono" font-size="10px" fill="#000" opacity="1">2,500</text></g><g class="mark-rule role-axis-domain" pointer-events="none"><line transform="translate(0,200)" x2="0" y2="-200" stroke="#888" stroke-width="1" opacity="1"/></g><g class="mark-text role-axis-title" pointer-events="none"><text text-anchor="middle" transform="translate(-51,100) rotate(-90) translate(0,-2)" font-family="Liberation Mono" font-size="11px" font-weight="bold" fill="#000" opacity="1">Price</text></g></g><path class="foreground" aria-hidden="true" d="" pointer-events="none" display="none"/></g></g><g class="mark-group role-scope pathgroup" role="graphics-object" aria-roledescription="group mark container"><g transform="translate(0,0)"><path class="background" aria-hidden="true" d="M0,0h200v200h-200Z"/><g><g class="mark-line role-mark marks" role="graphics-object" aria-roledescription="line mark container"><path aria-label="Time: Jan 01, 2024; Price: 2399; identifier: altex-LG-F2WR508SBW" role="graphics-symbol" aria-roledescription="line mark" d="M0,15.462L0.129,15.462L0.324,15.462L0.734,15.462L0.939,15.462L1.154,15.462L1.35,15.462L1.553,15.462L1.964,15.462L2.169,15.462L2.385,15.462L2.581,15.462L2.783,15.462L3.194,15.462L3.399,15.462L3.614,15.462L3.812,15.462L4.014,15.462L4.424,34.692L4.629,34.692L4.844,34.692L5.041,34.692L5.243,34.692L5.654,34.692L5.859,34.692L6.074,34.692L6.27,34.692L6.473,34.692L6.885,34.692L7.089,34.692L7.303,34.692L7.501,34.692L7.704,34.692L8.115,34.692L8.32,34.692L8.536,34.692L8.732,34.692L8.933,34.692L9.345,34.692L9.55,34.692L9.768,34.692L9.962,34.692L10.164,34.692L10.575,34.692L10.78,34.692L10.996,34.692L11.192,34.692L11.394,34.692L11.805,34.692L12.01,34.692L12.226,34.692L12.422,34.692L12.624,34.692L13.035,34.692L13.24,34.692L13.455,34.692L13.652,34.692L13.854,34.692L14.264,46.231L14.469,46.231L14.684,46.231L14.881,46.231L15.084,46.231L15.495,46.231L15.699,46.231L15.913,46.231L16.11,46.231L16.314,46.231L16.725,46.231L16.931,46.231L17.147,46.231L17.343,46.231L17.544,46.231L17.955,46.231L18.161,46.231L18.377,46.231L18.573,46.231L18.774,46.231L19.185,46.231L19.391,46.231L19.607,46.231L19.803,46.231L20.004,46.231L20.415,46.231L20.62,46.231L20.836,46.231L21.032,46.231L21.234,46.231L21.645,46.231L21.85,46.231L22.066,46.231L22.263,46.231L22.464,46.231L22.875,46.231L23.079,46.231L23.294,46.231L23.492,46.231L23.694,46.231L24.104,46.231L24.309,46.231L24.524,46.231L24.721,46.231L24.924,46.231L25.336,46.231L25.541,46.231L25.758,46.231L25.952,46.231L26.154,46.231L26.565,46.231L26.771,46.231L26.987,46.231L27.184,46.231L27.384,46.231L27.796,46.231L28.001,46.231L28.217,46.231L28.413,46.231L28.614,46.231L29.026,46.231L29.231,46.231L29.447,46.231L29.644,46.231L29.844,46.231L30.255,46.231L30.46,46.231L30.673,46.231L30.87,46.231L31.075,46.231L31.484,46.231L31.69,46.231L31.9,46.231L32.099,46.231L32.304,46.231L32.714,46.231L32.919,46.231L33.131,46.231L33.329,46.231L33.534,46.231L33.944,46.231L34.15,46.231L34.363,46.231L34.56,46.231L34.765,46.231L35.174,46.231L35.379,46.231L35.592,46.231L35.792,46.231L35.994,46.231L36.404,46.231L36.609,46.231L36.823,46.231L37.019,46.231L37.224,46.231L37.634,34.692L37.84,34.692L38.053,34.692L38.249,34.692L38.454,34.692L38.865,34.692L39.069,34.692L39.283,34.692L39.479,34.692L39.684,34.692L40.095,34.692L40.3,34.692L40.511,34.692L40.709,34.692L40.915,34.692L41.326,34.692L41.53,34.692L41.741,34.692L41.939,34.692L42.144,34.692L42.554,34.692L42.76,34.692L42.974,34.692L43.17,34.692L43.374,34.692L43.784,34.692L43.99,34.692L44.203,34.692L44.4,34.692L44.605,34.692L45.015,34.692L45.22,34.692L45.433,34.692L45.631,34.692L45.835,34.692L46.245,34.692L46.45,34.692L46.663,34.692L46.861,34.692L47.065,34.692L47.475,34.692L47.68,34.692L47.892,34.692L48.09,34.692L48.295,34.692L48.705,34.692L48.91,34.692L49.122,34.692L49.32,34.692L49.525,34.692L49.936,34.692L50.14,34.692L50.351,34.692L50.55,34.692L50.755,34.692L51.165,34.692L51.37,34.692L51.584,34.692L51.78,34.692L51.985,34.692L52.394,34.692L52.6,34.692L52.813,34.692L53.013,34.692L53.215,34.692L53.625,34.692L53.83,34.692L54.043,34.692L54.241,34.692L54.445,34.692L55.06,34.692L55.273,34.692L55.47,34.692L55.675,34.692L56.085,34.692L56.29,34.692L56.503,34.692L56.701,34.692L56.905,34.692L57.315,34.692L57.52,34.692L57.731,34.692L57.93,34.692L58.135,34.692L58.545,34.692L58.751,34.692L58.962,34.692L59.16,34.692L59.365,34.692L59.775,34.692L59.981,34.692L60.194,34.692L60.393,34.692L60.595,34.692L61.006,34.692L61.21,34.692L61.423,34.692L61.621,34.692L61.826,34.692L62.235,34.692L62.44,34.692L62.654,34.692L62.851,34.692L63.055,34.692L63.465,34.692L63.67,34.692L63.883,34.692L64.081,34.692L64.285,34.692L64.695,34.692L64.9,34.692L65.113,34.692L65.31,34.692L65.516,34.692L65.925,34.692L66.13,34.692L66.341,34.692L66.54,34.692L66.745,34.692L67.155,34.692L67.361,34.692L67.571,34.692L67.771,34.692L67.975,34.692L68.385,34.692L68.591,34.692L68.804,34.692L69.001,34.692L69.205,34.692L69.615,34.692L69.821,34.692L70.033,34.692L70.231,34.692L70.435,34.692L70.845,34.692L71.05,34.692L71.263,34.692L71.461,34.692L71.665,34.692L72.075,34.692L72.28,34.692L72.493,34.692L72.69,34.692L72.895,34.692L73.305,34.692L73.511,34.692L73.724,34.692L73.921,34.692L74.126,34.692L74.535,34.692L74.741,34.692L74.953,34.692L75.15,34.692L75.356,34.692L75.766,34.692L75.97,34.692L76.182,34.692L76.38,34.692L76.586,34.692L77.014,34.692L77.294,34.692L77.417,34.692L77.612,34.692L77.816,34.692L78.225,34.692L78.43,34.692L78.645,34.692L78.841,34.692L79.045,34.692L79.455,34.692L79.662,34.692L79.875,34.692L80.072,34.692L80.275,34.692L80.685,34.692L80.891,34.692L81.104,34.692L81.301,34.692L81.506,34.692L81.916,34.692L82.124,34.692L82.334,34.692L82.53,34.692L82.735,34.692L83.146,34.692L83.351,34.692L83.561,34.692L83.762,34.692L83.965,34.692L84.376,34.692L84.582,34.692L84.792,34.692L84.991,34.692L85.196,34.692L85.607,34.692L85.811,34.692L86.025,34.692L86.222,34.692L86.426,34.692L86.836,34.692L87.041,34.692L87.254,34.692L87.453,34.692L87.656,34.692L88.066,34.692L88.272,34.692L88.485,34.692L88.681,34.692L88.886,34.692L89.296,34.692L89.501,34.692L89.715,34.692L89.912,34.692L90.116,34.692L90.526,34.692L90.732,34.692L90.944,34.692L91.141,34.692L91.346,34.692L91.756,34.692L91.962,34.692L92.173,34.692L92.371,34.692L92.577,34.692L92.986,34.692L93.192,34.692L93.403,34.692L93.601,34.692L93.806,34.692L94.216,34.692L94.421,34.692L94.636,34.692L94.833,34.692L95.037,34.692L95.447,34.692L95.651,34.692L95.864,34.692L96.064,34.692L96.266,34.692L96.676,34.692L96.881,34.692L97.095,34.692L97.294,34.692L97.497,34.692L97.906,34.692L98.112,34.692L98.325,34.692L98.524,34.692L98.726,34.692L99.136,34.692L99.341,34.692L99.554,34.692L99.752,34.692L99.956,34.692L100.366,34.692L100.571,34.692L100.784,34.692L100.981,34.692L101.186,34.692L101.596,34.692L101.801,34.692L102.015,34.692L102.211,34.692L102.416,34.692L102.826,34.692L103.031,34.692L103.245,34.692L103.442,34.692L103.646,34.692L104.056,34.692L104.263,34.692L104.475,34.692L104.673,34.692L104.876,34.692L105.288,34.692L105.492,34.692L105.706,34.692L105.904,34.692L106.106,34.692L106.516,34.692L106.721,34.692L106.936,34.692L107.132,34.692L107.336,34.692L107.747,34.692L107.951,34.692L108.166,34.692L108.362,34.692L108.566,34.692L108.976,34.692L109.181,34.692L109.393,34.692L109.592,34.692L109.797,34.692L110.207,34.692L110.412,34.692L110.624,34.692L110.822,34.692L111.026,34.692L111.436,34.692L111.643,34.692L111.857,34.692L112.055,34.692L112.256,34.692L112.667,34.692L112.872,34.692L113.086,34.692L113.284,34.692L113.486,34.692L113.896,34.692L114.101,34.692L114.315,34.692L114.514,34.692L114.716,34.692L115.127,34.692L115.332,34.692L115.545,34.692L115.743,34.692L115.947,34.692L116.358,34.692L116.775,34.692L116.973,34.692L117.177,34.692L117.587,34.692L117.792,34.692L118.003,34.692L118.202,34.692L118.407,34.692L118.816,34.692L119.021,34.692L119.234,34.692L119.432,34.692L119.637,34.692L120.047,34.692L120.251,34.692L120.466,34.692L120.664,34.692L120.867,34.692L121.277,34.692L121.482,34.692L121.696,34.692L121.893,34.692L122.097,34.692L122.507,34.692L122.713,34.692L122.926,34.692L123.125,34.692L123.328,34.692L123.738,34.692L123.944,34.692L124.156,34.692L124.557,34.692L124.968,34.692L125.173,34.692L125.386,34.692L125.582,34.692L125.787,34.692L126.197,34.692L126.401,34.692L126.611,34.692L126.812,34.692L127.017,34.692L127.446,34.692L127.761,34.692L127.953,34.692L128.351,34.692L128.66,34.692L128.862,34.692L129.073,34.692L129.272,34.692L129.477,34.692L129.887,34.692L130.092,34.692L130.307,34.692L130.502,34.692L130.707,34.692L131.117,34.692L131.322,34.692L131.537,34.692L131.735,34.692L131.937,34.692L132.552,34.692L132.766,34.692L132.963,34.692L133.168,34.692L133.577,34.692L133.782,34.692L133.996,34.692L134.194,34.692L134.397,34.692L134.807,34.692L135.012,34.692L135.225,34.692L135.422,34.692L135.627,34.692L136.038,34.692L136.243,34.692L136.455,34.692L136.652,34.692L136.857,34.692L137.267,34.692L137.473,34.692L137.688,34.692L137.884,34.692L138.087,34.692L138.497,34.692L138.702,34.692L138.918,34.692L139.114,34.692L139.318,34.692L139.727,34.692L139.934,34.692L140.153,34.692L140.343,34.692L140.548,34.692L140.957,34.692L141.163,34.692L141.371,34.692L141.573,34.692L141.778,34.692L142.187,34.692L142.393,34.692L142.607,34.692L142.804,34.692L143.008,34.692L143.417,34.692L143.622,34.692L143.834,34.692L144.032,34.692L144.237,34.692L144.648,34.692L144.852,34.692L145.066,34.692L145.262,34.692L145.467,34.692L145.877,34.692L146.085,34.692L146.298,34.692L146.493,34.692L146.698,34.692L147.107,34.692L147.313,34.692L147.528,34.692L147.724,34.692L147.928,34.692L148.337,34.692L148.546,34.692L148.758,34.692L148.953,34.692L149.157,34.692L149.568,57.769L149.773,57.769L149.989,57.769L150.184,57.769L150.389,57.769L150.798,57.769L151.002,57.769L151.217,57.769L151.414,57.769L151.618,57.769L152.028,57.769L152.233,57.769L152.446,57.769L152.643,57.769L152.848,57.769L153.258,57.769L153.463,57.769L153.676,57.769L153.873,57.769L154.077,57.769L154.488,57.769L154.694,57.769L154.909,57.769L155.106,57.769L155.307,57.769L155.718,57.769L155.924,57.769L156.137,57.769L156.334,57.769L156.538,57.769L156.948,57.769L157.154,57.769L157.371,57.769L157.566,57.769L157.767,57.769L158.179,34.692L158.385,34.692L158.598,34.692L158.797,34.692L158.998,34.692L159.408,34.692L159.613,34.692L159.829,34.692L160.024,34.692L160.228,34.692L160.638,34.692L160.843,34.692L161.056,34.692L161.253,34.692L161.458,34.692L161.869,34.692L162.073,34.692L162.288,34.692L162.483,34.692L162.688,34.692L163.099,34.692L163.304,34.692L163.52,34.692L163.715,34.692L163.919,34.692L164.328,34.692L164.534,34.692L164.75,34.692L164.946,34.692L165.148,34.692L165.559,34.692L165.764,34.692L165.98,34.692L166.175,34.692L166.378,34.692L166.788,34.692L166.994,34.692L167.21,34.692L167.405,34.692L167.608,34.692L168.018,34.692L168.223,34.692L168.439,34.692L168.635,34.692L168.838,34.692L169.248,34.692L169.454,34.692L169.668,34.692L169.863,34.692L170.068,34.692L170.479,34.692L170.683,34.692L170.898,34.692L171.095,34.692L171.299,34.692L171.71,34.692L171.914,34.692L172.131,34.692L172.326,34.692L172.529,34.692L172.938,34.692L173.144,34.692L173.361,34.692L173.555,34.692L173.759,34.692L174.169,34.692L174.375,34.692L174.591,34.692L174.786,34.692L174.988,34.692L175.398,34.692L175.604,34.692L175.82,34.692L176.016,34.692L176.218,34.692L176.63,34.692L176.834,34.692L177.05,34.692L177.244,34.692L177.449,34.692L177.859,34.692L178.064,34.692L178.278,34.692L178.474,34.692L178.678,34.692L179.089,34.692L179.293,34.692L179.508,34.692L179.704,34.692L179.91,34.692L180.319,34.692L180.525,34.692L180.741,34.692L180.936,34.692L181.138,34.692L181.553,34.692L181.755,34.692L181.97,34.692L182.166,34.692L182.368,34.692L182.781,34.692L182.985,34.692L183.201,34.692L183.396,34.692L183.598,34.692L184.011,34.692L184.215,34.692L184.431,34.692L184.626,34.692L184.828,34.692L185.241,34.692L185.445,34.692L185.661,34.692L185.856,34.692L186.059,34.692L186.469,34.692L186.674,34.692L186.888,34.692L187.085,34.692L187.288,34.692L187.699,34.692L187.904,34.692L188.118,34.692L188.314,34.692L188.519,34.692L188.93,34.692L189.135,34.692L189.352,34.692L189.546,34.692L189.75,34.692L190.159,34.692L190.366,34.692L190.581,34.692L190.777,34.692L190.979,34.692L191.391,34.692L191.595,34.692L191.812,34.692L192.007,34.692L192.209,34.692L192.619,34.692L192.825,34.692L193.042,34.692L193.236,34.692L193.439,34.692L193.85,34.692L194.056,34.692L194.272,34.692L194.468,34.692L194.669,34.692L195.079,34.692L195.284,34.692L195.499,34.692L195.696,34.692L195.899,34.692L196.309,34.692L196.514,34.692L196.73,34.692L196.925,34.692L197.129,34.692L197.541,34.692L197.746,34.692L197.963,34.692L198.157,34.692L198.359,34.692L198.771,34.692L198.976,34.692L199.192,34.692L199.387,34.692L199.59,34.692L200,34.692" stroke="#4c78a8" stroke-width="2"/></g></g><path class="foreground" aria-hidden="true" d="" display="none"/></g><g transform="translate(0,0)"><path class="background" aria-hidden="true" d="M0,0h200v200h-200Z"/><g><g class="mark-line role-mark marks" role="graphics-object" aria-roledescription="line mark container"><path aria-label="Time: Jan 01, 2024; Price: 2499; identifier: altex-LG-F2WR508SBM" role="graphics-symbol" aria-roledescription="line mark" d="M0,7.769L0.129,7.769L0.324,7.769L0.734,7.769L0.939,7.769L1.154,7.769L1.35,7.769L1.553,7.769L1.964,7.769L2.169,7.769L2.385,7.769L2.581,7.769L2.783,7.769L3.194,7.769L3.399,7.769L3.614,7.769L3.812,7.769L4.014,7.769L4.424,27L4.629,27L4.844,27L5.041,27L5.244,27L5.654,27L5.859,27L6.074,27L6.27,27L6.474,27L6.885,27L7.089,27L7.303,27L7.501,27L7.704,27L8.115,27L8.32,27L8.536,27L8.732,27L8.933,27L9.345,27L9.55,27L9.768,27L9.963,27L10.164,27L10.575,27L10.78,27L10.996,27L11.192,27L11.394,27L11.805,27L12.01,27L12.226,27L12.422,27L12.624,27L13.035,27L13.24,27L13.455,27L13.652,27L13.854,27L14.264,38.538L14.469,38.538L14.684,38.538L14.881,38.538L15.084,38.538L15.495,38.538L15.699,38.538L15.914,38.538L16.11,38.538L16.314,38.538L16.725,38.538L16.931,38.538L17.147,38.538L17.343,38.538L17.544,38.538L17.955,38.538L18.161,38.538L18.377,38.538L18.573,38.538L18.774,38.538L19.185,38.538L19.391,38.538L19.607,38.538L19.803,38.538L20.004,38.538L20.415,38.538L20.62,38.538L20.836,38.538L21.032,38.538L21.235,38.538L21.645,38.538L21.85,38.538L22.066,38.538L22.263,38.538L22.464,38.538L22.875,38.538L23.079,38.538L23.294,38.538L23.492,38.538L23.694,38.538L24.104,38.538L24.309,38.538L24.524,38.538L24.721,38.538L24.924,38.538L25.336,38.538L25.542,38.538L25.758,38.538L25.953,38.538L26.154,38.538L26.565,38.538L26.771,38.538L26.987,38.538L27.184,38.538L27.384,38.538L27.796,38.538L28.001,38.538L28.217,38.538L28.413,38.538L28.614,38.538L29.026,38.538L29.231,38.538L29.447,38.538L29.644,38.538L29.844,38.538L30.255,38.538L30.46,38.538L30.673,38.538L30.87,38.538L31.075,38.538L31.484,38.538L31.69,38.538L31.9,38.538L32.099,38.538L32.304,38.538L32.714,38.538L32.919,38.538L33.131,38.538L33.329,38.538L33.534,38.538L33.944,38.538L34.15,38.538L34.363,38.538L34.56,38.538L34.765,38.538L35.174,38.538L35.379,38.538L35.593,38.538L35.792,38.538L35.994,38.538L36.404,38.538L36.609,38.538L36.823,38.538L37.019,38.538L37.224,38.538L37.634,27L37.84,27L38.053,27L38.249,27L38.454,27L38.865,27L39.069,27L39.283,27L39.479,27L39.684,27L40.095,27L40.3,27L40.511,27L40.709,27L40.915,27L41.326,27L41.53,27L41.741,27L41.939,27L42.144,27L42.555,27L42.76,27L42.974,27L43.17,27L43.374,27L43.785,27L43.99,27L44.203,27L44.4,27L44.605,27L45.015,27L45.22,27L45.433,27L45.631,27L45.835,27L46.245,27L46.45,27L46.663,27L46.861,27L47.065,27L47.475,27L47.68,27L47.892,27L48.09,27L48.295,27L48.705,27L48.91,27L49.122,27L49.32,27L49.525,27L49.936,27L50.14,27L50.351,27L50.55,27L50.755,27L51.165,27L51.37,27L51.584,27L51.78,27L51.985,27L52.395,27L52.6,27L52.813,27L53.013,27L53.215,27L53.625,27L53.83,27L54.043,27L54.241,27L54.445,27L55.06,27L55.273,27L55.47,27L55.675,27L56.085,27L56.29,27L56.503,27L56.701,27L56.905,27L57.316,27L57.52,27L57.731,27L57.93,27L58.135,27L58.545,27L58.751,27L58.962,27L59.16,27L59.365,27L59.775,27L59.981,27L60.194,27L60.393,27L60.595,27L61.006,27L61.21,27L61.423,27L61.621,27L61.826,27L62.235,27L62.44,27L62.654,27L62.851,27L63.056,27L63.465,27L63.67,27L63.883,27L64.081,27L64.285,27L64.695,27L64.9,27L65.113,27L65.31,27L65.516,27L65.925,27L66.13,27L66.341,27L66.54,27L66.745,27L67.155,27L67.361,27L67.572,27L67.771,27L67.975,27L68.385,27L68.591,27L68.804,27L69.001,27L69.205,27L69.615,27L69.821,27L70.033,27L70.231,27L70.435,27L70.845,27L71.05,27L71.263,27L71.462,27L71.666,27L72.075,27L72.28,27L72.493,27L72.69,27L72.895,27L73.305,27L73.511,27L73.724,27L73.921,27L74.126,27L74.536,27L74.741,27L74.953,27L75.15,27L75.356,27L75.766,27L75.97,27L76.182,27L76.38,27L76.586,27L77.014,27L77.294,27L77.417,27L77.612,27L77.816,27L78.225,27L78.43,27L78.645,27L78.841,27L79.045,27L79.455,27L79.662,27L79.875,27L80.072,27L80.275,27L80.685,27L80.891,27L81.104,38.538L81.301,38.538L81.506,38.538L81.916,38.538L82.124,38.538L82.334,38.538L82.53,38.538L82.735,38.538L83.146,38.538L83.351,38.538L83.561,38.538L83.762,38.538L83.965,38.538L84.376,38.538L84.582,38.538L84.792,38.538L84.991,38.538L85.196,38.538L85.607,38.538L85.811,38.538L86.025,38.538L86.222,38.538L86.426,38.538L86.836,38.538L87.041,38.538L87.254,38.538L87.453,38.538L87.656,38.538L88.066,38.538L88.272,38.538L88.485,38.538L88.681,38.538L88.886,38.538L89.296,38.538L89.501,38.538L89.715,38.538L89.912,38.538L90.116,38.538L90.526,38.538L90.732,38.538L90.944,38.538L91.142,38.538L91.346,38.538L91.756,38.538L91.962,38.538L92.173,38.538L92.371,38.538L92.577,38.538L92.986,38.538L93.192,38.538L93.403,38.538L93.601,38.538L93.806,38.538L94.216,38.538L94.421,38.538L94.636,38.538L94.833,38.538L95.037,38.538L95.447,38.538L95.651,38.538L95.864,38.538L96.064,38.538L96.266,38.538L96.676,38.538L96.882,38.538L97.095,38.538L97.294,38.538L97.497,38.538L97.906,38.538L98.112,38.538L98.325,38.538L98.524,38.538L98.726,38.538L99.136,38.538L99.341,38.538L99.554,38.538L99.752,38.538L99.956,38.538L100.366,38.538L100.571,38.538L100.784,38.538L100.981,38.538L101.186,38.538L101.596,38.538L101.801,38.538L102.015,38.538L102.211,38.538L102.416,38.538L102.826,38.538L103.031,38.538L103.245,38.538L103.442,38.538L103.646,38.538L104.056,38.538L104.263,38.538L104.475,38.538L104.673,38.538L104.876,38.538L105.288,38.538L105.492,38.538L105.706,38.538L105.904,38.538L106.106,38.538L106.516,38.538L106.721,38.538L106.936,38.538L107.132,38.538L107.336,38.538L107.747,38.538L107.951,38.538L108.166,38.538L108.362,38.538L108.566,38.538L108.976,38.538L109.181,38.538L109.393,38.538L109.592,38.538L109.797,38.538L110.207,38.538L110.413,38.538L110.624,38.538L110.822,38.538L111.027,38.538L111.436,38.538L111.643,38.538L111.857,38.538L112.055,38.538L112.256,38.538L112.667,38.538L112.872,38.538L113.086,38.538L113.284,38.538L113.486,38.538L113.896,38.538L114.102,38.538L114.315,38.538L114.514,38.538L114.716,38.538L115.127,38.538L115.332,38.538L115.546,38.538L115.743,38.538L115.947,38.538L116.358,38.538L116.775,38.538L116.973,38.538L117.177,38.538L117.587,38.538L117.792,38.538L118.003,38.538L118.202,38.538L118.407,38.538L118.816,38.538L119.022,38.538L119.234,38.538L119.432,38.538L119.637,38.538L120.047,38.538L120.252,38.538L120.466,38.538L120.664,38.538L120.867,38.538L121.277,38.538L121.482,38.538L121.696,38.538L121.893,38.538L122.097,38.538L122.507,38.538L122.713,38.538L122.926,38.538L123.125,38.538L123.328,38.538L123.738,38.538L123.944,38.538L124.156,38.538L124.557,38.538L124.968,38.538L125.173,38.538L125.386,38.538L125.582,38.538L125.787,38.538L126.197,38.538L126.402,38.538L126.611,38.538L126.812,38.538L127.017,38.538L127.446,38.538L127.761,38.538L127.954,38.538L128.351,38.538L128.66,38.538L128.862,38.538L129.073,38.538L129.272,38.538L129.477,38.538L129.887,38.538L130.092,38.538L130.307,38.538L130.502,38.538L130.707,38.538L131.117,38.538L131.322,38.538L131.537,38.538L131.735,38.538L131.937,38.538L132.552,38.538L132.766,38.538L132.963,38.538L133.168,38.538L133.577,38.538L133.782,38.538L133.996,38.538L134.194,38.538L134.397,38.538L134.807,38.538L135.012,38.538L135.225,38.538L135.423,38.538L135.627,38.538L136.038,38.538L136.243,38.538L136.455,38.538L136.652,38.538L136.857,38.538L137.267,38.538L137.473,38.538L137.688,38.538L137.884,38.538L138.087,38.538L138.497,38.538L138.702,38.538L138.918,38.538L139.114,38.538L139.318,38.538L139.727,38.538L139.934,38.538L140.153,38.538L140.343,38.538L140.548,38.538L140.957,38.538L141.163,38.538L141.371,38.538L141.573,38.538L141.778,38.538L142.187,38.538L142.393,38.538L142.607,38.538L142.804,38.538L143.008,38.538L143.418,38.538L143.622,38.538L143.835,38.538L144.032,38.538L144.237,38.538L144.648,38.538L144.852,38.538L145.066,38.538L145.262,38.538L145.467,38.538L145.877,38.538L146.085,38.538L146.298,38.538L146.494,38.538L146.698,38.538L147.107,38.538L147.314,38.538L147.528,38.538L147.724,38.538L147.928,38.538L148.337,38.538L148.546,38.538L148.758,38.538L148.953,38.538L149.157,38.538L149.569,38.538L149.773,38.538L149.989,38.538L150.184,38.538L150.389,38.538L150.798,38.538L151.002,38.538L151.217,38.538L151.414,38.538L151.618,38.538L152.028,38.538L152.233,38.538L152.446,38.538L152.643,38.538L152.848,38.538L153.258,38.538L153.463,38.538L153.676,38.538L153.873,38.538L154.077,38.538L154.488,38.538L154.694,38.538L154.909,38.538L155.106,38.538L155.308,38.538L155.718,38.538L155.924,38.538L156.137,30.846L156.334,30.846L156.538,30.846L156.948,30.846L157.154,30.846L157.371,30.846L157.566,30.846L157.767,30.846L158.179,30.846L158.385,30.846L158.598,30.846L158.797,30.846L158.998,30.846L159.408,30.846L159.613,30.846L159.829,30.846L160.024,30.846L160.228,30.846L160.638,30.846L160.843,30.846L161.056,30.846L161.253,30.846L161.458,30.846L161.869,30.846L162.073,30.846L162.288,30.846L162.483,30.846L162.688,30.846L163.099,30.846L163.304,30.846L163.52,30.846L163.715,30.846L163.919,30.846L164.328,30.846L164.534,30.846L164.75,30.846L164.946,30.846L165.148,30.846L165.559,30.846L165.764,30.846L165.98,30.846L166.175,30.846L166.378,30.846L166.788,30.846L166.994,30.846L167.21,30.846L167.405,30.846L167.608,30.846L168.018,30.846L168.224,30.846L168.439,30.846L168.635,30.846L168.838,30.846L169.248,30.846L169.454,30.846L169.668,30.846L169.863,30.846L170.068,30.846L170.479,30.846L170.684,30.846L170.898,30.846L171.095,30.846L171.299,30.846L171.71,30.846L171.914,30.846L172.131,30.846L172.326,30.846L172.529,30.846L172.938,30.846L173.144,30.846L173.361,30.846L173.555,30.846L173.759,30.846L174.169,30.846L174.375,30.846L174.591,38.538L174.786,38.538L174.988,38.538L175.398,38.538L175.604,38.538L175.82,38.538L176.016,38.538L176.218,38.538L176.63,38.538L176.834,38.538L177.05,38.538L177.244,38.538L177.449,38.538L177.859,38.538L178.064,38.538L178.278,38.538L178.474,38.538L178.678,38.538L179.089,38.538L179.293,38.538L179.508,38.538L179.704,38.538L179.91,38.538L180.319,38.538L180.525,38.538L180.741,38.538L180.936,38.538L181.138,38.538L181.553,38.538L181.755,38.538L181.971,38.538L182.166,38.538L182.368,38.538L182.781,38.538L182.986,38.538L183.201,38.538L183.396,38.538L183.598,38.538L184.011,38.538L184.215,38.538L184.431,38.538L184.626,38.538L184.828,38.538L185.241,30.846L185.445,30.846L185.661,30.846L185.856,30.846L186.059,30.846L186.469,30.846L186.674,30.846L186.889,30.846L187.085,30.846L187.288,30.846L187.699,30.846L187.904,30.846L188.118,30.846L188.315,30.846L188.519,30.846L188.93,30.846L189.135,30.846L189.353,30.846L189.546,30.846L189.75,30.846L190.159,30.846L190.366,30.846L190.581,30.846L190.777,30.846L190.979,30.846L191.391,30.846L191.595,30.846L191.812,30.846L192.007,30.846L192.209,30.846L192.619,30.846L192.825,30.846L193.042,30.846L193.236,30.846L193.439,30.846L193.85,30.846L194.056,30.846L194.272,30.846L194.468,30.846L194.669,30.846L195.079,30.846L195.284,30.846L195.499,30.846L195.696,30.846L195.899,30.846L196.309,30.846L196.514,30.846L196.73,30.846L196.925,30.846L197.129,30.846L197.541,30.846L197.746,30.846L197.963,30.846L198.157,30.846L198.359,30.846L198.771,30.846L198.976,30.846L199.192,30.846L199.387,30.846L199.59,30.846L200,30.846" stroke="#f58518" stroke-width="2"/></g></g><path class="foreground" aria-hidden="true" d="" display="none"/></g></g><g class="mark-group role-legend" role="graphics-symbol" aria-roledescription="legend" aria-label="Symbol legend titled 'identifier' for stroke color with 2 values: altex-LG-F2WR508SBW, altex-LG-F2WR508SBM"><g transform="translate(220,0)"><path class="background" aria-hidden="true" d="M0,0h168v40h-168Z" pointer-events="none"/><g><g class="mark-group role-legend-entry"><g transform="translate(0,16)"><path class="background" aria-hidden="true" d="M0,0h0v0h0Z" pointer-events="none"/><g><g class="mark-group role-scope" role="graphics-object" aria-roledescription="group mark container"><g transform="translate(0,0)"><path class="background" aria-hidden="true" d="M0,0h168v11h-168Z" pointer-events="none" opacity="1"/><g><g class="mark-symbol role-legend-symbol" pointer-events="none"><path transform="translate(6,6)" d="M-5,0L5,0" stroke="#4c78a8" stroke-width="1.5" opacity="1"/></g><g class="mark-text role-legend-label" pointer-events="none"><text text-anchor="start" transform="translate(16,9)" font-family="Liberation Mono" font-size="10px" fill="#000" opacity="1">altex-LG-F2WR508SBW</text></g></g><path class="foreground" aria-hidden="true" d="" pointer-events="none" display="none"/></g><g transform="translate(0,13)"><path class="background" aria-hidden="true" d="M0,0h168v11h-168Z" pointer-events="none" opacity="1"/><g><g class="mark-symbol role-legend-symbol" pointer-events="none"><path transform="translate(6,6)" d="M-5,0L5,0" stroke="#f58518" stroke-width="1.5" opacity="1"/></g><g class="mark-text role-legend-label" pointer-events="none"><text text-anchor="start" transform="translate(16,9)" font-family="Liberation Mono" font-size="10px" fill="#000" opacity="1">altex-LG-F2WR508SBM</text></g></g><path class="foreground" aria-hidden="true" d="" pointer-events="none" display="none"/></g></g></g><path class="foreground" aria-hidden="true" d="" pointer-events="none" display="none"/></g></g><g class="mark-text role-legend-title" pointer-events="none"><text text-anchor="start" transform="translate(0,9)" font-family="Liberation Mono" font-size="11px" font-weight="bold" fill="#000" opacity="1">identifier</text></g></g><path class="foreground" aria-hidden="true" d="" pointer-events="none" display="none"/></g></g></g><path class="foreground" aria-hidden="true" d="" display="none"/></g></g></g></svg>