<svg xmlns="http://www.w3.org/2000/svg" xmlns:xlink="http://www.w3.org/1999/xlink" version="1.1" class="marks" width="460" height="242" viewBox="0 0 460 242"><rect width="460" height="242" fill="white"/><g fill="none" stroke-miterlimit="10" transform="translate(67,5)"><g class="mark-group role-frame root" role="graphics-object" aria-roledescription="group mark container"><g transform="translate(0,0)"><path class="background" aria-hidden="true" d="M0.5,0.5h200v200h-200Z" stroke="#ddd"/><g><g class="mark-group role-axis" aria-hidden="true"><g transform="translate(0.5,200.5)"><path class="background" aria-hidden="true" d="M0,0h0v0h0Z" pointer-events="none"/><g><g class="mark-rule role-axis-grid" pointer-events="none"><line transform="translate(21,-200)" x2="0" y2="200" stroke="#ddd" stroke-width="1" opacity="1"/><line transform="translate(49,-200)" x2="0" y2="200" stroke="#ddd" stroke-width="1" opacity="1"/><line transform="translate(76,-200)" x2="0" y2="200" stroke="#ddd" stroke-width="1" opacity="1"/><line transform="translate(103,-200)" x2="0" y2="200" stroke="#ddd" stroke-width="1" opacity="1"/><line transform="translate(131,-200)" x2="0" y2="200" stroke="#ddd" stroke-width="1" opacity="1"/><line transform="translate(158,-200)" x2="0" y2="200" stroke="#ddd" stroke-width="1" opacity="1"/><line transform="translate(186,-200)" x2="0" y2="200" stroke="#ddd" stroke-width="1" opacity="1"/></g></g><path class="foreground" aria-hidden="true" d="" pointer-events="none" display="none"/></g></g><g class="mark-group role-axis" aria-hidden="true"><g transform="translate(0.5,0.5)"><path class="background" aria-hidden="true" d="M0,0h0v0h0Z" pointer-events="none"/><g><g class="mark-rule role-axis-grid" pointer-events="none"><line transform="translate(0,200)" x2="200" y2="0" stroke="#ddd" stroke-width="1" opacity="1"/><line transform="translate(0,162)" x2="200" y2="0" stroke="#ddd" stroke-width="1" opacity="1"/><line transform="translate(0,123)" x2="200" y2="0" stroke="#ddd" stroke-width="1" opacity="1"/><line transform="translate(0,85)" x2="200" y2="0" stroke="#ddd" stroke-width="1" opacity="1"/><line transform="translate(0,46)" x2="200" y2="0" stroke="#ddd" stroke-width="1" opacity="1"/><line transform="translate(0,8)" x2="200" y2="0" stroke="#ddd" stroke-width="1" opacity="1"/></g></g><path class="foreground" aria-hidden="true" d="" pointer-events="none" display="none"/></g></g><g class="mark-group role-axis" role="graphics-symbol" aria-roledescription="axis" aria-label="X-axis titled 'Time' for a time scale with values from Monday, 01 January 2024, 2:19:43 PM to Wednesday, 21 February 2024, 4:39:30 PM"><g transform="translate(0.5,200.5)"><path class="background" aria-hidden="true" d="M0,0h0v0h0Z" pointer-events="none"/><g><g class="mark-rule role-axis-tick" pointer-events="none"><line transform="translate(21,0)" x2="0" y2="5" stroke="#888" stroke-width="1" opacity="1"/><line transform="translate(49,0)" x2="0" y2="5" stroke="#888" stroke-width="1" opacity="1"/><line transform="translate(76,0)" x2="0" y2="5" stroke="#888" stroke-width="1" opacity="1"/><line transform="translate(103,0)" x2="0" y2="5" stroke="#888" stroke-width="1" opacity="1"/><line transform="translate(131,0)" x2="0" y2="5" stroke="#888" stroke-width="1" opacity="1"/><line transform="translate(158,0)" x2="0" y2="5" stroke="#888" stroke-width="1" opacity="1"/><line transform="translate(186,0)" x2="0" y2="5" stroke="#888" stroke-width="1" opacity="1"/></g><g class="mark-text role-axis-label" pointer-events="none"><text text-anchor="middle" transform="translate(21.147874631348465,15)" font-family="Liberation Mono" font-size="10px" fill="#000" opacity="1">Jan 07</text><text text-anchor="middle" transform="translate(48.54670086282397,15)" font-family="Liberation Mono" font-size="10px" fill="#000" opacity="0">Jan 14</text><text text-anchor="middle" transform="translate(75.94552709429946,15)" font-family="Liberation Mono" font-size="10px" fill="#000" opacity="1">Jan 21</text><text text-anchor="middle" transform="translate(103.34435332577496,15)" font-family="Liberation Mono" font-size="10px" fill="#000" opacity="0">Jan 28</text><text text-anchor="middle" transform="translate(130.74317955725047,15)" font-family="Liberation Mono" font-size="10px" fill="#000" opacity="1">Feb 04</text><text text-anchor="middle" transform="translate(158.14200578872598,15)" font-family="Liberation Mono" font-size="10px" fill="#000" opacity="0">Feb 11</text><text text-anchor="middle" transform="translate(185.54083202020146,15)" font-family="Liberation Mono" font-size="10px" fill="#000" opacity="1">Feb 18</text></g><g class="mark-rule role-axis-domain" pointer-events="none"><line transform="translate(0,0)" x2="200" y2="0" stroke="#888" stroke-width="1" opacity="1"/></g><g class="mark-text role-axis-title" pointer-events="none"><text text-anchor="middle" transform="translate(100,30)" font-family="Liberation Mono" font-size="11px" font-weight="bold" fill="#000" opacity="1">Time</text></g></g><path class="foreground" aria-hidden="true" d="" pointer-events="none" display="none"/></g></g><g class="mark-group role-axis" role="graphics-symbol" aria-roledescription="axis" aria-label="Y-axis titled 'Price' for a linear scale with values from 0 to 2,600"><g transform="translate(0.5,0.5)"><path class="background" aria-hidden="true" d="M0,0h0v0h0Z" pointer-events="none"/><g><g class="mark-rule role-axis-tick" pointer-events="none"><line transform="translate(0,200)" x2="-5" y2="0" stroke="#888" stroke-width="1" opacity="1"/><line transform="translate(0,162)" x2="-5" y2="0" stroke="#888" stroke-width="1" opacity="1"/><line transform="translate(0,123)" x2="-5" y2="0" stroke="#888" stroke-width="1" opacity="1"/><line transform="translate(0,85)" x2="-5" y2="0" stroke="#888" stroke-width="1" opacity="1"/><line transform="translate(0,46)" x2="-5" y2="0" stroke="#888" stroke-width="1" opacity="1"/><line transform="translate(0,8)" x2="-5" y2="0" stroke="#888" stroke-width="1" opacity="1"/></g><g class="mark-text role-axis-label" pointer-events="none"><text text-anchor="end" transform="translate(-7,203)" font-family="Liberation Mono" font-size="10px" fill="#000" opacity="1">0</text><text text-anchor="end" transform="translate(-7,164.53846153846155)" font-family="Liberation Mono" font-size="10px" fill="#000" opacity="1">500</text><text text-anchor="end" transform="translate(-7,126.07692307692308)" font-family="Liberation Mono" font-size="10px" fill="#000" opacity="1">1,000</text><text text-anchor="end" transform="translate(-7,87.61538461538463)" font-family="Liberation Mono" font-size="10px" fill="#000" opacity="1">1,500</text><text text-anchor="end" transform="translate(-7,49.153846153846146)" font-family="Liberation Mono" font-size="10px" fill="#000" opacity="1">2,000</text><text text-anchor="end" transform="translate(-7,10.692307692307686)" font-family="Liberation Mono" font-size="10px" fill="#000" opacity="1">2,500</text></g><g class="mark-rule role-axis-domain" pointer-events="none"><line transform="translate(0,200)" x2="0" y2="-200" stroke="#888" stroke-width="1" opacity="1"/></g><g class="mark-text role-axis-title" pointer-events="none"><text text-anchor="middle" transform="translate(-51,100) rotate(-90) translate(0,-2)" font-family="Liberation Mono" font-size="11px" font-weight="bold" fill="#000" opacity="1">Price</text></g></g><path class="foreground" aria-hidden="true" d="" pointer-events="none" display="none"/></g></g><g class="mark-group role-scope pathgroup" role="graphics-object" aria-roledescription="group mark container"><g transform="translate(0,0)"><path class="background" aria-hidden="true" d="M0,0h200v200h-200Z"/><g><g class="mark-line role-mark marks" role="graphics-object" aria-roledescription="line mark container"><path aria-label="Time: Jan 01, 2024; Price: 2399; identifier: altex-LG-F2WR508SBW" role="graphics-symbol" aria-roledescription="line mark" d="M0,15.462L0.41,15.462L1.03,15.462L2.334,15.462L2.987,15.462L3.673,15.462L4.296,15.462L4.943,15.462L6.249,15.462L6.901,15.462L7.588,15.462L8.211,15.462L8.856,15.462L10.163,15.462L10.816,15.462L11.501,15.462L12.13,15.462L12.772,15.462L14.079,34.692L14.731,34.692L15.415,34.692L16.042,34.692L16.685,34.692L17.992,34.692L18.643,34.692L19.327,34.692L19.953,34.692L20.599,34.692L21.909,34.692L22.557,34.692L23.24,34.692L23.868,34.692L24.514,34.692L25.822,34.692L26.476,34.692L27.163,34.692L27.787,34.692L28.427,34.692L29.738,34.692L30.389,34.692L31.084,34.692L31.702,34.692L32.342,34.692L33.651,34.692L34.304,34.692L34.99,34.692L35.613,34.692L36.256,34.692L37.564,34.692L38.217,34.692L38.905,34.692L39.53,34.692L40.17,34.692L41.478,34.692L42.131,34.692L42.817,34.692L43.442,34.692L44.085,34.692L45.39,46.231L46.041,46.231L46.725,46.231L47.352,46.231L47.998,46.231L49.307,46.231L49.955,46.231L50.639,46.231L51.265,46.231L51.912,46.231L53.222,46.231L53.875,46.231L54.564,46.231L55.187,46.231L55.827,46.231L57.134,46.231L57.79,46.231L58.476,46.231L59.101,46.231L59.741,46.231L61.049,46.231L61.704,46.231L62.391,46.231L63.014,46.231L63.655,46.231L64.962,46.231L65.615,46.231L66.303,46.231L66.926,46.231L67.571,46.231L68.877,46.231L69.53,46.231L70.218,46.231L70.843,46.231L71.483,46.231L72.791,46.231L73.44,46.231L74.124,46.231L74.754,46.231L75.398,46.231L76.703,46.231L77.355,46.231L78.038,46.231L78.665,46.231L79.312,46.231L80.623,46.231L81.276,46.231L81.965,46.231L82.584,46.231L83.226,46.231L84.534,46.231L85.19,46.231L85.877,46.231L86.501,46.231L87.14,46.231L88.449,46.231L89.103,46.231L89.791,46.231L90.414,46.231L91.054,46.231L92.364,46.231L93.016,46.231L93.705,46.231L94.331,46.231L94.968,46.231L96.275,46.231L96.929,46.231L97.605,46.231L98.231,46.231L98.884,46.231L100.186,46.231L100.841,46.231L101.511,46.231L102.144,46.231L102.795,46.231L104.101,46.231L104.754,46.231L105.426,46.231L106.058,46.231L106.711,46.231L108.015,46.231L108.669,46.231L109.346,46.231L109.973,46.231L110.625,46.231L111.928,46.231L112.581,46.231L113.26,46.231L113.895,46.231L114.538,46.231L115.843,46.231L116.496,46.231L117.175,46.231L117.8,46.231L118.452,46.231L119.757,34.692L120.41,34.692L121.089,34.692L121.714,34.692L122.366,34.692L123.673,34.692L124.324,34.692L125.002,34.692L125.628,34.692L126.281,34.692L127.586,34.692L128.238,34.692L128.911,34.692L129.542,34.692L130.197,34.692L131.503,34.692L132.153,34.692L132.825,34.692L133.456,34.692L134.109,34.692L135.414,34.692L136.068,34.692L136.747,34.692L137.372,34.692L138.023,34.692L139.328,34.692L139.98,34.692L140.66,34.692L141.286,34.692L141.937,34.692L143.242,34.692L143.895,34.692L144.573,34.692L145.203,34.692L145.852,34.692L147.156,34.692L147.81,34.692L148.487,34.692L149.116,34.692L149.765,34.692L151.071,34.692L151.724,34.692L152.398,34.692L153.029,34.692L153.682,34.692L154.984,34.692L155.636,34.692L156.311,34.692L156.941,34.692L157.594,34.692L158.902,34.692L159.552,34.692L160.224,34.692L160.856,34.692L161.508,34.692L162.813,34.692L163.465,34.692L164.147,34.692L164.771,34.692L165.422,34.692L166.726,34.692L167.379,34.692L168.057,34.692L168.693,34.692L169.336,34.692L170.641,34.692L171.294,34.692L171.973,34.692L172.6,34.692L173.249,34.692L175.207,34.692L175.886,34.692L176.513,34.692L177.165,34.692L178.47,34.692L179.122,34.692L179.8,34.692L180.43,34.692L181.079,34.692L182.385,34.692L183.035,34.692L183.708,34.692L184.34,34.692L184.992,34.692L186.298,34.692L186.953,34.692L187.623,34.692L188.255,34.692L188.907,34.692L190.211,34.692L190.866,34.692L191.546,34.692L192.177,34.692L192.82,34.692L194.128,34.692L194.779,34.692L195.455,34.692L196.085,34.692L196.737,34.692L198.039,34.692L198.693,34.692L199.372,34.692L200,34.692" stroke="#f58518" stroke-width="2"/></g></g><path class="foreground" aria-hidden="true" d="" display="none"/></g><g transform="translate(0,0)"><path class="background" aria-hidden="true" d="M0,0h200v200h-200Z"/><g><g class="mark-line role-mark marks" role="graphics-object" aria-roledescription="line mark container"><path aria-label="Time: Jan 01, 2024; Price: 2499; identifier: altex-LG-F2WR508SBM" role="graphics-symbol" aria-roledescription="line mark" d="M0,7.769L0.41,7.769L1.03,7.769L2.334,7.769L2.988,7.769L3.673,7.769L4.296,7.769L4.943,7.769L6.249,7.769L6.902,7.769L7.588,7.769L8.212,7.769L8.857,7.769L10.163,7.769L10.816,7.769L11.501,7.769L12.13,7.769L12.773,7.769L14.079,27L14.731,27L15.416,27L16.042,27L16.685,27L17.992,27L18.643,27L19.327,27L19.953,27L20.6,27L21.909,27L22.557,27L23.241,27L23.868,27L24.514,27L25.822,27L26.476,27L27.163,27L27.787,27L28.427,27L29.738,27L30.389,27L31.084,27L31.702,27L32.342,27L33.651,27L34.304,27L34.991,27L35.613,27L36.256,27L37.564,27L38.217,27L38.906,27L39.53,27L40.171,27L41.478,27L42.131,27L42.817,27L43.442,27L44.085,27L45.39,38.538L46.042,38.538L46.725,38.538L47.352,38.538L47.998,38.538L49.307,38.538L49.956,38.538L50.639,38.538L51.265,38.538L51.913,38.538L53.222,38.538L53.875,38.538L54.564,38.538L55.187,38.538L55.827,38.538L57.134,38.538L57.79,38.538L58.477,38.538L59.103,38.538L59.741,38.538L61.049,38.538L61.704,38.538L62.391,38.538L63.014,38.538L63.655,38.538L64.962,38.538L65.615,38.538L66.303,38.538L66.926,38.538L67.571,38.538L68.878,38.538L69.53,38.538L70.218,38.538L70.843,38.538L71.483,38.538L72.791,38.538L73.44,38.538L74.125,38.538L74.754,38.538L75.398,38.538L76.703,38.538L77.355,38.538L78.038,38.538L78.666,38.538L79.312,38.538L80.623,38.538L81.276,38.538L81.965,38.538L82.584,38.538L83.226,38.538L84.534,38.538L85.19,38.538L85.878,38.538L86.502,38.538L87.14,38.538L88.449,38.538L89.103,38.538L89.791,38.538L90.414,38.538L91.054,38.538L92.365,38.538L93.016,38.538L93.705,38.538L94.331,38.538L94.968,38.538L96.275,38.538L96.929,38.538L97.605,38.538L98.232,38.538L98.884,38.538L100.187,38.538L100.841,38.538L101.511,38.538L102.144,38.538L102.795,38.538L104.102,38.538L104.754,38.538L105.427,38.538L106.058,38.538L106.711,38.538L108.015,38.538L108.67,38.538L109.347,38.538L109.974,38.538L110.625,38.538L111.929,38.538L112.581,38.538L113.26,38.538L113.895,38.538L114.538,38.538L115.843,38.538L116.496,38.538L117.175,38.538L117.801,38.538L118.452,38.538L119.757,27L120.41,27L121.089,27L121.714,27L122.366,27L123.673,27L124.324,27L125.002,27L125.628,27L126.281,27L127.586,27L128.239,27L128.911,27L129.543,27L130.197,27L131.503,27L132.153,27L132.825,27L133.456,27L134.109,27L135.414,27L136.069,27L136.747,27L137.372,27L138.023,27L139.328,27L139.98,27L140.66,27L141.286,27L141.937,27L143.242,27L143.895,27L144.573,27L145.204,27L145.852,27L147.156,27L147.81,27L148.487,27L149.116,27L149.765,27L151.071,27L151.724,27L152.399,27L153.029,27L153.682,27L154.984,27L155.636,27L156.311,27L156.941,27L157.594,27L158.902,27L159.552,27L160.224,27L160.856,27L161.508,27L162.813,27L163.465,27L164.147,27L164.771,27L165.422,27L166.726,27L167.379,27L168.057,27L168.694,27L169.337,27L170.641,27L171.294,27L171.973,27L172.6,27L173.25,27L175.207,27L175.886,27L176.513,27L177.165,27L178.47,27L179.122,27L179.8,27L180.43,27L181.079,27L182.385,27L183.035,27L183.708,27L184.34,27L184.992,27L186.298,27L186.953,27L187.623,27L188.255,27L188.907,27L190.212,27L190.867,27L191.546,27L192.177,27L192.821,27L194.128,27L194.779,27L195.455,27L196.085,27L196.737,27L198.04,27L198.693,27L199.372,27L200,27" stroke="#4c78a8" stroke-width="2"/></g></g><path class="foreground" aria-hidden="true" d="" display="none"/></g></g><g class="mark-group role-legend" role="graphics-symbol" aria-roledescription="legend" aria-label="Symbol legend titled 'identifier' for stroke color with 2 values: altex-LG-F2WR508SBM, altex-LG-F2WR508SBW"><g transform="translate(220,0)"><path class="background" aria-hidden="true" d="M0,0h168v40h-168Z" pointer-events="none"/><g><g class="mark-group role-legend-entry"><g transform="translate(0,16)"><path class="background" aria-hidden="true" d="M0,0h0v0h0Z" pointer-events="none"/><g><g class="mark-group role-scope" role="graphics-object" aria-roledescription="group mark container"><g transform="translate(0,0)"><path class="background" aria-hidden="true" d="M0,0h168v11h-168Z" pointer-events="none" opacity="1"/><g><g class="mark-symbol role-legend-symbol" pointer-events="none"><path transform="translate(6,6)" d="M-5,0L5,0" stroke="#4c78a8" stroke-width="1.5" opacity="1"/></g><g class="mark-text role-legend-label" pointer-events="none"><text text-anchor="start" transform="translate(16,9)" font-family="Liberation Mono" font-size="10px" fill="#000" opacity="1">altex-LG-F2WR508SBM</text></g></g><path class="foreground" aria-hidden="true" d="" pointer-events="none" display="none"/></g><g transform="translate(0,13)"><path class="background" aria-hidden="true" d="M0,0h168v11h-168Z" pointer-events="none" opacity="1"/><g><g class="mark-symbol role-legend-symbol" pointer-events="none"><path transform="translate(6,6)" d="M-5,0L5,0" stroke="#f58518" stroke-width="1.5" opacity="1"/></g><g class="mark-text role-legend-label" pointer-events="none"><text text-anchor="start" transform="translate(16,9)" font-family="Liberation Mono" font-size="10px" fill="#000" opacity="1">altex-LG-F2WR508SBW</text></g></g><path class="foreground" aria-hidden="true" d="" pointer-events="none" display="none"/></g></g></g><path class="foreground" aria-hidden="true" d="" pointer-events="none" display="none"/></g></g><g class="mark-text role-legend-title" pointer-events="none"><text text-anchor="start" transform="translate(0,9)" font-family="Liberation Mono" font-size="11px" font-weight="bold" fill="#000" opacity="1">identifier</text></g></g><path class="foreground" aria-hidden="true" d="" pointer-events="none" display="none"/></g></g></g><path class="foreground" aria-hidden="true" d="" display="none"/></g></g></g></svg>