<svg xmlns="http://www.w3.org/2000/svg" xmlns:xlink="http://www.w3.org/1999/xlink" version="1.1" class="marks" width="460" height="242" viewBox="0 0 460 242"><rect width="460" height="242" fill="white"/><g fill="none" stroke-miterlimit="10" transform="translate(67,5)"><g class="mark-group role-frame root" role="graphics-object" aria-roledescription="group mark container"><g transform="translate(0,0)"><path class="background" aria-hidden="true" d="M0.5,0.5h200v200h-200Z" stroke="#ddd"/><g><g class="mark-group role-axis" aria-hidden="true"><g transform="translate(0.5,200.5)"><path class="background" aria-hidden="true" d="M0,0h0v0h0Z" pointer-events="none"/><g><g class="mark-rule role-axis-grid" pointer-events="none"><line transform="translate(41,-200)" x2="0" y2="200" stroke="#ddd" stroke-width="1" opacity="1"/><line transform="translate(82,-200)" x2="0" y2="200" stroke="#ddd" stroke-width="1" opacity="1"/><line transform="translate(123,-200)" x2="0" y2="200" stroke="#ddd" stroke-width="1" opacity="1"/><line transform="translate(164,-200)" x2="0" y2="200" stroke="#ddd" stroke-width="1" opacity="1"/></g></g><path class="foreground" aria-hidden="true" d="" pointer-events="none" display="none"/></g></g><g class="mark-group role-axis" aria-hidden="true"><g transform="translate(0.5,0.5)"><path class="background" aria-hidden="true" d="M0,0h0v0h0Z" pointer-events="none"/><g><g class="mark-rule role-axis-grid" pointer-events="none"><line transform="translate(0,200)" x2="200" y2="0" stroke="#ddd" stroke-width="1" opacity="1"/><line transform="translate(0,162)" x2="200" y2="0" stroke="#ddd" stroke-width="1" opacity="1"/><line transform="translate(0,123)" x2="200" y2="0" stroke="#ddd" stroke-width="1" opacity="1"/><line transform="translate(0,85)" x2="200" y2="0" stroke="#ddd" stroke-width="1" opacity="1"/><line transform="translate(0,46)" x2="200" y2="0" stroke="#ddd" stroke-width="1" opacity="1"/><line transform="translate(0,8)" x2="200" y2="0" stroke="#ddd" stroke-width="1" opacity="1"/></g></g><path class="foreground" aria-hidden="true" d="" pointer-events="none" display="none"/></g></g><g class="mark-group role-axis" role="graphics-symbol" aria-roledescription="axis" aria-label="X-axis titled 'Time' for a time scale with values from Monday, 01 January 2024, 2:19:43 PM to Friday, 21 March 2025, 8:45:09 AM"><g transform="translate(0.5,200.5)"><path class="background" aria-hidden="true" d="M0,0h0v0h0Z" pointer-events="none"/><g><g class="mark-rule role-axis-tick" pointer-events="none"><line transform="translate(41,0)" x2="0" y2="5" stroke="#888" stroke-width="1" opacity="1"/><line transform="translate(82,0)" x2="0" y2="5" stroke="#888" stroke-width="1" opacity="1"/><line transform="translate(123,0)" x2="0" y2="5" stroke="#888" stroke-width="1" opacity="1"/><line transform="translate(164,0)" x2="0" y2="5" stroke="#888" stroke-width="1" opacity="1"/></g><g class="mark-text role-axis-label" pointer-events="none"><text text-anchor="middle" transform="translate(40.65177366443019,15)" font-family="Liberation Mono" font-size="10px" fill="#000" opacity="1">April</text><text text-anchor="middle" transform="translate(81.57201416803495,15)" font-family="Liberation Mono" font-size="10px" fill="#000" opacity="0">July</text><text text-anchor="middle" transform="translate(122.94192764420681,15)" font-family="Liberation Mono" font-size="10px" fill="#000" opacity="0">October</text><text text-anchor="middle" transform="translate(164.3118411203787,15)" font-family="Liberation Mono" font-size="10px" fill="#000" opacity="1">2025</text></g><g class="mark-rule role-axis-domain" pointer-events="none"><line transform="translate(0,0)" x2="200" y2="0" stroke="#888" stroke-width="1" opacity="1"/></g><g class="mark-text role-axis-title" pointer-events="none"><text text-anchor="middle" transform="translate(100,30)" font-family="Liberation Mono" font-size="11px" font-weight="bold" fill="#000" opacity="1">Time</text></g></g><path class="foreground" aria-hidden="true" d="" pointer-events="none" display="none"/></g></g><g class="mark-group role-axis" role="graphics-symbol" aria-roledescription="axis" aria-label="Y-axis titled 'Price' for a linear scale with values from 0 to 2,600"><g transform="translate(0.5,0.5)"><path class="background" aria-hidden="true" d="M0,0h0v0h0Z" pointer-events="none"/><g><g class="mark-rule role-axis-tick" pointer-events="none"><line transform="translate(0,200)" x2="-5" y2="0" stroke="#888" stroke-width="1" opacity="1"/><line transform="translate(0,162)" x2="-5" y2="0" stroke="#888" stroke-width="1" opacity="1"/><line transform="translate(0,123)" x2="-5" y2="0" stroke="#888" stroke-width="1" opacity="1"/><line transform="translate(0,85)" x2="-5" y2="0" stroke="#888" stroke-width="1" opacity="1"/><line transform="translate(0,46)" x2="-5" y2="0" stroke="#888" stroke-width="1" opacity="1"/><line transform="translate(0,8)" x2="-5" y2="0" stroke="#888" stroke-width="1" opacity="1"/></g><g class="mark-text role-axis-label" pointer-events="none"><text text-anchor="end" transform="translate(-7,203)" font-family="Liberation Mono" font-size="10px" fill="#000" opacity="1">0</text><text text-anchor="end" transform="translate(-7,164.53846153846155)" font-family="Liberation Mono" font-size="10px" fill="#000" opacity="1">500</text><text text-anchor="end" transform="translate(-7,126.07692307692308)" font-family="Liberation Mono" font-size="10px" fill="#000" opacity="1">1,000</text><text text-anchor="end" transform="translate(-7,87.61538461538463)" font-family="Liberation Mono" font-size="10px" fill="#000" opacity="1">1,500</text><text text-anchor="end" transform="translate(-7,49.153846153846146)" font-family="Liberation Mono" font-size="10px" fill="#000" opacity="1">2,000</text><text text-anchor="end" transform="translate(-7,10.692307692307686)" font-family="Liberation Mono" font-size="10px" fill="#000" opacity="1">2,500</text></g><g class="mark-rule role-axis-domain" pointer-events="none"><line transform="translate(0,200)" x2="0" y2="-200" stroke="#888" stroke-width="1" opacity="1"/></g><g class="mark-text role-axis-title" pointer-events="none"><text text-anchor="middle" transform="translate(-51,100) rotate(-90) translate(0,-2)" font-family="Liberation Mono" font-size="11px" font-weight="bold" fill="#000" opacity="1">Price</text></g></g><path class="foreground" aria-hidden="true" d="" pointer-events="none" display="none"/></g></g><g class="mark-group role-scope pathgroup" role="graphics-object" aria-roledescription="group mark container"><g transform="translate(0,0)"><path class="background" aria-hidden="true" d="M0,0h200v200h-200Z"/><g><g class="mark-line role-mark marks" role="graphics-object" aria-roledescription="line mark container"><path aria-label="Time: Jan 01, 2024; Price: 2399; identifier: altex-LG-F2WR508SBW" role="graphics-symbol" aria-roledescription="line mark" d="M0,15.462L0.047,15.462L0.118,15.462L0.268,15.462L0.343,15.462L0.422,15.462L0.494,15.462L0.568,15.462L0.718,15.462L0.793,15.462L0.872,15.462L0.943,15.462L1.017,15.462L1.168,15.462L1.243,15.462L1.321,15.462L1.394,15.462L1.467,15.462L1.617,34.692L1.692,34.692L1.771,34.692L1.843,34.692L1.917,34.692L2.067,34.692L2.142,34.692L2.22,34.692L2.292,34.692L2.367,34.692L2.517,34.692L2.591,34.692L2.67,34.692L2.742,34.692L2.816,34.692L2.967,34.692L3.042,34.692L3.121,34.692L3.192,34.692L3.266,34.692L3.416,34.692L3.491,34.692L3.571,34.692L3.642,34.692L3.716,34.692L3.866,34.692L3.941,34.692L4.02,34.692L4.091,34.692L4.165,34.692L4.316,34.692L4.391,34.692L4.47,34.692L4.541,34.692L4.615,34.692L4.765,34.692L4.84,34.692L4.919,34.692L4.991,34.692L5.065,34.692L5.215,46.231L5.289,46.231L5.368,46.231L5.44,46.231L5.514,46.231L5.665,46.231L5.739,46.231L5.818,46.231L5.89,46.231L5.964,46.231L6.114,46.231L6.189,46.231L6.269,46.231L6.34,46.231L6.414,46.231L6.564,46.231L6.639,46.231L6.718,46.231L6.79,46.231L6.863,46.231L7.014,46.231L7.089,46.231L7.168,46.231L7.239,46.231L7.313,46.231L7.463,46.231L7.538,46.231L7.617,46.231L7.689,46.231L7.763,46.231L7.913,46.231L7.988,46.231L8.067,46.231L8.139,46.231L8.212,46.231L8.363,46.231L8.437,46.231L8.516,46.231L8.588,46.231L8.662,46.231L8.812,46.231L8.887,46.231L8.965,46.231L9.037,46.231L9.112,46.231L9.262,46.231L9.337,46.231L9.416,46.231L9.488,46.231L9.561,46.231L9.712,46.231L9.787,46.231L9.866,46.231L9.938,46.231L10.011,46.231L10.161,46.231L10.237,46.231L10.316,46.231L10.387,46.231L10.461,46.231L10.611,46.231L10.686,46.231L10.765,46.231L10.837,46.231L10.91,46.231L11.06,46.231L11.136,46.231L11.213,46.231L11.285,46.231L11.36,46.231L11.51,46.231L11.585,46.231L11.662,46.231L11.735,46.231L11.81,46.231L11.96,46.231L12.035,46.231L12.112,46.231L12.184,46.231L12.259,46.231L12.409,46.231L12.484,46.231L12.562,46.231L12.634,46.231L12.709,46.231L12.859,46.231L12.934,46.231L13.012,46.231L13.085,46.231L13.159,46.231L13.309,46.231L13.384,46.231L13.462,46.231L13.533,46.231L13.608,46.231L13.758,34.692L13.833,34.692L13.911,34.692L13.983,34.692L14.058,34.692L14.208,34.692L14.283,34.692L14.361,34.692L14.433,34.692L14.508,34.692L14.658,34.692L14.733,34.692L14.81,34.692L14.882,34.692L14.958,34.692L15.108,34.692L15.182,34.692L15.26,34.692L15.332,34.692L15.407,34.692L15.557,34.692L15.632,34.692L15.71,34.692L15.782,34.692L15.857,34.692L16.007,34.692L16.082,34.692L16.16,34.692L16.232,34.692L16.306,34.692L16.456,34.692L16.531,34.692L16.609,34.692L16.682,34.692L16.756,34.692L16.906,34.692L16.981,34.692L17.059,34.692L17.131,34.692L17.206,34.692L17.356,34.692L17.431,34.692L17.508,34.692L17.581,34.692L17.656,34.692L17.805,34.692L17.88,34.692L17.958,34.692L18.03,34.692L18.105,34.692L18.255,34.692L18.33,34.692L18.407,34.692L18.48,34.692L18.555,34.692L18.705,34.692L18.78,34.692L18.858,34.692L18.93,34.692L19.004,34.692L19.154,34.692L19.229,34.692L19.307,34.692L19.38,34.692L19.454,34.692L19.604,34.692L19.679,34.692L19.757,34.692L19.829,34.692L19.904,34.692L20.129,34.692L20.207,34.692L20.279,34.692L20.354,34.692L20.503,34.692L20.578,34.692L20.656,34.692L20.729,34.692L20.803,34.692L20.953,34.692L21.028,34.692L21.105,34.692L21.178,34.692L21.253,34.692L21.403,34.692L21.478,34.692L21.555,34.692L21.628,34.692L21.703,34.692L21.852,34.692L21.928,34.692L22.006,34.692L22.078,34.692L22.152,34.692L22.302,34.692L22.377,34.692L22.455,34.692L22.527,34.692L22.602,34.692L22.752,34.692L22.827,34.692L22.905,34.692L22.977,34.692L23.052,34.692L23.201,34.692L23.276,34.692L23.354,34.692L23.427,34.692L23.501,34.692L23.651,34.692L23.726,34.692L23.804,34.692L23.876,34.692L23.951,34.692L24.101,34.692L24.176,34.692L24.253,34.692L24.326,34.692L24.4,34.692L24.55,34.692L24.626,34.692L24.703,34.692L24.776,34.692L24.85,34.692L25,34.692L25.075,34.692L25.153,34.692L25.225,34.692L25.3,34.692L25.45,34.692L25.525,34.692L25.603,34.692L25.675,34.692L25.75,34.692L25.9,34.692L25.974,34.692L26.052,34.692L26.125,34.692L26.199,34.692L26.349,34.692L26.424,34.692L26.502,34.692L26.574,34.692L26.649,34.692L26.799,34.692L26.874,34.692L26.952,34.692L27.024,34.692L27.099,34.692L27.249,34.692L27.323,34.692L27.401,34.692L27.473,34.692L27.548,34.692L27.698,34.692L27.773,34.692L27.85,34.692L27.923,34.692L27.998,34.692L28.155,34.692L28.257,34.692L28.302,34.692L28.373,34.692L28.448,34.692L28.597,34.692L28.672,34.692L28.751,34.692L28.822,34.692L28.897,34.692L29.047,34.692L29.123,34.692L29.2,34.692L29.273,34.692L29.347,34.692L29.497,34.692L29.572,34.692L29.65,34.692L29.722,34.692L29.797,34.692L29.947,34.692L30.023,34.692L30.099,34.692L30.171,34.692L30.246,34.692L30.396,34.692L30.471,34.692L30.548,34.692L30.621,34.692L30.696,34.692L30.846,34.692L30.921,34.692L30.998,34.692L31.071,34.692L31.146,34.692L31.296,34.692L31.37,34.692L31.449,34.692L31.521,34.692L31.595,34.692L31.745,34.692L31.82,34.692L31.898,34.692L31.971,34.692L32.045,34.692L32.195,34.692L32.27,34.692L32.348,34.692L32.42,34.692L32.495,34.692L32.645,34.692L32.72,34.692L32.798,34.692L32.87,34.692L32.944,34.692L33.094,34.692L33.17,34.692L33.247,34.692L33.319,34.692L33.394,34.692L33.544,34.692L33.619,34.692L33.697,34.692L33.769,34.692L33.844,34.692L33.994,34.692L34.069,34.692L34.146,34.692L34.218,34.692L34.293,34.692L34.443,34.692L34.518,34.692L34.597,34.692L34.669,34.692L34.743,34.692L34.893,34.692L34.968,34.692L35.046,34.692L35.119,34.692L35.193,34.692L35.343,34.692L35.418,34.692L35.496,34.692L35.568,34.692L35.643,34.692L35.792,34.692L35.868,34.692L35.946,34.692L36.018,34.692L36.092,34.692L36.242,34.692L36.317,34.692L36.395,34.692L36.467,34.692L36.542,34.692L36.692,34.692L36.767,34.692L36.844,34.692L36.916,34.692L36.991,34.692L37.141,34.692L37.216,34.692L37.294,34.692L37.366,34.692L37.441,34.692L37.591,34.692L37.666,34.692L37.744,34.692L37.816,34.692L37.891,34.692L38.041,34.692L38.116,34.692L38.194,34.692L38.266,34.692L38.34,34.692L38.491,34.692L38.566,34.692L38.644,34.692L38.716,34.692L38.79,34.692L38.94,34.692L39.015,34.692L39.093,34.692L39.165,34.692L39.24,34.692L39.39,34.692L39.465,34.692L39.543,34.692L39.615,34.692L39.689,34.692L39.839,34.692L39.914,34.692L39.992,34.692L40.064,34.692L40.139,34.692L40.289,34.692L40.364,34.692L40.442,34.692L40.514,34.692L40.589,34.692L40.739,34.692L40.814,34.692L40.892,34.692L40.965,34.692L41.038,34.692L41.189,34.692L41.264,34.692L41.342,34.692L41.414,34.692L41.488,34.692L41.638,34.692L41.713,34.692L41.791,34.692L41.864,34.692L41.938,34.692L42.088,34.692L42.163,34.692L42.241,34.692L42.313,34.692L42.388,34.692L42.538,34.692L42.69,34.692L42.763,34.692L42.837,34.692L42.987,34.692L43.062,34.692L43.139,34.692L43.212,34.692L43.287,34.692L43.437,34.692L43.512,34.692L43.589,34.692L43.662,34.692L43.736,34.692L43.887,34.692L43.961,34.692L44.04,34.692L44.112,34.692L44.186,34.692L44.336,34.692L44.411,34.692L44.489,34.692L44.561,34.692L44.636,34.692L44.786,34.692L44.861,34.692L44.939,34.692L45.012,34.692L45.086,34.692L45.236,34.692L45.311,34.692L45.389,34.692L45.535,34.692L45.685,34.692L45.761,34.692L45.838,34.692L45.91,34.692L45.985,34.692L46.135,34.692L46.21,34.692L46.286,34.692L46.36,34.692L46.434,34.692L46.591,34.692L46.707,34.692L46.777,34.692L46.922,34.692L47.035,34.692L47.109,34.692L47.186,34.692L47.259,34.692L47.334,34.692L47.484,34.692L47.559,34.692L47.637,34.692L47.709,34.692L47.784,34.692L47.933,34.692L48.008,34.692L48.087,34.692L48.159,34.692L48.233,34.692L48.458,34.692L48.536,34.692L48.608,34.692L48.683,34.692L48.833,34.692L48.908,34.692L48.986,34.692L49.058,34.692L49.133,34.692L49.283,34.692L49.357,34.692L49.435,34.692L49.507,34.692L49.582,34.692L49.732,34.692L49.807,34.692L49.885,34.692L49.957,34.692L50.032,34.692L50.182,34.692L50.257,34.692L50.336,34.692L50.407,34.692L50.482,34.692L50.631,34.692L50.707,34.692L50.785,34.692L50.857,34.692L50.932,34.692L51.081,34.692L51.157,34.692L51.237,34.692L51.306,34.692L51.381,34.692L51.531,34.692L51.606,34.692L51.682,34.692L51.756,34.692L51.831,34.692L51.981,34.692L52.056,34.692L52.134,34.692L52.206,34.692L52.281,34.692L52.43,34.692L52.505,34.692L52.583,34.692L52.655,34.692L52.73,34.692L52.88,34.692L52.955,34.692L53.033,34.692L53.105,34.692L53.18,34.692L53.329,34.692L53.406,34.692L53.483,34.692L53.555,34.692L53.629,34.692L53.779,34.692L53.855,34.692L53.933,34.692L54.005,34.692L54.079,34.692L54.229,34.692L54.305,34.692L54.383,34.692L54.454,34.692L54.529,34.692L54.679,57.769L54.754,57.769L54.833,57.769L54.904,57.769L54.979,57.769L55.129,57.769L55.203,57.769L55.282,57.769L55.354,57.769L55.428,57.769L55.578,57.769L55.653,57.769L55.731,57.769L55.803,57.769L55.878,57.769L56.028,57.769L56.103,57.769L56.181,57.769L56.253,57.769L56.327,57.769L56.477,57.769L56.553,57.769L56.631,57.769L56.703,57.769L56.777,57.769L56.927,57.769L57.002,57.769L57.08,57.769L57.152,57.769L57.227,57.769L57.377,57.769L57.452,57.769L57.531,57.769L57.603,57.769L57.676,57.769L57.827,34.692L57.902,34.692L57.98,34.692L58.053,34.692L58.126,34.692L58.276,34.692L58.351,34.692L58.43,34.692L58.501,34.692L58.576,34.692L58.726,34.692L58.801,34.692L58.879,34.692L58.95,34.692L59.025,34.692L59.176,34.692L59.25,34.692L59.329,34.692L59.4,34.692L59.475,34.692L59.625,34.692L59.7,34.692L59.779,34.692L59.851,34.692L59.925,34.692L60.075,34.692L60.15,34.692L60.229,34.692L60.301,34.692L60.374,34.692L60.525,34.692L60.6,34.692L60.679,34.692L60.75,34.692L60.824,34.692L60.974,34.692L61.049,34.692L61.128,34.692L61.199,34.692L61.274,34.692L61.424,34.692L61.499,34.692L61.578,34.692L61.649,34.692L61.723,34.692L61.873,34.692L61.948,34.692L62.027,34.692L62.098,34.692L62.173,34.692L62.323,34.692L62.398,34.692L62.476,34.692L62.548,34.692L62.623,34.692L62.774,34.692L62.848,34.692L62.927,34.692L62.998,34.692L63.073,34.692L63.222,34.692L63.298,34.692L63.377,34.692L63.448,34.692L63.522,34.692L63.672,34.692L63.748,34.692L63.826,34.692L63.898,34.692L63.972,34.692L64.122,34.692L64.197,34.692L64.276,34.692L64.348,34.692L64.421,34.692L64.572,34.692L64.647,34.692L64.726,34.692L64.797,34.692L64.871,34.692L65.021,34.692L65.096,34.692L65.174,34.692L65.246,34.692L65.321,34.692L65.471,34.692L65.546,34.692L65.624,34.692L65.696,34.692L65.771,34.692L65.921,34.692L65.996,34.692L66.075,34.692L66.146,34.692L66.22,34.692L66.372,34.692L66.446,34.692L66.524,34.692L66.596,34.692L66.67,34.692L66.821,34.692L66.895,34.692L66.974,34.692L67.045,34.692L67.119,34.692L67.27,34.692L67.345,34.692L67.424,34.692L67.495,34.692L67.569,34.692L67.72,34.692L67.794,34.692L67.873,34.692L67.945,34.692L68.019,34.692L68.169,34.692L68.244,34.692L68.322,34.692L68.394,34.692L68.468,34.692L68.619,34.692L68.694,34.692L68.772,34.692L68.844,34.692L68.918,34.692L69.069,34.692L69.144,34.692L69.223,34.692L69.294,34.692L69.368,34.692L69.518,34.692L69.593,34.692L69.672,34.692L69.744,34.692L69.818,34.692L69.968,34.692L70.043,34.692L70.122,34.692L70.193,34.692L70.267,34.692L70.417,34.692L70.493,34.692L70.572,34.692L70.643,34.692L70.717,34.692L70.867,34.692L70.942,34.692L71.022,34.692L71.093,34.692L71.167,34.692L71.317,34.692L71.391,34.692L71.47,34.692L71.542,34.692L71.616,34.692L71.766,34.692L71.841,34.692L71.92,34.692L71.991,34.692L72.066,34.692L72.217,34.692L72.292,34.692L72.371,34.692L72.442,34.692L72.516,34.692L72.666,34.692L72.741,34.692L72.82,34.692L72.892,34.692L72.966,34.692L73.116,34.692L73.191,46.231L73.27,46.231L73.341,46.231L73.415,46.231L73.565,46.231L73.64,46.231L73.719,46.231L73.791,46.231L73.865,46.231L74.015,46.231L74.09,46.231L74.169,48.538L74.24,48.538L74.315,48.538L74.465,48.538L74.54,48.538L74.618,48.538L74.69,48.538L74.764,48.538L74.914,48.538L74.989,48.538L75.068,48.538L75.139,48.538L75.214,48.538L75.364,48.538L75.439,48.538L75.519,48.538L75.589,48.538L75.663,48.538L75.814,48.538L75.889,48.538L75.968,48.538L76.039,48.538L76.113,48.538L76.263,48.538L76.339,48.538L76.418,48.538L76.489,48.538L76.563,48.538L76.713,48.538L76.788,48.538L76.867,48.538L76.939,48.538L77.012,48.538L77.163,48.538L77.238,48.538L77.317,48.538L77.388,48.538L77.462,48.538L77.612,48.538L77.687,48.538L77.767,48.538L77.837,48.538L77.912,48.538L78.062,48.538L78.137,48.538L78.215,48.538L78.287,48.538L78.361,48.538L78.512,48.538L78.587,48.538L78.666,48.538L78.737,48.538L78.811,48.538L78.961,48.538L79.037,48.538L79.116,48.538L79.261,48.538L79.411,48.538L79.486,48.538L79.566,48.538L79.637,48.538L79.71,48.538L79.861,48.538L79.936,48.538L80.015,48.538L80.086,48.538L80.16,48.538L80.31,48.538L80.386,48.538L80.465,48.538L80.536,48.538L80.61,48.538L80.76,48.538L80.835,48.538L80.914,48.538L80.985,48.538L81.06,48.538L81.209,48.538L81.284,48.538L81.363,48.538L81.435,48.538L81.509,48.538L81.659,48.538L81.735,48.538L81.814,48.538L81.885,48.538L81.959,48.538L82.109,48.538L82.184,48.538L82.263,48.538L82.335,48.538L82.409,48.538L82.559,48.538L82.634,48.538L82.713,48.538L82.785,48.538L82.858,48.538L83.009,48.538L83.084,48.538L83.163,48.538L83.234,48.538L83.308,48.538L83.459,48.538L83.533,48.538L83.612,48.538L83.683,48.538L83.757,48.538L83.908,48.538L83.983,48.538L84.061,48.538L84.133,48.538L84.207,48.538L84.357,48.538L84.432,48.538L84.511,48.538L84.582,48.538L84.657,48.538L84.807,48.538L84.883,48.538L84.961,48.538L85.033,48.538L85.106,48.538L85.257,48.538L85.332,48.538L85.412,48.538L85.483,48.538L85.556,48.538L85.707,48.538L85.782,48.538L85.861,48.538L85.932,48.538L86.006,48.538L86.156,48.538L86.231,48.538L86.311,48.538L86.381,48.538L86.455,48.538L86.606,48.538L86.681,48.538L86.76,48.538L86.831,48.538L86.905,48.538L87.055,48.538L87.13,48.538L87.209,48.538L87.28,48.538L87.355,48.538L87.506,48.538L87.581,48.538L87.664,48.538L87.734,48.538L87.804,48.538L87.955,48.538L88.03,48.538L88.11,48.538L88.181,48.538L88.254,48.538L88.405,48.538L88.48,48.538L88.558,48.538L88.631,48.538L88.704,48.538L88.854,48.538L88.93,48.538L89.009,48.538L89.08,48.538L89.154,48.538L89.304,48.538L89.379,48.538L89.459,48.538L89.529,48.538L89.603,48.538L89.754,48.538L89.829,48.538L89.908,48.538L89.979,48.538L90.053,48.538L90.203,48.538L90.278,48.538L90.357,48.538L90.428,48.538L90.503,48.538L90.653,48.538L90.728,48.538L90.807,48.538L90.879,48.538L90.952,48.538L91.103,48.538L91.179,48.538L91.257,48.538L91.328,48.538L91.402,48.538L91.552,48.538L91.628,48.538L91.707,48.538L91.778,48.538L91.852,48.538L92.002,27L92.077,27L92.157,27L92.228,27L92.301,27L92.452,27L92.527,27L92.606,27L92.677,27L92.751,27L92.902,27L92.976,27L93.055,27L93.127,27L93.201,27L93.351,27L93.426,27L93.505,27L93.576,27L93.651,27L93.8,27L93.875,27L93.954,27L94.026,27L94.1,27L94.25,27L94.326,27L94.405,27L94.476,27L94.55,27L94.7,27L94.775,27L94.855,27L94.926,27L94.999,27L95.149,27L95.224,27L95.304,27L95.375,27L95.449,27L95.599,27L95.675,27L95.754,27L95.825,27L95.899,27L96.049,27L96.124,27L96.203,27L96.275,27L96.348,27L96.499,27L96.574,27L96.652,27L96.724,27L96.798,27L96.949,27L97.023,27L97.102,27L97.173,27L97.248,27L97.398,27L97.473,27L97.553,27L97.624,27L97.698,27L97.848,27L97.923,27L98.002,27L98.073,27L98.147,27L98.298,27L98.373,27L98.452,27L98.524,27L98.597,27L98.748,27L98.822,27L98.902,27L98.973,27L99.047,27L99.197,27L99.272,27L99.352,27L99.422,27L99.496,27L99.647,27L99.721,27L99.8,27L99.873,27L99.946,27L100.096,27L100.171,27L100.25,27L100.321,27L100.396,27L100.546,27L100.621,27L100.701,27L100.772,27L100.845,27L100.996,27L101.071,27L101.15,27L101.222,27L101.295,27L101.445,27L101.521,27L101.6,27L101.671,27L101.744,27L101.895,27L101.97,27L102.049,27L102.12,27L102.194,27L102.345,27L102.42,27L102.499,27L102.57,27L102.644,27L102.794,27L102.869,27L102.948,27L103.02,27L103.094,27L103.244,27L103.319,27L103.398,27L103.469,27L103.543,27L103.694,27L103.769,27L103.848,27L103.919,27L103.993,27L104.144,27L104.219,27L104.298,27L104.369,27L104.443,27L104.593,27L104.668,27L104.746,27L104.819,27L104.892,27L105.043,27L105.118,27L105.197,27L105.269,27L105.342,27L105.492,27L105.568,27L105.647,27L105.718,27L105.791,27L105.942,27L106.017,27L106.096,27L106.167,27L106.241,27L106.392,27L106.467,27L106.546,27L106.617,27L106.691,27L106.842,27L106.917,27L106.996,27L107.067,27L107.141,27L107.291,27L107.366,27L107.446,27L107.517,27L107.59,27L107.741,27L107.816,27L107.896,27L107.967,27L108.04,27L108.191,27L108.266,27L108.346,27L108.416,27L108.49,27L108.641,27L108.716,27L108.795,27L108.866,27L108.939,27L109.09,27L109.165,27L109.244,27L109.316,27L109.389,27L109.54,27L109.615,27L109.694,27L109.765,27L109.839,27L109.99,27L110.065,27L110.145,27L110.215,27L110.289,27L110.439,27L110.514,27L110.594,27L110.665,27L110.738,27L110.889,27L110.964,27L111.044,27L111.114,27L111.188,27L111.339,27L111.414,27L111.494,27L111.564,27L111.638,27L111.788,27L111.863,27L111.943,27L112.014,27L112.087,27L112.238,27L112.312,27L112.392,27L112.463,27L112.537,27L112.687,27L112.762,27L112.842,27L112.913,27L112.987,27L113.137,27L113.213,27L113.292,27L113.363,27L113.436,27L113.587,27L113.662,27L113.742,27L113.812,27L113.886,27L114.037,27L114.112,27L114.192,27L114.262,27L114.335,27L114.487,27L114.562,27L114.641,27L114.712,27L114.785,27L114.936,27L115.011,27L115.091,27L115.161,27L115.235,27L115.386,46.231L115.461,46.231L115.54,46.231L115.611,46.231L115.685,46.231L115.835,46.231L115.91,46.231L115.99,46.231L116.061,46.231L116.134,46.231L116.286,46.231L116.361,46.231L116.441,46.231L116.511,46.231L116.584,46.231L116.734,46.231L116.81,46.231L116.89,46.231L116.96,46.231L117.034,46.231L117.185,46.231L117.26,46.231L117.339,46.231L117.41,46.231L117.484,46.231L117.634,53.923L117.709,53.923L117.789,53.923L117.86,53.923L117.933,53.923L118.084,53.923L118.159,53.923L118.239,53.923L118.309,53.923L118.383,53.923L118.533,53.923L118.608,53.923L118.687,53.923L118.759,53.923L118.832,53.923L118.984,53.923L119.058,53.923L119.137,53.923L119.208,53.923L119.282,53.923L119.433,53.923L119.509,53.923L119.588,53.923L119.658,53.923L119.732,53.923L119.883,53.923L119.958,53.923L120.038,53.923L120.108,53.923L120.182,53.923L120.332,53.923L120.408,53.923L120.488,53.923L120.559,53.923L120.631,53.923L120.782,23.154L120.858,23.154L120.938,23.154L121.008,23.154L121.081,23.154L121.232,23.154L121.307,23.154L121.387,23.154L121.457,23.154L121.681,23.154L121.756,23.154L121.836,23.154L121.906,23.154L121.98,23.154L122.131,23.154L122.206,23.154L122.285,23.154L122.356,23.154L122.43,23.154L122.581,23.154L122.657,23.154L122.737,23.154L122.807,23.154L122.88,23.154L123.031,23.154L123.106,23.154L123.186,23.154L123.256,23.154L123.329,23.154L123.48,23.154L123.556,23.154L123.635,23.154L123.706,23.154L123.78,23.154L123.93,23.154L124.005,23.154L124.085,23.154L124.156,23.154L124.229,23.154L124.379,23.154L124.455,23.154L124.535,23.154L124.605,23.154L124.678,23.154L124.829,23.154L124.904,23.154L124.983,23.154L125.054,23.154L125.128,23.154L125.279,23.154L125.354,23.154L125.433,23.154L125.504,23.154L125.577,23.154L125.729,23.154L125.804,23.154L125.884,23.154L125.954,23.154L126.028,23.154L126.178,23.154L126.254,23.154L126.333,23.154L126.404,23.154L126.477,23.154L126.628,23.154L126.703,23.154L126.783,23.154L126.853,23.154L126.927,23.154L127.077,23.154L127.153,23.154L127.233,23.154L127.303,23.154L127.377,23.154L127.527,23.154L127.602,23.154L127.682,23.154L127.752,23.154L127.827,23.154L127.977,23.154L128.052,23.154L128.131,23.154L128.202,23.154L128.276,23.154L128.427,23.154L128.501,23.154L128.581,23.154L128.651,23.154L128.725,23.154L128.876,23.154L128.952,23.154L129.032,23.154L129.102,23.154L129.175,23.154L129.326,23.154L129.401,23.154L129.481,23.154L129.552,23.154L129.625,23.154L129.776,23.154L129.851,23.154L129.931,23.154L130.001,23.154L130.075,23.154L130.226,23.154L130.301,23.154L130.381,23.154L130.451,23.154L130.524,23.154L130.675,23.154L130.75,23.154L130.83,23.154L130.901,23.154L130.974,23.154L131.124,23.154L131.199,23.154L131.279,23.154L131.35,23.154L131.424,23.154L131.574,23.154L131.649,23.154L131.729,23.154L131.799,23.154L131.873,23.154L132.024,23.154L132.099,23.154L132.179,23.154L132.25,23.154L132.323,23.154L132.474,23.154L132.549,23.154L132.629,23.154L132.699,23.154L132.772,23.154L132.923,23.154L132.999,23.154L133.079,23.154L133.149,23.154L133.223,23.154L133.373,23.154L133.448,23.154L133.528,23.154L133.599,23.154L133.672,23.154L133.823,23.154L133.898,23.154L133.978,23.154L134.048,23.154L134.122,23.154L134.272,23.154L134.347,23.154L134.426,23.154L134.497,23.154L134.571,23.154L134.722,23.154L134.797,23.154L134.876,23.154L134.947,23.154L135.021,23.154L135.172,23.154L135.247,23.154L135.327,23.154L135.398,23.154L135.471,23.154L135.621,23.154L135.697,23.154L135.777,23.154L135.847,23.154L135.92,23.154L136.071,23.154L136.147,23.154L136.227,23.154L136.297,23.154L136.37,23.154L136.676,23.154L136.746,23.154L136.82,23.154L136.97,23.154L137.045,23.154L137.125,23.154L137.196,23.154L137.269,23.154L137.42,23.154L137.495,23.154L137.574,23.154L137.646,23.154L137.719,23.154L137.869,23.154L137.944,23.154L138.024,23.154L138.094,23.154L138.168,23.154L138.319,23.154L138.395,23.154L138.475,23.154L138.545,23.154L138.618,23.154L138.769,23.154L138.844,23.154L138.924,23.154L138.994,23.154L139.068,23.154L139.219,23.154L139.294,23.154L139.374,23.154L139.444,23.154L139.517,23.154L139.668,58.538L139.744,58.538L139.823,58.538L139.894,58.538L139.967,58.538L140.118,58.538L140.193,58.538L140.273,58.538L140.343,58.538L140.417,58.538L140.567,58.538L140.642,58.538L140.721,58.538L140.793,58.538L140.866,58.538L141.017,58.538L141.092,58.538L141.171,58.538L141.242,58.538L141.316,58.538L141.467,58.538L141.542,58.538L141.622,58.538L141.692,58.538L141.766,58.538L141.916,58.538L141.992,58.538L142.072,58.538L142.142,58.538L142.216,58.538L142.366,58.538L142.442,58.538L142.521,58.538L142.592,58.538L142.665,58.538L142.816,23.154L142.892,23.154L142.972,23.154L143.042,23.154L143.115,23.154L143.266,23.154L143.341,23.154L143.421,23.154L143.492,23.154L143.565,23.154L143.716,23.154L143.79,23.154L143.87,23.154L143.941,23.154L144.014,23.154L144.165,23.154L144.24,23.154L144.32,23.154L144.39,23.154L144.464,23.154L144.615,23.154L144.691,23.154L144.771,23.154L144.841,23.154L144.914,23.154L145.065,23.154L145.14,23.154L145.22,23.154L145.291,23.154L145.364,23.154L145.514,23.154L145.59,23.154L145.67,23.154L145.74,23.154L145.813,23.154L145.964,23.154L146.04,23.154L146.12,23.154L146.19,23.154L146.263,23.154L146.414,23.154L146.489,23.154L146.569,23.154L146.64,23.154L146.713,23.154L146.863,23.154L146.938,23.154L147.018,23.154L147.089,23.154L147.162,23.154L147.313,23.154L147.388,23.154L147.468,23.154L147.538,23.154L147.612,23.154L147.763,23.154L147.839,23.154L147.919,23.154L147.989,23.154L148.062,23.154L148.213,23.154L148.288,23.154L148.368,23.154L148.439,23.154L148.512,23.154L148.663,23.154L148.738,23.154L148.818,23.154L148.888,23.154L148.961,23.154L149.112,23.154L149.188,23.154L149.268,23.154L149.338,23.154L149.411,23.154L149.562,23.154L149.637,23.154L149.717,23.154L149.787,23.154L149.86,23.154L150.011,23.154L150.086,23.154L150.166,23.154L150.236,23.154L150.31,23.154L150.461,23.154L150.536,23.154L150.616,23.154L150.686,23.154L150.76,23.154L150.911,23.154L150.987,23.154L151.067,23.154L151.137,23.154L151.21,23.154L151.361,23.154L151.436,23.154L151.516,23.154L151.587,23.154L151.659,23.154L151.81,23.154L151.886,23.154L151.966,23.154L152.036,23.154L152.109,23.154L152.26,23.154L152.336,23.154L152.416,23.154L152.486,23.154L152.559,23.154L152.71,23.154L152.785,23.154L152.865,23.154L152.935,23.154L153.008,23.154L153.159,23.154L153.234,23.154L153.314,23.154L153.384,23.154L153.458,23.154L153.609,23.154L153.683,23.154L153.764,23.154L153.833,23.154L153.907,23.154L154.059,23.154L154.135,23.154L154.215,23.154L154.285,23.154L154.358,23.154L154.508,23.154L154.584,23.154L154.664,23.154L154.734,23.154L154.807,23.154L154.958,23.154L155.034,23.154L155.114,23.154L155.184,23.154L155.257,23.154L155.408,23.154L155.483,23.154L155.564,23.154L155.634,23.154L155.706,23.154L155.857,23.154L155.933,23.154L156.013,23.154L156.083,23.154L156.156,23.154L156.306,23.154L156.382,23.154L156.461,23.154L156.531,23.154L156.605,23.154L156.756,23.154L156.831,23.154L156.911,23.154L156.981,23.154L157.055,23.154L157.206,23.154L157.282,23.154L157.362,23.154L157.432,23.154L157.505,23.154L157.656,23.154L157.732,23.154L157.812,23.154L157.882,23.154L157.954,23.154L158.105,23.154L158.181,23.154L158.261,23.154L158.331,23.154L158.404,23.154L158.555,23.154L158.63,23.154L158.711,23.154L158.78,23.154L158.854,23.154L159.004,23.154L159.079,23.154L159.159,23.154L159.229,23.154L159.303,23.154L159.453,23.154L159.528,23.154L159.608,23.154L159.678,23.154L159.752,23.154L159.903,23.154L159.978,23.154L160.057,23.154L160.128,23.154L160.202,23.154L160.353,23.154L160.429,23.154L160.508,23.154L160.578,23.154L160.652,23.154L160.803,23.154L160.878,23.154L160.958,23.154L161.028,23.154L161.102,23.154L161.252,23.154L161.328,23.154L161.407,23.154L161.478,23.154L161.551,23.154L161.702,23.154L161.777,23.154L161.857,23.154L161.927,23.154L162.001,23.154L162.152,23.154L162.227,23.154L162.307,23.154L162.377,23.154L162.45,23.154L162.601,23.154L162.676,23.154L162.756,23.154L162.826,23.154L162.9,23.154L163.051,23.154L163.126,23.154L163.205,23.154L163.276,23.154L163.35,23.154L163.501,23.154L163.576,23.154L163.656,23.154L163.726,23.154L163.799,23.154L163.95,23.154L164.026,23.154L164.105,23.154L164.176,23.154L164.249,23.154L164.4,23.154L164.476,23.154L164.555,23.154L164.625,23.154L164.699,23.154L164.85,23.154L164.925,23.154L165.005,23.154L165.075,23.154L165.149,23.154L165.299,23.154L165.375,23.154L165.455,23.154L165.525,23.154L165.598,23.154L165.749,23.154L165.824,23.154L165.904,23.154L165.974,23.154L166.048,23.154L166.198,23.154L166.274,23.154L166.353,23.154L166.424,23.154L166.497,23.154L166.649,23.154L166.724,23.154L166.804,23.154L166.874,23.154L166.947,23.154L167.098,23.154L167.174,23.154L167.254,23.154L167.327,23.154L167.397,23.154L167.548,23.154L167.623,23.154L167.703,23.154L167.774,23.154L167.847,23.154L167.998,23.154L168.073,23.154L168.153,23.154L168.223,23.154L168.297,23.154L168.447,23.154L168.523,23.154L168.602,23.154L168.673,23.154L168.746,23.154L168.897,23.154L168.972,23.154L169.051,23.154L169.122,23.154L169.195,23.154L169.346,23.154L169.421,23.154L169.501,23.154L169.571,23.154L169.645,23.154L169.796,23.154L169.872,23.154L169.952,23.154L170.022,23.154L170.095,23.154L170.245,23.154L170.321,23.154L170.401,23.154L170.471,23.154L170.545,23.154L170.695,23.154L170.771,23.154L170.85,23.154L170.921,23.154L170.994,23.154L171.145,23.154L171.22,23.154L171.3,23.154L171.444,23.154L171.595,23.154L171.67,23.154L171.749,23.154L171.82,23.154L172.119,23.154L172.198,23.154L172.269,23.154L172.343,23.154L172.494,23.154L172.568,23.154L172.648,23.154L172.719,23.154L172.793,23.154L172.944,23.154L173.019,23.154L173.099,23.154L173.169,23.154L173.242,23.154L173.393,23.154L173.469,23.154L173.549,23.154L173.619,23.154L173.692,23.154L173.843,23.154L173.919,23.154L173.998,23.154L174.069,23.154L174.142,23.154L174.293,23.154L174.368,23.154L174.448,23.154L174.518,23.154L174.592,23.154L174.742,23.154L174.818,23.154L174.897,23.154L174.968,23.154L175.041,23.154L175.192,23.154L175.267,23.154L175.346,23.154L175.417,23.154L175.491,23.154L175.641,23.154L175.716,23.154L175.795,23.154L175.866,23.154L175.94,23.154L176.092,23.154L176.167,23.154L176.247,23.154L176.317,23.154L176.39,23.154L176.541,23.154L176.616,23.154L176.696,23.154L176.767,23.154L176.84,23.154L176.991,23.154L177.066,23.154L177.146,23.154L177.216,23.154L177.29,23.154L177.441,23.154L177.515,23.154L177.595,23.154L177.668,23.154L177.74,23.154L177.89,23.154L177.965,23.154L178.045,23.154L178.116,23.154L178.189,23.154L178.34,23.154L178.414,23.154L178.493,23.154L178.564,23.154L178.639,23.154L178.789,23.154L178.864,23.154L178.943,23.154L179.014,23.154L179.088,23.154L179.239,23.154L179.314,23.154L179.394,23.154L179.465,23.154L179.538,23.154L179.689,23.154L179.764,23.154L179.844,23.154L179.915,23.154L179.988,23.154L180.139,23.154L180.214,23.154L180.294,23.154L180.365,23.154L180.438,23.154L180.589,23.154L180.664,23.154L180.744,23.154L180.814,23.154L180.887,23.154L181.038,23.154L181.113,23.154L181.193,23.154L181.264,23.154L181.337,23.154L181.487,23.154L181.563,23.154L181.641,23.154L181.712,23.154L181.786,23.154L181.937,23.154L182.012,23.154L182.091,23.154L182.162,23.154L182.236,23.154L182.387,23.154L182.462,23.154L182.542,23.154L182.612,23.154L182.686,23.154L182.837,23.154L182.912,23.154L182.992,23.154L183.063,23.154L183.136,23.154L183.287,23.154L183.362,23.154L183.442,23.154L183.512,23.154L183.585,23.154L183.811,40.846L183.891,40.846L183.962,40.846L184.037,40.846L184.186,40.846L184.261,40.846L184.341,40.846L184.411,40.846L184.485,40.846L184.636,40.846L184.71,40.846L184.789,40.846L184.86,40.846L184.934,40.846L185.085,40.846L185.16,40.846L185.239,40.846L185.31,40.846L185.384,40.846L185.535,40.846L185.61,40.846L185.69,40.846L185.76,40.846L185.833,40.846L185.984,40.846L186.06,40.846L186.139,40.846L186.21,40.846L186.284,40.846L186.435,40.846L186.51,40.846L186.589,40.846L186.66,40.846L186.733,40.846L186.884,23.154L186.959,23.154L187.039,23.154L187.11,23.154L187.183,23.154L187.334,23.154L187.409,23.154L187.489,23.154L187.558,23.154L187.632,23.154L187.783,23.154L187.858,23.154L187.937,23.154L188.008,23.154L188.082,23.154L188.233,23.154L188.307,23.154L188.387,23.154L188.457,23.154L188.532,23.154L188.682,23.154L188.758,23.154L188.838,23.154L188.909,23.154L188.982,23.154L189.132,23.154L189.208,23.154L189.288,23.154L189.358,23.154L189.431,23.154L189.583,23.154L189.658,23.154L189.737,30.846L189.808,30.846L189.881,30.846L190.032,30.846L190.107,30.846L190.187,46.231L190.258,46.231L190.331,46.231L190.481,46.231L190.557,46.231L190.636,46.231L190.707,46.231L190.781,46.231L190.931,46.231L191.006,46.231L191.085,46.231L191.156,46.231L191.23,46.231L191.38,46.231L191.455,46.231L191.535,46.231L191.605,46.231L191.679,46.231L191.831,46.231L191.906,46.231L191.986,46.231L192.056,46.231L192.13,46.231L192.28,46.231L192.356,46.231L192.436,46.231L192.506,46.231L192.579,46.231L192.73,46.231L192.806,46.231L192.885,46.231L192.957,46.231L193.029,46.231L193.18,46.231L193.255,46.231L193.335,46.231L193.405,46.231L193.478,46.231L193.629,46.231L193.705,46.231L193.784,46.231L193.855,46.231L193.927,46.231L194.077,46.231L194.152,46.231L194.23,46.231L194.302,46.231L194.377,46.231L194.527,46.231L194.602,46.231L194.68,46.231L194.752,46.231L194.827,46.231L194.977,46.231L195.052,46.231L195.134,46.231L195.204,46.231L195.277,46.231L195.428,46.231L195.504,46.231L195.584,46.231L195.654,46.231L195.727,46.231L195.878,46.231L195.953,46.231L196.033,46.231L196.104,46.231L196.177,46.231L196.328,30.846L196.403,30.846L196.483,30.846L196.554,30.846L196.626,30.846L196.777,30.846L196.852,30.846L196.932,30.846L197.002,30.846L197.076,30.846L197.226,30.846L197.301,30.846L197.381,35.846L197.451,35.846L197.525,35.846L197.676,35.846L197.751,35.846L197.831,53.923L197.902,53.923L197.975,53.923L198.126,53.923L198.202,53.923L198.282,30.846L198.352,30.846L198.425,30.846L198.576,30.846L198.652,30.846L198.732,30.846L198.802,30.846L198.875,30.846L199.026,30.846L199.101,30.846L199.181,30.846L199.251,30.846L199.324,30.846L199.475,30.846L199.55,30.846L199.631,30.846L199.701,30.846L199.774,30.846L199.925,30.846L200,30.846" stroke="#4c78a8" stroke-width="2"/></g></g><path class="foreground" aria-hidden="true" d="" display="none"/></g><g transform="translate(0,0)"><path class="background" aria-hidden="true" d="M0,0h200v200h-200Z"/><g><g class="mark-line role-mark marks" role="graphics-object" aria-roledescription="line mark container"><path aria-label="Time: Jan 01, 2024; Price: 2499; identifier: altex-LG-F2WR508SBM" role="graphics-symbol" aria-roledescription="line mark" d="M0,7.769L0.047,7.769L0.118,7.769L0.268,7.769L0.343,7.769L0.422,7.769L0.494,7.769L0.568,7.769L0.718,7.769L0.793,7.769L0.872,7.769L0.943,7.769L1.018,7.769L1.168,7.769L1.243,7.769L1.321,7.769L1.394,7.769L1.467,7.769L1.617,27L1.692,27L1.771,27L1.843,27L1.917,27L2.067,27L2.142,27L2.22,27L2.292,27L2.367,27L2.517,27L2.591,27L2.67,27L2.742,27L2.816,27L2.967,27L3.042,27L3.121,27L3.192,27L3.266,27L3.416,27L3.491,27L3.571,27L3.642,27L3.716,27L3.866,27L3.941,27L4.02,27L4.091,27L4.165,27L4.316,27L4.391,27L4.47,27L4.541,27L4.615,27L4.765,27L4.84,27L4.919,27L4.991,27L5.065,27L5.215,38.538L5.289,38.538L5.368,38.538L5.44,38.538L5.514,38.538L5.665,38.538L5.739,38.538L5.818,38.538L5.89,38.538L5.964,38.538L6.114,38.538L6.189,38.538L6.269,38.538L6.34,38.538L6.414,38.538L6.564,38.538L6.639,38.538L6.718,38.538L6.79,38.538L6.863,38.538L7.014,38.538L7.089,38.538L7.168,38.538L7.239,38.538L7.313,38.538L7.463,38.538L7.538,38.538L7.617,38.538L7.689,38.538L7.763,38.538L7.913,38.538L7.988,38.538L8.067,38.538L8.139,38.538L8.212,38.538L8.363,38.538L8.437,38.538L8.516,38.538L8.588,38.538L8.662,38.538L8.812,38.538L8.887,38.538L8.965,38.538L9.037,38.538L9.112,38.538L9.262,38.538L9.337,38.538L9.417,38.538L9.488,38.538L9.561,38.538L9.712,38.538L9.787,38.538L9.866,38.538L9.938,38.538L10.011,38.538L10.161,38.538L10.237,38.538L10.316,38.538L10.387,38.538L10.461,38.538L10.611,38.538L10.686,38.538L10.765,38.538L10.837,38.538L10.91,38.538L11.061,38.538L11.136,38.538L11.213,38.538L11.285,38.538L11.36,38.538L11.51,38.538L11.585,38.538L11.662,38.538L11.735,38.538L11.81,38.538L11.96,38.538L12.035,38.538L12.112,38.538L12.184,38.538L12.259,38.538L12.409,38.538L12.484,38.538L12.562,38.538L12.634,38.538L12.709,38.538L12.859,38.538L12.934,38.538L13.012,38.538L13.085,38.538L13.159,38.538L13.309,38.538L13.384,38.538L13.462,38.538L13.533,38.538L13.608,38.538L13.758,27L13.833,27L13.911,27L13.983,27L14.058,27L14.208,27L14.283,27L14.361,27L14.433,27L14.508,27L14.658,27L14.733,27L14.81,27L14.882,27L14.958,27L15.108,27L15.182,27L15.26,27L15.332,27L15.407,27L15.557,27L15.632,27L15.71,27L15.782,27L15.857,27L16.007,27L16.082,27L16.16,27L16.232,27L16.306,27L16.456,27L16.531,27L16.609,27L16.682,27L16.756,27L16.906,27L16.981,27L17.059,27L17.131,27L17.206,27L17.356,27L17.431,27L17.508,27L17.581,27L17.656,27L17.805,27L17.88,27L17.958,27L18.03,27L18.105,27L18.255,27L18.33,27L18.407,27L18.48,27L18.555,27L18.705,27L18.78,27L18.858,27L18.93,27L19.004,27L19.154,27L19.229,27L19.307,27L19.38,27L19.454,27L19.604,27L19.679,27L19.757,27L19.829,27L19.904,27L20.129,27L20.207,27L20.279,27L20.354,27L20.504,27L20.578,27L20.656,27L20.729,27L20.803,27L20.953,27L21.028,27L21.105,27L21.178,27L21.253,27L21.403,27L21.478,27L21.555,27L21.628,27L21.703,27L21.852,27L21.928,27L22.006,27L22.078,27L22.152,27L22.302,27L22.377,27L22.455,27L22.527,27L22.602,27L22.752,27L22.827,27L22.905,27L22.977,27L23.052,27L23.201,27L23.276,27L23.354,27L23.427,27L23.501,27L23.651,27L23.726,27L23.804,27L23.876,27L23.951,27L24.101,27L24.176,27L24.253,27L24.326,27L24.4,27L24.55,27L24.626,27L24.703,27L24.776,27L24.85,27L25,27L25.075,27L25.153,27L25.225,27L25.3,27L25.45,27L25.525,27L25.603,27L25.675,27L25.75,27L25.9,27L25.974,27L26.052,27L26.125,27L26.199,27L26.349,27L26.424,27L26.502,27L26.574,27L26.649,27L26.799,27L26.874,27L26.952,27L27.024,27L27.099,27L27.249,27L27.324,27L27.401,27L27.473,27L27.548,27L27.698,27L27.773,27L27.85,27L27.923,27L27.998,27L28.155,27L28.257,27L28.302,27L28.373,27L28.448,27L28.597,27L28.672,27L28.751,27L28.822,27L28.897,27L29.047,27L29.123,27L29.2,27L29.273,27L29.347,27L29.497,27L29.572,27L29.65,38.538L29.722,38.538L29.797,38.538L29.947,38.538L30.023,38.538L30.099,38.538L30.171,38.538L30.246,38.538L30.396,38.538L30.471,38.538L30.548,38.538L30.621,38.538L30.696,38.538L30.846,38.538L30.921,38.538L30.998,38.538L31.071,38.538L31.146,38.538L31.296,38.538L31.37,38.538L31.449,38.538L31.521,38.538L31.595,38.538L31.745,38.538L31.82,38.538L31.898,38.538L31.971,38.538L32.045,38.538L32.195,38.538L32.27,38.538L32.348,38.538L32.42,38.538L32.495,38.538L32.645,38.538L32.72,38.538L32.798,38.538L32.87,38.538L32.944,38.538L33.094,38.538L33.17,38.538L33.247,38.538L33.319,38.538L33.394,38.538L33.544,38.538L33.619,38.538L33.697,38.538L33.769,38.538L33.844,38.538L33.994,38.538L34.069,38.538L34.146,38.538L34.218,38.538L34.293,38.538L34.443,38.538L34.518,38.538L34.597,38.538L34.669,38.538L34.743,38.538L34.893,38.538L34.968,38.538L35.046,38.538L35.119,38.538L35.193,38.538L35.343,38.538L35.418,38.538L35.496,38.538L35.568,38.538L35.643,38.538L35.792,38.538L35.868,38.538L35.946,38.538L36.018,38.538L36.092,38.538L36.242,38.538L36.317,38.538L36.395,38.538L36.467,38.538L36.542,38.538L36.692,38.538L36.767,38.538L36.844,38.538L36.916,38.538L36.991,38.538L37.141,38.538L37.216,38.538L37.294,38.538L37.366,38.538L37.441,38.538L37.591,38.538L37.666,38.538L37.744,38.538L37.816,38.538L37.891,38.538L38.041,38.538L38.116,38.538L38.194,38.538L38.266,38.538L38.34,38.538L38.491,38.538L38.566,38.538L38.644,38.538L38.716,38.538L38.79,38.538L38.94,38.538L39.015,38.538L39.093,38.538L39.165,38.538L39.24,38.538L39.39,38.538L39.465,38.538L39.543,38.538L39.615,38.538L39.689,38.538L39.839,38.538L39.914,38.538L39.992,38.538L40.064,38.538L40.139,38.538L40.289,38.538L40.364,38.538L40.442,38.538L40.514,38.538L40.589,38.538L40.739,38.538L40.814,38.538L40.892,38.538L40.965,38.538L41.038,38.538L41.189,38.538L41.264,38.538L41.342,38.538L41.414,38.538L41.488,38.538L41.638,38.538L41.713,38.538L41.791,38.538L41.864,38.538L41.938,38.538L42.088,38.538L42.163,38.538L42.241,38.538L42.313,38.538L42.388,38.538L42.538,38.538L42.69,38.538L42.763,38.538L42.837,38.538L42.987,38.538L43.062,38.538L43.139,38.538L43.212,38.538L43.287,38.538L43.437,38.538L43.512,38.538L43.589,38.538L43.662,38.538L43.737,38.538L43.887,38.538L43.961,38.538L44.04,38.538L44.112,38.538L44.186,38.538L44.336,38.538L44.411,38.538L44.489,38.538L44.561,38.538L44.636,38.538L44.786,38.538L44.861,38.538L44.939,38.538L45.012,38.538L45.086,38.538L45.236,38.538L45.311,38.538L45.389,38.538L45.535,38.538L45.685,38.538L45.761,38.538L45.838,38.538L45.91,38.538L45.985,38.538L46.135,38.538L46.21,38.538L46.286,38.538L46.36,38.538L46.434,38.538L46.591,38.538L46.707,38.538L46.777,38.538L46.922,38.538L47.035,38.538L47.109,38.538L47.186,38.538L47.259,38.538L47.334,38.538L47.484,38.538L47.559,38.538L47.637,38.538L47.709,38.538L47.784,38.538L47.933,38.538L48.008,38.538L48.087,38.538L48.159,38.538L48.233,38.538L48.458,38.538L48.536,38.538L48.608,38.538L48.683,38.538L48.833,38.538L48.908,38.538L48.986,38.538L49.058,38.538L49.133,38.538L49.283,38.538L49.357,38.538L49.435,38.538L49.507,38.538L49.582,38.538L49.732,38.538L49.807,38.538L49.885,38.538L49.957,38.538L50.032,38.538L50.182,38.538L50.257,38.538L50.336,38.538L50.407,38.538L50.482,38.538L50.631,38.538L50.707,38.538L50.785,38.538L50.857,38.538L50.932,38.538L51.081,38.538L51.157,38.538L51.237,38.538L51.306,38.538L51.381,38.538L51.531,38.538L51.606,38.538L51.682,38.538L51.756,38.538L51.831,38.538L51.981,38.538L52.056,38.538L52.134,38.538L52.206,38.538L52.281,38.538L52.43,38.538L52.505,38.538L52.583,38.538L52.655,38.538L52.73,38.538L52.88,38.538L52.955,38.538L53.033,38.538L53.105,38.538L53.18,38.538L53.329,38.538L53.406,38.538L53.483,38.538L53.555,38.538L53.629,38.538L53.779,38.538L53.855,38.538L53.933,38.538L54.005,38.538L54.079,38.538L54.229,38.538L54.305,38.538L54.383,38.538L54.454,38.538L54.529,38.538L54.679,38.538L54.754,38.538L54.833,38.538L54.904,38.538L54.979,38.538L55.129,38.538L55.203,38.538L55.282,38.538L55.354,38.538L55.428,38.538L55.578,38.538L55.653,38.538L55.731,38.538L55.803,38.538L55.878,38.538L56.028,38.538L56.103,38.538L56.181,38.538L56.253,38.538L56.327,38.538L56.477,38.538L56.553,38.538L56.631,38.538L56.703,38.538L56.777,38.538L56.927,38.538L57.002,38.538L57.08,30.846L57.152,30.846L57.227,30.846L57.377,30.846L57.452,30.846L57.531,30.846L57.603,30.846L57.676,30.846L57.827,30.846L57.902,30.846L57.98,30.846L58.053,30.846L58.126,30.846L58.276,30.846L58.351,30.846L58.43,30.846L58.501,30.846L58.576,30.846L58.726,30.846L58.801,30.846L58.879,30.846L58.95,30.846L59.025,30.846L59.176,30.846L59.25,30.846L59.329,30.846L59.4,30.846L59.475,30.846L59.625,30.846L59.7,30.846L59.779,30.846L59.851,30.846L59.925,30.846L60.075,30.846L60.15,30.846L60.229,30.846L60.301,30.846L60.374,30.846L60.525,30.846L60.6,30.846L60.679,30.846L60.75,30.846L60.824,30.846L60.974,30.846L61.049,30.846L61.128,30.846L61.199,30.846L61.274,30.846L61.424,30.846L61.499,30.846L61.578,30.846L61.649,30.846L61.723,30.846L61.873,30.846L61.949,30.846L62.027,30.846L62.098,30.846L62.173,30.846L62.323,30.846L62.398,30.846L62.476,30.846L62.548,30.846L62.623,30.846L62.774,30.846L62.848,30.846L62.927,30.846L62.998,30.846L63.073,30.846L63.222,30.846L63.298,30.846L63.377,30.846L63.448,30.846L63.522,30.846L63.672,30.846L63.748,30.846L63.826,38.538L63.898,38.538L63.972,38.538L64.122,38.538L64.197,38.538L64.276,38.538L64.348,38.538L64.421,38.538L64.572,38.538L64.647,38.538L64.726,38.538L64.797,38.538L64.871,38.538L65.021,38.538L65.096,38.538L65.175,38.538L65.246,38.538L65.321,38.538L65.471,38.538L65.546,38.538L65.624,38.538L65.696,38.538L65.771,38.538L65.921,38.538L65.996,38.538L66.075,38.538L66.146,38.538L66.22,38.538L66.372,38.538L66.446,38.538L66.524,38.538L66.596,38.538L66.67,38.538L66.821,38.538L66.895,38.538L66.974,38.538L67.045,38.538L67.12,38.538L67.27,38.538L67.345,38.538L67.424,38.538L67.495,38.538L67.569,38.538L67.72,30.846L67.795,30.846L67.873,30.846L67.945,30.846L68.019,30.846L68.169,30.846L68.244,30.846L68.322,30.846L68.394,30.846L68.468,30.846L68.619,30.846L68.694,30.846L68.772,30.846L68.844,30.846L68.918,30.846L69.069,30.846L69.144,30.846L69.223,30.846L69.294,30.846L69.368,30.846L69.518,30.846L69.593,30.846L69.672,30.846L69.744,30.846L69.818,30.846L69.968,30.846L70.043,30.846L70.122,30.846L70.193,30.846L70.267,30.846L70.417,30.846L70.493,30.846L70.572,30.846L70.643,30.846L70.717,30.846L70.867,30.846L70.943,30.846L71.022,30.846L71.093,30.846L71.167,30.846L71.317,30.846L71.391,30.846L71.47,30.846L71.542,30.846L71.616,30.846L71.766,30.846L71.841,30.846L71.92,30.846L71.992,30.846L72.066,30.846L72.217,30.846L72.292,30.846L72.371,30.846L72.442,30.846L72.516,30.846L72.666,30.846L72.741,30.846L72.82,30.846L72.892,30.846L72.966,30.846L73.116,30.846L73.191,34.692L73.27,34.692L73.341,34.692L73.415,34.692L73.565,34.692L73.64,34.692L73.719,34.692L73.791,34.692L73.865,34.692L74.015,34.692L74.09,34.692L74.169,40.077L74.24,40.077L74.315,40.077L74.465,40.077L74.54,40.077L74.618,40.077L74.69,40.077L74.764,40.077L74.914,40.077L74.989,40.077L75.068,40.077L75.139,40.077L75.214,40.077L75.364,40.077L75.439,40.077L75.519,40.077L75.589,40.077L75.663,40.077L75.814,40.077L75.889,40.077L75.968,40.077L76.039,40.077L76.113,40.077L76.263,40.077L76.339,40.077L76.418,40.077L76.489,40.077L76.563,40.077L76.713,40.077L76.788,40.077L76.867,40.077L76.939,40.077L77.012,40.077L77.163,40.077L77.238,40.077L77.317,40.077L77.388,40.077L77.462,40.077L77.612,40.077L77.687,40.077L77.767,40.077L77.837,40.077L77.912,40.077L78.062,40.077L78.137,40.077L78.215,40.077L78.287,40.077L78.361,40.077L78.512,40.077L78.587,40.077L78.666,40.077L78.737,40.077L78.811,40.077L78.961,40.077L79.037,40.077L79.116,40.077L79.261,40.077L79.412,40.077L79.486,40.077L79.566,40.077L79.637,40.077L79.711,40.077L79.862,40.077L79.936,40.077L80.015,40.077L80.086,40.077L80.16,40.077L80.31,40.077L80.386,40.077L80.465,40.077L80.536,40.077L80.61,40.077L80.76,40.077L80.835,40.077L80.914,40.077L80.985,40.077L81.06,40.077L81.21,40.077L81.284,40.077L81.363,40.077L81.435,40.077L81.509,40.077L81.659,40.077L81.735,40.077L81.814,40.077L81.885,40.077L81.959,40.077L82.109,40.077L82.184,40.077L82.263,40.077L82.335,40.077L82.409,40.077L82.559,40.077L82.634,40.077L82.713,40.077L82.785,40.077L82.858,40.077L83.009,40.077L83.084,40.077L83.163,40.077L83.234,40.077L83.308,40.077L83.459,40.077L83.533,40.077L83.612,40.077L83.683,40.077L83.757,40.077L83.908,40.077L83.983,40.077L84.061,40.077L84.133,40.077L84.207,40.077L84.357,40.077L84.432,40.077L84.511,40.077L84.582,40.077L84.657,40.077L84.807,40.077L84.883,40.077L84.961,40.077L85.033,40.077L85.106,40.077L85.257,40.077L85.332,40.077L85.412,40.077L85.483,40.077L85.556,40.077L85.707,40.077L85.782,40.077L85.861,40.077L85.932,40.077L86.006,40.077L86.156,40.077L86.231,40.077L86.311,40.077L86.381,40.077L86.456,40.077L86.606,40.077L86.681,40.077L86.76,40.077L86.831,40.077L86.905,40.077L87.055,40.077L87.13,40.077L87.209,40.077L87.28,40.077L87.355,40.077L87.506,40.077L87.581,40.077L87.664,40.077L87.734,40.077L87.804,40.077L87.955,40.077L88.03,40.077L88.11,40.077L88.181,40.077L88.254,40.077L88.405,40.077L88.48,40.077L88.558,40.077L88.631,40.077L88.704,40.077L88.854,40.077L88.93,40.077L89.009,40.077L89.08,40.077L89.154,40.077L89.304,40.077L89.379,40.077L89.459,40.077L89.529,40.077L89.603,40.077L89.754,40.077L89.829,40.077L89.908,40.077L89.979,40.077L90.053,40.077L90.204,40.077L90.278,40.077L90.357,40.077L90.428,40.077L90.503,40.077L90.653,40.077L90.728,40.077L90.807,40.077L90.879,40.077L90.952,40.077L91.103,40.077L91.179,40.077L91.257,40.077L91.328,40.077L91.402,40.077L91.552,40.077L91.628,40.077L91.707,40.077L91.778,40.077L91.852,40.077L92.002,40.077L92.077,40.077L92.157,40.077L92.228,40.077L92.301,40.077L92.452,40.077L92.527,40.077L92.606,40.077L92.677,40.077L92.751,40.077L92.902,40.077L92.976,40.077L93.055,40.077L93.128,40.077L93.201,40.077L93.351,40.077L93.426,40.077L93.505,40.077L93.576,40.077L93.651,40.077L93.8,40.077L93.875,40.077L93.954,40.077L94.026,40.077L94.1,40.077L94.25,40.077L94.326,40.077L94.405,40.077L94.476,40.077L94.55,40.077L94.7,40.077L94.775,40.077L94.855,40.077L94.926,40.077L94.999,40.077L95.149,40.077L95.224,40.077L95.305,40.077L95.375,40.077L95.449,40.077L95.599,40.077L95.675,40.077L95.754,40.077L95.825,40.077L95.899,40.077L96.049,40.077L96.124,40.077L96.203,40.077L96.275,40.077L96.348,40.077L96.499,40.077L96.574,40.077L96.652,40.077L96.724,40.077L96.798,40.077L96.949,40.077L97.023,40.077L97.102,40.077L97.173,40.077L97.248,40.077L97.398,40.077L97.474,40.077L97.553,40.077L97.624,40.077L97.698,40.077L97.848,40.077L97.923,40.077L98.002,40.077L98.073,40.077L98.147,40.077L98.298,40.077L98.373,40.077L98.452,40.077L98.524,40.077L98.597,40.077L98.748,40.077L98.822,40.077L98.902,40.077L98.973,40.077L99.047,40.077L99.197,40.077L99.272,40.077L99.352,40.077L99.422,40.077L99.496,40.077L99.647,40.077L99.721,40.077L99.8,40.077L99.873,40.077L99.946,40.077L100.096,40.077L100.171,40.077L100.25,40.077L100.321,40.077L100.396,40.077L100.546,40.077L100.621,40.077L100.701,40.077L100.772,40.077L100.845,40.077L100.996,40.077L101.071,40.077L101.15,40.077L101.222,40.077L101.295,40.077L101.445,40.077L101.521,40.077L101.6,40.077L101.671,40.077L101.744,40.077L101.895,40.077L101.97,40.077L102.049,40.077L102.12,40.077L102.194,40.077L102.345,40.077L102.42,40.077L102.499,40.077L102.571,40.077L102.644,40.077L102.794,40.077L102.869,40.077L102.948,40.077L103.02,40.077L103.094,40.077L103.244,40.077L103.319,40.077L103.398,40.077L103.469,40.077L103.543,40.077L103.694,40.077L103.769,40.077L103.848,40.077L103.919,40.077L103.993,40.077L104.144,40.077L104.219,40.077L104.298,40.077L104.369,40.077L104.443,40.077L104.593,40.077L104.668,40.077L104.746,40.077L104.819,40.077L104.893,40.077L105.043,40.077L105.118,40.077L105.197,40.077L105.269,40.077L105.342,40.077L105.492,40.077L105.568,40.077L105.647,40.077L105.718,40.077L105.791,40.077L105.942,40.077L106.017,40.077L106.096,40.077L106.167,40.077L106.241,40.077L106.392,40.077L106.467,40.077L106.546,40.077L106.617,40.077L106.691,40.077L106.842,40.077L106.917,40.077L106.996,40.077L107.067,40.077L107.141,40.077L107.291,40.077L107.366,40.077L107.446,40.077L107.517,40.077L107.59,40.077L107.741,40.077L107.816,40.077L107.896,40.077L107.967,40.077L108.04,40.077L108.191,40.077L108.266,40.077L108.346,40.077L108.416,40.077L108.49,40.077L108.641,40.077L108.716,40.077L108.795,40.077L108.866,40.077L108.94,40.077L109.09,40.077L109.165,40.077L109.244,40.077L109.316,40.077L109.389,40.077L109.54,40.077L109.615,40.077L109.695,40.077L109.765,40.077L109.839,40.077L109.99,40.077L110.065,40.077L110.145,40.077L110.215,40.077L110.289,40.077L110.439,40.077L110.515,40.077L110.594,40.077L110.665,40.077L110.738,40.077L110.889,40.077L110.964,40.077L111.044,40.077L111.114,40.077L111.188,40.077L111.339,40.077L111.414,40.077L111.494,40.077L111.564,40.077L111.638,40.077L111.788,40.077L111.863,40.077L111.943,40.077L112.014,40.077L112.087,40.077L112.238,40.077L112.312,40.077L112.392,40.077L112.463,40.077L112.537,40.077L112.687,40.077L112.762,40.077L112.842,40.077L112.913,40.077L112.987,40.077L113.137,40.077L113.213,40.077L113.293,40.077L113.363,40.077L113.436,40.077L113.587,40.077L113.662,40.077L113.742,40.077L113.812,40.077L113.886,40.077L114.037,40.077L114.112,40.077L114.192,40.077L114.262,40.077L114.335,40.077L114.487,40.077L114.562,40.077L114.641,40.077L114.712,40.077L114.785,40.077L114.936,40.077L115.011,40.077L115.091,40.077L115.161,40.077L115.235,40.077L115.386,40.077L115.461,40.077L115.54,40.077L115.611,40.077L115.685,40.077L115.835,40.077L115.91,40.077L115.99,40.077L116.061,40.077L116.134,40.077L116.286,40.077L116.361,40.077L116.441,40.077L116.511,40.077L116.584,40.077L116.734,40.077L116.81,40.077L116.89,40.077L116.96,40.077L117.034,40.077L117.185,40.077L117.26,40.077L117.339,40.077L117.41,40.077L117.484,40.077L117.634,40.077L117.709,40.077L117.789,40.077L117.86,40.077L117.933,40.077L118.084,40.077L118.159,40.077L118.239,40.077L118.309,40.077L118.383,40.077L118.533,40.077L118.608,40.077L118.688,40.077L118.759,40.077L118.832,40.077L118.984,40.077L119.058,40.077L119.137,40.077L119.208,40.077L119.282,40.077L119.433,40.077L119.509,40.077L119.588,40.077L119.658,40.077L119.732,40.077L119.883,40.077L119.958,40.077L120.038,40.077L120.108,40.077L120.182,40.077L120.332,40.077L120.408,40.077L120.488,40.077L120.559,40.077L120.631,40.077L120.782,40.077L120.858,40.077L120.938,40.077L121.008,40.077L121.081,40.077L121.232,40.077L121.307,40.077L121.387,40.077L121.457,40.077L121.681,40.077L121.756,40.077L121.836,40.077L121.906,40.077L121.98,40.077L122.131,40.077L122.206,40.077L122.285,40.077L122.356,40.077L122.43,40.077L122.581,40.077L122.657,40.077L122.737,40.077L122.807,40.077L122.88,40.077L123.031,40.077L123.106,40.077L123.186,40.077L123.256,40.077L123.329,40.077L123.48,40.077L123.556,40.077L123.635,40.077L123.706,40.077L123.78,40.077L123.93,40.077L124.005,50.077L124.085,50.077L124.156,50.077L124.229,50.077L124.379,50.077L124.455,50.077L124.535,50.077L124.605,50.077L124.678,50.077L124.829,50.077L124.904,50.077L124.983,50.077L125.054,50.077L125.128,50.077L125.279,50.077L125.354,50.077L125.433,50.077L125.504,50.077L125.577,50.077L125.729,50.077L125.804,50.077L125.884,50.077L125.954,50.077L126.028,50.077L126.178,50.077L126.254,30.846L126.333,30.846L126.404,30.846L126.477,30.846L126.628,30.846L126.703,30.846L126.783,50.077L126.853,50.077L126.927,50.077L127.077,50.077L127.153,50.077L127.233,50.077L127.303,50.077L127.377,50.077L127.527,50.077L127.602,50.077L127.682,50.077L127.752,50.077L127.827,50.077L127.977,50.077L128.052,50.077L128.131,50.077L128.202,50.077L128.276,50.077L128.427,50.077L128.501,50.077L128.581,50.077L128.651,50.077L128.725,50.077L128.876,50.077L128.952,50.077L129.032,50.077L129.102,50.077L129.175,50.077L129.326,50.077L129.401,50.077L129.481,50.077L129.552,50.077L129.625,50.077L129.776,50.077L129.851,50.077L129.931,50.077L130.001,50.077L130.075,50.077L130.226,50.077L130.301,50.077L130.381,50.077L130.451,50.077L130.524,50.077L130.675,50.077L130.75,50.077L130.83,50.077L130.901,50.077L130.974,50.077L131.124,50.077L131.199,50.077L131.279,50.077L131.35,50.077L131.424,50.077L131.574,50.077L131.649,50.077L131.729,50.077L131.799,50.077L131.873,50.077L132.024,50.077L132.099,50.077L132.179,50.077L132.25,50.077L132.323,50.077L132.474,50.077L132.549,50.077L132.629,50.077L132.699,50.077L132.772,50.077L132.923,50.077L132.999,50.077L133.079,50.077L133.149,50.077L133.223,50.077L133.373,50.077L133.448,50.077L133.528,50.077L133.599,50.077L133.672,50.077L133.823,50.077L133.898,50.077L133.978,50.077L134.048,50.077L134.122,50.077L134.272,50.077L134.347,50.077L134.426,50.077L134.497,50.077L134.571,50.077L134.722,50.077L134.797,50.077L134.876,50.077L134.947,50.077L135.021,50.077L135.172,50.077L135.247,50.077L135.327,50.077L135.398,50.077L135.471,50.077L135.621,50.077L135.697,50.077L135.777,50.077L135.847,50.077L135.92,50.077L136.071,50.077L136.147,50.077L136.227,50.077L136.297,50.077L136.37,50.077L136.676,50.077L136.746,50.077L136.82,50.077L136.97,50.077L137.045,50.077L137.125,50.077L137.196,50.077L137.269,50.077L137.42,50.077L137.495,50.077L137.574,50.077L137.646,50.077L137.719,50.077L137.869,50.077L137.944,50.077L138.024,50.077L138.094,50.077L138.168,50.077L138.319,50.077L138.395,50.077L138.475,50.077L138.545,50.077L138.618,50.077L138.769,50.077L138.844,50.077L138.924,50.077L138.994,50.077L139.068,50.077L139.219,50.077L139.294,50.077L139.374,50.077L139.444,50.077L139.517,50.077L139.668,50.077L139.744,50.077L139.823,50.077L139.894,50.077L139.967,50.077L140.118,50.077L140.193,50.077L140.273,50.077L140.343,50.077L140.417,50.077L140.567,50.077L140.642,50.077L140.721,50.077L140.793,50.077L140.866,50.077L141.017,50.077L141.092,50.077L141.171,50.077L141.242,50.077L141.316,50.077L141.467,50.077L141.542,50.077L141.622,50.077L141.692,50.077L141.766,50.077L141.916,50.077L141.992,50.077L142.072,50.077L142.142,50.077L142.216,50.077L142.366,50.077L142.442,50.077L142.522,58.538L142.592,58.538L142.665,58.538L142.816,58.538L142.892,58.538L142.972,58.538L143.042,58.538L143.115,58.538L143.266,58.538L143.341,58.538L143.421,58.538L143.492,58.538L143.565,58.538L143.716,58.538L143.79,58.538L143.87,58.538L143.941,58.538L144.014,58.538L144.165,58.538L144.24,58.538L144.32,58.538L144.39,58.538L144.464,58.538L144.616,58.538L144.691,58.538L144.771,58.538L144.841,58.538L144.914,58.538L145.065,58.538L145.14,58.538L145.22,58.538L145.291,58.538L145.364,58.538L145.514,58.538L145.59,58.538L145.67,58.538L145.74,58.538L145.813,58.538L145.964,46.231L146.04,46.231L146.12,58.538L146.19,58.538L146.263,58.538L146.414,58.538L146.489,58.538L146.569,46.231L146.64,46.231L146.713,46.231L146.863,46.231L146.938,46.231L147.018,46.231L147.089,46.231L147.162,46.231L147.313,46.231L147.388,46.231L147.468,46.231L147.538,46.231L147.612,46.231L147.763,46.231L147.839,46.231L147.919,46.231L147.989,46.231L148.062,46.231L148.213,46.231L148.288,46.231L148.369,46.231L148.439,46.231L148.512,46.231L148.663,46.231L148.738,46.231L148.818,58.538L148.888,58.538L148.961,58.538L149.112,58.538L149.188,58.538L149.268,58.538L149.338,58.538L149.411,58.538L149.562,58.538L149.637,58.538L149.717,58.538L149.787,58.538L149.86,58.538L150.011,58.538L150.086,58.538L150.166,58.538L150.236,58.538L150.31,58.538L150.461,58.538L150.536,58.538L150.616,58.538L150.686,58.538L150.76,58.538L150.911,58.538L150.987,58.538L151.067,58.538L151.137,58.538L151.21,58.538L151.361,30.846L151.436,30.846L151.516,58.538L151.587,58.538L151.659,58.538L151.81,58.538L151.886,58.538L151.966,58.538L152.036,58.538L152.109,58.538L152.26,30.846L152.336,30.846L152.416,46.231L152.486,46.231L152.559,46.231L152.71,30.846L152.785,30.846L152.865,46.231L152.935,46.231L153.008,46.231L153.159,46.231L153.234,46.231L153.314,46.231L153.384,46.231L153.458,46.231L153.609,46.231L153.684,46.231L153.764,46.231L153.833,46.231L153.908,46.231L154.059,46.231L154.135,46.231L154.215,46.231L154.285,46.231L154.358,46.231L154.508,46.231L154.584,46.231L154.664,46.231L154.734,46.231L154.807,46.231L154.958,46.231L155.034,46.231L155.114,46.231L155.184,46.231L155.257,46.231L155.408,46.231L155.483,46.231L155.564,46.231L155.634,46.231L155.707,46.231L155.857,46.231L155.933,46.231L156.013,46.231L156.083,46.231L156.156,46.231L156.306,46.231L156.382,46.231L156.461,46.231L156.531,46.231L156.605,46.231L156.756,46.231L156.831,46.231L156.911,46.231L156.981,46.231L157.055,46.231L157.206,46.231L157.282,46.231L157.362,46.231L157.432,46.231L157.505,46.231L157.656,46.231L157.732,46.231L157.812,46.231L157.882,46.231L157.955,46.231L158.105,46.231L158.181,46.231L158.261,46.231L158.331,46.231L158.404,46.231L158.555,46.231L158.63,46.231L158.711,46.231L158.78,46.231L158.854,46.231L159.004,46.231L159.079,46.231L159.159,46.231L159.229,46.231L159.303,46.231L159.453,46.231L159.529,46.231L159.608,46.231L159.678,46.231L159.752,46.231L159.903,46.231L159.978,46.231L160.057,46.231L160.128,46.231L160.202,46.231L160.353,46.231L160.429,46.231L160.508,46.231L160.578,46.231L160.652,46.231L160.803,46.231L160.878,46.231L160.958,46.231L161.028,46.231L161.102,46.231L161.252,46.231L161.328,46.231L161.407,46.231L161.478,46.231L161.551,46.231L161.702,46.231L161.777,46.231L161.857,46.231L161.927,46.231L162.001,46.231L162.152,46.231L162.227,46.231L162.307,46.231L162.377,46.231L162.45,46.231L162.601,46.231L162.676,46.231L162.756,46.231L162.826,46.231L162.9,46.231L163.051,46.231L163.126,46.231L163.205,46.231L163.276,46.231L163.35,46.231L163.501,46.231L163.576,46.231L163.656,46.231L163.726,46.231L163.8,46.231L163.95,46.231L164.026,46.231L164.105,46.231L164.176,46.231L164.249,46.231L164.4,46.231L164.476,46.231L164.555,46.231L164.625,46.231L164.699,46.231L164.85,46.231L164.925,46.231L165.005,46.231L165.075,46.231L165.149,46.231L165.299,46.231L165.375,46.231L165.455,46.231L165.525,46.231L165.598,46.231L165.749,46.231L165.824,46.231L165.904,46.231L165.974,46.231L166.048,46.231L166.199,46.231L166.274,46.231L166.353,46.231L166.424,46.231L166.497,46.231L166.649,46.231L166.724,46.231L166.804,46.231L166.874,46.231L166.947,46.231L167.098,46.231L167.174,46.231L167.254,46.231L167.327,46.231L167.397,46.231L167.548,46.231L167.623,46.231L167.703,46.231L167.774,46.231L167.847,46.231L167.998,46.231L168.073,46.231L168.153,46.231L168.223,46.231L168.297,46.231L168.447,46.231L168.523,46.231L168.602,46.231L168.673,46.231L168.746,46.231L168.897,46.231L168.972,46.231L169.051,46.231L169.122,46.231L169.195,46.231L169.346,46.231L169.421,46.231L169.501,46.231L169.571,46.231L169.645,46.231L169.797,46.231L169.872,46.231L169.952,46.231L170.022,46.231L170.095,46.231L170.245,46.231L170.321,46.231L170.401,46.231L170.471,46.231L170.545,46.231L170.695,46.231L170.771,46.231L170.85,46.231L170.921,46.231L170.994,46.231L171.145,46.231L171.22,46.231L171.3,46.231L171.444,46.231L171.595,46.231L171.67,46.231L171.749,46.231L171.82,46.231L172.119,34.692L172.198,46.231L172.269,46.231L172.343,46.231L172.494,46.231L172.568,46.231L172.648,46.231L172.719,46.231L172.793,46.231L172.944,46.231L173.019,46.231L173.099,46.231L173.169,46.231L173.242,46.231L173.393,46.231L173.469,46.231L173.549,46.231L173.619,46.231L173.692,46.231L173.843,46.231L173.919,46.231L173.998,46.231L174.069,46.231L174.142,46.231L174.293,46.231L174.368,46.231L174.448,46.231L174.518,46.231L174.592,46.231L174.742,46.231L174.818,46.231L174.897,46.231L174.968,46.231L175.041,46.231L175.192,46.231L175.267,46.231L175.346,46.231L175.417,46.231L175.491,46.231L175.641,46.231L175.716,46.231L175.795,46.231L175.866,46.231L175.94,46.231L176.092,46.231L176.167,46.231L176.247,23.154L176.317,23.154L176.39,23.154L176.541,23.154L176.616,23.154L176.696,30.846L176.767,30.846L176.84,30.846L176.991,30.846L177.066,30.846L177.146,30.846L177.216,30.846L177.29,30.846L177.441,30.846L177.515,30.846L177.595,30.846L177.668,30.846L177.74,30.846L177.89,30.846L177.965,30.846L178.045,30.846L178.116,30.846L178.189,30.846L178.34,30.846L178.414,30.846L178.493,30.846L178.564,30.846L178.639,30.846L178.789,30.846L178.864,30.846L178.943,30.846L179.014,30.846L179.088,30.846L179.239,30.846L179.314,30.846L179.394,30.846L179.465,30.846L179.538,30.846L179.689,30.846L179.764,30.846L179.844,30.846L179.915,30.846L179.988,30.846L180.139,30.846L180.214,30.846L180.294,30.846L180.365,30.846L180.438,30.846L180.589,30.846L180.664,30.846L180.744,30.846L180.814,30.846L180.887,30.846L181.038,30.846L181.113,30.846L181.193,30.846L181.264,30.846L181.337,30.846L181.487,30.846L181.563,30.846L181.641,30.846L181.712,30.846L181.786,30.846L181.937,30.846L182.012,30.846L182.091,30.846L182.162,30.846L182.236,30.846L182.387,30.846L182.462,30.846L182.542,30.846L182.612,30.846L182.686,30.846L182.837,30.846L182.912,30.846L182.992,30.846L183.063,30.846L183.136,30.846L183.287,30.846L183.362,30.846L183.442,30.846L183.512,30.846L183.585,30.846L183.811,30.846L183.891,30.846L183.962,30.846L184.037,30.846L184.186,30.846L184.261,30.846L184.341,30.846L184.411,30.846L184.485,30.846L184.636,30.846L184.71,30.846L184.789,30.846L184.86,30.846L184.934,30.846L185.085,30.846L185.16,30.846L185.239,30.846L185.31,30.846L185.384,30.846L185.535,30.846L185.61,30.846L185.69,30.846L185.76,30.846L185.834,30.846L185.984,30.846L186.06,30.846L186.139,30.846L186.21,30.846L186.284,30.846L186.435,30.846L186.51,30.846L186.589,30.846L186.66,30.846L186.733,30.846L186.884,30.846L186.959,30.846L187.039,30.846L187.11,30.846L187.183,30.846L187.334,30.846L187.409,30.846L187.489,30.846L187.558,30.846L187.632,30.846L187.783,30.846L187.858,30.846L187.937,30.846L188.008,30.846L188.082,30.846L188.233,30.846L188.307,30.846L188.387,30.846L188.457,30.846L188.532,30.846L188.682,30.846L188.758,30.846L188.838,30.846L188.909,30.846L188.982,30.846L189.132,30.846L189.208,30.846L189.288,30.846L189.358,30.846L189.431,30.846L189.583,30.846L189.658,30.846L189.737,30.846L189.808,30.846L189.881,30.846L190.032,30.846L190.107,30.846L190.187,30.846L190.258,30.846L190.331,30.846L190.481,30.846L190.557,30.846L190.637,30.846L190.707,30.846L190.781,30.846L190.931,30.846L191.006,30.846L191.085,30.846L191.156,30.846L191.23,30.846L191.38,30.846L191.455,30.846L191.535,30.846L191.605,30.846L191.679,30.846L191.831,30.846L191.906,30.846L191.986,30.846L192.056,30.846L192.13,30.846L192.28,30.846L192.356,30.846L192.436,30.846L192.506,30.846L192.579,30.846L192.73,30.846L192.806,30.846L192.885,30.846L192.957,30.846L193.029,30.846L193.18,30.846L193.255,30.846L193.335,30.846L193.405,30.846L193.479,30.846L193.629,30.846L193.705,30.846L193.785,30.846L193.855,30.846L193.927,30.846L194.077,30.846L194.152,30.846L194.23,30.846L194.302,30.846L194.377,30.846L194.527,30.846L194.602,30.846L194.68,30.846L194.752,30.846L194.827,30.846L194.977,30.846L195.052,30.846L195.134,30.846L195.204,30.846L195.277,30.846L195.428,30.846L195.504,30.846L195.584,34.692L195.654,34.692L195.727,34.692L195.878,34.692L195.953,34.692L196.033,34.692L196.104,34.692L196.177,34.692L196.328,23.154L196.403,23.154L196.483,23.154L196.554,23.154L196.626,23.154L196.777,23.154L196.852,23.154L196.932,23.154L197.002,23.154L197.076,23.154L197.226,23.154L197.301,23.154L197.381,34.692L197.451,34.692L197.525,34.692L197.676,34.692L197.751,34.692L197.831,34.692L197.902,34.692L197.975,34.692L198.126,34.692L198.202,34.692L198.282,23.154L198.352,23.154L198.425,23.154L198.576,23.154L198.652,23.154L198.732,23.154L198.802,23.154L198.875,23.154L199.026,23.154L199.101,23.154L199.181,23.154L199.251,23.154L199.324,23.154L199.475,23.154L199.55,23.154L199.631,23.154L199.701,23.154L199.774,23.154L199.925,23.154L200,23.154" stroke="#f58518" stroke-width="2"/></g></g><path class="foreground" aria-hidden="true" d="" display="none"/></g></g><g class="mark-group role-legend" role="graphics-symbol" aria-roledescription="legend" aria-label="Symbol legend titled 'identifier' for stroke color with 2 values: altex-LG-F2WR508SBW, altex-LG-F2WR508SBM"><g transform="translate(220,0)"><path class="background" aria-hidden="true" d="M0,0h168v40h-168Z" pointer-events="none"/><g><g class="mark-group role-legend-entry"><g transform="translate(0,16)"><path class="background" aria-hidden="true" d="M0,0h0v0h0Z" pointer-events="none"/><g><g class="mark-group role-scope" role="graphics-object" aria-roledescription="group mark container"><g transform="translate(0,0)"><path class="background" aria-hidden="true" d="M0,0h168v11h-168Z" pointer-events="none" opacity="1"/><g><g class="mark-symbol role-legend-symbol" pointer-events="none"><path transform="translate(6,6)" d="M-5,0L5,0" stroke="#4c78a8" stroke-width="1.5" opacity="1"/></g><g class="mark-text role-legend-label" pointer-events="none"><text text-anchor="start" transform="translate(16,9)" font-family="Liberation Mono" font-size="10px" fill="#000" opacity="1">altex-LG-F2WR508SBW</text></g></g><path class="foreground" aria-hidden="true" d="" pointer-events="none" display="none"/></g><g transform="translate(0,13)"><path class="background" aria-hidden="true" d="M0,0h168v11h-168Z" pointer-events="none" opacity="1"/><g><g class="mark-symbol role-legend-symbol" pointer-events="none"><path transform="translate(6,6)" d="M-5,0L5,0" stroke="#f58518" stroke-width="1.5" opacity="1"/></g><g class="mark-text role-legend-label" pointer-events="none"><text text-anchor="start" transform="translate(16,9)" font-family="Liberation Mono" font-size="10px" fill="#000" opacity="1">altex-LG-F2WR508SBM</text></g></g><path class="foreground" aria-hidden="true" d="" pointer-events="none" display="none"/></g></g></g><path class="foreground" aria-hidden="true" d="" pointer-events="none" display="none"/></g></g><g class="mark-text role-legend-title" pointer-events="none"><text text-anchor="start" transform="translate(0,9)" font-family="Liberation Mono" font-size="11px" font-weight="bold" fill="#000" opacity="1">identifier</text></g></g><path class="foreground" aria-hidden="true" d="" pointer-events="none" display="none"/></g></g></g><path class="foreground" aria-hidden="true" d="" display="none"/></g></g></g></svg>