<svg xmlns="http://www.w3.org/2000/svg" xmlns:xlink="http://www.w3.org/1999/xlink" version="1.1" class="marks" width="460" height="242" viewBox="0 0 460 242"><rect width="460" height="242" fill="white"/><g fill="none" stroke-miterlimit="10" transform="translate(67,5)"><g class="mark-group role-frame root" role="graphics-object" aria-roledescription="group mark container"><g transform="translate(0,0)"><path class="background" aria-hidden="true" d="M0.5,0.5h200v200h-200Z" stroke="#ddd"/><g><g class="mark-group role-axis" aria-hidden="true"><g transform="translate(0.5,200.5)"><path class="background" aria-hidden="true" d="M0,0h0v0h0Z" pointer-events="none"/><g><g class="mark-rule role-axis-grid" pointer-events="none"><line transform="translate(67,-200)" x2="0" y2="200" stroke="#ddd" stroke-width="1" opacity="1"/><line transform="translate(135,-200)" x2="0" y2="200" stroke="#ddd" stroke-width="1" opacity="1"/></g></g><path class="foreground" aria-hidden="true" d="" pointer-events="none" display="none"/></g></g><g class="mark-group role-axis" aria-hidden="true"><g transform="translate(0.5,0.5)"><path class="background" aria-hidden="true" d="M0,0h0v0h0Z" pointer-events="none"/><g><g class="mark-rule role-axis-grid" pointer-events="none"><line transform="translate(0,200)" x2="200" y2="0" stroke="#ddd" stroke-width="1" opacity="1"/><line transform="translate(0,162)" x2="200" y2="0" stroke="#ddd" stroke-width="1" opacity="1"/><line transform="translate(0,123)" x2="200" y2="0" stroke="#ddd" stroke-width="1" opacity="1"/><line transform="translate(0,85)" x2="200" y2="0" stroke="#ddd" stroke-width="1" opacity="1"/><line transform="translate(0,46)" x2="200" y2="0" stroke="#ddd" stroke-width="1" opacity="1"/><line transform="translate(0,8)" x2="200" y2="0" stroke="#ddd" stroke-width="1" opacity="1"/></g></g><path class="foreground" aria-hidden="true" d="" pointer-events="none" display="none"/></g></g><g class="mark-group role-axis" role="graphics-symbol" aria-roledescription="axis" aria-label="X-axis titled 'Time' for a time scale with values from Monday, 01 January 2024, 2:19:43 PM to Thursday, 26 September 2024, 4:45:49 PM"><g transform="translate(0.5,200.5)"><path class="background" aria-hidden="true" d="M0,0h0v0h0Z" pointer-events="none"/><g><g class="mark-rule role-axis-tick" pointer-events="none"><line transform="translate(67,0)" x2="0" y2="5" stroke="#888" stroke-width="1" opacity="1"/><line transform="translate(135,0)" x2="0" y2="5" stroke="#888" stroke-width="1" opacity="1"/></g><g class="mark-text role-axis-label" pointer-events="none"><text text-anchor="middle" transform="translate(67.18876318545833,15)" font-family="Liberation Mono" font-size="10px" fill="#000" opacity="1">April</text><text text-anchor="middle" transform="translate(134.82124513776185,15)" font-family="Liberation Mono" font-size="10px" fill="#000" opacity="1">July</text></g><g class="mark-rule role-axis-domain" pointer-events="none"><line transform="translate(0,0)" x2="200" y2="0" stroke="#888" stroke-width="1" opacity="1"/></g><g class="mark-text role-axis-title" pointer-events="none"><text text-anchor="middle" transform="translate(100,30)" font-family="Liberation Mono" font-size="11px" font-weight="bold" fill="#000" opacity="1">Time</text></g></g><path class="foreground" aria-hidden="true" d="" pointer-events="none" display="none"/></g></g><g class="mark-group role-axis" role="graphics-symbol" aria-roledescription="axis" aria-label="Y-axis titled 'Price' for a linear scale with values from 0 to 2,600"><g transform="translate(0.5,0.5)"><path class="background" aria-hidden="true" d="M0,0h0v0h0Z" pointer-events="none"/><g><g class="mark-rule role-axis-tick" pointer-events="none"><line transform="translate(0,200)" x2="-5" y2="0" stroke="#888" stroke-width="1" opacity="1"/><line transform="translate(0,162)" x2="-5" y2="0" stroke="#888" stroke-width="1" opacity="1"/><line transform="translate(0,123)" x2="-5" y2="0" stroke="#888" stroke-width="1" opacity="1"/><line transform="translate(0,85)" x2="-5" y2="0" stroke="#888" stroke-width="1" opacity="1"/><line transform="translate(0,46)" x2="-5" y2="0" stroke="#888" stroke-width="1" opacity="1"/><line transform="translate(0,8)" x2="-5" y2="0" stroke="#888" stroke-width="1" opacity="1"/></g><g class="mark-text role-axis-label" pointer-events="none"><text text-anchor="end" transform="translate(-7,203)" font-family="Liberation Mono" font-size="10px" fill="#000" opacity="1">0</text><text text-anchor="end" transform="translate(-7,164.53846153846155)" font-family="Liberation Mono" font-size="10px" fill="#000" opacity="1">500</text><text text-anchor="end" transform="translate(-7,126.07692307692308)" font-family="Liberation Mono" font-size="10px" fill="#000" opacity="1">1,000</text><text text-anchor="end" transform="translate(-7,87.61538461538463)" font-family="Liberation Mono" font-size="10px" fill="#000" opacity="1">1,500</text><text text-anchor="end" transform="translate(-7,49.153846153846146)" font-family="Liberation Mono" font-size="10px" fill="#000" opacity="1">2,000</text><text text-anchor="end" transform="translate(-7,10.692307692307686)" font-family="Liberation Mono" font-size="10px" fill="#000" opacity="1">2,500</text></g><g class="mark-rule role-axis-domain" pointer-events="none"><line transform="translate(0,200)" x2="0" y2="-200" stroke="#888" stroke-width="1" opacity="1"/></g><g class="mark-text role-axis-title" pointer-events="none"><text text-anchor="middle" transform="translate(-51,100) rotate(-90) translate(0,-2)" font-family="Liberation Mono" font-size="11px" font-weight="bold" fill="#000" opacity="1">Price</text></g></g><path class="foreground" aria-hidden="true" d="" pointer-events="none" display="none"/></g></g><g class="mark-group role-scope pathgroup" role="graphics-object" aria-roledescription="group mark container"><g transform="translate(0,0)"><path class="background" aria-hidden="true" d="M0,0h200v200h-200Z"/><g><g class="mark-line role-mark marks" role="graphics-object" aria-roledescription="line mark container"><path aria-label="Time: Jan 01, 2024; Price: 2399; identifier: altex-LG-F2WR508SBW" role="graphics-symbol" aria-roledescription="line mark" d="M0,15.462L0.078,15.462L0.196,15.462L0.443,15.462L0.567,15.462L0.697,15.462L0.816,15.462L0.939,15.462L1.187,15.462L1.31,15.462L1.441,15.462L1.559,15.462L1.682,15.462L1.93,15.462L2.054,15.462L2.184,15.462L2.303,15.462L2.425,15.462L2.673,34.692L2.797,34.692L2.927,34.692L3.046,34.692L3.168,34.692L3.416,34.692L3.54,34.692L3.67,34.692L3.789,34.692L3.911,34.692L4.16,34.692L4.283,34.692L4.413,34.692L4.532,34.692L4.655,34.692L4.903,34.692L5.027,34.692L5.158,34.692L5.276,34.692L5.398,34.692L5.647,34.692L5.77,34.692L5.902,34.692L6.02,34.692L6.141,34.692L6.39,34.692L6.514,34.692L6.644,34.692L6.762,34.692L6.884,34.692L7.133,34.692L7.257,34.692L7.387,34.692L7.506,34.692L7.628,34.692L7.876,34.692L8,34.692L8.13,34.692L8.249,34.692L8.371,34.692L8.619,46.231L8.742,46.231L8.872,46.231L8.991,46.231L9.114,46.231L9.362,46.231L9.486,46.231L9.615,46.231L9.734,46.231L9.857,46.231L10.106,46.231L10.23,46.231L10.361,46.231L10.479,46.231L10.6,46.231L10.849,46.231L10.973,46.231L11.104,46.231L11.222,46.231L11.344,46.231L11.592,46.231L11.716,46.231L11.847,46.231L11.965,46.231L12.087,46.231L12.335,46.231L12.459,46.231L12.59,46.231L12.708,46.231L12.83,46.231L13.078,46.231L13.202,46.231L13.333,46.231L13.452,46.231L13.573,46.231L13.822,46.231L13.945,46.231L14.075,46.231L14.194,46.231L14.317,46.231L14.564,46.231L14.688,46.231L14.818,46.231L14.937,46.231L15.06,46.231L15.309,46.231L15.433,46.231L15.563,46.231L15.681,46.231L15.803,46.231L16.051,46.231L16.176,46.231L16.306,46.231L16.425,46.231L16.546,46.231L16.795,46.231L16.919,46.231L17.05,46.231L17.168,46.231L17.289,46.231L17.538,46.231L17.662,46.231L17.793,46.231L17.912,46.231L18.033,46.231L18.281,46.231L18.405,46.231L18.533,46.231L18.652,46.231L18.776,46.231L19.023,46.231L19.148,46.231L19.275,46.231L19.395,46.231L19.519,46.231L19.767,46.231L19.891,46.231L20.018,46.231L20.138,46.231L20.262,46.231L20.51,46.231L20.634,46.231L20.763,46.231L20.882,46.231L21.006,46.231L21.253,46.231L21.377,46.231L21.506,46.231L21.626,46.231L21.749,46.231L21.996,46.231L22.12,46.231L22.249,46.231L22.368,46.231L22.492,46.231L22.739,34.692L22.863,34.692L22.992,34.692L23.111,34.692L23.235,34.692L23.483,34.692L23.607,34.692L23.735,34.692L23.854,34.692L23.978,34.692L24.226,34.692L24.35,34.692L24.478,34.692L24.598,34.692L24.722,34.692L24.97,34.692L25.093,34.692L25.221,34.692L25.341,34.692L25.465,34.692L25.712,34.692L25.837,34.692L25.966,34.692L26.084,34.692L26.208,34.692L26.456,34.692L26.579,34.692L26.709,34.692L26.827,34.692L26.951,34.692L27.199,34.692L27.323,34.692L27.451,34.692L27.571,34.692L27.694,34.692L27.942,34.692L28.066,34.692L28.195,34.692L28.314,34.692L28.437,34.692L28.685,34.692L28.809,34.692L28.937,34.692L29.057,34.692L29.181,34.692L29.428,34.692L29.552,34.692L29.68,34.692L29.8,34.692L29.924,34.692L30.172,34.692L30.296,34.692L30.423,34.692L30.543,34.692L30.667,34.692L30.915,34.692L31.039,34.692L31.168,34.692L31.287,34.692L31.41,34.692L31.658,34.692L31.782,34.692L31.911,34.692L32.032,34.692L32.154,34.692L32.401,34.692L32.525,34.692L32.654,34.692L32.773,34.692L32.897,34.692L33.268,34.692L33.397,34.692L33.516,34.692L33.64,34.692L33.888,34.692L34.012,34.692L34.141,34.692L34.26,34.692L34.383,34.692L34.631,34.692L34.755,34.692L34.883,34.692L35.003,34.692L35.126,34.692L35.374,34.692L35.499,34.692L35.626,34.692L35.746,34.692L35.87,34.692L36.117,34.692L36.242,34.692L36.371,34.692L36.491,34.692L36.613,34.692L36.861,34.692L36.985,34.692L37.113,34.692L37.233,34.692L37.356,34.692L37.604,34.692L37.728,34.692L37.857,34.692L37.976,34.692L38.1,34.692L38.347,34.692L38.471,34.692L38.6,34.692L38.719,34.692L38.843,34.692L39.09,34.692L39.214,34.692L39.343,34.692L39.462,34.692L39.586,34.692L39.834,34.692L39.957,34.692L40.085,34.692L40.205,34.692L40.329,34.692L40.577,34.692L40.701,34.692L40.828,34.692L40.949,34.692L41.072,34.692L41.32,34.692L41.444,34.692L41.573,34.692L41.692,34.692L41.815,34.692L42.063,34.692L42.187,34.692L42.316,34.692L42.435,34.692L42.559,34.692L42.806,34.692L42.93,34.692L43.059,34.692L43.179,34.692L43.302,34.692L43.55,34.692L43.673,34.692L43.802,34.692L43.921,34.692L44.045,34.692L44.293,34.692L44.417,34.692L44.546,34.692L44.665,34.692L44.788,34.692L45.036,34.692L45.16,34.692L45.288,34.692L45.408,34.692L45.532,34.692L45.779,34.692L45.903,34.692L46.031,34.692L46.151,34.692L46.275,34.692L46.534,34.692L46.703,34.692L46.777,34.692L46.895,34.692L47.018,34.692L47.265,34.692L47.389,34.692L47.519,34.692L47.637,34.692L47.761,34.692L48.009,34.692L48.134,34.692L48.262,34.692L48.381,34.692L48.504,34.692L48.752,34.692L48.876,34.692L49.005,34.692L49.124,34.692L49.248,34.692L49.495,34.692L49.621,34.692L49.748,34.692L49.867,34.692L49.991,34.692L50.239,34.692L50.362,34.692L50.49,34.692L50.611,34.692L50.734,34.692L50.982,34.692L51.106,34.692L51.233,34.692L51.354,34.692L51.477,34.692L51.725,34.692L51.849,34.692L51.978,34.692L52.097,34.692L52.221,34.692L52.468,34.692L52.592,34.692L52.721,34.692L52.841,34.692L52.963,34.692L53.212,34.692L53.336,34.692L53.465,34.692L53.583,34.692L53.707,34.692L53.955,34.692L54.079,34.692L54.208,34.692L54.327,34.692L54.45,34.692L54.698,34.692L54.822,34.692L54.95,34.692L55.07,34.692L55.193,34.692L55.441,34.692L55.565,34.692L55.693,34.692L55.813,34.692L55.937,34.692L56.184,34.692L56.309,34.692L56.436,34.692L56.556,34.692L56.68,34.692L56.927,34.692L57.051,34.692L57.181,34.692L57.3,34.692L57.424,34.692L57.671,34.692L57.795,34.692L57.923,34.692L58.044,34.692L58.166,34.692L58.414,34.692L58.538,34.692L58.667,34.692L58.787,34.692L58.91,34.692L59.157,34.692L59.281,34.692L59.41,34.692L59.53,34.692L59.653,34.692L59.9,34.692L60.024,34.692L60.153,34.692L60.272,34.692L60.396,34.692L60.644,34.692L60.767,34.692L60.896,34.692L61.015,34.692L61.139,34.692L61.387,34.692L61.511,34.692L61.64,34.692L61.758,34.692L61.882,34.692L62.13,34.692L62.254,34.692L62.383,34.692L62.502,34.692L62.625,34.692L62.873,34.692L62.998,34.692L63.126,34.692L63.246,34.692L63.369,34.692L63.617,34.692L63.741,34.692L63.87,34.692L63.99,34.692L64.112,34.692L64.359,34.692L64.483,34.692L64.613,34.692L64.732,34.692L64.855,34.692L65.103,34.692L65.227,34.692L65.356,34.692L65.475,34.692L65.598,34.692L65.846,34.692L65.97,34.692L66.098,34.692L66.218,34.692L66.342,34.692L66.589,34.692L66.714,34.692L66.842,34.692L66.961,34.692L67.085,34.692L67.332,34.692L67.457,34.692L67.586,34.692L67.706,34.692L67.828,34.692L68.076,34.692L68.2,34.692L68.329,34.692L68.449,34.692L68.571,34.692L68.819,34.692L68.943,34.692L69.072,34.692L69.192,34.692L69.314,34.692L69.562,34.692L69.686,34.692L69.815,34.692L69.934,34.692L70.058,34.692L70.306,34.692L70.558,34.692L70.678,34.692L70.801,34.692L71.049,34.692L71.173,34.692L71.3,34.692L71.42,34.692L71.544,34.692L71.792,34.692L71.916,34.692L72.044,34.692L72.163,34.692L72.287,34.692L72.535,34.692L72.659,34.692L72.788,34.692L72.908,34.692L73.03,34.692L73.278,34.692L73.402,34.692L73.531,34.692L73.651,34.692L73.774,34.692L74.021,34.692L74.146,34.692L74.275,34.692L74.395,34.692L74.518,34.692L74.765,34.692L74.89,34.692L75.018,34.692L75.26,34.692L75.508,34.692L75.632,34.692L75.761,34.692L75.879,34.692L76.003,34.692L76.251,34.692L76.375,34.692L76.501,34.692L76.622,34.692L76.746,34.692L77.006,34.692L77.196,34.692L77.312,34.692L77.553,34.692L77.739,34.692L77.861,34.692L77.989,34.692L78.109,34.692L78.233,34.692L78.481,34.692L78.605,34.692L78.734,34.692L78.852,34.692L78.976,34.692L79.224,34.692L79.348,34.692L79.478,34.692L79.597,34.692L79.72,34.692L80.091,34.692L80.22,34.692L80.339,34.692L80.463,34.692L80.71,34.692L80.834,34.692L80.963,34.692L81.083,34.692L81.206,34.692L81.454,34.692L81.577,34.692L81.706,34.692L81.825,34.692L81.949,34.692L82.197,34.692L82.321,34.692L82.449,34.692L82.568,34.692L82.692,34.692L82.94,34.692L83.064,34.692L83.194,34.692L83.312,34.692L83.435,34.692L83.683,34.692L83.807,34.692L83.937,34.692L84.056,34.692L84.179,34.692L84.426,34.692L84.551,34.692L84.684,34.692L84.799,34.692L84.922,34.692L85.17,34.692L85.294,34.692L85.42,34.692L85.542,34.692L85.665,34.692L85.913,34.692L86.037,34.692L86.166,34.692L86.285,34.692L86.409,34.692L86.656,34.692L86.78,34.692L86.908,34.692L87.027,34.692L87.151,34.692L87.399,34.692L87.523,34.692L87.652,34.692L87.771,34.692L87.895,34.692L88.142,34.692L88.268,34.692L88.397,34.692L88.515,34.692L88.638,34.692L88.886,34.692L89.01,34.692L89.14,34.692L89.258,34.692L89.381,34.692L89.629,34.692L89.755,34.692L89.883,34.692L90.001,34.692L90.124,34.692L90.373,57.769L90.496,57.769L90.627,57.769L90.744,57.769L90.868,57.769L91.116,57.769L91.239,57.769L91.369,57.769L91.488,57.769L91.611,57.769L91.859,57.769L91.982,57.769L92.111,57.769L92.23,57.769L92.354,57.769L92.602,57.769L92.726,57.769L92.855,57.769L92.974,57.769L93.097,57.769L93.345,57.769L93.47,57.769L93.599,57.769L93.718,57.769L93.84,57.769L94.088,57.769L94.213,57.769L94.342,57.769L94.461,57.769L94.584,57.769L94.831,57.769L94.956,57.769L95.087,57.769L95.205,57.769L95.327,57.769L95.575,34.692L95.7,34.692L95.829,34.692L95.949,34.692L96.07,34.692L96.318,34.692L96.442,34.692L96.573,34.692L96.69,34.692L96.813,34.692L97.061,34.692L97.185,34.692L97.314,34.692L97.433,34.692L97.556,34.692L97.805,34.692L97.928,34.692L98.058,34.692L98.176,34.692L98.3,34.692L98.548,34.692L98.672,34.692L98.802,34.692L98.92,34.692L99.043,34.692L99.29,34.692L99.415,34.692L99.546,34.692L99.664,34.692L99.786,34.692L100.034,34.692L100.158,34.692L100.289,34.692L100.407,34.692L100.53,34.692L100.777,34.692L100.902,34.692L101.032,34.692L101.15,34.692L101.272,34.692L101.52,34.692L101.644,34.692L101.775,34.692L101.893,34.692L102.016,34.692L102.263,34.692L102.388,34.692L102.517,34.692L102.635,34.692L102.759,34.692L103.007,34.692L103.131,34.692L103.26,34.692L103.379,34.692L103.502,34.692L103.751,34.692L103.874,34.692L104.005,34.692L104.123,34.692L104.246,34.692L104.493,34.692L104.618,34.692L104.748,34.692L104.866,34.692L104.989,34.692L105.237,34.692L105.361,34.692L105.492,34.692L105.61,34.692L105.732,34.692L105.98,34.692L106.104,34.692L106.234,34.692L106.353,34.692L106.475,34.692L106.724,34.692L106.847,34.692L106.978,34.692L107.095,34.692L107.219,34.692L107.467,34.692L107.59,34.692L107.72,34.692L107.838,34.692L107.961,34.692L108.21,34.692L108.333,34.692L108.463,34.692L108.581,34.692L108.706,34.692L108.953,34.692L109.077,34.692L109.208,34.692L109.326,34.692L109.448,34.692L109.698,34.692L109.821,34.692L109.951,34.692L110.069,34.692L110.191,34.692L110.44,34.692L110.564,34.692L110.694,34.692L110.812,34.692L110.934,34.692L111.184,34.692L111.307,34.692L111.437,34.692L111.555,34.692L111.678,34.692L111.927,34.692L112.05,34.692L112.18,34.692L112.298,34.692L112.421,34.692L112.669,34.692L112.793,34.692L112.922,34.692L113.041,34.692L113.164,34.692L113.412,34.692L113.536,34.692L113.665,34.692L113.784,34.692L113.907,34.692L114.156,34.692L114.28,34.692L114.411,34.692L114.528,34.692L114.651,34.692L114.898,34.692L115.023,34.692L115.154,34.692L115.272,34.692L115.394,34.692L115.643,34.692L115.766,34.692L115.897,34.692L116.015,34.692L116.137,34.692L116.385,34.692L116.509,34.692L116.64,34.692L116.757,34.692L116.88,34.692L117.129,34.692L117.253,34.692L117.384,34.692L117.502,34.692L117.624,34.692L117.871,34.692L117.995,34.692L118.125,34.692L118.244,34.692L118.366,34.692L118.615,34.692L118.738,34.692L118.869,34.692L118.987,34.692L119.11,34.692L119.359,34.692L119.483,34.692L119.614,34.692L119.731,34.692L119.853,34.692L120.102,34.692L120.226,34.692L120.357,34.692L120.474,34.692L120.597,34.692L120.845,34.692L120.969,46.231L121.1,46.231L121.217,46.231L121.339,46.231L121.588,46.231L121.712,46.231L121.843,46.231L121.962,46.231L122.083,46.231L122.331,46.231L122.455,46.231L122.586,48.538L122.703,48.538L122.826,48.538L123.075,48.538L123.199,48.538L123.328,48.538L123.446,48.538L123.569,48.538L123.817,48.538L123.941,48.538L124.071,48.538L124.19,48.538L124.312,48.538L124.561,48.538L124.685,48.538L124.816,48.538L124.933,48.538L125.056,48.538L125.304,48.538L125.428,48.538L125.559,48.538L125.677,48.538L125.799,48.538L126.047,48.538L126.171,48.538L126.303,48.538L126.42,48.538L126.542,48.538L126.79,48.538L126.914,48.538L127.045,48.538L127.164,48.538L127.285,48.538L127.534,48.538L127.658,48.538L127.788,48.538L127.906,48.538L128.028,48.538L128.276,48.538L128.4,48.538L128.532,48.538L128.649,48.538L128.771,48.538L129.02,48.538L129.143,48.538L129.273,48.538L129.391,48.538L129.515,48.538L129.763,48.538L129.888,48.538L130.018,48.538L130.136,48.538L130.258,48.538L130.506,48.538L130.631,48.538L130.761,48.538L131.002,48.538L131.25,48.538L131.374,48.538L131.505,48.538L131.622,48.538L131.745,48.538L131.994,48.538L132.117,48.538L132.248,48.538L132.366,48.538L132.488,48.538L132.736,48.538L132.861,48.538L132.991,48.538L133.108,48.538L133.231,48.538L133.48,48.538L133.603,48.538L133.733,48.538L133.851,48.538L133.974,48.538L134.222,48.538L134.346,48.538L134.476,48.538L134.595,48.538L134.717,48.538L134.966,48.538L135.09,48.538L135.222,48.538L135.339,48.538L135.46,48.538L135.709,48.538L135.833,48.538L135.964,48.538L136.082,48.538L136.204,48.538L136.452,48.538L136.577,48.538L136.707,48.538L136.826,48.538L136.947,48.538L137.196,48.538L137.32,48.538L137.45,48.538L137.568,48.538L137.691,48.538L137.939,48.538L138.063,48.538L138.193,48.538L138.311,48.538L138.433,48.538L138.682,48.538L138.805,48.538L138.935,48.538L139.054,48.538L139.177,48.538L139.424,48.538L139.548,48.538L139.679,48.538L139.796,48.538L139.92,48.538L140.169,48.538L140.293,48.538L140.423,48.538L140.541,48.538L140.663,48.538L140.911,48.538L141.036,48.538L141.167,48.538L141.284,48.538L141.407,48.538L141.655,48.538L141.78,48.538L141.91,48.538L142.027,48.538L142.15,48.538L142.398,48.538L142.522,48.538L142.653,48.538L142.77,48.538L142.893,48.538L143.141,48.538L143.265,48.538L143.396,48.538L143.514,48.538L143.636,48.538L143.884,48.538L144.008,48.538L144.138,48.538L144.256,48.538L144.379,48.538L144.628,48.538L144.752,48.538L144.89,48.538L145.006,48.538L145.122,48.538L145.371,48.538L145.495,48.538L145.627,48.538L145.744,48.538L145.865,48.538L146.114,48.538L146.238,48.538L146.367,48.538L146.488,48.538L146.609,48.538L146.857,48.538L146.982,48.538L147.113,48.538L147.231,48.538L147.352,48.538L147.601,48.538L147.725,48.538L147.856,48.538L147.973,48.538L148.095,48.538L148.344,48.538L148.468,48.538L148.599,48.538L148.717,48.538L148.839,48.538L149.087,48.538L149.21,48.538L149.341,48.538L149.459,48.538L149.582,48.538L149.83,48.538L149.953,48.538L150.084,48.538L150.203,48.538L150.325,48.538L150.574,48.538L150.699,48.538L150.829,48.538L150.946,48.538L151.068,48.538L151.316,48.538L151.441,48.538L151.572,48.538L151.69,48.538L151.811,48.538L152.059,27L152.184,27L152.315,27L152.433,27L152.555,27L152.804,27L152.928,27L153.058,27L153.176,27L153.298,27L153.547,27L153.67,27L153.801,27L153.92,27L154.041,27L154.289,27L154.413,27L154.544,27L154.661,27L154.784,27L155.032,27L155.156,27L155.286,27L155.405,27L155.527,27L155.776,27L155.9,27L156.032,27L156.149,27L156.271,27L156.519,27L156.643,27L156.775,27L156.892,27L157.013,27L157.261,27L157.385,27L157.518,27L157.635,27L157.757,27L158.006,27L158.13,27L158.261,27L158.378,27L158.501,27L158.749,27L158.873,27L159.004,27L159.122,27L159.243,27L159.492,27L159.616,27L159.746,27L159.864,27L159.987,27L160.236,27L160.359,27L160.489,27L160.607,27L160.731,27L160.979,27L161.103,27L161.234,27L161.351,27L161.474,27L161.722,27L161.846,27L161.977,27L162.094,27L162.216,27L162.465,27L162.589,27L162.721,27L162.839,27L162.96,27L163.209,27L163.333,27L163.464,27L163.581,27L163.703,27L163.952,27L164.076,27L164.207,27L164.324,27L164.446,27L164.696,27L164.818,27L164.949,27L165.068,27L165.189,27L165.438,27L165.561,27L165.692,27L165.81,27L165.933,27L166.181,27L166.306,27L166.438,27L166.554,27L166.676,27L166.924,27L167.049,27L167.18,27L167.298,27L167.419,27L167.668,27L167.792,27L167.923,27L168.041,27L168.162,27L168.411,27L168.535,27L168.666,27L168.783,27L168.905,27L169.154,27L169.278,27L169.409,27L169.527,27L169.648,27L169.897,27L170.021,27L170.151,27L170.27,27L170.393,27L170.64,27L170.764,27L170.895,27L171.012,27L171.135,27L171.384,27L171.508,27L171.639,27L171.756,27L171.879,27L172.128,27L172.251,27L172.382,27L172.499,27L172.622,27L172.87,27L172.995,27L173.123,27L173.243,27L173.365,27L173.613,27L173.738,27L173.869,27L173.987,27L174.108,27L174.357,27L174.481,27L174.612,27L174.729,27L174.851,27L175.1,27L175.223,27L175.354,27L175.472,27L175.594,27L175.843,27L175.967,27L176.097,27L176.215,27L176.338,27L176.587,27L176.711,27L176.842,27L176.959,27L177.081,27L177.33,27L177.454,27L177.585,27L177.702,27L177.824,27L178.073,27L178.197,27L178.329,27L178.447,27L178.567,27L178.816,27L178.941,27L179.072,27L179.189,27L179.31,27L179.56,27L179.684,27L179.815,27L179.932,27L180.054,27L180.303,27L180.427,27L180.557,27L180.675,27L180.797,27L181.046,27L181.17,27L181.302,27L181.418,27L181.54,27L181.789,27L181.914,27L182.046,27L182.163,27L182.284,27L182.532,27L182.657,27L182.788,27L182.906,27L183.027,27L183.276,27L183.4,27L183.532,27L183.648,27L183.771,27L184.019,27L184.143,27L184.275,27L184.392,27L184.513,27L184.762,27L184.886,27L185.018,27L185.136,27L185.256,27L185.505,27L185.629,27L185.759,27L185.877,27L185.999,27L186.248,27L186.372,27L186.503,27L186.621,27L186.743,27L186.992,27L187.117,27L187.248,27L187.364,27L187.486,27L187.735,27L187.859,27L187.992,27L188.108,27L188.229,27L188.479,27L188.603,27L188.735,27L188.851,27L188.972,27L189.222,27L189.346,27L189.478,27L189.595,27L189.716,27L189.965,27L190.089,27L190.221,27L190.337,27L190.459,27L190.708,46.231L190.832,46.231L190.963,46.231L191.08,46.231L191.202,46.231L191.451,46.231L191.575,46.231L191.706,46.231L191.824,46.231L191.945,46.231L192.195,46.231L192.32,46.231L192.452,46.231L192.568,46.231L192.689,46.231L192.936,46.231L193.062,46.231L193.194,46.231L193.311,46.231L193.432,46.231L193.681,46.231L193.805,46.231L193.937,46.231L194.054,46.231L194.175,46.231L194.425,53.923L194.549,53.923L194.681,53.923L194.797,53.923L194.918,53.923L195.168,53.923L195.292,53.923L195.424,53.923L195.54,53.923L195.662,53.923L195.911,53.923L196.034,53.923L196.165,53.923L196.283,53.923L196.404,53.923L196.655,53.923L196.777,53.923L196.909,53.923L197.026,53.923L197.148,53.923L197.397,53.923L197.523,53.923L197.654,53.923L197.77,53.923L197.892,53.923L198.141,53.923L198.266,53.923L198.398,53.923L198.514,53.923L198.635,53.923L198.884,53.923L199.009,53.923L199.141,53.923L199.258,53.923L199.378,53.923L199.627,23.154L199.752,23.154L199.884,23.154L200,23.154" stroke="#4c78a8" stroke-width="2"/></g></g><path class="foreground" aria-hidden="true" d="" display="none"/></g><g transform="translate(0,0)"><path class="background" aria-hidden="true" d="M0,0h200v200h-200Z"/><g><g class="mark-line role-mark marks" role="graphics-object" aria-roledescription="line mark container"><path aria-label="Time: Jan 01, 2024; Price: 2499; identifier: altex-LG-F2WR508SBM" role="graphics-symbol" aria-roledescription="line mark" d="M0,7.769L0.078,7.769L0.196,7.769L0.443,7.769L0.567,7.769L0.697,7.769L0.816,7.769L0.939,7.769L1.187,7.769L1.31,7.769L1.441,7.769L1.559,7.769L1.682,7.769L1.93,7.769L2.054,7.769L2.184,7.769L2.303,7.769L2.425,7.769L2.673,27L2.797,27L2.927,27L3.046,27L3.168,27L3.416,27L3.54,27L3.67,27L3.789,27L3.911,27L4.16,27L4.283,27L4.413,27L4.532,27L4.655,27L4.903,27L5.027,27L5.158,27L5.276,27L5.398,27L5.647,27L5.77,27L5.902,27L6.02,27L6.141,27L6.39,27L6.514,27L6.644,27L6.762,27L6.884,27L7.133,27L7.257,27L7.387,27L7.506,27L7.628,27L7.876,27L8,27L8.13,27L8.249,27L8.371,27L8.619,38.538L8.742,38.538L8.872,38.538L8.991,38.538L9.114,38.538L9.362,38.538L9.486,38.538L9.615,38.538L9.734,38.538L9.857,38.538L10.106,38.538L10.23,38.538L10.361,38.538L10.479,38.538L10.6,38.538L10.849,38.538L10.973,38.538L11.104,38.538L11.222,38.538L11.344,38.538L11.592,38.538L11.716,38.538L11.847,38.538L11.965,38.538L12.087,38.538L12.335,38.538L12.459,38.538L12.59,38.538L12.708,38.538L12.83,38.538L13.079,38.538L13.202,38.538L13.333,38.538L13.452,38.538L13.573,38.538L13.822,38.538L13.945,38.538L14.075,38.538L14.194,38.538L14.317,38.538L14.564,38.538L14.688,38.538L14.818,38.538L14.937,38.538L15.06,38.538L15.309,38.538L15.433,38.538L15.563,38.538L15.681,38.538L15.803,38.538L16.051,38.538L16.176,38.538L16.306,38.538L16.425,38.538L16.546,38.538L16.795,38.538L16.919,38.538L17.05,38.538L17.168,38.538L17.289,38.538L17.538,38.538L17.662,38.538L17.793,38.538L17.912,38.538L18.033,38.538L18.281,38.538L18.405,38.538L18.533,38.538L18.652,38.538L18.776,38.538L19.023,38.538L19.148,38.538L19.275,38.538L19.395,38.538L19.519,38.538L19.767,38.538L19.891,38.538L20.018,38.538L20.138,38.538L20.262,38.538L20.51,38.538L20.634,38.538L20.763,38.538L20.882,38.538L21.006,38.538L21.253,38.538L21.377,38.538L21.506,38.538L21.627,38.538L21.749,38.538L21.996,38.538L22.12,38.538L22.249,38.538L22.368,38.538L22.492,38.538L22.74,27L22.864,27L22.993,27L23.111,27L23.235,27L23.483,27L23.607,27L23.735,27L23.854,27L23.978,27L24.226,27L24.35,27L24.478,27L24.598,27L24.722,27L24.97,27L25.093,27L25.221,27L25.341,27L25.465,27L25.712,27L25.837,27L25.966,27L26.084,27L26.208,27L26.456,27L26.58,27L26.709,27L26.827,27L26.951,27L27.199,27L27.323,27L27.452,27L27.571,27L27.694,27L27.942,27L28.066,27L28.195,27L28.314,27L28.438,27L28.685,27L28.809,27L28.937,27L29.057,27L29.181,27L29.428,27L29.552,27L29.68,27L29.8,27L29.924,27L30.172,27L30.296,27L30.423,27L30.543,27L30.667,27L30.915,27L31.039,27L31.168,27L31.287,27L31.41,27L31.658,27L31.782,27L31.911,27L32.032,27L32.154,27L32.401,27L32.525,27L32.654,27L32.773,27L32.897,27L33.268,27L33.397,27L33.516,27L33.64,27L33.888,27L34.012,27L34.141,27L34.26,27L34.383,27L34.631,27L34.755,27L34.883,27L35.003,27L35.126,27L35.374,27L35.499,27L35.626,27L35.746,27L35.87,27L36.117,27L36.242,27L36.371,27L36.491,27L36.613,27L36.861,27L36.985,27L37.113,27L37.233,27L37.356,27L37.604,27L37.728,27L37.857,27L37.976,27L38.1,27L38.347,27L38.471,27L38.6,27L38.719,27L38.843,27L39.09,27L39.214,27L39.343,27L39.462,27L39.586,27L39.834,27L39.957,27L40.085,27L40.205,27L40.329,27L40.577,27L40.701,27L40.828,27L40.949,27L41.072,27L41.32,27L41.444,27L41.573,27L41.692,27L41.815,27L42.063,27L42.187,27L42.316,27L42.435,27L42.559,27L42.806,27L42.93,27L43.059,27L43.179,27L43.302,27L43.55,27L43.673,27L43.802,27L43.921,27L44.045,27L44.293,27L44.417,27L44.546,27L44.665,27L44.788,27L45.036,27L45.16,27L45.288,27L45.408,27L45.532,27L45.779,27L45.903,27L46.031,27L46.151,27L46.275,27L46.534,27L46.703,27L46.777,27L46.895,27L47.018,27L47.266,27L47.389,27L47.519,27L47.637,27L47.761,27L48.009,27L48.134,27L48.262,27L48.381,27L48.504,27L48.752,27L48.876,27L49.005,38.538L49.124,38.538L49.248,38.538L49.495,38.538L49.621,38.538L49.748,38.538L49.867,38.538L49.991,38.538L50.239,38.538L50.362,38.538L50.49,38.538L50.611,38.538L50.734,38.538L50.982,38.538L51.106,38.538L51.233,38.538L51.354,38.538L51.477,38.538L51.726,38.538L51.849,38.538L51.978,38.538L52.097,38.538L52.221,38.538L52.468,38.538L52.592,38.538L52.721,38.538L52.841,38.538L52.964,38.538L53.212,38.538L53.336,38.538L53.465,38.538L53.583,38.538L53.707,38.538L53.955,38.538L54.079,38.538L54.208,38.538L54.327,38.538L54.45,38.538L54.698,38.538L54.822,38.538L54.95,38.538L55.07,38.538L55.193,38.538L55.441,38.538L55.565,38.538L55.693,38.538L55.813,38.538L55.937,38.538L56.184,38.538L56.309,38.538L56.436,38.538L56.556,38.538L56.68,38.538L56.927,38.538L57.051,38.538L57.181,38.538L57.3,38.538L57.424,38.538L57.671,38.538L57.795,38.538L57.923,38.538L58.044,38.538L58.166,38.538L58.414,38.538L58.538,38.538L58.667,38.538L58.787,38.538L58.91,38.538L59.157,38.538L59.281,38.538L59.41,38.538L59.531,38.538L59.653,38.538L59.9,38.538L60.024,38.538L60.153,38.538L60.272,38.538L60.396,38.538L60.644,38.538L60.767,38.538L60.896,38.538L61.015,38.538L61.139,38.538L61.387,38.538L61.511,38.538L61.64,38.538L61.758,38.538L61.882,38.538L62.13,38.538L62.254,38.538L62.383,38.538L62.502,38.538L62.625,38.538L62.873,38.538L62.998,38.538L63.126,38.538L63.246,38.538L63.369,38.538L63.617,38.538L63.741,38.538L63.87,38.538L63.99,38.538L64.112,38.538L64.359,38.538L64.483,38.538L64.613,38.538L64.732,38.538L64.855,38.538L65.103,38.538L65.227,38.538L65.356,38.538L65.475,38.538L65.598,38.538L65.846,38.538L65.97,38.538L66.098,38.538L66.218,38.538L66.342,38.538L66.589,38.538L66.714,38.538L66.842,38.538L66.961,38.538L67.085,38.538L67.332,38.538L67.457,38.538L67.586,38.538L67.706,38.538L67.828,38.538L68.076,38.538L68.2,38.538L68.329,38.538L68.449,38.538L68.571,38.538L68.819,38.538L68.943,38.538L69.072,38.538L69.192,38.538L69.314,38.538L69.563,38.538L69.686,38.538L69.815,38.538L69.934,38.538L70.058,38.538L70.306,38.538L70.558,38.538L70.678,38.538L70.801,38.538L71.049,38.538L71.173,38.538L71.3,38.538L71.42,38.538L71.544,38.538L71.792,38.538L71.916,38.538L72.044,38.538L72.163,38.538L72.287,38.538L72.535,38.538L72.659,38.538L72.788,38.538L72.908,38.538L73.03,38.538L73.278,38.538L73.402,38.538L73.531,38.538L73.651,38.538L73.774,38.538L74.021,38.538L74.146,38.538L74.275,38.538L74.395,38.538L74.518,38.538L74.765,38.538L74.89,38.538L75.018,38.538L75.26,38.538L75.508,38.538L75.633,38.538L75.761,38.538L75.879,38.538L76.003,38.538L76.251,38.538L76.375,38.538L76.501,38.538L76.622,38.538L76.746,38.538L77.006,38.538L77.196,38.538L77.312,38.538L77.553,38.538L77.739,38.538L77.861,38.538L77.989,38.538L78.109,38.538L78.233,38.538L78.481,38.538L78.605,38.538L78.734,38.538L78.852,38.538L78.976,38.538L79.224,38.538L79.348,38.538L79.478,38.538L79.597,38.538L79.72,38.538L80.091,38.538L80.22,38.538L80.339,38.538L80.463,38.538L80.71,38.538L80.834,38.538L80.963,38.538L81.083,38.538L81.206,38.538L81.454,38.538L81.577,38.538L81.706,38.538L81.825,38.538L81.949,38.538L82.197,38.538L82.321,38.538L82.449,38.538L82.569,38.538L82.692,38.538L82.94,38.538L83.064,38.538L83.194,38.538L83.312,38.538L83.435,38.538L83.683,38.538L83.807,38.538L83.937,38.538L84.056,38.538L84.179,38.538L84.426,38.538L84.551,38.538L84.684,38.538L84.799,38.538L84.922,38.538L85.17,38.538L85.294,38.538L85.42,38.538L85.542,38.538L85.665,38.538L85.913,38.538L86.037,38.538L86.166,38.538L86.285,38.538L86.409,38.538L86.656,38.538L86.78,38.538L86.908,38.538L87.028,38.538L87.151,38.538L87.399,38.538L87.523,38.538L87.652,38.538L87.771,38.538L87.895,38.538L88.142,38.538L88.268,38.538L88.397,38.538L88.515,38.538L88.638,38.538L88.886,38.538L89.01,38.538L89.14,38.538L89.258,38.538L89.381,38.538L89.629,38.538L89.755,38.538L89.883,38.538L90.001,38.538L90.124,38.538L90.373,38.538L90.496,38.538L90.627,38.538L90.744,38.538L90.868,38.538L91.116,38.538L91.239,38.538L91.369,38.538L91.488,38.538L91.611,38.538L91.859,38.538L91.982,38.538L92.111,38.538L92.23,38.538L92.354,38.538L92.602,38.538L92.726,38.538L92.855,38.538L92.974,38.538L93.097,38.538L93.345,38.538L93.47,38.538L93.599,38.538L93.718,38.538L93.84,38.538L94.088,38.538L94.213,38.538L94.342,30.846L94.461,30.846L94.584,30.846L94.831,30.846L94.956,30.846L95.087,30.846L95.205,30.846L95.327,30.846L95.576,30.846L95.7,30.846L95.829,30.846L95.949,30.846L96.071,30.846L96.318,30.846L96.442,30.846L96.573,30.846L96.69,30.846L96.813,30.846L97.061,30.846L97.185,30.846L97.314,30.846L97.433,30.846L97.556,30.846L97.805,30.846L97.928,30.846L98.058,30.846L98.176,30.846L98.3,30.846L98.548,30.846L98.672,30.846L98.802,30.846L98.92,30.846L99.043,30.846L99.291,30.846L99.415,30.846L99.546,30.846L99.664,30.846L99.786,30.846L100.034,30.846L100.158,30.846L100.289,30.846L100.407,30.846L100.53,30.846L100.777,30.846L100.902,30.846L101.032,30.846L101.15,30.846L101.272,30.846L101.52,30.846L101.645,30.846L101.775,30.846L101.893,30.846L102.016,30.846L102.264,30.846L102.388,30.846L102.517,30.846L102.635,30.846L102.759,30.846L103.007,30.846L103.131,30.846L103.26,30.846L103.379,30.846L103.502,30.846L103.751,30.846L103.874,30.846L104.005,30.846L104.123,30.846L104.246,30.846L104.493,30.846L104.618,30.846L104.748,30.846L104.866,30.846L104.989,30.846L105.237,30.846L105.361,30.846L105.492,38.538L105.61,38.538L105.732,38.538L105.98,38.538L106.104,38.538L106.234,38.538L106.353,38.538L106.475,38.538L106.724,38.538L106.847,38.538L106.978,38.538L107.095,38.538L107.219,38.538L107.467,38.538L107.59,38.538L107.72,38.538L107.838,38.538L107.961,38.538L108.21,38.538L108.333,38.538L108.463,38.538L108.581,38.538L108.706,38.538L108.953,38.538L109.077,38.538L109.208,38.538L109.326,38.538L109.448,38.538L109.698,38.538L109.821,38.538L109.951,38.538L110.069,38.538L110.191,38.538L110.44,38.538L110.564,38.538L110.694,38.538L110.812,38.538L110.934,38.538L111.184,38.538L111.307,38.538L111.437,38.538L111.555,38.538L111.678,38.538L111.927,30.846L112.05,30.846L112.18,30.846L112.298,30.846L112.421,30.846L112.669,30.846L112.793,30.846L112.922,30.846L113.041,30.846L113.164,30.846L113.412,30.846L113.536,30.846L113.665,30.846L113.784,30.846L113.907,30.846L114.156,30.846L114.28,30.846L114.411,30.846L114.528,30.846L114.651,30.846L114.899,30.846L115.023,30.846L115.154,30.846L115.272,30.846L115.394,30.846L115.643,30.846L115.766,30.846L115.897,30.846L116.015,30.846L116.137,30.846L116.385,30.846L116.509,30.846L116.64,30.846L116.757,30.846L116.88,30.846L117.129,30.846L117.253,30.846L117.384,30.846L117.502,30.846L117.624,30.846L117.871,30.846L117.995,30.846L118.125,30.846L118.244,30.846L118.366,30.846L118.615,30.846L118.738,30.846L118.869,30.846L118.987,30.846L119.11,30.846L119.359,30.846L119.483,30.846L119.614,30.846L119.731,30.846L119.853,30.846L120.102,30.846L120.226,30.846L120.357,30.846L120.474,30.846L120.597,30.846L120.845,30.846L120.969,34.692L121.1,34.692L121.217,34.692L121.339,34.692L121.588,34.692L121.712,34.692L121.843,34.692L121.962,34.692L122.083,34.692L122.331,34.692L122.455,34.692L122.586,40.077L122.703,40.077L122.826,40.077L123.075,40.077L123.199,40.077L123.328,40.077L123.446,40.077L123.569,40.077L123.817,40.077L123.941,40.077L124.071,40.077L124.19,40.077L124.312,40.077L124.561,40.077L124.685,40.077L124.816,40.077L124.933,40.077L125.056,40.077L125.304,40.077L125.429,40.077L125.559,40.077L125.677,40.077L125.799,40.077L126.047,40.077L126.171,40.077L126.303,40.077L126.42,40.077L126.542,40.077L126.79,40.077L126.914,40.077L127.045,40.077L127.164,40.077L127.285,40.077L127.534,40.077L127.658,40.077L127.788,40.077L127.906,40.077L128.028,40.077L128.276,40.077L128.4,40.077L128.532,40.077L128.649,40.077L128.771,40.077L129.02,40.077L129.143,40.077L129.273,40.077L129.391,40.077L129.515,40.077L129.763,40.077L129.888,40.077L130.018,40.077L130.136,40.077L130.258,40.077L130.506,40.077L130.631,40.077L130.761,40.077L131.002,40.077L131.25,40.077L131.374,40.077L131.505,40.077L131.622,40.077L131.745,40.077L131.994,40.077L132.117,40.077L132.248,40.077L132.366,40.077L132.488,40.077L132.736,40.077L132.861,40.077L132.991,40.077L133.108,40.077L133.231,40.077L133.48,40.077L133.603,40.077L133.733,40.077L133.851,40.077L133.974,40.077L134.222,40.077L134.346,40.077L134.476,40.077L134.595,40.077L134.717,40.077L134.966,40.077L135.09,40.077L135.222,40.077L135.339,40.077L135.46,40.077L135.709,40.077L135.833,40.077L135.964,40.077L136.082,40.077L136.204,40.077L136.452,40.077L136.577,40.077L136.707,40.077L136.826,40.077L136.947,40.077L137.196,40.077L137.32,40.077L137.45,40.077L137.568,40.077L137.691,40.077L137.94,40.077L138.063,40.077L138.193,40.077L138.311,40.077L138.433,40.077L138.682,40.077L138.805,40.077L138.935,40.077L139.054,40.077L139.177,40.077L139.424,40.077L139.548,40.077L139.679,40.077L139.796,40.077L139.92,40.077L140.169,40.077L140.293,40.077L140.423,40.077L140.541,40.077L140.663,40.077L140.911,40.077L141.036,40.077L141.167,40.077L141.284,40.077L141.407,40.077L141.655,40.077L141.78,40.077L141.91,40.077L142.027,40.077L142.15,40.077L142.398,40.077L142.522,40.077L142.653,40.077L142.77,40.077L142.893,40.077L143.141,40.077L143.265,40.077L143.396,40.077L143.514,40.077L143.636,40.077L143.884,40.077L144.008,40.077L144.138,40.077L144.256,40.077L144.379,40.077L144.628,40.077L144.753,40.077L144.89,40.077L145.006,40.077L145.122,40.077L145.371,40.077L145.495,40.077L145.627,40.077L145.744,40.077L145.865,40.077L146.114,40.077L146.238,40.077L146.367,40.077L146.488,40.077L146.609,40.077L146.857,40.077L146.982,40.077L147.113,40.077L147.231,40.077L147.352,40.077L147.601,40.077L147.725,40.077L147.856,40.077L147.973,40.077L148.095,40.077L148.344,40.077L148.468,40.077L148.599,40.077L148.717,40.077L148.839,40.077L149.087,40.077L149.21,40.077L149.341,40.077L149.459,40.077L149.582,40.077L149.83,40.077L149.953,40.077L150.084,40.077L150.203,40.077L150.325,40.077L150.574,40.077L150.699,40.077L150.829,40.077L150.946,40.077L151.068,40.077L151.316,40.077L151.441,40.077L151.572,40.077L151.69,40.077L151.811,40.077L152.06,40.077L152.184,40.077L152.316,40.077L152.433,40.077L152.555,40.077L152.804,40.077L152.928,40.077L153.058,40.077L153.176,40.077L153.298,40.077L153.547,40.077L153.67,40.077L153.801,40.077L153.92,40.077L154.041,40.077L154.289,40.077L154.413,40.077L154.544,40.077L154.661,40.077L154.785,40.077L155.032,40.077L155.156,40.077L155.286,40.077L155.405,40.077L155.527,40.077L155.776,40.077L155.9,40.077L156.032,40.077L156.149,40.077L156.271,40.077L156.519,40.077L156.643,40.077L156.775,40.077L156.892,40.077L157.013,40.077L157.261,40.077L157.385,40.077L157.518,40.077L157.635,40.077L157.757,40.077L158.006,40.077L158.13,40.077L158.261,40.077L158.378,40.077L158.501,40.077L158.749,40.077L158.873,40.077L159.004,40.077L159.122,40.077L159.243,40.077L159.492,40.077L159.616,40.077L159.746,40.077L159.864,40.077L159.987,40.077L160.236,40.077L160.359,40.077L160.489,40.077L160.607,40.077L160.731,40.077L160.979,40.077L161.103,40.077L161.234,40.077L161.351,40.077L161.474,40.077L161.722,40.077L161.846,40.077L161.977,40.077L162.094,40.077L162.216,40.077L162.465,40.077L162.589,40.077L162.721,40.077L162.839,40.077L162.96,40.077L163.209,40.077L163.333,40.077L163.464,40.077L163.581,40.077L163.703,40.077L163.952,40.077L164.076,40.077L164.207,40.077L164.324,40.077L164.446,40.077L164.696,40.077L164.818,40.077L164.949,40.077L165.068,40.077L165.189,40.077L165.438,40.077L165.561,40.077L165.692,40.077L165.81,40.077L165.933,40.077L166.181,40.077L166.306,40.077L166.438,40.077L166.554,40.077L166.676,40.077L166.924,40.077L167.049,40.077L167.18,40.077L167.298,40.077L167.419,40.077L167.668,40.077L167.792,40.077L167.923,40.077L168.041,40.077L168.162,40.077L168.411,40.077L168.535,40.077L168.666,40.077L168.783,40.077L168.905,40.077L169.154,40.077L169.278,40.077L169.409,40.077L169.527,40.077L169.648,40.077L169.897,40.077L170.021,40.077L170.151,40.077L170.27,40.077L170.393,40.077L170.64,40.077L170.764,40.077L170.895,40.077L171.012,40.077L171.135,40.077L171.384,40.077L171.508,40.077L171.639,40.077L171.756,40.077L171.879,40.077L172.128,40.077L172.251,40.077L172.382,40.077L172.499,40.077L172.622,40.077L172.87,40.077L172.995,40.077L173.123,40.077L173.243,40.077L173.365,40.077L173.613,40.077L173.738,40.077L173.869,40.077L173.987,40.077L174.108,40.077L174.357,40.077L174.481,40.077L174.612,40.077L174.729,40.077L174.851,40.077L175.1,40.077L175.223,40.077L175.354,40.077L175.472,40.077L175.594,40.077L175.843,40.077L175.967,40.077L176.097,40.077L176.215,40.077L176.338,40.077L176.588,40.077L176.711,40.077L176.842,40.077L176.959,40.077L177.081,40.077L177.33,40.077L177.454,40.077L177.585,40.077L177.702,40.077L177.824,40.077L178.073,40.077L178.197,40.077L178.329,40.077L178.447,40.077L178.567,40.077L178.817,40.077L178.941,40.077L179.072,40.077L179.189,40.077L179.31,40.077L179.56,40.077L179.684,40.077L179.815,40.077L179.932,40.077L180.054,40.077L180.303,40.077L180.427,40.077L180.557,40.077L180.675,40.077L180.797,40.077L181.046,40.077L181.17,40.077L181.302,40.077L181.418,40.077L181.54,40.077L181.789,40.077L181.914,40.077L182.046,40.077L182.163,40.077L182.284,40.077L182.532,40.077L182.657,40.077L182.789,40.077L182.906,40.077L183.027,40.077L183.276,40.077L183.4,40.077L183.532,40.077L183.648,40.077L183.771,40.077L184.019,40.077L184.143,40.077L184.275,40.077L184.392,40.077L184.513,40.077L184.762,40.077L184.886,40.077L185.018,40.077L185.136,40.077L185.256,40.077L185.505,40.077L185.629,40.077L185.759,40.077L185.877,40.077L185.999,40.077L186.248,40.077L186.372,40.077L186.503,40.077L186.621,40.077L186.743,40.077L186.992,40.077L187.117,40.077L187.249,40.077L187.365,40.077L187.486,40.077L187.735,40.077L187.859,40.077L187.992,40.077L188.108,40.077L188.229,40.077L188.479,40.077L188.603,40.077L188.735,40.077L188.851,40.077L188.972,40.077L189.222,40.077L189.346,40.077L189.478,40.077L189.595,40.077L189.716,40.077L189.965,40.077L190.089,40.077L190.221,40.077L190.337,40.077L190.459,40.077L190.708,40.077L190.832,40.077L190.963,40.077L191.08,40.077L191.202,40.077L191.451,40.077L191.575,40.077L191.706,40.077L191.824,40.077L191.945,40.077L192.196,40.077L192.32,40.077L192.452,40.077L192.568,40.077L192.689,40.077L192.936,40.077L193.063,40.077L193.194,40.077L193.311,40.077L193.432,40.077L193.681,40.077L193.805,40.077L193.937,40.077L194.054,40.077L194.175,40.077L194.425,40.077L194.549,40.077L194.681,40.077L194.797,40.077L194.918,40.077L195.168,40.077L195.292,40.077L195.424,40.077L195.54,40.077L195.662,40.077L195.911,40.077L196.034,40.077L196.165,40.077L196.283,40.077L196.404,40.077L196.655,40.077L196.777,40.077L196.909,40.077L197.026,40.077L197.148,40.077L197.397,40.077L197.523,40.077L197.654,40.077L197.77,40.077L197.892,40.077L198.141,40.077L198.266,40.077L198.398,40.077L198.514,40.077L198.635,40.077L198.884,40.077L199.009,40.077L199.141,40.077L199.258,40.077L199.378,40.077L199.627,40.077L199.752,40.077L199.884,40.077L200,40.077" stroke="#f58518" stroke-width="2"/></g></g><path class="foreground" aria-hidden="true" d="" display="none"/></g></g><g class="mark-group role-legend" role="graphics-symbol" aria-roledescription="legend" aria-label="Symbol legend titled 'identifier' for stroke color with 2 values: altex-LG-F2WR508SBW, altex-LG-F2WR508SBM"><g transform="translate(220,0)"><path class="background" aria-hidden="true" d="M0,0h168v40h-168Z" pointer-events="none"/><g><g class="mark-group role-legend-entry"><g transform="translate(0,16)"><path class="background" aria-hidden="true" d="M0,0h0v0h0Z" pointer-events="none"/><g><g class="mark-group role-scope" role="graphics-object" aria-roledescription="group mark container"><g transform="translate(0,0)"><path class="background" aria-hidden="true" d="M0,0h168v11h-168Z" pointer-events="none" opacity="1"/><g><g class="mark-symbol role-legend-symbol" pointer-events="none"><path transform="translate(6,6)" d="M-5,0L5,0" stroke="#4c78a8" stroke-width="1.5" opacity="1"/></g><g class="mark-text role-legend-label" pointer-events="none"><text text-anchor="start" transform="translate(16,9)" font-family="Liberation Mono" font-size="10px" fill="#000" opacity="1">altex-LG-F2WR508SBW</text></g></g><path class="foreground" aria-hidden="true" d="" pointer-events="none" display="none"/></g><g transform="translate(0,13)"><path class="background" aria-hidden="true" d="M0,0h168v11h-168Z" pointer-events="none" opacity="1"/><g><g class="mark-symbol role-legend-symbol" pointer-events="none"><path transform="translate(6,6)" d="M-5,0L5,0" stroke="#f58518" stroke-width="1.5" opacity="1"/></g><g class="mark-text role-legend-label" pointer-events="none"><text text-anchor="start" transform="translate(16,9)" font-family="Liberation Mono" font-size="10px" fill="#000" opacity="1">altex-LG-F2WR508SBM</text></g></g><path class="foreground" aria-hidden="true" d="" pointer-events="none" display="none"/></g></g></g><path class="foreground" aria-hidden="true" d="" pointer-events="none" display="none"/></g></g><g class="mark-text role-legend-title" pointer-events="none"><text text-anchor="start" transform="translate(0,9)" font-family="Liberation Mono" font-size="11px" font-weight="bold" fill="#000" opacity="1">identifier</text></g></g><path class="foreground" aria-hidden="true" d="" pointer-events="none" display="none"/></g></g></g><path class="foreground" aria-hidden="true" d="" display="none"/></g></g></g></svg>