<svg xmlns="http://www.w3.org/2000/svg" xmlns:xlink="http://www.w3.org/1999/xlink" version="1.1" class="marks" width="460" height="242" viewBox="0 0 460 242"><rect width="460" height="242" fill="white"/><g fill="none" stroke-miterlimit="10" transform="translate(67,5)"><g class="mark-group role-frame root" role="graphics-object" aria-roledescription="group mark container"><g transform="translate(0,0)"><path class="background" aria-hidden="true" d="M0.5,0.5h200v200h-200Z" stroke="#ddd"/><g><g class="mark-group role-axis" aria-hidden="true"><g transform="translate(0.5,200.5)"><path class="background" aria-hidden="true" d="M0,0h0v0h0Z" pointer-events="none"/><g><g class="mark-rule role-axis-grid" pointer-events="none"><line transform="translate(42,-200)" x2="0" y2="200" stroke="#ddd" stroke-width="1" opacity="1"/><line transform="translate(83,-200)" x2="0" y2="200" stroke="#ddd" stroke-width="1" opacity="1"/><line transform="translate(126,-200)" x2="0" y2="200" stroke="#ddd" stroke-width="1" opacity="1"/><line transform="translate(168,-200)" x2="0" y2="200" stroke="#ddd" stroke-width="1" opacity="1"/></g></g><path class="foreground" aria-hidden="true" d="" pointer-events="none" display="none"/></g></g><g class="mark-group role-axis" aria-hidden="true"><g transform="translate(0.5,0.5)"><path class="background" aria-hidden="true" d="M0,0h0v0h0Z" pointer-events="none"/><g><g class="mark-rule role-axis-grid" pointer-events="none"><line transform="translate(0,200)" x2="200" y2="0" stroke="#ddd" stroke-width="1" opacity="1"/><line transform="translate(0,162)" x2="200" y2="0" stroke="#ddd" stroke-width="1" opacity="1"/><line transform="translate(0,123)" x2="200" y2="0" stroke="#ddd" stroke-width="1" opacity="1"/><line transform="translate(0,85)" x2="200" y2="0" stroke="#ddd" stroke-width="1" opacity="1"/><line transform="translate(0,46)" x2="200" y2="0" stroke="#ddd" stroke-width="1" opacity="1"/><line transform="translate(0,8)" x2="200" y2="0" stroke="#ddd" stroke-width="1" opacity="1"/></g></g><path class="foreground" aria-hidden="true" d="" pointer-events="none" display="none"/></g></g><g class="mark-group role-axis" role="graphics-symbol" aria-roledescription="axis" aria-label="X-axis titled 'Time' for a time scale with values from Monday, 01 January 2024, 2:19:43 PM to Tuesday, 11 March 2025, 1:03:08 PM"><g transform="translate(0.5,200.5)"><path class="background" aria-hidden="true" d="M0,0h0v0h0Z" pointer-events="none"/><g><g class="mark-rule role-axis-tick" pointer-events="none"><line transform="translate(42,0)" x2="0" y2="5" stroke="#888" stroke-width="1" opacity="1"/><line transform="translate(83,0)" x2="0" y2="5" stroke="#888" stroke-width="1" opacity="1"/><line transform="translate(126,0)" x2="0" y2="5" stroke="#888" stroke-width="1" opacity="1"/><line transform="translate(168,0)" x2="0" y2="5" stroke="#888" stroke-width="1" opacity="1"/></g><g class="mark-text role-axis-label" pointer-events="none"><text text-anchor="middle" transform="translate(41.5696672904325,15)" font-family="Liberation Mono" font-size="10px" fill="#000" opacity="1">April</text><text text-anchor="middle" transform="translate(83.41386324657896,15)" font-family="Liberation Mono" font-size="10px" fill="#000" opacity="0">July</text><text text-anchor="middle" transform="translate(125.71788553191384,15)" font-family="Liberation Mono" font-size="10px" fill="#000" opacity="0">October</text><text text-anchor="middle" transform="translate(168.02190781724872,15)" font-family="Liberation Mono" font-size="10px" fill="#000" opacity="1">2025</text></g><g class="mark-rule role-axis-domain" pointer-events="none"><line transform="translate(0,0)" x2="200" y2="0" stroke="#888" stroke-width="1" opacity="1"/></g><g class="mark-text role-axis-title" pointer-events="none"><text text-anchor="middle" transform="translate(100,30)" font-family="Liberation Mono" font-size="11px" font-weight="bold" fill="#000" opacity="1">Time</text></g></g><path class="foreground" aria-hidden="true" d="" pointer-events="none" display="none"/></g></g><g class="mark-group role-axis" role="graphics-symbol" aria-roledescription="axis" aria-label="Y-axis titled 'Price' for a linear scale with values from 0 to 2,600"><g transform="translate(0.5,0.5)"><path class="background" aria-hidden="true" d="M0,0h0v0h0Z" pointer-events="none"/><g><g class="mark-rule role-axis-tick" pointer-events="none"><line transform="translate(0,200)" x2="-5" y2="0" stroke="#888" stroke-width="1" opacity="1"/><line transform="translate(0,162)" x2="-5" y2="0" stroke="#888" stroke-width="1" opacity="1"/><line transform="translate(0,123)" x2="-5" y2="0" stroke="#888" stroke-width="1" opacity="1"/><line transform="translate(0,85)" x2="-5" y2="0" stroke="#888" stroke-width="1" opacity="1"/><line transform="translate(0,46)" x2="-5" y2="0" stroke="#888" stroke-width="1" opacity="1"/><line transform="translate(0,8)" x2="-5" y2="0" stroke="#888" stroke-width="1" opacity="1"/></g><g class="mark-text role-axis-label" pointer-events="none"><text text-anchor="end" transform="translate(-7,203)" font-family="Liberation Mono" font-size="10px" fill="#000" opacity="1">0</text><text text-anchor="end" transform="translate(-7,164.53846153846155)" font-family="Liberation Mono" font-size="10px" fill="#000" opacity="1">500</text><text text-anchor="end" transform="translate(-7,126.07692307692308)" font-family="Liberation Mono" font-size="10px" fill="#000" opacity="1">1,000</text><text text-anchor="end" transform="translate(-7,87.61538461538463)" font-family="Liberation Mono" font-size="10px" fill="#000" opacity="1">1,500</text><text text-anchor="end" transform="translate(-7,49.153846153846146)" font-family="Liberation Mono" font-size="10px" fill="#000" opacity="1">2,000</text><text text-anchor="end" transform="translate(-7,10.692307692307686)" font-family="Liberation Mono" font-size="10px" fill="#000" opacity="1">2,500</text></g><g class="mark-rule role-axis-domain" pointer-events="none"><line transform="translate(0,200)" x2="0" y2="-200" stroke="#888" stroke-width="1" opacity="1"/></g><g class="mark-text role-axis-title" pointer-events="none"><text text-anchor="middle" transform="translate(-51,100) rotate(-90) translate(0,-2)" font-family="Liberation Mono" font-size="11px" font-weight="bold" fill="#000" opacity="1">Price</text></g></g><path class="foreground" aria-hidden="true" d="" pointer-events="none" display="none"/></g></g><g class="mark-group role-scope pathgroup" role="graphics-object" aria-roledescription="group mark container"><g transform="translate(0,0)"><path class="background" aria-hidden="true" d="M0,0h200v200h-200Z"/><g><g class="mark-line role-mark marks" role="graphics-object" aria-roledescription="line mark container"><path aria-label="Time: Jan 01, 2024; Price: 2399; identifier: altex-LG-F2WR508SBW" role="graphics-symbol" aria-roledescription="line mark" d="M0,15.462L0.048,15.462L0.121,15.462L0.274,15.462L0.351,15.462L0.432,15.462L0.505,15.462L0.581,15.462L0.734,15.462L0.811,15.462L0.891,15.462L0.965,15.462L1.04,15.462L1.194,15.462L1.271,15.462L1.351,15.462L1.425,15.462L1.5,15.462L1.654,34.692L1.731,34.692L1.811,34.692L1.885,34.692L1.96,34.692L2.114,34.692L2.19,34.692L2.27,34.692L2.344,34.692L2.42,34.692L2.574,34.692L2.65,34.692L2.73,34.692L2.804,34.692L2.88,34.692L3.034,34.692L3.11,34.692L3.191,34.692L3.264,34.692L3.34,34.692L3.494,34.692L3.57,34.692L3.652,34.692L3.724,34.692L3.8,34.692L3.953,34.692L4.03,34.692L4.111,34.692L4.184,34.692L4.259,34.692L4.413,34.692L4.49,34.692L4.571,34.692L4.644,34.692L4.719,34.692L4.873,34.692L4.95,34.692L5.03,34.692L5.104,34.692L5.179,34.692L5.332,46.231L5.409,46.231L5.489,46.231L5.563,46.231L5.639,46.231L5.793,46.231L5.869,46.231L5.949,46.231L6.023,46.231L6.099,46.231L6.252,46.231L6.329,46.231L6.41,46.231L6.483,46.231L6.558,46.231L6.712,46.231L6.789,46.231L6.87,46.231L6.943,46.231L7.018,46.231L7.172,46.231L7.249,46.231L7.33,46.231L7.403,46.231L7.478,46.231L7.632,46.231L7.708,46.231L7.789,46.231L7.862,46.231L7.938,46.231L8.092,46.231L8.168,46.231L8.249,46.231L8.323,46.231L8.398,46.231L8.551,46.231L8.628,46.231L8.708,46.231L8.782,46.231L8.858,46.231L9.011,46.231L9.088,46.231L9.168,46.231L9.242,46.231L9.317,46.231L9.471,46.231L9.548,46.231L9.629,46.231L9.702,46.231L9.777,46.231L9.931,46.231L10.008,46.231L10.089,46.231L10.162,46.231L10.237,46.231L10.391,46.231L10.468,46.231L10.549,46.231L10.622,46.231L10.697,46.231L10.851,46.231L10.927,46.231L11.008,46.231L11.082,46.231L11.157,46.231L11.31,46.231L11.387,46.231L11.467,46.231L11.54,46.231L11.617,46.231L11.77,46.231L11.847,46.231L11.925,46.231L12,46.231L12.076,46.231L12.23,46.231L12.306,46.231L12.385,46.231L12.46,46.231L12.536,46.231L12.69,46.231L12.766,46.231L12.846,46.231L12.92,46.231L12.996,46.231L13.149,46.231L13.226,46.231L13.306,46.231L13.38,46.231L13.456,46.231L13.609,46.231L13.686,46.231L13.766,46.231L13.839,46.231L13.916,46.231L14.069,34.692L14.146,34.692L14.225,34.692L14.299,34.692L14.375,34.692L14.529,34.692L14.605,34.692L14.685,34.692L14.759,34.692L14.835,34.692L14.989,34.692L15.065,34.692L15.144,34.692L15.219,34.692L15.295,34.692L15.449,34.692L15.525,34.692L15.604,34.692L15.678,34.692L15.755,34.692L15.908,34.692L15.985,34.692L16.065,34.692L16.138,34.692L16.215,34.692L16.368,34.692L16.445,34.692L16.525,34.692L16.598,34.692L16.675,34.692L16.828,34.692L16.905,34.692L16.984,34.692L17.058,34.692L17.135,34.692L17.288,34.692L17.365,34.692L17.444,34.692L17.518,34.692L17.594,34.692L17.748,34.692L17.824,34.692L17.904,34.692L17.978,34.692L18.054,34.692L18.207,34.692L18.284,34.692L18.363,34.692L18.437,34.692L18.514,34.692L18.668,34.692L18.744,34.692L18.823,34.692L18.897,34.692L18.974,34.692L19.127,34.692L19.204,34.692L19.284,34.692L19.357,34.692L19.434,34.692L19.587,34.692L19.664,34.692L19.743,34.692L19.818,34.692L19.893,34.692L20.047,34.692L20.123,34.692L20.203,34.692L20.277,34.692L20.353,34.692L20.583,34.692L20.663,34.692L20.737,34.692L20.813,34.692L20.966,34.692L21.043,34.692L21.123,34.692L21.197,34.692L21.273,34.692L21.426,34.692L21.503,34.692L21.582,34.692L21.656,34.692L21.733,34.692L21.886,34.692L21.963,34.692L22.042,34.692L22.116,34.692L22.193,34.692L22.346,34.692L22.423,34.692L22.503,34.692L22.577,34.692L22.652,34.692L22.806,34.692L22.882,34.692L22.962,34.692L23.036,34.692L23.112,34.692L23.265,34.692L23.342,34.692L23.422,34.692L23.496,34.692L23.572,34.692L23.725,34.692L23.802,34.692L23.882,34.692L23.956,34.692L24.032,34.692L24.185,34.692L24.262,34.692L24.341,34.692L24.415,34.692L24.492,34.692L24.645,34.692L24.722,34.692L24.801,34.692L24.875,34.692L24.951,34.692L25.105,34.692L25.182,34.692L25.26,34.692L25.335,34.692L25.411,34.692L25.565,34.692L25.642,34.692L25.721,34.692L25.795,34.692L25.871,34.692L26.024,34.692L26.101,34.692L26.181,34.692L26.255,34.692L26.331,34.692L26.484,34.692L26.561,34.692L26.641,34.692L26.715,34.692L26.791,34.692L26.944,34.692L27.021,34.692L27.1,34.692L27.174,34.692L27.251,34.692L27.404,34.692L27.481,34.692L27.56,34.692L27.634,34.692L27.711,34.692L27.864,34.692L27.94,34.692L28.02,34.692L28.094,34.692L28.17,34.692L28.324,34.692L28.4,34.692L28.479,34.692L28.553,34.692L28.63,34.692L28.79,34.692L28.895,34.692L28.941,34.692L29.014,34.692L29.09,34.692L29.243,34.692L29.32,34.692L29.4,34.692L29.473,34.692L29.55,34.692L29.703,34.692L29.78,34.692L29.86,34.692L29.934,34.692L30.01,34.692L30.163,34.692L30.24,34.692L30.319,34.692L30.393,34.692L30.47,34.692L30.623,34.692L30.7,34.692L30.779,34.692L30.853,34.692L30.929,34.692L31.083,34.692L31.159,34.692L31.238,34.692L31.313,34.692L31.389,34.692L31.542,34.692L31.619,34.692L31.698,34.692L31.773,34.692L31.849,34.692L32.003,34.692L32.079,34.692L32.159,34.692L32.233,34.692L32.309,34.692L32.462,34.692L32.539,34.692L32.619,34.692L32.693,34.692L32.769,34.692L32.922,34.692L32.999,34.692L33.079,34.692L33.152,34.692L33.228,34.692L33.382,34.692L33.458,34.692L33.538,34.692L33.612,34.692L33.688,34.692L33.841,34.692L33.919,34.692L33.998,34.692L34.072,34.692L34.148,34.692L34.301,34.692L34.378,34.692L34.457,34.692L34.531,34.692L34.608,34.692L34.761,34.692L34.838,34.692L34.917,34.692L34.991,34.692L35.068,34.692L35.221,34.692L35.298,34.692L35.378,34.692L35.452,34.692L35.528,34.692L35.681,34.692L35.757,34.692L35.837,34.692L35.912,34.692L35.987,34.692L36.141,34.692L36.217,34.692L36.297,34.692L36.371,34.692L36.448,34.692L36.6,34.692L36.677,34.692L36.757,34.692L36.831,34.692L36.907,34.692L37.06,34.692L37.137,34.692L37.217,34.692L37.29,34.692L37.367,34.692L37.52,34.692L37.597,34.692L37.676,34.692L37.75,34.692L37.827,34.692L37.98,34.692L38.057,34.692L38.136,34.692L38.21,34.692L38.286,34.692L38.44,34.692L38.516,34.692L38.596,34.692L38.67,34.692L38.746,34.692L38.9,34.692L38.977,34.692L39.056,34.692L39.13,34.692L39.206,34.692L39.36,34.692L39.436,34.692L39.516,34.692L39.59,34.692L39.666,34.692L39.819,34.692L39.896,34.692L39.976,34.692L40.05,34.692L40.126,34.692L40.279,34.692L40.356,34.692L40.436,34.692L40.509,34.692L40.586,34.692L40.739,34.692L40.815,34.692L40.895,34.692L40.969,34.692L41.046,34.692L41.199,34.692L41.276,34.692L41.355,34.692L41.429,34.692L41.505,34.692L41.658,34.692L41.736,34.692L41.816,34.692L41.89,34.692L41.965,34.692L42.119,34.692L42.195,34.692L42.275,34.692L42.349,34.692L42.425,34.692L42.578,34.692L42.655,34.692L42.735,34.692L42.809,34.692L42.885,34.692L43.038,34.692L43.115,34.692L43.195,34.692L43.268,34.692L43.345,34.692L43.499,34.692L43.654,34.692L43.728,34.692L43.805,34.692L43.958,34.692L44.035,34.692L44.113,34.692L44.188,34.692L44.264,34.692L44.417,34.692L44.494,34.692L44.573,34.692L44.647,34.692L44.724,34.692L44.878,34.692L44.954,34.692L45.034,34.692L45.108,34.692L45.184,34.692L45.337,34.692L45.414,34.692L45.494,34.692L45.568,34.692L45.644,34.692L45.797,34.692L45.874,34.692L45.954,34.692L46.028,34.692L46.104,34.692L46.257,34.692L46.334,34.692L46.414,34.692L46.564,34.692L46.717,34.692L46.794,34.692L46.873,34.692L46.947,34.692L47.023,34.692L47.176,34.692L47.253,34.692L47.331,34.692L47.406,34.692L47.483,34.692L47.643,34.692L47.761,34.692L47.833,34.692L47.982,34.692L48.097,34.692L48.173,34.692L48.252,34.692L48.326,34.692L48.403,34.692L48.556,34.692L48.633,34.692L48.713,34.692L48.786,34.692L48.862,34.692L49.016,34.692L49.092,34.692L49.173,34.692L49.247,34.692L49.322,34.692L49.552,34.692L49.632,34.692L49.706,34.692L49.782,34.692L49.935,34.692L50.012,34.692L50.092,34.692L50.166,34.692L50.242,34.692L50.395,34.692L50.472,34.692L50.551,34.692L50.625,34.692L50.702,34.692L50.855,34.692L50.932,34.692L51.011,34.692L51.085,34.692L51.162,34.692L51.315,34.692L51.392,34.692L51.472,34.692L51.545,34.692L51.621,34.692L51.775,34.692L51.851,34.692L51.932,34.692L52.005,34.692L52.082,34.692L52.234,34.692L52.312,34.692L52.394,34.692L52.465,34.692L52.541,34.692L52.694,34.692L52.771,34.692L52.849,34.692L52.925,34.692L53.001,34.692L53.154,34.692L53.231,34.692L53.311,34.692L53.385,34.692L53.461,34.692L53.614,34.692L53.691,34.692L53.77,34.692L53.844,34.692L53.921,34.692L54.074,34.692L54.151,34.692L54.23,34.692L54.304,34.692L54.38,34.692L54.534,34.692L54.611,34.692L54.691,34.692L54.764,34.692L54.84,34.692L54.994,34.692L55.071,34.692L55.151,34.692L55.224,34.692L55.3,34.692L55.453,34.692L55.531,34.692L55.611,34.692L55.684,34.692L55.76,34.692L55.914,57.769L55.99,57.769L56.071,57.769L56.144,57.769L56.22,57.769L56.373,57.769L56.45,57.769L56.53,57.769L56.603,57.769L56.68,57.769L56.833,57.769L56.909,57.769L56.989,57.769L57.063,57.769L57.139,57.769L57.293,57.769L57.37,57.769L57.449,57.769L57.523,57.769L57.599,57.769L57.753,57.769L57.83,57.769L57.91,57.769L57.983,57.769L58.059,57.769L58.212,57.769L58.289,57.769L58.369,57.769L58.443,57.769L58.519,57.769L58.672,57.769L58.749,57.769L58.83,57.769L58.903,57.769L58.979,57.769L59.133,34.692L59.21,34.692L59.289,34.692L59.364,34.692L59.439,34.692L59.592,34.692L59.668,34.692L59.749,34.692L59.822,34.692L59.898,34.692L60.052,34.692L60.128,34.692L60.208,34.692L60.281,34.692L60.358,34.692L60.512,34.692L60.588,34.692L60.668,34.692L60.742,34.692L60.818,34.692L60.972,34.692L61.048,34.692L61.129,34.692L61.202,34.692L61.278,34.692L61.431,34.692L61.508,34.692L61.589,34.692L61.662,34.692L61.738,34.692L61.891,34.692L61.968,34.692L62.049,34.692L62.122,34.692L62.198,34.692L62.351,34.692L62.428,34.692L62.509,34.692L62.581,34.692L62.657,34.692L62.811,34.692L62.887,34.692L62.968,34.692L63.041,34.692L63.117,34.692L63.27,34.692L63.347,34.692L63.427,34.692L63.5,34.692L63.577,34.692L63.731,34.692L63.807,34.692L63.887,34.692L63.961,34.692L64.037,34.692L64.191,34.692L64.267,34.692L64.348,34.692L64.421,34.692L64.497,34.692L64.65,34.692L64.727,34.692L64.808,34.692L64.88,34.692L64.957,34.692L65.11,34.692L65.187,34.692L65.268,34.692L65.341,34.692L65.416,34.692L65.57,34.692L65.646,34.692L65.727,34.692L65.801,34.692L65.876,34.692L66.03,34.692L66.106,34.692L66.187,34.692L66.26,34.692L66.336,34.692L66.49,34.692L66.566,34.692L66.646,34.692L66.72,34.692L66.796,34.692L66.949,34.692L67.026,34.692L67.106,34.692L67.179,34.692L67.256,34.692L67.409,34.692L67.486,34.692L67.567,34.692L67.64,34.692L67.715,34.692L67.87,34.692L67.946,34.692L68.026,34.692L68.099,34.692L68.175,34.692L68.329,34.692L68.406,34.692L68.486,34.692L68.559,34.692L68.635,34.692L68.789,34.692L68.865,34.692L68.946,34.692L69.019,34.692L69.095,34.692L69.249,34.692L69.325,34.692L69.406,34.692L69.479,34.692L69.555,34.692L69.708,34.692L69.785,34.692L69.865,34.692L69.938,34.692L70.014,34.692L70.168,34.692L70.245,34.692L70.325,34.692L70.398,34.692L70.474,34.692L70.628,34.692L70.705,34.692L70.786,34.692L70.859,34.692L70.935,34.692L71.088,34.692L71.165,34.692L71.246,34.692L71.319,34.692L71.394,34.692L71.548,34.692L71.625,34.692L71.705,34.692L71.778,34.692L71.854,34.692L72.007,34.692L72.084,34.692L72.165,34.692L72.238,34.692L72.314,34.692L72.467,34.692L72.544,34.692L72.625,34.692L72.699,34.692L72.774,34.692L72.927,34.692L73.003,34.692L73.084,34.692L73.158,34.692L73.233,34.692L73.387,34.692L73.463,34.692L73.544,34.692L73.617,34.692L73.693,34.692L73.847,34.692L73.924,34.692L74.005,34.692L74.078,34.692L74.153,34.692L74.307,34.692L74.384,34.692L74.465,34.692L74.537,34.692L74.613,34.692L74.766,34.692L74.843,46.231L74.924,46.231L74.997,46.231L75.073,46.231L75.226,46.231L75.303,46.231L75.384,46.231L75.458,46.231L75.533,46.231L75.686,46.231L75.763,46.231L75.844,48.538L75.916,48.538L75.993,48.538L76.146,48.538L76.223,48.538L76.303,48.538L76.376,48.538L76.452,48.538L76.606,48.538L76.682,48.538L76.763,48.538L76.836,48.538L76.912,48.538L77.066,48.538L77.143,48.538L77.224,48.538L77.296,48.538L77.372,48.538L77.525,48.538L77.603,48.538L77.683,48.538L77.756,48.538L77.832,48.538L77.985,48.538L78.062,48.538L78.143,48.538L78.216,48.538L78.292,48.538L78.445,48.538L78.522,48.538L78.603,48.538L78.677,48.538L78.751,48.538L78.905,48.538L78.982,48.538L79.062,48.538L79.135,48.538L79.211,48.538L79.364,48.538L79.441,48.538L79.523,48.538L79.595,48.538L79.671,48.538L79.824,48.538L79.901,48.538L79.981,48.538L80.054,48.538L80.131,48.538L80.284,48.538L80.361,48.538L80.442,48.538L80.515,48.538L80.591,48.538L80.744,48.538L80.821,48.538L80.902,48.538L81.051,48.538L81.205,48.538L81.281,48.538L81.362,48.538L81.435,48.538L81.51,48.538L81.665,48.538L81.741,48.538L81.822,48.538L81.895,48.538L81.97,48.538L82.124,48.538L82.201,48.538L82.282,48.538L82.354,48.538L82.43,48.538L82.584,48.538L82.66,48.538L82.741,48.538L82.814,48.538L82.89,48.538L83.043,48.538L83.12,48.538L83.2,48.538L83.274,48.538L83.35,48.538L83.503,48.538L83.58,48.538L83.662,48.538L83.734,48.538L83.809,48.538L83.963,48.538L84.04,48.538L84.121,48.538L84.194,48.538L84.269,48.538L84.423,48.538L84.5,48.538L84.581,48.538L84.654,48.538L84.729,48.538L84.883,48.538L84.96,48.538L85.04,48.538L85.113,48.538L85.189,48.538L85.343,48.538L85.419,48.538L85.5,48.538L85.573,48.538L85.649,48.538L85.803,48.538L85.879,48.538L85.959,48.538L86.033,48.538L86.109,48.538L86.262,48.538L86.338,48.538L86.419,48.538L86.492,48.538L86.569,48.538L86.722,48.538L86.799,48.538L86.88,48.538L86.953,48.538L87.028,48.538L87.182,48.538L87.259,48.538L87.34,48.538L87.413,48.538L87.488,48.538L87.642,48.538L87.719,48.538L87.8,48.538L87.872,48.538L87.948,48.538L88.102,48.538L88.178,48.538L88.26,48.538L88.332,48.538L88.408,48.538L88.561,48.538L88.638,48.538L88.719,48.538L88.792,48.538L88.868,48.538L89.021,48.538L89.097,48.538L89.178,48.538L89.251,48.538L89.327,48.538L89.482,48.538L89.558,48.538L89.643,48.538L89.715,48.538L89.787,48.538L89.941,48.538L90.018,48.538L90.099,48.538L90.172,48.538L90.247,48.538L90.401,48.538L90.478,48.538L90.557,48.538L90.632,48.538L90.707,48.538L90.86,48.538L90.938,48.538L91.019,48.538L91.092,48.538L91.167,48.538L91.321,48.538L91.397,48.538L91.479,48.538L91.551,48.538L91.626,48.538L91.781,48.538L91.857,48.538L91.938,48.538L92.011,48.538L92.086,48.538L92.24,48.538L92.316,48.538L92.397,48.538L92.47,48.538L92.546,48.538L92.7,48.538L92.776,48.538L92.857,48.538L92.931,48.538L93.006,48.538L93.16,48.538L93.237,48.538L93.318,48.538L93.391,48.538L93.466,48.538L93.619,48.538L93.697,48.538L93.778,48.538L93.85,48.538L93.926,48.538L94.079,27L94.156,27L94.238,27L94.31,27L94.385,27L94.54,27L94.616,27L94.697,27L94.77,27L94.846,27L94.999,27L95.076,27L95.157,27L95.23,27L95.305,27L95.459,27L95.535,27L95.617,27L95.689,27L95.765,27L95.918,27L95.995,27L96.076,27L96.149,27L96.225,27L96.379,27L96.455,27L96.537,27L96.609,27L96.685,27L96.838,27L96.915,27L96.996,27L97.069,27L97.144,27L97.298,27L97.374,27L97.456,27L97.529,27L97.604,27L97.758,27L97.835,27L97.916,27L97.989,27L98.064,27L98.218,27L98.295,27L98.376,27L98.449,27L98.524,27L98.678,27L98.754,27L98.835,27L98.908,27L98.984,27L99.138,27L99.214,27L99.295,27L99.367,27L99.444,27L99.597,27L99.674,27L99.756,27L99.828,27L99.904,27L100.058,27L100.134,27L100.215,27L100.288,27L100.363,27L100.517,27L100.594,27L100.675,27L100.748,27L100.823,27L100.977,27L101.054,27L101.135,27L101.208,27L101.283,27L101.437,27L101.514,27L101.595,27L101.667,27L101.743,27L101.897,27L101.973,27L102.054,27L102.128,27L102.202,27L102.356,27L102.433,27L102.514,27L102.587,27L102.663,27L102.816,27L102.893,27L102.975,27L103.047,27L103.122,27L103.276,27L103.353,27L103.434,27L103.507,27L103.582,27L103.736,27L103.813,27L103.894,27L103.967,27L104.042,27L104.196,27L104.273,27L104.354,27L104.426,27L104.502,27L104.655,27L104.732,27L104.813,27L104.886,27L104.961,27L105.115,27L105.192,27L105.272,27L105.346,27L105.422,27L105.575,27L105.652,27L105.733,27L105.805,27L105.881,27L106.035,27L106.112,27L106.193,27L106.265,27L106.341,27L106.496,27L106.572,27L106.653,27L106.725,27L106.801,27L106.955,27L107.032,27L107.111,27L107.186,27L107.261,27L107.414,27L107.491,27L107.573,27L107.646,27L107.72,27L107.874,27L107.951,27L108.032,27L108.105,27L108.18,27L108.334,27L108.41,27L108.492,27L108.564,27L108.64,27L108.794,27L108.871,27L108.951,27L109.024,27L109.101,27L109.255,27L109.331,27L109.412,27L109.485,27L109.56,27L109.714,27L109.791,27L109.872,27L109.944,27L110.02,27L110.174,27L110.251,27L110.332,27L110.405,27L110.479,27L110.634,27L110.71,27L110.792,27L110.864,27L110.939,27L111.094,27L111.17,27L111.252,27L111.324,27L111.399,27L111.553,27L111.63,27L111.711,27L111.784,27L111.859,27L112.013,27L112.09,27L112.171,27L112.243,27L112.319,27L112.473,27L112.55,27L112.632,27L112.704,27L112.779,27L112.933,27L113.01,27L113.091,27L113.164,27L113.239,27L113.393,27L113.47,27L113.551,27L113.623,27L113.699,27L113.853,27L113.929,27L114.011,27L114.083,27L114.158,27L114.312,27L114.389,27L114.47,27L114.544,27L114.618,27L114.772,27L114.848,27L114.929,27L115.002,27L115.078,27L115.232,27L115.308,27L115.389,27L115.462,27L115.538,27L115.692,27L115.769,27L115.851,27L115.922,27L115.998,27L116.152,27L116.229,27L116.311,27L116.382,27L116.457,27L116.612,27L116.689,27L116.77,27L116.842,27L116.917,27L117.072,27L117.149,27L117.23,27L117.302,27L117.377,27L117.531,27L117.608,27L117.689,27L117.762,27L117.837,27L117.991,46.231L118.068,46.231L118.149,46.231L118.221,46.231L118.297,46.231L118.451,46.231L118.527,46.231L118.609,46.231L118.681,46.231L118.756,46.231L118.911,46.231L118.988,46.231L119.07,46.231L119.142,46.231L119.217,46.231L119.369,46.231L119.448,46.231L119.529,46.231L119.601,46.231L119.676,46.231L119.831,46.231L119.907,46.231L119.989,46.231L120.061,46.231L120.136,46.231L120.291,53.923L120.367,53.923L120.449,53.923L120.521,53.923L120.596,53.923L120.75,53.923L120.827,53.923L120.909,53.923L120.981,53.923L121.056,53.923L121.21,53.923L121.286,53.923L121.367,53.923L121.44,53.923L121.515,53.923L121.67,53.923L121.746,53.923L121.827,53.923L121.9,53.923L121.975,53.923L122.13,53.923L122.207,53.923L122.288,53.923L122.36,53.923L122.436,53.923L122.59,53.923L122.667,53.923L122.749,53.923L122.82,53.923L122.895,53.923L123.049,53.923L123.127,53.923L123.208,53.923L123.281,53.923L123.355,53.923L123.509,23.154L123.586,23.154L123.668,23.154L123.74,23.154L123.815,23.154L123.969,23.154L124.046,23.154L124.128,23.154L124.2,23.154L124.429,23.154L124.505,23.154L124.587,23.154L124.659,23.154L124.734,23.154L124.888,23.154L124.965,23.154L125.046,23.154L125.119,23.154L125.194,23.154L125.349,23.154L125.426,23.154L125.508,23.154L125.58,23.154L125.654,23.154L125.809,23.154L125.886,23.154L125.968,23.154L126.039,23.154L126.114,23.154L126.268,23.154L126.345,23.154L126.427,23.154L126.499,23.154L126.575,23.154L126.728,23.154L126.805,23.154L126.887,23.154L126.959,23.154L127.034,23.154L127.188,23.154L127.265,23.154L127.347,23.154L127.419,23.154L127.494,23.154L127.648,23.154L127.724,23.154L127.805,23.154L127.878,23.154L127.953,23.154L128.107,23.154L128.184,23.154L128.265,23.154L128.337,23.154L128.413,23.154L128.567,23.154L128.645,23.154L128.726,23.154L128.798,23.154L128.873,23.154L129.027,23.154L129.104,23.154L129.186,23.154L129.258,23.154L129.333,23.154L129.487,23.154L129.564,23.154L129.646,23.154L129.717,23.154L129.793,23.154L129.947,23.154L130.024,23.154L130.106,23.154L130.177,23.154L130.253,23.154L130.407,23.154L130.484,23.154L130.565,23.154L130.637,23.154L130.713,23.154L130.867,23.154L130.943,23.154L131.024,23.154L131.097,23.154L131.172,23.154L131.326,23.154L131.403,23.154L131.484,23.154L131.556,23.154L131.632,23.154L131.786,23.154L131.864,23.154L131.945,23.154L132.017,23.154L132.092,23.154L132.246,23.154L132.323,23.154L132.405,23.154L132.477,23.154L132.552,23.154L132.706,23.154L132.783,23.154L132.865,23.154L132.936,23.154L133.012,23.154L133.166,23.154L133.243,23.154L133.324,23.154L133.397,23.154L133.471,23.154L133.626,23.154L133.703,23.154L133.784,23.154L133.856,23.154L133.931,23.154L134.085,23.154L134.162,23.154L134.243,23.154L134.315,23.154L134.391,23.154L134.545,23.154L134.622,23.154L134.703,23.154L134.775,23.154L134.851,23.154L135.005,23.154L135.082,23.154L135.164,23.154L135.236,23.154L135.311,23.154L135.465,23.154L135.542,23.154L135.624,23.154L135.696,23.154L135.77,23.154L135.925,23.154L136.002,23.154L136.083,23.154L136.156,23.154L136.231,23.154L136.385,23.154L136.462,23.154L136.543,23.154L136.615,23.154L136.69,23.154L136.845,23.154L136.921,23.154L137.003,23.154L137.075,23.154L137.15,23.154L137.304,23.154L137.381,23.154L137.462,23.154L137.534,23.154L137.609,23.154L137.764,23.154L137.841,23.154L137.922,23.154L137.994,23.154L138.07,23.154L138.224,23.154L138.301,23.154L138.383,23.154L138.455,23.154L138.529,23.154L138.684,23.154L138.761,23.154L138.843,23.154L138.915,23.154L138.989,23.154L139.144,23.154L139.221,23.154L139.302,23.154L139.375,23.154L139.449,23.154L139.762,23.154L139.834,23.154L139.909,23.154L140.063,23.154L140.14,23.154L140.221,23.154L140.293,23.154L140.369,23.154L140.523,23.154L140.599,23.154L140.681,23.154L140.753,23.154L140.828,23.154L140.982,23.154L141.059,23.154L141.14,23.154L141.212,23.154L141.288,23.154L141.443,23.154L141.52,23.154L141.602,23.154L141.673,23.154L141.748,23.154L141.902,23.154L141.979,23.154L142.061,23.154L142.132,23.154L142.208,23.154L142.362,23.154L142.439,23.154L142.521,23.154L142.593,23.154L142.668,23.154L142.822,58.538L142.899,58.538L142.98,58.538L143.053,58.538L143.127,58.538L143.281,58.538L143.358,58.538L143.44,58.538L143.512,58.538L143.587,58.538L143.741,58.538L143.818,58.538L143.899,58.538L143.972,58.538L144.047,58.538L144.201,58.538L144.277,58.538L144.359,58.538L144.431,58.538L144.506,58.538L144.661,58.538L144.738,58.538L144.82,58.538L144.892,58.538L144.967,58.538L145.121,58.538L145.198,58.538L145.28,58.538L145.352,58.538L145.427,58.538L145.581,58.538L145.658,58.538L145.74,58.538L145.812,58.538L145.886,58.538L146.041,23.154L146.118,23.154L146.2,23.154L146.272,23.154L146.347,23.154L146.501,23.154L146.578,23.154L146.66,23.154L146.732,23.154L146.807,23.154L146.961,23.154L147.037,23.154L147.119,23.154L147.191,23.154L147.266,23.154L147.42,23.154L147.497,23.154L147.578,23.154L147.65,23.154L147.726,23.154L147.881,23.154L147.958,23.154L148.04,23.154L148.112,23.154L148.186,23.154L148.34,23.154L148.418,23.154L148.499,23.154L148.571,23.154L148.646,23.154L148.8,23.154L148.878,23.154L148.959,23.154L149.031,23.154L149.106,23.154L149.26,23.154L149.337,23.154L149.419,23.154L149.491,23.154L149.566,23.154L149.72,23.154L149.797,23.154L149.879,23.154L149.951,23.154L150.026,23.154L150.179,23.154L150.256,23.154L150.338,23.154L150.41,23.154L150.485,23.154L150.639,23.154L150.716,23.154L150.797,23.154L150.87,23.154L150.945,23.154L151.1,23.154L151.177,23.154L151.259,23.154L151.33,23.154L151.405,23.154L151.559,23.154L151.637,23.154L151.719,23.154L151.79,23.154L151.865,23.154L152.019,23.154L152.097,23.154L152.178,23.154L152.25,23.154L152.325,23.154L152.479,23.154L152.556,23.154L152.638,23.154L152.71,23.154L152.784,23.154L152.939,23.154L153.016,23.154L153.098,23.154L153.169,23.154L153.244,23.154L153.398,23.154L153.475,23.154L153.556,23.154L153.629,23.154L153.704,23.154L153.858,23.154L153.935,23.154L154.017,23.154L154.088,23.154L154.164,23.154L154.318,23.154L154.396,23.154L154.478,23.154L154.549,23.154L154.624,23.154L154.778,23.154L154.855,23.154L154.937,23.154L155.009,23.154L155.084,23.154L155.238,23.154L155.316,23.154L155.397,23.154L155.469,23.154L155.544,23.154L155.698,23.154L155.775,23.154L155.857,23.154L155.929,23.154L156.003,23.154L156.158,23.154L156.235,23.154L156.317,23.154L156.388,23.154L156.463,23.154L156.617,23.154L156.694,23.154L156.775,23.154L156.847,23.154L156.922,23.154L157.077,23.154L157.154,23.154L157.235,23.154L157.307,23.154L157.383,23.154L157.537,23.154L157.615,23.154L157.697,23.154L157.768,23.154L157.843,23.154L157.997,23.154L158.074,23.154L158.157,23.154L158.228,23.154L158.303,23.154L158.457,23.154L158.534,23.154L158.616,23.154L158.688,23.154L158.762,23.154L158.917,23.154L158.994,23.154L159.076,23.154L159.148,23.154L159.222,23.154L159.376,23.154L159.454,23.154L159.536,23.154L159.607,23.154L159.682,23.154L159.836,23.154L159.913,23.154L159.994,23.154L160.066,23.154L160.141,23.154L160.296,23.154L160.372,23.154L160.454,23.154L160.526,23.154L160.601,23.154L160.756,23.154L160.833,23.154L160.915,23.154L160.987,23.154L161.062,23.154L161.216,23.154L161.293,23.154L161.375,23.154L161.447,23.154L161.521,23.154L161.675,23.154L161.753,23.154L161.834,23.154L161.906,23.154L161.981,23.154L162.135,23.154L162.212,23.154L162.294,23.154L162.365,23.154L162.44,23.154L162.594,23.154L162.671,23.154L162.753,23.154L162.825,23.154L162.9,23.154L163.054,23.154L163.131,23.154L163.212,23.154L163.284,23.154L163.359,23.154L163.514,23.154L163.59,23.154L163.671,23.154L163.744,23.154L163.819,23.154L163.974,23.154L164.051,23.154L164.133,23.154L164.204,23.154L164.279,23.154L164.433,23.154L164.511,23.154L164.592,23.154L164.664,23.154L164.739,23.154L164.893,23.154L164.97,23.154L165.052,23.154L165.124,23.154L165.199,23.154L165.353,23.154L165.43,23.154L165.512,23.154L165.583,23.154L165.659,23.154L165.813,23.154L165.89,23.154L165.971,23.154L166.043,23.154L166.119,23.154L166.273,23.154L166.349,23.154L166.43,23.154L166.503,23.154L166.578,23.154L166.732,23.154L166.809,23.154L166.89,23.154L166.962,23.154L167.038,23.154L167.192,23.154L167.27,23.154L167.351,23.154L167.423,23.154L167.498,23.154L167.652,23.154L167.729,23.154L167.811,23.154L167.883,23.154L167.958,23.154L168.112,23.154L168.189,23.154L168.27,23.154L168.343,23.154L168.418,23.154L168.572,23.154L168.649,23.154L168.731,23.154L168.802,23.154L168.878,23.154L169.032,23.154L169.109,23.154L169.19,23.154L169.262,23.154L169.337,23.154L169.491,23.154L169.568,23.154L169.65,23.154L169.722,23.154L169.797,23.154L169.951,23.154L170.028,23.154L170.109,23.154L170.182,23.154L170.257,23.154L170.411,23.154L170.489,23.154L170.571,23.154L170.642,23.154L170.717,23.154L170.871,23.154L170.948,23.154L171.03,23.154L171.105,23.154L171.177,23.154L171.331,23.154L171.408,23.154L171.49,23.154L171.562,23.154L171.637,23.154L171.791,23.154L171.868,23.154L171.95,23.154L172.022,23.154L172.097,23.154L172.251,23.154L172.328,23.154L172.409,23.154L172.481,23.154L172.557,23.154L172.71,23.154L172.787,23.154L172.868,23.154L172.94,23.154L173.016,23.154L173.17,23.154L173.247,23.154L173.328,23.154L173.4,23.154L173.476,23.154L173.63,23.154L173.708,23.154L173.79,23.154L173.861,23.154L173.936,23.154L174.089,23.154L174.167,23.154L174.248,23.154L174.32,23.154L174.395,23.154L174.549,23.154L174.627,23.154L174.708,23.154L174.78,23.154L174.855,23.154L175.009,23.154L175.086,23.154L175.168,23.154L175.315,23.154L175.47,23.154L175.546,23.154L175.627,23.154L175.699,23.154L176.005,23.154L176.086,23.154L176.159,23.154L176.235,23.154L176.388,23.154L176.465,23.154L176.546,23.154L176.619,23.154L176.694,23.154L176.849,23.154L176.926,23.154L177.007,23.154L177.079,23.154L177.154,23.154L177.308,23.154L177.385,23.154L177.467,23.154L177.539,23.154L177.614,23.154L177.768,23.154L177.846,23.154L177.927,23.154L177.999,23.154L178.074,23.154L178.228,23.154L178.305,23.154L178.387,23.154L178.459,23.154L178.534,23.154L178.688,23.154L178.765,23.154L178.846,23.154L178.918,23.154L178.994,23.154L179.148,23.154L179.224,23.154L179.305,23.154L179.378,23.154L179.453,23.154L179.607,23.154L179.684,23.154L179.765,23.154L179.837,23.154L179.913,23.154L180.068,23.154L180.145,23.154L180.226,23.154L180.298,23.154L180.373,23.154L180.527,23.154L180.604,23.154L180.686,23.154L180.758,23.154L180.833,23.154L180.987,23.154L181.064,23.154L181.145,23.154L181.217,23.154L181.293,23.154L181.447,23.154L181.524,23.154L181.605,23.154L181.679,23.154L181.753,23.154L181.907,23.154L181.983,23.154L182.065,23.154L182.137,23.154L182.212,23.154L182.367,23.154L182.443,23.154L182.524,23.154L182.596,23.154L182.672,23.154L182.826,23.154L182.903,23.154L182.983,23.154L183.056,23.154L183.132,23.154L183.286,23.154L183.363,23.154L183.445,23.154L183.517,23.154L183.592,23.154L183.746,23.154L183.823,23.154L183.905,23.154L183.977,23.154L184.052,23.154L184.206,23.154L184.283,23.154L184.365,23.154L184.437,23.154L184.512,23.154L184.666,23.154L184.743,23.154L184.825,23.154L184.896,23.154L184.972,23.154L185.126,23.154L185.202,23.154L185.284,23.154L185.356,23.154L185.431,23.154L185.585,23.154L185.662,23.154L185.743,23.154L185.815,23.154L185.891,23.154L186.045,23.154L186.121,23.154L186.202,23.154L186.275,23.154L186.351,23.154L186.506,23.154L186.582,23.154L186.664,23.154L186.736,23.154L186.811,23.154L186.965,23.154L187.042,23.154L187.124,23.154L187.196,23.154L187.271,23.154L187.425,23.154L187.502,23.154L187.584,23.154L187.656,23.154L187.731,23.154L187.962,40.846L188.043,40.846L188.116,40.846L188.192,40.846L188.344,40.846L188.421,40.846L188.503,40.846L188.575,40.846L188.65,40.846L188.805,40.846L188.881,40.846L188.962,40.846L189.034,40.846L189.11,40.846L189.264,40.846L189.34,40.846L189.422,40.846L189.494,40.846L189.569,40.846L189.724,40.846L189.801,40.846L189.883,40.846L189.954,40.846L190.03,40.846L190.184,40.846L190.261,40.846L190.342,40.846L190.415,40.846L190.49,40.846L190.644,40.846L190.721,40.846L190.802,40.846L190.874,40.846L190.949,40.846L191.103,23.154L191.181,23.154L191.262,23.154L191.335,23.154L191.41,23.154L191.564,23.154L191.64,23.154L191.722,23.154L191.793,23.154L191.869,23.154L192.023,23.154L192.099,23.154L192.18,23.154L192.253,23.154L192.329,23.154L192.483,23.154L192.559,23.154L192.641,23.154L192.713,23.154L192.789,23.154L192.943,23.154L193.02,23.154L193.102,23.154L193.174,23.154L193.249,23.154L193.403,23.154L193.48,23.154L193.562,23.154L193.634,23.154L193.709,23.154L193.863,23.154L193.94,23.154L194.022,30.846L194.094,30.846L194.168,30.846L194.323,30.846L194.4,30.846L194.482,46.231L194.554,46.231L194.628,46.231L194.782,46.231L194.859,46.231L194.941,46.231L195.013,46.231L195.088,46.231L195.242,46.231L195.319,46.231L195.4,46.231L195.472,46.231L195.547,46.231L195.702,46.231L195.778,46.231L195.859,46.231L195.932,46.231L196.007,46.231L196.162,46.231L196.24,46.231L196.321,46.231L196.393,46.231L196.468,46.231L196.622,46.231L196.699,46.231L196.781,46.231L196.853,46.231L196.928,46.231L197.082,46.231L197.159,46.231L197.241,46.231L197.314,46.231L197.388,46.231L197.542,46.231L197.619,46.231L197.7,46.231L197.772,46.231L197.847,46.231L198.001,46.231L198.078,46.231L198.16,46.231L198.232,46.231L198.306,46.231L198.459,46.231L198.536,46.231L198.616,46.231L198.689,46.231L198.766,46.231L198.919,46.231L198.996,46.231L199.076,46.231L199.149,46.231L199.226,46.231L199.38,46.231L199.456,46.231L199.54,46.231L199.612,46.231L199.687,46.231L199.841,46.231L199.918,46.231L200,46.231" stroke="#4c78a8" stroke-width="2"/></g></g><path class="foreground" aria-hidden="true" d="" display="none"/></g><g transform="translate(0,0)"><path class="background" aria-hidden="true" d="M0,0h200v200h-200Z"/><g><g class="mark-line role-mark marks" role="graphics-object" aria-roledescription="line mark container"><path aria-label="Time: Jan 01, 2024; Price: 2499; identifier: altex-LG-F2WR508SBM" role="graphics-symbol" aria-roledescription="line mark" d="M0,7.769L0.048,7.769L0.121,7.769L0.274,7.769L0.351,7.769L0.432,7.769L0.505,7.769L0.581,7.769L0.734,7.769L0.811,7.769L0.891,7.769L0.965,7.769L1.04,7.769L1.194,7.769L1.271,7.769L1.351,7.769L1.425,7.769L1.501,7.769L1.654,27L1.731,27L1.811,27L1.885,27L1.96,27L2.114,27L2.19,27L2.271,27L2.344,27L2.42,27L2.574,27L2.65,27L2.73,27L2.804,27L2.88,27L3.034,27L3.11,27L3.191,27L3.264,27L3.34,27L3.494,27L3.57,27L3.652,27L3.724,27L3.8,27L3.953,27L4.03,27L4.111,27L4.184,27L4.259,27L4.413,27L4.49,27L4.571,27L4.644,27L4.719,27L4.873,27L4.95,27L5.03,27L5.104,27L5.179,27L5.332,38.538L5.409,38.538L5.489,38.538L5.563,38.538L5.639,38.538L5.793,38.538L5.869,38.538L5.949,38.538L6.023,38.538L6.099,38.538L6.252,38.538L6.329,38.538L6.41,38.538L6.483,38.538L6.558,38.538L6.712,38.538L6.789,38.538L6.87,38.538L6.943,38.538L7.018,38.538L7.172,38.538L7.249,38.538L7.33,38.538L7.403,38.538L7.478,38.538L7.632,38.538L7.708,38.538L7.789,38.538L7.862,38.538L7.938,38.538L8.092,38.538L8.168,38.538L8.249,38.538L8.323,38.538L8.398,38.538L8.551,38.538L8.628,38.538L8.708,38.538L8.782,38.538L8.858,38.538L9.011,38.538L9.088,38.538L9.168,38.538L9.242,38.538L9.317,38.538L9.471,38.538L9.548,38.538L9.629,38.538L9.702,38.538L9.777,38.538L9.931,38.538L10.008,38.538L10.089,38.538L10.162,38.538L10.237,38.538L10.391,38.538L10.468,38.538L10.549,38.538L10.622,38.538L10.697,38.538L10.851,38.538L10.927,38.538L11.008,38.538L11.082,38.538L11.157,38.538L11.31,38.538L11.387,38.538L11.467,38.538L11.54,38.538L11.617,38.538L11.77,38.538L11.847,38.538L11.925,38.538L12,38.538L12.076,38.538L12.23,38.538L12.306,38.538L12.385,38.538L12.46,38.538L12.536,38.538L12.69,38.538L12.766,38.538L12.846,38.538L12.92,38.538L12.996,38.538L13.149,38.538L13.226,38.538L13.306,38.538L13.38,38.538L13.456,38.538L13.609,38.538L13.686,38.538L13.766,38.538L13.839,38.538L13.916,38.538L14.069,27L14.146,27L14.225,27L14.299,27L14.375,27L14.529,27L14.605,27L14.685,27L14.759,27L14.835,27L14.989,27L15.065,27L15.144,27L15.219,27L15.295,27L15.449,27L15.525,27L15.604,27L15.678,27L15.755,27L15.908,27L15.985,27L16.065,27L16.138,27L16.215,27L16.368,27L16.445,27L16.525,27L16.598,27L16.675,27L16.828,27L16.905,27L16.984,27L17.058,27L17.135,27L17.288,27L17.365,27L17.444,27L17.518,27L17.594,27L17.748,27L17.824,27L17.904,27L17.978,27L18.054,27L18.207,27L18.284,27L18.363,27L18.437,27L18.514,27L18.668,27L18.744,27L18.823,27L18.897,27L18.974,27L19.127,27L19.204,27L19.284,27L19.357,27L19.434,27L19.587,27L19.664,27L19.743,27L19.818,27L19.893,27L20.047,27L20.123,27L20.203,27L20.277,27L20.353,27L20.583,27L20.663,27L20.737,27L20.813,27L20.966,27L21.043,27L21.123,27L21.197,27L21.273,27L21.426,27L21.503,27L21.582,27L21.656,27L21.733,27L21.886,27L21.963,27L22.042,27L22.116,27L22.193,27L22.346,27L22.423,27L22.503,27L22.577,27L22.652,27L22.806,27L22.882,27L22.962,27L23.036,27L23.112,27L23.265,27L23.342,27L23.422,27L23.496,27L23.572,27L23.725,27L23.802,27L23.882,27L23.956,27L24.032,27L24.185,27L24.262,27L24.341,27L24.415,27L24.492,27L24.645,27L24.722,27L24.801,27L24.875,27L24.951,27L25.105,27L25.182,27L25.26,27L25.335,27L25.411,27L25.565,27L25.642,27L25.721,27L25.795,27L25.871,27L26.024,27L26.101,27L26.181,27L26.255,27L26.331,27L26.484,27L26.561,27L26.641,27L26.715,27L26.791,27L26.944,27L27.021,27L27.1,27L27.174,27L27.251,27L27.404,27L27.481,27L27.56,27L27.634,27L27.711,27L27.864,27L27.94,27L28.02,27L28.094,27L28.17,27L28.324,27L28.4,27L28.479,27L28.553,27L28.63,27L28.79,27L28.895,27L28.941,27L29.014,27L29.09,27L29.243,27L29.32,27L29.4,27L29.473,27L29.55,27L29.703,27L29.78,27L29.86,27L29.934,27L30.01,27L30.163,27L30.24,27L30.319,38.538L30.393,38.538L30.47,38.538L30.623,38.538L30.7,38.538L30.779,38.538L30.853,38.538L30.929,38.538L31.083,38.538L31.159,38.538L31.238,38.538L31.313,38.538L31.389,38.538L31.542,38.538L31.619,38.538L31.698,38.538L31.773,38.538L31.849,38.538L32.003,38.538L32.079,38.538L32.159,38.538L32.233,38.538L32.309,38.538L32.462,38.538L32.539,38.538L32.619,38.538L32.693,38.538L32.769,38.538L32.922,38.538L32.999,38.538L33.079,38.538L33.152,38.538L33.228,38.538L33.382,38.538L33.458,38.538L33.538,38.538L33.612,38.538L33.688,38.538L33.841,38.538L33.919,38.538L33.998,38.538L34.072,38.538L34.148,38.538L34.301,38.538L34.378,38.538L34.457,38.538L34.531,38.538L34.608,38.538L34.761,38.538L34.838,38.538L34.917,38.538L34.991,38.538L35.068,38.538L35.221,38.538L35.298,38.538L35.378,38.538L35.452,38.538L35.528,38.538L35.681,38.538L35.757,38.538L35.837,38.538L35.912,38.538L35.987,38.538L36.141,38.538L36.217,38.538L36.297,38.538L36.372,38.538L36.448,38.538L36.6,38.538L36.677,38.538L36.757,38.538L36.832,38.538L36.907,38.538L37.06,38.538L37.137,38.538L37.217,38.538L37.29,38.538L37.367,38.538L37.52,38.538L37.597,38.538L37.676,38.538L37.75,38.538L37.827,38.538L37.98,38.538L38.057,38.538L38.136,38.538L38.21,38.538L38.286,38.538L38.44,38.538L38.516,38.538L38.596,38.538L38.67,38.538L38.746,38.538L38.9,38.538L38.977,38.538L39.056,38.538L39.13,38.538L39.206,38.538L39.36,38.538L39.436,38.538L39.516,38.538L39.59,38.538L39.666,38.538L39.819,38.538L39.896,38.538L39.976,38.538L40.05,38.538L40.126,38.538L40.279,38.538L40.356,38.538L40.436,38.538L40.509,38.538L40.586,38.538L40.739,38.538L40.815,38.538L40.895,38.538L40.969,38.538L41.046,38.538L41.199,38.538L41.276,38.538L41.355,38.538L41.429,38.538L41.505,38.538L41.658,38.538L41.736,38.538L41.816,38.538L41.89,38.538L41.965,38.538L42.119,38.538L42.195,38.538L42.275,38.538L42.349,38.538L42.425,38.538L42.578,38.538L42.655,38.538L42.735,38.538L42.809,38.538L42.885,38.538L43.038,38.538L43.115,38.538L43.195,38.538L43.268,38.538L43.345,38.538L43.499,38.538L43.654,38.538L43.728,38.538L43.805,38.538L43.958,38.538L44.035,38.538L44.113,38.538L44.188,38.538L44.264,38.538L44.417,38.538L44.494,38.538L44.573,38.538L44.647,38.538L44.724,38.538L44.878,38.538L44.954,38.538L45.034,38.538L45.108,38.538L45.184,38.538L45.337,38.538L45.414,38.538L45.494,38.538L45.568,38.538L45.644,38.538L45.797,38.538L45.874,38.538L45.954,38.538L46.028,38.538L46.104,38.538L46.257,38.538L46.334,38.538L46.414,38.538L46.564,38.538L46.717,38.538L46.794,38.538L46.873,38.538L46.947,38.538L47.023,38.538L47.176,38.538L47.253,38.538L47.331,38.538L47.406,38.538L47.483,38.538L47.643,38.538L47.761,38.538L47.833,38.538L47.982,38.538L48.097,38.538L48.173,38.538L48.252,38.538L48.326,38.538L48.403,38.538L48.556,38.538L48.633,38.538L48.713,38.538L48.786,38.538L48.862,38.538L49.016,38.538L49.092,38.538L49.173,38.538L49.247,38.538L49.323,38.538L49.552,38.538L49.632,38.538L49.706,38.538L49.782,38.538L49.935,38.538L50.012,38.538L50.092,38.538L50.166,38.538L50.242,38.538L50.395,38.538L50.472,38.538L50.551,38.538L50.625,38.538L50.702,38.538L50.855,38.538L50.932,38.538L51.011,38.538L51.085,38.538L51.162,38.538L51.315,38.538L51.392,38.538L51.472,38.538L51.545,38.538L51.621,38.538L51.775,38.538L51.851,38.538L51.932,38.538L52.005,38.538L52.082,38.538L52.235,38.538L52.312,38.538L52.394,38.538L52.465,38.538L52.541,38.538L52.694,38.538L52.771,38.538L52.849,38.538L52.925,38.538L53.001,38.538L53.154,38.538L53.231,38.538L53.311,38.538L53.385,38.538L53.461,38.538L53.614,38.538L53.691,38.538L53.77,38.538L53.844,38.538L53.921,38.538L54.074,38.538L54.151,38.538L54.23,38.538L54.304,38.538L54.38,38.538L54.534,38.538L54.611,38.538L54.691,38.538L54.764,38.538L54.84,38.538L54.994,38.538L55.071,38.538L55.151,38.538L55.224,38.538L55.3,38.538L55.453,38.538L55.531,38.538L55.611,38.538L55.684,38.538L55.76,38.538L55.914,38.538L55.99,38.538L56.071,38.538L56.144,38.538L56.22,38.538L56.373,38.538L56.45,38.538L56.53,38.538L56.603,38.538L56.68,38.538L56.833,38.538L56.91,38.538L56.989,38.538L57.063,38.538L57.139,38.538L57.293,38.538L57.37,38.538L57.449,38.538L57.523,38.538L57.599,38.538L57.753,38.538L57.83,38.538L57.91,38.538L57.984,38.538L58.059,38.538L58.212,38.538L58.289,38.538L58.369,30.846L58.443,30.846L58.519,30.846L58.672,30.846L58.749,30.846L58.83,30.846L58.903,30.846L58.979,30.846L59.133,30.846L59.21,30.846L59.289,30.846L59.364,30.846L59.439,30.846L59.592,30.846L59.669,30.846L59.749,30.846L59.822,30.846L59.898,30.846L60.052,30.846L60.128,30.846L60.208,30.846L60.282,30.846L60.358,30.846L60.512,30.846L60.588,30.846L60.668,30.846L60.742,30.846L60.818,30.846L60.972,30.846L61.048,30.846L61.129,30.846L61.202,30.846L61.278,30.846L61.431,30.846L61.508,30.846L61.589,30.846L61.662,30.846L61.738,30.846L61.891,30.846L61.968,30.846L62.049,30.846L62.122,30.846L62.198,30.846L62.351,30.846L62.428,30.846L62.509,30.846L62.581,30.846L62.657,30.846L62.811,30.846L62.887,30.846L62.968,30.846L63.041,30.846L63.117,30.846L63.27,30.846L63.347,30.846L63.428,30.846L63.5,30.846L63.577,30.846L63.731,30.846L63.807,30.846L63.887,30.846L63.961,30.846L64.037,30.846L64.191,30.846L64.267,30.846L64.348,30.846L64.421,30.846L64.497,30.846L64.65,30.846L64.727,30.846L64.808,30.846L64.88,30.846L64.957,30.846L65.11,30.846L65.187,30.846L65.268,38.538L65.341,38.538L65.416,38.538L65.57,38.538L65.646,38.538L65.727,38.538L65.801,38.538L65.876,38.538L66.03,38.538L66.106,38.538L66.187,38.538L66.26,38.538L66.336,38.538L66.49,38.538L66.566,38.538L66.646,38.538L66.72,38.538L66.796,38.538L66.949,38.538L67.026,38.538L67.106,38.538L67.179,38.538L67.256,38.538L67.409,38.538L67.486,38.538L67.567,38.538L67.64,38.538L67.715,38.538L67.87,38.538L67.946,38.538L68.027,38.538L68.099,38.538L68.175,38.538L68.329,38.538L68.406,38.538L68.486,38.538L68.559,38.538L68.635,38.538L68.789,38.538L68.865,38.538L68.946,38.538L69.019,38.538L69.095,38.538L69.249,30.846L69.325,30.846L69.406,30.846L69.479,30.846L69.555,30.846L69.708,30.846L69.785,30.846L69.865,30.846L69.938,30.846L70.014,30.846L70.168,30.846L70.245,30.846L70.325,30.846L70.398,30.846L70.474,30.846L70.628,30.846L70.705,30.846L70.786,30.846L70.859,30.846L70.935,30.846L71.088,30.846L71.165,30.846L71.246,30.846L71.319,30.846L71.394,30.846L71.548,30.846L71.625,30.846L71.705,30.846L71.778,30.846L71.854,30.846L72.007,30.846L72.084,30.846L72.165,30.846L72.238,30.846L72.314,30.846L72.467,30.846L72.544,30.846L72.625,30.846L72.699,30.846L72.774,30.846L72.927,30.846L73.003,30.846L73.084,30.846L73.158,30.846L73.233,30.846L73.387,30.846L73.463,30.846L73.544,30.846L73.617,30.846L73.693,30.846L73.847,30.846L73.924,30.846L74.005,30.846L74.078,30.846L74.153,30.846L74.307,30.846L74.384,30.846L74.465,30.846L74.537,30.846L74.613,30.846L74.766,30.846L74.843,34.692L74.924,34.692L74.997,34.692L75.073,34.692L75.226,34.692L75.303,34.692L75.384,34.692L75.458,34.692L75.533,34.692L75.686,34.692L75.763,34.692L75.844,40.077L75.916,40.077L75.993,40.077L76.146,40.077L76.223,40.077L76.303,40.077L76.376,40.077L76.452,40.077L76.606,40.077L76.683,40.077L76.763,40.077L76.836,40.077L76.912,40.077L77.066,40.077L77.143,40.077L77.224,40.077L77.296,40.077L77.372,40.077L77.525,40.077L77.603,40.077L77.683,40.077L77.756,40.077L77.832,40.077L77.985,40.077L78.062,40.077L78.143,40.077L78.216,40.077L78.292,40.077L78.445,40.077L78.522,40.077L78.603,40.077L78.677,40.077L78.751,40.077L78.905,40.077L78.982,40.077L79.062,40.077L79.135,40.077L79.211,40.077L79.364,40.077L79.441,40.077L79.523,40.077L79.595,40.077L79.671,40.077L79.824,40.077L79.901,40.077L79.981,40.077L80.054,40.077L80.131,40.077L80.285,40.077L80.361,40.077L80.442,40.077L80.515,40.077L80.591,40.077L80.744,40.077L80.821,40.077L80.902,40.077L81.051,40.077L81.205,40.077L81.281,40.077L81.362,40.077L81.435,40.077L81.51,40.077L81.665,40.077L81.741,40.077L81.822,40.077L81.895,40.077L81.97,40.077L82.124,40.077L82.201,40.077L82.282,40.077L82.354,40.077L82.43,40.077L82.584,40.077L82.66,40.077L82.741,40.077L82.814,40.077L82.89,40.077L83.043,40.077L83.12,40.077L83.2,40.077L83.274,40.077L83.35,40.077L83.503,40.077L83.58,40.077L83.662,40.077L83.734,40.077L83.809,40.077L83.963,40.077L84.04,40.077L84.121,40.077L84.194,40.077L84.269,40.077L84.423,40.077L84.5,40.077L84.581,40.077L84.654,40.077L84.729,40.077L84.883,40.077L84.96,40.077L85.041,40.077L85.113,40.077L85.189,40.077L85.343,40.077L85.419,40.077L85.5,40.077L85.573,40.077L85.649,40.077L85.803,40.077L85.879,40.077L85.959,40.077L86.033,40.077L86.109,40.077L86.262,40.077L86.338,40.077L86.419,40.077L86.492,40.077L86.569,40.077L86.722,40.077L86.799,40.077L86.88,40.077L86.953,40.077L87.028,40.077L87.182,40.077L87.259,40.077L87.34,40.077L87.413,40.077L87.488,40.077L87.642,40.077L87.719,40.077L87.8,40.077L87.872,40.077L87.948,40.077L88.102,40.077L88.178,40.077L88.26,40.077L88.332,40.077L88.408,40.077L88.561,40.077L88.638,40.077L88.719,40.077L88.792,40.077L88.868,40.077L89.021,40.077L89.097,40.077L89.178,40.077L89.251,40.077L89.327,40.077L89.482,40.077L89.558,40.077L89.643,40.077L89.715,40.077L89.787,40.077L89.941,40.077L90.018,40.077L90.099,40.077L90.172,40.077L90.247,40.077L90.401,40.077L90.478,40.077L90.557,40.077L90.632,40.077L90.707,40.077L90.86,40.077L90.938,40.077L91.019,40.077L91.092,40.077L91.167,40.077L91.321,40.077L91.397,40.077L91.479,40.077L91.551,40.077L91.626,40.077L91.781,40.077L91.857,40.077L91.938,40.077L92.011,40.077L92.087,40.077L92.24,40.077L92.316,40.077L92.397,40.077L92.47,40.077L92.546,40.077L92.7,40.077L92.776,40.077L92.857,40.077L92.931,40.077L93.006,40.077L93.16,40.077L93.237,40.077L93.318,40.077L93.391,40.077L93.466,40.077L93.619,40.077L93.697,40.077L93.778,40.077L93.85,40.077L93.926,40.077L94.079,40.077L94.156,40.077L94.238,40.077L94.31,40.077L94.385,40.077L94.54,40.077L94.616,40.077L94.697,40.077L94.77,40.077L94.846,40.077L95,40.077L95.076,40.077L95.157,40.077L95.23,40.077L95.305,40.077L95.459,40.077L95.535,40.077L95.617,40.077L95.689,40.077L95.765,40.077L95.918,40.077L95.995,40.077L96.076,40.077L96.149,40.077L96.225,40.077L96.379,40.077L96.455,40.077L96.537,40.077L96.609,40.077L96.685,40.077L96.838,40.077L96.915,40.077L96.996,40.077L97.069,40.077L97.144,40.077L97.298,40.077L97.374,40.077L97.457,40.077L97.529,40.077L97.604,40.077L97.758,40.077L97.835,40.077L97.916,40.077L97.989,40.077L98.064,40.077L98.218,40.077L98.295,40.077L98.376,40.077L98.449,40.077L98.524,40.077L98.678,40.077L98.754,40.077L98.835,40.077L98.908,40.077L98.984,40.077L99.138,40.077L99.214,40.077L99.295,40.077L99.367,40.077L99.444,40.077L99.597,40.077L99.674,40.077L99.756,40.077L99.828,40.077L99.904,40.077L100.058,40.077L100.134,40.077L100.215,40.077L100.288,40.077L100.363,40.077L100.517,40.077L100.594,40.077L100.675,40.077L100.748,40.077L100.823,40.077L100.977,40.077L101.054,40.077L101.135,40.077L101.208,40.077L101.283,40.077L101.437,40.077L101.514,40.077L101.595,40.077L101.667,40.077L101.743,40.077L101.897,40.077L101.973,40.077L102.054,40.077L102.128,40.077L102.202,40.077L102.356,40.077L102.433,40.077L102.514,40.077L102.587,40.077L102.663,40.077L102.816,40.077L102.893,40.077L102.975,40.077L103.047,40.077L103.122,40.077L103.276,40.077L103.353,40.077L103.434,40.077L103.507,40.077L103.582,40.077L103.736,40.077L103.813,40.077L103.894,40.077L103.967,40.077L104.042,40.077L104.196,40.077L104.273,40.077L104.354,40.077L104.426,40.077L104.502,40.077L104.656,40.077L104.732,40.077L104.813,40.077L104.886,40.077L104.961,40.077L105.115,40.077L105.192,40.077L105.272,40.077L105.346,40.077L105.422,40.077L105.575,40.077L105.652,40.077L105.733,40.077L105.805,40.077L105.881,40.077L106.035,40.077L106.112,40.077L106.193,40.077L106.265,40.077L106.341,40.077L106.496,40.077L106.572,40.077L106.653,40.077L106.725,40.077L106.801,40.077L106.955,40.077L107.032,40.077L107.111,40.077L107.186,40.077L107.261,40.077L107.414,40.077L107.491,40.077L107.573,40.077L107.646,40.077L107.72,40.077L107.874,40.077L107.951,40.077L108.032,40.077L108.105,40.077L108.18,40.077L108.334,40.077L108.41,40.077L108.492,40.077L108.564,40.077L108.64,40.077L108.794,40.077L108.871,40.077L108.951,40.077L109.024,40.077L109.101,40.077L109.255,40.077L109.331,40.077L109.412,40.077L109.485,40.077L109.56,40.077L109.714,40.077L109.791,40.077L109.872,40.077L109.944,40.077L110.02,40.077L110.174,40.077L110.251,40.077L110.332,40.077L110.405,40.077L110.479,40.077L110.634,40.077L110.71,40.077L110.792,40.077L110.864,40.077L110.939,40.077L111.094,40.077L111.17,40.077L111.252,40.077L111.324,40.077L111.399,40.077L111.553,40.077L111.63,40.077L111.711,40.077L111.784,40.077L111.859,40.077L112.013,40.077L112.09,40.077L112.171,40.077L112.243,40.077L112.319,40.077L112.473,40.077L112.55,40.077L112.632,40.077L112.704,40.077L112.779,40.077L112.933,40.077L113.01,40.077L113.091,40.077L113.164,40.077L113.239,40.077L113.393,40.077L113.47,40.077L113.551,40.077L113.623,40.077L113.699,40.077L113.853,40.077L113.929,40.077L114.011,40.077L114.083,40.077L114.158,40.077L114.312,40.077L114.389,40.077L114.47,40.077L114.544,40.077L114.618,40.077L114.772,40.077L114.848,40.077L114.929,40.077L115.002,40.077L115.078,40.077L115.232,40.077L115.308,40.077L115.389,40.077L115.462,40.077L115.538,40.077L115.692,40.077L115.769,40.077L115.851,40.077L115.922,40.077L115.998,40.077L116.152,40.077L116.229,40.077L116.311,40.077L116.382,40.077L116.458,40.077L116.612,40.077L116.689,40.077L116.77,40.077L116.842,40.077L116.917,40.077L117.072,40.077L117.149,40.077L117.23,40.077L117.302,40.077L117.377,40.077L117.531,40.077L117.608,40.077L117.689,40.077L117.762,40.077L117.837,40.077L117.991,40.077L118.068,40.077L118.149,40.077L118.221,40.077L118.297,40.077L118.451,40.077L118.527,40.077L118.609,40.077L118.681,40.077L118.756,40.077L118.911,40.077L118.988,40.077L119.07,40.077L119.142,40.077L119.217,40.077L119.369,40.077L119.448,40.077L119.529,40.077L119.601,40.077L119.676,40.077L119.831,40.077L119.907,40.077L119.989,40.077L120.061,40.077L120.136,40.077L120.291,40.077L120.367,40.077L120.449,40.077L120.521,40.077L120.596,40.077L120.75,40.077L120.827,40.077L120.909,40.077L120.981,40.077L121.056,40.077L121.21,40.077L121.286,40.077L121.367,40.077L121.44,40.077L121.515,40.077L121.67,40.077L121.746,40.077L121.827,40.077L121.9,40.077L121.975,40.077L122.13,40.077L122.207,40.077L122.288,40.077L122.36,40.077L122.436,40.077L122.59,40.077L122.667,40.077L122.749,40.077L122.82,40.077L122.895,40.077L123.05,40.077L123.127,40.077L123.208,40.077L123.281,40.077L123.355,40.077L123.509,40.077L123.586,40.077L123.668,40.077L123.74,40.077L123.815,40.077L123.969,40.077L124.046,40.077L124.128,40.077L124.2,40.077L124.429,40.077L124.505,40.077L124.587,40.077L124.659,40.077L124.734,40.077L124.888,40.077L124.965,40.077L125.046,40.077L125.119,40.077L125.194,40.077L125.349,40.077L125.426,40.077L125.508,40.077L125.58,40.077L125.654,40.077L125.809,40.077L125.886,40.077L125.968,40.077L126.039,40.077L126.114,40.077L126.268,40.077L126.345,40.077L126.427,40.077L126.499,40.077L126.575,40.077L126.728,40.077L126.805,50.077L126.887,50.077L126.959,50.077L127.034,50.077L127.188,50.077L127.265,50.077L127.347,50.077L127.419,50.077L127.494,50.077L127.648,50.077L127.724,50.077L127.805,50.077L127.878,50.077L127.953,50.077L128.107,50.077L128.184,50.077L128.265,50.077L128.337,50.077L128.413,50.077L128.567,50.077L128.645,50.077L128.726,50.077L128.798,50.077L128.873,50.077L129.027,50.077L129.105,30.846L129.186,30.846L129.258,30.846L129.333,30.846L129.487,30.846L129.564,30.846L129.646,50.077L129.717,50.077L129.793,50.077L129.947,50.077L130.024,50.077L130.106,50.077L130.177,50.077L130.253,50.077L130.407,50.077L130.484,50.077L130.565,50.077L130.637,50.077L130.713,50.077L130.867,50.077L130.943,50.077L131.024,50.077L131.097,50.077L131.172,50.077L131.326,50.077L131.403,50.077L131.484,50.077L131.556,50.077L131.632,50.077L131.786,50.077L131.864,50.077L131.945,50.077L132.017,50.077L132.092,50.077L132.246,50.077L132.323,50.077L132.405,50.077L132.477,50.077L132.552,50.077L132.706,50.077L132.783,50.077L132.865,50.077L132.936,50.077L133.012,50.077L133.166,50.077L133.243,50.077L133.324,50.077L133.397,50.077L133.471,50.077L133.626,50.077L133.703,50.077L133.784,50.077L133.856,50.077L133.931,50.077L134.085,50.077L134.162,50.077L134.243,50.077L134.315,50.077L134.391,50.077L134.545,50.077L134.622,50.077L134.703,50.077L134.775,50.077L134.851,50.077L135.005,50.077L135.082,50.077L135.164,50.077L135.236,50.077L135.311,50.077L135.465,50.077L135.542,50.077L135.624,50.077L135.696,50.077L135.77,50.077L135.925,50.077L136.002,50.077L136.083,50.077L136.156,50.077L136.231,50.077L136.385,50.077L136.462,50.077L136.543,50.077L136.615,50.077L136.69,50.077L136.845,50.077L136.921,50.077L137.003,50.077L137.075,50.077L137.15,50.077L137.304,50.077L137.381,50.077L137.462,50.077L137.534,50.077L137.609,50.077L137.764,50.077L137.841,50.077L137.922,50.077L137.994,50.077L138.07,50.077L138.224,50.077L138.301,50.077L138.383,50.077L138.455,50.077L138.53,50.077L138.684,50.077L138.761,50.077L138.843,50.077L138.915,50.077L138.989,50.077L139.144,50.077L139.221,50.077L139.302,50.077L139.375,50.077L139.449,50.077L139.762,50.077L139.834,50.077L139.909,50.077L140.063,50.077L140.14,50.077L140.221,50.077L140.293,50.077L140.369,50.077L140.523,50.077L140.599,50.077L140.681,50.077L140.753,50.077L140.828,50.077L140.982,50.077L141.059,50.077L141.14,50.077L141.212,50.077L141.288,50.077L141.443,50.077L141.52,50.077L141.602,50.077L141.673,50.077L141.748,50.077L141.902,50.077L141.979,50.077L142.061,50.077L142.132,50.077L142.208,50.077L142.362,50.077L142.439,50.077L142.521,50.077L142.593,50.077L142.668,50.077L142.822,50.077L142.899,50.077L142.98,50.077L143.053,50.077L143.127,50.077L143.281,50.077L143.358,50.077L143.44,50.077L143.512,50.077L143.587,50.077L143.741,50.077L143.818,50.077L143.899,50.077L143.972,50.077L144.047,50.077L144.201,50.077L144.277,50.077L144.359,50.077L144.431,50.077L144.506,50.077L144.661,50.077L144.738,50.077L144.82,50.077L144.892,50.077L144.967,50.077L145.121,50.077L145.198,50.077L145.28,50.077L145.352,50.077L145.427,50.077L145.581,50.077L145.658,50.077L145.74,58.538L145.812,58.538L145.887,58.538L146.041,58.538L146.118,58.538L146.2,58.538L146.272,58.538L146.347,58.538L146.501,58.538L146.578,58.538L146.66,58.538L146.732,58.538L146.807,58.538L146.961,58.538L147.037,58.538L147.119,58.538L147.191,58.538L147.266,58.538L147.42,58.538L147.497,58.538L147.578,58.538L147.65,58.538L147.726,58.538L147.881,58.538L147.958,58.538L148.04,58.538L148.112,58.538L148.186,58.538L148.34,58.538L148.418,58.538L148.499,58.538L148.571,58.538L148.646,58.538L148.8,58.538L148.878,58.538L148.959,58.538L149.031,58.538L149.106,58.538L149.26,46.231L149.337,46.231L149.419,58.538L149.491,58.538L149.566,58.538L149.72,58.538L149.797,58.538L149.879,46.231L149.951,46.231L150.026,46.231L150.179,46.231L150.256,46.231L150.338,46.231L150.41,46.231L150.485,46.231L150.639,46.231L150.716,46.231L150.797,46.231L150.87,46.231L150.945,46.231L151.1,46.231L151.177,46.231L151.259,46.231L151.33,46.231L151.405,46.231L151.559,46.231L151.637,46.231L151.719,46.231L151.79,46.231L151.865,46.231L152.019,46.231L152.097,46.231L152.178,58.538L152.25,58.538L152.325,58.538L152.479,58.538L152.556,58.538L152.638,58.538L152.71,58.538L152.784,58.538L152.939,58.538L153.016,58.538L153.098,58.538L153.169,58.538L153.244,58.538L153.398,58.538L153.475,58.538L153.556,58.538L153.629,58.538L153.704,58.538L153.858,58.538L153.935,58.538L154.017,58.538L154.088,58.538L154.164,58.538L154.318,58.538L154.396,58.538L154.478,58.538L154.549,58.538L154.624,58.538L154.778,30.846L154.855,30.846L154.937,58.538L155.009,58.538L155.084,58.538L155.238,58.538L155.316,58.538L155.397,58.538L155.469,58.538L155.544,58.538L155.698,30.846L155.775,30.846L155.857,46.231L155.929,46.231L156.003,46.231L156.158,30.846L156.235,30.846L156.317,46.231L156.388,46.231L156.463,46.231L156.617,46.231L156.694,46.231L156.776,46.231L156.847,46.231L156.923,46.231L157.077,46.231L157.154,46.231L157.235,46.231L157.307,46.231L157.383,46.231L157.537,46.231L157.615,46.231L157.697,46.231L157.768,46.231L157.843,46.231L157.997,46.231L158.074,46.231L158.157,46.231L158.228,46.231L158.303,46.231L158.457,46.231L158.534,46.231L158.616,46.231L158.688,46.231L158.762,46.231L158.917,46.231L158.994,46.231L159.076,46.231L159.148,46.231L159.222,46.231L159.376,46.231L159.454,46.231L159.536,46.231L159.607,46.231L159.682,46.231L159.836,46.231L159.913,46.231L159.994,46.231L160.066,46.231L160.141,46.231L160.296,46.231L160.372,46.231L160.454,46.231L160.526,46.231L160.601,46.231L160.756,46.231L160.833,46.231L160.916,46.231L160.987,46.231L161.062,46.231L161.216,46.231L161.293,46.231L161.375,46.231L161.447,46.231L161.521,46.231L161.675,46.231L161.753,46.231L161.834,46.231L161.906,46.231L161.981,46.231L162.135,46.231L162.212,46.231L162.294,46.231L162.365,46.231L162.44,46.231L162.594,46.231L162.671,46.231L162.753,46.231L162.825,46.231L162.9,46.231L163.054,46.231L163.131,46.231L163.212,46.231L163.284,46.231L163.359,46.231L163.514,46.231L163.59,46.231L163.671,46.231L163.744,46.231L163.819,46.231L163.974,46.231L164.051,46.231L164.133,46.231L164.204,46.231L164.279,46.231L164.433,46.231L164.511,46.231L164.592,46.231L164.664,46.231L164.739,46.231L164.893,46.231L164.97,46.231L165.052,46.231L165.124,46.231L165.199,46.231L165.353,46.231L165.43,46.231L165.512,46.231L165.583,46.231L165.659,46.231L165.813,46.231L165.89,46.231L165.971,46.231L166.043,46.231L166.119,46.231L166.273,46.231L166.349,46.231L166.43,46.231L166.503,46.231L166.578,46.231L166.732,46.231L166.809,46.231L166.89,46.231L166.962,46.231L167.038,46.231L167.192,46.231L167.27,46.231L167.351,46.231L167.423,46.231L167.498,46.231L167.652,46.231L167.729,46.231L167.811,46.231L167.883,46.231L167.958,46.231L168.112,46.231L168.189,46.231L168.27,46.231L168.343,46.231L168.418,46.231L168.572,46.231L168.649,46.231L168.731,46.231L168.802,46.231L168.878,46.231L169.032,46.231L169.109,46.231L169.19,46.231L169.262,46.231L169.337,46.231L169.491,46.231L169.568,46.231L169.65,46.231L169.722,46.231L169.797,46.231L169.951,46.231L170.028,46.231L170.109,46.231L170.182,46.231L170.257,46.231L170.412,46.231L170.489,46.231L170.571,46.231L170.642,46.231L170.717,46.231L170.871,46.231L170.948,46.231L171.03,46.231L171.105,46.231L171.177,46.231L171.331,46.231L171.408,46.231L171.49,46.231L171.562,46.231L171.637,46.231L171.791,46.231L171.868,46.231L171.95,46.231L172.022,46.231L172.097,46.231L172.251,46.231L172.328,46.231L172.409,46.231L172.481,46.231L172.557,46.231L172.71,46.231L172.787,46.231L172.868,46.231L172.94,46.231L173.016,46.231L173.17,46.231L173.247,46.231L173.328,46.231L173.4,46.231L173.476,46.231L173.63,46.231L173.708,46.231L173.79,46.231L173.861,46.231L173.936,46.231L174.089,46.231L174.167,46.231L174.248,46.231L174.32,46.231L174.395,46.231L174.549,46.231L174.627,46.231L174.708,46.231L174.78,46.231L174.855,46.231L175.009,46.231L175.086,46.231L175.168,46.231L175.315,46.231L175.47,46.231L175.546,46.231L175.627,46.231L175.7,46.231L176.005,34.692L176.086,46.231L176.159,46.231L176.235,46.231L176.388,46.231L176.465,46.231L176.546,46.231L176.619,46.231L176.694,46.231L176.849,46.231L176.926,46.231L177.008,46.231L177.079,46.231L177.154,46.231L177.308,46.231L177.385,46.231L177.467,46.231L177.539,46.231L177.614,46.231L177.768,46.231L177.846,46.231L177.927,46.231L177.999,46.231L178.074,46.231L178.228,46.231L178.305,46.231L178.387,46.231L178.459,46.231L178.534,46.231L178.688,46.231L178.765,46.231L178.846,46.231L178.918,46.231L178.994,46.231L179.148,46.231L179.224,46.231L179.305,46.231L179.378,46.231L179.453,46.231L179.607,46.231L179.684,46.231L179.765,46.231L179.837,46.231L179.913,46.231L180.068,46.231L180.145,46.231L180.226,23.154L180.298,23.154L180.373,23.154L180.527,23.154L180.604,23.154L180.686,30.846L180.758,30.846L180.833,30.846L180.987,30.846L181.064,30.846L181.145,30.846L181.218,30.846L181.293,30.846L181.447,30.846L181.524,30.846L181.605,30.846L181.679,30.846L181.753,30.846L181.907,30.846L181.983,30.846L182.065,30.846L182.137,30.846L182.212,30.846L182.367,30.846L182.443,30.846L182.524,30.846L182.596,30.846L182.672,30.846L182.826,30.846L182.903,30.846L182.983,30.846L183.056,30.846L183.132,30.846L183.287,30.846L183.363,30.846L183.445,30.846L183.517,30.846L183.592,30.846L183.746,30.846L183.823,30.846L183.905,30.846L183.977,30.846L184.052,30.846L184.206,30.846L184.283,30.846L184.365,30.846L184.437,30.846L184.512,30.846L184.666,30.846L184.743,30.846L184.825,30.846L184.896,30.846L184.972,30.846L185.126,30.846L185.202,30.846L185.284,30.846L185.356,30.846L185.431,30.846L185.585,30.846L185.662,30.846L185.743,30.846L185.815,30.846L185.891,30.846L186.045,30.846L186.121,30.846L186.202,30.846L186.275,30.846L186.351,30.846L186.506,30.846L186.582,30.846L186.664,30.846L186.736,30.846L186.811,30.846L186.965,30.846L187.042,30.846L187.124,30.846L187.196,30.846L187.271,30.846L187.425,30.846L187.502,30.846L187.584,30.846L187.656,30.846L187.731,30.846L187.962,30.846L188.044,30.846L188.116,30.846L188.192,30.846L188.344,30.846L188.421,30.846L188.503,30.846L188.575,30.846L188.65,30.846L188.805,30.846L188.881,30.846L188.962,30.846L189.034,30.846L189.11,30.846L189.264,30.846L189.34,30.846L189.422,30.846L189.494,30.846L189.569,30.846L189.724,30.846L189.801,30.846L189.883,30.846L189.954,30.846L190.03,30.846L190.184,30.846L190.261,30.846L190.342,30.846L190.415,30.846L190.49,30.846L190.644,30.846L190.721,30.846L190.802,30.846L190.874,30.846L190.949,30.846L191.103,30.846L191.181,30.846L191.263,30.846L191.335,30.846L191.41,30.846L191.564,30.846L191.64,30.846L191.722,30.846L191.793,30.846L191.869,30.846L192.023,30.846L192.1,30.846L192.18,30.846L192.253,30.846L192.329,30.846L192.483,30.846L192.559,30.846L192.641,30.846L192.713,30.846L192.789,30.846L192.943,30.846L193.02,30.846L193.102,30.846L193.174,30.846L193.249,30.846L193.403,30.846L193.48,30.846L193.562,30.846L193.634,30.846L193.709,30.846L193.863,30.846L193.94,30.846L194.022,30.846L194.094,30.846L194.168,30.846L194.323,30.846L194.4,30.846L194.482,30.846L194.554,30.846L194.628,30.846L194.782,30.846L194.859,30.846L194.941,30.846L195.013,30.846L195.088,30.846L195.242,30.846L195.319,30.846L195.4,30.846L195.472,30.846L195.548,30.846L195.702,30.846L195.778,30.846L195.859,30.846L195.932,30.846L196.007,30.846L196.162,30.846L196.24,30.846L196.321,30.846L196.393,30.846L196.468,30.846L196.622,30.846L196.699,30.846L196.781,30.846L196.853,30.846L196.928,30.846L197.082,30.846L197.159,30.846L197.241,30.846L197.314,30.846L197.388,30.846L197.542,30.846L197.619,30.846L197.7,30.846L197.772,30.846L197.847,30.846L198.001,30.846L198.078,30.846L198.16,30.846L198.232,30.846L198.306,30.846L198.459,30.846L198.536,30.846L198.616,30.846L198.689,30.846L198.766,30.846L198.919,30.846L198.996,30.846L199.076,30.846L199.149,30.846L199.226,30.846L199.38,30.846L199.456,30.846L199.54,30.846L199.612,30.846L199.687,30.846L199.841,30.846L199.918,30.846L200,34.692" stroke="#f58518" stroke-width="2"/></g></g><path class="foreground" aria-hidden="true" d="" display="none"/></g></g><g class="mark-group role-legend" role="graphics-symbol" aria-roledescription="legend" aria-label="Symbol legend titled 'identifier' for stroke color with 2 values: altex-LG-F2WR508SBW, altex-LG-F2WR508SBM"><g transform="translate(220,0)"><path class="background" aria-hidden="true" d="M0,0h168v40h-168Z" pointer-events="none"/><g><g class="mark-group role-legend-entry"><g transform="translate(0,16)"><path class="background" aria-hidden="true" d="M0,0h0v0h0Z" pointer-events="none"/><g><g class="mark-group role-scope" role="graphics-object" aria-roledescription="group mark container"><g transform="translate(0,0)"><path class="background" aria-hidden="true" d="M0,0h168v11h-168Z" pointer-events="none" opacity="1"/><g><g class="mark-symbol role-legend-symbol" pointer-events="none"><path transform="translate(6,6)" d="M-5,0L5,0" stroke="#4c78a8" stroke-width="1.5" opacity="1"/></g><g class="mark-text role-legend-label" pointer-events="none"><text text-anchor="start" transform="translate(16,9)" font-family="Liberation Mono" font-size="10px" fill="#000" opacity="1">altex-LG-F2WR508SBW</text></g></g><path class="foreground" aria-hidden="true" d="" pointer-events="none" display="none"/></g><g transform="translate(0,13)"><path class="background" aria-hidden="true" d="M0,0h168v11h-168Z" pointer-events="none" opacity="1"/><g><g class="mark-symbol role-legend-symbol" pointer-events="none"><path transform="translate(6,6)" d="M-5,0L5,0" stroke="#f58518" stroke-width="1.5" opacity="1"/></g><g class="mark-text role-legend-label" pointer-events="none"><text text-anchor="start" transform="translate(16,9)" font-family="Liberation Mono" font-size="10px" fill="#000" opacity="1">altex-LG-F2WR508SBM</text></g></g><path class="foreground" aria-hidden="true" d="" pointer-events="none" display="none"/></g></g></g><path class="foreground" aria-hidden="true" d="" pointer-events="none" display="none"/></g></g><g class="mark-text role-legend-title" pointer-events="none"><text text-anchor="start" transform="translate(0,9)" font-family="Liberation Mono" font-size="11px" font-weight="bold" fill="#000" opacity="1">identifier</text></g></g><path class="foreground" aria-hidden="true" d="" pointer-events="none" display="none"/></g></g></g><path class="foreground" aria-hidden="true" d="" display="none"/></g></g></g></svg>