<svg xmlns="http://www.w3.org/2000/svg" xmlns:xlink="http://www.w3.org/1999/xlink" version="1.1" class="marks" width="460" height="242" viewBox="0 0 460 242"><rect width="460" height="242" fill="white"/><g fill="none" stroke-miterlimit="10" transform="translate(67,5)"><g class="mark-group role-frame root" role="graphics-object" aria-roledescription="group mark container"><g transform="translate(0,0)"><path class="background" aria-hidden="true" d="M0.5,0.5h200v200h-200Z" stroke="#ddd"/><g><g class="mark-group role-axis" aria-hidden="true"><g transform="translate(0.5,200.5)"><path class="background" aria-hidden="true" d="M0,0h0v0h0Z" pointer-events="none"/><g><g class="mark-rule role-axis-grid" pointer-events="none"><line transform="translate(31,-200)" x2="0" y2="200" stroke="#ddd" stroke-width="1" opacity="1"/><line transform="translate(61,-200)" x2="0" y2="200" stroke="#ddd" stroke-width="1" opacity="1"/><line transform="translate(93,-200)" x2="0" y2="200" stroke="#ddd" stroke-width="1" opacity="1"/><line transform="translate(123,-200)" x2="0" y2="200" stroke="#ddd" stroke-width="1" opacity="1"/><line transform="translate(155,-200)" x2="0" y2="200" stroke="#ddd" stroke-width="1" opacity="1"/><line transform="translate(186,-200)" x2="0" y2="200" stroke="#ddd" stroke-width="1" opacity="1"/></g></g><path class="foreground" aria-hidden="true" d="" pointer-events="none" display="none"/></g></g><g class="mark-group role-axis" aria-hidden="true"><g transform="translate(0.5,0.5)"><path class="background" aria-hidden="true" d="M0,0h0v0h0Z" pointer-events="none"/><g><g class="mark-rule role-axis-grid" pointer-events="none"><line transform="translate(0,200)" x2="200" y2="0" stroke="#ddd" stroke-width="1" opacity="1"/><line transform="translate(0,162)" x2="200" y2="0" stroke="#ddd" stroke-width="1" opacity="1"/><line transform="translate(0,123)" x2="200" y2="0" stroke="#ddd" stroke-width="1" opacity="1"/><line transform="translate(0,85)" x2="200" y2="0" stroke="#ddd" stroke-width="1" opacity="1"/><line transform="translate(0,46)" x2="200" y2="0" stroke="#ddd" stroke-width="1" opacity="1"/><line transform="translate(0,8)" x2="200" y2="0" stroke="#ddd" stroke-width="1" opacity="1"/></g></g><path class="foreground" aria-hidden="true" d="" pointer-events="none" display="none"/></g></g><g class="mark-group role-axis" role="graphics-symbol" aria-roledescription="axis" aria-label="X-axis titled 'Time' for a time scale with values from Monday, 01 January 2024, 2:19:43 PM to Sunday, 14 July 2024, 4:53:38 PM"><g transform="translate(0.5,200.5)"><path class="background" aria-hidden="true" d="M0,0h0v0h0Z" pointer-events="none"/><g><g class="mark-rule role-axis-tick" pointer-events="none"><line transform="translate(31,0)" x2="0" y2="5" stroke="#888" stroke-width="1" opacity="1"/><line transform="translate(61,0)" x2="0" y2="5" stroke="#888" stroke-width="1" opacity="1"/><line transform="translate(93,0)" x2="0" y2="5" stroke="#888" stroke-width="1" opacity="1"/><line transform="translate(123,0)" x2="0" y2="5" stroke="#888" stroke-width="1" opacity="1"/><line transform="translate(155,0)" x2="0" y2="5" stroke="#888" stroke-width="1" opacity="1"/><line transform="translate(186,0)" x2="0" y2="5" stroke="#888" stroke-width="1" opacity="1"/></g><g class="mark-text role-axis-label" pointer-events="none"><text text-anchor="middle" transform="translate(31.165453724110098,15)" font-family="Liberation Mono" font-size="10px" fill="#000" opacity="1">February</text><text text-anchor="middle" transform="translate(60.89274893287633,15)" font-family="Liberation Mono" font-size="10px" fill="#000" opacity="0">March</text><text text-anchor="middle" transform="translate(92.6702024319023,15)" font-family="Liberation Mono" font-size="10px" fill="#000" opacity="1">April</text><text text-anchor="middle" transform="translate(123.4225767857984,15)" font-family="Liberation Mono" font-size="10px" fill="#000" opacity="0">May</text><text text-anchor="middle" transform="translate(155.20003028482435,15)" font-family="Liberation Mono" font-size="10px" fill="#000" opacity="1">June</text><text text-anchor="middle" transform="translate(185.95240463872048,15)" font-family="Liberation Mono" font-size="10px" fill="#000" opacity="0">July</text></g><g class="mark-rule role-axis-domain" pointer-events="none"><line transform="translate(0,0)" x2="200" y2="0" stroke="#888" stroke-width="1" opacity="1"/></g><g class="mark-text role-axis-title" pointer-events="none"><text text-anchor="middle" transform="translate(100,30)" font-family="Liberation Mono" font-size="11px" font-weight="bold" fill="#000" opacity="1">Time</text></g></g><path class="foreground" aria-hidden="true" d="" pointer-events="none" display="none"/></g></g><g class="mark-group role-axis" role="graphics-symbol" aria-roledescription="axis" aria-label="Y-axis titled 'Price' for a linear scale with values from 0 to 2,600"><g transform="translate(0.5,0.5)"><path class="background" aria-hidden="true" d="M0,0h0v0h0Z" pointer-events="none"/><g><g class="mark-rule role-axis-tick" pointer-events="none"><line transform="translate(0,200)" x2="-5" y2="0" stroke="#888" stroke-width="1" opacity="1"/><line transform="translate(0,162)" x2="-5" y2="0" stroke="#888" stroke-width="1" opacity="1"/><line transform="translate(0,123)" x2="-5" y2="0" stroke="#888" stroke-width="1" opacity="1"/><line transform="translate(0,85)" x2="-5" y2="0" stroke="#888" stroke-width="1" opacity="1"/><line transform="translate(0,46)" x2="-5" y2="0" stroke="#888" stroke-width="1" opacity="1"/><line transform="translate(0,8)" x2="-5" y2="0" stroke="#888" stroke-width="1" opacity="1"/></g><g class="mark-text role-axis-label" pointer-events="none"><text text-anchor="end" transform="translate(-7,203)" font-family="Liberation Mono" font-size="10px" fill="#000" opacity="1">0</text><text text-anchor="end" transform="translate(-7,164.53846153846155)" font-family="Liberation Mono" font-size="10px" fill="#000" opacity="1">500</text><text text-anchor="end" transform="translate(-7,126.07692307692308)" font-family="Liberation Mono" font-size="10px" fill="#000" opacity="1">1,000</text><text text-anchor="end" transform="translate(-7,87.61538461538463)" font-family="Liberation Mono" font-size="10px" fill="#000" opacity="1">1,500</text><text text-anchor="end" transform="translate(-7,49.153846153846146)" font-family="Liberation Mono" font-size="10px" fill="#000" opacity="1">2,000</text><text text-anchor="end" transform="translate(-7,10.692307692307686)" font-family="Liberation Mono" font-size="10px" fill="#000" opacity="1">2,500</text></g><g class="mark-rule role-axis-domain" pointer-events="none"><line transform="translate(0,200)" x2="0" y2="-200" stroke="#888" stroke-width="1" opacity="1"/></g><g class="mark-text role-axis-title" pointer-events="none"><text text-anchor="middle" transform="translate(-51,100) rotate(-90) translate(0,-2)" font-family="Liberation Mono" font-size="11px" font-weight="bold" fill="#000" opacity="1">Price</text></g></g><path class="foreground" aria-hidden="true" d="" pointer-events="none" display="none"/></g></g><g class="mark-group role-scope pathgroup" role="graphics-object" aria-roledescription="group mark container"><g transform="translate(0,0)"><path class="background" aria-hidden="true" d="M0,0h200v200h-200Z"/><g><g class="mark-line role-mark marks" role="graphics-object" aria-roledescription="line mark container"><path aria-label="Time: Jan 01, 2024; Price: 2399; identifier: altex-LG-F2WR508SBW" role="graphics-symbol" aria-roledescription="line mark" d="M0,15.462L0.107,15.462L0.27,15.462L0.611,15.462L0.782,15.462L0.962,15.462L1.125,15.462L1.295,15.462L1.636,15.462L1.807,15.462L1.987,15.462L2.151,15.462L2.319,15.462L2.662,15.462L2.833,15.462L3.012,15.462L3.177,15.462L3.345,15.462L3.687,34.692L3.858,34.692L4.037,34.692L4.201,34.692L4.37,34.692L4.712,34.692L4.883,34.692L5.062,34.692L5.226,34.692L5.395,34.692L5.738,34.692L5.908,34.692L6.087,34.692L6.251,34.692L6.42,34.692L6.763,34.692L6.934,34.692L7.114,34.692L7.277,34.692L7.445,34.692L7.788,34.692L7.959,34.692L8.141,34.692L8.302,34.692L8.47,34.692L8.813,34.692L8.984,34.692L9.164,34.692L9.327,34.692L9.495,34.692L9.838,34.692L10.009,34.692L10.189,34.692L10.353,34.692L10.52,34.692L10.863,34.692L11.034,34.692L11.213,34.692L11.377,34.692L11.546,34.692L11.887,46.231L12.058,46.231L12.237,46.231L12.401,46.231L12.57,46.231L12.913,46.231L13.083,46.231L13.262,46.231L13.426,46.231L13.595,46.231L13.938,46.231L14.109,46.231L14.29,46.231L14.453,46.231L14.621,46.231L14.963,46.231L15.135,46.231L15.315,46.231L15.478,46.231L15.646,46.231L15.988,46.231L16.16,46.231L16.34,46.231L16.503,46.231L16.671,46.231L17.013,46.231L17.184,46.231L17.364,46.231L17.527,46.231L17.696,46.231L18.038,46.231L18.209,46.231L18.39,46.231L18.553,46.231L18.721,46.231L19.063,46.231L19.233,46.231L19.413,46.231L19.577,46.231L19.746,46.231L20.088,46.231L20.259,46.231L20.438,46.231L20.602,46.231L20.771,46.231L21.114,46.231L21.286,46.231L21.466,46.231L21.628,46.231L21.796,46.231L22.139,46.231L22.311,46.231L22.491,46.231L22.654,46.231L22.821,46.231L23.164,46.231L23.335,46.231L23.516,46.231L23.679,46.231L23.846,46.231L24.19,46.231L24.36,46.231L24.541,46.231L24.705,46.231L24.871,46.231L25.214,46.231L25.385,46.231L25.562,46.231L25.726,46.231L25.897,46.231L26.238,46.231L26.409,46.231L26.585,46.231L26.751,46.231L26.921,46.231L27.263,46.231L27.434,46.231L27.61,46.231L27.776,46.231L27.947,46.231L28.288,46.231L28.46,46.231L28.637,46.231L28.801,46.231L28.972,46.231L29.313,46.231L29.484,46.231L29.662,46.231L29.828,46.231L29.997,46.231L30.338,46.231L30.509,46.231L30.687,46.231L30.851,46.231L31.022,46.231L31.363,34.692L31.535,34.692L31.712,34.692L31.876,34.692L32.047,34.692L32.389,34.692L32.559,34.692L32.737,34.692L32.901,34.692L33.072,34.692L33.414,34.692L33.585,34.692L33.761,34.692L33.926,34.692L34.098,34.692L34.44,34.692L34.61,34.692L34.786,34.692L34.951,34.692L35.122,34.692L35.464,34.692L35.635,34.692L35.813,34.692L35.977,34.692L36.147,34.692L36.489,34.692L36.66,34.692L36.838,34.692L37.002,34.692L37.172,34.692L37.514,34.692L37.685,34.692L37.863,34.692L38.028,34.692L38.198,34.692L38.539,34.692L38.71,34.692L38.888,34.692L39.052,34.692L39.222,34.692L39.564,34.692L39.735,34.692L39.912,34.692L40.077,34.692L40.248,34.692L40.589,34.692L40.76,34.692L40.937,34.692L41.102,34.692L41.273,34.692L41.615,34.692L41.785,34.692L41.961,34.692L42.127,34.692L42.298,34.692L42.64,34.692L42.81,34.692L42.989,34.692L43.152,34.692L43.323,34.692L43.664,34.692L43.835,34.692L44.013,34.692L44.18,34.692L44.348,34.692L44.69,34.692L44.861,34.692L45.038,34.692L45.203,34.692L45.373,34.692L45.886,34.692L46.063,34.692L46.227,34.692L46.398,34.692L46.74,34.692L46.911,34.692L47.088,34.692L47.253,34.692L47.423,34.692L47.765,34.692L47.936,34.692L48.112,34.692L48.277,34.692L48.448,34.692L48.79,34.692L48.962,34.692L49.137,34.692L49.303,34.692L49.473,34.692L49.815,34.692L49.987,34.692L50.164,34.692L50.33,34.692L50.498,34.692L50.841,34.692L51.011,34.692L51.188,34.692L51.353,34.692L51.524,34.692L51.865,34.692L52.036,34.692L52.214,34.692L52.379,34.692L52.549,34.692L52.89,34.692L53.061,34.692L53.239,34.692L53.404,34.692L53.574,34.692L53.915,34.692L54.086,34.692L54.263,34.692L54.428,34.692L54.6,34.692L54.94,34.692L55.111,34.692L55.287,34.692L55.453,34.692L55.623,34.692L55.965,34.692L56.137,34.692L56.312,34.692L56.479,34.692L56.649,34.692L56.99,34.692L57.162,34.692L57.339,34.692L57.504,34.692L57.674,34.692L58.016,34.692L58.187,34.692L58.364,34.692L58.529,34.692L58.699,34.692L59.041,34.692L59.212,34.692L59.389,34.692L59.554,34.692L59.724,34.692L60.066,34.692L60.237,34.692L60.414,34.692L60.578,34.692L60.749,34.692L61.091,34.692L61.262,34.692L61.439,34.692L61.604,34.692L61.774,34.692L62.116,34.692L62.287,34.692L62.464,34.692L62.628,34.692L62.799,34.692L63.141,34.692L63.312,34.692L63.488,34.692L63.654,34.692L63.825,34.692L64.182,34.692L64.415,34.692L64.517,34.692L64.68,34.692L64.85,34.692L65.191,34.692L65.362,34.692L65.541,34.692L65.704,34.692L65.874,34.692L66.216,34.692L66.388,34.692L66.565,34.692L66.73,34.692L66.9,34.692L67.241,34.692L67.413,34.692L67.59,34.692L67.754,34.692L67.925,34.692L68.266,34.692L68.44,34.692L68.615,34.692L68.779,34.692L68.95,34.692L69.292,34.692L69.463,34.692L69.638,34.692L69.805,34.692L69.975,34.692L70.317,34.692L70.488,34.692L70.663,34.692L70.83,34.692L71,34.692L71.342,34.692L71.512,34.692L71.691,34.692L71.855,34.692L72.025,34.692L72.367,34.692L72.538,34.692L72.716,34.692L72.881,34.692L73.05,34.692L73.392,34.692L73.564,34.692L73.741,34.692L73.905,34.692L74.075,34.692L74.417,34.692L74.588,34.692L74.766,34.692L74.93,34.692L75.1,34.692L75.442,34.692L75.614,34.692L75.79,34.692L75.955,34.692L76.125,34.692L76.467,34.692L76.639,34.692L76.815,34.692L76.98,34.692L77.151,34.692L77.492,34.692L77.664,34.692L77.84,34.692L78.005,34.692L78.176,34.692L78.517,34.692L78.688,34.692L78.867,34.692L79.032,34.692L79.202,34.692L79.543,34.692L79.713,34.692L79.891,34.692L80.057,34.692L80.225,34.692L80.567,34.692L80.739,34.692L80.916,34.692L81.082,34.692L81.252,34.692L81.592,34.692L81.764,34.692L81.942,34.692L82.107,34.692L82.276,34.692L82.618,34.692L82.788,34.692L82.966,34.692L83.131,34.692L83.301,34.692L83.643,34.692L83.813,34.692L83.991,34.692L84.155,34.692L84.326,34.692L84.668,34.692L84.839,34.692L85.017,34.692L85.18,34.692L85.351,34.692L85.693,34.692L85.864,34.692L86.042,34.692L86.206,34.692L86.376,34.692L86.718,34.692L86.89,34.692L87.067,34.692L87.232,34.692L87.401,34.692L87.744,34.692L87.915,34.692L88.093,34.692L88.258,34.692L88.426,34.692L88.768,34.692L88.939,34.692L89.117,34.692L89.282,34.692L89.451,34.692L89.793,34.692L89.964,34.692L90.143,34.692L90.306,34.692L90.476,34.692L90.818,34.692L90.989,34.692L91.165,34.692L91.331,34.692L91.502,34.692L91.844,34.692L92.015,34.692L92.191,34.692L92.357,34.692L92.527,34.692L92.868,34.692L93.04,34.692L93.219,34.692L93.383,34.692L93.552,34.692L93.894,34.692L94.065,34.692L94.243,34.692L94.408,34.692L94.577,34.692L94.918,34.692L95.089,34.692L95.267,34.692L95.433,34.692L95.602,34.692L95.944,34.692L96.115,34.692L96.293,34.692L96.457,34.692L96.627,34.692L96.97,34.692L97.317,34.692L97.482,34.692L97.653,34.692L97.994,34.692L98.165,34.692L98.341,34.692L98.506,34.692L98.677,34.692L99.019,34.692L99.19,34.692L99.366,34.692L99.531,34.692L99.702,34.692L100.044,34.692L100.215,34.692L100.393,34.692L100.558,34.692L100.727,34.692L101.069,34.692L101.24,34.692L101.418,34.692L101.583,34.692L101.752,34.692L102.094,34.692L102.266,34.692L102.444,34.692L102.609,34.692L102.779,34.692L103.12,34.692L103.291,34.692L103.469,34.692L103.803,34.692L104.145,34.692L104.316,34.692L104.493,34.692L104.657,34.692L104.828,34.692L105.169,34.692L105.34,34.692L105.514,34.692L105.682,34.692L105.852,34.692L106.21,34.692L106.473,34.692L106.633,34.692L106.965,34.692L107.222,34.692L107.39,34.692L107.566,34.692L107.732,34.692L107.903,34.692L108.245,34.692L108.416,34.692L108.594,34.692L108.757,34.692L108.928,34.692L109.269,34.692L109.44,34.692L109.619,34.692L109.784,34.692L109.953,34.692L110.466,34.692L110.644,34.692L110.808,34.692L110.979,34.692L111.32,34.692L111.491,34.692L111.669,34.692L111.834,34.692L112.003,34.692L112.345,34.692L112.516,34.692L112.693,34.692L112.858,34.692L113.028,34.692L113.37,34.692L113.541,34.692L113.718,34.692L113.883,34.692L114.053,34.692L114.395,34.692L114.567,34.692L114.746,34.692L114.909,34.692L115.078,34.692L115.42,34.692L115.591,34.692L115.77,34.692L115.934,34.692L116.104,34.692L116.445,34.692L116.617,34.692L116.8,34.692L116.959,34.692L117.129,34.692L117.47,34.692L117.642,34.692L117.815,34.692L117.983,34.692L118.154,34.692L118.495,34.692L118.667,34.692L118.845,34.692L119.009,34.692L119.18,34.692L119.521,34.692L119.691,34.692L119.868,34.692L120.033,34.692L120.204,34.692L120.546,34.692L120.716,34.692L120.895,34.692L121.058,34.692L121.229,34.692L121.57,34.692L121.744,34.692L121.921,34.692L122.084,34.692L122.254,34.692L122.596,34.692L122.767,34.692L122.946,34.692L123.11,34.692L123.279,34.692L123.621,34.692L123.795,34.692L123.971,34.692L124.134,34.692L124.304,34.692L124.647,57.769L124.817,57.769L124.997,57.769L125.159,57.769L125.33,57.769L125.672,57.769L125.842,57.769L126.021,57.769L126.185,57.769L126.354,57.769L126.696,57.769L126.867,57.769L127.045,57.769L127.209,57.769L127.379,57.769L127.721,57.769L127.893,57.769L128.07,57.769L128.234,57.769L128.404,57.769L128.746,57.769L128.918,57.769L129.097,57.769L129.261,57.769L129.429,57.769L129.771,57.769L129.943,57.769L130.121,57.769L130.285,57.769L130.455,57.769L130.796,57.769L130.968,57.769L131.149,57.769L131.312,57.769L131.479,57.769L131.823,34.692L131.994,34.692L132.172,34.692L132.338,34.692L132.505,34.692L132.846,34.692L133.017,34.692L133.198,34.692L133.36,34.692L133.53,34.692L133.872,34.692L134.042,34.692L134.22,34.692L134.384,34.692L134.555,34.692L134.897,34.692L135.067,34.692L135.246,34.692L135.41,34.692L135.58,34.692L135.922,34.692L136.094,34.692L136.273,34.692L136.436,34.692L136.606,34.692L136.947,34.692L137.119,34.692L137.298,34.692L137.462,34.692L137.63,34.692L137.972,34.692L138.144,34.692L138.324,34.692L138.486,34.692L138.656,34.692L138.997,34.692L139.169,34.692L139.349,34.692L139.511,34.692L139.68,34.692L140.022,34.692L140.193,34.692L140.373,34.692L140.536,34.692L140.705,34.692L141.047,34.692L141.218,34.692L141.397,34.692L141.56,34.692L141.73,34.692L142.073,34.692L142.243,34.692L142.422,34.692L142.586,34.692L142.756,34.692L143.099,34.692L143.269,34.692L143.449,34.692L143.612,34.692L143.781,34.692L144.122,34.692L144.294,34.692L144.474,34.692L144.636,34.692L144.806,34.692L145.148,34.692L145.32,34.692L145.499,34.692L145.663,34.692L145.831,34.692L146.173,34.692L146.344,34.692L146.524,34.692L146.688,34.692L146.856,34.692L147.199,34.692L147.369,34.692L147.549,34.692L147.711,34.692L147.882,34.692L148.223,34.692L148.394,34.692L148.572,34.692L148.736,34.692L148.906,34.692L149.249,34.692L149.418,34.692L149.597,34.692L149.761,34.692L149.932,34.692L150.273,34.692L150.445,34.692L150.625,34.692L150.788,34.692L150.956,34.692L151.301,34.692L151.47,34.692L151.65,34.692L151.812,34.692L151.981,34.692L152.325,34.692L152.496,34.692L152.675,34.692L152.838,34.692L153.006,34.692L153.35,34.692L153.52,34.692L153.7,34.692L153.862,34.692L154.031,34.692L154.375,34.692L154.545,34.692L154.725,34.692L154.888,34.692L155.057,34.692L155.398,34.692L155.569,34.692L155.748,34.692L155.912,34.692L156.081,34.692L156.424,34.692L156.594,34.692L156.773,34.692L156.937,34.692L157.107,34.692L157.45,34.692L157.621,34.692L157.802,34.692L157.963,34.692L158.133,34.692L158.474,34.692L158.646,34.692L158.826,34.692L158.989,34.692L159.157,34.692L159.5,34.692L159.671,34.692L159.851,34.692L160.014,34.692L160.182,34.692L160.524,34.692L160.696,34.692L160.876,34.692L161.038,34.692L161.207,34.692L161.55,34.692L161.721,34.692L161.902,34.692L162.065,34.692L162.232,34.692L162.574,34.692L162.744,34.692L162.924,34.692L163.088,34.692L163.257,34.692L163.599,34.692L163.77,34.692L163.95,34.692L164.113,34.692L164.282,34.692L164.626,34.692L164.797,34.692L164.977,34.692L165.139,34.692L165.307,34.692L165.651,34.692L165.822,34.692L166.002,34.692L166.164,34.692L166.334,34.692L166.675,34.692L166.846,46.231L167.027,46.231L167.189,46.231L167.357,46.231L167.7,46.231L167.871,46.231L168.052,46.231L168.216,46.231L168.383,46.231L168.725,46.231L168.896,46.231L169.077,48.538L169.239,48.538L169.408,48.538L169.751,48.538L169.922,48.538L170.1,48.538L170.263,48.538L170.433,48.538L170.775,48.538L170.946,48.538L171.126,48.538L171.289,48.538L171.458,48.538L171.801,48.538L171.972,48.538L172.153,48.538L172.314,48.538L172.483,48.538L172.825,48.538L172.997,48.538L173.177,48.538L173.34,48.538L173.508,48.538L173.851,48.538L174.022,48.538L174.203,48.538L174.365,48.538L174.533,48.538L174.875,48.538L175.047,48.538L175.227,48.538L175.392,48.538L175.558,48.538L175.902,48.538L176.072,48.538L176.252,48.538L176.414,48.538L176.583,48.538L176.925,48.538L177.096,48.538L177.278,48.538L177.439,48.538L177.608,48.538L177.951,48.538L178.121,48.538L178.3,48.538L178.463,48.538L178.633,48.538L178.976,48.538L179.148,48.538L179.328,48.538L179.49,48.538L179.658,48.538L180.001,48.538L180.173,48.538L180.353,48.538L180.684,48.538L181.027,48.538L181.198,48.538L181.378,48.538L181.54,48.538L181.709,48.538L182.053,48.538L182.223,48.538L182.403,48.538L182.566,48.538L182.734,48.538L183.076,48.538L183.248,48.538L183.428,48.538L183.59,48.538L183.76,48.538L184.102,48.538L184.272,48.538L184.452,48.538L184.615,48.538L184.784,48.538L185.126,48.538L185.297,48.538L185.477,48.538L185.64,48.538L185.809,48.538L186.152,48.538L186.324,48.538L186.505,48.538L186.667,48.538L186.834,48.538L187.177,48.538L187.348,48.538L187.528,48.538L187.691,48.538L187.86,48.538L188.202,48.538L188.373,48.538L188.554,48.538L188.717,48.538L188.884,48.538L189.227,48.538L189.398,48.538L189.579,48.538L189.74,48.538L189.91,48.538L190.253,48.538L190.423,48.538L190.603,48.538L190.766,48.538L190.934,48.538L191.277,48.538L191.448,48.538L191.626,48.538L191.791,48.538L191.96,48.538L192.301,48.538L192.472,48.538L192.652,48.538L192.814,48.538L192.985,48.538L193.328,48.538L193.499,48.538L193.678,48.538L193.841,48.538L194.01,48.538L194.352,48.538L194.524,48.538L194.705,48.538L194.867,48.538L195.035,48.538L195.378,48.538L195.55,48.538L195.73,48.538L195.892,48.538L196.06,48.538L196.403,48.538L196.574,48.538L196.755,48.538L196.916,48.538L197.085,48.538L197.427,48.538L197.599,48.538L197.78,48.538L197.941,48.538L198.111,48.538L198.452,48.538L198.623,48.538L198.802,48.538L198.965,48.538L199.135,48.538L199.479,48.538L199.65,48.538L199.839,48.538L200,48.538" stroke="#4c78a8" stroke-width="2"/></g></g><path class="foreground" aria-hidden="true" d="" display="none"/></g><g transform="translate(0,0)"><path class="background" aria-hidden="true" d="M0,0h200v200h-200Z"/><g><g class="mark-line role-mark marks" role="graphics-object" aria-roledescription="line mark container"><path aria-label="Time: Jan 01, 2024; Price: 2499; identifier: altex-LG-F2WR508SBM" role="graphics-symbol" aria-roledescription="line mark" d="M0,7.769L0.107,7.769L0.27,7.769L0.611,7.769L0.782,7.769L0.962,7.769L1.125,7.769L1.295,7.769L1.637,7.769L1.807,7.769L1.987,7.769L2.151,7.769L2.32,7.769L2.662,7.769L2.833,7.769L3.012,7.769L3.177,7.769L3.345,7.769L3.687,27L3.858,27L4.037,27L4.201,27L4.37,27L4.712,27L4.883,27L5.062,27L5.226,27L5.395,27L5.738,27L5.908,27L6.087,27L6.251,27L6.42,27L6.763,27L6.934,27L7.114,27L7.277,27L7.445,27L7.788,27L7.959,27L8.141,27L8.303,27L8.47,27L8.813,27L8.984,27L9.164,27L9.327,27L9.495,27L9.838,27L10.009,27L10.189,27L10.353,27L10.52,27L10.863,27L11.034,27L11.213,27L11.377,27L11.546,27L11.887,38.538L12.058,38.538L12.237,38.538L12.401,38.538L12.57,38.538L12.913,38.538L13.083,38.538L13.262,38.538L13.426,38.538L13.596,38.538L13.938,38.538L14.11,38.538L14.29,38.538L14.453,38.538L14.621,38.538L14.963,38.538L15.135,38.538L15.315,38.538L15.479,38.538L15.646,38.538L15.988,38.538L16.16,38.538L16.34,38.538L16.503,38.538L16.671,38.538L17.013,38.538L17.184,38.538L17.364,38.538L17.527,38.538L17.696,38.538L18.039,38.538L18.209,38.538L18.39,38.538L18.553,38.538L18.721,38.538L19.064,38.538L19.233,38.538L19.413,38.538L19.578,38.538L19.746,38.538L20.088,38.538L20.259,38.538L20.438,38.538L20.602,38.538L20.771,38.538L21.115,38.538L21.286,38.538L21.466,38.538L21.628,38.538L21.796,38.538L22.139,38.538L22.311,38.538L22.491,38.538L22.654,38.538L22.821,38.538L23.164,38.538L23.335,38.538L23.516,38.538L23.679,38.538L23.847,38.538L24.19,38.538L24.36,38.538L24.541,38.538L24.705,38.538L24.871,38.538L25.214,38.538L25.385,38.538L25.562,38.538L25.726,38.538L25.897,38.538L26.238,38.538L26.409,38.538L26.585,38.538L26.751,38.538L26.921,38.538L27.263,38.538L27.434,38.538L27.61,38.538L27.776,38.538L27.947,38.538L28.288,38.538L28.46,38.538L28.637,38.538L28.801,38.538L28.972,38.538L29.313,38.538L29.484,38.538L29.662,38.538L29.828,38.538L29.997,38.538L30.338,38.538L30.509,38.538L30.687,38.538L30.851,38.538L31.022,38.538L31.364,27L31.535,27L31.712,27L31.876,27L32.047,27L32.389,27L32.559,27L32.737,27L32.901,27L33.072,27L33.414,27L33.585,27L33.761,27L33.926,27L34.098,27L34.44,27L34.61,27L34.786,27L34.951,27L35.122,27L35.464,27L35.635,27L35.813,27L35.977,27L36.147,27L36.489,27L36.66,27L36.838,27L37.002,27L37.172,27L37.514,27L37.685,27L37.863,27L38.028,27L38.198,27L38.539,27L38.71,27L38.888,27L39.052,27L39.222,27L39.564,27L39.735,27L39.912,27L40.077,27L40.248,27L40.589,27L40.76,27L40.937,27L41.102,27L41.273,27L41.615,27L41.785,27L41.962,27L42.127,27L42.298,27L42.64,27L42.81,27L42.989,27L43.152,27L43.323,27L43.664,27L43.835,27L44.013,27L44.18,27L44.348,27L44.69,27L44.861,27L45.038,27L45.203,27L45.373,27L45.886,27L46.063,27L46.228,27L46.398,27L46.74,27L46.911,27L47.088,27L47.253,27L47.423,27L47.765,27L47.936,27L48.112,27L48.277,27L48.448,27L48.79,27L48.962,27L49.137,27L49.303,27L49.473,27L49.815,27L49.987,27L50.164,27L50.33,27L50.498,27L50.841,27L51.011,27L51.188,27L51.353,27L51.524,27L51.865,27L52.036,27L52.214,27L52.379,27L52.549,27L52.89,27L53.061,27L53.239,27L53.404,27L53.574,27L53.915,27L54.086,27L54.263,27L54.428,27L54.6,27L54.94,27L55.111,27L55.287,27L55.453,27L55.624,27L55.965,27L56.137,27L56.312,27L56.479,27L56.649,27L56.991,27L57.162,27L57.339,27L57.504,27L57.674,27L58.016,27L58.187,27L58.364,27L58.529,27L58.699,27L59.041,27L59.212,27L59.389,27L59.554,27L59.724,27L60.066,27L60.237,27L60.414,27L60.578,27L60.749,27L61.091,27L61.262,27L61.439,27L61.604,27L61.774,27L62.116,27L62.287,27L62.464,27L62.628,27L62.799,27L63.141,27L63.312,27L63.488,27L63.654,27L63.825,27L64.182,27L64.415,27L64.517,27L64.68,27L64.85,27L65.191,27L65.362,27L65.541,27L65.704,27L65.874,27L66.216,27L66.389,27L66.565,27L66.73,27L66.9,27L67.241,27L67.413,27L67.59,38.538L67.754,38.538L67.925,38.538L68.267,38.538L68.44,38.538L68.615,38.538L68.779,38.538L68.95,38.538L69.292,38.538L69.463,38.538L69.638,38.538L69.805,38.538L69.975,38.538L70.317,38.538L70.489,38.538L70.663,38.538L70.83,38.538L71,38.538L71.342,38.538L71.512,38.538L71.691,38.538L71.856,38.538L72.025,38.538L72.367,38.538L72.538,38.538L72.716,38.538L72.881,38.538L73.05,38.538L73.392,38.538L73.564,38.538L73.741,38.538L73.905,38.538L74.075,38.538L74.417,38.538L74.588,38.538L74.766,38.538L74.93,38.538L75.1,38.538L75.442,38.538L75.614,38.538L75.791,38.538L75.955,38.538L76.125,38.538L76.467,38.538L76.639,38.538L76.815,38.538L76.98,38.538L77.151,38.538L77.492,38.538L77.664,38.538L77.84,38.538L78.005,38.538L78.176,38.538L78.517,38.538L78.688,38.538L78.867,38.538L79.032,38.538L79.202,38.538L79.543,38.538L79.713,38.538L79.891,38.538L80.057,38.538L80.226,38.538L80.567,38.538L80.739,38.538L80.916,38.538L81.082,38.538L81.252,38.538L81.593,38.538L81.764,38.538L81.942,38.538L82.108,38.538L82.276,38.538L82.618,38.538L82.788,38.538L82.966,38.538L83.131,38.538L83.301,38.538L83.643,38.538L83.813,38.538L83.991,38.538L84.155,38.538L84.326,38.538L84.668,38.538L84.839,38.538L85.017,38.538L85.18,38.538L85.351,38.538L85.693,38.538L85.864,38.538L86.042,38.538L86.206,38.538L86.376,38.538L86.718,38.538L86.89,38.538L87.067,38.538L87.232,38.538L87.401,38.538L87.744,38.538L87.915,38.538L88.093,38.538L88.258,38.538L88.426,38.538L88.768,38.538L88.939,38.538L89.117,38.538L89.282,38.538L89.451,38.538L89.794,38.538L89.964,38.538L90.143,38.538L90.306,38.538L90.476,38.538L90.818,38.538L90.989,38.538L91.165,38.538L91.331,38.538L91.502,38.538L91.844,38.538L92.015,38.538L92.191,38.538L92.357,38.538L92.527,38.538L92.868,38.538L93.04,38.538L93.219,38.538L93.383,38.538L93.552,38.538L93.894,38.538L94.065,38.538L94.243,38.538L94.408,38.538L94.577,38.538L94.918,38.538L95.089,38.538L95.268,38.538L95.433,38.538L95.602,38.538L95.944,38.538L96.115,38.538L96.293,38.538L96.457,38.538L96.627,38.538L96.97,38.538L97.317,38.538L97.482,38.538L97.653,38.538L97.994,38.538L98.165,38.538L98.341,38.538L98.506,38.538L98.677,38.538L99.019,38.538L99.19,38.538L99.367,38.538L99.531,38.538L99.702,38.538L100.044,38.538L100.215,38.538L100.393,38.538L100.558,38.538L100.727,38.538L101.069,38.538L101.24,38.538L101.418,38.538L101.583,38.538L101.752,38.538L102.094,38.538L102.266,38.538L102.444,38.538L102.609,38.538L102.779,38.538L103.12,38.538L103.292,38.538L103.469,38.538L103.803,38.538L104.145,38.538L104.316,38.538L104.493,38.538L104.657,38.538L104.828,38.538L105.169,38.538L105.34,38.538L105.514,38.538L105.682,38.538L105.853,38.538L106.21,38.538L106.473,38.538L106.633,38.538L106.965,38.538L107.222,38.538L107.39,38.538L107.566,38.538L107.732,38.538L107.903,38.538L108.245,38.538L108.416,38.538L108.594,38.538L108.757,38.538L108.928,38.538L109.27,38.538L109.44,38.538L109.62,38.538L109.784,38.538L109.953,38.538L110.466,38.538L110.644,38.538L110.808,38.538L110.979,38.538L111.32,38.538L111.491,38.538L111.669,38.538L111.834,38.538L112.003,38.538L112.345,38.538L112.516,38.538L112.693,38.538L112.858,38.538L113.028,38.538L113.371,38.538L113.541,38.538L113.718,38.538L113.883,38.538L114.054,38.538L114.395,38.538L114.567,38.538L114.746,38.538L114.909,38.538L115.078,38.538L115.42,38.538L115.591,38.538L115.77,38.538L115.934,38.538L116.104,38.538L116.445,38.538L116.617,38.538L116.8,38.538L116.959,38.538L117.129,38.538L117.47,38.538L117.642,38.538L117.815,38.538L117.984,38.538L118.154,38.538L118.495,38.538L118.667,38.538L118.845,38.538L119.009,38.538L119.18,38.538L119.521,38.538L119.691,38.538L119.868,38.538L120.033,38.538L120.204,38.538L120.546,38.538L120.716,38.538L120.895,38.538L121.058,38.538L121.229,38.538L121.57,38.538L121.744,38.538L121.921,38.538L122.084,38.538L122.254,38.538L122.596,38.538L122.767,38.538L122.946,38.538L123.11,38.538L123.28,38.538L123.621,38.538L123.795,38.538L123.971,38.538L124.134,38.538L124.304,38.538L124.647,38.538L124.817,38.538L124.997,38.538L125.159,38.538L125.33,38.538L125.672,38.538L125.842,38.538L126.021,38.538L126.185,38.538L126.354,38.538L126.696,38.538L126.867,38.538L127.045,38.538L127.209,38.538L127.379,38.538L127.721,38.538L127.893,38.538L128.07,38.538L128.234,38.538L128.404,38.538L128.746,38.538L128.918,38.538L129.097,38.538L129.261,38.538L129.429,38.538L129.771,38.538L129.943,38.538L130.121,30.846L130.285,30.846L130.455,30.846L130.796,30.846L130.968,30.846L131.149,30.846L131.312,30.846L131.479,30.846L131.823,30.846L131.994,30.846L132.172,30.846L132.338,30.846L132.505,30.846L132.846,30.846L133.017,30.846L133.198,30.846L133.36,30.846L133.53,30.846L133.872,30.846L134.042,30.846L134.22,30.846L134.384,30.846L134.555,30.846L134.897,30.846L135.067,30.846L135.246,30.846L135.41,30.846L135.58,30.846L135.922,30.846L136.094,30.846L136.273,30.846L136.436,30.846L136.606,30.846L136.947,30.846L137.119,30.846L137.299,30.846L137.462,30.846L137.63,30.846L137.972,30.846L138.144,30.846L138.324,30.846L138.486,30.846L138.656,30.846L138.997,30.846L139.169,30.846L139.349,30.846L139.511,30.846L139.68,30.846L140.022,30.846L140.193,30.846L140.373,30.846L140.536,30.846L140.705,30.846L141.047,30.846L141.218,30.846L141.397,30.846L141.56,30.846L141.73,30.846L142.073,30.846L142.243,30.846L142.422,30.846L142.586,30.846L142.756,30.846L143.099,30.846L143.269,30.846L143.449,30.846L143.612,30.846L143.781,30.846L144.122,30.846L144.294,30.846L144.474,30.846L144.636,30.846L144.806,30.846L145.148,30.846L145.32,30.846L145.499,38.538L145.663,38.538L145.831,38.538L146.173,38.538L146.344,38.538L146.524,38.538L146.688,38.538L146.856,38.538L147.199,38.538L147.369,38.538L147.549,38.538L147.711,38.538L147.882,38.538L148.224,38.538L148.394,38.538L148.572,38.538L148.736,38.538L148.906,38.538L149.249,38.538L149.418,38.538L149.597,38.538L149.761,38.538L149.932,38.538L150.273,38.538L150.445,38.538L150.625,38.538L150.788,38.538L150.956,38.538L151.301,38.538L151.47,38.538L151.65,38.538L151.812,38.538L151.981,38.538L152.325,38.538L152.496,38.538L152.675,38.538L152.838,38.538L153.006,38.538L153.35,38.538L153.52,38.538L153.7,38.538L153.862,38.538L154.031,38.538L154.375,30.846L154.545,30.846L154.725,30.846L154.888,30.846L155.057,30.846L155.398,30.846L155.569,30.846L155.748,30.846L155.912,30.846L156.081,30.846L156.424,30.846L156.595,30.846L156.773,30.846L156.937,30.846L157.107,30.846L157.45,30.846L157.621,30.846L157.802,30.846L157.963,30.846L158.133,30.846L158.474,30.846L158.646,30.846L158.826,30.846L158.989,30.846L159.157,30.846L159.5,30.846L159.671,30.846L159.851,30.846L160.014,30.846L160.182,30.846L160.524,30.846L160.696,30.846L160.876,30.846L161.038,30.846L161.207,30.846L161.55,30.846L161.721,30.846L161.902,30.846L162.065,30.846L162.232,30.846L162.574,30.846L162.745,30.846L162.924,30.846L163.089,30.846L163.257,30.846L163.599,30.846L163.77,30.846L163.95,30.846L164.113,30.846L164.282,30.846L164.626,30.846L164.797,30.846L164.977,30.846L165.139,30.846L165.307,30.846L165.651,30.846L165.822,30.846L166.002,30.846L166.164,30.846L166.334,30.846L166.675,30.846L166.847,34.692L167.027,34.692L167.189,34.692L167.357,34.692L167.7,34.692L167.871,34.692L168.052,34.692L168.216,34.692L168.383,34.692L168.725,34.692L168.896,34.692L169.077,40.077L169.239,40.077L169.408,40.077L169.751,40.077L169.922,40.077L170.1,40.077L170.263,40.077L170.433,40.077L170.775,40.077L170.946,40.077L171.126,40.077L171.289,40.077L171.458,40.077L171.802,40.077L171.972,40.077L172.153,40.077L172.314,40.077L172.483,40.077L172.825,40.077L172.997,40.077L173.177,40.077L173.34,40.077L173.508,40.077L173.851,40.077L174.022,40.077L174.203,40.077L174.365,40.077L174.533,40.077L174.875,40.077L175.047,40.077L175.227,40.077L175.392,40.077L175.558,40.077L175.902,40.077L176.072,40.077L176.252,40.077L176.414,40.077L176.583,40.077L176.925,40.077L177.096,40.077L177.278,40.077L177.439,40.077L177.608,40.077L177.951,40.077L178.121,40.077L178.301,40.077L178.463,40.077L178.633,40.077L178.976,40.077L179.148,40.077L179.328,40.077L179.49,40.077L179.658,40.077L180.001,40.077L180.173,40.077L180.353,40.077L180.684,40.077L181.027,40.077L181.198,40.077L181.379,40.077L181.54,40.077L181.709,40.077L182.053,40.077L182.223,40.077L182.403,40.077L182.566,40.077L182.734,40.077L183.076,40.077L183.248,40.077L183.428,40.077L183.59,40.077L183.76,40.077L184.102,40.077L184.272,40.077L184.452,40.077L184.615,40.077L184.784,40.077L185.126,40.077L185.297,40.077L185.477,40.077L185.64,40.077L185.809,40.077L186.152,40.077L186.324,40.077L186.505,40.077L186.667,40.077L186.834,40.077L187.177,40.077L187.348,40.077L187.528,40.077L187.691,40.077L187.86,40.077L188.202,40.077L188.373,40.077L188.554,40.077L188.717,40.077L188.884,40.077L189.227,40.077L189.398,40.077L189.579,40.077L189.74,40.077L189.91,40.077L190.253,40.077L190.423,40.077L190.603,40.077L190.766,40.077L190.934,40.077L191.277,40.077L191.448,40.077L191.626,40.077L191.791,40.077L191.96,40.077L192.301,40.077L192.472,40.077L192.652,40.077L192.814,40.077L192.985,40.077L193.328,40.077L193.499,40.077L193.678,40.077L193.842,40.077L194.01,40.077L194.352,40.077L194.524,40.077L194.705,40.077L194.867,40.077L195.035,40.077L195.378,40.077L195.55,40.077L195.73,40.077L195.892,40.077L196.06,40.077L196.403,40.077L196.574,40.077L196.755,40.077L196.916,40.077L197.085,40.077L197.427,40.077L197.599,40.077L197.78,40.077L197.941,40.077L198.111,40.077L198.452,40.077L198.623,40.077L198.802,40.077L198.965,40.077L199.135,40.077L199.479,40.077L199.65,40.077L199.84,40.077L200,40.077" stroke="#f58518" stroke-width="2"/></g></g><path class="foreground" aria-hidden="true" d="" display="none"/></g></g><g class="mark-group role-legend" role="graphics-symbol" aria-roledescription="legend" aria-label="Symbol legend titled 'identifier' for stroke color with 2 values: altex-LG-F2WR508SBW, altex-LG-F2WR508SBM"><g transform="translate(220,0)"><path class="background" aria-hidden="true" d="M0,0h168v40h-168Z" pointer-events="none"/><g><g class="mark-group role-legend-entry"><g transform="translate(0,16)"><path class="background" aria-hidden="true" d="M0,0h0v0h0Z" pointer-events="none"/><g><g class="mark-group role-scope" role="graphics-object" aria-roledescription="group mark container"><g transform="translate(0,0)"><path class="background" aria-hidden="true" d="M0,0h168v11h-168Z" pointer-events="none" opacity="1"/><g><g class="mark-symbol role-legend-symbol" pointer-events="none"><path transform="translate(6,6)" d="M-5,0L5,0" stroke="#4c78a8" stroke-width="1.5" opacity="1"/></g><g class="mark-text role-legend-label" pointer-events="none"><text text-anchor="start" transform="translate(16,9)" font-family="Liberation Mono" font-size="10px" fill="#000" opacity="1">altex-LG-F2WR508SBW</text></g></g><path class="foreground" aria-hidden="true" d="" pointer-events="none" display="none"/></g><g transform="translate(0,13)"><path class="background" aria-hidden="true" d="M0,0h168v11h-168Z" pointer-events="none" opacity="1"/><g><g class="mark-symbol role-legend-symbol" pointer-events="none"><path transform="translate(6,6)" d="M-5,0L5,0" stroke="#f58518" stroke-width="1.5" opacity="1"/></g><g class="mark-text role-legend-label" pointer-events="none"><text text-anchor="start" transform="translate(16,9)" font-family="Liberation Mono" font-size="10px" fill="#000" opacity="1">altex-LG-F2WR508SBM</text></g></g><path class="foreground" aria-hidden="true" d="" pointer-events="none" display="none"/></g></g></g><path class="foreground" aria-hidden="true" d="" pointer-events="none" display="none"/></g></g><g class="mark-text role-legend-title" pointer-events="none"><text text-anchor="start" transform="translate(0,9)" font-family="Liberation Mono" font-size="11px" font-weight="bold" fill="#000" opacity="1">identifier</text></g></g><path class="foreground" aria-hidden="true" d="" pointer-events="none" display="none"/></g></g></g><path class="foreground" aria-hidden="true" d="" display="none"/></g></g></g></svg>