<svg xmlns="http://www.w3.org/2000/svg" xmlns:xlink="http://www.w3.org/1999/xlink" version="1.1" class="marks" width="460" height="242" viewBox="0 0 460 242"><rect width="460" height="242" fill="white"/><g fill="none" stroke-miterlimit="10" transform="translate(67,5)"><g class="mark-group role-frame root" role="graphics-object" aria-roledescription="group mark container"><g transform="translate(0,0)"><path class="background" aria-hidden="true" d="M0.5,0.5h200v200h-200Z" stroke="#ddd"/><g><g class="mark-group role-axis" aria-hidden="true"><g transform="translate(0.5,200.5)"><path class="background" aria-hidden="true" d="M0,0h0v0h0Z" pointer-events="none"/><g><g class="mark-rule role-axis-grid" pointer-events="none"><line transform="translate(28,-200)" x2="0" y2="200" stroke="#ddd" stroke-width="1" opacity="1"/><line transform="translate(65,-200)" x2="0" y2="200" stroke="#ddd" stroke-width="1" opacity="1"/><line transform="translate(102,-200)" x2="0" y2="200" stroke="#ddd" stroke-width="1" opacity="1"/><line transform="translate(139,-200)" x2="0" y2="200" stroke="#ddd" stroke-width="1" opacity="1"/><line transform="translate(175,-200)" x2="0" y2="200" stroke="#ddd" stroke-width="1" opacity="1"/></g></g><path class="foreground" aria-hidden="true" d="" pointer-events="none" display="none"/></g></g><g class="mark-group role-axis" aria-hidden="true"><g transform="translate(0.5,0.5)"><path class="background" aria-hidden="true" d="M0,0h0v0h0Z" pointer-events="none"/><g><g class="mark-rule role-axis-grid" pointer-events="none"><line transform="translate(0,200)" x2="200" y2="0" stroke="#ddd" stroke-width="1" opacity="1"/><line transform="translate(0,162)" x2="200" y2="0" stroke="#ddd" stroke-width="1" opacity="1"/><line transform="translate(0,123)" x2="200" y2="0" stroke="#ddd" stroke-width="1" opacity="1"/><line transform="translate(0,85)" x2="200" y2="0" stroke="#ddd" stroke-width="1" opacity="1"/><line transform="translate(0,46)" x2="200" y2="0" stroke="#ddd" stroke-width="1" opacity="1"/><line transform="translate(0,8)" x2="200" y2="0" stroke="#ddd" stroke-width="1" opacity="1"/></g></g><path class="foreground" aria-hidden="true" d="" pointer-events="none" display="none"/></g></g><g class="mark-group role-axis" role="graphics-symbol" aria-roledescription="axis" aria-label="X-axis titled 'Time' for a time scale with values from Monday, 01 January 2024, 2:19:43 PM to Thursday, 08 February 2024, 4:39:26 PM"><g transform="translate(0.5,200.5)"><path class="background" aria-hidden="true" d="M0,0h0v0h0Z" pointer-events="none"/><g><g class="mark-rule role-axis-tick" pointer-events="none"><line transform="translate(28,0)" x2="0" y2="5" stroke="#888" stroke-width="1" opacity="1"/><line transform="translate(65,0)" x2="0" y2="5" stroke="#888" stroke-width="1" opacity="1"/><line transform="translate(102,0)" x2="0" y2="5" stroke="#888" stroke-width="1" opacity="1"/><line transform="translate(139,0)" x2="0" y2="5" stroke="#888" stroke-width="1" opacity="1"/><line transform="translate(175,0)" x2="0" y2="5" stroke="#888" stroke-width="1" opacity="1"/></g><g class="mark-text role-axis-label" pointer-events="none"><text text-anchor="middle" transform="translate(28.36427238729438,15)" font-family="Liberation Mono" font-size="10px" fill="#000" opacity="1">Jan 07</text><text text-anchor="middle" transform="translate(65.11254065864661,15)" font-family="Liberation Mono" font-size="10px" fill="#000" opacity="0">Jan 14</text><text text-anchor="middle" transform="translate(101.86080892999883,15)" font-family="Liberation Mono" font-size="10px" fill="#000" opacity="1">Jan 21</text><text text-anchor="middle" transform="translate(138.60907720135108,15)" font-family="Liberation Mono" font-size="10px" fill="#000" opacity="0">Jan 28</text><text text-anchor="middle" transform="translate(175.3573454727033,15)" font-family="Liberation Mono" font-size="10px" fill="#000" opacity="1">Feb 04</text></g><g class="mark-rule role-axis-domain" pointer-events="none"><line transform="translate(0,0)" x2="200" y2="0" stroke="#888" stroke-width="1" opacity="1"/></g><g class="mark-text role-axis-title" pointer-events="none"><text text-anchor="middle" transform="translate(100,30)" font-family="Liberation Mono" font-size="11px" font-weight="bold" fill="#000" opacity="1">Time</text></g></g><path class="foreground" aria-hidden="true" d="" pointer-events="none" display="none"/></g></g><g class="mark-group role-axis" role="graphics-symbol" aria-roledescription="axis" aria-label="Y-axis titled 'Price' for a linear scale with values from 0 to 2,600"><g transform="translate(0.5,0.5)"><path class="background" aria-hidden="true" d="M0,0h0v0h0Z" pointer-events="none"/><g><g class="mark-rule role-axis-tick" pointer-events="none"><line transform="translate(0,200)" x2="-5" y2="0" stroke="#888" stroke-width="1" opacity="1"/><line transform="translate(0,162)" x2="-5" y2="0" stroke="#888" stroke-width="1" opacity="1"/><line transform="translate(0,123)" x2="-5" y2="0" stroke="#888" stroke-width="1" opacity="1"/><line transform="translate(0,85)" x2="-5" y2="0" stroke="#888" stroke-width="1" opacity="1"/><line transform="translate(0,46)" x2="-5" y2="0" stroke="#888" stroke-width="1" opacity="1"/><line transform="translate(0,8)" x2="-5" y2="0" stroke="#888" stroke-width="1" opacity="1"/></g><g class="mark-text role-axis-label" pointer-events="none"><text text-anchor="end" transform="translate(-7,203)" font-family="Liberation Mono" font-size="10px" fill="#000" opacity="1">0</text><text text-anchor="end" transform="translate(-7,164.53846153846155)" font-family="Liberation Mono" font-size="10px" fill="#000" opacity="1">500</text><text text-anchor="end" transform="translate(-7,126.07692307692308)" font-family="Liberation Mono" font-size="10px" fill="#000" opacity="1">1,000</text><text text-anchor="end" transform="translate(-7,87.61538461538463)" font-family="Liberation Mono" font-size="10px" fill="#000" opacity="1">1,500</text><text text-anchor="end" transform="translate(-7,49.153846153846146)" font-family="Liberation Mono" font-size="10px" fill="#000" opacity="1">2,000</text><text text-anchor="end" transform="translate(-7,10.692307692307686)" font-family="Liberation Mono" font-size="10px" fill="#000" opacity="1">2,500</text></g><g class="mark-rule role-axis-domain" pointer-events="none"><line transform="translate(0,200)" x2="0" y2="-200" stroke="#888" stroke-width="1" opacity="1"/></g><g class="mark-text role-axis-title" pointer-events="none"><text text-anchor="middle" transform="translate(-51,100) rotate(-90) translate(0,-2)" font-family="Liberation Mono" font-size="11px" font-weight="bold" fill="#000" opacity="1">Price</text></g></g><path class="foreground" aria-hidden="true" d="" pointer-events="none" display="none"/></g></g><g class="mark-group role-scope pathgroup" role="graphics-object" aria-roledescription="group mark container"><g transform="translate(0,0)"><path class="background" aria-hidden="true" d="M0,0h200v200h-200Z"/><g><g class="mark-line role-mark marks" role="graphics-object" aria-roledescription="line mark container"><path aria-label="Time: Jan 01, 2024; Price: 2399; identifier: altex-LG-F2WR508SBW" role="graphics-symbol" aria-roledescription="line mark" d="M0,15.462L0.55,15.462L1.381,15.462L3.131,15.462L4.007,15.462L4.927,15.462L5.762,15.462L6.63,15.462L8.381,15.462L9.256,15.462L10.177,15.462L11.014,15.462L11.879,15.462L13.631,15.462L14.507,15.462L15.425,15.462L16.269,15.462L17.131,15.462L18.883,34.692L19.757,34.692L20.676,34.692L21.516,34.692L22.379,34.692L24.131,34.692L25.005,34.692L25.922,34.692L26.762,34.692L27.629,34.692L29.384,34.692L30.254,34.692L31.171,34.692L32.012,34.692L32.879,34.692L34.633,34.692L35.511,34.692L36.431,34.692L37.269,34.692L38.128,34.692L39.885,34.692L40.759,34.692L41.69,34.692L42.52,34.692L43.378,34.692L45.134,34.692L46.009,34.692L46.93,34.692L47.765,34.692L48.628,34.692L50.382,34.692L51.258,34.692L52.181,34.692L53.019,34.692L53.878,34.692L55.632,34.692L56.508,34.692L57.427,34.692L58.266,34.692L59.128,34.692L60.879,46.231L61.752,46.231L62.669,46.231L63.51,46.231L64.377,46.231L66.132,46.231L67.002,46.231L67.918,46.231L68.758,46.231L69.627,46.231L71.383,46.231L72.259,46.231L73.183,46.231L74.018,46.231L74.877,46.231L76.63,46.231L77.509,46.231L78.431,46.231L79.269,46.231L80.126,46.231L81.881,46.231L82.759,46.231L83.681,46.231L84.517,46.231L85.376,46.231L87.129,46.231L88.005,46.231L88.928,46.231L89.763,46.231L90.628,46.231L92.381,46.231L93.256,46.231L94.179,46.231L95.017,46.231L95.876,46.231L97.63,46.231L98.5,46.231L99.418,46.231L100.262,46.231L101.127,46.231L102.876,46.231L103.751,46.231L104.668,46.231L105.509,46.231L106.376,46.231L108.134,46.231L109.01,46.231L109.934,46.231L110.765,46.231L111.625,46.231L113.38,46.231L114.259,46.231L115.182,46.231L116.019,46.231L116.875,46.231L118.631,46.231L119.508,46.231L120.431,46.231L121.266,46.231L122.125,46.231L123.883,46.231L124.756,46.231L125.681,46.231L126.52,46.231L127.374,46.231L129.127,46.231L130.005,46.231L130.912,46.231L131.751,46.231L132.627,46.231L134.374,46.231L135.251,46.231L136.15,46.231L136.999,46.231L137.872,46.231L139.624,46.231L140.499,46.231L141.402,46.231L142.249,46.231L143.124,46.231L144.874,46.231L145.751,46.231L146.659,46.231L147.5,46.231L148.374,46.231L150.122,46.231L150.998,46.231L151.908,46.231L152.76,46.231L153.622,46.231L155.372,46.231L156.248,46.231L157.159,46.231L157.998,46.231L158.872,46.231L160.622,34.692L161.498,34.692L162.409,34.692L163.247,34.692L164.122,34.692L165.874,34.692L166.747,34.692L167.657,34.692L168.496,34.692L169.372,34.692L171.122,34.692L171.998,34.692L172.9,34.692L173.747,34.692L174.625,34.692L176.377,34.692L177.248,34.692L178.149,34.692L178.996,34.692L179.871,34.692L181.622,34.692L182.5,34.692L183.41,34.692L184.248,34.692L185.121,34.692L186.871,34.692L187.746,34.692L188.658,34.692L189.498,34.692L190.371,34.692L192.121,34.692L192.997,34.692L193.906,34.692L194.752,34.692L195.622,34.692L197.371,34.692L198.248,34.692L199.155,34.692L200,34.692" stroke="#f58518" stroke-width="2"/></g></g><path class="foreground" aria-hidden="true" d="" display="none"/></g><g transform="translate(0,0)"><path class="background" aria-hidden="true" d="M0,0h200v200h-200Z"/><g><g class="mark-line role-mark marks" role="graphics-object" aria-roledescription="line mark container"><path aria-label="Time: Jan 01, 2024; Price: 2499; identifier: altex-LG-F2WR508SBM" role="graphics-symbol" aria-roledescription="line mark" d="M0,7.769L0.55,7.769L1.381,7.769L3.131,7.769L4.007,7.769L4.927,7.769L5.763,7.769L6.63,7.769L8.381,7.769L9.257,7.769L10.177,7.769L11.014,7.769L11.879,7.769L13.631,7.769L14.507,7.769L15.426,7.769L16.269,7.769L17.132,7.769L18.883,27L19.757,27L20.676,27L21.517,27L22.379,27L24.131,27L25.005,27L25.922,27L26.762,27L27.629,27L29.385,27L30.255,27L31.171,27L32.012,27L32.879,27L34.634,27L35.511,27L36.431,27L37.269,27L38.128,27L39.885,27L40.759,27L41.691,27L42.52,27L43.378,27L45.134,27L46.009,27L46.931,27L47.766,27L48.628,27L50.383,27L51.258,27L52.182,27L53.019,27L53.878,27L55.632,27L56.508,27L57.427,27L58.266,27L59.128,27L60.879,38.538L61.753,38.538L62.669,38.538L63.51,38.538L64.377,38.538L66.133,38.538L67.002,38.538L67.918,38.538L68.758,38.538L69.627,38.538L71.383,38.538L72.259,38.538L73.183,38.538L74.018,38.538L74.877,38.538L76.63,38.538L77.51,38.538L78.431,38.538L79.271,38.538L80.127,38.538L81.881,38.538L82.759,38.538L83.682,38.538L84.517,38.538L85.376,38.538L87.13,38.538L88.006,38.538L88.928,38.538L89.763,38.538L90.629,38.538L92.381,38.538L93.256,38.538L94.179,38.538L95.018,38.538L95.876,38.538L97.63,38.538L98.5,38.538L99.419,38.538L100.263,38.538L101.127,38.538L102.876,38.538L103.751,38.538L104.668,38.538L105.509,38.538L106.376,38.538L108.134,38.538L109.011,38.538L109.934,38.538L110.765,38.538L111.626,38.538L113.381,38.538L114.259,38.538L115.182,38.538L116.019,38.538L116.875,38.538L118.631,38.538L119.508,38.538L120.431,38.538L121.266,38.538L122.125,38.538L123.883,38.538L124.756,38.538L125.681,38.538L126.52,38.538L127.375,38.538L129.127,38.538L130.005,38.538L130.912,38.538L131.752,38.538L132.627,38.538L134.374,38.538L135.251,38.538L136.15,38.538L136.999,38.538L137.873,38.538L139.625,38.538L140.499,38.538L141.402,38.538L142.249,38.538L143.124,38.538L144.874,38.538L145.751,38.538L146.659,38.538L147.5,38.538L148.375,38.538L150.122,38.538L150.998,38.538L151.908,38.538L152.761,38.538L153.622,38.538L155.372,38.538L156.248,38.538L157.159,38.538L157.998,38.538L158.873,38.538L160.622,27L161.498,27L162.409,27L163.247,27L164.122,27L165.874,27L166.747,27L167.657,27L168.496,27L169.372,27L171.123,27L171.998,27L172.9,27L173.747,27L174.625,27L176.377,27L177.249,27L178.149,27L178.996,27L179.871,27L181.622,27L182.5,27L183.41,27L184.249,27L185.121,27L186.871,27L187.747,27L188.659,27L189.498,27L190.371,27L192.121,27L192.997,27L193.906,27L194.752,27L195.622,27L197.371,27L198.249,27L199.156,27L200,27" stroke="#4c78a8" stroke-width="2"/></g></g><path class="foreground" aria-hidden="true" d="" display="none"/></g></g><g class="mark-group role-legend" role="graphics-symbol" aria-roledescription="legend" aria-label="Symbol legend titled 'identifier' for stroke color with 2 values: altex-LG-F2WR508SBM, altex-LG-F2WR508SBW"><g transform="translate(220,0)"><path class="background" aria-hidden="true" d="M0,0h168v40h-168Z" pointer-events="none"/><g><g class="mark-group role-legend-entry"><g transform="translate(0,16)"><path class="background" aria-hidden="true" d="M0,0h0v0h0Z" pointer-events="none"/><g><g class="mark-group role-scope" role="graphics-object" aria-roledescription="group mark container"><g transform="translate(0,0)"><path class="background" aria-hidden="true" d="M0,0h168v11h-168Z" pointer-events="none" opacity="1"/><g><g class="mark-symbol role-legend-symbol" pointer-events="none"><path transform="translate(6,6)" d="M-5,0L5,0" stroke="#4c78a8" stroke-width="1.5" opacity="1"/></g><g class="mark-text role-legend-label" pointer-events="none"><text text-anchor="start" transform="translate(16,9)" font-family="Liberation Mono" font-size="10px" fill="#000" opacity="1">altex-LG-F2WR508SBM</text></g></g><path class="foreground" aria-hidden="true" d="" pointer-events="none" display="none"/></g><g transform="translate(0,13)"><path class="background" aria-hidden="true" d="M0,0h168v11h-168Z" pointer-events="none" opacity="1"/><g><g class="mark-symbol role-legend-symbol" pointer-events="none"><path transform="translate(6,6)" d="M-5,0L5,0" stroke="#f58518" stroke-width="1.5" opacity="1"/></g><g class="mark-text role-legend-label" pointer-events="none"><text text-anchor="start" transform="translate(16,9)" font-family="Liberation Mono" font-size="10px" fill="#000" opacity="1">altex-LG-F2WR508SBW</text></g></g><path class="foreground" aria-hidden="true" d="" pointer-events="none" display="none"/></g></g></g><path class="foreground" aria-hidden="true" d="" pointer-events="none" display="none"/></g></g><g class="mark-text role-legend-title" pointer-events="none"><text text-anchor="start" transform="translate(0,9)" font-family="Liberation Mono" font-size="11px" font-weight="bold" fill="#000" opacity="1">identifier</text></g></g><path class="foreground" aria-hidden="true" d="" pointer-events="none" display="none"/></g></g></g><path class="foreground" aria-hidden="true" d="" display="none"/></g></g></g></svg>