<svg xmlns="http://www.w3.org/2000/svg" xmlns:xlink="http://www.w3.org/1999/xlink" version="1.1" class="marks" width="460" height="242" viewBox="0 0 460 242"><rect width="460" height="242" fill="white"/><g fill="none" stroke-miterlimit="10" transform="translate(67,5)"><g class="mark-group role-frame root" role="graphics-object" aria-roledescription="group mark container"><g transform="translate(0,0)"><path class="background" aria-hidden="true" d="M0.5,0.5h200v200h-200Z" stroke="#ddd"/><g><g class="mark-group role-axis" aria-hidden="true"><g transform="translate(0.5,200.5)"><path class="background" aria-hidden="true" d="M0,0h0v0h0Z" pointer-events="none"/><g><g class="mark-rule role-axis-grid" pointer-events="none"><line transform="translate(28,-200)" x2="0" y2="200" stroke="#ddd" stroke-width="1" opacity="1"/><line transform="translate(55,-200)" x2="0" y2="200" stroke="#ddd" stroke-width="1" opacity="1"/><line transform="translate(83,-200)" x2="0" y2="200" stroke="#ddd" stroke-width="1" opacity="1"/><line transform="translate(111,-200)" x2="0" y2="200" stroke="#ddd" stroke-width="1" opacity="1"/><line transform="translate(139,-200)" x2="0" y2="200" stroke="#ddd" stroke-width="1" opacity="1"/><line transform="translate(167,-200)" x2="0" y2="200" stroke="#ddd" stroke-width="1" opacity="1"/><line transform="translate(195,-200)" x2="0" y2="200" stroke="#ddd" stroke-width="1" opacity="1"/></g></g><path class="foreground" aria-hidden="true" d="" pointer-events="none" display="none"/></g></g><g class="mark-group role-axis" aria-hidden="true"><g transform="translate(0.5,0.5)"><path class="background" aria-hidden="true" d="M0,0h0v0h0Z" pointer-events="none"/><g><g class="mark-rule role-axis-grid" pointer-events="none"><line transform="translate(0,200)" x2="200" y2="0" stroke="#ddd" stroke-width="1" opacity="1"/><line transform="translate(0,162)" x2="200" y2="0" stroke="#ddd" stroke-width="1" opacity="1"/><line transform="translate(0,123)" x2="200" y2="0" stroke="#ddd" stroke-width="1" opacity="1"/><line transform="translate(0,85)" x2="200" y2="0" stroke="#ddd" stroke-width="1" opacity="1"/><line transform="translate(0,46)" x2="200" y2="0" stroke="#ddd" stroke-width="1" opacity="1"/><line transform="translate(0,8)" x2="200" y2="0" stroke="#ddd" stroke-width="1" opacity="1"/></g></g><path class="foreground" aria-hidden="true" d="" pointer-events="none" display="none"/></g></g><g class="mark-group role-axis" role="graphics-symbol" aria-roledescription="axis" aria-label="X-axis titled 'Time' for a time scale with values from Monday, 01 January 2024, 2:19:43 PM to Tuesday, 06 August 2024, 4:41:52 AM"><g transform="translate(0.5,200.5)"><path class="background" aria-hidden="true" d="M0,0h0v0h0Z" pointer-events="none"/><g><g class="mark-rule role-axis-tick" pointer-events="none"><line transform="translate(28,0)" x2="0" y2="5" stroke="#888" stroke-width="1" opacity="1"/><line transform="translate(55,0)" x2="0" y2="5" stroke="#888" stroke-width="1" opacity="1"/><line transform="translate(83,0)" x2="0" y2="5" stroke="#888" stroke-width="1" opacity="1"/><line transform="translate(111,0)" x2="0" y2="5" stroke="#888" stroke-width="1" opacity="1"/><line transform="translate(139,0)" x2="0" y2="5" stroke="#888" stroke-width="1" opacity="1"/><line transform="translate(167,0)" x2="0" y2="5" stroke="#888" stroke-width="1" opacity="1"/><line transform="translate(195,0)" x2="0" y2="5" stroke="#888" stroke-width="1" opacity="1"/></g><g class="mark-text role-axis-label" pointer-events="none"><text text-anchor="middle" transform="translate(27.944073403000324,15)" font-family="Liberation Mono" font-size="10px" fill="#000" opacity="1">February</text><text text-anchor="middle" transform="translate(54.598641847283204,15)" font-family="Liberation Mono" font-size="10px" fill="#000" opacity="0">March</text><text text-anchor="middle" transform="translate(83.0914563911718,15)" font-family="Liberation Mono" font-size="10px" fill="#000" opacity="1">April</text><text text-anchor="middle" transform="translate(110.66514788525754,15)" font-family="Liberation Mono" font-size="10px" fill="#000" opacity="0">May</text><text text-anchor="middle" transform="translate(139.15796242914612,15)" font-family="Liberation Mono" font-size="10px" fill="#000" opacity="1">June</text><text text-anchor="middle" transform="translate(166.73165392323185,15)" font-family="Liberation Mono" font-size="10px" fill="#000" opacity="0">July</text><text text-anchor="middle" transform="translate(195.22446846712046,15)" font-family="Liberation Mono" font-size="10px" fill="#000" opacity="1">August</text></g><g class="mark-rule role-axis-domain" pointer-events="none"><line transform="translate(0,0)" x2="200" y2="0" stroke="#888" stroke-width="1" opacity="1"/></g><g class="mark-text role-axis-title" pointer-events="none"><text text-anchor="middle" transform="translate(100,30)" font-family="Liberation Mono" font-size="11px" font-weight="bold" fill="#000" opacity="1">Time</text></g></g><path class="foreground" aria-hidden="true" d="" pointer-events="none" display="none"/></g></g><g class="mark-group role-axis" role="graphics-symbol" aria-roledescription="axis" aria-label="Y-axis titled 'Price' for a linear scale with values from 0 to 2,600"><g transform="translate(0.5,0.5)"><path class="background" aria-hidden="true" d="M0,0h0v0h0Z" pointer-events="none"/><g><g class="mark-rule role-axis-tick" pointer-events="none"><line transform="translate(0,200)" x2="-5" y2="0" stroke="#888" stroke-width="1" opacity="1"/><line transform="translate(0,162)" x2="-5" y2="0" stroke="#888" stroke-width="1" opacity="1"/><line transform="translate(0,123)" x2="-5" y2="0" stroke="#888" stroke-width="1" opacity="1"/><line transform="translate(0,85)" x2="-5" y2="0" stroke="#888" stroke-width="1" opacity="1"/><line transform="translate(0,46)" x2="-5" y2="0" stroke="#888" stroke-width="1" opacity="1"/><line transform="translate(0,8)" x2="-5" y2="0" stroke="#888" stroke-width="1" opacity="1"/></g><g class="mark-text role-axis-label" pointer-events="none"><text text-anchor="end" transform="translate(-7,203)" font-family="Liberation Mono" font-size="10px" fill="#000" opacity="1">0</text><text text-anchor="end" transform="translate(-7,164.53846153846155)" font-family="Liberation Mono" font-size="10px" fill="#000" opacity="1">500</text><text text-anchor="end" transform="translate(-7,126.07692307692308)" font-family="Liberation Mono" font-size="10px" fill="#000" opacity="1">1,000</text><text text-anchor="end" transform="translate(-7,87.61538461538463)" font-family="Liberation Mono" font-size="10px" fill="#000" opacity="1">1,500</text><text text-anchor="end" transform="translate(-7,49.153846153846146)" font-family="Liberation Mono" font-size="10px" fill="#000" opacity="1">2,000</text><text text-anchor="end" transform="translate(-7,10.692307692307686)" font-family="Liberation Mono" font-size="10px" fill="#000" opacity="1">2,500</text></g><g class="mark-rule role-axis-domain" pointer-events="none"><line transform="translate(0,200)" x2="0" y2="-200" stroke="#888" stroke-width="1" opacity="1"/></g><g class="mark-text role-axis-title" pointer-events="none"><text text-anchor="middle" transform="translate(-51,100) rotate(-90) translate(0,-2)" font-family="Liberation Mono" font-size="11px" font-weight="bold" fill="#000" opacity="1">Price</text></g></g><path class="foreground" aria-hidden="true" d="" pointer-events="none" display="none"/></g></g><g class="mark-group role-scope pathgroup" role="graphics-object" aria-roledescription="group mark container"><g transform="translate(0,0)"><path class="background" aria-hidden="true" d="M0,0h200v200h-200Z"/><g><g class="mark-line role-mark marks" role="graphics-object" aria-roledescription="line mark container"><path aria-label="Time: Jan 01, 2024; Price: 2399; identifier: altex-LG-F2WR508SBW" role="graphics-symbol" aria-roledescription="line mark" d="M0,15.462L0.096,15.462L0.242,15.462L0.548,15.462L0.702,15.462L0.863,15.462L1.009,15.462L1.161,15.462L1.467,15.462L1.621,15.462L1.782,15.462L1.928,15.462L2.08,15.462L2.386,15.462L2.54,15.462L2.701,15.462L2.848,15.462L2.999,15.462L3.306,34.692L3.459,34.692L3.62,34.692L3.767,34.692L3.918,34.692L4.225,34.692L4.378,34.692L4.538,34.692L4.685,34.692L4.837,34.692L5.145,34.692L5.297,34.692L5.457,34.692L5.605,34.692L5.756,34.692L6.064,34.692L6.217,34.692L6.378,34.692L6.525,34.692L6.675,34.692L6.983,34.692L7.136,34.692L7.299,34.692L7.444,34.692L7.595,34.692L7.902,34.692L8.055,34.692L8.217,34.692L8.363,34.692L8.514,34.692L8.821,34.692L8.974,34.692L9.136,34.692L9.282,34.692L9.433,34.692L9.74,34.692L9.893,34.692L10.054,34.692L10.201,34.692L10.352,34.692L10.659,46.231L10.812,46.231L10.972,46.231L11.119,46.231L11.271,46.231L11.578,46.231L11.731,46.231L11.891,46.231L12.038,46.231L12.19,46.231L12.498,46.231L12.651,46.231L12.813,46.231L12.959,46.231L13.109,46.231L13.416,46.231L13.57,46.231L13.732,46.231L13.878,46.231L14.028,46.231L14.336,46.231L14.489,46.231L14.651,46.231L14.797,46.231L14.948,46.231L15.255,46.231L15.408,46.231L15.57,46.231L15.716,46.231L15.867,46.231L16.174,46.231L16.327,46.231L16.489,46.231L16.636,46.231L16.786,46.231L17.093,46.231L17.245,46.231L17.406,46.231L17.554,46.231L17.705,46.231L18.011,46.231L18.165,46.231L18.325,46.231L18.472,46.231L18.624,46.231L18.932,46.231L19.085,46.231L19.247,46.231L19.393,46.231L19.543,46.231L19.851,46.231L20.004,46.231L20.166,46.231L20.312,46.231L20.462,46.231L20.77,46.231L20.923,46.231L21.085,46.231L21.231,46.231L21.382,46.231L21.689,46.231L21.842,46.231L22.004,46.231L22.151,46.231L22.301,46.231L22.607,46.231L22.761,46.231L22.92,46.231L23.067,46.231L23.22,46.231L23.526,46.231L23.68,46.231L23.837,46.231L23.986,46.231L24.139,46.231L24.445,46.231L24.599,46.231L24.757,46.231L24.905,46.231L25.058,46.231L25.364,46.231L25.518,46.231L25.677,46.231L25.824,46.231L25.977,46.231L26.283,46.231L26.437,46.231L26.596,46.231L26.745,46.231L26.896,46.231L27.202,46.231L27.356,46.231L27.515,46.231L27.662,46.231L27.815,46.231L28.122,34.692L28.275,34.692L28.435,34.692L28.581,34.692L28.734,34.692L29.041,34.692L29.194,34.692L29.353,34.692L29.5,34.692L29.654,34.692L29.96,34.692L30.113,34.692L30.271,34.692L30.419,34.692L30.573,34.692L30.88,34.692L31.033,34.692L31.19,34.692L31.339,34.692L31.492,34.692L31.798,34.692L31.952,34.692L32.111,34.692L32.258,34.692L32.411,34.692L32.717,34.692L32.871,34.692L33.03,34.692L33.177,34.692L33.33,34.692L33.636,34.692L33.79,34.692L33.949,34.692L34.097,34.692L34.249,34.692L34.556,34.692L34.709,34.692L34.868,34.692L35.016,34.692L35.168,34.692L35.475,34.692L35.628,34.692L35.787,34.692L35.935,34.692L36.088,34.692L36.394,34.692L36.547,34.692L36.705,34.692L36.853,34.692L37.007,34.692L37.314,34.692L37.466,34.692L37.624,34.692L37.773,34.692L37.926,34.692L38.232,34.692L38.385,34.692L38.545,34.692L38.692,34.692L38.845,34.692L39.151,34.692L39.304,34.692L39.463,34.692L39.613,34.692L39.764,34.692L40.07,34.692L40.224,34.692L40.383,34.692L40.53,34.692L40.683,34.692L41.143,34.692L41.302,34.692L41.449,34.692L41.602,34.692L41.909,34.692L42.062,34.692L42.221,34.692L42.369,34.692L42.521,34.692L42.828,34.692L42.981,34.692L43.139,34.692L43.287,34.692L43.44,34.692L43.747,34.692L43.901,34.692L44.058,34.692L44.207,34.692L44.36,34.692L44.666,34.692L44.82,34.692L44.979,34.692L45.127,34.692L45.279,34.692L45.586,34.692L45.738,34.692L45.897,34.692L46.045,34.692L46.198,34.692L46.504,34.692L46.658,34.692L46.817,34.692L46.964,34.692L47.117,34.692L47.423,34.692L47.576,34.692L47.736,34.692L47.884,34.692L48.036,34.692L48.343,34.692L48.496,34.692L48.654,34.692L48.802,34.692L48.956,34.692L49.262,34.692L49.415,34.692L49.573,34.692L49.721,34.692L49.874,34.692L50.181,34.692L50.334,34.692L50.492,34.692L50.641,34.692L50.793,34.692L51.1,34.692L51.254,34.692L51.413,34.692L51.56,34.692L51.712,34.692L52.019,34.692L52.172,34.692L52.331,34.692L52.479,34.692L52.632,34.692L52.938,34.692L53.091,34.692L53.25,34.692L53.398,34.692L53.551,34.692L53.857,34.692L54.01,34.692L54.169,34.692L54.317,34.692L54.47,34.692L54.776,34.692L54.93,34.692L55.089,34.692L55.236,34.692L55.389,34.692L55.695,34.692L55.849,34.692L56.008,34.692L56.155,34.692L56.308,34.692L56.615,34.692L56.768,34.692L56.926,34.692L57.074,34.692L57.227,34.692L57.548,34.692L57.757,34.692L57.849,34.692L57.994,34.692L58.147,34.692L58.453,34.692L58.606,34.692L58.766,34.692L58.913,34.692L59.065,34.692L59.372,34.692L59.526,34.692L59.685,34.692L59.833,34.692L59.985,34.692L60.291,34.692L60.445,34.692L60.603,34.692L60.751,34.692L60.904,34.692L61.21,34.692L61.366,34.692L61.523,34.692L61.67,34.692L61.823,34.692L62.129,34.692L62.283,34.692L62.44,34.692L62.59,34.692L62.742,34.692L63.048,34.692L63.203,34.692L63.359,34.692L63.508,34.692L63.661,34.692L63.968,34.692L64.121,34.692L64.281,34.692L64.428,34.692L64.58,34.692L64.887,34.692L65.04,34.692L65.199,34.692L65.348,34.692L65.499,34.692L65.806,34.692L65.96,34.692L66.119,34.692L66.265,34.692L66.418,34.692L66.725,34.692L66.878,34.692L67.038,34.692L67.185,34.692L67.338,34.692L67.644,34.692L67.798,34.692L67.956,34.692L68.104,34.692L68.257,34.692L68.563,34.692L68.717,34.692L68.875,34.692L69.023,34.692L69.176,34.692L69.482,34.692L69.636,34.692L69.794,34.692L69.942,34.692L70.095,34.692L70.401,34.692L70.555,34.692L70.715,34.692L70.863,34.692L71.015,34.692L71.321,34.692L71.474,34.692L71.633,34.692L71.782,34.692L71.933,34.692L72.24,34.692L72.393,34.692L72.552,34.692L72.701,34.692L72.853,34.692L73.159,34.692L73.312,34.692L73.472,34.692L73.621,34.692L73.772,34.692L74.078,34.692L74.231,34.692L74.39,34.692L74.538,34.692L74.691,34.692L74.997,34.692L75.15,34.692L75.309,34.692L75.456,34.692L75.61,34.692L75.916,34.692L76.069,34.692L76.229,34.692L76.376,34.692L76.529,34.692L76.835,34.692L76.988,34.692L77.148,34.692L77.295,34.692L77.448,34.692L77.754,34.692L77.909,34.692L78.067,34.692L78.215,34.692L78.367,34.692L78.675,34.692L78.827,34.692L78.987,34.692L79.135,34.692L79.286,34.692L79.592,34.692L79.746,34.692L79.906,34.692L80.053,34.692L80.205,34.692L80.512,34.692L80.665,34.692L80.825,34.692L80.972,34.692L81.124,34.692L81.431,34.692L81.584,34.692L81.742,34.692L81.891,34.692L82.044,34.692L82.35,34.692L82.504,34.692L82.662,34.692L82.81,34.692L82.963,34.692L83.269,34.692L83.423,34.692L83.583,34.692L83.731,34.692L83.882,34.692L84.189,34.692L84.342,34.692L84.502,34.692L84.649,34.692L84.801,34.692L85.107,34.692L85.261,34.692L85.42,34.692L85.569,34.692L85.72,34.692L86.027,34.692L86.18,34.692L86.34,34.692L86.487,34.692L86.639,34.692L86.947,34.692L87.258,34.692L87.406,34.692L87.559,34.692L87.865,34.692L88.018,34.692L88.176,34.692L88.324,34.692L88.477,34.692L88.784,34.692L88.937,34.692L89.096,34.692L89.243,34.692L89.397,34.692L89.703,34.692L89.856,34.692L90.016,34.692L90.164,34.692L90.316,34.692L90.622,34.692L90.775,34.692L90.935,34.692L91.083,34.692L91.235,34.692L91.541,34.692L91.695,34.692L91.855,34.692L92.003,34.692L92.155,34.692L92.461,34.692L92.615,34.692L92.774,34.692L93.074,34.692L93.38,34.692L93.534,34.692L93.692,34.692L93.839,34.692L93.992,34.692L94.298,34.692L94.452,34.692L94.608,34.692L94.758,34.692L94.911,34.692L95.232,34.692L95.467,34.692L95.611,34.692L95.909,34.692L96.139,34.692L96.29,34.692L96.448,34.692L96.596,34.692L96.75,34.692L97.056,34.692L97.209,34.692L97.37,34.692L97.515,34.692L97.669,34.692L97.975,34.692L98.128,34.692L98.289,34.692L98.437,34.692L98.588,34.692L99.048,34.692L99.207,34.692L99.355,34.692L99.507,34.692L99.813,34.692L99.967,34.692L100.126,34.692L100.274,34.692L100.426,34.692L100.733,34.692L100.886,34.692L101.044,34.692L101.192,34.692L101.345,34.692L101.652,34.692L101.805,34.692L101.964,34.692L102.111,34.692L102.264,34.692L102.571,34.692L102.725,34.692L102.885,34.692L103.031,34.692L103.183,34.692L103.49,34.692L103.643,34.692L103.804,34.692L103.951,34.692L104.103,34.692L104.409,34.692L104.563,34.692L104.727,34.692L104.869,34.692L105.022,34.692L105.328,34.692L105.482,34.692L105.638,34.692L105.788,34.692L105.941,34.692L106.247,34.692L106.401,34.692L106.561,34.692L106.708,34.692L106.861,34.692L107.166,34.692L107.319,34.692L107.478,34.692L107.626,34.692L107.779,34.692L108.086,34.692L108.239,34.692L108.398,34.692L108.545,34.692L108.698,34.692L109.004,34.692L109.16,34.692L109.319,34.692L109.465,34.692L109.617,34.692L109.924,34.692L110.078,34.692L110.238,34.692L110.385,34.692L110.537,34.692L110.843,34.692L110.999,34.692L111.157,34.692L111.303,34.692L111.455,34.692L111.763,57.769L111.915,57.769L112.077,57.769L112.222,57.769L112.376,57.769L112.682,57.769L112.834,57.769L112.995,57.769L113.142,57.769L113.294,57.769L113.6,57.769L113.753,57.769L113.913,57.769L114.06,57.769L114.213,57.769L114.519,57.769L114.673,57.769L114.832,57.769L114.979,57.769L115.132,57.769L115.439,57.769L115.593,57.769L115.753,57.769L115.9,57.769L116.051,57.769L116.358,57.769L116.511,57.769L116.671,57.769L116.818,57.769L116.971,57.769L117.277,57.769L117.431,57.769L117.593,57.769L117.739,57.769L117.889,57.769L118.197,34.692L118.351,34.692L118.51,34.692L118.659,34.692L118.809,34.692L119.115,34.692L119.268,34.692L119.43,34.692L119.576,34.692L119.728,34.692L120.034,34.692L120.187,34.692L120.347,34.692L120.494,34.692L120.647,34.692L120.954,34.692L121.106,34.692L121.267,34.692L121.413,34.692L121.566,34.692L121.873,34.692L122.026,34.692L122.188,34.692L122.334,34.692L122.486,34.692L122.791,34.692L122.946,34.692L123.107,34.692L123.253,34.692L123.404,34.692L123.711,34.692L123.865,34.692L124.026,34.692L124.172,34.692L124.324,34.692L124.63,34.692L124.784,34.692L124.945,34.692L125.09,34.692L125.242,34.692L125.549,34.692L125.702,34.692L125.864,34.692L126.01,34.692L126.161,34.692L126.468,34.692L126.622,34.692L126.782,34.692L126.928,34.692L127.08,34.692L127.388,34.692L127.541,34.692L127.701,34.692L127.848,34.692L128,34.692L128.308,34.692L128.46,34.692L128.622,34.692L128.768,34.692L128.919,34.692L129.225,34.692L129.379,34.692L129.541,34.692L129.686,34.692L129.838,34.692L130.145,34.692L130.299,34.692L130.46,34.692L130.606,34.692L130.757,34.692L131.064,34.692L131.217,34.692L131.378,34.692L131.525,34.692L131.676,34.692L131.984,34.692L132.137,34.692L132.298,34.692L132.443,34.692L132.596,34.692L132.903,34.692L133.055,34.692L133.215,34.692L133.362,34.692L133.514,34.692L133.822,34.692L133.974,34.692L134.134,34.692L134.281,34.692L134.435,34.692L134.741,34.692L134.894,34.692L135.056,34.692L135.202,34.692L135.353,34.692L135.662,34.692L135.814,34.692L135.975,34.692L136.12,34.692L136.272,34.692L136.58,34.692L136.733,34.692L136.894,34.692L137.04,34.692L137.191,34.692L137.499,34.692L137.652,34.692L137.813,34.692L137.959,34.692L138.11,34.692L138.418,34.692L138.571,34.692L138.732,34.692L138.878,34.692L139.029,34.692L139.336,34.692L139.489,34.692L139.649,34.692L139.796,34.692L139.948,34.692L140.255,34.692L140.408,34.692L140.568,34.692L140.715,34.692L140.868,34.692L141.175,34.692L141.328,34.692L141.491,34.692L141.635,34.692L141.788,34.692L142.093,34.692L142.248,34.692L142.409,34.692L142.555,34.692L142.706,34.692L143.014,34.692L143.167,34.692L143.328,34.692L143.474,34.692L143.625,34.692L143.932,34.692L144.086,34.692L144.247,34.692L144.392,34.692L144.544,34.692L144.851,34.692L145.005,34.692L145.167,34.692L145.313,34.692L145.463,34.692L145.77,34.692L145.923,34.692L146.084,34.692L146.231,34.692L146.382,34.692L146.689,34.692L146.842,34.692L147.003,34.692L147.149,34.692L147.301,34.692L147.61,34.692L147.763,34.692L147.925,34.692L148.07,34.692L148.22,34.692L148.528,34.692L148.682,34.692L148.843,34.692L148.989,34.692L149.141,34.692L149.447,34.692L149.601,46.231L149.763,46.231L149.908,46.231L150.059,46.231L150.366,46.231L150.519,46.231L150.681,46.231L150.828,46.231L150.979,46.231L151.285,46.231L151.438,46.231L151.6,48.538L151.745,48.538L151.898,48.538L152.205,48.538L152.358,48.538L152.518,48.538L152.664,48.538L152.816,48.538L153.123,48.538L153.277,48.538L153.438,48.538L153.584,48.538L153.735,48.538L154.043,48.538L154.197,48.538L154.358,48.538L154.503,48.538L154.655,48.538L154.961,48.538L155.116,48.538L155.277,48.538L155.423,48.538L155.573,48.538L155.881,48.538L156.035,48.538L156.197,48.538L156.342,48.538L156.493,48.538L156.799,48.538L156.953,48.538L157.115,48.538L157.263,48.538L157.412,48.538L157.72,48.538L157.873,48.538L158.034,48.538L158.179,48.538L158.331,48.538L158.637,48.538L158.791,48.538L158.953,48.538L159.098,48.538L159.25,48.538L159.557,48.538L159.71,48.538L159.871,48.538L160.017,48.538L160.169,48.538L160.477,48.538L160.63,48.538L160.792,48.538L160.937,48.538L161.088,48.538L161.395,48.538L161.549,48.538L161.711,48.538L162.008,48.538L162.316,48.538L162.469,48.538L162.63,48.538L162.776,48.538L162.927,48.538L163.235,48.538L163.388,48.538L163.549,48.538L163.695,48.538L163.846,48.538L164.153,48.538L164.307,48.538L164.469,48.538L164.613,48.538L164.765,48.538L165.072,48.538L165.225,48.538L165.386,48.538L165.532,48.538L165.684,48.538L165.991,48.538L166.144,48.538L166.305,48.538L166.452,48.538L166.603,48.538L166.91,48.538L167.064,48.538L167.227,48.538L167.372,48.538L167.522,48.538L167.83,48.538L167.983,48.538L168.144,48.538L168.291,48.538L168.442,48.538L168.748,48.538L168.902,48.538L169.064,48.538L169.21,48.538L169.36,48.538L169.668,48.538L169.821,48.538L169.983,48.538L170.128,48.538L170.28,48.538L170.588,48.538L170.74,48.538L170.902,48.538L171.047,48.538L171.198,48.538L171.506,48.538L171.659,48.538L171.819,48.538L171.966,48.538L172.118,48.538L172.424,48.538L172.577,48.538L172.739,48.538L172.884,48.538L173.037,48.538L173.345,48.538L173.498,48.538L173.659,48.538L173.805,48.538L173.956,48.538L174.263,48.538L174.417,48.538L174.58,48.538L174.725,48.538L174.876,48.538L175.183,48.538L175.337,48.538L175.498,48.538L175.643,48.538L175.795,48.538L176.102,48.538L176.255,48.538L176.418,48.538L176.562,48.538L176.713,48.538L177.021,48.538L177.174,48.538L177.337,48.538L177.481,48.538L177.633,48.538L177.939,48.538L178.092,48.538L178.253,48.538L178.399,48.538L178.551,48.538L178.86,48.538L179.013,48.538L179.183,48.538L179.327,48.538L179.471,48.538L179.779,48.538L179.932,48.538L180.095,48.538L180.24,48.538L180.39,48.538L180.698,48.538L180.851,48.538L181.01,48.538L181.159,48.538L181.309,48.538L181.616,48.538L181.77,48.538L181.932,48.538L182.078,48.538L182.228,48.538L182.536,48.538L182.689,48.538L182.852,48.538L182.996,48.538L183.147,48.538L183.455,48.538L183.608,48.538L183.77,48.538L183.916,48.538L184.067,48.538L184.374,48.538L184.526,48.538L184.688,48.538L184.834,48.538L184.986,48.538L185.292,48.538L185.445,48.538L185.607,48.538L185.755,48.538L185.905,48.538L186.212,48.538L186.367,48.538L186.528,48.538L186.673,48.538L186.824,48.538L187.131,48.538L187.285,48.538L187.447,48.538L187.593,48.538L187.743,48.538L188.05,27L188.204,27L188.367,27L188.511,27L188.662,27L188.97,27L189.124,27L189.285,27L189.431,27L189.582,27L189.89,27L190.042,27L190.204,27L190.351,27L190.5,27L190.808,27L190.96,27L191.123,27L191.267,27L191.42,27L191.726,27L191.879,27L192.041,27L192.188,27L192.338,27L192.646,27L192.8,27L192.962,27L193.107,27L193.258,27L193.565,27L193.718,27L193.881,27L194.026,27L194.176,27L194.483,27L194.636,27L194.8,27L194.945,27L195.096,27L195.403,27L195.557,27L195.719,27L195.864,27L196.016,27L196.323,27L196.476,27L196.638,27L196.784,27L196.934,27L197.241,27L197.395,27L197.555,27L197.702,27L197.853,27L198.162,27L198.314,27L198.475,27L198.62,27L198.773,27L199.08,27L199.234,27L199.396,27L199.541,27L199.692,27L200,27" stroke="#4c78a8" stroke-width="2"/></g></g><path class="foreground" aria-hidden="true" d="" display="none"/></g><g transform="translate(0,0)"><path class="background" aria-hidden="true" d="M0,0h200v200h-200Z"/><g><g class="mark-line role-mark marks" role="graphics-object" aria-roledescription="line mark container"><path aria-label="Time: Jan 01, 2024; Price: 2499; identifier: altex-LG-F2WR508SBM" role="graphics-symbol" aria-roledescription="line mark" d="M0,7.769L0.096,7.769L0.242,7.769L0.548,7.769L0.702,7.769L0.863,7.769L1.009,7.769L1.161,7.769L1.467,7.769L1.621,7.769L1.782,7.769L1.928,7.769L2.08,7.769L2.387,7.769L2.54,7.769L2.701,7.769L2.848,7.769L2.999,7.769L3.306,27L3.459,27L3.62,27L3.767,27L3.918,27L4.225,27L4.378,27L4.538,27L4.685,27L4.837,27L5.145,27L5.297,27L5.457,27L5.605,27L5.756,27L6.064,27L6.217,27L6.378,27L6.525,27L6.675,27L6.983,27L7.136,27L7.299,27L7.444,27L7.595,27L7.902,27L8.055,27L8.217,27L8.363,27L8.514,27L8.821,27L8.974,27L9.136,27L9.282,27L9.433,27L9.74,27L9.893,27L10.054,27L10.201,27L10.352,27L10.659,38.538L10.812,38.538L10.972,38.538L11.119,38.538L11.271,38.538L11.578,38.538L11.731,38.538L11.891,38.538L12.038,38.538L12.19,38.538L12.498,38.538L12.651,38.538L12.813,38.538L12.959,38.538L13.109,38.538L13.416,38.538L13.57,38.538L13.732,38.538L13.879,38.538L14.029,38.538L14.336,38.538L14.489,38.538L14.651,38.538L14.797,38.538L14.948,38.538L15.255,38.538L15.408,38.538L15.57,38.538L15.716,38.538L15.867,38.538L16.174,38.538L16.327,38.538L16.489,38.538L16.636,38.538L16.786,38.538L17.093,38.538L17.245,38.538L17.406,38.538L17.554,38.538L17.705,38.538L18.012,38.538L18.165,38.538L18.325,38.538L18.472,38.538L18.624,38.538L18.932,38.538L19.086,38.538L19.247,38.538L19.393,38.538L19.543,38.538L19.851,38.538L20.004,38.538L20.166,38.538L20.313,38.538L20.462,38.538L20.77,38.538L20.923,38.538L21.085,38.538L21.231,38.538L21.382,38.538L21.689,38.538L21.842,38.538L22.004,38.538L22.151,38.538L22.301,38.538L22.607,38.538L22.761,38.538L22.92,38.538L23.067,38.538L23.22,38.538L23.526,38.538L23.68,38.538L23.837,38.538L23.986,38.538L24.139,38.538L24.445,38.538L24.599,38.538L24.757,38.538L24.905,38.538L25.058,38.538L25.364,38.538L25.518,38.538L25.677,38.538L25.824,38.538L25.977,38.538L26.283,38.538L26.437,38.538L26.596,38.538L26.745,38.538L26.896,38.538L27.202,38.538L27.356,38.538L27.515,38.538L27.662,38.538L27.815,38.538L28.122,27L28.275,27L28.435,27L28.581,27L28.734,27L29.041,27L29.194,27L29.353,27L29.5,27L29.654,27L29.96,27L30.113,27L30.271,27L30.42,27L30.573,27L30.88,27L31.033,27L31.19,27L31.339,27L31.492,27L31.798,27L31.952,27L32.111,27L32.258,27L32.411,27L32.717,27L32.871,27L33.03,27L33.177,27L33.33,27L33.636,27L33.79,27L33.949,27L34.097,27L34.249,27L34.556,27L34.709,27L34.868,27L35.016,27L35.168,27L35.475,27L35.628,27L35.787,27L35.935,27L36.088,27L36.394,27L36.547,27L36.705,27L36.853,27L37.007,27L37.314,27L37.466,27L37.624,27L37.773,27L37.926,27L38.232,27L38.385,27L38.545,27L38.692,27L38.845,27L39.151,27L39.304,27L39.464,27L39.613,27L39.764,27L40.07,27L40.224,27L40.383,27L40.53,27L40.683,27L41.143,27L41.302,27L41.449,27L41.602,27L41.909,27L42.062,27L42.221,27L42.369,27L42.521,27L42.828,27L42.981,27L43.139,27L43.287,27L43.44,27L43.747,27L43.901,27L44.058,27L44.207,27L44.36,27L44.666,27L44.82,27L44.979,27L45.127,27L45.279,27L45.586,27L45.738,27L45.897,27L46.045,27L46.198,27L46.504,27L46.658,27L46.817,27L46.965,27L47.117,27L47.423,27L47.576,27L47.736,27L47.884,27L48.036,27L48.343,27L48.496,27L48.654,27L48.802,27L48.956,27L49.262,27L49.415,27L49.573,27L49.721,27L49.874,27L50.181,27L50.334,27L50.492,27L50.641,27L50.793,27L51.1,27L51.254,27L51.413,27L51.56,27L51.712,27L52.019,27L52.172,27L52.331,27L52.479,27L52.632,27L52.938,27L53.091,27L53.25,27L53.398,27L53.551,27L53.857,27L54.01,27L54.169,27L54.317,27L54.47,27L54.776,27L54.93,27L55.089,27L55.236,27L55.389,27L55.696,27L55.849,27L56.008,27L56.155,27L56.308,27L56.615,27L56.768,27L56.926,27L57.074,27L57.227,27L57.548,27L57.757,27L57.849,27L57.994,27L58.147,27L58.453,27L58.606,27L58.766,27L58.913,27L59.065,27L59.372,27L59.526,27L59.685,27L59.833,27L59.985,27L60.291,27L60.445,27L60.603,38.538L60.751,38.538L60.904,38.538L61.21,38.538L61.366,38.538L61.523,38.538L61.67,38.538L61.823,38.538L62.13,38.538L62.283,38.538L62.44,38.538L62.59,38.538L62.742,38.538L63.048,38.538L63.203,38.538L63.359,38.538L63.508,38.538L63.661,38.538L63.968,38.538L64.121,38.538L64.281,38.538L64.428,38.538L64.58,38.538L64.887,38.538L65.04,38.538L65.199,38.538L65.348,38.538L65.499,38.538L65.806,38.538L65.96,38.538L66.119,38.538L66.266,38.538L66.418,38.538L66.725,38.538L66.878,38.538L67.038,38.538L67.185,38.538L67.338,38.538L67.644,38.538L67.798,38.538L67.957,38.538L68.104,38.538L68.257,38.538L68.563,38.538L68.717,38.538L68.875,38.538L69.023,38.538L69.176,38.538L69.482,38.538L69.636,38.538L69.794,38.538L69.942,38.538L70.095,38.538L70.401,38.538L70.555,38.538L70.715,38.538L70.863,38.538L71.015,38.538L71.321,38.538L71.474,38.538L71.633,38.538L71.782,38.538L71.933,38.538L72.24,38.538L72.393,38.538L72.552,38.538L72.701,38.538L72.853,38.538L73.159,38.538L73.313,38.538L73.472,38.538L73.621,38.538L73.772,38.538L74.078,38.538L74.231,38.538L74.391,38.538L74.538,38.538L74.691,38.538L74.997,38.538L75.15,38.538L75.309,38.538L75.457,38.538L75.61,38.538L75.916,38.538L76.069,38.538L76.229,38.538L76.376,38.538L76.529,38.538L76.835,38.538L76.989,38.538L77.148,38.538L77.295,38.538L77.448,38.538L77.754,38.538L77.909,38.538L78.067,38.538L78.215,38.538L78.367,38.538L78.675,38.538L78.827,38.538L78.987,38.538L79.135,38.538L79.286,38.538L79.593,38.538L79.746,38.538L79.906,38.538L80.053,38.538L80.205,38.538L80.512,38.538L80.665,38.538L80.825,38.538L80.972,38.538L81.124,38.538L81.431,38.538L81.584,38.538L81.742,38.538L81.891,38.538L82.044,38.538L82.35,38.538L82.504,38.538L82.662,38.538L82.81,38.538L82.963,38.538L83.269,38.538L83.423,38.538L83.583,38.538L83.731,38.538L83.882,38.538L84.189,38.538L84.342,38.538L84.502,38.538L84.649,38.538L84.801,38.538L85.107,38.538L85.261,38.538L85.42,38.538L85.569,38.538L85.72,38.538L86.027,38.538L86.18,38.538L86.34,38.538L86.487,38.538L86.639,38.538L86.947,38.538L87.258,38.538L87.406,38.538L87.559,38.538L87.865,38.538L88.018,38.538L88.176,38.538L88.324,38.538L88.477,38.538L88.784,38.538L88.937,38.538L89.096,38.538L89.243,38.538L89.397,38.538L89.703,38.538L89.856,38.538L90.016,38.538L90.164,38.538L90.316,38.538L90.622,38.538L90.775,38.538L90.935,38.538L91.083,38.538L91.235,38.538L91.541,38.538L91.695,38.538L91.855,38.538L92.003,38.538L92.155,38.538L92.461,38.538L92.615,38.538L92.774,38.538L93.074,38.538L93.38,38.538L93.534,38.538L93.693,38.538L93.839,38.538L93.992,38.538L94.299,38.538L94.452,38.538L94.608,38.538L94.758,38.538L94.911,38.538L95.232,38.538L95.467,38.538L95.611,38.538L95.909,38.538L96.139,38.538L96.29,38.538L96.448,38.538L96.596,38.538L96.75,38.538L97.056,38.538L97.209,38.538L97.37,38.538L97.515,38.538L97.669,38.538L97.975,38.538L98.128,38.538L98.289,38.538L98.437,38.538L98.588,38.538L99.048,38.538L99.207,38.538L99.355,38.538L99.507,38.538L99.813,38.538L99.967,38.538L100.126,38.538L100.274,38.538L100.426,38.538L100.733,38.538L100.886,38.538L101.045,38.538L101.192,38.538L101.345,38.538L101.652,38.538L101.805,38.538L101.964,38.538L102.111,38.538L102.265,38.538L102.571,38.538L102.725,38.538L102.885,38.538L103.031,38.538L103.183,38.538L103.49,38.538L103.643,38.538L103.804,38.538L103.951,38.538L104.103,38.538L104.409,38.538L104.563,38.538L104.727,38.538L104.869,38.538L105.022,38.538L105.328,38.538L105.482,38.538L105.638,38.538L105.788,38.538L105.941,38.538L106.247,38.538L106.401,38.538L106.561,38.538L106.708,38.538L106.861,38.538L107.167,38.538L107.319,38.538L107.478,38.538L107.626,38.538L107.779,38.538L108.086,38.538L108.239,38.538L108.399,38.538L108.545,38.538L108.698,38.538L109.004,38.538L109.16,38.538L109.319,38.538L109.465,38.538L109.618,38.538L109.924,38.538L110.078,38.538L110.238,38.538L110.385,38.538L110.537,38.538L110.843,38.538L110.999,38.538L111.157,38.538L111.303,38.538L111.455,38.538L111.763,38.538L111.915,38.538L112.077,38.538L112.222,38.538L112.376,38.538L112.682,38.538L112.834,38.538L112.995,38.538L113.142,38.538L113.294,38.538L113.6,38.538L113.753,38.538L113.913,38.538L114.06,38.538L114.213,38.538L114.519,38.538L114.673,38.538L114.832,38.538L114.979,38.538L115.132,38.538L115.439,38.538L115.593,38.538L115.753,38.538L115.9,38.538L116.051,38.538L116.358,38.538L116.511,38.538L116.671,30.846L116.818,30.846L116.971,30.846L117.277,30.846L117.431,30.846L117.593,30.846L117.739,30.846L117.889,30.846L118.197,30.846L118.351,30.846L118.51,30.846L118.659,30.846L118.809,30.846L119.115,30.846L119.268,30.846L119.43,30.846L119.576,30.846L119.728,30.846L120.034,30.846L120.187,30.846L120.347,30.846L120.494,30.846L120.647,30.846L120.954,30.846L121.106,30.846L121.267,30.846L121.413,30.846L121.566,30.846L121.873,30.846L122.026,30.846L122.188,30.846L122.334,30.846L122.486,30.846L122.791,30.846L122.946,30.846L123.107,30.846L123.253,30.846L123.404,30.846L123.711,30.846L123.865,30.846L124.026,30.846L124.172,30.846L124.324,30.846L124.63,30.846L124.784,30.846L124.945,30.846L125.09,30.846L125.242,30.846L125.549,30.846L125.702,30.846L125.864,30.846L126.01,30.846L126.161,30.846L126.468,30.846L126.622,30.846L126.782,30.846L126.928,30.846L127.081,30.846L127.388,30.846L127.541,30.846L127.701,30.846L127.848,30.846L128,30.846L128.308,30.846L128.46,30.846L128.622,30.846L128.768,30.846L128.919,30.846L129.225,30.846L129.379,30.846L129.541,30.846L129.686,30.846L129.839,30.846L130.145,30.846L130.299,30.846L130.46,38.538L130.606,38.538L130.757,38.538L131.064,38.538L131.217,38.538L131.378,38.538L131.525,38.538L131.676,38.538L131.984,38.538L132.137,38.538L132.298,38.538L132.443,38.538L132.596,38.538L132.903,38.538L133.055,38.538L133.215,38.538L133.362,38.538L133.514,38.538L133.822,38.538L133.974,38.538L134.134,38.538L134.281,38.538L134.435,38.538L134.741,38.538L134.894,38.538L135.056,38.538L135.202,38.538L135.353,38.538L135.662,38.538L135.814,38.538L135.975,38.538L136.12,38.538L136.272,38.538L136.58,38.538L136.733,38.538L136.894,38.538L137.04,38.538L137.191,38.538L137.5,38.538L137.652,38.538L137.813,38.538L137.959,38.538L138.11,38.538L138.418,30.846L138.571,30.846L138.732,30.846L138.878,30.846L139.029,30.846L139.336,30.846L139.489,30.846L139.65,30.846L139.796,30.846L139.948,30.846L140.255,30.846L140.408,30.846L140.568,30.846L140.715,30.846L140.868,30.846L141.175,30.846L141.329,30.846L141.491,30.846L141.635,30.846L141.788,30.846L142.093,30.846L142.248,30.846L142.409,30.846L142.555,30.846L142.706,30.846L143.014,30.846L143.167,30.846L143.328,30.846L143.474,30.846L143.625,30.846L143.932,30.846L144.086,30.846L144.247,30.846L144.392,30.846L144.544,30.846L144.852,30.846L145.005,30.846L145.167,30.846L145.313,30.846L145.463,30.846L145.77,30.846L145.923,30.846L146.084,30.846L146.231,30.846L146.382,30.846L146.689,30.846L146.842,30.846L147.003,30.846L147.149,30.846L147.301,30.846L147.61,30.846L147.763,30.846L147.925,30.846L148.07,30.846L148.22,30.846L148.529,30.846L148.682,30.846L148.843,30.846L148.989,30.846L149.141,30.846L149.447,30.846L149.601,34.692L149.763,34.692L149.908,34.692L150.059,34.692L150.366,34.692L150.52,34.692L150.681,34.692L150.828,34.692L150.979,34.692L151.285,34.692L151.438,34.692L151.6,40.077L151.745,40.077L151.898,40.077L152.205,40.077L152.358,40.077L152.518,40.077L152.664,40.077L152.817,40.077L153.123,40.077L153.277,40.077L153.438,40.077L153.584,40.077L153.735,40.077L154.043,40.077L154.197,40.077L154.359,40.077L154.503,40.077L154.655,40.077L154.961,40.077L155.116,40.077L155.277,40.077L155.423,40.077L155.573,40.077L155.881,40.077L156.035,40.077L156.197,40.077L156.342,40.077L156.493,40.077L156.799,40.077L156.953,40.077L157.115,40.077L157.263,40.077L157.412,40.077L157.72,40.077L157.873,40.077L158.034,40.077L158.179,40.077L158.331,40.077L158.637,40.077L158.791,40.077L158.953,40.077L159.098,40.077L159.25,40.077L159.557,40.077L159.71,40.077L159.871,40.077L160.017,40.077L160.169,40.077L160.477,40.077L160.63,40.077L160.792,40.077L160.937,40.077L161.088,40.077L161.395,40.077L161.549,40.077L161.711,40.077L162.008,40.077L162.316,40.077L162.469,40.077L162.631,40.077L162.776,40.077L162.927,40.077L163.235,40.077L163.388,40.077L163.549,40.077L163.695,40.077L163.846,40.077L164.153,40.077L164.307,40.077L164.469,40.077L164.613,40.077L164.766,40.077L165.073,40.077L165.225,40.077L165.386,40.077L165.532,40.077L165.684,40.077L165.991,40.077L166.144,40.077L166.305,40.077L166.452,40.077L166.603,40.077L166.91,40.077L167.064,40.077L167.227,40.077L167.372,40.077L167.522,40.077L167.83,40.077L167.983,40.077L168.144,40.077L168.291,40.077L168.442,40.077L168.748,40.077L168.902,40.077L169.064,40.077L169.21,40.077L169.36,40.077L169.668,40.077L169.821,40.077L169.983,40.077L170.128,40.077L170.28,40.077L170.588,40.077L170.74,40.077L170.902,40.077L171.047,40.077L171.198,40.077L171.506,40.077L171.659,40.077L171.819,40.077L171.966,40.077L172.118,40.077L172.424,40.077L172.578,40.077L172.739,40.077L172.884,40.077L173.037,40.077L173.345,40.077L173.498,40.077L173.659,40.077L173.805,40.077L173.956,40.077L174.263,40.077L174.418,40.077L174.58,40.077L174.725,40.077L174.876,40.077L175.183,40.077L175.337,40.077L175.498,40.077L175.643,40.077L175.795,40.077L176.102,40.077L176.255,40.077L176.418,40.077L176.562,40.077L176.713,40.077L177.021,40.077L177.174,40.077L177.337,40.077L177.481,40.077L177.633,40.077L177.939,40.077L178.092,40.077L178.253,40.077L178.399,40.077L178.551,40.077L178.86,40.077L179.014,40.077L179.183,40.077L179.327,40.077L179.471,40.077L179.779,40.077L179.932,40.077L180.095,40.077L180.24,40.077L180.39,40.077L180.698,40.077L180.851,40.077L181.011,40.077L181.159,40.077L181.309,40.077L181.616,40.077L181.77,40.077L181.932,40.077L182.078,40.077L182.228,40.077L182.536,40.077L182.689,40.077L182.852,40.077L182.996,40.077L183.147,40.077L183.455,40.077L183.608,40.077L183.77,40.077L183.916,40.077L184.067,40.077L184.374,40.077L184.526,40.077L184.688,40.077L184.834,40.077L184.986,40.077L185.293,40.077L185.445,40.077L185.607,40.077L185.755,40.077L185.905,40.077L186.213,40.077L186.367,40.077L186.528,40.077L186.674,40.077L186.824,40.077L187.131,40.077L187.285,40.077L187.447,40.077L187.593,40.077L187.743,40.077L188.05,40.077L188.204,40.077L188.367,40.077L188.511,40.077L188.662,40.077L188.97,40.077L189.124,40.077L189.285,40.077L189.431,40.077L189.582,40.077L189.89,40.077L190.042,40.077L190.204,40.077L190.351,40.077L190.5,40.077L190.808,40.077L190.96,40.077L191.123,40.077L191.267,40.077L191.42,40.077L191.726,40.077L191.879,40.077L192.041,40.077L192.188,40.077L192.338,40.077L192.646,40.077L192.8,40.077L192.962,40.077L193.107,40.077L193.258,40.077L193.565,40.077L193.718,40.077L193.881,40.077L194.026,40.077L194.177,40.077L194.483,40.077L194.636,40.077L194.801,40.077L194.945,40.077L195.096,40.077L195.403,40.077L195.557,40.077L195.719,40.077L195.864,40.077L196.016,40.077L196.323,40.077L196.477,40.077L196.638,40.077L196.784,40.077L196.934,40.077L197.241,40.077L197.395,40.077L197.555,40.077L197.702,40.077L197.853,40.077L198.162,40.077L198.314,40.077L198.475,40.077L198.62,40.077L198.773,40.077L199.08,40.077L199.234,40.077L199.397,40.077L199.541,40.077L199.692,40.077L200,40.077" stroke="#f58518" stroke-width="2"/></g></g><path class="foreground" aria-hidden="true" d="" display="none"/></g></g><g class="mark-group role-legend" role="graphics-symbol" aria-roledescription="legend" aria-label="Symbol legend titled 'identifier' for stroke color with 2 values: altex-LG-F2WR508SBW, altex-LG-F2WR508SBM"><g transform="translate(220,0)"><path class="background" aria-hidden="true" d="M0,0h168v40h-168Z" pointer-events="none"/><g><g class="mark-group role-legend-entry"><g transform="translate(0,16)"><path class="background" aria-hidden="true" d="M0,0h0v0h0Z" pointer-events="none"/><g><g class="mark-group role-scope" role="graphics-object" aria-roledescription="group mark container"><g transform="translate(0,0)"><path class="background" aria-hidden="true" d="M0,0h168v11h-168Z" pointer-events="none" opacity="1"/><g><g class="mark-symbol role-legend-symbol" pointer-events="none"><path transform="translate(6,6)" d="M-5,0L5,0" stroke="#4c78a8" stroke-width="1.5" opacity="1"/></g><g class="mark-text role-legend-label" pointer-events="none"><text text-anchor="start" transform="translate(16,9)" font-family="Liberation Mono" font-size="10px" fill="#000" opacity="1">altex-LG-F2WR508SBW</text></g></g><path class="foreground" aria-hidden="true" d="" pointer-events="none" display="none"/></g><g transform="translate(0,13)"><path class="background" aria-hidden="true" d="M0,0h168v11h-168Z" pointer-events="none" opacity="1"/><g><g class="mark-symbol role-legend-symbol" pointer-events="none"><path transform="translate(6,6)" d="M-5,0L5,0" stroke="#f58518" stroke-width="1.5" opacity="1"/></g><g class="mark-text role-legend-label" pointer-events="none"><text text-anchor="start" transform="translate(16,9)" font-family="Liberation Mono" font-size="10px" fill="#000" opacity="1">altex-LG-F2WR508SBM</text></g></g><path class="foreground" aria-hidden="true" d="" pointer-events="none" display="none"/></g></g></g><path class="foreground" aria-hidden="true" d="" pointer-events="none" display="none"/></g></g><g class="mark-text role-legend-title" pointer-events="none"><text text-anchor="start" transform="translate(0,9)" font-family="Liberation Mono" font-size="11px" font-weight="bold" fill="#000" opacity="1">identifier</text></g></g><path class="foreground" aria-hidden="true" d="" pointer-events="none" display="none"/></g></g></g><path class="foreground" aria-hidden="true" d="" display="none"/></g></g></g></svg>