<svg xmlns="http://www.w3.org/2000/svg" xmlns:xlink="http://www.w3.org/1999/xlink" version="1.1" class="marks" width="460" height="242" viewBox="0 0 460 242"><rect width="460" height="242" fill="white"/><g fill="none" stroke-miterlimit="10" transform="translate(67,5)"><g class="mark-group role-frame root" role="graphics-object" aria-roledescription="group mark container"><g transform="translate(0,0)"><path class="background" aria-hidden="true" d="M0.5,0.5h200v200h-200Z" stroke="#ddd"/><g><g class="mark-group role-axis" aria-hidden="true"><g transform="translate(0.5,200.5)"><path class="background" aria-hidden="true" d="M0,0h0v0h0Z" pointer-events="none"/><g><g class="mark-rule role-axis-grid" pointer-events="none"><line transform="translate(19,-200)" x2="0" y2="200" stroke="#ddd" stroke-width="1" opacity="1"/><line transform="translate(44,-200)" x2="0" y2="200" stroke="#ddd" stroke-width="1" opacity="1"/><line transform="translate(69,-200)" x2="0" y2="200" stroke="#ddd" stroke-width="1" opacity="1"/><line transform="translate(94,-200)" x2="0" y2="200" stroke="#ddd" stroke-width="1" opacity="1"/><line transform="translate(119,-200)" x2="0" y2="200" stroke="#ddd" stroke-width="1" opacity="1"/><line transform="translate(144,-200)" x2="0" y2="200" stroke="#ddd" stroke-width="1" opacity="1"/><line transform="translate(169,-200)" x2="0" y2="200" stroke="#ddd" stroke-width="1" opacity="1"/><line transform="translate(195,-200)" x2="0" y2="200" stroke="#ddd" stroke-width="1" opacity="1"/></g></g><path class="foreground" aria-hidden="true" d="" pointer-events="none" display="none"/></g></g><g class="mark-group role-axis" aria-hidden="true"><g transform="translate(0.5,0.5)"><path class="background" aria-hidden="true" d="M0,0h0v0h0Z" pointer-events="none"/><g><g class="mark-rule role-axis-grid" pointer-events="none"><line transform="translate(0,200)" x2="200" y2="0" stroke="#ddd" stroke-width="1" opacity="1"/><line transform="translate(0,162)" x2="200" y2="0" stroke="#ddd" stroke-width="1" opacity="1"/><line transform="translate(0,123)" x2="200" y2="0" stroke="#ddd" stroke-width="1" opacity="1"/><line transform="translate(0,85)" x2="200" y2="0" stroke="#ddd" stroke-width="1" opacity="1"/><line transform="translate(0,46)" x2="200" y2="0" stroke="#ddd" stroke-width="1" opacity="1"/><line transform="translate(0,8)" x2="200" y2="0" stroke="#ddd" stroke-width="1" opacity="1"/></g></g><path class="foreground" aria-hidden="true" d="" pointer-events="none" display="none"/></g></g><g class="mark-group role-axis" role="graphics-symbol" aria-roledescription="axis" aria-label="X-axis titled 'Time' for a time scale with values from Monday, 01 January 2024, 2:19:43 PM to Monday, 26 February 2024, 12:48:15 PM"><g transform="translate(0.5,200.5)"><path class="background" aria-hidden="true" d="M0,0h0v0h0Z" pointer-events="none"/><g><g class="mark-rule role-axis-tick" pointer-events="none"><line transform="translate(19,0)" x2="0" y2="5" stroke="#888" stroke-width="1" opacity="1"/><line transform="translate(44,0)" x2="0" y2="5" stroke="#888" stroke-width="1" opacity="1"/><line transform="translate(69,0)" x2="0" y2="5" stroke="#888" stroke-width="1" opacity="1"/><line transform="translate(94,0)" x2="0" y2="5" stroke="#888" stroke-width="1" opacity="1"/><line transform="translate(119,0)" x2="0" y2="5" stroke="#888" stroke-width="1" opacity="1"/><line transform="translate(144,0)" x2="0" y2="5" stroke="#888" stroke-width="1" opacity="1"/><line transform="translate(169,0)" x2="0" y2="5" stroke="#888" stroke-width="1" opacity="1"/><line transform="translate(195,0)" x2="0" y2="5" stroke="#888" stroke-width="1" opacity="1"/></g><g class="mark-text role-axis-label" pointer-events="none"><text text-anchor="middle" transform="translate(19.318242071467203,15)" font-family="Liberation Mono" font-size="10px" fill="#000" opacity="1">Jan 07</text><text text-anchor="middle" transform="translate(44.346627516362354,15)" font-family="Liberation Mono" font-size="10px" fill="#000" opacity="0">Jan 14</text><text text-anchor="middle" transform="translate(69.3750129612575,15)" font-family="Liberation Mono" font-size="10px" fill="#000" opacity="1">Jan 21</text><text text-anchor="middle" transform="translate(94.40339840615265,15)" font-family="Liberation Mono" font-size="10px" fill="#000" opacity="0">Jan 28</text><text text-anchor="middle" transform="translate(119.4317838510478,15)" font-family="Liberation Mono" font-size="10px" fill="#000" opacity="1">Feb 04</text><text text-anchor="middle" transform="translate(144.46016929594293,15)" font-family="Liberation Mono" font-size="10px" fill="#000" opacity="0">Feb 11</text><text text-anchor="middle" transform="translate(169.48855474083808,15)" font-family="Liberation Mono" font-size="10px" fill="#000" opacity="1">Feb 18</text><text text-anchor="middle" transform="translate(194.51694018573323,15)" font-family="Liberation Mono" font-size="10px" fill="#000" opacity="0">Feb 25</text></g><g class="mark-rule role-axis-domain" pointer-events="none"><line transform="translate(0,0)" x2="200" y2="0" stroke="#888" stroke-width="1" opacity="1"/></g><g class="mark-text role-axis-title" pointer-events="none"><text text-anchor="middle" transform="translate(100,30)" font-family="Liberation Mono" font-size="11px" font-weight="bold" fill="#000" opacity="1">Time</text></g></g><path class="foreground" aria-hidden="true" d="" pointer-events="none" display="none"/></g></g><g class="mark-group role-axis" role="graphics-symbol" aria-roledescription="axis" aria-label="Y-axis titled 'Price' for a linear scale with values from 0 to 2,600"><g transform="translate(0.5,0.5)"><path class="background" aria-hidden="true" d="M0,0h0v0h0Z" pointer-events="none"/><g><g class="mark-rule role-axis-tick" pointer-events="none"><line transform="translate(0,200)" x2="-5" y2="0" stroke="#888" stroke-width="1" opacity="1"/><line transform="translate(0,162)" x2="-5" y2="0" stroke="#888" stroke-width="1" opacity="1"/><line transform="translate(0,123)" x2="-5" y2="0" stroke="#888" stroke-width="1" opacity="1"/><line transform="translate(0,85)" x2="-5" y2="0" stroke="#888" stroke-width="1" opacity="1"/><line transform="translate(0,46)" x2="-5" y2="0" stroke="#888" stroke-width="1" opacity="1"/><line transform="translate(0,8)" x2="-5" y2="0" stroke="#888" stroke-width="1" opacity="1"/></g><g class="mark-text role-axis-label" pointer-events="none"><text text-anchor="end" transform="translate(-7,203)" font-family="Liberation Mono" font-size="10px" fill="#000" opacity="1">0</text><text text-anchor="end" transform="translate(-7,164.53846153846155)" font-family="Liberation Mono" font-size="10px" fill="#000" opacity="1">500</text><text text-anchor="end" transform="translate(-7,126.07692307692308)" font-family="Liberation Mono" font-size="10px" fill="#000" opacity="1">1,000</text><text text-anchor="end" transform="translate(-7,87.61538461538463)" font-family="Liberation Mono" font-size="10px" fill="#000" opacity="1">1,500</text><text text-anchor="end" transform="translate(-7,49.153846153846146)" font-family="Liberation Mono" font-size="10px" fill="#000" opacity="1">2,000</text><text text-anchor="end" transform="translate(-7,10.692307692307686)" font-family="Liberation Mono" font-size="10px" fill="#000" opacity="1">2,500</text></g><g class="mark-rule role-axis-domain" pointer-events="none"><line transform="translate(0,200)" x2="0" y2="-200" stroke="#888" stroke-width="1" opacity="1"/></g><g class="mark-text role-axis-title" pointer-events="none"><text text-anchor="middle" transform="translate(-51,100) rotate(-90) translate(0,-2)" font-family="Liberation Mono" font-size="11px" font-weight="bold" fill="#000" opacity="1">Price</text></g></g><path class="foreground" aria-hidden="true" d="" pointer-events="none" display="none"/></g></g><g class="mark-group role-scope pathgroup" role="graphics-object" aria-roledescription="group mark container"><g transform="translate(0,0)"><path class="background" aria-hidden="true" d="M0,0h200v200h-200Z"/><g><g class="mark-line role-mark marks" role="graphics-object" aria-roledescription="line mark container"><path aria-label="Time: Jan 01, 2024; Price: 2399; identifier: altex-LG-F2WR508SBW" role="graphics-symbol" aria-roledescription="line mark" d="M0,15.462L0.374,15.462L0.941,15.462L2.132,15.462L2.729,15.462L3.355,15.462L3.925,15.462L4.516,15.462L5.708,15.462L6.304,15.462L6.931,15.462L7.501,15.462L8.09,15.462L9.284,15.462L9.88,15.462L10.506,15.462L11.08,15.462L11.667,15.462L12.861,34.692L13.456,34.692L14.082,34.692L14.654,34.692L15.242,34.692L16.435,34.692L17.03,34.692L17.655,34.692L18.227,34.692L18.817,34.692L20.013,34.692L20.606,34.692L21.23,34.692L21.803,34.692L22.393,34.692L23.588,34.692L24.186,34.692L24.813,34.692L25.383,34.692L25.968,34.692L27.165,34.692L27.76,34.692L28.394,34.692L28.959,34.692L29.544,34.692L30.74,34.692L31.336,34.692L31.963,34.692L32.532,34.692L33.12,34.692L34.314,34.692L34.911,34.692L35.54,34.692L36.11,34.692L36.695,34.692L37.889,34.692L38.486,34.692L39.112,34.692L39.684,34.692L40.271,34.692L41.463,46.231L42.058,46.231L42.683,46.231L43.255,46.231L43.845,46.231L45.041,46.231L45.633,46.231L46.258,46.231L46.83,46.231L47.421,46.231L48.617,46.231L49.214,46.231L49.843,46.231L50.412,46.231L50.997,46.231L52.191,46.231L52.79,46.231L53.417,46.231L53.988,46.231L54.572,46.231L55.767,46.231L56.365,46.231L56.993,46.231L57.563,46.231L58.148,46.231L59.342,46.231L59.938,46.231L60.567,46.231L61.136,46.231L61.725,46.231L62.918,46.231L63.515,46.231L64.143,46.231L64.714,46.231L65.299,46.231L66.494,46.231L67.086,46.231L67.712,46.231L68.286,46.231L68.875,46.231L70.067,46.231L70.662,46.231L71.287,46.231L71.86,46.231L72.45,46.231L73.647,46.231L74.244,46.231L74.873,46.231L75.439,46.231L76.026,46.231L77.221,46.231L77.819,46.231L78.448,46.231L79.018,46.231L79.601,46.231L80.797,46.231L81.394,46.231L82.023,46.231L82.592,46.231L83.177,46.231L84.373,46.231L84.968,46.231L85.598,46.231L86.17,46.231L86.752,46.231L87.945,46.231L88.543,46.231L89.161,46.231L89.733,46.231L90.329,46.231L91.519,46.231L92.116,46.231L92.728,46.231L93.307,46.231L93.902,46.231L95.095,46.231L95.691,46.231L96.305,46.231L96.882,46.231L97.478,46.231L98.67,46.231L99.268,46.231L99.886,46.231L100.459,46.231L101.054,46.231L102.245,46.231L102.841,46.231L103.461,46.231L104.042,46.231L104.629,46.231L105.82,46.231L106.417,46.231L107.037,46.231L107.609,46.231L108.204,46.231L109.396,34.692L109.993,34.692L110.613,34.692L111.184,34.692L111.779,34.692L112.973,34.692L113.568,34.692L114.187,34.692L114.759,34.692L115.355,34.692L116.548,34.692L117.144,34.692L117.758,34.692L118.335,34.692L118.933,34.692L120.126,34.692L120.72,34.692L121.333,34.692L121.91,34.692L122.506,34.692L123.698,34.692L124.296,34.692L124.916,34.692L125.487,34.692L126.082,34.692L127.273,34.692L127.87,34.692L128.491,34.692L129.063,34.692L129.657,34.692L130.849,34.692L131.446,34.692L132.065,34.692L132.641,34.692L133.233,34.692L134.425,34.692L135.022,34.692L135.64,34.692L136.215,34.692L136.808,34.692L138.001,34.692L138.597,34.692L139.214,34.692L139.789,34.692L140.386,34.692L141.575,34.692L142.171,34.692L142.788,34.692L143.363,34.692L143.96,34.692L145.154,34.692L145.748,34.692L146.362,34.692L146.939,34.692L147.535,34.692L148.727,34.692L149.323,34.692L149.946,34.692L150.516,34.692L151.11,34.692L152.301,34.692L152.898,34.692L153.517,34.692L154.099,34.692L154.686,34.692L155.878,34.692L156.474,34.692L157.094,34.692L157.667,34.692L158.261,34.692L160.049,34.692L160.669,34.692L161.242,34.692L161.838,34.692L163.029,34.692L163.625,34.692L164.245,34.692L164.82,34.692L165.412,34.692L166.606,34.692L167.199,34.692L167.814,34.692L168.392,34.692L168.987,34.692L170.18,34.692L170.779,34.692L171.391,34.692L171.968,34.692L172.564,34.692L173.755,34.692L174.353,34.692L174.974,34.692L175.55,34.692L176.138,34.692L177.333,34.692L177.927,34.692L178.545,34.692L179.121,34.692L179.716,34.692L180.906,34.692L181.503,34.692L182.123,34.692L182.697,34.692L183.291,34.692L184.482,34.692L185.077,34.692L185.698,34.692L186.272,34.692L186.866,34.692L188.057,34.692L188.653,34.692L189.271,34.692L189.845,34.692L190.444,34.692L191.633,34.692L192.228,34.692L192.842,34.692L193.42,34.692L194.015,34.692L195.208,34.692L195.805,34.692L196.418,34.692L196.999,34.692L197.591,34.692L198.783,34.692L199.381,34.692L200,34.692" stroke="#f58518" stroke-width="2"/></g></g><path class="foreground" aria-hidden="true" d="" display="none"/></g><g transform="translate(0,0)"><path class="background" aria-hidden="true" d="M0,0h200v200h-200Z"/><g><g class="mark-line role-mark marks" role="graphics-object" aria-roledescription="line mark container"><path aria-label="Time: Jan 01, 2024; Price: 2499; identifier: altex-LG-F2WR508SBM" role="graphics-symbol" aria-roledescription="line mark" d="M0,7.769L0.374,7.769L0.941,7.769L2.133,7.769L2.729,7.769L3.355,7.769L3.925,7.769L4.516,7.769L5.708,7.769L6.305,7.769L6.932,7.769L7.501,7.769L8.091,7.769L9.284,7.769L9.88,7.769L10.506,7.769L11.081,7.769L11.668,7.769L12.861,27L13.456,27L14.082,27L14.654,27L15.242,27L16.435,27L17.03,27L17.655,27L18.227,27L18.817,27L20.013,27L20.606,27L21.23,27L21.803,27L22.393,27L23.588,27L24.186,27L24.813,27L25.383,27L25.968,27L27.165,27L27.76,27L28.394,27L28.959,27L29.544,27L30.74,27L31.336,27L31.963,27L32.532,27L33.12,27L34.314,27L34.911,27L35.54,27L36.11,27L36.695,27L37.889,27L38.486,27L39.112,27L39.684,27L40.271,27L41.463,38.538L42.058,38.538L42.683,38.538L43.255,38.538L43.846,38.538L45.041,38.538L45.634,38.538L46.258,38.538L46.83,38.538L47.421,38.538L48.617,38.538L49.214,38.538L49.843,38.538L50.412,38.538L50.997,38.538L52.191,38.538L52.79,38.538L53.417,38.538L53.989,38.538L54.572,38.538L55.767,38.538L56.365,38.538L56.994,38.538L57.563,38.538L58.148,38.538L59.342,38.538L59.939,38.538L60.567,38.538L61.136,38.538L61.725,38.538L62.919,38.538L63.515,38.538L64.143,38.538L64.714,38.538L65.299,38.538L66.494,38.538L67.086,38.538L67.712,38.538L68.286,38.538L68.875,38.538L70.067,38.538L70.662,38.538L71.287,38.538L71.86,38.538L72.45,38.538L73.648,38.538L74.245,38.538L74.873,38.538L75.44,38.538L76.026,38.538L77.221,38.538L77.819,38.538L78.448,38.538L79.018,38.538L79.601,38.538L80.797,38.538L81.394,38.538L82.023,38.538L82.592,38.538L83.177,38.538L84.374,38.538L84.968,38.538L85.598,38.538L86.17,38.538L86.752,38.538L87.945,38.538L88.543,38.538L89.161,38.538L89.733,38.538L90.329,38.538L91.519,38.538L92.117,38.538L92.728,38.538L93.307,38.538L93.902,38.538L95.095,38.538L95.691,38.538L96.306,38.538L96.883,38.538L97.479,38.538L98.67,38.538L99.268,38.538L99.886,38.538L100.459,38.538L101.054,38.538L102.245,38.538L102.841,38.538L103.461,38.538L104.042,38.538L104.629,38.538L105.82,38.538L106.417,38.538L107.038,38.538L107.609,38.538L108.204,38.538L109.396,27L109.993,27L110.613,27L111.184,27L111.78,27L112.973,27L113.568,27L114.187,27L114.759,27L115.356,27L116.548,27L117.144,27L117.758,27L118.335,27L118.933,27L120.126,27L120.72,27L121.333,27L121.91,27L122.506,27L123.698,27L124.296,27L124.916,27L125.487,27L126.082,27L127.274,27L127.87,27L128.491,27L129.063,27L129.658,27L130.849,27L131.446,27L132.065,27L132.641,27L133.233,27L134.425,27L135.022,27L135.64,27L136.215,27L136.808,27L138.001,27L138.598,27L139.214,27L139.789,27L140.386,27L141.576,27L142.171,27L142.788,27L143.363,27L143.96,27L145.154,27L145.748,27L146.362,27L146.939,27L147.535,27L148.727,27L149.323,27L149.946,27L150.516,27L151.11,27L152.301,27L152.898,27L153.517,27L154.099,27L154.686,27L155.878,27L156.474,27L157.094,27L157.667,27L158.261,27L160.049,27L160.669,27L161.242,27L161.838,27L163.03,27L163.625,27L164.245,27L164.82,27L165.413,27L166.606,27L167.2,27L167.814,27L168.392,27L168.988,27L170.18,27L170.779,27L171.391,27L171.968,27L172.564,27L173.755,27L174.353,27L174.974,27L175.55,27L176.138,27L177.333,27L177.927,27L178.545,27L179.121,27L179.716,27L180.906,27L181.503,27L182.123,27L182.697,27L183.291,27L184.482,27L185.077,27L185.698,27L186.272,27L186.866,27L188.058,27L188.653,27L189.271,27L189.845,27L190.444,27L191.633,27L192.229,27L192.842,27L193.42,27L194.015,27L195.208,27L195.805,27L196.418,27L196.999,27L197.591,27L198.783,27L199.382,27L200,27" stroke="#4c78a8" stroke-width="2"/></g></g><path class="foreground" aria-hidden="true" d="" display="none"/></g></g><g class="mark-group role-legend" role="graphics-symbol" aria-roledescription="legend" aria-label="Symbol legend titled 'identifier' for stroke color with 2 values: altex-LG-F2WR508SBM, altex-LG-F2WR508SBW"><g transform="translate(220,0)"><path class="background" aria-hidden="true" d="M0,0h168v40h-168Z" pointer-events="none"/><g><g class="mark-group role-legend-entry"><g transform="translate(0,16)"><path class="background" aria-hidden="true" d="M0,0h0v0h0Z" pointer-events="none"/><g><g class="mark-group role-scope" role="graphics-object" aria-roledescription="group mark container"><g transform="translate(0,0)"><path class="background" aria-hidden="true" d="M0,0h168v11h-168Z" pointer-events="none" opacity="1"/><g><g class="mark-symbol role-legend-symbol" pointer-events="none"><path transform="translate(6,6)" d="M-5,0L5,0" stroke="#4c78a8" stroke-width="1.5" opacity="1"/></g><g class="mark-text role-legend-label" pointer-events="none"><text text-anchor="start" transform="translate(16,9)" font-family="Liberation Mono" font-size="10px" fill="#000" opacity="1">altex-LG-F2WR508SBM</text></g></g><path class="foreground" aria-hidden="true" d="" pointer-events="none" display="none"/></g><g transform="translate(0,13)"><path class="background" aria-hidden="true" d="M0,0h168v11h-168Z" pointer-events="none" opacity="1"/><g><g class="mark-symbol role-legend-symbol" pointer-events="none"><path transform="translate(6,6)" d="M-5,0L5,0" stroke="#f58518" stroke-width="1.5" opacity="1"/></g><g class="mark-text role-legend-label" pointer-events="none"><text text-anchor="start" transform="translate(16,9)" font-family="Liberation Mono" font-size="10px" fill="#000" opacity="1">altex-LG-F2WR508SBW</text></g></g><path class="foreground" aria-hidden="true" d="" pointer-events="none" display="none"/></g></g></g><path class="foreground" aria-hidden="true" d="" pointer-events="none" display="none"/></g></g><g class="mark-text role-legend-title" pointer-events="none"><text text-anchor="start" transform="translate(0,9)" font-family="Liberation Mono" font-size="11px" font-weight="bold" fill="#000" opacity="1">identifier</text></g></g><path class="foreground" aria-hidden="true" d="" pointer-events="none" display="none"/></g></g></g><path class="foreground" aria-hidden="true" d="" display="none"/></g></g></g></svg>