<svg xmlns="http://www.w3.org/2000/svg" xmlns:xlink="http://www.w3.org/1999/xlink" version="1.1" class="marks" width="460" height="242" viewBox="0 0 460 242"><rect width="460" height="242" fill="white"/><g fill="none" stroke-miterlimit="10" transform="translate(67,5)"><g class="mark-group role-frame root" role="graphics-object" aria-roledescription="group mark container"><g transform="translate(0,0)"><path class="background" aria-hidden="true" d="M0.5,0.5h200v200h-200Z" stroke="#ddd"/><g><g class="mark-group role-axis" aria-hidden="true"><g transform="translate(0.5,200.5)"><path class="background" aria-hidden="true" d="M0,0h0v0h0Z" pointer-events="none"/><g><g class="mark-rule role-axis-grid" pointer-events="none"><line transform="translate(52,-200)" x2="0" y2="200" stroke="#ddd" stroke-width="1" opacity="1"/><line transform="translate(104,-200)" x2="0" y2="200" stroke="#ddd" stroke-width="1" opacity="1"/><line transform="translate(156,-200)" x2="0" y2="200" stroke="#ddd" stroke-width="1" opacity="1"/></g></g><path class="foreground" aria-hidden="true" d="" pointer-events="none" display="none"/></g></g><g class="mark-group role-axis" aria-hidden="true"><g transform="translate(0.5,0.5)"><path class="background" aria-hidden="true" d="M0,0h0v0h0Z" pointer-events="none"/><g><g class="mark-rule role-axis-grid" pointer-events="none"><line transform="translate(0,200)" x2="200" y2="0" stroke="#ddd" stroke-width="1" opacity="1"/><line transform="translate(0,162)" x2="200" y2="0" stroke="#ddd" stroke-width="1" opacity="1"/><line transform="translate(0,123)" x2="200" y2="0" stroke="#ddd" stroke-width="1" opacity="1"/><line transform="translate(0,85)" x2="200" y2="0" stroke="#ddd" stroke-width="1" opacity="1"/><line transform="translate(0,46)" x2="200" y2="0" stroke="#ddd" stroke-width="1" opacity="1"/><line transform="translate(0,8)" x2="200" y2="0" stroke="#ddd" stroke-width="1" opacity="1"/></g></g><path class="foreground" aria-hidden="true" d="" pointer-events="none" display="none"/></g></g><g class="mark-group role-axis" role="graphics-symbol" aria-roledescription="axis" aria-label="X-axis titled 'Time' for a time scale with values from Monday, 01 January 2024, 2:19:43 PM to Monday, 16 December 2024, 1:05:28 PM"><g transform="translate(0.5,200.5)"><path class="background" aria-hidden="true" d="M0,0h0v0h0Z" pointer-events="none"/><g><g class="mark-rule role-axis-tick" pointer-events="none"><line transform="translate(52,0)" x2="0" y2="5" stroke="#888" stroke-width="1" opacity="1"/><line transform="translate(104,0)" x2="0" y2="5" stroke="#888" stroke-width="1" opacity="1"/><line transform="translate(156,0)" x2="0" y2="5" stroke="#888" stroke-width="1" opacity="1"/></g><g class="mark-text role-axis-label" pointer-events="none"><text text-anchor="middle" transform="translate(51.66645260057648,15)" font-family="Liberation Mono" font-size="10px" fill="#000" opacity="1">April</text><text text-anchor="middle" transform="translate(103.67411366441803,15)" font-family="Liberation Mono" font-size="10px" fill="#000" opacity="1">July</text><text text-anchor="middle" transform="translate(156.2532874872029,15)" font-family="Liberation Mono" font-size="10px" fill="#000" opacity="1">October</text></g><g class="mark-rule role-axis-domain" pointer-events="none"><line transform="translate(0,0)" x2="200" y2="0" stroke="#888" stroke-width="1" opacity="1"/></g><g class="mark-text role-axis-title" pointer-events="none"><text text-anchor="middle" transform="translate(100,30)" font-family="Liberation Mono" font-size="11px" font-weight="bold" fill="#000" opacity="1">Time</text></g></g><path class="foreground" aria-hidden="true" d="" pointer-events="none" display="none"/></g></g><g class="mark-group role-axis" role="graphics-symbol" aria-roledescription="axis" aria-label="Y-axis titled 'Price' for a linear scale with values from 0 to 2,600"><g transform="translate(0.5,0.5)"><path class="background" aria-hidden="true" d="M0,0h0v0h0Z" pointer-events="none"/><g><g class="mark-rule role-axis-tick" pointer-events="none"><line transform="translate(0,200)" x2="-5" y2="0" stroke="#888" stroke-width="1" opacity="1"/><line transform="translate(0,162)" x2="-5" y2="0" stroke="#888" stroke-width="1" opacity="1"/><line transform="translate(0,123)" x2="-5" y2="0" stroke="#888" stroke-width="1" opacity="1"/><line transform="translate(0,85)" x2="-5" y2="0" stroke="#888" stroke-width="1" opacity="1"/><line transform="translate(0,46)" x2="-5" y2="0" stroke="#888" stroke-width="1" opacity="1"/><line transform="translate(0,8)" x2="-5" y2="0" stroke="#888" stroke-width="1" opacity="1"/></g><g class="mark-text role-axis-label" pointer-events="none"><text text-anchor="end" transform="translate(-7,203)" font-family="Liberation Mono" font-size="10px" fill="#000" opacity="1">0</text><text text-anchor="end" transform="translate(-7,164.53846153846155)" font-family="Liberation Mono" font-size="10px" fill="#000" opacity="1">500</text><text text-anchor="end" transform="translate(-7,126.07692307692308)" font-family="Liberation Mono" font-size="10px" fill="#000" opacity="1">1,000</text><text text-anchor="end" transform="translate(-7,87.61538461538463)" font-family="Liberation Mono" font-size="10px" fill="#000" opacity="1">1,500</text><text text-anchor="end" transform="translate(-7,49.153846153846146)" font-family="Liberation Mono" font-size="10px" fill="#000" opacity="1">2,000</text><text text-anchor="end" transform="translate(-7,10.692307692307686)" font-family="Liberation Mono" font-size="10px" fill="#000" opacity="1">2,500</text></g><g class="mark-rule role-axis-domain" pointer-events="none"><line transform="translate(0,200)" x2="0" y2="-200" stroke="#888" stroke-width="1" opacity="1"/></g><g class="mark-text role-axis-title" pointer-events="none"><text text-anchor="middle" transform="translate(-51,100) rotate(-90) translate(0,-2)" font-family="Liberation Mono" font-size="11px" font-weight="bold" fill="#000" opacity="1">Price</text></g></g><path class="foreground" aria-hidden="true" d="" pointer-events="none" display="none"/></g></g><g class="mark-group role-scope pathgroup" role="graphics-object" aria-roledescription="group mark container"><g transform="translate(0,0)"><path class="background" aria-hidden="true" d="M0,0h200v200h-200Z"/><g><g class="mark-line role-mark marks" role="graphics-object" aria-roledescription="line mark container"><path aria-label="Time: Jan 01, 2024; Price: 2399; identifier: altex-LG-F2WR508SBW" role="graphics-symbol" aria-roledescription="line mark" d="M0,15.462L0.06,15.462L0.15,15.462L0.341,15.462L0.436,15.462L0.536,15.462L0.627,15.462L0.722,15.462L0.912,15.462L1.008,15.462L1.108,15.462L1.199,15.462L1.293,15.462L1.484,15.462L1.579,15.462L1.679,15.462L1.771,15.462L1.865,15.462L2.056,34.692L2.151,34.692L2.251,34.692L2.342,34.692L2.436,34.692L2.627,34.692L2.722,34.692L2.822,34.692L2.913,34.692L3.008,34.692L3.199,34.692L3.294,34.692L3.393,34.692L3.485,34.692L3.579,34.692L3.77,34.692L3.866,34.692L3.966,34.692L4.057,34.692L4.151,34.692L4.342,34.692L4.437,34.692L4.539,34.692L4.629,34.692L4.722,34.692L4.914,34.692L5.009,34.692L5.109,34.692L5.2,34.692L5.294,34.692L5.485,34.692L5.58,34.692L5.681,34.692L5.772,34.692L5.865,34.692L6.056,34.692L6.152,34.692L6.252,34.692L6.343,34.692L6.437,34.692L6.628,46.231L6.723,46.231L6.822,46.231L6.914,46.231L7.008,46.231L7.199,46.231L7.294,46.231L7.394,46.231L7.485,46.231L7.58,46.231L7.771,46.231L7.866,46.231L7.967,46.231L8.058,46.231L8.151,46.231L8.342,46.231L8.438,46.231L8.538,46.231L8.63,46.231L8.723,46.231L8.914,46.231L9.01,46.231L9.11,46.231L9.201,46.231L9.294,46.231L9.485,46.231L9.581,46.231L9.681,46.231L9.772,46.231L9.866,46.231L10.057,46.231L10.152,46.231L10.253,46.231L10.344,46.231L10.437,46.231L10.628,46.231L10.723,46.231L10.823,46.231L10.915,46.231L11.009,46.231L11.2,46.231L11.295,46.231L11.395,46.231L11.486,46.231L11.581,46.231L11.772,46.231L11.867,46.231L11.968,46.231L12.058,46.231L12.152,46.231L12.343,46.231L12.439,46.231L12.539,46.231L12.63,46.231L12.724,46.231L12.915,46.231L13.01,46.231L13.111,46.231L13.202,46.231L13.295,46.231L13.486,46.231L13.581,46.231L13.682,46.231L13.774,46.231L13.867,46.231L14.057,46.231L14.153,46.231L14.252,46.231L14.343,46.231L14.438,46.231L14.629,46.231L14.724,46.231L14.822,46.231L14.914,46.231L15.009,46.231L15.2,46.231L15.295,46.231L15.394,46.231L15.486,46.231L15.581,46.231L15.772,46.231L15.867,46.231L15.966,46.231L16.058,46.231L16.153,46.231L16.343,46.231L16.438,46.231L16.537,46.231L16.63,46.231L16.724,46.231L16.915,46.231L17.01,46.231L17.109,46.231L17.2,46.231L17.296,46.231L17.486,34.692L17.581,34.692L17.681,34.692L17.772,34.692L17.867,34.692L18.058,34.692L18.153,34.692L18.252,34.692L18.343,34.692L18.439,34.692L18.629,34.692L18.724,34.692L18.823,34.692L18.915,34.692L19.01,34.692L19.201,34.692L19.296,34.692L19.394,34.692L19.486,34.692L19.582,34.692L19.772,34.692L19.868,34.692L19.967,34.692L20.058,34.692L20.153,34.692L20.344,34.692L20.439,34.692L20.538,34.692L20.63,34.692L20.725,34.692L20.915,34.692L21.011,34.692L21.109,34.692L21.202,34.692L21.296,34.692L21.487,34.692L21.582,34.692L21.681,34.692L21.773,34.692L21.868,34.692L22.058,34.692L22.154,34.692L22.252,34.692L22.344,34.692L22.44,34.692L22.63,34.692L22.725,34.692L22.823,34.692L22.915,34.692L23.011,34.692L23.202,34.692L23.297,34.692L23.395,34.692L23.487,34.692L23.582,34.692L23.773,34.692L23.868,34.692L23.968,34.692L24.059,34.692L24.154,34.692L24.344,34.692L24.44,34.692L24.538,34.692L24.631,34.692L24.725,34.692L24.916,34.692L25.011,34.692L25.11,34.692L25.202,34.692L25.297,34.692L25.583,34.692L25.682,34.692L25.773,34.692L25.868,34.692L26.059,34.692L26.154,34.692L26.253,34.692L26.345,34.692L26.44,34.692L26.631,34.692L26.726,34.692L26.824,34.692L26.916,34.692L27.011,34.692L27.202,34.692L27.298,34.692L27.395,34.692L27.488,34.692L27.583,34.692L27.773,34.692L27.869,34.692L27.968,34.692L28.06,34.692L28.154,34.692L28.345,34.692L28.44,34.692L28.539,34.692L28.631,34.692L28.726,34.692L28.916,34.692L29.012,34.692L29.111,34.692L29.203,34.692L29.298,34.692L29.488,34.692L29.583,34.692L29.682,34.692L29.774,34.692L29.869,34.692L30.059,34.692L30.155,34.692L30.253,34.692L30.345,34.692L30.441,34.692L30.631,34.692L30.726,34.692L30.824,34.692L30.917,34.692L31.012,34.692L31.202,34.692L31.298,34.692L31.396,34.692L31.489,34.692L31.583,34.692L31.774,34.692L31.87,34.692L31.968,34.692L32.06,34.692L32.155,34.692L32.345,34.692L32.441,34.692L32.54,34.692L32.632,34.692L32.726,34.692L32.917,34.692L33.012,34.692L33.111,34.692L33.203,34.692L33.298,34.692L33.489,34.692L33.584,34.692L33.682,34.692L33.774,34.692L33.869,34.692L34.06,34.692L34.156,34.692L34.254,34.692L34.346,34.692L34.441,34.692L34.632,34.692L34.727,34.692L34.826,34.692L34.917,34.692L35.013,34.692L35.203,34.692L35.298,34.692L35.396,34.692L35.489,34.692L35.584,34.692L35.783,34.692L35.913,34.692L35.97,34.692L36.061,34.692L36.156,34.692L36.346,34.692L36.441,34.692L36.541,34.692L36.632,34.692L36.727,34.692L36.918,34.692L37.014,34.692L37.112,34.692L37.204,34.692L37.299,34.692L37.489,34.692L37.585,34.692L37.683,34.692L37.775,34.692L37.87,34.692L38.061,34.692L38.157,34.692L38.255,34.692L38.346,34.692L38.442,34.692L38.632,34.692L38.727,34.692L38.825,34.692L38.918,34.692L39.013,34.692L39.204,34.692L39.299,34.692L39.397,34.692L39.49,34.692L39.585,34.692L39.776,34.692L39.87,34.692L39.97,34.692L40.062,34.692L40.156,34.692L40.347,34.692L40.442,34.692L40.541,34.692L40.633,34.692L40.728,34.692L40.918,34.692L41.014,34.692L41.113,34.692L41.204,34.692L41.299,34.692L41.49,34.692L41.585,34.692L41.684,34.692L41.776,34.692L41.871,34.692L42.061,34.692L42.157,34.692L42.255,34.692L42.347,34.692L42.442,34.692L42.633,34.692L42.728,34.692L42.827,34.692L42.919,34.692L43.014,34.692L43.204,34.692L43.3,34.692L43.398,34.692L43.49,34.692L43.585,34.692L43.776,34.692L43.871,34.692L43.971,34.692L44.062,34.692L44.157,34.692L44.348,34.692L44.443,34.692L44.542,34.692L44.634,34.692L44.728,34.692L44.919,34.692L45.014,34.692L45.113,34.692L45.206,34.692L45.3,34.692L45.49,34.692L45.586,34.692L45.685,34.692L45.777,34.692L45.871,34.692L46.062,34.692L46.157,34.692L46.256,34.692L46.348,34.692L46.443,34.692L46.633,34.692L46.728,34.692L46.827,34.692L46.919,34.692L47.014,34.692L47.205,34.692L47.3,34.692L47.399,34.692L47.491,34.692L47.586,34.692L47.776,34.692L47.872,34.692L47.971,34.692L48.062,34.692L48.157,34.692L48.348,34.692L48.444,34.692L48.542,34.692L48.634,34.692L48.729,34.692L48.92,34.692L49.015,34.692L49.114,34.692L49.206,34.692L49.3,34.692L49.491,34.692L49.586,34.692L49.686,34.692L49.777,34.692L49.872,34.692L50.063,34.692L50.158,34.692L50.257,34.692L50.349,34.692L50.443,34.692L50.634,34.692L50.729,34.692L50.827,34.692L50.92,34.692L51.015,34.692L51.206,34.692L51.301,34.692L51.399,34.692L51.492,34.692L51.586,34.692L51.777,34.692L51.873,34.692L51.972,34.692L52.064,34.692L52.158,34.692L52.349,34.692L52.444,34.692L52.543,34.692L52.635,34.692L52.729,34.692L52.92,34.692L53.015,34.692L53.115,34.692L53.207,34.692L53.301,34.692L53.492,34.692L53.587,34.692L53.686,34.692L53.778,34.692L53.873,34.692L54.064,34.692L54.257,34.692L54.349,34.692L54.444,34.692L54.635,34.692L54.73,34.692L54.828,34.692L54.92,34.692L55.015,34.692L55.206,34.692L55.301,34.692L55.4,34.692L55.492,34.692L55.587,34.692L55.778,34.692L55.873,34.692L55.972,34.692L56.064,34.692L56.159,34.692L56.349,34.692L56.444,34.692L56.544,34.692L56.635,34.692L56.73,34.692L56.92,34.692L57.016,34.692L57.115,34.692L57.208,34.692L57.302,34.692L57.493,34.692L57.588,34.692L57.687,34.692L57.873,34.692L58.064,34.692L58.159,34.692L58.258,34.692L58.349,34.692L58.445,34.692L58.635,34.692L58.73,34.692L58.828,34.692L58.921,34.692L59.016,34.692L59.215,34.692L59.362,34.692L59.451,34.692L59.636,34.692L59.78,34.692L59.873,34.692L59.971,34.692L60.064,34.692L60.159,34.692L60.35,34.692L60.445,34.692L60.545,34.692L60.635,34.692L60.731,34.692L60.921,34.692L61.016,34.692L61.116,34.692L61.208,34.692L61.302,34.692L61.588,34.692L61.687,34.692L61.779,34.692L61.874,34.692L62.064,34.692L62.16,34.692L62.259,34.692L62.351,34.692L62.445,34.692L62.636,34.692L62.731,34.692L62.83,34.692L62.922,34.692L63.017,34.692L63.207,34.692L63.303,34.692L63.401,34.692L63.493,34.692L63.588,34.692L63.779,34.692L63.874,34.692L63.974,34.692L64.065,34.692L64.16,34.692L64.35,34.692L64.446,34.692L64.546,34.692L64.637,34.692L64.732,34.692L64.922,34.692L65.018,34.692L65.12,34.692L65.208,34.692L65.303,34.692L65.493,34.692L65.589,34.692L65.686,34.692L65.779,34.692L65.874,34.692L66.065,34.692L66.16,34.692L66.26,34.692L66.351,34.692L66.446,34.692L66.636,34.692L66.731,34.692L66.83,34.692L66.922,34.692L67.017,34.692L67.208,34.692L67.303,34.692L67.402,34.692L67.494,34.692L67.589,34.692L67.779,34.692L67.876,34.692L67.975,34.692L68.066,34.692L68.16,34.692L68.351,34.692L68.447,34.692L68.546,34.692L68.637,34.692L68.732,34.692L68.922,34.692L69.019,34.692L69.118,34.692L69.209,34.692L69.303,34.692L69.494,57.769L69.589,57.769L69.69,57.769L69.78,57.769L69.875,57.769L70.066,57.769L70.161,57.769L70.26,57.769L70.352,57.769L70.446,57.769L70.637,57.769L70.732,57.769L70.831,57.769L70.923,57.769L71.018,57.769L71.208,57.769L71.304,57.769L71.403,57.769L71.494,57.769L71.589,57.769L71.78,57.769L71.876,57.769L71.976,57.769L72.067,57.769L72.161,57.769L72.351,57.769L72.447,57.769L72.546,57.769L72.638,57.769L72.733,57.769L72.923,57.769L73.019,57.769L73.119,57.769L73.21,57.769L73.304,57.769L73.495,34.692L73.591,34.692L73.69,34.692L73.782,34.692L73.876,34.692L74.066,34.692L74.161,34.692L74.262,34.692L74.352,34.692L74.447,34.692L74.637,34.692L74.733,34.692L74.832,34.692L74.923,34.692L75.018,34.692L75.209,34.692L75.304,34.692L75.404,34.692L75.495,34.692L75.59,34.692L75.781,34.692L75.876,34.692L75.977,34.692L76.067,34.692L76.162,34.692L76.352,34.692L76.448,34.692L76.548,34.692L76.639,34.692L76.733,34.692L76.924,34.692L77.019,34.692L77.12,34.692L77.21,34.692L77.305,34.692L77.495,34.692L77.591,34.692L77.691,34.692L77.782,34.692L77.876,34.692L78.067,34.692L78.162,34.692L78.262,34.692L78.353,34.692L78.447,34.692L78.638,34.692L78.734,34.692L78.833,34.692L78.924,34.692L79.019,34.692L79.21,34.692L79.305,34.692L79.405,34.692L79.496,34.692L79.591,34.692L79.782,34.692L79.877,34.692L79.977,34.692L80.068,34.692L80.162,34.692L80.353,34.692L80.448,34.692L80.549,34.692L80.639,34.692L80.734,34.692L80.925,34.692L81.02,34.692L81.12,34.692L81.211,34.692L81.305,34.692L81.496,34.692L81.591,34.692L81.691,34.692L81.783,34.692L81.877,34.692L82.068,34.692L82.163,34.692L82.263,34.692L82.353,34.692L82.449,34.692L82.639,34.692L82.734,34.692L82.834,34.692L82.925,34.692L83.02,34.692L83.211,34.692L83.305,34.692L83.405,34.692L83.496,34.692L83.592,34.692L83.782,34.692L83.878,34.692L83.978,34.692L84.069,34.692L84.163,34.692L84.355,34.692L84.449,34.692L84.549,34.692L84.64,34.692L84.734,34.692L84.926,34.692L85.021,34.692L85.121,34.692L85.212,34.692L85.306,34.692L85.497,34.692L85.592,34.692L85.692,34.692L85.783,34.692L85.877,34.692L86.069,34.692L86.164,34.692L86.264,34.692L86.355,34.692L86.449,34.692L86.639,34.692L86.735,34.692L86.834,34.692L86.926,34.692L87.02,34.692L87.211,34.692L87.306,34.692L87.406,34.692L87.497,34.692L87.592,34.692L87.783,34.692L87.878,34.692L87.979,34.692L88.069,34.692L88.164,34.692L88.354,34.692L88.45,34.692L88.55,34.692L88.641,34.692L88.735,34.692L88.926,34.692L89.021,34.692L89.122,34.692L89.212,34.692L89.306,34.692L89.497,34.692L89.593,34.692L89.693,34.692L89.783,34.692L89.878,34.692L90.069,34.692L90.165,34.692L90.265,34.692L90.356,34.692L90.45,34.692L90.64,34.692L90.735,34.692L90.835,34.692L90.927,34.692L91.021,34.692L91.212,34.692L91.307,34.692L91.407,34.692L91.498,34.692L91.592,34.692L91.784,34.692L91.879,34.692L91.98,34.692L92.07,34.692L92.164,34.692L92.355,34.692L92.451,34.692L92.551,34.692L92.642,34.692L92.736,34.692L92.926,34.692L93.022,46.231L93.123,46.231L93.213,46.231L93.307,46.231L93.498,46.231L93.593,46.231L93.694,46.231L93.785,46.231L93.879,46.231L94.069,46.231L94.165,46.231L94.265,48.538L94.356,48.538L94.45,48.538L94.641,48.538L94.737,48.538L94.836,48.538L94.927,48.538L95.022,48.538L95.212,48.538L95.308,48.538L95.408,48.538L95.499,48.538L95.593,48.538L95.785,48.538L95.88,48.538L95.98,48.538L96.071,48.538L96.165,48.538L96.355,48.538L96.451,48.538L96.552,48.538L96.642,48.538L96.736,48.538L96.927,48.538L97.023,48.538L97.123,48.538L97.214,48.538L97.308,48.538L97.498,48.538L97.594,48.538L97.694,48.538L97.786,48.538L97.879,48.538L98.07,48.538L98.166,48.538L98.266,48.538L98.356,48.538L98.451,48.538L98.641,48.538L98.737,48.538L98.838,48.538L98.928,48.538L99.022,48.538L99.213,48.538L99.308,48.538L99.408,48.538L99.499,48.538L99.593,48.538L99.785,48.538L99.88,48.538L99.981,48.538L100.071,48.538L100.165,48.538L100.356,48.538L100.452,48.538L100.552,48.538L100.737,48.538L100.928,48.538L101.023,48.538L101.124,48.538L101.214,48.538L101.308,48.538L101.5,48.538L101.595,48.538L101.695,48.538L101.786,48.538L101.88,48.538L102.071,48.538L102.166,48.538L102.267,48.538L102.357,48.538L102.452,48.538L102.642,48.538L102.737,48.538L102.837,48.538L102.928,48.538L103.023,48.538L103.213,48.538L103.309,48.538L103.409,48.538L103.5,48.538L103.594,48.538L103.785,48.538L103.881,48.538L103.982,48.538L104.072,48.538L104.166,48.538L104.357,48.538L104.452,48.538L104.553,48.538L104.644,48.538L104.737,48.538L104.928,48.538L105.024,48.538L105.124,48.538L105.215,48.538L105.309,48.538L105.5,48.538L105.595,48.538L105.696,48.538L105.786,48.538L105.881,48.538L106.072,48.538L106.167,48.538L106.267,48.538L106.358,48.538L106.452,48.538L106.643,48.538L106.738,48.538L106.838,48.538L106.929,48.538L107.023,48.538L107.214,48.538L107.309,48.538L107.409,48.538L107.5,48.538L107.595,48.538L107.786,48.538L107.882,48.538L107.982,48.538L108.073,48.538L108.166,48.538L108.357,48.538L108.453,48.538L108.554,48.538L108.644,48.538L108.738,48.538L108.929,48.538L109.025,48.538L109.125,48.538L109.215,48.538L109.309,48.538L109.501,48.538L109.596,48.538L109.697,48.538L109.787,48.538L109.881,48.538L110.072,48.538L110.167,48.538L110.268,48.538L110.358,48.538L110.453,48.538L110.643,48.538L110.738,48.538L110.838,48.538L110.929,48.538L111.024,48.538L111.216,48.538L111.311,48.538L111.417,48.538L111.506,48.538L111.595,48.538L111.787,48.538L111.882,48.538L111.983,48.538L112.074,48.538L112.167,48.538L112.358,48.538L112.454,48.538L112.553,48.538L112.645,48.538L112.738,48.538L112.929,48.538L113.025,48.538L113.126,48.538L113.217,48.538L113.31,48.538L113.501,48.538L113.597,48.538L113.698,48.538L113.787,48.538L113.881,48.538L114.073,48.538L114.168,48.538L114.269,48.538L114.36,48.538L114.453,48.538L114.644,48.538L114.739,48.538L114.839,48.538L114.93,48.538L115.025,48.538L115.215,48.538L115.31,48.538L115.411,48.538L115.503,48.538L115.596,48.538L115.787,48.538L115.884,48.538L115.984,48.538L116.074,48.538L116.167,48.538L116.358,48.538L116.454,48.538L116.555,48.538L116.646,48.538L116.739,48.538L116.93,27L117.026,27L117.127,27L117.217,27L117.311,27L117.502,27L117.597,27L117.698,27L117.789,27L117.882,27L118.074,27L118.169,27L118.269,27L118.361,27L118.453,27L118.645,27L118.74,27L118.841,27L118.93,27L119.025,27L119.216,27L119.311,27L119.411,27L119.503,27L119.596,27L119.788,27L119.883,27L119.984,27L120.075,27L120.168,27L120.359,27L120.455,27L120.556,27L120.646,27L120.739,27L120.93,27L121.025,27L121.127,27L121.217,27L121.311,27L121.502,27L121.598,27L121.699,27L121.789,27L121.883,27L122.074,27L122.17,27L122.27,27L122.361,27L122.454,27L122.645,27L122.741,27L122.84,27L122.931,27L123.026,27L123.218,27L123.312,27L123.412,27L123.502,27L123.598,27L123.788,27L123.884,27L123.985,27L124.075,27L124.169,27L124.36,27L124.456,27L124.556,27L124.646,27L124.74,27L124.932,27L125.027,27L125.128,27L125.219,27L125.312,27L125.503,27L125.599,27L125.7,27L125.79,27L125.883,27L126.075,27L126.17,27L126.271,27L126.361,27L126.455,27L126.647,27L126.741,27L126.842,27L126.933,27L127.026,27L127.217,27L127.312,27L127.413,27L127.504,27L127.598,27L127.789,27L127.885,27L127.986,27L128.076,27L128.17,27L128.36,27L128.456,27L128.557,27L128.648,27L128.741,27L128.932,27L129.028,27L129.129,27L129.22,27L129.312,27L129.504,27L129.599,27L129.7,27L129.79,27L129.884,27L130.075,27L130.171,27L130.271,27L130.362,27L130.455,27L130.647,27L130.741,27L130.842,27L130.933,27L131.028,27L131.218,27L131.313,27L131.414,27L131.504,27L131.598,27L131.79,27L131.885,27L131.986,27L132.076,27L132.17,27L132.362,27L132.457,27L132.558,27L132.647,27L132.742,27L132.933,27L133.029,27L133.127,27L133.22,27L133.313,27L133.504,27L133.6,27L133.701,27L133.792,27L133.884,27L134.076,27L134.171,27L134.272,27L134.362,27L134.456,27L134.647,27L134.742,27L134.843,27L134.933,27L135.027,27L135.219,27L135.314,27L135.414,27L135.505,27L135.6,27L135.791,27L135.886,27L135.987,27L136.077,27L136.171,27L136.362,27L136.458,27L136.559,27L136.648,27L136.742,27L136.934,27L137.029,27L137.13,27L137.221,27L137.314,27L137.505,27L137.601,27L137.702,27L137.792,27L137.885,27L138.077,27L138.172,27L138.273,27L138.363,27L138.457,27L138.648,27L138.744,27L138.844,27L138.935,27L139.028,27L139.22,27L139.315,27L139.416,27L139.506,27L139.6,27L139.791,27L139.887,27L139.988,27L140.078,27L140.172,27L140.363,27L140.459,27L140.56,27L140.65,27L140.743,27L140.935,27L141.03,27L141.132,27L141.221,27L141.315,27L141.506,27L141.602,27L141.703,27L141.792,27L141.886,27L142.077,27L142.173,27L142.274,27L142.365,27L142.457,27L142.649,27L142.744,27L142.844,27L142.935,27L143.029,27L143.22,27L143.315,27L143.416,27L143.507,27L143.601,27L143.792,27L143.888,27L143.989,27L144.079,27L144.172,27L144.364,27L144.459,27L144.561,27L144.65,27L144.744,27L144.936,27L145.031,27L145.132,27L145.222,27L145.315,27L145.507,27L145.603,27L145.703,27L145.794,27L145.887,27L146.078,27L146.174,27L146.275,27L146.364,27L146.458,27L146.65,46.231L146.745,46.231L146.845,46.231L146.936,46.231L147.03,46.231L147.221,46.231L147.316,46.231L147.417,46.231L147.508,46.231L147.601,46.231L147.793,46.231L147.889,46.231L147.99,46.231L148.08,46.231L148.173,46.231L148.363,46.231L148.46,46.231L148.561,46.231L148.651,46.231L148.744,46.231L148.936,46.231L149.031,46.231L149.133,46.231L149.222,46.231L149.316,46.231L149.508,53.923L149.603,53.923L149.705,53.923L149.794,53.923L149.887,53.923L150.079,53.923L150.174,53.923L150.276,53.923L150.365,53.923L150.459,53.923L150.65,53.923L150.745,53.923L150.846,53.923L150.937,53.923L151.03,53.923L151.223,53.923L151.317,53.923L151.418,53.923L151.508,53.923L151.601,53.923L151.793,53.923L151.89,53.923L151.991,53.923L152.08,53.923L152.174,53.923L152.365,53.923L152.461,53.923L152.563,53.923L152.652,53.923L152.745,53.923L152.937,53.923L153.033,53.923L153.134,53.923L153.225,53.923L153.317,53.923L153.508,23.154L153.604,23.154L153.706,23.154L153.795,23.154L153.888,23.154L154.08,23.154L154.175,23.154L154.277,23.154L154.366,23.154L154.651,23.154L154.746,23.154L154.847,23.154L154.937,23.154L155.031,23.154L155.222,23.154L155.318,23.154L155.419,23.154L155.509,23.154L155.602,23.154L155.795,23.154L155.891,23.154L155.992,23.154L156.082,23.154L156.174,23.154L156.366,23.154L156.462,23.154L156.564,23.154L156.653,23.154L156.746,23.154L156.937,23.154L157.033,23.154L157.135,23.154L157.224,23.154L157.318,23.154L157.509,23.154L157.605,23.154L157.706,23.154L157.796,23.154L157.889,23.154L158.08,23.154L158.176,23.154L158.278,23.154L158.367,23.154L158.46,23.154L158.652,23.154L158.747,23.154L158.848,23.154L158.938,23.154L159.031,23.154L159.223,23.154L159.318,23.154L159.419,23.154L159.509,23.154L159.603,23.154L159.795,23.154L159.891,23.154L159.993,23.154L160.082,23.154L160.175,23.154L160.366,23.154L160.462,23.154L160.563,23.154L160.653,23.154L160.746,23.154L160.938,23.154L161.034,23.154L161.135,23.154L161.224,23.154L161.318,23.154L161.509,23.154L161.605,23.154L161.707,23.154L161.795,23.154L161.89,23.154L162.081,23.154L162.176,23.154L162.278,23.154L162.367,23.154L162.461,23.154L162.653,23.154L162.747,23.154L162.848,23.154L162.939,23.154L163.032,23.154L163.224,23.154L163.319,23.154L163.42,23.154L163.51,23.154L163.603,23.154L163.796,23.154L163.892,23.154L163.993,23.154L164.082,23.154L164.175,23.154L164.367,23.154L164.463,23.154L164.565,23.154L164.654,23.154L164.747,23.154L164.939,23.154L165.035,23.154L165.136,23.154L165.225,23.154L165.319,23.154L165.511,23.154L165.606,23.154L165.707,23.154L165.797,23.154L165.89,23.154L166.082,23.154L166.177,23.154L166.279,23.154L166.368,23.154L166.461,23.154L166.653,23.154L166.748,23.154L166.849,23.154L166.939,23.154L167.033,23.154L167.225,23.154L167.32,23.154L167.421,23.154L167.51,23.154L167.604,23.154L167.796,23.154L167.892,23.154L167.994,23.154L168.083,23.154L168.176,23.154L168.368,23.154L168.464,23.154L168.565,23.154L168.655,23.154L168.747,23.154L168.939,23.154L169.035,23.154L169.136,23.154L169.227,23.154L169.32,23.154L169.511,23.154L169.607,23.154L169.708,23.154L169.798,23.154L169.891,23.154L170.083,23.154L170.178,23.154L170.279,23.154L170.369,23.154L170.462,23.154L170.653,23.154L170.749,23.154L170.85,23.154L170.939,23.154L171.033,23.154L171.225,23.154L171.321,23.154L171.421,23.154L171.511,23.154L171.606,23.154L171.797,23.154L171.893,23.154L171.995,23.154L172.085,23.154L172.177,23.154L172.368,23.154L172.464,23.154L172.566,23.154L172.655,23.154L172.748,23.154L172.94,23.154L173.037,23.154L173.137,23.154L173.227,23.154L173.32,23.154L173.708,23.154L173.798,23.154L173.891,23.154L174.083,23.154L174.178,23.154L174.279,23.154L174.369,23.154L174.463,23.154L174.654,23.154L174.749,23.154L174.85,23.154L174.941,23.154L175.034,23.154L175.225,23.154L175.32,23.154L175.422,23.154L175.511,23.154L175.605,23.154L175.797,23.154L175.893,23.154L175.995,23.154L176.084,23.154L176.177,23.154L176.368,23.154L176.464,23.154L176.565,23.154L176.655,23.154L176.749,23.154L176.941,23.154L177.036,23.154L177.137,23.154L177.227,23.154L177.32,23.154L177.512,58.538L177.607,58.538L177.708,58.538L177.798,58.538L177.891,58.538L178.083,58.538L178.178,58.538L178.28,58.538L178.37,58.538L178.463,58.538L178.654,58.538L178.749,58.538L178.85,58.538L178.941,58.538L179.034,58.538L179.225,58.538L179.321,58.538L179.422,58.538L179.512,58.538L179.605,58.538L179.798,58.538L179.894,58.538L179.995,58.538L180.084,58.538L180.177,58.538L180.369,58.538L180.465,58.538L180.567,58.538L180.656,58.538L180.749,58.538L180.941,58.538L181.037,58.538L181.138,58.538L181.228,58.538L181.321,58.538L181.513,23.154L181.608,23.154L181.71,23.154L181.799,23.154L181.893,23.154L182.085,23.154L182.18,23.154L182.282,23.154L182.371,23.154L182.464,23.154L182.656,23.154L182.751,23.154L182.852,23.154L182.942,23.154L183.035,23.154L183.227,23.154L183.322,23.154L183.423,23.154L183.513,23.154L183.607,23.154L183.799,23.154L183.895,23.154L183.997,23.154L184.086,23.154L184.179,23.154L184.37,23.154L184.467,23.154L184.568,23.154L184.657,23.154L184.75,23.154L184.942,23.154L185.038,23.154L185.14,23.154L185.229,23.154L185.322,23.154L185.514,23.154L185.609,23.154L185.711,23.154L185.8,23.154L185.893,23.154L186.085,23.154L186.181,23.154L186.282,23.154L186.372,23.154L186.465,23.154L186.656,23.154L186.751,23.154L186.853,23.154L186.943,23.154L187.036,23.154L187.227,23.154L187.323,23.154L187.424,23.154L187.514,23.154L187.607,23.154L187.8,23.154L187.896,23.154L187.998,23.154L188.087,23.154L188.18,23.154L188.371,23.154L188.467,23.154L188.569,23.154L188.659,23.154L188.751,23.154L188.943,23.154L189.039,23.154L189.141,23.154L189.23,23.154L189.323,23.154L189.515,23.154L189.611,23.154L189.712,23.154L189.801,23.154L189.894,23.154L190.086,23.154L190.182,23.154L190.283,23.154L190.372,23.154L190.465,23.154L190.657,23.154L190.752,23.154L190.853,23.154L190.943,23.154L191.036,23.154L191.229,23.154L191.324,23.154L191.425,23.154L191.514,23.154L191.608,23.154L191.801,23.154L191.897,23.154L191.999,23.154L192.088,23.154L192.18,23.154L192.372,23.154L192.468,23.154L192.57,23.154L192.659,23.154L192.752,23.154L192.943,23.154L193.04,23.154L193.142,23.154L193.231,23.154L193.323,23.154L193.515,23.154L193.611,23.154L193.713,23.154L193.802,23.154L193.895,23.154L194.086,23.154L194.182,23.154L194.284,23.154L194.373,23.154L194.466,23.154L194.658,23.154L194.753,23.154L194.854,23.154L194.944,23.154L195.037,23.154L195.229,23.154L195.324,23.154L195.426,23.154L195.515,23.154L195.609,23.154L195.801,23.154L195.898,23.154L196,23.154L196.088,23.154L196.181,23.154L196.373,23.154L196.469,23.154L196.571,23.154L196.66,23.154L196.752,23.154L196.944,23.154L197.04,23.154L197.142,23.154L197.231,23.154L197.324,23.154L197.516,23.154L197.612,23.154L197.714,23.154L197.803,23.154L197.895,23.154L198.087,23.154L198.183,23.154L198.285,23.154L198.374,23.154L198.467,23.154L198.658,23.154L198.753,23.154L198.855,23.154L198.944,23.154L199.038,23.154L199.23,23.154L199.325,23.154L199.427,23.154L199.515,23.154L199.609,23.154L199.802,23.154L199.898,23.154L200,23.154" stroke="#4c78a8" stroke-width="2"/></g></g><path class="foreground" aria-hidden="true" d="" display="none"/></g><g transform="translate(0,0)"><path class="background" aria-hidden="true" d="M0,0h200v200h-200Z"/><g><g class="mark-line role-mark marks" role="graphics-object" aria-roledescription="line mark container"><path aria-label="Time: Jan 01, 2024; Price: 2499; identifier: altex-LG-F2WR508SBM" role="graphics-symbol" aria-roledescription="line mark" d="M0,7.769L0.06,7.769L0.15,7.769L0.341,7.769L0.436,7.769L0.536,7.769L0.627,7.769L0.722,7.769L0.912,7.769L1.008,7.769L1.108,7.769L1.199,7.769L1.293,7.769L1.484,7.769L1.579,7.769L1.679,7.769L1.771,7.769L1.865,7.769L2.056,27L2.151,27L2.251,27L2.342,27L2.436,27L2.627,27L2.722,27L2.822,27L2.913,27L3.008,27L3.199,27L3.294,27L3.393,27L3.485,27L3.579,27L3.77,27L3.866,27L3.966,27L4.057,27L4.151,27L4.342,27L4.437,27L4.539,27L4.629,27L4.722,27L4.914,27L5.009,27L5.109,27L5.2,27L5.294,27L5.485,27L5.58,27L5.681,27L5.772,27L5.865,27L6.056,27L6.152,27L6.252,27L6.343,27L6.437,27L6.628,38.538L6.723,38.538L6.822,38.538L6.914,38.538L7.008,38.538L7.199,38.538L7.294,38.538L7.394,38.538L7.485,38.538L7.58,38.538L7.771,38.538L7.866,38.538L7.967,38.538L8.058,38.538L8.151,38.538L8.342,38.538L8.438,38.538L8.538,38.538L8.63,38.538L8.723,38.538L8.914,38.538L9.01,38.538L9.11,38.538L9.201,38.538L9.294,38.538L9.485,38.538L9.581,38.538L9.681,38.538L9.772,38.538L9.866,38.538L10.057,38.538L10.152,38.538L10.253,38.538L10.344,38.538L10.437,38.538L10.628,38.538L10.723,38.538L10.823,38.538L10.915,38.538L11.009,38.538L11.2,38.538L11.295,38.538L11.395,38.538L11.486,38.538L11.581,38.538L11.772,38.538L11.867,38.538L11.968,38.538L12.058,38.538L12.152,38.538L12.343,38.538L12.439,38.538L12.539,38.538L12.63,38.538L12.724,38.538L12.915,38.538L13.01,38.538L13.111,38.538L13.202,38.538L13.295,38.538L13.486,38.538L13.582,38.538L13.682,38.538L13.774,38.538L13.867,38.538L14.057,38.538L14.153,38.538L14.252,38.538L14.343,38.538L14.438,38.538L14.629,38.538L14.724,38.538L14.822,38.538L14.914,38.538L15.009,38.538L15.2,38.538L15.295,38.538L15.394,38.538L15.486,38.538L15.581,38.538L15.772,38.538L15.867,38.538L15.966,38.538L16.058,38.538L16.153,38.538L16.343,38.538L16.438,38.538L16.537,38.538L16.63,38.538L16.724,38.538L16.915,38.538L17.01,38.538L17.109,38.538L17.2,38.538L17.296,38.538L17.486,27L17.581,27L17.681,27L17.772,27L17.867,27L18.058,27L18.153,27L18.252,27L18.343,27L18.439,27L18.629,27L18.725,27L18.823,27L18.915,27L19.011,27L19.201,27L19.296,27L19.394,27L19.486,27L19.582,27L19.772,27L19.868,27L19.967,27L20.058,27L20.153,27L20.344,27L20.439,27L20.538,27L20.63,27L20.725,27L20.915,27L21.011,27L21.11,27L21.202,27L21.296,27L21.487,27L21.582,27L21.681,27L21.773,27L21.868,27L22.058,27L22.154,27L22.252,27L22.344,27L22.44,27L22.63,27L22.725,27L22.823,27L22.916,27L23.011,27L23.202,27L23.297,27L23.395,27L23.487,27L23.582,27L23.773,27L23.868,27L23.968,27L24.059,27L24.154,27L24.344,27L24.44,27L24.538,27L24.631,27L24.725,27L24.916,27L25.011,27L25.11,27L25.202,27L25.297,27L25.583,27L25.682,27L25.773,27L25.868,27L26.059,27L26.154,27L26.253,27L26.345,27L26.44,27L26.631,27L26.726,27L26.824,27L26.916,27L27.011,27L27.202,27L27.298,27L27.395,27L27.488,27L27.583,27L27.773,27L27.869,27L27.968,27L28.06,27L28.154,27L28.345,27L28.44,27L28.539,27L28.631,27L28.726,27L28.916,27L29.012,27L29.111,27L29.203,27L29.298,27L29.488,27L29.583,27L29.682,27L29.774,27L29.869,27L30.06,27L30.155,27L30.253,27L30.345,27L30.441,27L30.631,27L30.726,27L30.824,27L30.917,27L31.012,27L31.202,27L31.298,27L31.396,27L31.489,27L31.583,27L31.774,27L31.87,27L31.968,27L32.06,27L32.155,27L32.345,27L32.441,27L32.54,27L32.632,27L32.726,27L32.917,27L33.012,27L33.111,27L33.203,27L33.298,27L33.489,27L33.584,27L33.682,27L33.774,27L33.869,27L34.06,27L34.156,27L34.254,27L34.346,27L34.441,27L34.632,27L34.727,27L34.826,27L34.917,27L35.013,27L35.203,27L35.298,27L35.397,27L35.489,27L35.584,27L35.783,27L35.913,27L35.97,27L36.061,27L36.156,27L36.346,27L36.441,27L36.541,27L36.632,27L36.727,27L36.918,27L37.014,27L37.112,27L37.204,27L37.299,27L37.489,27L37.585,27L37.683,38.538L37.775,38.538L37.87,38.538L38.061,38.538L38.157,38.538L38.255,38.538L38.346,38.538L38.442,38.538L38.632,38.538L38.727,38.538L38.825,38.538L38.918,38.538L39.013,38.538L39.204,38.538L39.3,38.538L39.397,38.538L39.49,38.538L39.585,38.538L39.776,38.538L39.87,38.538L39.97,38.538L40.062,38.538L40.156,38.538L40.347,38.538L40.442,38.538L40.541,38.538L40.633,38.538L40.728,38.538L40.918,38.538L41.014,38.538L41.113,38.538L41.204,38.538L41.299,38.538L41.49,38.538L41.585,38.538L41.684,38.538L41.776,38.538L41.871,38.538L42.061,38.538L42.157,38.538L42.256,38.538L42.347,38.538L42.442,38.538L42.633,38.538L42.728,38.538L42.827,38.538L42.919,38.538L43.014,38.538L43.204,38.538L43.3,38.538L43.398,38.538L43.49,38.538L43.585,38.538L43.776,38.538L43.871,38.538L43.971,38.538L44.063,38.538L44.157,38.538L44.348,38.538L44.443,38.538L44.542,38.538L44.634,38.538L44.728,38.538L44.919,38.538L45.014,38.538L45.113,38.538L45.206,38.538L45.3,38.538L45.49,38.538L45.586,38.538L45.685,38.538L45.777,38.538L45.871,38.538L46.062,38.538L46.157,38.538L46.256,38.538L46.348,38.538L46.443,38.538L46.633,38.538L46.729,38.538L46.827,38.538L46.919,38.538L47.014,38.538L47.205,38.538L47.3,38.538L47.399,38.538L47.491,38.538L47.586,38.538L47.776,38.538L47.872,38.538L47.971,38.538L48.062,38.538L48.157,38.538L48.348,38.538L48.444,38.538L48.542,38.538L48.634,38.538L48.729,38.538L48.92,38.538L49.015,38.538L49.114,38.538L49.206,38.538L49.3,38.538L49.491,38.538L49.586,38.538L49.686,38.538L49.777,38.538L49.872,38.538L50.063,38.538L50.158,38.538L50.257,38.538L50.349,38.538L50.443,38.538L50.634,38.538L50.729,38.538L50.827,38.538L50.92,38.538L51.015,38.538L51.206,38.538L51.301,38.538L51.399,38.538L51.492,38.538L51.586,38.538L51.777,38.538L51.873,38.538L51.972,38.538L52.064,38.538L52.158,38.538L52.349,38.538L52.444,38.538L52.544,38.538L52.635,38.538L52.729,38.538L52.92,38.538L53.015,38.538L53.115,38.538L53.207,38.538L53.301,38.538L53.492,38.538L53.587,38.538L53.686,38.538L53.778,38.538L53.873,38.538L54.064,38.538L54.257,38.538L54.349,38.538L54.444,38.538L54.635,38.538L54.73,38.538L54.828,38.538L54.92,38.538L55.016,38.538L55.206,38.538L55.301,38.538L55.4,38.538L55.492,38.538L55.587,38.538L55.778,38.538L55.873,38.538L55.972,38.538L56.064,38.538L56.159,38.538L56.349,38.538L56.444,38.538L56.544,38.538L56.635,38.538L56.73,38.538L56.92,38.538L57.016,38.538L57.115,38.538L57.208,38.538L57.302,38.538L57.493,38.538L57.588,38.538L57.687,38.538L57.873,38.538L58.064,38.538L58.159,38.538L58.258,38.538L58.349,38.538L58.445,38.538L58.635,38.538L58.73,38.538L58.828,38.538L58.921,38.538L59.016,38.538L59.215,38.538L59.362,38.538L59.451,38.538L59.636,38.538L59.78,38.538L59.873,38.538L59.972,38.538L60.064,38.538L60.159,38.538L60.35,38.538L60.445,38.538L60.545,38.538L60.635,38.538L60.731,38.538L60.921,38.538L61.016,38.538L61.116,38.538L61.208,38.538L61.302,38.538L61.588,38.538L61.687,38.538L61.779,38.538L61.874,38.538L62.064,38.538L62.16,38.538L62.259,38.538L62.351,38.538L62.445,38.538L62.636,38.538L62.731,38.538L62.83,38.538L62.922,38.538L63.017,38.538L63.208,38.538L63.303,38.538L63.402,38.538L63.493,38.538L63.588,38.538L63.779,38.538L63.874,38.538L63.974,38.538L64.065,38.538L64.16,38.538L64.35,38.538L64.446,38.538L64.546,38.538L64.637,38.538L64.732,38.538L64.922,38.538L65.018,38.538L65.12,38.538L65.208,38.538L65.303,38.538L65.493,38.538L65.589,38.538L65.686,38.538L65.779,38.538L65.874,38.538L66.065,38.538L66.16,38.538L66.26,38.538L66.351,38.538L66.446,38.538L66.636,38.538L66.731,38.538L66.83,38.538L66.922,38.538L67.017,38.538L67.208,38.538L67.303,38.538L67.402,38.538L67.494,38.538L67.589,38.538L67.779,38.538L67.876,38.538L67.975,38.538L68.066,38.538L68.16,38.538L68.351,38.538L68.447,38.538L68.546,38.538L68.637,38.538L68.732,38.538L68.922,38.538L69.019,38.538L69.118,38.538L69.209,38.538L69.303,38.538L69.494,38.538L69.589,38.538L69.69,38.538L69.78,38.538L69.875,38.538L70.066,38.538L70.161,38.538L70.26,38.538L70.352,38.538L70.446,38.538L70.637,38.538L70.732,38.538L70.831,38.538L70.923,38.538L71.018,38.538L71.208,38.538L71.304,38.538L71.403,38.538L71.494,38.538L71.589,38.538L71.78,38.538L71.876,38.538L71.976,38.538L72.067,38.538L72.161,38.538L72.351,38.538L72.447,38.538L72.546,30.846L72.638,30.846L72.733,30.846L72.923,30.846L73.019,30.846L73.119,30.846L73.21,30.846L73.304,30.846L73.495,30.846L73.591,30.846L73.69,30.846L73.782,30.846L73.876,30.846L74.066,30.846L74.161,30.846L74.262,30.846L74.352,30.846L74.447,30.846L74.638,30.846L74.733,30.846L74.832,30.846L74.923,30.846L75.018,30.846L75.209,30.846L75.304,30.846L75.404,30.846L75.495,30.846L75.59,30.846L75.781,30.846L75.876,30.846L75.977,30.846L76.067,30.846L76.162,30.846L76.352,30.846L76.448,30.846L76.548,30.846L76.639,30.846L76.733,30.846L76.924,30.846L77.019,30.846L77.12,30.846L77.21,30.846L77.305,30.846L77.495,30.846L77.591,30.846L77.691,30.846L77.782,30.846L77.876,30.846L78.067,30.846L78.162,30.846L78.262,30.846L78.353,30.846L78.447,30.846L78.638,30.846L78.734,30.846L78.833,30.846L78.924,30.846L79.019,30.846L79.21,30.846L79.305,30.846L79.405,30.846L79.496,30.846L79.591,30.846L79.782,30.846L79.877,30.846L79.977,30.846L80.068,30.846L80.162,30.846L80.353,30.846L80.448,30.846L80.549,30.846L80.639,30.846L80.734,30.846L80.925,30.846L81.02,30.846L81.12,38.538L81.211,38.538L81.305,38.538L81.496,38.538L81.591,38.538L81.691,38.538L81.783,38.538L81.877,38.538L82.068,38.538L82.163,38.538L82.263,38.538L82.353,38.538L82.449,38.538L82.639,38.538L82.734,38.538L82.834,38.538L82.925,38.538L83.02,38.538L83.211,38.538L83.305,38.538L83.405,38.538L83.496,38.538L83.592,38.538L83.782,38.538L83.878,38.538L83.978,38.538L84.069,38.538L84.163,38.538L84.355,38.538L84.449,38.538L84.549,38.538L84.64,38.538L84.734,38.538L84.926,38.538L85.021,38.538L85.121,38.538L85.212,38.538L85.306,38.538L85.497,38.538L85.592,38.538L85.692,38.538L85.783,38.538L85.877,38.538L86.069,30.846L86.164,30.846L86.264,30.846L86.355,30.846L86.449,30.846L86.639,30.846L86.735,30.846L86.834,30.846L86.926,30.846L87.02,30.846L87.211,30.846L87.306,30.846L87.406,30.846L87.497,30.846L87.592,30.846L87.783,30.846L87.878,30.846L87.979,30.846L88.069,30.846L88.164,30.846L88.354,30.846L88.45,30.846L88.55,30.846L88.641,30.846L88.735,30.846L88.926,30.846L89.021,30.846L89.122,30.846L89.212,30.846L89.306,30.846L89.497,30.846L89.593,30.846L89.693,30.846L89.783,30.846L89.878,30.846L90.069,30.846L90.165,30.846L90.265,30.846L90.356,30.846L90.45,30.846L90.64,30.846L90.735,30.846L90.835,30.846L90.927,30.846L91.021,30.846L91.212,30.846L91.307,30.846L91.407,30.846L91.498,30.846L91.592,30.846L91.784,30.846L91.879,30.846L91.98,30.846L92.07,30.846L92.164,30.846L92.355,30.846L92.451,30.846L92.551,30.846L92.642,30.846L92.736,30.846L92.926,30.846L93.022,34.692L93.123,34.692L93.213,34.692L93.307,34.692L93.498,34.692L93.593,34.692L93.694,34.692L93.785,34.692L93.879,34.692L94.069,34.692L94.165,34.692L94.265,40.077L94.356,40.077L94.45,40.077L94.641,40.077L94.737,40.077L94.836,40.077L94.927,40.077L95.022,40.077L95.212,40.077L95.308,40.077L95.408,40.077L95.499,40.077L95.593,40.077L95.785,40.077L95.88,40.077L95.98,40.077L96.071,40.077L96.165,40.077L96.355,40.077L96.451,40.077L96.552,40.077L96.642,40.077L96.736,40.077L96.927,40.077L97.023,40.077L97.123,40.077L97.214,40.077L97.308,40.077L97.498,40.077L97.594,40.077L97.694,40.077L97.786,40.077L97.879,40.077L98.071,40.077L98.166,40.077L98.266,40.077L98.356,40.077L98.451,40.077L98.641,40.077L98.737,40.077L98.838,40.077L98.928,40.077L99.022,40.077L99.213,40.077L99.308,40.077L99.408,40.077L99.499,40.077L99.593,40.077L99.785,40.077L99.88,40.077L99.981,40.077L100.071,40.077L100.165,40.077L100.356,40.077L100.452,40.077L100.552,40.077L100.737,40.077L100.928,40.077L101.023,40.077L101.124,40.077L101.214,40.077L101.308,40.077L101.5,40.077L101.595,40.077L101.695,40.077L101.786,40.077L101.88,40.077L102.071,40.077L102.166,40.077L102.267,40.077L102.357,40.077L102.452,40.077L102.642,40.077L102.737,40.077L102.837,40.077L102.928,40.077L103.023,40.077L103.213,40.077L103.309,40.077L103.409,40.077L103.5,40.077L103.594,40.077L103.785,40.077L103.881,40.077L103.982,40.077L104.072,40.077L104.166,40.077L104.357,40.077L104.452,40.077L104.553,40.077L104.644,40.077L104.737,40.077L104.928,40.077L105.024,40.077L105.124,40.077L105.215,40.077L105.309,40.077L105.5,40.077L105.595,40.077L105.696,40.077L105.786,40.077L105.881,40.077L106.072,40.077L106.167,40.077L106.267,40.077L106.358,40.077L106.452,40.077L106.643,40.077L106.738,40.077L106.838,40.077L106.929,40.077L107.023,40.077L107.214,40.077L107.309,40.077L107.409,40.077L107.5,40.077L107.595,40.077L107.786,40.077L107.882,40.077L107.982,40.077L108.073,40.077L108.166,40.077L108.357,40.077L108.453,40.077L108.554,40.077L108.644,40.077L108.738,40.077L108.929,40.077L109.025,40.077L109.125,40.077L109.216,40.077L109.309,40.077L109.501,40.077L109.596,40.077L109.697,40.077L109.787,40.077L109.881,40.077L110.072,40.077L110.167,40.077L110.268,40.077L110.358,40.077L110.453,40.077L110.643,40.077L110.738,40.077L110.838,40.077L110.929,40.077L111.024,40.077L111.216,40.077L111.311,40.077L111.417,40.077L111.506,40.077L111.595,40.077L111.787,40.077L111.882,40.077L111.983,40.077L112.074,40.077L112.167,40.077L112.358,40.077L112.454,40.077L112.553,40.077L112.645,40.077L112.738,40.077L112.929,40.077L113.025,40.077L113.126,40.077L113.217,40.077L113.31,40.077L113.501,40.077L113.597,40.077L113.698,40.077L113.787,40.077L113.881,40.077L114.073,40.077L114.168,40.077L114.269,40.077L114.36,40.077L114.453,40.077L114.644,40.077L114.739,40.077L114.839,40.077L114.93,40.077L115.025,40.077L115.215,40.077L115.31,40.077L115.411,40.077L115.503,40.077L115.596,40.077L115.787,40.077L115.884,40.077L115.984,40.077L116.074,40.077L116.167,40.077L116.358,40.077L116.455,40.077L116.555,40.077L116.646,40.077L116.739,40.077L116.93,40.077L117.026,40.077L117.127,40.077L117.217,40.077L117.311,40.077L117.502,40.077L117.598,40.077L117.698,40.077L117.789,40.077L117.882,40.077L118.074,40.077L118.169,40.077L118.269,40.077L118.361,40.077L118.454,40.077L118.645,40.077L118.74,40.077L118.841,40.077L118.93,40.077L119.025,40.077L119.216,40.077L119.311,40.077L119.411,40.077L119.503,40.077L119.596,40.077L119.788,40.077L119.883,40.077L119.984,40.077L120.075,40.077L120.169,40.077L120.359,40.077L120.455,40.077L120.556,40.077L120.646,40.077L120.739,40.077L120.93,40.077L121.025,40.077L121.128,40.077L121.217,40.077L121.311,40.077L121.502,40.077L121.598,40.077L121.699,40.077L121.789,40.077L121.883,40.077L122.074,40.077L122.17,40.077L122.27,40.077L122.361,40.077L122.454,40.077L122.645,40.077L122.741,40.077L122.84,40.077L122.931,40.077L123.026,40.077L123.218,40.077L123.312,40.077L123.412,40.077L123.502,40.077L123.598,40.077L123.788,40.077L123.884,40.077L123.985,40.077L124.075,40.077L124.169,40.077L124.36,40.077L124.456,40.077L124.556,40.077L124.646,40.077L124.74,40.077L124.932,40.077L125.027,40.077L125.128,40.077L125.219,40.077L125.312,40.077L125.503,40.077L125.599,40.077L125.7,40.077L125.79,40.077L125.883,40.077L126.075,40.077L126.17,40.077L126.271,40.077L126.361,40.077L126.455,40.077L126.647,40.077L126.741,40.077L126.842,40.077L126.933,40.077L127.026,40.077L127.218,40.077L127.313,40.077L127.413,40.077L127.504,40.077L127.598,40.077L127.789,40.077L127.885,40.077L127.986,40.077L128.076,40.077L128.17,40.077L128.361,40.077L128.456,40.077L128.557,40.077L128.648,40.077L128.741,40.077L128.932,40.077L129.028,40.077L129.129,40.077L129.22,40.077L129.312,40.077L129.504,40.077L129.599,40.077L129.7,40.077L129.79,40.077L129.884,40.077L130.075,40.077L130.171,40.077L130.271,40.077L130.362,40.077L130.455,40.077L130.647,40.077L130.741,40.077L130.842,40.077L130.933,40.077L131.028,40.077L131.218,40.077L131.313,40.077L131.414,40.077L131.504,40.077L131.598,40.077L131.79,40.077L131.885,40.077L131.986,40.077L132.076,40.077L132.17,40.077L132.362,40.077L132.457,40.077L132.558,40.077L132.647,40.077L132.742,40.077L132.933,40.077L133.029,40.077L133.127,40.077L133.22,40.077L133.313,40.077L133.504,40.077L133.6,40.077L133.701,40.077L133.792,40.077L133.884,40.077L134.076,40.077L134.171,40.077L134.272,40.077L134.362,40.077L134.456,40.077L134.647,40.077L134.742,40.077L134.843,40.077L134.933,40.077L135.027,40.077L135.219,40.077L135.314,40.077L135.414,40.077L135.505,40.077L135.6,40.077L135.791,40.077L135.886,40.077L135.987,40.077L136.077,40.077L136.171,40.077L136.362,40.077L136.458,40.077L136.559,40.077L136.648,40.077L136.742,40.077L136.934,40.077L137.029,40.077L137.13,40.077L137.221,40.077L137.314,40.077L137.505,40.077L137.601,40.077L137.702,40.077L137.792,40.077L137.885,40.077L138.077,40.077L138.172,40.077L138.273,40.077L138.363,40.077L138.457,40.077L138.648,40.077L138.744,40.077L138.844,40.077L138.935,40.077L139.028,40.077L139.22,40.077L139.315,40.077L139.416,40.077L139.506,40.077L139.6,40.077L139.791,40.077L139.887,40.077L139.989,40.077L140.078,40.077L140.172,40.077L140.363,40.077L140.459,40.077L140.56,40.077L140.65,40.077L140.743,40.077L140.935,40.077L141.03,40.077L141.132,40.077L141.221,40.077L141.315,40.077L141.506,40.077L141.602,40.077L141.703,40.077L141.792,40.077L141.886,40.077L142.077,40.077L142.173,40.077L142.274,40.077L142.365,40.077L142.457,40.077L142.649,40.077L142.744,40.077L142.844,40.077L142.935,40.077L143.029,40.077L143.22,40.077L143.315,40.077L143.416,40.077L143.507,40.077L143.601,40.077L143.792,40.077L143.888,40.077L143.989,40.077L144.079,40.077L144.172,40.077L144.364,40.077L144.459,40.077L144.561,40.077L144.65,40.077L144.744,40.077L144.936,40.077L145.031,40.077L145.132,40.077L145.222,40.077L145.315,40.077L145.507,40.077L145.603,40.077L145.703,40.077L145.794,40.077L145.887,40.077L146.078,40.077L146.174,40.077L146.275,40.077L146.364,40.077L146.458,40.077L146.65,40.077L146.745,40.077L146.845,40.077L146.936,40.077L147.03,40.077L147.221,40.077L147.316,40.077L147.417,40.077L147.508,40.077L147.601,40.077L147.793,40.077L147.889,40.077L147.99,40.077L148.08,40.077L148.173,40.077L148.363,40.077L148.46,40.077L148.562,40.077L148.651,40.077L148.744,40.077L148.936,40.077L149.031,40.077L149.133,40.077L149.222,40.077L149.316,40.077L149.508,40.077L149.603,40.077L149.705,40.077L149.794,40.077L149.887,40.077L150.079,40.077L150.174,40.077L150.276,40.077L150.365,40.077L150.459,40.077L150.65,40.077L150.745,40.077L150.846,40.077L150.937,40.077L151.03,40.077L151.223,40.077L151.317,40.077L151.418,40.077L151.508,40.077L151.601,40.077L151.793,40.077L151.89,40.077L151.991,40.077L152.08,40.077L152.174,40.077L152.365,40.077L152.461,40.077L152.563,40.077L152.652,40.077L152.745,40.077L152.937,40.077L153.033,40.077L153.134,40.077L153.225,40.077L153.317,40.077L153.508,40.077L153.604,40.077L153.706,40.077L153.795,40.077L153.888,40.077L154.08,40.077L154.175,40.077L154.277,40.077L154.366,40.077L154.651,40.077L154.746,40.077L154.847,40.077L154.937,40.077L155.031,40.077L155.222,40.077L155.318,40.077L155.419,40.077L155.509,40.077L155.602,40.077L155.795,40.077L155.891,40.077L155.992,40.077L156.082,40.077L156.174,40.077L156.366,40.077L156.462,40.077L156.564,40.077L156.653,40.077L156.746,40.077L156.937,40.077L157.033,40.077L157.135,40.077L157.224,40.077L157.318,40.077L157.509,40.077L157.605,50.077L157.706,50.077L157.796,50.077L157.889,50.077L158.08,50.077L158.176,50.077L158.278,50.077L158.367,50.077L158.46,50.077L158.652,50.077L158.747,50.077L158.848,50.077L158.938,50.077L159.031,50.077L159.223,50.077L159.318,50.077L159.419,50.077L159.509,50.077L159.603,50.077L159.795,50.077L159.891,50.077L159.993,50.077L160.082,50.077L160.175,50.077L160.366,50.077L160.463,30.846L160.563,30.846L160.653,30.846L160.746,30.846L160.938,30.846L161.034,30.846L161.135,50.077L161.224,50.077L161.318,50.077L161.509,50.077L161.605,50.077L161.707,50.077L161.795,50.077L161.89,50.077L162.081,50.077L162.176,50.077L162.278,50.077L162.367,50.077L162.462,50.077L162.653,50.077L162.747,50.077L162.848,50.077L162.939,50.077L163.032,50.077L163.224,50.077L163.319,50.077L163.42,50.077L163.51,50.077L163.604,50.077L163.796,50.077L163.892,50.077L163.993,50.077L164.082,50.077L164.175,50.077L164.367,50.077L164.463,50.077L164.565,50.077L164.654,50.077L164.747,50.077L164.939,50.077L165.035,50.077L165.136,50.077L165.225,50.077L165.319,50.077L165.511,50.077L165.606,50.077L165.707,50.077L165.797,50.077L165.89,50.077L166.082,50.077L166.177,50.077L166.279,50.077L166.368,50.077L166.461,50.077L166.653,50.077L166.748,50.077L166.849,50.077L166.939,50.077L167.033,50.077L167.225,50.077L167.32,50.077L167.421,50.077L167.51,50.077L167.604,50.077L167.796,50.077L167.892,50.077L167.994,50.077L168.083,50.077L168.176,50.077L168.368,50.077L168.464,50.077L168.565,50.077L168.655,50.077L168.747,50.077L168.939,50.077L169.035,50.077L169.136,50.077L169.227,50.077L169.32,50.077L169.511,50.077L169.607,50.077L169.708,50.077L169.798,50.077L169.891,50.077L170.083,50.077L170.178,50.077L170.279,50.077L170.369,50.077L170.462,50.077L170.653,50.077L170.749,50.077L170.85,50.077L170.939,50.077L171.033,50.077L171.225,50.077L171.321,50.077L171.421,50.077L171.511,50.077L171.606,50.077L171.797,50.077L171.893,50.077L171.995,50.077L172.085,50.077L172.177,50.077L172.368,50.077L172.464,50.077L172.566,50.077L172.655,50.077L172.748,50.077L172.94,50.077L173.037,50.077L173.137,50.077L173.227,50.077L173.32,50.077L173.708,50.077L173.798,50.077L173.891,50.077L174.083,50.077L174.178,50.077L174.279,50.077L174.369,50.077L174.463,50.077L174.654,50.077L174.749,50.077L174.85,50.077L174.941,50.077L175.034,50.077L175.225,50.077L175.32,50.077L175.422,50.077L175.511,50.077L175.605,50.077L175.797,50.077L175.893,50.077L175.995,50.077L176.084,50.077L176.177,50.077L176.368,50.077L176.464,50.077L176.565,50.077L176.655,50.077L176.749,50.077L176.941,50.077L177.036,50.077L177.137,50.077L177.227,50.077L177.32,50.077L177.512,50.077L177.607,50.077L177.708,50.077L177.798,50.077L177.891,50.077L178.083,50.077L178.178,50.077L178.28,50.077L178.37,50.077L178.463,50.077L178.654,50.077L178.749,50.077L178.85,50.077L178.941,50.077L179.034,50.077L179.226,50.077L179.321,50.077L179.422,50.077L179.512,50.077L179.605,50.077L179.798,50.077L179.894,50.077L179.995,50.077L180.084,50.077L180.178,50.077L180.369,50.077L180.465,50.077L180.567,50.077L180.656,50.077L180.749,50.077L180.941,50.077L181.037,50.077L181.138,58.538L181.228,58.538L181.321,58.538L181.513,58.538L181.608,58.538L181.71,58.538L181.799,58.538L181.893,58.538L182.085,58.538L182.18,58.538L182.282,58.538L182.371,58.538L182.464,58.538L182.656,58.538L182.751,58.538L182.852,58.538L182.942,58.538L183.035,58.538L183.227,58.538L183.322,58.538L183.423,58.538L183.513,58.538L183.607,58.538L183.799,58.538L183.895,58.538L183.997,58.538L184.086,58.538L184.179,58.538L184.37,58.538L184.467,58.538L184.568,58.538L184.657,58.538L184.75,58.538L184.942,58.538L185.038,58.538L185.14,58.538L185.229,58.538L185.322,58.538L185.514,46.231L185.609,46.231L185.711,58.538L185.801,58.538L185.893,58.538L186.085,58.538L186.181,58.538L186.282,46.231L186.372,46.231L186.465,46.231L186.656,46.231L186.751,46.231L186.853,46.231L186.943,46.231L187.036,46.231L187.228,46.231L187.323,46.231L187.424,46.231L187.514,46.231L187.607,46.231L187.8,46.231L187.896,46.231L187.998,46.231L188.087,46.231L188.18,46.231L188.371,46.231L188.467,46.231L188.569,46.231L188.659,46.231L188.751,46.231L188.943,46.231L189.039,46.231L189.141,58.538L189.23,58.538L189.323,58.538L189.515,58.538L189.611,58.538L189.712,58.538L189.801,58.538L189.894,58.538L190.086,58.538L190.182,58.538L190.283,58.538L190.372,58.538L190.465,58.538L190.657,58.538L190.752,58.538L190.853,58.538L190.943,58.538L191.037,58.538L191.229,58.538L191.324,58.538L191.425,58.538L191.514,58.538L191.608,58.538L191.801,58.538L191.897,58.538L191.999,58.538L192.088,58.538L192.18,58.538L192.372,30.846L192.468,30.846L192.57,58.538L192.659,58.538L192.752,58.538L192.943,58.538L193.04,58.538L193.142,58.538L193.231,58.538L193.323,58.538L193.515,30.846L193.611,30.846L193.713,46.231L193.802,46.231L193.895,46.231L194.086,30.846L194.182,30.846L194.284,46.231L194.373,46.231L194.466,46.231L194.658,46.231L194.753,46.231L194.854,46.231L194.944,46.231L195.037,46.231L195.229,46.231L195.324,46.231L195.426,46.231L195.515,46.231L195.609,46.231L195.801,46.231L195.898,46.231L196,46.231L196.088,46.231L196.181,46.231L196.373,46.231L196.469,46.231L196.571,46.231L196.66,46.231L196.752,46.231L196.944,46.231L197.04,46.231L197.142,46.231L197.231,46.231L197.324,46.231L197.516,46.231L197.612,46.231L197.714,46.231L197.803,46.231L197.896,46.231L198.087,46.231L198.183,46.231L198.285,46.231L198.374,46.231L198.467,46.231L198.658,46.231L198.753,46.231L198.855,46.231L198.944,46.231L199.038,46.231L199.23,46.231L199.325,46.231L199.427,46.231L199.516,46.231L199.609,46.231L199.802,46.231L199.898,46.231L200,46.231" stroke="#f58518" stroke-width="2"/></g></g><path class="foreground" aria-hidden="true" d="" display="none"/></g></g><g class="mark-group role-legend" role="graphics-symbol" aria-roledescription="legend" aria-label="Symbol legend titled 'identifier' for stroke color with 2 values: altex-LG-F2WR508SBW, altex-LG-F2WR508SBM"><g transform="translate(220,0)"><path class="background" aria-hidden="true" d="M0,0h168v40h-168Z" pointer-events="none"/><g><g class="mark-group role-legend-entry"><g transform="translate(0,16)"><path class="background" aria-hidden="true" d="M0,0h0v0h0Z" pointer-events="none"/><g><g class="mark-group role-scope" role="graphics-object" aria-roledescription="group mark container"><g transform="translate(0,0)"><path class="background" aria-hidden="true" d="M0,0h168v11h-168Z" pointer-events="none" opacity="1"/><g><g class="mark-symbol role-legend-symbol" pointer-events="none"><path transform="translate(6,6)" d="M-5,0L5,0" stroke="#4c78a8" stroke-width="1.5" opacity="1"/></g><g class="mark-text role-legend-label" pointer-events="none"><text text-anchor="start" transform="translate(16,9)" font-family="Liberation Mono" font-size="10px" fill="#000" opacity="1">altex-LG-F2WR508SBW</text></g></g><path class="foreground" aria-hidden="true" d="" pointer-events="none" display="none"/></g><g transform="translate(0,13)"><path class="background" aria-hidden="true" d="M0,0h168v11h-168Z" pointer-events="none" opacity="1"/><g><g class="mark-symbol role-legend-symbol" pointer-events="none"><path transform="translate(6,6)" d="M-5,0L5,0" stroke="#f58518" stroke-width="1.5" opacity="1"/></g><g class="mark-text role-legend-label" pointer-events="none"><text text-anchor="start" transform="translate(16,9)" font-family="Liberation Mono" font-size="10px" fill="#000" opacity="1">altex-LG-F2WR508SBM</text></g></g><path class="foreground" aria-hidden="true" d="" pointer-events="none" display="none"/></g></g></g><path class="foreground" aria-hidden="true" d="" pointer-events="none" display="none"/></g></g><g class="mark-text role-legend-title" pointer-events="none"><text text-anchor="start" transform="translate(0,9)" font-family="Liberation Mono" font-size="11px" font-weight="bold" fill="#000" opacity="1">identifier</text></g></g><path class="foreground" aria-hidden="true" d="" pointer-events="none" display="none"/></g></g></g><path class="foreground" aria-hidden="true" d="" display="none"/></g></g></g></svg>