<svg xmlns="http://www.w3.org/2000/svg" xmlns:xlink="http://www.w3.org/1999/xlink" version="1.1" class="marks" width="460" height="242" viewBox="0 0 460 242"><rect width="460" height="242" fill="white"/><g fill="none" stroke-miterlimit="10" transform="translate(67,5)"><g class="mark-group role-frame root" role="graphics-object" aria-roledescription="group mark container"><g transform="translate(0,0)"><path class="background" aria-hidden="true" d="M0.5,0.5h200v200h-200Z" stroke="#ddd"/><g><g class="mark-group role-axis" aria-hidden="true"><g transform="translate(0.5,200.5)"><path class="background" aria-hidden="true" d="M0,0h0v0h0Z" pointer-events="none"/><g><g class="mark-rule role-axis-grid" pointer-events="none"><line transform="translate(27,-200)" x2="0" y2="200" stroke="#ddd" stroke-width="1" opacity="1"/><line transform="translate(53,-200)" x2="0" y2="200" stroke="#ddd" stroke-width="1" opacity="1"/><line transform="translate(81,-200)" x2="0" y2="200" stroke="#ddd" stroke-width="1" opacity="1"/><line transform="translate(108,-200)" x2="0" y2="200" stroke="#ddd" stroke-width="1" opacity="1"/><line transform="translate(136,-200)" x2="0" y2="200" stroke="#ddd" stroke-width="1" opacity="1"/><line transform="translate(163,-200)" x2="0" y2="200" stroke="#ddd" stroke-width="1" opacity="1"/><line transform="translate(191,-200)" x2="0" y2="200" stroke="#ddd" stroke-width="1" opacity="1"/></g></g><path class="foreground" aria-hidden="true" d="" pointer-events="none" display="none"/></g></g><g class="mark-group role-axis" aria-hidden="true"><g transform="translate(0.5,0.5)"><path class="background" aria-hidden="true" d="M0,0h0v0h0Z" pointer-events="none"/><g><g class="mark-rule role-axis-grid" pointer-events="none"><line transform="translate(0,200)" x2="200" y2="0" stroke="#ddd" stroke-width="1" opacity="1"/><line transform="translate(0,162)" x2="200" y2="0" stroke="#ddd" stroke-width="1" opacity="1"/><line transform="translate(0,123)" x2="200" y2="0" stroke="#ddd" stroke-width="1" opacity="1"/><line transform="translate(0,85)" x2="200" y2="0" stroke="#ddd" stroke-width="1" opacity="1"/><line transform="translate(0,46)" x2="200" y2="0" stroke="#ddd" stroke-width="1" opacity="1"/><line transform="translate(0,8)" x2="200" y2="0" stroke="#ddd" stroke-width="1" opacity="1"/></g></g><path class="foreground" aria-hidden="true" d="" pointer-events="none" display="none"/></g></g><g class="mark-group role-axis" role="graphics-symbol" aria-roledescription="axis" aria-label="X-axis titled 'Time' for a time scale with values from Monday, 01 January 2024, 2:19:43 PM to Sunday, 11 August 2024, 4:40:39 AM"><g transform="translate(0.5,200.5)"><path class="background" aria-hidden="true" d="M0,0h0v0h0Z" pointer-events="none"/><g><g class="mark-rule role-axis-tick" pointer-events="none"><line transform="translate(27,0)" x2="0" y2="5" stroke="#888" stroke-width="1" opacity="1"/><line transform="translate(53,0)" x2="0" y2="5" stroke="#888" stroke-width="1" opacity="1"/><line transform="translate(81,0)" x2="0" y2="5" stroke="#888" stroke-width="1" opacity="1"/><line transform="translate(108,0)" x2="0" y2="5" stroke="#888" stroke-width="1" opacity="1"/><line transform="translate(136,0)" x2="0" y2="5" stroke="#888" stroke-width="1" opacity="1"/><line transform="translate(163,0)" x2="0" y2="5" stroke="#888" stroke-width="1" opacity="1"/><line transform="translate(191,0)" x2="0" y2="5" stroke="#888" stroke-width="1" opacity="1"/></g><g class="mark-text role-axis-label" pointer-events="none"><text text-anchor="middle" transform="translate(27.316498415299627,15)" font-family="Liberation Mono" font-size="10px" fill="#000" opacity="1">February</text><text text-anchor="middle" transform="translate(53.372451896676196,15)" font-family="Liberation Mono" font-size="10px" fill="#000" opacity="0">March</text><text text-anchor="middle" transform="translate(81.22536768711322,15)" font-family="Liberation Mono" font-size="10px" fill="#000" opacity="1">April</text><text text-anchor="middle" transform="translate(108.17980232302003,15)" font-family="Liberation Mono" font-size="10px" fill="#000" opacity="0">May</text><text text-anchor="middle" transform="translate(136.03271811345707,15)" font-family="Liberation Mono" font-size="10px" fill="#000" opacity="1">June</text><text text-anchor="middle" transform="translate(162.98715274936384,15)" font-family="Liberation Mono" font-size="10px" fill="#000" opacity="0">July</text><text text-anchor="middle" transform="translate(190.84006853980085,15)" font-family="Liberation Mono" font-size="10px" fill="#000" opacity="1">August</text></g><g class="mark-rule role-axis-domain" pointer-events="none"><line transform="translate(0,0)" x2="200" y2="0" stroke="#888" stroke-width="1" opacity="1"/></g><g class="mark-text role-axis-title" pointer-events="none"><text text-anchor="middle" transform="translate(100,30)" font-family="Liberation Mono" font-size="11px" font-weight="bold" fill="#000" opacity="1">Time</text></g></g><path class="foreground" aria-hidden="true" d="" pointer-events="none" display="none"/></g></g><g class="mark-group role-axis" role="graphics-symbol" aria-roledescription="axis" aria-label="Y-axis titled 'Price' for a linear scale with values from 0 to 2,600"><g transform="translate(0.5,0.5)"><path class="background" aria-hidden="true" d="M0,0h0v0h0Z" pointer-events="none"/><g><g class="mark-rule role-axis-tick" pointer-events="none"><line transform="translate(0,200)" x2="-5" y2="0" stroke="#888" stroke-width="1" opacity="1"/><line transform="translate(0,162)" x2="-5" y2="0" stroke="#888" stroke-width="1" opacity="1"/><line transform="translate(0,123)" x2="-5" y2="0" stroke="#888" stroke-width="1" opacity="1"/><line transform="translate(0,85)" x2="-5" y2="0" stroke="#888" stroke-width="1" opacity="1"/><line transform="translate(0,46)" x2="-5" y2="0" stroke="#888" stroke-width="1" opacity="1"/><line transform="translate(0,8)" x2="-5" y2="0" stroke="#888" stroke-width="1" opacity="1"/></g><g class="mark-text role-axis-label" pointer-events="none"><text text-anchor="end" transform="translate(-7,203)" font-family="Liberation Mono" font-size="10px" fill="#000" opacity="1">0</text><text text-anchor="end" transform="translate(-7,164.53846153846155)" font-family="Liberation Mono" font-size="10px" fill="#000" opacity="1">500</text><text text-anchor="end" transform="translate(-7,126.07692307692308)" font-family="Liberation Mono" font-size="10px" fill="#000" opacity="1">1,000</text><text text-anchor="end" transform="translate(-7,87.61538461538463)" font-family="Liberation Mono" font-size="10px" fill="#000" opacity="1">1,500</text><text text-anchor="end" transform="translate(-7,49.153846153846146)" font-family="Liberation Mono" font-size="10px" fill="#000" opacity="1">2,000</text><text text-anchor="end" transform="translate(-7,10.692307692307686)" font-family="Liberation Mono" font-size="10px" fill="#000" opacity="1">2,500</text></g><g class="mark-rule role-axis-domain" pointer-events="none"><line transform="translate(0,200)" x2="0" y2="-200" stroke="#888" stroke-width="1" opacity="1"/></g><g class="mark-text role-axis-title" pointer-events="none"><text text-anchor="middle" transform="translate(-51,100) rotate(-90) translate(0,-2)" font-family="Liberation Mono" font-size="11px" font-weight="bold" fill="#000" opacity="1">Price</text></g></g><path class="foreground" aria-hidden="true" d="" pointer-events="none" display="none"/></g></g><g class="mark-group role-scope pathgroup" role="graphics-object" aria-roledescription="group mark container"><g transform="translate(0,0)"><path class="background" aria-hidden="true" d="M0,0h200v200h-200Z"/><g><g class="mark-line role-mark marks" role="graphics-object" aria-roledescription="line mark container"><path aria-label="Time: Jan 01, 2024; Price: 2399; identifier: altex-LG-F2WR508SBW" role="graphics-symbol" aria-roledescription="line mark" d="M0,15.462L0.094,15.462L0.236,15.462L0.536,15.462L0.686,15.462L0.843,15.462L0.986,15.462L1.135,15.462L1.434,15.462L1.584,15.462L1.742,15.462L1.885,15.462L2.033,15.462L2.333,15.462L2.483,15.462L2.64,15.462L2.784,15.462L2.932,15.462L3.232,34.692L3.381,34.692L3.539,34.692L3.682,34.692L3.83,34.692L4.13,34.692L4.28,34.692L4.436,34.692L4.58,34.692L4.729,34.692L5.029,34.692L5.178,34.692L5.335,34.692L5.479,34.692L5.627,34.692L5.927,34.692L6.078,34.692L6.235,34.692L6.378,34.692L6.525,34.692L6.826,34.692L6.976,34.692L7.135,34.692L7.277,34.692L7.424,34.692L7.725,34.692L7.874,34.692L8.032,34.692L8.175,34.692L8.323,34.692L8.623,34.692L8.773,34.692L8.931,34.692L9.074,34.692L9.221,34.692L9.521,34.692L9.671,34.692L9.828,34.692L9.972,34.692L10.12,34.692L10.419,46.231L10.569,46.231L10.726,46.231L10.87,46.231L11.018,46.231L11.318,46.231L11.467,46.231L11.624,46.231L11.768,46.231L11.916,46.231L12.217,46.231L12.367,46.231L12.525,46.231L12.668,46.231L12.815,46.231L13.115,46.231L13.266,46.231L13.423,46.231L13.567,46.231L13.713,46.231L14.014,46.231L14.164,46.231L14.322,46.231L14.465,46.231L14.612,46.231L14.912,46.231L15.062,46.231L15.22,46.231L15.363,46.231L15.511,46.231L15.811,46.231L15.961,46.231L16.118,46.231L16.262,46.231L16.409,46.231L16.709,46.231L16.858,46.231L17.015,46.231L17.16,46.231L17.308,46.231L17.607,46.231L17.757,46.231L17.914,46.231L18.058,46.231L18.206,46.231L18.507,46.231L18.657,46.231L18.815,46.231L18.957,46.231L19.104,46.231L19.405,46.231L19.555,46.231L19.713,46.231L19.856,46.231L20.003,46.231L20.303,46.231L20.453,46.231L20.611,46.231L20.754,46.231L20.901,46.231L21.202,46.231L21.352,46.231L21.51,46.231L21.653,46.231L21.8,46.231L22.1,46.231L22.25,46.231L22.405,46.231L22.549,46.231L22.699,46.231L22.998,46.231L23.148,46.231L23.302,46.231L23.447,46.231L23.597,46.231L23.896,46.231L24.046,46.231L24.201,46.231L24.346,46.231L24.495,46.231L24.795,46.231L24.945,46.231L25.1,46.231L25.244,46.231L25.394,46.231L25.693,46.231L25.843,46.231L25.999,46.231L26.145,46.231L26.292,46.231L26.592,46.231L26.741,46.231L26.897,46.231L27.041,46.231L27.191,46.231L27.49,34.692L27.64,34.692L27.796,34.692L27.939,34.692L28.089,34.692L28.389,34.692L28.538,34.692L28.694,34.692L28.838,34.692L28.988,34.692L29.287,34.692L29.437,34.692L29.591,34.692L29.736,34.692L29.887,34.692L30.186,34.692L30.336,34.692L30.49,34.692L30.635,34.692L30.784,34.692L31.084,34.692L31.234,34.692L31.39,34.692L31.534,34.692L31.683,34.692L31.982,34.692L32.132,34.692L32.288,34.692L32.432,34.692L32.582,34.692L32.881,34.692L33.031,34.692L33.186,34.692L33.331,34.692L33.48,34.692L33.78,34.692L33.93,34.692L34.085,34.692L34.229,34.692L34.378,34.692L34.678,34.692L34.828,34.692L34.983,34.692L35.128,34.692L35.277,34.692L35.576,34.692L35.726,34.692L35.881,34.692L36.026,34.692L36.176,34.692L36.476,34.692L36.625,34.692L36.779,34.692L36.924,34.692L37.074,34.692L37.374,34.692L37.523,34.692L37.68,34.692L37.823,34.692L37.972,34.692L38.272,34.692L38.422,34.692L38.577,34.692L38.723,34.692L38.871,34.692L39.17,34.692L39.32,34.692L39.476,34.692L39.62,34.692L39.769,34.692L40.219,34.692L40.374,34.692L40.518,34.692L40.668,34.692L40.968,34.692L41.117,34.692L41.273,34.692L41.418,34.692L41.566,34.692L41.866,34.692L42.015,34.692L42.17,34.692L42.315,34.692L42.465,34.692L42.764,34.692L42.915,34.692L43.069,34.692L43.214,34.692L43.363,34.692L43.663,34.692L43.813,34.692L43.969,34.692L44.114,34.692L44.262,34.692L44.562,34.692L44.711,34.692L44.866,34.692L45.011,34.692L45.161,34.692L45.46,34.692L45.61,34.692L45.766,34.692L45.91,34.692L46.059,34.692L46.358,34.692L46.508,34.692L46.664,34.692L46.808,34.692L46.957,34.692L47.257,34.692L47.407,34.692L47.562,34.692L47.706,34.692L47.857,34.692L48.155,34.692L48.305,34.692L48.459,34.692L48.604,34.692L48.754,34.692L49.054,34.692L49.204,34.692L49.358,34.692L49.504,34.692L49.652,34.692L49.952,34.692L50.102,34.692L50.258,34.692L50.402,34.692L50.551,34.692L50.851,34.692L51.001,34.692L51.156,34.692L51.301,34.692L51.45,34.692L51.749,34.692L51.899,34.692L52.054,34.692L52.199,34.692L52.348,34.692L52.648,34.692L52.797,34.692L52.952,34.692L53.097,34.692L53.246,34.692L53.546,34.692L53.696,34.692L53.852,34.692L53.996,34.692L54.145,34.692L54.445,34.692L54.594,34.692L54.75,34.692L54.894,34.692L55.044,34.692L55.343,34.692L55.493,34.692L55.647,34.692L55.792,34.692L55.942,34.692L56.255,34.692L56.46,34.692L56.549,34.692L56.692,34.692L56.841,34.692L57.14,34.692L57.29,34.692L57.446,34.692L57.589,34.692L57.739,34.692L58.038,34.692L58.189,34.692L58.345,34.692L58.489,34.692L58.637,34.692L58.937,34.692L59.087,34.692L59.242,34.692L59.386,34.692L59.536,34.692L59.836,34.692L59.987,34.692L60.141,34.692L60.285,34.692L60.434,34.692L60.734,34.692L60.884,34.692L61.038,34.692L61.184,34.692L61.333,34.692L61.632,34.692L61.783,34.692L61.936,34.692L62.082,34.692L62.231,34.692L62.532,34.692L62.681,34.692L62.837,34.692L62.981,34.692L63.13,34.692L63.43,34.692L63.579,34.692L63.735,34.692L63.88,34.692L64.028,34.692L64.328,34.692L64.479,34.692L64.634,34.692L64.777,34.692L64.927,34.692L65.226,34.692L65.376,34.692L65.533,34.692L65.676,34.692L65.825,34.692L66.125,34.692L66.276,34.692L66.43,34.692L66.575,34.692L66.724,34.692L67.023,34.692L67.174,34.692L67.328,34.692L67.473,34.692L67.623,34.692L67.922,34.692L68.072,34.692L68.226,34.692L68.371,34.692L68.521,34.692L68.82,34.692L68.97,34.692L69.127,34.692L69.271,34.692L69.42,34.692L69.719,34.692L69.869,34.692L70.024,34.692L70.17,34.692L70.318,34.692L70.617,34.692L70.767,34.692L70.923,34.692L71.068,34.692L71.217,34.692L71.516,34.692L71.666,34.692L71.822,34.692L71.967,34.692L72.115,34.692L72.414,34.692L72.564,34.692L72.72,34.692L72.864,34.692L73.013,34.692L73.313,34.692L73.462,34.692L73.618,34.692L73.762,34.692L73.912,34.692L74.211,34.692L74.361,34.692L74.517,34.692L74.66,34.692L74.81,34.692L75.11,34.692L75.259,34.692L75.415,34.692L75.559,34.692L75.709,34.692L76.008,34.692L76.159,34.692L76.314,34.692L76.459,34.692L76.607,34.692L76.908,34.692L77.057,34.692L77.213,34.692L77.358,34.692L77.506,34.692L77.805,34.692L77.955,34.692L78.111,34.692L78.255,34.692L78.404,34.692L78.704,34.692L78.853,34.692L79.01,34.692L79.154,34.692L79.303,34.692L79.602,34.692L79.752,34.692L79.906,34.692L80.052,34.692L80.202,34.692L80.501,34.692L80.651,34.692L80.806,34.692L80.951,34.692L81.1,34.692L81.399,34.692L81.55,34.692L81.706,34.692L81.851,34.692L81.998,34.692L82.298,34.692L82.448,34.692L82.604,34.692L82.748,34.692L82.896,34.692L83.196,34.692L83.346,34.692L83.502,34.692L83.647,34.692L83.795,34.692L84.095,34.692L84.245,34.692L84.401,34.692L84.545,34.692L84.694,34.692L84.994,34.692L85.299,34.692L85.443,34.692L85.593,34.692L85.892,34.692L86.042,34.692L86.196,34.692L86.341,34.692L86.49,34.692L86.79,34.692L86.94,34.692L87.095,34.692L87.239,34.692L87.389,34.692L87.689,34.692L87.838,34.692L87.995,34.692L88.139,34.692L88.287,34.692L88.587,34.692L88.737,34.692L88.893,34.692L89.037,34.692L89.186,34.692L89.485,34.692L89.636,34.692L89.792,34.692L89.937,34.692L90.085,34.692L90.385,34.692L90.535,34.692L90.69,34.692L90.983,34.692L91.283,34.692L91.433,34.692L91.588,34.692L91.732,34.692L91.881,34.692L92.181,34.692L92.33,34.692L92.483,34.692L92.63,34.692L92.78,34.692L93.093,34.692L93.323,34.692L93.464,34.692L93.755,34.692L93.98,34.692L94.128,34.692L94.282,34.692L94.427,34.692L94.577,34.692L94.876,34.692L95.026,34.692L95.183,34.692L95.325,34.692L95.475,34.692L95.775,34.692L95.924,34.692L96.081,34.692L96.226,34.692L96.374,34.692L96.823,34.692L96.979,34.692L97.123,34.692L97.273,34.692L97.572,34.692L97.722,34.692L97.878,34.692L98.022,34.692L98.171,34.692L98.47,34.692L98.62,34.692L98.775,34.692L98.92,34.692L99.069,34.692L99.369,34.692L99.519,34.692L99.674,34.692L99.818,34.692L99.968,34.692L100.267,34.692L100.418,34.692L100.574,34.692L100.717,34.692L100.866,34.692L101.166,34.692L101.316,34.692L101.473,34.692L101.616,34.692L101.765,34.692L102.064,34.692L102.215,34.692L102.375,34.692L102.514,34.692L102.664,34.692L102.963,34.692L103.113,34.692L103.265,34.692L103.412,34.692L103.562,34.692L103.861,34.692L104.011,34.692L104.168,34.692L104.311,34.692L104.461,34.692L104.76,34.692L104.909,34.692L105.064,34.692L105.209,34.692L105.358,34.692L105.658,34.692L105.808,34.692L105.964,34.692L106.107,34.692L106.257,34.692L106.556,34.692L106.708,34.692L106.864,34.692L107.007,34.692L107.156,34.692L107.455,34.692L107.606,34.692L107.762,34.692L107.906,34.692L108.054,34.692L108.353,34.692L108.506,34.692L108.661,34.692L108.803,34.692L108.952,34.692L109.253,57.769L109.402,57.769L109.56,57.769L109.702,57.769L109.852,57.769L110.151,57.769L110.3,57.769L110.457,57.769L110.601,57.769L110.75,57.769L111.049,57.769L111.199,57.769L111.355,57.769L111.498,57.769L111.648,57.769L111.947,57.769L112.098,57.769L112.253,57.769L112.397,57.769L112.546,57.769L112.846,57.769L112.997,57.769L113.154,57.769L113.297,57.769L113.445,57.769L113.744,57.769L113.895,57.769L114.051,57.769L114.195,57.769L114.344,57.769L114.643,57.769L114.793,57.769L114.952,57.769L115.095,57.769L115.242,57.769L115.542,34.692L115.693,34.692L115.848,34.692L115.994,34.692L116.141,34.692L116.44,34.692L116.59,34.692L116.748,34.692L116.89,34.692L117.039,34.692L117.338,34.692L117.488,34.692L117.644,34.692L117.787,34.692L117.937,34.692L118.237,34.692L118.387,34.692L118.543,34.692L118.686,34.692L118.836,34.692L119.136,34.692L119.286,34.692L119.443,34.692L119.586,34.692L119.735,34.692L120.034,34.692L120.185,34.692L120.342,34.692L120.485,34.692L120.633,34.692L120.933,34.692L121.083,34.692L121.241,34.692L121.383,34.692L121.532,34.692L121.831,34.692L121.981,34.692L122.139,34.692L122.281,34.692L122.43,34.692L122.729,34.692L122.879,34.692L123.037,34.692L123.18,34.692L123.328,34.692L123.628,34.692L123.778,34.692L123.935,34.692L124.077,34.692L124.226,34.692L124.527,34.692L124.676,34.692L124.833,34.692L124.977,34.692L125.125,34.692L125.426,34.692L125.575,34.692L125.733,34.692L125.876,34.692L126.024,34.692L126.323,34.692L126.474,34.692L126.632,34.692L126.774,34.692L126.923,34.692L127.222,34.692L127.373,34.692L127.53,34.692L127.673,34.692L127.82,34.692L128.12,34.692L128.27,34.692L128.428,34.692L128.572,34.692L128.719,34.692L129.02,34.692L129.169,34.692L129.327,34.692L129.469,34.692L129.618,34.692L129.918,34.692L130.067,34.692L130.224,34.692L130.367,34.692L130.516,34.692L130.816,34.692L130.965,34.692L131.122,34.692L131.265,34.692L131.416,34.692L131.715,34.692L131.865,34.692L132.023,34.692L132.165,34.692L132.313,34.692L132.616,34.692L132.764,34.692L132.921,34.692L133.063,34.692L133.211,34.692L133.513,34.692L133.662,34.692L133.819,34.692L133.962,34.692L134.11,34.692L134.411,34.692L134.56,34.692L134.718,34.692L134.86,34.692L135.008,34.692L135.31,34.692L135.459,34.692L135.616,34.692L135.759,34.692L135.907,34.692L136.207,34.692L136.356,34.692L136.513,34.692L136.657,34.692L136.805,34.692L137.105,34.692L137.255,34.692L137.411,34.692L137.555,34.692L137.704,34.692L138.005,34.692L138.154,34.692L138.313,34.692L138.455,34.692L138.603,34.692L138.902,34.692L139.053,34.692L139.211,34.692L139.354,34.692L139.501,34.692L139.802,34.692L139.951,34.692L140.109,34.692L140.252,34.692L140.399,34.692L140.699,34.692L140.85,34.692L141.008,34.692L141.149,34.692L141.298,34.692L141.598,34.692L141.749,34.692L141.907,34.692L142.05,34.692L142.197,34.692L142.496,34.692L142.645,34.692L142.803,34.692L142.947,34.692L143.095,34.692L143.395,34.692L143.544,34.692L143.702,34.692L143.845,34.692L143.993,34.692L144.294,34.692L144.444,34.692L144.602,34.692L144.744,34.692L144.892,34.692L145.193,34.692L145.343,34.692L145.501,34.692L145.643,34.692L145.791,34.692L146.091,34.692L146.241,46.231L146.399,46.231L146.541,46.231L146.689,46.231L146.989,46.231L147.139,46.231L147.297,46.231L147.441,46.231L147.588,46.231L147.887,46.231L148.037,46.231L148.196,48.538L148.338,48.538L148.486,48.538L148.787,48.538L148.937,48.538L149.093,48.538L149.236,48.538L149.384,48.538L149.684,48.538L149.834,48.538L149.992,48.538L150.134,48.538L150.283,48.538L150.584,48.538L150.734,48.538L150.892,48.538L151.033,48.538L151.181,48.538L151.481,48.538L151.632,48.538L151.79,48.538L151.932,48.538L152.079,48.538L152.38,48.538L152.53,48.538L152.689,48.538L152.831,48.538L152.978,48.538L153.278,48.538L153.428,48.538L153.586,48.538L153.731,48.538L153.877,48.538L154.178,48.538L154.327,48.538L154.485,48.538L154.627,48.538L154.775,48.538L155.075,48.538L155.225,48.538L155.384,48.538L155.525,48.538L155.673,48.538L155.974,48.538L156.123,48.538L156.28,48.538L156.423,48.538L156.572,48.538L156.872,48.538L157.023,48.538L157.181,48.538L157.323,48.538L157.47,48.538L157.771,48.538L157.921,48.538L158.079,48.538L158.37,48.538L158.67,48.538L158.82,48.538L158.978,48.538L159.12,48.538L159.268,48.538L159.569,48.538L159.719,48.538L159.876,48.538L160.019,48.538L160.166,48.538L160.466,48.538L160.617,48.538L160.775,48.538L160.916,48.538L161.065,48.538L161.365,48.538L161.515,48.538L161.672,48.538L161.815,48.538L161.963,48.538L162.263,48.538L162.412,48.538L162.57,48.538L162.714,48.538L162.861,48.538L163.162,48.538L163.312,48.538L163.471,48.538L163.613,48.538L163.76,48.538L164.061,48.538L164.211,48.538L164.368,48.538L164.511,48.538L164.659,48.538L164.959,48.538L165.109,48.538L165.267,48.538L165.41,48.538L165.557,48.538L165.858,48.538L166.007,48.538L166.166,48.538L166.307,48.538L166.456,48.538L166.757,48.538L166.906,48.538L167.063,48.538L167.206,48.538L167.354,48.538L167.654,48.538L167.804,48.538L167.96,48.538L168.104,48.538L168.253,48.538L168.552,48.538L168.702,48.538L168.859,48.538L169.002,48.538L169.151,48.538L169.452,48.538L169.602,48.538L169.759,48.538L169.902,48.538L170.049,48.538L170.349,48.538L170.5,48.538L170.659,48.538L170.801,48.538L170.948,48.538L171.249,48.538L171.399,48.538L171.557,48.538L171.699,48.538L171.847,48.538L172.147,48.538L172.297,48.538L172.456,48.538L172.597,48.538L172.745,48.538L173.045,48.538L173.195,48.538L173.354,48.538L173.495,48.538L173.644,48.538L173.943,48.538L174.093,48.538L174.25,48.538L174.393,48.538L174.541,48.538L174.843,48.538L174.993,48.538L175.159,48.538L175.3,48.538L175.44,48.538L175.741,48.538L175.891,48.538L176.05,48.538L176.192,48.538L176.339,48.538L176.64,48.538L176.79,48.538L176.945,48.538L177.091,48.538L177.237,48.538L177.537,48.538L177.688,48.538L177.846,48.538L177.989,48.538L178.136,48.538L178.437,48.538L178.587,48.538L178.745,48.538L178.886,48.538L179.034,48.538L179.335,48.538L179.485,48.538L179.643,48.538L179.786,48.538L179.933,48.538L180.233,48.538L180.382,48.538L180.54,48.538L180.683,48.538L180.832,48.538L181.131,48.538L181.281,48.538L181.439,48.538L181.583,48.538L181.73,48.538L182.03,48.538L182.182,48.538L182.339,48.538L182.481,48.538L182.628,48.538L182.928,48.538L183.079,48.538L183.237,48.538L183.38,48.538L183.527,48.538L183.827,27L183.978,27L184.136,27L184.278,27L184.425,27L184.726,27L184.876,27L185.034,27L185.177,27L185.324,27L185.625,27L185.774,27L185.932,27L186.076,27L186.222,27L186.522,27L186.672,27L186.831,27L186.972,27L187.121,27L187.42,27L187.57,27L187.728,27L187.871,27L188.019,27L188.32,27L188.47,27L188.629,27L188.77,27L188.918,27L189.218,27L189.368,27L189.527,27L189.669,27L189.816,27L190.115,27L190.265,27L190.425,27L190.567,27L190.714,27L191.015,27L191.165,27L191.324,27L191.466,27L191.614,27L191.914,27L192.064,27L192.222,27L192.365,27L192.511,27L192.812,27L192.962,27L193.119,27L193.262,27L193.41,27L193.712,27L193.86,27L194.017,27L194.159,27L194.309,27L194.609,27L194.759,27L194.918,27L195.059,27L195.207,27L195.508,27L195.658,27L195.816,27L195.958,27L196.105,27L196.407,27L196.556,27L196.716,27L196.858,27L197.005,27L197.305,27L197.455,27L197.614,27L197.755,27L197.903,27L198.203,27L198.353,27L198.512,27L198.653,27L198.801,27L199.103,27L199.251,27L199.409,27L199.553,27L199.699,27L200,27" stroke="#4c78a8" stroke-width="2"/></g></g><path class="foreground" aria-hidden="true" d="" display="none"/></g><g transform="translate(0,0)"><path class="background" aria-hidden="true" d="M0,0h200v200h-200Z"/><g><g class="mark-line role-mark marks" role="graphics-object" aria-roledescription="line mark container"><path aria-label="Time: Jan 01, 2024; Price: 2499; identifier: altex-LG-F2WR508SBM" role="graphics-symbol" aria-roledescription="line mark" d="M0,7.769L0.094,7.769L0.236,7.769L0.536,7.769L0.686,7.769L0.843,7.769L0.986,7.769L1.135,7.769L1.434,7.769L1.584,7.769L1.742,7.769L1.885,7.769L2.033,7.769L2.333,7.769L2.483,7.769L2.64,7.769L2.784,7.769L2.932,7.769L3.232,27L3.381,27L3.539,27L3.683,27L3.83,27L4.13,27L4.28,27L4.436,27L4.58,27L4.729,27L5.029,27L5.178,27L5.335,27L5.479,27L5.627,27L5.927,27L6.078,27L6.235,27L6.378,27L6.525,27L6.826,27L6.976,27L7.135,27L7.277,27L7.424,27L7.725,27L7.874,27L8.032,27L8.175,27L8.323,27L8.623,27L8.773,27L8.931,27L9.074,27L9.221,27L9.521,27L9.671,27L9.829,27L9.972,27L10.12,27L10.419,38.538L10.569,38.538L10.726,38.538L10.87,38.538L11.018,38.538L11.318,38.538L11.467,38.538L11.624,38.538L11.768,38.538L11.916,38.538L12.217,38.538L12.367,38.538L12.525,38.538L12.668,38.538L12.815,38.538L13.115,38.538L13.266,38.538L13.423,38.538L13.567,38.538L13.713,38.538L14.014,38.538L14.164,38.538L14.322,38.538L14.465,38.538L14.612,38.538L14.912,38.538L15.062,38.538L15.22,38.538L15.363,38.538L15.511,38.538L15.811,38.538L15.961,38.538L16.118,38.538L16.262,38.538L16.409,38.538L16.709,38.538L16.858,38.538L17.015,38.538L17.16,38.538L17.308,38.538L17.607,38.538L17.757,38.538L17.914,38.538L18.058,38.538L18.206,38.538L18.507,38.538L18.657,38.538L18.815,38.538L18.957,38.538L19.104,38.538L19.405,38.538L19.555,38.538L19.713,38.538L19.856,38.538L20.003,38.538L20.303,38.538L20.454,38.538L20.611,38.538L20.754,38.538L20.901,38.538L21.202,38.538L21.352,38.538L21.51,38.538L21.654,38.538L21.8,38.538L22.1,38.538L22.25,38.538L22.405,38.538L22.549,38.538L22.699,38.538L22.998,38.538L23.148,38.538L23.302,38.538L23.447,38.538L23.597,38.538L23.896,38.538L24.046,38.538L24.201,38.538L24.346,38.538L24.495,38.538L24.795,38.538L24.945,38.538L25.1,38.538L25.244,38.538L25.394,38.538L25.693,38.538L25.843,38.538L25.999,38.538L26.145,38.538L26.292,38.538L26.592,38.538L26.741,38.538L26.897,38.538L27.041,38.538L27.191,38.538L27.49,27L27.64,27L27.796,27L27.939,27L28.089,27L28.389,27L28.538,27L28.694,27L28.838,27L28.988,27L29.287,27L29.437,27L29.591,27L29.736,27L29.887,27L30.186,27L30.336,27L30.49,27L30.635,27L30.784,27L31.084,27L31.234,27L31.39,27L31.534,27L31.683,27L31.983,27L32.132,27L32.288,27L32.432,27L32.582,27L32.881,27L33.031,27L33.186,27L33.331,27L33.48,27L33.78,27L33.93,27L34.085,27L34.229,27L34.378,27L34.678,27L34.828,27L34.983,27L35.128,27L35.277,27L35.576,27L35.726,27L35.881,27L36.026,27L36.176,27L36.476,27L36.625,27L36.779,27L36.924,27L37.074,27L37.374,27L37.523,27L37.68,27L37.823,27L37.972,27L38.272,27L38.422,27L38.577,27L38.723,27L38.871,27L39.17,27L39.32,27L39.476,27L39.62,27L39.769,27L40.219,27L40.374,27L40.518,27L40.668,27L40.968,27L41.117,27L41.273,27L41.418,27L41.566,27L41.866,27L42.015,27L42.17,27L42.315,27L42.465,27L42.764,27L42.915,27L43.069,27L43.214,27L43.363,27L43.663,27L43.813,27L43.969,27L44.114,27L44.262,27L44.562,27L44.711,27L44.866,27L45.011,27L45.161,27L45.46,27L45.61,27L45.766,27L45.91,27L46.059,27L46.358,27L46.508,27L46.664,27L46.808,27L46.958,27L47.257,27L47.407,27L47.562,27L47.706,27L47.857,27L48.155,27L48.305,27L48.459,27L48.604,27L48.754,27L49.054,27L49.204,27L49.358,27L49.504,27L49.653,27L49.952,27L50.102,27L50.258,27L50.402,27L50.551,27L50.851,27L51.001,27L51.156,27L51.301,27L51.45,27L51.749,27L51.899,27L52.054,27L52.199,27L52.348,27L52.648,27L52.797,27L52.952,27L53.097,27L53.246,27L53.546,27L53.696,27L53.852,27L53.996,27L54.145,27L54.445,27L54.594,27L54.75,27L54.894,27L55.044,27L55.343,27L55.493,27L55.647,27L55.792,27L55.942,27L56.255,27L56.46,27L56.549,27L56.692,27L56.841,27L57.14,27L57.29,27L57.446,27L57.59,27L57.739,27L58.038,27L58.189,27L58.345,27L58.489,27L58.637,27L58.937,27L59.087,27L59.242,38.538L59.386,38.538L59.536,38.538L59.836,38.538L59.987,38.538L60.141,38.538L60.285,38.538L60.434,38.538L60.734,38.538L60.884,38.538L61.038,38.538L61.184,38.538L61.333,38.538L61.632,38.538L61.783,38.538L61.936,38.538L62.082,38.538L62.231,38.538L62.532,38.538L62.681,38.538L62.837,38.538L62.981,38.538L63.13,38.538L63.43,38.538L63.579,38.538L63.735,38.538L63.88,38.538L64.028,38.538L64.328,38.538L64.479,38.538L64.634,38.538L64.777,38.538L64.927,38.538L65.226,38.538L65.376,38.538L65.533,38.538L65.676,38.538L65.825,38.538L66.125,38.538L66.276,38.538L66.43,38.538L66.575,38.538L66.724,38.538L67.023,38.538L67.174,38.538L67.328,38.538L67.473,38.538L67.623,38.538L67.922,38.538L68.073,38.538L68.226,38.538L68.371,38.538L68.521,38.538L68.82,38.538L68.97,38.538L69.127,38.538L69.271,38.538L69.42,38.538L69.719,38.538L69.869,38.538L70.024,38.538L70.17,38.538L70.318,38.538L70.617,38.538L70.767,38.538L70.923,38.538L71.068,38.538L71.217,38.538L71.516,38.538L71.666,38.538L71.822,38.538L71.967,38.538L72.115,38.538L72.414,38.538L72.564,38.538L72.72,38.538L72.864,38.538L73.013,38.538L73.313,38.538L73.462,38.538L73.618,38.538L73.762,38.538L73.912,38.538L74.211,38.538L74.361,38.538L74.517,38.538L74.66,38.538L74.81,38.538L75.11,38.538L75.26,38.538L75.416,38.538L75.56,38.538L75.709,38.538L76.008,38.538L76.159,38.538L76.314,38.538L76.459,38.538L76.607,38.538L76.908,38.538L77.057,38.538L77.213,38.538L77.358,38.538L77.506,38.538L77.805,38.538L77.955,38.538L78.111,38.538L78.255,38.538L78.404,38.538L78.704,38.538L78.853,38.538L79.01,38.538L79.154,38.538L79.303,38.538L79.602,38.538L79.752,38.538L79.906,38.538L80.052,38.538L80.202,38.538L80.501,38.538L80.651,38.538L80.806,38.538L80.951,38.538L81.1,38.538L81.399,38.538L81.55,38.538L81.706,38.538L81.851,38.538L81.998,38.538L82.298,38.538L82.448,38.538L82.604,38.538L82.748,38.538L82.896,38.538L83.196,38.538L83.346,38.538L83.502,38.538L83.647,38.538L83.795,38.538L84.095,38.538L84.245,38.538L84.401,38.538L84.545,38.538L84.694,38.538L84.994,38.538L85.299,38.538L85.443,38.538L85.593,38.538L85.892,38.538L86.042,38.538L86.196,38.538L86.341,38.538L86.49,38.538L86.79,38.538L86.94,38.538L87.095,38.538L87.239,38.538L87.389,38.538L87.689,38.538L87.838,38.538L87.995,38.538L88.139,38.538L88.287,38.538L88.587,38.538L88.737,38.538L88.893,38.538L89.037,38.538L89.186,38.538L89.485,38.538L89.636,38.538L89.792,38.538L89.937,38.538L90.085,38.538L90.385,38.538L90.535,38.538L90.69,38.538L90.983,38.538L91.283,38.538L91.433,38.538L91.588,38.538L91.732,38.538L91.881,38.538L92.181,38.538L92.33,38.538L92.483,38.538L92.63,38.538L92.78,38.538L93.093,38.538L93.323,38.538L93.464,38.538L93.755,38.538L93.98,38.538L94.128,38.538L94.282,38.538L94.427,38.538L94.577,38.538L94.876,38.538L95.026,38.538L95.183,38.538L95.325,38.538L95.475,38.538L95.775,38.538L95.924,38.538L96.081,38.538L96.226,38.538L96.374,38.538L96.823,38.538L96.979,38.538L97.123,38.538L97.273,38.538L97.572,38.538L97.722,38.538L97.878,38.538L98.022,38.538L98.171,38.538L98.47,38.538L98.62,38.538L98.775,38.538L98.92,38.538L99.069,38.538L99.369,38.538L99.519,38.538L99.674,38.538L99.818,38.538L99.968,38.538L100.267,38.538L100.418,38.538L100.574,38.538L100.717,38.538L100.866,38.538L101.166,38.538L101.316,38.538L101.473,38.538L101.616,38.538L101.765,38.538L102.064,38.538L102.215,38.538L102.375,38.538L102.514,38.538L102.664,38.538L102.963,38.538L103.113,38.538L103.265,38.538L103.412,38.538L103.562,38.538L103.861,38.538L104.012,38.538L104.168,38.538L104.311,38.538L104.461,38.538L104.76,38.538L104.909,38.538L105.064,38.538L105.209,38.538L105.358,38.538L105.658,38.538L105.808,38.538L105.964,38.538L106.107,38.538L106.257,38.538L106.556,38.538L106.708,38.538L106.864,38.538L107.007,38.538L107.156,38.538L107.455,38.538L107.606,38.538L107.762,38.538L107.906,38.538L108.054,38.538L108.353,38.538L108.506,38.538L108.661,38.538L108.803,38.538L108.952,38.538L109.253,38.538L109.402,38.538L109.56,38.538L109.702,38.538L109.852,38.538L110.151,38.538L110.3,38.538L110.457,38.538L110.601,38.538L110.75,38.538L111.049,38.538L111.199,38.538L111.355,38.538L111.498,38.538L111.648,38.538L111.948,38.538L112.098,38.538L112.253,38.538L112.397,38.538L112.546,38.538L112.846,38.538L112.997,38.538L113.154,38.538L113.297,38.538L113.445,38.538L113.744,38.538L113.895,38.538L114.051,30.846L114.195,30.846L114.344,30.846L114.643,30.846L114.793,30.846L114.952,30.846L115.095,30.846L115.242,30.846L115.542,30.846L115.693,30.846L115.848,30.846L115.994,30.846L116.141,30.846L116.44,30.846L116.59,30.846L116.748,30.846L116.89,30.846L117.039,30.846L117.338,30.846L117.488,30.846L117.644,30.846L117.788,30.846L117.937,30.846L118.237,30.846L118.387,30.846L118.543,30.846L118.686,30.846L118.836,30.846L119.136,30.846L119.286,30.846L119.444,30.846L119.586,30.846L119.735,30.846L120.034,30.846L120.185,30.846L120.342,30.846L120.485,30.846L120.633,30.846L120.933,30.846L121.083,30.846L121.241,30.846L121.383,30.846L121.532,30.846L121.831,30.846L121.981,30.846L122.139,30.846L122.281,30.846L122.43,30.846L122.729,30.846L122.879,30.846L123.037,30.846L123.18,30.846L123.328,30.846L123.628,30.846L123.778,30.846L123.935,30.846L124.077,30.846L124.227,30.846L124.527,30.846L124.676,30.846L124.833,30.846L124.977,30.846L125.125,30.846L125.426,30.846L125.575,30.846L125.733,30.846L125.876,30.846L126.024,30.846L126.323,30.846L126.474,30.846L126.632,30.846L126.774,30.846L126.923,30.846L127.222,30.846L127.373,30.846L127.53,38.538L127.673,38.538L127.82,38.538L128.12,38.538L128.27,38.538L128.428,38.538L128.572,38.538L128.719,38.538L129.02,38.538L129.169,38.538L129.327,38.538L129.469,38.538L129.618,38.538L129.918,38.538L130.067,38.538L130.224,38.538L130.367,38.538L130.516,38.538L130.816,38.538L130.965,38.538L131.122,38.538L131.265,38.538L131.416,38.538L131.715,38.538L131.865,38.538L132.023,38.538L132.165,38.538L132.313,38.538L132.616,38.538L132.764,38.538L132.921,38.538L133.063,38.538L133.211,38.538L133.513,38.538L133.662,38.538L133.819,38.538L133.962,38.538L134.11,38.538L134.412,38.538L134.56,38.538L134.718,38.538L134.86,38.538L135.008,38.538L135.31,30.846L135.459,30.846L135.616,30.846L135.759,30.846L135.907,30.846L136.207,30.846L136.356,30.846L136.513,30.846L136.657,30.846L136.805,30.846L137.106,30.846L137.255,30.846L137.412,30.846L137.555,30.846L137.704,30.846L138.005,30.846L138.155,30.846L138.313,30.846L138.455,30.846L138.603,30.846L138.902,30.846L139.053,30.846L139.211,30.846L139.354,30.846L139.501,30.846L139.802,30.846L139.951,30.846L140.109,30.846L140.252,30.846L140.399,30.846L140.699,30.846L140.85,30.846L141.008,30.846L141.15,30.846L141.298,30.846L141.598,30.846L141.749,30.846L141.907,30.846L142.05,30.846L142.197,30.846L142.496,30.846L142.645,30.846L142.803,30.846L142.947,30.846L143.095,30.846L143.395,30.846L143.544,30.846L143.702,30.846L143.845,30.846L143.993,30.846L144.295,30.846L144.444,30.846L144.602,30.846L144.744,30.846L144.892,30.846L145.193,30.846L145.343,30.846L145.501,30.846L145.643,30.846L145.791,30.846L146.091,30.846L146.241,34.692L146.399,34.692L146.541,34.692L146.689,34.692L146.989,34.692L147.139,34.692L147.297,34.692L147.441,34.692L147.588,34.692L147.887,34.692L148.037,34.692L148.196,40.077L148.338,40.077L148.486,40.077L148.787,40.077L148.937,40.077L149.093,40.077L149.236,40.077L149.385,40.077L149.684,40.077L149.834,40.077L149.992,40.077L150.134,40.077L150.283,40.077L150.584,40.077L150.734,40.077L150.892,40.077L151.033,40.077L151.181,40.077L151.481,40.077L151.632,40.077L151.79,40.077L151.932,40.077L152.08,40.077L152.38,40.077L152.53,40.077L152.689,40.077L152.831,40.077L152.978,40.077L153.278,40.077L153.429,40.077L153.586,40.077L153.731,40.077L153.877,40.077L154.178,40.077L154.327,40.077L154.485,40.077L154.627,40.077L154.775,40.077L155.075,40.077L155.225,40.077L155.384,40.077L155.525,40.077L155.673,40.077L155.974,40.077L156.123,40.077L156.28,40.077L156.423,40.077L156.572,40.077L156.873,40.077L157.023,40.077L157.181,40.077L157.323,40.077L157.47,40.077L157.771,40.077L157.921,40.077L158.079,40.077L158.37,40.077L158.67,40.077L158.82,40.077L158.978,40.077L159.12,40.077L159.268,40.077L159.569,40.077L159.719,40.077L159.876,40.077L160.019,40.077L160.166,40.077L160.466,40.077L160.617,40.077L160.775,40.077L160.916,40.077L161.065,40.077L161.365,40.077L161.515,40.077L161.672,40.077L161.815,40.077L161.963,40.077L162.263,40.077L162.412,40.077L162.57,40.077L162.714,40.077L162.861,40.077L163.162,40.077L163.312,40.077L163.471,40.077L163.613,40.077L163.76,40.077L164.061,40.077L164.211,40.077L164.368,40.077L164.511,40.077L164.659,40.077L164.959,40.077L165.109,40.077L165.267,40.077L165.41,40.077L165.557,40.077L165.858,40.077L166.007,40.077L166.166,40.077L166.307,40.077L166.456,40.077L166.757,40.077L166.906,40.077L167.063,40.077L167.206,40.077L167.354,40.077L167.655,40.077L167.804,40.077L167.96,40.077L168.104,40.077L168.253,40.077L168.552,40.077L168.702,40.077L168.859,40.077L169.002,40.077L169.151,40.077L169.452,40.077L169.602,40.077L169.759,40.077L169.902,40.077L170.049,40.077L170.349,40.077L170.5,40.077L170.659,40.077L170.801,40.077L170.948,40.077L171.249,40.077L171.399,40.077L171.557,40.077L171.699,40.077L171.847,40.077L172.147,40.077L172.297,40.077L172.456,40.077L172.597,40.077L172.745,40.077L173.045,40.077L173.195,40.077L173.354,40.077L173.495,40.077L173.644,40.077L173.943,40.077L174.093,40.077L174.25,40.077L174.393,40.077L174.542,40.077L174.843,40.077L174.993,40.077L175.159,40.077L175.3,40.077L175.44,40.077L175.741,40.077L175.891,40.077L176.05,40.077L176.192,40.077L176.339,40.077L176.64,40.077L176.79,40.077L176.945,40.077L177.091,40.077L177.237,40.077L177.537,40.077L177.688,40.077L177.846,40.077L177.989,40.077L178.136,40.077L178.437,40.077L178.587,40.077L178.745,40.077L178.886,40.077L179.034,40.077L179.335,40.077L179.485,40.077L179.643,40.077L179.786,40.077L179.933,40.077L180.234,40.077L180.382,40.077L180.54,40.077L180.683,40.077L180.832,40.077L181.131,40.077L181.281,40.077L181.439,40.077L181.583,40.077L181.73,40.077L182.031,40.077L182.182,40.077L182.339,40.077L182.481,40.077L182.628,40.077L182.928,40.077L183.079,40.077L183.237,40.077L183.38,40.077L183.527,40.077L183.827,40.077L183.978,40.077L184.136,40.077L184.278,40.077L184.425,40.077L184.727,40.077L184.876,40.077L185.034,40.077L185.177,40.077L185.324,40.077L185.625,40.077L185.774,40.077L185.932,40.077L186.076,40.077L186.222,40.077L186.522,40.077L186.672,40.077L186.831,40.077L186.972,40.077L187.121,40.077L187.42,40.077L187.57,40.077L187.728,40.077L187.871,40.077L188.019,40.077L188.32,40.077L188.47,40.077L188.629,40.077L188.77,40.077L188.918,40.077L189.218,40.077L189.368,40.077L189.527,40.077L189.669,40.077L189.816,40.077L190.115,40.077L190.265,40.077L190.426,40.077L190.567,40.077L190.714,40.077L191.015,40.077L191.166,40.077L191.324,40.077L191.466,40.077L191.614,40.077L191.914,40.077L192.064,40.077L192.222,40.077L192.365,40.077L192.511,40.077L192.812,40.077L192.962,40.077L193.119,40.077L193.262,40.077L193.41,40.077L193.712,40.077L193.86,40.077L194.017,40.077L194.159,40.077L194.309,40.077L194.609,40.077L194.76,40.077L194.918,40.077L195.059,40.077L195.208,40.077L195.508,40.077L195.658,40.077L195.816,40.077L195.958,40.077L196.105,40.077L196.407,40.077L196.556,40.077L196.716,40.077L196.858,40.077L197.005,40.077L197.305,40.077L197.455,40.077L197.614,40.077L197.755,40.077L197.903,40.077L198.203,40.077L198.353,40.077L198.512,40.077L198.654,40.077L198.801,40.077L199.103,40.077L199.251,40.077L199.409,40.077L199.553,40.077L199.699,40.077L200,40.077" stroke="#f58518" stroke-width="2"/></g></g><path class="foreground" aria-hidden="true" d="" display="none"/></g></g><g class="mark-group role-legend" role="graphics-symbol" aria-roledescription="legend" aria-label="Symbol legend titled 'identifier' for stroke color with 2 values: altex-LG-F2WR508SBW, altex-LG-F2WR508SBM"><g transform="translate(220,0)"><path class="background" aria-hidden="true" d="M0,0h168v40h-168Z" pointer-events="none"/><g><g class="mark-group role-legend-entry"><g transform="translate(0,16)"><path class="background" aria-hidden="true" d="M0,0h0v0h0Z" pointer-events="none"/><g><g class="mark-group role-scope" role="graphics-object" aria-roledescription="group mark container"><g transform="translate(0,0)"><path class="background" aria-hidden="true" d="M0,0h168v11h-168Z" pointer-events="none" opacity="1"/><g><g class="mark-symbol role-legend-symbol" pointer-events="none"><path transform="translate(6,6)" d="M-5,0L5,0" stroke="#4c78a8" stroke-width="1.5" opacity="1"/></g><g class="mark-text role-legend-label" pointer-events="none"><text text-anchor="start" transform="translate(16,9)" font-family="Liberation Mono" font-size="10px" fill="#000" opacity="1">altex-LG-F2WR508SBW</text></g></g><path class="foreground" aria-hidden="true" d="" pointer-events="none" display="none"/></g><g transform="translate(0,13)"><path class="background" aria-hidden="true" d="M0,0h168v11h-168Z" pointer-events="none" opacity="1"/><g><g class="mark-symbol role-legend-symbol" pointer-events="none"><path transform="translate(6,6)" d="M-5,0L5,0" stroke="#f58518" stroke-width="1.5" opacity="1"/></g><g class="mark-text role-legend-label" pointer-events="none"><text text-anchor="start" transform="translate(16,9)" font-family="Liberation Mono" font-size="10px" fill="#000" opacity="1">altex-LG-F2WR508SBM</text></g></g><path class="foreground" aria-hidden="true" d="" pointer-events="none" display="none"/></g></g></g><path class="foreground" aria-hidden="true" d="" pointer-events="none" display="none"/></g></g><g class="mark-text role-legend-title" pointer-events="none"><text text-anchor="start" transform="translate(0,9)" font-family="Liberation Mono" font-size="11px" font-weight="bold" fill="#000" opacity="1">identifier</text></g></g><path class="foreground" aria-hidden="true" d="" pointer-events="none" display="none"/></g></g></g><path class="foreground" aria-hidden="true" d="" display="none"/></g></g></g></svg>