<svg xmlns="http://www.w3.org/2000/svg" xmlns:xlink="http://www.w3.org/1999/xlink" version="1.1" class="marks" width="460" height="242" viewBox="0 0 460 242"><rect width="460" height="242" fill="white"/><g fill="none" stroke-miterlimit="10" transform="translate(67,5)"><g class="mark-group role-frame root" role="graphics-object" aria-roledescription="group mark container"><g transform="translate(0,0)"><path class="background" aria-hidden="true" d="M0.5,0.5h200v200h-200Z" stroke="#ddd"/><g><g class="mark-group role-axis" aria-hidden="true"><g transform="translate(0.5,200.5)"><path class="background" aria-hidden="true" d="M0,0h0v0h0Z" pointer-events="none"/><g><g class="mark-rule role-axis-grid" pointer-events="none"><line transform="translate(23,-200)" x2="0" y2="200" stroke="#ddd" stroke-width="1" opacity="1"/><line transform="translate(52,-200)" x2="0" y2="200" stroke="#ddd" stroke-width="1" opacity="1"/><line transform="translate(82,-200)" x2="0" y2="200" stroke="#ddd" stroke-width="1" opacity="1"/><line transform="translate(112,-200)" x2="0" y2="200" stroke="#ddd" stroke-width="1" opacity="1"/><line transform="translate(141,-200)" x2="0" y2="200" stroke="#ddd" stroke-width="1" opacity="1"/><line transform="translate(171,-200)" x2="0" y2="200" stroke="#ddd" stroke-width="1" opacity="1"/></g></g><path class="foreground" aria-hidden="true" d="" pointer-events="none" display="none"/></g></g><g class="mark-group role-axis" aria-hidden="true"><g transform="translate(0.5,0.5)"><path class="background" aria-hidden="true" d="M0,0h0v0h0Z" pointer-events="none"/><g><g class="mark-rule role-axis-grid" pointer-events="none"><line transform="translate(0,200)" x2="200" y2="0" stroke="#ddd" stroke-width="1" opacity="1"/><line transform="translate(0,162)" x2="200" y2="0" stroke="#ddd" stroke-width="1" opacity="1"/><line transform="translate(0,123)" x2="200" y2="0" stroke="#ddd" stroke-width="1" opacity="1"/><line transform="translate(0,85)" x2="200" y2="0" stroke="#ddd" stroke-width="1" opacity="1"/><line transform="translate(0,46)" x2="200" y2="0" stroke="#ddd" stroke-width="1" opacity="1"/><line transform="translate(0,8)" x2="200" y2="0" stroke="#ddd" stroke-width="1" opacity="1"/></g></g><path class="foreground" aria-hidden="true" d="" pointer-events="none" display="none"/></g></g><g class="mark-group role-axis" role="graphics-symbol" aria-roledescription="axis" aria-label="X-axis titled 'Time' for a time scale with values from Monday, 01 January 2024, 2:19:43 PM to Saturday, 17 February 2024, 8:38:15 PM"><g transform="translate(0.5,200.5)"><path class="background" aria-hidden="true" d="M0,0h0v0h0Z" pointer-events="none"/><g><g class="mark-rule role-axis-tick" pointer-events="none"><line transform="translate(23,0)" x2="0" y2="5" stroke="#888" stroke-width="1" opacity="1"/><line transform="translate(52,0)" x2="0" y2="5" stroke="#888" stroke-width="1" opacity="1"/><line transform="translate(82,0)" x2="0" y2="5" stroke="#888" stroke-width="1" opacity="1"/><line transform="translate(112,0)" x2="0" y2="5" stroke="#888" stroke-width="1" opacity="1"/><line transform="translate(141,0)" x2="0" y2="5" stroke="#888" stroke-width="1" opacity="1"/><line transform="translate(171,0)" x2="0" y2="5" stroke="#888" stroke-width="1" opacity="1"/></g><g class="mark-text role-axis-label" pointer-events="none"><text text-anchor="middle" transform="translate(22.863498405592395,15)" font-family="Liberation Mono" font-size="10px" fill="#000" opacity="1">Jan 07</text><text text-anchor="middle" transform="translate(52.48505758250622,15)" font-family="Liberation Mono" font-size="10px" fill="#000" opacity="0">Jan 14</text><text text-anchor="middle" transform="translate(82.10661675942005,15)" font-family="Liberation Mono" font-size="10px" fill="#000" opacity="1">Jan 21</text><text text-anchor="middle" transform="translate(111.72817593633388,15)" font-family="Liberation Mono" font-size="10px" fill="#000" opacity="0">Jan 28</text><text text-anchor="middle" transform="translate(141.3497351132477,15)" font-family="Liberation Mono" font-size="10px" fill="#000" opacity="1">Feb 04</text><text text-anchor="middle" transform="translate(170.97129429016152,15)" font-family="Liberation Mono" font-size="10px" fill="#000" opacity="0">Feb 11</text></g><g class="mark-rule role-axis-domain" pointer-events="none"><line transform="translate(0,0)" x2="200" y2="0" stroke="#888" stroke-width="1" opacity="1"/></g><g class="mark-text role-axis-title" pointer-events="none"><text text-anchor="middle" transform="translate(100,30)" font-family="Liberation Mono" font-size="11px" font-weight="bold" fill="#000" opacity="1">Time</text></g></g><path class="foreground" aria-hidden="true" d="" pointer-events="none" display="none"/></g></g><g class="mark-group role-axis" role="graphics-symbol" aria-roledescription="axis" aria-label="Y-axis titled 'Price' for a linear scale with values from 0 to 2,600"><g transform="translate(0.5,0.5)"><path class="background" aria-hidden="true" d="M0,0h0v0h0Z" pointer-events="none"/><g><g class="mark-rule role-axis-tick" pointer-events="none"><line transform="translate(0,200)" x2="-5" y2="0" stroke="#888" stroke-width="1" opacity="1"/><line transform="translate(0,162)" x2="-5" y2="0" stroke="#888" stroke-width="1" opacity="1"/><line transform="translate(0,123)" x2="-5" y2="0" stroke="#888" stroke-width="1" opacity="1"/><line transform="translate(0,85)" x2="-5" y2="0" stroke="#888" stroke-width="1" opacity="1"/><line transform="translate(0,46)" x2="-5" y2="0" stroke="#888" stroke-width="1" opacity="1"/><line transform="translate(0,8)" x2="-5" y2="0" stroke="#888" stroke-width="1" opacity="1"/></g><g class="mark-text role-axis-label" pointer-events="none"><text text-anchor="end" transform="translate(-7,203)" font-family="Liberation Mono" font-size="10px" fill="#000" opacity="1">0</text><text text-anchor="end" transform="translate(-7,164.53846153846155)" font-family="Liberation Mono" font-size="10px" fill="#000" opacity="1">500</text><text text-anchor="end" transform="translate(-7,126.07692307692308)" font-family="Liberation Mono" font-size="10px" fill="#000" opacity="1">1,000</text><text text-anchor="end" transform="translate(-7,87.61538461538463)" font-family="Liberation Mono" font-size="10px" fill="#000" opacity="1">1,500</text><text text-anchor="end" transform="translate(-7,49.153846153846146)" font-family="Liberation Mono" font-size="10px" fill="#000" opacity="1">2,000</text><text text-anchor="end" transform="translate(-7,10.692307692307686)" font-family="Liberation Mono" font-size="10px" fill="#000" opacity="1">2,500</text></g><g class="mark-rule role-axis-domain" pointer-events="none"><line transform="translate(0,200)" x2="0" y2="-200" stroke="#888" stroke-width="1" opacity="1"/></g><g class="mark-text role-axis-title" pointer-events="none"><text text-anchor="middle" transform="translate(-51,100) rotate(-90) translate(0,-2)" font-family="Liberation Mono" font-size="11px" font-weight="bold" fill="#000" opacity="1">Price</text></g></g><path class="foreground" aria-hidden="true" d="" pointer-events="none" display="none"/></g></g><g class="mark-group role-scope pathgroup" role="graphics-object" aria-roledescription="group mark container"><g transform="translate(0,0)"><path class="background" aria-hidden="true" d="M0,0h200v200h-200Z"/><g><g class="mark-line role-mark marks" role="graphics-object" aria-roledescription="line mark container"><path aria-label="Time: Jan 01, 2024; Price: 2399; identifier: altex-LG-F2WR508SBW" role="graphics-symbol" aria-roledescription="line mark" d="M0,15.462L0.443,15.462L1.113,15.462L2.524,15.462L3.23,15.462L3.971,15.462L4.645,15.462L5.344,15.462L6.756,15.462L7.461,15.462L8.203,15.462L8.878,15.462L9.575,15.462L10.987,15.462L11.694,15.462L12.434,15.462L13.114,15.462L13.808,15.462L15.221,34.692L15.926,34.692L16.666,34.692L17.344,34.692L18.039,34.692L19.451,34.692L20.156,34.692L20.895,34.692L21.572,34.692L22.271,34.692L23.686,34.692L24.387,34.692L25.126,34.692L25.804,34.692L26.502,34.692L27.917,34.692L28.624,34.692L29.366,34.692L30.041,34.692L30.733,34.692L32.15,34.692L32.854,34.692L33.605,34.692L34.274,34.692L34.966,34.692L36.381,34.692L37.087,34.692L37.829,34.692L38.502,34.692L39.198,34.692L40.612,34.692L41.317,34.692L42.062,34.692L42.737,34.692L43.429,34.692L44.843,34.692L45.549,34.692L46.29,34.692L46.966,34.692L47.661,34.692L49.072,46.231L49.777,46.231L50.516,46.231L51.194,46.231L51.892,46.231L53.307,46.231L54.008,46.231L54.747,46.231L55.424,46.231L56.124,46.231L57.539,46.231L58.246,46.231L58.991,46.231L59.664,46.231L60.356,46.231L61.769,46.231L62.478,46.231L63.22,46.231L63.896,46.231L64.587,46.231L66.001,46.231L66.709,46.231L67.453,46.231L68.126,46.231L68.819,46.231L70.232,46.231L70.938,46.231L71.682,46.231L72.355,46.231L73.052,46.231L74.465,46.231L75.171,46.231L75.914,46.231L76.59,46.231L77.282,46.231L78.696,46.231L79.398,46.231L80.138,46.231L80.818,46.231L81.515,46.231L82.925,46.231L83.63,46.231L84.369,46.231L85.047,46.231L85.746,46.231L87.163,46.231L87.87,46.231L88.614,46.231L89.284,46.231L89.978,46.231L91.392,46.231L92.101,46.231L92.844,46.231L93.519,46.231L94.209,46.231L95.625,46.231L96.331,46.231L97.075,46.231L97.749,46.231L98.441,46.231L99.858,46.231L100.561,46.231L101.307,46.231L101.983,46.231L102.672,46.231L104.085,46.231L104.792,46.231L105.524,46.231L106.2,46.231L106.906,46.231L108.314,46.231L109.021,46.231L109.746,46.231L110.43,46.231L111.134,46.231L112.547,46.231L113.252,46.231L113.979,46.231L114.662,46.231L115.367,46.231L116.778,46.231L117.485,46.231L118.217,46.231L118.895,46.231L119.6,46.231L121.008,46.231L121.714,46.231L122.448,46.231L123.135,46.231L123.83,46.231L125.24,46.231L125.946,46.231L126.681,46.231L127.357,46.231L128.062,46.231L129.472,34.692L130.178,34.692L130.913,34.692L131.588,34.692L132.293,34.692L133.705,34.692L134.409,34.692L135.143,34.692L135.819,34.692L136.525,34.692L137.936,34.692L138.642,34.692L139.369,34.692L140.052,34.692L140.759,34.692L142.171,34.692L142.874,34.692L143.6,34.692L144.283,34.692L144.988,34.692L146.399,34.692L147.107,34.692L147.841,34.692L148.517,34.692L149.22,34.692L150.631,34.692L151.336,34.692L152.071,34.692L152.748,34.692L153.452,34.692L154.862,34.692L155.569,34.692L156.301,34.692L156.983,34.692L157.684,34.692L159.094,34.692L159.801,34.692L160.533,34.692L161.213,34.692L161.915,34.692L163.327,34.692L164.033,34.692L164.762,34.692L165.443,34.692L166.149,34.692L167.557,34.692L168.262,34.692L168.992,34.692L169.673,34.692L170.379,34.692L171.792,34.692L172.495,34.692L173.222,34.692L173.905,34.692L174.61,34.692L176.022,34.692L176.726,34.692L177.463,34.692L178.138,34.692L178.842,34.692L180.251,34.692L180.958,34.692L181.69,34.692L182.379,34.692L183.074,34.692L184.484,34.692L185.19,34.692L185.924,34.692L186.602,34.692L187.304,34.692L189.421,34.692L190.155,34.692L190.833,34.692L191.538,34.692L192.948,34.692L193.653,34.692L194.387,34.692L195.068,34.692L195.769,34.692L197.181,34.692L197.884,34.692L198.611,34.692L199.295,34.692L200,34.692" stroke="#f58518" stroke-width="2"/></g></g><path class="foreground" aria-hidden="true" d="" display="none"/></g><g transform="translate(0,0)"><path class="background" aria-hidden="true" d="M0,0h200v200h-200Z"/><g><g class="mark-line role-mark marks" role="graphics-object" aria-roledescription="line mark container"><path aria-label="Time: Jan 01, 2024; Price: 2499; identifier: altex-LG-F2WR508SBM" role="graphics-symbol" aria-roledescription="line mark" d="M0,7.769L0.443,7.769L1.113,7.769L2.524,7.769L3.23,7.769L3.971,7.769L4.645,7.769L5.344,7.769L6.756,7.769L7.462,7.769L8.204,7.769L8.878,7.769L9.575,7.769L10.988,7.769L11.694,7.769L12.434,7.769L13.114,7.769L13.809,7.769L15.221,27L15.926,27L16.666,27L17.344,27L18.039,27L19.452,27L20.156,27L20.895,27L21.572,27L22.271,27L23.686,27L24.387,27L25.126,27L25.804,27L26.503,27L27.917,27L28.624,27L29.366,27L30.041,27L30.734,27L32.15,27L32.854,27L33.605,27L34.274,27L34.966,27L36.381,27L37.087,27L37.829,27L38.502,27L39.198,27L40.612,27L41.318,27L42.062,27L42.737,27L43.429,27L44.843,27L45.549,27L46.29,27L46.966,27L47.661,27L49.073,38.538L49.777,38.538L50.516,38.538L51.194,38.538L51.892,38.538L53.307,38.538L54.008,38.538L54.747,38.538L55.424,38.538L56.124,38.538L57.54,38.538L58.246,38.538L58.991,38.538L59.664,38.538L60.356,38.538L61.769,38.538L62.478,38.538L63.22,38.538L63.897,38.538L64.587,38.538L66.001,38.538L66.71,38.538L67.453,38.538L68.127,38.538L68.819,38.538L70.232,38.538L70.938,38.538L71.682,38.538L72.355,38.538L73.053,38.538L74.465,38.538L75.171,38.538L75.914,38.538L76.591,38.538L77.282,38.538L78.697,38.538L79.398,38.538L80.138,38.538L80.818,38.538L81.515,38.538L82.925,38.538L83.63,38.538L84.369,38.538L85.047,38.538L85.746,38.538L87.163,38.538L87.87,38.538L88.614,38.538L89.284,38.538L89.978,38.538L91.392,38.538L92.101,38.538L92.844,38.538L93.519,38.538L94.209,38.538L95.625,38.538L96.332,38.538L97.076,38.538L97.749,38.538L98.441,38.538L99.858,38.538L100.562,38.538L101.307,38.538L101.983,38.538L102.672,38.538L104.085,38.538L104.792,38.538L105.524,38.538L106.201,38.538L106.906,38.538L108.314,38.538L109.022,38.538L109.746,38.538L110.43,38.538L111.135,38.538L112.547,38.538L113.252,38.538L113.979,38.538L114.662,38.538L115.368,38.538L116.778,38.538L117.485,38.538L118.217,38.538L118.895,38.538L119.6,38.538L121.009,38.538L121.715,38.538L122.448,38.538L123.135,38.538L123.83,38.538L125.24,38.538L125.947,38.538L126.681,38.538L127.357,38.538L128.062,38.538L129.472,27L130.178,27L130.913,27L131.588,27L132.293,27L133.706,27L134.41,27L135.143,27L135.819,27L136.526,27L137.936,27L138.642,27L139.369,27L140.052,27L140.759,27L142.171,27L142.874,27L143.6,27L144.283,27L144.988,27L146.399,27L147.107,27L147.841,27L148.517,27L149.22,27L150.631,27L151.336,27L152.071,27L152.748,27L153.452,27L154.863,27L155.569,27L156.301,27L156.983,27L157.684,27L159.094,27L159.802,27L160.533,27L161.213,27L161.915,27L163.327,27L164.033,27L164.762,27L165.443,27L166.149,27L167.557,27L168.263,27L168.992,27L169.673,27L170.379,27L171.793,27L172.495,27L173.222,27L173.905,27L174.61,27L176.022,27L176.726,27L177.464,27L178.138,27L178.842,27L180.251,27L180.958,27L181.69,27L182.379,27L183.074,27L184.484,27L185.19,27L185.924,27L186.602,27L187.305,27L189.421,27L190.155,27L190.833,27L191.538,27L192.948,27L193.654,27L194.387,27L195.068,27L195.769,27L197.181,27L197.884,27L198.611,27L199.295,27L200,27" stroke="#4c78a8" stroke-width="2"/></g></g><path class="foreground" aria-hidden="true" d="" display="none"/></g></g><g class="mark-group role-legend" role="graphics-symbol" aria-roledescription="legend" aria-label="Symbol legend titled 'identifier' for stroke color with 2 values: altex-LG-F2WR508SBM, altex-LG-F2WR508SBW"><g transform="translate(220,0)"><path class="background" aria-hidden="true" d="M0,0h168v40h-168Z" pointer-events="none"/><g><g class="mark-group role-legend-entry"><g transform="translate(0,16)"><path class="background" aria-hidden="true" d="M0,0h0v0h0Z" pointer-events="none"/><g><g class="mark-group role-scope" role="graphics-object" aria-roledescription="group mark container"><g transform="translate(0,0)"><path class="background" aria-hidden="true" d="M0,0h168v11h-168Z" pointer-events="none" opacity="1"/><g><g class="mark-symbol role-legend-symbol" pointer-events="none"><path transform="translate(6,6)" d="M-5,0L5,0" stroke="#4c78a8" stroke-width="1.5" opacity="1"/></g><g class="mark-text role-legend-label" pointer-events="none"><text text-anchor="start" transform="translate(16,9)" font-family="Liberation Mono" font-size="10px" fill="#000" opacity="1">altex-LG-F2WR508SBM</text></g></g><path class="foreground" aria-hidden="true" d="" pointer-events="none" display="none"/></g><g transform="translate(0,13)"><path class="background" aria-hidden="true" d="M0,0h168v11h-168Z" pointer-events="none" opacity="1"/><g><g class="mark-symbol role-legend-symbol" pointer-events="none"><path transform="translate(6,6)" d="M-5,0L5,0" stroke="#f58518" stroke-width="1.5" opacity="1"/></g><g class="mark-text role-legend-label" pointer-events="none"><text text-anchor="start" transform="translate(16,9)" font-family="Liberation Mono" font-size="10px" fill="#000" opacity="1">altex-LG-F2WR508SBW</text></g></g><path class="foreground" aria-hidden="true" d="" pointer-events="none" display="none"/></g></g></g><path class="foreground" aria-hidden="true" d="" pointer-events="none" display="none"/></g></g><g class="mark-text role-legend-title" pointer-events="none"><text text-anchor="start" transform="translate(0,9)" font-family="Liberation Mono" font-size="11px" font-weight="bold" fill="#000" opacity="1">identifier</text></g></g><path class="foreground" aria-hidden="true" d="" pointer-events="none" display="none"/></g></g></g><path class="foreground" aria-hidden="true" d="" display="none"/></g></g></g></svg>