<svg xmlns="http://www.w3.org/2000/svg" xmlns:xlink="http://www.w3.org/1999/xlink" version="1.1" class="marks" width="460" height="242" viewBox="0 0 460 242"><rect width="460" height="242" fill="white"/><g fill="none" stroke-miterlimit="10" transform="translate(67,5)"><g class="mark-group role-frame root" role="graphics-object" aria-roledescription="group mark container"><g transform="translate(0,0)"><path class="background" aria-hidden="true" d="M0.5,0.5h200v200h-200Z" stroke="#ddd"/><g><g class="mark-group role-axis" aria-hidden="true"><g transform="translate(0.5,200.5)"><path class="background" aria-hidden="true" d="M0,0h0v0h0Z" pointer-events="none"/><g><g class="mark-rule role-axis-grid" pointer-events="none"><line transform="translate(27,-200)" x2="0" y2="200" stroke="#ddd" stroke-width="1" opacity="1"/><line transform="translate(52,-200)" x2="0" y2="200" stroke="#ddd" stroke-width="1" opacity="1"/><line transform="translate(80,-200)" x2="0" y2="200" stroke="#ddd" stroke-width="1" opacity="1"/><line transform="translate(106,-200)" x2="0" y2="200" stroke="#ddd" stroke-width="1" opacity="1"/><line transform="translate(133,-200)" x2="0" y2="200" stroke="#ddd" stroke-width="1" opacity="1"/><line transform="translate(160,-200)" x2="0" y2="200" stroke="#ddd" stroke-width="1" opacity="1"/><line transform="translate(187,-200)" x2="0" y2="200" stroke="#ddd" stroke-width="1" opacity="1"/></g></g><path class="foreground" aria-hidden="true" d="" pointer-events="none" display="none"/></g></g><g class="mark-group role-axis" aria-hidden="true"><g transform="translate(0.5,0.5)"><path class="background" aria-hidden="true" d="M0,0h0v0h0Z" pointer-events="none"/><g><g class="mark-rule role-axis-grid" pointer-events="none"><line transform="translate(0,200)" x2="200" y2="0" stroke="#ddd" stroke-width="1" opacity="1"/><line transform="translate(0,162)" x2="200" y2="0" stroke="#ddd" stroke-width="1" opacity="1"/><line transform="translate(0,123)" x2="200" y2="0" stroke="#ddd" stroke-width="1" opacity="1"/><line transform="translate(0,85)" x2="200" y2="0" stroke="#ddd" stroke-width="1" opacity="1"/><line transform="translate(0,46)" x2="200" y2="0" stroke="#ddd" stroke-width="1" opacity="1"/><line transform="translate(0,8)" x2="200" y2="0" stroke="#ddd" stroke-width="1" opacity="1"/></g></g><path class="foreground" aria-hidden="true" d="" pointer-events="none" display="none"/></g></g><g class="mark-group role-axis" role="graphics-symbol" aria-roledescription="axis" aria-label="X-axis titled 'Time' for a time scale with values from Monday, 01 January 2024, 2:19:43 PM to Thursday, 15 August 2024, 12:55:33 PM"><g transform="translate(0.5,200.5)"><path class="background" aria-hidden="true" d="M0,0h0v0h0Z" pointer-events="none"/><g><g class="mark-rule role-axis-tick" pointer-events="none"><line transform="translate(27,0)" x2="0" y2="5" stroke="#888" stroke-width="1" opacity="1"/><line transform="translate(52,0)" x2="0" y2="5" stroke="#888" stroke-width="1" opacity="1"/><line transform="translate(80,0)" x2="0" y2="5" stroke="#888" stroke-width="1" opacity="1"/><line transform="translate(106,0)" x2="0" y2="5" stroke="#888" stroke-width="1" opacity="1"/><line transform="translate(133,0)" x2="0" y2="5" stroke="#888" stroke-width="1" opacity="1"/><line transform="translate(160,0)" x2="0" y2="5" stroke="#888" stroke-width="1" opacity="1"/><line transform="translate(187,0)" x2="0" y2="5" stroke="#888" stroke-width="1" opacity="1"/></g><g class="mark-text role-axis-label" pointer-events="none"><text text-anchor="middle" transform="translate(26.793659449981817,15)" font-family="Liberation Mono" font-size="10px" fill="#000" opacity="1">February</text><text text-anchor="middle" transform="translate(52.350900850788726,15)" font-family="Liberation Mono" font-size="10px" fill="#000" opacity="0">March</text><text text-anchor="middle" transform="translate(79.67071062406508,15)" font-family="Liberation Mono" font-size="10px" fill="#000" opacity="1">April</text><text text-anchor="middle" transform="translate(106.1092362111067,15)" font-family="Liberation Mono" font-size="10px" fill="#000" opacity="0">May</text><text text-anchor="middle" transform="translate(133.42904598438307,15)" font-family="Liberation Mono" font-size="10px" fill="#000" opacity="1">June</text><text text-anchor="middle" transform="translate(159.86757157142472,15)" font-family="Liberation Mono" font-size="10px" fill="#000" opacity="0">July</text><text text-anchor="middle" transform="translate(187.18738134470107,15)" font-family="Liberation Mono" font-size="10px" fill="#000" opacity="1">August</text></g><g class="mark-rule role-axis-domain" pointer-events="none"><line transform="translate(0,0)" x2="200" y2="0" stroke="#888" stroke-width="1" opacity="1"/></g><g class="mark-text role-axis-title" pointer-events="none"><text text-anchor="middle" transform="translate(100,30)" font-family="Liberation Mono" font-size="11px" font-weight="bold" fill="#000" opacity="1">Time</text></g></g><path class="foreground" aria-hidden="true" d="" pointer-events="none" display="none"/></g></g><g class="mark-group role-axis" role="graphics-symbol" aria-roledescription="axis" aria-label="Y-axis titled 'Price' for a linear scale with values from 0 to 2,600"><g transform="translate(0.5,0.5)"><path class="background" aria-hidden="true" d="M0,0h0v0h0Z" pointer-events="none"/><g><g class="mark-rule role-axis-tick" pointer-events="none"><line transform="translate(0,200)" x2="-5" y2="0" stroke="#888" stroke-width="1" opacity="1"/><line transform="translate(0,162)" x2="-5" y2="0" stroke="#888" stroke-width="1" opacity="1"/><line transform="translate(0,123)" x2="-5" y2="0" stroke="#888" stroke-width="1" opacity="1"/><line transform="translate(0,85)" x2="-5" y2="0" stroke="#888" stroke-width="1" opacity="1"/><line transform="translate(0,46)" x2="-5" y2="0" stroke="#888" stroke-width="1" opacity="1"/><line transform="translate(0,8)" x2="-5" y2="0" stroke="#888" stroke-width="1" opacity="1"/></g><g class="mark-text role-axis-label" pointer-events="none"><text text-anchor="end" transform="translate(-7,203)" font-family="Liberation Mono" font-size="10px" fill="#000" opacity="1">0</text><text text-anchor="end" transform="translate(-7,164.53846153846155)" font-family="Liberation Mono" font-size="10px" fill="#000" opacity="1">500</text><text text-anchor="end" transform="translate(-7,126.07692307692308)" font-family="Liberation Mono" font-size="10px" fill="#000" opacity="1">1,000</text><text text-anchor="end" transform="translate(-7,87.61538461538463)" font-family="Liberation Mono" font-size="10px" fill="#000" opacity="1">1,500</text><text text-anchor="end" transform="translate(-7,49.153846153846146)" font-family="Liberation Mono" font-size="10px" fill="#000" opacity="1">2,000</text><text text-anchor="end" transform="translate(-7,10.692307692307686)" font-family="Liberation Mono" font-size="10px" fill="#000" opacity="1">2,500</text></g><g class="mark-rule role-axis-domain" pointer-events="none"><line transform="translate(0,200)" x2="0" y2="-200" stroke="#888" stroke-width="1" opacity="1"/></g><g class="mark-text role-axis-title" pointer-events="none"><text text-anchor="middle" transform="translate(-51,100) rotate(-90) translate(0,-2)" font-family="Liberation Mono" font-size="11px" font-weight="bold" fill="#000" opacity="1">Price</text></g></g><path class="foreground" aria-hidden="true" d="" pointer-events="none" display="none"/></g></g><g class="mark-group role-scope pathgroup" role="graphics-object" aria-roledescription="group mark container"><g transform="translate(0,0)"><path class="background" aria-hidden="true" d="M0,0h200v200h-200Z"/><g><g class="mark-line role-mark marks" role="graphics-object" aria-roledescription="line mark container"><path aria-label="Time: Jan 01, 2024; Price: 2399; identifier: altex-LG-F2WR508SBW" role="graphics-symbol" aria-roledescription="line mark" d="M0,15.462L0.092,15.462L0.232,15.462L0.526,15.462L0.673,15.462L0.827,15.462L0.967,15.462L1.113,15.462L1.407,15.462L1.554,15.462L1.708,15.462L1.849,15.462L1.994,15.462L2.288,15.462L2.435,15.462L2.589,15.462L2.731,15.462L2.876,15.462L3.17,34.692L3.317,34.692L3.471,34.692L3.612,34.692L3.757,34.692L4.051,34.692L4.198,34.692L4.352,34.692L4.493,34.692L4.638,34.692L4.933,34.692L5.079,34.692L5.233,34.692L5.374,34.692L5.519,34.692L5.814,34.692L5.961,34.692L6.116,34.692L6.256,34.692L6.401,34.692L6.696,34.692L6.842,34.692L6.999,34.692L7.138,34.692L7.282,34.692L7.577,34.692L7.724,34.692L7.878,34.692L8.018,34.692L8.163,34.692L8.458,34.692L8.605,34.692L8.76,34.692L8.9,34.692L9.045,34.692L9.339,34.692L9.486,34.692L9.64,34.692L9.781,34.692L9.926,34.692L10.22,46.231L10.366,46.231L10.52,46.231L10.662,46.231L10.807,46.231L11.102,46.231L11.248,46.231L11.402,46.231L11.543,46.231L11.688,46.231L11.983,46.231L12.13,46.231L12.285,46.231L12.426,46.231L12.57,46.231L12.864,46.231L13.012,46.231L13.166,46.231L13.307,46.231L13.451,46.231L13.745,46.231L13.893,46.231L14.048,46.231L14.188,46.231L14.332,46.231L14.627,46.231L14.774,46.231L14.929,46.231L15.069,46.231L15.214,46.231L15.508,46.231L15.655,46.231L15.81,46.231L15.951,46.231L16.095,46.231L16.389,46.231L16.535,46.231L16.69,46.231L16.831,46.231L16.976,46.231L17.27,46.231L17.417,46.231L17.571,46.231L17.712,46.231L17.857,46.231L18.153,46.231L18.3,46.231L18.455,46.231L18.594,46.231L18.739,46.231L19.033,46.231L19.181,46.231L19.336,46.231L19.476,46.231L19.62,46.231L19.915,46.231L20.062,46.231L20.217,46.231L20.357,46.231L20.501,46.231L20.796,46.231L20.943,46.231L21.098,46.231L21.239,46.231L21.383,46.231L21.677,46.231L21.824,46.231L21.976,46.231L22.117,46.231L22.264,46.231L22.558,46.231L22.705,46.231L22.856,46.231L22.998,46.231L23.145,46.231L23.439,46.231L23.586,46.231L23.737,46.231L23.88,46.231L24.026,46.231L24.32,46.231L24.467,46.231L24.62,46.231L24.761,46.231L24.908,46.231L25.201,46.231L25.348,46.231L25.501,46.231L25.644,46.231L25.789,46.231L26.083,46.231L26.23,46.231L26.383,46.231L26.523,46.231L26.67,46.231L26.964,34.692L27.111,34.692L27.264,34.692L27.405,34.692L27.551,34.692L27.846,34.692L27.992,34.692L28.145,34.692L28.286,34.692L28.433,34.692L28.727,34.692L28.874,34.692L29.025,34.692L29.167,34.692L29.315,34.692L29.609,34.692L29.755,34.692L29.906,34.692L30.048,34.692L30.195,34.692L30.489,34.692L30.637,34.692L30.789,34.692L30.93,34.692L31.077,34.692L31.37,34.692L31.517,34.692L31.67,34.692L31.811,34.692L31.958,34.692L32.252,34.692L32.399,34.692L32.551,34.692L32.693,34.692L32.839,34.692L33.133,34.692L33.28,34.692L33.433,34.692L33.574,34.692L33.72,34.692L34.014,34.692L34.161,34.692L34.313,34.692L34.455,34.692L34.602,34.692L34.895,34.692L35.042,34.692L35.194,34.692L35.336,34.692L35.483,34.692L35.778,34.692L35.924,34.692L36.075,34.692L36.218,34.692L36.364,34.692L36.658,34.692L36.805,34.692L36.959,34.692L37.099,34.692L37.246,34.692L37.539,34.692L37.686,34.692L37.839,34.692L37.982,34.692L38.127,34.692L38.421,34.692L38.568,34.692L38.721,34.692L38.862,34.692L39.008,34.692L39.449,34.692L39.602,34.692L39.743,34.692L39.89,34.692L40.183,34.692L40.33,34.692L40.483,34.692L40.625,34.692L40.771,34.692L41.065,34.692L41.211,34.692L41.363,34.692L41.505,34.692L41.652,34.692L41.946,34.692L42.093,34.692L42.244,34.692L42.387,34.692L42.533,34.692L42.827,34.692L42.975,34.692L43.127,34.692L43.27,34.692L43.415,34.692L43.709,34.692L43.855,34.692L44.008,34.692L44.15,34.692L44.296,34.692L44.59,34.692L44.737,34.692L44.89,34.692L45.031,34.692L45.177,34.692L45.471,34.692L45.618,34.692L45.771,34.692L45.912,34.692L46.059,34.692L46.352,34.692L46.499,34.692L46.651,34.692L46.793,34.692L46.941,34.692L47.234,34.692L47.38,34.692L47.532,34.692L47.674,34.692L47.821,34.692L48.115,34.692L48.262,34.692L48.413,34.692L48.556,34.692L48.702,34.692L48.996,34.692L49.143,34.692L49.296,34.692L49.437,34.692L49.583,34.692L49.877,34.692L50.024,34.692L50.177,34.692L50.319,34.692L50.465,34.692L50.759,34.692L50.906,34.692L51.058,34.692L51.2,34.692L51.346,34.692L51.64,34.692L51.787,34.692L51.939,34.692L52.08,34.692L52.227,34.692L52.521,34.692L52.669,34.692L52.821,34.692L52.962,34.692L53.109,34.692L53.403,34.692L53.549,34.692L53.702,34.692L53.843,34.692L53.99,34.692L54.284,34.692L54.431,34.692L54.582,34.692L54.724,34.692L54.871,34.692L55.179,34.692L55.379,34.692L55.467,34.692L55.607,34.692L55.753,34.692L56.046,34.692L56.193,34.692L56.347,34.692L56.487,34.692L56.634,34.692L56.928,34.692L57.076,34.692L57.228,34.692L57.369,34.692L57.515,34.692L57.809,34.692L57.956,34.692L58.108,34.692L58.25,34.692L58.397,34.692L58.69,34.692L58.839,34.692L58.99,34.692L59.131,34.692L59.278,34.692L59.572,34.692L59.719,34.692L59.869,34.692L60.013,34.692L60.159,34.692L60.453,34.692L60.601,34.692L60.751,34.692L60.894,34.692L61.04,34.692L61.335,34.692L61.481,34.692L61.634,34.692L61.776,34.692L61.922,34.692L62.215,34.692L62.362,34.692L62.515,34.692L62.657,34.692L62.803,34.692L63.097,34.692L63.245,34.692L63.397,34.692L63.537,34.692L63.684,34.692L63.978,34.692L64.125,34.692L64.278,34.692L64.419,34.692L64.565,34.692L64.859,34.692L65.007,34.692L65.159,34.692L65.3,34.692L65.447,34.692L65.741,34.692L65.888,34.692L66.04,34.692L66.181,34.692L66.329,34.692L66.622,34.692L66.77,34.692L66.921,34.692L67.062,34.692L67.209,34.692L67.503,34.692L67.65,34.692L67.804,34.692L67.945,34.692L68.091,34.692L68.385,34.692L68.531,34.692L68.684,34.692L68.827,34.692L68.972,34.692L69.266,34.692L69.413,34.692L69.565,34.692L69.708,34.692L69.854,34.692L70.147,34.692L70.294,34.692L70.447,34.692L70.59,34.692L70.735,34.692L71.028,34.692L71.175,34.692L71.328,34.692L71.469,34.692L71.616,34.692L71.91,34.692L72.056,34.692L72.209,34.692L72.35,34.692L72.497,34.692L72.791,34.692L72.938,34.692L73.091,34.692L73.231,34.692L73.378,34.692L73.672,34.692L73.819,34.692L73.972,34.692L74.113,34.692L74.259,34.692L74.553,34.692L74.701,34.692L74.853,34.692L74.995,34.692L75.141,34.692L75.436,34.692L75.582,34.692L75.735,34.692L75.877,34.692L76.022,34.692L76.316,34.692L76.463,34.692L76.616,34.692L76.757,34.692L76.903,34.692L77.198,34.692L77.344,34.692L77.498,34.692L77.639,34.692L77.785,34.692L78.078,34.692L78.225,34.692L78.377,34.692L78.52,34.692L78.667,34.692L78.96,34.692L79.107,34.692L79.259,34.692L79.401,34.692L79.547,34.692L79.841,34.692L79.989,34.692L80.142,34.692L80.284,34.692L80.428,34.692L80.723,34.692L80.87,34.692L81.023,34.692L81.165,34.692L81.31,34.692L81.603,34.692L81.751,34.692L81.904,34.692L82.046,34.692L82.191,34.692L82.485,34.692L82.632,34.692L82.785,34.692L82.926,34.692L83.073,34.692L83.367,34.692L83.666,34.692L83.808,34.692L83.954,34.692L84.248,34.692L84.395,34.692L84.546,34.692L84.688,34.692L84.835,34.692L85.129,34.692L85.276,34.692L85.428,34.692L85.569,34.692L85.716,34.692L86.01,34.692L86.157,34.692L86.31,34.692L86.452,34.692L86.598,34.692L86.891,34.692L87.038,34.692L87.192,34.692L87.333,34.692L87.479,34.692L87.773,34.692L87.92,34.692L88.073,34.692L88.216,34.692L88.361,34.692L88.655,34.692L88.802,34.692L88.954,34.692L89.242,34.692L89.536,34.692L89.683,34.692L89.835,34.692L89.976,34.692L90.123,34.692L90.416,34.692L90.563,34.692L90.713,34.692L90.857,34.692L91.004,34.692L91.311,34.692L91.537,34.692L91.675,34.692L91.96,34.692L92.181,34.692L92.326,34.692L92.477,34.692L92.62,34.692L92.767,34.692L93.06,34.692L93.207,34.692L93.361,34.692L93.501,34.692L93.648,34.692L93.941,34.692L94.088,34.692L94.242,34.692L94.384,34.692L94.529,34.692L94.97,34.692L95.123,34.692L95.264,34.692L95.411,34.692L95.704,34.692L95.851,34.692L96.004,34.692L96.146,34.692L96.292,34.692L96.586,34.692L96.732,34.692L96.885,34.692L97.026,34.692L97.173,34.692L97.467,34.692L97.614,34.692L97.766,34.692L97.908,34.692L98.054,34.692L98.348,34.692L98.496,34.692L98.649,34.692L98.79,34.692L98.935,34.692L99.229,34.692L99.376,34.692L99.531,34.692L99.671,34.692L99.817,34.692L100.11,34.692L100.259,34.692L100.416,34.692L100.552,34.692L100.699,34.692L100.992,34.692L101.139,34.692L101.289,34.692L101.433,34.692L101.58,34.692L101.873,34.692L102.021,34.692L102.174,34.692L102.315,34.692L102.461,34.692L102.755,34.692L102.901,34.692L103.053,34.692L103.195,34.692L103.342,34.692L103.636,34.692L103.783,34.692L103.936,34.692L104.076,34.692L104.223,34.692L104.517,34.692L104.666,34.692L104.818,34.692L104.958,34.692L105.105,34.692L105.398,34.692L105.546,34.692L105.7,34.692L105.84,34.692L105.986,34.692L106.28,34.692L106.429,34.692L106.581,34.692L106.721,34.692L106.867,34.692L107.162,57.769L107.308,57.769L107.463,57.769L107.602,57.769L107.749,57.769L108.043,57.769L108.189,57.769L108.343,57.769L108.484,57.769L108.63,57.769L108.923,57.769L109.07,57.769L109.223,57.769L109.364,57.769L109.511,57.769L109.805,57.769L109.952,57.769L110.105,57.769L110.246,57.769L110.392,57.769L110.686,57.769L110.834,57.769L110.988,57.769L111.129,57.769L111.273,57.769L111.567,57.769L111.715,57.769L111.868,57.769L112.009,57.769L112.155,57.769L112.449,57.769L112.596,57.769L112.752,57.769L112.892,57.769L113.036,57.769L113.331,34.692L113.479,34.692L113.631,34.692L113.774,34.692L113.918,34.692L114.211,34.692L114.358,34.692L114.513,34.692L114.653,34.692L114.799,34.692L115.092,34.692L115.239,34.692L115.392,34.692L115.533,34.692L115.68,34.692L115.974,34.692L116.121,34.692L116.274,34.692L116.415,34.692L116.562,34.692L116.856,34.692L117.003,34.692L117.157,34.692L117.297,34.692L117.443,34.692L117.736,34.692L117.884,34.692L118.039,34.692L118.179,34.692L118.324,34.692L118.618,34.692L118.765,34.692L118.92,34.692L119.06,34.692L119.205,34.692L119.499,34.692L119.647,34.692L119.801,34.692L119.941,34.692L120.086,34.692L120.38,34.692L120.527,34.692L120.682,34.692L120.822,34.692L120.967,34.692L121.261,34.692L121.409,34.692L121.563,34.692L121.702,34.692L121.849,34.692L122.144,34.692L122.29,34.692L122.443,34.692L122.584,34.692L122.731,34.692L123.026,34.692L123.171,34.692L123.327,34.692L123.466,34.692L123.612,34.692L123.905,34.692L124.053,34.692L124.208,34.692L124.347,34.692L124.493,34.692L124.787,34.692L124.935,34.692L125.089,34.692L125.229,34.692L125.374,34.692L125.668,34.692L125.815,34.692L125.97,34.692L126.111,34.692L126.255,34.692L126.551,34.692L126.697,34.692L126.851,34.692L126.991,34.692L127.137,34.692L127.431,34.692L127.578,34.692L127.731,34.692L127.872,34.692L128.018,34.692L128.313,34.692L128.458,34.692L128.612,34.692L128.753,34.692L128.9,34.692L129.193,34.692L129.341,34.692L129.496,34.692L129.636,34.692L129.78,34.692L130.077,34.692L130.222,34.692L130.377,34.692L130.516,34.692L130.662,34.692L130.957,34.692L131.104,34.692L131.258,34.692L131.398,34.692L131.543,34.692L131.839,34.692L131.985,34.692L132.139,34.692L132.279,34.692L132.424,34.692L132.72,34.692L132.866,34.692L133.021,34.692L133.16,34.692L133.306,34.692L133.6,34.692L133.747,34.692L133.9,34.692L134.041,34.692L134.187,34.692L134.481,34.692L134.628,34.692L134.781,34.692L134.922,34.692L135.068,34.692L135.363,34.692L135.51,34.692L135.666,34.692L135.805,34.692L135.95,34.692L136.244,34.692L136.392,34.692L136.546,34.692L136.687,34.692L136.831,34.692L137.126,34.692L137.273,34.692L137.428,34.692L137.567,34.692L137.712,34.692L138.006,34.692L138.154,34.692L138.309,34.692L138.448,34.692L138.593,34.692L138.888,34.692L139.035,34.692L139.191,34.692L139.331,34.692L139.475,34.692L139.769,34.692L139.915,34.692L140.07,34.692L140.211,34.692L140.356,34.692L140.65,34.692L140.796,34.692L140.951,34.692L141.091,34.692L141.237,34.692L141.533,34.692L141.68,34.692L141.835,34.692L141.974,34.692L142.118,34.692L142.414,34.692L142.561,34.692L142.716,34.692L142.855,34.692L143.001,34.692L143.294,34.692L143.442,46.231L143.597,46.231L143.736,46.231L143.881,46.231L144.176,46.231L144.323,46.231L144.478,46.231L144.619,46.231L144.763,46.231L145.057,46.231L145.204,46.231L145.359,48.538L145.498,48.538L145.644,48.538L145.939,48.538L146.086,48.538L146.239,48.538L146.379,48.538L146.525,48.538L146.819,48.538L146.967,48.538L147.121,48.538L147.261,48.538L147.406,48.538L147.702,48.538L147.849,48.538L148.004,48.538L148.143,48.538L148.288,48.538L148.582,48.538L148.73,48.538L148.885,48.538L149.024,48.538L149.169,48.538L149.463,48.538L149.611,48.538L149.766,48.538L149.905,48.538L150.05,48.538L150.344,48.538L150.492,48.538L150.647,48.538L150.788,48.538L150.931,48.538L151.227,48.538L151.373,48.538L151.528,48.538L151.667,48.538L151.813,48.538L152.106,48.538L152.254,48.538L152.41,48.538L152.548,48.538L152.694,48.538L152.988,48.538L153.135,48.538L153.289,48.538L153.429,48.538L153.575,48.538L153.87,48.538L154.017,48.538L154.172,48.538L154.311,48.538L154.456,48.538L154.751,48.538L154.899,48.538L155.053,48.538L155.339,48.538L155.633,48.538L155.78,48.538L155.935,48.538L156.074,48.538L156.219,48.538L156.515,48.538L156.661,48.538L156.816,48.538L156.956,48.538L157.101,48.538L157.395,48.538L157.543,48.538L157.698,48.538L157.836,48.538L157.982,48.538L158.277,48.538L158.423,48.538L158.577,48.538L158.718,48.538L158.863,48.538L159.157,48.538L159.304,48.538L159.459,48.538L159.599,48.538L159.744,48.538L160.039,48.538L160.187,48.538L160.342,48.538L160.482,48.538L160.625,48.538L160.921,48.538L161.068,48.538L161.222,48.538L161.362,48.538L161.507,48.538L161.801,48.538L161.949,48.538L162.104,48.538L162.244,48.538L162.388,48.538L162.683,48.538L162.83,48.538L162.985,48.538L163.124,48.538L163.27,48.538L163.565,48.538L163.711,48.538L163.866,48.538L164.006,48.538L164.15,48.538L164.446,48.538L164.592,48.538L164.746,48.538L164.887,48.538L165.032,48.538L165.326,48.538L165.473,48.538L165.627,48.538L165.767,48.538L165.914,48.538L166.209,48.538L166.356,48.538L166.51,48.538L166.65,48.538L166.795,48.538L167.089,48.538L167.237,48.538L167.393,48.538L167.532,48.538L167.676,48.538L167.971,48.538L168.118,48.538L168.273,48.538L168.412,48.538L168.557,48.538L168.852,48.538L168.999,48.538L169.155,48.538L169.293,48.538L169.438,48.538L169.733,48.538L169.88,48.538L170.036,48.538L170.175,48.538L170.32,48.538L170.614,48.538L170.76,48.538L170.915,48.538L171.055,48.538L171.201,48.538L171.497,48.538L171.644,48.538L171.807,48.538L171.945,48.538L172.082,48.538L172.378,48.538L172.524,48.538L172.68,48.538L172.82,48.538L172.964,48.538L173.259,48.538L173.406,48.538L173.559,48.538L173.701,48.538L173.845,48.538L174.139,48.538L174.287,48.538L174.442,48.538L174.582,48.538L174.726,48.538L175.022,48.538L175.168,48.538L175.324,48.538L175.462,48.538L175.607,48.538L175.903,48.538L176.049,48.538L176.205,48.538L176.345,48.538L176.489,48.538L176.784,48.538L176.93,48.538L177.084,48.538L177.225,48.538L177.371,48.538L177.664,48.538L177.811,48.538L177.966,48.538L178.107,48.538L178.251,48.538L178.546,48.538L178.695,48.538L178.849,48.538L178.988,48.538L179.132,48.538L179.427,48.538L179.575,48.538L179.73,48.538L179.87,48.538L180.014,48.538L180.308,27L180.456,27L180.612,27L180.751,27L180.895,27L181.191,27L181.338,27L181.492,27L181.632,27L181.777,27L182.072,27L182.218,27L182.373,27L182.514,27L182.658,27L182.952,27L183.099,27L183.255,27L183.393,27L183.539,27L183.833,27L183.98,27L184.135,27L184.275,27L184.42,27L184.715,27L184.863,27L185.018,27L185.157,27L185.302,27L185.596,27L185.743,27L185.899,27L186.038,27L186.182,27L186.476,27L186.623,27L186.781,27L186.919,27L187.064,27L187.359,27L187.507,27L187.662,27L187.801,27L187.946,27L188.241,27L188.388,27L188.543,27L188.683,27L188.827,27L189.121,27L189.268,27L189.422,27L189.563,27L189.708,27L190.004,27L190.149,27L190.304,27L190.443,27L190.59,27L190.884,27L191.032,27L191.188,27L191.326,27L191.471,27L191.766,27L191.913,27L192.068,27L192.207,27L192.352,27L192.647,27L192.794,27L192.95,27L193.09,27L193.234,27L193.529,27L193.676,27L193.831,27L193.97,27L194.115,27L194.41,27L194.557,27L194.712,27L194.851,27L194.996,27L195.292,27L195.437,27L195.592,27L195.734,27L195.877,27L196.172,27L196.318,27L196.474,27L196.613,27L196.759,27L197.054,27L197.201,27L197.358,27L197.496,27L197.64,27L197.934,27L198.082,27L198.238,27L198.377,27L198.521,27L198.816,27L198.964,27L199.119,27L199.259,27L199.402,27L199.697,27L199.844,27L200,27" stroke="#4c78a8" stroke-width="2"/></g></g><path class="foreground" aria-hidden="true" d="" display="none"/></g><g transform="translate(0,0)"><path class="background" aria-hidden="true" d="M0,0h200v200h-200Z"/><g><g class="mark-line role-mark marks" role="graphics-object" aria-roledescription="line mark container"><path aria-label="Time: Jan 01, 2024; Price: 2499; identifier: altex-LG-F2WR508SBM" role="graphics-symbol" aria-roledescription="line mark" d="M0,7.769L0.092,7.769L0.232,7.769L0.526,7.769L0.673,7.769L0.827,7.769L0.967,7.769L1.113,7.769L1.407,7.769L1.554,7.769L1.709,7.769L1.849,7.769L1.994,7.769L2.288,7.769L2.435,7.769L2.59,7.769L2.731,7.769L2.876,7.769L3.17,27L3.317,27L3.471,27L3.612,27L3.757,27L4.051,27L4.198,27L4.352,27L4.493,27L4.638,27L4.933,27L5.079,27L5.233,27L5.374,27L5.519,27L5.814,27L5.961,27L6.116,27L6.256,27L6.401,27L6.696,27L6.842,27L6.999,27L7.138,27L7.282,27L7.577,27L7.724,27L7.878,27L8.018,27L8.163,27L8.458,27L8.605,27L8.76,27L8.9,27L9.045,27L9.339,27L9.486,27L9.64,27L9.781,27L9.926,27L10.22,38.538L10.367,38.538L10.52,38.538L10.662,38.538L10.807,38.538L11.102,38.538L11.248,38.538L11.402,38.538L11.543,38.538L11.688,38.538L11.983,38.538L12.13,38.538L12.285,38.538L12.426,38.538L12.57,38.538L12.864,38.538L13.012,38.538L13.166,38.538L13.307,38.538L13.451,38.538L13.745,38.538L13.893,38.538L14.048,38.538L14.188,38.538L14.332,38.538L14.627,38.538L14.774,38.538L14.929,38.538L15.069,38.538L15.214,38.538L15.508,38.538L15.655,38.538L15.81,38.538L15.951,38.538L16.095,38.538L16.389,38.538L16.535,38.538L16.69,38.538L16.831,38.538L16.976,38.538L17.27,38.538L17.417,38.538L17.571,38.538L17.712,38.538L17.857,38.538L18.153,38.538L18.3,38.538L18.455,38.538L18.594,38.538L18.739,38.538L19.033,38.538L19.181,38.538L19.336,38.538L19.476,38.538L19.62,38.538L19.915,38.538L20.062,38.538L20.217,38.538L20.357,38.538L20.501,38.538L20.796,38.538L20.943,38.538L21.098,38.538L21.239,38.538L21.383,38.538L21.677,38.538L21.824,38.538L21.976,38.538L22.117,38.538L22.264,38.538L22.558,38.538L22.705,38.538L22.856,38.538L22.998,38.538L23.145,38.538L23.439,38.538L23.586,38.538L23.737,38.538L23.88,38.538L24.026,38.538L24.32,38.538L24.468,38.538L24.62,38.538L24.761,38.538L24.908,38.538L25.201,38.538L25.348,38.538L25.501,38.538L25.644,38.538L25.789,38.538L26.083,38.538L26.23,38.538L26.383,38.538L26.523,38.538L26.67,38.538L26.964,27L27.111,27L27.264,27L27.405,27L27.551,27L27.846,27L27.992,27L28.145,27L28.286,27L28.433,27L28.727,27L28.874,27L29.025,27L29.167,27L29.315,27L29.609,27L29.755,27L29.906,27L30.048,27L30.195,27L30.489,27L30.637,27L30.789,27L30.93,27L31.077,27L31.37,27L31.517,27L31.67,27L31.811,27L31.958,27L32.252,27L32.399,27L32.551,27L32.693,27L32.839,27L33.133,27L33.28,27L33.433,27L33.574,27L33.72,27L34.014,27L34.161,27L34.313,27L34.455,27L34.602,27L34.896,27L35.042,27L35.194,27L35.336,27L35.483,27L35.778,27L35.924,27L36.075,27L36.218,27L36.364,27L36.658,27L36.805,27L36.959,27L37.099,27L37.246,27L37.539,27L37.686,27L37.839,27L37.982,27L38.127,27L38.421,27L38.568,27L38.721,27L38.862,27L39.008,27L39.449,27L39.602,27L39.743,27L39.89,27L40.183,27L40.33,27L40.483,27L40.625,27L40.771,27L41.065,27L41.211,27L41.363,27L41.505,27L41.652,27L41.946,27L42.093,27L42.244,27L42.387,27L42.533,27L42.827,27L42.975,27L43.128,27L43.27,27L43.415,27L43.709,27L43.855,27L44.008,27L44.15,27L44.296,27L44.59,27L44.737,27L44.89,27L45.031,27L45.178,27L45.471,27L45.618,27L45.771,27L45.912,27L46.059,27L46.352,27L46.499,27L46.651,27L46.793,27L46.941,27L47.234,27L47.38,27L47.532,27L47.674,27L47.821,27L48.115,27L48.262,27L48.413,27L48.556,27L48.702,27L48.996,27L49.144,27L49.296,27L49.437,27L49.584,27L49.877,27L50.024,27L50.177,27L50.319,27L50.465,27L50.759,27L50.906,27L51.058,27L51.2,27L51.346,27L51.64,27L51.787,27L51.939,27L52.08,27L52.227,27L52.521,27L52.669,27L52.821,27L52.962,27L53.109,27L53.403,27L53.55,27L53.702,27L53.843,27L53.99,27L54.284,27L54.431,27L54.582,27L54.724,27L54.871,27L55.179,27L55.379,27L55.467,27L55.607,27L55.753,27L56.046,27L56.193,27L56.347,27L56.487,27L56.634,27L56.928,27L57.076,27L57.228,27L57.369,27L57.515,27L57.809,27L57.956,27L58.109,38.538L58.25,38.538L58.397,38.538L58.69,38.538L58.839,38.538L58.99,38.538L59.131,38.538L59.278,38.538L59.572,38.538L59.719,38.538L59.869,38.538L60.013,38.538L60.159,38.538L60.453,38.538L60.601,38.538L60.751,38.538L60.894,38.538L61.04,38.538L61.335,38.538L61.481,38.538L61.634,38.538L61.776,38.538L61.922,38.538L62.216,38.538L62.362,38.538L62.515,38.538L62.657,38.538L62.803,38.538L63.097,38.538L63.245,38.538L63.397,38.538L63.537,38.538L63.684,38.538L63.978,38.538L64.125,38.538L64.278,38.538L64.419,38.538L64.565,38.538L64.859,38.538L65.007,38.538L65.159,38.538L65.3,38.538L65.447,38.538L65.741,38.538L65.888,38.538L66.04,38.538L66.181,38.538L66.329,38.538L66.622,38.538L66.77,38.538L66.921,38.538L67.062,38.538L67.209,38.538L67.503,38.538L67.65,38.538L67.804,38.538L67.945,38.538L68.091,38.538L68.385,38.538L68.531,38.538L68.684,38.538L68.827,38.538L68.972,38.538L69.266,38.538L69.413,38.538L69.566,38.538L69.708,38.538L69.854,38.538L70.147,38.538L70.294,38.538L70.447,38.538L70.59,38.538L70.735,38.538L71.028,38.538L71.175,38.538L71.328,38.538L71.469,38.538L71.616,38.538L71.91,38.538L72.056,38.538L72.209,38.538L72.35,38.538L72.497,38.538L72.791,38.538L72.938,38.538L73.091,38.538L73.231,38.538L73.378,38.538L73.672,38.538L73.819,38.538L73.972,38.538L74.113,38.538L74.26,38.538L74.553,38.538L74.701,38.538L74.853,38.538L74.995,38.538L75.141,38.538L75.436,38.538L75.582,38.538L75.735,38.538L75.877,38.538L76.022,38.538L76.316,38.538L76.463,38.538L76.616,38.538L76.757,38.538L76.903,38.538L77.198,38.538L77.344,38.538L77.498,38.538L77.639,38.538L77.785,38.538L78.078,38.538L78.225,38.538L78.377,38.538L78.52,38.538L78.667,38.538L78.96,38.538L79.108,38.538L79.259,38.538L79.401,38.538L79.547,38.538L79.841,38.538L79.989,38.538L80.142,38.538L80.284,38.538L80.428,38.538L80.723,38.538L80.87,38.538L81.023,38.538L81.165,38.538L81.31,38.538L81.604,38.538L81.751,38.538L81.904,38.538L82.046,38.538L82.191,38.538L82.485,38.538L82.632,38.538L82.785,38.538L82.926,38.538L83.073,38.538L83.368,38.538L83.666,38.538L83.808,38.538L83.954,38.538L84.248,38.538L84.395,38.538L84.546,38.538L84.688,38.538L84.835,38.538L85.129,38.538L85.276,38.538L85.428,38.538L85.569,38.538L85.716,38.538L86.01,38.538L86.157,38.538L86.311,38.538L86.452,38.538L86.598,38.538L86.891,38.538L87.038,38.538L87.192,38.538L87.333,38.538L87.479,38.538L87.773,38.538L87.92,38.538L88.073,38.538L88.216,38.538L88.361,38.538L88.655,38.538L88.802,38.538L88.954,38.538L89.242,38.538L89.536,38.538L89.683,38.538L89.835,38.538L89.976,38.538L90.123,38.538L90.416,38.538L90.563,38.538L90.713,38.538L90.857,38.538L91.004,38.538L91.311,38.538L91.537,38.538L91.675,38.538L91.96,38.538L92.181,38.538L92.326,38.538L92.477,38.538L92.62,38.538L92.767,38.538L93.061,38.538L93.207,38.538L93.361,38.538L93.501,38.538L93.648,38.538L93.942,38.538L94.088,38.538L94.242,38.538L94.384,38.538L94.529,38.538L94.97,38.538L95.123,38.538L95.264,38.538L95.411,38.538L95.704,38.538L95.851,38.538L96.004,38.538L96.146,38.538L96.292,38.538L96.586,38.538L96.732,38.538L96.885,38.538L97.026,38.538L97.173,38.538L97.467,38.538L97.614,38.538L97.766,38.538L97.908,38.538L98.054,38.538L98.348,38.538L98.496,38.538L98.649,38.538L98.79,38.538L98.936,38.538L99.229,38.538L99.376,38.538L99.531,38.538L99.671,38.538L99.817,38.538L100.11,38.538L100.259,38.538L100.416,38.538L100.552,38.538L100.699,38.538L100.992,38.538L101.14,38.538L101.289,38.538L101.433,38.538L101.58,38.538L101.873,38.538L102.021,38.538L102.174,38.538L102.315,38.538L102.461,38.538L102.755,38.538L102.901,38.538L103.053,38.538L103.195,38.538L103.342,38.538L103.636,38.538L103.783,38.538L103.936,38.538L104.076,38.538L104.223,38.538L104.517,38.538L104.666,38.538L104.818,38.538L104.958,38.538L105.105,38.538L105.398,38.538L105.546,38.538L105.7,38.538L105.84,38.538L105.986,38.538L106.28,38.538L106.429,38.538L106.581,38.538L106.721,38.538L106.867,38.538L107.162,38.538L107.308,38.538L107.463,38.538L107.602,38.538L107.749,38.538L108.043,38.538L108.189,38.538L108.343,38.538L108.484,38.538L108.63,38.538L108.924,38.538L109.07,38.538L109.223,38.538L109.364,38.538L109.511,38.538L109.805,38.538L109.952,38.538L110.105,38.538L110.246,38.538L110.392,38.538L110.686,38.538L110.834,38.538L110.988,38.538L111.129,38.538L111.273,38.538L111.567,38.538L111.715,38.538L111.868,30.846L112.009,30.846L112.155,30.846L112.449,30.846L112.596,30.846L112.752,30.846L112.892,30.846L113.036,30.846L113.331,30.846L113.479,30.846L113.631,30.846L113.774,30.846L113.918,30.846L114.211,30.846L114.358,30.846L114.513,30.846L114.653,30.846L114.799,30.846L115.093,30.846L115.239,30.846L115.392,30.846L115.533,30.846L115.68,30.846L115.974,30.846L116.121,30.846L116.275,30.846L116.415,30.846L116.562,30.846L116.856,30.846L117.003,30.846L117.157,30.846L117.297,30.846L117.443,30.846L117.736,30.846L117.884,30.846L118.039,30.846L118.179,30.846L118.324,30.846L118.618,30.846L118.765,30.846L118.92,30.846L119.06,30.846L119.205,30.846L119.499,30.846L119.647,30.846L119.801,30.846L119.941,30.846L120.086,30.846L120.38,30.846L120.527,30.846L120.682,30.846L120.822,30.846L120.967,30.846L121.261,30.846L121.409,30.846L121.563,30.846L121.702,30.846L121.849,30.846L122.144,30.846L122.29,30.846L122.443,30.846L122.584,30.846L122.731,30.846L123.026,30.846L123.171,30.846L123.327,30.846L123.466,30.846L123.612,30.846L123.905,30.846L124.053,30.846L124.208,30.846L124.347,30.846L124.493,30.846L124.787,30.846L124.935,30.846L125.089,38.538L125.229,38.538L125.374,38.538L125.668,38.538L125.815,38.538L125.97,38.538L126.111,38.538L126.255,38.538L126.551,38.538L126.697,38.538L126.851,38.538L126.991,38.538L127.137,38.538L127.431,38.538L127.578,38.538L127.731,38.538L127.872,38.538L128.018,38.538L128.313,38.538L128.459,38.538L128.612,38.538L128.753,38.538L128.9,38.538L129.194,38.538L129.341,38.538L129.496,38.538L129.636,38.538L129.78,38.538L130.077,38.538L130.223,38.538L130.377,38.538L130.517,38.538L130.662,38.538L130.957,38.538L131.104,38.538L131.258,38.538L131.398,38.538L131.543,38.538L131.839,38.538L131.985,38.538L132.139,38.538L132.279,38.538L132.424,38.538L132.72,30.846L132.866,30.846L133.021,30.846L133.16,30.846L133.306,30.846L133.6,30.846L133.747,30.846L133.9,30.846L134.041,30.846L134.187,30.846L134.481,30.846L134.628,30.846L134.781,30.846L134.922,30.846L135.068,30.846L135.363,30.846L135.51,30.846L135.666,30.846L135.805,30.846L135.951,30.846L136.244,30.846L136.392,30.846L136.546,30.846L136.687,30.846L136.831,30.846L137.126,30.846L137.273,30.846L137.428,30.846L137.567,30.846L137.712,30.846L138.006,30.846L138.154,30.846L138.309,30.846L138.448,30.846L138.593,30.846L138.888,30.846L139.036,30.846L139.191,30.846L139.331,30.846L139.475,30.846L139.769,30.846L139.915,30.846L140.07,30.846L140.211,30.846L140.356,30.846L140.65,30.846L140.796,30.846L140.951,30.846L141.091,30.846L141.237,30.846L141.533,30.846L141.68,30.846L141.835,30.846L141.974,30.846L142.118,30.846L142.414,30.846L142.561,30.846L142.716,30.846L142.855,30.846L143.001,30.846L143.294,30.846L143.442,34.692L143.597,34.692L143.736,34.692L143.881,34.692L144.176,34.692L144.323,34.692L144.478,34.692L144.619,34.692L144.763,34.692L145.057,34.692L145.204,34.692L145.359,40.077L145.498,40.077L145.644,40.077L145.939,40.077L146.086,40.077L146.239,40.077L146.379,40.077L146.525,40.077L146.819,40.077L146.967,40.077L147.121,40.077L147.261,40.077L147.406,40.077L147.702,40.077L147.849,40.077L148.004,40.077L148.143,40.077L148.288,40.077L148.582,40.077L148.73,40.077L148.885,40.077L149.024,40.077L149.169,40.077L149.463,40.077L149.611,40.077L149.766,40.077L149.906,40.077L150.05,40.077L150.344,40.077L150.492,40.077L150.647,40.077L150.788,40.077L150.931,40.077L151.227,40.077L151.373,40.077L151.528,40.077L151.667,40.077L151.813,40.077L152.106,40.077L152.254,40.077L152.41,40.077L152.548,40.077L152.694,40.077L152.988,40.077L153.135,40.077L153.289,40.077L153.429,40.077L153.575,40.077L153.87,40.077L154.017,40.077L154.172,40.077L154.312,40.077L154.456,40.077L154.751,40.077L154.899,40.077L155.053,40.077L155.339,40.077L155.633,40.077L155.78,40.077L155.935,40.077L156.074,40.077L156.219,40.077L156.515,40.077L156.662,40.077L156.816,40.077L156.956,40.077L157.101,40.077L157.395,40.077L157.543,40.077L157.698,40.077L157.836,40.077L157.982,40.077L158.277,40.077L158.423,40.077L158.577,40.077L158.718,40.077L158.863,40.077L159.157,40.077L159.304,40.077L159.459,40.077L159.599,40.077L159.744,40.077L160.039,40.077L160.187,40.077L160.342,40.077L160.482,40.077L160.625,40.077L160.921,40.077L161.068,40.077L161.222,40.077L161.362,40.077L161.507,40.077L161.801,40.077L161.949,40.077L162.104,40.077L162.244,40.077L162.388,40.077L162.683,40.077L162.83,40.077L162.985,40.077L163.124,40.077L163.27,40.077L163.565,40.077L163.711,40.077L163.866,40.077L164.006,40.077L164.151,40.077L164.446,40.077L164.592,40.077L164.746,40.077L164.887,40.077L165.032,40.077L165.326,40.077L165.473,40.077L165.627,40.077L165.767,40.077L165.914,40.077L166.209,40.077L166.356,40.077L166.51,40.077L166.65,40.077L166.795,40.077L167.089,40.077L167.237,40.077L167.393,40.077L167.532,40.077L167.676,40.077L167.971,40.077L168.119,40.077L168.273,40.077L168.413,40.077L168.557,40.077L168.852,40.077L168.999,40.077L169.155,40.077L169.293,40.077L169.438,40.077L169.733,40.077L169.88,40.077L170.036,40.077L170.175,40.077L170.32,40.077L170.614,40.077L170.76,40.077L170.915,40.077L171.055,40.077L171.201,40.077L171.497,40.077L171.644,40.077L171.807,40.077L171.945,40.077L172.082,40.077L172.378,40.077L172.524,40.077L172.68,40.077L172.82,40.077L172.964,40.077L173.259,40.077L173.406,40.077L173.559,40.077L173.701,40.077L173.845,40.077L174.139,40.077L174.287,40.077L174.442,40.077L174.582,40.077L174.726,40.077L175.022,40.077L175.168,40.077L175.324,40.077L175.463,40.077L175.607,40.077L175.903,40.077L176.049,40.077L176.205,40.077L176.345,40.077L176.489,40.077L176.784,40.077L176.93,40.077L177.084,40.077L177.225,40.077L177.371,40.077L177.664,40.077L177.811,40.077L177.966,40.077L178.107,40.077L178.251,40.077L178.546,40.077L178.695,40.077L178.849,40.077L178.988,40.077L179.132,40.077L179.427,40.077L179.575,40.077L179.73,40.077L179.87,40.077L180.014,40.077L180.308,40.077L180.456,40.077L180.612,40.077L180.751,40.077L180.895,40.077L181.191,40.077L181.338,40.077L181.492,40.077L181.632,40.077L181.777,40.077L182.072,40.077L182.218,40.077L182.373,40.077L182.514,40.077L182.658,40.077L182.952,40.077L183.099,40.077L183.255,40.077L183.393,40.077L183.54,40.077L183.833,40.077L183.98,40.077L184.135,40.077L184.276,40.077L184.42,40.077L184.715,40.077L184.863,40.077L185.018,40.077L185.157,40.077L185.302,40.077L185.596,40.077L185.743,40.077L185.899,40.077L186.038,40.077L186.183,40.077L186.477,40.077L186.623,40.077L186.781,40.077L186.919,40.077L187.064,40.077L187.359,40.077L187.507,40.077L187.662,40.077L187.801,40.077L187.946,40.077L188.241,40.077L188.388,40.077L188.543,40.077L188.683,40.077L188.827,40.077L189.121,40.077L189.268,40.077L189.422,40.077L189.563,40.077L189.708,40.077L190.004,40.077L190.149,40.077L190.304,40.077L190.443,40.077L190.59,40.077L190.884,40.077L191.032,40.077L191.188,40.077L191.326,40.077L191.471,40.077L191.766,40.077L191.913,40.077L192.068,40.077L192.207,40.077L192.352,40.077L192.647,40.077L192.794,40.077L192.95,40.077L193.09,40.077L193.234,40.077L193.529,40.077L193.676,40.077L193.831,40.077L193.97,40.077L194.115,40.077L194.41,40.077L194.557,40.077L194.712,40.077L194.851,40.077L194.996,40.077L195.292,40.077L195.437,40.077L195.592,40.077L195.734,40.077L195.877,40.077L196.172,40.077L196.318,40.077L196.474,40.077L196.613,40.077L196.759,40.077L197.054,40.077L197.201,40.077L197.358,40.077L197.496,40.077L197.64,40.077L197.934,40.077L198.082,40.077L198.238,40.077L198.377,40.077L198.521,40.077L198.816,40.077L198.964,40.077L199.119,40.077L199.259,40.077L199.402,40.077L199.697,40.077L199.845,40.077L200,40.077" stroke="#f58518" stroke-width="2"/></g></g><path class="foreground" aria-hidden="true" d="" display="none"/></g></g><g class="mark-group role-legend" role="graphics-symbol" aria-roledescription="legend" aria-label="Symbol legend titled 'identifier' for stroke color with 2 values: altex-LG-F2WR508SBW, altex-LG-F2WR508SBM"><g transform="translate(220,0)"><path class="background" aria-hidden="true" d="M0,0h168v40h-168Z" pointer-events="none"/><g><g class="mark-group role-legend-entry"><g transform="translate(0,16)"><path class="background" aria-hidden="true" d="M0,0h0v0h0Z" pointer-events="none"/><g><g class="mark-group role-scope" role="graphics-object" aria-roledescription="group mark container"><g transform="translate(0,0)"><path class="background" aria-hidden="true" d="M0,0h168v11h-168Z" pointer-events="none" opacity="1"/><g><g class="mark-symbol role-legend-symbol" pointer-events="none"><path transform="translate(6,6)" d="M-5,0L5,0" stroke="#4c78a8" stroke-width="1.5" opacity="1"/></g><g class="mark-text role-legend-label" pointer-events="none"><text text-anchor="start" transform="translate(16,9)" font-family="Liberation Mono" font-size="10px" fill="#000" opacity="1">altex-LG-F2WR508SBW</text></g></g><path class="foreground" aria-hidden="true" d="" pointer-events="none" display="none"/></g><g transform="translate(0,13)"><path class="background" aria-hidden="true" d="M0,0h168v11h-168Z" pointer-events="none" opacity="1"/><g><g class="mark-symbol role-legend-symbol" pointer-events="none"><path transform="translate(6,6)" d="M-5,0L5,0" stroke="#f58518" stroke-width="1.5" opacity="1"/></g><g class="mark-text role-legend-label" pointer-events="none"><text text-anchor="start" transform="translate(16,9)" font-family="Liberation Mono" font-size="10px" fill="#000" opacity="1">altex-LG-F2WR508SBM</text></g></g><path class="foreground" aria-hidden="true" d="" pointer-events="none" display="none"/></g></g></g><path class="foreground" aria-hidden="true" d="" pointer-events="none" display="none"/></g></g><g class="mark-text role-legend-title" pointer-events="none"><text text-anchor="start" transform="translate(0,9)" font-family="Liberation Mono" font-size="11px" font-weight="bold" fill="#000" opacity="1">identifier</text></g></g><path class="foreground" aria-hidden="true" d="" pointer-events="none" display="none"/></g></g></g><path class="foreground" aria-hidden="true" d="" display="none"/></g></g></g></svg>