<svg xmlns="http://www.w3.org/2000/svg" xmlns:xlink="http://www.w3.org/1999/xlink" version="1.1" class="marks" width="460" height="242" viewBox="0 0 460 242"><rect width="460" height="242" fill="white"/><g fill="none" stroke-miterlimit="10" transform="translate(67,5)"><g class="mark-group role-frame root" role="graphics-object" aria-roledescription="group mark container"><g transform="translate(0,0)"><path class="background" aria-hidden="true" d="M0.5,0.5h200v200h-200Z" stroke="#ddd"/><g><g class="mark-group role-axis" aria-hidden="true"><g transform="translate(0.5,200.5)"><path class="background" aria-hidden="true" d="M0,0h0v0h0Z" pointer-events="none"/><g><g class="mark-rule role-axis-grid" pointer-events="none"><line transform="translate(44,-200)" x2="0" y2="200" stroke="#ddd" stroke-width="1" opacity="1"/><line transform="translate(88,-200)" x2="0" y2="200" stroke="#ddd" stroke-width="1" opacity="1"/><line transform="translate(132,-200)" x2="0" y2="200" stroke="#ddd" stroke-width="1" opacity="1"/><line transform="translate(177,-200)" x2="0" y2="200" stroke="#ddd" stroke-width="1" opacity="1"/></g></g><path class="foreground" aria-hidden="true" d="" pointer-events="none" display="none"/></g></g><g class="mark-group role-axis" aria-hidden="true"><g transform="translate(0.5,0.5)"><path class="background" aria-hidden="true" d="M0,0h0v0h0Z" pointer-events="none"/><g><g class="mark-rule role-axis-grid" pointer-events="none"><line transform="translate(0,200)" x2="200" y2="0" stroke="#ddd" stroke-width="1" opacity="1"/><line transform="translate(0,162)" x2="200" y2="0" stroke="#ddd" stroke-width="1" opacity="1"/><line transform="translate(0,123)" x2="200" y2="0" stroke="#ddd" stroke-width="1" opacity="1"/><line transform="translate(0,85)" x2="200" y2="0" stroke="#ddd" stroke-width="1" opacity="1"/><line transform="translate(0,46)" x2="200" y2="0" stroke="#ddd" stroke-width="1" opacity="1"/><line transform="translate(0,8)" x2="200" y2="0" stroke="#ddd" stroke-width="1" opacity="1"/></g></g><path class="foreground" aria-hidden="true" d="" pointer-events="none" display="none"/></g></g><g class="mark-group role-axis" role="graphics-symbol" aria-roledescription="axis" aria-label="X-axis titled 'Time' for a time scale with values from Monday, 01 January 2024, 2:19:43 PM to Monday, 17 February 2025, 1:01:01 PM"><g transform="translate(0.5,200.5)"><path class="background" aria-hidden="true" d="M0,0h0v0h0Z" pointer-events="none"/><g><g class="mark-rule role-axis-tick" pointer-events="none"><line transform="translate(44,0)" x2="0" y2="5" stroke="#888" stroke-width="1" opacity="1"/><line transform="translate(88,0)" x2="0" y2="5" stroke="#888" stroke-width="1" opacity="1"/><line transform="translate(132,0)" x2="0" y2="5" stroke="#888" stroke-width="1" opacity="1"/><line transform="translate(177,0)" x2="0" y2="5" stroke="#888" stroke-width="1" opacity="1"/></g><g class="mark-text role-axis-label" pointer-events="none"><text text-anchor="middle" transform="translate(43.78447345091203,15)" font-family="Liberation Mono" font-size="10px" fill="#000" opacity="1">April</text><text text-anchor="middle" transform="translate(87.85810228503863,15)" font-family="Liberation Mono" font-size="10px" fill="#000" opacity="1">July</text><text text-anchor="middle" transform="translate(132.41605671074902,15)" font-family="Liberation Mono" font-size="10px" fill="#000" opacity="1">October</text><text text-anchor="middle" transform="translate(176.97401113645944,15)" font-family="Liberation Mono" font-size="10px" fill="#000" opacity="1">2025</text></g><g class="mark-rule role-axis-domain" pointer-events="none"><line transform="translate(0,0)" x2="200" y2="0" stroke="#888" stroke-width="1" opacity="1"/></g><g class="mark-text role-axis-title" pointer-events="none"><text text-anchor="middle" transform="translate(100,30)" font-family="Liberation Mono" font-size="11px" font-weight="bold" fill="#000" opacity="1">Time</text></g></g><path class="foreground" aria-hidden="true" d="" pointer-events="none" display="none"/></g></g><g class="mark-group role-axis" role="graphics-symbol" aria-roledescription="axis" aria-label="Y-axis titled 'Price' for a linear scale with values from 0 to 2,600"><g transform="translate(0.5,0.5)"><path class="background" aria-hidden="true" d="M0,0h0v0h0Z" pointer-events="none"/><g><g class="mark-rule role-axis-tick" pointer-events="none"><line transform="translate(0,200)" x2="-5" y2="0" stroke="#888" stroke-width="1" opacity="1"/><line transform="translate(0,162)" x2="-5" y2="0" stroke="#888" stroke-width="1" opacity="1"/><line transform="translate(0,123)" x2="-5" y2="0" stroke="#888" stroke-width="1" opacity="1"/><line transform="translate(0,85)" x2="-5" y2="0" stroke="#888" stroke-width="1" opacity="1"/><line transform="translate(0,46)" x2="-5" y2="0" stroke="#888" stroke-width="1" opacity="1"/><line transform="translate(0,8)" x2="-5" y2="0" stroke="#888" stroke-width="1" opacity="1"/></g><g class="mark-text role-axis-label" pointer-events="none"><text text-anchor="end" transform="translate(-7,203)" font-family="Liberation Mono" font-size="10px" fill="#000" opacity="1">0</text><text text-anchor="end" transform="translate(-7,164.53846153846155)" font-family="Liberation Mono" font-size="10px" fill="#000" opacity="1">500</text><text text-anchor="end" transform="translate(-7,126.07692307692308)" font-family="Liberation Mono" font-size="10px" fill="#000" opacity="1">1,000</text><text text-anchor="end" transform="translate(-7,87.61538461538463)" font-family="Liberation Mono" font-size="10px" fill="#000" opacity="1">1,500</text><text text-anchor="end" transform="translate(-7,49.153846153846146)" font-family="Liberation Mono" font-size="10px" fill="#000" opacity="1">2,000</text><text text-anchor="end" transform="translate(-7,10.692307692307686)" font-family="Liberation Mono" font-size="10px" fill="#000" opacity="1">2,500</text></g><g class="mark-rule role-axis-domain" pointer-events="none"><line transform="translate(0,200)" x2="0" y2="-200" stroke="#888" stroke-width="1" opacity="1"/></g><g class="mark-text role-axis-title" pointer-events="none"><text text-anchor="middle" transform="translate(-51,100) rotate(-90) translate(0,-2)" font-family="Liberation Mono" font-size="11px" font-weight="bold" fill="#000" opacity="1">Price</text></g></g><path class="foreground" aria-hidden="true" d="" pointer-events="none" display="none"/></g></g><g class="mark-group role-scope pathgroup" role="graphics-object" aria-roledescription="group mark container"><g transform="translate(0,0)"><path class="background" aria-hidden="true" d="M0,0h200v200h-200Z"/><g><g class="mark-line role-mark marks" role="graphics-object" aria-roledescription="line mark container"><path aria-label="Time: Jan 01, 2024; Price: 2399; identifier: altex-LG-F2WR508SBW" role="graphics-symbol" aria-roledescription="line mark" d="M0,15.462L0.051,15.462L0.127,15.462L0.289,15.462L0.37,15.462L0.455,15.462L0.532,15.462L0.612,15.462L0.773,15.462L0.854,15.462L0.939,15.462L1.016,15.462L1.096,15.462L1.258,15.462L1.338,15.462L1.423,15.462L1.501,15.462L1.58,15.462L1.742,34.692L1.823,34.692L1.907,34.692L1.985,34.692L2.065,34.692L2.226,34.692L2.307,34.692L2.391,34.692L2.469,34.692L2.549,34.692L2.711,34.692L2.791,34.692L2.876,34.692L2.953,34.692L3.033,34.692L3.195,34.692L3.276,34.692L3.361,34.692L3.438,34.692L3.518,34.692L3.68,34.692L3.76,34.692L3.846,34.692L3.923,34.692L4.002,34.692L4.164,34.692L4.245,34.692L4.33,34.692L4.407,34.692L4.486,34.692L4.648,34.692L4.729,34.692L4.814,34.692L4.891,34.692L4.971,34.692L5.132,34.692L5.213,34.692L5.298,34.692L5.375,34.692L5.455,34.692L5.616,46.231L5.697,46.231L5.782,46.231L5.859,46.231L5.939,46.231L6.101,46.231L6.181,46.231L6.266,46.231L6.343,46.231L6.424,46.231L6.586,46.231L6.666,46.231L6.752,46.231L6.829,46.231L6.908,46.231L7.07,46.231L7.151,46.231L7.236,46.231L7.313,46.231L7.392,46.231L7.554,46.231L7.635,46.231L7.72,46.231L7.797,46.231L7.877,46.231L8.038,46.231L8.119,46.231L8.204,46.231L8.281,46.231L8.361,46.231L8.523,46.231L8.604,46.231L8.689,46.231L8.766,46.231L8.845,46.231L9.007,46.231L9.087,46.231L9.172,46.231L9.25,46.231L9.33,46.231L9.491,46.231L9.572,46.231L9.656,46.231L9.734,46.231L9.814,46.231L9.976,46.231L10.057,46.231L10.142,46.231L10.219,46.231L10.298,46.231L10.46,46.231L10.541,46.231L10.626,46.231L10.704,46.231L10.782,46.231L10.945,46.231L11.025,46.231L11.111,46.231L11.188,46.231L11.267,46.231L11.429,46.231L11.51,46.231L11.595,46.231L11.672,46.231L11.751,46.231L11.913,46.231L11.994,46.231L12.078,46.231L12.155,46.231L12.236,46.231L12.397,46.231L12.478,46.231L12.561,46.231L12.639,46.231L12.72,46.231L12.881,46.231L12.962,46.231L13.045,46.231L13.123,46.231L13.204,46.231L13.366,46.231L13.447,46.231L13.53,46.231L13.608,46.231L13.689,46.231L13.85,46.231L13.931,46.231L14.015,46.231L14.093,46.231L14.173,46.231L14.334,46.231L14.415,46.231L14.499,46.231L14.576,46.231L14.657,46.231L14.819,34.692L14.899,34.692L14.983,34.692L15.061,34.692L15.141,34.692L15.303,34.692L15.384,34.692L15.467,34.692L15.545,34.692L15.626,34.692L15.787,34.692L15.868,34.692L15.951,34.692L16.029,34.692L16.11,34.692L16.272,34.692L16.352,34.692L16.435,34.692L16.514,34.692L16.594,34.692L16.756,34.692L16.837,34.692L16.921,34.692L16.998,34.692L17.079,34.692L17.24,34.692L17.321,34.692L17.405,34.692L17.482,34.692L17.563,34.692L17.724,34.692L17.805,34.692L17.889,34.692L17.967,34.692L18.047,34.692L18.209,34.692L18.29,34.692L18.373,34.692L18.451,34.692L18.532,34.692L18.693,34.692L18.774,34.692L18.858,34.692L18.935,34.692L19.016,34.692L19.177,34.692L19.258,34.692L19.342,34.692L19.42,34.692L19.5,34.692L19.662,34.692L19.743,34.692L19.826,34.692L19.904,34.692L19.985,34.692L20.146,34.692L20.227,34.692L20.311,34.692L20.388,34.692L20.469,34.692L20.63,34.692L20.711,34.692L20.795,34.692L20.874,34.692L20.953,34.692L21.115,34.692L21.196,34.692L21.28,34.692L21.357,34.692L21.438,34.692L21.68,34.692L21.764,34.692L21.841,34.692L21.922,34.692L22.084,34.692L22.164,34.692L22.248,34.692L22.326,34.692L22.406,34.692L22.568,34.692L22.648,34.692L22.732,34.692L22.81,34.692L22.891,34.692L23.052,34.692L23.133,34.692L23.216,34.692L23.294,34.692L23.375,34.692L23.536,34.692L23.617,34.692L23.701,34.692L23.78,34.692L23.859,34.692L24.021,34.692L24.102,34.692L24.185,34.692L24.263,34.692L24.344,34.692L24.505,34.692L24.586,34.692L24.67,34.692L24.748,34.692L24.828,34.692L24.989,34.692L25.07,34.692L25.154,34.692L25.232,34.692L25.312,34.692L25.474,34.692L25.554,34.692L25.638,34.692L25.716,34.692L25.797,34.692L25.958,34.692L26.039,34.692L26.122,34.692L26.2,34.692L26.281,34.692L26.442,34.692L26.523,34.692L26.606,34.692L26.685,34.692L26.765,34.692L26.927,34.692L27.008,34.692L27.091,34.692L27.169,34.692L27.25,34.692L27.411,34.692L27.492,34.692L27.576,34.692L27.653,34.692L27.734,34.692L27.895,34.692L27.976,34.692L28.06,34.692L28.138,34.692L28.218,34.692L28.38,34.692L28.46,34.692L28.544,34.692L28.622,34.692L28.702,34.692L28.864,34.692L28.945,34.692L29.029,34.692L29.106,34.692L29.187,34.692L29.348,34.692L29.429,34.692L29.513,34.692L29.59,34.692L29.671,34.692L29.833,34.692L29.913,34.692L29.997,34.692L30.075,34.692L30.156,34.692L30.324,34.692L30.435,34.692L30.483,34.692L30.56,34.692L30.64,34.692L30.801,34.692L30.882,34.692L30.966,34.692L31.044,34.692L31.124,34.692L31.286,34.692L31.367,34.692L31.451,34.692L31.528,34.692L31.608,34.692L31.77,34.692L31.851,34.692L31.935,34.692L32.012,34.692L32.093,34.692L32.254,34.692L32.336,34.692L32.419,34.692L32.496,34.692L32.577,34.692L32.739,34.692L32.819,34.692L32.902,34.692L32.981,34.692L33.061,34.692L33.223,34.692L33.304,34.692L33.387,34.692L33.465,34.692L33.546,34.692L33.708,34.692L33.788,34.692L33.872,34.692L33.95,34.692L34.03,34.692L34.192,34.692L34.272,34.692L34.356,34.692L34.434,34.692L34.514,34.692L34.676,34.692L34.757,34.692L34.841,34.692L34.918,34.692L34.999,34.692L35.16,34.692L35.241,34.692L35.325,34.692L35.403,34.692L35.483,34.692L35.644,34.692L35.726,34.692L35.809,34.692L35.887,34.692L35.967,34.692L36.129,34.692L36.21,34.692L36.293,34.692L36.371,34.692L36.452,34.692L36.613,34.692L36.694,34.692L36.777,34.692L36.855,34.692L36.936,34.692L37.097,34.692L37.178,34.692L37.263,34.692L37.341,34.692L37.421,34.692L37.582,34.692L37.663,34.692L37.747,34.692L37.825,34.692L37.905,34.692L38.066,34.692L38.147,34.692L38.231,34.692L38.309,34.692L38.389,34.692L38.551,34.692L38.632,34.692L38.716,34.692L38.794,34.692L38.873,34.692L39.035,34.692L39.116,34.692L39.2,34.692L39.277,34.692L39.358,34.692L39.519,34.692L39.6,34.692L39.684,34.692L39.761,34.692L39.842,34.692L40.004,34.692L40.084,34.692L40.168,34.692L40.246,34.692L40.326,34.692L40.488,34.692L40.569,34.692L40.653,34.692L40.73,34.692L40.811,34.692L40.972,34.692L41.053,34.692L41.137,34.692L41.215,34.692L41.295,34.692L41.457,34.692L41.538,34.692L41.622,34.692L41.7,34.692L41.779,34.692L41.941,34.692L42.022,34.692L42.106,34.692L42.183,34.692L42.264,34.692L42.425,34.692L42.506,34.692L42.59,34.692L42.668,34.692L42.748,34.692L42.909,34.692L42.99,34.692L43.073,34.692L43.152,34.692L43.233,34.692L43.394,34.692L43.475,34.692L43.558,34.692L43.636,34.692L43.717,34.692L43.878,34.692L43.959,34.692L44.044,34.692L44.121,34.692L44.201,34.692L44.363,34.692L44.443,34.692L44.528,34.692L44.605,34.692L44.685,34.692L44.847,34.692L44.927,34.692L45.012,34.692L45.09,34.692L45.17,34.692L45.331,34.692L45.412,34.692L45.496,34.692L45.574,34.692L45.654,34.692L45.816,34.692L45.98,34.692L46.058,34.692L46.139,34.692L46.3,34.692L46.381,34.692L46.464,34.692L46.542,34.692L46.623,34.692L46.784,34.692L46.865,34.692L46.948,34.692L47.026,34.692L47.107,34.692L47.269,34.692L47.349,34.692L47.433,34.692L47.511,34.692L47.591,34.692L47.753,34.692L47.833,34.692L47.918,34.692L47.995,34.692L48.076,34.692L48.237,34.692L48.318,34.692L48.402,34.692L48.48,34.692L48.56,34.692L48.722,34.692L48.803,34.692L48.887,34.692L49.044,34.692L49.206,34.692L49.287,34.692L49.371,34.692L49.448,34.692L49.529,34.692L49.69,34.692L49.771,34.692L49.853,34.692L49.932,34.692L50.013,34.692L50.182,34.692L50.306,34.692L50.382,34.692L50.538,34.692L50.66,34.692L50.739,34.692L50.823,34.692L50.901,34.692L50.982,34.692L51.143,34.692L51.224,34.692L51.308,34.692L51.385,34.692L51.466,34.692L51.627,34.692L51.708,34.692L51.793,34.692L51.87,34.692L51.95,34.692L52.192,34.692L52.277,34.692L52.354,34.692L52.435,34.692L52.596,34.692L52.677,34.692L52.761,34.692L52.839,34.692L52.919,34.692L53.08,34.692L53.161,34.692L53.245,34.692L53.323,34.692L53.403,34.692L53.565,34.692L53.646,34.692L53.729,34.692L53.807,34.692L53.888,34.692L54.049,34.692L54.13,34.692L54.215,34.692L54.292,34.692L54.372,34.692L54.533,34.692L54.614,34.692L54.699,34.692L54.776,34.692L54.856,34.692L55.018,34.692L55.099,34.692L55.185,34.692L55.26,34.692L55.341,34.692L55.502,34.692L55.583,34.692L55.665,34.692L55.744,34.692L55.825,34.692L55.986,34.692L56.067,34.692L56.151,34.692L56.229,34.692L56.31,34.692L56.471,34.692L56.551,34.692L56.635,34.692L56.713,34.692L56.793,34.692L56.955,34.692L57.036,34.692L57.12,34.692L57.197,34.692L57.278,34.692L57.439,34.692L57.521,34.692L57.605,34.692L57.682,34.692L57.762,34.692L57.924,34.692L58.005,34.692L58.089,34.692L58.166,34.692L58.247,34.692L58.408,34.692L58.49,34.692L58.574,34.692L58.65,34.692L58.731,34.692L58.893,57.769L58.973,57.769L59.058,57.769L59.135,57.769L59.216,57.769L59.377,57.769L59.457,57.769L59.542,57.769L59.619,57.769L59.699,57.769L59.861,57.769L59.942,57.769L60.026,57.769L60.103,57.769L60.184,57.769L60.345,57.769L60.426,57.769L60.51,57.769L60.588,57.769L60.668,57.769L60.83,57.769L60.911,57.769L60.995,57.769L61.073,57.769L61.152,57.769L61.314,57.769L61.395,57.769L61.479,57.769L61.557,57.769L61.637,57.769L61.798,57.769L61.879,57.769L61.965,57.769L62.042,57.769L62.121,57.769L62.283,34.692L62.364,34.692L62.448,34.692L62.526,34.692L62.606,34.692L62.767,34.692L62.848,34.692L62.933,34.692L63.01,34.692L63.09,34.692L63.251,34.692L63.332,34.692L63.416,34.692L63.493,34.692L63.574,34.692L63.736,34.692L63.816,34.692L63.901,34.692L63.978,34.692L64.059,34.692L64.22,34.692L64.301,34.692L64.386,34.692L64.463,34.692L64.543,34.692L64.704,34.692L64.785,34.692L64.87,34.692L64.948,34.692L65.027,34.692L65.189,34.692L65.27,34.692L65.355,34.692L65.431,34.692L65.511,34.692L65.673,34.692L65.754,34.692L65.839,34.692L65.916,34.692L65.996,34.692L66.157,34.692L66.238,34.692L66.323,34.692L66.4,34.692L66.48,34.692L66.641,34.692L66.722,34.692L66.807,34.692L66.884,34.692L66.964,34.692L67.126,34.692L67.207,34.692L67.291,34.692L67.368,34.692L67.449,34.692L67.611,34.692L67.691,34.692L67.776,34.692L67.853,34.692L67.933,34.692L68.094,34.692L68.176,34.692L68.261,34.692L68.337,34.692L68.418,34.692L68.579,34.692L68.66,34.692L68.745,34.692L68.822,34.692L68.902,34.692L69.063,34.692L69.144,34.692L69.229,34.692L69.306,34.692L69.386,34.692L69.548,34.692L69.628,34.692L69.713,34.692L69.79,34.692L69.871,34.692L70.032,34.692L70.113,34.692L70.197,34.692L70.274,34.692L70.355,34.692L70.516,34.692L70.597,34.692L70.681,34.692L70.759,34.692L70.84,34.692L71.001,34.692L71.082,34.692L71.167,34.692L71.244,34.692L71.323,34.692L71.486,34.692L71.566,34.692L71.651,34.692L71.728,34.692L71.807,34.692L71.97,34.692L72.051,34.692L72.135,34.692L72.212,34.692L72.292,34.692L72.454,34.692L72.535,34.692L72.62,34.692L72.696,34.692L72.776,34.692L72.938,34.692L73.019,34.692L73.104,34.692L73.181,34.692L73.261,34.692L73.422,34.692L73.503,34.692L73.587,34.692L73.665,34.692L73.745,34.692L73.907,34.692L73.987,34.692L74.072,34.692L74.149,34.692L74.229,34.692L74.391,34.692L74.472,34.692L74.558,34.692L74.634,34.692L74.714,34.692L74.875,34.692L74.956,34.692L75.041,34.692L75.119,34.692L75.198,34.692L75.36,34.692L75.441,34.692L75.526,34.692L75.603,34.692L75.682,34.692L75.844,34.692L75.925,34.692L76.01,34.692L76.087,34.692L76.166,34.692L76.328,34.692L76.409,34.692L76.495,34.692L76.572,34.692L76.651,34.692L76.812,34.692L76.893,34.692L76.978,34.692L77.055,34.692L77.135,34.692L77.297,34.692L77.377,34.692L77.462,34.692L77.539,34.692L77.619,34.692L77.782,34.692L77.863,34.692L77.948,34.692L78.024,34.692L78.104,34.692L78.266,34.692L78.347,34.692L78.432,34.692L78.509,34.692L78.589,34.692L78.75,34.692L78.831,46.231L78.916,46.231L78.993,46.231L79.072,46.231L79.234,46.231L79.315,46.231L79.4,46.231L79.478,46.231L79.557,46.231L79.719,46.231L79.799,46.231L79.885,48.538L79.961,48.538L80.041,48.538L80.203,48.538L80.284,48.538L80.368,48.538L80.445,48.538L80.526,48.538L80.687,48.538L80.768,48.538L80.853,48.538L80.93,48.538L81.01,48.538L81.172,48.538L81.253,48.538L81.338,48.538L81.414,48.538L81.494,48.538L81.656,48.538L81.737,48.538L81.822,48.538L81.899,48.538L81.978,48.538L82.14,48.538L82.221,48.538L82.307,48.538L82.383,48.538L82.463,48.538L82.624,48.538L82.706,48.538L82.791,48.538L82.868,48.538L82.947,48.538L83.109,48.538L83.19,48.538L83.275,48.538L83.352,48.538L83.431,48.538L83.593,48.538L83.674,48.538L83.759,48.538L83.836,48.538L83.916,48.538L84.077,48.538L84.158,48.538L84.243,48.538L84.32,48.538L84.4,48.538L84.562,48.538L84.643,48.538L84.728,48.538L84.805,48.538L84.884,48.538L85.046,48.538L85.127,48.538L85.212,48.538L85.369,48.538L85.531,48.538L85.612,48.538L85.697,48.538L85.773,48.538L85.853,48.538L86.016,48.538L86.096,48.538L86.181,48.538L86.258,48.538L86.338,48.538L86.499,48.538L86.58,48.538L86.666,48.538L86.742,48.538L86.822,48.538L86.984,48.538L87.064,48.538L87.149,48.538L87.226,48.538L87.306,48.538L87.468,48.538L87.548,48.538L87.633,48.538L87.711,48.538L87.79,48.538L87.952,48.538L88.033,48.538L88.119,48.538L88.196,48.538L88.275,48.538L88.437,48.538L88.518,48.538L88.602,48.538L88.68,48.538L88.759,48.538L88.921,48.538L89.002,48.538L89.087,48.538L89.164,48.538L89.243,48.538L89.405,48.538L89.486,48.538L89.571,48.538L89.648,48.538L89.728,48.538L89.89,48.538L89.97,48.538L90.055,48.538L90.132,48.538L90.212,48.538L90.374,48.538L90.454,48.538L90.539,48.538L90.617,48.538L90.696,48.538L90.858,48.538L90.939,48.538L91.023,48.538L91.1,48.538L91.181,48.538L91.343,48.538L91.424,48.538L91.508,48.538L91.586,48.538L91.665,48.538L91.827,48.538L91.908,48.538L91.994,48.538L92.07,48.538L92.149,48.538L92.311,48.538L92.393,48.538L92.478,48.538L92.554,48.538L92.634,48.538L92.796,48.538L92.876,48.538L92.962,48.538L93.038,48.538L93.118,48.538L93.28,48.538L93.361,48.538L93.446,48.538L93.523,48.538L93.603,48.538L93.764,48.538L93.844,48.538L93.929,48.538L94.006,48.538L94.086,48.538L94.249,48.538L94.33,48.538L94.419,48.538L94.495,48.538L94.571,48.538L94.733,48.538L94.814,48.538L94.9,48.538L94.976,48.538L95.055,48.538L95.217,48.538L95.298,48.538L95.382,48.538L95.461,48.538L95.539,48.538L95.701,48.538L95.783,48.538L95.868,48.538L95.945,48.538L96.024,48.538L96.186,48.538L96.267,48.538L96.353,48.538L96.429,48.538L96.508,48.538L96.671,48.538L96.751,48.538L96.836,48.538L96.913,48.538L96.993,48.538L97.155,48.538L97.235,48.538L97.32,48.538L97.397,48.538L97.477,48.538L97.639,48.538L97.719,48.538L97.804,48.538L97.882,48.538L97.961,48.538L98.123,48.538L98.205,48.538L98.29,48.538L98.366,48.538L98.445,48.538L98.607,48.538L98.689,48.538L98.774,48.538L98.851,48.538L98.93,48.538L99.092,27L99.173,27L99.258,27L99.335,27L99.414,27L99.577,27L99.657,27L99.742,27L99.819,27L99.899,27L100.061,27L100.141,27L100.226,27L100.304,27L100.383,27L100.545,27L100.625,27L100.711,27L100.787,27L100.867,27L101.029,27L101.109,27L101.194,27L101.272,27L101.351,27L101.514,27L101.595,27L101.68,27L101.757,27L101.836,27L101.998,27L102.079,27L102.164,27L102.241,27L102.32,27L102.482,27L102.562,27L102.649,27L102.725,27L102.804,27L102.966,27L103.048,27L103.133,27L103.209,27L103.289,27L103.451,27L103.532,27L103.617,27L103.694,27L103.773,27L103.935,27L104.016,27L104.1,27L104.178,27L104.257,27L104.42,27L104.5,27L104.585,27L104.661,27L104.742,27L104.904,27L104.985,27L105.071,27L105.147,27L105.226,27L105.389,27L105.469,27L105.555,27L105.631,27L105.71,27L105.873,27L105.953,27L106.039,27L106.116,27L106.195,27L106.357,27L106.438,27L106.523,27L106.6,27L106.679,27L106.841,27L106.922,27L107.008,27L107.084,27L107.163,27L107.326,27L107.406,27L107.491,27L107.569,27L107.648,27L107.81,27L107.89,27L107.976,27L108.052,27L108.132,27L108.294,27L108.375,27L108.461,27L108.537,27L108.617,27L108.778,27L108.86,27L108.945,27L109.022,27L109.101,27L109.263,27L109.344,27L109.429,27L109.506,27L109.585,27L109.747,27L109.828,27L109.914,27L109.99,27L110.069,27L110.231,27L110.312,27L110.398,27L110.475,27L110.554,27L110.716,27L110.796,27L110.881,27L110.959,27L111.039,27L111.2,27L111.281,27L111.366,27L111.443,27L111.522,27L111.684,27L111.766,27L111.851,27L111.927,27L112.007,27L112.17,27L112.25,27L112.335,27L112.411,27L112.491,27L112.653,27L112.734,27L112.818,27L112.896,27L112.976,27L113.137,27L113.218,27L113.304,27L113.381,27L113.46,27L113.622,27L113.703,27L113.788,27L113.865,27L113.944,27L114.106,27L114.186,27L114.272,27L114.349,27L114.428,27L114.591,27L114.671,27L114.756,27L114.833,27L114.913,27L115.076,27L115.156,27L115.242,27L115.318,27L115.397,27L115.56,27L115.64,27L115.726,27L115.802,27L115.881,27L116.044,27L116.125,27L116.211,27L116.287,27L116.366,27L116.528,27L116.609,27L116.695,27L116.771,27L116.85,27L117.013,27L117.093,27L117.179,27L117.255,27L117.335,27L117.497,27L117.578,27L117.663,27L117.74,27L117.819,27L117.981,27L118.062,27L118.148,27L118.224,27L118.303,27L118.466,27L118.547,27L118.633,27L118.709,27L118.788,27L118.95,27L119.031,27L119.117,27L119.193,27L119.272,27L119.434,27L119.515,27L119.601,27L119.677,27L119.757,27L119.919,27L120,27L120.085,27L120.161,27L120.241,27L120.403,27L120.484,27L120.569,27L120.646,27L120.725,27L120.887,27L120.967,27L121.053,27L121.129,27L121.209,27L121.371,27L121.452,27L121.537,27L121.614,27L121.694,27L121.856,27L121.937,27L122.023,27L122.099,27L122.178,27L122.34,27L122.421,27L122.507,27L122.583,27L122.662,27L122.825,27L122.906,27L122.992,27L123.067,27L123.146,27L123.309,27L123.39,27L123.476,27L123.552,27L123.631,27L123.793,27L123.874,27L123.96,27L124.036,27L124.115,27L124.277,46.231L124.358,46.231L124.443,46.231L124.52,46.231L124.599,46.231L124.762,46.231L124.843,46.231L124.928,46.231L125.005,46.231L125.084,46.231L125.247,46.231L125.328,46.231L125.414,46.231L125.49,46.231L125.568,46.231L125.729,46.231L125.812,46.231L125.898,46.231L125.973,46.231L126.052,46.231L126.215,46.231L126.296,46.231L126.382,46.231L126.458,46.231L126.537,46.231L126.7,53.923L126.78,53.923L126.866,53.923L126.942,53.923L127.021,53.923L127.184,53.923L127.265,53.923L127.351,53.923L127.426,53.923L127.506,53.923L127.668,53.923L127.748,53.923L127.834,53.923L127.91,53.923L127.989,53.923L128.153,53.923L128.233,53.923L128.318,53.923L128.395,53.923L128.474,53.923L128.637,53.923L128.718,53.923L128.804,53.923L128.88,53.923L128.959,53.923L129.121,53.923L129.203,53.923L129.289,53.923L129.364,53.923L129.443,53.923L129.605,53.923L129.687,53.923L129.773,53.923L129.849,53.923L129.927,53.923L130.09,23.154L130.171,23.154L130.257,23.154L130.333,23.154L130.412,23.154L130.574,23.154L130.655,23.154L130.741,23.154L130.817,23.154L131.058,23.154L131.139,23.154L131.224,23.154L131.3,23.154L131.38,23.154L131.542,23.154L131.623,23.154L131.709,23.154L131.785,23.154L131.864,23.154L132.027,23.154L132.109,23.154L132.195,23.154L132.271,23.154L132.349,23.154L132.512,23.154L132.593,23.154L132.679,23.154L132.755,23.154L132.833,23.154L132.996,23.154L133.077,23.154L133.163,23.154L133.239,23.154L133.318,23.154L133.48,23.154L133.561,23.154L133.647,23.154L133.723,23.154L133.802,23.154L133.964,23.154L134.045,23.154L134.131,23.154L134.207,23.154L134.286,23.154L134.448,23.154L134.529,23.154L134.615,23.154L134.691,23.154L134.77,23.154L134.933,23.154L135.014,23.154L135.099,23.154L135.175,23.154L135.254,23.154L135.417,23.154L135.499,23.154L135.585,23.154L135.661,23.154L135.74,23.154L135.902,23.154L135.983,23.154L136.069,23.154L136.145,23.154L136.223,23.154L136.386,23.154L136.467,23.154L136.553,23.154L136.629,23.154L136.708,23.154L136.87,23.154L136.952,23.154L137.038,23.154L137.113,23.154L137.192,23.154L137.355,23.154L137.436,23.154L137.522,23.154L137.597,23.154L137.677,23.154L137.839,23.154L137.919,23.154L138.005,23.154L138.082,23.154L138.161,23.154L138.323,23.154L138.404,23.154L138.49,23.154L138.566,23.154L138.645,23.154L138.808,23.154L138.889,23.154L138.975,23.154L139.051,23.154L139.13,23.154L139.292,23.154L139.373,23.154L139.459,23.154L139.535,23.154L139.614,23.154L139.776,23.154L139.858,23.154L139.944,23.154L140.019,23.154L140.098,23.154L140.261,23.154L140.342,23.154L140.428,23.154L140.504,23.154L140.583,23.154L140.745,23.154L140.826,23.154L140.912,23.154L140.988,23.154L141.067,23.154L141.229,23.154L141.31,23.154L141.395,23.154L141.472,23.154L141.552,23.154L141.714,23.154L141.795,23.154L141.88,23.154L141.956,23.154L142.035,23.154L142.198,23.154L142.279,23.154L142.365,23.154L142.441,23.154L142.52,23.154L142.683,23.154L142.764,23.154L142.85,23.154L142.925,23.154L143.004,23.154L143.167,23.154L143.248,23.154L143.334,23.154L143.41,23.154L143.489,23.154L143.651,23.154L143.732,23.154L143.818,23.154L143.894,23.154L143.973,23.154L144.136,23.154L144.216,23.154L144.302,23.154L144.378,23.154L144.457,23.154L144.619,23.154L144.7,23.154L144.786,23.154L144.862,23.154L144.941,23.154L145.104,23.154L145.185,23.154L145.27,23.154L145.346,23.154L145.426,23.154L145.588,23.154L145.67,23.154L145.756,23.154L145.832,23.154L145.91,23.154L146.073,23.154L146.154,23.154L146.24,23.154L146.316,23.154L146.395,23.154L146.557,23.154L146.639,23.154L146.724,23.154L146.801,23.154L146.879,23.154L147.208,23.154L147.284,23.154L147.363,23.154L147.526,23.154L147.606,23.154L147.692,23.154L147.768,23.154L147.847,23.154L148.01,23.154L148.09,23.154L148.176,23.154L148.253,23.154L148.331,23.154L148.494,23.154L148.574,23.154L148.66,23.154L148.736,23.154L148.816,23.154L148.979,23.154L149.06,23.154L149.146,23.154L149.221,23.154L149.3,23.154L149.463,23.154L149.544,23.154L149.629,23.154L149.705,23.154L149.785,23.154L149.947,23.154L150.028,23.154L150.114,23.154L150.19,23.154L150.269,23.154L150.431,58.538L150.512,58.538L150.598,58.538L150.674,58.538L150.753,58.538L150.915,58.538L150.996,58.538L151.082,58.538L151.158,58.538L151.237,58.538L151.4,58.538L151.48,58.538L151.566,58.538L151.642,58.538L151.721,58.538L151.884,58.538L151.964,58.538L152.05,58.538L152.126,58.538L152.206,58.538L152.369,58.538L152.45,58.538L152.536,58.538L152.612,58.538L152.69,58.538L152.853,58.538L152.934,58.538L153.02,58.538L153.096,58.538L153.175,58.538L153.337,58.538L153.418,58.538L153.504,58.538L153.58,58.538L153.659,58.538L153.822,23.154L153.903,23.154L153.989,23.154L154.065,23.154L154.144,23.154L154.307,23.154L154.387,23.154L154.474,23.154L154.549,23.154L154.628,23.154L154.791,23.154L154.871,23.154L154.957,23.154L155.033,23.154L155.112,23.154L155.275,23.154L155.355,23.154L155.441,23.154L155.517,23.154L155.597,23.154L155.76,23.154L155.841,23.154L155.927,23.154L156.003,23.154L156.082,23.154L156.244,23.154L156.325,23.154L156.411,23.154L156.487,23.154L156.566,23.154L156.728,23.154L156.81,23.154L156.896,23.154L156.971,23.154L157.05,23.154L157.213,23.154L157.294,23.154L157.38,23.154L157.456,23.154L157.534,23.154L157.697,23.154L157.778,23.154L157.864,23.154L157.94,23.154L158.019,23.154L158.181,23.154L158.261,23.154L158.348,23.154L158.424,23.154L158.502,23.154L158.665,23.154L158.746,23.154L158.832,23.154L158.908,23.154L158.987,23.154L159.15,23.154L159.231,23.154L159.318,23.154L159.393,23.154L159.472,23.154L159.634,23.154L159.716,23.154L159.802,23.154L159.878,23.154L159.956,23.154L160.119,23.154L160.2,23.154L160.286,23.154L160.362,23.154L160.441,23.154L160.603,23.154L160.685,23.154L160.771,23.154L160.846,23.154L160.925,23.154L161.087,23.154L161.169,23.154L161.255,23.154L161.33,23.154L161.409,23.154L161.571,23.154L161.652,23.154L161.738,23.154L161.814,23.154L161.893,23.154L162.056,23.154L162.136,23.154L162.222,23.154L162.298,23.154L162.377,23.154L162.54,23.154L162.622,23.154L162.708,23.154L162.784,23.154L162.862,23.154L163.025,23.154L163.106,23.154L163.192,23.154L163.268,23.154L163.346,23.154L163.509,23.154L163.591,23.154L163.677,23.154L163.753,23.154L163.831,23.154L163.993,23.154L164.075,23.154L164.161,23.154L164.237,23.154L164.315,23.154L164.478,23.154L164.559,23.154L164.645,23.154L164.72,23.154L164.799,23.154L164.962,23.154L165.042,23.154L165.128,23.154L165.204,23.154L165.283,23.154L165.446,23.154L165.527,23.154L165.613,23.154L165.688,23.154L165.768,23.154L165.931,23.154L166.012,23.154L166.099,23.154L166.174,23.154L166.253,23.154L166.415,23.154L166.497,23.154L166.583,23.154L166.658,23.154L166.737,23.154L166.899,23.154L166.981,23.154L167.067,23.154L167.143,23.154L167.221,23.154L167.384,23.154L167.465,23.154L167.552,23.154L167.627,23.154L167.705,23.154L167.868,23.154L167.949,23.154L168.036,23.154L168.111,23.154L168.19,23.154L168.352,23.154L168.433,23.154L168.519,23.154L168.594,23.154L168.673,23.154L168.836,23.154L168.917,23.154L169.003,23.154L169.078,23.154L169.158,23.154L169.321,23.154L169.403,23.154L169.489,23.154L169.564,23.154L169.643,23.154L169.805,23.154L169.887,23.154L169.973,23.154L170.049,23.154L170.127,23.154L170.289,23.154L170.371,23.154L170.457,23.154L170.532,23.154L170.611,23.154L170.773,23.154L170.855,23.154L170.941,23.154L171.016,23.154L171.095,23.154L171.257,23.154L171.338,23.154L171.424,23.154L171.5,23.154L171.579,23.154L171.741,23.154L171.822,23.154L171.907,23.154L171.984,23.154L172.063,23.154L172.226,23.154L172.306,23.154L172.392,23.154L172.468,23.154L172.547,23.154L172.711,23.154L172.791,23.154L172.877,23.154L172.953,23.154L173.032,23.154L173.194,23.154L173.276,23.154L173.361,23.154L173.437,23.154L173.516,23.154L173.679,23.154L173.76,23.154L173.845,23.154L173.921,23.154L174.001,23.154L174.163,23.154L174.244,23.154L174.33,23.154L174.406,23.154L174.485,23.154L174.647,23.154L174.728,23.154L174.814,23.154L174.89,23.154L174.969,23.154L175.132,23.154L175.212,23.154L175.298,23.154L175.374,23.154L175.453,23.154L175.616,23.154L175.697,23.154L175.782,23.154L175.858,23.154L175.938,23.154L176.1,23.154L176.182,23.154L176.267,23.154L176.343,23.154L176.422,23.154L176.585,23.154L176.666,23.154L176.751,23.154L176.827,23.154L176.907,23.154L177.069,23.154L177.15,23.154L177.236,23.154L177.312,23.154L177.391,23.154L177.553,23.154L177.634,23.154L177.72,23.154L177.796,23.154L177.875,23.154L178.038,23.154L178.119,23.154L178.205,23.154L178.281,23.154L178.36,23.154L178.522,23.154L178.603,23.154L178.688,23.154L178.764,23.154L178.844,23.154L179.006,23.154L179.087,23.154L179.173,23.154L179.249,23.154L179.328,23.154L179.491,23.154L179.572,23.154L179.658,23.154L179.734,23.154L179.813,23.154L179.975,23.154L180.056,23.154L180.143,23.154L180.221,23.154L180.297,23.154L180.459,23.154L180.541,23.154L180.627,23.154L180.703,23.154L180.782,23.154L180.944,23.154L181.025,23.154L181.111,23.154L181.187,23.154L181.266,23.154L181.428,23.154L181.509,23.154L181.595,23.154L181.671,23.154L181.75,23.154L181.912,23.154L181.993,23.154L182.079,23.154L182.154,23.154L182.234,23.154L182.396,23.154L182.477,23.154L182.563,23.154L182.639,23.154L182.718,23.154L182.881,23.154L182.963,23.154L183.049,23.154L183.125,23.154L183.203,23.154L183.365,23.154L183.446,23.154L183.532,23.154L183.608,23.154L183.687,23.154L183.849,23.154L183.931,23.154L184.016,23.154L184.092,23.154L184.171,23.154L184.334,23.154L184.415,23.154L184.501,23.154L184.656,23.154L184.819,23.154L184.899,23.154L184.985,23.154L185.061,23.154L185.383,23.154L185.468,23.154L185.544,23.154L185.624,23.154L185.786,23.154L185.867,23.154L185.952,23.154L186.029,23.154L186.108,23.154L186.271,23.154L186.352,23.154L186.438,23.154L186.514,23.154L186.593,23.154L186.755,23.154L186.836,23.154L186.923,23.154L186.999,23.154L187.078,23.154L187.24,23.154L187.321,23.154L187.407,23.154L187.483,23.154L187.561,23.154L187.724,23.154L187.805,23.154L187.891,23.154L187.967,23.154L188.046,23.154L188.208,23.154L188.289,23.154L188.375,23.154L188.451,23.154L188.53,23.154L188.693,23.154L188.773,23.154L188.858,23.154L188.935,23.154L189.014,23.154L189.177,23.154L189.257,23.154L189.342,23.154L189.419,23.154L189.499,23.154L189.662,23.154L189.743,23.154L189.829,23.154L189.904,23.154L189.983,23.154L190.146,23.154L190.227,23.154L190.313,23.154L190.389,23.154L190.468,23.154L190.63,23.154L190.711,23.154L190.797,23.154L190.873,23.154L190.952,23.154L191.115,23.154L191.195,23.154L191.281,23.154L191.359,23.154L191.436,23.154L191.599,23.154L191.679,23.154L191.765,23.154L191.842,23.154L191.92,23.154L192.083,23.154L192.163,23.154L192.248,23.154L192.325,23.154L192.405,23.154L192.567,23.154L192.648,23.154L192.733,23.154L192.809,23.154L192.889,23.154L193.052,23.154L193.133,23.154L193.219,23.154L193.295,23.154L193.374,23.154L193.536,23.154L193.617,23.154L193.703,23.154L193.779,23.154L193.858,23.154L194.021,23.154L194.102,23.154L194.188,23.154L194.264,23.154L194.343,23.154L194.505,23.154L194.586,23.154L194.672,23.154L194.747,23.154L194.827,23.154L194.989,23.154L195.07,23.154L195.156,23.154L195.232,23.154L195.311,23.154L195.473,23.154L195.554,23.154L195.639,23.154L195.715,23.154L195.795,23.154L195.957,23.154L196.038,23.154L196.123,23.154L196.199,23.154L196.28,23.154L196.442,23.154L196.523,23.154L196.609,23.154L196.685,23.154L196.765,23.154L196.926,23.154L197.007,23.154L197.094,23.154L197.17,23.154L197.249,23.154L197.411,23.154L197.492,23.154L197.578,23.154L197.654,23.154L197.733,23.154L197.976,40.846L198.062,40.846L198.138,40.846L198.219,40.846L198.379,40.846L198.46,40.846L198.546,40.846L198.622,40.846L198.701,40.846L198.864,40.846L198.944,40.846L199.029,40.846L199.106,40.846L199.185,40.846L199.348,40.846L199.428,40.846L199.514,40.846L199.59,40.846L199.67,40.846L199.832,40.846L199.914,40.846L200,40.846" stroke="#4c78a8" stroke-width="2"/></g></g><path class="foreground" aria-hidden="true" d="" display="none"/></g><g transform="translate(0,0)"><path class="background" aria-hidden="true" d="M0,0h200v200h-200Z"/><g><g class="mark-line role-mark marks" role="graphics-object" aria-roledescription="line mark container"><path aria-label="Time: Jan 01, 2024; Price: 2499; identifier: altex-LG-F2WR508SBM" role="graphics-symbol" aria-roledescription="line mark" d="M0,7.769L0.051,7.769L0.127,7.769L0.289,7.769L0.37,7.769L0.455,7.769L0.532,7.769L0.612,7.769L0.773,7.769L0.854,7.769L0.939,7.769L1.016,7.769L1.096,7.769L1.258,7.769L1.338,7.769L1.423,7.769L1.501,7.769L1.581,7.769L1.742,27L1.823,27L1.908,27L1.985,27L2.065,27L2.226,27L2.307,27L2.391,27L2.469,27L2.549,27L2.711,27L2.791,27L2.876,27L2.953,27L3.033,27L3.195,27L3.276,27L3.361,27L3.438,27L3.518,27L3.68,27L3.76,27L3.846,27L3.923,27L4.002,27L4.164,27L4.245,27L4.33,27L4.407,27L4.486,27L4.648,27L4.729,27L4.814,27L4.891,27L4.971,27L5.132,27L5.213,27L5.298,27L5.375,27L5.455,27L5.617,38.538L5.697,38.538L5.782,38.538L5.859,38.538L5.939,38.538L6.101,38.538L6.181,38.538L6.266,38.538L6.343,38.538L6.424,38.538L6.586,38.538L6.666,38.538L6.752,38.538L6.829,38.538L6.908,38.538L7.07,38.538L7.151,38.538L7.236,38.538L7.313,38.538L7.392,38.538L7.554,38.538L7.635,38.538L7.72,38.538L7.797,38.538L7.877,38.538L8.038,38.538L8.119,38.538L8.204,38.538L8.281,38.538L8.361,38.538L8.523,38.538L8.604,38.538L8.689,38.538L8.766,38.538L8.845,38.538L9.007,38.538L9.087,38.538L9.172,38.538L9.25,38.538L9.33,38.538L9.491,38.538L9.572,38.538L9.656,38.538L9.734,38.538L9.814,38.538L9.976,38.538L10.057,38.538L10.142,38.538L10.219,38.538L10.298,38.538L10.46,38.538L10.541,38.538L10.626,38.538L10.704,38.538L10.783,38.538L10.945,38.538L11.025,38.538L11.111,38.538L11.188,38.538L11.267,38.538L11.429,38.538L11.51,38.538L11.595,38.538L11.672,38.538L11.751,38.538L11.913,38.538L11.994,38.538L12.078,38.538L12.155,38.538L12.236,38.538L12.397,38.538L12.478,38.538L12.561,38.538L12.639,38.538L12.72,38.538L12.881,38.538L12.962,38.538L13.045,38.538L13.123,38.538L13.204,38.538L13.366,38.538L13.447,38.538L13.53,38.538L13.608,38.538L13.689,38.538L13.85,38.538L13.931,38.538L14.015,38.538L14.093,38.538L14.173,38.538L14.334,38.538L14.415,38.538L14.499,38.538L14.576,38.538L14.657,38.538L14.819,27L14.899,27L14.983,27L15.061,27L15.141,27L15.303,27L15.384,27L15.468,27L15.545,27L15.626,27L15.787,27L15.868,27L15.951,27L16.029,27L16.11,27L16.272,27L16.352,27L16.435,27L16.514,27L16.594,27L16.756,27L16.837,27L16.921,27L16.998,27L17.079,27L17.24,27L17.321,27L17.405,27L17.483,27L17.563,27L17.724,27L17.805,27L17.889,27L17.967,27L18.047,27L18.209,27L18.29,27L18.373,27L18.451,27L18.532,27L18.693,27L18.774,27L18.858,27L18.936,27L19.016,27L19.177,27L19.258,27L19.342,27L19.42,27L19.5,27L19.662,27L19.743,27L19.826,27L19.904,27L19.985,27L20.146,27L20.227,27L20.311,27L20.388,27L20.469,27L20.63,27L20.711,27L20.795,27L20.874,27L20.953,27L21.115,27L21.196,27L21.28,27L21.357,27L21.438,27L21.68,27L21.764,27L21.841,27L21.922,27L22.084,27L22.164,27L22.248,27L22.326,27L22.406,27L22.568,27L22.648,27L22.732,27L22.81,27L22.891,27L23.052,27L23.133,27L23.216,27L23.294,27L23.375,27L23.536,27L23.617,27L23.702,27L23.78,27L23.859,27L24.021,27L24.102,27L24.185,27L24.263,27L24.344,27L24.505,27L24.586,27L24.67,27L24.748,27L24.828,27L24.989,27L25.07,27L25.154,27L25.232,27L25.312,27L25.474,27L25.554,27L25.638,27L25.716,27L25.797,27L25.958,27L26.039,27L26.122,27L26.2,27L26.281,27L26.442,27L26.523,27L26.606,27L26.685,27L26.765,27L26.927,27L27.008,27L27.091,27L27.169,27L27.25,27L27.411,27L27.492,27L27.576,27L27.654,27L27.734,27L27.895,27L27.976,27L28.06,27L28.138,27L28.218,27L28.38,27L28.46,27L28.544,27L28.622,27L28.702,27L28.864,27L28.945,27L29.029,27L29.106,27L29.187,27L29.348,27L29.429,27L29.513,27L29.59,27L29.671,27L29.833,27L29.913,27L29.997,27L30.075,27L30.156,27L30.324,27L30.435,27L30.483,27L30.56,27L30.64,27L30.801,27L30.882,27L30.966,27L31.044,27L31.124,27L31.286,27L31.367,27L31.451,27L31.528,27L31.608,27L31.77,27L31.851,27L31.935,38.538L32.012,38.538L32.093,38.538L32.254,38.538L32.336,38.538L32.419,38.538L32.496,38.538L32.577,38.538L32.739,38.538L32.819,38.538L32.902,38.538L32.981,38.538L33.061,38.538L33.223,38.538L33.304,38.538L33.387,38.538L33.465,38.538L33.546,38.538L33.708,38.538L33.788,38.538L33.872,38.538L33.95,38.538L34.03,38.538L34.192,38.538L34.272,38.538L34.356,38.538L34.434,38.538L34.514,38.538L34.676,38.538L34.757,38.538L34.841,38.538L34.918,38.538L34.999,38.538L35.16,38.538L35.241,38.538L35.325,38.538L35.403,38.538L35.483,38.538L35.644,38.538L35.726,38.538L35.809,38.538L35.887,38.538L35.967,38.538L36.129,38.538L36.21,38.538L36.293,38.538L36.371,38.538L36.452,38.538L36.613,38.538L36.694,38.538L36.777,38.538L36.855,38.538L36.936,38.538L37.097,38.538L37.178,38.538L37.263,38.538L37.341,38.538L37.421,38.538L37.582,38.538L37.663,38.538L37.747,38.538L37.825,38.538L37.905,38.538L38.066,38.538L38.147,38.538L38.231,38.538L38.309,38.538L38.389,38.538L38.551,38.538L38.632,38.538L38.716,38.538L38.794,38.538L38.873,38.538L39.035,38.538L39.116,38.538L39.2,38.538L39.277,38.538L39.358,38.538L39.519,38.538L39.6,38.538L39.684,38.538L39.761,38.538L39.842,38.538L40.004,38.538L40.084,38.538L40.168,38.538L40.246,38.538L40.326,38.538L40.488,38.538L40.569,38.538L40.653,38.538L40.73,38.538L40.811,38.538L40.972,38.538L41.053,38.538L41.137,38.538L41.215,38.538L41.295,38.538L41.457,38.538L41.538,38.538L41.622,38.538L41.7,38.538L41.779,38.538L41.941,38.538L42.022,38.538L42.106,38.538L42.183,38.538L42.264,38.538L42.425,38.538L42.506,38.538L42.59,38.538L42.668,38.538L42.748,38.538L42.909,38.538L42.99,38.538L43.073,38.538L43.152,38.538L43.233,38.538L43.394,38.538L43.475,38.538L43.558,38.538L43.636,38.538L43.717,38.538L43.878,38.538L43.959,38.538L44.044,38.538L44.121,38.538L44.201,38.538L44.363,38.538L44.443,38.538L44.528,38.538L44.605,38.538L44.685,38.538L44.847,38.538L44.928,38.538L45.012,38.538L45.09,38.538L45.17,38.538L45.331,38.538L45.412,38.538L45.496,38.538L45.574,38.538L45.654,38.538L45.816,38.538L45.98,38.538L46.058,38.538L46.139,38.538L46.3,38.538L46.381,38.538L46.464,38.538L46.542,38.538L46.623,38.538L46.784,38.538L46.865,38.538L46.948,38.538L47.026,38.538L47.107,38.538L47.269,38.538L47.349,38.538L47.434,38.538L47.511,38.538L47.591,38.538L47.753,38.538L47.833,38.538L47.918,38.538L47.995,38.538L48.076,38.538L48.237,38.538L48.318,38.538L48.402,38.538L48.48,38.538L48.56,38.538L48.722,38.538L48.803,38.538L48.887,38.538L49.045,38.538L49.206,38.538L49.287,38.538L49.371,38.538L49.448,38.538L49.529,38.538L49.69,38.538L49.771,38.538L49.853,38.538L49.932,38.538L50.013,38.538L50.182,38.538L50.306,38.538L50.382,38.538L50.538,38.538L50.66,38.538L50.739,38.538L50.823,38.538L50.901,38.538L50.982,38.538L51.143,38.538L51.224,38.538L51.308,38.538L51.385,38.538L51.466,38.538L51.627,38.538L51.708,38.538L51.793,38.538L51.871,38.538L51.95,38.538L52.192,38.538L52.277,38.538L52.354,38.538L52.435,38.538L52.596,38.538L52.677,38.538L52.761,38.538L52.839,38.538L52.919,38.538L53.08,38.538L53.161,38.538L53.245,38.538L53.323,38.538L53.403,38.538L53.565,38.538L53.646,38.538L53.729,38.538L53.807,38.538L53.888,38.538L54.049,38.538L54.13,38.538L54.215,38.538L54.292,38.538L54.372,38.538L54.533,38.538L54.614,38.538L54.699,38.538L54.776,38.538L54.856,38.538L55.018,38.538L55.099,38.538L55.185,38.538L55.26,38.538L55.341,38.538L55.502,38.538L55.583,38.538L55.665,38.538L55.744,38.538L55.825,38.538L55.986,38.538L56.067,38.538L56.151,38.538L56.229,38.538L56.31,38.538L56.471,38.538L56.551,38.538L56.635,38.538L56.713,38.538L56.793,38.538L56.955,38.538L57.036,38.538L57.12,38.538L57.197,38.538L57.278,38.538L57.439,38.538L57.521,38.538L57.605,38.538L57.682,38.538L57.762,38.538L57.924,38.538L58.005,38.538L58.089,38.538L58.166,38.538L58.247,38.538L58.408,38.538L58.49,38.538L58.574,38.538L58.65,38.538L58.731,38.538L58.893,38.538L58.973,38.538L59.058,38.538L59.135,38.538L59.216,38.538L59.377,38.538L59.457,38.538L59.542,38.538L59.619,38.538L59.699,38.538L59.861,38.538L59.942,38.538L60.026,38.538L60.103,38.538L60.184,38.538L60.345,38.538L60.426,38.538L60.51,38.538L60.588,38.538L60.668,38.538L60.83,38.538L60.911,38.538L60.995,38.538L61.073,38.538L61.152,38.538L61.314,38.538L61.395,38.538L61.479,30.846L61.557,30.846L61.637,30.846L61.798,30.846L61.879,30.846L61.965,30.846L62.042,30.846L62.121,30.846L62.283,30.846L62.364,30.846L62.448,30.846L62.526,30.846L62.606,30.846L62.767,30.846L62.848,30.846L62.933,30.846L63.01,30.846L63.09,30.846L63.251,30.846L63.332,30.846L63.416,30.846L63.493,30.846L63.574,30.846L63.736,30.846L63.816,30.846L63.901,30.846L63.978,30.846L64.059,30.846L64.22,30.846L64.301,30.846L64.386,30.846L64.463,30.846L64.543,30.846L64.704,30.846L64.785,30.846L64.87,30.846L64.948,30.846L65.027,30.846L65.189,30.846L65.27,30.846L65.355,30.846L65.431,30.846L65.511,30.846L65.673,30.846L65.754,30.846L65.839,30.846L65.916,30.846L65.996,30.846L66.157,30.846L66.238,30.846L66.323,30.846L66.4,30.846L66.48,30.846L66.641,30.846L66.722,30.846L66.807,30.846L66.884,30.846L66.964,30.846L67.126,30.846L67.207,30.846L67.291,30.846L67.369,30.846L67.449,30.846L67.611,30.846L67.691,30.846L67.776,30.846L67.853,30.846L67.933,30.846L68.094,30.846L68.176,30.846L68.261,30.846L68.337,30.846L68.418,30.846L68.579,30.846L68.66,30.846L68.745,38.538L68.822,38.538L68.902,38.538L69.063,38.538L69.144,38.538L69.229,38.538L69.306,38.538L69.386,38.538L69.548,38.538L69.628,38.538L69.713,38.538L69.79,38.538L69.871,38.538L70.032,38.538L70.113,38.538L70.197,38.538L70.274,38.538L70.355,38.538L70.516,38.538L70.597,38.538L70.681,38.538L70.759,38.538L70.84,38.538L71.001,38.538L71.082,38.538L71.167,38.538L71.244,38.538L71.323,38.538L71.486,38.538L71.566,38.538L71.651,38.538L71.728,38.538L71.808,38.538L71.97,38.538L72.051,38.538L72.135,38.538L72.212,38.538L72.292,38.538L72.454,38.538L72.535,38.538L72.62,38.538L72.696,38.538L72.776,38.538L72.938,30.846L73.019,30.846L73.104,30.846L73.181,30.846L73.261,30.846L73.422,30.846L73.503,30.846L73.587,30.846L73.665,30.846L73.745,30.846L73.907,30.846L73.987,30.846L74.072,30.846L74.149,30.846L74.229,30.846L74.391,30.846L74.472,30.846L74.558,30.846L74.634,30.846L74.714,30.846L74.875,30.846L74.956,30.846L75.041,30.846L75.119,30.846L75.198,30.846L75.36,30.846L75.441,30.846L75.526,30.846L75.603,30.846L75.682,30.846L75.844,30.846L75.925,30.846L76.01,30.846L76.087,30.846L76.167,30.846L76.329,30.846L76.409,30.846L76.495,30.846L76.572,30.846L76.651,30.846L76.813,30.846L76.893,30.846L76.978,30.846L77.055,30.846L77.135,30.846L77.297,30.846L77.377,30.846L77.462,30.846L77.539,30.846L77.619,30.846L77.782,30.846L77.863,30.846L77.948,30.846L78.024,30.846L78.104,30.846L78.266,30.846L78.347,30.846L78.432,30.846L78.509,30.846L78.589,30.846L78.75,30.846L78.831,34.692L78.916,34.692L78.993,34.692L79.072,34.692L79.234,34.692L79.315,34.692L79.4,34.692L79.478,34.692L79.557,34.692L79.719,34.692L79.799,34.692L79.885,40.077L79.961,40.077L80.041,40.077L80.203,40.077L80.284,40.077L80.368,40.077L80.445,40.077L80.526,40.077L80.687,40.077L80.768,40.077L80.853,40.077L80.93,40.077L81.01,40.077L81.172,40.077L81.253,40.077L81.338,40.077L81.414,40.077L81.494,40.077L81.656,40.077L81.737,40.077L81.822,40.077L81.899,40.077L81.978,40.077L82.14,40.077L82.221,40.077L82.307,40.077L82.383,40.077L82.463,40.077L82.624,40.077L82.706,40.077L82.791,40.077L82.868,40.077L82.947,40.077L83.109,40.077L83.19,40.077L83.275,40.077L83.352,40.077L83.432,40.077L83.593,40.077L83.674,40.077L83.759,40.077L83.836,40.077L83.916,40.077L84.077,40.077L84.158,40.077L84.243,40.077L84.32,40.077L84.4,40.077L84.562,40.077L84.643,40.077L84.728,40.077L84.805,40.077L84.884,40.077L85.046,40.077L85.127,40.077L85.212,40.077L85.369,40.077L85.531,40.077L85.612,40.077L85.697,40.077L85.773,40.077L85.853,40.077L86.016,40.077L86.096,40.077L86.181,40.077L86.258,40.077L86.338,40.077L86.499,40.077L86.58,40.077L86.666,40.077L86.742,40.077L86.822,40.077L86.984,40.077L87.064,40.077L87.149,40.077L87.226,40.077L87.306,40.077L87.468,40.077L87.548,40.077L87.633,40.077L87.711,40.077L87.79,40.077L87.952,40.077L88.033,40.077L88.119,40.077L88.196,40.077L88.275,40.077L88.437,40.077L88.518,40.077L88.603,40.077L88.68,40.077L88.759,40.077L88.921,40.077L89.002,40.077L89.087,40.077L89.164,40.077L89.243,40.077L89.405,40.077L89.486,40.077L89.571,40.077L89.648,40.077L89.728,40.077L89.89,40.077L89.97,40.077L90.055,40.077L90.132,40.077L90.212,40.077L90.374,40.077L90.454,40.077L90.539,40.077L90.617,40.077L90.696,40.077L90.858,40.077L90.939,40.077L91.023,40.077L91.1,40.077L91.181,40.077L91.343,40.077L91.424,40.077L91.508,40.077L91.586,40.077L91.665,40.077L91.827,40.077L91.908,40.077L91.994,40.077L92.07,40.077L92.15,40.077L92.311,40.077L92.393,40.077L92.478,40.077L92.554,40.077L92.634,40.077L92.796,40.077L92.876,40.077L92.962,40.077L93.038,40.077L93.118,40.077L93.28,40.077L93.361,40.077L93.446,40.077L93.523,40.077L93.603,40.077L93.764,40.077L93.844,40.077L93.929,40.077L94.006,40.077L94.086,40.077L94.249,40.077L94.33,40.077L94.419,40.077L94.495,40.077L94.571,40.077L94.733,40.077L94.814,40.077L94.9,40.077L94.976,40.077L95.055,40.077L95.217,40.077L95.298,40.077L95.382,40.077L95.461,40.077L95.539,40.077L95.701,40.077L95.783,40.077L95.868,40.077L95.945,40.077L96.024,40.077L96.186,40.077L96.267,40.077L96.353,40.077L96.429,40.077L96.508,40.077L96.671,40.077L96.751,40.077L96.836,40.077L96.913,40.077L96.993,40.077L97.155,40.077L97.235,40.077L97.32,40.077L97.397,40.077L97.477,40.077L97.639,40.077L97.719,40.077L97.804,40.077L97.882,40.077L97.961,40.077L98.123,40.077L98.205,40.077L98.29,40.077L98.366,40.077L98.445,40.077L98.607,40.077L98.689,40.077L98.774,40.077L98.851,40.077L98.93,40.077L99.092,40.077L99.173,40.077L99.258,40.077L99.335,40.077L99.414,40.077L99.577,40.077L99.657,40.077L99.742,40.077L99.819,40.077L99.899,40.077L100.061,40.077L100.141,40.077L100.226,40.077L100.304,40.077L100.383,40.077L100.545,40.077L100.625,40.077L100.711,40.077L100.787,40.077L100.867,40.077L101.029,40.077L101.109,40.077L101.194,40.077L101.272,40.077L101.351,40.077L101.514,40.077L101.595,40.077L101.68,40.077L101.757,40.077L101.836,40.077L101.998,40.077L102.079,40.077L102.164,40.077L102.241,40.077L102.32,40.077L102.482,40.077L102.562,40.077L102.649,40.077L102.725,40.077L102.804,40.077L102.966,40.077L103.048,40.077L103.133,40.077L103.209,40.077L103.289,40.077L103.451,40.077L103.532,40.077L103.617,40.077L103.694,40.077L103.773,40.077L103.935,40.077L104.016,40.077L104.101,40.077L104.178,40.077L104.257,40.077L104.42,40.077L104.5,40.077L104.585,40.077L104.662,40.077L104.742,40.077L104.904,40.077L104.985,40.077L105.071,40.077L105.147,40.077L105.226,40.077L105.389,40.077L105.469,40.077L105.555,40.077L105.631,40.077L105.71,40.077L105.873,40.077L105.953,40.077L106.039,40.077L106.116,40.077L106.195,40.077L106.357,40.077L106.438,40.077L106.523,40.077L106.6,40.077L106.679,40.077L106.841,40.077L106.922,40.077L107.008,40.077L107.084,40.077L107.163,40.077L107.326,40.077L107.406,40.077L107.491,40.077L107.569,40.077L107.648,40.077L107.81,40.077L107.89,40.077L107.976,40.077L108.052,40.077L108.132,40.077L108.294,40.077L108.376,40.077L108.461,40.077L108.537,40.077L108.617,40.077L108.778,40.077L108.86,40.077L108.945,40.077L109.022,40.077L109.101,40.077L109.263,40.077L109.344,40.077L109.429,40.077L109.506,40.077L109.585,40.077L109.747,40.077L109.828,40.077L109.914,40.077L109.99,40.077L110.069,40.077L110.232,40.077L110.312,40.077L110.398,40.077L110.475,40.077L110.554,40.077L110.716,40.077L110.796,40.077L110.881,40.077L110.959,40.077L111.039,40.077L111.2,40.077L111.281,40.077L111.366,40.077L111.443,40.077L111.522,40.077L111.684,40.077L111.766,40.077L111.851,40.077L111.927,40.077L112.007,40.077L112.17,40.077L112.25,40.077L112.335,40.077L112.411,40.077L112.491,40.077L112.653,40.077L112.734,40.077L112.818,40.077L112.896,40.077L112.976,40.077L113.137,40.077L113.219,40.077L113.304,40.077L113.381,40.077L113.46,40.077L113.622,40.077L113.703,40.077L113.788,40.077L113.865,40.077L113.944,40.077L114.106,40.077L114.187,40.077L114.272,40.077L114.349,40.077L114.428,40.077L114.591,40.077L114.671,40.077L114.756,40.077L114.833,40.077L114.913,40.077L115.076,40.077L115.156,40.077L115.242,40.077L115.318,40.077L115.397,40.077L115.56,40.077L115.64,40.077L115.726,40.077L115.802,40.077L115.882,40.077L116.044,40.077L116.125,40.077L116.211,40.077L116.287,40.077L116.366,40.077L116.528,40.077L116.609,40.077L116.695,40.077L116.771,40.077L116.85,40.077L117.013,40.077L117.093,40.077L117.179,40.077L117.255,40.077L117.335,40.077L117.497,40.077L117.578,40.077L117.663,40.077L117.74,40.077L117.819,40.077L117.981,40.077L118.062,40.077L118.148,40.077L118.224,40.077L118.303,40.077L118.466,40.077L118.547,40.077L118.633,40.077L118.709,40.077L118.788,40.077L118.95,40.077L119.031,40.077L119.117,40.077L119.193,40.077L119.272,40.077L119.434,40.077L119.515,40.077L119.601,40.077L119.677,40.077L119.757,40.077L119.919,40.077L120,40.077L120.085,40.077L120.161,40.077L120.241,40.077L120.403,40.077L120.484,40.077L120.569,40.077L120.646,40.077L120.725,40.077L120.887,40.077L120.967,40.077L121.053,40.077L121.129,40.077L121.209,40.077L121.371,40.077L121.452,40.077L121.537,40.077L121.614,40.077L121.694,40.077L121.856,40.077L121.937,40.077L122.023,40.077L122.099,40.077L122.178,40.077L122.34,40.077L122.421,40.077L122.507,40.077L122.583,40.077L122.662,40.077L122.825,40.077L122.906,40.077L122.992,40.077L123.067,40.077L123.146,40.077L123.309,40.077L123.39,40.077L123.476,40.077L123.552,40.077L123.631,40.077L123.793,40.077L123.874,40.077L123.96,40.077L124.036,40.077L124.115,40.077L124.277,40.077L124.358,40.077L124.443,40.077L124.52,40.077L124.599,40.077L124.762,40.077L124.843,40.077L124.928,40.077L125.005,40.077L125.084,40.077L125.247,40.077L125.328,40.077L125.414,40.077L125.49,40.077L125.568,40.077L125.729,40.077L125.812,40.077L125.898,40.077L125.973,40.077L126.052,40.077L126.215,40.077L126.296,40.077L126.382,40.077L126.458,40.077L126.537,40.077L126.7,40.077L126.78,40.077L126.866,40.077L126.942,40.077L127.021,40.077L127.184,40.077L127.265,40.077L127.351,40.077L127.426,40.077L127.506,40.077L127.668,40.077L127.748,40.077L127.834,40.077L127.91,40.077L127.989,40.077L128.153,40.077L128.233,40.077L128.318,40.077L128.395,40.077L128.474,40.077L128.637,40.077L128.718,40.077L128.804,40.077L128.88,40.077L128.959,40.077L129.121,40.077L129.203,40.077L129.289,40.077L129.364,40.077L129.443,40.077L129.606,40.077L129.687,40.077L129.773,40.077L129.849,40.077L129.927,40.077L130.09,40.077L130.171,40.077L130.257,40.077L130.333,40.077L130.412,40.077L130.574,40.077L130.655,40.077L130.741,40.077L130.817,40.077L131.058,40.077L131.139,40.077L131.224,40.077L131.301,40.077L131.38,40.077L131.542,40.077L131.623,40.077L131.709,40.077L131.785,40.077L131.864,40.077L132.027,40.077L132.109,40.077L132.195,40.077L132.271,40.077L132.349,40.077L132.512,40.077L132.593,40.077L132.679,40.077L132.755,40.077L132.833,40.077L132.996,40.077L133.077,40.077L133.163,40.077L133.239,40.077L133.318,40.077L133.48,40.077L133.561,50.077L133.647,50.077L133.723,50.077L133.802,50.077L133.964,50.077L134.045,50.077L134.132,50.077L134.207,50.077L134.286,50.077L134.449,50.077L134.529,50.077L134.615,50.077L134.691,50.077L134.77,50.077L134.933,50.077L135.014,50.077L135.099,50.077L135.175,50.077L135.254,50.077L135.417,50.077L135.499,50.077L135.585,50.077L135.661,50.077L135.74,50.077L135.902,50.077L135.983,30.846L136.069,30.846L136.145,30.846L136.223,30.846L136.386,30.846L136.467,30.846L136.553,50.077L136.629,50.077L136.708,50.077L136.87,50.077L136.952,50.077L137.038,50.077L137.113,50.077L137.192,50.077L137.355,50.077L137.436,50.077L137.522,50.077L137.597,50.077L137.677,50.077L137.839,50.077L137.919,50.077L138.005,50.077L138.082,50.077L138.161,50.077L138.323,50.077L138.404,50.077L138.49,50.077L138.566,50.077L138.645,50.077L138.808,50.077L138.889,50.077L138.975,50.077L139.051,50.077L139.13,50.077L139.292,50.077L139.373,50.077L139.459,50.077L139.535,50.077L139.614,50.077L139.776,50.077L139.858,50.077L139.944,50.077L140.019,50.077L140.098,50.077L140.261,50.077L140.342,50.077L140.428,50.077L140.504,50.077L140.583,50.077L140.745,50.077L140.826,50.077L140.912,50.077L140.988,50.077L141.067,50.077L141.229,50.077L141.31,50.077L141.395,50.077L141.472,50.077L141.552,50.077L141.714,50.077L141.795,50.077L141.88,50.077L141.956,50.077L142.035,50.077L142.198,50.077L142.279,50.077L142.365,50.077L142.441,50.077L142.52,50.077L142.683,50.077L142.764,50.077L142.85,50.077L142.925,50.077L143.004,50.077L143.167,50.077L143.248,50.077L143.334,50.077L143.41,50.077L143.489,50.077L143.651,50.077L143.732,50.077L143.818,50.077L143.894,50.077L143.973,50.077L144.136,50.077L144.216,50.077L144.302,50.077L144.378,50.077L144.457,50.077L144.619,50.077L144.7,50.077L144.786,50.077L144.862,50.077L144.941,50.077L145.104,50.077L145.185,50.077L145.27,50.077L145.346,50.077L145.426,50.077L145.588,50.077L145.67,50.077L145.756,50.077L145.832,50.077L145.91,50.077L146.073,50.077L146.154,50.077L146.24,50.077L146.316,50.077L146.395,50.077L146.557,50.077L146.639,50.077L146.724,50.077L146.801,50.077L146.879,50.077L147.208,50.077L147.284,50.077L147.363,50.077L147.526,50.077L147.606,50.077L147.692,50.077L147.768,50.077L147.847,50.077L148.01,50.077L148.09,50.077L148.176,50.077L148.253,50.077L148.331,50.077L148.494,50.077L148.574,50.077L148.66,50.077L148.736,50.077L148.816,50.077L148.979,50.077L149.06,50.077L149.146,50.077L149.221,50.077L149.3,50.077L149.463,50.077L149.544,50.077L149.629,50.077L149.705,50.077L149.785,50.077L149.947,50.077L150.028,50.077L150.114,50.077L150.19,50.077L150.269,50.077L150.431,50.077L150.512,50.077L150.598,50.077L150.674,50.077L150.753,50.077L150.915,50.077L150.996,50.077L151.082,50.077L151.158,50.077L151.237,50.077L151.4,50.077L151.48,50.077L151.566,50.077L151.642,50.077L151.721,50.077L151.884,50.077L151.964,50.077L152.05,50.077L152.126,50.077L152.206,50.077L152.369,50.077L152.45,50.077L152.536,50.077L152.612,50.077L152.691,50.077L152.853,50.077L152.934,50.077L153.02,50.077L153.096,50.077L153.175,50.077L153.337,50.077L153.419,50.077L153.504,58.538L153.58,58.538L153.659,58.538L153.822,58.538L153.903,58.538L153.989,58.538L154.065,58.538L154.144,58.538L154.307,58.538L154.387,58.538L154.474,58.538L154.549,58.538L154.628,58.538L154.791,58.538L154.871,58.538L154.957,58.538L155.033,58.538L155.112,58.538L155.275,58.538L155.355,58.538L155.441,58.538L155.517,58.538L155.597,58.538L155.76,58.538L155.841,58.538L155.927,58.538L156.003,58.538L156.082,58.538L156.244,58.538L156.325,58.538L156.411,58.538L156.487,58.538L156.566,58.538L156.728,58.538L156.81,58.538L156.896,58.538L156.971,58.538L157.05,58.538L157.213,46.231L157.294,46.231L157.38,58.538L157.456,58.538L157.534,58.538L157.697,58.538L157.778,58.538L157.864,46.231L157.94,46.231L158.019,46.231L158.181,46.231L158.261,46.231L158.348,46.231L158.424,46.231L158.502,46.231L158.665,46.231L158.746,46.231L158.832,46.231L158.908,46.231L158.987,46.231L159.15,46.231L159.232,46.231L159.318,46.231L159.393,46.231L159.472,46.231L159.634,46.231L159.716,46.231L159.802,46.231L159.878,46.231L159.956,46.231L160.119,46.231L160.2,46.231L160.286,58.538L160.362,58.538L160.441,58.538L160.603,58.538L160.685,58.538L160.771,58.538L160.846,58.538L160.925,58.538L161.087,58.538L161.169,58.538L161.255,58.538L161.33,58.538L161.409,58.538L161.571,58.538L161.652,58.538L161.738,58.538L161.814,58.538L161.893,58.538L162.056,58.538L162.136,58.538L162.222,58.538L162.298,58.538L162.377,58.538L162.54,58.538L162.622,58.538L162.708,58.538L162.784,58.538L162.862,58.538L163.025,30.846L163.106,30.846L163.192,58.538L163.268,58.538L163.347,58.538L163.509,58.538L163.591,58.538L163.677,58.538L163.753,58.538L163.831,58.538L163.993,30.846L164.075,30.846L164.161,46.231L164.237,46.231L164.315,46.231L164.478,30.846L164.559,30.846L164.645,46.231L164.72,46.231L164.799,46.231L164.962,46.231L165.042,46.231L165.128,46.231L165.204,46.231L165.283,46.231L165.446,46.231L165.527,46.231L165.613,46.231L165.688,46.231L165.768,46.231L165.931,46.231L166.012,46.231L166.099,46.231L166.174,46.231L166.253,46.231L166.415,46.231L166.497,46.231L166.583,46.231L166.659,46.231L166.737,46.231L166.899,46.231L166.981,46.231L167.067,46.231L167.143,46.231L167.221,46.231L167.384,46.231L167.465,46.231L167.552,46.231L167.627,46.231L167.706,46.231L167.868,46.231L167.949,46.231L168.036,46.231L168.111,46.231L168.19,46.231L168.352,46.231L168.433,46.231L168.519,46.231L168.594,46.231L168.674,46.231L168.836,46.231L168.917,46.231L169.003,46.231L169.078,46.231L169.158,46.231L169.321,46.231L169.403,46.231L169.489,46.231L169.564,46.231L169.643,46.231L169.805,46.231L169.887,46.231L169.973,46.231L170.049,46.231L170.127,46.231L170.289,46.231L170.371,46.231L170.457,46.231L170.532,46.231L170.611,46.231L170.773,46.231L170.855,46.231L170.941,46.231L171.016,46.231L171.095,46.231L171.257,46.231L171.338,46.231L171.424,46.231L171.5,46.231L171.579,46.231L171.741,46.231L171.822,46.231L171.907,46.231L171.984,46.231L172.063,46.231L172.226,46.231L172.306,46.231L172.392,46.231L172.468,46.231L172.547,46.231L172.711,46.231L172.791,46.231L172.877,46.231L172.953,46.231L173.032,46.231L173.194,46.231L173.276,46.231L173.361,46.231L173.437,46.231L173.516,46.231L173.679,46.231L173.76,46.231L173.845,46.231L173.921,46.231L174.001,46.231L174.163,46.231L174.244,46.231L174.33,46.231L174.406,46.231L174.485,46.231L174.647,46.231L174.728,46.231L174.814,46.231L174.89,46.231L174.969,46.231L175.132,46.231L175.212,46.231L175.298,46.231L175.374,46.231L175.453,46.231L175.616,46.231L175.697,46.231L175.782,46.231L175.858,46.231L175.938,46.231L176.1,46.231L176.182,46.231L176.267,46.231L176.343,46.231L176.422,46.231L176.585,46.231L176.666,46.231L176.751,46.231L176.827,46.231L176.907,46.231L177.069,46.231L177.15,46.231L177.236,46.231L177.312,46.231L177.391,46.231L177.553,46.231L177.634,46.231L177.72,46.231L177.796,46.231L177.875,46.231L178.038,46.231L178.119,46.231L178.205,46.231L178.281,46.231L178.36,46.231L178.522,46.231L178.603,46.231L178.688,46.231L178.764,46.231L178.844,46.231L179.006,46.231L179.087,46.231L179.173,46.231L179.249,46.231L179.328,46.231L179.491,46.231L179.572,46.231L179.658,46.231L179.734,46.231L179.813,46.231L179.975,46.231L180.056,46.231L180.143,46.231L180.221,46.231L180.297,46.231L180.459,46.231L180.541,46.231L180.627,46.231L180.703,46.231L180.782,46.231L180.944,46.231L181.025,46.231L181.111,46.231L181.187,46.231L181.266,46.231L181.428,46.231L181.509,46.231L181.595,46.231L181.671,46.231L181.75,46.231L181.912,46.231L181.993,46.231L182.079,46.231L182.155,46.231L182.234,46.231L182.397,46.231L182.477,46.231L182.563,46.231L182.639,46.231L182.718,46.231L182.881,46.231L182.963,46.231L183.049,46.231L183.125,46.231L183.203,46.231L183.365,46.231L183.446,46.231L183.532,46.231L183.608,46.231L183.687,46.231L183.849,46.231L183.931,46.231L184.016,46.231L184.092,46.231L184.171,46.231L184.334,46.231L184.415,46.231L184.501,46.231L184.656,46.231L184.819,46.231L184.899,46.231L184.985,46.231L185.061,46.231L185.383,34.692L185.468,46.231L185.544,46.231L185.624,46.231L185.786,46.231L185.867,46.231L185.952,46.231L186.029,46.231L186.108,46.231L186.271,46.231L186.352,46.231L186.438,46.231L186.514,46.231L186.593,46.231L186.755,46.231L186.836,46.231L186.923,46.231L186.999,46.231L187.078,46.231L187.24,46.231L187.321,46.231L187.407,46.231L187.483,46.231L187.561,46.231L187.724,46.231L187.805,46.231L187.891,46.231L187.967,46.231L188.046,46.231L188.208,46.231L188.289,46.231L188.375,46.231L188.451,46.231L188.53,46.231L188.693,46.231L188.773,46.231L188.858,46.231L188.935,46.231L189.014,46.231L189.177,46.231L189.257,46.231L189.342,46.231L189.419,46.231L189.499,46.231L189.662,46.231L189.743,46.231L189.829,23.154L189.904,23.154L189.983,23.154L190.146,23.154L190.227,23.154L190.313,30.846L190.389,30.846L190.468,30.846L190.63,30.846L190.711,30.846L190.797,30.846L190.873,30.846L190.952,30.846L191.115,30.846L191.195,30.846L191.281,30.846L191.359,30.846L191.436,30.846L191.599,30.846L191.679,30.846L191.765,30.846L191.842,30.846L191.92,30.846L192.083,30.846L192.163,30.846L192.248,30.846L192.325,30.846L192.405,30.846L192.567,30.846L192.648,30.846L192.733,30.846L192.809,30.846L192.889,30.846L193.052,30.846L193.133,30.846L193.219,30.846L193.295,30.846L193.374,30.846L193.536,30.846L193.617,30.846L193.703,30.846L193.779,30.846L193.858,30.846L194.021,30.846L194.102,30.846L194.188,30.846L194.264,30.846L194.343,30.846L194.505,30.846L194.586,30.846L194.672,30.846L194.748,30.846L194.827,30.846L194.989,30.846L195.07,30.846L195.156,30.846L195.232,30.846L195.311,30.846L195.473,30.846L195.554,30.846L195.639,30.846L195.715,30.846L195.795,30.846L195.957,30.846L196.038,30.846L196.123,30.846L196.199,30.846L196.28,30.846L196.443,30.846L196.523,30.846L196.609,30.846L196.685,30.846L196.765,30.846L196.926,30.846L197.007,30.846L197.094,30.846L197.17,30.846L197.249,30.846L197.411,30.846L197.492,30.846L197.578,30.846L197.654,30.846L197.733,30.846L197.976,30.846L198.062,30.846L198.138,30.846L198.219,30.846L198.379,30.846L198.46,30.846L198.546,30.846L198.622,30.846L198.701,30.846L198.864,30.846L198.944,30.846L199.029,30.846L199.106,30.846L199.185,30.846L199.348,30.846L199.428,30.846L199.514,30.846L199.59,30.846L199.67,30.846L199.832,30.846L199.914,30.846L200,30.846" stroke="#f58518" stroke-width="2"/></g></g><path class="foreground" aria-hidden="true" d="" display="none"/></g></g><g class="mark-group role-legend" role="graphics-symbol" aria-roledescription="legend" aria-label="Symbol legend titled 'identifier' for stroke color with 2 values: altex-LG-F2WR508SBW, altex-LG-F2WR508SBM"><g transform="translate(220,0)"><path class="background" aria-hidden="true" d="M0,0h168v40h-168Z" pointer-events="none"/><g><g class="mark-group role-legend-entry"><g transform="translate(0,16)"><path class="background" aria-hidden="true" d="M0,0h0v0h0Z" pointer-events="none"/><g><g class="mark-group role-scope" role="graphics-object" aria-roledescription="group mark container"><g transform="translate(0,0)"><path class="background" aria-hidden="true" d="M0,0h168v11h-168Z" pointer-events="none" opacity="1"/><g><g class="mark-symbol role-legend-symbol" pointer-events="none"><path transform="translate(6,6)" d="M-5,0L5,0" stroke="#4c78a8" stroke-width="1.5" opacity="1"/></g><g class="mark-text role-legend-label" pointer-events="none"><text text-anchor="start" transform="translate(16,9)" font-family="Liberation Mono" font-size="10px" fill="#000" opacity="1">altex-LG-F2WR508SBW</text></g></g><path class="foreground" aria-hidden="true" d="" pointer-events="none" display="none"/></g><g transform="translate(0,13)"><path class="background" aria-hidden="true" d="M0,0h168v11h-168Z" pointer-events="none" opacity="1"/><g><g class="mark-symbol role-legend-symbol" pointer-events="none"><path transform="translate(6,6)" d="M-5,0L5,0" stroke="#f58518" stroke-width="1.5" opacity="1"/></g><g class="mark-text role-legend-label" pointer-events="none"><text text-anchor="start" transform="translate(16,9)" font-family="Liberation Mono" font-size="10px" fill="#000" opacity="1">altex-LG-F2WR508SBM</text></g></g><path class="foreground" aria-hidden="true" d="" pointer-events="none" display="none"/></g></g></g><path class="foreground" aria-hidden="true" d="" pointer-events="none" display="none"/></g></g><g class="mark-text role-legend-title" pointer-events="none"><text text-anchor="start" transform="translate(0,9)" font-family="Liberation Mono" font-size="11px" font-weight="bold" fill="#000" opacity="1">identifier</text></g></g><path class="foreground" aria-hidden="true" d="" pointer-events="none" display="none"/></g></g></g><path class="foreground" aria-hidden="true" d="" display="none"/></g></g></g></svg>