<svg xmlns="http://www.w3.org/2000/svg" xmlns:xlink="http://www.w3.org/1999/xlink" version="1.1" class="marks" width="460" height="242" viewBox="0 0 460 242"><rect width="460" height="242" fill="white"/><g fill="none" stroke-miterlimit="10" transform="translate(67,5)"><g class="mark-group role-frame root" role="graphics-object" aria-roledescription="group mark container"><g transform="translate(0,0)"><path class="background" aria-hidden="true" d="M0.5,0.5h200v200h-200Z" stroke="#ddd"/><g><g class="mark-group role-axis" aria-hidden="true"><g transform="translate(0.5,200.5)"><path class="background" aria-hidden="true" d="M0,0h0v0h0Z" pointer-events="none"/><g><g class="mark-rule role-axis-grid" pointer-events="none"><line transform="translate(66,-200)" x2="0" y2="200" stroke="#ddd" stroke-width="1" opacity="1"/><line transform="translate(131,-200)" x2="0" y2="200" stroke="#ddd" stroke-width="1" opacity="1"/><line transform="translate(198,-200)" x2="0" y2="200" stroke="#ddd" stroke-width="1" opacity="1"/></g></g><path class="foreground" aria-hidden="true" d="" pointer-events="none" display="none"/></g></g><g class="mark-group role-axis" aria-hidden="true"><g transform="translate(0.5,0.5)"><path class="background" aria-hidden="true" d="M0,0h0v0h0Z" pointer-events="none"/><g><g class="mark-rule role-axis-grid" pointer-events="none"><line transform="translate(0,200)" x2="200" y2="0" stroke="#ddd" stroke-width="1" opacity="1"/><line transform="translate(0,162)" x2="200" y2="0" stroke="#ddd" stroke-width="1" opacity="1"/><line transform="translate(0,123)" x2="200" y2="0" stroke="#ddd" stroke-width="1" opacity="1"/><line transform="translate(0,85)" x2="200" y2="0" stroke="#ddd" stroke-width="1" opacity="1"/><line transform="translate(0,46)" x2="200" y2="0" stroke="#ddd" stroke-width="1" opacity="1"/><line transform="translate(0,8)" x2="200" y2="0" stroke="#ddd" stroke-width="1" opacity="1"/></g></g><path class="foreground" aria-hidden="true" d="" pointer-events="none" display="none"/></g></g><g class="mark-group role-axis" role="graphics-symbol" aria-roledescription="axis" aria-label="X-axis titled 'Time' for a time scale with values from Monday, 01 January 2024, 2:19:43 PM to Thursday, 03 October 2024, 1:01:02 PM"><g transform="translate(0.5,200.5)"><path class="background" aria-hidden="true" d="M0,0h0v0h0Z" pointer-events="none"/><g><g class="mark-rule role-axis-tick" pointer-events="none"><line transform="translate(66,0)" x2="0" y2="5" stroke="#888" stroke-width="1" opacity="1"/><line transform="translate(131,0)" x2="0" y2="5" stroke="#888" stroke-width="1" opacity="1"/><line transform="translate(198,0)" x2="0" y2="5" stroke="#888" stroke-width="1" opacity="1"/></g><g class="mark-text role-axis-label" pointer-events="none"><text text-anchor="middle" transform="translate(65.52237253840659,15)" font-family="Liberation Mono" font-size="10px" fill="#000" opacity="1">April</text><text text-anchor="middle" transform="translate(131.47745889628416,15)" font-family="Liberation Mono" font-size="10px" fill="#000" opacity="1">July</text><text text-anchor="middle" transform="translate(198.15732642292966,15)" font-family="Liberation Mono" font-size="10px" fill="#000" opacity="1">October</text></g><g class="mark-rule role-axis-domain" pointer-events="none"><line transform="translate(0,0)" x2="200" y2="0" stroke="#888" stroke-width="1" opacity="1"/></g><g class="mark-text role-axis-title" pointer-events="none"><text text-anchor="middle" transform="translate(100,30)" font-family="Liberation Mono" font-size="11px" font-weight="bold" fill="#000" opacity="1">Time</text></g></g><path class="foreground" aria-hidden="true" d="" pointer-events="none" display="none"/></g></g><g class="mark-group role-axis" role="graphics-symbol" aria-roledescription="axis" aria-label="Y-axis titled 'Price' for a linear scale with values from 0 to 2,600"><g transform="translate(0.5,0.5)"><path class="background" aria-hidden="true" d="M0,0h0v0h0Z" pointer-events="none"/><g><g class="mark-rule role-axis-tick" pointer-events="none"><line transform="translate(0,200)" x2="-5" y2="0" stroke="#888" stroke-width="1" opacity="1"/><line transform="translate(0,162)" x2="-5" y2="0" stroke="#888" stroke-width="1" opacity="1"/><line transform="translate(0,123)" x2="-5" y2="0" stroke="#888" stroke-width="1" opacity="1"/><line transform="translate(0,85)" x2="-5" y2="0" stroke="#888" stroke-width="1" opacity="1"/><line transform="translate(0,46)" x2="-5" y2="0" stroke="#888" stroke-width="1" opacity="1"/><line transform="translate(0,8)" x2="-5" y2="0" stroke="#888" stroke-width="1" opacity="1"/></g><g class="mark-text role-axis-label" pointer-events="none"><text text-anchor="end" transform="translate(-7,203)" font-family="Liberation Mono" font-size="10px" fill="#000" opacity="1">0</text><text text-anchor="end" transform="translate(-7,164.53846153846155)" font-family="Liberation Mono" font-size="10px" fill="#000" opacity="1">500</text><text text-anchor="end" transform="translate(-7,126.07692307692308)" font-family="Liberation Mono" font-size="10px" fill="#000" opacity="1">1,000</text><text text-anchor="end" transform="translate(-7,87.61538461538463)" font-family="Liberation Mono" font-size="10px" fill="#000" opacity="1">1,500</text><text text-anchor="end" transform="translate(-7,49.153846153846146)" font-family="Liberation Mono" font-size="10px" fill="#000" opacity="1">2,000</text><text text-anchor="end" transform="translate(-7,10.692307692307686)" font-family="Liberation Mono" font-size="10px" fill="#000" opacity="1">2,500</text></g><g class="mark-rule role-axis-domain" pointer-events="none"><line transform="translate(0,200)" x2="0" y2="-200" stroke="#888" stroke-width="1" opacity="1"/></g><g class="mark-text role-axis-title" pointer-events="none"><text text-anchor="middle" transform="translate(-51,100) rotate(-90) translate(0,-2)" font-family="Liberation Mono" font-size="11px" font-weight="bold" fill="#000" opacity="1">Price</text></g></g><path class="foreground" aria-hidden="true" d="" pointer-events="none" display="none"/></g></g><g class="mark-group role-scope pathgroup" role="graphics-object" aria-roledescription="group mark container"><g transform="translate(0,0)"><path class="background" aria-hidden="true" d="M0,0h200v200h-200Z"/><g><g class="mark-line role-mark marks" role="graphics-object" aria-roledescription="line mark container"><path aria-label="Time: Jan 01, 2024; Price: 2399; identifier: altex-LG-F2WR508SBW" role="graphics-symbol" aria-roledescription="line mark" d="M0,15.462L0.076,15.462L0.191,15.462L0.432,15.462L0.553,15.462L0.68,15.462L0.796,15.462L0.915,15.462L1.157,15.462L1.278,15.462L1.405,15.462L1.521,15.462L1.64,15.462L1.882,15.462L2.003,15.462L2.13,15.462L2.246,15.462L2.365,15.462L2.607,34.692L2.728,34.692L2.855,34.692L2.971,34.692L3.09,34.692L3.332,34.692L3.452,34.692L3.579,34.692L3.695,34.692L3.814,34.692L4.057,34.692L4.177,34.692L4.303,34.692L4.42,34.692L4.539,34.692L4.781,34.692L4.903,34.692L5.03,34.692L5.145,34.692L5.264,34.692L5.507,34.692L5.627,34.692L5.756,34.692L5.87,34.692L5.989,34.692L6.231,34.692L6.352,34.692L6.479,34.692L6.595,34.692L6.714,34.692L6.956,34.692L7.077,34.692L7.204,34.692L7.32,34.692L7.438,34.692L7.681,34.692L7.801,34.692L7.928,34.692L8.044,34.692L8.163,34.692L8.405,46.231L8.526,46.231L8.652,46.231L8.768,46.231L8.888,46.231L9.13,46.231L9.25,46.231L9.377,46.231L9.493,46.231L9.613,46.231L9.855,46.231L9.976,46.231L10.104,46.231L10.219,46.231L10.337,46.231L10.58,46.231L10.701,46.231L10.828,46.231L10.944,46.231L11.062,46.231L11.304,46.231L11.426,46.231L11.553,46.231L11.668,46.231L11.787,46.231L12.029,46.231L12.15,46.231L12.277,46.231L12.393,46.231L12.512,46.231L12.754,46.231L12.875,46.231L13.002,46.231L13.118,46.231L13.237,46.231L13.479,46.231L13.599,46.231L13.726,46.231L13.842,46.231L13.962,46.231L14.203,46.231L14.324,46.231L14.45,46.231L14.567,46.231L14.686,46.231L14.929,46.231L15.05,46.231L15.177,46.231L15.292,46.231L15.411,46.231L15.653,46.231L15.775,46.231L15.902,46.231L16.018,46.231L16.136,46.231L16.378,46.231L16.499,46.231L16.627,46.231L16.742,46.231L16.861,46.231L17.103,46.231L17.224,46.231L17.351,46.231L17.467,46.231L17.585,46.231L17.827,46.231L17.948,46.231L18.074,46.231L18.19,46.231L18.31,46.231L18.552,46.231L18.673,46.231L18.797,46.231L18.914,46.231L19.035,46.231L19.277,46.231L19.397,46.231L19.522,46.231L19.639,46.231L19.76,46.231L20.001,46.231L20.122,46.231L20.248,46.231L20.364,46.231L20.485,46.231L20.726,46.231L20.847,46.231L20.972,46.231L21.09,46.231L21.209,46.231L21.451,46.231L21.572,46.231L21.697,46.231L21.813,46.231L21.934,46.231L22.176,34.692L22.296,34.692L22.422,34.692L22.538,34.692L22.659,34.692L22.901,34.692L23.021,34.692L23.147,34.692L23.263,34.692L23.384,34.692L23.625,34.692L23.746,34.692L23.871,34.692L23.988,34.692L24.109,34.692L24.351,34.692L24.471,34.692L24.595,34.692L24.712,34.692L24.833,34.692L25.075,34.692L25.196,34.692L25.322,34.692L25.437,34.692L25.558,34.692L25.799,34.692L25.92,34.692L26.046,34.692L26.162,34.692L26.283,34.692L26.524,34.692L26.645,34.692L26.771,34.692L26.887,34.692L27.008,34.692L27.249,34.692L27.37,34.692L27.495,34.692L27.612,34.692L27.732,34.692L27.974,34.692L28.095,34.692L28.22,34.692L28.336,34.692L28.457,34.692L28.699,34.692L28.819,34.692L28.944,34.692L29.061,34.692L29.182,34.692L29.424,34.692L29.544,34.692L29.669,34.692L29.786,34.692L29.907,34.692L30.148,34.692L30.269,34.692L30.395,34.692L30.511,34.692L30.631,34.692L30.873,34.692L30.994,34.692L31.119,34.692L31.237,34.692L31.356,34.692L31.598,34.692L31.719,34.692L31.844,34.692L31.961,34.692L32.081,34.692L32.443,34.692L32.569,34.692L32.685,34.692L32.806,34.692L33.047,34.692L33.168,34.692L33.294,34.692L33.41,34.692L33.531,34.692L33.772,34.692L33.893,34.692L34.017,34.692L34.134,34.692L34.255,34.692L34.497,34.692L34.618,34.692L34.742,34.692L34.859,34.692L34.98,34.692L35.222,34.692L35.343,34.692L35.469,34.692L35.586,34.692L35.705,34.692L35.947,34.692L36.067,34.692L36.193,34.692L36.309,34.692L36.43,34.692L36.671,34.692L36.792,34.692L36.918,34.692L37.034,34.692L37.155,34.692L37.396,34.692L37.517,34.692L37.642,34.692L37.759,34.692L37.879,34.692L38.121,34.692L38.242,34.692L38.367,34.692L38.483,34.692L38.605,34.692L38.846,34.692L38.966,34.692L39.091,34.692L39.208,34.692L39.329,34.692L39.57,34.692L39.691,34.692L39.816,34.692L39.933,34.692L40.053,34.692L40.295,34.692L40.416,34.692L40.542,34.692L40.658,34.692L40.778,34.692L41.02,34.692L41.141,34.692L41.266,34.692L41.383,34.692L41.503,34.692L41.745,34.692L41.865,34.692L41.991,34.692L42.108,34.692L42.228,34.692L42.469,34.692L42.59,34.692L42.715,34.692L42.832,34.692L42.953,34.692L43.194,34.692L43.315,34.692L43.441,34.692L43.557,34.692L43.678,34.692L43.919,34.692L44.04,34.692L44.165,34.692L44.281,34.692L44.402,34.692L44.644,34.692L44.764,34.692L44.889,34.692L45.006,34.692L45.127,34.692L45.38,34.692L45.545,34.692L45.617,34.692L45.732,34.692L45.852,34.692L46.093,34.692L46.214,34.692L46.34,34.692L46.456,34.692L46.576,34.692L46.818,34.692L46.94,34.692L47.065,34.692L47.181,34.692L47.301,34.692L47.543,34.692L47.664,34.692L47.789,34.692L47.905,34.692L48.026,34.692L48.268,34.692L48.39,34.692L48.514,34.692L48.63,34.692L48.751,34.692L48.993,34.692L49.113,34.692L49.237,34.692L49.355,34.692L49.476,34.692L49.717,34.692L49.839,34.692L49.962,34.692L50.08,34.692L50.2,34.692L50.443,34.692L50.563,34.692L50.689,34.692L50.805,34.692L50.925,34.692L51.167,34.692L51.288,34.692L51.414,34.692L51.53,34.692L51.65,34.692L51.892,34.692L52.013,34.692L52.139,34.692L52.254,34.692L52.375,34.692L52.616,34.692L52.737,34.692L52.863,34.692L52.979,34.692L53.1,34.692L53.341,34.692L53.463,34.692L53.588,34.692L53.704,34.692L53.824,34.692L54.066,34.692L54.187,34.692L54.312,34.692L54.428,34.692L54.55,34.692L54.791,34.692L54.912,34.692L55.036,34.692L55.153,34.692L55.274,34.692L55.515,34.692L55.636,34.692L55.763,34.692L55.879,34.692L55.999,34.692L56.241,34.692L56.361,34.692L56.487,34.692L56.604,34.692L56.723,34.692L56.965,34.692L57.086,34.692L57.212,34.692L57.329,34.692L57.449,34.692L57.69,34.692L57.811,34.692L57.937,34.692L58.054,34.692L58.173,34.692L58.415,34.692L58.535,34.692L58.661,34.692L58.777,34.692L58.898,34.692L59.14,34.692L59.26,34.692L59.386,34.692L59.502,34.692L59.622,34.692L59.864,34.692L59.985,34.692L60.111,34.692L60.227,34.692L60.347,34.692L60.589,34.692L60.71,34.692L60.836,34.692L60.952,34.692L61.072,34.692L61.314,34.692L61.435,34.692L61.561,34.692L61.677,34.692L61.797,34.692L62.04,34.692L62.16,34.692L62.286,34.692L62.403,34.692L62.522,34.692L62.763,34.692L62.884,34.692L63.01,34.692L63.126,34.692L63.246,34.692L63.488,34.692L63.609,34.692L63.735,34.692L63.851,34.692L63.971,34.692L64.213,34.692L64.334,34.692L64.458,34.692L64.576,34.692L64.697,34.692L64.938,34.692L65.059,34.692L65.184,34.692L65.301,34.692L65.421,34.692L65.662,34.692L65.784,34.692L65.91,34.692L66.027,34.692L66.146,34.692L66.388,34.692L66.508,34.692L66.635,34.692L66.751,34.692L66.87,34.692L67.112,34.692L67.233,34.692L67.359,34.692L67.476,34.692L67.595,34.692L67.837,34.692L67.958,34.692L68.084,34.692L68.2,34.692L68.32,34.692L68.563,34.692L68.808,34.692L68.925,34.692L69.045,34.692L69.287,34.692L69.408,34.692L69.532,34.692L69.649,34.692L69.77,34.692L70.011,34.692L70.132,34.692L70.257,34.692L70.374,34.692L70.494,34.692L70.736,34.692L70.857,34.692L70.983,34.692L71.099,34.692L71.219,34.692L71.461,34.692L71.581,34.692L71.708,34.692L71.824,34.692L71.944,34.692L72.185,34.692L72.307,34.692L72.433,34.692L72.55,34.692L72.669,34.692L72.911,34.692L73.032,34.692L73.157,34.692L73.394,34.692L73.635,34.692L73.757,34.692L73.882,34.692L73.998,34.692L74.118,34.692L74.36,34.692L74.48,34.692L74.604,34.692L74.722,34.692L74.843,34.692L75.096,34.692L75.281,34.692L75.395,34.692L75.629,34.692L75.811,34.692L75.93,34.692L76.055,34.692L76.172,34.692L76.293,34.692L76.534,34.692L76.655,34.692L76.781,34.692L76.897,34.692L77.017,34.692L77.259,34.692L77.38,34.692L77.506,34.692L77.623,34.692L77.742,34.692L78.105,34.692L78.231,34.692L78.347,34.692L78.467,34.692L78.708,34.692L78.829,34.692L78.955,34.692L79.072,34.692L79.192,34.692L79.433,34.692L79.554,34.692L79.679,34.692L79.796,34.692L79.916,34.692L80.158,34.692L80.279,34.692L80.405,34.692L80.521,34.692L80.641,34.692L80.883,34.692L81.004,34.692L81.131,34.692L81.246,34.692L81.366,34.692L81.608,34.692L81.729,34.692L81.855,34.692L81.971,34.692L82.091,34.692L82.332,34.692L82.454,34.692L82.583,34.692L82.696,34.692L82.816,34.692L83.057,34.692L83.179,34.692L83.301,34.692L83.42,34.692L83.541,34.692L83.782,34.692L83.903,34.692L84.029,34.692L84.145,34.692L84.266,34.692L84.507,34.692L84.627,34.692L84.753,34.692L84.869,34.692L84.99,34.692L85.232,34.692L85.352,34.692L85.478,34.692L85.594,34.692L85.715,34.692L85.956,34.692L86.079,34.692L86.204,34.692L86.319,34.692L86.44,34.692L86.681,34.692L86.803,34.692L86.929,34.692L87.045,34.692L87.165,34.692L87.406,34.692L87.529,34.692L87.654,34.692L87.769,34.692L87.889,34.692L88.131,57.769L88.252,57.769L88.379,57.769L88.494,57.769L88.615,57.769L88.856,57.769L88.976,57.769L89.103,57.769L89.219,57.769L89.339,57.769L89.58,57.769L89.701,57.769L89.827,57.769L89.943,57.769L90.063,57.769L90.305,57.769L90.426,57.769L90.552,57.769L90.668,57.769L90.788,57.769L91.03,57.769L91.151,57.769L91.278,57.769L91.394,57.769L91.513,57.769L91.755,57.769L91.876,57.769L92.002,57.769L92.118,57.769L92.238,57.769L92.479,57.769L92.601,57.769L92.729,57.769L92.844,57.769L92.962,57.769L93.205,34.692L93.326,34.692L93.452,34.692L93.569,34.692L93.688,34.692L93.929,34.692L94.05,34.692L94.177,34.692L94.292,34.692L94.412,34.692L94.654,34.692L94.775,34.692L94.9,34.692L95.016,34.692L95.137,34.692L95.379,34.692L95.499,34.692L95.626,34.692L95.741,34.692L95.862,34.692L96.104,34.692L96.225,34.692L96.352,34.692L96.467,34.692L96.587,34.692L96.828,34.692L96.95,34.692L97.077,34.692L97.192,34.692L97.311,34.692L97.553,34.692L97.674,34.692L97.802,34.692L97.916,34.692L98.036,34.692L98.278,34.692L98.399,34.692L98.526,34.692L98.641,34.692L98.761,34.692L99.003,34.692L99.124,34.692L99.251,34.692L99.366,34.692L99.485,34.692L99.727,34.692L99.848,34.692L99.975,34.692L100.09,34.692L100.21,34.692L100.453,34.692L100.573,34.692L100.699,34.692L100.815,34.692L100.935,34.692L101.178,34.692L101.298,34.692L101.426,34.692L101.541,34.692L101.66,34.692L101.902,34.692L102.023,34.692L102.15,34.692L102.265,34.692L102.385,34.692L102.627,34.692L102.748,34.692L102.875,34.692L102.991,34.692L103.109,34.692L103.351,34.692L103.472,34.692L103.599,34.692L103.715,34.692L103.834,34.692L104.077,34.692L104.197,34.692L104.324,34.692L104.439,34.692L104.56,34.692L104.801,34.692L104.922,34.692L105.048,34.692L105.164,34.692L105.284,34.692L105.526,34.692L105.646,34.692L105.773,34.692L105.888,34.692L106.01,34.692L106.251,34.692L106.372,34.692L106.499,34.692L106.614,34.692L106.733,34.692L106.978,34.692L107.097,34.692L107.224,34.692L107.339,34.692L107.458,34.692L107.701,34.692L107.822,34.692L107.949,34.692L108.064,34.692L108.183,34.692L108.426,34.692L108.546,34.692L108.673,34.692L108.788,34.692L108.908,34.692L109.151,34.692L109.271,34.692L109.398,34.692L109.513,34.692L109.633,34.692L109.874,34.692L109.995,34.692L110.122,34.692L110.237,34.692L110.357,34.692L110.599,34.692L110.72,34.692L110.846,34.692L110.962,34.692L111.082,34.692L111.325,34.692L111.446,34.692L111.574,34.692L111.688,34.692L111.808,34.692L112.049,34.692L112.17,34.692L112.298,34.692L112.413,34.692L112.532,34.692L112.775,34.692L112.895,34.692L113.022,34.692L113.137,34.692L113.257,34.692L113.499,34.692L113.62,34.692L113.747,34.692L113.862,34.692L113.981,34.692L114.224,34.692L114.345,34.692L114.472,34.692L114.588,34.692L114.706,34.692L114.948,34.692L115.068,34.692L115.195,34.692L115.312,34.692L115.431,34.692L115.673,34.692L115.793,34.692L115.92,34.692L116.036,34.692L116.156,34.692L116.399,34.692L116.519,34.692L116.647,34.692L116.762,34.692L116.88,34.692L117.123,34.692L117.244,34.692L117.371,34.692L117.486,34.692L117.606,34.692L117.847,34.692L117.969,46.231L118.096,46.231L118.211,46.231L118.33,46.231L118.572,46.231L118.693,46.231L118.821,46.231L118.937,46.231L119.055,46.231L119.297,46.231L119.418,46.231L119.546,48.538L119.66,48.538L119.78,48.538L120.022,48.538L120.143,48.538L120.269,48.538L120.385,48.538L120.505,48.538L120.746,48.538L120.867,48.538L120.994,48.538L121.11,48.538L121.229,48.538L121.472,48.538L121.593,48.538L121.72,48.538L121.835,48.538L121.954,48.538L122.196,48.538L122.318,48.538L122.445,48.538L122.56,48.538L122.679,48.538L122.921,48.538L123.042,48.538L123.17,48.538L123.284,48.538L123.404,48.538L123.645,48.538L123.767,48.538L123.894,48.538L124.011,48.538L124.128,48.538L124.371,48.538L124.492,48.538L124.619,48.538L124.733,48.538L124.853,48.538L125.095,48.538L125.216,48.538L125.344,48.538L125.458,48.538L125.578,48.538L125.82,48.538L125.94,48.538L126.067,48.538L126.182,48.538L126.302,48.538L126.545,48.538L126.666,48.538L126.794,48.538L126.908,48.538L127.027,48.538L127.269,48.538L127.391,48.538L127.518,48.538L127.753,48.538L127.995,48.538L128.116,48.538L128.243,48.538L128.358,48.538L128.477,48.538L128.72,48.538L128.841,48.538L128.968,48.538L129.083,48.538L129.202,48.538L129.444,48.538L129.565,48.538L129.693,48.538L129.807,48.538L129.927,48.538L130.169,48.538L130.29,48.538L130.416,48.538L130.532,48.538L130.652,48.538L130.893,48.538L131.014,48.538L131.141,48.538L131.257,48.538L131.376,48.538L131.618,48.538L131.74,48.538L131.868,48.538L131.983,48.538L132.101,48.538L132.343,48.538L132.464,48.538L132.591,48.538L132.707,48.538L132.826,48.538L133.068,48.538L133.189,48.538L133.317,48.538L133.432,48.538L133.55,48.538L133.793,48.538L133.914,48.538L134.041,48.538L134.156,48.538L134.276,48.538L134.518,48.538L134.638,48.538L134.766,48.538L134.881,48.538L135,48.538L135.242,48.538L135.363,48.538L135.489,48.538L135.605,48.538L135.725,48.538L135.966,48.538L136.087,48.538L136.214,48.538L136.329,48.538L136.45,48.538L136.692,48.538L136.813,48.538L136.94,48.538L137.055,48.538L137.174,48.538L137.416,48.538L137.538,48.538L137.666,48.538L137.78,48.538L137.899,48.538L138.142,48.538L138.263,48.538L138.391,48.538L138.505,48.538L138.624,48.538L138.867,48.538L138.987,48.538L139.115,48.538L139.229,48.538L139.349,48.538L139.591,48.538L139.712,48.538L139.84,48.538L139.954,48.538L140.074,48.538L140.315,48.538L140.436,48.538L140.563,48.538L140.678,48.538L140.798,48.538L141.041,48.538L141.162,48.538L141.296,48.538L141.41,48.538L141.523,48.538L141.766,48.538L141.887,48.538L142.015,48.538L142.13,48.538L142.248,48.538L142.49,48.538L142.612,48.538L142.737,48.538L142.854,48.538L142.972,48.538L143.215,48.538L143.336,48.538L143.464,48.538L143.579,48.538L143.697,48.538L143.94,48.538L144.061,48.538L144.189,48.538L144.303,48.538L144.422,48.538L144.665,48.538L144.786,48.538L144.913,48.538L145.029,48.538L145.147,48.538L145.39,48.538L145.51,48.538L145.637,48.538L145.752,48.538L145.872,48.538L146.114,48.538L146.234,48.538L146.362,48.538L146.478,48.538L146.596,48.538L146.839,48.538L146.961,48.538L147.088,48.538L147.203,48.538L147.321,48.538L147.563,48.538L147.685,48.538L147.813,48.538L147.928,48.538L148.046,48.538L148.288,27L148.41,27L148.538,27L148.652,27L148.771,27L149.014,27L149.135,27L149.262,27L149.377,27L149.496,27L149.739,27L149.859,27L149.986,27L150.103,27L150.22,27L150.463,27L150.583,27L150.712,27L150.825,27L150.946,27L151.187,27L151.308,27L151.435,27L151.551,27L151.67,27L151.912,27L152.034,27L152.162,27L152.276,27L152.395,27L152.637,27L152.758,27L152.886,27L153.001,27L153.119,27L153.361,27L153.482,27L153.611,27L153.725,27L153.844,27L154.087,27L154.208,27L154.336,27L154.45,27L154.57,27L154.812,27L154.933,27L155.06,27L155.176,27L155.294,27L155.536,27L155.657,27L155.784,27L155.899,27L156.019,27L156.262,27L156.382,27L156.509,27L156.623,27L156.744,27L156.986,27L157.107,27L157.236,27L157.349,27L157.469,27L157.711,27L157.832,27L157.96,27L158.074,27L158.193,27L158.436,27L158.557,27L158.685,27L158.8,27L158.918,27L159.161,27L159.282,27L159.41,27L159.524,27L159.643,27L159.885,27L160.006,27L160.134,27L160.249,27L160.367,27L160.611,27L160.73,27L160.858,27L160.974,27L161.092,27L161.335,27L161.455,27L161.583,27L161.697,27L161.817,27L162.06,27L162.181,27L162.31,27L162.423,27L162.542,27L162.784,27L162.906,27L163.034,27L163.149,27L163.267,27L163.509,27L163.631,27L163.758,27L163.874,27L163.991,27L164.234,27L164.355,27L164.483,27L164.597,27L164.716,27L164.959,27L165.08,27L165.207,27L165.323,27L165.441,27L165.683,27L165.804,27L165.931,27L166.047,27L166.167,27L166.408,27L166.529,27L166.657,27L166.771,27L166.89,27L167.133,27L167.254,27L167.382,27L167.496,27L167.616,27L167.859,27L167.979,27L168.107,27L168.221,27L168.34,27L168.583,27L168.704,27L168.829,27L168.946,27L169.065,27L169.307,27L169.429,27L169.557,27L169.672,27L169.79,27L170.032,27L170.154,27L170.281,27L170.396,27L170.514,27L170.757,27L170.877,27L171.005,27L171.12,27L171.239,27L171.482,27L171.603,27L171.73,27L171.844,27L171.965,27L172.208,27L172.328,27L172.456,27L172.57,27L172.689,27L172.932,27L173.053,27L173.181,27L173.295,27L173.414,27L173.657,27L173.778,27L173.906,27L174.021,27L174.138,27L174.382,27L174.503,27L174.631,27L174.745,27L174.863,27L175.107,27L175.227,27L175.356,27L175.469,27L175.588,27L175.831,27L175.952,27L176.079,27L176.194,27L176.313,27L176.556,27L176.676,27L176.805,27L176.919,27L177.038,27L177.281,27L177.402,27L177.531,27L177.645,27L177.763,27L178.005,27L178.127,27L178.255,27L178.369,27L178.487,27L178.73,27L178.851,27L178.98,27L179.093,27L179.213,27L179.455,27L179.576,27L179.705,27L179.818,27L179.937,27L180.18,27L180.301,27L180.429,27L180.544,27L180.662,27L180.904,27L181.025,27L181.152,27L181.267,27L181.386,27L181.629,27L181.75,27L181.878,27L181.993,27L182.112,27L182.354,27L182.476,27L182.604,27L182.718,27L182.836,27L183.079,27L183.2,27L183.329,27L183.442,27L183.561,27L183.805,27L183.925,27L184.054,27L184.167,27L184.285,27L184.529,27L184.65,27L184.778,27L184.893,27L185.011,27L185.253,27L185.375,27L185.503,27L185.616,27L185.735,27L185.978,46.231L186.099,46.231L186.226,46.231L186.341,46.231L186.46,46.231L186.703,46.231L186.824,46.231L186.952,46.231L187.066,46.231L187.184,46.231L187.429,46.231L187.55,46.231L187.679,46.231L187.792,46.231L187.91,46.231L188.151,46.231L188.274,46.231L188.403,46.231L188.516,46.231L188.634,46.231L188.878,46.231L188.999,46.231L189.127,46.231L189.241,46.231L189.36,46.231L189.603,53.923L189.724,53.923L189.852,53.923L189.966,53.923L190.084,53.923L190.327,53.923L190.448,53.923L190.577,53.923L190.69,53.923L190.809,53.923L191.052,53.923L191.172,53.923L191.3,53.923L191.415,53.923L191.533,53.923L191.778,53.923L191.897,53.923L192.025,53.923L192.139,53.923L192.258,53.923L192.501,53.923L192.624,53.923L192.752,53.923L192.865,53.923L192.984,53.923L193.226,53.923L193.348,53.923L193.477,53.923L193.59,53.923L193.708,53.923L193.951,53.923L194.074,53.923L194.202,53.923L194.316,53.923L194.433,53.923L194.676,23.154L194.798,23.154L194.927,23.154L195.04,23.154L195.158,23.154L195.401,23.154L195.522,23.154L195.651,23.154L195.764,23.154L196.125,23.154L196.246,23.154L196.374,23.154L196.488,23.154L196.607,23.154L196.85,23.154L196.971,23.154L197.099,23.154L197.213,23.154L197.332,23.154L197.576,23.154L197.698,23.154L197.826,23.154L197.94,23.154L198.057,23.154L198.3,23.154L198.422,23.154L198.551,23.154L198.664,23.154L198.782,23.154L199.025,23.154L199.146,23.154L199.275,23.154L199.389,23.154L199.508,23.154L199.75,23.154L199.871,23.154L200,23.154" stroke="#4c78a8" stroke-width="2"/></g></g><path class="foreground" aria-hidden="true" d="" display="none"/></g><g transform="translate(0,0)"><path class="background" aria-hidden="true" d="M0,0h200v200h-200Z"/><g><g class="mark-line role-mark marks" role="graphics-object" aria-roledescription="line mark container"><path aria-label="Time: Jan 01, 2024; Price: 2499; identifier: altex-LG-F2WR508SBM" role="graphics-symbol" aria-roledescription="line mark" d="M0,7.769L0.076,7.769L0.191,7.769L0.432,7.769L0.553,7.769L0.68,7.769L0.796,7.769L0.915,7.769L1.157,7.769L1.278,7.769L1.405,7.769L1.521,7.769L1.64,7.769L1.882,7.769L2.003,7.769L2.13,7.769L2.246,7.769L2.365,7.769L2.607,27L2.728,27L2.855,27L2.971,27L3.09,27L3.332,27L3.452,27L3.579,27L3.695,27L3.814,27L4.057,27L4.177,27L4.303,27L4.42,27L4.539,27L4.782,27L4.903,27L5.03,27L5.145,27L5.264,27L5.507,27L5.627,27L5.756,27L5.87,27L5.989,27L6.231,27L6.352,27L6.479,27L6.595,27L6.714,27L6.956,27L7.077,27L7.204,27L7.32,27L7.438,27L7.681,27L7.802,27L7.928,27L8.044,27L8.163,27L8.405,38.538L8.526,38.538L8.652,38.538L8.768,38.538L8.888,38.538L9.13,38.538L9.25,38.538L9.377,38.538L9.493,38.538L9.613,38.538L9.855,38.538L9.976,38.538L10.104,38.538L10.219,38.538L10.337,38.538L10.58,38.538L10.701,38.538L10.828,38.538L10.944,38.538L11.062,38.538L11.304,38.538L11.426,38.538L11.553,38.538L11.668,38.538L11.787,38.538L12.029,38.538L12.15,38.538L12.277,38.538L12.393,38.538L12.512,38.538L12.754,38.538L12.875,38.538L13.002,38.538L13.118,38.538L13.237,38.538L13.479,38.538L13.599,38.538L13.726,38.538L13.842,38.538L13.962,38.538L14.203,38.538L14.324,38.538L14.45,38.538L14.567,38.538L14.686,38.538L14.929,38.538L15.05,38.538L15.177,38.538L15.292,38.538L15.411,38.538L15.653,38.538L15.775,38.538L15.902,38.538L16.018,38.538L16.136,38.538L16.378,38.538L16.499,38.538L16.627,38.538L16.742,38.538L16.861,38.538L17.103,38.538L17.224,38.538L17.352,38.538L17.467,38.538L17.585,38.538L17.827,38.538L17.948,38.538L18.074,38.538L18.19,38.538L18.311,38.538L18.552,38.538L18.673,38.538L18.797,38.538L18.914,38.538L19.035,38.538L19.277,38.538L19.397,38.538L19.522,38.538L19.639,38.538L19.76,38.538L20.001,38.538L20.122,38.538L20.248,38.538L20.364,38.538L20.485,38.538L20.726,38.538L20.847,38.538L20.972,38.538L21.09,38.538L21.209,38.538L21.451,38.538L21.572,38.538L21.697,38.538L21.813,38.538L21.934,38.538L22.176,27L22.296,27L22.422,27L22.538,27L22.659,27L22.901,27L23.021,27L23.147,27L23.263,27L23.384,27L23.625,27L23.746,27L23.871,27L23.988,27L24.109,27L24.351,27L24.471,27L24.595,27L24.712,27L24.833,27L25.075,27L25.196,27L25.322,27L25.437,27L25.558,27L25.799,27L25.92,27L26.046,27L26.162,27L26.283,27L26.524,27L26.645,27L26.771,27L26.888,27L27.008,27L27.249,27L27.37,27L27.495,27L27.612,27L27.732,27L27.974,27L28.095,27L28.22,27L28.337,27L28.457,27L28.699,27L28.819,27L28.944,27L29.061,27L29.182,27L29.424,27L29.544,27L29.669,27L29.786,27L29.907,27L30.148,27L30.269,27L30.395,27L30.511,27L30.631,27L30.873,27L30.994,27L31.119,27L31.237,27L31.356,27L31.598,27L31.719,27L31.844,27L31.961,27L32.081,27L32.443,27L32.569,27L32.685,27L32.806,27L33.047,27L33.168,27L33.294,27L33.41,27L33.531,27L33.772,27L33.893,27L34.017,27L34.134,27L34.255,27L34.497,27L34.618,27L34.742,27L34.859,27L34.98,27L35.222,27L35.343,27L35.469,27L35.586,27L35.705,27L35.947,27L36.067,27L36.193,27L36.309,27L36.43,27L36.671,27L36.792,27L36.918,27L37.034,27L37.155,27L37.396,27L37.517,27L37.643,27L37.759,27L37.879,27L38.121,27L38.242,27L38.367,27L38.483,27L38.605,27L38.846,27L38.966,27L39.091,27L39.208,27L39.329,27L39.57,27L39.691,27L39.816,27L39.933,27L40.053,27L40.295,27L40.416,27L40.542,27L40.658,27L40.778,27L41.02,27L41.141,27L41.266,27L41.383,27L41.503,27L41.745,27L41.866,27L41.991,27L42.108,27L42.228,27L42.47,27L42.59,27L42.715,27L42.832,27L42.953,27L43.194,27L43.316,27L43.441,27L43.557,27L43.678,27L43.919,27L44.04,27L44.165,27L44.281,27L44.402,27L44.644,27L44.765,27L44.889,27L45.006,27L45.127,27L45.38,27L45.545,27L45.617,27L45.732,27L45.852,27L46.093,27L46.214,27L46.34,27L46.456,27L46.576,27L46.818,27L46.94,27L47.065,27L47.182,27L47.301,27L47.543,27L47.664,27L47.789,38.538L47.905,38.538L48.026,38.538L48.268,38.538L48.39,38.538L48.514,38.538L48.63,38.538L48.751,38.538L48.993,38.538L49.113,38.538L49.238,38.538L49.356,38.538L49.476,38.538L49.717,38.538L49.839,38.538L49.962,38.538L50.08,38.538L50.2,38.538L50.443,38.538L50.563,38.538L50.689,38.538L50.805,38.538L50.925,38.538L51.167,38.538L51.288,38.538L51.414,38.538L51.53,38.538L51.65,38.538L51.892,38.538L52.013,38.538L52.139,38.538L52.254,38.538L52.375,38.538L52.616,38.538L52.737,38.538L52.863,38.538L52.979,38.538L53.1,38.538L53.341,38.538L53.463,38.538L53.588,38.538L53.704,38.538L53.824,38.538L54.066,38.538L54.187,38.538L54.312,38.538L54.429,38.538L54.55,38.538L54.791,38.538L54.912,38.538L55.036,38.538L55.153,38.538L55.274,38.538L55.515,38.538L55.636,38.538L55.763,38.538L55.879,38.538L55.999,38.538L56.241,38.538L56.361,38.538L56.487,38.538L56.604,38.538L56.723,38.538L56.965,38.538L57.086,38.538L57.212,38.538L57.329,38.538L57.449,38.538L57.69,38.538L57.811,38.538L57.937,38.538L58.054,38.538L58.173,38.538L58.415,38.538L58.535,38.538L58.661,38.538L58.778,38.538L58.898,38.538L59.14,38.538L59.26,38.538L59.386,38.538L59.502,38.538L59.622,38.538L59.864,38.538L59.985,38.538L60.111,38.538L60.227,38.538L60.347,38.538L60.589,38.538L60.71,38.538L60.836,38.538L60.952,38.538L61.072,38.538L61.314,38.538L61.435,38.538L61.561,38.538L61.677,38.538L61.797,38.538L62.04,38.538L62.16,38.538L62.286,38.538L62.403,38.538L62.522,38.538L62.763,38.538L62.884,38.538L63.01,38.538L63.126,38.538L63.246,38.538L63.488,38.538L63.609,38.538L63.735,38.538L63.851,38.538L63.971,38.538L64.213,38.538L64.334,38.538L64.458,38.538L64.576,38.538L64.697,38.538L64.938,38.538L65.059,38.538L65.184,38.538L65.301,38.538L65.421,38.538L65.662,38.538L65.784,38.538L65.91,38.538L66.027,38.538L66.146,38.538L66.388,38.538L66.508,38.538L66.635,38.538L66.751,38.538L66.87,38.538L67.112,38.538L67.233,38.538L67.359,38.538L67.476,38.538L67.595,38.538L67.837,38.538L67.958,38.538L68.084,38.538L68.2,38.538L68.32,38.538L68.563,38.538L68.808,38.538L68.925,38.538L69.045,38.538L69.287,38.538L69.408,38.538L69.532,38.538L69.649,38.538L69.77,38.538L70.011,38.538L70.132,38.538L70.257,38.538L70.374,38.538L70.494,38.538L70.736,38.538L70.857,38.538L70.983,38.538L71.099,38.538L71.219,38.538L71.461,38.538L71.581,38.538L71.708,38.538L71.824,38.538L71.944,38.538L72.185,38.538L72.307,38.538L72.433,38.538L72.55,38.538L72.669,38.538L72.911,38.538L73.032,38.538L73.157,38.538L73.394,38.538L73.636,38.538L73.757,38.538L73.882,38.538L73.998,38.538L74.118,38.538L74.36,38.538L74.48,38.538L74.604,38.538L74.722,38.538L74.843,38.538L75.096,38.538L75.281,38.538L75.395,38.538L75.629,38.538L75.811,38.538L75.93,38.538L76.055,38.538L76.172,38.538L76.293,38.538L76.534,38.538L76.655,38.538L76.782,38.538L76.897,38.538L77.017,38.538L77.259,38.538L77.38,38.538L77.506,38.538L77.623,38.538L77.742,38.538L78.105,38.538L78.231,38.538L78.347,38.538L78.467,38.538L78.708,38.538L78.83,38.538L78.955,38.538L79.072,38.538L79.192,38.538L79.434,38.538L79.554,38.538L79.679,38.538L79.796,38.538L79.916,38.538L80.159,38.538L80.279,38.538L80.405,38.538L80.521,38.538L80.641,38.538L80.883,38.538L81.004,38.538L81.131,38.538L81.246,38.538L81.366,38.538L81.608,38.538L81.729,38.538L81.855,38.538L81.971,38.538L82.091,38.538L82.332,38.538L82.454,38.538L82.584,38.538L82.696,38.538L82.816,38.538L83.057,38.538L83.179,38.538L83.301,38.538L83.42,38.538L83.541,38.538L83.782,38.538L83.903,38.538L84.029,38.538L84.145,38.538L84.266,38.538L84.507,38.538L84.627,38.538L84.753,38.538L84.869,38.538L84.99,38.538L85.232,38.538L85.352,38.538L85.478,38.538L85.594,38.538L85.715,38.538L85.956,38.538L86.079,38.538L86.204,38.538L86.319,38.538L86.44,38.538L86.681,38.538L86.803,38.538L86.929,38.538L87.045,38.538L87.165,38.538L87.406,38.538L87.529,38.538L87.654,38.538L87.769,38.538L87.889,38.538L88.131,38.538L88.252,38.538L88.379,38.538L88.494,38.538L88.615,38.538L88.856,38.538L88.976,38.538L89.103,38.538L89.219,38.538L89.339,38.538L89.58,38.538L89.701,38.538L89.827,38.538L89.943,38.538L90.063,38.538L90.305,38.538L90.426,38.538L90.552,38.538L90.668,38.538L90.788,38.538L91.03,38.538L91.151,38.538L91.278,38.538L91.394,38.538L91.513,38.538L91.755,38.538L91.876,38.538L92.002,30.846L92.118,30.846L92.238,30.846L92.479,30.846L92.601,30.846L92.729,30.846L92.844,30.846L92.962,30.846L93.205,30.846L93.326,30.846L93.452,30.846L93.569,30.846L93.688,30.846L93.929,30.846L94.05,30.846L94.177,30.846L94.292,30.846L94.412,30.846L94.654,30.846L94.775,30.846L94.9,30.846L95.016,30.846L95.137,30.846L95.379,30.846L95.499,30.846L95.626,30.846L95.741,30.846L95.862,30.846L96.104,30.846L96.225,30.846L96.352,30.846L96.467,30.846L96.587,30.846L96.828,30.846L96.95,30.846L97.077,30.846L97.192,30.846L97.311,30.846L97.553,30.846L97.674,30.846L97.802,30.846L97.917,30.846L98.036,30.846L98.278,30.846L98.399,30.846L98.526,30.846L98.641,30.846L98.761,30.846L99.003,30.846L99.124,30.846L99.251,30.846L99.366,30.846L99.485,30.846L99.727,30.846L99.848,30.846L99.975,30.846L100.09,30.846L100.21,30.846L100.453,30.846L100.573,30.846L100.699,30.846L100.815,30.846L100.935,30.846L101.178,30.846L101.298,30.846L101.426,30.846L101.541,30.846L101.66,30.846L101.902,30.846L102.023,30.846L102.15,30.846L102.265,30.846L102.385,30.846L102.627,30.846L102.748,30.846L102.875,38.538L102.991,38.538L103.109,38.538L103.351,38.538L103.472,38.538L103.599,38.538L103.715,38.538L103.834,38.538L104.077,38.538L104.197,38.538L104.324,38.538L104.439,38.538L104.56,38.538L104.801,38.538L104.922,38.538L105.048,38.538L105.164,38.538L105.284,38.538L105.526,38.538L105.646,38.538L105.773,38.538L105.888,38.538L106.01,38.538L106.251,38.538L106.372,38.538L106.499,38.538L106.614,38.538L106.733,38.538L106.978,38.538L107.097,38.538L107.224,38.538L107.339,38.538L107.458,38.538L107.701,38.538L107.822,38.538L107.949,38.538L108.064,38.538L108.183,38.538L108.426,38.538L108.546,38.538L108.673,38.538L108.788,38.538L108.908,38.538L109.151,30.846L109.271,30.846L109.398,30.846L109.513,30.846L109.633,30.846L109.874,30.846L109.995,30.846L110.122,30.846L110.237,30.846L110.357,30.846L110.599,30.846L110.72,30.846L110.846,30.846L110.962,30.846L111.082,30.846L111.325,30.846L111.446,30.846L111.574,30.846L111.688,30.846L111.808,30.846L112.049,30.846L112.17,30.846L112.298,30.846L112.413,30.846L112.532,30.846L112.775,30.846L112.895,30.846L113.023,30.846L113.137,30.846L113.257,30.846L113.499,30.846L113.62,30.846L113.747,30.846L113.862,30.846L113.981,30.846L114.224,30.846L114.345,30.846L114.472,30.846L114.588,30.846L114.706,30.846L114.948,30.846L115.068,30.846L115.195,30.846L115.312,30.846L115.431,30.846L115.673,30.846L115.793,30.846L115.92,30.846L116.036,30.846L116.156,30.846L116.399,30.846L116.52,30.846L116.647,30.846L116.762,30.846L116.88,30.846L117.123,30.846L117.244,30.846L117.372,30.846L117.486,30.846L117.606,30.846L117.847,30.846L117.969,34.692L118.096,34.692L118.211,34.692L118.33,34.692L118.572,34.692L118.693,34.692L118.821,34.692L118.937,34.692L119.055,34.692L119.297,34.692L119.418,34.692L119.546,40.077L119.66,40.077L119.78,40.077L120.022,40.077L120.143,40.077L120.269,40.077L120.385,40.077L120.505,40.077L120.746,40.077L120.867,40.077L120.994,40.077L121.11,40.077L121.229,40.077L121.472,40.077L121.593,40.077L121.721,40.077L121.835,40.077L121.954,40.077L122.196,40.077L122.318,40.077L122.445,40.077L122.56,40.077L122.679,40.077L122.921,40.077L123.042,40.077L123.17,40.077L123.285,40.077L123.404,40.077L123.645,40.077L123.767,40.077L123.894,40.077L124.011,40.077L124.128,40.077L124.371,40.077L124.492,40.077L124.619,40.077L124.734,40.077L124.853,40.077L125.095,40.077L125.216,40.077L125.344,40.077L125.458,40.077L125.578,40.077L125.82,40.077L125.94,40.077L126.067,40.077L126.182,40.077L126.302,40.077L126.545,40.077L126.666,40.077L126.794,40.077L126.908,40.077L127.027,40.077L127.269,40.077L127.391,40.077L127.518,40.077L127.753,40.077L127.995,40.077L128.116,40.077L128.243,40.077L128.358,40.077L128.477,40.077L128.72,40.077L128.841,40.077L128.968,40.077L129.083,40.077L129.202,40.077L129.444,40.077L129.566,40.077L129.693,40.077L129.807,40.077L129.927,40.077L130.169,40.077L130.29,40.077L130.416,40.077L130.532,40.077L130.652,40.077L130.893,40.077L131.014,40.077L131.141,40.077L131.257,40.077L131.376,40.077L131.618,40.077L131.74,40.077L131.868,40.077L131.983,40.077L132.101,40.077L132.343,40.077L132.464,40.077L132.591,40.077L132.707,40.077L132.826,40.077L133.068,40.077L133.189,40.077L133.317,40.077L133.432,40.077L133.55,40.077L133.793,40.077L133.914,40.077L134.041,40.077L134.156,40.077L134.276,40.077L134.518,40.077L134.638,40.077L134.766,40.077L134.881,40.077L135,40.077L135.242,40.077L135.363,40.077L135.489,40.077L135.605,40.077L135.725,40.077L135.966,40.077L136.087,40.077L136.214,40.077L136.329,40.077L136.45,40.077L136.692,40.077L136.813,40.077L136.94,40.077L137.055,40.077L137.174,40.077L137.416,40.077L137.538,40.077L137.666,40.077L137.78,40.077L137.899,40.077L138.142,40.077L138.263,40.077L138.391,40.077L138.505,40.077L138.624,40.077L138.867,40.077L138.987,40.077L139.115,40.077L139.229,40.077L139.349,40.077L139.591,40.077L139.712,40.077L139.84,40.077L139.954,40.077L140.074,40.077L140.315,40.077L140.436,40.077L140.563,40.077L140.678,40.077L140.798,40.077L141.041,40.077L141.162,40.077L141.296,40.077L141.41,40.077L141.523,40.077L141.766,40.077L141.887,40.077L142.015,40.077L142.13,40.077L142.248,40.077L142.491,40.077L142.612,40.077L142.737,40.077L142.854,40.077L142.972,40.077L143.215,40.077L143.336,40.077L143.464,40.077L143.579,40.077L143.697,40.077L143.94,40.077L144.061,40.077L144.189,40.077L144.303,40.077L144.422,40.077L144.665,40.077L144.786,40.077L144.913,40.077L145.029,40.077L145.147,40.077L145.39,40.077L145.51,40.077L145.637,40.077L145.752,40.077L145.872,40.077L146.114,40.077L146.234,40.077L146.362,40.077L146.478,40.077L146.596,40.077L146.839,40.077L146.961,40.077L147.088,40.077L147.203,40.077L147.321,40.077L147.563,40.077L147.685,40.077L147.813,40.077L147.928,40.077L148.046,40.077L148.288,40.077L148.41,40.077L148.538,40.077L148.652,40.077L148.771,40.077L149.014,40.077L149.135,40.077L149.262,40.077L149.377,40.077L149.496,40.077L149.739,40.077L149.859,40.077L149.986,40.077L150.103,40.077L150.22,40.077L150.463,40.077L150.583,40.077L150.712,40.077L150.825,40.077L150.946,40.077L151.187,40.077L151.308,40.077L151.435,40.077L151.551,40.077L151.67,40.077L151.912,40.077L152.034,40.077L152.162,40.077L152.276,40.077L152.395,40.077L152.637,40.077L152.758,40.077L152.886,40.077L153.001,40.077L153.119,40.077L153.361,40.077L153.482,40.077L153.612,40.077L153.725,40.077L153.844,40.077L154.087,40.077L154.208,40.077L154.336,40.077L154.45,40.077L154.57,40.077L154.812,40.077L154.933,40.077L155.06,40.077L155.176,40.077L155.294,40.077L155.536,40.077L155.657,40.077L155.784,40.077L155.899,40.077L156.019,40.077L156.262,40.077L156.382,40.077L156.509,40.077L156.623,40.077L156.744,40.077L156.986,40.077L157.107,40.077L157.236,40.077L157.349,40.077L157.469,40.077L157.711,40.077L157.832,40.077L157.96,40.077L158.074,40.077L158.193,40.077L158.436,40.077L158.557,40.077L158.685,40.077L158.8,40.077L158.918,40.077L159.161,40.077L159.282,40.077L159.41,40.077L159.524,40.077L159.643,40.077L159.885,40.077L160.006,40.077L160.134,40.077L160.249,40.077L160.367,40.077L160.611,40.077L160.731,40.077L160.858,40.077L160.974,40.077L161.092,40.077L161.335,40.077L161.455,40.077L161.583,40.077L161.698,40.077L161.817,40.077L162.06,40.077L162.181,40.077L162.31,40.077L162.423,40.077L162.542,40.077L162.784,40.077L162.906,40.077L163.034,40.077L163.149,40.077L163.267,40.077L163.509,40.077L163.631,40.077L163.758,40.077L163.874,40.077L163.991,40.077L164.234,40.077L164.355,40.077L164.483,40.077L164.597,40.077L164.716,40.077L164.959,40.077L165.08,40.077L165.207,40.077L165.323,40.077L165.441,40.077L165.684,40.077L165.804,40.077L165.931,40.077L166.047,40.077L166.167,40.077L166.408,40.077L166.529,40.077L166.657,40.077L166.771,40.077L166.89,40.077L167.133,40.077L167.254,40.077L167.382,40.077L167.496,40.077L167.616,40.077L167.859,40.077L167.979,40.077L168.107,40.077L168.221,40.077L168.34,40.077L168.583,40.077L168.704,40.077L168.83,40.077L168.947,40.077L169.065,40.077L169.307,40.077L169.429,40.077L169.557,40.077L169.672,40.077L169.79,40.077L170.032,40.077L170.154,40.077L170.281,40.077L170.396,40.077L170.514,40.077L170.757,40.077L170.877,40.077L171.005,40.077L171.12,40.077L171.239,40.077L171.482,40.077L171.603,40.077L171.73,40.077L171.844,40.077L171.965,40.077L172.208,40.077L172.328,40.077L172.456,40.077L172.57,40.077L172.689,40.077L172.932,40.077L173.053,40.077L173.181,40.077L173.295,40.077L173.414,40.077L173.657,40.077L173.778,40.077L173.906,40.077L174.021,40.077L174.138,40.077L174.382,40.077L174.503,40.077L174.631,40.077L174.745,40.077L174.863,40.077L175.107,40.077L175.227,40.077L175.356,40.077L175.469,40.077L175.588,40.077L175.831,40.077L175.952,40.077L176.079,40.077L176.194,40.077L176.313,40.077L176.556,40.077L176.676,40.077L176.805,40.077L176.919,40.077L177.038,40.077L177.281,40.077L177.402,40.077L177.531,40.077L177.645,40.077L177.763,40.077L178.005,40.077L178.127,40.077L178.255,40.077L178.369,40.077L178.487,40.077L178.73,40.077L178.852,40.077L178.98,40.077L179.094,40.077L179.213,40.077L179.455,40.077L179.576,40.077L179.705,40.077L179.818,40.077L179.937,40.077L180.18,40.077L180.301,40.077L180.429,40.077L180.544,40.077L180.662,40.077L180.904,40.077L181.025,40.077L181.152,40.077L181.267,40.077L181.386,40.077L181.629,40.077L181.75,40.077L181.878,40.077L181.993,40.077L182.112,40.077L182.354,40.077L182.476,40.077L182.604,40.077L182.718,40.077L182.836,40.077L183.079,40.077L183.2,40.077L183.329,40.077L183.442,40.077L183.561,40.077L183.805,40.077L183.926,40.077L184.054,40.077L184.167,40.077L184.285,40.077L184.529,40.077L184.65,40.077L184.778,40.077L184.893,40.077L185.011,40.077L185.253,40.077L185.375,40.077L185.503,40.077L185.616,40.077L185.735,40.077L185.978,40.077L186.099,40.077L186.226,40.077L186.341,40.077L186.46,40.077L186.703,40.077L186.824,40.077L186.952,40.077L187.066,40.077L187.184,40.077L187.429,40.077L187.55,40.077L187.679,40.077L187.792,40.077L187.91,40.077L188.151,40.077L188.274,40.077L188.403,40.077L188.516,40.077L188.634,40.077L188.878,40.077L188.999,40.077L189.127,40.077L189.241,40.077L189.36,40.077L189.603,40.077L189.724,40.077L189.852,40.077L189.966,40.077L190.084,40.077L190.327,40.077L190.448,40.077L190.577,40.077L190.69,40.077L190.809,40.077L191.052,40.077L191.172,40.077L191.3,40.077L191.415,40.077L191.533,40.077L191.778,40.077L191.897,40.077L192.025,40.077L192.139,40.077L192.258,40.077L192.501,40.077L192.624,40.077L192.752,40.077L192.865,40.077L192.984,40.077L193.226,40.077L193.348,40.077L193.477,40.077L193.59,40.077L193.709,40.077L193.951,40.077L194.074,40.077L194.202,40.077L194.316,40.077L194.433,40.077L194.676,40.077L194.798,40.077L194.927,40.077L195.04,40.077L195.158,40.077L195.401,40.077L195.522,40.077L195.651,40.077L195.764,40.077L196.125,40.077L196.246,40.077L196.374,40.077L196.488,40.077L196.607,40.077L196.85,40.077L196.971,40.077L197.099,40.077L197.213,40.077L197.332,40.077L197.576,40.077L197.698,40.077L197.827,40.077L197.94,40.077L198.057,40.077L198.3,40.077L198.422,40.077L198.551,40.077L198.664,40.077L198.782,40.077L199.025,40.077L199.147,40.077L199.275,40.077L199.389,40.077L199.508,40.077L199.75,40.077L199.871,50.077L200,50.077" stroke="#f58518" stroke-width="2"/></g></g><path class="foreground" aria-hidden="true" d="" display="none"/></g></g><g class="mark-group role-legend" role="graphics-symbol" aria-roledescription="legend" aria-label="Symbol legend titled 'identifier' for stroke color with 2 values: altex-LG-F2WR508SBW, altex-LG-F2WR508SBM"><g transform="translate(220,0)"><path class="background" aria-hidden="true" d="M0,0h168v40h-168Z" pointer-events="none"/><g><g class="mark-group role-legend-entry"><g transform="translate(0,16)"><path class="background" aria-hidden="true" d="M0,0h0v0h0Z" pointer-events="none"/><g><g class="mark-group role-scope" role="graphics-object" aria-roledescription="group mark container"><g transform="translate(0,0)"><path class="background" aria-hidden="true" d="M0,0h168v11h-168Z" pointer-events="none" opacity="1"/><g><g class="mark-symbol role-legend-symbol" pointer-events="none"><path transform="translate(6,6)" d="M-5,0L5,0" stroke="#4c78a8" stroke-width="1.5" opacity="1"/></g><g class="mark-text role-legend-label" pointer-events="none"><text text-anchor="start" transform="translate(16,9)" font-family="Liberation Mono" font-size="10px" fill="#000" opacity="1">altex-LG-F2WR508SBW</text></g></g><path class="foreground" aria-hidden="true" d="" pointer-events="none" display="none"/></g><g transform="translate(0,13)"><path class="background" aria-hidden="true" d="M0,0h168v11h-168Z" pointer-events="none" opacity="1"/><g><g class="mark-symbol role-legend-symbol" pointer-events="none"><path transform="translate(6,6)" d="M-5,0L5,0" stroke="#f58518" stroke-width="1.5" opacity="1"/></g><g class="mark-text role-legend-label" pointer-events="none"><text text-anchor="start" transform="translate(16,9)" font-family="Liberation Mono" font-size="10px" fill="#000" opacity="1">altex-LG-F2WR508SBM</text></g></g><path class="foreground" aria-hidden="true" d="" pointer-events="none" display="none"/></g></g></g><path class="foreground" aria-hidden="true" d="" pointer-events="none" display="none"/></g></g><g class="mark-text role-legend-title" pointer-events="none"><text text-anchor="start" transform="translate(0,9)" font-family="Liberation Mono" font-size="11px" font-weight="bold" fill="#000" opacity="1">identifier</text></g></g><path class="foreground" aria-hidden="true" d="" pointer-events="none" display="none"/></g></g></g><path class="foreground" aria-hidden="true" d="" display="none"/></g></g></g></svg>