<svg xmlns="http://www.w3.org/2000/svg" xmlns:xlink="http://www.w3.org/1999/xlink" version="1.1" class="marks" width="460" height="242" viewBox="0 0 460 242"><rect width="460" height="242" fill="white"/><g fill="none" stroke-miterlimit="10" transform="translate(67,5)"><g class="mark-group role-frame root" role="graphics-object" aria-roledescription="group mark container"><g transform="translate(0,0)"><path class="background" aria-hidden="true" d="M0.5,0.5h200v200h-200Z" stroke="#ddd"/><g><g class="mark-group role-axis" aria-hidden="true"><g transform="translate(0.5,200.5)"><path class="background" aria-hidden="true" d="M0,0h0v0h0Z" pointer-events="none"/><g><g class="mark-rule role-axis-grid" pointer-events="none"><line transform="translate(23,-200)" x2="0" y2="200" stroke="#ddd" stroke-width="1" opacity="1"/><line transform="translate(46,-200)" x2="0" y2="200" stroke="#ddd" stroke-width="1" opacity="1"/><line transform="translate(70,-200)" x2="0" y2="200" stroke="#ddd" stroke-width="1" opacity="1"/><line transform="translate(93,-200)" x2="0" y2="200" stroke="#ddd" stroke-width="1" opacity="1"/><line transform="translate(117,-200)" x2="0" y2="200" stroke="#ddd" stroke-width="1" opacity="1"/><line transform="translate(140,-200)" x2="0" y2="200" stroke="#ddd" stroke-width="1" opacity="1"/><line transform="translate(164,-200)" x2="0" y2="200" stroke="#ddd" stroke-width="1" opacity="1"/><line transform="translate(188,-200)" x2="0" y2="200" stroke="#ddd" stroke-width="1" opacity="1"/></g></g><path class="foreground" aria-hidden="true" d="" pointer-events="none" display="none"/></g></g><g class="mark-group role-axis" aria-hidden="true"><g transform="translate(0.5,0.5)"><path class="background" aria-hidden="true" d="M0,0h0v0h0Z" pointer-events="none"/><g><g class="mark-rule role-axis-grid" pointer-events="none"><line transform="translate(0,200)" x2="200" y2="0" stroke="#ddd" stroke-width="1" opacity="1"/><line transform="translate(0,162)" x2="200" y2="0" stroke="#ddd" stroke-width="1" opacity="1"/><line transform="translate(0,123)" x2="200" y2="0" stroke="#ddd" stroke-width="1" opacity="1"/><line transform="translate(0,85)" x2="200" y2="0" stroke="#ddd" stroke-width="1" opacity="1"/><line transform="translate(0,46)" x2="200" y2="0" stroke="#ddd" stroke-width="1" opacity="1"/><line transform="translate(0,8)" x2="200" y2="0" stroke="#ddd" stroke-width="1" opacity="1"/></g></g><path class="foreground" aria-hidden="true" d="" pointer-events="none" display="none"/></g></g><g class="mark-group role-axis" role="graphics-symbol" aria-roledescription="axis" aria-label="X-axis titled 'Time' for a time scale with values from Monday, 01 January 2024, 2:19:43 PM to Tuesday, 17 September 2024, 4:39:07 AM"><g transform="translate(0.5,200.5)"><path class="background" aria-hidden="true" d="M0,0h0v0h0Z" pointer-events="none"/><g><g class="mark-rule role-axis-tick" pointer-events="none"><line transform="translate(23,0)" x2="0" y2="5" stroke="#888" stroke-width="1" opacity="1"/><line transform="translate(46,0)" x2="0" y2="5" stroke="#888" stroke-width="1" opacity="1"/><line transform="translate(70,0)" x2="0" y2="5" stroke="#888" stroke-width="1" opacity="1"/><line transform="translate(93,0)" x2="0" y2="5" stroke="#888" stroke-width="1" opacity="1"/><line transform="translate(117,0)" x2="0" y2="5" stroke="#888" stroke-width="1" opacity="1"/><line transform="translate(140,0)" x2="0" y2="5" stroke="#888" stroke-width="1" opacity="1"/><line transform="translate(164,0)" x2="0" y2="5" stroke="#888" stroke-width="1" opacity="1"/><line transform="translate(188,0)" x2="0" y2="5" stroke="#888" stroke-width="1" opacity="1"/></g><g class="mark-text role-axis-label" pointer-events="none"><text text-anchor="middle" transform="translate(23.423225952804213,15)" font-family="Liberation Mono" font-size="10px" fill="#000" opacity="1">February</text><text text-anchor="middle" transform="translate(45.76556560890778,15)" font-family="Liberation Mono" font-size="10px" fill="#000" opacity="0">March</text><text text-anchor="middle" transform="translate(69.6487562757771,15)" font-family="Liberation Mono" font-size="10px" fill="#000" opacity="0">April</text><text text-anchor="middle" transform="translate(92.76152143726355,15)" font-family="Liberation Mono" font-size="10px" fill="#000" opacity="0">May</text><text text-anchor="middle" transform="translate(116.64471210413288,15)" font-family="Liberation Mono" font-size="10px" fill="#000" opacity="0">June</text><text text-anchor="middle" transform="translate(139.75747726561931,15)" font-family="Liberation Mono" font-size="10px" fill="#000" opacity="0">July</text><text text-anchor="middle" transform="translate(163.64066793248864,15)" font-family="Liberation Mono" font-size="10px" fill="#000" opacity="0">August</text><text text-anchor="middle" transform="translate(187.52385859935796,15)" font-family="Liberation Mono" font-size="10px" fill="#000" opacity="1">September</text></g><g class="mark-rule role-axis-domain" pointer-events="none"><line transform="translate(0,0)" x2="200" y2="0" stroke="#888" stroke-width="1" opacity="1"/></g><g class="mark-text role-axis-title" pointer-events="none"><text text-anchor="middle" transform="translate(100,30)" font-family="Liberation Mono" font-size="11px" font-weight="bold" fill="#000" opacity="1">Time</text></g></g><path class="foreground" aria-hidden="true" d="" pointer-events="none" display="none"/></g></g><g class="mark-group role-axis" role="graphics-symbol" aria-roledescription="axis" aria-label="Y-axis titled 'Price' for a linear scale with values from 0 to 2,600"><g transform="translate(0.5,0.5)"><path class="background" aria-hidden="true" d="M0,0h0v0h0Z" pointer-events="none"/><g><g class="mark-rule role-axis-tick" pointer-events="none"><line transform="translate(0,200)" x2="-5" y2="0" stroke="#888" stroke-width="1" opacity="1"/><line transform="translate(0,162)" x2="-5" y2="0" stroke="#888" stroke-width="1" opacity="1"/><line transform="translate(0,123)" x2="-5" y2="0" stroke="#888" stroke-width="1" opacity="1"/><line transform="translate(0,85)" x2="-5" y2="0" stroke="#888" stroke-width="1" opacity="1"/><line transform="translate(0,46)" x2="-5" y2="0" stroke="#888" stroke-width="1" opacity="1"/><line transform="translate(0,8)" x2="-5" y2="0" stroke="#888" stroke-width="1" opacity="1"/></g><g class="mark-text role-axis-label" pointer-events="none"><text text-anchor="end" transform="translate(-7,203)" font-family="Liberation Mono" font-size="10px" fill="#000" opacity="1">0</text><text text-anchor="end" transform="translate(-7,164.53846153846155)" font-family="Liberation Mono" font-size="10px" fill="#000" opacity="1">500</text><text text-anchor="end" transform="translate(-7,126.07692307692308)" font-family="Liberation Mono" font-size="10px" fill="#000" opacity="1">1,000</text><text text-anchor="end" transform="translate(-7,87.61538461538463)" font-family="Liberation Mono" font-size="10px" fill="#000" opacity="1">1,500</text><text text-anchor="end" transform="translate(-7,49.153846153846146)" font-family="Liberation Mono" font-size="10px" fill="#000" opacity="1">2,000</text><text text-anchor="end" transform="translate(-7,10.692307692307686)" font-family="Liberation Mono" font-size="10px" fill="#000" opacity="1">2,500</text></g><g class="mark-rule role-axis-domain" pointer-events="none"><line transform="translate(0,200)" x2="0" y2="-200" stroke="#888" stroke-width="1" opacity="1"/></g><g class="mark-text role-axis-title" pointer-events="none"><text text-anchor="middle" transform="translate(-51,100) rotate(-90) translate(0,-2)" font-family="Liberation Mono" font-size="11px" font-weight="bold" fill="#000" opacity="1">Price</text></g></g><path class="foreground" aria-hidden="true" d="" pointer-events="none" display="none"/></g></g><g class="mark-group role-scope pathgroup" role="graphics-object" aria-roledescription="group mark container"><g transform="translate(0,0)"><path class="background" aria-hidden="true" d="M0,0h200v200h-200Z"/><g><g class="mark-line role-mark marks" role="graphics-object" aria-roledescription="line mark container"><path aria-label="Time: Jan 01, 2024; Price: 2399; identifier: altex-LG-F2WR508SBW" role="graphics-symbol" aria-roledescription="line mark" d="M0,15.462L0.081,15.462L0.203,15.462L0.459,15.462L0.588,15.462L0.723,15.462L0.846,15.462L0.973,15.462L1.23,15.462L1.358,15.462L1.494,15.462L1.616,15.462L1.743,15.462L2,15.462L2.129,15.462L2.264,15.462L2.388,15.462L2.514,15.462L2.771,34.692L2.899,34.692L3.034,34.692L3.158,34.692L3.284,34.692L3.541,34.692L3.67,34.692L3.804,34.692L3.927,34.692L4.055,34.692L4.312,34.692L4.44,34.692L4.574,34.692L4.698,34.692L4.825,34.692L5.083,34.692L5.211,34.692L5.346,34.692L5.469,34.692L5.595,34.692L5.853,34.692L5.982,34.692L6.118,34.692L6.24,34.692L6.366,34.692L6.624,34.692L6.752,34.692L6.887,34.692L7.01,34.692L7.136,34.692L7.394,34.692L7.522,34.692L7.658,34.692L7.781,34.692L7.907,34.692L8.164,34.692L8.293,34.692L8.428,34.692L8.551,34.692L8.677,34.692L8.934,46.231L9.062,46.231L9.197,46.231L9.32,46.231L9.448,46.231L9.705,46.231L9.833,46.231L9.967,46.231L10.091,46.231L10.218,46.231L10.476,46.231L10.604,46.231L10.74,46.231L10.863,46.231L10.988,46.231L11.246,46.231L11.375,46.231L11.51,46.231L11.633,46.231L11.759,46.231L12.016,46.231L12.145,46.231L12.281,46.231L12.403,46.231L12.529,46.231L12.787,46.231L12.915,46.231L13.051,46.231L13.173,46.231L13.3,46.231L13.557,46.231L13.686,46.231L13.821,46.231L13.944,46.231L14.07,46.231L14.328,46.231L14.455,46.231L14.59,46.231L14.714,46.231L14.841,46.231L15.098,46.231L15.226,46.231L15.36,46.231L15.484,46.231L15.611,46.231L15.869,46.231L15.998,46.231L16.133,46.231L16.255,46.231L16.382,46.231L16.639,46.231L16.768,46.231L16.903,46.231L17.026,46.231L17.152,46.231L17.41,46.231L17.538,46.231L17.674,46.231L17.796,46.231L17.922,46.231L18.18,46.231L18.308,46.231L18.444,46.231L18.567,46.231L18.693,46.231L18.95,46.231L19.079,46.231L19.212,46.231L19.335,46.231L19.464,46.231L19.72,46.231L19.849,46.231L19.981,46.231L20.105,46.231L20.233,46.231L20.491,46.231L20.619,46.231L20.751,46.231L20.876,46.231L21.004,46.231L21.261,46.231L21.39,46.231L21.523,46.231L21.646,46.231L21.775,46.231L22.031,46.231L22.16,46.231L22.293,46.231L22.418,46.231L22.545,46.231L22.802,46.231L22.93,46.231L23.064,46.231L23.187,46.231L23.315,46.231L23.572,34.692L23.701,34.692L23.834,34.692L23.957,34.692L24.086,34.692L24.343,34.692L24.471,34.692L24.604,34.692L24.728,34.692L24.856,34.692L25.113,34.692L25.241,34.692L25.374,34.692L25.498,34.692L25.627,34.692L25.884,34.692L26.012,34.692L26.144,34.692L26.268,34.692L26.397,34.692L26.654,34.692L26.783,34.692L26.916,34.692L27.039,34.692L27.167,34.692L27.424,34.692L27.553,34.692L27.687,34.692L27.81,34.692L27.938,34.692L28.195,34.692L28.323,34.692L28.457,34.692L28.581,34.692L28.708,34.692L28.965,34.692L29.094,34.692L29.227,34.692L29.351,34.692L29.479,34.692L29.736,34.692L29.864,34.692L29.997,34.692L30.121,34.692L30.25,34.692L30.506,34.692L30.634,34.692L30.767,34.692L30.891,34.692L31.02,34.692L31.277,34.692L31.405,34.692L31.537,34.692L31.662,34.692L31.79,34.692L32.047,34.692L32.175,34.692L32.309,34.692L32.432,34.692L32.56,34.692L32.817,34.692L32.946,34.692L33.079,34.692L33.204,34.692L33.331,34.692L33.588,34.692L33.716,34.692L33.85,34.692L33.973,34.692L34.101,34.692L34.486,34.692L34.62,34.692L34.743,34.692L34.872,34.692L35.129,34.692L35.257,34.692L35.391,34.692L35.515,34.692L35.642,34.692L35.899,34.692L36.027,34.692L36.16,34.692L36.284,34.692L36.412,34.692L36.669,34.692L36.798,34.692L36.93,34.692L37.055,34.692L37.183,34.692L37.44,34.692L37.569,34.692L37.702,34.692L37.827,34.692L37.953,34.692L38.211,34.692L38.339,34.692L38.472,34.692L38.596,34.692L38.724,34.692L38.981,34.692L39.109,34.692L39.243,34.692L39.366,34.692L39.494,34.692L39.751,34.692L39.879,34.692L40.013,34.692L40.137,34.692L40.265,34.692L40.522,34.692L40.65,34.692L40.783,34.692L40.907,34.692L41.036,34.692L41.292,34.692L41.42,34.692L41.553,34.692L41.677,34.692L41.805,34.692L42.062,34.692L42.191,34.692L42.323,34.692L42.448,34.692L42.576,34.692L42.833,34.692L42.962,34.692L43.095,34.692L43.218,34.692L43.346,34.692L43.603,34.692L43.732,34.692L43.865,34.692L43.989,34.692L44.117,34.692L44.374,34.692L44.502,34.692L44.635,34.692L44.76,34.692L44.887,34.692L45.144,34.692L45.272,34.692L45.405,34.692L45.529,34.692L45.658,34.692L45.914,34.692L46.043,34.692L46.176,34.692L46.3,34.692L46.428,34.692L46.685,34.692L46.813,34.692L46.947,34.692L47.07,34.692L47.199,34.692L47.455,34.692L47.584,34.692L47.716,34.692L47.84,34.692L47.969,34.692L48.238,34.692L48.413,34.692L48.49,34.692L48.612,34.692L48.739,34.692L48.996,34.692L49.124,34.692L49.259,34.692L49.382,34.692L49.51,34.692L49.766,34.692L49.896,34.692L50.029,34.692L50.153,34.692L50.28,34.692L50.537,34.692L50.666,34.692L50.799,34.692L50.922,34.692L51.051,34.692L51.307,34.692L51.438,34.692L51.569,34.692L51.692,34.692L51.821,34.692L52.078,34.692L52.206,34.692L52.338,34.692L52.464,34.692L52.591,34.692L52.848,34.692L52.978,34.692L53.109,34.692L53.234,34.692L53.362,34.692L53.619,34.692L53.747,34.692L53.881,34.692L54.005,34.692L54.132,34.692L54.389,34.692L54.518,34.692L54.651,34.692L54.776,34.692L54.903,34.692L55.16,34.692L55.289,34.692L55.422,34.692L55.545,34.692L55.673,34.692L55.93,34.692L56.059,34.692L56.193,34.692L56.316,34.692L56.444,34.692L56.7,34.692L56.83,34.692L56.962,34.692L57.086,34.692L57.214,34.692L57.471,34.692L57.6,34.692L57.732,34.692L57.856,34.692L57.985,34.692L58.241,34.692L58.37,34.692L58.502,34.692L58.626,34.692L58.755,34.692L59.012,34.692L59.14,34.692L59.275,34.692L59.398,34.692L59.526,34.692L59.783,34.692L59.911,34.692L60.044,34.692L60.169,34.692L60.296,34.692L60.553,34.692L60.681,34.692L60.815,34.692L60.939,34.692L61.067,34.692L61.323,34.692L61.452,34.692L61.586,34.692L61.71,34.692L61.837,34.692L62.093,34.692L62.222,34.692L62.355,34.692L62.479,34.692L62.607,34.692L62.864,34.692L62.992,34.692L63.126,34.692L63.249,34.692L63.377,34.692L63.634,34.692L63.763,34.692L63.897,34.692L64.019,34.692L64.148,34.692L64.405,34.692L64.533,34.692L64.667,34.692L64.79,34.692L64.918,34.692L65.175,34.692L65.304,34.692L65.437,34.692L65.562,34.692L65.689,34.692L65.947,34.692L66.075,34.692L66.208,34.692L66.333,34.692L66.459,34.692L66.716,34.692L66.844,34.692L66.979,34.692L67.102,34.692L67.229,34.692L67.487,34.692L67.615,34.692L67.749,34.692L67.872,34.692L68,34.692L68.257,34.692L68.385,34.692L68.518,34.692L68.642,34.692L68.771,34.692L69.027,34.692L69.156,34.692L69.289,34.692L69.413,34.692L69.541,34.692L69.797,34.692L69.927,34.692L70.061,34.692L70.185,34.692L70.311,34.692L70.569,34.692L70.697,34.692L70.831,34.692L70.955,34.692L71.082,34.692L71.338,34.692L71.467,34.692L71.601,34.692L71.725,34.692L71.852,34.692L72.109,34.692L72.238,34.692L72.371,34.692L72.495,34.692L72.623,34.692L72.88,34.692L73.141,34.692L73.265,34.692L73.393,34.692L73.65,34.692L73.779,34.692L73.911,34.692L74.035,34.692L74.163,34.692L74.42,34.692L74.549,34.692L74.682,34.692L74.805,34.692L74.934,34.692L75.191,34.692L75.319,34.692L75.453,34.692L75.577,34.692L75.704,34.692L75.961,34.692L76.089,34.692L76.224,34.692L76.347,34.692L76.475,34.692L76.731,34.692L76.861,34.692L76.994,34.692L77.119,34.692L77.246,34.692L77.503,34.692L77.631,34.692L77.765,34.692L78.016,34.692L78.273,34.692L78.402,34.692L78.535,34.692L78.658,34.692L78.786,34.692L79.043,34.692L79.171,34.692L79.302,34.692L79.428,34.692L79.556,34.692L79.825,34.692L80.022,34.692L80.143,34.692L80.392,34.692L80.586,34.692L80.712,34.692L80.844,34.692L80.969,34.692L81.097,34.692L81.354,34.692L81.483,34.692L81.617,34.692L81.739,34.692L81.868,34.692L82.124,34.692L82.253,34.692L82.387,34.692L82.511,34.692L82.638,34.692L83.024,34.692L83.157,34.692L83.281,34.692L83.409,34.692L83.665,34.692L83.794,34.692L83.928,34.692L84.052,34.692L84.179,34.692L84.436,34.692L84.564,34.692L84.697,34.692L84.821,34.692L84.949,34.692L85.207,34.692L85.335,34.692L85.468,34.692L85.592,34.692L85.72,34.692L85.976,34.692L86.106,34.692L86.24,34.692L86.363,34.692L86.49,34.692L86.747,34.692L86.876,34.692L87.01,34.692L87.133,34.692L87.261,34.692L87.517,34.692L87.647,34.692L87.784,34.692L87.903,34.692L88.031,34.692L88.288,34.692L88.417,34.692L88.547,34.692L88.674,34.692L88.802,34.692L89.058,34.692L89.187,34.692L89.321,34.692L89.444,34.692L89.573,34.692L89.829,34.692L89.957,34.692L90.09,34.692L90.214,34.692L90.342,34.692L90.599,34.692L90.728,34.692L90.862,34.692L90.984,34.692L91.113,34.692L91.369,34.692L91.5,34.692L91.633,34.692L91.756,34.692L91.883,34.692L92.14,34.692L92.269,34.692L92.403,34.692L92.526,34.692L92.654,34.692L92.91,34.692L93.041,34.692L93.174,34.692L93.296,34.692L93.424,34.692L93.681,57.769L93.809,57.769L93.945,57.769L94.067,57.769L94.195,57.769L94.452,57.769L94.58,57.769L94.714,57.769L94.837,57.769L94.965,57.769L95.222,57.769L95.35,57.769L95.484,57.769L95.607,57.769L95.735,57.769L95.992,57.769L96.121,57.769L96.254,57.769L96.378,57.769L96.506,57.769L96.763,57.769L96.892,57.769L97.026,57.769L97.15,57.769L97.276,57.769L97.533,57.769L97.662,57.769L97.796,57.769L97.919,57.769L98.047,57.769L98.303,57.769L98.432,57.769L98.568,57.769L98.691,57.769L98.817,57.769L99.075,34.692L99.204,34.692L99.337,34.692L99.462,34.692L99.588,34.692L99.844,34.692L99.973,34.692L100.108,34.692L100.231,34.692L100.358,34.692L100.615,34.692L100.743,34.692L100.877,34.692L101,34.692L101.128,34.692L101.386,34.692L101.514,34.692L101.648,34.692L101.771,34.692L101.899,34.692L102.156,34.692L102.285,34.692L102.42,34.692L102.542,34.692L102.67,34.692L102.926,34.692L103.055,34.692L103.19,34.692L103.313,34.692L103.44,34.692L103.697,34.692L103.826,34.692L103.961,34.692L104.083,34.692L104.21,34.692L104.467,34.692L104.596,34.692L104.731,34.692L104.853,34.692L104.98,34.692L105.237,34.692L105.366,34.692L105.501,34.692L105.624,34.692L105.751,34.692L106.008,34.692L106.136,34.692L106.271,34.692L106.393,34.692L106.521,34.692L106.779,34.692L106.907,34.692L107.041,34.692L107.164,34.692L107.292,34.692L107.55,34.692L107.677,34.692L107.813,34.692L107.935,34.692L108.062,34.692L108.319,34.692L108.448,34.692L108.584,34.692L108.705,34.692L108.833,34.692L109.09,34.692L109.219,34.692L109.354,34.692L109.477,34.692L109.603,34.692L109.86,34.692L109.989,34.692L110.124,34.692L110.247,34.692L110.373,34.692L110.632,34.692L110.759,34.692L110.894,34.692L111.016,34.692L111.144,34.692L111.401,34.692L111.529,34.692L111.664,34.692L111.787,34.692L111.914,34.692L112.172,34.692L112.299,34.692L112.434,34.692L112.557,34.692L112.686,34.692L112.942,34.692L113.071,34.692L113.206,34.692L113.329,34.692L113.455,34.692L113.715,34.692L113.842,34.692L113.976,34.692L114.099,34.692L114.225,34.692L114.484,34.692L114.612,34.692L114.747,34.692L114.869,34.692L114.996,34.692L115.255,34.692L115.382,34.692L115.517,34.692L115.639,34.692L115.766,34.692L116.025,34.692L116.152,34.692L116.288,34.692L116.41,34.692L116.537,34.692L116.794,34.692L116.922,34.692L117.057,34.692L117.18,34.692L117.307,34.692L117.565,34.692L117.693,34.692L117.827,34.692L117.95,34.692L118.078,34.692L118.335,34.692L118.464,34.692L118.6,34.692L118.721,34.692L118.849,34.692L119.105,34.692L119.235,34.692L119.37,34.692L119.492,34.692L119.619,34.692L119.877,34.692L120.005,34.692L120.14,34.692L120.262,34.692L120.389,34.692L120.646,34.692L120.775,34.692L120.911,34.692L121.032,34.692L121.159,34.692L121.417,34.692L121.546,34.692L121.682,34.692L121.804,34.692L121.93,34.692L122.187,34.692L122.315,34.692L122.45,34.692L122.573,34.692L122.7,34.692L122.957,34.692L123.085,34.692L123.221,34.692L123.343,34.692L123.471,34.692L123.729,34.692L123.857,34.692L123.993,34.692L124.115,34.692L124.241,34.692L124.499,34.692L124.628,34.692L124.763,34.692L124.885,34.692L125.012,34.692L125.269,34.692L125.398,46.231L125.534,46.231L125.655,46.231L125.782,46.231L126.04,46.231L126.168,46.231L126.304,46.231L126.427,46.231L126.553,46.231L126.81,46.231L126.938,46.231L127.074,48.538L127.196,48.538L127.323,48.538L127.581,48.538L127.709,48.538L127.843,48.538L127.966,48.538L128.093,48.538L128.35,48.538L128.479,48.538L128.614,48.538L128.737,48.538L128.864,48.538L129.122,48.538L129.25,48.538L129.386,48.538L129.507,48.538L129.634,48.538L129.891,48.538L130.021,48.538L130.156,48.538L130.278,48.538L130.404,48.538L130.662,48.538L130.791,48.538L130.927,48.538L131.049,48.538L131.175,48.538L131.432,48.538L131.561,48.538L131.696,48.538L131.82,48.538L131.945,48.538L132.204,48.538L132.332,48.538L132.467,48.538L132.589,48.538L132.716,48.538L132.973,48.538L133.101,48.538L133.238,48.538L133.359,48.538L133.486,48.538L133.743,48.538L133.871,48.538L134.006,48.538L134.129,48.538L134.256,48.538L134.514,48.538L134.643,48.538L134.779,48.538L134.9,48.538L135.027,48.538L135.284,48.538L135.414,48.538L135.549,48.538L135.798,48.538L136.056,48.538L136.184,48.538L136.32,48.538L136.441,48.538L136.568,48.538L136.827,48.538L136.955,48.538L137.09,48.538L137.212,48.538L137.339,48.538L137.596,48.538L137.725,48.538L137.86,48.538L137.982,48.538L138.109,48.538L138.367,48.538L138.495,48.538L138.63,48.538L138.752,48.538L138.88,48.538L139.136,48.538L139.265,48.538L139.4,48.538L139.523,48.538L139.65,48.538L139.907,48.538L140.036,48.538L140.172,48.538L140.294,48.538L140.42,48.538L140.678,48.538L140.807,48.538L140.942,48.538L141.064,48.538L141.191,48.538L141.448,48.538L141.577,48.538L141.713,48.538L141.835,48.538L141.961,48.538L142.219,48.538L142.347,48.538L142.483,48.538L142.604,48.538L142.732,48.538L142.99,48.538L143.117,48.538L143.253,48.538L143.375,48.538L143.502,48.538L143.76,48.538L143.888,48.538L144.022,48.538L144.145,48.538L144.273,48.538L144.529,48.538L144.658,48.538L144.793,48.538L144.915,48.538L145.043,48.538L145.301,48.538L145.429,48.538L145.564,48.538L145.687,48.538L145.813,48.538L146.07,48.538L146.2,48.538L146.336,48.538L146.457,48.538L146.584,48.538L146.841,48.538L146.971,48.538L147.106,48.538L147.227,48.538L147.354,48.538L147.612,48.538L147.74,48.538L147.876,48.538L147.998,48.538L148.124,48.538L148.382,48.538L148.511,48.538L148.647,48.538L148.768,48.538L148.895,48.538L149.152,48.538L149.28,48.538L149.415,48.538L149.538,48.538L149.665,48.538L149.924,48.538L150.052,48.538L150.195,48.538L150.315,48.538L150.436,48.538L150.694,48.538L150.822,48.538L150.958,48.538L151.081,48.538L151.206,48.538L151.464,48.538L151.593,48.538L151.726,48.538L151.851,48.538L151.976,48.538L152.234,48.538L152.363,48.538L152.499,48.538L152.621,48.538L152.747,48.538L153.005,48.538L153.134,48.538L153.27,48.538L153.391,48.538L153.517,48.538L153.776,48.538L153.904,48.538L154.039,48.538L154.162,48.538L154.288,48.538L154.546,48.538L154.673,48.538L154.808,48.538L154.931,48.538L155.059,48.538L155.315,48.538L155.444,48.538L155.579,48.538L155.703,48.538L155.829,48.538L156.087,48.538L156.216,48.538L156.351,48.538L156.473,48.538L156.599,48.538L156.857,48.538L156.986,48.538L157.121,48.538L157.244,48.538L157.37,48.538L157.627,27L157.756,27L157.892,27L158.014,27L158.14,27L158.398,27L158.527,27L158.662,27L158.784,27L158.911,27L159.169,27L159.297,27L159.432,27L159.555,27L159.681,27L159.938,27L160.066,27L160.203,27L160.324,27L160.452,27L160.708,27L160.837,27L160.972,27L161.095,27L161.221,27L161.479,27L161.608,27L161.744,27L161.866,27L161.993,27L162.25,27L162.378,27L162.515,27L162.636,27L162.762,27L163.019,27L163.147,27L163.285,27L163.406,27L163.533,27L163.791,27L163.92,27L164.056,27L164.177,27L164.304,27L164.562,27L164.69,27L164.826,27L164.948,27L165.074,27L165.331,27L165.46,27L165.595,27L165.717,27L165.844,27L166.103,27L166.23,27L166.365,27L166.487,27L166.615,27L166.872,27L167.001,27L167.138,27L167.259,27L167.386,27L167.644,27L167.772,27L167.908,27L168.029,27L168.156,27L168.414,27L168.542,27L168.679,27L168.801,27L168.927,27L169.184,27L169.313,27L169.449,27L169.57,27L169.697,27L169.954,27L170.083,27L170.219,27L170.34,27L170.467,27L170.726,27L170.853,27L170.988,27L171.112,27L171.237,27L171.495,27L171.623,27L171.759,27L171.881,27L172.008,27L172.266,27L172.395,27L172.532,27L172.652,27L172.779,27L173.036,27L173.165,27L173.301,27L173.423,27L173.549,27L173.806,27L173.936,27L174.071,27L174.194,27L174.319,27L174.577,27L174.706,27L174.842,27L174.963,27L175.09,27L175.347,27L175.476,27L175.612,27L175.734,27L175.86,27L176.118,27L176.246,27L176.38,27L176.504,27L176.632,27L176.888,27L177.016,27L177.152,27L177.274,27L177.4,27L177.658,27L177.788,27L177.923,27L178.045,27L178.172,27L178.43,27L178.558,27L178.694,27L178.815,27L178.942,27L179.2,27L179.329,27L179.462,27L179.586,27L179.712,27L179.97,27L180.099,27L180.235,27L180.358,27L180.482,27L180.74,27L180.869,27L181.005,27L181.127,27L181.253,27L181.511,27L181.639,27L181.775,27L181.896,27L182.023,27L182.281,27L182.41,27L182.545,27L182.667,27L182.795,27L183.053,27L183.181,27L183.317,27L183.438,27L183.564,27L183.823,27L183.951,27L184.087,27L184.208,27L184.335,27L184.593,27L184.722,27L184.858,27L184.98,27L185.105,27L185.364,27L185.492,27L185.629,27L185.75,27L185.875,27L186.134,27L186.263,27L186.399,27L186.52,27L186.646,27L186.904,27L187.033,27L187.168,27L187.29,27L187.417,27L187.675,27L187.803,27L187.94,27L188.061,27L188.187,27L188.445,27L188.574,27L188.711,27L188.832,27L188.958,27L189.215,27L189.345,27L189.481,27L189.602,27L189.728,27L189.986,27L190.115,27L190.252,27L190.372,27L190.499,27L190.757,27L190.885,27L191.022,27L191.143,27L191.269,27L191.527,27L191.656,27L191.792,27L191.914,27L192.039,27L192.297,27L192.425,27L192.561,27L192.683,27L192.809,27L193.067,27L193.196,27L193.332,27L193.454,27L193.581,27L193.838,27L193.968,27L194.104,27L194.225,27L194.351,27L194.609,27L194.738,27L194.875,27L194.995,27L195.121,27L195.38,27L195.508,27L195.645,27L195.766,27L195.891,27L196.15,27L196.279,27L196.415,27L196.536,27L196.662,27L196.92,27L197.049,27L197.185,27L197.306,27L197.432,27L197.69,46.231L197.819,46.231L197.954,46.231L198.076,46.231L198.203,46.231L198.461,46.231L198.589,46.231L198.725,46.231L198.847,46.231L198.973,46.231L199.232,46.231L199.361,46.231L199.498,46.231L199.619,46.231L199.744,46.231L200,46.231" stroke="#4c78a8" stroke-width="2"/></g></g><path class="foreground" aria-hidden="true" d="" display="none"/></g><g transform="translate(0,0)"><path class="background" aria-hidden="true" d="M0,0h200v200h-200Z"/><g><g class="mark-line role-mark marks" role="graphics-object" aria-roledescription="line mark container"><path aria-label="Time: Jan 01, 2024; Price: 2499; identifier: altex-LG-F2WR508SBM" role="graphics-symbol" aria-roledescription="line mark" d="M0,7.769L0.081,7.769L0.203,7.769L0.46,7.769L0.588,7.769L0.723,7.769L0.846,7.769L0.973,7.769L1.23,7.769L1.358,7.769L1.494,7.769L1.616,7.769L1.743,7.769L2,7.769L2.129,7.769L2.264,7.769L2.388,7.769L2.514,7.769L2.771,27L2.899,27L3.034,27L3.158,27L3.284,27L3.541,27L3.67,27L3.804,27L3.927,27L4.055,27L4.312,27L4.44,27L4.574,27L4.698,27L4.825,27L5.083,27L5.211,27L5.346,27L5.469,27L5.595,27L5.853,27L5.982,27L6.118,27L6.24,27L6.366,27L6.624,27L6.752,27L6.887,27L7.01,27L7.136,27L7.394,27L7.522,27L7.658,27L7.781,27L7.907,27L8.164,27L8.293,27L8.428,27L8.551,27L8.677,27L8.934,38.538L9.062,38.538L9.197,38.538L9.32,38.538L9.448,38.538L9.705,38.538L9.833,38.538L9.967,38.538L10.091,38.538L10.218,38.538L10.476,38.538L10.604,38.538L10.74,38.538L10.863,38.538L10.989,38.538L11.246,38.538L11.375,38.538L11.51,38.538L11.633,38.538L11.759,38.538L12.016,38.538L12.145,38.538L12.281,38.538L12.403,38.538L12.529,38.538L12.787,38.538L12.915,38.538L13.051,38.538L13.173,38.538L13.3,38.538L13.557,38.538L13.686,38.538L13.821,38.538L13.944,38.538L14.07,38.538L14.328,38.538L14.455,38.538L14.59,38.538L14.714,38.538L14.841,38.538L15.098,38.538L15.226,38.538L15.36,38.538L15.484,38.538L15.611,38.538L15.869,38.538L15.998,38.538L16.133,38.538L16.255,38.538L16.382,38.538L16.639,38.538L16.768,38.538L16.903,38.538L17.026,38.538L17.152,38.538L17.41,38.538L17.538,38.538L17.674,38.538L17.796,38.538L17.922,38.538L18.18,38.538L18.309,38.538L18.444,38.538L18.567,38.538L18.693,38.538L18.95,38.538L19.079,38.538L19.212,38.538L19.335,38.538L19.464,38.538L19.72,38.538L19.849,38.538L19.981,38.538L20.105,38.538L20.233,38.538L20.491,38.538L20.619,38.538L20.751,38.538L20.876,38.538L21.004,38.538L21.261,38.538L21.39,38.538L21.523,38.538L21.646,38.538L21.775,38.538L22.031,38.538L22.16,38.538L22.293,38.538L22.418,38.538L22.545,38.538L22.802,38.538L22.93,38.538L23.064,38.538L23.187,38.538L23.315,38.538L23.572,27L23.701,27L23.834,27L23.957,27L24.086,27L24.343,27L24.471,27L24.604,27L24.728,27L24.856,27L25.113,27L25.242,27L25.374,27L25.498,27L25.627,27L25.884,27L26.012,27L26.144,27L26.269,27L26.397,27L26.654,27L26.783,27L26.916,27L27.039,27L27.167,27L27.424,27L27.553,27L27.687,27L27.81,27L27.938,27L28.195,27L28.323,27L28.457,27L28.581,27L28.708,27L28.965,27L29.094,27L29.227,27L29.351,27L29.479,27L29.736,27L29.864,27L29.997,27L30.121,27L30.25,27L30.506,27L30.634,27L30.767,27L30.891,27L31.02,27L31.277,27L31.405,27L31.537,27L31.662,27L31.79,27L32.047,27L32.175,27L32.309,27L32.432,27L32.56,27L32.817,27L32.946,27L33.079,27L33.204,27L33.331,27L33.588,27L33.716,27L33.85,27L33.973,27L34.101,27L34.487,27L34.62,27L34.744,27L34.872,27L35.129,27L35.257,27L35.391,27L35.515,27L35.642,27L35.899,27L36.027,27L36.16,27L36.284,27L36.413,27L36.669,27L36.798,27L36.93,27L37.055,27L37.183,27L37.44,27L37.569,27L37.702,27L37.827,27L37.953,27L38.211,27L38.339,27L38.472,27L38.596,27L38.724,27L38.981,27L39.109,27L39.243,27L39.366,27L39.495,27L39.751,27L39.879,27L40.013,27L40.137,27L40.265,27L40.522,27L40.65,27L40.783,27L40.907,27L41.036,27L41.292,27L41.42,27L41.553,27L41.677,27L41.805,27L42.062,27L42.191,27L42.323,27L42.448,27L42.576,27L42.833,27L42.962,27L43.095,27L43.218,27L43.346,27L43.603,27L43.732,27L43.865,27L43.989,27L44.117,27L44.374,27L44.502,27L44.635,27L44.76,27L44.887,27L45.144,27L45.272,27L45.405,27L45.529,27L45.658,27L45.914,27L46.043,27L46.176,27L46.3,27L46.428,27L46.685,27L46.813,27L46.947,27L47.07,27L47.199,27L47.455,27L47.584,27L47.716,27L47.841,27L47.969,27L48.238,27L48.413,27L48.49,27L48.612,27L48.74,27L48.996,27L49.124,27L49.259,27L49.382,27L49.51,27L49.767,27L49.896,27L50.029,27L50.153,27L50.28,27L50.537,27L50.666,27L50.799,38.538L50.922,38.538L51.051,38.538L51.308,38.538L51.438,38.538L51.569,38.538L51.693,38.538L51.821,38.538L52.078,38.538L52.206,38.538L52.338,38.538L52.464,38.538L52.591,38.538L52.848,38.538L52.978,38.538L53.109,38.538L53.234,38.538L53.362,38.538L53.619,38.538L53.747,38.538L53.881,38.538L54.005,38.538L54.132,38.538L54.389,38.538L54.518,38.538L54.651,38.538L54.776,38.538L54.903,38.538L55.16,38.538L55.289,38.538L55.422,38.538L55.545,38.538L55.673,38.538L55.93,38.538L56.059,38.538L56.193,38.538L56.316,38.538L56.444,38.538L56.7,38.538L56.83,38.538L56.962,38.538L57.086,38.538L57.214,38.538L57.471,38.538L57.6,38.538L57.732,38.538L57.856,38.538L57.985,38.538L58.241,38.538L58.371,38.538L58.503,38.538L58.626,38.538L58.755,38.538L59.012,38.538L59.14,38.538L59.275,38.538L59.398,38.538L59.526,38.538L59.783,38.538L59.911,38.538L60.044,38.538L60.169,38.538L60.296,38.538L60.553,38.538L60.681,38.538L60.815,38.538L60.939,38.538L61.067,38.538L61.323,38.538L61.452,38.538L61.586,38.538L61.71,38.538L61.837,38.538L62.094,38.538L62.222,38.538L62.355,38.538L62.479,38.538L62.607,38.538L62.864,38.538L62.992,38.538L63.126,38.538L63.249,38.538L63.377,38.538L63.634,38.538L63.763,38.538L63.897,38.538L64.019,38.538L64.148,38.538L64.405,38.538L64.533,38.538L64.667,38.538L64.79,38.538L64.918,38.538L65.175,38.538L65.304,38.538L65.438,38.538L65.562,38.538L65.689,38.538L65.947,38.538L66.075,38.538L66.208,38.538L66.333,38.538L66.459,38.538L66.716,38.538L66.844,38.538L66.979,38.538L67.102,38.538L67.229,38.538L67.487,38.538L67.615,38.538L67.749,38.538L67.872,38.538L68,38.538L68.257,38.538L68.385,38.538L68.518,38.538L68.642,38.538L68.771,38.538L69.027,38.538L69.156,38.538L69.289,38.538L69.413,38.538L69.541,38.538L69.798,38.538L69.927,38.538L70.061,38.538L70.185,38.538L70.311,38.538L70.569,38.538L70.697,38.538L70.831,38.538L70.955,38.538L71.082,38.538L71.338,38.538L71.467,38.538L71.601,38.538L71.725,38.538L71.852,38.538L72.109,38.538L72.238,38.538L72.371,38.538L72.495,38.538L72.623,38.538L72.881,38.538L73.141,38.538L73.265,38.538L73.393,38.538L73.65,38.538L73.779,38.538L73.911,38.538L74.035,38.538L74.163,38.538L74.42,38.538L74.549,38.538L74.682,38.538L74.805,38.538L74.934,38.538L75.191,38.538L75.319,38.538L75.453,38.538L75.577,38.538L75.704,38.538L75.961,38.538L76.089,38.538L76.224,38.538L76.347,38.538L76.475,38.538L76.731,38.538L76.861,38.538L76.994,38.538L77.119,38.538L77.246,38.538L77.503,38.538L77.632,38.538L77.765,38.538L78.016,38.538L78.273,38.538L78.402,38.538L78.535,38.538L78.658,38.538L78.786,38.538L79.043,38.538L79.171,38.538L79.302,38.538L79.428,38.538L79.556,38.538L79.825,38.538L80.022,38.538L80.143,38.538L80.392,38.538L80.586,38.538L80.712,38.538L80.844,38.538L80.969,38.538L81.097,38.538L81.354,38.538L81.483,38.538L81.617,38.538L81.739,38.538L81.868,38.538L82.124,38.538L82.253,38.538L82.388,38.538L82.511,38.538L82.638,38.538L83.024,38.538L83.158,38.538L83.281,38.538L83.409,38.538L83.665,38.538L83.794,38.538L83.928,38.538L84.052,38.538L84.179,38.538L84.436,38.538L84.564,38.538L84.697,38.538L84.821,38.538L84.949,38.538L85.207,38.538L85.335,38.538L85.468,38.538L85.592,38.538L85.72,38.538L85.977,38.538L86.106,38.538L86.24,38.538L86.363,38.538L86.49,38.538L86.747,38.538L86.876,38.538L87.01,38.538L87.133,38.538L87.261,38.538L87.517,38.538L87.647,38.538L87.784,38.538L87.903,38.538L88.031,38.538L88.288,38.538L88.417,38.538L88.547,38.538L88.674,38.538L88.802,38.538L89.058,38.538L89.187,38.538L89.321,38.538L89.444,38.538L89.573,38.538L89.829,38.538L89.957,38.538L90.09,38.538L90.214,38.538L90.342,38.538L90.599,38.538L90.728,38.538L90.862,38.538L90.984,38.538L91.113,38.538L91.369,38.538L91.5,38.538L91.633,38.538L91.756,38.538L91.883,38.538L92.14,38.538L92.269,38.538L92.403,38.538L92.526,38.538L92.654,38.538L92.91,38.538L93.041,38.538L93.174,38.538L93.296,38.538L93.424,38.538L93.682,38.538L93.809,38.538L93.945,38.538L94.067,38.538L94.195,38.538L94.452,38.538L94.58,38.538L94.714,38.538L94.837,38.538L94.965,38.538L95.222,38.538L95.35,38.538L95.484,38.538L95.607,38.538L95.735,38.538L95.992,38.538L96.121,38.538L96.255,38.538L96.378,38.538L96.506,38.538L96.763,38.538L96.892,38.538L97.026,38.538L97.15,38.538L97.276,38.538L97.533,38.538L97.662,38.538L97.796,30.846L97.919,30.846L98.047,30.846L98.303,30.846L98.432,30.846L98.568,30.846L98.691,30.846L98.817,30.846L99.075,30.846L99.204,30.846L99.337,30.846L99.462,30.846L99.588,30.846L99.844,30.846L99.973,30.846L100.108,30.846L100.231,30.846L100.358,30.846L100.615,30.846L100.743,30.846L100.877,30.846L101,30.846L101.128,30.846L101.386,30.846L101.514,30.846L101.648,30.846L101.771,30.846L101.899,30.846L102.156,30.846L102.285,30.846L102.42,30.846L102.542,30.846L102.67,30.846L102.926,30.846L103.055,30.846L103.19,30.846L103.313,30.846L103.44,30.846L103.697,30.846L103.826,30.846L103.961,30.846L104.083,30.846L104.21,30.846L104.467,30.846L104.596,30.846L104.731,30.846L104.853,30.846L104.98,30.846L105.237,30.846L105.366,30.846L105.501,30.846L105.624,30.846L105.751,30.846L106.008,30.846L106.136,30.846L106.271,30.846L106.393,30.846L106.521,30.846L106.779,30.846L106.907,30.846L107.041,30.846L107.164,30.846L107.292,30.846L107.55,30.846L107.677,30.846L107.813,30.846L107.935,30.846L108.063,30.846L108.319,30.846L108.448,30.846L108.584,30.846L108.705,30.846L108.833,30.846L109.09,30.846L109.219,30.846L109.354,38.538L109.477,38.538L109.603,38.538L109.86,38.538L109.989,38.538L110.124,38.538L110.247,38.538L110.373,38.538L110.632,38.538L110.759,38.538L110.894,38.538L111.016,38.538L111.144,38.538L111.401,38.538L111.53,38.538L111.664,38.538L111.787,38.538L111.914,38.538L112.172,38.538L112.299,38.538L112.434,38.538L112.557,38.538L112.686,38.538L112.942,38.538L113.071,38.538L113.206,38.538L113.329,38.538L113.455,38.538L113.715,38.538L113.842,38.538L113.976,38.538L114.099,38.538L114.225,38.538L114.484,38.538L114.612,38.538L114.747,38.538L114.869,38.538L114.996,38.538L115.255,38.538L115.382,38.538L115.517,38.538L115.639,38.538L115.766,38.538L116.025,30.846L116.152,30.846L116.288,30.846L116.41,30.846L116.537,30.846L116.794,30.846L116.922,30.846L117.057,30.846L117.18,30.846L117.307,30.846L117.565,30.846L117.693,30.846L117.827,30.846L117.95,30.846L118.078,30.846L118.335,30.846L118.464,30.846L118.6,30.846L118.721,30.846L118.849,30.846L119.105,30.846L119.235,30.846L119.37,30.846L119.492,30.846L119.619,30.846L119.877,30.846L120.005,30.846L120.14,30.846L120.262,30.846L120.389,30.846L120.646,30.846L120.775,30.846L120.911,30.846L121.032,30.846L121.159,30.846L121.417,30.846L121.546,30.846L121.682,30.846L121.804,30.846L121.93,30.846L122.187,30.846L122.315,30.846L122.45,30.846L122.574,30.846L122.7,30.846L122.957,30.846L123.085,30.846L123.221,30.846L123.343,30.846L123.471,30.846L123.729,30.846L123.858,30.846L123.993,30.846L124.115,30.846L124.241,30.846L124.499,30.846L124.628,30.846L124.763,30.846L124.885,30.846L125.012,30.846L125.269,30.846L125.398,34.692L125.534,34.692L125.655,34.692L125.782,34.692L126.04,34.692L126.168,34.692L126.304,34.692L126.427,34.692L126.553,34.692L126.81,34.692L126.938,34.692L127.074,40.077L127.196,40.077L127.323,40.077L127.581,40.077L127.709,40.077L127.844,40.077L127.966,40.077L128.094,40.077L128.35,40.077L128.479,40.077L128.614,40.077L128.737,40.077L128.864,40.077L129.122,40.077L129.25,40.077L129.386,40.077L129.507,40.077L129.634,40.077L129.891,40.077L130.021,40.077L130.156,40.077L130.278,40.077L130.404,40.077L130.662,40.077L130.791,40.077L130.927,40.077L131.049,40.077L131.175,40.077L131.432,40.077L131.561,40.077L131.696,40.077L131.82,40.077L131.945,40.077L132.204,40.077L132.332,40.077L132.467,40.077L132.589,40.077L132.716,40.077L132.973,40.077L133.101,40.077L133.238,40.077L133.359,40.077L133.486,40.077L133.743,40.077L133.871,40.077L134.007,40.077L134.129,40.077L134.257,40.077L134.514,40.077L134.643,40.077L134.779,40.077L134.9,40.077L135.027,40.077L135.285,40.077L135.414,40.077L135.549,40.077L135.798,40.077L136.056,40.077L136.184,40.077L136.32,40.077L136.441,40.077L136.568,40.077L136.827,40.077L136.955,40.077L137.09,40.077L137.212,40.077L137.339,40.077L137.596,40.077L137.725,40.077L137.861,40.077L137.982,40.077L138.109,40.077L138.367,40.077L138.495,40.077L138.63,40.077L138.752,40.077L138.88,40.077L139.136,40.077L139.265,40.077L139.4,40.077L139.523,40.077L139.65,40.077L139.907,40.077L140.036,40.077L140.172,40.077L140.294,40.077L140.42,40.077L140.678,40.077L140.807,40.077L140.942,40.077L141.064,40.077L141.191,40.077L141.448,40.077L141.577,40.077L141.713,40.077L141.835,40.077L141.961,40.077L142.219,40.077L142.347,40.077L142.483,40.077L142.604,40.077L142.732,40.077L142.99,40.077L143.117,40.077L143.253,40.077L143.375,40.077L143.502,40.077L143.76,40.077L143.888,40.077L144.022,40.077L144.145,40.077L144.273,40.077L144.529,40.077L144.658,40.077L144.793,40.077L144.915,40.077L145.043,40.077L145.301,40.077L145.429,40.077L145.564,40.077L145.687,40.077L145.813,40.077L146.071,40.077L146.2,40.077L146.336,40.077L146.457,40.077L146.584,40.077L146.841,40.077L146.971,40.077L147.106,40.077L147.228,40.077L147.354,40.077L147.612,40.077L147.74,40.077L147.876,40.077L147.998,40.077L148.124,40.077L148.382,40.077L148.511,40.077L148.647,40.077L148.768,40.077L148.895,40.077L149.152,40.077L149.28,40.077L149.415,40.077L149.538,40.077L149.665,40.077L149.924,40.077L150.052,40.077L150.195,40.077L150.315,40.077L150.436,40.077L150.694,40.077L150.822,40.077L150.958,40.077L151.081,40.077L151.206,40.077L151.464,40.077L151.593,40.077L151.726,40.077L151.851,40.077L151.976,40.077L152.234,40.077L152.363,40.077L152.499,40.077L152.621,40.077L152.747,40.077L153.005,40.077L153.134,40.077L153.27,40.077L153.391,40.077L153.517,40.077L153.776,40.077L153.904,40.077L154.04,40.077L154.162,40.077L154.288,40.077L154.546,40.077L154.673,40.077L154.809,40.077L154.931,40.077L155.059,40.077L155.316,40.077L155.444,40.077L155.579,40.077L155.703,40.077L155.829,40.077L156.087,40.077L156.216,40.077L156.351,40.077L156.473,40.077L156.599,40.077L156.857,40.077L156.986,40.077L157.121,40.077L157.244,40.077L157.37,40.077L157.627,40.077L157.756,40.077L157.892,40.077L158.014,40.077L158.14,40.077L158.398,40.077L158.527,40.077L158.662,40.077L158.784,40.077L158.911,40.077L159.169,40.077L159.297,40.077L159.432,40.077L159.556,40.077L159.681,40.077L159.938,40.077L160.066,40.077L160.203,40.077L160.324,40.077L160.452,40.077L160.708,40.077L160.837,40.077L160.972,40.077L161.095,40.077L161.221,40.077L161.479,40.077L161.608,40.077L161.744,40.077L161.866,40.077L161.993,40.077L162.25,40.077L162.378,40.077L162.515,40.077L162.636,40.077L162.762,40.077L163.019,40.077L163.148,40.077L163.286,40.077L163.406,40.077L163.533,40.077L163.791,40.077L163.92,40.077L164.056,40.077L164.177,40.077L164.304,40.077L164.562,40.077L164.69,40.077L164.826,40.077L164.948,40.077L165.074,40.077L165.331,40.077L165.46,40.077L165.595,40.077L165.717,40.077L165.844,40.077L166.103,40.077L166.23,40.077L166.365,40.077L166.487,40.077L166.616,40.077L166.872,40.077L167.002,40.077L167.138,40.077L167.259,40.077L167.386,40.077L167.644,40.077L167.772,40.077L167.908,40.077L168.029,40.077L168.156,40.077L168.414,40.077L168.542,40.077L168.679,40.077L168.801,40.077L168.927,40.077L169.184,40.077L169.313,40.077L169.449,40.077L169.57,40.077L169.697,40.077L169.955,40.077L170.083,40.077L170.219,40.077L170.341,40.077L170.467,40.077L170.726,40.077L170.853,40.077L170.988,40.077L171.112,40.077L171.237,40.077L171.495,40.077L171.623,40.077L171.759,40.077L171.881,40.077L172.008,40.077L172.266,40.077L172.395,40.077L172.532,40.077L172.652,40.077L172.779,40.077L173.036,40.077L173.165,40.077L173.301,40.077L173.423,40.077L173.549,40.077L173.807,40.077L173.936,40.077L174.071,40.077L174.194,40.077L174.319,40.077L174.577,40.077L174.706,40.077L174.842,40.077L174.963,40.077L175.09,40.077L175.347,40.077L175.476,40.077L175.612,40.077L175.734,40.077L175.86,40.077L176.118,40.077L176.246,40.077L176.38,40.077L176.504,40.077L176.632,40.077L176.888,40.077L177.016,40.077L177.152,40.077L177.274,40.077L177.4,40.077L177.658,40.077L177.788,40.077L177.923,40.077L178.045,40.077L178.172,40.077L178.43,40.077L178.558,40.077L178.694,40.077L178.815,40.077L178.942,40.077L179.2,40.077L179.329,40.077L179.462,40.077L179.586,40.077L179.713,40.077L179.97,40.077L180.099,40.077L180.235,40.077L180.358,40.077L180.482,40.077L180.74,40.077L180.869,40.077L181.005,40.077L181.127,40.077L181.253,40.077L181.511,40.077L181.639,40.077L181.775,40.077L181.896,40.077L182.023,40.077L182.281,40.077L182.41,40.077L182.545,40.077L182.667,40.077L182.795,40.077L183.053,40.077L183.181,40.077L183.317,40.077L183.438,40.077L183.564,40.077L183.823,40.077L183.951,40.077L184.087,40.077L184.208,40.077L184.335,40.077L184.593,40.077L184.722,40.077L184.858,40.077L184.98,40.077L185.105,40.077L185.364,40.077L185.492,40.077L185.629,40.077L185.75,40.077L185.875,40.077L186.134,40.077L186.263,40.077L186.399,40.077L186.52,40.077L186.646,40.077L186.905,40.077L187.033,40.077L187.168,40.077L187.29,40.077L187.417,40.077L187.675,40.077L187.803,40.077L187.94,40.077L188.061,40.077L188.187,40.077L188.445,40.077L188.574,40.077L188.711,40.077L188.832,40.077L188.958,40.077L189.215,40.077L189.345,40.077L189.481,40.077L189.602,40.077L189.728,40.077L189.986,40.077L190.115,40.077L190.252,40.077L190.372,40.077L190.499,40.077L190.757,40.077L190.885,40.077L191.022,40.077L191.143,40.077L191.269,40.077L191.527,40.077L191.656,40.077L191.792,40.077L191.914,40.077L192.039,40.077L192.297,40.077L192.425,40.077L192.561,40.077L192.683,40.077L192.809,40.077L193.067,40.077L193.196,40.077L193.332,40.077L193.454,40.077L193.581,40.077L193.838,40.077L193.968,40.077L194.104,40.077L194.225,40.077L194.351,40.077L194.609,40.077L194.738,40.077L194.875,40.077L194.995,40.077L195.121,40.077L195.38,40.077L195.509,40.077L195.645,40.077L195.766,40.077L195.891,40.077L196.15,40.077L196.279,40.077L196.415,40.077L196.536,40.077L196.662,40.077L196.92,40.077L197.049,40.077L197.185,40.077L197.306,40.077L197.432,40.077L197.69,40.077L197.819,40.077L197.954,40.077L198.076,40.077L198.203,40.077L198.461,40.077L198.589,40.077L198.725,40.077L198.847,40.077L198.973,40.077L199.232,40.077L199.361,40.077L199.498,40.077L199.619,40.077L199.744,40.077L200,40.077" stroke="#f58518" stroke-width="2"/></g></g><path class="foreground" aria-hidden="true" d="" display="none"/></g></g><g class="mark-group role-legend" role="graphics-symbol" aria-roledescription="legend" aria-label="Symbol legend titled 'identifier' for stroke color with 2 values: altex-LG-F2WR508SBW, altex-LG-F2WR508SBM"><g transform="translate(220,0)"><path class="background" aria-hidden="true" d="M0,0h168v40h-168Z" pointer-events="none"/><g><g class="mark-group role-legend-entry"><g transform="translate(0,16)"><path class="background" aria-hidden="true" d="M0,0h0v0h0Z" pointer-events="none"/><g><g class="mark-group role-scope" role="graphics-object" aria-roledescription="group mark container"><g transform="translate(0,0)"><path class="background" aria-hidden="true" d="M0,0h168v11h-168Z" pointer-events="none" opacity="1"/><g><g class="mark-symbol role-legend-symbol" pointer-events="none"><path transform="translate(6,6)" d="M-5,0L5,0" stroke="#4c78a8" stroke-width="1.5" opacity="1"/></g><g class="mark-text role-legend-label" pointer-events="none"><text text-anchor="start" transform="translate(16,9)" font-family="Liberation Mono" font-size="10px" fill="#000" opacity="1">altex-LG-F2WR508SBW</text></g></g><path class="foreground" aria-hidden="true" d="" pointer-events="none" display="none"/></g><g transform="translate(0,13)"><path class="background" aria-hidden="true" d="M0,0h168v11h-168Z" pointer-events="none" opacity="1"/><g><g class="mark-symbol role-legend-symbol" pointer-events="none"><path transform="translate(6,6)" d="M-5,0L5,0" stroke="#f58518" stroke-width="1.5" opacity="1"/></g><g class="mark-text role-legend-label" pointer-events="none"><text text-anchor="start" transform="translate(16,9)" font-family="Liberation Mono" font-size="10px" fill="#000" opacity="1">altex-LG-F2WR508SBM</text></g></g><path class="foreground" aria-hidden="true" d="" pointer-events="none" display="none"/></g></g></g><path class="foreground" aria-hidden="true" d="" pointer-events="none" display="none"/></g></g><g class="mark-text role-legend-title" pointer-events="none"><text text-anchor="start" transform="translate(0,9)" font-family="Liberation Mono" font-size="11px" font-weight="bold" fill="#000" opacity="1">identifier</text></g></g><path class="foreground" aria-hidden="true" d="" pointer-events="none" display="none"/></g></g></g><path class="foreground" aria-hidden="true" d="" display="none"/></g></g></g></svg>