<svg xmlns="http://www.w3.org/2000/svg" xmlns:xlink="http://www.w3.org/1999/xlink" version="1.1" class="marks" width="460" height="242" viewBox="0 0 460 242"><rect width="460" height="242" fill="white"/><g fill="none" stroke-miterlimit="10" transform="translate(67,5)"><g class="mark-group role-frame root" role="graphics-object" aria-roledescription="group mark container"><g transform="translate(0,0)"><path class="background" aria-hidden="true" d="M0.5,0.5h200v200h-200Z" stroke="#ddd"/><g><g class="mark-group role-axis" aria-hidden="true"><g transform="translate(0.5,200.5)"><path class="background" aria-hidden="true" d="M0,0h0v0h0Z" pointer-events="none"/><g><g class="mark-rule role-axis-grid" pointer-events="none"><line transform="translate(52,-200)" x2="0" y2="200" stroke="#ddd" stroke-width="1" opacity="1"/><line transform="translate(105,-200)" x2="0" y2="200" stroke="#ddd" stroke-width="1" opacity="1"/><line transform="translate(159,-200)" x2="0" y2="200" stroke="#ddd" stroke-width="1" opacity="1"/></g></g><path class="foreground" aria-hidden="true" d="" pointer-events="none" display="none"/></g></g><g class="mark-group role-axis" aria-hidden="true"><g transform="translate(0.5,0.5)"><path class="background" aria-hidden="true" d="M0,0h0v0h0Z" pointer-events="none"/><g><g class="mark-rule role-axis-grid" pointer-events="none"><line transform="translate(0,200)" x2="200" y2="0" stroke="#ddd" stroke-width="1" opacity="1"/><line transform="translate(0,162)" x2="200" y2="0" stroke="#ddd" stroke-width="1" opacity="1"/><line transform="translate(0,123)" x2="200" y2="0" stroke="#ddd" stroke-width="1" opacity="1"/><line transform="translate(0,85)" x2="200" y2="0" stroke="#ddd" stroke-width="1" opacity="1"/><line transform="translate(0,46)" x2="200" y2="0" stroke="#ddd" stroke-width="1" opacity="1"/><line transform="translate(0,8)" x2="200" y2="0" stroke="#ddd" stroke-width="1" opacity="1"/></g></g><path class="foreground" aria-hidden="true" d="" pointer-events="none" display="none"/></g></g><g class="mark-group role-axis" role="graphics-symbol" aria-roledescription="axis" aria-label="X-axis titled 'Time' for a time scale with values from Monday, 01 January 2024, 2:19:43 PM to Wednesday, 11 December 2024, 4:46:11 AM"><g transform="translate(0.5,200.5)"><path class="background" aria-hidden="true" d="M0,0h0v0h0Z" pointer-events="none"/><g><g class="mark-rule role-axis-tick" pointer-events="none"><line transform="translate(52,0)" x2="0" y2="5" stroke="#888" stroke-width="1" opacity="1"/><line transform="translate(105,0)" x2="0" y2="5" stroke="#888" stroke-width="1" opacity="1"/><line transform="translate(159,0)" x2="0" y2="5" stroke="#888" stroke-width="1" opacity="1"/></g><g class="mark-text role-axis-label" pointer-events="none"><text text-anchor="middle" transform="translate(52.46809282041549,15)" font-family="Liberation Mono" font-size="10px" fill="#000" opacity="1">April</text><text text-anchor="middle" transform="translate(105.28268818591775,15)" font-family="Liberation Mono" font-size="10px" fill="#000" opacity="1">July</text><text text-anchor="middle" transform="translate(158.67766372027168,15)" font-family="Liberation Mono" font-size="10px" fill="#000" opacity="1">October</text></g><g class="mark-rule role-axis-domain" pointer-events="none"><line transform="translate(0,0)" x2="200" y2="0" stroke="#888" stroke-width="1" opacity="1"/></g><g class="mark-text role-axis-title" pointer-events="none"><text text-anchor="middle" transform="translate(100,30)" font-family="Liberation Mono" font-size="11px" font-weight="bold" fill="#000" opacity="1">Time</text></g></g><path class="foreground" aria-hidden="true" d="" pointer-events="none" display="none"/></g></g><g class="mark-group role-axis" role="graphics-symbol" aria-roledescription="axis" aria-label="Y-axis titled 'Price' for a linear scale with values from 0 to 2,600"><g transform="translate(0.5,0.5)"><path class="background" aria-hidden="true" d="M0,0h0v0h0Z" pointer-events="none"/><g><g class="mark-rule role-axis-tick" pointer-events="none"><line transform="translate(0,200)" x2="-5" y2="0" stroke="#888" stroke-width="1" opacity="1"/><line transform="translate(0,162)" x2="-5" y2="0" stroke="#888" stroke-width="1" opacity="1"/><line transform="translate(0,123)" x2="-5" y2="0" stroke="#888" stroke-width="1" opacity="1"/><line transform="translate(0,85)" x2="-5" y2="0" stroke="#888" stroke-width="1" opacity="1"/><line transform="translate(0,46)" x2="-5" y2="0" stroke="#888" stroke-width="1" opacity="1"/><line transform="translate(0,8)" x2="-5" y2="0" stroke="#888" stroke-width="1" opacity="1"/></g><g class="mark-text role-axis-label" pointer-events="none"><text text-anchor="end" transform="translate(-7,203)" font-family="Liberation Mono" font-size="10px" fill="#000" opacity="1">0</text><text text-anchor="end" transform="translate(-7,164.53846153846155)" font-family="Liberation Mono" font-size="10px" fill="#000" opacity="1">500</text><text text-anchor="end" transform="translate(-7,126.07692307692308)" font-family="Liberation Mono" font-size="10px" fill="#000" opacity="1">1,000</text><text text-anchor="end" transform="translate(-7,87.61538461538463)" font-family="Liberation Mono" font-size="10px" fill="#000" opacity="1">1,500</text><text text-anchor="end" transform="translate(-7,49.153846153846146)" font-family="Liberation Mono" font-size="10px" fill="#000" opacity="1">2,000</text><text text-anchor="end" transform="translate(-7,10.692307692307686)" font-family="Liberation Mono" font-size="10px" fill="#000" opacity="1">2,500</text></g><g class="mark-rule role-axis-domain" pointer-events="none"><line transform="translate(0,200)" x2="0" y2="-200" stroke="#888" stroke-width="1" opacity="1"/></g><g class="mark-text role-axis-title" pointer-events="none"><text text-anchor="middle" transform="translate(-51,100) rotate(-90) translate(0,-2)" font-family="Liberation Mono" font-size="11px" font-weight="bold" fill="#000" opacity="1">Price</text></g></g><path class="foreground" aria-hidden="true" d="" pointer-events="none" display="none"/></g></g><g class="mark-group role-scope pathgroup" role="graphics-object" aria-roledescription="group mark container"><g transform="translate(0,0)"><path class="background" aria-hidden="true" d="M0,0h200v200h-200Z"/><g><g class="mark-line role-mark marks" role="graphics-object" aria-roledescription="line mark container"><path aria-label="Time: Jan 01, 2024; Price: 2399; identifier: altex-LG-F2WR508SBW" role="graphics-symbol" aria-roledescription="line mark" d="M0,15.462L0.061,15.462L0.153,15.462L0.346,15.462L0.443,15.462L0.545,15.462L0.637,15.462L0.733,15.462L0.927,15.462L1.023,15.462L1.125,15.462L1.218,15.462L1.313,15.462L1.507,15.462L1.604,15.462L1.705,15.462L1.799,15.462L1.894,15.462L2.088,34.692L2.184,34.692L2.286,34.692L2.379,34.692L2.474,34.692L2.668,34.692L2.764,34.692L2.866,34.692L2.959,34.692L3.054,34.692L3.249,34.692L3.345,34.692L3.446,34.692L3.539,34.692L3.635,34.692L3.829,34.692L3.926,34.692L4.028,34.692L4.12,34.692L4.215,34.692L4.409,34.692L4.506,34.692L4.609,34.692L4.701,34.692L4.796,34.692L4.99,34.692L5.086,34.692L5.188,34.692L5.281,34.692L5.376,34.692L5.57,34.692L5.667,34.692L5.769,34.692L5.861,34.692L5.956,34.692L6.15,34.692L6.247,34.692L6.349,34.692L6.442,34.692L6.537,34.692L6.73,46.231L6.827,46.231L6.928,46.231L7.021,46.231L7.117,46.231L7.311,46.231L7.407,46.231L7.509,46.231L7.601,46.231L7.698,46.231L7.892,46.231L7.989,46.231L8.091,46.231L8.183,46.231L8.278,46.231L8.472,46.231L8.569,46.231L8.671,46.231L8.763,46.231L8.858,46.231L9.052,46.231L9.149,46.231L9.251,46.231L9.344,46.231L9.439,46.231L9.632,46.231L9.729,46.231L9.831,46.231L9.924,46.231L10.019,46.231L10.213,46.231L10.31,46.231L10.412,46.231L10.505,46.231L10.599,46.231L10.793,46.231L10.89,46.231L10.991,46.231L11.084,46.231L11.18,46.231L11.373,46.231L11.47,46.231L11.571,46.231L11.664,46.231L11.76,46.231L11.955,46.231L12.052,46.231L12.154,46.231L12.245,46.231L12.341,46.231L12.535,46.231L12.632,46.231L12.734,46.231L12.826,46.231L12.921,46.231L13.115,46.231L13.212,46.231L13.314,46.231L13.406,46.231L13.501,46.231L13.696,46.231L13.792,46.231L13.894,46.231L13.987,46.231L14.082,46.231L14.275,46.231L14.373,46.231L14.473,46.231L14.566,46.231L14.662,46.231L14.856,46.231L14.953,46.231L15.052,46.231L15.146,46.231L15.242,46.231L15.436,46.231L15.533,46.231L15.632,46.231L15.726,46.231L15.823,46.231L16.016,46.231L16.113,46.231L16.214,46.231L16.307,46.231L16.403,46.231L16.597,46.231L16.693,46.231L16.794,46.231L16.888,46.231L16.984,46.231L17.177,46.231L17.274,46.231L17.375,46.231L17.467,46.231L17.564,46.231L17.757,34.692L17.854,34.692L17.955,34.692L18.048,34.692L18.144,34.692L18.338,34.692L18.435,34.692L18.535,34.692L18.628,34.692L18.725,34.692L18.918,34.692L19.015,34.692L19.115,34.692L19.208,34.692L19.305,34.692L19.499,34.692L19.595,34.692L19.695,34.692L19.789,34.692L19.885,34.692L20.079,34.692L20.176,34.692L20.277,34.692L20.369,34.692L20.466,34.692L20.659,34.692L20.756,34.692L20.857,34.692L20.95,34.692L21.046,34.692L21.24,34.692L21.337,34.692L21.437,34.692L21.531,34.692L21.627,34.692L21.82,34.692L21.917,34.692L22.017,34.692L22.111,34.692L22.207,34.692L22.401,34.692L22.497,34.692L22.597,34.692L22.691,34.692L22.788,34.692L22.981,34.692L23.078,34.692L23.178,34.692L23.271,34.692L23.368,34.692L23.562,34.692L23.658,34.692L23.758,34.692L23.851,34.692L23.948,34.692L24.142,34.692L24.238,34.692L24.339,34.692L24.432,34.692L24.529,34.692L24.722,34.692L24.819,34.692L24.919,34.692L25.014,34.692L25.109,34.692L25.302,34.692L25.399,34.692L25.5,34.692L25.593,34.692L25.689,34.692L25.98,34.692L26.08,34.692L26.173,34.692L26.27,34.692L26.463,34.692L26.56,34.692L26.661,34.692L26.754,34.692L26.85,34.692L27.044,34.692L27.14,34.692L27.24,34.692L27.334,34.692L27.43,34.692L27.624,34.692L27.721,34.692L27.82,34.692L27.914,34.692L28.011,34.692L28.204,34.692L28.301,34.692L28.402,34.692L28.496,34.692L28.591,34.692L28.785,34.692L28.882,34.692L28.982,34.692L29.075,34.692L29.172,34.692L29.365,34.692L29.462,34.692L29.563,34.692L29.656,34.692L29.752,34.692L29.945,34.692L30.042,34.692L30.143,34.692L30.236,34.692L30.332,34.692L30.526,34.692L30.623,34.692L30.723,34.692L30.816,34.692L30.913,34.692L31.106,34.692L31.203,34.692L31.303,34.692L31.396,34.692L31.493,34.692L31.687,34.692L31.784,34.692L31.883,34.692L31.977,34.692L32.073,34.692L32.267,34.692L32.364,34.692L32.464,34.692L32.557,34.692L32.654,34.692L32.847,34.692L32.944,34.692L33.045,34.692L33.138,34.692L33.234,34.692L33.428,34.692L33.524,34.692L33.625,34.692L33.718,34.692L33.815,34.692L34.008,34.692L34.105,34.692L34.205,34.692L34.298,34.692L34.395,34.692L34.588,34.692L34.686,34.692L34.786,34.692L34.879,34.692L34.975,34.692L35.169,34.692L35.266,34.692L35.366,34.692L35.459,34.692L35.556,34.692L35.749,34.692L35.846,34.692L35.946,34.692L36.039,34.692L36.136,34.692L36.339,34.692L36.471,34.692L36.528,34.692L36.62,34.692L36.717,34.692L36.91,34.692L37.007,34.692L37.108,34.692L37.2,34.692L37.297,34.692L37.49,34.692L37.588,34.692L37.688,34.692L37.781,34.692L37.877,34.692L38.071,34.692L38.168,34.692L38.268,34.692L38.361,34.692L38.458,34.692L38.651,34.692L38.749,34.692L38.848,34.692L38.941,34.692L39.038,34.692L39.232,34.692L39.328,34.692L39.428,34.692L39.522,34.692L39.618,34.692L39.812,34.692L39.909,34.692L40.008,34.692L40.102,34.692L40.199,34.692L40.393,34.692L40.489,34.692L40.59,34.692L40.683,34.692L40.779,34.692L40.973,34.692L41.069,34.692L41.17,34.692L41.264,34.692L41.36,34.692L41.553,34.692L41.65,34.692L41.751,34.692L41.843,34.692L41.94,34.692L42.133,34.692L42.23,34.692L42.331,34.692L42.424,34.692L42.52,34.692L42.714,34.692L42.811,34.692L42.911,34.692L43.004,34.692L43.101,34.692L43.294,34.692L43.391,34.692L43.491,34.692L43.584,34.692L43.681,34.692L43.875,34.692L43.972,34.692L44.071,34.692L44.165,34.692L44.262,34.692L44.455,34.692L44.552,34.692L44.653,34.692L44.746,34.692L44.842,34.692L45.036,34.692L45.132,34.692L45.233,34.692L45.327,34.692L45.422,34.692L45.616,34.692L45.713,34.692L45.813,34.692L45.907,34.692L46.003,34.692L46.196,34.692L46.293,34.692L46.394,34.692L46.488,34.692L46.583,34.692L46.777,34.692L46.873,34.692L46.974,34.692L47.067,34.692L47.164,34.692L47.357,34.692L47.454,34.692L47.554,34.692L47.647,34.692L47.744,34.692L47.937,34.692L48.034,34.692L48.135,34.692L48.227,34.692L48.324,34.692L48.518,34.692L48.614,34.692L48.715,34.692L48.808,34.692L48.904,34.692L49.098,34.692L49.195,34.692L49.296,34.692L49.389,34.692L49.485,34.692L49.679,34.692L49.776,34.692L49.876,34.692L49.97,34.692L50.065,34.692L50.259,34.692L50.355,34.692L50.457,34.692L50.55,34.692L50.646,34.692L50.839,34.692L50.936,34.692L51.037,34.692L51.13,34.692L51.226,34.692L51.419,34.692L51.516,34.692L51.616,34.692L51.71,34.692L51.807,34.692L52,34.692L52.097,34.692L52.197,34.692L52.291,34.692L52.387,34.692L52.58,34.692L52.678,34.692L52.779,34.692L52.872,34.692L52.967,34.692L53.161,34.692L53.258,34.692L53.359,34.692L53.452,34.692L53.547,34.692L53.741,34.692L53.838,34.692L53.939,34.692L54.032,34.692L54.128,34.692L54.322,34.692L54.418,34.692L54.519,34.692L54.612,34.692L54.708,34.692L54.903,34.692L55.099,34.692L55.193,34.692L55.289,34.692L55.482,34.692L55.579,34.692L55.679,34.692L55.772,34.692L55.869,34.692L56.062,34.692L56.159,34.692L56.259,34.692L56.353,34.692L56.449,34.692L56.643,34.692L56.74,34.692L56.841,34.692L56.934,34.692L57.03,34.692L57.223,34.692L57.32,34.692L57.421,34.692L57.514,34.692L57.61,34.692L57.804,34.692L57.901,34.692L58.002,34.692L58.095,34.692L58.191,34.692L58.385,34.692L58.482,34.692L58.582,34.692L58.771,34.692L58.965,34.692L59.062,34.692L59.162,34.692L59.255,34.692L59.351,34.692L59.545,34.692L59.641,34.692L59.74,34.692L59.835,34.692L59.932,34.692L60.134,34.692L60.283,34.692L60.374,34.692L60.561,34.692L60.707,34.692L60.802,34.692L60.902,34.692L60.996,34.692L61.093,34.692L61.286,34.692L61.383,34.692L61.484,34.692L61.576,34.692L61.673,34.692L61.866,34.692L61.963,34.692L62.064,34.692L62.158,34.692L62.254,34.692L62.544,34.692L62.645,34.692L62.737,34.692L62.834,34.692L63.027,34.692L63.124,34.692L63.225,34.692L63.318,34.692L63.414,34.692L63.608,34.692L63.704,34.692L63.805,34.692L63.898,34.692L63.994,34.692L64.188,34.692L64.285,34.692L64.385,34.692L64.478,34.692L64.575,34.692L64.768,34.692L64.866,34.692L64.967,34.692L65.059,34.692L65.155,34.692L65.349,34.692L65.445,34.692L65.547,34.692L65.64,34.692L65.736,34.692L65.929,34.692L66.027,34.692L66.13,34.692L66.22,34.692L66.316,34.692L66.509,34.692L66.607,34.692L66.705,34.692L66.8,34.692L66.897,34.692L67.09,34.692L67.187,34.692L67.288,34.692L67.381,34.692L67.477,34.692L67.67,34.692L67.767,34.692L67.867,34.692L67.96,34.692L68.057,34.692L68.251,34.692L68.347,34.692L68.448,34.692L68.541,34.692L68.637,34.692L68.831,34.692L68.929,34.692L69.029,34.692L69.122,34.692L69.218,34.692L69.411,34.692L69.509,34.692L69.61,34.692L69.702,34.692L69.798,34.692L69.992,34.692L70.09,34.692L70.19,34.692L70.282,34.692L70.379,34.692L70.573,57.769L70.669,57.769L70.771,57.769L70.863,57.769L70.96,57.769L71.153,57.769L71.249,57.769L71.35,57.769L71.443,57.769L71.539,57.769L71.733,57.769L71.83,57.769L71.93,57.769L72.023,57.769L72.12,57.769L72.313,57.769L72.41,57.769L72.511,57.769L72.604,57.769L72.7,57.769L72.894,57.769L72.991,57.769L73.092,57.769L73.185,57.769L73.28,57.769L73.474,57.769L73.571,57.769L73.672,57.769L73.765,57.769L73.861,57.769L74.054,57.769L74.152,57.769L74.254,57.769L74.346,57.769L74.441,57.769L74.635,34.692L74.733,34.692L74.833,34.692L74.927,34.692L75.022,34.692L75.215,34.692L75.312,34.692L75.414,34.692L75.506,34.692L75.602,34.692L75.796,34.692L75.892,34.692L75.993,34.692L76.086,34.692L76.182,34.692L76.376,34.692L76.473,34.692L76.574,34.692L76.666,34.692L76.763,34.692L76.957,34.692L77.054,34.692L77.155,34.692L77.248,34.692L77.343,34.692L77.537,34.692L77.634,34.692L77.736,34.692L77.828,34.692L77.924,34.692L78.117,34.692L78.214,34.692L78.316,34.692L78.408,34.692L78.504,34.692L78.697,34.692L78.795,34.692L78.897,34.692L78.988,34.692L79.084,34.692L79.278,34.692L79.375,34.692L79.477,34.692L79.569,34.692L79.665,34.692L79.858,34.692L79.955,34.692L80.056,34.692L80.148,34.692L80.245,34.692L80.439,34.692L80.535,34.692L80.637,34.692L80.729,34.692L80.826,34.692L81.02,34.692L81.116,34.692L81.218,34.692L81.31,34.692L81.406,34.692L81.599,34.692L81.697,34.692L81.799,34.692L81.89,34.692L81.987,34.692L82.18,34.692L82.277,34.692L82.379,34.692L82.471,34.692L82.567,34.692L82.76,34.692L82.857,34.692L82.959,34.692L83.052,34.692L83.147,34.692L83.341,34.692L83.438,34.692L83.539,34.692L83.631,34.692L83.728,34.692L83.921,34.692L84.018,34.692L84.119,34.692L84.212,34.692L84.308,34.692L84.502,34.692L84.598,34.692L84.699,34.692L84.792,34.692L84.889,34.692L85.082,34.692L85.179,34.692L85.281,34.692L85.373,34.692L85.468,34.692L85.664,34.692L85.76,34.692L85.861,34.692L85.953,34.692L86.049,34.692L86.243,34.692L86.34,34.692L86.442,34.692L86.534,34.692L86.629,34.692L86.824,34.692L86.92,34.692L87.022,34.692L87.114,34.692L87.21,34.692L87.404,34.692L87.5,34.692L87.602,34.692L87.694,34.692L87.79,34.692L87.984,34.692L88.08,34.692L88.182,34.692L88.274,34.692L88.37,34.692L88.564,34.692L88.661,34.692L88.762,34.692L88.854,34.692L88.951,34.692L89.145,34.692L89.242,34.692L89.344,34.692L89.436,34.692L89.532,34.692L89.725,34.692L89.822,34.692L89.924,34.692L90.017,34.692L90.112,34.692L90.306,34.692L90.403,34.692L90.505,34.692L90.597,34.692L90.692,34.692L90.886,34.692L90.983,34.692L91.085,34.692L91.177,34.692L91.272,34.692L91.466,34.692L91.563,34.692L91.666,34.692L91.758,34.692L91.853,34.692L92.046,34.692L92.143,34.692L92.244,34.692L92.338,34.692L92.433,34.692L92.627,34.692L92.723,34.692L92.825,34.692L92.917,34.692L93.013,34.692L93.208,34.692L93.305,34.692L93.407,34.692L93.499,34.692L93.594,34.692L93.788,34.692L93.885,34.692L93.987,34.692L94.079,34.692L94.175,34.692L94.368,34.692L94.465,46.231L94.568,46.231L94.659,46.231L94.755,46.231L94.949,46.231L95.046,46.231L95.148,46.231L95.241,46.231L95.335,46.231L95.529,46.231L95.626,46.231L95.728,48.538L95.82,48.538L95.916,48.538L96.11,48.538L96.207,48.538L96.308,48.538L96.4,48.538L96.496,48.538L96.689,48.538L96.787,48.538L96.888,48.538L96.98,48.538L97.076,48.538L97.271,48.538L97.367,48.538L97.47,48.538L97.561,48.538L97.657,48.538L97.85,48.538L97.948,48.538L98.05,48.538L98.142,48.538L98.237,48.538L98.431,48.538L98.528,48.538L98.63,48.538L98.722,48.538L98.817,48.538L99.011,48.538L99.108,48.538L99.21,48.538L99.303,48.538L99.398,48.538L99.592,48.538L99.689,48.538L99.79,48.538L99.882,48.538L99.978,48.538L100.172,48.538L100.268,48.538L100.371,48.538L100.463,48.538L100.558,48.538L100.752,48.538L100.849,48.538L100.95,48.538L101.042,48.538L101.139,48.538L101.333,48.538L101.43,48.538L101.532,48.538L101.624,48.538L101.719,48.538L101.913,48.538L102.01,48.538L102.112,48.538L102.3,48.538L102.494,48.538L102.591,48.538L102.693,48.538L102.785,48.538L102.88,48.538L103.075,48.538L103.171,48.538L103.273,48.538L103.365,48.538L103.461,48.538L103.654,48.538L103.752,48.538L103.854,48.538L103.945,48.538L104.041,48.538L104.235,48.538L104.331,48.538L104.433,48.538L104.525,48.538L104.621,48.538L104.815,48.538L104.911,48.538L105.013,48.538L105.106,48.538L105.201,48.538L105.396,48.538L105.493,48.538L105.595,48.538L105.687,48.538L105.782,48.538L105.976,48.538L106.073,48.538L106.175,48.538L106.267,48.538L106.363,48.538L106.556,48.538L106.653,48.538L106.755,48.538L106.848,48.538L106.943,48.538L107.137,48.538L107.234,48.538L107.336,48.538L107.427,48.538L107.523,48.538L107.718,48.538L107.814,48.538L107.916,48.538L108.008,48.538L108.103,48.538L108.298,48.538L108.394,48.538L108.495,48.538L108.588,48.538L108.684,48.538L108.877,48.538L108.974,48.538L109.076,48.538L109.168,48.538L109.264,48.538L109.459,48.538L109.555,48.538L109.657,48.538L109.749,48.538L109.845,48.538L110.038,48.538L110.136,48.538L110.238,48.538L110.33,48.538L110.425,48.538L110.619,48.538L110.716,48.538L110.818,48.538L110.91,48.538L111.005,48.538L111.2,48.538L111.296,48.538L111.399,48.538L111.49,48.538L111.586,48.538L111.78,48.538L111.877,48.538L111.979,48.538L112.071,48.538L112.166,48.538L112.36,48.538L112.456,48.538L112.558,48.538L112.65,48.538L112.746,48.538L112.941,48.538L113.038,48.538L113.145,48.538L113.236,48.538L113.327,48.538L113.521,48.538L113.618,48.538L113.721,48.538L113.813,48.538L113.907,48.538L114.102,48.538L114.198,48.538L114.299,48.538L114.393,48.538L114.487,48.538L114.681,48.538L114.779,48.538L114.881,48.538L114.973,48.538L115.068,48.538L115.262,48.538L115.359,48.538L115.462,48.538L115.553,48.538L115.648,48.538L115.843,48.538L115.939,48.538L116.042,48.538L116.134,48.538L116.229,48.538L116.423,48.538L116.519,48.538L116.621,48.538L116.713,48.538L116.81,48.538L117.003,48.538L117.099,48.538L117.202,48.538L117.295,48.538L117.389,48.538L117.584,48.538L117.682,48.538L117.783,48.538L117.875,48.538L117.97,48.538L118.164,48.538L118.261,48.538L118.363,48.538L118.455,48.538L118.55,48.538L118.744,27L118.842,27L118.944,27L119.036,27L119.131,27L119.325,27L119.422,27L119.524,27L119.616,27L119.711,27L119.906,27L120.002,27L120.104,27L120.197,27L120.291,27L120.485,27L120.582,27L120.685,27L120.776,27L120.872,27L121.065,27L121.162,27L121.264,27L121.357,27L121.452,27L121.646,27L121.743,27L121.846,27L121.938,27L122.033,27L122.227,27L122.323,27L122.426,27L122.518,27L122.613,27L122.806,27L122.903,27L123.007,27L123.098,27L123.193,27L123.387,27L123.485,27L123.587,27L123.678,27L123.774,27L123.968,27L124.065,27L124.167,27L124.259,27L124.354,27L124.548,27L124.645,27L124.746,27L124.839,27L124.934,27L125.129,27L125.225,27L125.327,27L125.419,27L125.515,27L125.709,27L125.806,27L125.909,27L126,27L126.096,27L126.29,27L126.387,27L126.489,27L126.58,27L126.676,27L126.87,27L126.967,27L127.07,27L127.162,27L127.257,27L127.451,27L127.547,27L127.65,27L127.741,27L127.837,27L128.031,27L128.128,27L128.23,27L128.322,27L128.417,27L128.612,27L128.707,27L128.81,27L128.903,27L128.997,27L129.191,27L129.288,27L129.39,27L129.482,27L129.578,27L129.772,27L129.869,27L129.972,27L130.063,27L130.158,27L130.352,27L130.449,27L130.552,27L130.644,27L130.738,27L130.933,27L131.03,27L131.132,27L131.224,27L131.319,27L131.513,27L131.61,27L131.712,27L131.804,27L131.899,27L132.093,27L132.19,27L132.293,27L132.385,27L132.479,27L132.674,27L132.77,27L132.872,27L132.965,27L133.061,27L133.254,27L133.35,27L133.453,27L133.545,27L133.64,27L133.834,27L133.932,27L134.034,27L134.125,27L134.221,27L134.416,27L134.512,27L134.614,27L134.706,27L134.801,27L134.995,27L135.093,27L135.193,27L135.287,27L135.382,27L135.576,27L135.673,27L135.775,27L135.868,27L135.962,27L136.156,27L136.253,27L136.355,27L136.447,27L136.542,27L136.737,27L136.833,27L136.935,27L137.027,27L137.122,27L137.317,27L137.414,27L137.515,27L137.607,27L137.704,27L137.898,27L137.995,27L138.097,27L138.189,27L138.284,27L138.478,27L138.575,27L138.677,27L138.769,27L138.864,27L139.058,27L139.155,27L139.258,27L139.35,27L139.444,27L139.639,27L139.736,27L139.839,27L139.93,27L140.024,27L140.219,27L140.316,27L140.419,27L140.51,27L140.605,27L140.8,27L140.896,27L140.998,27L141.09,27L141.185,27L141.38,27L141.476,27L141.58,27L141.671,27L141.766,27L141.96,27L142.058,27L142.16,27L142.252,27L142.346,27L142.54,27L142.638,27L142.741,27L142.832,27L142.927,27L143.121,27L143.218,27L143.321,27L143.412,27L143.508,27L143.702,27L143.799,27L143.902,27L143.992,27L144.087,27L144.282,27L144.379,27L144.481,27L144.574,27L144.668,27L144.862,27L144.958,27L145.061,27L145.153,27L145.248,27L145.442,27L145.539,27L145.641,27L145.734,27L145.829,27L146.023,27L146.121,27L146.223,27L146.314,27L146.409,27L146.603,27L146.701,27L146.804,27L146.894,27L146.989,27L147.185,27L147.281,27L147.384,27L147.475,27L147.569,27L147.765,27L147.862,27L147.964,27L148.056,27L148.15,27L148.345,27L148.442,27L148.544,27L148.635,27L148.731,27L148.925,46.231L149.022,46.231L149.124,46.231L149.215,46.231L149.311,46.231L149.505,46.231L149.602,46.231L149.704,46.231L149.796,46.231L149.891,46.231L150.087,46.231L150.183,46.231L150.287,46.231L150.378,46.231L150.472,46.231L150.665,46.231L150.764,46.231L150.867,46.231L150.957,46.231L151.052,46.231L151.247,46.231L151.344,46.231L151.447,46.231L151.538,46.231L151.633,46.231L151.827,53.923L151.924,53.923L152.027,53.923L152.118,53.923L152.213,53.923L152.408,53.923L152.504,53.923L152.608,53.923L152.698,53.923L152.793,53.923L152.988,53.923L153.084,53.923L153.187,53.923L153.278,53.923L153.373,53.923L153.569,53.923L153.665,53.923L153.767,53.923L153.859,53.923L153.954,53.923L154.149,53.923L154.247,53.923L154.349,53.923L154.44,53.923L154.535,53.923L154.729,53.923L154.827,53.923L154.93,53.923L155.021,53.923L155.115,53.923L155.31,53.923L155.408,53.923L155.51,53.923L155.602,53.923L155.695,53.923L155.89,23.154L155.987,23.154L156.091,23.154L156.181,23.154L156.276,23.154L156.47,23.154L156.568,23.154L156.671,23.154L156.761,23.154L157.05,23.154L157.147,23.154L157.25,23.154L157.341,23.154L157.436,23.154L157.631,23.154L157.728,23.154L157.83,23.154L157.922,23.154L158.016,23.154L158.212,23.154L158.31,23.154L158.413,23.154L158.504,23.154L158.597,23.154L158.792,23.154L158.89,23.154L158.993,23.154L159.083,23.154L159.178,23.154L159.372,23.154L159.47,23.154L159.573,23.154L159.664,23.154L159.759,23.154L159.953,23.154L160.05,23.154L160.153,23.154L160.244,23.154L160.339,23.154L160.533,23.154L160.63,23.154L160.733,23.154L160.824,23.154L160.919,23.154L161.113,23.154L161.21,23.154L161.312,23.154L161.404,23.154L161.499,23.154L161.694,23.154L161.79,23.154L161.893,23.154L161.984,23.154L162.079,23.154L162.274,23.154L162.372,23.154L162.475,23.154L162.566,23.154L162.66,23.154L162.854,23.154L162.952,23.154L163.055,23.154L163.146,23.154L163.24,23.154L163.435,23.154L163.532,23.154L163.635,23.154L163.726,23.154L163.821,23.154L164.015,23.154L164.113,23.154L164.216,23.154L164.306,23.154L164.401,23.154L164.596,23.154L164.693,23.154L164.796,23.154L164.886,23.154L164.982,23.154L165.176,23.154L165.273,23.154L165.375,23.154L165.467,23.154L165.562,23.154L165.757,23.154L165.853,23.154L165.956,23.154L166.047,23.154L166.142,23.154L166.337,23.154L166.435,23.154L166.538,23.154L166.628,23.154L166.723,23.154L166.917,23.154L167.015,23.154L167.118,23.154L167.209,23.154L167.303,23.154L167.498,23.154L167.595,23.154L167.698,23.154L167.788,23.154L167.884,23.154L168.079,23.154L168.175,23.154L168.278,23.154L168.37,23.154L168.464,23.154L168.659,23.154L168.756,23.154L168.859,23.154L168.95,23.154L169.044,23.154L169.238,23.154L169.335,23.154L169.438,23.154L169.529,23.154L169.625,23.154L169.819,23.154L169.916,23.154L170.019,23.154L170.109,23.154L170.205,23.154L170.4,23.154L170.497,23.154L170.6,23.154L170.691,23.154L170.785,23.154L170.98,23.154L171.077,23.154L171.18,23.154L171.271,23.154L171.366,23.154L171.56,23.154L171.658,23.154L171.761,23.154L171.852,23.154L171.947,23.154L172.141,23.154L172.238,23.154L172.341,23.154L172.432,23.154L172.527,23.154L172.722,23.154L172.818,23.154L172.921,23.154L173.012,23.154L173.107,23.154L173.301,23.154L173.398,23.154L173.5,23.154L173.592,23.154L173.687,23.154L173.882,23.154L173.979,23.154L174.081,23.154L174.172,23.154L174.268,23.154L174.462,23.154L174.56,23.154L174.663,23.154L174.755,23.154L174.848,23.154L175.043,23.154L175.14,23.154L175.243,23.154L175.334,23.154L175.429,23.154L175.623,23.154L175.721,23.154L175.824,23.154L175.915,23.154L176.009,23.154L176.404,23.154L176.494,23.154L176.589,23.154L176.784,23.154L176.88,23.154L176.983,23.154L177.074,23.154L177.169,23.154L177.364,23.154L177.461,23.154L177.563,23.154L177.655,23.154L177.749,23.154L177.944,23.154L178.041,23.154L178.143,23.154L178.234,23.154L178.33,23.154L178.525,23.154L178.622,23.154L178.726,23.154L178.816,23.154L178.91,23.154L179.105,23.154L179.202,23.154L179.305,23.154L179.396,23.154L179.491,23.154L179.686,23.154L179.783,23.154L179.886,23.154L179.977,23.154L180.071,23.154L180.266,58.538L180.363,58.538L180.466,58.538L180.557,58.538L180.651,58.538L180.846,58.538L180.943,58.538L181.046,58.538L181.137,58.538L181.232,58.538L181.426,58.538L181.523,58.538L181.625,58.538L181.717,58.538L181.812,58.538L182.006,58.538L182.103,58.538L182.205,58.538L182.297,58.538L182.392,58.538L182.587,58.538L182.685,58.538L182.788,58.538L182.878,58.538L182.973,58.538L183.168,58.538L183.265,58.538L183.368,58.538L183.459,58.538L183.554,58.538L183.748,58.538L183.845,58.538L183.948,58.538L184.039,58.538L184.134,58.538L184.329,23.154L184.426,23.154L184.529,23.154L184.62,23.154L184.715,23.154L184.91,23.154L185.006,23.154L185.11,23.154L185.201,23.154L185.295,23.154L185.49,23.154L185.586,23.154L185.689,23.154L185.781,23.154L185.875,23.154L186.07,23.154L186.166,23.154L186.269,23.154L186.36,23.154L186.456,23.154L186.651,23.154L186.748,23.154L186.852,23.154L186.943,23.154L187.037,23.154L187.231,23.154L187.329,23.154L187.432,23.154L187.522,23.154L187.617,23.154L187.811,23.154L187.909,23.154L188.012,23.154L188.103,23.154L188.197,23.154L188.392,23.154L188.489,23.154L188.593,23.154L188.683,23.154L188.778,23.154L188.972,23.154L189.07,23.154L189.173,23.154L189.264,23.154L189.358,23.154L189.552,23.154L189.649,23.154L189.752,23.154L189.843,23.154L189.938,23.154L190.132,23.154L190.229,23.154L190.332,23.154L190.423,23.154L190.518,23.154L190.714,23.154L190.811,23.154L190.914,23.154L191.005,23.154L191.099,23.154L191.294,23.154L191.392,23.154L191.495,23.154L191.586,23.154L191.68,23.154L191.875,23.154L191.972,23.154L192.075,23.154L192.166,23.154L192.26,23.154L192.455,23.154L192.552,23.154L192.656,23.154L192.746,23.154L192.84,23.154L193.035,23.154L193.133,23.154L193.236,23.154L193.326,23.154L193.42,23.154L193.615,23.154L193.712,23.154L193.815,23.154L193.906,23.154L194.001,23.154L194.196,23.154L194.292,23.154L194.395,23.154L194.486,23.154L194.581,23.154L194.776,23.154L194.874,23.154L194.978,23.154L195.068,23.154L195.162,23.154L195.357,23.154L195.454,23.154L195.558,23.154L195.649,23.154L195.742,23.154L195.937,23.154L196.035,23.154L196.138,23.154L196.229,23.154L196.323,23.154L196.517,23.154L196.615,23.154L196.719,23.154L196.809,23.154L196.903,23.154L197.098,23.154L197.195,23.154L197.299,23.154L197.389,23.154L197.483,23.154L197.678,23.154L197.775,23.154L197.878,23.154L197.968,23.154L198.063,23.154L198.258,23.154L198.355,23.154L198.458,23.154L198.548,23.154L198.644,23.154L198.839,23.154L198.937,23.154L199.041,23.154L199.131,23.154L199.225,23.154L199.419,23.154L199.517,23.154L199.621,23.154L199.711,23.154L199.805,23.154L200,23.154" stroke="#4c78a8" stroke-width="2"/></g></g><path class="foreground" aria-hidden="true" d="" display="none"/></g><g transform="translate(0,0)"><path class="background" aria-hidden="true" d="M0,0h200v200h-200Z"/><g><g class="mark-line role-mark marks" role="graphics-object" aria-roledescription="line mark container"><path aria-label="Time: Jan 01, 2024; Price: 2499; identifier: altex-LG-F2WR508SBM" role="graphics-symbol" aria-roledescription="line mark" d="M0,7.769L0.061,7.769L0.153,7.769L0.346,7.769L0.443,7.769L0.545,7.769L0.637,7.769L0.733,7.769L0.927,7.769L1.023,7.769L1.125,7.769L1.218,7.769L1.313,7.769L1.507,7.769L1.604,7.769L1.705,7.769L1.799,7.769L1.894,7.769L2.088,27L2.184,27L2.286,27L2.379,27L2.474,27L2.668,27L2.764,27L2.866,27L2.959,27L3.054,27L3.249,27L3.345,27L3.446,27L3.539,27L3.635,27L3.829,27L3.926,27L4.028,27L4.12,27L4.215,27L4.409,27L4.506,27L4.609,27L4.701,27L4.796,27L4.99,27L5.087,27L5.188,27L5.281,27L5.376,27L5.57,27L5.667,27L5.769,27L5.861,27L5.956,27L6.15,27L6.247,27L6.349,27L6.442,27L6.537,27L6.73,38.538L6.827,38.538L6.928,38.538L7.021,38.538L7.117,38.538L7.311,38.538L7.407,38.538L7.509,38.538L7.601,38.538L7.698,38.538L7.892,38.538L7.989,38.538L8.091,38.538L8.183,38.538L8.278,38.538L8.472,38.538L8.569,38.538L8.671,38.538L8.764,38.538L8.858,38.538L9.052,38.538L9.149,38.538L9.251,38.538L9.344,38.538L9.439,38.538L9.633,38.538L9.729,38.538L9.831,38.538L9.924,38.538L10.019,38.538L10.213,38.538L10.31,38.538L10.412,38.538L10.505,38.538L10.599,38.538L10.793,38.538L10.89,38.538L10.991,38.538L11.084,38.538L11.18,38.538L11.373,38.538L11.47,38.538L11.571,38.538L11.664,38.538L11.76,38.538L11.955,38.538L12.052,38.538L12.154,38.538L12.246,38.538L12.341,38.538L12.535,38.538L12.632,38.538L12.734,38.538L12.826,38.538L12.921,38.538L13.115,38.538L13.212,38.538L13.314,38.538L13.406,38.538L13.501,38.538L13.696,38.538L13.792,38.538L13.895,38.538L13.987,38.538L14.082,38.538L14.275,38.538L14.373,38.538L14.473,38.538L14.566,38.538L14.662,38.538L14.856,38.538L14.953,38.538L15.052,38.538L15.146,38.538L15.242,38.538L15.436,38.538L15.533,38.538L15.633,38.538L15.726,38.538L15.823,38.538L16.016,38.538L16.113,38.538L16.214,38.538L16.307,38.538L16.403,38.538L16.597,38.538L16.693,38.538L16.794,38.538L16.888,38.538L16.984,38.538L17.177,38.538L17.274,38.538L17.375,38.538L17.467,38.538L17.564,38.538L17.757,27L17.854,27L17.955,27L18.048,27L18.144,27L18.338,27L18.435,27L18.535,27L18.628,27L18.725,27L18.918,27L19.015,27L19.115,27L19.208,27L19.305,27L19.499,27L19.596,27L19.695,27L19.789,27L19.885,27L20.079,27L20.176,27L20.277,27L20.369,27L20.466,27L20.659,27L20.756,27L20.857,27L20.95,27L21.046,27L21.24,27L21.337,27L21.437,27L21.531,27L21.627,27L21.82,27L21.917,27L22.017,27L22.111,27L22.207,27L22.401,27L22.497,27L22.597,27L22.691,27L22.788,27L22.981,27L23.078,27L23.178,27L23.271,27L23.368,27L23.562,27L23.658,27L23.758,27L23.852,27L23.948,27L24.142,27L24.238,27L24.34,27L24.432,27L24.529,27L24.722,27L24.819,27L24.919,27L25.014,27L25.109,27L25.302,27L25.399,27L25.5,27L25.593,27L25.689,27L25.98,27L26.08,27L26.173,27L26.27,27L26.463,27L26.56,27L26.661,27L26.754,27L26.85,27L27.044,27L27.14,27L27.24,27L27.334,27L27.43,27L27.624,27L27.721,27L27.821,27L27.914,27L28.011,27L28.204,27L28.301,27L28.402,27L28.496,27L28.591,27L28.785,27L28.882,27L28.982,27L29.075,27L29.172,27L29.365,27L29.462,27L29.563,27L29.656,27L29.752,27L29.946,27L30.042,27L30.143,27L30.236,27L30.333,27L30.526,27L30.623,27L30.723,27L30.816,27L30.913,27L31.106,27L31.203,27L31.303,27L31.396,27L31.493,27L31.687,27L31.784,27L31.883,27L31.977,27L32.073,27L32.267,27L32.364,27L32.464,27L32.557,27L32.654,27L32.847,27L32.944,27L33.045,27L33.138,27L33.234,27L33.428,27L33.524,27L33.625,27L33.718,27L33.815,27L34.008,27L34.105,27L34.205,27L34.298,27L34.395,27L34.588,27L34.686,27L34.786,27L34.879,27L34.975,27L35.169,27L35.266,27L35.366,27L35.459,27L35.556,27L35.749,27L35.846,27L35.946,27L36.039,27L36.136,27L36.339,27L36.471,27L36.528,27L36.62,27L36.717,27L36.91,27L37.007,27L37.108,27L37.2,27L37.297,27L37.49,27L37.588,27L37.688,27L37.781,27L37.877,27L38.071,27L38.168,27L38.268,38.538L38.361,38.538L38.458,38.538L38.651,38.538L38.749,38.538L38.848,38.538L38.941,38.538L39.038,38.538L39.232,38.538L39.328,38.538L39.428,38.538L39.522,38.538L39.618,38.538L39.812,38.538L39.909,38.538L40.008,38.538L40.102,38.538L40.199,38.538L40.393,38.538L40.489,38.538L40.59,38.538L40.683,38.538L40.779,38.538L40.973,38.538L41.069,38.538L41.17,38.538L41.264,38.538L41.36,38.538L41.553,38.538L41.65,38.538L41.751,38.538L41.843,38.538L41.94,38.538L42.133,38.538L42.23,38.538L42.331,38.538L42.424,38.538L42.52,38.538L42.714,38.538L42.811,38.538L42.911,38.538L43.004,38.538L43.101,38.538L43.294,38.538L43.391,38.538L43.491,38.538L43.584,38.538L43.681,38.538L43.875,38.538L43.972,38.538L44.071,38.538L44.165,38.538L44.262,38.538L44.455,38.538L44.552,38.538L44.653,38.538L44.746,38.538L44.842,38.538L45.036,38.538L45.132,38.538L45.233,38.538L45.327,38.538L45.422,38.538L45.616,38.538L45.713,38.538L45.813,38.538L45.907,38.538L46.003,38.538L46.196,38.538L46.293,38.538L46.394,38.538L46.488,38.538L46.583,38.538L46.777,38.538L46.873,38.538L46.974,38.538L47.067,38.538L47.164,38.538L47.357,38.538L47.454,38.538L47.554,38.538L47.647,38.538L47.744,38.538L47.937,38.538L48.034,38.538L48.135,38.538L48.227,38.538L48.324,38.538L48.518,38.538L48.614,38.538L48.715,38.538L48.808,38.538L48.904,38.538L49.098,38.538L49.195,38.538L49.296,38.538L49.389,38.538L49.485,38.538L49.679,38.538L49.776,38.538L49.876,38.538L49.97,38.538L50.065,38.538L50.259,38.538L50.356,38.538L50.457,38.538L50.55,38.538L50.646,38.538L50.839,38.538L50.936,38.538L51.037,38.538L51.13,38.538L51.226,38.538L51.419,38.538L51.516,38.538L51.616,38.538L51.71,38.538L51.807,38.538L52,38.538L52.097,38.538L52.197,38.538L52.291,38.538L52.387,38.538L52.58,38.538L52.678,38.538L52.779,38.538L52.872,38.538L52.967,38.538L53.161,38.538L53.258,38.538L53.359,38.538L53.452,38.538L53.547,38.538L53.741,38.538L53.838,38.538L53.939,38.538L54.032,38.538L54.128,38.538L54.322,38.538L54.418,38.538L54.519,38.538L54.612,38.538L54.708,38.538L54.903,38.538L55.099,38.538L55.193,38.538L55.289,38.538L55.482,38.538L55.579,38.538L55.679,38.538L55.772,38.538L55.869,38.538L56.062,38.538L56.159,38.538L56.259,38.538L56.353,38.538L56.449,38.538L56.643,38.538L56.74,38.538L56.841,38.538L56.934,38.538L57.03,38.538L57.223,38.538L57.32,38.538L57.421,38.538L57.514,38.538L57.61,38.538L57.804,38.538L57.901,38.538L58.002,38.538L58.095,38.538L58.191,38.538L58.385,38.538L58.482,38.538L58.582,38.538L58.771,38.538L58.965,38.538L59.062,38.538L59.162,38.538L59.255,38.538L59.351,38.538L59.545,38.538L59.641,38.538L59.74,38.538L59.835,38.538L59.932,38.538L60.134,38.538L60.283,38.538L60.374,38.538L60.561,38.538L60.707,38.538L60.802,38.538L60.902,38.538L60.996,38.538L61.093,38.538L61.286,38.538L61.383,38.538L61.484,38.538L61.576,38.538L61.673,38.538L61.866,38.538L61.963,38.538L62.065,38.538L62.158,38.538L62.254,38.538L62.544,38.538L62.645,38.538L62.737,38.538L62.834,38.538L63.027,38.538L63.124,38.538L63.225,38.538L63.318,38.538L63.414,38.538L63.608,38.538L63.704,38.538L63.805,38.538L63.898,38.538L63.994,38.538L64.188,38.538L64.285,38.538L64.385,38.538L64.478,38.538L64.575,38.538L64.768,38.538L64.866,38.538L64.967,38.538L65.059,38.538L65.155,38.538L65.349,38.538L65.445,38.538L65.547,38.538L65.64,38.538L65.736,38.538L65.929,38.538L66.027,38.538L66.13,38.538L66.22,38.538L66.316,38.538L66.509,38.538L66.607,38.538L66.705,38.538L66.8,38.538L66.897,38.538L67.09,38.538L67.187,38.538L67.288,38.538L67.381,38.538L67.477,38.538L67.67,38.538L67.767,38.538L67.867,38.538L67.96,38.538L68.057,38.538L68.251,38.538L68.347,38.538L68.448,38.538L68.541,38.538L68.637,38.538L68.831,38.538L68.929,38.538L69.029,38.538L69.122,38.538L69.218,38.538L69.411,38.538L69.509,38.538L69.61,38.538L69.702,38.538L69.799,38.538L69.992,38.538L70.09,38.538L70.19,38.538L70.282,38.538L70.379,38.538L70.573,38.538L70.669,38.538L70.771,38.538L70.863,38.538L70.96,38.538L71.153,38.538L71.249,38.538L71.351,38.538L71.443,38.538L71.539,38.538L71.733,38.538L71.83,38.538L71.93,38.538L72.023,38.538L72.12,38.538L72.313,38.538L72.41,38.538L72.511,38.538L72.604,38.538L72.7,38.538L72.894,38.538L72.991,38.538L73.092,38.538L73.185,38.538L73.28,38.538L73.474,38.538L73.571,38.538L73.672,30.846L73.765,30.846L73.861,30.846L74.054,30.846L74.152,30.846L74.254,30.846L74.346,30.846L74.441,30.846L74.635,30.846L74.733,30.846L74.833,30.846L74.927,30.846L75.022,30.846L75.215,30.846L75.312,30.846L75.414,30.846L75.506,30.846L75.602,30.846L75.796,30.846L75.892,30.846L75.993,30.846L76.086,30.846L76.182,30.846L76.376,30.846L76.473,30.846L76.574,30.846L76.666,30.846L76.763,30.846L76.957,30.846L77.054,30.846L77.155,30.846L77.248,30.846L77.344,30.846L77.537,30.846L77.634,30.846L77.736,30.846L77.828,30.846L77.924,30.846L78.117,30.846L78.214,30.846L78.316,30.846L78.408,30.846L78.504,30.846L78.697,30.846L78.795,30.846L78.897,30.846L78.988,30.846L79.084,30.846L79.278,30.846L79.375,30.846L79.477,30.846L79.569,30.846L79.665,30.846L79.858,30.846L79.955,30.846L80.056,30.846L80.149,30.846L80.245,30.846L80.439,30.846L80.535,30.846L80.637,30.846L80.729,30.846L80.826,30.846L81.02,30.846L81.116,30.846L81.218,30.846L81.31,30.846L81.406,30.846L81.599,30.846L81.697,30.846L81.799,30.846L81.89,30.846L81.987,30.846L82.18,30.846L82.277,30.846L82.379,38.538L82.471,38.538L82.567,38.538L82.76,38.538L82.857,38.538L82.959,38.538L83.052,38.538L83.147,38.538L83.341,38.538L83.438,38.538L83.539,38.538L83.631,38.538L83.728,38.538L83.921,38.538L84.018,38.538L84.119,38.538L84.212,38.538L84.308,38.538L84.502,38.538L84.598,38.538L84.699,38.538L84.792,38.538L84.889,38.538L85.082,38.538L85.179,38.538L85.281,38.538L85.373,38.538L85.468,38.538L85.664,38.538L85.76,38.538L85.861,38.538L85.953,38.538L86.049,38.538L86.243,38.538L86.34,38.538L86.442,38.538L86.534,38.538L86.629,38.538L86.824,38.538L86.92,38.538L87.022,38.538L87.114,38.538L87.21,38.538L87.404,30.846L87.5,30.846L87.602,30.846L87.694,30.846L87.79,30.846L87.984,30.846L88.08,30.846L88.182,30.846L88.274,30.846L88.37,30.846L88.564,30.846L88.661,30.846L88.762,30.846L88.855,30.846L88.951,30.846L89.145,30.846L89.242,30.846L89.344,30.846L89.436,30.846L89.532,30.846L89.725,30.846L89.822,30.846L89.924,30.846L90.017,30.846L90.112,30.846L90.306,30.846L90.403,30.846L90.505,30.846L90.597,30.846L90.692,30.846L90.886,30.846L90.983,30.846L91.085,30.846L91.177,30.846L91.272,30.846L91.466,30.846L91.563,30.846L91.666,30.846L91.758,30.846L91.853,30.846L92.046,30.846L92.143,30.846L92.245,30.846L92.338,30.846L92.433,30.846L92.627,30.846L92.723,30.846L92.825,30.846L92.917,30.846L93.013,30.846L93.208,30.846L93.305,30.846L93.407,30.846L93.499,30.846L93.594,30.846L93.788,30.846L93.885,30.846L93.987,30.846L94.079,30.846L94.175,30.846L94.368,30.846L94.465,34.692L94.568,34.692L94.659,34.692L94.755,34.692L94.949,34.692L95.046,34.692L95.148,34.692L95.241,34.692L95.335,34.692L95.529,34.692L95.626,34.692L95.728,40.077L95.82,40.077L95.916,40.077L96.11,40.077L96.207,40.077L96.308,40.077L96.4,40.077L96.496,40.077L96.689,40.077L96.787,40.077L96.888,40.077L96.98,40.077L97.076,40.077L97.271,40.077L97.367,40.077L97.47,40.077L97.561,40.077L97.657,40.077L97.85,40.077L97.948,40.077L98.05,40.077L98.142,40.077L98.237,40.077L98.431,40.077L98.528,40.077L98.63,40.077L98.722,40.077L98.817,40.077L99.011,40.077L99.108,40.077L99.21,40.077L99.303,40.077L99.398,40.077L99.592,40.077L99.689,40.077L99.79,40.077L99.882,40.077L99.978,40.077L100.172,40.077L100.269,40.077L100.371,40.077L100.463,40.077L100.558,40.077L100.752,40.077L100.849,40.077L100.95,40.077L101.042,40.077L101.139,40.077L101.333,40.077L101.43,40.077L101.532,40.077L101.624,40.077L101.719,40.077L101.913,40.077L102.01,40.077L102.112,40.077L102.3,40.077L102.494,40.077L102.591,40.077L102.693,40.077L102.785,40.077L102.88,40.077L103.075,40.077L103.171,40.077L103.273,40.077L103.365,40.077L103.461,40.077L103.654,40.077L103.752,40.077L103.854,40.077L103.945,40.077L104.041,40.077L104.235,40.077L104.331,40.077L104.433,40.077L104.525,40.077L104.621,40.077L104.815,40.077L104.911,40.077L105.013,40.077L105.106,40.077L105.201,40.077L105.396,40.077L105.493,40.077L105.595,40.077L105.687,40.077L105.782,40.077L105.976,40.077L106.073,40.077L106.175,40.077L106.267,40.077L106.363,40.077L106.556,40.077L106.653,40.077L106.755,40.077L106.848,40.077L106.943,40.077L107.137,40.077L107.234,40.077L107.336,40.077L107.427,40.077L107.523,40.077L107.718,40.077L107.814,40.077L107.916,40.077L108.008,40.077L108.103,40.077L108.298,40.077L108.394,40.077L108.495,40.077L108.588,40.077L108.684,40.077L108.877,40.077L108.974,40.077L109.076,40.077L109.168,40.077L109.264,40.077L109.459,40.077L109.555,40.077L109.657,40.077L109.749,40.077L109.845,40.077L110.038,40.077L110.136,40.077L110.238,40.077L110.33,40.077L110.425,40.077L110.619,40.077L110.716,40.077L110.819,40.077L110.91,40.077L111.005,40.077L111.2,40.077L111.296,40.077L111.399,40.077L111.49,40.077L111.586,40.077L111.78,40.077L111.877,40.077L111.979,40.077L112.071,40.077L112.166,40.077L112.36,40.077L112.456,40.077L112.558,40.077L112.65,40.077L112.746,40.077L112.941,40.077L113.038,40.077L113.145,40.077L113.236,40.077L113.327,40.077L113.521,40.077L113.618,40.077L113.721,40.077L113.813,40.077L113.907,40.077L114.102,40.077L114.198,40.077L114.299,40.077L114.393,40.077L114.488,40.077L114.681,40.077L114.779,40.077L114.881,40.077L114.973,40.077L115.068,40.077L115.263,40.077L115.359,40.077L115.462,40.077L115.553,40.077L115.648,40.077L115.843,40.077L115.939,40.077L116.042,40.077L116.134,40.077L116.229,40.077L116.423,40.077L116.519,40.077L116.621,40.077L116.713,40.077L116.81,40.077L117.003,40.077L117.099,40.077L117.202,40.077L117.295,40.077L117.389,40.077L117.584,40.077L117.682,40.077L117.783,40.077L117.875,40.077L117.97,40.077L118.164,40.077L118.261,40.077L118.363,40.077L118.455,40.077L118.55,40.077L118.744,40.077L118.842,40.077L118.944,40.077L119.036,40.077L119.131,40.077L119.325,40.077L119.422,40.077L119.524,40.077L119.616,40.077L119.711,40.077L119.906,40.077L120.002,40.077L120.104,40.077L120.197,40.077L120.291,40.077L120.485,40.077L120.582,40.077L120.685,40.077L120.776,40.077L120.872,40.077L121.065,40.077L121.162,40.077L121.264,40.077L121.357,40.077L121.452,40.077L121.646,40.077L121.743,40.077L121.846,40.077L121.938,40.077L122.033,40.077L122.227,40.077L122.323,40.077L122.426,40.077L122.518,40.077L122.613,40.077L122.806,40.077L122.903,40.077L123.007,40.077L123.098,40.077L123.193,40.077L123.387,40.077L123.485,40.077L123.587,40.077L123.679,40.077L123.774,40.077L123.968,40.077L124.065,40.077L124.167,40.077L124.259,40.077L124.354,40.077L124.548,40.077L124.645,40.077L124.746,40.077L124.839,40.077L124.934,40.077L125.129,40.077L125.225,40.077L125.327,40.077L125.419,40.077L125.515,40.077L125.709,40.077L125.806,40.077L125.909,40.077L126,40.077L126.096,40.077L126.29,40.077L126.387,40.077L126.489,40.077L126.58,40.077L126.676,40.077L126.87,40.077L126.967,40.077L127.07,40.077L127.162,40.077L127.257,40.077L127.451,40.077L127.547,40.077L127.65,40.077L127.741,40.077L127.837,40.077L128.031,40.077L128.128,40.077L128.23,40.077L128.322,40.077L128.417,40.077L128.612,40.077L128.708,40.077L128.81,40.077L128.903,40.077L128.997,40.077L129.191,40.077L129.288,40.077L129.39,40.077L129.482,40.077L129.578,40.077L129.772,40.077L129.869,40.077L129.972,40.077L130.063,40.077L130.158,40.077L130.352,40.077L130.449,40.077L130.552,40.077L130.644,40.077L130.738,40.077L130.933,40.077L131.03,40.077L131.132,40.077L131.225,40.077L131.319,40.077L131.513,40.077L131.61,40.077L131.712,40.077L131.804,40.077L131.899,40.077L132.093,40.077L132.19,40.077L132.293,40.077L132.385,40.077L132.479,40.077L132.674,40.077L132.77,40.077L132.872,40.077L132.965,40.077L133.061,40.077L133.254,40.077L133.35,40.077L133.453,40.077L133.545,40.077L133.64,40.077L133.834,40.077L133.932,40.077L134.034,40.077L134.125,40.077L134.221,40.077L134.416,40.077L134.512,40.077L134.614,40.077L134.706,40.077L134.801,40.077L134.996,40.077L135.093,40.077L135.193,40.077L135.287,40.077L135.382,40.077L135.576,40.077L135.673,40.077L135.775,40.077L135.868,40.077L135.962,40.077L136.156,40.077L136.253,40.077L136.355,40.077L136.447,40.077L136.542,40.077L136.737,40.077L136.833,40.077L136.935,40.077L137.027,40.077L137.123,40.077L137.317,40.077L137.414,40.077L137.515,40.077L137.607,40.077L137.704,40.077L137.898,40.077L137.995,40.077L138.097,40.077L138.189,40.077L138.284,40.077L138.478,40.077L138.575,40.077L138.677,40.077L138.769,40.077L138.864,40.077L139.058,40.077L139.155,40.077L139.258,40.077L139.35,40.077L139.444,40.077L139.639,40.077L139.736,40.077L139.839,40.077L139.93,40.077L140.024,40.077L140.219,40.077L140.316,40.077L140.419,40.077L140.51,40.077L140.605,40.077L140.8,40.077L140.896,40.077L140.998,40.077L141.09,40.077L141.185,40.077L141.38,40.077L141.476,40.077L141.58,40.077L141.671,40.077L141.766,40.077L141.96,40.077L142.058,40.077L142.161,40.077L142.252,40.077L142.346,40.077L142.54,40.077L142.638,40.077L142.741,40.077L142.832,40.077L142.927,40.077L143.121,40.077L143.218,40.077L143.321,40.077L143.412,40.077L143.508,40.077L143.702,40.077L143.799,40.077L143.902,40.077L143.992,40.077L144.087,40.077L144.282,40.077L144.379,40.077L144.481,40.077L144.574,40.077L144.668,40.077L144.862,40.077L144.958,40.077L145.061,40.077L145.153,40.077L145.248,40.077L145.442,40.077L145.539,40.077L145.641,40.077L145.734,40.077L145.829,40.077L146.023,40.077L146.121,40.077L146.223,40.077L146.314,40.077L146.409,40.077L146.603,40.077L146.701,40.077L146.804,40.077L146.894,40.077L146.989,40.077L147.185,40.077L147.281,40.077L147.384,40.077L147.475,40.077L147.569,40.077L147.765,40.077L147.862,40.077L147.964,40.077L148.056,40.077L148.15,40.077L148.345,40.077L148.442,40.077L148.544,40.077L148.635,40.077L148.731,40.077L148.925,40.077L149.022,40.077L149.124,40.077L149.215,40.077L149.311,40.077L149.505,40.077L149.602,40.077L149.705,40.077L149.796,40.077L149.891,40.077L150.087,40.077L150.183,40.077L150.287,40.077L150.378,40.077L150.472,40.077L150.665,40.077L150.764,40.077L150.867,40.077L150.957,40.077L151.052,40.077L151.247,40.077L151.344,40.077L151.447,40.077L151.538,40.077L151.633,40.077L151.827,40.077L151.924,40.077L152.027,40.077L152.118,40.077L152.213,40.077L152.408,40.077L152.504,40.077L152.608,40.077L152.698,40.077L152.793,40.077L152.988,40.077L153.084,40.077L153.187,40.077L153.278,40.077L153.373,40.077L153.569,40.077L153.665,40.077L153.767,40.077L153.859,40.077L153.954,40.077L154.149,40.077L154.247,40.077L154.349,40.077L154.44,40.077L154.535,40.077L154.729,40.077L154.827,40.077L154.93,40.077L155.021,40.077L155.115,40.077L155.31,40.077L155.408,40.077L155.51,40.077L155.602,40.077L155.696,40.077L155.89,40.077L155.987,40.077L156.091,40.077L156.181,40.077L156.276,40.077L156.47,40.077L156.568,40.077L156.671,40.077L156.761,40.077L157.05,40.077L157.147,40.077L157.25,40.077L157.341,40.077L157.436,40.077L157.631,40.077L157.728,40.077L157.83,40.077L157.922,40.077L158.016,40.077L158.212,40.077L158.31,40.077L158.413,40.077L158.504,40.077L158.597,40.077L158.792,40.077L158.89,40.077L158.993,40.077L159.084,40.077L159.178,40.077L159.372,40.077L159.47,40.077L159.573,40.077L159.664,40.077L159.759,40.077L159.953,40.077L160.05,50.077L160.153,50.077L160.244,50.077L160.339,50.077L160.533,50.077L160.63,50.077L160.733,50.077L160.824,50.077L160.919,50.077L161.113,50.077L161.21,50.077L161.312,50.077L161.404,50.077L161.499,50.077L161.694,50.077L161.79,50.077L161.893,50.077L161.984,50.077L162.079,50.077L162.274,50.077L162.372,50.077L162.475,50.077L162.566,50.077L162.66,50.077L162.855,50.077L162.952,30.846L163.055,30.846L163.146,30.846L163.24,30.846L163.435,30.846L163.532,30.846L163.635,50.077L163.726,50.077L163.821,50.077L164.015,50.077L164.113,50.077L164.216,50.077L164.306,50.077L164.401,50.077L164.596,50.077L164.693,50.077L164.796,50.077L164.886,50.077L164.982,50.077L165.176,50.077L165.273,50.077L165.375,50.077L165.467,50.077L165.562,50.077L165.757,50.077L165.853,50.077L165.956,50.077L166.047,50.077L166.142,50.077L166.337,50.077L166.435,50.077L166.538,50.077L166.628,50.077L166.723,50.077L166.917,50.077L167.015,50.077L167.118,50.077L167.209,50.077L167.303,50.077L167.498,50.077L167.595,50.077L167.698,50.077L167.789,50.077L167.884,50.077L168.079,50.077L168.175,50.077L168.278,50.077L168.37,50.077L168.464,50.077L168.659,50.077L168.756,50.077L168.859,50.077L168.95,50.077L169.044,50.077L169.238,50.077L169.335,50.077L169.438,50.077L169.529,50.077L169.625,50.077L169.819,50.077L169.916,50.077L170.019,50.077L170.109,50.077L170.205,50.077L170.4,50.077L170.497,50.077L170.6,50.077L170.691,50.077L170.785,50.077L170.98,50.077L171.077,50.077L171.181,50.077L171.271,50.077L171.366,50.077L171.56,50.077L171.658,50.077L171.761,50.077L171.852,50.077L171.947,50.077L172.141,50.077L172.238,50.077L172.341,50.077L172.432,50.077L172.527,50.077L172.722,50.077L172.818,50.077L172.921,50.077L173.012,50.077L173.107,50.077L173.301,50.077L173.398,50.077L173.5,50.077L173.592,50.077L173.687,50.077L173.882,50.077L173.979,50.077L174.081,50.077L174.172,50.077L174.268,50.077L174.463,50.077L174.56,50.077L174.663,50.077L174.755,50.077L174.848,50.077L175.043,50.077L175.14,50.077L175.243,50.077L175.334,50.077L175.429,50.077L175.623,50.077L175.721,50.077L175.824,50.077L175.915,50.077L176.009,50.077L176.404,50.077L176.494,50.077L176.589,50.077L176.784,50.077L176.88,50.077L176.983,50.077L177.074,50.077L177.17,50.077L177.364,50.077L177.461,50.077L177.563,50.077L177.655,50.077L177.749,50.077L177.944,50.077L178.041,50.077L178.143,50.077L178.234,50.077L178.33,50.077L178.525,50.077L178.622,50.077L178.726,50.077L178.816,50.077L178.91,50.077L179.105,50.077L179.202,50.077L179.305,50.077L179.396,50.077L179.491,50.077L179.686,50.077L179.783,50.077L179.886,50.077L179.977,50.077L180.071,50.077L180.266,50.077L180.363,50.077L180.466,50.077L180.557,50.077L180.651,50.077L180.846,50.077L180.943,50.077L181.046,50.077L181.137,50.077L181.232,50.077L181.426,50.077L181.523,50.077L181.625,50.077L181.717,50.077L181.812,50.077L182.006,50.077L182.103,50.077L182.205,50.077L182.297,50.077L182.392,50.077L182.587,50.077L182.685,50.077L182.788,50.077L182.878,50.077L182.973,50.077L183.168,50.077L183.265,50.077L183.368,50.077L183.459,50.077L183.554,50.077L183.748,50.077L183.845,50.077L183.948,58.538L184.039,58.538L184.134,58.538L184.329,58.538L184.426,58.538L184.53,58.538L184.62,58.538L184.715,58.538L184.91,58.538L185.006,58.538L185.11,58.538L185.201,58.538L185.295,58.538L185.49,58.538L185.586,58.538L185.689,58.538L185.781,58.538L185.875,58.538L186.07,58.538L186.166,58.538L186.269,58.538L186.36,58.538L186.456,58.538L186.651,58.538L186.748,58.538L186.852,58.538L186.943,58.538L187.037,58.538L187.231,58.538L187.329,58.538L187.432,58.538L187.522,58.538L187.617,58.538L187.811,58.538L187.909,58.538L188.012,58.538L188.103,58.538L188.197,58.538L188.392,46.231L188.489,46.231L188.593,58.538L188.683,58.538L188.778,58.538L188.972,58.538L189.07,58.538L189.173,46.231L189.264,46.231L189.358,46.231L189.552,46.231L189.649,46.231L189.752,46.231L189.843,46.231L189.938,46.231L190.132,46.231L190.229,46.231L190.332,46.231L190.424,46.231L190.518,46.231L190.714,46.231L190.811,46.231L190.914,46.231L191.005,46.231L191.099,46.231L191.294,46.231L191.392,46.231L191.495,46.231L191.586,46.231L191.68,46.231L191.875,46.231L191.972,46.231L192.075,58.538L192.166,58.538L192.26,58.538L192.455,58.538L192.553,58.538L192.656,58.538L192.746,58.538L192.84,58.538L193.035,58.538L193.133,58.538L193.236,58.538L193.326,58.538L193.42,58.538L193.615,58.538L193.712,58.538L193.815,58.538L193.906,58.538L194.001,58.538L194.196,58.538L194.292,58.538L194.395,58.538L194.486,58.538L194.581,58.538L194.776,58.538L194.874,58.538L194.978,58.538L195.068,58.538L195.162,58.538L195.357,30.846L195.454,30.846L195.558,58.538L195.649,58.538L195.742,58.538L195.937,58.538L196.035,58.538L196.138,58.538L196.229,58.538L196.323,58.538L196.518,30.846L196.615,30.846L196.719,46.231L196.809,46.231L196.903,46.231L197.098,30.846L197.195,30.846L197.299,46.231L197.389,46.231L197.484,46.231L197.678,46.231L197.775,46.231L197.878,46.231L197.968,46.231L198.063,46.231L198.258,46.231L198.355,46.231L198.458,46.231L198.548,46.231L198.644,46.231L198.839,46.231L198.937,46.231L199.041,46.231L199.131,46.231L199.225,46.231L199.42,46.231L199.517,46.231L199.621,46.231L199.711,46.231L199.805,46.231L200,46.231" stroke="#f58518" stroke-width="2"/></g></g><path class="foreground" aria-hidden="true" d="" display="none"/></g></g><g class="mark-group role-legend" role="graphics-symbol" aria-roledescription="legend" aria-label="Symbol legend titled 'identifier' for stroke color with 2 values: altex-LG-F2WR508SBW, altex-LG-F2WR508SBM"><g transform="translate(220,0)"><path class="background" aria-hidden="true" d="M0,0h168v40h-168Z" pointer-events="none"/><g><g class="mark-group role-legend-entry"><g transform="translate(0,16)"><path class="background" aria-hidden="true" d="M0,0h0v0h0Z" pointer-events="none"/><g><g class="mark-group role-scope" role="graphics-object" aria-roledescription="group mark container"><g transform="translate(0,0)"><path class="background" aria-hidden="true" d="M0,0h168v11h-168Z" pointer-events="none" opacity="1"/><g><g class="mark-symbol role-legend-symbol" pointer-events="none"><path transform="translate(6,6)" d="M-5,0L5,0" stroke="#4c78a8" stroke-width="1.5" opacity="1"/></g><g class="mark-text role-legend-label" pointer-events="none"><text text-anchor="start" transform="translate(16,9)" font-family="Liberation Mono" font-size="10px" fill="#000" opacity="1">altex-LG-F2WR508SBW</text></g></g><path class="foreground" aria-hidden="true" d="" pointer-events="none" display="none"/></g><g transform="translate(0,13)"><path class="background" aria-hidden="true" d="M0,0h168v11h-168Z" pointer-events="none" opacity="1"/><g><g class="mark-symbol role-legend-symbol" pointer-events="none"><path transform="translate(6,6)" d="M-5,0L5,0" stroke="#f58518" stroke-width="1.5" opacity="1"/></g><g class="mark-text role-legend-label" pointer-events="none"><text text-anchor="start" transform="translate(16,9)" font-family="Liberation Mono" font-size="10px" fill="#000" opacity="1">altex-LG-F2WR508SBM</text></g></g><path class="foreground" aria-hidden="true" d="" pointer-events="none" display="none"/></g></g></g><path class="foreground" aria-hidden="true" d="" pointer-events="none" display="none"/></g></g><g class="mark-text role-legend-title" pointer-events="none"><text text-anchor="start" transform="translate(0,9)" font-family="Liberation Mono" font-size="11px" font-weight="bold" fill="#000" opacity="1">identifier</text></g></g><path class="foreground" aria-hidden="true" d="" pointer-events="none" display="none"/></g></g></g><path class="foreground" aria-hidden="true" d="" display="none"/></g></g></g></svg>