<svg xmlns="http://www.w3.org/2000/svg" xmlns:xlink="http://www.w3.org/1999/xlink" version="1.1" class="marks" width="460" height="242" viewBox="0 0 460 242"><rect width="460" height="242" fill="white"/><g fill="none" stroke-miterlimit="10" transform="translate(67,5)"><g class="mark-group role-frame root" role="graphics-object" aria-roledescription="group mark container"><g transform="translate(0,0)"><path class="background" aria-hidden="true" d="M0.5,0.5h200v200h-200Z" stroke="#ddd"/><g><g class="mark-group role-axis" aria-hidden="true"><g transform="translate(0.5,200.5)"><path class="background" aria-hidden="true" d="M0,0h0v0h0Z" pointer-events="none"/><g><g class="mark-rule role-axis-grid" pointer-events="none"><line transform="translate(35,-200)" x2="0" y2="200" stroke="#ddd" stroke-width="1" opacity="1"/><line transform="translate(79,-200)" x2="0" y2="200" stroke="#ddd" stroke-width="1" opacity="1"/><line transform="translate(124,-200)" x2="0" y2="200" stroke="#ddd" stroke-width="1" opacity="1"/><line transform="translate(169,-200)" x2="0" y2="200" stroke="#ddd" stroke-width="1" opacity="1"/></g></g><path class="foreground" aria-hidden="true" d="" pointer-events="none" display="none"/></g></g><g class="mark-group role-axis" aria-hidden="true"><g transform="translate(0.5,0.5)"><path class="background" aria-hidden="true" d="M0,0h0v0h0Z" pointer-events="none"/><g><g class="mark-rule role-axis-grid" pointer-events="none"><line transform="translate(0,200)" x2="200" y2="0" stroke="#ddd" stroke-width="1" opacity="1"/><line transform="translate(0,162)" x2="200" y2="0" stroke="#ddd" stroke-width="1" opacity="1"/><line transform="translate(0,123)" x2="200" y2="0" stroke="#ddd" stroke-width="1" opacity="1"/><line transform="translate(0,85)" x2="200" y2="0" stroke="#ddd" stroke-width="1" opacity="1"/><line transform="translate(0,46)" x2="200" y2="0" stroke="#ddd" stroke-width="1" opacity="1"/><line transform="translate(0,8)" x2="200" y2="0" stroke="#ddd" stroke-width="1" opacity="1"/></g></g><path class="foreground" aria-hidden="true" d="" pointer-events="none" display="none"/></g></g><g class="mark-group role-axis" role="graphics-symbol" aria-roledescription="axis" aria-label="X-axis titled 'Time' for a time scale with values from Monday, 01 January 2024, 2:19:43 PM to Thursday, 01 February 2024, 8:38:07 PM"><g transform="translate(0.5,200.5)"><path class="background" aria-hidden="true" d="M0,0h0v0h0Z" pointer-events="none"/><g><g class="mark-rule role-axis-tick" pointer-events="none"><line transform="translate(35,0)" x2="0" y2="5" stroke="#888" stroke-width="1" opacity="1"/><line transform="translate(79,0)" x2="0" y2="5" stroke="#888" stroke-width="1" opacity="1"/><line transform="translate(124,0)" x2="0" y2="5" stroke="#888" stroke-width="1" opacity="1"/><line transform="translate(169,0)" x2="0" y2="5" stroke="#888" stroke-width="1" opacity="1"/></g><g class="mark-text role-axis-label" pointer-events="none"><text text-anchor="middle" transform="translate(34.564891056498794,15)" font-family="Liberation Mono" font-size="10px" fill="#000" opacity="1">Jan 07</text><text text-anchor="middle" transform="translate(79.34657528130761,15)" font-family="Liberation Mono" font-size="10px" fill="#000" opacity="0">Jan 14</text><text text-anchor="middle" transform="translate(124.12825950611644,15)" font-family="Liberation Mono" font-size="10px" fill="#000" opacity="0">Jan 21</text><text text-anchor="middle" transform="translate(168.90994373092525,15)" font-family="Liberation Mono" font-size="10px" fill="#000" opacity="1">Jan 28</text></g><g class="mark-rule role-axis-domain" pointer-events="none"><line transform="translate(0,0)" x2="200" y2="0" stroke="#888" stroke-width="1" opacity="1"/></g><g class="mark-text role-axis-title" pointer-events="none"><text text-anchor="middle" transform="translate(100,30)" font-family="Liberation Mono" font-size="11px" font-weight="bold" fill="#000" opacity="1">Time</text></g></g><path class="foreground" aria-hidden="true" d="" pointer-events="none" display="none"/></g></g><g class="mark-group role-axis" role="graphics-symbol" aria-roledescription="axis" aria-label="Y-axis titled 'Price' for a linear scale with values from 0 to 2,600"><g transform="translate(0.5,0.5)"><path class="background" aria-hidden="true" d="M0,0h0v0h0Z" pointer-events="none"/><g><g class="mark-rule role-axis-tick" pointer-events="none"><line transform="translate(0,200)" x2="-5" y2="0" stroke="#888" stroke-width="1" opacity="1"/><line transform="translate(0,162)" x2="-5" y2="0" stroke="#888" stroke-width="1" opacity="1"/><line transform="translate(0,123)" x2="-5" y2="0" stroke="#888" stroke-width="1" opacity="1"/><line transform="translate(0,85)" x2="-5" y2="0" stroke="#888" stroke-width="1" opacity="1"/><line transform="translate(0,46)" x2="-5" y2="0" stroke="#888" stroke-width="1" opacity="1"/><line transform="translate(0,8)" x2="-5" y2="0" stroke="#888" stroke-width="1" opacity="1"/></g><g class="mark-text role-axis-label" pointer-events="none"><text text-anchor="end" transform="translate(-7,203)" font-family="Liberation Mono" font-size="10px" fill="#000" opacity="1">0</text><text text-anchor="end" transform="translate(-7,164.53846153846155)" font-family="Liberation Mono" font-size="10px" fill="#000" opacity="1">500</text><text text-anchor="end" transform="translate(-7,126.07692307692308)" font-family="Liberation Mono" font-size="10px" fill="#000" opacity="1">1,000</text><text text-anchor="end" transform="translate(-7,87.61538461538463)" font-family="Liberation Mono" font-size="10px" fill="#000" opacity="1">1,500</text><text text-anchor="end" transform="translate(-7,49.153846153846146)" font-family="Liberation Mono" font-size="10px" fill="#000" opacity="1">2,000</text><text text-anchor="end" transform="translate(-7,10.692307692307686)" font-family="Liberation Mono" font-size="10px" fill="#000" opacity="1">2,500</text></g><g class="mark-rule role-axis-domain" pointer-events="none"><line transform="translate(0,200)" x2="0" y2="-200" stroke="#888" stroke-width="1" opacity="1"/></g><g class="mark-text role-axis-title" pointer-events="none"><text text-anchor="middle" transform="translate(-51,100) rotate(-90) translate(0,-2)" font-family="Liberation Mono" font-size="11px" font-weight="bold" fill="#000" opacity="1">Price</text></g></g><path class="foreground" aria-hidden="true" d="" pointer-events="none" display="none"/></g></g><g class="mark-group role-scope pathgroup" role="graphics-object" aria-roledescription="group mark container"><g transform="translate(0,0)"><path class="background" aria-hidden="true" d="M0,0h200v200h-200Z"/><g><g class="mark-line role-mark marks" role="graphics-object" aria-roledescription="line mark container"><path aria-label="Time: Jan 01, 2024; Price: 2399; identifier: altex-LG-F2WR508SBW" role="graphics-symbol" aria-roledescription="line mark" d="M0,15.462L0.67,15.462L1.683,15.462L3.815,15.462L4.883,15.462L6.003,15.462L7.022,15.462L8.079,15.462L10.213,15.462L11.28,15.462L12.402,15.462L13.421,15.462L14.475,15.462L16.611,15.462L17.678,15.462L18.797,15.462L19.826,15.462L20.876,15.462L23.011,34.692L24.076,34.692L25.196,34.692L26.22,34.692L27.271,34.692L29.406,34.692L30.471,34.692L31.588,34.692L32.612,34.692L33.669,34.692L35.808,34.692L36.868,34.692L37.985,34.692L39.01,34.692L40.066,34.692L42.205,34.692L43.274,34.692L44.395,34.692L45.416,34.692L46.463,34.692L48.604,34.692L49.669,34.692L50.804,34.692L51.815,34.692L52.861,34.692L55.001,34.692L56.067,34.692L57.19,34.692L58.207,34.692L59.259,34.692L61.396,34.692L62.463,34.692L63.589,34.692L64.609,34.692L65.656,34.692L67.793,34.692L68.861,34.692L69.981,34.692L71.003,34.692L72.054,34.692L74.187,46.231L75.252,46.231L76.369,46.231L77.394,46.231L78.45,46.231L80.589,46.231L81.649,46.231L82.766,46.231L83.789,46.231L84.848,46.231L86.988,46.231L88.056,46.231L89.181,46.231L90.199,46.231L91.245,46.231L93.382,46.231L94.453,46.231L95.576,46.231L96.598,46.231L97.643,46.231L99.78,46.231L100.851,46.231L101.975,46.231L102.993,46.231L104.04,46.231L106.176,46.231L107.244,46.231L108.369,46.231L109.386,46.231L110.44,46.231L112.576,46.231L113.643,46.231L114.767,46.231L115.789,46.231L116.835,46.231L118.973,46.231L120.033,46.231L121.152,46.231L122.18,46.231L123.234,46.231L125.366,46.231L126.431,46.231L127.549,46.231L128.574,46.231L129.63,46.231L131.773,46.231L132.841,46.231L133.966,46.231L134.979,46.231L136.028,46.231L138.166,46.231L139.237,46.231L140.361,46.231L141.381,46.231L142.424,46.231L144.565,46.231L145.633,46.231L146.758,46.231L147.776,46.231L148.823,46.231L150.964,46.231L152.028,46.231L153.155,46.231L154.178,46.231L155.219,46.231L157.355,46.231L158.424,46.231L159.53,46.231L160.553,46.231L161.62,46.231L163.749,46.231L164.818,46.231L165.913,46.231L166.948,46.231L168.012,46.231L170.147,46.231L171.213,46.231L172.313,46.231L173.345,46.231L174.412,46.231L176.544,46.231L177.613,46.231L178.72,46.231L179.744,46.231L180.81,46.231L182.94,46.231L184.007,46.231L185.116,46.231L186.155,46.231L187.205,46.231L189.337,46.231L190.405,46.231L191.515,46.231L192.537,46.231L193.603,46.231L195.735,34.692L196.803,34.692L197.913,34.692L198.934,34.692L200,34.692" stroke="#f58518" stroke-width="2"/></g></g><path class="foreground" aria-hidden="true" d="" display="none"/></g><g transform="translate(0,0)"><path class="background" aria-hidden="true" d="M0,0h200v200h-200Z"/><g><g class="mark-line role-mark marks" role="graphics-object" aria-roledescription="line mark container"><path aria-label="Time: Jan 01, 2024; Price: 2499; identifier: altex-LG-F2WR508SBM" role="graphics-symbol" aria-roledescription="line mark" d="M0,7.769L0.67,7.769L1.683,7.769L3.816,7.769L4.883,7.769L6.004,7.769L7.022,7.769L8.079,7.769L10.213,7.769L11.28,7.769L12.402,7.769L13.421,7.769L14.476,7.769L16.611,7.769L17.678,7.769L18.798,7.769L19.826,7.769L20.877,7.769L23.011,27L24.076,27L25.196,27L26.22,27L27.271,27L29.407,27L30.471,27L31.589,27L32.612,27L33.669,27L35.808,27L36.868,27L37.985,27L39.01,27L40.066,27L42.205,27L43.274,27L44.396,27L45.416,27L46.463,27L48.604,27L49.669,27L50.804,27L51.815,27L52.861,27L55.001,27L56.067,27L57.19,27L58.207,27L59.259,27L61.397,27L62.464,27L63.589,27L64.609,27L65.656,27L67.793,27L68.861,27L69.981,27L71.004,27L72.054,27L74.188,38.538L75.252,38.538L76.369,38.538L77.394,38.538L78.45,38.538L80.59,38.538L81.649,38.538L82.766,38.538L83.789,38.538L84.848,38.538L86.988,38.538L88.056,38.538L89.182,38.538L90.199,38.538L91.245,38.538L93.382,38.538L94.454,38.538L95.576,38.538L96.6,38.538L97.643,38.538L99.78,38.538L100.851,38.538L101.975,38.538L102.993,38.538L104.04,38.538L106.177,38.538L107.244,38.538L108.369,38.538L109.386,38.538L110.441,38.538L112.576,38.538L113.643,38.538L114.767,38.538L115.789,38.538L116.835,38.538L118.973,38.538L120.033,38.538L121.152,38.538L122.181,38.538L123.234,38.538L125.366,38.538L126.432,38.538L127.549,38.538L128.574,38.538L129.63,38.538L131.773,38.538L132.841,38.538L133.966,38.538L134.979,38.538L136.028,38.538L138.166,38.538L139.237,38.538L140.362,38.538L141.382,38.538L142.425,38.538L144.565,38.538L145.633,38.538L146.758,38.538L147.776,38.538L148.823,38.538L150.964,38.538L152.028,38.538L153.156,38.538L154.178,38.538L155.22,38.538L157.355,38.538L158.425,38.538L159.53,38.538L160.553,38.538L161.62,38.538L163.749,38.538L164.818,38.538L165.913,38.538L166.948,38.538L168.012,38.538L170.147,38.538L171.214,38.538L172.313,38.538L173.346,38.538L174.412,38.538L176.545,38.538L177.614,38.538L178.72,38.538L179.745,38.538L180.81,38.538L182.94,38.538L184.007,38.538L185.116,38.538L186.155,38.538L187.205,38.538L189.338,38.538L190.405,38.538L191.515,38.538L192.538,38.538L193.603,38.538L195.736,27L196.803,27L197.913,27L198.934,27L200,27" stroke="#4c78a8" stroke-width="2"/></g></g><path class="foreground" aria-hidden="true" d="" display="none"/></g></g><g class="mark-group role-legend" role="graphics-symbol" aria-roledescription="legend" aria-label="Symbol legend titled 'identifier' for stroke color with 2 values: altex-LG-F2WR508SBM, altex-LG-F2WR508SBW"><g transform="translate(220,0)"><path class="background" aria-hidden="true" d="M0,0h168v40h-168Z" pointer-events="none"/><g><g class="mark-group role-legend-entry"><g transform="translate(0,16)"><path class="background" aria-hidden="true" d="M0,0h0v0h0Z" pointer-events="none"/><g><g class="mark-group role-scope" role="graphics-object" aria-roledescription="group mark container"><g transform="translate(0,0)"><path class="background" aria-hidden="true" d="M0,0h168v11h-168Z" pointer-events="none" opacity="1"/><g><g class="mark-symbol role-legend-symbol" pointer-events="none"><path transform="translate(6,6)" d="M-5,0L5,0" stroke="#4c78a8" stroke-width="1.5" opacity="1"/></g><g class="mark-text role-legend-label" pointer-events="none"><text text-anchor="start" transform="translate(16,9)" font-family="Liberation Mono" font-size="10px" fill="#000" opacity="1">altex-LG-F2WR508SBM</text></g></g><path class="foreground" aria-hidden="true" d="" pointer-events="none" display="none"/></g><g transform="translate(0,13)"><path class="background" aria-hidden="true" d="M0,0h168v11h-168Z" pointer-events="none" opacity="1"/><g><g class="mark-symbol role-legend-symbol" pointer-events="none"><path transform="translate(6,6)" d="M-5,0L5,0" stroke="#f58518" stroke-width="1.5" opacity="1"/></g><g class="mark-text role-legend-label" pointer-events="none"><text text-anchor="start" transform="translate(16,9)" font-family="Liberation Mono" font-size="10px" fill="#000" opacity="1">altex-LG-F2WR508SBW</text></g></g><path class="foreground" aria-hidden="true" d="" pointer-events="none" display="none"/></g></g></g><path class="foreground" aria-hidden="true" d="" pointer-events="none" display="none"/></g></g><g class="mark-text role-legend-title" pointer-events="none"><text text-anchor="start" transform="translate(0,9)" font-family="Liberation Mono" font-size="11px" font-weight="bold" fill="#000" opacity="1">identifier</text></g></g><path class="foreground" aria-hidden="true" d="" pointer-events="none" display="none"/></g></g></g><path class="foreground" aria-hidden="true" d="" display="none"/></g></g></g></svg>