<svg xmlns="http://www.w3.org/2000/svg" xmlns:xlink="http://www.w3.org/1999/xlink" version="1.1" class="marks" width="460" height="242" viewBox="0 0 460 242"><rect width="460" height="242" fill="white"/><g fill="none" stroke-miterlimit="10" transform="translate(67,5)"><g class="mark-group role-frame root" role="graphics-object" aria-roledescription="group mark container"><g transform="translate(0,0)"><path class="background" aria-hidden="true" d="M0.5,0.5h200v200h-200Z" stroke="#ddd"/><g><g class="mark-group role-axis" aria-hidden="true"><g transform="translate(0.5,200.5)"><path class="background" aria-hidden="true" d="M0,0h0v0h0Z" pointer-events="none"/><g><g class="mark-rule role-axis-grid" pointer-events="none"><line transform="translate(67,-200)" x2="0" y2="200" stroke="#ddd" stroke-width="1" opacity="1"/><line transform="translate(135,-200)" x2="0" y2="200" stroke="#ddd" stroke-width="1" opacity="1"/></g></g><path class="foreground" aria-hidden="true" d="" pointer-events="none" display="none"/></g></g><g class="mark-group role-axis" aria-hidden="true"><g transform="translate(0.5,0.5)"><path class="background" aria-hidden="true" d="M0,0h0v0h0Z" pointer-events="none"/><g><g class="mark-rule role-axis-grid" pointer-events="none"><line transform="translate(0,200)" x2="200" y2="0" stroke="#ddd" stroke-width="1" opacity="1"/><line transform="translate(0,162)" x2="200" y2="0" stroke="#ddd" stroke-width="1" opacity="1"/><line transform="translate(0,123)" x2="200" y2="0" stroke="#ddd" stroke-width="1" opacity="1"/><line transform="translate(0,85)" x2="200" y2="0" stroke="#ddd" stroke-width="1" opacity="1"/><line transform="translate(0,46)" x2="200" y2="0" stroke="#ddd" stroke-width="1" opacity="1"/><line transform="translate(0,8)" x2="200" y2="0" stroke="#ddd" stroke-width="1" opacity="1"/></g></g><path class="foreground" aria-hidden="true" d="" pointer-events="none" display="none"/></g></g><g class="mark-group role-axis" role="graphics-symbol" aria-roledescription="axis" aria-label="X-axis titled 'Time' for a time scale with values from Monday, 01 January 2024, 2:19:43 PM to Wednesday, 25 September 2024, 4:48:45 PM"><g transform="translate(0.5,200.5)"><path class="background" aria-hidden="true" d="M0,0h0v0h0Z" pointer-events="none"/><g><g class="mark-rule role-axis-tick" pointer-events="none"><line transform="translate(67,0)" x2="0" y2="5" stroke="#888" stroke-width="1" opacity="1"/><line transform="translate(135,0)" x2="0" y2="5" stroke="#888" stroke-width="1" opacity="1"/></g><g class="mark-text role-axis-label" pointer-events="none"><text text-anchor="middle" transform="translate(67.43886186505928,15)" font-family="Liberation Mono" font-size="10px" fill="#000" opacity="1">April</text><text text-anchor="middle" transform="translate(135.3230941641837,15)" font-family="Liberation Mono" font-size="10px" fill="#000" opacity="1">July</text></g><g class="mark-rule role-axis-domain" pointer-events="none"><line transform="translate(0,0)" x2="200" y2="0" stroke="#888" stroke-width="1" opacity="1"/></g><g class="mark-text role-axis-title" pointer-events="none"><text text-anchor="middle" transform="translate(100,30)" font-family="Liberation Mono" font-size="11px" font-weight="bold" fill="#000" opacity="1">Time</text></g></g><path class="foreground" aria-hidden="true" d="" pointer-events="none" display="none"/></g></g><g class="mark-group role-axis" role="graphics-symbol" aria-roledescription="axis" aria-label="Y-axis titled 'Price' for a linear scale with values from 0 to 2,600"><g transform="translate(0.5,0.5)"><path class="background" aria-hidden="true" d="M0,0h0v0h0Z" pointer-events="none"/><g><g class="mark-rule role-axis-tick" pointer-events="none"><line transform="translate(0,200)" x2="-5" y2="0" stroke="#888" stroke-width="1" opacity="1"/><line transform="translate(0,162)" x2="-5" y2="0" stroke="#888" stroke-width="1" opacity="1"/><line transform="translate(0,123)" x2="-5" y2="0" stroke="#888" stroke-width="1" opacity="1"/><line transform="translate(0,85)" x2="-5" y2="0" stroke="#888" stroke-width="1" opacity="1"/><line transform="translate(0,46)" x2="-5" y2="0" stroke="#888" stroke-width="1" opacity="1"/><line transform="translate(0,8)" x2="-5" y2="0" stroke="#888" stroke-width="1" opacity="1"/></g><g class="mark-text role-axis-label" pointer-events="none"><text text-anchor="end" transform="translate(-7,203)" font-family="Liberation Mono" font-size="10px" fill="#000" opacity="1">0</text><text text-anchor="end" transform="translate(-7,164.53846153846155)" font-family="Liberation Mono" font-size="10px" fill="#000" opacity="1">500</text><text text-anchor="end" transform="translate(-7,126.07692307692308)" font-family="Liberation Mono" font-size="10px" fill="#000" opacity="1">1,000</text><text text-anchor="end" transform="translate(-7,87.61538461538463)" font-family="Liberation Mono" font-size="10px" fill="#000" opacity="1">1,500</text><text text-anchor="end" transform="translate(-7,49.153846153846146)" font-family="Liberation Mono" font-size="10px" fill="#000" opacity="1">2,000</text><text text-anchor="end" transform="translate(-7,10.692307692307686)" font-family="Liberation Mono" font-size="10px" fill="#000" opacity="1">2,500</text></g><g class="mark-rule role-axis-domain" pointer-events="none"><line transform="translate(0,200)" x2="0" y2="-200" stroke="#888" stroke-width="1" opacity="1"/></g><g class="mark-text role-axis-title" pointer-events="none"><text text-anchor="middle" transform="translate(-51,100) rotate(-90) translate(0,-2)" font-family="Liberation Mono" font-size="11px" font-weight="bold" fill="#000" opacity="1">Price</text></g></g><path class="foreground" aria-hidden="true" d="" pointer-events="none" display="none"/></g></g><g class="mark-group role-scope pathgroup" role="graphics-object" aria-roledescription="group mark container"><g transform="translate(0,0)"><path class="background" aria-hidden="true" d="M0,0h200v200h-200Z"/><g><g class="mark-line role-mark marks" role="graphics-object" aria-roledescription="line mark container"><path aria-label="Time: Jan 01, 2024; Price: 2399; identifier: altex-LG-F2WR508SBW" role="graphics-symbol" aria-roledescription="line mark" d="M0,15.462L0.078,15.462L0.196,15.462L0.445,15.462L0.569,15.462L0.7,15.462L0.819,15.462L0.942,15.462L1.191,15.462L1.315,15.462L1.446,15.462L1.565,15.462L1.688,15.462L1.937,15.462L2.061,15.462L2.192,15.462L2.312,15.462L2.434,15.462L2.683,34.692L2.807,34.692L2.938,34.692L3.057,34.692L3.18,34.692L3.429,34.692L3.553,34.692L3.683,34.692L3.803,34.692L3.926,34.692L4.175,34.692L4.299,34.692L4.429,34.692L4.549,34.692L4.672,34.692L4.921,34.692L5.046,34.692L5.177,34.692L5.296,34.692L5.418,34.692L5.668,34.692L5.792,34.692L5.924,34.692L6.042,34.692L6.164,34.692L6.413,34.692L6.538,34.692L6.669,34.692L6.787,34.692L6.91,34.692L7.159,34.692L7.284,34.692L7.415,34.692L7.534,34.692L7.656,34.692L7.905,34.692L8.03,34.692L8.16,34.692L8.279,34.692L8.402,34.692L8.651,46.231L8.775,46.231L8.905,46.231L9.025,46.231L9.148,46.231L9.397,46.231L9.521,46.231L9.651,46.231L9.77,46.231L9.894,46.231L10.143,46.231L10.268,46.231L10.399,46.231L10.518,46.231L10.64,46.231L10.889,46.231L11.014,46.231L11.145,46.231L11.264,46.231L11.386,46.231L11.635,46.231L11.76,46.231L11.891,46.231L12.01,46.231L12.132,46.231L12.381,46.231L12.505,46.231L12.637,46.231L12.755,46.231L12.878,46.231L13.127,46.231L13.252,46.231L13.383,46.231L13.502,46.231L13.624,46.231L13.873,46.231L13.997,46.231L14.127,46.231L14.247,46.231L14.37,46.231L14.619,46.231L14.743,46.231L14.873,46.231L14.993,46.231L15.116,46.231L15.366,46.231L15.49,46.231L15.621,46.231L15.739,46.231L15.862,46.231L16.111,46.231L16.236,46.231L16.367,46.231L16.486,46.231L16.608,46.231L16.857,46.231L16.982,46.231L17.113,46.231L17.232,46.231L17.354,46.231L17.603,46.231L17.728,46.231L17.859,46.231L17.978,46.231L18.1,46.231L18.349,46.231L18.473,46.231L18.602,46.231L18.722,46.231L18.846,46.231L19.094,46.231L19.219,46.231L19.347,46.231L19.467,46.231L19.591,46.231L19.84,46.231L19.965,46.231L20.093,46.231L20.213,46.231L20.338,46.231L20.586,46.231L20.711,46.231L20.84,46.231L20.959,46.231L21.084,46.231L21.332,46.231L21.457,46.231L21.586,46.231L21.707,46.231L21.829,46.231L22.078,46.231L22.203,46.231L22.332,46.231L22.451,46.231L22.575,46.231L22.824,34.692L22.949,34.692L23.078,34.692L23.197,34.692L23.321,34.692L23.57,34.692L23.694,34.692L23.824,34.692L23.943,34.692L24.067,34.692L24.316,34.692L24.441,34.692L24.569,34.692L24.689,34.692L24.814,34.692L25.063,34.692L25.187,34.692L25.315,34.692L25.435,34.692L25.559,34.692L25.808,34.692L25.933,34.692L26.062,34.692L26.181,34.692L26.305,34.692L26.554,34.692L26.678,34.692L26.808,34.692L26.927,34.692L27.051,34.692L27.3,34.692L27.425,34.692L27.554,34.692L27.674,34.692L27.797,34.692L28.046,34.692L28.171,34.692L28.3,34.692L28.42,34.692L28.543,34.692L28.792,34.692L28.917,34.692L29.045,34.692L29.165,34.692L29.29,34.692L29.538,34.692L29.662,34.692L29.791,34.692L29.911,34.692L30.035,34.692L30.285,34.692L30.408,34.692L30.537,34.692L30.657,34.692L30.781,34.692L31.03,34.692L31.154,34.692L31.284,34.692L31.403,34.692L31.527,34.692L31.776,34.692L31.9,34.692L32.029,34.692L32.151,34.692L32.273,34.692L32.522,34.692L32.646,34.692L32.776,34.692L32.895,34.692L33.019,34.692L33.392,34.692L33.522,34.692L33.641,34.692L33.765,34.692L34.014,34.692L34.138,34.692L34.268,34.692L34.388,34.692L34.511,34.692L34.76,34.692L34.884,34.692L35.012,34.692L35.133,34.692L35.257,34.692L35.506,34.692L35.631,34.692L35.759,34.692L35.879,34.692L36.003,34.692L36.252,34.692L36.377,34.692L36.506,34.692L36.626,34.692L36.749,34.692L36.998,34.692L37.122,34.692L37.251,34.692L37.371,34.692L37.495,34.692L37.744,34.692L37.868,34.692L37.998,34.692L38.117,34.692L38.241,34.692L38.49,34.692L38.614,34.692L38.744,34.692L38.863,34.692L38.987,34.692L39.236,34.692L39.36,34.692L39.489,34.692L39.609,34.692L39.734,34.692L39.982,34.692L40.106,34.692L40.234,34.692L40.355,34.692L40.479,34.692L40.728,34.692L40.852,34.692L40.98,34.692L41.101,34.692L41.225,34.692L41.474,34.692L41.598,34.692L41.728,34.692L41.847,34.692L41.971,34.692L42.22,34.692L42.344,34.692L42.473,34.692L42.593,34.692L42.717,34.692L42.966,34.692L43.09,34.692L43.219,34.692L43.339,34.692L43.463,34.692L43.712,34.692L43.836,34.692L43.965,34.692L44.085,34.692L44.209,34.692L44.458,34.692L44.582,34.692L44.711,34.692L44.831,34.692L44.955,34.692L45.204,34.692L45.328,34.692L45.457,34.692L45.577,34.692L45.701,34.692L45.95,34.692L46.074,34.692L46.202,34.692L46.323,34.692L46.447,34.692L46.707,34.692L46.877,34.692L46.951,34.692L47.069,34.692L47.193,34.692L47.441,34.692L47.566,34.692L47.696,34.692L47.815,34.692L47.939,34.692L48.187,34.692L48.313,34.692L48.442,34.692L48.562,34.692L48.685,34.692L48.933,34.692L49.058,34.692L49.187,34.692L49.307,34.692L49.431,34.692L49.68,34.692L49.806,34.692L49.933,34.692L50.052,34.692L50.177,34.692L50.426,34.692L50.55,34.692L50.678,34.692L50.799,34.692L50.923,34.692L51.171,34.692L51.297,34.692L51.424,34.692L51.545,34.692L51.669,34.692L51.918,34.692L52.042,34.692L52.172,34.692L52.291,34.692L52.415,34.692L52.664,34.692L52.788,34.692L52.917,34.692L53.038,34.692L53.161,34.692L53.41,34.692L53.535,34.692L53.664,34.692L53.783,34.692L53.907,34.692L54.155,34.692L54.28,34.692L54.41,34.692L54.529,34.692L54.653,34.692L54.901,34.692L55.027,34.692L55.155,34.692L55.275,34.692L55.399,34.692L55.647,34.692L55.772,34.692L55.901,34.692L56.02,34.692L56.145,34.692L56.393,34.692L56.518,34.692L56.646,34.692L56.766,34.692L56.891,34.692L57.139,34.692L57.264,34.692L57.394,34.692L57.514,34.692L57.637,34.692L57.886,34.692L58.01,34.692L58.139,34.692L58.26,34.692L58.382,34.692L58.631,34.692L58.756,34.692L58.885,34.692L59.006,34.692L59.129,34.692L59.377,34.692L59.502,34.692L59.632,34.692L59.752,34.692L59.875,34.692L60.123,34.692L60.248,34.692L60.377,34.692L60.497,34.692L60.621,34.692L60.869,34.692L60.993,34.692L61.123,34.692L61.242,34.692L61.366,34.692L61.615,34.692L61.74,34.692L61.869,34.692L61.988,34.692L62.112,34.692L62.361,34.692L62.486,34.692L62.615,34.692L62.735,34.692L62.858,34.692L63.107,34.692L63.232,34.692L63.361,34.692L63.481,34.692L63.604,34.692L63.854,34.692L63.978,34.692L64.108,34.692L64.228,34.692L64.351,34.692L64.599,34.692L64.723,34.692L64.853,34.692L64.973,34.692L65.096,34.692L65.345,34.692L65.469,34.692L65.599,34.692L65.719,34.692L65.842,34.692L66.091,34.692L66.215,34.692L66.344,34.692L66.464,34.692L66.589,34.692L66.837,34.692L66.962,34.692L67.09,34.692L67.211,34.692L67.334,34.692L67.583,34.692L67.708,34.692L67.838,34.692L67.958,34.692L68.08,34.692L68.33,34.692L68.454,34.692L68.584,34.692L68.703,34.692L68.826,34.692L69.075,34.692L69.199,34.692L69.329,34.692L69.449,34.692L69.572,34.692L69.821,34.692L69.946,34.692L70.075,34.692L70.195,34.692L70.318,34.692L70.568,34.692L70.821,34.692L70.941,34.692L71.065,34.692L71.313,34.692L71.438,34.692L71.566,34.692L71.686,34.692L71.81,34.692L72.059,34.692L72.183,34.692L72.312,34.692L72.432,34.692L72.556,34.692L72.805,34.692L72.929,34.692L73.059,34.692L73.179,34.692L73.302,34.692L73.551,34.692L73.675,34.692L73.805,34.692L73.925,34.692L74.048,34.692L74.297,34.692L74.422,34.692L74.551,34.692L74.672,34.692L74.795,34.692L75.043,34.692L75.168,34.692L75.297,34.692L75.541,34.692L75.789,34.692L75.914,34.692L76.043,34.692L76.162,34.692L76.286,34.692L76.535,34.692L76.659,34.692L76.786,34.692L76.908,34.692L77.032,34.692L77.292,34.692L77.483,34.692L77.6,34.692L77.842,34.692L78.029,34.692L78.151,34.692L78.279,34.692L78.4,34.692L78.524,34.692L78.773,34.692L78.897,34.692L79.027,34.692L79.146,34.692L79.27,34.692L79.519,34.692L79.643,34.692L79.773,34.692L79.893,34.692L80.016,34.692L80.389,34.692L80.519,34.692L80.638,34.692L80.762,34.692L81.011,34.692L81.135,34.692L81.265,34.692L81.385,34.692L81.508,34.692L81.757,34.692L81.881,34.692L82.01,34.692L82.13,34.692L82.254,34.692L82.503,34.692L82.627,34.692L82.756,34.692L82.876,34.692L83,34.692L83.249,34.692L83.374,34.692L83.504,34.692L83.622,34.692L83.746,34.692L83.995,34.692L84.119,34.692L84.25,34.692L84.369,34.692L84.492,34.692L84.741,34.692L84.866,34.692L84.999,34.692L85.114,34.692L85.238,34.692L85.487,34.692L85.612,34.692L85.738,34.692L85.86,34.692L85.984,34.692L86.233,34.692L86.357,34.692L86.487,34.692L86.606,34.692L86.73,34.692L86.979,34.692L87.103,34.692L87.232,34.692L87.351,34.692L87.476,34.692L87.725,34.692L87.849,34.692L87.979,34.692L88.098,34.692L88.222,34.692L88.47,34.692L88.597,34.692L88.726,34.692L88.844,34.692L88.968,34.692L89.217,34.692L89.341,34.692L89.471,34.692L89.591,34.692L89.714,34.692L89.962,34.692L90.089,34.692L90.218,34.692L90.336,34.692L90.46,34.692L90.709,57.769L90.833,57.769L90.964,57.769L91.082,57.769L91.206,57.769L91.455,57.769L91.579,57.769L91.709,57.769L91.828,57.769L91.952,57.769L92.2,57.769L92.325,57.769L92.454,57.769L92.573,57.769L92.698,57.769L92.946,57.769L93.071,57.769L93.2,57.769L93.32,57.769L93.444,57.769L93.693,57.769L93.817,57.769L93.948,57.769L94.067,57.769L94.19,57.769L94.438,57.769L94.563,57.769L94.693,57.769L94.812,57.769L94.936,57.769L95.184,57.769L95.309,57.769L95.441,57.769L95.559,57.769L95.681,57.769L95.931,34.692L96.056,34.692L96.185,34.692L96.306,34.692L96.428,34.692L96.676,34.692L96.801,34.692L96.932,34.692L97.05,34.692L97.174,34.692L97.422,34.692L97.547,34.692L97.676,34.692L97.795,34.692L97.92,34.692L98.169,34.692L98.293,34.692L98.423,34.692L98.542,34.692L98.666,34.692L98.915,34.692L99.039,34.692L99.17,34.692L99.289,34.692L99.412,34.692L99.66,34.692L99.786,34.692L99.916,34.692L100.035,34.692L100.157,34.692L100.407,34.692L100.531,34.692L100.662,34.692L100.78,34.692L100.904,34.692L101.152,34.692L101.277,34.692L101.408,34.692L101.526,34.692L101.649,34.692L101.898,34.692L102.023,34.692L102.154,34.692L102.273,34.692L102.395,34.692L102.644,34.692L102.769,34.692L102.899,34.692L103.017,34.692L103.141,34.692L103.391,34.692L103.515,34.692L103.645,34.692L103.764,34.692L103.888,34.692L104.137,34.692L104.261,34.692L104.392,34.692L104.511,34.692L104.634,34.692L104.882,34.692L105.007,34.692L105.138,34.692L105.256,34.692L105.38,34.692L105.629,34.692L105.753,34.692L105.884,34.692L106.003,34.692L106.125,34.692L106.374,34.692L106.499,34.692L106.63,34.692L106.749,34.692L106.871,34.692L107.121,34.692L107.245,34.692L107.376,34.692L107.494,34.692L107.618,34.692L107.867,34.692L107.991,34.692L108.121,34.692L108.24,34.692L108.363,34.692L108.613,34.692L108.736,34.692L108.866,34.692L108.986,34.692L109.11,34.692L109.358,34.692L109.483,34.692L109.614,34.692L109.733,34.692L109.855,34.692L110.107,34.692L110.229,34.692L110.36,34.692L110.478,34.692L110.601,34.692L110.851,34.692L110.976,34.692L111.106,34.692L111.224,34.692L111.347,34.692L111.598,34.692L111.721,34.692L111.852,34.692L111.97,34.692L112.093,34.692L112.343,34.692L112.467,34.692L112.598,34.692L112.716,34.692L112.839,34.692L113.088,34.692L113.212,34.692L113.343,34.692L113.462,34.692L113.585,34.692L113.834,34.692L113.958,34.692L114.088,34.692L114.207,34.692L114.331,34.692L114.581,34.692L114.705,34.692L114.837,34.692L114.954,34.692L115.078,34.692L115.326,34.692L115.451,34.692L115.582,34.692L115.701,34.692L115.823,34.692L116.073,34.692L116.197,34.692L116.328,34.692L116.447,34.692L116.569,34.692L116.818,34.692L116.943,34.692L117.074,34.692L117.192,34.692L117.315,34.692L117.565,34.692L117.689,34.692L117.821,34.692L117.94,34.692L118.061,34.692L118.31,34.692L118.434,34.692L118.565,34.692L118.684,34.692L118.807,34.692L119.056,34.692L119.18,34.692L119.311,34.692L119.43,34.692L119.553,34.692L119.803,34.692L119.928,34.692L120.059,34.692L120.177,34.692L120.299,34.692L120.549,34.692L120.673,34.692L120.805,34.692L120.923,34.692L121.046,34.692L121.294,34.692L121.419,46.231L121.551,46.231L121.669,46.231L121.791,46.231L122.04,46.231L122.165,46.231L122.296,46.231L122.416,46.231L122.537,46.231L122.786,46.231L122.911,46.231L123.042,48.538L123.16,48.538L123.283,48.538L123.533,48.538L123.657,48.538L123.787,48.538L123.906,48.538L124.029,48.538L124.278,48.538L124.403,48.538L124.533,48.538L124.652,48.538L124.775,48.538L125.025,48.538L125.149,48.538L125.281,48.538L125.398,48.538L125.521,48.538L125.77,48.538L125.895,48.538L126.026,48.538L126.144,48.538L126.267,48.538L126.516,48.538L126.641,48.538L126.773,48.538L126.89,48.538L127.013,48.538L127.262,48.538L127.387,48.538L127.518,48.538L127.638,48.538L127.759,48.538L128.009,48.538L128.133,48.538L128.264,48.538L128.382,48.538L128.505,48.538L128.754,48.538L128.878,48.538L129.01,48.538L129.128,48.538L129.251,48.538L129.5,48.538L129.624,48.538L129.755,48.538L129.873,48.538L129.997,48.538L130.246,48.538L130.371,48.538L130.502,48.538L130.62,48.538L130.743,48.538L130.992,48.538L131.117,48.538L131.248,48.538L131.489,48.538L131.739,48.538L131.863,48.538L131.994,48.538L132.112,48.538L132.235,48.538L132.485,48.538L132.609,48.538L132.74,48.538L132.858,48.538L132.981,48.538L133.23,48.538L133.355,48.538L133.486,48.538L133.604,48.538L133.727,48.538L133.976,48.538L134.1,48.538L134.231,48.538L134.35,48.538L134.473,48.538L134.722,48.538L134.846,48.538L134.977,48.538L135.096,48.538L135.219,48.538L135.468,48.538L135.593,48.538L135.725,48.538L135.843,48.538L135.965,48.538L136.214,48.538L136.339,48.538L136.47,48.538L136.588,48.538L136.711,48.538L136.96,48.538L137.085,48.538L137.216,48.538L137.335,48.538L137.457,48.538L137.706,48.538L137.831,48.538L137.962,48.538L138.08,48.538L138.203,48.538L138.453,48.538L138.576,48.538L138.707,48.538L138.826,48.538L138.948,48.538L139.198,48.538L139.322,48.538L139.452,48.538L139.572,48.538L139.695,48.538L139.943,48.538L140.068,48.538L140.198,48.538L140.317,48.538L140.441,48.538L140.691,48.538L140.815,48.538L140.946,48.538L141.064,48.538L141.187,48.538L141.436,48.538L141.561,48.538L141.693,48.538L141.81,48.538L141.933,48.538L142.182,48.538L142.307,48.538L142.438,48.538L142.556,48.538L142.679,48.538L142.928,48.538L143.053,48.538L143.184,48.538L143.302,48.538L143.424,48.538L143.674,48.538L143.799,48.538L143.93,48.538L144.048,48.538L144.171,48.538L144.419,48.538L144.544,48.538L144.674,48.538L144.793,48.538L144.916,48.538L145.167,48.538L145.291,48.538L145.429,48.538L145.546,48.538L145.662,48.538L145.913,48.538L146.037,48.538L146.169,48.538L146.287,48.538L146.408,48.538L146.658,48.538L146.783,48.538L146.912,48.538L147.033,48.538L147.154,48.538L147.404,48.538L147.529,48.538L147.66,48.538L147.779,48.538L147.9,48.538L148.15,48.538L148.275,48.538L148.407,48.538L148.524,48.538L148.646,48.538L148.896,48.538L149.02,48.538L149.152,48.538L149.271,48.538L149.393,48.538L149.642,48.538L149.766,48.538L149.897,48.538L150.015,48.538L150.139,48.538L150.387,48.538L150.512,48.538L150.643,48.538L150.762,48.538L150.884,48.538L151.134,48.538L151.26,48.538L151.391,48.538L151.508,48.538L151.63,48.538L151.88,48.538L152.005,48.538L152.136,48.538L152.254,48.538L152.376,48.538L152.625,27L152.751,27L152.882,27L153,27L153.122,27L153.373,27L153.497,27L153.628,27L153.746,27L153.869,27L154.119,27L154.242,27L154.373,27L154.493,27L154.614,27L154.864,27L154.988,27L155.12,27L155.237,27L155.361,27L155.609,27L155.733,27L155.864,27L155.984,27L156.106,27L156.356,27L156.481,27L156.612,27L156.73,27L156.853,27L157.102,27L157.226,27L157.358,27L157.476,27L157.598,27L157.847,27L157.971,27L158.104,27L158.222,27L158.344,27L158.594,27L158.719,27L158.85,27L158.968,27L159.091,27L159.34,27L159.465,27L159.596,27L159.714,27L159.836,27L160.085,27L160.21,27L160.34,27L160.459,27L160.582,27L160.833,27L160.956,27L161.087,27L161.204,27L161.329,27L161.578,27L161.703,27L161.835,27L161.952,27L162.075,27L162.324,27L162.449,27L162.58,27L162.698,27L162.82,27L163.07,27L163.194,27L163.327,27L163.445,27L163.567,27L163.816,27L163.941,27L164.072,27L164.19,27L164.312,27L164.562,27L164.687,27L164.818,27L164.936,27L165.058,27L165.309,27L165.432,27L165.563,27L165.683,27L165.804,27L166.054,27L166.178,27L166.309,27L166.427,27L166.55,27L166.8,27L166.925,27L167.057,27L167.174,27L167.296,27L167.546,27L167.67,27L167.802,27L167.921,27L168.042,27L168.292,27L168.417,27L168.548,27L168.667,27L168.788,27L169.038,27L169.162,27L169.294,27L169.412,27L169.534,27L169.784,27L169.908,27L170.04,27L170.158,27L170.28,27L170.53,27L170.653,27L170.784,27L170.904,27L171.027,27L171.275,27L171.399,27L171.531,27L171.649,27L171.772,27L172.021,27L172.147,27L172.278,27L172.395,27L172.518,27L172.769,27L172.892,27L173.024,27L173.141,27L173.264,27L173.514,27L173.639,27L173.768,27L173.888,27L174.01,27L174.259,27L174.384,27L174.516,27L174.635,27L174.756,27L175.006,27L175.13,27L175.262,27L175.38,27L175.502,27L175.752,27L175.875,27L176.007,27L176.125,27L176.248,27L176.498,27L176.622,27L176.753,27L176.871,27L176.995,27L177.245,27L177.369,27L177.501,27L177.618,27L177.74,27L177.99,27L178.115,27L178.246,27L178.364,27L178.486,27L178.736,27L178.861,27L178.993,27L179.111,27L179.232,27L179.482,27L179.607,27L179.739,27L179.856,27L179.978,27L180.228,27L180.353,27L180.485,27L180.602,27L180.724,27L180.974,27L181.098,27L181.229,27L181.348,27L181.47,27L181.72,27L181.844,27L181.977,27L182.094,27L182.216,27L182.466,27L182.591,27L182.723,27L182.841,27L182.962,27L183.212,27L183.337,27L183.469,27L183.586,27L183.708,27L183.958,27L184.083,27L184.215,27L184.332,27L184.455,27L184.704,27L184.829,27L184.961,27L185.078,27L185.2,27L185.45,27L185.575,27L185.706,27L185.825,27L185.946,27L186.196,27L186.32,27L186.451,27L186.569,27L186.691,27L186.941,27L187.066,27L187.197,27L187.316,27L187.438,27L187.688,27L187.814,27L187.945,27L188.062,27L188.184,27L188.434,27L188.559,27L188.692,27L188.808,27L188.93,27L189.181,27L189.305,27L189.437,27L189.554,27L189.676,27L189.926,27L190.051,27L190.183,27L190.3,27L190.422,27L190.672,27L190.797,27L190.929,27L191.046,27L191.168,27L191.418,46.231L191.542,46.231L191.673,46.231L191.791,46.231L191.914,46.231L192.164,46.231L192.288,46.231L192.42,46.231L192.538,46.231L192.659,46.231L192.911,46.231L193.035,46.231L193.168,46.231L193.285,46.231L193.406,46.231L193.654,46.231L193.781,46.231L193.913,46.231L194.03,46.231L194.152,46.231L194.402,46.231L194.527,46.231L194.659,46.231L194.776,46.231L194.898,46.231L195.148,53.923L195.273,53.923L195.405,53.923L195.522,53.923L195.644,53.923L195.894,53.923L196.019,53.923L196.151,53.923L196.268,53.923L196.39,53.923L196.64,53.923L196.764,53.923L196.895,53.923L197.013,53.923L197.135,53.923L197.387,53.923L197.51,53.923L197.642,53.923L197.759,53.923L197.881,53.923L198.132,53.923L198.258,53.923L198.39,53.923L198.506,53.923L198.628,53.923L198.878,53.923L199.004,53.923L199.136,53.923L199.253,53.923L199.374,53.923L199.624,53.923L199.75,53.923L199.882,53.923L200,53.923" stroke="#4c78a8" stroke-width="2"/></g></g><path class="foreground" aria-hidden="true" d="" display="none"/></g><g transform="translate(0,0)"><path class="background" aria-hidden="true" d="M0,0h200v200h-200Z"/><g><g class="mark-line role-mark marks" role="graphics-object" aria-roledescription="line mark container"><path aria-label="Time: Jan 01, 2024; Price: 2499; identifier: altex-LG-F2WR508SBM" role="graphics-symbol" aria-roledescription="line mark" d="M0,7.769L0.078,7.769L0.196,7.769L0.445,7.769L0.569,7.769L0.7,7.769L0.819,7.769L0.942,7.769L1.191,7.769L1.315,7.769L1.446,7.769L1.565,7.769L1.688,7.769L1.937,7.769L2.061,7.769L2.192,7.769L2.312,7.769L2.434,7.769L2.683,27L2.807,27L2.938,27L3.057,27L3.18,27L3.429,27L3.553,27L3.683,27L3.803,27L3.926,27L4.176,27L4.299,27L4.429,27L4.549,27L4.672,27L4.921,27L5.046,27L5.177,27L5.296,27L5.418,27L5.668,27L5.792,27L5.924,27L6.042,27L6.164,27L6.413,27L6.538,27L6.669,27L6.787,27L6.91,27L7.159,27L7.284,27L7.415,27L7.534,27L7.656,27L7.905,27L8.03,27L8.16,27L8.28,27L8.402,27L8.651,38.538L8.775,38.538L8.905,38.538L9.025,38.538L9.148,38.538L9.397,38.538L9.521,38.538L9.651,38.538L9.77,38.538L9.894,38.538L10.143,38.538L10.268,38.538L10.399,38.538L10.518,38.538L10.64,38.538L10.889,38.538L11.014,38.538L11.145,38.538L11.264,38.538L11.386,38.538L11.635,38.538L11.76,38.538L11.891,38.538L12.01,38.538L12.132,38.538L12.381,38.538L12.505,38.538L12.637,38.538L12.755,38.538L12.878,38.538L13.127,38.538L13.252,38.538L13.383,38.538L13.502,38.538L13.624,38.538L13.873,38.538L13.997,38.538L14.127,38.538L14.247,38.538L14.37,38.538L14.619,38.538L14.743,38.538L14.873,38.538L14.993,38.538L15.116,38.538L15.366,38.538L15.49,38.538L15.621,38.538L15.74,38.538L15.862,38.538L16.111,38.538L16.236,38.538L16.367,38.538L16.486,38.538L16.608,38.538L16.857,38.538L16.982,38.538L17.113,38.538L17.232,38.538L17.354,38.538L17.604,38.538L17.728,38.538L17.859,38.538L17.978,38.538L18.1,38.538L18.349,38.538L18.473,38.538L18.602,38.538L18.722,38.538L18.846,38.538L19.094,38.538L19.219,38.538L19.347,38.538L19.467,38.538L19.591,38.538L19.84,38.538L19.965,38.538L20.093,38.538L20.213,38.538L20.338,38.538L20.586,38.538L20.711,38.538L20.84,38.538L20.96,38.538L21.084,38.538L21.332,38.538L21.457,38.538L21.586,38.538L21.707,38.538L21.829,38.538L22.078,38.538L22.203,38.538L22.332,38.538L22.451,38.538L22.576,38.538L22.824,27L22.949,27L23.078,27L23.197,27L23.321,27L23.57,27L23.695,27L23.824,27L23.943,27L24.068,27L24.316,27L24.441,27L24.569,27L24.689,27L24.814,27L25.063,27L25.187,27L25.315,27L25.435,27L25.559,27L25.808,27L25.933,27L26.062,27L26.181,27L26.305,27L26.554,27L26.678,27L26.808,27L26.927,27L27.051,27L27.3,27L27.425,27L27.554,27L27.674,27L27.797,27L28.046,27L28.171,27L28.3,27L28.42,27L28.543,27L28.792,27L28.917,27L29.045,27L29.165,27L29.29,27L29.538,27L29.662,27L29.791,27L29.911,27L30.035,27L30.285,27L30.409,27L30.537,27L30.657,27L30.781,27L31.03,27L31.154,27L31.284,27L31.403,27L31.527,27L31.776,27L31.9,27L32.029,27L32.151,27L32.273,27L32.522,27L32.646,27L32.776,27L32.895,27L33.019,27L33.392,27L33.522,27L33.641,27L33.765,27L34.014,27L34.138,27L34.268,27L34.388,27L34.511,27L34.76,27L34.884,27L35.012,27L35.133,27L35.257,27L35.506,27L35.631,27L35.759,27L35.879,27L36.003,27L36.252,27L36.377,27L36.506,27L36.626,27L36.749,27L36.998,27L37.122,27L37.251,27L37.371,27L37.496,27L37.744,27L37.868,27L37.998,27L38.117,27L38.241,27L38.49,27L38.614,27L38.744,27L38.863,27L38.987,27L39.236,27L39.36,27L39.489,27L39.609,27L39.734,27L39.982,27L40.106,27L40.234,27L40.355,27L40.479,27L40.728,27L40.852,27L40.98,27L41.101,27L41.225,27L41.474,27L41.598,27L41.728,27L41.847,27L41.971,27L42.22,27L42.344,27L42.473,27L42.593,27L42.717,27L42.966,27L43.09,27L43.219,27L43.339,27L43.463,27L43.712,27L43.836,27L43.965,27L44.085,27L44.209,27L44.458,27L44.582,27L44.711,27L44.831,27L44.955,27L45.204,27L45.328,27L45.457,27L45.577,27L45.701,27L45.95,27L46.074,27L46.202,27L46.323,27L46.447,27L46.707,27L46.877,27L46.951,27L47.069,27L47.193,27L47.441,27L47.566,27L47.696,27L47.815,27L47.939,27L48.187,27L48.313,27L48.442,27L48.562,27L48.685,27L48.933,27L49.058,27L49.187,38.538L49.307,38.538L49.431,38.538L49.68,38.538L49.806,38.538L49.933,38.538L50.052,38.538L50.177,38.538L50.426,38.538L50.55,38.538L50.678,38.538L50.799,38.538L50.923,38.538L51.171,38.538L51.297,38.538L51.424,38.538L51.545,38.538L51.669,38.538L51.918,38.538L52.042,38.538L52.172,38.538L52.291,38.538L52.415,38.538L52.664,38.538L52.788,38.538L52.917,38.538L53.038,38.538L53.161,38.538L53.41,38.538L53.535,38.538L53.664,38.538L53.783,38.538L53.907,38.538L54.155,38.538L54.28,38.538L54.41,38.538L54.529,38.538L54.653,38.538L54.901,38.538L55.027,38.538L55.155,38.538L55.275,38.538L55.399,38.538L55.647,38.538L55.772,38.538L55.901,38.538L56.021,38.538L56.145,38.538L56.393,38.538L56.518,38.538L56.646,38.538L56.766,38.538L56.891,38.538L57.139,38.538L57.264,38.538L57.394,38.538L57.514,38.538L57.637,38.538L57.886,38.538L58.01,38.538L58.139,38.538L58.26,38.538L58.383,38.538L58.631,38.538L58.756,38.538L58.885,38.538L59.006,38.538L59.129,38.538L59.377,38.538L59.502,38.538L59.632,38.538L59.752,38.538L59.875,38.538L60.123,38.538L60.248,38.538L60.377,38.538L60.497,38.538L60.621,38.538L60.869,38.538L60.993,38.538L61.123,38.538L61.242,38.538L61.366,38.538L61.615,38.538L61.74,38.538L61.869,38.538L61.988,38.538L62.112,38.538L62.361,38.538L62.486,38.538L62.615,38.538L62.735,38.538L62.858,38.538L63.107,38.538L63.232,38.538L63.361,38.538L63.481,38.538L63.604,38.538L63.854,38.538L63.978,38.538L64.108,38.538L64.228,38.538L64.351,38.538L64.599,38.538L64.723,38.538L64.853,38.538L64.973,38.538L65.096,38.538L65.345,38.538L65.469,38.538L65.599,38.538L65.719,38.538L65.842,38.538L66.091,38.538L66.215,38.538L66.344,38.538L66.465,38.538L66.589,38.538L66.837,38.538L66.962,38.538L67.09,38.538L67.211,38.538L67.334,38.538L67.583,38.538L67.708,38.538L67.838,38.538L67.958,38.538L68.08,38.538L68.33,38.538L68.454,38.538L68.584,38.538L68.703,38.538L68.826,38.538L69.075,38.538L69.199,38.538L69.329,38.538L69.449,38.538L69.572,38.538L69.821,38.538L69.946,38.538L70.075,38.538L70.195,38.538L70.319,38.538L70.568,38.538L70.821,38.538L70.941,38.538L71.065,38.538L71.313,38.538L71.438,38.538L71.566,38.538L71.686,38.538L71.81,38.538L72.059,38.538L72.183,38.538L72.312,38.538L72.432,38.538L72.556,38.538L72.805,38.538L72.929,38.538L73.059,38.538L73.179,38.538L73.302,38.538L73.551,38.538L73.675,38.538L73.805,38.538L73.925,38.538L74.048,38.538L74.297,38.538L74.422,38.538L74.551,38.538L74.672,38.538L74.795,38.538L75.043,38.538L75.168,38.538L75.297,38.538L75.541,38.538L75.789,38.538L75.914,38.538L76.043,38.538L76.162,38.538L76.286,38.538L76.535,38.538L76.659,38.538L76.786,38.538L76.908,38.538L77.032,38.538L77.292,38.538L77.483,38.538L77.6,38.538L77.842,38.538L78.029,38.538L78.151,38.538L78.279,38.538L78.4,38.538L78.524,38.538L78.773,38.538L78.897,38.538L79.027,38.538L79.146,38.538L79.27,38.538L79.519,38.538L79.643,38.538L79.773,38.538L79.893,38.538L80.016,38.538L80.389,38.538L80.519,38.538L80.638,38.538L80.762,38.538L81.011,38.538L81.135,38.538L81.265,38.538L81.385,38.538L81.508,38.538L81.757,38.538L81.881,38.538L82.01,38.538L82.13,38.538L82.254,38.538L82.503,38.538L82.627,38.538L82.756,38.538L82.876,38.538L83,38.538L83.249,38.538L83.374,38.538L83.504,38.538L83.623,38.538L83.746,38.538L83.995,38.538L84.119,38.538L84.25,38.538L84.369,38.538L84.492,38.538L84.741,38.538L84.866,38.538L84.999,38.538L85.114,38.538L85.238,38.538L85.487,38.538L85.612,38.538L85.738,38.538L85.86,38.538L85.984,38.538L86.233,38.538L86.357,38.538L86.487,38.538L86.606,38.538L86.731,38.538L86.979,38.538L87.103,38.538L87.232,38.538L87.351,38.538L87.476,38.538L87.725,38.538L87.849,38.538L87.979,38.538L88.098,38.538L88.222,38.538L88.47,38.538L88.597,38.538L88.726,38.538L88.844,38.538L88.968,38.538L89.217,38.538L89.342,38.538L89.471,38.538L89.591,38.538L89.714,38.538L89.962,38.538L90.089,38.538L90.218,38.538L90.336,38.538L90.46,38.538L90.709,38.538L90.833,38.538L90.964,38.538L91.082,38.538L91.206,38.538L91.455,38.538L91.579,38.538L91.709,38.538L91.828,38.538L91.952,38.538L92.201,38.538L92.325,38.538L92.454,38.538L92.573,38.538L92.698,38.538L92.947,38.538L93.071,38.538L93.2,38.538L93.32,38.538L93.444,38.538L93.693,38.538L93.817,38.538L93.948,38.538L94.067,38.538L94.19,38.538L94.438,38.538L94.563,38.538L94.693,30.846L94.812,30.846L94.936,30.846L95.184,30.846L95.309,30.846L95.441,30.846L95.56,30.846L95.682,30.846L95.931,30.846L96.056,30.846L96.185,30.846L96.306,30.846L96.428,30.846L96.676,30.846L96.801,30.846L96.932,30.846L97.05,30.846L97.174,30.846L97.422,30.846L97.547,30.846L97.676,30.846L97.795,30.846L97.92,30.846L98.169,30.846L98.293,30.846L98.423,30.846L98.542,30.846L98.666,30.846L98.915,30.846L99.039,30.846L99.17,30.846L99.289,30.846L99.412,30.846L99.66,30.846L99.786,30.846L99.916,30.846L100.035,30.846L100.158,30.846L100.407,30.846L100.531,30.846L100.662,30.846L100.78,30.846L100.904,30.846L101.152,30.846L101.277,30.846L101.408,30.846L101.526,30.846L101.649,30.846L101.898,30.846L102.023,30.846L102.154,30.846L102.273,30.846L102.395,30.846L102.644,30.846L102.769,30.846L102.899,30.846L103.017,30.846L103.141,30.846L103.391,30.846L103.515,30.846L103.645,30.846L103.764,30.846L103.888,30.846L104.138,30.846L104.261,30.846L104.392,30.846L104.511,30.846L104.634,30.846L104.882,30.846L105.007,30.846L105.138,30.846L105.256,30.846L105.38,30.846L105.629,30.846L105.753,30.846L105.884,38.538L106.003,38.538L106.125,38.538L106.374,38.538L106.499,38.538L106.63,38.538L106.749,38.538L106.871,38.538L107.121,38.538L107.245,38.538L107.376,38.538L107.494,38.538L107.618,38.538L107.867,38.538L107.991,38.538L108.121,38.538L108.24,38.538L108.363,38.538L108.613,38.538L108.736,38.538L108.866,38.538L108.986,38.538L109.11,38.538L109.358,38.538L109.483,38.538L109.614,38.538L109.733,38.538L109.855,38.538L110.107,38.538L110.229,38.538L110.36,38.538L110.478,38.538L110.601,38.538L110.851,38.538L110.976,38.538L111.106,38.538L111.224,38.538L111.347,38.538L111.598,38.538L111.721,38.538L111.852,38.538L111.97,38.538L112.093,38.538L112.343,30.846L112.467,30.846L112.598,30.846L112.716,30.846L112.839,30.846L113.088,30.846L113.212,30.846L113.343,30.846L113.462,30.846L113.585,30.846L113.834,30.846L113.958,30.846L114.088,30.846L114.207,30.846L114.331,30.846L114.581,30.846L114.705,30.846L114.837,30.846L114.954,30.846L115.078,30.846L115.326,30.846L115.451,30.846L115.582,30.846L115.701,30.846L115.823,30.846L116.073,30.846L116.197,30.846L116.328,30.846L116.447,30.846L116.569,30.846L116.818,30.846L116.943,30.846L117.074,30.846L117.192,30.846L117.315,30.846L117.565,30.846L117.689,30.846L117.821,30.846L117.94,30.846L118.061,30.846L118.31,30.846L118.434,30.846L118.565,30.846L118.684,30.846L118.807,30.846L119.056,30.846L119.18,30.846L119.311,30.846L119.43,30.846L119.553,30.846L119.803,30.846L119.928,30.846L120.059,30.846L120.177,30.846L120.299,30.846L120.549,30.846L120.673,30.846L120.805,30.846L120.923,30.846L121.046,30.846L121.294,30.846L121.419,34.692L121.551,34.692L121.669,34.692L121.791,34.692L122.041,34.692L122.165,34.692L122.296,34.692L122.416,34.692L122.538,34.692L122.786,34.692L122.911,34.692L123.042,40.077L123.16,40.077L123.284,40.077L123.533,40.077L123.657,40.077L123.787,40.077L123.906,40.077L124.029,40.077L124.278,40.077L124.403,40.077L124.533,40.077L124.652,40.077L124.775,40.077L125.025,40.077L125.149,40.077L125.281,40.077L125.398,40.077L125.521,40.077L125.77,40.077L125.895,40.077L126.026,40.077L126.145,40.077L126.267,40.077L126.516,40.077L126.641,40.077L126.773,40.077L126.891,40.077L127.013,40.077L127.262,40.077L127.387,40.077L127.518,40.077L127.638,40.077L127.759,40.077L128.009,40.077L128.133,40.077L128.264,40.077L128.382,40.077L128.505,40.077L128.754,40.077L128.878,40.077L129.01,40.077L129.128,40.077L129.251,40.077L129.5,40.077L129.624,40.077L129.755,40.077L129.873,40.077L129.997,40.077L130.246,40.077L130.371,40.077L130.502,40.077L130.62,40.077L130.743,40.077L130.992,40.077L131.117,40.077L131.248,40.077L131.489,40.077L131.739,40.077L131.863,40.077L131.995,40.077L132.112,40.077L132.235,40.077L132.485,40.077L132.609,40.077L132.74,40.077L132.859,40.077L132.981,40.077L133.23,40.077L133.355,40.077L133.486,40.077L133.604,40.077L133.727,40.077L133.976,40.077L134.1,40.077L134.231,40.077L134.35,40.077L134.473,40.077L134.722,40.077L134.846,40.077L134.977,40.077L135.096,40.077L135.219,40.077L135.468,40.077L135.593,40.077L135.725,40.077L135.843,40.077L135.965,40.077L136.214,40.077L136.339,40.077L136.47,40.077L136.588,40.077L136.711,40.077L136.96,40.077L137.085,40.077L137.216,40.077L137.335,40.077L137.457,40.077L137.706,40.077L137.831,40.077L137.962,40.077L138.08,40.077L138.203,40.077L138.453,40.077L138.576,40.077L138.707,40.077L138.826,40.077L138.948,40.077L139.198,40.077L139.322,40.077L139.452,40.077L139.572,40.077L139.695,40.077L139.943,40.077L140.068,40.077L140.199,40.077L140.317,40.077L140.441,40.077L140.691,40.077L140.815,40.077L140.946,40.077L141.064,40.077L141.187,40.077L141.436,40.077L141.561,40.077L141.693,40.077L141.81,40.077L141.933,40.077L142.182,40.077L142.307,40.077L142.438,40.077L142.556,40.077L142.679,40.077L142.928,40.077L143.053,40.077L143.184,40.077L143.302,40.077L143.425,40.077L143.674,40.077L143.799,40.077L143.93,40.077L144.048,40.077L144.171,40.077L144.419,40.077L144.544,40.077L144.674,40.077L144.793,40.077L144.916,40.077L145.167,40.077L145.291,40.077L145.429,40.077L145.546,40.077L145.662,40.077L145.913,40.077L146.037,40.077L146.169,40.077L146.287,40.077L146.408,40.077L146.658,40.077L146.783,40.077L146.912,40.077L147.033,40.077L147.154,40.077L147.404,40.077L147.529,40.077L147.66,40.077L147.779,40.077L147.9,40.077L148.15,40.077L148.275,40.077L148.407,40.077L148.524,40.077L148.646,40.077L148.896,40.077L149.02,40.077L149.152,40.077L149.271,40.077L149.393,40.077L149.642,40.077L149.766,40.077L149.897,40.077L150.015,40.077L150.139,40.077L150.387,40.077L150.512,40.077L150.643,40.077L150.763,40.077L150.884,40.077L151.134,40.077L151.26,40.077L151.391,40.077L151.508,40.077L151.63,40.077L151.88,40.077L152.005,40.077L152.136,40.077L152.254,40.077L152.376,40.077L152.626,40.077L152.751,40.077L152.882,40.077L153,40.077L153.122,40.077L153.373,40.077L153.497,40.077L153.628,40.077L153.746,40.077L153.869,40.077L154.119,40.077L154.242,40.077L154.373,40.077L154.493,40.077L154.614,40.077L154.864,40.077L154.988,40.077L155.12,40.077L155.237,40.077L155.361,40.077L155.609,40.077L155.733,40.077L155.864,40.077L155.984,40.077L156.106,40.077L156.356,40.077L156.481,40.077L156.612,40.077L156.73,40.077L156.853,40.077L157.102,40.077L157.226,40.077L157.358,40.077L157.476,40.077L157.598,40.077L157.847,40.077L157.971,40.077L158.105,40.077L158.222,40.077L158.344,40.077L158.594,40.077L158.719,40.077L158.85,40.077L158.968,40.077L159.091,40.077L159.34,40.077L159.465,40.077L159.596,40.077L159.714,40.077L159.836,40.077L160.086,40.077L160.21,40.077L160.34,40.077L160.459,40.077L160.582,40.077L160.833,40.077L160.956,40.077L161.087,40.077L161.204,40.077L161.329,40.077L161.578,40.077L161.703,40.077L161.835,40.077L161.952,40.077L162.075,40.077L162.324,40.077L162.449,40.077L162.58,40.077L162.698,40.077L162.82,40.077L163.07,40.077L163.194,40.077L163.327,40.077L163.445,40.077L163.567,40.077L163.816,40.077L163.941,40.077L164.072,40.077L164.19,40.077L164.312,40.077L164.562,40.077L164.687,40.077L164.818,40.077L164.936,40.077L165.058,40.077L165.309,40.077L165.432,40.077L165.563,40.077L165.683,40.077L165.804,40.077L166.054,40.077L166.178,40.077L166.309,40.077L166.427,40.077L166.55,40.077L166.8,40.077L166.925,40.077L167.057,40.077L167.174,40.077L167.297,40.077L167.546,40.077L167.67,40.077L167.803,40.077L167.921,40.077L168.042,40.077L168.292,40.077L168.417,40.077L168.548,40.077L168.667,40.077L168.788,40.077L169.038,40.077L169.162,40.077L169.294,40.077L169.412,40.077L169.534,40.077L169.784,40.077L169.908,40.077L170.04,40.077L170.158,40.077L170.28,40.077L170.53,40.077L170.653,40.077L170.784,40.077L170.904,40.077L171.027,40.077L171.276,40.077L171.399,40.077L171.531,40.077L171.649,40.077L171.772,40.077L172.022,40.077L172.147,40.077L172.278,40.077L172.395,40.077L172.518,40.077L172.769,40.077L172.892,40.077L173.024,40.077L173.141,40.077L173.264,40.077L173.514,40.077L173.639,40.077L173.768,40.077L173.888,40.077L174.01,40.077L174.259,40.077L174.384,40.077L174.516,40.077L174.635,40.077L174.756,40.077L175.006,40.077L175.13,40.077L175.262,40.077L175.38,40.077L175.502,40.077L175.752,40.077L175.875,40.077L176.007,40.077L176.125,40.077L176.248,40.077L176.498,40.077L176.622,40.077L176.753,40.077L176.871,40.077L176.995,40.077L177.245,40.077L177.369,40.077L177.501,40.077L177.618,40.077L177.74,40.077L177.99,40.077L178.115,40.077L178.246,40.077L178.364,40.077L178.486,40.077L178.736,40.077L178.861,40.077L178.993,40.077L179.111,40.077L179.232,40.077L179.482,40.077L179.607,40.077L179.739,40.077L179.856,40.077L179.978,40.077L180.228,40.077L180.353,40.077L180.485,40.077L180.602,40.077L180.724,40.077L180.974,40.077L181.098,40.077L181.229,40.077L181.348,40.077L181.47,40.077L181.72,40.077L181.844,40.077L181.977,40.077L182.094,40.077L182.216,40.077L182.466,40.077L182.591,40.077L182.723,40.077L182.841,40.077L182.962,40.077L183.212,40.077L183.337,40.077L183.469,40.077L183.586,40.077L183.708,40.077L183.958,40.077L184.083,40.077L184.215,40.077L184.332,40.077L184.455,40.077L184.704,40.077L184.829,40.077L184.961,40.077L185.078,40.077L185.2,40.077L185.45,40.077L185.575,40.077L185.706,40.077L185.825,40.077L185.946,40.077L186.196,40.077L186.32,40.077L186.451,40.077L186.569,40.077L186.691,40.077L186.941,40.077L187.066,40.077L187.197,40.077L187.316,40.077L187.438,40.077L187.688,40.077L187.814,40.077L187.946,40.077L188.062,40.077L188.184,40.077L188.434,40.077L188.559,40.077L188.692,40.077L188.808,40.077L188.93,40.077L189.181,40.077L189.305,40.077L189.437,40.077L189.554,40.077L189.676,40.077L189.927,40.077L190.051,40.077L190.183,40.077L190.301,40.077L190.422,40.077L190.672,40.077L190.797,40.077L190.929,40.077L191.046,40.077L191.168,40.077L191.418,40.077L191.542,40.077L191.673,40.077L191.791,40.077L191.914,40.077L192.164,40.077L192.288,40.077L192.42,40.077L192.538,40.077L192.66,40.077L192.911,40.077L193.035,40.077L193.168,40.077L193.285,40.077L193.406,40.077L193.654,40.077L193.781,40.077L193.913,40.077L194.03,40.077L194.152,40.077L194.402,40.077L194.527,40.077L194.659,40.077L194.776,40.077L194.898,40.077L195.149,40.077L195.273,40.077L195.406,40.077L195.522,40.077L195.644,40.077L195.894,40.077L196.019,40.077L196.151,40.077L196.268,40.077L196.39,40.077L196.64,40.077L196.764,40.077L196.895,40.077L197.013,40.077L197.135,40.077L197.387,40.077L197.51,40.077L197.642,40.077L197.759,40.077L197.881,40.077L198.132,40.077L198.258,40.077L198.39,40.077L198.506,40.077L198.628,40.077L198.878,40.077L199.004,40.077L199.136,40.077L199.253,40.077L199.374,40.077L199.624,40.077L199.75,40.077L199.882,40.077L200,40.077" stroke="#f58518" stroke-width="2"/></g></g><path class="foreground" aria-hidden="true" d="" display="none"/></g></g><g class="mark-group role-legend" role="graphics-symbol" aria-roledescription="legend" aria-label="Symbol legend titled 'identifier' for stroke color with 2 values: altex-LG-F2WR508SBW, altex-LG-F2WR508SBM"><g transform="translate(220,0)"><path class="background" aria-hidden="true" d="M0,0h168v40h-168Z" pointer-events="none"/><g><g class="mark-group role-legend-entry"><g transform="translate(0,16)"><path class="background" aria-hidden="true" d="M0,0h0v0h0Z" pointer-events="none"/><g><g class="mark-group role-scope" role="graphics-object" aria-roledescription="group mark container"><g transform="translate(0,0)"><path class="background" aria-hidden="true" d="M0,0h168v11h-168Z" pointer-events="none" opacity="1"/><g><g class="mark-symbol role-legend-symbol" pointer-events="none"><path transform="translate(6,6)" d="M-5,0L5,0" stroke="#4c78a8" stroke-width="1.5" opacity="1"/></g><g class="mark-text role-legend-label" pointer-events="none"><text text-anchor="start" transform="translate(16,9)" font-family="Liberation Mono" font-size="10px" fill="#000" opacity="1">altex-LG-F2WR508SBW</text></g></g><path class="foreground" aria-hidden="true" d="" pointer-events="none" display="none"/></g><g transform="translate(0,13)"><path class="background" aria-hidden="true" d="M0,0h168v11h-168Z" pointer-events="none" opacity="1"/><g><g class="mark-symbol role-legend-symbol" pointer-events="none"><path transform="translate(6,6)" d="M-5,0L5,0" stroke="#f58518" stroke-width="1.5" opacity="1"/></g><g class="mark-text role-legend-label" pointer-events="none"><text text-anchor="start" transform="translate(16,9)" font-family="Liberation Mono" font-size="10px" fill="#000" opacity="1">altex-LG-F2WR508SBM</text></g></g><path class="foreground" aria-hidden="true" d="" pointer-events="none" display="none"/></g></g></g><path class="foreground" aria-hidden="true" d="" pointer-events="none" display="none"/></g></g><g class="mark-text role-legend-title" pointer-events="none"><text text-anchor="start" transform="translate(0,9)" font-family="Liberation Mono" font-size="11px" font-weight="bold" fill="#000" opacity="1">identifier</text></g></g><path class="foreground" aria-hidden="true" d="" pointer-events="none" display="none"/></g></g></g><path class="foreground" aria-hidden="true" d="" display="none"/></g></g></g></svg>