<svg xmlns="http://www.w3.org/2000/svg" xmlns:xlink="http://www.w3.org/1999/xlink" version="1.1" class="marks" width="460" height="242" viewBox="0 0 460 242"><rect width="460" height="242" fill="white"/><g fill="none" stroke-miterlimit="10" transform="translate(67,5)"><g class="mark-group role-frame root" role="graphics-object" aria-roledescription="group mark container"><g transform="translate(0,0)"><path class="background" aria-hidden="true" d="M0.5,0.5h200v200h-200Z" stroke="#ddd"/><g><g class="mark-group role-axis" aria-hidden="true"><g transform="translate(0.5,200.5)"><path class="background" aria-hidden="true" d="M0,0h0v0h0Z" pointer-events="none"/><g><g class="mark-rule role-axis-grid" pointer-events="none"><line transform="translate(42,-200)" x2="0" y2="200" stroke="#ddd" stroke-width="1" opacity="1"/><line transform="translate(85,-200)" x2="0" y2="200" stroke="#ddd" stroke-width="1" opacity="1"/><line transform="translate(128,-200)" x2="0" y2="200" stroke="#ddd" stroke-width="1" opacity="1"/><line transform="translate(171,-200)" x2="0" y2="200" stroke="#ddd" stroke-width="1" opacity="1"/></g></g><path class="foreground" aria-hidden="true" d="" pointer-events="none" display="none"/></g></g><g class="mark-group role-axis" aria-hidden="true"><g transform="translate(0.5,0.5)"><path class="background" aria-hidden="true" d="M0,0h0v0h0Z" pointer-events="none"/><g><g class="mark-rule role-axis-grid" pointer-events="none"><line transform="translate(0,200)" x2="200" y2="0" stroke="#ddd" stroke-width="1" opacity="1"/><line transform="translate(0,162)" x2="200" y2="0" stroke="#ddd" stroke-width="1" opacity="1"/><line transform="translate(0,123)" x2="200" y2="0" stroke="#ddd" stroke-width="1" opacity="1"/><line transform="translate(0,85)" x2="200" y2="0" stroke="#ddd" stroke-width="1" opacity="1"/><line transform="translate(0,46)" x2="200" y2="0" stroke="#ddd" stroke-width="1" opacity="1"/><line transform="translate(0,8)" x2="200" y2="0" stroke="#ddd" stroke-width="1" opacity="1"/></g></g><path class="foreground" aria-hidden="true" d="" pointer-events="none" display="none"/></g></g><g class="mark-group role-axis" role="graphics-symbol" aria-roledescription="axis" aria-label="X-axis titled 'Time' for a time scale with values from Monday, 01 January 2024, 2:19:43 PM to Monday, 03 March 2025, 4:44:38 AM"><g transform="translate(0.5,200.5)"><path class="background" aria-hidden="true" d="M0,0h0v0h0Z" pointer-events="none"/><g><g class="mark-rule role-axis-tick" pointer-events="none"><line transform="translate(42,0)" x2="0" y2="5" stroke="#888" stroke-width="1" opacity="1"/><line transform="translate(85,0)" x2="0" y2="5" stroke="#888" stroke-width="1" opacity="1"/><line transform="translate(128,0)" x2="0" y2="5" stroke="#888" stroke-width="1" opacity="1"/><line transform="translate(171,0)" x2="0" y2="5" stroke="#888" stroke-width="1" opacity="1"/></g><g class="mark-text role-axis-label" pointer-events="none"><text text-anchor="middle" transform="translate(42.38295269875584,15)" font-family="Liberation Mono" font-size="10px" fill="#000" opacity="1">April</text><text text-anchor="middle" transform="translate(85.04580505059562,15)" font-family="Liberation Mono" font-size="10px" fill="#000" opacity="0">July</text><text text-anchor="middle" transform="translate(128.17747995575232,15)" font-family="Liberation Mono" font-size="10px" fill="#000" opacity="0">October</text><text text-anchor="middle" transform="translate(171.30915486090902,15)" font-family="Liberation Mono" font-size="10px" fill="#000" opacity="1">2025</text></g><g class="mark-rule role-axis-domain" pointer-events="none"><line transform="translate(0,0)" x2="200" y2="0" stroke="#888" stroke-width="1" opacity="1"/></g><g class="mark-text role-axis-title" pointer-events="none"><text text-anchor="middle" transform="translate(100,30)" font-family="Liberation Mono" font-size="11px" font-weight="bold" fill="#000" opacity="1">Time</text></g></g><path class="foreground" aria-hidden="true" d="" pointer-events="none" display="none"/></g></g><g class="mark-group role-axis" role="graphics-symbol" aria-roledescription="axis" aria-label="Y-axis titled 'Price' for a linear scale with values from 0 to 2,600"><g transform="translate(0.5,0.5)"><path class="background" aria-hidden="true" d="M0,0h0v0h0Z" pointer-events="none"/><g><g class="mark-rule role-axis-tick" pointer-events="none"><line transform="translate(0,200)" x2="-5" y2="0" stroke="#888" stroke-width="1" opacity="1"/><line transform="translate(0,162)" x2="-5" y2="0" stroke="#888" stroke-width="1" opacity="1"/><line transform="translate(0,123)" x2="-5" y2="0" stroke="#888" stroke-width="1" opacity="1"/><line transform="translate(0,85)" x2="-5" y2="0" stroke="#888" stroke-width="1" opacity="1"/><line transform="translate(0,46)" x2="-5" y2="0" stroke="#888" stroke-width="1" opacity="1"/><line transform="translate(0,8)" x2="-5" y2="0" stroke="#888" stroke-width="1" opacity="1"/></g><g class="mark-text role-axis-label" pointer-events="none"><text text-anchor="end" transform="translate(-7,203)" font-family="Liberation Mono" font-size="10px" fill="#000" opacity="1">0</text><text text-anchor="end" transform="translate(-7,164.53846153846155)" font-family="Liberation Mono" font-size="10px" fill="#000" opacity="1">500</text><text text-anchor="end" transform="translate(-7,126.07692307692308)" font-family="Liberation Mono" font-size="10px" fill="#000" opacity="1">1,000</text><text text-anchor="end" transform="translate(-7,87.61538461538463)" font-family="Liberation Mono" font-size="10px" fill="#000" opacity="1">1,500</text><text text-anchor="end" transform="translate(-7,49.153846153846146)" font-family="Liberation Mono" font-size="10px" fill="#000" opacity="1">2,000</text><text text-anchor="end" transform="translate(-7,10.692307692307686)" font-family="Liberation Mono" font-size="10px" fill="#000" opacity="1">2,500</text></g><g class="mark-rule role-axis-domain" pointer-events="none"><line transform="translate(0,200)" x2="0" y2="-200" stroke="#888" stroke-width="1" opacity="1"/></g><g class="mark-text role-axis-title" pointer-events="none"><text text-anchor="middle" transform="translate(-51,100) rotate(-90) translate(0,-2)" font-family="Liberation Mono" font-size="11px" font-weight="bold" fill="#000" opacity="1">Price</text></g></g><path class="foreground" aria-hidden="true" d="" pointer-events="none" display="none"/></g></g><g class="mark-group role-scope pathgroup" role="graphics-object" aria-roledescription="group mark container"><g transform="translate(0,0)"><path class="background" aria-hidden="true" d="M0,0h200v200h-200Z"/><g><g class="mark-line role-mark marks" role="graphics-object" aria-roledescription="line mark container"><path aria-label="Time: Jan 01, 2024; Price: 2399; identifier: altex-LG-F2WR508SBW" role="graphics-symbol" aria-roledescription="line mark" d="M0,15.462L0.049,15.462L0.123,15.462L0.28,15.462L0.358,15.462L0.44,15.462L0.515,15.462L0.592,15.462L0.748,15.462L0.827,15.462L0.909,15.462L0.984,15.462L1.061,15.462L1.217,15.462L1.296,15.462L1.378,15.462L1.453,15.462L1.53,15.462L1.686,34.692L1.764,34.692L1.846,34.692L1.921,34.692L1.999,34.692L2.155,34.692L2.233,34.692L2.315,34.692L2.39,34.692L2.467,34.692L2.624,34.692L2.702,34.692L2.784,34.692L2.859,34.692L2.936,34.692L3.093,34.692L3.171,34.692L3.253,34.692L3.328,34.692L3.405,34.692L3.562,34.692L3.64,34.692L3.723,34.692L3.797,34.692L3.874,34.692L4.031,34.692L4.109,34.692L4.191,34.692L4.266,34.692L4.343,34.692L4.499,34.692L4.578,34.692L4.66,34.692L4.735,34.692L4.812,34.692L4.968,34.692L5.046,34.692L5.128,34.692L5.203,34.692L5.28,34.692L5.437,46.231L5.515,46.231L5.597,46.231L5.672,46.231L5.749,46.231L5.906,46.231L5.984,46.231L6.065,46.231L6.14,46.231L6.218,46.231L6.375,46.231L6.453,46.231L6.536,46.231L6.61,46.231L6.687,46.231L6.843,46.231L6.922,46.231L7.004,46.231L7.079,46.231L7.156,46.231L7.312,46.231L7.391,46.231L7.473,46.231L7.548,46.231L7.624,46.231L7.781,46.231L7.859,46.231L7.942,46.231L8.016,46.231L8.093,46.231L8.25,46.231L8.328,46.231L8.41,46.231L8.485,46.231L8.562,46.231L8.719,46.231L8.796,46.231L8.878,46.231L8.954,46.231L9.031,46.231L9.187,46.231L9.265,46.231L9.347,46.231L9.422,46.231L9.5,46.231L9.657,46.231L9.735,46.231L9.817,46.231L9.892,46.231L9.969,46.231L10.125,46.231L10.204,46.231L10.286,46.231L10.361,46.231L10.437,46.231L10.594,46.231L10.673,46.231L10.755,46.231L10.83,46.231L10.906,46.231L11.063,46.231L11.141,46.231L11.224,46.231L11.299,46.231L11.375,46.231L11.532,46.231L11.61,46.231L11.691,46.231L11.766,46.231L11.844,46.231L12,46.231L12.078,46.231L12.159,46.231L12.234,46.231L12.313,46.231L12.469,46.231L12.547,46.231L12.628,46.231L12.703,46.231L12.782,46.231L12.938,46.231L13.016,46.231L13.097,46.231L13.172,46.231L13.25,46.231L13.406,46.231L13.485,46.231L13.566,46.231L13.642,46.231L13.719,46.231L13.875,46.231L13.954,46.231L14.035,46.231L14.11,46.231L14.188,46.231L14.344,34.692L14.422,34.692L14.504,34.692L14.579,34.692L14.657,34.692L14.813,34.692L14.891,34.692L14.972,34.692L15.047,34.692L15.126,34.692L15.282,34.692L15.36,34.692L15.441,34.692L15.516,34.692L15.595,34.692L15.751,34.692L15.829,34.692L15.909,34.692L15.985,34.692L16.063,34.692L16.219,34.692L16.298,34.692L16.379,34.692L16.454,34.692L16.532,34.692L16.688,34.692L16.766,34.692L16.848,34.692L16.923,34.692L17.001,34.692L17.157,34.692L17.235,34.692L17.317,34.692L17.392,34.692L17.47,34.692L17.626,34.692L17.704,34.692L17.785,34.692L17.861,34.692L17.938,34.692L18.095,34.692L18.173,34.692L18.254,34.692L18.329,34.692L18.408,34.692L18.564,34.692L18.642,34.692L18.723,34.692L18.798,34.692L18.876,34.692L19.033,34.692L19.111,34.692L19.191,34.692L19.267,34.692L19.345,34.692L19.501,34.692L19.579,34.692L19.661,34.692L19.736,34.692L19.814,34.692L19.97,34.692L20.048,34.692L20.129,34.692L20.206,34.692L20.283,34.692L20.439,34.692L20.517,34.692L20.598,34.692L20.674,34.692L20.751,34.692L20.986,34.692L21.067,34.692L21.142,34.692L21.22,34.692L21.377,34.692L21.455,34.692L21.536,34.692L21.611,34.692L21.689,34.692L21.846,34.692L21.923,34.692L22.004,34.692L22.08,34.692L22.158,34.692L22.314,34.692L22.393,34.692L22.473,34.692L22.549,34.692L22.627,34.692L22.783,34.692L22.861,34.692L22.943,34.692L23.018,34.692L23.096,34.692L23.252,34.692L23.33,34.692L23.411,34.692L23.487,34.692L23.565,34.692L23.721,34.692L23.799,34.692L23.88,34.692L23.955,34.692L24.033,34.692L24.19,34.692L24.268,34.692L24.349,34.692L24.424,34.692L24.502,34.692L24.658,34.692L24.736,34.692L24.817,34.692L24.893,34.692L24.971,34.692L25.127,34.692L25.205,34.692L25.286,34.692L25.362,34.692L25.44,34.692L25.596,34.692L25.674,34.692L25.755,34.692L25.831,34.692L25.908,34.692L26.065,34.692L26.143,34.692L26.224,34.692L26.299,34.692L26.377,34.692L26.534,34.692L26.612,34.692L26.693,34.692L26.768,34.692L26.846,34.692L27.002,34.692L27.081,34.692L27.162,34.692L27.237,34.692L27.315,34.692L27.471,34.692L27.549,34.692L27.63,34.692L27.706,34.692L27.784,34.692L27.94,34.692L28.018,34.692L28.099,34.692L28.175,34.692L28.253,34.692L28.409,34.692L28.487,34.692L28.568,34.692L28.643,34.692L28.721,34.692L28.878,34.692L28.956,34.692L29.036,34.692L29.112,34.692L29.19,34.692L29.354,34.692L29.46,34.692L29.507,34.692L29.581,34.692L29.659,34.692L29.815,34.692L29.893,34.692L29.975,34.692L30.05,34.692L30.128,34.692L30.284,34.692L30.363,34.692L30.444,34.692L30.519,34.692L30.597,34.692L30.753,34.692L30.831,34.692L30.912,34.692L30.987,34.692L31.066,34.692L31.222,34.692L31.301,34.692L31.381,34.692L31.456,34.692L31.534,34.692L31.691,34.692L31.769,34.692L31.849,34.692L31.925,34.692L32.003,34.692L32.159,34.692L32.238,34.692L32.318,34.692L32.394,34.692L32.472,34.692L32.629,34.692L32.706,34.692L32.788,34.692L32.863,34.692L32.941,34.692L33.097,34.692L33.175,34.692L33.257,34.692L33.332,34.692L33.41,34.692L33.566,34.692L33.645,34.692L33.726,34.692L33.8,34.692L33.878,34.692L34.035,34.692L34.113,34.692L34.195,34.692L34.269,34.692L34.347,34.692L34.504,34.692L34.582,34.692L34.663,34.692L34.738,34.692L34.816,34.692L34.972,34.692L35.051,34.692L35.132,34.692L35.207,34.692L35.285,34.692L35.441,34.692L35.52,34.692L35.6,34.692L35.676,34.692L35.754,34.692L35.91,34.692L35.988,34.692L36.07,34.692L36.145,34.692L36.223,34.692L36.379,34.692L36.457,34.692L36.538,34.692L36.614,34.692L36.691,34.692L36.848,34.692L36.926,34.692L37.007,34.692L37.083,34.692L37.161,34.692L37.317,34.692L37.395,34.692L37.476,34.692L37.552,34.692L37.629,34.692L37.785,34.692L37.863,34.692L37.945,34.692L38.02,34.692L38.098,34.692L38.254,34.692L38.332,34.692L38.413,34.692L38.489,34.692L38.567,34.692L38.723,34.692L38.801,34.692L38.883,34.692L38.957,34.692L39.035,34.692L39.192,34.692L39.27,34.692L39.351,34.692L39.427,34.692L39.504,34.692L39.661,34.692L39.739,34.692L39.82,34.692L39.896,34.692L39.973,34.692L40.13,34.692L40.208,34.692L40.289,34.692L40.365,34.692L40.442,34.692L40.598,34.692L40.676,34.692L40.758,34.692L40.833,34.692L40.911,34.692L41.067,34.692L41.145,34.692L41.227,34.692L41.302,34.692L41.38,34.692L41.536,34.692L41.614,34.692L41.695,34.692L41.771,34.692L41.849,34.692L42.005,34.692L42.083,34.692L42.164,34.692L42.24,34.692L42.317,34.692L42.473,34.692L42.552,34.692L42.634,34.692L42.709,34.692L42.786,34.692L42.943,34.692L43.021,34.692L43.102,34.692L43.178,34.692L43.255,34.692L43.411,34.692L43.489,34.692L43.571,34.692L43.646,34.692L43.724,34.692L43.88,34.692L43.958,34.692L44.04,34.692L44.115,34.692L44.193,34.692L44.35,34.692L44.508,34.692L44.584,34.692L44.662,34.692L44.818,34.692L44.896,34.692L44.977,34.692L45.052,34.692L45.13,34.692L45.286,34.692L45.365,34.692L45.446,34.692L45.521,34.692L45.599,34.692L45.756,34.692L45.833,34.692L45.915,34.692L45.99,34.692L46.068,34.692L46.224,34.692L46.302,34.692L46.384,34.692L46.459,34.692L46.537,34.692L46.693,34.692L46.772,34.692L46.853,34.692L46.929,34.692L47.006,34.692L47.162,34.692L47.241,34.692L47.322,34.692L47.475,34.692L47.631,34.692L47.709,34.692L47.79,34.692L47.865,34.692L47.943,34.692L48.099,34.692L48.177,34.692L48.257,34.692L48.334,34.692L48.412,34.692L48.575,34.692L48.696,34.692L48.769,34.692L48.921,34.692L49.038,34.692L49.115,34.692L49.196,34.692L49.271,34.692L49.35,34.692L49.506,34.692L49.584,34.692L49.666,34.692L49.74,34.692L49.818,34.692L49.975,34.692L50.053,34.692L50.135,34.692L50.21,34.692L50.287,34.692L50.522,34.692L50.603,34.692L50.678,34.692L50.756,34.692L50.912,34.692L50.991,34.692L51.072,34.692L51.148,34.692L51.225,34.692L51.381,34.692L51.459,34.692L51.54,34.692L51.616,34.692L51.694,34.692L51.85,34.692L51.928,34.692L52.009,34.692L52.085,34.692L52.163,34.692L52.319,34.692L52.397,34.692L52.479,34.692L52.554,34.692L52.631,34.692L52.788,34.692L52.866,34.692L52.948,34.692L53.023,34.692L53.1,34.692L53.256,34.692L53.335,34.692L53.419,34.692L53.491,34.692L53.569,34.692L53.725,34.692L53.804,34.692L53.883,34.692L53.96,34.692L54.038,34.692L54.194,34.692L54.273,34.692L54.354,34.692L54.429,34.692L54.507,34.692L54.663,34.692L54.741,34.692L54.822,34.692L54.897,34.692L54.975,34.692L55.132,34.692L55.21,34.692L55.291,34.692L55.366,34.692L55.444,34.692L55.601,34.692L55.68,34.692L55.761,34.692L55.835,34.692L55.913,34.692L56.069,34.692L56.148,34.692L56.23,34.692L56.305,34.692L56.382,34.692L56.538,34.692L56.618,34.692L56.699,34.692L56.773,34.692L56.851,34.692L57.007,57.769L57.085,57.769L57.168,57.769L57.242,57.769L57.32,57.769L57.476,57.769L57.554,57.769L57.636,57.769L57.711,57.769L57.788,57.769L57.945,57.769L58.023,57.769L58.104,57.769L58.179,57.769L58.257,57.769L58.414,57.769L58.492,57.769L58.573,57.769L58.648,57.769L58.726,57.769L58.882,57.769L58.961,57.769L59.043,57.769L59.118,57.769L59.195,57.769L59.351,57.769L59.43,57.769L59.511,57.769L59.586,57.769L59.664,57.769L59.82,57.769L59.898,57.769L59.981,57.769L60.056,57.769L60.132,57.769L60.289,34.692L60.368,34.692L60.449,34.692L60.525,34.692L60.602,34.692L60.758,34.692L60.836,34.692L60.918,34.692L60.993,34.692L61.07,34.692L61.227,34.692L61.305,34.692L61.386,34.692L61.461,34.692L61.539,34.692L61.696,34.692L61.773,34.692L61.855,34.692L61.93,34.692L62.008,34.692L62.164,34.692L62.243,34.692L62.325,34.692L62.399,34.692L62.477,34.692L62.633,34.692L62.712,34.692L62.794,34.692L62.869,34.692L62.945,34.692L63.102,34.692L63.18,34.692L63.263,34.692L63.337,34.692L63.414,34.692L63.571,34.692L63.649,34.692L63.732,34.692L63.806,34.692L63.883,34.692L64.04,34.692L64.118,34.692L64.2,34.692L64.275,34.692L64.352,34.692L64.508,34.692L64.587,34.692L64.668,34.692L64.743,34.692L64.821,34.692L64.978,34.692L65.055,34.692L65.137,34.692L65.212,34.692L65.29,34.692L65.447,34.692L65.524,34.692L65.607,34.692L65.681,34.692L65.759,34.692L65.915,34.692L65.993,34.692L66.076,34.692L66.15,34.692L66.227,34.692L66.384,34.692L66.462,34.692L66.545,34.692L66.619,34.692L66.696,34.692L66.852,34.692L66.931,34.692L67.013,34.692L67.088,34.692L67.165,34.692L67.322,34.692L67.4,34.692L67.482,34.692L67.556,34.692L67.634,34.692L67.79,34.692L67.868,34.692L67.95,34.692L68.025,34.692L68.103,34.692L68.259,34.692L68.337,34.692L68.419,34.692L68.494,34.692L68.572,34.692L68.728,34.692L68.806,34.692L68.889,34.692L68.963,34.692L69.04,34.692L69.198,34.692L69.275,34.692L69.357,34.692L69.432,34.692L69.509,34.692L69.666,34.692L69.744,34.692L69.826,34.692L69.901,34.692L69.978,34.692L70.135,34.692L70.213,34.692L70.295,34.692L70.369,34.692L70.447,34.692L70.604,34.692L70.682,34.692L70.764,34.692L70.838,34.692L70.916,34.692L71.072,34.692L71.15,34.692L71.232,34.692L71.307,34.692L71.384,34.692L71.541,34.692L71.619,34.692L71.701,34.692L71.775,34.692L71.853,34.692L72.01,34.692L72.088,34.692L72.171,34.692L72.245,34.692L72.322,34.692L72.478,34.692L72.557,34.692L72.639,34.692L72.714,34.692L72.791,34.692L72.948,34.692L73.026,34.692L73.108,34.692L73.183,34.692L73.26,34.692L73.416,34.692L73.495,34.692L73.577,34.692L73.651,34.692L73.728,34.692L73.885,34.692L73.964,34.692L74.046,34.692L74.121,34.692L74.197,34.692L74.354,34.692L74.432,34.692L74.514,34.692L74.589,34.692L74.666,34.692L74.823,34.692L74.9,34.692L74.983,34.692L75.057,34.692L75.135,34.692L75.292,34.692L75.37,34.692L75.453,34.692L75.527,34.692L75.604,34.692L75.761,34.692L75.839,34.692L75.921,34.692L75.996,34.692L76.073,34.692L76.229,34.692L76.308,46.231L76.39,46.231L76.464,46.231L76.541,46.231L76.698,46.231L76.776,46.231L76.859,46.231L76.934,46.231L77.011,46.231L77.167,46.231L77.245,46.231L77.328,48.538L77.402,48.538L77.479,48.538L77.636,48.538L77.714,48.538L77.796,48.538L77.87,48.538L77.948,48.538L78.104,48.538L78.183,48.538L78.265,48.538L78.339,48.538L78.417,48.538L78.574,48.538L78.652,48.538L78.735,48.538L78.808,48.538L78.886,48.538L79.042,48.538L79.121,48.538L79.203,48.538L79.277,48.538L79.354,48.538L79.511,48.538L79.589,48.538L79.672,48.538L79.746,48.538L79.823,48.538L79.98,48.538L80.058,48.538L80.14,48.538L80.216,48.538L80.292,48.538L80.449,48.538L80.527,48.538L80.609,48.538L80.683,48.538L80.761,48.538L80.917,48.538L80.995,48.538L81.078,48.538L81.152,48.538L81.23,48.538L81.386,48.538L81.464,48.538L81.546,48.538L81.621,48.538L81.698,48.538L81.855,48.538L81.934,48.538L82.016,48.538L82.09,48.538L82.167,48.538L82.324,48.538L82.402,48.538L82.485,48.538L82.636,48.538L82.793,48.538L82.871,48.538L82.954,48.538L83.028,48.538L83.105,48.538L83.262,48.538L83.34,48.538L83.423,48.538L83.497,48.538L83.574,48.538L83.73,48.538L83.809,48.538L83.891,48.538L83.965,48.538L84.043,48.538L84.199,48.538L84.277,48.538L84.359,48.538L84.434,48.538L84.512,48.538L84.668,48.538L84.746,48.538L84.828,48.538L84.903,48.538L84.98,48.538L85.137,48.538L85.216,48.538L85.298,48.538L85.373,48.538L85.449,48.538L85.606,48.538L85.684,48.538L85.766,48.538L85.841,48.538L85.918,48.538L86.075,48.538L86.153,48.538L86.235,48.538L86.31,48.538L86.387,48.538L86.544,48.538L86.622,48.538L86.704,48.538L86.778,48.538L86.856,48.538L87.013,48.538L87.09,48.538L87.173,48.538L87.247,48.538L87.324,48.538L87.481,48.538L87.559,48.538L87.641,48.538L87.716,48.538L87.793,48.538L87.949,48.538L88.028,48.538L88.11,48.538L88.184,48.538L88.262,48.538L88.419,48.538L88.497,48.538L88.579,48.538L88.654,48.538L88.731,48.538L88.887,48.538L88.966,48.538L89.049,48.538L89.123,48.538L89.2,48.538L89.357,48.538L89.435,48.538L89.518,48.538L89.591,48.538L89.669,48.538L89.825,48.538L89.903,48.538L89.986,48.538L90.06,48.538L90.137,48.538L90.294,48.538L90.372,48.538L90.455,48.538L90.529,48.538L90.606,48.538L90.763,48.538L90.841,48.538L90.923,48.538L90.997,48.538L91.075,48.538L91.232,48.538L91.31,48.538L91.397,48.538L91.47,48.538L91.544,48.538L91.701,48.538L91.779,48.538L91.862,48.538L91.936,48.538L92.013,48.538L92.17,48.538L92.248,48.538L92.329,48.538L92.405,48.538L92.481,48.538L92.638,48.538L92.717,48.538L92.799,48.538L92.874,48.538L92.95,48.538L93.107,48.538L93.185,48.538L93.268,48.538L93.342,48.538L93.419,48.538L93.576,48.538L93.654,48.538L93.737,48.538L93.811,48.538L93.888,48.538L94.045,48.538L94.122,48.538L94.205,48.538L94.279,48.538L94.357,48.538L94.513,48.538L94.591,48.538L94.674,48.538L94.749,48.538L94.825,48.538L94.982,48.538L95.061,48.538L95.144,48.538L95.218,48.538L95.294,48.538L95.451,48.538L95.53,48.538L95.612,48.538L95.686,48.538L95.763,48.538L95.92,27L95.998,27L96.081,27L96.155,27L96.232,27L96.389,27L96.467,27L96.55,27L96.624,27L96.701,27L96.858,27L96.936,27L97.018,27L97.093,27L97.17,27L97.326,27L97.404,27L97.487,27L97.561,27L97.639,27L97.795,27L97.873,27L97.955,27L98.03,27L98.107,27L98.264,27L98.343,27L98.425,27L98.499,27L98.576,27L98.733,27L98.811,27L98.894,27L98.968,27L99.045,27L99.201,27L99.279,27L99.363,27L99.437,27L99.514,27L99.671,27L99.749,27L99.832,27L99.906,27L99.983,27L100.14,27L100.218,27L100.3,27L100.375,27L100.451,27L100.608,27L100.686,27L100.768,27L100.843,27L100.92,27L101.078,27L101.155,27L101.237,27L101.311,27L101.39,27L101.546,27L101.624,27L101.707,27L101.781,27L101.858,27L102.015,27L102.093,27L102.176,27L102.25,27L102.327,27L102.484,27L102.562,27L102.645,27L102.719,27L102.796,27L102.953,27L103.031,27L103.114,27L103.188,27L103.265,27L103.421,27L103.5,27L103.582,27L103.656,27L103.733,27L103.891,27L103.968,27L104.05,27L104.126,27L104.202,27L104.359,27L104.437,27L104.519,27L104.594,27L104.671,27L104.828,27L104.906,27L104.99,27L105.063,27L105.14,27L105.296,27L105.375,27L105.458,27L105.532,27L105.609,27L105.765,27L105.844,27L105.927,27L106.001,27L106.077,27L106.234,27L106.313,27L106.395,27L106.469,27L106.546,27L106.703,27L106.781,27L106.864,27L106.938,27L107.015,27L107.172,27L107.25,27L107.332,27L107.407,27L107.485,27L107.641,27L107.719,27L107.801,27L107.875,27L107.952,27L108.109,27L108.188,27L108.271,27L108.344,27L108.422,27L108.579,27L108.657,27L108.74,27L108.813,27L108.89,27L109.047,27L109.126,27L109.207,27L109.283,27L109.359,27L109.516,27L109.594,27L109.677,27L109.752,27L109.828,27L109.985,27L110.063,27L110.146,27L110.22,27L110.297,27L110.454,27L110.531,27L110.614,27L110.688,27L110.766,27L110.923,27L111.001,27L111.083,27L111.157,27L111.235,27L111.392,27L111.47,27L111.553,27L111.627,27L111.703,27L111.861,27L111.939,27L112.022,27L112.095,27L112.172,27L112.329,27L112.408,27L112.491,27L112.565,27L112.641,27L112.798,27L112.876,27L112.96,27L113.033,27L113.11,27L113.267,27L113.345,27L113.428,27L113.502,27L113.579,27L113.736,27L113.814,27L113.896,27L113.971,27L114.048,27L114.205,27L114.283,27L114.366,27L114.439,27L114.516,27L114.674,27L114.752,27L114.835,27L114.909,27L114.985,27L115.142,27L115.221,27L115.304,27L115.378,27L115.454,27L115.611,27L115.69,27L115.773,27L115.846,27L115.923,27L116.08,27L116.158,27L116.242,27L116.315,27L116.392,27L116.549,27L116.627,27L116.71,27L116.785,27L116.86,27L117.017,27L117.095,27L117.178,27L117.252,27L117.329,27L117.486,27L117.564,27L117.647,27L117.721,27L117.798,27L117.955,27L118.034,27L118.117,27L118.19,27L118.267,27L118.424,27L118.503,27L118.586,27L118.659,27L118.736,27L118.894,27L118.972,27L119.055,27L119.128,27L119.204,27L119.362,27L119.441,27L119.523,27L119.597,27L119.674,27L119.831,27L119.909,27L119.992,27L120.065,27L120.142,27L120.299,46.231L120.378,46.231L120.46,46.231L120.534,46.231L120.611,46.231L120.768,46.231L120.846,46.231L120.929,46.231L121.003,46.231L121.08,46.231L121.238,46.231L121.316,46.231L121.399,46.231L121.473,46.231L121.549,46.231L121.705,46.231L121.785,46.231L121.868,46.231L121.941,46.231L122.018,46.231L122.175,46.231L122.253,46.231L122.336,46.231L122.41,46.231L122.487,46.231L122.644,53.923L122.722,53.923L122.805,53.923L122.879,53.923L122.955,53.923L123.113,53.923L123.191,53.923L123.274,53.923L123.348,53.923L123.424,53.923L123.581,53.923L123.659,53.923L123.742,53.923L123.816,53.923L123.893,53.923L124.051,53.923L124.128,53.923L124.211,53.923L124.285,53.923L124.362,53.923L124.519,53.923L124.598,53.923L124.681,53.923L124.754,53.923L124.831,53.923L124.988,53.923L125.067,53.923L125.15,53.923L125.223,53.923L125.3,53.923L125.457,53.923L125.536,53.923L125.619,53.923L125.693,53.923L125.769,53.923L125.926,23.154L126.004,23.154L126.088,23.154L126.161,23.154L126.237,23.154L126.394,23.154L126.473,23.154L126.556,23.154L126.63,23.154L126.863,23.154L126.941,23.154L127.024,23.154L127.098,23.154L127.175,23.154L127.332,23.154L127.41,23.154L127.493,23.154L127.567,23.154L127.643,23.154L127.801,23.154L127.88,23.154L127.963,23.154L128.037,23.154L128.113,23.154L128.27,23.154L128.349,23.154L128.432,23.154L128.505,23.154L128.582,23.154L128.739,23.154L128.817,23.154L128.901,23.154L128.974,23.154L129.051,23.154L129.208,23.154L129.286,23.154L129.369,23.154L129.443,23.154L129.519,23.154L129.676,23.154L129.755,23.154L129.838,23.154L129.911,23.154L129.988,23.154L130.145,23.154L130.223,23.154L130.306,23.154L130.379,23.154L130.456,23.154L130.614,23.154L130.692,23.154L130.775,23.154L130.848,23.154L130.925,23.154L131.083,23.154L131.162,23.154L131.245,23.154L131.318,23.154L131.395,23.154L131.551,23.154L131.63,23.154L131.713,23.154L131.787,23.154L131.863,23.154L132.02,23.154L132.099,23.154L132.182,23.154L132.255,23.154L132.332,23.154L132.489,23.154L132.568,23.154L132.651,23.154L132.724,23.154L132.801,23.154L132.958,23.154L133.036,23.154L133.12,23.154L133.193,23.154L133.27,23.154L133.427,23.154L133.505,23.154L133.587,23.154L133.662,23.154L133.738,23.154L133.896,23.154L133.974,23.154L134.057,23.154L134.13,23.154L134.207,23.154L134.365,23.154L134.443,23.154L134.527,23.154L134.6,23.154L134.676,23.154L134.833,23.154L134.912,23.154L134.995,23.154L135.069,23.154L135.145,23.154L135.302,23.154L135.381,23.154L135.464,23.154L135.537,23.154L135.614,23.154L135.771,23.154L135.85,23.154L135.933,23.154L136.007,23.154L136.083,23.154L136.24,23.154L136.318,23.154L136.402,23.154L136.475,23.154L136.551,23.154L136.708,23.154L136.787,23.154L136.869,23.154L136.943,23.154L137.021,23.154L137.177,23.154L137.256,23.154L137.339,23.154L137.412,23.154L137.489,23.154L137.646,23.154L137.725,23.154L137.808,23.154L137.882,23.154L137.958,23.154L138.115,23.154L138.194,23.154L138.277,23.154L138.351,23.154L138.427,23.154L138.584,23.154L138.663,23.154L138.746,23.154L138.82,23.154L138.896,23.154L139.053,23.154L139.131,23.154L139.215,23.154L139.288,23.154L139.364,23.154L139.522,23.154L139.6,23.154L139.683,23.154L139.757,23.154L139.833,23.154L139.99,23.154L140.068,23.154L140.151,23.154L140.225,23.154L140.302,23.154L140.459,23.154L140.538,23.154L140.62,23.154L140.694,23.154L140.771,23.154L140.928,23.154L141.007,23.154L141.09,23.154L141.164,23.154L141.24,23.154L141.397,23.154L141.476,23.154L141.559,23.154L141.632,23.154L141.709,23.154L141.866,23.154L141.945,23.154L142.028,23.154L142.102,23.154L142.177,23.154L142.496,23.154L142.57,23.154L142.646,23.154L142.803,23.154L142.881,23.154L142.965,23.154L143.038,23.154L143.115,23.154L143.272,23.154L143.35,23.154L143.433,23.154L143.507,23.154L143.583,23.154L143.741,23.154L143.818,23.154L143.902,23.154L143.975,23.154L144.052,23.154L144.21,23.154L144.288,23.154L144.372,23.154L144.445,23.154L144.521,23.154L144.678,23.154L144.757,23.154L144.84,23.154L144.913,23.154L144.99,23.154L145.148,23.154L145.226,23.154L145.309,23.154L145.382,23.154L145.459,23.154L145.616,58.538L145.695,58.538L145.777,58.538L145.851,58.538L145.928,58.538L146.085,58.538L146.163,58.538L146.246,58.538L146.32,58.538L146.396,58.538L146.553,58.538L146.631,58.538L146.714,58.538L146.788,58.538L146.865,58.538L147.022,58.538L147.1,58.538L147.183,58.538L147.257,58.538L147.334,58.538L147.491,58.538L147.57,58.538L147.653,58.538L147.727,58.538L147.803,58.538L147.96,58.538L148.039,58.538L148.122,58.538L148.195,58.538L148.272,58.538L148.429,58.538L148.508,58.538L148.591,58.538L148.664,58.538L148.741,58.538L148.898,23.154L148.977,23.154L149.06,23.154L149.133,23.154L149.21,23.154L149.368,23.154L149.445,23.154L149.529,23.154L149.602,23.154L149.679,23.154L149.836,23.154L149.914,23.154L149.997,23.154L150.071,23.154L150.147,23.154L150.304,23.154L150.382,23.154L150.466,23.154L150.539,23.154L150.616,23.154L150.774,23.154L150.853,23.154L150.936,23.154L151.009,23.154L151.086,23.154L151.242,23.154L151.321,23.154L151.405,23.154L151.478,23.154L151.554,23.154L151.711,23.154L151.79,23.154L151.874,23.154L151.947,23.154L152.023,23.154L152.18,23.154L152.259,23.154L152.342,23.154L152.416,23.154L152.492,23.154L152.649,23.154L152.728,23.154L152.811,23.154L152.884,23.154L152.961,23.154L153.117,23.154L153.196,23.154L153.279,23.154L153.353,23.154L153.429,23.154L153.586,23.154L153.664,23.154L153.748,23.154L153.821,23.154L153.898,23.154L154.056,23.154L154.135,23.154L154.218,23.154L154.291,23.154L154.367,23.154L154.524,23.154L154.603,23.154L154.687,23.154L154.76,23.154L154.836,23.154L154.994,23.154L155.072,23.154L155.156,23.154L155.229,23.154L155.305,23.154L155.462,23.154L155.541,23.154L155.625,23.154L155.697,23.154L155.774,23.154L155.931,23.154L156.01,23.154L156.093,23.154L156.166,23.154L156.242,23.154L156.399,23.154L156.477,23.154L156.561,23.154L156.634,23.154L156.711,23.154L156.869,23.154L156.946,23.154L157.03,23.154L157.103,23.154L157.18,23.154L157.338,23.154L157.416,23.154L157.5,23.154L157.573,23.154L157.649,23.154L157.806,23.154L157.885,23.154L157.969,23.154L158.042,23.154L158.118,23.154L158.275,23.154L158.354,23.154L158.438,23.154L158.511,23.154L158.587,23.154L158.744,23.154L158.823,23.154L158.907,23.154L158.979,23.154L159.056,23.154L159.213,23.154L159.291,23.154L159.375,23.154L159.448,23.154L159.524,23.154L159.681,23.154L159.759,23.154L159.843,23.154L159.916,23.154L159.993,23.154L160.15,23.154L160.228,23.154L160.312,23.154L160.384,23.154L160.462,23.154L160.619,23.154L160.698,23.154L160.782,23.154L160.855,23.154L160.931,23.154L161.088,23.154L161.167,23.154L161.251,23.154L161.324,23.154L161.4,23.154L161.557,23.154L161.636,23.154L161.72,23.154L161.793,23.154L161.868,23.154L162.026,23.154L162.105,23.154L162.188,23.154L162.261,23.154L162.337,23.154L162.494,23.154L162.573,23.154L162.657,23.154L162.73,23.154L162.806,23.154L162.963,23.154L163.041,23.154L163.124,23.154L163.197,23.154L163.274,23.154L163.432,23.154L163.51,23.154L163.593,23.154L163.666,23.154L163.743,23.154L163.901,23.154L163.98,23.154L164.064,23.154L164.137,23.154L164.213,23.154L164.37,23.154L164.449,23.154L164.532,23.154L164.605,23.154L164.681,23.154L164.838,23.154L164.917,23.154L165,23.154L165.074,23.154L165.15,23.154L165.307,23.154L165.386,23.154L165.469,23.154L165.542,23.154L165.618,23.154L165.775,23.154L165.854,23.154L165.937,23.154L166.01,23.154L166.087,23.154L166.244,23.154L166.322,23.154L166.405,23.154L166.478,23.154L166.555,23.154L166.713,23.154L166.791,23.154L166.873,23.154L166.947,23.154L167.024,23.154L167.182,23.154L167.26,23.154L167.344,23.154L167.417,23.154L167.493,23.154L167.651,23.154L167.729,23.154L167.812,23.154L167.885,23.154L167.962,23.154L168.119,23.154L168.198,23.154L168.281,23.154L168.354,23.154L168.431,23.154L168.588,23.154L168.667,23.154L168.75,23.154L168.823,23.154L168.9,23.154L169.057,23.154L169.135,23.154L169.218,23.154L169.292,23.154L169.369,23.154L169.526,23.154L169.604,23.154L169.687,23.154L169.76,23.154L169.837,23.154L169.995,23.154L170.073,23.154L170.155,23.154L170.229,23.154L170.306,23.154L170.463,23.154L170.542,23.154L170.625,23.154L170.698,23.154L170.775,23.154L170.932,23.154L171.011,23.154L171.094,23.154L171.167,23.154L171.244,23.154L171.401,23.154L171.48,23.154L171.562,23.154L171.636,23.154L171.713,23.154L171.87,23.154L171.948,23.154L172.032,23.154L172.105,23.154L172.182,23.154L172.339,23.154L172.417,23.154L172.5,23.154L172.574,23.154L172.65,23.154L172.807,23.154L172.886,23.154L172.969,23.154L173.042,23.154L173.119,23.154L173.276,23.154L173.354,23.154L173.437,23.154L173.511,23.154L173.588,23.154L173.745,23.154L173.824,23.154L173.908,23.154L173.981,23.154L174.057,23.154L174.214,23.154L174.293,23.154L174.376,23.154L174.453,23.154L174.526,23.154L174.683,23.154L174.762,23.154L174.845,23.154L174.918,23.154L174.995,23.154L175.152,23.154L175.23,23.154L175.314,23.154L175.387,23.154L175.464,23.154L175.621,23.154L175.699,23.154L175.782,23.154L175.856,23.154L175.932,23.154L176.089,23.154L176.167,23.154L176.25,23.154L176.324,23.154L176.401,23.154L176.558,23.154L176.636,23.154L176.719,23.154L176.792,23.154L176.87,23.154L177.027,23.154L177.106,23.154L177.19,23.154L177.263,23.154L177.339,23.154L177.495,23.154L177.574,23.154L177.657,23.154L177.731,23.154L177.807,23.154L177.964,23.154L178.043,23.154L178.126,23.154L178.199,23.154L178.276,23.154L178.433,23.154L178.512,23.154L178.595,23.154L178.745,23.154L178.903,23.154L178.98,23.154L179.063,23.154L179.137,23.154L179.449,23.154L179.531,23.154L179.605,23.154L179.683,23.154L179.839,23.154L179.917,23.154L180,23.154L180.074,23.154L180.151,23.154L180.309,23.154L180.387,23.154L180.471,23.154L180.544,23.154L180.62,23.154L180.777,23.154L180.856,23.154L180.939,23.154L181.013,23.154L181.089,23.154L181.246,23.154L181.325,23.154L181.408,23.154L181.481,23.154L181.558,23.154L181.715,23.154L181.794,23.154L181.877,23.154L181.95,23.154L182.027,23.154L182.184,23.154L182.262,23.154L182.345,23.154L182.419,23.154L182.495,23.154L182.653,23.154L182.73,23.154L182.813,23.154L182.888,23.154L182.964,23.154L183.121,23.154L183.199,23.154L183.282,23.154L183.356,23.154L183.433,23.154L183.591,23.154L183.669,23.154L183.752,23.154L183.826,23.154L183.902,23.154L184.059,23.154L184.138,23.154L184.221,23.154L184.294,23.154L184.371,23.154L184.528,23.154L184.607,23.154L184.689,23.154L184.763,23.154L184.84,23.154L184.997,23.154L185.075,23.154L185.158,23.154L185.234,23.154L185.309,23.154L185.466,23.154L185.544,23.154L185.627,23.154L185.701,23.154L185.777,23.154L185.934,23.154L186.012,23.154L186.095,23.154L186.168,23.154L186.246,23.154L186.403,23.154L186.481,23.154L186.563,23.154L186.638,23.154L186.715,23.154L186.872,23.154L186.951,23.154L187.034,23.154L187.107,23.154L187.184,23.154L187.341,23.154L187.419,23.154L187.503,23.154L187.576,23.154L187.653,23.154L187.81,23.154L187.888,23.154L187.972,23.154L188.046,23.154L188.122,23.154L188.279,23.154L188.357,23.154L188.441,23.154L188.514,23.154L188.59,23.154L188.748,23.154L188.826,23.154L188.909,23.154L188.983,23.154L189.059,23.154L189.216,23.154L189.294,23.154L189.377,23.154L189.45,23.154L189.528,23.154L189.685,23.154L189.763,23.154L189.845,23.154L189.919,23.154L189.997,23.154L190.154,23.154L190.233,23.154L190.316,23.154L190.389,23.154L190.466,23.154L190.623,23.154L190.701,23.154L190.785,23.154L190.859,23.154L190.935,23.154L191.092,23.154L191.17,23.154L191.254,23.154L191.327,23.154L191.404,23.154L191.639,40.846L191.722,40.846L191.796,40.846L191.874,40.846L192.029,40.846L192.108,40.846L192.191,40.846L192.264,40.846L192.341,40.846L192.498,40.846L192.576,40.846L192.658,40.846L192.733,40.846L192.809,40.846L192.967,40.846L193.045,40.846L193.128,40.846L193.201,40.846L193.278,40.846L193.436,40.846L193.515,40.846L193.598,40.846L193.671,40.846L193.747,40.846L193.905,40.846L193.983,40.846L194.066,40.846L194.14,40.846L194.217,40.846L194.374,40.846L194.452,40.846L194.535,40.846L194.609,40.846L194.685,40.846L194.842,23.154L194.921,23.154L195.004,23.154L195.078,23.154L195.154,23.154L195.312,23.154L195.39,23.154L195.473,23.154L195.546,23.154L195.623,23.154L195.78,23.154L195.858,23.154L195.94,23.154L196.014,23.154L196.092,23.154L196.249,23.154L196.327,23.154L196.41,23.154L196.483,23.154L196.56,23.154L196.718,23.154L196.797,23.154L196.88,23.154L196.953,23.154L197.03,23.154L197.186,23.154L197.265,23.154L197.349,23.154L197.422,23.154L197.498,23.154L197.656,23.154L197.734,23.154L197.818,30.846L197.891,30.846L197.967,30.846L198.124,30.846L198.203,30.846L198.286,46.231L198.36,46.231L198.436,46.231L198.593,46.231L198.672,46.231L198.755,46.231L198.828,46.231L198.905,46.231L199.062,46.231L199.14,46.231L199.223,46.231L199.296,46.231L199.373,46.231L199.53,46.231L199.609,46.231L199.691,46.231L199.765,46.231L199.842,46.231L200,46.231" stroke="#4c78a8" stroke-width="2"/></g></g><path class="foreground" aria-hidden="true" d="" display="none"/></g><g transform="translate(0,0)"><path class="background" aria-hidden="true" d="M0,0h200v200h-200Z"/><g><g class="mark-line role-mark marks" role="graphics-object" aria-roledescription="line mark container"><path aria-label="Time: Jan 01, 2024; Price: 2499; identifier: altex-LG-F2WR508SBM" role="graphics-symbol" aria-roledescription="line mark" d="M0,7.769L0.049,7.769L0.123,7.769L0.28,7.769L0.358,7.769L0.44,7.769L0.515,7.769L0.592,7.769L0.748,7.769L0.827,7.769L0.909,7.769L0.984,7.769L1.061,7.769L1.217,7.769L1.296,7.769L1.378,7.769L1.453,7.769L1.53,7.769L1.686,27L1.764,27L1.846,27L1.922,27L1.999,27L2.155,27L2.233,27L2.315,27L2.39,27L2.467,27L2.624,27L2.702,27L2.784,27L2.859,27L2.936,27L3.093,27L3.171,27L3.253,27L3.328,27L3.405,27L3.562,27L3.64,27L3.723,27L3.797,27L3.874,27L4.031,27L4.109,27L4.191,27L4.266,27L4.343,27L4.499,27L4.578,27L4.66,27L4.735,27L4.812,27L4.968,27L5.046,27L5.128,27L5.203,27L5.28,27L5.437,38.538L5.515,38.538L5.597,38.538L5.672,38.538L5.749,38.538L5.906,38.538L5.984,38.538L6.065,38.538L6.14,38.538L6.218,38.538L6.375,38.538L6.453,38.538L6.536,38.538L6.61,38.538L6.687,38.538L6.843,38.538L6.922,38.538L7.004,38.538L7.079,38.538L7.156,38.538L7.312,38.538L7.391,38.538L7.473,38.538L7.548,38.538L7.624,38.538L7.781,38.538L7.859,38.538L7.942,38.538L8.016,38.538L8.093,38.538L8.25,38.538L8.328,38.538L8.411,38.538L8.485,38.538L8.562,38.538L8.719,38.538L8.796,38.538L8.878,38.538L8.954,38.538L9.031,38.538L9.187,38.538L9.265,38.538L9.347,38.538L9.422,38.538L9.5,38.538L9.657,38.538L9.735,38.538L9.818,38.538L9.892,38.538L9.969,38.538L10.125,38.538L10.204,38.538L10.286,38.538L10.361,38.538L10.437,38.538L10.594,38.538L10.673,38.538L10.755,38.538L10.83,38.538L10.906,38.538L11.063,38.538L11.141,38.538L11.224,38.538L11.299,38.538L11.375,38.538L11.532,38.538L11.61,38.538L11.691,38.538L11.766,38.538L11.844,38.538L12,38.538L12.078,38.538L12.159,38.538L12.235,38.538L12.313,38.538L12.469,38.538L12.547,38.538L12.628,38.538L12.703,38.538L12.782,38.538L12.938,38.538L13.016,38.538L13.097,38.538L13.172,38.538L13.25,38.538L13.406,38.538L13.485,38.538L13.566,38.538L13.642,38.538L13.719,38.538L13.875,38.538L13.954,38.538L14.035,38.538L14.11,38.538L14.188,38.538L14.344,27L14.422,27L14.504,27L14.579,27L14.657,27L14.813,27L14.891,27L14.972,27L15.047,27L15.126,27L15.282,27L15.36,27L15.441,27L15.516,27L15.595,27L15.751,27L15.829,27L15.909,27L15.985,27L16.063,27L16.22,27L16.298,27L16.379,27L16.454,27L16.532,27L16.688,27L16.766,27L16.848,27L16.923,27L17.001,27L17.157,27L17.235,27L17.317,27L17.392,27L17.47,27L17.626,27L17.704,27L17.785,27L17.861,27L17.939,27L18.095,27L18.173,27L18.254,27L18.329,27L18.408,27L18.564,27L18.642,27L18.723,27L18.798,27L18.876,27L19.033,27L19.111,27L19.191,27L19.267,27L19.345,27L19.501,27L19.579,27L19.661,27L19.736,27L19.814,27L19.97,27L20.048,27L20.129,27L20.206,27L20.283,27L20.439,27L20.517,27L20.598,27L20.674,27L20.751,27L20.986,27L21.067,27L21.142,27L21.22,27L21.377,27L21.455,27L21.536,27L21.611,27L21.689,27L21.846,27L21.923,27L22.004,27L22.08,27L22.158,27L22.314,27L22.393,27L22.473,27L22.549,27L22.627,27L22.783,27L22.861,27L22.943,27L23.018,27L23.096,27L23.252,27L23.33,27L23.411,27L23.487,27L23.565,27L23.721,27L23.799,27L23.88,27L23.955,27L24.033,27L24.19,27L24.268,27L24.349,27L24.424,27L24.502,27L24.658,27L24.736,27L24.817,27L24.893,27L24.971,27L25.127,27L25.205,27L25.286,27L25.362,27L25.44,27L25.596,27L25.674,27L25.755,27L25.831,27L25.908,27L26.065,27L26.143,27L26.224,27L26.299,27L26.377,27L26.534,27L26.612,27L26.693,27L26.768,27L26.846,27L27.002,27L27.081,27L27.162,27L27.237,27L27.315,27L27.471,27L27.549,27L27.63,27L27.706,27L27.784,27L27.94,27L28.019,27L28.1,27L28.175,27L28.253,27L28.409,27L28.487,27L28.568,27L28.643,27L28.721,27L28.878,27L28.956,27L29.036,27L29.112,27L29.19,27L29.354,27L29.46,27L29.507,27L29.581,27L29.659,27L29.815,27L29.893,27L29.975,27L30.05,27L30.128,27L30.284,27L30.363,27L30.444,27L30.519,27L30.597,27L30.753,27L30.831,27L30.912,38.538L30.987,38.538L31.066,38.538L31.222,38.538L31.301,38.538L31.381,38.538L31.456,38.538L31.534,38.538L31.691,38.538L31.769,38.538L31.849,38.538L31.925,38.538L32.003,38.538L32.159,38.538L32.238,38.538L32.318,38.538L32.394,38.538L32.472,38.538L32.629,38.538L32.706,38.538L32.788,38.538L32.863,38.538L32.941,38.538L33.097,38.538L33.175,38.538L33.257,38.538L33.332,38.538L33.41,38.538L33.566,38.538L33.645,38.538L33.726,38.538L33.8,38.538L33.878,38.538L34.035,38.538L34.113,38.538L34.195,38.538L34.269,38.538L34.347,38.538L34.504,38.538L34.582,38.538L34.663,38.538L34.738,38.538L34.816,38.538L34.972,38.538L35.051,38.538L35.132,38.538L35.207,38.538L35.285,38.538L35.441,38.538L35.52,38.538L35.6,38.538L35.676,38.538L35.754,38.538L35.91,38.538L35.988,38.538L36.07,38.538L36.145,38.538L36.223,38.538L36.379,38.538L36.457,38.538L36.538,38.538L36.614,38.538L36.691,38.538L36.848,38.538L36.926,38.538L37.007,38.538L37.083,38.538L37.161,38.538L37.317,38.538L37.395,38.538L37.476,38.538L37.552,38.538L37.629,38.538L37.785,38.538L37.864,38.538L37.945,38.538L38.02,38.538L38.098,38.538L38.254,38.538L38.332,38.538L38.413,38.538L38.489,38.538L38.567,38.538L38.723,38.538L38.801,38.538L38.883,38.538L38.957,38.538L39.036,38.538L39.192,38.538L39.27,38.538L39.351,38.538L39.427,38.538L39.504,38.538L39.661,38.538L39.739,38.538L39.82,38.538L39.896,38.538L39.973,38.538L40.13,38.538L40.208,38.538L40.289,38.538L40.365,38.538L40.442,38.538L40.598,38.538L40.676,38.538L40.758,38.538L40.833,38.538L40.911,38.538L41.067,38.538L41.145,38.538L41.227,38.538L41.302,38.538L41.38,38.538L41.536,38.538L41.614,38.538L41.695,38.538L41.771,38.538L41.849,38.538L42.005,38.538L42.083,38.538L42.164,38.538L42.24,38.538L42.317,38.538L42.473,38.538L42.552,38.538L42.634,38.538L42.709,38.538L42.786,38.538L42.943,38.538L43.021,38.538L43.102,38.538L43.178,38.538L43.255,38.538L43.411,38.538L43.489,38.538L43.571,38.538L43.646,38.538L43.724,38.538L43.88,38.538L43.958,38.538L44.04,38.538L44.115,38.538L44.193,38.538L44.35,38.538L44.508,38.538L44.584,38.538L44.662,38.538L44.818,38.538L44.896,38.538L44.977,38.538L45.052,38.538L45.13,38.538L45.286,38.538L45.365,38.538L45.446,38.538L45.521,38.538L45.599,38.538L45.756,38.538L45.833,38.538L45.915,38.538L45.99,38.538L46.068,38.538L46.224,38.538L46.302,38.538L46.384,38.538L46.459,38.538L46.537,38.538L46.693,38.538L46.772,38.538L46.853,38.538L46.929,38.538L47.006,38.538L47.162,38.538L47.241,38.538L47.322,38.538L47.475,38.538L47.631,38.538L47.709,38.538L47.79,38.538L47.865,38.538L47.943,38.538L48.099,38.538L48.177,38.538L48.257,38.538L48.334,38.538L48.412,38.538L48.575,38.538L48.696,38.538L48.769,38.538L48.921,38.538L49.038,38.538L49.115,38.538L49.196,38.538L49.271,38.538L49.35,38.538L49.506,38.538L49.584,38.538L49.666,38.538L49.74,38.538L49.818,38.538L49.975,38.538L50.053,38.538L50.135,38.538L50.21,38.538L50.287,38.538L50.522,38.538L50.603,38.538L50.678,38.538L50.756,38.538L50.912,38.538L50.991,38.538L51.072,38.538L51.148,38.538L51.225,38.538L51.381,38.538L51.459,38.538L51.54,38.538L51.616,38.538L51.694,38.538L51.85,38.538L51.928,38.538L52.009,38.538L52.085,38.538L52.163,38.538L52.319,38.538L52.397,38.538L52.479,38.538L52.554,38.538L52.631,38.538L52.788,38.538L52.866,38.538L52.948,38.538L53.023,38.538L53.101,38.538L53.256,38.538L53.335,38.538L53.419,38.538L53.491,38.538L53.569,38.538L53.725,38.538L53.804,38.538L53.883,38.538L53.96,38.538L54.038,38.538L54.194,38.538L54.273,38.538L54.354,38.538L54.429,38.538L54.507,38.538L54.663,38.538L54.741,38.538L54.822,38.538L54.897,38.538L54.975,38.538L55.132,38.538L55.21,38.538L55.291,38.538L55.366,38.538L55.444,38.538L55.601,38.538L55.68,38.538L55.761,38.538L55.835,38.538L55.913,38.538L56.069,38.538L56.148,38.538L56.23,38.538L56.305,38.538L56.382,38.538L56.538,38.538L56.618,38.538L56.699,38.538L56.773,38.538L56.851,38.538L57.007,38.538L57.085,38.538L57.168,38.538L57.242,38.538L57.32,38.538L57.476,38.538L57.554,38.538L57.636,38.538L57.711,38.538L57.789,38.538L57.945,38.538L58.023,38.538L58.104,38.538L58.179,38.538L58.257,38.538L58.414,38.538L58.492,38.538L58.573,38.538L58.648,38.538L58.726,38.538L58.882,38.538L58.961,38.538L59.043,38.538L59.118,38.538L59.195,38.538L59.351,38.538L59.43,38.538L59.511,30.846L59.586,30.846L59.664,30.846L59.82,30.846L59.899,30.846L59.981,30.846L60.056,30.846L60.132,30.846L60.289,30.846L60.368,30.846L60.449,30.846L60.525,30.846L60.602,30.846L60.758,30.846L60.836,30.846L60.918,30.846L60.993,30.846L61.07,30.846L61.227,30.846L61.305,30.846L61.386,30.846L61.461,30.846L61.539,30.846L61.696,30.846L61.773,30.846L61.855,30.846L61.93,30.846L62.008,30.846L62.164,30.846L62.243,30.846L62.325,30.846L62.399,30.846L62.477,30.846L62.633,30.846L62.712,30.846L62.794,30.846L62.869,30.846L62.945,30.846L63.102,30.846L63.18,30.846L63.263,30.846L63.337,30.846L63.414,30.846L63.571,30.846L63.649,30.846L63.732,30.846L63.806,30.846L63.883,30.846L64.04,30.846L64.118,30.846L64.2,30.846L64.275,30.846L64.352,30.846L64.508,30.846L64.587,30.846L64.668,30.846L64.743,30.846L64.821,30.846L64.978,30.846L65.055,30.846L65.137,30.846L65.212,30.846L65.29,30.846L65.447,30.846L65.524,30.846L65.607,30.846L65.681,30.846L65.759,30.846L65.915,30.846L65.993,30.846L66.076,30.846L66.15,30.846L66.228,30.846L66.384,30.846L66.462,30.846L66.545,38.538L66.619,38.538L66.696,38.538L66.852,38.538L66.931,38.538L67.013,38.538L67.088,38.538L67.165,38.538L67.322,38.538L67.4,38.538L67.482,38.538L67.556,38.538L67.634,38.538L67.79,38.538L67.868,38.538L67.95,38.538L68.025,38.538L68.103,38.538L68.259,38.538L68.337,38.538L68.419,38.538L68.494,38.538L68.572,38.538L68.728,38.538L68.806,38.538L68.889,38.538L68.963,38.538L69.04,38.538L69.198,38.538L69.275,38.538L69.357,38.538L69.432,38.538L69.509,38.538L69.666,38.538L69.744,38.538L69.826,38.538L69.901,38.538L69.978,38.538L70.135,38.538L70.213,38.538L70.295,38.538L70.369,38.538L70.447,38.538L70.604,30.846L70.682,30.846L70.764,30.846L70.838,30.846L70.916,30.846L71.072,30.846L71.15,30.846L71.232,30.846L71.307,30.846L71.384,30.846L71.541,30.846L71.619,30.846L71.701,30.846L71.775,30.846L71.853,30.846L72.01,30.846L72.088,30.846L72.171,30.846L72.245,30.846L72.322,30.846L72.478,30.846L72.557,30.846L72.639,30.846L72.714,30.846L72.791,30.846L72.948,30.846L73.026,30.846L73.108,30.846L73.183,30.846L73.26,30.846L73.416,30.846L73.495,30.846L73.577,30.846L73.651,30.846L73.728,30.846L73.885,30.846L73.964,30.846L74.046,30.846L74.121,30.846L74.197,30.846L74.354,30.846L74.432,30.846L74.514,30.846L74.589,30.846L74.666,30.846L74.823,30.846L74.9,30.846L74.983,30.846L75.057,30.846L75.135,30.846L75.292,30.846L75.37,30.846L75.453,30.846L75.527,30.846L75.604,30.846L75.761,30.846L75.839,30.846L75.921,30.846L75.996,30.846L76.073,30.846L76.229,30.846L76.308,34.692L76.39,34.692L76.464,34.692L76.541,34.692L76.698,34.692L76.776,34.692L76.859,34.692L76.934,34.692L77.011,34.692L77.167,34.692L77.245,34.692L77.328,40.077L77.402,40.077L77.479,40.077L77.636,40.077L77.714,40.077L77.796,40.077L77.87,40.077L77.948,40.077L78.104,40.077L78.183,40.077L78.265,40.077L78.339,40.077L78.417,40.077L78.574,40.077L78.652,40.077L78.735,40.077L78.808,40.077L78.886,40.077L79.042,40.077L79.121,40.077L79.203,40.077L79.277,40.077L79.354,40.077L79.511,40.077L79.589,40.077L79.672,40.077L79.746,40.077L79.823,40.077L79.98,40.077L80.058,40.077L80.14,40.077L80.216,40.077L80.292,40.077L80.449,40.077L80.527,40.077L80.609,40.077L80.684,40.077L80.761,40.077L80.917,40.077L80.995,40.077L81.078,40.077L81.152,40.077L81.23,40.077L81.386,40.077L81.464,40.077L81.546,40.077L81.621,40.077L81.698,40.077L81.855,40.077L81.934,40.077L82.016,40.077L82.09,40.077L82.167,40.077L82.324,40.077L82.402,40.077L82.485,40.077L82.636,40.077L82.793,40.077L82.871,40.077L82.954,40.077L83.028,40.077L83.105,40.077L83.262,40.077L83.34,40.077L83.423,40.077L83.497,40.077L83.574,40.077L83.73,40.077L83.809,40.077L83.891,40.077L83.965,40.077L84.043,40.077L84.2,40.077L84.277,40.077L84.359,40.077L84.434,40.077L84.512,40.077L84.668,40.077L84.746,40.077L84.828,40.077L84.903,40.077L84.98,40.077L85.137,40.077L85.216,40.077L85.298,40.077L85.373,40.077L85.449,40.077L85.606,40.077L85.684,40.077L85.766,40.077L85.841,40.077L85.918,40.077L86.075,40.077L86.153,40.077L86.235,40.077L86.31,40.077L86.387,40.077L86.544,40.077L86.622,40.077L86.704,40.077L86.778,40.077L86.856,40.077L87.013,40.077L87.09,40.077L87.173,40.077L87.247,40.077L87.324,40.077L87.481,40.077L87.559,40.077L87.641,40.077L87.716,40.077L87.793,40.077L87.949,40.077L88.028,40.077L88.11,40.077L88.184,40.077L88.262,40.077L88.419,40.077L88.497,40.077L88.579,40.077L88.654,40.077L88.731,40.077L88.887,40.077L88.966,40.077L89.049,40.077L89.123,40.077L89.2,40.077L89.357,40.077L89.435,40.077L89.518,40.077L89.592,40.077L89.669,40.077L89.825,40.077L89.903,40.077L89.986,40.077L90.06,40.077L90.137,40.077L90.294,40.077L90.372,40.077L90.455,40.077L90.529,40.077L90.606,40.077L90.763,40.077L90.841,40.077L90.923,40.077L90.997,40.077L91.075,40.077L91.232,40.077L91.311,40.077L91.397,40.077L91.471,40.077L91.544,40.077L91.701,40.077L91.779,40.077L91.862,40.077L91.936,40.077L92.013,40.077L92.17,40.077L92.248,40.077L92.329,40.077L92.405,40.077L92.481,40.077L92.638,40.077L92.717,40.077L92.799,40.077L92.874,40.077L92.95,40.077L93.107,40.077L93.186,40.077L93.268,40.077L93.342,40.077L93.419,40.077L93.576,40.077L93.654,40.077L93.737,40.077L93.811,40.077L93.888,40.077L94.045,40.077L94.123,40.077L94.205,40.077L94.279,40.077L94.357,40.077L94.513,40.077L94.591,40.077L94.674,40.077L94.749,40.077L94.826,40.077L94.983,40.077L95.061,40.077L95.144,40.077L95.218,40.077L95.294,40.077L95.451,40.077L95.53,40.077L95.612,40.077L95.687,40.077L95.763,40.077L95.92,40.077L95.999,40.077L96.081,40.077L96.155,40.077L96.232,40.077L96.389,40.077L96.467,40.077L96.55,40.077L96.624,40.077L96.701,40.077L96.858,40.077L96.936,40.077L97.018,40.077L97.093,40.077L97.17,40.077L97.326,40.077L97.404,40.077L97.487,40.077L97.561,40.077L97.639,40.077L97.795,40.077L97.873,40.077L97.955,40.077L98.03,40.077L98.107,40.077L98.264,40.077L98.343,40.077L98.425,40.077L98.499,40.077L98.576,40.077L98.733,40.077L98.811,40.077L98.894,40.077L98.968,40.077L99.045,40.077L99.201,40.077L99.279,40.077L99.363,40.077L99.437,40.077L99.514,40.077L99.671,40.077L99.749,40.077L99.832,40.077L99.906,40.077L99.983,40.077L100.14,40.077L100.218,40.077L100.3,40.077L100.375,40.077L100.451,40.077L100.608,40.077L100.686,40.077L100.768,40.077L100.843,40.077L100.92,40.077L101.078,40.077L101.155,40.077L101.237,40.077L101.311,40.077L101.39,40.077L101.546,40.077L101.624,40.077L101.707,40.077L101.781,40.077L101.858,40.077L102.015,40.077L102.093,40.077L102.176,40.077L102.25,40.077L102.327,40.077L102.484,40.077L102.562,40.077L102.645,40.077L102.719,40.077L102.796,40.077L102.953,40.077L103.031,40.077L103.114,40.077L103.188,40.077L103.265,40.077L103.421,40.077L103.5,40.077L103.582,40.077L103.656,40.077L103.733,40.077L103.891,40.077L103.968,40.077L104.051,40.077L104.126,40.077L104.202,40.077L104.359,40.077L104.437,40.077L104.519,40.077L104.594,40.077L104.671,40.077L104.828,40.077L104.906,40.077L104.99,40.077L105.063,40.077L105.14,40.077L105.297,40.077L105.375,40.077L105.458,40.077L105.532,40.077L105.609,40.077L105.765,40.077L105.844,40.077L105.927,40.077L106.001,40.077L106.077,40.077L106.234,40.077L106.313,40.077L106.395,40.077L106.469,40.077L106.546,40.077L106.703,40.077L106.781,40.077L106.864,40.077L106.939,40.077L107.015,40.077L107.172,40.077L107.25,40.077L107.332,40.077L107.407,40.077L107.485,40.077L107.641,40.077L107.719,40.077L107.801,40.077L107.875,40.077L107.952,40.077L108.109,40.077L108.188,40.077L108.271,40.077L108.344,40.077L108.422,40.077L108.579,40.077L108.657,40.077L108.74,40.077L108.813,40.077L108.89,40.077L109.047,40.077L109.126,40.077L109.207,40.077L109.283,40.077L109.359,40.077L109.516,40.077L109.594,40.077L109.677,40.077L109.752,40.077L109.828,40.077L109.985,40.077L110.063,40.077L110.146,40.077L110.22,40.077L110.297,40.077L110.454,40.077L110.531,40.077L110.614,40.077L110.688,40.077L110.766,40.077L110.923,40.077L111.001,40.077L111.083,40.077L111.157,40.077L111.235,40.077L111.392,40.077L111.47,40.077L111.553,40.077L111.627,40.077L111.703,40.077L111.861,40.077L111.939,40.077L112.022,40.077L112.095,40.077L112.172,40.077L112.329,40.077L112.408,40.077L112.491,40.077L112.565,40.077L112.641,40.077L112.798,40.077L112.876,40.077L112.96,40.077L113.033,40.077L113.11,40.077L113.267,40.077L113.345,40.077L113.428,40.077L113.502,40.077L113.579,40.077L113.736,40.077L113.814,40.077L113.896,40.077L113.971,40.077L114.048,40.077L114.205,40.077L114.283,40.077L114.366,40.077L114.439,40.077L114.516,40.077L114.674,40.077L114.752,40.077L114.835,40.077L114.909,40.077L114.985,40.077L115.142,40.077L115.221,40.077L115.304,40.077L115.378,40.077L115.454,40.077L115.611,40.077L115.69,40.077L115.773,40.077L115.846,40.077L115.923,40.077L116.08,40.077L116.158,40.077L116.242,40.077L116.315,40.077L116.392,40.077L116.549,40.077L116.627,40.077L116.71,40.077L116.785,40.077L116.86,40.077L117.017,40.077L117.095,40.077L117.178,40.077L117.252,40.077L117.329,40.077L117.486,40.077L117.564,40.077L117.647,40.077L117.721,40.077L117.798,40.077L117.955,40.077L118.034,40.077L118.117,40.077L118.19,40.077L118.267,40.077L118.424,40.077L118.503,40.077L118.586,40.077L118.659,40.077L118.736,40.077L118.894,40.077L118.972,40.077L119.055,40.077L119.128,40.077L119.204,40.077L119.362,40.077L119.441,40.077L119.523,40.077L119.597,40.077L119.674,40.077L119.831,40.077L119.909,40.077L119.992,40.077L120.065,40.077L120.142,40.077L120.299,40.077L120.378,40.077L120.46,40.077L120.534,40.077L120.611,40.077L120.768,40.077L120.846,40.077L120.929,40.077L121.003,40.077L121.08,40.077L121.238,40.077L121.316,40.077L121.399,40.077L121.473,40.077L121.549,40.077L121.705,40.077L121.785,40.077L121.868,40.077L121.941,40.077L122.018,40.077L122.175,40.077L122.253,40.077L122.336,40.077L122.41,40.077L122.487,40.077L122.644,40.077L122.722,40.077L122.806,40.077L122.879,40.077L122.955,40.077L123.113,40.077L123.191,40.077L123.274,40.077L123.348,40.077L123.424,40.077L123.581,40.077L123.659,40.077L123.742,40.077L123.816,40.077L123.893,40.077L124.051,40.077L124.128,40.077L124.211,40.077L124.285,40.077L124.362,40.077L124.519,40.077L124.598,40.077L124.681,40.077L124.754,40.077L124.831,40.077L124.988,40.077L125.067,40.077L125.15,40.077L125.223,40.077L125.3,40.077L125.457,40.077L125.536,40.077L125.619,40.077L125.693,40.077L125.769,40.077L125.926,40.077L126.004,40.077L126.088,40.077L126.161,40.077L126.237,40.077L126.394,40.077L126.473,40.077L126.556,40.077L126.63,40.077L126.863,40.077L126.941,40.077L127.024,40.077L127.098,40.077L127.175,40.077L127.332,40.077L127.41,40.077L127.493,40.077L127.567,40.077L127.643,40.077L127.801,40.077L127.88,40.077L127.963,40.077L128.037,40.077L128.113,40.077L128.27,40.077L128.349,40.077L128.432,40.077L128.505,40.077L128.582,40.077L128.739,40.077L128.817,40.077L128.901,40.077L128.974,40.077L129.051,40.077L129.208,40.077L129.286,50.077L129.369,50.077L129.443,50.077L129.519,50.077L129.676,50.077L129.755,50.077L129.838,50.077L129.911,50.077L129.988,50.077L130.145,50.077L130.223,50.077L130.306,50.077L130.38,50.077L130.456,50.077L130.614,50.077L130.692,50.077L130.775,50.077L130.848,50.077L130.925,50.077L131.083,50.077L131.162,50.077L131.245,50.077L131.318,50.077L131.395,50.077L131.551,50.077L131.63,30.846L131.713,30.846L131.787,30.846L131.863,30.846L132.02,30.846L132.099,30.846L132.182,50.077L132.255,50.077L132.332,50.077L132.489,50.077L132.568,50.077L132.651,50.077L132.724,50.077L132.801,50.077L132.958,50.077L133.036,50.077L133.12,50.077L133.193,50.077L133.27,50.077L133.427,50.077L133.505,50.077L133.587,50.077L133.662,50.077L133.738,50.077L133.896,50.077L133.974,50.077L134.057,50.077L134.13,50.077L134.207,50.077L134.365,50.077L134.443,50.077L134.527,50.077L134.6,50.077L134.676,50.077L134.833,50.077L134.912,50.077L134.995,50.077L135.069,50.077L135.145,50.077L135.302,50.077L135.381,50.077L135.464,50.077L135.537,50.077L135.614,50.077L135.771,50.077L135.85,50.077L135.933,50.077L136.007,50.077L136.083,50.077L136.24,50.077L136.318,50.077L136.402,50.077L136.475,50.077L136.551,50.077L136.708,50.077L136.787,50.077L136.869,50.077L136.943,50.077L137.021,50.077L137.177,50.077L137.256,50.077L137.339,50.077L137.412,50.077L137.489,50.077L137.646,50.077L137.725,50.077L137.808,50.077L137.882,50.077L137.958,50.077L138.115,50.077L138.194,50.077L138.277,50.077L138.351,50.077L138.427,50.077L138.584,50.077L138.663,50.077L138.746,50.077L138.82,50.077L138.896,50.077L139.053,50.077L139.131,50.077L139.215,50.077L139.288,50.077L139.364,50.077L139.522,50.077L139.6,50.077L139.683,50.077L139.757,50.077L139.833,50.077L139.99,50.077L140.068,50.077L140.151,50.077L140.225,50.077L140.302,50.077L140.459,50.077L140.538,50.077L140.62,50.077L140.694,50.077L140.771,50.077L140.928,50.077L141.007,50.077L141.09,50.077L141.164,50.077L141.24,50.077L141.397,50.077L141.476,50.077L141.559,50.077L141.632,50.077L141.709,50.077L141.866,50.077L141.945,50.077L142.028,50.077L142.102,50.077L142.177,50.077L142.496,50.077L142.57,50.077L142.646,50.077L142.803,50.077L142.881,50.077L142.965,50.077L143.038,50.077L143.115,50.077L143.272,50.077L143.35,50.077L143.433,50.077L143.507,50.077L143.583,50.077L143.741,50.077L143.819,50.077L143.902,50.077L143.975,50.077L144.052,50.077L144.21,50.077L144.288,50.077L144.372,50.077L144.445,50.077L144.521,50.077L144.678,50.077L144.757,50.077L144.84,50.077L144.913,50.077L144.99,50.077L145.148,50.077L145.226,50.077L145.309,50.077L145.382,50.077L145.459,50.077L145.616,50.077L145.695,50.077L145.777,50.077L145.851,50.077L145.928,50.077L146.085,50.077L146.163,50.077L146.246,50.077L146.32,50.077L146.396,50.077L146.553,50.077L146.631,50.077L146.714,50.077L146.788,50.077L146.865,50.077L147.022,50.077L147.1,50.077L147.183,50.077L147.257,50.077L147.334,50.077L147.491,50.077L147.57,50.077L147.653,50.077L147.727,50.077L147.803,50.077L147.96,50.077L148.039,50.077L148.122,50.077L148.196,50.077L148.272,50.077L148.429,50.077L148.508,50.077L148.591,58.538L148.664,58.538L148.741,58.538L148.898,58.538L148.977,58.538L149.06,58.538L149.133,58.538L149.21,58.538L149.368,58.538L149.445,58.538L149.529,58.538L149.602,58.538L149.679,58.538L149.836,58.538L149.914,58.538L149.997,58.538L150.071,58.538L150.147,58.538L150.304,58.538L150.382,58.538L150.466,58.538L150.539,58.538L150.616,58.538L150.774,58.538L150.853,58.538L150.936,58.538L151.01,58.538L151.086,58.538L151.242,58.538L151.321,58.538L151.405,58.538L151.478,58.538L151.554,58.538L151.711,58.538L151.79,58.538L151.874,58.538L151.947,58.538L152.023,58.538L152.18,46.231L152.259,46.231L152.342,58.538L152.416,58.538L152.492,58.538L152.649,58.538L152.728,58.538L152.811,46.231L152.884,46.231L152.961,46.231L153.117,46.231L153.196,46.231L153.279,46.231L153.353,46.231L153.429,46.231L153.586,46.231L153.664,46.231L153.748,46.231L153.821,46.231L153.898,46.231L154.056,46.231L154.135,46.231L154.218,46.231L154.291,46.231L154.367,46.231L154.524,46.231L154.603,46.231L154.687,46.231L154.76,46.231L154.836,46.231L154.994,46.231L155.072,46.231L155.156,58.538L155.229,58.538L155.305,58.538L155.462,58.538L155.541,58.538L155.625,58.538L155.697,58.538L155.774,58.538L155.931,58.538L156.01,58.538L156.093,58.538L156.166,58.538L156.242,58.538L156.399,58.538L156.477,58.538L156.561,58.538L156.634,58.538L156.711,58.538L156.869,58.538L156.946,58.538L157.03,58.538L157.103,58.538L157.18,58.538L157.338,58.538L157.417,58.538L157.5,58.538L157.573,58.538L157.649,58.538L157.806,30.846L157.885,30.846L157.969,58.538L158.042,58.538L158.118,58.538L158.275,58.538L158.354,58.538L158.438,58.538L158.511,58.538L158.587,58.538L158.744,30.846L158.823,30.846L158.907,46.231L158.979,46.231L159.056,46.231L159.213,30.846L159.291,30.846L159.375,46.231L159.448,46.231L159.524,46.231L159.681,46.231L159.759,46.231L159.843,46.231L159.916,46.231L159.993,46.231L160.15,46.231L160.228,46.231L160.312,46.231L160.384,46.231L160.462,46.231L160.619,46.231L160.698,46.231L160.782,46.231L160.855,46.231L160.931,46.231L161.088,46.231L161.167,46.231L161.251,46.231L161.324,46.231L161.4,46.231L161.557,46.231L161.636,46.231L161.72,46.231L161.793,46.231L161.868,46.231L162.026,46.231L162.105,46.231L162.188,46.231L162.261,46.231L162.337,46.231L162.494,46.231L162.573,46.231L162.657,46.231L162.73,46.231L162.806,46.231L162.963,46.231L163.041,46.231L163.124,46.231L163.197,46.231L163.274,46.231L163.432,46.231L163.51,46.231L163.593,46.231L163.666,46.231L163.743,46.231L163.901,46.231L163.98,46.231L164.064,46.231L164.137,46.231L164.213,46.231L164.37,46.231L164.449,46.231L164.532,46.231L164.606,46.231L164.681,46.231L164.838,46.231L164.917,46.231L165,46.231L165.074,46.231L165.15,46.231L165.307,46.231L165.386,46.231L165.469,46.231L165.542,46.231L165.619,46.231L165.775,46.231L165.854,46.231L165.937,46.231L166.01,46.231L166.087,46.231L166.244,46.231L166.322,46.231L166.405,46.231L166.478,46.231L166.555,46.231L166.713,46.231L166.791,46.231L166.874,46.231L166.947,46.231L167.024,46.231L167.182,46.231L167.26,46.231L167.344,46.231L167.417,46.231L167.493,46.231L167.651,46.231L167.729,46.231L167.812,46.231L167.885,46.231L167.962,46.231L168.12,46.231L168.198,46.231L168.281,46.231L168.354,46.231L168.431,46.231L168.588,46.231L168.667,46.231L168.75,46.231L168.823,46.231L168.9,46.231L169.057,46.231L169.135,46.231L169.218,46.231L169.292,46.231L169.369,46.231L169.526,46.231L169.604,46.231L169.687,46.231L169.76,46.231L169.837,46.231L169.995,46.231L170.073,46.231L170.155,46.231L170.229,46.231L170.306,46.231L170.464,46.231L170.542,46.231L170.625,46.231L170.698,46.231L170.775,46.231L170.932,46.231L171.011,46.231L171.094,46.231L171.167,46.231L171.244,46.231L171.401,46.231L171.48,46.231L171.562,46.231L171.636,46.231L171.713,46.231L171.87,46.231L171.948,46.231L172.032,46.231L172.105,46.231L172.182,46.231L172.339,46.231L172.417,46.231L172.5,46.231L172.574,46.231L172.65,46.231L172.807,46.231L172.886,46.231L172.969,46.231L173.042,46.231L173.119,46.231L173.276,46.231L173.354,46.231L173.437,46.231L173.511,46.231L173.588,46.231L173.746,46.231L173.824,46.231L173.908,46.231L173.981,46.231L174.057,46.231L174.214,46.231L174.293,46.231L174.376,46.231L174.453,46.231L174.526,46.231L174.683,46.231L174.762,46.231L174.845,46.231L174.918,46.231L174.995,46.231L175.152,46.231L175.23,46.231L175.314,46.231L175.387,46.231L175.464,46.231L175.621,46.231L175.699,46.231L175.782,46.231L175.856,46.231L175.933,46.231L176.089,46.231L176.167,46.231L176.25,46.231L176.324,46.231L176.401,46.231L176.558,46.231L176.636,46.231L176.719,46.231L176.792,46.231L176.87,46.231L177.027,46.231L177.106,46.231L177.19,46.231L177.263,46.231L177.339,46.231L177.495,46.231L177.574,46.231L177.657,46.231L177.731,46.231L177.807,46.231L177.964,46.231L178.043,46.231L178.126,46.231L178.199,46.231L178.276,46.231L178.433,46.231L178.512,46.231L178.595,46.231L178.745,46.231L178.903,46.231L178.98,46.231L179.063,46.231L179.137,46.231L179.449,34.692L179.531,46.231L179.605,46.231L179.683,46.231L179.839,46.231L179.917,46.231L180,46.231L180.074,46.231L180.151,46.231L180.309,46.231L180.387,46.231L180.471,46.231L180.544,46.231L180.62,46.231L180.777,46.231L180.856,46.231L180.939,46.231L181.013,46.231L181.089,46.231L181.246,46.231L181.325,46.231L181.408,46.231L181.481,46.231L181.558,46.231L181.715,46.231L181.794,46.231L181.877,46.231L181.95,46.231L182.027,46.231L182.184,46.231L182.262,46.231L182.345,46.231L182.419,46.231L182.495,46.231L182.653,46.231L182.73,46.231L182.813,46.231L182.888,46.231L182.964,46.231L183.121,46.231L183.199,46.231L183.282,46.231L183.356,46.231L183.433,46.231L183.591,46.231L183.669,46.231L183.752,23.154L183.826,23.154L183.902,23.154L184.059,23.154L184.138,23.154L184.221,30.846L184.294,30.846L184.371,30.846L184.528,30.846L184.607,30.846L184.689,30.846L184.763,30.846L184.84,30.846L184.997,30.846L185.075,30.846L185.158,30.846L185.234,30.846L185.309,30.846L185.466,30.846L185.544,30.846L185.627,30.846L185.701,30.846L185.777,30.846L185.934,30.846L186.012,30.846L186.095,30.846L186.168,30.846L186.246,30.846L186.403,30.846L186.481,30.846L186.563,30.846L186.638,30.846L186.715,30.846L186.872,30.846L186.951,30.846L187.034,30.846L187.107,30.846L187.184,30.846L187.341,30.846L187.419,30.846L187.503,30.846L187.576,30.846L187.653,30.846L187.81,30.846L187.889,30.846L187.972,30.846L188.046,30.846L188.122,30.846L188.279,30.846L188.357,30.846L188.441,30.846L188.514,30.846L188.591,30.846L188.748,30.846L188.826,30.846L188.909,30.846L188.983,30.846L189.059,30.846L189.216,30.846L189.294,30.846L189.377,30.846L189.45,30.846L189.528,30.846L189.685,30.846L189.763,30.846L189.845,30.846L189.919,30.846L189.997,30.846L190.154,30.846L190.233,30.846L190.316,30.846L190.389,30.846L190.466,30.846L190.623,30.846L190.701,30.846L190.785,30.846L190.859,30.846L190.935,30.846L191.092,30.846L191.17,30.846L191.254,30.846L191.327,30.846L191.404,30.846L191.639,30.846L191.722,30.846L191.796,30.846L191.874,30.846L192.029,30.846L192.108,30.846L192.191,30.846L192.264,30.846L192.341,30.846L192.498,30.846L192.576,30.846L192.658,30.846L192.733,30.846L192.809,30.846L192.967,30.846L193.045,30.846L193.128,30.846L193.201,30.846L193.278,30.846L193.436,30.846L193.515,30.846L193.598,30.846L193.671,30.846L193.747,30.846L193.905,30.846L193.983,30.846L194.066,30.846L194.14,30.846L194.217,30.846L194.374,30.846L194.452,30.846L194.535,30.846L194.609,30.846L194.685,30.846L194.842,30.846L194.921,30.846L195.004,30.846L195.078,30.846L195.154,30.846L195.312,30.846L195.39,30.846L195.473,30.846L195.546,30.846L195.623,30.846L195.78,30.846L195.858,30.846L195.94,30.846L196.014,30.846L196.092,30.846L196.249,30.846L196.327,30.846L196.41,30.846L196.483,30.846L196.56,30.846L196.718,30.846L196.797,30.846L196.88,30.846L196.954,30.846L197.03,30.846L197.187,30.846L197.265,30.846L197.349,30.846L197.422,30.846L197.498,30.846L197.656,30.846L197.734,30.846L197.818,30.846L197.891,30.846L197.967,30.846L198.124,30.846L198.203,30.846L198.286,30.846L198.36,30.846L198.436,30.846L198.593,30.846L198.672,30.846L198.755,30.846L198.828,30.846L198.905,30.846L199.062,30.846L199.14,30.846L199.223,30.846L199.296,30.846L199.373,30.846L199.53,30.846L199.609,30.846L199.691,30.846L199.765,30.846L199.842,30.846L200,30.846" stroke="#f58518" stroke-width="2"/></g></g><path class="foreground" aria-hidden="true" d="" display="none"/></g></g><g class="mark-group role-legend" role="graphics-symbol" aria-roledescription="legend" aria-label="Symbol legend titled 'identifier' for stroke color with 2 values: altex-LG-F2WR508SBW, altex-LG-F2WR508SBM"><g transform="translate(220,0)"><path class="background" aria-hidden="true" d="M0,0h168v40h-168Z" pointer-events="none"/><g><g class="mark-group role-legend-entry"><g transform="translate(0,16)"><path class="background" aria-hidden="true" d="M0,0h0v0h0Z" pointer-events="none"/><g><g class="mark-group role-scope" role="graphics-object" aria-roledescription="group mark container"><g transform="translate(0,0)"><path class="background" aria-hidden="true" d="M0,0h168v11h-168Z" pointer-events="none" opacity="1"/><g><g class="mark-symbol role-legend-symbol" pointer-events="none"><path transform="translate(6,6)" d="M-5,0L5,0" stroke="#4c78a8" stroke-width="1.5" opacity="1"/></g><g class="mark-text role-legend-label" pointer-events="none"><text text-anchor="start" transform="translate(16,9)" font-family="Liberation Mono" font-size="10px" fill="#000" opacity="1">altex-LG-F2WR508SBW</text></g></g><path class="foreground" aria-hidden="true" d="" pointer-events="none" display="none"/></g><g transform="translate(0,13)"><path class="background" aria-hidden="true" d="M0,0h168v11h-168Z" pointer-events="none" opacity="1"/><g><g class="mark-symbol role-legend-symbol" pointer-events="none"><path transform="translate(6,6)" d="M-5,0L5,0" stroke="#f58518" stroke-width="1.5" opacity="1"/></g><g class="mark-text role-legend-label" pointer-events="none"><text text-anchor="start" transform="translate(16,9)" font-family="Liberation Mono" font-size="10px" fill="#000" opacity="1">altex-LG-F2WR508SBM</text></g></g><path class="foreground" aria-hidden="true" d="" pointer-events="none" display="none"/></g></g></g><path class="foreground" aria-hidden="true" d="" pointer-events="none" display="none"/></g></g><g class="mark-text role-legend-title" pointer-events="none"><text text-anchor="start" transform="translate(0,9)" font-family="Liberation Mono" font-size="11px" font-weight="bold" fill="#000" opacity="1">identifier</text></g></g><path class="foreground" aria-hidden="true" d="" pointer-events="none" display="none"/></g></g></g><path class="foreground" aria-hidden="true" d="" display="none"/></g></g></g></svg>