<svg xmlns="http://www.w3.org/2000/svg" xmlns:xlink="http://www.w3.org/1999/xlink" version="1.1" class="marks" width="460" height="242" viewBox="0 0 460 242"><rect width="460" height="242" fill="white"/><g fill="none" stroke-miterlimit="10" transform="translate(67,5)"><g class="mark-group role-frame root" role="graphics-object" aria-roledescription="group mark container"><g transform="translate(0,0)"><path class="background" aria-hidden="true" d="M0.5,0.5h200v200h-200Z" stroke="#ddd"/><g><g class="mark-group role-axis" aria-hidden="true"><g transform="translate(0.5,200.5)"><path class="background" aria-hidden="true" d="M0,0h0v0h0Z" pointer-events="none"/><g><g class="mark-rule role-axis-grid" pointer-events="none"><line transform="translate(48,-200)" x2="0" y2="200" stroke="#ddd" stroke-width="1" opacity="1"/><line transform="translate(96,-200)" x2="0" y2="200" stroke="#ddd" stroke-width="1" opacity="1"/><line transform="translate(145,-200)" x2="0" y2="200" stroke="#ddd" stroke-width="1" opacity="1"/><line transform="translate(194,-200)" x2="0" y2="200" stroke="#ddd" stroke-width="1" opacity="1"/></g></g><path class="foreground" aria-hidden="true" d="" pointer-events="none" display="none"/></g></g><g class="mark-group role-axis" aria-hidden="true"><g transform="translate(0.5,0.5)"><path class="background" aria-hidden="true" d="M0,0h0v0h0Z" pointer-events="none"/><g><g class="mark-rule role-axis-grid" pointer-events="none"><line transform="translate(0,200)" x2="200" y2="0" stroke="#ddd" stroke-width="1" opacity="1"/><line transform="translate(0,162)" x2="200" y2="0" stroke="#ddd" stroke-width="1" opacity="1"/><line transform="translate(0,123)" x2="200" y2="0" stroke="#ddd" stroke-width="1" opacity="1"/><line transform="translate(0,85)" x2="200" y2="0" stroke="#ddd" stroke-width="1" opacity="1"/><line transform="translate(0,46)" x2="200" y2="0" stroke="#ddd" stroke-width="1" opacity="1"/><line transform="translate(0,8)" x2="200" y2="0" stroke="#ddd" stroke-width="1" opacity="1"/></g></g><path class="foreground" aria-hidden="true" d="" pointer-events="none" display="none"/></g></g><g class="mark-group role-axis" role="graphics-symbol" aria-roledescription="axis" aria-label="X-axis titled 'Time' for a time scale with values from Monday, 01 January 2024, 2:19:43 PM to Sunday, 12 January 2025, 8:38:51 PM"><g transform="translate(0.5,200.5)"><path class="background" aria-hidden="true" d="M0,0h0v0h0Z" pointer-events="none"/><g><g class="mark-rule role-axis-tick" pointer-events="none"><line transform="translate(48,0)" x2="0" y2="5" stroke="#888" stroke-width="1" opacity="1"/><line transform="translate(96,0)" x2="0" y2="5" stroke="#888" stroke-width="1" opacity="1"/><line transform="translate(145,0)" x2="0" y2="5" stroke="#888" stroke-width="1" opacity="1"/><line transform="translate(194,0)" x2="0" y2="5" stroke="#888" stroke-width="1" opacity="1"/></g><g class="mark-text role-axis-label" pointer-events="none"><text text-anchor="middle" transform="translate(47.92566576299571,15)" font-family="Liberation Mono" font-size="10px" fill="#000" opacity="1">April</text><text text-anchor="middle" transform="translate(96.16783560054765,15)" font-family="Liberation Mono" font-size="10px" fill="#000" opacity="1">July</text><text text-anchor="middle" transform="translate(144.94013917257817,15)" font-family="Liberation Mono" font-size="10px" fill="#000" opacity="1">October</text><text text-anchor="middle" transform="translate(193.7124427446087,15)" font-family="Liberation Mono" font-size="10px" fill="#000" opacity="1">2025</text></g><g class="mark-rule role-axis-domain" pointer-events="none"><line transform="translate(0,0)" x2="200" y2="0" stroke="#888" stroke-width="1" opacity="1"/></g><g class="mark-text role-axis-title" pointer-events="none"><text text-anchor="middle" transform="translate(100,30)" font-family="Liberation Mono" font-size="11px" font-weight="bold" fill="#000" opacity="1">Time</text></g></g><path class="foreground" aria-hidden="true" d="" pointer-events="none" display="none"/></g></g><g class="mark-group role-axis" role="graphics-symbol" aria-roledescription="axis" aria-label="Y-axis titled 'Price' for a linear scale with values from 0 to 2,600"><g transform="translate(0.5,0.5)"><path class="background" aria-hidden="true" d="M0,0h0v0h0Z" pointer-events="none"/><g><g class="mark-rule role-axis-tick" pointer-events="none"><line transform="translate(0,200)" x2="-5" y2="0" stroke="#888" stroke-width="1" opacity="1"/><line transform="translate(0,162)" x2="-5" y2="0" stroke="#888" stroke-width="1" opacity="1"/><line transform="translate(0,123)" x2="-5" y2="0" stroke="#888" stroke-width="1" opacity="1"/><line transform="translate(0,85)" x2="-5" y2="0" stroke="#888" stroke-width="1" opacity="1"/><line transform="translate(0,46)" x2="-5" y2="0" stroke="#888" stroke-width="1" opacity="1"/><line transform="translate(0,8)" x2="-5" y2="0" stroke="#888" stroke-width="1" opacity="1"/></g><g class="mark-text role-axis-label" pointer-events="none"><text text-anchor="end" transform="translate(-7,203)" font-family="Liberation Mono" font-size="10px" fill="#000" opacity="1">0</text><text text-anchor="end" transform="translate(-7,164.53846153846155)" font-family="Liberation Mono" font-size="10px" fill="#000" opacity="1">500</text><text text-anchor="end" transform="translate(-7,126.07692307692308)" font-family="Liberation Mono" font-size="10px" fill="#000" opacity="1">1,000</text><text text-anchor="end" transform="translate(-7,87.61538461538463)" font-family="Liberation Mono" font-size="10px" fill="#000" opacity="1">1,500</text><text text-anchor="end" transform="translate(-7,49.153846153846146)" font-family="Liberation Mono" font-size="10px" fill="#000" opacity="1">2,000</text><text text-anchor="end" transform="translate(-7,10.692307692307686)" font-family="Liberation Mono" font-size="10px" fill="#000" opacity="1">2,500</text></g><g class="mark-rule role-axis-domain" pointer-events="none"><line transform="translate(0,200)" x2="0" y2="-200" stroke="#888" stroke-width="1" opacity="1"/></g><g class="mark-text role-axis-title" pointer-events="none"><text text-anchor="middle" transform="translate(-51,100) rotate(-90) translate(0,-2)" font-family="Liberation Mono" font-size="11px" font-weight="bold" fill="#000" opacity="1">Price</text></g></g><path class="foreground" aria-hidden="true" d="" pointer-events="none" display="none"/></g></g><g class="mark-group role-scope pathgroup" role="graphics-object" aria-roledescription="group mark container"><g transform="translate(0,0)"><path class="background" aria-hidden="true" d="M0,0h200v200h-200Z"/><g><g class="mark-line role-mark marks" role="graphics-object" aria-roledescription="line mark container"><path aria-label="Time: Jan 01, 2024; Price: 2399; identifier: altex-LG-F2WR508SBW" role="graphics-symbol" aria-roledescription="line mark" d="M0,15.462L0.055,15.462L0.139,15.462L0.316,15.462L0.405,15.462L0.497,15.462L0.582,15.462L0.67,15.462L0.846,15.462L0.935,15.462L1.028,15.462L1.112,15.462L1.2,15.462L1.376,15.462L1.465,15.462L1.558,15.462L1.643,15.462L1.73,15.462L1.907,34.692L1.995,34.692L2.088,34.692L2.173,34.692L2.26,34.692L2.437,34.692L2.525,34.692L2.618,34.692L2.702,34.692L2.79,34.692L2.967,34.692L3.055,34.692L3.148,34.692L3.233,34.692L3.32,34.692L3.497,34.692L3.586,34.692L3.679,34.692L3.763,34.692L3.85,34.692L4.028,34.692L4.116,34.692L4.21,34.692L4.294,34.692L4.38,34.692L4.558,34.692L4.646,34.692L4.739,34.692L4.823,34.692L4.911,34.692L5.088,34.692L5.176,34.692L5.269,34.692L5.354,34.692L5.441,34.692L5.618,34.692L5.706,34.692L5.799,34.692L5.884,34.692L5.971,34.692L6.148,46.231L6.236,46.231L6.329,46.231L6.413,46.231L6.501,46.231L6.678,46.231L6.766,46.231L6.859,46.231L6.943,46.231L7.031,46.231L7.208,46.231L7.297,46.231L7.39,46.231L7.475,46.231L7.561,46.231L7.738,46.231L7.827,46.231L7.92,46.231L8.005,46.231L8.091,46.231L8.269,46.231L8.357,46.231L8.45,46.231L8.535,46.231L8.622,46.231L8.799,46.231L8.887,46.231L8.98,46.231L9.065,46.231L9.152,46.231L9.329,46.231L9.417,46.231L9.51,46.231L9.595,46.231L9.682,46.231L9.859,46.231L9.947,46.231L10.04,46.231L10.125,46.231L10.212,46.231L10.389,46.231L10.477,46.231L10.57,46.231L10.655,46.231L10.742,46.231L10.92,46.231L11.008,46.231L11.101,46.231L11.185,46.231L11.272,46.231L11.449,46.231L11.538,46.231L11.631,46.231L11.716,46.231L11.802,46.231L11.98,46.231L12.068,46.231L12.161,46.231L12.246,46.231L12.333,46.231L12.51,46.231L12.598,46.231L12.692,46.231L12.776,46.231L12.863,46.231L13.04,46.231L13.128,46.231L13.22,46.231L13.305,46.231L13.393,46.231L13.569,46.231L13.658,46.231L13.749,46.231L13.834,46.231L13.923,46.231L14.1,46.231L14.188,46.231L14.279,46.231L14.365,46.231L14.453,46.231L14.63,46.231L14.718,46.231L14.81,46.231L14.895,46.231L14.983,46.231L15.16,46.231L15.248,46.231L15.34,46.231L15.426,46.231L15.513,46.231L15.69,46.231L15.778,46.231L15.87,46.231L15.955,46.231L16.043,46.231L16.22,34.692L16.309,34.692L16.401,34.692L16.485,34.692L16.573,34.692L16.75,34.692L16.839,34.692L16.93,34.692L17.015,34.692L17.104,34.692L17.28,34.692L17.369,34.692L17.46,34.692L17.545,34.692L17.634,34.692L17.811,34.692L17.899,34.692L17.99,34.692L18.075,34.692L18.164,34.692L18.341,34.692L18.429,34.692L18.521,34.692L18.606,34.692L18.694,34.692L18.871,34.692L18.959,34.692L19.051,34.692L19.136,34.692L19.224,34.692L19.401,34.692L19.489,34.692L19.581,34.692L19.667,34.692L19.754,34.692L19.931,34.692L20.02,34.692L20.111,34.692L20.197,34.692L20.284,34.692L20.461,34.692L20.55,34.692L20.641,34.692L20.726,34.692L20.815,34.692L20.991,34.692L21.08,34.692L21.171,34.692L21.256,34.692L21.345,34.692L21.522,34.692L21.61,34.692L21.701,34.692L21.787,34.692L21.875,34.692L22.052,34.692L22.14,34.692L22.232,34.692L22.317,34.692L22.405,34.692L22.582,34.692L22.67,34.692L22.762,34.692L22.848,34.692L22.935,34.692L23.112,34.692L23.2,34.692L23.292,34.692L23.377,34.692L23.465,34.692L23.73,34.692L23.822,34.692L23.907,34.692L23.996,34.692L24.172,34.692L24.261,34.692L24.352,34.692L24.438,34.692L24.526,34.692L24.702,34.692L24.791,34.692L24.882,34.692L24.967,34.692L25.056,34.692L25.232,34.692L25.321,34.692L25.412,34.692L25.498,34.692L25.586,34.692L25.763,34.692L25.851,34.692L25.943,34.692L26.029,34.692L26.116,34.692L26.293,34.692L26.381,34.692L26.473,34.692L26.558,34.692L26.646,34.692L26.823,34.692L26.911,34.692L27.003,34.692L27.088,34.692L27.176,34.692L27.353,34.692L27.441,34.692L27.533,34.692L27.618,34.692L27.706,34.692L27.883,34.692L27.971,34.692L28.063,34.692L28.148,34.692L28.237,34.692L28.413,34.692L28.502,34.692L28.593,34.692L28.678,34.692L28.766,34.692L28.943,34.692L29.032,34.692L29.123,34.692L29.209,34.692L29.297,34.692L29.473,34.692L29.562,34.692L29.654,34.692L29.739,34.692L29.827,34.692L30.004,34.692L30.092,34.692L30.184,34.692L30.269,34.692L30.357,34.692L30.534,34.692L30.622,34.692L30.714,34.692L30.799,34.692L30.887,34.692L31.064,34.692L31.152,34.692L31.244,34.692L31.329,34.692L31.417,34.692L31.594,34.692L31.683,34.692L31.774,34.692L31.859,34.692L31.947,34.692L32.124,34.692L32.213,34.692L32.304,34.692L32.389,34.692L32.478,34.692L32.654,34.692L32.743,34.692L32.834,34.692L32.919,34.692L33.008,34.692L33.193,34.692L33.313,34.692L33.366,34.692L33.45,34.692L33.538,34.692L33.714,34.692L33.803,34.692L33.895,34.692L33.98,34.692L34.068,34.692L34.245,34.692L34.334,34.692L34.425,34.692L34.51,34.692L34.598,34.692L34.775,34.692L34.863,34.692L34.955,34.692L35.04,34.692L35.128,34.692L35.305,34.692L35.395,34.692L35.485,34.692L35.57,34.692L35.658,34.692L35.835,34.692L35.923,34.692L36.014,34.692L36.101,34.692L36.188,34.692L36.365,34.692L36.454,34.692L36.544,34.692L36.631,34.692L36.719,34.692L36.896,34.692L36.984,34.692L37.076,34.692L37.161,34.692L37.249,34.692L37.426,34.692L37.514,34.692L37.606,34.692L37.691,34.692L37.779,34.692L37.956,34.692L38.045,34.692L38.136,34.692L38.221,34.692L38.309,34.692L38.486,34.692L38.574,34.692L38.666,34.692L38.751,34.692L38.839,34.692L39.016,34.692L39.105,34.692L39.196,34.692L39.281,34.692L39.369,34.692L39.546,34.692L39.635,34.692L39.726,34.692L39.811,34.692L39.9,34.692L40.076,34.692L40.165,34.692L40.256,34.692L40.341,34.692L40.43,34.692L40.606,34.692L40.695,34.692L40.787,34.692L40.872,34.692L40.96,34.692L41.137,34.692L41.225,34.692L41.317,34.692L41.403,34.692L41.49,34.692L41.667,34.692L41.755,34.692L41.847,34.692L41.933,34.692L42.02,34.692L42.197,34.692L42.285,34.692L42.377,34.692L42.463,34.692L42.55,34.692L42.727,34.692L42.815,34.692L42.907,34.692L42.992,34.692L43.08,34.692L43.257,34.692L43.345,34.692L43.437,34.692L43.522,34.692L43.61,34.692L43.787,34.692L43.875,34.692L43.968,34.692L44.052,34.692L44.14,34.692L44.317,34.692L44.406,34.692L44.498,34.692L44.583,34.692L44.671,34.692L44.847,34.692L44.936,34.692L45.028,34.692L45.113,34.692L45.201,34.692L45.378,34.692L45.466,34.692L45.558,34.692L45.644,34.692L45.731,34.692L45.908,34.692L45.996,34.692L46.088,34.692L46.173,34.692L46.261,34.692L46.438,34.692L46.526,34.692L46.618,34.692L46.703,34.692L46.791,34.692L46.968,34.692L47.056,34.692L47.147,34.692L47.233,34.692L47.322,34.692L47.498,34.692L47.587,34.692L47.678,34.692L47.764,34.692L47.851,34.692L48.028,34.692L48.117,34.692L48.209,34.692L48.295,34.692L48.381,34.692L48.559,34.692L48.647,34.692L48.739,34.692L48.824,34.692L48.912,34.692L49.088,34.692L49.177,34.692L49.269,34.692L49.354,34.692L49.442,34.692L49.619,34.692L49.707,34.692L49.799,34.692L49.884,34.692L49.972,34.692L50.149,34.692L50.329,34.692L50.414,34.692L50.502,34.692L50.679,34.692L50.767,34.692L50.858,34.692L50.944,34.692L51.032,34.692L51.209,34.692L51.297,34.692L51.389,34.692L51.474,34.692L51.562,34.692L51.739,34.692L51.827,34.692L51.92,34.692L52.005,34.692L52.093,34.692L52.269,34.692L52.358,34.692L52.45,34.692L52.535,34.692L52.623,34.692L52.799,34.692L52.888,34.692L52.98,34.692L53.066,34.692L53.153,34.692L53.33,34.692L53.419,34.692L53.51,34.692L53.683,34.692L53.86,34.692L53.949,34.692L54.04,34.692L54.125,34.692L54.213,34.692L54.39,34.692L54.478,34.692L54.568,34.692L54.655,34.692L54.743,34.692L54.928,34.692L55.064,34.692L55.147,34.692L55.318,34.692L55.451,34.692L55.538,34.692L55.629,34.692L55.715,34.692L55.803,34.692L55.98,34.692L56.069,34.692L56.161,34.692L56.245,34.692L56.334,34.692L56.51,34.692L56.599,34.692L56.691,34.692L56.776,34.692L56.864,34.692L57.129,34.692L57.221,34.692L57.306,34.692L57.394,34.692L57.571,34.692L57.659,34.692L57.751,34.692L57.836,34.692L57.924,34.692L58.101,34.692L58.189,34.692L58.281,34.692L58.366,34.692L58.454,34.692L58.631,34.692L58.719,34.692L58.811,34.692L58.896,34.692L58.984,34.692L59.161,34.692L59.25,34.692L59.342,34.692L59.427,34.692L59.514,34.692L59.691,34.692L59.78,34.692L59.872,34.692L59.957,34.692L60.045,34.692L60.221,34.692L60.31,34.692L60.405,34.692L60.487,34.692L60.575,34.692L60.751,34.692L60.84,34.692L60.93,34.692L61.017,34.692L61.105,34.692L61.281,34.692L61.37,34.692L61.462,34.692L61.547,34.692L61.635,34.692L61.812,34.692L61.9,34.692L61.991,34.692L62.077,34.692L62.165,34.692L62.342,34.692L62.43,34.692L62.522,34.692L62.607,34.692L62.695,34.692L62.872,34.692L62.961,34.692L63.053,34.692L63.137,34.692L63.225,34.692L63.402,34.692L63.491,34.692L63.583,34.692L63.668,34.692L63.756,34.692L63.932,34.692L64.022,34.692L64.113,34.692L64.198,34.692L64.285,34.692L64.463,57.769L64.551,57.769L64.644,57.769L64.728,57.769L64.816,57.769L64.993,57.769L65.081,57.769L65.173,57.769L65.258,57.769L65.346,57.769L65.523,57.769L65.611,57.769L65.703,57.769L65.788,57.769L65.876,57.769L66.053,57.769L66.141,57.769L66.233,57.769L66.318,57.769L66.406,57.769L66.583,57.769L66.672,57.769L66.764,57.769L66.849,57.769L66.936,57.769L67.113,57.769L67.202,57.769L67.294,57.769L67.379,57.769L67.467,57.769L67.643,57.769L67.732,57.769L67.825,57.769L67.91,57.769L67.996,57.769L68.174,34.692L68.263,34.692L68.354,34.692L68.44,34.692L68.527,34.692L68.703,34.692L68.792,34.692L68.885,34.692L68.969,34.692L69.057,34.692L69.234,34.692L69.322,34.692L69.414,34.692L69.499,34.692L69.587,34.692L69.764,34.692L69.852,34.692L69.945,34.692L70.029,34.692L70.117,34.692L70.294,34.692L70.383,34.692L70.476,34.692L70.56,34.692L70.647,34.692L70.824,34.692L70.913,34.692L71.006,34.692L71.09,34.692L71.177,34.692L71.354,34.692L71.443,34.692L71.536,34.692L71.62,34.692L71.708,34.692L71.884,34.692L71.973,34.692L72.066,34.692L72.15,34.692L72.237,34.692L72.414,34.692L72.503,34.692L72.596,34.692L72.68,34.692L72.768,34.692L72.944,34.692L73.033,34.692L73.126,34.692L73.21,34.692L73.298,34.692L73.475,34.692L73.563,34.692L73.655,34.692L73.74,34.692L73.828,34.692L74.006,34.692L74.093,34.692L74.187,34.692L74.271,34.692L74.358,34.692L74.535,34.692L74.624,34.692L74.717,34.692L74.801,34.692L74.889,34.692L75.065,34.692L75.154,34.692L75.247,34.692L75.331,34.692L75.418,34.692L75.595,34.692L75.684,34.692L75.777,34.692L75.861,34.692L75.948,34.692L76.126,34.692L76.214,34.692L76.307,34.692L76.391,34.692L76.479,34.692L76.656,34.692L76.744,34.692L76.836,34.692L76.921,34.692L77.009,34.692L77.186,34.692L77.274,34.692L77.366,34.692L77.451,34.692L77.54,34.692L77.716,34.692L77.805,34.692L77.898,34.692L77.982,34.692L78.069,34.692L78.248,34.692L78.335,34.692L78.428,34.692L78.512,34.692L78.599,34.692L78.777,34.692L78.865,34.692L78.958,34.692L79.042,34.692L79.129,34.692L79.307,34.692L79.395,34.692L79.488,34.692L79.572,34.692L79.659,34.692L79.837,34.692L79.925,34.692L80.018,34.692L80.102,34.692L80.19,34.692L80.366,34.692L80.455,34.692L80.547,34.692L80.632,34.692L80.72,34.692L80.897,34.692L80.985,34.692L81.077,34.692L81.162,34.692L81.25,34.692L81.427,34.692L81.516,34.692L81.609,34.692L81.693,34.692L81.781,34.692L81.957,34.692L82.046,34.692L82.139,34.692L82.223,34.692L82.31,34.692L82.488,34.692L82.576,34.692L82.669,34.692L82.753,34.692L82.84,34.692L83.017,34.692L83.106,34.692L83.199,34.692L83.283,34.692L83.37,34.692L83.548,34.692L83.636,34.692L83.73,34.692L83.814,34.692L83.901,34.692L84.078,34.692L84.166,34.692L84.258,34.692L84.343,34.692L84.431,34.692L84.608,34.692L84.696,34.692L84.789,34.692L84.873,34.692L84.961,34.692L85.139,34.692L85.227,34.692L85.32,34.692L85.404,34.692L85.491,34.692L85.669,34.692L85.757,34.692L85.85,34.692L85.934,34.692L86.022,34.692L86.198,34.692L86.287,46.231L86.38,46.231L86.464,46.231L86.551,46.231L86.728,46.231L86.817,46.231L86.91,46.231L86.995,46.231L87.082,46.231L87.258,46.231L87.347,46.231L87.44,48.538L87.524,48.538L87.612,48.538L87.789,48.538L87.877,48.538L87.97,48.538L88.054,48.538L88.142,48.538L88.318,48.538L88.407,48.538L88.5,48.538L88.584,48.538L88.672,48.538L88.849,48.538L88.938,48.538L89.031,48.538L89.115,48.538L89.202,48.538L89.379,48.538L89.468,48.538L89.561,48.538L89.645,48.538L89.732,48.538L89.909,48.538L89.998,48.538L90.091,48.538L90.175,48.538L90.262,48.538L90.439,48.538L90.528,48.538L90.621,48.538L90.706,48.538L90.792,48.538L90.97,48.538L91.058,48.538L91.151,48.538L91.235,48.538L91.323,48.538L91.499,48.538L91.588,48.538L91.682,48.538L91.765,48.538L91.853,48.538L92.03,48.538L92.118,48.538L92.211,48.538L92.295,48.538L92.383,48.538L92.56,48.538L92.649,48.538L92.742,48.538L92.826,48.538L92.913,48.538L93.09,48.538L93.179,48.538L93.272,48.538L93.443,48.538L93.621,48.538L93.709,48.538L93.802,48.538L93.886,48.538L93.973,48.538L94.151,48.538L94.239,48.538L94.332,48.538L94.416,48.538L94.504,48.538L94.68,48.538L94.769,48.538L94.862,48.538L94.946,48.538L95.034,48.538L95.211,48.538L95.299,48.538L95.392,48.538L95.476,48.538L95.564,48.538L95.74,48.538L95.829,48.538L95.922,48.538L96.006,48.538L96.094,48.538L96.271,48.538L96.36,48.538L96.453,48.538L96.537,48.538L96.624,48.538L96.801,48.538L96.89,48.538L96.983,48.538L97.067,48.538L97.154,48.538L97.331,48.538L97.42,48.538L97.513,48.538L97.598,48.538L97.684,48.538L97.862,48.538L97.95,48.538L98.043,48.538L98.127,48.538L98.214,48.538L98.392,48.538L98.48,48.538L98.573,48.538L98.657,48.538L98.744,48.538L98.922,48.538L99.01,48.538L99.102,48.538L99.187,48.538L99.275,48.538L99.451,48.538L99.54,48.538L99.633,48.538L99.717,48.538L99.805,48.538L99.982,48.538L100.071,48.538L100.163,48.538L100.248,48.538L100.335,48.538L100.512,48.538L100.601,48.538L100.694,48.538L100.778,48.538L100.865,48.538L101.042,48.538L101.131,48.538L101.224,48.538L101.308,48.538L101.395,48.538L101.573,48.538L101.661,48.538L101.754,48.538L101.838,48.538L101.925,48.538L102.102,48.538L102.191,48.538L102.285,48.538L102.368,48.538L102.456,48.538L102.632,48.538L102.72,48.538L102.813,48.538L102.898,48.538L102.985,48.538L103.163,48.538L103.252,48.538L103.35,48.538L103.433,48.538L103.515,48.538L103.693,48.538L103.781,48.538L103.875,48.538L103.959,48.538L104.046,48.538L104.223,48.538L104.312,48.538L104.404,48.538L104.489,48.538L104.576,48.538L104.753,48.538L104.842,48.538L104.935,48.538L105.019,48.538L105.106,48.538L105.284,48.538L105.372,48.538L105.466,48.538L105.549,48.538L105.636,48.538L105.814,48.538L105.902,48.538L105.995,48.538L106.08,48.538L106.167,48.538L106.344,48.538L106.432,48.538L106.525,48.538L106.609,48.538L106.697,48.538L106.873,48.538L106.962,48.538L107.055,48.538L107.14,48.538L107.226,48.538L107.404,48.538L107.493,48.538L107.586,48.538L107.67,48.538L107.757,48.538L107.934,48.538L108.023,48.538L108.116,48.538L108.2,48.538L108.287,48.538L108.464,27L108.553,27L108.646,27L108.73,27L108.817,27L108.995,27L109.083,27L109.176,27L109.26,27L109.347,27L109.525,27L109.613,27L109.706,27L109.791,27L109.877,27L110.054,27L110.143,27L110.236,27L110.32,27L110.408,27L110.584,27L110.672,27L110.766,27L110.85,27L110.937,27L111.115,27L111.203,27L111.297,27L111.381,27L111.468,27L111.645,27L111.733,27L111.827,27L111.911,27L111.997,27L112.174,27L112.263,27L112.357,27L112.441,27L112.528,27L112.705,27L112.794,27L112.887,27L112.971,27L113.058,27L113.236,27L113.324,27L113.417,27L113.502,27L113.588,27L113.765,27L113.854,27L113.946,27L114.031,27L114.118,27L114.296,27L114.384,27L114.477,27L114.561,27L114.649,27L114.826,27L114.915,27L115.008,27L115.092,27L115.179,27L115.356,27L115.445,27L115.538,27L115.622,27L115.709,27L115.886,27L115.975,27L116.069,27L116.153,27L116.239,27L116.417,27L116.505,27L116.599,27L116.682,27L116.769,27L116.947,27L117.035,27L117.129,27L117.212,27L117.299,27L117.477,27L117.565,27L117.658,27L117.743,27L117.829,27L118.007,27L118.095,27L118.188,27L118.272,27L118.36,27L118.537,27L118.626,27L118.72,27L118.803,27L118.89,27L119.067,27L119.156,27L119.249,27L119.333,27L119.42,27L119.597,27L119.686,27L119.779,27L119.864,27L119.95,27L120.127,27L120.216,27L120.309,27L120.393,27L120.48,27L120.657,27L120.746,27L120.839,27L120.924,27L121.01,27L121.187,27L121.275,27L121.368,27L121.453,27L121.541,27L121.718,27L121.806,27L121.899,27L121.983,27L122.07,27L122.248,27L122.337,27L122.43,27L122.513,27L122.601,27L122.779,27L122.867,27L122.96,27L123.043,27L123.131,27L123.308,27L123.397,27L123.489,27L123.574,27L123.661,27L123.838,27L123.927,27L124.021,27L124.105,27L124.191,27L124.368,27L124.457,27L124.55,27L124.634,27L124.721,27L124.899,27L124.986,27L125.08,27L125.164,27L125.251,27L125.429,27L125.517,27L125.61,27L125.694,27L125.782,27L125.96,27L126.048,27L126.142,27L126.225,27L126.312,27L126.489,27L126.578,27L126.671,27L126.755,27L126.842,27L127.019,27L127.108,27L127.202,27L127.286,27L127.372,27L127.55,27L127.638,27L127.732,27L127.815,27L127.902,27L128.08,27L128.168,27L128.262,27L128.345,27L128.432,27L128.61,27L128.698,27L128.791,27L128.876,27L128.962,27L129.14,27L129.228,27L129.322,27L129.405,27L129.492,27L129.67,27L129.759,27L129.853,27L129.936,27L130.023,27L130.2,27L130.289,27L130.383,27L130.466,27L130.553,27L130.731,27L130.819,27L130.913,27L130.996,27L131.083,27L131.261,27L131.349,27L131.443,27L131.526,27L131.613,27L131.791,27L131.879,27L131.973,27L132.057,27L132.143,27L132.321,27L132.409,27L132.502,27L132.586,27L132.673,27L132.851,27L132.939,27L133.032,27L133.117,27L133.204,27L133.381,27L133.47,27L133.564,27L133.647,27L133.734,27L133.911,27L134,27L134.094,27L134.177,27L134.264,27L134.442,27L134.53,27L134.624,27L134.707,27L134.794,27L134.972,27L135.061,27L135.154,27L135.238,27L135.324,27L135.502,27L135.59,27L135.684,27L135.767,27L135.854,27L136.032,46.231L136.12,46.231L136.213,46.231L136.297,46.231L136.384,46.231L136.562,46.231L136.65,46.231L136.744,46.231L136.828,46.231L136.914,46.231L137.093,46.231L137.181,46.231L137.276,46.231L137.359,46.231L137.445,46.231L137.621,46.231L137.711,46.231L137.805,46.231L137.888,46.231L137.975,46.231L138.153,46.231L138.241,46.231L138.335,46.231L138.418,46.231L138.505,46.231L138.683,53.923L138.771,53.923L138.866,53.923L138.949,53.923L139.035,53.923L139.213,53.923L139.301,53.923L139.396,53.923L139.479,53.923L139.565,53.923L139.743,53.923L139.831,53.923L139.924,53.923L140.008,53.923L140.095,53.923L140.274,53.923L140.361,53.923L140.455,53.923L140.538,53.923L140.625,53.923L140.803,53.923L140.893,53.923L140.986,53.923L141.069,53.923L141.156,53.923L141.333,53.923L141.423,53.923L141.517,53.923L141.6,53.923L141.686,53.923L141.864,53.923L141.953,53.923L142.047,53.923L142.131,53.923L142.216,53.923L142.394,23.154L142.483,23.154L142.577,23.154L142.66,23.154L142.746,23.154L142.924,23.154L143.013,23.154L143.107,23.154L143.19,23.154L143.454,23.154L143.542,23.154L143.636,23.154L143.719,23.154L143.806,23.154L143.984,23.154L144.072,23.154L144.166,23.154L144.25,23.154L144.336,23.154L144.515,23.154L144.604,23.154L144.698,23.154L144.781,23.154L144.867,23.154L145.045,23.154L145.134,23.154L145.228,23.154L145.311,23.154L145.397,23.154L145.575,23.154L145.664,23.154L145.758,23.154L145.841,23.154L145.928,23.154L146.105,23.154L146.194,23.154L146.288,23.154L146.371,23.154L146.457,23.154L146.635,23.154L146.724,23.154L146.818,23.154L146.901,23.154L146.987,23.154L147.165,23.154L147.253,23.154L147.347,23.154L147.43,23.154L147.517,23.154L147.695,23.154L147.783,23.154L147.877,23.154L147.96,23.154L148.047,23.154L148.225,23.154L148.315,23.154L148.409,23.154L148.492,23.154L148.578,23.154L148.755,23.154L148.845,23.154L148.938,23.154L149.022,23.154L149.108,23.154L149.286,23.154L149.375,23.154L149.469,23.154L149.551,23.154L149.638,23.154L149.816,23.154L149.905,23.154L149.999,23.154L150.081,23.154L150.168,23.154L150.346,23.154L150.434,23.154L150.529,23.154L150.611,23.154L150.699,23.154L150.876,23.154L150.964,23.154L151.058,23.154L151.142,23.154L151.228,23.154L151.406,23.154L151.494,23.154L151.588,23.154L151.671,23.154L151.758,23.154L151.936,23.154L152.025,23.154L152.12,23.154L152.202,23.154L152.289,23.154L152.466,23.154L152.555,23.154L152.65,23.154L152.732,23.154L152.819,23.154L152.997,23.154L153.086,23.154L153.18,23.154L153.262,23.154L153.349,23.154L153.527,23.154L153.616,23.154L153.71,23.154L153.793,23.154L153.879,23.154L154.057,23.154L154.146,23.154L154.24,23.154L154.323,23.154L154.409,23.154L154.587,23.154L154.675,23.154L154.769,23.154L154.852,23.154L154.94,23.154L155.117,23.154L155.206,23.154L155.299,23.154L155.382,23.154L155.469,23.154L155.647,23.154L155.736,23.154L155.83,23.154L155.914,23.154L156,23.154L156.178,23.154L156.266,23.154L156.361,23.154L156.444,23.154L156.53,23.154L156.707,23.154L156.796,23.154L156.89,23.154L156.974,23.154L157.061,23.154L157.238,23.154L157.327,23.154L157.421,23.154L157.504,23.154L157.59,23.154L157.768,23.154L157.856,23.154L157.951,23.154L158.033,23.154L158.12,23.154L158.298,23.154L158.386,23.154L158.48,23.154L158.563,23.154L158.65,23.154L158.828,23.154L158.917,23.154L159.01,23.154L159.093,23.154L159.181,23.154L159.358,23.154L159.447,23.154L159.542,23.154L159.625,23.154L159.711,23.154L159.888,23.154L159.977,23.154L160.072,23.154L160.155,23.154L160.241,23.154L160.419,23.154L160.508,23.154L160.602,23.154L160.685,23.154L160.771,23.154L161.131,23.154L161.214,23.154L161.301,23.154L161.479,23.154L161.567,23.154L161.661,23.154L161.744,23.154L161.831,23.154L162.009,23.154L162.097,23.154L162.191,23.154L162.275,23.154L162.361,23.154L162.539,23.154L162.627,23.154L162.721,23.154L162.804,23.154L162.891,23.154L163.069,23.154L163.158,23.154L163.252,23.154L163.335,23.154L163.421,23.154L163.599,23.154L163.688,23.154L163.782,23.154L163.864,23.154L163.951,23.154L164.13,23.154L164.218,23.154L164.312,23.154L164.395,23.154L164.482,23.154L164.659,58.538L164.748,58.538L164.842,58.538L164.925,58.538L165.012,58.538L165.189,58.538L165.278,58.538L165.372,58.538L165.455,58.538L165.542,58.538L165.719,58.538L165.807,58.538L165.901,58.538L165.985,58.538L166.071,58.538L166.249,58.538L166.337,58.538L166.431,58.538L166.515,58.538L166.601,58.538L166.78,58.538L166.869,58.538L166.963,58.538L167.046,58.538L167.132,58.538L167.31,58.538L167.399,58.538L167.493,58.538L167.576,58.538L167.662,58.538L167.84,58.538L167.929,58.538L168.023,58.538L168.106,58.538L168.193,58.538L168.371,23.154L168.459,23.154L168.554,23.154L168.637,23.154L168.723,23.154L168.901,23.154L168.989,23.154L169.084,23.154L169.167,23.154L169.253,23.154L169.431,23.154L169.519,23.154L169.613,23.154L169.697,23.154L169.783,23.154L169.961,23.154L170.049,23.154L170.143,23.154L170.226,23.154L170.313,23.154L170.492,23.154L170.581,23.154L170.675,23.154L170.758,23.154L170.844,23.154L171.021,23.154L171.111,23.154L171.205,23.154L171.288,23.154L171.374,23.154L171.552,23.154L171.641,23.154L171.735,23.154L171.818,23.154L171.904,23.154L172.082,23.154L172.171,23.154L172.265,23.154L172.348,23.154L172.434,23.154L172.612,23.154L172.701,23.154L172.795,23.154L172.878,23.154L172.965,23.154L173.142,23.154L173.23,23.154L173.324,23.154L173.408,23.154L173.494,23.154L173.672,23.154L173.76,23.154L173.854,23.154L173.938,23.154L174.024,23.154L174.203,23.154L174.292,23.154L174.386,23.154L174.469,23.154L174.555,23.154L174.733,23.154L174.822,23.154L174.916,23.154L174.999,23.154L175.085,23.154L175.263,23.154L175.352,23.154L175.446,23.154L175.529,23.154L175.615,23.154L175.793,23.154L175.882,23.154L175.977,23.154L176.059,23.154L176.145,23.154L176.323,23.154L176.412,23.154L176.506,23.154L176.589,23.154L176.675,23.154L176.853,23.154L176.941,23.154L177.035,23.154L177.118,23.154L177.205,23.154L177.383,23.154L177.471,23.154L177.566,23.154L177.648,23.154L177.735,23.154L177.914,23.154L178.003,23.154L178.098,23.154L178.18,23.154L178.266,23.154L178.444,23.154L178.533,23.154L178.627,23.154L178.71,23.154L178.796,23.154L178.974,23.154L179.063,23.154L179.158,23.154L179.241,23.154L179.326,23.154L179.504,23.154L179.593,23.154L179.688,23.154L179.77,23.154L179.856,23.154L180.034,23.154L180.123,23.154L180.218,23.154L180.3,23.154L180.386,23.154L180.564,23.154L180.652,23.154L180.746,23.154L180.829,23.154L180.916,23.154L181.094,23.154L181.182,23.154L181.277,23.154L181.359,23.154L181.446,23.154L181.625,23.154L181.714,23.154L181.809,23.154L181.891,23.154L181.977,23.154L182.155,23.154L182.244,23.154L182.339,23.154L182.421,23.154L182.507,23.154L182.685,23.154L182.774,23.154L182.869,23.154L182.951,23.154L183.037,23.154L183.215,23.154L183.304,23.154L183.399,23.154L183.481,23.154L183.567,23.154L183.745,23.154L183.834,23.154L183.929,23.154L184.011,23.154L184.097,23.154L184.275,23.154L184.363,23.154L184.457,23.154L184.54,23.154L184.627,23.154L184.805,23.154L184.893,23.154L184.988,23.154L185.07,23.154L185.157,23.154L185.336,23.154L185.425,23.154L185.519,23.154L185.602,23.154L185.688,23.154L185.865,23.154L185.955,23.154L186.049,23.154L186.132,23.154L186.218,23.154L186.395,23.154L186.485,23.154L186.579,23.154L186.662,23.154L186.748,23.154L186.925,23.154L187.014,23.154L187.109,23.154L187.191,23.154L187.278,23.154L187.455,23.154L187.544,23.154L187.638,23.154L187.72,23.154L187.807,23.154L187.985,23.154L188.073,23.154L188.167,23.154L188.25,23.154L188.337,23.154L188.515,23.154L188.603,23.154L188.697,23.154L188.78,23.154L188.867,23.154L189.046,23.154L189.134,23.154L189.228,23.154L189.311,23.154L189.398,23.154L189.575,23.154L189.664,23.154L189.758,23.154L189.841,23.154L189.928,23.154L190.106,23.154L190.194,23.154L190.288,23.154L190.371,23.154L190.458,23.154L190.636,23.154L190.724,23.154L190.819,23.154L190.901,23.154L190.988,23.154L191.166,23.154L191.254,23.154L191.348,23.154L191.431,23.154L191.518,23.154L191.696,23.154L191.784,23.154L191.878,23.154L191.961,23.154L192.048,23.154L192.226,23.154L192.314,23.154L192.408,23.154L192.491,23.154L192.578,23.154L192.756,23.154L192.845,23.154L192.939,23.154L193.022,23.154L193.108,23.154L193.286,23.154L193.375,23.154L193.469,23.154L193.552,23.154L193.639,23.154L193.817,23.154L193.905,23.154L193.999,23.154L194.082,23.154L194.169,23.154L194.347,23.154L194.435,23.154L194.529,23.154L194.612,23.154L194.699,23.154L194.877,23.154L194.965,23.154L195.06,23.154L195.143,23.154L195.229,23.154L195.407,23.154L195.495,23.154L195.589,23.154L195.672,23.154L195.759,23.154L195.937,23.154L196.025,23.154L196.119,23.154L196.202,23.154L196.289,23.154L196.467,23.154L196.556,23.154L196.651,23.154L196.734,23.154L196.82,23.154L196.997,23.154L197.086,23.154L197.181,23.154L197.267,23.154L197.35,23.154L197.527,23.154L197.617,23.154L197.711,23.154L197.794,23.154L197.88,23.154L198.058,23.154L198.146,23.154L198.241,23.154L198.324,23.154L198.41,23.154L198.588,23.154L198.677,23.154L198.771,23.154L198.854,23.154L198.94,23.154L199.117,23.154L199.206,23.154L199.3,23.154L199.383,23.154L199.47,23.154L199.648,23.154L199.736,23.154L199.83,23.154L199.913,23.154L200,23.154" stroke="#4c78a8" stroke-width="2"/></g></g><path class="foreground" aria-hidden="true" d="" display="none"/></g><g transform="translate(0,0)"><path class="background" aria-hidden="true" d="M0,0h200v200h-200Z"/><g><g class="mark-line role-mark marks" role="graphics-object" aria-roledescription="line mark container"><path aria-label="Time: Jan 01, 2024; Price: 2499; identifier: altex-LG-F2WR508SBM" role="graphics-symbol" aria-roledescription="line mark" d="M0,7.769L0.056,7.769L0.139,7.769L0.316,7.769L0.405,7.769L0.498,7.769L0.582,7.769L0.67,7.769L0.846,7.769L0.935,7.769L1.028,7.769L1.112,7.769L1.2,7.769L1.376,7.769L1.465,7.769L1.558,7.769L1.643,7.769L1.73,7.769L1.907,27L1.995,27L2.088,27L2.173,27L2.26,27L2.437,27L2.525,27L2.618,27L2.702,27L2.79,27L2.967,27L3.055,27L3.148,27L3.233,27L3.32,27L3.497,27L3.586,27L3.679,27L3.763,27L3.85,27L4.028,27L4.116,27L4.21,27L4.294,27L4.38,27L4.558,27L4.646,27L4.739,27L4.823,27L4.911,27L5.088,27L5.176,27L5.269,27L5.354,27L5.441,27L5.618,27L5.706,27L5.799,27L5.884,27L5.971,27L6.148,38.538L6.236,38.538L6.329,38.538L6.413,38.538L6.501,38.538L6.678,38.538L6.766,38.538L6.859,38.538L6.943,38.538L7.031,38.538L7.208,38.538L7.297,38.538L7.39,38.538L7.475,38.538L7.561,38.538L7.738,38.538L7.827,38.538L7.92,38.538L8.005,38.538L8.091,38.538L8.269,38.538L8.357,38.538L8.45,38.538L8.535,38.538L8.622,38.538L8.799,38.538L8.887,38.538L8.98,38.538L9.065,38.538L9.152,38.538L9.329,38.538L9.417,38.538L9.51,38.538L9.595,38.538L9.682,38.538L9.859,38.538L9.947,38.538L10.04,38.538L10.125,38.538L10.212,38.538L10.389,38.538L10.477,38.538L10.57,38.538L10.655,38.538L10.742,38.538L10.92,38.538L11.008,38.538L11.101,38.538L11.185,38.538L11.272,38.538L11.449,38.538L11.538,38.538L11.631,38.538L11.716,38.538L11.802,38.538L11.98,38.538L12.068,38.538L12.161,38.538L12.246,38.538L12.333,38.538L12.51,38.538L12.598,38.538L12.692,38.538L12.776,38.538L12.863,38.538L13.04,38.538L13.128,38.538L13.22,38.538L13.305,38.538L13.393,38.538L13.569,38.538L13.658,38.538L13.749,38.538L13.835,38.538L13.923,38.538L14.1,38.538L14.188,38.538L14.279,38.538L14.365,38.538L14.453,38.538L14.63,38.538L14.718,38.538L14.81,38.538L14.895,38.538L14.983,38.538L15.16,38.538L15.248,38.538L15.34,38.538L15.426,38.538L15.513,38.538L15.69,38.538L15.778,38.538L15.87,38.538L15.955,38.538L16.043,38.538L16.22,27L16.309,27L16.401,27L16.485,27L16.573,27L16.75,27L16.839,27L16.93,27L17.015,27L17.104,27L17.28,27L17.369,27L17.46,27L17.545,27L17.634,27L17.811,27L17.899,27L17.99,27L18.076,27L18.164,27L18.341,27L18.429,27L18.521,27L18.606,27L18.694,27L18.871,27L18.959,27L19.051,27L19.136,27L19.224,27L19.401,27L19.489,27L19.581,27L19.667,27L19.754,27L19.931,27L20.02,27L20.111,27L20.197,27L20.284,27L20.461,27L20.55,27L20.641,27L20.726,27L20.815,27L20.991,27L21.08,27L21.171,27L21.256,27L21.345,27L21.522,27L21.61,27L21.701,27L21.787,27L21.875,27L22.052,27L22.14,27L22.232,27L22.317,27L22.405,27L22.582,27L22.67,27L22.762,27L22.848,27L22.935,27L23.112,27L23.2,27L23.292,27L23.377,27L23.465,27L23.73,27L23.822,27L23.907,27L23.996,27L24.172,27L24.261,27L24.352,27L24.438,27L24.526,27L24.702,27L24.791,27L24.882,27L24.967,27L25.056,27L25.232,27L25.321,27L25.412,27L25.498,27L25.586,27L25.763,27L25.851,27L25.943,27L26.029,27L26.116,27L26.293,27L26.381,27L26.473,27L26.558,27L26.646,27L26.823,27L26.911,27L27.003,27L27.088,27L27.176,27L27.353,27L27.441,27L27.533,27L27.618,27L27.706,27L27.883,27L27.971,27L28.063,27L28.148,27L28.237,27L28.413,27L28.502,27L28.593,27L28.678,27L28.766,27L28.943,27L29.032,27L29.123,27L29.209,27L29.297,27L29.473,27L29.562,27L29.654,27L29.739,27L29.827,27L30.004,27L30.092,27L30.184,27L30.269,27L30.357,27L30.534,27L30.622,27L30.714,27L30.799,27L30.887,27L31.064,27L31.152,27L31.244,27L31.329,27L31.417,27L31.594,27L31.683,27L31.774,27L31.859,27L31.947,27L32.124,27L32.213,27L32.304,27L32.389,27L32.478,27L32.654,27L32.743,27L32.834,27L32.919,27L33.008,27L33.193,27L33.313,27L33.366,27L33.45,27L33.538,27L33.714,27L33.803,27L33.895,27L33.98,27L34.068,27L34.245,27L34.334,27L34.425,27L34.51,27L34.598,27L34.775,27L34.863,27L34.955,38.538L35.04,38.538L35.128,38.538L35.305,38.538L35.395,38.538L35.485,38.538L35.57,38.538L35.658,38.538L35.835,38.538L35.924,38.538L36.014,38.538L36.101,38.538L36.188,38.538L36.365,38.538L36.454,38.538L36.545,38.538L36.631,38.538L36.719,38.538L36.896,38.538L36.984,38.538L37.076,38.538L37.161,38.538L37.249,38.538L37.426,38.538L37.514,38.538L37.606,38.538L37.691,38.538L37.779,38.538L37.956,38.538L38.045,38.538L38.136,38.538L38.221,38.538L38.309,38.538L38.486,38.538L38.574,38.538L38.666,38.538L38.751,38.538L38.839,38.538L39.016,38.538L39.105,38.538L39.196,38.538L39.281,38.538L39.369,38.538L39.546,38.538L39.635,38.538L39.726,38.538L39.811,38.538L39.9,38.538L40.076,38.538L40.165,38.538L40.256,38.538L40.341,38.538L40.43,38.538L40.606,38.538L40.695,38.538L40.787,38.538L40.872,38.538L40.96,38.538L41.137,38.538L41.225,38.538L41.317,38.538L41.403,38.538L41.49,38.538L41.667,38.538L41.755,38.538L41.847,38.538L41.933,38.538L42.02,38.538L42.197,38.538L42.285,38.538L42.377,38.538L42.463,38.538L42.55,38.538L42.727,38.538L42.815,38.538L42.907,38.538L42.992,38.538L43.08,38.538L43.257,38.538L43.345,38.538L43.437,38.538L43.522,38.538L43.61,38.538L43.787,38.538L43.875,38.538L43.968,38.538L44.052,38.538L44.14,38.538L44.317,38.538L44.406,38.538L44.498,38.538L44.583,38.538L44.671,38.538L44.847,38.538L44.936,38.538L45.028,38.538L45.113,38.538L45.201,38.538L45.378,38.538L45.466,38.538L45.558,38.538L45.644,38.538L45.731,38.538L45.908,38.538L45.996,38.538L46.088,38.538L46.173,38.538L46.261,38.538L46.438,38.538L46.526,38.538L46.618,38.538L46.703,38.538L46.791,38.538L46.968,38.538L47.056,38.538L47.147,38.538L47.233,38.538L47.322,38.538L47.498,38.538L47.587,38.538L47.678,38.538L47.764,38.538L47.851,38.538L48.028,38.538L48.117,38.538L48.209,38.538L48.295,38.538L48.382,38.538L48.559,38.538L48.647,38.538L48.739,38.538L48.824,38.538L48.912,38.538L49.088,38.538L49.177,38.538L49.269,38.538L49.354,38.538L49.442,38.538L49.619,38.538L49.707,38.538L49.799,38.538L49.884,38.538L49.972,38.538L50.149,38.538L50.329,38.538L50.414,38.538L50.502,38.538L50.679,38.538L50.767,38.538L50.858,38.538L50.944,38.538L51.032,38.538L51.209,38.538L51.297,38.538L51.389,38.538L51.474,38.538L51.562,38.538L51.739,38.538L51.827,38.538L51.92,38.538L52.005,38.538L52.093,38.538L52.269,38.538L52.358,38.538L52.45,38.538L52.535,38.538L52.623,38.538L52.799,38.538L52.888,38.538L52.98,38.538L53.066,38.538L53.153,38.538L53.33,38.538L53.419,38.538L53.51,38.538L53.683,38.538L53.86,38.538L53.949,38.538L54.04,38.538L54.125,38.538L54.213,38.538L54.39,38.538L54.478,38.538L54.568,38.538L54.655,38.538L54.743,38.538L54.928,38.538L55.064,38.538L55.147,38.538L55.318,38.538L55.451,38.538L55.538,38.538L55.629,38.538L55.715,38.538L55.803,38.538L55.98,38.538L56.069,38.538L56.161,38.538L56.245,38.538L56.334,38.538L56.51,38.538L56.599,38.538L56.691,38.538L56.776,38.538L56.864,38.538L57.129,38.538L57.221,38.538L57.306,38.538L57.394,38.538L57.571,38.538L57.659,38.538L57.751,38.538L57.836,38.538L57.924,38.538L58.101,38.538L58.189,38.538L58.281,38.538L58.366,38.538L58.454,38.538L58.631,38.538L58.719,38.538L58.811,38.538L58.896,38.538L58.984,38.538L59.161,38.538L59.25,38.538L59.342,38.538L59.427,38.538L59.514,38.538L59.691,38.538L59.78,38.538L59.872,38.538L59.957,38.538L60.045,38.538L60.221,38.538L60.31,38.538L60.405,38.538L60.487,38.538L60.575,38.538L60.751,38.538L60.84,38.538L60.93,38.538L61.017,38.538L61.105,38.538L61.281,38.538L61.37,38.538L61.462,38.538L61.547,38.538L61.635,38.538L61.812,38.538L61.9,38.538L61.991,38.538L62.077,38.538L62.165,38.538L62.342,38.538L62.43,38.538L62.522,38.538L62.607,38.538L62.695,38.538L62.872,38.538L62.962,38.538L63.053,38.538L63.137,38.538L63.225,38.538L63.402,38.538L63.491,38.538L63.583,38.538L63.668,38.538L63.756,38.538L63.932,38.538L64.022,38.538L64.114,38.538L64.198,38.538L64.286,38.538L64.463,38.538L64.551,38.538L64.644,38.538L64.728,38.538L64.816,38.538L64.993,38.538L65.081,38.538L65.173,38.538L65.258,38.538L65.346,38.538L65.523,38.538L65.611,38.538L65.703,38.538L65.788,38.538L65.876,38.538L66.053,38.538L66.141,38.538L66.233,38.538L66.318,38.538L66.406,38.538L66.583,38.538L66.672,38.538L66.764,38.538L66.849,38.538L66.936,38.538L67.113,38.538L67.202,38.538L67.294,30.846L67.379,30.846L67.467,30.846L67.643,30.846L67.732,30.846L67.825,30.846L67.91,30.846L67.996,30.846L68.174,30.846L68.263,30.846L68.354,30.846L68.44,30.846L68.527,30.846L68.703,30.846L68.792,30.846L68.885,30.846L68.969,30.846L69.057,30.846L69.234,30.846L69.322,30.846L69.414,30.846L69.499,30.846L69.587,30.846L69.764,30.846L69.852,30.846L69.945,30.846L70.029,30.846L70.117,30.846L70.294,30.846L70.383,30.846L70.476,30.846L70.56,30.846L70.647,30.846L70.824,30.846L70.913,30.846L71.006,30.846L71.09,30.846L71.177,30.846L71.354,30.846L71.443,30.846L71.536,30.846L71.62,30.846L71.708,30.846L71.884,30.846L71.973,30.846L72.066,30.846L72.15,30.846L72.238,30.846L72.414,30.846L72.503,30.846L72.596,30.846L72.68,30.846L72.768,30.846L72.944,30.846L73.033,30.846L73.126,30.846L73.21,30.846L73.298,30.846L73.475,30.846L73.563,30.846L73.655,30.846L73.74,30.846L73.828,30.846L74.006,30.846L74.093,30.846L74.187,30.846L74.271,30.846L74.358,30.846L74.535,30.846L74.624,30.846L74.717,30.846L74.801,30.846L74.889,30.846L75.065,30.846L75.154,30.846L75.247,38.538L75.331,38.538L75.418,38.538L75.595,38.538L75.684,38.538L75.777,38.538L75.862,38.538L75.948,38.538L76.126,38.538L76.214,38.538L76.307,38.538L76.391,38.538L76.479,38.538L76.656,38.538L76.744,38.538L76.836,38.538L76.921,38.538L77.009,38.538L77.186,38.538L77.274,38.538L77.366,38.538L77.451,38.538L77.54,38.538L77.716,38.538L77.805,38.538L77.898,38.538L77.982,38.538L78.069,38.538L78.248,38.538L78.335,38.538L78.428,38.538L78.512,38.538L78.599,38.538L78.777,38.538L78.865,38.538L78.958,38.538L79.042,38.538L79.129,38.538L79.307,38.538L79.395,38.538L79.488,38.538L79.572,38.538L79.659,38.538L79.837,30.846L79.925,30.846L80.018,30.846L80.102,30.846L80.19,30.846L80.366,30.846L80.455,30.846L80.547,30.846L80.632,30.846L80.72,30.846L80.897,30.846L80.985,30.846L81.077,30.846L81.162,30.846L81.25,30.846L81.427,30.846L81.516,30.846L81.609,30.846L81.693,30.846L81.781,30.846L81.957,30.846L82.046,30.846L82.139,30.846L82.223,30.846L82.31,30.846L82.488,30.846L82.576,30.846L82.669,30.846L82.753,30.846L82.84,30.846L83.017,30.846L83.106,30.846L83.199,30.846L83.283,30.846L83.37,30.846L83.548,30.846L83.636,30.846L83.73,30.846L83.814,30.846L83.901,30.846L84.078,30.846L84.166,30.846L84.258,30.846L84.343,30.846L84.431,30.846L84.608,30.846L84.696,30.846L84.789,30.846L84.873,30.846L84.961,30.846L85.139,30.846L85.227,30.846L85.32,30.846L85.404,30.846L85.491,30.846L85.669,30.846L85.757,30.846L85.85,30.846L85.934,30.846L86.022,30.846L86.198,30.846L86.287,34.692L86.38,34.692L86.464,34.692L86.551,34.692L86.729,34.692L86.817,34.692L86.91,34.692L86.995,34.692L87.082,34.692L87.258,34.692L87.347,34.692L87.44,40.077L87.524,40.077L87.612,40.077L87.789,40.077L87.878,40.077L87.97,40.077L88.054,40.077L88.142,40.077L88.319,40.077L88.407,40.077L88.5,40.077L88.584,40.077L88.672,40.077L88.85,40.077L88.938,40.077L89.031,40.077L89.115,40.077L89.202,40.077L89.379,40.077L89.468,40.077L89.561,40.077L89.645,40.077L89.732,40.077L89.909,40.077L89.998,40.077L90.091,40.077L90.175,40.077L90.262,40.077L90.439,40.077L90.528,40.077L90.621,40.077L90.706,40.077L90.792,40.077L90.97,40.077L91.058,40.077L91.151,40.077L91.235,40.077L91.323,40.077L91.499,40.077L91.588,40.077L91.682,40.077L91.765,40.077L91.853,40.077L92.03,40.077L92.118,40.077L92.211,40.077L92.295,40.077L92.383,40.077L92.56,40.077L92.649,40.077L92.742,40.077L92.826,40.077L92.913,40.077L93.09,40.077L93.179,40.077L93.272,40.077L93.443,40.077L93.621,40.077L93.709,40.077L93.802,40.077L93.886,40.077L93.973,40.077L94.151,40.077L94.239,40.077L94.332,40.077L94.416,40.077L94.504,40.077L94.68,40.077L94.769,40.077L94.863,40.077L94.946,40.077L95.034,40.077L95.211,40.077L95.299,40.077L95.392,40.077L95.476,40.077L95.564,40.077L95.74,40.077L95.829,40.077L95.922,40.077L96.006,40.077L96.094,40.077L96.271,40.077L96.36,40.077L96.453,40.077L96.537,40.077L96.624,40.077L96.801,40.077L96.89,40.077L96.983,40.077L97.067,40.077L97.154,40.077L97.331,40.077L97.42,40.077L97.513,40.077L97.598,40.077L97.684,40.077L97.862,40.077L97.95,40.077L98.043,40.077L98.127,40.077L98.215,40.077L98.392,40.077L98.48,40.077L98.573,40.077L98.657,40.077L98.744,40.077L98.922,40.077L99.01,40.077L99.102,40.077L99.187,40.077L99.275,40.077L99.451,40.077L99.54,40.077L99.633,40.077L99.717,40.077L99.805,40.077L99.982,40.077L100.071,40.077L100.163,40.077L100.248,40.077L100.335,40.077L100.512,40.077L100.601,40.077L100.694,40.077L100.778,40.077L100.865,40.077L101.042,40.077L101.131,40.077L101.224,40.077L101.308,40.077L101.395,40.077L101.573,40.077L101.661,40.077L101.755,40.077L101.838,40.077L101.925,40.077L102.102,40.077L102.191,40.077L102.285,40.077L102.368,40.077L102.456,40.077L102.632,40.077L102.72,40.077L102.813,40.077L102.898,40.077L102.985,40.077L103.163,40.077L103.252,40.077L103.35,40.077L103.433,40.077L103.515,40.077L103.693,40.077L103.782,40.077L103.875,40.077L103.959,40.077L104.046,40.077L104.223,40.077L104.312,40.077L104.404,40.077L104.489,40.077L104.576,40.077L104.753,40.077L104.842,40.077L104.935,40.077L105.019,40.077L105.106,40.077L105.284,40.077L105.372,40.077L105.466,40.077L105.549,40.077L105.636,40.077L105.814,40.077L105.902,40.077L105.995,40.077L106.08,40.077L106.167,40.077L106.344,40.077L106.432,40.077L106.525,40.077L106.609,40.077L106.697,40.077L106.873,40.077L106.962,40.077L107.055,40.077L107.14,40.077L107.226,40.077L107.404,40.077L107.493,40.077L107.586,40.077L107.67,40.077L107.757,40.077L107.934,40.077L108.023,40.077L108.116,40.077L108.2,40.077L108.287,40.077L108.464,40.077L108.553,40.077L108.646,40.077L108.73,40.077L108.817,40.077L108.995,40.077L109.083,40.077L109.176,40.077L109.26,40.077L109.347,40.077L109.525,40.077L109.613,40.077L109.706,40.077L109.791,40.077L109.877,40.077L110.054,40.077L110.143,40.077L110.236,40.077L110.32,40.077L110.408,40.077L110.584,40.077L110.672,40.077L110.766,40.077L110.85,40.077L110.937,40.077L111.115,40.077L111.203,40.077L111.297,40.077L111.381,40.077L111.468,40.077L111.645,40.077L111.733,40.077L111.827,40.077L111.911,40.077L111.998,40.077L112.174,40.077L112.263,40.077L112.358,40.077L112.441,40.077L112.528,40.077L112.705,40.077L112.794,40.077L112.887,40.077L112.971,40.077L113.058,40.077L113.236,40.077L113.324,40.077L113.417,40.077L113.502,40.077L113.588,40.077L113.765,40.077L113.854,40.077L113.946,40.077L114.031,40.077L114.118,40.077L114.296,40.077L114.384,40.077L114.477,40.077L114.561,40.077L114.649,40.077L114.826,40.077L114.915,40.077L115.008,40.077L115.092,40.077L115.179,40.077L115.356,40.077L115.445,40.077L115.538,40.077L115.622,40.077L115.709,40.077L115.886,40.077L115.975,40.077L116.069,40.077L116.153,40.077L116.239,40.077L116.417,40.077L116.505,40.077L116.599,40.077L116.682,40.077L116.769,40.077L116.947,40.077L117.035,40.077L117.129,40.077L117.212,40.077L117.299,40.077L117.477,40.077L117.565,40.077L117.658,40.077L117.743,40.077L117.829,40.077L118.007,40.077L118.095,40.077L118.188,40.077L118.272,40.077L118.36,40.077L118.537,40.077L118.626,40.077L118.72,40.077L118.803,40.077L118.89,40.077L119.067,40.077L119.156,40.077L119.249,40.077L119.333,40.077L119.42,40.077L119.597,40.077L119.686,40.077L119.779,40.077L119.864,40.077L119.95,40.077L120.127,40.077L120.216,40.077L120.309,40.077L120.393,40.077L120.48,40.077L120.657,40.077L120.746,40.077L120.839,40.077L120.924,40.077L121.01,40.077L121.188,40.077L121.275,40.077L121.368,40.077L121.453,40.077L121.541,40.077L121.718,40.077L121.806,40.077L121.899,40.077L121.983,40.077L122.07,40.077L122.248,40.077L122.337,40.077L122.43,40.077L122.513,40.077L122.601,40.077L122.779,40.077L122.867,40.077L122.96,40.077L123.043,40.077L123.131,40.077L123.308,40.077L123.397,40.077L123.489,40.077L123.574,40.077L123.661,40.077L123.838,40.077L123.927,40.077L124.021,40.077L124.105,40.077L124.191,40.077L124.368,40.077L124.457,40.077L124.55,40.077L124.634,40.077L124.721,40.077L124.899,40.077L124.986,40.077L125.08,40.077L125.164,40.077L125.251,40.077L125.429,40.077L125.517,40.077L125.61,40.077L125.694,40.077L125.782,40.077L125.96,40.077L126.048,40.077L126.142,40.077L126.225,40.077L126.312,40.077L126.489,40.077L126.578,40.077L126.671,40.077L126.755,40.077L126.842,40.077L127.019,40.077L127.108,40.077L127.202,40.077L127.286,40.077L127.372,40.077L127.55,40.077L127.638,40.077L127.732,40.077L127.815,40.077L127.902,40.077L128.08,40.077L128.168,40.077L128.262,40.077L128.345,40.077L128.432,40.077L128.61,40.077L128.698,40.077L128.791,40.077L128.876,40.077L128.962,40.077L129.14,40.077L129.228,40.077L129.322,40.077L129.405,40.077L129.492,40.077L129.67,40.077L129.759,40.077L129.853,40.077L129.936,40.077L130.023,40.077L130.2,40.077L130.289,40.077L130.383,40.077L130.466,40.077L130.553,40.077L130.731,40.077L130.819,40.077L130.913,40.077L130.996,40.077L131.083,40.077L131.261,40.077L131.349,40.077L131.443,40.077L131.526,40.077L131.613,40.077L131.791,40.077L131.879,40.077L131.973,40.077L132.057,40.077L132.143,40.077L132.321,40.077L132.409,40.077L132.502,40.077L132.586,40.077L132.673,40.077L132.851,40.077L132.939,40.077L133.032,40.077L133.117,40.077L133.204,40.077L133.381,40.077L133.47,40.077L133.564,40.077L133.647,40.077L133.734,40.077L133.911,40.077L134,40.077L134.094,40.077L134.177,40.077L134.264,40.077L134.442,40.077L134.53,40.077L134.624,40.077L134.707,40.077L134.794,40.077L134.972,40.077L135.061,40.077L135.154,40.077L135.238,40.077L135.324,40.077L135.502,40.077L135.59,40.077L135.684,40.077L135.767,40.077L135.854,40.077L136.032,40.077L136.12,40.077L136.213,40.077L136.297,40.077L136.384,40.077L136.562,40.077L136.65,40.077L136.744,40.077L136.828,40.077L136.914,40.077L137.093,40.077L137.181,40.077L137.276,40.077L137.359,40.077L137.445,40.077L137.621,40.077L137.711,40.077L137.805,40.077L137.888,40.077L137.975,40.077L138.153,40.077L138.241,40.077L138.335,40.077L138.418,40.077L138.505,40.077L138.683,40.077L138.771,40.077L138.866,40.077L138.949,40.077L139.035,40.077L139.213,40.077L139.301,40.077L139.396,40.077L139.479,40.077L139.565,40.077L139.743,40.077L139.831,40.077L139.924,40.077L140.008,40.077L140.095,40.077L140.274,40.077L140.361,40.077L140.455,40.077L140.538,40.077L140.625,40.077L140.803,40.077L140.893,40.077L140.986,40.077L141.069,40.077L141.156,40.077L141.334,40.077L141.423,40.077L141.517,40.077L141.6,40.077L141.686,40.077L141.864,40.077L141.953,40.077L142.047,40.077L142.131,40.077L142.216,40.077L142.394,40.077L142.483,40.077L142.577,40.077L142.66,40.077L142.746,40.077L142.924,40.077L143.013,40.077L143.107,40.077L143.19,40.077L143.454,40.077L143.542,40.077L143.636,40.077L143.719,40.077L143.806,40.077L143.984,40.077L144.072,40.077L144.166,40.077L144.25,40.077L144.336,40.077L144.515,40.077L144.604,40.077L144.698,40.077L144.781,40.077L144.867,40.077L145.045,40.077L145.134,40.077L145.228,40.077L145.311,40.077L145.397,40.077L145.575,40.077L145.664,40.077L145.758,40.077L145.841,40.077L145.928,40.077L146.105,40.077L146.194,50.077L146.288,50.077L146.371,50.077L146.457,50.077L146.635,50.077L146.724,50.077L146.818,50.077L146.901,50.077L146.987,50.077L147.165,50.077L147.253,50.077L147.347,50.077L147.43,50.077L147.517,50.077L147.695,50.077L147.783,50.077L147.877,50.077L147.96,50.077L148.047,50.077L148.225,50.077L148.315,50.077L148.409,50.077L148.492,50.077L148.578,50.077L148.755,50.077L148.845,30.846L148.938,30.846L149.022,30.846L149.108,30.846L149.286,30.846L149.375,30.846L149.469,50.077L149.551,50.077L149.638,50.077L149.816,50.077L149.905,50.077L149.999,50.077L150.081,50.077L150.168,50.077L150.346,50.077L150.434,50.077L150.529,50.077L150.611,50.077L150.699,50.077L150.876,50.077L150.964,50.077L151.058,50.077L151.142,50.077L151.228,50.077L151.406,50.077L151.494,50.077L151.588,50.077L151.671,50.077L151.758,50.077L151.936,50.077L152.025,50.077L152.12,50.077L152.202,50.077L152.289,50.077L152.466,50.077L152.555,50.077L152.65,50.077L152.732,50.077L152.819,50.077L152.997,50.077L153.086,50.077L153.18,50.077L153.262,50.077L153.349,50.077L153.527,50.077L153.616,50.077L153.71,50.077L153.793,50.077L153.879,50.077L154.057,50.077L154.146,50.077L154.24,50.077L154.323,50.077L154.409,50.077L154.587,50.077L154.675,50.077L154.769,50.077L154.852,50.077L154.94,50.077L155.117,50.077L155.206,50.077L155.299,50.077L155.382,50.077L155.469,50.077L155.647,50.077L155.736,50.077L155.83,50.077L155.914,50.077L156,50.077L156.178,50.077L156.266,50.077L156.361,50.077L156.444,50.077L156.53,50.077L156.707,50.077L156.796,50.077L156.89,50.077L156.974,50.077L157.061,50.077L157.238,50.077L157.327,50.077L157.421,50.077L157.504,50.077L157.59,50.077L157.768,50.077L157.857,50.077L157.951,50.077L158.034,50.077L158.12,50.077L158.298,50.077L158.386,50.077L158.48,50.077L158.563,50.077L158.65,50.077L158.828,50.077L158.917,50.077L159.01,50.077L159.093,50.077L159.181,50.077L159.358,50.077L159.447,50.077L159.542,50.077L159.625,50.077L159.711,50.077L159.888,50.077L159.977,50.077L160.072,50.077L160.155,50.077L160.241,50.077L160.419,50.077L160.508,50.077L160.602,50.077L160.685,50.077L160.771,50.077L161.132,50.077L161.214,50.077L161.301,50.077L161.479,50.077L161.567,50.077L161.661,50.077L161.744,50.077L161.831,50.077L162.009,50.077L162.097,50.077L162.191,50.077L162.275,50.077L162.361,50.077L162.539,50.077L162.627,50.077L162.721,50.077L162.804,50.077L162.891,50.077L163.069,50.077L163.158,50.077L163.252,50.077L163.335,50.077L163.421,50.077L163.599,50.077L163.688,50.077L163.782,50.077L163.864,50.077L163.952,50.077L164.13,50.077L164.218,50.077L164.312,50.077L164.395,50.077L164.482,50.077L164.659,50.077L164.748,50.077L164.842,50.077L164.925,50.077L165.012,50.077L165.189,50.077L165.278,50.077L165.372,50.077L165.455,50.077L165.542,50.077L165.719,50.077L165.807,50.077L165.901,50.077L165.985,50.077L166.071,50.077L166.249,50.077L166.337,50.077L166.431,50.077L166.515,50.077L166.601,50.077L166.78,50.077L166.869,50.077L166.963,50.077L167.046,50.077L167.132,50.077L167.31,50.077L167.399,50.077L167.493,50.077L167.576,50.077L167.662,50.077L167.84,50.077L167.929,50.077L168.023,58.538L168.106,58.538L168.193,58.538L168.371,58.538L168.459,58.538L168.554,58.538L168.637,58.538L168.723,58.538L168.901,58.538L168.989,58.538L169.084,58.538L169.167,58.538L169.253,58.538L169.431,58.538L169.519,58.538L169.613,58.538L169.697,58.538L169.783,58.538L169.961,58.538L170.049,58.538L170.143,58.538L170.226,58.538L170.313,58.538L170.492,58.538L170.581,58.538L170.675,58.538L170.758,58.538L170.844,58.538L171.021,58.538L171.111,58.538L171.205,58.538L171.288,58.538L171.374,58.538L171.552,58.538L171.641,58.538L171.735,58.538L171.818,58.538L171.904,58.538L172.082,46.231L172.171,46.231L172.265,58.538L172.348,58.538L172.434,58.538L172.612,58.538L172.701,58.538L172.795,46.231L172.878,46.231L172.965,46.231L173.142,46.231L173.23,46.231L173.324,46.231L173.408,46.231L173.494,46.231L173.672,46.231L173.76,46.231L173.854,46.231L173.938,46.231L174.024,46.231L174.203,46.231L174.292,46.231L174.386,46.231L174.469,46.231L174.555,46.231L174.733,46.231L174.822,46.231L174.916,46.231L174.999,46.231L175.085,46.231L175.263,46.231L175.352,46.231L175.446,58.538L175.529,58.538L175.615,58.538L175.793,58.538L175.882,58.538L175.977,58.538L176.059,58.538L176.145,58.538L176.323,58.538L176.412,58.538L176.506,58.538L176.589,58.538L176.675,58.538L176.853,58.538L176.941,58.538L177.035,58.538L177.118,58.538L177.205,58.538L177.383,58.538L177.471,58.538L177.566,58.538L177.648,58.538L177.735,58.538L177.914,58.538L178.003,58.538L178.098,58.538L178.18,58.538L178.266,58.538L178.444,30.846L178.533,30.846L178.627,58.538L178.71,58.538L178.796,58.538L178.974,58.538L179.063,58.538L179.158,58.538L179.241,58.538L179.326,58.538L179.504,30.846L179.593,30.846L179.688,46.231L179.77,46.231L179.856,46.231L180.034,30.846L180.123,30.846L180.218,46.231L180.3,46.231L180.386,46.231L180.564,46.231L180.652,46.231L180.746,46.231L180.829,46.231L180.916,46.231L181.094,46.231L181.182,46.231L181.277,46.231L181.359,46.231L181.446,46.231L181.625,46.231L181.714,46.231L181.809,46.231L181.891,46.231L181.977,46.231L182.155,46.231L182.244,46.231L182.339,46.231L182.421,46.231L182.507,46.231L182.685,46.231L182.774,46.231L182.869,46.231L182.951,46.231L183.037,46.231L183.215,46.231L183.304,46.231L183.399,46.231L183.481,46.231L183.567,46.231L183.745,46.231L183.834,46.231L183.929,46.231L184.011,46.231L184.097,46.231L184.275,46.231L184.363,46.231L184.457,46.231L184.54,46.231L184.627,46.231L184.805,46.231L184.893,46.231L184.988,46.231L185.07,46.231L185.157,46.231L185.336,46.231L185.425,46.231L185.519,46.231L185.602,46.231L185.688,46.231L185.865,46.231L185.955,46.231L186.049,46.231L186.132,46.231L186.218,46.231L186.395,46.231L186.485,46.231L186.579,46.231L186.662,46.231L186.748,46.231L186.925,46.231L187.014,46.231L187.109,46.231L187.191,46.231L187.278,46.231L187.455,46.231L187.544,46.231L187.638,46.231L187.72,46.231L187.807,46.231L187.985,46.231L188.073,46.231L188.167,46.231L188.25,46.231L188.337,46.231L188.515,46.231L188.603,46.231L188.697,46.231L188.78,46.231L188.867,46.231L189.046,46.231L189.134,46.231L189.228,46.231L189.311,46.231L189.398,46.231L189.575,46.231L189.664,46.231L189.758,46.231L189.841,46.231L189.928,46.231L190.106,46.231L190.194,46.231L190.288,46.231L190.371,46.231L190.458,46.231L190.636,46.231L190.724,46.231L190.819,46.231L190.901,46.231L190.988,46.231L191.166,46.231L191.254,46.231L191.348,46.231L191.431,46.231L191.518,46.231L191.696,46.231L191.784,46.231L191.878,46.231L191.961,46.231L192.048,46.231L192.226,46.231L192.314,46.231L192.408,46.231L192.491,46.231L192.578,46.231L192.756,46.231L192.845,46.231L192.939,46.231L193.022,46.231L193.108,46.231L193.286,46.231L193.375,46.231L193.469,46.231L193.552,46.231L193.639,46.231L193.817,46.231L193.905,46.231L193.999,46.231L194.082,46.231L194.169,46.231L194.347,46.231L194.435,46.231L194.529,46.231L194.612,46.231L194.699,46.231L194.877,46.231L194.965,46.231L195.06,46.231L195.143,46.231L195.229,46.231L195.407,46.231L195.495,46.231L195.589,46.231L195.672,46.231L195.759,46.231L195.937,46.231L196.025,46.231L196.119,46.231L196.202,46.231L196.289,46.231L196.467,46.231L196.556,46.231L196.651,46.231L196.734,46.231L196.82,46.231L196.997,46.231L197.086,46.231L197.181,46.231L197.267,46.231L197.35,46.231L197.527,46.231L197.617,46.231L197.711,46.231L197.794,46.231L197.88,46.231L198.058,46.231L198.146,46.231L198.241,46.231L198.324,46.231L198.41,46.231L198.588,46.231L198.677,46.231L198.771,46.231L198.854,46.231L198.94,46.231L199.117,46.231L199.206,46.231L199.3,46.231L199.383,46.231L199.47,46.231L199.648,46.231L199.736,46.231L199.83,46.231L199.913,46.231L200,46.231" stroke="#f58518" stroke-width="2"/></g></g><path class="foreground" aria-hidden="true" d="" display="none"/></g></g><g class="mark-group role-legend" role="graphics-symbol" aria-roledescription="legend" aria-label="Symbol legend titled 'identifier' for stroke color with 2 values: altex-LG-F2WR508SBW, altex-LG-F2WR508SBM"><g transform="translate(220,0)"><path class="background" aria-hidden="true" d="M0,0h168v40h-168Z" pointer-events="none"/><g><g class="mark-group role-legend-entry"><g transform="translate(0,16)"><path class="background" aria-hidden="true" d="M0,0h0v0h0Z" pointer-events="none"/><g><g class="mark-group role-scope" role="graphics-object" aria-roledescription="group mark container"><g transform="translate(0,0)"><path class="background" aria-hidden="true" d="M0,0h168v11h-168Z" pointer-events="none" opacity="1"/><g><g class="mark-symbol role-legend-symbol" pointer-events="none"><path transform="translate(6,6)" d="M-5,0L5,0" stroke="#4c78a8" stroke-width="1.5" opacity="1"/></g><g class="mark-text role-legend-label" pointer-events="none"><text text-anchor="start" transform="translate(16,9)" font-family="Liberation Mono" font-size="10px" fill="#000" opacity="1">altex-LG-F2WR508SBW</text></g></g><path class="foreground" aria-hidden="true" d="" pointer-events="none" display="none"/></g><g transform="translate(0,13)"><path class="background" aria-hidden="true" d="M0,0h168v11h-168Z" pointer-events="none" opacity="1"/><g><g class="mark-symbol role-legend-symbol" pointer-events="none"><path transform="translate(6,6)" d="M-5,0L5,0" stroke="#f58518" stroke-width="1.5" opacity="1"/></g><g class="mark-text role-legend-label" pointer-events="none"><text text-anchor="start" transform="translate(16,9)" font-family="Liberation Mono" font-size="10px" fill="#000" opacity="1">altex-LG-F2WR508SBM</text></g></g><path class="foreground" aria-hidden="true" d="" pointer-events="none" display="none"/></g></g></g><path class="foreground" aria-hidden="true" d="" pointer-events="none" display="none"/></g></g><g class="mark-text role-legend-title" pointer-events="none"><text text-anchor="start" transform="translate(0,9)" font-family="Liberation Mono" font-size="11px" font-weight="bold" fill="#000" opacity="1">identifier</text></g></g><path class="foreground" aria-hidden="true" d="" pointer-events="none" display="none"/></g></g></g><path class="foreground" aria-hidden="true" d="" display="none"/></g></g></g></svg>