<svg xmlns="http://www.w3.org/2000/svg" xmlns:xlink="http://www.w3.org/1999/xlink" version="1.1" class="marks" width="460" height="242" viewBox="0 0 460 242"><rect width="460" height="242" fill="white"/><g fill="none" stroke-miterlimit="10" transform="translate(67,5)"><g class="mark-group role-frame root" role="graphics-object" aria-roledescription="group mark container"><g transform="translate(0,0)"><path class="background" aria-hidden="true" d="M0.5,0.5h200v200h-200Z" stroke="#ddd"/><g><g class="mark-group role-axis" aria-hidden="true"><g transform="translate(0.5,200.5)"><path class="background" aria-hidden="true" d="M0,0h0v0h0Z" pointer-events="none"/><g><g class="mark-rule role-axis-grid" pointer-events="none"><line transform="translate(41,-200)" x2="0" y2="200" stroke="#ddd" stroke-width="1" opacity="1"/><line transform="translate(82,-200)" x2="0" y2="200" stroke="#ddd" stroke-width="1" opacity="1"/><line transform="translate(124,-200)" x2="0" y2="200" stroke="#ddd" stroke-width="1" opacity="1"/><line transform="translate(165,-200)" x2="0" y2="200" stroke="#ddd" stroke-width="1" opacity="1"/></g></g><path class="foreground" aria-hidden="true" d="" pointer-events="none" display="none"/></g></g><g class="mark-group role-axis" aria-hidden="true"><g transform="translate(0.5,0.5)"><path class="background" aria-hidden="true" d="M0,0h0v0h0Z" pointer-events="none"/><g><g class="mark-rule role-axis-grid" pointer-events="none"><line transform="translate(0,200)" x2="200" y2="0" stroke="#ddd" stroke-width="1" opacity="1"/><line transform="translate(0,162)" x2="200" y2="0" stroke="#ddd" stroke-width="1" opacity="1"/><line transform="translate(0,123)" x2="200" y2="0" stroke="#ddd" stroke-width="1" opacity="1"/><line transform="translate(0,85)" x2="200" y2="0" stroke="#ddd" stroke-width="1" opacity="1"/><line transform="translate(0,46)" x2="200" y2="0" stroke="#ddd" stroke-width="1" opacity="1"/><line transform="translate(0,8)" x2="200" y2="0" stroke="#ddd" stroke-width="1" opacity="1"/></g></g><path class="foreground" aria-hidden="true" d="" pointer-events="none" display="none"/></g></g><g class="mark-group role-axis" role="graphics-symbol" aria-roledescription="axis" aria-label="X-axis titled 'Time' for a time scale with values from Monday, 01 January 2024, 2:19:43 PM to Tuesday, 18 March 2025, 8:41:23 PM"><g transform="translate(0.5,200.5)"><path class="background" aria-hidden="true" d="M0,0h0v0h0Z" pointer-events="none"/><g><g class="mark-rule role-axis-tick" pointer-events="none"><line transform="translate(41,0)" x2="0" y2="5" stroke="#888" stroke-width="1" opacity="1"/><line transform="translate(82,0)" x2="0" y2="5" stroke="#888" stroke-width="1" opacity="1"/><line transform="translate(124,0)" x2="0" y2="5" stroke="#888" stroke-width="1" opacity="1"/><line transform="translate(165,0)" x2="0" y2="5" stroke="#888" stroke-width="1" opacity="1"/></g><g class="mark-text role-axis-label" pointer-events="none"><text text-anchor="middle" transform="translate(40.8818071449565,15)" font-family="Liberation Mono" font-size="10px" fill="#000" opacity="1">April</text><text text-anchor="middle" transform="translate(82.0336002844861,15)" font-family="Liberation Mono" font-size="10px" fill="#000" opacity="0">July</text><text text-anchor="middle" transform="translate(123.63761093104348,15)" font-family="Liberation Mono" font-size="10px" fill="#000" opacity="0">October</text><text text-anchor="middle" transform="translate(165.24162157760088,15)" font-family="Liberation Mono" font-size="10px" fill="#000" opacity="1">2025</text></g><g class="mark-rule role-axis-domain" pointer-events="none"><line transform="translate(0,0)" x2="200" y2="0" stroke="#888" stroke-width="1" opacity="1"/></g><g class="mark-text role-axis-title" pointer-events="none"><text text-anchor="middle" transform="translate(100,30)" font-family="Liberation Mono" font-size="11px" font-weight="bold" fill="#000" opacity="1">Time</text></g></g><path class="foreground" aria-hidden="true" d="" pointer-events="none" display="none"/></g></g><g class="mark-group role-axis" role="graphics-symbol" aria-roledescription="axis" aria-label="Y-axis titled 'Price' for a linear scale with values from 0 to 2,600"><g transform="translate(0.5,0.5)"><path class="background" aria-hidden="true" d="M0,0h0v0h0Z" pointer-events="none"/><g><g class="mark-rule role-axis-tick" pointer-events="none"><line transform="translate(0,200)" x2="-5" y2="0" stroke="#888" stroke-width="1" opacity="1"/><line transform="translate(0,162)" x2="-5" y2="0" stroke="#888" stroke-width="1" opacity="1"/><line transform="translate(0,123)" x2="-5" y2="0" stroke="#888" stroke-width="1" opacity="1"/><line transform="translate(0,85)" x2="-5" y2="0" stroke="#888" stroke-width="1" opacity="1"/><line transform="translate(0,46)" x2="-5" y2="0" stroke="#888" stroke-width="1" opacity="1"/><line transform="translate(0,8)" x2="-5" y2="0" stroke="#888" stroke-width="1" opacity="1"/></g><g class="mark-text role-axis-label" pointer-events="none"><text text-anchor="end" transform="translate(-7,203)" font-family="Liberation Mono" font-size="10px" fill="#000" opacity="1">0</text><text text-anchor="end" transform="translate(-7,164.53846153846155)" font-family="Liberation Mono" font-size="10px" fill="#000" opacity="1">500</text><text text-anchor="end" transform="translate(-7,126.07692307692308)" font-family="Liberation Mono" font-size="10px" fill="#000" opacity="1">1,000</text><text text-anchor="end" transform="translate(-7,87.61538461538463)" font-family="Liberation Mono" font-size="10px" fill="#000" opacity="1">1,500</text><text text-anchor="end" transform="translate(-7,49.153846153846146)" font-family="Liberation Mono" font-size="10px" fill="#000" opacity="1">2,000</text><text text-anchor="end" transform="translate(-7,10.692307692307686)" font-family="Liberation Mono" font-size="10px" fill="#000" opacity="1">2,500</text></g><g class="mark-rule role-axis-domain" pointer-events="none"><line transform="translate(0,200)" x2="0" y2="-200" stroke="#888" stroke-width="1" opacity="1"/></g><g class="mark-text role-axis-title" pointer-events="none"><text text-anchor="middle" transform="translate(-51,100) rotate(-90) translate(0,-2)" font-family="Liberation Mono" font-size="11px" font-weight="bold" fill="#000" opacity="1">Price</text></g></g><path class="foreground" aria-hidden="true" d="" pointer-events="none" display="none"/></g></g><g class="mark-group role-scope pathgroup" role="graphics-object" aria-roledescription="group mark container"><g transform="translate(0,0)"><path class="background" aria-hidden="true" d="M0,0h200v200h-200Z"/><g><g class="mark-line role-mark marks" role="graphics-object" aria-roledescription="line mark container"><path aria-label="Time: Jan 01, 2024; Price: 2399; identifier: altex-LG-F2WR508SBW" role="graphics-symbol" aria-roledescription="line mark" d="M0,15.462L0.047,15.462L0.119,15.462L0.27,15.462L0.345,15.462L0.424,15.462L0.496,15.462L0.571,15.462L0.722,15.462L0.797,15.462L0.877,15.462L0.949,15.462L1.023,15.462L1.174,15.462L1.25,15.462L1.329,15.462L1.401,15.462L1.476,15.462L1.627,34.692L1.702,34.692L1.781,34.692L1.853,34.692L1.928,34.692L2.079,34.692L2.154,34.692L2.233,34.692L2.305,34.692L2.38,34.692L2.531,34.692L2.606,34.692L2.685,34.692L2.758,34.692L2.832,34.692L2.983,34.692L3.059,34.692L3.138,34.692L3.21,34.692L3.284,34.692L3.436,34.692L3.511,34.692L3.591,34.692L3.663,34.692L3.737,34.692L3.888,34.692L3.963,34.692L4.043,34.692L4.115,34.692L4.189,34.692L4.34,34.692L4.415,34.692L4.495,34.692L4.567,34.692L4.641,34.692L4.792,34.692L4.868,34.692L4.947,34.692L5.019,34.692L5.093,34.692L5.244,46.231L5.319,46.231L5.398,46.231L5.471,46.231L5.545,46.231L5.697,46.231L5.772,46.231L5.851,46.231L5.923,46.231L5.998,46.231L6.149,46.231L6.224,46.231L6.304,46.231L6.376,46.231L6.45,46.231L6.601,46.231L6.677,46.231L6.756,46.231L6.828,46.231L6.902,46.231L7.053,46.231L7.129,46.231L7.208,46.231L7.28,46.231L7.354,46.231L7.505,46.231L7.581,46.231L7.66,46.231L7.732,46.231L7.807,46.231L7.958,46.231L8.033,46.231L8.113,46.231L8.185,46.231L8.259,46.231L8.41,46.231L8.485,46.231L8.564,46.231L8.637,46.231L8.711,46.231L8.862,46.231L8.937,46.231L9.016,46.231L9.089,46.231L9.163,46.231L9.315,46.231L9.39,46.231L9.47,46.231L9.541,46.231L9.616,46.231L9.767,46.231L9.842,46.231L9.922,46.231L9.994,46.231L10.068,46.231L10.219,46.231L10.294,46.231L10.374,46.231L10.446,46.231L10.52,46.231L10.671,46.231L10.747,46.231L10.826,46.231L10.898,46.231L10.972,46.231L11.123,46.231L11.199,46.231L11.277,46.231L11.349,46.231L11.425,46.231L11.575,46.231L11.651,46.231L11.728,46.231L11.801,46.231L11.876,46.231L12.027,46.231L12.103,46.231L12.18,46.231L12.253,46.231L12.329,46.231L12.48,46.231L12.555,46.231L12.633,46.231L12.706,46.231L12.781,46.231L12.932,46.231L13.007,46.231L13.085,46.231L13.159,46.231L13.233,46.231L13.384,46.231L13.459,46.231L13.538,46.231L13.61,46.231L13.685,46.231L13.836,34.692L13.912,34.692L13.99,34.692L14.062,34.692L14.138,34.692L14.289,34.692L14.364,34.692L14.442,34.692L14.514,34.692L14.59,34.692L14.741,34.692L14.816,34.692L14.894,34.692L14.967,34.692L15.042,34.692L15.193,34.692L15.268,34.692L15.346,34.692L15.419,34.692L15.494,34.692L15.645,34.692L15.721,34.692L15.799,34.692L15.871,34.692L15.946,34.692L16.097,34.692L16.173,34.692L16.251,34.692L16.323,34.692L16.399,34.692L16.549,34.692L16.625,34.692L16.703,34.692L16.776,34.692L16.851,34.692L17.002,34.692L17.077,34.692L17.155,34.692L17.228,34.692L17.303,34.692L17.454,34.692L17.529,34.692L17.607,34.692L17.68,34.692L17.756,34.692L17.906,34.692L17.981,34.692L18.059,34.692L18.132,34.692L18.208,34.692L18.359,34.692L18.434,34.692L18.511,34.692L18.584,34.692L18.66,34.692L18.811,34.692L18.886,34.692L18.965,34.692L19.037,34.692L19.112,34.692L19.263,34.692L19.338,34.692L19.416,34.692L19.49,34.692L19.564,34.692L19.715,34.692L19.79,34.692L19.869,34.692L19.941,34.692L20.016,34.692L20.243,34.692L20.321,34.692L20.393,34.692L20.469,34.692L20.62,34.692L20.695,34.692L20.773,34.692L20.846,34.692L20.921,34.692L21.072,34.692L21.147,34.692L21.225,34.692L21.298,34.692L21.373,34.692L21.524,34.692L21.6,34.692L21.677,34.692L21.75,34.692L21.825,34.692L21.976,34.692L22.052,34.692L22.13,34.692L22.203,34.692L22.277,34.692L22.429,34.692L22.504,34.692L22.582,34.692L22.655,34.692L22.73,34.692L22.88,34.692L22.956,34.692L23.034,34.692L23.107,34.692L23.182,34.692L23.333,34.692L23.408,34.692L23.487,34.692L23.559,34.692L23.634,34.692L23.785,34.692L23.86,34.692L23.938,34.692L24.011,34.692L24.087,34.692L24.237,34.692L24.313,34.692L24.39,34.692L24.463,34.692L24.539,34.692L24.689,34.692L24.765,34.692L24.842,34.692L24.916,34.692L24.991,34.692L25.142,34.692L25.217,34.692L25.295,34.692L25.368,34.692L25.443,34.692L25.594,34.692L25.669,34.692L25.747,34.692L25.82,34.692L25.895,34.692L26.046,34.692L26.121,34.692L26.2,34.692L26.273,34.692L26.348,34.692L26.498,34.692L26.574,34.692L26.652,34.692L26.724,34.692L26.8,34.692L26.95,34.692L27.026,34.692L27.104,34.692L27.177,34.692L27.252,34.692L27.403,34.692L27.478,34.692L27.556,34.692L27.629,34.692L27.704,34.692L27.855,34.692L27.93,34.692L28.008,34.692L28.081,34.692L28.156,34.692L28.314,34.692L28.417,34.692L28.462,34.692L28.534,34.692L28.609,34.692L28.759,34.692L28.835,34.692L28.913,34.692L28.986,34.692L29.061,34.692L29.211,34.692L29.288,34.692L29.366,34.692L29.438,34.692L29.513,34.692L29.664,34.692L29.739,34.692L29.817,34.692L29.89,34.692L29.965,34.692L30.116,34.692L30.192,34.692L30.27,34.692L30.342,34.692L30.417,34.692L30.568,34.692L30.644,34.692L30.721,34.692L30.795,34.692L30.87,34.692L31.02,34.692L31.096,34.692L31.173,34.692L31.247,34.692L31.322,34.692L31.473,34.692L31.548,34.692L31.627,34.692L31.699,34.692L31.774,34.692L31.925,34.692L32,34.692L32.079,34.692L32.152,34.692L32.226,34.692L32.377,34.692L32.453,34.692L32.531,34.692L32.603,34.692L32.679,34.692L32.829,34.692L32.905,34.692L32.983,34.692L33.056,34.692L33.131,34.692L33.281,34.692L33.357,34.692L33.435,34.692L33.508,34.692L33.583,34.692L33.734,34.692L33.809,34.692L33.887,34.692L33.96,34.692L34.035,34.692L34.186,34.692L34.262,34.692L34.339,34.692L34.412,34.692L34.487,34.692L34.638,34.692L34.714,34.692L34.793,34.692L34.865,34.692L34.94,34.692L35.091,34.692L35.166,34.692L35.244,34.692L35.317,34.692L35.392,34.692L35.543,34.692L35.618,34.692L35.696,34.692L35.77,34.692L35.844,34.692L35.995,34.692L36.07,34.692L36.149,34.692L36.222,34.692L36.296,34.692L36.447,34.692L36.522,34.692L36.601,34.692L36.673,34.692L36.749,34.692L36.899,34.692L36.975,34.692L37.053,34.692L37.125,34.692L37.201,34.692L37.352,34.692L37.427,34.692L37.505,34.692L37.578,34.692L37.653,34.692L37.804,34.692L37.879,34.692L37.958,34.692L38.03,34.692L38.105,34.692L38.256,34.692L38.332,34.692L38.41,34.692L38.483,34.692L38.557,34.692L38.709,34.692L38.784,34.692L38.862,34.692L38.935,34.692L39.01,34.692L39.16,34.692L39.236,34.692L39.314,34.692L39.387,34.692L39.462,34.692L39.613,34.692L39.688,34.692L39.767,34.692L39.839,34.692L39.914,34.692L40.065,34.692L40.14,34.692L40.218,34.692L40.291,34.692L40.367,34.692L40.517,34.692L40.593,34.692L40.671,34.692L40.743,34.692L40.819,34.692L40.969,34.692L41.045,34.692L41.124,34.692L41.196,34.692L41.271,34.692L41.422,34.692L41.497,34.692L41.576,34.692L41.648,34.692L41.723,34.692L41.874,34.692L41.949,34.692L42.028,34.692L42.101,34.692L42.175,34.692L42.326,34.692L42.401,34.692L42.48,34.692L42.552,34.692L42.627,34.692L42.779,34.692L42.932,34.692L43.005,34.692L43.08,34.692L43.231,34.692L43.306,34.692L43.384,34.692L43.456,34.692L43.532,34.692L43.682,34.692L43.758,34.692L43.836,34.692L43.909,34.692L43.984,34.692L44.135,34.692L44.21,34.692L44.289,34.692L44.362,34.692L44.436,34.692L44.587,34.692L44.662,34.692L44.741,34.692L44.814,34.692L44.888,34.692L45.039,34.692L45.115,34.692L45.193,34.692L45.266,34.692L45.341,34.692L45.492,34.692L45.567,34.692L45.646,34.692L45.793,34.692L45.944,34.692L46.019,34.692L46.098,34.692L46.17,34.692L46.245,34.692L46.396,34.692L46.471,34.692L46.548,34.692L46.622,34.692L46.697,34.692L46.855,34.692L46.971,34.692L47.042,34.692L47.188,34.692L47.301,34.692L47.376,34.692L47.453,34.692L47.526,34.692L47.602,34.692L47.753,34.692L47.828,34.692L47.907,34.692L47.979,34.692L48.054,34.692L48.205,34.692L48.28,34.692L48.359,34.692L48.432,34.692L48.506,34.692L48.732,34.692L48.811,34.692L48.883,34.692L48.959,34.692L49.109,34.692L49.185,34.692L49.263,34.692L49.336,34.692L49.411,34.692L49.561,34.692L49.637,34.692L49.715,34.692L49.788,34.692L49.863,34.692L50.014,34.692L50.089,34.692L50.167,34.692L50.24,34.692L50.315,34.692L50.466,34.692L50.542,34.692L50.62,34.692L50.692,34.692L50.767,34.692L50.918,34.692L50.993,34.692L51.073,34.692L51.145,34.692L51.22,34.692L51.37,34.692L51.446,34.692L51.527,34.692L51.597,34.692L51.672,34.692L51.822,34.692L51.898,34.692L51.975,34.692L52.049,34.692L52.124,34.692L52.275,34.692L52.35,34.692L52.429,34.692L52.501,34.692L52.576,34.692L52.727,34.692L52.802,34.692L52.88,34.692L52.953,34.692L53.028,34.692L53.179,34.692L53.254,34.692L53.333,34.692L53.405,34.692L53.48,34.692L53.631,34.692L53.708,34.692L53.786,34.692L53.858,34.692L53.933,34.692L54.084,34.692L54.159,34.692L54.238,34.692L54.31,34.692L54.385,34.692L54.536,34.692L54.613,34.692L54.69,34.692L54.762,34.692L54.837,34.692L54.988,57.769L55.063,57.769L55.143,57.769L55.215,57.769L55.29,57.769L55.441,57.769L55.516,57.769L55.594,57.769L55.667,57.769L55.742,57.769L55.892,57.769L55.968,57.769L56.046,57.769L56.119,57.769L56.194,57.769L56.345,57.769L56.42,57.769L56.499,57.769L56.571,57.769L56.646,57.769L56.797,57.769L56.873,57.769L56.952,57.769L57.024,57.769L57.098,57.769L57.249,57.769L57.325,57.769L57.403,57.769L57.476,57.769L57.551,57.769L57.701,57.769L57.777,57.769L57.857,57.769L57.929,57.769L58.003,57.769L58.154,34.692L58.23,34.692L58.308,34.692L58.381,34.692L58.455,34.692L58.606,34.692L58.681,34.692L58.761,34.692L58.832,34.692L58.907,34.692L59.058,34.692L59.133,34.692L59.212,34.692L59.284,34.692L59.359,34.692L59.51,34.692L59.586,34.692L59.664,34.692L59.736,34.692L59.812,34.692L59.963,34.692L60.038,34.692L60.117,34.692L60.189,34.692L60.264,34.692L60.414,34.692L60.491,34.692L60.57,34.692L60.642,34.692L60.716,34.692L60.867,34.692L60.943,34.692L61.022,34.692L61.094,34.692L61.168,34.692L61.319,34.692L61.395,34.692L61.474,34.692L61.546,34.692L61.62,34.692L61.771,34.692L61.847,34.692L61.926,34.692L61.998,34.692L62.073,34.692L62.223,34.692L62.299,34.692L62.378,34.692L62.45,34.692L62.525,34.692L62.676,34.692L62.751,34.692L62.83,34.692L62.902,34.692L62.977,34.692L63.129,34.692L63.204,34.692L63.283,34.692L63.355,34.692L63.43,34.692L63.58,34.692L63.656,34.692L63.735,34.692L63.807,34.692L63.882,34.692L64.033,34.692L64.108,34.692L64.188,34.692L64.26,34.692L64.334,34.692L64.485,34.692L64.56,34.692L64.639,34.692L64.712,34.692L64.786,34.692L64.938,34.692L65.012,34.692L65.092,34.692L65.163,34.692L65.239,34.692L65.389,34.692L65.465,34.692L65.543,34.692L65.616,34.692L65.69,34.692L65.842,34.692L65.916,34.692L65.995,34.692L66.068,34.692L66.143,34.692L66.294,34.692L66.369,34.692L66.449,34.692L66.521,34.692L66.595,34.692L66.747,34.692L66.822,34.692L66.901,34.692L66.973,34.692L67.047,34.692L67.199,34.692L67.274,34.692L67.353,34.692L67.425,34.692L67.499,34.692L67.651,34.692L67.726,34.692L67.805,34.692L67.877,34.692L67.952,34.692L68.103,34.692L68.178,34.692L68.257,34.692L68.329,34.692L68.404,34.692L68.555,34.692L68.63,34.692L68.709,34.692L68.781,34.692L68.856,34.692L69.007,34.692L69.082,34.692L69.161,34.692L69.233,34.692L69.308,34.692L69.459,34.692L69.535,34.692L69.615,34.692L69.686,34.692L69.761,34.692L69.911,34.692L69.987,34.692L70.067,34.692L70.139,34.692L70.213,34.692L70.364,34.692L70.439,34.692L70.519,34.692L70.591,34.692L70.665,34.692L70.816,34.692L70.892,34.692L70.971,34.692L71.042,34.692L71.117,34.692L71.268,34.692L71.344,34.692L71.424,34.692L71.496,34.692L71.569,34.692L71.72,34.692L71.795,34.692L71.875,34.692L71.947,34.692L72.021,34.692L72.172,34.692L72.248,34.692L72.327,34.692L72.399,34.692L72.474,34.692L72.625,34.692L72.701,34.692L72.78,34.692L72.852,34.692L72.926,34.692L73.077,34.692L73.153,34.692L73.232,34.692L73.304,34.692L73.379,34.692L73.529,34.692L73.605,46.231L73.685,46.231L73.756,46.231L73.83,46.231L73.982,46.231L74.057,46.231L74.137,46.231L74.209,46.231L74.283,46.231L74.434,46.231L74.509,46.231L74.589,48.538L74.66,48.538L74.735,48.538L74.886,48.538L74.962,48.538L75.04,48.538L75.112,48.538L75.187,48.538L75.338,48.538L75.414,48.538L75.493,48.538L75.565,48.538L75.639,48.538L75.791,48.538L75.866,48.538L75.946,48.538L76.017,48.538L76.092,48.538L76.243,48.538L76.318,48.538L76.398,48.538L76.469,48.538L76.544,48.538L76.695,48.538L76.771,48.538L76.85,48.538L76.922,48.538L76.996,48.538L77.147,48.538L77.223,48.538L77.302,48.538L77.375,48.538L77.448,48.538L77.6,48.538L77.675,48.538L77.754,48.538L77.826,48.538L77.9,48.538L78.051,48.538L78.127,48.538L78.207,48.538L78.278,48.538L78.353,48.538L78.504,48.538L78.579,48.538L78.658,48.538L78.73,48.538L78.805,48.538L78.956,48.538L79.032,48.538L79.111,48.538L79.183,48.538L79.257,48.538L79.408,48.538L79.484,48.538L79.563,48.538L79.71,48.538L79.861,48.538L79.936,48.538L80.016,48.538L80.087,48.538L80.162,48.538L80.313,48.538L80.388,48.538L80.468,48.538L80.54,48.538L80.614,48.538L80.765,48.538L80.841,48.538L80.92,48.538L80.991,48.538L81.066,48.538L81.217,48.538L81.292,48.538L81.372,48.538L81.444,48.538L81.518,48.538L81.669,48.538L81.744,48.538L81.824,48.538L81.896,48.538L81.97,48.538L82.122,48.538L82.197,48.538L82.277,48.538L82.349,48.538L82.422,48.538L82.574,48.538L82.649,48.538L82.729,48.538L82.801,48.538L82.875,48.538L83.026,48.538L83.102,48.538L83.181,48.538L83.253,48.538L83.327,48.538L83.478,48.538L83.554,48.538L83.633,48.538L83.705,48.538L83.779,48.538L83.931,48.538L84.006,48.538L84.085,48.538L84.157,48.538L84.231,48.538L84.383,48.538L84.458,48.538L84.537,48.538L84.609,48.538L84.684,48.538L84.834,48.538L84.91,48.538L84.989,48.538L85.061,48.538L85.136,48.538L85.287,48.538L85.363,48.538L85.442,48.538L85.514,48.538L85.588,48.538L85.739,48.538L85.815,48.538L85.895,48.538L85.966,48.538L86.04,48.538L86.192,48.538L86.267,48.538L86.347,48.538L86.418,48.538L86.493,48.538L86.644,48.538L86.719,48.538L86.799,48.538L86.87,48.538L86.945,48.538L87.096,48.538L87.172,48.538L87.251,48.538L87.323,48.538L87.397,48.538L87.548,48.538L87.623,48.538L87.702,48.538L87.774,48.538L87.849,48.538L88.001,48.538L88.076,48.538L88.16,48.538L88.231,48.538L88.301,48.538L88.453,48.538L88.528,48.538L88.608,48.538L88.68,48.538L88.754,48.538L88.905,48.538L88.981,48.538L89.059,48.538L89.132,48.538L89.206,48.538L89.357,48.538L89.433,48.538L89.512,48.538L89.584,48.538L89.658,48.538L89.81,48.538L89.885,48.538L89.965,48.538L90.036,48.538L90.11,48.538L90.262,48.538L90.337,48.538L90.417,48.538L90.489,48.538L90.563,48.538L90.714,48.538L90.789,48.538L90.868,48.538L90.94,48.538L91.015,48.538L91.166,48.538L91.241,48.538L91.321,48.538L91.393,48.538L91.467,48.538L91.618,48.538L91.694,48.538L91.774,48.538L91.845,48.538L91.919,48.538L92.07,48.538L92.146,48.538L92.226,48.538L92.297,48.538L92.371,48.538L92.522,27L92.598,27L92.678,27L92.749,27L92.824,27L92.975,27L93.051,27L93.13,27L93.202,27L93.276,27L93.428,27L93.502,27L93.582,27L93.654,27L93.728,27L93.879,27L93.954,27L94.034,27L94.105,27L94.18,27L94.331,27L94.406,27L94.486,27L94.558,27L94.632,27L94.784,27L94.859,27L94.939,27L95.011,27L95.085,27L95.236,27L95.311,27L95.391,27L95.463,27L95.537,27L95.688,27L95.763,27L95.844,27L95.915,27L95.989,27L96.14,27L96.216,27L96.296,27L96.367,27L96.442,27L96.593,27L96.668,27L96.748,27L96.82,27L96.893,27L97.045,27L97.12,27L97.199,27L97.271,27L97.346,27L97.498,27L97.572,27L97.652,27L97.723,27L97.798,27L97.949,27L98.025,27L98.105,27L98.176,27L98.251,27L98.402,27L98.477,27L98.557,27L98.628,27L98.702,27L98.854,27L98.929,27L99.01,27L99.081,27L99.155,27L99.306,27L99.382,27L99.462,27L99.533,27L99.607,27L99.758,27L99.834,27L99.914,27L99.985,27L100.059,27L100.211,27L100.286,27L100.365,27L100.438,27L100.511,27L100.663,27L100.738,27L100.817,27L100.889,27L100.964,27L101.115,27L101.191,27L101.271,27L101.342,27L101.416,27L101.567,27L101.643,27L101.723,27L101.794,27L101.868,27L102.019,27L102.095,27L102.175,27L102.247,27L102.32,27L102.472,27L102.547,27L102.627,27L102.698,27L102.772,27L102.924,27L102.999,27L103.079,27L103.151,27L103.225,27L103.376,27L103.451,27L103.53,27L103.603,27L103.678,27L103.828,27L103.903,27L103.983,27L104.055,27L104.129,27L104.28,27L104.356,27L104.436,27L104.507,27L104.582,27L104.733,27L104.808,27L104.888,27L104.959,27L105.034,27L105.185,27L105.261,27L105.339,27L105.412,27L105.486,27L105.637,27L105.713,27L105.793,27L105.865,27L105.938,27L106.089,27L106.165,27L106.245,27L106.316,27L106.39,27L106.542,27L106.617,27L106.696,27L106.768,27L106.842,27L106.994,27L107.069,27L107.149,27L107.22,27L107.295,27L107.447,27L107.522,27L107.602,27L107.673,27L107.747,27L107.899,27L107.974,27L108.054,27L108.125,27L108.199,27L108.351,27L108.426,27L108.506,27L108.578,27L108.651,27L108.803,27L108.879,27L108.959,27L109.03,27L109.104,27L109.255,27L109.331,27L109.411,27L109.482,27L109.556,27L109.708,27L109.783,27L109.862,27L109.934,27L110.008,27L110.16,27L110.235,27L110.315,27L110.386,27L110.46,27L110.612,27L110.688,27L110.768,27L110.839,27L110.913,27L111.064,27L111.14,27L111.22,27L111.291,27L111.365,27L111.516,27L111.592,27L111.672,27L111.743,27L111.818,27L111.969,27L112.044,27L112.124,27L112.195,27L112.269,27L112.421,27L112.496,27L112.576,27L112.648,27L112.721,27L112.873,27L112.948,27L113.028,27L113.099,27L113.173,27L113.325,27L113.4,27L113.48,27L113.552,27L113.626,27L113.777,27L113.854,27L113.934,27L114.004,27L114.078,27L114.23,27L114.305,27L114.386,27L114.456,27L114.53,27L114.682,27L114.758,27L114.838,27L114.909,27L114.982,27L115.134,27L115.21,27L115.29,27L115.361,27L115.435,27L115.586,27L115.662,27L115.742,27L115.813,27L115.887,27L116.038,46.231L116.114,46.231L116.193,46.231L116.265,46.231L116.339,46.231L116.491,46.231L116.566,46.231L116.646,46.231L116.717,46.231L116.791,46.231L116.944,46.231L117.019,46.231L117.1,46.231L117.17,46.231L117.244,46.231L117.394,46.231L117.471,46.231L117.551,46.231L117.622,46.231L117.696,46.231L117.848,46.231L117.923,46.231L118.003,46.231L118.074,46.231L118.148,46.231L118.3,53.923L118.376,53.923L118.456,53.923L118.527,53.923L118.6,53.923L118.752,53.923L118.828,53.923L118.908,53.923L118.979,53.923L119.053,53.923L119.204,53.923L119.279,53.923L119.359,53.923L119.431,53.923L119.504,53.923L119.657,53.923L119.732,53.923L119.812,53.923L119.883,53.923L119.957,53.923L120.109,53.923L120.185,53.923L120.265,53.923L120.336,53.923L120.41,53.923L120.561,53.923L120.637,53.923L120.717,53.923L120.788,53.923L120.862,53.923L121.013,53.923L121.09,53.923L121.17,53.923L121.241,53.923L121.314,53.923L121.466,23.154L121.541,23.154L121.622,23.154L121.692,23.154L121.766,23.154L121.918,23.154L121.993,23.154L122.074,23.154L122.145,23.154L122.37,23.154L122.445,23.154L122.525,23.154L122.596,23.154L122.67,23.154L122.822,23.154L122.897,23.154L122.977,23.154L123.048,23.154L123.122,23.154L123.275,23.154L123.351,23.154L123.431,23.154L123.502,23.154L123.575,23.154L123.727,23.154L123.803,23.154L123.883,23.154L123.954,23.154L124.027,23.154L124.179,23.154L124.255,23.154L124.335,23.154L124.406,23.154L124.48,23.154L124.631,23.154L124.707,23.154L124.787,23.154L124.858,23.154L124.932,23.154L125.083,23.154L125.159,23.154L125.239,23.154L125.31,23.154L125.384,23.154L125.535,23.154L125.611,23.154L125.691,23.154L125.762,23.154L125.836,23.154L125.987,23.154L126.063,23.154L126.143,23.154L126.214,23.154L126.288,23.154L126.44,23.154L126.516,23.154L126.596,23.154L126.667,23.154L126.741,23.154L126.892,23.154L126.968,23.154L127.048,23.154L127.119,23.154L127.192,23.154L127.344,23.154L127.42,23.154L127.501,23.154L127.571,23.154L127.645,23.154L127.796,23.154L127.872,23.154L127.953,23.154L128.023,23.154L128.097,23.154L128.249,23.154L128.324,23.154L128.405,23.154L128.475,23.154L128.55,23.154L128.701,23.154L128.776,23.154L128.856,23.154L128.928,23.154L129.001,23.154L129.153,23.154L129.228,23.154L129.309,23.154L129.379,23.154L129.454,23.154L129.606,23.154L129.682,23.154L129.762,23.154L129.833,23.154L129.906,23.154L130.058,23.154L130.134,23.154L130.214,23.154L130.285,23.154L130.358,23.154L130.51,23.154L130.586,23.154L130.666,23.154L130.737,23.154L130.811,23.154L130.963,23.154L131.038,23.154L131.118,23.154L131.189,23.154L131.263,23.154L131.415,23.154L131.49,23.154L131.57,23.154L131.641,23.154L131.715,23.154L131.866,23.154L131.942,23.154L132.022,23.154L132.093,23.154L132.167,23.154L132.319,23.154L132.394,23.154L132.474,23.154L132.545,23.154L132.619,23.154L132.771,23.154L132.847,23.154L132.927,23.154L132.998,23.154L133.072,23.154L133.224,23.154L133.299,23.154L133.379,23.154L133.45,23.154L133.524,23.154L133.675,23.154L133.751,23.154L133.832,23.154L133.903,23.154L133.977,23.154L134.128,23.154L134.204,23.154L134.284,23.154L134.355,23.154L134.428,23.154L134.58,23.154L134.656,23.154L134.736,23.154L134.807,23.154L134.881,23.154L135.032,23.154L135.107,23.154L135.187,23.154L135.258,23.154L135.332,23.154L135.484,23.154L135.56,23.154L135.64,23.154L135.711,23.154L135.785,23.154L135.937,23.154L136.013,23.154L136.093,23.154L136.164,23.154L136.237,23.154L136.389,23.154L136.465,23.154L136.545,23.154L136.616,23.154L136.689,23.154L136.841,23.154L136.918,23.154L136.997,23.154L137.069,23.154L137.142,23.154L137.449,23.154L137.52,23.154L137.594,23.154L137.745,23.154L137.821,23.154L137.901,23.154L137.972,23.154L138.046,23.154L138.198,23.154L138.273,23.154L138.353,23.154L138.424,23.154L138.498,23.154L138.65,23.154L138.725,23.154L138.805,23.154L138.876,23.154L138.95,23.154L139.102,23.154L139.178,23.154L139.258,23.154L139.329,23.154L139.402,23.154L139.554,23.154L139.63,23.154L139.71,23.154L139.78,23.154L139.855,23.154L140.007,23.154L140.082,23.154L140.162,23.154L140.233,23.154L140.307,23.154L140.459,58.538L140.534,58.538L140.614,58.538L140.685,58.538L140.759,58.538L140.911,58.538L140.986,58.538L141.066,58.538L141.137,58.538L141.211,58.538L141.363,58.538L141.438,58.538L141.518,58.538L141.589,58.538L141.663,58.538L141.815,58.538L141.89,58.538L141.97,58.538L142.041,58.538L142.115,58.538L142.267,58.538L142.343,58.538L142.423,58.538L142.494,58.538L142.568,58.538L142.719,58.538L142.795,58.538L142.876,58.538L142.947,58.538L143.02,58.538L143.172,58.538L143.248,58.538L143.328,58.538L143.399,58.538L143.472,58.538L143.624,23.154L143.7,23.154L143.781,23.154L143.851,23.154L143.925,23.154L144.077,23.154L144.152,23.154L144.233,23.154L144.304,23.154L144.377,23.154L144.529,23.154L144.604,23.154L144.684,23.154L144.756,23.154L144.829,23.154L144.981,23.154L145.056,23.154L145.136,23.154L145.207,23.154L145.282,23.154L145.434,23.154L145.51,23.154L145.59,23.154L145.661,23.154L145.734,23.154L145.886,23.154L145.962,23.154L146.042,23.154L146.113,23.154L146.186,23.154L146.338,23.154L146.414,23.154L146.494,23.154L146.565,23.154L146.639,23.154L146.79,23.154L146.866,23.154L146.947,23.154L147.017,23.154L147.091,23.154L147.242,23.154L147.318,23.154L147.399,23.154L147.47,23.154L147.543,23.154L147.694,23.154L147.77,23.154L147.85,23.154L147.921,23.154L147.995,23.154L148.146,23.154L148.222,23.154L148.302,23.154L148.373,23.154L148.447,23.154L148.599,23.154L148.675,23.154L148.756,23.154L148.826,23.154L148.9,23.154L149.051,23.154L149.127,23.154L149.208,23.154L149.279,23.154L149.352,23.154L149.504,23.154L149.58,23.154L149.66,23.154L149.731,23.154L149.804,23.154L149.956,23.154L150.032,23.154L150.113,23.154L150.183,23.154L150.256,23.154L150.408,23.154L150.484,23.154L150.564,23.154L150.635,23.154L150.708,23.154L150.86,23.154L150.935,23.154L151.015,23.154L151.086,23.154L151.16,23.154L151.313,23.154L151.388,23.154L151.468,23.154L151.538,23.154L151.613,23.154L151.765,23.154L151.841,23.154L151.922,23.154L151.992,23.154L152.065,23.154L152.217,23.154L152.293,23.154L152.374,23.154L152.444,23.154L152.518,23.154L152.669,23.154L152.746,23.154L152.826,23.154L152.897,23.154L152.97,23.154L153.121,23.154L153.198,23.154L153.278,23.154L153.349,23.154L153.422,23.154L153.574,23.154L153.649,23.154L153.73,23.154L153.8,23.154L153.874,23.154L154.026,23.154L154.101,23.154L154.181,23.154L154.252,23.154L154.326,23.154L154.478,23.154L154.553,23.154L154.634,23.154L154.704,23.154L154.778,23.154L154.93,23.154L155.007,23.154L155.087,23.154L155.158,23.154L155.231,23.154L155.383,23.154L155.459,23.154L155.54,23.154L155.61,23.154L155.683,23.154L155.835,23.154L155.911,23.154L155.992,23.154L156.062,23.154L156.135,23.154L156.287,23.154L156.363,23.154L156.444,23.154L156.514,23.154L156.588,23.154L156.739,23.154L156.815,23.154L156.896,23.154L156.966,23.154L157.04,23.154L157.191,23.154L157.266,23.154L157.347,23.154L157.417,23.154L157.491,23.154L157.643,23.154L157.719,23.154L157.799,23.154L157.869,23.154L157.944,23.154L158.096,23.154L158.172,23.154L158.253,23.154L158.323,23.154L158.396,23.154L158.548,23.154L158.624,23.154L158.705,23.154L158.775,23.154L158.848,23.154L159,23.154L159.076,23.154L159.156,23.154L159.227,23.154L159.301,23.154L159.452,23.154L159.528,23.154L159.609,23.154L159.678,23.154L159.753,23.154L159.904,23.154L159.98,23.154L160.06,23.154L160.13,23.154L160.204,23.154L160.356,23.154L160.431,23.154L160.511,23.154L160.582,23.154L160.656,23.154L160.808,23.154L160.883,23.154L160.963,23.154L161.034,23.154L161.108,23.154L161.261,23.154L161.336,23.154L161.417,23.154L161.487,23.154L161.561,23.154L161.713,23.154L161.788,23.154L161.868,23.154L161.939,23.154L162.013,23.154L162.165,23.154L162.241,23.154L162.32,23.154L162.391,23.154L162.465,23.154L162.617,23.154L162.693,23.154L162.773,23.154L162.843,23.154L162.918,23.154L163.069,23.154L163.145,23.154L163.225,23.154L163.296,23.154L163.37,23.154L163.521,23.154L163.597,23.154L163.677,23.154L163.748,23.154L163.822,23.154L163.974,23.154L164.049,23.154L164.129,23.154L164.2,23.154L164.274,23.154L164.426,23.154L164.502,23.154L164.582,23.154L164.653,23.154L164.726,23.154L164.878,23.154L164.954,23.154L165.034,23.154L165.105,23.154L165.179,23.154L165.33,23.154L165.406,23.154L165.486,23.154L165.557,23.154L165.631,23.154L165.783,23.154L165.858,23.154L165.939,23.154L166.009,23.154L166.083,23.154L166.235,23.154L166.31,23.154L166.391,23.154L166.462,23.154L166.535,23.154L166.687,23.154L166.762,23.154L166.842,23.154L166.913,23.154L166.987,23.154L167.139,23.154L167.214,23.154L167.294,23.154L167.366,23.154L167.44,23.154L167.592,23.154L167.667,23.154L167.748,23.154L167.819,23.154L167.892,23.154L168.043,23.154L168.12,23.154L168.2,23.154L168.274,23.154L168.344,23.154L168.496,23.154L168.572,23.154L168.652,23.154L168.723,23.154L168.797,23.154L168.948,23.154L169.024,23.154L169.104,23.154L169.175,23.154L169.249,23.154L169.4,23.154L169.476,23.154L169.556,23.154L169.627,23.154L169.701,23.154L169.852,23.154L169.928,23.154L170.008,23.154L170.079,23.154L170.153,23.154L170.305,23.154L170.38,23.154L170.46,23.154L170.531,23.154L170.605,23.154L170.757,23.154L170.833,23.154L170.914,23.154L170.985,23.154L171.057,23.154L171.209,23.154L171.285,23.154L171.365,23.154L171.436,23.154L171.51,23.154L171.661,23.154L171.737,23.154L171.817,23.154L171.888,23.154L171.962,23.154L172.113,23.154L172.189,23.154L172.269,23.154L172.414,23.154L172.566,23.154L172.641,23.154L172.721,23.154L172.792,23.154L173.093,23.154L173.172,23.154L173.244,23.154L173.319,23.154L173.47,23.154L173.545,23.154L173.625,23.154L173.696,23.154L173.77,23.154L173.922,23.154L173.998,23.154L174.079,23.154L174.149,23.154L174.223,23.154L174.374,23.154L174.45,23.154L174.531,23.154L174.602,23.154L174.675,23.154L174.827,23.154L174.903,23.154L174.983,23.154L175.054,23.154L175.127,23.154L175.279,23.154L175.355,23.154L175.435,23.154L175.506,23.154L175.58,23.154L175.731,23.154L175.807,23.154L175.887,23.154L175.958,23.154L176.032,23.154L176.183,23.154L176.258,23.154L176.338,23.154L176.41,23.154L176.484,23.154L176.635,23.154L176.71,23.154L176.79,23.154L176.862,23.154L176.936,23.154L177.088,23.154L177.164,23.154L177.244,23.154L177.315,23.154L177.389,23.154L177.54,23.154L177.616,23.154L177.696,23.154L177.767,23.154L177.841,23.154L177.992,23.154L178.068,23.154L178.148,23.154L178.219,23.154L178.293,23.154L178.445,23.154L178.52,23.154L178.6,23.154L178.673,23.154L178.745,23.154L178.897,23.154L178.972,23.154L179.052,23.154L179.124,23.154L179.197,23.154L179.349,23.154L179.424,23.154L179.503,23.154L179.575,23.154L179.65,23.154L179.801,23.154L179.876,23.154L179.956,23.154L180.027,23.154L180.102,23.154L180.254,23.154L180.329,23.154L180.409,23.154L180.48,23.154L180.554,23.154L180.705,23.154L180.781,23.154L180.862,23.154L180.933,23.154L181.006,23.154L181.158,23.154L181.234,23.154L181.314,23.154L181.385,23.154L181.459,23.154L181.61,23.154L181.686,23.154L181.766,23.154L181.837,23.154L181.911,23.154L182.063,23.154L182.138,23.154L182.218,23.154L182.289,23.154L182.363,23.154L182.514,23.154L182.59,23.154L182.669,23.154L182.74,23.154L182.815,23.154L182.966,23.154L183.042,23.154L183.121,23.154L183.192,23.154L183.267,23.154L183.419,23.154L183.495,23.154L183.575,23.154L183.646,23.154L183.72,23.154L183.871,23.154L183.947,23.154L184.027,23.154L184.099,23.154L184.172,23.154L184.324,23.154L184.399,23.154L184.48,23.154L184.55,23.154L184.624,23.154L184.851,40.846L184.932,40.846L185.003,40.846L185.078,40.846L185.228,40.846L185.303,40.846L185.384,40.846L185.455,40.846L185.529,40.846L185.68,40.846L185.755,40.846L185.835,40.846L185.906,40.846L185.98,40.846L186.132,40.846L186.207,40.846L186.288,40.846L186.358,40.846L186.433,40.846L186.585,40.846L186.661,40.846L186.741,40.846L186.811,40.846L186.885,40.846L187.037,40.846L187.113,40.846L187.193,40.846L187.264,40.846L187.338,40.846L187.489,40.846L187.565,40.846L187.645,40.846L187.716,40.846L187.79,40.846L187.941,23.154L188.017,23.154L188.098,23.154L188.169,23.154L188.242,23.154L188.394,23.154L188.469,23.154L188.55,23.154L188.62,23.154L188.694,23.154L188.846,23.154L188.921,23.154L189,23.154L189.072,23.154L189.146,23.154L189.298,23.154L189.373,23.154L189.453,23.154L189.524,23.154L189.599,23.154L189.75,23.154L189.826,23.154L189.907,23.154L189.978,23.154L190.051,23.154L190.202,23.154L190.278,23.154L190.359,23.154L190.43,23.154L190.503,23.154L190.655,23.154L190.731,23.154L190.811,30.846L190.882,30.846L190.955,30.846L191.107,30.846L191.183,30.846L191.263,46.231L191.334,46.231L191.408,46.231L191.559,46.231L191.635,46.231L191.715,46.231L191.786,46.231L191.86,46.231L192.011,46.231L192.087,46.231L192.166,46.231L192.237,46.231L192.312,46.231L192.463,46.231L192.539,46.231L192.618,46.231L192.69,46.231L192.764,46.231L192.916,46.231L192.992,46.231L193.072,46.231L193.143,46.231L193.217,46.231L193.368,46.231L193.444,46.231L193.525,46.231L193.596,46.231L193.669,46.231L193.82,46.231L193.897,46.231L193.977,46.231L194.049,46.231L194.121,46.231L194.273,46.231L194.349,46.231L194.429,46.231L194.5,46.231L194.573,46.231L194.725,46.231L194.801,46.231L194.881,46.231L194.952,46.231L195.025,46.231L195.175,46.231L195.251,46.231L195.33,46.231L195.401,46.231L195.477,46.231L195.628,46.231L195.703,46.231L195.782,46.231L195.854,46.231L195.929,46.231L196.08,46.231L196.156,46.231L196.238,46.231L196.309,46.231L196.382,46.231L196.534,46.231L196.61,46.231L196.691,46.231L196.761,46.231L196.835,46.231L196.986,46.231L197.062,46.231L197.143,46.231L197.213,46.231L197.287,46.231L197.439,30.846L197.514,30.846L197.595,30.846L197.666,30.846L197.739,30.846L197.89,30.846L197.966,30.846L198.046,30.846L198.117,30.846L198.191,30.846L198.342,30.846L198.418,30.846L198.498,35.846L198.569,35.846L198.643,35.846L198.795,35.846L198.87,35.846L198.95,53.923L199.021,53.923L199.095,53.923L199.247,53.923L199.323,53.923L199.404,30.846L199.475,30.846L199.548,30.846L199.7,30.846L199.776,30.846L199.856,30.846L199.927,30.846L200,30.846" stroke="#4c78a8" stroke-width="2"/></g></g><path class="foreground" aria-hidden="true" d="" display="none"/></g><g transform="translate(0,0)"><path class="background" aria-hidden="true" d="M0,0h200v200h-200Z"/><g><g class="mark-line role-mark marks" role="graphics-object" aria-roledescription="line mark container"><path aria-label="Time: Jan 01, 2024; Price: 2499; identifier: altex-LG-F2WR508SBM" role="graphics-symbol" aria-roledescription="line mark" d="M0,7.769L0.047,7.769L0.119,7.769L0.27,7.769L0.345,7.769L0.424,7.769L0.496,7.769L0.571,7.769L0.722,7.769L0.797,7.769L0.877,7.769L0.949,7.769L1.023,7.769L1.174,7.769L1.25,7.769L1.329,7.769L1.401,7.769L1.476,7.769L1.627,27L1.702,27L1.781,27L1.853,27L1.928,27L2.079,27L2.154,27L2.233,27L2.305,27L2.38,27L2.531,27L2.606,27L2.685,27L2.758,27L2.832,27L2.983,27L3.059,27L3.138,27L3.21,27L3.284,27L3.436,27L3.511,27L3.591,27L3.663,27L3.737,27L3.888,27L3.963,27L4.043,27L4.115,27L4.189,27L4.34,27L4.415,27L4.495,27L4.567,27L4.641,27L4.792,27L4.868,27L4.947,27L5.019,27L5.093,27L5.244,38.538L5.319,38.538L5.398,38.538L5.471,38.538L5.545,38.538L5.697,38.538L5.772,38.538L5.851,38.538L5.923,38.538L5.998,38.538L6.149,38.538L6.224,38.538L6.304,38.538L6.376,38.538L6.45,38.538L6.601,38.538L6.677,38.538L6.756,38.538L6.828,38.538L6.902,38.538L7.053,38.538L7.129,38.538L7.208,38.538L7.28,38.538L7.354,38.538L7.505,38.538L7.581,38.538L7.66,38.538L7.732,38.538L7.807,38.538L7.958,38.538L8.033,38.538L8.113,38.538L8.185,38.538L8.259,38.538L8.41,38.538L8.485,38.538L8.564,38.538L8.637,38.538L8.711,38.538L8.862,38.538L8.937,38.538L9.016,38.538L9.089,38.538L9.163,38.538L9.315,38.538L9.39,38.538L9.47,38.538L9.541,38.538L9.616,38.538L9.767,38.538L9.842,38.538L9.922,38.538L9.994,38.538L10.068,38.538L10.219,38.538L10.295,38.538L10.374,38.538L10.446,38.538L10.52,38.538L10.671,38.538L10.747,38.538L10.826,38.538L10.898,38.538L10.972,38.538L11.123,38.538L11.199,38.538L11.277,38.538L11.349,38.538L11.425,38.538L11.575,38.538L11.651,38.538L11.728,38.538L11.801,38.538L11.876,38.538L12.027,38.538L12.103,38.538L12.18,38.538L12.253,38.538L12.329,38.538L12.48,38.538L12.555,38.538L12.633,38.538L12.706,38.538L12.781,38.538L12.932,38.538L13.007,38.538L13.085,38.538L13.159,38.538L13.233,38.538L13.384,38.538L13.459,38.538L13.538,38.538L13.61,38.538L13.685,38.538L13.836,27L13.912,27L13.99,27L14.062,27L14.138,27L14.289,27L14.364,27L14.442,27L14.514,27L14.59,27L14.741,27L14.816,27L14.894,27L14.967,27L15.042,27L15.193,27L15.268,27L15.346,27L15.419,27L15.494,27L15.645,27L15.721,27L15.799,27L15.871,27L15.946,27L16.097,27L16.173,27L16.251,27L16.324,27L16.399,27L16.549,27L16.625,27L16.703,27L16.776,27L16.851,27L17.002,27L17.077,27L17.155,27L17.228,27L17.303,27L17.454,27L17.529,27L17.607,27L17.68,27L17.756,27L17.906,27L17.981,27L18.059,27L18.132,27L18.208,27L18.359,27L18.434,27L18.511,27L18.584,27L18.66,27L18.811,27L18.886,27L18.965,27L19.037,27L19.112,27L19.263,27L19.338,27L19.416,27L19.49,27L19.564,27L19.715,27L19.79,27L19.869,27L19.941,27L20.016,27L20.243,27L20.321,27L20.393,27L20.469,27L20.62,27L20.695,27L20.773,27L20.846,27L20.921,27L21.072,27L21.147,27L21.225,27L21.298,27L21.373,27L21.524,27L21.6,27L21.677,27L21.75,27L21.825,27L21.976,27L22.052,27L22.13,27L22.203,27L22.278,27L22.429,27L22.504,27L22.582,27L22.655,27L22.73,27L22.88,27L22.956,27L23.034,27L23.107,27L23.182,27L23.333,27L23.408,27L23.487,27L23.559,27L23.634,27L23.785,27L23.86,27L23.938,27L24.011,27L24.087,27L24.237,27L24.313,27L24.39,27L24.463,27L24.539,27L24.689,27L24.765,27L24.842,27L24.916,27L24.991,27L25.142,27L25.217,27L25.295,27L25.368,27L25.443,27L25.594,27L25.669,27L25.747,27L25.82,27L25.895,27L26.046,27L26.121,27L26.2,27L26.273,27L26.348,27L26.498,27L26.574,27L26.652,27L26.724,27L26.8,27L26.95,27L27.026,27L27.104,27L27.177,27L27.252,27L27.403,27L27.478,27L27.556,27L27.629,27L27.704,27L27.855,27L27.93,27L28.008,27L28.081,27L28.156,27L28.314,27L28.417,27L28.462,27L28.534,27L28.609,27L28.759,27L28.835,27L28.913,27L28.986,27L29.061,27L29.212,27L29.288,27L29.366,27L29.438,27L29.513,27L29.664,27L29.739,27L29.817,38.538L29.89,38.538L29.965,38.538L30.116,38.538L30.192,38.538L30.27,38.538L30.342,38.538L30.417,38.538L30.568,38.538L30.644,38.538L30.721,38.538L30.795,38.538L30.87,38.538L31.02,38.538L31.096,38.538L31.173,38.538L31.247,38.538L31.322,38.538L31.473,38.538L31.548,38.538L31.627,38.538L31.699,38.538L31.774,38.538L31.925,38.538L32,38.538L32.079,38.538L32.152,38.538L32.226,38.538L32.377,38.538L32.453,38.538L32.531,38.538L32.603,38.538L32.679,38.538L32.829,38.538L32.905,38.538L32.983,38.538L33.056,38.538L33.131,38.538L33.281,38.538L33.357,38.538L33.435,38.538L33.508,38.538L33.583,38.538L33.734,38.538L33.809,38.538L33.887,38.538L33.96,38.538L34.036,38.538L34.186,38.538L34.262,38.538L34.339,38.538L34.412,38.538L34.487,38.538L34.638,38.538L34.714,38.538L34.793,38.538L34.865,38.538L34.94,38.538L35.091,38.538L35.166,38.538L35.244,38.538L35.317,38.538L35.392,38.538L35.543,38.538L35.618,38.538L35.696,38.538L35.77,38.538L35.844,38.538L35.995,38.538L36.07,38.538L36.149,38.538L36.222,38.538L36.296,38.538L36.447,38.538L36.522,38.538L36.601,38.538L36.673,38.538L36.749,38.538L36.899,38.538L36.975,38.538L37.053,38.538L37.125,38.538L37.201,38.538L37.352,38.538L37.427,38.538L37.505,38.538L37.578,38.538L37.653,38.538L37.804,38.538L37.879,38.538L37.958,38.538L38.03,38.538L38.105,38.538L38.256,38.538L38.332,38.538L38.41,38.538L38.483,38.538L38.557,38.538L38.709,38.538L38.784,38.538L38.862,38.538L38.935,38.538L39.01,38.538L39.16,38.538L39.236,38.538L39.315,38.538L39.387,38.538L39.462,38.538L39.613,38.538L39.688,38.538L39.767,38.538L39.839,38.538L39.914,38.538L40.065,38.538L40.14,38.538L40.218,38.538L40.291,38.538L40.367,38.538L40.517,38.538L40.593,38.538L40.671,38.538L40.744,38.538L40.819,38.538L40.969,38.538L41.045,38.538L41.124,38.538L41.196,38.538L41.271,38.538L41.422,38.538L41.497,38.538L41.576,38.538L41.648,38.538L41.723,38.538L41.874,38.538L41.949,38.538L42.028,38.538L42.101,38.538L42.175,38.538L42.326,38.538L42.402,38.538L42.48,38.538L42.552,38.538L42.627,38.538L42.779,38.538L42.932,38.538L43.005,38.538L43.08,38.538L43.231,38.538L43.306,38.538L43.384,38.538L43.456,38.538L43.532,38.538L43.682,38.538L43.758,38.538L43.836,38.538L43.909,38.538L43.984,38.538L44.135,38.538L44.21,38.538L44.289,38.538L44.362,38.538L44.436,38.538L44.587,38.538L44.662,38.538L44.741,38.538L44.814,38.538L44.888,38.538L45.039,38.538L45.115,38.538L45.193,38.538L45.266,38.538L45.341,38.538L45.492,38.538L45.567,38.538L45.646,38.538L45.793,38.538L45.944,38.538L46.02,38.538L46.098,38.538L46.17,38.538L46.245,38.538L46.396,38.538L46.471,38.538L46.548,38.538L46.622,38.538L46.697,38.538L46.855,38.538L46.971,38.538L47.042,38.538L47.188,38.538L47.301,38.538L47.376,38.538L47.453,38.538L47.526,38.538L47.602,38.538L47.753,38.538L47.828,38.538L47.907,38.538L47.979,38.538L48.054,38.538L48.205,38.538L48.28,38.538L48.359,38.538L48.432,38.538L48.506,38.538L48.732,38.538L48.811,38.538L48.883,38.538L48.959,38.538L49.109,38.538L49.185,38.538L49.263,38.538L49.336,38.538L49.411,38.538L49.561,38.538L49.637,38.538L49.715,38.538L49.788,38.538L49.863,38.538L50.014,38.538L50.089,38.538L50.167,38.538L50.24,38.538L50.315,38.538L50.466,38.538L50.542,38.538L50.62,38.538L50.692,38.538L50.767,38.538L50.918,38.538L50.993,38.538L51.073,38.538L51.145,38.538L51.22,38.538L51.37,38.538L51.446,38.538L51.527,38.538L51.597,38.538L51.672,38.538L51.823,38.538L51.898,38.538L51.975,38.538L52.049,38.538L52.124,38.538L52.275,38.538L52.35,38.538L52.429,38.538L52.501,38.538L52.577,38.538L52.727,38.538L52.802,38.538L52.88,38.538L52.953,38.538L53.028,38.538L53.179,38.538L53.255,38.538L53.333,38.538L53.405,38.538L53.481,38.538L53.631,38.538L53.708,38.538L53.786,38.538L53.858,38.538L53.933,38.538L54.084,38.538L54.159,38.538L54.238,38.538L54.31,38.538L54.385,38.538L54.536,38.538L54.613,38.538L54.69,38.538L54.762,38.538L54.837,38.538L54.988,38.538L55.063,38.538L55.143,38.538L55.215,38.538L55.29,38.538L55.441,38.538L55.516,38.538L55.595,38.538L55.667,38.538L55.742,38.538L55.892,38.538L55.968,38.538L56.046,38.538L56.119,38.538L56.194,38.538L56.345,38.538L56.42,38.538L56.499,38.538L56.571,38.538L56.646,38.538L56.797,38.538L56.873,38.538L56.952,38.538L57.024,38.538L57.098,38.538L57.249,38.538L57.325,38.538L57.403,30.846L57.476,30.846L57.551,30.846L57.701,30.846L57.777,30.846L57.857,30.846L57.929,30.846L58.003,30.846L58.154,30.846L58.23,30.846L58.308,30.846L58.381,30.846L58.455,30.846L58.606,30.846L58.681,30.846L58.761,30.846L58.832,30.846L58.907,30.846L59.058,30.846L59.133,30.846L59.212,30.846L59.284,30.846L59.359,30.846L59.51,30.846L59.586,30.846L59.664,30.846L59.736,30.846L59.812,30.846L59.963,30.846L60.038,30.846L60.118,30.846L60.189,30.846L60.264,30.846L60.415,30.846L60.491,30.846L60.57,30.846L60.642,30.846L60.716,30.846L60.867,30.846L60.943,30.846L61.022,30.846L61.094,30.846L61.168,30.846L61.319,30.846L61.395,30.846L61.474,30.846L61.546,30.846L61.62,30.846L61.771,30.846L61.847,30.846L61.926,30.846L61.998,30.846L62.073,30.846L62.223,30.846L62.299,30.846L62.378,30.846L62.45,30.846L62.525,30.846L62.676,30.846L62.751,30.846L62.83,30.846L62.902,30.846L62.977,30.846L63.129,30.846L63.204,30.846L63.283,30.846L63.355,30.846L63.43,30.846L63.58,30.846L63.656,30.846L63.735,30.846L63.807,30.846L63.882,30.846L64.033,30.846L64.108,30.846L64.188,38.538L64.26,38.538L64.334,38.538L64.485,38.538L64.56,38.538L64.639,38.538L64.712,38.538L64.786,38.538L64.938,38.538L65.012,38.538L65.092,38.538L65.163,38.538L65.239,38.538L65.389,38.538L65.465,38.538L65.543,38.538L65.616,38.538L65.69,38.538L65.842,38.538L65.917,38.538L65.995,38.538L66.068,38.538L66.143,38.538L66.294,38.538L66.369,38.538L66.449,38.538L66.521,38.538L66.595,38.538L66.747,38.538L66.822,38.538L66.901,38.538L66.973,38.538L67.047,38.538L67.199,38.538L67.274,38.538L67.353,38.538L67.425,38.538L67.499,38.538L67.651,38.538L67.726,38.538L67.805,38.538L67.877,38.538L67.952,38.538L68.103,30.846L68.178,30.846L68.258,30.846L68.329,30.846L68.404,30.846L68.555,30.846L68.63,30.846L68.709,30.846L68.781,30.846L68.856,30.846L69.007,30.846L69.082,30.846L69.161,30.846L69.233,30.846L69.308,30.846L69.46,30.846L69.535,30.846L69.615,30.846L69.686,30.846L69.761,30.846L69.911,30.846L69.987,30.846L70.067,30.846L70.139,30.846L70.213,30.846L70.364,30.846L70.439,30.846L70.519,30.846L70.591,30.846L70.665,30.846L70.816,30.846L70.892,30.846L70.971,30.846L71.042,30.846L71.117,30.846L71.268,30.846L71.344,30.846L71.424,30.846L71.496,30.846L71.569,30.846L71.72,30.846L71.795,30.846L71.875,30.846L71.947,30.846L72.021,30.846L72.172,30.846L72.248,30.846L72.327,30.846L72.399,30.846L72.474,30.846L72.625,30.846L72.701,30.846L72.78,30.846L72.852,30.846L72.926,30.846L73.077,30.846L73.153,30.846L73.232,30.846L73.304,30.846L73.379,30.846L73.529,30.846L73.605,34.692L73.685,34.692L73.756,34.692L73.83,34.692L73.982,34.692L74.057,34.692L74.137,34.692L74.209,34.692L74.283,34.692L74.434,34.692L74.509,34.692L74.589,40.077L74.66,40.077L74.735,40.077L74.886,40.077L74.962,40.077L75.04,40.077L75.112,40.077L75.187,40.077L75.338,40.077L75.414,40.077L75.493,40.077L75.565,40.077L75.639,40.077L75.791,40.077L75.866,40.077L75.946,40.077L76.017,40.077L76.092,40.077L76.243,40.077L76.318,40.077L76.398,40.077L76.469,40.077L76.544,40.077L76.695,40.077L76.771,40.077L76.85,40.077L76.922,40.077L76.996,40.077L77.147,40.077L77.223,40.077L77.302,40.077L77.375,40.077L77.448,40.077L77.6,40.077L77.675,40.077L77.754,40.077L77.826,40.077L77.9,40.077L78.051,40.077L78.127,40.077L78.207,40.077L78.278,40.077L78.353,40.077L78.504,40.077L78.579,40.077L78.658,40.077L78.73,40.077L78.805,40.077L78.956,40.077L79.032,40.077L79.111,40.077L79.183,40.077L79.257,40.077L79.408,40.077L79.484,40.077L79.563,40.077L79.71,40.077L79.861,40.077L79.936,40.077L80.016,40.077L80.087,40.077L80.162,40.077L80.313,40.077L80.388,40.077L80.468,40.077L80.54,40.077L80.614,40.077L80.765,40.077L80.841,40.077L80.92,40.077L80.991,40.077L81.066,40.077L81.217,40.077L81.292,40.077L81.372,40.077L81.444,40.077L81.518,40.077L81.669,40.077L81.744,40.077L81.824,40.077L81.896,40.077L81.97,40.077L82.122,40.077L82.197,40.077L82.277,40.077L82.349,40.077L82.423,40.077L82.574,40.077L82.649,40.077L82.729,40.077L82.801,40.077L82.875,40.077L83.026,40.077L83.102,40.077L83.181,40.077L83.253,40.077L83.327,40.077L83.478,40.077L83.554,40.077L83.633,40.077L83.705,40.077L83.779,40.077L83.931,40.077L84.006,40.077L84.085,40.077L84.157,40.077L84.231,40.077L84.383,40.077L84.458,40.077L84.537,40.077L84.609,40.077L84.684,40.077L84.834,40.077L84.91,40.077L84.989,40.077L85.061,40.077L85.136,40.077L85.287,40.077L85.363,40.077L85.442,40.077L85.514,40.077L85.588,40.077L85.739,40.077L85.815,40.077L85.895,40.077L85.966,40.077L86.041,40.077L86.192,40.077L86.267,40.077L86.347,40.077L86.418,40.077L86.493,40.077L86.644,40.077L86.719,40.077L86.799,40.077L86.87,40.077L86.945,40.077L87.096,40.077L87.172,40.077L87.251,40.077L87.323,40.077L87.397,40.077L87.548,40.077L87.623,40.077L87.702,40.077L87.774,40.077L87.849,40.077L88.001,40.077L88.076,40.077L88.16,40.077L88.231,40.077L88.301,40.077L88.453,40.077L88.528,40.077L88.608,40.077L88.68,40.077L88.754,40.077L88.905,40.077L88.981,40.077L89.059,40.077L89.132,40.077L89.206,40.077L89.357,40.077L89.433,40.077L89.512,40.077L89.584,40.077L89.658,40.077L89.81,40.077L89.885,40.077L89.965,40.077L90.036,40.077L90.11,40.077L90.262,40.077L90.337,40.077L90.417,40.077L90.489,40.077L90.563,40.077L90.714,40.077L90.789,40.077L90.868,40.077L90.94,40.077L91.015,40.077L91.166,40.077L91.241,40.077L91.321,40.077L91.393,40.077L91.467,40.077L91.618,40.077L91.694,40.077L91.774,40.077L91.845,40.077L91.919,40.077L92.07,40.077L92.146,40.077L92.226,40.077L92.297,40.077L92.371,40.077L92.522,40.077L92.598,40.077L92.678,40.077L92.749,40.077L92.824,40.077L92.975,40.077L93.051,40.077L93.13,40.077L93.202,40.077L93.276,40.077L93.428,40.077L93.503,40.077L93.582,40.077L93.654,40.077L93.728,40.077L93.879,40.077L93.954,40.077L94.034,40.077L94.105,40.077L94.18,40.077L94.331,40.077L94.406,40.077L94.486,40.077L94.558,40.077L94.632,40.077L94.784,40.077L94.859,40.077L94.939,40.077L95.011,40.077L95.085,40.077L95.236,40.077L95.311,40.077L95.391,40.077L95.463,40.077L95.537,40.077L95.688,40.077L95.763,40.077L95.844,40.077L95.915,40.077L95.989,40.077L96.14,40.077L96.216,40.077L96.296,40.077L96.367,40.077L96.442,40.077L96.593,40.077L96.668,40.077L96.748,40.077L96.82,40.077L96.894,40.077L97.045,40.077L97.12,40.077L97.199,40.077L97.271,40.077L97.346,40.077L97.498,40.077L97.572,40.077L97.652,40.077L97.723,40.077L97.798,40.077L97.949,40.077L98.025,40.077L98.105,40.077L98.176,40.077L98.251,40.077L98.402,40.077L98.477,40.077L98.557,40.077L98.628,40.077L98.702,40.077L98.854,40.077L98.929,40.077L99.01,40.077L99.081,40.077L99.155,40.077L99.306,40.077L99.382,40.077L99.462,40.077L99.533,40.077L99.607,40.077L99.758,40.077L99.834,40.077L99.914,40.077L99.985,40.077L100.059,40.077L100.211,40.077L100.286,40.077L100.365,40.077L100.438,40.077L100.511,40.077L100.663,40.077L100.738,40.077L100.817,40.077L100.889,40.077L100.964,40.077L101.115,40.077L101.191,40.077L101.271,40.077L101.342,40.077L101.416,40.077L101.567,40.077L101.643,40.077L101.723,40.077L101.794,40.077L101.868,40.077L102.019,40.077L102.095,40.077L102.175,40.077L102.247,40.077L102.32,40.077L102.472,40.077L102.547,40.077L102.627,40.077L102.698,40.077L102.772,40.077L102.924,40.077L102.999,40.077L103.079,40.077L103.151,40.077L103.225,40.077L103.376,40.077L103.451,40.077L103.53,40.077L103.603,40.077L103.678,40.077L103.828,40.077L103.903,40.077L103.983,40.077L104.055,40.077L104.129,40.077L104.28,40.077L104.356,40.077L104.436,40.077L104.507,40.077L104.582,40.077L104.733,40.077L104.808,40.077L104.888,40.077L104.959,40.077L105.034,40.077L105.185,40.077L105.261,40.077L105.339,40.077L105.412,40.077L105.486,40.077L105.637,40.077L105.713,40.077L105.793,40.077L105.865,40.077L105.938,40.077L106.089,40.077L106.165,40.077L106.245,40.077L106.316,40.077L106.39,40.077L106.542,40.077L106.617,40.077L106.697,40.077L106.768,40.077L106.842,40.077L106.994,40.077L107.069,40.077L107.149,40.077L107.22,40.077L107.295,40.077L107.447,40.077L107.522,40.077L107.602,40.077L107.673,40.077L107.747,40.077L107.899,40.077L107.974,40.077L108.054,40.077L108.125,40.077L108.199,40.077L108.351,40.077L108.426,40.077L108.506,40.077L108.578,40.077L108.651,40.077L108.803,40.077L108.879,40.077L108.959,40.077L109.03,40.077L109.104,40.077L109.255,40.077L109.331,40.077L109.411,40.077L109.482,40.077L109.556,40.077L109.708,40.077L109.783,40.077L109.862,40.077L109.934,40.077L110.008,40.077L110.16,40.077L110.235,40.077L110.315,40.077L110.386,40.077L110.46,40.077L110.612,40.077L110.688,40.077L110.768,40.077L110.839,40.077L110.913,40.077L111.064,40.077L111.14,40.077L111.22,40.077L111.291,40.077L111.365,40.077L111.516,40.077L111.592,40.077L111.672,40.077L111.743,40.077L111.818,40.077L111.969,40.077L112.044,40.077L112.124,40.077L112.195,40.077L112.269,40.077L112.421,40.077L112.496,40.077L112.576,40.077L112.648,40.077L112.721,40.077L112.873,40.077L112.948,40.077L113.028,40.077L113.099,40.077L113.173,40.077L113.325,40.077L113.4,40.077L113.48,40.077L113.552,40.077L113.626,40.077L113.777,40.077L113.854,40.077L113.934,40.077L114.004,40.077L114.078,40.077L114.23,40.077L114.305,40.077L114.386,40.077L114.456,40.077L114.53,40.077L114.682,40.077L114.758,40.077L114.838,40.077L114.909,40.077L114.982,40.077L115.135,40.077L115.21,40.077L115.29,40.077L115.361,40.077L115.435,40.077L115.586,40.077L115.662,40.077L115.742,40.077L115.813,40.077L115.887,40.077L116.039,40.077L116.114,40.077L116.194,40.077L116.265,40.077L116.339,40.077L116.491,40.077L116.566,40.077L116.646,40.077L116.717,40.077L116.791,40.077L116.944,40.077L117.019,40.077L117.1,40.077L117.17,40.077L117.244,40.077L117.394,40.077L117.471,40.077L117.551,40.077L117.622,40.077L117.696,40.077L117.848,40.077L117.923,40.077L118.003,40.077L118.074,40.077L118.148,40.077L118.3,40.077L118.376,40.077L118.456,40.077L118.527,40.077L118.6,40.077L118.752,40.077L118.828,40.077L118.908,40.077L118.979,40.077L119.053,40.077L119.204,40.077L119.279,40.077L119.359,40.077L119.431,40.077L119.504,40.077L119.657,40.077L119.732,40.077L119.812,40.077L119.883,40.077L119.957,40.077L120.109,40.077L120.185,40.077L120.265,40.077L120.336,40.077L120.41,40.077L120.561,40.077L120.637,40.077L120.717,40.077L120.788,40.077L120.862,40.077L121.013,40.077L121.09,40.077L121.17,40.077L121.241,40.077L121.314,40.077L121.466,40.077L121.541,40.077L121.622,40.077L121.692,40.077L121.766,40.077L121.918,40.077L121.994,40.077L122.074,40.077L122.145,40.077L122.37,40.077L122.445,40.077L122.525,40.077L122.596,40.077L122.67,40.077L122.822,40.077L122.897,40.077L122.977,40.077L123.049,40.077L123.122,40.077L123.275,40.077L123.351,40.077L123.431,40.077L123.502,40.077L123.575,40.077L123.727,40.077L123.803,40.077L123.883,40.077L123.954,40.077L124.027,40.077L124.179,40.077L124.255,40.077L124.335,40.077L124.406,40.077L124.48,40.077L124.631,40.077L124.707,50.077L124.787,50.077L124.858,50.077L124.932,50.077L125.083,50.077L125.159,50.077L125.239,50.077L125.31,50.077L125.384,50.077L125.535,50.077L125.611,50.077L125.691,50.077L125.762,50.077L125.836,50.077L125.987,50.077L126.063,50.077L126.143,50.077L126.214,50.077L126.288,50.077L126.44,50.077L126.516,50.077L126.596,50.077L126.667,50.077L126.741,50.077L126.892,50.077L126.968,30.846L127.048,30.846L127.119,30.846L127.192,30.846L127.344,30.846L127.42,30.846L127.501,50.077L127.571,50.077L127.645,50.077L127.796,50.077L127.872,50.077L127.953,50.077L128.023,50.077L128.097,50.077L128.249,50.077L128.324,50.077L128.405,50.077L128.475,50.077L128.55,50.077L128.701,50.077L128.776,50.077L128.856,50.077L128.928,50.077L129.001,50.077L129.153,50.077L129.228,50.077L129.309,50.077L129.379,50.077L129.454,50.077L129.606,50.077L129.682,50.077L129.762,50.077L129.833,50.077L129.906,50.077L130.058,50.077L130.134,50.077L130.214,50.077L130.285,50.077L130.358,50.077L130.51,50.077L130.586,50.077L130.666,50.077L130.737,50.077L130.811,50.077L130.963,50.077L131.038,50.077L131.118,50.077L131.189,50.077L131.263,50.077L131.415,50.077L131.49,50.077L131.57,50.077L131.641,50.077L131.715,50.077L131.866,50.077L131.942,50.077L132.022,50.077L132.093,50.077L132.168,50.077L132.319,50.077L132.394,50.077L132.474,50.077L132.545,50.077L132.619,50.077L132.771,50.077L132.847,50.077L132.927,50.077L132.998,50.077L133.072,50.077L133.224,50.077L133.299,50.077L133.38,50.077L133.45,50.077L133.524,50.077L133.675,50.077L133.751,50.077L133.832,50.077L133.903,50.077L133.977,50.077L134.128,50.077L134.204,50.077L134.284,50.077L134.355,50.077L134.428,50.077L134.58,50.077L134.656,50.077L134.736,50.077L134.807,50.077L134.881,50.077L135.032,50.077L135.107,50.077L135.187,50.077L135.258,50.077L135.332,50.077L135.484,50.077L135.56,50.077L135.64,50.077L135.711,50.077L135.786,50.077L135.937,50.077L136.013,50.077L136.093,50.077L136.164,50.077L136.237,50.077L136.389,50.077L136.465,50.077L136.545,50.077L136.616,50.077L136.689,50.077L136.841,50.077L136.918,50.077L136.997,50.077L137.069,50.077L137.142,50.077L137.449,50.077L137.52,50.077L137.594,50.077L137.745,50.077L137.821,50.077L137.901,50.077L137.972,50.077L138.046,50.077L138.198,50.077L138.273,50.077L138.353,50.077L138.424,50.077L138.498,50.077L138.65,50.077L138.725,50.077L138.805,50.077L138.876,50.077L138.95,50.077L139.102,50.077L139.178,50.077L139.258,50.077L139.329,50.077L139.403,50.077L139.554,50.077L139.63,50.077L139.71,50.077L139.78,50.077L139.855,50.077L140.007,50.077L140.082,50.077L140.162,50.077L140.233,50.077L140.307,50.077L140.459,50.077L140.534,50.077L140.614,50.077L140.685,50.077L140.759,50.077L140.911,50.077L140.986,50.077L141.066,50.077L141.137,50.077L141.211,50.077L141.363,50.077L141.438,50.077L141.518,50.077L141.589,50.077L141.663,50.077L141.815,50.077L141.89,50.077L141.97,50.077L142.041,50.077L142.115,50.077L142.267,50.077L142.343,50.077L142.423,50.077L142.494,50.077L142.568,50.077L142.72,50.077L142.795,50.077L142.876,50.077L142.947,50.077L143.02,50.077L143.172,50.077L143.248,50.077L143.328,58.538L143.399,58.538L143.473,58.538L143.624,58.538L143.7,58.538L143.781,58.538L143.851,58.538L143.925,58.538L144.077,58.538L144.152,58.538L144.233,58.538L144.304,58.538L144.377,58.538L144.529,58.538L144.604,58.538L144.684,58.538L144.756,58.538L144.829,58.538L144.981,58.538L145.056,58.538L145.136,58.538L145.207,58.538L145.282,58.538L145.434,58.538L145.51,58.538L145.59,58.538L145.661,58.538L145.734,58.538L145.886,58.538L145.962,58.538L146.042,58.538L146.113,58.538L146.186,58.538L146.338,58.538L146.414,58.538L146.494,58.538L146.565,58.538L146.639,58.538L146.79,46.231L146.866,46.231L146.947,58.538L147.017,58.538L147.091,58.538L147.242,58.538L147.318,58.538L147.399,46.231L147.47,46.231L147.543,46.231L147.694,46.231L147.77,46.231L147.85,46.231L147.921,46.231L147.995,46.231L148.146,46.231L148.222,46.231L148.302,46.231L148.373,46.231L148.447,46.231L148.599,46.231L148.675,46.231L148.756,46.231L148.826,46.231L148.9,46.231L149.051,46.231L149.128,46.231L149.208,46.231L149.279,46.231L149.352,46.231L149.504,46.231L149.58,46.231L149.66,58.538L149.731,58.538L149.804,58.538L149.956,58.538L150.032,58.538L150.113,58.538L150.183,58.538L150.256,58.538L150.408,58.538L150.484,58.538L150.564,58.538L150.635,58.538L150.708,58.538L150.86,58.538L150.935,58.538L151.015,58.538L151.086,58.538L151.16,58.538L151.313,58.538L151.388,58.538L151.468,58.538L151.538,58.538L151.613,58.538L151.765,58.538L151.841,58.538L151.922,58.538L151.992,58.538L152.065,58.538L152.217,30.846L152.293,30.846L152.374,58.538L152.444,58.538L152.518,58.538L152.669,58.538L152.746,58.538L152.826,58.538L152.897,58.538L152.97,58.538L153.121,30.846L153.198,30.846L153.278,46.231L153.349,46.231L153.422,46.231L153.574,30.846L153.65,30.846L153.73,46.231L153.8,46.231L153.874,46.231L154.026,46.231L154.101,46.231L154.181,46.231L154.252,46.231L154.326,46.231L154.478,46.231L154.553,46.231L154.634,46.231L154.704,46.231L154.778,46.231L154.93,46.231L155.007,46.231L155.087,46.231L155.158,46.231L155.231,46.231L155.383,46.231L155.459,46.231L155.54,46.231L155.61,46.231L155.683,46.231L155.835,46.231L155.911,46.231L155.992,46.231L156.062,46.231L156.135,46.231L156.287,46.231L156.363,46.231L156.444,46.231L156.514,46.231L156.588,46.231L156.739,46.231L156.815,46.231L156.896,46.231L156.966,46.231L157.04,46.231L157.191,46.231L157.266,46.231L157.347,46.231L157.417,46.231L157.491,46.231L157.643,46.231L157.719,46.231L157.799,46.231L157.869,46.231L157.944,46.231L158.096,46.231L158.172,46.231L158.253,46.231L158.323,46.231L158.396,46.231L158.548,46.231L158.624,46.231L158.705,46.231L158.775,46.231L158.848,46.231L159,46.231L159.076,46.231L159.156,46.231L159.227,46.231L159.301,46.231L159.452,46.231L159.528,46.231L159.609,46.231L159.678,46.231L159.753,46.231L159.904,46.231L159.98,46.231L160.06,46.231L160.13,46.231L160.204,46.231L160.356,46.231L160.431,46.231L160.511,46.231L160.582,46.231L160.656,46.231L160.808,46.231L160.883,46.231L160.963,46.231L161.034,46.231L161.108,46.231L161.261,46.231L161.336,46.231L161.417,46.231L161.487,46.231L161.561,46.231L161.713,46.231L161.788,46.231L161.868,46.231L161.939,46.231L162.013,46.231L162.165,46.231L162.241,46.231L162.32,46.231L162.391,46.231L162.465,46.231L162.617,46.231L162.693,46.231L162.773,46.231L162.843,46.231L162.918,46.231L163.069,46.231L163.145,46.231L163.225,46.231L163.296,46.231L163.37,46.231L163.521,46.231L163.597,46.231L163.677,46.231L163.748,46.231L163.822,46.231L163.974,46.231L164.049,46.231L164.129,46.231L164.2,46.231L164.274,46.231L164.426,46.231L164.502,46.231L164.582,46.231L164.653,46.231L164.726,46.231L164.878,46.231L164.954,46.231L165.034,46.231L165.105,46.231L165.179,46.231L165.33,46.231L165.406,46.231L165.486,46.231L165.557,46.231L165.631,46.231L165.783,46.231L165.858,46.231L165.939,46.231L166.009,46.231L166.083,46.231L166.235,46.231L166.311,46.231L166.391,46.231L166.462,46.231L166.535,46.231L166.687,46.231L166.762,46.231L166.842,46.231L166.913,46.231L166.987,46.231L167.139,46.231L167.214,46.231L167.294,46.231L167.366,46.231L167.44,46.231L167.592,46.231L167.667,46.231L167.748,46.231L167.819,46.231L167.892,46.231L168.043,46.231L168.12,46.231L168.2,46.231L168.274,46.231L168.344,46.231L168.496,46.231L168.572,46.231L168.652,46.231L168.723,46.231L168.797,46.231L168.948,46.231L169.024,46.231L169.105,46.231L169.175,46.231L169.249,46.231L169.4,46.231L169.476,46.231L169.557,46.231L169.627,46.231L169.701,46.231L169.852,46.231L169.928,46.231L170.008,46.231L170.079,46.231L170.153,46.231L170.305,46.231L170.38,46.231L170.46,46.231L170.531,46.231L170.605,46.231L170.757,46.231L170.833,46.231L170.914,46.231L170.985,46.231L171.057,46.231L171.209,46.231L171.285,46.231L171.365,46.231L171.436,46.231L171.51,46.231L171.661,46.231L171.737,46.231L171.817,46.231L171.888,46.231L171.962,46.231L172.113,46.231L172.189,46.231L172.269,46.231L172.414,46.231L172.566,46.231L172.641,46.231L172.721,46.231L172.792,46.231L173.093,34.692L173.172,46.231L173.244,46.231L173.319,46.231L173.47,46.231L173.545,46.231L173.625,46.231L173.696,46.231L173.77,46.231L173.922,46.231L173.998,46.231L174.079,46.231L174.149,46.231L174.223,46.231L174.374,46.231L174.45,46.231L174.531,46.231L174.602,46.231L174.675,46.231L174.827,46.231L174.903,46.231L174.983,46.231L175.054,46.231L175.127,46.231L175.279,46.231L175.355,46.231L175.435,46.231L175.506,46.231L175.58,46.231L175.731,46.231L175.807,46.231L175.887,46.231L175.958,46.231L176.032,46.231L176.183,46.231L176.258,46.231L176.338,46.231L176.41,46.231L176.484,46.231L176.635,46.231L176.71,46.231L176.79,46.231L176.862,46.231L176.936,46.231L177.088,46.231L177.164,46.231L177.244,23.154L177.315,23.154L177.389,23.154L177.54,23.154L177.616,23.154L177.696,30.846L177.767,30.846L177.841,30.846L177.992,30.846L178.068,30.846L178.148,30.846L178.219,30.846L178.293,30.846L178.445,30.846L178.52,30.846L178.6,30.846L178.673,30.846L178.745,30.846L178.897,30.846L178.972,30.846L179.052,30.846L179.124,30.846L179.197,30.846L179.349,30.846L179.424,30.846L179.503,30.846L179.575,30.846L179.65,30.846L179.801,30.846L179.876,30.846L179.956,30.846L180.027,30.846L180.102,30.846L180.254,30.846L180.329,30.846L180.409,30.846L180.48,30.846L180.554,30.846L180.705,30.846L180.781,30.846L180.862,30.846L180.933,30.846L181.006,30.846L181.158,30.846L181.234,30.846L181.314,30.846L181.385,30.846L181.459,30.846L181.611,30.846L181.686,30.846L181.766,30.846L181.837,30.846L181.911,30.846L182.063,30.846L182.138,30.846L182.218,30.846L182.289,30.846L182.363,30.846L182.514,30.846L182.59,30.846L182.669,30.846L182.74,30.846L182.815,30.846L182.966,30.846L183.042,30.846L183.121,30.846L183.192,30.846L183.267,30.846L183.419,30.846L183.495,30.846L183.575,30.846L183.646,30.846L183.72,30.846L183.871,30.846L183.947,30.846L184.027,30.846L184.099,30.846L184.172,30.846L184.324,30.846L184.399,30.846L184.48,30.846L184.55,30.846L184.624,30.846L184.851,30.846L184.932,30.846L185.003,30.846L185.078,30.846L185.228,30.846L185.304,30.846L185.384,30.846L185.455,30.846L185.529,30.846L185.68,30.846L185.755,30.846L185.835,30.846L185.906,30.846L185.98,30.846L186.132,30.846L186.207,30.846L186.288,30.846L186.358,30.846L186.433,30.846L186.585,30.846L186.661,30.846L186.741,30.846L186.811,30.846L186.885,30.846L187.037,30.846L187.113,30.846L187.193,30.846L187.264,30.846L187.338,30.846L187.49,30.846L187.565,30.846L187.645,30.846L187.716,30.846L187.79,30.846L187.941,30.846L188.017,30.846L188.098,30.846L188.169,30.846L188.242,30.846L188.394,30.846L188.469,30.846L188.55,30.846L188.62,30.846L188.694,30.846L188.846,30.846L188.921,30.846L189,30.846L189.072,30.846L189.146,30.846L189.298,30.846L189.373,30.846L189.453,30.846L189.524,30.846L189.599,30.846L189.75,30.846L189.826,30.846L189.907,30.846L189.978,30.846L190.051,30.846L190.202,30.846L190.279,30.846L190.359,30.846L190.43,30.846L190.503,30.846L190.655,30.846L190.731,30.846L190.811,30.846L190.882,30.846L190.956,30.846L191.107,30.846L191.183,30.846L191.263,30.846L191.334,30.846L191.408,30.846L191.559,30.846L191.635,30.846L191.715,30.846L191.786,30.846L191.86,30.846L192.011,30.846L192.087,30.846L192.166,30.846L192.237,30.846L192.312,30.846L192.463,30.846L192.539,30.846L192.618,30.846L192.69,30.846L192.764,30.846L192.916,30.846L192.992,30.846L193.072,30.846L193.143,30.846L193.217,30.846L193.368,30.846L193.444,30.846L193.525,30.846L193.596,30.846L193.669,30.846L193.82,30.846L193.897,30.846L193.977,30.846L194.049,30.846L194.121,30.846L194.273,30.846L194.349,30.846L194.429,30.846L194.5,30.846L194.573,30.846L194.725,30.846L194.801,30.846L194.881,30.846L194.952,30.846L195.025,30.846L195.175,30.846L195.251,30.846L195.33,30.846L195.401,30.846L195.477,30.846L195.628,30.846L195.703,30.846L195.782,30.846L195.854,30.846L195.929,30.846L196.08,30.846L196.156,30.846L196.238,30.846L196.309,30.846L196.382,30.846L196.534,30.846L196.61,30.846L196.691,34.692L196.761,34.692L196.835,34.692L196.986,34.692L197.062,34.692L197.143,34.692L197.214,34.692L197.287,34.692L197.439,23.154L197.515,23.154L197.595,23.154L197.666,23.154L197.739,23.154L197.89,23.154L197.966,23.154L198.046,23.154L198.117,23.154L198.191,23.154L198.342,23.154L198.418,23.154L198.498,34.692L198.569,34.692L198.643,34.692L198.795,34.692L198.87,34.692L198.95,34.692L199.021,34.692L199.095,34.692L199.248,34.692L199.323,34.692L199.404,23.154L199.475,23.154L199.548,23.154L199.7,23.154L199.776,23.154L199.856,23.154L199.927,23.154L200,23.154" stroke="#f58518" stroke-width="2"/></g></g><path class="foreground" aria-hidden="true" d="" display="none"/></g></g><g class="mark-group role-legend" role="graphics-symbol" aria-roledescription="legend" aria-label="Symbol legend titled 'identifier' for stroke color with 2 values: altex-LG-F2WR508SBW, altex-LG-F2WR508SBM"><g transform="translate(220,0)"><path class="background" aria-hidden="true" d="M0,0h168v40h-168Z" pointer-events="none"/><g><g class="mark-group role-legend-entry"><g transform="translate(0,16)"><path class="background" aria-hidden="true" d="M0,0h0v0h0Z" pointer-events="none"/><g><g class="mark-group role-scope" role="graphics-object" aria-roledescription="group mark container"><g transform="translate(0,0)"><path class="background" aria-hidden="true" d="M0,0h168v11h-168Z" pointer-events="none" opacity="1"/><g><g class="mark-symbol role-legend-symbol" pointer-events="none"><path transform="translate(6,6)" d="M-5,0L5,0" stroke="#4c78a8" stroke-width="1.5" opacity="1"/></g><g class="mark-text role-legend-label" pointer-events="none"><text text-anchor="start" transform="translate(16,9)" font-family="Liberation Mono" font-size="10px" fill="#000" opacity="1">altex-LG-F2WR508SBW</text></g></g><path class="foreground" aria-hidden="true" d="" pointer-events="none" display="none"/></g><g transform="translate(0,13)"><path class="background" aria-hidden="true" d="M0,0h168v11h-168Z" pointer-events="none" opacity="1"/><g><g class="mark-symbol role-legend-symbol" pointer-events="none"><path transform="translate(6,6)" d="M-5,0L5,0" stroke="#f58518" stroke-width="1.5" opacity="1"/></g><g class="mark-text role-legend-label" pointer-events="none"><text text-anchor="start" transform="translate(16,9)" font-family="Liberation Mono" font-size="10px" fill="#000" opacity="1">altex-LG-F2WR508SBM</text></g></g><path class="foreground" aria-hidden="true" d="" pointer-events="none" display="none"/></g></g></g><path class="foreground" aria-hidden="true" d="" pointer-events="none" display="none"/></g></g><g class="mark-text role-legend-title" pointer-events="none"><text text-anchor="start" transform="translate(0,9)" font-family="Liberation Mono" font-size="11px" font-weight="bold" fill="#000" opacity="1">identifier</text></g></g><path class="foreground" aria-hidden="true" d="" pointer-events="none" display="none"/></g></g></g><path class="foreground" aria-hidden="true" d="" display="none"/></g></g></g></svg>